<?xml version="1.0" encoding="utf-8"?>
<!-- Generator: Adobe Illustrator 25.2.0, SVG Export Plug-In . SVG Version: 6.00 Build 0)  -->
<svg version="1.1" id="图层_1" xmlns="http://www.w3.org/2000/svg" xmlns:xlink="http://www.w3.org/1999/xlink" x="0px" y="0px"
	 viewBox="0 0 800 400" style="enable-background:new 0 0 800 400;" xml:space="preserve">
<style type="text/css">
	.st0{fill:#FF870A;}
	.st1{font-family:'ArialMT';}
	.st2{font-size:14.422px;}
	.st3{fill:#0A0BFF;}
	.st4{fill:none;stroke:#000000;stroke-width:0.38;stroke-miterlimit:3.05;}
	.st5{stroke:#000000;stroke-width:0.38;stroke-miterlimit:3.05;}
	.st6{fill:none;stroke:#000000;stroke-width:0.84;stroke-miterlimit:3.05;}
	.st7{fill:#32CD32;}
	.st8{fill:#228B22;}
	.st9{fill:#008080;}
	.st10{letter-spacing:-0.9;}
	.st11{fill:#FFC0CB;}
	.st12{font-size:20px;}
</style>
<g id="topgroup">
	<g id="ID000000">
		<g id="ID000002">
			<text transform="matrix(1.1404 0 0 1 406.7021 184.938)" class="st0 st1 st2">G</text>
		</g>
		<g id="ID000003">
			<text transform="matrix(1.1404 0 0 1 406.7021 199.481)" class="st0 st1 st2">G</text>
		</g>
		<g id="ID000004">
			<text transform="matrix(1.1404 0 0 1 406.7021 214.0234)" class="st0 st1 st2">G</text>
		</g>
		<g id="ID000005">
			<text transform="matrix(1.1404 0 0 1 407.6152 228.5771)" class="st0 st1 st2">A</text>
		</g>
		<g id="ID000006">
			<text transform="matrix(1.1404 0 0 1 406.7021 243.1211)" class="st0 st1 st2">G</text>
		</g>
		<g id="ID000007">
			<text transform="matrix(1.1404 0 0 1 407.6152 257.6631)" class="st0 st1 st2">A</text>
		</g>
		<g id="ID000008">
			<text transform="matrix(1.1404 0 0 1 407.6152 272.2061)" class="st0 st1 st2">A</text>
		</g>
		<g id="ID000009">
			<text transform="matrix(1.1404 0 0 1 361.4692 283.1191)" class="st3 st1 st2">C</text>
		</g>
		<g id="ID000010">
			<text transform="matrix(1.1404 0 0 1 373.9268 272.2061)" class="st0 st1 st2">U</text>
		</g>
		<g id="ID000011">
			<text transform="matrix(1.1404 0 0 1 373.9268 257.6631)" class="st0 st1 st2">U</text>
		</g>
		<g id="ID000012">
			<text transform="matrix(1.1404 0 0 1 373.9268 243.1211)" class="st0 st1 st2">C</text>
		</g>
		<g id="ID000013">
			<text transform="matrix(1.1404 0 0 1 373.9268 228.5771)" class="st0 st1 st2">U</text>
		</g>
		<g id="ID000014">
			<text transform="matrix(1.1404 0 0 1 373.9268 214.0234)" class="st0 st1 st2">C</text>
		</g>
		<g id="ID000015">
			<text transform="matrix(1.1404 0 0 1 373.9268 199.481)" class="st0 st1 st2">C</text>
		</g>
		<g id="ID000016">
			<text transform="matrix(1.1404 0 0 1 373.9268 184.938)" class="st0 st1 st2">U</text>
		</g>
		<g id="ID000017">
			<text transform="matrix(1.1404 0 0 1 361.0112 170.3843)" class="st3 st1 st2">G</text>
		</g>
		<g id="ID000018">
			<text transform="matrix(1.1404 0 0 1 344.8579 163.1118)" class="st3 st1 st2">C</text>
		</g>
		<g id="ID000019">
			<line class="st4" x1="339.7" y1="156.6" x2="328.7" y2="156.6"/>
		</g>
		<g id="ID000020">
			<text transform="matrix(1.1404 0 0 1 310.3325 163.1118)" class="st1 st2">30</text>
		</g>
		<g id="ID000021">
			<polygon class="st5" points="393.2,179.5 393.2,179.7 393.2,179.9 393.2,180 393.3,180.2 393.3,180.4 393.4,180.6 393.5,180.7 
				393.6,180.9 393.7,181.1 393.8,181.2 393.9,181.4 394.1,181.5 394.2,181.6 394.4,181.7 394.6,181.9 394.7,182 394.9,182.1 
				395.1,182.1 395.3,182.2 395.5,182.3 395.7,182.3 395.9,182.4 396.1,182.4 396.3,182.4 396.5,182.4 396.8,182.4 397,182.4 
				397.2,182.3 397.4,182.3 397.6,182.2 397.8,182.2 398,182.1 398.2,182 398.3,181.9 398.5,181.8 398.7,181.7 398.8,181.6 
				399,181.4 399.1,181.3 399.2,181.1 399.3,181 399.4,180.8 399.5,180.6 399.6,180.5 399.7,180.3 399.7,180.1 399.8,179.9 
				399.8,179.8 399.8,179.6 399.8,179.4 399.8,179.2 399.8,179 399.7,178.8 399.7,178.7 399.6,178.5 399.5,178.3 399.4,178.2 
				399.3,178 399.2,177.8 399.1,177.7 399,177.5 398.8,177.4 398.7,177.3 398.5,177.2 398.3,177.1 398.2,177 398,176.9 397.8,176.8 
				397.6,176.7 397.4,176.7 397.2,176.6 397,176.6 396.8,176.6 396.5,176.6 396.3,176.6 396.1,176.6 395.9,176.6 395.7,176.7 
				395.5,176.7 395.3,176.8 395.1,176.8 394.9,176.9 394.7,177 394.6,177.1 394.4,177.2 394.2,177.3 394.1,177.5 393.9,177.6 
				393.8,177.8 393.7,177.9 393.6,178.1 393.5,178.2 393.4,178.4 393.3,178.6 393.3,178.8 393.2,178.9 393.2,179.1 393.2,179.3 			
				"/>
		</g>
		<g id="ID000022">
			<line class="st4" x1="406.5" y1="192.9" x2="386.5" y2="192.9"/>
		</g>
		<g id="ID000023">
			<line class="st4" x1="406.5" y1="207.5" x2="386.5" y2="207.5"/>
		</g>
		<g id="ID000024">
			<line class="st4" x1="406.5" y1="222" x2="386.5" y2="222"/>
		</g>
		<g id="ID000025">
			<line class="st4" x1="406.5" y1="236.6" x2="386.5" y2="236.6"/>
		</g>
		<g id="ID000026">
			<line class="st4" x1="406.5" y1="251.1" x2="386.5" y2="251.1"/>
		</g>
		<g id="ID000027">
			<line class="st6" x1="413.1" y1="271.5" x2="413.1" y2="299.9"/>
		</g>
		<g id="ID000028">
			<polygon class="st5" points="418.1,280.8 415.6,283.2 414.8,285.7 414.3,288.1 413.1,292.9 411.9,288.1 411.4,285.7 410.6,283.2 
				408.1,280.8 			"/>
		</g>
		<g id="ID000029">
			<line class="st4" x1="406.5" y1="265.7" x2="386.5" y2="265.7"/>
		</g>
		<g id="ID000031">
			<text transform="matrix(1.1404 0 0 1 407.1592 312.2158)" class="st0 st1 st2">U</text>
		</g>
		<g id="ID000032">
			<text transform="matrix(1.1404 0 0 1 407.1592 326.7588)" class="st0 st1 st2">U</text>
		</g>
		<g id="ID000033">
			<text transform="matrix(1.1404 0 0 1 407.1592 341.3135)" class="st0 st1 st2">C</text>
		</g>
		<g id="ID000034">
			<line class="st4" x1="424.2" y1="334.8" x2="435.3" y2="334.8"/>
		</g>
		<g id="ID000035">
			<text transform="matrix(1.1404 0 0 1 435.2549 341.3135)" class="st1 st2">10</text>
		</g>
		<g id="ID000036">
			<text transform="matrix(1.1404 0 0 1 411.3125 355.8564)" class="st3 st1 st2">C</text>
		</g>
		<g id="ID000037">
			<text transform="matrix(1.1404 0 0 1 415.9805 374.041)" class="st3 st1 st2">G</text>
		</g>
		<g id="ID000038">
			<text transform="matrix(1.1404 0 0 1 403.4541 388.583)" class="st3 st1 st2">A</text>
		</g>
		<g id="ID000039">
			<text transform="matrix(1.1404 0 0 1 381.2598 388.583)" class="st3 st1 st2">C</text>
		</g>
		<g id="ID000040">
			<text transform="matrix(1.1404 0 0 1 365.6216 374.041)" class="st3 st1 st2">C</text>
		</g>
		<g id="ID000041">
			<text transform="matrix(1.1404 0 0 1 370.2314 355.8564)" class="st3 st1 st2">A</text>
		</g>
		<g id="ID000042">
			<text transform="matrix(1.1404 0 0 1 373.4702 341.3135)" class="st0 st1 st2">G</text>
		</g>
		<g id="ID000043">
			<text transform="matrix(1.1404 0 0 1 374.3838 326.7588)" class="st0 st1 st2">A</text>
		</g>
		<g id="ID000044">
			<text transform="matrix(1.1404 0 0 1 374.3838 312.2158)" class="st0 st1 st2">A</text>
		</g>
		<g id="ID000045">
			<text transform="matrix(1.1404 0 0 1 361.0112 297.6738)" class="st3 st1 st2">G</text>
		</g>
		<g id="ID000046">
			<line class="st4" x1="356.3" y1="291.1" x2="345.3" y2="291.1"/>
		</g>
		<g id="ID000047">
			<text transform="matrix(1.1404 0 0 1 326.9438 297.6738)" class="st1 st2">20</text>
		</g>
		<g id="ID000048">
			<line class="st4" x1="406.5" y1="305.7" x2="386.5" y2="305.7"/>
		</g>
		<g id="ID000049">
			<line class="st4" x1="406.5" y1="320.2" x2="386.5" y2="320.2"/>
		</g>
		<g id="ID000050">
			<line class="st4" x1="406.5" y1="334.8" x2="386.5" y2="334.8"/>
		</g>
		<g id="ID000052">
			<text transform="matrix(1.1404 0 0 1 344.8579 144.9282)" class="st3 st1 st2">C</text>
		</g>
		<g id="ID000053">
			<text transform="matrix(1.1404 0 0 1 327.7798 137.6567)" class="st7 st1 st2">G</text>
		</g>
		<g id="ID000054">
			<text transform="matrix(1.1404 0 0 1 311.6265 137.6567)" class="st7 st1 st2">C</text>
		</g>
		<g id="ID000055">
			<text transform="matrix(1.1404 0 0 1 294.5576 137.6567)" class="st7 st1 st2">G</text>
		</g>
		<g id="ID000056">
			<text transform="matrix(1.1404 0 0 1 278.4043 137.6567)" class="st7 st1 st2">C</text>
		</g>
		<g id="ID000057">
			<text transform="matrix(1.1404 0 0 1 261.3354 137.6567)" class="st7 st1 st2">G</text>
		</g>
		<g id="ID000058">
			<text transform="matrix(1.1404 0 0 1 245.6294 141.2866)" class="st3 st1 st2">A</text>
		</g>
		<g id="ID000059">
			<text transform="matrix(1.1404 0 0 1 249.3247 159.4712)" class="st3 st1 st2">U</text>
		</g>
		<g id="ID000060">
			<text transform="matrix(1.1404 0 0 1 236.8667 174.0259)" class="st3 st1 st2">U</text>
		</g>
		<g id="ID000061">
			<text transform="matrix(1.1404 0 0 1 216.1025 181.2964)" class="st3 st1 st2">U</text>
		</g>
		<g id="ID000062">
			<line class="st4" x1="222" y1="184.4" x2="222" y2="194.1"/>
		</g>
		<g id="ID000063">
			<text transform="matrix(1.1404 0 0 1 212.8838 211.3066)" class="st1 st2">40</text>
		</g>
		<g id="ID000064">
			<text transform="matrix(1.1404 0 0 1 216.5605 61.2896)" class="st3 st1 st2">A</text>
		</g>
		<g id="ID000065">
			<text transform="matrix(1.1404 0 0 1 236.8667 72.1909)" class="st3 st1 st2">U</text>
		</g>
		<g id="ID000066">
			<text transform="matrix(1.1404 0 0 1 248.8682 86.7446)" class="st3 st1 st2">G</text>
		</g>
		<g id="ID000067">
			<text transform="matrix(1.1404 0 0 1 245.6294 104.9292)" class="st3 st1 st2">A</text>
		</g>
		<g id="ID000068">
			<text transform="matrix(1.1404 0 0 1 261.793 108.5601)" class="st7 st1 st2">U</text>
		</g>
		<g id="ID000069">
			<text transform="matrix(1.1404 0 0 1 277.9463 108.5601)" class="st7 st1 st2">G</text>
		</g>
		<g id="ID000070">
			<text transform="matrix(1.1404 0 0 1 295.0151 108.5601)" class="st7 st1 st2">U</text>
		</g>
		<g id="ID000071">
			<text transform="matrix(1.1404 0 0 1 311.1685 108.5601)" class="st7 st1 st2">G</text>
		</g>
		<g id="ID000072">
			<text transform="matrix(1.1404 0 0 1 328.2471 108.5601)" class="st7 st1 st2">U</text>
		</g>
		<g id="ID000073">
			<line class="st4" x1="345.3" y1="102" x2="356.3" y2="102"/>
		</g>
		<g id="ID000074">
			<text transform="matrix(1.1404 0 0 1 356.3433 108.5601)" class="st1 st2">70</text>
		</g>
		<g id="ID000075">
			<text transform="matrix(1.1404 0 0 1 344.8579 101.2886)" class="st3 st1 st2">C</text>
		</g>
		<g id="ID000076">
			<text transform="matrix(1.1404 0 0 1 349.0103 86.7446)" class="st3 st1 st2">U</text>
		</g>
		<g id="ID000077">
			<text transform="matrix(1.1404 0 0 1 361.4692 72.1909)" class="st3 st1 st2">N</text>
		</g>
		<g id="ID000078">
			<text transform="matrix(1.1404 0 0 1 373.9268 61.2896)" class="st3 st1 st2">U</text>
		</g>
		<g id="ID000079">
			<text transform="matrix(1.1404 0 0 1 391.0044 54.0181)" class="st3 st1 st2">A</text>
		</g>
		<g id="ID000080">
			<text transform="matrix(1.1404 0 0 1 407.1592 50.3765)" class="st3 st1 st2">U</text>
		</g>
		<g id="ID000081">
			<polygon class="st5" points="334.2,114.8 334,114.8 333.8,114.8 333.6,114.8 333.4,114.9 333.1,114.9 333,115 332.8,115 
				332.6,115.1 332.4,115.2 332.2,115.3 332,115.4 331.9,115.6 331.7,115.7 331.6,115.8 331.5,116 331.4,116.1 331.3,116.3 
				331.2,116.5 331.1,116.6 331,116.8 331,117 330.9,117.2 330.9,117.3 330.9,117.5 330.9,117.7 330.9,117.9 330.9,118.1 
				330.9,118.3 331,118.4 331,118.6 331.1,118.8 331.2,119 331.3,119.1 331.4,119.3 331.5,119.4 331.7,119.6 331.8,119.7 332,119.8 
				332.1,119.9 332.3,120.1 332.5,120.2 332.7,120.3 332.9,120.3 333.1,120.4 333.3,120.5 333.5,120.5 333.7,120.5 333.9,120.6 
				334.1,120.6 334.3,120.6 334.5,120.6 334.7,120.5 334.9,120.5 335.1,120.5 335.3,120.4 335.5,120.3 335.7,120.3 335.9,120.2 
				336.1,120.1 336.2,119.9 336.4,119.8 336.6,119.7 336.7,119.6 336.8,119.4 337,119.3 337.1,119.1 337.2,119 337.3,118.8 
				337.3,118.6 337.4,118.4 337.4,118.3 337.5,118.1 337.5,117.9 337.5,117.7 337.5,117.5 337.5,117.3 337.5,117.2 337.4,117 
				337.4,116.8 337.3,116.6 337.2,116.5 337.1,116.3 337,116.1 336.9,116 336.8,115.8 336.6,115.7 336.5,115.6 336.3,115.4 
				336.2,115.3 336,115.2 335.8,115.1 335.6,115 335.4,115 335.2,114.9 335,114.9 334.8,114.8 334.6,114.8 334.4,114.8 			"/>
		</g>
		<g id="ID000082">
			<line class="st4" x1="317.6" y1="125.3" x2="317.6" y2="107.8"/>
		</g>
		<g id="ID000083">
			<polygon class="st5" points="301,114.8 300.8,114.8 300.5,114.8 300.3,114.8 300.1,114.9 299.9,114.9 299.7,115 299.5,115 
				299.3,115.1 299.2,115.2 299,115.3 298.8,115.4 298.7,115.6 298.5,115.7 298.4,115.8 298.3,116 298.1,116.1 298,116.3 
				297.9,116.5 297.9,116.6 297.8,116.8 297.7,117 297.7,117.2 297.7,117.3 297.6,117.5 297.6,117.7 297.7,117.9 297.7,118.1 
				297.7,118.3 297.8,118.4 297.8,118.6 297.9,118.8 298,119 298.1,119.1 298.2,119.3 298.3,119.4 298.4,119.6 298.6,119.7 
				298.7,119.8 298.9,119.9 299.1,120.1 299.3,120.2 299.4,120.3 299.6,120.3 299.8,120.4 300,120.5 300.2,120.5 300.4,120.5 
				300.6,120.6 300.9,120.6 301.1,120.6 301.3,120.6 301.5,120.5 301.7,120.5 301.9,120.5 302.1,120.4 302.3,120.3 302.5,120.3 
				302.7,120.2 302.8,120.1 303,119.9 303.2,119.8 303.3,119.7 303.5,119.6 303.6,119.4 303.7,119.3 303.8,119.1 303.9,119 
				304,118.8 304.1,118.6 304.2,118.4 304.2,118.3 304.3,118.1 304.3,117.9 304.3,117.7 304.3,117.5 304.3,117.3 304.2,117.2 
				304.2,117 304.1,116.8 304.1,116.6 304,116.5 303.9,116.3 303.8,116.1 303.7,116 303.5,115.8 303.4,115.7 303.3,115.6 
				303.1,115.4 302.9,115.3 302.8,115.2 302.6,115.1 302.4,115 302.2,115 302,114.9 301.8,114.9 301.6,114.8 301.4,114.8 
				301.2,114.8 			"/>
		</g>
		<g id="ID000084">
			<line class="st4" x1="284.3" y1="125.3" x2="284.3" y2="107.8"/>
		</g>
		<g id="ID000085">
			<polygon class="st5" points="267.7,114.8 267.5,114.8 267.3,114.8 267.1,114.8 266.9,114.9 266.7,114.9 266.5,115 266.3,115 
				266.1,115.1 265.9,115.2 265.8,115.3 265.6,115.4 265.4,115.6 265.3,115.7 265.2,115.8 265,116 264.9,116.1 264.8,116.3 
				264.7,116.5 264.6,116.6 264.6,116.8 264.5,117 264.5,117.2 264.4,117.3 264.4,117.5 264.4,117.7 264.4,117.9 264.4,118.1 
				264.5,118.3 264.5,118.4 264.6,118.6 264.7,118.8 264.8,119 264.9,119.1 265,119.3 265.1,119.4 265.2,119.6 265.4,119.7 
				265.5,119.8 265.7,119.9 265.8,120.1 266,120.2 266.2,120.3 266.4,120.3 266.6,120.4 266.8,120.5 267,120.5 267.2,120.5 
				267.4,120.6 267.6,120.6 267.8,120.6 268.1,120.6 268.3,120.5 268.5,120.5 268.7,120.5 268.9,120.4 269.1,120.3 269.3,120.3 
				269.4,120.2 269.6,120.1 269.8,119.9 270,119.8 270.1,119.7 270.2,119.6 270.4,119.4 270.5,119.3 270.6,119.1 270.7,119 
				270.8,118.8 270.9,118.6 270.9,118.4 271,118.3 271,118.1 271.1,117.9 271.1,117.7 271.1,117.5 271,117.3 271,117.2 271,117 
				270.9,116.8 270.8,116.6 270.8,116.5 270.7,116.3 270.6,116.1 270.4,116 270.3,115.8 270.2,115.7 270,115.6 269.9,115.4 
				269.7,115.3 269.5,115.2 269.3,115.1 269.2,115 269,115 268.8,114.9 268.6,114.9 268.4,114.8 268.2,114.8 267.9,114.8 			"/>
		</g>
		<g id="ID000087">
			<text transform="matrix(1.1404 0 0 1 195.3394 174.0259)" class="st3 st1 st2">U</text>
		</g>
		<g id="ID000088">
			<text transform="matrix(1.1404 0 0 1 183.3281 159.4712)" class="st3 st1 st2">A</text>
		</g>
		<g id="ID000089">
			<text transform="matrix(1.1404 0 0 1 187.0244 141.2866)" class="st3 st1 st2">C</text>
		</g>
		<g id="ID000090">
			<text transform="matrix(1.1404 0 0 1 169.9556 137.6567)" class="st8 st1 st2">G</text>
		</g>
		<g id="ID000091">
			<text transform="matrix(1.1404 0 0 1 153.8022 137.6567)" class="st8 st1 st2">C</text>
		</g>
		<g id="ID000092">
			<text transform="matrix(1.1404 0 0 1 137.1816 137.6567)" class="st8 st1 st2">C</text>
		</g>
		<g id="ID000093">
			<text transform="matrix(1.1404 0 0 1 120.1133 137.6567)" class="st8 st1 st2">G</text>
		</g>
		<g id="ID000094">
			<text transform="matrix(1.1404 0 0 1 104.416 141.2866)" class="st3 st1 st2">A</text>
		</g>
		<g id="ID000095">
			<text transform="matrix(1.1404 0 0 1 87.3481 144.9282)" class="st3 st1 st2">C</text>
		</g>
		<g id="ID000096">
			<text transform="matrix(1.1404 0 0 1 71.1846 141.2866)" class="st3 st1 st2">A</text>
		</g>
		<g id="ID000097">
			<line class="st4" x1="76.7" y1="144.4" x2="76.7" y2="154.1"/>
		</g>
		<g id="ID000098">
			<text transform="matrix(1.1404 0 0 1 67.5181 171.3081)" class="st1 st2">50</text>
		</g>
		<g id="ID000099">
			<text transform="matrix(1.1404 0 0 1 62.8789 123.1138)" class="st3 st1 st2">A</text>
		</g>
		<g id="ID000100">
			<text transform="matrix(1.1404 0 0 1 70.2705 104.9292)" class="st3 st1 st2">G</text>
		</g>
		<g id="ID000101">
			<text transform="matrix(1.1404 0 0 1 86.8911 97.6577)" class="st3 st1 st2">G</text>
		</g>
		<g id="ID000102">
			<text transform="matrix(1.1404 0 0 1 103.502 104.9292)" class="st3 st1 st2">G</text>
		</g>
		<g id="ID000103">
			<text transform="matrix(1.1404 0 0 1 120.5703 108.5601)" class="st8 st1 st2">U</text>
		</g>
		<g id="ID000104">
			<text transform="matrix(1.1404 0 0 1 136.7241 108.5601)" class="st8 st1 st2">G</text>
		</g>
		<g id="ID000105">
			<text transform="matrix(1.1404 0 0 1 153.3447 108.5601)" class="st8 st1 st2">G</text>
		</g>
		<g id="ID000106">
			<text transform="matrix(1.1404 0 0 1 170.4131 108.5601)" class="st8 st1 st2">C</text>
		</g>
		<g id="ID000107">
			<text transform="matrix(1.1404 0 0 1 187.481 104.9292)" class="st3 st1 st2">A</text>
		</g>
		<g id="ID000108">
			<text transform="matrix(1.1404 0 0 1 182.8711 86.7446)" class="st3 st1 st2">U</text>
		</g>
		<g id="ID000109">
			<line class="st4" x1="188.8" y1="70.5" x2="188.8" y2="60.8"/>
		</g>
		<g id="ID000110">
			<text transform="matrix(1.1404 0 0 1 179.6616 57.1646)" class="st1 st2">60</text>
		</g>
		<g id="ID000111">
			<text transform="matrix(1.1404 0 0 1 194.8726 72.1909)" class="st3 st1 st2">G</text>
		</g>
		<g id="ID000112">
			<line class="st4" x1="176.4" y1="125.3" x2="176.4" y2="107.8"/>
		</g>
		<g id="ID000113">
			<line class="st4" x1="159.7" y1="125.3" x2="159.7" y2="107.8"/>
		</g>
		<g id="ID000114">
			<line class="st4" x1="143.1" y1="125.3" x2="143.1" y2="107.8"/>
		</g>
		<g id="ID000115">
			<polygon class="st5" points="126.5,114.8 126.3,114.8 126.1,114.8 125.9,114.8 125.7,114.9 125.5,114.9 125.3,115 125.1,115 
				124.9,115.1 124.7,115.2 124.5,115.3 124.4,115.4 124.2,115.6 124.1,115.7 123.9,115.8 123.8,116 123.7,116.1 123.6,116.3 
				123.5,116.5 123.4,116.6 123.4,116.8 123.3,117 123.2,117.2 123.2,117.3 123.2,117.5 123.2,117.7 123.2,117.9 123.2,118.1 
				123.3,118.3 123.3,118.4 123.4,118.6 123.5,118.8 123.5,119 123.6,119.1 123.8,119.3 123.9,119.4 124,119.6 124.1,119.7 
				124.3,119.8 124.5,119.9 124.6,120.1 124.8,120.2 125,120.3 125.2,120.3 125.4,120.4 125.6,120.5 125.8,120.5 126,120.5 
				126.2,120.6 126.4,120.6 126.6,120.6 126.8,120.6 127,120.5 127.3,120.5 127.5,120.5 127.7,120.4 127.9,120.3 128,120.3 
				128.2,120.2 128.4,120.1 128.6,119.9 128.7,119.8 128.9,119.7 129,119.6 129.2,119.4 129.3,119.3 129.4,119.1 129.5,119 
				129.6,118.8 129.7,118.6 129.7,118.4 129.8,118.3 129.8,118.1 129.8,117.9 129.8,117.7 129.8,117.5 129.8,117.3 129.8,117.2 
				129.8,117 129.7,116.8 129.6,116.6 129.5,116.5 129.4,116.3 129.3,116.1 129.2,116 129.1,115.8 129,115.7 128.8,115.6 
				128.7,115.4 128.5,115.3 128.3,115.2 128.1,115.1 127.9,115 127.8,115 127.6,114.9 127.4,114.9 127.1,114.8 126.9,114.8 
				126.7,114.8 			"/>
		</g>
		<g id="ID000117">
			<text transform="matrix(1.1404 0 0 1 424.2266 54.0181)" class="st3 st1 st2">A</text>
		</g>
		<g id="ID000118">
			<text transform="matrix(1.1404 0 0 1 440.3809 61.2896)" class="st3 st1 st2">U</text>
		</g>
		<g id="ID000119">
			<text transform="matrix(1.1404 0 0 1 453.2959 72.1909)" class="st3 st1 st2">A</text>
		</g>
		<g id="ID000120">
			<text transform="matrix(1.1404 0 0 1 460.6973 86.7446)" class="st3 st1 st2">G</text>
		</g>
		<g id="ID000121">
			<line class="st4" x1="478.2" y1="80.2" x2="489.3" y2="80.2"/>
		</g>
		<g id="ID000122">
			<text transform="matrix(1.1404 0 0 1 489.251 86.7446)" class="st1 st2">80</text>
		</g>
		<g id="ID000123">
			<text transform="matrix(1.1404 0 0 1 469.002 101.2886)" class="st3 st1 st2">G</text>
		</g>
		<g id="ID000124">
			<text transform="matrix(1.1404 0 0 1 485.6133 108.5601)" class="st9 st1 st2">G</text>
		</g>
		<g id="ID000125">
			<text transform="matrix(1.1404 0 0 1 502.2246 108.5601)" class="st9 st1 st2">G</text>
		</g>
		<g id="ID000126">
			<text transform="matrix(1.1404 0 0 1 518.8447 108.5601)" class="st9 st1 st2">G</text>
		</g>
		<g id="ID000127">
			<text transform="matrix(1.1404 0 0 1 535.4561 108.5601)" class="st9 st1 st2">G</text>
		</g>
		<g id="ID000128">
			<text transform="matrix(1.1404 0 0 1 552.0674 108.5601)" class="st9 st1 st2">G</text>
		</g>
		<g id="ID000129">
			<text transform="matrix(1.1404 0 0 1 565.9551 97.6577)" class="st3 st1 st2">C</text>
		</g>
		<g id="ID000130">
			<text transform="matrix(1.1404 0 0 1 568.6201 144.9282)" class="st3 st1 st2">A</text>
		</g>
		<g id="ID000131">
			<text transform="matrix(1.1404 0 0 1 552.5244 137.6567)" class="st9 st1 st2">U</text>
		</g>
		<g id="ID000132">
			<text transform="matrix(1.1404 0 0 1 535.9131 137.6567)" class="st9 st1 st2">C</text>
		</g>
		<g id="ID000133">
			<text transform="matrix(1.1404 0 0 1 519.3018 137.6567)" class="st9 st1 st2">C</text>
		</g>
		<g id="ID000134">
			<text transform="matrix(1.1404 0 0 1 502.6816 137.6567)" class="st9 st1 st2">U</text>
		</g>
		<g id="ID000135">
			<line class="st4" x1="508.6" y1="140.8" x2="508.6" y2="150.5"/>
		</g>
		<g id="ID000136">
			<text transform="matrix(1.1404 0 0 1 495.5039 167.6665)" class="st1 st2 st10">1</text>
			<text transform="matrix(1.1404 0 0 1 503.4336 167.6665)" class="st1 st2">10</text>
		</g>
		<g id="ID000137">
			<text transform="matrix(1.1404 0 0 1 486.0703 137.6567)" class="st9 st1 st2">C</text>
		</g>
		<g id="ID000138">
			<text transform="matrix(1.1404 0 0 1 469.917 144.9282)" class="st3 st1 st2">A</text>
		</g>
		<g id="ID000139">
			<line class="st4" x1="492" y1="107.8" x2="492" y2="125.3"/>
		</g>
		<g id="ID000140">
			<polygon class="st5" points="508.6,120.6 508.8,120.6 509.1,120.6 509.3,120.5 509.5,120.5 509.7,120.4 509.9,120.4 510.1,120.3 
				510.2,120.2 510.4,120.1 510.6,120 510.8,119.9 510.9,119.8 511.1,119.6 511.2,119.5 511.3,119.4 511.5,119.2 511.6,119 
				511.7,118.9 511.7,118.7 511.8,118.5 511.9,118.4 511.9,118.2 511.9,118 512,117.8 512,117.6 512,117.4 511.9,117.3 511.9,117.1 
				511.8,116.9 511.8,116.7 511.7,116.5 511.6,116.4 511.5,116.2 511.4,116.1 511.3,115.9 511.1,115.8 511,115.6 510.9,115.5 
				510.7,115.4 510.5,115.3 510.3,115.2 510.2,115.1 510,115 509.8,114.9 509.6,114.9 509.4,114.8 509.2,114.8 508.9,114.8 
				508.7,114.8 508.5,114.8 508.3,114.8 508.1,114.8 507.9,114.8 507.7,114.9 507.5,114.9 507.3,115 507.1,115.1 506.9,115.2 
				506.7,115.3 506.6,115.4 506.4,115.5 506.3,115.6 506.1,115.8 506,115.9 505.9,116.1 505.8,116.2 505.7,116.4 505.6,116.5 
				505.5,116.7 505.4,116.9 505.4,117.1 505.3,117.3 505.3,117.4 505.3,117.6 505.3,117.8 505.3,118 505.4,118.2 505.4,118.4 
				505.5,118.5 505.5,118.7 505.6,118.9 505.7,119 505.8,119.2 505.9,119.4 506.1,119.5 506.2,119.6 506.3,119.8 506.5,119.9 
				506.7,120 506.8,120.1 507,120.2 507.2,120.3 507.4,120.4 507.6,120.4 507.8,120.5 508,120.5 508.2,120.6 508.4,120.6 			"/>
		</g>
		<g id="ID000141">
			<line class="st4" x1="525.2" y1="107.8" x2="525.2" y2="125.3"/>
		</g>
		<g id="ID000142">
			<line class="st4" x1="541.9" y1="107.8" x2="541.9" y2="125.3"/>
		</g>
		<g id="ID000143">
			<polygon class="st5" points="558.5,120.6 558.7,120.6 558.9,120.6 559.1,120.5 559.3,120.5 559.5,120.4 559.7,120.4 559.9,120.3 
				560.1,120.2 560.3,120.1 560.4,120 560.6,119.9 560.8,119.8 560.9,119.6 561.1,119.5 561.2,119.4 561.3,119.2 561.4,119 
				561.5,118.9 561.6,118.7 561.6,118.5 561.7,118.4 561.7,118.2 561.8,118 561.8,117.8 561.8,117.6 561.8,117.4 561.8,117.3 
				561.7,117.1 561.7,116.9 561.6,116.7 561.5,116.5 561.5,116.4 561.3,116.2 561.2,116.1 561.1,115.9 561,115.8 560.8,115.6 
				560.7,115.5 560.5,115.4 560.4,115.3 560.2,115.2 560,115.1 559.8,115 559.6,114.9 559.4,114.9 559.2,114.8 559,114.8 
				558.8,114.8 558.6,114.8 558.4,114.8 558.2,114.8 558,114.8 557.7,114.8 557.5,114.9 557.3,114.9 557.1,115 556.9,115.1 
				556.8,115.2 556.6,115.3 556.4,115.4 556.3,115.5 556.1,115.6 556,115.8 555.8,115.9 555.7,116.1 555.6,116.2 555.5,116.4 
				555.4,116.5 555.3,116.7 555.3,116.9 555.2,117.1 555.2,117.3 555.2,117.4 555.2,117.6 555.2,117.8 555.2,118 555.2,118.2 
				555.2,118.4 555.3,118.5 555.4,118.7 555.5,118.9 555.5,119 555.6,119.2 555.8,119.4 555.9,119.5 556,119.6 556.2,119.8 
				556.3,119.9 556.5,120 556.7,120.1 556.9,120.2 557,120.3 557.2,120.4 557.4,120.4 557.6,120.5 557.8,120.5 558,120.6 
				558.3,120.6 			"/>
		</g>
		<g id="ID000145">
			<text transform="matrix(1.1404 0 0 1 586.2139 97.6577)" class="st3 st1 st2">A</text>
		</g>
		<g id="ID000146">
			<text transform="matrix(1.1404 0 0 1 602.3672 108.5601)" class="st11 st1 st2">U</text>
		</g>
		<g id="ID000147">
			<text transform="matrix(1.1404 0 0 1 619.4355 108.5601)" class="st11 st1 st2">A</text>
		</g>
		<g id="ID000148">
			<line class="st4" x1="624.9" y1="92.3" x2="624.9" y2="82.6"/>
		</g>
		<g id="ID000149">
			<text transform="matrix(1.1404 0 0 1 615.7686 78.9897)" class="st1 st2">90</text>
		</g>
		<g id="ID000150">
			<text transform="matrix(1.1404 0 0 1 635.5889 108.5601)" class="st11 st1 st2">U</text>
		</g>
		<g id="ID000151">
			<text transform="matrix(1.1404 0 0 1 651.7529 108.5601)" class="st11 st1 st2">G</text>
		</g>
		<g id="ID000152">
			<text transform="matrix(1.1404 0 0 1 668.8203 108.5601)" class="st11 st1 st2">U</text>
		</g>
		<g id="ID000153">
			<text transform="matrix(1.1404 0 0 1 684.9746 108.5601)" class="st11 st1 st2">G</text>
		</g>
		<g id="ID000154">
			<text transform="matrix(1.1404 0 0 1 702.0527 101.2886)" class="st3 st1 st2">C</text>
		</g>
		<g id="ID000155">
			<text transform="matrix(1.1404 0 0 1 718.207 112.2007)" class="st3 st1 st2">G</text>
		</g>
		<g id="ID000156">
			<text transform="matrix(1.1404 0 0 1 718.6631 130.3853)" class="st3 st1 st2">U</text>
		</g>
		<g id="ID000157">
			<text transform="matrix(1.1404 0 0 1 702.0527 141.2866)" class="st3 st1 st2">C</text>
		</g>
		<g id="ID000158">
			<text transform="matrix(1.1404 0 0 1 685.4316 137.6567)" class="st11 st1 st2">U</text>
		</g>
		<g id="ID000159">
			<text transform="matrix(1.1404 0 0 1 669.2783 137.6567)" class="st11 st1 st2">A</text>
		</g>
		<g id="ID000160">
			<line class="st4" x1="674.8" y1="140.8" x2="674.8" y2="150.5"/>
		</g>
		<g id="ID000161">
			<text transform="matrix(1.1404 0 0 1 661.0312 167.6665)" class="st1 st2">100</text>
		</g>
		<g id="ID000162">
			<text transform="matrix(1.1404 0 0 1 652.21 137.6567)" class="st11 st1 st2">C</text>
		</g>
		<g id="ID000163">
			<text transform="matrix(1.1404 0 0 1 636.0469 137.6567)" class="st11 st1 st2">A</text>
		</g>
		<g id="ID000164">
			<text transform="matrix(1.1404 0 0 1 618.9873 137.6567)" class="st11 st1 st2">U</text>
		</g>
		<g id="ID000165">
			<text transform="matrix(1.1404 0 0 1 601.9102 137.6567)" class="st11 st1 st2">G</text>
		</g>
		<g id="ID000166">
			<text transform="matrix(1.1404 0 0 1 585.2988 144.9282)" class="st3 st1 st2">G</text>
		</g>
		<g id="ID000167">
			<polygon class="st5" points="608.3,120.6 608.5,120.6 608.7,120.6 608.9,120.5 609.1,120.5 609.4,120.4 609.6,120.4 609.7,120.3 
				609.9,120.2 610.1,120.1 610.3,120 610.4,119.9 610.6,119.8 610.8,119.6 610.9,119.5 611,119.4 611.1,119.2 611.2,119 
				611.3,118.9 611.4,118.7 611.5,118.5 611.5,118.4 611.6,118.2 611.6,118 611.6,117.8 611.6,117.6 611.6,117.4 611.6,117.3 
				611.6,117.1 611.5,116.9 611.5,116.7 611.4,116.5 611.3,116.4 611.2,116.2 611.1,116.1 611,115.9 610.8,115.8 610.7,115.6 
				610.5,115.5 610.4,115.4 610.2,115.3 610,115.2 609.8,115.1 609.6,115 609.4,114.9 609.3,114.9 609,114.8 608.8,114.8 
				608.6,114.8 608.4,114.8 608.2,114.8 608,114.8 607.8,114.8 607.6,114.8 607.4,114.9 607.2,114.9 607,115 606.8,115.1 
				606.6,115.2 606.4,115.3 606.3,115.4 606.1,115.5 605.9,115.6 605.8,115.8 605.7,115.9 605.5,116.1 605.4,116.2 605.3,116.4 
				605.2,116.5 605.2,116.7 605.1,116.9 605.1,117.1 605,117.3 605,117.4 605,117.6 605,117.8 605,118 605,118.2 605.1,118.4 
				605.1,118.5 605.2,118.7 605.3,118.9 605.4,119 605.5,119.2 605.6,119.4 605.7,119.5 605.9,119.6 606,119.8 606.2,119.9 
				606.3,120 606.5,120.1 606.7,120.2 606.9,120.3 607.1,120.4 607.3,120.4 607.5,120.5 607.7,120.5 607.9,120.6 608.1,120.6 			"/>
		</g>
		<g id="ID000168">
			<line class="st4" x1="624.9" y1="107.8" x2="624.9" y2="125.3"/>
		</g>
		<g id="ID000169">
			<line class="st4" x1="641.5" y1="107.8" x2="641.5" y2="125.3"/>
		</g>
		<g id="ID000170">
			<line class="st4" x1="658.2" y1="107.8" x2="658.2" y2="125.3"/>
		</g>
		<g id="ID000171">
			<line class="st4" x1="674.8" y1="107.8" x2="674.8" y2="125.3"/>
		</g>
		<g id="ID000172">
			<polygon class="st5" points="691.4,120.6 691.6,120.6 691.8,120.6 692,120.5 692.2,120.5 692.4,120.4 692.6,120.4 692.8,120.3 
				693,120.2 693.2,120.1 693.3,120 693.5,119.9 693.7,119.8 693.8,119.6 694,119.5 694.1,119.4 694.2,119.2 694.3,119 694.4,118.9 
				694.5,118.7 694.6,118.5 694.6,118.4 694.7,118.2 694.7,118 694.7,117.8 694.7,117.6 694.7,117.4 694.7,117.3 694.6,117.1 
				694.6,116.9 694.5,116.7 694.4,116.5 694.4,116.4 694.3,116.2 694.1,116.1 694,115.9 693.9,115.8 693.7,115.6 693.6,115.5 
				693.4,115.4 693.3,115.3 693.1,115.2 692.9,115.1 692.7,115 692.5,114.9 692.3,114.9 692.1,114.8 691.9,114.8 691.7,114.8 
				691.5,114.8 691.3,114.8 691.1,114.8 690.9,114.8 690.7,114.8 690.4,114.9 690.2,114.9 690.1,115 689.9,115.1 689.7,115.2 
				689.5,115.3 689.3,115.4 689.2,115.5 689,115.6 688.9,115.8 688.7,115.9 688.6,116.1 688.5,116.2 688.4,116.4 688.3,116.5 
				688.2,116.7 688.2,116.9 688.1,117.1 688.1,117.3 688.1,117.4 688.1,117.6 688.1,117.8 688.1,118 688.1,118.2 688.2,118.4 
				688.2,118.5 688.3,118.7 688.4,118.9 688.5,119 688.6,119.2 688.7,119.4 688.8,119.5 688.9,119.6 689.1,119.8 689.2,119.9 
				689.4,120 689.6,120.1 689.8,120.2 690,120.3 690.1,120.4 690.3,120.4 690.5,120.5 690.8,120.5 691,120.6 691.2,120.6 			"/>
		</g>
	</g>
</g>
<text transform="matrix(1 0 0 1 31.4958 30.1416)" class="st1 st12">109.2-3 aptamer</text>
<text transform="matrix(1 0 0 1 429.6688 189.9905)" class="st1 st12">5</text>
<text transform="matrix(1 0 0 1 440.7888 189.9905)" class="st1 st12">’</text>
<text transform="matrix(1 0 0 1 464.57 171.33)" class="st1 st12">3</text>
<text transform="matrix(1 0 0 1 475.69 171.33)" class="st1 st12">’</text>
</svg>
