<?xml version="1.0" encoding="utf-8"?>
<!-- Generator: Adobe Illustrator 27.0.0, SVG Export Plug-In . SVG Version: 6.00 Build 0)  -->
<svg version="1.1" id="图层_1" xmlns="http://www.w3.org/2000/svg" xmlns:xlink="http://www.w3.org/1999/xlink" x="0px" y="0px"
	 viewBox="0 0 800 400" style="enable-background:new 0 0 800 400;" xml:space="preserve">
<style type="text/css">
	.st0{fill:#B83332;}
	.st1{font-family:'ArialMT';}
	.st2{font-size:27.6116px;}
	.st3{fill:#084595;}
	.st4{fill:#CF3E7D;}
	.st5{fill:#18988C;}
	.st6{font-size:14.4124px;}
	.st7{opacity:0.55;fill:none;stroke:#020202;stroke-miterlimit:10;enable-background:new    ;}
	.st8{opacity:0.75;}
	.st9{stroke:#000000;stroke-width:7.000000e-02;stroke-miterlimit:10;}
	.st10{font-size:16.8027px;}
	.st11{font-size:16px;}
</style>
<text transform="matrix(1 -9.775894e-03 9.775894e-03 1 204.6383 306.4398)" class="st0 st1 st2">G</text>
<text transform="matrix(1 -9.775894e-03 9.775894e-03 1 233.181 309.7742)" class="st0 st1 st2">A</text>
<text transform="matrix(1 -9.775894e-03 9.775894e-03 1 261.0569 313.5263)" class="st0 st1 st2">G</text>
<text transform="matrix(1 -9.775894e-03 9.775894e-03 1 289.2875 315.7963)" class="st0 st1 st2">G</text>
<text transform="matrix(1 -9.775894e-03 9.775894e-03 1 308.2325 292.2965)" class="st0 st1 st2">A</text>
<text transform="matrix(1 -9.775894e-03 9.775894e-03 1 333.881 287.3854)" class="st0 st1 st2">C</text>
<text transform="matrix(1 -9.775894e-03 9.775894e-03 1 359.41 296.4146)" class="st0 st1 st2">G</text>
<text transform="matrix(1 -9.775894e-03 9.775894e-03 1 375.5939 316.2534)" class="st0 st1 st2">A</text>
<text transform="matrix(1 -9.775894e-03 9.775894e-03 1 402.2345 313.5172)" class="st3 st1 st2">U</text>
<text transform="matrix(1 -9.775894e-03 9.775894e-03 1 430.1107 307.2141)" class="st3 st1 st2">G</text>
<text transform="matrix(1 -9.775894e-03 9.775894e-03 1 455.5077 292.2581)" class="st3 st1 st2">C</text>
<text transform="matrix(1 -9.775894e-03 9.775894e-03 1 472.824 269.6864)" class="st4 st1 st2">G</text>
<text transform="matrix(1 -9.775894e-03 9.775894e-03 1 488.009 245.2829)" class="st4 st1 st2">G</text>
<text transform="matrix(1 -9.775894e-03 9.775894e-03 1 500.6158 219.2805)" class="st4 st1 st2">A</text>
<text transform="matrix(1 -9.775894e-03 9.775894e-03 1 498.4264 193.4256)" class="st4 st1 st2">C</text>
<text transform="matrix(1 -9.775894e-03 9.775894e-03 1 517.6033 174.2724)" class="st4 st1 st2">U</text>
<text transform="matrix(1 -9.775894e-03 9.775894e-03 1 526.7232 147.1263)" class="st5 st1 st2">A</text>
<text transform="matrix(1 -9.775894e-03 9.775894e-03 1 514.9323 124.219)" class="st5 st1 st2">G</text>
<text transform="matrix(1 -9.775894e-03 9.775894e-03 1 523.2742 97.622)" class="st5 st1 st2">C</text>
<text transform="matrix(1 -9.775894e-03 9.775894e-03 1 547.6831 84.6835)" class="st5 st1 st2">C</text>
<text transform="matrix(1 -9.775894e-03 9.775894e-03 1 573.6664 92.1398)" class="st5 st1 st2">U</text>
<text transform="matrix(1 -9.775894e-03 9.775894e-03 1 587.5538 116.621)" class="st5 st1 st2">C</text>
<text transform="matrix(1 -9.775894e-03 9.775894e-03 1 580.2701 140.4775)" class="st5 st1 st2">A</text>
<text transform="matrix(1 -9.775894e-03 9.775894e-03 1 556.985 157.4852)" class="st5 st1 st2">U</text>
<text transform="matrix(1 -9.775894e-03 9.775894e-03 1 547.9582 185.6481)" class="st4 st1 st2">A</text>
<text transform="matrix(1 -9.775894e-03 9.775894e-03 1 550.1898 213.528)" class="st4 st1 st2">C</text>
<text transform="matrix(1 -9.775894e-03 9.775894e-03 1 529.5417 232.0461)" class="st4 st1 st2">U</text>
<text transform="matrix(1 -9.775894e-03 9.775894e-03 1 516.1927 260.2366)" class="st4 st1 st2">C</text>
<text transform="matrix(1 -9.775894e-03 9.775894e-03 1 499.5046 287.0348)" class="st4 st1 st2">C</text>
<text transform="matrix(1 -9.775894e-03 9.775894e-03 1 480.4065 311.7539)" class="st3 st1 st2">G</text>
<text transform="matrix(1 -9.775894e-03 9.775894e-03 1 468.1339 338.2658)" class="st3 st1 st2">A</text>
<text transform="matrix(1 -9.775894e-03 9.775894e-03 1 437.0164 338.3845)" class="st3 st1 st2">U</text>
<text transform="matrix(1 -9.775894e-03 9.775894e-03 1 406.5724 344.6707)" class="st3 st1 st2">G</text>
<text transform="matrix(1 -9.775894e-03 9.775894e-03 1 375.5493 348.2436)" class="st0 st1 st2">U</text>
<text transform="matrix(1 -9.775894e-03 9.775894e-03 1 359.514 368.9902)" class="st0 st1 st2">G</text>
<text transform="matrix(1 -9.775894e-03 9.775894e-03 1 333.7141 377.0983)" class="st0 st1 st2">C</text>
<text transform="matrix(1 -9.775894e-03 9.775894e-03 1 307.1285 368.8744)" class="st0 st1 st2">C</text>
<text transform="matrix(1 -9.775894e-03 9.775894e-03 1 288.5888 348.0156)" class="st0 st1 st2">C</text>
<text transform="matrix(1 -9.775894e-03 9.775894e-03 1 259.0052 345.4111)" class="st0 st1 st2">C</text>
<text transform="matrix(1 -9.775894e-03 9.775894e-03 1 229.6482 342.0984)" class="st0 st1 st2">U</text>
<text transform="matrix(1 -9.775894e-03 9.775894e-03 1 201.9371 338.7226)" class="st0 st1 st2">C</text>
<text transform="matrix(1 -9.775895e-03 9.775895e-03 1 424.872 284.5221)" class="st1 st6">10</text>
<text transform="matrix(1 -9.775895e-03 9.775895e-03 1 550.1892 62.5232)" class="st1 st6">20</text>
<text transform="matrix(1 -9.775895e-03 9.775895e-03 1 501.6794 317.1859)" class="st1 st6">30</text>
<text transform="matrix(1 -9.775895e-03 9.775895e-03 1 233.1815 358.9738)" class="st1 st6">40</text>
<line class="st7" x1="214.8" y1="307.6" x2="213.2" y2="318.3"/>
<line class="st7" x1="271" y1="315" x2="271.1" y2="324.8"/>
<line class="st7" x1="300.8" y1="317.2" x2="299.2" y2="327.7"/>
<line class="st7" x1="384.1" y1="316.2" x2="386.5" y2="329.5"/>
<line class="st7" x1="473.8" y1="287" x2="482.5" y2="297.4"/>
<line class="st7" x1="493.4" y1="263" x2="501.7" y2="271.8"/>
<line class="st7" x1="508.9" y1="237.5" x2="517.6" y2="248"/>
<line class="st7" x1="517.7" y1="212" x2="531.6" y2="219.8"/>
<line class="st7" x1="536.4" y1="166.4" x2="550.5" y2="174.4"/>
<line class="st7" x1="542.4" y1="139.5" x2="558.7" y2="146.4"/>
<line class="st7" x1="241.9" y1="311.2" x2="240.5" y2="321.9"/>
<g id="ID000021" class="st8">
	<polygon class="st9" points="414.7,316.9 414.6,316.9 414.4,316.8 414.2,316.8 414.1,316.8 413.9,316.9 413.8,316.9 413.7,316.9 
		413.5,316.9 413.3,317 413.2,317 413,317.1 412.9,317.2 412.8,317.2 412.7,317.3 412.6,317.4 412.4,317.6 412.3,317.7 412.2,317.8 
		412.1,317.9 412.1,318 412,318.1 412,318.3 411.9,318.5 411.9,318.6 411.8,318.8 411.8,318.9 411.8,319 411.8,319.2 411.8,319.4 
		411.8,319.5 411.8,319.7 411.9,319.8 411.9,319.9 411.9,320.1 412,320.3 412,320.4 412.1,320.6 412.2,320.6 412.3,320.8 
		412.4,320.9 412.6,321 412.7,321.2 412.8,321.2 412.9,321.3 413,321.4 413.1,321.4 413.3,321.5 413.5,321.6 413.6,321.6 
		413.7,321.6 413.9,321.7 414,321.6 414.1,321.6 414.4,321.6 414.5,321.6 414.7,321.6 414.8,321.6 414.9,321.6 415.1,321.5 
		415.3,321.4 415.4,321.4 415.5,321.3 415.6,321.2 415.7,321 415.8,320.9 416,320.8 416,320.8 416.2,320.6 416.3,320.5 416.4,320.4 
		416.4,320.3 416.5,320.1 416.5,319.9 416.5,319.8 416.6,319.7 416.6,319.5 416.6,319.4 416.6,319.1 416.6,319 416.6,318.9 
		416.5,318.8 416.5,318.6 416.5,318.5 416.4,318.2 416.4,318.1 416.3,318 416.2,317.9 416.2,317.8 416,317.7 415.9,317.6 
		415.8,317.4 415.7,317.3 415.6,317.2 415.4,317.1 415.3,317.1 415.1,317 415,317 414.8,316.9 	"/>
</g>
<g id="ID000021-2" class="st8">
	<polygon class="st9" points="447.5,311 447.4,311 447.3,311 447,311 446.9,311 446.7,311 446.6,311 446.5,311 446.3,311.2 
		446.1,311.2 446,311.3 445.8,311.3 445.7,311.4 445.6,311.5 445.5,311.5 445.4,311.6 445.2,311.7 445.1,311.8 445,311.9 
		444.9,312.1 444.9,312.3 444.8,312.4 444.8,312.5 444.7,312.7 444.7,312.8 444.6,313 444.6,313.1 444.6,313.3 444.6,313.4 
		444.6,313.5 444.6,313.7 444.6,313.9 444.7,314.1 444.7,314.2 444.7,314.3 444.8,314.4 444.9,314.6 444.9,314.8 445,314.9 
		445.1,315 445.2,315.1 445.4,315.2 445.5,315.3 445.6,315.4 445.7,315.5 445.8,315.5 445.9,315.7 446.1,315.7 446.3,315.8 
		446.4,315.8 446.5,315.9 446.7,315.9 446.8,315.9 446.9,315.9 447.1,315.9 447.3,315.9 447.5,315.8 447.6,315.8 447.7,315.8 
		447.9,315.7 448,315.7 448.2,315.5 448.3,315.5 448.4,315.4 448.6,315.3 448.6,315.2 448.8,315.1 448.8,315 448.9,314.9 
		449.1,314.8 449.2,314.5 449.2,314.4 449.3,314.3 449.3,314.2 449.3,314 449.4,313.9 449.4,313.7 449.4,313.5 449.4,313.4 
		449.4,313.2 449.4,313.1 449.4,313 449.3,312.8 449.3,312.6 449.2,312.5 449.2,312.4 449.1,312.3 448.9,312.1 448.9,311.9 
		448.8,311.8 448.7,311.7 448.6,311.6 448.5,311.5 448.4,311.4 448.2,311.4 448,311.3 447.9,311.3 447.8,311.2 447.6,311.2 	"/>
</g>
<text transform="matrix(1 0 0 1 199.9668 283.1299)" class="st1 st10">5</text>
<text transform="matrix(1 0 0 1 209.3115 283.1299)" class="st1 st10">’</text>
<text transform="matrix(1 0 0 1 196 353.6953)" class="st1 st10">3</text>
<text transform="matrix(1 0 0 1 205.3447 353.6953)" class="st1 st10">’</text>
<text transform="matrix(1 0 0 1 340.9149 26.3525)" class="st1 st11">11-1.41 aptamer</text>
</svg>
