<?xml version="1.0" encoding="utf-8"?>
<!-- Generator: Adobe Illustrator 25.2.0, SVG Export Plug-In . SVG Version: 6.00 Build 0)  -->
<svg version="1.1" id="_图层_1" xmlns="http://www.w3.org/2000/svg" xmlns:xlink="http://www.w3.org/1999/xlink" x="0px" y="0px"
	 viewBox="0 0 800 400" style="enable-background:new 0 0 800 400;" xml:space="preserve">
<style type="text/css">
	.st0{fill:#999999;}
	.st1{font-family:'ArialMT';}
	.st2{font-size:15.15px;}
	.st3{fill:#B83233;}
	.st4{fill:none;stroke:#000000;stroke-miterlimit:1.11;}
	.st5{fill:#C2B617;}
	.st6{stroke:#000000;stroke-miterlimit:1.11;}
	.st7{fill:#18988C;}
	.st8{stroke:#000000;stroke-width:0.14;stroke-miterlimit:1.11;}
	.st9{fill:none;stroke:#000000;stroke-width:0.5;stroke-miterlimit:1.11;}
	.st10{fill:#084595;}
	.st11{font-size:20px;}
</style>
<g id="ID000002">
	<text transform="matrix(1 0 0 1 231.53 382.27)" class="st0 st1 st2">C</text>
</g>
<g id="ID000003">
	<text transform="matrix(1 0 0 1 250.18 382.27)" class="st0 st1 st2">G</text>
</g>
<g id="ID000004">
	<text transform="matrix(1 0 0 1 269.67 382.27)" class="st0 st1 st2">U</text>
</g>
<g id="ID000005">
	<text transform="matrix(1 0 0 1 288.74 378.45)" class="st0 st1 st2">C</text>
</g>
<g id="ID000006">
	<text transform="matrix(1 0 0 1 303.99 370.83)" class="st0 st1 st2">C</text>
</g>
<g id="ID000007">
	<g>
		<text transform="matrix(1 0 0 1 319.67 363.2)" class="st3 st1 st2">A</text>
	</g>
</g>
<g id="ID000008">
	<text transform="matrix(1 0 0 1 333.23 360.66)" class="st3 st1 st2">U</text>
</g>
<g id="ID000009">
	<text transform="matrix(1 0 0 1 333.23 345.4)" class="st3 st1 st2">C</text>
</g>
<g id="ID000010">
	<text transform="matrix(1 0 0 1 332.81 330.15)" class="st3 st1 st2">G</text>
</g>
<g id="ID000011">
	<text transform="matrix(1 0 0 1 332.81 314.89)" class="st3 st1 st2">G</text>
</g>
<g id="ID000012">
	<line class="st4" x1="328.5" y1="308" x2="318.4" y2="308"/>
</g>
<g id="ID000013">
	<text transform="matrix(1 0 0 1 301.51 314.89)" class="st1 st2">10</text>
</g>
<g id="ID000014">
	<text transform="matrix(1 0 0 1 332.81 299.64)" class="st3 st1 st2">G</text>
</g>
<g id="ID000015">
	<text transform="matrix(1 0 0 1 333.23 284.38)" class="st3 st1 st2">U</text>
</g>
<g id="ID000016">
	<text transform="matrix(1 0 0 1 332.81 269.13)" class="st3 st1 st2">G</text>
</g>
<g id="ID000017">
	<text transform="matrix(1 0 0 1 332.81 253.87)" class="st3 st1 st2">G</text>
</g>
<g id="ID000018">
	<text transform="matrix(1 0 0 1 333.23 238.62)" class="st3 st1 st2">C</text>
</g>
<g id="ID000019">
	<text transform="matrix(1 0 0 1 333.23 223.36)" class="st3 st1 st2">C</text>
</g>
<g id="ID000020">
	<text transform="matrix(1 0 0 1 334.5 206.84)" class="st5 st1 st2">C</text>
</g>
<g id="ID000021">
	<text transform="matrix(1 0 0 1 345.52 191.58)" class="st5 st1 st2">G</text>
</g>
<g id="ID000022">
	<g>
		<text transform="matrix(1 0 0 1 363.32 223.36)" class="st3 st1 st2">G</text>
	</g>
</g>
<g id="ID000023">
	<g>
		<text transform="matrix(1 0 0 1 363.32 238.62)" class="st3 st1 st2">G</text>
	</g>
</g>
<g id="ID000024">
	<g>
		<text transform="matrix(1 0 0 1 363.32 253.87)" class="st3 st1 st2">G</text>
	</g>
</g>
<g id="ID000025">
	<g>
		<text transform="matrix(1 0 0 1 363.32 269.13)" class="st3 st1 st2">G</text>
	</g>
</g>
<g id="ID000026">
	<g>
		<text transform="matrix(1 0 0 1 364.16 284.38)" class="st3 st1 st2">A</text>
	</g>
</g>
<g id="ID000027">
	<g>
		<text transform="matrix(1 0 0 1 363.74 299.64)" class="st3 st1 st2">C</text>
	</g>
</g>
<g id="ID000028">
	<g>
		<text transform="matrix(1 0 0 1 363.74 314.89)" class="st3 st1 st2">U</text>
	</g>
</g>
<g id="ID000029">
	<line class="st4" x1="379.4" y1="308" x2="389.5" y2="308"/>
</g>
<g id="ID000030">
	<text transform="matrix(1 0 0 1 389.55 314.89)" class="st1 st2">40</text>
</g>
<g id="ID000031">
	<g>
		<text transform="matrix(1 0 0 1 363.74 330.15)" class="st3 st1 st2">U</text>
	</g>
</g>
<g id="ID000032">
	<g>
		<text transform="matrix(1 0 0 1 363.32 345.4)" class="st3 st1 st2">G</text>
	</g>
</g>
<g id="ID000033">
	<g>
		<text transform="matrix(1 0 0 1 364.16 360.66)" class="st3 st1 st2">A</text>
	</g>
</g>
<g id="ID000034">
	<g>
		<text transform="matrix(1 0 0 1 465.39 290.83)" class="st5 st1 st2">G</text>
	</g>
</g>
<g id="ID000035">
	<g>
		<text transform="matrix(1 0 0 1 481.15 274.81)" class="st5 st1 st2">C</text>
	</g>
</g>
<g id="ID000036">
	<line class="st4" x1="344.8" y1="353.8" x2="363.1" y2="353.8"/>
</g>
<g id="ID000037">
	<line class="st4" x1="344.8" y1="338.5" x2="363.1" y2="338.5"/>
</g>
<g id="ID000038">
	<polygon class="st6" points="357,323.3 357,323.1 357,322.9 357,322.7 356.9,322.5 356.9,322.3 356.8,322.1 356.7,322 356.6,321.8 
		356.5,321.6 356.4,321.5 356.3,321.3 356.2,321.2 356,321 355.9,320.9 355.7,320.8 355.6,320.7 355.4,320.6 355.2,320.5 355,320.4 
		354.9,320.4 354.7,320.3 354.5,320.3 354.3,320.2 354.1,320.2 353.9,320.2 353.7,320.2 353.5,320.3 353.3,320.3 353.1,320.3 
		353,320.4 352.8,320.5 352.6,320.5 352.4,320.6 352.3,320.7 352.1,320.9 352,321 351.8,321.1 351.7,321.2 351.6,321.4 351.5,321.5 
		351.3,321.7 351.2,321.9 351.2,322.1 351.1,322.2 351,322.4 351,322.6 351,322.8 350.9,323 350.9,323.2 350.9,323.4 350.9,323.6 
		351,323.8 351,324 351,324.1 351.1,324.3 351.2,324.5 351.2,324.7 351.3,324.9 351.5,325 351.6,325.2 351.7,325.3 351.8,325.5 
		352,325.6 352.1,325.7 352.3,325.8 352.4,325.9 352.6,326 352.8,326.1 353,326.2 353.1,326.2 353.3,326.3 353.5,326.3 353.7,326.3 
		353.9,326.3 354.1,326.3 354.3,326.3 354.5,326.3 354.7,326.2 354.9,326.2 355,326.1 355.2,326.1 355.4,326 355.6,325.9 
		355.7,325.8 355.9,325.6 356,325.5 356.2,325.4 356.3,325.2 356.4,325.1 356.5,324.9 356.6,324.8 356.7,324.6 356.8,324.4 
		356.9,324.2 356.9,324 357,323.9 357,323.7 357,323.5 	"/>
</g>
<g id="ID000039">
	<polygon class="st6" points="357,308 357,307.8 357,307.6 357,307.5 356.9,307.3 356.9,307.1 356.8,306.9 356.7,306.7 356.6,306.5 
		356.5,306.4 356.4,306.2 356.3,306.1 356.2,305.9 356,305.8 355.9,305.7 355.7,305.5 355.6,305.4 355.4,305.3 355.2,305.2 
		355,305.2 354.9,305.1 354.7,305.1 354.5,305 354.3,305 354.1,305 353.9,305 353.7,305 353.5,305 353.3,305 353.1,305.1 353,305.1 
		352.8,305.2 352.6,305.3 352.4,305.4 352.3,305.5 352.1,305.6 352,305.7 351.8,305.9 351.7,306 351.6,306.1 351.5,306.3 
		351.3,306.5 351.2,306.6 351.2,306.8 351.1,307 351,307.2 351,307.4 351,307.5 350.9,307.7 350.9,307.9 350.9,308.1 350.9,308.3 
		351,308.5 351,308.7 351,308.9 351.1,309.1 351.2,309.2 351.2,309.4 351.3,309.6 351.5,309.8 351.6,309.9 351.7,310.1 351.8,310.2 
		352,310.3 352.1,310.5 352.3,310.6 352.4,310.7 352.6,310.8 352.8,310.8 353,310.9 353.1,311 353.3,311 353.5,311 353.7,311.1 
		353.9,311.1 354.1,311.1 354.3,311.1 354.5,311 354.7,311 354.9,310.9 355,310.9 355.2,310.8 355.4,310.7 355.6,310.6 355.7,310.5 
		355.9,310.4 356,310.3 356.2,310.1 356.3,310 356.4,309.8 356.5,309.7 356.6,309.5 356.7,309.3 356.8,309.2 356.9,309 356.9,308.8 
		357,308.6 357,308.4 357,308.2 	"/>
</g>
<g id="ID000040">
	<line class="st4" x1="344.8" y1="292.8" x2="363.1" y2="292.8"/>
</g>
<g id="ID000041">
	<line class="st4" x1="344.8" y1="277.5" x2="363.1" y2="277.5"/>
</g>
<g id="ID000042">
	<line class="st4" x1="344.8" y1="262.3" x2="363.1" y2="262.3"/>
</g>
<g id="ID000043">
	<line class="st4" x1="344.8" y1="247" x2="363.1" y2="247"/>
</g>
<g id="ID000044">
	<line class="st4" x1="344.8" y1="231.7" x2="363.1" y2="231.7"/>
</g>
<g id="ID000045">
	<line class="st4" x1="344.8" y1="216.5" x2="363.1" y2="216.5"/>
</g>
<g id="ID000047">
	<text transform="matrix(1 0 0 1 365.01 183.95)" class="st5 st1 st2">U</text>
</g>
<g id="ID000048">
	<text transform="matrix(1 0 0 1 379.85 183.95)" class="st7 st1 st2">G</text>
</g>
<g id="ID000049">
	<line class="st4" x1="385.7" y1="166.9" x2="385.7" y2="156.7"/>
</g>
<g id="ID000050">
	<text transform="matrix(1 0 0 1 377.31 152.94)" class="st1 st2">20</text>
</g>
<g id="ID000051">
	<text transform="matrix(1 0 0 1 395.52 183.95)" class="st7 st1 st2">U</text>
</g>
<g id="ID000052">
	<text transform="matrix(1 0 0 1 410.78 183.95)" class="st7 st1 st2">C</text>
</g>
<g id="ID000053">
	<text transform="matrix(1 0 0 1 426.03 183.95)" class="st7 st1 st2">U</text>
</g>
<g id="ID000054">
	<text transform="matrix(1 0 0 1 440.87 183.95)" class="st7 st1 st2">G</text>
</g>
<g id="ID000055">
	<text transform="matrix(1 0 0 1 425.61 214.46)" class="st7 st1 st2">G</text>
</g>
<g id="ID000056">
	<line class="st4" x1="431.5" y1="217.8" x2="431.5" y2="227.9"/>
</g>
<g id="ID000057">
	<text transform="matrix(1 0 0 1 423.08 245.94)" class="st1 st2">30</text>
</g>
<g id="ID000058">
	<text transform="matrix(1 0 0 1 410.36 214.46)" class="st7 st1 st2">G</text>
</g>
<g id="ID000059">
	<text transform="matrix(1 0 0 1 395.94 214.46)" class="st7 st1 st2">A</text>
</g>
<g id="ID000060">
	<text transform="matrix(1 0 0 1 380.27 214.46)" class="st7 st1 st2">C</text>
</g>
<g id="ID000061">
	<line class="st4" x1="385.7" y1="184.3" x2="385.7" y2="202.6"/>
</g>
<g id="ID000062">
	<line class="st4" x1="401" y1="184.3" x2="401" y2="202.6"/>
</g>
<g id="ID000063">
	<line class="st4" x1="416.2" y1="184.3" x2="416.2" y2="202.6"/>
</g>
<g id="ID000064">
	<polygon class="st8" points="431.5,195.4 431.7,195.4 431.9,195.4 432.1,195.3 432.3,195.3 432.5,195.2 432.6,195.2 432.8,195.1 
		433,195 433.2,194.9 433.3,194.8 433.5,194.7 433.6,194.5 433.8,194.4 433.9,194.3 434,194.1 434.1,193.9 434.2,193.8 434.3,193.6 
		434.4,193.4 434.4,193.2 434.5,193.1 434.5,192.9 434.5,192.7 434.5,192.5 434.6,192.3 434.5,192.1 434.5,191.9 434.5,191.7 
		434.5,191.5 434.4,191.3 434.3,191.2 434.2,191 434.1,190.8 434,190.6 433.9,190.5 433.8,190.3 433.7,190.2 433.5,190.1 
		433.4,189.9 433.2,189.8 433.1,189.7 432.9,189.6 432.7,189.5 432.5,189.5 432.4,189.4 432.2,189.4 432,189.3 431.8,189.3 
		431.6,189.3 431.4,189.3 431.2,189.3 431,189.3 430.8,189.4 430.6,189.4 430.5,189.5 430.3,189.5 430.1,189.6 429.9,189.7 
		429.8,189.8 429.6,189.9 429.5,190.1 429.3,190.2 429.2,190.3 429.1,190.5 429,190.6 428.9,190.8 428.8,191 428.7,191.2 
		428.6,191.3 428.6,191.5 428.5,191.7 428.5,191.9 428.5,192.1 428.5,192.3 428.5,192.5 428.5,192.7 428.5,192.9 428.5,193.1 
		428.6,193.2 428.7,193.4 428.7,193.6 428.8,193.8 428.9,193.9 429,194.1 429.1,194.3 429.3,194.4 429.4,194.5 429.5,194.7 
		429.7,194.8 429.9,194.9 430,195 430.2,195.1 430.4,195.2 430.5,195.2 430.7,195.3 430.9,195.3 431.1,195.4 431.3,195.4 	"/>
</g>
<g id="ID000067">
	<line class="st9" x1="455.4" y1="237" x2="439.2" y2="211.8"/>
</g>
<g id="ID000068">
	<polygon class="st8" points="446.8,228.3 447.1,226.3 446.6,224.7 446,223.3 444.8,220.4 447.1,222.6 448.1,223.7 449.4,224.7 
		451.4,225.2 	"/>
</g>
<g id="ID000070">
	<text transform="matrix(1 0 0 1 456.47 183.96)" class="st10 st1 st2">A</text>
</g>
<g id="ID000071">
	<text transform="matrix(1 0 0 1 455.62 199.21)" class="st10 st1 st2">G</text>
</g>
<g id="ID000072">
	<text transform="matrix(1 0 0 1 456.05 214.46)" class="st10 st1 st2">C</text>
</g>
<g id="ID000073">
	<text transform="matrix(1 0 0 1 455.62 229.72)" class="st10 st1 st2">G</text>
</g>
<g id="ID000074">
	<text transform="matrix(1 0 0 1 455.62 244.97)" class="st10 st1 st2">G</text>
</g>
<g id="ID000075">
	<g>
		<text transform="matrix(1 0 0 1 487.32 258.1)" class="st5 st1 st2">G</text>
	</g>
</g>
<g id="ID000076">
	<g>
		<text transform="matrix(1 0 0 1 486.56 244.97)" class="st10 st1 st2">C</text>
	</g>
</g>
<g id="ID000077">
	<g>
		<text transform="matrix(1 0 0 1 486.56 229.72)" class="st10 st1 st2">C</text>
	</g>
</g>
<g id="ID000078">
	<g>
		<text transform="matrix(1 0 0 1 486.14 214.46)" class="st10 st1 st2">G</text>
	</g>
</g>
<g id="ID000079">
	<g>
		<text transform="matrix(1 0 0 1 486.56 199.21)" class="st10 st1 st2">C</text>
	</g>
</g>
<g id="ID000080">
	<line class="st4" x1="502.2" y1="192.3" x2="512.4" y2="192.3"/>
</g>
<g id="ID000081">
	<text transform="matrix(1 0 0 1 515.89 195.81)" class="st1 st2">50</text>
</g>
<g id="ID000082">
	<g>
		<text transform="matrix(1 0 0 1 486.56 183.96)" class="st10 st1 st2">U</text>
	</g>
</g>
<g id="ID000083">
	<g>
		<text transform="matrix(1 0 0 1 486.14 168.7)" class="st10 st1 st2">G</text>
	</g>
</g>
<g id="ID000084">
	<g>
		<text transform="matrix(1 0 0 1 486.94 152.94)" class="st10 st1 st2">U</text>
	</g>
</g>
<g id="ID000085">
	<g>
		<text transform="matrix(1 0 0 1 487.32 138.21)" class="st10 st1 st2">C</text>
	</g>
</g>
<g id="ID000086">
	<g>
		<text transform="matrix(1 0 0 1 478.88 127.18)" class="st10 st1 st2">C</text>
	</g>
</g>
<g id="ID000087">
	<g>
		<text transform="matrix(1 0 0 1 465.96 122.67)" class="st10 st1 st2">G</text>
	</g>
</g>
<g id="ID000088">
	<g>
		<text transform="matrix(1 0 0 1 455.44 121.05)" class="st10 st1 st2">A</text>
	</g>
</g>
<g id="ID000089">
	<g>
		<text transform="matrix(1 0 0 1 443.37 120.05)" class="st10 st1 st2">C</text>
	</g>
</g>
<g id="ID000090">
	<g>
		<text transform="matrix(1 0 0 1 431.51 120.05)" class="st10 st1 st2">U</text>
	</g>
</g>
<g id="ID000091">
	<g>
		<text transform="matrix(1 0 0 1 418.54 120.1)" class="st10 st1 st2">G</text>
	</g>
</g>
<g id="ID000092">
	<line class="st4" x1="425.8" y1="106.7" x2="433" y2="99.5"/>
</g>
<g id="ID000093">
	<text transform="matrix(1 0 0 1 432.97 95.69)" class="st1 st2">60</text>
</g>
<g id="ID000094">
	<g>
		<text transform="matrix(1 0 0 1 407.8 120.1)" class="st10 st1 st2">A</text>
	</g>
</g>
<g id="ID000095">
	<g>
		<text transform="matrix(1 0 0 1 395.92 120.1)" class="st10 st1 st2">A</text>
	</g>
</g>
<g id="ID000096">
	<g>
		<text transform="matrix(1 0 0 1 383.5 120.1)" class="st10 st1 st2">U</text>
	</g>
</g>
<g id="ID000097">
	<g>
		<text transform="matrix(1 0 0 1 370.11 120.23)" class="st10 st1 st2">U</text>
	</g>
</g>
<g id="ID000098">
	<line class="st4" x1="467.6" y1="177.1" x2="485.9" y2="177.1"/>
</g>
<g id="ID000099">
	<line class="st4" x1="467.6" y1="192.3" x2="485.9" y2="192.3"/>
</g>
<g id="ID000100">
	<line class="st4" x1="467.6" y1="207.6" x2="485.9" y2="207.6"/>
</g>
<g id="ID000101">
	<line class="st4" x1="467.6" y1="222.8" x2="485.9" y2="222.8"/>
</g>
<g id="ID000102">
	<line class="st4" x1="467.6" y1="238.1" x2="485.9" y2="238.1"/>
</g>
<g id="ID000104">
	<line class="st9" x1="374.3" y1="350.5" x2="463.2" y2="292.8"/>
</g>
<g id="ID000105">
	<polygon class="st8" points="425,313.3 427.7,313.7 429.7,313.1 431.5,312.3 435.4,310.9 432.5,313.8 431,315.1 429.6,316.7 
		429,319.3 	"/>
</g>
<text transform="matrix(1 0 0 1 340.6146 45.1355)" class="st1 st11">2-16 aptamer</text>
<text transform="matrix(1 0 0 1 228.54 363.2)" class="st1 st11">5</text>
<text transform="matrix(1 0 0 1 239.66 363.2)" class="st1 st11">’</text>
<text transform="matrix(1 0 0 1 360.58 99.51)" class="st1 st11">3</text>
<text transform="matrix(1 0 0 1 371.7 99.51)" class="st1 st11">’</text>
</svg>
