<svg id="图层_1" data-name="图层 1" xmlns="http://www.w3.org/2000/svg" viewBox="0 0 400 400">
  <defs>
    <style>
      .cls-1, .cls-10, .cls-11, .cls-12, .cls-13, .cls-14, .cls-2, .cls-4, .cls-8, .cls-9 {
        isolation: isolate;
        font-size: 12.06px;
      }

      .cls-1, .cls-2 {
        fill: #f39;
      }

      .cls-1, .cls-10, .cls-11, .cls-12, .cls-13, .cls-14, .cls-16, .cls-18, .cls-2, .cls-4, .cls-8, .cls-9 {
        font-family: ArialMT, Arial;
      }

      .cls-13, .cls-14, .cls-2, .cls-8 {
        letter-spacing: -0.06em;
      }

      .cls-3, .cls-6 {
        fill: none;
      }

      .cls-15, .cls-3, .cls-5, .cls-6, .cls-7 {
        stroke: #000;
        stroke-miterlimit: 1.11;
      }

      .cls-15, .cls-3, .cls-5, .cls-7 {
        stroke-width: 0.14px;
      }

      .cls-6 {
        stroke-width: 0.72px;
      }

      .cls-7 {
        fill: #fff;
      }

      .cls-11, .cls-8 {
        fill: #fc3;
      }

      .cls-9 {
        fill: #f30;
      }

      .cls-10, .cls-14 {
        fill: #999;
      }

      .cls-12, .cls-13, .cls-15 {
        fill: #06c;
      }

      .cls-16 {
        font-size: 15px;
      }

      .cls-17 {
        letter-spacing: -0.04em;
      }

      .cls-18 {
        font-size: 18px;
      }
    </style>
  </defs>
  <g id="ID000002">
    <text class="cls-1" transform="translate(264.28 385.08)">G</text>
  </g>
  <g id="ID000003">
    <text class="cls-2" transform="translate(264.95 372.97)">A</text>
  </g>
  <g id="ID000004">
    <text class="cls-1" transform="translate(264.61 360.86)">C</text>
  </g>
  <g id="ID000005">
    <text class="cls-1" transform="translate(264.28 348.75)">G</text>
  </g>
  <g id="ID000006">
    <text class="cls-1" transform="translate(264.61 336.63)">C</text>
  </g>
  <g id="ID000007">
    <text class="cls-1" transform="translate(264.28 324.52)">G</text>
  </g>
  <g id="ID000008">
    <text class="cls-2" transform="translate(264.95 312.41)">A</text>
  </g>
  <g id="ID000009">
    <text class="cls-1" transform="translate(264.61 300.29)">C</text>
  </g>
  <g id="ID000010">
    <text class="cls-1" transform="translate(264.61 288.18)">C</text>
  </g>
  <g id="ID000011">
    <line class="cls-3" x1="260.89" y1="282.73" x2="252.82" y2="282.73"/>
  </g>
  <g id="ID000012">
    <text class="cls-4" transform="translate(239.4 288.18)">10</text>
  </g>
  <g id="ID000013">
    <text class="cls-1" transform="translate(264.28 276.07)">G</text>
  </g>
  <g id="ID000014">
    <text class="cls-2" transform="translate(264.95 263.96)">A</text>
  </g>
  <g id="ID000015">
    <text class="cls-1" transform="translate(288.84 263.96)">C</text>
  </g>
  <g id="ID000016">
    <text class="cls-1" transform="translate(288.84 276.07)">U</text>
  </g>
  <g id="ID000017">
    <text class="cls-1" transform="translate(288.5 288.18)">G</text>
  </g>
  <g id="ID000018">
    <text class="cls-1" transform="translate(288.5 300.29)">G</text>
  </g>
  <g id="ID000019">
    <text class="cls-1" transform="translate(288.84 312.41)">U</text>
  </g>
  <g id="ID000020">
    <text class="cls-1" transform="translate(288.84 324.52)">C</text>
  </g>
  <g id="ID000021">
    <text class="cls-1" transform="translate(288.5 336.63)">G</text>
  </g>
  <g id="ID000022">
    <line class="cls-3" x1="301.27" y1="331.18" x2="309.35" y2="331.18"/>
  </g>
  <g id="ID000023">
    <text class="cls-4" transform="translate(309.34 336.63)">80</text>
  </g>
  <g id="ID000024">
    <text class="cls-1" transform="translate(288.84 348.75)">C</text>
  </g>
  <g id="ID000025">
    <text class="cls-1" transform="translate(288.5 360.86)">G</text>
  </g>
  <g id="ID000026">
    <text class="cls-1" transform="translate(288.84 372.97)">U</text>
  </g>
  <g id="ID000027">
    <text class="cls-1" transform="translate(288.84 385.08)">C</text>
  </g>
  <g id="ID000028">
    <line class="cls-3" x1="273.81" y1="379.63" x2="288.35" y2="379.63"/>
  </g>
  <g id="ID000029">
    <line class="cls-3" x1="273.81" y1="367.52" x2="288.35" y2="367.52"/>
  </g>
  <g id="ID000030">
    <line class="cls-3" x1="273.81" y1="355.41" x2="288.35" y2="355.41"/>
  </g>
  <g id="ID000031">
    <line class="cls-3" x1="273.81" y1="343.3" x2="288.35" y2="343.3"/>
  </g>
  <g id="ID000032">
    <line class="cls-3" x1="273.81" y1="331.18" x2="288.35" y2="331.18"/>
  </g>
  <g id="ID000033">
    <line class="cls-3" x1="273.81" y1="319.07" x2="288.35" y2="319.07"/>
  </g>
  <g id="ID000034">
    <line class="cls-3" x1="273.81" y1="306.96" x2="288.35" y2="306.96"/>
  </g>
  <g id="ID000035">
    <line class="cls-3" x1="273.81" y1="294.84" x2="288.35" y2="294.84"/>
  </g>
  <g id="ID000036">
    <line class="cls-3" x1="273.81" y1="282.73" x2="288.35" y2="282.73"/>
  </g>
  <g id="ID000037">
    <line class="cls-3" x1="273.3" y1="268.45" x2="288.86" y2="260.67"/>
  </g>
  <g id="ID000038">
    <polygon class="cls-5" points="283.25 263.48 283.18 263.34 283.1 263.21 283 263.09 282.91 262.97 282.8 262.86 282.69 262.75 282.57 262.65 282.45 262.56 282.32 262.48 282.19 262.4 282.05 262.34 281.9 262.28 281.76 262.23 281.61 262.2 281.46 262.17 281.3 262.15 281.15 262.14 281 262.14 280.84 262.15 280.69 262.17 280.54 262.2 280.39 262.24 280.25 262.29 280.1 262.35 279.96 262.41 279.83 262.49 279.7 262.57 279.58 262.66 279.46 262.76 279.35 262.87 279.25 262.98 279.15 263.1 279.06 263.23 278.98 263.36 278.91 263.49 278.85 263.63 278.79 263.78 278.75 263.92 278.71 264.07 278.68 264.22 278.67 264.38 278.66 264.53 278.66 264.69 278.68 264.84 278.7 264.99 278.73 265.14 278.77 265.29 278.82 265.43 278.88 265.57 278.95 265.71 279.03 265.85 279.11 265.97 279.21 266.1 279.31 266.21 279.42 266.32 279.53 266.42 279.65 266.52 279.78 266.6 279.91 266.68 280.05 266.75 280.19 266.81 280.33 266.87 280.48 266.91 280.63 266.94 280.78 266.96 280.94 266.98 281.09 266.98 281.24 266.98 281.4 266.96 281.55 266.94 281.7 266.9 281.85 266.86 281.99 266.81 282.13 266.75 282.27 266.67 282.4 266.59 282.53 266.51 282.65 266.41 282.76 266.31 282.87 266.2 282.97 266.08 283.06 265.96 283.14 265.83 283.22 265.7 283.29 265.56 283.35 265.42 283.4 265.27 283.44 265.12 283.47 264.97 283.49 264.82 283.5 264.67 283.5 264.51 283.5 264.36 283.48 264.21 283.45 264.06 283.42 263.91 283.37 263.76 283.31 263.62 283.25 263.48"/>
  </g>
  <g id="ID000039">
    <line class="cls-6" x1="268.97" y1="253.66" x2="268.97" y2="236.09"/>
  </g>
  <g id="ID000040">
    <polygon class="cls-5" points="265.34 248.91 267.15 246.9 267.76 244.88 268.06 242.86 268.97 238.82 269.88 242.86 270.18 244.88 270.79 246.9 272.6 248.91 265.34 248.91"/>
  </g>
  <g id="ID000041">
    <line class="cls-3" x1="273.08" y1="255.94" x2="289.09" y2="245.93"/>
  </g>
  <g id="ID000042">
    <polygon class="cls-7" points="275.74 254.27 281.19 254.08 278.3 249.46 275.74 254.27"/>
  </g>
  <g id="ID000043">
    <polygon class="cls-7" points="284.52 245.93 280.41 248.49 282.98 252.6 287.09 250.03 284.52 245.93"/>
  </g>
  <g id="ID000045">
    <text class="cls-2" transform="translate(264.95 236.7)">A</text>
  </g>
  <g id="ID000046">
    <text class="cls-2" transform="translate(264.95 224.59)">A</text>
  </g>
  <g id="ID000047">
    <text class="cls-1" transform="translate(264.61 212.47)">U</text>
  </g>
  <g id="ID000048">
    <text class="cls-1" transform="translate(264.28 200.36)">G</text>
  </g>
  <g id="ID000049">
    <text class="cls-1" transform="translate(264.28 188.25)">G</text>
  </g>
  <g id="ID000050">
    <text class="cls-1" transform="translate(264.61 176.13)">U</text>
  </g>
  <g id="ID000051">
    <text class="cls-1" transform="translate(264.28 164.02)">G</text>
  </g>
  <g id="ID000052">
    <text class="cls-8" transform="translate(264.95 151.91)">A</text>
  </g>
  <g id="ID000053">
    <line class="cls-3" x1="260.89" y1="146.46" x2="252.82" y2="146.46"/>
  </g>
  <g id="ID000054">
    <text class="cls-4" transform="translate(239.4 151.91)">20</text>
  </g>
  <g id="ID000055">
    <text class="cls-8" transform="translate(264.95 139.79)">A</text>
  </g>
  <g id="ID000056">
    <text class="cls-9" transform="translate(264.28 127.68)">G</text>
  </g>
  <g id="ID000057">
    <text class="cls-9" transform="translate(264.28 115.57)">G</text>
  </g>
  <g id="ID000058">
    <text class="cls-9" transform="translate(288.5 103.46)">G</text>
  </g>
  <g id="ID000059">
    <text class="cls-10" transform="translate(288.84 115.57)">U</text>
  </g>
  <g id="ID000060">
    <text class="cls-11" transform="translate(288.5 127.68)">G</text>
  </g>
  <g id="ID000061">
    <text class="cls-8" transform="translate(289.17 139.79)">A</text>
  </g>
  <g id="ID000062">
    <text class="cls-11" transform="translate(288.5 151.91)">G</text>
  </g>
  <g id="ID000063">
    <text class="cls-1" transform="translate(288.84 164.02)">C</text>
  </g>
  <g id="ID000064">
    <text class="cls-1" transform="translate(288.84 176.13)">U</text>
  </g>
  <g id="ID000065">
    <text class="cls-1" transform="translate(288.84 188.25)">C</text>
  </g>
  <g id="ID000066">
    <text class="cls-1" transform="translate(288.84 200.36)">C</text>
  </g>
  <g id="ID000067">
    <text class="cls-1" transform="translate(288.5 212.47)">G</text>
  </g>
  <g id="ID000068">
    <line class="cls-3" x1="301.27" y1="207.02" x2="309.35" y2="207.02"/>
  </g>
  <g id="ID000069">
    <text class="cls-4" transform="translate(309.34 212.47)">70</text>
  </g>
  <g id="ID000070">
    <text class="cls-1" transform="translate(288.84 224.59)">U</text>
  </g>
  <g id="ID000071">
    <text class="cls-2" transform="translate(289.17 236.7)">A</text>
  </g>
  <g id="ID000072">
    <text class="cls-2" transform="translate(289.17 248.81)">A</text>
  </g>
  <g id="ID000073">
    <line class="cls-3" x1="273.81" y1="231.25" x2="288.35" y2="231.25"/>
  </g>
  <g id="ID000074">
    <polygon class="cls-7" points="275.51 233.67 280.36 233.67 280.36 228.83 275.51 228.83 275.51 233.67"/>
  </g>
  <g id="ID000075">
    <polygon class="cls-7" points="287.38 231.25 282.66 228.53 282.66 233.97 287.38 231.25"/>
  </g>
  <g id="ID000076">
    <line class="cls-3" x1="273.81" y1="219.14" x2="288.35" y2="219.14"/>
  </g>
  <g id="ID000077">
    <polygon class="cls-5" points="283.5 207.02 283.5 206.87 283.49 206.72 283.46 206.57 283.43 206.42 283.38 206.27 283.33 206.12 283.27 205.98 283.2 205.85 283.12 205.71 283.03 205.59 282.94 205.47 282.83 205.35 282.73 205.24 282.61 205.14 282.49 205.05 282.36 204.97 282.23 204.89 282.09 204.82 281.95 204.76 281.8 204.71 281.65 204.67 281.5 204.64 281.35 204.62 281.2 204.6 281.04 204.6 280.89 204.61 280.74 204.63 280.59 204.65 280.44 204.69 280.29 204.73 280.15 204.79 280.01 204.85 279.87 204.93 279.74 205.01 279.62 205.1 279.5 205.19 279.38 205.3 279.28 205.41 279.18 205.53 279.09 205.65 279 205.78 278.93 205.91 278.86 206.05 278.81 206.19 278.76 206.34 278.72 206.49 278.69 206.64 278.67 206.79 278.66 206.95 278.66 207.1 278.67 207.25 278.69 207.41 278.72 207.56 278.76 207.71 278.81 207.85 278.86 208 278.93 208.13 279 208.27 279.09 208.4 279.18 208.52 279.28 208.64 279.38 208.75 279.5 208.85 279.62 208.95 279.74 209.04 279.87 209.12 280.01 209.19 280.15 209.26 280.29 209.31 280.44 209.36 280.59 209.4 280.74 209.42 280.89 209.44 281.04 209.45 281.2 209.44 281.35 209.43 281.5 209.41 281.65 209.38 281.8 209.34 281.95 209.29 282.09 209.23 282.23 209.16 282.36 209.08 282.49 209 282.61 208.9 282.73 208.8 282.83 208.69 282.94 208.58 283.03 208.46 283.12 208.33 283.2 208.2 283.27 208.06 283.33 207.92 283.38 207.78 283.43 207.63 283.46 207.48 283.49 207.33 283.5 207.18 283.5 207.02"/>
  </g>
  <g id="ID000078">
    <line class="cls-3" x1="273.81" y1="194.91" x2="288.35" y2="194.91"/>
  </g>
  <g id="ID000079">
    <line class="cls-3" x1="273.81" y1="182.8" x2="288.35" y2="182.8"/>
  </g>
  <g id="ID000080">
    <line class="cls-3" x1="273.81" y1="170.68" x2="288.35" y2="170.68"/>
  </g>
  <g id="ID000081">
    <polygon class="cls-5" points="283.5 170.68 283.5 170.53 283.49 170.38 283.46 170.23 283.43 170.08 283.38 169.93 283.33 169.78 283.27 169.64 283.2 169.51 283.12 169.38 283.03 169.25 282.94 169.13 282.83 169.01 282.73 168.91 282.61 168.81 282.49 168.71 282.36 168.63 282.23 168.55 282.09 168.48 281.95 168.42 281.8 168.37 281.65 168.33 281.5 168.3 281.35 168.28 281.2 168.26 281.04 168.26 280.89 168.27 280.74 168.29 280.59 168.31 280.44 168.35 280.29 168.4 280.15 168.45 280.01 168.51 279.87 168.59 279.74 168.67 279.62 168.76 279.5 168.85 279.38 168.96 279.28 169.07 279.18 169.19 279.09 169.31 279 169.44 278.93 169.57 278.86 169.71 278.81 169.86 278.76 170 278.72 170.15 278.69 170.3 278.67 170.45 278.66 170.61 278.66 170.76 278.67 170.91 278.69 171.07 278.72 171.22 278.76 171.37 278.81 171.51 278.86 171.66 278.93 171.79 279 171.93 279.09 172.06 279.18 172.18 279.28 172.3 279.38 172.41 279.5 172.52 279.62 172.61 279.74 172.7 279.87 172.78 280.01 172.85 280.15 172.92 280.29 172.97 280.44 173.02 280.59 173.06 280.74 173.08 280.89 173.1 281.04 173.11 281.2 173.1 281.35 173.09 281.5 173.07 281.65 173.04 281.8 173 281.95 172.95 282.09 172.89 282.23 172.82 282.36 172.74 282.49 172.66 282.61 172.56 282.73 172.47 282.83 172.36 282.94 172.24 283.03 172.12 283.12 171.99 283.2 171.86 283.27 171.73 283.33 171.59 283.38 171.44 283.43 171.29 283.46 171.14 283.49 170.99 283.5 170.84 283.5 170.68"/>
  </g>
  <g id="ID000082">
    <line class="cls-3" x1="273.81" y1="158.57" x2="288.35" y2="158.57"/>
  </g>
  <g id="ID000083">
    <polygon class="cls-5" points="283.5 158.57 283.5 158.42 283.49 158.26 283.46 158.11 283.43 157.96 283.38 157.81 283.33 157.67 283.27 157.53 283.2 157.39 283.12 157.26 283.03 157.13 282.94 157.01 282.83 156.9 282.73 156.79 282.61 156.69 282.49 156.6 282.36 156.51 282.23 156.44 282.09 156.37 281.95 156.31 281.8 156.26 281.65 156.22 281.5 156.19 281.35 156.16 281.2 156.15 281.04 156.15 280.89 156.16 280.74 156.17 280.59 156.2 280.44 156.24 280.29 156.28 280.15 156.34 280.01 156.4 279.87 156.47 279.74 156.55 279.62 156.64 279.5 156.74 279.38 156.84 279.28 156.96 279.18 157.07 279.09 157.2 279 157.33 278.93 157.46 278.86 157.6 278.81 157.74 278.76 157.89 278.72 158.04 278.69 158.19 278.67 158.34 278.66 158.49 278.66 158.65 278.67 158.8 278.69 158.95 278.72 159.11 278.76 159.25 278.81 159.4 278.86 159.54 278.93 159.68 279 159.82 279.09 159.94 279.18 160.07 279.28 160.19 279.38 160.3 279.5 160.4 279.62 160.5 279.74 160.59 279.87 160.67 280.01 160.74 280.15 160.81 280.29 160.86 280.44 160.91 280.59 160.94 280.74 160.97 280.89 160.99 281.04 160.99 281.2 160.99 281.35 160.98 281.5 160.96 281.65 160.93 281.8 160.88 281.95 160.83 282.09 160.78 282.23 160.71 282.36 160.63 282.49 160.54 282.61 160.45 282.73 160.35 282.83 160.24 282.94 160.13 283.03 160.01 283.12 159.88 283.2 159.75 283.27 159.61 283.33 159.47 283.38 159.33 283.43 159.18 283.46 159.03 283.49 158.88 283.5 158.72 283.5 158.57"/>
  </g>
  <g id="ID000084">
    <line class="cls-3" x1="273.81" y1="146.46" x2="288.35" y2="146.46"/>
  </g>
  <g id="ID000085">
    <polygon class="cls-5" points="283.5 146.46 283.5 146.31 283.49 146.15 283.46 146 283.43 145.85 283.38 145.7 283.33 145.56 283.27 145.42 283.2 145.28 283.12 145.15 283.03 145.02 282.94 144.9 282.83 144.79 282.73 144.68 282.61 144.58 282.49 144.49 282.36 144.4 282.23 144.32 282.09 144.25 281.95 144.19 281.8 144.15 281.65 144.1 281.5 144.07 281.35 144.05 281.2 144.04 281.04 144.04 280.89 144.04 280.74 144.06 280.59 144.09 280.44 144.12 280.29 144.17 280.15 144.22 280.01 144.29 279.87 144.36 279.74 144.44 279.62 144.53 279.5 144.63 279.38 144.73 279.28 144.84 279.18 144.96 279.09 145.09 279 145.21 278.93 145.35 278.86 145.49 278.81 145.63 278.76 145.78 278.72 145.92 278.69 146.08 278.67 146.23 278.66 146.38 278.66 146.54 278.67 146.69 278.69 146.84 278.72 146.99 278.76 147.14 278.81 147.29 278.86 147.43 278.93 147.57 279 147.7 279.09 147.83 279.18 147.96 279.28 148.07 279.38 148.19 279.5 148.29 279.62 148.39 279.74 148.48 279.87 148.56 280.01 148.63 280.15 148.69 280.29 148.75 280.44 148.79 280.59 148.83 280.74 148.86 280.89 148.87 281.04 148.88 281.2 148.88 281.35 148.87 281.5 148.84 281.65 148.81 281.8 148.77 281.95 148.72 282.09 148.66 282.23 148.59 282.36 148.52 282.49 148.43 282.61 148.34 282.73 148.24 282.83 148.13 282.94 148.02 283.03 147.9 283.12 147.77 283.2 147.64 283.27 147.5 283.33 147.36 283.38 147.22 283.43 147.07 283.46 146.92 283.49 146.76 283.5 146.61 283.5 146.46"/>
  </g>
  <g id="ID000086">
    <line class="cls-3" x1="273.81" y1="134.35" x2="288.35" y2="134.35"/>
  </g>
  <g id="ID000087">
    <polygon class="cls-5" points="283.5 134.35 283.5 134.19 283.49 134.04 283.46 133.89 283.43 133.74 283.38 133.59 283.33 133.44 283.27 133.3 283.2 133.17 283.12 133.04 283.03 132.91 282.94 132.79 282.83 132.67 282.73 132.56 282.61 132.47 282.49 132.37 282.36 132.29 282.23 132.21 282.09 132.14 281.95 132.08 281.8 132.03 281.65 131.99 281.5 131.96 281.35 131.94 281.2 131.93 281.04 131.92 280.89 131.93 280.74 131.95 280.59 131.97 280.44 132.01 280.29 132.06 280.15 132.11 280.01 132.18 279.87 132.25 279.74 132.33 279.62 132.42 279.5 132.51 279.38 132.62 279.28 132.73 279.18 132.85 279.09 132.97 279 133.1 278.93 133.24 278.86 133.37 278.81 133.52 278.76 133.66 278.72 133.81 278.69 133.96 278.67 134.12 278.66 134.27 278.66 134.42 278.67 134.58 278.69 134.73 278.72 134.88 278.76 135.03 278.81 135.17 278.86 135.32 278.93 135.46 279 135.59 279.09 135.72 279.18 135.84 279.28 135.96 279.38 136.07 279.5 136.18 279.62 136.27 279.74 136.36 279.87 136.44 280.01 136.52 280.15 136.58 280.29 136.63 280.44 136.68 280.59 136.72 280.74 136.74 280.89 136.76 281.04 136.77 281.2 136.76 281.35 136.75 281.5 136.73 281.65 136.7 281.8 136.66 281.95 136.61 282.09 136.55 282.23 136.48 282.36 136.4 282.49 136.32 282.61 136.23 282.73 136.13 282.83 136.02 282.94 135.9 283.03 135.78 283.12 135.66 283.2 135.52 283.27 135.39 283.33 135.25 283.38 135.1 283.43 134.95 283.46 134.8 283.49 134.65 283.5 134.5 283.5 134.35"/>
  </g>
  <g id="ID000088">
    <polyline class="cls-3" points="269.84 117.47 275.03 88.92 242.51 82.86 241.93 96.19"/>
  </g>
  <g id="ID000089">
    <polygon class="cls-5" points="264.25 86.91 264.27 86.76 264.28 86.61 264.29 86.45 264.28 86.3 264.27 86.15 264.24 86 264.21 85.85 264.16 85.7 264.11 85.56 264.05 85.42 263.97 85.28 263.89 85.15 263.81 85.02 263.71 84.9 263.61 84.79 263.5 84.68 263.38 84.58 263.26 84.49 263.13 84.4 263 84.33 262.86 84.26 262.71 84.2 262.57 84.15 262.42 84.11 262.27 84.08 262.12 84.06 261.96 84.05 261.81 84.05 261.66 84.06 261.5 84.07 261.35 84.1 261.2 84.14 261.06 84.19 260.92 84.24 260.77 84.31 260.64 84.38 260.51 84.46 260.38 84.55 260.27 84.65 260.15 84.75 260.05 84.87 259.95 84.98 259.86 85.11 259.78 85.24 259.7 85.37 259.64 85.51 259.58 85.66 259.54 85.8 259.5 85.95 259.47 86.1 259.45 86.25 259.44 86.41 259.44 86.56 259.45 86.72 259.48 86.87 259.5 87.02 259.54 87.17 259.59 87.31 259.65 87.45 259.72 87.59 259.79 87.73 259.88 87.86 259.97 87.98 260.07 88.1 260.18 88.21 260.29 88.31 260.41 88.41 260.54 88.5 260.67 88.58 260.8 88.65 260.94 88.71 261.09 88.77 261.23 88.81 261.38 88.84 261.54 88.87 261.69 88.89 261.84 88.89 262 88.89 262.15 88.88 262.3 88.85 262.45 88.82 262.6 88.78 262.74 88.73 262.88 88.67 263.02 88.6 263.15 88.52 263.28 88.43 263.4 88.34 263.52 88.24 263.63 88.13 263.73 88.02 263.82 87.89 263.91 87.77 263.99 87.64 264.06 87.5 264.12 87.36 264.17 87.21 264.21 87.06 264.25 86.91"/>
  </g>
  <g id="ID000090">
    <polygon class="cls-5" points="252.85 87.25 257.61 88.14 258.5 83.38 253.73 82.49 252.85 87.25"/>
  </g>
  <g id="ID000091">
    <polyline class="cls-3" points="268.97 105.27 268.97 82.86 234.32 74.87"/>
  </g>
  <g id="ID000092">
    <polygon class="cls-5" points="257.07 80.12 257.11 79.97 257.13 79.82 257.14 79.66 257.14 79.51 257.13 79.36 257.11 79.2 257.08 79.05 257.04 78.9 257 78.76 256.94 78.61 256.87 78.47 256.8 78.34 256.72 78.21 256.63 78.09 256.53 77.97 256.42 77.86 256.31 77.75 256.19 77.66 256.07 77.56 255.94 77.48 255.8 77.41 255.66 77.35 255.52 77.29 255.37 77.24 255.22 77.21 255.07 77.18 254.92 77.16 254.76 77.15 254.61 77.16 254.46 77.17 254.31 77.19 254.16 77.22 254.01 77.26 253.86 77.31 253.72 77.37 253.58 77.43 253.45 77.51 253.32 77.6 253.2 77.69 253.08 77.79 252.97 77.9 252.87 78.01 252.77 78.13 252.68 78.26 252.6 78.39 252.53 78.52 252.47 78.66 252.42 78.81 252.37 78.96 252.34 79.11 252.31 79.26 252.3 79.41 252.29 79.56 252.3 79.72 252.31 79.87 252.33 80.02 252.37 80.17 252.41 80.32 252.46 80.47 252.52 80.61 252.59 80.74 252.67 80.88 252.76 81 252.85 81.12 252.95 81.24 253.06 81.35 253.18 81.45 253.3 81.54 253.43 81.63 253.56 81.71 253.7 81.77 253.84 81.83 253.98 81.89 254.13 81.93 254.28 81.96 254.44 81.98 254.59 82 254.74 82 254.9 81.99 255.05 81.97 255.2 81.95 255.35 81.91 255.5 81.87 255.64 81.81 255.78 81.75 255.92 81.68 256.05 81.6 256.17 81.51 256.29 81.41 256.41 81.31 256.51 81.2 256.61 81.08 256.7 80.96 256.79 80.83 256.86 80.7 256.93 80.56 256.99 80.42 257.04 80.27 257.07 80.12"/>
  </g>
  <g id="ID000093">
    <polygon class="cls-5" points="245.67 79.97 250.39 81.06 251.48 76.34 246.76 75.25 245.67 79.97"/>
  </g>
  <g id="ID000094">
    <line class="cls-3" x1="237.42" y1="89.64" x2="288.4" y2="97.29"/>
  </g>
  <g id="ID000095">
    <polygon class="cls-5" points="257.4 92.64 257.38 92.79 257.38 92.94 257.38 93.1 257.39 93.25 257.41 93.4 257.44 93.55 257.48 93.7 257.53 93.85 257.59 93.99 257.66 94.13 257.73 94.26 257.82 94.39 257.91 94.51 258.01 94.63 258.12 94.74 258.23 94.84 258.35 94.94 258.48 95.03 258.61 95.11 258.74 95.18 258.88 95.24 259.03 95.29 259.18 95.34 259.32 95.37 259.48 95.4 259.63 95.41 259.78 95.42 259.94 95.42 260.09 95.4 260.24 95.38 260.39 95.34 260.54 95.3 260.69 95.25 260.83 95.19 260.96 95.12 261.1 95.04 261.22 94.96 261.34 94.86 261.46 94.76 261.57 94.65 261.67 94.53 261.76 94.41 261.85 94.29 261.93 94.15 262 94.02 262.06 93.88 262.11 93.73 262.15 93.58 262.18 93.43 262.2 93.28 262.22 93.13 262.22 92.97 262.21 92.82 262.2 92.67 262.17 92.52 262.14 92.37 262.09 92.22 262.04 92.07 261.98 91.93 261.9 91.8 261.82 91.67 261.74 91.54 261.64 91.42 261.54 91.31 261.43 91.2 261.31 91.1 261.18 91.01 261.06 90.92 260.92 90.85 260.78 90.78 260.64 90.72 260.5 90.68 260.35 90.64 260.2 90.61 260.04 90.59 259.89 90.58 259.74 90.58 259.58 90.58 259.43 90.6 259.28 90.63 259.13 90.67 258.98 90.72 258.84 90.77 258.7 90.84 258.57 90.91 258.44 90.99 258.31 91.08 258.19 91.18 258.08 91.29 257.98 91.4 257.88 91.52 257.79 91.64 257.71 91.77 257.63 91.91 257.57 92.05 257.51 92.19 257.47 92.34 257.43 92.49 257.4 92.64"/>
  </g>
  <g id="ID000096">
    <polygon class="cls-5" points="268.78 91.89 263.99 91.18 263.27 95.97 268.06 96.69 268.78 91.89"/>
  </g>
  <g id="ID000097">
    <line class="cls-3" x1="244.44" y1="38.42" x2="290.47" y2="106.11"/>
  </g>
  <g id="ID000098">
    <polygon class="cls-7" points="268.82 74.27 268.94 74.18 269.06 74.08 269.17 73.97 269.28 73.86 269.38 73.74 269.46 73.62 269.55 73.49 269.62 73.35 269.68 73.22 269.74 73.07 269.79 72.92 269.82 72.78 269.85 72.62 269.87 72.47 269.88 72.32 269.88 72.17 269.86 72.01 269.84 71.86 269.81 71.71 269.77 71.56 269.72 71.41 269.67 71.27 269.6 71.13 269.52 71 269.44 70.87 269.34 70.75 269.24 70.63 269.14 70.52 269.02 70.42 268.9 70.32 268.78 70.23 268.64 70.16 268.51 70.08 268.37 70.02 268.22 69.97 268.08 69.92 267.93 69.89 267.78 69.86 267.62 69.85 267.47 69.84 267.32 69.85 267.16 69.86 267.01 69.89 266.86 69.92 266.71 69.96 266.57 70.01 266.43 70.07 266.29 70.14 266.16 70.22 266.03 70.31 265.91 70.4 265.79 70.5 265.69 70.61 265.58 70.73 265.49 70.85 265.4 70.98 265.33 71.11 265.26 71.25 265.2 71.39 265.15 71.53 265.1 71.68 265.07 71.83 265.05 71.98 265.04 72.14 265.03 72.29 265.04 72.44 265.06 72.6 265.08 72.75 265.12 72.9 265.16 73.05 265.21 73.19 265.28 73.33 265.35 73.47 265.43 73.6 265.52 73.72 265.62 73.84 265.72 73.95 265.83 74.06 265.95 74.16 266.07 74.25 266.2 74.34 266.33 74.41 266.47 74.48 266.61 74.54 266.76 74.59 266.91 74.63 267.06 74.66 267.21 74.68 267.37 74.69 267.52 74.69 267.67 74.68 267.82 74.66 267.98 74.63 268.12 74.59 268.27 74.55 268.41 74.49 268.55 74.43 268.69 74.35 268.82 74.27"/>
  </g>
  <g id="ID000099">
    <polyline class="cls-3" points="246.55 100.75 281.08 98.74 290.98 117.93"/>
  </g>
  <g id="ID000100">
    <polygon class="cls-5" points="266.24 99.61 266.22 99.45 266.2 99.3 266.17 99.15 266.12 99 266.07 98.86 266.01 98.72 265.94 98.58 265.86 98.45 265.78 98.32 265.68 98.2 265.58 98.08 265.47 97.98 265.35 97.88 265.23 97.78 265.11 97.7 264.97 97.62 264.83 97.55 264.69 97.49 264.55 97.44 264.4 97.4 264.25 97.36 264.1 97.34 263.94 97.33 263.79 97.33 263.64 97.33 263.49 97.35 263.33 97.37 263.18 97.41 263.04 97.45 262.89 97.51 262.75 97.57 262.62 97.64 262.49 97.72 262.36 97.81 262.24 97.91 262.13 98.01 262.02 98.12 261.92 98.24 261.83 98.36 261.75 98.49 261.67 98.63 261.6 98.77 261.55 98.91 261.5 99.05 261.46 99.2 261.43 99.35 261.41 99.5 261.4 99.66 261.39 99.81 261.4 99.97 261.42 100.12 261.45 100.27 261.49 100.42 261.54 100.56 261.59 100.71 261.66 100.85 261.73 100.98 261.81 101.11 261.9 101.24 262 101.35 262.11 101.47 262.22 101.57 262.34 101.67 262.46 101.76 262.59 101.84 262.73 101.91 262.87 101.98 263.01 102.03 263.16 102.08 263.31 102.12 263.46 102.14 263.61 102.16 263.77 102.17 263.92 102.17 264.07 102.16 264.23 102.14 264.38 102.11 264.52 102.06 264.67 102.02 264.81 101.96 264.95 101.89 265.08 101.81 265.21 101.73 265.33 101.64 265.45 101.54 265.56 101.43 265.67 101.31 265.76 101.19 265.85 101.07 265.93 100.94 266 100.8 266.06 100.66 266.12 100.52 266.16 100.37 266.19 100.22 266.22 100.07 266.23 99.92 266.24 99.76 266.24 99.61"/>
  </g>
  <g id="ID000102">
    <text class="cls-8" transform="translate(252.83 112.54)">A</text>
  </g>
  <g id="ID000103">
    <text class="cls-11" transform="translate(237.36 106.48)">C</text>
  </g>
  <g id="ID000104">
    <text class="cls-9" transform="translate(227.94 94.37)">G</text>
  </g>
  <g id="ID000105">
    <text class="cls-9" transform="translate(224.91 79.23)">G</text>
  </g>
  <g id="ID000106">
    <text class="cls-11" transform="translate(221.88 67.12)">G</text>
  </g>
  <g id="ID000107">
    <text class="cls-12" transform="translate(210.1 64.09)">U</text>
  </g>
  <g id="ID000108">
    <text class="cls-12" transform="translate(197.99 64.09)">C</text>
  </g>
  <g id="ID000109">
    <line class="cls-3" x1="202.35" y1="66.71" x2="202.35" y2="74.79"/>
  </g>
  <g id="ID000110">
    <text class="cls-4" transform="translate(195.64 89.08)">30</text>
  </g>
  <g id="ID000111">
    <text class="cls-10" transform="translate(185.88 39.86)">U</text>
  </g>
  <g id="ID000112">
    <text class="cls-12" transform="translate(197.65 39.86)">G</text>
  </g>
  <g id="ID000113">
    <text class="cls-13" transform="translate(210.44 39.86)">A</text>
  </g>
  <g id="ID000114">
    <text class="cls-9" transform="translate(221.88 39.86)">G</text>
  </g>
  <g id="ID000115">
    <text class="cls-11" transform="translate(237.36 39.86)">U</text>
  </g>
  <g id="ID000116">
    <text class="cls-14" transform="translate(252.83 39.86)">A</text>
  </g>
  <g id="ID000117">
    <text class="cls-9" transform="translate(267.3 45.92)">G</text>
  </g>
  <g id="ID000118">
    <text class="cls-8" transform="translate(280.09 58.03)">A</text>
  </g>
  <g id="ID000119">
    <text class="cls-9" transform="translate(288.5 73.17)">G</text>
  </g>
  <g id="ID000120">
    <text class="cls-11" transform="translate(288.84 88.31)">U</text>
  </g>
  <g id="ID000121">
    <line class="cls-3" x1="298.91" y1="77.15" x2="304.62" y2="71.44"/>
  </g>
  <g id="ID000122">
    <text class="cls-4" transform="translate(304.61 68.42)">60</text>
  </g>
  <g id="ID000123">
    <polyline class="cls-3" points="234.33 72.73 284.11 61.67 289.16 65.04"/>
  </g>
  <g id="ID000124">
    <polygon class="cls-5" points="253.78 68.41 253.82 68.56 253.87 68.7 253.92 68.84 253.99 68.98 254.06 69.12 254.15 69.25 254.24 69.37 254.34 69.49 254.44 69.6 254.55 69.71 254.67 69.8 254.8 69.89 254.93 69.97 255.06 70.05 255.2 70.11 255.35 70.17 255.49 70.21 255.64 70.25 255.79 70.28 255.95 70.3 256.1 70.3 256.25 70.3 256.41 70.29 256.56 70.27 256.71 70.24 256.86 70.2 257 70.15 257.14 70.09 257.28 70.02 257.42 69.94 257.55 69.86 257.67 69.77 257.78 69.67 257.89 69.56 258 69.44 258.09 69.32 258.18 69.2 258.26 69.07 258.33 68.93 258.39 68.79 258.44 68.64 258.49 68.5 258.52 68.35 258.55 68.2 258.56 68.04 258.57 67.89 258.56 67.74 258.55 67.58 258.53 67.43 258.49 67.28 258.45 67.13 258.4 66.99 258.34 66.85 258.27 66.71 258.19 66.58 258.1 66.45 258.01 66.33 257.91 66.22 257.8 66.11 257.68 66.01 257.56 65.91 257.43 65.83 257.3 65.75 257.16 65.68 257.02 65.62 256.87 65.57 256.73 65.53 256.58 65.5 256.42 65.47 256.27 65.46 256.12 65.46 255.96 65.47 255.81 65.48 255.66 65.51 255.51 65.54 255.36 65.59 255.22 65.64 255.08 65.71 254.94 65.78 254.81 65.86 254.69 65.95 254.57 66.05 254.45 66.15 254.35 66.26 254.25 66.38 254.16 66.5 254.07 66.63 254 66.76 253.93 66.9 253.87 67.05 253.82 67.19 253.78 67.34 253.76 67.49 253.74 67.64 253.73 67.8 253.72 67.95 253.73 68.1 253.75 68.25 253.78 68.41"/>
  </g>
  <g id="ID000125">
    <polygon class="cls-5" points="264.13 63.62 259.4 64.67 260.46 69.41 265.19 68.35 264.13 63.62"/>
  </g>
  <g id="ID000126">
    <line class="cls-3" x1="214.46" y1="53.79" x2="214.46" y2="39.26"/>
  </g>
  <g id="ID000127">
    <line class="cls-6" x1="197.5" y1="58.64" x2="170.85" y2="58.64"/>
  </g>
  <g id="ID000128">
    <polygon class="cls-5" points="188.22 62.27 186.2 60.46 184.18 59.85 182.16 59.55 178.12 58.64 182.16 57.73 184.18 57.43 186.2 56.82 188.22 55.01 188.22 62.27"/>
  </g>
  <g id="ID000129">
    <line class="cls-15" x1="202.35" y1="53.79" x2="202.35" y2="39.26"/>
  </g>
  <g id="ID000130">
    <polyline class="cls-3" points="178.12 29.57 178.12 22.3 214.46 22.3 214.46 29.57"/>
  </g>
  <g id="ID000131">
    <polygon class="cls-5" points="190.72 22.3 190.72 22.45 190.74 22.61 190.76 22.76 190.8 22.91 190.84 23.06 190.89 23.2 190.95 23.34 191.02 23.48 191.1 23.61 191.19 23.74 191.29 23.86 191.39 23.97 191.5 24.08 191.61 24.18 191.74 24.27 191.87 24.36 192 24.43 192.13 24.5 192.28 24.56 192.42 24.61 192.57 24.65 192.72 24.68 192.87 24.71 193.03 24.72 193.18 24.72 193.33 24.71 193.49 24.7 193.64 24.67 193.79 24.64 193.93 24.59 194.08 24.53 194.22 24.47 194.35 24.4 194.48 24.32 194.61 24.23 194.73 24.13 194.84 24.03 194.95 23.91 195.05 23.8 195.14 23.67 195.22 23.54 195.29 23.41 195.36 23.27 195.42 23.13 195.47 22.98 195.5 22.83 195.53 22.68 195.55 22.53 195.56 22.38 195.56 22.22 195.55 22.07 195.53 21.92 195.5 21.77 195.47 21.62 195.42 21.47 195.36 21.33 195.29 21.19 195.22 21.05 195.14 20.93 195.05 20.8 194.95 20.68 194.84 20.57 194.73 20.47 194.61 20.37 194.48 20.28 194.35 20.2 194.22 20.13 194.08 20.07 193.93 20.01 193.79 19.96 193.64 19.93 193.49 19.9 193.33 19.89 193.18 19.88 193.03 19.88 192.87 19.89 192.72 19.91 192.57 19.95 192.42 19.99 192.28 20.04 192.13 20.1 192 20.16 191.87 20.24 191.74 20.33 191.61 20.42 191.5 20.52 191.39 20.63 191.29 20.74 191.19 20.86 191.1 20.99 191.02 21.12 190.95 21.26 190.89 21.4 190.84 21.54 190.8 21.69 190.76 21.84 190.74 21.99 190.72 22.15 190.72 22.3"/>
  </g>
  <g id="ID000132">
    <polygon class="cls-5" points="201.86 19.88 197.02 19.88 197.02 24.72 201.86 24.72 201.86 19.88"/>
  </g>
  <g id="ID000134">
    <text class="cls-12" transform="translate(161.65 64.09)">C</text>
  </g>
  <g id="ID000135">
    <text class="cls-13" transform="translate(149.87 64.09)">A</text>
  </g>
  <g id="ID000136">
    <text class="cls-12" transform="translate(137.09 64.09)">G</text>
  </g>
  <g id="ID000137">
    <text class="cls-12" transform="translate(125.31 64.09)">U</text>
  </g>
  <g id="ID000138">
    <text class="cls-12" transform="translate(112.86 64.09)">G</text>
  </g>
  <g id="ID000139">
    <text class="cls-12" transform="translate(101.09 64.09)">C</text>
  </g>
  <g id="ID000140">
    <text class="cls-12" transform="translate(88.64 64.09)">G</text>
  </g>
  <g id="ID000141">
    <text class="cls-13" transform="translate(80.22 70.15)">A</text>
  </g>
  <g id="ID000142">
    <text class="cls-13" transform="translate(65.08 67.12)">A</text>
  </g>
  <g id="ID000143">
    <text class="cls-13" transform="translate(56 51.98)">A</text>
  </g>
  <g id="ID000144">
    <line class="cls-3" x1="51.94" y1="46.53" x2="43.87" y2="46.53"/>
  </g>
  <g id="ID000145">
    <text class="cls-4" transform="translate(30.45 51.98)">40</text>
  </g>
  <g id="ID000146">
    <text class="cls-12" transform="translate(64.75 36.83)">C</text>
  </g>
  <g id="ID000147">
    <text class="cls-13" transform="translate(80.22 33.81)">A</text>
  </g>
  <g id="ID000148">
    <text class="cls-12" transform="translate(88.97 39.86)">C</text>
  </g>
  <g id="ID000149">
    <text class="cls-12" transform="translate(100.75 39.86)">G</text>
  </g>
  <g id="ID000150">
    <text class="cls-12" transform="translate(113.2 39.86)">C</text>
  </g>
  <g id="ID000151">
    <text class="cls-13" transform="translate(125.65 39.86)">A</text>
  </g>
  <g id="ID000152">
    <text class="cls-12" transform="translate(137.43 39.86)">C</text>
  </g>
  <g id="ID000153">
    <text class="cls-12" transform="translate(149.54 39.86)">U</text>
  </g>
  <g id="ID000154">
    <text class="cls-12" transform="translate(161.32 39.86)">G</text>
  </g>
  <g id="ID000155">
    <text class="cls-12" transform="translate(173.77 39.86)">U</text>
  </g>
  <g id="ID000156">
    <line class="cls-3" x1="172.41" y1="28.7" x2="166.7" y2="22.99"/>
  </g>
  <g id="ID000157">
    <text class="cls-4" transform="translate(153.29 19.96)">50</text>
  </g>
  <g id="ID000158">
    <line class="cls-3" x1="166.01" y1="53.79" x2="166.01" y2="39.26"/>
  </g>
  <g id="ID000159">
    <line class="cls-3" x1="153.89" y1="53.79" x2="153.89" y2="39.26"/>
  </g>
  <g id="ID000160">
    <line class="cls-3" x1="141.78" y1="53.79" x2="141.78" y2="39.26"/>
  </g>
  <g id="ID000161">
    <line class="cls-3" x1="129.67" y1="53.79" x2="129.67" y2="39.26"/>
  </g>
  <g id="ID000162">
    <line class="cls-3" x1="117.56" y1="53.79" x2="117.56" y2="39.26"/>
  </g>
  <g id="ID000163">
    <line class="cls-3" x1="105.44" y1="53.79" x2="105.44" y2="39.26"/>
  </g>
  <g id="ID000164">
    <line class="cls-3" x1="93.33" y1="53.79" x2="93.33" y2="39.26"/>
  </g>
  <g id="ID000165">
    <line class="cls-3" x1="71.11" y1="57.26" x2="82.24" y2="32.77"/>
  </g>
  <g id="ID000166">
    <polygon class="cls-7" points="74.07 50.74 78.5 47.57 73.54 45.32 74.07 50.74"/>
  </g>
  <g id="ID000167">
    <polygon class="cls-7" points="78.98 39.94 78.84 39.88 78.69 39.83 78.55 39.79 78.39 39.76 78.24 39.74 78.09 39.72 77.94 39.72 77.78 39.73 77.63 39.75 77.48 39.77 77.33 39.81 77.18 39.86 77.04 39.91 76.9 39.98 76.76 40.05 76.63 40.13 76.51 40.22 76.39 40.32 76.28 40.42 76.17 40.53 76.07 40.65 75.98 40.77 75.9 40.9 75.82 41.04 75.76 41.18 75.7 41.32 75.65 41.47 75.61 41.62 75.58 41.77 75.57 41.92 75.56 42.07 75.56 42.23 75.57 42.38 75.59 42.53 75.61 42.68 75.66 42.83 75.7 42.98 75.76 43.12 75.83 43.26 75.9 43.39 75.98 43.52 76.08 43.65 76.17 43.76 76.28 43.87 76.39 43.98 76.51 44.08 76.64 44.16 76.77 44.24 76.91 44.32 77.05 44.38 77.19 44.44 77.34 44.48 77.49 44.52 77.64 44.54 77.79 44.56 77.94 44.57 78.1 44.56 78.25 44.55 78.4 44.53 78.55 44.5 78.7 44.46 78.85 44.41 78.99 44.35 79.13 44.28 79.26 44.2 79.39 44.12 79.51 44.02 79.63 43.92 79.73 43.81 79.84 43.7 79.93 43.58 80.02 43.45 80.1 43.32 80.17 43.18 80.23 43.04 80.28 42.9 80.32 42.75 80.36 42.6 80.38 42.45 80.4 42.29 80.4 42.14 80.39 41.99 80.38 41.83 80.36 41.68 80.32 41.53 80.28 41.38 80.22 41.24 80.16 41.1 80.09 40.96 80.01 40.83 79.93 40.7 79.83 40.58 79.73 40.47 79.62 40.36 79.5 40.26 79.38 40.17 79.25 40.08 79.12 40.01 78.98 39.94"/>
  </g>
  <text class="cls-16" transform="translate(240.7 391.09)">5<tspan class="cls-17" x="8.34" y="0">’</tspan></text>
  <text class="cls-16" transform="translate(309.35 391.09)">3<tspan class="cls-17" x="8.34" y="0">’</tspan></text>
  <text class="cls-18" transform="translate(8.54 112.54)">24-2-min aptamer<tspan x="0" y="21.6">(Spinach aptamer)</tspan></text>
</svg>
