<?xml version="1.0" encoding="utf-8"?>
<!-- Generator: Adobe Illustrator 25.2.0, SVG Export Plug-In . SVG Version: 6.00 Build 0)  -->
<svg version="1.1" id="图层_1" xmlns="http://www.w3.org/2000/svg" xmlns:xlink="http://www.w3.org/1999/xlink" x="0px" y="0px"
	 viewBox="0 0 400 400" style="enable-background:new 0 0 400 400;" xml:space="preserve">
<style type="text/css">
	.st0{fill:#B83233;}
	.st1{font-family:'ArialMT';}
	.st2{font-size:11.4193px;}
	.st3{fill:none;stroke:#000000;stroke-width:0.2309;stroke-miterlimit:1.847;}
	.st4{fill:#C2B617;}
	.st5{stroke:#000000;stroke-miterlimit:1.847;}
	.st6{fill:none;stroke:#000000;stroke-miterlimit:1.847;}
	.st7{fill:#084595;}
	.st8{font-size:20px;}
	.st9{font-size:14px;}
</style>
<g id="ID000002">
	<g transform="translate(295.864,359.602)">
		<g transform="rotate(-0.0)">
			<text transform="matrix(1 0 0 1 -151.9509 12.6708)" class="st0 st1 st2">G</text>
		</g>
	</g>
</g>
<g id="ID000003">
	<g transform="translate(295.864,347.959)">
		<g transform="rotate(-0.0)">
			<text transform="matrix(1 0 0 1 -151.9509 13.2337)" class="st0 st1 st2">G</text>
		</g>
	</g>
</g>
<g id="ID000004">
	<g transform="translate(327.883,339.227)">
		<g transform="rotate(-0.0)">
			<text transform="matrix(1 0 0 1 -152.8674 13.6552)" class="st0 st1 st2">A</text>
		</g>
	</g>
</g>
<g id="ID000005">
	<g transform="translate(319.151,347.959)">
		<g transform="rotate(-0.0)">
			<text transform="matrix(1 0 0 1 -152.7604 13.2337)" class="st0 st1 st2">C</text>
		</g>
	</g>
</g>
<g id="ID000006">
	<line class="st3" x1="177.9" y1="356.1" x2="185.3" y2="356.1"/>
</g>
<g id="ID000007">
	<g transform="translate(334.675,347.959)">
		<g transform="rotate(-0.0)">
			<text transform="matrix(1 0 0 1 -149.3889 13.2337)" class="st1 st2">60</text>
		</g>
	</g>
</g>
<g id="ID000008">
	<g transform="translate(319.151,359.602)">
		<g transform="rotate(-0.0)">
			<text transform="matrix(1 0 0 1 -152.7604 12.6708)" class="st0 st1 st2">U</text>
		</g>
	</g>
</g>
<g id="ID000009">
	<g transform="translate(328.853,364.454)">
		<g transform="rotate(-0.0)">
			<text transform="matrix(1 0 0 1 -153.5478 7.8188)" class="st4 st1 st2">G</text>
		</g>
	</g>
</g>
<g id="ID000010">
	<g transform="translate(340.496,367.364)">
		<g transform="rotate(-0.0)">
			<text transform="matrix(1 0 0 1 -153.9018 4.9088)" class="st4 st1 st2">C</text>
		</g>
	</g>
</g>
<g id="ID000011">
	<g transform="translate(352.140,373.186)">
		<g transform="rotate(-0.0)">
			<text transform="matrix(1 0 0 1 -153.2679 -0.9132)" class="st4 st1 st2">A</text>
		</g>
	</g>
</g>
<g id="ID000012">
	<g transform="translate(360.872,384.829)">
		<g transform="rotate(-0.0)">
			<text transform="matrix(1 0 0 1 -151.3622 -12.5562)" class="st4 st1 st2">A</text>
		</g>
	</g>
</g>
<g id="ID000013">
	<g transform="translate(366.694,396.472)">
		<g transform="rotate(-0.0)">
			<text transform="matrix(1 0 0 1 -146.2799 -24.1992)" class="st4 st1 st2">A</text>
		</g>
	</g>
</g>
<g id="ID000014">
	<g transform="translate(369.604,411.026)">
		<g transform="rotate(-0.0)">
			<text transform="matrix(1 0 0 1 -139.4731 -38.7522)" class="st4 st1 st2">C</text>
		</g>
	</g>
</g>
<g id="ID000015">
	<g transform="translate(369.604,422.669)">
		<g transform="rotate(-0.0)">
			<text transform="matrix(1 0 0 1 -128.5737 -50.3952)" class="st4 st1 st2">U</text>
		</g>
	</g>
</g>
<g id="ID000016">
	<g transform="translate(369.604,434.313)">
		<g transform="rotate(-0.0)">
			<text transform="matrix(1 0 0 1 -118.4907 -62.0402)" class="st4 st1 st2">U</text>
		</g>
	</g>
</g>
<g id="ID000017">
	<g transform="translate(369.604,445.956)">
		<g transform="rotate(-0.0)">
			<text transform="matrix(1 0 0 1 -108.7251 -73.4244)" class="st4 st1 st2">G</text>
		</g>
	</g>
</g>
<g id="ID000018">
	<line class="st3" x1="265.6" y1="359.1" x2="265.6" y2="351.8"/>
</g>
<g id="ID000019">
	<g transform="translate(385.129,445.956)">
		<g transform="rotate(-0.0)">
			<text transform="matrix(1 0 0 1 -125.4259 -94.3092)" class="st1 st2">70</text>
		</g>
	</g>
</g>
<g id="ID000020">
	<g transform="translate(360.872,454.688)">
		<g transform="rotate(-0.0)">
			<text transform="matrix(1 0 0 1 -89.0566 -82.4142)" class="st4 st1 st2">A</text>
		</g>
	</g>
</g>
<g id="ID000021">
	<g transform="translate(352.140,466.331)">
		<g transform="rotate(-0.0)">
			<text transform="matrix(1 0 0 1 -70.851 -94.0572)" class="st4 st1 st2">C</text>
		</g>
	</g>
</g>
<g id="ID000022">
	<g transform="translate(340.496,469.242)">
		<g transform="rotate(-0.0)">
			<text transform="matrix(1 0 0 1 -49.2919 -96.9692)" class="st4 st1 st2">A</text>
		</g>
	</g>
</g>
<g id="ID000023">
	<g transform="translate(328.853,472.153)">
		<g transform="rotate(-0.0)">
			<text transform="matrix(1 0 0 1 -28.3042 -99.8802)" class="st4 st1 st2">A</text>
		</g>
	</g>
</g>
<g id="ID000024">
	<g transform="translate(314.299,472.153)">
		<g transform="rotate(-0.0)">
			<text transform="matrix(1 0 0 1 -4.3156 -99.8802)" class="st4 st1 st2">A</text>
		</g>
	</g>
</g>
<g id="ID000025">
	<g transform="translate(302.656,472.153)">
		<g transform="rotate(-0.0)">
			<text transform="matrix(1 0 0 1 16.4973 -99.8792)" class="st4 st1 st2">G</text>
		</g>
	</g>
</g>
<g id="ID000026">
	<g transform="translate(291.013,463.420)">
		<g transform="rotate(-0.0)">
			<text transform="matrix(1 0 0 1 38.1032 -91.1462)" class="st4 st1 st2">C</text>
		</g>
	</g>
</g>
<g id="ID000027">
	<g transform="translate(288.102,451.777)">
		<g transform="rotate(-0.0)">
			<text transform="matrix(1 0 0 1 51.6714 -79.5042)" class="st4 st1 st2">U</text>
		</g>
	</g>
</g>
<g id="ID000028">
	<g transform="translate(288.102,440.134)">
		<g transform="rotate(-0.0)">
			<text transform="matrix(1 0 0 1 61.5269 -67.8602)" class="st4 st1 st2">A</text>
		</g>
	</g>
</g>
<g id="ID000029">
	<polygon class="st5" points="161.5,367.3 161.5,367.1 161.5,366.9 161.5,366.9 161.5,366.7 161.5,366.5 161.5,366.5 161.4,366.3 
		161.4,366.3 161.4,366.1 161.2,365.8 161.2,365.8 161,365.6 161,365.6 160.8,365.5 160.8,365.5 160.5,365.5 160.5,365.3 
		160.3,365.3 160.2,365.3 160.2,365.3 160,365.1 159.7,365.1 159.7,365.1 159.5,365.1 159.3,365.1 159.3,365.1 159.1,365.1 
		159,365.1 159,365.1 158.7,365.3 158.5,365.3 158.5,365.3 158.3,365.5 158.3,365.5 158.1,365.5 158.1,365.6 157.8,365.6 
		157.8,365.8 157.7,365.8 157.7,366.1 157.5,366.1 157.5,366.3 157.5,366.5 157.3,366.5 157.3,366.7 157.3,366.7 157.3,366.9 
		157.3,367.1 157.3,367.1 157.3,367.3 157.3,367.5 157.3,367.8 157.3,367.8 157.3,368 157.3,368 157.5,368.1 157.5,368.3 
		157.5,368.3 157.7,368.6 157.7,368.6 157.8,368.8 157.8,368.8 158.1,369 158.1,369 158.3,369.2 158.3,369.2 158.5,369.2 
		158.5,369.3 158.7,369.3 159,369.3 159,369.3 159.1,369.3 159.3,369.6 159.3,369.6 159.5,369.6 159.7,369.6 159.7,369.3 160,369.3 
		160.2,369.3 160.2,369.3 160.3,369.3 160.5,369.2 160.5,369.2 160.8,369.2 160.8,369 161,369 161,368.8 161.2,368.8 161.2,368.6 
		161.4,368.6 161.4,368.3 161.4,368.1 161.5,368.1 161.5,368 161.5,368 161.5,367.8 161.5,367.5 161.5,367.5 	"/>
</g>
<g id="ID000030">
	<line class="st6" x1="152.8" y1="356.1" x2="166.2" y2="356.1"/>
</g>
<g id="ID000032">
	<g transform="translate(295.864,333.405)">
		<g transform="rotate(-0.0)">
			<text transform="matrix(1 0 0 1 -151.9509 13.9381)" class="st0 st1 st2">G</text>
		</g>
	</g>
</g>
<g id="ID000033">
	<g transform="translate(295.864,321.762)">
		<g transform="rotate(-0.0)">
			<text transform="matrix(1 0 0 1 -151.3181 14.5011)" class="st0 st1 st2">A</text>
		</g>
	</g>
</g>
<g id="ID000034">
	<g transform="translate(295.864,310.119)">
		<g transform="rotate(-0.0)">
			<text transform="matrix(1 0 0 1 -151.3181 15.065)" class="st0 st1 st2">A</text>
		</g>
	</g>
</g>
<g id="ID000035">
	<g transform="translate(295.864,298.476)">
		<g transform="rotate(-0.0)">
			<text transform="matrix(1 0 0 1 -151.9509 15.6279)" class="st0 st1 st2">G</text>
		</g>
	</g>
</g>
<g id="ID000036">
	<g transform="translate(287.132,286.833)">
		<g transform="rotate(-0.0)">
			<text transform="matrix(1 0 0 1 -151.5285 16.1918)" class="st4 st1 st2">G</text>
		</g>
	</g>
</g>
<g id="ID000037">
	<g transform="translate(324.972,286.833)">
		<g transform="rotate(-0.0)">
			<text transform="matrix(1 0 0 1 -153.3597 16.1918)" class="st4 st1 st2">G</text>
		</g>
	</g>
</g>
<g id="ID000038">
	<g transform="translate(319.151,298.476)">
		<g transform="rotate(-0.0)">
			<text transform="matrix(1 0 0 1 -152.7604 15.6279)" class="st0 st1 st2">U</text>
		</g>
	</g>
</g>
<g id="ID000039">
	<g transform="translate(319.151,310.119)">
		<g transform="rotate(-0.0)">
			<text transform="matrix(1 0 0 1 -152.7604 15.065)" class="st0 st1 st2">U</text>
		</g>
	</g>
</g>
<g id="ID000040">
	<g transform="translate(319.151,321.762)">
		<g transform="rotate(-0.0)">
			<text transform="matrix(1 0 0 1 -152.7604 14.5011)" class="st0 st1 st2">U</text>
		</g>
	</g>
</g>
<g id="ID000041">
	<g transform="translate(319.151,333.405)">
		<g transform="rotate(-0.0)">
			<text transform="matrix(1 0 0 1 -152.7604 13.9381)" class="st0 st1 st2">C</text>
		</g>
	</g>
</g>
<g id="ID000042">
	<line class="st6" x1="152.8" y1="342.4" x2="166.2" y2="342.4"/>
</g>
<g id="ID000043">
	<line class="st6" x1="152.8" y1="331.2" x2="166.2" y2="331.2"/>
</g>
<g id="ID000044">
	<line class="st6" x1="152.8" y1="320.2" x2="166.2" y2="320.2"/>
</g>
<g id="ID000045">
	<polygon class="st5" points="161.5,309.2 161.5,309 161.5,308.8 161.5,308.8 161.5,308.6 161.5,308.3 161.5,308.3 161.4,308.2 
		161.4,308 161.4,308 161.2,307.8 161.2,307.8 161,307.6 161,307.6 160.8,307.3 160.8,307.3 160.5,307.1 160.5,307.1 160.3,307.1 
		160.2,307.1 160.2,307 160,307 159.7,307 159.7,307 159.5,307 159.3,307 159.3,307 159.1,307 159,307 159,307 158.7,307 
		158.5,307.1 158.5,307.1 158.3,307.1 158.3,307.3 158.1,307.3 158.1,307.3 157.8,307.6 157.8,307.6 157.7,307.8 157.7,307.8 
		157.5,308 157.5,308.2 157.5,308.2 157.3,308.3 157.3,308.6 157.3,308.6 157.3,308.8 157.3,309 157.3,309 157.3,309.2 157.3,309.4 
		157.3,309.4 157.3,309.6 157.3,309.8 157.3,309.8 157.5,310 157.5,310 157.5,310.3 157.7,310.5 157.7,310.5 157.8,310.6 
		157.8,310.6 158.1,310.8 158.1,310.8 158.3,311.1 158.3,311.1 158.5,311.1 158.5,311.1 158.7,311.3 159,311.3 159,311.3 
		159.1,311.3 159.3,311.3 159.3,311.3 159.5,311.3 159.7,311.3 159.7,311.3 160,311.3 160.2,311.3 160.2,311.3 160.3,311.1 
		160.5,311.1 160.5,311.1 160.8,310.8 160.8,310.8 161,310.6 161,310.6 161.2,310.5 161.2,310.5 161.4,310.3 161.4,310.3 161.4,310 
		161.5,310 161.5,309.8 161.5,309.6 161.5,309.6 161.5,309.4 	"/>
</g>
<g id="ID000047">
	<g transform="translate(292.954,275.190)">
		<g transform="rotate(-0.0)">
			<text transform="matrix(1 0 0 1 -151.81 16.7547)" class="st0 st1 st2">G</text>
		</g>
	</g>
</g>
<g id="ID000048">
	<g transform="translate(292.954,263.546)">
		<g transform="rotate(-0.0)">
			<text transform="matrix(1 0 0 1 -151.1772 17.3196)" class="st0 st1 st2">A</text>
		</g>
	</g>
</g>
<g id="ID000049">
	<g transform="translate(292.954,251.903)">
		<g transform="rotate(-0.0)">
			<text transform="matrix(1 0 0 1 -151.4921 17.8835)" class="st0 st1 st2">U</text>
		</g>
	</g>
</g>
<g id="ID000050">
	<line class="st3" x1="138.1" y1="264.9" x2="130.9" y2="264.9"/>
</g>
<g id="ID000051">
	<g transform="translate(277.429,251.903)">
		<g transform="rotate(-0.0)">
			<text transform="matrix(1 0 0 1 -159.3201 17.8835)" class="st1 st2">10</text>
		</g>
	</g>
</g>
<g id="ID000052">
	<g transform="translate(292.954,240.260)">
		<g transform="rotate(-0.0)">
			<text transform="matrix(1 0 0 1 -151.4921 18.4445)" class="st0 st1 st2">C</text>
		</g>
	</g>
</g>
<g id="ID000053">
	<g transform="translate(292.954,228.617)">
		<g transform="rotate(-0.0)">
			<text transform="matrix(1 0 0 1 -151.4921 19.0103)" class="st0 st1 st2">C</text>
		</g>
	</g>
</g>
<g id="ID000054">
	<g transform="translate(292.954,216.974)">
		<g transform="rotate(-0.0)">
			<text transform="matrix(1 0 0 1 -151.1772 19.5723)" class="st0 st1 st2">A</text>
		</g>
	</g>
</g>
<g id="ID000055">
	<g transform="translate(281.310,205.331)">
		<g transform="rotate(-0.0)">
			<text transform="matrix(1 0 0 1 -150.6152 20.1352)" class="st4 st1 st2">A</text>
		</g>
	</g>
</g>
<g id="ID000056">
	<g transform="translate(333.705,202.420)">
		<g transform="rotate(-0.0)">
			<text transform="matrix(1 0 0 1 -153.7812 20.2776)" class="st4 st1 st2">G</text>
		</g>
	</g>
</g>
<g id="ID000057">
	<g transform="translate(324.972,208.242)">
		<g transform="rotate(-0.0)">
			<text transform="matrix(1 0 0 1 -153.0418 19.9947)" class="st4 st1 st2">C</text>
		</g>
	</g>
</g>
<g id="ID000058">
	<g transform="translate(316.240,216.974)">
		<g transform="rotate(-0.0)">
			<text transform="matrix(1 0 0 1 -152.6179 19.5723)" class="st0 st1 st2">U</text>
		</g>
	</g>
</g>
<g id="ID000059">
	<g transform="translate(316.240,228.617)">
		<g transform="rotate(-0.0)">
			<text transform="matrix(1 0 0 1 -152.9363 19.0103)" class="st0 st1 st2">G</text>
		</g>
	</g>
</g>
<g id="ID000060">
	<g transform="translate(316.240,240.260)">
		<g transform="rotate(-0.0)">
			<text transform="matrix(1 0 0 1 -152.9363 18.4445)" class="st0 st1 st2">G</text>
		</g>
	</g>
</g>
<g id="ID000061">
	<line class="st3" x1="175.2" y1="253.8" x2="182.6" y2="253.8"/>
</g>
<g id="ID000062">
	<g transform="translate(331.764,240.260)">
		<g transform="rotate(-0.0)">
			<text transform="matrix(1 0 0 1 -149.2474 18.4445)" class="st1 st2">50</text>
		</g>
	</g>
</g>
<g id="ID000063">
	<g transform="translate(316.240,251.903)">
		<g transform="rotate(-0.0)">
			<text transform="matrix(1 0 0 1 -152.9363 17.8835)" class="st0 st1 st2">G</text>
		</g>
	</g>
</g>
<g id="ID000064">
	<g transform="translate(316.240,263.546)">
		<g transform="rotate(-0.0)">
			<text transform="matrix(1 0 0 1 -152.6179 17.3196)" class="st0 st1 st2">U</text>
		</g>
	</g>
</g>
<g id="ID000065">
	<g transform="translate(316.240,275.190)">
		<g transform="rotate(-0.0)">
			<text transform="matrix(1 0 0 1 -152.6179 16.7547)" class="st0 st1 st2">U</text>
		</g>
	</g>
</g>
<g id="ID000066">
	<polygon class="st5" points="159,286.9 159,286.7 159,286.7 159,286.6 159,286.4 158.7,286.4 158.7,286.1 158.7,285.9 158.5,285.9 
		158.5,285.7 158.5,285.7 158.3,285.5 158.3,285.5 158.1,285.3 158.1,285.3 157.8,285.1 157.8,285.1 157.7,285.1 157.7,284.9 
		157.5,284.9 157.3,284.9 157.3,284.9 157,284.7 156.8,284.7 156.8,284.7 156.6,284.7 156.5,284.7 156.5,284.7 156.2,284.9 
		156,284.9 156,284.9 155.8,284.9 155.6,284.9 155.6,285.1 155.5,285.1 155.5,285.1 155.2,285.3 155.2,285.3 155,285.5 155,285.5 
		154.8,285.7 154.8,285.9 154.8,285.9 154.6,286.1 154.6,286.1 154.6,286.4 154.6,286.6 154.3,286.6 154.3,286.7 154.3,286.9 
		154.3,286.9 154.3,287.1 154.3,287.4 154.6,287.4 154.6,287.6 154.6,287.8 154.6,287.8 154.8,287.9 154.8,288.2 154.8,288.2 
		155,288.4 155,288.4 155.2,288.6 155.2,288.6 155.5,288.8 155.5,288.8 155.6,288.8 155.6,289.1 155.8,289.1 156,289.1 156,289.1 
		156.2,289.2 156.5,289.2 156.5,289.2 156.6,289.2 156.8,289.2 156.8,289.2 157,289.2 157.3,289.1 157.3,289.1 157.5,289.1 
		157.7,289.1 157.7,289.1 157.8,288.8 157.8,288.8 158.1,288.6 158.1,288.6 158.3,288.4 158.3,288.4 158.5,288.2 158.5,288.2 
		158.5,287.9 158.7,287.9 158.7,287.8 158.7,287.6 159,287.6 159,287.4 159,287.1 159,287.1 	"/>
</g>
<g id="ID000067">
	<line class="st6" x1="150" y1="275.9" x2="163.2" y2="275.9"/>
</g>
<g id="ID000068">
	<polygon class="st5" points="159,264.9 159,264.7 159,264.5 159,264.3 159,264.3 158.7,264 158.7,264 158.7,263.9 158.5,263.7 
		158.5,263.7 158.5,263.5 158.3,263.5 158.3,263.2 158.1,263.2 158.1,263 157.8,263 157.8,262.8 157.7,262.8 157.7,262.8 
		157.5,262.7 157.3,262.7 157.3,262.7 157,262.7 156.8,262.7 156.8,262.7 156.6,262.7 156.5,262.7 156.5,262.7 156.2,262.7 
		156,262.7 156,262.7 155.8,262.8 155.6,262.8 155.6,262.8 155.5,263 155.5,263 155.2,263 155.2,263.2 155,263.2 155,263.5 
		154.8,263.5 154.8,263.7 154.8,263.9 154.6,263.9 154.6,264 154.6,264 154.6,264.3 154.3,264.5 154.3,264.5 154.3,264.7 
		154.3,264.9 154.3,265 154.3,265 154.6,265.3 154.6,265.5 154.6,265.5 154.6,265.7 154.8,265.7 154.8,266 154.8,266.2 155,266.2 
		155,266.3 155.2,266.3 155.2,266.5 155.5,266.5 155.5,266.5 155.6,266.7 155.6,266.7 155.8,266.7 156,267 156,267 156.2,267 
		156.5,267 156.5,267 156.6,267 156.8,267 156.8,267 157,267 157.3,267 157.3,267 157.5,267 157.7,266.7 157.7,266.7 157.8,266.7 
		157.8,266.5 158.1,266.5 158.1,266.3 158.3,266.3 158.3,266.2 158.5,266.2 158.5,266 158.5,266 158.7,265.7 158.7,265.7 
		158.7,265.5 159,265.3 159,265.3 159,265 	"/>
</g>
<g id="ID000069">
	<line class="st6" x1="150" y1="253.8" x2="163.2" y2="253.8"/>
</g>
<g id="ID000070">
	<line class="st6" x1="150" y1="242.6" x2="163.2" y2="242.6"/>
</g>
<g id="ID000071">
	<line class="st6" x1="150" y1="231.6" x2="163.2" y2="231.6"/>
</g>
<g id="ID000073">
	<g transform="translate(281.310,190.777)">
		<g transform="rotate(-0.0)">
			<text transform="matrix(1 0 0 1 -150.9286 20.8405)" class="st4 st1 st2">U</text>
		</g>
	</g>
</g>
<g id="ID000074">
	<g transform="translate(290.043,179.134)">
		<g transform="rotate(-0.0)">
			<text transform="matrix(1 0 0 1 -151.3511 21.4035)" class="st0 st1 st2">C</text>
		</g>
	</g>
</g>
<g id="ID000075">
	<g transform="translate(290.043,167.490)">
		<g transform="rotate(-0.0)">
			<text transform="matrix(1 0 0 1 -151.3511 21.9674)" class="st0 st1 st2">U</text>
		</g>
	</g>
</g>
<g id="ID000076">
	<g transform="translate(278.400,161.669)">
		<g transform="rotate(-0.0)">
			<text transform="matrix(1 0 0 1 -150.4732 22.2479)" class="st4 st1 st2">A</text>
		</g>
	</g>
</g>
<g id="ID000077">
	<g transform="translate(266.757,155.847)">
		<g transform="rotate(-0.0)">
			<text transform="matrix(1 0 0 1 -150.2248 22.5298)" class="st4 st1 st2">C</text>
		</g>
	</g>
</g>
<g id="ID000078">
	<g transform="translate(263.846,141.293)">
		<g transform="rotate(-0.0)">
			<text transform="matrix(1 0 0 1 -149.7679 23.2347)" class="st4 st1 st2">A</text>
		</g>
	</g>
</g>
<g id="ID000079">
	<line class="st3" x1="110.5" y1="159.6" x2="103" y2="159.6"/>
</g>
<g id="ID000080">
	<g transform="translate(248.322,141.293)">
		<g transform="rotate(-0.0)">
			<text transform="matrix(1 0 0 1 -157.9114 23.2347)" class="st1 st2">20</text>
		</g>
	</g>
</g>
<g id="ID000081">
	<g transform="translate(342.437,141.293)">
		<g transform="rotate(-0.0)">
			<text transform="matrix(1 0 0 1 -153.8877 23.2347)" class="st4 st1 st2">C</text>
		</g>
	</g>
</g>
<g id="ID000082">
	<g transform="translate(339.526,155.847)">
		<g transform="rotate(-0.0)">
			<text transform="matrix(1 0 0 1 -153.7457 22.5298)" class="st4 st1 st2">U</text>
		</g>
	</g>
</g>
<g id="ID000083">
	<line class="st3" x1="197.3" y1="173.4" x2="204.6" y2="173.4"/>
</g>
<g id="ID000084">
	<g transform="translate(355.050,155.847)">
		<g transform="rotate(-0.0)">
			<text transform="matrix(1 0 0 1 -150.3732 22.5298)" class="st1 st2">40</text>
		</g>
	</g>
</g>
<g id="ID000085">
	<g transform="translate(327.883,161.669)">
		<g transform="rotate(-0.0)">
			<text transform="matrix(1 0 0 1 -153.1828 22.2479)" class="st4 st1 st2">C</text>
		</g>
	</g>
</g>
<g id="ID000086">
	<g transform="translate(313.329,167.490)">
		<g transform="rotate(-0.0)">
			<text transform="matrix(1 0 0 1 -152.164 21.9674)" class="st0 st1 st2">A</text>
		</g>
	</g>
</g>
<g id="ID000087">
	<g transform="translate(313.329,179.134)">
		<g transform="rotate(-0.0)">
			<text transform="matrix(1 0 0 1 -152.7968 21.4035)" class="st0 st1 st2">G</text>
		</g>
	</g>
</g>
<g id="ID000088">
	<g transform="translate(324.972,184.955)">
		<g transform="rotate(-0.0)">
			<text transform="matrix(1 0 0 1 -153.0418 21.1215)" class="st4 st1 st2">U</text>
		</g>
	</g>
</g>
<g id="ID000089">
	<g transform="translate(333.705,190.777)">
		<g transform="rotate(-0.0)">
			<text transform="matrix(1 0 0 1 -153.4638 20.8405)" class="st4 st1 st2">U</text>
		</g>
	</g>
</g>
<g id="ID000090">
	<line class="st6" x1="147.1" y1="195.5" x2="160.5" y2="195.5"/>
</g>
<g id="ID000091">
	<line class="st6" x1="147.1" y1="184.5" x2="160.5" y2="184.5"/>
</g>
<g id="ID000093">
	<g transform="translate(269.667,129.650)">
		<g transform="rotate(-0.0)">
			<text transform="matrix(1 0 0 1 -150.0508 23.7986)" class="st4 st1 st2">A</text>
		</g>
	</g>
</g>
<g id="ID000094">
	<g transform="translate(278.400,118.007)">
		<g transform="rotate(-0.0)">
			<text transform="matrix(1 0 0 1 -150.4732 24.3605)" class="st4 st1 st2">A</text>
		</g>
	</g>
</g>
<g id="ID000095">
	<g transform="translate(287.132,106.364)">
		<g transform="rotate(-0.0)">
			<text transform="matrix(1 0 0 1 -151.2101 24.9244)" class="st7 st1 st2">U</text>
		</g>
	</g>
</g>
<g id="ID000096">
	<g transform="translate(287.132,94.721)">
		<g transform="rotate(-0.0)">
			<text transform="matrix(1 0 0 1 -151.2101 25.4878)" class="st7 st1 st2">U</text>
		</g>
	</g>
</g>
<g id="ID000097">
	<g transform="translate(287.132,83.078)">
		<g transform="rotate(-0.0)">
			<text transform="matrix(1 0 0 1 -151.2101 26.0513)" class="st7 st1 st2">C</text>
		</g>
	</g>
</g>
<g id="ID000098">
	<g>
		<g transform="translate(278.400,74.345)">
			<g transform="rotate(-0.0)">
				<text transform="matrix(1 0 0 1 -151.106 26.4737)" class="st7 st1 st2">G</text>
			</g>
		</g>
	</g>
</g>
<g id="ID000099">
	<g>
		<g transform="translate(278.400,59.791)">
			<g transform="rotate(-0.0)">
				<text transform="matrix(1 0 0 1 -150.7877 27.1771)" class="st7 st1 st2">U</text>
			</g>
		</g>
	</g>
</g>
<g id="ID000100">
	<g>
		<g transform="translate(284.221,48.148)">
			<g transform="rotate(-0.0)">
				<text transform="matrix(1 0 0 1 -151.0706 27.7415)" class="st7 st1 st2">U</text>
			</g>
		</g>
	</g>
</g>
<g id="ID000101">
	<g>
		<g transform="translate(295.864,42.327)">
			<g transform="rotate(-0.0)">
				<text transform="matrix(1 0 0 1 -151.3181 28.0239)" class="st7 st1 st2">A</text>
			</g>
		</g>
	</g>
</g>
<g id="ID000102">
	<g>
		<g transform="translate(310.418,48.148)">
			<g transform="rotate(-0.0)">
				<text transform="matrix(1 0 0 1 -152.023 27.7415)" class="st7 st1 st2">A</text>
			</g>
		</g>
	</g>
</g>
<g id="ID000103">
	<g>
		<line class="st7" x1="169.7" y1="71" x2="177" y2="71"/>
	</g>
</g>
<g id="ID000104">
	<g transform="translate(325.943,48.148)">
		<g transform="rotate(-0.0)">
			<text transform="matrix(1 0 0 1 -148.9645 27.7415)" class="st1 st2">30</text>
		</g>
	</g>
</g>
<g id="ID000105">
	<g>
		<g transform="translate(319.151,59.791)">
			<g transform="rotate(-0.0)">
				<text transform="matrix(1 0 0 1 -152.7604 27.1771)" class="st7 st1 st2">C</text>
			</g>
		</g>
	</g>
</g>
<g id="ID000106">
	<g>
		<g transform="translate(322.062,71.435)">
			<g transform="rotate(-0.0)">
				<text transform="matrix(1 0 0 1 -152.585 26.6147)" class="st7 st1 st2">A</text>
			</g>
		</g>
	</g>
</g>
<g id="ID000107">
	<g transform="translate(310.418,83.078)">
		<g transform="rotate(-0.0)">
			<text transform="matrix(1 0 0 1 -152.6558 26.0513)" class="st7 st1 st2">G</text>
		</g>
	</g>
</g>
<g id="ID000108">
	<g transform="translate(310.418,94.721)">
		<g transform="rotate(-0.0)">
			<text transform="matrix(1 0 0 1 -152.023 25.4878)" class="st7 st1 st2">A</text>
		</g>
	</g>
</g>
<g id="ID000109">
	<g transform="translate(310.418,106.364)">
		<g transform="rotate(-0.0)">
			<text transform="matrix(1 0 0 1 -152.023 24.9244)" class="st7 st1 st2">A</text>
		</g>
	</g>
</g>
<g id="ID000110">
	<g transform="translate(324.972,112.186)">
		<g transform="rotate(-0.0)">
			<text transform="matrix(1 0 0 1 -152.7269 24.6435)" class="st4 st1 st2">A</text>
		</g>
	</g>
</g>
<g id="ID000111">
	<g transform="translate(336.615,115.096)">
		<g transform="rotate(-0.0)">
			<text transform="matrix(1 0 0 1 -153.2898 24.502)" class="st4 st1 st2">A</text>
		</g>
	</g>
</g>
<g id="ID000112">
	<g transform="translate(345.348,126.739)">
		<g transform="rotate(-0.0)">
			<text transform="matrix(1 0 0 1 -154.0272 23.9381)" class="st4 st1 st2">C</text>
		</g>
	</g>
</g>
<g id="ID000113">
	<line class="st6" x1="144.5" y1="126.3" x2="157.7" y2="126.3"/>
</g>
<g id="ID000114">
	<line class="st6" x1="144.5" y1="115.3" x2="157.7" y2="115.3"/>
</g>
<g id="ID000115">
	<line class="st6" x1="144.5" y1="104.2" x2="157.7" y2="104.2"/>
</g>
<text transform="matrix(1 0 0 1 146.4763 38.3704)" class="st1 st8">F47 aptamer</text>
<g id="CQH4oi.tif">
</g>
<text transform="matrix(1 0 0 1 122.8831 383.1277)" class="st1 st9">5’</text>
<text transform="matrix(1 0 0 1 360.8705 386.0067)" class="st1 st9">3’</text>
</svg>
