<?xml version="1.0" encoding="utf-8"?>
<!-- Generator: Adobe Illustrator 27.0.0, SVG Export Plug-In . SVG Version: 6.00 Build 0)  -->
<svg version="1.1" id="图层_1" xmlns="http://www.w3.org/2000/svg" xmlns:xlink="http://www.w3.org/1999/xlink" x="0px" y="0px"
	 viewBox="0 0 800 400" style="enable-background:new 0 0 800 400;" xml:space="preserve">
<style type="text/css">
	.st0{fill:#8527B5;}
	.st1{fill:#B83332;}
	.st2{font-family:'ArialMT';}
	.st3{font-size:29.6055px;}
	.st4{letter-spacing:-1;}
	.st5{fill:none;stroke:#000000;stroke-miterlimit:3.05;}
	.st6{fill:#FFFFFF;stroke:#000000;stroke-miterlimit:3.05;}
	.st7{fill:#084595;}
	.st8{fill:#F17D07;}
	.st9{fill:none;stroke:#000000;stroke-width:0.38;stroke-miterlimit:3.05;}
	.st10{font-size:21.9654px;}
	.st11{stroke:#000000;stroke-miterlimit:3.05;}
	.st12{fill:#18988C;}
	.st13{fill:none;stroke:#000000;stroke-width:0.75;stroke-miterlimit:3.05;}
	.st14{fill:#FFFFFF;}
	.st15{font-size:14.7742px;}
	.st16{font-size:20px;}
</style>
<rect x="370.3" y="281.5" class="st0" width="68.2" height="20.2"/>
<g id="ID000002">
	<text transform="matrix(1 0 0 1 176.041 274.1826)" class="st1 st2 st3">G</text>
</g>
<g id="ID000003">
	<text transform="matrix(1 0 0 1 200.9185 274.1826)" class="st1 st2 st3">G</text>
</g>
<g id="ID000004">
	<text transform="matrix(1 0 0 1 227.2007 274.1826)" class="st1 st2 st3 st4">A</text>
</g>
<g id="ID000005">
	<text transform="matrix(1 0 0 1 251.3823 274.1826)" class="st1 st2 st3">C</text>
</g>
<g id="ID000006">
	<text transform="matrix(1 0 0 1 275.5532 274.1826)" class="st1 st2 st3">G</text>
</g>
<g id="ID000007">
	<text transform="matrix(1 0 0 1 298.6265 323.3379)" class="st1 st2 st3 st4">A</text>
</g>
<g id="ID000008">
	<text transform="matrix(1 0 0 1 276.2603 323.9395)" class="st1 st2 st3">C</text>
</g>
<g id="ID000009">
	<text transform="matrix(1 0 0 1 250.6753 323.9395)" class="st1 st2 st3">G</text>
</g>
<g id="ID000010">
	<text transform="matrix(1 0 0 1 226.5039 323.9395)" class="st1 st2 st3">U</text>
</g>
<g id="ID000011">
	<text transform="matrix(1 0 0 1 201.6255 323.9395)" class="st1 st2 st3">C</text>
</g>
<g id="ID000012">
	<text transform="matrix(1 0 0 1 176.7476 323.9395)" class="st1 st2 st3">C</text>
</g>
<g id="ID000013">
	<line class="st5" x1="187.8" y1="273" x2="187.8" y2="302.8"/>
</g>
<g id="ID000014">
	<line class="st5" x1="212.7" y1="273" x2="212.7" y2="302.8"/>
</g>
<g id="ID000015">
	<line class="st5" x1="237.6" y1="273" x2="237.6" y2="302.8"/>
</g>
<g id="ID000016">
	<line class="st5" x1="262.4" y1="273" x2="262.4" y2="302.8"/>
</g>
<g id="ID000017">
	<line class="st5" x1="287.4" y1="273" x2="287.4" y2="302.8"/>
</g>
<g id="ID000018">
	<line class="st5" x1="346.9" y1="271.9" x2="331" y2="303.8"/>
</g>
<g id="ID000019">
	<polygon class="st6" points="341.6,282 336.9,285 342,287.6 	"/>
</g>
<g id="ID000020">
	<polygon class="st6" points="336,294 336.1,294 336.3,294.1 336.3,294.2 336.5,294.2 336.6,294.2 336.8,294.2 337,294.3 
		337.1,294.3 337.3,294.2 337.5,294.2 337.6,294.2 337.8,294.1 337.9,294.1 338.1,294 338.3,293.9 338.4,293.9 338.5,293.8 
		338.6,293.7 338.7,293.6 338.8,293.4 338.9,293.3 339,293.2 339.1,293.1 339.2,292.9 339.3,292.8 339.3,292.7 339.4,292.6 
		339.4,292.4 339.5,292.3 339.5,292.1 339.5,291.9 339.5,291.8 339.5,291.6 339.5,291.4 339.5,291.3 339.4,291.1 339.4,290.9 
		339.3,290.8 339.3,290.6 339.2,290.6 339.1,290.5 339,290.3 338.9,290.2 338.8,290.1 338.7,289.9 338.6,289.8 338.5,289.7 
		338.4,289.6 338.3,289.6 338.1,289.5 338,289.4 337.8,289.4 337.6,289.3 337.5,289.3 337.3,289.3 337.2,289.2 337,289.2 
		336.8,289.2 336.7,289.3 336.5,289.3 336.3,289.3 336.3,289.4 336.1,289.4 336,289.5 335.8,289.6 335.7,289.7 335.5,289.8 
		335.4,289.9 335.3,290 335.2,290.1 335.1,290.2 335,290.4 334.9,290.5 334.8,290.6 334.7,290.7 334.7,290.9 334.6,291 334.6,291.2 
		334.5,291.3 334.5,291.5 334.5,291.7 334.5,291.8 334.5,292 334.5,292.1 334.6,292.3 334.6,292.5 334.7,292.6 334.7,292.7 
		334.8,292.8 334.9,293 335,293.1 335.1,293.3 335.2,293.4 335.3,293.5 335.4,293.6 335.5,293.7 335.7,293.8 335.8,293.9 	"/>
</g>
<g id="ID000022">
	<text transform="matrix(1 0 0 1 318.0708 274.1826)" class="st1 st2 st3 st4">A</text>
</g>
<g id="ID000023">
	<text transform="matrix(1 0 0 1 342.2427 274.1826)" class="st1 st2 st3">C</text>
</g>
<g id="ID000024">
	<text transform="matrix(1 0 0 1 360.9033 255.5312)" class="st7 st2 st3">U</text>
</g>
<g id="ID000025">
	<text transform="matrix(1 0 0 1 447.2656 330.1562)" class="st8 st2 st3">G</text>
</g>
<g id="ID000026">
	<line class="st9" x1="459.1" y1="331.7" x2="459.1" y2="348.3"/>
</g>
<g id="ID000027">
	<text transform="matrix(1 0 0 1 446.8359 362.3877)" class="st2 st10">40</text>
</g>
<g id="ID000028">
	<text transform="matrix(1 0 0 1 341.5352 323.9395)" class="st1 st2 st3">G</text>
</g>
<g id="ID000029">
	<text transform="matrix(1 0 0 1 318.0229 323.7959)" class="st1 st2 st3">U</text>
</g>
<g id="ID000030">
	<line class="st5" x1="328.4" y1="273" x2="328.4" y2="302.8"/>
</g>
<g id="ID000031">
	<line class="st5" x1="353.3" y1="273" x2="353.3" y2="302.8"/>
</g>
<g id="ID000032">
	<line class="st5" x1="381.9" y1="244.3" x2="411.8" y2="244.3"/>
</g>
<g id="ID000033">
	<polygon class="st11" points="399.4,244.3 399.4,244.1 399.3,244 399.3,243.9 399.3,243.8 399.2,243.6 399.2,243.4 399.1,243.3 
		399,243.1 399,243 398.9,242.9 398.7,242.7 398.6,242.6 398.5,242.5 398.4,242.4 398.3,242.3 398.1,242.2 398,242.1 397.9,242 
		397.8,242 397.6,241.9 397.5,241.9 397.3,241.8 397.1,241.8 397,241.8 396.8,241.8 396.6,241.8 396.5,241.8 396.3,241.9 
		396.2,241.9 396,242 395.8,242 395.8,242.1 395.7,242.2 395.5,242.2 395.4,242.3 395.2,242.4 395.1,242.6 395,242.7 394.9,242.8 
		394.8,242.9 394.7,243.1 394.6,243.2 394.6,243.4 394.5,243.5 394.5,243.7 394.4,243.8 394.4,243.9 394.4,244.1 394.4,244.2 
		394.4,244.4 394.4,244.6 394.4,244.7 394.4,244.9 394.5,245 394.5,245.2 394.6,245.3 394.6,245.5 394.7,245.6 394.8,245.8 
		394.9,245.9 395,246 395.1,246.1 395.2,246.2 395.4,246.3 395.5,246.4 395.7,246.5 395.8,246.5 395.8,246.6 396,246.7 396.2,246.7 
		396.3,246.8 396.5,246.8 396.6,246.8 396.8,246.8 397,246.8 397.1,246.8 397.3,246.8 397.5,246.7 397.6,246.7 397.8,246.6 
		397.9,246.6 398,246.5 398.1,246.4 398.3,246.3 398.4,246.2 398.5,246.1 398.6,246 398.7,246 398.9,245.9 399,245.7 399,245.6 
		399.1,245.4 399.2,245.3 399.2,245.1 399.3,245 399.3,244.8 399.3,244.6 399.4,244.5 	"/>
</g>
<g id="ID000034">
	<line class="st5" x1="459.1" y1="279.2" x2="459.1" y2="309"/>
</g>
<g id="ID000035">
	<polygon class="st11" points="459.1,296.6 459.2,296.6 459.4,296.6 459.5,296.6 459.6,296.5 459.8,296.5 460,296.4 460.1,296.4 
		460.2,296.3 460.4,296.2 460.5,296.1 460.6,296 460.8,295.9 460.9,295.8 461,295.7 461.1,295.5 461.2,295.4 461.3,295.2 
		461.4,295.1 461.4,294.9 461.5,294.8 461.5,294.7 461.5,294.6 461.6,294.4 461.6,294.2 461.6,294.1 461.6,293.9 461.6,293.7 
		461.5,293.6 461.5,293.4 461.4,293.3 461.4,293.1 461.3,292.9 461.2,292.8 461.1,292.7 461.1,292.6 461,292.5 460.8,292.4 
		460.7,292.3 460.6,292.2 460.5,292.1 460.3,292 460.2,291.9 460,291.8 459.9,291.8 459.7,291.7 459.6,291.7 459.5,291.6 
		459.3,291.6 459.2,291.6 459,291.6 458.8,291.6 458.7,291.6 458.5,291.7 458.3,291.7 458.2,291.8 458,291.8 457.9,291.9 457.7,292 
		457.6,292.1 457.5,292.2 457.3,292.3 457.3,292.4 457.2,292.5 457.1,292.6 457,292.7 456.9,292.8 456.8,292.9 456.8,293.1 
		456.7,293.3 456.7,293.4 456.6,293.6 456.6,293.7 456.6,293.9 456.6,294.1 456.6,294.2 456.6,294.4 456.6,294.6 456.7,294.7 
		456.7,294.8 456.8,294.9 456.8,295.1 456.9,295.2 457,295.4 457.1,295.5 457.2,295.7 457.3,295.8 457.3,295.9 457.4,296 
		457.5,296.1 457.7,296.2 457.8,296.3 458,296.4 458.1,296.4 458.3,296.5 458.4,296.5 458.6,296.6 458.7,296.6 458.9,296.6 	"/>
</g>
<g id="ID000037">
	<text transform="matrix(1 0 0 1 360.1968 230.6523)" class="st7 st2 st3">G</text>
</g>
<g id="ID000038">
	<text transform="matrix(1 0 0 1 361.6006 205.7744)" class="st7 st2 st3 st4">A</text>
</g>
<g id="ID000039">
	<line class="st9" x1="364" y1="194.6" x2="347.4" y2="194.6"/>
</g>
<g id="ID000040">
	<text transform="matrix(1 0 0 1 322.0249 201.9541)" class="st2 st10">10</text>
</g>
<g id="ID000041">
	<text transform="matrix(1 0 0 1 361.6006 180.9062)" class="st7 st2 st3 st4">A</text>
</g>
<g id="ID000042">
	<text transform="matrix(1 0 0 1 360.9033 156.0283)" class="st7 st2 st3">C</text>
</g>
<g id="ID000043">
	<text transform="matrix(1 0 0 1 360.9033 131.1499)" class="st7 st2 st3">C</text>
</g>
<g id="ID000044">
	<text transform="matrix(1 0 0 1 360.1968 106.272)" class="st7 st2 st3">G</text>
</g>
<g id="ID000045">
	<text transform="matrix(1 0 0 1 374.0444 81.3936)" class="st7 st2 st3 st4">A</text>
</g>
<g id="ID000046">
	<text transform="matrix(1 0 0 1 398.9136 81.3936)" class="st7 st2 st3 st4">A</text>
</g>
<g id="ID000047">
	<text transform="matrix(1 0 0 1 411.3574 106.272)" class="st7 st2 st3 st4">A</text>
</g>
<g id="ID000048">
	<text transform="matrix(1 0 0 1 409.9434 131.1499)" class="st7 st2 st3">G</text>
</g>
<g id="ID000049">
	<text transform="matrix(1 0 0 1 409.9434 156.0283)" class="st7 st2 st3">G</text>
</g>
<g id="ID000050">
	<text transform="matrix(1 0 0 1 410.6494 180.9062)" class="st7 st2 st3">U</text>
</g>
<g id="ID000051">
	<line class="st9" x1="430.7" y1="169.7" x2="447.2" y2="169.7"/>
</g>
<g id="ID000052">
	<text transform="matrix(1 0 0 1 445.3555 177.0864)" class="st2 st10">20</text>
</g>
<g id="ID000053">
	<text transform="matrix(1 0 0 1 410.6494 205.7744)" class="st7 st2 st3">U</text>
</g>
<g id="ID000054">
	<text transform="matrix(1 0 0 1 410.6494 230.6523)" class="st7 st2 st3">C</text>
</g>
<g id="ID000055">
	<text transform="matrix(1 0 0 1 410.6494 255.5312)" class="st7 st2 st3">U</text>
</g>
<g id="ID000056">
	<text transform="matrix(1 0 0 1 423.0938 280.4092)" class="st7 st2 st3">U</text>
</g>
<g id="ID000057">
	<line class="st5" x1="381.9" y1="219.5" x2="411.8" y2="219.5"/>
</g>
<g id="ID000058">
	<line class="st5" x1="381.9" y1="194.6" x2="411.8" y2="194.6"/>
</g>
<g id="ID000059">
	<line class="st5" x1="381.9" y1="169.7" x2="411.8" y2="169.7"/>
</g>
<g id="ID000060">
	<line class="st5" x1="381.9" y1="144.8" x2="411.8" y2="144.8"/>
</g>
<g id="ID000061">
	<line class="st5" x1="381.9" y1="120" x2="411.8" y2="120"/>
</g>
<g id="ID000062">
	<line class="st5" x1="381.9" y1="95.1" x2="411.8" y2="95.1"/>
</g>
<g id="ID000063">
	<polygon class="st6" points="389.2,95.1 394,97.8 394,92.3 	"/>
</g>
<g id="ID000064">
	<polygon class="st6" points="402.9,92.6 397.9,92.6 397.9,97.5 402.9,97.5 	"/>
</g>
<g id="ID000066">
	<text transform="matrix(1 0 0 1 447.2656 280.4092)" class="st8 st2 st3">G</text>
</g>
<g id="ID000067">
	<text transform="matrix(1 0 0 1 472.1338 280.4092)" class="st12 st2 st3">G</text>
</g>
<g id="ID000068">
	<text transform="matrix(1 0 0 1 497.7188 280.4092)" class="st12 st2 st3">C</text>
</g>
<g id="ID000069">
	<text transform="matrix(1 0 0 1 522.5977 280.4092)" class="st12 st2 st3">U</text>
</g>
<g id="ID000070">
	<text transform="matrix(1 0 0 1 546.7686 280.4092)" class="st12 st2 st3">G</text>
</g>
<g id="ID000071">
	<text transform="matrix(1 0 0 1 572.3535 280.4092)" class="st12 st2 st3">C</text>
</g>
<g id="ID000072">
	<line class="st9" x1="583.4" y1="257.4" x2="583.4" y2="240.8"/>
</g>
<g id="ID000073">
	<text transform="matrix(1 0 0 1 571.2168 240.3271)" class="st2 st10">30</text>
</g>
<g id="ID000074">
	<text transform="matrix(1 0 0 1 597.2227 280.4092)" class="st12 st2 st3">U</text>
</g>
<g id="ID000075">
	<text transform="matrix(1 0 0 1 622.1006 292.8438)" class="st12 st2 st3">U</text>
</g>
<g id="ID000076">
	<text transform="matrix(1 0 0 1 622.1006 323.9395)" class="st12 st2 st3">C</text>
</g>
<g id="ID000077">
	<text transform="matrix(1 0 0 1 596.5156 330.1562)" class="st12 st2 st3">G</text>
</g>
<g id="ID000078">
	<text transform="matrix(1 0 0 1 571.6377 330.1562)" class="st12 st2 st3">G</text>
</g>
<g id="ID000079">
	<text transform="matrix(1 0 0 1 547.4756 330.1562)" class="st12 st2 st3">C</text>
</g>
<g id="ID000080">
	<text transform="matrix(1 0 0 1 523.2939 330.1562)" class="st12 st2 st3 st4">A</text>
</g>
<g id="ID000081">
	<text transform="matrix(1 0 0 1 497.0127 330.1562)" class="st12 st2 st3">G</text>
</g>
<g id="ID000082">
	<text transform="matrix(1 0 0 1 473.5469 330.1562)" class="st12 st2 st3 st4">A</text>
</g>
<g id="ID000083">
	<line class="st5" x1="483.9" y1="279.2" x2="483.9" y2="309"/>
</g>
<g id="ID000084">
	<polygon class="st11" points="483.9,296.6 484.1,296.6 484.3,296.6 484.4,296.6 484.6,296.5 484.7,296.5 484.9,296.4 484.9,296.4 
		485.1,296.3 485.2,296.2 485.4,296.1 485.5,296 485.6,295.9 485.7,295.8 485.9,295.7 485.9,295.5 486,295.4 486.1,295.2 
		486.2,295.1 486.3,294.9 486.3,294.8 486.4,294.7 486.4,294.6 486.4,294.4 486.4,294.2 486.4,294.1 486.4,293.9 486.4,293.7 
		486.4,293.6 486.3,293.4 486.3,293.3 486.2,293.1 486.2,292.9 486.1,292.8 486,292.7 485.9,292.6 485.8,292.5 485.7,292.4 
		485.6,292.3 485.4,292.2 485.3,292.1 485.2,292 485,291.9 484.9,291.8 484.8,291.8 484.7,291.7 484.5,291.7 484.3,291.6 
		484.2,291.6 484,291.6 483.9,291.6 483.7,291.6 483.5,291.6 483.4,291.7 483.2,291.7 483,291.8 482.9,291.8 482.8,291.9 482.7,292 
		482.6,292.1 482.4,292.2 482.3,292.3 482.2,292.4 482.1,292.5 482,292.6 481.9,292.7 481.8,292.8 481.7,292.9 481.6,293.1 
		481.6,293.3 481.5,293.4 481.5,293.6 481.5,293.7 481.4,293.9 481.4,294.1 481.4,294.2 481.4,294.4 481.5,294.6 481.5,294.7 
		481.5,294.8 481.6,294.9 481.7,295.1 481.7,295.2 481.8,295.4 481.9,295.5 482,295.7 482.1,295.8 482.2,295.9 482.4,296 
		482.5,296.1 482.6,296.2 482.8,296.3 482.8,296.4 483,296.4 483.1,296.5 483.3,296.5 483.4,296.6 483.6,296.6 483.8,296.6 	"/>
</g>
<g id="ID000085">
	<line class="st5" x1="508.8" y1="279.2" x2="508.8" y2="309"/>
</g>
<g id="ID000086">
	<line class="st5" x1="533.7" y1="279.2" x2="533.7" y2="309"/>
</g>
<g id="ID000087">
	<line class="st5" x1="558.6" y1="279.2" x2="558.6" y2="309"/>
</g>
<g id="ID000088">
	<line class="st5" x1="583.4" y1="279.2" x2="583.4" y2="309"/>
</g>
<g id="ID000089">
	<line class="st5" x1="608.3" y1="279.2" x2="608.3" y2="309"/>
</g>
<g id="ID000090">
	<polygon class="st6" points="608.3,289.2 605.5,294.1 611.1,294.1 	"/>
</g>
<g id="ID000091">
	<polygon class="st6" points="608.3,302.1 608.4,302.1 608.6,302.1 608.8,302 608.9,302 609.1,301.9 609.2,301.9 609.4,301.8 
		609.5,301.8 609.7,301.7 609.8,301.6 609.9,301.5 610.1,301.4 610.2,301.2 610.2,301.2 610.3,301.1 610.4,301 610.5,300.8 
		610.5,300.7 610.6,300.5 610.7,300.4 610.7,300.2 610.7,300 610.8,299.9 610.8,299.7 610.8,299.5 610.8,299.4 610.7,299.2 
		610.7,299.1 610.7,299 610.6,298.8 610.6,298.7 610.5,298.5 610.4,298.4 610.3,298.2 610.2,298.1 610.2,298 610.1,297.8 610,297.7 
		609.9,297.6 609.7,297.5 609.6,297.4 609.5,297.4 609.3,297.3 609.2,297.2 609,297.2 608.8,297.1 608.7,297.1 608.5,297.1 
		608.4,297.1 608.2,297.1 608.1,297.1 608,297.1 607.8,297.1 607.6,297.2 607.5,297.2 607.3,297.3 607.2,297.4 607,297.4 
		606.9,297.5 606.8,297.6 606.6,297.7 606.5,297.8 606.4,298 606.3,298.1 606.2,298.2 606.1,298.4 606,298.5 606,298.7 606,298.8 
		606,299 605.9,299.1 605.9,299.2 605.9,299.4 605.9,299.5 605.9,299.7 605.9,299.9 605.9,300 605.9,300.2 606,300.4 606,300.5 
		606,300.7 606.1,300.8 606.2,301 606.2,301.1 606.4,301.2 606.5,301.2 606.6,301.4 606.7,301.5 606.8,301.6 607,301.7 607.1,301.8 
		607.2,301.8 607.4,301.9 607.5,301.9 607.7,302 607.9,302 608,302.1 608.1,302.1 	"/>
</g>
<g id="ID000093">
	<line class="st13" x1="447.2" y1="318.2" x2="363.7" y2="313.4"/>
</g>
<g id="ID000094">
	<polygon class="st11" points="409.2,320.1 407.2,318.1 405.2,317.4 403.2,316.9 399.1,315.8 403.3,315 405.4,314.9 407.5,314.3 
		409.7,312.6 	"/>
</g>
<g id="ID000093-2">
	<line class="st13" x1="296.3" y1="262.8" x2="321.5" y2="263.2"/>
</g>
<g id="ID000094-2">
	<polygon class="st11" points="305.7,259.2 307.6,261.2 309.6,261.9 311.7,262.4 315.8,263.5 311.6,264.2 309.5,264.4 307.4,265 
		305.2,266.7 	"/>
</g>
<text transform="matrix(1 0 0 1 179.3071 245.293)" class="st2 st10">5</text>
<text transform="matrix(1 0 0 1 191.5215 245.293)" class="st2 st10">’</text>
<text transform="matrix(1 0 0 1 179.3071 346.5928)" class="st2 st10">3</text>
<text transform="matrix(1 0 0 1 191.5215 346.5928)" class="st2 st10">’</text>
<text transform="matrix(1 0 0 1 372.671 297.6671)" class="st14 st2 st15">5-</text>
<text transform="matrix(1 0 0 1 385.8082 297.6671)" class="st14 st2 st15">T</text>
<text transform="matrix(1 0 0 1 393.734 297.6671)" class="st14 st2 st15">AMR</text>
<text transform="matrix(1 0 0 1 426.566 297.6671)" class="st14 st2 st15">A</text>
<text transform="matrix(1 0 0 1 322.51 27.94)" class="st2 st16">TMR3</text>
<text transform="matrix(1 0 0 1 382.24 27.94)" class="st2 st16">aptamer</text>
</svg>
