<svg id="_图层_1" data-name=" 图层 1" xmlns="http://www.w3.org/2000/svg" viewBox="0 0 800 400"><defs><style>.cls-1,.cls-10,.cls-11,.cls-12,.cls-13,.cls-14,.cls-16,.cls-17,.cls-18,.cls-19,.cls-2,.cls-21,.cls-23,.cls-3,.cls-5,.cls-6,.cls-8,.cls-9{isolation:isolate;}.cls-10,.cls-11,.cls-12,.cls-13,.cls-14,.cls-2,.cls-3,.cls-5,.cls-6,.cls-8,.cls-9{font-size:11.4px;}.cls-2,.cls-3{fill:#b83233;}.cls-10,.cls-11,.cls-12,.cls-13,.cls-14,.cls-16,.cls-17,.cls-18,.cls-19,.cls-2,.cls-21,.cls-23,.cls-3,.cls-5,.cls-6,.cls-8,.cls-9{font-family:ArialMT, Arial;}.cls-11,.cls-12,.cls-14,.cls-3,.cls-9{letter-spacing:-0.11em;}.cls-15,.cls-4{fill:none;}.cls-15,.cls-4,.cls-7{stroke:#000;stroke-miterlimit:10;}.cls-11,.cls-6{fill:#2ea103;}.cls-21,.cls-23,.cls-7{fill:#fff;}.cls-8,.cls-9{fill:#084595;}.cls-10,.cls-12{fill:#f17d07;}.cls-13,.cls-14{fill:#c2b617;}.cls-15{stroke-width:0.4px;}.cls-16,.cls-17{font-size:20px;}.cls-17{letter-spacing:-0.11em;}.cls-18,.cls-19{font-size:12px;}.cls-19{letter-spacing:-0.08em;}.cls-20{fill:#8527b5;}.cls-21,.cls-23{font-size:15.1px;}.cls-22{letter-spacing:-0.02em;}.cls-23{letter-spacing:-0.04em;}</style></defs><g id="ID000002"><g class="cls-1"><text class="cls-2" transform="translate(371.9 386.1)">G</text></g></g><g id="ID000003"><g class="cls-1"><text class="cls-2" transform="translate(371.9 374.6)">G</text></g></g><g id="ID000004"><g class="cls-1"><text class="cls-3" transform="translate(372.6 363.1)">A</text></g></g><g id="ID000005"><g class="cls-1"><text class="cls-2" transform="translate(372.2 351.7)">C</text></g></g><g id="ID000006"><g class="cls-1"><text class="cls-3" transform="translate(372.6 340.2)">A</text></g></g><g id="ID000007"><g class="cls-1"><text class="cls-2" transform="translate(372.2 328.7)">C</text></g></g><g id="ID000008"><g class="cls-1"><text class="cls-2" transform="translate(372.2 317.2)">U</text></g></g><g id="ID000009"><g class="cls-1"><text class="cls-2" transform="translate(371.9 305.8)">G</text></g></g><g id="ID000010"><line class="cls-4" x1="379.5" y1="279" x2="386.2" y2="282.7"/></g><g id="ID000011"><g class="cls-1"><text class="cls-5" transform="translate(454.4 166.5)">20</text></g></g><g id="ID000012"><g class="cls-1"><text class="cls-3" transform="translate(372.6 294.3)">A</text></g></g><g id="ID000013"><g class="cls-1"><text class="cls-6" transform="translate(372.2 281.2)">U</text></g></g><g id="ID000014"><g class="cls-1"><text class="cls-2" transform="translate(349.2 295.5)">C</text></g></g><g id="ID000015"><g class="cls-1"><text class="cls-3" transform="translate(349.5 307)">A</text></g></g><g id="ID000016"><g class="cls-1"><text class="cls-2" transform="translate(349.2 318.5)">C</text></g></g><g id="ID000017"><g class="cls-1"><text class="cls-2" transform="translate(348.9 329.9)">G</text></g></g><g id="ID000018"><g class="cls-1"><text class="cls-2" transform="translate(349.2 341.4)">U</text></g></g><g id="ID000019"><g class="cls-1"><text class="cls-2" transform="translate(348.9 352.9)">G</text></g></g><g id="ID000020"><line class="cls-4" x1="349.3" y1="372" x2="341.7" y2="372"/></g><g id="ID000022"><g class="cls-1"><text class="cls-2" transform="translate(349.2 364.4)">U</text></g></g><g id="ID000023"><g class="cls-1"><text class="cls-2" transform="translate(349.2 375.8)">C</text></g></g><g id="ID000024"><g class="cls-1"><text class="cls-2" transform="translate(349.2 387.3)">C</text></g></g><g id="ID000025"><line class="cls-4" x1="372.2" y1="382.7" x2="357.1" y2="382.7"/></g><g id="ID000026"><line class="cls-4" x1="371.7" y1="370.7" x2="357.9" y2="370.7"/></g><g id="ID000027"><line class="cls-4" x1="371.7" y1="359.2" x2="357.9" y2="359.2"/></g><g id="ID000028"><line class="cls-4" x1="371.7" y1="347.7" x2="357.9" y2="347.7"/></g><g id="ID000029"><line class="cls-4" x1="371.7" y1="336.2" x2="357.9" y2="336.2"/></g><g id="ID000030"><line class="cls-4" x1="371.7" y1="324.8" x2="357.9" y2="324.8"/></g><g id="ID000031"><line class="cls-4" x1="371.7" y1="313.3" x2="357.9" y2="313.3"/></g><g id="ID000032"><polygon class="cls-7" points="370.1 313.3 370.1 313.2 370.1 313 370 312.9 370 312.7 370 312.6 369.9 312.4 369.9 312.3 369.8 312.2 369.7 312.1 369.6 311.9 369.5 311.8 369.4 311.7 369.3 311.6 369.2 311.5 369.1 311.4 369 311.4 368.9 311.3 368.7 311.2 368.6 311.2 368.5 311.1 368.3 311.1 368.2 311 368 311 367.9 311 367.8 311 367.6 311 367.5 311 367.3 311.1 367.2 311.1 367 311.1 366.9 311.2 366.8 311.2 366.6 311.3 366.5 311.4 366.4 311.5 366.3 311.6 366.2 311.7 366.1 311.8 366 311.9 365.9 312 365.8 312.1 365.8 312.2 365.7 312.4 365.6 312.5 365.6 312.7 365.6 312.8 365.5 312.9 365.5 313.1 365.5 313.2 365.5 313.4 365.5 313.5 365.5 313.7 365.6 313.8 365.6 314 365.6 314.1 365.7 314.2 365.8 314.4 365.8 314.5 365.9 314.6 366 314.7 366.1 314.8 366.2 314.9 366.3 315 366.4 315.1 366.5 315.2 366.6 315.3 366.8 315.4 366.9 315.4 367 315.5 367.2 315.5 367.3 315.6 367.5 315.6 367.6 315.6 367.8 315.6 367.9 315.6 368 315.6 368.2 315.6 368.3 315.5 368.5 315.5 368.6 315.4 368.7 315.4 368.9 315.3 369 315.3 369.1 315.2 369.2 315.1 369.3 315 369.4 314.9 369.5 314.8 369.6 314.7 369.7 314.5 369.8 314.4 369.9 314.3 369.9 314.2 370 314 370 313.9 370 313.7 370.1 313.6 370.1 313.5 370.1 313.3"/></g><g id="ID000033"><polygon class="cls-7" points="359.5 315.6 364.1 315.6 364.1 311 359.5 311 359.5 315.6"/></g><g id="ID000034"><line class="cls-4" x1="371.7" y1="301.8" x2="357.9" y2="301.8"/></g><g id="ID000035"><polygon class="cls-7" points="370.8 301.8 366.3 299.2 366.3 304.4 370.8 301.8"/></g><g id="ID000036"><polygon class="cls-7" points="359.5 304.1 364.1 304.1 364.1 299.5 359.5 299.5 359.5 304.1"/></g><g id="ID000037"><polyline class="cls-4" points="376.3 285.8 376.3 284.6 361.9 284.6 361.9 195.7 371.7 195.7"/></g><g id="ID000038"><polygon class="cls-7" points="364.2 245.4 364.2 240.9 359.6 240.9 359.6 245.4 364.2 245.4"/></g><g id="ID000039"><polygon class="cls-7" points="361.9 234.9 361.8 234.9 361.6 234.9 361.5 234.9 361.4 235 361.2 235 361.1 235.1 361 235.1 360.8 235.2 360.7 235.3 360.6 235.3 360.5 235.4 360.4 235.5 360.3 235.6 360.2 235.7 360.1 235.9 360 236 359.9 236.1 359.9 236.2 359.8 236.4 359.7 236.5 359.7 236.7 359.7 236.8 359.7 236.9 359.6 237.1 359.6 237.2 359.7 237.4 359.7 237.5 359.7 237.7 359.7 237.8 359.8 237.9 359.8 238.1 359.9 238.2 360 238.3 360 238.5 360.1 238.6 360.2 238.7 360.3 238.8 360.4 238.9 360.5 239 360.6 239.1 360.8 239.2 360.9 239.2 361 239.3 361.2 239.4 361.3 239.4 361.4 239.4 361.6 239.5 361.7 239.5 361.9 239.5 362 239.5 362.2 239.5 362.3 239.5 362.4 239.4 362.6 239.4 362.7 239.4 362.9 239.3 363 239.2 363.1 239.2 363.2 239.1 363.4 239 363.5 238.9 363.6 238.8 363.7 238.7 363.8 238.6 363.9 238.5 363.9 238.3 364 238.2 364.1 238.1 364.1 237.9 364.2 237.8 364.2 237.7 364.2 237.5 364.2 237.4 364.2 237.2 364.2 237.1 364.2 236.9 364.2 236.8 364.2 236.7 364.1 236.5 364.1 236.4 364 236.2 364 236.1 363.9 236 363.8 235.9 363.7 235.7 363.6 235.6 363.5 235.5 363.4 235.4 363.3 235.3 363.2 235.3 363.1 235.2 362.9 235.1 362.8 235.1 362.6 235 362.5 235 362.4 234.9 362.2 234.9 362.1 234.9 361.9 234.9"/></g><g id="ID000040"><line class="cls-4" x1="380.9" y1="276" x2="434.8" y2="276"/></g><g id="ID000041"><polygon points="404 272.6 405.9 274.3 407.8 274.9 409.7 275.2 413.6 276 409.7 276.9 407.8 277.2 405.9 277.7 404 279.5 404 272.6"/></g><g id="ID000042"><polyline class="cls-4" points="375.3 271.5 356.2 187.1 356.2 187.1 355.4 185.5"/></g><g id="ID000043"><polygon class="cls-7" points="365.2 227.1 365.1 227.1 365 227.2 364.8 227.2 364.7 227.3 364.6 227.4 364.4 227.4 364.3 227.5 364.2 227.6 364.1 227.7 364 227.8 363.9 227.9 363.8 228.1 363.8 228.2 363.7 228.3 363.6 228.5 363.6 228.6 363.5 228.7 363.5 228.9 363.5 229 363.5 229.2 363.4 229.3 363.4 229.4 363.5 229.6 363.5 229.7 363.5 229.9 363.5 230 363.6 230.2 363.7 230.3 363.7 230.4 363.8 230.5 363.9 230.7 364 230.8 364.1 230.9 364.2 231 364.3 231.1 364.4 231.2 364.5 231.3 364.6 231.3 364.8 231.4 364.9 231.5 365 231.5 365.2 231.6 365.3 231.6 365.4 231.6 365.6 231.6 365.7 231.6 365.9 231.6 366 231.6 366.2 231.6 366.3 231.6 366.5 231.5 366.6 231.5 366.7 231.4 366.8 231.3 367 231.3 367.1 231.2 367.2 231.1 367.3 231 367.4 230.9 367.5 230.8 367.6 230.7 367.7 230.5 367.8 230.4 367.8 230.3 367.9 230.2 367.9 230 368 229.9 368 229.7 368 229.6 368 229.4 368 229.3 368 229.2 368 229 368 228.9 367.9 228.7 367.9 228.6 367.8 228.5 367.8 228.3 367.7 228.2 367.6 228.1 367.6 227.9 367.5 227.8 367.4 227.7 367.3 227.6 367.2 227.5 367 227.4 366.9 227.4 366.8 227.3 366.7 227.2 366.5 227.2 366.4 227.1 366.2 227.1 366.1 227.1 366 227.1 365.8 227 365.7 227 365.5 227.1 365.4 227.1 365.2 227.1"/></g><g id="ID000044"><line class="cls-4" x1="353.3" y1="186" x2="353.3" y2="285.8"/></g><g id="ID000045"><polygon points="356.8 232 355.1 234 354.5 235.9 354.2 237.8 353.3 241.6 352.5 237.8 352.2 235.9 351.6 234 349.9 232 356.8 232"/></g><g id="ID000046"><polyline class="cls-4" points="416.3 272 415.8 294.7 355.8 295"/></g><g id="ID000047"><polygon points="384.6 295 384.7 295.1 384.7 295.2 384.7 295.4 384.7 295.5 384.8 295.7 384.8 295.8 384.9 295.9 384.9 296.1 385 296.2 385.1 296.3 385.2 296.4 385.3 296.5 385.4 296.6 385.5 296.7 385.6 296.8 385.7 296.9 385.9 297 386 297 386.1 297.1 386.3 297.1 386.4 297.2 386.6 297.2 386.7 297.2 386.8 297.2 387 297.2 387.1 297.2 387.3 297.2 387.4 297.2 387.6 297.2 387.7 297.1 387.8 297.1 388 297 388.1 296.9 388.2 296.9 388.3 296.8 388.5 296.7 388.6 296.6 388.7 296.5 388.8 296.4 388.8 296.2 388.9 296.1 389 296 389.1 295.9 389.1 295.7 389.1 295.6 389.2 295.4 389.2 295.3 389.2 295.2 389.2 295 389.2 294.9 389.2 294.7 389.2 294.6 389.2 294.4 389.1 294.3 389.1 294.2 389 294 389 293.9 388.9 293.8 388.8 293.6 388.7 293.5 388.7 293.4 388.6 293.3 388.4 293.2 388.3 293.1 388.2 293 388.1 293 388 292.9 387.8 292.8 387.7 292.8 387.6 292.7 387.4 292.7 387.3 292.7 387.1 292.7 387 292.7 386.8 292.7 386.7 292.7 386.5 292.7 386.4 292.7 386.3 292.8 386.1 292.8 386 292.9 385.9 292.9 385.7 293 385.6 293.1 385.5 293.2 385.4 293.3 385.3 293.4 385.2 293.5 385.1 293.6 385 293.7 384.9 293.8 384.9 294 384.8 294.1 384.8 294.2 384.7 294.4 384.7 294.5 384.7 294.7 384.7 294.8 384.6 295"/></g><g id="ID000049"><g class="cls-1"><text class="cls-8" transform="translate(434.9 281.2)">G</text></g></g><g id="ID000050"><g class="cls-1"><text class="cls-9" transform="translate(435.6 261.1)">A</text></g></g><g id="ID000051"><g class="cls-1"><text class="cls-10" transform="translate(435.2 249.6)">U</text></g></g><g id="ID000052"><g class="cls-1"><text class="cls-8" transform="translate(435.2 238.2)">C</text></g></g><g id="ID000053"><g class="cls-1"><text class="cls-8" transform="translate(434.9 226.7)">G</text></g></g><g id="ID000054"><g class="cls-1"><text class="cls-8" transform="translate(435.2 215.2)">C</text></g></g><g id="ID000055"><g class="cls-1"><text class="cls-8" transform="translate(434.6 202.3)">G</text></g></g><g id="ID000056"><g class="cls-1"><text class="cls-8" transform="translate(412 215.2)">G</text></g></g><g id="ID000057"><g class="cls-1"><text class="cls-8" transform="translate(412.3 226.7)">C</text></g></g><g id="ID000058"><g class="cls-1"><text class="cls-11" transform="translate(412.6 238.2)">A</text></g></g><g id="ID000059"><g class="cls-1"><text class="cls-10" transform="translate(412.3 249.6)">U</text></g></g><g id="ID000060"><g class="cls-1"><text class="cls-6" transform="translate(412.3 261.1)">U</text></g></g><g id="ID000061"><g class="cls-1"><text class="cls-6" transform="translate(412 272.6)">G</text></g></g><g id="ID000062"><g class="cls-1"><text class="cls-12" transform="translate(372.5 241)">A</text></g></g><g id="ID000063"><g class="cls-1"><text class="cls-11" transform="translate(372.5 229.6)">A</text></g></g><g id="ID000064"><line class="cls-4" x1="436.8" y1="272.2" x2="378.8" y2="185.2"/></g><g id="ID000065"><polygon class="cls-7" points="406.2 226.2 406.5 231.4 410.8 228.5 406.2 226.2"/></g><g id="ID000066"><line class="cls-4" x1="436.1" y1="252.7" x2="356.6" y2="173.2"/></g><g id="ID000067"><polygon class="cls-7" points="401.7 215 398.5 211.8 395.2 215 398.5 218.3 401.7 215"/></g><g id="ID000068"><polygon class="cls-7" points="392.6 209.2 392.5 209.3 392.4 209.4 392.3 209.5 392.3 209.7 392.2 209.8 392.1 209.9 392.1 210.1 392 210.2 392 210.3 392 210.5 392 210.6 391.9 210.8 392 210.9 392 211.1 392 211.2 392 211.3 392 211.5 392.1 211.6 392.1 211.8 392.2 211.9 392.3 212 392.4 212.1 392.5 212.3 392.5 212.4 392.6 212.5 392.8 212.6 392.9 212.7 393 212.7 393.1 212.8 393.2 212.9 393.4 213 393.5 213 393.6 213 393.8 213.1 393.9 213.1 394.1 213.1 394.2 213.1 394.4 213.1 394.5 213.1 394.7 213.1 394.8 213.1 394.9 213 395.1 213 395.2 212.9 395.3 212.8 395.5 212.8 395.6 212.7 395.7 212.6 395.8 212.5 395.9 212.4 396 212.3 396.1 212.2 396.2 212 396.3 211.9 396.3 211.8 396.4 211.7 396.4 211.5 396.5 211.4 396.5 211.2 396.5 211.1 396.5 210.9 396.5 210.8 396.5 210.7 396.5 210.5 396.5 210.4 396.5 210.2 396.4 210.1 396.4 210 396.3 209.8 396.2 209.7 396.2 209.6 396.1 209.4 396 209.3 395.9 209.2 395.8 209.1 395.7 209 395.6 208.9 395.4 208.9 395.3 208.8 395.2 208.7 395 208.7 394.9 208.6 394.8 208.6 394.6 208.6 394.5 208.5 394.3 208.5 394.2 208.5 394 208.5 393.9 208.6 393.8 208.6 393.6 208.6 393.5 208.7 393.3 208.7 393.2 208.8 393.1 208.8 393 208.9 392.8 209 392.7 209.1 392.6 209.2"/></g><g id="ID000069"><line class="cls-4" x1="435.3" y1="242.4" x2="420.5" y2="235.1"/></g><g id="ID000070"><polygon points="425.8 237.7 425.8 237.8 425.7 238 425.7 238.1 425.7 238.3 425.6 238.4 425.6 238.5 425.6 238.7 425.6 238.8 425.6 239 425.6 239.1 425.7 239.3 425.7 239.4 425.8 239.6 425.8 239.7 425.9 239.8 425.9 239.9 426 240.1 426.1 240.2 426.2 240.3 426.3 240.4 426.4 240.5 426.5 240.6 426.6 240.7 426.8 240.7 426.9 240.8 427 240.9 427.2 240.9 427.3 241 427.5 241 427.6 241 427.7 241 427.9 241 428 241 428.2 241 428.3 241 428.5 241 428.6 240.9 428.7 240.9 428.9 240.8 429 240.8 429.1 240.7 429.2 240.6 429.4 240.5 429.5 240.4 429.6 240.3 429.7 240.2 429.8 240.1 429.8 240 429.9 239.8 430 239.7 430 239.6 430.1 239.4 430.1 239.3 430.1 239.2 430.2 239 430.2 238.9 430.2 238.7 430.2 238.6 430.2 238.4 430.1 238.3 430.1 238.1 430.1 238 430 237.9 429.9 237.7 429.9 237.6 429.8 237.5 429.7 237.4 429.6 237.2 429.5 237.1 429.4 237 429.3 236.9 429.2 236.9 429.1 236.8 429 236.7 428.8 236.6 428.7 236.6 428.5 236.5 428.4 236.5 428.3 236.5 428.1 236.5 428 236.4 427.8 236.4 427.7 236.5 427.5 236.5 427.4 236.5 427.3 236.5 427.1 236.6 427 236.6 426.9 236.7 426.7 236.8 426.6 236.8 426.5 236.9 426.4 237 426.3 237.1 426.2 237.2 426.1 237.3 426 237.5 425.9 237.6 425.8 237.7"/></g><g id="ID000071"><line class="cls-4" x1="434.8" y1="221.5" x2="421" y2="221.5"/></g><g id="ID000072"><line class="cls-4" x1="434.8" y1="210.1" x2="421" y2="210.1"/></g><g id="ID000073"><line class="cls-4" x1="412.3" y1="242.4" x2="380.4" y2="226.5"/></g><g id="ID000074"><polygon class="cls-7" points="401.1 236.8 401.1 236.7 401.2 236.5 401.2 236.4 401.3 236.3 401.3 236.1 401.3 236 401.3 235.8 401.3 235.7 401.3 235.5 401.3 235.4 401.2 235.2 401.2 235.1 401.2 235 401.1 234.8 401 234.7 401 234.6 400.9 234.5 400.8 234.3 400.7 234.2 400.6 234.1 400.5 234 400.4 233.9 400.3 233.9 400.1 233.8 400 233.7 399.9 233.7 399.7 233.6 399.6 233.6 399.5 233.5 399.3 233.5 399.2 233.5 399 233.5 398.9 233.5 398.7 233.5 398.6 233.5 398.5 233.6 398.3 233.6 398.2 233.6 398 233.7 397.9 233.8 397.8 233.8 397.7 233.9 397.6 234 397.4 234.1 397.3 234.2 397.2 234.3 397.2 234.4 397.1 234.6 397 234.7 396.9 234.8 396.9 234.9 396.8 235.1 396.8 235.2 396.8 235.4 396.7 235.5 396.7 235.7 396.7 235.8 396.7 235.9 396.8 236.1 396.8 236.2 396.8 236.4 396.9 236.5 396.9 236.7 397 236.8 397 236.9 397.1 237 397.2 237.2 397.3 237.3 397.4 237.4 397.5 237.5 397.6 237.6 397.7 237.7 397.8 237.7 398 237.8 398.1 237.9 398.2 237.9 398.4 238 398.5 238 398.6 238 398.8 238.1 398.9 238.1 399.1 238.1 399.2 238.1 399.4 238 399.5 238 399.7 238 399.8 237.9 399.9 237.9 400.1 237.8 400.2 237.7 400.3 237.7 400.4 237.6 400.5 237.5 400.6 237.4 400.7 237.3 400.8 237.2 400.9 237.1 401 236.9 401.1 236.8"/></g><g id="ID000075"><polygon class="cls-7" points="390.6 234.1 394.7 236.2 396.8 232.1 392.7 230 390.6 234.1"/></g><g id="ID000077"><g class="cls-1"><text class="cls-8" transform="translate(435.2 189.4)">U</text></g></g><g id="ID000078"><line class="cls-4" x1="445.5" y1="161.6" x2="453.1" y2="161.6"/></g><g id="ID000079"><g class="cls-1"><text class="cls-5" transform="translate(388.7 288)">10</text></g></g><g id="ID000080"><g class="cls-1"><text class="cls-8" transform="translate(434.9 177.9)">G</text></g></g><g id="ID000081"><g class="cls-1"><text class="cls-8" transform="translate(434.9 166.5)">G</text></g></g><g id="ID000082"><g class="cls-1"><text class="cls-9" transform="translate(435.6 155)">A</text></g></g><g id="ID000083"><g class="cls-1"><text class="cls-8" transform="translate(435.2 143.5)">U</text></g></g><g id="ID000084"><g class="cls-1"><text class="cls-8" transform="translate(412.3 177.9)">C</text></g></g><g id="ID000085"><g class="cls-1"><text class="cls-9" transform="translate(412.6 189.4)">A</text></g></g><g id="ID000086"><line class="cls-4" x1="412.6" y1="211.1" x2="406.8" y2="202.7"/></g><g id="ID000087"><g class="cls-1"><text class="cls-5" transform="translate(394.6 203.9)">30</text></g></g><g id="ID000088"><line class="cls-4" x1="434.8" y1="184.3" x2="421" y2="184.3"/></g><g id="ID000089"><line class="cls-4" x1="434.8" y1="172.8" x2="421" y2="172.8"/></g><g id="ID000090"><line class="cls-4" x1="437.2" y1="145.8" x2="401.4" y2="79.3"/></g><g id="ID000091"><polygon points="421.8 117.2 421.9 117.1 422 117.1 422.2 117 422.3 116.9 422.4 116.8 422.5 116.7 422.6 116.5 422.6 116.4 422.7 116.3 422.8 116.2 422.8 116 422.9 115.9 422.9 115.8 423 115.6 423 115.5 423 115.3 423 115.2 423 115 423 114.9 423 114.7 422.9 114.6 422.9 114.5 422.8 114.3 422.8 114.2 422.7 114.1 422.6 113.9 422.5 113.8 422.5 113.7 422.4 113.6 422.3 113.5 422.1 113.4 422 113.3 421.9 113.2 421.8 113.2 421.7 113.1 421.5 113 421.4 113 421.2 113 421.1 112.9 421 112.9 420.8 112.9 420.7 112.9 420.5 112.9 420.4 112.9 420.2 112.9 420.1 113 420 113 419.8 113.1 419.7 113.1 419.6 113.2 419.4 113.3 419.3 113.4 419.2 113.5 419.1 113.6 419 113.7 418.9 113.8 418.8 113.9 418.7 114 418.7 114.1 418.6 114.3 418.6 114.4 418.5 114.5 418.5 114.7 418.4 114.8 418.4 115 418.4 115.1 418.4 115.3 418.4 115.4 418.4 115.6 418.5 115.7 418.5 115.8 418.6 116 418.6 116.1 418.7 116.2 418.7 116.4 418.8 116.5 418.9 116.6 419 116.7 419.1 116.8 419.2 116.9 419.3 117 419.4 117.1 419.6 117.2 419.7 117.2 419.8 117.3 420 117.4 420.1 117.4 420.2 117.4 420.4 117.5 420.5 117.5 420.7 117.5 420.8 117.5 421 117.5 421.1 117.4 421.2 117.4 421.4 117.4 421.5 117.3 421.7 117.3 421.8 117.2"/></g><g id="ID000092"><polygon points="416.5 107.3 416.3 112.5 420.9 110 416.5 107.3"/></g><g id="ID000093"><line class="cls-4" x1="439.4" y1="133.8" x2="439.4" y2="68.4"/></g><g id="ID000094"><polygon points="435.9 104.9 437.6 103 438.2 101.1 438.5 99.2 439.4 95.4 440.2 99.2 440.5 101.1 441.1 103 442.8 104.9 435.9 104.9"/></g><g id="ID000095"><line class="cls-4" x1="435.7" y1="135.7" x2="357" y2="78"/></g><g id="ID000096"><polygon class="cls-7" points="400.6 109.9 400.7 109.8 400.8 109.7 400.8 109.6 400.9 109.4 400.9 109.3 401 109.2 401 109 401 108.9 401 108.7 401 108.6 401 108.4 401 108.3 401 108.2 401 108 400.9 107.9 400.9 107.7 400.8 107.6 400.8 107.5 400.7 107.3 400.6 107.2 400.5 107.1 400.4 107 400.3 106.9 400.2 106.8 400.1 106.7 400 106.6 399.8 106.6 399.7 106.5 399.6 106.4 399.4 106.4 399.3 106.4 399.2 106.3 399 106.3 398.9 106.3 398.7 106.3 398.6 106.3 398.4 106.3 398.3 106.3 398.1 106.4 398 106.4 397.9 106.5 397.7 106.5 397.6 106.6 397.5 106.7 397.4 106.8 397.3 106.9 397.1 107 397 107.1 397 107.2 396.9 107.3 396.8 107.4 396.7 107.5 396.7 107.7 396.6 107.8 396.5 107.9 396.5 108.1 396.5 108.2 396.5 108.4 396.5 108.5 396.5 108.7 396.5 108.8 396.5 109 396.5 109.1 396.6 109.2 396.6 109.4 396.7 109.5 396.7 109.6 396.8 109.8 396.9 109.9 397 110 397.1 110.1 397.2 110.2 397.3 110.3 397.4 110.4 397.5 110.5 397.6 110.6 397.7 110.6 397.9 110.7 398 110.8 398.2 110.8 398.3 110.8 398.4 110.9 398.6 110.9 398.7 110.9 398.9 110.9 399 110.9 399.2 110.8 399.3 110.8 399.4 110.8 399.6 110.7 399.7 110.7 399.8 110.6 400 110.5 400.1 110.5 400.2 110.4 400.3 110.3 400.4 110.2 400.5 110.1 400.6 109.9"/></g><g id="ID000097"><polygon class="cls-7" points="390.7 105.6 394.4 108.3 397.2 104.6 393.5 101.9 390.7 105.6"/></g><g id="ID000098"><polyline class="cls-4" points="399.2 91.3 399.2 170.2 413.2 170.2 415.1 171"/></g><g id="ID000099"><polygon points="402.7 126.8 400.9 128.7 400.4 130.6 400.1 132.5 399.2 136.4 398.4 132.5 398.1 130.6 397.5 128.7 395.8 126.8 402.7 126.8"/></g><g id="ID000101"><g class="cls-1"><text class="cls-9" transform="translate(435.6 69)">A</text></g></g><g id="ID000102"><g class="cls-1"><text class="cls-13" transform="translate(395.1 69)">U</text></g></g><g id="ID000103"><g class="cls-1"><text class="cls-13" transform="translate(394.8 80.4)">G</text></g></g><g id="ID000104"><g class="cls-1"><text class="cls-13" transform="translate(394.8 91.9)">G</text></g></g><g id="ID000105"><g class="cls-1"><text class="cls-13" transform="translate(372.2 91.9)">C</text></g></g><g id="ID000107"><g class="cls-1"><text class="cls-5" transform="translate(328.5 163.7)">60</text></g></g><g id="ID000108"><g class="cls-1"><text class="cls-13" transform="translate(372.2 80.4)">C</text></g></g><g id="ID000109"><g class="cls-1"><text class="cls-13" transform="translate(371.8 66.1)">G</text></g></g><g id="ID000110"><g class="cls-1"><text class="cls-13" transform="translate(349.3 64.9)">U</text></g></g><g id="ID000111"><g class="cls-1"><text class="cls-14" transform="translate(338.1 71.8)">A</text></g></g><g id="ID000112"><polyline class="cls-4" points="439.4 59.2 439.4 46.6 342 46.6 341.9 62.1"/></g><g id="ID000113"><polygon class="cls-7" points="396 44.3 391.4 44.3 391.4 48.9 396 48.9 396 44.3"/></g><g id="ID000114"><polygon class="cls-7" points="385.4 46.6 385.4 46.8 385.4 46.9 385.5 47 385.5 47.2 385.5 47.3 385.6 47.5 385.6 47.6 385.7 47.7 385.8 47.8 385.9 48 386 48.1 386.1 48.2 386.2 48.3 386.3 48.4 386.4 48.5 386.5 48.6 386.6 48.6 386.8 48.7 386.9 48.7 387 48.8 387.2 48.8 387.3 48.9 387.5 48.9 387.6 48.9 387.8 48.9 387.9 48.9 388 48.9 388.2 48.8 388.3 48.8 388.5 48.8 388.6 48.7 388.7 48.7 388.9 48.6 389 48.5 389.1 48.4 389.2 48.3 389.3 48.2 389.4 48.1 389.5 48 389.6 47.9 389.7 47.8 389.8 47.7 389.8 47.5 389.9 47.4 389.9 47.3 390 47.1 390 47 390 46.8 390 46.7 390 46.5 390 46.4 390 46.2 390 46.1 389.9 46 389.9 45.8 389.8 45.7 389.8 45.6 389.7 45.4 389.6 45.3 389.5 45.2 389.4 45.1 389.3 45 389.2 44.9 389.1 44.8 389 44.7 388.9 44.6 388.7 44.6 388.6 44.5 388.5 44.4 388.3 44.4 388.2 44.4 388 44.3 387.9 44.3 387.8 44.3 387.6 44.3 387.5 44.3 387.3 44.4 387.2 44.4 387 44.4 386.9 44.5 386.8 44.5 386.6 44.6 386.5 44.7 386.4 44.7 386.3 44.8 386.2 44.9 386.1 45 386 45.1 385.9 45.2 385.8 45.4 385.7 45.5 385.6 45.6 385.6 45.8 385.5 45.9 385.5 46 385.5 46.2 385.4 46.3 385.4 46.5 385.4 46.6"/></g><g id="ID000115"><line class="cls-4" x1="394.6" y1="75.3" x2="380.9" y2="75.3"/></g><g id="ID000116"><line class="cls-4" x1="394.6" y1="86.8" x2="380.9" y2="86.8"/></g><g id="ID000117"><polyline class="cls-4" points="399.2 91.3 399.2 92.5 359.1 92.5 356.6 90"/></g><g id="ID000118"><polygon class="cls-7" points="385.1 92.5 380.6 89.9 380.6 95.1 385.1 92.5"/></g><g id="ID000119"><polygon class="cls-7" points="373.9 92.5 373.9 92.6 373.9 92.8 373.9 92.9 373.9 93.1 374 93.2 374 93.3 374.1 93.5 374.2 93.6 374.2 93.7 374.3 93.9 374.4 94 374.5 94.1 374.6 94.2 374.7 94.3 374.8 94.4 374.9 94.4 375.1 94.5 375.2 94.6 375.3 94.6 375.5 94.7 375.6 94.7 375.8 94.7 375.9 94.8 376 94.8 376.2 94.8 376.3 94.8 376.5 94.8 376.6 94.7 376.8 94.7 376.9 94.7 377.1 94.6 377.2 94.5 377.3 94.5 377.4 94.4 377.6 94.3 377.7 94.2 377.8 94.1 377.9 94 378 93.9 378.1 93.8 378.1 93.7 378.2 93.5 378.3 93.4 378.3 93.3 378.4 93.1 378.4 93 378.4 92.9 378.4 92.7 378.5 92.6 378.5 92.4 378.4 92.3 378.4 92.1 378.4 92 378.4 91.8 378.3 91.7 378.3 91.6 378.2 91.4 378.1 91.3 378.1 91.2 378 91.1 377.9 91 377.8 90.9 377.7 90.8 377.6 90.7 377.4 90.6 377.3 90.5 377.2 90.4 377.1 90.4 376.9 90.3 376.8 90.3 376.6 90.2 376.5 90.2 376.3 90.2 376.2 90.2 376 90.2 375.9 90.2 375.8 90.2 375.6 90.3 375.5 90.3 375.3 90.3 375.2 90.4 375.1 90.5 374.9 90.5 374.8 90.6 374.7 90.7 374.6 90.8 374.5 90.9 374.4 91 374.3 91.1 374.2 91.3 374.2 91.4 374.1 91.5 374 91.6 374 91.8 373.9 91.9 373.9 92.1 373.9 92.2 373.9 92.3 373.9 92.5"/></g><g id="ID000120"><line class="cls-4" x1="371.7" y1="75.3" x2="357.9" y2="75.3"/></g><g id="ID000121"><polygon points="370.8 75.3 366.3 72.7 366.3 77.9 370.8 75.3"/></g><g id="ID000122"><polygon points="359.5 75.3 359.5 75.4 359.5 75.6 359.6 75.7 359.6 75.9 359.6 76 359.7 76.1 359.8 76.3 359.8 76.4 359.9 76.5 360 76.6 360.1 76.8 360.2 76.9 360.3 77 360.4 77.1 360.5 77.1 360.6 77.2 360.7 77.3 360.9 77.4 361 77.4 361.1 77.5 361.3 77.5 361.4 77.5 361.6 77.6 361.7 77.6 361.9 77.6 362 77.6 362.1 77.6 362.3 77.5 362.4 77.5 362.6 77.5 362.7 77.4 362.8 77.3 363 77.3 363.1 77.2 363.2 77.1 363.3 77 363.4 76.9 363.5 76.8 363.6 76.7 363.7 76.6 363.8 76.5 363.9 76.3 363.9 76.2 364 76.1 364 75.9 364.1 75.8 364.1 75.6 364.1 75.5 364.1 75.4 364.1 75.2 364.1 75.1 364.1 74.9 364.1 74.8 364 74.6 364 74.5 363.9 74.4 363.9 74.2 363.8 74.1 363.7 74 363.6 73.9 363.5 73.8 363.4 73.6 363.3 73.6 363.2 73.5 363.1 73.4 363 73.3 362.8 73.2 362.7 73.2 362.6 73.1 362.4 73.1 362.3 73 362.1 73 362 73 361.9 73 361.7 73 361.6 73 361.4 73 361.3 73.1 361.1 73.1 361 73.1 360.9 73.2 360.7 73.3 360.6 73.3 360.5 73.4 360.4 73.5 360.3 73.6 360.2 73.7 360.1 73.8 360 73.9 359.9 74 359.8 74.2 359.8 74.3 359.7 74.4 359.6 74.6 359.6 74.7 359.6 74.8 359.5 75 359.5 75.1 359.5 75.3"/></g><g id="ID000123"><line class="cls-4" x1="371.7" y1="60.9" x2="357.9" y2="60.9"/></g><g id="ID000124"><polygon points="370.8 60.9 366.3 58.4 366.3 63.5 370.8 60.9"/></g><g id="ID000125"><polygon points="359.5 63.2 364.1 63.2 364.1 58.7 359.5 58.7 359.5 63.2"/></g><g id="ID000127"><g class="cls-1"><text class="cls-10" transform="translate(372.2 215.2)">U</text></g></g><g id="ID000129"><g class="cls-1"><text class="cls-5" transform="translate(387.5 59.9)">50</text></g></g><g id="ID000130"><g class="cls-1"><text class="cls-6" transform="translate(372.2 200.9)">U</text></g></g><g id="ID000131"><g class="cls-1"><text class="cls-13" transform="translate(371.8 186.6)">G</text></g></g><g id="ID000132"><g class="cls-1"><text class="cls-13" transform="translate(372.2 175.1)">U</text></g></g><g id="ID000133"><g class="cls-1"><text class="cls-13" transform="translate(372.2 163.6)">U</text></g></g><g id="ID000134"><g class="cls-1"><text class="cls-13" transform="translate(371.8 152.1)">G</text></g></g><g id="ID000135"><g class="cls-1"><text class="cls-13" transform="translate(371.8 140.7)">G</text></g></g><g id="ID000136"><g class="cls-1"><text class="cls-14" transform="translate(372.5 129.2)">A</text></g></g><g id="ID000137"><g class="cls-1"><text class="cls-13" transform="translate(372.2 117.7)">C</text></g></g><g id="ID000138"><g class="cls-1"><text class="cls-14" transform="translate(372.5 106.3)">A</text></g></g><g id="ID000139"><g class="cls-1"><text class="cls-14" transform="translate(349.6 79.2)">A</text></g></g><g id="ID000140"><g class="cls-1"><text class="cls-14" transform="translate(349.6 90.7)">A</text></g></g><g id="ID000141"><g class="cls-1"><text class="cls-13" transform="translate(349.3 105)">U</text></g></g><g id="ID000142"><g class="cls-1"><text class="cls-13" transform="translate(349 116.5)">G</text></g></g><g id="ID000143"><g class="cls-1"><text class="cls-13" transform="translate(349.3 128)">U</text></g></g><g id="ID000144"><g class="cls-1"><text class="cls-13" transform="translate(349.3 139.5)">C</text></g></g><g id="ID000145"><line class="cls-4" x1="348.9" y1="159.1" x2="341.2" y2="159.1"/></g><g id="ID000146"><g class="cls-1"><text class="cls-5" transform="translate(328.6 375.9)">70</text></g></g><g id="ID000147"><g class="cls-1"><text class="cls-13" transform="translate(349.3 150.9)">C</text></g></g><g id="ID000148"><g class="cls-1"><text class="cls-13" transform="translate(349.3 162.4)">U</text></g></g><g id="ID000149"><g class="cls-1"><text class="cls-14" transform="translate(349.6 173.9)">A</text></g></g><g id="ID000150"><g class="cls-1"><text class="cls-14" transform="translate(349.6 185.3)">A</text></g></g><g id="ID000151"><line class="cls-4" x1="371.7" y1="147" x2="357.9" y2="147"/></g><g id="ID000152"><line class="cls-4" x1="371.7" y1="135.5" x2="357.9" y2="135.5"/></g><g id="ID000153"><line class="cls-4" x1="371.7" y1="124" x2="357.9" y2="124"/></g><g id="ID000154"><line class="cls-4" x1="371.7" y1="112.6" x2="357.9" y2="112.6"/></g><g id="ID000155"><line class="cls-4" x1="371.7" y1="101.1" x2="357.9" y2="101.1"/></g><g id="ID000157"><polyline class="cls-4" points="412.6 267.4 378.1 267.4 378.1 241.6"/></g><g id="ID000158"><polygon points="400.7 270.9 398.8 269.1 396.9 268.6 395 268.3 391.2 267.4 395 266.6 396.9 266.3 398.8 265.7 400.7 264 400.7 270.9"/></g><g id="ID000159"><line class="cls-15" x1="439.4" y1="271.4" x2="439.4" y2="260.5"/></g><g id="ID000160"><polygon points="435.9 269.8 437.6 267.9 438.2 266 438.5 264.1 439.4 260.3 440.2 264.1 440.5 266 441.1 267.9 442.8 269.8 435.9 269.8"/></g><g id="ID000162"><polygon points="423.5 68 421.5 66.3 419.6 65.8 417.7 65.5 413.9 64.7 417.7 63.8 419.6 63.5 421.5 62.9 423.3 61.1 423.5 68"/></g><g id="ID000057-2"><g class="cls-1"><text class="cls-8" transform="translate(412.6 202.4)">C</text></g></g><g id="ID000078-2"><line class="cls-4" x1="380.3" y1="182.1" x2="387.9" y2="182.1"/></g><g id="ID000087-2"><g class="cls-1"><text class="cls-5" transform="translate(387.9 186.7)">40</text></g></g><g id="ID000115-2"><line class="cls-4" x1="387.5" y1="58.3" x2="381" y2="61.6"/></g><g class="cls-1"><text class="cls-16" transform="translate(301.1 26)">5GR-II RN</text></g><g class="cls-1"><text class="cls-17" transform="translate(394.5 26)">A</text></g><g class="cls-1"><text class="cls-16" transform="translate(411.1 26)"><tspan xml:space="preserve"> aptamer</tspan></text></g><g class="cls-1"><text class="cls-18" transform="translate(384.3 392.1)">5</text><text class="cls-19" transform="translate(390.97 392.1)">’</text></g><g class="cls-1"><text class="cls-18" transform="translate(336.7 392.4)">3</text><text class="cls-19" transform="translate(343.37 392.4)">’</text></g><line class="cls-4" x1="403.5" y1="64.8" x2="435.5" y2="64.8"/><rect class="cls-20" x="377.53" y="232.54" width="34.8" height="17.4" transform="translate(151.63 634.9) rotate(-89.7)"/><g class="cls-1"><text class="cls-21" transform="translate(389.8 224.4) rotate(90.3) scale(0.9 1)">5H<tspan class="cls-22" x="19.3" y="0">T</tspan></text><text class="cls-23" transform="translate(389.67 250.08) rotate(90.3) scale(0.9 1)">P</text></g></svg>