<?xml version="1.0" encoding="utf-8"?>
<!-- Generator: Adobe Illustrator 25.2.0, SVG Export Plug-In . SVG Version: 6.00 Build 0)  -->
<svg version="1.1" id="图层_1" xmlns="http://www.w3.org/2000/svg" xmlns:xlink="http://www.w3.org/1999/xlink" x="0px" y="0px"
	 viewBox="0 0 800 400" style="enable-background:new 0 0 800 400;" xml:space="preserve">
<style type="text/css">
	.st0{fill:#389A38;}
	.st1{font-family:'Arial-BoldMT';}
	.st2{font-size:20px;}
	.st3{fill:#B03233;}
	.st4{fill:none;stroke:#040000;stroke-miterlimit:1.7741;}
	.st5{fill:#040000;}
	.st6{font-family:'ArialMT';}
	.st7{fill:#040000;stroke:#040000;stroke-width:0.2218;stroke-miterlimit:1.7741;}
	.st8{fill:#0A428C;}
	.st9{fill:#1F9286;}
	.st10{font-family:'MicrosoftYaHei';}
</style>
<g id="ID000002">
	<g transform="translate(1264.824,744.606)">
		<g transform="rotate(-0.0)">
			<text transform="matrix(1 0 0 1 -585.079 -427.5052)" class="st0 st1 st2">G</text>
		</g>
	</g>
</g>
<g id="ID000003">
	<g transform="translate(1237.688,771.742)">
		<g transform="rotate(-0.0)">
			<text transform="matrix(1 0 0 1 -573.0758 -439.5084)" class="st0 st1 st2">G</text>
		</g>
	</g>
</g>
<g id="ID000004">
	<g transform="translate(1210.553,798.877)">
		<g transform="rotate(-0.0)">
			<text transform="matrix(1 0 0 1 -561.0736 -451.5106)" class="st0 st1 st2">G</text>
		</g>
	</g>
</g>
<g id="ID000005">
	<g transform="translate(1183.417,816.968)">
		<g transform="rotate(-0.0)">
			<text transform="matrix(1 0 0 1 -548.5128 -459.5127)" class="st0 st1 st2">A</text>
		</g>
	</g>
</g>
<g id="ID000006">
	<g transform="translate(1147.236,826.013)">
		<g transform="rotate(-0.0)">
			<text transform="matrix(1 0 0 1 -532.5085 -463.5128)" class="st0 st1 st2">A</text>
		</g>
	</g>
</g>
<g id="ID000007">
	<g transform="translate(1111.055,826.013)">
		<g transform="rotate(-0.0)">
			<text transform="matrix(1 0 0 1 -516.5054 -463.5128)" class="st0 st1 st2">U</text>
		</g>
	</g>
</g>
<g id="ID000008">
	<g transform="translate(1074.874,798.877)">
		<g transform="rotate(-0.0)">
			<text transform="matrix(1 0 0 1 -500.503 -451.5106)" class="st0 st1 st2">U</text>
		</g>
	</g>
</g>
<g id="ID000009">
	<g transform="translate(1038.693,771.742)">
		<g transform="rotate(-0.0)">
			<text transform="matrix(1 0 0 1 -484.4997 -439.5084)" class="st0 st1 st2">C</text>
		</g>
	</g>
</g>
<g id="ID000010">
	<g transform="translate(1011.558,744.606)">
		<g transform="rotate(-0.0)">
			<text transform="matrix(1 0 0 1 -472.4975 -427.5052)" class="st0 st1 st2">C</text>
		</g>
	</g>
</g>
<g id="ID000011">
	<g transform="translate(975.377,735.561)">
		<g transform="rotate(-0.0)">
			<text transform="matrix(1 0 0 1 -457.0529 -423.5051)" class="st3 st1 st2">G</text>
		</g>
	</g>
</g>
<g id="ID000012">
	<line class="st4" x1="526.1" y1="316.4" x2="526.1" y2="329.9"/>
</g>
<g id="ID000013">
	<g transform="translate(975.377,810.214)">
		<g transform="rotate(-0.0)">
			<text transform="matrix(1 0 0 1 -460.4103 -456.5243)" class="st5 st6 st2">10</text>
		</g>
	</g>
</g>
<g id="ID000014">
	<g transform="translate(939.196,735.561)">
		<g transform="rotate(-0.0)">
			<text transform="matrix(1 0 0 1 -440.491 -423.5051)" class="st3 st1 st2">C</text>
		</g>
	</g>
</g>
<g id="ID000015">
	<g transform="translate(903.015,735.561)">
		<g transform="rotate(-0.0)">
			<text transform="matrix(1 0 0 1 -425.0464 -423.5051)" class="st3 st1 st2">G</text>
		</g>
	</g>
</g>
<g id="ID000016">
	<g transform="translate(866.834,735.561)">
		<g transform="rotate(-0.0)">
			<text transform="matrix(1 0 0 1 -408.4835 -423.5051)" class="st3 st1 st2">U</text>
		</g>
	</g>
</g>
<g id="ID000017">
	<g transform="translate(830.653,735.561)">
		<g transform="rotate(-0.0)">
			<text transform="matrix(1 0 0 1 -393.0388 -423.5051)" class="st3 st1 st2">G</text>
		</g>
	</g>
</g>
<g id="ID000018">
	<g transform="translate(794.472,735.561)">
		<g transform="rotate(-0.0)">
			<text transform="matrix(1 0 0 1 -376.477 -423.5051)" class="st3 st1 st2">U</text>
		</g>
	</g>
</g>
<g id="ID000019">
	<g transform="translate(758.291,735.561)">
		<g transform="rotate(-0.0)">
			<text transform="matrix(1 0 0 1 -361.0333 -423.5051)" class="st3 st1 st2">G</text>
		</g>
	</g>
</g>
<g id="ID000020">
	<g transform="translate(722.111,735.561)">
		<g transform="rotate(-0.0)">
			<text transform="matrix(1 0 0 1 -344.4705 -423.5051)" class="st3 st1 st2">C</text>
		</g>
	</g>
</g>
<g id="ID000021">
	<g transform="translate(685.930,735.561)">
		<g transform="rotate(-0.0)">
			<text transform="matrix(1 0 0 1 -328.4672 -423.5051)" class="st3 st1 st2">C</text>
		</g>
	</g>
</g>
<g id="ID000022">
	<g transform="translate(649.749,735.561)">
		<g transform="rotate(-0.0)">
			<text transform="matrix(1 0 0 1 -312.464 -423.5051)" class="st3 st1 st2">A</text>
		</g>
	</g>
</g>
<g id="ID000023">
	<g transform="translate(613.568,735.561)">
		<g transform="rotate(-0.0)">
			<text transform="matrix(1 0 0 1 -297.0202 -423.5051)" class="st3 st1 st2">G</text>
		</g>
	</g>
</g>
<g id="ID000024">
	<line class="st4" x1="324.4" y1="316.4" x2="324.4" y2="329.9"/>
</g>
<g id="ID000025">
	<g transform="translate(613.568,810.214)">
		<g transform="rotate(-0.0)">
			<text transform="matrix(1 0 0 1 -300.3777 -456.5243)" class="st5 st6 st2">20</text>
		</g>
	</g>
</g>
<g id="ID000026">
	<g transform="translate(577.387,735.561)">
		<g transform="rotate(-0.0)">
			<text transform="matrix(1 0 0 1 -280.4574 -423.5051)" class="st3 st1 st2">C</text>
		</g>
	</g>
</g>
<g id="ID000027">
	<g transform="translate(541.206,735.561)">
		<g transform="rotate(-0.0)">
			<text transform="matrix(1 0 0 1 -265.0127 -423.5051)" class="st3 st1 st2">G</text>
		</g>
	</g>
</g>
<g id="ID000028">
	<g transform="translate(505.025,735.561)">
		<g transform="rotate(-0.0)">
			<text transform="matrix(1 0 0 1 -248.4509 -423.5051)" class="st3 st1 st2">A</text>
		</g>
	</g>
</g>
<g id="ID000029">
	<g transform="translate(477.889,771.742)">
		<g transform="rotate(-0.0)">
			<text transform="matrix(1 0 0 1 -236.4477 -439.5084)" class="st0 st1 st2">A</text>
		</g>
	</g>
</g>
<g id="ID000030">
	<g transform="translate(459.799,645.108)">
		<g transform="rotate(-0.0)">
			<text transform="matrix(1 0 0 1 -228.4466 -383.4964)" class="st0 st1 st2">A</text>
		</g>
	</g>
</g>
<g id="ID000031">
	<g transform="translate(505.025,663.199)">
		<g transform="rotate(-0.0)">
			<text transform="matrix(1 0 0 1 -248.4509 -391.4976)" class="st3 st1 st2">U</text>
		</g>
	</g>
</g>
<g id="ID000032">
	<g transform="translate(541.206,663.199)">
		<g transform="rotate(-0.0)">
			<text transform="matrix(1 0 0 1 -264.4541 -391.4976)" class="st3 st1 st2">C</text>
		</g>
	</g>
</g>
<g id="ID000033">
	<g transform="translate(577.387,663.199)">
		<g transform="rotate(-0.0)">
			<text transform="matrix(1 0 0 1 -281.017 -391.4976)" class="st3 st1 st2">G</text>
		</g>
	</g>
</g>
<g id="ID000034">
	<g transform="translate(613.568,663.199)">
		<g transform="rotate(-0.0)">
			<text transform="matrix(1 0 0 1 -296.4616 -391.4976)" class="st3 st1 st2">C</text>
		</g>
	</g>
</g>
<g id="ID000035">
	<g transform="translate(649.749,663.199)">
		<g transform="rotate(-0.0)">
			<text transform="matrix(1 0 0 1 -312.464 -391.4976)" class="st3 st1 st2">A</text>
		</g>
	</g>
</g>
<g id="ID000036">
	<g transform="translate(685.930,663.199)">
		<g transform="rotate(-0.0)">
			<text transform="matrix(1 0 0 1 -329.0258 -391.4976)" class="st3 st1 st2">G</text>
		</g>
	</g>
</g>
<g id="ID000037">
	<g transform="translate(722.111,663.199)">
		<g transform="rotate(-0.0)">
			<text transform="matrix(1 0 0 1 -345.0291 -391.4976)" class="st3 st1 st2">G</text>
		</g>
	</g>
</g>
<g id="ID000038">
	<g transform="translate(758.291,663.199)">
		<g transform="rotate(-0.0)">
			<text transform="matrix(1 0 0 1 -360.4747 -391.4976)" class="st3 st1 st2">C</text>
		</g>
	</g>
</g>
<g id="ID000039">
	<line class="st4" x1="405.1" y1="249.2" x2="405.1" y2="235.7"/>
</g>
<g id="ID000040">
	<g transform="translate(758.291,589.631)">
		<g transform="rotate(-0.0)">
			<text transform="matrix(1 0 0 1 -364.3907 -358.9579)" class="st5 st6 st2">50</text>
		</g>
	</g>
</g>
<g id="ID000041">
	<g transform="translate(794.472,663.199)">
		<g transform="rotate(-0.0)">
			<text transform="matrix(1 0 0 1 -376.477 -391.4976)" class="st3 st1 st2">A</text>
		</g>
	</g>
</g>
<g id="ID000042">
	<g transform="translate(830.653,663.199)">
		<g transform="rotate(-0.0)">
			<text transform="matrix(1 0 0 1 -392.4803 -391.4976)" class="st3 st1 st2">C</text>
		</g>
	</g>
</g>
<g id="ID000043">
	<g transform="translate(866.834,663.199)">
		<g transform="rotate(-0.0)">
			<text transform="matrix(1 0 0 1 -408.4835 -391.4976)" class="st3 st1 st2">A</text>
		</g>
	</g>
</g>
<g id="ID000044">
	<g transform="translate(903.015,663.199)">
		<g transform="rotate(-0.0)">
			<text transform="matrix(1 0 0 1 -424.4868 -391.4976)" class="st3 st1 st2">U</text>
		</g>
	</g>
</g>
<g id="ID000045">
	<g transform="translate(939.196,663.199)">
		<g transform="rotate(-0.0)">
			<text transform="matrix(1 0 0 1 -441.0496 -391.4976)" class="st3 st1 st2">G</text>
		</g>
	</g>
</g>
<g id="ID000046">
	<g transform="translate(975.377,663.199)">
		<g transform="rotate(-0.0)">
			<text transform="matrix(1 0 0 1 -456.4943 -391.4976)" class="st3 st1 st2">U</text>
		</g>
	</g>
</g>
<g id="ID000047">
	<g transform="translate(1011.558,663.199)">
		<g transform="rotate(-0.0)">
			<text transform="matrix(1 0 0 1 -472.4975 -391.4976)" class="st0 st1 st2">C</text>
		</g>
	</g>
</g>
<g id="ID000048">
	<g transform="translate(1047.739,663.199)">
		<g transform="rotate(-0.0)">
			<text transform="matrix(1 0 0 1 -488.4998 -391.4976)" class="st0 st1 st2">A</text>
		</g>
	</g>
</g>
<g id="ID000049">
	<g transform="translate(1083.920,663.199)">
		<g transform="rotate(-0.0)">
			<text transform="matrix(1 0 0 1 -504.5031 -391.4976)" class="st0 st1 st2">U</text>
		</g>
	</g>
</g>
<g id="ID000050">
	<polygon class="st7" points="526.1,278.8 525.9,278.8 525.6,278.8 525.4,278.8 525.1,278.9 524.9,279 524.6,279.1 524.4,279.2 
		524.2,279.3 524,279.4 523.7,279.5 523.5,279.7 523.3,279.9 523.2,280.1 523,280.3 522.8,280.5 522.7,280.7 522.6,280.9 
		522.5,281.1 522.4,281.4 522.3,281.6 522.2,281.8 522.2,282.1 522.1,282.4 522.1,282.6 522.1,282.9 522.1,283.1 522.1,283.4 
		522.2,283.6 522.2,283.9 522.3,284.1 522.4,284.4 522.5,284.6 522.6,284.8 522.8,285 522.9,285.2 523.1,285.4 523.3,285.6 
		523.4,285.8 523.6,286 523.8,286.1 524.1,286.3 524.3,286.4 524.5,286.5 524.8,286.6 525,286.7 525.2,286.7 525.5,286.8 
		525.7,286.8 526,286.8 526.3,286.8 526.5,286.8 526.8,286.8 527,286.7 527.3,286.7 527.5,286.6 527.8,286.5 528,286.4 528.2,286.3 
		528.4,286.1 528.6,286 528.8,285.8 529,285.6 529.2,285.4 529.3,285.2 529.5,285 529.6,284.8 529.7,284.6 529.9,284.4 529.9,284.1 
		530,283.9 530.1,283.6 530.1,283.4 530.2,283.1 530.2,282.9 530.2,282.6 530.1,282.4 530.1,282.1 530.1,281.8 530,281.6 
		529.9,281.4 529.8,281.1 529.7,280.9 529.6,280.7 529.4,280.5 529.3,280.3 529.1,280.1 528.9,279.9 528.7,279.7 528.5,279.5 
		528.3,279.4 528.1,279.3 527.9,279.2 527.6,279.1 527.4,279 527.1,278.9 526.9,278.8 526.6,278.8 526.4,278.8 	"/>
</g>
<g id="ID000051">
	<line class="st4" x1="506" y1="294.9" x2="506" y2="270.7"/>
</g>
<g id="ID000052">
	<polygon class="st7" points="485.8,278.8 485.5,278.8 485.3,278.8 485,278.8 484.8,278.9 484.5,279 484.3,279.1 484,279.2 
		483.8,279.3 483.6,279.4 483.4,279.5 483.2,279.7 483,279.9 482.8,280.1 482.6,280.3 482.5,280.5 482.3,280.7 482.2,280.9 
		482.1,281.1 482,281.4 481.9,281.6 481.9,281.8 481.8,282.1 481.8,282.4 481.7,282.6 481.7,282.9 481.8,283.1 481.8,283.4 
		481.8,283.6 481.9,283.9 482,284.1 482.1,284.4 482.2,284.6 482.3,284.8 482.4,285 482.6,285.2 482.7,285.4 482.9,285.6 
		483.1,285.8 483.3,286 483.5,286.1 483.7,286.3 483.9,286.4 484.2,286.5 484.4,286.6 484.6,286.7 484.9,286.7 485.1,286.8 
		485.4,286.8 485.6,286.8 485.9,286.8 486.2,286.8 486.4,286.8 486.7,286.7 486.9,286.7 487.2,286.6 487.4,286.5 487.6,286.4 
		487.9,286.3 488.1,286.1 488.3,286 488.5,285.8 488.7,285.6 488.8,285.4 489,285.2 489.1,285 489.3,284.8 489.4,284.6 489.5,284.4 
		489.6,284.1 489.7,283.9 489.7,283.6 489.8,283.4 489.8,283.1 489.8,282.9 489.8,282.6 489.8,282.4 489.8,282.1 489.7,281.8 
		489.6,281.6 489.5,281.4 489.4,281.1 489.3,280.9 489.2,280.7 489.1,280.5 488.9,280.3 488.7,280.1 488.6,279.9 488.4,279.7 
		488.2,279.5 488,279.4 487.7,279.3 487.5,279.2 487.3,279.1 487,279 486.8,278.9 486.5,278.8 486.3,278.8 486,278.8 	"/>
</g>
<g id="ID000053">
	<line class="st4" x1="465.6" y1="294.9" x2="465.6" y2="270.7"/>
</g>
<g id="ID000054">
	<line class="st4" x1="445.4" y1="294.9" x2="445.4" y2="270.7"/>
</g>
<g id="ID000055">
	<line class="st4" x1="425.2" y1="294.9" x2="425.2" y2="270.7"/>
</g>
<g id="ID000056">
	<line class="st4" x1="405.1" y1="294.9" x2="405.1" y2="270.7"/>
</g>
<g id="ID000057">
	<line class="st4" x1="384.9" y1="294.9" x2="384.9" y2="270.7"/>
</g>
<g id="ID000058">
	<line class="st4" x1="364.7" y1="294.9" x2="364.7" y2="270.7"/>
</g>
<g id="ID000059">
	<line class="st4" x1="324.4" y1="294.9" x2="324.4" y2="270.7"/>
</g>
<g id="ID000060">
	<line class="st4" x1="304.2" y1="294.9" x2="304.2" y2="270.7"/>
</g>
<g id="ID000061">
	<line class="st4" x1="284" y1="294.9" x2="284" y2="270.7"/>
</g>
<g id="ID000062">
	<line class="st4" x1="263.8" y1="294.9" x2="263.8" y2="270.7"/>
</g>
<g id="ID000063">
	<g transform="translate(441.709,771.742)">
		<g transform="rotate(-0.0)">
			<text transform="matrix(1 0 0 1 -220.4454 -439.5084)" class="st0 st1 st2">A</text>
		</g>
	</g>
</g>
<g id="ID000064">
	<g transform="translate(414.573,735.561)">
		<g transform="rotate(-0.0)">
			<text transform="matrix(1 0 0 1 -209.0008 -423.5051)" class="st8 st1 st2">G</text>
		</g>
	</g>
</g>
<g id="ID000065">
	<g transform="translate(378.392,735.561)">
		<g transform="rotate(-0.0)">
			<text transform="matrix(1 0 0 1 -192.439 -423.5051)" class="st8 st1 st2">U</text>
		</g>
	</g>
</g>
<g id="ID000066">
	<g transform="translate(342.211,735.561)">
		<g transform="rotate(-0.0)">
			<text transform="matrix(1 0 0 1 -176.4357 -423.5051)" class="st8 st1 st2">U</text>
		</g>
	</g>
</g>
<g id="ID000067">
	<g transform="translate(342.211,663.199)">
		<g transform="rotate(-0.0)">
			<text transform="matrix(1 0 0 1 -176.4357 -391.4976)" class="st8 st1 st2">C</text>
		</g>
	</g>
</g>
<g id="ID000068">
	<g transform="translate(378.392,663.199)">
		<g transform="rotate(-0.0)">
			<text transform="matrix(1 0 0 1 -192.439 -391.4976)" class="st8 st1 st2">A</text>
		</g>
	</g>
</g>
<g id="ID000069">
	<line class="st4" x1="193.2" y1="249.2" x2="193.2" y2="235.7"/>
</g>
<g id="ID000070">
	<g transform="translate(378.392,589.631)">
		<g transform="rotate(-0.0)">
			<text transform="matrix(1 0 0 1 -196.356 -358.9579)" class="st5 st6 st2">40</text>
		</g>
	</g>
</g>
<g id="ID000071">
	<g transform="translate(414.573,663.199)">
		<g transform="rotate(-0.0)">
			<text transform="matrix(1 0 0 1 -208.4422 -391.4976)" class="st8 st1 st2">C</text>
		</g>
	</g>
</g>
<g id="ID000072">
	<line class="st4" x1="213.4" y1="294.9" x2="213.4" y2="270.7"/>
</g>
<g id="ID000073">
	<line class="st4" x1="193.2" y1="294.9" x2="193.2" y2="270.7"/>
</g>
<g id="ID000074">
	<g transform="translate(306.030,735.561)">
		<g transform="rotate(-0.0)">
			<text transform="matrix(1 0 0 1 -160.992 -423.5051)" class="st8 st1 st2">G</text>
		</g>
	</g>
</g>
<g id="ID000075">
	<g transform="translate(269.849,735.561)">
		<g transform="rotate(-0.0)">
			<text transform="matrix(1 0 0 1 -144.4301 -423.5051)" class="st8 st1 st2">C</text>
		</g>
	</g>
</g>
<g id="ID000076">
	<line class="st4" x1="132.7" y1="316.4" x2="132.7" y2="329.9"/>
</g>
<g id="ID000077">
	<g transform="translate(269.849,810.214)">
		<g transform="rotate(-0.0)">
			<text transform="matrix(1 0 0 1 -148.3452 -456.5243)" class="st5 st6 st2">30</text>
		</g>
	</g>
</g>
<g id="ID000078">
	<g transform="translate(233.668,744.606)">
		<g transform="rotate(-0.0)">
			<text transform="matrix(1 0 0 1 -128.9845 -427.5052)" class="st8 st1 st2">G</text>
		</g>
	</g>
</g>
<g id="ID000079">
	<g transform="translate(197.487,744.606)">
		<g transform="rotate(-0.0)">
			<text transform="matrix(1 0 0 1 -112.4226 -427.5052)" class="st8 st1 st2">U</text>
		</g>
	</g>
</g>
<g id="ID000080">
	<g transform="translate(161.307,717.470)">
		<g transform="rotate(-0.0)">
			<text transform="matrix(1 0 0 1 -96.4204 -415.5029)" class="st8 st1 st2">A</text>
		</g>
	</g>
</g>
<g id="ID000081">
	<g transform="translate(161.307,672.244)">
		<g transform="rotate(-0.0)">
			<text transform="matrix(1 0 0 1 -96.4204 -395.4987)" class="st8 st1 st2">U</text>
		</g>
	</g>
</g>
<g id="ID000082">
	<g transform="translate(197.487,645.108)">
		<g transform="rotate(-0.0)">
			<text transform="matrix(1 0 0 1 -112.9812 -383.4964)" class="st8 st1 st2">G</text>
		</g>
	</g>
</g>
<g id="ID000083">
	<g transform="translate(233.668,645.108)">
		<g transform="rotate(-0.0)">
			<text transform="matrix(1 0 0 1 -128.9845 -383.4964)" class="st8 st1 st2">G</text>
		</g>
	</g>
</g>
<g id="ID000084">
	<g transform="translate(269.849,663.199)">
		<g transform="rotate(-0.0)">
			<text transform="matrix(1 0 0 1 -144.9887 -391.4976)" class="st8 st1 st2">G</text>
		</g>
	</g>
</g>
<g id="ID000085">
	<g transform="translate(306.030,663.199)">
		<g transform="rotate(-0.0)">
			<text transform="matrix(1 0 0 1 -160.4334 -391.4976)" class="st8 st1 st2">U</text>
		</g>
	</g>
</g>
<g id="ID000086">
	<polygon class="st7" points="152.8,278.8 152.6,278.8 152.3,278.8 152.1,278.8 151.8,278.9 151.6,279 151.3,279.1 151.1,279.2 
		150.9,279.3 150.7,279.4 150.5,279.5 150.3,279.7 150.1,279.9 149.9,280.1 149.7,280.3 149.6,280.5 149.4,280.7 149.3,280.9 
		149.2,281.1 149.1,281.4 149,281.6 148.9,281.8 148.9,282.1 148.8,282.4 148.8,282.6 148.8,282.9 148.8,283.1 148.9,283.4 
		148.9,283.6 149,283.9 149,284.1 149.1,284.4 149.2,284.6 149.4,284.8 149.5,285 149.6,285.2 149.8,285.4 150,285.6 150.2,285.8 
		150.4,286 150.6,286.1 150.8,286.3 151,286.4 151.2,286.5 151.5,286.6 151.7,286.7 152,286.7 152.2,286.8 152.5,286.8 152.7,286.8 
		153,286.8 153.2,286.8 153.5,286.8 153.7,286.7 154,286.7 154.2,286.6 154.5,286.5 154.7,286.4 154.9,286.3 155.1,286.1 155.3,286 
		155.5,285.8 155.7,285.6 155.9,285.4 156.1,285.2 156.2,285 156.3,284.8 156.5,284.6 156.6,284.4 156.7,284.1 156.7,283.9 
		156.8,283.6 156.8,283.4 156.9,283.1 156.9,282.9 156.9,282.6 156.9,282.4 156.8,282.1 156.8,281.8 156.7,281.6 156.6,281.4 
		156.5,281.1 156.4,280.9 156.3,280.7 156.1,280.5 156,280.3 155.8,280.1 155.6,279.9 155.4,279.7 155.2,279.5 155,279.4 
		154.8,279.3 154.6,279.2 154.3,279.1 154.1,279 153.9,278.9 153.6,278.8 153.4,278.8 153.1,278.8 	"/>
</g>
<g id="ID000087">
	<line class="st4" x1="132.7" y1="294.9" x2="132.7" y2="270.7"/>
</g>
<g id="ID000088">
	<g transform="translate(1120.101,663.199)">
		<g transform="rotate(-0.0)">
			<text transform="matrix(1 0 0 1 -520.5073 -391.4976)" class="st0 st1 st2">C</text>
		</g>
	</g>
</g>
<g id="ID000089">
	<line class="st4" x1="597.3" y1="253.1" x2="587.8" y2="243.6"/>
</g>
<g id="ID000090">
	<g transform="translate(1085.989,603.760)">
		<g transform="rotate(-0.0)">
			<text transform="matrix(1 0 0 1 -520.5009 -365.207)" class="st5 st6 st2">60</text>
		</g>
	</g>
</g>
<g id="ID000091">
	<g transform="translate(1156.281,663.199)">
		<g transform="rotate(-0.0)">
			<text transform="matrix(1 0 0 1 -536.5096 -391.4976)" class="st0 st1 st2">U</text>
		</g>
	</g>
</g>
<g id="ID000092">
	<g transform="translate(1192.462,663.199)">
		<g transform="rotate(-0.0)">
			<text transform="matrix(1 0 0 1 -553.0715 -391.4976)" class="st0 st1 st2">G</text>
		</g>
	</g>
</g>
<g id="ID000093">
	<g>
		<g transform="translate(1192.462,627.018)">
			<g transform="rotate(-0.0)">
				<text transform="matrix(1 0 0 1 -553.0715 -375.4943)" class="st9 st1 st2">G</text>
			</g>
		</g>
	</g>
</g>
<g id="ID000094">
	<g>
		<g transform="translate(1192.462,590.837)">
			<g transform="rotate(-0.0)">
				<text transform="matrix(1 0 0 1 -553.0715 -359.492)" class="st9 st1 st2">G</text>
			</g>
		</g>
	</g>
</g>
<g id="ID000095">
	<g>
		<g transform="translate(1156.281,563.701)">
			<g transform="rotate(-0.0)">
				<text transform="matrix(1 0 0 1 -536.5096 -347.4888)" class="st0 st1 st2">C</text>
			</g>
		</g>
	</g>
</g>
<g id="ID000096">
	<g>
		<g transform="translate(1264.824,590.837)">
			<g transform="rotate(-0.0)">
				<text transform="matrix(1 0 0 1 -584.5204 -359.492)" class="st9 st1 st2">C</text>
			</g>
		</g>
	</g>
</g>
<g id="ID000097">
	<g>
		<g transform="translate(1264.824,627.018)">
			<g transform="rotate(-0.0)">
				<text transform="matrix(1 0 0 1 -584.5204 -375.4943)" class="st9 st1 st2">U</text>
			</g>
		</g>
	</g>
</g>
<g id="ID000098">
	<g transform="translate(1264.824,663.199)">
		<g transform="rotate(-0.0)">
			<text transform="matrix(1 0 0 1 -568.5712 -404.0041)" class="st0 st1 st2">C</text>
		</g>
	</g>
</g>
<g id="ID000099">
	<polygon class="st7" points="671.4,242.4 671.4,242.2 671.4,241.9 671.3,241.7 671.3,241.4 671.2,241.2 671.1,240.9 671,240.7 
		670.9,240.5 670.8,240.3 670.6,240.1 670.5,239.8 670.3,239.7 670.1,239.5 669.9,239.3 669.7,239.2 669.5,239 669.3,238.9 
		669.1,238.8 668.8,238.7 668.6,238.6 668.3,238.5 668.1,238.5 667.8,238.4 667.6,238.4 667.3,238.4 667.1,238.4 666.8,238.4 
		666.5,238.5 666.3,238.6 666.1,238.6 665.8,238.7 665.6,238.8 665.4,238.9 665.1,239.1 664.9,239.2 664.7,239.4 664.5,239.6 
		664.4,239.8 664.2,239.9 664.1,240.2 663.9,240.4 663.8,240.6 663.7,240.8 663.6,241.1 663.5,241.3 663.4,241.6 663.4,241.8 
		663.4,242.1 663.3,242.3 663.3,242.6 663.4,242.8 663.4,243.1 663.4,243.3 663.5,243.6 663.6,243.8 663.7,244.1 663.8,244.3 
		663.9,244.5 664.1,244.7 664.2,244.9 664.4,245.1 664.5,245.3 664.7,245.5 664.9,245.7 665.1,245.8 665.4,245.9 665.6,246.1 
		665.8,246.2 666.1,246.3 666.3,246.3 666.5,246.4 666.8,246.4 667.1,246.5 667.3,246.5 667.6,246.5 667.8,246.5 668.1,246.4 
		668.3,246.4 668.6,246.3 668.8,246.2 669.1,246.1 669.3,246 669.5,245.9 669.7,245.7 669.9,245.6 670.1,245.4 670.3,245.2 
		670.5,245 670.6,244.8 670.8,244.6 670.9,244.4 671,244.2 671.1,243.9 671.2,243.7 671.3,243.5 671.3,243.2 671.4,243 671.4,242.7 
			"/>
</g>
<g id="ID000100">
	<line class="st4" x1="655.3" y1="222.3" x2="679.5" y2="222.3"/>
</g>
<g id="ID000101">
	<g transform="translate(1192.462,545.611)">
		<g transform="rotate(-0.0)">
			<text transform="matrix(1 0 0 1 -553.0715 -339.4877)" class="st9 st1 st2">G</text>
		</g>
	</g>
</g>
<g id="ID000102">
	<g transform="translate(1192.462,509.430)">
		<g transform="rotate(-0.0)">
			<text transform="matrix(1 0 0 1 -553.0715 -323.4844)" class="st9 st1 st2">G</text>
		</g>
	</g>
</g>
<g id="ID000103">
	<g transform="translate(1192.462,473.249)">
		<g transform="rotate(-0.0)">
			<text transform="matrix(1 0 0 1 -552.5129 -307.4812)" class="st9 st1 st2">U</text>
		</g>
	</g>
</g>
<g id="ID000104">
	<g transform="translate(1192.462,437.068)">
		<g transform="rotate(-0.0)">
			<text transform="matrix(1 0 0 1 -552.5129 -291.4769)" class="st9 st1 st2">C</text>
		</g>
	</g>
</g>
<g id="ID000105">
	<g transform="translate(1192.462,400.887)">
		<g transform="rotate(-0.0)">
			<text transform="matrix(1 0 0 1 -552.5129 -275.4737)" class="st9 st1 st2">C</text>
		</g>
	</g>
</g>
<g id="ID000106">
	<line class="st4" x1="633.7" y1="116.3" x2="620.3" y2="116.3"/>
</g>
<g id="ID000107">
	<g transform="translate(1144.221,400.887)">
		<g transform="rotate(-0.0)">
			<text transform="matrix(1 0 0 1 -546.2572 -275.4737)" class="st5 st6 st2">70</text>
		</g>
	</g>
</g>
<g id="ID000108">
	<g transform="translate(1183.417,364.706)">
		<g transform="rotate(-0.0)">
			<text transform="matrix(1 0 0 1 -549.0714 -259.4704)" class="st0 st1 st2">G</text>
		</g>
	</g>
</g>
<g id="ID000109">
	<g transform="translate(1192.462,328.525)">
		<g transform="rotate(-0.0)">
			<text transform="matrix(1 0 0 1 -552.5129 -243.4671)" class="st0 st1 st2">U</text>
		</g>
	</g>
</g>
<g id="ID000110">
	<g transform="translate(1228.643,310.435)">
		<g transform="rotate(-0.0)">
			<text transform="matrix(1 0 0 1 -568.5161 -235.466)" class="st0 st1 st2">U</text>
		</g>
	</g>
</g>
<g id="ID000111">
	<g transform="translate(1264.824,328.525)">
		<g transform="rotate(-0.0)">
			<text transform="matrix(1 0 0 1 -584.5204 -243.4671)" class="st0 st1 st2">C</text>
		</g>
	</g>
</g>
<g id="ID000112">
	<g transform="translate(1273.869,364.706)">
		<g transform="rotate(-0.0)">
			<text transform="matrix(1 0 0 1 -589.0791 -259.4704)" class="st0 st1 st2">G</text>
		</g>
	</g>
</g>
<g id="ID000113">
	<g transform="translate(1264.824,400.887)">
		<g transform="rotate(-0.0)">
			<text transform="matrix(1 0 0 1 -585.079 -275.4737)" class="st9 st1 st2">G</text>
		</g>
	</g>
</g>
<g id="ID000114">
	<g transform="translate(1264.824,437.068)">
		<g transform="rotate(-0.0)">
			<text transform="matrix(1 0 0 1 -585.079 -291.4769)" class="st9 st1 st2">G</text>
		</g>
	</g>
</g>
<g id="ID000115">
	<g transform="translate(1264.824,473.249)">
		<g transform="rotate(-0.0)">
			<text transform="matrix(1 0 0 1 -584.5204 -307.4812)" class="st9 st1 st2">A</text>
		</g>
	</g>
</g>
<g id="ID000116">
	<g transform="translate(1264.824,509.430)">
		<g transform="rotate(-0.0)">
			<text transform="matrix(1 0 0 1 -584.5204 -323.4844)" class="st9 st1 st2">U</text>
		</g>
	</g>
</g>
<g id="ID000117">
	<g transform="translate(1264.824,545.611)">
		<g transform="rotate(-0.0)">
			<text transform="matrix(1 0 0 1 -584.5204 -339.4877)" class="st9 st1 st2">C</text>
		</g>
	</g>
</g>
<g id="ID000118">
	<line class="st4" x1="701" y1="197" x2="714.5" y2="197"/>
</g>
<g id="ID000119">
	<g transform="translate(1313.065,545.611)">
		<g transform="rotate(-0.0)">
			<text transform="matrix(1 0 0 1 -598.608 -339.4877)" class="st5 st6 st2">80</text>
		</g>
	</g>
</g>
<g id="ID000120">
	<line class="st4" x1="655.3" y1="197" x2="679.5" y2="197"/>
</g>
<g id="ID000121">
	<polygon class="st7" points="671.4,176.9 671.4,176.6 671.4,176.4 671.3,176.1 671.3,175.9 671.2,175.6 671.1,175.4 671,175.1 
		670.9,174.9 670.8,174.7 670.6,174.5 670.5,174.3 670.3,174.1 670.1,173.9 669.9,173.7 669.7,173.6 669.5,173.4 669.3,173.3 
		669.1,173.2 668.8,173.1 668.6,173 668.3,172.9 668.1,172.9 667.8,172.9 667.6,172.8 667.3,172.8 667.1,172.8 666.8,172.9 
		666.5,172.9 666.3,173 666.1,173.1 665.8,173.1 665.6,173.3 665.4,173.4 665.1,173.5 664.9,173.7 664.7,173.8 664.5,174 
		664.4,174.2 664.2,174.4 664.1,174.6 663.9,174.8 663.8,175 663.7,175.2 663.6,175.5 663.5,175.7 663.4,176 663.4,176.2 
		663.4,176.5 663.3,176.7 663.3,177 663.4,177.2 663.4,177.5 663.4,177.8 663.5,178 663.6,178.2 663.7,178.5 663.8,178.7 
		663.9,178.9 664.1,179.2 664.2,179.4 664.4,179.6 664.5,179.7 664.7,179.9 664.9,180.1 665.1,180.2 665.4,180.4 665.6,180.5 
		665.8,180.6 666.1,180.7 666.3,180.8 666.5,180.8 666.8,180.9 667.1,180.9 667.3,180.9 667.6,180.9 667.8,180.9 668.1,180.8 
		668.3,180.8 668.6,180.7 668.8,180.6 669.1,180.5 669.3,180.4 669.5,180.3 669.7,180.2 669.9,180 670.1,179.8 670.3,179.7 
		670.5,179.5 670.6,179.3 670.8,179 670.9,178.8 671,178.6 671.1,178.4 671.2,178.1 671.3,177.9 671.3,177.6 671.4,177.4 
		671.4,177.1 	"/>
</g>
<g id="ID000122">
	<line class="st4" x1="655.3" y1="156.7" x2="679.5" y2="156.7"/>
</g>
<g id="ID000123">
	<line class="st4" x1="655.3" y1="136.5" x2="679.5" y2="136.5"/>
</g>
<g id="ID000124">
	<line class="st4" x1="655.3" y1="116.3" x2="679.5" y2="116.3"/>
</g>
<text transform="matrix(1 0 0 1 321.9017 24.7152)" class="st5 st10 st2">A30 aptamer</text>
<text transform="matrix(1 0 0 1 700.9995 323.1499)" class="st5 st6 st2">5’</text>
<text transform="matrix(1 0 0 1 719.5722 265.6931)" class="st5 st6 st2">3’</text>
</svg>
