<?xml version="1.0" encoding="utf-8"?>
<!-- Generator: Adobe Illustrator 25.2.0, SVG Export Plug-In . SVG Version: 6.00 Build 0)  -->
<svg version="1.1" id="_图层_1" xmlns="http://www.w3.org/2000/svg" xmlns:xlink="http://www.w3.org/1999/xlink" x="0px" y="0px"
	 viewBox="0 0 800 400" style="enable-background:new 0 0 800 400;" xml:space="preserve">
<style type="text/css">
	.st0{fill:#FFAADC;}
	.st1{fill:#7F7F7F;}
	.st2{fill:none;stroke:#000000;stroke-width:0.5;stroke-linejoin:round;}
	.st3{fill:#0A0BFF;}
	.st4{fill:#80DB9E;}
	.st5{fill:#FF870A;}
	.st6{fill:#09FEFE;}
	.st7{fill:#FF0B0C;}
	.st8{fill:#FFDF5C;}
	.st9{fill:none;stroke:#000000;stroke-width:0.5;stroke-linecap:square;stroke-miterlimit:10;}
	.st10{font-family:'ArialMT';}
	.st11{font-size:20px;}
</style>
<g>
	<g>
		<defs>
			<rect id="SVGID_1_" x="90.2" y="-21.8" width="780.5" height="437.6"/>
		</defs>
		<clipPath id="SVGID_2_">
			<use xlink:href="#SVGID_1_"  style="overflow:visible;"/>
		</clipPath>
	</g>
	<path class="st0" d="M299.8,240.5l0.3,1h0.6v-4h-3.3v0.9h2.4c0,0.3,0,0.7-0.1,1c-0.1,0.3-0.3,0.6-0.5,0.8c-0.2,0.2-0.5,0.4-0.8,0.5
		c-0.3,0.1-0.7,0.2-1.1,0.2c-0.4,0-0.8-0.1-1.1-0.3c-0.3-0.2-0.6-0.4-0.8-0.7c-0.2-0.3-0.4-0.6-0.5-1c-0.1-0.4-0.2-0.8-0.2-1.1
		c0-0.4,0-0.8,0.1-1.2s0.3-0.7,0.5-1c0.2-0.3,0.5-0.5,0.8-0.7c0.3-0.2,0.7-0.3,1.2-0.3c0.3,0,0.6,0,0.8,0.1c0.3,0.1,0.5,0.2,0.7,0.3
		c0.2,0.1,0.4,0.3,0.5,0.5c0.1,0.2,0.2,0.5,0.3,0.8h1c-0.1-0.4-0.2-0.8-0.4-1.1c-0.2-0.3-0.4-0.6-0.7-0.8s-0.6-0.4-1-0.5
		c-0.4-0.1-0.8-0.1-1.2-0.1c-0.6,0-1.1,0.1-1.6,0.3c-0.5,0.2-0.8,0.5-1.1,0.9c-0.3,0.4-0.5,0.8-0.7,1.3c-0.2,0.5-0.2,1-0.2,1.6
		c0,0.5,0.1,1,0.2,1.4c0.2,0.5,0.4,0.9,0.7,1.2c0.3,0.4,0.7,0.6,1.1,0.8s1,0.3,1.5,0.3c0.4,0,0.9-0.1,1.3-0.3
		C299.1,241.2,299.5,240.9,299.8,240.5L299.8,240.5z"/>
	<path class="st0" d="M299.8,229.8l0.3,1h0.6v-4h-3.3v0.9h2.4c0,0.3,0,0.7-0.1,1c-0.1,0.3-0.3,0.6-0.5,0.8c-0.2,0.2-0.5,0.4-0.8,0.5
		c-0.3,0.1-0.7,0.2-1.1,0.2c-0.4,0-0.8-0.1-1.1-0.3c-0.3-0.2-0.6-0.4-0.8-0.7c-0.2-0.3-0.4-0.6-0.5-1c-0.1-0.4-0.2-0.8-0.2-1.1
		c0-0.4,0-0.8,0.1-1.2s0.3-0.7,0.5-1c0.2-0.3,0.5-0.5,0.8-0.7c0.3-0.2,0.7-0.3,1.2-0.3c0.3,0,0.6,0,0.8,0.1c0.3,0.1,0.5,0.2,0.7,0.3
		c0.2,0.1,0.4,0.3,0.5,0.5c0.1,0.2,0.2,0.5,0.3,0.8h1c-0.1-0.4-0.2-0.8-0.4-1.1c-0.2-0.3-0.4-0.6-0.7-0.8c-0.3-0.2-0.6-0.4-1-0.5
		c-0.4-0.1-0.8-0.1-1.2-0.1c-0.6,0-1.1,0.1-1.6,0.3c-0.5,0.2-0.8,0.5-1.1,0.9c-0.3,0.4-0.5,0.8-0.7,1.3c-0.2,0.5-0.2,1-0.2,1.6
		c0,0.5,0.1,1,0.2,1.4c0.2,0.5,0.4,0.9,0.7,1.2c0.3,0.4,0.7,0.6,1.1,0.8c0.4,0.2,1,0.3,1.5,0.3c0.4,0,0.9-0.1,1.3-0.3
		C299.1,230.5,299.5,230.2,299.8,229.8L299.8,229.8z"/>
	<path class="st0" d="M299.8,219.1l0.3,1h0.6v-4h-3.3v0.9h2.4c0,0.3,0,0.7-0.1,1c-0.1,0.3-0.3,0.6-0.5,0.8c-0.2,0.2-0.5,0.4-0.8,0.5
		c-0.3,0.1-0.7,0.2-1.1,0.2c-0.4,0-0.8-0.1-1.1-0.3c-0.3-0.2-0.6-0.4-0.8-0.7c-0.2-0.3-0.4-0.6-0.5-1c-0.1-0.4-0.2-0.8-0.2-1.1
		c0-0.4,0-0.8,0.1-1.2c0.1-0.4,0.3-0.7,0.5-1c0.2-0.3,0.5-0.5,0.8-0.7c0.3-0.2,0.7-0.3,1.2-0.3c0.3,0,0.6,0,0.8,0.1s0.5,0.2,0.7,0.3
		c0.2,0.1,0.4,0.3,0.5,0.5c0.1,0.2,0.2,0.5,0.3,0.8h1c-0.1-0.4-0.2-0.8-0.4-1.1c-0.2-0.3-0.4-0.6-0.7-0.8s-0.6-0.4-1-0.5
		c-0.4-0.1-0.8-0.1-1.2-0.1c-0.6,0-1.1,0.1-1.6,0.3c-0.5,0.2-0.8,0.5-1.1,0.9c-0.3,0.4-0.5,0.8-0.7,1.3c-0.2,0.5-0.2,1-0.2,1.6
		c0,0.5,0.1,1,0.2,1.4c0.2,0.5,0.4,0.9,0.7,1.2c0.3,0.4,0.7,0.6,1.1,0.8s1,0.3,1.5,0.3c0.4,0,0.9-0.1,1.3-0.3
		C299.1,219.8,299.5,219.5,299.8,219.1L299.8,219.1z"/>
	<path class="st1" d="M290.7,206.3l1.3-3.6h0l1.3,3.6H290.7L290.7,206.3z M291.5,201.8l-3,7.6h1l0.9-2.3h3.2l0.8,2.3h1.1l-3-7.6
		H291.5L291.5,201.8z"/>
	<path class="st1" d="M286.4,200.4l0.3,1h0.6v-4H284v0.9h2.4c0,0.3,0,0.7-0.1,1c-0.1,0.3-0.3,0.6-0.5,0.8c-0.2,0.2-0.5,0.4-0.8,0.5
		c-0.3,0.1-0.7,0.2-1.1,0.2c-0.4,0-0.8-0.1-1.1-0.3c-0.3-0.2-0.6-0.4-0.8-0.7c-0.2-0.3-0.4-0.6-0.5-1c-0.1-0.4-0.2-0.8-0.2-1.1
		c0-0.4,0-0.8,0.1-1.2s0.3-0.7,0.5-1c0.2-0.3,0.5-0.5,0.8-0.7c0.3-0.2,0.7-0.3,1.2-0.3c0.3,0,0.6,0,0.8,0.1c0.3,0.1,0.5,0.2,0.7,0.3
		c0.2,0.1,0.4,0.3,0.5,0.5c0.1,0.2,0.2,0.5,0.3,0.8h1c-0.1-0.4-0.2-0.8-0.4-1.1c-0.2-0.3-0.4-0.6-0.7-0.8c-0.3-0.2-0.6-0.4-1-0.5
		c-0.4-0.1-0.8-0.1-1.2-0.1c-0.6,0-1.1,0.1-1.6,0.3c-0.5,0.2-0.8,0.5-1.1,0.9c-0.3,0.4-0.5,0.8-0.7,1.3c-0.2,0.5-0.2,1-0.2,1.6
		c0,0.5,0.1,1,0.2,1.4c0.2,0.5,0.4,0.9,0.7,1.2c0.3,0.4,0.7,0.6,1.1,0.8c0.4,0.2,1,0.3,1.5,0.3c0.4,0,0.9-0.1,1.3-0.3
		C285.8,201.1,286.1,200.8,286.4,200.4L286.4,200.4z"/>
	<path class="st1" d="M334.9,190.6v-4.9h-1v4.9c0,0.7-0.2,1.2-0.5,1.6c-0.3,0.4-0.8,0.5-1.5,0.5c-0.7,0-1.2-0.2-1.6-0.5
		c-0.4-0.4-0.5-0.9-0.5-1.6v-4.9h-1v4.9c0,1,0.3,1.8,0.8,2.2c0.5,0.5,1.3,0.7,2.3,0.7s1.7-0.2,2.2-0.7
		C334.6,192.3,334.9,191.6,334.9,190.6L334.9,190.6z"/>
	<path class="st1" d="M325.5,203.6l1.3-3.6h0l1.3,3.6H325.5L325.5,203.6z M326.2,199.1l-3,7.6h1l0.9-2.3h3.2l0.8,2.3h1.1l-3-7.6
		H326.2L326.2,199.1z"/>
	<path class="st0" d="M320.8,214.7h1c-0.1-0.4-0.2-0.8-0.4-1.1c-0.2-0.3-0.4-0.6-0.7-0.8c-0.3-0.2-0.6-0.4-1-0.5
		c-0.4-0.1-0.7-0.2-1.1-0.2c-0.6,0-1.1,0.1-1.6,0.3c-0.5,0.2-0.8,0.5-1.1,0.9c-0.3,0.4-0.5,0.8-0.7,1.3c-0.2,0.5-0.2,1-0.2,1.6
		c0,0.6,0.1,1.1,0.2,1.6s0.4,0.9,0.7,1.3c0.3,0.4,0.7,0.6,1.1,0.8c0.4,0.2,1,0.3,1.6,0.3c1,0,1.7-0.3,2.3-0.8c0.6-0.5,0.9-1.3,1-2.2
		h-1c0,0.3-0.1,0.6-0.2,0.9c-0.1,0.3-0.3,0.5-0.4,0.7c-0.2,0.2-0.4,0.3-0.7,0.5c-0.3,0.1-0.6,0.2-0.9,0.2c-0.5,0-0.8-0.1-1.2-0.3
		c-0.3-0.2-0.6-0.4-0.8-0.7c-0.2-0.3-0.4-0.6-0.5-1c-0.1-0.4-0.1-0.8-0.1-1.2c0-0.4,0-0.8,0.1-1.2c0.1-0.4,0.3-0.7,0.5-1
		s0.5-0.5,0.8-0.7c0.3-0.2,0.7-0.3,1.2-0.3c0.5,0,1,0.1,1.4,0.4S320.7,214.2,320.8,214.7L320.8,214.7z"/>
	<path class="st0" d="M320.8,225.4h1c-0.1-0.4-0.2-0.8-0.4-1.1c-0.2-0.3-0.4-0.6-0.7-0.8c-0.3-0.2-0.6-0.4-1-0.5
		c-0.4-0.1-0.7-0.2-1.1-0.2c-0.6,0-1.1,0.1-1.6,0.3c-0.5,0.2-0.8,0.5-1.1,0.9c-0.3,0.4-0.5,0.8-0.7,1.3c-0.2,0.5-0.2,1-0.2,1.6
		c0,0.6,0.1,1.1,0.2,1.6s0.4,0.9,0.7,1.3c0.3,0.4,0.7,0.6,1.1,0.8c0.4,0.2,1,0.3,1.6,0.3c1,0,1.7-0.3,2.3-0.8c0.6-0.5,0.9-1.3,1-2.2
		h-1c0,0.3-0.1,0.6-0.2,0.9c-0.1,0.3-0.3,0.5-0.4,0.7c-0.2,0.2-0.4,0.3-0.7,0.5c-0.3,0.1-0.6,0.2-0.9,0.2c-0.5,0-0.8-0.1-1.2-0.3
		c-0.3-0.2-0.6-0.4-0.8-0.7c-0.2-0.3-0.4-0.6-0.5-1c-0.1-0.4-0.1-0.8-0.1-1.2c0-0.4,0-0.8,0.1-1.2c0.1-0.4,0.3-0.7,0.5-1
		c0.2-0.3,0.5-0.5,0.8-0.7c0.3-0.2,0.7-0.3,1.2-0.3c0.5,0,1,0.1,1.4,0.4S320.7,224.9,320.8,225.4L320.8,225.4z"/>
	<path class="st0" d="M320.8,236.1h1c-0.1-0.4-0.2-0.8-0.4-1.1c-0.2-0.3-0.4-0.6-0.7-0.8c-0.3-0.2-0.6-0.4-1-0.5
		c-0.4-0.1-0.7-0.2-1.1-0.2c-0.6,0-1.1,0.1-1.6,0.3c-0.5,0.2-0.8,0.5-1.1,0.9c-0.3,0.4-0.5,0.8-0.7,1.3c-0.2,0.5-0.2,1-0.2,1.6
		c0,0.6,0.1,1.1,0.2,1.6s0.4,0.9,0.7,1.3c0.3,0.4,0.7,0.6,1.1,0.8c0.4,0.2,1,0.3,1.6,0.3c1,0,1.7-0.3,2.3-0.8c0.6-0.5,0.9-1.3,1-2.2
		h-1c0,0.3-0.1,0.6-0.2,0.9c-0.1,0.3-0.3,0.5-0.4,0.7c-0.2,0.2-0.4,0.3-0.7,0.5c-0.3,0.1-0.6,0.2-0.9,0.2c-0.5,0-0.8-0.1-1.2-0.3
		c-0.3-0.2-0.6-0.4-0.8-0.7c-0.2-0.3-0.4-0.6-0.5-1c-0.1-0.4-0.1-0.8-0.1-1.2c0-0.4,0-0.8,0.1-1.2c0.1-0.4,0.3-0.7,0.5-1
		s0.5-0.5,0.8-0.7c0.3-0.2,0.7-0.3,1.2-0.3c0.5,0,1,0.1,1.4,0.4S320.7,235.6,320.8,236.1L320.8,236.1z"/>
	<path class="st1" d="M317.4,249l1.3-3.6h0l1.3,3.6H317.4L317.4,249z M318.2,244.5l-3,7.6h1l0.9-2.3h3.2l0.8,2.3h1.1l-3-7.6H318.2
		L318.2,244.5z"/>
	<g>
		<line class="st2" x1="301.7" y1="237.6" x2="314.5" y2="237.6"/>
		<line class="st2" x1="301.7" y1="226.9" x2="314.5" y2="226.9"/>
		<line class="st2" x1="301.7" y1="216.3" x2="314.5" y2="216.3"/>
	</g>
	<path class="st3" d="M299.4,110.6h1c-0.1-0.4-0.2-0.8-0.4-1.1c-0.2-0.3-0.4-0.6-0.7-0.8c-0.3-0.2-0.6-0.4-1-0.5
		c-0.4-0.1-0.7-0.2-1.1-0.2c-0.6,0-1.1,0.1-1.6,0.3s-0.8,0.5-1.1,0.9c-0.3,0.4-0.5,0.8-0.7,1.3c-0.2,0.5-0.2,1-0.2,1.6
		s0.1,1.1,0.2,1.6c0.1,0.5,0.4,0.9,0.7,1.3c0.3,0.4,0.7,0.6,1.1,0.8c0.4,0.2,1,0.3,1.6,0.3c1,0,1.7-0.3,2.3-0.8
		c0.6-0.5,0.9-1.3,1-2.2h-1c0,0.3-0.1,0.6-0.2,0.9c-0.1,0.3-0.3,0.5-0.4,0.7c-0.2,0.2-0.4,0.3-0.7,0.5c-0.3,0.1-0.6,0.2-0.9,0.2
		c-0.5,0-0.8-0.1-1.2-0.3s-0.6-0.4-0.8-0.7c-0.2-0.3-0.4-0.6-0.5-1c-0.1-0.4-0.1-0.8-0.1-1.2c0-0.4,0-0.8,0.1-1.2
		c0.1-0.4,0.3-0.7,0.5-1s0.5-0.5,0.8-0.7c0.3-0.2,0.7-0.3,1.2-0.3c0.5,0,1,0.1,1.4,0.4S299.3,110.1,299.4,110.6L299.4,110.6z"/>
	<path class="st3" d="M300.2,102.5v-4.9h-1v4.9c0,0.7-0.2,1.2-0.5,1.6c-0.3,0.4-0.8,0.5-1.5,0.5c-0.7,0-1.2-0.2-1.6-0.5
		c-0.4-0.4-0.5-0.9-0.5-1.6v-4.9h-1v4.9c0,1,0.3,1.8,0.8,2.2c0.5,0.5,1.3,0.7,2.3,0.7s1.7-0.2,2.2-0.7
		C299.9,104.2,300.2,103.5,300.2,102.5L300.2,102.5z"/>
	<path class="st3" d="M299.8,93.6l0.3,1h0.6v-4h-3.3v0.9h2.4c0,0.3,0,0.7-0.1,1c-0.1,0.3-0.3,0.6-0.5,0.8c-0.2,0.2-0.5,0.4-0.8,0.5
		c-0.3,0.1-0.7,0.2-1.1,0.2c-0.4,0-0.8-0.1-1.1-0.3c-0.3-0.2-0.6-0.4-0.8-0.7c-0.2-0.3-0.4-0.6-0.5-1c-0.1-0.4-0.2-0.8-0.2-1.1
		c0-0.4,0-0.8,0.1-1.2c0.1-0.4,0.3-0.7,0.5-1c0.2-0.3,0.5-0.5,0.8-0.7c0.3-0.2,0.7-0.3,1.2-0.3c0.3,0,0.6,0,0.8,0.1
		c0.3,0.1,0.5,0.2,0.7,0.3c0.2,0.1,0.4,0.3,0.5,0.5c0.1,0.2,0.2,0.5,0.3,0.8h1c-0.1-0.4-0.2-0.8-0.4-1.1c-0.2-0.3-0.4-0.6-0.7-0.8
		s-0.6-0.4-1-0.5c-0.4-0.1-0.8-0.1-1.2-0.1c-0.6,0-1.1,0.1-1.6,0.3c-0.5,0.2-0.8,0.5-1.1,0.9c-0.3,0.4-0.5,0.8-0.7,1.3
		c-0.2,0.5-0.2,1-0.2,1.6c0,0.5,0.1,1,0.2,1.4c0.2,0.5,0.4,0.9,0.7,1.2c0.3,0.4,0.7,0.6,1.1,0.8c0.4,0.2,1,0.3,1.5,0.3
		c0.4,0,0.9-0.1,1.3-0.3C299.1,94.3,299.5,94.1,299.8,93.6L299.8,93.6z"/>
	<path class="st3" d="M299.4,78.6h1c-0.1-0.4-0.2-0.8-0.4-1.1c-0.2-0.3-0.4-0.6-0.7-0.8c-0.3-0.2-0.6-0.4-1-0.5
		c-0.4-0.1-0.7-0.2-1.1-0.2c-0.6,0-1.1,0.1-1.6,0.3c-0.5,0.2-0.8,0.5-1.1,0.9c-0.3,0.4-0.5,0.8-0.7,1.3c-0.2,0.5-0.2,1-0.2,1.6
		c0,0.6,0.1,1.1,0.2,1.6c0.1,0.5,0.4,0.9,0.7,1.3c0.3,0.4,0.7,0.6,1.1,0.8c0.4,0.2,1,0.3,1.6,0.3c1,0,1.7-0.3,2.3-0.8
		c0.6-0.5,0.9-1.3,1-2.2h-1c0,0.3-0.1,0.6-0.2,0.9c-0.1,0.3-0.3,0.5-0.4,0.7c-0.2,0.2-0.4,0.3-0.7,0.5c-0.3,0.1-0.6,0.2-0.9,0.2
		c-0.5,0-0.8-0.1-1.2-0.3s-0.6-0.4-0.8-0.7c-0.2-0.3-0.4-0.6-0.5-1c-0.1-0.4-0.1-0.8-0.1-1.2c0-0.4,0-0.8,0.1-1.2
		c0.1-0.4,0.3-0.7,0.5-1s0.5-0.5,0.8-0.7c0.3-0.2,0.7-0.3,1.2-0.3c0.5,0,1,0.1,1.4,0.4S299.3,78.1,299.4,78.6L299.4,78.6z"/>
	<path class="st3" d="M299.4,67.9h1c-0.1-0.4-0.2-0.8-0.4-1.1c-0.2-0.3-0.4-0.6-0.7-0.8c-0.3-0.2-0.6-0.4-1-0.5
		c-0.4-0.1-0.7-0.2-1.1-0.2c-0.6,0-1.1,0.1-1.6,0.3c-0.5,0.2-0.8,0.5-1.1,0.9c-0.3,0.4-0.5,0.8-0.7,1.3c-0.2,0.5-0.2,1-0.2,1.6
		s0.1,1.1,0.2,1.6c0.1,0.5,0.4,0.9,0.7,1.3c0.3,0.4,0.7,0.6,1.1,0.8c0.4,0.2,1,0.3,1.6,0.3c1,0,1.7-0.3,2.3-0.8
		c0.6-0.5,0.9-1.3,1-2.2h-1c0,0.3-0.1,0.6-0.2,0.9c-0.1,0.3-0.3,0.5-0.4,0.7c-0.2,0.2-0.4,0.3-0.7,0.5c-0.3,0.1-0.6,0.2-0.9,0.2
		c-0.5,0-0.8-0.1-1.2-0.3s-0.6-0.4-0.8-0.7c-0.2-0.3-0.4-0.6-0.5-1c-0.1-0.4-0.1-0.8-0.1-1.2c0-0.4,0-0.8,0.1-1.2
		c0.1-0.4,0.3-0.7,0.5-1c0.2-0.3,0.5-0.5,0.8-0.7c0.3-0.2,0.7-0.3,1.2-0.3c0.5,0,1,0.1,1.4,0.4S299.3,67.4,299.4,67.9L299.4,67.9z"
		/>
	<path class="st1" d="M290.7,59.4l1.3-3.6h0l1.3,3.6H290.7L290.7,59.4z M291.5,54.9l-3,7.6h1l0.9-2.3h3.2l0.8,2.3h1.1l-3-7.6H291.5
		L291.5,54.9z"/>
	<path class="st1" d="M300.2,46.5v-4.9h-1v4.9c0,0.7-0.2,1.2-0.5,1.6c-0.3,0.4-0.8,0.5-1.5,0.5c-0.7,0-1.2-0.2-1.6-0.5
		c-0.4-0.4-0.5-0.9-0.5-1.6v-4.9h-1v4.9c0,1,0.3,1.8,0.8,2.2c0.5,0.5,1.3,0.7,2.3,0.7s1.7-0.2,2.2-0.7
		C299.9,48.2,300.2,47.4,300.2,46.5L300.2,46.5z"/>
	<path class="st1" d="M310.1,38.5h1c-0.1-0.4-0.2-0.8-0.4-1.1c-0.2-0.3-0.4-0.6-0.7-0.8c-0.3-0.2-0.6-0.4-1-0.5
		c-0.4-0.1-0.7-0.2-1.1-0.2c-0.6,0-1.1,0.1-1.6,0.3c-0.5,0.2-0.8,0.5-1.1,0.9c-0.3,0.4-0.5,0.8-0.7,1.3c-0.2,0.5-0.2,1-0.2,1.6
		s0.1,1.1,0.2,1.6s0.4,0.9,0.7,1.3c0.3,0.4,0.7,0.6,1.1,0.8c0.4,0.2,1,0.3,1.6,0.3c1,0,1.7-0.3,2.3-0.8c0.6-0.5,0.9-1.3,1-2.2h-1
		c0,0.3-0.1,0.6-0.2,0.9c-0.1,0.3-0.3,0.5-0.4,0.7c-0.2,0.2-0.4,0.3-0.7,0.5c-0.3,0.1-0.6,0.2-0.9,0.2c-0.5,0-0.8-0.1-1.2-0.3
		c-0.3-0.2-0.6-0.4-0.8-0.7c-0.2-0.3-0.4-0.6-0.5-1c-0.1-0.4-0.1-0.8-0.1-1.2c0-0.4,0-0.8,0.1-1.2s0.3-0.7,0.5-1
		c0.2-0.3,0.5-0.5,0.8-0.7c0.3-0.2,0.7-0.3,1.2-0.3c0.5,0,1,0.1,1.4,0.4C309.7,37.6,310,38,310.1,38.5L310.1,38.5z"/>
	<line class="st2" x1="308.1" y1="32.9" x2="308.1" y2="25.8"/>
	<path d="M302.3,18.1h0.9c0-0.2,0-0.5,0.1-0.7c0.1-0.2,0.1-0.4,0.3-0.6c0.1-0.2,0.3-0.3,0.5-0.4s0.4-0.2,0.7-0.2
		c0.2,0,0.4,0,0.6,0.1c0.2,0.1,0.3,0.2,0.5,0.3c0.1,0.1,0.2,0.3,0.3,0.4c0.1,0.2,0.1,0.4,0.1,0.6c0,0.3,0,0.5-0.1,0.7
		c-0.1,0.2-0.2,0.4-0.4,0.6s-0.4,0.3-0.6,0.5c-0.2,0.2-0.5,0.3-0.8,0.5c-0.3,0.2-0.5,0.3-0.8,0.5c-0.2,0.2-0.5,0.4-0.7,0.6
		c-0.2,0.2-0.3,0.5-0.5,0.8s-0.2,0.7-0.2,1.1h4.9v-0.8h-3.9c0-0.2,0.1-0.4,0.3-0.6c0.1-0.2,0.3-0.3,0.5-0.5c0.2-0.2,0.4-0.3,0.6-0.4
		s0.5-0.3,0.7-0.4c0.2-0.1,0.5-0.3,0.7-0.5c0.2-0.2,0.4-0.3,0.6-0.5c0.2-0.2,0.3-0.4,0.4-0.7c0.1-0.3,0.2-0.5,0.2-0.9
		c0-0.4-0.1-0.7-0.2-0.9s-0.3-0.5-0.5-0.7c-0.2-0.2-0.5-0.3-0.8-0.4c-0.3-0.1-0.6-0.1-0.9-0.1c-0.4,0-0.8,0.1-1.1,0.2
		c-0.3,0.1-0.6,0.3-0.8,0.6c-0.2,0.2-0.4,0.5-0.5,0.8C302.3,17.4,302.3,17.8,302.3,18.1L302.3,18.1z M309.2,19.3c0-0.2,0-0.4,0-0.6
		s0-0.4,0.1-0.7c0-0.2,0.1-0.4,0.1-0.7c0.1-0.2,0.1-0.4,0.3-0.6s0.3-0.3,0.4-0.4c0.2-0.1,0.4-0.1,0.7-0.1s0.5,0,0.7,0.1
		c0.2,0.1,0.3,0.2,0.4,0.4c0.1,0.2,0.2,0.3,0.3,0.6c0.1,0.2,0.1,0.4,0.1,0.7c0,0.2,0,0.4,0.1,0.7c0,0.2,0,0.4,0,0.6c0,0.3,0,0.6,0,1
		c0,0.4-0.1,0.7-0.2,1c-0.1,0.3-0.3,0.6-0.5,0.8c-0.2,0.2-0.5,0.3-0.9,0.3c-0.4,0-0.7-0.1-0.9-0.3c-0.2-0.2-0.4-0.5-0.5-0.8
		c-0.1-0.3-0.2-0.6-0.2-1C309.2,19.9,309.2,19.6,309.2,19.3L309.2,19.3z M308.2,19.3c0,0.3,0,0.6,0,0.9s0,0.6,0.1,0.9
		c0.1,0.3,0.1,0.6,0.2,0.8c0.1,0.3,0.3,0.5,0.4,0.7c0.2,0.2,0.4,0.3,0.7,0.5c0.3,0.1,0.6,0.2,1,0.2c0.4,0,0.7-0.1,1-0.2
		c0.3-0.1,0.5-0.3,0.7-0.5c0.2-0.2,0.3-0.4,0.4-0.7c0.1-0.3,0.2-0.5,0.2-0.8c0.1-0.3,0.1-0.6,0.1-0.9c0-0.3,0-0.6,0-0.9s0-0.6,0-0.9
		s0-0.6-0.1-0.9c-0.1-0.3-0.1-0.6-0.2-0.8c-0.1-0.3-0.3-0.5-0.4-0.7c-0.2-0.2-0.4-0.3-0.7-0.5c-0.3-0.1-0.6-0.2-1-0.2
		s-0.7,0.1-1,0.2c-0.3,0.1-0.5,0.3-0.7,0.5c-0.2,0.2-0.3,0.4-0.4,0.7s-0.2,0.5-0.2,0.8c-0.1,0.3-0.1,0.6-0.1,0.9
		C308.2,18.7,308.2,19,308.2,19.3L308.2,19.3z"/>
	<path class="st1" d="M324.2,46.5v-4.9h-1v4.9c0,0.7-0.2,1.2-0.5,1.6c-0.3,0.4-0.8,0.5-1.5,0.5c-0.7,0-1.2-0.2-1.6-0.5
		c-0.4-0.4-0.5-0.9-0.5-1.6v-4.9h-1v4.9c0,1,0.3,1.8,0.8,2.2c0.5,0.5,1.3,0.7,2.3,0.7c1,0,1.7-0.2,2.2-0.7
		C323.9,48.2,324.2,47.4,324.2,46.5L324.2,46.5z"/>
	<path class="st1" d="M322.8,59.4l1.3-3.6h0l1.3,3.6H322.8L322.8,59.4z M323.5,54.9l-3,7.6h1l0.9-2.3h3.2l0.8,2.3h1.1l-3-7.6H323.5
		L323.5,54.9z"/>
	<path class="st3" d="M321.1,72.3l0.3,1h0.6v-4h-3.3v0.9h2.4c0,0.3,0,0.7-0.1,1c-0.1,0.3-0.3,0.6-0.5,0.8c-0.2,0.2-0.5,0.4-0.8,0.5
		c-0.3,0.1-0.7,0.2-1.1,0.2c-0.4,0-0.8-0.1-1.1-0.3c-0.3-0.2-0.6-0.4-0.8-0.7c-0.2-0.3-0.4-0.6-0.5-1c-0.1-0.4-0.2-0.8-0.2-1.1
		c0-0.4,0-0.8,0.1-1.2c0.1-0.4,0.3-0.7,0.5-1c0.2-0.3,0.5-0.5,0.8-0.7c0.3-0.2,0.7-0.3,1.2-0.3c0.3,0,0.6,0,0.8,0.1
		c0.3,0.1,0.5,0.2,0.7,0.3c0.2,0.1,0.4,0.3,0.5,0.5c0.1,0.2,0.2,0.5,0.3,0.8h1c-0.1-0.4-0.2-0.8-0.4-1.1c-0.2-0.3-0.4-0.6-0.7-0.8
		s-0.6-0.4-1-0.5c-0.4-0.1-0.8-0.1-1.2-0.1c-0.6,0-1.1,0.1-1.6,0.3c-0.5,0.2-0.8,0.5-1.1,0.9c-0.3,0.4-0.5,0.8-0.7,1.3
		c-0.2,0.5-0.2,1-0.2,1.6c0,0.5,0.1,1,0.2,1.4c0.2,0.5,0.4,0.9,0.7,1.2c0.3,0.4,0.7,0.6,1.1,0.8c0.4,0.2,1,0.3,1.5,0.3
		c0.4,0,0.9-0.1,1.3-0.3C320.5,73,320.8,72.7,321.1,72.3L321.1,72.3z"/>
	<path class="st3" d="M321.1,83l0.3,1h0.6v-4h-3.3v0.9h2.4c0,0.3,0,0.7-0.1,1c-0.1,0.3-0.3,0.6-0.5,0.8c-0.2,0.2-0.5,0.4-0.8,0.5
		c-0.3,0.1-0.7,0.2-1.1,0.2c-0.4,0-0.8-0.1-1.1-0.3c-0.3-0.2-0.6-0.4-0.8-0.7c-0.2-0.3-0.4-0.6-0.5-1c-0.1-0.4-0.2-0.8-0.2-1.1
		c0-0.4,0-0.8,0.1-1.2c0.1-0.4,0.3-0.7,0.5-1c0.2-0.3,0.5-0.5,0.8-0.7c0.3-0.2,0.7-0.3,1.2-0.3c0.3,0,0.6,0,0.8,0.1
		c0.3,0.1,0.5,0.2,0.7,0.3c0.2,0.1,0.4,0.3,0.5,0.5s0.2,0.5,0.3,0.8h1c-0.1-0.4-0.2-0.8-0.4-1.1c-0.2-0.3-0.4-0.6-0.7-0.8
		s-0.6-0.4-1-0.5c-0.4-0.1-0.8-0.1-1.2-0.1c-0.6,0-1.1,0.1-1.6,0.3c-0.5,0.2-0.8,0.5-1.1,0.9c-0.3,0.4-0.5,0.8-0.7,1.3
		c-0.2,0.5-0.2,1-0.2,1.6c0,0.5,0.1,1,0.2,1.4c0.2,0.5,0.4,0.9,0.7,1.2c0.3,0.4,0.7,0.6,1.1,0.8c0.4,0.2,1,0.3,1.5,0.3
		c0.4,0,0.9-0.1,1.3-0.3C320.5,83.7,320.8,83.4,321.1,83L321.1,83z"/>
	<path class="st3" d="M320.8,89.3h1c-0.1-0.4-0.2-0.8-0.4-1.1c-0.2-0.3-0.4-0.6-0.7-0.8c-0.3-0.2-0.6-0.4-1-0.5
		c-0.4-0.1-0.7-0.2-1.1-0.2c-0.6,0-1.1,0.1-1.6,0.3c-0.5,0.2-0.8,0.5-1.1,0.9c-0.3,0.4-0.5,0.8-0.7,1.3c-0.2,0.5-0.2,1-0.2,1.6
		s0.1,1.1,0.2,1.6s0.4,0.9,0.7,1.3c0.3,0.4,0.7,0.6,1.1,0.8c0.4,0.2,1,0.3,1.6,0.3c1,0,1.7-0.3,2.3-0.8c0.6-0.5,0.9-1.3,1-2.2h-1
		c0,0.3-0.1,0.6-0.2,0.9c-0.1,0.3-0.3,0.5-0.4,0.7c-0.2,0.2-0.4,0.3-0.7,0.5c-0.3,0.1-0.6,0.2-0.9,0.2c-0.5,0-0.8-0.1-1.2-0.3
		c-0.3-0.2-0.6-0.4-0.8-0.7c-0.2-0.3-0.4-0.6-0.5-1c-0.1-0.4-0.1-0.8-0.1-1.2c0-0.4,0-0.8,0.1-1.2c0.1-0.4,0.3-0.7,0.5-1
		s0.5-0.5,0.8-0.7c0.3-0.2,0.7-0.3,1.2-0.3c0.5,0,1,0.1,1.4,0.4S320.7,88.7,320.8,89.3L320.8,89.3z"/>
	<path class="st3" d="M317.4,102.1l1.3-3.6h0l1.3,3.6H317.4L317.4,102.1z M318.2,97.7l-3,7.6h1l0.9-2.3h3.2l0.8,2.3h1.1l-3-7.6
		H318.2L318.2,97.7z"/>
	<path class="st3" d="M321.1,115l0.3,1h0.6v-4h-3.3v0.9h2.4c0,0.3,0,0.7-0.1,1c-0.1,0.3-0.3,0.6-0.5,0.8c-0.2,0.2-0.5,0.4-0.8,0.5
		c-0.3,0.1-0.7,0.2-1.1,0.2c-0.4,0-0.8-0.1-1.1-0.3c-0.3-0.2-0.6-0.4-0.8-0.7c-0.2-0.3-0.4-0.6-0.5-1c-0.1-0.4-0.2-0.8-0.2-1.1
		c0-0.4,0-0.8,0.1-1.2c0.1-0.4,0.3-0.7,0.5-1c0.2-0.3,0.5-0.5,0.8-0.7c0.3-0.2,0.7-0.3,1.2-0.3c0.3,0,0.6,0,0.8,0.1
		c0.3,0.1,0.5,0.2,0.7,0.3c0.2,0.1,0.4,0.3,0.5,0.5c0.1,0.2,0.2,0.5,0.3,0.8h1c-0.1-0.4-0.2-0.8-0.4-1.1c-0.2-0.3-0.4-0.6-0.7-0.8
		c-0.3-0.2-0.6-0.4-1-0.5c-0.4-0.1-0.8-0.1-1.2-0.1c-0.6,0-1.1,0.1-1.6,0.3c-0.5,0.2-0.8,0.5-1.1,0.9c-0.3,0.4-0.5,0.8-0.7,1.3
		c-0.2,0.5-0.2,1-0.2,1.6c0,0.5,0.1,1,0.2,1.4c0.2,0.5,0.4,0.9,0.7,1.2c0.3,0.4,0.7,0.6,1.1,0.8c0.4,0.2,1,0.3,1.5,0.3
		c0.4,0,0.9-0.1,1.3-0.3C320.5,115.7,320.8,115.4,321.1,115L321.1,115z"/>
	<path class="st1" d="M330.8,112.8l1.3-3.6h0l1.3,3.6H330.8L330.8,112.8z M331.6,108.3l-3,7.6h1l0.9-2.3h3.2l0.8,2.3h1.1l-3-7.6
		H331.6L331.6,108.3z"/>
	<g>
		<line class="st2" x1="301.7" y1="112.1" x2="314.5" y2="112.1"/>
		<line class="st2" x1="301.7" y1="101.5" x2="314.5" y2="101.5"/>
		<line class="st2" x1="301.7" y1="90.8" x2="314.5" y2="90.8"/>
		<line class="st2" x1="301.7" y1="80.1" x2="314.5" y2="80.1"/>
		<line class="st2" x1="301.7" y1="69.4" x2="314.5" y2="69.4"/>
	</g>
	<path class="st4" d="M348.2,107.9V103h-1v4.9c0,0.7-0.2,1.2-0.5,1.6c-0.3,0.4-0.8,0.5-1.5,0.5c-0.7,0-1.2-0.2-1.6-0.5
		c-0.4-0.4-0.5-0.9-0.5-1.6V103h-1v4.9c0,1,0.3,1.8,0.8,2.2c0.5,0.5,1.3,0.7,2.3,0.7c1,0,1.7-0.2,2.2-0.7
		C348,109.6,348.2,108.8,348.2,107.9L348.2,107.9z"/>
	<path class="st4" d="M358.2,105.3h1c-0.1-0.4-0.2-0.8-0.4-1.1c-0.2-0.3-0.4-0.6-0.7-0.8c-0.3-0.2-0.6-0.4-1-0.5
		c-0.4-0.1-0.7-0.2-1.1-0.2c-0.6,0-1.1,0.1-1.6,0.3c-0.5,0.2-0.8,0.5-1.1,0.9c-0.3,0.4-0.5,0.8-0.7,1.3c-0.2,0.5-0.2,1-0.2,1.6
		s0.1,1.1,0.2,1.6s0.4,0.9,0.7,1.3c0.3,0.4,0.7,0.6,1.1,0.8c0.4,0.2,1,0.3,1.6,0.3c1,0,1.7-0.3,2.3-0.8c0.6-0.5,0.9-1.3,1-2.2h-1
		c0,0.3-0.1,0.6-0.2,0.9c-0.1,0.3-0.3,0.5-0.4,0.7c-0.2,0.2-0.4,0.3-0.7,0.5c-0.3,0.1-0.6,0.2-0.9,0.2c-0.5,0-0.8-0.1-1.2-0.3
		c-0.3-0.2-0.6-0.4-0.8-0.7c-0.2-0.3-0.4-0.6-0.5-1c-0.1-0.4-0.1-0.8-0.1-1.2c0-0.4,0-0.8,0.1-1.2c0.1-0.4,0.3-0.7,0.5-1
		s0.5-0.5,0.8-0.7c0.3-0.2,0.7-0.3,1.2-0.3c0.5,0,1,0.1,1.4,0.4S358,104.7,358.2,105.3L358.2,105.3z"/>
	<line class="st2" x1="356.2" y1="99.7" x2="356.2" y2="92.5"/>
	<path d="M352.2,85.4v0.8c0.2,0,0.4,0,0.5,0c0.2,0,0.4,0,0.6,0.1c0.2,0.1,0.4,0.2,0.5,0.3c0.1,0.1,0.3,0.3,0.3,0.5
		c0.1,0.2,0.1,0.4,0.1,0.6c0,0.2,0,0.4-0.1,0.6c-0.1,0.2-0.2,0.3-0.4,0.5c-0.1,0.1-0.3,0.2-0.5,0.3c-0.2,0.1-0.4,0.1-0.6,0.1
		c-0.5,0-0.9-0.2-1.2-0.5c-0.3-0.3-0.4-0.7-0.4-1.2h-0.9c0,0.4,0,0.7,0.2,1c0.1,0.3,0.3,0.6,0.5,0.8c0.2,0.2,0.5,0.4,0.8,0.5
		c0.3,0.1,0.7,0.2,1,0.2c0.4,0,0.7,0,1-0.1c0.3-0.1,0.6-0.2,0.8-0.4c0.2-0.2,0.4-0.4,0.6-0.7c0.1-0.3,0.2-0.6,0.2-1
		c0-0.5-0.1-0.8-0.3-1.2c-0.2-0.3-0.6-0.5-1-0.7v0c0.3-0.1,0.5-0.3,0.7-0.6c0.2-0.3,0.3-0.6,0.3-0.9c0-0.3-0.1-0.7-0.2-0.9
		c-0.1-0.3-0.3-0.5-0.5-0.6c-0.2-0.2-0.5-0.3-0.7-0.4c-0.3-0.1-0.6-0.1-0.9-0.1c-0.4,0-0.7,0.1-1,0.2c-0.3,0.1-0.5,0.3-0.7,0.5
		c-0.2,0.2-0.3,0.5-0.4,0.8c-0.1,0.3-0.2,0.6-0.2,1h0.9c0-0.2,0-0.4,0.1-0.6c0.1-0.2,0.1-0.4,0.3-0.5c0.1-0.1,0.3-0.3,0.4-0.4
		c0.2-0.1,0.4-0.1,0.6-0.1c0.4,0,0.7,0.1,1,0.3s0.4,0.5,0.4,0.9c0,0.2,0,0.4-0.1,0.5c-0.1,0.2-0.2,0.3-0.3,0.4
		c-0.1,0.1-0.3,0.2-0.5,0.2c-0.2,0.1-0.4,0.1-0.5,0.1L352.2,85.4C352.3,85.5,352.2,85.5,352.2,85.4L352.2,85.4z M357.2,86
		c0-0.2,0-0.4,0-0.6c0-0.2,0-0.4,0.1-0.7c0-0.2,0.1-0.4,0.1-0.7c0.1-0.2,0.1-0.4,0.3-0.6c0.1-0.2,0.3-0.3,0.4-0.4
		c0.2-0.1,0.4-0.1,0.7-0.1s0.5,0,0.7,0.1c0.2,0.1,0.3,0.2,0.4,0.4c0.1,0.2,0.2,0.3,0.3,0.6c0.1,0.2,0.1,0.4,0.1,0.7s0,0.4,0.1,0.7
		c0,0.2,0,0.4,0,0.6c0,0.3,0,0.6,0,1c0,0.4-0.1,0.7-0.2,1c-0.1,0.3-0.3,0.6-0.5,0.8s-0.5,0.3-0.9,0.3c-0.4,0-0.7-0.1-0.9-0.3
		c-0.2-0.2-0.4-0.5-0.5-0.8c-0.1-0.3-0.2-0.6-0.2-1C357.2,86.6,357.2,86.3,357.2,86L357.2,86z M356.3,86.1c0,0.3,0,0.6,0,0.9
		c0,0.3,0,0.6,0.1,0.9c0.1,0.3,0.1,0.6,0.2,0.8c0.1,0.3,0.3,0.5,0.4,0.7s0.4,0.3,0.7,0.5c0.3,0.1,0.6,0.2,1,0.2c0.4,0,0.7-0.1,1-0.2
		s0.5-0.3,0.7-0.5c0.2-0.2,0.3-0.4,0.4-0.7c0.1-0.3,0.2-0.5,0.2-0.8c0.1-0.3,0.1-0.6,0.1-0.9s0-0.6,0-0.9s0-0.6,0-0.9
		c0-0.3,0-0.6-0.1-0.9c-0.1-0.3-0.1-0.6-0.2-0.8c-0.1-0.3-0.3-0.5-0.4-0.7c-0.2-0.2-0.4-0.3-0.7-0.5c-0.3-0.1-0.6-0.2-1-0.2
		s-0.7,0.1-1,0.2c-0.3,0.1-0.5,0.3-0.7,0.5c-0.2,0.2-0.3,0.4-0.4,0.7s-0.2,0.5-0.2,0.8c-0.1,0.3-0.1,0.6-0.1,0.9
		C356.3,85.5,356.3,85.8,356.3,86.1L356.3,86.1z"/>
	<path class="st1" d="M362.8,99.5l1.3-3.6h0l1.3,3.6H362.8L362.8,99.5z M363.6,95l-3,7.6h1l0.9-2.3h3.2l0.8,2.3h1.1l-3-7.6H363.6
		L363.6,95z"/>
	<path class="st4" d="M358.5,131l0.3,1h0.6v-4h-3.3v0.9h2.4c0,0.3,0,0.7-0.1,1c-0.1,0.3-0.3,0.6-0.5,0.8c-0.2,0.2-0.5,0.4-0.8,0.5
		c-0.3,0.1-0.7,0.2-1.1,0.2c-0.4,0-0.8-0.1-1.1-0.3c-0.3-0.2-0.6-0.4-0.8-0.7c-0.2-0.3-0.4-0.6-0.5-1c-0.1-0.4-0.2-0.8-0.2-1.1
		c0-0.4,0-0.8,0.1-1.2c0.1-0.4,0.3-0.7,0.5-1c0.2-0.3,0.5-0.5,0.8-0.7c0.3-0.2,0.7-0.3,1.2-0.3c0.3,0,0.6,0,0.8,0.1
		c0.3,0.1,0.5,0.2,0.7,0.3c0.2,0.1,0.4,0.3,0.5,0.5s0.2,0.5,0.3,0.8h1c-0.1-0.4-0.2-0.8-0.4-1.1c-0.2-0.3-0.4-0.6-0.7-0.8
		s-0.6-0.4-1-0.5c-0.4-0.1-0.8-0.1-1.2-0.1c-0.6,0-1.1,0.1-1.6,0.3c-0.5,0.2-0.8,0.5-1.1,0.9c-0.3,0.4-0.5,0.8-0.7,1.3
		c-0.2,0.5-0.2,1-0.2,1.6c0,0.5,0.1,1,0.2,1.4c0.2,0.5,0.4,0.9,0.7,1.2c0.3,0.4,0.7,0.6,1.1,0.8c0.4,0.2,1,0.3,1.5,0.3
		c0.4,0,0.9-0.1,1.3-0.3C357.8,131.7,358.2,131.4,358.5,131L358.5,131z"/>
	<path class="st4" d="M344.1,128.8l1.3-3.6h0l1.3,3.6H344.1L344.1,128.8z M344.9,124.4l-3,7.6h1l0.9-2.3h3.2l0.8,2.3h1.1l-3-7.6
		H344.9L344.9,124.4z"/>
	<g>
		<line class="st2" x1="345.5" y1="111.1" x2="345.5" y2="123.9"/>
		<line class="st2" x1="356.2" y1="111.1" x2="356.2" y2="123.9"/>
	</g>
	<path class="st5" d="M371.5,105.3h1c-0.1-0.4-0.2-0.8-0.4-1.1c-0.2-0.3-0.4-0.6-0.7-0.8c-0.3-0.2-0.6-0.4-1-0.5
		c-0.4-0.1-0.7-0.2-1.1-0.2c-0.6,0-1.1,0.1-1.6,0.3c-0.5,0.2-0.8,0.5-1.1,0.9c-0.3,0.4-0.5,0.8-0.7,1.3c-0.2,0.5-0.2,1-0.2,1.6
		s0.1,1.1,0.2,1.6s0.4,0.9,0.7,1.3c0.3,0.4,0.7,0.6,1.1,0.8c0.4,0.2,1,0.3,1.6,0.3c1,0,1.7-0.3,2.3-0.8c0.6-0.5,0.9-1.3,1-2.2h-1
		c0,0.3-0.1,0.6-0.2,0.9c-0.1,0.3-0.3,0.5-0.4,0.7c-0.2,0.2-0.4,0.3-0.7,0.5c-0.3,0.1-0.6,0.2-0.9,0.2c-0.5,0-0.8-0.1-1.2-0.3
		c-0.3-0.2-0.6-0.4-0.8-0.7c-0.2-0.3-0.4-0.6-0.5-1c-0.1-0.4-0.1-0.8-0.1-1.2c0-0.4,0-0.8,0.1-1.2s0.3-0.7,0.5-1
		c0.2-0.3,0.5-0.5,0.8-0.7c0.3-0.2,0.7-0.3,1.2-0.3c0.5,0,1,0.1,1.4,0.4S371.4,104.7,371.5,105.3L371.5,105.3z"/>
	<path class="st5" d="M382.5,109.7l0.3,1h0.6v-4h-3.3v0.9h2.4c0,0.3,0,0.7-0.1,1c-0.1,0.3-0.3,0.6-0.5,0.8c-0.2,0.2-0.5,0.4-0.8,0.5
		c-0.3,0.1-0.7,0.2-1.1,0.2c-0.4,0-0.8-0.1-1.1-0.3c-0.3-0.2-0.6-0.4-0.8-0.7c-0.2-0.3-0.4-0.6-0.5-1c-0.1-0.4-0.2-0.8-0.2-1.1
		c0-0.4,0-0.8,0.1-1.2c0.1-0.4,0.3-0.7,0.5-1c0.2-0.3,0.5-0.5,0.8-0.7c0.3-0.2,0.7-0.3,1.2-0.3c0.3,0,0.6,0,0.8,0.1
		c0.3,0.1,0.5,0.2,0.7,0.3c0.2,0.1,0.4,0.3,0.5,0.5c0.1,0.2,0.2,0.5,0.3,0.8h1c-0.1-0.4-0.2-0.8-0.4-1.1c-0.2-0.3-0.4-0.6-0.7-0.8
		c-0.3-0.2-0.6-0.4-1-0.5c-0.4-0.1-0.8-0.1-1.2-0.1c-0.6,0-1.1,0.1-1.6,0.3c-0.5,0.2-0.8,0.5-1.1,0.9c-0.3,0.4-0.5,0.8-0.7,1.3
		c-0.2,0.5-0.2,1-0.2,1.6c0,0.5,0.1,1,0.2,1.4c0.2,0.5,0.4,0.9,0.7,1.2c0.3,0.4,0.7,0.6,1.1,0.8s1,0.3,1.5,0.3
		c0.4,0,0.9-0.1,1.3-0.3C381.9,110.4,382.3,110.1,382.5,109.7L382.5,109.7z"/>
	<path class="st1" d="M389.5,104.8l1.3-3.6h0l1.3,3.6H389.5L389.5,104.8z M390.3,100.3l-3,7.6h1l0.9-2.3h3.2l0.8,2.3h1.1l-3-7.6
		H390.3L390.3,100.3z"/>
	<path class="st1" d="M397.5,102.1l1.3-3.6h0l1.3,3.6H397.5L397.5,102.1z M398.3,97.7l-3,7.6h1l0.9-2.3h3.2l0.8,2.3h1.1l-3-7.6
		H398.3L398.3,97.7z"/>
	<path class="st1" d="M408.2,110.1l1.3-3.6h0l1.3,3.6H408.2L408.2,110.1z M409,105.7l-3,7.6h1l0.9-2.3h3.2l0.8,2.3h1.1l-3-7.6H409
		L409,105.7z"/>
	<path class="st1" d="M408.2,123.5l1.3-3.6h0l1.3,3.6H408.2L408.2,123.5z M409,119l-3,7.6h1l0.9-2.3h3.2l0.8,2.3h1.1l-3-7.6H409
		L409,119z"/>
	<path class="st1" d="M400.2,134.2l1.3-3.6h0l1.3,3.6H400.2L400.2,134.2z M401,129.7l-3,7.6h1l0.9-2.3h3.2l0.8,2.3h1.1l-3-7.6H401
		L401,129.7z"/>
	<path class="st1" d="M393.2,133.7l0.3,1h0.6v-4h-3.3v0.9h2.4c0,0.3,0,0.7-0.1,1c-0.1,0.3-0.3,0.6-0.5,0.8c-0.2,0.2-0.5,0.4-0.8,0.5
		c-0.3,0.1-0.7,0.2-1.1,0.2c-0.4,0-0.8-0.1-1.1-0.3c-0.3-0.2-0.6-0.4-0.8-0.7c-0.2-0.3-0.4-0.6-0.5-1c-0.1-0.4-0.2-0.8-0.2-1.1
		s0-0.8,0.1-1.2c0.1-0.4,0.3-0.7,0.5-1c0.2-0.3,0.5-0.5,0.8-0.7c0.3-0.2,0.7-0.3,1.2-0.3c0.3,0,0.6,0,0.8,0.1
		c0.3,0.1,0.5,0.2,0.7,0.3c0.2,0.1,0.4,0.3,0.5,0.5c0.1,0.2,0.2,0.5,0.3,0.8h1c-0.1-0.4-0.2-0.8-0.4-1.1c-0.2-0.3-0.4-0.6-0.7-0.8
		s-0.6-0.4-1-0.5c-0.4-0.1-0.8-0.1-1.2-0.1c-0.6,0-1.1,0.1-1.6,0.3c-0.5,0.2-0.8,0.5-1.1,0.9c-0.3,0.4-0.5,0.8-0.7,1.3
		c-0.2,0.5-0.2,1-0.2,1.6c0,0.5,0.1,1,0.2,1.4c0.2,0.5,0.4,0.9,0.7,1.2c0.3,0.4,0.7,0.6,1.1,0.8s1,0.3,1.5,0.3
		c0.4,0,0.9-0.1,1.3-0.3C392.6,134.4,392.9,134.1,393.2,133.7L393.2,133.7z"/>
	<path class="st5" d="M382.2,126.6h1c-0.1-0.4-0.2-0.8-0.4-1.1c-0.2-0.3-0.4-0.6-0.7-0.8c-0.3-0.2-0.6-0.4-1-0.5
		c-0.4-0.1-0.7-0.2-1.1-0.2c-0.6,0-1.1,0.1-1.6,0.3c-0.5,0.2-0.8,0.5-1.1,0.9c-0.3,0.4-0.5,0.8-0.7,1.3c-0.2,0.5-0.2,1-0.2,1.6
		s0.1,1.1,0.2,1.6s0.4,0.9,0.7,1.3c0.3,0.4,0.7,0.6,1.1,0.8c0.4,0.2,1,0.3,1.6,0.3c1,0,1.7-0.3,2.3-0.8s0.9-1.3,1-2.2h-1
		c0,0.3-0.1,0.6-0.2,0.9c-0.1,0.3-0.3,0.5-0.4,0.7c-0.2,0.2-0.4,0.3-0.7,0.5c-0.3,0.1-0.6,0.2-0.9,0.2c-0.5,0-0.8-0.1-1.2-0.3
		c-0.3-0.2-0.6-0.4-0.8-0.7c-0.2-0.3-0.4-0.6-0.5-1c-0.1-0.4-0.1-0.8-0.1-1.2c0-0.4,0-0.8,0.1-1.2s0.3-0.7,0.5-1
		c0.2-0.3,0.5-0.5,0.8-0.7c0.3-0.2,0.7-0.3,1.2-0.3c0.5,0,1,0.1,1.4,0.4S382.1,126.1,382.2,126.6L382.2,126.6z"/>
	<line class="st2" x1="380.2" y1="135.3" x2="380.2" y2="142.4"/>
	<path d="M377.5,150.2H375l2.5-3.7h0V150.2z M378.4,150.2v-5h-0.7l-3.5,4.9v0.9h3.3v1.8h0.9v-1.8h1v-0.8L378.4,150.2L378.4,150.2z
		 M381.3,149.1c0-0.2,0-0.4,0-0.6c0-0.2,0-0.4,0.1-0.7c0-0.2,0.1-0.4,0.1-0.7c0.1-0.2,0.1-0.4,0.3-0.6c0.1-0.2,0.3-0.3,0.4-0.4
		s0.4-0.1,0.7-0.1s0.5,0,0.7,0.1c0.2,0.1,0.3,0.2,0.4,0.4c0.1,0.2,0.2,0.3,0.3,0.6c0.1,0.2,0.1,0.4,0.1,0.7c0,0.2,0,0.4,0.1,0.7
		c0,0.2,0,0.4,0,0.6c0,0.3,0,0.6,0,1c0,0.4-0.1,0.7-0.2,1c-0.1,0.3-0.3,0.6-0.5,0.8c-0.2,0.2-0.5,0.3-0.9,0.3
		c-0.4,0-0.7-0.1-0.9-0.3c-0.2-0.2-0.4-0.5-0.5-0.8c-0.1-0.3-0.2-0.6-0.2-1C381.3,149.7,381.3,149.4,381.3,149.1L381.3,149.1z
		 M380.3,149.1c0,0.3,0,0.6,0,0.9s0,0.6,0.1,0.9c0.1,0.3,0.1,0.6,0.2,0.8c0.1,0.3,0.3,0.5,0.4,0.7c0.2,0.2,0.4,0.3,0.7,0.5
		c0.3,0.1,0.6,0.2,1,0.2s0.7-0.1,1-0.2c0.3-0.1,0.5-0.3,0.7-0.5c0.2-0.2,0.3-0.4,0.4-0.7c0.1-0.3,0.2-0.5,0.2-0.8
		c0.1-0.3,0.1-0.6,0.1-0.9c0-0.3,0-0.6,0-0.9c0-0.3,0-0.6,0-0.9c0-0.3,0-0.6-0.1-0.9c-0.1-0.3-0.1-0.6-0.2-0.8
		c-0.1-0.3-0.3-0.5-0.4-0.7s-0.4-0.3-0.7-0.5c-0.3-0.1-0.6-0.2-1-0.2c-0.4,0-0.7,0.1-1,0.2c-0.3,0.1-0.5,0.3-0.7,0.5
		s-0.3,0.4-0.4,0.7s-0.2,0.5-0.2,0.8c-0.1,0.3-0.1,0.6-0.1,0.9C380.3,148.5,380.3,148.8,380.3,149.1L380.3,149.1z"/>
	<path class="st5" d="M371.9,131l0.3,1h0.6v-4h-3.3v0.9h2.4c0,0.3,0,0.7-0.1,1c-0.1,0.3-0.3,0.6-0.5,0.8c-0.2,0.2-0.5,0.4-0.8,0.5
		c-0.3,0.1-0.7,0.2-1.1,0.2c-0.4,0-0.8-0.1-1.1-0.3c-0.3-0.2-0.6-0.4-0.8-0.7c-0.2-0.3-0.4-0.6-0.5-1c-0.1-0.4-0.2-0.8-0.2-1.1
		c0-0.4,0-0.8,0.1-1.2c0.1-0.4,0.3-0.7,0.5-1c0.2-0.3,0.5-0.5,0.8-0.7c0.3-0.2,0.7-0.3,1.2-0.3c0.3,0,0.6,0,0.8,0.1
		c0.3,0.1,0.5,0.2,0.7,0.3c0.2,0.1,0.4,0.3,0.5,0.5c0.1,0.2,0.2,0.5,0.3,0.8h1c-0.1-0.4-0.2-0.8-0.4-1.1c-0.2-0.3-0.4-0.6-0.7-0.8
		s-0.6-0.4-1-0.5c-0.4-0.1-0.8-0.1-1.2-0.1c-0.6,0-1.1,0.1-1.6,0.3c-0.5,0.2-0.8,0.5-1.1,0.9c-0.3,0.4-0.5,0.8-0.7,1.3
		c-0.2,0.5-0.2,1-0.2,1.6c0,0.5,0.1,1,0.2,1.4c0.2,0.5,0.4,0.9,0.7,1.2c0.3,0.4,0.7,0.6,1.1,0.8c0.4,0.2,1,0.3,1.5,0.3
		c0.4,0,0.9-0.1,1.3-0.3C371.2,131.7,371.6,131.4,371.9,131L371.9,131z"/>
	<g>
		<line class="st2" x1="369.5" y1="111.1" x2="369.5" y2="123.9"/>
		<line class="st2" x1="380.2" y1="111.1" x2="380.2" y2="123.9"/>
	</g>
	<path class="st1" d="M325.5,257l1.3-3.6h0l1.3,3.6H325.5L325.5,257z M326.2,252.5l-3,7.6h1l0.9-2.3h3.2l0.8,2.3h1.1l-3-7.6H326.2
		L326.2,252.5z"/>
	<path class="st6" d="M339.8,259.2l0.3,1h0.6v-4h-3.3v0.9h2.4c0,0.3,0,0.7-0.1,1c-0.1,0.3-0.3,0.6-0.5,0.8c-0.2,0.2-0.5,0.4-0.8,0.5
		c-0.3,0.1-0.7,0.2-1.1,0.2c-0.4,0-0.8-0.1-1.1-0.3c-0.3-0.2-0.6-0.4-0.8-0.7c-0.2-0.3-0.4-0.6-0.5-1c-0.1-0.4-0.2-0.8-0.2-1.1
		s0-0.8,0.1-1.2c0.1-0.4,0.3-0.7,0.5-1c0.2-0.3,0.5-0.5,0.8-0.7c0.3-0.2,0.7-0.3,1.2-0.3c0.3,0,0.6,0,0.8,0.1
		c0.3,0.1,0.5,0.2,0.7,0.3c0.2,0.1,0.4,0.3,0.5,0.5c0.1,0.2,0.2,0.5,0.3,0.8h1c-0.1-0.4-0.2-0.8-0.4-1.1c-0.2-0.3-0.4-0.6-0.7-0.8
		c-0.3-0.2-0.6-0.4-1-0.5c-0.4-0.1-0.8-0.1-1.2-0.1c-0.6,0-1.1,0.1-1.6,0.3c-0.5,0.2-0.8,0.5-1.1,0.9c-0.3,0.4-0.5,0.8-0.7,1.3
		c-0.2,0.5-0.2,1-0.2,1.6c0,0.5,0.1,1,0.2,1.4c0.2,0.5,0.4,0.9,0.7,1.2c0.3,0.4,0.7,0.6,1.1,0.8s1,0.3,1.5,0.3
		c0.4,0,0.9-0.1,1.3-0.3C339.2,259.9,339.5,259.6,339.8,259.2L339.8,259.2z"/>
	<path class="st6" d="M346.8,257l1.3-3.6h0l1.3,3.6H346.8L346.8,257z M347.6,252.5l-3,7.6h1l0.9-2.3h3.2l0.8,2.3h1.1l-3-7.6H347.6
		L347.6,252.5z"/>
	<path class="st6" d="M361.2,259.2l0.3,1h0.6v-4h-3.3v0.9h2.4c0,0.3,0,0.7-0.1,1c-0.1,0.3-0.3,0.6-0.5,0.8c-0.2,0.2-0.5,0.4-0.8,0.5
		c-0.3,0.1-0.7,0.2-1.1,0.2c-0.4,0-0.8-0.1-1.1-0.3c-0.3-0.2-0.6-0.4-0.8-0.7c-0.2-0.3-0.4-0.6-0.5-1c-0.1-0.4-0.2-0.8-0.2-1.1
		s0-0.8,0.1-1.2s0.3-0.7,0.5-1c0.2-0.3,0.5-0.5,0.8-0.7c0.3-0.2,0.7-0.3,1.2-0.3c0.3,0,0.6,0,0.8,0.1c0.3,0.1,0.5,0.2,0.7,0.3
		c0.2,0.1,0.4,0.3,0.5,0.5c0.1,0.2,0.2,0.5,0.3,0.8h1c-0.1-0.4-0.2-0.8-0.4-1.1c-0.2-0.3-0.4-0.6-0.7-0.8c-0.3-0.2-0.6-0.4-1-0.5
		c-0.4-0.1-0.8-0.1-1.2-0.1c-0.6,0-1.1,0.1-1.6,0.3c-0.5,0.2-0.8,0.5-1.1,0.9c-0.3,0.4-0.5,0.8-0.7,1.3c-0.2,0.5-0.2,1-0.2,1.6
		c0,0.5,0.1,1,0.2,1.4c0.2,0.5,0.4,0.9,0.7,1.2c0.3,0.4,0.7,0.6,1.1,0.8s1,0.3,1.5,0.3c0.4,0,0.9-0.1,1.3-0.3
		C360.5,259.9,360.9,259.6,361.2,259.2L361.2,259.2z"/>
	<line class="st2" x1="358.8" y1="249.2" x2="358.8" y2="242.1"/>
	<path d="M357,233.6h0.9c-0.1-0.6-0.3-1.1-0.6-1.4c-0.4-0.3-0.9-0.5-1.5-0.5c-0.5,0-1,0.1-1.3,0.3s-0.6,0.5-0.9,0.9
		c-0.2,0.4-0.4,0.8-0.5,1.3c-0.1,0.5-0.1,1-0.1,1.5c0,0.4,0,0.8,0.1,1.2c0.1,0.4,0.2,0.8,0.4,1.2c0.2,0.4,0.4,0.6,0.8,0.9
		c0.3,0.2,0.8,0.3,1.4,0.3c0.5,0,0.9-0.1,1.2-0.2c0.3-0.2,0.6-0.4,0.8-0.6c0.2-0.2,0.3-0.5,0.4-0.8c0.1-0.3,0.1-0.6,0.1-0.9
		c0-0.3-0.1-0.7-0.2-1c-0.1-0.3-0.3-0.6-0.5-0.8c-0.2-0.2-0.4-0.4-0.7-0.5c-0.3-0.1-0.6-0.2-1-0.2c-0.4,0-0.8,0.1-1.1,0.2
		c-0.3,0.2-0.6,0.4-0.8,0.8l0,0c0-0.3,0-0.6,0.1-0.9c0-0.3,0.1-0.6,0.3-0.9s0.3-0.5,0.5-0.7c0.2-0.2,0.5-0.3,0.9-0.3
		c0.4,0,0.7,0.1,0.9,0.3C356.8,233,357,233.3,357,233.6L357,233.6z M355.6,235.2c0.3,0,0.5,0,0.7,0.1c0.2,0.1,0.4,0.2,0.5,0.4
		c0.1,0.2,0.2,0.3,0.3,0.5c0.1,0.2,0.1,0.4,0.1,0.7c0,0.2,0,0.4-0.1,0.6c-0.1,0.2-0.2,0.4-0.3,0.5c-0.1,0.2-0.3,0.3-0.5,0.4
		c-0.2,0.1-0.4,0.1-0.7,0.1s-0.5,0-0.7-0.1c-0.2-0.1-0.4-0.2-0.5-0.4c-0.1-0.1-0.2-0.3-0.3-0.5c-0.1-0.2-0.1-0.4-0.1-0.7
		s0-0.5,0.1-0.7c0.1-0.2,0.2-0.4,0.3-0.5c0.1-0.2,0.3-0.3,0.5-0.4C355.2,235.3,355.4,235.2,355.6,235.2L355.6,235.2z M359.9,235.6
		c0-0.2,0-0.4,0-0.6s0-0.4,0.1-0.7c0-0.2,0.1-0.4,0.1-0.7c0.1-0.2,0.1-0.4,0.3-0.6c0.1-0.2,0.3-0.3,0.4-0.4c0.2-0.1,0.4-0.1,0.7-0.1
		s0.5,0,0.7,0.1c0.2,0.1,0.3,0.2,0.4,0.4s0.2,0.3,0.3,0.6c0.1,0.2,0.1,0.4,0.1,0.7s0,0.4,0.1,0.7c0,0.2,0,0.4,0,0.6c0,0.3,0,0.6,0,1
		c0,0.4-0.1,0.7-0.2,1c-0.1,0.3-0.3,0.6-0.5,0.8c-0.2,0.2-0.5,0.3-0.9,0.3c-0.4,0-0.7-0.1-0.9-0.3c-0.2-0.2-0.4-0.5-0.5-0.8
		s-0.2-0.6-0.2-1C359.9,236.1,359.9,235.8,359.9,235.6L359.9,235.6z M359,235.6c0,0.3,0,0.6,0,0.9c0,0.3,0,0.6,0.1,0.9
		c0.1,0.3,0.1,0.6,0.2,0.8c0.1,0.3,0.3,0.5,0.4,0.7c0.2,0.2,0.4,0.3,0.7,0.5c0.3,0.1,0.6,0.2,1,0.2c0.4,0,0.7-0.1,1-0.2
		c0.3-0.1,0.5-0.3,0.7-0.5c0.2-0.2,0.3-0.4,0.4-0.7c0.1-0.3,0.2-0.5,0.2-0.8c0.1-0.3,0.1-0.6,0.1-0.9c0-0.3,0-0.6,0-0.9
		c0-0.3,0-0.6,0-0.9c0-0.3,0-0.6-0.1-0.9s-0.1-0.6-0.2-0.8c-0.1-0.3-0.3-0.5-0.4-0.7c-0.2-0.2-0.4-0.3-0.7-0.5
		c-0.3-0.1-0.6-0.2-1-0.2s-0.7,0.1-1,0.2c-0.3,0.1-0.5,0.3-0.7,0.5c-0.2,0.2-0.3,0.4-0.4,0.7s-0.2,0.5-0.2,0.8
		c-0.1,0.3-0.1,0.6-0.1,0.9C359,235,359,235.3,359,235.6L359,235.6z"/>
	<path class="st1" d="M371.5,244.1h1c-0.1-0.4-0.2-0.8-0.4-1.1c-0.2-0.3-0.4-0.6-0.7-0.8c-0.3-0.2-0.6-0.4-1-0.5
		c-0.4-0.1-0.7-0.2-1.1-0.2c-0.6,0-1.1,0.1-1.6,0.3c-0.5,0.2-0.8,0.5-1.1,0.9c-0.3,0.4-0.5,0.8-0.7,1.3c-0.2,0.5-0.2,1-0.2,1.6
		c0,0.6,0.1,1.1,0.2,1.6s0.4,0.9,0.7,1.3c0.3,0.4,0.7,0.6,1.1,0.8c0.4,0.2,1,0.3,1.6,0.3c1,0,1.7-0.3,2.3-0.8c0.6-0.5,0.9-1.3,1-2.2
		h-1c0,0.3-0.1,0.6-0.2,0.9c-0.1,0.3-0.3,0.5-0.4,0.7c-0.2,0.2-0.4,0.3-0.7,0.5c-0.3,0.1-0.6,0.2-0.9,0.2c-0.5,0-0.8-0.1-1.2-0.3
		c-0.3-0.2-0.6-0.4-0.8-0.7c-0.2-0.3-0.4-0.6-0.5-1c-0.1-0.4-0.1-0.8-0.1-1.2c0-0.4,0-0.8,0.1-1.2c0.1-0.4,0.3-0.7,0.5-1
		c0.2-0.3,0.5-0.5,0.8-0.7c0.3-0.2,0.7-0.3,1.2-0.3c0.5,0,1,0.1,1.4,0.4S371.4,243.6,371.5,244.1L371.5,244.1z"/>
	<path class="st1" d="M382.9,238.7v-4.9h-1v4.9c0,0.7-0.2,1.2-0.5,1.6c-0.3,0.4-0.8,0.5-1.5,0.5c-0.7,0-1.2-0.2-1.6-0.5
		c-0.4-0.4-0.5-0.9-0.5-1.6v-4.9h-1v4.9c0,1,0.3,1.8,0.8,2.2c0.5,0.5,1.3,0.7,2.3,0.7c1,0,1.7-0.2,2.2-0.7
		C382.7,240.4,382.9,239.7,382.9,238.7L382.9,238.7z"/>
	<path class="st1" d="M386.9,230.3l1.3-3.6h0l1.3,3.6H386.9L386.9,230.3z M387.6,225.8l-3,7.6h1l0.9-2.3h3.2l0.8,2.3h1.1l-3-7.6
		H387.6L387.6,225.8z"/>
	<path class="st1" d="M397.5,224.9l1.3-3.6h0l1.3,3.6H397.5L397.5,224.9z M398.3,220.5l-3,7.6h1l0.9-2.3h3.2l0.8,2.3h1.1l-3-7.6
		H398.3L398.3,220.5z"/>
	<path class="st1" d="M410.9,222.3l1.3-3.6h0l1.3,3.6H410.9L410.9,222.3z M411.6,217.8l-3,7.6h1l0.9-2.3h3.2l0.8,2.3h1.1l-3-7.6
		H411.6L411.6,217.8z"/>
	<path class="st1" d="M424.2,224.9l1.3-3.6h0l1.3,3.6H424.2L424.2,224.9z M425,220.5l-3,7.6h1l0.9-2.3h3.2l0.8,2.3h1.1l-3-7.6H425
		L425,220.5z"/>
	<path class="st1" d="M437.6,230.3l1.3-3.6h0l1.3,3.6H437.6L437.6,230.3z M438.3,225.8l-3,7.6h1l0.9-2.3h3.2l0.8,2.3h1.1l-3-7.6
		H438.3L438.3,225.8z"/>
	<path class="st6" d="M360.8,276.2h1c-0.1-0.4-0.2-0.8-0.4-1.1c-0.2-0.3-0.4-0.6-0.7-0.8c-0.3-0.2-0.6-0.4-1-0.5
		c-0.4-0.1-0.7-0.2-1.1-0.2c-0.6,0-1.1,0.1-1.6,0.3c-0.5,0.2-0.8,0.5-1.1,0.9c-0.3,0.4-0.5,0.8-0.7,1.3c-0.2,0.5-0.2,1-0.2,1.6
		c0,0.6,0.1,1.1,0.2,1.6c0.1,0.5,0.4,0.9,0.7,1.3c0.3,0.4,0.7,0.6,1.1,0.8c0.4,0.2,1,0.3,1.6,0.3c1,0,1.7-0.3,2.3-0.8s0.9-1.3,1-2.2
		h-1c0,0.3-0.1,0.6-0.2,0.9c-0.1,0.3-0.3,0.5-0.4,0.7c-0.2,0.2-0.4,0.3-0.7,0.5c-0.3,0.1-0.6,0.2-0.9,0.2c-0.5,0-0.8-0.1-1.2-0.3
		c-0.3-0.2-0.6-0.4-0.8-0.7s-0.4-0.6-0.5-1c-0.1-0.4-0.1-0.8-0.1-1.2c0-0.4,0-0.8,0.1-1.2s0.3-0.7,0.5-1s0.5-0.5,0.8-0.7
		c0.3-0.2,0.7-0.3,1.2-0.3c0.5,0,1,0.1,1.4,0.4C360.5,275.2,360.7,275.6,360.8,276.2L360.8,276.2z"/>
	<path class="st6" d="M350.9,278.7v-4.9h-1v4.9c0,0.7-0.2,1.2-0.5,1.6c-0.3,0.4-0.8,0.5-1.5,0.5c-0.7,0-1.2-0.2-1.6-0.5
		c-0.4-0.4-0.5-0.9-0.5-1.6v-4.9h-1v4.9c0,1,0.3,1.8,0.8,2.2s1.3,0.7,2.3,0.7s1.7-0.2,2.2-0.7C350.6,280.4,350.9,279.7,350.9,278.7
		L350.9,278.7z"/>
	<path class="st6" d="M339.5,276.2h1c-0.1-0.4-0.2-0.8-0.4-1.1c-0.2-0.3-0.4-0.6-0.7-0.8c-0.3-0.2-0.6-0.4-1-0.5
		c-0.4-0.1-0.7-0.2-1.1-0.2c-0.6,0-1.1,0.1-1.6,0.3c-0.5,0.2-0.8,0.5-1.1,0.9c-0.3,0.4-0.5,0.8-0.7,1.3c-0.2,0.5-0.2,1-0.2,1.6
		c0,0.6,0.1,1.1,0.2,1.6c0.1,0.5,0.4,0.9,0.7,1.3c0.3,0.4,0.7,0.6,1.1,0.8c0.4,0.2,1,0.3,1.6,0.3c1,0,1.7-0.3,2.3-0.8
		c0.6-0.5,0.9-1.3,1-2.2h-1c0,0.3-0.1,0.6-0.2,0.9c-0.1,0.3-0.3,0.5-0.4,0.7c-0.2,0.2-0.4,0.3-0.7,0.5c-0.3,0.1-0.6,0.2-0.9,0.2
		c-0.5,0-0.8-0.1-1.2-0.3c-0.3-0.2-0.6-0.4-0.8-0.7c-0.2-0.3-0.4-0.6-0.5-1c-0.1-0.4-0.1-0.8-0.1-1.2c0-0.4,0-0.8,0.1-1.2
		c0.1-0.4,0.3-0.7,0.5-1s0.5-0.5,0.8-0.7c0.3-0.2,0.7-0.3,1.2-0.3c0.5,0,1,0.1,1.4,0.4S339.4,275.6,339.5,276.2L339.5,276.2z"/>
	<path class="st1" d="M329.2,280.5l0.3,1h0.6v-4h-3.3v0.9h2.4c0,0.3,0,0.7-0.1,1c-0.1,0.3-0.3,0.6-0.5,0.8c-0.2,0.2-0.5,0.4-0.8,0.5
		c-0.3,0.1-0.7,0.2-1.1,0.2c-0.4,0-0.8-0.1-1.1-0.3c-0.3-0.2-0.6-0.4-0.8-0.7c-0.2-0.3-0.4-0.6-0.5-1s-0.2-0.8-0.2-1.1
		c0-0.4,0-0.8,0.1-1.2c0.1-0.4,0.3-0.7,0.5-1c0.2-0.3,0.5-0.5,0.8-0.7c0.3-0.2,0.7-0.3,1.2-0.3c0.3,0,0.6,0,0.8,0.1
		c0.3,0.1,0.5,0.2,0.7,0.3c0.2,0.1,0.4,0.3,0.5,0.5s0.2,0.5,0.3,0.8h1c-0.1-0.4-0.2-0.8-0.4-1.1c-0.2-0.3-0.4-0.6-0.7-0.8
		s-0.6-0.4-1-0.5c-0.4-0.1-0.8-0.1-1.2-0.1c-0.6,0-1.1,0.1-1.6,0.3c-0.5,0.2-0.8,0.5-1.1,0.9c-0.3,0.4-0.5,0.8-0.7,1.3
		c-0.2,0.5-0.2,1-0.2,1.6c0,0.5,0.1,1,0.2,1.4c0.2,0.5,0.4,0.9,0.7,1.2c0.3,0.4,0.7,0.6,1.1,0.8s1,0.3,1.5,0.3
		c0.4,0,0.9-0.1,1.3-0.3C328.5,281.2,328.9,280.9,329.2,280.5L329.2,280.5z"/>
	<path class="st1" d="M318.5,280.5l0.3,1h0.6v-4H316v0.9h2.4c0,0.3,0,0.7-0.1,1c-0.1,0.3-0.3,0.6-0.5,0.8c-0.2,0.2-0.5,0.4-0.8,0.5
		c-0.3,0.1-0.7,0.2-1.1,0.2c-0.4,0-0.8-0.1-1.1-0.3s-0.6-0.4-0.8-0.7c-0.2-0.3-0.4-0.6-0.5-1s-0.2-0.8-0.2-1.1c0-0.4,0-0.8,0.1-1.2
		c0.1-0.4,0.3-0.7,0.5-1c0.2-0.3,0.5-0.5,0.8-0.7c0.3-0.2,0.7-0.3,1.2-0.3c0.3,0,0.6,0,0.8,0.1c0.3,0.1,0.5,0.2,0.7,0.3
		c0.2,0.1,0.4,0.3,0.5,0.5s0.2,0.5,0.3,0.8h1c-0.1-0.4-0.2-0.8-0.4-1.1c-0.2-0.3-0.4-0.6-0.7-0.8s-0.6-0.4-1-0.5
		c-0.4-0.1-0.8-0.1-1.2-0.1c-0.6,0-1.1,0.1-1.6,0.3c-0.5,0.2-0.8,0.5-1.1,0.9c-0.3,0.4-0.5,0.8-0.7,1.3c-0.2,0.5-0.2,1-0.2,1.6
		c0,0.5,0.1,1,0.2,1.4c0.2,0.5,0.4,0.9,0.7,1.2c0.3,0.4,0.7,0.6,1.1,0.8s1,0.3,1.5,0.3c0.4,0,0.9-0.1,1.3-0.3
		C317.8,281.2,318.2,280.9,318.5,280.5L318.5,280.5z"/>
	<line class="st2" x1="316.1" y1="284.8" x2="316.1" y2="291.9"/>
	<path d="M310.9,302.3v-7.6h-0.7c0,0.3-0.1,0.5-0.3,0.7c-0.1,0.2-0.3,0.3-0.5,0.4c-0.2,0.1-0.4,0.2-0.7,0.2c-0.2,0-0.5,0.1-0.7,0.1
		v0.7h2v5.4L310.9,302.3L310.9,302.3z M314.4,298.6c0-0.2,0-0.4,0-0.6s0-0.4,0.1-0.7c0-0.2,0.1-0.4,0.1-0.7c0.1-0.2,0.1-0.4,0.3-0.6
		c0.1-0.2,0.3-0.3,0.4-0.4c0.2-0.1,0.4-0.1,0.7-0.1s0.5,0,0.7,0.1s0.3,0.2,0.4,0.4c0.1,0.2,0.2,0.3,0.3,0.6c0.1,0.2,0.1,0.4,0.1,0.7
		c0,0.2,0,0.4,0.1,0.7c0,0.2,0,0.4,0,0.6c0,0.3,0,0.6,0,1c0,0.4-0.1,0.7-0.2,1c-0.1,0.3-0.3,0.6-0.5,0.8c-0.2,0.2-0.5,0.3-0.9,0.3
		c-0.4,0-0.7-0.1-0.9-0.3c-0.2-0.2-0.4-0.5-0.5-0.8c-0.1-0.3-0.2-0.6-0.2-1S314.4,298.9,314.4,298.6L314.4,298.6z M313.5,298.6
		c0,0.3,0,0.6,0,0.9c0,0.3,0,0.6,0.1,0.9c0.1,0.3,0.1,0.6,0.2,0.8c0.1,0.3,0.3,0.5,0.4,0.7c0.2,0.2,0.4,0.3,0.7,0.5
		c0.3,0.1,0.6,0.2,1,0.2c0.4,0,0.7-0.1,1-0.2s0.5-0.3,0.7-0.5c0.2-0.2,0.3-0.4,0.4-0.7c0.1-0.3,0.2-0.5,0.2-0.8
		c0.1-0.3,0.1-0.6,0.1-0.9s0-0.6,0-0.9s0-0.6,0-0.9c0-0.3,0-0.6-0.1-0.9s-0.1-0.6-0.2-0.8s-0.3-0.5-0.4-0.7
		c-0.2-0.2-0.4-0.3-0.7-0.5c-0.3-0.1-0.6-0.2-1-0.2s-0.7,0.1-1,0.2c-0.3,0.1-0.5,0.3-0.7,0.5c-0.2,0.2-0.3,0.4-0.4,0.7
		s-0.2,0.5-0.2,0.8s-0.1,0.6-0.1,0.9C313.5,298,313.5,298.3,313.5,298.6L313.5,298.6z M320.4,298.6c0-0.2,0-0.4,0-0.6s0-0.4,0.1-0.7
		c0-0.2,0.1-0.4,0.1-0.7c0.1-0.2,0.1-0.4,0.3-0.6c0.1-0.2,0.3-0.3,0.4-0.4c0.2-0.1,0.4-0.1,0.7-0.1s0.5,0,0.7,0.1s0.3,0.2,0.4,0.4
		c0.1,0.2,0.2,0.3,0.3,0.6c0.1,0.2,0.1,0.4,0.1,0.7c0,0.2,0,0.4,0.1,0.7c0,0.2,0,0.4,0,0.6c0,0.3,0,0.6,0,1c0,0.4-0.1,0.7-0.2,1
		c-0.1,0.3-0.3,0.6-0.5,0.8c-0.2,0.2-0.5,0.3-0.9,0.3c-0.4,0-0.7-0.1-0.9-0.3c-0.2-0.2-0.4-0.5-0.5-0.8c-0.1-0.3-0.2-0.6-0.2-1
		C320.3,299.2,320.3,298.9,320.4,298.6L320.4,298.6z M319.4,298.6c0,0.3,0,0.6,0,0.9c0,0.3,0,0.6,0.1,0.9s0.1,0.6,0.2,0.8
		c0.1,0.3,0.3,0.5,0.4,0.7c0.2,0.2,0.4,0.3,0.7,0.5c0.3,0.1,0.6,0.2,1,0.2s0.7-0.1,1-0.2c0.3-0.1,0.5-0.3,0.7-0.5
		c0.2-0.2,0.3-0.4,0.4-0.7c0.1-0.3,0.2-0.5,0.2-0.8c0.1-0.3,0.1-0.6,0.1-0.9c0-0.3,0-0.6,0-0.9s0-0.6,0-0.9c0-0.3,0-0.6-0.1-0.9
		c-0.1-0.3-0.1-0.6-0.2-0.8s-0.3-0.5-0.4-0.7c-0.2-0.2-0.4-0.3-0.7-0.5c-0.3-0.1-0.6-0.2-1-0.2c-0.4,0-0.7,0.1-1,0.2
		c-0.3,0.1-0.5,0.3-0.7,0.5c-0.2,0.2-0.3,0.4-0.4,0.7c-0.1,0.3-0.2,0.5-0.2,0.8c-0.1,0.3-0.1,0.6-0.1,0.9
		C319.4,298,319.4,298.3,319.4,298.6L319.4,298.6z"/>
	<path class="st1" d="M308.2,278.7v-4.9h-1v4.9c0,0.7-0.2,1.2-0.5,1.6c-0.3,0.4-0.8,0.5-1.5,0.5c-0.7,0-1.2-0.2-1.6-0.5
		c-0.4-0.4-0.5-0.9-0.5-1.6v-4.9h-1v4.9c0,1,0.3,1.8,0.8,2.2s1.3,0.7,2.3,0.7s1.7-0.2,2.2-0.7C307.9,280.4,308.2,279.7,308.2,278.7
		L308.2,278.7z"/>
	<g>
		<line class="st2" x1="337.5" y1="260.6" x2="337.5" y2="273.4"/>
		<line class="st2" x1="348.1" y1="260.6" x2="348.1" y2="273.4"/>
		<line class="st2" x1="358.8" y1="260.6" x2="358.8" y2="273.4"/>
	</g>
	<path class="st1" d="M445.6,243.6l1.3-3.6h0l1.3,3.6H445.6L445.6,243.6z M446.4,239.2l-3,7.6h1l0.9-2.3h3.2l0.8,2.3h1.1l-3-7.6
		H446.4L446.4,239.2z"/>
	<path class="st1" d="M445.6,257l1.3-3.6h0l1.3,3.6H445.6L445.6,257z M446.4,252.5l-3,7.6h1l0.9-2.3h3.2l0.8,2.3h1.1l-3-7.6H446.4
		L446.4,252.5z"/>
	<path class="st1" d="M443.9,272.5l0.3,1h0.6v-4h-3.3v0.9h2.4c0,0.3,0,0.7-0.1,1c-0.1,0.3-0.3,0.6-0.5,0.8c-0.2,0.2-0.5,0.4-0.8,0.5
		c-0.3,0.1-0.7,0.2-1.1,0.2c-0.4,0-0.8-0.1-1.1-0.3c-0.3-0.2-0.6-0.4-0.8-0.7c-0.2-0.3-0.4-0.6-0.5-1c-0.1-0.4-0.2-0.8-0.2-1.1
		c0-0.4,0-0.8,0.1-1.2s0.3-0.7,0.5-1c0.2-0.3,0.5-0.5,0.8-0.7c0.3-0.2,0.7-0.3,1.2-0.3c0.3,0,0.6,0,0.8,0.1c0.3,0.1,0.5,0.2,0.7,0.3
		c0.2,0.1,0.4,0.3,0.5,0.5c0.1,0.2,0.2,0.5,0.3,0.8h1c-0.1-0.4-0.2-0.8-0.4-1.1c-0.2-0.3-0.4-0.6-0.7-0.8c-0.3-0.2-0.6-0.4-1-0.5
		c-0.4-0.1-0.8-0.1-1.2-0.1c-0.6,0-1.1,0.1-1.6,0.3c-0.5,0.2-0.8,0.5-1.1,0.9c-0.3,0.4-0.5,0.8-0.7,1.3c-0.2,0.5-0.2,1-0.2,1.6
		c0,0.5,0.1,1,0.2,1.4c0.2,0.5,0.4,0.9,0.7,1.2c0.3,0.4,0.7,0.6,1.1,0.8c0.4,0.2,1,0.3,1.5,0.3c0.4,0,0.9-0.1,1.3-0.3
		C443.3,273.2,443.7,272.9,443.9,272.5L443.9,272.5z"/>
	<line class="st2" x1="448.7" y1="269.6" x2="455.8" y2="269.6"/>
	<path d="M461.3,266.8V266h-4.9v0.9h4c-0.4,0.4-0.8,0.9-1.1,1.4c-0.3,0.5-0.6,1-0.9,1.6c-0.3,0.6-0.5,1.1-0.6,1.8
		c-0.2,0.6-0.3,1.2-0.3,1.9h1c0-0.6,0.1-1.2,0.3-1.8c0.2-0.6,0.4-1.2,0.6-1.8s0.6-1.1,0.9-1.7C460.5,267.6,460.9,267.2,461.3,266.8
		L461.3,266.8z M463.2,269.7c0-0.2,0-0.4,0-0.6c0-0.2,0-0.4,0.1-0.7c0-0.2,0.1-0.4,0.1-0.7c0.1-0.2,0.1-0.4,0.3-0.6
		c0.1-0.2,0.3-0.3,0.4-0.4s0.4-0.1,0.7-0.1s0.5,0,0.7,0.1c0.2,0.1,0.3,0.2,0.4,0.4c0.1,0.2,0.2,0.3,0.3,0.6c0.1,0.2,0.1,0.4,0.1,0.7
		c0,0.2,0,0.4,0.1,0.7c0,0.2,0,0.4,0,0.6c0,0.3,0,0.6,0,1c0,0.4-0.1,0.7-0.2,1c-0.1,0.3-0.3,0.6-0.5,0.8c-0.2,0.2-0.5,0.3-0.9,0.3
		s-0.7-0.1-0.9-0.3c-0.2-0.2-0.4-0.5-0.5-0.8c-0.1-0.3-0.2-0.6-0.2-1C463.2,270.3,463.2,270,463.2,269.7L463.2,269.7z M462.2,269.8
		c0,0.3,0,0.6,0,0.9c0,0.3,0,0.6,0.1,0.9s0.1,0.6,0.2,0.8c0.1,0.3,0.3,0.5,0.4,0.7s0.4,0.3,0.7,0.5c0.3,0.1,0.6,0.2,1,0.2
		s0.7-0.1,1-0.2c0.3-0.1,0.5-0.3,0.7-0.5c0.2-0.2,0.3-0.4,0.4-0.7s0.2-0.5,0.2-0.8c0.1-0.3,0.1-0.6,0.1-0.9c0-0.3,0-0.6,0-0.9
		s0-0.6,0-0.9c0-0.3,0-0.6-0.1-0.9s-0.1-0.6-0.2-0.8c-0.1-0.3-0.3-0.5-0.4-0.7c-0.2-0.2-0.4-0.3-0.7-0.5c-0.3-0.1-0.6-0.2-1-0.2
		s-0.7,0.1-1,0.2c-0.3,0.1-0.5,0.3-0.7,0.5c-0.2,0.2-0.3,0.4-0.4,0.7s-0.2,0.5-0.2,0.8c-0.1,0.3-0.1,0.6-0.1,0.9
		C462.2,269.2,462.2,269.5,462.2,269.8z"/>
	<path class="st1" d="M429.6,278.3l1.3-3.6h0l1.3,3.6H429.6L429.6,278.3z M430.3,273.9l-3,7.6h1l0.9-2.3h3.2l0.8,2.3h1.1l-3-7.6
		H430.3L430.3,273.9z"/>
	<path class="st1" d="M419.6,278.8h1c-0.1-0.4-0.2-0.8-0.4-1.1c-0.2-0.3-0.4-0.6-0.7-0.8c-0.3-0.2-0.6-0.4-1-0.5
		c-0.4-0.1-0.7-0.2-1.1-0.2c-0.6,0-1.1,0.1-1.6,0.3c-0.5,0.2-0.8,0.5-1.1,0.9c-0.3,0.4-0.5,0.8-0.7,1.3c-0.2,0.5-0.2,1-0.2,1.6
		c0,0.6,0.1,1.1,0.2,1.6c0.1,0.5,0.4,0.9,0.7,1.3c0.3,0.4,0.7,0.6,1.1,0.8c0.4,0.2,1,0.3,1.6,0.3c1,0,1.7-0.3,2.3-0.8s0.9-1.3,1-2.2
		h-1c0,0.3-0.1,0.6-0.2,0.9c-0.1,0.3-0.3,0.5-0.4,0.7c-0.2,0.2-0.4,0.3-0.7,0.5c-0.3,0.1-0.6,0.2-0.9,0.2c-0.5,0-0.8-0.1-1.2-0.3
		c-0.3-0.2-0.6-0.4-0.8-0.7c-0.2-0.3-0.4-0.6-0.5-1c-0.1-0.4-0.1-0.8-0.1-1.2c0-0.4,0-0.8,0.1-1.2s0.3-0.7,0.5-1
		c0.2-0.3,0.5-0.5,0.8-0.7c0.3-0.2,0.7-0.3,1.2-0.3c0.5,0,1,0.1,1.4,0.4S419.5,278.3,419.6,278.8L419.6,278.8z"/>
	<path class="st1" d="M402.9,283.7l1.3-3.6h0l1.3,3.6H402.9L402.9,283.7z M403.6,279.2l-3,7.6h1l0.9-2.3h3.2l0.8,2.3h1.1l-3-7.6
		H403.6L403.6,279.2z"/>
	<path class="st7" d="M396.3,284.1v-4.9h-1v4.9c0,0.7-0.2,1.2-0.5,1.6c-0.3,0.4-0.8,0.5-1.5,0.5c-0.7,0-1.2-0.2-1.6-0.5
		c-0.4-0.4-0.5-0.9-0.5-1.6v-4.9h-1v4.9c0,1,0.3,1.8,0.8,2.2c0.5,0.5,1.3,0.7,2.3,0.7c1,0,1.7-0.2,2.2-0.7
		C396,285.8,396.3,285,396.3,284.1L396.3,284.1z"/>
	<path class="st7" d="M395.6,292.2h1c-0.1-0.4-0.2-0.8-0.4-1.1c-0.2-0.3-0.4-0.6-0.7-0.8c-0.3-0.2-0.6-0.4-1-0.5
		c-0.4-0.1-0.7-0.2-1.1-0.2c-0.6,0-1.1,0.1-1.6,0.3c-0.5,0.2-0.8,0.5-1.1,0.9c-0.3,0.4-0.5,0.8-0.7,1.3c-0.2,0.5-0.2,1-0.2,1.6
		c0,0.6,0.1,1.1,0.2,1.6c0.1,0.5,0.4,0.9,0.7,1.3c0.3,0.4,0.7,0.6,1.1,0.8c0.4,0.2,1,0.3,1.6,0.3c1,0,1.7-0.3,2.3-0.8s0.9-1.3,1-2.2
		h-1c0,0.3-0.1,0.6-0.2,0.9c-0.1,0.3-0.3,0.5-0.4,0.7c-0.2,0.2-0.4,0.3-0.7,0.5c-0.3,0.1-0.6,0.2-0.9,0.2c-0.5,0-0.8-0.1-1.2-0.3
		c-0.3-0.2-0.6-0.4-0.8-0.7s-0.4-0.6-0.5-1c-0.1-0.4-0.1-0.8-0.1-1.2c0-0.4,0-0.8,0.1-1.2c0.1-0.4,0.3-0.7,0.5-1s0.5-0.5,0.8-0.7
		c0.3-0.2,0.7-0.3,1.2-0.3c0.5,0,1,0.1,1.4,0.4C395.2,291.2,395.4,291.6,395.6,292.2L395.6,292.2z"/>
	<path class="st7" d="M395.6,302.8h1c-0.1-0.4-0.2-0.8-0.4-1.1c-0.2-0.3-0.4-0.6-0.7-0.8c-0.3-0.2-0.6-0.4-1-0.5
		c-0.4-0.1-0.7-0.2-1.1-0.2c-0.6,0-1.1,0.1-1.6,0.3c-0.5,0.2-0.8,0.5-1.1,0.9c-0.3,0.4-0.5,0.8-0.7,1.3c-0.2,0.5-0.2,1-0.2,1.6
		c0,0.6,0.1,1.1,0.2,1.6c0.1,0.5,0.4,0.9,0.7,1.3c0.3,0.4,0.7,0.6,1.1,0.8c0.4,0.2,1,0.3,1.6,0.3c1,0,1.7-0.3,2.3-0.8s0.9-1.3,1-2.2
		h-1c0,0.3-0.1,0.6-0.2,0.9c-0.1,0.3-0.3,0.5-0.4,0.7c-0.2,0.2-0.4,0.3-0.7,0.5c-0.3,0.1-0.6,0.2-0.9,0.2c-0.5,0-0.8-0.1-1.2-0.3
		c-0.3-0.2-0.6-0.4-0.8-0.7s-0.4-0.6-0.5-1c-0.1-0.4-0.1-0.8-0.1-1.2c0-0.4,0-0.8,0.1-1.2s0.3-0.7,0.5-1s0.5-0.5,0.8-0.7
		c0.3-0.2,0.7-0.3,1.2-0.3c0.5,0,1,0.1,1.4,0.4C395.2,301.9,395.4,302.3,395.6,302.8L395.6,302.8z"/>
	<path class="st7" d="M392.2,315.7l1.3-3.6h0l1.3,3.6H392.2L392.2,315.7z M393,311.2l-3,7.6h1l0.9-2.3h3.2l0.8,2.3h1.1l-3-7.6H393
		L393,311.2z"/>
	<path class="st7" d="M395.9,328.6l0.3,1h0.6v-4h-3.3v0.9h2.4c0,0.3,0,0.7-0.1,1c-0.1,0.3-0.3,0.6-0.5,0.8c-0.2,0.2-0.5,0.4-0.8,0.5
		c-0.3,0.1-0.7,0.2-1.1,0.2c-0.4,0-0.8-0.1-1.1-0.3c-0.3-0.2-0.6-0.4-0.8-0.7c-0.2-0.3-0.4-0.6-0.5-1c-0.1-0.4-0.2-0.8-0.2-1.1
		s0-0.8,0.1-1.2c0.1-0.4,0.3-0.7,0.5-1c0.2-0.3,0.5-0.5,0.8-0.7c0.3-0.2,0.7-0.3,1.2-0.3c0.3,0,0.6,0,0.8,0.1
		c0.3,0.1,0.5,0.2,0.7,0.3c0.2,0.1,0.4,0.3,0.5,0.5s0.2,0.5,0.3,0.8h1c-0.1-0.4-0.2-0.8-0.4-1.1c-0.2-0.3-0.4-0.6-0.7-0.8
		c-0.3-0.2-0.6-0.4-1-0.5c-0.4-0.1-0.8-0.1-1.2-0.1c-0.6,0-1.1,0.1-1.6,0.3c-0.5,0.2-0.8,0.5-1.1,0.9c-0.3,0.4-0.5,0.8-0.7,1.3
		c-0.2,0.5-0.2,1-0.2,1.6c0,0.5,0.1,1,0.2,1.4c0.2,0.5,0.4,0.9,0.7,1.2c0.3,0.4,0.7,0.6,1.1,0.8s1,0.3,1.5,0.3
		c0.4,0,0.9-0.1,1.3-0.3C395.2,329.3,395.6,329,395.9,328.6L395.9,328.6z"/>
	<path class="st1" d="M396.3,337.5v-4.9h-1v4.9c0,0.7-0.2,1.2-0.5,1.6c-0.3,0.4-0.8,0.5-1.5,0.5c-0.7,0-1.2-0.2-1.6-0.5
		c-0.4-0.4-0.5-0.9-0.5-1.6v-4.9h-1v4.9c0,1,0.3,1.8,0.8,2.2c0.5,0.5,1.3,0.7,2.3,0.7c1,0,1.7-0.2,2.2-0.7
		C396,339.2,396.3,338.4,396.3,337.5L396.3,337.5z"/>
	<path class="st1" d="M397.5,347.7l1.3-3.6h0l1.3,3.6H397.5L397.5,347.7z M398.3,343.3l-3,7.6h1l0.9-2.3h3.2l0.8,2.3h1.1l-3-7.6
		H398.3L398.3,343.3z"/>
	<line class="st2" x1="406" y1="347.1" x2="413.1" y2="347.1"/>
	<path d="M414.8,345.3c0-0.2,0-0.4,0.1-0.5c0.1-0.1,0.2-0.3,0.3-0.4c0.1-0.1,0.3-0.2,0.4-0.2s0.3-0.1,0.5-0.1c0.4,0,0.7,0.1,0.9,0.3
		c0.2,0.2,0.4,0.5,0.4,0.9s-0.1,0.7-0.4,0.9c-0.2,0.2-0.5,0.3-0.9,0.3c-0.2,0-0.4,0-0.5-0.1c-0.2,0-0.3-0.1-0.4-0.2
		c-0.1-0.1-0.2-0.2-0.3-0.4C414.8,345.7,414.8,345.5,414.8,345.3L414.8,345.3z M413.8,345.3c0,0.3,0.1,0.7,0.3,0.9
		c0.2,0.3,0.4,0.5,0.8,0.6c-0.4,0.1-0.8,0.4-1,0.7c-0.2,0.3-0.3,0.7-0.3,1.2c0,0.4,0.1,0.7,0.2,1s0.3,0.5,0.5,0.7
		c0.2,0.2,0.5,0.3,0.8,0.4c0.3,0.1,0.7,0.1,1,0.1s0.7,0,1-0.2c0.3-0.1,0.6-0.3,0.8-0.4c0.2-0.2,0.4-0.4,0.5-0.7
		c0.1-0.3,0.2-0.6,0.2-1c0-0.5-0.1-0.9-0.3-1.2c-0.2-0.3-0.6-0.6-1-0.7c0.3-0.1,0.6-0.4,0.8-0.6c0.2-0.3,0.3-0.6,0.3-0.9
		c0-0.2,0-0.5-0.1-0.7c-0.1-0.2-0.2-0.4-0.4-0.6c-0.2-0.2-0.4-0.3-0.7-0.4c-0.3-0.1-0.6-0.2-1.1-0.2c-0.3,0-0.6,0-0.8,0.1
		s-0.5,0.2-0.7,0.4c-0.2,0.2-0.4,0.4-0.5,0.6C413.9,344.7,413.8,344.9,413.8,345.3L413.8,345.3z M414.5,348.8c0-0.2,0-0.4,0.1-0.6
		s0.2-0.3,0.3-0.5c0.1-0.1,0.3-0.2,0.5-0.3c0.2-0.1,0.4-0.1,0.6-0.1c0.2,0,0.4,0,0.6,0.1s0.4,0.2,0.5,0.3c0.1,0.1,0.3,0.3,0.3,0.5
		c0.1,0.2,0.1,0.4,0.1,0.6s0,0.4-0.1,0.6c-0.1,0.2-0.2,0.3-0.3,0.5s-0.3,0.2-0.5,0.3s-0.4,0.1-0.6,0.1c-0.5,0-0.9-0.1-1.2-0.4
		C414.7,349.6,414.5,349.2,414.5,348.8L414.5,348.8z M420.5,347.2c0-0.2,0-0.4,0-0.6c0-0.2,0-0.4,0.1-0.7c0-0.2,0.1-0.4,0.1-0.7
		c0.1-0.2,0.1-0.4,0.3-0.6c0.1-0.2,0.3-0.3,0.4-0.4c0.2-0.1,0.4-0.1,0.7-0.1s0.5,0,0.7,0.1c0.2,0.1,0.3,0.2,0.4,0.4
		c0.1,0.2,0.2,0.3,0.3,0.6c0.1,0.2,0.1,0.4,0.1,0.7c0,0.2,0,0.4,0.1,0.7c0,0.2,0,0.4,0,0.6c0,0.3,0,0.6,0,1c0,0.4-0.1,0.7-0.2,1
		s-0.3,0.6-0.5,0.8c-0.2,0.2-0.5,0.3-0.9,0.3c-0.4,0-0.7-0.1-0.9-0.3c-0.2-0.2-0.4-0.5-0.5-0.8s-0.2-0.6-0.2-1
		C420.5,347.8,420.4,347.5,420.5,347.2L420.5,347.2z M419.5,347.2c0,0.3,0,0.6,0,0.9c0,0.3,0,0.6,0.1,0.9c0.1,0.3,0.1,0.6,0.2,0.8
		c0.1,0.3,0.3,0.5,0.4,0.7c0.2,0.2,0.4,0.3,0.7,0.5c0.3,0.1,0.6,0.2,1,0.2s0.7-0.1,1-0.2c0.3-0.1,0.5-0.3,0.7-0.5
		c0.2-0.2,0.3-0.4,0.4-0.7c0.1-0.3,0.2-0.5,0.2-0.8c0.1-0.3,0.1-0.6,0.1-0.9c0-0.3,0-0.6,0-0.9s0-0.6,0-0.9c0-0.3,0-0.6-0.1-0.9
		c-0.1-0.3-0.1-0.6-0.2-0.8s-0.3-0.5-0.4-0.7c-0.2-0.2-0.4-0.3-0.7-0.5c-0.3-0.1-0.6-0.2-1-0.2s-0.7,0.1-1,0.2
		c-0.3,0.1-0.5,0.3-0.7,0.5c-0.2,0.2-0.3,0.4-0.4,0.7s-0.2,0.5-0.2,0.8c-0.1,0.3-0.1,0.6-0.1,0.9
		C419.5,346.6,419.5,346.9,419.5,347.2L419.5,347.2z"/>
	<path class="st1" d="M406.2,356.2h1c-0.1-0.4-0.2-0.8-0.4-1.1c-0.2-0.3-0.4-0.6-0.7-0.8c-0.3-0.2-0.6-0.4-1-0.5
		c-0.4-0.1-0.7-0.2-1.1-0.2c-0.6,0-1.1,0.1-1.6,0.3c-0.5,0.2-0.8,0.5-1.1,0.9c-0.3,0.4-0.5,0.8-0.7,1.3c-0.2,0.5-0.2,1-0.2,1.6
		s0.1,1.1,0.2,1.6c0.1,0.5,0.4,0.9,0.7,1.3c0.3,0.4,0.7,0.6,1.1,0.8c0.4,0.2,1,0.3,1.6,0.3c1,0,1.7-0.3,2.3-0.8
		c0.6-0.5,0.9-1.3,1-2.2h-1c0,0.3-0.1,0.6-0.2,0.9c-0.1,0.3-0.3,0.5-0.4,0.7c-0.2,0.2-0.4,0.3-0.7,0.5c-0.3,0.1-0.6,0.2-0.9,0.2
		c-0.5,0-0.8-0.1-1.2-0.3c-0.3-0.2-0.6-0.4-0.8-0.7c-0.2-0.3-0.4-0.6-0.5-1c-0.1-0.4-0.1-0.8-0.1-1.2c0-0.4,0-0.8,0.1-1.2
		c0.1-0.4,0.3-0.7,0.5-1c0.2-0.3,0.5-0.5,0.8-0.7c0.3-0.2,0.7-0.3,1.2-0.3c0.5,0,1,0.1,1.4,0.4C405.9,355.3,406.1,355.7,406.2,356.2
		L406.2,356.2z"/>
	<path class="st1" d="M409.6,369.5v-4.9h-1v4.9c0,0.7-0.2,1.2-0.5,1.6c-0.3,0.4-0.8,0.5-1.5,0.5c-0.7,0-1.2-0.2-1.6-0.5
		c-0.4-0.4-0.5-0.9-0.5-1.6v-4.9h-1v4.9c0,1,0.3,1.8,0.8,2.2c0.5,0.5,1.3,0.7,2.3,0.7c1,0,1.7-0.2,2.2-0.7
		C409.4,371.2,409.6,370.5,409.6,369.5L409.6,369.5z"/>
	<path class="st1" d="M400.2,382.5l1.3-3.6h0l1.3,3.6H400.2L400.2,382.5z M401,378l-3,7.6h1l0.9-2.3h3.2l0.8,2.3h1.1l-3-7.6H401
		L401,378z"/>
	<path class="st1" d="M392.9,388.3h1c-0.1-0.4-0.2-0.8-0.4-1.1c-0.2-0.3-0.4-0.6-0.7-0.8c-0.3-0.2-0.6-0.4-1-0.5
		c-0.4-0.1-0.7-0.2-1.1-0.2c-0.6,0-1.1,0.1-1.6,0.3c-0.5,0.2-0.8,0.5-1.1,0.9c-0.3,0.4-0.5,0.8-0.7,1.3c-0.2,0.5-0.2,1-0.2,1.6
		s0.1,1.1,0.2,1.6c0.1,0.5,0.4,0.9,0.7,1.3s0.7,0.6,1.1,0.8c0.4,0.2,1,0.3,1.6,0.3c1,0,1.7-0.3,2.3-0.8c0.6-0.5,0.9-1.3,1-2.2h-1
		c0,0.3-0.1,0.6-0.2,0.9c-0.1,0.3-0.3,0.5-0.4,0.7c-0.2,0.2-0.4,0.3-0.7,0.5c-0.3,0.1-0.6,0.2-0.9,0.2c-0.5,0-0.8-0.1-1.2-0.3
		c-0.3-0.2-0.6-0.4-0.8-0.7c-0.2-0.3-0.4-0.6-0.5-1c-0.1-0.4-0.1-0.8-0.1-1.2c0-0.4,0-0.8,0.1-1.2c0.1-0.4,0.3-0.7,0.5-1
		c0.2-0.3,0.5-0.5,0.8-0.7c0.3-0.2,0.7-0.3,1.2-0.3c0.5,0,1,0.1,1.4,0.4C392.5,387.3,392.8,387.8,392.9,388.3L392.9,388.3z"/>
	<path class="st1" d="M376.2,387.8l1.3-3.6h0l1.3,3.6H376.2L376.2,387.8z M376.9,383.3l-3,7.6h1l0.9-2.3h3.2l0.8,2.3h1.1l-3-7.6
		H376.9L376.9,383.3z"/>
	<path class="st1" d="M362.8,382.5l1.3-3.6h0l1.3,3.6H362.8L362.8,382.5z M363.6,378l-3,7.6h1l0.9-2.3h3.2l0.8,2.3h1.1l-3-7.6H363.6
		L363.6,378z"/>
	<path class="st1" d="M361.2,371.3l0.3,1h0.6v-4h-3.3v0.9h2.4c0,0.3,0,0.7-0.1,1c-0.1,0.3-0.3,0.6-0.5,0.8c-0.2,0.2-0.5,0.4-0.8,0.5
		c-0.3,0.1-0.7,0.2-1.1,0.2c-0.4,0-0.8-0.1-1.1-0.3c-0.3-0.2-0.6-0.4-0.8-0.7c-0.2-0.3-0.4-0.6-0.5-1s-0.2-0.8-0.2-1.1
		c0-0.4,0-0.8,0.1-1.2s0.3-0.7,0.5-1c0.2-0.3,0.5-0.5,0.8-0.7c0.3-0.2,0.7-0.3,1.2-0.3c0.3,0,0.6,0,0.8,0.1c0.3,0.1,0.5,0.2,0.7,0.3
		c0.2,0.1,0.4,0.3,0.5,0.5s0.2,0.5,0.3,0.8h1c-0.1-0.4-0.2-0.8-0.4-1.1c-0.2-0.3-0.4-0.6-0.7-0.8c-0.3-0.2-0.6-0.4-1-0.5
		c-0.4-0.1-0.8-0.1-1.2-0.1c-0.6,0-1.1,0.1-1.6,0.3c-0.5,0.2-0.8,0.5-1.1,0.9c-0.3,0.4-0.5,0.8-0.7,1.3c-0.2,0.5-0.2,1-0.2,1.6
		c0,0.5,0.1,1,0.2,1.4c0.2,0.5,0.4,0.9,0.7,1.2c0.3,0.4,0.7,0.6,1.1,0.8s1,0.3,1.5,0.3c0.4,0,0.9-0.1,1.3-0.3
		C360.5,372,360.9,371.7,361.2,371.3L361.2,371.3z"/>
	<path class="st1" d="M366.2,356.2h1c-0.1-0.4-0.2-0.8-0.4-1.1c-0.2-0.3-0.4-0.6-0.7-0.8c-0.3-0.2-0.6-0.4-1-0.5
		c-0.4-0.1-0.7-0.2-1.1-0.2c-0.6,0-1.1,0.1-1.6,0.3s-0.8,0.5-1.1,0.9c-0.3,0.4-0.5,0.8-0.7,1.3c-0.2,0.5-0.2,1-0.2,1.6
		s0.1,1.1,0.2,1.6c0.1,0.5,0.4,0.9,0.7,1.3c0.3,0.4,0.7,0.6,1.1,0.8c0.4,0.2,1,0.3,1.6,0.3c1,0,1.7-0.3,2.3-0.8
		c0.6-0.5,0.9-1.3,1-2.2h-1c0,0.3-0.1,0.6-0.2,0.9c-0.1,0.3-0.3,0.5-0.4,0.7c-0.2,0.2-0.4,0.3-0.7,0.5c-0.3,0.1-0.6,0.2-0.9,0.2
		c-0.5,0-0.8-0.1-1.2-0.3c-0.3-0.2-0.6-0.4-0.8-0.7c-0.2-0.3-0.4-0.6-0.5-1c-0.1-0.4-0.1-0.8-0.1-1.2c0-0.4,0-0.8,0.1-1.2
		c0.1-0.4,0.3-0.7,0.5-1c0.2-0.3,0.5-0.5,0.8-0.7c0.3-0.2,0.7-0.3,1.2-0.3c0.5,0,1,0.1,1.4,0.4C365.8,355.3,366.1,355.7,366.2,356.2
		L366.2,356.2z"/>
	<path class="st1" d="M369.6,348.1v-4.9h-1v4.9c0,0.7-0.2,1.2-0.5,1.6c-0.3,0.4-0.8,0.5-1.5,0.5c-0.7,0-1.2-0.2-1.6-0.5
		c-0.4-0.4-0.5-0.9-0.5-1.6v-4.9h-1v4.9c0,1,0.3,1.8,0.8,2.2c0.5,0.5,1.3,0.7,2.3,0.7c1,0,1.7-0.2,2.2-0.7
		C369.3,349.9,369.6,349.1,369.6,348.1L369.6,348.1z"/>
	<path class="st1" d="M374.9,337.5v-4.9h-1v4.9c0,0.7-0.2,1.2-0.5,1.6c-0.3,0.4-0.8,0.5-1.5,0.5c-0.7,0-1.2-0.2-1.6-0.5
		c-0.4-0.4-0.5-0.9-0.5-1.6v-4.9h-1v4.9c0,1,0.3,1.8,0.8,2.2s1.3,0.7,2.3,0.7s1.7-0.2,2.2-0.7C374.7,339.2,374.9,338.4,374.9,337.5
		L374.9,337.5z"/>
	<line class="st2" x1="365.1" y1="336.4" x2="357.9" y2="336.4"/>
	<path d="M346.8,338.4h-0.9c0.1,0.7,0.3,1.1,0.7,1.5c0.4,0.3,0.9,0.5,1.6,0.5c0.9,0,1.6-0.3,2-1.1s0.6-1.7,0.6-3
		c0-0.7-0.1-1.3-0.2-1.8c-0.1-0.5-0.3-0.8-0.6-1.1s-0.5-0.5-0.8-0.6c-0.3-0.1-0.6-0.2-1-0.2c-0.4,0-0.7,0.1-1,0.2
		c-0.3,0.1-0.6,0.3-0.8,0.5c-0.2,0.2-0.4,0.5-0.5,0.8c-0.1,0.3-0.2,0.6-0.2,1s0,0.7,0.2,1c0.1,0.3,0.3,0.6,0.5,0.8
		c0.2,0.2,0.5,0.4,0.8,0.5c0.3,0.1,0.6,0.2,1,0.2c0.4,0,0.7-0.1,1-0.3c0.3-0.2,0.6-0.4,0.7-0.8l0,0c0,1-0.2,1.7-0.5,2.2
		c-0.3,0.5-0.7,0.7-1.3,0.7c-0.4,0-0.7-0.1-0.9-0.3S346.9,338.7,346.8,338.4L346.8,338.4z M349.8,335.2c0,0.2,0,0.4-0.1,0.6
		c-0.1,0.2-0.2,0.4-0.3,0.5c-0.1,0.2-0.3,0.3-0.5,0.4c-0.2,0.1-0.4,0.1-0.6,0.1c-0.2,0-0.4,0-0.6-0.1c-0.2-0.1-0.3-0.2-0.5-0.4
		s-0.2-0.3-0.3-0.5c-0.1-0.2-0.1-0.4-0.1-0.6c0-0.2,0-0.5,0.1-0.7c0.1-0.2,0.1-0.4,0.3-0.6c0.1-0.2,0.3-0.3,0.5-0.4
		c0.2-0.1,0.4-0.1,0.7-0.1c0.3,0,0.5,0,0.7,0.1c0.2,0.1,0.4,0.2,0.5,0.4c0.1,0.2,0.2,0.3,0.3,0.5
		C349.7,334.7,349.8,334.9,349.8,335.2L349.8,335.2z M352.8,336.5c0-0.2,0-0.4,0-0.6c0-0.2,0-0.4,0.1-0.7c0-0.2,0.1-0.4,0.1-0.7
		c0.1-0.2,0.1-0.4,0.3-0.6c0.1-0.2,0.3-0.3,0.4-0.4c0.2-0.1,0.4-0.1,0.7-0.1s0.5,0,0.7,0.1c0.2,0.1,0.3,0.2,0.4,0.4
		c0.1,0.2,0.2,0.3,0.3,0.6c0.1,0.2,0.1,0.4,0.1,0.7c0,0.2,0,0.4,0.1,0.7c0,0.2,0,0.4,0,0.6c0,0.3,0,0.6,0,1c0,0.4-0.1,0.7-0.2,1
		c-0.1,0.3-0.3,0.6-0.5,0.8c-0.2,0.2-0.5,0.3-0.9,0.3c-0.4,0-0.7-0.1-0.9-0.3c-0.2-0.2-0.4-0.5-0.5-0.8c-0.1-0.3-0.2-0.6-0.2-1
		C352.7,337.1,352.7,336.8,352.8,336.5L352.8,336.5z M351.8,336.5c0,0.3,0,0.6,0,0.9c0,0.3,0,0.6,0.1,0.9c0.1,0.3,0.1,0.6,0.2,0.8
		s0.3,0.5,0.4,0.7c0.2,0.2,0.4,0.3,0.7,0.5c0.3,0.1,0.6,0.2,1,0.2s0.7-0.1,1-0.2c0.3-0.1,0.5-0.3,0.7-0.5c0.2-0.2,0.3-0.4,0.4-0.7
		c0.1-0.3,0.2-0.5,0.2-0.8c0.1-0.3,0.1-0.6,0.1-0.9c0-0.3,0-0.6,0-0.9c0-0.3,0-0.6,0-0.9c0-0.3,0-0.6-0.1-0.9
		c-0.1-0.3-0.1-0.6-0.2-0.8c-0.1-0.3-0.3-0.5-0.4-0.7c-0.2-0.2-0.4-0.3-0.7-0.5c-0.3-0.1-0.6-0.2-1-0.2s-0.7,0.1-1,0.2
		c-0.3,0.1-0.5,0.3-0.7,0.5c-0.2,0.2-0.3,0.4-0.4,0.7c-0.1,0.3-0.2,0.5-0.2,0.8c-0.1,0.3-0.1,0.6-0.1,0.9
		C351.8,335.9,351.8,336.2,351.8,336.5L351.8,336.5z"/>
	<path class="st7" d="M374.2,324.2h1c-0.1-0.4-0.2-0.8-0.4-1.1c-0.2-0.3-0.4-0.6-0.7-0.8c-0.3-0.2-0.6-0.4-1-0.5
		c-0.4-0.1-0.7-0.2-1.1-0.2c-0.6,0-1.1,0.1-1.6,0.3c-0.5,0.2-0.8,0.5-1.1,0.9c-0.3,0.4-0.5,0.8-0.7,1.3c-0.2,0.5-0.2,1-0.2,1.6
		c0,0.6,0.1,1.1,0.2,1.6c0.1,0.5,0.4,0.9,0.7,1.3c0.3,0.4,0.7,0.6,1.1,0.8c0.4,0.2,1,0.3,1.6,0.3c1,0,1.7-0.3,2.3-0.8s0.9-1.3,1-2.2
		h-1c0,0.3-0.1,0.6-0.2,0.9c-0.1,0.3-0.3,0.5-0.4,0.7c-0.2,0.2-0.4,0.3-0.7,0.5c-0.3,0.1-0.6,0.2-0.9,0.2c-0.5,0-0.8-0.1-1.2-0.3
		c-0.3-0.2-0.6-0.4-0.8-0.7c-0.2-0.3-0.4-0.6-0.5-1c-0.1-0.4-0.1-0.8-0.1-1.2c0-0.4,0-0.8,0.1-1.2s0.3-0.7,0.5-1s0.5-0.5,0.8-0.7
		c0.3-0.2,0.7-0.3,1.2-0.3c0.5,0,1,0.1,1.4,0.4S374.1,323.7,374.2,324.2L374.2,324.2z"/>
	<path class="st7" d="M374.9,316.1v-4.9h-1v4.9c0,0.7-0.2,1.2-0.5,1.6c-0.3,0.4-0.8,0.5-1.5,0.5c-0.7,0-1.2-0.2-1.6-0.5
		c-0.4-0.4-0.5-0.9-0.5-1.6v-4.9h-1v4.9c0,1,0.3,1.8,0.8,2.2s1.3,0.7,2.3,0.7s1.7-0.2,2.2-0.7C374.7,317.8,374.9,317.1,374.9,316.1
		L374.9,316.1z"/>
	<path class="st7" d="M374.5,307.2l0.3,1h0.6v-4h-3.3v0.9h2.4c0,0.3,0,0.7-0.1,1c-0.1,0.3-0.3,0.6-0.5,0.8c-0.2,0.2-0.5,0.4-0.8,0.5
		c-0.3,0.1-0.7,0.2-1.1,0.2c-0.4,0-0.8-0.1-1.1-0.3c-0.3-0.2-0.6-0.4-0.8-0.7c-0.2-0.3-0.4-0.6-0.5-1c-0.1-0.4-0.2-0.8-0.2-1.1
		s0-0.8,0.1-1.2c0.1-0.4,0.3-0.7,0.5-1c0.2-0.3,0.5-0.5,0.8-0.7c0.3-0.2,0.7-0.3,1.2-0.3c0.3,0,0.6,0,0.8,0.1
		c0.3,0.1,0.5,0.2,0.7,0.3c0.2,0.1,0.4,0.3,0.5,0.5c0.1,0.2,0.2,0.5,0.3,0.8h1c-0.1-0.4-0.2-0.8-0.4-1.1c-0.2-0.3-0.4-0.6-0.7-0.8
		c-0.3-0.2-0.6-0.4-1-0.5c-0.4-0.1-0.8-0.1-1.2-0.1c-0.6,0-1.1,0.1-1.6,0.3c-0.5,0.2-0.8,0.5-1.1,0.9c-0.3,0.4-0.5,0.8-0.7,1.3
		c-0.2,0.5-0.2,1-0.2,1.6c0,0.5,0.1,1,0.2,1.4c0.2,0.5,0.4,0.9,0.7,1.2c0.3,0.4,0.7,0.6,1.1,0.8s1,0.3,1.5,0.3
		c0.4,0,0.9-0.1,1.3-0.3C373.9,307.9,374.2,307.6,374.5,307.2L374.5,307.2z"/>
	<path class="st7" d="M374.5,296.6l0.3,1h0.6v-4h-3.3v0.9h2.4c0,0.3,0,0.7-0.1,1c-0.1,0.3-0.3,0.6-0.5,0.8c-0.2,0.2-0.5,0.4-0.8,0.5
		c-0.3,0.1-0.7,0.2-1.1,0.2c-0.4,0-0.8-0.1-1.1-0.3c-0.3-0.2-0.6-0.4-0.8-0.7c-0.2-0.3-0.4-0.6-0.5-1c-0.1-0.4-0.2-0.8-0.2-1.1
		s0-0.8,0.1-1.2c0.1-0.4,0.3-0.7,0.5-1c0.2-0.3,0.5-0.5,0.8-0.7c0.3-0.2,0.7-0.3,1.2-0.3c0.3,0,0.6,0,0.8,0.1
		c0.3,0.1,0.5,0.2,0.7,0.3c0.2,0.1,0.4,0.3,0.5,0.5c0.1,0.2,0.2,0.5,0.3,0.8h1c-0.1-0.4-0.2-0.8-0.4-1.1c-0.2-0.3-0.4-0.6-0.7-0.8
		c-0.3-0.2-0.6-0.4-1-0.5c-0.4-0.1-0.8-0.1-1.2-0.1c-0.6,0-1.1,0.1-1.6,0.3c-0.5,0.2-0.8,0.5-1.1,0.9c-0.3,0.4-0.5,0.8-0.7,1.3
		c-0.2,0.5-0.2,1-0.2,1.6c0,0.5,0.1,1,0.2,1.4c0.2,0.5,0.4,0.9,0.7,1.2c0.3,0.4,0.7,0.6,1.1,0.8s1,0.3,1.5,0.3
		c0.4,0,0.9-0.1,1.3-0.3C373.9,297.2,374.2,297,374.5,296.6L374.5,296.6z"/>
	<path class="st7" d="M370.8,283.7l1.3-3.6h0l1.3,3.6H370.8L370.8,283.7z M371.6,279.2l-3,7.6h1l0.9-2.3h3.2l0.8,2.3h1.1l-3-7.6
		H371.6L371.6,279.2z"/>
	<g>
		<line class="st2" x1="389.3" y1="283" x2="376.4" y2="283"/>
		<line class="st2" x1="389.3" y1="293.7" x2="376.4" y2="293.7"/>
		<line class="st2" x1="389.3" y1="304.4" x2="376.4" y2="304.4"/>
		<line class="st2" x1="389.3" y1="315" x2="376.4" y2="315"/>
		<line class="st2" x1="389.3" y1="325.7" x2="376.4" y2="325.7"/>
	</g>
	<path class="st1" d="M282.7,184.9l1.3-3.6h0l1.3,3.6H282.7L282.7,184.9z M283.5,180.4l-3,7.6h1l0.9-2.3h3.2l0.8,2.3h1.1l-3-7.6
		H283.5L283.5,180.4z"/>
	<path class="st1" d="M290.7,176.9l1.3-3.6h0l1.3,3.6H290.7L290.7,176.9z M291.5,172.4l-3,7.6h1l0.9-2.3h3.2l0.8,2.3h1.1l-3-7.6
		H291.5L291.5,172.4z"/>
	<path class="st8" d="M300.2,169.3v-4.9h-1v4.9c0,0.7-0.2,1.2-0.5,1.6c-0.3,0.4-0.8,0.5-1.5,0.5c-0.7,0-1.2-0.2-1.6-0.5
		c-0.4-0.4-0.5-0.9-0.5-1.6v-4.9h-1v4.9c0,1,0.3,1.8,0.8,2.2c0.5,0.5,1.3,0.7,2.3,0.7s1.7-0.2,2.2-0.7
		C299.9,171,300.2,170.2,300.2,169.3L300.2,169.3z"/>
	<path class="st8" d="M300.2,158.6v-4.9h-1v4.9c0,0.7-0.2,1.2-0.5,1.6c-0.3,0.4-0.8,0.5-1.5,0.5c-0.7,0-1.2-0.2-1.6-0.5
		c-0.4-0.4-0.5-0.9-0.5-1.6v-4.9h-1v4.9c0,1,0.3,1.8,0.8,2.2c0.5,0.5,1.3,0.7,2.3,0.7s1.7-0.2,2.2-0.7
		C299.9,160.3,300.2,159.6,300.2,158.6L300.2,158.6z"/>
	<path class="st8" d="M299.4,145.3h1c-0.1-0.4-0.2-0.8-0.4-1.1c-0.2-0.3-0.4-0.6-0.7-0.8c-0.3-0.2-0.6-0.4-1-0.5
		c-0.4-0.1-0.7-0.2-1.1-0.2c-0.6,0-1.1,0.1-1.6,0.3c-0.5,0.2-0.8,0.5-1.1,0.9c-0.3,0.4-0.5,0.8-0.7,1.3c-0.2,0.5-0.2,1-0.2,1.6
		s0.1,1.1,0.2,1.6c0.1,0.5,0.4,0.9,0.7,1.3c0.3,0.4,0.7,0.6,1.1,0.8c0.4,0.2,1,0.3,1.6,0.3c1,0,1.7-0.3,2.3-0.8
		c0.6-0.5,0.9-1.3,1-2.2h-1c0,0.3-0.1,0.6-0.2,0.9c-0.1,0.3-0.3,0.5-0.4,0.7c-0.2,0.2-0.4,0.3-0.7,0.5c-0.3,0.1-0.6,0.2-0.9,0.2
		c-0.5,0-0.8-0.1-1.2-0.3c-0.3-0.2-0.6-0.4-0.8-0.7c-0.2-0.3-0.4-0.6-0.5-1c-0.1-0.4-0.1-0.8-0.1-1.2c0-0.4,0-0.8,0.1-1.2
		c0.1-0.4,0.3-0.7,0.5-1s0.5-0.5,0.8-0.7c0.3-0.2,0.7-0.3,1.2-0.3c0.5,0,1,0.1,1.4,0.4S299.3,144.8,299.4,145.3L299.4,145.3z"/>
	<line class="st2" x1="290.3" y1="146.8" x2="283.2" y2="146.8"/>
	<path d="M274.5,150.7v-7.6h-0.7c0,0.3-0.1,0.5-0.3,0.7c-0.1,0.2-0.3,0.3-0.5,0.4c-0.2,0.1-0.4,0.2-0.7,0.2c-0.2,0-0.5,0.1-0.7,0.1
		v0.7h2v5.4L274.5,150.7L274.5,150.7z M278,146.9c0-0.2,0-0.4,0-0.6c0-0.2,0-0.4,0.1-0.7c0-0.2,0.1-0.4,0.1-0.7
		c0.1-0.2,0.1-0.4,0.3-0.6c0.1-0.2,0.3-0.3,0.4-0.4c0.2-0.1,0.4-0.1,0.7-0.1s0.5,0,0.7,0.1c0.2,0.1,0.3,0.2,0.4,0.4
		c0.1,0.2,0.2,0.3,0.3,0.6c0.1,0.2,0.1,0.4,0.1,0.7c0,0.2,0,0.4,0.1,0.7c0,0.2,0,0.4,0,0.6c0,0.3,0,0.6,0,1c0,0.4-0.1,0.7-0.2,1
		c-0.1,0.3-0.3,0.6-0.5,0.8c-0.2,0.2-0.5,0.3-0.9,0.3c-0.4,0-0.7-0.1-0.9-0.3c-0.2-0.2-0.4-0.5-0.5-0.8c-0.1-0.3-0.2-0.6-0.2-1
		C278,147.5,278,147.2,278,146.9L278,146.9z M277,146.9c0,0.3,0,0.6,0,0.9c0,0.3,0,0.6,0.1,0.9c0.1,0.3,0.1,0.6,0.2,0.8
		c0.1,0.3,0.3,0.5,0.4,0.7c0.2,0.2,0.4,0.3,0.7,0.5c0.3,0.1,0.6,0.2,1,0.2s0.7-0.1,1-0.2c0.3-0.1,0.5-0.3,0.7-0.5
		c0.2-0.2,0.3-0.4,0.4-0.7c0.1-0.3,0.2-0.5,0.2-0.8s0.1-0.6,0.1-0.9c0-0.3,0-0.6,0-0.9s0-0.6,0-0.9c0-0.3,0-0.6-0.1-0.9
		c-0.1-0.3-0.1-0.6-0.2-0.8s-0.3-0.5-0.4-0.7c-0.2-0.2-0.4-0.3-0.7-0.5c-0.3-0.1-0.6-0.2-1-0.2s-0.7,0.1-1,0.2
		c-0.3,0.1-0.5,0.3-0.7,0.5c-0.2,0.2-0.3,0.4-0.4,0.7c-0.1,0.3-0.2,0.5-0.2,0.8c-0.1,0.3-0.1,0.6-0.1,0.9S277,146.7,277,146.9
		L277,146.9z"/>
	<path class="st8" d="M296.1,136.8l1.3-3.6h0l1.3,3.6H296.1L296.1,136.8z M296.8,132.4l-3,7.6h1l0.9-2.3h3.2l0.8,2.3h1.1l-3-7.6
		H296.8L296.8,132.4z"/>
	<path class="st8" d="M296.1,126.2l1.3-3.6h0l1.3,3.6H296.1L296.1,126.2z M296.8,121.7l-3,7.6h1l0.9-2.3h3.2l0.8,2.3h1.1l-3-7.6
		H296.8L296.8,121.7z"/>
	<path class="st1" d="M330.8,126.2l1.3-3.6h0l1.3,3.6H330.8L330.8,126.2z M331.6,121.7l-3,7.6h1l0.9-2.3h3.2l0.8,2.3h1.1l-3-7.6
		H331.6L331.6,121.7z"/>
	<path class="st8" d="M321.5,126.6v-4.9h-1v4.9c0,0.7-0.2,1.2-0.5,1.6c-0.3,0.4-0.8,0.5-1.5,0.5c-0.7,0-1.2-0.2-1.6-0.5
		c-0.4-0.4-0.5-0.9-0.5-1.6v-4.9h-1v4.9c0,1,0.3,1.8,0.8,2.2s1.3,0.7,2.3,0.7s1.7-0.2,2.2-0.7C321.3,128.3,321.5,127.5,321.5,126.6
		L321.5,126.6z"/>
	<path class="st8" d="M321.5,137.2v-4.9h-1v4.9c0,0.7-0.2,1.2-0.5,1.6c-0.3,0.4-0.8,0.5-1.5,0.5c-0.7,0-1.2-0.2-1.6-0.5
		c-0.4-0.4-0.5-0.9-0.5-1.6v-4.9h-1v4.9c0,1,0.3,1.8,0.8,2.2c0.5,0.5,1.3,0.7,2.3,0.7s1.7-0.2,2.2-0.7
		C321.3,138.9,321.5,138.2,321.5,137.2L321.5,137.2z"/>
	<path class="st8" d="M321.1,149.7l0.3,1h0.6v-4h-3.3v0.9h2.4c0,0.3,0,0.7-0.1,1c-0.1,0.3-0.3,0.6-0.5,0.8c-0.2,0.2-0.5,0.4-0.8,0.5
		c-0.3,0.1-0.7,0.2-1.1,0.2c-0.4,0-0.8-0.1-1.1-0.3c-0.3-0.2-0.6-0.4-0.8-0.7c-0.2-0.3-0.4-0.6-0.5-1c-0.1-0.4-0.2-0.8-0.2-1.1
		c0-0.4,0-0.8,0.1-1.2c0.1-0.4,0.3-0.7,0.5-1c0.2-0.3,0.5-0.5,0.8-0.7c0.3-0.2,0.7-0.3,1.2-0.3c0.3,0,0.6,0,0.8,0.1
		c0.3,0.1,0.5,0.2,0.7,0.3c0.2,0.1,0.4,0.3,0.5,0.5s0.2,0.5,0.3,0.8h1c-0.1-0.4-0.2-0.8-0.4-1.1c-0.2-0.3-0.4-0.6-0.7-0.8
		c-0.3-0.2-0.6-0.4-1-0.5c-0.4-0.1-0.8-0.1-1.2-0.1c-0.6,0-1.1,0.1-1.6,0.3c-0.5,0.2-0.8,0.5-1.1,0.9c-0.3,0.4-0.5,0.8-0.7,1.3
		c-0.2,0.5-0.2,1-0.2,1.6c0,0.5,0.1,1,0.2,1.4c0.2,0.5,0.4,0.9,0.7,1.2c0.3,0.4,0.7,0.6,1.1,0.8c0.4,0.2,1,0.3,1.5,0.3
		c0.4,0,0.9-0.1,1.3-0.3C320.5,150.4,320.8,150.1,321.1,149.7L321.1,149.7z"/>
	<path class="st8" d="M317.4,158.2l1.3-3.6h0l1.3,3.6H317.4L317.4,158.2z M318.2,153.7l-3,7.6h1l0.9-2.3h3.2l0.8,2.3h1.1l-3-7.6
		L318.2,153.7L318.2,153.7z"/>
	<path class="st8" d="M321.1,171.1l0.3,1h0.6v-4h-3.3v0.9h2.4c0,0.3,0,0.7-0.1,1c-0.1,0.3-0.3,0.6-0.5,0.8c-0.2,0.2-0.5,0.4-0.8,0.5
		c-0.3,0.1-0.7,0.2-1.1,0.2c-0.4,0-0.8-0.1-1.1-0.3c-0.3-0.2-0.6-0.4-0.8-0.7c-0.2-0.3-0.4-0.6-0.5-1c-0.1-0.4-0.2-0.8-0.2-1.1
		c0-0.4,0-0.8,0.1-1.2c0.1-0.4,0.3-0.7,0.5-1c0.2-0.3,0.5-0.5,0.8-0.7c0.3-0.2,0.7-0.3,1.2-0.3c0.3,0,0.6,0,0.8,0.1
		c0.3,0.1,0.5,0.2,0.7,0.3c0.2,0.1,0.4,0.3,0.5,0.5c0.1,0.2,0.2,0.5,0.3,0.8h1c-0.1-0.4-0.2-0.8-0.4-1.1c-0.2-0.3-0.4-0.6-0.7-0.8
		c-0.3-0.2-0.6-0.4-1-0.5c-0.4-0.1-0.8-0.1-1.2-0.1c-0.6,0-1.1,0.1-1.6,0.3c-0.5,0.2-0.8,0.5-1.1,0.9c-0.3,0.4-0.5,0.8-0.7,1.3
		c-0.2,0.5-0.2,1-0.2,1.6c0,0.5,0.1,1,0.2,1.4c0.2,0.5,0.4,0.9,0.7,1.2c0.3,0.4,0.7,0.6,1.1,0.8c0.4,0.2,1,0.3,1.5,0.3
		c0.4,0,0.9-0.1,1.3-0.3C320.5,171.8,320.8,171.5,321.1,171.1L321.1,171.1z"/>
	<path class="st1" d="M331.8,179.1l0.3,1h0.6v-4h-3.3v0.9h2.4c0,0.3,0,0.7-0.1,1c-0.1,0.3-0.3,0.6-0.5,0.8c-0.2,0.2-0.5,0.4-0.8,0.5
		c-0.3,0.1-0.7,0.2-1.1,0.2c-0.4,0-0.8-0.1-1.1-0.3s-0.6-0.4-0.8-0.7c-0.2-0.3-0.4-0.6-0.5-1c-0.1-0.4-0.2-0.8-0.2-1.1
		c0-0.4,0-0.8,0.1-1.2c0.1-0.4,0.3-0.7,0.5-1c0.2-0.3,0.5-0.5,0.8-0.7c0.3-0.2,0.7-0.3,1.2-0.3c0.3,0,0.6,0,0.8,0.1
		c0.3,0.1,0.5,0.2,0.7,0.3c0.2,0.1,0.4,0.3,0.5,0.5c0.1,0.2,0.2,0.5,0.3,0.8h1c-0.1-0.4-0.2-0.8-0.4-1.1c-0.2-0.3-0.4-0.6-0.7-0.8
		c-0.3-0.2-0.6-0.4-1-0.5c-0.4-0.1-0.8-0.1-1.2-0.1c-0.6,0-1.1,0.1-1.6,0.3c-0.5,0.2-0.8,0.5-1.1,0.9c-0.3,0.4-0.5,0.8-0.7,1.3
		c-0.2,0.5-0.2,1-0.2,1.6c0,0.5,0.1,1,0.2,1.4c0.2,0.5,0.4,0.9,0.7,1.2c0.3,0.4,0.7,0.6,1.1,0.8c0.4,0.2,1,0.3,1.5,0.3
		c0.4,0,0.9-0.1,1.3-0.3C331.1,179.8,331.5,179.5,331.8,179.1L331.8,179.1z"/>
	<line class="st2" x1="336.6" y1="176.2" x2="343.7" y2="176.2"/>
	<path d="M348.7,173.4v-0.8H345l-0.7,3.9l0.8,0c0.2-0.2,0.4-0.4,0.6-0.5c0.2-0.1,0.5-0.2,0.8-0.2c0.3,0,0.5,0,0.7,0.1
		c0.2,0.1,0.4,0.2,0.5,0.4c0.1,0.2,0.3,0.3,0.3,0.5s0.1,0.4,0.1,0.7c0,0.3,0,0.6-0.1,0.8s-0.2,0.4-0.3,0.6c-0.1,0.1-0.3,0.3-0.5,0.3
		c-0.2,0.1-0.4,0.1-0.6,0.1c-0.2,0-0.4,0-0.6-0.1c-0.2-0.1-0.4-0.2-0.5-0.3c-0.1-0.1-0.3-0.3-0.3-0.4s-0.1-0.3-0.1-0.5h-0.9
		c0,0.3,0.1,0.6,0.2,0.9c0.1,0.3,0.3,0.5,0.5,0.7c0.2,0.2,0.5,0.3,0.8,0.4c0.3,0.1,0.6,0.1,0.9,0.1c0.4,0,0.8-0.1,1.2-0.2
		c0.3-0.1,0.6-0.3,0.8-0.6c0.2-0.2,0.4-0.5,0.5-0.8c0.1-0.3,0.2-0.6,0.2-0.9c0-0.4-0.1-0.8-0.2-1.1c-0.1-0.3-0.3-0.6-0.5-0.8
		c-0.2-0.2-0.5-0.4-0.8-0.5c-0.3-0.1-0.6-0.2-1-0.2c-0.3,0-0.5,0-0.8,0.1s-0.5,0.2-0.6,0.4l0,0l0.4-2.2L348.7,173.4L348.7,173.4z
		 M351,176.3c0-0.2,0-0.4,0-0.6s0-0.4,0.1-0.7c0-0.2,0.1-0.4,0.1-0.7c0.1-0.2,0.1-0.4,0.3-0.6c0.1-0.2,0.3-0.3,0.4-0.4
		c0.2-0.1,0.4-0.1,0.7-0.1s0.5,0,0.7,0.1c0.2,0.1,0.3,0.2,0.4,0.4c0.1,0.2,0.2,0.3,0.3,0.6c0.1,0.2,0.1,0.4,0.1,0.7
		c0,0.2,0,0.4,0.1,0.7c0,0.2,0,0.4,0,0.6c0,0.3,0,0.6,0,1c0,0.4-0.1,0.7-0.2,1c-0.1,0.3-0.3,0.6-0.5,0.8c-0.2,0.2-0.5,0.3-0.9,0.3
		c-0.4,0-0.7-0.1-0.9-0.3c-0.2-0.2-0.4-0.5-0.5-0.8c-0.1-0.3-0.2-0.6-0.2-1C351,176.9,351,176.6,351,176.3L351,176.3z M350.1,176.3
		c0,0.3,0,0.6,0,0.9c0,0.3,0,0.6,0.1,0.9c0.1,0.3,0.1,0.6,0.2,0.8c0.1,0.3,0.3,0.5,0.4,0.7c0.2,0.2,0.4,0.3,0.7,0.5
		c0.3,0.1,0.6,0.2,1,0.2s0.7-0.1,1-0.2c0.3-0.1,0.5-0.3,0.7-0.5c0.2-0.2,0.3-0.4,0.4-0.7c0.1-0.3,0.2-0.5,0.2-0.8s0.1-0.6,0.1-0.9
		c0-0.3,0-0.6,0-0.9c0-0.3,0-0.6,0-0.9c0-0.3,0-0.6-0.1-0.9c-0.1-0.3-0.1-0.6-0.2-0.8c-0.1-0.3-0.3-0.5-0.4-0.7
		c-0.2-0.2-0.4-0.3-0.7-0.5c-0.3-0.1-0.6-0.2-1-0.2s-0.7,0.1-1,0.2c-0.3,0.1-0.5,0.3-0.7,0.5c-0.2,0.2-0.3,0.4-0.4,0.7
		s-0.2,0.5-0.2,0.8c-0.1,0.3-0.1,0.6-0.1,0.9C350.1,175.8,350.1,176,350.1,176.3L350.1,176.3z"/>
	<path d="M306.3,169.3l0.1,0.1l0.1,0.1l0.1,0.1l0.1,0.1l0.1,0.1l0.1,0.1l0.1,0.1l0.1,0.1l0.1,0.1l0.1,0.1l0.1,0l0.1,0l0.1,0l0.1,0
		l0.1,0h0.1h0.1l0.1,0l0.1,0l0.1,0l0.1,0l0.1,0l0.1-0.1l0.1-0.1l0.1-0.1l0.1-0.1l0.1-0.1l0.1-0.1l0.1-0.1l0.1-0.1l0.1-0.1l0.1-0.1
		l0.1-0.1l0.1-0.1l0.1-0.1l0-0.1l0-0.1l0-0.1l0-0.1l0-0.1v-0.1V168l0-0.1l0-0.1l0-0.1l0-0.1l0-0.1l-0.1-0.1l-0.1-0.1l-0.1-0.1
		l-0.1-0.1l-0.1-0.1l-0.1-0.1l-0.1-0.1l-0.1-0.1l-0.1-0.1l-0.1-0.1l-0.1-0.1l-0.1-0.1l-0.1-0.1l-0.1,0l-0.1,0l-0.1,0l-0.1,0l-0.1,0
		h-0.1h-0.1l-0.1,0l-0.1,0l-0.1,0l-0.1,0l-0.1,0l-0.1,0.1l-0.1,0.1l-0.1,0.1l-0.1,0.1l-0.1,0.1l-0.1,0.1l-0.1,0.1l-0.1,0.1l-0.1,0.1
		l-0.1,0.1l-0.1,0.1l-0.1,0.1l0,0.1l0,0.1l0,0.1l0,0.1l0,0.1v0.1l0,0.1v0.1l0,0.1l0,0.1l0,0.1l0,0.1l0,0.1l0.1,0.1L306.3,169.3
		L306.3,169.3z"/>
	<g>
		<path class="st9" d="M310.2,168.2v-0.1l0-0.1l0-0.1l0-0.1l0-0.1l0-0.1l-0.1-0.1l-0.1-0.1l-0.1-0.1l-0.1-0.1l-0.1-0.1l-0.1-0.1
			l-0.1-0.1l-0.1-0.1l-0.1-0.1l-0.1-0.1l-0.1-0.1l-0.1-0.1l-0.1-0.1l-0.1,0l-0.1,0l-0.1,0l-0.1,0l-0.1,0h-0.1H308l-0.1,0l-0.1,0
			l-0.1,0l-0.1,0l-0.1,0l-0.1,0.1l-0.1,0.1l-0.1,0.1l-0.1,0.1l-0.1,0.1l-0.1,0.1l-0.1,0.1l-0.1,0.1l-0.1,0.1l-0.1,0.1l-0.1,0.1
			l-0.1,0.1l0,0.1l0,0.1l0,0.1l0,0.1l0,0.1v0.1l0,0.1v0.1l0,0.1l0,0.1l0,0.1l0,0.1l0,0.1l0.1,0.1l0.1,0.1l0.1,0.1l0.1,0.1l0.1,0.1
			l0.1,0.1l0.1,0.1l0.1,0.1l0.1,0.1l0.1,0.1l0.1,0.1l0.1,0.1l0.1,0l0.1,0l0.1,0l0.1,0l0.1,0h0.1h0.1l0.1,0l0.1,0l0.1,0l0.1,0l0.1,0
			l0.1-0.1l0.1-0.1l0.1-0.1l0.1-0.1l0.1-0.1l0.1-0.1l0.1-0.1l0.1-0.1l0.1-0.1l0.1-0.1l0.1-0.1l0.1-0.1l0.1-0.1l0-0.1l0-0.1l0-0.1
			l0-0.1L310.2,168.2L310.2,168.2L310.2,168.2"/>
		<line class="st2" x1="301.7" y1="157.5" x2="314.5" y2="157.5"/>
		<line class="st2" x1="301.7" y1="146.8" x2="314.5" y2="146.8"/>
		<line class="st2" x1="301.7" y1="136.2" x2="314.5" y2="136.2"/>
		<line class="st2" x1="301.7" y1="125.5" x2="314.5" y2="125.5"/>
	</g>
	<path d="M299.6,247.6v-0.8h-3.7l-0.7,3.8l0.8,0c0.2-0.2,0.4-0.4,0.6-0.5c0.2-0.1,0.5-0.2,0.8-0.2c0.3,0,0.5,0,0.7,0.1
		c0.2,0.1,0.4,0.2,0.5,0.3c0.1,0.1,0.3,0.3,0.3,0.5c0.1,0.2,0.1,0.4,0.1,0.7c0,0.3,0,0.5-0.1,0.8c-0.1,0.2-0.2,0.4-0.3,0.5
		c-0.1,0.1-0.3,0.3-0.5,0.3c-0.2,0.1-0.4,0.1-0.6,0.1c-0.2,0-0.4,0-0.6-0.1c-0.2-0.1-0.3-0.2-0.5-0.3c-0.1-0.1-0.2-0.3-0.3-0.4
		c-0.1-0.2-0.1-0.3-0.1-0.5H295c0,0.3,0.1,0.6,0.2,0.9c0.1,0.3,0.3,0.5,0.5,0.7c0.2,0.2,0.5,0.3,0.7,0.4c0.3,0.1,0.6,0.1,0.9,0.1
		c0.4,0,0.8-0.1,1.1-0.2c0.3-0.1,0.6-0.3,0.8-0.5c0.2-0.2,0.4-0.5,0.5-0.8c0.1-0.3,0.2-0.6,0.2-0.9c0-0.4-0.1-0.8-0.2-1.1
		c-0.1-0.3-0.3-0.6-0.5-0.8c-0.2-0.2-0.5-0.4-0.8-0.5c-0.3-0.1-0.6-0.2-0.9-0.2c-0.3,0-0.5,0-0.8,0.1c-0.3,0.1-0.5,0.2-0.6,0.4l0,0
		l0.4-2.1L299.6,247.6L299.6,247.6z M301.6,246.7v2.7h0.7v-2.7H301.6z"/>
	<path d="M293.5,278.4v0.8c0.2,0,0.3,0,0.5,0c0.2,0,0.4,0,0.6,0.1c0.2,0.1,0.4,0.2,0.5,0.3c0.1,0.1,0.3,0.3,0.3,0.5
		c0.1,0.2,0.1,0.4,0.1,0.6c0,0.2,0,0.4-0.1,0.6c-0.1,0.2-0.2,0.3-0.3,0.4c-0.1,0.1-0.3,0.2-0.5,0.3c-0.2,0.1-0.4,0.1-0.6,0.1
		c-0.5,0-0.9-0.2-1.2-0.5c-0.3-0.3-0.4-0.7-0.4-1.2h-0.9c0,0.4,0,0.7,0.2,1c0.1,0.3,0.3,0.5,0.5,0.8c0.2,0.2,0.5,0.4,0.8,0.5
		c0.3,0.1,0.6,0.2,1,0.2c0.3,0,0.7,0,1-0.1c0.3-0.1,0.6-0.2,0.8-0.4c0.2-0.2,0.4-0.4,0.5-0.7s0.2-0.6,0.2-1c0-0.4-0.1-0.8-0.3-1.2
		c-0.2-0.3-0.6-0.5-1-0.6v0c0.3-0.1,0.5-0.3,0.7-0.6c0.2-0.3,0.3-0.6,0.3-0.9c0-0.3-0.1-0.6-0.2-0.9c-0.1-0.3-0.3-0.5-0.5-0.6
		c-0.2-0.2-0.4-0.3-0.7-0.4c-0.3-0.1-0.6-0.1-0.9-0.1c-0.4,0-0.7,0.1-1,0.2c-0.3,0.1-0.5,0.3-0.7,0.5c-0.2,0.2-0.3,0.5-0.4,0.8
		c-0.1,0.3-0.2,0.6-0.2,1h0.9c0-0.2,0-0.4,0.1-0.6s0.1-0.4,0.3-0.5s0.3-0.3,0.4-0.3c0.2-0.1,0.4-0.1,0.6-0.1c0.4,0,0.7,0.1,0.9,0.3
		c0.3,0.2,0.4,0.5,0.4,0.9c0,0.2,0,0.4-0.1,0.5c-0.1,0.2-0.2,0.3-0.3,0.4c-0.1,0.1-0.3,0.2-0.4,0.2c-0.2,0-0.3,0.1-0.5,0.1
		L293.5,278.4C293.6,278.4,293.5,278.4,293.5,278.4L293.5,278.4z M298.1,275.2v2.7h0.7v-2.7H298.1z"/>
</g>
<text transform="matrix(1 0 0 1 22.8101 38.0199)" class="st10 st11">AMPA and kainate receptors_AB9 aptamer</text>
</svg>
