<?xml version="1.0" encoding="utf-8"?>
<!-- Generator: Adobe Illustrator 25.2.0, SVG Export Plug-In . SVG Version: 6.00 Build 0)  -->
<svg version="1.1" id="_图层_1" xmlns="http://www.w3.org/2000/svg" xmlns:xlink="http://www.w3.org/1999/xlink" x="0px" y="0px"
	 viewBox="0 0 800 400" style="enable-background:new 0 0 800 400;" xml:space="preserve">
<style type="text/css">
	.st0{fill:#B83233;}
	.st1{fill:none;stroke:#000000;stroke-linejoin:round;}
	.st2{fill:none;stroke:#000000;stroke-width:1.33;stroke-linejoin:round;}
	.st3{fill:#084595;}
	.st4{fill:#CF3E7D;}
	.st5{fill:#18988C;}
	.st6{font-family:'ArialMT';}
	.st7{font-size:20px;}
	.st8{letter-spacing:-3;}
</style>
<path class="st0" d="M125.1,175.7l0-1.7l6.4-0.1l0.1,5.3c-1,0.8-2,1.3-3,1.7c-1,0.4-2.1,0.6-3.2,0.6c-1.5,0-2.8-0.2-4.1-0.8
	c-1.2-0.6-2.2-1.4-2.8-2.6c-0.6-1.1-1-2.4-1-3.8s0.3-2.7,0.9-3.9s1.5-2.1,2.6-2.7c1.2-0.6,2.5-0.9,4-0.9c1.1,0,2.1,0.1,3,0.4
	c0.9,0.3,1.6,0.8,2.1,1.4s0.9,1.4,1.2,2.3l-1.8,0.5c-0.2-0.7-0.5-1.3-0.9-1.7s-0.8-0.7-1.5-1s-1.3-0.3-2.1-0.3
	c-0.9,0-1.7,0.2-2.4,0.4s-1.2,0.6-1.6,1.1c-0.4,0.4-0.7,0.9-0.9,1.4c-0.4,0.9-0.5,1.8-0.5,2.9c0,1.3,0.3,2.3,0.8,3.2
	s1.2,1.5,2.1,1.9s1.8,0.6,2.8,0.6c0.9,0,1.7-0.2,2.5-0.5s1.5-0.7,1.9-1l-0.1-2.7L125.1,175.7L125.1,175.7L125.1,175.7z"/>
<path class="st0" d="M139.9,175.7l0-1.7l6.4-0.1l0.1,5.3c-1,0.8-2,1.3-3,1.7c-1,0.4-2.1,0.6-3.2,0.6c-1.5,0-2.9-0.2-4.1-0.8
	c-1.2-0.6-2.1-1.4-2.8-2.6c-0.6-1.1-1-2.4-1-3.8s0.3-2.7,0.9-3.9s1.5-2.1,2.6-2.7c1.1-0.6,2.5-0.9,4-0.9c1.1,0,2.1,0.1,3,0.4
	c0.9,0.3,1.6,0.8,2.1,1.4s0.9,1.4,1.2,2.3l-1.8,0.5c-0.2-0.7-0.5-1.3-0.9-1.7s-0.8-0.7-1.5-1s-1.3-0.3-2.1-0.3
	c-0.9,0-1.7,0.2-2.4,0.4s-1.2,0.6-1.6,1.1c-0.4,0.4-0.7,0.9-0.9,1.4c-0.4,0.9-0.5,1.8-0.5,2.9c0,1.3,0.3,2.3,0.8,3.2
	s1.2,1.5,2.1,1.9s1.8,0.6,2.8,0.6c0.9,0,1.7-0.2,2.5-0.5s1.4-0.7,1.9-1l-0.1-2.7L139.9,175.7L139.9,175.7L139.9,175.7z"/>
<path class="st0" d="M154.6,175.7l0-1.7l6.4-0.1l0.1,5.3c-1,0.8-2,1.3-3,1.7c-1,0.4-2.1,0.6-3.2,0.6c-1.5,0-2.9-0.2-4.1-0.8
	c-1.2-0.6-2.1-1.4-2.8-2.6c-0.6-1.1-1-2.4-1-3.8s0.3-2.7,0.9-3.9s1.5-2.1,2.6-2.7c1.1-0.6,2.5-0.9,4-0.9c1.1,0,2.1,0.1,3,0.4
	c0.9,0.3,1.6,0.8,2.1,1.4s0.9,1.4,1.2,2.3l-1.8,0.5c-0.2-0.7-0.5-1.3-0.9-1.7s-0.8-0.7-1.5-1s-1.3-0.3-2.1-0.3
	c-0.9,0-1.7,0.2-2.4,0.4s-1.2,0.6-1.6,1.1c-0.4,0.4-0.7,0.9-0.9,1.4c-0.4,0.9-0.5,1.8-0.5,2.9c0,1.3,0.3,2.3,0.8,3.2
	s1.2,1.5,2.1,1.9s1.8,0.6,2.8,0.6c0.9,0,1.7-0.2,2.5-0.5s1.4-0.7,1.9-1l-0.1-2.7L154.6,175.7L154.6,175.7L154.6,175.7z"/>
<path class="st0" d="M161.6,181.3l5.6-14.4l2.2,0l6.4,14.1l-2.3,0l-1.8-4.3l-6.3,0.1l-1.6,4.4L161.6,181.3L161.6,181.3z
	 M165.8,175.3l5.1-0.1l-1.6-3.9c-0.5-1.2-0.9-2.2-1.1-2.9c-0.2,0.9-0.4,1.8-0.8,2.7L165.8,175.3L165.8,175.3L165.8,175.3
	L165.8,175.3z"/>
<path class="st0" d="M184.2,175.6l0-1.7l6.4-0.1l0.1,5.3c-1,0.8-2,1.3-3,1.7c-1,0.4-2.1,0.6-3.2,0.6c-1.5,0-2.9-0.2-4.1-0.8
	c-1.2-0.6-2.1-1.4-2.8-2.6c-0.6-1.1-1-2.4-1-3.8s0.3-2.7,0.9-3.9s1.5-2.1,2.6-2.7c1.1-0.6,2.5-0.9,4-0.9c1.1,0,2.1,0.1,3,0.4
	c0.9,0.3,1.6,0.8,2.1,1.4s0.9,1.4,1.2,2.3l-1.8,0.5c-0.2-0.7-0.5-1.3-0.9-1.7s-0.8-0.7-1.5-1s-1.3-0.3-2.1-0.3
	c-0.9,0-1.7,0.2-2.4,0.4s-1.2,0.6-1.6,1.1c-0.4,0.4-0.7,0.9-0.9,1.4c-0.4,0.9-0.5,1.8-0.5,2.9c0,1.3,0.3,2.3,0.8,3.2
	s1.2,1.5,2.1,1.9s1.8,0.6,2.8,0.6c0.9,0,1.7-0.2,2.5-0.5s1.4-0.7,1.9-1l-0.1-2.7L184.2,175.6L184.2,175.6L184.2,175.6z"/>
<path class="st0" d="M205.3,193l-5.6-14.4l-2.2,0l-6.4,14.1l2.3,0l1.8-4.3l6.3,0.1l1.6,4.4L205.3,193L205.3,193z M201,187.1
	l-5.1-0.1l1.6-3.9c0.5-1.2,0.9-2.2,1.1-2.9c0.2,0.9,0.4,1.8,0.8,2.7L201,187.1L201,187.1L201,187.1L201,187.1z"/>
<path class="st0" d="M213.8,199.2l0-1.7l6.4-0.1l0.1,5.3c-1,0.8-2,1.3-3,1.7c-1,0.4-2.1,0.6-3.2,0.6c-1.5,0-2.9-0.2-4.1-0.8
	c-1.2-0.6-2.1-1.4-2.8-2.6c-0.6-1.1-1-2.4-1-3.8s0.3-2.7,0.9-3.9s1.5-2.1,2.6-2.7c1.1-0.6,2.5-0.9,4-0.9c1.1,0,2.1,0.1,3,0.4
	c0.9,0.3,1.6,0.8,2.1,1.4s0.9,1.4,1.2,2.3l-1.8,0.5c-0.2-0.7-0.5-1.3-0.9-1.7s-0.8-0.7-1.5-1s-1.3-0.3-2.1-0.3
	c-0.9,0-1.7,0.2-2.4,0.4s-1.2,0.6-1.6,1.1c-0.4,0.4-0.7,0.9-0.9,1.4c-0.4,0.9-0.5,1.8-0.5,2.9c0,1.3,0.3,2.3,0.8,3.2
	s1.2,1.5,2.1,1.9s1.8,0.6,2.8,0.6c0.9,0,1.7-0.2,2.5-0.5s1.4-0.7,1.9-1l-0.1-2.7L213.8,199.2L213.8,199.2L213.8,199.2z"/>
<path class="st0" d="M232.3,207l0-1.7l6.4-0.1l0.1,5.3c-1,0.8-2,1.3-3,1.7c-1,0.4-2.1,0.6-3.2,0.6c-1.5,0-2.9-0.2-4.1-0.8
	c-1.2-0.6-2.1-1.4-2.8-2.6c-0.6-1.1-1-2.4-1-3.8s0.3-2.7,0.9-3.9s1.5-2.1,2.6-2.7c1.1-0.6,2.5-0.9,4-0.9c1.1,0,2.1,0.1,3,0.4
	c0.9,0.3,1.6,0.8,2.1,1.4s0.9,1.4,1.2,2.3l-1.8,0.5c-0.2-0.7-0.5-1.3-0.9-1.7s-0.8-0.7-1.5-1s-1.3-0.3-2.1-0.3
	c-0.9,0-1.7,0.2-2.4,0.4s-1.2,0.6-1.6,1.1c-0.4,0.4-0.7,0.9-0.9,1.4c-0.4,0.9-0.5,1.8-0.5,2.9c0,1.3,0.3,2.3,0.8,3.2
	s1.2,1.5,2.1,1.9s1.8,0.6,2.8,0.6c0.9,0,1.7-0.2,2.5-0.5s1.4-0.7,1.9-1l-0.1-2.7L232.3,207L232.3,207L232.3,207z"/>
<path class="st0" d="M228,118.4l5.6-14.4l2.2,0l6.4,14.1l-2.3,0l-1.8-4.3l-6.3,0.1l-1.6,4.3L228,118.4L228,118.4z M232.3,112.5
	l5.1-0.1l-1.6-3.9c-0.5-1.2-0.9-2.2-1.1-2.9c-0.2,0.9-0.4,1.8-0.8,2.7L232.3,112.5L232.3,112.5L232.3,112.5L232.3,112.5z"/>
<path class="st0" d="M209.6,126.3l5.6-14.4l2.2,0l6.4,14.1l-2.3,0l-1.8-4.3l-6.3,0.1l-1.6,4.3L209.6,126.3L209.6,126.3z
	 M213.8,120.4l5.1-0.1l-1.6-3.9c-0.5-1.2-0.9-2.2-1.1-2.9c-0.2,0.9-0.4,1.8-0.8,2.7L213.8,120.4L213.8,120.4L213.8,120.4
	L213.8,120.4z"/>
<path class="st0" d="M202.7,136.4l0-1.7l6.4-0.1l0.1,5.3c-1,0.8-2,1.3-3,1.7c-1,0.4-2.1,0.6-3.2,0.6c-1.5,0-2.9-0.2-4.1-0.8
	c-1.2-0.6-2.1-1.4-2.8-2.6c-0.6-1.1-1-2.4-1-3.8s0.3-2.7,0.9-3.9s1.5-2.1,2.6-2.7c1.1-0.6,2.5-0.9,4-0.9c1.1,0,2.1,0.1,3,0.4
	c0.9,0.3,1.6,0.8,2.1,1.4s0.9,1.4,1.2,2.3l-1.8,0.5c-0.2-0.7-0.5-1.3-0.9-1.7s-0.8-0.7-1.5-1s-1.3-0.3-2.1-0.3
	c-0.9,0-1.7,0.2-2.4,0.4s-1.2,0.6-1.6,1.1c-0.4,0.4-0.7,0.9-0.9,1.4c-0.4,0.9-0.5,1.8-0.5,2.9c0,1.3,0.3,2.3,0.8,3.2
	s1.2,1.5,2.1,1.9s1.8,0.6,2.8,0.6c0.9,0,1.7-0.2,2.5-0.5s1.4-0.7,1.9-1l-0.1-2.7L202.7,136.4L202.7,136.4L202.7,136.4z"/>
<path class="st0" d="M188.4,144.6l2,0.4c-0.4,1.6-1.1,2.8-2.2,3.6c-1.1,0.8-2.4,1.3-4,1.3s-3-0.3-4-0.9c-1-0.6-1.8-1.5-2.4-2.7
	c-0.6-1.2-0.8-2.4-0.9-3.8c0-1.5,0.2-2.8,0.8-3.9s1.4-2,2.5-2.6s2.3-0.9,3.7-0.9c1.5,0,2.8,0.3,3.8,1s1.8,1.7,2.2,3l-2,0.5
	c-0.4-1-0.9-1.8-1.6-2.2c-0.7-0.4-1.5-0.7-2.5-0.7c-1.2,0-2.1,0.3-2.9,0.8c-0.8,0.6-1.3,1.2-1.6,2.1s-0.4,1.8-0.4,2.8
	c0,1.2,0.2,2.3,0.6,3.2s1,1.6,1.8,2c0.8,0.4,1.7,0.6,2.6,0.6c1.1,0,2.1-0.3,2.8-1C187.6,146.7,188.1,145.8,188.4,144.6L188.4,144.6
	L188.4,144.6z"/>
<path class="st0" d="M165.1,135.3l-2,0l-0.1,8.2c0,1.4,0.1,2.6,0.4,3.4c0.3,0.9,0.9,1.6,1.8,2.1c0.9,0.6,2.1,0.8,3.5,0.9
	s2.6-0.2,3.5-0.6s1.6-1.1,2-2c0.4-0.9,0.6-2.1,0.6-3.6l0.1-8.2l-2,0l-0.1,8.2c0,1.2-0.1,2.1-0.4,2.7s-0.7,1-1.3,1.3
	c-0.6,0.3-1.3,0.5-2.2,0.4c-1.5,0-2.5-0.4-3.1-1s-0.9-1.8-0.9-3.6L165.1,135.3L165.1,135.3L165.1,135.3L165.1,135.3z"/>
<path class="st0" d="M150.3,135.3l-2,0l-0.1,8.2c0,1.4,0.1,2.6,0.4,3.4c0.3,0.9,0.9,1.6,1.8,2.1c0.9,0.6,2.1,0.8,3.5,0.9
	s2.6-0.2,3.5-0.6s1.6-1.1,2-2c0.4-0.9,0.6-2.1,0.6-3.6l0.1-8.2l-2,0l-0.1,8.2c0,1.2-0.1,2.1-0.4,2.7s-0.7,1-1.3,1.3
	c-0.6,0.3-1.3,0.5-2.2,0.4c-1.5,0-2.5-0.4-3.1-1s-0.9-1.8-0.9-3.6L150.3,135.3L150.3,135.3L150.3,135.3L150.3,135.3z"/>
<path class="st0" d="M144,144.6l2,0.4c-0.4,1.6-1.1,2.8-2.2,3.6c-1.1,0.8-2.4,1.3-4,1.3s-3-0.3-4-0.9c-1-0.6-1.8-1.5-2.4-2.7
	c-0.6-1.2-0.8-2.4-0.9-3.8c0-1.5,0.2-2.8,0.8-3.9s1.4-2,2.5-2.6s2.3-0.9,3.7-0.9c1.5,0,2.8,0.3,3.8,1s1.8,1.7,2.2,3l-2,0.5
	c-0.4-1-0.9-1.8-1.6-2.2c-0.7-0.4-1.5-0.7-2.5-0.7c-1.2,0-2.1,0.3-2.9,0.8c-0.8,0.6-1.3,1.2-1.6,2.1s-0.4,1.8-0.4,2.8
	c0,1.2,0.2,2.3,0.6,3.2s1,1.6,1.8,2c0.8,0.4,1.7,0.6,2.6,0.6c1.1,0,2.1-0.3,2.8-1C143.3,146.7,143.8,145.8,144,144.6L144,144.6
	L144,144.6z"/>
<path class="st0" d="M129.3,144.6l2,0.4c-0.4,1.6-1.1,2.8-2.2,3.6c-1.1,0.8-2.4,1.3-4,1.3s-3-0.3-4-0.9c-1-0.6-1.8-1.5-2.4-2.7
	c-0.6-1.2-0.8-2.4-0.9-3.8c0-1.5,0.2-2.8,0.8-3.9s1.4-2,2.5-2.6s2.3-0.9,3.7-0.9c1.5,0,2.8,0.3,3.8,1c1,0.7,1.8,1.7,2.2,3l-2,0.5
	c-0.4-1-0.9-1.8-1.6-2.2c-0.7-0.4-1.5-0.7-2.5-0.7c-1.2,0-2.1,0.3-2.9,0.8c-0.8,0.6-1.3,1.2-1.6,2.1s-0.4,1.8-0.4,2.8
	c0,1.2,0.2,2.3,0.6,3.2s1,1.6,1.8,2c0.8,0.4,1.7,0.6,2.6,0.6c1.1,0,2.1-0.3,2.8-1C128.5,146.7,129,145.8,129.3,144.6L129.3,144.6
	L129.3,144.6z"/>
<path class="st0" d="M108.3,144.3v-1.7h6.4v5.3c-1,0.7-2,1.3-3,1.7c-1.1,0.4-2.1,0.6-3.2,0.6c-1.5,0-2.8-0.3-4.1-0.9
	c-1.2-0.6-2.1-1.5-2.8-2.6c-0.6-1.1-0.9-2.4-0.9-3.8s0.3-2.7,0.9-3.9s1.5-2.1,2.7-2.7c1.2-0.6,2.5-0.9,4-0.9c1.1,0,2.1,0.2,3,0.5
	c0.9,0.3,1.6,0.8,2.1,1.4s0.9,1.4,1.2,2.3l-1.8,0.5c-0.2-0.7-0.5-1.3-0.8-1.7s-0.8-0.8-1.4-1s-1.3-0.4-2.1-0.4
	c-0.9,0-1.7,0.1-2.4,0.4s-1.2,0.6-1.6,1c-0.4,0.4-0.7,0.9-1,1.4c-0.4,0.9-0.6,1.8-0.6,2.9c0,1.3,0.2,2.3,0.7,3.2s1.2,1.5,2,1.9
	s1.8,0.6,2.8,0.6c0.9,0,1.7-0.1,2.5-0.5s1.5-0.6,1.9-1v-2.7L108.3,144.3L108.3,144.3L108.3,144.3z"/>
<g>
	<line class="st1" x1="125" y1="167.2" x2="125" y2="148.3"/>
	<line class="st1" x1="139.8" y1="167.2" x2="139.8" y2="148.3"/>
</g>
<path class="st0" d="M257,208.7l-5.6-14.4l-2.2,0l-6.4,14.1l2.3,0l1.8-4.3l6.3,0.1l1.6,4.4L257,208.7L257,208.7z M252.8,202.8
	l-5.1-0.1l1.6-3.9c0.5-1.2,0.9-2.2,1.1-2.9c0.2,0.9,0.4,1.8,0.8,2.7L252.8,202.8L252.8,202.8L252.8,202.8L252.8,202.8z"/>
<path class="st0" d="M261.2,186.3l-2,0l-0.1,8.2c0,1.4,0.1,2.6,0.5,3.4c0.3,0.9,0.9,1.6,1.8,2.1c0.9,0.6,2.1,0.8,3.5,0.9
	s2.6-0.2,3.5-0.6s1.6-1.1,2-2c0.4-0.9,0.6-2.1,0.6-3.6l0.1-8.2l-2,0l-0.1,8.2c0,1.2-0.1,2.1-0.4,2.7s-0.7,1-1.3,1.3
	c-0.6,0.3-1.3,0.5-2.2,0.4c-1.5,0-2.5-0.4-3.1-1s-0.9-1.8-0.9-3.6L261.2,186.3L261.2,186.3L261.2,186.3L261.2,186.3z"/>
<line class="st2" x1="265.4" y1="204" x2="265.4" y2="214.4"/>
<path d="M260.7,232.9l-1.9,0l-0.2-11.1c-0.4,0.4-1,0.8-1.7,1.2c-0.7,0.4-1.4,0.7-1.9,0.9l0-1.7c1-0.5,1.9-1.1,2.7-1.7
	c0.8-0.7,1.3-1.3,1.6-1.9l1.2,0L260.7,232.9L260.7,232.9L260.7,232.9z M265.2,225.8c0-1.7,0.1-3,0.5-4.1c0.4-1,0.9-1.8,1.6-2.4
	c0.7-0.6,1.6-0.9,2.7-0.9c0.8,0,1.5,0.1,2.1,0.4s1.1,0.7,1.5,1.3s0.7,1.3,1,2.1s0.4,1.9,0.4,3.4c0,1.7-0.1,3-0.5,4.1
	s-0.9,1.8-1.6,2.4c-0.7,0.6-1.6,0.9-2.7,0.9c-1.5,0-2.6-0.4-3.5-1.4C265.8,230.4,265.2,228.5,265.2,225.8L265.2,225.8L265.2,225.8z
	 M267.1,225.8c0,2.3,0.4,3.9,1,4.6c0.6,0.8,1.3,1.1,2.2,1.1s1.5-0.4,2.1-1.2s0.8-2.3,0.8-4.7s-0.4-3.9-1-4.6s-1.3-1.1-2.2-1.1
	s-1.5,0.4-2,1.1C267.4,221.8,267.1,223.4,267.1,225.8L267.1,225.8L267.1,225.8z"/>
<path class="st0" d="M286.6,189.1l-5.6-14.4l-2.2,0l-6.5,14.1l2.3,0l1.8-4.3l6.3,0.1l1.6,4.4L286.6,189.1L286.6,189.1z M282.3,183.1
	l-5.1-0.1l1.6-3.9c0.5-1.2,0.9-2.2,1.1-2.9c0.2,0.9,0.4,1.8,0.8,2.7L282.3,183.1L282.3,183.1L282.3,183.1L282.3,183.1z"/>
<path class="st3" d="M299.2,175.9l2,0.4c-0.4,1.6-1.1,2.8-2.2,3.6c-1.1,0.8-2.4,1.3-4,1.3c-1.6,0-3-0.3-4-0.9
	c-1-0.6-1.8-1.5-2.4-2.7c-0.5-1.2-0.8-2.4-0.9-3.8c0-1.5,0.2-2.8,0.8-3.9s1.4-2,2.5-2.6s2.3-0.9,3.7-0.9c1.5,0,2.8,0.3,3.8,1
	s1.8,1.7,2.2,3l-2,0.5c-0.4-1-0.9-1.8-1.6-2.2s-1.5-0.7-2.5-0.7c-1.2,0-2.1,0.3-2.9,0.8c-0.8,0.6-1.3,1.2-1.6,2.1s-0.5,1.8-0.4,2.8
	c0,1.2,0.2,2.3,0.6,3.2s1,1.6,1.8,2c0.8,0.4,1.7,0.6,2.6,0.6c1.1,0,2.1-0.3,2.8-1C298.5,178,299,177.1,299.2,175.9L299.2,175.9
	L299.2,175.9z"/>
<path class="st3" d="M305.4,166.6l-2,0l-0.1,8.2c0,1.4,0.1,2.6,0.5,3.4c0.3,0.9,0.9,1.6,1.8,2.1c0.9,0.6,2.1,0.8,3.5,0.9
	s2.6-0.2,3.5-0.6s1.6-1.1,2-2c0.4-0.9,0.6-2.1,0.6-3.6l0.1-8.2l-2,0l-0.1,8.2c0,1.2-0.1,2.1-0.4,2.7s-0.7,1-1.3,1.3
	c-0.6,0.3-1.3,0.5-2.2,0.4c-1.5,0-2.5-0.4-3.1-1s-0.9-1.8-0.9-3.6L305.4,166.6L305.4,166.6L305.4,166.6L305.4,166.6z"/>
<path class="st3" d="M331,181l-5.6-14.4l-2.2,0l-6.5,14.1l2.3,0l1.8-4.3l6.3,0.1l1.6,4.4L331,181L331,181z M326.8,175.1l-5.1-0.1
	l1.6-3.9c0.5-1.2,0.9-2.2,1.1-2.9c0.2,0.9,0.4,1.8,0.8,2.7L326.8,175.1L326.8,175.1L326.8,175.1L326.8,175.1z"/>
<path class="st3" d="M343.4,175.9l2,0.4c-0.4,1.6-1.1,2.8-2.2,3.6c-1.1,0.8-2.4,1.3-4,1.3s-3-0.3-4-0.9c-1-0.6-1.8-1.5-2.4-2.7
	c-0.5-1.2-0.8-2.4-0.9-3.8c0-1.5,0.2-2.8,0.8-3.9s1.4-2,2.5-2.6s2.3-0.9,3.7-0.9c1.5,0,2.8,0.3,3.8,1s1.8,1.7,2.2,3l-2,0.5
	c-0.4-1-0.9-1.8-1.6-2.2s-1.5-0.7-2.5-0.7c-1.2,0-2.1,0.3-2.9,0.8c-0.8,0.6-1.3,1.2-1.6,2.1s-0.5,1.8-0.4,2.8c0,1.2,0.2,2.3,0.6,3.2
	s1,1.6,1.8,2c0.8,0.4,1.7,0.6,2.6,0.6c1.1,0,2.1-0.3,2.8-1C342.6,178,343.1,177.1,343.4,175.9L343.4,175.9L343.4,175.9z"/>
<path class="st3" d="M360.5,181l-5.6-14.4l-2.2,0l-6.5,14.1l2.3,0l1.8-4.3l6.3,0.1l1.6,4.4L360.5,181L360.5,181z M356.2,175.1
	l-5.1-0.1l1.6-3.9c0.5-1.2,0.9-2.2,1.1-2.9c0.2,0.9,0.4,1.8,0.8,2.7L356.2,175.1L356.2,175.1L356.2,175.1L356.2,175.1z"/>
<path class="st3" d="M373.1,187.6l2,0.4c-0.4,1.6-1.1,2.8-2.2,3.6c-1.1,0.8-2.4,1.3-4,1.3s-3-0.3-4-0.9c-1-0.6-1.8-1.5-2.4-2.7
	c-0.5-1.2-0.8-2.4-0.9-3.8c0-1.5,0.2-2.8,0.8-3.9s1.4-2,2.5-2.6s2.3-0.9,3.7-0.9c1.5,0,2.8,0.3,3.8,1s1.8,1.7,2.2,3l-2,0.5
	c-0.4-1-0.9-1.8-1.6-2.2s-1.5-0.7-2.5-0.7c-1.2,0-2.1,0.3-2.9,0.8c-0.8,0.6-1.3,1.2-1.6,2.1s-0.5,1.8-0.4,2.8c0,1.2,0.2,2.3,0.6,3.2
	s1,1.6,1.8,2c0.8,0.4,1.7,0.6,2.6,0.6c1.1,0,2.1-0.3,2.8-1C372.4,189.7,372.9,188.8,373.1,187.6L373.1,187.6L373.1,187.6z"/>
<path class="st3" d="M375.2,138l-5.6-14.4l-2.2,0l-6.5,14.1l2.3,0l1.8-4.3l6.3,0.1l1.6,4.4L375.2,138L375.2,138z M371,132l-5.1-0.1
	l1.6-3.9c0.5-1.2,0.9-2.2,1.1-2.9c0.2,0.9,0.4,1.8,0.8,2.7L371,132L371,132L371,132L371,132z"/>
<path class="st3" d="M349.8,135.3l-2,0l-0.1,8.2c0,1.4,0.1,2.6,0.5,3.4c0.3,0.9,0.9,1.6,1.8,2.1c0.9,0.6,2.1,0.8,3.5,0.9
	s2.6-0.2,3.5-0.6s1.6-1.1,2-2s0.6-2.1,0.6-3.6l0.1-8.2l-2,0l-0.1,8.2c0,1.2-0.1,2.1-0.4,2.7s-0.7,1-1.3,1.3
	c-0.6,0.3-1.3,0.5-2.2,0.4c-1.5,0-2.5-0.4-3.1-1s-0.9-1.8-0.9-3.6L349.8,135.3L349.8,135.3L349.8,135.3L349.8,135.3z"/>
<path class="st3" d="M339.5,144.1v-1.7h6.4v5.3c-1,0.7-2,1.3-3,1.7c-1,0.4-2.1,0.6-3.2,0.6c-1.5,0-2.8-0.3-4-0.9s-2.1-1.5-2.8-2.6
	c-0.6-1.1-0.9-2.4-0.9-3.8s0.3-2.7,0.9-3.9s1.5-2.1,2.7-2.7c1.2-0.6,2.5-0.9,4-0.9c1.1,0,2.1,0.2,3,0.5c0.9,0.3,1.6,0.8,2.1,1.4
	s0.9,1.4,1.1,2.3l-1.8,0.5c-0.2-0.7-0.5-1.3-0.9-1.7s-0.8-0.8-1.5-1c-0.6-0.2-1.3-0.4-2.1-0.4c-0.9,0-1.7,0.1-2.4,0.4
	s-1.2,0.6-1.6,1c-0.4,0.4-0.7,0.9-1,1.4c-0.4,0.9-0.6,1.8-0.6,2.9c0,1.3,0.2,2.3,0.7,3.2s1.1,1.5,2,1.9s1.8,0.6,2.8,0.6
	c0.9,0,1.7-0.1,2.5-0.5s1.5-0.6,1.9-1v-2.7L339.5,144.1L339.5,144.1L339.5,144.1z"/>
<path class="st3" d="M320.2,135.3l-2,0l-0.1,8.2c0,1.4,0.1,2.6,0.5,3.4c0.3,0.9,0.9,1.6,1.8,2.1s2.1,0.8,3.5,0.9s2.6-0.2,3.5-0.6
	s1.6-1.1,2-2s0.6-2.1,0.6-3.6l0.1-8.2l-2,0l-0.1,8.2c0,1.2-0.1,2.1-0.4,2.7s-0.7,1-1.3,1.3c-0.6,0.3-1.3,0.5-2.2,0.4
	c-1.5,0-2.5-0.4-3.1-1s-0.9-1.8-0.9-3.6L320.2,135.3L320.2,135.3L320.2,135.3L320.2,135.3z"/>
<path class="st3" d="M316.4,149.8l-5.6-14.4l-2.2,0l-6.5,14.1l2.3,0l1.8-4.3l6.3,0.1l1.6,4.4L316.4,149.8L316.4,149.8z M312.1,143.8
	l-5.1-0.1l1.6-3.9c0.5-1.2,0.9-2.2,1.1-2.9c0.2,0.9,0.4,1.8,0.8,2.7L312.1,143.8L312.1,143.8L312.1,143.8L312.1,143.8z"/>
<path class="st3" d="M295,144.1l0-1.7l6.4-0.1l0.1,5.3c-1,0.8-2,1.3-3,1.7c-1,0.4-2.1,0.6-3.2,0.6c-1.5,0-2.9-0.2-4.1-0.8
	c-1.2-0.6-2.1-1.4-2.8-2.6c-0.6-1.1-1-2.4-1-3.8s0.3-2.7,0.9-3.9s1.5-2.1,2.6-2.7c1.1-0.6,2.5-0.9,4-0.9c1.1,0,2.1,0.1,3,0.4
	c0.9,0.3,1.6,0.8,2.1,1.4s0.9,1.4,1.2,2.3l-1.8,0.5c-0.2-0.7-0.5-1.3-0.9-1.7s-0.8-0.7-1.5-1s-1.3-0.3-2.1-0.3
	c-0.9,0-1.7,0.2-2.4,0.4s-1.2,0.6-1.6,1.1c-0.4,0.4-0.7,0.9-0.9,1.4c-0.4,0.9-0.5,1.8-0.5,2.9c0,1.3,0.3,2.3,0.8,3.2
	s1.2,1.5,2.1,1.9s1.8,0.6,2.8,0.6c0.9,0,1.7-0.2,2.5-0.5s1.5-0.7,1.9-1l0-2.7L295,144.1L295,144.1L295,144.1z"/>
<path class="st0" d="M284.4,136.7l2,0.4c-0.4,1.6-1.1,2.8-2.2,3.6c-1.1,0.8-2.4,1.3-4,1.3s-3-0.3-4-0.9c-1-0.6-1.8-1.5-2.4-2.7
	c-0.5-1.2-0.8-2.4-0.9-3.8c0-1.5,0.2-2.8,0.8-3.9s1.4-2,2.5-2.6c1.1-0.6,2.3-0.9,3.7-0.9c1.5,0,2.8,0.3,3.8,1s1.8,1.7,2.2,3l-2,0.5
	c-0.4-1-0.9-1.8-1.6-2.2s-1.5-0.7-2.5-0.7c-1.2,0-2.1,0.3-2.9,0.8c-0.8,0.6-1.3,1.2-1.6,2.1s-0.5,1.8-0.4,2.8c0,1.2,0.2,2.3,0.6,3.2
	s1,1.6,1.8,2c0.8,0.4,1.7,0.6,2.6,0.6c1.1,0,2.1-0.3,2.8-1C283.7,138.8,284.2,137.9,284.4,136.7L284.4,136.7L284.4,136.7z"/>
<line class="st2" x1="280.2" y1="124.2" x2="280.2" y2="113.7"/>
<path d="M271.6,101.5c-0.8-0.2-1.4-0.6-1.7-1.1c-0.4-0.5-0.6-1.1-0.6-1.8c0-1,0.4-1.9,1.1-2.6c0.8-0.7,1.8-1.1,3.1-1.1
	s2.4,0.3,3.2,1c0.8,0.7,1.2,1.6,1.3,2.6c0,0.7-0.2,1.2-0.5,1.7c-0.4,0.5-0.9,0.9-1.7,1.2c0.9,0.3,1.6,0.7,2.1,1.3
	c0.5,0.6,0.8,1.4,0.8,2.3c0,1.2-0.4,2.2-1.3,3.1s-2.1,1.3-3.6,1.3s-2.7-0.4-3.6-1.2s-1.4-1.8-1.4-3.1c0-0.9,0.2-1.7,0.7-2.3
	C270.1,102.2,270.8,101.8,271.6,101.5L271.6,101.5L271.6,101.5z M271.2,98.6c0,0.7,0.2,1.2,0.7,1.6c0.5,0.4,1.1,0.6,1.8,0.6
	s1.3-0.2,1.8-0.7c0.5-0.4,0.7-1,0.6-1.6c0-0.7-0.2-1.2-0.7-1.6s-1.1-0.6-1.8-0.6s-1.3,0.2-1.8,0.7S271.2,98,271.2,98.6L271.2,98.6
	L271.2,98.6z M270.7,105.2c0,0.5,0.1,1,0.4,1.4s0.6,0.8,1.1,1.1c0.5,0.2,1,0.4,1.6,0.3c0.9,0,1.6-0.3,2.2-0.8s0.8-1.2,0.8-2.1
	s-0.3-1.5-0.9-2.1c-0.6-0.5-1.4-0.8-2.2-0.8s-1.6,0.3-2.2,0.8S270.7,104.3,270.7,105.2L270.7,105.2L270.7,105.2z M280.4,102.1
	c0-1.7,0.1-3,0.5-4.1c0.4-1,0.9-1.8,1.6-2.4c0.7-0.6,1.6-0.9,2.7-0.9c0.8,0,1.5,0.1,2.1,0.4s1.1,0.7,1.5,1.3s0.7,1.3,1,2.1
	s0.4,1.9,0.4,3.3c0,1.7-0.1,3-0.5,4.1s-0.9,1.8-1.6,2.4c-0.7,0.6-1.6,0.9-2.7,0.9c-1.5,0-2.6-0.4-3.5-1.4
	C281,106.7,280.5,104.7,280.4,102.1L280.4,102.1L280.4,102.1z M282.4,102c0,2.3,0.4,3.9,1,4.7c0.6,0.8,1.3,1.1,2.2,1.1
	s1.5-0.4,2.1-1.2s0.8-2.3,0.8-4.7s-0.4-3.9-1-4.7s-1.3-1.1-2.2-1.1s-1.5,0.4-2,1.1C282.6,98.1,282.3,99.7,282.4,102L282.4,102
	L282.4,102z"/>
<path class="st0" d="M271.8,130.2l-5.6-14.4l-2.2,0l-6.5,14.1l2.3,0l1.8-4.3l6.3,0.1l1.6,4.3L271.8,130.2L271.8,130.2z M267.5,124.3
	l-5.1-0.1l1.6-3.9c0.5-1.2,0.9-2.2,1.1-2.9c0.2,0.9,0.4,1.8,0.8,2.7L267.5,124.3L267.5,124.3L267.5,124.3L267.5,124.3z"/>
<path class="st0" d="M250.7,116.7l0-1.7l6.4-0.1l0.1,5.3c-1,0.8-2,1.3-3,1.7c-1,0.4-2.1,0.6-3.2,0.6c-1.5,0-2.9-0.2-4.1-0.8
	c-1.2-0.6-2.1-1.4-2.8-2.6c-0.6-1.1-1-2.4-1-3.8s0.3-2.7,0.9-3.9s1.5-2.1,2.6-2.7c1.1-0.6,2.5-0.9,4-0.9c1.1,0,2.1,0.1,3,0.4
	c0.9,0.3,1.6,0.8,2.1,1.4s0.9,1.4,1.2,2.3l-1.8,0.5c-0.2-0.7-0.5-1.3-0.9-1.7s-0.8-0.7-1.5-1s-1.3-0.3-2.1-0.3
	c-0.9,0-1.7,0.2-2.4,0.4s-1.2,0.6-1.6,1.1c-0.4,0.4-0.7,0.9-0.9,1.4c-0.4,0.9-0.5,1.8-0.5,2.9c0,1.3,0.3,2.3,0.8,3.2
	s1.2,1.5,2.1,1.9s1.8,0.6,2.8,0.6c0.9,0,1.7-0.2,2.5-0.5s1.4-0.7,1.9-1l-0.1-2.7L250.7,116.7L250.7,116.7L250.7,116.7z"/>
<g>
	<line class="st1" x1="295" y1="165.1" x2="295" y2="149.7"/>
	<line class="st1" x1="309.7" y1="165.1" x2="309.7" y2="149.7"/>
	<line class="st1" x1="324.5" y1="165.1" x2="324.5" y2="149.7"/>
	<line class="st1" x1="354.1" y1="165.1" x2="354.1" y2="149.7"/>
</g>
<path class="st3" d="M383.7,175.5l0-1.7l6.4-0.1l0.1,5.3c-1,0.8-2,1.3-3,1.7c-1,0.4-2.1,0.6-3.2,0.6c-1.5,0-2.9-0.2-4.1-0.8
	c-1.2-0.6-2.1-1.4-2.8-2.6c-0.6-1.1-1-2.4-1-3.8s0.3-2.7,0.9-3.9s1.5-2.1,2.6-2.7c1.1-0.6,2.5-0.9,4-0.9c1.1,0,2.1,0.1,3,0.4
	c0.9,0.3,1.6,0.8,2.1,1.4s0.9,1.4,1.2,2.3l-1.8,0.5c-0.2-0.7-0.5-1.3-0.9-1.7s-0.8-0.7-1.5-1c-0.6-0.2-1.3-0.3-2.1-0.3
	c-0.9,0-1.7,0.2-2.4,0.4s-1.2,0.6-1.6,1.1c-0.4,0.4-0.7,0.9-0.9,1.4c-0.4,0.9-0.5,1.8-0.5,2.9c0,1.3,0.3,2.3,0.8,3.2
	s1.2,1.5,2.1,1.9s1.8,0.6,2.8,0.6c0.9,0,1.7-0.2,2.5-0.5s1.5-0.7,1.9-1l0-2.7L383.7,175.5L383.7,175.5L383.7,175.5z"/>
<path class="st4" d="M394.2,182.4l-2,0l-0.1,8.2c0,1.4,0.1,2.6,0.5,3.4c0.3,0.9,0.9,1.6,1.8,2.1s2.1,0.8,3.5,0.9s2.6-0.2,3.5-0.6
	s1.6-1.1,2-2s0.6-2.1,0.6-3.6l0.1-8.2l-2,0l-0.1,8.2c0,1.2-0.1,2.1-0.4,2.7s-0.7,1-1.3,1.3c-0.6,0.3-1.3,0.5-2.2,0.4
	c-1.5,0-2.5-0.4-3.1-1s-0.9-1.8-0.9-3.6L394.2,182.4L394.2,182.4L394.2,182.4L394.2,182.4z"/>
<path class="st4" d="M402.2,132.4l0-1.7l6.4-0.1l0.1,5.3c-1,0.8-2,1.3-3,1.7c-1,0.4-2.1,0.6-3.2,0.6c-1.5,0-2.9-0.2-4.1-0.8
	s-2.1-1.4-2.8-2.6c-0.6-1.1-1-2.4-1-3.8s0.3-2.7,0.9-3.9s1.5-2.1,2.6-2.7c1.1-0.6,2.5-0.9,4-0.9c1.1,0,2.1,0.1,3,0.4
	c0.9,0.3,1.6,0.8,2.1,1.4s0.9,1.4,1.2,2.3l-1.8,0.5c-0.2-0.7-0.5-1.3-0.9-1.7s-0.8-0.7-1.5-1c-0.6-0.2-1.3-0.3-2.1-0.3
	c-0.9,0-1.7,0.2-2.4,0.4s-1.2,0.6-1.6,1.1c-0.4,0.4-0.7,0.9-0.9,1.4c-0.4,0.9-0.5,1.8-0.5,2.9c0,1.3,0.3,2.3,0.8,3.2
	s1.2,1.5,2.1,1.9s1.8,0.6,2.8,0.6c0.9,0,1.7-0.2,2.5-0.5s1.5-0.7,1.9-1l0-2.7L402.2,132.4L402.2,132.4L402.2,132.4z"/>
<path class="st3" d="M387.9,144.5l2,0.4c-0.4,1.6-1.1,2.8-2.2,3.6c-1.1,0.8-2.4,1.3-4,1.3s-3-0.3-4-0.9c-1-0.6-1.8-1.5-2.4-2.7
	c-0.5-1.2-0.8-2.4-0.9-3.8c0-1.5,0.2-2.8,0.8-3.9s1.4-2,2.5-2.6s2.3-0.9,3.7-0.9c1.5,0,2.8,0.3,3.8,1s1.8,1.7,2.2,3l-2,0.5
	c-0.4-1-0.9-1.8-1.6-2.2s-1.5-0.7-2.5-0.7c-1.2,0-2.1,0.3-2.9,0.8c-0.8,0.6-1.3,1.2-1.6,2.1s-0.5,1.8-0.4,2.8c0,1.2,0.2,2.3,0.6,3.2
	s1,1.6,1.8,2c0.8,0.4,1.7,0.6,2.6,0.6c1.1,0,2.1-0.3,2.8-1C387.1,146.6,387.7,145.7,387.9,144.5L387.9,144.5L387.9,144.5z"/>
<path class="st4" d="M417.4,190.6l0-1.7l6.4-0.1l0.1,5.3c-1,0.8-2,1.3-3,1.7c-1,0.4-2.1,0.6-3.2,0.6c-1.5,0-2.9-0.2-4.1-0.8
	s-2.1-1.4-2.8-2.6c-0.6-1.1-1-2.4-1-3.8s0.3-2.7,0.9-3.9s1.5-2.1,2.6-2.7c1.1-0.6,2.5-0.9,4-0.9c1.1,0,2.1,0.1,3,0.4
	c0.9,0.3,1.6,0.8,2.1,1.4s0.9,1.4,1.2,2.3l-1.8,0.5c-0.2-0.7-0.5-1.3-0.9-1.7s-0.8-0.7-1.5-1c-0.6-0.2-1.3-0.3-2.1-0.3
	c-0.9,0-1.7,0.2-2.4,0.4s-1.2,0.6-1.6,1.1c-0.4,0.4-0.7,0.9-0.9,1.4c-0.4,0.9-0.5,1.8-0.5,2.9c0,1.3,0.3,2.3,0.8,3.2
	s1.2,1.5,2.1,1.9s1.8,0.6,2.8,0.6c0.9,0,1.7-0.2,2.5-0.5s1.5-0.7,1.9-1l0-2.7L417.4,190.6L417.4,190.6L417.4,190.6z"/>
<path class="st4" d="M441.8,185l-5.6-14.4l-2.2,0l-6.5,14.1l2.3,0l1.8-4.3l6.3,0.1l1.6,4.4L441.8,185L441.8,185z M437.5,179.1
	l-5.1-0.1l1.6-3.9c0.5-1.2,0.9-2.2,1.1-2.9c0.2,0.9,0.4,1.8,0.8,2.7L437.5,179.1L437.5,179.1L437.5,179.1L437.5,179.1z"/>
<path class="st4" d="M445.9,170.5l-2,0l-0.1,8.2c0,1.4,0.1,2.6,0.5,3.4c0.3,0.9,0.9,1.6,1.8,2.1s2.1,0.8,3.5,0.9s2.6-0.2,3.5-0.6
	s1.6-1.1,2-2s0.6-2.1,0.6-3.6l0.1-8.2l-2,0l-0.1,8.2c0,1.2-0.1,2.1-0.4,2.7s-0.7,1-1.3,1.3c-0.6,0.3-1.3,0.5-2.2,0.4
	c-1.5,0-2.5-0.4-3.1-1s-0.9-1.8-0.9-3.6L445.9,170.5L445.9,170.5L445.9,170.5L445.9,170.5z"/>
<path class="st4" d="M463.9,200.7l-5.6-14.4l-2.2,0l-6.5,14.1l2.3,0l1.8-4.3l6.3,0.1l1.6,4.4L463.9,200.7L463.9,200.7z M459.7,194.8
	l-5.1-0.1l1.6-3.9c0.5-1.2,0.9-2.2,1.1-2.9c0.2,0.9,0.4,1.8,0.8,2.7L459.7,194.8L459.7,194.8L459.7,194.8L459.7,194.8z"/>
<path class="st4" d="M456.5,153.6l-5.6-14.4l-2.2,0l-6.5,14.1l2.3,0l1.8-4.3l6.3,0.1l1.6,4.4L456.5,153.6L456.5,153.6z M452.3,147.7
	l-5.1-0.1l1.6-3.9c0.5-1.2,0.9-2.2,1.1-2.9c0.2,0.9,0.4,1.8,0.8,2.7L452.3,147.7L452.3,147.7L452.3,147.7L452.3,147.7z"/>
<path class="st4" d="M431.1,139.1l-2,0l-0.1,8.2c0,1.4,0.1,2.6,0.5,3.4c0.3,0.9,0.9,1.6,1.8,2.1s2.1,0.8,3.5,0.9s2.6-0.2,3.5-0.6
	s1.6-1.1,2-2s0.6-2.1,0.6-3.6l0.1-8.2l-2,0l-0.1,8.2c0,1.2-0.1,2.1-0.4,2.7s-0.7,1-1.3,1.3c-0.6,0.3-1.3,0.5-2.2,0.4
	c-1.5,0-2.5-0.4-3.1-1s-0.9-1.8-0.9-3.6L431.1,139.1L431.1,139.1L431.1,139.1L431.1,139.1z"/>
<path class="st4" d="M416.3,125.3l-2,0l-0.1,8.2c0,1.4,0.1,2.6,0.5,3.4c0.3,0.9,0.9,1.6,1.8,2.1s2.1,0.8,3.5,0.9s2.6-0.2,3.5-0.6
	s1.6-1.1,2-2s0.6-2.1,0.6-3.6l0.1-8.2l-2,0l-0.1,8.2c0,1.2-0.1,2.1-0.4,2.7s-0.7,1-1.3,1.3c-0.6,0.3-1.3,0.5-2.2,0.4
	c-1.5,0-2.5-0.4-3.1-1s-0.9-1.8-0.9-3.6L416.3,125.3L416.3,125.3L416.3,125.3L416.3,125.3z"/>
<line class="st1" x1="435.4" y1="169" x2="435.4" y2="154.9"/>
<path class="st4" d="M468.7,179.4l0-1.7l6.4-0.1l0.1,5.3c-1,0.8-2,1.3-3,1.7c-1,0.4-2.1,0.6-3.2,0.6c-1.5,0-2.9-0.2-4.1-0.8
	s-2.1-1.4-2.8-2.6c-0.6-1.1-1-2.4-1-3.8s0.3-2.7,0.9-3.9s1.5-2.1,2.6-2.7c1.1-0.6,2.5-0.9,4-0.9c1.1,0,2.1,0.1,3,0.4
	c0.9,0.3,1.6,0.8,2.1,1.4s0.9,1.4,1.2,2.3l-1.8,0.5c-0.2-0.7-0.5-1.3-0.9-1.7s-0.8-0.7-1.5-1c-0.6-0.2-1.3-0.3-2.1-0.3
	c-0.9,0-1.7,0.2-2.4,0.4s-1.2,0.6-1.6,1.1c-0.4,0.4-0.7,0.9-0.9,1.4c-0.4,0.9-0.5,1.8-0.5,2.9c0,1.3,0.3,2.3,0.8,3.2
	s1.2,1.5,2.1,1.9s1.8,0.6,2.8,0.6c0.9,0,1.7-0.2,2.5-0.5s1.5-0.7,1.9-1l0-2.7L468.7,179.4L468.7,179.4L468.7,179.4z"/>
<path class="st4" d="M483.5,179.4l0-1.7l6.4-0.1l0.1,5.3c-1,0.8-2,1.3-3,1.7c-1,0.4-2.1,0.6-3.2,0.6c-1.5,0-2.9-0.2-4.1-0.8
	s-2.1-1.4-2.8-2.6c-0.6-1.1-1-2.4-1-3.8s0.3-2.7,0.9-3.9s1.5-2.1,2.6-2.7c1.1-0.6,2.5-0.9,4-0.9c1.1,0,2.1,0.1,3,0.4
	c0.9,0.3,1.6,0.8,2.1,1.4s0.9,1.4,1.2,2.3l-1.8,0.5c-0.2-0.7-0.5-1.3-0.9-1.7s-0.8-0.7-1.5-1c-0.6-0.2-1.3-0.3-2.1-0.3
	c-0.9,0-1.7,0.2-2.4,0.4s-1.2,0.6-1.6,1.1c-0.4,0.4-0.7,0.9-0.9,1.4c-0.4,0.9-0.5,1.8-0.5,2.9c0,1.3,0.3,2.3,0.8,3.2
	s1.2,1.5,2.1,1.9s1.8,0.6,2.8,0.6c0.9,0,1.7-0.2,2.5-0.5s1.5-0.7,1.9-1l0-2.7L483.5,179.4L483.5,179.4L483.5,179.4z"/>
<path class="st4" d="M504.5,185l-5.6-14.4l-2.2,0l-6.5,14.1l2.3,0l1.8-4.3l6.3,0.1l1.6,4.4L504.5,185L504.5,185z M500.3,179.1
	l-5.1-0.1l1.6-3.9c0.5-1.2,0.9-2.2,1.1-2.9c0.2,0.9,0.4,1.8,0.8,2.7L500.3,179.1L500.3,179.1L500.3,179.1L500.3,179.1z"/>
<path class="st5" d="M513.5,195.4l2,0.4c-0.4,1.6-1.1,2.8-2.2,3.6c-1.1,0.8-2.4,1.3-4,1.3s-3-0.3-4-0.9c-1-0.6-1.8-1.5-2.4-2.7
	c-0.5-1.2-0.8-2.4-0.9-3.8c0-1.5,0.2-2.8,0.8-3.9s1.4-2,2.5-2.6s2.3-0.9,3.7-0.9c1.5,0,2.8,0.3,3.8,1s1.8,1.7,2.2,3l-2,0.5
	c-0.4-1-0.9-1.8-1.6-2.2c-0.7-0.4-1.5-0.7-2.5-0.7c-1.2,0-2.1,0.3-2.9,0.8c-0.8,0.6-1.3,1.2-1.6,2.1s-0.5,1.8-0.4,2.8
	c0,1.2,0.2,2.3,0.6,3.2s1,1.6,1.8,2c0.8,0.4,1.7,0.6,2.6,0.6c1.1,0,2.1-0.3,2.8-1C512.8,197.5,513.3,196.6,513.5,195.4L513.5,195.4
	L513.5,195.4z"/>
<path class="st5" d="M549.5,112.3L544,98l-2.2,0l-6.5,14.1l2.3,0l1.8-4.3l6.3,0.1l1.6,4.3L549.5,112.3L549.5,112.3z M545.3,106.4
	l-5.1-0.1l1.7-3.9c0.5-1.2,0.9-2.2,1.1-2.9c0.2,0.9,0.4,1.8,0.8,2.7L545.3,106.4L545.3,106.4L545.3,106.4L545.3,106.4z"/>
<path class="st5" d="M530,109.1l2,0.4c-0.4,1.6-1.1,2.8-2.2,3.6c-1.1,0.8-2.4,1.3-4,1.3s-3-0.3-4-0.9c-1-0.6-1.8-1.5-2.4-2.7
	c-0.5-1.2-0.8-2.4-0.9-3.8c0-1.5,0.2-2.8,0.8-3.9s1.4-2,2.5-2.6c1.1-0.6,2.3-0.9,3.7-0.9c1.5,0,2.8,0.3,3.8,1s1.8,1.7,2.2,3l-2,0.5
	c-0.4-1-0.9-1.8-1.6-2.2c-0.7-0.4-1.5-0.7-2.5-0.7c-1.2,0-2.1,0.3-2.9,0.8c-0.8,0.6-1.3,1.2-1.6,2.1s-0.5,1.8-0.4,2.8
	c0,1.2,0.2,2.3,0.6,3.2s1,1.6,1.8,2c0.8,0.4,1.7,0.7,2.6,0.6c1.1,0,2.1-0.3,2.8-1C529.2,111.2,529.7,110.3,530,109.1L530,109.1
	L530,109.1z"/>
<path class="st5" d="M509.3,116.6l0-1.7l6.4-0.1l0.1,5.3c-1,0.8-2,1.3-3,1.7c-1,0.4-2.1,0.6-3.2,0.6c-1.5,0-2.9-0.2-4.1-0.8
	s-2.1-1.4-2.8-2.6c-0.6-1.1-1-2.4-1-3.8s0.3-2.7,0.9-3.9s1.5-2.1,2.6-2.7c1.1-0.6,2.5-0.9,4-0.9c1.1,0,2.1,0.1,3,0.4
	c0.9,0.3,1.6,0.8,2.1,1.4s0.9,1.4,1.2,2.3l-1.8,0.5c-0.2-0.7-0.5-1.3-0.9-1.7s-0.8-0.7-1.5-1c-0.6-0.2-1.3-0.3-2.1-0.3
	c-0.9,0-1.7,0.2-2.4,0.4s-1.2,0.6-1.6,1.1c-0.4,0.4-0.7,0.9-0.9,1.4c-0.4,0.9-0.5,1.8-0.5,2.9c0,1.3,0.3,2.3,0.8,3.2
	s1.2,1.5,2.1,1.9s1.8,0.6,2.8,0.6c0.9,0,1.7-0.2,2.5-0.5c0.8-0.3,1.4-0.7,1.9-1l0-2.7L509.3,116.6L509.3,116.6L509.3,116.6z"/>
<path class="st5" d="M508.2,137.9l-5.6-14.4l-2.2,0l-6.5,14.1l2.3,0l1.8-4.3l6.3,0.1l1.6,4.4L508.2,137.9L508.2,137.9z M504,132
	l-5.1-0.1l1.6-3.9c0.5-1.2,0.9-2.2,1.1-2.9c0.2,0.9,0.4,1.8,0.8,2.7L504,132L504,132L504,132L504,132z"/>
<path class="st4" d="M493.9,139l-2,0l-0.1,8.2c0,1.4,0.1,2.6,0.5,3.4c0.3,0.9,0.9,1.6,1.8,2.1s2.1,0.8,3.5,0.9s2.6-0.2,3.5-0.6
	s1.6-1.1,2-2s0.6-2.1,0.6-3.6l0.1-8.2l-2,0l-0.1,8.2c0,1.2-0.1,2.1-0.4,2.7s-0.7,1-1.3,1.3c-0.6,0.3-1.3,0.5-2.2,0.4
	c-1.5,0-2.5-0.4-3.1-1s-0.9-1.8-0.9-3.6L493.9,139L493.9,139L493.9,139L493.9,139z"/>
<path class="st4" d="M487.6,148.3l2,0.4c-0.4,1.6-1.1,2.8-2.2,3.6c-1.1,0.8-2.4,1.3-4,1.3s-3-0.3-4-0.9c-1-0.6-1.8-1.5-2.4-2.7
	c-0.5-1.2-0.8-2.4-0.9-3.8c0-1.5,0.2-2.8,0.8-3.9s1.4-2,2.5-2.6s2.3-0.9,3.7-0.9c1.5,0,2.8,0.3,3.8,1s1.8,1.7,2.2,3l-2,0.5
	c-0.4-1-0.9-1.8-1.6-2.2s-1.5-0.7-2.5-0.7c-1.2,0-2.1,0.3-2.9,0.8c-0.8,0.6-1.3,1.2-1.6,2.1s-0.5,1.8-0.4,2.8c0,1.2,0.2,2.3,0.6,3.2
	s1,1.6,1.8,2c0.8,0.4,1.7,0.6,2.6,0.6c1.1,0,2.1-0.3,2.8-1C486.9,150.4,487.4,149.5,487.6,148.3L487.6,148.3L487.6,148.3z"/>
<path class="st4" d="M472.9,148.3l2,0.4c-0.4,1.6-1.1,2.8-2.2,3.6c-1.1,0.8-2.4,1.3-4,1.3s-3-0.3-4-0.9c-1-0.6-1.8-1.5-2.4-2.7
	c-0.5-1.2-0.8-2.4-0.9-3.8c0-1.5,0.2-2.8,0.8-3.9s1.4-2,2.5-2.6s2.3-0.9,3.7-0.9c1.5,0,2.8,0.3,3.8,1s1.8,1.7,2.2,3l-2,0.5
	c-0.4-1-0.9-1.8-1.6-2.2s-1.5-0.7-2.5-0.7c-1.2,0-2.1,0.3-2.9,0.8c-0.8,0.6-1.3,1.2-1.6,2.1s-0.5,1.8-0.4,2.8c0,1.2,0.2,2.3,0.6,3.2
	s1,1.6,1.8,2c0.8,0.4,1.7,0.6,2.6,0.6c1.1,0,2.1-0.3,2.8-1C472.1,150.4,472.6,149.5,472.9,148.3L472.9,148.3L472.9,148.3z"/>
<line class="st1" x1="498.2" y1="169" x2="498.2" y2="154.8"/>
<path class="st5" d="M524.2,210.8l0-1.7l6.4-0.1l0.1,5.3c-1,0.8-2,1.3-3,1.7c-1,0.4-2.1,0.6-3.2,0.6c-1.5,0-2.8-0.2-4.1-0.8
	s-2.2-1.4-2.8-2.6c-0.6-1.1-1-2.4-1-3.8s0.3-2.7,0.9-3.9s1.5-2.1,2.6-2.7c1.2-0.6,2.5-0.9,4-0.9c1.1,0,2.1,0.1,3,0.4
	c0.9,0.3,1.6,0.8,2.1,1.4c0.5,0.6,0.9,1.4,1.2,2.3l-1.8,0.5c-0.2-0.7-0.5-1.3-0.9-1.7s-0.8-0.7-1.5-1s-1.3-0.3-2.1-0.3
	c-0.9,0-1.7,0.2-2.4,0.4s-1.2,0.6-1.6,1.1c-0.4,0.4-0.7,0.9-0.9,1.4c-0.4,0.9-0.5,1.8-0.5,2.9c0,1.3,0.3,2.3,0.8,3.2
	s1.2,1.5,2.1,1.9s1.8,0.6,2.8,0.6c0.9,0,1.7-0.2,2.5-0.5s1.5-0.7,1.9-1l0-2.7L524.2,210.8L524.2,210.8L524.2,210.8z"/>
<path class="st5" d="M530.7,232.1l-5.6-14.4l-2.2,0l-6.5,14.1l2.3,0l1.8-4.3l6.3,0.1l1.6,4.4L530.7,232.1L530.7,232.1z M526.4,226.2
	l-5.1-0.1l1.7-3.9c0.5-1.2,0.9-2.2,1.1-2.9c0.2,0.9,0.4,1.8,0.8,2.7L526.4,226.2L526.4,226.2L526.4,226.2L526.4,226.2z"/>
<path class="st5" d="M519.7,233.3l-2,0l-0.2,8.2c0,1.4,0.1,2.6,0.5,3.4c0.3,0.9,0.9,1.6,1.8,2.1s2.1,0.8,3.5,0.9s2.6-0.2,3.5-0.6
	s1.6-1.1,2-2s0.6-2.1,0.7-3.6l0.2-8.2l-2,0l-0.2,8.2c0,1.2-0.2,2.1-0.4,2.7s-0.7,1-1.3,1.3c-0.6,0.3-1.3,0.5-2.2,0.4
	c-1.5,0-2.5-0.4-3.1-1s-0.9-1.8-0.9-3.6L519.7,233.3L519.7,233.3L519.7,233.3L519.7,233.3z"/>
<line class="st2" x1="514.2" y1="240.5" x2="504.4" y2="240.5"/>
<path d="M480.7,244.2l1.8-0.3c0.2,1,0.6,1.7,1.1,2.1s1.1,0.6,1.9,0.6c0.9,0,1.6-0.3,2.2-0.9s0.9-1.3,0.9-2.1s-0.3-1.5-0.9-2
	c-0.6-0.5-1.3-0.8-2.1-0.7c-0.4,0-0.8,0.1-1.3,0.2l0.2-1.5h0.3c0.8,0,1.5-0.2,2.1-0.6c0.6-0.4,0.9-1,0.9-1.8c0-0.6-0.2-1.2-0.7-1.6
	s-1.1-0.6-1.8-0.6s-1.3,0.2-1.8,0.7c-0.5,0.4-0.8,1.1-0.9,1.9l-1.9-0.3c0.2-1.2,0.7-2.1,1.5-2.8c0.8-0.7,1.8-1,3-1
	c0.8,0,1.6,0.1,2.3,0.5c0.7,0.3,1.2,0.8,1.6,1.3s0.6,1.2,0.6,1.8s-0.2,1.2-0.5,1.7c-0.3,0.5-0.9,0.9-1.5,1.2
	c0.9,0.2,1.6,0.6,2.1,1.2c0.5,0.6,0.8,1.4,0.8,2.3c0,1.2-0.4,2.3-1.4,3.2c-1,0.9-2.1,1.3-3.6,1.4c-1.3,0-2.4-0.3-3.3-1.1
	S480.8,245.4,480.7,244.2L480.7,244.2L480.7,244.2z M492.3,240.7c0-1.7,0.1-3,0.5-4.1s0.9-1.8,1.6-2.4c0.7-0.6,1.6-0.9,2.7-0.9
	c0.8,0,1.5,0.1,2.1,0.4s1.1,0.7,1.5,1.3s0.7,1.3,1,2.1s0.4,1.9,0.4,3.4c0,1.7-0.1,3-0.5,4.1s-0.9,1.8-1.6,2.4
	c-0.7,0.6-1.6,0.9-2.7,0.9c-1.5,0-2.6-0.4-3.5-1.4C492.9,245.3,492.4,243.4,492.3,240.7L492.3,240.7z M494.2,240.7
	c0,2.3,0.4,3.9,1,4.6c0.6,0.8,1.3,1.1,2.2,1.1s1.5-0.4,2.1-1.2s0.8-2.3,0.8-4.7s-0.4-3.9-1-4.6c-0.6-0.8-1.3-1.1-2.2-1.1
	s-1.5,0.4-2,1.1C494.4,236.8,494.2,238.4,494.2,240.7L494.2,240.7L494.2,240.7z"/>
<path class="st5" d="M519.7,248.9l-2,0l-0.2,8.2c0,1.4,0.1,2.6,0.5,3.4c0.3,0.9,0.9,1.5,1.8,2.1s2.1,0.8,3.5,0.9s2.6-0.2,3.5-0.6
	s1.6-1.1,2-2s0.6-2,0.7-3.6l0.2-8.2l-2,0l-0.2,8.2c0,1.2-0.2,2.1-0.4,2.7s-0.7,1-1.3,1.3c-0.6,0.3-1.3,0.5-2.2,0.4
	c-1.5,0-2.5-0.4-3.1-1s-0.9-1.8-0.9-3.6L519.7,248.9L519.7,248.9L519.7,248.9L519.7,248.9z"/>
<path class="st5" d="M524.5,279.2l-5.6-14.4l-2.2,0l-6.5,14.1l2.3,0l1.8-4.3l6.3,0.1l1.6,4.4L524.5,279.2L524.5,279.2z M520.2,273.3
	l-5.1-0.1l1.7-3.9c0.5-1.2,0.9-2.2,1.1-2.9c0.2,0.9,0.4,1.8,0.8,2.7L520.2,273.3L520.2,273.3L520.2,273.3L520.2,273.3z"/>
<path class="st5" d="M509.8,281.4l-2,0l-0.1,8.2c0,1.4,0.1,2.6,0.5,3.4c0.3,0.9,0.9,1.5,1.8,2.1s2.1,0.8,3.5,0.9s2.6-0.2,3.5-0.6
	s1.6-1.1,2-2s0.6-2,0.7-3.6l0.2-8.2l-2,0l-0.2,8.2c0,1.2-0.2,2.1-0.4,2.7s-0.7,1-1.3,1.3c-0.6,0.3-1.3,0.5-2.2,0.4
	c-1.5,0-2.5-0.4-3.1-1s-0.9-1.8-0.9-3.6L509.8,281.4L509.8,281.4L509.8,281.4L509.8,281.4z"/>
<path class="st5" d="M528.4,305.3l2,0.4c-0.4,1.5-1.1,2.8-2.2,3.6c-1.1,0.8-2.4,1.3-4,1.3s-3-0.3-4-0.9c-1-0.6-1.8-1.5-2.4-2.7
	c-0.5-1.2-0.8-2.4-0.9-3.8c0-1.5,0.2-2.8,0.8-3.9s1.4-2,2.5-2.6c1.1-0.6,2.3-0.9,3.7-0.9c1.5,0,2.8,0.3,3.8,1s1.8,1.7,2.2,3l-2,0.5
	c-0.4-1-0.9-1.8-1.6-2.2s-1.5-0.7-2.5-0.7c-1.2,0-2.1,0.3-2.9,0.8c-0.8,0.5-1.3,1.2-1.6,2.1s-0.5,1.8-0.4,2.8c0,1.2,0.2,2.3,0.6,3.2
	s1,1.6,1.8,2c0.8,0.4,1.7,0.6,2.6,0.6c1.1,0,2.1-0.3,2.8-1C527.6,307.4,528.1,306.5,528.4,305.3L528.4,305.3L528.4,305.3z"/>
<path class="st5" d="M546.7,305l0-1.7l6.4-0.1l0.1,5.3c-1,0.8-2,1.3-3,1.7c-1,0.4-2.1,0.6-3.2,0.6c-1.5,0-2.8-0.2-4.1-0.8
	s-2.2-1.4-2.8-2.6c-0.6-1.1-1-2.4-1-3.8s0.3-2.7,0.9-3.9s1.5-2.1,2.6-2.7c1.2-0.6,2.5-0.9,4-1c1.1,0,2.1,0.1,3,0.4
	c0.9,0.3,1.6,0.8,2.1,1.4c0.5,0.6,0.9,1.4,1.2,2.3l-1.8,0.5c-0.2-0.7-0.5-1.3-0.9-1.7s-0.8-0.7-1.5-1s-1.3-0.3-2.1-0.3
	c-0.9,0-1.7,0.2-2.4,0.4s-1.2,0.6-1.6,1.1c-0.4,0.4-0.7,0.9-0.9,1.4c-0.4,0.9-0.5,1.8-0.5,2.9c0,1.3,0.3,2.3,0.8,3.2
	s1.2,1.5,2.1,1.9s1.8,0.6,2.8,0.6c0.9,0,1.7-0.2,2.5-0.5s1.5-0.7,1.9-1l0-2.7L546.7,305L546.7,305L546.7,305z"/>
<path class="st5" d="M568.7,294.9l-5.6-14.4l-2.2,0l-6.5,14.1l2.3,0l1.8-4.3l6.3,0.1l1.6,4.4L568.7,294.9L568.7,294.9z M564.5,289
	l-5.1-0.1l1.7-3.9c0.5-1.2,0.9-2.2,1.1-2.9c0.2,0.9,0.4,1.8,0.8,2.7L564.5,289L564.5,289L564.5,289L564.5,289z"/>
<path class="st5" d="M564,279.2l-5.6-14.4l-2.2,0l-6.5,14.1l2.3,0l1.8-4.3l6.3,0.1l1.6,4.4L564,279.2L564,279.2z M559.8,273.3
	l-5.1-0.1l1.7-3.9c0.5-1.2,0.9-2.2,1.1-2.9c0.2,0.9,0.4,1.8,0.8,2.7L559.8,273.3L559.8,273.3L559.8,273.3L559.8,273.3z"/>
<path class="st5" d="M560.2,263.5l-5.6-14.4l-2.2,0l-6.5,14.1l2.3,0l1.8-4.3l6.3,0.1l1.6,4.4L560.2,263.5L560.2,263.5z M555.9,257.6
	l-5.1-0.1l1.7-3.9c0.5-1.2,0.9-2.2,1.1-2.9c0.2,0.9,0.4,1.8,0.8,2.7L555.9,257.6L555.9,257.6L555.9,257.6L555.9,257.6z"/>
<path class="st5" d="M560.2,247.8l-5.6-14.4l-2.2,0l-6.5,14.1l2.3,0l1.8-4.3l6.3,0.1l1.6,4.4L560.2,247.8L560.2,247.8z M555.9,241.9
	l-5.1-0.1l1.7-3.9c0.5-1.2,0.9-2.2,1.1-2.9c0.2,0.9,0.4,1.8,0.8,2.7L555.9,241.9L555.9,241.9L555.9,241.9L555.9,241.9z"/>
<path class="st5" d="M549.2,217.5l-2,0l-0.2,8.2c0,1.4,0.1,2.6,0.5,3.4c0.3,0.9,0.9,1.6,1.8,2.1s2.1,0.8,3.5,0.9s2.6-0.2,3.5-0.6
	s1.6-1.1,2-2s0.6-2.1,0.7-3.6l0.2-8.2l-2,0l-0.2,8.2c0,1.2-0.2,2.1-0.4,2.7s-0.7,1-1.3,1.3c-0.6,0.3-1.3,0.5-2.2,0.4
	c-1.5,0-2.5-0.4-3.1-1s-0.9-1.8-0.9-3.6L549.2,217.5L549.2,217.5L549.2,217.5L549.2,217.5z"/>
<path class="st5" d="M557.8,211.1l2,0.4c-0.4,1.6-1.1,2.8-2.2,3.6c-1.1,0.8-2.4,1.3-4,1.3s-3-0.3-4-0.9c-1-0.6-1.8-1.5-2.4-2.7
	c-0.5-1.2-0.8-2.4-0.9-3.8c0-1.5,0.2-2.8,0.8-3.9s1.4-2,2.5-2.6c1.1-0.6,2.3-0.9,3.7-0.9c1.5,0,2.8,0.3,3.8,1s1.8,1.7,2.2,3l-2,0.5
	c-0.4-1-0.9-1.8-1.6-2.2s-1.5-0.7-2.5-0.7c-1.2,0-2.1,0.3-2.9,0.8c-0.8,0.6-1.3,1.2-1.6,2.1s-0.5,1.8-0.4,2.8c0,1.2,0.2,2.3,0.6,3.2
	s1,1.6,1.8,2c0.8,0.4,1.7,0.6,2.6,0.6c1.1,0,2.1-0.3,2.8-1C557,213.2,557.5,212.3,557.8,211.1L557.8,211.1L557.8,211.1z"/>
<path class="st5" d="M578.5,204.6l-5.6-14.4l-2.2,0l-6.5,14.1l2.3,0l1.8-4.3l6.3,0.1l1.6,4.4L578.5,204.6L578.5,204.6z M574.2,198.7
	l-5.1-0.1l1.7-3.9c0.5-1.2,0.9-2.2,1.1-2.9c0.2,0.9,0.4,1.8,0.8,2.7L574.2,198.7L574.2,198.7L574.2,198.7L574.2,198.7z"/>
<g>
	<line class="st1" x1="531.4" y1="240.5" x2="546.2" y2="240.5"/>
	<line class="st1" x1="531.4" y1="256.2" x2="546.2" y2="256.2"/>
</g>
<path class="st5" d="M587.4,187.5l2,0.4c-0.4,1.6-1.1,2.8-2.2,3.6c-1.1,0.8-2.4,1.3-4,1.3s-3-0.3-4-0.9c-1-0.6-1.8-1.5-2.4-2.7
	c-0.5-1.2-0.8-2.4-0.9-3.8c0-1.5,0.2-2.8,0.8-3.9s1.4-2,2.5-2.6c1.1-0.6,2.3-0.9,3.7-0.9c1.5,0,2.8,0.3,3.8,1s1.8,1.7,2.2,3l-2,0.5
	c-0.4-1-0.9-1.8-1.6-2.2s-1.5-0.7-2.5-0.7c-1.2,0-2.1,0.3-2.9,0.8c-0.8,0.6-1.3,1.2-1.6,2.1s-0.5,1.8-0.4,2.8c0,1.2,0.2,2.3,0.6,3.2
	s1,1.6,1.8,2c0.8,0.4,1.7,0.6,2.6,0.6c1.1,0,2.1-0.3,2.8-1C586.7,189.6,587.2,188.7,587.4,187.5L587.4,187.5L587.4,187.5z"/>
<path class="st5" d="M602.2,187.5l2,0.4c-0.4,1.6-1.1,2.8-2.2,3.6c-1.1,0.8-2.4,1.3-4,1.3s-3-0.3-4-0.9c-1-0.6-1.8-1.5-2.4-2.7
	c-0.5-1.2-0.8-2.4-0.9-3.8c0-1.5,0.2-2.8,0.8-3.9s1.4-2,2.5-2.6c1.1-0.6,2.3-0.9,3.7-0.9c1.5,0,2.8,0.3,3.8,1s1.8,1.7,2.2,3l-2,0.5
	c-0.4-1-0.9-1.8-1.6-2.2s-1.5-0.7-2.5-0.7c-1.2,0-2.1,0.3-2.9,0.8c-0.8,0.6-1.3,1.2-1.6,2.1s-0.5,1.8-0.4,2.8c0,1.2,0.2,2.3,0.6,3.2
	s1,1.6,1.8,2c0.8,0.4,1.7,0.6,2.6,0.6c1.1,0,2.1-0.3,2.8-1C601.5,189.6,602,188.7,602.2,187.5L602.2,187.5L602.2,187.5z"/>
<path class="st5" d="M619.3,192.8l-5.6-14.4l-2.2,0l-6.5,14.1l2.3,0l1.8-4.3l6.3,0.1l1.6,4.4L619.3,192.8L619.3,192.8z M615.1,186.9
	l-5.1-0.1l1.7-3.9c0.5-1.2,0.9-2.2,1.1-2.9c0.2,0.9,0.4,1.8,0.8,2.7L615.1,186.9L615.1,186.9L615.1,186.9L615.1,186.9z"/>
<path class="st5" d="M627.6,187.2l0-1.7l6.4-0.1l0.1,5.3c-1,0.8-2,1.3-3,1.7c-1,0.4-2.1,0.6-3.2,0.6c-1.5,0-2.8-0.2-4.1-0.8
	s-2.2-1.4-2.8-2.6c-0.6-1.1-1-2.4-1-3.8s0.3-2.7,0.9-3.9s1.5-2.1,2.6-2.7c1.2-0.6,2.5-0.9,4-0.9c1.1,0,2.1,0.1,3,0.4
	c0.9,0.3,1.6,0.8,2.1,1.4s0.9,1.4,1.2,2.3l-1.8,0.5c-0.2-0.7-0.5-1.3-0.9-1.7s-0.8-0.7-1.5-1c-0.6-0.2-1.3-0.3-2.1-0.3
	c-0.9,0-1.7,0.2-2.4,0.4s-1.2,0.6-1.6,1.1c-0.4,0.4-0.7,0.9-0.9,1.4c-0.4,0.9-0.5,1.8-0.5,2.9c0,1.3,0.3,2.3,0.8,3.2
	s1.2,1.5,2.1,1.9s1.8,0.6,2.8,0.6c0.9,0,1.7-0.2,2.5-0.5s1.5-0.7,1.9-1l0-2.7L627.6,187.2L627.6,187.2L627.6,187.2z"/>
<path class="st5" d="M648.7,204.6l-5.6-14.4l-2.2,0l-6.5,14.1l2.3,0l1.8-4.3l6.3,0.1l1.6,4.4L648.7,204.6L648.7,204.6z M644.4,198.6
	l-5.1-0.1l1.7-3.9c0.5-1.2,0.9-2.2,1.1-2.9c0.2,0.9,0.4,1.8,0.8,2.7L644.4,198.6L644.4,198.6L644.4,198.6L644.4,198.6z"/>
<path class="st5" d="M656.5,193.9l-2,0l-0.2,8.2c0,1.4,0.1,2.6,0.5,3.4c0.3,0.9,0.9,1.6,1.8,2.1c0.9,0.6,2.1,0.8,3.5,0.9
	s2.6-0.2,3.5-0.6s1.6-1.1,2-2s0.6-2.1,0.7-3.6l0.2-8.2l-2,0l-0.2,8.2c0,1.2-0.2,2.1-0.4,2.7s-0.7,1-1.3,1.3
	c-0.6,0.3-1.3,0.5-2.2,0.4c-1.5,0-2.5-0.4-3.1-1s-0.9-1.8-0.9-3.6L656.5,193.9L656.5,193.9L656.5,193.9L656.5,193.9z"/>
<path class="st5" d="M675,190l-2,0l-0.2,8.2c0,1.4,0.1,2.6,0.5,3.4c0.3,0.9,0.9,1.6,1.8,2.1c0.9,0.6,2.1,0.8,3.5,0.9
	s2.6-0.2,3.5-0.6s1.6-1.1,2-2s0.6-2.1,0.7-3.6l0.2-8.2l-2,0l-0.2,8.2c0,1.2-0.2,2.1-0.4,2.7s-0.7,1-1.3,1.3
	c-0.6,0.3-1.3,0.5-2.2,0.4c-1.5,0-2.5-0.4-3.1-1s-0.9-1.8-0.9-3.6L675,190L675,190L675,190L675,190z"/>
<path class="st5" d="M690.4,179.3l0-1.7l6.4-0.1l0.1,5.3c-1,0.8-2,1.3-3,1.7c-1,0.4-2.1,0.6-3.2,0.6c-1.5,0-2.8-0.2-4.1-0.8
	s-2.2-1.4-2.8-2.6c-0.6-1.1-1-2.4-1-3.8s0.3-2.7,0.9-3.9s1.5-2.1,2.6-2.7c1.2-0.6,2.5-0.9,4-0.9c1.1,0,2.1,0.1,3,0.4
	c0.9,0.3,1.6,0.8,2.1,1.4s0.9,1.4,1.2,2.3l-1.8,0.5c-0.2-0.7-0.5-1.3-0.9-1.7s-0.8-0.7-1.5-1s-1.3-0.3-2.1-0.3
	c-0.9,0-1.7,0.2-2.4,0.4s-1.2,0.6-1.6,1.1c-0.4,0.4-0.7,0.9-0.9,1.4c-0.4,0.9-0.5,1.8-0.5,2.9c0,1.3,0.3,2.3,0.8,3.2
	s1.2,1.5,2.1,1.9s1.8,0.6,2.8,0.6c0.9,0,1.7-0.2,2.5-0.5s1.5-0.7,1.9-1l0-2.7L690.4,179.3L690.4,179.3L690.4,179.3z"/>
<path class="st5" d="M686.7,159.7l0-1.7l6.4-0.1l0.1,5.3c-1,0.8-2,1.3-3,1.7c-1,0.4-2.1,0.6-3.2,0.6c-1.5,0-2.8-0.2-4.1-0.8
	s-2.2-1.4-2.8-2.6c-0.6-1.1-1-2.4-1-3.8s0.3-2.7,0.9-3.9s1.5-2.1,2.6-2.7c1.2-0.6,2.5-0.9,4-0.9c1.1,0,2.1,0.1,3,0.4
	c0.9,0.3,1.6,0.8,2.1,1.4s0.9,1.4,1.2,2.3l-1.8,0.5c-0.2-0.7-0.5-1.3-0.9-1.7s-0.8-0.7-1.5-1s-1.3-0.3-2.1-0.3
	c-0.9,0-1.7,0.2-2.4,0.4s-1.2,0.6-1.6,1.1c-0.4,0.4-0.7,0.9-0.9,1.4c-0.4,0.9-0.5,1.8-0.5,2.9c0,1.3,0.3,2.3,0.8,3.2
	s1.2,1.5,2.1,1.9s1.8,0.6,2.8,0.6c0.9,0,1.7-0.2,2.5-0.5s1.5-0.7,1.9-1l0-2.7L686.7,159.7L686.7,159.7L686.7,159.7z"/>
<path class="st5" d="M685.6,145.7l-5.6-14.4l-2.2,0l-6.5,14.1l2.3,0l1.8-4.3l6.3,0.1l1.6,4.4L685.6,145.7L685.6,145.7z M681.3,139.7
	l-5.1-0.1l1.7-3.9c0.5-1.2,0.9-2.2,1.1-2.9c0.2,0.9,0.4,1.8,0.8,2.7L681.3,139.7L681.3,139.7L681.3,139.7L681.3,139.7z"/>
<path class="st5" d="M665,140.4l2,0.4c-0.4,1.6-1.1,2.8-2.2,3.6c-1.1,0.8-2.4,1.3-4,1.3s-3-0.3-4-0.9c-1-0.6-1.8-1.5-2.4-2.7
	c-0.5-1.2-0.8-2.4-0.9-3.8c0-1.5,0.2-2.8,0.8-3.9s1.4-2,2.5-2.6c1.1-0.6,2.3-0.9,3.7-0.9c1.5,0,2.8,0.3,3.8,1s1.8,1.7,2.2,3l-2,0.5
	c-0.4-1-0.9-1.8-1.6-2.2s-1.5-0.7-2.5-0.7c-1.2,0-2.1,0.3-2.9,0.8c-0.8,0.6-1.3,1.2-1.6,2.1s-0.5,1.8-0.4,2.8c0,1.2,0.2,2.3,0.6,3.2
	s1,1.6,1.8,2c0.8,0.4,1.7,0.6,2.6,0.6c1.1,0,2.1-0.3,2.8-1C664.3,142.5,664.8,141.6,665,140.4L665,140.4L665,140.4z"/>
<path class="st5" d="M646.5,144.3l2,0.4c-0.4,1.6-1.1,2.8-2.2,3.6c-1.1,0.8-2.4,1.3-4,1.3s-3-0.3-4-0.9c-1-0.6-1.8-1.5-2.4-2.7
	c-0.5-1.2-0.8-2.4-0.9-3.8c0-1.5,0.2-2.8,0.8-3.9s1.4-2,2.5-2.6c1.1-0.6,2.3-0.9,3.7-0.9c1.5,0,2.8,0.3,3.8,1s1.8,1.7,2.2,3l-2,0.5
	c-0.4-1-0.9-1.8-1.6-2.2s-1.5-0.7-2.5-0.7c-1.2,0-2.1,0.3-2.9,0.8c-0.8,0.6-1.3,1.2-1.6,2.1s-0.5,1.8-0.4,2.8c0,1.2,0.2,2.3,0.6,3.2
	s1,1.6,1.8,2c0.8,0.4,1.7,0.6,2.6,0.6c1.1,0,2.1-0.3,2.8-1C645.8,146.4,646.3,145.5,646.5,144.3L646.5,144.3L646.5,144.3z"/>
<path class="st5" d="M631.8,156.1l2,0.4c-0.4,1.6-1.1,2.8-2.2,3.6c-1.1,0.8-2.4,1.3-4,1.3s-3-0.3-4-0.9c-1-0.6-1.8-1.5-2.4-2.7
	c-0.5-1.2-0.8-2.4-0.9-3.8c0-1.5,0.2-2.8,0.8-3.9s1.4-2,2.5-2.6c1.1-0.6,2.3-0.9,3.7-0.9c1.5,0,2.8,0.3,3.8,1s1.8,1.7,2.2,3l-2,0.5
	c-0.4-1-0.9-1.8-1.6-2.2s-1.5-0.7-2.5-0.7c-1.2,0-2.1,0.3-2.9,0.8c-0.8,0.6-1.3,1.2-1.6,2.1s-0.5,1.8-0.4,2.8c0,1.2,0.2,2.3,0.6,3.2
	s1,1.6,1.8,2c0.8,0.4,1.7,0.6,2.6,0.6c1.1,0,2.1-0.3,2.8-1C631,158.2,631.5,157.3,631.8,156.1L631.8,156.1L631.8,156.1z"/>
<path class="st5" d="M608.4,146.8l-2,0l-0.2,8.2c0,1.4,0.1,2.6,0.5,3.4c0.3,0.9,0.9,1.6,1.8,2.1s2.1,0.8,3.5,0.9s2.6-0.2,3.5-0.6
	s1.6-1.1,2-2s0.6-2.1,0.7-3.6l0.2-8.2l-2,0l-0.2,8.2c0,1.2-0.2,2.1-0.4,2.7s-0.7,1-1.3,1.3c-0.6,0.3-1.3,0.5-2.2,0.4
	c-1.5,0-2.5-0.4-3.1-1s-0.9-1.8-0.9-3.6L608.4,146.8L608.4,146.8L608.4,146.8L608.4,146.8z"/>
<path class="st5" d="M598,155.8l0-1.7l6.4-0.1l0.1,5.3c-1,0.8-2,1.3-3,1.7c-1,0.4-2.1,0.6-3.2,0.6c-1.5,0-2.8-0.2-4.1-0.8
	s-2.2-1.4-2.8-2.6c-0.6-1.1-1-2.4-1-3.8s0.3-2.7,0.9-3.9c0.6-1.2,1.5-2.1,2.6-2.7c1.2-0.6,2.5-0.9,4-0.9c1.1,0,2.1,0.1,3,0.4
	c0.9,0.3,1.6,0.8,2.1,1.4c0.5,0.6,0.9,1.4,1.2,2.3l-1.8,0.5c-0.2-0.7-0.5-1.3-0.9-1.7s-0.8-0.7-1.5-1s-1.3-0.3-2.1-0.3
	c-0.9,0-1.7,0.2-2.4,0.4s-1.2,0.6-1.6,1.1c-0.4,0.4-0.7,0.9-0.9,1.4c-0.4,0.9-0.5,1.8-0.5,2.9c0,1.3,0.3,2.3,0.8,3.2
	s1.2,1.5,2.1,1.9s1.8,0.6,2.8,0.6c0.9,0,1.7-0.2,2.5-0.5s1.5-0.7,1.9-1l0-2.7L598,155.8L598,155.8L598,155.8z"/>
<path class="st5" d="M583.2,155.8l0-1.7l6.4-0.1l0.1,5.3c-1,0.8-2,1.3-3,1.7c-1,0.4-2.1,0.6-3.2,0.6c-1.5,0-2.8-0.2-4.1-0.8
	s-2.2-1.4-2.8-2.6c-0.6-1.1-1-2.4-1-3.8s0.3-2.7,0.9-3.9s1.5-2.1,2.6-2.7c1.2-0.6,2.5-0.9,4-0.9c1.1,0,2.1,0.1,3,0.4
	c0.9,0.3,1.6,0.8,2.1,1.4c0.5,0.6,0.9,1.4,1.2,2.3l-1.8,0.5c-0.2-0.7-0.5-1.3-0.9-1.7s-0.8-0.7-1.5-1s-1.3-0.3-2.1-0.3
	c-0.9,0-1.7,0.2-2.4,0.4s-1.2,0.6-1.6,1.1c-0.4,0.4-0.7,0.9-0.9,1.4c-0.4,0.9-0.5,1.8-0.5,2.9c0,1.3,0.3,2.3,0.8,3.2
	s1.2,1.5,2.1,1.9s1.8,0.6,2.8,0.6c0.9,0,1.7-0.2,2.5-0.5s1.5-0.7,1.9-1l0-2.7L583.2,155.8L583.2,155.8L583.2,155.8z"/>
<path class="st5" d="M572.4,133.1l-2,0l-0.2,8.2c0,1.4,0.1,2.6,0.5,3.4c0.3,0.9,0.9,1.6,1.8,2.1s2.1,0.8,3.5,0.9s2.6-0.2,3.5-0.6
	s1.6-1.1,2-2s0.6-2.1,0.7-3.6l0.2-8.2l-2,0l-0.2,8.2c0,1.2-0.2,2.1-0.4,2.7s-0.7,1-1.3,1.3c-0.6,0.3-1.3,0.5-2.2,0.4
	c-1.5,0-2.5-0.4-3.1-1s-0.9-1.8-0.9-3.6L572.4,133.1L572.4,133.1L572.4,133.1L572.4,133.1z"/>
<path class="st5" d="M564.1,119.4l-2,0l-0.2,8.2c0,1.4,0.1,2.6,0.5,3.4c0.3,0.9,0.9,1.6,1.8,2.1s2.1,0.8,3.5,0.9s2.6-0.2,3.5-0.6
	s1.6-1.1,2-2s0.6-2.1,0.7-3.6l0.2-8.2l-2,0l-0.2,8.2c0,1.2-0.2,2.1-0.4,2.7s-0.7,1-1.3,1.3c-0.6,0.3-1.3,0.5-2.2,0.4
	c-1.5,0-2.5-0.4-3.1-1s-0.9-1.8-0.9-3.6L564.1,119.4L564.1,119.4L564.1,119.4L564.1,119.4z"/>
<line class="st2" x1="575.3" y1="119.2" x2="582.3" y2="111.8"/>
<path d="M593,96.5l-1.8,0.2c-0.2-0.7-0.4-1.2-0.7-1.5c-0.5-0.5-1.1-0.7-1.9-0.7c-0.6,0-1.1,0.2-1.5,0.5c-0.6,0.4-1,1-1.3,1.8
	c-0.3,0.8-0.5,1.9-0.5,3.3c0.4-0.7,1-1.1,1.6-1.5s1.3-0.5,2-0.5c1.2,0,2.3,0.4,3.2,1.2c0.9,0.8,1.3,1.9,1.4,3.3
	c0,0.9-0.2,1.7-0.6,2.5s-1,1.4-1.7,1.8c-0.7,0.4-1.5,0.6-2.4,0.7c-1.5,0-2.8-0.5-3.8-1.5s-1.5-2.8-1.6-5.3c0-2.8,0.5-4.8,1.5-6
	c0.9-1.1,2.2-1.7,3.8-1.7c1.2,0,2.2,0.3,2.9,0.9C592.4,94.6,592.9,95.4,593,96.5L593,96.5L593,96.5L593,96.5z M585.5,102.8
	c0,0.6,0.2,1.2,0.4,1.7s0.7,0.9,1.2,1.2c0.5,0.3,1,0.4,1.5,0.4c0.8,0,1.5-0.3,2-0.9s0.8-1.4,0.8-2.4s-0.3-1.8-0.9-2.3
	c-0.6-0.6-1.3-0.8-2.1-0.8s-1.5,0.3-2.1,0.9C585.8,101.1,585.5,101.9,585.5,102.8L585.5,102.8L585.5,102.8z M595,100.2
	c0-1.7,0.1-3,0.5-4.1c0.3-1,0.9-1.8,1.6-2.4c0.7-0.6,1.6-0.9,2.7-0.9c0.8,0,1.5,0.1,2.1,0.4s1.1,0.7,1.5,1.3s0.7,1.3,1,2.1
	s0.4,1.9,0.4,3.3c0,1.7-0.1,3-0.5,4.1s-0.9,1.8-1.6,2.4c-0.7,0.6-1.6,0.9-2.7,0.9c-1.5,0-2.6-0.4-3.5-1.4
	C595.6,104.8,595.1,102.9,595,100.2L595,100.2z M596.9,100.2c0,2.3,0.4,3.9,1,4.7c0.6,0.8,1.3,1.1,2.2,1.1s1.5-0.4,2.1-1.2
	s0.8-2.3,0.8-4.7s-0.4-3.9-1-4.7s-1.3-1.1-2.2-1.1s-1.5,0.4-2,1.1C597.2,96.2,596.9,97.8,596.9,100.2
	C596.9,100.2,596.9,100.2,596.9,100.2z"/>
<path class="st5" d="M566.3,118.2l-5.6-14.4l-2.2,0l-6.5,14.1l2.3,0l1.8-4.3l6.3,0.1l1.6,4.3L566.3,118.2L566.3,118.2z M562.1,112.3
	l-5.1-0.1l1.7-3.9c0.5-1.2,0.9-2.2,1.1-2.9c0.2,0.9,0.4,1.8,0.8,2.7L562.1,112.3L562.1,112.3L562.1,112.3L562.1,112.3z"/>
<line class="st1" x1="612.8" y1="178.1" x2="612.8" y2="163.1"/>
<line class="st1" x1="627.2" y1="178.3" x2="627.2" y2="163.3"/>
<line class="st1" x1="594.9" y1="177.8" x2="594.9" y2="162.8"/>
<line class="st1" x1="582.7" y1="177.7" x2="582.7" y2="162.7"/>
<g>
	<line class="st1" x1="530.9" y1="208.7" x2="545.7" y2="208.7"/>
	<line class="st1" x1="530.9" y1="224.4" x2="545.8" y2="224.4"/>
</g>
<line class="st1" x1="483.1" y1="168.6" x2="483.1" y2="154.5"/>
<line class="st1" x1="468.3" y1="169.3" x2="468.3" y2="155.1"/>
<line class="st1" x1="450" y1="168.9" x2="450" y2="154.2"/>
<line class="st1" x1="383.3" y1="166.7" x2="383.3" y2="151.1"/>
<line class="st1" x1="338.8" y1="165.6" x2="338.8" y2="149.6"/>
<line class="st1" x1="183.8" y1="168.5" x2="183.8" y2="148.9"/>
<line class="st1" x1="169.2" y1="168.2" x2="169.2" y2="148.6"/>
<line class="st1" x1="154.3" y1="167.9" x2="154.3" y2="148.3"/>
<g>
	<g>
		<text transform="matrix(1 0 0 1 323.78 45.29)" class="st6 st7">RN</text>
	</g>
	<g>
		<text transform="matrix(1 0 0 1 354.11 45.29)" class="st6 st7 st8">A</text>
	</g>
	<g>
		<text transform="matrix(1 0 0 1 366.96 45.29)" class="st6 st7"> 12 E4 aptamer</text>
	</g>
</g>
<text transform="matrix(1 0 0 1 108.7385 206.8415)" class="st6 st7">5</text>
<text transform="matrix(1 0 0 1 119.8585 206.8415)" class="st6 st7">’</text>
<text transform="matrix(0.96 0 0 1 84.2387 140.3696)" class="st6 st7">3</text>
<text transform="matrix(0.96 0 0 1 94.914 140.3696)" class="st6 st7">’</text>
</svg>
