<?xml version="1.0" encoding="utf-8"?>
<!-- Generator: Adobe Illustrator 25.2.0, SVG Export Plug-In . SVG Version: 6.00 Build 0)  -->
<svg version="1.1" id="图层_1" xmlns="http://www.w3.org/2000/svg" xmlns:xlink="http://www.w3.org/1999/xlink" x="0px" y="0px"
	 viewBox="0 0 800 400" style="enable-background:new 0 0 800 400;" xml:space="preserve">
<style type="text/css">
	.st0{fill:#C2B617;}
	.st1{font-family:'ArialMT';}
	.st2{font-size:13.878px;}
	.st3{fill:#B83233;}
	.st4{fill:none;stroke:#000000;stroke-width:0.5;stroke-miterlimit:2.2857;}
	.st5{fill:none;stroke:#000000;stroke-miterlimit:2.2857;}
	.st6{stroke:#000000;stroke-miterlimit:2.2857;}
	.st7{fill:none;stroke:#000000;stroke-width:0.2857;stroke-miterlimit:2.2857;}
	.st8{fill:none;stroke:#000000;stroke-width:0.8;stroke-miterlimit:2.2857;}
	.st9{stroke:#000000;stroke-width:0.2857;stroke-miterlimit:2.2857;}
	.st10{fill:#084595;}
	.st11{font-size:20px;}
	.st12{font-size:14px;}
</style>
<g id="ID000002">
	<g transform="translate(151.878,337.867)">
		<g transform="rotate(-0.0)">
			<text transform="matrix(1 0 0 1 -21.7697 -79.5988)" class="st0 st1 st2">A</text>
		</g>
	</g>
</g>
<g id="ID000003">
	<g transform="translate(140.342,329.215)">
		<g transform="rotate(-0.0)">
			<text transform="matrix(1 0 0 1 -4.1188 -84.5085)" class="st0 st1 st2">C</text>
		</g>
	</g>
</g>
<g id="ID000004">
	<g transform="translate(130.729,315.757)">
		<g transform="rotate(-0.0)">
			<text transform="matrix(1 0 0 1 11.2611 -85.8717)" class="st3 st1 st2">C</text>
		</g>
	</g>
</g>
<g id="ID000005">
	<g transform="translate(119.193,315.757)">
		<g transform="rotate(-0.0)">
			<text transform="matrix(1 0 0 1 9.0676 -85.8717)" class="st3 st1 st2">G</text>
		</g>
	</g>
</g>
<g id="ID000006">
	<g transform="translate(107.657,315.757)">
		<g transform="rotate(-0.0)">
			<text transform="matrix(1 0 0 1 8.0324 -85.8717)" class="st3 st1 st2">A</text>
		</g>
	</g>
</g>
<g id="ID000007">
	<g transform="translate(96.122,315.757)">
		<g transform="rotate(-0.0)">
			<text transform="matrix(1 0 0 1 5.457 -85.8717)" class="st3 st1 st2">G</text>
		</g>
	</g>
</g>
<g id="ID000008">
	<g transform="translate(84.586,315.757)">
		<g transform="rotate(-0.0)">
			<text transform="matrix(1 0 0 1 4.0389 -85.8717)" class="st3 st1 st2">U</text>
		</g>
	</g>
</g>
<g id="ID000009">
	<g>
		<g transform="translate(73.050,327.292)">
			<g transform="rotate(-0.0)">
				<text transform="matrix(1 0 0 1 2.2321 -84.0669)" class="st3 st1 st2">C</text>
			</g>
		</g>
	</g>
</g>
<g id="ID000010">
	<g>
		<g transform="translate(58.631,330.176)">
			<g transform="rotate(-0.0)">
				<text transform="matrix(1 0 0 1 -2.367068e-02 -83.615)" class="st3 st1 st2">C</text>
			</g>
		</g>
	</g>
</g>
<g id="ID000011">
	<g>
		<g transform="translate(49.979,315.757)">
			<g transform="rotate(-0.0)">
				<text transform="matrix(1 0 0 1 -0.9952 -85.8717)" class="st3 st1 st2">A</text>
			</g>
		</g>
	</g>
</g>
<g id="ID000012">
	<line class="st4" x1="53.7" y1="232.8" x2="53.7" y2="241.7"/>
</g>
<g id="ID000013">
	<g transform="translate(49.979,339.559)">
		<g transform="rotate(-0.0)">
			<text transform="matrix(1 0 0 1 -4.0841 -82.1464)" class="st1 st2">10</text>
		</g>
	</g>
</g>
<g id="ID000014">
	<g>
		<g transform="translate(49.979,304.221)">
			<g transform="rotate(-0.0)">
				<text transform="matrix(1 0 0 1 -1.7638 -87.6766)" class="st3 st1 st2">G</text>
			</g>
		</g>
	</g>
</g>
<g id="ID000015">
	<g>
		<g transform="translate(55.747,289.801)">
			<g transform="rotate(-0.0)">
				<text transform="matrix(1 0 0 1 -9.279668e-02 -89.9333)" class="st3 st1 st2">A</text>
			</g>
		</g>
	</g>
</g>
<g id="ID000016">
	<g>
		<g transform="translate(70.166,286.917)">
			<g transform="rotate(-0.0)">
				<text transform="matrix(1 0 0 1 2.165 -90.3853)" class="st3 st1 st2">A</text>
			</g>
		</g>
	</g>
</g>
<g id="ID000017">
	<g>
		<g transform="translate(84.586,292.685)">
			<g transform="rotate(-0.0)">
				<text transform="matrix(1 0 0 1 3.6522 -89.4824)" class="st3 st1 st2">G</text>
			</g>
		</g>
	</g>
</g>
<g id="ID000018">
	<g>
		<g transform="translate(96.122,292.685)">
			<g transform="rotate(-0.0)">
				<text transform="matrix(1 0 0 1 5.8447 -89.4824)" class="st3 st1 st2">C</text>
			</g>
		</g>
	</g>
</g>
<g id="ID000019">
	<g>
		<g transform="translate(107.657,292.685)">
			<g transform="rotate(-0.0)">
				<text transform="matrix(1 0 0 1 7.6486 -89.4824)" class="st3 st1 st2">U</text>
			</g>
		</g>
	</g>
</g>
<g id="ID000020">
	<g>
		<g transform="translate(119.193,292.685)">
			<g transform="rotate(-0.0)">
				<text transform="matrix(1 0 0 1 9.4553 -89.4824)" class="st3 st1 st2">U</text>
			</g>
		</g>
	</g>
</g>
<g id="ID000021">
	<g>
		<g transform="translate(130.729,292.685)">
			<g transform="rotate(-0.0)">
				<text transform="matrix(1 0 0 1 10.8734 -89.4824)" class="st3 st1 st2">G</text>
			</g>
		</g>
	</g>
</g>
<g id="ID000022">
	<line class="st5" x1="147" y1="218.6" x2="147" y2="202.4"/>
</g>
<g id="ID000023">
	<polygon class="st6" points="133.6,207.9 133.4,207.9 133.4,207.9 133.2,207.9 133,207.9 132.8,207.9 132.6,208.1 132.6,208.1 
		132.4,208.1 132.2,208.3 132,208.3 132,208.5 131.8,208.5 131.8,208.7 131.6,208.9 131.6,208.9 131.4,209.1 131.4,209.3 
		131.2,209.5 131.2,209.5 131.2,209.7 131,209.9 131,210.1 131,210.3 131,210.3 131,210.5 131,210.7 131,210.9 131,211.1 
		131.2,211.4 131.2,211.4 131.2,211.6 131.2,211.8 131.4,212 131.4,212 131.6,212.2 131.6,212.4 131.8,212.4 131.8,212.6 132,212.6 
		132.2,212.8 132.2,212.8 132.4,213 132.6,213 132.8,213 133,213.2 133,213.2 133.2,213.2 133.4,213.2 133.6,213.2 133.8,213.2 
		134,213.2 134,213.2 134.2,213.2 134.4,213.2 134.6,213 134.8,213 134.8,213 135,212.8 135.2,212.8 135.2,212.6 135.4,212.6 
		135.6,212.4 135.6,212.4 135.8,212.2 135.8,212 136,212 136,211.8 136,211.6 136.2,211.4 136.2,211.4 136.2,211.1 136.2,210.9 
		136.2,210.7 136.2,210.5 136.2,210.3 136.2,210.3 136.2,210.1 136.2,209.9 136.2,209.7 136.2,209.5 136,209.5 136,209.3 
		135.8,209.1 135.8,208.9 135.8,208.9 135.6,208.7 135.4,208.5 135.4,208.5 135.2,208.3 135,208.3 135,208.1 134.8,208.1 
		134.6,208.1 134.4,207.9 134.4,207.9 134.2,207.9 134,207.9 133.8,207.9 	"/>
</g>
<g id="ID000024">
	<line class="st5" x1="120.2" y1="218.6" x2="120.2" y2="202.4"/>
</g>
<g id="ID000025">
	<line class="st5" x1="106.9" y1="218.6" x2="106.9" y2="202.4"/>
</g>
<g id="ID000026">
	<polygon class="st6" points="93.7,207.9 93.5,207.9 93.3,207.9 93.1,207.9 92.9,207.9 92.7,207.9 92.7,208.1 92.5,208.1 
		92.3,208.1 92.1,208.3 92.1,208.3 91.9,208.5 91.7,208.5 91.7,208.7 91.5,208.9 91.5,208.9 91.3,209.1 91.3,209.3 91.3,209.5 
		91.1,209.5 91.1,209.7 91.1,209.9 91.1,210.1 90.9,210.3 90.9,210.3 90.9,210.5 90.9,210.7 90.9,210.9 91.1,211.1 91.1,211.4 
		91.1,211.4 91.1,211.6 91.3,211.8 91.3,212 91.5,212 91.5,212.2 91.7,212.4 91.7,212.4 91.9,212.6 91.9,212.6 92.1,212.8 
		92.3,212.8 92.3,213 92.5,213 92.7,213 92.9,213.2 93.1,213.2 93.1,213.2 93.3,213.2 93.5,213.2 93.7,213.2 93.9,213.2 94.1,213.2 
		94.1,213.2 94.3,213.2 94.5,213 94.7,213 94.9,213 94.9,212.8 95.2,212.8 95.4,212.6 95.4,212.6 95.6,212.4 95.6,212.4 95.8,212.2 
		95.8,212 96,212 96,211.8 96.2,211.6 96.2,211.4 96.2,211.4 96.2,211.1 96.4,210.9 96.4,210.7 96.4,210.5 96.4,210.3 96.4,210.3 
		96.2,210.1 96.2,209.9 96.2,209.7 96.2,209.5 96.2,209.5 96,209.3 96,209.1 95.8,208.9 95.8,208.9 95.6,208.7 95.6,208.5 
		95.4,208.5 95.2,208.3 95.2,208.3 94.9,208.1 94.7,208.1 94.5,208.1 94.5,207.9 94.3,207.9 94.1,207.9 93.9,207.9 	"/>
</g>
<g id="ID000030">
	<g>
		<g transform="translate(156.684,284.033)">
			<g transform="rotate(-0.0)">
				<text transform="matrix(1 0 0 1 3.6939 -80.5742)" class="st3 st1 st2">U</text>
			</g>
		</g>
	</g>
</g>
<g id="ID000031">
	<g>
		<g transform="translate(168.220,284.033)">
			<g transform="rotate(-0.0)">
				<text transform="matrix(1 0 0 1 5.8825 -80.5742)" class="st3 st1 st2">A</text>
			</g>
		</g>
	</g>
</g>
<g id="ID000032">
	<line class="st7" x1="178.6" y1="188.6" x2="178.6" y2="179.7"/>
</g>
<g id="ID000033">
	<g transform="translate(168.220,260.577)">
		<g transform="rotate(-0.0)">
			<text transform="matrix(1 0 0 1 2.7927 -84.2437)" class="st1 st2">20</text>
		</g>
	</g>
</g>
<g id="ID000034">
	<g>
		<g transform="translate(179.756,284.033)">
			<g transform="rotate(-0.0)">
				<text transform="matrix(1 0 0 1 6.9178 -80.5742)" class="st3 st1 st2">G</text>
			</g>
		</g>
	</g>
</g>
<g id="ID000035">
	<g>
		<g transform="translate(191.292,284.033)">
			<g transform="rotate(-0.0)">
				<text transform="matrix(1 0 0 1 9.1103 -80.5742)" class="st3 st1 st2">U</text>
			</g>
		</g>
	</g>
</g>
<g id="ID000036">
	<g>
		<g transform="translate(202.827,284.033)">
			<g transform="rotate(-0.0)">
				<text transform="matrix(1 0 0 1 11.298 -80.5742)" class="st3 st1 st2">A</text>
			</g>
		</g>
	</g>
</g>
<g id="ID000037">
	<g>
		<g transform="translate(214.363,284.033)">
			<g transform="rotate(-0.0)">
				<text transform="matrix(1 0 0 1 12.722 -80.5742)" class="st3 st1 st2">C</text>
			</g>
		</g>
	</g>
</g>
<g id="ID000038">
	<g>
		<g transform="translate(225.899,275.382)">
			<g transform="rotate(-0.0)">
				<text transform="matrix(1 0 0 1 14.5268 -81.9281)" class="st3 st1 st2">U</text>
			</g>
		</g>
	</g>
</g>
<g id="ID000039">
	<g transform="translate(214.363,307.105)">
		<g transform="rotate(-0.0)">
			<text transform="matrix(1 0 0 1 12.3343 -76.9637)" class="st3 st1 st2">G</text>
		</g>
	</g>
</g>
<g id="ID000040">
	<g transform="translate(202.827,307.105)">
		<g transform="rotate(-0.0)">
			<text transform="matrix(1 0 0 1 10.9152 -76.9637)" class="st3 st1 st2">U</text>
		</g>
	</g>
</g>
<g id="ID000041">
	<g transform="translate(191.292,307.105)">
		<g transform="rotate(-0.0)">
			<text transform="matrix(1 0 0 1 9.4931 -76.9637)" class="st3 st1 st2">A</text>
		</g>
	</g>
</g>
<g id="ID000042">
	<g transform="translate(179.756,307.105)">
		<g transform="rotate(-0.0)">
			<text transform="matrix(1 0 0 1 7.3045 -76.9637)" class="st3 st1 st2">U</text>
		</g>
	</g>
</g>
<g id="ID000043">
	<g transform="translate(168.220,307.105)">
		<g transform="rotate(-0.0)">
			<text transform="matrix(1 0 0 1 5.4997 -76.9637)" class="st3 st1 st2">U</text>
		</g>
	</g>
</g>
<g id="ID000044">
	<g transform="translate(156.684,307.105)">
		<g transform="rotate(-0.0)">
			<text transform="matrix(1 0 0 1 4.0767 -76.9637)" class="st3 st1 st2">A</text>
		</g>
	</g>
</g>
<g id="ID000045">
	<g transform="translate(165.336,321.525)">
		<g transform="rotate(-0.0)">
			<text transform="matrix(1 0 0 1 -3.8619 -79.8154)" class="st0 st1 st2">C</text>
		</g>
	</g>
</g>
<g id="ID000046">
	<line class="st5" x1="165.5" y1="202.8" x2="165.5" y2="218.8"/>
</g>
<g id="ID000047">
	<line class="st5" x1="178.6" y1="202.8" x2="178.6" y2="218.8"/>
</g>
<g id="ID000048">
	<polygon class="st6" points="192,213.5 192.2,213.5 192.4,213.5 192.6,213.5 192.8,213.3 192.8,213.3 193,213.3 193.2,213.1 
		193.4,213.1 193.4,213.1 193.6,212.9 193.8,212.9 193.8,212.7 194,212.7 194.2,212.5 194.2,212.3 194.4,212.3 194.4,212.1 
		194.4,211.9 194.6,211.7 194.6,211.5 194.6,211.5 194.6,211.3 194.6,211.1 194.8,210.9 194.8,210.7 194.6,210.7 194.6,210.5 
		194.6,210.3 194.6,210.1 194.6,209.9 194.6,209.7 194.4,209.7 194.4,209.5 194.2,209.3 194.2,209.3 194,209.1 194,208.9 
		193.8,208.9 193.6,208.7 193.6,208.7 193.4,208.5 193.2,208.5 193.2,208.3 193,208.3 192.8,208.3 192.6,208.3 192.4,208.3 
		192.4,208.1 192.2,208.1 192,208.1 191.8,208.1 191.6,208.3 191.4,208.3 191.4,208.3 191.2,208.3 191,208.3 190.8,208.5 
		190.8,208.5 190.6,208.7 190.4,208.7 190.4,208.9 190.2,208.9 190,209.1 190,209.3 189.8,209.3 189.8,209.5 189.8,209.7 
		189.6,209.7 189.6,209.9 189.6,210.1 189.4,210.3 189.4,210.5 189.4,210.7 189.4,210.7 189.4,210.9 189.4,211.1 189.4,211.3 
		189.6,211.5 189.6,211.5 189.6,211.7 189.6,211.9 189.8,212.1 189.8,212.3 190,212.3 190,212.5 190.2,212.7 190.2,212.7 
		190.4,212.9 190.6,212.9 190.6,213.1 190.8,213.1 191,213.1 191,213.3 191.2,213.3 191.4,213.3 191.6,213.5 191.8,213.5 	"/>
</g>
<g id="ID000049">
	<line class="st5" x1="205.4" y1="202.8" x2="205.4" y2="218.8"/>
</g>
<g id="ID000050">
	<line class="st5" x1="218.7" y1="202.8" x2="218.7" y2="218.8"/>
</g>
<g id="ID000051">
	<line class="st5" x1="232.1" y1="202.8" x2="232.1" y2="218.8"/>
</g>
<g id="ID000052">
	<line class="st8" x1="270.1" y1="224" x2="237.3" y2="224"/>
</g>
<g id="ID000053">
	<polygon class="st9" points="254.5,226.5 253,225.1 251.5,224.7 250,224.4 247.1,223.8 250,223.2 251.5,222.9 253,222.5 
		254.5,221.2 	"/>
</g>
<g id="ID000055">
	<g>
		<g transform="translate(237.435,275.382)">
			<g transform="rotate(-0.0)">
				<text transform="matrix(1 0 0 1 16.3326 -81.9281)" class="st3 st1 st2">C</text>
			</g>
		</g>
	</g>
</g>
<g id="ID000056">
	<g>
		<g transform="translate(251.854,284.033)">
			<g transform="rotate(-0.0)">
				<text transform="matrix(1 0 0 1 18.2026 -80.5742)" class="st3 st1 st2">G</text>
			</g>
		</g>
	</g>
</g>
<g id="ID000057">
	<g>
		<g transform="translate(263.390,284.033)">
			<g transform="rotate(-0.0)">
				<text transform="matrix(1 0 0 1 20.0084 -80.5742)" class="st3 st1 st2">G</text>
			</g>
		</g>
	</g>
</g>
<g id="ID000058">
	<g>
		<g transform="translate(274.926,284.033)">
			<g transform="rotate(-0.0)">
				<text transform="matrix(1 0 0 1 22.2 -80.5742)" class="st3 st1 st2">C</text>
			</g>
		</g>
	</g>
</g>
<g id="ID000059">
	<g>
		<g transform="translate(286.461,272.498)">
			<g transform="rotate(-0.0)">
				<text transform="matrix(1 0 0 1 23.6191 -82.3801)" class="st3 st1 st2">G</text>
			</g>
		</g>
	</g>
</g>
<g id="ID000060">
	<line class="st7" x1="315.5" y1="175.3" x2="315.5" y2="166.4"/>
</g>
<g id="ID000061">
	<g transform="translate(286.461,249.042)">
		<g transform="rotate(-0.0)">
			<text transform="matrix(1 0 0 1 21.2978 -86.0506)" class="st1 st2">30</text>
		</g>
	</g>
</g>
<g id="ID000062">
	<g>
		<g transform="translate(289.345,312.873)">
			<g transform="rotate(-0.0)">
				<text transform="matrix(1 0 0 1 24.8396 -76.0617)" class="st3 st1 st2">A</text>
			</g>
		</g>
	</g>
</g>
<g id="ID000063">
	<g>
		<g transform="translate(274.926,307.105)">
			<g transform="rotate(-0.0)">
				<text transform="matrix(1 0 0 1 21.8133 -76.9637)" class="st3 st1 st2">G</text>
			</g>
		</g>
	</g>
</g>
<g id="ID000064">
	<g>
		<g transform="translate(263.390,307.105)">
			<g transform="rotate(-0.0)">
				<text transform="matrix(1 0 0 1 20.3942 -76.9637)" class="st3 st1 st2">U</text>
			</g>
		</g>
	</g>
</g>
<g id="ID000065">
	<g>
		<g transform="translate(251.854,307.105)">
			<g transform="rotate(-0.0)">
				<text transform="matrix(1 0 0 1 18.5884 -76.9637)" class="st3 st1 st2">C</text>
			</g>
		</g>
	</g>
</g>
<g id="ID000066">
	<line class="st7" x1="275.4" y1="232.9" x2="275.4" y2="241.9"/>
</g>
<g id="ID000067">
	<g transform="translate(251.854,330.907)">
		<g transform="rotate(-0.0)">
			<text transform="matrix(1 0 0 1 12.0229 -73.2383)" class="st1 st2">100</text>
		</g>
	</g>
</g>
<g id="ID000068">
	<line class="st5" x1="275.4" y1="202.8" x2="275.4" y2="218.8"/>
</g>
<g id="ID000069">
	<polygon class="st6" points="288.7,213.5 288.9,213.5 289.1,213.5 289.4,213.5 289.6,213.3 289.6,213.3 289.8,213.3 290,213.1 
		290.2,213.1 290.2,213.1 290.4,212.9 290.6,212.9 290.6,212.7 290.8,212.7 290.8,212.5 291,212.3 291,212.3 291.2,212.1 
		291.2,211.9 291.4,211.7 291.4,211.5 291.4,211.5 291.4,211.3 291.4,211.1 291.4,210.9 291.4,210.7 291.4,210.7 291.4,210.5 
		291.4,210.3 291.4,210.1 291.4,209.9 291.2,209.7 291.2,209.7 291.2,209.5 291,209.3 291,209.3 290.8,209.1 290.8,208.9 
		290.6,208.9 290.4,208.7 290.4,208.7 290.2,208.5 290,208.5 290,208.3 289.8,208.3 289.6,208.3 289.4,208.3 289.1,208.3 
		289.1,208.1 288.9,208.1 288.7,208.1 288.5,208.1 288.3,208.3 288.1,208.3 288.1,208.3 287.9,208.3 287.7,208.3 287.5,208.5 
		287.3,208.5 287.3,208.7 287.1,208.7 286.9,208.9 286.9,208.9 286.7,209.1 286.7,209.3 286.5,209.3 286.5,209.5 286.3,209.7 
		286.3,209.7 286.3,209.9 286.3,210.1 286.1,210.3 286.1,210.5 286.1,210.7 286.1,210.7 286.1,210.9 286.1,211.1 286.1,211.3 
		286.1,211.5 286.3,211.5 286.3,211.7 286.3,211.9 286.5,212.1 286.5,212.3 286.7,212.3 286.7,212.5 286.9,212.7 286.9,212.7 
		287.1,212.9 287.1,212.9 287.3,213.1 287.5,213.1 287.7,213.1 287.7,213.3 287.9,213.3 288.1,213.3 288.3,213.5 288.5,213.5 
		288.5,213.5 	"/>
</g>
<g id="ID000070">
	<line class="st5" x1="302.1" y1="202.8" x2="302.1" y2="218.8"/>
</g>
<g id="ID000072">
	<g>
		<g transform="translate(300.881,272.498)">
			<g transform="rotate(-0.0)">
				<text transform="matrix(1 0 0 1 26.6454 -82.3801)" class="st3 st1 st2">A</text>
			</g>
		</g>
	</g>
</g>
<g id="ID000073">
	<g>
		<g transform="translate(312.417,281.149)">
			<g transform="rotate(-0.0)">
				<text transform="matrix(1 0 0 1 28.4502 -81.0272)" class="st3 st1 st2">A</text>
			</g>
		</g>
	</g>
</g>
<g id="ID000074">
	<g>
		<g transform="translate(323.953,281.149)">
			<g transform="rotate(-0.0)">
				<text transform="matrix(1 0 0 1 29.8722 -81.0272)" class="st3 st1 st2">C</text>
			</g>
		</g>
	</g>
</g>
<g id="ID000075">
	<g>
		<g transform="translate(335.488,281.149)">
			<g transform="rotate(-0.0)">
				<text transform="matrix(1 0 0 1 31.678 -81.0272)" class="st3 st1 st2">U</text>
			</g>
		</g>
	</g>
</g>
<g id="ID000076">
	<g>
		<g transform="translate(347.024,281.149)">
			<g transform="rotate(-0.0)">
				<text transform="matrix(1 0 0 1 33.8666 -81.0272)" class="st3 st1 st2">A</text>
			</g>
		</g>
	</g>
</g>
<g id="ID000077">
	<g transform="translate(355.676,269.614)">
		<g transform="rotate(-0.0)">
			<text transform="matrix(1 0 0 1 34.8377 -82.8301)" class="st0 st1 st2">C</text>
		</g>
	</g>
</g>
<g id="ID000078">
	<g transform="translate(364.328,258.078)">
		<g transform="rotate(-0.0)">
			<text transform="matrix(1 0 0 1 36.1906 -84.6354)" class="st0 st1 st2">C</text>
		</g>
	</g>
</g>
<g id="ID000079">
	<g transform="translate(372.980,246.542)">
		<g transform="rotate(-0.0)">
			<text transform="matrix(1 0 0 1 37.5454 -86.4422)" class="st0 st1 st2">U</text>
		</g>
	</g>
</g>
<g id="ID000080">
	<g transform="translate(387.399,237.890)">
		<g transform="rotate(-0.0)">
			<text transform="matrix(1 0 0 1 40.185 -87.796)" class="st0 st1 st2">A</text>
		</g>
	</g>
</g>
<g id="ID000081">
	<g transform="translate(398.935,232.123)">
		<g transform="rotate(-0.0)">
			<text transform="matrix(1 0 0 1 41.9898 -88.698)" class="st0 st1 st2">A</text>
		</g>
	</g>
</g>
<g id="ID000082">
	<line class="st7" x1="445.6" y1="128.5" x2="445.6" y2="119.6"/>
</g>
<g id="ID000083">
	<g transform="translate(398.935,208.667)">
		<g transform="rotate(-0.0)">
			<text transform="matrix(1 0 0 1 38.9009 -92.3689)" class="st1 st2">40</text>
		</g>
	</g>
</g>
<g id="ID000084">
	<g transform="translate(413.355,229.239)">
		<g transform="rotate(-0.0)">
			<text transform="matrix(1 0 0 1 43.8633 -89.1499)" class="st0 st1 st2">C</text>
		</g>
	</g>
</g>
<g id="ID000085">
	<g transform="translate(419.123,347.480)">
		<g transform="rotate(-0.0)">
			<text transform="matrix(1 0 0 1 44.7681 -70.6453)" class="st0 st1 st2">U</text>
		</g>
	</g>
</g>
<g id="ID000086">
	<g transform="translate(404.703,347.480)">
		<g transform="rotate(-0.0)">
			<text transform="matrix(1 0 0 1 42.5104 -70.6453)" class="st0 st1 st2">C</text>
		</g>
	</g>
</g>
<g id="ID000087">
	<g transform="translate(390.283,344.596)">
		<g transform="rotate(-0.0)">
			<text transform="matrix(1 0 0 1 40.2541 -71.0953)" class="st0 st1 st2">C</text>
		</g>
	</g>
</g>
<g id="ID000088">
	<g transform="translate(375.864,335.944)">
		<g transform="rotate(-0.0)">
			<text transform="matrix(1 0 0 1 37.9973 -72.4511)" class="st0 st1 st2">C</text>
		</g>
	</g>
</g>
<g id="ID000089">
	<g transform="translate(364.328,324.408)">
		<g transform="rotate(-0.0)">
			<text transform="matrix(1 0 0 1 36.1906 -74.2549)" class="st0 st1 st2">U</text>
		</g>
	</g>
</g>
<g id="ID000090">
	<line class="st7" x1="405.5" y1="253" x2="405.5" y2="261.9"/>
</g>
<g id="ID000091">
	<g transform="translate(364.328,348.211)">
		<g transform="rotate(-0.0)">
			<text transform="matrix(1 0 0 1 33.4845 -70.5306)" class="st1 st2">90</text>
		</g>
	</g>
</g>
<g id="ID000092">
	<g transform="translate(361.444,309.989)">
		<g transform="rotate(-0.0)">
			<text transform="matrix(1 0 0 1 36.1234 -76.5117)" class="st0 st1 st2">A</text>
		</g>
	</g>
</g>
<g id="ID000093">
	<g>
		<g transform="translate(347.024,304.221)">
			<g transform="rotate(-0.0)">
				<text transform="matrix(1 0 0 1 33.4828 -77.4146)" class="st3 st1 st2">U</text>
			</g>
		</g>
	</g>
</g>
<g id="ID000094">
	<g>
		<g transform="translate(335.488,304.221)">
			<g transform="rotate(-0.0)">
				<text transform="matrix(1 0 0 1 32.0618 -77.4146)" class="st3 st1 st2">A</text>
			</g>
		</g>
	</g>
</g>
<g id="ID000095">
	<g>
		<g transform="translate(323.953,304.221)">
			<g transform="rotate(-0.0)">
				<text transform="matrix(1 0 0 1 29.4865 -77.4146)" class="st3 st1 st2">G</text>
			</g>
		</g>
	</g>
</g>
<g id="ID000096">
	<g>
		<g transform="translate(312.417,304.221)">
			<g transform="rotate(-0.0)">
				<text transform="matrix(1 0 0 1 28.0664 -77.4146)" class="st3 st1 st2">U</text>
			</g>
		</g>
	</g>
</g>
<g id="ID000097">
	<g>
		<g transform="translate(300.881,312.873)">
			<g transform="rotate(-0.0)">
				<text transform="matrix(1 0 0 1 25.8758 -76.0617)" class="st3 st1 st2">G</text>
			</g>
		</g>
	</g>
</g>
<g id="ID000098">
	<line class="st5" x1="345.4" y1="199.6" x2="345.4" y2="215.5"/>
</g>
<g id="ID000099">
	<line class="st5" x1="358.8" y1="199.6" x2="358.8" y2="215.5"/>
</g>
<g id="ID000100">
	<line class="st5" x1="372.1" y1="199.6" x2="372.1" y2="215.5"/>
</g>
<g id="ID000101">
	<line class="st5" x1="385.5" y1="199.6" x2="385.5" y2="215.5"/>
</g>
<g id="ID000103">
	<g transform="translate(427.774,226.355)">
		<g transform="rotate(-0.0)">
			<text transform="matrix(1 0 0 1 46.122 -89.6008)" class="st0 st1 st2">C</text>
		</g>
	</g>
</g>
<g id="ID000104">
	<g transform="translate(439.310,232.123)">
		<g transform="rotate(-0.0)">
			<text transform="matrix(1 0 0 1 47.9268 -88.698)" class="st0 st1 st2">C</text>
		</g>
	</g>
</g>
<g id="ID000105">
	<g transform="translate(450.846,240.774)">
		<g transform="rotate(-0.0)">
			<text transform="matrix(1 0 0 1 49.7316 -87.345)" class="st0 st1 st2">C</text>
		</g>
	</g>
</g>
<g id="ID000106">
	<g transform="translate(462.382,249.426)">
		<g transform="rotate(-0.0)">
			<text transform="matrix(1 0 0 1 51.5374 -85.9892)" class="st0 st1 st2">C</text>
		</g>
	</g>
</g>
<g id="ID000107">
	<g transform="translate(471.033,260.962)">
		<g transform="rotate(-0.0)">
			<text transform="matrix(1 0 0 1 52.8913 -84.1854)" class="st0 st1 st2">C</text>
		</g>
	</g>
</g>
<g id="ID000108">
	<g transform="translate(482.569,269.614)">
		<g transform="rotate(-0.0)">
			<text transform="matrix(1 0 0 1 55.0789 -82.8301)" class="st10 st1 st2">A</text>
		</g>
	</g>
</g>
<g id="ID000109">
	<g transform="translate(491.221,284.033)">
		<g transform="rotate(-0.0)">
			<text transform="matrix(1 0 0 1 56.051 -80.5742)" class="st10 st1 st2">C</text>
		</g>
	</g>
</g>
<g id="ID000110">
	<g transform="translate(502.757,284.033)">
		<g transform="rotate(-0.0)">
			<text transform="matrix(1 0 0 1 58.2386 -80.5742)" class="st10 st1 st2">A</text>
		</g>
	</g>
</g>
<g id="ID000111">
	<g transform="translate(514.292,284.033)">
		<g transform="rotate(-0.0)">
			<text transform="matrix(1 0 0 1 60.0454 -80.5742)" class="st10 st1 st2">A</text>
		</g>
	</g>
</g>
<g id="ID000112">
	<line class="st7" x1="579" y1="188.6" x2="579" y2="179.7"/>
</g>
<g id="ID000113">
	<g transform="translate(514.292,260.577)">
		<g transform="rotate(-0.0)">
			<text transform="matrix(1 0 0 1 56.9536 -84.2437)" class="st1 st2">50</text>
		</g>
	</g>
</g>
<g id="ID000114">
	<g transform="translate(525.828,284.033)">
		<g transform="rotate(-0.0)">
			<text transform="matrix(1 0 0 1 61.4674 -80.5742)" class="st10 st1 st2">U</text>
		</g>
	</g>
</g>
<g id="ID000115">
	<g transform="translate(537.364,284.033)">
		<g transform="rotate(-0.0)">
			<text transform="matrix(1 0 0 1 63.2742 -80.5742)" class="st10 st1 st2">U</text>
		</g>
	</g>
</g>
<g id="ID000116">
	<g transform="translate(548.900,284.033)">
		<g transform="rotate(-0.0)">
			<text transform="matrix(1 0 0 1 64.6913 -80.5742)" class="st10 st1 st2">G</text>
		</g>
	</g>
</g>
<g id="ID000117">
	<g transform="translate(560.435,284.033)">
		<g transform="rotate(-0.0)">
			<text transform="matrix(1 0 0 1 66.8839 -80.5742)" class="st10 st1 st2">U</text>
		</g>
	</g>
</g>
<g id="ID000118">
	<g transform="translate(571.971,278.266)">
		<g transform="rotate(-0.0)">
			<text transform="matrix(1 0 0 1 60.3067 -89.17)" class="st10 st1 st2">A</text>
		</g>
	</g>
</g>
<g id="ID000119">
	<g transform="translate(560.435,307.105)">
		<g transform="rotate(-0.0)">
			<text transform="matrix(1 0 0 1 66.4981 -76.9637)" class="st10 st1 st2">G</text>
		</g>
	</g>
</g>
<g id="ID000120">
	<g transform="translate(548.900,307.105)">
		<g transform="rotate(-0.0)">
			<text transform="matrix(1 0 0 1 65.079 -76.9637)" class="st10 st1 st2">C</text>
		</g>
	</g>
</g>
<g id="ID000121">
	<g transform="translate(537.364,307.105)">
		<g transform="rotate(-0.0)">
			<text transform="matrix(1 0 0 1 63.656 -76.9637)" class="st10 st1 st2">A</text>
		</g>
	</g>
</g>
<g id="ID000122">
	<g transform="translate(525.828,307.105)">
		<g transform="rotate(-0.0)">
			<text transform="matrix(1 0 0 1 61.0817 -76.9637)" class="st10 st1 st2">G</text>
		</g>
	</g>
</g>
<g id="ID000123">
	<g transform="translate(514.292,307.105)">
		<g transform="rotate(-0.0)">
			<text transform="matrix(1 0 0 1 59.6616 -76.9637)" class="st10 st1 st2">U</text>
		</g>
	</g>
</g>
<g id="ID000124">
	<g transform="translate(502.757,307.105)">
		<g transform="rotate(-0.0)">
			<text transform="matrix(1 0 0 1 57.8558 -76.9637)" class="st10 st1 st2">U</text>
		</g>
	</g>
</g>
<g id="ID000125">
	<g transform="translate(491.221,307.105)">
		<g transform="rotate(-0.0)">
			<text transform="matrix(1 0 0 1 55.6652 -76.9637)" class="st10 st1 st2">G</text>
		</g>
	</g>
</g>
<g id="ID000126">
	<line class="st7" x1="552.3" y1="232.9" x2="552.3" y2="241.9"/>
</g>
<g id="ID000127">
	<g transform="translate(491.221,330.907)">
		<g transform="rotate(-0.0)">
			<text transform="matrix(1 0 0 1 53.3449 -73.2383)" class="st1 st2">80</text>
		</g>
	</g>
</g>
<g id="ID000128">
	<g transform="translate(479.685,318.641)">
		<g transform="rotate(-0.0)">
			<text transform="matrix(1 0 0 1 54.627 -75.1578)" class="st0 st1 st2">A</text>
		</g>
	</g>
</g>
<g id="ID000129">
	<g transform="translate(471.033,330.176)">
		<g transform="rotate(-0.0)">
			<text transform="matrix(1 0 0 1 53.2741 -73.353)" class="st0 st1 st2">A</text>
		</g>
	</g>
</g>
<g id="ID000130">
	<g transform="translate(462.382,338.828)">
		<g transform="rotate(-0.0)">
			<text transform="matrix(1 0 0 1 51.5374 -71.9991)" class="st0 st1 st2">U</text>
		</g>
	</g>
</g>
<g id="ID000131">
	<g transform="translate(447.962,344.596)">
		<g transform="rotate(-0.0)">
			<text transform="matrix(1 0 0 1 49.2797 -71.0953)" class="st0 st1 st2">U</text>
		</g>
	</g>
</g>
<g id="ID000132">
	<g transform="translate(433.542,347.480)">
		<g transform="rotate(-0.0)">
			<text transform="matrix(1 0 0 1 47.0249 -70.6453)" class="st0 st1 st2">C</text>
		</g>
	</g>
</g>
<g id="ID000133">
	<line class="st5" x1="552.3" y1="202.8" x2="552.3" y2="218.8"/>
</g>
<g id="ID000134">
	<line class="st5" x1="565.6" y1="202.8" x2="565.6" y2="218.8"/>
</g>
<g id="ID000135">
	<line class="st5" x1="579" y1="202.8" x2="579" y2="218.8"/>
</g>
<g id="ID000136">
	<polygon class="st6" points="592.3,213.5 592.5,213.5 592.7,213.5 592.7,213.5 592.9,213.3 593.1,213.3 593.3,213.3 593.5,213.1 
		593.5,213.1 593.7,213.1 593.9,212.9 593.9,212.9 594.1,212.7 594.4,212.7 594.4,212.5 594.6,212.3 594.6,212.3 594.8,212.1 
		594.8,211.9 594.8,211.7 594.8,211.5 595,211.5 595,211.3 595,211.1 595,210.9 595,210.7 595,210.7 595,210.5 595,210.3 595,210.1 
		594.8,209.9 594.8,209.7 594.8,209.7 594.6,209.5 594.6,209.3 594.4,209.3 594.4,209.1 594.1,208.9 594.1,208.9 593.9,208.7 
		593.7,208.7 593.7,208.5 593.5,208.5 593.3,208.3 593.1,208.3 593.1,208.3 592.9,208.3 592.7,208.3 592.5,208.1 592.3,208.1 
		592.1,208.1 592.1,208.1 591.9,208.3 591.7,208.3 591.5,208.3 591.3,208.3 591.3,208.3 591.1,208.5 590.9,208.5 590.7,208.7 
		590.7,208.7 590.5,208.9 590.5,208.9 590.3,209.1 590.1,209.3 590.1,209.3 589.9,209.5 589.9,209.7 589.9,209.7 589.7,209.9 
		589.7,210.1 589.7,210.3 589.7,210.5 589.7,210.7 589.7,210.7 589.7,210.9 589.7,211.1 589.7,211.3 589.7,211.5 589.7,211.5 
		589.9,211.7 589.9,211.9 589.9,212.1 590.1,212.3 590.1,212.3 590.3,212.5 590.3,212.7 590.5,212.7 590.5,212.9 590.7,212.9 
		590.9,213.1 590.9,213.1 591.1,213.1 591.3,213.3 591.5,213.3 591.7,213.3 591.7,213.5 591.9,213.5 592.1,213.5 	"/>
</g>
<g id="ID000137">
	<line class="st5" x1="605.7" y1="202.8" x2="605.7" y2="218.8"/>
</g>
<g id="ID000138">
	<line class="st5" x1="619" y1="202.8" x2="619" y2="218.8"/>
</g>
<g id="ID000139">
	<polygon class="st6" points="632.4,213.5 632.4,213.5 632.6,213.5 632.8,213.5 633,213.3 633.2,213.3 633.4,213.3 633.4,213.1 
		633.6,213.1 633.8,213.1 633.8,212.9 634,212.9 634.2,212.7 634.2,212.7 634.4,212.5 634.4,212.3 634.6,212.3 634.6,212.1 
		634.8,211.9 634.8,211.7 634.8,211.5 634.8,211.5 635,211.3 635,211.1 635,210.9 635,210.7 635,210.7 635,210.5 635,210.3 
		634.8,210.1 634.8,209.9 634.8,209.7 634.6,209.7 634.6,209.5 634.6,209.3 634.4,209.3 634.4,209.1 634.2,208.9 634,208.9 
		634,208.7 633.8,208.7 633.6,208.5 633.6,208.5 633.4,208.3 633.2,208.3 633,208.3 633,208.3 632.8,208.3 632.6,208.1 632.4,208.1 
		632.2,208.1 632,208.1 632,208.3 631.8,208.3 631.6,208.3 631.4,208.3 631.2,208.3 631.2,208.5 631,208.5 630.8,208.7 630.8,208.7 
		630.6,208.9 630.4,208.9 630.4,209.1 630.2,209.3 630.2,209.3 630,209.5 630,209.7 629.8,209.7 629.8,209.9 629.8,210.1 
		629.8,210.3 629.8,210.5 629.8,210.7 629.6,210.7 629.6,210.9 629.8,211.1 629.8,211.3 629.8,211.5 629.8,211.5 629.8,211.7 
		630,211.9 630,212.1 630,212.3 630.2,212.3 630.2,212.5 630.4,212.7 630.6,212.7 630.6,212.9 630.8,212.9 631,213.1 631,213.1 
		631.2,213.1 631.4,213.3 631.6,213.3 631.6,213.3 631.8,213.5 632,213.5 632.2,213.5 	"/>
</g>
<g id="ID000143">
	<g transform="translate(583.507,278.266)">
		<g transform="rotate(-0.0)">
			<text transform="matrix(1 0 0 1 60.5592 -88.148)" class="st10 st1 st2">U</text>
		</g>
	</g>
</g>
<g id="ID000144">
	<g transform="translate(586.391,289.801)">
		<g transform="rotate(-0.0)">
			<text transform="matrix(1 0 0 1 60.8224 -85.8782)" class="st10 st1 st2">U</text>
		</g>
	</g>
</g>
<g id="ID000145">
	<g transform="translate(597.927,289.801)">
		<g transform="rotate(-0.0)">
			<text transform="matrix(1 0 0 1 63.011 -85.8782)" class="st10 st1 st2">A</text>
		</g>
	</g>
</g>
<g id="ID000146">
	<g transform="translate(609.462,289.801)">
		<g transform="rotate(-0.0)">
			<text transform="matrix(1 0 0 1 64.433 -85.8782)" class="st10 st1 st2">U</text>
		</g>
	</g>
</g>
<g id="ID000147">
	<g transform="translate(620.998,289.801)">
		<g transform="rotate(-0.0)">
			<text transform="matrix(1 0 0 1 66.2388 -85.8782)" class="st10 st1 st2">C</text>
		</g>
	</g>
</g>
<g id="ID000148">
	<line class="st7" x1="692.3" y1="189.1" x2="692.3" y2="180.2"/>
</g>
<g id="ID000149">
	<g transform="translate(620.998,266.345)">
		<g transform="rotate(-0.0)">
			<text transform="matrix(1 0 0 1 63.5328 -89.5487)" class="st1 st2">60</text>
		</g>
	</g>
</g>
<g id="ID000150">
	<g transform="translate(635.418,284.033)">
		<g transform="rotate(-0.0)">
			<text transform="matrix(1 0 0 1 68.1118 -86.7811)" class="st10 st1 st2">G</text>
		</g>
	</g>
</g>
<g id="ID000151">
	<g transform="translate(649.837,284.033)">
		<g transform="rotate(-0.0)">
			<text transform="matrix(1 0 0 1 70.7524 -86.7811)" class="st10 st1 st2">C</text>
		</g>
	</g>
</g>
<g id="ID000152">
	<g transform="translate(664.257,286.917)">
		<g transform="rotate(-0.0)">
			<text transform="matrix(1 0 0 1 73.0091 -86.3301)" class="st10 st1 st2">C</text>
		</g>
	</g>
</g>
<g id="ID000153">
	<g transform="translate(670.025,298.453)">
		<g transform="rotate(-0.0)">
			<text transform="matrix(1 0 0 1 73.912 -84.5243)" class="st10 st1 st2">C</text>
		</g>
	</g>
</g>
<g id="ID000154">
	<g transform="translate(672.909,309.989)">
		<g transform="rotate(-0.0)">
			<text transform="matrix(1 0 0 1 73.9772 -82.7186)" class="st10 st1 st2">G</text>
		</g>
	</g>
</g>
<g id="ID000155">
	<g transform="translate(667.141,318.641)">
		<g transform="rotate(-0.0)">
			<text transform="matrix(1 0 0 1 73.462 -81.3647)" class="st10 st1 st2">C</text>
		</g>
	</g>
</g>
<g id="ID000156">
	<g transform="translate(658.489,327.292)">
		<g transform="rotate(-0.0)">
			<text transform="matrix(1 0 0 1 72.1072 -80.0118)" class="st10 st1 st2">C</text>
		</g>
	</g>
</g>
<g id="ID000157">
	<g transform="translate(644.070,330.176)">
		<g transform="rotate(-0.0)">
			<text transform="matrix(1 0 0 1 69.8504 -79.5598)" class="st10 st1 st2">U</text>
		</g>
	</g>
</g>
<g id="ID000158">
	<g transform="translate(629.650,324.408)">
		<g transform="rotate(-0.0)">
			<text transform="matrix(1 0 0 1 67.9764 -80.4618)" class="st10 st1 st2">A</text>
		</g>
	</g>
</g>
<g id="ID000159">
	<g transform="translate(620.998,312.873)">
		<g transform="rotate(-0.0)">
			<text transform="matrix(1 0 0 1 65.8531 -82.2685)" class="st10 st1 st2">G</text>
		</g>
	</g>
</g>
<g id="ID000160">
	<line class="st7" x1="692.3" y1="233.4" x2="692.3" y2="242.3"/>
</g>
<g id="ID000161">
	<g transform="translate(620.998,336.675)">
		<g transform="rotate(-0.0)">
			<text transform="matrix(1 0 0 1 63.5328 -78.5422)" class="st1 st2">70</text>
		</g>
	</g>
</g>
<g id="ID000162">
	<g transform="translate(609.462,312.873)">
		<g transform="rotate(-0.0)">
			<text transform="matrix(1 0 0 1 64.8168 -82.2685)" class="st10 st1 st2">A</text>
		</g>
	</g>
</g>
<g id="ID000163">
	<g transform="translate(597.927,312.873)">
		<g transform="rotate(-0.0)">
			<text transform="matrix(1 0 0 1 62.6301 -82.2685)" class="st10 st1 st2">U</text>
		</g>
	</g>
</g>
<g id="ID000164">
	<g transform="translate(586.391,312.873)">
		<g transform="rotate(-0.0)">
			<text transform="matrix(1 0 0 1 60.4366 -82.2685)" class="st10 st1 st2">G</text>
		</g>
	</g>
</g>
<g id="ID000165">
	<polygon class="st6" points="652.2,214 652.4,214 652.6,214 652.6,213.8 652.8,213.8 653,213.8 653.2,213.8 653.4,213.6 
		653.4,213.6 653.6,213.6 653.9,213.4 653.9,213.4 654.1,213.2 654.3,213 654.3,213 654.5,212.8 654.5,212.6 654.7,212.6 
		654.7,212.4 654.7,212.2 654.9,212 654.9,212 654.9,211.8 654.9,211.6 654.9,211.4 654.9,211.2 654.9,211 654.9,211 654.9,210.8 
		654.9,210.5 654.7,210.3 654.7,210.1 654.7,210.1 654.5,209.9 654.5,209.7 654.3,209.7 654.3,209.5 654.1,209.3 654.1,209.3 
		653.9,209.1 653.6,209.1 653.6,208.9 653.4,208.9 653.2,208.7 653,208.7 653,208.7 652.8,208.7 652.6,208.7 652.4,208.5 
		652.2,208.5 652.2,208.5 652,208.5 651.8,208.7 651.6,208.7 651.4,208.7 651.2,208.7 651.2,208.7 651,208.9 650.8,208.9 
		650.6,209.1 650.6,209.1 650.4,209.3 650.4,209.3 650.2,209.5 650,209.7 650,209.7 650,209.9 649.8,210.1 649.8,210.1 649.8,210.3 
		649.6,210.5 649.6,210.8 649.6,211 649.6,211 649.6,211.2 649.6,211.4 649.6,211.6 649.6,211.8 649.6,212 649.6,212 649.8,212.2 
		649.8,212.4 649.8,212.6 650,212.6 650,212.8 650.2,213 650.2,213 650.4,213.2 650.4,213.4 650.6,213.4 650.8,213.6 651,213.6 
		651,213.6 651.2,213.8 651.4,213.8 651.6,213.8 651.6,213.8 651.8,214 652,214 	"/>
</g>
<g id="ID000166">
	<line class="st5" x1="665.6" y1="203.3" x2="665.6" y2="219.3"/>
</g>
<g id="ID000167">
	<line class="st5" x1="678.9" y1="203.3" x2="678.9" y2="219.3"/>
</g>
<g id="ID000168">
	<line class="st5" x1="692.3" y1="203.3" x2="692.3" y2="219.3"/>
</g>
<text transform="matrix(1 0 0 1 301.4965 39.3858)" class="st1 st11">Aptamer #25-Aptamer</text>
<text transform="matrix(1 0 0 1 122.6713 280.2345)" class="st1 st12">5’</text>
<text transform="matrix(1 0 0 1 177.0736 253.3323)" class="st1 st12">3’</text>
</svg>
