<?xml version="1.0" encoding="utf-8"?>
<!-- Generator: Adobe Illustrator 25.2.0, SVG Export Plug-In . SVG Version: 6.00 Build 0)  -->
<svg version="1.1" id="图层_1" xmlns="http://www.w3.org/2000/svg" xmlns:xlink="http://www.w3.org/1999/xlink" x="0px" y="0px"
	 viewBox="0 0 800 400" style="enable-background:new 0 0 800 400;" xml:space="preserve">
<style type="text/css">
	.st0{fill:#FF7F0E;}
	.st1{font-family:'ArialMT';}
	.st2{font-size:23.5896px;}
	.st3{fill:#17BECF;}
	.st4{fill:none;stroke:#000000;stroke-width:0.1576;stroke-miterlimit:1.2611;}
	.st5{stroke:#000000;stroke-width:0.1576;stroke-miterlimit:1.2611;}
	.st6{fill:#2CA02C;}
	.st7{fill:#D62728;}
	.st8{font-size:24.2818px;}
	.st9{font-size:22px;}
</style>
<g id="ID000002">
	<g transform="translate(624.864,65.412)">
		<g transform="rotate(-0.0)">
			<text transform="matrix(1 0 0 1 -221.2234 -2.4125)" class="st0 st1 st2">G</text>
		</g>
	</g>
</g>
<g id="ID000003">
	<g transform="translate(624.864,108.260)">
		<g transform="rotate(-0.0)">
			<text transform="matrix(1 0 0 1 -221.2234 -21.7541)" class="st0 st1 st2">G</text>
		</g>
	</g>
</g>
<g id="ID000004">
	<g transform="translate(624.864,151.108)">
		<g transform="rotate(-0.0)">
			<text transform="matrix(1 0 0 1 -221.2234 -41.0958)" class="st0 st1 st2">G</text>
		</g>
	</g>
</g>
<g id="ID000005">
	<g transform="translate(624.864,193.956)">
		<g transform="rotate(-0.0)">
			<text transform="matrix(1 0 0 1 -220.5671 -60.4374)" class="st0 st1 st2">C</text>
		</g>
	</g>
</g>
<g id="ID000006">
	<g transform="translate(624.864,236.803)">
		<g transform="rotate(-0.0)">
			<text transform="matrix(1 0 0 1 -221.2234 -79.7781)" class="st0 st1 st2">G</text>
		</g>
	</g>
</g>
<g id="ID000007">
	<g transform="translate(624.864,279.651)">
		<g transform="rotate(-0.0)">
			<text transform="matrix(1 0 0 1 -219.9158 -99.1188)" class="st0 st1 st2">A</text>
		</g>
	</g>
</g>
<g id="ID000008">
	<g transform="translate(624.864,322.499)">
		<g transform="rotate(-0.0)">
			<text transform="matrix(1 0 0 1 -219.9158 -118.4599)" class="st0 st1 st2">A</text>
		</g>
	</g>
</g>
<g id="ID000009">
	<g transform="translate(624.864,365.347)">
		<g transform="rotate(-0.0)">
			<text transform="matrix(1 0 0 1 -220.5671 -137.8021)" class="st3 st1 st2">U</text>
		</g>
	</g>
</g>
<g id="ID000010">
	<g transform="translate(624.864,408.194)">
		<g transform="rotate(-0.0)">
			<text transform="matrix(1 0 0 1 -220.5671 -157.1452)" class="st3 st1 st2">U</text>
		</g>
	</g>
</g>
<g id="ID000011">
	<g transform="translate(539.168,408.194)">
		<g transform="rotate(-0.0)">
			<text transform="matrix(1 0 0 1 -182.5401 -157.1452)" class="st3 st1 st2">G</text>
		</g>
	</g>
</g>
<g id="ID000012">
	<line class="st4" x1="354.7" y1="229.3" x2="343.6" y2="218.4"/>
</g>
<g id="ID000013">
	<g transform="translate(498.771,337.804)">
		<g transform="rotate(-0.0)">
			<text transform="matrix(1 0 0 1 -181.3691 -125.3694)" class="st1 st2">50</text>
		</g>
	</g>
</g>
<g id="ID000014">
	<g transform="translate(539.168,365.347)">
		<g transform="rotate(-0.0)">
			<text transform="matrix(1 0 0 1 -181.8839 -137.8021)" class="st3 st1 st2">U</text>
		</g>
	</g>
</g>
<g id="ID000015">
	<g transform="translate(539.168,322.499)">
		<g transform="rotate(-0.0)">
			<text transform="matrix(1 0 0 1 -181.8839 -118.4599)" class="st0 st1 st2">U</text>
		</g>
	</g>
</g>
<g id="ID000016">
	<g transform="translate(539.168,279.651)">
		<g transform="rotate(-0.0)">
			<text transform="matrix(1 0 0 1 -181.8839 -99.1188)" class="st0 st1 st2">U</text>
		</g>
	</g>
</g>
<g id="ID000017">
	<g transform="translate(539.168,236.803)">
		<g transform="rotate(-0.0)">
			<text transform="matrix(1 0 0 1 -181.8839 -79.7781)" class="st0 st1 st2">C</text>
		</g>
	</g>
</g>
<g id="ID000018">
	<g transform="translate(539.168,193.956)">
		<g transform="rotate(-0.0)">
			<text transform="matrix(1 0 0 1 -182.5401 -60.4374)" class="st0 st1 st2">G</text>
		</g>
	</g>
</g>
<g id="ID000019">
	<g transform="translate(539.168,151.108)">
		<g transform="rotate(-0.0)">
			<text transform="matrix(1 0 0 1 -181.8839 -41.0958)" class="st0 st1 st2">U</text>
		</g>
	</g>
</g>
<g id="ID000020">
	<g transform="translate(539.168,108.260)">
		<g transform="rotate(-0.0)">
			<text transform="matrix(1 0 0 1 -181.8839 -21.7541)" class="st0 st1 st2">C</text>
		</g>
	</g>
</g>
<g id="ID000021">
	<g transform="translate(539.168,65.412)">
		<g transform="rotate(-0.0)">
			<text transform="matrix(1 0 0 1 -181.8839 -2.4125)" class="st0 st1 st2">C</text>
		</g>
	</g>
</g>
<g id="ID000022">
	<line class="st4" x1="403.5" y1="52.4" x2="375.2" y2="52.4"/>
</g>
<g id="ID000023">
	<line class="st4" x1="403.5" y1="75.9" x2="375.2" y2="75.9"/>
</g>
<g id="ID000024">
	<polygon class="st5" points="384.7,99.4 384.7,99.8 384.7,100 384.8,100.3 384.8,100.6 384.8,100.9 384.9,101.2 385,101.5 
		385.3,101.7 385.4,102 385.5,102.2 385.8,102.5 386,102.7 386.1,102.9 386.4,103.1 386.6,103.3 386.9,103.4 387.1,103.7 
		387.3,103.7 387.7,103.8 387.8,103.9 388.2,104 388.4,104 388.8,104.2 389,104.2 389.4,104.2 389.6,104.2 390,104.2 390.3,104 
		390.6,103.9 390.9,103.9 391.1,103.8 391.5,103.7 391.6,103.6 392,103.3 392.1,103.2 392.4,103.1 392.6,102.8 392.8,102.6 
		393,102.3 393.2,102.1 393.3,101.9 393.5,101.6 393.7,101.2 393.8,101.1 393.8,100.8 393.9,100.5 393.9,100.2 393.9,99.9 394,99.5 
		394,99.3 393.9,98.9 393.9,98.7 393.9,98.3 393.8,98.2 393.8,97.8 393.7,97.6 393.5,97.2 393.3,97 393.2,96.8 393,96.5 392.8,96.4 
		392.6,96 392.4,95.8 392.1,95.8 392,95.5 391.6,95.3 391.5,95.2 391.1,95.2 390.9,95.1 390.6,94.9 390.3,94.8 390,94.8 389.6,94.7 
		389.4,94.7 389,94.7 388.8,94.7 388.4,94.8 388.2,94.8 387.8,94.9 387.7,95.1 387.3,95.2 387.1,95.3 386.9,95.4 386.6,95.7 
		386.4,95.8 386.1,95.9 386,96.3 385.8,96.4 385.5,96.6 385.4,96.9 385.3,97.1 385,97.5 384.9,97.6 384.8,98 384.8,98.2 384.8,98.6 
		384.7,98.8 384.7,99.2 	"/>
</g>
<g id="ID000025">
	<line class="st4" x1="403.5" y1="123" x2="375.2" y2="123"/>
</g>
<g id="ID000026">
	<line class="st4" x1="403.5" y1="146.5" x2="375.2" y2="146.5"/>
</g>
<g id="ID000027">
	<line class="st4" x1="403.5" y1="170" x2="375.2" y2="170"/>
</g>
<g id="ID000028">
	<line class="st4" x1="403.5" y1="193.5" x2="375.2" y2="193.5"/>
</g>
<g id="ID000030">
	<g transform="translate(646.287,451.042)">
		<g transform="rotate(-0.0)">
			<text transform="matrix(1 0 0 1 -230.2382 -176.4854)" class="st3 st1 st2">C</text>
		</g>
	</g>
</g>
<g id="ID000031">
	<line class="st4" x1="435.7" y1="252.9" x2="446.7" y2="241.8"/>
</g>
<g id="ID000032">
	<g transform="translate(686.685,380.652)">
		<g transform="rotate(-0.0)">
			<text transform="matrix(1 0 0 1 -239.9545 -144.7116)" class="st1 st2">10</text>
		</g>
	</g>
</g>
<g id="ID000033">
	<g transform="translate(689.135,451.042)">
		<g transform="rotate(-0.0)">
			<text transform="matrix(1 0 0 1 -248.929 -176.4854)" class="st3 st1 st2">A</text>
		</g>
	</g>
</g>
<g id="ID000034">
	<g transform="translate(731.983,451.042)">
		<g transform="rotate(-0.0)">
			<text transform="matrix(1 0 0 1 -268.2701 -176.4854)" class="st6 st1 st2">A</text>
		</g>
	</g>
</g>
<g id="ID000035">
	<g transform="translate(774.831,451.042)">
		<g transform="rotate(-0.0)">
			<text transform="matrix(1 0 0 1 -288.2626 -176.4854)" class="st6 st1 st2">C</text>
		</g>
	</g>
</g>
<g id="ID000036">
	<g transform="translate(817.679,451.042)">
		<g transform="rotate(-0.0)">
			<text transform="matrix(1 0 0 1 -307.6038 -176.4854)" class="st6 st1 st2">U</text>
		</g>
	</g>
</g>
<g id="ID000037">
	<g transform="translate(860.526,451.042)">
		<g transform="rotate(-0.0)">
			<text transform="matrix(1 0 0 1 -327.6022 -176.4854)" class="st6 st1 st2">G</text>
		</g>
	</g>
</g>
<g id="ID000038">
	<g transform="translate(903.374,451.042)">
		<g transform="rotate(-0.0)">
			<text transform="matrix(1 0 0 1 -346.2881 -176.4854)" class="st6 st1 st2">C</text>
		</g>
	</g>
</g>
<g id="ID000039">
	<g transform="translate(946.222,451.042)">
		<g transform="rotate(-0.0)">
			<text transform="matrix(1 0 0 1 -365.6302 -176.4854)" class="st6 st1 st2">C</text>
		</g>
	</g>
</g>
<g id="ID000040">
	<g transform="translate(989.070,451.042)">
		<g transform="rotate(-0.0)">
			<text transform="matrix(1 0 0 1 -384.322 -176.4854)" class="st3 st1 st2">A</text>
		</g>
	</g>
</g>
<g id="ID000041">
	<g transform="translate(1031.917,451.042)">
		<g transform="rotate(-0.0)">
			<text transform="matrix(1 0 0 1 -404.3125 -176.4854)" class="st3 st1 st2">U</text>
		</g>
	</g>
</g>
<g id="ID000042">
	<g transform="translate(1053.341,493.890)">
		<g transform="rotate(-0.0)">
			<text transform="matrix(1 0 0 1 -413.9835 -195.8285)" class="st3 st1 st2">C</text>
		</g>
	</g>
</g>
<g id="ID000043">
	<line class="st4" x1="663.5" y1="287.5" x2="679.2" y2="287.5"/>
</g>
<g id="ID000044">
	<g transform="translate(1110.472,493.890)">
		<g transform="rotate(-0.0)">
			<text transform="matrix(1 0 0 1 -431.2543 -195.8285)" class="st1 st2">20</text>
		</g>
	</g>
</g>
<g id="ID000045">
	<g transform="translate(1031.917,536.738)">
		<g transform="rotate(-0.0)">
			<text transform="matrix(1 0 0 1 -404.3125 -215.1686)" class="st3 st1 st2">U</text>
		</g>
	</g>
</g>
<g id="ID000046">
	<g transform="translate(989.070,536.738)">
		<g transform="rotate(-0.0)">
			<text transform="matrix(1 0 0 1 -384.322 -215.1686)" class="st3 st1 st2">A</text>
		</g>
	</g>
</g>
<g id="ID000047">
	<g transform="translate(946.222,536.738)">
		<g transform="rotate(-0.0)">
			<text transform="matrix(1 0 0 1 -366.2855 -215.1686)" class="st6 st1 st2">G</text>
		</g>
	</g>
</g>
<g id="ID000048">
	<g transform="translate(903.374,536.738)">
		<g transform="rotate(-0.0)">
			<text transform="matrix(1 0 0 1 -346.9424 -215.1686)" class="st6 st1 st2">G</text>
		</g>
	</g>
</g>
<g id="ID000049">
	<g transform="translate(860.526,536.738)">
		<g transform="rotate(-0.0)">
			<text transform="matrix(1 0 0 1 -326.9469 -215.1686)" class="st6 st1 st2">C</text>
		</g>
	</g>
</g>
<g id="ID000050">
	<g transform="translate(817.679,536.738)">
		<g transform="rotate(-0.0)">
			<text transform="matrix(1 0 0 1 -306.9534 -215.1686)" class="st6 st1 st2">A</text>
		</g>
	</g>
</g>
<g id="ID000051">
	<g transform="translate(774.831,536.738)">
		<g transform="rotate(-0.0)">
			<text transform="matrix(1 0 0 1 -288.9199 -215.1686)" class="st6 st1 st2">G</text>
		</g>
	</g>
</g>
<g id="ID000052">
	<g transform="translate(731.983,536.738)">
		<g transform="rotate(-0.0)">
			<text transform="matrix(1 0 0 1 -268.9214 -215.1686)" class="st6 st1 st2">U</text>
		</g>
	</g>
</g>
<g id="ID000053">
	<g transform="translate(689.135,536.738)">
		<g transform="rotate(-0.0)">
			<text transform="matrix(1 0 0 1 -248.929 -215.1686)" class="st3 st1 st2">A</text>
		</g>
	</g>
</g>
<g id="ID000054">
	<g transform="translate(646.287,536.738)">
		<g transform="rotate(-0.0)">
			<text transform="matrix(1 0 0 1 -229.5868 -215.1686)" class="st3 st1 st2">A</text>
		</g>
	</g>
</g>
<g id="ID000055">
	<line class="st4" x1="435.7" y1="322.1" x2="446.7" y2="333.1"/>
</g>
<g id="ID000056">
	<g transform="translate(686.685,608.414)">
		<g transform="rotate(-0.0)">
			<text transform="matrix(1 0 0 1 -239.9545 -247.5244)" class="st1 st2">30</text>
		</g>
	</g>
</g>
<g id="ID000057">
	<g transform="translate(624.864,579.586)">
		<g transform="rotate(-0.0)">
			<text transform="matrix(1 0 0 1 -220.5671 -234.5118)" class="st3 st1 st2">C</text>
		</g>
	</g>
</g>
<g id="ID000058">
	<g transform="translate(614.152,622.433)">
		<g transform="rotate(-0.0)">
			<text transform="matrix(1 0 0 1 -215.7316 -253.8529)" class="st3 st1 st2">C</text>
		</g>
	</g>
</g>
<g id="ID000059">
	<line class="st4" x1="471.6" y1="273.4" x2="471.6" y2="301.6"/>
</g>
<g id="ID000060">
	<line class="st4" x1="495.2" y1="273.4" x2="495.2" y2="301.6"/>
</g>
<g id="ID000061">
	<line class="st4" x1="518.6" y1="273.4" x2="518.6" y2="301.6"/>
</g>
<g id="ID000062">
	<line class="st4" x1="542.1" y1="273.4" x2="542.1" y2="301.6"/>
</g>
<g id="ID000063">
	<line class="st4" x1="565.6" y1="273.4" x2="565.6" y2="301.6"/>
</g>
<g id="ID000064">
	<line class="st4" x1="589.1" y1="273.4" x2="589.1" y2="301.6"/>
</g>
<g id="ID000066">
	<g transform="translate(571.304,622.433)">
		<g transform="rotate(-0.0)">
			<text transform="matrix(1 0 0 1 -195.7386 -253.8529)" class="st3 st1 st2">A</text>
		</g>
	</g>
</g>
<g id="ID000067">
	<g transform="translate(549.880,579.586)">
		<g transform="rotate(-0.0)">
			<text transform="matrix(1 0 0 1 -187.3756 -234.5118)" class="st3 st1 st2">G</text>
		</g>
	</g>
</g>
<g id="ID000068">
	<g transform="translate(528.456,536.738)">
		<g transform="rotate(-0.0)">
			<text transform="matrix(1 0 0 1 -177.706 -215.1686)" class="st3 st1 st2">G</text>
		</g>
	</g>
</g>
<g id="ID000069">
	<g transform="translate(496.320,536.738)">
		<g transform="rotate(-0.0)">
			<text transform="matrix(1 0 0 1 -161.8918 -215.1686)" class="st3 st1 st2">A</text>
		</g>
	</g>
</g>
<g id="ID000070">
	<g transform="translate(453.472,536.738)">
		<g transform="rotate(-0.0)">
			<text transform="matrix(1 0 0 1 -143.8563 -215.1686)" class="st7 st1 st2">G</text>
		</g>
	</g>
</g>
<g id="ID000071">
	<g transform="translate(410.625,536.738)">
		<g transform="rotate(-0.0)">
			<text transform="matrix(1 0 0 1 -123.8579 -215.1686)" class="st7 st1 st2">U</text>
		</g>
	</g>
</g>
<g id="ID000072">
	<g transform="translate(367.777,536.738)">
		<g transform="rotate(-0.0)">
			<text transform="matrix(1 0 0 1 -104.5172 -215.1686)" class="st7 st1 st2">U</text>
		</g>
	</g>
</g>
<g id="ID000073">
	<g transform="translate(324.929,536.738)">
		<g transform="rotate(-0.0)">
			<text transform="matrix(1 0 0 1 -84.5247 -215.1686)" class="st3 st1 st2">A</text>
		</g>
	</g>
</g>
<g id="ID000074">
	<line class="st4" x1="248.2" y1="326.6" x2="248.2" y2="342.2"/>
</g>
<g id="ID000075">
	<g transform="translate(324.929,625.147)">
		<g transform="rotate(-0.0)">
			<text transform="matrix(1 0 0 1 -89.7766 -255.0776)" class="st1 st2">40</text>
		</g>
	</g>
</g>
<g id="ID000076">
	<g transform="translate(282.081,536.738)">
		<g transform="rotate(-0.0)">
			<text transform="matrix(1 0 0 1 -66.4911 -215.1686)" class="st3 st1 st2">G</text>
		</g>
	</g>
</g>
<g id="ID000077">
	<g transform="translate(260.657,493.890)">
		<g transform="rotate(-0.0)">
			<text transform="matrix(1 0 0 1 -56.1638 -195.8285)" class="st3 st1 st2">U</text>
		</g>
	</g>
</g>
<g id="ID000078">
	<g transform="translate(282.081,451.042)">
		<g transform="rotate(-0.0)">
			<text transform="matrix(1 0 0 1 -65.1826 -176.4854)" class="st3 st1 st2">A</text>
		</g>
	</g>
</g>
<g id="ID000079">
	<g transform="translate(324.929,451.042)">
		<g transform="rotate(-0.0)">
			<text transform="matrix(1 0 0 1 -85.8328 -176.4854)" class="st3 st1 st2">G</text>
		</g>
	</g>
</g>
<g id="ID000080">
	<g transform="translate(367.777,451.042)">
		<g transform="rotate(-0.0)">
			<text transform="matrix(1 0 0 1 -105.174 -176.4854)" class="st7 st1 st2">G</text>
		</g>
	</g>
</g>
<g id="ID000081">
	<g transform="translate(410.625,451.042)">
		<g transform="rotate(-0.0)">
			<text transform="matrix(1 0 0 1 -123.208 -176.4854)" class="st7 st1 st2">A</text>
		</g>
	</g>
</g>
<g id="ID000082">
	<g transform="translate(453.472,451.042)">
		<g transform="rotate(-0.0)">
			<text transform="matrix(1 0 0 1 -143.2005 -176.4854)" class="st7 st1 st2">C</text>
		</g>
	</g>
</g>
<g id="ID000083">
	<g transform="translate(496.320,451.042)">
		<g transform="rotate(-0.0)">
			<text transform="matrix(1 0 0 1 -161.8918 -176.4854)" class="st3 st1 st2">A</text>
		</g>
	</g>
</g>
<g id="ID000084">
	<g transform="translate(539.168,451.042)">
		<g transform="rotate(-0.0)">
			<text transform="matrix(1 0 0 1 -181.233 -176.4854)" class="st3 st1 st2">A</text>
		</g>
	</g>
</g>
<g id="ID000085">
	<line class="st4" x1="318.9" y1="301.6" x2="318.9" y2="273.4"/>
</g>
<g id="ID000086">
	<line class="st4" x1="295.3" y1="301.6" x2="295.3" y2="273.4"/>
</g>
<g id="ID000087">
	<polygon class="st5" points="271.8,282.8 271.5,282.8 271.2,282.9 270.9,282.9 270.5,283 270.3,283 269.9,283.1 269.8,283.2 
		269.5,283.4 269.2,283.6 269,283.6 268.8,283.8 268.5,284.1 268.2,284.2 268.1,284.6 268,284.8 267.8,284.9 267.6,285.3 
		267.5,285.5 267.4,285.8 267.3,286 267.1,286.4 267.1,286.6 267,287 267,287.2 267,287.6 267,287.9 267.1,288.1 267.1,288.5 
		267.3,288.7 267.4,289.1 267.5,289.3 267.6,289.6 267.6,289.8 267.9,290.2 268.1,290.3 268.2,290.5 268.4,290.8 268.7,290.9 
		268.8,291.1 269.1,291.4 269.5,291.5 269.6,291.6 269.9,291.7 270.2,292 270.4,292 270.7,292.1 271,292.1 271.3,292.1 271.6,292.1 
		271.9,292.1 272.2,292.1 272.5,292.1 272.9,292.1 273.1,292 273.3,292 273.6,291.7 273.9,291.6 274.2,291.5 274.4,291.4 
		274.7,291.1 274.9,290.9 275.2,290.8 275.4,290.5 275.5,290.3 275.6,290.2 275.9,289.8 276,289.6 276,289.3 276.3,289.1 
		276.3,288.7 276.4,288.5 276.5,288.1 276.5,287.9 276.5,287.6 276.5,287.2 276.5,287 276.4,286.6 276.4,286.4 276.3,286 
		276.1,285.8 276,285.5 276,285.3 275.8,284.9 275.5,284.8 275.4,284.6 275.3,284.2 275,284.1 274.8,283.8 274.6,283.6 274.3,283.6 
		274.1,283.4 273.8,283.2 273.6,283.1 273.2,283 273,283 272.6,282.9 272.4,282.9 272.1,282.8 	"/>
</g>
<text transform="matrix(1 0 0 1 404.7734 32.8369)" class="st1 st8">5’</text>
<text transform="matrix(1 0 0 1 357.7603 32.8369)" class="st1 st8">3’</text>
<text transform="matrix(1 0 0 1 18.1445 40)" class="st1 st9">GluR2 AMPA receptors_AN58 aptamer</text>
</svg>
