<?xml version="1.0" encoding="utf-8"?>
<!-- Generator: Adobe Illustrator 27.0.0, SVG Export Plug-In . SVG Version: 6.00 Build 0)  -->
<svg version="1.1" id="图层_1" xmlns="http://www.w3.org/2000/svg" xmlns:xlink="http://www.w3.org/1999/xlink" x="0px" y="0px"
	 viewBox="0 0 800 400" style="enable-background:new 0 0 800 400;" xml:space="preserve">
<style type="text/css">
	.st0{fill:#B83332;}
	.st1{font-family:'ArialMT';}
	.st2{font-size:13.5358px;}
	.st3{fill:#084595;}
	.st4{fill:#18988C;}
	.st5{fill:#583A2B;}
	.st6{fill:#CF3E7D;}
	.st7{font-size:12.7524px;}
	.st8{fill:none;stroke:#000000;stroke-miterlimit:10;}
	.st9{font-size:14.5741px;}
	.st10{font-size:16px;}
	.st11{stroke:#000000;stroke-miterlimit:10;}
</style>
<g id="ID000002">
	<text transform="matrix(1 0 0 1 424.876 345.2646)" class="st0 st1 st2">U</text>
</g>
<g id="ID000002-2">
	<text transform="matrix(1 0 0 1 444.543 336.1836)" class="st0 st1 st2">U</text>
</g>
<g id="ID000002-3">
	<text transform="matrix(1 0 0 1 454.8535 326.8369)" class="st0 st1 st2">U</text>
</g>
<g id="ID000002-4">
	<text transform="matrix(1 0 0 1 570.8262 294.2734)" class="st3 st1 st2">U</text>
</g>
<g id="ID000002-5">
	<text transform="matrix(1 0 0 1 559.0576 284.8545)" class="st3 st1 st2">U</text>
</g>
<g id="ID000002-6">
	<text transform="matrix(1 0 0 1 323.6763 141.855)" class="st4 st1 st2">U</text>
</g>
<g id="ID000002-7">
	<text transform="matrix(1 0 0 1 253.6748 184.8672)" class="st5 st1 st2">U</text>
</g>
<g id="ID000005">
	<text transform="matrix(1 0 0 1 570.8262 306.1602)" class="st3 st1 st2">C</text>
</g>
<g id="ID000008">
	<text transform="matrix(1 0 0 1 415.8574 352.3428)" class="st0 st1 st2">C</text>
</g>
<g id="ID000008-2">
	<text transform="matrix(1 0 0 1 505.6621 311.9258)" class="st3 st1 st2">C</text>
</g>
<g id="ID000008-3">
	<text transform="matrix(1 0 0 1 519.3887 311.9258)" class="st3 st1 st2">C</text>
</g>
<g id="ID000008-4">
	<text transform="matrix(1 0 0 1 426.7246 265.6982)" class="st6 st1 st2">C</text>
</g>
<g id="ID000008-5">
	<text transform="matrix(1 0 0 1 339.3438 115.4668)" class="st4 st1 st2">C</text>
</g>
<g id="ID000008-6">
	<text transform="matrix(1 0 0 1 339.3438 104.1714)" class="st4 st1 st2">C</text>
</g>
<g id="ID000008-7">
	<text transform="matrix(1 0 0 1 425.6855 303.71)" class="st6 st1 st2">C</text>
</g>
<g id="ID000008-8">
	<text transform="matrix(1 0 0 1 417.6436 316.0254)" class="st0 st1 st2">C</text>
</g>
<g id="ID000009">
	<text transform="matrix(1 0 0 1 436.0977 344.3262)" class="st0 st1 st2">A</text>
</g>
<g id="ID000011">
	<text transform="matrix(1 0 0 1 457.6211 289.2637)" class="st3 st1 st2">U</text>
</g>
<g id="ID000011-2">
	<text transform="matrix(1 0 0 1 435.8242 273.5957)" class="st6 st1 st2">U</text>
</g>
<g id="ID000011-3">
	<text transform="matrix(1 0 0 1 402.0312 241.5791)" class="st6 st1 st2">U</text>
</g>
<g id="ID000011-4">
	<text transform="matrix(1 0 0 1 393.8691 233.9268)" class="st6 st1 st2">U</text>
</g>
<g id="ID000011-5">
	<text transform="matrix(1 0 0 1 385.79 225.4648)" class="st6 st1 st2">U</text>
</g>
<g id="ID000011-6">
	<text transform="matrix(1 0 0 1 361.8701 199.8877)" class="st6 st1 st2">U</text>
</g>
<g id="ID000011-7">
	<text transform="matrix(1 0 0 1 339.3438 129.6128)" class="st4 st1 st2">U</text>
</g>
<g id="ID000011-8">
	<text transform="matrix(1 0 0 1 316.1616 90.855)" class="st4 st1 st2">U</text>
</g>
<g id="ID000011-9">
	<text transform="matrix(1 0 0 1 285.2646 190.3965)" class="st5 st1 st2">U</text>
</g>
<g id="ID000011-10">
	<text transform="matrix(1 0 0 1 242.5161 193.8027)" class="st5 st1 st2">U</text>
</g>
<g id="ID000011-11">
	<text transform="matrix(1 0 0 1 333.5688 223.8711)" class="st6 st1 st2">U</text>
</g>
<g id="ID000011-12">
	<text transform="matrix(1 0 0 1 318.7397 209.0508)" class="st5 st1 st2">U</text>
</g>
<g id="ID000011-13">
	<text transform="matrix(1 0 0 1 361.4507 233.9268)" class="st6 st1 st2">U</text>
</g>
<g id="ID000011-14">
	<text transform="matrix(1 0 0 1 296.7051 209.0508)" class="st5 st1 st2">U</text>
</g>
<g id="ID000011-15">
	<text transform="matrix(1 0 0 1 374.0303 359.6572)" class="st0 st1 st2">U</text>
</g>
<g id="ID000013">
	<text transform="matrix(1 0 0 1 297.4795 154.5347)" class="st1 st7">40</text>
</g>
<g id="ID000013-2">
	<text transform="matrix(1 0 0 1 372.3545 73.1924)" class="st1 st7">50</text>
</g>
<g id="ID000013-3">
	<text transform="matrix(1 0 0 1 377.6284 174.1826)" class="st1 st7">60</text>
</g>
<g id="ID000013-4">
	<text transform="matrix(1 0 0 1 451.9932 256.3896)" class="st1 st7">60</text>
</g>
<g id="ID000013-5">
	<text transform="matrix(1 0 0 1 556.6719 264.2324)" class="st1 st7">70</text>
</g>
<g id="ID000013-6">
	<text transform="matrix(1 0 0 1 469.7178 332.8584)" class="st1 st7">80</text>
</g>
<g id="ID000013-7">
	<text transform="matrix(1 0 0 1 306.5063 239.5938)" class="st1 st7">20</text>
</g>
<g id="ID000013-8">
	<text transform="matrix(1 0 0 1 390.5898 299.374)" class="st1 st7">10</text>
</g>
<g id="ID000014">
	<text transform="matrix(1 0 0 1 546.4697 290.9395)" class="st3 st1 st2">C</text>
</g>
<g id="ID000014-2">
	<text transform="matrix(1 0 0 1 532.752 290.9395)" class="st3 st1 st2">C</text>
</g>
<g id="ID000014-3">
	<text transform="matrix(1 0 0 1 484.3301 289.2637)" class="st3 st1 st2">C</text>
</g>
<g id="ID000014-4">
	<text transform="matrix(1 0 0 1 470.9746 289.2637)" class="st3 st1 st2">C</text>
</g>
<g id="ID000014-5">
	<text transform="matrix(1 0 0 1 368.9204 208.668)" class="st6 st1 st2">C</text>
</g>
<g id="ID000015">
	<text transform="matrix(1 0 0 1 457.9316 312.5098)" class="st3 st1 st2">A</text>
</g>
<g id="ID000015-2">
	<text transform="matrix(1 0 0 1 418.9551 290.6934)" class="st6 st1 st2">A</text>
</g>
<g id="ID000015-3">
	<text transform="matrix(1 0 0 1 392.9858 345.2646)" class="st0 st1 st2">A</text>
</g>
<g id="ID000016">
	<text transform="matrix(1 0 0 1 349.5459 181.2778)" class="st6 st1 st2">A</text>
</g>
<g id="ID000016-2">
	<text transform="matrix(1 0 0 1 347.6235 60.8228)" class="st4 st1 st2">A</text>
</g>
<g id="ID000016-3">
	<text transform="matrix(1 0 0 1 331.583 52.6152)" class="st4 st1 st2">A</text>
</g>
<g id="ID000016-4">
	<text transform="matrix(1 0 0 1 318.5757 190.3965)" class="st5 st1 st2">A</text>
</g>
<g id="ID000016-5">
	<text transform="matrix(1 0 0 1 377.5098 249.5312)" class="st6 st1 st2">A</text>
</g>
<g id="ID000017">
	<text transform="matrix(1 0 0 1 558.6846 316.1885)" class="st3 st1 st2">G</text>
</g>
<g id="ID000017-2">
	<text transform="matrix(1 0 0 1 518.6602 290.9395)" class="st3 st1 st2">G</text>
</g>
<g id="ID000017-3">
	<text transform="matrix(1 0 0 1 504.9424 290.9395)" class="st3 st1 st2">G</text>
</g>
<g id="ID000017-4">
	<text transform="matrix(1 0 0 1 443.8857 285.5742)" class="st6 st1 st2">G</text>
</g>
<g id="ID000017-5">
	<text transform="matrix(1 0 0 1 418.9365 257.8652)" class="st6 st1 st2">G</text>
</g>
<g id="ID000017-6">
	<text transform="matrix(1 0 0 1 376.5444 216.8027)" class="st6 st1 st2">G</text>
</g>
<g id="ID000017-7">
	<text transform="matrix(1 0 0 1 338.9707 166.6128)" class="st4 st1 st2">G</text>
</g>
<g id="ID000017-8">
	<text transform="matrix(1 0 0 1 338.9707 141.855)" class="st4 st1 st2">G</text>
</g>
<g id="ID000017-9">
	<text transform="matrix(1 0 0 1 314.7046 60.8228)" class="st4 st1 st2">G</text>
</g>
<g id="ID000017-10">
	<text transform="matrix(1 0 0 1 309.9224 76.1621)" class="st4 st1 st2">G</text>
</g>
<g id="ID000017-11">
	<text transform="matrix(1 0 0 1 323.3037 179.0098)" class="st4 st1 st2">G</text>
</g>
<g id="ID000017-12">
	<text transform="matrix(1 0 0 1 352.187 224.8545)" class="st6 st1 st2">G</text>
</g>
<g id="ID000017-13">
	<text transform="matrix(1 0 0 1 274.4614 209.0508)" class="st5 st1 st2">G</text>
</g>
<g id="ID000017-14">
	<text transform="matrix(1 0 0 1 286.2207 209.0508)" class="st5 st1 st2">G</text>
</g>
<g id="ID000017-15">
	<text transform="matrix(1 0 0 1 368.2007 241.5791)" class="st6 st1 st2">G</text>
</g>
<g id="ID000017-16">
	<text transform="matrix(1 0 0 1 385.5073 258.0283)" class="st6 st1 st2">G</text>
</g>
<g id="ID000017-17">
	<text transform="matrix(1 0 0 1 399.7534 335.5723)" class="st0 st1 st2">G</text>
</g>
<g id="ID000017-18">
	<text transform="matrix(1 0 0 1 383.3213 353.6543)" class="st0 st1 st2">G</text>
</g>
<g id="ID000017-19">
	<text transform="matrix(1 0 0 1 363.3003 364.9492)" class="st0 st1 st2">G</text>
</g>
<g id="ID000018">
	<text transform="matrix(1 0 0 1 323.3037 154.3706)" class="st4 st1 st2">G</text>
</g>
<g id="ID000018-2">
	<text transform="matrix(1 0 0 1 323.2759 220.1729)" class="st6 st1 st2">G</text>
</g>
<g id="ID000018-3">
	<text transform="matrix(1 0 0 1 343.625 216.3838)" class="st6 st1 st2">G</text>
</g>
<g id="ID000020">
	<text transform="matrix(1 0 0 1 493.4561 279.2529)" class="st3 st1 st2">G</text>
</g>
<g id="ID000020-2">
	<text transform="matrix(1 0 0 1 323.3037 104.1714)" class="st4 st1 st2">G</text>
</g>
<g id="ID000020-3">
	<text transform="matrix(1 0 0 1 307.1982 190.3965)" class="st5 st1 st2">G</text>
</g>
<g id="ID000021">
	<text transform="matrix(1 0 0 1 410.7393 249.5312)" class="st6 st1 st2">G</text>
</g>
<g id="ID000021-2">
	<text transform="matrix(1 0 0 1 323.3037 116.8877)" class="st4 st1 st2">G</text>
</g>
<g id="ID000021-3">
	<text transform="matrix(1 0 0 1 295.1294 190.3965)" class="st5 st1 st2">G</text>
</g>
<g id="ID000022">
	<text transform="matrix(1 0 0 1 323.3037 129.6128)" class="st4 st1 st2">G</text>
</g>
<g id="ID000023">
	<text transform="matrix(1 0 0 1 408.0693 361.415)" class="st0 st1 st2">U</text>
</g>
<g id="ID000023-2">
	<text transform="matrix(1 0 0 1 253.6748 214.7441)" class="st5 st1 st2">U</text>
</g>
<g id="ID000026">
	<text transform="matrix(1 0 0 1 396.1919 381.9277)" class="st0 st1 st2">U</text>
</g>
<g id="ID000027">
	<text transform="matrix(1 0 0 1 399.0342 369.5117)" class="st0 st1 st2">C</text>
</g>
<g id="ID000028">
	<text transform="matrix(1 0 0 1 265.5254 181.4692)" class="st5 st1 st2">A</text>
</g>
<g id="ID000028-2">
	<text transform="matrix(1 0 0 1 243.127 205.8076)" class="st5 st1 st2">A</text>
</g>
<g id="ID000028-3">
	<text transform="matrix(1 0 0 1 410.0469 327.8477)" class="st0 st1 st2">A</text>
</g>
<g id="ID000030">
	<text transform="matrix(1 0 0 1 274.8442 190.3965)" class="st5 st1 st2">C</text>
</g>
<g id="ID000031">
	<text transform="matrix(1 0 0 1 410.4473 283.625)" class="st6 st1 st2">G</text>
</g>
<g id="ID000032">
	<text transform="matrix(1 0 0 1 350.1011 75.0146)" class="st4 st1 st2">C</text>
</g>
<g id="ID000032-2">
	<text transform="matrix(1 0 0 1 265.1606 216.9121)" class="st5 st1 st2">C</text>
</g>
<g id="ID000033">
	<text transform="matrix(1 0 0 1 358.3721 187.7178)" class="st6 st1 st2">C</text>
</g>
<g id="ID000033-2">
	<text transform="matrix(1 0 0 1 345.9932 90.855)" class="st4 st1 st2">C</text>
</g>
<g id="ID000033-3">
	<text transform="matrix(1 0 0 1 323.6763 166.6128)" class="st4 st1 st2">C</text>
</g>
<g id="ID000033-4">
	<text transform="matrix(1 0 0 1 394.4253 266.1172)" class="st6 st1 st2">C</text>
</g>
<g id="ID000033-5">
	<text transform="matrix(1 0 0 1 307.4717 209.0508)" class="st5 st1 st2">C</text>
</g>
<g id="ID000033-6">
	<text transform="matrix(1 0 0 1 402.1318 274.5527)" class="st6 st1 st2">C</text>
</g>
<g id="ID000034">
	<text transform="matrix(1 0 0 1 339.3438 178.7188)" class="st4 st1 st2">C</text>
</g>
<g id="ID000035">
	<text transform="matrix(1 0 0 1 339.3438 154.3706)" class="st4 st1 st2">C</text>
</g>
<g id="ID000039">
	<text transform="matrix(1 0 0 1 470.7568 312.5098)" class="st3 st1 st2">G</text>
</g>
<g id="ID000039-2">
	<text transform="matrix(1 0 0 1 483.7725 312.5098)" class="st3 st1 st2">G</text>
</g>
<g id="ID000043">
	<text transform="matrix(1 0 0 1 532.7432 311.9258)" class="st3 st1 st2">G</text>
</g>
<g id="ID000043-2">
	<text transform="matrix(1 0 0 1 546.4697 311.9258)" class="st3 st1 st2">G</text>
</g>
<g id="ID000045">
	<text transform="matrix(1 0 0 1 494.167 322.6748)" class="st3 st1 st2">G</text>
</g>
<g id="ID000054">
	<line class="st8" x1="279.9" y1="191" x2="279.9" y2="198.2"/>
</g>
<g id="ID000054-2">
	<line class="st8" x1="463" y1="290.3" x2="463" y2="300.5"/>
</g>
<g id="ID000054-3">
	<line class="st8" x1="475.8" y1="290.3" x2="475.8" y2="300.5"/>
</g>
<g id="ID000054-4">
	<line class="st8" x1="489.4" y1="290.3" x2="489.4" y2="300.5"/>
</g>
<g id="ID000054-5">
	<line class="st8" x1="563.2" y1="263.9" x2="563.2" y2="274.1"/>
</g>
<g id="ID000054-6">
	<line class="st8" x1="475.8" y1="312.9" x2="475.8" y2="323.1"/>
</g>
<g id="ID000054-7">
	<line class="st8" x1="510.5" y1="291.2" x2="510.5" y2="301.5"/>
</g>
<g id="ID000054-8">
	<line class="st8" x1="523.8" y1="291.5" x2="523.8" y2="301.8"/>
</g>
<g id="ID000054-9">
	<line class="st8" x1="537.9" y1="291.5" x2="537.9" y2="301.8"/>
</g>
<g id="ID000054-10">
	<line class="st8" x1="551.2" y1="291.5" x2="551.2" y2="301.8"/>
</g>
<g id="ID000054-11">
	<line class="st8" x1="312.6" y1="191" x2="312.6" y2="198.2"/>
</g>
<g id="ID000054-12">
	<line class="st8" x1="323.2" y1="190.2" x2="323.2" y2="197.4"/>
</g>
<g id="ID000054-13">
	<line class="st8" x1="338.8" y1="99.8" x2="334.4" y2="99.9"/>
</g>
<g id="ID000054-14">
	<line class="st8" x1="338.8" y1="111.6" x2="334.4" y2="111.7"/>
</g>
<g id="ID000054-15">
	<line class="st8" x1="338.8" y1="149.2" x2="334.4" y2="149.3"/>
</g>
<g id="ID000054-16">
	<line class="st8" x1="338.8" y1="162" x2="334.4" y2="162"/>
</g>
<g id="ID000054-17">
	<line class="st8" x1="339.1" y1="175.2" x2="334.8" y2="175.2"/>
</g>
<g id="ID000054-18">
	<line class="st8" x1="369.9" y1="207.9" x2="362.5" y2="216.2"/>
</g>
<g id="ID000054-19">
	<line class="st8" x1="392.3" y1="353.1" x2="399.3" y2="361.7"/>
</g>
<g id="ID000054-20">
	<line class="st8" x1="401.6" y1="345.7" x2="408.6" y2="354.2"/>
</g>
<g id="ID000054-21">
	<line class="st8" x1="409.6" y1="335.7" x2="416.7" y2="344.2"/>
</g>
<g id="ID000054-22">
	<line class="st8" x1="418.5" y1="328.3" x2="425.6" y2="336.8"/>
</g>
<g id="ID000054-23">
	<line class="st8" x1="411.1" y1="248.1" x2="403.7" y2="256.5"/>
</g>
<g id="ID000054-24">
	<line class="st8" x1="420.1" y1="257.3" x2="412.7" y2="265.5"/>
</g>
<g id="ID000054-25">
	<line class="st8" x1="427.5" y1="265.5" x2="420.1" y2="273.7"/>
</g>
<g id="ID000054-26">
	<line class="st8" x1="435.5" y1="273.3" x2="428.1" y2="281.6"/>
</g>
<g id="ID000054-27">
	<line class="st8" x1="411.4" y1="282.2" x2="404" y2="290.5"/>
</g>
<g id="ID000054-28">
	<line class="st8" x1="325.6" y1="220.8" x2="318.2" y2="229"/>
</g>
<g id="ID000054-29">
	<line class="st8" x1="323.1" y1="149.1" x2="312" y2="149.4"/>
</g>
<g id="ID000054-30">
	<line class="st8" x1="377.8" y1="174.8" x2="368.5" y2="180.9"/>
</g>
<g id="ID000054-31">
	<line class="st8" x1="453" y1="256.6" x2="445.3" y2="264.5"/>
</g>
<g id="ID000054-32">
	<line class="st8" x1="370.8" y1="69.4" x2="359.7" y2="69.8"/>
</g>
<g id="ID000054-33">
	<line class="st8" x1="444.9" y1="284.7" x2="435.6" y2="295"/>
</g>
<g id="ID000054-34">
	<line class="st8" x1="393.6" y1="233.3" x2="386.2" y2="241.6"/>
</g>
<g>
	<text transform="matrix(1 0 0 1 346.7222 364.9492)" class="st1 st9">5</text>
	<text transform="matrix(1 0 0 1 354.8286 364.9492)" class="st1 st9">’</text>
</g>
<g>
	<text transform="matrix(1 0 0 1 407.1133 388.0215)" class="st1 st9">3</text>
	<text transform="matrix(1 0 0 1 415.2207 388.0215)" class="st1 st9">’</text>
</g>
<text transform="matrix(1 0 0 1 340.3186 23.8313)" class="st1 st10">APC-99 aptamer</text>
<g id="ID000038">
	<polygon class="st11" points="336.6,123.5 336.5,123.5 336.4,123.5 336.3,123.5 336.1,123.5 336,123.6 335.9,123.6 335.8,123.6 
		335.7,123.7 335.6,123.8 335.5,123.8 335.4,123.9 335.4,123.9 335.3,124 335.2,124.1 335.1,124.2 335.1,124.4 335,124.5 335,124.6 
		334.9,124.7 334.9,124.8 334.9,124.9 334.8,125 334.8,125.1 334.8,125.3 334.8,125.4 334.8,125.5 334.8,125.6 334.8,125.7 
		334.9,125.8 334.9,125.9 335,126 335,126.1 335.1,126.2 335.1,126.3 335.2,126.4 335.2,126.5 335.3,126.6 335.4,126.7 335.5,126.7 
		335.6,126.8 335.7,126.9 335.8,126.9 335.9,127 336,127 336.1,127 336.2,127.1 336.3,127.1 336.4,127.1 336.5,127.1 336.6,127.1 
		336.8,127.1 336.9,127.1 337,127.1 337.1,127 337.2,127 337.3,127 337.4,126.9 337.5,126.9 337.6,126.8 337.7,126.7 337.8,126.7 
		337.9,126.6 338,126.5 338,126.4 338.1,126.3 338.1,126.2 338.2,126.1 338.2,126 338.3,125.9 338.3,125.8 338.3,125.7 338.5,125.6 
		338.5,125.5 338.5,125.4 338.5,125.3 338.5,125.1 338.3,125 338.3,124.9 338.3,124.8 338.2,124.7 338.2,124.6 338.2,124.5 
		338.1,124.4 338,124.2 338,124.1 337.9,124 337.8,123.9 337.7,123.9 337.7,123.8 337.5,123.8 337.5,123.7 337.4,123.6 337.2,123.6 
		337.1,123.6 337,123.5 336.9,123.5 336.8,123.5 336.7,123.5 	"/>
</g>
<g id="ID000038-2">
	<polygon class="st11" points="301.2,192.8 301.1,192.8 300.8,192.8 300.7,192.8 300.6,192.9 300.5,192.9 300.4,192.9 300.3,193 
		300.2,193 300.1,193.1 300,193.1 299.9,193.2 299.8,193.3 299.8,193.3 299.7,193.4 299.6,193.5 299.6,193.6 299.5,193.7 
		299.5,193.8 299.4,193.9 299.4,194 299.3,194.1 299.3,194.2 299.3,194.4 299.3,194.5 299.3,194.6 299.3,194.7 299.3,194.8 
		299.3,194.9 299.3,195 299.4,195.1 299.4,195.3 299.5,195.4 299.5,195.4 299.6,195.7 299.6,195.7 299.7,195.8 299.8,195.9 
		299.9,196 300,196.1 300.1,196.1 300.2,196.2 300.2,196.3 300.4,196.3 300.5,196.3 300.6,196.4 300.7,196.4 300.8,196.4 301,196.4 
		301.1,196.4 301.2,196.4 301.3,196.4 301.4,196.4 301.6,196.4 301.7,196.4 301.8,196.3 301.9,196.3 302,196.3 302.1,196.2 
		302.2,196.1 302.3,196.1 302.4,196 302.5,195.9 302.5,195.8 302.6,195.7 302.7,195.7 302.7,195.4 302.8,195.4 302.8,195.3 
		302.9,195.1 302.9,195 302.9,194.9 302.9,194.8 302.9,194.7 302.9,194.6 302.9,194.5 302.9,194.4 302.9,194.2 302.9,194.1 
		302.9,194 302.8,193.9 302.8,193.8 302.7,193.7 302.7,193.6 302.6,193.5 302.6,193.4 302.5,193.3 302.4,193.3 302.3,193.2 
		302.2,193.1 302.1,193.1 302,193 301.9,193 301.8,192.9 301.7,192.9 301.6,192.9 301.5,192.8 301.4,192.8 301.3,192.8 	"/>
</g>
<g id="ID000038-3">
	<polygon class="st11" points="291,192.8 290.9,192.8 290.8,192.8 290.7,192.8 290.6,192.9 290.5,192.9 290.4,192.9 290.2,193 
		290.2,193 290,193.1 289.9,193.1 289.9,193.2 289.8,193.3 289.7,193.3 289.5,193.4 289.5,193.5 289.4,193.6 289.3,193.7 
		289.3,193.8 289.2,193.9 289.2,194 289.2,194.1 289.2,194.2 289.1,194.4 289.1,194.5 289.1,194.6 289.1,194.7 289.2,194.8 
		289.2,194.9 289.2,195 289.2,195.1 289.3,195.3 289.3,195.4 289.4,195.4 289.4,195.7 289.5,195.7 289.7,195.8 289.7,195.9 
		289.8,196 289.9,196.1 290,196.1 290.1,196.2 290.2,196.3 290.3,196.3 290.4,196.3 290.5,196.4 290.6,196.4 290.7,196.4 
		290.8,196.4 290.9,196.4 291.1,196.4 291.2,196.4 291.3,196.4 291.4,196.4 291.5,196.4 291.6,196.3 291.7,196.3 291.8,196.3 
		291.9,196.2 292,196.1 292.1,196.1 292.2,196 292.3,195.9 292.4,195.8 292.4,195.7 292.5,195.7 292.6,195.4 292.6,195.4 
		292.6,195.3 292.7,195.1 292.7,195 292.8,194.9 292.8,194.8 292.8,194.7 292.8,194.6 292.8,194.5 292.8,194.4 292.8,194.2 
		292.8,194.1 292.7,194 292.7,193.9 292.6,193.8 292.6,193.7 292.5,193.6 292.5,193.5 292.4,193.4 292.3,193.3 292.2,193.3 
		292.2,193.2 292.1,193.1 292,193.1 291.9,193 291.8,193 291.7,192.9 291.5,192.9 291.4,192.9 291.3,192.8 291.2,192.8 291.1,192.8 
			"/>
</g>
<g id="ID000038-4">
	<polygon class="st11" points="336.6,134.6 336.5,134.6 336.4,134.6 336.3,134.6 336.1,134.6 336,134.7 335.9,134.7 335.8,134.7 
		335.7,134.8 335.6,134.9 335.5,134.9 335.4,135 335.4,135 335.3,135.1 335.2,135.2 335.1,135.3 335.1,135.4 335,135.6 335,135.7 
		334.9,135.8 334.9,135.9 334.9,136 334.8,136.1 334.8,136.2 334.8,136.4 334.8,136.5 334.8,136.6 334.8,136.7 334.8,136.8 
		334.9,136.9 334.9,137 335,137.1 335,137.3 335.1,137.3 335.1,137.4 335.2,137.5 335.2,137.6 335.3,137.7 335.4,137.8 335.5,137.9 
		335.6,137.9 335.7,138 335.8,138 335.9,138.1 336,138.1 336.1,138.2 336.2,138.2 336.3,138.2 336.4,138.2 336.5,138.2 336.6,138.2 
		336.8,138.2 336.9,138.2 337,138.2 337.1,138.2 337.2,138.1 337.3,138.1 337.4,138 337.5,138 337.6,137.9 337.7,137.9 337.8,137.8 
		337.9,137.7 338,137.6 338,137.5 338.1,137.4 338.1,137.3 338.2,137.3 338.2,137.1 338.3,137 338.3,136.9 338.3,136.8 338.5,136.7 
		338.5,136.6 338.5,136.5 338.5,136.4 338.5,136.2 338.3,136.1 338.3,136 338.3,135.9 338.2,135.8 338.2,135.7 338.2,135.6 
		338.1,135.4 338,135.3 338,135.2 337.9,135.1 337.8,135 337.7,135 337.7,134.9 337.5,134.9 337.5,134.8 337.4,134.7 337.2,134.7 
		337.1,134.7 337,134.6 336.9,134.6 336.8,134.6 336.7,134.6 	"/>
</g>
<g id="ID000038-5">
	<polygon class="st11" points="357.8,200.8 357.7,200.9 357.6,200.9 357.5,200.9 357.4,200.9 357.3,201 357,201 356.9,201 
		356.9,201.1 356.7,201.1 356.6,201.2 356.6,201.3 356.5,201.3 356.4,201.4 356.3,201.5 356.3,201.6 356.2,201.7 356.2,201.8 
		356.1,201.9 356,202 356,202.1 356,202.2 356,202.3 355.9,202.4 355.9,202.6 355.9,202.7 355.9,202.8 356,202.9 356,203 356,203.2 
		356,203.3 356.1,203.4 356.1,203.5 356.2,203.6 356.2,203.7 356.3,203.8 356.4,203.9 356.5,204 356.5,204.1 356.6,204.1 
		356.7,204.2 356.8,204.3 356.9,204.3 357,204.4 357.1,204.4 357.3,204.4 357.4,204.5 357.5,204.5 357.6,204.5 357.8,204.5 
		357.9,204.5 358,204.5 358.1,204.5 358.2,204.5 358.3,204.4 358.4,204.4 358.5,204.4 358.6,204.3 358.7,204.3 358.8,204.2 
		358.9,204.1 359,204.1 359.1,204 359.2,203.9 359.2,203.8 359.3,203.7 359.4,203.6 359.4,203.5 359.4,203.4 359.5,203.3 
		359.5,203.2 359.6,203 359.6,202.9 359.6,202.8 359.6,202.7 359.6,202.6 359.6,202.4 359.6,202.3 359.6,202.2 359.5,202.1 
		359.5,202 359.4,201.9 359.4,201.8 359.3,201.7 359.3,201.6 359.2,201.5 359.1,201.4 359,201.3 359,201.3 358.9,201.2 358.8,201.1 
		358.7,201.1 358.6,201 358.5,201 358.4,201 358.2,200.9 358.1,200.9 358,200.9 357.9,200.9 	"/>
</g>
<g id="ID000038-6">
	<polygon class="st11" points="374.1,218.5 374,218.6 373.8,218.6 373.7,218.6 373.6,218.6 373.5,218.7 373.4,218.7 373.3,218.7 
		373.2,218.8 373.1,218.8 373,218.9 372.9,219 372.8,219 372.7,219.1 372.7,219.2 372.6,219.3 372.6,219.4 372.5,219.5 372.4,219.6 
		372.4,219.7 372.4,219.8 372.3,219.9 372.3,220 372.3,220.1 372.3,220.3 372.3,220.4 372.3,220.5 372.3,220.6 372.3,220.7 
		372.3,220.8 372.4,220.9 372.4,221 372.5,221.1 372.5,221.2 372.6,221.3 372.6,221.4 372.7,221.5 372.8,221.6 372.9,221.7 
		373,221.7 373,221.8 373.2,222 373.2,222 373.3,222.1 373.5,222.1 373.6,222.1 373.7,222.2 373.8,222.2 373.9,222.2 374,222.2 
		374.1,222.2 374.2,222.2 374.3,222.2 374.5,222.2 374.6,222.1 374.7,222.1 374.8,222.1 374.9,222 375,222 375.1,221.8 375.1,221.7 
		375.3,221.7 375.3,221.6 375.4,221.5 375.5,221.4 375.6,221.3 375.6,221.2 375.7,221.1 375.7,221 375.8,220.9 375.8,220.8 
		375.8,220.7 375.8,220.6 375.8,220.5 375.8,220.4 375.8,220.3 375.8,220.1 375.8,220 375.8,219.9 375.8,219.8 375.7,219.7 
		375.7,219.6 375.6,219.5 375.6,219.4 375.5,219.3 375.4,219.2 375.4,219.1 375.3,219 375.2,219 375.1,218.9 375,218.8 374.9,218.8 
		374.8,218.7 374.7,218.7 374.6,218.7 374.5,218.6 374.4,218.6 374.3,218.6 374.2,218.6 	"/>
</g>
<g id="ID000038-7">
	<polygon class="st11" points="382.2,227.7 382.1,227.7 382,227.7 381.9,227.8 381.8,227.8 381.7,227.8 381.6,227.8 381.5,227.9 
		381.4,228 381.3,228 381.2,228.1 381.1,228.1 381,228.2 380.9,228.3 380.9,228.4 380.8,228.5 380.7,228.6 380.7,228.7 380.6,228.8 
		380.6,228.9 380.5,229 380.5,229.1 380.5,229.2 380.5,229.3 380.5,229.5 380.5,229.6 380.5,229.8 380.5,229.9 380.5,230 
		380.5,230.1 380.6,230.2 380.6,230.3 380.7,230.4 380.7,230.5 380.8,230.6 380.8,230.7 380.9,230.8 381,230.8 381.1,230.9 
		381.1,231 381.2,231.1 381.3,231.1 381.4,231.2 381.5,231.2 381.6,231.3 381.7,231.3 381.9,231.3 382,231.4 382.1,231.4 
		382.2,231.4 382.3,231.4 382.4,231.4 382.5,231.4 382.7,231.3 382.8,231.3 382.8,231.3 383,231.2 383.1,231.2 383.2,231.1 
		383.2,231.1 383.3,231 383.4,230.9 383.6,230.8 383.7,230.8 383.8,230.7 383.8,230.6 383.9,230.5 384,230.4 384,230.3 384,230.2 
		384.1,230.1 384.1,230 384.1,229.9 384.1,229.8 384.1,229.6 384.1,229.5 384.1,229.3 384.1,229.2 384.1,229.1 384,229 384,228.9 
		384,228.8 383.9,228.7 383.9,228.6 383.8,228.5 383.7,228.4 383.6,228.3 383.6,228.2 383.4,228.1 383.3,228.1 383.2,228 383.1,228 
		383,227.9 382.9,227.8 382.8,227.8 382.7,227.8 382.6,227.8 382.5,227.7 382.4,227.7 	"/>
</g>
<g id="ID000038-8">
	<polygon class="st11" points="398.6,244.3 398.4,244.3 398.3,244.3 398.2,244.3 398.1,244.5 398,244.5 397.9,244.5 397.8,244.6 
		397.7,244.6 397.6,244.7 397.5,244.7 397.4,244.8 397.3,244.9 397.2,245 397.2,245.1 397.1,245.2 397,245.2 397,245.3 396.9,245.4 
		396.9,245.5 396.8,245.6 396.8,245.7 396.8,245.9 396.7,246 396.7,246.1 396.7,246.2 396.7,246.3 396.8,246.4 396.8,246.5 
		396.8,246.7 396.9,246.8 396.9,246.9 396.9,247 397,247.1 397,247.2 397.1,247.3 397.2,247.3 397.3,247.4 397.3,247.5 397.4,247.6 
		397.5,247.6 397.6,247.7 397.7,247.8 397.8,247.8 397.9,247.9 398,247.9 398.1,247.9 398.3,247.9 398.4,248 398.6,248 398.7,248 
		398.8,248 398.9,247.9 399,247.9 399.1,247.9 399.2,247.9 399.3,247.8 399.4,247.8 399.6,247.7 399.6,247.6 399.7,247.6 
		399.8,247.5 399.9,247.4 400,247.3 400,247.3 400.1,247.2 400.2,247.1 400.2,247 400.3,246.9 400.3,246.8 400.3,246.7 400.4,246.5 
		400.4,246.4 400.4,246.3 400.4,246.2 400.4,246.1 400.4,246 400.4,245.9 400.4,245.7 400.3,245.6 400.3,245.5 400.3,245.4 
		400.2,245.3 400.2,245.2 400.1,245.2 400,245.1 399.9,245 399.8,244.9 399.8,244.8 399.7,244.7 399.6,244.7 399.5,244.6 
		399.4,244.6 399.3,244.5 399.2,244.5 399.1,244.5 399,244.3 398.8,244.3 398.7,244.3 	"/>
</g>
</svg>
