<?xml version="1.0" encoding="utf-8"?>
<!-- Generator: Adobe Illustrator 25.2.0, SVG Export Plug-In . SVG Version: 6.00 Build 0)  -->
<svg version="1.1" id="图层_1" xmlns="http://www.w3.org/2000/svg" xmlns:xlink="http://www.w3.org/1999/xlink" x="0px" y="0px"
	 viewBox="0 0 800 400" style="enable-background:new 0 0 800 400;" xml:space="preserve">
<style type="text/css">
	.st0{font-family:'MicrosoftYaHei';}
	.st1{font-size:20px;}
	.st2{fill:#2EA103;}
	.st3{font-family:'Arial-BoldMT';}
	.st4{font-size:16.8983px;}
	.st5{fill:none;stroke:#000000;stroke-miterlimit:1.7741;}
	.st6{font-family:'ArialMT';}
	.st7{fill:#B83233;}
	.st8{fill:#084595;}
	.st9{stroke:#000000;stroke-width:0.2218;stroke-miterlimit:1.7741;}
	.st10{fill:none;stroke:#A0529C;stroke-miterlimit:1.7741;}
	.st11{fill:none;stroke:#BB00CF;stroke-miterlimit:1.7741;}
	.st12{fill:#DD358D;stroke:#BB00CF;stroke-miterlimit:1.7741;}
	.st13{fill:#040000;}
</style>
<text transform="matrix(1 0 0 1 353.2357 31.3918)" class="st0 st1">apt1 aptamer</text>
<g id="topgroup">
	<g id="ID000000">
		<g>
			<g id="ID000002">
				<g transform="translate(316.658,161.338)">
					<g transform="rotate(-0.0)">
						<text transform="matrix(1 0 0 1 -142.3104 -55.0343)" class="st2 st3 st4">G</text>
					</g>
				</g>
			</g>
			<g id="ID000003">
				<g transform="translate(348.975,161.338)">
					<g transform="rotate(-0.0)">
						<text transform="matrix(1 0 0 1 -157.5625 -55.0343)" class="st2 st3 st4">G</text>
					</g>
				</g>
			</g>
			<g id="ID000004">
				<g transform="translate(381.293,161.338)">
					<g transform="rotate(-0.0)">
						<text transform="matrix(1 0 0 1 -172.8136 -55.0343)" class="st2 st3 st4">G</text>
					</g>
				</g>
			</g>
			<g id="ID000005">
				<g transform="translate(413.610,161.338)">
					<g transform="rotate(-0.0)">
						<text transform="matrix(1 0 0 1 -187.5954 -55.0343)" class="st2 st3 st4">A</text>
					</g>
				</g>
			</g>
			<g id="ID000006">
				<g transform="translate(445.928,161.338)">
					<g transform="rotate(-0.0)">
						<text transform="matrix(1 0 0 1 -202.8465 -55.0343)" class="st2 st3 st4">C</text>
					</g>
				</g>
			</g>
			<g id="ID000007">
				<g transform="translate(478.246,161.338)">
					<g transform="rotate(-0.0)">
						<text transform="matrix(1 0 0 1 -218.0986 -55.0343)" class="st2 st3 st4">A</text>
					</g>
				</g>
			</g>
			<g id="ID000008">
				<g transform="translate(510.563,161.338)">
					<g transform="rotate(-0.0)">
						<text transform="matrix(1 0 0 1 -233.3497 -55.0343)" class="st2 st3 st4">C</text>
					</g>
				</g>
			</g>
			<g id="ID000009">
				<g transform="translate(542.881,161.338)">
					<g transform="rotate(-0.0)">
						<text transform="matrix(1 0 0 1 -248.6018 -55.0343)" class="st2 st3 st4">A</text>
					</g>
				</g>
			</g>
			<g id="ID000010">
				<g transform="translate(575.199,161.338)">
					<g transform="rotate(-0.0)">
						<text transform="matrix(1 0 0 1 -263.8538 -55.0343)" class="st2 st3 st4">A</text>
					</g>
				</g>
			</g>
			<g id="ID000011">
				<g transform="translate(607.516,161.338)">
					<g transform="rotate(-0.0)">
						<text transform="matrix(1 0 0 1 -279.1039 -55.0343)" class="st2 st3 st4">U</text>
					</g>
				</g>
			</g>
			<g id="ID000012">
				<line class="st5" x1="334.5" y1="110" x2="334.5" y2="121.4"/>
			</g>
			<g id="ID000013">
				<g transform="translate(607.516,228.020)">
					<g transform="rotate(-0.0)">
						<text transform="matrix(1 0 0 1 -282.4008 -86.5029)" class="st6 st4">10</text>
					</g>
				</g>
			</g>
			<g id="ID000014">
				<g transform="translate(639.834,161.338)">
					<g transform="rotate(-0.0)">
						<text transform="matrix(1 0 0 1 -294.8262 -55.0343)" class="st2 st3 st4">G</text>
					</g>
				</g>
			</g>
			<g id="ID000015">
				<g transform="translate(672.151,161.338)">
					<g transform="rotate(-0.0)">
						<text transform="matrix(1 0 0 1 -310.0783 -55.0343)" class="st2 st3 st4">G</text>
					</g>
				</g>
			</g>
			<g id="ID000016">
				<g transform="translate(704.469,161.338)">
					<g transform="rotate(-0.0)">
						<text transform="matrix(1 0 0 1 -324.8602 -55.0343)" class="st7 st3 st4">A</text>
					</g>
				</g>
			</g>
			<g id="ID000017">
				<g transform="translate(704.469,193.655)">
					<g transform="rotate(-0.0)">
						<text transform="matrix(1 0 0 1 -324.8602 -70.2863)" class="st7 st3 st4">C</text>
					</g>
				</g>
			</g>
			<g id="ID000018">
				<g transform="translate(704.469,225.973)">
					<g transform="rotate(-0.0)">
						<text transform="matrix(1 0 0 1 -325.3294 -85.5374)" class="st7 st3 st4">G</text>
					</g>
				</g>
			</g>
			<g id="ID000019">
				<g transform="translate(704.469,258.290)">
					<g transform="rotate(-0.0)">
						<text transform="matrix(1 0 0 1 -325.3294 -100.7895)" class="st7 st3 st4">G</text>
					</g>
				</g>
			</g>
			<g id="ID000020">
				<g transform="translate(672.151,282.529)">
					<g transform="rotate(-0.0)">
						<text transform="matrix(1 0 0 1 -309.6071 -112.2277)" class="st2 st3 st4">A</text>
					</g>
				</g>
			</g>
			<g id="ID000021">
				<g transform="translate(801.422,266.370)">
					<g transform="rotate(-0.0)">
						<text transform="matrix(1 0 0 1 -370.6149 -104.6014)" class="st2 st3 st4">A</text>
					</g>
				</g>
			</g>
			<g id="ID000022">
				<g transform="translate(769.104,258.290)">
					<g transform="rotate(-0.0)">
						<text transform="matrix(1 0 0 1 -355.3633 -100.7895)" class="st7 st3 st4">C</text>
					</g>
				</g>
			</g>
			<g id="ID000023">
				<g transform="translate(769.104,225.973)">
					<g transform="rotate(-0.0)">
						<text transform="matrix(1 0 0 1 -355.3633 -85.5374)" class="st7 st3 st4">C</text>
					</g>
				</g>
			</g>
			<g id="ID000024">
				<g transform="translate(769.104,193.655)">
					<g transform="rotate(-0.0)">
						<text transform="matrix(1 0 0 1 -355.8331 -70.2863)" class="st7 st3 st4">G</text>
					</g>
				</g>
			</g>
			<g id="ID000025">
				<g transform="translate(769.104,161.338)">
					<g transform="rotate(-0.0)">
						<text transform="matrix(1 0 0 1 -355.3633 -55.0343)" class="st7 st3 st4">U</text>
					</g>
				</g>
			</g>
			<g id="ID000026">
				<g transform="translate(801.422,161.338)">
					<g transform="rotate(-0.0)">
						<text transform="matrix(1 0 0 1 -370.6149 -55.0343)" class="st2 st3 st4">A</text>
					</g>
				</g>
			</g>
			<g id="ID000027">
				<g transform="translate(833.739,161.338)">
					<g transform="rotate(-0.0)">
						<text transform="matrix(1 0 0 1 -385.8665 -55.0343)" class="st2 st3 st4">A</text>
					</g>
				</g>
			</g>
			<g id="ID000028">
				<g transform="translate(866.057,161.338)">
					<g transform="rotate(-0.0)">
						<text transform="matrix(1 0 0 1 -401.1181 -55.0343)" class="st2 st3 st4">C</text>
					</g>
				</g>
			</g>
			<g id="ID000029">
				<g transform="translate(898.375,161.338)">
					<g transform="rotate(-0.0)">
						<text transform="matrix(1 0 0 1 -416.8404 -55.0343)" class="st2 st3 st4">G</text>
					</g>
				</g>
			</g>
			<g id="ID000030">
				<g transform="translate(930.692,161.338)">
					<g transform="rotate(-0.0)">
						<text transform="matrix(1 0 0 1 -432.091 -55.0343)" class="st2 st3 st4">G</text>
					</g>
				</g>
			</g>
			<g id="ID000031">
				<line class="st5" x1="497.1" y1="90.6" x2="489" y2="82.5"/>
			</g>
			<g id="ID000032">
				<g transform="translate(900.223,108.246)">
					<g transform="rotate(-0.0)">
						<text transform="matrix(1 0 0 1 -429.9365 -29.9779)" class="st6 st4">60</text>
					</g>
				</g>
			</g>
			<g id="ID000033">
				<g transform="translate(963.010,161.338)">
					<g transform="rotate(-0.0)">
						<text transform="matrix(1 0 0 1 -446.8719 -55.0343)" class="st2 st3 st4">C</text>
					</g>
				</g>
			</g>
			<g id="ID000034">
				<g transform="translate(995.328,161.338)">
					<g transform="rotate(-0.0)">
						<text transform="matrix(1 0 0 1 -462.1245 -55.0343)" class="st2 st3 st4">C</text>
					</g>
				</g>
			</g>
			<g id="ID000035">
				<g transform="translate(1027.645,161.338)">
					<g transform="rotate(-0.0)">
						<text transform="matrix(1 0 0 1 -477.8458 -55.0343)" class="st2 st3 st4">G</text>
					</g>
				</g>
			</g>
			<g id="ID000036">
				<g transform="translate(1059.963,161.338)">
					<g transform="rotate(-0.0)">
						<text transform="matrix(1 0 0 1 -492.6276 -55.0343)" class="st2 st3 st4">A</text>
					</g>
				</g>
			</g>
			<g id="ID000037">
				<g transform="translate(1092.280,161.338)">
					<g transform="rotate(-0.0)">
						<text transform="matrix(1 0 0 1 -507.8782 -55.0343)" class="st2 st3 st4">C</text>
					</g>
				</g>
			</g>
			<g id="ID000038">
				<g transform="translate(1124.598,161.338)">
					<g transform="rotate(-0.0)">
						<text transform="matrix(1 0 0 1 -523.1308 -55.0343)" class="st2 st3 st4">A</text>
					</g>
				</g>
			</g>
			<g id="ID000039">
				<g transform="translate(1156.916,161.338)">
					<g transform="rotate(-0.0)">
						<text transform="matrix(1 0 0 1 -538.3814 -55.0343)" class="st2 st3 st4">U</text>
					</g>
				</g>
			</g>
			<g id="ID000040">
				<g transform="translate(1189.233,161.338)">
					<g transform="rotate(-0.0)">
						<text transform="matrix(1 0 0 1 -554.1027 -55.0343)" class="st2 st3 st4">G</text>
					</g>
				</g>
			</g>
			<g id="ID000041">
				<g transform="translate(1221.551,161.338)">
					<g transform="rotate(-0.0)">
						<text transform="matrix(1 0 0 1 -568.8846 -55.0343)" class="st2 st3 st4">A</text>
					</g>
				</g>
			</g>
			<g id="ID000042">
				<g transform="translate(1253.869,161.338)">
					<g transform="rotate(-0.0)">
						<text transform="matrix(1 0 0 1 -584.6069 -55.0343)" class="st2 st3 st4">G</text>
					</g>
				</g>
			</g>
			<g id="ID000043">
				<line class="st5" x1="667.7" y1="90.6" x2="659.7" y2="82.5"/>
			</g>
			<g id="ID000044">
				<g transform="translate(1223.399,108.246)">
					<g transform="rotate(-0.0)">
						<text transform="matrix(1 0 0 1 -582.4514 -29.9779)" class="st6 st4">70</text>
					</g>
				</g>
			</g>
			<g id="ID000045">
				<g transform="translate(1286.186,161.338)">
					<g transform="rotate(-0.0)">
						<text transform="matrix(1 0 0 1 -599.3878 -55.0343)" class="st2 st3 st4">A</text>
					</g>
				</g>
			</g>
			<g id="ID000046">
				<g transform="translate(1318.504,161.338)">
					<g transform="rotate(-0.0)">
						<text transform="matrix(1 0 0 1 -615.1101 -55.0343)" class="st2 st3 st4">G</text>
					</g>
				</g>
			</g>
			<g id="ID000047">
				<line class="st5" x1="392.5" y1="98.6" x2="413" y2="98.6"/>
			</g>
			<g id="ID000048">
				<line class="st5" x1="392.5" y1="115.7" x2="413" y2="115.7"/>
			</g>
			<g id="ID000049">
				<line class="st5" x1="392.5" y1="132.8" x2="413" y2="132.8"/>
			</g>
			<g id="ID000050">
				<line class="st5" x1="392.5" y1="149.8" x2="413" y2="149.8"/>
			</g>
			<g id="ID000051">
				<g transform="translate(704.469,314.846)">
					<g transform="rotate(-0.0)">
						<text transform="matrix(1 0 0 1 -324.8602 -127.4793)" class="st8 st3 st4">U</text>
					</g>
				</g>
			</g>
			<g id="ID000052">
				<g transform="translate(704.469,347.164)">
					<g transform="rotate(-0.0)">
						<text transform="matrix(1 0 0 1 -324.8602 -142.7309)" class="st8 st3 st4">U</text>
					</g>
				</g>
			</g>
			<g id="ID000053">
				<g transform="translate(704.469,379.481)">
					<g transform="rotate(-0.0)">
						<text transform="matrix(1 0 0 1 -324.8602 -157.9815)" class="st8 st3 st4">C</text>
					</g>
				</g>
			</g>
			<g id="ID000054">
				<line class="st5" x1="374.3" y1="213.8" x2="362.9" y2="213.8"/>
			</g>
			<g id="ID000055">
				<g transform="translate(661.379,379.481)">
					<g transform="rotate(-0.0)">
						<text transform="matrix(1 0 0 1 -317.2185 -157.9815)" class="st6 st4">20</text>
					</g>
				</g>
			</g>
			<g id="ID000056">
				<g transform="translate(704.469,411.799)">
					<g transform="rotate(-0.0)">
						<text transform="matrix(1 0 0 1 -325.3294 -173.234)" class="st8 st3 st4">G</text>
					</g>
				</g>
			</g>
			<g id="ID000057">
				<g transform="translate(704.469,444.117)">
					<g transform="rotate(-0.0)">
						<text transform="matrix(1 0 0 1 -324.8602 -188.4856)" class="st8 st3 st4">U</text>
					</g>
				</g>
			</g>
			<g id="ID000058">
				<g transform="translate(704.469,476.434)">
					<g transform="rotate(-0.0)">
						<text transform="matrix(1 0 0 1 -324.8602 -203.7362)" class="st8 st3 st4">A</text>
					</g>
				</g>
			</g>
			<g id="ID000059">
				<g transform="translate(704.469,508.752)">
					<g transform="rotate(-0.0)">
						<text transform="matrix(1 0 0 1 -324.8602 -218.9888)" class="st8 st3 st4">U</text>
					</g>
				</g>
			</g>
			<g id="ID000060">
				<g transform="translate(704.469,541.070)">
					<g transform="rotate(-0.0)">
						<text transform="matrix(1 0 0 1 -325.3294 -234.2404)" class="st2 st3 st4">G</text>
					</g>
				</g>
			</g>
			<g id="ID000061">
				<g transform="translate(704.469,573.387)">
					<g transform="rotate(-0.0)">
						<text transform="matrix(1 0 0 1 -325.3294 -249.492)" class="st2 st3 st4">G</text>
					</g>
				</g>
			</g>
			<g id="ID000062">
				<g transform="translate(704.469,605.705)">
					<g transform="rotate(-0.0)">
						<text transform="matrix(1 0 0 1 -325.3294 -264.7436)" class="st2 st3 st4">G</text>
					</g>
				</g>
			</g>
			<g id="ID000063">
				<g transform="translate(704.469,638.022)">
					<g transform="rotate(-0.0)">
						<text transform="matrix(1 0 0 1 -324.8602 -279.9951)" class="st2 st3 st4">U</text>
					</g>
				</g>
			</g>
			<g id="ID000064">
				<g transform="translate(615.596,670.340)">
					<g transform="rotate(-0.0)">
						<text transform="matrix(1 0 0 1 -283.3881 -295.2467)" class="st2 st3 st4">G</text>
					</g>
				</g>
			</g>
			<g id="ID000065">
				<g transform="translate(615.596,638.022)">
					<g transform="rotate(-0.0)">
						<text transform="matrix(1 0 0 1 -283.3881 -279.9951)" class="st2 st3 st4">G</text>
					</g>
				</g>
			</g>
			<g id="ID000066">
				<line class="st5" x1="330.7" y1="342.3" x2="322.6" y2="334.3"/>
			</g>
			<g id="ID000067">
				<g transform="translate(585.126,584.931)">
					<g transform="rotate(-0.0)">
						<text transform="matrix(1 0 0 1 -281.233 -254.9403)" class="st6 st4">30</text>
					</g>
				</g>
			</g>
			<g id="ID000068">
				<g transform="translate(615.596,605.705)">
					<g transform="rotate(-0.0)">
						<text transform="matrix(1 0 0 1 -283.3881 -264.7436)" class="st2 st3 st4">G</text>
					</g>
				</g>
			</g>
			<g id="ID000069">
				<g transform="translate(615.596,573.387)">
					<g transform="rotate(-0.0)">
						<text transform="matrix(1 0 0 1 -282.9179 -249.492)" class="st2 st3 st4">A</text>
					</g>
				</g>
			</g>
			<g id="ID000070">
				<g transform="translate(615.596,541.070)">
					<g transform="rotate(-0.0)">
						<text transform="matrix(1 0 0 1 -282.9179 -234.2404)" class="st2 st3 st4">U</text>
					</g>
				</g>
			</g>
			<g id="ID000071">
				<g transform="translate(769.104,573.387)">
					<g transform="rotate(-0.0)">
						<text transform="matrix(1 0 0 1 -355.3633 -249.492)" class="st2 st3 st4">C</text>
					</g>
				</g>
			</g>
			<g id="ID000072">
				<g transform="translate(769.104,605.705)">
					<g transform="rotate(-0.0)">
						<text transform="matrix(1 0 0 1 -355.8331 -264.7436)" class="st2 st3 st4">G</text>
					</g>
				</g>
			</g>
			<g id="ID000073">
				<g transform="translate(769.104,638.022)">
					<g transform="rotate(-0.0)">
						<text transform="matrix(1 0 0 1 -355.8331 -279.9951)" class="st2 st3 st4">G</text>
					</g>
				</g>
			</g>
			<g id="ID000074">
				<g transform="translate(769.104,670.340)">
					<g transform="rotate(-0.0)">
						<text transform="matrix(1 0 0 1 -355.8331 -295.2467)" class="st2 st3 st4">G</text>
					</g>
				</g>
			</g>
			<g id="ID000075">
				<g transform="translate(809.501,686.499)">
					<g transform="rotate(-0.0)">
						<text transform="matrix(1 0 0 1 -374.4273 -302.8725)" class="st2 st3 st4">A</text>
					</g>
				</g>
			</g>
			<g id="ID000076">
				<g transform="translate(833.739,646.102)">
					<g transform="rotate(-0.0)">
						<text transform="matrix(1 0 0 1 -380.5671 -277.0166)" class="st2 st3 st4">A</text>
					</g>
				</g>
			</g>
			<g id="ID000077">
				<g transform="translate(841.819,605.705)">
					<g transform="rotate(-0.0)">
						<text transform="matrix(1 0 0 1 -382.8928 -256.7648)" class="st2 st3 st4">G</text>
					</g>
				</g>
			</g>
			<g id="ID000078">
				<line class="st5" x1="477.1" y1="333.5" x2="488.5" y2="333.5"/>
			</g>
			<g id="ID000079">
				<g transform="translate(884.909,605.705)">
					<g transform="rotate(-0.0)">
						<text transform="matrix(1 0 0 1 -396.3855 -264.5243)" class="st6 st4">40</text>
					</g>
				</g>
			</g>
			<g id="ID000080">
				<g transform="translate(841.819,573.387)">
					<g transform="rotate(-0.0)">
						<text transform="matrix(1 0 0 1 -382.8928 -241.5132)" class="st2 st3 st4">G</text>
					</g>
				</g>
			</g>
			<g id="ID000081">
				<g transform="translate(841.819,541.070)">
					<g transform="rotate(-0.0)">
						<text transform="matrix(1 0 0 1 -382.8928 -226.2616)" class="st2 st3 st4">G</text>
					</g>
				</g>
			</g>
			<g id="ID000082">
				<g transform="translate(769.104,508.752)">
					<g transform="rotate(-0.0)">
						<text transform="matrix(1 0 0 1 -355.3633 -218.9888)" class="st8 st3 st4">C</text>
					</g>
				</g>
			</g>
			<g id="ID000083">
				<g transform="translate(769.104,476.434)">
					<g transform="rotate(-0.0)">
						<text transform="matrix(1 0 0 1 -355.3633 -203.7362)" class="st8 st3 st4">U</text>
					</g>
				</g>
			</g>
			<g id="ID000084">
				<g transform="translate(769.104,444.117)">
					<g transform="rotate(-0.0)">
						<text transform="matrix(1 0 0 1 -355.3633 -188.4856)" class="st8 st3 st4">A</text>
					</g>
				</g>
			</g>
			<g id="ID000085">
				<g transform="translate(769.104,411.799)">
					<g transform="rotate(-0.0)">
						<text transform="matrix(1 0 0 1 -355.3633 -173.234)" class="st8 st3 st4">C</text>
					</g>
				</g>
			</g>
			<g id="ID000086">
				<g transform="translate(769.104,379.481)">
					<g transform="rotate(-0.0)">
						<text transform="matrix(1 0 0 1 -355.8331 -157.9815)" class="st8 st3 st4">G</text>
					</g>
				</g>
			</g>
			<g id="ID000087">
				<g transform="translate(769.104,347.164)">
					<g transform="rotate(-0.0)">
						<text transform="matrix(1 0 0 1 -355.3633 -142.7309)" class="st8 st3 st4">A</text>
					</g>
				</g>
			</g>
			<g id="ID000088">
				<g transform="translate(769.104,314.846)">
					<g transform="rotate(-0.0)">
						<text transform="matrix(1 0 0 1 -355.3633 -127.4793)" class="st8 st3 st4">A</text>
					</g>
				</g>
			</g>
			<g id="ID000089">
				<g transform="translate(801.422,298.687)">
					<g transform="rotate(-0.0)">
						<text transform="matrix(1 0 0 1 -370.6149 -119.8535)" class="st2 st3 st4">C</text>
					</g>
				</g>
			</g>
			<g id="ID000090">
				<line class="st5" x1="448.2" y1="171.1" x2="459.6" y2="171.1"/>
			</g>
			<g id="ID000091">
				<g transform="translate(844.512,298.687)">
					<g transform="rotate(-0.0)">
						<text transform="matrix(1 0 0 1 -384.8485 -119.8535)" class="st6 st4">50</text>
					</g>
				</g>
			</g>
			<g id="ID000092">
				<line class="st5" x1="392.5" y1="179.7" x2="413" y2="179.7"/>
			</g>
			<g id="ID000093">
				<line class="st5" x1="392.5" y1="196.7" x2="413" y2="196.7"/>
			</g>
			<g id="ID000094">
				<line class="st5" x1="392.5" y1="213.8" x2="413" y2="213.8"/>
			</g>
			<g id="ID000095">
				<line class="st5" x1="392.5" y1="230.9" x2="413" y2="230.9"/>
			</g>
			<g id="ID000096">
				<line class="st5" x1="392.5" y1="247.9" x2="413" y2="247.9"/>
			</g>
			<g id="ID000097">
				<line class="st5" x1="392.5" y1="265" x2="413" y2="265"/>
			</g>
			<g id="ID000098">
				<line class="st5" x1="392.5" y1="282.1" x2="413" y2="282.1"/>
			</g>
			<g id="ID000099">
				<line class="st5" x1="345.4" y1="300.6" x2="413.1" y2="314.8"/>
			</g>
			<g id="ID000100">
				<polygon class="st9" points="374.8,301.5 377,304.6 379.6,306 382.3,307 387.6,309.4 381.8,309.5 378.9,309.3 376,309.6 
					372.6,311.5 				"/>
			</g>
			<g id="ID000101">
				<line class="st5" x1="379.2" y1="352.7" x2="345.1" y2="365.1"/>
			</g>
			<g id="ID000102">
				<polygon class="st9" points="369.3,361.7 365.7,360.3 362.8,360.5 360,361.1 354.2,361.8 359.1,358.6 361.6,357.3 364,355.5 
					365.8,352.1 				"/>
			</g>
			<g id="ID000103">
				<line class="st5" x1="459.7" y1="299.8" x2="426" y2="284.9"/>
			</g>
			<g id="ID000104">
				<polygon class="st9" points="442.1,297.6 440.6,294.1 438.3,292.2 435.9,290.6 431.2,287.1 436.9,288.3 439.7,289.1 
					442.6,289.4 446.3,288.2 				"/>
			</g>
		</g>
	</g>
</g>
<path class="st5" d="M413.2,317.8"/>
<path class="st5" d="M343.9,317.8"/>
<line class="st10" x1="346" y1="356.5" x2="413.4" y2="356.5"/>
<line class="st11" x1="345.6" y1="339.6" x2="413" y2="339.6"/>
<line class="st10" x1="345.8" y1="373.3" x2="413.3" y2="373.3"/>
<line class="st11" x1="391.8" y1="320.3" x2="459.3" y2="320.3"/>
<line class="st11" x1="391.4" y1="303.5" x2="458.9" y2="303.5"/>
<line class="st11" x1="391.7" y1="337.2" x2="459.1" y2="337.2"/>
<path class="st12" d="M423.4,335.5"/>
<path class="st12" d="M355.9,335.5"/>
<line class="st11" x1="345.8" y1="325.5" x2="379.2" y2="309.1"/>
<line class="st11" x1="345.5" y1="342.8" x2="378.9" y2="326.4"/>
<line class="st11" x1="345.4" y1="359.5" x2="378.7" y2="343.1"/>
<line class="st11" x1="426.5" y1="330.6" x2="459.8" y2="314.2"/>
<line class="st11" x1="426.2" y1="347.9" x2="459.5" y2="331.5"/>
<line class="st11" x1="426" y1="364.6" x2="459.4" y2="348.2"/>
<text transform="matrix(1 0 0 1 715.5103 90.8186)" class="st13 st6 st1">3’</text>
<text transform="matrix(1 0 0 1 163.6448 90.5783)" class="st13 st6 st1">5’</text>
</svg>
