<svg id="图层_1" data-name="图层 1" xmlns="http://www.w3.org/2000/svg" viewBox="0 0 800 400"><defs><style>.cls-1,.cls-2,.cls-4,.cls-5,.cls-6,.cls-8{isolation:isolate;font-size:10.95px;}.cls-1,.cls-2,.cls-5{fill:#ff7f0e;}.cls-1,.cls-11,.cls-2,.cls-4,.cls-5,.cls-6,.cls-8,.cls-9{font-family:ArialMT, Arial;}.cls-2{letter-spacing:-0.06em;}.cls-3{fill:none;}.cls-3,.cls-7{stroke:#000;stroke-width:0.5px;}.cls-5,.cls-8{letter-spacing:-0.06em;}.cls-6,.cls-8{fill:#e377c2;}.cls-9{font-size:12px;}.cls-10{letter-spacing:-0.04em;}.cls-11{font-size:20px;}</style></defs><title>aptamer_1_2D1</title><g id="topgroup"><g id="ID000000"><g id="ID000002"><text class="cls-1" transform="translate(241.81 326.1)">G</text></g><g id="ID000003"><text class="cls-1" transform="translate(249.17 314.56)">G</text></g><g id="ID000004"><text class="cls-1" transform="translate(265.13 315.01)">G</text></g><g id="ID000005"><text class="cls-2" transform="translate(271.62 305.78)">A</text></g><g id="ID000006"><text class="cls-1" transform="translate(263.26 297.58)">G</text></g><g id="ID000007"><text class="cls-1" transform="translate(316.75 315.51)">G</text></g><g id="ID000008"><text class="cls-1" transform="translate(303.11 316.54)">G</text></g><g id="ID000009"><text class="cls-1" transform="translate(289.77 317.56)">U</text></g><g id="ID000010"><text class="cls-1" transform="translate(283.88 326.79)">C</text></g><g id="ID000011"><text class="cls-1" transform="translate(293.64 336.46)">G</text></g><g id="ID000012"><text class="cls-2" transform="translate(295.27 350.1)">A</text></g><g id="ID000013"><line class="cls-3" x1="305.07" y1="349.05" x2="311.22" y2="352.97"/></g><g id="ID000014"><text class="cls-4" transform="translate(311.22 357.96)">80</text></g><g id="ID000015"><text class="cls-1" transform="translate(287.6 361.64)">U</text></g><g id="ID000016"><text class="cls-1" transform="translate(274.49 366.45)">G</text></g><g id="ID000017"><text class="cls-1" transform="translate(261.48 361.39)">G</text></g><g id="ID000018"><line class="cls-3" x1="273.07" y1="312.38" x2="284.14" y2="319.45"/></g><g id="ID000019"><line class="cls-3" x1="278.96" y1="303.15" x2="290.03" y2="310.22"/></g><g id="ID000021"><text class="cls-2" transform="translate(263.67 287.72)">A</text></g><g id="ID000022"><text class="cls-1" transform="translate(262.87 277.85)">G</text></g><g id="ID000023"><text class="cls-1" transform="translate(253.95 271.96)">C</text></g><g id="ID000024"><text class="cls-1" transform="translate(240.64 266.9)">G</text></g><g id="ID000025"><text class="cls-1" transform="translate(233.53 252.62)">G</text></g><g id="ID000026"><line class="cls-3" x1="231.63" y1="243.71" x2="225.48" y2="239.78"/></g><g id="ID000027"><text class="cls-4" transform="translate(213.31 244.77)">10</text></g><g id="ID000028"><text class="cls-2" transform="translate(241.5 241.09)">A</text></g><g id="ID000029"><text class="cls-2" transform="translate(257.45 241.53)">A</text></g><g id="ID000030"><text class="cls-1" transform="translate(265.43 253.51)">G</text></g><g id="ID000031"><text class="cls-1" transform="translate(274.96 259.4)">C</text></g><g id="ID000032"><text class="cls-1" transform="translate(285.35 262.99)">G</text></g><g id="ID000033"><text class="cls-1" transform="translate(296.36 266.57)">U</text></g><g id="ID000034"><line class="cls-3" x1="269.49" y1="269.18" x2="276.56" y2="258.11"/></g><g id="ID000035"><line class="cls-3" x1="260.26" y1="263.29" x2="267.33" y2="252.21"/></g><g id="ID000037"><text class="cls-1" transform="translate(305.28 272.46)">G</text></g><g id="ID000038"><text class="cls-1" transform="translate(313.34 280.66)">C</text></g><g id="ID000039"><text class="cls-1" transform="translate(319.23 271.43)">U</text></g><g id="ID000040"><text class="cls-1" transform="translate(324.81 262.21)">G</text></g><g id="ID000041"><line class="cls-3" x1="327.5" y1="250.09" x2="325.93" y2="242.97"/></g><g id="ID000042"><text class="cls-4" transform="translate(313.75 240.2)">20</text></g><g id="ID000043"><text class="cls-1" transform="translate(330.7 252.98)">G</text></g><g id="ID000044"><text class="cls-1" transform="translate(336.6 243.75)">G</text></g><g id="ID000045"><text class="cls-1" transform="translate(335.87 230.11)">C</text></g><g id="ID000046"><text class="cls-5" transform="translate(380.64 252.01)">A</text></g><g id="ID000047"><text class="cls-5" transform="translate(367.83 256.82)">A</text></g><g id="ID000048"><text class="cls-1" transform="translate(355.35 255.54)">C</text></g><g id="ID000049"><text class="cls-1" transform="translate(349.46 264.76)">C</text></g><g id="ID000050"><line class="cls-3" x1="359.56" y1="263.7" x2="365.72" y2="267.63"/></g><g id="ID000051"><text class="cls-4" transform="translate(365.72 272.62)">70</text></g><g id="ID000052"><text class="cls-1" transform="translate(343.57 273.99)">C</text></g><g id="ID000053"><text class="cls-5" transform="translate(337.98 283.21)">A</text></g><g id="ID000054"><text class="cls-1" transform="translate(331.48 292.44)">G</text></g><g id="ID000055"><text class="cls-5" transform="translate(329.34 306.92)">A</text></g><g id="ID000056"><line class="cls-3" x1="320.98" y1="278.03" x2="332.05" y2="285.1"/></g><g id="ID000057"><line class="cls-3" x1="326.87" y1="268.8" x2="337.94" y2="275.87"/></g><g id="ID000058"><line class="cls-3" x1="332.76" y1="259.58" x2="343.83" y2="266.65"/></g><g id="ID000059"><line class="cls-3" x1="338.65" y1="250.35" x2="349.72" y2="257.42"/></g><g id="ID000060"><line class="cls-3" x1="344.54" y1="241.13" x2="355.62" y2="248.2"/></g><g id="ID000062"><text class="cls-1" transform="translate(343.24 218.58)">C</text></g><g id="ID000063"><text class="cls-6" transform="translate(358.35 215.24)">U</text></g><g id="ID000064"><text class="cls-6" transform="translate(363.94 206.02)">G</text></g><g id="ID000065"><text class="cls-6" transform="translate(370.14 196.79)">U</text></g><g id="ID000066"><text class="cls-6" transform="translate(376.03 187.57)">C</text></g><g id="ID000067"><text class="cls-6" transform="translate(381.61 178.34)">G</text></g><g id="ID000068"><text class="cls-6" transform="translate(387.81 169.11)">U</text></g><g id="ID000069"><line class="cls-3" x1="385.61" y1="160.2" x2="379.46" y2="156.27"/></g><g id="ID000070"><text class="cls-4" transform="translate(367.28 161.26)">30</text></g><g id="ID000071"><text class="cls-6" transform="translate(406.26 180.9)">U</text></g><g id="ID000072"><line class="cls-3" x1="416.36" y1="179.84" x2="422.52" y2="183.76"/></g><g id="ID000073"><text class="cls-4" transform="translate(422.52 188.75)">60</text></g><g id="ID000074"><text class="cls-6" transform="translate(400.37 190.12)">U</text></g><g id="ID000075"><text class="cls-6" transform="translate(394.17 199.35)">G</text></g><g id="ID000076"><text class="cls-6" transform="translate(388.28 208.57)">G</text></g><g id="ID000077"><text class="cls-1" transform="translate(382.7 217.8)">C</text></g><g id="ID000078"><text class="cls-5" transform="translate(377.11 227.03)">A</text></g><g id="ID000079"><text class="cls-1" transform="translate(381.61 239.84)">U</text></g><g id="ID000080"><line class="cls-3" x1="366" y1="212.61" x2="377.07" y2="219.68"/></g><g id="ID000081"><line class="cls-3" x1="371.89" y1="203.39" x2="382.96" y2="210.46"/></g><g id="ID000082"><polygon class="cls-7" points="385.16 198.87 385.23 198.75 385.29 198.63 385.35 198.5 385.4 198.37 385.44 198.24 385.47 198.1 385.49 197.97 385.5 197.83 385.5 197.69 385.5 197.55 385.49 197.41 385.46 197.28 385.43 197.14 385.39 197.01 385.34 196.88 385.29 196.75 385.23 196.63 385.15 196.51 385.07 196.39 384.99 196.28 384.89 196.18 384.8 196.08 384.69 195.99 384.58 195.91 384.46 195.83 384.34 195.76 384.22 195.7 384.09 195.65 383.96 195.6 383.82 195.57 383.69 195.54 383.55 195.52 383.41 195.51 383.27 195.51 383.13 195.51 383 195.53 382.86 195.55 382.73 195.59 382.59 195.63 382.46 195.68 382.34 195.74 382.21 195.8 382.1 195.88 381.98 195.96 381.88 196.05 381.77 196.14 381.68 196.24 381.59 196.35 381.51 196.46 381.43 196.58 381.37 196.7 381.31 196.82 381.25 196.95 381.21 197.09 381.18 197.22 381.15 197.36 381.13 197.5 381.13 197.63 381.13 197.77 381.14 197.91 381.15 198.05 381.18 198.19 381.22 198.32 381.26 198.45 381.31 198.58 381.37 198.71 381.44 198.83 381.51 198.94 381.6 199.06 381.69 199.16 381.78 199.26 381.89 199.36 381.99 199.44 382.11 199.52 382.23 199.59 382.35 199.66 382.47 199.72 382.6 199.77 382.74 199.81 382.87 199.84 383.01 199.87 383.15 199.88 383.29 199.88 383.43 199.88 383.56 199.87 383.7 199.85 383.84 199.82 383.97 199.78 384.1 199.74 384.23 199.69 384.36 199.62 384.47 199.55 384.59 199.48 384.7 199.39 384.81 199.3 384.9 199.2 385 199.1 385.08 198.99 385.16 198.87"/></g><g id="ID000083"><line class="cls-3" x1="383.67" y1="184.94" x2="394.74" y2="192"/></g><g id="ID000084"><polygon class="cls-7" points="396.94 180.42 397.01 180.3 397.08 180.18 397.13 180.05 397.18 179.92 397.22 179.79 397.25 179.65 397.27 179.51 397.28 179.38 397.29 179.24 397.28 179.1 397.27 178.96 397.25 178.82 397.21 178.69 397.18 178.56 397.13 178.43 397.07 178.3 397.01 178.17 396.93 178.06 396.86 177.94 396.77 177.83 396.68 177.73 396.58 177.63 396.47 177.54 396.36 177.46 396.25 177.38 396.13 177.31 396 177.25 395.87 177.2 395.74 177.15 395.61 177.12 395.47 177.09 395.33 177.07 395.19 177.06 395.06 177.06 394.92 177.06 394.78 177.08 394.64 177.1 394.51 177.14 394.37 177.18 394.25 177.23 394.12 177.29 394 177.35 393.88 177.43 393.76 177.51 393.66 177.59 393.56 177.69 393.46 177.79 393.37 177.9 393.29 178.01 393.21 178.13 393.15 178.25 393.09 178.37 393.04 178.5 393 178.63 392.96 178.77 392.94 178.91 392.92 179.04 392.91 179.18 392.91 179.32 392.92 179.46 392.94 179.6 392.96 179.73 393 179.87 393.04 180 393.09 180.13 393.15 180.25 393.22 180.38 393.3 180.49 393.38 180.6 393.47 180.71 393.56 180.81 393.67 180.9 393.78 180.99 393.89 181.07 394.01 181.14 394.13 181.21 394.26 181.27 394.39 181.32 394.52 181.36 394.65 181.39 394.79 181.41 394.93 181.43 395.07 181.43 395.21 181.43 395.35 181.42 395.48 181.4 395.62 181.37 395.75 181.33 395.88 181.29 396.01 181.23 396.14 181.17 396.26 181.1 396.37 181.03 396.48 180.94 396.59 180.85 396.69 180.75 396.78 180.65 396.86 180.54 396.94 180.42"/></g><g id="ID000086"><text class="cls-6" transform="translate(393.7 159.89)">U</text></g><g id="ID000087"><text class="cls-6" transform="translate(399.59 150.66)">C</text></g><g id="ID000088"><text class="cls-6" transform="translate(405.18 141.44)">G</text></g><g id="ID000089"><text class="cls-6" transform="translate(400.67 128.62)">C</text></g><g id="ID000090"><text class="cls-6" transform="translate(423.93 153.22)">C</text></g><g id="ID000091"><text class="cls-6" transform="translate(417.74 162.44)">G</text></g><g id="ID000092"><text class="cls-6" transform="translate(411.85 171.67)">G</text></g><g id="ID000093"><line class="cls-3" x1="407.23" y1="148.03" x2="418.31" y2="155.1"/></g><g id="ID000094"><line class="cls-3" x1="413.13" y1="138.81" x2="424.2" y2="145.87"/></g><g id="ID000096"><text class="cls-6" transform="translate(412.85 129.9)">U</text></g><g id="ID000097"><text class="cls-6" transform="translate(418.43 120.68)">G</text></g><g id="ID000098"><text class="cls-6" transform="translate(424.63 111.45)">U</text></g><g id="ID000099"><text class="cls-6" transform="translate(430.52 102.23)">C</text></g><g id="ID000100"><text class="cls-6" transform="translate(448.97 114.01)">U</text></g><g id="ID000101"><text class="cls-8" transform="translate(443.38 123.23)">A</text></g><g id="ID000102"><text class="cls-6" transform="translate(437.19 132.46)">C</text></g><g id="ID000103"><text class="cls-8" transform="translate(431.6 141.69)">A</text></g><g id="ID000104"><line class="cls-3" x1="420.49" y1="127.27" x2="431.56" y2="134.34"/></g><g id="ID000105"><line class="cls-3" x1="426.38" y1="118.05" x2="437.45" y2="125.12"/></g><g id="ID000106"><line class="cls-3" x1="432.27" y1="108.82" x2="443.34" y2="115.89"/></g><g id="ID000108"><text class="cls-6" transform="translate(436.41 93)">U</text></g><g id="ID000109"><text class="cls-6" transform="translate(442.3 83.77)">U</text></g><g id="ID000110"><line class="cls-3" x1="440.1" y1="74.86" x2="433.95" y2="70.93"/></g><g id="ID000111"><text class="cls-4" transform="translate(421.78 75.92)">40</text></g><g id="ID000112"><text class="cls-6" transform="translate(447.89 74.55)">G</text></g><g id="ID000113"><text class="cls-6" transform="translate(447.17 60.9)">C</text></g><g id="ID000114"><text class="cls-6" transform="translate(448.44 48.73)">U</text></g><g id="ID000115"><text class="cls-8" transform="translate(460.72 40.14)">A</text></g><g id="ID000116"><text class="cls-6" transform="translate(474.06 39.12)">C</text></g><g id="ID000117"><text class="cls-6" transform="translate(485.29 46.48)">G</text></g><g id="ID000118"><text class="cls-6" transform="translate(492.71 60.76)">U</text></g><g id="ID000119"><text class="cls-6" transform="translate(489.96 75.24)">U</text></g><g id="ID000120"><text class="cls-8" transform="translate(482.06 82.99)">A</text></g><g id="ID000121"><text class="cls-6" transform="translate(466.64 86.33)">C</text></g><g id="ID000122"><line class="cls-3" x1="476.75" y1="85.27" x2="482.9" y2="89.2"/></g><g id="ID000123"><text class="cls-4" transform="translate(482.9 94.19)">50</text></g><g id="ID000124"><text class="cls-6" transform="translate(460.45 95.56)">G</text></g><g id="ID000125"><text class="cls-6" transform="translate(454.86 104.78)">U</text></g><g id="ID000126"><polygon class="cls-7" points="457.33 85.86 457.4 85.74 457.46 85.61 457.52 85.49 457.56 85.36 457.6 85.22 457.63 85.09 457.65 84.95 457.67 84.81 457.67 84.67 457.67 84.53 457.65 84.39 457.63 84.26 457.6 84.12 457.56 83.99 457.51 83.86 457.45 83.73 457.39 83.61 457.32 83.49 457.24 83.37 457.15 83.27 457.06 83.16 456.96 83.06 456.86 82.97 456.75 82.89 456.63 82.81 456.51 82.75 456.38 82.68 456.26 82.63 456.12 82.59 455.99 82.55 455.86 82.52 455.72 82.5 455.58 82.49 455.44 82.49 455.3 82.5 455.16 82.51 455.03 82.54 454.89 82.57 454.76 82.61 454.63 82.66 454.5 82.72 454.38 82.79 454.26 82.86 454.15 82.94 454.04 83.03 453.94 83.12 453.85 83.22 453.76 83.33 453.67 83.44 453.6 83.56 453.53 83.68 453.47 83.81 453.42 83.94 453.38 84.07 453.34 84.2 453.32 84.34 453.3 84.48 453.29 84.61 453.29 84.75 453.3 84.89 453.32 85.03 453.35 85.17 453.38 85.3 453.43 85.43 453.48 85.56 453.54 85.69 453.61 85.81 453.68 85.92 453.76 86.04 453.85 86.14 453.95 86.24 454.05 86.34 454.16 86.42 454.27 86.5 454.39 86.58 454.51 86.64 454.64 86.7 454.77 86.75 454.9 86.79 455.04 86.82 455.18 86.85 455.31 86.86 455.45 86.87 455.59 86.86 455.73 86.85 455.87 86.83 456 86.8 456.14 86.77 456.27 86.72 456.39 86.67 456.52 86.61 456.64 86.53 456.75 86.46 456.87 86.37 456.97 86.28 457.07 86.18 457.16 86.08 457.25 85.97 457.33 85.86"/></g><g id="ID000127"><line class="cls-3" x1="455.84" y1="71.92" x2="466.91" y2="78.99"/></g></g></g><text class="cls-9" transform="translate(233.53 332.67)">5<tspan class="cls-10" x="6.67" y="0">’</tspan></text><text class="cls-9" transform="translate(249.17 357.96)">3<tspan class="cls-10" x="6.67" y="0">’</tspan></text><text class="cls-11" transform="translate(269.49 60.76)">aptamer 1</text></svg>