<svg id="图层_1" data-name="图层 1" xmlns="http://www.w3.org/2000/svg" viewBox="0 0 800 400"><defs><style>.cls-1,.cls-10,.cls-12,.cls-13,.cls-14,.cls-15,.cls-2,.cls-3,.cls-5,.cls-6,.cls-7{isolation:isolate;}.cls-1,.cls-10,.cls-12,.cls-13,.cls-14,.cls-2,.cls-3,.cls-5,.cls-6,.cls-7{font-size:15.1px;font-family:Helvetica;}.cls-1,.cls-2{fill:#b83332;}.cls-10,.cls-2,.cls-7{letter-spacing:-0.15em;}.cls-10,.cls-14,.cls-3{fill:#c2b617;}.cls-4,.cls-8{fill:none;}.cls-11,.cls-4,.cls-8,.cls-9{stroke:#000;stroke-miterlimit:3.05;}.cls-6,.cls-7{fill:#084595;}.cls-8{stroke-width:0.76px;}.cls-9{stroke-width:0.25px;}.cls-12,.cls-13{fill:#cf3e7d;}.cls-13,.cls-14{letter-spacing:-0.15em;}.cls-15,.cls-16{font-size:20px;font-family:ArialMT, Arial;}.cls-17{letter-spacing:-0.04em;}</style></defs><g id="ID000002"><text class="cls-1" transform="translate(288.32 339.97) scale(1.16 1)">G</text></g><g id="ID000003"><text class="cls-1" transform="translate(270.29 339.97) scale(1.16 1)">G</text></g><g id="ID000004"><text class="cls-1" transform="translate(252.25 339.97) scale(1.16 1)">G</text></g><g id="ID000005"><text class="cls-2" transform="translate(235.18 339.97) scale(1.16 1)">A</text></g><g id="ID000006"><text class="cls-1" transform="translate(216.65 339.97) scale(1.16 1)">U</text></g><g id="ID000007"><text class="cls-1" transform="translate(198.13 339.97) scale(1.16 1)">G</text></g><g id="ID000008"><text class="cls-1" transform="translate(180.57 339.97) scale(1.16 1)">C</text></g><g id="ID000009"><text class="cls-3" transform="translate(162.53 343.87) scale(1.16 1)">U</text></g><g id="ID000010"><text class="cls-3" transform="translate(144.48 332.16) scale(1.16 1)">U</text></g><g id="ID000011"><text class="cls-3" transform="translate(144.48 312.63) scale(1.16 1)">C</text></g><g id="ID000012"><line class="cls-4" x1="150.78" y1="295.18" x2="150.78" y2="284.77"/></g><g id="ID000013"><text class="cls-5" transform="translate(141.09 280.87) scale(1.16 1)">10</text></g><g id="ID000014"><text class="cls-3" transform="translate(162.04 300.91) scale(1.16 1)">G</text></g><g id="ID000015"><text class="cls-1" transform="translate(180.09 308.72) scale(1.16 1)">G</text></g><g id="ID000016"><text class="cls-1" transform="translate(198.61 308.72) scale(1.16 1)">C</text></g><g id="ID000017"><text class="cls-2" transform="translate(217.13 308.72) scale(1.16 1)">A</text></g><g id="ID000018"><text class="cls-1" transform="translate(234.69 308.72) scale(1.16 1)">U</text></g><g id="ID000019"><text class="cls-1" transform="translate(252.74 308.72) scale(1.16 1)">C</text></g><g id="ID000020"><text class="cls-1" transform="translate(270.77 308.72) scale(1.16 1)">C</text></g><g id="ID000021"><text class="cls-1" transform="translate(288.81 308.72) scale(1.16 1)">C</text></g><g id="ID000022"><line class="cls-4" x1="295.11" y1="327.69" x2="295.11" y2="308.94"/></g><g id="ID000023"><line class="cls-4" x1="277.06" y1="327.69" x2="277.06" y2="308.94"/></g><g id="ID000024"><line class="cls-4" x1="259.03" y1="327.69" x2="259.03" y2="308.94"/></g><g id="ID000025"><line class="cls-4" x1="240.99" y1="327.69" x2="240.99" y2="308.94"/></g><g id="ID000026"><line class="cls-4" x1="222.95" y1="327.69" x2="222.95" y2="308.94"/></g><g id="ID000027"><line class="cls-4" x1="204.9" y1="327.69" x2="204.9" y2="308.94"/></g><g id="ID000028"><line class="cls-4" x1="186.86" y1="327.69" x2="186.86" y2="308.94"/></g><g id="ID000030"><text class="cls-6" transform="translate(306.86 293.11) scale(1.16 1)">C</text></g><g id="ID000031"><text class="cls-6" transform="translate(306.38 277.48) scale(1.16 1)">G</text></g><g id="ID000032"><line class="cls-4" x1="301.13" y1="272.44" x2="289.09" y2="272.44"/></g><g id="ID000033"><text class="cls-5" transform="translate(267.4 277.62) scale(1.16 1)">20</text></g><g id="ID000034"><text class="cls-7" transform="translate(307.34 261.86) scale(1.16 1)">A</text></g><g id="ID000035"><text class="cls-7" transform="translate(307.34 246.23) scale(1.16 1)">A</text></g><g id="ID000036"><text class="cls-6" transform="translate(306.38 230.61) scale(1.16 1)">G</text></g><g id="ID000037"><text class="cls-6" transform="translate(306.86 214.99) scale(1.16 1)">C</text></g><g id="ID000038"><text class="cls-6" transform="translate(306.86 199.38) scale(1.16 1)">C</text></g><g id="ID000039"><text class="cls-6" transform="translate(306.38 183.75) scale(1.16 1)">G</text></g><g id="ID000040"><text class="cls-6" transform="translate(306.86 168.13) scale(1.16 1)">C</text></g><g id="ID000041"><text class="cls-3" transform="translate(356.48 156.41) scale(1.16 1)">C</text></g><g id="ID000042"><text class="cls-6" transform="translate(342.45 168.13) scale(1.16 1)">G</text></g><g id="ID000043"><text class="cls-6" transform="translate(342.94 183.75) scale(1.16 1)">C</text></g><g id="ID000044"><text class="cls-6" transform="translate(342.45 199.38) scale(1.16 1)">G</text></g><g id="ID000045"><text class="cls-6" transform="translate(342.45 214.99) scale(1.16 1)">G</text></g><g id="ID000046"><text class="cls-6" transform="translate(342.94 230.61) scale(1.16 1)">C</text></g><g id="ID000047"><text class="cls-6" transform="translate(342.94 246.23) scale(1.16 1)">U</text></g><g id="ID000048"><text class="cls-6" transform="translate(342.94 261.86) scale(1.16 1)">U</text></g><g id="ID000049"><text class="cls-6" transform="translate(342.94 277.48) scale(1.16 1)">C</text></g><g id="ID000050"><text class="cls-6" transform="translate(342.45 293.11) scale(1.16 1)">G</text></g><g id="ID000051"><line class="cls-4" x1="349.23" y1="296.49" x2="349.23" y2="306.9"/></g><g id="ID000052"><text class="cls-5" transform="translate(340.09 321.32) scale(1.16 1)">50</text></g><g id="ID000053"><text class="cls-3" transform="translate(365.01 300.91) scale(1.16 1)">G</text></g><g id="ID000054"><line class="cls-4" x1="320.37" y1="287.07" x2="342.02" y2="287.07"/></g><g id="ID000055"><line class="cls-4" x1="320.37" y1="271.44" x2="342.02" y2="271.44"/></g><g id="ID000056"><line class="cls-4" x1="320.37" y1="255.83" x2="342.02" y2="255.83"/></g><g id="ID000057"><line class="cls-4" x1="320.37" y1="240.21" x2="342.02" y2="240.21"/></g><g id="ID000058"><line class="cls-4" x1="320.37" y1="224.58" x2="342.02" y2="224.58"/></g><g id="ID000059"><line class="cls-4" x1="320.37" y1="208.96" x2="342.02" y2="208.96"/></g><g id="ID000060"><line class="cls-4" x1="320.37" y1="193.34" x2="342.02" y2="193.34"/></g><g id="ID000061"><line class="cls-4" x1="320.37" y1="177.72" x2="342.02" y2="177.72"/></g><g id="ID000062"><line class="cls-8" x1="313.16" y1="154.85" x2="313.16" y2="124.38"/></g><g id="ID000063"><polygon class="cls-9" points="307.74 144.82 310.45 142.22 311.35 139.62 311.79 137.02 313.16 131.8 314.51 137.02 314.95 139.62 315.86 142.22 318.56 144.82 307.74 144.82"/></g><g id="ID000064"><line class="cls-4" x1="320.37" y1="162.1" x2="342.02" y2="162.1"/></g><g id="ID000066"><text class="cls-6" transform="translate(306.86 125.17) scale(1.16 1)">U</text></g><g id="ID000067"><text class="cls-7" transform="translate(307.34 109.55) scale(1.16 1)">A</text></g><g id="ID000068"><text class="cls-6" transform="translate(306.86 93.92) scale(1.16 1)">U</text></g><g id="ID000069"><line class="cls-4" x1="301.13" y1="86.89" x2="289.09" y2="86.89"/></g><g id="ID000070"><text class="cls-5" transform="translate(266.77 92.15) scale(1.16 1)">30</text></g><g id="ID000071"><text class="cls-3" transform="translate(301.86 78.3) scale(1.16 1)">G</text></g><g id="ID000072"><text class="cls-3" transform="translate(297.35 62.69) scale(1.16 1)">G</text></g><g id="ID000073"><text class="cls-10" transform="translate(315.55 50.97) scale(1.16 1)">A</text></g><g id="ID000074"><text class="cls-3" transform="translate(334.73 50.97) scale(1.16 1)">C</text></g><g id="ID000075"><text class="cls-3" transform="translate(351.96 62.69) scale(1.16 1)">C</text></g><g id="ID000076"><text class="cls-10" transform="translate(347.94 78.3) scale(1.16 1)">A</text></g><g id="ID000077"><text class="cls-6" transform="translate(342.45 93.92) scale(1.16 1)">G</text></g><g id="ID000078"><text class="cls-6" transform="translate(342.94 109.55) scale(1.16 1)">U</text></g><g id="ID000079"><text class="cls-6" transform="translate(342.45 125.17) scale(1.16 1)">G</text></g><g id="ID000080"><text class="cls-3" transform="translate(355.99 138.02) scale(1.16 1)">G</text></g><g id="ID000081"><line class="cls-4" x1="374.79" y1="131.85" x2="386.82" y2="131.85"/></g><g id="ID000082"><text class="cls-5" transform="translate(388.81 136.16) scale(1.16 1)">40</text></g><g id="ID000083"><polygon class="cls-11" points="334.8 119.27 334.79 119.08 334.77 118.87 334.73 118.68 334.68 118.49 334.62 118.29 334.55 118.11 334.45 117.93 334.34 117.75 334.23 117.58 334.1 117.42 333.96 117.26 333.8 117.11 333.65 116.98 333.46 116.85 333.29 116.73 333.1 116.61 332.9 116.51 332.69 116.43 332.48 116.35 332.27 116.29 332.05 116.24 331.82 116.2 331.59 116.16 331.36 116.15 331.13 116.15 330.9 116.16 330.68 116.18 330.46 116.22 330.23 116.26 330.01 116.32 329.8 116.39 329.59 116.47 329.4 116.57 329.2 116.67 329.01 116.78 328.83 116.91 328.66 117.05 328.51 117.19 328.36 117.34 328.22 117.5 328.1 117.67 327.98 117.84 327.89 118.02 327.8 118.2 327.73 118.4 327.67 118.59 327.63 118.78 327.6 118.97 327.58 119.18 327.58 119.37 327.6 119.58 327.63 119.77 327.67 119.96 327.73 120.15 327.8 120.35 327.89 120.53 327.98 120.71 328.1 120.88 328.22 121.04 328.36 121.21 328.51 121.36 328.66 121.5 328.83 121.63 329.01 121.75 329.2 121.88 329.4 121.98 329.59 122.07 329.8 122.15 330.01 122.23 330.23 122.29 330.46 122.33 330.68 122.37 330.9 122.39 331.13 122.4 331.36 122.39 331.59 122.38 331.82 122.34 332.05 122.31 332.27 122.25 332.48 122.19 332.69 122.12 332.9 122.02 333.1 121.92 333.29 121.82 333.46 121.7 333.65 121.57 333.8 121.42 333.96 121.28 334.1 121.13 334.23 120.96 334.34 120.79 334.45 120.62 334.55 120.44 334.62 120.25 334.68 120.05 334.73 119.86 334.77 119.67 334.79 119.47 334.8 119.27"/></g><g id="ID000084"><line class="cls-4" x1="320.37" y1="103.52" x2="342.02" y2="103.52"/></g><g id="ID000085"><polygon class="cls-11" points="334.8 88.03 334.79 87.83 334.77 87.64 334.73 87.43 334.68 87.24 334.62 87.06 334.55 86.87 334.45 86.68 334.34 86.51 334.23 86.34 334.1 86.17 333.96 86.02 333.8 85.87 333.65 85.73 333.46 85.61 333.29 85.48 333.1 85.37 332.9 85.28 332.69 85.19 332.48 85.11 332.27 85.04 332.05 84.99 331.82 84.95 331.59 84.93 331.36 84.9 331.13 84.9 330.9 84.91 330.68 84.94 330.46 84.97 330.23 85.02 330.01 85.07 329.8 85.14 329.59 85.23 329.4 85.32 329.2 85.42 329.01 85.54 328.83 85.66 328.66 85.8 328.51 85.95 328.36 86.09 328.22 86.25 328.1 86.42 327.98 86.59 327.89 86.77 327.8 86.96 327.73 87.15 327.67 87.34 327.63 87.53 327.6 87.73 327.58 87.93 327.58 88.12 327.6 88.33 327.63 88.52 327.67 88.71 327.73 88.91 327.8 89.1 327.89 89.28 327.98 89.46 328.1 89.63 328.22 89.8 328.36 89.96 328.51 90.11 328.66 90.26 328.83 90.39 329.01 90.52 329.2 90.63 329.4 90.73 329.59 90.82 329.8 90.91 330.01 90.98 330.23 91.04 330.46 91.08 330.68 91.12 330.9 91.14 331.13 91.15 331.36 91.15 331.59 91.13 331.82 91.11 332.05 91.06 332.27 91.02 332.48 90.95 332.69 90.87 332.9 90.78 333.1 90.69 333.29 90.57 333.46 90.45 333.65 90.33 333.8 90.19 333.96 90.04 334.1 89.88 334.23 89.71 334.34 89.55 334.45 89.37 334.55 89.19 334.62 89.01 334.68 88.82 334.73 88.62 334.77 88.42 334.79 88.23 334.8 88.03"/></g><g id="ID000087"><text class="cls-6" transform="translate(388.04 293.11) scale(1.16 1)">C</text></g><g id="ID000088"><text class="cls-6" transform="translate(388.04 277.48) scale(1.16 1)">C</text></g><g id="ID000089"><text class="cls-3" transform="translate(383.53 261.86) scale(1.16 1)">C</text></g><g id="ID000090"><text class="cls-3" transform="translate(396.58 246.23) scale(1.16 1)">G</text></g><g id="ID000091"><text class="cls-10" transform="translate(415.58 246.23) scale(1.16 1)">A</text></g><g id="ID000092"><text class="cls-3" transform="translate(428.64 261.86) scale(1.16 1)">C</text></g><g id="ID000093"><text class="cls-6" transform="translate(423.64 277.48) scale(1.16 1)">G</text></g><g id="ID000094"><text class="cls-6" transform="translate(423.64 293.11) scale(1.16 1)">G</text></g><g id="ID000095"><text class="cls-10" transform="translate(433.63 308.72) scale(1.16 1)">A</text></g><g id="ID000096"><line class="cls-4" x1="427.42" y1="301.69" x2="415.39" y2="301.69"/></g><g id="ID000097"><text class="cls-5" transform="translate(395.27 306.9) scale(1.16 1)">60</text></g><g id="ID000098"><text class="cls-3" transform="translate(446.19 297.01) scale(1.16 1)">G</text></g><g id="ID000099"><line class="cls-4" x1="401.56" y1="287.07" x2="423.21" y2="287.07"/></g><g id="ID000100"><line class="cls-4" x1="401.56" y1="271.44" x2="423.21" y2="271.44"/></g><g id="ID000102"><text class="cls-3" transform="translate(469.23 297.01) scale(1.16 1)">U</text></g><g id="ID000103"><text class="cls-3" transform="translate(486.78 308.72) scale(1.16 1)">G</text></g><g id="ID000104"><text class="cls-12" transform="translate(504.83 316.53) scale(1.16 1)">G</text></g><g id="ID000105"><text class="cls-12" transform="translate(523.36 316.53) scale(1.16 1)">U</text></g><g id="ID000106"><text class="cls-13" transform="translate(541.88 316.53) scale(1.16 1)">A</text></g><g id="ID000107"><text class="cls-12" transform="translate(559.44 316.53) scale(1.16 1)">C</text></g><g id="ID000108"><text class="cls-12" transform="translate(577.48 316.53) scale(1.16 1)">C</text></g><g id="ID000109"><text class="cls-12" transform="translate(595.03 316.53) scale(1.16 1)">G</text></g><g id="ID000110"><text class="cls-12" transform="translate(613.56 316.53) scale(1.16 1)">C</text></g><g id="ID000111"><line class="cls-4" x1="619.85" y1="299.08" x2="619.85" y2="288.67"/></g><g id="ID000112"><text class="cls-5" transform="translate(610.8 286.17) scale(1.16 1)">70</text></g><g id="ID000113"><text class="cls-3" transform="translate(630.78 308.72) scale(1.16 1)">U</text></g><g id="ID000114"><text class="cls-3" transform="translate(648.82 320.44) scale(1.16 1)">U</text></g><g id="ID000115"><text class="cls-3" transform="translate(648.82 339.97) scale(1.16 1)">C</text></g><g id="ID000116"><text class="cls-3" transform="translate(631.11 355.59) scale(1.16 1)">G</text></g><g id="ID000117"><text class="cls-12" transform="translate(613.07 347.77) scale(1.16 1)">G</text></g><g id="ID000118"><text class="cls-12" transform="translate(595.52 347.77) scale(1.16 1)">C</text></g><g id="ID000119"><text class="cls-12" transform="translate(577 347.77) scale(1.16 1)">G</text></g><g id="ID000120"><text class="cls-12" transform="translate(558.95 347.77) scale(1.16 1)">G</text></g><g id="ID000121"><text class="cls-12" transform="translate(541.4 347.77) scale(1.16 1)">U</text></g><g id="ID000122"><text class="cls-13" transform="translate(523.83 347.77) scale(1.16 1)">A</text></g><g id="ID000123"><line class="cls-4" x1="529.65" y1="351.16" x2="529.65" y2="361.58"/></g><g id="ID000124"><text class="cls-5" transform="translate(520.51 375.9) scale(1.16 1)">80</text></g><g id="ID000125"><text class="cls-12" transform="translate(505.31 347.77) scale(1.16 1)">C</text></g><g id="ID000126"><text class="cls-3" transform="translate(486.78 355.59) scale(1.16 1)">G</text></g><g id="ID000127"><text class="cls-3" transform="translate(469.23 367.3) scale(1.16 1)">U</text></g><g id="ID000128"><text class="cls-14" transform="translate(451.67 367.3) scale(1.16 1)">A</text></g><g id="ID000129"><text class="cls-10" transform="translate(433.63 367.3) scale(1.16 1)">A</text></g><g id="ID000130"><text class="cls-3" transform="translate(414.62 367.3) scale(1.16 1)">G</text></g><g id="ID000131"><text class="cls-3" transform="translate(397.07 367.3) scale(1.16 1)">C</text></g><g id="ID000132"><text class="cls-3" transform="translate(379.03 367.3) scale(1.16 1)">U</text></g><g id="ID000133"><text class="cls-3" transform="translate(360.98 367.3) scale(1.16 1)">U</text></g><g id="ID000134"><text class="cls-3" transform="translate(342.45 367.3) scale(1.16 1)">G</text></g><g id="ID000135"><line class="cls-4" x1="349.23" y1="370.68" x2="349.23" y2="381.11"/></g><g id="ID000136"><text class="cls-5" transform="translate(340.09 395.31) scale(1.16 1)">90</text></g><g id="ID000137"><text class="cls-3" transform="translate(324.42 367.3) scale(1.16 1)">G</text></g><g id="ID000138"><text class="cls-3" transform="translate(306.38 367.3) scale(1.16 1)">G</text></g><g id="ID000139"><line class="cls-4" x1="511.61" y1="316.76" x2="511.61" y2="335.5"/></g><g id="ID000140"><line class="cls-4" x1="529.65" y1="316.76" x2="529.65" y2="335.5"/></g><g id="ID000141"><line class="cls-4" x1="547.68" y1="316.76" x2="547.68" y2="335.5"/></g><g id="ID000142"><line class="cls-4" x1="565.73" y1="316.76" x2="565.73" y2="335.5"/></g><g id="ID000143"><line class="cls-4" x1="583.78" y1="316.76" x2="583.78" y2="335.5"/></g><g id="ID000144"><line class="cls-4" x1="601.81" y1="316.76" x2="601.81" y2="335.5"/></g><g id="ID000145"><line class="cls-4" x1="619.85" y1="316.76" x2="619.85" y2="335.5"/></g><text class="cls-15" transform="translate(324.65 18.43)">B.2 aptamer</text><text class="cls-16" transform="translate(309.49 340.5)">5<tspan class="cls-17" x="11.12" y="0">’</tspan></text><text class="cls-16" transform="translate(286.11 370.68)">3<tspan class="cls-17" x="11.12" y="0">’</tspan></text></svg>