<svg id="图层_1" data-name="图层 1" xmlns="http://www.w3.org/2000/svg" viewBox="0 0 800 400"><defs><style>.cls-1,.cls-10,.cls-12,.cls-13,.cls-14,.cls-15,.cls-2,.cls-3,.cls-5,.cls-6,.cls-7{isolation:isolate;font-size:13.31px;font-family:Helvetica;}.cls-1,.cls-2{fill:#228b22;}.cls-10,.cls-2,.cls-7{letter-spacing:-0.05em;}.cls-10,.cls-13,.cls-3{fill:#0a0bff;}.cls-4,.cls-8{fill:none;}.cls-11,.cls-4,.cls-8,.cls-9{stroke:#000;stroke-miterlimit:3.05;}.cls-11,.cls-4{stroke-width:0.38px;}.cls-6,.cls-7{fill:#ff870a;}.cls-8{stroke-width:0.76px;}.cls-9{stroke-width:0.25px;}.cls-12{fill:#c2c2ff;}.cls-13,.cls-15{letter-spacing:-0.05em;}.cls-14,.cls-15{fill:teal;}.cls-16{font-size:20px;font-family:ArialMT, Arial;}.cls-17{letter-spacing:-0.04em;}</style></defs><g id="topgroup"><g id="ID000000"><g id="ID000002"><text class="cls-1" transform="translate(271.7 329.35) scale(1.61 1)">G</text></g><g id="ID000003"><text class="cls-1" transform="translate(249.55 329.35) scale(1.61 1)">G</text></g><g id="ID000004"><text class="cls-1" transform="translate(227.39 329.35) scale(1.61 1)">G</text></g><g id="ID000005"><text class="cls-2" transform="translate(206.43 329.35) scale(1.61 1)">A</text></g><g id="ID000006"><text class="cls-1" transform="translate(183.68 329.35) scale(1.61 1)">U</text></g><g id="ID000007"><text class="cls-1" transform="translate(160.93 329.35) scale(1.61 1)">G</text></g><g id="ID000008"><text class="cls-1" transform="translate(139.36 329.35) scale(1.61 1)">C</text></g><g id="ID000009"><text class="cls-3" transform="translate(117.21 332.79) scale(1.61 1)">U</text></g><g id="ID000010"><text class="cls-3" transform="translate(95.05 322.46) scale(1.61 1)">U</text></g><g id="ID000011"><text class="cls-3" transform="translate(95.05 305.24) scale(1.61 1)">C</text></g><g id="ID000012"><line class="cls-4" x1="102.78" y1="289.86" x2="102.78" y2="280.68"/></g><g id="ID000013"><text class="cls-5" transform="translate(90.88 277.24) scale(1.61 1)">10</text></g><g id="ID000014"><text class="cls-3" transform="translate(116.61 294.91) scale(1.61 1)">G</text></g><g id="ID000015"><text class="cls-1" transform="translate(138.77 301.8) scale(1.61 1)">G</text></g><g id="ID000016"><text class="cls-1" transform="translate(161.52 301.8) scale(1.61 1)">C</text></g><g id="ID000017"><text class="cls-2" transform="translate(184.27 301.8) scale(1.61 1)">A</text></g><g id="ID000018"><text class="cls-1" transform="translate(205.83 301.8) scale(1.61 1)">U</text></g><g id="ID000019"><text class="cls-1" transform="translate(227.99 301.8) scale(1.61 1)">C</text></g><g id="ID000020"><text class="cls-1" transform="translate(250.14 301.8) scale(1.61 1)">C</text></g><g id="ID000021"><text class="cls-1" transform="translate(272.3 301.8) scale(1.61 1)">C</text></g><g id="ID000022"><line class="cls-4" x1="280.03" y1="317.64" x2="280.03" y2="301.11"/></g><g id="ID000023"><line class="cls-4" x1="257.87" y1="317.64" x2="257.87" y2="301.11"/></g><g id="ID000024"><line class="cls-4" x1="235.72" y1="317.64" x2="235.72" y2="301.11"/></g><g id="ID000025"><line class="cls-4" x1="213.56" y1="317.64" x2="213.56" y2="301.11"/></g><g id="ID000026"><line class="cls-4" x1="191.41" y1="317.64" x2="191.41" y2="301.11"/></g><g id="ID000027"><line class="cls-4" x1="169.25" y1="317.64" x2="169.25" y2="301.11"/></g><g id="ID000028"><line class="cls-4" x1="147.09" y1="317.64" x2="147.09" y2="301.11"/></g><g id="ID000030"><text class="cls-6" transform="translate(294.46 288.03) scale(1.61 1)">C</text></g><g id="ID000031"><text class="cls-6" transform="translate(293.86 274.25) scale(1.61 1)">G</text></g><g id="ID000032"><line class="cls-4" x1="287.42" y1="268.05" x2="272.64" y2="268.05"/></g><g id="ID000033"><text class="cls-5" transform="translate(248.84 274.25) scale(1.61 1)">20</text></g><g id="ID000034"><text class="cls-7" transform="translate(295.05 260.48) scale(1.61 1)">A</text></g><g id="ID000035"><text class="cls-7" transform="translate(295.05 246.7) scale(1.61 1)">A</text></g><g id="ID000036"><text class="cls-6" transform="translate(293.86 232.93) scale(1.61 1)">G</text></g><g id="ID000037"><text class="cls-6" transform="translate(294.46 219.16) scale(1.61 1)">C</text></g><g id="ID000038"><text class="cls-6" transform="translate(294.46 205.39) scale(1.61 1)">C</text></g><g id="ID000039"><text class="cls-6" transform="translate(293.86 191.61) scale(1.61 1)">G</text></g><g id="ID000040"><text class="cls-6" transform="translate(294.46 177.84) scale(1.61 1)">C</text></g><g id="ID000041"><text class="cls-3" transform="translate(355.39 167.51) scale(1.61 1)">C</text></g><g id="ID000042"><text class="cls-6" transform="translate(338.17 177.84) scale(1.61 1)">G</text></g><g id="ID000043"><text class="cls-6" transform="translate(338.77 191.61) scale(1.61 1)">C</text></g><g id="ID000044"><text class="cls-6" transform="translate(338.17 205.39) scale(1.61 1)">G</text></g><g id="ID000045"><text class="cls-6" transform="translate(338.17 219.16) scale(1.61 1)">G</text></g><g id="ID000046"><text class="cls-6" transform="translate(338.77 232.93) scale(1.61 1)">C</text></g><g id="ID000047"><text class="cls-6" transform="translate(338.77 246.7) scale(1.61 1)">U</text></g><g id="ID000048"><text class="cls-6" transform="translate(338.77 260.48) scale(1.61 1)">U</text></g><g id="ID000049"><text class="cls-6" transform="translate(338.77 274.25) scale(1.61 1)">C</text></g><g id="ID000050"><text class="cls-6" transform="translate(338.17 288.03) scale(1.61 1)">G</text></g><g id="ID000051"><line class="cls-4" x1="346.5" y1="291.01" x2="346.5" y2="300.19"/></g><g id="ID000052"><text class="cls-5" transform="translate(334.59 316.44) scale(1.61 1)">50</text></g><g id="ID000053"><text class="cls-3" transform="translate(365.87 294.91) scale(1.61 1)">G</text></g><g id="ID000054"><line class="cls-4" x1="311.05" y1="281.83" x2="337.64" y2="281.83"/></g><g id="ID000055"><line class="cls-4" x1="311.05" y1="268.05" x2="337.64" y2="268.05"/></g><g id="ID000056"><line class="cls-4" x1="311.05" y1="254.28" x2="337.64" y2="254.28"/></g><g id="ID000057"><line class="cls-4" x1="311.05" y1="240.51" x2="337.64" y2="240.51"/></g><g id="ID000058"><line class="cls-4" x1="311.05" y1="226.73" x2="337.64" y2="226.73"/></g><g id="ID000059"><line class="cls-4" x1="311.05" y1="212.96" x2="337.64" y2="212.96"/></g><g id="ID000060"><line class="cls-4" x1="311.05" y1="199.19" x2="337.64" y2="199.19"/></g><g id="ID000061"><line class="cls-4" x1="311.05" y1="185.41" x2="337.64" y2="185.41"/></g><g id="ID000062"><line class="cls-8" x1="302.19" y1="166.13" x2="302.19" y2="139.27"/></g><g id="ID000063"><polygon class="cls-9" points="295.54 157.29 298.86 155 299.97 152.7 300.52 150.41 302.19 145.81 303.85 150.41 304.4 152.7 305.51 155 308.83 157.29 295.54 157.29"/></g><g id="ID000064"><line class="cls-4" x1="311.05" y1="171.64" x2="337.64" y2="171.64"/></g><g id="ID000066"><text class="cls-6" transform="translate(294.46 139.96) scale(1.61 1)">U</text></g><g id="ID000067"><text class="cls-7" transform="translate(295.05 126.19) scale(1.61 1)">A</text></g><g id="ID000068"><text class="cls-6" transform="translate(294.46 112.41) scale(1.61 1)">U</text></g><g id="ID000069"><line class="cls-4" x1="287.42" y1="106.21" x2="272.64" y2="106.21"/></g><g id="ID000070"><text class="cls-5" transform="translate(248.84 112.41) scale(1.61 1)">30</text></g><g id="ID000071"><text class="cls-3" transform="translate(288.32 98.64) scale(1.61 1)">G</text></g><g id="ID000072"><text class="cls-3" transform="translate(282.78 84.87) scale(1.61 1)">G</text></g><g id="ID000073"><text class="cls-10" transform="translate(305.13 74.54) scale(1.61 1)">A</text></g><g id="ID000074"><text class="cls-3" transform="translate(328.69 74.54) scale(1.61 1)">C</text></g><g id="ID000075"><text class="cls-3" transform="translate(349.84 84.87) scale(1.61 1)">C</text></g><g id="ID000076"><text class="cls-10" transform="translate(344.9 98.64) scale(1.61 1)">A</text></g><g id="ID000077"><text class="cls-6" transform="translate(338.17 112.41) scale(1.61 1)">G</text></g><g id="ID000078"><text class="cls-6" transform="translate(338.77 126.19) scale(1.61 1)">U</text></g><g id="ID000079"><text class="cls-6" transform="translate(338.17 139.96) scale(1.61 1)">G</text></g><g id="ID000080"><text class="cls-3" transform="translate(354.79 151.29) scale(1.61 1)">G</text></g><g id="ID000081"><line class="cls-4" x1="377.88" y1="144.09" x2="392.66" y2="144.09"/></g><g id="ID000082"><text class="cls-5" transform="translate(392.66 150.29) scale(1.61 1)">40</text></g><g id="ID000083"><polygon class="cls-11" points="328.77 134.76 328.76 134.59 328.74 134.41 328.69 134.24 328.63 134.07 328.55 133.9 328.46 133.74 328.34 133.58 328.21 133.42 328.07 133.27 327.91 133.13 327.74 132.99 327.55 132.86 327.35 132.74 327.13 132.63 326.91 132.52 326.68 132.42 326.43 132.33 326.18 132.26 325.92 132.19 325.66 132.13 325.39 132.09 325.11 132.05 324.83 132.02 324.55 132.01 324.27 132.01 323.99 132.02 323.71 132.04 323.44 132.07 323.16 132.11 322.89 132.16 322.63 132.22 322.38 132.29 322.13 132.38 321.89 132.47 321.66 132.57 321.44 132.68 321.23 132.8 321.04 132.93 320.86 133.06 320.69 133.2 320.54 133.35 320.4 133.5 320.28 133.66 320.18 133.82 320.09 133.99 320.02 134.16 319.97 134.33 319.93 134.5 319.91 134.68 319.91 134.85 319.93 135.03 319.97 135.2 320.02 135.37 320.09 135.54 320.18 135.71 320.28 135.87 320.4 136.03 320.54 136.18 320.69 136.32 320.86 136.47 321.04 136.6 321.23 136.73 321.44 136.84 321.66 136.95 321.89 137.06 322.13 137.15 322.38 137.23 322.63 137.3 322.89 137.37 323.16 137.42 323.44 137.46 323.71 137.49 323.99 137.51 324.27 137.52 324.55 137.51 324.83 137.5 325.11 137.47 325.39 137.44 325.66 137.39 325.92 137.34 326.18 137.27 326.43 137.19 326.68 137.1 326.91 137.01 327.13 136.9 327.35 136.79 327.55 136.66 327.74 136.53 327.91 136.4 328.07 136.25 328.21 136.1 328.34 135.95 328.46 135.79 328.55 135.62 328.63 135.45 328.69 135.28 328.74 135.11 328.76 134.94 328.77 134.76"/></g><g id="ID000084"><line class="cls-4" x1="311.05" y1="119.99" x2="337.64" y2="119.99"/></g><g id="ID000085"><polygon class="cls-11" points="328.77 107.22 328.76 107.04 328.74 106.87 328.69 106.69 328.63 106.52 328.55 106.36 328.46 106.19 328.34 106.03 328.21 105.88 328.07 105.73 327.91 105.58 327.74 105.44 327.55 105.31 327.35 105.19 327.13 105.08 326.91 104.97 326.68 104.87 326.43 104.79 326.18 104.71 325.92 104.64 325.66 104.58 325.39 104.54 325.11 104.5 324.83 104.48 324.55 104.46 324.27 104.46 323.99 104.47 323.71 104.49 323.44 104.52 323.16 104.56 322.89 104.61 322.63 104.67 322.38 104.75 322.13 104.83 321.89 104.92 321.66 105.02 321.44 105.13 321.23 105.25 321.04 105.38 320.86 105.51 320.69 105.65 320.54 105.8 320.4 105.95 320.28 106.11 320.18 106.27 320.09 106.44 320.02 106.61 319.97 106.78 319.93 106.95 319.91 107.13 319.91 107.3 319.93 107.48 319.97 107.65 320.02 107.82 320.09 107.99 320.18 108.16 320.28 108.32 320.4 108.48 320.54 108.63 320.69 108.78 320.86 108.92 321.04 109.05 321.23 109.18 321.44 109.3 321.66 109.41 321.89 109.51 322.13 109.6 322.38 109.68 322.63 109.76 322.89 109.82 323.16 109.87 323.44 109.91 323.71 109.94 323.99 109.96 324.27 109.97 324.55 109.97 324.83 109.95 325.11 109.93 325.39 109.89 325.66 109.85 325.92 109.79 326.18 109.72 326.43 109.64 326.68 109.56 326.91 109.46 327.13 109.35 327.35 109.24 327.55 109.12 327.74 108.99 327.91 108.85 328.07 108.7 328.21 108.56 328.34 108.4 328.46 108.24 328.55 108.08 328.63 107.91 328.69 107.74 328.74 107.56 328.76 107.39 328.77 107.22"/></g><g id="ID000087"><text class="cls-12" transform="translate(394.16 288.03) scale(1.61 1)">C</text></g><g id="ID000088"><text class="cls-12" transform="translate(394.16 274.25) scale(1.61 1)">C</text></g><g id="ID000089"><text class="cls-3" transform="translate(388.62 260.48) scale(1.61 1)">C</text></g><g id="ID000090"><text class="cls-3" transform="translate(404.64 246.7) scale(1.61 1)">G</text></g><g id="ID000091"><text class="cls-13" transform="translate(427.98 246.7) scale(1.61 1)">A</text></g><g id="ID000092"><text class="cls-3" transform="translate(444.01 260.48) scale(1.61 1)">C</text></g><g id="ID000093"><text class="cls-12" transform="translate(437.87 274.25) scale(1.61 1)">G</text></g><g id="ID000094"><text class="cls-12" transform="translate(437.87 288.03) scale(1.61 1)">G</text></g><g id="ID000095"><text class="cls-13" transform="translate(450.14 301.8) scale(1.61 1)">A</text></g><g id="ID000096"><line class="cls-4" x1="442.51" y1="295.6" x2="427.74" y2="295.6"/></g><g id="ID000097"><text class="cls-5" transform="translate(403.93 301.8) scale(1.61 1)">60</text></g><g id="ID000098"><text class="cls-3" transform="translate(465.57 291.47) scale(1.61 1)">G</text></g><g id="ID000099"><line class="cls-4" x1="410.75" y1="281.83" x2="437.34" y2="281.83"/></g><g id="ID000100"><line class="cls-4" x1="410.75" y1="268.05" x2="437.34" y2="268.05"/></g><g id="ID000102"><text class="cls-3" transform="translate(493.86 291.47) scale(1.61 1)">U</text></g><g id="ID000103"><text class="cls-3" transform="translate(515.42 301.8) scale(1.61 1)">G</text></g><g id="ID000104"><text class="cls-14" transform="translate(537.58 308.68) scale(1.61 1)">G</text></g><g id="ID000105"><text class="cls-14" transform="translate(560.33 308.68) scale(1.61 1)">U</text></g><g id="ID000106"><text class="cls-15" transform="translate(583.08 308.68) scale(1.61 1)">A</text></g><g id="ID000107"><text class="cls-14" transform="translate(604.64 308.68) scale(1.61 1)">C</text></g><g id="ID000108"><text class="cls-14" transform="translate(626.8 308.68) scale(1.61 1)">C</text></g><g id="ID000109"><text class="cls-14" transform="translate(648.35 308.68) scale(1.61 1)">G</text></g><g id="ID000110"><text class="cls-14" transform="translate(671.11 308.68) scale(1.61 1)">C</text></g><g id="ID000111"><line class="cls-4" x1="678.84" y1="293.3" x2="678.84" y2="284.12"/></g><g id="ID000112"><text class="cls-5" transform="translate(666.93 280.68) scale(1.61 1)">70</text></g><g id="ID000113"><text class="cls-3" transform="translate(692.26 301.8) scale(1.61 1)">U</text></g><g id="ID000114"><text class="cls-3" transform="translate(714.42 312.13) scale(1.61 1)">U</text></g><g id="ID000115"><text class="cls-3" transform="translate(714.42 329.35) scale(1.61 1)">C</text></g><g id="ID000116"><text class="cls-3" transform="translate(692.67 343.12) scale(1.61 1)">G</text></g><g id="ID000117"><text class="cls-14" transform="translate(670.51 336.23) scale(1.61 1)">G</text></g><g id="ID000118"><text class="cls-14" transform="translate(648.95 336.23) scale(1.61 1)">C</text></g><g id="ID000119"><text class="cls-14" transform="translate(626.2 336.23) scale(1.61 1)">G</text></g><g id="ID000120"><text class="cls-14" transform="translate(604.05 336.23) scale(1.61 1)">G</text></g><g id="ID000121"><text class="cls-14" transform="translate(582.49 336.23) scale(1.61 1)">U</text></g><g id="ID000122"><text class="cls-15" transform="translate(560.92 336.23) scale(1.61 1)">A</text></g><g id="ID000123"><line class="cls-4" x1="568.06" y1="339.22" x2="568.06" y2="348.4"/></g><g id="ID000124"><text class="cls-5" transform="translate(556.15 364.65) scale(1.61 1)">80</text></g><g id="ID000125"><text class="cls-14" transform="translate(538.17 336.23) scale(1.61 1)">C</text></g><g id="ID000126"><text class="cls-3" transform="translate(515.42 343.12) scale(1.61 1)">G</text></g><g id="ID000127"><text class="cls-3" transform="translate(493.86 353.45) scale(1.61 1)">U</text></g><g id="ID000128"><text class="cls-13" transform="translate(472.3 353.45) scale(1.61 1)">A</text></g><g id="ID000129"><text class="cls-13" transform="translate(450.14 353.45) scale(1.61 1)">A</text></g><g id="ID000130"><text class="cls-3" transform="translate(426.8 353.45) scale(1.61 1)">G</text></g><g id="ID000131"><text class="cls-3" transform="translate(405.24 353.45) scale(1.61 1)">C</text></g><g id="ID000132"><text class="cls-3" transform="translate(383.08 353.45) scale(1.61 1)">U</text></g><g id="ID000133"><text class="cls-3" transform="translate(360.93 353.45) scale(1.61 1)">U</text></g><g id="ID000134"><text class="cls-3" transform="translate(338.17 353.45) scale(1.61 1)">G</text></g><g id="ID000135"><line class="cls-4" x1="346.5" y1="356.43" x2="346.5" y2="365.62"/></g><g id="ID000136"><text class="cls-5" transform="translate(334.59 381.87) scale(1.61 1)">90</text></g><g id="ID000137"><text class="cls-3" transform="translate(316.02 353.45) scale(1.61 1)">G</text></g><g id="ID000138"><text class="cls-3" transform="translate(293.86 353.45) scale(1.61 1)">G</text></g><g id="ID000139"><line class="cls-4" x1="545.9" y1="308" x2="545.9" y2="324.53"/></g><g id="ID000140"><line class="cls-4" x1="568.06" y1="308" x2="568.06" y2="324.53"/></g><g id="ID000141"><line class="cls-4" x1="590.21" y1="308" x2="590.21" y2="324.53"/></g><g id="ID000142"><line class="cls-4" x1="612.37" y1="308" x2="612.37" y2="324.53"/></g><g id="ID000143"><line class="cls-4" x1="634.53" y1="308" x2="634.53" y2="324.53"/></g><g id="ID000144"><line class="cls-4" x1="656.68" y1="308" x2="656.68" y2="324.53"/></g><g id="ID000145"><line class="cls-4" x1="678.84" y1="308" x2="678.84" y2="324.53"/></g></g></g><text class="cls-16" transform="translate(306.44 41.61)">B.2 aptamer</text><text class="cls-16" transform="translate(297.64 333.04)">5<tspan class="cls-17" x="11.12" y="0">’</tspan></text><text class="cls-16" transform="translate(273.24 356.43)">3<tspan class="cls-17" x="11.12" y="0">’</tspan></text></svg>