<?xml version="1.0" encoding="utf-8"?>
<!-- Generator: Adobe Illustrator 25.2.0, SVG Export Plug-In . SVG Version: 6.00 Build 0)  -->
<svg version="1.1" id="图层_1" xmlns="http://www.w3.org/2000/svg" xmlns:xlink="http://www.w3.org/1999/xlink" x="0px" y="0px"
	 viewBox="0 0 800 400" style="enable-background:new 0 0 800 400;" xml:space="preserve">
<style type="text/css">
	.st0{fill:#B83233;}
	.st1{font-family:'ArialMT';}
	.st2{font-size:13.8348px;}
	.st3{fill:none;stroke:#000000;stroke-width:0.2062;stroke-miterlimit:1.6495;}
	.st4{fill:#C2B617;}
	.st5{stroke:#000000;stroke-miterlimit:1.6495;}
	.st6{fill:#084595;}
	.st7{fill:#2EA103;}
	.st8{fill:none;stroke:#000000;stroke-miterlimit:1.6495;}
	.st9{fill:#8527B5;}
	.st10{font-size:20px;}
	.st11{font-size:13.6708px;}
</style>
<g id="ID000002">
	<g transform="translate(79.087,324.090)">
		<g transform="rotate(-0.0)">
			<text transform="matrix(1 0 0 1 171.5477 -63.403)" class="st0 st1 st2">G</text>
		</g>
	</g>
</g>
<g id="ID000003">
	<g transform="translate(79.087,303.636)">
		<g transform="rotate(-0.0)">
			<text transform="matrix(1 0 0 1 171.5477 -57.0974)" class="st0 st1 st2">G</text>
		</g>
	</g>
</g>
<g id="ID000004">
	<g transform="translate(79.087,283.183)">
		<g transform="rotate(-0.0)">
			<text transform="matrix(1 0 0 1 171.5477 -50.7944)" class="st0 st1 st2">G</text>
		</g>
	</g>
</g>
<g id="ID000005">
	<g>
		<g transform="translate(63.747,262.730)">
			<g transform="rotate(-0.0)">
				<text transform="matrix(1 0 0 1 177.043 -44.4903)" class="st0 st1 st2">A</text>
			</g>
		</g>
	</g>
</g>
<g id="ID000006">
	<g>
		<g transform="translate(63.747,242.276)">
			<g transform="rotate(-0.0)">
				<text transform="matrix(1 0 0 1 176.6616 -38.1837)" class="st0 st1 st2">U</text>
			</g>
		</g>
	</g>
</g>
<g id="ID000007">
	<g>
		<g transform="translate(84.200,221.823)">
			<g transform="rotate(-0.0)">
				<text transform="matrix(1 0 0 1 170.7394 -31.8777)" class="st0 st1 st2">A</text>
			</g>
		</g>
	</g>
</g>
<g id="ID000008">
	<g>
		<g transform="translate(109.767,221.823)">
			<g transform="rotate(-0.0)">
				<text transform="matrix(1 0 0 1 162.0913 -31.8777)" class="st0 st1 st2">G</text>
			</g>
		</g>
	</g>
</g>
<g id="ID000009">
	<g>
		<g transform="translate(125.107,237.163)">
			<g transform="rotate(-0.0)">
				<text transform="matrix(1 0 0 1 157.3617 -36.6078)" class="st0 st1 st2">G</text>
			</g>
		</g>
	</g>
</g>
<g id="ID000010">
	<g>
		<g transform="translate(135.334,262.730)">
			<g transform="rotate(-0.0)">
				<text transform="matrix(1 0 0 1 154.9765 -44.4903)" class="st0 st1 st2">A</text>
			</g>
		</g>
	</g>
</g>
<g id="ID000011">
	<g transform="translate(119.994,283.183)">
		<g transform="rotate(-0.0)">
			<text transform="matrix(1 0 0 1 159.3228 -50.7944)" class="st0 st1 st2">U</text>
		</g>
	</g>
</g>
<g id="ID000012">
	<line class="st3" x1="293.7" y1="226.1" x2="303.1" y2="226.1"/>
</g>
<g id="ID000013">
	<g transform="translate(147.265,283.183)">
		<g transform="rotate(-0.0)">
			<text transform="matrix(1 0 0 1 155.9117 -50.7944)" class="st1 st2">10</text>
		</g>
	</g>
</g>
<g id="ID000014">
	<g transform="translate(119.994,303.636)">
		<g transform="rotate(-0.0)">
			<text transform="matrix(1 0 0 1 159.3228 -57.0974)" class="st0 st1 st2">C</text>
		</g>
	</g>
</g>
<g id="ID000015">
	<g transform="translate(119.994,324.090)">
		<g transform="rotate(-0.0)">
			<text transform="matrix(1 0 0 1 159.3228 -63.403)" class="st0 st1 st2">C</text>
		</g>
	</g>
</g>
<g id="ID000016">
	<g transform="translate(119.994,344.543)">
		<g transform="rotate(-0.0)">
			<text transform="matrix(1 0 0 1 159.7042 -69.7095)" class="st4 st1 st2">A</text>
		</g>
	</g>
</g>
<g id="ID000017">
	<g transform="translate(119.994,364.996)">
		<g transform="rotate(-0.0)">
			<text transform="matrix(1 0 0 1 159.3228 -76.0141)" class="st4 st1 st2">C</text>
		</g>
	</g>
</g>
<g id="ID000018">
	<g transform="translate(119.994,385.450)">
		<g transform="rotate(-0.0)">
			<text transform="matrix(1 0 0 1 159.7042 -82.3187)" class="st4 st1 st2">A</text>
		</g>
	</g>
</g>
<g id="ID000019">
	<g transform="translate(119.994,405.903)">
		<g transform="rotate(-0.0)">
			<text transform="matrix(1 0 0 1 159.3228 -88.6233)" class="st4 st1 st2">U</text>
		</g>
	</g>
</g>
<g id="ID000020">
	<g transform="translate(119.994,426.356)">
		<g transform="rotate(-0.0)">
			<text transform="matrix(1 0 0 1 159.3228 -94.9288)" class="st4 st1 st2">C</text>
		</g>
	</g>
</g>
<g id="ID000021">
	<g transform="translate(119.994,446.810)">
		<g transform="rotate(-0.0)">
			<text transform="matrix(1 0 0 1 159.3228 -101.2343)" class="st4 st1 st2">U</text>
		</g>
	</g>
</g>
<g id="ID000022">
	<g transform="translate(119.994,467.263)">
		<g transform="rotate(-0.0)">
			<text transform="matrix(1 0 0 1 159.7042 -107.5379)" class="st4 st1 st2">A</text>
		</g>
	</g>
</g>
<g id="ID000023">
	<g transform="translate(130.221,487.716)">
		<g transform="rotate(-0.0)">
			<text transform="matrix(1 0 0 1 156.171 -113.8425)" class="st4 st1 st2">C</text>
		</g>
	</g>
</g>
<g id="ID000024">
	<line class="st3" x1="300.8" y1="367.5" x2="310.2" y2="367.5"/>
</g>
<g id="ID000025">
	<g transform="translate(157.492,487.716)">
		<g transform="rotate(-0.0)">
			<text transform="matrix(1 0 0 1 152.7599 -113.8425)" class="st1 st2">20</text>
		</g>
	</g>
</g>
<g id="ID000030">
	<polygon class="st5" points="272,229.6 272.2,229.4 272.4,229.2 272.4,229.1 272.6,228.9 272.7,228.9 272.7,228.7 272.7,228.6 
		272.9,228.4 272.9,228.2 272.9,227.9 272.9,227.7 272.9,227.5 272.9,227.4 272.9,227.2 272.9,227 272.9,226.9 272.9,226.7 
		272.7,226.5 272.7,226.3 272.6,226.2 272.6,226 272.4,225.8 272.4,225.7 272.2,225.7 272,225.6 272,225.4 272,225.2 271.8,225.2 
		271.6,225.1 271.4,225.1 271.3,224.9 271.1,224.9 270.9,224.9 270.8,224.7 270.6,224.7 270.4,224.7 270.3,224.7 270.1,224.7 
		269.9,224.7 269.6,224.7 269.4,224.9 269.2,224.9 269.1,224.9 268.9,225.1 268.7,225.1 268.7,225.2 268.5,225.2 268.4,225.4 
		268.2,225.6 268,225.6 268,225.7 267.9,225.8 267.7,226 267.7,226.2 267.5,226.3 267.5,226.5 267.4,226.7 267.4,226.9 267.4,227 
		267.4,227.2 267.4,227.4 267.4,227.5 267.4,227.7 267.4,227.9 267.4,228 267.4,228.2 267.5,228.4 267.5,228.6 267.5,228.7 
		267.7,228.9 267.7,229.1 267.9,229.2 268,229.4 268,229.6 268.2,229.6 268.4,229.8 268.5,229.9 268.7,229.9 268.9,230.1 
		269.1,230.1 269.2,230.3 269.4,230.3 269.6,230.3 269.7,230.4 269.9,230.4 270.1,230.4 270.3,230.4 270.4,230.4 270.6,230.4 
		270.8,230.3 270.9,230.3 271.1,230.3 271.3,230.1 271.4,230.1 271.6,229.9 271.8,229.9 272,229.8 272,229.8 	"/>
</g>
<g id="ID000032">
	<g transform="translate(150.674,503.056)">
		<g transform="rotate(-0.0)">
			<text transform="matrix(1 0 0 1 149.4802 -118.5712)" class="st4 st1 st2">G</text>
		</g>
	</g>
</g>
<g id="ID000033">
	<g transform="translate(176.241,503.056)">
		<g transform="rotate(-0.0)">
			<text transform="matrix(1 0 0 1 141.986 -118.5712)" class="st4 st1 st2">U</text>
		</g>
	</g>
</g>
<g id="ID000034">
	<g transform="translate(196.694,497.943)">
		<g transform="rotate(-0.0)">
			<text transform="matrix(1 0 0 1 136.0613 -116.9962)" class="st4 st1 st2">A</text>
		</g>
	</g>
</g>
<g id="ID000035">
	<g transform="translate(206.921,477.490)">
		<g transform="rotate(-0.0)">
			<text transform="matrix(1 0 0 1 132.5272 -110.6897)" class="st4 st1 st2">U</text>
		</g>
	</g>
</g>
<g id="ID000036">
	<g transform="translate(212.034,451.923)">
		<g transform="rotate(-0.0)">
			<text transform="matrix(1 0 0 1 130.9523 -102.8093)" class="st4 st1 st2">U</text>
		</g>
	</g>
</g>
<g id="ID000037">
	<g transform="translate(212.034,431.470)">
		<g transform="rotate(-0.0)">
			<text transform="matrix(1 0 0 1 131.3331 -96.5037)" class="st6 st1 st2">A</text>
		</g>
	</g>
</g>
<g id="ID000038">
	<g transform="translate(212.034,411.016)">
		<g transform="rotate(-0.0)">
			<text transform="matrix(1 0 0 1 130.9523 -90.1991)" class="st6 st1 st2">C</text>
		</g>
	</g>
</g>
<g id="ID000039">
	<g transform="translate(212.034,390.563)">
		<g transform="rotate(-0.0)">
			<text transform="matrix(1 0 0 1 130.5665 -83.8955)" class="st6 st1 st2">G</text>
		</g>
	</g>
</g>
<g id="ID000040">
	<g transform="translate(212.034,370.110)">
		<g transform="rotate(-0.0)">
			<text transform="matrix(1 0 0 1 130.9523 -77.59)" class="st6 st1 st2">C</text>
		</g>
	</g>
</g>
<g id="ID000041">
	<g transform="translate(191.581,349.656)">
		<g transform="rotate(-0.0)">
			<text transform="matrix(1 0 0 1 137.6372 -71.2854)" class="st7 st1 st2">A</text>
		</g>
	</g>
</g>
<g id="ID000042">
	<line class="st3" x1="327.1" y1="278.6" x2="320.6" y2="285.3"/>
</g>
<g id="ID000043">
	<g transform="translate(172.297,383.871)">
		<g transform="rotate(-0.0)">
			<text transform="matrix(1 0 0 1 132.8079 -81.8325)" class="st1 st2">30</text>
		</g>
	</g>
</g>
<g id="ID000044">
	<g transform="translate(191.581,324.090)">
		<g transform="rotate(-0.0)">
			<text transform="matrix(1 0 0 1 137.6372 -63.403)" class="st7 st1 st2">A</text>
		</g>
	</g>
</g>
<g id="ID000045">
	<g transform="translate(273.394,354.770)">
		<g transform="rotate(-0.0)">
			<text transform="matrix(1 0 0 1 112.4179 -72.8604)" class="st6 st1 st2">A</text>
		</g>
	</g>
</g>
<g id="ID000046">
	<g transform="translate(252.941,370.110)">
		<g transform="rotate(-0.0)">
			<text transform="matrix(1 0 0 1 117.9549 -77.59)" class="st6 st1 st2">G</text>
		</g>
	</g>
</g>
<g id="ID000047">
	<g transform="translate(252.941,390.563)">
		<g transform="rotate(-0.0)">
			<text transform="matrix(1 0 0 1 118.3412 -83.8955)" class="st6 st1 st2">C</text>
		</g>
	</g>
</g>
<g id="ID000048">
	<g transform="translate(268.281,411.016)">
		<g transform="rotate(-0.0)">
			<text transform="matrix(1 0 0 1 113.6125 -90.1991)" class="st6 st1 st2">U</text>
		</g>
	</g>
</g>
<g id="ID000049">
	<g transform="translate(252.941,431.470)">
		<g transform="rotate(-0.0)">
			<text transform="matrix(1 0 0 1 118.3412 -96.5037)" class="st6 st1 st2">U</text>
		</g>
	</g>
</g>
<g id="ID000050">
	<line class="st3" x1="385.7" y1="328.6" x2="395.3" y2="328.6"/>
</g>
<g id="ID000051">
	<g transform="translate(280.212,431.470)">
		<g transform="rotate(-0.0)">
			<text transform="matrix(1 0 0 1 114.931 -96.5037)" class="st1 st2">90</text>
		</g>
	</g>
</g>
<g id="ID000052">
	<line class="st8" x1="353.6" y1="328.6" x2="370.6" y2="328.6"/>
</g>
<g id="ID000053">
	<polygon class="st5" points="365,328.6 365,328.4 364.8,328.3 364.8,328.1 364.8,327.9 364.8,327.8 364.7,327.6 364.7,327.4 
		364.5,327.2 364.5,327.1 364.3,326.9 364.3,326.7 364.2,326.6 364,326.6 363.8,326.4 363.8,326.2 363.6,326.2 363.5,326.1 
		363.4,326.1 363.2,325.9 363,325.9 362.9,325.9 362.7,325.7 362.5,325.7 362.4,325.7 362,325.7 361.8,325.7 361.7,325.7 
		361.5,325.9 361.3,325.9 361.2,325.9 361,326.1 360.8,326.1 360.7,326.1 360.5,326.2 360.5,326.4 360.3,326.4 360.1,326.6 
		360,326.7 359.8,326.9 359.8,327.1 359.6,327.1 359.6,327.2 359.5,327.4 359.5,327.6 359.5,327.8 359.3,327.9 359.3,328.1 
		359.3,328.3 359.3,328.6 359.3,328.8 359.3,329 359.3,329.1 359.3,329.2 359.5,329.4 359.5,329.6 359.5,329.7 359.6,329.9 
		359.6,330.1 359.8,330.2 359.8,330.4 360,330.4 360.1,330.6 360.3,330.8 360.5,330.9 360.5,330.9 360.7,331.1 360.8,331.1 
		361,331.3 361.2,331.3 361.3,331.3 361.5,331.4 361.7,331.4 361.8,331.4 362,331.4 362.4,331.4 362.5,331.4 362.7,331.4 
		362.9,331.3 363,331.3 363.2,331.3 363.4,331.1 363.5,331.1 363.6,330.9 363.8,330.9 363.8,330.8 364,330.6 364.2,330.6 
		364.3,330.4 364.3,330.2 364.5,330.1 364.5,329.9 364.7,329.7 364.7,329.6 364.8,329.4 364.8,329.2 364.8,329.1 364.8,329 
		365,328.8 	"/>
</g>
<g id="ID000054">
	<line class="st8" x1="353.6" y1="300.2" x2="370.6" y2="300.2"/>
</g>
<g id="ID000055">
	<line class="st8" x1="353.6" y1="286.2" x2="370.6" y2="286.2"/>
</g>
<g id="ID000057">
	<g transform="translate(201.807,308.750)">
		<g transform="rotate(-0.0)">
			<text transform="matrix(1 0 0 1 134.1031 -58.6753)" class="st7 st1 st2">C</text>
		</g>
	</g>
</g>
<g id="ID000058">
	<g transform="translate(217.147,288.296)">
		<g transform="rotate(-0.0)">
			<text transform="matrix(1 0 0 1 128.9906 -52.3698)" class="st7 st1 st2">G</text>
		</g>
	</g>
</g>
<g id="ID000059">
	<g transform="translate(217.147,267.843)">
		<g transform="rotate(-0.0)">
			<text transform="matrix(1 0 0 1 129.3754 -46.0662)" class="st7 st1 st2">C</text>
		</g>
	</g>
</g>
<g id="ID000060">
	<g transform="translate(206.921,247.390)">
		<g transform="rotate(-0.0)">
			<text transform="matrix(1 0 0 1 132.5272 -39.7606)" class="st7 st1 st2">C</text>
		</g>
	</g>
</g>
<g id="ID000061">
	<g transform="translate(196.694,226.936)">
		<g transform="rotate(-0.0)">
			<text transform="matrix(1 0 0 1 135.2947 -33.4546)" class="st7 st1 st2">G</text>
		</g>
	</g>
</g>
<g id="ID000062">
	<g transform="translate(273.394,242.276)">
		<g transform="rotate(-0.0)">
			<text transform="matrix(1 0 0 1 112.4179 -38.1837)" class="st7 st1 st2">A</text>
		</g>
	</g>
</g>
<g id="ID000063">
	<g transform="translate(258.054,267.843)">
		<g transform="rotate(-0.0)">
			<text transform="matrix(1 0 0 1 116.3805 -46.0662)" class="st7 st1 st2">G</text>
		</g>
	</g>
</g>
<g id="ID000064">
	<g transform="translate(258.054,288.296)">
		<g transform="rotate(-0.0)">
			<text transform="matrix(1 0 0 1 116.7653 -52.3698)" class="st7 st1 st2">C</text>
		</g>
	</g>
</g>
<g id="ID000065">
	<g transform="translate(283.621,293.410)">
		<g transform="rotate(-0.0)">
			<text transform="matrix(1 0 0 1 108.8843 -53.9457)" class="st7 st1 st2">C</text>
		</g>
	</g>
</g>
<g id="ID000066">
	<line class="st8" x1="357.1" y1="229.6" x2="374.1" y2="229.6"/>
</g>
<g id="ID000067">
	<line class="st8" x1="357.1" y1="215.3" x2="374.1" y2="215.3"/>
</g>
<g id="ID000075">
	<g transform="translate(206.921,206.483)">
		<g transform="rotate(-0.0)">
			<text transform="matrix(1 0 0 1 132.1424 -27.1505)" class="st7 st1 st2">G</text>
		</g>
	</g>
</g>
<g id="ID000076">
	<g transform="translate(222.261,186.029)">
		<g transform="rotate(-0.0)">
			<text transform="matrix(1 0 0 1 127.4128 -20.845)" class="st7 st1 st2">G</text>
		</g>
	</g>
</g>
<g id="ID000077">
	<g transform="translate(222.261,165.576)">
		<g transform="rotate(-0.0)">
			<text transform="matrix(1 0 0 1 127.7985 -14.5409)" class="st7 st1 st2">C</text>
		</g>
	</g>
</g>
<g id="ID000078">
	<g transform="translate(222.261,145.123)">
		<g transform="rotate(-0.0)">
			<text transform="matrix(1 0 0 1 127.7985 -8.2348)" class="st7 st1 st2">C</text>
		</g>
	</g>
</g>
<g id="ID000079">
	<line class="st3" x1="345.5" y1="130.5" x2="336.1" y2="130.5"/>
</g>
<g id="ID000080">
	<g transform="translate(194.989,145.123)">
		<g transform="rotate(-0.0)">
			<text transform="matrix(1 0 0 1 125.8127 -8.2348)" class="st1 st2">40</text>
		</g>
	</g>
</g>
<g id="ID000081">
	<g transform="translate(222.261,124.669)">
		<g transform="rotate(-0.0)">
			<text transform="matrix(1 0 0 1 128.1794 -1.9298)" class="st7 st1 st2">A</text>
		</g>
	</g>
</g>
<g id="ID000082">
	<g transform="translate(206.921,104.216)">
		<g transform="rotate(-0.0)">
			<text transform="matrix(1 0 0 1 132.5272 4.3748)" class="st7 st1 st2">C</text>
		</g>
	</g>
</g>
<g id="ID000083">
	<g transform="translate(196.694,83.763)">
		<g transform="rotate(-0.0)">
			<text transform="matrix(1 0 0 1 136.4485 10.6789)" class="st7 st1 st2">T</text>
		</g>
	</g>
</g>
<g id="ID000084">
	<g transform="translate(206.921,63.309)">
		<g transform="rotate(-0.0)">
			<text transform="matrix(1 0 0 1 132.909 16.9839)" class="st7 st1 st2">A</text>
		</g>
	</g>
</g>
<g id="ID000085">
	<g transform="translate(217.147,47.969)">
		<g transform="rotate(-0.0)">
			<text transform="matrix(1 0 0 1 129.3754 21.7136)" class="st7 st1 st2">C</text>
		</g>
	</g>
</g>
<g id="ID000086">
	<g transform="translate(242.714,42.856)">
		<g transform="rotate(-0.0)">
			<text transform="matrix(1 0 0 1 121.1077 23.29)" class="st7 st1 st2">G</text>
		</g>
	</g>
</g>
<g id="ID000087">
	<g transform="translate(263.167,47.969)">
		<g transform="rotate(-0.0)">
			<text transform="matrix(1 0 0 1 115.1894 21.7136)" class="st7 st1 st2">C</text>
		</g>
	</g>
</g>
<g id="ID000088">
	<g transform="translate(278.507,68.423)">
		<g transform="rotate(-0.0)">
			<text transform="matrix(1 0 0 1 110.074 15.4085)" class="st7 st1 st2">G</text>
		</g>
	</g>
</g>
<g id="ID000089">
	<g>
		<g transform="translate(288.734,83.763)">
			<g transform="rotate(-0.0)">
				<text transform="matrix(1 0 0 1 107.6898 10.6789)" class="st7 st1 st2">A</text>
			</g>
		</g>
	</g>
</g>
<g id="ID000090">
	<g transform="translate(278.507,109.329)">
		<g transform="rotate(-0.0)">
			<text transform="matrix(1 0 0 1 110.8416 2.7979)" class="st7 st1 st2">A</text>
		</g>
	</g>
</g>
<g id="ID000091">
	<line class="st3" x1="403.5" y1="105.8" x2="412.9" y2="105.8"/>
</g>
<g id="ID000092">
	<g transform="translate(305.778,109.329)">
		<g transform="rotate(-0.0)">
			<text transform="matrix(1 0 0 1 107.0481 2.7979)" class="st1 st2">50</text>
		</g>
	</g>
</g>
<g id="ID000093">
	<g transform="translate(263.167,124.669)">
		<g transform="rotate(-0.0)">
			<text transform="matrix(1 0 0 1 115.9589 -1.9298)" class="st7 st1 st2">T</text>
		</g>
	</g>
</g>
<g id="ID000094">
	<g transform="translate(263.167,145.123)">
		<g transform="rotate(-0.0)">
			<text transform="matrix(1 0 0 1 114.8046 -8.2348)" class="st7 st1 st2">G</text>
		</g>
	</g>
</g>
<g id="ID000095">
	<g transform="translate(263.167,165.576)">
		<g transform="rotate(-0.0)">
			<text transform="matrix(1 0 0 1 114.8046 -14.5409)" class="st7 st1 st2">G</text>
		</g>
	</g>
</g>
<g id="ID000096">
	<g transform="translate(263.167,186.029)">
		<g transform="rotate(-0.0)">
			<text transform="matrix(1 0 0 1 115.1894 -20.845)" class="st7 st1 st2">C</text>
		</g>
	</g>
</g>
<g id="ID000097">
	<g transform="translate(273.394,211.596)">
		<g transform="rotate(-0.0)">
			<text transform="matrix(1 0 0 1 112.4179 -28.7264)" class="st7 st1 st2">A</text>
		</g>
	</g>
</g>
<g id="ID000098">
	<line class="st8" x1="360.7" y1="158.8" x2="377.7" y2="158.8"/>
</g>
<g id="ID000099">
	<line class="st8" x1="360.7" y1="144.7" x2="377.7" y2="144.7"/>
</g>
<g id="ID000100">
	<line class="st8" x1="360.7" y1="130.5" x2="377.7" y2="130.5"/>
</g>
<g id="ID000101">
	<line class="st8" x1="360.7" y1="116.4" x2="377.7" y2="116.4"/>
</g>
<g id="ID000105">
	<g transform="translate(309.187,303.636)">
		<g transform="rotate(-0.0)">
			<text transform="matrix(1 0 0 1 101.0024 -57.0974)" class="st9 st1 st2">C</text>
		</g>
	</g>
</g>
<g id="ID000106">
	<line class="st3" x1="415.2" y1="230.8" x2="415.2" y2="221.2"/>
</g>
<g id="ID000107">
	<g transform="translate(309.187,262.048)">
		<g transform="rotate(-0.0)">
			<text transform="matrix(1 0 0 1 98.3041 -44.279)" class="st1 st2">60</text>
		</g>
	</g>
</g>
<g id="ID000108">
	<g transform="translate(329.641,303.636)">
		<g transform="rotate(-0.0)">
			<text transform="matrix(1 0 0 1 94.3111 -57.0974)" class="st9 st1 st2">G</text>
		</g>
	</g>
</g>
<g id="ID000109">
	<g transform="translate(350.094,303.636)">
		<g transform="rotate(-0.0)">
			<text transform="matrix(1 0 0 1 89.1618 -57.0974)" class="st9 st1 st2">T</text>
		</g>
	</g>
</g>
<g id="ID000110">
	<g transform="translate(370.547,303.636)">
		<g transform="rotate(-0.0)">
			<text transform="matrix(1 0 0 1 82.0877 -57.0974)" class="st9 st1 st2">C</text>
		</g>
	</g>
</g>
<g id="ID000111">
	<g transform="translate(391.001,303.636)">
		<g transform="rotate(-0.0)">
			<text transform="matrix(1 0 0 1 75.3983 -57.0974)" class="st9 st1 st2">G</text>
		</g>
	</g>
</g>
<g id="ID000112">
	<g transform="translate(411.454,303.636)">
		<g transform="rotate(-0.0)">
			<text transform="matrix(1 0 0 1 69.8584 -57.0974)" class="st9 st1 st2">A</text>
		</g>
	</g>
</g>
<g id="ID000113">
	<g>
		<g transform="translate(431.907,303.636)">
			<g transform="rotate(-0.0)">
				<text transform="matrix(1 0 0 1 63.173 -57.0974)" class="st9 st1 st2">C</text>
			</g>
		</g>
	</g>
</g>
<g id="ID000114">
	<g transform="translate(452.361,303.636)">
		<g transform="rotate(-0.0)">
			<text transform="matrix(1 0 0 1 56.8684 -57.0974)" class="st9 st1 st2">U</text>
		</g>
	</g>
</g>
<g id="ID000115">
	<g>
		<g transform="translate(472.814,303.636)">
			<g transform="rotate(-0.0)">
				<text transform="matrix(1 0 0 1 50.5629 -57.0974)" class="st9 st1 st2">U</text>
			</g>
		</g>
	</g>
</g>
<g id="ID000116">
	<g>
		<g transform="translate(493.267,293.410)">
			<g transform="rotate(-0.0)">
				<text transform="matrix(1 0 0 1 44.2583 -53.9457)" class="st9 st1 st2">C</text>
			</g>
		</g>
	</g>
</g>
<g id="ID000117">
	<g>
		<g transform="translate(513.721,288.296)">
			<g transform="rotate(-0.0)">
				<text transform="matrix(1 0 0 1 38.3365 -52.3698)" class="st9 st1 st2">A</text>
			</g>
		</g>
	</g>
</g>
<g id="ID000118">
	<line class="st3" x1="556.6" y1="220" x2="556.6" y2="210.6"/>
</g>
<g id="ID000119">
	<g transform="translate(513.721,246.708)">
		<g transform="rotate(-0.0)">
			<text transform="matrix(1 0 0 1 35.2545 -39.5498)" class="st1 st2">70</text>
		</g>
	</g>
</g>
<g id="ID000120">
	<g>
		<g transform="translate(534.174,298.523)">
			<g transform="rotate(-0.0)">
				<text transform="matrix(1 0 0 1 31.6482 -55.5206)" class="st9 st1 st2">C</text>
			</g>
		</g>
	</g>
</g>
<g id="ID000121">
	<g>
		<g transform="translate(554.627,318.976)">
			<g transform="rotate(-0.0)">
				<text transform="matrix(1 0 0 1 25.3436 -61.8271)" class="st9 st1 st2">U</text>
			</g>
		</g>
	</g>
</g>
<g id="ID000122">
	<g>
		<g transform="translate(539.287,344.543)">
			<g transform="rotate(-0.0)">
				<text transform="matrix(1 0 0 1 29.6866 -69.7095)" class="st9 st1 st2">G</text>
			</g>
		</g>
	</g>
</g>
<g id="ID000123">
	<g>
		<g transform="translate(518.834,354.770)">
			<g transform="rotate(-0.0)">
				<text transform="matrix(1 0 0 1 36.3769 -72.8604)" class="st9 st1 st2">C</text>
			</g>
		</g>
	</g>
</g>
<g id="ID000124">
	<g>
		<g transform="translate(493.267,354.770)">
			<g transform="rotate(-0.0)">
				<text transform="matrix(1 0 0 1 44.6392 -72.8604)" class="st9 st1 st2">A</text>
			</g>
		</g>
	</g>
</g>
<g id="ID000125">
	<g>
		<g transform="translate(472.814,344.543)">
			<g transform="rotate(-0.0)">
				<text transform="matrix(1 0 0 1 50.1781 -69.7095)" class="st9 st1 st2">G</text>
			</g>
		</g>
	</g>
</g>
<g id="ID000126">
	<g>
		<g transform="translate(452.361,344.543)">
			<g transform="rotate(-0.0)">
				<text transform="matrix(1 0 0 1 57.2493 -69.7095)" class="st9 st1 st2">A</text>
			</g>
		</g>
	</g>
</g>
<g id="ID000127">
	<g>
		<g transform="translate(431.907,344.543)">
			<g transform="rotate(-0.0)">
				<text transform="matrix(1 0 0 1 63.173 -69.7095)" class="st9 st1 st2">C</text>
			</g>
		</g>
	</g>
</g>
<g id="ID000128">
	<g transform="translate(411.454,344.543)">
		<g transform="rotate(-0.0)">
			<text transform="matrix(1 0 0 1 69.4766 -69.7095)" class="st9 st1 st2">U</text>
		</g>
	</g>
</g>
<g id="ID000129">
	<g transform="translate(391.001,344.543)">
		<g transform="rotate(-0.0)">
			<text transform="matrix(1 0 0 1 75.7831 -69.7095)" class="st9 st1 st2">U</text>
		</g>
	</g>
</g>
<g id="ID000130">
	<line class="st3" x1="471.7" y1="277.9" x2="471.7" y2="287.3"/>
</g>
<g id="ID000131">
	<g transform="translate(391.001,386.745)">
		<g transform="rotate(-0.0)">
			<text transform="matrix(1 0 0 1 73.0829 -82.7182)" class="st1 st2">80</text>
		</g>
	</g>
</g>
<g id="ID000132">
	<g transform="translate(370.547,344.543)">
		<g transform="rotate(-0.0)">
			<text transform="matrix(1 0 0 1 81.7029 -69.7095)" class="st9 st1 st2">G</text>
		</g>
	</g>
</g>
<g id="ID000133">
	<g transform="translate(350.094,344.543)">
		<g transform="rotate(-0.0)">
			<text transform="matrix(1 0 0 1 88.7741 -69.7095)" class="st9 st1 st2">A</text>
		</g>
	</g>
</g>
<g id="ID000134">
	<g transform="translate(329.641,344.543)">
		<g transform="rotate(-0.0)">
			<text transform="matrix(1 0 0 1 94.6968 -69.7095)" class="st9 st1 st2">C</text>
		</g>
	</g>
</g>
<g id="ID000135">
	<g transform="translate(309.187,344.543)">
		<g transform="rotate(-0.0)">
			<text transform="matrix(1 0 0 1 100.6171 -69.7095)" class="st9 st1 st2">G</text>
		</g>
	</g>
</g>
<g id="ID000136">
	<g transform="translate(288.734,344.543)">
		<g transform="rotate(-0.0)">
			<text transform="matrix(1 0 0 1 107.6898 -69.7095)" class="st6 st1 st2">A</text>
		</g>
	</g>
</g>
<g id="ID000137">
	<line class="st8" x1="415.2" y1="245.9" x2="415.2" y2="262.8"/>
</g>
<g id="ID000138">
	<line class="st8" x1="429.3" y1="245.9" x2="429.3" y2="262.8"/>
</g>
<g id="ID000139">
	<line class="st8" x1="443.5" y1="245.9" x2="443.5" y2="262.8"/>
</g>
<g id="ID000140">
	<line class="st8" x1="457.6" y1="245.9" x2="457.6" y2="262.8"/>
</g>
<g id="ID000141">
	<polygon class="st5" points="471.7,257.1 471.9,257.1 472.2,257.1 472.4,257.1 472.6,257.1 472.8,256.9 472.9,256.9 473,256.9 
		473.2,256.8 473.4,256.6 473.4,256.6 473.5,256.4 473.7,256.2 473.9,256.2 474,256.2 474,256 474.2,255.8 474.2,255.6 474.4,255.5 
		474.4,255.3 474.5,255.1 474.5,255 474.5,254.8 474.5,254.6 474.5,254.5 474.5,254.3 474.5,254.1 474.5,253.9 474.5,253.8 
		474.5,253.6 474.4,253.4 474.4,253.3 474.4,253.1 474.2,252.9 474,252.7 474,252.6 473.9,252.4 473.7,252.2 473.7,252.2 
		473.5,252.1 473.4,251.9 473.2,251.9 473,251.7 472.9,251.7 472.8,251.5 472.6,251.5 472.4,251.5 472.2,251.5 472.1,251.5 
		471.9,251.5 471.7,251.5 471.6,251.5 471.4,251.5 471.2,251.5 471,251.5 470.9,251.5 470.7,251.7 470.5,251.7 470.4,251.9 
		470.2,251.9 470,252.1 469.8,252.2 469.7,252.2 469.7,252.4 469.5,252.6 469.3,252.7 469.3,252.9 469.2,253.1 469.2,253.3 
		469,253.4 469,253.6 469,253.8 469,253.9 469,254.1 469,254.3 469,254.5 469,254.6 469,254.8 469,255 469,255.1 469.2,255.3 
		469.2,255.5 469.3,255.6 469.3,255.8 469.5,256 469.5,256.2 469.7,256.2 469.8,256.2 470,256.4 470,256.6 470.2,256.6 470.4,256.8 
		470.5,256.9 470.7,256.9 470.9,256.9 471,257.1 471.2,257.1 471.4,257.1 471.6,257.1 	"/>
</g>
<g id="ID000142">
	<line class="st8" x1="486" y1="245.9" x2="486" y2="262.8"/>
</g>
<g id="ID000143">
	<line class="st8" x1="514.1" y1="245.9" x2="514.1" y2="262.8"/>
</g>
<g id="ID000144">
	<polygon class="st5" points="514.1,257.1 514.4,257.1 514.6,257.1 514.8,257.1 515,257.1 515.1,256.9 515.3,256.9 515.5,256.9 
		515.6,256.8 515.8,256.6 515.8,256.6 516,256.4 516.2,256.2 516.3,256.2 516.5,256.2 516.5,256 516.7,255.8 516.7,255.6 
		516.8,255.5 516.8,255.3 517,255.1 517,255 517,254.8 517,254.6 517,254.5 517,254.3 517,254.1 517,253.9 517,253.8 517,253.6 
		516.8,253.4 516.8,253.3 516.8,253.1 516.7,252.9 516.5,252.7 516.5,252.6 516.3,252.4 516.2,252.2 516.2,252.2 516,252.1 
		515.8,251.9 515.6,251.9 515.5,251.7 515.3,251.7 515.1,251.5 515,251.5 514.8,251.5 514.6,251.5 514.4,251.5 514.3,251.5 
		514.1,251.5 514,251.5 513.9,251.5 513.7,251.5 513.5,251.5 513.3,251.5 513.2,251.7 513,251.7 512.8,251.9 512.7,251.9 
		512.5,252.1 512.3,252.2 512.1,252.2 512.1,252.4 512,252.6 511.8,252.7 511.8,252.9 511.6,253.1 511.6,253.3 511.6,253.4 
		511.5,253.6 511.5,253.8 511.5,253.9 511.5,254.1 511.5,254.3 511.5,254.5 511.5,254.6 511.5,254.8 511.5,255 511.5,255.1 
		511.6,255.3 511.6,255.5 511.8,255.6 511.8,255.8 512,256 512,256.2 512.1,256.2 512.3,256.2 512.5,256.4 512.5,256.6 512.7,256.6 
		512.8,256.8 513,256.9 513.2,256.9 513.3,256.9 513.5,257.1 513.7,257.1 513.9,257.1 514,257.1 	"/>
</g>
<text transform="matrix(1 0 0 1 318.1033 31.0174)" class="st1 st10">TH14 aptamer</text>
<g id="ID000066_1_">
	<line class="st8" x1="261.9" y1="242.1" x2="278.8" y2="242.1"/>
</g>
<g id="ID000066_2_">
	<line class="st8" x1="261.9" y1="256.3" x2="278.8" y2="256.3"/>
</g>
<text transform="matrix(1 0 0 1 236.5048 272.0044)" class="st1 st11">5’</text>
<text transform="matrix(1 0 0 1 377.7695 349.1137)" class="st1 st11">3’</text>
<g id="ID000141_1_">
	<polygon class="st5" points="529.3,257.2 529.5,257.2 529.9,257.2 530,257.2 530.2,257.2 530.4,257 530.5,257 530.6,257 
		530.8,256.9 531,256.7 531,256.7 531.1,256.5 531.3,256.3 531.5,256.3 531.7,256.3 531.7,256.1 531.8,255.9 531.8,255.7 532,255.6 
		532,255.4 532.2,255.2 532.2,255.1 532.2,254.9 532.2,254.7 532.2,254.6 532.2,254.4 532.2,254.2 532.2,254 532.2,253.9 
		532.2,253.7 532,253.5 532,253.4 532,253.2 531.8,253 531.7,252.8 531.7,252.7 531.5,252.5 531.3,252.3 531.3,252.3 531.1,252.2 
		531,252 530.8,252 530.6,251.8 530.5,251.8 530.4,251.6 530.2,251.6 530,251.6 529.9,251.6 529.7,251.6 529.5,251.6 529.3,251.6 
		529.2,251.6 529,251.6 528.8,251.6 528.7,251.6 528.5,251.6 528.3,251.8 528.1,251.8 528,252 527.8,252 527.6,252.2 527.5,252.3 
		527.3,252.3 527.3,252.5 527.1,252.7 527,252.8 527,253 526.8,253.2 526.8,253.4 526.6,253.5 526.6,253.7 526.6,253.9 526.6,254 
		526.6,254.2 526.6,254.4 526.6,254.6 526.6,254.7 526.6,254.9 526.6,255.1 526.6,255.2 526.8,255.4 526.8,255.6 527,255.7 
		527,255.9 527.1,256.1 527.1,256.3 527.3,256.3 527.5,256.3 527.6,256.5 527.6,256.7 527.8,256.7 528,256.9 528.1,257 528.3,257 
		528.5,257 528.7,257.2 528.8,257.2 529,257.2 529.2,257.2 	"/>
</g>
</svg>
