<?xml version="1.0" encoding="utf-8"?>
<!-- Generator: Adobe Illustrator 25.2.0, SVG Export Plug-In . SVG Version: 6.00 Build 0)  -->
<svg version="1.1" id="图层_1" xmlns="http://www.w3.org/2000/svg" xmlns:xlink="http://www.w3.org/1999/xlink" x="0px" y="0px"
	 viewBox="0 0 800 400" style="enable-background:new 0 0 800 400;" xml:space="preserve">
<style type="text/css">
	.st0{fill:#228B22;}
	.st1{font-family:'ArialMT';}
	.st2{font-size:12.6624px;}
	.st3{fill:#0A0BFF;}
	.st4{stroke:#000000;stroke-width:0.38;stroke-miterlimit:3.05;}
	.st5{fill:none;stroke:#000000;stroke-width:0.38;stroke-miterlimit:3.05;}
	.st6{fill:#32CD32;}
	.st7{fill:#008080;}
	.st8{fill:#FF870A;}
	.st9{fill:none;stroke:#000000;stroke-width:0.84;stroke-miterlimit:3.05;}
	.st10{fill:#C2C2FF;}
	.st11{fill:#80DB9E;}
	.st12{fill:#FFC0CB;}
	.st13{font-size:20px;}
</style>
<g id="topgroup">
	<g id="ID000000">
		<g id="ID000002">
			<text transform="matrix(1.3042 0 0 1 380.9009 383.1611)" class="st0 st1 st2">G</text>
		</g>
		<g id="ID000003">
			<text transform="matrix(1.3042 0 0 1 380.9009 370.4248)" class="st0 st1 st2">G</text>
		</g>
		<g id="ID000004">
			<text transform="matrix(1.3042 0 0 1 380.9009 357.6865)" class="st0 st1 st2">G</text>
		</g>
		<g id="ID000005">
			<text transform="matrix(1.3042 0 0 1 381.8159 344.9492)" class="st0 st1 st2">A</text>
		</g>
		<g id="ID000006">
			<text transform="matrix(1.3042 0 0 1 369.395 332.2129)" class="st3 st1 st2">A</text>
		</g>
		<g id="ID000007">
			<text transform="matrix(1.3042 0 0 1 414.4863 344.9492)" class="st0 st1 st2">U</text>
		</g>
		<g id="ID000008">
			<text transform="matrix(1.3042 0 0 1 414.4863 357.6865)" class="st0 st1 st2">C</text>
		</g>
		<g id="ID000009">
			<text transform="matrix(1.3042 0 0 1 414.4863 370.4248)" class="st0 st1 st2">C</text>
		</g>
		<g id="ID000010">
			<text transform="matrix(1.3042 0 0 1 414.4863 383.1611)" class="st0 st1 st2">U</text>
		</g>
		<g id="ID000011">
			<text transform="matrix(1.3042 0 0 1 426.9082 395.8877)" class="st3 st1 st2">C</text>
		</g>
		<g id="ID000012">
			<polygon class="st4" points="407.2,378.5 407.2,378.3 407.2,378.2 407.1,378 407.1,377.9 407,377.7 406.9,377.5 406.9,377.4 
				406.8,377.3 406.7,377.1 406.5,377 406.4,376.9 406.3,376.7 406.1,376.6 406,376.5 405.8,376.4 405.6,376.3 405.4,376.3 
				405.2,376.2 405.1,376.1 404.8,376.1 404.7,376 404.4,376 404.2,376 404,376 403.8,376 403.6,376 403.4,376 403.2,376 403,376 
				402.8,376.1 402.6,376.1 402.4,376.2 402.2,376.3 402,376.4 401.9,376.5 401.7,376.6 401.5,376.7 401.4,376.8 401.3,376.9 
				401.1,377.1 401,377.2 400.9,377.3 400.8,377.5 400.8,377.6 400.7,377.8 400.6,377.9 400.6,378.1 400.6,378.3 400.6,378.4 
				400.6,378.6 400.6,378.7 400.6,378.9 400.6,379.1 400.7,379.2 400.8,379.4 400.8,379.5 400.9,379.7 401,379.8 401.1,379.9 
				401.3,380.1 401.4,380.2 401.5,380.3 401.7,380.4 401.9,380.5 402,380.6 402.2,380.7 402.4,380.8 402.6,380.8 402.8,380.9 
				403,381 403.2,381 403.4,381 403.6,381 403.8,381 404,381 404.2,381 404.4,381 404.7,381 404.8,380.9 405.1,380.9 405.2,380.8 
				405.4,380.7 405.6,380.7 405.8,380.6 406,380.5 406.1,380.4 406.3,380.3 406.4,380.1 406.5,380 406.7,379.9 406.8,379.7 
				406.9,379.6 406.9,379.4 407,379.3 407.1,379.1 407.1,379 407.2,378.8 407.2,378.7 			"/>
		</g>
		<g id="ID000013">
			<line class="st5" x1="393.9" y1="364.7" x2="413.8" y2="364.7"/>
		</g>
		<g id="ID000014">
			<line class="st5" x1="393.9" y1="352" x2="413.8" y2="352"/>
		</g>
		<g id="ID000015">
			<line class="st5" x1="393.9" y1="339.2" x2="413.8" y2="339.2"/>
		</g>
		<g id="ID000017">
			<text transform="matrix(1.3042 0 0 1 381.3628 322.667)" class="st6 st1 st2">U</text>
		</g>
		<g id="ID000018">
			<text transform="matrix(1.3042 0 0 1 381.3628 309.9287)" class="st6 st1 st2">U</text>
		</g>
		<g id="ID000019">
			<text transform="matrix(1.3042 0 0 1 381.3628 297.1914)" class="st6 st1 st2">C</text>
		</g>
		<g id="ID000020">
			<text transform="matrix(1.3042 0 0 1 381.3628 284.4541)" class="st6 st1 st2">C</text>
		</g>
		<g id="ID000021">
			<text transform="matrix(1.3042 0 0 1 380.9009 271.7168)" class="st6 st1 st2">G</text>
		</g>
		<g id="ID000022">
			<line class="st5" x1="376.3" y1="266" x2="365.2" y2="266"/>
		</g>
		<g id="ID000023">
			<text transform="matrix(1.3042 0 0 1 346.9155 271.7168)" class="st1 st2">10</text>
		</g>
		<g id="ID000024">
			<text transform="matrix(1.3042 0 0 1 368.9399 258.9795)" class="st3 st1 st2">C</text>
		</g>
		<g id="ID000025">
			<text transform="matrix(1.3042 0 0 1 426.9082 258.9795)" class="st3 st1 st2">U</text>
		</g>
		<g id="ID000026">
			<text transform="matrix(1.3042 0 0 1 414.4863 271.7168)" class="st6 st1 st2">C</text>
		</g>
		<g id="ID000027">
			<line class="st5" x1="431.5" y1="266" x2="442.5" y2="266"/>
		</g>
		<g id="ID000028">
			<text transform="matrix(1.3042 0 0 1 442.5098 271.7168)" class="st1 st2">100</text>
		</g>
		<g id="ID000029">
			<text transform="matrix(1.3042 0 0 1 414.0234 284.4541)" class="st6 st1 st2">G</text>
		</g>
		<g id="ID000030">
			<text transform="matrix(1.3042 0 0 1 414.0234 297.1914)" class="st6 st1 st2">G</text>
		</g>
		<g id="ID000031">
			<text transform="matrix(1.3042 0 0 1 414.0234 309.9287)" class="st6 st1 st2">G</text>
		</g>
		<g id="ID000032">
			<text transform="matrix(1.3042 0 0 1 414.9395 322.667)" class="st6 st1 st2">A</text>
		</g>
		<g id="ID000033">
			<line class="st5" x1="393.9" y1="316.9" x2="413.8" y2="316.9"/>
		</g>
		<g id="ID000034">
			<polygon class="st4" points="407.2,305.3 407.2,305.1 407.2,304.9 407.1,304.8 407.1,304.6 407,304.5 406.9,304.3 406.9,304.2 
				406.8,304 406.7,303.9 406.5,303.8 406.4,303.6 406.3,303.5 406.1,303.4 406,303.3 405.8,303.2 405.6,303.1 405.4,303 
				405.2,302.9 405.1,302.9 404.8,302.8 404.7,302.8 404.4,302.8 404.2,302.7 404,302.7 403.8,302.7 403.6,302.7 403.4,302.7 
				403.2,302.8 403,302.8 402.8,302.9 402.6,302.9 402.4,303 402.2,303.1 402,303.1 401.9,303.2 401.7,303.3 401.5,303.4 
				401.4,303.6 401.3,303.7 401.1,303.8 401,304 400.9,304.1 400.8,304.2 400.8,304.4 400.7,304.6 400.6,304.7 400.6,304.9 
				400.6,305 400.6,305.2 400.6,305.3 400.6,305.5 400.6,305.7 400.6,305.8 400.7,306 400.8,306.1 400.8,306.3 400.9,306.4 
				401,306.6 401.1,306.7 401.3,306.8 401.4,307 401.5,307.1 401.7,307.2 401.9,307.3 402,307.4 402.2,307.5 402.4,307.6 
				402.6,307.6 402.8,307.7 403,307.7 403.2,307.8 403.4,307.8 403.6,307.8 403.8,307.8 404,307.8 404.2,307.8 404.4,307.8 
				404.7,307.7 404.8,307.7 405.1,307.6 405.2,307.6 405.4,307.5 405.6,307.4 405.8,307.3 406,307.2 406.1,307.1 406.3,307 
				406.4,306.9 406.5,306.8 406.7,306.6 406.8,306.5 406.9,306.4 406.9,306.2 407,306.1 407.1,305.9 407.1,305.8 407.2,305.6 
				407.2,305.4 			"/>
		</g>
		<g id="ID000035">
			<line class="st5" x1="393.9" y1="291.5" x2="413.8" y2="291.5"/>
		</g>
		<g id="ID000036">
			<line class="st5" x1="393.9" y1="278.7" x2="413.8" y2="278.7"/>
		</g>
		<g id="ID000037">
			<line class="st5" x1="393.9" y1="266" x2="413.8" y2="266"/>
		</g>
		<g id="ID000039">
			<text transform="matrix(1.3042 0 0 1 368.478 246.2422)" class="st3 st1 st2">G</text>
		</g>
		<g id="ID000040">
			<text transform="matrix(1.3042 0 0 1 381.3628 233.5049)" class="st6 st1 st2">U</text>
		</g>
		<g id="ID000041">
			<text transform="matrix(1.3042 0 0 1 380.9009 220.7793)" class="st6 st1 st2">G</text>
		</g>
		<g id="ID000042">
			<text transform="matrix(1.3042 0 0 1 368.9399 208.0293)" class="st3 st1 st2">U</text>
		</g>
		<g id="ID000043">
			<text transform="matrix(1.3042 0 0 1 426.9082 208.0293)" class="st3 st1 st2">C</text>
		</g>
		<g id="ID000044">
			<text transform="matrix(1.3042 0 0 1 414.4863 220.7793)" class="st6 st1 st2">C</text>
		</g>
		<g id="ID000045">
			<text transform="matrix(1.3042 0 0 1 414.0234 233.5049)" class="st6 st1 st2">G</text>
		</g>
		<g id="ID000046">
			<text transform="matrix(1.3042 0 0 1 426.9082 246.2422)" class="st3 st1 st2">U</text>
		</g>
		<g id="ID000047">
			<polygon class="st4" points="407.2,228.8 407.2,228.7 407.2,228.5 407.1,228.4 407.1,228.2 407,228.1 406.9,227.9 406.9,227.8 
				406.8,227.6 406.7,227.5 406.5,227.3 406.4,227.2 406.3,227.1 406.1,227 406,226.9 405.8,226.8 405.6,226.7 405.4,226.6 
				405.2,226.5 405.1,226.5 404.8,226.4 404.7,226.4 404.4,226.3 404.2,226.3 404,226.3 403.8,226.3 403.6,226.3 403.4,226.3 
				403.2,226.4 403,226.4 402.8,226.4 402.6,226.5 402.4,226.6 402.2,226.6 402,226.7 401.9,226.8 401.7,226.9 401.5,227 
				401.4,227.2 401.3,227.3 401.1,227.4 401,227.5 400.9,227.7 400.8,227.8 400.8,228 400.7,228.1 400.6,228.3 400.6,228.4 
				400.6,228.6 400.6,228.8 400.6,228.9 400.6,229.1 400.6,229.3 400.6,229.4 400.7,229.6 400.8,229.7 400.8,229.9 400.9,230 
				401,230.2 401.1,230.3 401.3,230.4 401.4,230.5 401.5,230.7 401.7,230.8 401.9,230.9 402,231 402.2,231.1 402.4,231.1 
				402.6,231.2 402.8,231.3 403,231.3 403.2,231.3 403.4,231.4 403.6,231.4 403.8,231.4 404,231.4 404.2,231.4 404.4,231.4 
				404.7,231.3 404.8,231.3 405.1,231.2 405.2,231.2 405.4,231.1 405.6,231 405.8,230.9 406,230.8 406.1,230.7 406.3,230.6 
				406.4,230.5 406.5,230.4 406.7,230.2 406.8,230.1 406.9,229.9 406.9,229.8 407,229.6 407.1,229.5 407.1,229.3 407.2,229.2 
				407.2,229 			"/>
		</g>
		<g id="ID000048">
			<line class="st5" x1="393.9" y1="215" x2="413.8" y2="215"/>
		</g>
		<g id="ID000050">
			<text transform="matrix(1.3042 0 0 1 380.9009 195.3037)" class="st7 st1 st2">G</text>
		</g>
		<g id="ID000051">
			<text transform="matrix(1.3042 0 0 1 381.3628 182.5664)" class="st7 st1 st2">C</text>
		</g>
		<g id="ID000052">
			<text transform="matrix(1.3042 0 0 1 381.3628 169.8281)" class="st7 st1 st2">U</text>
		</g>
		<g id="ID000053">
			<text transform="matrix(1.3042 0 0 1 381.8159 157.0918)" class="st7 st1 st2">A</text>
		</g>
		<g id="ID000054">
			<text transform="matrix(1.3042 0 0 1 381.3628 144.3545)" class="st7 st1 st2">C</text>
		</g>
		<g id="ID000055">
			<line class="st5" x1="387.3" y1="130.1" x2="387.3" y2="121.6"/>
		</g>
		<g id="ID000056">
			<text transform="matrix(1.3042 0 0 1 378.1509 118.4619)" class="st1 st2">20</text>
		</g>
		<g id="ID000057">
			<text transform="matrix(1.3042 0 0 1 364.3403 134.7988)" class="st3 st1 st2">G</text>
		</g>
		<g id="ID000058">
			<text transform="matrix(1.3042 0 0 1 344.0942 134.7988)" class="st3 st1 st2">U</text>
		</g>
		<g id="ID000059">
			<text transform="matrix(1.3042 0 0 1 332.1343 122.0723)" class="st3 st1 st2">A</text>
		</g>
		<g id="ID000060">
			<text transform="matrix(1.3042 0 0 1 414.0234 144.3545)" class="st7 st1 st2">G</text>
		</g>
		<g id="ID000061">
			<line class="st5" x1="431.5" y1="138.6" x2="442.5" y2="138.6"/>
		</g>
		<g id="ID000062">
			<text transform="matrix(1.3042 0 0 1 442.5098 144.3545)" class="st1 st2">90</text>
		</g>
		<g id="ID000063">
			<text transform="matrix(1.3042 0 0 1 414.4863 157.0918)" class="st7 st1 st2">U</text>
		</g>
		<g id="ID000064">
			<text transform="matrix(1.3042 0 0 1 414.0234 169.8281)" class="st7 st1 st2">G</text>
		</g>
		<g id="ID000065">
			<text transform="matrix(1.3042 0 0 1 414.0234 182.5664)" class="st7 st1 st2">G</text>
		</g>
		<g id="ID000066">
			<text transform="matrix(1.3042 0 0 1 414.4863 195.3037)" class="st7 st1 st2">U</text>
		</g>
		<g id="ID000067">
			<polygon class="st4" points="407.2,190.6 407.2,190.5 407.2,190.3 407.1,190.2 407.1,190 407,189.9 406.9,189.7 406.9,189.5 
				406.8,189.4 406.7,189.3 406.5,189.1 406.4,189 406.3,188.9 406.1,188.8 406,188.7 405.8,188.6 405.6,188.5 405.4,188.4 
				405.2,188.3 405.1,188.3 404.8,188.2 404.7,188.2 404.4,188.1 404.2,188.1 404,188.1 403.8,188.1 403.6,188.1 403.4,188.1 
				403.2,188.1 403,188.2 402.8,188.2 402.6,188.3 402.4,188.4 402.2,188.4 402,188.5 401.9,188.6 401.7,188.7 401.5,188.8 
				401.4,188.9 401.3,189.1 401.1,189.2 401,189.3 400.9,189.5 400.8,189.6 400.8,189.8 400.7,189.9 400.6,190.1 400.6,190.2 
				400.6,190.4 400.6,190.6 400.6,190.7 400.6,190.9 400.6,191 400.6,191.2 400.7,191.4 400.8,191.5 400.8,191.7 400.9,191.8 
				401,192 401.1,192.1 401.3,192.2 401.4,192.3 401.5,192.5 401.7,192.6 401.9,192.7 402,192.8 402.2,192.9 402.4,192.9 402.6,193 
				402.8,193 403,193.1 403.2,193.1 403.4,193.2 403.6,193.2 403.8,193.2 404,193.2 404.2,193.2 404.4,193.2 404.7,193.1 
				404.8,193.1 405.1,193 405.2,193 405.4,192.9 405.6,192.8 405.8,192.7 406,192.6 406.1,192.5 406.3,192.4 406.4,192.3 
				406.5,192.2 406.7,192 406.8,191.9 406.9,191.7 406.9,191.6 407,191.4 407.1,191.3 407.1,191.1 407.2,191 407.2,190.8 			"/>
		</g>
		<g id="ID000068">
			<line class="st5" x1="393.9" y1="176.8" x2="413.8" y2="176.8"/>
		</g>
		<g id="ID000069">
			<polygon class="st4" points="407.2,165.2 407.2,165 407.2,164.8 407.1,164.7 407.1,164.5 407,164.4 406.9,164.2 406.9,164.1 
				406.8,163.9 406.7,163.8 406.5,163.7 406.4,163.5 406.3,163.4 406.1,163.3 406,163.2 405.8,163.1 405.6,163 405.4,162.9 
				405.2,162.9 405.1,162.8 404.8,162.7 404.7,162.7 404.4,162.7 404.2,162.6 404,162.6 403.8,162.6 403.6,162.6 403.4,162.7 
				403.2,162.7 403,162.7 402.8,162.8 402.6,162.8 402.4,162.9 402.2,163 402,163 401.9,163.1 401.7,163.2 401.5,163.3 401.4,163.5 
				401.3,163.6 401.1,163.7 401,163.9 400.9,164 400.8,164.2 400.8,164.3 400.7,164.5 400.6,164.6 400.6,164.8 400.6,164.9 
				400.6,165.1 400.6,165.3 400.6,165.4 400.6,165.6 400.6,165.7 400.7,165.9 400.8,166 400.8,166.2 400.9,166.3 401,166.5 
				401.1,166.6 401.3,166.7 401.4,166.9 401.5,167 401.7,167.1 401.9,167.2 402,167.3 402.2,167.4 402.4,167.5 402.6,167.5 
				402.8,167.6 403,167.6 403.2,167.7 403.4,167.7 403.6,167.7 403.8,167.7 404,167.7 404.2,167.7 404.4,167.7 404.7,167.6 
				404.8,167.6 405.1,167.5 405.2,167.5 405.4,167.4 405.6,167.3 405.8,167.2 406,167.1 406.1,167 406.3,166.9 406.4,166.8 
				406.5,166.7 406.7,166.5 406.8,166.4 406.9,166.3 406.9,166.1 407,166 407.1,165.8 407.1,165.7 407.2,165.5 407.2,165.3 			"/>
		</g>
		<g id="ID000070">
			<line class="st5" x1="393.9" y1="151.4" x2="413.8" y2="151.4"/>
		</g>
		<g id="ID000071">
			<line class="st5" x1="393.9" y1="138.6" x2="413.8" y2="138.6"/>
		</g>
		<g id="ID000073">
			<text transform="matrix(1.3042 0 0 1 327.5337 106.1523)" class="st3 st1 st2">U</text>
		</g>
		<g id="ID000074">
			<text transform="matrix(1.3042 0 0 1 339.9565 93.415)" class="st3 st1 st2">C</text>
		</g>
		<g id="ID000075">
			<text transform="matrix(1.3042 0 0 1 323.395 87.041)" class="st8 st1 st2">U</text>
		</g>
		<g id="ID000076">
			<text transform="matrix(1.3042 0 0 1 306.8335 87.041)" class="st8 st1 st2">U</text>
		</g>
		<g id="ID000077">
			<text transform="matrix(1.3042 0 0 1 290.2729 87.041)" class="st8 st1 st2">C</text>
		</g>
		<g id="ID000078">
			<text transform="matrix(1.3042 0 0 1 274.1665 87.041)" class="st8 st1 st2">A</text>
		</g>
		<g id="ID000079">
			<text transform="matrix(1.3042 0 0 1 256.689 87.041)" class="st8 st1 st2">G</text>
		</g>
		<g id="ID000080">
			<line class="st5" x1="263.1" y1="89.8" x2="263.1" y2="98.3"/>
		</g>
		<g id="ID000081">
			<text transform="matrix(1.3042 0 0 1 253.939 113.3184)" class="st1 st2">30</text>
		</g>
		<g id="ID000082">
			<text transform="matrix(1.3042 0 0 1 241.9077 48.8291)" class="st3 st1 st2">G</text>
		</g>
		<g id="ID000083">
			<text transform="matrix(1.3042 0 0 1 257.1509 61.5664)" class="st8 st1 st2">C</text>
		</g>
		<g id="ID000084">
			<text transform="matrix(1.3042 0 0 1 273.7124 61.5664)" class="st8 st1 st2">U</text>
		</g>
		<g id="ID000085">
			<text transform="matrix(1.3042 0 0 1 289.811 61.5664)" class="st8 st1 st2">G</text>
		</g>
		<g id="ID000086">
			<text transform="matrix(1.3042 0 0 1 307.2876 61.5664)" class="st8 st1 st2">A</text>
		</g>
		<g id="ID000087">
			<line class="st5" x1="312.8" y1="47.4" x2="312.8" y2="38.9"/>
		</g>
		<g id="ID000088">
			<text transform="matrix(1.3042 0 0 1 303.6216 35.6738)" class="st1 st2">50</text>
		</g>
		<g id="ID000089">
			<text transform="matrix(1.3042 0 0 1 322.9419 61.5664)" class="st8 st1 st2">G</text>
		</g>
		<g id="ID000090">
			<text transform="matrix(1.3042 0 0 1 339.9565 55.2031)" class="st3 st1 st2">U</text>
		</g>
		<g id="ID000091">
			<text transform="matrix(1.3042 0 0 1 348.2407 42.4658)" class="st3 st1 st2">C</text>
		</g>
		<g id="ID000092">
			<text transform="matrix(1.3042 0 0 1 364.8022 32.9092)" class="st3 st1 st2">U</text>
		</g>
		<g id="ID000093">
			<text transform="matrix(1.3042 0 0 1 385.0659 26.5469)" class="st3 st1 st2">A</text>
		</g>
		<g id="ID000094">
			<text transform="matrix(1.3042 0 0 1 402.5166 32.9092)" class="st3 st1 st2">A</text>
		</g>
		<g id="ID000095">
			<polygon class="st4" points="329.3,67.1 329.1,67.1 328.9,67.1 328.7,67.1 328.5,67.2 328.3,67.2 328.1,67.3 327.9,67.4 
				327.7,67.4 327.6,67.5 327.4,67.6 327.2,67.7 327.1,67.8 326.9,67.9 326.8,68 326.6,68.2 326.5,68.3 326.4,68.4 326.3,68.6 
				326.2,68.7 326.2,68.9 326.1,69 326.1,69.2 326,69.4 326,69.5 326,69.7 326,69.8 326.1,70 326.1,70.2 326.1,70.3 326.2,70.5 
				326.3,70.6 326.4,70.8 326.5,70.9 326.6,71.1 326.7,71.2 326.8,71.3 327,71.4 327.1,71.5 327.3,71.6 327.5,71.7 327.6,71.8 
				327.8,71.9 328,72 328.2,72 328.4,72.1 328.6,72.1 328.8,72.2 329,72.2 329.2,72.2 329.4,72.2 329.7,72.2 329.9,72.2 330.1,72.1 
				330.3,72.1 330.5,72 330.7,72 330.9,71.9 331,71.8 331.2,71.7 331.4,71.6 331.5,71.5 331.7,71.4 331.8,71.3 332,71.2 332.1,71.1 
				332.2,70.9 332.3,70.8 332.4,70.6 332.5,70.5 332.5,70.3 332.6,70.2 332.6,70 332.6,69.8 332.7,69.7 332.7,69.5 332.6,69.4 
				332.6,69.2 332.6,69 332.5,68.9 332.4,68.7 332.3,68.6 332.3,68.4 332.2,68.3 332,68.2 331.9,68 331.8,67.9 331.6,67.8 
				331.5,67.7 331.3,67.6 331.1,67.5 331,67.4 330.8,67.4 330.6,67.3 330.4,67.2 330.2,67.2 330,67.1 329.8,67.1 329.6,67.1 			"/>
		</g>
		<g id="ID000096">
			<line class="st5" x1="312.8" y1="76.2" x2="312.8" y2="60.9"/>
		</g>
		<g id="ID000097">
			<line class="st5" x1="296.2" y1="76.2" x2="296.2" y2="60.9"/>
		</g>
		<g id="ID000098">
			<line class="st5" x1="279.7" y1="76.2" x2="279.7" y2="60.9"/>
		</g>
		<g id="ID000099">
			<line class="st9" x1="256.5" y1="81.3" x2="240.7" y2="81.3"/>
		</g>
		<g id="ID000100">
			<polygon class="st4" points="254.1,85.1 251.4,83.2 248.6,82.6 245.8,82.3 240.3,81.3 245.8,80.4 248.6,80 251.4,79.4 
				254.1,77.5 			"/>
		</g>
		<g id="ID000101">
			<line class="st5" x1="263.1" y1="76.2" x2="263.1" y2="60.9"/>
		</g>
		<g id="ID000103">
			<text transform="matrix(1.3042 0 0 1 227.7036 87.041)" class="st8 st1 st2">G</text>
		</g>
		<g id="ID000104">
			<text transform="matrix(1.3042 0 0 1 211.606 87.041)" class="st8 st1 st2">C</text>
		</g>
		<g id="ID000105">
			<text transform="matrix(1.3042 0 0 1 194.5815 87.041)" class="st8 st1 st2">G</text>
		</g>
		<g id="ID000106">
			<text transform="matrix(1.3042 0 0 1 178.021 87.041)" class="st8 st1 st2">G</text>
		</g>
		<g id="ID000107">
			<text transform="matrix(1.3042 0 0 1 161.9233 87.041)" class="st8 st1 st2">U</text>
		</g>
		<g id="ID000108">
			<text transform="matrix(1.3042 0 0 1 145.8159 93.415)" class="st3 st1 st2">A</text>
		</g>
		<g id="ID000109">
			<text transform="matrix(1.3042 0 0 1 125.1089 87.041)" class="st3 st1 st2">A</text>
		</g>
		<g id="ID000110">
			<text transform="matrix(1.3042 0 0 1 108.0933 74.3037)" class="st3 st1 st2">C</text>
		</g>
		<g id="ID000111">
			<text transform="matrix(1.3042 0 0 1 124.6538 61.5664)" class="st3 st1 st2">U</text>
		</g>
		<g id="ID000112">
			<text transform="matrix(1.3042 0 0 1 145.8159 52.0215)" class="st3 st1 st2">A</text>
		</g>
		<g id="ID000113">
			<line class="st5" x1="151.3" y1="37.8" x2="151.3" y2="29.3"/>
		</g>
		<g id="ID000114">
			<text transform="matrix(1.3042 0 0 1 142.1499 26.1182)" class="st1 st2">40</text>
		</g>
		<g id="ID000115">
			<text transform="matrix(1.3042 0 0 1 162.3765 61.5664)" class="st8 st1 st2">A</text>
		</g>
		<g id="ID000116">
			<text transform="matrix(1.3042 0 0 1 178.4751 61.5664)" class="st8 st1 st2">C</text>
		</g>
		<g id="ID000117">
			<text transform="matrix(1.3042 0 0 1 195.0454 61.5664)" class="st8 st1 st2">U</text>
		</g>
		<g id="ID000118">
			<text transform="matrix(1.3042 0 0 1 211.1431 61.5664)" class="st8 st1 st2">G</text>
		</g>
		<g id="ID000119">
			<text transform="matrix(1.3042 0 0 1 228.1675 61.5664)" class="st8 st1 st2">U</text>
		</g>
		<g id="ID000120">
			<polygon class="st4" points="234.1,67.1 233.9,67.1 233.7,67.1 233.5,67.1 233.3,67.2 233.1,67.2 232.9,67.3 232.7,67.4 
				232.5,67.4 232.3,67.5 232.1,67.6 232,67.7 231.8,67.8 231.7,67.9 231.5,68 231.4,68.2 231.3,68.3 231.2,68.4 231.1,68.6 
				231,68.7 230.9,68.9 230.9,69 230.8,69.2 230.8,69.4 230.8,69.5 230.8,69.7 230.8,69.8 230.8,70 230.9,70.2 230.9,70.3 231,70.5 
				231.1,70.6 231.1,70.8 231.2,70.9 231.4,71.1 231.5,71.2 231.6,71.3 231.8,71.4 231.9,71.5 232.1,71.6 232.2,71.7 232.4,71.8 
				232.6,71.9 232.8,72 233,72 233.2,72.1 233.4,72.1 233.6,72.2 233.8,72.2 234,72.2 234.2,72.2 234.4,72.2 234.6,72.2 234.8,72.1 
				235,72.1 235.2,72 235.4,72 235.6,71.9 235.8,71.8 236,71.7 236.2,71.6 236.3,71.5 236.5,71.4 236.6,71.3 236.7,71.2 236.9,71.1 
				237,70.9 237.1,70.8 237.2,70.6 237.2,70.5 237.3,70.3 237.4,70.2 237.4,70 237.4,69.8 237.4,69.7 237.4,69.5 237.4,69.4 
				237.4,69.2 237.3,69 237.3,68.9 237.2,68.7 237.1,68.6 237,68.4 236.9,68.3 236.8,68.2 236.7,68 236.5,67.9 236.4,67.8 
				236.2,67.7 236.1,67.6 235.9,67.5 235.7,67.4 235.5,67.4 235.3,67.3 235.1,67.2 234.9,67.2 234.7,67.1 234.5,67.1 234.3,67.1 			
				"/>
		</g>
		<g id="ID000121">
			<line class="st5" x1="217.6" y1="76.2" x2="217.6" y2="60.9"/>
		</g>
		<g id="ID000122">
			<polygon class="st4" points="201,67.1 200.8,67.1 200.6,67.1 200.4,67.1 200.2,67.2 199.9,67.2 199.8,67.3 199.6,67.4 
				199.4,67.4 199.2,67.5 199,67.6 198.9,67.7 198.7,67.8 198.6,67.9 198.4,68 198.3,68.2 198.2,68.3 198.1,68.4 198,68.6 
				197.9,68.7 197.8,68.9 197.8,69 197.7,69.2 197.7,69.4 197.7,69.5 197.7,69.7 197.7,69.8 197.7,70 197.7,70.2 197.8,70.3 
				197.9,70.5 197.9,70.6 198,70.8 198.1,70.9 198.2,71.1 198.4,71.2 198.5,71.3 198.6,71.4 198.8,71.5 198.9,71.6 199.1,71.7 
				199.3,71.8 199.5,71.9 199.7,72 199.9,72 200.1,72.1 200.3,72.1 200.5,72.2 200.7,72.2 200.9,72.2 201.1,72.2 201.3,72.2 
				201.5,72.2 201.7,72.1 201.9,72.1 202.1,72 202.3,72 202.5,71.9 202.7,71.8 202.9,71.7 203,71.6 203.2,71.5 203.3,71.4 
				203.5,71.3 203.6,71.2 203.7,71.1 203.9,70.9 204,70.8 204,70.6 204.1,70.5 204.2,70.3 204.2,70.2 204.3,70 204.3,69.8 
				204.3,69.7 204.3,69.5 204.3,69.4 204.2,69.2 204.2,69 204.1,68.9 204.1,68.7 204,68.6 203.9,68.4 203.8,68.3 203.7,68.2 
				203.6,68 203.4,67.9 203.3,67.8 203.1,67.7 202.9,67.6 202.8,67.5 202.6,67.4 202.4,67.4 202.2,67.3 202,67.2 201.8,67.2 
				201.6,67.1 201.4,67.1 201.2,67.1 			"/>
		</g>
		<g id="ID000123">
			<line class="st5" x1="184.4" y1="76.2" x2="184.4" y2="60.9"/>
		</g>
		<g id="ID000124">
			<line class="st5" x1="167.9" y1="76.2" x2="167.9" y2="60.9"/>
		</g>
		<g id="ID000126">
			<text transform="matrix(1.3042 0 0 1 418.624 39.2842)" class="st3 st1 st2">U</text>
		</g>
		<g id="ID000127">
			<text transform="matrix(1.3042 0 0 1 431.0469 52.0215)" class="st3 st1 st2">C</text>
		</g>
		<g id="ID000128">
			<text transform="matrix(1.3042 0 0 1 435.1846 67.9404)" class="st3 st1 st2">U</text>
		</g>
		<g id="ID000129">
			<text transform="matrix(1.3042 0 0 1 426.9082 83.8594)" class="st3 st1 st2">U</text>
		</g>
		<g id="ID000130">
			<line class="st5" x1="443.9" y1="78.1" x2="454.9" y2="78.1"/>
		</g>
		<g id="ID000131">
			<text transform="matrix(1.3042 0 0 1 454.9316 83.8594)" class="st1 st2">60</text>
		</g>
		<g id="ID000132">
			<text transform="matrix(1.3042 0 0 1 414.4863 99.7793)" class="st3 st1 st2">U</text>
		</g>
		<g id="ID000133">
			<text transform="matrix(1.3042 0 0 1 430.5938 106.1523)" class="st10 st1 st2">G</text>
		</g>
		<g id="ID000134">
			<text transform="matrix(1.3042 0 0 1 447.6084 106.1523)" class="st10 st1 st2">U</text>
		</g>
		<g id="ID000135">
			<text transform="matrix(1.3042 0 0 1 463.7148 106.1523)" class="st10 st1 st2">G</text>
		</g>
		<g id="ID000136">
			<text transform="matrix(1.3042 0 0 1 480.2939 93.415)" class="st3 st1 st2">A</text>
		</g>
		<g id="ID000137">
			<text transform="matrix(1.3042 0 0 1 464.1699 131.6162)" class="st10 st1 st2">C</text>
		</g>
		<g id="ID000138">
			<text transform="matrix(1.3042 0 0 1 447.1543 131.6162)" class="st10 st1 st2">G</text>
		</g>
		<g id="ID000139">
			<text transform="matrix(1.3042 0 0 1 431.0469 131.6162)" class="st10 st1 st2">C</text>
		</g>
		<g id="ID000140">
			<line class="st5" x1="437" y1="105.5" x2="437" y2="120.8"/>
		</g>
		<g id="ID000141">
			<polygon class="st4" points="453.6,116.8 453.8,116.8 454,116.7 454.2,116.7 454.4,116.7 454.6,116.6 454.8,116.6 455,116.5 
				455.2,116.4 455.3,116.4 455.5,116.3 455.7,116.2 455.8,116.1 456,116 456.1,115.8 456.2,115.7 456.4,115.6 456.5,115.4 
				456.6,115.3 456.6,115.1 456.7,115 456.8,114.8 456.8,114.7 456.8,114.5 456.9,114.3 456.9,114.2 456.9,114 456.8,113.9 
				456.8,113.7 456.7,113.5 456.7,113.4 456.6,113.2 456.5,113.1 456.4,112.9 456.3,112.8 456.2,112.7 456.1,112.6 455.9,112.4 
				455.8,112.3 455.6,112.2 455.4,112.1 455.3,112 455.1,112 454.9,111.9 454.7,111.8 454.5,111.8 454.3,111.7 454.1,111.7 
				453.9,111.7 453.7,111.7 453.4,111.7 453.2,111.7 453,111.7 452.8,111.7 452.6,111.8 452.4,111.8 452.2,111.9 452,112 451.9,112 
				451.7,112.1 451.5,112.2 451.3,112.3 451.2,112.4 451.1,112.6 450.9,112.7 450.8,112.8 450.7,112.9 450.6,113.1 450.5,113.2 
				450.4,113.4 450.4,113.5 450.3,113.7 450.3,113.9 450.3,114 450.2,114.2 450.2,114.3 450.3,114.5 450.3,114.7 450.3,114.8 
				450.4,115 450.5,115.1 450.5,115.3 450.6,115.4 450.7,115.6 450.9,115.7 451,115.8 451.1,116 451.3,116.1 451.4,116.2 
				451.6,116.3 451.8,116.4 451.9,116.4 452.1,116.5 452.3,116.6 452.5,116.6 452.7,116.7 452.9,116.7 453.1,116.7 453.3,116.8 			
				"/>
		</g>
		<g id="ID000142">
			<line class="st5" x1="470.1" y1="105.5" x2="470.1" y2="120.8"/>
		</g>
		<g id="ID000143">
			<line class="st9" x1="492.5" y1="125.9" x2="476.7" y2="125.9"/>
		</g>
		<g id="ID000144">
			<polygon class="st4" points="490.1,129.7 487.4,127.8 484.6,127.2 481.8,126.8 476.3,125.9 481.8,124.9 484.6,124.6 487.4,124 
				490.1,122.1 			"/>
		</g>
		<g id="ID000146">
			<text transform="matrix(1.3042 0 0 1 492.6992 106.1523)" class="st11 st1 st2">G</text>
		</g>
		<g id="ID000147">
			<text transform="matrix(1.3042 0 0 1 509.2617 106.1523)" class="st11 st1 st2">G</text>
		</g>
		<g id="ID000148">
			<text transform="matrix(1.3042 0 0 1 525.8213 106.1523)" class="st11 st1 st2">G</text>
		</g>
		<g id="ID000149">
			<text transform="matrix(1.3042 0 0 1 543.291 106.1523)" class="st11 st1 st2">A</text>
		</g>
		<g id="ID000150">
			<text transform="matrix(1.3042 0 0 1 559.3975 106.1523)" class="st11 st1 st2">C</text>
		</g>
		<g id="ID000151">
			<line class="st5" x1="565.3" y1="91.9" x2="565.3" y2="83.4"/>
		</g>
		<g id="ID000152">
			<text transform="matrix(1.3042 0 0 1 556.1934 80.25)" class="st1 st2">70</text>
		</g>
		<g id="ID000153">
			<text transform="matrix(1.3042 0 0 1 573.1465 93.415)" class="st3 st1 st2">G</text>
		</g>
		<g id="ID000154">
			<text transform="matrix(1.3042 0 0 1 573.1465 144.3545)" class="st3 st1 st2">G</text>
		</g>
		<g id="ID000155">
			<text transform="matrix(1.3042 0 0 1 558.9434 131.6162)" class="st11 st1 st2">G</text>
		</g>
		<g id="ID000156">
			<text transform="matrix(1.3042 0 0 1 542.8447 131.6162)" class="st11 st1 st2">U</text>
		</g>
		<g id="ID000157">
			<text transform="matrix(1.3042 0 0 1 526.2764 131.6162)" class="st11 st1 st2">U</text>
		</g>
		<g id="ID000158">
			<text transform="matrix(1.3042 0 0 1 509.7139 131.6162)" class="st11 st1 st2">C</text>
		</g>
		<g id="ID000159">
			<text transform="matrix(1.3042 0 0 1 493.1533 131.6162)" class="st11 st1 st2">C</text>
		</g>
		<g id="ID000160">
			<line class="st5" x1="499.1" y1="105.5" x2="499.1" y2="120.8"/>
		</g>
		<g id="ID000161">
			<line class="st5" x1="515.7" y1="105.5" x2="515.7" y2="120.8"/>
		</g>
		<g id="ID000162">
			<polygon class="st4" points="532.2,116.8 532.4,116.8 532.6,116.7 532.9,116.7 533.1,116.7 533.3,116.6 533.4,116.6 533.6,116.5 
				533.8,116.4 534,116.4 534.2,116.3 534.3,116.2 534.5,116.1 534.6,116 534.8,115.8 534.9,115.7 535,115.6 535.1,115.4 
				535.2,115.3 535.3,115.1 535.4,115 535.4,114.8 535.5,114.7 535.5,114.5 535.5,114.3 535.5,114.2 535.5,114 535.5,113.9 
				535.5,113.7 535.4,113.5 535.4,113.4 535.3,113.2 535.2,113.1 535.1,112.9 535,112.8 534.9,112.7 534.7,112.6 534.6,112.4 
				534.4,112.3 534.3,112.2 534.1,112.1 533.9,112 533.7,112 533.5,111.9 533.3,111.8 533.2,111.8 532.9,111.7 532.7,111.7 
				532.5,111.7 532.3,111.7 532.1,111.7 531.9,111.7 531.7,111.7 531.5,111.7 531.3,111.8 531.1,111.8 530.9,111.9 530.7,112 
				530.5,112 530.3,112.1 530.2,112.2 530,112.3 529.9,112.4 529.7,112.6 529.6,112.7 529.5,112.8 529.4,112.9 529.3,113.1 
				529.2,113.2 529.1,113.4 529,113.5 529,113.7 528.9,113.9 528.9,114 528.9,114.2 528.9,114.3 528.9,114.5 529,114.7 529,114.8 
				529.1,115 529.1,115.1 529.2,115.3 529.3,115.4 529.4,115.6 529.5,115.7 529.6,115.8 529.8,116 529.9,116.1 530.1,116.2 
				530.3,116.3 530.4,116.4 530.6,116.4 530.8,116.5 531,116.6 531.2,116.6 531.4,116.7 531.6,116.7 531.8,116.7 532,116.8 			"/>
		</g>
		<g id="ID000163">
			<line class="st5" x1="548.8" y1="105.5" x2="548.8" y2="120.8"/>
		</g>
		<g id="ID000164">
			<line class="st5" x1="565.3" y1="105.5" x2="565.3" y2="120.8"/>
		</g>
		<g id="ID000166">
			<text transform="matrix(1.3042 0 0 1 587.9277 106.1523)" class="st12 st1 st2">G</text>
		</g>
		<g id="ID000167">
			<text transform="matrix(1.3042 0 0 1 604.9424 106.1523)" class="st12 st1 st2">U</text>
		</g>
		<g id="ID000168">
			<text transform="matrix(1.3042 0 0 1 621.957 106.1523)" class="st12 st1 st2">A</text>
		</g>
		<g id="ID000169">
			<text transform="matrix(1.3042 0 0 1 639.1055 102.96)" class="st3 st1 st2">A</text>
		</g>
		<g id="ID000170">
			<text transform="matrix(1.3042 0 0 1 651.0742 118.8789)" class="st3 st1 st2">C</text>
		</g>
		<g id="ID000171">
			<text transform="matrix(1.3042 0 0 1 639.1055 134.7988)" class="st3 st1 st2">A</text>
		</g>
		<g id="ID000172">
			<text transform="matrix(1.3042 0 0 1 621.5127 131.6162)" class="st12 st1 st2">U</text>
		</g>
		<g id="ID000173">
			<text transform="matrix(1.3042 0 0 1 605.3955 131.6162)" class="st12 st1 st2">A</text>
		</g>
		<g id="ID000174">
			<text transform="matrix(1.3042 0 0 1 588.3809 131.6162)" class="st12 st1 st2">U</text>
		</g>
		<g id="ID000175">
			<line class="st5" x1="594.3" y1="134.4" x2="594.3" y2="142.9"/>
		</g>
		<g id="ID000176">
			<text transform="matrix(1.3042 0 0 1 585.1689 157.8945)" class="st1 st2">80</text>
		</g>
		<g id="ID000177">
			<polygon class="st4" points="594.3,116.8 594.5,116.8 594.7,116.7 594.9,116.7 595.2,116.7 595.4,116.6 595.6,116.6 595.7,116.5 
				595.9,116.4 596.1,116.4 596.3,116.3 596.5,116.2 596.6,116.1 596.8,116 596.9,115.8 597,115.7 597.1,115.6 597.2,115.4 
				597.3,115.3 597.4,115.1 597.5,115 597.5,114.8 597.6,114.7 597.6,114.5 597.6,114.3 597.6,114.2 597.6,114 597.6,113.9 
				597.6,113.7 597.5,113.5 597.5,113.4 597.4,113.2 597.3,113.1 597.2,112.9 597.1,112.8 597,112.7 596.8,112.6 596.7,112.4 
				596.5,112.3 596.4,112.2 596.2,112.1 596,112 595.8,112 595.7,111.9 595.5,111.8 595.3,111.8 595.1,111.7 594.9,111.7 
				594.6,111.7 594.4,111.7 594.2,111.7 594,111.7 593.8,111.7 593.6,111.7 593.4,111.8 593.2,111.8 593,111.9 592.8,112 592.6,112 
				592.4,112.1 592.3,112.2 592.1,112.3 592,112.4 591.8,112.6 591.7,112.7 591.6,112.8 591.5,112.9 591.4,113.1 591.3,113.2 
				591.2,113.4 591.1,113.5 591.1,113.7 591.1,113.9 591,114 591,114.2 591,114.3 591,114.5 591.1,114.7 591.1,114.8 591.2,115 
				591.2,115.1 591.3,115.3 591.4,115.4 591.5,115.6 591.6,115.7 591.8,115.8 591.9,116 592,116.1 592.2,116.2 592.4,116.3 
				592.5,116.4 592.7,116.4 592.9,116.5 593.1,116.6 593.3,116.6 593.5,116.7 593.7,116.7 593.9,116.7 594.1,116.8 			"/>
		</g>
		<g id="ID000178">
			<line class="st5" x1="610.9" y1="105.5" x2="610.9" y2="120.8"/>
		</g>
		<g id="ID000179">
			<line class="st5" x1="627.4" y1="105.5" x2="627.4" y2="120.8"/>
		</g>
		<g id="ID000181">
			<line class="st9" x1="420.4" y1="322" x2="420.4" y2="334.1"/>
		</g>
		<g id="ID000182">
			<polygon class="st4" points="425.4,323.8 422.9,326 422.1,328.1 421.7,330.2 420.4,334.4 419.2,330.2 418.8,328.1 417.9,326 
				415.5,323.8 			"/>
		</g>
	</g>
</g>
<text transform="matrix(1 0 0 1 12.8127 23.8433)" class="st1 st13">B2 aptamer</text>
<text transform="matrix(1 0 0 1 358.9292 386.6702)" class="st1 st13">5</text>
<text transform="matrix(1 0 0 1 370.0492 386.6702)" class="st1 st13">’</text>
<text transform="matrix(1 0 0 1 458.1199 396.24)" class="st1 st13">3</text>
<text transform="matrix(1 0 0 1 469.2399 396.24)" class="st1 st13">’</text>
</svg>
