<?xml version="1.0" encoding="utf-8"?>
<!-- Generator: Adobe Illustrator 25.2.0, SVG Export Plug-In . SVG Version: 6.00 Build 0)  -->
<svg version="1.1" id="图层_1" xmlns="http://www.w3.org/2000/svg" xmlns:xlink="http://www.w3.org/1999/xlink" x="0px" y="0px"
	 viewBox="0 0 400 400" style="enable-background:new 0 0 400 400;" xml:space="preserve">
<style type="text/css">
	.st0{fill:#C2B617;}
	.st1{font-family:'ArialMT';}
	.st2{font-size:19.3589px;}
	.st3{fill:none;stroke:#000000;stroke-miterlimit:1.11;}
	.st4{fill:#084595;}
	.st5{stroke:#000000;stroke-width:0.14;stroke-miterlimit:1.11;}
	.st6{fill:none;stroke:#000000;stroke-width:1.19;stroke-miterlimit:1.11;}
	.st7{font-size:19.1042px;}
	.st8{font-size:20px;}
</style>
<g id="ID000002">
	<text transform="matrix(1 0 0 1 194.0685 390.5383)" class="st0 st1 st2">A</text>
</g>
<g id="ID000003">
	<text transform="matrix(1 0 0 1 173.3088 390.3059)" class="st0 st1 st2">A</text>
</g>
<g id="ID000004">
	<text transform="matrix(1 0 0 1 152.5744 390.3059)" class="st0 st1 st2">C</text>
</g>
<g id="ID000005">
	<text transform="matrix(1 0 0 1 131.5012 385.8352)" class="st0 st1 st2">G</text>
</g>
<g id="ID000006">
	<text transform="matrix(1 0 0 1 114.9289 372.0647)" class="st0 st1 st2">C</text>
</g>
<g id="ID000007">
	<text transform="matrix(1 0 0 1 105.8898 354.4514)" class="st0 st1 st2">U</text>
</g>
<g id="ID000008">
	<text transform="matrix(1 0 0 1 104.9221 335.2932)" class="st0 st1 st2">C</text>
</g>
<g id="ID000009">
	<text transform="matrix(1 0 0 1 110.4396 314.2229)" class="st0 st1 st2">A</text>
</g>
<g id="ID000010">
	<text transform="matrix(1 0 0 1 129.9162 307.6468)" class="st0 st1 st2">A</text>
</g>
<g id="ID000011">
	<text transform="matrix(1 0 0 1 148.8303 307.6468)" class="st0 st1 st2">U</text>
</g>
<g id="ID000012">
	<line class="st3" x1="146.7" y1="289.7" x2="137.5" y2="280.5"/>
</g>
<g id="ID000013">
	<text transform="matrix(1 0 0 1 115.9582 275.7054)" class="st1 st2">10</text>
</g>
<g id="ID000014">
	<g>
		<text transform="matrix(1 0 0 1 171.5256 304.4124)" class="st4 st1 st2">C</text>
	</g>
</g>
<g id="ID000015">
	<g>
		<text transform="matrix(1 0 0 1 170.9777 284.9641)" class="st4 st1 st2">G</text>
	</g>
</g>
<g id="ID000016">
	<g>
		<text transform="matrix(1 0 0 1 170.9777 265.5159)" class="st4 st1 st2">G</text>
	</g>
</g>
<g id="ID000017">
	<g>
		<text transform="matrix(1 0 0 1 171.5256 246.0686)" class="st4 st1 st2">C</text>
	</g>
</g>
<g id="ID000018">
	<g>
		<text transform="matrix(1 0 0 1 170.9777 226.6082)" class="st4 st1 st2">G</text>
	</g>
</g>
<g id="ID000019">
	<g>
		<text transform="matrix(1 0 0 1 172.0607 207.1599)" class="st4 st1 st2">A</text>
	</g>
</g>
<g id="ID000020">
	<g>
		<text transform="matrix(1 0 0 1 170.9777 187.7117)" class="st4 st1 st2">G</text>
	</g>
</g>
<g id="ID000021">
	<text transform="matrix(1 0 0 1 240.1096 159.1189)" class="st4 st1 st2">C</text>
</g>
<g id="ID000022">
	<text transform="matrix(1 0 0 1 229.7043 175.1033)" class="st4 st1 st2">A</text>
</g>
<g id="ID000023">
	<g>
		<text transform="matrix(1 0 0 1 210.4211 187.7117)" class="st4 st1 st2">C</text>
	</g>
</g>
<g id="ID000024">
	<line class="st3" x1="226.6" y1="188.1" x2="235.7" y2="197.3"/>
</g>
<g id="ID000025">
	<text transform="matrix(1 0 0 1 235.7414 220.2527)" class="st1 st2">30</text>
</g>
<g id="ID000026">
	<g>
		<text transform="matrix(1 0 0 1 210.4211 207.1599)" class="st4 st1 st2">U</text>
	</g>
</g>
<g id="ID000027">
	<g>
		<text transform="matrix(1 0 0 1 210.4211 226.6082)" class="st4 st1 st2">C</text>
	</g>
</g>
<g id="ID000028">
	<g>
		<text transform="matrix(1 0 0 1 209.8869 246.0686)" class="st4 st1 st2">G</text>
	</g>
</g>
<g id="ID000029">
	<g>
		<text transform="matrix(1 0 0 1 210.4211 265.5159)" class="st4 st1 st2">C</text>
	</g>
</g>
<g id="ID000030">
	<g>
		<text transform="matrix(1 0 0 1 210.4211 284.9641)" class="st4 st1 st2">U</text>
	</g>
</g>
<g id="ID000031">
	<g>
		<text transform="matrix(1 0 0 1 209.8869 304.4124)" class="st4 st1 st2">G</text>
	</g>
</g>
<g id="ID000032">
	<text transform="matrix(1 0 0 1 231.4875 302.7815)" class="st0 st1 st2">C</text>
</g>
<g id="ID000033">
	<text transform="matrix(1 0 0 1 251.4709 302.7815)" class="st0 st1 st2">A</text>
</g>
<g id="ID000034">
	<text transform="matrix(1 0 0 1 270.384 302.7815)" class="st0 st1 st2">C</text>
</g>
<g id="ID000035">
	<text transform="matrix(1 0 0 1 287.8234 304.6448)" class="st0 st1 st2">U</text>
</g>
<g id="ID000036">
	<line class="st3" x1="296.8" y1="281.1" x2="296.8" y2="268.1"/>
</g>
<g id="ID000037">
	<text transform="matrix(1 0 0 1 286.0617 263.2356)" class="st1 st2">40</text>
</g>
<g id="ID000038">
	<text transform="matrix(1 0 0 1 301.257 314.5491)" class="st0 st1 st2">U</text>
</g>
<g id="ID000039">
	<text transform="matrix(1 0 0 1 313.6662 330.429)" class="st0 st1 st2">C</text>
</g>
<g id="ID000040">
	<text transform="matrix(1 0 0 1 320.8195 349.8372)" class="st0 st1 st2">G</text>
</g>
<g id="ID000041">
	<text transform="matrix(1 0 0 1 318.5392 366.4045)" class="st0 st1 st2">A</text>
</g>
<g id="ID000042">
	<text transform="matrix(1 0 0 1 313.6652 385.8372)" class="st0 st1 st2">C</text>
</g>
<g id="ID000043">
	<text transform="matrix(1 0 0 1 296.8234 386.6067)" class="st0 st1 st2">A</text>
</g>
<g id="ID000044">
	<text transform="matrix(1 0 0 1 279.5295 386.6067)" class="st0 st1 st2">U</text>
</g>
<g id="ID000045">
	<text transform="matrix(1 0 0 1 256.342 385.8352)" class="st0 st1 st2">G</text>
</g>
<g id="ID000046">
	<line class="st3" x1="186.3" y1="295.6" x2="209.6" y2="295.6"/>
</g>
<g id="ID000047">
	<polygon class="st5" points="201.9,276.2 201.8,275.9 201.8,275.7 201.8,275.5 201.7,275.2 201.7,275 201.6,274.8 201.5,274.5 
		201.4,274.3 201.2,274.1 201.1,273.9 200.9,273.7 200.8,273.5 200.6,273.3 200.4,273.2 200.2,273 200,272.9 199.8,272.8 
		199.6,272.6 199.4,272.6 199.1,272.5 198.9,272.4 198.6,272.4 198.4,272.3 198.1,272.3 197.9,272.3 197.6,272.3 197.4,272.3 
		197.2,272.4 196.9,272.4 196.7,272.5 196.5,272.6 196.2,272.7 196,272.8 195.8,273 195.6,273.1 195.4,273.3 195.2,273.4 
		195.1,273.6 194.9,273.8 194.8,274 194.6,274.2 194.5,274.4 194.4,274.6 194.3,274.9 194.2,275.1 194.2,275.3 194.1,275.6 
		194.1,275.8 194.1,276.1 194.1,276.3 194.1,276.6 194.1,276.8 194.2,277.1 194.2,277.3 194.3,277.5 194.4,277.8 194.5,278 
		194.6,278.2 194.8,278.4 194.9,278.6 195.1,278.8 195.2,279 195.4,279.1 195.6,279.3 195.8,279.4 196,279.6 196.2,279.7 
		196.5,279.8 196.7,279.9 196.9,279.9 197.2,280 197.4,280 197.6,280.1 197.9,280.1 198.1,280.1 198.4,280.1 198.6,280 198.9,280 
		199.1,279.9 199.4,279.8 199.6,279.7 199.8,279.6 200,279.5 200.2,279.4 200.4,279.2 200.6,279.1 200.8,278.9 200.9,278.7 
		201.1,278.5 201.2,278.3 201.4,278.1 201.5,277.9 201.6,277.6 201.7,277.4 201.7,277.2 201.8,276.9 201.8,276.7 201.8,276.4 	"/>
</g>
<g id="ID000048">
	<line class="st3" x1="186.3" y1="256.7" x2="209.6" y2="256.7"/>
</g>
<g id="ID000049">
	<line class="st3" x1="186.3" y1="237.3" x2="209.6" y2="237.3"/>
</g>
<g id="ID000050">
	<line class="st3" x1="186.3" y1="217.8" x2="209.6" y2="217.8"/>
</g>
<g id="ID000051">
	<line class="st3" x1="186.3" y1="198.4" x2="209.6" y2="198.4"/>
</g>
<g id="ID000052">
	<line class="st6" x1="178.7" y1="171.2" x2="179.9" y2="126.8"/>
</g>
<g id="ID000053">
	<polygon class="st5" points="173.3,155.3 176.3,152.1 177.4,148.9 178,145.7 179.6,139.3 180.9,145.8 181.3,149 182.1,152.3 
		185,155.6 	"/>
</g>
<g id="ID000054">
	<line class="st3" x1="186.3" y1="178.9" x2="209.6" y2="178.9"/>
</g>
<g id="ID000056">
	<text transform="matrix(1 0 0 1 173.1428 127.7498)" class="st4 st1 st2">C</text>
</g>
<g id="ID000057">
	<text transform="matrix(1 0 0 1 173.1428 108.3025)" class="st4 st1 st2">U</text>
</g>
<g id="ID000058">
	<text transform="matrix(1 0 0 1 159.0949 88.8544)" class="st4 st1 st2">A</text>
</g>
<g id="ID000059">
	<line class="st3" x1="152.6" y1="80.1" x2="139.6" y2="80.1"/>
</g>
<g id="ID000060">
	<text transform="matrix(1 0 0 1 118.0842 88.8544)" class="st1 st2">20</text>
</g>
<g id="ID000061">
	<text transform="matrix(1 0 0 1 168.8127 69.4061)" class="st4 st1 st2">A</text>
</g>
<g id="ID000062">
	<text transform="matrix(1 0 0 1 190.0441 58.4012)" class="st4 st1 st2">C</text>
</g>
<g id="ID000063">
	<text transform="matrix(1 0 0 1 212.0392 69.4061)" class="st4 st1 st2">C</text>
</g>
<g id="ID000064">
	<text transform="matrix(1 0 0 1 222.3039 88.8544)" class="st4 st1 st2">A</text>
</g>
<g id="ID000065">
	<text transform="matrix(1 0 0 1 212.5744 108.3025)" class="st4 st1 st2">A</text>
</g>
<g id="ID000066">
	<text transform="matrix(1 0 0 1 211.5041 127.7498)" class="st4 st1 st2">G</text>
</g>
<g id="ID000067">
	<text transform="matrix(1 0 0 1 231.1564 136.6013)" class="st4 st1 st2">A</text>
</g>
<g id="ID000068">
	<line class="st3" x1="187.9" y1="119" x2="211.3" y2="119"/>
</g>
<g id="ID000069">
	<line class="st3" x1="187.9" y1="99.5" x2="211.3" y2="99.5"/>
</g>
<text transform="matrix(1 0 0 1 190.7845 363.1293)" class="st1 st7">5</text>
<text transform="matrix(1 0 0 1 201.4066 363.1293)" class="st1 st7">’</text>
<text transform="matrix(1 0 0 1 257.2445 363.1303)" class="st1 st7">3</text>
<text transform="matrix(1 0 0 1 267.8666 363.1303)" class="st1 st7">’</text>
<text transform="matrix(1 0 0 1 145.9397 24.17)" class="st1 st8"> 7A aptamer</text>
</svg>
