<?xml version="1.0" encoding="utf-8"?>
<!-- Generator: Adobe Illustrator 25.2.0, SVG Export Plug-In . SVG Version: 6.00 Build 0)  -->
<svg version="1.1" id="图层_1" xmlns="http://www.w3.org/2000/svg" xmlns:xlink="http://www.w3.org/1999/xlink" x="0px" y="0px"
	 viewBox="0 0 800 400" style="enable-background:new 0 0 800 400;" xml:space="preserve">
<style type="text/css">
	.st0{fill:#B83233;}
	.st1{font-family:'Helvetica';}
	.st2{font-size:12.6109px;}
	.st3{fill:none;stroke:#000000;stroke-width:0.5;stroke-miterlimit:1.3617;}
	.st4{fill:#084595;}
	.st5{fill:none;stroke:#000000;stroke-miterlimit:1.3617;}
	.st6{fill:#CF3E7D;}
	.st7{stroke:#000000;stroke-width:0.1702;stroke-miterlimit:1.3617;}
	.st8{fill:none;stroke:#000000;stroke-width:1.3617;stroke-miterlimit:1.3617;}
	.st9{fill:#F17D07;}
	.st10{font-family:'ArialMT';}
	.st11{font-size:20px;}
	.st12{font-size:12px;}
</style>
<g id="ID000002">
	<g transform="translate(264.789,581.629)">
		<g transform="rotate(-0.0)">
			<text transform="matrix(1 0 0 1 8.8696 -329.7648)" class="st0 st1 st2">G</text>
		</g>
	</g>
</g>
<g id="ID000003">
	<g transform="translate(231.690,581.629)">
		<g transform="rotate(-0.0)">
			<text transform="matrix(1 0 0 1 29.3202 -329.7648)" class="st0 st1 st2">G</text>
		</g>
	</g>
</g>
<g id="ID000004">
	<g transform="translate(198.592,581.629)">
		<g transform="rotate(-0.0)">
			<text transform="matrix(1 0 0 1 49.7697 -329.7648)" class="st0 st1 st2">G</text>
		</g>
	</g>
</g>
<g id="ID000005">
	<g transform="translate(165.493,581.629)">
		<g transform="rotate(-0.0)">
			<text transform="matrix(1 0 0 1 70.9186 -329.7648)" class="st0 st1 st2">A</text>
		</g>
	</g>
</g>
<g id="ID000006">
	<g transform="translate(132.394,581.629)">
		<g transform="rotate(-0.0)">
			<text transform="matrix(1 0 0 1 91.3691 -329.7648)" class="st0 st1 st2">A</text>
		</g>
	</g>
</g>
<g id="ID000007">
	<g transform="translate(99.296,581.629)">
		<g transform="rotate(-0.0)">
			<text transform="matrix(1 0 0 1 111.471 -329.7648)" class="st0 st1 st2">U</text>
		</g>
	</g>
</g>
<g id="ID000008">
	<g transform="translate(82.746,614.727)">
		<g transform="rotate(-0.0)">
			<text transform="matrix(1 0 0 1 121.3452 -350.2143)" class="st0 st1 st2">G</text>
		</g>
	</g>
</g>
<g id="ID000009">
	<g transform="translate(99.296,647.826)">
		<g transform="rotate(-0.0)">
			<text transform="matrix(1 0 0 1 111.1195 -370.6639)" class="st0 st1 st2">G</text>
		</g>
	</g>
</g>
<g id="ID000010">
	<g transform="translate(132.394,647.826)">
		<g transform="rotate(-0.0)">
			<text transform="matrix(1 0 0 1 91.3691 -370.6639)" class="st0 st1 st2">A</text>
		</g>
	</g>
</g>
<g id="ID000011">
	<g transform="translate(165.493,647.826)">
		<g transform="rotate(-0.0)">
			<text transform="matrix(1 0 0 1 70.5709 -370.6639)" class="st0 st1 st2">U</text>
		</g>
	</g>
</g>
<g id="ID000012">
	<line class="st3" x1="240.6" y1="279.9" x2="240.6" y2="288.3"/>
</g>
<g id="ID000013">
	<g transform="translate(165.493,716.119)">
		<g transform="rotate(-0.0)">
			<text transform="matrix(1 0 0 1 68.1109 -412.8602)" class="st1 st2">10</text>
		</g>
	</g>
</g>
<g id="ID000014">
	<g transform="translate(198.592,647.826)">
		<g transform="rotate(-0.0)">
			<text transform="matrix(1 0 0 1 50.1203 -370.6639)" class="st0 st1 st2">C</text>
		</g>
	</g>
</g>
<g id="ID000015">
	<g transform="translate(231.690,647.826)">
		<g transform="rotate(-0.0)">
			<text transform="matrix(1 0 0 1 29.6708 -370.6639)" class="st0 st1 st2">C</text>
		</g>
	</g>
</g>
<g id="ID000016">
	<g transform="translate(264.789,647.826)">
		<g transform="rotate(-0.0)">
			<text transform="matrix(1 0 0 1 9.5688 -370.6639)" class="st0 st1 st2">A</text>
		</g>
	</g>
</g>
<g id="ID000017">
	<g transform="translate(297.887,647.826)">
		<g transform="rotate(-0.0)">
			<text transform="matrix(1 0 0 1 -11.2294 -370.6639)" class="st4 st1 st2">C</text>
		</g>
	</g>
</g>
<g id="ID000018">
	<g transform="translate(330.986,647.826)">
		<g transform="rotate(-0.0)">
			<text transform="matrix(1 0 0 1 -31.3313 -370.6639)" class="st4 st1 st2">A</text>
		</g>
	</g>
</g>
<g id="ID000019">
	<g transform="translate(364.085,647.826)">
		<g transform="rotate(-0.0)">
			<text transform="matrix(1 0 0 1 -52.1295 -370.6639)" class="st4 st1 st2">U</text>
		</g>
	</g>
</g>
<g id="ID000020">
	<line class="st5" x1="265.9" y1="251.2" x2="265.9" y2="266.4"/>
</g>
<g id="ID000021">
	<line class="st5" x1="253.3" y1="251.2" x2="253.3" y2="266.4"/>
</g>
<g id="ID000022">
	<line class="st5" x1="240.6" y1="251.2" x2="240.6" y2="266.4"/>
</g>
<g id="ID000023">
	<g transform="translate(397.183,647.826)">
		<g transform="rotate(-0.0)">
			<text transform="matrix(1 0 0 1 -72.5791 -370.6639)" class="st4 st1 st2">C</text>
		</g>
	</g>
</g>
<g id="ID000024">
	<g transform="translate(430.282,647.826)">
		<g transform="rotate(-0.0)">
			<text transform="matrix(1 0 0 1 -93.0296 -370.6639)" class="st4 st1 st2">U</text>
		</g>
	</g>
</g>
<g id="ID000025">
	<g transform="translate(463.380,647.826)">
		<g transform="rotate(-0.0)">
			<text transform="matrix(1 0 0 1 -113.1306 -370.6639)" class="st4 st1 st2">A</text>
		</g>
	</g>
</g>
<g id="ID000026">
	<g transform="translate(496.479,647.826)">
		<g transform="rotate(-0.0)">
			<text transform="matrix(1 0 0 1 -133.9298 -370.6639)" class="st4 st1 st2">C</text>
		</g>
	</g>
</g>
<g id="ID000027">
	<line class="st3" x1="367.1" y1="279.9" x2="367.1" y2="288.3"/>
</g>
<g id="ID000028">
	<g transform="translate(496.479,716.119)">
		<g transform="rotate(-0.0)">
			<text transform="matrix(1 0 0 1 -136.3897 -412.8602)" class="st1 st2">20</text>
		</g>
	</g>
</g>
<g id="ID000029">
	<g transform="translate(529.577,647.826)">
		<g transform="rotate(-0.0)">
			<text transform="matrix(1 0 0 1 -154.7299 -370.6639)" class="st4 st1 st2">G</text>
		</g>
	</g>
</g>
<g id="ID000030">
	<g transform="translate(562.676,647.826)">
		<g transform="rotate(-0.0)">
			<text transform="matrix(1 0 0 1 -174.4813 -370.6639)" class="st4 st1 st2">A</text>
		</g>
	</g>
</g>
<g id="ID000031">
	<g transform="translate(595.775,647.826)">
		<g transform="rotate(-0.0)">
			<text transform="matrix(1 0 0 1 -194.9318 -370.6639)" class="st4 st1 st2">A</text>
		</g>
	</g>
</g>
<g id="ID000032">
	<g transform="translate(628.873,647.826)">
		<g transform="rotate(-0.0)">
			<text transform="matrix(1 0 0 1 -215.73 -370.6639)" class="st4 st1 st2">U</text>
		</g>
	</g>
</g>
<g id="ID000033">
	<g transform="translate(661.972,647.826)">
		<g transform="rotate(-0.0)">
			<text transform="matrix(1 0 0 1 -236.1796 -370.6639)" class="st4 st1 st2">U</text>
		</g>
	</g>
</g>
<g id="ID000034">
	<g transform="translate(695.070,647.826)">
		<g transform="rotate(-0.0)">
			<text transform="matrix(1 0 0 1 -256.6292 -370.6639)" class="st4 st1 st2">C</text>
		</g>
	</g>
</g>
<g id="ID000035">
	<g transform="translate(728.169,647.826)">
		<g transform="rotate(-0.0)">
			<text transform="matrix(1 0 0 1 -277.0797 -370.6639)" class="st4 st1 st2">U</text>
		</g>
	</g>
</g>
<g id="ID000036">
	<g transform="translate(695.070,581.629)">
		<g transform="rotate(-0.0)">
			<text transform="matrix(1 0 0 1 -256.9797 -329.7648)" class="st4 st1 st2">G</text>
		</g>
	</g>
</g>
<g id="ID000037">
	<g transform="translate(661.972,581.629)">
		<g transform="rotate(-0.0)">
			<text transform="matrix(1 0 0 1 -235.8309 -329.7648)" class="st4 st1 st2">A</text>
		</g>
	</g>
</g>
<g id="ID000038">
	<g transform="translate(628.873,581.629)">
		<g transform="rotate(-0.0)">
			<text transform="matrix(1 0 0 1 -216.0806 -329.7648)" class="st4 st1 st2">G</text>
		</g>
	</g>
</g>
<g id="ID000039">
	<g transform="translate(595.775,581.629)">
		<g transform="rotate(-0.0)">
			<text transform="matrix(1 0 0 1 -195.2795 -329.7648)" class="st4 st1 st2">U</text>
		</g>
	</g>
</g>
<g id="ID000040">
	<g transform="translate(562.676,581.629)">
		<g transform="rotate(-0.0)">
			<text transform="matrix(1 0 0 1 -174.8289 -329.7648)" class="st4 st1 st2">U</text>
		</g>
	</g>
</g>
<g id="ID000041">
	<g transform="translate(529.577,581.629)">
		<g transform="rotate(-0.0)">
			<text transform="matrix(1 0 0 1 -154.3784 -329.7648)" class="st4 st1 st2">C</text>
		</g>
	</g>
</g>
<g id="ID000042">
	<g transform="translate(496.479,581.629)">
		<g transform="rotate(-0.0)">
			<text transform="matrix(1 0 0 1 -133.5811 -329.7648)" class="st4 st1 st2">A</text>
		</g>
	</g>
</g>
<g id="ID000043">
	<line class="st3" x1="367.1" y1="237.7" x2="367.1" y2="229.3"/>
</g>
<g id="ID000044">
	<g transform="translate(496.479,514.328)">
		<g transform="rotate(-0.0)">
			<text transform="matrix(1 0 0 1 -136.3897 -288.1835)" class="st1 st2">60</text>
		</g>
	</g>
</g>
<g id="ID000045">
	<g transform="translate(463.380,581.629)">
		<g transform="rotate(-0.0)">
			<text transform="matrix(1 0 0 1 -113.4792 -329.7648)" class="st4 st1 st2">C</text>
		</g>
	</g>
</g>
<g id="ID000046">
	<g transform="translate(430.282,581.629)">
		<g transform="rotate(-0.0)">
			<text transform="matrix(1 0 0 1 -93.0296 -329.7648)" class="st6 st1 st2">U</text>
		</g>
	</g>
</g>
<g id="ID000047">
	<line class="st5" x1="379.8" y1="266.4" x2="379.8" y2="251.2"/>
</g>
<g id="ID000048">
	<line class="st5" x1="392.4" y1="266.4" x2="392.4" y2="251.2"/>
</g>
<g id="ID000049">
	<line class="st5" x1="405" y1="266.4" x2="405" y2="251.2"/>
</g>
<g id="ID000050">
	<polygon class="st7" points="417.7,256.3 417.5,256.3 417.4,256.3 417.2,256.3 417.1,256.4 416.9,256.4 416.8,256.5 416.6,256.5 
		416.5,256.6 416.3,256.7 416.2,256.8 416.1,256.9 416,257 415.8,257.1 415.7,257.2 415.6,257.4 415.5,257.5 415.5,257.6 
		415.4,257.8 415.3,257.9 415.3,258.1 415.2,258.2 415.2,258.4 415.2,258.5 415.2,258.7 415.2,258.9 415.2,259 415.2,259.2 
		415.2,259.3 415.3,259.5 415.3,259.6 415.4,259.8 415.4,259.9 415.5,260.1 415.6,260.2 415.7,260.4 415.8,260.5 415.9,260.6 
		416,260.7 416.1,260.8 416.3,260.9 416.4,261 416.5,261.1 416.7,261.1 416.8,261.2 417,261.2 417.1,261.3 417.3,261.3 417.5,261.3 
		417.6,261.3 417.8,261.3 417.9,261.3 418.1,261.3 418.3,261.3 418.4,261.2 418.6,261.2 418.7,261.1 418.9,261.1 419,261 
		419.1,260.9 419.3,260.8 419.4,260.7 419.5,260.6 419.6,260.5 419.7,260.4 419.8,260.2 419.9,260.1 420,259.9 420,259.8 
		420.1,259.6 420.1,259.5 420.2,259.3 420.2,259.2 420.2,259 420.2,258.9 420.2,258.7 420.2,258.5 420.2,258.4 420.2,258.2 
		420.1,258.1 420.1,257.9 420,257.8 419.9,257.6 419.8,257.5 419.8,257.4 419.7,257.2 419.6,257.1 419.4,257 419.3,256.9 
		419.2,256.8 419.1,256.7 418.9,256.6 418.8,256.5 418.6,256.5 418.5,256.4 418.3,256.4 418.2,256.3 418,256.3 417.9,256.3 	"/>
</g>
<g id="ID000051">
	<line class="st5" x1="430.3" y1="266.4" x2="430.3" y2="251.2"/>
</g>
<g id="ID000052">
	<line class="st5" x1="443" y1="266.4" x2="443" y2="251.2"/>
</g>
<g id="ID000053">
	<line class="st8" x1="463.2" y1="246.2" x2="448.1" y2="246.2"/>
</g>
<g id="ID000054">
	<polygon class="st7" points="459.9,250 457.8,248.1 455.6,247.4 453.5,247.1 449.3,246.2 453.5,245.2 455.6,244.9 457.8,244.3 
		459.9,242.4 	"/>
</g>
<g id="ID000055">
	<g transform="translate(761.268,647.826)">
		<g transform="rotate(-0.0)">
			<text transform="matrix(1 0 0 1 -297.8809 -370.6639)" class="st4 st1 st2">G</text>
		</g>
	</g>
</g>
<g id="ID000056">
	<g transform="translate(794.366,647.826)">
		<g transform="rotate(-0.0)">
			<text transform="matrix(1 0 0 1 -317.9799 -370.6639)" class="st4 st1 st2">U</text>
		</g>
	</g>
</g>
<g id="ID000057">
	<g transform="translate(827.465,647.826)">
		<g transform="rotate(-0.0)">
			<text transform="matrix(1 0 0 1 -338.781 -370.6639)" class="st4 st1 st2">G</text>
		</g>
	</g>
</g>
<g id="ID000058">
	<line class="st3" x1="487.6" y1="277.4" x2="481.7" y2="283.4"/>
</g>
<g id="ID000059">
	<g transform="translate(796.259,703.193)">
		<g transform="rotate(-0.0)">
			<text transform="matrix(1 0 0 1 -328.6218 -404.8737)" class="st1 st2">30</text>
		</g>
	</g>
</g>
<g id="ID000060">
	<g transform="translate(819.190,680.924)">
		<g transform="rotate(-0.0)">
			<text transform="matrix(1 0 0 1 -332.9679 -391.1135)" class="st9 st1 st2">A</text>
		</g>
	</g>
</g>
<g id="ID000061">
	<g transform="translate(810.915,714.023)">
		<g transform="rotate(-0.0)">
			<text transform="matrix(1 0 0 1 -328.2036 -411.564)" class="st9 st1 st2">U</text>
		</g>
	</g>
</g>
<g id="ID000062">
	<g transform="translate(827.465,738.847)">
		<g transform="rotate(-0.0)">
			<text transform="matrix(1 0 0 1 -338.4294 -426.9026)" class="st9 st1 st2">C</text>
		</g>
	</g>
</g>
<g id="ID000063">
	<g transform="translate(860.563,755.396)">
		<g transform="rotate(-0.0)">
			<text transform="matrix(1 0 0 1 -358.5313 -437.1274)" class="st9 st1 st2">A</text>
		</g>
	</g>
</g>
<g id="ID000064">
	<g transform="translate(827.465,581.629)">
		<g transform="rotate(-0.0)">
			<text transform="matrix(1 0 0 1 -338.4294 -329.7648)" class="st4 st1 st2">C</text>
		</g>
	</g>
</g>
<g id="ID000065">
	<g transform="translate(794.366,581.629)">
		<g transform="rotate(-0.0)">
			<text transform="matrix(1 0 0 1 -317.6312 -329.7648)" class="st4 st1 st2">A</text>
		</g>
	</g>
</g>
<g id="ID000066">
	<g transform="translate(761.268,581.629)">
		<g transform="rotate(-0.0)">
			<text transform="matrix(1 0 0 1 -297.5293 -329.7648)" class="st4 st1 st2">C</text>
		</g>
	</g>
</g>
<g id="ID000067">
	<line class="st5" x1="468.3" y1="266.4" x2="468.3" y2="251.2"/>
</g>
<g id="ID000068">
	<line class="st5" x1="480.9" y1="266.4" x2="480.9" y2="251.2"/>
</g>
<g id="ID000069">
	<line class="st5" x1="493.6" y1="266.4" x2="493.6" y2="251.2"/>
</g>
<g id="ID000070">
	<line class="st8" x1="513.8" y1="246.2" x2="498.6" y2="246.2"/>
</g>
<g id="ID000071">
	<polygon class="st7" points="510.5,250 508.3,248.1 506.2,247.4 504.1,247.1 499.9,246.2 504.1,245.2 506.2,244.9 508.3,244.3 
		510.5,242.4 	"/>
</g>
<g id="ID000072">
	<g transform="translate(901.937,738.847)">
		<g transform="rotate(-0.0)">
			<text transform="matrix(1 0 0 1 -384.0938 -426.9026)" class="st9 st1 st2">A</text>
		</g>
	</g>
</g>
<g id="ID000073">
	<g transform="translate(918.486,714.023)">
		<g transform="rotate(-0.0)">
			<text transform="matrix(1 0 0 1 -394.6672 -411.564)" class="st9 st1 st2">U</text>
		</g>
	</g>
</g>
<g id="ID000074">
	<g transform="translate(910.211,680.924)">
		<g transform="rotate(-0.0)">
			<text transform="matrix(1 0 0 1 -389.5533 -391.1135)" class="st9 st1 st2">U</text>
		</g>
	</g>
</g>
<g id="ID000075">
	<g transform="translate(893.662,647.826)">
		<g transform="rotate(-0.0)">
			<text transform="matrix(1 0 0 1 -379.3286 -370.6639)" class="st4 st1 st2">U</text>
		</g>
	</g>
</g>
<g id="ID000076">
	<g transform="translate(926.761,647.826)">
		<g transform="rotate(-0.0)">
			<text transform="matrix(1 0 0 1 -400.1297 -370.6639)" class="st4 st1 st2">G</text>
		</g>
	</g>
</g>
<g id="ID000077">
	<g transform="translate(959.859,647.826)">
		<g transform="rotate(-0.0)">
			<text transform="matrix(1 0 0 1 -420.5803 -370.6639)" class="st4 st1 st2">G</text>
		</g>
	</g>
</g>
<g id="ID000078">
	<line class="st3" x1="550.1" y1="277.4" x2="556.1" y2="283.4"/>
</g>
<g id="ID000079">
	<g transform="translate(991.065,703.193)">
		<g transform="rotate(-0.0)">
			<text transform="matrix(1 0 0 1 -434.9562 -404.8737)" class="st1 st2">40</text>
		</g>
	</g>
</g>
<g id="ID000080">
	<g transform="translate(992.958,647.826)">
		<g transform="rotate(-0.0)">
			<text transform="matrix(1 0 0 1 -440.6793 -370.6639)" class="st4 st1 st2">C</text>
		</g>
	</g>
</g>
<g id="ID000081">
	<g transform="translate(1026.056,647.826)">
		<g transform="rotate(-0.0)">
			<text transform="matrix(1 0 0 1 -460.7812 -370.6639)" class="st4 st1 st2">A</text>
		</g>
	</g>
</g>
<g id="ID000082">
	<g transform="translate(1059.155,647.826)">
		<g transform="rotate(-0.0)">
			<text transform="matrix(1 0 0 1 -481.2318 -370.6639)" class="st4 st1 st2">A</text>
		</g>
	</g>
</g>
<g id="ID000083">
	<g transform="translate(1092.254,614.727)">
		<g transform="rotate(-0.0)">
			<text transform="matrix(1 0 0 1 -502.029 -350.2143)" class="st4 st1 st2">U</text>
		</g>
	</g>
</g>
<g id="ID000084">
	<g transform="translate(1059.155,581.629)">
		<g transform="rotate(-0.0)">
			<text transform="matrix(1 0 0 1 -481.5794 -329.7648)" class="st4 st1 st2">C</text>
		</g>
	</g>
</g>
<g id="ID000085">
	<g transform="translate(1026.056,581.629)">
		<g transform="rotate(-0.0)">
			<text transform="matrix(1 0 0 1 -461.1288 -329.7648)" class="st4 st1 st2">C</text>
		</g>
	</g>
</g>
<g id="ID000086">
	<g transform="translate(992.958,581.629)">
		<g transform="rotate(-0.0)">
			<text transform="matrix(1 0 0 1 -441.0298 -329.7648)" class="st4 st1 st2">G</text>
		</g>
	</g>
</g>
<g id="ID000087">
	<g transform="translate(959.859,581.629)">
		<g transform="rotate(-0.0)">
			<text transform="matrix(1 0 0 1 -420.2287 -329.7648)" class="st4 st1 st2">C</text>
		</g>
	</g>
</g>
<g id="ID000088">
	<g transform="translate(926.761,581.629)">
		<g transform="rotate(-0.0)">
			<text transform="matrix(1 0 0 1 -399.7791 -329.7648)" class="st4 st1 st2">C</text>
		</g>
	</g>
</g>
<g id="ID000089">
	<g transform="translate(893.662,581.629)">
		<g transform="rotate(-0.0)">
			<text transform="matrix(1 0 0 1 -378.9809 -329.7648)" class="st4 st1 st2">A</text>
		</g>
	</g>
</g>
<g id="ID000090">
	<line class="st3" x1="518.9" y1="237.7" x2="518.9" y2="229.3"/>
</g>
<g id="ID000091">
	<g transform="translate(893.662,514.328)">
		<g transform="rotate(-0.0)">
			<text transform="matrix(1 0 0 1 -381.7885 -288.1835)" class="st1 st2">50</text>
		</g>
	</g>
</g>
<g id="ID000092">
	<line class="st5" x1="518.9" y1="266.4" x2="518.9" y2="251.2"/>
</g>
<g id="ID000093">
	<line class="st5" x1="531.5" y1="266.4" x2="531.5" y2="251.2"/>
</g>
<g id="ID000094">
	<line class="st5" x1="544.2" y1="266.4" x2="544.2" y2="251.2"/>
</g>
<g id="ID000095">
	<line class="st5" x1="556.8" y1="266.4" x2="556.8" y2="251.2"/>
</g>
<g id="ID000096">
	<g transform="translate(430.282,540.255)">
		<g transform="rotate(-0.0)">
			<text transform="matrix(1 0 0 1 -93.3802 -304.2023)" class="st6 st1 st2">G</text>
		</g>
	</g>
</g>
<g id="ID000097">
	<g transform="translate(430.282,507.157)">
		<g transform="rotate(-0.0)">
			<text transform="matrix(1 0 0 1 -93.0296 -283.7527)" class="st6 st1 st2">C</text>
		</g>
	</g>
</g>
<g id="ID000098">
	<g transform="translate(430.282,474.058)">
		<g transform="rotate(-0.0)">
			<text transform="matrix(1 0 0 1 -92.681 -263.3022)" class="st6 st1 st2">A</text>
		</g>
	</g>
</g>
<g id="ID000099">
	<g transform="translate(430.282,440.960)">
		<g transform="rotate(-0.0)">
			<text transform="matrix(1 0 0 1 -93.3802 -242.8526)" class="st6 st1 st2">G</text>
		</g>
	</g>
</g>
<g id="ID000100">
	<g transform="translate(430.282,407.861)">
		<g transform="rotate(-0.0)">
			<text transform="matrix(1 0 0 1 -83.2797 -219.8807)" class="st6 st1 st2">A</text>
		</g>
	</g>
</g>
<g id="ID000101">
	<g transform="translate(364.085,440.960)">
		<g transform="rotate(-0.0)">
			<text transform="matrix(1 0 0 1 -52.1295 -242.8526)" class="st6 st1 st2">C</text>
		</g>
	</g>
</g>
<g id="ID000102">
	<g transform="translate(364.085,474.058)">
		<g transform="rotate(-0.0)">
			<text transform="matrix(1 0 0 1 -52.1295 -263.3022)" class="st6 st1 st2">U</text>
		</g>
	</g>
</g>
<g id="ID000103">
	<g transform="translate(364.085,507.157)">
		<g transform="rotate(-0.0)">
			<text transform="matrix(1 0 0 1 -52.1295 -283.7527)" class="st6 st1 st2">U</text>
		</g>
	</g>
</g>
<g id="ID000106">
	<line class="st5" x1="336.7" y1="205.1" x2="321.6" y2="205.1"/>
</g>
<g id="ID000107">
	<line class="st5" x1="336.7" y1="192.4" x2="321.6" y2="192.4"/>
</g>
<g id="ID000110">
	<g transform="translate(430.282,383.037)">
		<g transform="rotate(-0.0)">
			<text transform="matrix(1 0 0 1 -93.2589 -202.4793)" class="st6 st1 st2">C</text>
		</g>
	</g>
</g>
<g id="ID000111">
	<g transform="translate(430.282,349.938)">
		<g transform="rotate(-0.0)">
			<text transform="matrix(1 0 0 1 -93.2589 -182.0288)" class="st6 st1 st2">U</text>
		</g>
	</g>
</g>
<g id="ID000112">
	<g transform="translate(430.282,316.840)">
		<g transform="rotate(-0.0)">
			<text transform="matrix(1 0 0 1 -93.2589 -161.5792)" class="st6 st1 st2">U</text>
		</g>
	</g>
</g>
<g id="ID000113">
	<line class="st3" x1="350" y1="149.6" x2="358.4" y2="149.6"/>
</g>
<g id="ID000114">
	<g transform="translate(474.413,316.840)">
		<g transform="rotate(-0.0)">
			<text transform="matrix(1 0 0 1 -115.972 -161.5792)" class="st1 st2">70</text>
		</g>
	</g>
</g>
<g id="ID000115">
	<g transform="translate(430.282,283.741)">
		<g transform="rotate(-0.0)">
			<text transform="matrix(1 0 0 1 -93.6095 -141.1286)" class="st6 st1 st2">G</text>
		</g>
	</g>
</g>
<g id="ID000116">
	<g transform="translate(413.732,250.643)">
		<g transform="rotate(-0.0)">
			<text transform="matrix(1 0 0 1 -82.6855 -120.6791)" class="st6 st1 st2">A</text>
		</g>
	</g>
</g>
<g id="ID000117">
	<g transform="translate(380.634,250.643)">
		<g transform="rotate(-0.0)">
			<text transform="matrix(1 0 0 1 -62.5836 -120.6791)" class="st6 st1 st2">C</text>
		</g>
	</g>
</g>
<g id="ID000118">
	<g transform="translate(364.085,283.741)">
		<g transform="rotate(-0.0)">
			<text transform="matrix(1 0 0 1 -52.7094 -141.1286)" class="st6 st1 st2">G</text>
		</g>
	</g>
</g>
<g id="ID000119">
	<g transform="translate(364.085,316.840)">
		<g transform="rotate(-0.0)">
			<text transform="matrix(1 0 0 1 -52.0111 -161.5792)" class="st6 st1 st2">A</text>
		</g>
	</g>
</g>
<g id="ID000120">
	<g transform="translate(364.085,349.938)">
		<g transform="rotate(-0.0)">
			<text transform="matrix(1 0 0 1 -52.0111 -182.0288)" class="st6 st1 st2">A</text>
		</g>
	</g>
</g>
<g id="ID000121">
	<g transform="translate(364.085,383.037)">
		<g transform="rotate(-0.0)">
			<text transform="matrix(1 0 0 1 -52.7094 -202.4793)" class="st6 st1 st2">G</text>
		</g>
	</g>
</g>
<g id="ID000122">
	<line class="st5" x1="336.5" y1="174.9" x2="321.3" y2="174.9"/>
</g>
<g id="ID000123">
	<line class="st5" x1="336.5" y1="162.2" x2="321.3" y2="162.2"/>
</g>
<g id="ID000124">
	<line class="st5" x1="336.5" y1="149.6" x2="321.3" y2="149.6"/>
</g>
<text transform="matrix(1 0 0 1 342.0528 71.4309)" class="st10 st11">C13 aptamer</text>
<text transform="matrix(1 0 0 1 274.2636 236.292)" class="st10 st12">5’</text>
<text transform="matrix(1 0 0 1 313.0146 236.292)" class="st10 st12">3’</text>
</svg>
