<?xml version="1.0" encoding="utf-8"?>
<!-- Generator: Adobe Illustrator 25.2.0, SVG Export Plug-In . SVG Version: 6.00 Build 0)  -->
<svg version="1.1" id="图层_1" xmlns="http://www.w3.org/2000/svg" xmlns:xlink="http://www.w3.org/1999/xlink" x="0px" y="0px"
	 viewBox="0 0 800 400" style="enable-background:new 0 0 800 400;" xml:space="preserve">
<style type="text/css">
	.st0{fill:#C2B617;}
	.st1{font-family:'ArialMT';}
	.st2{font-size:10.1799px;}
	.st3{fill:#B83233;}
	.st4{fill:none;stroke:#000000;stroke-width:0.5;}
	.st5{fill:none;stroke:#000000;}
	.st6{fill:#084595;}
	.st7{fill:#CF3E7D;}
	.st8{stroke:#000000;stroke-width:0.5;}
	.st9{fill:#18988C;}
	.st10{font-size:11.8217px;}
	.st11{font-size:20px;}
</style>
<g id="ID000002">
	<g transform="translate(111.992,139.886)">
		<g transform="rotate(-0.0)">
			<text transform="matrix(1 0 0 1 155.0617 36.9202)" class="st0 st1 st2">G</text>
		</g>
	</g>
</g>
<g id="ID000003">
	<g transform="translate(114.890,125.399)">
		<g transform="rotate(-0.0)">
			<text transform="matrix(1 0 0 1 154.6217 39.1181)" class="st0 st1 st2">G</text>
		</g>
	</g>
</g>
<g id="ID000004">
	<g transform="translate(120.684,113.810)">
		<g transform="rotate(-0.0)">
			<text transform="matrix(1 0 0 1 154.3062 40.8751)" class="st0 st1 st2">A</text>
		</g>
	</g>
</g>
<g id="ID000005">
	<g transform="translate(132.274,105.118)">
		<g transform="rotate(-0.0)">
			<text transform="matrix(1 0 0 1 152.5483 42.193)" class="st0 st1 st2">A</text>
		</g>
	</g>
</g>
<g id="ID000006">
	<g transform="translate(140.966,99.323)">
		<g transform="rotate(-0.0)">
			<text transform="matrix(1 0 0 1 152.3543 41.3845)" class="st3 st1 st2">G</text>
		</g>
	</g>
</g>
<g id="ID000007">
	<g transform="translate(140.966,87.734)">
		<g transform="rotate(-0.0)">
			<text transform="matrix(1 0 0 1 152.9197 43.1415)" class="st3 st1 st2">A</text>
		</g>
	</g>
</g>
<g id="ID000008">
	<g transform="translate(132.274,76.144)">
		<g transform="rotate(-0.0)">
			<text transform="matrix(1 0 0 1 154.2377 44.8995)" class="st3 st1 st2">A</text>
		</g>
	</g>
</g>
<g id="ID000009">
	<g transform="translate(135.171,61.658)">
		<g transform="rotate(-0.0)">
			<text transform="matrix(1 0 0 1 153.2333 47.0974)" class="st3 st1 st2">G</text>
		</g>
	</g>
</g>
<g id="ID000010">
	<g transform="translate(146.760,52.966)">
		<g transform="rotate(-0.0)">
			<text transform="matrix(1 0 0 1 152.0408 48.4144)" class="st3 st1 st2">A</text>
		</g>
	</g>
</g>
<g id="ID000011">
	<g transform="translate(161.247,52.966)">
		<g transform="rotate(-0.0)">
			<text transform="matrix(1 0 0 1 149.2794 48.4144)" class="st3 st1 st2">G</text>
		</g>
	</g>
</g>
<g id="ID000012">
	<line class="st4" x1="319.1" y1="92.3" x2="322.1" y2="89.4"/>
</g>
<g id="ID000013">
	<g transform="translate(172.174,33.926)">
		<g transform="rotate(-0.0)">
			<text transform="matrix(1 0 0 1 151.5809 51.303)" class="st1 st2">10</text>
		</g>
	</g>
</g>
<g id="ID000014">
	<g transform="translate(169.939,64.555)">
		<g transform="rotate(-0.0)">
			<text transform="matrix(1 0 0 1 148.5239 46.6574)" class="st3 st1 st2">A</text>
		</g>
	</g>
</g>
<g id="ID000015">
	<g transform="translate(169.939,76.144)">
		<g transform="rotate(-0.0)">
			<text transform="matrix(1 0 0 1 148.5239 44.8995)" class="st3 st1 st2">A</text>
		</g>
	</g>
</g>
<g id="ID000016">
	<g transform="translate(164.145,87.734)">
		<g transform="rotate(-0.0)">
			<text transform="matrix(1 0 0 1 149.1226 43.1415)" class="st3 st1 st2">U</text>
		</g>
	</g>
</g>
<g id="ID000017">
	<g transform="translate(164.145,99.323)">
		<g transform="rotate(-0.0)">
			<text transform="matrix(1 0 0 1 149.1226 41.3845)" class="st3 st1 st2">C</text>
		</g>
	</g>
</g>
<g id="ID000018">
	<g transform="translate(178.631,102.221)">
		<g transform="rotate(-0.0)">
			<text transform="matrix(1 0 0 1 145.4432 39.0793)" class="st0 st1 st2">A</text>
		</g>
	</g>
</g>
<g id="ID000019">
	<g transform="translate(193.118,105.118)">
		<g transform="rotate(-0.0)">
			<text transform="matrix(1 0 0 1 145.0773 40.5807)" class="st0 st1 st2">U</text>
		</g>
	</g>
</g>
<g id="ID000020">
	<line class="st5" x1="301.2" y1="136.3" x2="313" y2="136.3"/>
</g>
<g id="ID000021">
	<line class="st5" x1="301.2" y1="126.5" x2="313" y2="126.5"/>
</g>
<g id="ID000023">
	<g transform="translate(204.708,113.810)">
		<g transform="rotate(-0.0)">
			<text transform="matrix(1 0 0 1 141.5625 40.8751)" class="st0 st1 st2">A</text>
		</g>
	</g>
</g>
<g id="ID000024">
	<g transform="translate(216.297,116.707)">
		<g transform="rotate(-0.0)">
			<text transform="matrix(1 0 0 1 139.5233 40.4351)" class="st6 st1 st2">C</text>
		</g>
	</g>
</g>
<g id="ID000025">
	<g transform="translate(227.886,116.707)">
		<g transform="rotate(-0.0)">
			<text transform="matrix(1 0 0 1 138.0456 40.4351)" class="st6 st1 st2">A</text>
		</g>
	</g>
</g>
<g id="ID000026">
	<g transform="translate(239.476,116.707)">
		<g transform="rotate(-0.0)">
			<text transform="matrix(1 0 0 1 136.0084 40.4351)" class="st6 st1 st2">C</text>
		</g>
	</g>
</g>
<g id="ID000027">
	<line class="st4" x1="379.2" y1="146.2" x2="379.2" y2="139.6"/>
</g>
<g id="ID000028">
	<g transform="translate(239.476,93.142)">
		<g transform="rotate(-0.0)">
			<text transform="matrix(1 0 0 1 134.023 44.0099)" class="st1 st2">20</text>
		</g>
	</g>
</g>
<g id="ID000029">
	<g transform="translate(251.065,116.707)">
		<g transform="rotate(-0.0)">
			<text transform="matrix(1 0 0 1 134.5307 40.4351)" class="st6 st1 st2">A</text>
		</g>
	</g>
</g>
<g id="ID000030">
	<g>
		<g transform="translate(259.757,110.913)">
			<g transform="rotate(-0.0)">
				<text transform="matrix(1 0 0 1 133.2137 41.315)" class="st0 st1 st2">A</text>
			</g>
		</g>
	</g>
</g>
<g id="ID000031">
	<g>
		<g transform="translate(265.552,102.221)">
			<g transform="rotate(-0.0)">
				<text transform="matrix(1 0 0 1 131.7693 42.633)" class="st0 st1 st2">G</text>
			</g>
		</g>
	</g>
</g>
<g id="ID000032">
	<g>
		<g transform="translate(265.552,145.681)">
			<g transform="rotate(-0.0)">
				<text transform="matrix(1 0 0 1 132.0535 36.0412)" class="st0 st1 st2">C</text>
			</g>
		</g>
	</g>
</g>
<g id="ID000033">
	<g transform="translate(251.065,139.886)">
		<g transform="rotate(-0.0)">
			<text transform="matrix(1 0 0 1 134.2514 36.9202)" class="st6 st1 st2">U</text>
		</g>
	</g>
</g>
<g id="ID000034">
	<g transform="translate(239.476,139.886)">
		<g transform="rotate(-0.0)">
			<text transform="matrix(1 0 0 1 135.7262 36.9202)" class="st6 st1 st2">G</text>
		</g>
	</g>
</g>
<g id="ID000035">
	<g transform="translate(227.886,139.886)">
		<g transform="rotate(-0.0)">
			<text transform="matrix(1 0 0 1 137.7644 36.9202)" class="st6 st1 st2">U</text>
		</g>
	</g>
</g>
<g id="ID000036">
	<g transform="translate(216.297,139.886)">
		<g transform="rotate(-0.0)">
			<text transform="matrix(1 0 0 1 139.2411 36.9202)" class="st6 st1 st2">G</text>
		</g>
	</g>
</g>
<g id="ID000037">
	<g transform="translate(216.297,154.373)">
		<g transform="rotate(-0.0)">
			<text transform="matrix(1 0 0 1 138.3954 38.3824)" class="st0 st1 st2">A</text>
		</g>
	</g>
</g>
<g id="ID000038">
	<g transform="translate(213.400,168.860)">
		<g transform="rotate(-0.0)">
			<text transform="matrix(1 0 0 1 135.4486 35.5643)" class="st0 st1 st2">A</text>
		</g>
	</g>
</g>
<g id="ID000039">
	<line class="st5" x1="359.5" y1="156.7" x2="359.5" y2="168.4"/>
</g>
<g id="ID000040">
	<line class="st5" x1="369.3" y1="156.7" x2="369.3" y2="168.4"/>
</g>
<g id="ID000041">
	<line class="st5" x1="379.2" y1="156.7" x2="379.2" y2="168.4"/>
</g>
<g id="ID000042">
	<line class="st5" x1="389" y1="156.7" x2="389" y2="168.4"/>
</g>
<g id="ID000044">
	<g>
		<g transform="translate(271.347,110.913)">
			<g transform="rotate(-0.0)">
				<text transform="matrix(1 0 0 1 132.2995 41.315)" class="st0 st1 st2">A</text>
			</g>
		</g>
	</g>
</g>
<g id="ID000045">
	<g transform="translate(280.039,113.810)">
		<g transform="rotate(-0.0)">
			<text transform="matrix(1 0 0 1 130.6993 42.8751)" class="st6 st1 st2">U</text>
		</g>
	</g>
</g>
<g id="ID000046">
	<g transform="translate(291.628,113.810)">
		<g transform="rotate(-0.0)">
			<text transform="matrix(1 0 0 1 128.9423 42.8751)" class="st6 st1 st2">C</text>
		</g>
	</g>
</g>
<g id="ID000047">
	<g>
		<g transform="translate(297.423,102.221)">
			<g transform="rotate(-0.0)">
				<text transform="matrix(1 0 0 1 127.7811 42.633)" class="st0 st1 st2">G</text>
			</g>
		</g>
	</g>
</g>
<g id="ID000048">
	<g>
		<g transform="translate(306.115,96.426)">
			<g transform="rotate(-0.0)">
				<text transform="matrix(1 0 0 1 127.0256 43.512)" class="st0 st1 st2">A</text>
			</g>
		</g>
	</g>
</g>
<g id="ID000049">
	<g>
		<g transform="translate(306.115,142.784)">
			<g transform="rotate(-0.0)">
				<text transform="matrix(1 0 0 1 127.0256 36.4802)" class="st0 st1 st2">A</text>
			</g>
		</g>
	</g>
</g>
<g id="ID000052">
	<g transform="translate(291.628,136.989)">
		<g transform="rotate(-0.0)">
			<text transform="matrix(1 0 0 1 128.6591 39.3601)" class="st6 st1 st2">G</text>
		</g>
	</g>
</g>
<g id="ID000053">
	<g transform="translate(280.039,136.989)">
		<g transform="rotate(-0.0)">
			<text transform="matrix(1 0 0 1 130.9805 39.3601)" class="st6 st1 st2">A</text>
		</g>
	</g>
</g>
<g id="ID000054">
	<line class="st5" x1="414.4" y1="156.2" x2="414.4" y2="168"/>
</g>
<g id="ID000055">
	<line class="st5" x1="424.2" y1="156.2" x2="424.2" y2="166"/>
</g>
<g id="ID000057">
	<g>
		<g transform="translate(317.704,96.426)">
			<g transform="rotate(-0.0)">
				<text transform="matrix(1 0 0 1 124.9864 43.512)" class="st0 st1 st2">C</text>
			</g>
		</g>
	</g>
</g>
<g id="ID000058">
	<g>
		<g transform="translate(329.294,102.221)">
			<g transform="rotate(-0.0)">
				<text transform="matrix(1 0 0 1 122.9453 42.633)" class="st0 st1 st2">G</text>
			</g>
		</g>
	</g>
</g>
<g id="ID000059">
	<line class="st4" x1="460.8" y1="135.8" x2="465.5" y2="131.2"/>
</g>
<g id="ID000060">
	<g transform="translate(340.220,83.181)">
		<g transform="rotate(-0.0)">
			<text transform="matrix(1 0 0 1 125.2468 45.5207)" class="st1 st2">30</text>
		</g>
	</g>
</g>
<g id="ID000061">
	<g transform="translate(335.088,113.810)">
		<g transform="rotate(-0.0)">
			<text transform="matrix(1 0 0 1 122.3505 40.8751)" class="st7 st1 st2">U</text>
		</g>
	</g>
</g>
<g id="ID000062">
	<g transform="translate(346.678,113.810)">
		<g transform="rotate(-0.0)">
			<text transform="matrix(1 0 0 1 120.8737 40.8751)" class="st7 st1 st2">A</text>
		</g>
	</g>
</g>
<g id="ID000063">
	<g transform="translate(358.267,113.810)">
		<g transform="rotate(-0.0)">
			<text transform="matrix(1 0 0 1 118.8346 40.8751)" class="st7 st1 st2">C</text>
		</g>
	</g>
</g>
<g id="ID000064">
	<g transform="translate(369.857,113.810)">
		<g transform="rotate(-0.0)">
			<text transform="matrix(1 0 0 1 117.0756 40.8751)" class="st7 st1 st2">C</text>
		</g>
	</g>
</g>
<g id="ID000065">
	<g transform="translate(381.446,113.810)">
		<g transform="rotate(-0.0)">
			<text transform="matrix(1 0 0 1 115.3186 40.8751)" class="st7 st1 st2">U</text>
		</g>
	</g>
</g>
<g id="ID000066">
	<g transform="translate(393.035,113.810)">
		<g transform="rotate(-0.0)">
			<text transform="matrix(1 0 0 1 113.5617 40.8751)" class="st7 st1 st2">C</text>
		</g>
	</g>
</g>
<g id="ID000067">
	<g transform="translate(404.625,113.810)">
		<g transform="rotate(-0.0)">
			<text transform="matrix(1 0 0 1 112.083 40.8751)" class="st7 st1 st2">A</text>
		</g>
	</g>
</g>
<g id="ID000068">
	<g transform="translate(416.214,113.810)">
		<g transform="rotate(-0.0)">
			<text transform="matrix(1 0 0 1 109.7616 40.8751)" class="st7 st1 st2">G</text>
		</g>
	</g>
</g>
<g id="ID000069">
	<g>
		<g transform="translate(424.906,102.221)">
			<g transform="rotate(-0.0)">
				<text transform="matrix(1 0 0 1 108.4436 42.633)" class="st0 st1 st2">G</text>
			</g>
		</g>
	</g>
</g>
<g id="ID000070">
	<g>
		<g transform="translate(430.701,139.886)">
			<g transform="rotate(-0.0)">
				<text transform="matrix(1 0 0 1 108.1291 36.9202)" class="st0 st1 st2">A</text>
			</g>
		</g>
	</g>
</g>
<g id="ID000071">
	<line class="st4" x1="542.2" y1="178.9" x2="542.2" y2="185.5"/>
</g>
<g id="ID000072">
	<g transform="translate(430.701,163.799)">
		<g transform="rotate(-0.0)">
			<text transform="matrix(1 0 0 1 105.8615 33.2933)" class="st1 st2">50</text>
		</g>
	</g>
</g>
<g id="ID000073">
	<g transform="translate(416.214,136.989)">
		<g transform="rotate(-0.0)">
			<text transform="matrix(1 0 0 1 110.0448 37.3601)" class="st7 st1 st2">C</text>
		</g>
	</g>
</g>
<g id="ID000074">
	<g transform="translate(404.625,136.989)">
		<g transform="rotate(-0.0)">
			<text transform="matrix(1 0 0 1 111.8027 37.3601)" class="st7 st1 st2">U</text>
		</g>
	</g>
</g>
<g id="ID000075">
	<g transform="translate(393.035,136.989)">
		<g transform="rotate(-0.0)">
			<text transform="matrix(1 0 0 1 113.2785 37.3601)" class="st7 st1 st2">G</text>
		</g>
	</g>
</g>
<g id="ID000076">
	<g transform="translate(381.446,136.989)">
		<g transform="rotate(-0.0)">
			<text transform="matrix(1 0 0 1 115.5999 37.3601)" class="st7 st1 st2">A</text>
		</g>
	</g>
</g>
<g id="ID000077">
	<g transform="translate(369.857,136.989)">
		<g transform="rotate(-0.0)">
			<text transform="matrix(1 0 0 1 116.7934 37.3601)" class="st7 st1 st2">G</text>
		</g>
	</g>
</g>
<g id="ID000078">
	<g transform="translate(358.267,136.989)">
		<g transform="rotate(-0.0)">
			<text transform="matrix(1 0 0 1 118.5514 37.3601)" class="st7 st1 st2">G</text>
		</g>
	</g>
</g>
<g id="ID000079">
	<g transform="translate(346.678,136.989)">
		<g transform="rotate(-0.0)">
			<text transform="matrix(1 0 0 1 120.5915 37.3601)" class="st7 st1 st2">U</text>
		</g>
	</g>
</g>
<g id="ID000080">
	<g transform="translate(335.088,136.989)">
		<g transform="rotate(-0.0)">
			<text transform="matrix(1 0 0 1 122.0682 37.3601)" class="st7 st1 st2">G</text>
		</g>
	</g>
</g>
<g id="ID000081">
	<g>
		<g transform="translate(320.602,142.784)">
			<g transform="rotate(-0.0)">
				<text transform="matrix(1 0 0 1 124.8277 36.4802)" class="st0 st1 st2">A</text>
			</g>
		</g>
	</g>
</g>
<g id="ID000082">
	<polygon class="st8" points="461.1,162.1 461.2,162.1 461.4,162 461.5,162 461.6,162 461.7,162 461.8,161.9 462,161.9 462.1,161.8 
		462.2,161.7 462.3,161.7 462.4,161.6 462.5,161.5 462.6,161.4 462.6,161.3 462.7,161.2 462.8,161.1 462.8,161 462.9,160.9 
		463,160.8 463,160.7 463,160.6 463.1,160.4 463.1,160.3 463.1,160.2 463.1,160.1 463.1,159.9 463.1,159.8 463,159.7 463,159.6 
		463,159.4 462.9,159.3 462.9,159.2 462.8,159.1 462.8,159 462.7,158.9 462.6,158.8 462.5,158.7 462.4,158.6 462.3,158.5 
		462.2,158.5 462.1,158.4 462,158.3 461.9,158.3 461.8,158.2 461.7,158.2 461.5,158.2 461.4,158.2 461.3,158.1 461.2,158.1 
		461.1,158.1 460.9,158.1 460.8,158.2 460.7,158.2 460.6,158.2 460.4,158.2 460.3,158.3 460.2,158.3 460.1,158.4 460,158.5 
		459.9,158.5 459.8,158.6 459.7,158.7 459.6,158.8 459.5,158.9 459.5,159 459.4,159.1 459.4,159.2 459.3,159.3 459.3,159.4 
		459.2,159.6 459.2,159.7 459.2,159.8 459.2,159.9 459.1,160.1 459.1,160.2 459.2,160.3 459.2,160.4 459.2,160.6 459.2,160.7 
		459.3,160.8 459.3,160.9 459.4,161 459.4,161.1 459.5,161.2 459.6,161.3 459.7,161.4 459.8,161.5 459.8,161.6 459.9,161.7 
		460.1,161.7 460.2,161.8 460.3,161.9 460.4,161.9 460.5,162 460.6,162 460.7,162 460.9,162 461,162.1 	"/>
</g>
<g id="ID000083">
	<line class="st5" x1="470.9" y1="154.2" x2="470.9" y2="166"/>
</g>
<g id="ID000084">
	<line class="st5" x1="480.8" y1="154.2" x2="480.8" y2="166"/>
</g>
<g id="ID000085">
	<line class="st5" x1="490.6" y1="154.2" x2="490.6" y2="166"/>
</g>
<g id="ID000086">
	<line class="st5" x1="500.4" y1="154.2" x2="500.4" y2="166"/>
</g>
<g id="ID000087">
	<line class="st5" x1="510.3" y1="154.2" x2="510.3" y2="166"/>
</g>
<g id="ID000088">
	<line class="st5" x1="520.1" y1="154.2" x2="520.1" y2="166"/>
</g>
<g id="ID000089">
	<line class="st5" x1="529.9" y1="154.2" x2="529.9" y2="166"/>
</g>
<g id="ID000091">
	<g>
		<g transform="translate(436.496,102.221)">
			<g transform="rotate(-0.0)">
				<text transform="matrix(1 0 0 1 106.6856 42.633)" class="st0 st1 st2">G</text>
			</g>
		</g>
	</g>
</g>
<g id="ID000092">
	<line class="st4" x1="547.1" y1="133.9" x2="547.1" y2="127.3"/>
</g>
<g id="ID000093">
	<g transform="translate(436.496,78.655)">
		<g transform="rotate(-0.0)">
			<text transform="matrix(1 0 0 1 104.9845 46.2078)" class="st1 st2">40</text>
		</g>
	</g>
</g>
<g id="ID000094">
	<g transform="translate(445.188,113.810)">
		<g transform="rotate(-0.0)">
			<text transform="matrix(1 0 0 1 105.6509 40.8751)" class="st7 st1 st2">U</text>
		</g>
	</g>
</g>
<g id="ID000095">
	<g transform="translate(456.777,113.810)">
		<g transform="rotate(-0.0)">
			<text transform="matrix(1 0 0 1 103.6087 40.8751)" class="st7 st1 st2">G</text>
		</g>
	</g>
</g>
<g id="ID000096">
	<g transform="translate(468.366,108.015)">
		<g transform="rotate(-0.0)">
			<text transform="matrix(1 0 0 1 101.8518 41.7531)" class="st7 st1 st2">G</text>
		</g>
	</g>
</g>
<g id="ID000097">
	<g transform="translate(482.853,113.810)">
		<g transform="rotate(-0.0)">
			<text transform="matrix(1 0 0 1 99.937 40.8751)" class="st7 st1 st2">U</text>
		</g>
	</g>
</g>
<g id="ID000098">
	<g transform="translate(488.648,128.297)">
		<g transform="rotate(-0.0)">
			<text transform="matrix(1 0 0 1 98.7758 38.6781)" class="st7 st1 st2">G</text>
		</g>
	</g>
</g>
<g id="ID000099">
	<g transform="translate(482.853,139.886)">
		<g transform="rotate(-0.0)">
			<text transform="matrix(1 0 0 1 99.937 36.9202)" class="st7 st1 st2">U</text>
		</g>
	</g>
</g>
<g id="ID000100">
	<g transform="translate(468.366,142.784)">
		<g transform="rotate(-0.0)">
			<text transform="matrix(1 0 0 1 102.4153 36.4802)" class="st7 st1 st2">A</text>
		</g>
	</g>
</g>
<g id="ID000101">
	<g transform="translate(456.777,136.989)">
		<g transform="rotate(-0.0)">
			<text transform="matrix(1 0 0 1 103.8929 37.3601)" class="st7 st1 st2">U</text>
		</g>
	</g>
</g>
<g id="ID000102">
	<g transform="translate(445.188,136.989)">
		<g transform="rotate(-0.0)">
			<text transform="matrix(1 0 0 1 105.3677 37.3601)" class="st7 st1 st2">G</text>
		</g>
	</g>
</g>
<g id="ID000103">
	<polygon class="st8" points="554.5,162.1 554.6,162.1 554.8,162 554.9,162 555,162 555.1,162 555.2,161.9 555.4,161.9 555.5,161.8 
		555.6,161.7 555.7,161.7 555.8,161.6 555.9,161.5 556,161.4 556,161.3 556.1,161.2 556.2,161.1 556.2,161 556.3,160.9 556.4,160.8 
		556.4,160.7 556.4,160.6 556.4,160.4 556.5,160.3 556.5,160.2 556.5,160.1 556.5,159.9 556.5,159.8 556.4,159.7 556.4,159.6 
		556.4,159.4 556.3,159.3 556.3,159.2 556.2,159.1 556.2,159 556.1,158.9 556,158.8 555.9,158.7 555.8,158.6 555.7,158.5 
		555.6,158.5 555.5,158.4 555.4,158.3 555.3,158.3 555.2,158.2 555.1,158.2 554.9,158.2 554.8,158.2 554.7,158.1 554.6,158.1 
		554.5,158.1 554.3,158.1 554.2,158.2 554.1,158.2 554,158.2 553.8,158.2 553.7,158.3 553.6,158.3 553.5,158.4 553.4,158.5 
		553.3,158.5 553.2,158.6 553.1,158.7 553,158.8 552.9,158.9 552.9,159 552.8,159.1 552.8,159.2 552.7,159.3 552.7,159.4 
		552.6,159.6 552.6,159.7 552.6,159.8 552.6,159.9 552.5,160.1 552.5,160.2 552.6,160.3 552.6,160.4 552.6,160.6 552.6,160.7 
		552.7,160.8 552.7,160.9 552.8,161 552.8,161.1 552.9,161.2 553,161.3 553.1,161.4 553.2,161.5 553.3,161.6 553.3,161.7 
		553.5,161.7 553.6,161.8 553.7,161.9 553.8,161.9 553.9,162 554,162 554.1,162 554.3,162 554.4,162.1 	"/>
</g>
<g id="ID000104">
	<polygon class="st8" points="564.3,162.1 564.5,162.1 564.6,162 564.7,162 564.8,162 565,162 565.1,161.9 565.2,161.9 565.3,161.8 
		565.4,161.7 565.5,161.7 565.6,161.6 565.7,161.5 565.8,161.4 565.9,161.3 565.9,161.2 566,161.1 566.1,161 566.1,160.9 
		566.2,160.8 566.2,160.7 566.3,160.6 566.3,160.4 566.3,160.3 566.3,160.2 566.3,160.1 566.3,159.9 566.3,159.8 566.3,159.7 
		566.2,159.6 566.2,159.4 566.2,159.3 566.1,159.2 566,159.1 566,159 565.9,158.9 565.8,158.8 565.7,158.7 565.7,158.6 565.6,158.5 
		565.5,158.5 565.4,158.4 565.2,158.3 565.1,158.3 565,158.2 564.9,158.2 564.8,158.2 564.7,158.2 564.5,158.1 564.4,158.1 
		564.3,158.1 564.2,158.1 564,158.2 563.9,158.2 563.8,158.2 563.7,158.2 563.6,158.3 563.4,158.3 563.3,158.4 563.2,158.5 
		563.1,158.5 563,158.6 562.9,158.7 562.9,158.8 562.8,158.9 562.7,159 562.6,159.1 562.6,159.2 562.5,159.3 562.5,159.4 
		562.5,159.6 562.4,159.7 562.4,159.8 562.4,159.9 562.4,160.1 562.4,160.2 562.4,160.3 562.4,160.4 562.4,160.6 562.5,160.7 
		562.5,160.8 562.6,160.9 562.6,161 562.7,161.1 562.7,161.2 562.8,161.3 562.9,161.4 563,161.5 563.1,161.6 563.2,161.7 
		563.3,161.7 563.4,161.8 563.5,161.9 563.6,161.9 563.7,162 563.9,162 564,162 564.1,162 564.2,162.1 	"/>
</g>
<g id="ID000106">
	<g transform="translate(201.810,177.552)">
		<g transform="rotate(-0.0)">
			<text transform="matrix(1 0 0 1 136.0875 36.8762)" class="st0 st1 st2">C</text>
		</g>
	</g>
</g>
<g id="ID000107">
	<line class="st4" x1="341.9" y1="214.4" x2="341.9" y2="221"/>
</g>
<g id="ID000108">
	<g transform="translate(201.810,201.465)">
		<g transform="rotate(-0.0)">
			<text transform="matrix(1 0 0 1 136.0875 31.1175)" class="st1 st2">70</text>
		</g>
	</g>
</g>
<g id="ID000109">
	<g transform="translate(190.221,186.244)">
		<g transform="rotate(-0.0)">
			<text transform="matrix(1 0 0 1 135.5085 32.8395)" class="st0 st1 st2">C</text>
		</g>
	</g>
</g>
<g id="ID000110">
	<g transform="translate(175.734,194.936)">
		<g transform="rotate(-0.0)">
			<text transform="matrix(1 0 0 1 140.0453 28.5703)" class="st9 st1 st2">A</text>
		</g>
	</g>
</g>
<g id="ID000111">
	<g transform="translate(175.734,206.525)">
		<g transform="rotate(-0.0)">
			<text transform="matrix(1 0 0 1 139.765 26.8134)" class="st9 st1 st2">U</text>
		</g>
	</g>
</g>
<g id="ID000112">
	<g transform="translate(175.734,218.115)">
		<g transform="rotate(-0.0)">
			<text transform="matrix(1 0 0 1 139.4809 25.0535)" class="st9 st1 st2">G</text>
		</g>
	</g>
</g>
<g id="ID000113">
	<g transform="translate(175.734,229.704)">
		<g transform="rotate(-0.0)">
			<text transform="matrix(1 0 0 1 139.4809 23.2975)" class="st9 st1 st2">G</text>
		</g>
	</g>
</g>
<g id="ID000114">
	<g>
		<g transform="translate(184.426,244.191)">
			<g transform="rotate(-0.0)">
				<text transform="matrix(1 0 0 1 138.4471 21.9433)" class="st9 st1 st2">C</text>
			</g>
		</g>
	</g>
</g>
<g id="ID000115">
	<g>
		<g transform="translate(140.966,249.986)">
			<g transform="rotate(-0.0)">
				<text transform="matrix(1 0 0 1 144.7547 16.8446)" class="st9 st1 st2">G</text>
			</g>
		</g>
	</g>
</g>
<g id="ID000116">
	<g>
		<g transform="translate(146.760,241.293)">
			<g transform="rotate(-0.0)">
				<text transform="matrix(1 0 0 1 142.9207 18.3764)" class="st0 st1 st2">U</text>
			</g>
		</g>
	</g>
</g>
<g id="ID000117">
	<g transform="translate(152.555,229.704)">
		<g transform="rotate(-0.0)">
			<text transform="matrix(1 0 0 1 143.28 23.2975)" class="st9 st1 st2">C</text>
		</g>
	</g>
</g>
<g id="ID000118">
	<line class="st4" x1="294.9" y1="243.9" x2="290.2" y2="239.3"/>
</g>
<g id="ID000119">
	<g transform="translate(141.629,210.665)">
		<g transform="rotate(-0.0)">
			<text transform="matrix(1 0 0 1 131.6288 26.1841)" class="st1 st2">100</text>
		</g>
	</g>
</g>
<g id="ID000120">
	<g transform="translate(152.555,218.115)">
		<g transform="rotate(-0.0)">
			<text transform="matrix(1 0 0 1 143.28 25.0535)" class="st9 st1 st2">C</text>
		</g>
	</g>
</g>
<g id="ID000121">
	<g transform="translate(152.555,206.525)">
		<g transform="rotate(-0.0)">
			<text transform="matrix(1 0 0 1 143.5622 26.8134)" class="st9 st1 st2">A</text>
		</g>
	</g>
</g>
<g id="ID000122">
	<g transform="translate(152.555,194.936)">
		<g transform="rotate(-0.0)">
			<text transform="matrix(1 0 0 1 143.28 28.5703)" class="st9 st1 st2">U</text>
		</g>
	</g>
</g>
<g id="ID000123">
	<g>
		<g transform="translate(138.068,186.244)">
			<g transform="rotate(-0.0)">
				<text transform="matrix(1 0 0 1 145.7592 29.8893)" class="st0 st1 st2">A</text>
			</g>
		</g>
	</g>
</g>
<g id="ID000124">
	<line class="st5" x1="315.2" y1="219.1" x2="303.4" y2="219.1"/>
</g>
<g id="ID000125">
	<line class="st5" x1="315.2" y1="228.9" x2="303.4" y2="228.9"/>
</g>
<g id="ID000126">
	<line class="st5" x1="315.2" y1="238.7" x2="303.4" y2="238.7"/>
</g>
<g id="ID000127">
	<line class="st5" x1="315.2" y1="248.6" x2="303.4" y2="248.6"/>
</g>
<g id="ID000128">
	<line class="st5" x1="322.8" y1="263.4" x2="293.4" y2="263.3"/>
</g>
<g id="ID000129">
	<polygon class="st8" points="306.2,263.6 306.2,263.7 306.2,263.8 306.2,263.9 306.3,264.1 306.3,264.2 306.4,264.3 306.5,264.4 
		306.5,264.5 306.6,264.6 306.7,264.7 306.8,264.8 306.9,264.9 307,264.9 307.1,265 307.2,265.1 307.3,265.1 307.4,265.2 
		307.5,265.2 307.7,265.2 307.8,265.3 307.9,265.3 308,265.3 308.2,265.3 308.3,265.3 308.4,265.3 308.5,265.2 308.6,265.2 
		308.8,265.2 308.9,265.1 309,265.1 309.1,265 309.2,265 309.3,264.9 309.4,264.8 309.5,264.7 309.6,264.6 309.7,264.5 309.7,264.4 
		309.8,264.3 309.9,264.2 309.9,264.1 310,264 310,263.9 310,263.7 310.1,263.6 310.1,263.5 310.1,263.4 310.1,263.2 310.1,263.1 
		310.1,263 310,262.9 310,262.8 310,262.6 309.9,262.5 309.9,262.4 309.8,262.3 309.7,262.2 309.7,262.1 309.6,262 309.5,261.9 
		309.4,261.8 309.3,261.8 309.2,261.7 309.1,261.6 309,261.6 308.9,261.5 308.7,261.5 308.6,261.4 308.5,261.4 308.4,261.4 
		308.3,261.4 308.1,261.4 308,261.4 307.9,261.4 307.8,261.4 307.6,261.4 307.5,261.4 307.4,261.5 307.3,261.5 307.2,261.6 
		307.1,261.7 307,261.7 306.9,261.8 306.8,261.9 306.7,262 306.6,262.1 306.5,262.2 306.5,262.3 306.4,262.4 306.3,262.5 
		306.3,262.6 306.2,262.7 306.2,262.8 306.2,263 306.2,263.1 306.2,263.2 306.1,263.3 306.2,263.5 	"/>
</g>
<g id="ID000131">
	<g>
		<g transform="translate(181.529,258.678)">
			<g transform="rotate(-0.0)">
				<text transform="matrix(1 0 0 1 139.1663 18.9006)" class="st0 st1 st2">A</text>
			</g>
		</g>
	</g>
</g>
<g id="ID000132">
	<g transform="translate(175.734,270.267)">
		<g transform="rotate(-0.0)">
			<text transform="matrix(1 0 0 1 139.765 17.1436)" class="st9 st1 st2">U</text>
		</g>
	</g>
</g>
<g id="ID000133">
	<g transform="translate(175.734,281.856)">
		<g transform="rotate(-0.0)">
			<text transform="matrix(1 0 0 1 139.4809 15.3857)" class="st9 st1 st2">G</text>
		</g>
	</g>
</g>
<g id="ID000134">
	<g transform="translate(175.734,293.446)">
		<g transform="rotate(-0.0)">
			<text transform="matrix(1 0 0 1 139.765 13.6287)" class="st9 st1 st2">C</text>
		</g>
	</g>
</g>
<g id="ID000135">
	<line class="st4" x1="325.7" y1="302.7" x2="333.7" y2="302.7"/>
</g>
<g id="ID000136">
	<g transform="translate(191.187,293.446)">
		<g transform="rotate(-0.0)">
			<text transform="matrix(1 0 0 1 143.5869 12.6892)" class="st1 st2">80</text>
		</g>
	</g>
</g>
<g id="ID000137">
	<g transform="translate(175.734,305.035)">
		<g transform="rotate(-0.0)">
			<text transform="matrix(1 0 0 1 139.4809 11.8708)" class="st9 st1 st2">G</text>
		</g>
	</g>
</g>
<g id="ID000138">
	<g transform="translate(152.555,305.035)">
		<g transform="rotate(-0.0)">
			<text transform="matrix(1 0 0 1 142.9977 11.8708)" class="st9 st1 st2">G</text>
		</g>
	</g>
</g>
<g id="ID000139">
	<g transform="translate(152.555,293.446)">
		<g transform="rotate(-0.0)">
			<text transform="matrix(1 0 0 1 142.9977 13.6287)" class="st9 st1 st2">G</text>
		</g>
	</g>
</g>
<g id="ID000140">
	<g transform="translate(152.555,281.856)">
		<g transform="rotate(-0.0)">
			<text transform="matrix(1 0 0 1 143.28 15.3857)" class="st9 st1 st2">U</text>
		</g>
	</g>
</g>
<g id="ID000141">
	<g transform="translate(152.555,270.267)">
		<g transform="rotate(-0.0)">
			<text transform="matrix(1 0 0 1 143.5622 17.1436)" class="st9 st1 st2">A</text>
		</g>
	</g>
</g>
<g id="ID000142">
	<g>
		<g transform="translate(143.863,261.575)">
			<g transform="rotate(-0.0)">
				<text transform="matrix(1 0 0 1 146.7727 16.0056)" class="st0 st1 st2">A</text>
			</g>
		</g>
	</g>
</g>
<g id="ID000143">
	<line class="st5" x1="315.2" y1="283" x2="303.4" y2="283"/>
</g>
<g id="ID000144">
	<polygon class="st8" points="307.4,292.8 307.4,292.9 307.4,293.1 307.4,293.2 307.4,293.3 307.5,293.4 307.5,293.5 307.6,293.7 
		307.6,293.8 307.7,293.9 307.8,294 307.8,294.1 307.9,294.2 308,294.3 308.1,294.3 308.2,294.4 308.3,294.5 308.4,294.6 
		308.5,294.6 308.6,294.7 308.8,294.7 308.9,294.7 309,294.8 309.1,294.8 309.2,294.8 309.4,294.8 309.5,294.8 309.6,294.8 
		309.7,294.7 309.9,294.7 310,294.7 310.1,294.6 310.2,294.6 310.3,294.5 310.4,294.5 310.5,294.4 310.6,294.3 310.7,294.2 
		310.8,294.1 310.9,294 311,293.9 311,293.8 311.1,293.7 311.1,293.6 311.2,293.5 311.2,293.4 311.3,293.3 311.3,293.1 311.3,293 
		311.3,292.9 311.3,292.8 311.3,292.6 311.3,292.5 311.3,292.4 311.2,292.3 311.2,292.1 311.1,292 311.1,291.9 311,291.8 311,291.7 
		310.9,291.6 310.8,291.5 310.7,291.4 310.6,291.3 310.5,291.3 310.4,291.2 310.3,291.1 310.2,291.1 310.1,291 310,291 309.9,290.9 
		309.7,290.9 309.6,290.9 309.5,290.9 309.4,290.9 309.2,290.9 309.1,290.9 309,290.9 308.9,290.9 308.8,290.9 308.6,291 308.5,291 
		308.4,291.1 308.3,291.1 308.2,291.2 308.1,291.3 308,291.4 307.9,291.5 307.8,291.6 307.8,291.7 307.7,291.8 307.6,291.9 
		307.6,292 307.5,292.1 307.5,292.2 307.4,292.3 307.4,292.4 307.4,292.6 307.4,292.7 	"/>
</g>
<g id="ID000145">
	<line class="st5" x1="315.2" y1="302.7" x2="303.4" y2="302.7"/>
</g>
<g id="ID000147">
	<g transform="translate(175.734,319.522)">
		<g transform="rotate(-0.0)">
			<text transform="matrix(1 0 0 1 139.4809 9.6728)" class="st9 st1 st2">G</text>
		</g>
	</g>
</g>
<g id="ID000148">
	<g transform="translate(175.734,331.111)">
		<g transform="rotate(-0.0)">
			<text transform="matrix(1 0 0 1 139.4809 7.9159)" class="st9 st1 st2">G</text>
		</g>
	</g>
</g>
<g id="ID000149">
	<g transform="translate(175.734,342.701)">
		<g transform="rotate(-0.0)">
			<text transform="matrix(1 0 0 1 139.765 6.1569)" class="st9 st1 st2">C</text>
		</g>
	</g>
</g>
<g id="ID000150">
	<g transform="translate(181.529,354.290)">
		<g transform="rotate(-0.0)">
			<text transform="matrix(1 0 0 1 139.1663 4.4009)" class="st9 st1 st2">A</text>
		</g>
	</g>
</g>
<g id="ID000151">
	<g transform="translate(178.631,368.777)">
		<g transform="rotate(-0.0)">
			<text transform="matrix(1 0 0 1 139.326 2.202)" class="st9 st1 st2">U</text>
		</g>
	</g>
</g>
<g id="ID000152">
	<g transform="translate(164.145,374.572)">
		<g transform="rotate(-0.0)">
			<text transform="matrix(1 0 0 1 141.8032 1.3221)" class="st9 st1 st2">A</text>
		</g>
	</g>
</g>
<g id="ID000153">
	<g transform="translate(149.658,368.777)">
		<g transform="rotate(-0.0)">
			<text transform="matrix(1 0 0 1 144.0012 2.202)" class="st9 st1 st2">A</text>
		</g>
	</g>
</g>
<g id="ID000154">
	<g transform="translate(146.760,354.290)">
		<g transform="rotate(-0.0)">
			<text transform="matrix(1 0 0 1 143.8767 4.4009)" class="st9 st1 st2">G</text>
		</g>
	</g>
</g>
<g id="ID000155">
	<g transform="translate(152.555,342.701)">
		<g transform="rotate(-0.0)">
			<text transform="matrix(1 0 0 1 142.9977 6.1569)" class="st9 st1 st2">G</text>
		</g>
	</g>
</g>
<g id="ID000156">
	<line class="st4" x1="293" y1="344.4" x2="286.4" y2="344.4"/>
</g>
<g id="ID000157">
	<g transform="translate(137.103,342.701)">
		<g transform="rotate(-0.0)">
			<text transform="matrix(1 0 0 1 137.9761 6.1569)" class="st1 st2">90</text>
		</g>
	</g>
</g>
<g id="ID000158">
	<g transform="translate(152.555,331.111)">
		<g transform="rotate(-0.0)">
			<text transform="matrix(1 0 0 1 143.28 7.9159)" class="st9 st1 st2">U</text>
		</g>
	</g>
</g>
<g id="ID000159">
	<g transform="translate(152.555,319.522)">
		<g transform="rotate(-0.0)">
			<text transform="matrix(1 0 0 1 143.5622 9.6728)" class="st9 st1 st2">A</text>
		</g>
	</g>
</g>
<g id="ID000160">
	<polygon class="st8" points="307.4,334.6 307.4,334.7 307.4,334.9 307.4,335 307.4,335.1 307.5,335.2 307.5,335.3 307.6,335.4 
		307.6,335.6 307.7,335.7 307.8,335.8 307.8,335.9 307.9,336 308,336 308.1,336.1 308.2,336.2 308.3,336.3 308.4,336.3 308.5,336.4 
		308.6,336.4 308.8,336.5 308.9,336.5 309,336.5 309.1,336.6 309.2,336.6 309.4,336.6 309.5,336.6 309.6,336.5 309.7,336.5 
		309.9,336.5 310,336.5 310.1,336.4 310.2,336.4 310.3,336.3 310.4,336.2 310.5,336.2 310.6,336.1 310.7,336 310.8,335.9 
		310.9,335.8 311,335.7 311,335.6 311.1,335.5 311.1,335.4 311.2,335.3 311.2,335.2 311.3,335 311.3,334.9 311.3,334.8 311.3,334.7 
		311.3,334.5 311.3,334.4 311.3,334.3 311.3,334.2 311.2,334 311.2,333.9 311.1,333.8 311.1,333.7 311,333.6 311,333.5 310.9,333.4 
		310.8,333.3 310.7,333.2 310.6,333.1 310.5,333 310.4,333 310.3,332.9 310.2,332.8 310.1,332.8 310,332.7 309.9,332.7 309.7,332.7 
		309.6,332.7 309.5,332.6 309.4,332.6 309.2,332.6 309.1,332.6 309,332.7 308.9,332.7 308.8,332.7 308.6,332.8 308.5,332.8 
		308.4,332.9 308.3,332.9 308.2,333 308.1,333.1 308,333.2 307.9,333.2 307.8,333.3 307.8,333.4 307.7,333.5 307.6,333.6 
		307.6,333.8 307.5,333.9 307.5,334 307.4,334.1 307.4,334.2 307.4,334.4 307.4,334.5 	"/>
</g>
<g id="ID000161">
	<line class="st5" x1="315.2" y1="344.4" x2="303.4" y2="344.4"/>
</g>
<text transform="matrix(1 0 0 1 267.0537 187.9485)" class="st1 st10">5’</text>
<text transform="matrix(1 0 0 1 274.0791 214.4282)" class="st1 st10">3’</text>
<text transform="matrix(1 0 0 1 337.8973 52.909)" class="st1 st11">CA15-2 aptamer</text>
</svg>
