<?xml version="1.0" encoding="utf-8"?>
<!-- Generator: Adobe Illustrator 25.2.0, SVG Export Plug-In . SVG Version: 6.00 Build 0)  -->
<svg version="1.1" id="_图层_1" xmlns="http://www.w3.org/2000/svg" xmlns:xlink="http://www.w3.org/1999/xlink" x="0px" y="0px"
	 viewBox="0 0 800 400" style="enable-background:new 0 0 800 400;" xml:space="preserve">
<style type="text/css">
	.st0{fill:#80DB9E;}
	.st1{font-family:'ArialMT';}
	.st2{font-size:12px;}
	.st3{fill:#C2C2FF;}
	.st4{fill:#FF870A;}
	.st5{fill:#09FEFE;}
	.st6{fill:#242424;}
	.st7{font-size:9.3px;}
	.st8{fill:none;stroke:#000000;stroke-width:0.5;stroke-miterlimit:10;}
	.st9{fill:none;stroke:#242424;stroke-width:0.5;stroke-miterlimit:10;}
	.st10{font-size:25px;}
</style>
<g>
	<text transform="matrix(1 0 0 1 392 300.7)" class="st0 st1 st2">G</text>
</g>
<g>
	<text transform="matrix(1 0 0 1 392 288.1)" class="st0 st1 st2">G</text>
</g>
<g>
	<text transform="matrix(1 0 0 1 392 275.5)" class="st0 st1 st2">G</text>
</g>
<g>
	<text transform="matrix(1 0 0 1 392 262.9)" class="st0 st1 st2">U</text>
</g>
<g>
	<text transform="matrix(1 0 0 1 392 250.3)" class="st0 st1 st2">C</text>
</g>
<g>
	<text transform="matrix(1 0 0 1 392 237.7)" class="st0 st1 st2">G</text>
</g>
<g>
	<text transform="matrix(1 0 0 1 392 225.1)" class="st0 st1 st2">U</text>
</g>
<g>
	<text transform="matrix(1 0 0 1 392 212.5)" class="st0 st1 st2">G</text>
</g>
<g>
	<text transform="matrix(1 0 0 1 392 199.9)" class="st0 st1 st2">U</text>
</g>
<g>
	<text transform="matrix(1 0 0 1 392 187.3)" class="st0 st1 st2">C</text>
</g>
<g>
	<text transform="matrix(1 0 0 1 381.6 179.1)" class="st3 st1 st2">G</text>
</g>
<g>
	<text transform="matrix(1 0 0 1 373.5 168.8)" class="st3 st1 st2">G</text>
</g>
<g>
	<text transform="matrix(1 0 0 1 373.5 157.5)" class="st3 st1 st2">A</text>
</g>
<g>
	<text transform="matrix(1 0 0 1 378.4 147.4)" class="st3 st1 st2">U</text>
</g>
<g>
	<text transform="matrix(1 0 0 1 392 137.9)" class="st4 st1 st2">C</text>
</g>
<g>
	<text transform="matrix(1 0 0 1 392 125.3)" class="st4 st1 st2">C</text>
</g>
<g>
	<text transform="matrix(1 0 0 1 392 112.6)" class="st4 st1 st2">G</text>
</g>
<g>
	<text transform="matrix(1 0 0 1 392 100)" class="st4 st1 st2">U</text>
</g>
<g>
	<text transform="matrix(1 0 0 1 392 87.4)" class="st4 st1 st2">G</text>
</g>
<g>
	<text transform="matrix(1 0 0 1 392 74.8)" class="st4 st1 st2">A</text>
</g>
<g>
	<text transform="matrix(1 0 0 1 392 62.2)" class="st4 st1 st2">G</text>
</g>
<g>
	<text transform="matrix(1 0 0 1 389.5 49.8)" class="st3 st1 st2">U</text>
</g>
<g>
	<text transform="matrix(1 0 0 1 403.1 41)" class="st3 st1 st2">U</text>
</g>
<g>
	<text transform="matrix(1 0 0 1 417.5 49.8)" class="st3 st1 st2">U</text>
</g>
<g>
	<text transform="matrix(1 0 0 1 417.5 62.2)" class="st4 st1 st2">U</text>
</g>
<g>
	<text transform="matrix(1 0 0 1 417.5 74.8)" class="st4 st1 st2">U</text>
</g>
<g>
	<text transform="matrix(1 0 0 1 417.5 87.4)" class="st4 st1 st2">C</text>
</g>
<g>
	<text transform="matrix(1 0 0 1 417.5 100)" class="st4 st1 st2">G</text>
</g>
<g>
	<text transform="matrix(1 0 0 1 417.5 112.6)" class="st4 st1 st2">C</text>
</g>
<g>
	<text transform="matrix(1 0 0 1 417.5 125.3)" class="st4 st1 st2">G</text>
</g>
<g>
	<text transform="matrix(1 0 0 1 417.5 137.9)" class="st4 st1 st2">G</text>
</g>
<g>
	<text transform="matrix(1 0 0 1 431.1 147.4)" class="st3 st1 st2">C</text>
</g>
<g>
	<text transform="matrix(1 0 0 1 435.9 157.5)" class="st3 st1 st2">G</text>
</g>
<g>
	<text transform="matrix(1 0 0 1 435.9 168.8)" class="st3 st1 st2">A</text>
</g>
<g>
	<text transform="matrix(1 0 0 1 431.1 178.9)" class="st3 st1 st2">A</text>
</g>
<g>
	<text transform="matrix(1 0 0 1 417.5 187.3)" class="st0 st1 st2">G</text>
</g>
<g>
	<text transform="matrix(1 0 0 1 417.5 199.9)" class="st0 st1 st2">A</text>
</g>
<g>
	<text transform="matrix(1 0 0 1 417.5 212.5)" class="st0 st1 st2">C</text>
</g>
<g>
	<text transform="matrix(1 0 0 1 417.5 225.1)" class="st0 st1 st2">A</text>
</g>
<g>
	<text transform="matrix(1 0 0 1 417.5 237.7)" class="st0 st1 st2">A</text>
</g>
<g>
	<text transform="matrix(1 0 0 1 417.5 250.3)" class="st0 st1 st2">G</text>
</g>
<g>
	<text transform="matrix(1 0 0 1 417.5 262.9)" class="st0 st1 st2">G</text>
</g>
<g>
	<text transform="matrix(1 0 0 1 417.5 275.5)" class="st0 st1 st2">C</text>
</g>
<g>
	<text transform="matrix(1 0 0 1 417.5 288.1)" class="st0 st1 st2">U</text>
</g>
<g>
	<text transform="matrix(1 0 0 1 417.5 300.7)" class="st0 st1 st2">C</text>
</g>
<g>
	<text transform="matrix(1 0 0 1 431.1 305.2)" class="st3 st1 st2">G</text>
</g>
<g>
	<text transform="matrix(1 0 0 1 438.3 316)" class="st3 st1 st2">A</text>
</g>
<g>
	<text transform="matrix(1 0 0 1 440.9 328.7)" class="st3 st1 st2">A</text>
</g>
<g>
	<text transform="matrix(1 0 0 1 436.7 346.2)" class="st5 st1 st2">G</text>
</g>
<g>
	<text transform="matrix(1 0 0 1 444.5 356.8)" class="st5 st1 st2">C</text>
</g>
<g>
	<text transform="matrix(1 0 0 1 453.4 365.7)" class="st5 st1 st2">U</text>
</g>
<g>
	<text transform="matrix(1 0 0 1 463.9 371.3)" class="st3 st1 st2">U</text>
</g>
<g>
	<text transform="matrix(1 0 0 1 474.1 380.1)" class="st3 st1 st2">C</text>
</g>
<g>
	<text transform="matrix(1 0 0 1 469.7 390.9)" class="st3 st1 st2">U</text>
</g>
<g>
	<text transform="matrix(1 0 0 1 458.9 395.5)" class="st3 st1 st2">A</text>
</g>
<g>
	<text transform="matrix(1 0 0 1 448 390.9)" class="st3 st1 st2">A</text>
</g>
<g>
	<text transform="matrix(1 0 0 1 438.3 383.2)" class="st5 st1 st2">G</text>
</g>
<g>
	<text transform="matrix(1 0 0 1 428.7 373.5)" class="st5 st1 st2">G</text>
</g>
<g>
	<text transform="matrix(1 0 0 1 420.4 364.3)" class="st5 st1 st2">U</text>
</g>
<g>
	<text transform="matrix(1 0 0 1 407.5 362.1)" class="st3 st1 st2">A</text>
</g>
<g>
	<text transform="matrix(1 0 0 1 394.7 359.6)" class="st3 st1 st2">A</text>
</g>
<g>
	<text transform="matrix(1 0 0 1 383.9 352.4)" class="st3 st1 st2">C</text>
</g>
<g>
	<text transform="matrix(1 0 0 1 376.7 341.5)" class="st3 st1 st2">G</text>
</g>
<g>
	<text transform="matrix(1 0 0 1 374.2 328.7)" class="st3 st1 st2">A</text>
</g>
<g>
	<text transform="matrix(1 0 0 1 376.7 316)" class="st3 st1 st2">U</text>
</g>
<g>
	<text transform="matrix(1 0 0 1 384.5 296.4)" class="st6 st1 st7">5’</text>
</g>
<g>
	<text transform="matrix(1 0 0 1 370.9 307.3)" class="st6 st1 st7">3’</text>
</g>
<g>
	<text transform="matrix(1 0 0 1 371.3 190.7)" class="st6 st1 st7">10</text>
</g>
<g>
	<text transform="matrix(1 0 0 1 369.1 75.1)" class="st6 st1 st7">20</text>
</g>
<g>
	<text transform="matrix(1 0 0 1 438.5 123.5)" class="st6 st1 st7">30</text>
</g>
<g>
	<text transform="matrix(1 0 0 1 434 236.6)" class="st6 st1 st7">40</text>
</g>
<g>
	<text transform="matrix(1 0 0 1 456.1 341.7)" class="st6 st1 st7">50</text>
</g>
<g>
	<text transform="matrix(1 0 0 1 404.9 377.9)" class="st6 st1 st7">60</text>
</g>
<line class="st8" x1="402.9" y1="270.7" x2="415.8" y2="270.7"/>
<line class="st8" x1="403.1" y1="282.7" x2="416.1" y2="282.7"/>
<line class="st8" x1="429.6" y1="358.1" x2="438.7" y2="348.8"/>
<line class="st8" x1="436.9" y1="364.7" x2="444.8" y2="356.6"/>
<line class="st8" x1="445" y1="373.5" x2="452.9" y2="365.4"/>
<line class="st8" x1="402.9" y1="257.5" x2="415.8" y2="257.5"/>
<line class="st8" x1="402.9" y1="245.8" x2="415.8" y2="245.8"/>
<line class="st8" x1="402.9" y1="233.4" x2="415.8" y2="233.4"/>
<line class="st8" x1="402.9" y1="221" x2="415.8" y2="221"/>
<line class="st8" x1="402.9" y1="208.6" x2="415.8" y2="208.6"/>
<line class="st8" x1="402.9" y1="196.2" x2="415.8" y2="196.2"/>
<line class="st8" x1="402.9" y1="183.6" x2="415.8" y2="183.6"/>
<line class="st8" x1="402.8" y1="132" x2="415.6" y2="132"/>
<line class="st8" x1="402.8" y1="120.4" x2="415.6" y2="120.4"/>
<line class="st8" x1="402.8" y1="107.9" x2="415.6" y2="107.9"/>
<line class="st8" x1="402.8" y1="95.5" x2="415.6" y2="95.5"/>
<line class="st8" x1="402.8" y1="81.3" x2="415.6" y2="81.3"/>
<line class="st8" x1="402.8" y1="68.8" x2="415.6" y2="68.8"/>
<line class="st8" x1="402.8" y1="56.3" x2="415.6" y2="56.3"/>
<line class="st9" x1="390.4" y1="71.5" x2="382" y2="71.5"/>
<line class="st9" x1="390.9" y1="186.1" x2="382.5" y2="186.1"/>
<line class="st9" x1="410.4" y1="371.4" x2="410.4" y2="362.9"/>
<line class="st9" x1="459.3" y1="344.7" x2="453.1" y2="351.4"/>
<g>
	<g>
		<g>
			<g>
				<text transform="matrix(1 0 0 1 20.3496 27.3)" class="st1 st10">Gastrointestinal cancer antigen 50-aptamer</text>
			</g>
		</g>
	</g>
</g>
</svg>
