<?xml version="1.0" encoding="utf-8"?>
<!-- Generator: Adobe Illustrator 25.2.0, SVG Export Plug-In . SVG Version: 6.00 Build 0)  -->
<svg version="1.1" id="_图层_1" xmlns="http://www.w3.org/2000/svg" xmlns:xlink="http://www.w3.org/1999/xlink" x="0px" y="0px"
	 viewBox="0 0 800 400" style="enable-background:new 0 0 800 400;" xml:space="preserve">
<style type="text/css">
	.st0{fill:#B83233;}
	.st1{fill:none;stroke:#000000;stroke-width:1.3;stroke-linejoin:round;}
	.st2{fill:#084595;}
	.st3{fill:none;stroke:#000000;stroke-linejoin:round;}
	.st4{font-family:'ArialMT';}
	.st5{font-size:22.5px;}
	.st6{font-size:24.2px;}
	.st7{font-size:20px;}
</style>
<g>
	<path class="st0" d="M199.5,172v-2.3h8.2v7.2c-1.2,1-2.5,1.7-3.9,2.3c-1.3,0.5-2.7,0.8-4.2,0.8s-3.5-0.4-5.2-1.2
		c-1.6-0.8-2.8-2-3.5-3.5c-0.8-1.6-1.2-3.4-1.2-5.2s0.3-3.6,1.2-5.3c0.7-1.6,1.9-2.9,3.4-3.6c1.6-0.8,3.3-1.2,5.1-1.2
		s2.6,0.2,3.8,0.7c1,0.3,2,1,2.7,1.9c0.7,1,1.2,2,1.5,3.2l-2.3,0.6c-0.3-0.9-0.6-1.6-1-2.3c-0.5-0.6-1.1-1-1.8-1.4
		c-0.9-0.3-1.7-0.5-2.7-0.5s-2.1,0.2-3,0.5c-0.8,0.3-1.5,0.8-2.1,1.4c-0.5,0.6-1,1.2-1.2,1.9c-0.5,1.2-0.8,2.6-0.7,3.9
		c0,1.5,0.3,2.9,0.9,4.3c0.5,1.1,1.5,2.1,2.6,2.6c1.1,0.6,2.3,0.9,3.6,0.9s2.3-0.3,3.2-0.6s1.6-0.8,2.4-1.4v-3.6h-5.7L199.5,172z"/>
	<path class="st0" d="M220.6,172v-2.3h8.2v7.2c-1.2,1-2.5,1.7-3.9,2.3c-1.3,0.5-2.7,0.8-4.2,0.8s-3.5-0.4-5.2-1.2
		c-1.6-0.8-2.8-2-3.5-3.5c-0.8-1.6-1.2-3.4-1.2-5.2s0.3-3.6,1.2-5.3c0.7-1.6,1.9-2.9,3.4-3.6c1.6-0.8,3.3-1.2,5.1-1.2
		s2.6,0.2,3.8,0.7c1,0.3,2,1,2.7,1.9c0.7,1,1.2,2,1.5,3.2l-2.3,0.6c-0.3-0.9-0.6-1.6-1-2.3c-0.5-0.6-1.1-1-1.8-1.4
		c-0.9-0.3-1.7-0.5-2.7-0.5s-2.1,0.2-3,0.5c-0.8,0.3-1.5,0.8-2.1,1.4c-0.5,0.5-1,1.2-1.2,1.9c-0.5,1.2-0.8,2.6-0.8,3.9
		s0.3,2.9,0.9,4.3c0.5,1.1,1.5,2.1,2.6,2.6c1.1,0.6,2.3,0.9,3.6,0.9s2.3-0.3,3.3-0.6c0.9-0.3,1.6-0.8,2.4-1.4v-3.6L220.6,172
		L220.6,172z"/>
	<path class="st0" d="M231.9,179.6l7.4-19.4h2.8l7.9,19.4h-2.9l-2.3-5.9h-8.1l-2.1,5.9h-2.8H231.9z M237.5,171.6h6.6l-2-5.4
		c-0.6-1.6-1-2.9-1.4-4c-0.3,1.3-0.6,2.5-1,3.7L237.5,171.6L237.5,171.6z"/>
	<path class="st0" d="M252.9,179.6l7.4-19.3h2.8l8,19.3h-2.9l-2.3-5.9h-8.1l-2.1,5.9h-2.9H252.9z M258.5,171.6h6.6l-2-5.4
		c-0.6-1.6-1-2.9-1.4-4c-0.3,1.3-0.6,2.5-1,3.7L258.5,171.6L258.5,171.6z"/>
	<path class="st0" d="M283.9,172v-2.3h8.2v7.2c-1.2,1-2.5,1.7-3.9,2.3c-1.3,0.5-2.7,0.8-4.2,0.8s-3.5-0.4-5.2-1.2
		c-1.5-0.8-2.8-2-3.5-3.5c-0.8-1.6-1.2-3.4-1.2-5.2s0.4-3.6,1.2-5.3c0.7-1.6,1.9-2.9,3.4-3.6c1.6-0.8,3.4-1.2,5.1-1.2
		s2.6,0.2,3.8,0.7c1,0.4,2,1,2.7,1.9c0.7,1,1.2,2,1.5,3.2l-2.3,0.6c-0.2-0.9-0.6-1.6-1-2.3c-0.5-0.6-1.1-1-1.8-1.4
		c-0.9-0.3-1.7-0.5-2.7-0.5s-2.1,0.2-3,0.5c-0.8,0.3-1.5,0.8-2.1,1.4c-0.5,0.6-1,1.2-1.2,1.9c-0.5,1.2-0.8,2.6-0.8,3.9
		s0.3,2.9,0.9,4.3c0.5,1.1,1.5,2.1,2.6,2.6c1.1,0.6,2.3,0.9,3.6,0.9c2.1,0,4.1-0.8,5.6-2v-3.6L283.9,172L283.9,172L283.9,172z"/>
	<path class="st0" d="M295.1,179.6l7.4-19.3h2.8l8,19.3h-2.9l-2.3-5.9H300l-2.2,5.9H295H295.1z M300.7,171.6h6.6l-2-5.4
		c-0.6-1.6-1-2.9-1.4-4c-0.3,1.3-0.6,2.5-1,3.7L300.7,171.6L300.7,171.6z"/>
	<path class="st0" d="M326.1,172v-2.3h8.2v7.2c-1.2,1-2.5,1.7-3.9,2.3c-1.3,0.5-2.7,0.8-4.2,0.8s-3.5-0.4-5.2-1.2
		c-1.6-0.8-2.8-2-3.5-3.5c-0.8-1.6-1.2-3.4-1.2-5.2s0.4-3.6,1.2-5.3c0.7-1.6,1.9-2.9,3.4-3.6c1.6-0.8,3.3-1.2,5.1-1.2
		s2.6,0.2,3.8,0.7c1,0.3,2,1,2.7,1.9c0.7,1,1.2,2,1.5,3.2l-2.3,0.6c-0.3-0.9-0.6-1.6-1.1-2.3c-0.5-0.6-1.1-1-1.8-1.4
		c-0.9-0.3-1.7-0.5-2.7-0.5s-2.1,0.2-3,0.5c-0.8,0.3-1.5,0.8-2.1,1.4c-0.5,0.5-1,1.2-1.2,1.9c-0.5,1.2-0.8,2.6-0.8,3.9
		s0.3,2.9,0.9,4.3c0.5,1.1,1.5,2.1,2.6,2.6c1.1,0.6,2.3,0.9,3.6,0.9s2.3-0.2,3.3-0.6c0.9-0.3,1.6-0.8,2.4-1.4v-3.5h-5.7l0,0
		L326.1,172z"/>
	<path class="st0" d="M337.4,179.6l7.4-19.3h2.8l7.9,19.3h-2.9l-2.3-5.9h-8.1l-2.2,5.9h-2.7H337.4z M343,171.6h6.6l-2-5.4
		c-0.6-1.6-1-2.9-1.4-4c-0.3,1.3-0.6,2.5-1,3.7L343,171.6L343,171.6z"/>
	<path class="st0" d="M372.6,160.2h2.6v11.2c0,1.6-0.2,3.1-0.7,4.6c-0.4,1.2-1.3,2.2-2.4,2.8c-1.4,0.8-2.9,1.1-4.5,1
		c-1.6,0-3-0.3-4.4-1c-1.1-0.6-2-1.6-2.5-2.7c-0.5-1.6-0.8-3.2-0.8-4.8v-11.2h2.6v11.2c0,1.3,0,2.5,0.4,3.7c0.3,0.8,0.9,1.5,1.6,1.8
		c0.9,0.4,1.8,0.7,2.8,0.6c1.9,0,3.2-0.4,4-1.3s1.2-2.5,1.2-4.9V160l0.2,0.2L372.6,160.2z"/>
	<path class="st0" d="M389.4,172v-2.3h8.2v7.2c-1.2,1-2.5,1.7-3.9,2.3c-1.3,0.5-2.7,0.8-4.2,0.8s-3.5-0.4-5.2-1.2
		c-1.6-0.8-2.8-2-3.5-3.5c-0.8-1.6-1.2-3.4-1.2-5.2s0.3-3.6,1.2-5.3c0.7-1.6,1.9-2.9,3.4-3.6c1.6-0.8,3.3-1.2,5.1-1.2
		s2.6,0.2,3.8,0.7c1,0.3,2,1,2.7,1.9c0.7,1,1.2,2,1.5,3.2l-2.3,0.6c-0.2-0.9-0.6-1.6-1-2.3c-0.5-0.6-1.1-1-1.8-1.4
		c-0.9-0.3-1.7-0.5-2.7-0.5s-2.1,0.2-3,0.5c-0.8,0.3-1.5,0.8-2.1,1.4c-0.5,0.6-1,1.2-1.2,1.9c-0.5,1.2-0.8,2.6-0.8,3.9
		s0.3,2.9,0.9,4.3c0.5,1.1,1.5,2.1,2.6,2.6c1.1,0.6,2.3,0.9,3.6,0.9s2.3-0.3,3.2-0.6c0.9-0.3,1.6-0.8,2.4-1.4v-3.6h-5.6L389.4,172z"
		/>
	<line class="st1" x1="392.9" y1="154.8" x2="392.9" y2="141.3"/>
	<path d="M388.1,139.1h-1.9v-12.6c-0.6,0.5-1.2,1-1.9,1.4c-0.6,0.4-1.4,0.7-2.1,1V127c1.1-0.5,2-1.2,2.9-1.9
		c0.7-0.6,1.3-1.4,1.7-2.2h1.3V139.1L388.1,139.1z M393.2,131.2c0-1.6,0.1-3.1,0.6-4.6c0.3-1,0.9-1.9,1.7-2.7c0.9-0.6,1.9-1,2.9-0.9
		c0.8,0,1.6,0.1,2.2,0.5s1.2,0.9,1.6,1.5c0.4,0.7,0.8,1.5,1,2.4c0.3,1.2,0.4,2.5,0.4,3.8s-0.1,3.1-0.6,4.5c-0.3,1-0.9,1.9-1.7,2.7
		c-2,1.5-4.9,1.2-6.6-0.7c-1.1-1.4-1.7-3.5-1.7-6.6h0.1L393.2,131.2z M395.2,131.2c0,2.7,0.3,4.4,0.9,5.3c0.7,1.3,2.4,1.7,3.6,0.9
		c0.4-0.2,0.7-0.6,0.9-0.9c0.6-0.9,0.9-2.7,0.9-5.3s-0.3-4.4-0.9-5.3c-0.5-0.8-1.4-1.3-2.3-1.3s-1.7,0.4-2.2,1.2
		c-0.7,0.9-1.1,2.8-1.1,5.4l0,0L395.2,131.2z"/>
	<path class="st0" d="M410.5,172v-2.3h8.2v7.2c-1.2,1-2.5,1.7-3.9,2.3c-1.3,0.5-2.7,0.8-4.2,0.8s-3.5-0.4-5.2-1.2
		c-1.5-0.8-2.8-2-3.5-3.5c-0.8-1.6-1.2-3.4-1.2-5.2s0.3-3.6,1.2-5.3c0.7-1.6,1.9-2.9,3.4-3.6c1.6-0.8,3.4-1.2,5.1-1.2
		s2.6,0.2,3.8,0.7c1,0.3,2,1,2.7,1.9c0.7,1,1.2,2,1.5,3.2l-2.3,0.6c-0.2-0.9-0.6-1.6-1-2.3c-0.5-0.6-1.1-1-1.8-1.4
		c-0.9-0.3-1.7-0.5-2.7-0.5s-2.1,0.2-3,0.5c-0.8,0.3-1.5,0.8-2.1,1.4c-0.5,0.6-1,1.2-1.2,1.9c-0.5,1.2-0.8,2.6-0.8,3.9
		s0.3,2.9,0.9,4.3c0.5,1.1,1.5,2.1,2.6,2.6c1.1,0.6,2.3,0.9,3.6,0.9s2.3-0.3,3.3-0.6c0.9-0.3,1.6-0.8,2.4-1.4v-3.6L410.5,172
		L410.5,172z"/>
	<path class="st0" d="M436.8,172.8l2.6,0.7c-0.4,1.9-1.4,3.5-2.9,4.8c-1.5,1.1-3.3,1.7-5.1,1.6c-1.8,0-3.5-0.3-5.1-1.3
		c-1.4-0.9-2.4-2.2-2.9-3.7c-0.7-1.6-1-3.4-1-5.2s0.3-3.6,1.1-5.3c0.7-1.5,1.8-2.7,3.3-3.5s3-1.2,4.7-1.2s3.5,0.4,4.8,1.5
		s2.3,2.5,2.8,4.2l-2.5,0.6c-0.3-1.2-1-2.3-2-3.1c-1-0.7-2.1-1-3.2-1c-1.3,0-2.6,0.3-3.7,1c-1,0.7-1.7,1.7-2.1,2.9s-0.6,2.4-0.6,3.7
		s0.2,2.9,0.7,4.3c0.4,1.1,1.2,2.1,2.3,2.8c1,0.6,2.2,0.9,3.3,0.9s2.6-0.4,3.6-1.2c1-1,1.7-2.3,2-3.6l0,0L436.8,172.8z"/>
	<path class="st0" d="M452.7,172v-2.3h8.2v7.2c-1.2,1-2.5,1.7-3.9,2.3c-1.3,0.5-2.7,0.8-4.2,0.8s-3.5-0.4-5.2-1.2
		c-1.6-0.8-2.8-2-3.5-3.5c-0.8-1.6-1.2-3.4-1.2-5.2s0.4-3.6,1.2-5.3c0.7-1.6,1.9-2.9,3.4-3.6c1.6-0.8,3.4-1.2,5.1-1.2
		s2.6,0.2,3.8,0.7c1,0.3,2,1,2.7,1.9c0.7,1,1.2,2,1.5,3.2l-2.3,0.6c-0.2-0.9-0.6-1.6-1-2.3c-0.5-0.6-1.1-1-1.8-1.4
		c-0.9-0.3-1.7-0.5-2.7-0.5s-2.1,0.2-3,0.5c-0.8,0.3-1.5,0.8-2.1,1.4c-0.5,0.6-1,1.2-1.2,1.9c-0.5,1.2-0.8,2.6-0.8,3.9
		s0.3,2.9,0.9,4.3c0.5,1.1,1.5,2.1,2.6,2.6c1.1,0.6,2.3,0.9,3.6,0.9s2.3-0.3,3.3-0.6c0.9-0.3,1.6-0.8,2.4-1.4v-3.6L452.7,172
		L452.7,172z"/>
	<path class="st0" d="M463.9,179.6l7.4-19.4h2.8l7.9,19.4h-2.9l-2.3-5.9h-8.1l-2.2,5.9H463.9L463.9,179.6z M469.6,171.6h6.6l-2-5.4
		c-0.6-1.6-1-2.9-1.4-4c-0.3,1.3-0.6,2.5-1,3.7L469.6,171.6L469.6,171.6L469.6,171.6z"/>
	<path class="st0" d="M500,172.8l2.6,0.7c-0.4,1.9-1.4,3.5-2.9,4.8c-1.5,1.1-3.3,1.7-5.1,1.6c-1.8,0-3.5-0.3-5.1-1.3
		c-1.4-0.9-2.4-2.2-3-3.7c-0.7-1.6-1-3.4-1-5.2s0.3-3.6,1.1-5.3c0.7-1.5,1.9-2.7,3.3-3.5c1.5-0.8,3-1.2,4.7-1.2s3.5,0.4,4.8,1.5
		s2.3,2.5,2.8,4.2l-2.5,0.6c-0.3-1.2-1-2.3-2-3.1c-1-0.7-2.1-1-3.2-1c-1.3,0-2.6,0.3-3.7,1c-1,0.7-1.7,1.7-2.1,2.9
		c-0.4,1.2-0.6,2.4-0.6,3.7s0.2,2.9,0.7,4.3c0.4,1.1,1.2,2.1,2.3,2.8c1,0.6,2.2,0.9,3.3,0.9s2.6-0.4,3.6-1.2c1-1,1.7-2.3,2-3.6l0,0
		L500,172.8z"/>
	<path class="st2" d="M514.1,139.3h2.6v11.2c0,1.6-0.2,3.1-0.7,4.7c-0.4,1.1-1.3,2.2-2.4,2.8c-1.4,0.8-2.9,1.1-4.5,1
		c-1.6,0-3-0.3-4.4-1c-1.1-0.6-2-1.6-2.5-2.7c-0.5-1.6-0.8-3.2-0.8-4.8v-11.2h2.6v11.2c0,1.3,0,2.5,0.4,3.7c0.3,0.8,0.9,1.5,1.6,1.8
		c0.9,0.4,1.8,0.7,2.8,0.7c1.9,0,3.2-0.4,4-1.3s1.2-2.5,1.2-4.9v-11.2l0,0H514.1z"/>
	<path class="st2" d="M522.6,143.5l7.4-19.3h2.8l7.9,19.3h-2.9l-2.3-5.9h-8.1l-2.2,5.9H522.6L522.6,143.5z M528.2,135.6h6.6l-2-5.4
		c-0.6-1.6-1-2.9-1.4-4c-0.3,1.3-0.6,2.5-1,3.7L528.2,135.6L528.2,135.6L528.2,135.6z"/>
	<path class="st2" d="M543.6,135.1l7.4-19.3h2.8l7.9,19.3h-2.9l-2.3-5.9h-8.1l-2.1,5.8L543.6,135.1L543.6,135.1L543.6,135.1z
		 M549.2,127.2h6.6l-2-5.4c-0.6-1.6-1-2.9-1.4-4c-0.3,1.3-0.6,2.5-1,3.7L549.2,127.2L549.2,127.2L549.2,127.2z"/>
	<path class="st2" d="M560.5,148.6l7.4-19.3h2.8l8,19.3h-2.9l-2.3-5.9h-8.1l-2.2,5.9H560.5L560.5,148.6z M566.1,140.6h6.6l-2.1-5.4
		c-0.6-1.6-1-2.9-1.4-4c-0.3,1.3-0.6,2.5-1,3.7L566.1,140.6L566.1,140.6z"/>
	<path class="st2" d="M575.6,163.7l7.4-19.3h2.8l8,19.4h-2.9l-2.3-5.9h-8.1l-2.1,5.8H575.6L575.6,163.7z M581.3,155.7h6.6l-2-5.4
		c-0.6-1.6-1-2.9-1.4-4c-0.3,1.3-0.6,2.5-1,3.7L581.3,155.7L581.3,155.7L581.3,155.7z"/>
	<line class="st1" x1="598.2" y1="153.1" x2="611.7" y2="153.1"/>
	<path d="M623,161.2v1.9h-10.7c0-0.5,0-0.9,0.2-1.4c0.3-0.8,0.7-1.5,1.3-2.2c0.8-0.9,1.7-1.7,2.6-2.5c1.3-1,2.5-2.2,3.5-3.4
		c0.6-0.6,0.9-1.5,0.9-2.4c0-0.7-0.3-1.4-0.9-2s-1.4-0.9-2.2-0.8c-0.9,0-1.7,0.3-2.3,0.9c-0.6,0.6-0.9,1.5-0.9,2.4l-2-0.2
		c0-1.3,0.6-2.5,1.6-3.5c1-0.9,2.3-1.3,3.7-1.2c1.4,0,2.7,0.4,3.7,1.3c0.9,0.8,1.4,1.9,1.4,3.2s-0.1,1.3-0.4,1.9
		c-0.4,0.7-0.8,1.4-1.3,1.9c-0.9,1-1.9,1.9-3,2.8c-1.2,1-1.9,1.7-2.3,2c-0.3,0.4-0.6,0.6-0.9,1.1h7.9L623,161.2z M625.1,155.1
		c0-1.6,0.1-3.1,0.6-4.6c0.3-1,0.9-1.9,1.7-2.7c0.8-0.6,1.9-1,2.9-0.9c0.8,0,1.6,0.1,2.3,0.5c0.6,0.4,1.2,0.9,1.6,1.5
		c0.4,0.7,0.8,1.5,1,2.4c0.3,1.2,0.4,2.5,0.4,3.8s-0.1,3.1-0.6,4.6c-0.3,1-0.9,1.9-1.7,2.7c-0.9,0.6-1.9,1-3,0.9
		c-1.4,0-2.8-0.6-3.7-1.7c-1-1.4-1.6-3.5-1.6-6.6l0,0L625.1,155.1z M627.1,155.1c0,2.7,0.3,4.4,0.9,5.3c0.7,1.3,2.4,1.7,3.6,0.9
		c0.4-0.2,0.7-0.6,0.9-0.9c0.6-0.9,0.9-2.7,0.9-5.3s-0.3-4.4-0.9-5.3c-0.5-0.8-1.4-1.3-2.3-1.3s-1.7,0.4-2.2,1.2
		C627.3,150.7,627,152.5,627.1,155.1L627.1,155.1L627.1,155.1z"/>
	<path class="st2" d="M596,182.2l2.6,0.7c-0.4,1.9-1.4,3.5-2.9,4.8c-1.5,1.1-3.3,1.7-5.1,1.6c-1.8,0-3.5-0.3-5.1-1.3
		c-1.4-0.9-2.4-2.2-3-3.7c-0.7-1.6-1-3.4-1-5.2s0.3-3.6,1.1-5.3c0.7-1.5,1.9-2.6,3.3-3.4c1.5-0.8,3-1.2,4.7-1.2s3.5,0.4,4.8,1.5
		s2.3,2.5,2.8,4.2l-2.5,0.6c-0.3-1.2-1-2.3-1.9-3.1c-1-0.7-2.1-1-3.2-1c-1.3,0-2.6,0.3-3.7,1c-1,0.7-1.7,1.7-2.1,2.9
		c-0.9,2.6-0.8,5.5,0,8.1c0.4,1.1,1.2,2.1,2.3,2.8c1,0.6,2.2,1,3.3,1s2.6-0.4,3.6-1.2c1-1,1.7-2.3,2-3.6l0,0L596,182.2z"/>
	<path class="st2" d="M590.3,206.7v-2.3h8.2v7.2c-1.2,1-2.5,1.7-3.9,2.3c-1.3,0.5-2.7,0.8-4.2,0.8s-3.5-0.4-5.2-1.2
		c-1.6-0.8-2.8-2-3.5-3.5c-0.8-1.6-1.2-3.4-1.2-5.2s0.3-3.6,1.2-5.3c0.7-1.6,1.9-2.9,3.4-3.6c1.6-0.8,3.3-1.2,5.1-1.2
		s2.6,0.2,3.8,0.7c1,0.3,2,1,2.7,1.9c0.7,1,1.2,2,1.5,3.2l-2.3,0.6c-0.3-0.9-0.6-1.6-1-2.3c-0.5-0.6-1.1-1-1.8-1.4
		c-0.9-0.3-1.7-0.5-2.7-0.5s-2.1,0.2-3,0.5c-0.8,0.3-1.5,0.8-2.1,1.4c-0.5,0.5-1,1.2-1.2,1.9c-0.5,1.2-0.8,2.6-0.8,3.9
		s0.3,2.9,0.9,4.3c0.5,1.1,1.5,2.1,2.6,2.6c1.1,0.6,2.3,0.9,3.6,0.9s2.3-0.3,3.2-0.6s1.6-0.8,2.4-1.4v-3.6h-5.6L590.3,206.7z"/>
	<path class="st2" d="M570.6,234.4L578,215h2.8l8,19.4h-2.9l-2.3-5.9h-8.1l-2.2,5.9H570.6L570.6,234.4z M576.2,226.5h6.5l-2-5.4
		c-0.6-1.6-1-2.9-1.4-4c-0.3,1.3-0.6,2.5-1,3.7L576.2,226.5L576.2,226.5z"/>
	<path class="st2" d="M565.7,237.7l2.6,0.7c-0.4,1.9-1.4,3.5-2.9,4.8c-1.5,1.1-3.3,1.7-5.2,1.6c-1.8,0-3.5-0.3-5.1-1.3
		c-1.4-0.9-2.4-2.2-2.9-3.7c-0.7-1.6-1-3.4-1-5.2s0.3-3.6,1.1-5.3c0.7-1.5,1.9-2.6,3.3-3.4c1.5-0.8,3-1.2,4.7-1.2s3.5,0.4,4.8,1.5
		s2.3,2.5,2.8,4.2l-2.5,0.6c-0.3-1.2-1-2.3-1.9-3.1c-1-0.7-2.1-1-3.2-1c-1.3,0-2.6,0.3-3.7,1c-1,0.7-1.7,1.7-2.1,2.9
		c-0.4,1.2-0.6,2.4-0.6,3.7s0.2,2.9,0.7,4.3c0.4,1.1,1.2,2.1,2.3,2.8c1,0.6,2.2,1,3.3,1s2.7-0.4,3.6-1.3
		C564.8,240.3,565.5,239,565.7,237.7L565.7,237.7L565.7,237.7z"/>
	<path class="st2" d="M539.3,225.2h2.6v11.2c0,1.6-0.2,3.1-0.7,4.7c-0.4,1.1-1.3,2.2-2.4,2.8c-1.4,0.8-2.9,1.1-4.5,1
		c-1.6,0-3-0.3-4.4-1c-1.1-0.6-2-1.6-2.5-2.7c-0.5-1.6-0.8-3.2-0.8-4.8v-11.2h2.6v11.2c0,1.3,0,2.5,0.4,3.7c0.3,0.8,0.9,1.5,1.6,1.8
		c0.9,0.4,1.8,0.7,2.8,0.6c1.9,0,3.2-0.4,4-1.3c0.8-0.9,1.2-2.5,1.2-4.9v-11.2l0,0L539.3,225.2z"/>
	<path class="st2" d="M519.1,215.1h2.6v11.2c0,1.6-0.2,3.1-0.7,4.7c-0.4,1.1-1.3,2.2-2.3,2.8c-1.4,0.8-2.9,1.1-4.5,1
		c-1.6,0-3-0.3-4.4-1c-1.1-0.6-2-1.6-2.5-2.7c-0.5-1.6-0.8-3.2-0.8-4.8v-11.2h2.6v11.2c0,1.2,0,2.5,0.4,3.7c0.3,0.8,0.9,1.5,1.6,1.8
		c0.9,0.4,1.8,0.7,2.8,0.7c1.9,0,3.2-0.4,4-1.3s1.2-2.5,1.2-4.9L519.1,215.1L519.1,215.1L519.1,215.1z"/>
	<path class="st0" d="M494.4,211.7v-2.3h8.2v7.2c-1.1,1-2.4,1.7-3.9,2.3c-1.3,0.5-2.7,0.8-4.2,0.8s-3.5-0.4-5.2-1.2
		c-1.6-0.8-2.8-2-3.5-3.5c-0.8-1.6-1.2-3.4-1.2-5.2s0.4-3.6,1.2-5.3c0.7-1.6,1.9-2.9,3.4-3.6c1.6-0.8,3.3-1.2,5.1-1.2
		s2.6,0.2,3.8,0.7c1,0.3,2,1,2.7,1.9c0.7,1,1.2,2,1.5,3.2l-2.3,0.6c-0.3-0.9-0.6-1.6-1.1-2.3c-0.5-0.6-1.1-1-1.8-1.4
		c-0.9-0.3-1.7-0.5-2.7-0.5s-2.1,0.2-3,0.5c-0.8,0.3-1.5,0.8-2.1,1.4c-0.5,0.5-1,1.2-1.2,1.9c-0.5,1.2-0.8,2.6-0.8,3.9
		s0.3,2.9,0.9,4.3c0.5,1.1,1.5,2.1,2.6,2.6c1.1,0.6,2.3,0.9,3.6,0.9s2.3-0.3,3.3-0.6c0.9-0.3,1.6-0.8,2.4-1.4v-3.6h-5.6L494.4,211.7
		z"/>
	<path class="st0" d="M478.6,199.8h2.6V211c0,1.6-0.2,3.1-0.7,4.7c-0.4,1.2-1.3,2.2-2.4,2.8c-1.4,0.8-2.9,1.1-4.5,1
		c-1.6,0-3-0.3-4.4-1c-1.1-0.6-2-1.6-2.5-2.7c-0.5-1.6-0.8-3.2-0.8-4.8v-11.2h2.6V211c0,1.3,0,2.5,0.4,3.7c0.3,0.8,0.9,1.5,1.6,1.8
		c0.9,0.4,1.8,0.7,2.8,0.7c1.9,0,3.2-0.4,4-1.3s1.2-2.5,1.2-4.9v-11.2l0,0H478.6z"/>
	<path class="st0" d="M459.4,212.5l2.6,0.7c-0.4,1.9-1.4,3.5-2.9,4.8c-1.5,1.1-3.3,1.7-5.1,1.6c-1.8,0-3.5-0.3-5.1-1.3
		c-1.4-0.9-2.4-2.2-2.9-3.7c-0.7-1.6-1-3.4-1-5.2s0.3-3.6,1.1-5.3c0.7-1.5,1.9-2.7,3.3-3.4c1.5-0.8,3-1.2,4.7-1.2s3.5,0.4,4.8,1.5
		s2.3,2.5,2.8,4.2l-2.5,0.6c-0.3-1.2-1-2.3-2-3.1c-1-0.7-2.1-1-3.2-1c-1.3,0-2.6,0.3-3.7,1c-1,0.7-1.7,1.7-2.1,2.9s-0.6,2.4-0.6,3.7
		s0.2,2.9,0.7,4.3c0.4,1.1,1.2,2.1,2.3,2.8c1,0.6,2.2,1,3.3,1s2.6-0.4,3.6-1.2C458.5,215.2,459.2,213.9,459.4,212.5L459.4,212.5
		L459.4,212.5z"/>
	<path class="st0" d="M434.2,211.7v-2.3h8.2v7.2c-1.1,1-2.5,1.7-3.9,2.3c-1.3,0.5-2.7,0.8-4.2,0.8s-3.5-0.4-5.2-1.2
		c-1.5-0.8-2.8-2-3.5-3.5c-0.8-1.6-1.2-3.4-1.2-5.2s0.4-3.6,1.2-5.3c0.7-1.6,1.9-2.9,3.4-3.6c1.6-0.8,3.3-1.2,5.1-1.2
		s2.6,0.3,3.8,0.7c1,0.3,2,1,2.7,1.9c0.7,1,1.2,2,1.5,3.2l-2.3,0.6c-0.2-0.9-0.6-1.6-1-2.3c-0.5-0.6-1.1-1-1.8-1.4
		c-0.9-0.3-1.7-0.5-2.7-0.5s-2.1,0.2-3,0.5c-0.8,0.3-1.5,0.8-2.1,1.4c-0.5,0.6-1,1.2-1.2,1.9c-0.5,1.2-0.8,2.6-0.8,3.9
		s0.3,2.9,0.9,4.3c0.5,1.1,1.5,2.1,2.6,2.6c1.1,0.6,2.3,0.9,3.6,0.9s2.3-0.3,3.3-0.6c0.9-0.3,1.6-0.8,2.4-1.4v-3.6L434.2,211.7
		L434.2,211.7L434.2,211.7z"/>
	<line class="st1" x1="433.3" y1="222.1" x2="433.3" y2="235.6"/>
	<path d="M419.3,255.5l1.9-0.3c0.1,0.9,0.5,1.7,1.2,2.5c0.6,0.5,1.3,0.7,2,0.7s1.7-0.4,2.4-0.9c0.6-0.6,1-1.5,0.9-2.4
		c0-0.9-0.3-1.7-0.9-2.2c-0.6-0.6-1.4-0.9-2.2-0.9c-0.5,0-0.9,0-1.4,0.2l0.2-1.7h0.3c0.8,0,1.6-0.2,2.2-0.6c0.6-0.4,1.1-1.2,1-2
		c0-0.6-0.2-1.3-0.7-1.8s-1.2-0.7-1.9-0.7s-1.4,0.2-1.9,0.7c-0.6,0.6-0.9,1.4-1,2.2l-2-0.4c0.1-1.2,0.7-2.3,1.7-3.1
		c0.9-0.7,2-1.2,3.2-1.1c0.9,0,1.7,0.2,2.5,0.6c0.7,0.4,1.3,0.9,1.7,1.6s0.6,1.4,0.6,2.1s-0.2,1.4-0.6,1.9c-0.4,0.6-1,1.1-1.7,1.4
		c0.9,0.1,1.7,0.6,2.2,1.4c0.6,0.7,0.8,1.7,0.8,2.6c0,1.4-0.5,2.7-1.5,3.6c-1.1,1-2.5,1.5-3.9,1.4c-1.3,0-2.5-0.4-3.5-1.3
		c-0.9-0.9-1.5-2-1.6-3.3l0,0L419.3,255.5z M431.8,251.9c0-1.6,0.1-3.1,0.6-4.6c0.3-1,0.9-1.9,1.7-2.7c0.9-0.6,1.9-1,2.9-0.9
		c0.8,0,1.6,0.1,2.2,0.5s1.2,0.9,1.6,1.5c0.4,0.7,0.8,1.5,1,2.4c0.3,1.2,0.4,2.5,0.4,3.8s-0.1,3.1-0.6,4.6c-0.3,1.1-0.9,1.9-1.7,2.7
		c-2,1.5-4.9,1.2-6.6-0.7c-1.1-1.4-1.6-3.5-1.6-6.6l0,0H431.8z M433.8,251.9c0,2.7,0.3,4.4,0.9,5.3c0.7,1.3,2.4,1.7,3.6,0.9
		c0.4-0.2,0.7-0.6,0.9-0.9c0.6-0.9,0.9-2.7,0.9-5.3s-0.3-4.4-0.9-5.3c-0.5-0.8-1.4-1.3-2.3-1.3s-1.7,0.4-2.2,1.2
		c-0.7,0.9-1,2.8-1,5.4l0,0L433.8,251.9z"/>
	<path class="st0" d="M419.3,212.5l2.6,0.7c-0.4,1.9-1.4,3.5-2.9,4.8c-1.5,1.1-3.3,1.7-5.1,1.6c-1.8,0-3.5-0.3-5.1-1.3
		c-1.4-0.9-2.4-2.2-2.9-3.7c-0.7-1.6-1-3.4-1-5.2s0.3-3.6,1.1-5.3c0.7-1.5,1.9-2.7,3.3-3.4c1.5-0.8,3-1.2,4.7-1.2s3.5,0.4,4.8,1.5
		s2.3,2.5,2.8,4.2l-2.5,0.6c-0.3-1.2-1-2.3-1.9-3.1c-1-0.7-2.1-1-3.2-1c-1.3,0-2.6,0.3-3.7,1c-1,0.7-1.7,1.7-2.1,2.9
		s-0.6,2.4-0.6,3.7s0.2,2.9,0.7,4.3c0.4,1.1,1.2,2.1,2.3,2.8c1,0.6,2.2,1,3.3,1s2.6-0.4,3.6-1.2c1-1,1.8-2.3,2-3.7l0,0L419.3,212.5z
		"/>
	<line class="st3" x1="413.1" y1="180.3" x2="413.1" y2="196.6"/>
	<line class="st3" x1="433.3" y1="180.3" x2="433.3" y2="196.6"/>
	<line class="st3" x1="453.5" y1="180.3" x2="453.5" y2="196.6"/>
	<line class="st3" x1="493.9" y1="180.3" x2="493.9" y2="196.6"/>
	<line class="st3" x1="473.6" y1="197.5" x2="473.6" y2="179.3"/>
	<g>
		<text transform="matrix(1 0 0 1 164.4001 180.6)" class="st4 st5">5’</text>
	</g>
	<g>
		<text transform="matrix(1 0 0 1 381.8001 218.7)" class="st4 st6">3’</text>
	</g>
</g>
<text transform="matrix(1 0 0 1 330.0252 64.187)" class="st4 st7">cAMP-b aptamer</text>
</svg>
