<svg id="_图层_1" data-name=" 图层 1" xmlns="http://www.w3.org/2000/svg" viewBox="0 0 800 400"><defs><style>.cls-1,.cls-11{fill:none;stroke-miterlimit:10;}.cls-1{stroke:#000;}.cls-10,.cls-12,.cls-2,.cls-3,.cls-4,.cls-5,.cls-6,.cls-7,.cls-8{isolation:isolate;font-family:ArialMT, Arial;}.cls-2,.cls-3,.cls-4,.cls-5,.cls-6,.cls-7{font-size:19.35px;}.cls-2,.cls-5{fill:#b83233;}.cls-3,.cls-4{fill:#084595;}.cls-4,.cls-5,.cls-6{letter-spacing:-0.06em;}.cls-6,.cls-7{fill:#cf3e7d;}.cls-12,.cls-8{font-size:20px;}.cls-10,.cls-8{fill:#242424;}.cls-9{letter-spacing:-0.04em;}.cls-10{font-size:12.9px;}.cls-11{stroke:#242424;}.cls-13{letter-spacing:-0.07em;}</style></defs><line class="cls-1" x1="256.5" y1="157.2" x2="256.5" y2="140.9"/><line class="cls-1" x1="278.7" y1="157.2" x2="278.7" y2="140.9"/><line class="cls-1" x1="300.8" y1="157.2" x2="300.8" y2="140.9"/><line class="cls-1" x1="323" y1="157.2" x2="323" y2="140.9"/><line class="cls-1" x1="345.1" y1="157.2" x2="345.1" y2="140.9"/><line class="cls-1" x1="367.5" y1="157.2" x2="367.5" y2="140.9"/><line class="cls-1" x1="389.6" y1="157.2" x2="389.6" y2="140.9"/><line class="cls-1" x1="411.8" y1="157.2" x2="411.8" y2="140.9"/><line class="cls-1" x1="504.5" y1="156.8" x2="504.5" y2="140.8"/><line class="cls-1" x1="483.2" y1="157.2" x2="483.2" y2="140.9"/><line class="cls-1" x1="528.2" y1="156.8" x2="528.2" y2="140.8"/><line class="cls-1" x1="549" y1="156.8" x2="549" y2="140.8"/><line class="cls-1" x1="571.2" y1="156.8" x2="571.2" y2="140.8"/><line class="cls-1" x1="593.3" y1="156.8" x2="593.3" y2="140.8"/><line class="cls-1" x1="615.5" y1="156.8" x2="615.5" y2="140.8"/><line class="cls-1" x1="637.7" y1="156.8" x2="637.7" y2="140.8"/><line class="cls-1" x1="660" y1="156.8" x2="660" y2="140.8"/><line class="cls-1" x1="191.5" y1="252.2" x2="184.4" y2="245.1"/><line class="cls-1" x1="121.4" y1="365.9" x2="114.3" y2="358.8"/><line class="cls-1" x1="262" y1="252.2" x2="254.9" y2="245.1"/><line class="cls-1" x1="180.2" y1="266.1" x2="173.1" y2="258.9"/><line class="cls-1" x1="164.3" y1="282.9" x2="157.4" y2="275.8"/><line class="cls-1" x1="148.8" y1="298.1" x2="141.7" y2="291"/><text class="cls-2" transform="translate(249.84 137.92)">G</text><text class="cls-2" transform="translate(271.66 137.92)">G</text><text class="cls-2" transform="translate(293.49 137.92)">G</text><text class="cls-2" transform="translate(315.86 137.38)">U</text><text class="cls-2" transform="translate(337.68 137.38)">C</text><text class="cls-2" transform="translate(358.97 137.92)">G</text><text class="cls-2" transform="translate(381.34 137.38)">U</text><text class="cls-2" transform="translate(403.16 137.38)">C</text><text class="cls-3" transform="translate(415.53 123.53)">G</text><text class="cls-3" transform="translate(430.78 117.04)">C</text><text class="cls-3" transform="translate(449.26 117.58)">G</text><text class="cls-3" transform="translate(464.47 125.68)">G</text><text class="cls-3" transform="translate(476.21 137.92)">G</text><text class="cls-3" transform="translate(498.58 137.38)">U</text><text class="cls-3" transform="translate(520.24 137.38)">U</text><text class="cls-3" transform="translate(541.69 137.92)">G</text><text class="cls-3" transform="translate(563.52 137.92)">G</text><text class="cls-3" transform="translate(585.89 137.38)">C</text><text class="cls-3" transform="translate(607.71 137.38)">U</text><text class="cls-3" transform="translate(629.38 137.38)">C</text><text class="cls-3" transform="translate(650.83 137.92)">G</text><text class="cls-3" transform="translate(669.06 129.77)">U</text><text class="cls-4" transform="translate(688.94 141.65)">A</text><text class="cls-3" transform="translate(693.82 160.08)">G</text><text class="cls-4" transform="translate(684.64 175.05)">A</text><text class="cls-3" transform="translate(669.06 182.52)">U</text><text class="cls-3" transform="translate(651.37 172.11)">C</text><text class="cls-3" transform="translate(628.84 172.64)">G</text><text class="cls-3" transform="translate(607.17 172.64)">G</text><text class="cls-3" transform="translate(585.35 172.64)">G</text><text class="cls-3" transform="translate(564.06 172.11)">C</text><text class="cls-3" transform="translate(542.23 172.11)">C</text><text class="cls-3" transform="translate(519.7 172.64)">G</text><text class="cls-3" transform="translate(497.87 172.64)">G</text><text class="cls-3" transform="translate(476.75 172.11)">U</text><text class="cls-4" transform="translate(463.39 185.96)">A</text><text class="cls-3" transform="translate(439.21 190.29)">C</text><text class="cls-4" transform="translate(418.08 185.96)">A</text><text class="cls-2" transform="translate(402.63 172.64)">G</text><text class="cls-5" transform="translate(381.87 171.58)">A</text><text class="cls-2" transform="translate(359.51 172.11)">C</text><text class="cls-2" transform="translate(337.15 172.64)">G</text><text class="cls-5" transform="translate(316.39 171.58)">A</text><text class="cls-2" transform="translate(294.03 172.11)">C</text><text class="cls-2" transform="translate(272.2 172.11)">C</text><text class="cls-2" transform="translate(250.37 172.11)">C</text><text class="cls-6" transform="translate(248.02 193.96)">A</text><text class="cls-7" transform="translate(258.11 210.66)">G</text><text class="cls-6" transform="translate(254.3 230.34)">A</text><text class="cls-7" transform="translate(239.42 244.23)">C</text><text class="cls-7" transform="translate(223.38 252.83)">G</text><text class="cls-6" transform="translate(208.99 256.63)">A</text><text class="cls-7" transform="translate(193.62 266.06)">C</text><text class="cls-7" transform="translate(180.39 277.63)">U</text><text class="cls-7" transform="translate(164.84 293.01)">C</text><text class="cls-7" transform="translate(149.46 308.39)">G</text><text class="cls-7" transform="translate(147.48 323.77)">C</text><text class="cls-7" transform="translate(139.87 342.45)">U</text><text class="cls-7" transform="translate(124.17 352.04)">G</text><text class="cls-6" transform="translate(106.8 356.18)">A</text><text class="cls-7" transform="translate(87.95 349.89)">G</text><text class="cls-7" transform="translate(77.37 327.9)">G</text><text class="cls-6" transform="translate(79.85 308.39)">A</text><text class="cls-7" transform="translate(94.4 295.66)">U</text><text class="cls-7" transform="translate(111.6 285.57)">C</text><text class="cls-7" transform="translate(128.96 287.22)">C</text><text class="cls-7" transform="translate(144.34 271.84)">G</text><text class="cls-6" transform="translate(159.72 256.47)">A</text><text class="cls-7" transform="translate(169.31 244.23)">G</text><text class="cls-6" transform="translate(174.93 222.9)">A</text><text class="cls-8" transform="translate(232.94 127.79)">5<tspan class="cls-9" x="11.12" y="0">’</tspan></text><text class="cls-10" transform="translate(428.04 84.01)">10</text><text class="cls-10" transform="translate(627.47 101.78)">20</text><line class="cls-11" x1="635.7" y1="105.9" x2="635.7" y2="120.9"/><line class="cls-11" x1="435.8" y1="86.1" x2="435.8" y2="101.2"/><text class="cls-10" transform="translate(587.29 206.29)">30</text><line class="cls-11" x1="595.3" y1="193.2" x2="595.3" y2="178.2"/><text class="cls-10" transform="translate(380.75 204.97)">40</text><line class="cls-11" x1="388.8" y1="189.1" x2="388.8" y2="174"/><text class="cls-10" transform="translate(263.56 259.77)">50</text><text class="cls-10" transform="translate(124.17 378.67)">60</text><text class="cls-8" transform="translate(164.3 206.29)">3<tspan class="cls-9" x="11.12" y="0">’</tspan></text><text class="cls-12" transform="translate(317.38 28.84)">MF<tspan class="cls-13" x="28.88" y="0">1</tspan><tspan x="38.52" y="0">1.46 aptamer</tspan></text></svg>