<?xml version="1.0" encoding="utf-8"?>
<!-- Generator: Adobe Illustrator 25.2.0, SVG Export Plug-In . SVG Version: 6.00 Build 0)  -->
<svg version="1.1" id="图层_1" xmlns="http://www.w3.org/2000/svg" xmlns:xlink="http://www.w3.org/1999/xlink" x="0px" y="0px"
	 viewBox="0 0 400 400" style="enable-background:new 0 0 400 400;" xml:space="preserve">
<style type="text/css">
	.st0{fill:none;stroke:#000000;stroke-miterlimit:1.11;}
	.st1{font-family:'ArialMT';}
	.st2{font-size:20px;}
	.st3{fill:#2EA103;}
	.st4{font-size:27.19px;}
	.st5{letter-spacing:-1;}
</style>
<g id="ID000012">
	<line class="st0" x1="321.9" y1="199.6" x2="339.7" y2="199.8"/>
</g>
<g id="ID000013">
	<text transform="matrix(1 0 0 1 345.21 210.58)" class="st1 st2">10</text>
</g>
<g id="ID000093">
	<text transform="matrix(1 0 0 1 109.06 179.49)" class="st3 st1 st4 st5">A</text>
</g>
<g id="ID000094">
	<text transform="matrix(1 0 0 1 136.56 179.49)" class="st3 st1 st4">G</text>
</g>
<g id="ID000095">
	<text transform="matrix(1 0 0 1 163.32 179.49)" class="st3 st1 st4 st5">A</text>
</g>
<g id="ID000096">
	<text transform="matrix(1 0 0 1 190.07 179.49)" class="st3 st1 st4 st5">A</text>
</g>
<g id="ID000097">
	<g>
		<text transform="matrix(1 0 0 1 212.54 162.5)" class="st3 st1 st4 st5">C</text>
	</g>
</g>
<g id="ID000098">
	<g>
		<text transform="matrix(1 0 0 1 240.37 153.9)" class="st3 st1 st4 st5">G</text>
	</g>
</g>
<g id="ID000099">
	<g>
		<text transform="matrix(1 0 0 1 273.87 159.69)" class="st3 st1 st4 st5">U</text>
	</g>
</g>
<g id="ID000100">
	<g>
		<text transform="matrix(1 0 0 1 289.73 177.69)" class="st3 st1 st4 st5">A</text>
	</g>
</g>
<g id="ID000103">
	<g>
		<text transform="matrix(1 0 0 1 259.88 250.51)" class="st3 st1 st4 st5">C</text>
	</g>
</g>
<g id="ID000104">
	<g>
		<text transform="matrix(1 0 0 1 233.89 254.48)" class="st3 st1 st4 st5">U</text>
	</g>
</g>
<g id="ID000105">
	<g>
		<text transform="matrix(1 0 0 1 210.71 241.03)" class="st3 st1 st4 st5">A</text>
	</g>
</g>
<g id="ID000107">
	<g>
		<text transform="matrix(1 0 0 1 190.82 233)" class="st3 st1 st4">U</text>
	</g>
</g>
<g id="ID000108">
	<g>
		<text transform="matrix(1 0 0 1 162.55 233)" class="st3 st1 st4">U</text>
	</g>
</g>
<g id="ID000109">
	<g>
		<text transform="matrix(1 0 0 1 137.31 233)" class="st3 st1 st4">C</text>
	</g>
</g>
<g id="ID000110">
	<g>
		<text transform="matrix(1 0 0 1 109.81 233)" class="st3 st1 st4">U</text>
	</g>
</g>
<g id="ID000118">
	<line class="st0" x1="119.6" y1="182.7" x2="119.6" y2="210.3"/>
</g>
<g id="ID000119">
	<line class="st0" x1="146.4" y1="182.7" x2="146.4" y2="210.3"/>
</g>
<g id="ID000120">
	<line class="st0" x1="173.1" y1="182.7" x2="173.1" y2="210.3"/>
</g>
<g id="ID000121">
	<line class="st0" x1="199.9" y1="182.7" x2="199.9" y2="210.3"/>
</g>
<g>
	<text transform="matrix(1 0 0 1 58.34 160.02)" class="st1 st2">5</text>
	<text transform="matrix(1 0 0 1 75.84 160.02)" class="st1 st2 st5">’</text>
</g>
<g>
	<text transform="matrix(1 0 0 1 59.66 262.26)" class="st1 st2">3</text>
	<text transform="matrix(1 0 0 1 77.16 262.26)" class="st1 st2 st5">’</text>
</g>
<g id="ID000110-2">
	<text transform="matrix(1 0 0 1 82.61 179.49)" class="st3 st1 st4">C</text>
</g>
<g id="ID000110-3">
	<g>
		<text transform="matrix(1 0 0 1 84.05 233)" class="st3 st1 st4">G</text>
	</g>
</g>
<g id="ID000118-2">
	<line class="st0" x1="94.2" y1="183" x2="94.2" y2="210.6"/>
</g>
<g id="ID000099-2">
	<g>
		<text transform="matrix(1 0 0 1 296.37 210.26)" class="st3 st1 st4 st5">U</text>
	</g>
</g>
<g id="ID000100-2">
	<g>
		<text transform="matrix(1 0 0 1 288.13 235.01)" class="st3 st1 st4 st5">A</text>
	</g>
</g>
<text transform="matrix(1 0 0 1 105.297 81.4117)" class="st1 st2">CD133-B19 aptamer</text>
</svg>
