<?xml version="1.0" encoding="utf-8"?>
<!-- Generator: Adobe Illustrator 25.2.0, SVG Export Plug-In . SVG Version: 6.00 Build 0)  -->
<svg version="1.1" id="图层_1" xmlns="http://www.w3.org/2000/svg" xmlns:xlink="http://www.w3.org/1999/xlink" x="0px" y="0px"
	 viewBox="0 0 400 400" style="enable-background:new 0 0 400 400;" xml:space="preserve">
<style type="text/css">
	.st0{fill:none;stroke:#000000;stroke-miterlimit:1.11;}
	.st1{font-family:'ArialMT';}
	.st2{font-size:20px;}
	.st3{fill:#B83233;}
	.st4{font-size:32.99px;}
</style>
<g id="ID000012">
	<line class="st0" x1="277.8" y1="260.7" x2="277.8" y2="282.4"/>
</g>
<g id="ID000013">
	<text transform="matrix(1 0 0 1 266.7336 316.7384)" class="st1 st2">10</text>
</g>
<g id="ID000093">
	<text transform="matrix(1 0 0 1 101.5736 171.9184)" class="st3 st1 st4">C</text>
</g>
<g id="ID000094">
	<text transform="matrix(1 0 0 1 134.9436 171.9184)" class="st3 st1 st4">C</text>
</g>
<g id="ID000095">
	<text transform="matrix(1 0 0 1 167.4236 171.9184)" class="st3 st1 st4">C</text>
</g>
<g id="ID000096">
	<text transform="matrix(1 0 0 1 199.8836 171.9184)" class="st3 st1 st4">U</text>
</g>
<g id="ID000097">
	<text transform="matrix(1 0 0 1 232.3436 155.6884)" class="st3 st1 st4">C</text>
</g>
<g id="ID000098">
	<g>
		<text transform="matrix(1 0 0 1 265.1336 147.5584)" class="st3 st1 st4">C</text>
	</g>
</g>
<g id="ID000099">
	<g>
		<text transform="matrix(1 0 0 1 294.7036 166.7484)" class="st3 st1 st4">U</text>
	</g>
</g>
<g id="ID000100">
	<g>
		<text transform="matrix(1 0 0 1 309.1836 201.7184)" class="st3 st1 st4">A</text>
	</g>
</g>
<g id="ID000103">
	<g>
		<text transform="matrix(1 0 0 1 297.3036 242.0384)" class="st3 st1 st4">C</text>
	</g>
</g>
<g id="ID000104">
	<g>
		<text transform="matrix(1 0 0 1 233.9936 248.6484)" class="st3 st1 st4">U</text>
	</g>
</g>
<g id="ID000105">
	<g>
		<text transform="matrix(1 0 0 1 266.7836 258.6184)" class="st3 st1 st4">A</text>
	</g>
</g>
<g id="ID000107">
	<g>
		<text transform="matrix(1 0 0 1 200.7936 236.8484)" class="st3 st1 st4">A</text>
	</g>
</g>
<g id="ID000108">
	<g>
		<text transform="matrix(1 0 0 1 166.4936 236.8484)" class="st3 st1 st4">G</text>
	</g>
</g>
<g id="ID000109">
	<g>
		<text transform="matrix(1 0 0 1 135.8536 236.8484)" class="st3 st1 st4">G</text>
	</g>
</g>
<g id="ID000110">
	<g>
		<text transform="matrix(1 0 0 1 102.4836 236.8484)" class="st3 st1 st4">G</text>
	</g>
</g>
<g id="ID000118">
	<line class="st0" x1="114.4" y1="175.8" x2="114.4" y2="209.2"/>
</g>
<g id="ID000119">
	<line class="st0" x1="146.9" y1="175.8" x2="146.9" y2="209.2"/>
</g>
<g id="ID000120">
	<line class="st0" x1="179.3" y1="175.8" x2="179.3" y2="209.2"/>
</g>
<g id="ID000121">
	<line class="st0" x1="211.8" y1="175.8" x2="211.8" y2="209.2"/>
</g>
<text transform="matrix(1 0 0 1 116.8725 80.4562)" class="st1 st2">CD133-A15 aptamer</text>
<text transform="matrix(1 0 0 1 81.1736 260.9584)" class="st1 st2">3</text>
<text transform="matrix(1 0 0 1 92.2936 260.9584)" class="st1 st2">’</text>
<text transform="matrix(1 0 0 1 81.1736 155.6884)" class="st1 st2">5</text>
<text transform="matrix(1 0 0 1 92.2936 155.6884)" class="st1 st2">’</text>
</svg>
