<?xml version="1.0" encoding="utf-8"?>
<!-- Generator: Adobe Illustrator 25.2.0, SVG Export Plug-In . SVG Version: 6.00 Build 0)  -->
<svg version="1.1" id="_图层_1" xmlns="http://www.w3.org/2000/svg" xmlns:xlink="http://www.w3.org/1999/xlink" x="0px" y="0px"
	 viewBox="0 0 800 400" style="enable-background:new 0 0 800 400;" xml:space="preserve">
<style type="text/css">
	.st0{fill:#7F7F7F;}
	.st1{fill:none;stroke:#000000;stroke-width:0.5;stroke-linejoin:round;}
	.st2{fill:#FFAADC;}
	.st3{fill:none;stroke:#000000;stroke-width:0.5;stroke-linecap:square;stroke-miterlimit:10;}
	.st4{font-family:'ArialMT';}
	.st5{font-size:20px;}
</style>
<g>
	<g>
		<defs>
			<rect id="SVGID_1_" x="-16.1" y="-55.4" width="781.5" height="586.1"/>
		</defs>
		<clipPath id="SVGID_2_">
			<use xlink:href="#SVGID_1_"  style="overflow:visible;"/>
		</clipPath>
	</g>
	<path class="st0" d="M220.7,360.4l0.5,1.9h1.3v-7.9h-6.5v1.7h4.8c0,0.7-0.1,1.3-0.3,1.9c-0.2,0.6-0.5,1.1-0.9,1.5
		c-0.4,0.4-0.9,0.8-1.5,1c-0.6,0.3-1.3,0.4-2.1,0.4c-0.8,0-1.6-0.2-2.2-0.5c-0.6-0.3-1.2-0.8-1.6-1.3c-0.4-0.5-0.8-1.2-1-1.9
		s-0.3-1.5-0.3-2.2c0-0.8,0.1-1.6,0.3-2.3c0.2-0.8,0.5-1.4,0.9-2c0.4-0.6,0.9-1.1,1.6-1.4c0.7-0.4,1.4-0.5,2.3-0.5
		c0.6,0,1.1,0.1,1.6,0.2c0.5,0.1,0.9,0.3,1.3,0.6c0.4,0.3,0.7,0.6,1,1c0.3,0.4,0.4,0.9,0.5,1.5h2c-0.1-0.9-0.4-1.6-0.8-2.2
		c-0.4-0.6-0.9-1.1-1.4-1.5c-0.6-0.4-1.2-0.7-1.9-0.9c-0.7-0.2-1.5-0.3-2.3-0.3c-1.2,0-2.2,0.2-3.1,0.7c-0.9,0.4-1.6,1-2.2,1.8
		c-0.6,0.7-1,1.6-1.3,2.6s-0.4,2-0.4,3.1c0,1,0.2,1.9,0.5,2.8s0.8,1.7,1.4,2.4c0.6,0.7,1.4,1.3,2.2,1.7c0.9,0.4,1.9,0.6,3,0.6
		c0.9,0,1.7-0.2,2.6-0.5C219.4,361.8,220.1,361.2,220.7,360.4L220.7,360.4z"/>
	<path class="st0" d="M238.2,360.4l0.5,1.9h1.3v-7.9h-6.5v1.7h4.8c0,0.7-0.1,1.3-0.3,1.9c-0.2,0.6-0.5,1.1-0.9,1.5
		c-0.4,0.4-0.9,0.8-1.5,1c-0.6,0.3-1.3,0.4-2.1,0.4c-0.8,0-1.6-0.2-2.2-0.5c-0.6-0.3-1.2-0.8-1.6-1.3c-0.4-0.5-0.8-1.2-1-1.9
		s-0.3-1.5-0.3-2.2c0-0.8,0.1-1.6,0.3-2.3c0.2-0.8,0.5-1.4,0.9-2c0.4-0.6,0.9-1.1,1.6-1.4c0.7-0.4,1.4-0.5,2.3-0.5
		c0.6,0,1.1,0.1,1.6,0.2c0.5,0.1,0.9,0.3,1.3,0.6c0.4,0.3,0.7,0.6,1,1c0.3,0.4,0.4,0.9,0.5,1.5h2c-0.1-0.9-0.4-1.6-0.8-2.2
		c-0.4-0.6-0.9-1.1-1.4-1.5c-0.6-0.4-1.2-0.7-1.9-0.9c-0.7-0.2-1.5-0.3-2.3-0.3c-1.2,0-2.2,0.2-3.1,0.7c-0.9,0.4-1.6,1-2.2,1.8
		c-0.6,0.7-1,1.6-1.3,2.6s-0.4,2-0.4,3.1c0,1,0.2,1.9,0.5,2.8s0.8,1.7,1.4,2.4c0.6,0.7,1.4,1.3,2.2,1.7c0.9,0.4,1.9,0.6,3,0.6
		c0.9,0,1.7-0.2,2.6-0.5C236.9,361.8,237.6,361.2,238.2,360.4L238.2,360.4z"/>
	<path class="st0" d="M251.3,360.4l0.5,1.9h1.3v-7.9h-6.5v1.7h4.8c0,0.7-0.1,1.3-0.3,1.9c-0.2,0.6-0.5,1.1-0.9,1.5
		c-0.4,0.4-0.9,0.8-1.5,1s-1.3,0.4-2.1,0.4c-0.8,0-1.6-0.2-2.2-0.5c-0.6-0.3-1.2-0.8-1.6-1.3c-0.4-0.5-0.8-1.2-1-1.9
		c-0.2-0.7-0.3-1.5-0.3-2.2c0-0.8,0.1-1.6,0.3-2.3c0.2-0.8,0.5-1.4,0.9-2c0.4-0.6,0.9-1.1,1.6-1.4c0.7-0.4,1.4-0.5,2.3-0.5
		c0.6,0,1.1,0.1,1.6,0.2c0.5,0.1,0.9,0.3,1.3,0.6c0.4,0.3,0.7,0.6,1,1c0.3,0.4,0.4,0.9,0.5,1.5h2c-0.1-0.9-0.4-1.6-0.8-2.2
		c-0.4-0.6-0.9-1.1-1.4-1.5c-0.6-0.4-1.2-0.7-1.9-0.9c-0.7-0.2-1.5-0.3-2.3-0.3c-1.2,0-2.2,0.2-3.1,0.7c-0.9,0.4-1.6,1-2.2,1.8
		c-0.6,0.7-1,1.6-1.3,2.6s-0.4,2-0.4,3.1c0,1,0.2,1.9,0.5,2.8c0.3,0.9,0.8,1.7,1.4,2.4c0.6,0.7,1.4,1.3,2.2,1.7
		c0.9,0.4,1.9,0.6,3,0.6c0.9,0,1.7-0.2,2.6-0.5C250,361.8,250.7,361.2,251.3,360.4L251.3,360.4z"/>
	<path class="st0" d="M257.2,356.1l2.5-7h0l2.5,7H257.2z M258.7,347.3l-5.8,14.9h2l1.7-4.5h6.3l1.6,4.5h2.2l-5.8-14.9H258.7
		L258.7,347.3z"/>
	<path class="st0" d="M277.5,360.4l0.5,1.9h1.3v-7.9h-6.5v1.7h4.8c0,0.7-0.1,1.3-0.3,1.9c-0.2,0.6-0.5,1.1-0.9,1.5
		c-0.4,0.4-0.9,0.8-1.5,1s-1.3,0.4-2.1,0.4c-0.8,0-1.6-0.2-2.2-0.5c-0.6-0.3-1.2-0.8-1.6-1.3c-0.4-0.5-0.8-1.2-1-1.9
		s-0.3-1.5-0.3-2.2c0-0.8,0.1-1.6,0.3-2.3c0.2-0.8,0.5-1.4,0.9-2c0.4-0.6,0.9-1.1,1.6-1.4c0.7-0.4,1.4-0.5,2.3-0.5
		c0.6,0,1.1,0.1,1.6,0.2c0.5,0.1,0.9,0.3,1.3,0.6c0.4,0.3,0.7,0.6,1,1c0.3,0.4,0.4,0.9,0.5,1.5h2c-0.1-0.9-0.4-1.6-0.8-2.2
		c-0.4-0.6-0.9-1.1-1.4-1.5c-0.6-0.4-1.2-0.7-1.9-0.9c-0.7-0.2-1.5-0.3-2.3-0.3c-1.2,0-2.2,0.2-3.1,0.7c-0.9,0.4-1.6,1-2.2,1.8
		c-0.6,0.7-1,1.6-1.3,2.6c-0.3,1-0.4,2-0.4,3.1c0,1,0.2,1.9,0.5,2.8c0.3,0.9,0.8,1.7,1.4,2.4c0.6,0.7,1.4,1.3,2.2,1.7
		c0.9,0.4,1.9,0.6,3,0.6c0.9,0,1.7-0.2,2.6-0.5C276.2,361.8,276.9,361.2,277.5,360.4L277.5,360.4z"/>
	<path class="st0" d="M290.6,360.4l0.5,1.9h1.3v-7.9h-6.5v1.7h4.8c0,0.7-0.1,1.3-0.3,1.9c-0.2,0.6-0.5,1.1-0.9,1.5
		c-0.4,0.4-0.9,0.8-1.5,1s-1.3,0.4-2.1,0.4c-0.8,0-1.6-0.2-2.2-0.5c-0.6-0.3-1.2-0.8-1.6-1.3c-0.4-0.5-0.8-1.2-1-1.9
		s-0.3-1.5-0.3-2.2c0-0.8,0.1-1.6,0.3-2.3c0.2-0.8,0.5-1.4,0.9-2c0.4-0.6,0.9-1.1,1.6-1.4c0.7-0.4,1.4-0.5,2.3-0.5
		c0.6,0,1.1,0.1,1.6,0.2c0.5,0.1,0.9,0.3,1.3,0.6c0.4,0.3,0.7,0.6,1,1c0.3,0.4,0.4,0.9,0.5,1.5h2c-0.1-0.9-0.4-1.6-0.8-2.2
		c-0.4-0.6-0.9-1.1-1.4-1.5c-0.6-0.4-1.2-0.7-1.9-0.9c-0.7-0.2-1.5-0.3-2.3-0.3c-1.2,0-2.2,0.2-3.1,0.7c-0.9,0.4-1.6,1-2.2,1.8
		c-0.6,0.7-1,1.6-1.3,2.6c-0.3,1-0.4,2-0.4,3.1c0,1,0.2,1.9,0.5,2.8c0.3,0.9,0.8,1.7,1.4,2.4c0.6,0.7,1.4,1.3,2.2,1.7
		c0.9,0.4,1.9,0.6,3,0.6c0.9,0,1.7-0.2,2.6-0.5C289.3,361.8,290,361.2,290.6,360.4L290.6,360.4z"/>
	<path class="st0" d="M296.5,356.1l2.5-7h0l2.5,7H296.5z M298,347.3l-5.8,14.9h2l1.7-4.5h6.3l1.6,4.5h2.2l-5.8-14.9H298L298,347.3z"
		/>
	<path class="st0" d="M316.9,351.8h2c-0.1-0.8-0.3-1.5-0.7-2.1c-0.4-0.6-0.8-1.1-1.4-1.5c-0.5-0.4-1.2-0.7-1.9-0.9s-1.4-0.3-2.2-0.3
		c-1.1,0-2.2,0.2-3,0.6c-0.9,0.4-1.6,1-2.2,1.7c-0.6,0.7-1,1.5-1.4,2.5c-0.3,1-0.5,2-0.5,3.1s0.1,2.1,0.4,3.1
		c0.3,0.9,0.7,1.8,1.3,2.5c0.6,0.7,1.3,1.2,2.2,1.6c0.9,0.4,1.9,0.6,3,0.6c1.9,0,3.4-0.5,4.5-1.6s1.8-2.5,1.9-4.4h-2
		c0,0.6-0.2,1.2-0.4,1.7c-0.2,0.5-0.5,1-0.9,1.4c-0.4,0.4-0.8,0.7-1.3,0.9c-0.5,0.2-1.1,0.3-1.7,0.3c-0.9,0-1.7-0.2-2.3-0.5
		c-0.6-0.3-1.2-0.8-1.6-1.4c-0.4-0.6-0.7-1.2-0.9-2c-0.2-0.8-0.3-1.6-0.3-2.4c0-0.8,0.1-1.5,0.3-2.3c0.2-0.7,0.5-1.4,0.9-1.9
		c0.4-0.6,0.9-1,1.6-1.4c0.6-0.3,1.4-0.5,2.3-0.5c1,0,2,0.3,2.7,0.8C316.2,350,316.7,350.8,316.9,351.8L316.9,351.8z"/>
	<path class="st0" d="M334.3,360.4l0.5,1.9h1.3v-7.9h-6.5v1.7h4.8c0,0.7-0.1,1.3-0.3,1.9c-0.2,0.6-0.5,1.1-0.9,1.5
		c-0.4,0.4-0.9,0.8-1.5,1c-0.6,0.3-1.3,0.4-2.1,0.4c-0.8,0-1.6-0.2-2.2-0.5c-0.6-0.3-1.2-0.8-1.6-1.3c-0.4-0.5-0.8-1.2-1-1.9
		c-0.2-0.7-0.3-1.5-0.3-2.2c0-0.8,0.1-1.6,0.3-2.3c0.2-0.8,0.5-1.4,0.9-2c0.4-0.6,0.9-1.1,1.6-1.4c0.7-0.4,1.4-0.5,2.3-0.5
		c0.6,0,1.1,0.1,1.6,0.2c0.5,0.1,0.9,0.3,1.3,0.6c0.4,0.3,0.7,0.6,1,1c0.3,0.4,0.4,0.9,0.5,1.5h2c-0.1-0.9-0.4-1.6-0.8-2.2
		c-0.4-0.6-0.9-1.1-1.4-1.5c-0.6-0.4-1.2-0.7-1.9-0.9c-0.7-0.2-1.5-0.3-2.3-0.3c-1.2,0-2.2,0.2-3.1,0.7c-0.9,0.4-1.6,1-2.2,1.8
		c-0.6,0.7-1,1.6-1.3,2.6c-0.3,1-0.4,2-0.4,3.1c0,1,0.2,1.9,0.5,2.8c0.3,0.9,0.8,1.7,1.4,2.4c0.6,0.7,1.4,1.3,2.2,1.7
		c0.9,0.4,1.9,0.6,3,0.6c0.9,0,1.7-0.2,2.6-0.5C333,361.8,333.7,361.2,334.3,360.4L334.3,360.4z"/>
	<path class="st0" d="M344.6,356.1l2.5-7h0l2.5,7H344.6z M346.1,347.3l-5.8,14.9h2l1.7-4.5h6.3l1.6,4.5h2.2l-5.8-14.9H346.1
		L346.1,347.3z"/>
	<line class="st1" x1="347.4" y1="343" x2="347.4" y2="331.3"/>
	<path d="M343,325.7v-14.8h-1.4c-0.1,0.6-0.3,1-0.5,1.4c-0.3,0.4-0.6,0.7-1,0.9s-0.8,0.3-1.3,0.4c-0.5,0.1-1,0.1-1.5,0.1v1.4h3.9
		v10.6L343,325.7L343,325.7z M349.9,318.4c0-0.4,0-0.8,0-1.2c0-0.4,0-0.9,0.1-1.3c0.1-0.4,0.2-0.9,0.3-1.3c0.1-0.4,0.3-0.8,0.5-1.1
		c0.2-0.3,0.5-0.6,0.9-0.8c0.3-0.2,0.8-0.3,1.3-0.3c0.5,0,0.9,0.1,1.3,0.3c0.3,0.2,0.6,0.4,0.9,0.8c0.2,0.3,0.4,0.7,0.5,1.1
		c0.1,0.4,0.2,0.9,0.3,1.3c0.1,0.4,0.1,0.9,0.1,1.3c0,0.4,0,0.8,0,1.2c0,0.6,0,1.2-0.1,1.9c0,0.7-0.1,1.3-0.3,1.9
		c-0.2,0.6-0.5,1.1-0.9,1.5c-0.4,0.4-1,0.6-1.8,0.6c-0.8,0-1.3-0.2-1.8-0.6c-0.4-0.4-0.7-0.9-0.9-1.5c-0.2-0.6-0.3-1.3-0.3-1.9
		C349.9,319.6,349.9,319,349.9,318.4z M348,318.4c0,0.5,0,1.1,0,1.7s0.1,1.2,0.2,1.7c0.1,0.6,0.3,1.1,0.5,1.6
		c0.2,0.5,0.5,0.9,0.9,1.3c0.4,0.4,0.8,0.7,1.4,0.9c0.5,0.2,1.2,0.3,2,0.3c0.8,0,1.4-0.1,2-0.3c0.5-0.2,1-0.5,1.4-0.9
		c0.4-0.4,0.7-0.8,0.9-1.3c0.2-0.5,0.4-1,0.5-1.6c0.1-0.6,0.2-1.1,0.2-1.7s0-1.2,0-1.7s0-1.1,0-1.7c0-0.6-0.1-1.2-0.2-1.7
		c-0.1-0.6-0.3-1.1-0.5-1.6c-0.2-0.5-0.5-0.9-0.9-1.3c-0.4-0.4-0.8-0.7-1.4-0.9s-1.2-0.3-2-0.3c-0.8,0-1.4,0.1-2,0.3s-1,0.5-1.4,0.9
		s-0.7,0.8-0.9,1.3c-0.2,0.5-0.4,1-0.5,1.6c-0.1,0.6-0.2,1.1-0.2,1.7S348,317.9,348,318.4L348,318.4z"/>
	<path class="st0" d="M370.7,356.9v-9.5h-2v9.5c0,1.3-0.3,2.4-1,3s-1.6,1-2.9,1c-1.3,0-2.4-0.3-3.1-1c-0.7-0.7-1.1-1.7-1.1-3v-9.5
		h-2v9.5c0,2,0.5,3.4,1.6,4.4c1.1,0.9,2.6,1.4,4.5,1.4s3.3-0.5,4.4-1.4C370.2,360.2,370.7,358.8,370.7,356.9L370.7,356.9z"/>
	<path class="st0" d="M386.8,360.4l0.5,1.9h1.3v-7.9H382v1.7h4.8c0,0.7-0.1,1.3-0.3,1.9c-0.2,0.6-0.5,1.1-0.9,1.5
		c-0.4,0.4-0.9,0.8-1.5,1c-0.6,0.3-1.3,0.4-2.1,0.4c-0.8,0-1.6-0.2-2.2-0.5c-0.6-0.3-1.2-0.8-1.6-1.3c-0.4-0.5-0.8-1.2-1-1.9
		s-0.3-1.5-0.3-2.2c0-0.8,0.1-1.6,0.3-2.3c0.2-0.8,0.5-1.4,0.9-2c0.4-0.6,0.9-1.1,1.6-1.4c0.7-0.4,1.4-0.5,2.3-0.5
		c0.6,0,1.1,0.1,1.6,0.2c0.5,0.1,0.9,0.3,1.3,0.6c0.4,0.3,0.7,0.6,1,1c0.3,0.4,0.4,0.9,0.5,1.5h2c-0.1-0.9-0.4-1.6-0.8-2.2
		c-0.4-0.6-0.9-1.1-1.4-1.5c-0.6-0.4-1.2-0.7-1.9-0.9c-0.7-0.2-1.5-0.3-2.3-0.3c-1.2,0-2.2,0.2-3.1,0.7c-0.9,0.4-1.6,1-2.2,1.8
		c-0.6,0.7-1,1.6-1.3,2.6c-0.3,1-0.4,2-0.4,3.1c0,1,0.2,1.9,0.5,2.8c0.3,0.9,0.8,1.7,1.4,2.4c0.6,0.7,1.4,1.3,2.2,1.7
		c0.9,0.4,1.9,0.6,3,0.6c0.9,0,1.7-0.2,2.6-0.5C385.5,361.8,386.2,361.2,386.8,360.4L386.8,360.4z"/>
	<path class="st0" d="M404.3,351.8h2c-0.1-0.8-0.3-1.5-0.7-2.1c-0.4-0.6-0.8-1.1-1.4-1.5s-1.2-0.7-1.9-0.9s-1.4-0.3-2.2-0.3
		c-1.1,0-2.2,0.2-3,0.6s-1.6,1-2.2,1.7c-0.6,0.7-1,1.5-1.4,2.5c-0.3,1-0.5,2-0.5,3.1s0.1,2.1,0.4,3.1c0.3,0.9,0.7,1.8,1.3,2.5
		c0.6,0.7,1.3,1.2,2.2,1.6c0.9,0.4,1.9,0.6,3,0.6c1.9,0,3.4-0.5,4.5-1.6c1.1-1,1.8-2.5,1.9-4.4h-2c0,0.6-0.2,1.2-0.4,1.7
		c-0.2,0.5-0.5,1-0.9,1.4c-0.4,0.4-0.8,0.7-1.3,0.9c-0.5,0.2-1.1,0.3-1.7,0.3c-0.9,0-1.7-0.2-2.3-0.5s-1.2-0.8-1.6-1.4
		c-0.4-0.6-0.7-1.2-0.9-2c-0.2-0.8-0.3-1.6-0.3-2.4c0-0.8,0.1-1.5,0.3-2.3c0.2-0.7,0.5-1.4,0.9-1.9c0.4-0.6,0.9-1,1.6-1.4
		c0.6-0.3,1.4-0.5,2.3-0.5c1,0,2,0.3,2.7,0.8C403.6,350,404.1,350.8,404.3,351.8L404.3,351.8z"/>
	<path class="st2" d="M420.3,361.9l0.5,1.9h1.3v-7.9h-6.5v1.7h4.8c0,0.7-0.1,1.3-0.3,1.9c-0.2,0.6-0.5,1.1-0.9,1.5
		c-0.4,0.4-0.9,0.8-1.5,1c-0.6,0.3-1.3,0.4-2.1,0.4c-0.8,0-1.6-0.2-2.2-0.5c-0.6-0.3-1.2-0.8-1.6-1.3c-0.4-0.5-0.8-1.2-1-1.9
		c-0.2-0.7-0.3-1.5-0.3-2.2c0-0.8,0.1-1.6,0.3-2.3c0.2-0.8,0.5-1.4,0.9-2c0.4-0.6,0.9-1.1,1.6-1.4c0.7-0.4,1.4-0.5,2.3-0.5
		c0.6,0,1.1,0.1,1.6,0.2c0.5,0.1,0.9,0.3,1.3,0.6c0.4,0.3,0.7,0.6,1,1c0.3,0.4,0.4,0.9,0.5,1.5h2c-0.1-0.9-0.4-1.6-0.8-2.2
		c-0.4-0.6-0.9-1.1-1.4-1.5c-0.6-0.4-1.2-0.7-1.9-0.9c-0.7-0.2-1.5-0.3-2.3-0.3c-1.2,0-2.2,0.2-3.1,0.7c-0.9,0.4-1.6,1-2.2,1.8
		c-0.6,0.7-1,1.6-1.3,2.6c-0.3,1-0.4,2-0.4,3.1c0,1,0.2,1.9,0.5,2.8c0.3,0.9,0.8,1.7,1.4,2.4c0.6,0.7,1.4,1.3,2.2,1.7
		c0.9,0.4,1.9,0.6,3,0.6c0.9,0,1.7-0.2,2.6-0.5C419,363.2,419.7,362.7,420.3,361.9L420.3,361.9z"/>
	<path class="st2" d="M420.3,344.4l0.5,1.9h1.3v-7.9h-6.5v1.7h4.8c0,0.7-0.1,1.3-0.3,1.9c-0.2,0.6-0.5,1.1-0.9,1.5
		c-0.4,0.4-0.9,0.8-1.5,1c-0.6,0.3-1.3,0.4-2.1,0.4c-0.8,0-1.6-0.2-2.2-0.5c-0.6-0.3-1.2-0.8-1.6-1.3s-0.8-1.2-1-1.9
		c-0.2-0.7-0.3-1.5-0.3-2.2c0-0.8,0.1-1.6,0.3-2.3c0.2-0.8,0.5-1.4,0.9-2c0.4-0.6,0.9-1.1,1.6-1.4c0.7-0.4,1.4-0.5,2.3-0.5
		c0.6,0,1.1,0.1,1.6,0.2c0.5,0.1,0.9,0.3,1.3,0.6c0.4,0.3,0.7,0.6,1,1c0.3,0.4,0.4,0.9,0.5,1.5h2c-0.1-0.9-0.4-1.6-0.8-2.2
		c-0.4-0.6-0.9-1.1-1.4-1.5c-0.6-0.4-1.2-0.7-1.9-0.9c-0.7-0.2-1.5-0.3-2.3-0.3c-1.2,0-2.2,0.2-3.1,0.7c-0.9,0.4-1.6,1-2.2,1.8
		c-0.6,0.7-1,1.6-1.3,2.6c-0.3,1-0.4,2-0.4,3.1c0,1,0.2,1.9,0.5,2.8c0.3,0.9,0.8,1.7,1.4,2.4c0.6,0.7,1.4,1.3,2.2,1.7
		c0.9,0.4,1.9,0.6,3,0.6c0.9,0,1.7-0.2,2.6-0.5C419,345.8,419.7,345.2,420.3,344.4L420.3,344.4z"/>
	<path class="st2" d="M421.7,323.4v-9.5h-2v9.5c0,1.3-0.3,2.4-1,3s-1.6,1-2.9,1c-1.3,0-2.4-0.3-3.1-1c-0.7-0.7-1.1-1.7-1.1-3v-9.5
		h-2v9.5c0,2,0.5,3.4,1.6,4.4c1.1,0.9,2.6,1.4,4.5,1.4s3.3-0.5,4.4-1.4C421.2,326.7,421.7,325.3,421.7,323.4L421.7,323.4z"/>
	<path class="st2" d="M420.3,309.4l0.5,1.9h1.3v-7.9h-6.5v1.7h4.8c0,0.7-0.1,1.3-0.3,1.9c-0.2,0.6-0.5,1.1-0.9,1.5
		c-0.4,0.4-0.9,0.8-1.5,1c-0.6,0.3-1.3,0.4-2.1,0.4c-0.8,0-1.6-0.2-2.2-0.5c-0.6-0.3-1.2-0.8-1.6-1.3s-0.8-1.2-1-1.9
		c-0.2-0.7-0.3-1.5-0.3-2.2c0-0.8,0.1-1.6,0.3-2.3c0.2-0.8,0.5-1.4,0.9-2c0.4-0.6,0.9-1.1,1.6-1.4c0.7-0.4,1.4-0.5,2.3-0.5
		c0.6,0,1.1,0.1,1.6,0.2c0.5,0.1,0.9,0.3,1.3,0.6c0.4,0.3,0.7,0.6,1,1c0.3,0.4,0.4,0.9,0.5,1.5h2c-0.1-0.9-0.4-1.6-0.8-2.2
		c-0.4-0.6-0.9-1.1-1.4-1.5c-0.6-0.4-1.2-0.7-1.9-0.9c-0.7-0.2-1.5-0.3-2.3-0.3c-1.2,0-2.2,0.2-3.1,0.7c-0.9,0.4-1.6,1-2.2,1.8
		c-0.6,0.7-1,1.6-1.3,2.6c-0.3,1-0.4,2-0.4,3.1c0,1,0.2,1.9,0.5,2.8c0.3,0.9,0.8,1.7,1.4,2.4c0.6,0.7,1.4,1.3,2.2,1.7
		c0.9,0.4,1.9,0.6,3,0.6c0.9,0,1.7-0.2,2.6-0.5C419,310.8,419.7,310.2,420.3,309.4L420.3,309.4z"/>
	<path class="st2" d="M413.1,287.6l2.5-7h0l2.5,7H413.1z M414.5,278.9l-5.8,14.9h2l1.7-4.5h6.3l1.6,4.5h2.2l-5.8-14.9H414.5
		L414.5,278.9z"/>
	<path class="st2" d="M420.3,274.5l0.5,1.9h1.3v-7.9h-6.5v1.7h4.8c0,0.7-0.1,1.3-0.3,1.9c-0.2,0.6-0.5,1.1-0.9,1.5
		c-0.4,0.4-0.9,0.8-1.5,1c-0.6,0.3-1.3,0.4-2.1,0.4c-0.8,0-1.6-0.2-2.2-0.5c-0.6-0.3-1.2-0.8-1.6-1.3c-0.4-0.5-0.8-1.2-1-1.9
		c-0.2-0.7-0.3-1.5-0.3-2.2c0-0.8,0.1-1.6,0.3-2.3c0.2-0.8,0.5-1.4,0.9-2c0.4-0.6,0.9-1.1,1.6-1.4c0.7-0.4,1.4-0.5,2.3-0.5
		c0.6,0,1.1,0.1,1.6,0.2c0.5,0.1,0.9,0.3,1.3,0.6c0.4,0.3,0.7,0.6,1,1c0.3,0.4,0.4,0.9,0.5,1.5h2c-0.1-0.9-0.4-1.6-0.8-2.2
		c-0.4-0.6-0.9-1.1-1.4-1.5c-0.6-0.4-1.2-0.7-1.9-0.9c-0.7-0.2-1.5-0.3-2.3-0.3c-1.2,0-2.2,0.2-3.1,0.7c-0.9,0.4-1.6,1-2.2,1.8
		c-0.6,0.7-1,1.6-1.3,2.6c-0.3,1-0.4,2-0.4,3.1c0,1,0.2,1.9,0.5,2.8c0.3,0.9,0.8,1.7,1.4,2.4c0.6,0.7,1.4,1.3,2.2,1.7
		c0.9,0.4,1.9,0.6,3,0.6c0.9,0,1.7-0.2,2.6-0.5S419.7,275.3,420.3,274.5L420.3,274.5z"/>
	<path class="st2" d="M421.7,253.5v-9.5h-2v9.5c0,1.3-0.3,2.4-1,3c-0.7,0.7-1.6,1-2.9,1c-1.3,0-2.4-0.3-3.1-1
		c-0.7-0.7-1.1-1.7-1.1-3v-9.5h-2v9.5c0,2,0.5,3.4,1.6,4.4c1.1,0.9,2.6,1.4,4.5,1.4s3.3-0.5,4.4-1.4
		C421.2,256.8,421.7,255.4,421.7,253.5z"/>
	<line class="st1" x1="404.2" y1="251.2" x2="392.5" y2="251.2"/>
	<path d="M369.7,249.3h1.8c0-0.4,0-0.9,0.1-1.3c0.1-0.4,0.3-0.8,0.5-1.2s0.5-0.6,0.9-0.9c0.4-0.2,0.8-0.3,1.3-0.3
		c0.4,0,0.8,0.1,1.1,0.2c0.3,0.1,0.7,0.3,0.9,0.5s0.5,0.5,0.6,0.9c0.2,0.3,0.2,0.7,0.2,1.1c0,0.5-0.1,1-0.2,1.4
		c-0.2,0.4-0.4,0.8-0.7,1.1c-0.3,0.3-0.7,0.7-1.2,1c-0.5,0.3-1,0.7-1.6,1.1c-0.5,0.3-1,0.6-1.5,1c-0.5,0.3-0.9,0.8-1.3,1.2
		c-0.4,0.5-0.7,1-0.9,1.6c-0.3,0.6-0.4,1.4-0.5,2.2h9.7v-1.6h-7.6c0.1-0.5,0.3-0.9,0.5-1.2c0.3-0.3,0.6-0.7,1-1
		c0.4-0.3,0.8-0.6,1.3-0.9c0.5-0.3,0.9-0.5,1.4-0.8c0.5-0.3,0.9-0.6,1.3-0.9c0.4-0.3,0.8-0.7,1.1-1.1c0.3-0.4,0.6-0.9,0.8-1.4
		c0.2-0.5,0.3-1.1,0.3-1.7c0-0.7-0.1-1.3-0.4-1.8c-0.3-0.5-0.6-1-1-1.3c-0.4-0.4-0.9-0.6-1.5-0.8c-0.6-0.2-1.2-0.3-1.8-0.3
		c-0.8,0-1.5,0.1-2.1,0.4c-0.6,0.3-1.1,0.6-1.5,1.1c-0.4,0.5-0.7,1-0.9,1.7C369.7,247.8,369.7,248.5,369.7,249.3L369.7,249.3z
		 M383.2,251.5c0-0.4,0-0.8,0-1.2c0-0.4,0-0.9,0.1-1.3c0.1-0.4,0.2-0.9,0.3-1.3c0.1-0.4,0.3-0.8,0.5-1.1s0.5-0.6,0.9-0.8
		c0.3-0.2,0.8-0.3,1.3-0.3s0.9,0.1,1.3,0.3s0.6,0.4,0.9,0.8s0.4,0.7,0.5,1.1c0.1,0.4,0.2,0.9,0.3,1.3c0.1,0.4,0.1,0.9,0.1,1.3
		c0,0.4,0,0.8,0,1.2c0,0.6,0,1.2-0.1,1.9c0,0.7-0.2,1.3-0.3,2c-0.2,0.6-0.5,1.1-0.9,1.5c-0.4,0.4-1,0.6-1.8,0.6s-1.3-0.2-1.8-0.6
		c-0.4-0.4-0.7-0.9-0.9-1.5c-0.2-0.6-0.3-1.3-0.3-2C383.2,252.7,383.2,252.1,383.2,251.5z M381.3,251.6c0,0.5,0,1.1,0,1.7
		c0,0.6,0.1,1.2,0.2,1.7s0.3,1.1,0.5,1.6c0.2,0.5,0.5,0.9,0.9,1.3s0.8,0.7,1.4,0.9c0.5,0.2,1.2,0.3,2,0.3c0.8,0,1.4-0.1,2-0.3
		c0.5-0.2,1-0.5,1.4-0.9c0.4-0.4,0.6-0.8,0.9-1.3s0.4-1,0.5-1.6c0.1-0.6,0.2-1.1,0.2-1.7s0-1.1,0-1.7s0-1.1,0-1.7
		c0-0.6-0.1-1.2-0.2-1.7s-0.3-1.1-0.5-1.6c-0.2-0.5-0.5-0.9-0.9-1.3c-0.4-0.4-0.8-0.7-1.4-0.9c-0.5-0.2-1.2-0.3-2-0.3
		s-1.4,0.1-2,0.3c-0.5,0.2-1,0.5-1.4,0.9c-0.4,0.4-0.7,0.8-0.9,1.3c-0.2,0.5-0.4,1-0.5,1.6s-0.2,1.1-0.2,1.7
		C381.3,250.5,381.3,251,381.3,251.6z"/>
	<path class="st2" d="M420.3,230.9h2c-0.1-0.8-0.3-1.5-0.7-2.1c-0.4-0.6-0.8-1.1-1.4-1.5c-0.5-0.4-1.2-0.7-1.9-0.9
		c-0.7-0.2-1.4-0.3-2.2-0.3c-1.1,0-2.2,0.2-3,0.6s-1.6,1-2.2,1.7c-0.6,0.7-1,1.5-1.4,2.5c-0.3,1-0.5,2-0.5,3.1s0.1,2.1,0.4,3.1
		c0.3,0.9,0.7,1.8,1.3,2.5c0.6,0.7,1.3,1.2,2.2,1.6c0.9,0.4,1.9,0.6,3,0.6c1.9,0,3.4-0.5,4.5-1.6c1.1-1,1.8-2.5,1.9-4.4h-2
		c0,0.6-0.2,1.2-0.4,1.7c-0.2,0.5-0.5,1-0.9,1.4c-0.4,0.4-0.8,0.7-1.3,0.9c-0.5,0.2-1.1,0.3-1.7,0.3c-0.9,0-1.7-0.2-2.3-0.5
		c-0.6-0.3-1.2-0.8-1.6-1.4c-0.4-0.6-0.7-1.2-0.9-2c-0.2-0.8-0.3-1.6-0.3-2.4c0-0.8,0.1-1.5,0.3-2.3c0.2-0.7,0.5-1.4,0.9-1.9
		c0.4-0.6,0.9-1,1.6-1.4c0.6-0.3,1.4-0.5,2.3-0.5c1,0,2,0.3,2.7,0.8C419.6,229.1,420.1,229.9,420.3,230.9L420.3,230.9z"/>
	<path class="st2" d="M420.3,222l0.5,1.9h1.3V216h-6.5v1.7h4.8c0,0.7-0.1,1.3-0.3,1.9c-0.2,0.6-0.5,1.1-0.9,1.5
		c-0.4,0.4-0.9,0.8-1.5,1c-0.6,0.3-1.3,0.4-2.1,0.4c-0.8,0-1.6-0.2-2.2-0.5c-0.6-0.3-1.2-0.8-1.6-1.3s-0.8-1.2-1-1.9
		c-0.2-0.7-0.3-1.5-0.3-2.2s0.1-1.6,0.3-2.3c0.2-0.8,0.5-1.4,0.9-2c0.4-0.6,0.9-1.1,1.6-1.4c0.7-0.4,1.4-0.5,2.3-0.5
		c0.6,0,1.1,0.1,1.6,0.2c0.5,0.1,0.9,0.3,1.3,0.6c0.4,0.3,0.7,0.6,1,1c0.3,0.4,0.4,0.9,0.5,1.5h2c-0.1-0.9-0.4-1.6-0.8-2.2
		c-0.4-0.6-0.9-1.1-1.4-1.5c-0.6-0.4-1.2-0.7-1.9-0.9c-0.7-0.2-1.5-0.3-2.3-0.3c-1.2,0-2.2,0.2-3.1,0.7c-0.9,0.4-1.6,1-2.2,1.8
		c-0.6,0.7-1,1.6-1.3,2.6c-0.3,1-0.4,2-0.4,3.1c0,1,0.2,1.9,0.5,2.8c0.3,0.9,0.8,1.7,1.4,2.4c0.6,0.7,1.4,1.3,2.2,1.7
		c0.9,0.4,1.9,0.6,3,0.6c0.9,0,1.7-0.2,2.6-0.5S419.7,222.8,420.3,222L420.3,222z"/>
	<path class="st2" d="M421.7,201v-9.5h-2v9.5c0,1.3-0.3,2.4-1,3c-0.7,0.7-1.6,1-2.9,1c-1.3,0-2.4-0.3-3.1-1c-0.7-0.7-1.1-1.7-1.1-3
		v-9.5h-2v9.5c0,2,0.5,3.4,1.6,4.4c1.1,0.9,2.6,1.4,4.5,1.4s3.3-0.5,4.4-1.4C421.2,204.4,421.7,202.9,421.7,201z"/>
	<path class="st2" d="M421.7,183.5V174h-2v9.5c0,1.3-0.3,2.4-1,3c-0.7,0.7-1.6,1-2.9,1c-1.3,0-2.4-0.3-3.1-1c-0.7-0.7-1.1-1.7-1.1-3
		V174h-2v9.5c0,2,0.5,3.4,1.6,4.4c1.1,0.9,2.6,1.4,4.5,1.4s3.3-0.5,4.4-1.4C421.2,186.9,421.7,185.5,421.7,183.5z"/>
	<path class="st0" d="M420.3,161.8h2c-0.1-0.8-0.3-1.5-0.7-2.1c-0.4-0.6-0.8-1.1-1.4-1.5c-0.5-0.4-1.2-0.7-1.9-0.9
		c-0.7-0.2-1.4-0.3-2.2-0.3c-1.1,0-2.2,0.2-3,0.6s-1.6,1-2.2,1.7c-0.6,0.7-1,1.5-1.4,2.5c-0.3,1-0.5,2-0.5,3.1s0.1,2.1,0.4,3.1
		c0.3,0.9,0.7,1.8,1.3,2.5c0.6,0.7,1.3,1.2,2.2,1.6c0.9,0.4,1.9,0.6,3,0.6c1.9,0,3.4-0.5,4.5-1.6c1.1-1,1.8-2.5,1.9-4.4h-2
		c0,0.6-0.2,1.2-0.4,1.7c-0.2,0.5-0.5,1-0.9,1.4c-0.4,0.4-0.8,0.7-1.3,0.9c-0.5,0.2-1.1,0.3-1.7,0.3c-0.9,0-1.7-0.2-2.3-0.5
		c-0.6-0.3-1.2-0.8-1.6-1.4c-0.4-0.6-0.7-1.2-0.9-2c-0.2-0.8-0.3-1.6-0.3-2.4c0-0.8,0.1-1.5,0.3-2.3c0.2-0.7,0.5-1.4,0.9-1.9
		c0.4-0.6,0.9-1,1.6-1.4c0.6-0.3,1.4-0.5,2.3-0.5c1,0,2,0.3,2.7,0.8C419.6,160,420.1,160.8,420.3,161.8L420.3,161.8z"/>
	<path class="st0" d="M404.3,150.8h2c-0.1-0.8-0.3-1.5-0.7-2.1c-0.4-0.6-0.8-1.1-1.4-1.5c-0.5-0.4-1.2-0.7-1.9-0.9
		c-0.7-0.2-1.4-0.3-2.2-0.3c-1.1,0-2.2,0.2-3,0.6s-1.6,1-2.2,1.7c-0.6,0.7-1,1.5-1.4,2.5c-0.3,1-0.5,2-0.5,3.1s0.1,2.1,0.4,3.1
		c0.3,0.9,0.7,1.8,1.3,2.5c0.6,0.7,1.3,1.2,2.2,1.6c0.9,0.4,1.9,0.6,3,0.6c1.9,0,3.4-0.5,4.5-1.6c1.1-1,1.8-2.5,1.9-4.4h-2
		c0,0.6-0.2,1.2-0.4,1.7c-0.2,0.5-0.5,1-0.9,1.4c-0.4,0.4-0.8,0.7-1.3,0.9c-0.5,0.2-1.1,0.3-1.7,0.3c-0.9,0-1.7-0.2-2.3-0.5
		s-1.2-0.8-1.6-1.4c-0.4-0.6-0.7-1.2-0.9-2s-0.3-1.6-0.3-2.4c0-0.8,0.1-1.5,0.3-2.3c0.2-0.7,0.5-1.4,0.9-1.9c0.4-0.6,0.9-1,1.6-1.4
		c0.6-0.3,1.4-0.5,2.3-0.5c1,0,2,0.3,2.7,0.8C403.6,149,404.1,149.8,404.3,150.8L404.3,150.8z"/>
	<path class="st0" d="M395.5,137.7h2c-0.1-0.8-0.3-1.5-0.7-2.1c-0.4-0.6-0.8-1.1-1.4-1.5c-0.5-0.4-1.2-0.7-1.9-0.9
		c-0.7-0.2-1.4-0.3-2.2-0.3c-1.1,0-2.2,0.2-3,0.6s-1.6,1-2.2,1.7c-0.6,0.7-1,1.5-1.4,2.5c-0.3,1-0.5,2-0.5,3.1s0.1,2.1,0.4,3.1
		c0.3,0.9,0.7,1.8,1.3,2.5c0.6,0.7,1.3,1.2,2.2,1.6c0.9,0.4,1.9,0.6,3,0.6c1.9,0,3.4-0.5,4.5-1.6c1.1-1,1.8-2.5,1.9-4.4h-2
		c0,0.6-0.2,1.2-0.4,1.7c-0.2,0.5-0.5,1-0.9,1.4c-0.4,0.4-0.8,0.7-1.3,0.9c-0.5,0.2-1.1,0.3-1.7,0.3c-0.9,0-1.7-0.2-2.3-0.5
		s-1.2-0.8-1.6-1.4c-0.4-0.6-0.7-1.2-0.9-2s-0.3-1.6-0.3-2.4c0-0.8,0.1-1.5,0.3-2.3c0.2-0.7,0.5-1.4,0.9-1.9c0.4-0.6,0.9-1,1.6-1.4
		c0.6-0.3,1.4-0.5,2.3-0.5c1,0,2,0.3,2.7,0.8C394.8,135.8,395.3,136.6,395.5,137.7L395.5,137.7z"/>
	<path class="st0" d="M392.6,129.6v-9.5h-2v9.5c0,1.3-0.3,2.4-1,3c-0.7,0.7-1.6,1-2.9,1c-1.3,0-2.4-0.3-3.1-1
		c-0.7-0.7-1.1-1.7-1.1-3v-9.5h-2v9.5c0,2,0.5,3.4,1.6,4.4c1.1,0.9,2.6,1.4,4.5,1.4c1.9,0,3.3-0.5,4.4-1.4
		C392.1,133,392.6,131.5,392.6,129.6z"/>
	<path class="st0" d="M392.6,112.2v-9.5h-2v9.5c0,1.3-0.3,2.4-1,3c-0.7,0.7-1.6,1-2.9,1c-1.3,0-2.4-0.3-3.1-1
		c-0.7-0.7-1.1-1.7-1.1-3v-9.5h-2v9.5c0,2,0.5,3.4,1.6,4.4c1.1,0.9,2.6,1.4,4.5,1.4c1.9,0,3.3-0.5,4.4-1.4
		C392.1,115.5,392.6,114.1,392.6,112.2z"/>
	<path class="st0" d="M404.3,89.6h2c-0.1-0.8-0.3-1.5-0.7-2.1c-0.4-0.6-0.8-1.1-1.4-1.5c-0.5-0.4-1.2-0.7-1.9-0.9s-1.4-0.3-2.2-0.3
		c-1.1,0-2.2,0.2-3,0.6c-0.9,0.4-1.6,1-2.2,1.7c-0.6,0.7-1,1.5-1.4,2.5c-0.3,1-0.5,2-0.5,3.1c0,1.1,0.1,2.1,0.4,3.1
		c0.3,0.9,0.7,1.8,1.3,2.5c0.6,0.7,1.3,1.2,2.2,1.6c0.9,0.4,1.9,0.6,3,0.6c1.9,0,3.4-0.5,4.5-1.6c1.1-1,1.8-2.5,1.9-4.4h-2
		c0,0.6-0.2,1.2-0.4,1.7s-0.5,1-0.9,1.4c-0.4,0.4-0.8,0.7-1.3,0.9c-0.5,0.2-1.1,0.3-1.7,0.3c-0.9,0-1.7-0.2-2.3-0.5
		s-1.2-0.8-1.6-1.4c-0.4-0.6-0.7-1.2-0.9-2s-0.3-1.6-0.3-2.4c0-0.8,0.1-1.5,0.3-2.3c0.2-0.7,0.5-1.4,0.9-1.9c0.4-0.6,0.9-1,1.6-1.4
		c0.6-0.3,1.4-0.5,2.3-0.5c1,0,2,0.3,2.7,0.8C403.6,87.8,404.1,88.6,404.3,89.6L404.3,89.6z"/>
	<line class="st1" x1="388.2" y1="92.4" x2="376.5" y2="92.4"/>
	<path d="M357.3,91.6v1.5c0.3,0,0.7-0.1,1.1-0.1c0.4,0,0.9,0.1,1.2,0.2c0.4,0.1,0.7,0.3,1,0.5c0.3,0.3,0.5,0.5,0.7,0.9
		c0.2,0.4,0.3,0.8,0.3,1.2s-0.1,0.9-0.3,1.2c-0.2,0.4-0.4,0.7-0.7,0.9s-0.6,0.4-1,0.6c-0.4,0.1-0.8,0.2-1.2,0.2
		c-1,0-1.8-0.3-2.3-0.9c-0.5-0.6-0.8-1.4-0.8-2.4h-1.8c0,0.8,0.1,1.5,0.3,2.1c0.2,0.6,0.6,1.1,1,1.5c0.4,0.4,0.9,0.7,1.6,0.9
		s1.3,0.3,2.1,0.3c0.7,0,1.4-0.1,2-0.3c0.6-0.2,1.2-0.5,1.6-0.9c0.5-0.4,0.8-0.9,1.1-1.4c0.3-0.6,0.4-1.2,0.4-2
		c0-0.9-0.2-1.7-0.7-2.3c-0.4-0.7-1.1-1.1-2-1.3v0c0.6-0.3,1.1-0.7,1.5-1.2c0.4-0.5,0.6-1.1,0.6-1.8s-0.1-1.3-0.3-1.8
		c-0.2-0.5-0.5-0.9-0.9-1.2c-0.4-0.3-0.9-0.6-1.4-0.7c-0.6-0.2-1.1-0.2-1.8-0.2c-0.7,0-1.4,0.1-2,0.4c-0.6,0.2-1,0.6-1.4,1
		c-0.4,0.4-0.7,0.9-0.9,1.5c-0.2,0.6-0.3,1.2-0.3,1.9h1.8c0-0.4,0.1-0.9,0.2-1.2s0.3-0.7,0.5-1s0.5-0.5,0.9-0.7
		c0.3-0.2,0.8-0.3,1.2-0.3c0.8,0,1.4,0.2,1.9,0.6c0.5,0.4,0.8,1,0.8,1.8c0,0.4-0.1,0.7-0.2,1c-0.2,0.3-0.4,0.6-0.6,0.8
		s-0.6,0.4-0.9,0.5s-0.7,0.2-1.1,0.2h-0.6C357.5,91.6,357.4,91.6,357.3,91.6L357.3,91.6z M367.2,92.8c0-0.4,0-0.8,0-1.2
		c0-0.4,0-0.9,0.1-1.3c0.1-0.4,0.2-0.9,0.3-1.3c0.1-0.4,0.3-0.8,0.5-1.1s0.5-0.6,0.9-0.8c0.3-0.2,0.8-0.3,1.3-0.3
		c0.5,0,0.9,0.1,1.3,0.3c0.3,0.2,0.6,0.4,0.9,0.8s0.4,0.7,0.5,1.1c0.1,0.4,0.2,0.9,0.3,1.3c0.1,0.4,0.1,0.9,0.1,1.3
		c0,0.4,0,0.8,0,1.2c0,0.6,0,1.2-0.1,1.9c0,0.7-0.2,1.3-0.3,2c-0.2,0.6-0.5,1.1-0.9,1.5c-0.4,0.4-1,0.6-1.8,0.6
		c-0.8,0-1.3-0.2-1.8-0.6c-0.4-0.4-0.7-0.9-0.9-1.5c-0.2-0.6-0.3-1.3-0.3-2C367.2,94,367.2,93.3,367.2,92.8z M365.3,92.8
		c0,0.5,0,1.1,0,1.7c0,0.6,0.1,1.2,0.2,1.7c0.1,0.6,0.3,1.1,0.5,1.6c0.2,0.5,0.5,0.9,0.9,1.3c0.4,0.4,0.8,0.7,1.4,0.9
		c0.5,0.2,1.2,0.3,2,0.3c0.8,0,1.4-0.1,2-0.3c0.5-0.2,1-0.5,1.4-0.9c0.4-0.4,0.6-0.8,0.9-1.3c0.2-0.5,0.4-1,0.5-1.6
		c0.1-0.6,0.2-1.1,0.2-1.7c0-0.6,0-1.1,0-1.7c0-0.6,0-1.1,0-1.7s-0.1-1.2-0.2-1.7c-0.1-0.6-0.3-1.1-0.5-1.6
		c-0.2-0.5-0.5-0.9-0.9-1.3c-0.4-0.4-0.8-0.7-1.4-0.9c-0.5-0.2-1.2-0.3-2-0.3s-1.4,0.1-2,0.3c-0.5,0.2-1,0.5-1.4,0.9
		c-0.4,0.4-0.7,0.8-0.9,1.3c-0.2,0.5-0.4,1-0.5,1.6c-0.1,0.6-0.2,1.1-0.2,1.7C365.3,91.7,365.3,92.2,365.3,92.8z"/>
	<path class="st0" d="M421.7,89.5l0.5,1.9h1.3v-7.9H417v1.7h4.8c0,0.7-0.1,1.3-0.3,1.9c-0.2,0.6-0.5,1.1-0.9,1.5
		c-0.4,0.4-0.9,0.8-1.5,1c-0.6,0.3-1.3,0.4-2.1,0.4c-0.8,0-1.6-0.2-2.2-0.5c-0.6-0.3-1.2-0.8-1.6-1.3s-0.8-1.2-1-1.9
		c-0.2-0.7-0.3-1.5-0.3-2.2c0-0.8,0.1-1.6,0.3-2.3c0.2-0.8,0.5-1.4,0.9-2c0.4-0.6,0.9-1.1,1.6-1.4c0.7-0.4,1.4-0.5,2.3-0.5
		c0.6,0,1.1,0.1,1.6,0.2c0.5,0.1,0.9,0.3,1.3,0.6s0.7,0.6,1,1s0.4,0.9,0.5,1.5h2c-0.1-0.9-0.4-1.6-0.8-2.2c-0.4-0.6-0.9-1.1-1.4-1.5
		c-0.6-0.4-1.2-0.7-1.9-0.9c-0.7-0.2-1.5-0.3-2.3-0.3c-1.2,0-2.2,0.2-3.1,0.7c-0.9,0.4-1.6,1-2.2,1.8c-0.6,0.7-1,1.6-1.3,2.6
		c-0.3,1-0.4,2-0.4,3.1c0,1,0.2,1.9,0.5,2.8c0.3,0.9,0.8,1.7,1.4,2.4c0.6,0.7,1.4,1.3,2.2,1.7c0.9,0.4,1.9,0.6,3,0.6
		c0.9,0,1.7-0.2,2.6-0.5C420.4,90.8,421.1,90.3,421.7,89.5L421.7,89.5z"/>
	<path class="st0" d="M445,81.6V72h-2v9.5c0,1.3-0.3,2.4-1,3c-0.7,0.7-1.6,1-2.9,1c-1.3,0-2.4-0.3-3.1-1c-0.7-0.7-1.1-1.7-1.1-3V72
		h-2v9.5c0,2,0.5,3.4,1.6,4.4c1.1,0.9,2.6,1.4,4.5,1.4s3.3-0.5,4.4-1.4C444.5,84.9,445,83.5,445,81.6z"/>
	<path class="st0" d="M465.5,85.3h2c-0.1-0.8-0.3-1.5-0.7-2.1c-0.4-0.6-0.8-1.1-1.4-1.5c-0.5-0.4-1.2-0.7-1.9-0.9
		c-0.7-0.2-1.4-0.3-2.2-0.3c-1.1,0-2.2,0.2-3,0.6s-1.6,1-2.2,1.7c-0.6,0.7-1,1.5-1.4,2.5c-0.3,1-0.5,2-0.5,3.1s0.1,2.1,0.4,3.1
		c0.3,0.9,0.7,1.8,1.3,2.5c0.6,0.7,1.3,1.2,2.2,1.6c0.9,0.4,1.9,0.6,3,0.6c1.9,0,3.4-0.5,4.5-1.6c1.1-1,1.8-2.5,1.9-4.4h-2
		c0,0.6-0.2,1.2-0.4,1.7c-0.2,0.5-0.5,1-0.9,1.4c-0.4,0.4-0.8,0.7-1.3,0.9c-0.5,0.2-1.1,0.3-1.7,0.3c-0.9,0-1.7-0.2-2.3-0.5
		s-1.2-0.8-1.6-1.4c-0.4-0.6-0.7-1.2-0.9-2c-0.2-0.8-0.3-1.6-0.3-2.4c0-0.8,0.1-1.5,0.3-2.3c0.2-0.7,0.5-1.4,0.9-1.9
		c0.4-0.6,0.9-1,1.6-1.4c0.6-0.3,1.4-0.5,2.3-0.5c1,0,2,0.3,2.7,0.8C464.8,83.4,465.3,84.2,465.5,85.3L465.5,85.3z"/>
	<path class="st0" d="M478.6,107.1h2c-0.1-0.8-0.3-1.5-0.7-2.1c-0.4-0.6-0.8-1.1-1.4-1.5c-0.5-0.4-1.2-0.7-1.9-0.9s-1.4-0.3-2.2-0.3
		c-1.1,0-2.2,0.2-3,0.6c-0.9,0.4-1.6,1-2.2,1.7c-0.6,0.7-1,1.5-1.4,2.5c-0.3,1-0.5,2-0.5,3.1c0,1.1,0.1,2.1,0.4,3.1
		c0.3,0.9,0.7,1.8,1.3,2.5c0.6,0.7,1.3,1.2,2.2,1.6c0.9,0.4,1.9,0.6,3,0.6c1.9,0,3.4-0.5,4.5-1.6c1.1-1,1.8-2.5,1.9-4.4h-2
		c0,0.6-0.2,1.2-0.4,1.7s-0.5,1-0.9,1.4c-0.4,0.4-0.8,0.7-1.3,0.9c-0.5,0.2-1.1,0.3-1.7,0.3c-0.9,0-1.7-0.2-2.3-0.5
		s-1.2-0.8-1.6-1.4c-0.4-0.6-0.7-1.2-0.9-2c-0.2-0.8-0.3-1.6-0.3-2.4c0-0.8,0.1-1.5,0.3-2.3c0.2-0.7,0.5-1.4,0.9-1.9
		c0.4-0.6,0.9-1,1.6-1.4c0.6-0.3,1.4-0.5,2.3-0.5c1,0,2,0.3,2.7,0.8C477.9,105.2,478.4,106,478.6,107.1L478.6,107.1z"/>
	<path class="st0" d="M482.9,129h2c-0.1-0.8-0.3-1.5-0.7-2.1c-0.4-0.6-0.8-1.1-1.4-1.5s-1.2-0.7-1.9-0.9c-0.7-0.2-1.4-0.3-2.2-0.3
		c-1.1,0-2.2,0.2-3,0.6s-1.6,1-2.2,1.7c-0.6,0.7-1,1.5-1.4,2.5c-0.3,1-0.5,2-0.5,3.1s0.1,2.1,0.4,3.1c0.3,0.9,0.7,1.8,1.3,2.5
		c0.6,0.7,1.3,1.2,2.2,1.6c0.9,0.4,1.9,0.6,3,0.6c1.9,0,3.4-0.5,4.5-1.6s1.8-2.5,1.9-4.4h-2c0,0.6-0.2,1.2-0.4,1.7
		c-0.2,0.5-0.5,1-0.9,1.4c-0.4,0.4-0.8,0.7-1.3,0.9c-0.5,0.2-1.1,0.3-1.7,0.3c-0.9,0-1.7-0.2-2.3-0.5c-0.6-0.3-1.2-0.8-1.6-1.4
		c-0.4-0.6-0.7-1.2-0.9-2c-0.2-0.8-0.3-1.6-0.3-2.4c0-0.8,0.1-1.5,0.3-2.3c0.2-0.7,0.5-1.4,0.9-1.9c0.4-0.6,0.9-1,1.6-1.4
		c0.6-0.3,1.4-0.5,2.3-0.5c1,0,2,0.3,2.7,0.8C482.2,127.1,482.7,127.9,482.9,129L482.9,129z"/>
	<path class="st0" d="M474.2,146.4h2c-0.1-0.8-0.3-1.5-0.7-2.1c-0.4-0.6-0.8-1.1-1.4-1.5c-0.5-0.4-1.2-0.7-1.9-0.9
		c-0.7-0.2-1.4-0.3-2.2-0.3c-1.1,0-2.2,0.2-3,0.6c-0.9,0.4-1.6,1-2.2,1.7c-0.6,0.7-1,1.5-1.4,2.5c-0.3,1-0.5,2-0.5,3.1
		s0.1,2.1,0.4,3.1c0.3,0.9,0.7,1.8,1.3,2.5c0.6,0.7,1.3,1.2,2.2,1.6c0.9,0.4,1.9,0.6,3,0.6c1.9,0,3.4-0.5,4.5-1.6
		c1.1-1,1.8-2.5,1.9-4.4h-2c0,0.6-0.2,1.2-0.4,1.7c-0.2,0.5-0.5,1-0.9,1.4c-0.4,0.4-0.8,0.7-1.3,0.9c-0.5,0.2-1.1,0.3-1.7,0.3
		c-0.9,0-1.7-0.2-2.3-0.5c-0.6-0.3-1.2-0.8-1.6-1.4c-0.4-0.6-0.7-1.2-0.9-2c-0.2-0.8-0.3-1.6-0.3-2.4c0-0.8,0.1-1.5,0.3-2.3
		c0.2-0.7,0.5-1.4,0.9-1.9c0.4-0.6,0.9-1,1.6-1.4c0.6-0.3,1.4-0.5,2.3-0.5c1,0,2,0.3,2.7,0.8C473.5,144.6,474,145.4,474.2,146.4
		L474.2,146.4z"/>
	<path class="st0" d="M448,165.3l2.5-7h0l2.5,7H448z M449.5,156.5l-5.8,14.9h2l1.7-4.5h6.3l1.6,4.5h2.2l-5.8-14.9H449.5L449.5,156.5
		z"/>
	<path class="st2" d="M455.2,187.1l0.5,1.9h1.3v-7.9h-6.5v1.7h4.8c0,0.7-0.1,1.3-0.3,1.9c-0.2,0.6-0.5,1.1-0.9,1.5
		c-0.4,0.4-0.9,0.8-1.5,1c-0.6,0.3-1.3,0.4-2.1,0.4c-0.8,0-1.6-0.2-2.2-0.5c-0.6-0.3-1.2-0.8-1.6-1.3c-0.4-0.5-0.8-1.2-1-1.9
		c-0.2-0.7-0.3-1.5-0.3-2.2c0-0.8,0.1-1.6,0.3-2.3c0.2-0.8,0.5-1.4,0.9-2c0.4-0.6,0.9-1.1,1.6-1.4c0.7-0.4,1.4-0.5,2.3-0.5
		c0.6,0,1.1,0.1,1.6,0.2c0.5,0.1,0.9,0.3,1.3,0.6c0.4,0.3,0.7,0.6,1,1s0.4,0.9,0.5,1.5h2c-0.1-0.9-0.4-1.6-0.8-2.2
		c-0.4-0.6-0.9-1.1-1.4-1.5c-0.6-0.4-1.2-0.7-1.9-0.9c-0.7-0.2-1.5-0.3-2.3-0.3c-1.2,0-2.2,0.2-3.1,0.7c-0.9,0.4-1.6,1-2.2,1.8
		c-0.6,0.7-1,1.6-1.3,2.6c-0.3,1-0.4,2-0.4,3.1c0,1,0.2,1.9,0.5,2.8c0.3,0.9,0.8,1.7,1.4,2.4c0.6,0.7,1.4,1.3,2.2,1.7
		c0.9,0.4,1.9,0.6,3,0.6c0.9,0,1.7-0.2,2.6-0.5C453.9,188.4,454.7,187.9,455.2,187.1L455.2,187.1z"/>
	<path class="st2" d="M448,200.2l2.5-7h0l2.5,7H448z M449.5,191.5l-5.8,14.9h2l1.7-4.5h6.3l1.6,4.5h2.2l-5.8-14.9H449.5L449.5,191.5
		z"/>
	<path class="st2" d="M455.3,213.5h2c-0.1-0.8-0.3-1.5-0.7-2.1c-0.4-0.6-0.8-1.1-1.4-1.5c-0.5-0.4-1.2-0.7-1.9-0.9s-1.4-0.3-2.2-0.3
		c-1.1,0-2.2,0.2-3,0.6c-0.9,0.4-1.6,1-2.2,1.7c-0.6,0.7-1,1.5-1.4,2.5c-0.3,1-0.5,2-0.5,3.1s0.1,2.1,0.4,3.1
		c0.3,0.9,0.7,1.8,1.3,2.5c0.6,0.7,1.3,1.2,2.2,1.6c0.9,0.4,1.9,0.6,3,0.6c1.9,0,3.4-0.5,4.5-1.6c1.1-1,1.8-2.5,1.9-4.4h-2
		c0,0.6-0.2,1.2-0.4,1.7c-0.2,0.5-0.5,1-0.9,1.4c-0.4,0.4-0.8,0.7-1.3,0.9c-0.5,0.2-1.1,0.3-1.7,0.3c-0.9,0-1.7-0.2-2.3-0.5
		c-0.6-0.3-1.2-0.8-1.6-1.4c-0.4-0.6-0.7-1.2-0.9-2c-0.2-0.8-0.3-1.6-0.3-2.4c0-0.8,0.1-1.5,0.3-2.3c0.2-0.7,0.5-1.4,0.9-1.9
		c0.4-0.6,0.9-1,1.6-1.4c0.6-0.3,1.4-0.5,2.3-0.5c1,0,2,0.3,2.7,0.8C454.6,211.6,455.1,212.4,455.3,213.5L455.3,213.5z"/>
	<line class="st1" x1="462.5" y1="216.2" x2="474.1" y2="216.2"/>
	<path d="M481.2,218.9h-5l4.9-7.3h0V218.9z M482.9,218.9v-9.8h-1.4l-6.8,9.7v1.7h6.5v3.5h1.7v-3.5h2v-1.6L482.9,218.9L482.9,218.9z
		 M488.5,216.6c0-0.4,0-0.8,0-1.2c0-0.4,0-0.9,0.1-1.3c0.1-0.4,0.2-0.9,0.3-1.3c0.1-0.4,0.3-0.8,0.5-1.1c0.2-0.3,0.5-0.6,0.9-0.8
		c0.3-0.2,0.8-0.3,1.3-0.3c0.5,0,0.9,0.1,1.3,0.3c0.3,0.2,0.6,0.4,0.9,0.8c0.2,0.3,0.4,0.7,0.5,1.1c0.1,0.4,0.2,0.9,0.3,1.3
		c0.1,0.4,0.1,0.9,0.1,1.3c0,0.4,0,0.8,0,1.2c0,0.6,0,1.2-0.1,1.9c0,0.7-0.2,1.3-0.3,2c-0.2,0.6-0.5,1.1-0.9,1.5s-1,0.6-1.8,0.6
		c-0.8,0-1.3-0.2-1.8-0.6c-0.4-0.4-0.7-0.9-0.9-1.5c-0.2-0.6-0.3-1.3-0.3-2C488.5,217.8,488.5,217.2,488.5,216.6L488.5,216.6z
		 M486.6,216.6c0,0.5,0,1.1,0,1.7c0,0.6,0.1,1.2,0.2,1.7s0.3,1.1,0.5,1.6c0.2,0.5,0.5,0.9,0.9,1.3c0.4,0.4,0.8,0.7,1.4,0.9
		c0.5,0.2,1.2,0.3,2,0.3c0.8,0,1.5-0.1,2-0.3c0.5-0.2,1-0.5,1.4-0.9c0.4-0.4,0.7-0.8,0.9-1.3c0.2-0.5,0.4-1,0.5-1.6
		c0.1-0.6,0.2-1.1,0.2-1.7c0-0.6,0-1.1,0-1.7s0-1.1,0-1.7c0-0.6-0.1-1.2-0.2-1.7c-0.1-0.6-0.3-1.1-0.5-1.6c-0.2-0.5-0.5-0.9-0.9-1.3
		c-0.4-0.4-0.8-0.7-1.4-0.9c-0.5-0.2-1.2-0.3-2-0.3c-0.8,0-1.4,0.1-2,0.3c-0.6,0.2-1,0.5-1.4,0.9c-0.4,0.4-0.6,0.8-0.9,1.3
		c-0.2,0.5-0.4,1-0.5,1.6c-0.1,0.6-0.2,1.1-0.2,1.7C486.6,215.5,486.6,216.1,486.6,216.6L486.6,216.6z"/>
	<path class="st2" d="M455.2,239.5l0.5,1.9h1.3v-7.9h-6.5v1.7h4.8c0,0.7-0.1,1.3-0.3,1.9c-0.2,0.6-0.5,1.1-0.9,1.5
		c-0.4,0.4-0.9,0.8-1.5,1c-0.6,0.3-1.3,0.4-2.1,0.4c-0.8,0-1.6-0.2-2.2-0.5c-0.6-0.3-1.2-0.8-1.6-1.3c-0.4-0.5-0.8-1.2-1-1.9
		c-0.2-0.7-0.3-1.5-0.3-2.2c0-0.8,0.1-1.6,0.3-2.3c0.2-0.8,0.5-1.4,0.9-2c0.4-0.6,0.9-1.1,1.6-1.4c0.7-0.4,1.4-0.5,2.3-0.5
		c0.6,0,1.1,0.1,1.6,0.2c0.5,0.1,0.9,0.3,1.3,0.6c0.4,0.3,0.7,0.6,1,1s0.4,0.9,0.5,1.5h2c-0.1-0.9-0.4-1.6-0.8-2.2
		c-0.4-0.6-0.9-1.1-1.4-1.5c-0.6-0.4-1.2-0.7-1.9-0.9c-0.7-0.2-1.5-0.3-2.3-0.3c-1.2,0-2.2,0.2-3.1,0.7c-0.9,0.4-1.6,1-2.2,1.8
		c-0.6,0.7-1,1.6-1.3,2.6c-0.3,1-0.4,2-0.4,3.1c0,1,0.2,1.9,0.5,2.8c0.3,0.9,0.8,1.7,1.4,2.4c0.6,0.7,1.4,1.3,2.2,1.7
		c0.9,0.4,1.9,0.6,3,0.6c0.9,0,1.7-0.2,2.6-0.5C453.9,240.9,454.7,240.3,455.2,239.5L455.2,239.5z"/>
	<path class="st2" d="M448,252.7l2.5-7h0l2.5,7H448z M449.5,243.9l-5.8,14.9h2l1.7-4.5h6.3l1.6,4.5h2.2l-5.8-14.9H449.5L449.5,243.9
		z"/>
	<path class="st2" d="M455.3,265.9h2c-0.1-0.8-0.3-1.5-0.7-2.1c-0.4-0.6-0.8-1.1-1.4-1.5c-0.5-0.4-1.2-0.7-1.9-0.9
		c-0.7-0.2-1.4-0.3-2.2-0.3c-1.1,0-2.2,0.2-3,0.6c-0.9,0.4-1.6,1-2.2,1.7c-0.6,0.7-1,1.5-1.4,2.5c-0.3,1-0.5,2-0.5,3.1
		s0.1,2.1,0.4,3.1c0.3,0.9,0.7,1.8,1.3,2.5c0.6,0.7,1.3,1.2,2.2,1.6c0.9,0.4,1.9,0.6,3,0.6c1.9,0,3.4-0.5,4.5-1.6
		c1.1-1,1.8-2.5,1.9-4.4h-2c0,0.6-0.2,1.2-0.4,1.7c-0.2,0.5-0.5,1-0.9,1.4c-0.4,0.4-0.8,0.7-1.3,0.9c-0.5,0.2-1.1,0.3-1.7,0.3
		c-0.9,0-1.7-0.2-2.3-0.5s-1.2-0.8-1.6-1.4c-0.4-0.6-0.7-1.2-0.9-2c-0.2-0.8-0.3-1.6-0.3-2.4c0-0.8,0.1-1.5,0.3-2.3
		c0.2-0.7,0.5-1.4,0.9-1.9c0.4-0.6,0.9-1,1.6-1.4c0.6-0.3,1.4-0.5,2.3-0.5c1,0,2,0.3,2.7,0.8C454.6,264.1,455.1,264.8,455.3,265.9
		L455.3,265.9z"/>
	<path class="st2" d="M456.7,288.4v-9.5h-2v9.5c0,1.3-0.3,2.4-1,3c-0.7,0.7-1.6,1-2.9,1c-1.3,0-2.4-0.3-3.1-1
		c-0.7-0.7-1.1-1.7-1.1-3v-9.5h-2v9.5c0,2,0.5,3.4,1.6,4.4c1.1,0.9,2.6,1.4,4.5,1.4s3.3-0.5,4.4-1.4
		C456.2,291.8,456.7,290.3,456.7,288.4z"/>
	<path class="st2" d="M455.3,300.9h2c-0.1-0.8-0.3-1.5-0.7-2.1c-0.4-0.6-0.8-1.1-1.4-1.5c-0.5-0.4-1.2-0.7-1.9-0.9
		c-0.7-0.2-1.4-0.3-2.2-0.3c-1.1,0-2.2,0.2-3,0.6c-0.9,0.4-1.6,1-2.2,1.7c-0.6,0.7-1,1.5-1.4,2.5c-0.3,1-0.5,2-0.5,3.1
		c0,1.1,0.1,2.1,0.4,3.1c0.3,0.9,0.7,1.8,1.3,2.5c0.6,0.7,1.3,1.2,2.2,1.6c0.9,0.4,1.9,0.6,3,0.6c1.9,0,3.4-0.5,4.5-1.6
		c1.1-1,1.8-2.5,1.9-4.4h-2c0,0.6-0.2,1.2-0.4,1.7c-0.2,0.5-0.5,1-0.9,1.4c-0.4,0.4-0.8,0.7-1.3,0.9c-0.5,0.2-1.1,0.3-1.7,0.3
		c-0.9,0-1.7-0.2-2.3-0.5c-0.6-0.3-1.2-0.8-1.6-1.4c-0.4-0.6-0.7-1.2-0.9-2c-0.2-0.8-0.3-1.6-0.3-2.4c0-0.8,0.1-1.5,0.3-2.3
		c0.2-0.7,0.5-1.4,0.9-1.9c0.4-0.6,0.9-1,1.6-1.4c0.6-0.3,1.4-0.5,2.3-0.5c1,0,2,0.3,2.7,0.8C454.6,299,455.1,299.8,455.3,300.9
		L455.3,300.9z"/>
	<path class="st2" d="M455.2,326.9l0.5,1.9h1.3v-7.9h-6.5v1.7h4.8c0,0.7-0.1,1.3-0.3,1.9c-0.2,0.6-0.5,1.1-0.9,1.5
		c-0.4,0.4-0.9,0.8-1.5,1c-0.6,0.3-1.3,0.4-2.1,0.4c-0.8,0-1.6-0.2-2.2-0.5c-0.6-0.3-1.2-0.8-1.6-1.3c-0.4-0.5-0.8-1.2-1-1.9
		s-0.3-1.5-0.3-2.2c0-0.8,0.1-1.6,0.3-2.3c0.2-0.8,0.5-1.4,0.9-2c0.4-0.6,0.9-1.1,1.6-1.4c0.7-0.4,1.4-0.5,2.3-0.5
		c0.6,0,1.1,0.1,1.6,0.2c0.5,0.1,0.9,0.3,1.3,0.6c0.4,0.3,0.7,0.6,1,1c0.3,0.4,0.4,0.9,0.5,1.5h2c-0.1-0.9-0.4-1.6-0.8-2.2
		c-0.4-0.6-0.9-1.1-1.4-1.5c-0.6-0.4-1.2-0.7-1.9-0.9c-0.7-0.2-1.5-0.3-2.3-0.3c-1.2,0-2.2,0.2-3.1,0.7c-0.9,0.4-1.6,1-2.2,1.8
		c-0.6,0.7-1,1.6-1.3,2.6c-0.3,1-0.4,2-0.4,3.1c0,1,0.2,1.9,0.5,2.8c0.3,0.9,0.8,1.7,1.4,2.4c0.6,0.7,1.4,1.3,2.2,1.7
		c0.9,0.4,1.9,0.6,3,0.6c0.9,0,1.7-0.2,2.6-0.5C453.9,328.3,454.7,327.7,455.2,326.9L455.2,326.9z"/>
	<path class="st2" d="M455.3,335.8h2c-0.1-0.8-0.3-1.5-0.7-2.1c-0.4-0.6-0.8-1.1-1.4-1.5c-0.5-0.4-1.2-0.7-1.9-0.9s-1.4-0.3-2.2-0.3
		c-1.1,0-2.2,0.2-3,0.6c-0.9,0.4-1.6,1-2.2,1.7c-0.6,0.7-1,1.5-1.4,2.5c-0.3,1-0.5,2-0.5,3.1c0,1.1,0.1,2.1,0.4,3.1
		c0.3,0.9,0.7,1.8,1.3,2.5c0.6,0.7,1.3,1.2,2.2,1.6c0.9,0.4,1.9,0.6,3,0.6c1.9,0,3.4-0.5,4.5-1.6c1.1-1,1.8-2.5,1.9-4.4h-2
		c0,0.6-0.2,1.2-0.4,1.7c-0.2,0.5-0.5,1-0.9,1.4c-0.4,0.4-0.8,0.7-1.3,0.9c-0.5,0.2-1.1,0.3-1.7,0.3c-0.9,0-1.7-0.2-2.3-0.5
		c-0.6-0.3-1.2-0.8-1.6-1.4c-0.4-0.6-0.7-1.2-0.9-2c-0.2-0.8-0.3-1.6-0.3-2.4c0-0.8,0.1-1.5,0.3-2.3c0.2-0.7,0.5-1.4,0.9-1.9
		c0.4-0.6,0.9-1,1.6-1.4c0.6-0.3,1.4-0.5,2.3-0.5c1,0,2,0.3,2.7,0.8C454.6,334,455.1,334.8,455.3,335.8L455.3,335.8z"/>
	<path class="st2" d="M455.3,353.3h2c-0.1-0.8-0.3-1.5-0.7-2.1c-0.4-0.6-0.8-1.1-1.4-1.5c-0.5-0.4-1.2-0.7-1.9-0.9s-1.4-0.3-2.2-0.3
		c-1.1,0-2.2,0.2-3,0.6c-0.9,0.4-1.6,1-2.2,1.7c-0.6,0.7-1,1.5-1.4,2.5c-0.3,1-0.5,2-0.5,3.1s0.1,2.1,0.4,3.1
		c0.3,0.9,0.7,1.8,1.3,2.5c0.6,0.7,1.3,1.2,2.2,1.6c0.9,0.4,1.9,0.6,3,0.6c1.9,0,3.4-0.5,4.5-1.6c1.1-1,1.8-2.5,1.9-4.4h-2
		c0,0.6-0.2,1.2-0.4,1.7c-0.2,0.5-0.5,1-0.9,1.4c-0.4,0.4-0.8,0.7-1.3,0.9c-0.5,0.2-1.1,0.3-1.7,0.3c-0.9,0-1.7-0.2-2.3-0.5
		c-0.6-0.3-1.2-0.8-1.6-1.4c-0.4-0.6-0.7-1.2-0.9-2c-0.2-0.8-0.3-1.6-0.3-2.4c0-0.8,0.1-1.5,0.3-2.3c0.2-0.7,0.5-1.4,0.9-1.9
		c0.4-0.6,0.9-1,1.6-1.4c0.6-0.3,1.4-0.5,2.3-0.5c1,0,2,0.3,2.7,0.8C454.6,351.5,455.1,352.2,455.3,353.3L455.3,353.3z"/>
	<path class="st0" d="M474.2,351.8h2c-0.1-0.8-0.3-1.5-0.7-2.1c-0.4-0.6-0.8-1.1-1.4-1.5s-1.2-0.7-1.9-0.9c-0.7-0.2-1.4-0.3-2.2-0.3
		c-1.1,0-2.2,0.2-3,0.6s-1.6,1-2.2,1.7c-0.6,0.7-1,1.5-1.4,2.5c-0.3,1-0.5,2-0.5,3.1s0.1,2.1,0.4,3.1c0.3,0.9,0.7,1.8,1.3,2.5
		s1.3,1.2,2.2,1.6c0.9,0.4,1.9,0.6,3,0.6c1.9,0,3.4-0.5,4.5-1.6s1.8-2.5,1.9-4.4h-2c0,0.6-0.2,1.2-0.4,1.7c-0.2,0.5-0.5,1-0.9,1.4
		c-0.4,0.4-0.8,0.7-1.3,0.9c-0.5,0.2-1.1,0.3-1.7,0.3c-0.9,0-1.7-0.2-2.3-0.5c-0.6-0.3-1.2-0.8-1.6-1.4c-0.4-0.6-0.7-1.2-0.9-2
		c-0.2-0.8-0.3-1.6-0.3-2.4c0-0.8,0.1-1.5,0.3-2.3c0.2-0.7,0.5-1.4,0.9-1.9c0.4-0.6,0.9-1,1.6-1.4c0.6-0.3,1.4-0.5,2.3-0.5
		c1,0,2,0.3,2.7,0.8C473.5,350,474,350.8,474.2,351.8L474.2,351.8z"/>
	<path class="st0" d="M491.7,360.4l0.5,1.9h1.3v-7.9h-6.5v1.7h4.8c0,0.7-0.1,1.3-0.3,1.9c-0.2,0.6-0.5,1.1-0.9,1.5
		c-0.4,0.4-0.9,0.8-1.5,1s-1.3,0.4-2.1,0.4c-0.8,0-1.6-0.2-2.2-0.5c-0.6-0.3-1.2-0.8-1.6-1.3c-0.4-0.5-0.8-1.2-1-1.9
		s-0.3-1.5-0.3-2.2c0-0.8,0.1-1.6,0.3-2.3c0.2-0.8,0.5-1.4,0.9-2c0.4-0.6,0.9-1.1,1.6-1.4c0.7-0.4,1.4-0.5,2.3-0.5
		c0.6,0,1.1,0.1,1.6,0.2c0.5,0.1,0.9,0.3,1.3,0.6c0.4,0.3,0.7,0.6,1,1c0.3,0.4,0.4,0.9,0.5,1.5h2c-0.1-0.9-0.4-1.6-0.8-2.2
		c-0.4-0.6-0.9-1.1-1.4-1.5c-0.6-0.4-1.2-0.7-1.9-0.9c-0.7-0.2-1.5-0.3-2.3-0.3c-1.2,0-2.2,0.2-3.1,0.7c-0.9,0.4-1.6,1-2.2,1.8
		c-0.6,0.7-1,1.6-1.3,2.6c-0.3,1-0.4,2-0.4,3.1c0,1,0.2,1.9,0.5,2.8s0.8,1.7,1.4,2.4c0.6,0.7,1.4,1.3,2.2,1.7c0.9,0.4,1.9,0.6,3,0.6
		c0.9,0,1.7-0.2,2.6-0.5C490.4,361.8,491.1,361.2,491.7,360.4L491.7,360.4z"/>
	<line class="st1" x1="487.2" y1="343" x2="487.2" y2="331.3"/>
	<path d="M485.2,312.7v-1.6h-7.3l-1.4,7.7l1.5,0.1c0.3-0.4,0.8-0.8,1.2-1c0.5-0.3,1-0.4,1.6-0.4c0.5,0,1,0.1,1.4,0.3
		c0.4,0.2,0.8,0.4,1.1,0.7c0.3,0.3,0.5,0.7,0.7,1.1s0.2,0.9,0.2,1.4c0,0.6-0.1,1.1-0.3,1.5c-0.2,0.4-0.4,0.8-0.7,1.1
		c-0.3,0.3-0.6,0.5-1,0.7c-0.4,0.1-0.8,0.2-1.2,0.2c-0.4,0-0.9-0.1-1.2-0.2c-0.4-0.1-0.7-0.3-1-0.6c-0.3-0.3-0.5-0.5-0.7-0.9
		c-0.2-0.3-0.3-0.7-0.3-1.1h-1.8c0,0.7,0.1,1.3,0.4,1.8s0.6,1,1,1.3c0.4,0.3,0.9,0.6,1.5,0.8c0.6,0.2,1.2,0.3,1.8,0.3
		c0.9,0,1.6-0.1,2.3-0.4c0.6-0.3,1.2-0.6,1.6-1.1s0.8-1,1-1.6s0.3-1.2,0.3-1.8c0-0.9-0.1-1.6-0.4-2.2c-0.3-0.6-0.6-1.2-1-1.6
		c-0.4-0.4-0.9-0.7-1.5-0.9c-0.6-0.2-1.2-0.3-1.9-0.3c-0.5,0-1,0.1-1.5,0.3c-0.5,0.2-0.9,0.4-1.2,0.8l0,0l0.8-4.3L485.2,312.7
		L485.2,312.7z M489.8,318.4c0-0.4,0-0.8,0-1.2c0-0.4,0-0.9,0.1-1.3c0.1-0.4,0.2-0.9,0.3-1.3c0.1-0.4,0.3-0.8,0.5-1.1
		c0.2-0.3,0.5-0.6,0.9-0.8c0.3-0.2,0.8-0.3,1.3-0.3c0.5,0,0.9,0.1,1.3,0.3c0.3,0.2,0.6,0.4,0.9,0.8c0.2,0.3,0.4,0.7,0.5,1.1
		c0.1,0.4,0.2,0.9,0.3,1.3c0.1,0.4,0.1,0.9,0.1,1.3c0,0.4,0,0.8,0,1.2c0,0.6,0,1.2-0.1,1.9c0,0.7-0.1,1.3-0.3,1.9s-0.5,1.1-0.9,1.5
		c-0.4,0.4-1,0.6-1.8,0.6s-1.3-0.2-1.8-0.6c-0.4-0.4-0.7-0.9-0.9-1.5c-0.2-0.6-0.3-1.3-0.3-1.9C489.8,319.6,489.8,319,489.8,318.4z
		 M487.9,318.4c0,0.5,0,1.1,0,1.7s0.1,1.2,0.2,1.7c0.1,0.6,0.3,1.1,0.5,1.6c0.2,0.5,0.5,0.9,0.9,1.3c0.4,0.4,0.8,0.7,1.4,0.9
		c0.5,0.2,1.2,0.3,2,0.3s1.4-0.1,2-0.3c0.5-0.2,1-0.5,1.4-0.9c0.4-0.4,0.7-0.8,0.9-1.3c0.2-0.5,0.4-1,0.5-1.6
		c0.1-0.6,0.2-1.1,0.2-1.7s0-1.2,0-1.7s0-1.1,0-1.7c0-0.6-0.1-1.2-0.2-1.7c-0.1-0.6-0.3-1.1-0.5-1.6c-0.2-0.5-0.5-0.9-0.9-1.3
		c-0.4-0.4-0.8-0.7-1.4-0.9s-1.2-0.3-2-0.3c-0.8,0-1.4,0.1-2,0.3s-1,0.5-1.4,0.9s-0.7,0.8-0.9,1.3c-0.2,0.5-0.4,1-0.5,1.6
		c-0.1,0.6-0.2,1.1-0.2,1.7S487.9,317.9,487.9,318.4L487.9,318.4z"/>
	<path class="st0" d="M501.9,356.1l2.5-7h0l2.5,7H501.9z M503.4,347.3l-5.8,14.9h2l1.7-4.5h6.3l1.6,4.5h2.2l-5.8-14.9H503.4
		L503.4,347.3z"/>
	<g>
		<line class="st1" x1="422.8" y1="356.1" x2="443.8" y2="356.1"/>
		<line class="st1" x1="422.8" y1="338.6" x2="443.8" y2="338.6"/>
	</g>
	<path d="M430.3,322.9l0.1,0.2l0.1,0.2l0.1,0.2l0.2,0.2l0.2,0.2l0.2,0.1l0.2,0.1l0.2,0.1l0.2,0.1l0.2,0.1l0.2,0.1l0.2,0.1l0.2,0.1
		l0.2,0l0.2,0h0.2h0.2h0.2l0.2-0.1l0.2,0l0.2-0.1l0.2-0.1l0.2-0.1l0.2-0.1l0.2-0.1l0.2-0.1l0.2-0.1l0.2-0.1l0.2-0.2l0.2-0.2l0.1-0.2
		l0.1-0.2l0.1-0.2l0.1-0.2l0.1-0.2l0.1-0.2l0.1-0.2l0.1-0.2l0-0.2l0-0.2v-0.2v-0.2l0-0.2l0-0.2l-0.1-0.2l-0.1-0.2l-0.1-0.2l-0.1-0.2
		l-0.1-0.2l-0.1-0.2l-0.1-0.2l-0.1-0.2l-0.2-0.2l-0.2-0.2l-0.2-0.1l-0.2-0.1l-0.2-0.1L435,318l-0.2-0.1l-0.2-0.1l-0.2-0.1l-0.2-0.1
		l-0.2,0l-0.2,0h-0.2l-0.2,0H433l-0.2,0l-0.2,0l-0.2,0.1l-0.2,0.1l-0.2,0.1l-0.2,0.1l-0.2,0.1l-0.2,0.1l-0.2,0.1l-0.2,0.1l-0.2,0.2
		l-0.2,0.2l-0.1,0.2l-0.1,0.2l-0.1,0.2l-0.1,0.2l-0.1,0.2l-0.1,0.2l-0.1,0.2l-0.1,0.2l0,0.2l0,0.2v0.2l0,0.2v0.2l0,0.2l0,0.2
		l0.1,0.2l0.1,0.2l0.1,0.2l0.1,0.2L430.3,322.9L430.3,322.9z"/>
	<g>
		<path class="st3" d="M436.8,321.1v-0.2l0-0.2l0-0.2l-0.1-0.2l-0.1-0.2l-0.1-0.2l-0.1-0.2l-0.1-0.2l-0.1-0.2l-0.1-0.2l-0.1-0.2
			l-0.2-0.2l-0.2-0.2l-0.2-0.1l-0.2-0.1l-0.2-0.1L435,318l-0.2-0.1l-0.2-0.1l-0.2-0.1l-0.2-0.1l-0.2,0l-0.2,0h-0.2l-0.2,0H433
			l-0.2,0l-0.2,0l-0.2,0.1l-0.2,0.1l-0.2,0.1l-0.2,0.1l-0.2,0.1l-0.2,0.1l-0.2,0.1l-0.2,0.1l-0.2,0.2l-0.2,0.2l-0.1,0.2l-0.1,0.2
			l-0.1,0.2l-0.1,0.2l-0.1,0.2l-0.1,0.2l-0.1,0.2l-0.1,0.2l0,0.2l0,0.2v0.2l0,0.2v0.2l0,0.2l0,0.2l0.1,0.2l0.1,0.2l0.1,0.2l0.1,0.2
			l0.1,0.2l0.1,0.2l0.1,0.2l0.1,0.2l0.2,0.2l0.2,0.2l0.2,0.1l0.2,0.1l0.2,0.1l0.2,0.1l0.2,0.1l0.2,0.1l0.2,0.1l0.2,0.1l0.2,0l0.2,0
			h0.2h0.2h0.2l0.2-0.1l0.2,0l0.2-0.1l0.2-0.1l0.2-0.1l0.2-0.1l0.2-0.1l0.2-0.1l0.2-0.1l0.2-0.1l0.2-0.2l0.2-0.2l0.1-0.2l0.1-0.2
			l0.1-0.2l0.1-0.2l0.1-0.2l0.1-0.2l0.1-0.2l0.1-0.2l0-0.2l0-0.2V321.1L436.8,321.1"/>
		<line class="st1" x1="422.8" y1="303.6" x2="443.8" y2="303.6"/>
		<line class="st1" x1="422.8" y1="286.2" x2="443.8" y2="286.2"/>
		<line class="st1" x1="422.8" y1="268.7" x2="443.8" y2="268.7"/>
		<line class="st1" x1="422.8" y1="251.2" x2="443.8" y2="251.2"/>
		<line class="st1" x1="422.8" y1="233.7" x2="443.8" y2="233.7"/>
		<line class="st1" x1="422.8" y1="216.2" x2="443.8" y2="216.2"/>
		<line class="st1" x1="422.8" y1="198.7" x2="443.8" y2="198.7"/>
	</g>
	<path d="M430.3,183.1l0.1,0.2l0.1,0.2l0.1,0.2l0.2,0.2l0.2,0.2l0.2,0.1l0.2,0.1l0.2,0.1l0.2,0.1l0.2,0.1l0.2,0.1l0.2,0.1l0.2,0.1
		l0.2,0l0.2,0h0.2h0.2h0.2l0.2-0.1l0.2,0l0.2-0.1l0.2-0.1l0.2-0.1l0.2-0.1l0.2-0.1l0.2-0.1l0.2-0.1l0.2-0.1l0.2-0.2l0.2-0.2l0.1-0.2
		l0.1-0.2l0.1-0.2l0.1-0.2l0.1-0.2l0.1-0.2l0.1-0.2l0.1-0.2l0-0.2l0-0.2v-0.2V181l0-0.2l0-0.2l-0.1-0.2l-0.1-0.2l-0.1-0.2l-0.1-0.2
		l-0.1-0.2l-0.1-0.2l-0.1-0.2L436,179l-0.2-0.2l-0.2-0.2l-0.2-0.1l-0.2-0.1l-0.2-0.1l-0.2-0.1l-0.2-0.1l-0.2-0.1l-0.2-0.1l-0.2-0.1
		l-0.2,0l-0.2,0h-0.2l-0.2,0H433l-0.2,0l-0.2,0l-0.2,0.1l-0.2,0.1l-0.2,0.1l-0.2,0.1l-0.2,0.1l-0.2,0.1l-0.2,0.1l-0.2,0.1l-0.2,0.2
		l-0.2,0.2l-0.1,0.2l-0.1,0.2l-0.1,0.2l-0.1,0.2l-0.1,0.2l-0.1,0.2l-0.1,0.2l-0.1,0.2l0,0.2l0,0.2v0.2l0,0.2v0.2l0,0.2l0,0.2
		l0.1,0.2l0.1,0.2l0.1,0.2l0.1,0.2L430.3,183.1L430.3,183.1z"/>
	<path class="st3" d="M436.8,181.3V181l0-0.2l0-0.2l-0.1-0.2l-0.1-0.2l-0.1-0.2l-0.1-0.2l-0.1-0.2l-0.1-0.2l-0.1-0.2L436,179
		l-0.2-0.2l-0.2-0.2l-0.2-0.1l-0.2-0.1l-0.2-0.1l-0.2-0.1l-0.2-0.1l-0.2-0.1l-0.2-0.1l-0.2-0.1l-0.2,0l-0.2,0h-0.2l-0.2,0H433
		l-0.2,0l-0.2,0l-0.2,0.1l-0.2,0.1l-0.2,0.1l-0.2,0.1l-0.2,0.1l-0.2,0.1l-0.2,0.1l-0.2,0.1l-0.2,0.2l-0.2,0.2l-0.1,0.2l-0.1,0.2
		l-0.1,0.2l-0.1,0.2l-0.1,0.2l-0.1,0.2l-0.1,0.2l-0.1,0.2l0,0.2l0,0.2v0.2l0,0.2v0.2l0,0.2l0,0.2l0.1,0.2l0.1,0.2l0.1,0.2l0.1,0.2
		l0.1,0.2l0.1,0.2l0.1,0.2l0.1,0.2l0.2,0.2l0.2,0.2l0.2,0.1l0.2,0.1l0.2,0.1l0.2,0.1l0.2,0.1l0.2,0.1l0.2,0.1l0.2,0.1l0.2,0l0.2,0
		h0.2h0.2h0.2l0.2-0.1l0.2,0l0.2-0.1l0.2-0.1l0.2-0.1l0.2-0.1l0.2-0.1l0.2-0.1l0.2-0.1l0.2-0.1l0.2-0.2l0.2-0.2l0.1-0.2l0.1-0.2
		l0.1-0.2l0.1-0.2l0.1-0.2l0.1-0.2l0.1-0.2l0.1-0.2l0-0.2l0-0.2V181.3L436.8,181.3"/>
	<path d="M529.9,352.6v1.5c0.3,0,0.7-0.1,1.1-0.1c0.4,0,0.9,0.1,1.2,0.2c0.4,0.1,0.7,0.3,1,0.5c0.3,0.3,0.5,0.5,0.7,0.9
		c0.2,0.3,0.3,0.8,0.3,1.2c0,0.4-0.1,0.9-0.3,1.2c-0.2,0.4-0.4,0.7-0.7,0.9c-0.3,0.2-0.6,0.4-1,0.6c-0.4,0.1-0.8,0.2-1.2,0.2
		c-1,0-1.8-0.3-2.3-0.9c-0.5-0.6-0.8-1.4-0.8-2.4H526c0,0.8,0.1,1.5,0.3,2.1c0.2,0.6,0.6,1.1,1,1.5s0.9,0.7,1.6,0.9
		c0.6,0.2,1.3,0.3,2.1,0.3c0.7,0,1.4-0.1,2-0.3c0.6-0.2,1.2-0.5,1.6-0.9c0.5-0.4,0.8-0.9,1.1-1.4c0.3-0.6,0.4-1.2,0.4-2
		c0-0.9-0.2-1.7-0.7-2.3c-0.4-0.7-1.1-1.1-2-1.3v0c0.6-0.3,1.1-0.7,1.5-1.2c0.4-0.5,0.6-1.1,0.6-1.8c0-0.7-0.1-1.3-0.3-1.8
		c-0.2-0.5-0.5-0.9-0.9-1.2c-0.4-0.3-0.9-0.6-1.4-0.7c-0.5-0.2-1.1-0.2-1.8-0.2c-0.7,0-1.4,0.1-2,0.4c-0.6,0.2-1,0.6-1.4,1
		c-0.4,0.4-0.7,0.9-0.9,1.5c-0.2,0.6-0.3,1.2-0.3,1.9h1.8c0-0.4,0.1-0.9,0.2-1.2c0.1-0.4,0.3-0.7,0.5-1c0.2-0.3,0.5-0.5,0.9-0.7
		c0.3-0.2,0.8-0.3,1.2-0.3c0.8,0,1.4,0.2,1.9,0.6c0.5,0.4,0.8,1,0.8,1.8c0,0.4-0.1,0.7-0.2,1c-0.2,0.3-0.4,0.6-0.6,0.8
		c-0.3,0.2-0.6,0.3-0.9,0.5c-0.3,0.1-0.7,0.2-1.1,0.2h-0.6C530.1,352.7,530,352.7,529.9,352.6L529.9,352.6z M539.2,346.2v5.4h1.4
		v-5.4H539.2z"/>
	<path d="M193.3,350.9v-1.6h-7.3l-1.4,7.7l1.5,0.1c0.3-0.4,0.8-0.8,1.2-1c0.5-0.3,1-0.4,1.6-0.4c0.5,0,1,0.1,1.4,0.3
		c0.4,0.2,0.8,0.4,1.1,0.7c0.3,0.3,0.5,0.7,0.7,1.1c0.2,0.4,0.2,0.9,0.2,1.4c0,0.6-0.1,1.1-0.3,1.5c-0.2,0.4-0.4,0.8-0.7,1.1
		c-0.3,0.3-0.6,0.5-1,0.7c-0.4,0.1-0.8,0.2-1.2,0.2c-0.4,0-0.9-0.1-1.2-0.2c-0.4-0.1-0.7-0.3-1-0.6c-0.3-0.3-0.5-0.5-0.6-0.9
		c-0.2-0.3-0.3-0.7-0.3-1.1h-1.8c0,0.7,0.2,1.3,0.4,1.8s0.6,1,1,1.3c0.4,0.4,0.9,0.6,1.5,0.8c0.6,0.2,1.2,0.3,1.8,0.3
		c0.9,0,1.6-0.1,2.3-0.4c0.6-0.3,1.2-0.6,1.6-1.1c0.4-0.5,0.8-1,1-1.6c0.2-0.6,0.3-1.2,0.3-1.8c0-0.9-0.1-1.6-0.4-2.2
		c-0.3-0.6-0.6-1.2-1-1.6c-0.4-0.4-0.9-0.7-1.5-0.9c-0.6-0.2-1.2-0.3-1.9-0.3c-0.5,0-1,0.1-1.5,0.3c-0.5,0.2-0.9,0.4-1.2,0.8l0,0
		l0.8-4.3L193.3,350.9L193.3,350.9z M197.3,349v5.4h1.4V349H197.3z"/>
</g>
<text transform="matrix(1 0 0 1 26.8658 34.5409)" class="st4 st5">T</text>
<text transform="matrix(1 0 0 1 38.3458 34.5409)" class="st4 st5">r7 apatamer</text>
</svg>
