<?xml version="1.0" encoding="UTF-8"?>
<svg id="_图层_1" data-name="图层 1" xmlns="http://www.w3.org/2000/svg" version="1.1" viewBox="0 0 800 400">
  <defs>
    <style>
      .cls-1 {
        fill: #80db9e;
      }

      .cls-1, .cls-2, .cls-3, .cls-4, .cls-5 {
        font-family: ArialMT, Arial;
      }

      .cls-1, .cls-3, .cls-5 {
        font-size: 12.5px;
      }

      .cls-6 {
        stroke: #242424;
      }

      .cls-6, .cls-7 {
        fill: none;
        stroke-miterlimit: 10;
        stroke-width: .5px;
      }

      .cls-2 {
        fill: #242424;
        font-size: 9.6px;
      }

      .cls-8, .cls-4 {
        isolation: isolate;
      }

      .cls-7 {
        stroke: #000;
      }

      .cls-3 {
        fill: #c2c2ff;
      }

      .cls-4 {
        fill: #000;
        font-size: 25px;
      }

      .cls-5 {
        fill: #ff870a;
      }
    </style>
  </defs>
  <text class="cls-3" transform="translate(469.5 312.1)"><tspan x="0" y="0">G</tspan></text>
  <text class="cls-3" transform="translate(456.6 310.4)"><tspan x="0" y="0">G</tspan></text>
  <text class="cls-1" transform="translate(444.9 307.3)"><tspan x="0" y="0">G</tspan></text>
  <text class="cls-1" transform="translate(437.1 318.7)"><tspan x="0" y="0">U</tspan></text>
  <text class="cls-1" transform="translate(429.9 326.4)"><tspan x="0" y="0">C</tspan></text>
  <text class="cls-1" transform="translate(420.3 335.8)"><tspan x="0" y="0">G</tspan></text>
  <text class="cls-1" transform="translate(410.3 344)"><tspan x="0" y="0">U</tspan></text>
  <text class="cls-1" transform="translate(401.4 355.2)"><tspan x="0" y="0">G</tspan></text>
  <text class="cls-1" transform="translate(390.6 364.1)"><tspan x="0" y="0">U</tspan></text>
  <text class="cls-1" transform="translate(382.1 372.6)"><tspan x="0" y="0">C</tspan></text>
  <text class="cls-3" transform="translate(378.7 384)"><tspan x="0" y="0">G</tspan></text>
  <text class="cls-3" transform="translate(370.8 396)"><tspan x="0" y="0">G</tspan></text>
  <text class="cls-3" transform="translate(356.7 396)"><tspan x="0" y="0">A</tspan></text>
  <text class="cls-3" transform="translate(345 391.2)"><tspan x="0" y="0">U</tspan></text>
  <text class="cls-3" transform="translate(339.1 376.8)"><tspan x="0" y="0">C</tspan></text>
  <text class="cls-3" transform="translate(340.8 363.2)"><tspan x="0" y="0">C</tspan></text>
  <text class="cls-3" transform="translate(352.5 356.4)"><tspan x="0" y="0">A</tspan></text>
  <text class="cls-1" transform="translate(363.3 350.6)"><tspan x="0" y="0">G</tspan></text>
  <text class="cls-1" transform="translate(373.1 340)"><tspan x="0" y="0">G</tspan></text>
  <text class="cls-1" transform="translate(382.7 332.5)"><tspan x="0" y="0">C</tspan></text>
  <text class="cls-1" transform="translate(391.2 323.4)"><tspan x="0" y="0">A</tspan></text>
  <text class="cls-1" transform="translate(400.6 317.6)"><tspan x="0" y="0">C</tspan></text>
  <text class="cls-1" transform="translate(407.1 307.5)"><tspan x="0" y="0">G</tspan></text>
  <text class="cls-1" transform="translate(416.6 297.4)"><tspan x="0" y="0">A</tspan></text>
  <text class="cls-1" transform="translate(425 288.4)"><tspan x="0" y="0">C</tspan></text>
  <text class="cls-3" transform="translate(422 272.8)"><tspan x="0" y="0">G</tspan></text>
  <text class="cls-3" transform="translate(420.7 257.9)"><tspan x="0" y="0">C</tspan></text>
  <text class="cls-3" transform="translate(422.2 245.2)"><tspan x="0" y="0">A</tspan></text>
  <text class="cls-3" transform="translate(429.2 233)"><tspan x="0" y="0">U</tspan></text>
  <text class="cls-3" transform="translate(440.2 225.4)"><tspan x="0" y="0">A</tspan></text>
  <text class="cls-5" transform="translate(446.5 217.9)"><tspan x="0" y="0">G</tspan></text>
  <text class="cls-5" transform="translate(446.5 204.4)"><tspan x="0" y="0">C</tspan></text>
  <text class="cls-5" transform="translate(446.5 190.9)"><tspan x="0" y="0">C</tspan></text>
  <text class="cls-5" transform="translate(446.5 177.4)"><tspan x="0" y="0">U</tspan></text>
  <text class="cls-5" transform="translate(446.5 163.9)"><tspan x="0" y="0">U</tspan></text>
  <text class="cls-5" transform="translate(446.5 150.4)"><tspan x="0" y="0">G</tspan></text>
  <text class="cls-5" transform="translate(446.5 136.9)"><tspan x="0" y="0">G</tspan></text>
  <text class="cls-5" transform="translate(446.5 123.5)"><tspan x="0" y="0">G</tspan></text>
  <text class="cls-5" transform="translate(446.5 110)"><tspan x="0" y="0">A</tspan></text>
  <text class="cls-5" transform="translate(446.5 96.5)"><tspan x="0" y="0">G</tspan></text>
  <text class="cls-5" transform="translate(446.5 83)"><tspan x="0" y="0">C</tspan></text>
  <text class="cls-3" transform="translate(438.5 71.6)"><tspan x="0" y="0">G</tspan></text>
  <text class="cls-3" transform="translate(440.1 55.7)"><tspan x="0" y="0">A</tspan></text>
  <text class="cls-3" transform="translate(446.5 47.1)"><tspan x="0" y="0">G</tspan></text>
  <text class="cls-3" transform="translate(462.2 43)"><tspan x="0" y="0">G</tspan></text>
  <text class="cls-3" transform="translate(475 48.3)"><tspan x="0" y="0">A</tspan></text>
  <text class="cls-3" transform="translate(483.4 57.3)"><tspan x="0" y="0">A</tspan></text>
  <text class="cls-3" transform="translate(483.4 70)"><tspan x="0" y="0">A</tspan></text>
  <text class="cls-5" transform="translate(474.4 83)"><tspan x="0" y="0">G</tspan></text>
  <text class="cls-5" transform="translate(474.4 96.5)"><tspan x="0" y="0">C</tspan></text>
  <text class="cls-5" transform="translate(474.4 110)"><tspan x="0" y="0">U</tspan></text>
  <text class="cls-5" transform="translate(474.4 123.5)"><tspan x="0" y="0">U</tspan></text>
  <text class="cls-5" transform="translate(474.4 136.9)"><tspan x="0" y="0">C</tspan></text>
  <text class="cls-5" transform="translate(474.4 150.4)"><tspan x="0" y="0">U</tspan></text>
  <text class="cls-5" transform="translate(474.4 163.9)"><tspan x="0" y="0">A</tspan></text>
  <text class="cls-5" transform="translate(474.4 177.4)"><tspan x="0" y="0">A</tspan></text>
  <text class="cls-5" transform="translate(474.4 190.9)"><tspan x="0" y="0">G</tspan></text>
  <text class="cls-5" transform="translate(474.4 204.4)"><tspan x="0" y="0">G</tspan></text>
  <text class="cls-5" transform="translate(474.4 217.9)"><tspan x="0" y="0">U</tspan></text>
  <text class="cls-3" transform="translate(484.6 222.8)"><tspan x="0" y="0">A</tspan></text>
  <text class="cls-3" transform="translate(494.9 233)"><tspan x="0" y="0">A</tspan></text>
  <text class="cls-3" transform="translate(503.2 245.2)"><tspan x="0" y="0">C</tspan></text>
  <text class="cls-3" transform="translate(507 258)"><tspan x="0" y="0">G</tspan></text>
  <text class="cls-3" transform="translate(509.2 271)"><tspan x="0" y="0">A</tspan></text>
  <text class="cls-3" transform="translate(506 285.6)"><tspan x="0" y="0">U</tspan></text>
  <text class="cls-2" transform="translate(482.7 312.1)"><tspan x="0" y="0">5’</tspan></text>
  <text class="cls-2" transform="translate(511.8 296.5)"><tspan x="0" y="0">3’</tspan></text>
  <text class="cls-2" transform="translate(400.4 383.9)"><tspan x="0" y="0">10</tspan></text>
  <text class="cls-2" transform="translate(365.3 315.6)"><tspan x="0" y="0">20</tspan></text>
  <text class="cls-2" transform="translate(419.9 214.9)"><tspan x="0" y="0">30</tspan></text>
  <text class="cls-2" transform="translate(424.6 96.5)"><tspan x="0" y="0">40</tspan></text>
  <text class="cls-2" transform="translate(492.7 96.5)"><tspan x="0" y="0">50</tspan></text>
  <text class="cls-2" transform="translate(502.9 209)"><tspan x="0" y="0">60</tspan></text>
  <line class="cls-7" x1="456.4" y1="197.5" x2="471.7" y2="197.5"/>
  <line class="cls-7" x1="456.4" y1="212.9" x2="471.7" y2="212.9"/>
  <line class="cls-7" x1="434.6" y1="288.4" x2="445.7" y2="296.5"/>
  <line class="cls-7" x1="425.9" y1="298.3" x2="437.1" y2="306.4"/>
  <line class="cls-7" x1="418" y1="306.4" x2="429.2" y2="314.5"/>
  <line class="cls-7" x1="411" y1="314.1" x2="422.2" y2="322.2"/>
  <line class="cls-7" x1="399.6" y1="323.4" x2="410.7" y2="331.5"/>
  <line class="cls-7" x1="390.6" y1="333.4" x2="401.8" y2="341.5"/>
  <line class="cls-7" x1="382.7" y1="342.1" x2="393.9" y2="350.2"/>
  <line class="cls-7" x1="373.1" y1="351.2" x2="384.3" y2="359.3"/>
  <line class="cls-7" x1="456.4" y1="183.7" x2="471.7" y2="183.7"/>
  <line class="cls-7" x1="456.4" y1="171.4" x2="471.7" y2="171.4"/>
  <line class="cls-7" x1="456.4" y1="158.4" x2="471.7" y2="158.4"/>
  <line class="cls-7" x1="456.4" y1="145.4" x2="471.7" y2="145.4"/>
  <line class="cls-7" x1="456.4" y1="132.4" x2="471.7" y2="132.4"/>
  <line class="cls-7" x1="456.4" y1="119.4" x2="471.7" y2="119.4"/>
  <line class="cls-7" x1="456.4" y1="106.3" x2="471.7" y2="106.3"/>
  <line class="cls-7" x1="456.6" y1="78.6" x2="471.9" y2="78.6"/>
  <line class="cls-7" x1="456.6" y1="93.2" x2="471.9" y2="93.2"/>
  <line class="cls-6" x1="435.8" y1="93.2" x2="444.5" y2="93.2"/>
  <line class="cls-6" x1="484.6" y1="93.2" x2="493.3" y2="93.2"/>
  <line class="cls-6" x1="431.5" y1="212.5" x2="440.9" y2="217.5"/>
  <line class="cls-6" x1="374.5" y1="317.4" x2="382.8" y2="324"/>
  <line class="cls-6" x1="392" y1="371.4" x2="400.4" y2="378"/>
  <line class="cls-6" x1="492.9" y1="218.8" x2="501.7" y2="211"/>
  <g class="cls-8">
    <g class="cls-8">
      <g class="cls-8">
        <g class="cls-8">
          <text class="cls-4" transform="translate(143.2 21)"><tspan x="0" y="0">Gastrointestinal carcinoembryonic antigen-aptamer</tspan></text>
        </g>
      </g>
    </g>
  </g>
</svg>