<?xml version="1.0" encoding="utf-8"?>
<!-- Generator: Adobe Illustrator 25.2.0, SVG Export Plug-In . SVG Version: 6.00 Build 0)  -->
<svg version="1.1" id="图层_1" xmlns="http://www.w3.org/2000/svg" xmlns:xlink="http://www.w3.org/1999/xlink" x="0px" y="0px"
	 viewBox="0 0 400 400" style="enable-background:new 0 0 400 400;" xml:space="preserve">
<style type="text/css">
	.st0{fill:#999999;}
	.st1{font-family:'ArialMT';}
	.st2{font-size:15.21px;}
	.st3{fill:#B83233;}
	.st4{fill:#C2B617;}
	.st5{fill:none;stroke:#000000;stroke-miterlimit:1.11;}
	.st6{stroke:#000000;stroke-width:0.14;stroke-miterlimit:1.11;}
	.st7{fill:#084595;}
	.st8{fill:#CF3E7D;}
	.st9{fill:#18988C;}
	.st10{fill:none;stroke:#000000;stroke-width:0.64;stroke-miterlimit:1.11;}
	.st11{fill:none;stroke:#000000;stroke-miterlimit:10;}
	.st12{font-size:20px;}
	.st13{font-size:18px;}
</style>
<g id="ID000002">
	<text transform="matrix(1 0 0 1 59.98 272.66)" class="st0 st1 st2">A</text>
</g>
<g id="ID000003">
	<text transform="matrix(1 0 0 1 59.14 257.95)" class="st0 st1 st2">G</text>
</g>
<g id="ID000004">
	<text transform="matrix(1 0 0 1 59.14 243.24)" class="st3 st1 st2">G</text>
</g>
<g id="ID000005">
	<text transform="matrix(1 0 0 1 59.14 228.54)" class="st3 st1 st2">G</text>
</g>
<g id="ID000006">
	<text transform="matrix(1 0 0 1 59.98 213.83)" class="st3 st1 st2">A</text>
</g>
<g id="ID000007">
	<text transform="matrix(1 0 0 1 59.14 199.12)" class="st3 st1 st2">G</text>
</g>
<g id="ID000008">
	<text transform="matrix(1 0 0 1 49.33 179.51)" class="st3 st1 st2">G</text>
</g>
<g id="ID000009">
	<g>
		<text transform="matrix(1 0 0 1 97.14 179.51)" class="st3 st1 st2">G</text>
	</g>
</g>
<g id="ID000012">
	<g>
		<text transform="matrix(1 0 0 1 88.98 199.12)" class="st3 st1 st2">C</text>
	</g>
</g>
<g id="ID000013">
	<g>
		<text transform="matrix(1 0 0 1 88.98 213.83)" class="st3 st1 st2">U</text>
	</g>
</g>
<g id="ID000014">
	<g>
		<text transform="matrix(1 0 0 1 88.98 228.54)" class="st3 st1 st2">U</text>
	</g>
</g>
<g id="ID000015">
	<g>
		<text transform="matrix(1 0 0 1 88.98 243.24)" class="st3 st1 st2">C</text>
	</g>
</g>
<g id="ID000016">
	<text transform="matrix(1 0 0 1 88.56 257.95)" class="st4 st1 st2">G</text>
</g>
<g id="ID000017">
	<text transform="matrix(1 0 0 1 91.41 272.66)" class="st4 st1 st2">A</text>
</g>
<g id="ID000018">
	<text transform="matrix(1 0 0 1 90.18 289.96)" class="st4 st1 st2">G</text>
</g>
<g id="ID000019">
	<text transform="matrix(1 0 0 1 94.27 308.16)" class="st4 st1 st2">C</text>
</g>
<g id="ID000020">
	<text transform="matrix(1 0 0 1 101.06 326.54)" class="st4 st1 st2">G</text>
</g>
<g id="ID000021">
	<g>
		<text transform="matrix(1 0 0 1 119.62 337.62)" class="st4 st1 st2">U</text>
	</g>
</g>
<g id="ID000022">
	<line class="st5" x1="132.1" y1="324.1" x2="139" y2="317.1"/>
</g>
<g id="ID000023">
	<text transform="matrix(1 0 0 1 138.98 313.46)" class="st1 st2">30</text>
</g>
<g id="ID000024">
	<g>
		<text transform="matrix(1 0 0 1 134.75 337.62)" class="st4 st1 st2">A</text>
	</g>
</g>
<g id="ID000025">
	<g>
		<text transform="matrix(1 0 0 1 148.61 337.62)" class="st4 st1 st2">G</text>
	</g>
</g>
<g id="ID000026">
	<line class="st5" x1="70.9" y1="236.6" x2="88.6" y2="236.6"/>
</g>
<g id="ID000027">
	<polygon class="st6" points="82.7,221.9 82.7,221.7 82.7,221.5 82.7,221.4 82.6,221.2 82.6,221 82.5,220.8 82.4,220.6 82.3,220.5 
		82.2,220.3 82.1,220.2 82,220 81.9,219.9 81.8,219.8 81.6,219.6 81.5,219.5 81.3,219.4 81.2,219.3 81,219.2 80.8,219.2 80.6,219.1 
		80.5,219.1 80.3,219 80.1,219 79.9,219 79.7,219 79.5,219 79.3,219 79.2,219 79,219.1 78.8,219.1 78.6,219.2 78.5,219.3 
		78.3,219.4 78.1,219.5 78,219.6 77.8,219.7 77.7,219.8 77.6,220 77.4,220.1 77.3,220.2 77.2,220.4 77.2,220.6 77.1,220.7 77,220.9 
		76.9,221.1 76.9,221.3 76.9,221.4 76.8,221.6 76.8,221.8 76.8,222 76.8,222.2 76.9,222.4 76.9,222.6 76.9,222.7 77,222.9 
		77.1,223.1 77.2,223.3 77.2,223.4 77.3,223.6 77.4,223.7 77.6,223.9 77.7,224 77.8,224.1 78,224.3 78.1,224.4 78.3,224.5 
		78.5,224.5 78.6,224.6 78.8,224.7 79,224.7 79.2,224.8 79.3,224.8 79.5,224.8 79.7,224.9 79.9,224.9 80.1,224.8 80.3,224.8 
		80.5,224.8 80.6,224.7 80.8,224.7 81,224.6 81.2,224.5 81.3,224.4 81.5,224.3 81.6,224.2 81.8,224.1 81.9,223.9 82,223.8 
		82.1,223.7 82.2,223.5 82.3,223.3 82.4,223.2 82.5,223 82.6,222.8 82.6,222.7 82.7,222.5 82.7,222.3 82.7,222.1 	"/>
</g>
<g id="ID000028">
	<line class="st5" x1="70.9" y1="207.2" x2="88.6" y2="207.2"/>
</g>
<g id="ID000029">
	<line class="st5" x1="70.9" y1="192.5" x2="88.6" y2="192.5"/>
</g>
<g id="ID000031">
	<text transform="matrix(1 0 0 1 61.21 164.8)" class="st3 st1 st2">A</text>
</g>
<g id="ID000032">
	<g>
		<text transform="matrix(1 0 0 1 60.79 150.1)" class="st3 st1 st2">C</text>
	</g>
</g>
<g id="ID000033">
	<text transform="matrix(1 0 0 1 45.66 135.39)" class="st3 st1 st2">G</text>
</g>
<g id="ID000034">
	<line class="st5" x1="41.8" y1="128.8" x2="32" y2="128.8"/>
</g>
<g id="ID000035">
	<text transform="matrix(1 0 0 1 15.05 135.39)" class="st1 st2">10</text>
</g>
<g id="ID000036">
	<text transform="matrix(1 0 0 1 42.83 117)" class="st3 st1 st2">A</text>
</g>
<g id="ID000037">
	<text transform="matrix(1 0 0 1 49.76 102.3)" class="st3 st1 st2">U</text>
</g>
<g id="ID000038">
	<text transform="matrix(1 0 0 1 64.04 94.94)" class="st3 st1 st2">G</text>
</g>
<g id="ID000039">
	<text transform="matrix(1 0 0 1 79.17 94.94)" class="st3 st1 st2">C</text>
</g>
<g id="ID000040">
	<text transform="matrix(1 0 0 1 93.46 102.3)" class="st3 st1 st2">G</text>
</g>
<g id="ID000041">
	<text transform="matrix(1 0 0 1 100.81 117)" class="st3 st1 st2">G</text>
</g>
<g id="ID000042">
	<text transform="matrix(1 0 0 1 100.81 135.39)" class="st3 st1 st2">G</text>
</g>
<g id="ID000043">
	<g>
		<text transform="matrix(1 0 0 1 89.78 150.1)" class="st3 st1 st2">G</text>
	</g>
</g>
<g id="ID000044">
	<g>
		<text transform="matrix(1 0 0 1 90.21 164.8)" class="st3 st1 st2">U</text>
	</g>
</g>
<g id="ID000045">
	<line class="st5" x1="72.2" y1="158.2" x2="89.8" y2="158.2"/>
</g>
<g id="ID000046">
	<line class="st5" x1="72.2" y1="143.5" x2="89.8" y2="143.5"/>
</g>
<g id="ID000048">
	<g>
		<text transform="matrix(1 0 0 1 167 337.62)" class="st4 st1 st2">G</text>
	</g>
</g>
<g id="ID000049">
	<g>
		<text transform="matrix(1 0 0 1 186.23 337.62)" class="st4 st1 st2">A</text>
	</g>
</g>
<g id="ID000050">
	<g>
		<text transform="matrix(1 0 0 1 204.61 337.62)" class="st4 st1 st2">A</text>
	</g>
</g>
<g id="ID000051">
	<g>
		<text transform="matrix(1 0 0 1 203.77 319.23)" class="st4 st1 st2">G</text>
	</g>
</g>
<g id="ID000052">
	<g>
		<text transform="matrix(1 0 0 1 204.61 300.85)" class="st4 st1 st2">A</text>
	</g>
</g>
<g id="ID000053">
	<g>
		<text transform="matrix(1 0 0 1 204.61 282.46)" class="st4 st1 st2">A</text>
	</g>
</g>
<g id="ID000054">
	<g>
		<text transform="matrix(1 0 0 1 204.61 267.76)" class="st4 st1 st2">A</text>
	</g>
</g>
<g id="ID000055">
	<g>
		<text transform="matrix(1 0 0 1 203.77 253.05)" class="st4 st1 st2">G</text>
	</g>
</g>
<g id="ID000056">
	<line class="st5" x1="219.5" y1="246.4" x2="229.3" y2="246.4"/>
</g>
<g id="ID000057">
	<text transform="matrix(1 0 0 1 229.29 253.05)" class="st1 st2">40</text>
</g>
<g id="ID000058">
	<text transform="matrix(1 0 0 1 204.19 238.34)" class="st7 st1 st2">C</text>
</g>
<g id="ID000059">
	<text transform="matrix(1 0 0 1 204.19 223.63)" class="st7 st1 st2">C</text>
</g>
<g id="ID000060">
	<text transform="matrix(1 0 0 1 203.77 208.93)" class="st7 st1 st2">G</text>
</g>
<g id="ID000061">
	<text transform="matrix(1 0 0 1 203.77 194.22)" class="st8 st1 st2">G</text>
</g>
<g id="ID000062">
	<text transform="matrix(1 0 0 1 174.77 164.8)" class="st8 st1 st2">C</text>
</g>
<g id="ID000063">
	<line class="st5" x1="170.5" y1="158.2" x2="160.7" y2="158.2"/>
</g>
<g id="ID000064">
	<text transform="matrix(1 0 0 1 143.74 164.8)" class="st1 st2">70</text>
</g>
<g id="ID000065">
	<text transform="matrix(1 0 0 1 174.35 179.51)" class="st8 st1 st2">G</text>
</g>
<g id="ID000066">
	<text transform="matrix(1 0 0 1 175.19 194.22)" class="st8 st1 st2">A</text>
</g>
<g id="ID000067">
	<text transform="matrix(1 0 0 1 174.77 208.93)" class="st7 st1 st2">C</text>
</g>
<g id="ID000068">
	<text transform="matrix(1 0 0 1 174.35 223.63)" class="st7 st1 st2">G</text>
</g>
<g id="ID000069">
	<text transform="matrix(1 0 0 1 174.35 238.34)" class="st7 st1 st2">G</text>
</g>
<g id="ID000070">
	<text transform="matrix(1 0 0 1 169.2282 250.757)" class="st7 st1 st2">A</text>
</g>
<g id="ID000071">
	<line class="st5" x1="203.8" y1="231.7" x2="186.1" y2="231.7"/>
</g>
<g id="ID000072">
	<line class="st5" x1="203.8" y1="217" x2="186.1" y2="217"/>
</g>
<g id="ID000073">
	<line class="st5" x1="203.8" y1="202.3" x2="186.1" y2="202.3"/>
</g>
<g id="ID000075">
	<text transform="matrix(1 0 0 1 203.77 175.83)" class="st8 st1 st2">G</text>
</g>
<g id="ID000076">
	<g>
		<text transform="matrix(1 0 0 1 214.8 161.13)" class="st9 st1 st2">G</text>
	</g>
</g>
<g id="ID000077">
	<text transform="matrix(1 0 0 1 229.5 161.13)" class="st9 st1 st2">G</text>
</g>
<g id="ID000078">
	<text transform="matrix(1 0 0 1 244.64 161.13)" class="st9 st1 st2">C</text>
</g>
<g id="ID000079">
	<text transform="matrix(1 0 0 1 259.34 161.13)" class="st9 st1 st2">U</text>
</g>
<g id="ID000080">
	<g>
		<text transform="matrix(1 0 0 1 274.05 124.36)" class="st9 st1 st2">U</text>
	</g>
</g>
<g id="ID000081">
	<g>
		<text transform="matrix(1 0 0 1 259.76 131.71)" class="st9 st1 st2">A</text>
	</g>
</g>
<g id="ID000082">
	<g>
		<text transform="matrix(1 0 0 1 244.21 131.71)" class="st9 st1 st2">G</text>
	</g>
</g>
<g id="ID000083">
	<g>
		<text transform="matrix(1 0 0 1 229.93 131.71)" class="st9 st1 st2">C</text>
	</g>
</g>
<g id="ID000084">
	<g>
		<text transform="matrix(1 0 0 1 215.22 131.71)" class="st9 st1 st2">C</text>
	</g>
</g>
<g id="ID000085">
	<text transform="matrix(1 0 0 1 197.26 128.03)" class="st8 st1 st2">A</text>
</g>
<g id="ID000086">
	<text transform="matrix(1 0 0 1 178.03 131.71)" class="st8 st1 st2">G</text>
</g>
<g id="ID000087">
	<text transform="matrix(1 0 0 1 175.19 146.42)" class="st8 st1 st2">A</text>
</g>
<g id="ID000088">
	<line class="st5" x1="220.7" y1="148.6" x2="220.7" y2="131"/>
</g>
<g id="ID000089">
	<line class="st5" x1="235.4" y1="148.6" x2="235.4" y2="131"/>
</g>
<g id="ID000090">
	<line class="st5" x1="250.1" y1="148.6" x2="250.1" y2="131"/>
</g>
<g id="ID000091">
	<line class="st10" x1="270.7" y1="154.5" x2="303.1" y2="154.5"/>
</g>
<g id="ID000092">
	<polygon class="st6" points="283.8,151 285.7,152.8 287.7,153.3 289.6,153.6 293.5,154.5 289.6,155.4 287.7,155.7 285.7,156.2 
		283.8,158 	"/>
</g>
<g id="ID000093">
	<line class="st5" x1="264.8" y1="148.6" x2="264.8" y2="131"/>
</g>
<g id="ID000095">
	<g>
		<text transform="matrix(1 0 0 1 303.04 161.13)" class="st9 st1 st2">G</text>
	</g>
</g>
<g id="ID000096">
	<line class="st5" x1="309" y1="164.3" x2="309" y2="174.1"/>
</g>
<g id="ID000097">
	<text transform="matrix(1 0 0 1 300.5 191.47)" class="st1 st2">50</text>
</g>
<g id="ID000098">
	<g>
		<text transform="matrix(1 0 0 1 318.17 161.13)" class="st9 st1 st2">C</text>
	</g>
</g>
<g id="ID000099">
	<g>
		<text transform="matrix(1 0 0 1 333.3 161.13)" class="st9 st1 st2">A</text>
	</g>
</g>
<g id="ID000100">
	<g>
		<text transform="matrix(1 0 0 1 347.16 168.48)" class="st9 st1 st2">G</text>
	</g>
</g>
<g id="ID000101">
	<g>
		<text transform="matrix(1 0 0 1 366.39 164.8)" class="st9 st1 st2">A</text>
	</g>
</g>
<g id="ID000102">
	<g>
		<text transform="matrix(1 0 0 1 373.33 146.42)" class="st9 st1 st2">U</text>
	</g>
</g>
<g id="ID000103">
	<g>
		<text transform="matrix(1 0 0 1 362.72 128.03)" class="st9 st1 st2">A</text>
	</g>
</g>
<g id="ID000104">
	<g>
		<text transform="matrix(1 0 0 1 348.01 124.36)" class="st9 st1 st2">A</text>
	</g>
</g>
<g id="ID000105">
	<g>
		<text transform="matrix(1 0 0 1 332.88 131.71)" class="st9 st1 st2">U</text>
	</g>
</g>
<g id="ID000106">
	<g>
		<text transform="matrix(1 0 0 1 317.75 131.71)" class="st9 st1 st2">G</text>
	</g>
</g>
<g id="ID000107">
	<g>
		<text transform="matrix(1 0 0 1 303.47 131.71)" class="st9 st1 st2">U</text>
	</g>
</g>
<g id="ID000108">
	<line class="st5" x1="309" y1="115.3" x2="309" y2="105.5"/>
</g>
<g id="ID000109">
	<text transform="matrix(1 0 0 1 300.5 101.81)" class="st1 st2">60</text>
</g>
<g id="ID000110">
	<g>
		<text transform="matrix(1 0 0 1 289.18 124.36)" class="st9 st1 st2">A</text>
	</g>
</g>
<g id="ID000111">
	<polygon class="st6" points="309,136.9 308.8,136.9 308.6,136.9 308.4,136.9 308.2,136.9 308,137 307.9,137.1 307.7,137.1 
		307.5,137.2 307.4,137.3 307.2,137.4 307.1,137.5 306.9,137.7 306.8,137.8 306.7,137.9 306.6,138.1 306.5,138.2 306.4,138.4 
		306.3,138.6 306.2,138.7 306.1,138.9 306.1,139.1 306.1,139.3 306,139.5 306,139.7 306,139.8 306,140 306,140.2 306.1,140.4 
		306.1,140.6 306.2,140.8 306.2,140.9 306.3,141.1 306.4,141.3 306.5,141.4 306.6,141.6 306.7,141.7 306.9,141.9 307,142 
		307.1,142.1 307.3,142.2 307.5,142.3 307.6,142.4 307.8,142.5 308,142.6 308.1,142.6 308.3,142.7 308.5,142.7 308.7,142.7 
		308.9,142.7 309,142.7 309.2,142.7 309.4,142.7 309.6,142.7 309.8,142.6 310,142.6 310.1,142.5 310.3,142.4 310.5,142.3 
		310.6,142.2 310.8,142.1 310.9,142 311.1,141.9 311.2,141.7 311.3,141.6 311.4,141.4 311.5,141.3 311.6,141.1 311.7,140.9 
		311.7,140.8 311.8,140.6 311.8,140.4 311.9,140.2 311.9,140 311.9,139.8 311.9,139.7 311.9,139.5 311.9,139.3 311.8,139.1 
		311.8,138.9 311.7,138.7 311.6,138.6 311.5,138.4 311.5,138.2 311.4,138.1 311.2,137.9 311.1,137.8 311,137.7 310.9,137.5 
		310.7,137.4 310.5,137.3 310.4,137.2 310.2,137.1 310,137.1 309.9,137 309.7,136.9 309.5,136.9 309.3,136.9 309.1,136.9 	"/>
</g>
<g id="ID000112">
	<g>
		<line class="st11" x1="323.7" y1="148.6" x2="323.7" y2="131"/>
	</g>
</g>
<g id="ID000113">
	<g>
		<line class="st11" x1="338.4" y1="148.6" x2="338.4" y2="131"/>
	</g>
</g>
<text transform="matrix(1 0 0 1 145.4593 48.8938)" class="st1 st12">R9-2 aptamer</text>
<text transform="matrix(1 0 0 1 31.97 278.79)" class="st1 st13">5</text>
<text transform="matrix(1 0 0 1 41.98 278.79)" class="st1 st13">’</text>
<text transform="matrix(1 0 0 1 149.42 267.76)" class="st1 st13">3</text>
<text transform="matrix(1 0 0 1 159.43 267.76)" class="st1 st13">’</text>
</svg>
