<?xml version="1.0" encoding="utf-8"?>
<!-- Generator: Adobe Illustrator 25.2.0, SVG Export Plug-In . SVG Version: 6.00 Build 0)  -->
<svg version="1.1" id="_图层_1" xmlns="http://www.w3.org/2000/svg" xmlns:xlink="http://www.w3.org/1999/xlink" x="0px" y="0px"
	 viewBox="0 0 800 400" style="enable-background:new 0 0 800 400;" xml:space="preserve">
<style type="text/css">
	.st0{fill:#FF33CC;}
	.st1{fill:#008080;}
	.st2{fill:none;stroke:#000000;stroke-width:1.33;stroke-linejoin:round;}
	.st3{fill:none;stroke:#000000;stroke-width:0.5;stroke-linejoin:round;}
	.st4{fill:#C2C2FF;}
	.st5{fill:#09FEFE;}
	.st6{fill:#FF870A;}
	.st7{font-family:'ArialMT';}
	.st8{font-size:20px;}
	.st9{font-size:14.8245px;}
</style>
<path class="st0" d="M344.2,376.3v-1.1h4.2v3.7c-0.6,0.5-1.3,0.9-2,1.1c-0.7,0.3-1.4,0.4-2.1,0.4c-0.9,0-1.8-0.2-2.6-0.6
	c-0.8-0.4-1.4-1-1.8-1.8c-0.4-0.8-0.6-1.7-0.6-2.6c0-0.9,0.2-1.8,0.6-2.7c0.4-0.8,1-1.4,1.7-1.8c0.8-0.4,1.7-0.6,2.6-0.6
	c0.7,0,1.3,0.1,1.9,0.3c0.5,0.2,1,0.5,1.3,1c0.4,0.5,0.6,1,0.7,1.6l-1.1,0.3c-0.1-0.4-0.3-0.8-0.6-1.1c-0.2-0.3-0.6-0.5-0.9-0.7
	c-0.4-0.2-0.9-0.3-1.4-0.3c-0.5,0-1,0.1-1.5,0.3c-0.4,0.2-0.8,0.4-1.1,0.7c-0.3,0.3-0.5,0.6-0.6,1c-0.3,0.6-0.4,1.3-0.4,2
	c0,0.8,0.1,1.5,0.4,2.2c0.3,0.6,0.7,1,1.3,1.3c0.6,0.3,1.2,0.4,1.8,0.4c0.6,0,1.1-0.1,1.7-0.3c0.4-0.2,0.9-0.4,1.2-0.7v-1.8
	L344.2,376.3L344.2,376.3z"/>
<path class="st1" d="M344.2,366.1v-1.1h4.2v3.6c-0.6,0.5-1.3,0.9-2,1.1c-0.7,0.3-1.4,0.4-2.1,0.4c-0.9,0-1.8-0.2-2.6-0.6
	c-0.8-0.4-1.4-1-1.8-1.8c-0.4-0.8-0.6-1.7-0.6-2.6c0-0.9,0.2-1.8,0.6-2.7c0.4-0.8,1-1.4,1.7-1.9c1.4-0.7,3-0.8,4.5-0.3
	c0.5,0.2,1,0.5,1.3,1c0.4,0.5,0.6,1,0.7,1.6l-1.1,0.3c-0.1-0.4-0.3-0.8-0.6-1.1c-0.2-0.3-0.6-0.5-0.9-0.7c-0.4-0.2-0.9-0.3-1.4-0.3
	c-0.5,0-1,0.1-1.5,0.3c-0.4,0.2-0.8,0.4-1.1,0.7c-0.3,0.3-0.5,0.6-0.6,1c-0.2,0.6-0.3,1.3-0.3,1.9c0,0.8,0.1,1.5,0.4,2.2
	c0.3,0.6,0.7,1,1.3,1.3c0.6,0.3,1.2,0.4,1.8,0.4c0.6,0,1.1-0.1,1.7-0.3c0.4-0.2,0.9-0.4,1.2-0.7v-1.9H344.2L344.2,366.1z"/>
<path class="st1" d="M344.2,355.9v-1.1h4.2v3.6c-0.6,0.5-1.3,0.9-2,1.1c-0.7,0.3-1.4,0.4-2.1,0.4c-0.9,0-1.8-0.2-2.6-0.6
	c-0.8-0.4-1.4-1-1.8-1.8c-0.4-0.8-0.6-1.7-0.6-2.6c0-0.9,0.2-1.8,0.6-2.7c0.4-0.8,1-1.4,1.7-1.8c0.8-0.4,1.7-0.6,2.6-0.6
	c0.7,0,1.3,0.1,1.9,0.4c0.5,0.2,1,0.5,1.3,1c0.4,0.5,0.6,1,0.7,1.6L347,353c-0.1-0.4-0.3-0.8-0.6-1.1c-0.2-0.3-0.6-0.6-0.9-0.7
	c-0.4-0.2-0.9-0.3-1.4-0.3c-0.5,0-1,0.1-1.5,0.3c-0.4,0.2-0.8,0.4-1.1,0.7c-0.3,0.3-0.5,0.6-0.6,1c-0.3,0.6-0.4,1.3-0.4,2
	c0,0.8,0.1,1.5,0.4,2.2c0.3,0.6,0.7,1,1.2,1.4c0.6,0.3,1.2,0.4,1.8,0.4c0.6,0,1.1-0.1,1.6-0.3c0.4-0.2,0.9-0.4,1.2-0.7V356
	L344.2,355.9L344.2,355.9z"/>
<path class="st1" d="M339.3,349.6l3.8-9.8h1.4l4,9.8H347l-1.1-3h-4.1l-1.1,3H339.3z M342.2,345.6h3.3l-1.1-2.7
	c-0.3-0.8-0.5-1.5-0.7-2c-0.1,0.6-0.3,1.3-0.5,1.9L342.2,345.6z"/>
<path class="st1" d="M339.3,339.4l3.8-9.8h1.4l4,9.8H347l-1.1-3h-4.1l-1.1,3H339.3z M342.2,335.4h3.3l-1.1-2.7
	c-0.3-0.8-0.5-1.5-0.7-2c-0.1,0.6-0.3,1.3-0.5,1.9L342.2,335.4z"/>
<path class="st0" d="M326.6,342l3.8-9.8h1.4l4,9.8h-1.5l-1.1-3h-4.1l-1.1,3H326.6L326.6,342z M329.4,337.9h3.3l-1.1-2.7
	c-0.3-0.8-0.6-1.5-0.7-2c-0.1,0.6-0.3,1.3-0.5,1.9L329.4,337.9z"/>
<path class="st0" d="M316.4,342l3.8-9.8h1.4l4,9.8h-1.5l-1.1-3h-4.1l-1.1,3H316.4z M319.3,337.9h3.3l-1.1-2.7
	c-0.3-0.8-0.5-1.5-0.7-2c-0.1,0.6-0.3,1.3-0.5,1.9L319.3,337.9L319.3,337.9z"/>
<path class="st0" d="M313.7,330.5v-1.1h4.1v3.6c-0.6,0.5-1.3,0.9-2,1.1c-1.5,0.6-3.2,0.5-4.7-0.2c-0.8-0.4-1.4-1-1.8-1.8
	c-0.4-0.8-0.6-1.7-0.6-2.6c0-0.9,0.2-1.8,0.6-2.7c0.3-0.8,0.9-1.4,1.7-1.8c0.8-0.4,1.7-0.6,2.6-0.6c0.7,0,1.3,0.1,1.9,0.3
	c0.5,0.2,1,0.5,1.3,1c0.4,0.5,0.6,1,0.7,1.6l-1.1,0.3c-0.1-0.4-0.3-0.8-0.6-1.1c-0.2-0.3-0.6-0.5-0.9-0.7c-0.4-0.2-0.9-0.3-1.3-0.3
	c-0.5,0-1.1,0.1-1.5,0.3c-0.4,0.2-0.8,0.4-1.1,0.7c-0.3,0.3-0.5,0.6-0.6,1c-0.3,0.6-0.4,1.3-0.4,2c0,0.8,0.1,1.5,0.5,2.2
	c0.3,0.6,0.7,1,1.3,1.3c1.1,0.5,2.4,0.6,3.5,0.1c0.4-0.2,0.9-0.4,1.2-0.7v-1.8L313.7,330.5L313.7,330.5z"/>
<path class="st0" d="M308.8,318.2l1.3,0.3c-0.2,1-0.7,1.8-1.5,2.4c-0.7,0.6-1.7,0.9-2.6,0.8c-0.9,0-1.8-0.2-2.6-0.6
	c-0.7-0.5-1.2-1.1-1.5-1.9c-0.3-0.8-0.5-1.7-0.5-2.6c0-0.9,0.2-1.8,0.6-2.7c0.4-0.7,1-1.3,1.7-1.7c0.7-0.4,1.5-0.6,2.4-0.6
	c0.9,0,1.8,0.2,2.5,0.7c0.7,0.5,1.2,1.3,1.4,2.1l-1.3,0.3c-0.1-0.6-0.5-1.2-1-1.6c-0.5-0.3-1-0.5-1.6-0.5c-0.7,0-1.3,0.2-1.9,0.5
	c-0.5,0.4-0.9,0.9-1.1,1.4c-0.4,1.3-0.4,2.8,0.1,4.1c0.2,0.6,0.6,1.1,1.1,1.4c0.5,0.3,1.1,0.5,1.7,0.5c0.7,0,1.3-0.2,1.8-0.6
	C308.3,319.6,308.7,318.9,308.8,318.2L308.8,318.2z"/>
<path class="st0" d="M432.9,296.6h1.3v5.7c0,0.8-0.1,1.6-0.3,2.4c-0.2,0.6-0.7,1.1-1.2,1.4c-0.7,0.4-1.5,0.6-2.3,0.5
	c-0.8,0-1.6-0.1-2.3-0.5c-0.6-0.3-1-0.8-1.2-1.4c-0.3-0.8-0.4-1.6-0.4-2.5v-5.7h1.3v5.7c0,0.6,0,1.3,0.2,1.9
	c0.1,0.4,0.4,0.7,0.8,0.9c0.4,0.2,0.9,0.3,1.4,0.3c0.7,0.1,1.5-0.2,2-0.6c0.5-0.7,0.7-1.6,0.6-2.5L432.9,296.6L432.9,296.6z"/>
<path class="st0" d="M423.2,319.1l3.8-9.8h1.4l4,9.8h-1.5l-1.1-3h-4.1l-1.1,3H423.2z M426.1,315h3.3l-1.1-2.7
	c-0.3-0.8-0.6-1.5-0.7-2c-0.1,0.6-0.3,1.3-0.5,1.9L426.1,315L426.1,315z"/>
<path class="st0" d="M420.1,316.9h1.3v5.7c0,0.8-0.1,1.6-0.3,2.4c-0.2,0.6-0.7,1.1-1.2,1.4c-0.7,0.4-1.5,0.6-2.3,0.5
	c-0.8,0-1.6-0.1-2.3-0.5c-0.6-0.3-1-0.8-1.2-1.4c-0.3-0.8-0.4-1.6-0.4-2.5v-5.7h1.3v5.7c0,0.6,0.1,1.3,0.2,1.9
	c0.1,0.4,0.4,0.7,0.8,0.9c1.1,0.5,2.5,0.4,3.5-0.3c0.5-0.7,0.7-1.6,0.6-2.5L420.1,316.9L420.1,316.9z"/>
<path class="st0" d="M409.9,322h1.3v5.7c0,0.8-0.1,1.6-0.3,2.3c-0.2,0.6-0.7,1.1-1.2,1.4c-0.7,0.4-1.5,0.6-2.3,0.6
	c-0.8,0-1.6-0.1-2.3-0.5c-0.6-0.3-1-0.8-1.3-1.4c-0.3-0.8-0.4-1.6-0.4-2.4V322h1.3v5.7c0,0.6,0.1,1.3,0.2,1.9
	c0.1,0.4,0.4,0.7,0.8,0.9c1.1,0.5,2.4,0.4,3.5-0.3c0.5-0.7,0.7-1.6,0.6-2.5L409.9,322z"/>
<path class="st0" d="M399.8,327.1h1.3v5.7c0,0.8-0.1,1.6-0.3,2.3c-0.2,0.6-0.7,1.1-1.2,1.4c-0.7,0.4-1.5,0.6-2.3,0.6
	c-0.8,0-1.6-0.1-2.3-0.5c-0.6-0.3-1-0.8-1.2-1.4c-0.3-0.8-0.4-1.6-0.4-2.4v-5.7h1.3v5.7c0,0.6,0.1,1.3,0.2,1.9
	c0.2,0.4,0.4,0.7,0.8,0.9c0.4,0.2,0.9,0.3,1.4,0.3c0.7,0.1,1.5-0.2,2-0.6c0.5-0.7,0.7-1.6,0.6-2.5L399.8,327.1L399.8,327.1z"/>
<path class="st0" d="M382.5,339.4l3.8-9.8h1.4l4,9.8h-1.5l-1.1-3H385l-1.1,3H382.5L382.5,339.4z M385.4,335.4h3.3l-1.1-2.7
	c-0.3-0.8-0.5-1.5-0.7-2c-0.1,0.6-0.3,1.3-0.5,1.9L385.4,335.4L385.4,335.4z"/>
<line class="st2" x1="391.9" y1="338.9" x2="396.7" y2="343.7"/>
<path d="M401.8,357.4h-1.2v-7.7c-0.7,0.6-1.5,1.1-2.4,1.5V350c0.6-0.3,1.2-0.7,1.8-1.1c0.4-0.4,0.8-0.8,1.1-1.3h0.8L401.8,357.4
	L401.8,357.4z M409.4,357.4h-1.1v-7.7c-0.3,0.3-0.7,0.6-1.1,0.8c-0.4,0.2-0.8,0.5-1.3,0.6V350c0.6-0.3,1.2-0.7,1.8-1.1
	c0.4-0.4,0.8-0.8,1.1-1.3h0.7L409.4,357.4L409.4,357.4z M412.4,352.5c0-1,0.1-1.9,0.4-2.8c0.2-0.6,0.6-1.2,1.1-1.6
	c0.5-0.4,1.1-0.6,1.8-0.6c0.5,0,0.9,0.1,1.4,0.3c0.4,0.2,0.7,0.5,1,0.9c0.3,0.4,0.5,0.9,0.6,1.5c0.2,0.8,0.2,1.5,0.2,2.3
	c0,0.9-0.1,1.9-0.3,2.8c-0.2,0.6-0.6,1.2-1.1,1.6c-1.2,0.9-3,0.7-4-0.4C412.6,355.3,412.3,353.9,412.4,352.5L412.4,352.5z
	 M413.6,352.5c-0.1,1.1,0.1,2.2,0.6,3.2c0.3,0.5,0.8,0.8,1.4,0.8c0.6,0,1.1-0.3,1.4-0.8c0.8-2.1,0.8-4.3,0-6.4
	c-0.3-0.5-0.8-0.8-1.4-0.8c-0.5,0-1,0.2-1.3,0.7C413.7,350.2,413.5,351.4,413.6,352.5L413.6,352.5z"/>
<path class="st0" d="M369.8,339.4l3.8-9.8h1.4l4,9.8h-1.4l-1.1-3h-4.1l-1.1,3H369.8z M372.7,335.4h3.3l-1.1-2.7
	c-0.3-0.8-0.6-1.5-0.7-2c-0.1,0.6-0.3,1.3-0.5,1.9L372.7,335.4L372.7,335.4z"/>
<path class="st1" d="M366.7,329.6h1.3v5.7c0,0.8-0.1,1.6-0.3,2.3c-0.2,0.6-0.7,1.1-1.2,1.4c-0.7,0.4-1.5,0.6-2.3,0.6
	c-0.8,0-1.6-0.1-2.3-0.5c-0.6-0.3-1-0.8-1.2-1.4c-0.3-0.8-0.4-1.6-0.4-2.4v-5.7h1.3v5.7c0,0.6,0.1,1.3,0.2,1.9
	c0.2,0.4,0.4,0.7,0.8,0.9c0.4,0.2,0.9,0.3,1.4,0.3c0.7,0.1,1.5-0.2,2-0.7c0.5-0.7,0.7-1.6,0.6-2.5L366.7,329.6L366.7,329.6z"/>
<path class="st1" d="M366.7,339.8h1.3v5.7c0,0.8-0.1,1.6-0.3,2.3c-0.2,0.6-0.7,1.1-1.2,1.4c-0.7,0.4-1.5,0.6-2.3,0.5
	c-0.8,0-1.6-0.1-2.3-0.5c-0.6-0.3-1-0.8-1.2-1.4c-0.3-0.8-0.4-1.6-0.4-2.5v-5.7h1.3v5.7c0,0.6,0.1,1.3,0.2,1.9
	c0.2,0.4,0.4,0.7,0.8,0.9c0.4,0.2,0.9,0.3,1.4,0.3c0.7,0.1,1.5-0.2,2-0.7c0.5-0.7,0.7-1.6,0.6-2.5L366.7,339.8L366.7,339.8z"/>
<path class="st1" d="M367.3,356.3l1.3,0.3c-0.2,1-0.7,1.8-1.5,2.4c-0.7,0.6-1.7,0.9-2.6,0.8c-0.9,0-1.8-0.2-2.6-0.6
	c-0.7-0.5-1.2-1.1-1.5-1.9c-0.4-0.8-0.5-1.7-0.5-2.6c0-0.9,0.2-1.8,0.6-2.7c0.4-0.7,1-1.3,1.7-1.7c0.7-0.4,1.5-0.6,2.4-0.6
	c1.8-0.1,3.4,1.1,3.9,2.9l-1.3,0.3c-0.2-0.6-0.5-1.2-1-1.6c-0.5-0.3-1-0.5-1.6-0.5c-0.7,0-1.3,0.2-1.9,0.5c-0.5,0.4-0.9,0.9-1.1,1.5
	c-0.2,0.6-0.3,1.2-0.3,1.9c0,0.7,0.1,1.5,0.4,2.2c0.2,0.6,0.6,1.1,1.1,1.4c0.5,0.3,1.1,0.5,1.7,0.5c0.7,0,1.3-0.2,1.8-0.6
	C366.8,357.7,367.2,357,367.3,356.3L367.3,356.3z"/>
<path class="st1" d="M367.3,366.5l1.3,0.3c-0.2,1-0.7,1.8-1.5,2.4c-0.7,0.6-1.7,0.9-2.6,0.8c-0.9,0-1.8-0.2-2.6-0.6
	c-0.7-0.5-1.2-1.1-1.5-1.9c-0.4-0.8-0.5-1.7-0.5-2.6c0-0.9,0.2-1.8,0.6-2.7c0.4-0.7,0.9-1.3,1.7-1.7c0.7-0.4,1.5-0.6,2.4-0.6
	c1.8-0.1,3.4,1.1,3.9,2.9l-1.3,0.3c-0.2-0.6-0.5-1.1-1-1.6c-0.5-0.3-1-0.5-1.6-0.5c-0.7,0-1.3,0.2-1.9,0.6c-0.5,0.3-0.9,0.9-1.1,1.5
	c-0.2,0.6-0.3,1.2-0.3,1.9c0,0.7,0.1,1.5,0.4,2.2c0.2,0.6,0.6,1.1,1.1,1.4c0.5,0.3,1.1,0.5,1.7,0.5c0.7,0,1.3-0.2,1.8-0.6
	C366.8,367.9,367.2,367.2,367.3,366.5L367.3,366.5z"/>
<path class="st0" d="M359.7,381.2l3.8-9.8h1.4l4,9.8h-1.5l-1.1-3h-4.1l-1.1,3H359.7L359.7,381.2z M362.5,377.1h3.3l-1.1-2.7
	c-0.3-0.8-0.5-1.5-0.7-2c-0.1,0.6-0.3,1.3-0.5,1.9L362.5,377.1L362.5,377.1z"/>
<path class="st0" d="M377.5,371.1h1.3v5.7c0,0.8-0.1,1.6-0.3,2.4c-0.2,0.6-0.7,1.1-1.2,1.4c-0.7,0.4-1.5,0.6-2.3,0.5
	c-0.8,0-1.6-0.1-2.3-0.5c-0.6-0.3-1-0.8-1.2-1.4c-0.3-0.8-0.4-1.6-0.4-2.5v-5.7h1.3v5.7c0,0.6,0.1,1.3,0.2,1.9
	c0.1,0.4,0.4,0.7,0.8,0.9c0.4,0.2,0.9,0.3,1.4,0.3c0.7,0.1,1.5-0.2,2-0.6c0.5-0.7,0.7-1.6,0.6-2.5L377.5,371.1L377.5,371.1z"/>
<path class="st0" d="M381.6,381l3.8-9.8h1.4l4,9.8h-1.5l-1.1-3H384l-1.1,3H381.6L381.6,381z M384.4,377h3.3l-1.1-2.7
	c-0.3-0.8-0.5-1.5-0.7-2c-0.1,0.6-0.3,1.3-0.5,1.9L384.4,377L384.4,377z"/>
<line class="st3" x1="348" y1="364.6" x2="360.2" y2="364.6"/>
<line class="st3" x1="348" y1="354.4" x2="360.2" y2="354.4"/>
<line class="st3" x1="348" y1="344.3" x2="360.2" y2="344.3"/>
<line class="st3" x1="348" y1="334.1" x2="360.2" y2="334.1"/>
<path class="st0" d="M308.6,305v-1.1h4.2v3.6c-0.6,0.5-1.3,0.9-2,1.1c-0.7,0.3-1.4,0.4-2.1,0.4c-0.9,0-1.8-0.2-2.7-0.6
	c-0.8-0.4-1.4-1-1.8-1.8c-0.4-0.8-0.6-1.7-0.6-2.6c0-0.9,0.2-1.8,0.6-2.7c0.3-0.8,1-1.4,1.7-1.8c0.8-0.4,1.7-0.6,2.6-0.6
	c0.7,0,1.3,0.1,1.9,0.3c0.5,0.2,1,0.5,1.4,1c0.3,0.5,0.6,1,0.7,1.6l-1.1,0.3c-0.1-0.4-0.3-0.8-0.5-1.1c-0.2-0.3-0.6-0.6-0.9-0.7
	c-0.4-0.2-0.9-0.3-1.4-0.3c-0.5,0-1,0.1-1.5,0.3c-0.4,0.1-0.8,0.4-1.1,0.7c-0.3,0.3-0.5,0.6-0.6,1c-0.3,0.6-0.4,1.3-0.4,2
	c0,0.8,0.1,1.5,0.4,2.2c0.3,0.6,0.7,1,1.3,1.3c0.6,0.3,1.2,0.4,1.8,0.4c1,0,2-0.4,2.9-1V305L308.6,305L308.6,305z"/>
<line class="st2" x1="301.5" y1="303.6" x2="294.7" y2="303.6"/>
<path d="M284.6,308.9h-1.2v-7.7c-0.3,0.3-0.7,0.6-1.1,0.8c-0.4,0.3-0.8,0.5-1.2,0.7v-1.1c0.6-0.3,1.2-0.7,1.8-1.1
	c0.4-0.4,0.8-0.8,1.1-1.3h0.8L284.6,308.9z M287.6,304.1c0-0.9,0.1-1.9,0.4-2.8c0.2-0.6,0.6-1.2,1.1-1.6c0.5-0.4,1.1-0.6,1.8-0.6
	c0.5,0,1,0.1,1.4,0.3c0.4,0.2,0.7,0.5,1,0.9c0.3,0.4,0.5,0.9,0.6,1.5c0.2,0.7,0.2,1.5,0.2,2.3c0,0.9-0.1,1.9-0.4,2.8
	c-0.2,0.6-0.6,1.2-1.1,1.6c-1.2,0.9-3,0.7-4-0.4C287.9,306.8,287.5,305.5,287.6,304.1L287.6,304.1z M288.9,304.1
	c-0.1,1.1,0.1,2.2,0.6,3.2c0.4,0.8,1.4,1,2.2,0.6c0,0,0,0,0,0c0.2-0.1,0.4-0.3,0.6-0.6c0.8-2.1,0.8-4.3,0-6.4
	c-0.3-0.5-0.8-0.8-1.4-0.8c-0.5,0-1,0.3-1.3,0.7C289,301.8,288.8,302.9,288.9,304.1L288.9,304.1L288.9,304.1z"/>
<path class="st0" d="M310.2,297.6l3.8-9.8h1.3l4,9.8h-1.5l-1.1-3h-4.1l-1.1,3H310.2z M313,293.6h3.3l-1.1-2.7
	c-0.3-0.8-0.6-1.5-0.7-2c-0.1,0.6-0.3,1.3-0.5,1.9L313,293.6L313,293.6z"/>
<path class="st0" d="M321.5,291.1l3.8-9.8h1.4l4,9.8h-1.5l-1.1-3H324l-1.1,3H321.5z M324.3,287.1h3.3l-1.1-2.7
	c-0.3-0.8-0.5-1.5-0.7-2c-0.1,0.6-0.3,1.3-0.5,1.9L324.3,287.1L324.3,287.1z"/>
<path class="st4" d="M333.6,268.6h1.3v5.7c0,0.8-0.1,1.6-0.3,2.3c-0.2,0.6-0.7,1.1-1.2,1.4c-0.7,0.4-1.5,0.6-2.3,0.6
	c-0.8,0-1.6-0.1-2.3-0.5c-0.6-0.3-1-0.8-1.2-1.4c-0.3-0.8-0.4-1.6-0.4-2.4v-5.7h1.3v5.7c0,0.6,0,1.3,0.2,1.9
	c0.2,0.4,0.4,0.7,0.8,0.9c0.4,0.2,0.9,0.3,1.4,0.3c0.7,0.1,1.5-0.2,2-0.7c0.5-0.7,0.7-1.6,0.6-2.5L333.6,268.6L333.6,268.6z"/>
<path class="st4" d="M324,274.9l1.3,0.3c-0.2,1-0.7,1.8-1.5,2.4c-0.7,0.6-1.7,0.9-2.6,0.8c-0.9,0-1.8-0.2-2.6-0.6
	c-0.7-0.5-1.2-1.1-1.5-1.9c-0.3-0.8-0.5-1.7-0.5-2.6c0-0.9,0.2-1.8,0.6-2.7c0.4-0.7,1-1.3,1.7-1.7c0.7-0.4,1.5-0.6,2.4-0.6
	c0.9,0,1.7,0.2,2.5,0.7c0.7,0.5,1.2,1.3,1.4,2.1l-1.3,0.3c-0.2-0.6-0.5-1.1-1-1.6c-0.5-0.3-1-0.5-1.6-0.5c-0.7,0-1.3,0.2-1.9,0.5
	c-0.5,0.3-0.9,0.9-1.1,1.5c-0.4,1.3-0.4,2.8,0.1,4.1c0.2,0.6,0.6,1.1,1.1,1.4c0.5,0.3,1.1,0.5,1.7,0.5c0.7,0,1.3-0.2,1.8-0.6
	C323.6,276.3,323.9,275.7,324,274.9L324,274.9z"/>
<path class="st4" d="M306.3,278.4l3.8-9.8h1.4l4,9.8H314l-1.1-3h-4.1l-1.1,3H306.3z M309.1,274.4h3.3l-1.1-2.7
	c-0.3-0.8-0.5-1.5-0.7-2c-0.1,0.6-0.3,1.3-0.5,1.9L309.1,274.4L309.1,274.4z"/>
<path class="st4" d="M303.1,268.6h1.3v5.7c0,0.8-0.1,1.6-0.3,2.3c-0.2,0.6-0.7,1.1-1.2,1.4c-0.7,0.4-1.5,0.6-2.3,0.6
	c-0.8,0-1.6-0.1-2.3-0.5c-0.6-0.3-1-0.8-1.2-1.4c-0.3-0.8-0.4-1.6-0.4-2.4v-5.7h1.3v5.7c0,0.6,0,1.3,0.2,1.9
	c0.1,0.4,0.4,0.7,0.8,0.9c0.4,0.2,0.9,0.3,1.4,0.3c0.7,0.1,1.5-0.2,2-0.7c0.5-0.7,0.7-1.6,0.6-2.5L303.1,268.6L303.1,268.6z"/>
<path class="st0" d="M287.3,284.5l3.8-9.8h1.3l4,9.8H295l-1.1-3h-4.1l-1.1,3H287.3L287.3,284.5z M290.1,280.5h3.3l-1.1-2.7
	c-0.3-0.8-0.5-1.5-0.7-2c-0.1,0.6-0.3,1.3-0.5,1.9L290.1,280.5L290.1,280.5z"/>
<path class="st0" d="M283.4,282.6l1.3,0.3c-0.2,1-0.7,1.8-1.5,2.4c-0.7,0.6-1.7,0.9-2.6,0.8c-0.9,0-1.8-0.2-2.6-0.6
	c-0.7-0.5-1.2-1.1-1.5-1.9c-0.3-0.8-0.5-1.7-0.5-2.6c0-0.9,0.2-1.8,0.6-2.7c0.3-0.7,0.9-1.3,1.6-1.7c0.7-0.4,1.5-0.6,2.4-0.6
	c1.8-0.1,3.4,1.1,3.9,2.9l-1.3,0.3c-0.2-0.6-0.5-1.2-1-1.6c-0.5-0.3-1.1-0.5-1.6-0.5c-0.7,0-1.3,0.2-1.9,0.5
	c-0.5,0.4-0.9,0.9-1.1,1.5c-0.2,0.6-0.3,1.2-0.3,1.9c0,0.7,0.1,1.5,0.4,2.2c0.2,0.6,0.6,1.1,1.1,1.4c0.5,0.3,1.1,0.5,1.7,0.5
	c0.7,0,1.3-0.2,1.8-0.6C282.9,283.9,283.2,283.3,283.4,282.6L283.4,282.6z"/>
<path class="st0" d="M263,286l3.8-9.8h1.4l4,9.8h-1.5l-1.1-3h-4.1l-1.1,3H263L263,286z M265.9,282h3.3l-1.1-2.7
	c-0.3-0.8-0.6-1.5-0.7-2c-0.1,0.6-0.3,1.3-0.5,1.9L265.9,282z"/>
<path class="st0" d="M263,272.4l1.3,0.3c-0.2,1-0.7,1.8-1.5,2.4c-0.7,0.6-1.7,0.9-2.6,0.8c-0.9,0-1.8-0.2-2.6-0.6
	c-0.7-0.5-1.2-1.1-1.5-1.9c-0.4-0.8-0.5-1.7-0.5-2.6c0-0.9,0.2-1.8,0.6-2.7c0.4-0.7,0.9-1.3,1.7-1.7c0.7-0.4,1.6-0.6,2.4-0.6
	c0.9,0,1.7,0.2,2.5,0.8c0.7,0.5,1.2,1.3,1.4,2.1l-1.3,0.3c-0.2-0.6-0.5-1.1-1-1.5c-0.5-0.3-1.1-0.5-1.6-0.5c-0.7,0-1.3,0.2-1.9,0.6
	c-0.5,0.4-0.9,0.9-1.1,1.5c-0.2,0.6-0.3,1.2-0.3,1.9c0,0.7,0.1,1.5,0.4,2.2c0.2,0.6,0.6,1.1,1.1,1.4c0.5,0.3,1.1,0.5,1.7,0.5
	c0.7,0,1.3-0.2,1.9-0.6C262.6,273.8,262.9,273.1,263,272.4L263,272.4z"/>
<path class="st0" d="M257.9,263.1l3.8-9.8h1.4l4,9.8h-1.5l-1.1-2.9h-4.1l-1.1,3L257.9,263.1z M260.8,259.1h3.3l-1.1-2.7
	c-0.3-0.8-0.5-1.5-0.7-2c-0.1,0.6-0.3,1.3-0.5,1.9L260.8,259.1z"/>
<path class="st0" d="M265.6,253l3.8-9.8h1.4l4,9.8h-1.5l-1.1-3H268l-1.1,3H265.6L265.6,253z M268.4,248.9h3.3l-1.1-2.7
	c-0.3-0.8-0.6-1.5-0.7-2c-0.1,0.6-0.3,1.3-0.5,1.9L268.4,248.9z"/>
<path class="st0" d="M280.6,249.1V248h4.2v3.6c-0.6,0.5-1.3,0.9-2,1.1c-0.7,0.3-1.4,0.4-2.1,0.4c-0.9,0-1.8-0.2-2.6-0.6
	c-0.8-0.4-1.4-1-1.8-1.8c-0.4-0.8-0.6-1.7-0.6-2.6c0-0.9,0.2-1.8,0.6-2.7c0.4-0.8,1-1.4,1.7-1.8c0.8-0.4,1.7-0.6,2.6-0.6
	c0.7,0,1.3,0.1,1.9,0.3c0.5,0.2,1,0.6,1.4,1c0.3,0.5,0.6,1,0.7,1.6l-1.1,0.3c-0.1-0.4-0.3-0.8-0.5-1.1c-0.3-0.3-0.6-0.5-0.9-0.7
	c-0.4-0.2-0.9-0.3-1.4-0.3c-0.5,0-1,0.1-1.5,0.3c-0.4,0.2-0.8,0.4-1.1,0.7c-0.3,0.3-0.5,0.6-0.6,1c-0.2,0.6-0.4,1.3-0.4,2
	c0,0.8,0.1,1.5,0.4,2.2c0.3,0.6,0.8,1,1.3,1.3c0.6,0.3,1.2,0.4,1.8,0.4c0.6,0,1.1-0.1,1.7-0.3c0.4-0.2,0.8-0.4,1.2-0.7v-1.8
	L280.6,249.1L280.6,249.1z"/>
<path class="st0" d="M285.9,258.1l3.8-9.8h1.4l4,9.8h-1.5l-1.1-3h-4.1l-1.1,3L285.9,258.1L285.9,258.1z M288.7,254h3.3l-1.1-2.7
	c-0.3-0.8-0.5-1.5-0.7-2c-0.1,0.6-0.3,1.3-0.5,1.9L288.7,254z"/>
<path class="st4" d="M296.8,257l3.8-9.8h1.4l4,9.8h-1.5l-1.1-3h-4.1l-1.1,3L296.8,257L296.8,257z M299.6,253h3.3l-1.1-2.7
	c-0.3-0.8-0.5-1.5-0.7-2c-0.1,0.6-0.3,1.3-0.5,1.9L299.6,253L299.6,253z"/>
<path class="st4" d="M313.3,248.3h1.3v5.7c0,0.8-0.1,1.6-0.3,2.3c-0.2,0.6-0.7,1.1-1.2,1.4c-0.7,0.4-1.5,0.6-2.3,0.5
	c-0.8,0-1.6-0.1-2.3-0.5c-0.6-0.3-1-0.8-1.3-1.4c-0.3-0.8-0.4-1.6-0.4-2.4v-5.7h1.3v5.7c0,0.6,0,1.3,0.2,1.9
	c0.2,0.4,0.4,0.7,0.8,0.9c0.4,0.2,0.9,0.3,1.4,0.3c0.7,0.1,1.5-0.2,2-0.7c0.5-0.7,0.7-1.6,0.6-2.5L313.3,248.3L313.3,248.3z"/>
<path class="st4" d="M321.3,254.2v-1.1h4.1v3.6c-0.6,0.5-1.2,0.9-2,1.1c-0.7,0.3-1.4,0.4-2.1,0.4c-0.9,0-1.8-0.2-2.6-0.6
	c-0.8-0.4-1.4-1-1.8-1.8c-0.4-0.8-0.6-1.7-0.6-2.6c0-0.9,0.2-1.8,0.6-2.7c0.4-0.8,1-1.4,1.7-1.8c0.8-0.4,1.7-0.6,2.6-0.6
	c0.7,0,1.3,0.1,1.9,0.3c0.5,0.2,1,0.5,1.4,1c0.4,0.5,0.6,1,0.7,1.6l-1.1,0.3c-0.1-0.4-0.3-0.8-0.5-1.1c-0.3-0.3-0.6-0.5-0.9-0.7
	c-0.4-0.2-0.9-0.3-1.4-0.3c-0.5,0-1,0.1-1.5,0.3c-0.4,0.1-0.8,0.4-1.1,0.7c-0.3,0.3-0.5,0.6-0.6,1c-0.3,0.6-0.4,1.3-0.4,2
	c0,0.8,0.1,1.5,0.5,2.2c0.3,0.6,0.8,1,1.3,1.3c0.6,0.3,1.2,0.4,1.8,0.4c0.6,0,1.1-0.1,1.6-0.3c0.4-0.2,0.9-0.4,1.2-0.7v-1.8
	L321.3,254.2L321.3,254.2z"/>
<path class="st4" d="M326.6,258.1l3.8-9.8h1.4l4,9.8h-1.5l-1.1-3h-4.1l-1.1,3H326.6L326.6,258.1z M329.4,254h3.3l-1.1-2.7
	c-0.3-0.8-0.6-1.5-0.7-2c-0.1,0.6-0.3,1.3-0.5,1.9L329.4,254z"/>
<path class="st4" d="M319,245.4l3.8-9.8h1.4l4,9.8h-1.5l-1.1-3h-4.1l-1.1,3H319z M321.8,241.3h3.3l-1.1-2.7c-0.3-0.8-0.5-1.5-0.7-2
	c-0.1,0.6-0.3,1.2-0.5,1.9L321.8,241.3L321.8,241.3z"/>
<path class="st4" d="M319,232.7l3.8-9.8h1.4l4,9.8h-1.5l-1.1-3h-4.1l-1.1,3H319z M321.8,228.6h3.3l-1.1-2.7c-0.3-0.8-0.5-1.5-0.7-2
	c-0.1,0.6-0.3,1.3-0.5,1.9L321.8,228.6L321.8,228.6z"/>
<line class="st2" x1="318.8" y1="222.5" x2="314" y2="217.7"/>
<path d="M299.3,212.1l1.2-0.2c0.1,0.6,0.3,1.1,0.7,1.5c0.3,0.3,0.8,0.5,1.2,0.4c1.1,0,2-0.9,2-2c0,0,0,0,0,0l0,0
	c0-1-0.8-1.9-1.8-1.9h-0.1c-0.3,0-0.6,0.1-0.9,0.1l0.1-1.1h0.2c0.5,0,1-0.1,1.4-0.4c0.4-0.3,0.6-0.7,0.6-1.2c0-0.4-0.1-0.8-0.4-1.1
	c-0.7-0.6-1.7-0.6-2.3,0c-0.3,0.4-0.6,0.8-0.6,1.3l-1.2-0.2c0.1-0.7,0.5-1.4,1.1-1.9c0.5-0.4,1.2-0.7,1.9-0.7c0.5,0,1,0.1,1.5,0.3
	c0.4,0.2,0.8,0.5,1.1,0.9c0.2,0.4,0.3,0.8,0.3,1.3c0,0.4-0.1,0.8-0.3,1.1c-0.3,0.4-0.6,0.7-1.1,0.8c0.5,0.1,1,0.4,1.4,0.8
	c0.3,0.5,0.5,1,0.5,1.6c0,0.8-0.3,1.6-0.9,2.2c-0.6,0.6-1.5,0.9-2.4,0.9c-0.8,0-1.5-0.3-2.1-0.8
	C299.8,213.5,299.4,212.8,299.3,212.1L299.3,212.1z M306.9,209.8c0-0.9,0.1-1.9,0.4-2.8c0.2-0.6,0.6-1.2,1.1-1.6
	c0.9-0.7,2.1-0.8,3.2-0.3c0.4,0.2,0.7,0.5,1,0.9c0.3,0.5,0.5,0.9,0.6,1.5c0.2,0.8,0.2,1.5,0.2,2.3c0,0.9-0.1,1.9-0.4,2.8
	c-0.2,0.6-0.6,1.2-1.1,1.6c-1.2,0.9-3,0.7-4-0.4C307.1,212.6,306.8,211.2,306.9,209.8L306.9,209.8z M308.1,209.8
	c-0.1,1.1,0.1,2.2,0.6,3.2c0.4,0.8,1.4,1,2.2,0.6l0,0c0.2-0.1,0.5-0.3,0.6-0.6c0.8-2.1,0.8-4.3,0-6.4c-0.3-0.5-0.8-0.8-1.4-0.8
	c-0.5,0-1,0.3-1.3,0.7C308.2,207.6,308,208.7,308.1,209.8L308.1,209.8L308.1,209.8z"/>
<line class="st3" x1="331.2" y1="266.8" x2="331.2" y2="258.2"/>
<line class="st3" x1="321" y1="266.8" x2="321" y2="258.2"/>
<line class="st3" x1="310.8" y1="266.8" x2="310.8" y2="258.2"/>
<line class="st3" x1="300.7" y1="266.8" x2="300.7" y2="258.2"/>
<path class="st4" d="M324.1,219.9l3.8-9.8h1.4l4,9.8h-1.5l-1.1-3h-4.1l-1.1,3H324.1z M326.9,215.9h3.3l-1.1-2.7
	c-0.3-0.8-0.6-1.5-0.7-2c-0.1,0.6-0.3,1.3-0.5,1.9L326.9,215.9L326.9,215.9z"/>
<path class="st5" d="M337.2,208.5v-1.1h4.1v3.6c-0.6,0.5-1.2,0.9-2,1.1c-0.7,0.3-1.4,0.4-2.1,0.4c-0.9,0-1.8-0.2-2.6-0.6
	c-0.8-0.4-1.4-1-1.8-1.8c-0.4-0.8-0.6-1.7-0.6-2.6c0-0.9,0.2-1.8,0.6-2.7c0.4-0.8,1-1.4,1.7-1.8c0.8-0.4,1.7-0.6,2.6-0.6
	c0.7,0,1.3,0.1,1.9,0.3c0.5,0.2,1,0.5,1.3,1c0.4,0.5,0.6,1,0.7,1.6l-1.1,0.3c-0.1-0.4-0.3-0.8-0.6-1.1c-0.2-0.3-0.6-0.5-0.9-0.7
	c-0.4-0.2-0.9-0.3-1.3-0.2c-0.5,0-1,0.1-1.5,0.3c-0.4,0.2-0.8,0.4-1.1,0.7c-0.3,0.3-0.5,0.6-0.6,1c-0.2,0.6-0.4,1.3-0.4,2
	c0,0.8,0.1,1.5,0.5,2.2c0.3,0.5,0.7,1,1.3,1.2c0.6,0.3,1.2,0.4,1.8,0.4c0.6,0,1.1-0.1,1.6-0.3c0.4-0.2,0.9-0.4,1.2-0.7v-1.8
	L337.2,208.5L337.2,208.5z"/>
<path class="st5" d="M337.2,198.4v-1.1h4.1v3.6c-0.6,0.5-1.3,0.9-2,1.1c-0.7,0.3-1.4,0.4-2.1,0.4c-0.9,0-1.8-0.2-2.6-0.6
	c-0.8-0.4-1.4-1-1.8-1.8c-0.4-0.8-0.6-1.7-0.6-2.6c0-0.9,0.2-1.8,0.6-2.7c0.4-0.8,1-1.4,1.7-1.8c0.8-0.4,1.7-0.6,2.6-0.6
	c0.7,0,1.3,0.1,1.9,0.3c0.5,0.2,1,0.5,1.3,1c0.4,0.5,0.6,1,0.7,1.6l-1.1,0.3c-0.1-0.4-0.3-0.8-0.6-1.1c-0.2-0.3-0.6-0.5-0.9-0.7
	c-0.4-0.2-0.9-0.3-1.3-0.2c-0.5,0-1,0.1-1.5,0.3c-0.4,0.2-0.8,0.4-1.1,0.7c-0.3,0.3-0.5,0.6-0.6,1c-0.2,0.6-0.4,1.3-0.4,2
	c0,0.8,0.1,1.5,0.5,2.2c0.3,0.6,0.7,1,1.3,1.3c0.6,0.3,1.2,0.4,1.8,0.4c0.6,0,1.1-0.1,1.6-0.3c0.4-0.2,0.9-0.4,1.2-0.7v-1.9H337.2z"
	/>
<path class="st5" d="M362.2,197l3.8-9.8h1.4l4,9.8h-1.5l-1.1-3h-4.1l-1.1,3H362.2L362.2,197z M365,193h3.3l-1.1-2.7
	c-0.3-0.8-0.6-1.5-0.7-2c-0.1,0.6-0.3,1.3-0.5,1.9L365,193L365,193z"/>
<path class="st5" d="M359.1,198.7l1.3,0.3c-0.2,1-0.7,1.8-1.5,2.4c-0.7,0.6-1.7,0.9-2.6,0.8c-0.9,0-1.8-0.2-2.6-0.6
	c-0.7-0.5-1.2-1.1-1.5-1.9c-0.3-0.8-0.5-1.7-0.5-2.6c0-0.9,0.2-1.8,0.6-2.7c0.3-0.7,0.9-1.3,1.6-1.7c0.7-0.4,1.5-0.6,2.4-0.6
	c0.9,0,1.7,0.2,2.5,0.7c0.7,0.5,1.2,1.3,1.4,2.1l-1.3,0.3c-0.2-0.6-0.5-1.2-1-1.6c-0.5-0.3-1.1-0.5-1.6-0.5c-0.7,0-1.3,0.2-1.9,0.5
	c-0.5,0.4-0.9,0.9-1.1,1.5c-0.2,0.6-0.3,1.2-0.3,1.9c0,0.7,0.1,1.5,0.4,2.2c0.2,0.6,0.6,1.1,1.1,1.4c0.5,0.3,1.1,0.5,1.7,0.5
	c0.7,0,1.3-0.2,1.8-0.6C358.6,200,358.9,199.4,359.1,198.7z"/>
<path class="st5" d="M359.6,209.4l1.4,0.3c-0.4,1.1-0.9,1.9-1.6,2.2c-0.9,0.6-1.8,0.8-2.8,0.8c-0.9,0-1.9-0.2-2.8-0.6
	c-0.6-0.3-1.2-0.8-1.6-1.6c-0.3-0.6-0.6-1.5-0.6-2.4c0-1,0.2-1.9,0.6-2.4c0.5-0.8,1.1-1.4,1.8-1.6c0.8-0.4,1.7-0.6,2.6-0.5
	c0.9,0,1.8,0.2,2.6,0.7c0.6,0.3,1.1,0.9,1.5,1.9l-1.4,0.3c-0.3-0.7-0.6-1.2-1.1-1.4c-0.6-0.3-1.2-0.5-1.8-0.4c-0.7,0-1.4,0.1-2,0.5
	c-0.4,0.2-0.8,0.7-1.1,1.3c-0.2,0.5-0.3,1-0.3,1.6c0,0.7,0.1,1.4,0.4,2c0.3,0.6,0.8,1.1,1.2,1.3c0.6,0.3,1.2,0.4,1.8,0.4
	c0.7,0,1.3-0.2,2-0.6C359,210.8,359.4,210.2,359.6,209.4L359.6,209.4z"/>
<path class="st6" d="M364.7,217.4l3.8-9.8h1.4l4,9.8h-1.5l-1.1-3h-4.1l-1.1,3H364.7L364.7,217.4z M367.6,213.3h3.3l-1.1-2.7
	c-0.3-0.8-0.6-1.5-0.7-2c-0.1,0.6-0.3,1.3-0.5,1.9L367.6,213.3L367.6,213.3z"/>
<line class="st3" x1="342.4" y1="207" x2="352.6" y2="207"/>
<line class="st3" x1="342.4" y1="196.8" x2="352.6" y2="196.8"/>
<path class="st5" d="M337.2,186.8v-1.1h4.1v3.6c-0.6,0.5-1.3,0.9-2,1.1c-0.7,0.3-1.4,0.4-2.1,0.4c-0.9,0-1.8-0.2-2.6-0.6
	c-0.8-0.4-1.4-1-1.8-1.8c-0.4-0.8-0.6-1.7-0.6-2.6c0-0.9,0.2-1.8,0.6-2.7c0.4-0.8,1-1.4,1.7-1.9c0.8-0.4,1.7-0.6,2.6-0.6
	c0.7,0,1.3,0.1,1.9,0.4c0.5,0.2,1,0.5,1.3,1c0.4,0.5,0.6,1,0.7,1.6l-1.1,0.3c-0.1-0.4-0.3-0.8-0.6-1.1c-0.2-0.3-0.6-0.5-0.9-0.7
	c-0.4-0.2-0.9-0.3-1.3-0.3c-0.5,0-1,0.1-1.5,0.3c-0.4,0.2-0.8,0.4-1.1,0.7c-0.3,0.3-0.5,0.6-0.6,1c-0.2,0.6-0.4,1.3-0.4,2
	c0,0.8,0.1,1.5,0.5,2.2c0.3,0.6,0.7,1,1.3,1.3c0.6,0.3,1.2,0.4,1.8,0.4c0.6,0,1.1-0.1,1.6-0.3c0.4-0.2,0.9-0.4,1.2-0.7v-1.8
	L337.2,186.8L337.2,186.8z"/>
<path class="st5" d="M339.6,175.9l1.3,0.3c-0.2,1-0.7,1.8-1.5,2.4c-0.8,0.6-1.7,0.9-2.6,0.8c-0.9,0-1.8-0.2-2.6-0.6
	c-0.7-0.5-1.2-1.1-1.5-1.9c-0.3-0.8-0.5-1.7-0.5-2.6c0-0.9,0.2-1.8,0.6-2.7c0.4-0.7,0.9-1.3,1.7-1.7c0.7-0.4,1.6-0.6,2.4-0.6
	c0.9,0,1.7,0.2,2.5,0.7c0.7,0.5,1.2,1.3,1.4,2.1l-1.3,0.3c-0.2-0.6-0.5-1.2-1-1.6c-0.5-0.3-1.1-0.5-1.6-0.5c-0.7,0-1.3,0.2-1.9,0.5
	c-0.5,0.4-0.9,0.9-1.1,1.5c-0.2,0.6-0.3,1.2-0.3,1.9c0,0.8,0.1,1.5,0.4,2.2c0.2,0.6,0.6,1.1,1.1,1.4c0.5,0.3,1.1,0.5,1.7,0.5
	c0.7,0,1.3-0.2,1.8-0.6C339.1,177.2,339.5,176.6,339.6,175.9L339.6,175.9z"/>
<path class="st5" d="M328.6,164.3h1.3v5.7c0,0.8-0.1,1.6-0.3,2.3c-0.2,0.6-0.7,1.1-1.2,1.4c-0.7,0.4-1.5,0.6-2.3,0.6
	c-0.8,0-1.6-0.1-2.3-0.5c-0.6-0.3-1-0.8-1.2-1.4c-0.3-0.8-0.4-1.6-0.4-2.5v-5.7h1.3v5.7c0,0.6,0,1.3,0.2,1.9
	c0.2,0.4,0.4,0.7,0.8,0.9c1.1,0.5,2.4,0.4,3.5-0.3c0.5-0.7,0.7-1.6,0.6-2.5L328.6,164.3z"/>
<path class="st5" d="M356.7,175.4v-1.1h4.2v3.7c-0.6,0.5-1.3,0.9-2,1.1c-0.7,0.3-1.4,0.4-2.1,0.4c-0.9,0-1.8-0.2-2.6-0.6
	c-0.8-0.4-1.4-1-1.8-1.8c-0.4-0.8-0.6-1.7-0.6-2.6c0-0.9,0.2-1.8,0.6-2.7c0.4-0.8,1-1.4,1.7-1.8c0.8-0.4,1.7-0.6,2.6-0.6
	c0.7,0,1.3,0.1,1.9,0.3c0.5,0.2,1,0.5,1.3,1c0.4,0.5,0.6,1,0.8,1.6l-1.1,0.3c-0.1-0.4-0.3-0.8-0.6-1.1c-0.2-0.3-0.6-0.5-0.9-0.7
	c-0.4-0.2-0.9-0.3-1.3-0.3c-0.5,0-1,0.1-1.5,0.3c-0.4,0.1-0.8,0.4-1.1,0.7c-0.3,0.3-0.5,0.6-0.6,1c-0.2,0.6-0.4,1.3-0.4,2
	c0,0.8,0.1,1.5,0.4,2.2c0.3,0.6,0.7,1,1.3,1.3c0.6,0.3,1.2,0.4,1.8,0.4c0.6,0,1.1-0.1,1.6-0.3c0.4-0.2,0.9-0.4,1.2-0.7v-1.8
	L356.7,175.4L356.7,175.4z"/>
<path class="st5" d="M359.1,187.1l1.3,0.3c-0.2,1-0.7,1.8-1.5,2.4c-0.7,0.6-1.7,0.9-2.6,0.8c-0.9,0-1.8-0.2-2.6-0.7
	c-0.7-0.5-1.2-1.1-1.5-1.9c-0.3-0.8-0.5-1.7-0.5-2.6c0-0.9,0.2-1.8,0.6-2.7c0.4-0.7,0.9-1.3,1.7-1.7c0.7-0.4,1.5-0.6,2.4-0.6
	c0.9,0,1.8,0.2,2.5,0.7c0.7,0.5,1.2,1.3,1.4,2.1l-1.3,0.3c-0.2-0.6-0.5-1.1-1-1.6c-0.5-0.3-1.1-0.5-1.6-0.5c-0.7,0-1.3,0.2-1.9,0.6
	c-0.5,0.4-0.9,0.9-1.1,1.5c-0.2,0.6-0.3,1.2-0.3,1.9c0,0.7,0.1,1.5,0.4,2.2c0.2,0.6,0.6,1.1,1.1,1.4c0.5,0.3,1.1,0.5,1.7,0.4
	c0.7,0,1.3-0.2,1.9-0.6C358.6,188.5,358.9,187.8,359.1,187.1L359.1,187.1z"/>
<line class="st3" x1="342.4" y1="184.1" x2="352.6" y2="184.1"/>
<line class="st3" x1="342.4" y1="173.9" x2="352.6" y2="173.9"/>
<path class="st5" d="M337.2,162.7v-1.1h4.1v3.6c-0.6,0.5-1.3,0.9-2,1.1c-0.7,0.3-1.4,0.4-2.1,0.4c-0.9,0-1.8-0.2-2.6-0.6
	c-0.8-0.4-1.4-1-1.8-1.8c-0.4-0.8-0.6-1.7-0.6-2.6c0-0.9,0.2-1.8,0.6-2.7c0.4-0.8,1-1.4,1.7-1.8c0.8-0.4,1.7-0.6,2.6-0.6
	c0.7,0,1.3,0.1,1.9,0.3c0.5,0.2,1,0.5,1.3,1c0.4,0.5,0.6,1,0.7,1.6l-1.1,0.3c-0.1-0.4-0.3-0.8-0.6-1.1c-0.2-0.3-0.6-0.5-0.9-0.7
	c-0.4-0.2-0.9-0.3-1.3-0.3c-0.5,0-1,0.1-1.5,0.3c-0.4,0.2-0.8,0.4-1.1,0.7c-0.3,0.3-0.5,0.6-0.6,1c-0.2,0.6-0.4,1.3-0.4,2
	c0,0.8,0.1,1.5,0.5,2.2c0.3,0.6,0.7,1,1.3,1.3c0.6,0.3,1.2,0.4,1.8,0.4c0.6,0,1.1-0.1,1.6-0.3c0.4-0.2,0.9-0.4,1.2-0.7v-1.8
	L337.2,162.7z"/>
<path class="st5" d="M337.2,152.6v-1.1h4.1v3.6c-0.6,0.5-1.3,0.9-2,1.1c-0.7,0.3-1.4,0.4-2.1,0.4c-0.9,0-1.8-0.2-2.6-0.6
	c-0.8-0.4-1.4-1.1-1.8-1.8c-0.4-0.8-0.6-1.7-0.6-2.6c0-0.9,0.2-1.8,0.6-2.7c0.3-0.8,1-1.4,1.7-1.8c0.8-0.4,1.7-0.6,2.6-0.6
	c0.7,0,1.3,0.1,1.9,0.3c0.5,0.2,1,0.5,1.3,1c0.4,0.5,0.6,1,0.7,1.6l-1.1,0.3c-0.1-0.4-0.3-0.8-0.6-1.1c-0.2-0.3-0.6-0.5-0.9-0.7
	c-0.4-0.2-0.9-0.3-1.3-0.3c-0.5,0-1,0.1-1.5,0.3c-0.4,0.2-0.8,0.4-1.1,0.7c-0.3,0.3-0.5,0.6-0.6,1c-0.2,0.6-0.4,1.3-0.4,2
	c0,0.8,0.1,1.5,0.5,2.2c0.3,0.6,0.7,1,1.3,1.3c0.6,0.3,1.2,0.4,1.8,0.4c0.6,0,1.1-0.1,1.6-0.3c0.4-0.2,0.9-0.4,1.2-0.7v-1.8
	L337.2,152.6L337.2,152.6z"/>
<path class="st5" d="M339.6,142.7l1.3,0.3c-0.2,1-0.7,1.8-1.5,2.4c-0.7,0.6-1.7,0.9-2.6,0.8c-0.9,0-1.8-0.2-2.6-0.6
	c-0.7-0.5-1.2-1.1-1.5-1.9c-0.3-0.8-0.5-1.7-0.5-2.6c0-0.9,0.2-1.8,0.6-2.7c0.4-0.7,0.9-1.3,1.7-1.7c0.7-0.4,1.5-0.6,2.4-0.6
	c0.9,0,1.7,0.2,2.5,0.8c0.7,0.5,1.2,1.3,1.4,2.1l-1.3,0.3c-0.2-0.6-0.5-1.2-1-1.6c-0.5-0.3-1.1-0.5-1.6-0.5c-0.7,0-1.3,0.2-1.9,0.5
	c-0.5,0.3-0.9,0.9-1.1,1.4c-0.2,0.6-0.3,1.2-0.3,1.9c0,0.7,0.1,1.5,0.4,2.2c0.2,0.6,0.6,1.1,1.1,1.4c0.5,0.3,1.1,0.5,1.7,0.5
	c0.7,0,1.3-0.2,1.8-0.6C339.1,144.1,339.5,143.5,339.6,142.7L339.6,142.7z"/>
<path class="st5" d="M325.5,142.3v-1.1h4.2v3.6c-0.6,0.5-1.2,0.9-2,1.1c-0.7,0.3-1.4,0.4-2.1,0.4c-0.9,0-1.8-0.2-2.6-0.6
	c-0.8-0.4-1.4-1-1.8-1.8c-0.4-0.8-0.6-1.7-0.6-2.6c0-0.9,0.2-1.8,0.6-2.7c0.3-0.8,1-1.4,1.7-1.8c0.8-0.4,1.7-0.6,2.6-0.6
	c0.7,0,1.3,0.1,1.9,0.3c0.5,0.2,1,0.5,1.4,1c0.4,0.5,0.6,1,0.7,1.6l-1.1,0.3c-0.1-0.4-0.3-0.8-0.5-1.1c-0.2-0.3-0.6-0.5-0.9-0.7
	c-0.4-0.2-0.9-0.3-1.4-0.3c-0.5,0-1,0.1-1.5,0.3c-0.4,0.2-0.8,0.4-1.1,0.7c-0.3,0.3-0.5,0.6-0.6,1c-0.3,0.6-0.4,1.3-0.4,2
	c0,0.8,0.1,1.5,0.4,2.2c0.3,0.6,0.8,1,1.3,1.3c0.6,0.3,1.2,0.4,1.8,0.4c0.6,0,1.1-0.1,1.6-0.3c0.4-0.2,0.9-0.4,1.2-0.7v-1.8
	L325.5,142.3L325.5,142.3z"/>
<path class="st5" d="M308.7,149.6l3.8-9.8h1.4l4,9.8h-1.4l-1.1-3h-4.1l-1.1,3H308.7z M311.5,145.5h3.3l-1.1-2.7
	c-0.3-0.8-0.5-1.5-0.7-2c-0.1,0.6-0.3,1.3-0.5,1.9L311.5,145.5L311.5,145.5z"/>
<path class="st5" d="M301.8,145.8v-1.1h4.2v3.6c-0.6,0.5-1.2,0.9-2,1.1c-0.7,0.3-1.4,0.4-2.1,0.4c-0.9,0-1.8-0.2-2.6-0.6
	c-0.8-0.4-1.4-1-1.8-1.8c-0.4-0.8-0.6-1.7-0.6-2.7c0-0.9,0.2-1.8,0.6-2.7c0.3-0.8,0.9-1.5,1.7-1.9c0.8-0.4,1.7-0.6,2.6-0.6
	c0.7,0,1.3,0.1,1.9,0.3c0.5,0.2,1,0.5,1.3,1c0.4,0.5,0.6,1,0.7,1.6l-1.1,0.3c-0.1-0.4-0.3-0.8-0.6-1.1c-0.2-0.3-0.6-0.5-0.9-0.7
	c-0.4-0.2-0.9-0.3-1.3-0.3c-0.5,0-1,0.1-1.5,0.3c-0.4,0.2-0.8,0.4-1.1,0.7c-0.3,0.3-0.5,0.6-0.6,1c-0.3,0.6-0.4,1.3-0.4,2
	c0,0.8,0.1,1.5,0.4,2.2c0.3,0.6,0.7,1,1.3,1.3c0.6,0.3,1.2,0.4,1.8,0.4c0.6,0,1.1-0.1,1.6-0.3c0.4-0.2,0.9-0.4,1.2-0.7v-1.8
	L301.8,145.8L301.8,145.8z"/>
<path class="st5" d="M288.4,138.6l3.8-9.8h1.3l4,9.8H296l-1.1-3h-4.1l-1.1,3H288.4L288.4,138.6z M291.2,134.5h3.3l-1.1-2.7
	c-0.3-0.8-0.5-1.5-0.7-2c-0.1,0.6-0.3,1.3-0.5,1.9L291.2,134.5L291.2,134.5z"/>
<path class="st5" d="M356.6,142.3v-1.1h4.2v3.6c-0.6,0.5-1.3,0.9-2,1.1c-1.5,0.6-3.2,0.5-4.7-0.2c-0.8-0.4-1.4-1-1.8-1.8
	c-0.4-0.8-0.6-1.7-0.6-2.6c0-0.9,0.2-1.8,0.6-2.7c0.3-0.8,1-1.4,1.7-1.8c0.8-0.4,1.7-0.6,2.6-0.6c0.7,0,1.3,0.1,1.9,0.3
	c0.5,0.2,1,0.5,1.3,1c0.4,0.5,0.6,1,0.8,1.6l-1.1,0.3c-0.1-0.4-0.3-0.8-0.6-1.1c-0.3-0.3-0.6-0.5-0.9-0.7c-0.4-0.2-0.9-0.3-1.3-0.3
	c-0.5,0-1,0.1-1.5,0.3c-0.4,0.2-0.8,0.4-1.1,0.7c-0.3,0.3-0.5,0.6-0.6,1c-0.3,0.6-0.4,1.3-0.4,2c0,0.8,0.1,1.5,0.4,2.2
	c0.3,0.6,0.7,1,1.3,1.3c0.6,0.3,1.2,0.4,1.8,0.4c0.6,0,1.1-0.1,1.6-0.3c0.4-0.2,0.9-0.4,1.2-0.7v-1.8L356.6,142.3L356.6,142.3z"/>
<path class="st5" d="M359.1,152.9l1.3,0.3c-0.2,1-0.7,1.8-1.5,2.4c-0.7,0.6-1.7,0.9-2.6,0.8c-0.9,0-1.8-0.2-2.6-0.6
	c-0.7-0.5-1.2-1.1-1.5-1.9c-0.3-0.8-0.5-1.7-0.5-2.6c0-0.9,0.2-1.8,0.6-2.7c0.4-0.7,0.9-1.3,1.7-1.7c0.7-0.4,1.5-0.6,2.4-0.6
	c0.9,0,1.7,0.2,2.5,0.7c0.7,0.5,1.2,1.3,1.4,2.1l-1.3,0.3c-0.2-0.6-0.5-1.2-1-1.6c-0.5-0.3-1.1-0.5-1.6-0.5c-0.7,0-1.3,0.2-1.9,0.5
	c-0.5,0.4-0.9,0.9-1.1,1.5c-0.2,0.6-0.3,1.2-0.3,1.9c0,0.7,0.1,1.5,0.4,2.2c0.2,0.6,0.6,1.1,1.1,1.4c0.5,0.3,1.1,0.5,1.7,0.5
	c0.7,0,1.3-0.2,1.8-0.6C358.6,154.3,358.9,153.6,359.1,152.9L359.1,152.9z"/>
<path class="st5" d="M359.1,163.1l1.3,0.3c-0.2,1-0.7,1.8-1.5,2.4c-0.7,0.6-1.7,0.9-2.6,0.8c-0.9,0-1.8-0.2-2.6-0.6
	c-0.7-0.5-1.2-1.1-1.5-1.9c-0.3-0.8-0.5-1.7-0.5-2.6c0-0.9,0.2-1.8,0.6-2.7c0.4-0.7,0.9-1.3,1.7-1.7c0.7-0.4,1.5-0.6,2.4-0.6
	c0.9,0,1.7,0.2,2.5,0.8c0.7,0.5,1.2,1.3,1.4,2.1l-1.3,0.3c-0.2-0.6-0.5-1.2-1-1.6c-0.5-0.3-1.1-0.5-1.6-0.5c-0.7,0-1.3,0.2-1.9,0.5
	c-0.5,0.4-0.9,0.9-1.1,1.5c-0.2,0.6-0.3,1.2-0.3,1.9c0,0.7,0.1,1.5,0.4,2.2c0.2,0.6,0.6,1.1,1.1,1.4c0.5,0.3,1.1,0.5,1.7,0.5
	c0.7,0,1.3-0.2,1.8-0.6C358.6,164.4,358.9,163.8,359.1,163.1L359.1,163.1z"/>
<line class="st3" x1="342.4" y1="161.2" x2="352.6" y2="161.2"/>
<line class="st3" x1="342.4" y1="151" x2="352.6" y2="151"/>
<line class="st3" x1="342.4" y1="140.8" x2="352.6" y2="140.8"/>
<path class="st5" d="M296.8,121l1.3,0.3c-0.2,1-0.7,1.8-1.5,2.4c-0.7,0.6-1.7,0.9-2.6,0.8c-0.9,0-1.8-0.2-2.6-0.6
	c-0.7-0.5-1.2-1.1-1.5-1.9c-0.3-0.8-0.5-1.7-0.5-2.6c0-0.9,0.2-1.8,0.6-2.7c0.4-0.7,1-1.3,1.7-1.7c0.7-0.4,1.5-0.6,2.4-0.6
	c0.9,0,1.7,0.2,2.5,0.8c0.7,0.5,1.2,1.3,1.4,2.1l-1.3,0.3c-0.2-0.6-0.5-1.2-1-1.6c-0.5-0.3-1-0.5-1.6-0.5c-0.7,0-1.3,0.2-1.9,0.5
	c-0.5,0.4-0.9,0.9-1.1,1.5c-0.5,1.3-0.5,2.7,0,4.1c0.2,0.6,0.6,1.1,1.1,1.4c0.5,0.3,1.1,0.5,1.7,0.5c0.7,0,1.3-0.2,1.8-0.6
	C296.3,122.4,296.7,121.8,296.8,121L296.8,121z"/>
<path class="st5" d="M301.2,118.1l3.8-9.8h1.4l4,9.8H309l-1.1-3h-4.1l-1.1,3L301.2,118.1z M304.1,114.1h3.3l-1.1-2.7
	c-0.3-0.8-0.5-1.5-0.7-2c-0.1,0.6-0.3,1.3-0.5,1.9L304.1,114.1L304.1,114.1z"/>
<path class="st5" d="M320.4,111.7h1.3v5.7c0,0.8-0.1,1.6-0.3,2.4c-0.2,0.6-0.7,1.1-1.2,1.4c-0.7,0.4-1.5,0.6-2.3,0.5
	c-0.8,0-1.6-0.1-2.3-0.5c-0.6-0.3-1-0.8-1.2-1.4c-0.3-0.8-0.4-1.6-0.4-2.4v-5.7h1.3v5.7c0,0.6,0.1,1.3,0.2,1.9
	c0.2,0.4,0.4,0.7,0.8,0.9c0.4,0.2,0.9,0.3,1.4,0.3c0.7,0.1,1.5-0.2,2-0.6c0.5-0.7,0.7-1.6,0.6-2.5L320.4,111.7z"/>
<path class="st5" d="M322.1,126.6l3.8-9.8h1.4l4,9.8h-1.5l-1.1-3h-4.1l-1.1,3H322.1L322.1,126.6z M325,122.6h3.3l-1.1-2.7
	c-0.3-0.7-0.5-1.3-0.7-2c-0.1,0.6-0.3,1.3-0.5,1.9L325,122.6z"/>
<path class="st5" d="M338.6,123.7h1.3v5.7c0,0.8-0.1,1.6-0.3,2.4c-0.2,0.6-0.7,1.1-1.2,1.4c-0.7,0.4-1.5,0.6-2.3,0.6
	c-0.8,0-1.6-0.1-2.3-0.5c-0.6-0.3-1-0.8-1.2-1.4c-0.3-0.8-0.4-1.6-0.4-2.5v-5.7h1.3v5.7c0,0.6,0.1,1.3,0.2,1.9
	c0.2,0.4,0.4,0.7,0.8,0.9c1.1,0.5,2.4,0.4,3.4-0.3c0.5-0.7,0.7-1.6,0.6-2.5C338.6,129.4,338.6,123.7,338.6,123.7z"/>
<path class="st5" d="M339.6,119.9l1.3,0.3c-0.2,1-0.7,1.8-1.5,2.4c-0.8,0.6-1.7,0.9-2.6,0.8c-0.9,0-1.8-0.2-2.6-0.6
	c-0.7-0.4-1.2-1.1-1.5-1.9c-0.3-0.8-0.5-1.7-0.5-2.6c0-0.9,0.2-1.8,0.6-2.7c0.4-0.7,0.9-1.3,1.7-1.7c0.7-0.4,1.5-0.6,2.4-0.6
	c0.9,0,1.7,0.2,2.5,0.8c0.7,0.5,1.2,1.3,1.4,2.1l-1.3,0.3c-0.2-0.6-0.5-1.2-1-1.6c-0.5-0.3-1.1-0.5-1.6-0.5c-0.7,0-1.3,0.2-1.9,0.5
	c-0.5,0.4-0.9,0.9-1.1,1.5c-0.2,0.6-0.3,1.2-0.3,1.9c0,0.7,0.1,1.5,0.4,2.2c0.2,0.6,0.6,1.1,1.1,1.4c0.5,0.3,1.1,0.5,1.7,0.5
	c0.7,0,1.3-0.2,1.8-0.6C339.2,121.3,339.5,120.6,339.6,119.9z"/>
<path class="st5" d="M339.6,109.8l1.3,0.3c-0.2,1-0.7,1.8-1.5,2.4c-0.8,0.6-1.7,0.9-2.6,0.8c-0.9,0-1.8-0.2-2.6-0.7
	c-0.7-0.4-1.2-1.1-1.5-1.9c-0.3-0.8-0.5-1.7-0.5-2.6c0-0.9,0.2-1.8,0.6-2.7c0.4-0.7,0.9-1.3,1.7-1.7c0.7-0.4,1.5-0.6,2.4-0.6
	c0.9,0,1.7,0.2,2.5,0.8c0.7,0.5,1.2,1.3,1.4,2.1l-1.3,0.3c-0.2-0.6-0.5-1.2-1-1.6c-0.5-0.3-1.1-0.5-1.6-0.5c-0.7,0-1.3,0.2-1.9,0.5
	c-0.5,0.3-0.9,0.9-1.1,1.5c-0.2,0.6-0.3,1.2-0.3,1.9c0,0.7,0.1,1.5,0.4,2.2c0.2,0.6,0.6,1.1,1.1,1.4c0.5,0.3,1.1,0.5,1.7,0.5
	c0.7,0,1.3-0.2,1.8-0.6C339.1,111.1,339.5,110.5,339.6,109.8L339.6,109.8z"/>
<path class="st5" d="M337.2,99.2V98h4.1v3.6c-0.6,0.5-1.3,0.9-2,1.1c-0.7,0.3-1.4,0.4-2.1,0.4c-0.9,0-1.8-0.2-2.6-0.6
	c-0.8-0.4-1.4-1-1.8-1.8c-0.4-0.8-0.6-1.7-0.6-2.6c0-0.9,0.2-1.8,0.6-2.7c0.4-0.8,1-1.4,1.7-1.8c0.8-0.4,1.7-0.6,2.6-0.6
	c0.7,0,1.3,0.1,1.9,0.3c0.5,0.2,1,0.5,1.3,1c0.4,0.5,0.6,1,0.7,1.6l-1.1,0.3c-0.1-0.4-0.3-0.8-0.6-1.1c-0.2-0.3-0.6-0.5-0.9-0.7
	c-0.4-0.2-0.9-0.3-1.3-0.3c-0.5,0-1,0.1-1.5,0.3c-0.4,0.2-0.8,0.4-1.1,0.7c-0.3,0.3-0.5,0.6-0.6,1c-0.2,0.6-0.4,1.3-0.4,2
	c0,0.8,0.1,1.5,0.5,2.2c0.3,0.6,0.7,1,1.3,1.3c0.6,0.3,1.2,0.4,1.8,0.4c0.6,0,1.1-0.1,1.6-0.3c0.4-0.2,0.9-0.4,1.2-0.7v-1.8
	L337.2,99.2L337.2,99.2z"/>
<path class="st5" d="M339.6,88.4l1.3,0.3c-0.2,1-0.7,1.8-1.5,2.4c-0.8,0.6-1.7,0.9-2.6,0.8c-0.9,0-1.8-0.2-2.6-0.6
	c-0.7-0.5-1.2-1.1-1.5-1.9c-0.3-0.8-0.5-1.7-0.5-2.6c0-0.9,0.2-1.8,0.6-2.7c0.4-0.7,0.9-1.3,1.7-1.7c0.7-0.4,1.6-0.6,2.4-0.6
	c0.9,0,1.7,0.2,2.5,0.7c0.7,0.5,1.2,1.3,1.4,2.1l-1.3,0.3c-0.2-0.6-0.5-1.2-1-1.6c-0.5-0.3-1.1-0.5-1.6-0.5c-0.7,0-1.3,0.2-1.9,0.5
	c-0.5,0.3-0.9,0.9-1.1,1.5c-0.2,0.6-0.3,1.2-0.3,1.9c0,0.8,0.1,1.5,0.4,2.2c0.2,0.6,0.6,1.1,1.1,1.4c0.5,0.3,1.1,0.5,1.7,0.5
	c0.7,0,1.3-0.2,1.8-0.6C339.1,89.8,339.5,89.1,339.6,88.4z"/>
<path class="st5" d="M338.6,70.5h1.3v5.7c0,0.8-0.1,1.6-0.3,2.3c-0.2,0.6-0.7,1.1-1.2,1.4c-0.7,0.4-1.5,0.6-2.3,0.6
	c-0.8,0-1.6-0.1-2.3-0.5c-0.6-0.3-1-0.8-1.2-1.4c-0.3-0.8-0.4-1.6-0.4-2.5v-5.7h1.3v5.7c0,0.6,0.1,1.3,0.2,1.9
	c0.2,0.4,0.4,0.7,0.8,0.9c1.1,0.5,2.4,0.4,3.5-0.3c0.5-0.7,0.7-1.6,0.6-2.5V70.5L338.6,70.5z"/>
<path class="st5" d="M337.2,65.5v-1.2h4.2V68c-0.6,0.5-1.3,0.9-2,1.1c-0.7,0.2-1.4,0.4-2.1,0.4c-0.9,0-1.8-0.2-2.6-0.6
	c-0.8-0.4-1.4-1-1.8-1.8c-0.4-0.8-0.6-1.7-0.6-2.6c0-0.9,0.2-1.8,0.6-2.7c0.4-0.8,1-1.4,1.8-1.8c0.8-0.4,1.7-0.6,2.6-0.6
	c0.7,0,1.3,0.1,1.9,0.3c0.5,0.2,1,0.5,1.3,1c0.4,0.5,0.6,1,0.7,1.6l-1.1,0.3c-0.1-0.4-0.3-0.8-0.6-1.1c-0.2-0.3-0.6-0.5-0.9-0.7
	c-0.4-0.2-0.9-0.3-1.3-0.3c-0.5,0-1,0.1-1.5,0.3c-0.4,0.2-0.8,0.4-1.1,0.7c-0.3,0.3-0.5,0.6-0.6,1c-0.5,1.3-0.5,2.8,0.1,4.2
	c0.3,0.6,0.7,1,1.3,1.3c0.6,0.3,1.2,0.4,1.8,0.4c0.6,0,1.1-0.1,1.6-0.3c0.4-0.2,0.9-0.4,1.2-0.7v-1.9H337.2z"/>
<path class="st5" d="M337.2,54.3v-1.1h4.2v3.6c-0.6,0.5-1.3,0.9-2,1.1c-1.5,0.6-3.2,0.5-4.7-0.2c-0.8-0.4-1.4-1-1.8-1.8
	c-0.4-0.8-0.6-1.7-0.6-2.6c0-0.9,0.2-1.8,0.6-2.7c0.4-0.8,1-1.4,1.7-1.8c0.8-0.4,1.7-0.6,2.6-0.6c0.7,0,1.3,0.1,1.9,0.3
	c0.5,0.2,1,0.5,1.3,1c0.4,0.5,0.6,1,0.7,1.6l-1.1,0.3c-0.1-0.4-0.3-0.8-0.6-1.1c-0.2-0.3-0.6-0.5-0.9-0.7c-0.4-0.2-0.9-0.3-1.3-0.3
	c-0.5,0-1,0.1-1.5,0.3c-0.4,0.2-0.8,0.4-1.1,0.7c-0.3,0.3-0.5,0.6-0.6,1c-0.3,0.6-0.4,1.3-0.4,2c0,0.8,0.1,1.5,0.5,2.2
	c0.3,0.6,0.7,1,1.3,1.3c0.6,0.3,1.2,0.4,1.8,0.4c1,0,2.1-0.4,2.9-1.1v-1.8L337.2,54.3L337.2,54.3z"/>
<path class="st5" d="M331.6,40.8v-1.1h4.1v3.6c-0.6,0.5-1.2,0.9-2,1.1c-1.5,0.6-3.2,0.5-4.7-0.2c-0.8-0.4-1.4-1-1.8-1.8
	c-0.4-0.8-0.6-1.7-0.6-2.6c0-0.9,0.2-1.8,0.6-2.7c0.4-0.8,1-1.5,1.8-1.9c0.8-0.4,1.7-0.6,2.6-0.6c0.7,0,1.3,0.1,1.9,0.3
	c0.5,0.2,1,0.5,1.3,1c0.4,0.5,0.6,1,0.7,1.6l-1.1,0.3c-0.1-0.4-0.3-0.8-0.6-1.1c-0.2-0.3-0.6-0.6-0.9-0.7c-0.4-0.2-0.9-0.3-1.4-0.2
	c-0.5,0-1,0.1-1.5,0.3c-0.4,0.1-0.8,0.4-1.1,0.7c-0.3,0.3-0.5,0.6-0.6,1c-0.3,0.6-0.4,1.3-0.4,2c0,0.8,0.1,1.5,0.5,2.2
	c0.3,0.6,0.7,1,1.3,1.3c0.6,0.3,1.2,0.4,1.8,0.4c1,0,2.1-0.4,2.9-1.1v-1.8L331.6,40.8L331.6,40.8z"/>
<path class="st5" d="M342,30.5l1.3,0.3c-0.2,1-0.7,1.8-1.5,2.5c-0.7,0.6-1.7,0.9-2.6,0.8c-0.9,0-1.8-0.2-2.6-0.6
	c-0.7-0.4-1.2-1.1-1.5-1.9c-0.4-0.8-0.5-1.7-0.5-2.6c0-0.9,0.2-1.8,0.6-2.7c0.4-0.7,0.9-1.3,1.7-1.7c0.7-0.4,1.5-0.6,2.4-0.6
	c0.9,0,1.7,0.2,2.5,0.8c0.7,0.5,1.2,1.3,1.4,2.1l-1.3,0.3c-0.2-0.6-0.5-1.2-1-1.6c-0.5-0.3-1-0.5-1.6-0.5c-0.7,0-1.3,0.2-1.9,0.5
	c-0.5,0.4-0.9,0.9-1.1,1.5c-0.2,0.6-0.3,1.2-0.3,1.9c0,0.7,0.1,1.5,0.4,2.2c0.2,0.6,0.6,1.1,1.2,1.4c0.5,0.3,1.1,0.5,1.7,0.5
	c0.7,0,1.3-0.2,1.9-0.6C341.5,31.9,341.9,31.2,342,30.5L342,30.5z"/>
<path class="st5" d="M346.7,32.9l3.8-9.8h1.4l4,9.8h-1.5l-1.1-3h-4.1l-1.1,3L346.7,32.9z M349.6,28.9h3.3l-1.1-2.7
	c-0.3-0.8-0.5-1.5-0.7-2c-0.1,0.6-0.3,1.3-0.5,1.9L349.6,28.9z"/>
<path class="st5" d="M356.6,42.8l3.7-9.8h1.4l4,9.8h-1.5l-1.1-3h-4.1l-1.1,3H356.6L356.6,42.8z M359.4,38.7h3.3l-1.1-2.7
	c-0.3-0.8-0.5-1.5-0.7-2c-0.1,0.6-0.3,1.3-0.5,1.9L359.4,38.7z"/>
<path class="st5" d="M358.1,48.2h1.3v5.7c0,0.8-0.1,1.6-0.3,2.3c-0.2,0.6-0.7,1.1-1.2,1.4c-0.7,0.4-1.5,0.6-2.3,0.5
	c-0.8,0-1.6-0.1-2.3-0.5c-0.6-0.3-1-0.8-1.2-1.4c-0.3-0.8-0.4-1.6-0.4-2.4v-5.7h1.3v5.7c0,0.6,0.1,1.3,0.2,1.9
	c0.2,0.4,0.4,0.7,0.8,0.9c0.4,0.2,0.9,0.3,1.4,0.3c0.7,0.1,1.5-0.2,2-0.6c0.5-0.7,0.7-1.6,0.6-2.5L358.1,48.2L358.1,48.2z"/>
<line class="st2" x1="364.2" y1="63.2" x2="371" y2="63.2"/>
<path d="M380,60.7l-1.2,0.1c-0.1-0.4-0.2-0.8-0.4-1.1c-0.3-0.3-0.7-0.5-1.2-0.5c-0.4,0-0.8,0.1-1.1,0.3c-0.4,0.3-0.7,0.7-0.9,1.2
	c-0.3,0.7-0.4,1.5-0.3,2.3c0.3-0.4,0.6-0.8,1.1-1c0.4-0.2,0.9-0.3,1.3-0.3c0.8,0,1.5,0.3,2.1,0.9c0.6,0.6,0.8,1.4,0.8,2.2
	c0,0.6-0.1,1.2-0.4,1.7c-0.3,0.5-0.7,0.9-1.1,1.2c-0.5,0.3-1,0.4-1.6,0.4c-0.9,0-1.9-0.4-2.4-1.1c-0.7-1.1-1.1-2.4-1-3.6
	c-0.1-1.5,0.3-2.9,1.1-4.1c0.6-0.7,1.5-1.1,2.5-1.1c1.4-0.1,2.7,1,2.8,2.4C380,60.7,380,60.7,380,60.7L380,60.7L380,60.7z M375.1,65
	c0,0.4,0.1,0.8,0.3,1.1c0.2,0.3,0.4,0.6,0.7,0.9c0.3,0.2,0.6,0.3,1,0.3c0.5,0,1-0.2,1.3-0.6c0.4-0.5,0.6-1.1,0.5-1.7
	c0-0.6-0.2-1.2-0.5-1.6c-0.3-0.4-0.8-0.6-1.4-0.6c-0.5,0-1,0.2-1.4,0.6C375.3,63.8,375.1,64.4,375.1,65z M381.3,63.3
	c0-0.9,0.1-1.9,0.3-2.8c0.2-0.6,0.6-1.2,1.1-1.6c0.5-0.4,1.1-0.6,1.8-0.6c0.5,0,1,0.1,1.4,0.3c0.4,0.2,0.7,0.5,1,0.9
	c0.3,0.4,0.5,0.9,0.6,1.5c0.2,0.7,0.2,1.5,0.2,2.3c0,0.9-0.1,1.9-0.4,2.8c-0.2,0.6-0.6,1.2-1.1,1.6c-0.5,0.4-1.1,0.6-1.8,0.6
	c-0.9,0-1.7-0.4-2.3-1.1C381.5,66,381.2,64.6,381.3,63.3L381.3,63.3L381.3,63.3z M382.5,63.3c-0.1,1.1,0.1,2.2,0.6,3.2
	c0.3,0.5,0.8,0.8,1.4,0.8c0.6,0,1.1-0.3,1.4-0.8c0.5-1,0.7-2.1,0.6-3.2c0.1-1.1-0.1-2.2-0.6-3.2c-0.3-0.5-0.8-0.8-1.4-0.8
	c-0.5,0-1,0.3-1.3,0.7C382.7,61.1,382.5,62.2,382.5,63.3L382.5,63.3L382.5,63.3z"/>
<path class="st5" d="M359,64.7l1.3,0.3c-0.2,0.9-0.7,1.8-1.5,2.4c-0.7,0.6-1.7,0.9-2.6,0.8c-0.9,0-1.8-0.2-2.6-0.6
	c-0.7-0.5-1.2-1.1-1.5-1.9c-0.3-0.8-0.5-1.7-0.5-2.6c0-0.9,0.2-1.8,0.6-2.7c0.4-0.7,1-1.3,1.7-1.7c0.7-0.4,1.5-0.6,2.3-0.6
	c1.8-0.1,3.4,1.1,3.9,2.9l-1.3,0.3c-0.2-0.6-0.5-1.2-1-1.6c-0.5-0.3-1-0.5-1.6-0.5c-0.7,0-1.3,0.2-1.9,0.6c-0.5,0.3-0.9,0.9-1.1,1.5
	c-0.2,0.6-0.3,1.2-0.3,1.9c0,0.8,0.1,1.5,0.4,2.2c0.2,0.6,0.6,1.1,1.1,1.4c0.5,0.3,1.1,0.5,1.7,0.5c0.7,0,1.3-0.2,1.8-0.6
	C358.5,66.1,358.9,65.4,359,64.7L359,64.7z"/>
<path class="st5" d="M351.7,79.4l3.8-9.8h1.4l4,9.8h-1.5l-1.1-3h-4.1l-1.1,3L351.7,79.4z M354.5,75.3h3.3l-1.1-2.7
	c-0.3-0.8-0.5-1.5-0.7-2c-0.1,0.6-0.3,1.3-0.5,1.9C355.5,72.5,354.5,75.3,354.5,75.3z"/>
<path class="st5" d="M356.6,86.8v-1.1h4.2v3.6c-0.6,0.5-1.3,0.9-2,1.1c-0.7,0.3-1.4,0.4-2.1,0.4c-0.9,0-1.8-0.2-2.6-0.6
	c-0.8-0.4-1.4-1-1.8-1.8c-0.4-0.8-0.6-1.7-0.6-2.6c0-0.9,0.2-1.8,0.6-2.7c0.4-0.8,1-1.4,1.8-1.9c1.4-0.7,3-0.8,4.5-0.3
	c0.5,0.2,1,0.5,1.3,1c0.4,0.5,0.6,1,0.8,1.6l-1.1,0.3c-0.1-0.4-0.3-0.8-0.5-1.1c-0.3-0.3-0.6-0.5-0.9-0.7c-0.4-0.2-0.9-0.3-1.4-0.3
	c-0.5,0-1,0.1-1.5,0.3c-0.4,0.2-0.8,0.4-1.1,0.7c-0.3,0.3-0.5,0.6-0.6,1c-0.3,0.6-0.4,1.3-0.4,2c0,0.8,0.1,1.5,0.4,2.2
	c0.3,0.6,0.7,1,1.3,1.3c0.6,0.3,1.2,0.4,1.8,0.4c0.6,0,1.1-0.1,1.7-0.3c0.4-0.2,0.8-0.4,1.2-0.7v-1.8L356.6,86.8L356.6,86.8z"/>
<path class="st5" d="M364.2,86.2l3.8-9.8h1.4l3.9,9.8h-1.5l-1.1-3h-4.1l-1.1,3H364.2L364.2,86.2z M367,82.2h3.4l-1.1-2.7
	c-0.3-0.8-0.5-1.5-0.7-2c-0.1,0.6-0.3,1.3-0.5,1.9L367,82.2z"/>
<path class="st5" d="M382.8,85.8h1.3v5.7c0,0.8-0.1,1.6-0.3,2.3c-0.2,0.6-0.6,1.1-1.2,1.4c-0.7,0.4-1.5,0.6-2.3,0.6
	c-0.8,0-1.6-0.1-2.3-0.5c-0.6-0.3-1-0.8-1.2-1.4c-0.3-0.8-0.4-1.6-0.4-2.4v-5.7h1.3v5.7c0,0.6,0.1,1.3,0.2,1.9
	c0.2,0.4,0.5,0.7,0.8,0.9c0.4,0.2,0.9,0.3,1.4,0.3c0.7,0.1,1.5-0.2,2-0.7c0.5-0.7,0.7-1.6,0.6-2.5L382.8,85.8L382.8,85.8z"/>
<path class="st5" d="M370.7,94.3h1.3v5.7c0,0.8-0.1,1.6-0.3,2.3c-0.2,0.6-0.7,1.1-1.2,1.4c-0.7,0.4-1.5,0.6-2.3,0.5
	c-0.8,0-1.6-0.1-2.3-0.5c-0.6-0.3-1-0.8-1.2-1.4c-0.3-0.8-0.4-1.6-0.4-2.5v-5.7h1.3v5.7c0,0.6,0.1,1.3,0.2,1.9
	c0.2,0.4,0.4,0.7,0.8,0.9c0.4,0.2,0.9,0.3,1.4,0.3c0.7,0.1,1.5-0.2,2-0.6c0.5-0.7,0.7-1.6,0.6-2.5L370.7,94.3L370.7,94.3z"/>
<path class="st5" d="M359.1,99.5l1.3,0.3c-0.2,1-0.7,1.8-1.5,2.4c-0.7,0.6-1.7,0.9-2.6,0.8c-0.9,0-1.8-0.2-2.6-0.6
	c-0.7-0.5-1.2-1.1-1.5-1.9c-0.3-0.8-0.5-1.7-0.5-2.6c0-0.9,0.2-1.8,0.6-2.7c0.3-0.7,0.9-1.3,1.6-1.7c0.7-0.4,1.5-0.6,2.4-0.6
	c0.9,0,1.7,0.2,2.5,0.7c0.7,0.5,1.2,1.3,1.4,2.1l-1.3,0.3c-0.2-0.6-0.5-1.2-1-1.6c-0.5-0.3-1.1-0.5-1.6-0.5c-0.7,0-1.3,0.2-1.9,0.5
	c-0.5,0.4-0.9,0.9-1.1,1.5c-0.2,0.6-0.3,1.2-0.3,1.9c0,0.7,0.1,1.5,0.4,2.2c0.2,0.6,0.6,1.1,1.1,1.4c0.5,0.3,1.1,0.5,1.7,0.5
	c0.7,0,1.3-0.2,1.8-0.6C358.6,100.9,358.9,100.2,359.1,99.5z"/>
<path class="st5" d="M356.6,109.3v-1.1h4.2v3.6c-0.6,0.5-1.3,0.9-2,1.1c-1.5,0.6-3.2,0.5-4.7-0.2c-0.8-0.4-1.4-1-1.8-1.8
	c-0.4-0.8-0.6-1.7-0.6-2.6c0-0.9,0.2-1.9,0.6-2.7c0.4-0.8,1-1.4,1.7-1.8c0.8-0.4,1.7-0.6,2.6-0.6c0.7,0,1.3,0.1,1.9,0.3
	c0.5,0.2,1,0.5,1.3,1c0.4,0.5,0.6,1,0.8,1.6l-1.1,0.3c-0.1-0.4-0.3-0.8-0.6-1.1c-0.3-0.3-0.6-0.5-0.9-0.7c-0.4-0.2-0.9-0.3-1.3-0.2
	c-0.5,0-1,0.1-1.5,0.3c-0.4,0.2-0.8,0.4-1.1,0.7c-0.3,0.3-0.5,0.6-0.6,1c-0.2,0.6-0.4,1.3-0.4,2c0,0.8,0.1,1.5,0.4,2.2
	c0.3,0.6,0.7,1,1.3,1.3c0.6,0.3,1.2,0.4,1.8,0.4c0.6,0,1.1-0.1,1.6-0.3c0.4-0.2,0.9-0.4,1.2-0.7v-1.8L356.6,109.3z"/>
<path class="st5" d="M356.6,119.4v-1.1h4.2v3.6c-0.6,0.5-1.3,0.9-2,1.1c-1.5,0.6-3.2,0.5-4.7-0.2c-0.8-0.4-1.4-1-1.8-1.8
	c-0.4-0.8-0.6-1.7-0.6-2.6c0-0.9,0.2-1.8,0.6-2.7c0.4-0.8,1-1.4,1.7-1.8c0.8-0.4,1.7-0.6,2.6-0.6c0.7,0,1.3,0.1,1.9,0.3
	c0.5,0.2,1,0.5,1.3,1c0.4,0.5,0.6,1,0.8,1.6l-1.1,0.3c-0.1-0.4-0.3-0.8-0.6-1.1c-0.2-0.3-0.6-0.6-0.9-0.7c-0.4-0.2-0.9-0.3-1.3-0.3
	c-0.5,0-1,0.1-1.5,0.3c-0.4,0.1-0.8,0.4-1.1,0.7c-0.3,0.3-0.5,0.6-0.6,1c-0.3,0.6-0.4,1.3-0.4,2c0,0.8,0.1,1.5,0.4,2.2
	c0.3,0.6,0.7,1,1.3,1.3c0.6,0.3,1.2,0.4,1.8,0.4c1,0,2-0.4,2.9-1.1v-1.9L356.6,119.4L356.6,119.4z"/>
<path class="st5" d="M351.7,133.4l3.7-9.8h1.4l4,9.8h-1.5l-1.1-3h-4.1l-1.1,3H351.7L351.7,133.4z M354.5,129.4h3.3l-1.1-2.7
	c-0.3-0.8-0.5-1.5-0.7-2c-0.1,0.6-0.3,1.3-0.5,1.9L354.5,129.4z"/>
<line class="st3" x1="342.4" y1="128.1" x2="352.6" y2="128.1"/>
<line class="st3" x1="342.4" y1="117.9" x2="352.6" y2="117.9"/>
<line class="st3" x1="342.4" y1="107.8" x2="352.6" y2="107.8"/>
<line class="st3" x1="342.4" y1="97.6" x2="352.6" y2="97.6"/>
<path class="st6" d="M382.5,213.9l1.3,0.3c-0.2,1-0.7,1.8-1.5,2.4c-0.7,0.6-1.7,0.9-2.6,0.8c-0.9,0-1.8-0.2-2.6-0.6
	c-0.7-0.4-1.2-1.1-1.5-1.9c-0.3-0.8-0.5-1.7-0.5-2.6c0-0.9,0.2-1.8,0.6-2.7c0.4-0.7,1-1.3,1.7-1.7c0.7-0.4,1.6-0.6,2.4-0.6
	c0.9,0,1.8,0.2,2.5,0.7c0.7,0.5,1.2,1.3,1.4,2.1l-1.3,0.3c-0.2-0.6-0.5-1.2-1-1.6c-0.5-0.3-1-0.5-1.6-0.5c-0.7,0-1.3,0.2-1.9,0.5
	c-0.5,0.4-0.9,0.9-1.1,1.5c-0.2,0.6-0.3,1.2-0.3,1.9c0,0.7,0.1,1.5,0.4,2.2c0.2,0.6,0.6,1.1,1.1,1.4c0.5,0.3,1.1,0.5,1.7,0.5
	c0.7,0,1.3-0.2,1.8-0.6C382.1,215.3,382.4,214.6,382.5,213.9L382.5,213.9z"/>
<path class="st6" d="M392.7,213.9l1.3,0.3c-0.2,1-0.7,1.8-1.5,2.4c-0.7,0.6-1.7,0.9-2.6,0.8c-0.9,0-1.8-0.2-2.6-0.6
	c-0.7-0.5-1.2-1.1-1.5-1.9c-0.3-0.8-0.5-1.7-0.5-2.6c0-0.9,0.2-1.8,0.6-2.7c0.4-0.7,1-1.3,1.7-1.7c0.7-0.4,1.5-0.6,2.4-0.6
	c0.9,0,1.8,0.2,2.5,0.7c0.7,0.5,1.2,1.3,1.4,2.1l-1.3,0.3c-0.2-0.6-0.5-1.2-1-1.6c-0.5-0.3-1-0.5-1.6-0.5c-0.7,0-1.3,0.2-1.9,0.5
	c-0.5,0.4-0.9,0.9-1.1,1.5c-0.4,1.3-0.4,2.8,0.1,4.1c0.2,0.6,0.6,1.1,1.1,1.4c0.5,0.3,1.1,0.5,1.7,0.5c0.7,0,1.3-0.2,1.8-0.6
	C392.2,215.3,392.6,214.6,392.7,213.9L392.7,213.9z"/>
<path class="st6" d="M402.9,213.9l1.3,0.3c-0.2,1-0.7,1.8-1.5,2.4c-0.7,0.6-1.7,0.9-2.6,0.8c-0.9,0-1.8-0.2-2.6-0.6
	c-0.7-0.5-1.2-1.1-1.5-1.9c-0.3-0.8-0.5-1.7-0.5-2.6c0-0.9,0.2-1.8,0.6-2.7c0.4-0.7,1-1.3,1.7-1.7c0.7-0.4,1.5-0.6,2.4-0.6
	c0.9,0,1.7,0.2,2.5,0.7c0.7,0.5,1.2,1.3,1.4,2.1l-1.3,0.3c-0.2-0.6-0.5-1.2-1-1.6c-0.5-0.3-1-0.5-1.6-0.5c-0.7,0-1.3,0.2-1.9,0.5
	c-0.5,0.4-0.9,0.9-1.1,1.5c-0.5,1.3-0.5,2.8,0,4.1c0.2,0.6,0.6,1.1,1.1,1.4c0.5,0.3,1.1,0.5,1.7,0.5c0.7,0,1.3-0.2,1.8-0.6
	C402.4,215.3,402.7,214.7,402.9,213.9L402.9,213.9z"/>
<path class="st0" d="M396.7,249l3.8-9.8h1.4l4,9.8h-1.5l-1.1-3h-4.1l-1.1,3H396.7z M399.5,245h3.3l-1.1-2.7c-0.3-0.8-0.5-1.5-0.7-2
	c-0.1,0.6-0.3,1.3-0.5,1.9L399.5,245L399.5,245z"/>
<path class="st6" d="M400.2,233.9v-1.1h4.1v3.6c-0.6,0.5-1.2,0.9-2,1.1c-0.7,0.3-1.4,0.4-2.1,0.4c-0.9,0-1.8-0.2-2.6-0.6
	c-0.8-0.4-1.4-1-1.8-1.8c-0.4-0.8-0.6-1.7-0.6-2.6c0-0.9,0.2-1.8,0.6-2.7c0.4-0.8,1-1.4,1.7-1.8c0.8-0.4,1.7-0.6,2.6-0.6
	c0.7,0,1.3,0.1,1.9,0.3c0.5,0.2,1,0.5,1.3,1c0.4,0.5,0.6,1,0.7,1.6L403,231c-0.1-0.4-0.3-0.8-0.5-1.1c-0.2-0.3-0.6-0.5-0.9-0.7
	c-0.4-0.2-0.9-0.3-1.4-0.3c-0.5,0-1,0.1-1.5,0.3c-0.4,0.2-0.8,0.4-1.1,0.7c-0.3,0.3-0.5,0.6-0.6,1c-0.3,0.6-0.4,1.3-0.4,2
	c0,0.8,0.1,1.5,0.5,2.2c0.3,0.6,0.7,1,1.3,1.3c0.6,0.3,1.2,0.4,1.8,0.4c0.6,0,1.1-0.1,1.7-0.3c0.4-0.2,0.8-0.4,1.2-0.7v-1.8
	L400.2,233.9z"/>
<path class="st6" d="M390.1,233.9v-1.1h4.1v3.6c-0.6,0.5-1.2,0.9-2,1.1c-0.7,0.3-1.4,0.4-2.1,0.4c-0.9,0-1.8-0.2-2.6-0.6
	c-0.8-0.4-1.4-1-1.8-1.8c-0.4-0.8-0.6-1.7-0.6-2.6c0-0.9,0.2-1.8,0.6-2.7c0.4-0.8,1-1.4,1.7-1.8c0.8-0.4,1.7-0.6,2.6-0.6
	c0.7,0,1.3,0.1,1.9,0.3c0.5,0.2,1,0.5,1.3,1c0.4,0.5,0.6,1,0.7,1.6l-1.1,0.3c-0.1-0.4-0.3-0.8-0.6-1.1c-0.2-0.3-0.6-0.5-0.9-0.7
	c-0.4-0.2-0.9-0.3-1.3-0.3c-0.5,0-1.1,0.1-1.5,0.3c-0.4,0.2-0.8,0.4-1.1,0.7c-0.3,0.3-0.5,0.6-0.6,1c-0.3,0.6-0.4,1.3-0.4,2
	c0,0.8,0.1,1.5,0.4,2.2c0.3,0.6,0.7,1,1.3,1.3c0.6,0.3,1.2,0.4,1.8,0.4c0.6,0,1.1-0.1,1.6-0.3c0.4-0.2,0.9-0.4,1.2-0.7v-1.8
	L390.1,233.9L390.1,233.9z"/>
<path class="st6" d="M379.8,233.9v-1.1h4.1v3.6c-0.6,0.5-1.3,0.9-2,1.1c-1.5,0.6-3.2,0.5-4.7-0.2c-0.8-0.4-1.4-1-1.8-1.8
	c-0.4-0.8-0.6-1.7-0.6-2.6c0-0.9,0.2-1.8,0.6-2.7c0.3-0.8,1-1.4,1.7-1.8c0.8-0.4,1.7-0.6,2.6-0.6c0.7,0,1.3,0.1,1.9,0.3
	c0.5,0.2,1,0.5,1.4,1c0.3,0.5,0.6,1,0.7,1.6l-1.1,0.3c-0.1-0.4-0.3-0.8-0.5-1.1c-0.3-0.3-0.6-0.5-0.9-0.7c-0.4-0.2-0.9-0.3-1.3-0.3
	c-0.5,0-1.1,0.1-1.5,0.3c-0.4,0.1-0.8,0.4-1.1,0.7c-0.3,0.3-0.5,0.6-0.6,1c-0.2,0.6-0.4,1.3-0.4,2c0,0.8,0.1,1.5,0.4,2.2
	c0.3,0.6,0.8,1,1.3,1.3c0.6,0.3,1.2,0.4,1.8,0.4c0.6,0,1.1-0.1,1.7-0.3c0.4-0.2,0.8-0.4,1.2-0.7v-1.8L379.8,233.9L379.8,233.9z"/>
<path class="st0" d="M385.1,247l1.3,0.3c-0.2,1-0.7,1.8-1.5,2.4c-0.7,0.6-1.7,0.9-2.6,0.8c-0.9,0.1-1.8-0.2-2.6-0.6
	c-0.7-0.5-1.2-1.1-1.5-1.9c-0.3-0.8-0.5-1.7-0.5-2.6c0-0.9,0.2-1.8,0.6-2.7c0.4-0.7,1-1.3,1.7-1.7c0.7-0.4,1.5-0.6,2.4-0.6
	c0.9,0,1.7,0.2,2.5,0.8c0.7,0.5,1.2,1.3,1.4,2.1l-1.3,0.3c-0.2-0.6-0.5-1.2-1-1.6c-0.5-0.3-1-0.5-1.6-0.5c-0.7,0-1.3,0.2-1.9,0.6
	c-0.5,0.4-0.9,0.9-1.1,1.5c-0.2,0.6-0.3,1.2-0.3,1.9c0,0.7,0.1,1.5,0.4,2.2c0.2,0.6,0.6,1.1,1.1,1.4c0.5,0.3,1.1,0.5,1.7,0.5
	c0.7,0,1.3-0.2,1.8-0.6C384.6,248.4,385,247.7,385.1,247L385.1,247z"/>
<path class="st0" d="M385.1,258.1l3.8-9.8h1.4l4,9.8h-1.5l-1.1-3h-4.1l-1.1,3L385.1,258.1L385.1,258.1z M387.9,254h3.3l-1.1-2.7
	c-0.3-0.8-0.5-1.5-0.7-2c-0.1,0.6-0.3,1.3-0.5,1.9L387.9,254L387.9,254z"/>
<path class="st0" d="M402.3,255.9h1.3v5.7c0,0.8-0.1,1.6-0.3,2.3c-0.2,0.6-0.7,1.1-1.2,1.4c-0.7,0.4-1.5,0.6-2.3,0.5
	c-0.8,0-1.6-0.1-2.3-0.5c-0.6-0.3-1-0.8-1.2-1.4c-0.3-0.8-0.4-1.6-0.4-2.5v-5.7h1.3v5.7c0,0.6,0.1,1.3,0.2,1.9
	c0.1,0.4,0.4,0.7,0.8,0.9c0.4,0.2,0.9,0.3,1.4,0.3c0.7,0.1,1.5-0.2,2-0.6c0.5-0.7,0.7-1.6,0.6-2.5L402.3,255.9L402.3,255.9z"/>
<path class="st0" d="M405.4,268.2l3.8-9.8h1.4l4,9.8h-1.5l-1.1-3h-4.1l-1.1,3H405.4z M408.2,264.1h3.4l-1.1-2.7
	c-0.3-0.8-0.5-1.5-0.7-2c-0.1,0.6-0.3,1.3-0.5,1.9L408.2,264.1z"/>
<path class="st0" d="M415.6,270.8l3.8-9.8h1.4l4,9.8h-1.5l-1.1-3H418l-1.1,3H415.6z M418.4,266.8h3.3l-1.1-2.7
	c-0.3-0.8-0.5-1.5-0.7-2c-0.1,0.6-0.3,1.3-0.5,1.9L418.4,266.8z"/>
<path class="st0" d="M428.1,279.6v-1.1h4.1v3.6c-0.6,0.5-1.2,0.9-2,1.1c-0.7,0.3-1.4,0.4-2.1,0.4c-0.9,0-1.8-0.2-2.6-0.6
	c-0.8-0.4-1.4-1-1.8-1.8c-0.4-0.8-0.6-1.7-0.6-2.6c0-0.9,0.2-1.8,0.6-2.7c0.4-0.8,1-1.4,1.7-1.8c0.8-0.4,1.7-0.6,2.6-0.6
	c0.7,0,1.3,0.1,1.9,0.3c0.5,0.2,1,0.5,1.3,1c0.4,0.5,0.6,1,0.7,1.6l-1.1,0.3c-0.1-0.4-0.3-0.8-0.6-1.1c-0.2-0.3-0.6-0.5-0.9-0.7
	c-0.4-0.2-0.9-0.3-1.4-0.3c-0.5,0-1,0.1-1.5,0.3c-0.4,0.2-0.8,0.4-1.1,0.7c-0.3,0.3-0.5,0.6-0.6,1c-0.3,0.6-0.4,1.3-0.4,2
	c0,0.8,0.1,1.5,0.5,2.2c0.3,0.6,0.7,1,1.3,1.3c0.6,0.3,1.2,0.4,1.8,0.4c0.6,0,1.1-0.1,1.7-0.3c0.4-0.2,0.9-0.4,1.2-0.7v-1.8
	L428.1,279.6L428.1,279.6z"/>
<path class="st0" d="M430.7,292.3v-1.1h4.2v3.6c-0.6,0.5-1.3,0.9-2,1.1c-0.7,0.3-1.4,0.4-2.1,0.4c-0.9,0-1.8-0.2-2.6-0.6
	c-0.8-0.4-1.4-1-1.8-1.8c-0.4-0.8-0.6-1.7-0.6-2.6c0-0.9,0.2-1.8,0.6-2.7c0.4-0.8,1-1.4,1.7-1.8c0.8-0.4,1.7-0.6,2.6-0.6
	c0.7,0,1.3,0.1,1.9,0.3c0.5,0.2,1,0.5,1.3,1c0.4,0.5,0.6,1,0.8,1.6l-1.1,0.3c-0.1-0.4-0.3-0.8-0.6-1.1c-0.2-0.3-0.6-0.6-0.9-0.7
	c-0.4-0.2-0.9-0.3-1.3-0.2c-0.5,0-1,0.1-1.5,0.3c-0.4,0.2-0.8,0.4-1.1,0.7c-0.3,0.3-0.5,0.6-0.6,1c-0.3,0.6-0.4,1.3-0.4,2
	c0,0.8,0.1,1.5,0.5,2.2c0.3,0.6,0.7,1,1.3,1.3c0.6,0.3,1.2,0.4,1.8,0.4c0.6,0,1.1-0.1,1.6-0.3c0.4-0.2,0.9-0.4,1.2-0.7v-1.8
	L430.7,292.3L430.7,292.3z"/>
<line class="st3" x1="379.5" y1="218.7" x2="379.5" y2="228.3"/>
<line class="st3" x1="389.7" y1="218.7" x2="389.7" y2="228.3"/>
<path class="st6" d="M412.5,207.6h1.3v5.7c0,0.8-0.1,1.6-0.3,2.3c-0.2,0.6-0.7,1.1-1.2,1.4c-0.7,0.4-1.5,0.6-2.3,0.6
	c-0.8,0-1.6-0.1-2.3-0.5c-0.6-0.3-1-0.8-1.2-1.4c-0.3-0.8-0.4-1.6-0.4-2.4v-5.7h1.3v5.7c0,0.6,0.1,1.3,0.2,1.9
	c0.1,0.4,0.4,0.7,0.8,0.9c0.4,0.2,0.9,0.3,1.4,0.3c0.7,0.1,1.5-0.2,2-0.6c0.5-0.7,0.7-1.6,0.6-2.5L412.5,207.6L412.5,207.6z"/>
<path class="st6" d="M423.2,213.9l1.3,0.3c-0.2,1-0.7,1.8-1.5,2.4c-0.7,0.6-1.7,0.9-2.6,0.8c-0.9,0-1.8-0.2-2.6-0.6
	c-0.7-0.4-1.2-1.1-1.5-1.9c-0.3-0.8-0.5-1.7-0.5-2.6c0-0.9,0.2-1.8,0.6-2.7c0.4-0.7,0.9-1.3,1.7-1.7c0.7-0.4,1.5-0.6,2.4-0.6
	c0.9,0,1.7,0.2,2.5,0.7c0.7,0.5,1.2,1.3,1.4,2.1l-1.3,0.3c-0.2-0.6-0.5-1.2-1-1.6c-0.5-0.3-1.1-0.5-1.6-0.5c-0.7,0-1.3,0.2-1.9,0.5
	c-0.5,0.4-0.9,0.9-1.1,1.5c-0.2,0.6-0.3,1.2-0.3,1.9c0,0.7,0.1,1.5,0.4,2.2c0.2,0.6,0.6,1.1,1.1,1.4c0.5,0.3,1.1,0.5,1.7,0.5
	c0.7,0,1.3-0.2,1.9-0.6C422.8,215.3,423.1,214.6,423.2,213.9L423.2,213.9z"/>
<path class="st0" d="M430.7,207.3v-1.1h4.2v3.6c-0.6,0.5-1.3,0.9-2,1.1c-0.7,0.3-1.4,0.4-2.1,0.4c-0.9,0-1.8-0.2-2.6-0.6
	c-0.8-0.4-1.4-1-1.8-1.8c-0.4-0.8-0.6-1.7-0.6-2.6c0-0.9,0.2-1.8,0.6-2.7c0.3-0.8,1-1.4,1.7-1.8c0.8-0.4,1.7-0.6,2.6-0.6
	c0.7,0,1.3,0.1,1.9,0.3c0.5,0.2,1,0.5,1.3,1c0.4,0.5,0.6,1,0.8,1.6l-1.1,0.3c-0.1-0.4-0.3-0.8-0.6-1.1c-0.2-0.3-0.6-0.5-0.9-0.7
	c-0.4-0.2-0.9-0.3-1.3-0.2c-0.5,0-1,0.1-1.5,0.3c-0.4,0.2-0.8,0.4-1.1,0.7c-0.3,0.3-0.5,0.6-0.6,1c-0.3,0.6-0.4,1.3-0.4,2
	c0,0.8,0.1,1.5,0.5,2.2c0.3,0.6,0.7,1,1.3,1.3c0.6,0.3,1.2,0.4,1.8,0.4c0.6,0,1.1-0.1,1.6-0.3c0.4-0.2,0.9-0.4,1.2-0.7v-1.8
	L430.7,207.3L430.7,207.3z"/>
<path class="st0" d="M438.5,208.6l3.8-9.8h1.4l4,9.8h-1.5l-1.1-3H441l-1.1,3H438.5z M441.3,204.6h3.3l-1.1-2.7
	c-0.3-0.8-0.5-1.5-0.7-2c-0.1,0.6-0.3,1.3-0.5,1.9L441.3,204.6L441.3,204.6z"/>
<path class="st0" d="M446.1,214.8l3.8-9.8h1.4l4,9.8h-1.5l-1.1-3h-4.1l-1.1,3H446.1L446.1,214.8z M449,210.8h3.3l-1.1-2.7
	c-0.3-0.8-0.6-1.5-0.7-2c-0.1,0.6-0.3,1.3-0.5,1.9L449,210.8L449,210.8z"/>
<path class="st0" d="M450.8,223.7v-1.1h4.2v3.6c-0.6,0.5-1.2,0.9-1.9,1.2c-1.5,0.6-3.2,0.5-4.7-0.2c-0.8-0.4-1.4-1-1.8-1.8
	c-0.4-0.8-0.6-1.7-0.6-2.6c0-0.9,0.2-1.8,0.6-2.7c0.3-0.8,1-1.4,1.7-1.8c0.8-0.4,1.7-0.6,2.6-0.6c0.7,0,1.3,0.1,1.9,0.3
	c0.5,0.2,1,0.5,1.3,0.9c0.4,0.5,0.6,1,0.8,1.6l-1.1,0.3c-0.1-0.4-0.3-0.8-0.6-1.1c-0.3-0.3-0.6-0.5-0.9-0.7
	c-0.4-0.2-0.9-0.3-1.3-0.3c-0.5,0-1,0.1-1.5,0.3c-0.4,0.2-0.8,0.4-1.1,0.7c-0.3,0.3-0.5,0.6-0.6,1c-0.3,0.6-0.4,1.3-0.4,2
	c0,0.8,0.1,1.5,0.4,2.2c0.3,0.6,0.7,1,1.3,1.3c0.6,0.3,1.2,0.4,1.8,0.4c1,0,2-0.4,2.8-1v-1.8L450.8,223.7L450.8,223.7z"/>
<path class="st0" d="M446.7,227.9h1.3v5.7c0,0.8-0.1,1.6-0.3,2.3c-0.2,0.6-0.7,1.1-1.2,1.4c-0.7,0.4-1.5,0.6-2.3,0.6
	c-0.8,0-1.6-0.1-2.3-0.5c-0.6-0.3-1-0.8-1.2-1.4c-0.3-0.8-0.4-1.6-0.4-2.4v-5.7h1.3v5.7c0,0.6,0.1,1.3,0.2,1.9
	c0.1,0.4,0.4,0.7,0.8,0.9c1.1,0.5,2.4,0.4,3.4-0.3c0.5-0.7,0.7-1.6,0.6-2.5L446.7,227.9L446.7,227.9z"/>
<path class="st0" d="M428.3,237.7l3.8-9.8h1.4l4,9.8H436l-1.2-2.9h-4.1l-1.1,3L428.3,237.7L428.3,237.7z M431.2,233.7h3.3l-1.1-2.7
	c-0.3-0.7-0.5-1.3-0.7-2c-0.1,0.6-0.3,1.3-0.5,1.9L431.2,233.7L431.2,233.7z"/>
<line class="st2" x1="437.7" y1="237.2" x2="442.5" y2="242"/>
<path d="M443.2,253.4l1.1-0.1c0.1,0.4,0.3,0.8,0.6,1.1c0.3,0.3,0.7,0.4,1.1,0.4c0.3,0,0.7-0.1,1-0.3c0.3-0.2,0.5-0.4,0.7-0.7
	c0.2-0.3,0.4-0.7,0.4-1.1c0.1-0.5,0.2-1,0.2-1.5V251c-0.8,1.3-2.6,1.7-3.9,0.9c-0.2-0.1-0.4-0.3-0.5-0.4c-0.6-0.6-0.9-1.5-0.8-2.3
	c0-0.9,0.3-1.7,0.9-2.4c0.6-0.6,1.4-0.9,2.2-0.9c1.3,0,2.5,0.8,3,2c0.3,0.9,0.5,1.8,0.4,2.8c0,1-0.1,2-0.4,3
	c-0.2,0.7-0.6,1.3-1.2,1.7c-0.6,0.4-1.2,0.6-1.9,0.6c-0.7,0-1.3-0.2-1.9-0.6C443.6,254.7,443.3,254,443.2,253.4L443.2,253.4z
	 M448.2,249.1c0-0.6-0.2-1.2-0.6-1.7c-0.3-0.4-0.8-0.6-1.3-0.6c-0.5,0-1,0.2-1.4,0.6c-0.4,0.5-0.6,1.1-0.6,1.7
	c0,0.6,0.2,1.1,0.6,1.5c0.4,0.4,0.9,0.6,1.4,0.6c0.6,0,1.1-0.2,1.4-0.6C448.1,250.2,448.3,249.6,448.2,249.1L448.2,249.1
	L448.2,249.1z M450.6,250.8c0-0.9,0.1-1.9,0.4-2.8c0.2-0.6,0.6-1.2,1.1-1.6c0.5-0.4,1.1-0.6,1.8-0.6c0.5,0,1,0.1,1.4,0.3
	c0.4,0.2,0.7,0.5,1,0.9c0.3,0.5,0.5,0.9,0.6,1.5c0.2,0.8,0.2,1.5,0.2,2.3c0,0.9-0.1,1.9-0.3,2.8c-0.2,0.6-0.6,1.2-1.1,1.6
	c-1.2,0.9-3,0.7-4-0.4C450.8,253.6,450.5,252.2,450.6,250.8L450.6,250.8L450.6,250.8z M451.8,250.8c-0.1,1.1,0.1,2.2,0.6,3.2
	c0.4,0.8,1.4,1,2.2,0.6l0,0c0.3-0.1,0.5-0.3,0.6-0.6c0.8-2.1,0.8-4.3,0-6.4c-0.3-0.5-0.8-0.8-1.4-0.8c-0.5,0-1,0.2-1.3,0.7
	C451.9,248.5,451.7,249.7,451.8,250.8L451.8,250.8L451.8,250.8z"/>
<path class="st6" d="M420.5,233.9v-1.1h4.1v3.6c-0.6,0.5-1.2,0.9-2,1.1c-0.7,0.3-1.4,0.4-2.1,0.4c-0.9,0-1.8-0.2-2.6-0.6
	c-0.8-0.4-1.4-1-1.8-1.8c-0.4-0.8-0.6-1.7-0.6-2.6c0-0.9,0.2-1.8,0.6-2.7c0.4-0.8,1-1.4,1.7-1.8c0.8-0.4,1.7-0.6,2.6-0.6
	c0.7,0,1.3,0.1,1.9,0.3c0.5,0.2,1,0.5,1.3,1c0.4,0.5,0.6,1,0.7,1.6l-1.1,0.3c-0.1-0.4-0.3-0.8-0.5-1.1c-0.2-0.3-0.6-0.5-0.9-0.7
	c-0.4-0.2-0.9-0.3-1.4-0.3c-0.5,0-1,0.1-1.5,0.3c-0.4,0.1-0.8,0.4-1.1,0.7c-0.3,0.3-0.5,0.6-0.6,1c-0.3,0.6-0.4,1.3-0.4,2
	c0,0.8,0.1,1.5,0.5,2.2c0.3,0.6,0.7,1,1.3,1.3c0.6,0.3,1.2,0.4,1.8,0.4c0.6,0,1.1-0.1,1.6-0.3c0.4-0.2,0.9-0.4,1.2-0.7v-1.8
	L420.5,233.9L420.5,233.9z"/>
<path class="st6" d="M405.4,237.7l3.8-9.8h1.4l4,9.8h-1.5l-1.2-2.9h-4.1l-1.1,3L405.4,237.7z M408.3,233.7h3.4l-1.1-2.7
	c-0.3-0.8-0.5-1.5-0.7-2c-0.1,0.6-0.3,1.3-0.5,1.9L408.3,233.7L408.3,233.7z"/>
<path class="st0" d="M415.3,245.6l1.3,0.3c-0.2,1-0.7,1.8-1.5,2.4c-0.7,0.6-1.7,0.9-2.6,0.8c-0.9,0-1.8-0.2-2.6-0.6
	c-0.7-0.5-1.2-1.1-1.5-1.9c-0.3-0.8-0.5-1.7-0.5-2.6c0-0.9,0.2-1.8,0.6-2.7c0.4-0.7,1-1.3,1.7-1.7c0.7-0.4,1.5-0.6,2.4-0.6
	c0.9,0,1.7,0.2,2.5,0.8c0.7,0.5,1.2,1.3,1.4,2.1l-1.3,0.3c-0.2-0.6-0.5-1.2-1-1.6c-0.5-0.3-1-0.5-1.6-0.5c-0.7,0-1.3,0.2-1.9,0.6
	c-0.5,0.4-0.9,0.9-1.1,1.5c-0.4,1.3-0.4,2.7,0,4.1c0.2,0.6,0.6,1.1,1.1,1.4c0.5,0.3,1.1,0.5,1.7,0.5c0.7,0,1.3-0.2,1.8-0.6
	C414.8,247,415.2,246.3,415.3,245.6L415.3,245.6z"/>
<line class="st3" x1="410" y1="218.7" x2="410" y2="228.3"/>
<line class="st3" x1="420.2" y1="218.7" x2="420.2" y2="228.3"/>
<text transform="matrix(1 0 0 1 38.5086 34.9885)" class="st7 st8">70Cam60 aptamer</text>
<line class="st3" x1="341.7" y1="53.3" x2="351.8" y2="53.3"/>
<line class="st3" x1="341.5" y1="64.4" x2="351.6" y2="64.4"/>
<line class="st3" x1="341.2" y1="75.6" x2="351.3" y2="75.6"/>
<line class="st3" x1="341.5" y1="85.8" x2="351.6" y2="85.8"/>
<text transform="matrix(1 0 0 1 337.6191 395.1855)" class="st7 st9">5</text>
<text transform="matrix(1 0 0 1 345.8682 395.1855)" class="st7 st9">’</text>
<text transform="matrix(1 0 0 1 392.9995 382.416)" class="st7 st9">3</text>
<text transform="matrix(1 0 0 1 401.248 382.416)" class="st7 st9">’</text>
<line class="st3" x1="399.8" y1="217.9" x2="399.8" y2="227.5"/>
</svg>
