<?xml version="1.0" encoding="UTF-8"?>
<svg id="_图层_1" data-name="图层 1" xmlns="http://www.w3.org/2000/svg" viewBox="0 0 800 400">
  <defs>
    <style>
      .cls-1 {
        font-size: 20px;
      }

      .cls-1, .cls-2, .cls-3, .cls-4, .cls-5, .cls-6, .cls-7, .cls-8, .cls-9, .cls-10, .cls-11, .cls-12, .cls-13, .cls-14 {
        font-family: ArialMT, Arial;
        isolation: isolate;
      }

      .cls-2 {
        font-size: 13.81px;
      }

      .cls-2, .cls-15 {
        fill: #fff;
      }

      .cls-16 {
        fill: #8527b5;
      }

      .cls-3, .cls-4, .cls-5, .cls-6, .cls-7, .cls-8, .cls-9, .cls-12, .cls-13 {
        font-size: 29.16px;
      }

      .cls-3, .cls-6, .cls-13 {
        letter-spacing: -.35em;
      }

      .cls-3, .cls-12 {
        fill: #b83332;
      }

      .cls-4, .cls-5 {
        letter-spacing: -.35em;
      }

      .cls-4, .cls-6, .cls-7 {
        fill: #2ea103;
      }

      .cls-17, .cls-18, .cls-19, .cls-20, .cls-15 {
        stroke: #000;
      }

      .cls-17, .cls-19, .cls-20, .cls-15 {
        stroke-miterlimit: 1.11;
      }

      .cls-5, .cls-8 {
        fill: #084595;
      }

      .cls-18 {
        stroke-miterlimit: 10;
        stroke-width: .75px;
      }

      .cls-18, .cls-20 {
        fill: none;
      }

      .cls-19 {
        fill: #fcfcfc;
      }

      .cls-9, .cls-13 {
        fill: #c2b617;
      }

      .cls-10 {
        font-size: 8.78px;
      }

      .cls-11 {
        letter-spacing: -.12em;
      }

      .cls-11, .cls-14 {
        font-size: 13.17px;
      }
    </style>
  </defs>
  <rect class="cls-16" x="432.35" y="114.75" width="18.78" height="37.93"/>
  <g id="ID000002">
    <text class="cls-12" transform="translate(182.02 134.07)"><tspan x="0" y="0">G</tspan></text>
  </g>
  <g id="ID000002-2">
    <text class="cls-12" transform="translate(206.65 134.07)"><tspan x="0" y="0">G</tspan></text>
  </g>
  <g id="ID000002-3">
    <text class="cls-12" transform="translate(314.46 134.07)"><tspan x="0" y="0">G</tspan></text>
  </g>
  <g id="ID000002-4">
    <text class="cls-9" transform="translate(404.08 134.07)"><tspan x="0" y="0">G</tspan></text>
  </g>
  <g id="ID000002-5">
    <text class="cls-7" transform="translate(451.3 169.27)"><tspan x="0" y="0">G</tspan></text>
  </g>
  <g id="ID000002-6">
    <text class="cls-8" transform="translate(497.71 134.07)"><tspan x="0" y="0">G</tspan></text>
  </g>
  <g id="ID000002-7">
    <text class="cls-8" transform="translate(563.81 124.4)"><tspan x="0" y="0">G</tspan></text>
  </g>
  <g id="ID000002-8">
    <text class="cls-8" transform="translate(521.45 169.27)"><tspan x="0" y="0">G</tspan></text>
  </g>
  <g id="ID000002-9">
    <text class="cls-8" transform="translate(543.39 169.27)"><tspan x="0" y="0">G</tspan></text>
  </g>
  <g id="ID000003">
    <text class="cls-3" transform="translate(232.44 134.07)"><tspan x="0" y="0">A</tspan></text>
  </g>
  <g id="ID000003-2">
    <text class="cls-3" transform="translate(257.57 134.07)"><tspan x="0" y="0">A</tspan></text>
  </g>
  <g id="ID000003-3">
    <text class="cls-13" transform="translate(325.6 98.73)"><tspan x="0" y="0">A</tspan></text>
  </g>
  <g id="ID000003-4">
    <text class="cls-13" transform="translate(348.11 98.73)"><tspan x="0" y="0">A</tspan></text>
  </g>
  <g id="ID000003-5">
    <text class="cls-6" transform="translate(382.43 169.27)"><tspan x="0" y="0">A</tspan></text>
  </g>
  <g id="ID000003-6">
    <text class="cls-13" transform="translate(339.44 169.27)"><tspan x="0" y="0">A</tspan></text>
  </g>
  <g id="ID000003-7">
    <text class="cls-13" transform="translate(289.58 98.73)"><tspan x="0" y="0">A</tspan></text>
  </g>
  <g id="ID000003-8">
    <text class="cls-5" transform="translate(583.1 165.71)"><tspan x="0" y="0">A</tspan></text>
  </g>
  <g id="ID000003-9">
    <text class="cls-5" transform="translate(565.9 179.82)"><tspan x="0" y="0">A</tspan></text>
  </g>
  <g id="ID000003-10">
    <text class="cls-5" transform="translate(583.1 137.4)"><tspan x="0" y="0">A</tspan></text>
  </g>
  <g id="ID000003-11">
    <text class="cls-4" transform="translate(462.38 108.77)"><tspan x="0" y="0">A</tspan></text>
  </g>
  <g id="ID000003-12">
    <text class="cls-5" transform="translate(477.68 169.27)"><tspan x="0" y="0">A</tspan></text>
  </g>
  <g id="ID000003-13">
    <text class="cls-13" transform="translate(339.44 134.07)"><tspan x="0" y="0">A</tspan></text>
  </g>
  <g id="ID000028">
    <text class="cls-9" transform="translate(381.91 134.07)"><tspan x="0" y="0">U</tspan></text>
  </g>
  <g id="ID000028-2">
    <text class="cls-9" transform="translate(360.24 130.71)"><tspan x="0" y="0">U</tspan></text>
  </g>
  <g id="ID000028-3">
    <text class="cls-9" transform="translate(404.19 108.77)"><tspan x="0" y="0">U</tspan></text>
  </g>
  <g id="ID000028-4">
    <text class="cls-12" transform="translate(231.92 169.27)"><tspan x="0" y="0">U</tspan></text>
  </g>
  <g id="ID000028-5">
    <text class="cls-12" transform="translate(257.04 169.27)"><tspan x="0" y="0">U</tspan></text>
  </g>
  <g id="ID000028-6">
    <text class="cls-8" transform="translate(477.16 134.07)"><tspan x="0" y="0">U</tspan></text>
  </g>
  <g id="ID000145">
    <polygon class="cls-17" points="388.05 68.4 386.71 67.16 385.47 66.83 384.13 66.61 381.43 66.04 384.13 65.37 385.47 65.25 386.71 64.81 388.05 63.57 388.05 68.4"/>
  </g>
  <g id="ID000145-2">
    <polygon class="cls-17" points="429.03 161.35 427.68 160.11 426.45 159.78 425.11 159.56 422.42 159 425.11 158.32 426.45 158.21 427.68 157.76 429.03 156.53 429.03 161.35"/>
  </g>
  <g id="ID000145-3">
    <polygon class="cls-17" points="284.76 122.06 286.13 123.26 287.38 123.58 288.73 123.77 291.43 124.28 288.76 125 287.41 125.15 286.19 125.62 284.86 126.88 284.76 122.06"/>
  </g>
  <g id="ID000145-4">
    <polygon class="cls-17" points="402.29 53.45 403.66 54.65 404.9 54.96 406.26 55.16 408.96 55.66 406.29 56.39 404.94 56.53 403.72 57 402.4 58.27 402.29 53.45"/>
  </g>
  <g id="ID000145-5">
    <polygon class="cls-17" points="313.99 86.22 315.36 87.43 316.6 87.74 317.95 87.93 320.66 88.44 317.98 89.17 316.63 89.31 315.41 89.78 314.09 91.04 313.99 86.22"/>
  </g>
  <g id="ID000022-2">
    <text class="cls-12" transform="translate(207.18 169.27)"><tspan x="0" y="0">C</tspan></text>
  </g>
  <g id="ID000022-2-2">
    <text class="cls-12" transform="translate(182.55 169.27)"><tspan x="0" y="0">C</tspan></text>
  </g>
  <g id="ID000022-2-3">
    <text class="cls-12" transform="translate(314.99 169.27)"><tspan x="0" y="0">C</tspan></text>
  </g>
  <g id="ID000022-2-4">
    <text class="cls-7" transform="translate(360.23 176.34)"><tspan x="0" y="0">C</tspan></text>
  </g>
  <g id="ID000022-2-5">
    <text class="cls-8" transform="translate(543.92 134.07)"><tspan x="0" y="0">C</tspan></text>
  </g>
  <g id="ID000022-2-6">
    <text class="cls-9" transform="translate(442.5 108.77)"><tspan x="0" y="0">C</tspan></text>
  </g>
  <g id="ID000022-2-7">
    <text class="cls-8" transform="translate(521.98 134.07)"><tspan x="0" y="0">C</tspan></text>
  </g>
  <g id="ID000022-2-8">
    <text class="cls-8" transform="translate(498.24 169.26)"><tspan x="0" y="0">C</tspan></text>
  </g>
  <g id="ID000033-2">
    <line class="cls-20" x1="193.92" y1="147.53" x2="193.92" y2="134.3"/>
  </g>
  <g id="ID000033-2-2">
    <line class="cls-20" x1="218.87" y1="147.53" x2="218.87" y2="134.3"/>
  </g>
  <g id="ID000033-2-3">
    <line class="cls-20" x1="242.62" y1="147.75" x2="242.62" y2="134.52"/>
  </g>
  <g id="ID000033-2-4">
    <line class="cls-20" x1="267.79" y1="147.53" x2="267.79" y2="134.3"/>
  </g>
  <g id="ID000033-2-5">
    <line class="cls-20" x1="328.38" y1="112.51" x2="335.31" y2="97.98"/>
  </g>
  <g id="ID000033-2-6">
    <line class="cls-20" x1="349.09" y1="113.31" x2="356.01" y2="98.78"/>
  </g>
  <g id="ID000033-2-7">
    <line class="cls-20" x1="463.06" y1="147.68" x2="471.94" y2="107.68"/>
  </g>
  <g id="ID000033-2-8">
    <line class="cls-20" x1="275.74" y1="156.22" x2="299.18" y2="156.21"/>
  </g>
  <g id="ID000033-2-9">
    <line class="cls-20" x1="299.18" y1="156.33" x2="299.18" y2="99.87"/>
  </g>
  <g id="ID000033-2-10">
    <line class="cls-20" x1="325.8" y1="147.75" x2="325.8" y2="134.52"/>
  </g>
  <g id="ID000033-2-11">
    <line class="cls-20" x1="349.14" y1="148.39" x2="349.14" y2="134.3"/>
  </g>
  <g id="ID000033-2-12">
    <line class="cls-20" x1="392.1" y1="148.39" x2="392.1" y2="134.3"/>
  </g>
  <g id="ID000033-2-13">
    <line class="cls-20" x1="487.3" y1="147.75" x2="487.3" y2="134.52"/>
  </g>
  <g id="ID000033-2-14">
    <line class="cls-20" x1="508.62" y1="147.75" x2="508.62" y2="134.52"/>
  </g>
  <g id="ID000033-2-15">
    <line class="cls-20" x1="534.17" y1="147.53" x2="534.17" y2="134.3"/>
  </g>
  <g id="ID000033-2-16">
    <line class="cls-20" x1="554.43" y1="147.75" x2="554.43" y2="134.52"/>
  </g>
  <g id="ID000214">
    <polygon class="cls-17" points="297.61 132.01 297.61 132.12 297.61 132.23 297.66 132.28 297.66 132.4 297.72 132.51 297.72 132.62 297.77 132.68 297.83 132.79 297.88 132.85 297.94 132.96 298 133.02 298.05 133.13 298.11 133.18 298.17 133.24 298.28 133.29 298.33 133.35 298.45 133.4 298.56 133.46 298.61 133.46 298.72 133.52 298.84 133.57 298.89 133.57 299.01 133.57 299.12 133.57 299.23 133.57 299.34 133.57 299.4 133.57 299.51 133.57 299.62 133.52 299.74 133.52 299.79 133.46 299.91 133.4 299.96 133.4 300.07 133.35 300.13 133.29 300.24 133.18 300.29 133.13 300.35 133.07 300.41 133.02 300.52 132.9 300.58 132.85 300.58 132.73 300.63 132.62 300.69 132.56 300.69 132.45 300.75 132.34 300.75 132.28 300.75 132.17 300.75 132.06 300.75 131.95 300.75 131.83 300.75 131.78 300.75 131.67 300.69 131.56 300.69 131.44 300.63 131.39 300.58 131.28 300.58 131.22 300.52 131.11 300.41 131.05 300.35 130.94 300.29 130.88 300.24 130.83 300.13 130.77 300.07 130.71 299.96 130.66 299.91 130.6 299.79 130.55 299.74 130.49 299.62 130.49 299.51 130.44 299.4 130.44 299.34 130.44 299.23 130.44 299.12 130.44 299.01 130.44 298.89 130.44 298.84 130.49 298.72 130.49 298.61 130.55 298.56 130.55 298.45 130.6 298.33 130.66 298.28 130.71 298.17 130.77 298.11 130.83 298.05 130.94 298 130.99 297.94 131.05 297.88 131.16 297.83 131.22 297.77 131.33 297.72 131.44 297.72 131.5 297.66 131.61 297.66 131.72 297.61 131.78 297.61 131.89 297.61 132.01"/>
  </g>
  <g id="ID000192">
    <polygon class="cls-17" points="286.47 156.2 289.58 158.01 289.56 154.44 286.47 156.2"/>
  </g>
  <g id="ID000192-2">
    <polygon class="cls-19" points="333.23 106.6 330.01 105.03 330.29 108.58 333.23 106.6"/>
  </g>
  <g id="ID000192-3">
    <polygon class="cls-19" points="469.53 127.3 466.05 126.42 467.05 129.85 469.53 127.3"/>
  </g>
  <g id="ID000190">
    <polygon class="cls-15" points="332.26 100.32 332.2 100.38 332.14 100.51 332.08 100.57 332.02 100.7 331.96 100.76 331.96 100.89 331.91 101.01 331.85 101.08 331.85 101.2 331.85 101.33 331.85 101.45 331.85 101.52 331.85 101.64 331.85 101.77 331.85 101.89 331.91 101.96 331.91 102.08 331.96 102.21 332.02 102.27 332.02 102.4 332.08 102.52 332.14 102.59 332.26 102.71 332.32 102.77 332.38 102.83 332.43 102.9 332.56 102.96 332.62 103.02 332.73 103.09 332.85 103.15 332.91 103.21 333.03 103.21 333.15 103.27 333.2 103.27 333.32 103.27 333.44 103.27 333.56 103.27 333.68 103.27 333.73 103.27 333.85 103.27 333.97 103.21 334.03 103.21 334.15 103.15 334.27 103.09 334.33 103.02 334.45 102.96 334.5 102.9 334.62 102.83 334.68 102.77 334.74 102.71 334.8 102.59 334.86 102.52 334.92 102.4 334.97 102.33 335.03 102.21 335.03 102.08 335.1 102.02 335.1 101.89 335.16 101.77 335.16 101.64 335.16 101.58 335.16 101.45 335.16 101.33 335.16 101.2 335.1 101.08 335.1 101.01 335.03 100.89 335.03 100.76 334.97 100.7 334.92 100.57 334.86 100.51 334.8 100.38 334.74 100.32 334.62 100.26 334.56 100.19 334.5 100.07 334.39 100.01 334.33 99.94 334.21 99.94 334.09 99.88 334.03 99.82 333.92 99.82 333.79 99.75 333.73 99.75 333.62 99.75 333.5 99.75 333.38 99.75 333.26 99.75 333.2 99.75 333.09 99.82 332.97 99.82 332.85 99.88 332.79 99.94 332.68 99.94 332.62 100.01 332.49 100.07 332.43 100.13 332.32 100.26 332.26 100.32"/>
  </g>
  <g id="ID000190-2">
    <polygon class="cls-15" points="352.3 102.29 352.24 102.35 352.18 102.48 352.13 102.54 352.07 102.67 352.01 102.73 352.01 102.86 351.95 102.98 351.89 103.04 351.89 103.17 351.89 103.3 351.89 103.42 351.89 103.49 351.89 103.61 351.89 103.74 351.89 103.86 351.95 103.93 351.95 104.05 352.01 104.17 352.07 104.24 352.07 104.36 352.13 104.49 352.18 104.55 352.3 104.68 352.36 104.74 352.42 104.8 352.48 104.87 352.6 104.93 352.66 104.99 352.77 105.05 352.89 105.12 352.95 105.18 353.07 105.18 353.19 105.24 353.25 105.24 353.37 105.24 353.48 105.24 353.6 105.24 353.72 105.24 353.78 105.24 353.9 105.24 354.01 105.18 354.07 105.18 354.2 105.12 354.31 105.05 354.37 104.99 354.49 104.93 354.55 104.87 354.67 104.8 354.72 104.74 354.78 104.68 354.84 104.55 354.9 104.49 354.96 104.36 355.02 104.3 355.08 104.17 355.08 104.05 355.14 103.98 355.14 103.86 355.19 103.74 355.19 103.61 355.19 103.55 355.19 103.42 355.19 103.3 355.19 103.17 355.14 103.04 355.14 102.98 355.08 102.86 355.08 102.73 355.02 102.67 354.96 102.54 354.9 102.48 354.84 102.35 354.78 102.29 354.67 102.23 354.61 102.16 354.55 102.04 354.43 101.97 354.37 101.91 354.25 101.91 354.13 101.85 354.07 101.79 353.95 101.79 353.84 101.72 353.78 101.72 353.66 101.72 353.54 101.72 353.43 101.72 353.31 101.72 353.25 101.72 353.13 101.79 353.01 101.79 352.89 101.85 352.84 101.91 352.71 101.91 352.66 101.97 352.54 102.04 352.48 102.1 352.36 102.23 352.3 102.29"/>
  </g>
  <g id="ID000189">
    <polygon class="cls-15" points="393.74 144.85 393.75 141.52 390.4 141.59 390.44 144.89 393.74 144.85"/>
  </g>
  <g id="ID000189-2">
    <polygon class="cls-15" points="470.37 122.59 471.13 119.34 467.85 118.66 467.15 121.88 470.37 122.59"/>
  </g>
  <g id="ID000189-3">
    <polygon class="cls-15" points="352.1 110.94 353.44 107.88 350.35 106.61 349.06 109.65 352.1 110.94"/>
  </g>
  <g id="ID000190-3">
    <polygon class="cls-15" points="347.89 140.21 347.84 140.26 347.78 140.39 347.72 140.46 347.66 140.58 347.6 140.65 347.6 140.77 347.54 140.89 347.48 140.96 347.48 141.08 347.48 141.21 347.48 141.33 347.48 141.4 347.48 141.52 347.48 141.65 347.48 141.77 347.54 141.84 347.54 141.96 347.6 142.09 347.66 142.15 347.66 142.28 347.72 142.4 347.78 142.47 347.89 142.59 347.95 142.66 348.01 142.72 348.07 142.78 348.19 142.84 348.25 142.91 348.37 142.97 348.49 143.03 348.55 143.1 348.66 143.1 348.78 143.16 348.84 143.16 348.96 143.16 349.08 143.16 349.19 143.16 349.31 143.16 349.37 143.16 349.49 143.16 349.61 143.1 349.67 143.1 349.79 143.03 349.9 142.97 349.96 142.91 350.08 142.84 350.14 142.78 350.26 142.72 350.32 142.66 350.37 142.59 350.43 142.47 350.49 142.4 350.55 142.28 350.61 142.22 350.67 142.09 350.67 141.96 350.73 141.9 350.73 141.77 350.79 141.65 350.79 141.52 350.79 141.46 350.79 141.33 350.79 141.21 350.79 141.08 350.73 140.96 350.73 140.89 350.67 140.77 350.67 140.65 350.61 140.58 350.55 140.46 350.49 140.39 350.43 140.26 350.37 140.21 350.26 140.14 350.2 140.08 350.14 139.95 350.02 139.89 349.96 139.83 349.85 139.83 349.73 139.76 349.67 139.7 349.55 139.7 349.43 139.63 349.37 139.63 349.25 139.63 349.13 139.63 349.02 139.63 348.9 139.63 348.84 139.63 348.72 139.7 348.61 139.7 348.49 139.76 348.43 139.83 348.31 139.83 348.25 139.89 348.13 139.95 348.07 140.02 347.95 140.14 347.89 140.21"/>
  </g>
  <g id="ID000190-4">
    <polygon class="cls-15" points="390.84 137.07 390.78 137.13 390.72 137.25 390.66 137.31 390.6 137.42 390.54 137.48 390.54 137.6 390.48 137.72 390.42 137.78 390.42 137.9 390.42 138.01 390.42 138.14 390.42 138.19 390.42 138.31 390.42 138.43 390.42 138.55 390.48 138.61 390.48 138.72 390.54 138.84 390.6 138.9 390.6 139.02 390.66 139.14 390.72 139.19 390.84 139.32 390.9 139.37 390.96 139.44 391.02 139.49 391.13 139.55 391.19 139.61 391.31 139.67 391.43 139.73 391.49 139.79 391.6 139.79 391.72 139.85 391.79 139.85 391.9 139.85 392.02 139.85 392.14 139.85 392.26 139.85 392.31 139.85 392.43 139.85 392.55 139.79 392.61 139.79 392.73 139.73 392.84 139.67 392.9 139.61 393.03 139.55 393.08 139.49 393.2 139.44 393.26 139.37 393.32 139.32 393.38 139.19 393.44 139.14 393.5 139.02 393.55 138.96 393.61 138.84 393.61 138.72 393.67 138.67 393.67 138.55 393.73 138.43 393.73 138.31 393.73 138.25 393.73 138.14 393.73 138.01 393.73 137.9 393.67 137.78 393.67 137.72 393.61 137.6 393.61 137.48 393.55 137.42 393.5 137.31 393.44 137.25 393.38 137.13 393.32 137.07 393.2 137.01 393.14 136.95 393.08 136.84 392.96 136.78 392.9 136.71 392.78 136.71 392.67 136.65 392.61 136.6 392.49 136.6 392.37 136.54 392.31 136.54 392.2 136.54 392.08 136.54 391.96 136.54 391.84 136.54 391.79 136.54 391.66 136.6 391.54 136.6 391.43 136.65 391.37 136.71 391.25 136.71 391.19 136.78 391.07 136.84 391.02 136.9 390.9 137.01 390.84 137.07"/>
  </g>
  <g id="ID000170">
    <line class="cls-18" x1="274.31" y1="124.4" x2="315.11" y2="124.4"/>
  </g>
  <g id="ID000170-2">
    <line class="cls-18" x1="399.65" y1="158.94" x2="451.8" y2="158.94"/>
  </g>
  <g id="ID000145-6">
    <polygon class="cls-17" points="304.94 161.35 303.59 160.11 302.36 159.78 301.01 159.56 298.32 159 301.01 158.32 302.36 158.21 303.59 157.76 304.94 156.53 304.94 161.35"/>
  </g>
  <g id="ID000170-3">
    <line class="cls-18" x1="277.07" y1="158.94" x2="315.11" y2="158.94"/>
  </g>
  <g id="ID000170-4">
    <line class="cls-18" x1="305.95" y1="88.63" x2="327.96" y2="88.63"/>
  </g>
  <g id="ID000170-5">
    <line class="cls-18" x1="299.18" y1="65.99" x2="415.14" y2="65.99"/>
  </g>
  <g id="ID000170-6">
    <line class="cls-18" x1="357.16" y1="55.97" x2="452.85" y2="55.97"/>
  </g>
  <g id="ID000170-7">
    <line class="cls-18" x1="415.14" y1="65.51" x2="415.14" y2="87.9"/>
  </g>
  <g id="ID000170-8">
    <line class="cls-18" x1="357.16" y1="55.46" x2="357.16" y2="77.18"/>
  </g>
  <g id="ID000170-9">
    <line class="cls-18" x1="452.85" y1="55.46" x2="452.85" y2="86.79"/>
  </g>
  <g id="ID000170-10">
    <line class="cls-18" x1="299.18" y1="65.51" x2="299.18" y2="76.7"/>
  </g>
  <text class="cls-2" transform="translate(447.26 149.6) rotate(-90)"><tspan x="0" y="0">NBSI</tspan></text>
  <g>
    <text class="cls-14" transform="translate(179.27 112.51)"><tspan x="0" y="0">5</tspan></text>
    <text class="cls-11" transform="translate(186.59 112.51)"><tspan x="0" y="0">’</tspan></text>
  </g>
  <g>
    <text class="cls-14" transform="translate(179.27 181.69)"><tspan x="0" y="0">3</tspan></text>
    <text class="cls-11" transform="translate(186.59 181.69)"><tspan x="0" y="0">’</tspan></text>
  </g>
  <g id="ID000013">
    <text class="cls-10" transform="translate(422.42 86.79)"><tspan x="0" y="0">10</tspan></text>
  </g>
  <g id="ID000013-2">
    <text class="cls-10" transform="translate(581.88 103.28)"><tspan x="0" y="0">20</tspan></text>
  </g>
  <g id="ID000013-3">
    <text class="cls-10" transform="translate(366.36 184.39)"><tspan x="0" y="0">30</tspan></text>
  </g>
  <text class="cls-1" transform="translate(312.18 27.89)"><tspan x="0" y="0">Clivia</tspan></text>
  <text class="cls-1" transform="translate(367.51 27.89)"><tspan x="0" y="0">aptamer</tspan></text>
</svg>