<svg id="图层_1" data-name="图层 1" xmlns="http://www.w3.org/2000/svg" viewBox="0 0 400 400"><defs><style>.cls-1,.cls-10,.cls-11,.cls-12,.cls-13,.cls-14,.cls-15,.cls-16,.cls-2,.cls-3,.cls-4,.cls-6,.cls-8,.cls-9{isolation:isolate;}.cls-1,.cls-10,.cls-11,.cls-12,.cls-13,.cls-14,.cls-15,.cls-2,.cls-3,.cls-4,.cls-6,.cls-8,.cls-9{font-size:14.05px;font-family:Helvetica;}.cls-1,.cls-2{fill:#b83332;}.cls-11,.cls-2,.cls-4,.cls-9{letter-spacing:-0.15em;}.cls-13,.cls-3,.cls-4{fill:#c2b617;}.cls-5{fill:none;}.cls-5,.cls-7{stroke:#000;stroke-miterlimit:3.05;}.cls-8,.cls-9{fill:#084595;}.cls-10,.cls-11,.cls-12{fill:#cf3e7d;}.cls-12,.cls-13,.cls-15{letter-spacing:-0.15em;}.cls-14,.cls-15{fill:#18988c;}.cls-16,.cls-17{font-size:20px;font-family:ArialMT, Arial;}.cls-18{letter-spacing:-0.04em;}</style></defs><g id="ID000002"><text class="cls-1" transform="translate(68.89 340.81) scale(0.94 1)">G</text></g><g id="ID000003"><text class="cls-1" transform="translate(55.39 340.81) scale(0.94 1)">G</text></g><g id="ID000004"><text class="cls-1" transform="translate(41.86 340.81) scale(0.94 1)">G</text></g><g id="ID000005"><text class="cls-2" transform="translate(29.09 340.81) scale(0.94 1)">A</text></g><g id="ID000006"><text class="cls-3" transform="translate(15.96 343.21) scale(0.94 1)">G</text></g><g id="ID000007"><text class="cls-4" transform="translate(6.56 325.24) scale(0.94 1)">A</text></g><g id="ID000008"><text class="cls-4" transform="translate(16.69 307.28) scale(0.94 1)">A</text></g><g id="ID000009"><text class="cls-1" transform="translate(28.71 312.06) scale(0.94 1)">U</text></g><g id="ID000010"><text class="cls-1" transform="translate(42.23 312.06) scale(0.94 1)">U</text></g><g id="ID000011"><text class="cls-1" transform="translate(55.75 312.06) scale(0.94 1)">C</text></g><g id="ID000012"><line class="cls-5" x1="60.51" y1="296.02" x2="60.51" y2="286.43"/></g><g id="ID000013"><text class="cls-6" transform="translate(53.16 282.84) scale(0.94 1)">10</text></g><g id="ID000014"><text class="cls-1" transform="translate(69.26 312.06) scale(0.94 1)">C</text></g><g id="ID000015"><line class="cls-5" x1="74.03" y1="329.46" x2="74.03" y2="312.22"/></g><g id="ID000016"><line class="cls-5" x1="60.51" y1="329.46" x2="60.51" y2="312.22"/></g><g id="ID000017"><polygon class="cls-7" points="47.01 318.57 46.84 318.58 46.67 318.58 46.49 318.62 46.33 318.65 46.16 318.72 46.01 318.77 45.84 318.85 45.69 318.93 45.54 319.02 45.4 319.13 45.26 319.24 45.14 319.36 45.02 319.49 44.9 319.62 44.8 319.77 44.7 319.93 44.62 320.08 44.54 320.25 44.48 320.42 44.42 320.59 44.37 320.76 44.34 320.94 44.32 321.12 44.31 321.3 44.3 321.49 44.31 321.67 44.33 321.85 44.35 322.03 44.39 322.2 44.45 322.38 44.51 322.55 44.58 322.72 44.66 322.88 44.75 323.04 44.85 323.19 44.96 323.32 45.07 323.45 45.2 323.58 45.33 323.71 45.47 323.8 45.62 323.91 45.76 324 45.91 324.07 46.08 324.14 46.24 324.19 46.41 324.25 46.58 324.27 46.75 324.3 46.92 324.32 47.09 324.32 47.26 324.3 47.43 324.27 47.6 324.25 47.77 324.19 47.93 324.14 48.09 324.07 48.24 324 48.39 323.91 48.54 323.8 48.68 323.71 48.8 323.58 48.93 323.45 49.05 323.32 49.15 323.19 49.25 323.04 49.35 322.88 49.42 322.72 49.5 322.55 49.56 322.38 49.61 322.2 49.64 322.03 49.68 321.85 49.7 321.67 49.71 321.49 49.71 321.3 49.69 321.12 49.67 320.94 49.63 320.76 49.58 320.59 49.53 320.42 49.46 320.25 49.39 320.08 49.3 319.93 49.21 319.77 49.1 319.62 49 319.49 48.87 319.36 48.74 319.24 48.61 319.13 48.46 319.02 48.32 318.93 48.17 318.85 48.01 318.77 47.85 318.72 47.69 318.65 47.52 318.62 47.35 318.58 47.18 318.58 47.01 318.57"/></g><g id="ID000018"><line class="cls-5" x1="33.49" y1="329.46" x2="33.49" y2="312.22"/></g><g id="ID000020"><text class="cls-8" transform="translate(79.02 297.7) scale(0.94 1)">G</text></g><g id="ID000021"><text class="cls-9" transform="translate(79.75 283.32) scale(0.94 1)">A</text></g><g id="ID000022"><text class="cls-8" transform="translate(79.39 268.94) scale(0.94 1)">C</text></g><g id="ID000023"><text class="cls-8" transform="translate(79.39 254.57) scale(0.94 1)">C</text></g><g id="ID000024"><text class="cls-9" transform="translate(79.75 240.2) scale(0.94 1)">A</text></g><g id="ID000025"><text class="cls-8" transform="translate(79.02 225.83) scale(0.94 1)">G</text></g><g id="ID000026"><text class="cls-9" transform="translate(79.75 211.44) scale(0.94 1)">A</text></g><g id="ID000027"><text class="cls-4" transform="translate(76.38 197.07) scale(0.94 1)">A</text></g><g id="ID000028"><text class="cls-3" transform="translate(92.55 186.29) scale(0.94 1)">G</text></g><g id="ID000029"><line class="cls-5" x1="97.67" y1="170.24" x2="97.67" y2="160.66"/></g><g id="ID000030"><text class="cls-6" transform="translate(90.33 157.06) scale(0.94 1)">20</text></g><g id="ID000031"><text class="cls-3" transform="translate(109.8 197.07) scale(0.94 1)">C</text></g><g id="ID000032"><text class="cls-8" transform="translate(106.42 211.44) scale(0.94 1)">U</text></g><g id="ID000033"><text class="cls-8" transform="translate(106.42 225.83) scale(0.94 1)">U</text></g><g id="ID000034"><text class="cls-8" transform="translate(106.42 240.2) scale(0.94 1)">U</text></g><g id="ID000035"><text class="cls-8" transform="translate(106.05 254.57) scale(0.94 1)">G</text></g><g id="ID000036"><text class="cls-8" transform="translate(106.05 268.94) scale(0.94 1)">G</text></g><g id="ID000037"><text class="cls-8" transform="translate(106.42 283.32) scale(0.94 1)">U</text></g><g id="ID000038"><text class="cls-8" transform="translate(106.42 297.7) scale(0.94 1)">U</text></g><g id="ID000039"><text class="cls-4" transform="translate(123.68 297.7) scale(0.94 1)">A</text></g><g id="ID000040"><polygon class="cls-7" points="100.38 292.69 100.38 292.51 100.36 292.33 100.34 292.15 100.3 291.97 100.25 291.79 100.19 291.63 100.13 291.45 100.04 291.3 99.96 291.14 99.86 290.99 99.75 290.84 99.64 290.7 99.52 290.58 99.38 290.47 99.25 290.35 99.11 290.25 98.95 290.16 98.81 290.07 98.64 290.01 98.48 289.95 98.31 289.9 98.15 289.86 97.98 289.84 97.8 289.82 97.63 289.81 97.46 289.82 97.29 289.85 97.12 289.88 96.96 289.92 96.79 289.98 96.63 290.04 96.48 290.12 96.32 290.21 96.18 290.3 96.04 290.41 95.91 290.52 95.78 290.64 95.66 290.77 95.55 290.91 95.45 291.07 95.35 291.22 95.28 291.37 95.2 291.54 95.14 291.7 95.09 291.88 95.04 292.06 95.01 292.24 94.99 292.42 94.98 292.6 94.98 292.78 94.99 292.96 95.01 293.14 95.04 293.33 95.09 293.51 95.14 293.67 95.2 293.85 95.28 294.01 95.35 294.17 95.45 294.32 95.55 294.47 95.66 294.61 95.78 294.74 95.91 294.87 96.04 294.98 96.18 295.08 96.32 295.18 96.48 295.27 96.63 295.35 96.79 295.41 96.96 295.46 97.12 295.5 97.29 295.54 97.46 295.55 97.63 295.57 97.8 295.56 97.98 295.55 98.15 295.53 98.31 295.49 98.48 295.44 98.64 295.38 98.81 295.3 98.95 295.22 99.11 295.14 99.25 295.03 99.38 294.93 99.52 294.81 99.64 294.68 99.75 294.54 99.86 294.4 99.96 294.25 100.04 294.09 100.13 293.93 100.19 293.76 100.25 293.59 100.3 293.42 100.34 293.24 100.36 293.06 100.38 292.87 100.38 292.69"/></g><g id="ID000041"><line class="cls-5" x1="89.57" y1="277.72" x2="105.78" y2="277.72"/></g><g id="ID000042"><line class="cls-5" x1="89.57" y1="263.35" x2="105.78" y2="263.35"/></g><g id="ID000043"><line class="cls-5" x1="89.57" y1="248.98" x2="105.78" y2="248.98"/></g><g id="ID000044"><line class="cls-5" x1="89.57" y1="234.6" x2="105.78" y2="234.6"/></g><g id="ID000045"><polygon class="cls-7" points="100.38 220.83 100.38 220.64 100.36 220.46 100.34 220.28 100.3 220.09 100.25 219.93 100.19 219.75 100.13 219.59 100.04 219.43 99.96 219.27 99.86 219.12 99.75 218.97 99.64 218.84 99.52 218.71 99.38 218.59 99.25 218.48 99.11 218.38 98.95 218.29 98.81 218.21 98.64 218.13 98.48 218.07 98.31 218.03 98.15 218 97.98 217.97 97.8 217.95 97.63 217.95 97.46 217.96 97.29 217.98 97.12 218.01 96.96 218.06 96.79 218.11 96.63 218.17 96.48 218.25 96.32 218.34 96.18 218.43 96.04 218.53 95.91 218.65 95.78 218.78 95.66 218.91 95.55 219.05 95.45 219.2 95.35 219.34 95.28 219.51 95.2 219.67 95.14 219.84 95.09 220.02 95.04 220.19 95.01 220.37 94.99 220.56 94.98 220.73 94.98 220.91 94.99 221.1 95.01 221.28 95.04 221.45 95.09 221.64 95.14 221.81 95.2 221.98 95.28 222.14 95.35 222.3 95.45 222.46 95.55 222.6 95.66 222.73 95.78 222.87 95.91 223 96.04 223.11 96.18 223.21 96.32 223.32 96.48 223.4 96.63 223.47 96.79 223.53 96.96 223.6 97.12 223.64 97.29 223.67 97.46 223.69 97.63 223.7 97.8 223.7 97.98 223.67 98.15 223.66 98.31 223.62 98.48 223.57 98.64 223.51 98.81 223.44 98.95 223.36 99.11 223.26 99.25 223.16 99.38 223.06 99.52 222.93 99.64 222.81 99.75 222.67 99.86 222.53 99.96 222.38 100.04 222.22 100.13 222.06 100.19 221.89 100.25 221.72 100.3 221.55 100.34 221.37 100.36 221.18 100.38 221.01 100.38 220.83"/></g><g id="ID000046"><line class="cls-5" x1="89.57" y1="205.85" x2="105.78" y2="205.85"/></g><g id="ID000048"><text class="cls-10" transform="translate(133.45 312.06) scale(0.94 1)">U</text></g><g id="ID000049"><line class="cls-5" x1="138.22" y1="296.02" x2="138.22" y2="286.43"/></g><g id="ID000050"><text class="cls-6" transform="translate(130.86 282.84) scale(0.94 1)">30</text></g><g id="ID000051"><text class="cls-10" transform="translate(146.96 312.06) scale(0.94 1)">C</text></g><g id="ID000052"><text class="cls-11" transform="translate(160.85 312.06) scale(0.94 1)">A</text></g><g id="ID000053"><text class="cls-10" transform="translate(173.99 312.06) scale(0.94 1)">U</text></g><g id="ID000054"><text class="cls-10" transform="translate(187.13 312.06) scale(0.94 1)">G</text></g><g id="ID000055"><text class="cls-10" transform="translate(201.02 312.06) scale(0.94 1)">U</text></g><g id="ID000056"><text class="cls-3" transform="translate(197.63 294.1) scale(0.94 1)">U</text></g><g id="ID000057"><text class="cls-3" transform="translate(207.77 283.32) scale(0.94 1)">U</text></g><g id="ID000058"><text class="cls-3" transform="translate(207.77 355.19) scale(0.94 1)">U</text></g><g id="ID000059"><text class="cls-12" transform="translate(201.38 340.81) scale(0.94 1)">A</text></g><g id="ID000060"><text class="cls-10" transform="translate(187.5 340.81) scale(0.94 1)">C</text></g><g id="ID000061"><text class="cls-11" transform="translate(174.35 340.81) scale(0.94 1)">A</text></g><g id="ID000062"><text class="cls-10" transform="translate(160.46 340.81) scale(0.94 1)">U</text></g><g id="ID000063"><text class="cls-10" transform="translate(146.59 340.81) scale(0.94 1)">G</text></g><g id="ID000064"><line class="cls-5" x1="151.73" y1="343.92" x2="151.73" y2="353.51"/></g><g id="ID000065"><text class="cls-6" transform="translate(145.01 366.23) scale(0.94 1)">70</text></g><g id="ID000066"><text class="cls-10" transform="translate(133.08 340.81) scale(0.94 1)">G</text></g><g id="ID000067"><text class="cls-4" transform="translate(123.68 355.19) scale(0.94 1)">A</text></g><g id="ID000068"><text class="cls-3" transform="translate(109.8 362.37) scale(0.94 1)">U</text></g><g id="ID000069"><text class="cls-3" transform="translate(96.29 365.96) scale(0.94 1)">C</text></g><g id="ID000070"><text class="cls-3" transform="translate(82.77 365.96) scale(0.94 1)">C</text></g><g id="ID000071"><text class="cls-3" transform="translate(69.26 365.96) scale(0.94 1)">U</text></g><g id="ID000072"><text class="cls-3" transform="translate(55.75 365.96) scale(0.94 1)">C</text></g><g id="ID000073"><text class="cls-4" transform="translate(42.59 365.96) scale(0.94 1)">A</text></g><g id="ID000074"><polygon class="cls-7" points="138.22 324.32 138.39 324.31 138.56 324.29 138.73 324.26 138.89 324.22 139.06 324.17 139.22 324.11 139.38 324.04 139.53 323.95 139.68 323.86 139.82 323.75 139.96 323.65 140.08 323.52 140.2 323.38 140.32 323.25 140.41 323.11 140.51 322.96 140.6 322.8 140.68 322.64 140.74 322.47 140.8 322.3 140.84 322.11 140.88 321.94 140.9 321.76 140.91 321.58 140.91 321.4 140.91 321.22 140.89 321.02 140.86 320.85 140.82 320.68 140.77 320.5 140.71 320.33 140.64 320.16 140.55 320 140.46 319.85 140.37 319.7 140.25 319.56 140.15 319.42 140.02 319.29 139.88 319.19 139.75 319.07 139.6 318.97 139.46 318.88 139.3 318.81 139.15 318.73 138.98 318.68 138.82 318.63 138.65 318.6 138.48 318.58 138.31 318.57 138.14 318.57 137.97 318.58 137.79 318.6 137.63 318.63 137.46 318.68 137.3 318.73 137.14 318.81 136.98 318.88 136.83 318.97 136.69 319.07 136.55 319.19 136.41 319.29 136.3 319.42 136.18 319.56 136.07 319.7 135.97 319.85 135.88 320 135.8 320.16 135.72 320.33 135.67 320.5 135.62 320.68 135.57 320.85 135.54 321.02 135.53 321.22 135.52 321.4 135.52 321.58 135.53 321.76 135.56 321.94 135.6 322.11 135.64 322.3 135.69 322.47 135.77 322.64 135.84 322.8 135.93 322.96 136.02 323.11 136.13 323.25 136.23 323.38 136.36 323.52 136.49 323.65 136.62 323.75 136.75 323.86 136.9 323.95 137.06 324.04 137.21 324.11 137.38 324.17 137.54 324.22 137.71 324.26 137.88 324.29 138.05 324.31 138.22 324.32"/></g><g id="ID000075"><line class="cls-5" x1="151.73" y1="312.22" x2="151.73" y2="329.46"/></g><g id="ID000076"><line class="cls-5" x1="165.24" y1="312.22" x2="165.24" y2="329.46"/></g><g id="ID000077"><line class="cls-5" x1="178.76" y1="312.22" x2="178.76" y2="329.46"/></g><g id="ID000078"><line class="cls-5" x1="192.27" y1="312.22" x2="192.27" y2="329.46"/></g><g id="ID000079"><line class="cls-5" x1="205.79" y1="312.22" x2="205.79" y2="329.46"/></g><g id="ID000081"><text class="cls-13" transform="translate(225.03 283.32) scale(0.94 1)">A</text></g><g id="ID000082"><text class="cls-3" transform="translate(234.79 294.1) scale(0.94 1)">U</text></g><g id="ID000083"><text class="cls-14" transform="translate(231.04 312.06) scale(0.94 1)">G</text></g><g id="ID000084"><line class="cls-5" x1="242.56" y1="298.82" x2="248.94" y2="292.04"/></g><g id="ID000085"><text class="cls-6" transform="translate(248.94 288.45) scale(0.94 1)">40</text></g><g id="ID000086"><text class="cls-14" transform="translate(244.93 312.06) scale(0.94 1)">C</text></g><g id="ID000087"><text class="cls-14" transform="translate(258.08 312.06) scale(0.94 1)">G</text></g><g id="ID000088"><text class="cls-14" transform="translate(271.95 312.06) scale(0.94 1)">U</text></g><g id="ID000089"><text class="cls-15" transform="translate(285.84 312.06) scale(0.94 1)">A</text></g><g id="ID000090"><text class="cls-14" transform="translate(298.98 312.06) scale(0.94 1)">C</text></g><g id="ID000091"><text class="cls-14" transform="translate(312.13 312.06) scale(0.94 1)">G</text></g><g id="ID000092"><text class="cls-3" transform="translate(325.64 308.47) scale(0.94 1)">G</text></g><g id="ID000093"><text class="cls-3" transform="translate(339.16 301.29) scale(0.94 1)">G</text></g><g id="ID000094"><text class="cls-3" transform="translate(353.04 297.7) scale(0.94 1)">C</text></g><g id="ID000095"><text class="cls-3" transform="translate(369.56 301.29) scale(0.94 1)">G</text></g><g id="ID000096"><line class="cls-5" x1="374.7" y1="285.23" x2="374.7" y2="275.65"/></g><g id="ID000097"><text class="cls-6" transform="translate(367.77 273.25) scale(0.94 1)">50</text></g><g id="ID000098"><text class="cls-3" transform="translate(383.44 315.66) scale(0.94 1)">C</text></g><g id="ID000099"><text class="cls-3" transform="translate(383.44 333.62) scale(0.94 1)">C</text></g><g id="ID000100"><text class="cls-3" transform="translate(369.92 348) scale(0.94 1)">C</text></g><g id="ID000101"><text class="cls-13" transform="translate(353.4 351.59) scale(0.94 1)">A</text></g><g id="ID000102"><text class="cls-3" transform="translate(339.52 348) scale(0.94 1)">U</text></g><g id="ID000103"><text class="cls-13" transform="translate(326.37 340.81) scale(0.94 1)">A</text></g><g id="ID000104"><text class="cls-14" transform="translate(312.49 340.81) scale(0.94 1)">U</text></g><g id="ID000105"><text class="cls-14" transform="translate(298.62 340.81) scale(0.94 1)">G</text></g><g id="ID000106"><text class="cls-14" transform="translate(285.48 340.81) scale(0.94 1)">U</text></g><g id="ID000107"><text class="cls-14" transform="translate(271.58 340.81) scale(0.94 1)">G</text></g><g id="ID000108"><line class="cls-5" x1="276.73" y1="343.92" x2="276.73" y2="353.51"/></g><g id="ID000109"><text class="cls-6" transform="translate(269.88 366.23) scale(0.94 1)">60</text></g><g id="ID000110"><text class="cls-14" transform="translate(258.45 340.81) scale(0.94 1)">C</text></g><g id="ID000111"><text class="cls-14" transform="translate(244.57 340.81) scale(0.94 1)">G</text></g><g id="ID000112"><text class="cls-14" transform="translate(231.42 340.81) scale(0.94 1)">U</text></g><g id="ID000113"><text class="cls-3" transform="translate(224.66 355.19) scale(0.94 1)">C</text></g><g id="ID000114"><polygon class="cls-7" points="236.19 324.32 236.36 324.31 236.53 324.29 236.7 324.26 236.87 324.22 237.03 324.17 237.19 324.11 237.35 324.04 237.5 323.95 237.64 323.86 237.78 323.75 237.92 323.65 238.05 323.52 238.18 323.38 238.28 323.25 238.39 323.11 238.48 322.96 238.57 322.8 238.64 322.64 238.71 322.47 238.77 322.3 238.81 322.11 238.85 321.94 238.87 321.76 238.88 321.58 238.89 321.4 238.88 321.22 238.86 321.02 238.83 320.85 238.79 320.68 238.74 320.5 238.68 320.33 238.61 320.16 238.53 320 238.43 319.85 238.34 319.7 238.23 319.56 238.11 319.42 237.98 319.29 237.86 319.19 237.72 319.07 237.57 318.97 237.42 318.88 237.27 318.81 237.11 318.73 236.95 318.68 236.78 318.63 236.61 318.6 236.44 318.58 236.27 318.57 236.1 318.57 235.93 318.58 235.76 318.6 235.59 318.63 235.42 318.68 235.26 318.73 235.1 318.81 234.95 318.88 234.8 318.97 234.66 319.07 234.52 319.19 234.39 319.29 234.26 319.42 234.15 319.56 234.04 319.7 233.94 319.85 233.85 320 233.76 320.16 233.7 320.33 233.64 320.5 233.58 320.68 233.55 320.85 233.52 321.02 233.5 321.22 233.49 321.4 233.49 321.58 233.51 321.76 233.53 321.94 233.56 322.11 233.61 322.3 233.67 322.47 233.73 322.64 233.81 322.8 233.89 322.96 233.99 323.11 234.09 323.25 234.2 323.38 234.33 323.52 234.45 323.65 234.59 323.75 234.73 323.86 234.88 323.95 235.03 324.04 235.19 324.11 235.35 324.17 235.51 324.22 235.68 324.26 235.85 324.29 236.02 324.31 236.19 324.32"/></g><g id="ID000115"><line class="cls-5" x1="249.7" y1="312.22" x2="249.7" y2="329.46"/></g><g id="ID000116"><line class="cls-5" x1="263.21" y1="312.22" x2="263.21" y2="329.46"/></g><g id="ID000117"><polygon class="cls-7" points="276.73 324.32 276.9 324.31 277.07 324.29 277.24 324.26 277.41 324.22 277.57 324.17 277.74 324.11 277.89 324.04 278.05 323.95 278.19 323.86 278.33 323.75 278.46 323.65 278.59 323.52 278.72 323.38 278.82 323.25 278.93 323.11 279.02 322.96 279.11 322.8 279.18 322.64 279.25 322.47 279.31 322.3 279.36 322.11 279.39 321.94 279.42 321.76 279.43 321.58 279.43 321.4 279.42 321.22 279.41 321.02 279.38 320.85 279.33 320.68 279.28 320.5 279.22 320.33 279.15 320.16 279.07 320 278.98 319.85 278.88 319.7 278.77 319.56 278.65 319.42 278.52 319.29 278.4 319.19 278.26 319.07 278.12 318.97 277.97 318.88 277.81 318.81 277.65 318.73 277.49 318.68 277.32 318.63 277.15 318.6 276.98 318.58 276.81 318.57 276.64 318.57 276.47 318.58 276.3 318.6 276.13 318.63 275.97 318.68 275.8 318.73 275.63 318.81 275.5 318.88 275.35 318.97 275.19 319.07 275.06 319.19 274.92 319.29 274.79 319.42 274.68 319.56 274.57 319.7 274.48 319.85 274.38 320 274.3 320.16 274.23 320.33 274.17 320.5 274.11 320.68 274.08 320.85 274.05 321.02 274.03 321.22 274.02 321.4 274.03 321.58 274.04 321.76 274.06 321.94 274.1 322.11 274.15 322.3 274.2 322.47 274.26 322.64 274.34 322.8 274.43 322.96 274.52 323.11 274.62 323.25 274.74 323.38 274.86 323.52 275 323.65 275.13 323.75 275.26 323.86 275.42 323.95 275.56 324.04 275.73 324.11 275.89 324.17 276.05 324.22 276.22 324.26 276.39 324.29 276.56 324.31 276.73 324.32"/></g><g id="ID000118"><line class="cls-5" x1="290.24" y1="312.22" x2="290.24" y2="329.46"/></g><g id="ID000119"><line class="cls-5" x1="303.76" y1="312.22" x2="303.76" y2="329.46"/></g><g id="ID000120"><polygon class="cls-7" points="317.27 324.32 317.44 324.31 317.61 324.29 317.77 324.26 317.94 324.22 318.11 324.17 318.27 324.11 318.43 324.04 318.58 323.95 318.73 323.86 318.86 323.75 319 323.65 319.13 323.52 319.25 323.38 319.37 323.25 319.46 323.11 319.56 322.96 319.64 322.8 319.74 322.64 319.8 322.47 319.85 322.3 319.9 322.11 319.94 321.94 319.96 321.76 319.97 321.58 319.97 321.4 319.97 321.22 319.95 321.02 319.92 320.85 319.87 320.68 319.81 320.5 319.76 320.33 319.69 320.16 319.61 320 319.51 319.85 319.43 319.7 319.31 319.56 319.19 319.42 319.07 319.29 318.93 319.19 318.8 319.07 318.65 318.97 318.5 318.88 318.34 318.81 318.18 318.73 318.02 318.68 317.86 318.63 317.7 318.6 317.53 318.58 317.35 318.57 317.17 318.57 317 318.58 316.83 318.6 316.67 318.63 316.5 318.68 316.34 318.73 316.18 318.81 316.03 318.88 315.88 318.97 315.74 319.07 315.6 319.19 315.46 319.29 315.35 319.42 315.23 319.56 315.11 319.7 315.02 319.85 314.93 320 314.85 320.16 314.77 320.33 314.72 320.5 314.66 320.68 314.62 320.85 314.59 321.02 314.57 321.22 314.57 321.4 314.57 321.58 314.58 321.76 314.61 321.94 314.64 322.11 314.69 322.3 314.74 322.47 314.81 322.64 314.89 322.8 314.97 322.96 315.07 323.11 315.16 323.25 315.28 323.38 315.4 323.52 315.53 323.65 315.66 323.75 315.8 323.86 315.95 323.95 316.1 324.04 316.26 324.11 316.42 324.17 316.59 324.22 316.76 324.26 316.92 324.29 317.09 324.31 317.27 324.32"/></g><text class="cls-16" transform="translate(117.84 32.63)">HIV-1 Tat protein_Clone 31 aptamer</text><text class="cls-17" transform="translate(85.05 343.21)">5<tspan class="cls-18" x="11.12" y="0">’</tspan></text><text class="cls-17" transform="translate(25.36 366.5)">3<tspan class="cls-18" x="11.12" y="0">’</tspan></text></svg>