<?xml version="1.0" encoding="utf-8"?>
<!-- Generator: Adobe Illustrator 25.2.0, SVG Export Plug-In . SVG Version: 6.00 Build 0)  -->
<svg version="1.1" id="图层_1" xmlns="http://www.w3.org/2000/svg" xmlns:xlink="http://www.w3.org/1999/xlink" x="0px" y="0px"
	 viewBox="0 0 400 400" style="enable-background:new 0 0 400 400;" xml:space="preserve">
<style type="text/css">
	.st0{fill:#228B22;}
	.st1{font-family:'ArialMT';}
	.st2{font-size:18.1177px;}
	.st3{fill:#0A0BFF;}
	.st4{fill:none;stroke:#000000;stroke-width:0.38;stroke-miterlimit:3.05;}
	.st5{stroke:#000000;stroke-width:0.38;stroke-miterlimit:3.05;}
	.st6{fill:#FF870A;}
	.st7{fill:#008080;}
	.st8{fill:#C2C2FF;}
	.st9{font-size:20px;}
</style>
<g id="topgroup">
	<g id="ID000000">
		<g id="ID000002">
			<text transform="matrix(0.6991 0 0 1 75.6919 331.8018)" class="st0 st1 st2">G</text>
		</g>
		<g id="ID000003">
			<text transform="matrix(0.6991 0 0 1 62.7583 331.8018)" class="st0 st1 st2">G</text>
		</g>
		<g id="ID000004">
			<text transform="matrix(0.6991 0 0 1 49.814 331.8018)" class="st0 st1 st2">G</text>
		</g>
		<g id="ID000005">
			<text transform="matrix(0.6991 0 0 1 37.5845 331.8018)" class="st0 st1 st2">A</text>
		</g>
		<g id="ID000006">
			<text transform="matrix(0.6991 0 0 1 25.0181 334.8906)" class="st3 st1 st2">G</text>
		</g>
		<g id="ID000007">
			<text transform="matrix(0.6991 0 0 1 16.019 311.7217)" class="st3 st1 st2">A</text>
		</g>
		<g id="ID000008">
			<text transform="matrix(0.6991 0 0 1 25.7212 288.5635)" class="st3 st1 st2">A</text>
		</g>
		<g id="ID000009">
			<text transform="matrix(0.6991 0 0 1 37.228 294.7324)" class="st0 st1 st2">U</text>
		</g>
		<g id="ID000010">
			<text transform="matrix(0.6991 0 0 1 50.1714 294.7324)" class="st0 st1 st2">U</text>
		</g>
		<g id="ID000011">
			<text transform="matrix(0.6991 0 0 1 63.104 294.7324)" class="st0 st1 st2">C</text>
		</g>
		<g id="ID000012">
			<line class="st4" x1="67.7" y1="274" x2="67.7" y2="261.7"/>
		</g>
		<g id="ID000013">
			<text transform="matrix(0.6991 0 0 1 60.6382 257.0469)" class="st1 st2">10</text>
		</g>
		<g id="ID000014">
			<text transform="matrix(0.6991 0 0 1 76.0483 294.7324)" class="st0 st1 st2">C</text>
		</g>
		<g id="ID000015">
			<line class="st4" x1="80.6" y1="316.1" x2="80.6" y2="293.8"/>
		</g>
		<g id="ID000016">
			<line class="st4" x1="67.7" y1="316.1" x2="67.7" y2="293.8"/>
		</g>
		<g id="ID000017">
			<polygon class="st5" points="54.7,303.1 54.6,303.1 54.4,303.1 54.2,303.2 54.1,303.2 53.9,303.3 53.8,303.4 53.6,303.5 
				53.5,303.6 53.3,303.7 53.2,303.8 53.1,304 53,304.1 52.8,304.3 52.7,304.5 52.6,304.7 52.5,304.9 52.5,305.1 52.4,305.3 
				52.3,305.5 52.3,305.7 52.2,306 52.2,306.2 52.2,306.4 52.2,306.6 52.1,306.9 52.2,307.1 52.2,307.4 52.2,307.6 52.2,307.8 
				52.3,308 52.4,308.3 52.4,308.5 52.5,308.7 52.6,308.9 52.7,309.1 52.8,309.2 52.9,309.4 53,309.6 53.1,309.7 53.3,309.9 
				53.4,310 53.6,310.1 53.7,310.2 53.9,310.3 54,310.4 54.2,310.4 54.3,310.5 54.5,310.5 54.7,310.5 54.8,310.5 55,310.5 
				55.1,310.5 55.3,310.4 55.5,310.4 55.6,310.3 55.8,310.2 55.9,310.1 56.1,310 56.2,309.9 56.3,309.7 56.5,309.6 56.6,309.4 
				56.7,309.2 56.8,309.1 56.9,308.9 57,308.7 57.1,308.5 57.1,308.3 57.2,308 57.2,307.8 57.3,307.6 57.3,307.4 57.3,307.1 
				57.3,306.9 57.3,306.6 57.3,306.4 57.3,306.2 57.3,306 57.2,305.7 57.2,305.5 57.1,305.3 57,305.1 56.9,304.9 56.8,304.7 
				56.7,304.5 56.6,304.3 56.5,304.1 56.4,304 56.3,303.8 56.1,303.7 56,303.6 55.8,303.5 55.7,303.4 55.5,303.3 55.4,303.2 
				55.2,303.2 55.1,303.1 54.9,303.1 			"/>
		</g>
		<g id="ID000018">
			<line class="st4" x1="41.8" y1="316.1" x2="41.8" y2="293.8"/>
		</g>
		<g id="ID000020">
			<text transform="matrix(0.6991 0 0 1 85.394 276.207)" class="st6 st1 st2">G</text>
		</g>
		<g id="ID000021">
			<text transform="matrix(0.6991 0 0 1 86.0972 257.6719)" class="st6 st1 st2">A</text>
		</g>
		<g id="ID000022">
			<text transform="matrix(0.6991 0 0 1 85.7505 239.1377)" class="st6 st1 st2">C</text>
		</g>
		<g id="ID000023">
			<text transform="matrix(0.6991 0 0 1 85.7505 220.6025)" class="st6 st1 st2">C</text>
		</g>
		<g id="ID000024">
			<text transform="matrix(0.6991 0 0 1 86.0972 202.0684)" class="st6 st1 st2">A</text>
		</g>
		<g id="ID000025">
			<text transform="matrix(0.6991 0 0 1 85.394 183.5332)" class="st6 st1 st2">G</text>
		</g>
		<g id="ID000026">
			<text transform="matrix(0.6991 0 0 1 86.0972 164.9985)" class="st6 st1 st2">A</text>
		</g>
		<g id="ID000027">
			<text transform="matrix(0.6991 0 0 1 82.8667 146.4639)" class="st3 st1 st2">A</text>
		</g>
		<g id="ID000028">
			<text transform="matrix(0.6991 0 0 1 98.3374 132.563)" class="st3 st1 st2">G</text>
		</g>
		<g id="ID000029">
			<line class="st4" x1="103.3" y1="111.9" x2="103.3" y2="99.5"/>
		</g>
		<g id="ID000030">
			<text transform="matrix(0.6991 0 0 1 96.2173 94.8779)" class="st1 st2">20</text>
		</g>
		<g id="ID000031">
			<text transform="matrix(0.6991 0 0 1 114.8579 146.4639)" class="st3 st1 st2">C</text>
		</g>
		<g id="ID000032">
			<text transform="matrix(0.6991 0 0 1 111.6274 164.9985)" class="st6 st1 st2">U</text>
		</g>
		<g id="ID000033">
			<text transform="matrix(0.6991 0 0 1 111.6274 183.5332)" class="st6 st1 st2">U</text>
		</g>
		<g id="ID000034">
			<text transform="matrix(0.6991 0 0 1 111.6274 202.0684)" class="st6 st1 st2">U</text>
		</g>
		<g id="ID000035">
			<text transform="matrix(0.6991 0 0 1 111.271 220.6025)" class="st6 st1 st2">G</text>
		</g>
		<g id="ID000036">
			<text transform="matrix(0.6991 0 0 1 111.271 239.1377)" class="st6 st1 st2">G</text>
		</g>
		<g id="ID000037">
			<text transform="matrix(0.6991 0 0 1 111.6274 257.6719)" class="st6 st1 st2">U</text>
		</g>
		<g id="ID000038">
			<text transform="matrix(0.6991 0 0 1 111.6274 276.207)" class="st6 st1 st2">U</text>
		</g>
		<g id="ID000039">
			<text transform="matrix(0.6991 0 0 1 128.1479 276.207)" class="st3 st1 st2">A</text>
		</g>
		<g id="ID000040">
			<polygon class="st5" points="105.8,269.8 105.8,269.5 105.8,269.3 105.8,269.1 105.8,268.8 105.7,268.6 105.7,268.4 105.6,268.2 
				105.5,268 105.4,267.8 105.3,267.6 105.2,267.4 105.1,267.2 105,267 104.9,266.9 104.8,266.7 104.6,266.6 104.5,266.5 
				104.3,266.4 104.2,266.3 104,266.2 103.9,266.2 103.7,266.1 103.5,266.1 103.4,266.1 103.2,266 103,266.1 102.9,266.1 
				102.7,266.1 102.6,266.2 102.4,266.3 102.3,266.3 102.1,266.4 102,266.6 101.8,266.7 101.7,266.8 101.6,267 101.4,267.1 
				101.3,267.3 101.2,267.5 101.1,267.7 101,267.8 101,268.1 100.9,268.3 100.8,268.5 100.8,268.7 100.7,268.9 100.7,269.2 
				100.7,269.4 100.7,269.6 100.7,269.9 100.7,270.1 100.7,270.3 100.7,270.6 100.8,270.8 100.8,271 100.9,271.2 101,271.5 
				101,271.7 101.1,271.9 101.2,272 101.3,272.2 101.4,272.4 101.6,272.6 101.7,272.7 101.8,272.8 102,273 102.1,273.1 102.3,273.2 
				102.4,273.3 102.6,273.3 102.7,273.4 102.9,273.4 103,273.4 103.2,273.5 103.4,273.5 103.5,273.4 103.7,273.4 103.9,273.4 
				104,273.3 104.2,273.2 104.3,273.1 104.5,273 104.6,272.9 104.8,272.8 104.9,272.6 105,272.5 105.1,272.3 105.2,272.1 105.3,272 
				105.4,271.8 105.5,271.6 105.6,271.3 105.7,271.1 105.7,270.9 105.8,270.7 105.8,270.5 105.8,270.2 105.8,270 			"/>
		</g>
		<g id="ID000041">
			<line class="st4" x1="95.5" y1="249.3" x2="111" y2="249.3"/>
		</g>
		<g id="ID000042">
			<line class="st4" x1="95.5" y1="230.8" x2="111" y2="230.8"/>
		</g>
		<g id="ID000043">
			<line class="st4" x1="95.5" y1="212.3" x2="111" y2="212.3"/>
		</g>
		<g id="ID000044">
			<line class="st4" x1="95.5" y1="193.7" x2="111" y2="193.7"/>
		</g>
		<g id="ID000045">
			<polygon class="st5" points="105.8,177.1 105.8,176.9 105.8,176.6 105.8,176.4 105.8,176.2 105.7,175.9 105.7,175.7 105.6,175.5 
				105.5,175.3 105.4,175.1 105.3,174.9 105.2,174.7 105.1,174.5 105,174.4 104.9,174.2 104.8,174.1 104.6,173.9 104.5,173.8 
				104.3,173.7 104.2,173.6 104,173.5 103.9,173.5 103.7,173.4 103.5,173.4 103.4,173.4 103.2,173.4 103,173.4 102.9,173.4 
				102.7,173.5 102.6,173.5 102.4,173.6 102.3,173.7 102.1,173.8 102,173.9 101.8,174 101.7,174.1 101.6,174.3 101.4,174.4 
				101.3,174.6 101.2,174.8 101.1,175 101,175.2 101,175.4 100.9,175.6 100.8,175.8 100.8,176 100.7,176.3 100.7,176.5 100.7,176.7 
				100.7,177 100.7,177.2 100.7,177.4 100.7,177.7 100.7,177.9 100.8,178.1 100.8,178.4 100.9,178.6 101,178.8 101,179 101.1,179.2 
				101.2,179.4 101.3,179.6 101.4,179.7 101.6,179.9 101.7,180 101.8,180.2 102,180.3 102.1,180.4 102.3,180.5 102.4,180.6 
				102.6,180.7 102.7,180.7 102.9,180.8 103,180.8 103.2,180.8 103.4,180.8 103.5,180.8 103.7,180.7 103.9,180.7 104,180.6 
				104.2,180.5 104.3,180.5 104.5,180.4 104.6,180.2 104.8,180.1 104.9,180 105,179.8 105.1,179.6 105.2,179.5 105.3,179.3 
				105.4,179.1 105.5,178.9 105.6,178.7 105.7,178.5 105.7,178.2 105.8,178 105.8,177.8 105.8,177.6 105.8,177.3 			"/>
		</g>
		<g id="ID000046">
			<line class="st4" x1="95.5" y1="156.7" x2="111" y2="156.7"/>
		</g>
		<g id="ID000048">
			<text transform="matrix(0.6991 0 0 1 137.5044 294.7324)" class="st7 st1 st2">U</text>
		</g>
		<g id="ID000049">
			<line class="st4" x1="142.1" y1="274" x2="142.1" y2="261.7"/>
		</g>
		<g id="ID000050">
			<text transform="matrix(0.6991 0 0 1 135.0278 257.0469)" class="st1 st2">30</text>
		</g>
		<g id="ID000051">
			<text transform="matrix(0.6991 0 0 1 150.438 294.7324)" class="st7 st1 st2">C</text>
		</g>
		<g id="ID000052">
			<text transform="matrix(0.6991 0 0 1 163.728 294.7324)" class="st7 st1 st2">A</text>
		</g>
		<g id="ID000053">
			<text transform="matrix(0.6991 0 0 1 176.314 294.7324)" class="st7 st1 st2">U</text>
		</g>
		<g id="ID000054">
			<text transform="matrix(0.6991 0 0 1 188.9019 294.7324)" class="st7 st1 st2">G</text>
		</g>
		<g id="ID000055">
			<text transform="matrix(0.6991 0 0 1 202.1924 294.7324)" class="st7 st1 st2">U</text>
		</g>
		<g id="ID000056">
			<text transform="matrix(0.6991 0 0 1 198.9497 271.5732)" class="st3 st1 st2">U</text>
		</g>
		<g id="ID000057">
			<text transform="matrix(0.6991 0 0 1 208.6533 257.6719)" class="st3 st1 st2">U</text>
		</g>
		<g id="ID000058">
			<text transform="matrix(0.6991 0 0 1 208.6533 350.3359)" class="st3 st1 st2">U</text>
		</g>
		<g id="ID000059">
			<text transform="matrix(0.6991 0 0 1 202.5391 331.8018)" class="st7 st1 st2">A</text>
		</g>
		<g id="ID000060">
			<text transform="matrix(0.6991 0 0 1 189.2485 331.8018)" class="st7 st1 st2">C</text>
		</g>
		<g id="ID000061">
			<text transform="matrix(0.6991 0 0 1 176.6616 331.8018)" class="st7 st1 st2">A</text>
		</g>
		<g id="ID000062">
			<text transform="matrix(0.6991 0 0 1 163.3716 331.8018)" class="st7 st1 st2">U</text>
		</g>
		<g id="ID000063">
			<text transform="matrix(0.6991 0 0 1 150.0815 331.8018)" class="st7 st1 st2">G</text>
		</g>
		<g id="ID000064">
			<line class="st4" x1="155" y1="335.8" x2="155" y2="348.2"/>
		</g>
		<g id="ID000065">
			<text transform="matrix(0.6991 0 0 1 147.9712 370.0459)" class="st1 st2">70</text>
		</g>
		<g id="ID000066">
			<text transform="matrix(0.6991 0 0 1 137.1479 331.8018)" class="st7 st1 st2">G</text>
		</g>
		<g id="ID000067">
			<text transform="matrix(0.6991 0 0 1 128.1479 350.3359)" class="st3 st1 st2">A</text>
		</g>
		<g id="ID000068">
			<text transform="matrix(0.6991 0 0 1 114.8579 359.6035)" class="st3 st1 st2">U</text>
		</g>
		<g id="ID000069">
			<text transform="matrix(0.6991 0 0 1 101.9253 364.2373)" class="st3 st1 st2">C</text>
		</g>
		<g id="ID000070">
			<text transform="matrix(0.6991 0 0 1 88.9819 364.2373)" class="st3 st1 st2">C</text>
		</g>
		<g id="ID000071">
			<text transform="matrix(0.6991 0 0 1 76.0483 364.2373)" class="st3 st1 st2">U</text>
		</g>
		<g id="ID000072">
			<text transform="matrix(0.6991 0 0 1 63.104 364.2373)" class="st3 st1 st2">C</text>
		</g>
		<g id="ID000073">
			<text transform="matrix(0.6991 0 0 1 50.5181 364.2373)" class="st3 st1 st2">A</text>
		</g>
		<g id="ID000074">
			<polygon class="st5" points="142.1,310.5 142.2,310.5 142.4,310.5 142.6,310.5 142.7,310.4 142.9,310.3 143,310.3 143.2,310.2 
				143.3,310.1 143.5,309.9 143.6,309.8 143.7,309.7 143.9,309.5 144,309.3 144.1,309.2 144.2,309 144.3,308.8 144.4,308.6 
				144.4,308.4 144.5,308.1 144.5,307.9 144.6,307.7 144.6,307.5 144.6,307.2 144.6,307 144.6,306.8 144.6,306.5 144.6,306.3 
				144.6,306.1 144.6,305.8 144.5,305.6 144.5,305.4 144.4,305.2 144.3,305 144.2,304.8 144.1,304.6 144,304.4 143.9,304.2 
				143.8,304.1 143.7,303.9 143.5,303.8 143.4,303.6 143.3,303.5 143.1,303.4 143,303.3 142.8,303.3 142.6,303.2 142.5,303.2 
				142.3,303.1 142.2,303.1 142,303.1 141.8,303.1 141.7,303.2 141.5,303.2 141.3,303.3 141.2,303.3 141,303.4 140.9,303.5 
				140.7,303.6 140.6,303.8 140.5,303.9 140.3,304.1 140.2,304.2 140.1,304.4 140,304.6 139.9,304.8 139.8,305 139.7,305.2 
				139.7,305.4 139.6,305.6 139.6,305.8 139.5,306.1 139.5,306.3 139.5,306.5 139.5,306.8 139.5,307 139.5,307.2 139.5,307.5 
				139.6,307.7 139.6,307.9 139.6,308.1 139.7,308.4 139.8,308.6 139.9,308.8 140,309 140.1,309.2 140.2,309.3 140.3,309.5 
				140.4,309.7 140.5,309.8 140.7,309.9 140.8,310.1 141,310.2 141.1,310.3 141.3,310.3 141.4,310.4 141.6,310.5 141.7,310.5 
				141.9,310.5 			"/>
		</g>
		<g id="ID000075">
			<line class="st4" x1="155" y1="293.8" x2="155" y2="316.1"/>
		</g>
		<g id="ID000076">
			<line class="st4" x1="167.9" y1="293.8" x2="167.9" y2="316.1"/>
		</g>
		<g id="ID000077">
			<line class="st4" x1="180.9" y1="293.8" x2="180.9" y2="316.1"/>
		</g>
		<g id="ID000078">
			<line class="st4" x1="193.8" y1="293.8" x2="193.8" y2="316.1"/>
		</g>
		<g id="ID000079">
			<line class="st4" x1="206.8" y1="293.8" x2="206.8" y2="316.1"/>
		</g>
		<g id="ID000081">
			<text transform="matrix(0.6991 0 0 1 225.1846 257.6719)" class="st3 st1 st2">A</text>
		</g>
		<g id="ID000082">
			<text transform="matrix(0.6991 0 0 1 234.5303 271.5732)" class="st3 st1 st2">U</text>
		</g>
		<g id="ID000083">
			<text transform="matrix(0.6991 0 0 1 230.9434 294.7324)" class="st8 st1 st2">G</text>
		</g>
		<g id="ID000084">
			<line class="st4" x1="242" y1="277.7" x2="248.1" y2="268.9"/>
		</g>
		<g id="ID000085">
			<text transform="matrix(0.6991 0 0 1 248.0654 264.2871)" class="st1 st2">40</text>
		</g>
		<g id="ID000086">
			<text transform="matrix(0.6991 0 0 1 244.2334 294.7324)" class="st8 st1 st2">C</text>
		</g>
		<g id="ID000087">
			<text transform="matrix(0.6991 0 0 1 256.8193 294.7324)" class="st8 st1 st2">G</text>
		</g>
		<g id="ID000088">
			<text transform="matrix(0.6991 0 0 1 270.1094 294.7324)" class="st8 st1 st2">U</text>
		</g>
		<g id="ID000089">
			<text transform="matrix(0.6991 0 0 1 283.3994 294.7324)" class="st8 st1 st2">A</text>
		</g>
		<g id="ID000090">
			<text transform="matrix(0.6991 0 0 1 295.9863 294.7324)" class="st8 st1 st2">C</text>
		</g>
		<g id="ID000091">
			<text transform="matrix(0.6991 0 0 1 308.5732 294.7324)" class="st8 st1 st2">G</text>
		</g>
		<g id="ID000092">
			<text transform="matrix(0.6991 0 0 1 321.5068 290.0977)" class="st3 st1 st2">G</text>
		</g>
		<g id="ID000093">
			<text transform="matrix(0.6991 0 0 1 334.4502 280.8311)" class="st3 st1 st2">G</text>
		</g>
		<g id="ID000094">
			<text transform="matrix(0.6991 0 0 1 347.7402 276.207)" class="st3 st1 st2">C</text>
		</g>
		<g id="ID000095">
			<text transform="matrix(0.6991 0 0 1 363.5586 280.8311)" class="st3 st1 st2">G</text>
		</g>
		<g id="ID000096">
			<line class="st4" x1="368.5" y1="260.1" x2="368.5" y2="247.8"/>
		</g>
		<g id="ID000097">
			<text transform="matrix(0.6991 0 0 1 361.4385 243.1553)" class="st1 st2">50</text>
		</g>
		<g id="ID000098">
			<text transform="matrix(0.6991 0 0 1 376.8477 299.3652)" class="st3 st1 st2">C</text>
		</g>
		<g id="ID000099">
			<text transform="matrix(0.6991 0 0 1 376.8477 322.5342)" class="st3 st1 st2">C</text>
		</g>
		<g id="ID000100">
			<text transform="matrix(0.6991 0 0 1 363.9043 341.0684)" class="st3 st1 st2">C</text>
		</g>
		<g id="ID000101">
			<text transform="matrix(0.6991 0 0 1 348.0869 345.7021)" class="st3 st1 st2">A</text>
		</g>
		<g id="ID000102">
			<text transform="matrix(0.6991 0 0 1 334.7969 341.0684)" class="st3 st1 st2">U</text>
		</g>
		<g id="ID000103">
			<text transform="matrix(0.6991 0 0 1 322.21 331.8018)" class="st3 st1 st2">A</text>
		</g>
		<g id="ID000104">
			<text transform="matrix(0.6991 0 0 1 308.9199 331.8018)" class="st8 st1 st2">U</text>
		</g>
		<g id="ID000105">
			<text transform="matrix(0.6991 0 0 1 295.6396 331.8018)" class="st8 st1 st2">G</text>
		</g>
		<g id="ID000106">
			<text transform="matrix(0.6991 0 0 1 283.0537 331.8018)" class="st8 st1 st2">U</text>
		</g>
		<g id="ID000107">
			<text transform="matrix(0.6991 0 0 1 269.752 331.8018)" class="st8 st1 st2">G</text>
		</g>
		<g id="ID000108">
			<line class="st4" x1="274.7" y1="335.8" x2="274.7" y2="348.2"/>
		</g>
		<g id="ID000109">
			<text transform="matrix(0.6991 0 0 1 267.6436 370.0459)" class="st1 st2">60</text>
		</g>
		<g id="ID000110">
			<text transform="matrix(0.6991 0 0 1 257.1758 331.8018)" class="st8 st1 st2">C</text>
		</g>
		<g id="ID000111">
			<text transform="matrix(0.6991 0 0 1 243.8867 331.8018)" class="st8 st1 st2">G</text>
		</g>
		<g id="ID000112">
			<text transform="matrix(0.6991 0 0 1 231.2998 331.8018)" class="st8 st1 st2">U</text>
		</g>
		<g id="ID000113">
			<text transform="matrix(0.6991 0 0 1 224.8281 350.3359)" class="st3 st1 st2">C</text>
		</g>
		<g id="ID000114">
			<polygon class="st5" points="235.9,310.5 236,310.5 236.2,310.5 236.4,310.5 236.5,310.4 236.7,310.3 236.8,310.3 237,310.2 
				237.1,310.1 237.3,309.9 237.4,309.8 237.5,309.7 237.6,309.5 237.8,309.3 237.9,309.2 238,309 238.1,308.8 238.1,308.6 
				238.2,308.4 238.3,308.1 238.3,307.9 238.4,307.7 238.4,307.5 238.4,307.2 238.4,307 238.5,306.8 238.4,306.5 238.4,306.3 
				238.4,306.1 238.4,305.8 238.3,305.6 238.3,305.4 238.2,305.2 238.1,305 238,304.8 237.9,304.6 237.8,304.4 237.7,304.2 
				237.6,304.1 237.5,303.9 237.3,303.8 237.2,303.6 237,303.5 236.9,303.4 236.8,303.3 236.6,303.3 236.4,303.2 236.3,303.2 
				236.1,303.1 235.9,303.1 235.8,303.1 235.6,303.1 235.5,303.2 235.3,303.2 235.1,303.3 235,303.3 234.8,303.4 234.7,303.5 
				234.5,303.6 234.4,303.8 234.3,303.9 234.1,304.1 234,304.2 233.9,304.4 233.8,304.6 233.7,304.8 233.6,305 233.5,305.2 
				233.5,305.4 233.4,305.6 233.4,305.8 233.3,306.1 233.3,306.3 233.3,306.5 233.3,306.8 233.3,307 233.3,307.2 233.3,307.5 
				233.3,307.7 233.4,307.9 233.5,308.1 233.5,308.4 233.6,308.6 233.7,308.8 233.8,309 233.9,309.2 234,309.3 234.1,309.5 
				234.2,309.7 234.3,309.8 234.5,309.9 234.6,310.1 234.8,310.2 234.9,310.3 235.1,310.3 235.2,310.4 235.4,310.5 235.5,310.5 
				235.7,310.5 			"/>
		</g>
		<g id="ID000115">
			<line class="st4" x1="248.8" y1="293.8" x2="248.8" y2="316.1"/>
		</g>
		<g id="ID000116">
			<line class="st4" x1="261.7" y1="293.8" x2="261.7" y2="316.1"/>
		</g>
		<g id="ID000117">
			<polygon class="st5" points="274.7,310.5 274.8,310.5 275,310.5 275.2,310.5 275.3,310.4 275.5,310.3 275.6,310.3 275.8,310.2 
				275.9,310.1 276.1,309.9 276.2,309.8 276.3,309.7 276.5,309.5 276.6,309.3 276.7,309.2 276.8,309 276.9,308.8 277,308.6 
				277,308.4 277.1,308.1 277.2,307.9 277.2,307.7 277.2,307.5 277.3,307.2 277.3,307 277.3,306.8 277.3,306.5 277.2,306.3 
				277.2,306.1 277.2,305.8 277.1,305.6 277.1,305.4 277,305.2 276.9,305 276.8,304.8 276.7,304.6 276.6,304.4 276.5,304.2 
				276.4,304.1 276.3,303.9 276.1,303.8 276,303.6 275.9,303.5 275.7,303.4 275.6,303.3 275.4,303.3 275.2,303.2 275.1,303.2 
				274.9,303.1 274.8,303.1 274.6,303.1 274.4,303.1 274.3,303.2 274.1,303.2 274,303.3 273.8,303.3 273.6,303.4 273.5,303.5 
				273.4,303.6 273.2,303.8 273.1,303.9 273,304.1 272.8,304.2 272.7,304.4 272.6,304.6 272.5,304.8 272.4,305 272.4,305.2 
				272.3,305.4 272.2,305.6 272.2,305.8 272.1,306.1 272.1,306.3 272.1,306.5 272.1,306.8 272.1,307 272.1,307.2 272.1,307.5 
				272.2,307.7 272.2,307.9 272.3,308.1 272.3,308.4 272.4,308.6 272.5,308.8 272.6,309 272.7,309.2 272.8,309.3 272.9,309.5 
				273,309.7 273.1,309.8 273.3,309.9 273.4,310.1 273.6,310.2 273.7,310.3 273.9,310.3 274,310.4 274.2,310.5 274.3,310.5 
				274.5,310.5 			"/>
		</g>
		<g id="ID000118">
			<line class="st4" x1="287.6" y1="293.8" x2="287.6" y2="316.1"/>
		</g>
		<g id="ID000119">
			<line class="st4" x1="300.6" y1="293.8" x2="300.6" y2="316.1"/>
		</g>
		<g id="ID000120">
			<polygon class="st5" points="313.5,310.5 313.7,310.5 313.8,310.5 314,310.5 314.1,310.4 314.3,310.3 314.5,310.3 314.6,310.2 
				314.7,310.1 314.9,309.9 315,309.8 315.2,309.7 315.3,309.5 315.4,309.3 315.5,309.2 315.6,309 315.7,308.8 315.8,308.6 
				315.9,308.4 315.9,308.1 316,307.9 316,307.7 316,307.5 316.1,307.2 316.1,307 316.1,306.8 316.1,306.5 316.1,306.3 316,306.1 
				316,305.8 315.9,305.6 315.9,305.4 315.8,305.2 315.7,305 315.6,304.8 315.6,304.6 315.4,304.4 315.3,304.2 315.2,304.1 
				315.1,303.9 315,303.8 314.8,303.6 314.7,303.5 314.5,303.4 314.4,303.3 314.2,303.3 314.1,303.2 313.9,303.2 313.7,303.1 
				313.6,303.1 313.4,303.1 313.2,303.1 313.1,303.2 312.9,303.2 312.8,303.3 312.6,303.3 312.5,303.4 312.3,303.5 312.2,303.6 
				312,303.8 311.9,303.9 311.8,304.1 311.7,304.2 311.5,304.4 311.4,304.6 311.3,304.8 311.3,305 311.2,305.2 311.1,305.4 
				311.1,305.6 311,305.8 311,306.1 310.9,306.3 310.9,306.5 310.9,306.8 310.9,307 310.9,307.2 310.9,307.5 311,307.7 311,307.9 
				311.1,308.1 311.1,308.4 311.2,308.6 311.3,308.8 311.4,309 311.5,309.2 311.6,309.3 311.7,309.5 311.8,309.7 312,309.8 
				312.1,309.9 312.2,310.1 312.4,310.2 312.5,310.3 312.7,310.3 312.8,310.4 313,310.5 313.2,310.5 313.3,310.5 			"/>
		</g>
	</g>
</g>
<text transform="matrix(1 0 0 1 117.04 40.73)" class="st1 st9">HIV-1 Tat protein_Clone 31 aptamer</text>
<text transform="matrix(1 0 0 1 99.66 329.36)" class="st1 st9">5</text>
<text transform="matrix(1 0 0 1 110.78 329.36)" class="st1 st9">’</text>
<text transform="matrix(1 0 0 1 28.6339 364.4549)" class="st1 st9">3</text>
<text transform="matrix(1 0 0 1 39.7539 364.4549)" class="st1 st9">’</text>
</svg>
