<?xml version="1.0" encoding="utf-8"?>
<!-- Generator: Adobe Illustrator 27.0.0, SVG Export Plug-In . SVG Version: 6.00 Build 0)  -->
<svg version="1.1" id="图层_1" xmlns="http://www.w3.org/2000/svg" xmlns:xlink="http://www.w3.org/1999/xlink" x="0px" y="0px"
	 viewBox="0 0 800 400" style="enable-background:new 0 0 800 400;" xml:space="preserve">
<style type="text/css">
	.st0{fill:#C2B617;}
	.st1{font-family:'ArialMT';}
	.st2{font-size:29.556px;}
	.st3{fill:#B83332;}
	.st4{fill:#084595;}
	.st5{font-size:20.9355px;}
	.st6{fill:none;stroke:#000000;stroke-miterlimit:10;}
	.st7{font-size:19.704px;}
	.st8{font-size:16px;}
	.st9{stroke:#000000;stroke-miterlimit:3.05;}
</style>
<text transform="matrix(0.9999 1.566132e-02 -1.566132e-02 0.9999 293.4094 121.1893)" class="st0 st1 st2">C</text>
<text transform="matrix(0.9999 1.566132e-02 -1.566132e-02 0.9999 323.3039 121.1766)" class="st3 st1 st2">G</text>
<text transform="matrix(0.9999 1.566132e-02 -1.566132e-02 0.9999 354.4096 121.0854)" class="st3 st1 st2">U</text>
<text transform="matrix(0.9999 1.566132e-02 -1.566132e-02 0.9999 384.7861 121.1894)" class="st3 st1 st2">C</text>
<text transform="matrix(0.9999 1.566132e-02 -1.566132e-02 0.9999 415.2448 121.1894)" class="st3 st1 st2">C</text>
<text transform="matrix(0.9999 1.566132e-02 -1.566132e-02 0.9999 445.7035 121.1895)" class="st3 st1 st2">C</text>
<text transform="matrix(0.9999 1.566132e-02 -1.566132e-02 0.9999 475.535 122.0311)" class="st3 st1 st2">U</text>
<text transform="matrix(0.9999 1.566132e-02 -1.566132e-02 0.9999 539.26 122.1053)" class="st3 st1 st2">U</text>
<text transform="matrix(1 -6.403356e-03 6.403356e-03 1 563.0258 121.8975)" class="st4 st1 st2">C</text>
<text transform="matrix(1 -6.403356e-03 6.403356e-03 1 578.1703 95.7033)" class="st4 st1 st2">G</text>
<text transform="matrix(1 -6.403356e-03 6.403356e-03 1 603.6881 80.8035)" class="st4 st1 st2">C</text>
<text transform="matrix(1 -6.403356e-03 6.403356e-03 1 632.8489 77.7624)" class="st4 st1 st2">A</text>
<text transform="matrix(1 -6.403356e-03 6.403356e-03 1 659.5852 86.4508)" class="st4 st1 st2">A</text>
<text transform="matrix(1 -6.403356e-03 6.403356e-03 1 679.6793 105.9143)" class="st4 st1 st2">C</text>
<text transform="matrix(1 -6.403356e-03 6.403356e-03 1 690.4726 132.566)" class="st4 st1 st2">C</text>
<text transform="matrix(1 -6.403356e-03 6.403356e-03 1 688.5351 160.9925)" class="st4 st1 st2">C</text>
<text transform="matrix(1 -6.403356e-03 6.403356e-03 1 676.4879 186.3689)" class="st4 st1 st2">U</text>
<text transform="matrix(1 -6.403356e-03 6.403356e-03 1 653.3878 203.5596)" class="st4 st1 st2">U</text>
<text transform="matrix(1 -6.403356e-03 6.403356e-03 1 625.1285 208.6375)" class="st4 st1 st2">U</text>
<text transform="matrix(1 -6.403356e-03 6.403356e-03 1 601.4752 201.4593)" class="st4 st1 st2">A</text>
<text transform="matrix(1 -6.403356e-03 6.403356e-03 1 579.2614 187.4254)" class="st4 st1 st2">A</text>
<text transform="matrix(1 -6.403356e-03 6.403356e-03 1 562.4792 164.3487)" class="st4 st1 st2">G</text>
<text transform="matrix(0.9999 1.566132e-02 -1.566132e-02 0.9999 540.2803 164.3485)" class="st3 st1 st2">A</text>
<text transform="matrix(0.9999 1.566132e-02 -1.566132e-02 0.9999 517.2708 181.0489)" class="st3 st1 st2">C</text>
<text transform="matrix(0.9999 1.566132e-02 -1.566132e-02 0.9999 492.1126 195.3609)" class="st3 st1 st2">U</text>
<text transform="matrix(0.9999 1.566132e-02 -1.566132e-02 0.9999 466.8725 180.9449)" class="st3 st1 st2">U</text>
<text transform="matrix(0.9999 1.566132e-02 -1.566132e-02 0.9999 443.5168 164.1618)" class="st3 st1 st2">G</text>
<text transform="matrix(0.9999 1.566132e-02 -1.566132e-02 0.9999 413.5916 164.162)" class="st3 st1 st2">G</text>
<text transform="matrix(0.9999 1.566132e-02 -1.566132e-02 0.9999 383.6665 164.162)" class="st3 st1 st2">G</text>
<text transform="matrix(0.9999 1.566132e-02 -1.566132e-02 0.9999 355.4088 164.1353)" class="st3 st1 st2">A</text>
<text transform="matrix(0.9999 1.566132e-02 -1.566132e-02 0.9999 324.3816 164.1749)" class="st3 st1 st2">C</text>
<text transform="matrix(0.9999 1.566132e-02 -1.566132e-02 0.9999 294.4568 164.1751)" class="st0 st1 st2">C</text>
<text transform="matrix(0.9999 1.566132e-02 -1.566132e-02 0.9999 269.8522 164.1751)" class="st0 st1 st2">C</text>
<text transform="matrix(0.9999 1.566132e-02 -1.566132e-02 0.9999 245.3295 164.0709)" class="st0 st1 st2">U</text>
<text transform="matrix(0.9999 1.566132e-02 -1.566132e-02 0.9999 220.0784 164.1621)" class="st0 st1 st2">G</text>
<text transform="matrix(0.9999 1.566132e-02 -1.566132e-02 0.9999 196.0376 164.175)" class="st0 st1 st2">C</text>
<text transform="matrix(0.9999 1.566132e-02 -1.566132e-02 0.9999 171.5152 164.0708)" class="st0 st1 st2">U</text>
<text transform="matrix(0.9999 1.566132e-02 -1.566132e-02 0.9999 146.828 164.1751)" class="st0 st1 st2">C</text>
<text transform="matrix(0.9999 1.566132e-02 -1.566132e-02 0.9999 122.3055 164.0713)" class="st0 st1 st2">U</text>
<text transform="matrix(0.9999 1.566132e-02 -1.566132e-02 0.9999 97.7008 164.071)" class="st0 st1 st2">U</text>
<text transform="matrix(0.9999 1.566132e-02 -1.566132e-02 0.9999 555.9934 80.8035)" class="st1 st5">10</text>
<text transform="matrix(0.9999 1.566132e-02 -1.566132e-02 0.9999 593.541 222.2625)" class="st1 st5">20</text>
<text transform="matrix(0.9999 1.566132e-02 -1.566132e-02 0.9999 356.4882 182.007)" class="st1 st5">30</text>
<text transform="matrix(0.9999 1.566132e-02 -1.566132e-02 0.9999 86.8189 139.294)" class="st1 st5">40</text>
<g id="ID000017-2">
	<line class="st6" x1="540.3" y1="110.6" x2="496.2" y2="110.6"/>
</g>
<text transform="matrix(0.9999 1.566132e-02 -1.566132e-02 0.9999 287.8771 95.246)" class="st1 st7">5</text>
<text transform="matrix(0.9999 1.566132e-02 -1.566132e-02 0.9999 298.8372 95.4177)" class="st1 st7">’</text>
<text transform="matrix(0.9999 1.566132e-02 -1.566132e-02 0.9999 89.5041 185.54)" class="st1 st7">3</text>
<text transform="matrix(0.9999 1.566132e-02 -1.566132e-02 0.9999 100.4627 185.7116)" class="st1 st7">’</text>
<text transform="matrix(1 0 0 1 356.2221 25.3236)" class="st1 st8">W2 aptamer</text>
<line class="st6" x1="365.2" y1="123.3" x2="365.2" y2="141.5"/>
<line class="st6" x1="334.8" y1="123.4" x2="334.8" y2="141.7"/>
<line class="st6" x1="395.7" y1="123.3" x2="395.7" y2="141.6"/>
<line class="st6" x1="426.2" y1="123.3" x2="426.2" y2="141.5"/>
<line class="st6" x1="456.7" y1="123.3" x2="456.7" y2="141.5"/>
<line class="st6" x1="549.6" y1="123.4" x2="549.6" y2="141.7"/>
<line class="st6" x1="574.5" y1="123.4" x2="574.5" y2="141.7"/>
<g id="ID000094-2">
	<polygon class="st9" points="513.4,106.8 515.3,108.8 517.3,109.5 519.4,110 523.5,111.1 519.4,111.8 517.3,112 515.2,112.6 
		513,114.3 	"/>
</g>
</svg>
