<?xml version="1.0" encoding="utf-8"?>
<!-- Generator: Adobe Illustrator 25.2.0, SVG Export Plug-In . SVG Version: 6.00 Build 0)  -->
<svg version="1.1" id="图层_1" xmlns="http://www.w3.org/2000/svg" xmlns:xlink="http://www.w3.org/1999/xlink" x="0px" y="0px"
	 viewBox="0 0 800 400" style="enable-background:new 0 0 800 400;" xml:space="preserve">
<style type="text/css">
	.st0{fill:#FF9933;}
	.st1{font-family:'ArialMT';}
	.st2{font-size:19.0949px;}
	.st3{fill:none;stroke:#000000;stroke-miterlimit:3.05;}
	.st4{font-size:15.276px;}
	.st5{font-size:14.6394px;}
	.st6{font-size:12.7299px;}
	.st7{fill:#084595;}
	.st8{fill:#18988C;}
	.st9{fill:#2EA103;}
	.st10{fill:#B83233;}
	.st11{fill:none;stroke:#000000;stroke-width:0.38;stroke-miterlimit:3.05;}
	.st12{font-size:20px;}
</style>
<g id="ID000010">
	<text transform="matrix(1 0 0 1 352.4729 252.8901)" class="st0 st1 st2">A</text>
</g>
<g id="ID000021">
	<line class="st3" x1="398" y1="246.4" x2="370.6" y2="246.2"/>
</g>
<text transform="matrix(1 0 0 1 305.9641 373.4302)" class="st1 st4">5</text>
<text transform="matrix(1 0 0 1 314.4612 373.4302)" class="st1 st4">’</text>
<text transform="matrix(1 0 0 1 587.8567 318.9067)" class="st1 st5">3</text>
<text transform="matrix(1 0 0 1 595.9973 318.9067)" class="st1 st5">’</text>
<g id="ID000011-2">
	<g>
		<text transform="matrix(1 0 0 1 402.3235 251.3354)" class="st0 st1 st2">U</text>
	</g>
</g>
<g id="ID000019-2">
	<g>
		<text transform="matrix(1 0 0 1 417.1731 234.0366)" class="st0 st1 st2">A</text>
	</g>
</g>
<g id="ID000018">
	<text transform="matrix(1 0 0 1 278.3899 265.3696)" class="st1 st6">10</text>
</g>
<g id="ID000010-2">
	<text transform="matrix(1 0 0 1 404.0804 213.5415)" class="st7 st1 st2">C</text>
</g>
<g id="ID000020">
	<g>
		<text transform="matrix(1 0 0 1 351.8172 213.2163)" class="st7 st1 st2">G</text>
	</g>
</g>
<g id="ID000021-2">
	<line class="st3" x1="398.9" y1="205.5" x2="371.5" y2="205.3"/>
</g>
<g id="ID000019-3">
	<text transform="matrix(1 0 0 1 404.0491 193.2632)" class="st7 st1 st2">C</text>
</g>
<g id="ID000003-2">
	<text transform="matrix(1 0 0 1 404.7102 151.292)" class="st7 st1 st2">U</text>
</g>
<g id="ID000005-5">
	<text transform="matrix(1 0 0 1 351.804 150.1968)" class="st7 st1 st2">A</text>
</g>
<g id="ID000010-2-2">
	<text transform="matrix(1 0 0 1 404.7102 169.8901)" class="st7 st1 st2">G</text>
</g>
<g id="ID000020-3">
	<g>
		<text transform="matrix(1 0 0 1 351.804 169.4321)" class="st7 st1 st2">C</text>
	</g>
</g>
<g id="ID000020-3-2">
	<g>
		<text transform="matrix(1 0 0 1 351.8172 192.5435)" class="st7 st1 st2">G</text>
	</g>
</g>
<line class="st3" x1="399.4" y1="162.8" x2="372" y2="162.5"/>
<line class="st3" x1="398.8" y1="186" x2="371.5" y2="185.7"/>
<line class="st3" x1="399.4" y1="143.9" x2="372" y2="143.7"/>
<g id="ID000003-2-2">
	<text transform="matrix(1 0 0 1 404.7102 112.3896)" class="st7 st1 st2">U</text>
</g>
<g id="ID000005-5-2">
	<text transform="matrix(1 0 0 1 351.804 111.7275)" class="st7 st1 st2">A</text>
</g>
<g id="ID000010-2-3">
	<text transform="matrix(1 0 0 1 404.7102 130.981)" class="st7 st1 st2">G</text>
</g>
<g id="ID000020-3-3">
	<text transform="matrix(1 0 0 1 350.7542 130.9629)" class="st7 st1 st2">C</text>
</g>
<line class="st3" x1="399.4" y1="105" x2="372" y2="104.8"/>
<g id="ID000003-2-3">
	<text transform="matrix(1 0 0 1 420.554 296.731)" class="st0 st1 st2">U</text>
</g>
<g id="ID000005-5-3">
	<text transform="matrix(1 0 0 1 586.4182 296.7319)" class="st8 st1 st2">U</text>
</g>
<g id="ID000003-2-4">
	<text transform="matrix(1 0 0 1 503.6956 296.7319)" class="st8 st1 st2">C</text>
</g>
<g id="ID000010-3">
	<text transform="matrix(1 0 0 1 352.4729 273.1431)" class="st0 st1 st2">U</text>
</g>
<g id="ID000021-3">
	<line class="st3" x1="397.8" y1="266.6" x2="370.4" y2="266.5"/>
</g>
<g id="ID000011-2-2">
	<text transform="matrix(1 0 0 1 402.3235 274.3716)" class="st0 st1 st2">A</text>
</g>
<text transform="matrix(1 0 0 1 427.8792 108.4043)" class="st1 st6">30</text>
<g id="ID000005-5-4">
	<text transform="matrix(1 0 0 1 521.5061 296.731)" class="st8 st1 st2">A</text>
</g>
<g id="ID000005-5-5">
	<g>
		<text transform="matrix(1 0 0 1 339.1507 309.3208)" class="st0 st1 st2">U</text>
	</g>
</g>
<g id="ID000010-2-4">
	<text transform="matrix(1 0 0 1 364.5764 75.4546)" class="st9 st1 st2">G</text>
</g>
<g id="ID000005-5-6">
	<text transform="matrix(1 0 0 1 437.6878 296.731)" class="st8 st1 st2">A</text>
</g>
<g id="ID000003-2-5">
	<text transform="matrix(1 0 0 1 310.2034 332.0122)" class="st10 st1 st2">C</text>
</g>
<g id="ID000005-5-7">
	<text transform="matrix(1 0 0 1 471.7122 296.731)" class="st8 st1 st2">U</text>
</g>
<g id="ID000005-5-8">
	<text transform="matrix(1 0 0 1 346.5774 93.5215)" class="st9 st1 st2">A</text>
</g>
<g id="ID000003-2-6">
	<text transform="matrix(1 0 0 1 455.5823 296.731)" class="st8 st1 st2">C</text>
</g>
<g id="ID000005-5-9">
	<text transform="matrix(1 0 0 1 216.9309 318.1118)" class="st9 st1 st2">U</text>
</g>
<g id="ID000005-5-10">
	<text transform="matrix(1 0 0 1 488.263 296.731)" class="st8 st1 st2">A</text>
</g>
<g id="ID000005-5-11">
	<text transform="matrix(1 0 0 1 413.1487 93.5215)" class="st9 st1 st2">A</text>
</g>
<g id="ID000010-2-5">
	<text transform="matrix(1 0 0 1 275.909 289.3159)" class="st9 st1 st2">C</text>
</g>
<g id="ID000002-5">
	<text transform="matrix(1 0 0 1 243.6512 343.5269)" class="st9 st1 st2">A</text>
</g>
<g id="ID000010-2-6">
	<text transform="matrix(1 0 0 1 570.2561 296.731)" class="st8 st1 st2">C</text>
</g>
<g id="ID000010-2-7">
	<text transform="matrix(1 0 0 1 553.0305 296.731)" class="st8 st1 st2">G</text>
</g>
<g id="ID000002-5-2">
	<text transform="matrix(1 0 0 1 218.4388 296.9604)" class="st9 st1 st2">U</text>
</g>
<g id="ID000002-5-3">
	<text transform="matrix(1 0 0 1 243.6199 271.7808)" class="st9 st1 st2">A</text>
</g>
<g id="ID000010-2-8">
	<text transform="matrix(1 0 0 1 225.4534 278.0942)" class="st9 st1 st2">C</text>
</g>
<g id="ID000010-2-9">
	<text transform="matrix(1 0 0 1 261.5115 278.0942)" class="st9 st1 st2">A</text>
</g>
<g id="ID000002-5-4">
	<text transform="matrix(1 0 0 1 226.4085 334.9341)" class="st9 st1 st2">A</text>
</g>
<g id="ID000002-5-5">
	<text transform="matrix(1 0 0 1 290.3821 363.1499)" class="st10 st1 st2">G</text>
</g>
<g id="ID000010-2-10">
	<text transform="matrix(1 0 0 1 391.1062 75.6836)" class="st9 st1 st2">G</text>
</g>
<g id="ID000002-5-6">
	<g>
		<text transform="matrix(1 0 0 1 326.3763 319.811)" class="st0 st1 st2">A</text>
	</g>
</g>
<g id="ID000002-5-7">
	<text transform="matrix(1 0 0 1 536.9202 296.7319)" class="st8 st1 st2">A</text>
</g>
<text transform="matrix(1 0 0 1 420.3245 316.521)" class="st1 st6">40</text>
<line class="st3" x1="400" y1="124.4" x2="372.7" y2="124.3"/>
<g id="ID000010-4">
	<text transform="matrix(1 0 0 1 351.7093 295.5093)" class="st0 st1 st2">C</text>
</g>
<g id="ID000021-4">
	<line class="st3" x1="397.2" y1="289" x2="369.8" y2="288.8"/>
</g>
<g id="ID000011-2-3">
	<text transform="matrix(1 0 0 1 401.5598 296.731)" class="st0 st1 st2">G</text>
</g>
<line class="st3" x1="302.7" y1="345.3" x2="310.2" y2="332.1"/>
<g id="ID000003-2-7">
	<text transform="matrix(1 0 0 1 294.7171 321.644)" class="st10 st1 st2">C</text>
</g>
<g id="ID000002-5-8">
	<text transform="matrix(1 0 0 1 274.8968 352.7749)" class="st10 st1 st2">G</text>
</g>
<line class="st3" x1="287.1" y1="335" x2="294.7" y2="321.8"/>
<g id="ID000003-2-8">
	<text transform="matrix(1 0 0 1 280.3138 312.3892)" class="st10 st1 st2">U</text>
</g>
<g id="ID000002-5-9">
	<text transform="matrix(1 0 0 1 260.4993 343.5269)" class="st10 st1 st2">G</text>
</g>
<line class="st11" x1="273.6" y1="268.9" x2="278.4" y2="264.4"/>
<line class="st11" x1="427" y1="306.5" x2="427" y2="298.4"/>
<line class="st11" x1="418.4" y1="105" x2="425.9" y2="105"/>
<text transform="matrix(1 0 0 1 316.4512 40)" class="st1 st12">R9-43 aptamer</text>
</svg>
