<?xml version="1.0" encoding="utf-8"?>
<!-- Generator: Adobe Illustrator 25.2.0, SVG Export Plug-In . SVG Version: 6.00 Build 0)  -->
<svg version="1.1" id="_图层_1" xmlns="http://www.w3.org/2000/svg" xmlns:xlink="http://www.w3.org/1999/xlink" x="0px" y="0px"
	 viewBox="0 0 800 400" style="enable-background:new 0 0 800 400;" xml:space="preserve">
<style type="text/css">
	.st0{fill:#FF870A;}
	.st1{font-family:'ArialMT';}
	.st2{font-size:36.47px;}
	.st3{letter-spacing:-2;}
	.st4{fill:#B83233;}
	.st5{fill:none;stroke:#000000;stroke-miterlimit:1.11;}
	.st6{fill:none;stroke:#000000;stroke-width:1.67;stroke-miterlimit:1.11;}
	.st7{stroke:#000000;stroke-width:0.14;stroke-miterlimit:1.11;}
	.st8{fill:none;stroke:#000000;stroke-width:0.5;stroke-miterlimit:1.11;}
	.st9{fill:#228B22;}
	.st10{font-size:20px;}
</style>
<g id="ID000031">
	<text transform="matrix(1 0 0 1 484.93 252.61)" class="st0 st1 st2">G</text>
</g>
<g id="ID000032">
	<text transform="matrix(1 0 0 1 485.94 156.46)" class="st0 st1 st2">U</text>
</g>
<g id="ID000033">
	<text transform="matrix(1 0 0 1 462.37 179.05)" class="st0 st1 st2 st3">A</text>
</g>
<g id="ID000002">
	<text transform="matrix(1 0 0 1 66.71 253.48)" class="st4 st1 st2">C</text>
</g>
<g id="ID000003">
	<text transform="matrix(1 0 0 1 102.48 253.48)" class="st4 st1 st2">G</text>
</g>
<g id="ID000004">
	<text transform="matrix(1 0 0 1 139.26 253.48)" class="st4 st1 st2">G</text>
</g>
<g id="ID000005">
	<text transform="matrix(1 0 0 1 178.06 253.48)" class="st4 st1 st2 st3">A</text>
</g>
<g id="ID000006">
	<text transform="matrix(1 0 0 1 213.83 253.48)" class="st4 st1 st2">U</text>
</g>
<g id="ID000007">
	<text transform="matrix(1 0 0 1 249.6 253.48)" class="st4 st1 st2">G</text>
</g>
<g id="ID000010">
	<g>
		<text transform="matrix(1 0 0 1 250.61 179.92)" class="st4 st1 st2">C</text>
	</g>
</g>
<g id="ID000011">
	<g>
		<text transform="matrix(1 0 0 1 214.84 179.92)" class="st4 st1 st2">A</text>
	</g>
</g>
<g id="ID000012">
	<g>
		<text transform="matrix(1 0 0 1 177.05 179.92)" class="st4 st1 st2">U</text>
	</g>
</g>
<g id="ID000013">
	<g>
		<text transform="matrix(1 0 0 1 140.27 179.92)" class="st4 st1 st2">C</text>
	</g>
</g>
<g id="ID000014">
	<g>
		<text transform="matrix(1 0 0 1 103.49 179.92)" class="st4 st1 st2">C</text>
	</g>
</g>
<g id="ID000015">
	<g>
		<text transform="matrix(1 0 0 1 65.7 179.92)" class="st4 st1 st2">G</text>
	</g>
</g>
<g id="ID000016">
	<line class="st5" x1="79.9" y1="222.2" x2="79.9" y2="178.1"/>
</g>
<g id="ID000017">
	<line class="st5" x1="116.7" y1="222.2" x2="116.7" y2="178.1"/>
</g>
<g id="ID000018">
	<line class="st5" x1="153.4" y1="222.2" x2="153.4" y2="178.1"/>
</g>
<g id="ID000019">
	<line class="st5" x1="190.2" y1="222.2" x2="190.2" y2="178.1"/>
</g>
<g id="ID000020">
	<line class="st5" x1="227" y1="222.2" x2="227" y2="178.1"/>
</g>
<g id="ID000021">
	<line class="st5" x1="253.1" y1="222.2" x2="253.1" y2="178.1"/>
</g>
<g id="ID000022">
	<line class="st6" x1="357.9" y1="163.4" x2="289.7" y2="163.4"/>
</g>
<g id="ID000023">
	<polygon class="st7" points="337.2,174.4 331.1,168.9 325,167 318.8,166.1 306.6,163.4 318.8,160.6 325,159.7 331.1,157.8 
		337.2,152.3 	"/>
</g>
<g>
	<g>
		<g id="ID000008_8_">
			<text transform="matrix(1 0 0 1 272.57 287.19)" class="st4 st1 st2">G</text>
		</g>
		<g id="ID000009_8_">
			<text transform="matrix(1 0 0 1 308.31 317.84)" class="st4 st1 st2">A</text>
		</g>
		<g id="ID000025_8_">
			<text transform="matrix(1 0 0 1 335.89 290.26)" class="st4 st1 st2">A</text>
		</g>
	</g>
</g>
<g id="ID000026">
	<text transform="matrix(1 0 0 1 358.46 253.48)" class="st0 st1 st2">G</text>
</g>
<g id="ID000027">
	<line class="st8" x1="372.6" y1="261.5" x2="372.6" y2="286"/>
</g>
<g id="ID000028">
	<text transform="matrix(1 0 0 1 352.36 329.37)" class="st1 st2">10</text>
</g>
<g id="ID000029">
	<text transform="matrix(1 0 0 1 395.24 253.48)" class="st0 st1 st2">G</text>
</g>
<g id="ID000030">
	<text transform="matrix(1 0 0 1 433.03 253.48)" class="st0 st1 st2">C</text>
</g>
<g id="ID000034">
	<text transform="matrix(1 0 0 1 432.02 179.92)" class="st0 st1 st2">G</text>
</g>
<g id="ID000035">
	<line class="st8" x1="446.2" y1="138.8" x2="446.2" y2="114.3"/>
</g>
<g id="ID000036">
	<text transform="matrix(1 0 0 1 425.92 105.13)" class="st1 st2">30</text>
</g>
<g id="ID000037">
	<text transform="matrix(1 0 0 1 396.26 179.92)" class="st0 st1 st2">C</text>
</g>
<g id="ID000038">
	<text transform="matrix(1 0 0 1 359.47 179.92)" class="st0 st1 st2">C</text>
</g>
<g id="ID000039">
	<line class="st5" x1="372.6" y1="222.2" x2="372.6" y2="178.1"/>
</g>
<g id="ID000040">
	<line class="st5" x1="409.4" y1="222.2" x2="409.4" y2="178.1"/>
</g>
<g id="ID000041">
	<line class="st5" x1="446.2" y1="222.2" x2="446.2" y2="178.1"/>
</g>
<g id="ID000060">
	<text transform="matrix(1 0 0 1 512.54 179.05)" class="st0 st1 st2 st3">A</text>
</g>
<g id="ID000045">
	<text transform="matrix(1 0 0 1 540.31 252.61)" class="st9 st1 st2">U</text>
</g>
<g id="ID000046">
	<text transform="matrix(1 0 0 1 576.07 252.61)" class="st9 st1 st2">G</text>
</g>
<g id="ID000047">
	<text transform="matrix(1 0 0 1 612.86 252.61)" class="st9 st1 st2">G</text>
</g>
<g id="ID000048">
	<text transform="matrix(1 0 0 1 650.65 252.61)" class="st9 st1 st2">U</text>
</g>
<g id="ID000049">
	<text transform="matrix(1 0 0 1 687.43 271)" class="st9 st1 st2">U</text>
</g>
<g id="ID000050">
	<text transform="matrix(1 0 0 1 725.22 252.61)" class="st9 st1 st2 st3">A</text>
</g>
<g id="ID000051">
	<text transform="matrix(1 0 0 1 750.78 225.02)" class="st9 st1 st2">G</text>
</g>
<g id="ID000052">
	<line class="st8" x1="765" y1="233" x2="765" y2="257.5"/>
</g>
<g id="ID000053">
	<text transform="matrix(1 0 0 1 744.68 300.91)" class="st1 st2">20</text>
</g>
<g id="ID000054">
	<text transform="matrix(1 0 0 1 725.22 179.05)" class="st9 st1 st2 st3">A</text>
</g>
<g id="ID000055">
	<text transform="matrix(1 0 0 1 688.44 160.65)" class="st9 st1 st2 st3">A</text>
</g>
<g id="ID000056">
	<text transform="matrix(1 0 0 1 650.65 179.05)" class="st9 st1 st2">U</text>
</g>
<g id="ID000057">
	<text transform="matrix(1 0 0 1 613.87 179.05)" class="st9 st1 st2">C</text>
</g>
<g id="ID000058">
	<text transform="matrix(1 0 0 1 577.09 179.05)" class="st9 st1 st2">C</text>
</g>
<g id="ID000059">
	<text transform="matrix(1 0 0 1 541.32 179.05)" class="st9 st1 st2 st3">A</text>
</g>
<g id="ID000061">
	<line class="st5" x1="553.5" y1="221.3" x2="553.5" y2="177.2"/>
</g>
<g id="ID000062">
	<line class="st5" x1="590.3" y1="221.3" x2="590.3" y2="177.2"/>
</g>
<g id="ID000063">
	<line class="st5" x1="627" y1="221.3" x2="627" y2="177.2"/>
</g>
<text transform="matrix(1 0 0 1 339.36 37.93)" class="st1 st10">D-R16c aptamer</text>
<text transform="matrix(1 0 0 1 56.74 275.2)" class="st1 st10">5</text>
<text transform="matrix(1 0 0 1 67.86 275.2)" class="st1 st10">’</text>
<text transform="matrix(1 0 0 1 53 146.02)" class="st1 st10">3</text>
<text transform="matrix(1 0 0 1 64.12 146.02)" class="st1 st10">’</text>
</svg>
