<?xml version="1.0" encoding="UTF-8"?>
<svg id="_图层_1" data-name=" 图层 1" xmlns="http://www.w3.org/2000/svg" viewBox="0 0 800 400">
  <defs>
    <style>
      .cls-1, .cls-2, .cls-3, .cls-4, .cls-5, .cls-6, .cls-7, .cls-8, .cls-9, .cls-10, .cls-11, .cls-12, .cls-13 {
        isolation: isolate;
      }

      .cls-1, .cls-2, .cls-3, .cls-4, .cls-5, .cls-6, .cls-8, .cls-9, .cls-10, .cls-11, .cls-12, .cls-13 {
        font-family: ArialMT, Arial;
      }

      .cls-1, .cls-3, .cls-4, .cls-5, .cls-6, .cls-8, .cls-9, .cls-10, .cls-12, .cls-13 {
        font-size: 17.75px;
      }

      .cls-1, .cls-5 {
        fill: #cf3e7d;
      }

      .cls-14 {
        stroke-width: .14px;
      }

      .cls-14, .cls-15, .cls-16, .cls-17, .cls-18 {
        stroke: #000;
        stroke-miterlimit: 1.11;
      }

      .cls-2, .cls-11 {
        font-size: 20px;
      }

      .cls-3, .cls-4, .cls-5, .cls-12, .cls-13 {
        letter-spacing: -.06em;
      }

      .cls-3, .cls-9, .cls-18 {
        fill: #18988c;
      }

      .cls-15, .cls-17 {
        fill: none;
      }

      .cls-4, .cls-8 {
        fill: #b83233;
      }

      .cls-6, .cls-12 {
        fill: #084595;
      }

      .cls-11 {
        letter-spacing: -.04em;
      }

      .cls-17 {
        stroke-width: .89px;
      }
    </style>
  </defs>
  <g id="ID000106">
    <g class="cls-7">
      <g class="cls-7">
        <g class="cls-7">
          <text class="cls-9" transform="translate(586.81 148.38) rotate(-.31)"><tspan x="0" y="0">U</tspan></text>
        </g>
      </g>
    </g>
  </g>
  <g id="ID000107">
    <g class="cls-7">
      <g class="cls-7">
        <g class="cls-7">
          <text class="cls-9" transform="translate(599.95 138.7) rotate(-.31)"><tspan x="0" y="0">U</tspan></text>
        </g>
      </g>
    </g>
  </g>
  <g id="ID000090">
    <g class="cls-7">
      <g class="cls-7">
        <g class="cls-7">
          <text class="cls-1" transform="translate(481.06 148.47) rotate(-.31)"><tspan x="0" y="0">G</tspan></text>
        </g>
      </g>
    </g>
  </g>
  <g id="ID000078">
    <g class="cls-7">
      <g class="cls-7">
        <g class="cls-7">
          <text class="cls-13" transform="translate(447.79 213.84) rotate(-.31)"><tspan x="0" y="0">A</tspan></text>
        </g>
      </g>
    </g>
  </g>
  <g id="ID000045">
    <g class="cls-7">
      <g class="cls-7">
        <g class="cls-7">
          <text class="cls-4" transform="translate(195.89 255.18) rotate(-.31)"><tspan x="0" y="0">A</tspan></text>
        </g>
      </g>
    </g>
  </g>
  <g id="ID000009">
    <g class="cls-7">
      <g class="cls-7">
        <g class="cls-7">
          <text class="cls-8" transform="translate(176.74 254.78) rotate(-.31)"><tspan x="0" y="0">U</tspan></text>
        </g>
      </g>
    </g>
  </g>
  <g id="ID000010">
    <g class="cls-7">
      <g class="cls-7">
        <g class="cls-7">
          <text class="cls-8" transform="translate(165.19 241.74) rotate(-.31)"><tspan x="0" y="0">C</tspan></text>
        </g>
      </g>
    </g>
  </g>
  <g id="ID000011">
    <g class="cls-7">
      <g class="cls-7">
        <g class="cls-7">
          <text class="cls-8" transform="translate(157.66 227.58) rotate(-.31)"><tspan x="0" y="0">U</tspan></text>
        </g>
      </g>
    </g>
  </g>
  <g id="ID000012">
    <g class="cls-7">
      <g class="cls-7">
        <g class="cls-7">
          <text class="cls-4" transform="translate(155.15 212.88) rotate(-.31)"><tspan x="0" y="0">A</tspan></text>
        </g>
      </g>
    </g>
  </g>
  <g id="ID000026">
    <line class="cls-17" x1="172.17" y1="160.08" x2="215.1" y2="159.85"/>
  </g>
  <g id="ID000027">
    <polygon class="cls-14" points="190.16 155.67 192.58 157.89 195 158.62 197.4 158.99 202.23 160.09 197.42 161.24 195.02 161.61 192.6 162.37 190.21 164.63 190.16 155.67"/>
  </g>
  <g id="ID000002">
    <g class="cls-7">
      <g class="cls-7">
        <g class="cls-7">
          <text class="cls-8" transform="translate(85.52 135.04) rotate(-.31)"><tspan x="0" y="0">G</tspan></text>
        </g>
      </g>
    </g>
  </g>
  <g id="ID000003">
    <g class="cls-7">
      <g class="cls-7">
        <g class="cls-7">
          <text class="cls-8" transform="translate(85.6 149.97) rotate(-.31)"><tspan x="0" y="0">G</tspan></text>
        </g>
      </g>
    </g>
  </g>
  <g id="ID000004">
    <g class="cls-7">
      <g class="cls-7">
        <g class="cls-7">
          <text class="cls-8" transform="translate(85.68 164.92) rotate(-.31)"><tspan x="0" y="0">G</tspan></text>
        </g>
      </g>
    </g>
  </g>
  <g id="ID000005">
    <g class="cls-7">
      <g class="cls-7">
        <g class="cls-7">
          <text class="cls-4" transform="translate(104.08 164.83) rotate(-.31)"><tspan x="0" y="0">A</tspan></text>
        </g>
      </g>
    </g>
  </g>
  <g id="ID000006">
    <g class="cls-7">
      <g class="cls-7">
        <g class="cls-7">
          <text class="cls-8" transform="translate(120.95 164.73) rotate(-.31)"><tspan x="0" y="0">G</tspan></text>
        </g>
      </g>
    </g>
  </g>
  <g id="ID000007">
    <g class="cls-7">
      <g class="cls-7">
        <g class="cls-7">
          <text class="cls-8" transform="translate(139.29 164.63) rotate(-.31)"><tspan x="0" y="0">U</tspan></text>
        </g>
      </g>
    </g>
  </g>
  <g id="ID000008">
    <g class="cls-7">
      <g class="cls-7">
        <g class="cls-7">
          <text class="cls-8" transform="translate(157.13 164.53) rotate(-.31)"><tspan x="0" y="0">C</tspan></text>
        </g>
      </g>
    </g>
  </g>
  <g id="ID000013">
    <g class="cls-7">
      <g class="cls-7">
        <g class="cls-7">
          <text class="cls-8" transform="translate(156.83 200.23) rotate(-.31)"><tspan x="0" y="0">G</tspan></text>
        </g>
      </g>
    </g>
  </g>
  <g id="ID000014">
    <g class="cls-7">
      <g class="cls-7">
        <g class="cls-7">
          <text class="cls-4" transform="translate(139.96 200.31) rotate(-.31)"><tspan x="0" y="0">A</tspan></text>
        </g>
      </g>
    </g>
  </g>
  <g id="ID000015">
    <g class="cls-7">
      <g class="cls-7">
        <g class="cls-7">
          <text class="cls-8" transform="translate(121.63 200.42) rotate(-.31)"><tspan x="0" y="0">C</tspan></text>
        </g>
      </g>
    </g>
  </g>
  <g id="ID000016">
    <line class="cls-15" x1="131.37" y1="207.52" x2="131.44" y2="219.42"/>
  </g>
  <g id="ID000017">
    <g class="cls-7">
      <g class="cls-7">
        <g class="cls-7">
          <text class="cls-10" transform="translate(118.35 234.09) rotate(-.31)"><tspan x="0" y="0">80</tspan></text>
        </g>
      </g>
    </g>
  </g>
  <g id="ID000018">
    <g class="cls-7">
      <g class="cls-7">
        <g class="cls-7">
          <text class="cls-8" transform="translate(103.79 200.51) rotate(-.31)"><tspan x="0" y="0">U</tspan></text>
        </g>
      </g>
    </g>
  </g>
  <g id="ID000019">
    <g class="cls-7">
      <g class="cls-7">
        <g class="cls-7">
          <text class="cls-8" transform="translate(86.36 200.6) rotate(-.31)"><tspan x="0" y="0">C</tspan></text>
        </g>
      </g>
    </g>
  </g>
  <g id="ID000020">
    <g class="cls-7">
      <g class="cls-7">
        <g class="cls-7">
          <text class="cls-4" transform="translate(86.93 215.25) rotate(-.31)"><tspan x="0" y="0">A</tspan></text>
        </g>
      </g>
    </g>
  </g>
  <g id="ID000021">
    <g class="cls-7">
      <g class="cls-7">
        <g class="cls-7">
          <text class="cls-8" transform="translate(86.48 231.82) rotate(-.31)"><tspan x="0" y="0">U</tspan></text>
        </g>
      </g>
    </g>
  </g>
  <g id="ID000022">
    <line class="cls-15" x1="91.47" y1="167.26" x2="91.58" y2="188.67"/>
  </g>
  <g id="ID000023">
    <line class="cls-15" x1="109.31" y1="167.16" x2="109.43" y2="188.57"/>
  </g>
  <g id="ID000024">
    <line class="cls-15" x1="127.16" y1="167.07" x2="127.27" y2="188.48"/>
  </g>
  <g id="ID000025">
    <line class="cls-15" x1="145" y1="166.97" x2="145.12" y2="188.38"/>
  </g>
  <g id="ID000028">
    <line class="cls-15" x1="162.85" y1="166.88" x2="162.96" y2="188.29"/>
  </g>
  <g id="ID000030">
    <g class="cls-7">
      <g class="cls-7">
        <g class="cls-7">
          <text class="cls-6" transform="translate(214.1 165.65) rotate(-.31)"><tspan x="0" y="0">G</tspan></text>
        </g>
      </g>
    </g>
  </g>
  <g id="ID000031">
    <g class="cls-7">
      <g class="cls-7">
        <g class="cls-7">
          <text class="cls-12" transform="translate(232.93 165.57) rotate(-.31)"><tspan x="0" y="0">A</tspan></text>
        </g>
      </g>
    </g>
  </g>
  <g id="ID000032">
    <g class="cls-7">
      <g class="cls-7">
        <g class="cls-7">
          <text class="cls-6" transform="translate(250.27 165.46) rotate(-.31)"><tspan x="0" y="0">C</tspan></text>
        </g>
      </g>
    </g>
  </g>
  <g id="ID000033">
    <line class="cls-15" x1="257.57" y1="149.35" x2="257.57" y2="137.46"/>
  </g>
  <g id="ID000034">
    <g class="cls-7">
      <g class="cls-7">
        <g class="cls-7">
          <text class="cls-10" transform="translate(246.63 131.83) rotate(-.31)"><tspan x="0" y="0">10</tspan></text>
        </g>
      </g>
    </g>
  </g>
  <g id="ID000035">
    <g class="cls-7">
      <g class="cls-7">
        <g class="cls-7">
          <text class="cls-6" transform="translate(268.13 165.36) rotate(-.31)"><tspan x="0" y="0">C</tspan></text>
        </g>
      </g>
    </g>
  </g>
  <g id="ID000036">
    <g class="cls-7">
      <g class="cls-7">
        <g class="cls-7">
          <text class="cls-6" transform="translate(268.32 201.06) rotate(-.31)"><tspan x="0" y="0">C</tspan></text>
        </g>
      </g>
    </g>
  </g>
  <g id="ID000037">
    <g class="cls-7">
      <g class="cls-7">
        <g class="cls-7">
          <text class="cls-6" transform="translate(249.97 201.15) rotate(-.31)"><tspan x="0" y="0">G</tspan></text>
        </g>
      </g>
    </g>
  </g>
  <g id="ID000038">
    <g class="cls-7">
      <g class="cls-7">
        <g class="cls-7">
          <text class="cls-6" transform="translate(232.63 201.25) rotate(-.31)"><tspan x="0" y="0">U</tspan></text>
        </g>
      </g>
    </g>
  </g>
  <g id="ID000039">
    <g class="cls-7">
      <g class="cls-7">
        <g class="cls-7">
          <text class="cls-6" transform="translate(214.79 201.34) rotate(-.31)"><tspan x="0" y="0">C</tspan></text>
        </g>
      </g>
    </g>
  </g>
  <g id="ID000040">
    <g class="cls-7">
      <g class="cls-7">
        <g class="cls-7">
          <text class="cls-8" transform="translate(219.53 217.24) rotate(-.31)"><tspan x="0" y="0">U</tspan></text>
        </g>
      </g>
    </g>
  </g>
  <g id="ID000041">
    <line class="cls-15" x1="232.99" y1="216.45" x2="241.45" y2="224.81"/>
  </g>
  <g id="ID000042">
    <g class="cls-7">
      <g class="cls-7">
        <g class="cls-7">
          <text class="cls-10" transform="translate(242.62 241.09) rotate(-.31)"><tspan x="0" y="0">70</tspan></text>
        </g>
      </g>
    </g>
  </g>
  <g id="ID000043">
    <g class="cls-7">
      <g class="cls-7">
        <g class="cls-7">
          <text class="cls-4" transform="translate(218.03 233) rotate(-.31)"><tspan x="0" y="0">A</tspan></text>
        </g>
      </g>
    </g>
  </g>
  <g id="ID000044">
    <g class="cls-7">
      <g class="cls-7">
        <g class="cls-7">
          <text class="cls-8" transform="translate(211.51 247.71) rotate(-.31)"><tspan x="0" y="0">C</tspan></text>
        </g>
      </g>
    </g>
  </g>
  <g id="ID000046">
    <line class="cls-15" x1="220.31" y1="167.02" x2="220.43" y2="188.43"/>
  </g>
  <g id="ID000047">
    <line class="cls-15" x1="238.16" y1="166.92" x2="238.27" y2="188.33"/>
  </g>
  <g id="ID000048">
    <line class="cls-15" x1="256" y1="166.82" x2="256.12" y2="188.23"/>
  </g>
  <g id="ID000050">
    <g class="cls-7">
      <g class="cls-7">
        <g class="cls-7">
          <text class="cls-6" transform="translate(282.51 165.27) rotate(-.31)"><tspan x="0" y="0">G</tspan></text>
        </g>
      </g>
    </g>
  </g>
  <g id="ID000051">
    <g class="cls-7">
      <g class="cls-7">
        <g class="cls-7">
          <text class="cls-12" transform="translate(298.78 165.21) rotate(-.31)"><tspan x="0" y="0">A</tspan></text>
        </g>
      </g>
    </g>
  </g>
  <g id="ID000052">
    <g class="cls-7">
      <g class="cls-7">
        <g class="cls-7">
          <text class="cls-6" transform="translate(316.14 165.11) rotate(-.31)"><tspan x="0" y="0">C</tspan></text>
        </g>
      </g>
    </g>
  </g>
  <g id="ID000053">
    <g class="cls-7">
      <g class="cls-7">
        <g class="cls-7">
          <text class="cls-6" transform="translate(332.51 164.28) rotate(-.31)"><tspan x="0" y="0">C</tspan></text>
        </g>
      </g>
    </g>
  </g>
  <g id="ID000054">
    <g class="cls-7">
      <g class="cls-7">
        <g class="cls-7">
          <text class="cls-6" transform="translate(322.88 217.33) rotate(-.31)"><tspan x="0" y="0">U</tspan></text>
        </g>
      </g>
    </g>
  </g>
  <g id="ID000055">
    <g class="cls-7">
      <g class="cls-7">
        <g class="cls-7">
          <text class="cls-6" transform="translate(315.84 200.8) rotate(-.31)"><tspan x="0" y="0">G</tspan></text>
        </g>
      </g>
    </g>
  </g>
  <g id="ID000056">
    <g class="cls-7">
      <g class="cls-7">
        <g class="cls-7">
          <text class="cls-6" transform="translate(298.49 200.89) rotate(-.31)"><tspan x="0" y="0">U</tspan></text>
        </g>
      </g>
    </g>
  </g>
  <g id="ID000057">
    <g class="cls-7">
      <g class="cls-7">
        <g class="cls-7">
          <text class="cls-6" transform="translate(282.17 200.98) rotate(-.31)"><tspan x="0" y="0">G</tspan></text>
        </g>
      </g>
    </g>
  </g>
  <g id="ID000058">
    <line class="cls-15" x1="304.01" y1="166.57" x2="304.12" y2="187.97"/>
  </g>
  <g id="ID000059">
    <line class="cls-15" x1="321.85" y1="166.47" x2="321.97" y2="187.88"/>
  </g>
  <g id="ID000061">
    <g class="cls-7">
      <g class="cls-7">
        <g class="cls-7">
          <text class="cls-5" transform="translate(349.26 164.94) rotate(-.31)"><tspan x="0" y="0">A</tspan></text>
        </g>
      </g>
    </g>
  </g>
  <g id="ID000062">
    <g class="cls-7">
      <g class="cls-7">
        <g class="cls-7">
          <text class="cls-1" transform="translate(366.13 164.84) rotate(-.31)"><tspan x="0" y="0">G</tspan></text>
        </g>
      </g>
    </g>
  </g>
  <g id="ID000063">
    <g class="cls-7">
      <g class="cls-7">
        <g class="cls-7">
          <text class="cls-10" transform="translate(375.4 215.46) rotate(-.31)"><tspan x="0" y="0">G</tspan></text>
        </g>
      </g>
    </g>
  </g>
  <g id="ID000064">
    <g class="cls-7">
      <g class="cls-7">
        <g class="cls-7">
          <text class="cls-1" transform="translate(366.81 200.52) rotate(-.31)"><tspan x="0" y="0">C</tspan></text>
        </g>
      </g>
    </g>
  </g>
  <g id="ID000065">
    <g class="cls-7">
      <g class="cls-7">
        <g class="cls-7">
          <text class="cls-1" transform="translate(348.97 200.62) rotate(-.31)"><tspan x="0" y="0">U</tspan></text>
        </g>
      </g>
    </g>
  </g>
  <g id="ID000066">
    <line class="cls-15" x1="355.71" y1="204.73" x2="355.77" y2="216.63"/>
  </g>
  <g id="ID000067">
    <g class="cls-7">
      <g class="cls-7">
        <g class="cls-7">
          <text class="cls-10" transform="translate(345.69 234.3) rotate(-.31)"><tspan x="0" y="0">60</tspan></text>
        </g>
      </g>
    </g>
  </g>
  <g id="ID000068">
    <g class="cls-7">
      <g class="cls-7">
        <g class="cls-7">
          <text class="cls-12" transform="translate(339.9 217.36) rotate(-.31)"><tspan x="0" y="0">A</tspan></text>
        </g>
      </g>
    </g>
  </g>
  <g id="ID000069">
    <line class="cls-15" x1="354.49" y1="166.29" x2="354.61" y2="187.7"/>
  </g>
  <g id="ID000070">
    <line class="cls-15" x1="372.34" y1="166.2" x2="372.45" y2="187.61"/>
  </g>
  <g id="ID000072">
    <g class="cls-7">
      <g class="cls-7">
        <g class="cls-7">
          <text class="cls-5" transform="translate(385.43 164.75) rotate(-.31)"><tspan x="0" y="0">A</tspan></text>
        </g>
      </g>
    </g>
  </g>
  <g id="ID000073">
    <g class="cls-7">
      <g class="cls-7">
        <g class="cls-7">
          <text class="cls-5" transform="translate(403.27 164.65) rotate(-.31)"><tspan x="0" y="0">A</tspan></text>
        </g>
      </g>
    </g>
  </g>
  <g id="ID000074">
    <g class="cls-7">
      <g class="cls-7">
        <g class="cls-7">
          <text class="cls-1" transform="translate(420.14 164.55) rotate(-.31)"><tspan x="0" y="0">G</tspan></text>
        </g>
      </g>
    </g>
  </g>
  <g id="ID000075">
    <line class="cls-15" x1="430.21" y1="147.86" x2="430.21" y2="135.97"/>
  </g>
  <g id="ID000076">
    <g class="cls-7">
      <g class="cls-7">
        <g class="cls-7">
          <text class="cls-10" transform="translate(422.07 130.88) rotate(-.31)"><tspan x="0" y="0">20</tspan></text>
        </g>
      </g>
    </g>
  </g>
  <g id="ID000077">
    <g class="cls-7">
      <g class="cls-7">
        <g class="cls-7">
          <text class="cls-1" transform="translate(438.47 164.45) rotate(-.31)"><tspan x="0" y="0">U</tspan></text>
        </g>
      </g>
    </g>
  </g>
  <g id="ID000079">
    <g class="cls-7">
      <g class="cls-7">
        <g class="cls-7">
          <text class="cls-5" transform="translate(439.15 200.14) rotate(-.31)"><tspan x="0" y="0">A</tspan></text>
        </g>
      </g>
    </g>
  </g>
  <g id="ID000080">
    <g class="cls-7">
      <g class="cls-7">
        <g class="cls-7">
          <text class="cls-1" transform="translate(420.82 200.23) rotate(-.31)"><tspan x="0" y="0">C</tspan></text>
        </g>
      </g>
    </g>
  </g>
  <g id="ID000081">
    <g class="cls-7">
      <g class="cls-7">
        <g class="cls-7">
          <text class="cls-1" transform="translate(402.98 200.33) rotate(-.31)"><tspan x="0" y="0">U</tspan></text>
        </g>
      </g>
    </g>
  </g>
  <g id="ID000082">
    <g class="cls-7">
      <g class="cls-7">
        <g class="cls-7">
          <text class="cls-1" transform="translate(385.13 200.43) rotate(-.31)"><tspan x="0" y="0">U</tspan></text>
        </g>
      </g>
    </g>
  </g>
  <g id="ID000083">
    <line class="cls-15" x1="390.66" y1="166.1" x2="390.77" y2="187.51"/>
  </g>
  <g id="ID000084">
    <line class="cls-15" x1="408.5" y1="166" x2="408.62" y2="187.41"/>
  </g>
  <g id="ID000085">
    <line class="cls-15" x1="426.35" y1="165.91" x2="426.46" y2="187.32"/>
  </g>
  <g id="ID000086">
    <line class="cls-15" x1="439.38" y1="165.19" x2="439.5" y2="186.6"/>
  </g>
  <g id="ID000088">
    <g class="cls-7">
      <g class="cls-7">
        <g class="cls-7">
          <text class="cls-1" transform="translate(455.95 163.73) rotate(-.31)"><tspan x="0" y="0">C</tspan></text>
        </g>
      </g>
    </g>
  </g>
  <g id="ID000089">
    <g class="cls-7">
      <g class="cls-7">
        <g class="cls-7">
          <text class="cls-1" transform="translate(473.8 163.63) rotate(-.31)"><tspan x="0" y="0">C</tspan></text>
        </g>
      </g>
    </g>
  </g>
  <g id="ID000091">
    <g class="cls-7">
      <g class="cls-7">
        <g class="cls-7">
          <text class="cls-1" transform="translate(473.5 199.32) rotate(-.31)"><tspan x="0" y="0">G</tspan></text>
        </g>
      </g>
    </g>
  </g>
  <g id="ID000092">
    <g class="cls-7">
      <g class="cls-7">
        <g class="cls-7">
          <text class="cls-1" transform="translate(455.65 199.42) rotate(-.31)"><tspan x="0" y="0">G</tspan></text>
        </g>
      </g>
    </g>
  </g>
  <g id="ID000093">
    <line class="cls-15" x1="461.69" y1="165.07" x2="461.8" y2="186.48"/>
  </g>
  <g id="ID000094">
    <line class="cls-15" x1="471.54" y1="165.02" x2="471.66" y2="186.43"/>
  </g>
  <g>
    <g id="ID000095">
      <line class="cls-17" x1="506.96" y1="194.14" x2="488.64" y2="194.24"/>
    </g>
    <g id="ID000096">
      <polygon class="cls-14" points="501.05 197.37 499.31 195.8 497.55 195.3 495.8 195.04 492.3 194.28 495.79 193.46 497.54 193.2 499.29 192.66 501.02 191.06 501.05 197.37"/>
    </g>
  </g>
  <g id="ID000098">
    <g class="cls-7">
      <g class="cls-7">
        <g class="cls-7">
          <text class="cls-5" transform="translate(498.38 149.42) rotate(-.31)"><tspan x="0" y="0">A</tspan></text>
        </g>
      </g>
    </g>
  </g>
  <g id="ID000099">
    <g class="cls-7">
      <g class="cls-7">
        <g class="cls-7">
          <text class="cls-9" transform="translate(505.49 163.46) rotate(-.31)"><tspan x="0" y="0">G</tspan></text>
        </g>
      </g>
    </g>
  </g>
  <g id="ID000100">
    <g class="cls-7">
      <g class="cls-7">
        <g class="cls-7">
          <text class="cls-9" transform="translate(523.82 163.36) rotate(-.31)"><tspan x="0" y="0">U</tspan></text>
        </g>
      </g>
    </g>
  </g>
  <g id="ID000101">
    <g class="cls-7">
      <g class="cls-7">
        <g class="cls-7">
          <text class="cls-3" transform="translate(542.15 163.25) rotate(-.31)"><tspan x="0" y="0">A</tspan></text>
        </g>
      </g>
    </g>
  </g>
  <g id="ID000102">
    <g class="cls-7">
      <g class="cls-7">
        <g class="cls-7">
          <text class="cls-3" transform="translate(560 163.16) rotate(-.31)"><tspan x="0" y="0">A</tspan></text>
        </g>
      </g>
    </g>
  </g>
  <g id="ID000103">
    <g class="cls-7">
      <g class="cls-7">
        <g class="cls-7">
          <text class="cls-9" transform="translate(577.34 163.07) rotate(-.31)"><tspan x="0" y="0">U</tspan></text>
        </g>
      </g>
    </g>
  </g>
  <g id="ID000104">
    <line class="cls-18" x1="583.51" y1="147.83" x2="583.45" y2="135.93"/>
  </g>
  <g id="ID000105">
    <g class="cls-7">
      <g class="cls-7">
        <g class="cls-7">
          <text class="cls-10" transform="translate(573.69 129.44) rotate(-.31)"><tspan x="0" y="0">30</tspan></text>
        </g>
      </g>
    </g>
  </g>
  <g id="ID000108">
    <g class="cls-7">
      <g class="cls-7">
        <g class="cls-7">
          <text class="cls-9" transform="translate(577.04 198.76) rotate(-.31)"><tspan x="0" y="0">G</tspan></text>
        </g>
      </g>
    </g>
  </g>
  <g id="ID000109">
    <g class="cls-7">
      <g class="cls-7">
        <g class="cls-7">
          <text class="cls-9" transform="translate(559.7 198.86) rotate(-.31)"><tspan x="0" y="0">U</tspan></text>
        </g>
      </g>
    </g>
  </g>
  <g id="ID000110">
    <g class="cls-7">
      <g class="cls-7">
        <g class="cls-7">
          <text class="cls-9" transform="translate(541.86 198.96) rotate(-.31)"><tspan x="0" y="0">U</tspan></text>
        </g>
      </g>
    </g>
  </g>
  <g id="ID000111">
    <g class="cls-7">
      <g class="cls-7">
        <g class="cls-7">
          <text class="cls-9" transform="translate(523.52 199.05) rotate(-.31)"><tspan x="0" y="0">G</tspan></text>
        </g>
      </g>
    </g>
  </g>
  <g id="ID000112">
    <g class="cls-7">
      <g class="cls-7">
        <g class="cls-7">
          <text class="cls-9" transform="translate(506.17 199.15) rotate(-.31)"><tspan x="0" y="0">C</tspan></text>
        </g>
      </g>
    </g>
  </g>
  <g id="ID000113">
    <line class="cls-15" x1="513.61" y1="202.22" x2="513.67" y2="214.12"/>
  </g>
  <g id="ID000114">
    <g class="cls-7">
      <g class="cls-7">
        <g class="cls-7">
          <text class="cls-10" transform="translate(505.19 232.43) rotate(-.31)"><tspan x="0" y="0">50</tspan></text>
        </g>
      </g>
    </g>
  </g>
  <g id="ID000115">
    <line class="cls-15" x1="511.7" y1="164.8" x2="511.81" y2="186.21"/>
  </g>
  <g id="ID000116">
    <polygon class="cls-16" points="529.62 178.98 529.85 178.98 530.07 178.94 530.28 178.92 530.51 178.86 530.72 178.81 530.93 178.73 531.14 178.63 531.35 178.52 531.54 178.4 531.73 178.27 531.9 178.13 532.07 177.98 532.22 177.82 532.37 177.65 532.51 177.46 532.64 177.27 532.75 177.08 532.85 176.87 532.94 176.68 533.02 176.45 533.07 176.24 533.11 176.01 533.15 175.78 533.16 175.57 533.16 175.34 533.14 175.11 533.12 174.88 533.08 174.66 533.02 174.45 532.97 174.22 532.87 174.01 532.79 173.82 532.68 173.61 532.56 173.42 532.43 173.23 532.27 173.06 532.12 172.89 531.97 172.74 531.79 172.6 531.6 172.47 531.41 172.34 531.22 172.23 531.01 172.13 530.8 172.06 530.59 171.98 530.36 171.92 530.13 171.89 529.92 171.85 529.69 171.85 529.46 171.85 529.23 171.85 529.01 171.89 528.8 171.93 528.57 171.99 528.36 172.07 528.15 172.15 527.94 172.24 527.75 172.36 527.56 172.49 527.37 172.63 527.2 172.76 527.03 172.92 526.88 173.09 526.74 173.26 526.61 173.45 526.5 173.64 526.39 173.85 526.29 174.04 526.22 174.25 526.14 174.48 526.1 174.69 526.07 174.92 526.03 175.15 526.03 175.38 526.03 175.61 526.05 175.82 526.07 176.05 526.13 176.28 526.19 176.48 526.27 176.71 526.36 176.9 526.46 177.11 526.58 177.3 526.69 177.49 526.84 177.68 526.98 177.85 527.15 178 527.31 178.16 527.5 178.29 527.69 178.42 527.88 178.53 528.07 178.65 528.28 178.74 528.49 178.82 528.72 178.87 528.93 178.93 529.16 178.95 529.39 178.98 529.62 178.98"/>
  </g>
  <g id="ID000117">
    <line class="cls-15" x1="547.38" y1="164.61" x2="547.5" y2="186.02"/>
  </g>
  <g id="ID000118">
    <line class="cls-15" x1="565.23" y1="164.51" x2="565.34" y2="185.92"/>
  </g>
  <g id="ID000119">
    <polygon class="cls-16" points="583.15 178.69 583.38 178.69 583.59 178.65 583.82 178.63 584.05 178.58 584.25 178.52 584.46 178.44 584.67 178.34 584.88 178.23 585.07 178.11 585.26 177.98 585.43 177.84 585.6 177.69 585.76 177.54 585.91 177.36 586.04 177.17 586.17 176.98 586.29 176.79 586.38 176.58 586.47 176.39 586.53 176.16 586.6 175.95 586.64 175.72 586.68 175.49 586.7 175.28 586.7 175.05 586.68 174.82 586.65 174.6 586.62 174.37 586.56 174.16 586.5 173.93 586.4 173.72 586.31 173.53 586.21 173.32 586.09 173.13 585.96 172.94 585.81 172.77 585.65 172.6 585.5 172.45 585.31 172.32 585.14 172.18 584.94 172.05 584.73 171.94 584.54 171.84 584.33 171.77 584.1 171.69 583.89 171.64 583.66 171.6 583.44 171.56 583.23 171.56 583 171.57 582.77 171.57 582.54 171.61 582.31 171.65 582.1 171.7 581.89 171.78 581.68 171.86 581.47 171.95 581.28 172.07 581.09 172.2 580.9 172.34 580.73 172.47 580.56 172.63 580.41 172.8 580.28 172.97 580.15 173.16 580.03 173.35 579.92 173.56 579.82 173.76 579.75 173.97 579.67 174.2 579.62 174.41 579.58 174.63 579.56 174.86 579.57 175.09 579.57 175.32 579.59 175.53 579.61 175.76 579.67 175.99 579.72 176.2 579.8 176.43 579.88 176.62 579.99 176.82 580.11 177.01 580.22 177.2 580.36 177.39 580.51 177.57 580.69 177.72 580.84 177.87 581.03 178 581.22 178.13 581.41 178.25 581.6 178.36 581.81 178.45 582.02 178.53 582.25 178.59 582.46 178.64 582.69 178.66 582.92 178.7 583.15 178.69"/>
  </g>
  <g id="ID000120">
    <line class="cls-17" x1="627.26" y1="192.42" x2="592.08" y2="192.61"/>
  </g>
  <g id="ID000121">
    <polygon class="cls-14" points="617.21 196.86 614.76 194.68 612.34 193.97 609.89 193.62 605.03 192.56 609.88 191.43 612.32 191.06 614.74 190.32 617.17 188.11 617.21 196.86"/>
  </g>
  <g id="ID000123">
    <g class="cls-7">
      <g class="cls-7">
        <g class="cls-7">
          <text class="cls-3" transform="translate(617.02 147.92) rotate(-.31)"><tspan x="0" y="0">A</tspan></text>
        </g>
      </g>
    </g>
  </g>
  <g id="ID000124">
    <g class="cls-7">
      <g class="cls-7">
        <g class="cls-7">
          <text class="cls-9" transform="translate(625.83 161.08) rotate(-.31)"><tspan x="0" y="0">C</tspan></text>
        </g>
      </g>
    </g>
  </g>
  <g id="ID000125">
    <g class="cls-7">
      <g class="cls-7">
        <g class="cls-7">
          <text class="cls-9" transform="translate(643.18 160.98) rotate(-.31)"><tspan x="0" y="0">G</tspan></text>
        </g>
      </g>
    </g>
  </g>
  <g id="ID000126">
    <g class="cls-7">
      <g class="cls-7">
        <g class="cls-7">
          <text class="cls-9" transform="translate(661.52 160.88) rotate(-.31)"><tspan x="0" y="0">U</tspan></text>
        </g>
      </g>
    </g>
  </g>
  <g id="ID000127">
    <g class="cls-7">
      <g class="cls-7">
        <g class="cls-7">
          <text class="cls-9" transform="translate(679.32 151.87) rotate(-.31)"><tspan x="0" y="0">U</tspan></text>
        </g>
      </g>
    </g>
  </g>
  <g id="ID000128">
    <g class="cls-7">
      <g class="cls-7">
        <g class="cls-7">
          <text class="cls-9" transform="translate(699.11 149.66) rotate(-.31)"><tspan x="0" y="0">U</tspan></text>
        </g>
      </g>
    </g>
  </g>
  <g id="ID000129">
    <g class="cls-7">
      <g class="cls-7">
        <g class="cls-7">
          <text class="cls-9" transform="translate(715.1 169.52) rotate(-.31)"><tspan x="0" y="0">U</tspan></text>
        </g>
      </g>
    </g>
  </g>
  <g id="ID000130">
    <g class="cls-7">
      <g class="cls-7">
        <g class="cls-7">
          <text class="cls-9" transform="translate(714.01 190.3) rotate(-.31)"><tspan x="0" y="0">G</tspan></text>
        </g>
      </g>
    </g>
  </g>
  <g id="ID000131">
    <line class="cls-15" x1="722.66" y1="196.63" x2="722.72" y2="208.53"/>
  </g>
  <g id="ID000132">
    <g class="cls-7">
      <g class="cls-7">
        <g class="cls-7">
          <text class="cls-10" transform="translate(715.55 225.48) rotate(-.31)"><tspan x="0" y="0">40</tspan></text>
        </g>
      </g>
    </g>
  </g>
  <g id="ID000133">
    <g class="cls-7">
      <g class="cls-7">
        <g class="cls-7">
          <text class="cls-3" transform="translate(701.46 205.65) rotate(-.31)"><tspan x="0" y="0">A</tspan></text>
        </g>
      </g>
    </g>
  </g>
  <g id="ID000134">
    <g class="cls-7">
      <g class="cls-7">
        <g class="cls-7">
          <text class="cls-9" transform="translate(679.6 205.4) rotate(-.31)"><tspan x="0" y="0">U</tspan></text>
        </g>
      </g>
    </g>
  </g>
  <g id="ID000135">
    <g class="cls-7">
      <g class="cls-7">
        <g class="cls-7">
          <text class="cls-3" transform="translate(662.2 196.58) rotate(-.31)"><tspan x="0" y="0">A</tspan></text>
        </g>
      </g>
    </g>
  </g>
  <g id="ID000136">
    <g class="cls-7">
      <g class="cls-7">
        <g class="cls-7">
          <text class="cls-9" transform="translate(643.86 196.67) rotate(-.31)"><tspan x="0" y="0">C</tspan></text>
        </g>
      </g>
    </g>
  </g>
  <g id="ID000137">
    <g class="cls-7">
      <g class="cls-7">
        <g class="cls-7">
          <text class="cls-9" transform="translate(625.53 196.77) rotate(-.31)"><tspan x="0" y="0">G</tspan></text>
        </g>
      </g>
    </g>
  </g>
  <g id="ID000138">
    <line class="cls-15" x1="631.55" y1="162.44" x2="631.66" y2="183.85"/>
  </g>
  <g id="ID000139">
    <line class="cls-15" x1="649.39" y1="162.34" x2="649.5" y2="183.75"/>
  </g>
  <g id="ID000140">
    <line class="cls-15" x1="667.23" y1="162.25" x2="667.35" y2="183.66"/>
  </g>
  <g class="cls-7">
    <g class="cls-7">
      <g class="cls-7">
        <text class="cls-2" transform="translate(338.94 46.57)"><tspan x="0" y="0">D8 aptamer</tspan></text>
      </g>
    </g>
  </g>
  <g class="cls-7">
    <g class="cls-7">
      <text class="cls-2" transform="translate(95.87 117.79) rotate(-.31)"><tspan x="0" y="0">5</tspan></text>
    </g>
    <g class="cls-7">
      <text class="cls-11" transform="translate(117.07 117.68) rotate(-.31)"><tspan x="0" y="0">’</tspan></text>
    </g>
  </g>
  <g class="cls-7">
    <g class="cls-7">
      <text class="cls-2" transform="translate(95.39 248.77) rotate(-.31)"><tspan x="0" y="0">3</tspan></text>
    </g>
    <g class="cls-7">
      <text class="cls-11" transform="translate(116.59 248.65) rotate(-.31)"><tspan x="0" y="0">’</tspan></text>
    </g>
  </g>
</svg>