<?xml version="1.0" encoding="utf-8"?>
<!-- Generator: Adobe Illustrator 27.0.0, SVG Export Plug-In . SVG Version: 6.00 Build 0)  -->
<svg version="1.1" id="_图层_1" xmlns="http://www.w3.org/2000/svg" xmlns:xlink="http://www.w3.org/1999/xlink" x="0px" y="0px"
	 viewBox="0 0 800 400" style="enable-background:new 0 0 800 400;" xml:space="preserve">
<style type="text/css">
	.st0{fill:#8527B5;}
	.st1{fill:#FFFFFF;}
	.st2{font-family:'ArialMT';}
	.st3{font-size:17px;}
	.st4{opacity:0.5;fill:#0A0BFF;stroke:#000000;stroke-width:0.75;stroke-miterlimit:1.11;enable-background:new    ;}
	.st5{opacity:0.4;fill:#0A0BFF;stroke:#000000;stroke-width:0.75;stroke-miterlimit:1.11;enable-background:new    ;}
	.st6{fill:#B83332;}
	.st7{font-size:28px;}
	.st8{fill:none;stroke:#000000;stroke-miterlimit:1.11;}
	.st9{fill:#084595;}
	.st10{letter-spacing:-7;}
	.st11{fill:#2EA103;}
	.st12{fill:#18988C;}
	.st13{fill:#C2B617;}
	.st14{fill:none;stroke:#000000;stroke-width:0.14;stroke-miterlimit:1.11;}
	.st15{font-size:21px;}
	.st16{stroke:#000000;stroke-miterlimit:1.11;}
	.st17{fill:none;stroke:#000000;stroke-width:0.75;stroke-miterlimit:1.11;}
	.st18{fill:#FFFFFF;stroke:#000000;stroke-miterlimit:1.11;}
	.st19{letter-spacing:-2;}
	.st20{font-size:20px;}
</style>
<rect x="453.1" y="148.3" class="st0" width="20.4" height="61.2"/>
<text transform="matrix(6.123234e-17 -1 1 6.123234e-17 469.87 209.1699)" class="st1 st2 st3">D</text>
<text transform="matrix(6.123234e-17 -1 1 6.123234e-17 469.87 197.2402)" class="st1 st2 st3">F</text>
<text transform="matrix(6.123234e-17 -1 1 6.123234e-17 469.87 188.1309)" class="st1 st2 st3">AME</text>
<polygon class="st4" points="720.4,209.2 699,185.8 699,152.9 720.4,176.3 "/>
<polygon class="st4" points="653.3,208.3 631.9,185 631.9,152.1 653.3,175.5 "/>
<polygon class="st4" points="586.7,209.2 565.3,185.8 565.3,152.9 586.7,176.3 "/>
<polygon class="st5" points="526,206.9 498.8,184.8 498.8,151.9 526,174 "/>
<g id="ID000002">
	<text transform="matrix(1 0 0 1 89.71 166.71)" class="st6 st2 st7">G</text>
</g>
<g id="ID000003">
	<text transform="matrix(1 0 0 1 140.64 164.49)" class="st6 st2 st7">G</text>
</g>
<g id="ID000004">
	<text transform="matrix(1 0 0 1 168 164.54)" class="st6 st2 st7">C</text>
</g>
<g id="ID000005">
	<text transform="matrix(1 0 0 1 194.57 164.54)" class="st6 st2 st7">C</text>
</g>
<g id="ID000006">
	<text transform="matrix(1 0 0 1 220.37 164.49)" class="st6 st2 st7">G</text>
</g>
<g id="ID000007">
	<text transform="matrix(1 0 0 1 246.94 164.49)" class="st6 st2 st7">G</text>
</g>
<g id="ID000008">
	<text transform="matrix(1 0 0 1 247.72 217.69)" class="st6 st2 st7">C</text>
</g>
<g id="ID000009">
	<text transform="matrix(1 0 0 1 221.15 217.69)" class="st6 st2 st7">C</text>
</g>
<g id="ID000010">
	<text transform="matrix(1 0 0 1 193.79 217.64)" class="st6 st2 st7">G</text>
</g>
<g id="ID000011">
	<text transform="matrix(1 0 0 1 167.22 217.64)" class="st6 st2 st7">G</text>
</g>
<g id="ID000012">
	<text transform="matrix(1 0 0 1 141.42 217.69)" class="st6 st2 st7">C</text>
</g>
<g id="ID000013">
	<line class="st8" x1="151.1" y1="164.2" x2="151.1" y2="196.1"/>
</g>
<g id="ID000014">
	<line class="st8" x1="177.6" y1="164.2" x2="177.6" y2="196.1"/>
</g>
<g id="ID000015">
	<line class="st8" x1="204.2" y1="164.2" x2="204.2" y2="196.1"/>
</g>
<g id="ID000005-2">
	<text transform="matrix(1 0 0 1 115.96 165.56)" class="st6 st2 st7">C</text>
</g>
<g id="ID000010-2">
	<text transform="matrix(1 0 0 1 115.18 218.66)" class="st6 st2 st7">G</text>
</g>
<g id="ID000015-2">
	<line class="st8" x1="125.6" y1="165.2" x2="125.6" y2="197.1"/>
</g>
<g id="ID000016">
	<line class="st8" x1="230.8" y1="164.2" x2="230.8" y2="196.1"/>
</g>
<g id="ID000009-2">
	<text transform="matrix(1 0 0 1 90.49 219.07)" class="st6 st2 st7">C</text>
</g>
<g id="ID000016-2">
	<line class="st8" x1="100.1" y1="165.6" x2="100.1" y2="197.6"/>
</g>
<g id="ID000017">
	<line class="st8" x1="257.4" y1="164.2" x2="257.4" y2="196.1"/>
</g>
<g id="ID000019">
	<text transform="matrix(1 0 0 1 312.45 165.84)" class="st9 st2 st7">G</text>
</g>
<g id="ID000019-2">
	<text transform="matrix(1 0 0 1 318.07 137.37)" class="st6 st2 st7">G</text>
</g>
<g id="ID000020">
	<text transform="matrix(1 0 0 1 339.76 165.84)" class="st9 st2 st7">C</text>
</g>
<g id="ID000021">
	<text transform="matrix(1 0 0 1 367.06 165.84)" class="st9 st2 st7 st10">A</text>
</g>
<g id="ID000022">
	<text transform="matrix(1 0 0 1 392.17 165.84)" class="st9 st2 st7">G</text>
</g>
<g id="ID000023">
	<text transform="matrix(1 0 0 1 420.21 165.84)" class="st11 st2 st7 st10">A</text>
</g>
<g id="ID000023-2">
	<text transform="matrix(1 0 0 1 307.23 109.79)" class="st6 st2 st7 st10">A</text>
</g>
<g id="ID000024">
	<text transform="matrix(1 0 0 1 480.76 150.34)" class="st11 st2 st7">G</text>
</g>
<g id="ID000025">
	<text transform="matrix(1 0 0 1 547.19 150.34)" class="st12 st2 st7">G</text>
</g>
<g id="ID000026">
	<text transform="matrix(1 0 0 1 547.93 123.76)" class="st13 st2 st7">U</text>
</g>
<g id="ID000027">
	<text transform="matrix(1 0 0 1 680.07 150.34)" class="st12 st2 st7">G</text>
</g>
<g id="ID000028">
	<line class="st14" x1="694.5" y1="128.4" x2="704.8" y2="80.2"/>
</g>
<g id="ID000029">
	<text transform="matrix(1 0 0 1 696.61 78.74)" class="st2 st15">20</text>
</g>
<g id="ID000029-2">
	<text transform="matrix(1 0 0 1 305.52 69.88)" class="st2 st15">10</text>
</g>
<g id="ID000030">
	<text transform="matrix(1 0 0 1 613.63 150.34)" class="st12 st2 st7">G</text>
</g>
<g id="ID000031">
	<text transform="matrix(1 0 0 1 580.41 183.56)" class="st12 st2 st7">G</text>
</g>
<g id="ID000032">
	<text transform="matrix(1 0 0 1 714.02 110.48)" class="st13 st2 st7">U</text>
</g>
<g id="ID000033">
	<text transform="matrix(1 0 0 1 713.29 183.56)" class="st12 st2 st7">G</text>
</g>
<g id="ID000034">
	<text transform="matrix(1 0 0 1 646.85 183.56)" class="st12 st2 st7">G</text>
</g>
<g id="ID000035">
	<text transform="matrix(1 0 0 1 521.35 180.56)" class="st11 st2 st7">U</text>
</g>
<g id="ID000036">
	<text transform="matrix(1 0 0 1 580.41 230.07)" class="st12 st2 st7">G</text>
</g>
<g id="ID000037">
	<text transform="matrix(1 0 0 1 714.02 276.57)" class="st13 st2 st7">U</text>
</g>
<g id="ID000038">
	<text transform="matrix(1 0 0 1 713.29 230.07)" class="st12 st2 st7">G</text>
</g>
<g id="ID000039">
	<text transform="matrix(1 0 0 1 646.85 230.07)" class="st12 st2 st7">G</text>
</g>
<g id="ID000040">
	<line class="st14" x1="650.1" y1="229.4" x2="632.6" y2="254.6"/>
</g>
<g id="ID000041">
	<text transform="matrix(1 0 0 1 610.67 270.52)" class="st2 st15">30</text>
</g>
<g id="ID000042">
	<text transform="matrix(1 0 0 1 681.54 316.43)" class="st13 st2 st7 st10">A</text>
</g>
<g id="ID000043">
	<text transform="matrix(1 0 0 1 680.07 196.84)" class="st12 st2 st7">G</text>
</g>
<g id="ID000044">
	<text transform="matrix(1 0 0 1 613.63 196.84)" class="st12 st2 st7">G</text>
</g>
<g id="ID000045">
	<text transform="matrix(1 0 0 1 482.22 196.84)" class="st11 st2 st7 st10">A</text>
</g>
<g id="ID000046">
	<text transform="matrix(1 0 0 1 547.19 196.84)" class="st12 st2 st7">G</text>
</g>
<g id="ID000047">
	<text transform="matrix(1 0 0 1 547.93 276.57)" class="st13 st2 st7">U</text>
</g>
<g id="ID000048">
	<text transform="matrix(1 0 0 1 522.08 230.07)" class="st11 st2 st7 st10">A</text>
</g>
<g id="ID000049">
	<text transform="matrix(1 0 0 1 419.48 218.99)" class="st11 st2 st7">U</text>
</g>
<g id="ID000049-2">
	<text transform="matrix(1 0 0 1 260.31 137.39)" class="st6 st2 st7">U</text>
</g>
<g id="ID000049-3">
	<text transform="matrix(1 0 0 1 280.06 115.79)" class="st6 st2 st7">U</text>
</g>
<g id="ID000050">
	<text transform="matrix(1 0 0 1 392.91 218.99)" class="st9 st2 st7">C</text>
</g>
<g id="ID000051">
	<text transform="matrix(1 0 0 1 366.33 218.99)" class="st9 st2 st7">U</text>
</g>
<g id="ID000052">
	<line class="st14" x1="376.9" y1="219.7" x2="376.9" y2="237.4"/>
</g>
<g id="ID000052-2">
	<line class="st14" x1="316.9" y1="69.9" x2="316.9" y2="87.6"/>
</g>
<g id="ID000053">
	<text transform="matrix(1 0 0 1 364.18 254.83)" class="st2 st15">40</text>
</g>
<g id="ID000054">
	<text transform="matrix(1 0 0 1 339.02 218.99)" class="st9 st2 st7">G</text>
</g>
<g id="ID000055">
	<text transform="matrix(1 0 0 1 313.18 218.99)" class="st9 st2 st7">U</text>
</g>
<g id="ID000056">
	<polygon class="st16" points="323.7,183.1 323.9,183.1 324.1,183.1 324.2,183 324.4,183 324.6,183 324.7,182.9 324.9,182.8 
		325,182.7 325.2,182.7 325.3,182.6 325.4,182.5 325.6,182.3 325.7,182.2 325.8,182.1 325.9,182 326,181.8 326.1,181.7 326.2,181.5 
		326.2,181.4 326.3,181.2 326.3,181.1 326.4,180.9 326.4,180.7 326.4,180.6 326.4,180.4 326.4,180.2 326.4,180 326.3,179.9 
		326.3,179.7 326.2,179.6 326.2,179.4 326.1,179.2 326,179.1 325.9,179 325.8,178.8 325.7,178.7 325.6,178.6 325.5,178.5 
		325.4,178.3 325.2,178.2 325.1,178.2 324.9,178.1 324.8,178 324.6,177.9 324.5,177.9 324.3,177.8 324.2,177.8 324,177.8 
		323.8,177.8 323.6,177.8 323.5,177.8 323.3,177.8 323.1,177.8 323,177.9 322.8,177.9 322.7,178 322.5,178.1 322.4,178.2 
		322.2,178.2 322.1,178.3 322,178.5 321.8,178.6 321.7,178.7 321.6,178.8 321.5,179 321.4,179.1 321.4,179.2 321.3,179.4 
		321.2,179.6 321.2,179.7 321.1,179.9 321.1,180 321.1,180.2 321.1,180.4 321.1,180.6 321.1,180.7 321.1,180.9 321.2,181.1 
		321.2,181.2 321.2,181.4 321.3,181.5 321.4,181.7 321.5,181.8 321.6,182 321.7,182.1 321.8,182.2 321.9,182.3 322,182.5 
		322.2,182.6 322.3,182.7 322.4,182.7 322.6,182.8 322.7,182.9 322.9,183 323.1,183 323.2,183 323.4,183.1 323.6,183.1 	"/>
</g>
<g id="ID000057">
	<line class="st8" x1="350.3" y1="164.5" x2="350.3" y2="196.4"/>
</g>
<g id="ID000058">
	<line class="st8" x1="376.9" y1="164.5" x2="376.9" y2="196.4"/>
</g>
<g id="ID000059">
	<line class="st8" x1="403.4" y1="164.5" x2="403.4" y2="196.4"/>
</g>
<g id="ID000060">
	<line class="st8" x1="430" y1="164.5" x2="430" y2="196.4"/>
</g>
<g id="ID000062">
	<line class="st17" x1="440.3" y1="151.3" x2="481.7" y2="140.9"/>
</g>
<g id="ID000063">
	<polygon class="st16" points="456.3,143.4 459,144.8 461.3,144.9 463.5,144.7 468.1,144.6 464,146.6 461.9,147.5 459.9,148.6 
		458.3,151.1 	"/>
</g>
<g id="ID000064">
	<line class="st17" x1="521.3" y1="216.9" x2="440.6" y2="208.1"/>
</g>
<g id="ID000065">
	<polygon class="st16" points="484.1,216.5 482.1,214.2 479.9,213.3 477.8,212.8 473.5,211.3 478,210.8 480.2,210.7 482.5,210.3 
		484.9,208.5 	"/>
</g>
<g id="ID000066">
	<line class="st17" x1="502.7" y1="138.3" x2="547.8" y2="138.3"/>
</g>
<g id="ID000067">
	<polygon class="st16" points="517.9,134.4 520.1,136.4 522.3,137 524.6,137.3 529,138.3 524.6,139.3 522.3,139.7 520.1,140.3 
		517.9,142.3 	"/>
</g>
<g id="ID000068">
	<polyline class="st17" points="569.1,111.8 691.3,111.8 691.3,127.7 	"/>
</g>
<g id="ID000069">
	<polygon class="st16" points="626.9,107.8 629.1,109.8 631.3,110.5 633.5,110.8 638,111.8 633.5,112.8 631.3,113.1 629.1,113.8 
		626.9,115.8 	"/>
</g>
<g id="ID000070">
	<line class="st17" x1="680.7" y1="138.3" x2="635.5" y2="138.3"/>
</g>
<g id="ID000071">
	<polygon class="st16" points="672.5,142.3 670.3,140.3 668,139.7 665.8,139.3 661.4,138.3 665.8,137.3 668,137 670.3,136.4 
		672.5,134.4 	"/>
</g>
<g id="ID000072">
	<line class="st17" x1="617.4" y1="145.9" x2="599.2" y2="164"/>
</g>
<g id="ID000073">
	<polygon class="st16" points="614.9,154 611.9,154.2 609.9,155.3 608.1,156.6 604.2,159 606.7,155.2 608,153.4 609.1,151.4 
		609.2,148.4 	"/>
</g>
<g id="ID000074">
	<line class="st17" x1="724.6" y1="109.1" x2="724.6" y2="160.9"/>
</g>
<g id="ID000075">
	<polygon class="st16" points="728.6,131.7 726.6,133.9 725.9,136.1 725.6,138.3 724.6,142.8 723.6,138.3 723.2,136.1 722.6,133.9 
		720.6,131.7 	"/>
</g>
<g id="ID000076">
	<polyline class="st17" points="591.8,160.9 592.7,98.5 713.9,98.5 	"/>
</g>
<g id="ID000077">
	<polygon class="st16" points="641,94.5 643.2,96.5 645.4,97.2 647.6,97.5 652,98.5 647.6,99.5 645.4,99.8 643.2,100.5 641,102.5 	
		"/>
</g>
<g id="ID000078">
	<line class="st17" x1="713.9" y1="171.6" x2="668.8" y2="171.6"/>
</g>
<g id="ID000079">
	<polygon class="st16" points="706.7,175.6 704.5,173.6 702.3,172.9 700,172.6 695.6,171.6 700,170.6 702.3,170.2 704.5,169.6 
		706.7,167.6 	"/>
</g>
<g id="ID000080">
	<polyline class="st17" points="534.8,181.8 545.2,218.1 581.1,218.1 	"/>
</g>
<g id="ID000081">
	<polygon class="st16" points="564.8,214.1 567,216.1 569.2,216.7 571.4,217.1 575.9,218.1 571.4,219.1 569.2,219.4 567,220.1 
		564.8,222.1 	"/>
</g>
<g id="ID000082">
	<polyline class="st17" points="658.1,160.9 658.1,91.9 531.9,91.9 531.9,160.9 	"/>
</g>
<g id="ID000083">
	<polygon class="st16" points="598.3,95.8 596.1,93.8 593.9,93.2 591.7,92.8 587.3,91.9 591.7,90.9 593.9,90.5 596.1,89.9 
		598.3,87.9 	"/>
</g>
<g id="ID000084">
	<line class="st17" x1="601.7" y1="221.6" x2="714.5" y2="261.1"/>
</g>
<g id="ID000085">
	<polygon class="st16" points="652.6,235.6 654.1,238.3 656,239.6 657.9,240.7 661.8,243.1 657.3,242.6 655.1,242.1 652.8,242 
		650,243.2 	"/>
</g>
<g id="ID000086">
	<line class="st17" x1="558.5" y1="195.5" x2="558.5" y2="254"/>
</g>
<g id="ID000087">
	<polygon class="st16" points="562.5,203.4 560.5,205.6 559.8,207.8 559.5,210 558.5,214.5 557.5,210 557.2,207.8 556.5,205.6 
		554.5,203.4 	"/>
</g>
<g id="ID000088">
	<line class="st17" x1="497.5" y1="184.9" x2="545.8" y2="184.9"/>
</g>
<g id="ID000089">
	<polygon class="st16" points="507.9,180.9 510.1,182.9 512.3,183.5 514.6,183.9 519,184.9 514.6,185.9 512.3,186.2 510.1,186.9 
		507.9,188.8 	"/>
</g>
<g id="ID000090">
	<line class="st17" x1="724.6" y1="254" x2="724.6" y2="228.7"/>
</g>
<g id="ID000091">
	<polygon class="st16" points="720.6,244.7 722.6,242.5 723.2,240.2 723.6,238 724.6,233.6 725.6,238 725.9,240.2 726.6,242.5 
		728.6,244.7 	"/>
</g>
<g id="ID000092">
	<line class="st17" x1="662" y1="228" x2="687.5" y2="294.5"/>
</g>
<g id="ID000093">
	<polygon class="st16" points="676.4,256 675.3,258.8 675.5,261.1 676,263.3 676.7,267.8 674.1,264 673,262.1 671.6,260.2 
		669,258.9 	"/>
</g>
<g id="ID000094">
	<line class="st17" x1="691.3" y1="293.8" x2="691.3" y2="195.5"/>
</g>
<g id="ID000095">
	<polygon class="st16" points="687.4,248 689.4,245.8 690,243.6 690.3,241.3 691.3,236.9 692.3,241.3 692.7,243.6 693.3,245.8 
		695.3,248 	"/>
</g>
<g id="ID000096">
	<polyline class="st17" points="624.9,195.5 624.9,238 492,238 492,195.5 	"/>
</g>
<g id="ID000097">
	<polygon class="st16" points="580.8,242 578.6,240 576.4,239.3 574.2,239 569.7,238 574.2,237 576.4,236.7 578.6,236 580.8,234 	
		"/>
</g>
<g id="ID000098">
	<line class="st17" x1="713.9" y1="218.1" x2="668.8" y2="218.1"/>
</g>
<g id="ID000099">
	<polygon class="st16" points="705.7,222.1 703.5,220.1 701.3,219.4 699,219.1 694.6,218.1 699,217.1 701.3,216.7 703.5,216.1 
		705.7,214.1 	"/>
</g>
<g id="ID000100">
	<line class="st17" x1="680.7" y1="184.9" x2="635.5" y2="184.9"/>
</g>
<g id="ID000101">
	<polygon class="st16" points="677.5,188.8 675.3,186.9 673,186.2 670.8,185.9 666.4,184.9 670.8,183.9 673,183.5 675.3,182.9 
		677.5,180.9 	"/>
</g>
<g id="ID000102">
	<line class="st17" x1="553.2" y1="255.3" x2="537.2" y2="227.3"/>
</g>
<g id="ID000103">
	<polygon class="st16" points="546.1,251.2 546.7,248.3 546.2,246 545.4,243.9 544.1,239.6 547.1,242.9 548.5,244.7 550.2,246.3 
		553,247.2 	"/>
</g>
<g id="ID000104">
	<line class="st8" x1="531.9" y1="182.2" x2="531.9" y2="207.5"/>
</g>
<g id="ID000105">
	<polygon class="st16" points="531.9,197.5 532.1,197.5 532.2,197.5 532.4,197.4 532.6,197.4 532.7,197.3 532.9,197.3 533,197.2 
		533.2,197.1 533.3,197.1 533.5,197 533.6,196.9 533.7,196.7 533.8,196.6 534,196.5 534.1,196.4 534.2,196.2 534.2,196.1 
		534.3,195.9 534.4,195.8 534.4,195.6 534.5,195.5 534.5,195.3 534.5,195.1 534.6,195 534.6,194.8 534.6,194.6 534.5,194.5 
		534.5,194.3 534.5,194.1 534.4,194 534.3,193.8 534.3,193.6 534.2,193.5 534.1,193.3 534,193.2 533.9,193.1 533.8,193 533.7,192.8 
		533.5,192.7 533.4,192.6 533.3,192.5 533.1,192.5 533,192.4 532.8,192.3 532.7,192.3 532.5,192.2 532.3,192.2 532.2,192.2 
		532,192.2 531.8,192.2 531.7,192.2 531.5,192.2 531.3,192.2 531.2,192.3 531,192.3 530.8,192.4 530.7,192.5 530.5,192.5 
		530.4,192.6 530.3,192.7 530.1,192.8 530,193 529.9,193.1 529.8,193.2 529.7,193.3 529.6,193.5 529.5,193.6 529.4,193.8 529.4,194 
		529.3,194.1 529.3,194.3 529.3,194.5 529.3,194.6 529.2,194.8 529.3,195 529.3,195.1 529.3,195.3 529.3,195.5 529.4,195.6 
		529.4,195.8 529.5,195.9 529.6,196.1 529.6,196.2 529.7,196.4 529.8,196.5 529.9,196.6 530.1,196.7 530.2,196.9 530.3,197 
		530.5,197.1 530.6,197.1 530.8,197.2 530.9,197.3 531.1,197.3 531.2,197.4 531.4,197.4 531.6,197.5 531.7,197.5 	"/>
</g>
<g id="ID000106">
	<line class="st8" x1="500.2" y1="145.2" x2="523.7" y2="164.8"/>
</g>
<g id="ID000107">
	<polygon class="st18" points="506.6,150.8 506.5,151 506.4,151.1 506.3,151.2 506.3,151.4 506.2,151.6 506.1,151.7 506.1,151.9 
		506,152 506,152.2 506,152.4 506,152.5 506,152.7 506,152.9 506,153 506.1,153.2 506.1,153.4 506.2,153.5 506.3,153.7 506.3,153.8 
		506.4,154 506.5,154.1 506.6,154.2 506.7,154.4 506.9,154.5 507,154.6 507.1,154.7 507.3,154.8 507.4,154.9 507.6,155 507.7,155 
		507.9,155.1 508,155.1 508.2,155.2 508.4,155.2 508.5,155.2 508.7,155.2 508.9,155.2 509,155.2 509.2,155.1 509.4,155.1 509.5,155 
		509.7,155 509.8,154.9 510,154.8 510.1,154.7 510.3,154.7 510.4,154.5 510.5,154.4 510.7,154.3 510.8,154.2 510.9,154 510.9,153.9 
		511,153.7 511.1,153.6 511.2,153.4 511.2,153.3 511.3,153.1 511.3,153 511.3,152.8 511.3,152.6 511.3,152.4 511.3,152.3 
		511.3,152.1 511.3,151.9 511.2,151.8 511.2,151.6 511.1,151.5 511,151.3 510.9,151.2 510.8,151 510.7,150.9 510.6,150.8 
		510.5,150.6 510.4,150.5 510.3,150.4 510.1,150.3 510,150.2 509.8,150.2 509.7,150.1 509.5,150 509.4,150 509.2,149.9 509,149.9 
		508.9,149.9 508.7,149.9 508.5,149.9 508.4,149.9 508.2,149.9 508,150 507.9,150 507.7,150.1 507.6,150.1 507.4,150.2 507.3,150.3 
		507.1,150.4 507,150.5 506.8,150.6 506.7,150.7 	"/>
</g>
<g id="ID000108">
	<polygon class="st18" points="519,157 514.9,153.6 511.5,157.7 515.6,161.1 	"/>
</g>
<g id="ID000109">
	<line class="st8" x1="492" y1="149" x2="492" y2="174.2"/>
</g>
<g id="ID000110">
	<polygon class="st18" points="492,157.4 489,162.6 495,162.6 	"/>
</g>
<g id="ID000111">
	<polygon class="st18" points="492,171.2 492.2,171.2 492.4,171.2 492.5,171.1 492.7,171.1 492.9,171 493,171 493.2,170.9 
		493.3,170.8 493.5,170.7 493.6,170.7 493.8,170.5 493.9,170.4 494,170.3 494.1,170.2 494.2,170.1 494.3,169.9 494.4,169.8 
		494.5,169.6 494.5,169.5 494.6,169.3 494.6,169.1 494.7,169 494.7,168.8 494.7,168.6 494.7,168.5 494.7,168.3 494.7,168.1 
		494.6,168 494.6,167.8 494.6,167.7 494.5,167.5 494.4,167.3 494.3,167.2 494.3,167 494.2,166.9 494,166.8 493.9,166.7 493.8,166.5 
		493.7,166.4 493.6,166.3 493.4,166.2 493.3,166.2 493.1,166.1 492.9,166 492.8,166 492.6,165.9 492.5,165.9 492.3,165.9 
		492.1,165.9 491.9,165.9 491.8,165.9 491.6,165.9 491.4,165.9 491.3,166 491.1,166 491,166.1 490.8,166.2 490.7,166.2 490.5,166.3 
		490.4,166.4 490.3,166.5 490.1,166.7 490,166.8 489.9,166.9 489.8,167 489.7,167.2 489.7,167.3 489.6,167.5 489.5,167.7 
		489.5,167.8 489.4,168 489.4,168.1 489.4,168.3 489.4,168.5 489.4,168.6 489.4,168.8 489.4,169 489.5,169.1 489.5,169.3 
		489.6,169.5 489.6,169.6 489.7,169.8 489.8,169.9 489.9,170.1 490,170.2 490.1,170.3 490.2,170.4 490.3,170.5 490.5,170.7 
		490.6,170.7 490.8,170.8 490.9,170.9 491,171 491.2,171 491.4,171.1 491.5,171.1 491.7,171.2 491.9,171.2 	"/>
</g>
<g id="ID000112">
	<line class="st8" x1="555.1" y1="148.4" x2="535.3" y2="208"/>
</g>
<g id="ID000113">
	<polygon class="st16" points="546.9,181.6 548.6,176.5 543.5,174.9 541.8,179.9 	"/>
</g>
<g id="ID000114">
	<line class="st8" x1="724.6" y1="182.2" x2="724.6" y2="207.5"/>
</g>
<g id="ID000115">
	<polygon class="st16" points="724.6,191.3 724.4,191.3 724.2,191.3 724.1,191.3 723.9,191.3 723.7,191.4 723.6,191.5 723.4,191.5 
		723.3,191.6 723.1,191.7 723,191.8 722.9,191.9 722.7,192 722.6,192.1 722.5,192.2 722.4,192.4 722.3,192.5 722.2,192.7 
		722.1,192.8 722.1,193 722,193.1 722,193.3 722,193.5 721.9,193.6 721.9,193.8 721.9,194 721.9,194.1 721.9,194.3 722,194.5 
		722,194.6 722.1,194.8 722.1,194.9 722.2,195.1 722.3,195.2 722.4,195.4 722.5,195.5 722.6,195.6 722.7,195.8 722.8,195.9 
		722.9,196 723.1,196.1 723.2,196.2 723.3,196.3 723.5,196.3 723.7,196.4 723.8,196.5 724,196.5 724.1,196.5 724.3,196.6 
		724.5,196.6 724.7,196.6 724.8,196.6 725,196.5 725.2,196.5 725.3,196.5 725.5,196.4 725.6,196.3 725.8,196.3 725.9,196.2 
		726.1,196.1 726.2,196 726.3,195.9 726.5,195.8 726.6,195.6 726.7,195.5 726.8,195.4 726.9,195.2 727,195.1 727,194.9 727.1,194.8 
		727.1,194.6 727.2,194.5 727.2,194.3 727.2,194.1 727.2,194 727.2,193.8 727.2,193.6 727.2,193.5 727.1,193.3 727.1,193.1 727,193 
		727,192.8 726.9,192.7 726.8,192.5 726.7,192.4 726.6,192.2 726.5,192.1 726.4,192 726.3,191.9 726.1,191.8 726,191.7 725.9,191.6 
		725.7,191.5 725.6,191.5 725.4,191.4 725.2,191.3 725.1,191.3 724.9,191.3 724.7,191.3 	"/>
</g>
<g id="ID000116">
	<polygon class="st16" points="727.2,204.4 727.2,199.1 721.9,199.1 721.9,204.4 	"/>
</g>
<g id="ID000117">
	<line class="st8" x1="650.6" y1="210.6" x2="632.4" y2="192.4"/>
</g>
<g id="ID000118">
	<polygon class="st16" points="648.3,208.2 648.4,208.1 648.5,208 648.6,207.8 648.7,207.7 648.8,207.6 648.8,207.4 648.9,207.2 
		649,207.1 649,206.9 649,206.7 649.1,206.6 649.1,206.4 649.1,206.2 649,206.1 649,205.9 649,205.7 649,205.6 648.9,205.4 
		648.8,205.3 648.8,205.1 648.7,205 648.6,204.8 648.5,204.7 648.4,204.6 648.3,204.4 648.1,204.3 648,204.2 647.9,204.1 647.7,204 
		647.6,204 647.4,203.9 647.3,203.8 647.1,203.8 646.9,203.7 646.8,203.7 646.6,203.7 646.4,203.7 646.3,203.7 646.1,203.7 
		645.9,203.7 645.8,203.8 645.6,203.8 645.4,203.9 645.3,203.9 645.1,204 645,204.1 644.8,204.2 644.7,204.3 644.6,204.4 
		644.5,204.5 644.4,204.7 644.3,204.8 644.2,204.9 644.1,205.1 644,205.2 643.9,205.4 643.9,205.5 643.8,205.7 643.8,205.9 
		643.8,206 643.8,206.2 643.8,206.4 643.8,206.5 643.8,206.7 643.8,206.9 643.8,207 643.9,207.2 644,207.4 644,207.5 644.1,207.7 
		644.2,207.8 644.3,208 644.4,208.1 644.5,208.2 644.6,208.3 644.8,208.4 644.9,208.5 645,208.6 645.2,208.7 645.3,208.8 
		645.5,208.8 645.6,208.9 645.8,208.9 646,209 646.1,209 646.3,209 646.5,209 646.6,209 646.8,209 647,209 647.1,208.9 647.3,208.9 
		647.5,208.8 647.6,208.7 647.8,208.6 647.9,208.6 648,208.5 648.2,208.3 	"/>
</g>
<g id="ID000119">
	<polygon class="st16" points="637.9,200.6 641.6,204.3 645.4,200.6 641.6,196.8 	"/>
</g>
<g id="ID000120">
	<line class="st8" x1="658.1" y1="182.2" x2="658.1" y2="207.5"/>
</g>
<g id="ID000121">
	<polygon class="st16" points="658.1,191.3 658,191.3 657.8,191.3 657.6,191.3 657.5,191.3 657.3,191.4 657.1,191.5 657,191.5 
		656.8,191.6 656.7,191.7 656.6,191.8 656.4,191.9 656.3,192 656.2,192.1 656.1,192.2 656,192.4 655.9,192.5 655.8,192.7 
		655.7,192.8 655.6,193 655.6,193.1 655.6,193.3 655.5,193.5 655.5,193.6 655.5,193.8 655.5,194 655.5,194.1 655.5,194.3 
		655.5,194.5 655.6,194.6 655.6,194.8 655.7,194.9 655.8,195.1 655.8,195.2 655.9,195.4 656,195.5 656.1,195.6 656.2,195.8 
		656.4,195.9 656.5,196 656.6,196.1 656.8,196.2 656.9,196.3 657.1,196.3 657.2,196.4 657.4,196.5 657.6,196.5 657.7,196.5 
		657.9,196.6 658,196.6 658.2,196.6 658.4,196.6 658.6,196.5 658.7,196.5 658.9,196.5 659,196.4 659.2,196.3 659.3,196.3 
		659.5,196.2 659.6,196.1 659.8,196 659.9,195.9 660,195.8 660.1,195.6 660.3,195.5 660.3,195.4 660.4,195.2 660.5,195.1 
		660.6,194.9 660.6,194.8 660.7,194.6 660.7,194.5 660.8,194.3 660.8,194.1 660.8,194 660.8,193.8 660.8,193.6 660.8,193.5 
		660.7,193.3 660.7,193.1 660.6,193 660.6,192.8 660.5,192.7 660.4,192.5 660.3,192.4 660.2,192.2 660.1,192.1 660,192 659.8,191.9 
		659.7,191.8 659.6,191.7 659.4,191.6 659.3,191.5 659.1,191.5 659,191.4 658.8,191.3 658.6,191.3 658.5,191.3 658.3,191.3 	"/>
</g>
<g id="ID000122">
	<polygon class="st16" points="660.8,204.4 660.8,199.1 655.5,199.1 655.5,204.4 	"/>
</g>
<g id="ID000123">
	<line class="st8" x1="717" y1="210.6" x2="698.9" y2="192.4"/>
</g>
<g id="ID000124">
	<polygon class="st16" points="712.7,207.2 712.8,207.1 713,207 713,206.8 713.1,206.7 713.2,206.6 713.3,206.4 713.3,206.2 
		713.4,206.1 713.4,205.9 713.5,205.7 713.5,205.6 713.5,205.4 713.5,205.2 713.5,205.1 713.5,204.9 713.4,204.7 713.4,204.6 
		713.3,204.4 713.3,204.3 713.2,204.1 713.1,204 713,203.8 712.9,203.7 712.8,203.6 712.7,203.4 712.6,203.3 712.4,203.2 
		712.3,203.1 712.2,203 712,203 711.8,202.9 711.7,202.8 711.5,202.8 711.4,202.7 711.2,202.7 711,202.7 710.9,202.7 710.7,202.7 
		710.5,202.7 710.4,202.7 710.2,202.8 710,202.8 709.9,202.9 709.7,202.9 709.6,203 709.4,203.1 709.3,203.2 709.2,203.3 709,203.4 
		708.9,203.5 708.8,203.7 708.7,203.8 708.6,203.9 708.5,204.1 708.4,204.2 708.4,204.4 708.3,204.5 708.3,204.7 708.2,204.9 
		708.2,205 708.2,205.2 708.2,205.4 708.2,205.5 708.2,205.7 708.2,205.9 708.3,206 708.3,206.2 708.4,206.4 708.5,206.5 
		708.5,206.7 708.6,206.8 708.7,207 708.8,207.1 708.9,207.2 709.1,207.3 709.2,207.4 709.3,207.5 709.5,207.6 709.6,207.7 
		709.8,207.8 709.9,207.8 710.1,207.9 710.2,207.9 710.4,208 710.6,208 710.7,208 710.9,208 711.1,208 711.3,208 711.4,208 
		711.6,207.9 711.7,207.9 711.9,207.8 712,207.7 712.2,207.6 712.3,207.6 712.5,207.5 712.6,207.3 	"/>
</g>
<g id="ID000125">
	<polygon class="st16" points="702.3,199.6 706.1,203.3 709.8,199.6 706.1,195.8 	"/>
</g>
<g id="ID000126">
	<line class="st8" x1="566" y1="145.9" x2="584.2" y2="164"/>
</g>
<g id="ID000127">
	<polygon class="st16" points="572.3,152.2 572.2,152.3 572.1,152.5 572,152.6 571.9,152.7 571.8,152.9 571.8,153 571.7,153.2 
		571.6,153.3 571.6,153.5 571.6,153.7 571.6,153.8 571.5,154 571.6,154.2 571.6,154.3 571.6,154.5 571.6,154.7 571.7,154.8 
		571.7,155 571.8,155.2 571.8,155.3 571.9,155.5 572,155.6 572.1,155.7 572.2,155.9 572.3,156 572.5,156.1 572.6,156.2 572.8,156.3 
		572.9,156.4 573,156.5 573.2,156.5 573.3,156.6 573.5,156.6 573.7,156.7 573.8,156.7 574,156.7 574.2,156.7 574.3,156.7 
		574.5,156.7 574.7,156.7 574.8,156.7 575,156.6 575.2,156.5 575.3,156.5 575.5,156.4 575.6,156.3 575.8,156.2 575.9,156.1 576,156 
		576.1,155.9 576.3,155.8 576.3,155.6 576.4,155.5 576.5,155.3 576.6,155.2 576.7,155 576.7,154.9 576.8,154.7 576.8,154.6 
		576.8,154.4 576.8,154.2 576.9,154 576.8,153.9 576.8,153.7 576.8,153.5 576.8,153.4 576.7,153.2 576.7,153.1 576.6,152.9 
		576.5,152.8 576.4,152.6 576.3,152.5 576.2,152.3 576.1,152.2 576,152.1 575.9,152 575.7,151.9 575.6,151.8 575.4,151.7 
		575.3,151.7 575.1,151.6 575,151.5 574.8,151.5 574.6,151.5 574.5,151.4 574.3,151.4 574.1,151.4 574,151.4 573.8,151.5 
		573.6,151.5 573.5,151.5 573.3,151.6 573.2,151.6 573,151.7 572.8,151.8 572.7,151.9 572.6,152 572.4,152.1 	"/>
</g>
<g id="ID000128">
	<polygon class="st16" points="583.7,159.9 580,156.1 576.2,159.9 580,163.6 	"/>
</g>
<g id="ID000129">
	<line class="st8" x1="584.2" y1="210.6" x2="566" y2="192.4"/>
</g>
<g id="ID000130">
	<polygon class="st16" points="580.8,207.2 581,207.1 581.1,207 581.2,206.8 581.3,206.7 581.3,206.6 581.4,206.4 581.5,206.2 
		581.5,206.1 581.6,205.9 581.6,205.7 581.6,205.6 581.6,205.4 581.6,205.2 581.6,205.1 581.6,204.9 581.6,204.7 581.5,204.6 
		581.5,204.4 581.4,204.3 581.3,204.1 581.2,204 581.2,203.8 581,203.7 580.9,203.6 580.8,203.4 580.7,203.3 580.6,203.2 
		580.4,203.1 580.3,203 580.1,203 580,202.9 579.8,202.8 579.7,202.8 579.5,202.7 579.3,202.7 579.2,202.7 579,202.7 578.8,202.7 
		578.7,202.7 578.5,202.7 578.3,202.8 578.2,202.8 578,202.9 577.8,202.9 577.7,203 577.6,203.1 577.4,203.2 577.3,203.3 
		577.2,203.4 577,203.5 576.9,203.7 576.8,203.8 576.7,203.9 576.6,204.1 576.6,204.2 576.5,204.4 576.4,204.5 576.4,204.7 
		576.4,204.9 576.3,205 576.3,205.2 576.3,205.4 576.3,205.5 576.3,205.7 576.4,205.9 576.4,206 576.4,206.2 576.5,206.4 
		576.6,206.5 576.7,206.7 576.8,206.8 576.8,207 576.9,207.1 577.1,207.2 577.2,207.3 577.3,207.4 577.4,207.5 577.6,207.6 
		577.7,207.7 577.9,207.8 578,207.8 578.2,207.9 578.4,207.9 578.5,208 578.7,208 578.9,208 579,208 579.2,208 579.4,208 579.5,208 
		579.7,207.9 579.9,207.9 580,207.8 580.2,207.7 580.3,207.6 580.5,207.6 580.6,207.5 580.7,207.3 	"/>
</g>
<g id="ID000131">
	<polygon class="st16" points="569.4,199.6 573.2,203.3 577,199.6 573.2,195.8 	"/>
</g>
<g id="ID000132">
	<line class="st8" x1="632.4" y1="145.9" x2="650.6" y2="164"/>
</g>
<g id="ID000133">
	<polygon class="st16" points="638.8,152.2 638.6,152.3 638.5,152.5 638.4,152.6 638.3,152.7 638.3,152.9 638.2,153 638.1,153.2 
		638.1,153.3 638,153.5 638,153.7 638,153.8 638,154 638,154.2 638,154.3 638,154.5 638,154.7 638.1,154.8 638.1,155 638.2,155.2 
		638.3,155.3 638.4,155.5 638.5,155.6 638.6,155.7 638.7,155.9 638.8,156 638.9,156.1 639,156.2 639.2,156.3 639.3,156.4 
		639.5,156.5 639.6,156.5 639.8,156.6 640,156.6 640.1,156.7 640.3,156.7 640.5,156.7 640.6,156.7 640.8,156.7 641,156.7 
		641.1,156.7 641.3,156.7 641.5,156.6 641.6,156.5 641.8,156.5 641.9,156.4 642.1,156.3 642.2,156.2 642.3,156.1 642.5,156 
		642.6,155.9 642.7,155.8 642.8,155.6 642.9,155.5 643,155.3 643,155.2 643.1,155 643.2,154.9 643.2,154.7 643.3,154.6 643.3,154.4 
		643.3,154.2 643.3,154 643.3,153.9 643.3,153.7 643.2,153.5 643.2,153.4 643.2,153.2 643.1,153.1 643,152.9 643,152.8 642.9,152.6 
		642.8,152.5 642.7,152.3 642.6,152.2 642.4,152.1 642.3,152 642.2,151.9 642,151.8 641.9,151.7 641.7,151.7 641.6,151.6 
		641.4,151.5 641.2,151.5 641.1,151.5 640.9,151.4 640.7,151.4 640.6,151.4 640.4,151.4 640.2,151.5 640.1,151.5 639.9,151.5 
		639.8,151.6 639.6,151.6 639.4,151.7 639.3,151.8 639.1,151.9 639,152 638.9,152.1 	"/>
</g>
<g id="ID000134">
	<polygon class="st16" points="650.2,159.9 646.4,156.1 642.6,159.9 646.4,163.6 	"/>
</g>
<g id="ID000135">
	<line class="st8" x1="591.7" y1="182.2" x2="591.7" y2="207.5"/>
</g>
<g id="ID000136">
	<polygon class="st16" points="591.7,190.3 591.5,190.3 591.4,190.3 591.2,190.3 591,190.3 590.9,190.4 590.7,190.5 590.6,190.5 
		590.4,190.6 590.3,190.7 590.1,190.8 590,190.9 589.9,191 589.7,191.1 589.6,191.2 589.5,191.4 589.4,191.5 589.3,191.7 
		589.3,191.8 589.2,192 589.2,192.1 589.1,192.3 589.1,192.5 589,192.6 589,192.8 589,193 589,193.1 589.1,193.3 589.1,193.5 
		589.1,193.6 589.2,193.8 589.2,193.9 589.3,194.1 589.4,194.2 589.5,194.4 589.6,194.5 589.7,194.6 589.8,194.8 589.9,194.9 
		590,195 590.2,195.1 590.3,195.2 590.5,195.3 590.6,195.3 590.8,195.4 591,195.5 591.1,195.5 591.3,195.5 591.4,195.6 591.6,195.6 
		591.8,195.6 592,195.6 592.1,195.5 592.3,195.5 592.4,195.5 592.6,195.4 592.8,195.3 592.9,195.3 593.1,195.2 593.2,195.1 
		593.3,195 593.5,194.9 593.6,194.8 593.7,194.6 593.8,194.5 593.9,194.4 594,194.2 594.1,194.1 594.1,193.9 594.2,193.8 
		594.3,193.6 594.3,193.5 594.3,193.3 594.3,193.1 594.3,193 594.3,192.8 594.3,192.6 594.3,192.5 594.3,192.3 594.2,192.1 
		594.2,192 594.1,191.8 594,191.7 594,191.5 593.9,191.4 593.8,191.2 593.6,191.1 593.5,191 593.4,190.9 593.3,190.8 593.1,190.7 
		593,190.6 592.8,190.5 592.7,190.5 592.5,190.4 592.4,190.3 592.2,190.3 592,190.3 591.9,190.3 	"/>
</g>
<g id="ID000137">
	<polygon class="st16" points="594.3,204.4 594.3,199.1 589,199.1 589,204.4 	"/>
</g>
<g id="ID000138">
	<line class="st8" x1="698.9" y1="145.9" x2="717" y2="164"/>
</g>
<g id="ID000139">
	<polygon class="st16" points="704.2,151.2 704.1,151.3 704,151.5 703.9,151.6 703.8,151.7 703.7,151.9 703.6,152 703.6,152.2 
		703.5,152.3 703.5,152.5 703.5,152.7 703.4,152.8 703.4,153 703.4,153.2 703.4,153.3 703.5,153.5 703.5,153.7 703.5,153.8 
		703.6,154 703.6,154.2 703.7,154.3 703.8,154.5 703.9,154.6 704,154.7 704.1,154.9 704.2,155 704.3,155.1 704.5,155.2 704.6,155.3 
		704.8,155.4 704.9,155.5 705.1,155.5 705.2,155.6 705.4,155.6 705.6,155.7 705.7,155.7 705.9,155.7 706,155.7 706.2,155.7 
		706.4,155.7 706.6,155.7 706.7,155.7 706.9,155.6 707,155.5 707.2,155.5 707.3,155.4 707.5,155.3 707.6,155.2 707.8,155.1 
		707.9,155 708,154.9 708.1,154.8 708.2,154.6 708.3,154.5 708.4,154.3 708.5,154.2 708.6,154 708.6,153.9 708.6,153.7 708.7,153.6 
		708.7,153.4 708.7,153.2 708.7,153 708.7,152.9 708.7,152.7 708.7,152.5 708.6,152.4 708.6,152.2 708.5,152.1 708.5,151.9 
		708.4,151.8 708.3,151.6 708.2,151.5 708.1,151.3 708,151.2 707.9,151.1 707.7,151 707.6,150.9 707.5,150.8 707.3,150.7 
		707.2,150.7 707,150.6 706.8,150.5 706.7,150.5 706.5,150.5 706.3,150.4 706.2,150.4 706,150.4 705.8,150.4 705.7,150.5 
		705.5,150.5 705.3,150.5 705.2,150.6 705,150.6 704.9,150.7 704.7,150.8 704.6,150.9 704.5,151 704.3,151.1 	"/>
</g>
<g id="ID000140">
	<polygon class="st16" points="715.6,158.9 711.8,155.1 708.1,158.9 711.8,162.6 	"/>
</g>
<g id="ID000141">
	<line class="st17" x1="312.9" y1="208.5" x2="268.1" y2="208.5"/>
</g>
<g id="ID000142">
	<polygon class="st16" points="294.6,212.4 292.4,210.4 290.1,209.7 287.8,209.3 283.3,208.4 287.9,207.3 290.1,207 292.3,206.3 
		294.5,204.3 	"/>
</g>
<text transform="matrix(1 0 0 1 81.26 137.27)" class="st2 st15">5</text>
<text transform="matrix(1 0 0 1 92.94 137.27)" class="st2 st15 st19">’</text>
<text transform="matrix(1 0 0 1 82.14 239.62)" class="st2 st15">3</text>
<text transform="matrix(1 0 0 1 93.82 239.62)" class="st2 st15 st19">’</text>
<text transform="matrix(1 0 0 1 281.26 25.14)" class="st2 st20">Beetroot aptamer (DFAME)</text>
</svg>
