<?xml version="1.0" encoding="utf-8"?>
<!-- Generator: Adobe Illustrator 27.0.0, SVG Export Plug-In . SVG Version: 6.00 Build 0)  -->
<svg version="1.1" id="_图层_1" xmlns="http://www.w3.org/2000/svg" xmlns:xlink="http://www.w3.org/1999/xlink" x="0px" y="0px"
	 viewBox="0 0 800 400" style="enable-background:new 0 0 800 400;" xml:space="preserve">
<style type="text/css">
	.st0{fill:#8527B5;}
	.st1{opacity:0.5;fill:#0A0BFF;enable-background:new    ;}
	.st2{opacity:0.4;fill:#0A0BFF;enable-background:new    ;}
	.st3{fill:#B83332;}
	.st4{font-family:'ArialMT';}
	.st5{font-size:18.34px;}
	.st6{letter-spacing:-2;}
	.st7{fill:none;stroke:#000000;stroke-width:0.14;stroke-miterlimit:1.11;}
	.st8{font-size:12.95px;}
	.st9{fill:none;stroke:#000000;stroke-miterlimit:10;}
	.st10{fill:none;stroke:#000000;stroke-width:0.75;stroke-miterlimit:10;}
	.st11{stroke:#000000;stroke-miterlimit:10;}
	.st12{fill:#18988C;}
	.st13{fill:#F17D07;}
	.st14{fill:#C2B617;}
	.st15{fill:#2EA103;}
	.st16{fill:#084595;}
	.st17{fill:none;stroke:#000000;stroke-width:0.75;stroke-miterlimit:1.11;}
	.st18{fill:#FFFFFF;stroke:#000000;stroke-miterlimit:10;}
	
		.st19{opacity:0.8;fill:none;stroke:#666666;stroke-width:2;stroke-miterlimit:1.11;stroke-dasharray:0,0,0,0,0,0;enable-background:new    ;}
	.st20{fill:#FFFFFF;}
	.st21{font-size:8.63px;}
	.st22{font-size:16.18px;}
	.st23{font-size:20px;}
	.st24{letter-spacing:-1;}
</style>
<rect x="522.7" y="108" class="st0" width="14.1" height="29.3"/>
<polygon class="st1" points="515.8,157.5 495.6,128.7 495.6,88.5 515.8,117.3 "/>
<polygon class="st1" points="462.9,157.1 442.8,128.2 442.8,87.9 462.9,116.8 "/>
<polygon class="st2" points="409.4,158.8 389.2,130 389.2,89.8 409.4,118.6 "/>
<g id="ID000002">
	<text transform="matrix(1 0 0 1 19.43 106.1)" class="st3 st4 st5">G</text>
</g>
<g id="ID000003">
	<text transform="matrix(1 0 0 1 35.51 106.1)" class="st3 st4 st5 st6">A</text>
</g>
<g id="ID000004">
	<text transform="matrix(1 0 0 1 50.33 106.1)" class="st3 st4 st5">C</text>
</g>
<g id="ID000005">
	<text transform="matrix(1 0 0 1 65.15 106.1)" class="st3 st4 st5">G</text>
</g>
<g id="ID000006">
	<text transform="matrix(1 0 0 1 80.8 106.1)" class="st3 st4 st5">C</text>
</g>
<g id="ID000007">
	<text transform="matrix(1 0 0 1 95.62 106.1)" class="st3 st4 st5">G</text>
</g>
<g id="ID000008">
	<text transform="matrix(1 0 0 1 111.69 106.1)" class="st3 st4 st5 st6">A</text>
</g>
<g id="ID000009">
	<text transform="matrix(1 0 0 1 126.52 106.1)" class="st3 st4 st5">C</text>
</g>
<g id="ID000010">
	<text transform="matrix(1 0 0 1 141.75 106.1)" class="st3 st4 st5">C</text>
</g>
<g id="ID000011">
	<text transform="matrix(1 0 0 1 156.57 106.1)" class="st3 st4 st5">G</text>
</g>
<g id="ID000012">
	<line class="st7" x1="146.8" y1="68.9" x2="160.8" y2="93.3"/>
</g>
<g id="ID000013">
	<text transform="matrix(1 0 0 1 137.22 69.96)" class="st4 st8">10</text>
</g>
<g id="ID000014">
	<text transform="matrix(1 0 0 1 172.65 106.1)" class="st3 st4 st5 st6">A</text>
</g>
<g id="ID000015">
	<text transform="matrix(1 0 0 1 187.88 106.1)" class="st3 st4 st5 st6">A</text>
</g>
<g id="ID000016">
	<text transform="matrix(1 0 0 1 198.9 106.1)" class="st3 st4 st5">U</text>
</g>
<g id="ID000017">
	<text transform="matrix(1 0 0 1 172.22 136.59)" class="st3 st4 st5">C</text>
</g>
<g id="ID000018">
	<text transform="matrix(1 0 0 1 156.99 136.59)" class="st3 st4 st5">U</text>
</g>
<g id="ID000019">
	<text transform="matrix(1 0 0 1 141.33 136.59)" class="st3 st4 st5">G</text>
</g>
<g id="ID000020">
	<text transform="matrix(1 0 0 1 126.1 136.59)" class="st3 st4 st5">G</text>
</g>
<g id="ID000021">
	<text transform="matrix(1 0 0 1 111.27 136.59)" class="st3 st4 st5">U</text>
</g>
<g id="ID000022">
	<text transform="matrix(1 0 0 1 96.04 136.59)" class="st3 st4 st5">C</text>
</g>
<g id="ID000023">
	<line class="st7" x1="102.6" y1="149.6" x2="102.6" y2="139.5"/>
</g>
<g id="ID000024">
	<text transform="matrix(1 0 0 1 95.24 161.45)" class="st4 st8">90</text>
</g>
<g id="ID000025">
	<text transform="matrix(1 0 0 1 80.38 136.59)" class="st3 st4 st5">G</text>
</g>
<g id="ID000026">
	<text transform="matrix(1 0 0 1 65.57 136.59)" class="st3 st4 st5">C</text>
</g>
<g id="ID000027">
	<text transform="matrix(1 0 0 1 49.9 136.59)" class="st3 st4 st5">G</text>
</g>
<g id="ID000028">
	<text transform="matrix(1 0 0 1 35.08 136.59)" class="st3 st4 st5">U</text>
</g>
<g id="ID000029">
	<line class="st9" x1="41.7" y1="124.3" x2="41.7" y2="106.1"/>
</g>
<g id="ID000030">
	<line class="st9" x1="56.9" y1="124.3" x2="56.9" y2="106.1"/>
</g>
<g id="ID000031">
	<line class="st9" x1="72.1" y1="124.3" x2="72.1" y2="106.1"/>
</g>
<g id="ID000032">
	<line class="st9" x1="87.3" y1="124.3" x2="87.3" y2="106.1"/>
</g>
<g id="ID000033">
	<line class="st9" x1="102.6" y1="124.3" x2="102.6" y2="106.1"/>
</g>
<g id="ID000034">
	<line class="st9" x1="117.9" y1="124.3" x2="117.9" y2="106.1"/>
</g>
<g id="ID000035">
	<line class="st9" x1="133.1" y1="124.3" x2="133.1" y2="106.1"/>
</g>
<g id="ID000036">
	<line class="st9" x1="148.3" y1="124.3" x2="148.3" y2="106.1"/>
</g>
<g id="ID000037">
	<line class="st10" x1="184.9" y1="130.4" x2="229.9" y2="130.4"/>
</g>
<g id="ID000038">
	<polygon class="st11" points="209.3,132.7 208,131.5 206.7,131.2 205.5,131 202.9,130.4 205.5,129.8 206.7,129.7 208,129.2 
		209.3,128.1 	"/>
</g>
<g id="ID000040">
	<text transform="matrix(1 0 0 1 213.71 106.1)" class="st3 st4 st5">G</text>
</g>
<g id="ID000041">
	<text transform="matrix(1 0 0 1 229.79 106.1)" class="st3 st4 st5 st6">A</text>
</g>
<g id="ID000042">
	<text transform="matrix(1 0 0 1 245.02 106.1)" class="st3 st4 st5 st6">A</text>
</g>
<g id="ID000043">
	<text transform="matrix(1 0 0 1 260.26 106.1)" class="st3 st4 st5 st6">A</text>
</g>
<g id="ID000044">
	<text transform="matrix(1 0 0 1 275.08 106.1)" class="st3 st4 st5">U</text>
</g>
<g id="ID000045">
	<text transform="matrix(1 0 0 1 289.9 106.1)" class="st3 st4 st5">G</text>
</g>
<g id="ID000046">
	<text transform="matrix(1 0 0 1 305.13 106.1)" class="st3 st4 st5">G</text>
</g>
<g id="ID000047">
	<line class="st7" x1="312.1" y1="81.8" x2="312.1" y2="91.9"/>
</g>
<g id="ID000048">
	<text transform="matrix(1 0 0 1 303.68 81.5)" class="st4 st8">20</text>
</g>
<g id="ID000049">
	<text transform="matrix(1 0 0 1 320.79 106.1)" class="st3 st4 st5">U</text>
</g>
<g id="ID000050">
	<text transform="matrix(1 0 0 1 335.61 106.1)" class="st3 st4 st5">G</text>
</g>
<g id="ID000051">
	<text transform="matrix(1 0 0 1 351.69 106.1)" class="st3 st4 st5 st6">A</text>
</g>
<g id="ID000052">
	<text transform="matrix(1 0 0 1 366.93 106.1)" class="st3 st4 st5 st6">A</text>
</g>
<g id="ID000053">
	<text transform="matrix(1 0 0 1 453.29 121.34)" class="st12 st4 st5">G</text>
</g>
<g id="ID000054">
	<text transform="matrix(1 0 0 1 506.61 121.34)" class="st13 st4 st5">G</text>
</g>
<g id="ID000055">
	<text transform="matrix(1 0 0 1 434.24 136.59)" class="st12 st4 st5">G</text>
</g>
<g id="ID000056">
	<text transform="matrix(1 0 0 1 400.38 170.86)" class="st12 st4 st5">U</text>
</g>
<g id="ID000057">
	<text transform="matrix(1 0 0 1 380.9 136.59)" class="st12 st4 st5">G</text>
</g>
<g id="ID000058">
	<text transform="matrix(1 0 0 1 366.93 136.59)" class="st3 st4 st5 st6">A</text>
</g>
<g id="ID000059">
	<text transform="matrix(1 0 0 1 350.85 136.59)" class="st3 st4 st5">G</text>
</g>
<g id="ID000060">
	<text transform="matrix(1 0 0 1 336.04 136.59)" class="st3 st4 st5">C</text>
</g>
<g id="ID000061">
	<text transform="matrix(1 0 0 1 320.79 136.59)" class="st3 st4 st5">U</text>
</g>
<g id="ID000062">
	<text transform="matrix(1 0 0 1 305.55 136.59)" class="st3 st4 st5">C</text>
</g>
<g id="ID000063">
	<text transform="matrix(1 0 0 1 290.32 136.59)" class="st3 st4 st5">C</text>
</g>
<g id="ID000064">
	<line class="st7" x1="296.9" y1="148.6" x2="296.9" y2="138.4"/>
</g>
<g id="ID000065">
	<text transform="matrix(1 0 0 1 289.52 159.29)" class="st4 st8">80</text>
</g>
<g id="ID000066">
	<text transform="matrix(1 0 0 1 274.66 136.59)" class="st3 st4 st5">G</text>
</g>
<g id="ID000067">
	<text transform="matrix(1 0 0 1 259.85 136.59)" class="st3 st4 st5">U</text>
</g>
<g id="ID000068">
	<text transform="matrix(1 0 0 1 245.02 136.59)" class="st3 st4 st5 st6">A</text>
</g>
<g id="ID000069">
	<text transform="matrix(1 0 0 1 229.79 136.59)" class="st3 st4 st5 st6">A</text>
</g>
<g id="ID000070">
	<line class="st9" x1="266.5" y1="124.3" x2="266.5" y2="106.1"/>
</g>
<g id="ID000071">
	<polygon class="st11" points="282.9,118.2 283.1,118.1 283.3,118.1 283.5,118.1 283.7,118 283.8,118 284,117.9 284.1,117.8 
		284.4,117.7 284.6,117.6 284.7,117.5 284.8,117.4 284.9,117.3 285.1,117.1 285.2,116.9 285.3,116.7 285.4,116.6 285.4,116.4 
		285.5,116.2 285.7,116.1 285.7,115.9 285.8,115.7 285.8,115.4 285.8,115.3 285.8,115.1 285.8,114.9 285.8,114.7 285.7,114.6 
		285.7,114.4 285.5,114.1 285.5,113.9 285.4,113.8 285.3,113.6 285.2,113.5 285.1,113.3 285,113.2 284.9,113.1 284.8,112.8 
		284.6,112.7 284.5,112.6 284.2,112.5 284.1,112.4 283.9,112.4 283.7,112.3 283.6,112.2 283.4,112.2 283.2,112.2 283,112.1 
		282.9,112.1 282.6,112.1 282.4,112.1 282.2,112.2 282.1,112.2 281.9,112.2 281.7,112.3 281.5,112.4 281.3,112.4 281.1,112.5 
		281,112.6 280.8,112.7 280.7,112.8 280.6,113.1 280.4,113.2 280.3,113.3 280.1,113.5 280,113.6 279.9,113.8 279.9,113.9 
		279.8,114.1 279.8,114.4 279.7,114.6 279.7,114.7 279.7,114.9 279.6,115.1 279.6,115.3 279.7,115.4 279.7,115.7 279.7,115.9 
		279.8,116.1 279.8,116.2 279.9,116.4 280,116.6 280.1,116.7 280.3,116.9 280.4,117.1 280.5,117.3 280.6,117.4 280.8,117.5 
		280.9,117.6 281,117.7 281.2,117.8 281.5,117.9 281.6,118 281.8,118 282,118.1 282.1,118.1 282.3,118.1 282.5,118.2 282.7,118.2 	
		"/>
</g>
<g id="ID000072">
	<line class="st9" x1="296.9" y1="124.3" x2="296.9" y2="106.1"/>
</g>
<g id="ID000073">
	<line class="st9" x1="312.1" y1="124.3" x2="312.1" y2="106.1"/>
</g>
<g id="ID000075">
	<text transform="matrix(1 0 0 1 454.12 102.29)" class="st14 st4 st5 st6">A</text>
</g>
<g id="ID000076">
	<text transform="matrix(1 0 0 1 381.33 87.06)" class="st12 st4 st5">C</text>
</g>
<g id="ID000077">
	<text transform="matrix(1 0 0 1 434.24 87.06)" class="st12 st4 st5">G</text>
</g>
<g id="ID000078">
	<text transform="matrix(1 0 0 1 487.57 87.06)" class="st12 st4 st5">G</text>
</g>
<g id="ID000079">
	<line class="st7" x1="495.6" y1="63.8" x2="495.6" y2="73.9"/>
</g>
<g id="ID000080">
	<text transform="matrix(1 0 0 1 487.16 64.51)" class="st4 st8">30</text>
</g>
<g id="ID000081">
	<text transform="matrix(1 0 0 1 518.04 102.29)" class="st13 st4 st5">G</text>
</g>
<g id="ID000082">
	<text transform="matrix(1 0 0 1 537.52 102.29)" class="st15 st4 st5">U</text>
</g>
<g id="ID000083">
	<text transform="matrix(1 0 0 1 552.75 102.29)" class="st16 st4 st5">C</text>
</g>
<g id="ID000084">
	<text transform="matrix(1 0 0 1 552.75 186.1)" class="st16 st4 st5">U</text>
</g>
<g id="ID000085">
	<text transform="matrix(1 0 0 1 552.33 132.77)" class="st16 st4 st5">G</text>
</g>
<g id="ID000086">
	<text transform="matrix(1 0 0 1 537.93 132.77)" class="st13 st4 st5 st6">A</text>
</g>
<g id="ID000087">
	<text transform="matrix(1 0 0 1 506.61 170.86)" class="st12 st4 st5">G</text>
</g>
<g id="ID000088">
	<text transform="matrix(1 0 0 1 400.38 121.34)" class="st12 st4 st5">U</text>
</g>
<g id="ID000089">
	<text transform="matrix(1 0 0 1 442.46 183.89)" class="st14 st4 st5 st6">A</text>
</g>
<g id="ID000090">
	<text transform="matrix(1 0 0 1 453.29 170.53)" class="st12 st4 st5">G</text>
</g>
<g id="ID000091">
	<text transform="matrix(1 0 0 1 465.42 183.94)" class="st15 st4 st5 st6">A</text>
</g>
<g id="ID000092">
	<text transform="matrix(1 0 0 1 486.49 136.59)" class="st12 st4 st5">G</text>
</g>
<g id="ID000093">
	<line class="st7" x1="510.5" y1="200.6" x2="498" y2="137.1"/>
</g>
<g id="ID000094">
	<text transform="matrix(1 0 0 1 502.16 207.5)" class="st4 st8">70</text>
</g>
<g id="ID000095">
	<text transform="matrix(1 0 0 1 461.33 136.59)" class="st14 st4 st5">U</text>
</g>
<g id="ID000096">
	<line class="st9" x1="544.1" y1="120.5" x2="544.1" y2="102.2"/>
</g>
<g id="ID000097">
	<line class="st10" x1="584.4" y1="96.1" x2="566.5" y2="96.1"/>
</g>
<g id="ID000098">
	<polygon class="st11" points="573.8,93.9 575,94.9 576.3,95.4 577.5,95.5 580.1,96.1 577.5,96.7 576.3,96.9 575,97.2 573.8,98.4 	
		"/>
</g>
<g id="ID000099">
	<line class="st9" x1="559.3" y1="120.5" x2="559.3" y2="102.2"/>
</g>
<g id="ID000101">
	<text transform="matrix(1 0 0 1 583.36 102.29)" class="st16 st4 st5">C</text>
</g>
<g id="ID000102">
	<text transform="matrix(1 0 0 1 599.02 102.29)" class="st16 st4 st5 st6">A</text>
</g>
<g id="ID000103">
	<text transform="matrix(1 0 0 1 608.95 148.01)" class="st16 st4 st5">U</text>
</g>
<g id="ID000104">
	<text transform="matrix(1 0 0 1 598.6 132.77)" class="st16 st4 st5">U</text>
</g>
<g id="ID000105">
	<text transform="matrix(1 0 0 1 582.94 132.77)" class="st16 st4 st5">G</text>
</g>
<g id="ID000106">
	<line class="st7" x1="604.5" y1="160.3" x2="593.1" y2="131.5"/>
</g>
<g id="ID000107">
	<text transform="matrix(1 0 0 1 595.76 170.69)" class="st4 st8">60</text>
</g>
<g id="ID000108">
	<text transform="matrix(1 0 0 1 537.52 186.1)" class="st15 st4 st5">U</text>
</g>
<g id="ID000109">
	<line class="st9" x1="591" y1="120.5" x2="591" y2="102.2"/>
</g>
<g id="ID000110">
	<line class="st9" x1="605.2" y1="120.5" x2="605.2" y2="102.2"/>
</g>
<g id="ID000112">
	<text transform="matrix(1 0 0 1 617.22 102.29)" class="st16 st4 st5">G</text>
</g>
<g id="ID000113">
	<text transform="matrix(1 0 0 1 632.88 102.29)" class="st16 st4 st5">C</text>
</g>
<g id="ID000114">
	<text transform="matrix(1 0 0 1 648.11 102.29)" class="st16 st4 st5">C</text>
</g>
<g id="ID000115">
	<text transform="matrix(1 0 0 1 662.94 102.29)" class="st16 st4 st5">G</text>
</g>
<g id="ID000116">
	<text transform="matrix(1 0 0 1 678.17 102.29)" class="st16 st4 st5">G</text>
</g>
<g id="ID000117">
	<line class="st7" x1="686.6" y1="78.1" x2="686.6" y2="88.2"/>
</g>
<g id="ID000118">
	<text transform="matrix(1 0 0 1 678.01 76.3)" class="st4 st8">40</text>
</g>
<g id="ID000119">
	<text transform="matrix(1 0 0 1 693.83 102.29)" class="st16 st4 st5">C</text>
</g>
<g id="ID000120">
	<text transform="matrix(1 0 0 1 709.06 102.29)" class="st16 st4 st5">U</text>
</g>
<g id="ID000121">
	<text transform="matrix(1 0 0 1 723.89 102.29)" class="st16 st4 st5">G</text>
</g>
<g id="ID000122">
	<text transform="matrix(1 0 0 1 739.12 132.77)" class="st16 st4 st5">G</text>
</g>
<g id="ID000123">
	<text transform="matrix(1 0 0 1 724.31 132.77)" class="st16 st4 st5">C</text>
</g>
<g id="ID000124">
	<line class="st7" x1="731.9" y1="143.7" x2="731.9" y2="133.5"/>
</g>
<g id="ID000125">
	<text transform="matrix(1 0 0 1 722.98 154.37)" class="st4 st8">50</text>
</g>
<g id="ID000126">
	<text transform="matrix(1 0 0 1 709.48 132.77)" class="st16 st4 st5 st6">A</text>
</g>
<g id="ID000127">
	<text transform="matrix(1 0 0 1 693.41 132.77)" class="st16 st4 st5">G</text>
</g>
<g id="ID000128">
	<text transform="matrix(1 0 0 1 678.59 132.77)" class="st16 st4 st5">C</text>
</g>
<g id="ID000129">
	<text transform="matrix(1 0 0 1 663.36 132.77)" class="st16 st4 st5">C</text>
</g>
<g id="ID000130">
	<text transform="matrix(1 0 0 1 647.69 132.77)" class="st16 st4 st5">G</text>
</g>
<g id="ID000131">
	<text transform="matrix(1 0 0 1 632.46 132.77)" class="st16 st4 st5">G</text>
</g>
<g id="ID000132">
	<text transform="matrix(1 0 0 1 617.64 132.77)" class="st16 st4 st5">C</text>
</g>
<g id="ID000133">
	<line class="st9" x1="624.2" y1="120.5" x2="624.2" y2="102.2"/>
</g>
<g id="ID000134">
	<line class="st9" x1="639.5" y1="120.5" x2="639.5" y2="102.2"/>
</g>
<g id="ID000135">
	<line class="st9" x1="654.7" y1="120.5" x2="654.7" y2="102.2"/>
</g>
<g id="ID000136">
	<line class="st9" x1="669.9" y1="120.5" x2="669.9" y2="102.2"/>
</g>
<g id="ID000137">
	<line class="st9" x1="685.1" y1="120.5" x2="685.1" y2="102.2"/>
</g>
<g id="ID000138">
	<line class="st9" x1="700.4" y1="120.5" x2="700.4" y2="102.2"/>
</g>
<g id="ID000139">
	<line class="st9" x1="715.6" y1="120.5" x2="715.6" y2="102.2"/>
</g>
<g id="ID000140">
	<line class="st9" x1="730.8" y1="120.5" x2="730.8" y2="102.2"/>
</g>
<g id="ID000142">
	<line class="st10" x1="466" y1="98.2" x2="507.8" y2="113.1"/>
</g>
<g id="ID000143">
	<polygon class="st11" points="488.3,108.4 487.5,106.9 486.5,106.2 485.4,105.5 483.1,104.1 485.7,104.4 487,104.7 488.3,104.8 
		489.9,104.1 	"/>
</g>
<g id="ID000144">
	<polyline class="st10" points="545.2,186 545.2,191.3 591,191.3 591,132.7 	"/>
</g>
<g id="ID000145">
	<polygon class="st11" points="572.1,193.7 570.8,192.5 569.7,192.1 568.3,191.9 565.8,191.3 568.3,190.8 569.7,190.5 570.8,190.2 
		572.1,189 	"/>
</g>
<g id="ID000146">
	<line class="st10" x1="559.3" y1="132.7" x2="559.3" y2="173.8"/>
</g>
<g id="ID000147">
	<polygon class="st11" points="557,155.1 558.1,153.9 558.5,152.7 558.8,151.4 559.3,148.8 559.8,151.4 560,152.7 560.5,153.9 
		561.5,155.1 	"/>
</g>
<g id="ID000148">
	<line class="st10" x1="519.6" y1="157.7" x2="542.5" y2="129.1"/>
</g>
<g id="ID000149">
	<polygon class="st11" points="534.9,142.7 533.2,142.9 532.1,143.7 531.1,144.6 529.1,146.2 530.3,143.9 530.9,142.7 531.3,141.6 
		531.2,139.8 	"/>
</g>
<g id="ID000150">
	<polyline class="st10" points="408.5,120.3 408.5,148.4 515.2,148.4 515.2,157.6 	"/>
</g>
<g id="ID000151">
	<polygon class="st11" points="462.2,150.7 460.9,149.5 459.6,149.1 458.4,149 455.8,148.4 458.4,147.8 459.6,147.6 460.9,147.3 
		462.2,146.1 	"/>
</g>
<g id="ID000152">
	<line class="st17" x1="448.5" y1="173.1" x2="408.5" y2="120.3"/>
</g>
<g id="ID000153">
	<polygon class="st11" points="423.5,135.7 423.2,137.4 423.5,138.7 424,139.9 424.9,142.4 423,140.5 422.3,139.5 421.3,138.6 
		419.7,138.1 	"/>
</g>
<g id="ID000154">
	<polyline class="st10" points="494.5,137.2 494.5,177.6 476.8,177.6 	"/>
</g>
<g id="ID000155">
	<polygon class="st11" points="484,175.4 485.3,176.6 486.6,176.9 487.8,177.2 490.3,177.8 487.8,178.3 486.6,178.6 485.3,178.9 
		484,180.1 	"/>
</g>
<g id="ID000156">
	<line class="st10" x1="507.5" y1="115.1" x2="466.4" y2="115.1"/>
</g>
<g id="ID000157">
	<polygon class="st11" points="485,112.8 486.2,114 487.5,114.4 488.8,114.6 491.3,115.1 488.8,115.8 487.5,115.9 486.2,116.3 
		485,117.5 	"/>
</g>
<g id="ID000158">
	<line class="st10" x1="473.9" y1="130.4" x2="488.5" y2="130.4"/>
</g>
<g id="ID000159">
	<polygon class="st11" points="483.1,132.7 481.8,131.5 480.6,131.2 479.3,131 476.8,130.4 479.3,129.8 480.6,129.7 481.8,129.2 
		483.1,128.1 	"/>
</g>
<g id="ID000160">
	<line class="st10" x1="521.7" y1="91.3" x2="502.2" y2="81.4"/>
</g>
<g id="ID000161">
	<polygon class="st11" points="510.7,83.5 511.4,85.1 512.3,86 513.4,86.7 515.4,88.4 512.9,87.7 511.6,87.4 510.3,87.2 508.7,87.6 
			"/>
</g>
<g id="ID000162">
	<line class="st10" x1="488.5" y1="80.9" x2="447.3" y2="80.9"/>
</g>
<g id="ID000163">
	<polygon class="st11" points="466,78.5 467.2,79.7 468.4,80.2 469.7,80.3 472.3,80.9 469.7,81.4 468.4,81.7 467.2,82 466,83.2 	"/>
</g>
<g id="ID000164">
	<polyline class="st10" points="454.4,113.5 430.9,99.9 379.1,99.9 	"/>
</g>
<g id="ID000165">
	<polygon class="st11" points="410,97.6 411.2,98.8 412.5,99.1 413.8,99.4 416.3,99.9 413.8,100.4 412.5,100.7 411.2,101.1 
		410,102.2 	"/>
</g>
<g id="ID000166">
	<line class="st10" x1="390.4" y1="135.6" x2="406.5" y2="157.3"/>
</g>
<g id="ID000167">
	<polygon class="st11" points="397.8,150 398,148.2 397.4,146.9 396.9,145.9 395.8,143.5 397.8,145.1 398.7,146.1 399.7,146.8 
		401.4,147.2 	"/>
</g>
<g id="ID000170">
	<line class="st10" x1="435.1" y1="80.9" x2="394" y2="80.9"/>
</g>
<g id="ID000171">
	<polygon class="st11" points="412.6,78.5 413.8,79.7 415.1,80.2 416.4,80.3 419,80.9 416.4,81.4 415.1,81.7 413.8,82 412.6,83.2 	
		"/>
</g>
<g id="ID000172">
	<line class="st10" x1="412.5" y1="164.8" x2="442.9" y2="164.8"/>
</g>
<g id="ID000172-2">
	<line class="st10" x1="442.4" y1="165" x2="442.4" y2="138"/>
</g>
<g id="ID000173">
	<polygon class="st11" points="428,166.7 426.7,165.6 425.4,165.3 424.1,165.1 421.6,164.5 424.1,164 425.4,163.8 426.7,163.3 
		427.9,162.2 	"/>
</g>
<g id="ID000174">
	<line class="st10" x1="393.9" y1="82.1" x2="454.3" y2="94.8"/>
</g>
<g id="ID000175">
	<polygon class="st11" points="427.9,91.8 426.9,90.4 425.7,89.8 424.5,89.3 422.1,88.2 424.7,88.1 426,88.2 427.3,88.1 428.8,87.3 
			"/>
</g>
<g id="ID000176">
	<line class="st10" x1="449.5" y1="130.4" x2="463.9" y2="130.4"/>
</g>
<g id="ID000177">
	<polygon class="st11" points="457.5,132.7 456.2,131.5 455.1,131.2 453.8,131 451.2,130.4 453.8,129.8 455.1,129.7 456.2,129.2 
		457.5,128.1 	"/>
</g>
<g id="ID000178">
	<line class="st9" x1="342.6" y1="124.3" x2="342.6" y2="106.1"/>
</g>
<g id="ID000179">
	<polygon class="st11" points="342.7,118.2 343,118.1 343.2,118.1 343.4,118.1 343.5,118 343.7,118 343.9,117.9 344,117.8 
		344.2,117.7 344.4,117.6 344.6,117.5 344.7,117.4 344.8,117.3 345,117.1 345.1,116.9 345.2,116.7 345.2,116.6 345.3,116.4 
		345.4,116.2 345.5,116.1 345.5,115.9 345.5,115.7 345.6,115.4 345.6,115.3 345.6,115.1 345.6,114.9 345.6,114.7 345.5,114.6 
		345.5,114.4 345.4,114.1 345.4,113.9 345.3,113.8 345.2,113.6 345.1,113.5 345,113.3 344.9,113.2 344.8,113.1 344.6,112.8 
		344.5,112.7 344.4,112.6 344.1,112.5 344,112.4 343.8,112.4 343.6,112.3 343.5,112.2 343.3,112.2 343.1,112.2 342.8,112.1 
		342.6,112.1 342.5,112.1 342.3,112.1 342.1,112.2 341.9,112.2 341.8,112.2 341.5,112.3 341.3,112.4 341.2,112.4 341,112.5 
		340.9,112.6 340.7,112.7 340.6,112.8 340.4,113.1 340.2,113.2 340.1,113.3 340,113.5 339.9,113.6 339.8,113.8 339.8,113.9 
		339.7,114.1 339.6,114.4 339.6,114.6 339.6,114.7 339.6,114.9 339.5,115.1 339.5,115.3 339.6,115.4 339.6,115.7 339.6,115.9 
		339.7,116.1 339.7,116.2 339.8,116.4 339.9,116.6 340,116.7 340.1,116.9 340.2,117.1 340.4,117.3 340.5,117.4 340.7,117.5 
		340.8,117.6 340.9,117.7 341.1,117.8 341.3,117.9 341.4,118 341.7,118 341.9,118.1 342,118.1 342.2,118.1 342.4,118.2 342.6,118.2 
			"/>
</g>
<g id="ID000180">
	<line class="st9" x1="183.7" y1="126.8" x2="215.7" y2="103.5"/>
</g>
<g id="ID000181">
	<polygon class="st11" points="197.4,117.1 197.5,117.3 197.6,117.4 197.8,117.5 197.9,117.6 198.1,117.7 198.3,117.8 198.5,117.9 
		198.6,118 198.8,118 199,118.1 199.2,118.1 199.3,118.1 199.6,118.2 199.8,118.2 200,118.1 200.2,118.1 200.3,118.1 200.5,118.1 
		200.7,118 200.9,117.9 201.1,117.9 201.3,117.8 201.4,117.7 201.6,117.6 201.7,117.5 201.8,117.4 202,117.2 202.1,117.1 
		202.2,116.8 202.4,116.7 202.5,116.5 202.6,116.4 202.6,116.2 202.7,116 202.7,115.9 202.7,115.7 202.8,115.4 202.8,115.2 
		202.8,115.1 202.8,114.9 202.8,114.7 202.7,114.5 202.7,114.4 202.6,114.1 202.6,113.9 202.5,113.8 202.4,113.6 202.2,113.5 
		202.1,113.3 202,113.2 201.9,113 201.7,112.8 201.6,112.7 201.4,112.6 201.3,112.5 201.1,112.4 201,112.3 200.7,112.3 200.5,112.2 
		200.4,112.2 200.2,112.1 200,112.1 199.8,112.1 199.7,112.1 199.4,112.1 199.2,112.2 199,112.2 198.8,112.2 198.7,112.3 
		198.5,112.4 198.4,112.4 198.1,112.5 197.9,112.6 197.8,112.7 197.7,113 197.5,113.1 197.4,113.2 197.3,113.3 197.2,113.5 
		197.1,113.6 197,113.8 197,114 196.9,114.1 196.8,114.4 196.8,114.6 196.8,114.8 196.8,114.9 196.6,115.1 196.8,115.3 196.8,115.6 
		196.8,115.8 196.8,115.9 196.9,116.1 196.9,116.3 197,116.4 197.1,116.6 197.2,116.7 197.3,116.9 	"/>
</g>
<g id="ID000182">
	<polyline class="st9" points="163.5,136.5 163.5,141.9 194.1,141.9 194.1,106.1 	"/>
</g>
<g id="ID000183">
	<polygon class="st11" points="175.7,142 175.7,142.2 175.8,142.4 175.8,142.6 175.9,142.7 175.9,142.9 176,143.2 176.1,143.3 
		176.2,143.5 176.4,143.6 176.5,143.8 176.6,143.9 176.7,144 176.9,144.1 177,144.2 177.2,144.5 177.3,144.5 177.5,144.6 
		177.6,144.7 177.9,144.8 178.1,144.8 178.3,144.8 178.4,144.9 178.6,144.9 178.8,144.9 179.1,144.9 179.2,144.8 179.4,144.8 
		179.6,144.8 179.8,144.7 179.9,144.7 180.1,144.6 180.4,144.5 180.5,144.4 180.7,144.2 180.8,144.1 180.9,144 181.1,143.8 
		181.2,143.7 181.3,143.5 181.4,143.4 181.5,143.2 181.5,143.1 181.6,142.8 181.8,142.6 181.8,142.5 181.8,142.3 181.9,142.1 
		181.9,141.9 181.9,141.8 181.9,141.6 181.8,141.3 181.8,141.1 181.8,141 181.6,140.8 181.5,140.6 181.5,140.5 181.4,140.2 
		181.3,140.1 181.2,139.9 181.1,139.8 180.9,139.6 180.8,139.5 180.7,139.4 180.5,139.3 180.4,139.2 180.1,139.1 179.9,139.1 
		179.8,139 179.6,138.9 179.4,138.9 179.2,138.9 179.1,138.7 178.8,138.7 178.6,138.7 178.4,138.7 178.3,138.9 178.1,138.9 
		177.9,138.9 177.6,139 177.5,139.1 177.3,139.2 177.2,139.2 177,139.4 176.9,139.5 176.7,139.6 176.6,139.7 176.5,139.8 176.4,140 
		176.2,140.1 176.1,140.4 176,140.5 175.9,140.7 175.9,140.9 175.8,141 175.8,141.2 175.7,141.4 175.7,141.7 175.7,141.9 	"/>
</g>
<g id="ID000184">
	<line class="st9" x1="387.8" y1="124.3" x2="387.8" y2="86.9"/>
</g>
<g id="ID000185">
	<polygon class="st11" points="388,108.6 388.3,108.6 388.5,108.6 388.6,108.5 388.8,108.5 389,108.4 389.2,108.4 389.4,108.3 
		389.6,108.2 389.7,108.1 389.9,108 390,107.9 390.1,107.7 390.2,107.6 390.3,107.3 390.4,107.2 390.5,107 390.6,106.9 390.8,106.7 
		390.8,106.5 390.9,106.4 390.9,106.2 391,105.9 391,105.7 391,105.6 391,105.4 390.9,105.2 390.9,105 390.9,104.9 390.8,104.7 
		390.6,104.4 390.6,104.3 390.5,104.1 390.4,103.9 390.3,103.8 390.2,103.7 390,103.5 389.9,103.3 389.8,103.2 389.6,103.1 
		389.5,103 389.2,102.9 389.1,102.8 388.9,102.8 388.7,102.7 388.6,102.7 388.4,102.6 388.2,102.6 388,102.6 387.8,102.6 
		387.6,102.6 387.4,102.6 387.2,102.7 387,102.7 386.9,102.8 386.6,102.8 386.4,102.9 386.3,103 386.1,103.1 386,103.2 385.9,103.3 
		385.7,103.5 385.6,103.7 385.5,103.8 385.4,103.9 385.2,104.1 385.1,104.3 385,104.4 385,104.7 384.9,104.9 384.9,105 384.8,105.2 
		384.8,105.4 384.8,105.6 384.8,105.7 384.8,105.9 384.9,106.2 384.9,106.4 384.9,106.5 385,106.7 385.1,106.9 385.1,107 
		385.2,107.2 385.4,107.3 385.6,107.6 385.7,107.7 385.8,107.9 385.9,108 386.1,108.1 386.2,108.2 386.4,108.3 386.5,108.4 
		386.8,108.4 387,108.5 387.1,108.5 387.3,108.6 387.5,108.6 387.7,108.6 387.8,108.6 	"/>
</g>
<g id="ID000186">
	<line class="st9" x1="327.3" y1="124.3" x2="327.3" y2="106.1"/>
</g>
<g id="ID000187">
	<polygon class="st11" points="327.5,118.2 327.7,118.1 328,118.1 328.1,118.1 328.3,118 328.5,118 328.6,117.9 328.8,117.8 
		329,117.7 329.1,117.6 329.2,117.5 329.5,117.4 329.6,117.3 329.7,117.1 329.8,116.9 329.9,116.7 330,116.6 330.1,116.4 
		330.2,116.2 330.2,116.1 330.3,115.9 330.3,115.7 330.3,115.4 330.4,115.3 330.4,115.1 330.3,114.9 330.3,114.7 330.3,114.6 
		330.3,114.4 330.2,114.1 330.1,113.9 330.1,113.8 330,113.6 329.9,113.5 329.8,113.3 329.7,113.2 329.6,113.1 329.4,112.8 
		329.2,112.7 329,112.6 328.9,112.5 328.7,112.4 328.6,112.4 328.4,112.3 328.2,112.2 328.1,112.2 327.9,112.2 327.6,112.1 
		327.4,112.1 327.3,112.1 327.1,112.1 326.9,112.2 326.7,112.2 326.4,112.2 326.3,112.3 326.1,112.4 325.9,112.4 325.8,112.5 
		325.6,112.6 325.5,112.7 325.4,112.8 325.1,113.1 325,113.2 324.9,113.3 324.8,113.5 324.7,113.6 324.6,113.8 324.5,113.9 
		324.5,114.1 324.4,114.4 324.4,114.6 324.3,114.7 324.3,114.9 324.3,115.1 324.3,115.3 324.3,115.4 324.4,115.7 324.4,115.9 
		324.4,116.1 324.5,116.2 324.6,116.4 324.7,116.6 324.7,116.7 324.8,116.9 324.9,117.1 325.1,117.3 325.3,117.4 325.4,117.5 
		325.6,117.6 325.7,117.7 325.9,117.8 326,117.9 326.2,118 326.4,118 326.5,118.1 326.8,118.1 327,118.1 327.2,118.2 327.3,118.2 	
		"/>
</g>
<g id="ID000188">
	<line class="st9" x1="411.4" y1="160.5" x2="455.8" y2="119.3"/>
</g>
<g id="ID000189">
	<polygon class="st18" points="433.3,135.7 428.8,139.8 432.9,144.4 437.4,140.1 	"/>
</g>
<g id="ID000190">
	<polygon class="st18" points="417,155.6 417.2,155.8 417.3,155.9 417.5,156 417.6,156.1 417.8,156.1 417.9,156.2 418.2,156.3 
		418.4,156.3 418.6,156.4 418.7,156.4 418.9,156.4 419.1,156.4 419.3,156.4 419.6,156.4 419.7,156.4 419.9,156.3 420.1,156.3 
		420.2,156.2 420.4,156.1 420.6,156.1 420.8,156 421,155.9 421.1,155.7 421.2,155.6 421.4,155.5 421.5,155.4 421.6,155.1 421.7,155 
		421.8,154.8 421.9,154.7 421.9,154.5 422,154.3 422,154.2 422.1,154 422.1,153.7 422.1,153.5 422.1,153.3 422.1,153.2 422.1,153 
		422,152.8 422,152.6 421.9,152.4 421.9,152.2 421.8,152 421.7,151.9 421.6,151.7 421.5,151.6 421.4,151.4 421.3,151.3 421.2,151.1 
		421,151 420.9,150.9 420.6,150.8 420.5,150.7 420.3,150.6 420.1,150.5 420,150.5 419.8,150.4 419.6,150.4 419.5,150.4 419.2,150.4 
		419,150.4 418.8,150.4 418.6,150.4 418.5,150.4 418.3,150.5 418,150.5 417.9,150.6 417.7,150.7 417.5,150.8 417.4,150.9 417.2,151 
		417.1,151.1 417,151.3 416.9,151.4 416.6,151.6 416.5,151.7 416.4,151.9 416.4,152.1 416.3,152.2 416.2,152.4 416.2,152.7 
		416.1,152.8 416.1,153 416.1,153.2 416.1,153.4 416.1,153.5 416.1,153.7 416.1,154 416.1,154.2 416.2,154.3 416.3,154.5 
		416.3,154.7 416.4,154.8 416.5,155 416.6,155.1 416.8,155.4 416.9,155.5 	"/>
</g>
<g id="ID000191">
	<line class="st9" x1="240.2" y1="126.1" x2="262.1" y2="104.2"/>
</g>
<g id="ID000192">
	<polygon class="st11" points="250.2,111.3 255,116.2 256.7,109.5 	"/>
</g>
<g id="ID000193">
	<polygon class="st11" points="246.4,120.3 246.5,120.4 246.6,120.5 246.8,120.6 247,120.7 247.1,120.7 247.4,120.8 247.6,120.8 
		247.7,120.9 247.9,120.9 248.1,121.1 248.3,121.1 248.4,121.1 248.6,120.9 248.9,120.9 249.1,120.9 249.2,120.8 249.4,120.8 
		249.6,120.7 249.7,120.6 249.9,120.5 250.2,120.5 250.3,120.3 250.4,120.2 250.6,120.1 250.7,120 250.8,119.8 250.9,119.7 
		251,119.4 251.1,119.3 251.2,119.1 251.2,118.9 251.4,118.8 251.4,118.6 251.4,118.3 251.4,118.1 251.4,117.9 251.4,117.8 
		251.4,117.6 251.4,117.4 251.4,117.2 251.2,117.1 251.2,116.8 251.1,116.6 251,116.5 250.9,116.3 250.8,116.2 250.7,116 
		250.6,115.9 250.5,115.8 250.3,115.7 250.2,115.4 249.9,115.3 249.8,115.3 249.6,115.2 249.5,115.1 249.3,115 249.1,115 248.9,115 
		248.8,114.9 248.5,114.9 248.3,114.9 248.1,114.9 248,114.9 247.8,115 247.6,115 247.4,115.1 247.2,115.1 247,115.2 246.8,115.3 
		246.7,115.4 246.5,115.6 246.4,115.7 246.3,115.8 246.1,115.9 245.9,116.1 245.8,116.2 245.7,116.4 245.6,116.5 245.5,116.7 
		245.5,116.8 245.4,117.1 245.4,117.3 245.3,117.5 245.3,117.6 245.3,117.8 245.3,118 245.3,118.2 245.3,118.5 245.4,118.6 
		245.4,118.8 245.5,119 245.5,119.1 245.6,119.3 245.7,119.5 245.8,119.7 245.9,119.9 246.1,120 246.2,120.1 	"/>
</g>
<g id="ID000194">
	<line class="st9" x1="544.1" y1="132.7" x2="544.1" y2="173.8"/>
</g>
<g id="ID000195">
	<polygon class="st11" points="544.3,160.2 544.5,160.2 544.6,160.2 544.8,160.2 545,160.1 545.2,160 545.4,160 545.6,159.9 
		545.7,159.8 545.9,159.7 546,159.6 546.1,159.5 546.3,159.2 546.5,159.1 546.6,158.9 546.7,158.8 546.8,158.6 546.9,158.5 
		546.9,158.3 547,158.1 547,157.9 547.1,157.7 547.1,157.5 547.1,157.4 547.1,157.2 547.1,157 547.1,156.8 547.1,156.6 547,156.4 
		547,156.2 546.9,156 546.8,155.9 546.7,155.7 546.6,155.6 546.5,155.4 546.3,155.2 546.2,155 546.1,154.9 545.9,154.8 545.8,154.7 
		545.6,154.6 545.5,154.5 545.3,154.4 545.2,154.4 544.9,154.3 544.7,154.3 544.5,154.2 544.4,154.2 544.2,154.2 544,154.2 
		543.8,154.2 543.5,154.2 543.4,154.3 543.2,154.3 543,154.4 542.9,154.4 542.7,154.5 542.5,154.6 542.3,154.7 542.1,154.8 
		542,154.9 541.9,155 541.8,155.2 541.6,155.4 541.5,155.6 541.4,155.7 541.4,155.9 541.3,156 541.2,156.2 541.2,156.4 541,156.6 
		541,156.8 541,157 541,157.2 541,157.4 541,157.5 541,157.7 541,157.9 541.2,158.1 541.3,158.3 541.3,158.5 541.4,158.6 
		541.5,158.8 541.6,158.9 541.7,159.1 541.8,159.2 541.9,159.5 542.1,159.6 542.2,159.7 542.5,159.8 542.6,159.9 542.8,160 
		542.9,160 543.1,160.1 543.3,160.2 543.5,160.2 543.6,160.2 543.9,160.2 544.1,160.2 	"/>
</g>
<g id="ID000196">
	<polygon class="st11" points="541,146.2 541,152.3 547.1,152.3 547.1,146.2 	"/>
</g>
<g id="ID000197">
	<line class="st9" x1="357.8" y1="124.3" x2="357.8" y2="106.1"/>
</g>
<g id="ID000198">
	<polygon class="st11" points="358.1,118.2 358.2,118.1 358.4,118.1 358.6,118.1 358.8,118 358.9,118 359.1,117.9 359.4,117.8 
		359.5,117.7 359.7,117.6 359.8,117.5 359.9,117.4 360.1,117.3 360.2,117.1 360.3,116.9 360.4,116.7 360.5,116.6 360.5,116.4 
		360.6,116.2 360.8,116.1 360.8,115.9 360.9,115.7 360.9,115.4 360.9,115.3 360.9,115.1 360.9,114.9 360.9,114.7 360.9,114.6 
		360.8,114.4 360.8,114.1 360.6,113.9 360.5,113.8 360.4,113.6 360.3,113.5 360.2,113.3 360.1,113.2 360,113.1 359.9,112.8 
		359.7,112.7 359.6,112.6 359.4,112.5 359.2,112.4 359,112.4 358.8,112.3 358.7,112.2 358.5,112.2 358.3,112.2 358.2,112.1 
		358,112.1 357.7,112.1 357.5,112.1 357.3,112.2 357.2,112.2 357,112.2 356.8,112.3 356.5,112.4 356.4,112.4 356.2,112.5 
		356.1,112.6 355.9,112.7 355.8,112.8 355.7,113.1 355.5,113.2 355.4,113.3 355.2,113.5 355.1,113.6 355,113.8 355,113.9 
		354.9,114.1 354.9,114.4 354.8,114.6 354.8,114.7 354.8,114.9 354.8,115.1 354.8,115.3 354.8,115.4 354.8,115.7 354.8,115.9 
		354.9,116.1 354.9,116.2 355,116.4 355.1,116.6 355.2,116.7 355.4,116.9 355.5,117.1 355.6,117.3 355.7,117.4 355.9,117.5 
		356,117.6 356.2,117.7 356.3,117.8 356.5,117.9 356.6,118 356.9,118 357.1,118.1 357.2,118.1 357.4,118.1 357.6,118.2 357.8,118.2 
			"/>
</g>
<g id="ID000199">
	<line class="st9" x1="405.6" y1="108.6" x2="389.1" y2="87.3"/>
</g>
<g id="ID000200">
	<polygon class="st18" points="389.5,93.3 393.2,98.2 398.1,94.5 394.3,89.7 	"/>
</g>
<g id="ID000201">
	<polygon class="st18" points="403.4,106.5 403.5,106.3 403.6,106.2 403.8,106.1 403.9,105.8 404,105.7 404,105.5 404.1,105.4 
		404.2,105.2 404.2,105 404.4,104.9 404.4,104.7 404.4,104.4 404.5,104.2 404.5,104 404.4,103.9 404.4,103.7 404.4,103.5 
		404.2,103.2 404.2,103.1 404.1,102.9 404,102.7 403.9,102.6 403.9,102.4 403.7,102.3 403.6,102.2 403.5,101.9 403.4,101.8 
		403.2,101.7 403,101.6 402.8,101.5 402.7,101.4 402.5,101.3 402.3,101.3 402.2,101.2 402,101.2 401.8,101.1 401.5,101.1 
		401.4,101.1 401.2,101.1 401,101.1 400.8,101.2 400.7,101.2 400.5,101.3 400.2,101.3 400,101.4 399.9,101.5 399.7,101.6 
		399.6,101.6 399.4,101.7 399.3,101.9 399.2,102.1 399.1,102.2 399,102.4 398.7,102.5 398.6,102.7 398.6,102.8 398.5,103 
		398.4,103.2 398.4,103.5 398.3,103.6 398.3,103.8 398.3,104 398.3,104.2 398.3,104.3 398.3,104.5 398.4,104.8 398.4,105 
		398.5,105.1 398.5,105.3 398.6,105.5 398.7,105.6 398.8,105.8 399,105.9 399.1,106.2 399.2,106.3 399.3,106.4 399.4,106.5 
		399.6,106.7 399.7,106.8 399.9,106.8 400.1,106.9 400.2,107 400.5,107 400.7,107.1 400.8,107.1 401,107.1 401.2,107.2 401.4,107.2 
		401.6,107.2 401.8,107.1 402,107.1 402.2,107.1 402.4,107 402.5,106.9 402.7,106.9 402.9,106.8 403,106.7 403.3,106.6 	"/>
</g>
<g id="ID000202">
	<line class="st9" x1="373.1" y1="124.3" x2="373.1" y2="106.1"/>
</g>
<g id="ID000203">
	<polygon class="st11" points="373.3,118.2 373.5,118.1 373.6,118.1 373.8,118.1 374,118 374.2,118 374.4,117.9 374.6,117.8 
		374.7,117.7 374.9,117.6 375,117.5 375.2,117.4 375.3,117.3 375.4,117.1 375.5,116.9 375.6,116.7 375.8,116.6 375.9,116.4 
		375.9,116.2 376,116.1 376,115.9 376.1,115.7 376.1,115.4 376.1,115.3 376.1,115.1 376.1,114.9 376.1,114.7 376.1,114.6 376,114.4 
		376,114.1 375.9,113.9 375.8,113.8 375.6,113.6 375.6,113.5 375.4,113.3 375.3,113.2 375.2,113.1 375.1,112.8 374.9,112.7 
		374.8,112.6 374.7,112.5 374.5,112.4 374.2,112.4 374.1,112.3 373.9,112.2 373.7,112.2 373.5,112.2 373.4,112.1 373.2,112.1 
		373,112.1 372.7,112.1 372.6,112.2 372.4,112.2 372.2,112.2 372,112.3 371.9,112.4 371.6,112.4 371.5,112.5 371.3,112.6 
		371.2,112.7 371,112.8 370.9,113.1 370.8,113.2 370.7,113.3 370.6,113.5 370.5,113.6 370.4,113.8 370.2,113.9 370.1,114.1 
		370.1,114.4 370,114.6 370,114.7 370,114.9 370,115.1 370,115.3 370,115.4 370,115.7 370.1,115.9 370.1,116.1 370.2,116.2 
		370.2,116.4 370.4,116.6 370.5,116.7 370.6,116.9 370.7,117.1 370.8,117.3 371,117.4 371.1,117.5 371.2,117.6 371.4,117.7 
		371.5,117.8 371.8,117.9 372,118 372.1,118 372.3,118.1 372.5,118.1 372.7,118.1 372.8,118.2 373.1,118.2 	"/>
</g>
<g id="ID000204">
	<line class="st9" x1="393.9" y1="129.1" x2="454.3" y2="116.4"/>
</g>
<g id="ID000205">
	<polygon class="st18" points="430.9,121.2 430.8,120.9 430.8,120.8 430.7,120.6 430.6,120.4 430.5,120.3 430.4,120.1 430.2,120 
		430.1,119.9 429.9,119.7 429.8,119.5 429.7,119.4 429.5,119.3 429.4,119.2 429.2,119.2 429,119.1 428.8,119 428.6,119 428.4,118.9 
		428.2,118.9 428.1,118.9 427.9,118.9 427.6,118.9 427.4,118.9 427.2,119 427.1,119 426.9,119.1 426.7,119.2 426.6,119.2 
		426.4,119.3 426.2,119.4 426,119.5 425.9,119.7 425.8,119.9 425.6,120 425.5,120.1 425.4,120.3 425.3,120.4 425.2,120.6 
		425.2,120.8 425.1,120.9 425.1,121.2 425,121.4 425,121.5 425,121.7 425,121.9 425,122.1 425,122.3 425,122.4 425,122.7 
		425.1,122.9 425.1,123 425.2,123.2 425.3,123.4 425.4,123.5 425.5,123.8 425.6,123.8 425.7,124.1 425.8,124.2 426,124.3 
		426.1,124.4 426.2,124.5 426.5,124.6 426.7,124.7 426.8,124.8 427,124.8 427.2,124.9 427.3,124.9 427.5,124.9 427.8,125 428,125 
		428.2,125 428.3,124.9 428.5,124.9 428.7,124.9 429,124.8 429,124.8 429.3,124.7 429.4,124.6 429.6,124.5 429.8,124.4 429.9,124.3 
		430,124.2 430.2,124.1 430.4,123.8 430.5,123.8 430.6,123.5 430.7,123.4 430.7,123.2 430.8,123 430.9,122.9 430.9,122.7 431,122.4 
		431,122.2 431,122.1 431,121.9 431,121.7 431,121.5 430.9,121.4 	"/>
</g>
<g id="ID000206">
	<polygon class="st18" points="417.8,127.2 423.8,125.9 422.6,120 416.5,121.3 	"/>
</g>
<g id="ID000207">
	<line class="st9" x1="441.2" y1="124.3" x2="441.2" y2="86.9"/>
</g>
<g id="ID000208">
	<polygon class="st11" points="441,97.5 440.8,97.5 440.6,97.6 440.5,97.6 440.3,97.7 440.1,97.7 440,97.8 439.7,98 439.5,98.1 
		439.4,98.2 439.2,98.3 439.1,98.4 439,98.5 438.9,98.7 438.8,98.8 438.7,98.9 438.5,99.1 438.4,99.4 438.3,99.5 438.3,99.7 
		438.2,99.9 438.2,100 438.2,100.2 438.1,100.4 438.1,100.7 438.1,100.9 438.2,101 438.2,101.2 438.2,101.4 438.3,101.6 
		438.4,101.7 438.4,101.9 438.5,102.2 438.7,102.3 438.8,102.5 438.9,102.6 439.1,102.7 439.2,102.8 439.3,103 439.5,103.1 
		439.6,103.2 439.8,103.2 440,103.3 440.2,103.5 440.4,103.6 440.5,103.6 440.7,103.6 440.9,103.6 441.1,103.7 441.4,103.7 
		441.5,103.6 441.7,103.6 441.9,103.6 442.1,103.6 442.2,103.5 442.4,103.3 442.6,103.2 442.8,103.2 443,103.1 443.1,103 
		443.3,102.8 443.4,102.7 443.5,102.6 443.6,102.5 443.7,102.3 443.8,102.2 443.9,101.9 444,101.7 444,101.6 444.2,101.4 
		444.2,101.2 444.3,101 444.3,100.9 444.3,100.7 444.3,100.4 444.3,100.2 444.3,100 444.2,99.9 444.2,99.7 444,99.5 443.9,99.4 
		443.9,99.1 443.8,98.9 443.7,98.8 443.6,98.7 443.4,98.5 443.3,98.4 443.2,98.3 443,98.2 442.9,98.1 442.6,98 442.5,97.8 
		442.3,97.7 442.2,97.7 442,97.6 441.8,97.6 441.6,97.5 441.4,97.5 441.2,97.5 	"/>
</g>
<g id="ID000209">
	<polygon class="st11" points="443.8,115.8 443.8,109.6 437.8,109.6 437.8,115.8 	"/>
</g>
<g id="ID000210">
	<line class="st9" x1="494.5" y1="124.3" x2="494.5" y2="86.9"/>
</g>
<g id="ID000211">
	<polygon class="st11" points="494.3,91.1 494.1,91.1 494,91.1 493.8,91.2 493.6,91.2 493.4,91.3 493.2,91.4 493,91.4 492.9,91.5 
		492.7,91.6 492.6,91.7 492.4,91.9 492.3,92 492.2,92.1 492.1,92.3 492,92.5 491.9,92.7 491.7,92.8 491.7,93 491.6,93.2 491.5,93.3 
		491.5,93.5 491.5,93.8 491.5,94 491.5,94.1 491.5,94.3 491.5,94.5 491.5,94.7 491.6,94.9 491.6,95 491.7,95.3 491.9,95.5 492,95.6 
		492,95.8 492.1,95.9 492.3,96 492.4,96.2 492.5,96.3 492.6,96.4 492.8,96.6 492.9,96.7 493.1,96.8 493.4,96.9 493.5,97 493.7,97 
		493.9,97.1 494.1,97.1 494.2,97.1 494.4,97.1 494.7,97.1 494.9,97.1 495,97.1 495.2,97.1 495.4,97 495.6,97 495.7,96.9 496,96.8 
		496.2,96.7 496.3,96.6 496.4,96.4 496.6,96.3 496.7,96.2 496.8,96 496.9,95.9 497.1,95.8 497.1,95.6 497.2,95.5 497.4,95.3 
		497.5,95 497.5,94.9 497.6,94.7 497.6,94.5 497.6,94.3 497.6,94.1 497.6,94 497.6,93.8 497.6,93.5 497.5,93.3 497.5,93.2 497.4,93 
		497.4,92.8 497.2,92.7 497.1,92.5 497,92.3 496.9,92.1 496.8,92 496.6,91.9 496.5,91.7 496.4,91.6 496.2,91.5 496.1,91.4 
		495.8,91.4 495.6,91.3 495.5,91.2 495.3,91.2 495.1,91.1 495,91.1 494.8,91.1 494.5,91.1 	"/>
</g>
<g id="ID000212">
	<polygon class="st11" points="497.6,105.1 497.6,98.9 491.5,98.9 491.5,105.1 	"/>
</g>
<g id="ID000213">
	<polyline class="st9" points="220.7,93.9 220.7,84.7 163.5,84.7 163.5,93.9 	"/>
</g>
<g id="ID000214">
	<polygon class="st11" points="185.1,84.9 185.1,85.1 185.2,85.2 185.2,85.4 185.3,85.7 185.3,85.8 185.4,86 185.5,86.2 185.6,86.3 
		185.7,86.5 185.9,86.6 186,86.7 186.1,86.9 186.2,87.1 186.4,87.2 186.5,87.3 186.7,87.4 186.9,87.5 187,87.5 187.2,87.6 
		187.5,87.6 187.6,87.7 187.8,87.7 188,87.7 188.2,87.7 188.4,87.7 188.6,87.7 188.8,87.7 189,87.6 189.2,87.6 189.3,87.5 
		189.5,87.4 189.6,87.3 189.8,87.2 189.9,87.1 190.2,86.9 190.3,86.8 190.4,86.7 190.5,86.5 190.7,86.4 190.8,86.2 190.8,86.1 
		190.9,85.9 191,85.8 191,85.6 191.1,85.3 191.1,85.1 191.1,85 191.1,84.8 191.1,84.6 191.1,84.4 191.1,84.2 191.1,84 191,83.8 
		191,83.6 190.9,83.5 190.8,83.3 190.8,83.1 190.7,83 190.5,82.7 190.4,82.6 190.3,82.5 190.2,82.4 189.9,82.2 189.8,82.1 189.6,82 
		189.5,82 189.3,81.9 189.2,81.8 189,81.8 188.8,81.7 188.6,81.7 188.4,81.7 188.2,81.7 188,81.7 187.8,81.7 187.6,81.7 187.5,81.7 
		187.2,81.8 187,81.9 186.9,81.9 186.7,82 186.5,82.1 186.4,82.2 186.2,82.3 186.1,82.4 186,82.5 185.9,82.7 185.7,82.8 185.6,83.1 
		185.5,83.2 185.4,83.4 185.3,83.5 185.3,83.7 185.2,83.9 185.2,84.2 185.1,84.2 185.1,84.5 185.1,84.7 	"/>
</g>
<g id="ID000215">
	<polygon class="st11" points="199.1,81.7 193,81.7 193,87.7 199.1,87.7 	"/>
</g>
<g id="ID000216">
	<line class="st9" x1="497.5" y1="86.2" x2="512" y2="108.4"/>
</g>
<g id="ID000217">
	<polygon class="st11" points="509.8,105.1 510,105 510.1,104.9 510.3,104.8 510.4,104.7 510.5,104.4 510.6,104.3 510.7,104.1 
		510.8,104 511,103.8 511,103.7 511.1,103.5 511.2,103.2 511.2,103 511.2,102.9 511.2,102.7 511.2,102.5 511.2,102.3 511.2,102.2 
		511.2,101.9 511.1,101.7 511.1,101.5 511,101.4 510.8,101.2 510.8,101.1 510.7,100.9 510.5,100.7 510.4,100.6 510.3,100.4 
		510.2,100.3 510.1,100.1 509.9,100 509.8,99.9 509.5,99.8 509.3,99.8 509.2,99.7 509,99.6 508.8,99.6 508.7,99.6 508.5,99.5 
		508.2,99.5 508,99.5 507.8,99.5 507.7,99.6 507.5,99.6 507.3,99.6 507.1,99.7 507,99.8 506.7,99.8 506.6,99.9 506.4,100 
		506.3,100.1 506.1,100.3 506,100.4 505.9,100.6 505.8,100.7 505.6,100.9 505.6,101 505.5,101.2 505.3,101.4 505.2,101.5 
		505.2,101.7 505.1,101.9 505.1,102.2 505.1,102.3 505.1,102.5 505.1,102.7 505.1,102.9 505.1,103 505.2,103.2 505.2,103.5 
		505.3,103.7 505.3,103.8 505.5,104 505.6,104.1 505.7,104.3 505.8,104.4 505.9,104.7 506,104.8 506.2,104.9 506.3,105 506.5,105.1 
		506.6,105.2 506.9,105.3 507.1,105.4 507.2,105.4 507.4,105.5 507.6,105.5 507.7,105.6 507.9,105.6 508.1,105.6 508.4,105.6 
		508.6,105.6 508.7,105.5 508.9,105.5 509.1,105.4 509.2,105.4 509.4,105.3 509.7,105.2 	"/>
</g>
<g id="ID000218">
	<polygon class="st11" points="499.1,93.3 502,98.7 507.4,95.7 504.4,90.4 	"/>
</g>
<g id="ID000022-2">
	<text transform="matrix(1 0 0 1 19.99 136.59)" class="st3 st4 st5">C</text>
</g>
<g id="ID000033-2">
	<line class="st9" x1="27.7" y1="124.3" x2="27.7" y2="106.1"/>
</g>
<path class="st19" d="M753,95.6c4.8-0.3,9.5,0.7,13.9,2.6c11.3,4.9,17.8,15,14.6,22.4s-15.1,9.5-26.4,4.5"/>
<g id="ID000114-2">
	<text transform="matrix(1 0 0 1 739.39 101.53)" class="st16 st4 st5">C</text>
</g>
<g id="ID000135-2">
	<line class="st9" x1="746" y1="119.8" x2="746" y2="101.4"/>
</g>
<text transform="matrix(6.123234e-17 -1 1 6.123234e-17 532.53 135.6104)" class="st20 st4 st21">DFHBI</text>
<text transform="matrix(1 0 0 1 22.31 87.34)" class="st4 st22">5</text>
<text transform="matrix(1 0 0 1 31.31 87.34)" class="st4 st22">’</text>
<text transform="matrix(1 0 0 1 22.31 158.58)" class="st4 st22">3</text>
<text transform="matrix(1 0 0 1 31.31 158.58)" class="st4 st22">’</text>
<text transform="matrix(1 0 0 1 323.7 25.58)" class="st4 st23">Spinach</text>
<text transform="matrix(1 0 0 1 395.98 25.58)" class="st4 st23 st24"> </text>
<text transform="matrix(1 0 0 1 400.43 25.58)" class="st4 st23">aptamer</text>
</svg>
