<?xml version="1.0" encoding="utf-8"?>
<!-- Generator: Adobe Illustrator 27.0.0, SVG Export Plug-In . SVG Version: 6.00 Build 0)  -->
<svg version="1.1" id="图层_1" xmlns="http://www.w3.org/2000/svg" xmlns:xlink="http://www.w3.org/1999/xlink" x="0px" y="0px"
	 viewBox="0 0 800 400" style="enable-background:new 0 0 800 400;" xml:space="preserve">
<style type="text/css">
	.st0{font-family:'ArialMT';}
	.st1{font-size:16px;}
	.st2{fill:#B83332;}
	.st3{font-size:29.5612px;}
	.st4{fill:none;stroke:#000000;stroke-miterlimit:10;}
	.st5{stroke:#000000;stroke-miterlimit:10;}
	.st6{fill:none;stroke:#000000;stroke-width:0.75;stroke-miterlimit:10;}
	.st7{fill:#084595;}
	.st8{letter-spacing:-3;}
	.st9{fill:#2EA103;}
	.st10{fill:#C2B617;}
	.st11{fill:#F19807;}
	.st12{fill:#8527B5;}
	.st13{opacity:0.5;fill:#0A0BFF;enable-background:new    ;}
	.st14{opacity:0.4;fill:#0A0BFF;enable-background:new    ;}
	.st15{fill:#18988C;}
	.st16{fill:#F17D07;}
	.st17{fill:none;stroke:#000000;stroke-width:0.5;stroke-miterlimit:1.11;}
	.st18{font-size:17.7303px;}
	.st19{fill:none;stroke:#000000;stroke-width:0.75;stroke-miterlimit:1.11;}
	.st20{fill:#FFFFFF;stroke:#000000;stroke-miterlimit:10;}
	.st21{fill:#FFFFFF;}
	.st22{font-size:11.2829px;}
	.st23{font-size:26.0796px;}
</style>
<text transform="matrix(1 0 0 1 338.2805 24.7811)" class="st0 st1">Broccoli aptamer</text>
<g>
	<g id="ID000006_00000005963228010328583590000009441758711409797053_">
		<text transform="matrix(1 0 0 1 167.9492 178.23)" class="st2 st0 st3">C</text>
	</g>
	<g id="ID000025_00000069362846813324336380000003036407951627447486_">
		<text transform="matrix(1 0 0 1 167.2729 227.377)" class="st2 st0 st3">G</text>
	</g>
	<g id="ID000032_00000040554548591890600100000004405886477695133328_">
		<line class="st4" x1="178.4" y1="207.6" x2="178.4" y2="178.2"/>
	</g>
</g>
<g>
	<g id="ID000044_00000130613164759431634910000002763805858377036730_">
		<text transform="matrix(1 0 0 1 76.4639 228.2344)" class="st2 st0 st3">U</text>
	</g>
	<g id="ID000066_00000134963919349802313240000002611723673146379710_">
		<text transform="matrix(1 0 0 1 74.8979 178.7354)" class="st2 st0 st3">G</text>
	</g>
	<g id="ID000071_00000057144047860136353820000007987519605466742975_">
		<polygon class="st5" points="86.6,198.2 86.9,198.1 87.3,198.1 87.6,198.1 87.9,197.9 88.1,197.9 88.4,197.8 88.5,197.6 89,197.4 
			89.4,197.3 89.5,197.1 89.7,196.9 89.8,196.8 90.2,196.5 90.3,196.1 90.5,195.8 90.6,195.7 90.6,195.3 90.8,195 91.1,194.9 
			91.1,194.5 91.3,194.2 91.3,193.7 91.3,193.6 91.3,193.2 91.3,192.9 91.3,192.6 91.1,192.4 91.1,192.1 90.8,191.6 90.8,191.3 
			90.6,191.1 90.5,190.8 90.3,190.7 90.2,190.3 90,190.2 89.8,190 89.7,189.5 89.4,189.4 89.2,189.2 88.7,189.1 88.5,188.9 
			88.2,188.9 87.9,188.7 87.7,188.6 87.4,188.6 87.1,188.6 86.8,188.4 86.6,188.4 86.1,188.4 85.8,188.4 85.5,188.6 85.3,188.6 
			85,188.6 84.7,188.7 84.4,188.9 84,188.9 83.7,189.1 83.6,189.2 83.2,189.4 83.1,189.5 82.9,190 82.6,190.2 82.4,190.3 
			82.1,190.7 81.9,190.8 81.8,191.1 81.8,191.3 81.6,191.6 81.6,192.1 81.5,192.4 81.5,192.6 81.5,192.9 81.3,193.2 81.3,193.6 
			81.5,193.7 81.5,194.2 81.5,194.5 81.6,194.9 81.6,195 81.8,195.3 81.9,195.7 82.1,195.8 82.4,196.1 82.6,196.5 82.7,196.8 
			82.9,196.9 83.2,197.1 83.4,197.3 83.6,197.4 83.9,197.6 84.4,197.8 84.5,197.9 84.8,197.9 85.2,198.1 85.3,198.1 85.6,198.1 
			86,198.2 86.3,198.2 		"/>
	</g>
</g>
<g>
	<g id="ID000045_00000149355390517434109380000009476579933828528546_">
		<text transform="matrix(1 0 0 1 44.1055 178.9126)" class="st2 st0 st3">G</text>
	</g>
	<g id="ID000063_00000020396005580984835190000011047155484600111038_">
		<text transform="matrix(1 0 0 1 44.7827 228.0557)" class="st2 st0 st3">C</text>
	</g>
	<g id="ID000072_00000170273562934385060610000013137524900408525471_">
		<line class="st4" x1="55.4" y1="208.2" x2="55.4" y2="178.9"/>
	</g>
</g>
<g>
	<g id="ID000045_00000037667167869064031790000004955566984775568775_">
		<text transform="matrix(1 0 0 1 105.6895 178.9126)" class="st2 st0 st3">G</text>
	</g>
	<g id="ID000063_00000074400436902155378120000009023654366774892433_">
		<text transform="matrix(1 0 0 1 106.3662 228.0557)" class="st2 st0 st3">C</text>
	</g>
	<g id="ID000072_00000129909637889016966290000016891523990303109783_">
		<line class="st4" x1="117" y1="208.2" x2="117" y2="178.9"/>
	</g>
</g>
<g id="ID000097_00000066493688976485447840000009451165346249570750_">
	<line class="st6" x1="354.8" y1="113.9" x2="177.7" y2="113.9"/>
</g>
<g id="ID000097_00000075131744498396082660000000389721953288303758_">
	<line class="st6" x1="439.7" y1="76.6" x2="361.5" y2="76.6"/>
</g>
<g id="ID000097_00000087403901728096480990000008403990306855131777_">
	<line class="st6" x1="224.4" y1="217.3" x2="189.8" y2="217.3"/>
</g>
<g id="ID000097_00000016063275010018771740000016507258763899757230_">
	<line class="st6" x1="343.6" y1="76.6" x2="236.3" y2="76.6"/>
</g>
<g id="ID000102_00000031171325164513632010000000633322112641666468_">
	<text transform="matrix(1 0 0 1 651.5352 171.8027)" class="st7 st0 st3 st8">A</text>
</g>
<g id="ID000104_00000147199620746702977340000005930768542456686984_">
	<text transform="matrix(1 0 0 1 650.8574 220.9307)" class="st7 st0 st3">U</text>
</g>
<g id="ID000110_00000029732671775005329580000008861962744179861172_">
	<line class="st4" x1="661.5" y1="201.2" x2="661.5" y2="171.7"/>
</g>
<g id="ID000104_00000181048170054854799770000004235562808956689802_">
	<text transform="matrix(1 0 0 1 728.5723 156.459)" class="st7 st0 st3">U</text>
</g>
<g id="ID000104_00000117648550755493390640000011887233591786896831_">
	<text transform="matrix(1 0 0 1 756.8301 172.9888)" class="st7 st0 st3">U</text>
</g>
<g id="ID000102_00000081608418626675587140000005289395332381706664_">
	<text transform="matrix(1 0 0 1 704.333 171.8027)" class="st7 st0 st3 st8">A</text>
</g>
<g id="ID000104_00000013161237621315890770000003329330258520416396_">
	<text transform="matrix(1 0 0 1 703.6572 220.9316)" class="st7 st0 st3">U</text>
</g>
<g id="ID000110_00000154409707742209424870000002561339979115601542_">
	<line class="st4" x1="714.3" y1="201.2" x2="714.3" y2="171.7"/>
</g>
<g id="ID000102_00000020399813102004528700000010061308240312517538_">
	<text transform="matrix(1 0 0 1 598.7373 171.8027)" class="st7 st0 st3 st8">A</text>
</g>
<g id="ID000104_00000103970644360934856430000002086628549452328628_">
	<text transform="matrix(1 0 0 1 598.0596 220.9307)" class="st7 st0 st3">U</text>
</g>
<g id="ID000104_00000054246628804900840600000015386248334952966579_">
	<text transform="matrix(1 0 0 1 555.0771 246.4814)" class="st9 st0 st3">U</text>
</g>
<g id="ID000110_00000153681055751280638000000005213375343955776647_">
	<line class="st4" x1="608.7" y1="201.2" x2="608.7" y2="171.7"/>
</g>
<g id="ID000112_00000047020047132195022220000017296110333952189605_">
	<text transform="matrix(1 0 0 1 727.75 234.1494)" class="st7 st0 st3">G</text>
</g>
<g id="ID000112_00000122690820400268410040000006795243214927281323_">
	<text transform="matrix(1 0 0 1 623.6357 171.8027)" class="st7 st0 st3">G</text>
</g>
<g id="ID000132_00000014597635119674693030000001832281089418746040_">
	<text transform="matrix(1 0 0 1 624.3145 220.9307)" class="st7 st0 st3">C</text>
</g>
<g id="ID000133_00000049925387690192785870000007944405520023895736_">
	<line class="st4" x1="634.9" y1="201.2" x2="634.9" y2="171.7"/>
</g>
<g id="ID000114_00000067194069693548295450000004254070997924169366_">
	<text transform="matrix(1 0 0 1 514.4912 171.8027)" class="st7 st0 st3">C</text>
</g>
<g id="ID000130_00000178907599896448729270000004752853802381484675_">
	<text transform="matrix(1 0 0 1 513.8135 220.9316)" class="st7 st0 st3">G</text>
</g>
<g id="ID000135_00000170975000765264097160000009604047848608019132_">
	<line class="st4" x1="525.1" y1="201.2" x2="525.1" y2="171.7"/>
</g>
<g id="ID000114_00000070816119551399411580000018113370249109813947_">
	<text transform="matrix(1 0 0 1 571.5146 171.8027)" class="st7 st0 st3">C</text>
</g>
<g id="ID000114_00000155867720831292125630000018200796605064783261_">
	<text transform="matrix(1 0 0 1 531.582 246.4814)" class="st10 st0 st3">C</text>
</g>
<g id="ID000130_00000040559184017947485590000012004918711816199053_">
	<text transform="matrix(1 0 0 1 570.8379 220.9307)" class="st7 st0 st3">G</text>
</g>
<g id="ID000135_00000011029976210648756300000002227532003882416265_">
	<line class="st4" x1="582.1" y1="201.2" x2="582.1" y2="171.7"/>
</g>
<g id="ID000120_00000019639200409646650680000010983553358770538662_">
	<text transform="matrix(1 0 0 1 677.2568 171.8027)" class="st7 st0 st3">U</text>
</g>
<g id="ID000126_00000101074391784625274710000017205832595455747752_">
	<text transform="matrix(1 0 0 1 677.9336 220.9316)" class="st7 st0 st3 st8">A</text>
</g>
<g id="ID000139_00000124868156456642899420000012577648906018199937_">
	<line class="st4" x1="687.8" y1="201.2" x2="687.8" y2="171.7"/>
</g>
<g id="ID000120_00000153669913314048369320000015412281010910324408_">
	<text transform="matrix(1 0 0 1 488.2383 171.8027)" class="st9 st0 st3">U</text>
</g>
<g id="ID000126_00000019668537924241445230000017473178666161124488_">
	<text transform="matrix(1 0 0 1 488.916 220.9307)" class="st11 st0 st3 st8">A</text>
</g>
<g id="ID000139_00000181783812942383303510000015068874980027939977_">
	<line class="st4" x1="498.8" y1="201.2" x2="498.8" y2="171.7"/>
</g>
<g id="ID000145">
	<polygon class="st5" points="276.8,110.1 278.9,112.1 280.6,112.7 282.9,113 286.9,114 282.9,114.8 280.6,115.3 278.9,115.8 
		276.8,117.7 	"/>
</g>
<g id="ID000146_00000028296165554848425800000014410661740989317514_">
	<line class="st6" x1="354.5" y1="113.3" x2="354.5" y2="179.6"/>
</g>
<g id="ID000146_00000107589213268481166160000011979022461926627732_">
	<line class="st6" x1="439.7" y1="76" x2="439.7" y2="181.2"/>
</g>
<g id="ID000146_00000146483322857647300670000011858220504062784428_">
	<line class="st6" x1="178.3" y1="113.4" x2="178.3" y2="155.4"/>
</g>
<g id="ID000146_00000061453117741504931810000015858028246140323744_">
	<line class="st6" x1="236.4" y1="76" x2="236.4" y2="125.1"/>
</g>
<g id="ID000075_00000017504536391587103920000003793799187564902828_">
	<text transform="matrix(1 0 0 1 342.7578 88.4355)" class="st10 st0 st3 st8">U</text>
</g>
<g>
	<g id="ID000197_00000106113173639128680890000005913451962210272151_">
		<line class="st4" x1="147.7" y1="208.5" x2="147.7" y2="179.1"/>
	</g>
	<g>
		<g id="ID000051_00000029743139218109146710000007172422749322028931_">
			<text transform="matrix(1 0 0 1 137.8345 178.9126)" class="st2 st0 st3 st8">A</text>
		</g>
		<g id="ID000059_00000155853588930415541950000001728336614773683118_">
			<text transform="matrix(1 0 0 1 136.4819 228.0566)" class="st2 st0 st3">G</text>
		</g>
		<g id="ID000198_00000147906603099403781820000005808854523449396658_">
			<polygon class="st5" points="148.2,198.4 148.3,198.3 148.7,198.3 149,198.3 149.3,198.1 149.5,198.1 149.8,197.9 150.3,197.8 
				150.4,197.6 150.7,197.4 150.9,197.3 151.1,197.1 151.4,197 151.6,196.6 151.7,196.3 151.9,196 152,195.8 152,195.5 152.2,195.2 
				152.5,195 152.5,194.7 152.7,194.4 152.7,193.9 152.7,193.7 152.7,193.4 152.7,193.1 152.7,192.8 152.7,192.6 152.5,192.3 
				152.5,191.8 152.2,191.5 152,191.3 151.9,191 151.7,190.8 151.6,190.5 151.4,190.4 151.2,190.2 151.1,189.7 150.7,189.6 
				150.6,189.4 150.3,189.2 149.9,189.1 149.6,189.1 149.3,188.9 149.1,188.7 148.8,188.7 148.5,188.7 148.3,188.6 148,188.6 
				147.5,188.6 147.2,188.6 146.9,188.7 146.7,188.7 146.4,188.7 146.1,188.9 145.6,189.1 145.4,189.1 145.1,189.2 144.9,189.4 
				144.6,189.6 144.5,189.7 144.3,190.2 144,190.4 143.8,190.5 143.5,190.8 143.3,191 143.2,191.3 143.2,191.5 143,191.8 143,192.3 
				142.8,192.6 142.8,192.8 142.8,193.1 142.8,193.4 142.8,193.7 142.8,193.9 142.8,194.4 142.8,194.7 143,195 143,195.2 
				143.2,195.5 143.3,195.8 143.5,196 143.8,196.3 144,196.6 144.1,197 144.3,197.1 144.6,197.3 144.8,197.4 145.1,197.6 
				145.3,197.8 145.6,197.9 145.8,198.1 146.2,198.1 146.6,198.3 146.7,198.3 147,198.3 147.4,198.4 147.7,198.4 			"/>
		</g>
	</g>
</g>
<g id="ID000114-2_00000139269999881539600350000014269815263934556070_">
	<text transform="matrix(1 0 0 1 756.8301 215.125)" class="st7 st0 st3">C</text>
</g>
<rect x="453.7" y="173.3" class="st12" width="22.7" height="55.2"/>
<polygon class="st13" points="442.6,261.1 410,214.7 410,149.9 442.6,196.4 "/>
<polygon class="st13" points="357.3,260.5 324.9,213.9 324.9,149 357.3,195.5 "/>
<polygon class="st14" points="271.1,263.2 238.5,216.8 238.5,152 271.1,198.4 "/>
<g id="ID000053_00000117667285025830960180000006213145546077708438_">
	<text transform="matrix(1 0 0 1 341.8232 202.8652)" class="st15 st0 st3">G</text>
</g>
<g id="ID000054_00000010991227308792368320000016457182110393329027_">
	<text transform="matrix(1 0 0 1 427.7666 202.8652)" class="st16 st0 st3">G</text>
</g>
<g id="ID000055_00000059275420741635151080000012163466515491357883_">
	<text transform="matrix(1 0 0 1 311.1177 227.4443)" class="st15 st0 st3">G</text>
</g>
<g id="ID000056_00000057116565813940021720000010377192891913722795_">
	<text transform="matrix(1 0 0 1 256.5405 282.6826)" class="st15 st0 st3">U</text>
</g>
<g id="ID000057_00000132801916144210348560000009957153461191988883_">
	<text transform="matrix(1 0 0 1 225.1421 227.4443)" class="st15 st0 st3">G</text>
</g>
<g id="ID000076_00000029748479906815653270000015714695025726366618_">
	<text transform="matrix(1 0 0 1 225.835 147.6108)" class="st15 st0 st3">C</text>
</g>
<g id="ID000077_00000181082486087766165610000013887664735896796288_">
	<text transform="matrix(1 0 0 1 311.1177 147.6108)" class="st15 st0 st3">G</text>
</g>
<g id="ID000078_00000139976670278875710860000007318990948777185923_">
	<text transform="matrix(1 0 0 1 397.0771 147.6108)" class="st15 st0 st3">G</text>
</g>
<g id="ID000079_00000119822776219313693140000007664245651346247585_">
	<line class="st17" x1="324.7" y1="64.2" x2="324.7" y2="125.1"/>
</g>
<g id="ID000080_00000013181498637758872690000000432071253443825329_">
	<text transform="matrix(1 0 0 1 314.2959 63.7041)" class="st0 st18">10</text>
</g>
<g id="ID000079_00000160165016332128907580000010342319818587382403_">
	<line class="st17" x1="714" y1="129.1" x2="714" y2="149"/>
</g>
<g id="ID000080_00000090296392256462891870000015053021125768044448_">
	<text transform="matrix(1 0 0 1 703.6572 128.6104)" class="st0 st18">20</text>
</g>
<g id="ID000079_00000147900312910848581440000017453636571228811708_">
	<line class="st17" x1="583.7" y1="222.9" x2="583.7" y2="257.9"/>
</g>
<g id="ID000080_00000114037287678119633980000013692378344776224188_">
	<text transform="matrix(1 0 0 1 574.2344 272.3281)" class="st0 st18">30</text>
</g>
<g id="ID000080_00000150062860027444034380000015283133633283736486_">
	<text transform="matrix(1 0 0 1 413.082 322.6973)" class="st0 st18">40</text>
</g>
<g id="ID000081_00000089540288816181698120000006922652892124997796_">
	<text transform="matrix(1 0 0 1 446.1904 172.1587)" class="st16 st0 st3">G</text>
</g>
<g id="ID000087_00000081638116256502667300000004911914760151346048_">
	<text transform="matrix(1 0 0 1 427.7666 282.6826)" class="st15 st0 st3">G</text>
</g>
<g id="ID000088_00000163045386609735751840000008878849734529384119_">
	<text transform="matrix(1 0 0 1 256.5405 202.8652)" class="st15 st0 st3">U</text>
</g>
<g id="ID000089_00000161621259330789335640000011071503756542082979_">
	<text transform="matrix(1 0 0 1 324.3667 303.6855)" class="st10 st0 st3 st8">A</text>
</g>
<g id="ID000090_00000025441516652745475990000006295096354334486200_">
	<text transform="matrix(1 0 0 1 341.8232 282.1504)" class="st15 st0 st3">G</text>
</g>
<g id="ID000091_00000062902321192563758580000015423054523438077853_">
	<text transform="matrix(1 0 0 1 361.3755 303.7646)" class="st11 st0 st3 st8">A</text>
</g>
<g id="ID000092_00000181067886304672529400000012749450883273660093_">
	<text transform="matrix(1 0 0 1 395.3359 227.4443)" class="st15 st0 st3">G</text>
</g>
<g id="ID000093_00000058582268363807028380000011164866952879449020_">
	<line class="st17" x1="423.2" y1="310.8" x2="412.3" y2="226.7"/>
</g>
<g id="ID000095_00000153697592919886688230000008482463204307566230_">
	<text transform="matrix(1 0 0 1 356.3955 227.4443)" class="st10 st0 st3">U</text>
</g>
<g id="ID000148_00000036218791049416267030000012396692983792518049_">
	<line class="st6" x1="448.7" y1="261.5" x2="485.6" y2="215.4"/>
</g>
<g id="ID000150_00000137838483946543617150000010058572385698439331_">
	<polyline class="st6" points="269.6,201.2 269.6,246.5 441.6,246.5 441.6,261.3 	"/>
</g>
<g id="ID000151_00000065796093275801322280000003585542966477311926_">
	<polygon class="st5" points="356.2,250.2 354.1,248.3 352,247.6 350.1,247.4 345.9,246.5 350.1,245.5 352,245.2 354.1,244.7 
		356.2,242.8 	"/>
</g>
<g id="ID000152_00000101064582814634876430000002300404677627096472_">
	<line class="st19" x1="334.1" y1="286.3" x2="269.6" y2="201.2"/>
</g>
<g id="ID000153_00000050623041065840660340000015930144354553778357_">
	<polygon class="st5" points="293.8,226 293.3,228.8 293.8,230.8 294.6,232.8 296.1,236.8 293,233.7 291.9,232.1 290.3,230.7 
		287.7,229.9 	"/>
</g>
<g id="ID000154_00000168823791149514112760000012248926941407153303_">
	<polyline class="st6" points="408.2,228.4 408.2,293.5 379.7,293.5 	"/>
</g>
<g id="ID000155_00000047023512329488973920000001286908285042618759_">
	<polygon class="st5" points="391.3,290 393.4,291.9 395.5,292.4 397.4,292.9 401.5,293.9 397.4,294.7 395.5,295.2 393.4,295.6 
		391.3,297.6 	"/>
</g>
<g id="ID000156_00000132047767633901044840000013204548059226554542_">
	<line class="st6" x1="429.2" y1="192.8" x2="363" y2="192.8"/>
</g>
<g id="ID000157_00000174570962207037090920000007348242082692958642_">
	<polygon class="st5" points="392.9,189.1 394.9,191 397,191.7 399.1,192 403.1,192.8 399.1,193.9 397,194.1 394.9,194.7 
		392.9,196.7 	"/>
</g>
<g id="ID000158_00000084519915348563020750000011378234678939218313_">
	<line class="st6" x1="376.1" y1="217.5" x2="396.9" y2="217.5"/>
</g>
<g id="ID000159_00000141413916434807941240000005375997444403780229_">
	<polygon class="st5" points="391.5,221.2 389.4,219.2 387.5,218.8 385.4,218.4 381.3,217.5 385.4,216.5 387.5,216.3 389.4,215.5 
		391.5,213.8 	"/>
</g>
<g id="ID000159_00000157276161435157937210000000592265469801454247_">
	<polygon class="st5" points="211.8,220.4 209.7,218.5 207.7,218 205.6,217.7 201.6,216.7 205.6,215.8 207.7,215.6 209.7,214.8 
		211.8,213 	"/>
</g>
<g id="ID000159_00000075875438113729755380000017900310338147069853_">
	<polygon class="st5" points="302.3,79.7 300.2,77.8 298.2,77.3 296.1,77 292.1,76 296.1,75.1 298.2,74.9 300.2,74.1 302.3,72.3 	
		"/>
</g>
<g id="ID000160_00000090288348953120347120000013082715308387639743_">
	<line class="st6" x1="452.1" y1="154.4" x2="420.7" y2="138.5"/>
</g>
<g id="ID000161_00000025404924358598277720000016696484624499044747_">
	<polygon class="st5" points="427.9,138.6 429,141.2 430.5,142.7 432.3,143.8 435.5,146.5 431.5,145.4 429.4,144.9 427.3,144.6 
		424.7,145.3 	"/>
</g>
<g id="ID000162_00000073707565573338637400000015476056051504446361_">
	<line class="st6" x1="398.6" y1="137.7" x2="332.2" y2="137.7"/>
</g>
<g id="ID000163_00000035492021118640726190000004684883151450867876_">
	<polygon class="st5" points="362.3,133.8 364.2,135.7 366.2,136.6 368.3,136.7 372.5,137.7 368.3,138.5 366.2,139 364.2,139.5 
		362.3,141.4 	"/>
</g>
<g id="ID000166_00000085233969222839200920000003656384424985843880_">
	<line class="st6" x1="240.5" y1="225.8" x2="266.4" y2="260.8"/>
</g>
<g id="ID000167_00000126308840503593063040000011666643399454295735_">
	<polygon class="st5" points="252.4,249.1 252.7,246.2 251.7,244.1 250.9,242.5 249.2,238.6 252.4,241.2 253.8,242.8 255.4,243.9 
		258.2,244.5 	"/>
</g>
<g id="ID000170_00000032634545204149694020000010506465485113447353_">
	<line class="st6" x1="312.5" y1="137.7" x2="246.3" y2="137.7"/>
</g>
<g id="ID000171_00000018931086480723865060000013968972069137205676_">
	<polygon class="st5" points="276.2,133.8 278.2,135.7 280.3,136.6 282.4,136.7 286.6,137.7 282.4,138.5 280.3,139 278.2,139.5 
		276.2,141.4 	"/>
</g>
<g id="ID000170_00000058555624069617409730000017757830224589048252_">
	<line class="st6" x1="488.9" y1="161.9" x2="468.6" y2="161.9"/>
</g>
<g id="ID000171_00000023263928078111534130000018418486357341431463_">
	<polygon class="st5" points="474.5,158 476.4,159.9 478.5,160.8 480.6,160.9 484.8,161.9 480.6,162.7 478.5,163.2 476.4,163.7 
		474.5,165.6 	"/>
</g>
<g id="ID000170_00000166641944780406265490000001775322776347132310_">
	<line class="st6" x1="570.8" y1="162" x2="534.1" y2="162"/>
</g>
<g id="ID000171_00000023281053156811876960000011284061142467315845_">
	<polygon class="st5" points="549.9,158.1 551.9,160 554,160.8 556,161 560.2,162 556,162.8 554,163.3 551.9,163.7 549.9,165.7 	"/>
</g>
<g id="ID000172_00000183249843224702675680000016369824763772936069_">
	<line class="st6" x1="276.1" y1="272.9" x2="325.1" y2="272.9"/>
</g>
<g id="ID000172-2_00000040543520095540006790000004296475013526290341_">
	<line class="st6" x1="324.3" y1="273.2" x2="324.3" y2="229.7"/>
</g>
<g id="ID000173_00000003087794307981926480000005786548603256319131_">
	<polygon class="st5" points="301.1,276 299,274.2 296.9,273.7 294.8,273.4 290.7,272.4 294.8,271.6 296.9,271.3 299,270.5 
		300.9,268.7 	"/>
</g>
<g id="ID000176_00000113355224703628954080000009286844700853814155_">
	<line class="st6" x1="334.1" y1="217.5" x2="357.3" y2="217.5"/>
</g>
<g id="ID000177_00000089549819146875668690000012844291581338141615_">
	<polygon class="st5" points="348.6,221.2 346.5,219.2 344.7,218.8 342.6,218.4 338.5,217.5 342.6,216.5 344.7,216.3 346.5,215.5 
		348.6,213.8 	"/>
</g>
<g id="ID000184_00000086661559764622160120000003621881038502847148_">
	<line class="st4" x1="236.3" y1="205.9" x2="236.3" y2="147.4"/>
</g>
<g id="ID000185_00000023241816052799074910000016030413095306006974_">
	<polygon class="st5" points="236.6,182.3 237.1,182.3 237.4,182.3 237.6,182.2 237.9,182.2 238.2,182 238.5,182 238.8,181.8 
		239.2,181.7 239.3,181.5 239.6,181.4 239.8,181.2 240,180.9 240.1,180.7 240.3,180.2 240.5,180.1 240.6,179.8 240.8,179.6 
		241.1,179.3 241.1,178.9 241.3,178.8 241.3,178.5 241.4,178 241.4,177.7 241.4,177.5 241.4,177.2 241.3,176.8 241.3,176.5 
		241.3,176.4 241.1,176 240.8,175.6 240.8,175.4 240.6,175.1 240.5,174.8 240.3,174.6 240.1,174.4 239.8,174.1 239.6,173.8 
		239.5,173.6 239.2,173.5 239,173.3 238.5,173.1 238.4,173 238,173 237.7,172.8 237.6,172.8 237.2,172.7 236.9,172.7 236.6,172.7 
		236.3,172.7 235.9,172.7 235.6,172.7 235.3,172.8 235,172.8 234.8,173 234.3,173 234,173.1 233.8,173.3 233.5,173.5 233.4,173.6 
		233.2,173.8 232.9,174.1 232.7,174.4 232.6,174.6 232.4,174.8 232.1,175.1 231.9,175.4 231.8,175.6 231.8,176 231.6,176.4 
		231.6,176.5 231.4,176.8 231.4,177.2 231.4,177.5 231.4,177.7 231.4,178 231.6,178.5 231.6,178.8 231.6,178.9 231.8,179.3 
		231.9,179.6 231.9,179.8 232.1,180.1 232.4,180.2 232.7,180.7 232.9,180.9 233,181.2 233.2,181.4 233.5,181.5 233.7,181.7 
		234,181.8 234.2,182 234.7,182 235,182.2 235.1,182.2 235.5,182.3 235.8,182.3 236.1,182.3 236.3,182.3 	"/>
</g>
<g id="ID000188_00000086653345140747868860000006200391534199641739_">
	<line class="st4" x1="276.8" y1="263.7" x2="345.9" y2="199.6"/>
</g>
<g id="ID000189_00000165944945987507042010000015052838705568048062_">
	<polygon class="st20" points="309.6,226 302.3,232.6 309,240 316.2,233.1 	"/>
</g>
<g id="ID000190_00000175303883082895385640000016292605902593679536_">
	<polygon class="st20" points="284.9,256.5 285.3,256.8 285.4,257 285.7,257.1 285.9,257.3 286.2,257.3 286.4,257.4 286.9,257.6 
		287.2,257.6 287.5,257.8 287.7,257.8 288,257.8 288.3,257.8 288.6,257.8 289.1,257.8 289.3,257.8 289.6,257.6 289.9,257.6 
		290.1,257.4 290.4,257.3 290.7,257.3 291.1,257.1 291.4,257 291.6,256.6 291.7,256.5 292,256.3 292.2,256.2 292.4,255.7 
		292.5,255.5 292.7,255.2 292.8,255 292.8,254.7 293,254.4 293,254.2 293.2,253.9 293.2,253.4 293.2,253.1 293.2,252.8 293.2,252.6 
		293.2,252.3 293,252 293,251.6 292.8,251.3 292.8,251 292.7,250.7 292.5,250.5 292.4,250.2 292.2,250 292,249.7 291.9,249.5 
		291.7,249.2 291.4,249.1 291.2,248.9 290.7,248.7 290.6,248.6 290.3,248.4 289.9,248.3 289.8,248.3 289.5,248.1 289.1,248.1 
		289,248.1 288.5,248.1 288.2,248.1 287.8,248.1 287.5,248.1 287.4,248.1 287,248.3 286.6,248.3 286.4,248.4 286.1,248.6 
		285.7,248.7 285.6,248.9 285.3,249.1 285.1,249.2 284.9,249.5 284.8,249.7 284.3,250 284.1,250.2 284,250.5 284,250.8 283.8,251 
		283.7,251.3 283.7,251.8 283.5,252 283.5,252.3 283.5,252.6 283.5,252.9 283.5,253.1 283.5,253.4 283.5,253.9 283.5,254.2 
		283.7,254.4 283.8,254.7 283.8,255 284,255.2 284.1,255.5 284.3,255.7 284.6,256.2 284.8,256.3 	"/>
</g>
<g id="ID000199_00000048476579272274038170000006636726391079835538_">
	<line class="st4" x1="265" y1="182.3" x2="238.4" y2="148"/>
</g>
<g id="ID000200_00000116953752586803486580000013044719390695773837_">
	<polygon class="st20" points="239,157.7 245,165.6 252.9,159.6 246.7,151.9 	"/>
</g>
<g id="ID000201_00000067220483521685069580000011201187788120487556_">
	<polygon class="st20" points="261.4,178.9 261.6,178.6 261.7,178.5 262.1,178.3 262.2,177.8 262.4,177.7 262.4,177.3 262.5,177.2 
		262.7,176.8 262.7,176.5 263,176.4 263,176 263,175.6 263.2,175.2 263.2,174.9 263,174.8 263,174.4 263,174.1 262.7,173.6 
		262.7,173.5 262.5,173.1 262.4,172.8 262.2,172.7 262.2,172.3 261.9,172.2 261.7,172 261.6,171.5 261.4,171.4 261.1,171.2 
		260.8,171 260.4,170.9 260.3,170.7 260,170.6 259.6,170.6 259.5,170.4 259.2,170.4 258.8,170.2 258.3,170.2 258.2,170.2 
		257.9,170.2 257.5,170.2 257.2,170.4 257.1,170.4 256.7,170.6 256.3,170.6 255.9,170.7 255.8,170.9 255.4,171 255.3,171 255,171.2 
		254.8,171.5 254.6,171.9 254.5,172 254.3,172.3 253.8,172.5 253.7,172.8 253.7,173 253.5,173.3 253.3,173.6 253.3,174.1 
		253.2,174.3 253.2,174.6 253.2,174.9 253.2,175.2 253.2,175.4 253.2,175.7 253.3,176.2 253.3,176.5 253.5,176.7 253.5,177 
		253.7,177.3 253.8,177.5 254,177.8 254.3,178 254.5,178.5 254.6,178.6 254.8,178.8 255,178.9 255.3,179.3 255.4,179.4 255.8,179.4 
		256.1,179.6 256.3,179.8 256.7,179.8 257.1,179.9 257.2,179.9 257.5,179.9 257.9,180.1 258.2,180.1 258.5,180.1 258.8,179.9 
		259.2,179.9 259.5,179.9 259.8,179.8 260,179.6 260.3,179.6 260.6,179.4 260.8,179.3 261.2,179.1 	"/>
</g>
<g id="ID000204_00000169524580428307573890000003349658930992761755_">
	<line class="st4" x1="246.1" y1="215.4" x2="343.5" y2="194.9"/>
</g>
<g id="ID000205_00000147940909533180423880000002840973856537306017_">
	<polygon class="st20" points="305.7,202.6 305.6,202.2 305.6,202 305.4,201.7 305.3,201.3 305.1,201.2 304.9,200.9 304.6,200.7 
		304.4,200.5 304.1,200.2 304,199.9 303.8,199.7 303.5,199.6 303.3,199.4 303,199.4 302.7,199.3 302.3,199.1 302,199.1 301.7,198.9 
		301.4,198.9 301.2,198.9 300.9,198.9 300.4,198.9 300.1,198.9 299.8,199.1 299.6,199.1 299.3,199.3 299,199.4 298.8,199.4 
		298.5,199.6 298.2,199.7 297.8,199.9 297.7,200.2 297.5,200.5 297.2,200.7 297,200.9 296.9,201.2 296.7,201.3 296.5,201.7 
		296.5,202 296.4,202.2 296.4,202.6 296.2,203 296.2,203.1 296.2,203.4 296.2,203.8 296.2,204.1 296.2,204.4 296.2,204.6 
		296.2,205.1 296.4,205.4 296.4,205.5 296.5,205.9 296.7,206.2 296.9,206.3 297,206.8 297.2,206.8 297.4,207.3 297.5,207.5 
		297.8,207.6 298,207.8 298.2,208 298.6,208.1 299,208.3 299.1,208.4 299.4,208.4 299.8,208.6 299.9,208.6 300.3,208.6 300.7,208.8 
		301.1,208.8 301.4,208.8 301.5,208.6 301.9,208.6 302.2,208.6 302.7,208.4 302.7,208.4 303.2,208.3 303.3,208.1 303.6,208 
		304,207.8 304.1,207.6 304.3,207.5 304.6,207.3 304.9,206.8 305.1,206.8 305.3,206.3 305.4,206.2 305.4,205.9 305.6,205.5 
		305.7,205.4 305.7,205.1 305.9,204.6 305.9,204.3 305.9,204.1 305.9,203.8 305.9,203.4 305.9,203.1 305.7,203 	"/>
</g>
<g id="ID000206_00000120534172937317001040000005460166415045758868_">
	<polygon class="st20" points="284.6,212.3 294.3,210.2 292.4,200.7 282.5,202.8 	"/>
</g>
<g id="ID000207_00000061455255680674654620000008895630216918463618_">
	<line class="st4" x1="322.3" y1="205.9" x2="322.3" y2="147.4"/>
</g>
<g id="ID000208_00000136402907766827995470000010300693231613872533_">
	<polygon class="st5" points="322,164.4 321.7,164.4 321.4,164.6 321.2,164.6 320.9,164.8 320.6,164.8 320.4,164.9 319.9,165.2 
		319.6,165.4 319.4,165.6 319.1,165.7 319,165.9 318.8,166.1 318.6,166.4 318.5,166.5 318.3,166.7 318,167 317.8,167.5 317.7,167.7 
		317.7,168 317.5,168.3 317.5,168.5 317.5,168.8 317.3,169.1 317.3,169.6 317.3,169.9 317.5,170.1 317.5,170.4 317.5,170.7 
		317.7,171 317.8,171.2 317.8,171.5 318,172 318.3,172.2 318.5,172.5 318.6,172.7 319,172.8 319.1,173 319.3,173.3 319.6,173.5 
		319.8,173.6 320.1,173.6 320.4,173.8 320.7,174.1 321,174.3 321.2,174.3 321.5,174.3 321.9,174.3 322.2,174.4 322.7,174.4 
		322.8,174.3 323.1,174.3 323.5,174.3 323.8,174.3 323.9,174.1 324.3,173.8 324.6,173.6 324.9,173.6 325.2,173.5 325.4,173.3 
		325.7,173 325.9,172.8 326,172.7 326.2,172.5 326.4,172.2 326.5,172 326.7,171.5 326.8,171.2 326.8,171 327.2,170.7 327.2,170.4 
		327.3,170.1 327.3,169.9 327.3,169.6 327.3,169.1 327.3,168.8 327.3,168.5 327.2,168.3 327.2,168 326.8,167.7 326.7,167.5 
		326.7,167 326.5,166.7 326.4,166.5 326.2,166.4 325.9,166.1 325.7,165.9 325.6,165.7 325.2,165.6 325.1,165.4 324.6,165.2 
		324.4,164.9 324.1,164.8 323.9,164.8 323.6,164.6 323.3,164.6 323,164.4 322.7,164.4 322.3,164.4 	"/>
</g>
<g id="ID000209_00000011711815911826224380000001524487536357068458_">
	<polygon class="st5" points="326.5,193.9 326.5,183.9 316.9,183.9 316.9,193.9 	"/>
</g>
<g id="ID000210_00000177470241950522698810000002342618778355847058_">
	<line class="st4" x1="408.2" y1="207.6" x2="408.2" y2="147.4"/>
</g>
<g id="ID000211_00000062186909199709937030000008795167468619651242_">
	<polygon class="st5" points="407.9,154.1 407.6,154.1 407.4,154.1 407.1,154.3 406.8,154.3 406.5,154.4 406.2,154.6 405.8,154.6 
		405.7,154.8 405.3,154.9 405.2,155.1 404.9,155.4 404.7,155.6 404.5,155.7 404.4,156.1 404.2,156.4 404.1,156.7 403.7,156.9 
		403.7,157.2 403.6,157.5 403.4,157.7 403.4,158 403.4,158.5 403.4,158.8 403.4,159 403.4,159.3 403.4,159.6 403.4,159.9 
		403.6,160.2 403.6,160.4 403.7,160.9 404.1,161.2 404.2,161.4 404.2,161.7 404.4,161.9 404.7,162 404.9,162.3 405,162.5 
		405.2,162.7 405.5,163 405.7,163.1 406,163.3 406.5,163.5 406.6,163.6 407,163.6 407.3,163.8 407.6,163.8 407.8,163.8 408.1,163.8 
		408.6,163.8 408.9,163.8 409.1,163.8 409.4,163.8 409.7,163.6 410,163.6 410.2,163.5 410.7,163.3 411,163.1 411.1,163 411.3,162.7 
		411.6,162.5 411.8,162.3 412,162 412.1,161.9 412.4,161.7 412.4,161.4 412.6,161.2 412.9,160.9 413.1,160.4 413.1,160.2 
		413.2,159.9 413.2,159.6 413.2,159.3 413.2,159 413.2,158.8 413.2,158.5 413.2,158 413.1,157.7 413.1,157.5 412.9,157.2 
		412.9,156.9 412.6,156.7 412.4,156.4 412.3,156.1 412.1,155.7 412,155.6 411.6,155.4 411.5,155.1 411.3,154.9 411,154.8 
		410.8,154.6 410.3,154.6 410,154.4 409.9,154.3 409.5,154.3 409.2,154.1 409.1,154.1 408.7,154.1 408.2,154.1 	"/>
</g>
<g id="ID000212_00000160159126962863698830000008876244954460059791_">
	<polygon class="st5" points="413.2,176.7 413.2,166.7 403.4,166.7 403.4,176.7 	"/>
</g>
<g id="ID000216_00000062171308955940914970000002087959513422291882_">
	<line class="st4" x1="413.1" y1="146.2" x2="436.5" y2="182"/>
</g>
<g id="ID000217_00000091008506219640601130000013113772422707193500_">
	<polygon class="st5" points="432.9,176.7 433.2,176.5 433.4,176.4 433.7,176.2 433.9,176 434,175.6 434.2,175.4 434.4,175.1 
		434.5,174.9 434.8,174.6 434.8,174.4 435,174.1 435.2,173.6 435.2,173.3 435.2,173.1 435.2,172.8 435.2,172.5 435.2,172.2 
		435.2,172 435.2,171.5 435,171.2 435,170.9 434.8,170.7 434.5,170.4 434.5,170.2 434.4,169.9 434,169.6 433.9,169.4 433.7,169.1 
		433.6,169 433.4,168.6 433.1,168.5 432.9,168.3 432.4,168.1 432.1,168.1 431.9,168 431.6,167.8 431.3,167.8 431.1,167.8 
		430.8,167.7 430.3,167.7 430,167.7 429.7,167.7 429.5,167.8 429.2,167.8 428.9,167.8 428.6,168 428.4,168.1 427.9,168.1 
		427.8,168.3 427.4,168.5 427.3,168.6 426.9,169 426.8,169.1 426.6,169.4 426.5,169.6 426.1,169.9 426.1,170.1 426,170.4 
		425.7,170.7 425.5,170.9 425.5,171.2 425.3,171.5 425.3,172 425.3,172.2 425.3,172.5 425.3,172.8 425.3,173.1 425.3,173.3 
		425.5,173.6 425.5,174.1 425.7,174.4 425.7,174.6 426,174.9 426.1,175.1 426.3,175.4 426.5,175.6 426.6,176 426.8,176.2 
		427.1,176.4 427.3,176.5 427.6,176.7 427.8,176.8 428.2,177 428.6,177.2 428.7,177.2 429,177.3 429.4,177.3 429.5,177.5 
		429.8,177.5 430.2,177.5 430.7,177.5 431,177.5 431.1,177.3 431.5,177.3 431.8,177.2 431.9,177.2 432.3,177 432.7,176.8 	"/>
</g>
<g id="ID000218_00000021805266551098479810000016963060167560775809_">
	<polygon class="st5" points="415.7,157.7 420.3,166.4 429,161.5 424.2,153 	"/>
</g>
<text transform="matrix(6.123234e-17 -1 1 6.123234e-17 469.5469 225.8652)" class="st21 st0 st22">DFHBI-1T</text>
<text transform="matrix(1 0 0 1 28.1904 154.9878)" class="st0 st23">5</text>
<text transform="matrix(1 0 0 1 42.6968 153.376)" class="st0 st23">’</text>
<text transform="matrix(1 0 0 1 28.1904 256.9219)" class="st0 st23">3</text>
<text transform="matrix(1 0 0 1 42.6968 255.3086)" class="st0 st23">’</text>
</svg>
