<?xml version="1.0" encoding="utf-8"?>
<!-- Generator: Adobe Illustrator 27.0.0, SVG Export Plug-In . SVG Version: 6.00 Build 0)  -->
<svg version="1.1" id="图层_1" xmlns="http://www.w3.org/2000/svg" xmlns:xlink="http://www.w3.org/1999/xlink" x="0px" y="0px"
	 viewBox="0 0 800 400" style="enable-background:new 0 0 800 400;" xml:space="preserve">
<style type="text/css">
	.st0{fill:#8527B5;}
	.st1{fill:#B83332;}
	.st2{font-family:'Arial-BoldMT';}
	.st3{font-size:16.9564px;}
	.st4{fill:#084595;}
	.st5{fill:#CF3E7D;}
	.st6{font-family:'ArialMT';}
	.st7{fill:#F17D07;}
	.st8{fill:#18988C;}
	.st9{fill:#C2B617;}
	.st10{fill:none;stroke:#000000;stroke-miterlimit:1.9;}
	.st11{fill:none;stroke:#000000;stroke-width:1.1;stroke-miterlimit:1.9;}
	.st12{stroke:#000000;stroke-width:0.24;stroke-miterlimit:1.9;}
	.st13{font-size:16.5922px;}
	.st14{fill:#FFFFFF;}
	.st15{font-size:20.1682px;}
	.st16{font-size:23.9385px;}
	.st17{font-size:15.959px;}
	.st18{font-size:20px;}
	.st19{opacity:0.5;fill:#459119;enable-background:new    ;}
	.st20{opacity:0.3;fill:#459119;enable-background:new    ;}
</style>
<rect x="388" y="195.3" class="st0" width="24.6" height="58.9"/>
<text transform="matrix(1 0 0 1 21.5049 107.8257)" class="st1 st2 st3">G</text>
<text transform="matrix(1 0 0 1 21.5547 124.2227)" class="st1 st2 st3">G</text>
<text transform="matrix(1 0 0 1 22.0762 140.6135)" class="st1 st2 st3">C</text>
<text transform="matrix(1 0 0 1 21.6533 157.0114)" class="st1 st2 st3">G</text>
<text transform="matrix(1 0 0 1 22.1758 173.4026)" class="st1 st2 st3">C</text>
<text transform="matrix(1 0 0 1 29.9658 193.8715)" class="st4 st2 st3">G</text>
<text transform="matrix(1 0 0 1 42.8184 210.2617)" class="st4 st2 st3">A</text>
<text transform="matrix(1 0 0 1 54.667 230.6822)" class="st4 st2 st3">G</text>
<text transform="matrix(1 0 0 1 103.9473 263.3223)" class="st5 st2 st3">G</text>
<text transform="matrix(1 0 0 1 174.1289 263.1463)" class="st5 st2 st3">A</text>
<text transform="matrix(1 0 0 1 148.8262 315.4735)" class="st6 st3">10</text>
<text transform="matrix(1 0 0 1 365.083 251.5338)" class="st7 st2 st3">A</text>
<text transform="matrix(1 0 0 1 312.9688 262.688)" class="st8 st2 st3">G</text>
<text transform="matrix(1 0 0 1 243.2949 262.9001)" class="st8 st2 st3">G</text>
<text transform="matrix(1 0 0 1 304.1201 319.4652)" class="st9 st2 st3">A</text>
<text transform="matrix(1 0 0 1 345.8457 291.2738)" class="st8 st2 st3">G</text>
<text transform="matrix(1 0 0 1 276.1729 291.4846)" class="st8 st2 st3">G</text>
<text transform="matrix(1 0 0 1 197.4414 291.7262)" class="st5 st2 st3">U</text>
<text transform="matrix(1 0 0 1 128.4326 291.9365)" class="st5 st2 st3">C</text>
<text transform="matrix(1 0 0 1 96.0098 193.6737)" class="st9 st2 st3">U</text>
<text transform="matrix(1 0 0 1 127.8232 246.8513)" class="st5 st2 st3">G</text>
<text transform="matrix(1 0 0 1 155.4863 200.5904)" class="st6 st3">20</text>
<text transform="matrix(1 0 0 1 198.6689 246.6787)" class="st5 st2 st3">A</text>
<text transform="matrix(1 0 0 1 345.709 246.1898)" class="st8 st2 st3">G</text>
<text transform="matrix(1 0 0 1 276.0352 246.4018)" class="st8 st2 st3">G</text>
<text transform="matrix(1 0 0 1 378.8037 180.5541)" class="st7 st2 st3">A</text>
<text transform="matrix(1 0 0 1 312.832 217.6019)" class="st8 st2 st3">G</text>
<text transform="matrix(1 0 0 1 243.1592 217.8139)" class="st8 st2 st3">G</text>
<text transform="matrix(1 0 0 1 173.957 218.0271)" class="st5 st2 st3">U</text>
<text transform="matrix(1 0 0 1 104.2832 218.2386)" class="st5 st2 st3">C</text>
<text transform="matrix(1 0 0 1 87.2393 210.7903)" class="st4 st2 st3">A</text>
<text transform="matrix(1 0 0 1 75.5342 197.831)" class="st4 st2 st3">C</text>
<text transform="matrix(1 0 0 1 83.9775 155.7591)" class="st6 st3">30</text>
<text transform="matrix(1 0 0 1 63.2021 185.574)" class="st4 st2 st3">U</text>
<text transform="matrix(1 0 0 1 54.4932 173.3033)" class="st1 st2 st3">G</text>
<text transform="matrix(1 0 0 1 54.915 156.9112)" class="st1 st2 st3">C</text>
<text transform="matrix(1 0 0 1 54.3926 140.5142)" class="st1 st2 st3">G</text>
<text transform="matrix(1 0 0 1 54.8154 124.1231)" class="st1 st2 st3">C</text>
<text transform="matrix(1 0 0 1 54.7666 107.7318)" class="st1 st2 st3">C</text>
<line class="st10" x1="34.4" y1="101.7" x2="54.1" y2="101.7"/>
<line class="st10" x1="34.4" y1="118.1" x2="54.1" y2="118"/>
<line class="st10" x1="34.5" y1="134.5" x2="54.2" y2="134.5"/>
<line class="st10" x1="34.5" y1="150.9" x2="54.2" y2="150.8"/>
<line class="st10" x1="34.6" y1="167.3" x2="54.3" y2="167.3"/>
<line class="st11" x1="198.1" y1="285.6" x2="141.5" y2="285.8"/>
<polyline class="st11" points="128.4,285.9 102.2,285.9 101.9,194.2 "/>
<line class="st11" x1="173.2" y1="212" x2="116.6" y2="212.1"/>
<line class="st11" x1="66.4" y1="228.2" x2="104.8" y2="253.6"/>
<polygon class="st12" points="81.7,234.1 82.4,236.7 83.7,238.4 85.3,239.8 88.2,242.8 84.3,241.3 82.4,240.4 80.4,239.8 
	77.6,240.2 "/>
<polygon class="st12" points="159.8,237 161.9,238.9 163.9,239.5 166,239.7 170.1,240.6 166,241.6 163.9,241.9 161.9,242.5 
	159.9,244.4 "/>
<polygon class="st12" points="151.5,215.5 149.5,213.6 147.4,213.1 145.4,212.8 141.2,211.9 145.4,210.9 147.4,210.6 149.4,210 
	151.5,208.1 "/>
<polygon class="st12" points="228.3,215.5 226.2,213.7 224.2,213.2 222.1,212.9 218,212 222.1,211 224.2,210.7 226.2,210.1 
	228.1,208.2 "/>
<polygon class="st12" points="141.5,253.5 143.5,255.4 145.6,255.9 147.6,256.3 151.7,257.3 147.6,258.1 145.5,258.4 143.4,259 
	141.4,260.8 "/>
<polygon class="st12" points="138.3,195.6 136.4,197.5 135.7,199.5 135.4,201.6 134.2,205.6 133.5,201.5 133.3,199.5 132.8,197.4 
	131,195.3 "/>
<polygon class="st12" points="266.7,322.7 268.7,324.5 270.8,325.1 272.9,325.4 276.9,326.4 272.9,327.2 270.8,327.6 268.7,328.3 
	266.7,330.1 "/>
<polygon class="st12" points="271.7,310.4 273.8,312.3 275.9,312.9 277.9,313.2 282,314.1 277.9,315 275.9,315.3 273.8,315.9 
	271.8,317.8 "/>
<polygon class="st12" points="120.4,289.6 118.3,287.8 116.3,287.2 114.2,287 110.1,286.1 114.1,285.1 116.2,284.8 118.3,284.1 
	120.2,282.2 "/>
<polygon class="st12" points="321.7,289.3 319.6,287.4 317.6,286.8 315.5,286.6 311.4,285.7 315.5,284.7 317.5,284.4 319.5,283.7 
	321.6,281.9 "/>
<polygon class="st12" points="345.6,253.3 343.2,252 341.1,251.9 339,252.1 334.8,252.2 338.5,250.3 340.4,249.5 342.3,248.4 
	343.8,246.2 "/>
<polygon class="st12" points="361,192.1 358.3,191.6 356.2,192.1 354.3,192.9 350.3,194.2 353.4,191.3 355,190 356.4,188.4 
	357.2,185.8 "/>
<polygon class="st12" points="324.1,300.3 326.8,300.6 328.8,299.9 330.7,298.9 334.5,297.3 331.8,300.5 330.2,301.9 329,303.6 
	328.4,306.3 "/>
<polygon class="st12" points="319.3,243.9 317.3,242.1 315.3,241.5 313.2,241.2 309.1,240.4 313.2,239.3 315.2,239 317.3,238.4 
	319.3,236.5 "/>
<polygon class="st12" points="301.7,215.3 299.6,213.5 297.6,212.9 295.5,212.6 291.5,211.8 295.5,210.8 297.6,210.5 299.6,209.8 
	301.6,207.9 "/>
<polygon class="st12" points="302.4,260.3 300.3,258.5 298.2,257.9 296.2,257.7 292.1,256.8 296.2,255.8 298.2,255.5 300.3,254.8 
	302.3,253 "/>
<polygon class="st12" points="269.9,289.2 267.7,287.4 265.7,286.8 263.6,286.6 259.5,285.9 263.5,284.8 265.5,284.4 267.5,283.7 
	269.5,281.8 "/>
<polygon class="st12" points="192.7,289.4 190.7,287.5 188.6,286.9 186.6,286.6 182.5,285.7 186.5,284.7 188.6,284.5 190.7,283.9 
	192.7,282 "/>
<polygon class="st12" points="232.9,183.5 235.1,185.3 237.1,185.9 239.1,186.2 243.2,187 239.2,188 237.1,188.4 235.1,189 
	233.1,190.8 "/>
<polygon class="st12" points="278.5,203 280.3,200.9 280.8,198.8 281,196.8 281.8,192.6 282.8,196.7 283.2,198.7 284,200.7 
	285.9,202.7 "/>
<line class="st11" x1="116.8" y1="257.2" x2="173.4" y2="257.1"/>
<polyline class="st11" points="180.2,326.7 372.7,326.1 372.5,250.4 "/>
<line class="st11" x1="180" y1="261" x2="180.2" y2="326.7"/>
<line class="st11" x1="364.8" y1="245.8" x2="325.4" y2="254.3"/>
<line class="st11" x1="312.7" y1="256.6" x2="256.2" y2="256.8"/>
<polyline class="st11" points="249.6,263.3 249.7,314.2 304.7,314 "/>
<line class="st11" x1="342.6" y1="287.2" x2="286" y2="287.4"/>
<line class="st11" x1="275.9" y1="285.4" x2="211.2" y2="285.6"/>
<polyline class="st11" points="108.4,187.8 134.7,188.3 134.8,234.2 "/>
<line class="st11" x1="141.3" y1="240.7" x2="197.9" y2="240.6"/>
<polyline class="st11" points="204.4,234 204.3,187.3 331.3,186.9 349.6,234 "/>
<line class="st11" x1="345.5" y1="240.1" x2="288.9" y2="240.3"/>
<polyline class="st11" points="282.3,233.8 282.1,174.7 378.1,174.4 "/>
<line class="st11" x1="378.9" y1="177.7" x2="324.8" y2="208.3"/>
<line class="st11" x1="312.6" y1="211.6" x2="256" y2="211.7"/>
<line class="st11" x1="242.9" y1="211.8" x2="187" y2="211.9"/>
<line class="st10" x1="324.2" y1="260.9" x2="347.2" y2="280.9"/>
<polygon class="st12" points="330,266 329.9,266.1 329.8,266.3 329.7,266.4 329.5,266.6 329.5,266.8 329.4,267 329.3,267.2 
	329.3,267.4 329.3,267.6 329.2,267.8 329.2,268 329.2,268.3 329.2,268.5 329.3,268.7 329.3,268.9 329.3,269.1 329.4,269.3 
	329.5,269.5 329.6,269.6 329.7,269.8 329.8,270 329.9,270.2 330.1,270.3 330.2,270.5 330.4,270.6 330.5,270.7 330.7,270.9 
	330.9,270.9 331.1,271.1 331.3,271.1 331.5,271.2 331.7,271.3 331.9,271.3 332.1,271.3 332.3,271.4 332.5,271.4 332.7,271.4 
	332.9,271.3 333.1,271.3 333.3,271.3 333.5,271.2 333.7,271.1 333.9,271.1 334.1,271 334.3,270.9 334.5,270.7 334.6,270.6 
	334.7,270.5 334.9,270.3 335.1,270.2 335.1,270 335.3,269.9 335.4,269.7 335.5,269.5 335.6,269.3 335.6,269.1 335.7,268.9 
	335.7,268.7 335.8,268.5 335.8,268.3 335.8,268.1 335.8,267.9 335.7,267.7 335.7,267.5 335.6,267.3 335.6,267 335.5,266.9 
	335.4,266.7 335.3,266.5 335.2,266.3 335.1,266.1 335,265.9 334.8,265.8 334.6,265.7 334.5,265.5 334.4,265.4 334.2,265.3 
	334,265.2 333.8,265.1 333.6,265 333.4,265 333.2,264.9 333,264.9 332.8,264.8 332.6,264.8 332.4,264.8 332.2,264.8 332,264.9 
	331.8,264.9 331.6,265 331.4,265 331.2,265.1 331,265.2 330.8,265.3 330.7,265.4 330.5,265.6 330.3,265.6 330.1,265.8 "/>
<polygon class="st12" points="343.6,273.4 338.6,269.1 334.3,274 339.3,278.3 "/>
<line class="st10" x1="254.6" y1="261.1" x2="277.5" y2="281.1"/>
<polygon class="st12" points="260.4,266.2 260.2,266.3 260.1,266.5 260,266.6 259.9,266.8 259.8,267 259.7,267.2 259.6,267.4 
	259.6,267.6 259.6,267.8 259.6,268 259.5,268.2 259.5,268.5 259.6,268.7 259.6,268.9 259.6,269.1 259.6,269.3 259.7,269.5 
	259.8,269.7 259.9,269.8 260,270 260.1,270.2 260.2,270.4 260.4,270.6 260.6,270.7 260.7,270.8 260.8,271 261,271.1 261.2,271.2 
	261.4,271.3 261.6,271.4 261.8,271.4 262,271.5 262.2,271.6 262.4,271.6 262.6,271.6 262.8,271.6 263,271.6 263.2,271.5 
	263.4,271.5 263.6,271.5 263.8,271.4 264,271.3 264.2,271.3 264.4,271.2 264.6,271.1 264.8,270.9 264.9,270.8 265,270.7 
	265.2,270.5 265.4,270.4 265.5,270.2 265.6,270.1 265.7,269.9 265.8,269.7 265.9,269.5 266,269.3 266,269.1 266,268.9 266.1,268.7 
	266.1,268.5 266.1,268.3 266.1,268.1 266,267.9 266,267.7 266,267.5 265.9,267.2 265.8,267.1 265.8,266.9 265.6,266.7 265.6,266.5 
	265.4,266.4 265.3,266.2 265.2,266 265,265.9 264.8,265.8 264.7,265.6 264.5,265.5 264.3,265.4 264.2,265.3 264,265.2 263.8,265.2 
	263.6,265.1 263.4,265.1 263.2,265 263,265 262.7,265 262.5,265 262.3,265.1 262.1,265.1 261.9,265.2 261.7,265.2 261.5,265.3 
	261.3,265.4 261.2,265.5 261,265.6 260.8,265.8 260.6,265.8 260.5,266 "/>
<polygon class="st12" points="273.9,273.6 269,269.3 264.6,274.2 269.6,278.5 "/>
<line class="st10" x1="352.1" y1="278.7" x2="352" y2="246.7"/>
<polygon class="st12" points="352.1,270.2 352.3,270.2 352.5,270.1 352.7,270.1 352.9,270.1 353.1,270 353.3,269.9 353.5,269.9 
	353.7,269.8 353.9,269.7 354.1,269.5 354.2,269.4 354.3,269.3 354.5,269.1 354.6,268.9 354.7,268.8 354.9,268.6 355,268.5 
	355.1,268.3 355.1,268.1 355.2,267.9 355.3,267.7 355.3,267.5 355.3,267.3 355.4,267.1 355.4,266.9 355.3,266.6 355.3,266.4 
	355.3,266.2 355.3,266 355.2,265.8 355.1,265.6 355,265.5 354.9,265.3 354.8,265.1 354.7,265 354.6,264.8 354.4,264.6 354.3,264.5 
	354.1,264.4 353.9,264.2 353.8,264.1 353.6,264 353.4,263.9 353.2,263.8 353,263.8 352.8,263.7 352.6,263.7 352.4,263.6 
	352.2,263.6 352,263.6 351.8,263.6 351.5,263.7 351.3,263.7 351.1,263.8 350.9,263.8 350.7,263.9 350.6,264 350.4,264.1 
	350.2,264.2 350.1,264.4 349.9,264.5 349.7,264.6 349.6,264.8 349.5,265 349.3,265.1 349.3,265.3 349.1,265.5 349.1,265.6 
	349,265.8 348.9,266 348.9,266.2 348.8,266.4 348.8,266.6 348.8,266.9 348.8,267.1 348.8,267.3 348.9,267.5 348.9,267.7 
	348.9,267.9 349,268.1 349.1,268.3 349.2,268.5 349.3,268.6 349.4,268.8 349.5,269 349.7,269.2 349.8,269.3 350,269.4 350.1,269.6 
	350.3,269.7 350.5,269.8 350.7,269.9 350.9,270 351.1,270 351.3,270.1 351.5,270.2 351.7,270.2 351.9,270.2 "/>
<polygon class="st12" points="348.8,255.1 348.8,261.7 355.4,261.7 355.4,255.1 "/>
<line class="st10" x1="282.4" y1="278.9" x2="282.3" y2="246.9"/>
<polygon class="st12" points="282.4,270.4 282.7,270.4 282.9,270.4 283.1,270.4 283.3,270.3 283.5,270.2 283.7,270.2 283.9,270.1 
	284,270 284.2,269.9 284.4,269.8 284.5,269.6 284.6,269.5 284.8,269.4 285,269.2 285.1,269 285.2,268.8 285.3,268.7 285.4,268.5 
	285.5,268.3 285.6,268.1 285.6,267.9 285.6,267.7 285.6,267.5 285.7,267.3 285.7,267.1 285.7,266.8 285.6,266.6 285.6,266.4 
	285.6,266.2 285.5,266 285.4,265.8 285.4,265.7 285.2,265.5 285.2,265.3 285,265.2 284.9,265 284.8,264.8 284.6,264.7 284.4,264.6 
	284.2,264.4 284.1,264.3 283.9,264.2 283.7,264.1 283.5,264 283.3,264 283.1,263.9 282.9,263.9 282.7,263.8 282.5,263.8 
	282.3,263.8 282.1,263.8 281.9,263.9 281.7,263.9 281.5,264 281.3,264 281.1,264.1 280.9,264.2 280.7,264.3 280.6,264.4 
	280.4,264.6 280.2,264.7 280,264.8 279.9,265 279.8,265.2 279.7,265.3 279.6,265.5 279.5,265.7 279.4,265.8 279.3,266 279.3,266.2 
	279.2,266.4 279.2,266.6 279.1,266.8 279.1,267.1 279.1,267.3 279.2,267.5 279.2,267.7 279.3,267.9 279.3,268.1 279.3,268.3 
	279.5,268.5 279.5,268.7 279.7,268.8 279.7,269 279.9,269.2 280,269.4 280.1,269.5 280.3,269.6 280.5,269.8 280.7,269.9 280.9,270 
	281,270.1 281.2,270.2 281.4,270.2 281.6,270.3 281.8,270.4 282,270.4 282.2,270.4 "/>
<polygon class="st12" points="279.1,255.3 279.1,261.9 285.7,261.9 285.7,255.3 "/>
<line class="st10" x1="204.6" y1="279.1" x2="204.5" y2="247.1"/>
<polygon class="st12" points="204.5,271.7 208.2,265.2 200.9,265.2 "/>
<polygon class="st12" points="204.5,255.6 204.3,255.6 204.1,255.6 203.9,255.6 203.7,255.7 203.5,255.7 203.3,255.8 203.1,255.9 
	202.9,256 202.8,256.1 202.6,256.2 202.4,256.4 202.2,256.5 202.1,256.6 202,256.8 201.8,257 201.8,257.1 201.6,257.3 201.5,257.5 
	201.4,257.7 201.4,257.9 201.4,258.1 201.3,258.3 201.2,258.5 201.2,258.7 201.2,258.9 201.2,259.1 201.3,259.3 201.3,259.5 
	201.4,259.7 201.4,259.9 201.5,260.1 201.6,260.3 201.7,260.5 201.8,260.7 201.9,260.8 202,261 202.2,261.2 202.4,261.3 
	202.5,261.4 202.6,261.6 202.8,261.7 203,261.8 203.2,261.8 203.4,262 203.6,262 203.8,262 204,262.1 204.2,262.1 204.4,262.1 
	204.6,262.1 204.8,262.1 205,262.1 205.2,262 205.4,262 205.6,261.9 205.8,261.8 206,261.7 206.2,261.7 206.4,261.5 206.6,261.4 
	206.7,261.3 206.8,261.1 207,261 207.2,260.8 207.2,260.7 207.4,260.5 207.5,260.3 207.6,260.1 207.6,259.9 207.7,259.7 
	207.8,259.5 207.7,259.3 207.7,259.1 207.8,258.9 207.8,258.7 207.7,258.5 207.7,258.3 207.7,258.1 207.7,257.9 207.6,257.7 
	207.5,257.5 207.4,257.3 207.3,257.1 207.1,257 207.1,256.8 206.9,256.6 206.7,256.5 206.6,256.4 206.5,256.2 206.3,256.1 
	206.1,256 205.9,255.9 205.7,255.8 205.5,255.7 205.3,255.7 205.1,255.6 204.9,255.6 204.7,255.6 "/>
<line class="st10" x1="130.5" y1="235.8" x2="114.4" y2="217.1"/>
<polygon class="st12" points="120.3,224 120.1,224.1 120,224.3 119.9,224.4 119.7,224.6 119.6,224.8 119.5,225 119.5,225.2 
	119.3,225.4 119.3,225.6 119.3,225.7 119.2,226 119.2,226.2 119.1,226.4 119.1,226.6 119.2,226.8 119.2,227 119.3,227.2 
	119.3,227.4 119.3,227.6 119.4,227.8 119.5,228 119.6,228.2 119.7,228.3 119.9,228.5 120,228.6 120.1,228.8 120.3,229 120.5,229.1 
	120.6,229.2 120.8,229.3 120.9,229.4 121.1,229.5 121.3,229.6 121.5,229.6 121.7,229.7 121.9,229.7 122.1,229.8 122.4,229.8 
	122.6,229.8 122.8,229.8 123,229.7 123.2,229.7 123.4,229.6 123.6,229.5 123.8,229.5 124,229.3 124.1,229.3 124.3,229.1 124.5,229 
	124.7,228.9 124.8,228.7 124.9,228.6 125.1,228.4 125.2,228.3 125.3,228.1 125.4,227.9 125.5,227.7 125.5,227.5 125.6,227.3 
	125.7,227.1 125.7,226.9 125.7,226.7 125.7,226.5 125.7,226.3 125.7,226.1 125.7,225.9 125.6,225.7 125.6,225.4 125.5,225.3 
	125.4,225.1 125.3,224.9 125.2,224.7 125.1,224.6 125,224.4 124.9,224.2 124.7,224.1 124.5,224 124.4,223.8 124.2,223.7 124,223.6 
	123.8,223.5 123.6,223.4 123.5,223.4 123.3,223.3 123.1,223.2 122.8,223.2 122.6,223.2 122.4,223.2 122.2,223.2 122,223.2 
	121.8,223.2 121.6,223.3 121.4,223.4 121.2,223.4 121,223.5 120.8,223.6 120.7,223.7 120.5,223.8 "/>
<line class="st10" x1="347.1" y1="235.8" x2="324.1" y2="215.8"/>
<polygon class="st12" points="341.3,230.8 341.4,230.6 341.5,230.4 341.7,230.3 341.7,230.1 341.8,229.9 341.8,229.7 341.9,229.5 
	342,229.3 342,229.1 342,228.9 342,228.7 342,228.5 342,228.3 342,228 342,227.8 341.9,227.6 341.8,227.4 341.8,227.3 341.6,227.1 
	341.6,226.9 341.4,226.7 341.3,226.6 341.2,226.4 341,226.2 340.9,226.1 340.7,226 340.6,225.8 340.4,225.8 340.2,225.6 340,225.6 
	339.8,225.5 339.6,225.4 339.4,225.4 339.2,225.4 339,225.4 338.8,225.4 338.6,225.4 338.4,225.4 338.2,225.4 338,225.4 
	337.8,225.5 337.6,225.6 337.4,225.6 337.2,225.8 337,225.8 336.9,226 336.7,226.1 336.5,226.2 336.4,226.4 336.3,226.5 
	336.1,226.7 336,226.9 335.9,227 335.8,227.2 335.7,227.4 335.7,227.6 335.6,227.8 335.5,228 335.5,228.2 335.5,228.4 335.5,228.6 
	335.5,228.9 335.5,229.1 335.6,229.3 335.6,229.5 335.7,229.7 335.7,229.9 335.9,230 335.9,230.2 336.1,230.4 336.2,230.6 
	336.3,230.8 336.5,230.9 336.6,231 336.7,231.2 336.9,231.3 337.1,231.4 337.3,231.6 337.5,231.6 337.7,231.7 337.9,231.8 
	338.1,231.8 338.3,231.8 338.5,231.9 338.7,231.9 338.9,231.9 339.1,231.9 339.3,231.9 339.5,231.8 339.7,231.8 339.9,231.7 
	340.1,231.6 340.3,231.6 340.5,231.4 340.7,231.4 340.8,231.2 341,231.1 341.1,231 "/>
<polygon class="st12" points="327.7,223.3 332.7,227.7 337,222.7 332,218.4 "/>
<line class="st10" x1="277.4" y1="236" x2="254.4" y2="216.1"/>
<polygon class="st12" points="271.6,231 271.7,230.8 271.8,230.6 272,230.5 272,230.3 272.2,230.1 272.2,229.9 272.3,229.7 
	272.3,229.5 272.4,229.3 272.4,229.1 272.4,228.9 272.4,228.7 272.4,228.5 272.4,228.2 272.3,228 272.2,227.8 272.2,227.6 
	272.1,227.5 272,227.3 271.9,227.1 271.8,226.9 271.7,226.8 271.5,226.6 271.4,226.4 271.2,226.3 271.1,226.2 270.9,226 270.7,226 
	270.6,225.8 270.4,225.8 270.2,225.7 270,225.6 269.8,225.6 269.6,225.6 269.4,225.6 269.1,225.6 268.9,225.6 268.7,225.6 
	268.5,225.6 268.3,225.7 268.1,225.7 267.9,225.8 267.7,225.9 267.5,226 267.4,226.1 267.2,226.2 267,226.3 266.8,226.5 
	266.7,226.6 266.6,226.7 266.4,226.9 266.3,227.1 266.2,227.3 266.1,227.5 266,227.7 266,227.9 265.9,228.1 265.9,228.3 
	265.8,228.5 265.8,228.7 265.8,228.9 265.8,229.1 265.8,229.3 265.9,229.5 266,229.7 266,229.9 266.1,230.1 266.2,230.2 
	266.2,230.4 266.4,230.6 266.5,230.8 266.6,231 266.8,231.1 266.9,231.2 267.1,231.4 267.2,231.5 267.4,231.6 267.6,231.8 
	267.8,231.8 268,231.9 268.2,232 268.4,232 268.6,232 268.8,232.1 269,232.1 269.2,232.1 269.4,232.1 269.6,232.1 269.8,232 
	270,232 270.2,231.9 270.4,231.8 270.6,231.8 270.8,231.6 271,231.6 271.2,231.4 271.3,231.3 271.4,231.2 "/>
<path class="st12" d="M258,223.6c5.7,5,4.3,5.2,9.2-0.6C261.6,217.8,262.9,217.8,258,223.6z"/>
<line class="st10" x1="54.8" y1="201.8" x2="75.2" y2="194.1"/>
<polygon class="st12" points="58,200.6 58,200.8 58.1,201 58.2,201.2 58.3,201.4 58.4,201.6 58.6,201.7 58.7,201.8 58.9,202 
	59,202.1 59.2,202.2 59.4,202.3 59.6,202.4 59.8,202.5 60,202.5 60.2,202.6 60.4,202.7 60.6,202.7 60.8,202.7 61,202.7 61.2,202.7 
	61.4,202.7 61.6,202.7 61.8,202.6 62,202.6 62.2,202.5 62.4,202.4 62.5,202.3 62.7,202.2 62.9,202.1 63.1,202 63.3,201.9 
	63.4,201.7 63.5,201.5 63.7,201.3 63.8,201.2 63.9,201 64,200.8 64.1,200.7 64.1,200.5 64.2,200.3 64.2,200.1 64.3,199.9 
	64.3,199.6 64.3,199.4 64.3,199.2 64.3,199 64.2,198.8 64.1,198.6 64.1,198.4 64,198.2 63.9,198 63.9,197.8 63.7,197.7 63.6,197.5 
	63.5,197.3 63.3,197.1 63.2,197 63,196.9 62.9,196.8 62.7,196.7 62.5,196.6 62.3,196.5 62.1,196.4 61.9,196.3 61.7,196.3 
	61.5,196.2 61.3,196.2 61.1,196.2 60.9,196.2 60.7,196.2 60.5,196.2 60.3,196.3 60.1,196.3 59.9,196.4 59.7,196.4 59.5,196.6 
	59.3,196.6 59.1,196.8 59,196.9 58.8,197 58.7,197.2 58.5,197.3 58.4,197.5 58.3,197.6 58.1,197.8 58.1,198 57.9,198.2 57.9,198.4 
	57.8,198.6 57.8,198.8 57.8,199 57.8,199.2 57.7,199.4 57.7,199.6 57.8,199.8 57.8,200 57.8,200.2 57.9,200.4 "/>
<polygon class="st12" points="73,194.9 65.6,193.8 68.3,200.7 "/>
<line class="st10" x1="66.5" y1="221.1" x2="88.2" y2="207.5"/>
<polygon class="st12" points="70.1,218.9 77.5,218.6 73.6,212.3 "/>
<polygon class="st12" points="83.7,210.3 83.6,210.1 83.5,209.9 83.3,209.8 83.2,209.7 83.1,209.5 82.9,209.4 82.7,209.3 
	82.5,209.2 82.3,209.1 82.1,209 81.9,208.9 81.7,208.9 81.5,208.8 81.3,208.8 81.1,208.8 80.9,208.7 80.7,208.8 80.5,208.8 
	80.3,208.8 80.1,208.9 79.9,208.9 79.7,209 79.5,209.1 79.3,209.2 79.1,209.3 79,209.4 78.8,209.5 78.7,209.7 78.5,209.8 78.4,210 
	78.3,210.1 78.1,210.3 78,210.5 77.9,210.7 77.9,210.9 77.8,211.1 77.7,211.3 77.7,211.5 77.7,211.7 77.7,211.9 77.7,212.1 
	77.7,212.3 77.7,212.5 77.7,212.7 77.8,212.9 77.9,213.1 77.9,213.3 78,213.5 78.1,213.7 78.2,213.9 78.3,214.1 78.5,214.2 
	78.6,214.4 78.7,214.5 78.9,214.7 79.1,214.7 79.3,214.9 79.5,215 79.6,215.1 79.8,215.1 80,215.2 80.2,215.3 80.4,215.3 
	80.7,215.3 80.9,215.3 81.1,215.3 81.3,215.3 81.5,215.2 81.7,215.2 81.9,215.2 82.1,215.1 82.3,215 82.5,214.9 82.7,214.8 
	82.8,214.7 83,214.6 83.1,214.4 83.3,214.3 83.4,214.2 83.5,214 83.7,213.8 83.8,213.6 83.9,213.5 84,213.3 84.1,213.1 84.1,212.9 
	84.1,212.7 84.2,212.5 84.2,212.2 84.2,212 84.2,211.8 84.2,211.6 84.2,211.4 84.1,211.2 84.1,211.1 84,210.9 83.9,210.7 
	83.8,210.5 "/>
<line class="st10" x1="114.5" y1="262.2" x2="130.6" y2="280.9"/>
<polygon class="st12" points="124.7,274 124.9,273.9 125,273.8 125.1,273.6 125.3,273.4 125.4,273.2 125.5,273 125.6,272.9 
	125.7,272.7 125.7,272.5 125.8,272.3 125.8,272.1 125.9,271.9 125.9,271.6 125.9,271.4 125.9,271.2 125.8,271 125.8,270.8 
	125.7,270.6 125.7,270.4 125.6,270.2 125.5,270 125.4,269.9 125.3,269.7 125.2,269.5 125.1,269.4 124.9,269.2 124.7,269 
	124.6,268.9 124.4,268.8 124.3,268.7 124.1,268.6 123.9,268.5 123.7,268.4 123.5,268.4 123.3,268.3 123.1,268.3 122.9,268.3 
	122.7,268.3 122.5,268.3 122.3,268.3 122,268.3 121.8,268.4 121.6,268.4 121.4,268.5 121.2,268.6 121.1,268.7 120.9,268.8 
	120.7,268.9 120.5,269 120.3,269.1 120.2,269.3 120.1,269.5 119.9,269.6 119.8,269.8 119.7,269.9 119.6,270.1 119.5,270.3 
	119.5,270.5 119.4,270.7 119.3,270.9 119.3,271.1 119.3,271.3 119.3,271.5 119.3,271.7 119.3,272 119.3,272.2 119.4,272.4 
	119.5,272.6 119.6,272.8 119.6,273 119.8,273.1 119.8,273.3 120,273.5 120.1,273.6 120.2,273.8 120.4,274 120.5,274.1 120.7,274.2 
	120.8,274.3 121,274.4 121.2,274.5 121.4,274.6 121.6,274.7 121.8,274.8 122,274.8 122.2,274.8 122.4,274.8 122.6,274.8 
	122.8,274.8 123,274.8 123.3,274.8 123.5,274.7 123.7,274.6 123.9,274.6 124,274.5 124.2,274.4 124.4,274.3 124.5,274.2 "/>
<line class="st10" x1="177.9" y1="261" x2="157.6" y2="301.6"/>
<line class="st10" x1="141.3" y1="234.6" x2="164" y2="201.5"/>
<line class="st10" x1="82.4" y1="186.6" x2="92.3" y2="156.6"/>
<line class="st11" x1="316.6" y1="310.2" x2="346.8" y2="289"/>
<text transform="matrix(1 -6.074728e-03 6.074728e-03 1 766.962 72.97)" class="st1 st2 st13">G</text>
<text transform="matrix(1 -6.074728e-03 6.074728e-03 1 767.8077 89.675)" class="st1 st2 st3">G</text>
<text transform="matrix(1 -6.074728e-03 6.074728e-03 1 768.4305 106.063)" class="st1 st2 st3">C</text>
<text transform="matrix(1 -6.074728e-03 6.074728e-03 1 768.1046 122.4628)" class="st1 st2 st3">G</text>
<text transform="matrix(1 -3.037378e-03 3.037378e-03 1 768.5908 138.8819)" class="st1 st2 st3">C</text>
<text transform="matrix(1 -3.037378e-03 3.037378e-03 1 760.0444 159.4274)" class="st4 st2 st3">G</text>
<text transform="matrix(1 0 0 1 748.1641 175.9085)" class="st4 st2 st3">A</text>
<text transform="matrix(1 0 0 1 735.4229 196.4038)" class="st4 st2 st3">G</text>
<text transform="matrix(1 0 0 1 686.3428 229.3425)" class="st5 st2 st3">G</text>
<text transform="matrix(1 0 0 1 617.1699 229.589)" class="st5 st2 st3">A</text>
<text transform="matrix(1 0 0 1 637.1279 282.7778)" class="st6 st3">10</text>
<text transform="matrix(1 0 0 1 430.1396 161.3046)" class="st9 st2 st3">A</text>
<text transform="matrix(1 0 0 1 477.3145 229.9782)" class="st8 st2 st3">G</text>
<text transform="matrix(1 0 0 1 546.9961 229.766)" class="st8 st2 st3">G</text>
<text transform="matrix(1 0 0 1 393.5166 286.6511)" class="st7 st2 st3">A</text>
<text transform="matrix(1 0 0 1 443.6191 259.7638)" class="st8 st2 st3">G</text>
<text transform="matrix(1 0 0 1 516.2891 260.5457)" class="st8 st2 st3">G</text>
<text transform="matrix(1 0 0 1 591.6299 258.3168)" class="st5 st2 st3">U</text>
<text transform="matrix(1 0 0 1 661.3037 260.1046)" class="st5 st2 st3">C</text>
<text transform="matrix(1 0 0 1 692.7959 159.6435)" class="st9 st2 st3">U</text>
<text transform="matrix(1 0 0 1 660.6963 215.0262)" class="st5 st2 st3">G</text>
<text transform="matrix(1 0 0 1 628.7363 168.9363)" class="st6 st3">20</text>
<text transform="matrix(1 0 0 1 591.5293 214.2747)" class="st5 st2 st3">A</text>
<text transform="matrix(1 0 0 1 443.4824 214.6854)" class="st8 st2 st3">G</text>
<text transform="matrix(1 0 0 1 513.1562 214.4732)" class="st8 st2 st3">G</text>
<text transform="matrix(1 0 0 1 455.8418 147.8963)" class="st9 st2 st3">A</text>
<text transform="matrix(1 0 0 1 477.1768 184.894)" class="st8 st2 st3">G</text>
<text transform="matrix(1 0 0 1 545.8584 184.6817)" class="st8 st2 st3">G</text>
<text transform="matrix(1 0 0 1 615.998 186.4695)" class="st5 st2 st3">U</text>
<text transform="matrix(1 0 0 1 685.6777 185.2573)" class="st5 st2 st3">C</text>
<text transform="matrix(1 0 0 1 702.7412 176.7086)" class="st4 st2 st3">A</text>
<text transform="matrix(1 0 0 1 715.3027 163.6783)" class="st4 st2 st3">C</text>
<text transform="matrix(1 0 0 1 700.3096 122.6746)" class="st6 st3">30</text>
<text transform="matrix(1 -3.037378e-03 3.037378e-03 1 727.6762 151.4266)" class="st4 st2 st3">U</text>
<text transform="matrix(1 -3.037378e-03 3.037378e-03 1 735.33 139.0827)" class="st1 st2 st3">G</text>
<text transform="matrix(1 -6.074728e-03 6.074728e-03 1 735.7911 122.7589)" class="st1 st2 st3">C</text>
<text transform="matrix(1 -6.074728e-03 6.074728e-03 1 735.1678 106.3652)" class="st1 st2 st3">G</text>
<text transform="matrix(1 -6.074728e-03 6.074728e-03 1 735.4913 89.9698)" class="st1 st2 st3">C</text>
<text transform="matrix(1 -6.074728e-03 6.074728e-03 1 735.3422 73.2646)" class="st1 st2 st13">C</text>
<line class="st10" x1="767.2" y1="68.3" x2="747.5" y2="68.3"/>
<line class="st10" x1="767.2" y1="84.7" x2="747.6" y2="84.8"/>
<line class="st10" x1="767.3" y1="101.1" x2="747.6" y2="101.1"/>
<line class="st10" x1="767.3" y1="117.5" x2="747.7" y2="117.5"/>
<line class="st10" x1="767.4" y1="133.9" x2="747.7" y2="134"/>
<line class="st11" x1="602.6" y1="254.2" x2="659.2" y2="254.1"/>
<polyline class="st11" points="674.3,253 700.5,252.9 700.3,161.1 "/>
<line class="st11" x1="629" y1="179.3" x2="685.5" y2="179.2"/>
<line class="st11" x1="735.9" y1="195" x2="697.7" y2="220.6"/>
<polygon class="st12" points="720.7,200.9 719.9,203.6 718.6,205.3 717.1,206.7 714.2,209.7 718.1,208.2 719.9,207.3 722,206.7 
	724.7,207 "/>
<polygon class="st12" points="642.5,204.4 640.5,206.2 638.4,206.8 636.4,207.1 632.3,208 636.4,208.9 638.4,209.2 640.5,209.8 
	642.5,211.7 "/>
<polygon class="st12" points="650.7,182.8 652.8,180.9 654.8,180.3 656.8,180 660.9,179.1 656.8,178.2 654.8,177.9 652.8,177.3 
	650.7,175.4 "/>
<polygon class="st12" points="573.9,183.3 576,181.4 578,180.9 580.1,180.6 584.2,179.7 580.1,178.8 578.1,178.4 576,177.8 
	574,175.9 "/>
<polygon class="st12" points="661,220.7 658.9,222.5 657,223.2 654.9,223.5 650.8,224.5 654.9,225.3 657,225.7 659,226.2 661.1,228 
	"/>
<polygon class="st12" points="661.8,162.7 663.7,164.7 664.4,166.7 664.8,168.8 665.9,172.8 666.7,168.6 666.9,166.6 667.4,164.5 
	669.1,162.4 "/>
<polygon class="st12" points="536.2,290.7 534.1,292.5 532.1,293.1 530,293.4 526,294.4 530,295.3 532.1,295.6 534.2,296.2 
	536.2,298.1 "/>
<polygon class="st12" points="531,278.5 529,280.3 526.9,280.9 524.9,281.2 520.8,282.1 524.9,283.1 526.9,283.4 529,284 
	531.1,285.8 "/>
<polygon class="st12" points="682.3,256.6 684.4,254.8 686.4,254.3 688.4,254 692.6,253.2 688.5,252.2 686.4,251.8 684.4,251.2 
	682.4,249.3 "/>
<polygon class="st12" points="481,256.9 483,255.1 485.1,254.5 487.2,254.2 491.3,253.2 487.1,252.3 485.1,252 483.1,251.4 
	481,249.5 "/>
<polygon class="st12" points="456.9,221.8 459.3,220.4 461.4,220.3 463.5,220.5 467.7,220.5 463.9,218.7 462,217.9 460.2,216.8 
	458.6,214.6 "/>
<polygon class="st12" points="478.1,169.4 475.5,168.5 474.1,166.9 472.8,165.3 470.1,162.1 471.2,166.1 471.9,168.1 472.3,170.2 
	471.5,172.8 "/>
<polygon class="st12" points="419.4,274.3 420.4,271.9 422,270.4 423.8,269.3 427.1,266.7 423,267.6 421,268.2 418.9,268.5 
	416.2,267.7 "/>
<polygon class="st12" points="483,212.2 485.1,210.4 487.1,209.8 489.2,209.5 493.3,208.5 489.2,207.6 487.1,207.3 485.1,206.6 
	483.1,204.9 "/>
<polygon class="st12" points="500.5,183.5 502.6,181.7 504.6,181 506.7,180.8 510.8,179.9 506.7,178.9 504.7,178.6 502.6,178 
	500.5,176.1 "/>
<polygon class="st12" points="500.1,228.5 502.2,226.7 504.2,226.1 506.3,225.8 510.4,224.9 506.3,223.9 504.2,223.7 502.2,223 
	500.2,221.2 "/>
<polygon class="st12" points="536.8,257.1 539,255.4 541,254.8 543.1,254.6 547.2,253.8 543.1,252.7 541.1,252.4 539.1,251.7 
	537.1,249.8 "/>
<polygon class="st12" points="610,256.9 612,255.1 614,254.4 616.1,254.1 620.1,253.2 616.1,252.3 614,251.9 612,251.3 610,249.6 
	"/>
<polygon class="st12" points="569.1,151.3 567,153.1 565,153.7 562.9,154 558.8,154.9 562.9,155.8 565,156.1 567,156.8 569,158.6 
	"/>
<polygon class="st12" points="523.6,171.1 521.9,169 521.3,166.9 521.1,164.8 520.3,160.7 519.3,164.8 518.9,166.8 518.1,168.8 
	516.3,170.8 "/>
<line class="st11" x1="685.7" y1="224.3" x2="629.1" y2="224.5"/>
<line class="st11" x1="436.5" y1="294.7" x2="436.1" y2="160.2"/>
<line class="st11" x1="423.3" y1="211.9" x2="423.2" y2="156.4"/>
<line class="st11" x1="423.2" y1="156.4" x2="430.3" y2="156.3"/>
<polyline class="st11" points="622.6,231.1 622.8,294.1 436.5,294.7 "/>
<line class="st11" x1="423.3" y1="211.5" x2="477.1" y2="222.6"/>
<line class="st11" x1="489.8" y1="224.9" x2="546.3" y2="224.7"/>
<polyline class="st11" points="552.9,231.2 553.1,282 404.6,282.5 "/>
<line class="st11" x1="457.1" y1="253.7" x2="516.5" y2="253.5"/>
<line class="st11" x1="528.6" y1="253.5" x2="591.5" y2="253.3"/>
<polyline class="st11" points="691.7,155.7 665.5,156.5 665.6,202.4 "/>
<line class="st11" x1="661" y1="208" x2="604.5" y2="208.1"/>
<polyline class="st11" points="597.9,201.6 597.8,154.9 470.7,155.3 452.7,202.5 "/>
<line class="st11" x1="457" y1="208.6" x2="513.5" y2="208.4"/>
<polyline class="st11" points="520,201.8 519.9,142.8 467.5,143 "/>
<line class="st11" x1="463.4" y1="148.9" x2="477.3" y2="176.6"/>
<line class="st11" x1="489.7" y1="179.8" x2="546.2" y2="179.6"/>
<line class="st11" x1="559.3" y1="179.6" x2="615.9" y2="179.4"/>
<line class="st10" x1="478.3" y1="229.2" x2="455.4" y2="249.4"/>
<polygon class="st12" points="472.5,234.3 472.7,234.5 472.8,234.6 472.9,234.8 473,235 473.1,235.2 473.1,235.4 473.2,235.6 
	473.3,235.8 473.3,236 473.3,236.2 473.3,236.4 473.3,236.6 473.3,236.8 473.3,237 473.3,237.2 473.2,237.4 473.1,237.6 
	473.1,237.8 473,238 472.9,238.2 472.7,238.3 472.6,238.5 472.5,238.7 472.3,238.9 472.2,239 472,239.1 471.9,239.2 471.7,239.3 
	471.5,239.4 471.3,239.5 471.1,239.6 470.9,239.7 470.7,239.7 470.5,239.7 470.3,239.7 470.1,239.7 469.9,239.7 469.7,239.7 
	469.5,239.7 469.3,239.7 469.1,239.6 468.9,239.5 468.7,239.5 468.5,239.3 468.3,239.3 468.2,239.1 468,239 467.8,238.9 
	467.7,238.7 467.6,238.5 467.4,238.4 467.3,238.2 467.2,238 467.1,237.9 467,237.7 467,237.5 466.9,237.3 466.8,237.1 466.8,236.9 
	466.8,236.7 466.8,236.5 466.8,236.2 466.8,236 466.9,235.8 466.9,235.6 466.9,235.4 467,235.2 467.1,235 467.2,234.9 467.3,234.7 
	467.5,234.5 467.5,234.4 467.7,234.2 467.9,234 468,233.9 468.2,233.8 468.3,233.7 468.5,233.6 468.7,233.5 468.9,233.4 
	469.1,233.4 469.3,233.3 469.5,233.2 469.7,233.2 469.9,233.2 470.1,233.2 470.3,233.2 470.5,233.2 470.8,233.3 471,233.3 
	471.1,233.4 471.3,233.5 471.5,233.5 471.7,233.7 471.9,233.7 472.1,233.9 472.3,234 472.4,234.1 "/>
<polygon class="st12" points="459.1,241.8 464,237.5 468.3,242.4 463.4,246.7 "/>
<line class="st10" x1="548" y1="228" x2="525.1" y2="248.1"/>
<polygon class="st12" points="544.2,232.1 544.3,232.3 544.5,232.4 544.5,232.6 544.7,232.8 544.7,233 544.8,233.2 544.9,233.4 
	545,233.6 545,233.8 545,234 545,234.2 545,234.4 545,234.6 545,234.8 545,235 544.9,235.2 544.8,235.4 544.8,235.6 544.6,235.8 
	544.6,236 544.4,236.1 544.3,236.3 544.2,236.5 544,236.7 543.9,236.8 543.7,236.9 543.5,237 543.4,237.1 543.2,237.2 543,237.3 
	542.8,237.4 542.6,237.5 542.4,237.5 542.2,237.5 542,237.5 541.8,237.5 541.6,237.5 541.4,237.5 541.2,237.5 541,237.5 
	540.7,237.4 540.6,237.3 540.4,237.3 540.2,237.1 540,237.1 539.8,236.9 539.6,236.8 539.5,236.7 539.4,236.5 539.2,236.3 
	539.1,236.2 539,236 538.8,235.8 538.8,235.7 538.7,235.5 538.6,235.3 538.6,235.1 538.5,234.9 538.5,234.7 538.4,234.5 
	538.4,234.3 538.5,234 538.5,233.8 538.5,233.6 538.6,233.4 538.6,233.2 538.7,233 538.8,232.8 538.9,232.7 539,232.5 539.1,232.3 
	539.2,232.1 539.4,232 539.6,231.8 539.7,231.7 539.8,231.6 540,231.5 540.2,231.3 540.4,231.3 540.6,231.2 540.8,231.1 541,231.1 
	541.2,231 541.4,231 541.6,231 541.8,231 542,231 542.2,231 542.4,231.1 542.6,231.1 542.8,231.2 543,231.3 543.2,231.3 
	543.4,231.5 543.6,231.5 543.7,231.7 543.9,231.8 544.1,231.9 "/>
<polygon class="st12" points="530.7,239.6 535.6,235.3 540,240.2 535.1,244.5 "/>
<line class="st10" x1="450.5" y1="247.1" x2="450.4" y2="215.2"/>
<polygon class="st12" points="450.5,238.7 450.3,238.7 450.1,238.7 449.9,238.7 449.7,238.6 449.5,238.5 449.3,238.5 449.1,238.4 
	448.9,238.3 448.7,238.1 448.5,238.1 448.3,237.9 448.2,237.8 448.1,237.7 447.9,237.5 447.8,237.3 447.7,237.1 447.6,236.9 
	447.5,236.7 447.4,236.6 447.3,236.4 447.3,236.2 447.3,236 447.2,235.7 447.2,235.5 447.2,235.3 447.2,235.1 447.2,235 
	447.3,234.8 447.3,234.6 447.4,234.4 447.5,234.2 447.5,234 447.6,233.8 447.7,233.6 447.9,233.4 448,233.3 448.1,233.1 448.3,233 
	448.5,232.8 448.6,232.7 448.8,232.6 448.9,232.5 449.1,232.4 449.3,232.4 449.5,232.3 449.7,232.2 449.9,232.1 450.1,232.1 
	450.4,232.1 450.6,232.1 450.8,232.1 451,232.1 451.2,232.2 451.4,232.3 451.6,232.3 451.8,232.4 452,232.5 452.1,232.6 
	452.3,232.7 452.5,232.8 452.6,232.9 452.8,233.1 452.9,233.3 453,233.4 453.2,233.6 453.3,233.7 453.4,233.9 453.5,234.1 
	453.6,234.3 453.6,234.5 453.6,234.7 453.7,234.9 453.7,235.1 453.7,235.3 453.7,235.5 453.7,235.7 453.7,236 453.6,236.2 
	453.6,236.4 453.5,236.6 453.5,236.7 453.4,236.9 453.3,237.1 453.1,237.3 453,237.5 452.9,237.7 452.7,237.8 452.6,237.9 
	452.4,238.1 452.3,238.1 452.1,238.3 451.9,238.4 451.7,238.5 451.5,238.5 451.3,238.6 451.1,238.7 450.9,238.7 450.7,238.7 "/>
<polygon class="st12" points="453.7,223.6 453.7,230.1 447.2,230.2 447.2,223.6 "/>
<line class="st10" x1="520.2" y1="246.9" x2="520.1" y2="215"/>
<polygon class="st12" points="520.2,241.1 520,241.1 519.8,241.1 519.6,241.1 519.4,241 519.1,241 519,240.9 518.8,240.9 
	518.6,240.7 518.4,240.6 518.2,240.5 518,240.4 517.9,240.3 517.8,240.1 517.6,239.9 517.5,239.8 517.4,239.6 517.2,239.4 
	517.2,239.2 517.1,239.1 517,238.9 517,238.7 516.9,238.5 516.9,238.2 516.9,238 516.9,237.8 516.9,237.6 516.9,237.4 517,237.2 
	517,237 517,236.8 517.1,236.6 517.2,236.4 517.3,236.2 517.4,236.1 517.6,235.9 517.7,235.7 517.8,235.5 517.9,235.4 518.1,235.3 
	518.3,235.1 518.5,235.1 518.6,234.9 518.8,234.9 519,234.8 519.2,234.7 519.4,234.7 519.6,234.6 519.8,234.6 520,234.6 
	520.2,234.6 520.5,234.6 520.7,234.6 520.9,234.7 521.1,234.7 521.3,234.8 521.5,234.9 521.7,234.9 521.8,235.1 522,235.1 
	522.1,235.3 522.3,235.4 522.5,235.5 522.6,235.7 522.7,235.9 522.9,236.1 523,236.2 523.1,236.4 523.1,236.6 523.2,236.8 
	523.3,237 523.3,237.2 523.4,237.4 523.4,237.6 523.4,237.8 523.4,238 523.4,238.2 523.4,238.4 523.3,238.6 523.3,238.8 523.2,239 
	523.1,239.2 523,239.4 522.9,239.6 522.8,239.8 522.7,239.9 522.6,240.1 522.4,240.2 522.3,240.4 522.1,240.5 522,240.6 
	521.8,240.7 521.6,240.8 521.4,240.9 521.2,241 521,241 520.8,241.1 520.6,241.1 520.4,241.1 "/>
<polygon class="st12" points="523.4,226.1 523.4,232.6 516.9,232.6 516.9,226.1 "/>
<line class="st10" x1="598" y1="246.7" x2="597.9" y2="214.7"/>
<polygon class="st12" points="598,239.2 594.3,232.8 601.7,232.8 "/>
<polygon class="st12" points="598,223.2 598.2,223.2 598.4,223.2 598.6,223.2 598.8,223.3 599,223.3 599.2,223.4 599.4,223.4 
	599.6,223.6 599.8,223.6 599.9,223.8 600.1,223.9 600.2,224 600.4,224.2 600.5,224.4 600.6,224.5 600.8,224.7 600.8,224.9 601,225 
	601,225.2 601.1,225.4 601.2,225.6 601.2,225.8 601.2,226 601.2,226.2 601.2,226.5 601.2,226.7 601.2,226.9 601.2,227.1 
	601.2,227.3 601.1,227.5 601,227.7 600.9,227.9 600.8,228.1 600.7,228.2 600.6,228.4 600.4,228.6 600.3,228.7 600.2,228.9 600,229 
	599.9,229.2 599.7,229.2 599.5,229.4 599.3,229.4 599.1,229.5 598.9,229.6 598.7,229.6 598.5,229.6 598.3,229.7 598.1,229.7 
	597.9,229.7 597.7,229.7 597.5,229.6 597.3,229.6 597.1,229.6 596.9,229.5 596.7,229.4 596.5,229.4 596.3,229.2 596.1,229.2 
	596,229 595.8,228.9 595.7,228.7 595.5,228.6 595.4,228.4 595.3,228.2 595.1,228.1 595.1,227.9 595,227.7 594.9,227.5 594.8,227.3 
	594.8,227.1 594.7,226.9 594.7,226.7 594.7,226.5 594.7,226.3 594.7,226.1 594.7,225.9 594.8,225.7 594.9,225.5 594.9,225.3 
	595,225.1 595.1,224.9 595.2,224.7 595.3,224.5 595.4,224.4 595.6,224.2 595.7,224.1 595.8,223.9 596,223.8 596.2,223.7 
	596.4,223.6 596.6,223.5 596.8,223.4 597,223.3 597.2,223.3 597.4,223.2 597.6,223.2 597.8,223.2 "/>
<line class="st10" x1="671.9" y1="202.9" x2="687.8" y2="184.1"/>
<polygon class="st12" points="682,191.1 682.1,191.2 682.3,191.3 682.4,191.5 682.5,191.7 682.7,191.9 682.7,192 682.9,192.2 
	682.9,192.4 683,192.6 683.1,192.8 683.1,193 683.1,193.2 683.1,193.4 683.1,193.7 683.1,193.9 683.1,194.1 683.1,194.3 683,194.5 
	682.9,194.7 682.9,194.9 682.8,195.1 682.7,195.2 682.5,195.4 682.5,195.5 682.3,195.7 682.2,195.9 682,196 681.9,196.1 
	681.7,196.3 681.5,196.4 681.3,196.5 681.1,196.6 680.9,196.7 680.7,196.7 680.5,196.7 680.3,196.8 680.1,196.8 679.9,196.8 
	679.7,196.8 679.5,196.8 679.3,196.8 679.1,196.7 678.9,196.7 678.7,196.6 678.5,196.5 678.4,196.5 678.2,196.3 678,196.2 
	677.8,196.1 677.6,196 677.5,195.8 677.4,195.7 677.2,195.6 677.1,195.4 677,195.2 676.9,195 676.8,194.8 676.7,194.6 676.7,194.4 
	676.6,194.2 676.6,194 676.5,193.8 676.5,193.6 676.5,193.4 676.6,193.2 676.6,193 676.7,192.8 676.7,192.6 676.8,192.4 
	676.9,192.2 676.9,192 677.1,191.8 677.2,191.6 677.3,191.5 677.5,191.3 677.6,191.2 677.7,191 677.9,190.9 678.1,190.8 
	678.3,190.7 678.5,190.6 678.7,190.5 678.9,190.4 679.1,190.4 679.3,190.4 679.5,190.3 679.7,190.3 679.9,190.3 680.1,190.3 
	680.3,190.3 680.5,190.4 680.7,190.4 680.9,190.4 681.1,190.6 681.3,190.6 681.5,190.7 681.7,190.8 681.8,190.9 "/>
<line class="st10" x1="455.3" y1="204.3" x2="478.2" y2="184.1"/>
<polygon class="st12" points="461.1,199.2 460.9,199.1 460.8,198.9 460.7,198.7 460.6,198.5 460.5,198.3 460.4,198.1 460.4,197.9 
	460.3,197.7 460.3,197.5 460.2,197.3 460.2,197.1 460.2,196.9 460.2,196.7 460.3,196.5 460.3,196.3 460.4,196.1 460.4,195.9 
	460.6,195.7 460.6,195.5 460.7,195.3 460.8,195.1 461,195 461.1,194.8 461.2,194.7 461.4,194.5 461.6,194.4 461.7,194.3 
	461.9,194.1 462.1,194.1 462.3,194 462.5,193.9 462.7,193.9 462.9,193.8 463.1,193.8 463.3,193.7 463.5,193.7 463.7,193.7 
	463.9,193.7 464.1,193.8 464.4,193.9 464.6,193.9 464.8,194 464.9,194.1 465.1,194.1 465.3,194.3 465.4,194.4 465.6,194.5 
	465.8,194.7 465.9,194.8 466.1,194.9 466.2,195.1 466.3,195.3 466.4,195.5 466.5,195.7 466.6,195.9 466.6,196.1 466.7,196.3 
	466.8,196.5 466.8,196.7 466.8,196.9 466.8,197.1 466.8,197.3 466.8,197.5 466.8,197.7 466.7,197.9 466.6,198.1 466.6,198.3 
	466.5,198.5 466.4,198.7 466.3,198.9 466.2,199 466,199.2 465.9,199.3 465.7,199.5 465.6,199.6 465.4,199.7 465.2,199.9 465,199.9 
	464.8,200.1 464.7,200.1 464.4,200.2 464.2,200.2 464,200.3 463.8,200.3 463.6,200.3 463.4,200.3 463.2,200.3 463,200.3 
	462.8,200.3 462.6,200.2 462.4,200.1 462.2,200.1 462,199.9 461.9,199.9 461.7,199.7 461.5,199.6 461.4,199.5 461.2,199.3 "/>
<polygon class="st12" points="474.5,191.7 469.6,196 465.3,191.1 470.2,186.7 "/>
<line class="st10" x1="525" y1="204.1" x2="547.8" y2="183.9"/>
<polygon class="st12" points="530.7,199 530.6,198.9 530.5,198.7 530.4,198.5 530.3,198.3 530.2,198.1 530.1,197.9 530.1,197.7 
	530,197.5 529.9,197.3 529.9,197.1 529.9,196.9 529.9,196.7 529.9,196.5 530,196.3 530,196.1 530.1,195.9 530.1,195.7 530.2,195.5 
	530.3,195.3 530.4,195.1 530.5,194.9 530.7,194.8 530.8,194.6 530.9,194.5 531.1,194.3 531.3,194.2 531.4,194.1 531.6,193.9 
	531.8,193.9 532,193.8 532.2,193.7 532.4,193.7 532.6,193.6 532.8,193.6 533,193.5 533.2,193.5 533.4,193.5 533.6,193.5 
	533.8,193.6 534,193.7 534.2,193.7 534.4,193.8 534.6,193.9 534.8,193.9 535,194.1 535.1,194.2 535.3,194.3 535.4,194.5 
	535.6,194.6 535.7,194.7 535.8,194.9 536,195 536.1,195.2 536.2,195.4 536.2,195.6 536.3,195.8 536.4,196 536.4,196.2 536.4,196.4 
	536.5,196.6 536.5,196.8 536.5,197 536.5,197.2 536.4,197.4 536.4,197.6 536.3,197.8 536.3,198 536.2,198.2 536.1,198.4 
	535.9,198.6 535.9,198.8 535.7,199 535.5,199.1 535.4,199.2 535.3,199.4 535.1,199.5 534.9,199.6 534.7,199.7 534.5,199.8 
	534.3,199.9 534.1,200 533.9,200 533.7,200 533.5,200.1 533.3,200.1 533.1,200.1 532.9,200.1 532.7,200 532.5,200 532.3,200 
	532.1,199.9 531.9,199.8 531.7,199.7 531.5,199.7 531.3,199.5 531.2,199.4 531.1,199.3 530.9,199.1 "/>
<path class="st12" d="M544.2,191.5c-5.6,5.1-4.3,5.2-9.2-0.6C540.6,185.8,539.3,185.7,544.2,191.5z"/>
<line class="st10" x1="747.4" y1="168.5" x2="726.9" y2="160.9"/>
<polygon class="st12" points="744.2,167.4 744.2,167.6 744,167.7 744,167.9 743.8,168.1 743.7,168.2 743.6,168.4 743.4,168.6 
	743.3,168.7 743.1,168.8 742.9,169 742.8,169 742.6,169.2 742.4,169.2 742.2,169.3 742,169.4 741.8,169.4 741.6,169.4 741.4,169.4 
	741.2,169.5 741,169.4 740.8,169.4 740.6,169.4 740.3,169.4 740.2,169.3 740,169.2 739.8,169.2 739.6,169 739.4,169 739.2,168.8 
	739,168.7 738.9,168.6 738.8,168.4 738.6,168.3 738.5,168.1 738.4,168 738.2,167.8 738.2,167.6 738.1,167.4 738,167.2 738,167 
	737.9,166.8 737.9,166.6 737.8,166.4 737.8,166.2 737.8,166 737.9,165.8 737.9,165.6 738,165.3 738,165.2 738.1,165 738.2,164.8 
	738.3,164.6 738.4,164.4 738.5,164.2 738.6,164 738.8,163.9 738.9,163.8 739.1,163.6 739.2,163.5 739.4,163.4 739.6,163.3 
	739.8,163.2 740,163.1 740.2,163 740.4,163 740.6,163 740.8,162.9 741,162.9 741.2,162.9 741.4,162.9 741.6,163 741.8,163 742,163 
	742.2,163.1 742.4,163.2 742.6,163.2 742.8,163.4 743,163.4 743.2,163.6 743.3,163.7 743.5,163.9 743.6,164 743.8,164.2 
	743.9,164.4 744,164.5 744.1,164.7 744.2,164.9 744.2,165.1 744.3,165.3 744.4,165.5 744.4,165.7 744.4,165.9 744.4,166.1 
	744.4,166.3 744.4,166.5 744.4,166.8 744.4,167 744.3,167.2 "/>
<polygon class="st12" points="729.2,161.7 736.4,160.5 733.9,167.4 "/>
<line class="st10" x1="735.8" y1="187.9" x2="714.1" y2="174.4"/>
<polygon class="st12" points="732.1,185.6 724.7,185.4 728.6,179.1 "/>
<polygon class="st12" points="718.5,177.1 718.6,177 718.7,176.8 718.9,176.7 719,176.5 719.2,176.3 719.3,176.3 719.5,176.1 
	719.6,176 719.8,175.9 720,175.9 720.2,175.7 720.4,175.7 720.6,175.7 720.8,175.6 721,175.6 721.3,175.6 721.5,175.6 721.7,175.7 
	721.9,175.7 722.1,175.7 722.3,175.8 722.5,175.9 722.7,175.9 722.8,176 723,176.1 723.2,176.3 723.4,176.4 723.5,176.5 
	723.7,176.7 723.8,176.8 724,177 724,177.2 724.2,177.3 724.2,177.5 724.3,177.7 724.4,177.9 724.4,178.1 724.5,178.3 724.5,178.5 
	724.6,178.7 724.6,178.9 724.5,179.1 724.5,179.3 724.4,179.6 724.4,179.8 724.4,180 724.3,180.1 724.2,180.3 724.1,180.5 
	724,180.7 723.9,180.8 723.7,181 723.6,181.2 723.5,181.3 723.3,181.4 723.1,181.6 723,181.7 722.8,181.8 722.6,181.9 722.4,182 
	722.2,182 722,182 721.8,182.1 721.6,182.1 721.4,182.2 721.2,182.2 721,182.1 720.7,182.1 720.5,182.1 720.3,182.1 720.1,182 
	719.9,181.9 719.8,181.8 719.6,181.7 719.4,181.6 719.3,181.5 719.1,181.3 718.9,181.2 718.8,181 718.7,180.9 718.5,180.7 
	718.4,180.5 718.3,180.3 718.3,180.1 718.2,179.9 718.1,179.7 718.1,179.5 718.1,179.3 718,179.1 718,178.9 718,178.7 718,178.5 
	718.1,178.3 718.1,178.1 718.1,177.9 718.2,177.7 718.3,177.5 718.4,177.3 "/>
<line class="st10" x1="688" y1="229.2" x2="672" y2="248"/>
<polygon class="st12" points="677.9,241.2 677.7,241 677.6,240.8 677.4,240.7 677.3,240.5 677.2,240.4 677.1,240.2 677,240 
	676.9,239.8 676.8,239.6 676.8,239.4 676.8,239.2 676.8,239 676.7,238.8 676.7,238.6 676.7,238.4 676.7,238.2 676.7,238 
	676.8,237.8 676.9,237.6 676.9,237.4 677.1,237.2 677.1,237 677.3,236.8 677.4,236.6 677.5,236.5 677.7,236.3 677.8,236.2 678,236 
	678.1,235.9 678.3,235.8 678.5,235.7 678.7,235.6 678.9,235.6 679.1,235.5 679.3,235.4 679.5,235.4 679.7,235.4 679.9,235.4 
	680.1,235.4 680.3,235.4 680.5,235.4 680.7,235.4 680.9,235.5 681.1,235.6 681.3,235.6 681.5,235.8 681.7,235.8 681.9,236 
	682.1,236.1 682.2,236.2 682.3,236.4 682.5,236.5 682.6,236.7 682.7,236.8 682.9,237 682.9,237.2 683,237.4 683.1,237.6 
	683.1,237.8 683.2,238 683.3,238.2 683.3,238.4 683.3,238.6 683.3,238.8 683.3,239 683.2,239.2 683.2,239.4 683.1,239.6 
	683.1,239.8 682.9,240 682.9,240.2 682.7,240.4 682.6,240.6 682.5,240.8 682.4,240.9 682.2,241 682.1,241.2 681.9,241.3 
	681.7,241.4 681.5,241.6 681.3,241.6 681.2,241.7 681,241.8 680.8,241.8 680.6,241.9 680.4,241.9 680.2,241.9 680,242 679.8,241.9 
	679.6,241.9 679.4,241.9 679.2,241.8 679,241.8 678.8,241.7 678.6,241.6 678.4,241.5 678.2,241.4 678,241.3 "/>
<line class="st10" x1="624.7" y1="228.4" x2="645.2" y2="268.9"/>
<line class="st10" x1="661" y1="201.9" x2="638.1" y2="168.9"/>
<line class="st10" x1="719" y1="151.4" x2="709.5" y2="123.5"/>
<line class="st11" x1="405.4" y1="277.8" x2="444.4" y2="257.5"/>
<text transform="matrix(-3.037392e-03 -1 1 -3.037392e-03 407.887 253.0615)" class="st14 st6 st15">DFHO</text>
<text transform="matrix(1 0 0 1 19.7231 87.9477)" class="st6 st16">5</text>
<text transform="matrix(1 -3.037392e-03 3.037392e-03 1 33.0189 87.9638)" class="st6 st16">’</text>
<text transform="matrix(1 0 0 1 56.9946 87.8369)" class="st6 st16">3</text>
<text transform="matrix(1 -3.037392e-03 3.037392e-03 1 70.2913 87.8506)" class="st6 st16">’</text>
<text transform="matrix(1 0 0 1 769.0576 54.6392)" class="st6 st16">5</text>
<text transform="matrix(1 -3.037392e-03 3.037392e-03 1 782.3538 54.6548)" class="st6 st16">’</text>
<text transform="matrix(1 0 0 1 731.6133 54.7523)" class="st6 st16">3</text>
<text transform="matrix(1 -3.037392e-03 3.037392e-03 1 744.9095 54.7679)" class="st6 st16">’</text>
<text transform="matrix(1 0 0 1 11.1328 107.9373)" class="st6 st17">1</text>
<text transform="matrix(1 0 0 1 67.9736 106.1531)" class="st6 st17">36</text>
<text transform="matrix(1 0 0 1 780.396 73.3751)" class="st6 st17">1</text>
<text transform="matrix(1 0 0 1 716.9072 74.6186)" class="st6 st17">36</text>
<text transform="matrix(1 0 0 1 338.2226 28.2697)" class="st6 st18">Corn aptamer</text>
<path class="st19" d="M279.5,244.8l0.1,31.8c0,1.9-1.7,1.9-3.9-0.1l-16.6-15.3c-2.1-2-3.9-5.1-3.9-7l-0.1-31.8
	c0-1.9,1.7-1.9,3.9,0.1l16.6,15.3C277.7,239.7,279.4,242.8,279.5,244.8z"/>
<path class="st20" d="M134.8,248.5l0.1,30.6c0,1.9-1.5,1.6-3.3-0.5l-14.5-17c-1.9-2.2-3.3-5.4-3.3-7.3l-0.1-30.6
	c0-1.9,1.5-1.6,3.3,0.5l14.5,17C133.3,243.4,134.8,246.6,134.8,248.5z"/>
<path class="st20" d="M669.8,214.6l0.1,26.2c0,1.6,1.5,1.2,3.3-0.9l14.4-16.3c1.9-2.1,3.3-5.1,3.3-6.7l-0.1-26.2
	c0-1.6-1.5-1.2-3.3,0.9l-14.4,16.3C671.3,210.1,669.8,213,669.8,214.6z"/>
<path class="st20" d="M202.5,245.9l0.1,30.6c0,1.9-1.1,1.6-2.5-0.5l-11-17c-1.4-2.2-2.5-5.4-2.5-7.3l-0.1-30.6
	c0-1.9,1.1-1.6,2.5,0.5l11,17C201.3,240.8,202.4,244,202.5,245.9z"/>
<path class="st20" d="M601.8,213.5l0.1,30.6c0,1.9,1.1,1.6,2.5-0.5l10.9-17.1c1.4-2.2,2.5-5.5,2.5-7.3l-0.1-30.6
	c0-1.9-1.1-1.6-2.5,0.5l-10.9,17.1C602.9,208.3,601.8,211.6,601.8,213.5z"/>
<path class="st19" d="M347.8,243.1l0.1,31.8c0,1.9-1.7,1.9-3.8-0.1l-16.6-15.3c-2.1-2-3.8-5.1-3.8-7l-0.1-31.8
	c0-1.9,1.7-1.9,3.8,0.1l16.6,15.3C346.1,238,347.8,241.1,347.8,243.1z"/>
<path class="st19" d="M478.6,221.9l1.4-31.8c0.1-1.9-1.6-2-3.8-0.1L459,204.7c-2.2,1.9-4,4.9-4.1,6.9l-1.4,31.8
	c-0.1,1.9,1.6,2,3.8,0.1l17.2-14.6C476.6,226.9,478.5,223.9,478.6,221.9z"/>
<path class="st19" d="M547.8,221.7l1.4-31.8c0.1-1.9-1.6-2-3.8-0.1l-17.2,14.6c-2.2,1.9-4,4.9-4.1,6.9l-1.4,31.8
	c-0.1,1.9,1.6,2,3.8,0.1l17.2-14.6C545.9,226.7,547.8,223.7,547.8,221.7z"/>
</svg>
