<?xml version="1.0" encoding="utf-8"?>
<!-- Generator: Adobe Illustrator 25.2.0, SVG Export Plug-In . SVG Version: 6.00 Build 0)  -->
<svg version="1.1" id="_图层_1" xmlns="http://www.w3.org/2000/svg" xmlns:xlink="http://www.w3.org/1999/xlink" x="0px" y="0px"
	 viewBox="0 0 400 400" style="enable-background:new 0 0 400 400;" xml:space="preserve">
<style type="text/css">
	.st0{fill:#FF870A;}
	.st1{font-family:'ArialMT';}
	.st2{font-size:19.6234px;}
	.st3{letter-spacing:-1;}
	.st4{fill:#0A0BFF;}
	.st5{fill:none;stroke:#000000;stroke-width:0.14;stroke-miterlimit:1.11;}
	.st6{fill:none;stroke:#000000;stroke-width:1.67;stroke-miterlimit:1.11;}
	.st7{stroke:#000000;stroke-width:0.14;stroke-miterlimit:1.11;}
	.st8{fill:#228B22;}
	.st9{font-size:20px;}
	.st10{font-size:10.7614px;}
</style>
<g id="ID000031">
	<text transform="matrix(1 0 0 1 232.4072 256.1074)" class="st0 st1 st2">G</text>
</g>
<g id="ID000032">
	<text transform="matrix(1 0 0 1 232.9521 204.373)" class="st0 st1 st2">U</text>
</g>
<g id="ID000033">
	<text transform="matrix(1 0 0 1 220.2686 216.5283)" class="st0 st1 st2 st3">A</text>
</g>
<g>
	<g id="ID000002">
		<text transform="matrix(1 0 0 1 7.376 256.5762)" class="st4 st1 st2">C</text>
	</g>
	<g id="ID000003">
		<text transform="matrix(1 0 0 1 26.624 256.5762)" class="st4 st1 st2">G</text>
	</g>
	<g id="ID000004">
		<text transform="matrix(1 0 0 1 46.4131 256.5762)" class="st4 st1 st2">G</text>
	</g>
	<g id="ID000005">
		<text transform="matrix(1 0 0 1 67.29 256.5762)" class="st4 st1 st2 st3">A</text>
	</g>
	<g id="ID000006">
		<text transform="matrix(1 0 0 1 86.5361 256.5762)" class="st4 st1 st2">U</text>
	</g>
	<g id="ID000007">
		<text transform="matrix(1 0 0 1 105.7842 256.5762)" class="st4 st1 st2">G</text>
	</g>
	<g id="ID000010">
		<text transform="matrix(1 0 0 1 106.3281 216.9951)" class="st4 st1 st2">C</text>
	</g>
	<g id="ID000011">
		<text transform="matrix(1 0 0 1 87.0801 216.9951)" class="st4 st1 st2 st3">A</text>
	</g>
	<g id="ID000012">
		<text transform="matrix(1 0 0 1 66.7471 216.9951)" class="st4 st1 st2">U</text>
	</g>
	<g id="ID000013">
		<text transform="matrix(1 0 0 1 46.957 216.9951)" class="st4 st1 st2">C</text>
	</g>
	<g id="ID000014">
		<text transform="matrix(1 0 0 1 27.167 216.9951)" class="st4 st1 st2">C</text>
	</g>
	<g id="ID000015">
		<text transform="matrix(1 0 0 1 6.833 216.9951)" class="st4 st1 st2">G</text>
	</g>
	<g id="ID000016">
		<line class="st5" x1="14.5" y1="239.8" x2="14.5" y2="216"/>
	</g>
	<g id="ID000017">
		<line class="st5" x1="34.3" y1="239.8" x2="34.3" y2="216"/>
	</g>
	<g id="ID000018">
		<line class="st5" x1="54" y1="239.8" x2="54" y2="216"/>
	</g>
	<g id="ID000019">
		<line class="st5" x1="73.8" y1="239.8" x2="73.8" y2="216"/>
	</g>
	<g id="ID000020">
		<line class="st5" x1="93.6" y1="239.8" x2="93.6" y2="216"/>
	</g>
</g>
<g id="ID000021">
	<line class="st5" x1="107.7" y1="239.8" x2="107.7" y2="216"/>
</g>
<g id="ID000022">
	<line class="st6" x1="164.1" y1="208.1" x2="127.4" y2="208.1"/>
</g>
<g id="ID000023">
	<polygon class="st7" points="152.9,214 149.6,211.1 146.3,210.1 143,209.6 136.4,208.1 143,206.6 146.3,206.1 149.6,205.1 
		152.9,202.2 	"/>
</g>
<g>
	<g id="ID000008">
		<text transform="matrix(1 0 0 1 118.1436 274.7139)" class="st4 st1 st2">G</text>
	</g>
	<g id="ID000009">
		<text transform="matrix(1 0 0 1 137.374 291.2061)" class="st4 st1 st2 st3">A</text>
	</g>
	<g id="ID000025">
		<text transform="matrix(1 0 0 1 152.2139 276.3662)" class="st4 st1 st2 st3">A</text>
	</g>
</g>
<g id="ID000026">
	<text transform="matrix(1 0 0 1 164.3584 256.5762)" class="st0 st1 st2">G</text>
</g>
<g id="ID000027">
	<line class="st5" x1="172" y1="260.9" x2="172" y2="274.1"/>
</g>
<g id="ID000028">
	<text transform="matrix(1 0 0 1 161.0752 297.4092)" class="st1 st2">10</text>
</g>
<g id="ID000029">
	<text transform="matrix(1 0 0 1 184.1484 256.5762)" class="st0 st1 st2">G</text>
</g>
<g id="ID000030">
	<text transform="matrix(1 0 0 1 204.4824 256.5762)" class="st0 st1 st2">C</text>
</g>
<g id="ID000034">
	<text transform="matrix(1 0 0 1 203.9385 216.9951)" class="st0 st1 st2">G</text>
</g>
<g id="ID000035">
	<line class="st5" x1="211.6" y1="194.9" x2="211.6" y2="181.7"/>
</g>
<g id="ID000036">
	<text transform="matrix(1 0 0 1 200.6562 176.7539)" class="st1 st2">30</text>
</g>
<g id="ID000037">
	<text transform="matrix(1 0 0 1 184.6973 216.9951)" class="st0 st1 st2">C</text>
</g>
<g id="ID000038">
	<text transform="matrix(1 0 0 1 164.9023 216.9951)" class="st0 st1 st2">C</text>
</g>
<g id="ID000039">
	<line class="st5" x1="172" y1="239.8" x2="172" y2="216"/>
</g>
<g id="ID000040">
	<line class="st5" x1="191.8" y1="239.8" x2="191.8" y2="216"/>
</g>
<g id="ID000041">
	<line class="st5" x1="211.6" y1="239.8" x2="211.6" y2="216"/>
</g>
<g id="ID000060">
	<text transform="matrix(1 0 0 1 247.2637 216.5283)" class="st0 st1 st2 st3">A</text>
</g>
<g id="ID000045">
	<text transform="matrix(1 0 0 1 262.207 256.1074)" class="st8 st1 st2">U</text>
</g>
<g id="ID000046">
	<text transform="matrix(1 0 0 1 281.4473 256.1074)" class="st8 st1 st2">G</text>
</g>
<g id="ID000047">
	<text transform="matrix(1 0 0 1 301.2432 256.1074)" class="st8 st1 st2">G</text>
</g>
<g id="ID000048">
	<text transform="matrix(1 0 0 1 321.5762 256.1074)" class="st8 st1 st2">U</text>
</g>
<g id="ID000049">
	<text transform="matrix(1 0 0 1 341.3672 266.0029)" class="st8 st1 st2">U</text>
</g>
<g id="ID000050">
	<text transform="matrix(1 0 0 1 361.7012 256.1074)" class="st8 st1 st2 st3">A</text>
</g>
<g id="ID000051">
	<text transform="matrix(1 0 0 1 375.4541 241.2627)" class="st8 st1 st2">G</text>
</g>
<g id="ID000052">
	<line class="st5" x1="383.1" y1="245.6" x2="383.1" y2="258.7"/>
</g>
<g id="ID000053">
	<text transform="matrix(1 0 0 1 372.1709 282.0967)" class="st1 st2">20</text>
</g>
<g id="ID000054">
	<text transform="matrix(1 0 0 1 361.7012 216.5283)" class="st8 st1 st2 st3">A</text>
</g>
<g id="ID000055">
	<text transform="matrix(1 0 0 1 341.9111 206.6289)" class="st8 st1 st2 st3">A</text>
</g>
<g id="ID000056">
	<text transform="matrix(1 0 0 1 321.5762 216.5283)" class="st8 st1 st2">U</text>
</g>
<g id="ID000057">
	<text transform="matrix(1 0 0 1 301.7852 216.5283)" class="st8 st1 st2">C</text>
</g>
<g id="ID000058">
	<text transform="matrix(1 0 0 1 281.9961 216.5283)" class="st8 st1 st2">C</text>
</g>
<g id="ID000059">
	<text transform="matrix(1 0 0 1 262.749 216.5283)" class="st8 st1 st2 st3">A</text>
</g>
<g id="ID000061">
	<line class="st5" x1="269.3" y1="239.3" x2="269.3" y2="215.5"/>
</g>
<g id="ID000062">
	<line class="st5" x1="289.1" y1="239.3" x2="289.1" y2="215.5"/>
</g>
<g id="ID000063">
	<line class="st5" x1="308.9" y1="239.3" x2="308.9" y2="215.5"/>
</g>
<text transform="matrix(1 0 0 1 47.9379 41.9093)" class="st1 st9">D-R16c aptamer/ L-R16c aptamer</text>
<text transform="matrix(1 0 0 1 2.0117 268.2637)" class="st1 st10">5</text>
<text transform="matrix(1 0 0 1 7.9961 268.2637)" class="st1 st10">’</text>
<text transform="matrix(1 0 0 1 0 198.7549)" class="st1 st10">3</text>
<text transform="matrix(1 0 0 1 5.9824 198.7549)" class="st1 st10">’</text>
</svg>
