<?xml version="1.0" encoding="utf-8"?>
<!-- Generator: Adobe Illustrator 25.2.0, SVG Export Plug-In . SVG Version: 6.00 Build 0)  -->
<svg version="1.1" id="_图层_1" xmlns="http://www.w3.org/2000/svg" xmlns:xlink="http://www.w3.org/1999/xlink" x="0px" y="0px"
	 viewBox="0 0 800 400" style="enable-background:new 0 0 800 400;" xml:space="preserve">
<style type="text/css">
	.st0{fill:#B83233;}
	.st1{fill:none;stroke:#000000;stroke-width:1.33;stroke-linejoin:round;}
	.st2{fill:#084595;}
	.st3{fill:#CF3E7D;}
	.st4{fill:#18988C;}
	.st5{fill:none;stroke:#000000;stroke-linejoin:round;}
	.st6{font-family:'ArialMT';}
	.st7{font-size:20px;}
	.st8{font-size:22px;}
</style>
<path class="st0" d="M113.1,328.9V327h6.4v5.9c-1,0.8-2,1.4-3,1.9c-1,0.4-2.1,0.6-3.2,0.6c-1.5,0-2.8-0.3-4-1s-2.1-1.6-2.7-2.9
	s-0.9-2.7-0.9-4.2s0.3-3,0.9-4.3s1.5-2.3,2.6-3s2.5-1,4-1c1.1,0,2.1,0.2,2.9,0.6c0.9,0.4,1.6,0.9,2.1,1.5s0.9,1.5,1.1,2.6l-1.8,0.5
	c-0.2-0.8-0.5-1.4-0.8-1.9s-0.8-0.8-1.4-1.1s-1.3-0.4-2.1-0.4c-0.9,0-1.7,0.1-2.3,0.4c-0.7,0.3-1.2,0.7-1.6,1.1
	c-0.4,0.5-0.7,1-0.9,1.6c-0.4,1-0.6,2-0.6,3.2c0,1.4,0.2,2.6,0.7,3.5c0.5,1,1.1,1.7,2,2.1c0.9,0.5,1.8,0.7,2.8,0.7
	c0.9,0,1.7-0.2,2.5-0.5c0.8-0.4,1.4-0.7,1.9-1.1v-3L113.1,328.9L113.1,328.9L113.1,328.9L113.1,328.9z"/>
<path class="st0" d="M128.9,328.9V327h6.4v5.9c-1,0.8-2,1.4-3,1.9c-1,0.4-2.1,0.6-3.2,0.6c-1.5,0-2.8-0.3-4-1s-2.1-1.6-2.7-2.9
	s-0.9-2.7-0.9-4.2s0.3-3,0.9-4.3s1.5-2.3,2.6-3s2.5-1,4-1c1.1,0,2.1,0.2,2.9,0.6s1.6,0.9,2.1,1.5s0.9,1.5,1.1,2.6l-1.8,0.5
	c-0.2-0.8-0.5-1.4-0.8-1.9s-0.8-0.8-1.4-1.1s-1.3-0.4-2.1-0.4c-0.9,0-1.7,0.1-2.3,0.4c-0.7,0.3-1.2,0.7-1.6,1.1
	c-0.4,0.5-0.7,1-0.9,1.6c-0.4,1-0.6,2-0.6,3.2c0,1.4,0.2,2.6,0.7,3.5c0.5,1,1.1,1.7,2,2.1c0.9,0.5,1.8,0.7,2.8,0.7
	c0.9,0,1.7-0.2,2.5-0.5c0.8-0.4,1.4-0.7,1.9-1.1v-3L128.9,328.9L128.9,328.9L128.9,328.9L128.9,328.9z"/>
<path class="st0" d="M137.3,335.1l5.8-15.9h2.1l6.1,15.9H149l-1.8-4.8H141l-1.6,4.8H137.3L137.3,335.1z M141.6,328.5h5.1l-1.6-4.4
	c-0.5-1.3-0.8-2.4-1.1-3.3c-0.2,1-0.5,2-0.8,3L141.6,328.5L141.6,328.5L141.6,328.5z"/>
<path class="st0" d="M160.5,328.9V327h6.4v5.9c-1,0.8-2,1.4-3,1.9c-1,0.4-2.1,0.6-3.2,0.6c-1.5,0-2.8-0.3-4-1s-2.1-1.6-2.7-2.9
	c-0.6-1.3-0.9-2.7-0.9-4.2s0.3-3,0.9-4.3s1.5-2.3,2.6-3s2.5-1,4-1c1.1,0,2.1,0.2,2.9,0.6s1.6,0.9,2.1,1.5s0.9,1.5,1.1,2.6l-1.8,0.5
	c-0.2-0.8-0.5-1.4-0.8-1.9s-0.8-0.8-1.4-1.1s-1.3-0.4-2.1-0.4c-0.9,0-1.7,0.1-2.4,0.4s-1.2,0.7-1.6,1.1c-0.4,0.5-0.7,1-0.9,1.6
	c-0.4,1-0.6,2-0.6,3.2c0,1.4,0.2,2.6,0.7,3.5c0.5,1,1.1,1.7,2,2.1c0.9,0.5,1.8,0.7,2.8,0.7c0.9,0,1.7-0.2,2.5-0.5
	c0.8-0.4,1.4-0.7,1.9-1.1v-3L160.5,328.9L160.5,328.9L160.5,328.9L160.5,328.9z"/>
<path class="st0" d="M180.6,329.5l2,0.5c-0.4,1.7-1.2,3-2.2,4s-2.4,1.4-4,1.4s-2.9-0.4-3.9-1c-1-0.7-1.8-1.7-2.3-3s-0.8-2.7-0.8-4.3
	c0-1.7,0.3-3.1,0.9-4.3c0.6-1.2,1.4-2.2,2.6-2.8s2.3-1,3.6-1c1.5,0,2.8,0.4,3.8,1.2c1,0.8,1.7,2,2.1,3.4l-1.9,0.5
	c-0.4-1.2-0.9-2-1.5-2.5c-0.7-0.5-1.5-0.8-2.5-0.8c-1.1,0-2.1,0.3-2.9,0.9s-1.3,1.4-1.6,2.4s-0.5,2-0.5,3c0,1.4,0.2,2.5,0.6,3.5
	c0.4,1,0.9,1.8,1.7,2.3s1.6,0.8,2.6,0.8c1.1,0,2.1-0.3,2.8-1S180.3,330.9,180.6,329.5L180.6,329.5L180.6,329.5z"/>
<path class="st0" d="M195.5,319.2h2v9.2c0,1.6-0.2,2.9-0.5,3.8s-1,1.7-1.9,2.3s-2.1,0.9-3.5,0.9s-2.6-0.3-3.4-0.8
	c-0.9-0.5-1.5-1.2-1.9-2.2s-0.6-2.3-0.6-4v-9.2h2v9.2c0,1.4,0.1,2.4,0.4,3c0.2,0.6,0.7,1.2,1.2,1.5s1.3,0.5,2.2,0.5
	c1.5,0,2.5-0.4,3.1-1c0.6-0.7,0.9-2,0.9-4V319.2L195.5,319.2L195.5,319.2L195.5,319.2z"/>
<path class="st0" d="M212.2,329.5l2,0.5c-0.4,1.7-1.2,3-2.2,4s-2.4,1.4-4,1.4s-2.9-0.4-3.9-1c-1-0.7-1.8-1.7-2.3-3s-0.8-2.7-0.8-4.3
	c0-1.7,0.3-3.1,0.9-4.3c0.6-1.2,1.4-2.2,2.6-2.8s2.3-1,3.6-1c1.5,0,2.8,0.4,3.8,1.2c1,0.8,1.7,2,2.1,3.4l-2,0.4
	c-0.4-1.2-0.9-2-1.5-2.5c-0.7-0.5-1.5-0.8-2.5-0.8c-1.1,0-2.1,0.3-2.9,0.9s-1.3,1.4-1.6,2.4s-0.5,2-0.5,3c0,1.4,0.2,2.5,0.6,3.5
	c0.4,1,0.9,1.8,1.7,2.3s1.6,0.8,2.6,0.8c1.1,0,2.1-0.3,2.8-1S211.9,330.9,212.2,329.5L212.2,329.5L212.2,329.5z"/>
<path class="st0" d="M223.8,328.9V327h6.4v5.9c-1,0.8-2,1.4-3,1.9c-1,0.4-2.1,0.6-3.2,0.6c-1.5,0-2.8-0.3-4-1s-2.1-1.6-2.7-2.9
	c-0.6-1.3-0.9-2.7-0.9-4.2s0.3-3,0.9-4.3s1.5-2.3,2.6-3s2.5-1,4-1c1.1,0,2.1,0.2,2.9,0.6s1.6,0.9,2.1,1.5s0.9,1.5,1.1,2.6l-1.8,0.5
	c-0.2-0.8-0.5-1.4-0.8-1.9s-0.8-0.8-1.4-1.1s-1.3-0.4-2.1-0.4c-0.9,0-1.7,0.1-2.4,0.4s-1.2,0.7-1.6,1.1c-0.4,0.5-0.7,1-0.9,1.6
	c-0.4,1-0.6,2-0.6,3.2c0,1.4,0.2,2.6,0.7,3.5c0.5,1,1.1,1.7,2,2.1c0.9,0.5,1.8,0.7,2.8,0.7c0.9,0,1.7-0.2,2.5-0.5
	c0.8-0.4,1.4-0.7,1.9-1.1v-3L223.8,328.9L223.8,328.9L223.8,328.9L223.8,328.9z"/>
<path class="st0" d="M223.8,312.1v-1.9h6.4v5.9c-1,0.8-2,1.4-3,1.9c-1,0.4-2.1,0.6-3.2,0.6c-1.5,0-2.8-0.3-4-1s-2.1-1.6-2.7-2.9
	c-0.6-1.3-0.9-2.7-0.9-4.2s0.3-3,0.9-4.3s1.5-2.3,2.6-3s2.5-1,4-1c1.1,0,2.1,0.2,2.9,0.6s1.6,0.9,2.1,1.5s0.9,1.5,1.1,2.6l-1.8,0.5
	c-0.2-0.8-0.5-1.4-0.8-1.9s-0.8-0.8-1.4-1.1s-1.3-0.4-2.1-0.4c-0.9,0-1.7,0.1-2.4,0.4s-1.2,0.7-1.6,1.1c-0.4,0.5-0.7,1-0.9,1.6
	c-0.4,1-0.6,2-0.6,3.2c0,1.4,0.2,2.6,0.7,3.5c0.5,1,1.1,1.7,2,2.1c0.9,0.5,1.8,0.7,2.8,0.7c0.9,0,1.7-0.2,2.5-0.5
	c0.8-0.4,1.4-0.7,1.9-1.1v-3L223.8,312.1L223.8,312.1L223.8,312.1L223.8,312.1z"/>
<path class="st0" d="M227.1,285.8h2v9.2c0,1.6-0.2,2.9-0.5,3.8s-1,1.7-1.9,2.3s-2.1,0.9-3.5,0.9s-2.6-0.3-3.4-0.8
	c-0.9-0.5-1.5-1.2-1.9-2.2s-0.6-2.3-0.6-4v-9.2h2v9.2c0,1.4,0.1,2.4,0.4,3c0.2,0.6,0.7,1.2,1.2,1.5s1.3,0.5,2.2,0.5
	c1.5,0,2.5-0.4,3.1-1c0.6-0.7,0.9-2,0.9-4V285.8L227.1,285.8L227.1,285.8L227.1,285.8z"/>
<line class="st1" x1="212.8" y1="292.8" x2="202.3" y2="292.8"/>
<path d="M186.6,301.6h-1.8v-12.4c-0.4,0.5-1,0.9-1.8,1.3c-0.7,0.5-1.4,0.8-1.9,1v-1.9c1-0.5,1.9-1.1,2.7-1.9
	c0.8-0.7,1.3-1.4,1.6-2.1h1.2V301.6L186.6,301.6L186.6,301.6z M191.3,293.8c0-1.9,0.2-3.4,0.6-4.5c0.4-1.1,0.9-2,1.6-2.6
	s1.6-0.9,2.7-0.9c0.8,0,1.5,0.2,2.1,0.5s1.1,0.8,1.5,1.5c0.4,0.6,0.7,1.4,0.9,2.4c0.2,0.9,0.3,2.2,0.3,3.8c0,1.9-0.2,3.4-0.5,4.5
	s-0.9,2-1.6,2.6c-0.7,0.6-1.6,0.9-2.7,0.9c-1.4,0-2.6-0.5-3.4-1.6C191.8,298.9,191.3,296.8,191.3,293.8L191.3,293.8L191.3,293.8z
	 M193.2,293.8c0,2.6,0.3,4.4,0.9,5.2s1.3,1.3,2.1,1.3s1.6-0.4,2.1-1.3s0.9-2.6,0.9-5.2s-0.3-4.4-0.9-5.2s-1.3-1.3-2.2-1.3
	s-1.5,0.4-2,1.1C193.5,289.4,193.2,291.2,193.2,293.8L193.2,293.8L193.2,293.8L193.2,293.8z"/>
<path class="st0" d="M216.1,284.9l5.8-15.9h2.1l6.1,15.9h-2.3l-1.8-4.8h-6.3l-1.6,4.8H216.1L216.1,284.9z M220.5,278.4h5.1L224,274
	c-0.5-1.3-0.8-2.4-1.1-3.3c-0.2,1-0.5,2-0.8,3L220.5,278.4L220.5,278.4L220.5,278.4z"/>
<path class="st0" d="M223.8,262v-1.9h6.4v5.9c-1,0.8-2,1.4-3,1.9c-1,0.4-2.1,0.6-3.2,0.6c-1.5,0-2.8-0.3-4-1s-2.1-1.6-2.7-2.9
	c-0.6-1.3-0.9-2.7-0.9-4.2s0.3-3,0.9-4.3c0.6-1.3,1.5-2.3,2.6-3c1.1-0.6,2.5-1,4-1c1.1,0,2.1,0.2,2.9,0.6s1.6,0.9,2.1,1.6
	s0.9,1.5,1.1,2.6l-1.8,0.5c-0.2-0.8-0.5-1.4-0.8-1.9c-0.3-0.5-0.8-0.8-1.4-1.1s-1.3-0.4-2.1-0.4c-0.9,0-1.7,0.1-2.4,0.4
	c-0.7,0.3-1.2,0.7-1.6,1.1c-0.4,0.5-0.7,1-0.9,1.6c-0.4,1-0.6,2-0.6,3.2c0,1.4,0.2,2.6,0.7,3.5s1.1,1.7,2,2.1
	c0.9,0.5,1.8,0.7,2.8,0.7c0.9,0,1.7-0.2,2.5-0.5s1.4-0.7,1.9-1.1v-3L223.8,262L223.8,262L223.8,262L223.8,262z"/>
<path class="st0" d="M227.1,235.6h2v9.2c0,1.6-0.2,2.9-0.5,3.8s-1,1.7-1.9,2.3s-2.1,0.9-3.5,0.9s-2.6-0.3-3.4-0.8
	c-0.9-0.5-1.5-1.2-1.9-2.2s-0.6-2.3-0.6-4v-9.2h2v9.2c0,1.4,0.1,2.4,0.4,3.1c0.2,0.6,0.7,1.2,1.2,1.5c0.6,0.4,1.3,0.5,2.2,0.5
	c1.5,0,2.5-0.4,3.1-1.1s0.9-2.1,0.9-4V235.6L227.1,235.6L227.1,235.6L227.1,235.6z"/>
<path class="st0" d="M247.8,251.5l5.8-15.9h2.1l6.1,15.9h-2.3l-1.8-4.8h-6.3l-1.6,4.8H247.8L247.8,251.5z M252.1,244.9h5.1l-1.6-4.4
	c-0.5-1.3-0.8-2.4-1.1-3.3c-0.2,1-0.5,2-0.8,3L252.1,244.9L252.1,244.9L252.1,244.9z"/>
<path class="st0" d="M259.5,262.6l2,0.5c-0.4,1.7-1.2,3-2.2,4s-2.4,1.4-4,1.4s-2.9-0.4-3.9-1c-1-0.7-1.8-1.7-2.3-3s-0.8-2.7-0.8-4.3
	c0-1.7,0.3-3.1,0.9-4.3c0.6-1.2,1.4-2.2,2.6-2.8s2.3-1,3.6-1c1.5,0,2.8,0.4,3.8,1.2s1.7,1.9,2.1,3.4l-2,0.5c-0.4-1.2-0.9-2-1.5-2.5
	s-1.5-0.8-2.5-0.8c-1.1,0-2.1,0.3-2.9,0.9c-0.8,0.6-1.3,1.4-1.6,2.4s-0.5,2-0.5,3c0,1.4,0.2,2.5,0.6,3.5c0.4,1,0.9,1.8,1.7,2.3
	s1.6,0.8,2.6,0.8c1.1,0,2.1-0.3,2.8-1S259.2,264,259.5,262.6L259.5,262.6L259.5,262.6z"/>
<path class="st0" d="M258.8,268.9h2v9.2c0,1.6-0.2,2.9-0.5,3.8s-1,1.7-1.9,2.3s-2.1,0.9-3.5,0.9s-2.6-0.3-3.4-0.8
	c-0.9-0.5-1.5-1.2-1.9-2.2s-0.6-2.3-0.6-4v-9.2h2v9.2c0,1.4,0.1,2.4,0.4,3c0.2,0.6,0.7,1.2,1.2,1.5s1.3,0.5,2.2,0.5
	c1.5,0,2.5-0.4,3.1-1c0.6-0.7,0.9-2,0.9-4V268.9L258.8,268.9L258.8,268.9L258.8,268.9z"/>
<path class="st0" d="M247.8,301.6l5.8-15.9h2.1l6.1,15.9h-2.3l-1.8-4.8h-6.3l-1.6,4.8H247.8L247.8,301.6z M252.1,295.1h5.1l-1.6-4.4
	c-0.5-1.3-0.8-2.4-1.1-3.3c-0.2,1-0.5,2-0.8,3L252.1,295.1L252.1,295.1L252.1,295.1z"/>
<line class="st1" x1="265.5" y1="292.8" x2="276" y2="292.8"/>
<path d="M277.1,298l1.8-0.2c0.1,0.9,0.4,1.5,0.9,1.9c0.4,0.4,1,0.6,1.6,0.6s1.1-0.1,1.5-0.4s0.8-0.6,1-1.1s0.5-1.1,0.7-1.9
	s0.3-1.6,0.3-2.4v-0.4c-0.4,0.6-0.9,1.1-1.5,1.5s-1.3,0.6-2.1,0.6c-1.2,0-2.3-0.5-3.2-1.4c-0.9-1-1.3-2.2-1.3-3.8s0.5-2.9,1.4-3.9
	s2-1.5,3.4-1.5c1,0,1.9,0.3,2.7,0.8s1.4,1.4,1.8,2.4s0.6,2.5,0.6,4.5s-0.2,3.6-0.6,4.9s-1,2.1-1.9,2.8c-0.8,0.6-1.8,0.9-2.9,0.9
	c-1.2,0-2.1-0.3-2.9-1S277.3,299.2,277.1,298L277.1,298L277.1,298L277.1,298z M284.7,291c0-1.1-0.3-2-0.9-2.7s-1.2-1-2-1
	s-1.5,0.4-2.1,1.1s-0.9,1.6-0.9,2.8c0,1,0.3,1.8,0.9,2.5s1.3,1,2.1,1s1.6-0.3,2.1-1S284.7,292.1,284.7,291L284.7,291L284.7,291z
	 M288.6,293.8c0-1.9,0.2-3.4,0.5-4.5s0.9-2,1.6-2.6s1.6-0.9,2.7-0.9c0.8,0,1.5,0.2,2.1,0.5s1.1,0.8,1.5,1.5c0.4,0.6,0.7,1.4,0.9,2.4
	c0.2,0.9,0.3,2.2,0.3,3.8c0,1.9-0.2,3.4-0.5,4.5c-0.4,1.1-0.9,2-1.6,2.6s-1.6,0.9-2.7,0.9c-1.5,0-2.6-0.5-3.4-1.6
	C289.1,298.9,288.6,296.8,288.6,293.8L288.6,293.8L288.6,293.8z M290.5,293.8c0,2.6,0.3,4.4,0.9,5.2s1.3,1.3,2.1,1.3
	s1.6-0.4,2.1-1.3c0.6-0.9,0.9-2.6,0.9-5.2s-0.3-4.4-0.9-5.2s-1.3-1.3-2.2-1.3s-1.5,0.4-2,1.1C290.8,289.4,290.5,291.2,290.5,293.8
	L290.5,293.8L290.5,293.8L290.5,293.8z"/>
<path class="st0" d="M259.5,312.8l2,0.5c-0.4,1.7-1.2,3-2.2,4s-2.4,1.4-4,1.4s-2.9-0.4-3.9-1c-1-0.7-1.8-1.7-2.3-3s-0.8-2.7-0.8-4.3
	c0-1.7,0.3-3.1,0.9-4.3c0.6-1.2,1.4-2.2,2.6-2.8s2.3-1,3.6-1c1.5,0,2.8,0.4,3.8,1.2c1,0.8,1.7,2,2.1,3.4l-2,0.5
	c-0.4-1.2-0.9-2-1.5-2.5s-1.5-0.8-2.5-0.8c-1.1,0-2.1,0.3-2.9,0.9s-1.3,1.4-1.6,2.4s-0.5,2-0.5,3c0,1.4,0.2,2.5,0.6,3.5
	c0.4,1,0.9,1.8,1.7,2.3s1.6,0.8,2.6,0.8c1.1,0,2.1-0.3,2.8-1S259.2,314.1,259.5,312.8L259.5,312.8L259.5,312.8z"/>
<path class="st0" d="M259.5,329.5l2,0.5c-0.4,1.7-1.2,3-2.2,4s-2.4,1.4-4,1.4s-2.9-0.4-3.9-1c-1-0.7-1.8-1.7-2.3-3s-0.8-2.7-0.8-4.3
	c0-1.7,0.3-3.1,0.9-4.3c0.6-1.2,1.4-2.2,2.6-2.8s2.3-1,3.6-1c1.5,0,2.8,0.4,3.8,1.2c1,0.8,1.7,2,2.1,3.4l-2,0.5
	c-0.4-1.2-0.9-2-1.5-2.5s-1.5-0.8-2.5-0.8c-1.1,0-2.1,0.3-2.9,0.9s-1.3,1.4-1.6,2.4s-0.5,2-0.5,3c0,1.4,0.2,2.5,0.6,3.5
	c0.4,1,0.9,1.8,1.7,2.3s1.6,0.8,2.6,0.8c1.1,0,2.1-0.3,2.8-1S259.2,330.9,259.5,329.5L259.5,329.5L259.5,329.5z"/>
<path class="st0" d="M274.5,319.2h2v9.2c0,1.6-0.2,2.9-0.5,3.8s-1,1.7-1.9,2.3s-2.1,0.9-3.5,0.9s-2.6-0.3-3.5-0.8s-1.5-1.2-1.9-2.2
	s-0.6-2.3-0.6-4v-9.2h2v9.2c0,1.4,0.1,2.4,0.4,3c0.2,0.6,0.7,1.2,1.2,1.5s1.3,0.5,2.2,0.5c1.5,0,2.5-0.4,3.1-1c0.6-0.7,0.9-2,0.9-4
	L274.5,319.2L274.5,319.2L274.5,319.2L274.5,319.2z"/>
<path class="st0" d="M291.1,329.5l2,0.5c-0.4,1.7-1.2,3-2.2,4s-2.4,1.4-4,1.4s-2.9-0.4-4-1c-1-0.7-1.8-1.7-2.3-3s-0.8-2.7-0.8-4.3
	c0-1.7,0.3-3.1,0.9-4.3c0.6-1.2,1.5-2.2,2.5-2.8s2.3-1,3.6-1c1.5,0,2.8,0.4,3.8,1.2c1,0.8,1.7,2,2.1,3.4l-2,0.5
	c-0.4-1.2-0.9-2-1.5-2.5s-1.5-0.8-2.5-0.8c-1.1,0-2.1,0.3-2.9,0.9s-1.3,1.4-1.6,2.4c-0.3,1-0.5,2-0.5,3c0,1.4,0.2,2.5,0.6,3.5
	s1,1.8,1.7,2.3c0.8,0.5,1.6,0.8,2.5,0.8c1.1,0,2-0.3,2.8-1C290.3,331.9,290.9,330.9,291.1,329.5L291.1,329.5L291.1,329.5z"/>
<path class="st0" d="M302.6,328.9V327h6.4v5.9c-1,0.8-2,1.4-3,1.9c-1,0.4-2.1,0.6-3.2,0.6c-1.5,0-2.8-0.3-4-1s-2.1-1.6-2.7-2.9
	s-0.9-2.7-0.9-4.2s0.3-3,0.9-4.3s1.5-2.3,2.6-3c1.1-0.6,2.5-1,4-1c1.1,0,2.1,0.2,2.9,0.6s1.6,0.9,2.1,1.5s0.9,1.5,1.1,2.6l-1.8,0.5
	c-0.2-0.8-0.5-1.4-0.8-1.9s-0.8-0.8-1.4-1.1s-1.3-0.4-2.1-0.4c-0.9,0-1.7,0.1-2.4,0.4s-1.2,0.7-1.6,1.1c-0.4,0.5-0.7,1-1,1.6
	c-0.4,1-0.6,2-0.6,3.2c0,1.4,0.2,2.6,0.7,3.5c0.5,1,1.1,1.7,2,2.1s1.8,0.7,2.8,0.7c0.9,0,1.7-0.2,2.5-0.5c0.8-0.4,1.4-0.7,1.9-1.1
	v-3L302.6,328.9L302.6,328.9L302.6,328.9L302.6,328.9z"/>
<path class="st0" d="M311,335.1l5.8-15.9h2.1l6.1,15.9h-2.3l-1.8-4.8h-6.3l-1.6,4.8H311L311,335.1z M315.4,328.5h5.1l-1.6-4.4
	c-0.5-1.3-0.8-2.4-1.1-3.3c-0.2,1-0.5,2-0.8,3L315.4,328.5L315.4,328.5L315.4,328.5z"/>
<path class="st0" d="M334.2,328.9V327h6.4v5.9c-1,0.8-2,1.4-3,1.9c-1,0.4-2.1,0.6-3.2,0.6c-1.5,0-2.8-0.3-4-1s-2.1-1.6-2.7-2.9
	s-0.9-2.7-0.9-4.2s0.3-3,0.9-4.3s1.5-2.3,2.6-3c1.1-0.6,2.5-1,4-1c1.1,0,2.1,0.2,2.9,0.6s1.6,0.9,2.1,1.5s0.9,1.5,1.1,2.6l-1.8,0.5
	c-0.2-0.8-0.5-1.4-0.8-1.9s-0.8-0.8-1.4-1.1s-1.3-0.4-2.1-0.4c-0.9,0-1.7,0.1-2.4,0.4s-1.2,0.7-1.6,1.1c-0.4,0.5-0.7,1-1,1.6
	c-0.4,1-0.6,2-0.6,3.2c0,1.4,0.2,2.6,0.7,3.5c0.5,1,1.1,1.7,2,2.1s1.8,0.7,2.8,0.7c0.9,0,1.7-0.2,2.5-0.5c0.8-0.4,1.4-0.7,1.9-1.1
	v-3L334.2,328.9L334.2,328.9L334.2,328.9L334.2,328.9z"/>
<path class="st0" d="M342.6,335.1l5.8-15.9h2.1l6.1,15.9h-2.3l-1.8-4.8h-6.3l-1.6,4.8H342.6L342.6,335.1z M346.9,328.5h5.1l-1.6-4.4
	c-0.5-1.3-0.8-2.4-1.1-3.3c-0.2,1-0.5,2-0.8,3L346.9,328.5L346.9,328.5L346.9,328.5z"/>
<path class="st0" d="M370.1,329.5l2,0.5c-0.4,1.7-1.2,3-2.2,4s-2.4,1.4-4,1.4s-2.9-0.4-4-1c-1-0.7-1.8-1.7-2.3-3s-0.8-2.7-0.8-4.3
	c0-1.7,0.3-3.1,0.9-4.3c0.6-1.2,1.5-2.2,2.5-2.8s2.3-1,3.6-1c1.5,0,2.8,0.4,3.8,1.2c1,0.8,1.7,2,2.1,3.4l-2,0.5
	c-0.4-1.2-0.9-2-1.5-2.5s-1.5-0.8-2.5-0.8c-1.1,0-2.1,0.3-2.9,0.9s-1.3,1.4-1.6,2.4c-0.3,1-0.5,2-0.5,3c0,1.4,0.2,2.5,0.6,3.5
	s1,1.8,1.7,2.3c0.8,0.5,1.6,0.8,2.5,0.8c1.1,0,2-0.3,2.8-1C369.3,331.9,369.9,330.9,370.1,329.5L370.1,329.5L370.1,329.5z"/>
<path class="st0" d="M381.6,328.9V327h6.4v5.9c-1,0.8-2,1.4-3,1.9c-1,0.4-2.1,0.6-3.2,0.6c-1.5,0-2.8-0.3-4-1s-2.1-1.6-2.7-2.9
	s-0.9-2.7-0.9-4.2s0.3-3,0.9-4.3s1.5-2.3,2.6-3c1.1-0.6,2.5-1,4-1c1.1,0,2.1,0.2,2.9,0.6s1.6,0.9,2.1,1.5s0.9,1.5,1.1,2.6l-1.8,0.5
	c-0.2-0.8-0.5-1.4-0.8-1.9s-0.8-0.8-1.4-1.1s-1.3-0.4-2.1-0.4c-0.9,0-1.7,0.1-2.4,0.4s-1.2,0.7-1.6,1.1c-0.4,0.5-0.7,1-1,1.6
	c-0.4,1-0.6,2-0.6,3.2c0,1.4,0.2,2.6,0.7,3.5c0.5,1,1.1,1.7,2,2.1s1.8,0.7,2.8,0.7c0.9,0,1.7-0.2,2.5-0.5c0.8-0.4,1.4-0.7,1.9-1.1
	v-3L381.6,328.9L381.6,328.9L381.6,328.9L381.6,328.9z"/>
<path class="st0" d="M402.8,320.2h2v9.2c0,1.6-0.2,2.9-0.5,3.8s-1,1.7-1.9,2.3s-2.1,0.9-3.5,0.9s-2.6-0.3-3.5-0.8s-1.5-1.2-1.9-2.2
	s-0.6-2.3-0.6-4v-9.2h2v9.2c0,1.4,0.1,2.4,0.4,3c0.2,0.6,0.7,1.2,1.2,1.5s1.3,0.5,2.2,0.5c1.5,0,2.5-0.4,3.1-1c0.6-0.7,0.9-2,0.9-4
	L402.8,320.2L402.8,320.2L402.8,320.2L402.8,320.2z"/>
<path class="st0" d="M223.8,219.6v-1.9h6.4v5.9c-1,0.8-2,1.4-3,1.9c-1,0.4-2.1,0.6-3.2,0.6c-1.5,0-2.8-0.3-4-1s-2.1-1.6-2.7-2.9
	c-0.6-1.3-0.9-2.7-0.9-4.2s0.3-3,0.9-4.3s1.5-2.3,2.6-3c1.1-0.6,2.5-1,4-1c1.1,0,2.1,0.2,2.9,0.6s1.6,0.9,2.1,1.6s0.9,1.5,1.1,2.6
	l-1.8,0.5c-0.2-0.8-0.5-1.4-0.8-1.9s-0.8-0.8-1.4-1.1s-1.3-0.4-2.1-0.4c-0.9,0-1.7,0.1-2.4,0.4c-0.7,0.3-1.2,0.7-1.6,1.1
	c-0.4,0.5-0.7,1-0.9,1.6c-0.4,1-0.6,2.1-0.6,3.2c0,1.4,0.2,2.6,0.7,3.6s1.1,1.7,2,2.1c0.9,0.5,1.8,0.7,2.8,0.7
	c0.9,0,1.7-0.2,2.5-0.5s1.4-0.7,1.9-1.1v-3L223.8,219.6L223.8,219.6L223.8,219.6L223.8,219.6z"/>
<path class="st0" d="M216.1,209.1l5.8-15.9h2.1l6.1,15.9h-2.3l-1.8-4.8h-6.3l-1.6,4.8H216.1L216.1,209.1z M220.5,202.6h5.1l-1.6-4.4
	c-0.5-1.3-0.8-2.4-1.1-3.3c-0.2,1-0.5,2-0.8,3L220.5,202.6L220.5,202.6L220.5,202.6z"/>
<path class="st0" d="M227.8,186.8l2,0.5c-0.4,1.7-1.2,3-2.2,3.9s-2.4,1.4-4,1.4s-2.9-0.4-3.9-1c-1-0.7-1.8-1.7-2.3-3
	s-0.8-2.7-0.8-4.3c0-1.7,0.3-3.1,0.9-4.3c0.6-1.2,1.4-2.2,2.6-2.8s2.3-1,3.6-1c1.5,0,2.8,0.4,3.8,1.2s1.7,1.9,2.1,3.4l-1.9,0.5
	c-0.4-1.2-0.9-2-1.5-2.5c-0.7-0.5-1.5-0.8-2.5-0.8c-1.1,0-2.1,0.3-2.9,0.9c-0.8,0.6-1.3,1.4-1.6,2.4s-0.5,2-0.5,3.1
	c0,1.4,0.2,2.5,0.6,3.5c0.4,1,0.9,1.8,1.7,2.3s1.6,0.8,2.6,0.8c1.1,0,2.1-0.3,2.8-1C227,189.2,227.6,188.2,227.8,186.8L227.8,186.8
	L227.8,186.8z"/>
<path class="st0" d="M223.8,169.5v-1.9h6.4v5.9c-1,0.8-2,1.4-3,1.9c-1,0.4-2.1,0.6-3.2,0.6c-1.5,0-2.8-0.3-4-1s-2.1-1.6-2.7-2.9
	c-0.6-1.3-0.9-2.7-0.9-4.2s0.3-3,0.9-4.3s1.5-2.3,2.6-3c1.1-0.6,2.5-1,4-1c1.1,0,2.1,0.2,2.9,0.6s1.6,0.9,2.1,1.6s0.9,1.5,1.1,2.6
	l-1.8,0.5c-0.2-0.8-0.5-1.4-0.8-1.9s-0.8-0.8-1.4-1.1s-1.3-0.4-2.1-0.4c-0.9,0-1.7,0.1-2.4,0.4c-0.7,0.3-1.2,0.7-1.6,1.1
	c-0.4,0.5-0.7,1-0.9,1.6c-0.4,1-0.6,2.1-0.6,3.2c0,1.4,0.2,2.6,0.7,3.6s1.1,1.7,2,2.1c0.9,0.5,1.8,0.7,2.8,0.7
	c0.9,0,1.7-0.2,2.5-0.5s1.4-0.7,1.9-1.1v-3L223.8,169.5L223.8,169.5L223.8,169.5L223.8,169.5z"/>
<path class="st0" d="M227.8,153.4l2,0.5c-0.4,1.7-1.2,3-2.2,3.9s-2.4,1.4-4,1.4s-2.9-0.4-3.9-1c-1-0.7-1.8-1.7-2.3-3
	s-0.8-2.7-0.8-4.3c0-1.7,0.3-3.1,0.9-4.3c0.6-1.2,1.4-2.2,2.6-2.8s2.3-1,3.6-1c1.5,0,2.8,0.4,3.8,1.2s1.7,1.9,2.1,3.4l-1.9,0.5
	c-0.4-1.2-0.9-2-1.5-2.5c-0.7-0.5-1.5-0.8-2.5-0.8c-1.1,0-2.1,0.3-2.9,0.9c-0.8,0.6-1.3,1.4-1.6,2.4s-0.5,2-0.5,3.1
	c0,1.4,0.2,2.5,0.6,3.5c0.4,1,0.9,1.8,1.7,2.3s1.6,0.8,2.6,0.8c1.1,0,2.1-0.3,2.8-1C227,155.8,227.6,154.8,227.8,153.4L227.8,153.4
	L227.8,153.4z"/>
<path class="st0" d="M223.8,136v-1.9h6.4v5.9c-1,0.8-2,1.4-3,1.9c-1,0.4-2.1,0.6-3.2,0.6c-1.5,0-2.8-0.3-4-1s-2.1-1.6-2.7-2.9
	c-0.6-1.3-0.9-2.7-0.9-4.2s0.3-3,0.9-4.3s1.5-2.3,2.6-3s2.5-1,4-1c1.1,0,2.1,0.2,2.9,0.6s1.6,0.9,2.1,1.6s0.9,1.5,1.1,2.6l-1.8,0.5
	c-0.2-0.8-0.5-1.4-0.8-1.9s-0.8-0.8-1.4-1.1s-1.3-0.4-2.1-0.4c-0.9,0-1.7,0.2-2.4,0.4s-1.2,0.7-1.6,1.1c-0.4,0.5-0.7,1-0.9,1.6
	c-0.4,1-0.6,2.1-0.6,3.2c0,1.4,0.2,2.6,0.7,3.6s1.1,1.7,2,2.1c0.9,0.5,1.8,0.7,2.8,0.7c0.9,0,1.7-0.2,2.5-0.5s1.4-0.7,1.9-1.1v-3
	L223.8,136L223.8,136L223.8,136z"/>
<path class="st0" d="M227.1,109.6h2v9.2c0,1.6-0.2,2.9-0.5,3.8s-1,1.7-1.9,2.3s-2.1,0.9-3.5,0.9s-2.6-0.3-3.4-0.8
	c-0.9-0.5-1.5-1.2-1.9-2.2s-0.6-2.3-0.6-4v-9.2h2v9.2c0,1.4,0.1,2.4,0.4,3c0.2,0.6,0.7,1.2,1.2,1.5s1.3,0.5,2.2,0.5
	c1.5,0,2.5-0.4,3.1-1.1s0.9-2.1,0.9-4V109.6L227.1,109.6L227.1,109.6L227.1,109.6z"/>
<line class="st1" x1="215.9" y1="124.6" x2="208.4" y2="132.5"/>
<path d="M195.5,153.2v1.9h-9.9c0-0.5,0.1-0.9,0.2-1.4c0.2-0.7,0.7-1.4,1.2-2.1c0.6-0.7,1.4-1.5,2.4-2.4c1.6-1.4,2.7-2.5,3.3-3.4
	c0.6-0.8,0.9-1.6,0.9-2.4s-0.3-1.4-0.8-2c-0.5-0.5-1.2-0.8-2-0.8c-0.9,0-1.6,0.3-2.1,0.9c-0.5,0.6-0.8,1.3-0.8,2.3l-1.9-0.2
	c0.1-1.5,0.6-2.6,1.5-3.4c0.9-0.8,2-1.2,3.4-1.2s2.6,0.4,3.4,1.3c0.8,0.8,1.3,1.9,1.3,3.1c0,0.6-0.1,1.3-0.4,1.9
	c-0.2,0.6-0.7,1.3-1.2,1.9s-1.5,1.6-2.8,2.8c-1.1,1-1.8,1.6-2.1,2s-0.6,0.7-0.8,1.1L195.5,153.2L195.5,153.2L195.5,153.2
	L195.5,153.2z M197.5,147.3c0-1.9,0.2-3.4,0.6-4.5c0.4-1.1,0.9-2,1.6-2.6s1.6-0.9,2.7-0.9c0.8,0,1.5,0.2,2.1,0.5s1.1,0.8,1.5,1.5
	c0.4,0.6,0.7,1.4,0.9,2.4c0.2,0.9,0.3,2.2,0.3,3.8c0,1.9-0.2,3.4-0.5,4.5s-0.9,2-1.6,2.6c-0.7,0.6-1.6,0.9-2.7,0.9
	c-1.4,0-2.6-0.6-3.4-1.6C198,152.4,197.5,150.3,197.5,147.3L197.5,147.3L197.5,147.3z M199.4,147.3c0,2.6,0.3,4.4,0.9,5.2
	s1.3,1.3,2.1,1.3s1.6-0.4,2.1-1.3c0.6-0.9,0.9-2.6,0.9-5.2s-0.3-4.4-0.9-5.2s-1.3-1.3-2.2-1.3s-1.5,0.4-2,1.1
	C199.7,142.9,199.4,144.7,199.4,147.3L199.4,147.3L199.4,147.3L199.4,147.3z"/>
<path class="st0" d="M215.3,92.9h2v9.2c0,1.6-0.2,2.9-0.5,3.8s-1,1.7-1.9,2.3c-0.9,0.6-2.1,0.9-3.5,0.9s-2.6-0.3-3.4-0.8
	c-0.9-0.5-1.5-1.2-1.9-2.2s-0.6-2.3-0.6-4v-9.2h2v9.2c0,1.4,0.1,2.4,0.4,3.1c0.2,0.7,0.7,1.2,1.2,1.5s1.3,0.5,2.2,0.5
	c1.5,0,2.5-0.3,3.1-1.1c0.6-0.7,0.9-2.1,0.9-4V92.9L215.3,92.9L215.3,92.9L215.3,92.9z"/>
<path class="st0" d="M211.8,81.7v-1.9h6.4v5.9c-1,0.8-2,1.4-3,1.8s-2.1,0.6-3.2,0.6c-1.5,0-2.8-0.3-4-1s-2.1-1.6-2.7-2.9
	c-0.6-1.3-0.9-2.7-0.9-4.2s0.3-3,0.9-4.3c0.6-1.3,1.5-2.3,2.6-3s2.5-1,4-1c1.1,0,2.1,0.2,2.9,0.6s1.6,0.9,2.1,1.6s0.9,1.5,1.1,2.6
	l-1.8,0.5c-0.2-0.8-0.5-1.4-0.8-1.9s-0.8-0.8-1.4-1.1s-1.3-0.4-2.1-0.4c-0.9,0-1.7,0.2-2.4,0.4s-1.2,0.7-1.6,1.2
	c-0.4,0.5-0.7,1-0.9,1.6c-0.4,1-0.6,2.1-0.6,3.2c0,1.4,0.2,2.6,0.7,3.6c0.5,0.9,1.1,1.7,2,2.1c0.9,0.5,1.8,0.7,2.8,0.7
	c0.9,0,1.7-0.2,2.5-0.5s1.4-0.7,1.9-1.1v-3L211.8,81.7L211.8,81.7z"/>
<path class="st0" d="M227.1,51.1h2v9.2c0,1.6-0.2,2.9-0.5,3.8c-0.3,0.9-1,1.7-1.9,2.3s-2.1,0.9-3.5,0.9s-2.6-0.3-3.4-0.8
	c-0.9-0.5-1.5-1.2-1.9-2.2s-0.6-2.3-0.6-4v-9.2h2v9.2c0,1.4,0.1,2.4,0.4,3.1c0.2,0.7,0.7,1.2,1.2,1.5s1.3,0.5,2.2,0.5
	c1.5,0,2.5-0.3,3.1-1.1c0.6-0.7,0.9-2,0.9-4V51.1L227.1,51.1L227.1,51.1L227.1,51.1z"/>
<path class="st0" d="M239.4,56.6v-1.9h6.4v5.9c-1,0.8-2,1.4-3,1.8c-1,0.4-2.1,0.6-3.2,0.6c-1.5,0-2.8-0.3-4-1s-2.1-1.6-2.7-2.9
	c-0.6-1.3-0.9-2.7-0.9-4.2s0.3-3,0.9-4.3s1.5-2.3,2.6-3s2.5-1,4-1c1.1,0,2.1,0.2,2.9,0.6c0.9,0.4,1.6,0.9,2.1,1.5s0.9,1.5,1.1,2.6
	l-1.8,0.5c-0.2-0.8-0.5-1.4-0.8-1.9s-0.8-0.8-1.4-1.1s-1.3-0.4-2.1-0.4c-0.9,0-1.7,0.2-2.4,0.4c-0.7,0.3-1.2,0.7-1.6,1.2
	c-0.4,0.5-0.7,1-0.9,1.6c-0.4,1-0.6,2-0.6,3.2c0,1.4,0.2,2.6,0.7,3.5s1.1,1.7,2,2.1c0.9,0.5,1.8,0.7,2.8,0.7c0.9,0,1.7-0.2,2.5-0.5
	s1.4-0.7,1.9-1.1v-3L239.4,56.6L239.4,56.6z"/>
<path class="st0" d="M258.7,55.3h2v9.2c0,1.6-0.2,2.9-0.5,3.8s-1,1.7-1.9,2.3s-2.1,0.9-3.5,0.9s-2.6-0.3-3.4-0.8
	c-0.9-0.5-1.5-1.2-1.9-2.2s-0.6-2.3-0.6-4v-9.2h2v9.2c0,1.4,0.1,2.4,0.4,3.1c0.2,0.7,0.7,1.2,1.2,1.5s1.3,0.5,2.2,0.5
	c1.5,0,2.5-0.3,3.1-1.1s0.9-2.1,0.9-4V55.3L258.7,55.3L258.7,55.3L258.7,55.3z"/>
<path class="st0" d="M270.5,72h2v9.2c0,1.6-0.2,2.9-0.5,3.8s-1,1.7-1.9,2.3c-0.9,0.6-2.1,0.9-3.5,0.9s-2.6-0.3-3.5-0.8
	s-1.5-1.2-1.9-2.2s-0.6-2.3-0.6-4V72h2v9.2c0,1.4,0.1,2.4,0.4,3.1c0.2,0.7,0.7,1.2,1.2,1.5s1.3,0.5,2.2,0.5c1.5,0,2.5-0.3,3.1-1.1
	c0.6-0.7,0.9-2.1,0.9-4L270.5,72L270.5,72L270.5,72L270.5,72z"/>
<path class="st0" d="M270.5,92.9h2v9.2c0,1.6-0.2,2.9-0.5,3.8s-1,1.7-1.9,2.3c-0.9,0.6-2.1,0.9-3.5,0.9s-2.6-0.3-3.5-0.8
	s-1.5-1.2-1.9-2.2s-0.6-2.3-0.6-4v-9.2h2v9.2c0,1.4,0.1,2.4,0.4,3.1c0.2,0.7,0.7,1.2,1.2,1.5s1.3,0.5,2.2,0.5c1.5,0,2.5-0.3,3.1-1.1
	c0.6-0.7,0.9-2.1,0.9-4L270.5,92.9L270.5,92.9L270.5,92.9L270.5,92.9z"/>
<path class="st0" d="M247.8,125.5l5.8-15.9h2.1l6.1,15.9h-2.3l-1.8-4.8h-6.3l-1.6,4.8H247.8L247.8,125.5z M252.1,119h5.1l-1.6-4.4
	c-0.5-1.3-0.8-2.4-1.1-3.3c-0.2,1-0.5,2-0.8,3L252.1,119L252.1,119L252.1,119z"/>
<path class="st0" d="M259.5,136.7l2,0.5c-0.4,1.7-1.2,3-2.2,3.9s-2.4,1.4-4,1.4s-2.9-0.4-3.9-1c-1-0.7-1.8-1.7-2.3-3
	s-0.8-2.7-0.8-4.3c0-1.7,0.3-3.1,0.9-4.3c0.6-1.2,1.4-2.2,2.6-2.8s2.3-1,3.6-1c1.5,0,2.8,0.4,3.8,1.2c1,0.8,1.7,2,2.1,3.4l-2,0.5
	c-0.4-1.2-0.9-2-1.5-2.5s-1.5-0.8-2.5-0.8c-1.1,0-2.1,0.3-2.9,0.9s-1.3,1.4-1.6,2.4s-0.5,2-0.5,3.1c0,1.4,0.2,2.5,0.6,3.5
	c0.4,1,0.9,1.8,1.7,2.3s1.6,0.8,2.6,0.8c1.1,0,2.1-0.3,2.8-1C258.7,139,259.2,138,259.5,136.7L259.5,136.7L259.5,136.7z"/>
<path class="st0" d="M255.4,152.8v-1.9h6.4v5.9c-1,0.8-2,1.4-3,1.9c-1,0.4-2.1,0.6-3.2,0.6c-1.5,0-2.8-0.3-4-1s-2.1-1.6-2.7-2.9
	c-0.6-1.3-0.9-2.7-0.9-4.2s0.3-3,0.9-4.3s1.5-2.3,2.6-3c1.1-0.6,2.5-1,4-1c1.1,0,2.1,0.2,2.9,0.6s1.6,0.9,2.1,1.6s0.9,1.5,1.1,2.6
	l-1.8,0.5c-0.2-0.8-0.5-1.4-0.8-1.9s-0.8-0.8-1.4-1.1s-1.3-0.4-2.1-0.4c-0.9,0-1.7,0.1-2.4,0.4c-0.7,0.3-1.2,0.7-1.6,1.1
	c-0.4,0.5-0.7,1-0.9,1.6c-0.4,1-0.6,2.1-0.6,3.2c0,1.4,0.2,2.6,0.7,3.6s1.1,1.7,2,2.1c0.9,0.5,1.8,0.7,2.8,0.7
	c0.9,0,1.7-0.2,2.5-0.5c0.8-0.4,1.4-0.7,1.9-1.1v-3L255.4,152.8L255.4,152.8L255.4,152.8L255.4,152.8z"/>
<line class="st1" x1="265.5" y1="159" x2="276" y2="159"/>
<path d="M276.9,163.7l1.8-0.2c0.2,1.1,0.6,1.9,1.1,2.4s1.1,0.7,1.9,0.7c0.9,0,1.6-0.3,2.2-1c0.6-0.6,0.9-1.4,0.9-2.4
	s-0.3-1.6-0.8-2.2s-1.3-0.9-2.1-0.9c-0.4,0-0.8,0.1-1.3,0.2l0.2-1.7c0.1,0,0.2,0,0.3,0c0.8,0,1.5-0.2,2.1-0.6s0.9-1.1,0.9-2
	c0-0.7-0.2-1.3-0.7-1.8s-1-0.7-1.8-0.7s-1.3,0.2-1.8,0.7s-0.8,1.2-0.9,2.1L277,156c0.2-1.3,0.7-2.3,1.5-3s1.8-1.1,3-1.1
	c0.8,0,1.6,0.2,2.3,0.6s1.2,0.9,1.6,1.5s0.5,1.3,0.5,2.1s-0.2,1.3-0.5,1.9c-0.4,0.6-0.9,1-1.5,1.3c0.9,0.2,1.6,0.7,2.1,1.4
	s0.7,1.5,0.7,2.6c0,1.4-0.5,2.6-1.4,3.5c-1,1-2.2,1.4-3.6,1.4c-1.3,0-2.4-0.4-3.3-1.2S277,165,276.9,163.7z M288.6,160
	c0-1.9,0.2-3.4,0.5-4.5s0.9-2,1.6-2.6s1.6-0.9,2.7-0.9c0.8,0,1.5,0.2,2.1,0.5s1.1,0.8,1.5,1.5c0.4,0.6,0.7,1.4,0.9,2.4
	c0.2,0.9,0.3,2.2,0.3,3.8c0,1.9-0.2,3.4-0.5,4.5c-0.4,1.1-0.9,2-1.6,2.6s-1.6,0.9-2.7,0.9c-1.5,0-2.6-0.6-3.4-1.6
	C289.1,165.2,288.6,163,288.6,160L288.6,160L288.6,160z M290.5,160c0,2.6,0.3,4.4,0.9,5.2s1.3,1.3,2.1,1.3s1.6-0.4,2.1-1.3
	c0.6-0.9,0.9-2.6,0.9-5.2s-0.3-4.4-0.9-5.2s-1.3-1.3-2.2-1.3s-1.5,0.4-2,1.1C290.8,155.7,290.5,157.4,290.5,160L290.5,160L290.5,160
	L290.5,160z"/>
<path class="st0" d="M259.5,170.1l2,0.5c-0.4,1.7-1.2,3-2.2,3.9s-2.4,1.4-4,1.4s-2.9-0.4-3.9-1c-1-0.7-1.8-1.7-2.3-3
	s-0.8-2.7-0.8-4.3c0-1.7,0.3-3.1,0.9-4.3c0.6-1.2,1.4-2.2,2.6-2.8s2.3-1,3.6-1c1.5,0,2.8,0.4,3.8,1.2s1.7,1.9,2.1,3.4l-2,0.5
	c-0.4-1.2-0.9-2-1.5-2.5s-1.5-0.8-2.5-0.8c-1.1,0-2.1,0.3-2.9,0.9c-0.8,0.6-1.3,1.4-1.6,2.4s-0.5,2-0.5,3.1c0,1.4,0.2,2.5,0.6,3.5
	c0.4,1,0.9,1.8,1.7,2.3s1.6,0.8,2.6,0.8c1.1,0,2.1-0.3,2.8-1C258.7,172.5,259.2,171.5,259.5,170.1L259.5,170.1L259.5,170.1z"/>
<path class="st0" d="M255.4,186.2v-1.9h6.4v5.9c-1,0.8-2,1.4-3,1.9c-1,0.4-2.1,0.6-3.2,0.6c-1.5,0-2.8-0.3-4-1s-2.1-1.6-2.7-2.9
	c-0.6-1.3-0.9-2.7-0.9-4.2s0.3-3,0.9-4.3s1.5-2.3,2.6-3c1.1-0.6,2.5-1,4-1c1.1,0,2.1,0.2,2.9,0.6s1.6,0.9,2.1,1.6s0.9,1.5,1.1,2.6
	l-1.8,0.5c-0.2-0.8-0.5-1.4-0.8-1.9s-0.8-0.8-1.4-1.1s-1.3-0.4-2.1-0.4c-0.9,0-1.7,0.1-2.4,0.4c-0.7,0.3-1.2,0.7-1.6,1.1
	c-0.4,0.5-0.7,1-0.9,1.6c-0.4,1-0.6,2.1-0.6,3.2c0,1.4,0.2,2.6,0.7,3.6s1.1,1.7,2,2.1c0.9,0.5,1.8,0.7,2.8,0.7
	c0.9,0,1.7-0.2,2.5-0.5c0.8-0.4,1.4-0.7,1.9-1.1v-3L255.4,186.2L255.4,186.2L255.4,186.2L255.4,186.2z"/>
<path class="st0" d="M258.8,193.1h2v9.2c0,1.6-0.2,2.9-0.5,3.8s-1,1.7-1.9,2.3s-2.1,0.9-3.5,0.9s-2.6-0.3-3.4-0.8
	c-0.9-0.5-1.5-1.2-1.9-2.2s-0.6-2.3-0.6-4v-9.2h2v9.2c0,1.4,0.1,2.4,0.4,3.1c0.2,0.6,0.7,1.2,1.2,1.5c0.6,0.4,1.3,0.5,2.2,0.5
	c1.5,0,2.5-0.4,3.1-1.1s0.9-2.1,0.9-4V193.1L258.8,193.1L258.8,193.1L258.8,193.1z"/>
<path class="st0" d="M259.5,220.3l2,0.5c-0.4,1.7-1.2,3-2.2,3.9s-2.4,1.4-4,1.4s-2.9-0.4-3.9-1c-1-0.7-1.8-1.7-2.3-3
	s-0.8-2.7-0.8-4.3c0-1.7,0.3-3.1,0.9-4.3c0.6-1.2,1.4-2.2,2.6-2.8s2.3-1,3.6-1c1.5,0,2.8,0.4,3.8,1.2s1.7,1.9,2.1,3.4l-2,0.5
	c-0.4-1.2-0.9-2-1.5-2.5s-1.5-0.8-2.5-0.8c-1.1,0-2.1,0.3-2.9,0.9c-0.8,0.6-1.3,1.4-1.6,2.4s-0.5,2-0.5,3.1c0,1.4,0.2,2.5,0.6,3.5
	c0.4,1,0.9,1.8,1.7,2.3s1.6,0.8,2.6,0.8c1.1,0,2.1-0.3,2.8-1C258.7,222.6,259.2,221.6,259.5,220.3L259.5,220.3L259.5,220.3z"/>
<path class="st2" d="M274.5,209.7h2v9.2c0,1.6-0.2,2.9-0.5,3.8s-1,1.7-1.9,2.3s-2.1,0.9-3.5,0.9s-2.6-0.3-3.5-0.8s-1.5-1.2-1.9-2.2
	s-0.6-2.3-0.6-4v-9.2h2v9.2c0,1.4,0.1,2.4,0.4,3.1c0.2,0.6,0.7,1.2,1.2,1.5c0.6,0.4,1.3,0.5,2.2,0.5c1.5,0,2.5-0.4,3.1-1.1
	s0.9-2.1,0.9-4L274.5,209.7L274.5,209.7L274.5,209.7L274.5,209.7z"/>
<path class="st2" d="M280.9,200.3v-1.9h6.4v5.9c-1,0.8-2,1.4-3,1.9c-1,0.4-2.1,0.6-3.2,0.6c-1.5,0-2.8-0.3-4-1s-2.1-1.6-2.7-2.9
	c-0.6-1.3-0.9-2.7-0.9-4.2s0.3-3,0.9-4.3s1.5-2.3,2.6-3c1.1-0.6,2.5-1,4-1c1.1,0,2.1,0.2,2.9,0.6s1.6,0.9,2.1,1.6s0.9,1.5,1.1,2.6
	l-1.8,0.5c-0.2-0.8-0.5-1.4-0.8-1.9s-0.8-0.8-1.4-1.1s-1.3-0.4-2.1-0.4c-0.9,0-1.7,0.1-2.4,0.4c-0.7,0.3-1.2,0.7-1.6,1.1
	c-0.4,0.5-0.7,1-1,1.6c-0.4,1-0.6,2.1-0.6,3.2c0,1.4,0.2,2.6,0.7,3.6s1.1,1.7,2,2.1c0.9,0.5,1.8,0.7,2.8,0.7c0.9,0,1.7-0.2,2.5-0.5
	c0.8-0.4,1.4-0.7,1.9-1.1v-3L280.9,200.3L280.9,200.3L280.9,200.3L280.9,200.3z"/>
<path class="st2" d="M287.5,197.2l5.8-15.9h2.1l6.1,15.9h-2.3l-1.8-4.8h-6.3l-1.6,4.8H287.5L287.5,197.2z M291.8,190.7h5.1l-1.6-4.4
	c-0.5-1.3-0.8-2.4-1.1-3.3c-0.2,1-0.5,2-0.8,3L291.8,190.7L291.8,190.7L291.8,190.7z"/>
<path class="st2" d="M310,202.1h2v9.2c0,1.6-0.2,2.9-0.5,3.8s-1,1.7-1.9,2.3s-2.1,0.9-3.5,0.9s-2.6-0.3-3.5-0.8s-1.5-1.2-1.9-2.2
	s-0.6-2.3-0.6-4v-9.2h2v9.2c0,1.4,0.1,2.4,0.4,3.1c0.2,0.6,0.7,1.2,1.2,1.5c0.6,0.4,1.3,0.5,2.2,0.5c1.5,0,2.5-0.4,3.1-1.1
	s0.9-2.1,0.9-4L310,202.1L310,202.1L310,202.1L310,202.1z"/>
<path class="st2" d="M322.4,211.8v-1.9h6.4v5.9c-1,0.8-2,1.4-3,1.9c-1,0.4-2.1,0.6-3.2,0.6c-1.5,0-2.8-0.3-4-1s-2.1-1.6-2.7-2.9
	c-0.6-1.3-0.9-2.7-0.9-4.2s0.3-3,0.9-4.3s1.5-2.3,2.6-3c1.1-0.6,2.5-1,4-1c1.1,0,2.1,0.2,2.9,0.6s1.6,0.9,2.1,1.6s0.9,1.5,1.1,2.6
	l-1.8,0.5c-0.2-0.8-0.5-1.4-0.8-1.9s-0.8-0.8-1.4-1.1s-1.3-0.4-2.1-0.4c-0.9,0-1.7,0.1-2.4,0.4c-0.7,0.3-1.2,0.7-1.6,1.1
	c-0.4,0.5-0.7,1-1,1.6c-0.4,1-0.6,2.1-0.6,3.2c0,1.4,0.2,2.6,0.7,3.6s1.1,1.7,2,2.1c0.9,0.5,1.8,0.7,2.8,0.7c0.9,0,1.7-0.2,2.5-0.5
	c0.8-0.4,1.4-0.7,1.9-1.1v-3L322.4,211.8L322.4,211.8L322.4,211.8L322.4,211.8z"/>
<path class="st2" d="M330.8,218l5.8-15.9h2.1l6.1,15.9h-2.3l-1.8-4.8h-6.3l-1.6,4.8H330.8L330.8,218z M335.1,211.5h5.1l-1.6-4.4
	c-0.5-1.3-0.8-2.4-1.1-3.3c-0.2,1-0.5,2-0.8,3L335.1,211.5L335.1,211.5L335.1,211.5z"/>
<line class="st1" x1="337.9" y1="198.1" x2="337.9" y2="186.9"/>
<path d="M332.9,181.9v-3.8h-6.5v-1.8l6.9-10.3h1.5v10.3h2v1.8h-2v3.8H332.9z M332.9,176.3v-7.2l-4.7,7.2H332.9z M338.7,174.1
	c0-1.9,0.2-3.4,0.5-4.5s0.9-2,1.6-2.6s1.6-0.9,2.7-0.9c0.8,0,1.5,0.2,2.1,0.5s1.1,0.8,1.5,1.5c0.4,0.6,0.7,1.4,0.9,2.4
	c0.2,0.9,0.3,2.2,0.3,3.8c0,1.9-0.2,3.4-0.5,4.5c-0.4,1.1-0.9,2-1.6,2.6s-1.6,0.9-2.7,0.9c-1.5,0-2.6-0.6-3.4-1.6
	C339.2,179.2,338.7,177.1,338.7,174.1L338.7,174.1L338.7,174.1z M340.6,174.1c0,2.6,0.3,4.4,0.9,5.2s1.3,1.3,2.1,1.3
	s1.6-0.4,2.1-1.3c0.6-0.9,0.9-2.6,0.9-5.2s-0.3-4.4-0.9-5.2s-1.3-1.3-2.2-1.3s-1.5,0.4-2,1.1C340.9,169.7,340.6,171.5,340.6,174.1
	L340.6,174.1L340.6,174.1L340.6,174.1z"/>
<path class="st2" d="M354,211.8v-1.9h6.4v5.9c-1,0.8-2,1.4-3,1.9c-1,0.4-2.1,0.6-3.2,0.6c-1.5,0-2.8-0.3-4-1s-2.1-1.6-2.7-2.9
	c-0.6-1.3-0.9-2.7-0.9-4.2s0.3-3,0.9-4.3s1.5-2.3,2.6-3c1.1-0.6,2.5-1,4-1c1.1,0,2.1,0.2,2.9,0.6s1.6,0.9,2.1,1.6s0.9,1.5,1.1,2.6
	l-1.8,0.5c-0.2-0.8-0.5-1.4-0.8-1.9s-0.8-0.8-1.4-1.1s-1.3-0.4-2.1-0.4c-0.9,0-1.7,0.1-2.4,0.4c-0.7,0.3-1.2,0.7-1.6,1.1
	c-0.4,0.5-0.7,1-1,1.6c-0.4,1-0.6,2.1-0.6,3.2c0,1.4,0.2,2.6,0.7,3.6s1.1,1.7,2,2.1c0.9,0.5,1.8,0.7,2.8,0.7c0.9,0,1.7-0.2,2.5-0.5
	c0.8-0.4,1.4-0.7,1.9-1.1v-3L354,211.8L354,211.8L354,211.8L354,211.8z"/>
<path class="st2" d="M373.2,202.1h2v9.2c0,1.6-0.2,2.9-0.5,3.8s-1,1.7-1.9,2.3s-2.1,0.9-3.5,0.9s-2.6-0.3-3.5-0.8s-1.5-1.2-1.9-2.2
	s-0.6-2.3-0.6-4v-9.2h2v9.2c0,1.4,0.1,2.4,0.4,3.1c0.2,0.6,0.7,1.2,1.2,1.5c0.6,0.4,1.3,0.5,2.2,0.5c1.5,0,2.5-0.4,3.1-1.1
	s0.9-2.1,0.9-4L373.2,202.1L373.2,202.1L373.2,202.1L373.2,202.1z"/>
<path class="st2" d="M385.5,211.8v-1.9h6.4v5.9c-1,0.8-2,1.4-3,1.9c-1,0.4-2.1,0.6-3.2,0.6c-1.5,0-2.8-0.3-4-1s-2.1-1.6-2.7-2.9
	c-0.6-1.3-0.9-2.7-0.9-4.2s0.3-3,0.9-4.3s1.5-2.3,2.6-3c1.1-0.6,2.5-1,4-1c1.1,0,2.1,0.2,2.9,0.6s1.6,0.9,2.1,1.6s0.9,1.5,1.1,2.6
	l-1.8,0.5c-0.2-0.8-0.5-1.4-0.8-1.9s-0.8-0.8-1.4-1.1s-1.3-0.4-2.1-0.4c-0.9,0-1.7,0.1-2.4,0.4c-0.7,0.3-1.2,0.7-1.6,1.1
	c-0.4,0.5-0.7,1-1,1.6c-0.4,1-0.6,2.1-0.6,3.2c0,1.4,0.2,2.6,0.7,3.6s1.1,1.7,2,2.1c0.9,0.5,1.8,0.7,2.8,0.7c0.9,0,1.7-0.2,2.5-0.5
	c0.8-0.4,1.4-0.7,1.9-1.1v-3L385.5,211.8L385.5,211.8L385.5,211.8L385.5,211.8z"/>
<path class="st2" d="M401.3,211.8v-1.9h6.4v5.9c-1,0.8-2,1.4-3,1.9c-1,0.4-2.1,0.6-3.2,0.6c-1.5,0-2.8-0.3-4-1s-2.1-1.6-2.7-2.9
	c-0.6-1.3-0.9-2.7-0.9-4.2s0.3-3,0.9-4.3s1.5-2.3,2.6-3c1.1-0.6,2.5-1,4-1c1.1,0,2.1,0.2,2.9,0.6s1.6,0.9,2.1,1.6s0.9,1.5,1.1,2.6
	l-1.8,0.5c-0.2-0.8-0.5-1.4-0.8-1.9s-0.8-0.8-1.4-1.1s-1.3-0.4-2.1-0.4c-0.9,0-1.7,0.1-2.4,0.4c-0.7,0.3-1.2,0.7-1.6,1.1
	c-0.4,0.5-0.7,1-1,1.6c-0.4,1-0.6,2.1-0.6,3.2c0,1.4,0.2,2.6,0.7,3.6s1.1,1.7,2,2.1c0.9,0.5,1.8,0.7,2.8,0.7c0.9,0,1.7-0.2,2.5-0.5
	c0.8-0.4,1.4-0.7,1.9-1.1v-3L401.3,211.8L401.3,211.8L401.3,211.8L401.3,211.8z"/>
<path class="st3" d="M420.6,189.6h2v9.2c0,1.6-0.2,2.9-0.5,3.8s-1,1.7-1.9,2.3s-2.1,0.9-3.5,0.9s-2.6-0.3-3.5-0.8s-1.5-1.2-1.9-2.2
	s-0.6-2.3-0.6-4v-9.2h2v9.2c0,1.4,0.1,2.4,0.4,3.1c0.2,0.6,0.7,1.2,1.2,1.5c0.6,0.4,1.3,0.5,2.2,0.5c1.5,0,2.5-0.4,3.1-1.1
	s0.9-2.1,0.9-4L420.6,189.6L420.6,189.6L420.6,189.6L420.6,189.6z"/>
<path class="st3" d="M425.5,193l5.8-15.9h2.1l6.1,15.9h-2.3l-1.8-4.8h-6.3l-1.6,4.8H425.5L425.5,193z M429.9,186.4h5.1l-1.6-4.4
	c-0.5-1.3-0.8-2.4-1.1-3.3c-0.2,1-0.5,2-0.8,3L429.9,186.4L429.9,186.4L429.9,186.4z"/>
<path class="st3" d="M437.3,266.8l2,0.5c-0.4,1.7-1.2,3-2.2,4s-2.4,1.4-4,1.4s-2.9-0.4-4-1c-1-0.7-1.8-1.7-2.3-3s-0.8-2.7-0.8-4.3
	c0-1.7,0.3-3.1,0.9-4.3s1.5-2.2,2.5-2.8s2.3-1,3.6-1c1.5,0,2.8,0.4,3.8,1.2c1,0.8,1.7,2,2.1,3.4l-2,0.5c-0.4-1.2-0.9-2-1.5-2.5
	S434,258,433,258c-1.1,0-2.1,0.3-2.9,0.9s-1.3,1.4-1.6,2.4c-0.3,1-0.5,2-0.5,3c0,1.4,0.2,2.5,0.6,3.5s1,1.8,1.7,2.3
	c0.8,0.5,1.6,0.8,2.5,0.8c1.1,0,2-0.3,2.8-1C436.5,269.2,437,268.1,437.3,266.8L437.3,266.8L437.3,266.8z"/>
<path class="st3" d="M420.6,248.1h2v9.2c0,1.6-0.2,2.9-0.5,3.8s-1,1.7-1.9,2.3s-2.1,0.9-3.5,0.9s-2.6-0.3-3.5-0.8s-1.5-1.2-1.9-2.2
	s-0.6-2.3-0.6-4v-9.2h2v9.2c0,1.4,0.1,2.4,0.4,3c0.2,0.6,0.7,1.2,1.2,1.5s1.3,0.5,2.2,0.5c1.5,0,2.5-0.4,3.1-1s0.9-2,0.9-4
	L420.6,248.1L420.6,248.1L420.6,248.1L420.6,248.1z"/>
<path class="st2" d="M405.7,245.9l2,0.5c-0.4,1.7-1.2,3-2.2,3.9s-2.4,1.4-4,1.4s-2.9-0.4-4-1c-1-0.7-1.8-1.7-2.3-3s-0.8-2.7-0.8-4.3
	c0-1.7,0.3-3.1,0.9-4.3s1.5-2.2,2.5-2.8s2.3-1,3.6-1c1.5,0,2.8,0.4,3.8,1.2s1.7,1.9,2.1,3.4l-2,0.5c-0.4-1.2-0.9-2-1.5-2.5
	s-1.5-0.8-2.5-0.8c-1.1,0-2.1,0.3-2.9,0.9c-0.8,0.6-1.3,1.4-1.6,2.4c-0.3,1-0.5,2-0.5,3.1c0,1.4,0.2,2.5,0.6,3.5s1,1.8,1.7,2.3
	c0.8,0.5,1.6,0.8,2.5,0.8c1.1,0,2-0.3,2.8-1C404.9,248.3,405.4,247.2,405.7,245.9L405.7,245.9L405.7,245.9z"/>
<line class="st1" x1="393.6" y1="250.5" x2="386.1" y2="258.4"/>
<path d="M366.3,272.5c-0.8-0.3-1.3-0.7-1.7-1.3c-0.4-0.5-0.6-1.2-0.6-2c0-1.2,0.4-2.1,1.2-2.9c0.8-0.8,1.8-1.2,3.1-1.2
	s2.4,0.4,3.2,1.2c0.8,0.8,1.2,1.8,1.2,2.9c0,0.7-0.2,1.4-0.5,1.9c-0.4,0.5-0.9,1-1.7,1.3c0.9,0.3,1.6,0.8,2.1,1.5s0.7,1.5,0.7,2.5
	c0,1.4-0.5,2.5-1.4,3.4s-2.1,1.4-3.6,1.4s-2.7-0.5-3.6-1.4s-1.4-2.1-1.4-3.5c0-1,0.2-1.9,0.7-2.6S365.4,272.7,366.3,272.5
	L366.3,272.5L366.3,272.5L366.3,272.5z M365.9,269.1c0,0.8,0.2,1.4,0.7,1.8s1,0.7,1.8,0.7s1.3-0.2,1.8-0.7s0.7-1,0.7-1.7
	s-0.2-1.3-0.7-1.8s-1-0.7-1.8-0.7s-1.3,0.2-1.8,0.7S365.9,268.5,365.9,269.1L365.9,269.1L365.9,269.1z M365.4,276.5
	c0,0.6,0.1,1.1,0.4,1.6s0.6,0.9,1.1,1.2c0.5,0.3,1,0.4,1.6,0.4c0.9,0,1.6-0.3,2.2-0.9s0.9-1.4,0.9-2.3s-0.3-1.7-0.9-2.3
	c-0.6-0.6-1.3-0.9-2.2-0.9s-1.6,0.3-2.2,0.9C365.6,274.8,365.3,275.6,365.4,276.5L365.4,276.5L365.4,276.5z M375.2,273.2
	c0-1.9,0.2-3.4,0.5-4.5s0.9-2,1.6-2.6s1.6-0.9,2.7-0.9c0.8,0,1.5,0.2,2.1,0.5s1.1,0.8,1.5,1.5c0.4,0.6,0.7,1.4,0.9,2.4
	c0.2,0.9,0.3,2.2,0.3,3.8c0,1.9-0.2,3.4-0.5,4.5c-0.4,1.1-0.9,2-1.6,2.6s-1.6,0.9-2.7,0.9c-1.5,0-2.6-0.5-3.4-1.6
	C375.7,278.4,375.2,276.2,375.2,273.2L375.2,273.2L375.2,273.2z M377.1,273.2c0,2.6,0.3,4.4,0.9,5.2s1.3,1.3,2.1,1.3
	s1.6-0.4,2.1-1.3c0.6-0.9,0.9-2.6,0.9-5.2s-0.3-4.4-0.9-5.2s-1.3-1.3-2.2-1.3s-1.5,0.4-2,1.1C377.4,268.9,377.1,270.6,377.1,273.2
	L377.1,273.2L377.1,273.2L377.1,273.2z"/>
<path class="st2" d="M389.9,245.9l2,0.5c-0.4,1.7-1.2,3-2.2,3.9s-2.4,1.4-4,1.4s-2.9-0.4-4-1c-1-0.7-1.8-1.7-2.3-3s-0.8-2.7-0.8-4.3
	c0-1.7,0.3-3.1,0.9-4.3s1.5-2.2,2.5-2.8s2.3-1,3.6-1c1.5,0,2.8,0.4,3.8,1.2s1.7,1.9,2.1,3.4l-2,0.5c-0.4-1.2-0.9-2-1.5-2.5
	s-1.5-0.8-2.5-0.8c-1.1,0-2.1,0.3-2.9,0.9c-0.8,0.6-1.3,1.4-1.6,2.4c-0.3,1-0.5,2-0.5,3.1c0,1.4,0.2,2.5,0.6,3.5s1,1.8,1.7,2.3
	c0.8,0.5,1.6,0.8,2.5,0.8c1.1,0,2-0.3,2.8-1C389.1,248.3,389.6,247.2,389.9,245.9L389.9,245.9L389.9,245.9z"/>
<path class="st2" d="M362.4,251.5l5.8-15.9h2.1l6.1,15.9h-2.3l-1.8-4.8H366l-1.6,4.8H362.4L362.4,251.5z M366.7,244.9h5.1l-1.6-4.4
	c-0.5-1.3-0.8-2.4-1.1-3.3c-0.2,1-0.5,2-0.8,3L366.7,244.9L366.7,244.9L366.7,244.9z"/>
<path class="st2" d="M358.3,245.9l2,0.5c-0.4,1.7-1.2,3-2.2,3.9s-2.4,1.4-4,1.4s-2.9-0.4-4-1c-1-0.7-1.8-1.7-2.3-3s-0.8-2.7-0.8-4.3
	c0-1.7,0.3-3.1,0.9-4.3s1.5-2.2,2.5-2.8s2.3-1,3.6-1c1.5,0,2.8,0.4,3.8,1.2s1.7,1.9,2.1,3.4l-2,0.5c-0.4-1.2-0.9-2-1.5-2.5
	s-1.5-0.8-2.5-0.8c-1.1,0-2.1,0.3-2.9,0.9c-0.8,0.6-1.3,1.4-1.6,2.4c-0.3,1-0.5,2-0.5,3.1c0,1.4,0.2,2.5,0.6,3.5s1,1.8,1.7,2.3
	c0.8,0.5,1.6,0.8,2.5,0.8c1.1,0,2-0.3,2.8-1C357.5,248.3,358,247.2,358.3,245.9L358.3,245.9L358.3,245.9z"/>
<path class="st2" d="M338.1,245.2v-1.9h6.4v5.9c-1,0.8-2,1.4-3,1.9c-1,0.4-2.1,0.6-3.2,0.6c-1.5,0-2.8-0.3-4-1s-2.1-1.6-2.7-2.9
	c-0.6-1.3-0.9-2.7-0.9-4.2s0.3-3,0.9-4.3s1.5-2.3,2.6-3c1.1-0.6,2.5-1,4-1c1.1,0,2.1,0.2,2.9,0.6s1.6,0.9,2.1,1.6s0.9,1.5,1.1,2.6
	l-1.8,0.5c-0.2-0.8-0.5-1.4-0.8-1.9s-0.8-0.8-1.4-1.1s-1.3-0.4-2.1-0.4c-0.9,0-1.7,0.1-2.4,0.4c-0.7,0.3-1.2,0.7-1.6,1.1
	c-0.4,0.5-0.7,1-1,1.6c-0.4,1-0.6,2.1-0.6,3.2c0,1.4,0.2,2.6,0.7,3.6s1.1,1.7,2,2.1c0.9,0.5,1.8,0.7,2.8,0.7c0.9,0,1.7-0.2,2.5-0.5
	c0.8-0.4,1.4-0.7,1.9-1.1v-3L338.1,245.2L338.1,245.2L338.1,245.2L338.1,245.2z"/>
<path class="st2" d="M315,251.5l5.8-15.9h2.1l6.1,15.9h-2.3l-1.8-4.8h-6.3l-1.6,4.8H315L315,251.5z M319.3,244.9h5.1l-1.6-4.4
	c-0.5-1.3-0.8-2.4-1.1-3.3c-0.2,1-0.5,2-0.8,3L319.3,244.9L319.3,244.9L319.3,244.9z"/>
<path class="st2" d="M299.2,251.5l5.8-15.9h2.1l6.1,15.9H311l-1.8-4.8h-6.3l-1.6,4.8H299.2L299.2,251.5z M303.5,244.9h5.1l-1.6-4.4
	c-0.5-1.3-0.8-2.4-1.1-3.3c-0.2,1-0.5,2-0.8,3L303.5,244.9L303.5,244.9L303.5,244.9z"/>
<path class="st3" d="M453,191.6l2,0.5c-0.4,1.7-1.2,3-2.2,3.9s-2.4,1.4-4,1.4s-2.9-0.4-4-1c-1-0.7-1.8-1.7-2.3-3s-0.8-2.7-0.8-4.3
	c0-1.7,0.3-3.1,0.9-4.3s1.5-2.2,2.5-2.8s2.3-1,3.6-1c1.5,0,2.8,0.4,3.8,1.2s1.7,1.9,2.1,3.4l-2,0.5c-0.4-1.2-0.9-2-1.5-2.5
	s-1.5-0.8-2.5-0.8c-1.1,0-2.1,0.3-2.9,0.9c-0.8,0.6-1.3,1.4-1.6,2.4c-0.3,1-0.5,2-0.5,3.1c0,1.4,0.2,2.5,0.6,3.5s1,1.8,1.7,2.3
	c0.8,0.5,1.6,0.8,2.5,0.8c1.1,0,2-0.3,2.8-1C452.2,193.9,452.8,192.9,453,191.6L453,191.6L453,191.6z"/>
<path class="st3" d="M457.1,201.3l5.8-15.9h2.1l6.1,15.9h-2.3l-1.8-4.8h-6.3l-1.6,4.8H457.1L457.1,201.3z M461.5,194.8h5.1l-1.6-4.4
	c-0.5-1.3-0.8-2.4-1.1-3.3c-0.2,1-0.5,2-0.8,3L461.5,194.8L461.5,194.8L461.5,194.8z"/>
<path class="st3" d="M476.4,211.8v-1.9h6.4v5.9c-1,0.8-2,1.4-3,1.9c-1,0.4-2.1,0.6-3.2,0.6c-1.5,0-2.8-0.3-4-1s-2.1-1.6-2.7-2.9
	c-0.6-1.3-0.9-2.7-0.9-4.2s0.3-3,0.9-4.3s1.5-2.3,2.6-3c1.1-0.6,2.5-1,4-1c1.1,0,2.1,0.2,2.9,0.6s1.6,0.9,2.1,1.6s0.9,1.5,1.1,2.6
	l-1.8,0.5c-0.2-0.8-0.5-1.4-0.8-1.9s-0.8-0.8-1.4-1.1s-1.3-0.4-2.1-0.4c-0.9,0-1.7,0.1-2.4,0.4c-0.7,0.3-1.2,0.7-1.6,1.1
	c-0.4,0.5-0.7,1-1,1.6c-0.4,1-0.6,2.1-0.6,3.2c0,1.4,0.2,2.6,0.7,3.6s1.1,1.7,2,2.1c0.9,0.5,1.8,0.7,2.8,0.7c0.9,0,1.7-0.2,2.5-0.5
	c0.8-0.4,1.4-0.7,1.9-1.1v-3L476.4,211.8L476.4,211.8L476.4,211.8L476.4,211.8z"/>
<path class="st3" d="M495.6,202.1h2v9.2c0,1.6-0.2,2.9-0.5,3.8s-1,1.7-1.9,2.3s-2.1,0.9-3.5,0.9s-2.6-0.3-3.5-0.8s-1.5-1.2-1.9-2.2
	s-0.6-2.3-0.6-4v-9.2h2v9.2c0,1.4,0.1,2.4,0.4,3.1c0.2,0.6,0.7,1.2,1.2,1.5c0.6,0.4,1.3,0.5,2.2,0.5c1.5,0,2.5-0.4,3.1-1.1
	s0.9-2.1,0.9-4L495.6,202.1L495.6,202.1L495.6,202.1L495.6,202.1z"/>
<line class="st1" x1="491.9" y1="198.1" x2="491.9" y2="186.9"/>
<path d="M481,177.8l1.9-0.2c0.1,1,0.5,1.8,1,2.2c0.5,0.5,1.1,0.8,1.9,0.8c0.9,0,1.6-0.4,2.2-1.1c0.6-0.7,0.9-1.6,0.9-2.8
	s-0.3-2-0.9-2.6s-1.4-1-2.3-1c-0.6,0-1.1,0.1-1.6,0.4c-0.5,0.3-0.9,0.7-1.1,1.1l-1.7-0.2l1.5-8.2h7.5v1.9h-6l-0.8,4.3
	c0.9-0.7,1.9-1,2.8-1c1.3,0,2.4,0.5,3.3,1.4s1.4,2.2,1.4,3.7s-0.4,2.7-1.2,3.7c-1,1.3-2.3,1.9-4,1.9c-1.4,0-2.5-0.4-3.3-1.2
	C481.6,180.2,481.1,179.1,481,177.8L481,177.8L481,177.8z M492.7,174.1c0-1.9,0.2-3.4,0.5-4.5s0.9-2,1.6-2.6s1.6-0.9,2.7-0.9
	c0.8,0,1.5,0.2,2.1,0.5s1.1,0.8,1.5,1.5c0.4,0.6,0.7,1.4,0.9,2.4c0.2,0.9,0.3,2.2,0.3,3.8c0,1.9-0.2,3.4-0.5,4.5
	c-0.4,1.1-0.9,2-1.6,2.6s-1.6,0.9-2.7,0.9c-1.5,0-2.6-0.6-3.4-1.6C493.2,179.2,492.7,177.1,492.7,174.1L492.7,174.1L492.7,174.1z
	 M494.6,174.1c0,2.6,0.3,4.4,0.9,5.2s1.3,1.3,2.1,1.3s1.6-0.4,2.1-1.3c0.6-0.9,0.9-2.6,0.9-5.2s-0.3-4.4-0.9-5.2s-1.3-1.3-2.2-1.3
	s-1.5,0.4-2,1.1C494.9,169.7,494.6,171.5,494.6,174.1L494.6,174.1L494.6,174.1L494.6,174.1z"/>
<path class="st3" d="M512.3,195.7l2,0.5c-0.4,1.7-1.2,3-2.2,3.9s-2.4,1.4-4,1.4s-2.9-0.4-4-1c-1-0.7-1.8-1.7-2.3-3s-0.8-2.7-0.8-4.3
	c0-1.7,0.3-3.1,0.9-4.3s1.5-2.2,2.5-2.8s2.3-1,3.6-1c1.5,0,2.8,0.4,3.8,1.2s1.7,1.9,2.1,3.4l-2,0.5c-0.4-1.2-0.9-2-1.5-2.5
	s-1.5-0.8-2.5-0.8c-1.1,0-2.1,0.3-2.9,0.9c-0.8,0.6-1.3,1.4-1.6,2.4c-0.3,1-0.5,2-0.5,3.1c0,1.4,0.2,2.5,0.6,3.5s1,1.8,1.7,2.3
	c0.8,0.5,1.6,0.8,2.5,0.8c1.1,0,2-0.3,2.8-1C511.5,198.1,512,197.1,512.3,195.7L512.3,195.7L512.3,195.7z"/>
<path class="st3" d="M500.6,264l5.8-15.9h2.1l6.1,15.9h-2.3l-1.8-4.8h-6.3l-1.6,4.8H500.6z M504.9,257.5h5.1l-1.6-4.4
	c-0.5-1.3-0.8-2.4-1.1-3.3c-0.2,1-0.5,2-0.8,3L504.9,257.5L504.9,257.5L504.9,257.5z"/>
<path class="st3" d="M484.8,251.5l5.8-15.9h2.1l6.1,15.9h-2.3l-1.8-4.8h-6.3l-1.6,4.8H484.8L484.8,251.5z M489.1,244.9h5.1l-1.6-4.4
	c-0.5-1.3-0.8-2.4-1.1-3.3c-0.2,1-0.5,2-0.8,3L489.1,244.9L489.1,244.9L489.1,244.9z"/>
<path class="st3" d="M480.7,245.9l2,0.5c-0.4,1.7-1.2,3-2.2,3.9s-2.4,1.4-4,1.4s-2.9-0.4-4-1c-1-0.7-1.8-1.7-2.3-3s-0.8-2.7-0.8-4.3
	c0-1.7,0.3-3.1,0.9-4.3s1.5-2.2,2.5-2.8s2.3-1,3.6-1c1.5,0,2.8,0.4,3.8,1.2s1.7,1.9,2.1,3.4l-2,0.5c-0.4-1.2-0.9-2-1.5-2.5
	s-1.5-0.8-2.5-0.8c-1.1,0-2.1,0.3-2.9,0.9c-0.8,0.6-1.3,1.4-1.6,2.4c-0.3,1-0.5,2-0.5,3.1c0,1.4,0.2,2.5,0.6,3.5s1,1.8,1.7,2.3
	c0.8,0.5,1.6,0.8,2.5,0.8c1.1,0,2-0.3,2.8-1C479.9,248.3,480.4,247.2,480.7,245.9L480.7,245.9L480.7,245.9z"/>
<path class="st3" d="M457.1,264l5.8-15.9h2.1l6.1,15.9h-2.3l-1.8-4.8h-6.3l-1.6,4.8H457.1L457.1,264z M461.5,257.5h5.1l-1.6-4.4
	c-0.5-1.3-0.8-2.4-1.1-3.3c-0.2,1-0.5,2-0.8,3L461.5,257.5L461.5,257.5L461.5,257.5z"/>
<path class="st3" d="M453,266.8l2,0.5c-0.4,1.7-1.2,3-2.2,4s-2.4,1.4-4,1.4s-2.9-0.4-4-1c-1-0.7-1.8-1.7-2.3-3s-0.8-2.7-0.8-4.3
	c0-1.7,0.3-3.1,0.9-4.3s1.5-2.2,2.5-2.8s2.3-1,3.6-1c1.5,0,2.8,0.4,3.8,1.2c1,0.8,1.7,2,2.1,3.4l-2,0.5c-0.4-1.2-0.9-2-1.5-2.5
	s-1.5-0.8-2.5-0.8c-1.1,0-2.1,0.3-2.9,0.9s-1.3,1.4-1.6,2.4c-0.3,1-0.5,2-0.5,3c0,1.4,0.2,2.5,0.6,3.5s1,1.8,1.7,2.3
	c0.8,0.5,1.6,0.8,2.5,0.8c1.1,0,2-0.3,2.8-1C452.2,269.2,452.8,268.1,453,266.8L453,266.8L453,266.8z"/>
<path class="st4" d="M528.1,212.5l2,0.5c-0.4,1.7-1.2,3-2.2,3.9s-2.4,1.4-4,1.4s-2.9-0.4-4-1c-1-0.7-1.8-1.7-2.3-3s-0.8-2.7-0.8-4.3
	c0-1.7,0.3-3.1,0.9-4.3c0.6-1.2,1.5-2.2,2.5-2.8s2.3-1,3.6-1c1.5,0,2.8,0.4,3.8,1.2s1.7,1.9,2.1,3.4l-2,0.5c-0.3-1.2-0.8-2-1.5-2.5
	s-1.5-0.8-2.5-0.8c-1.2,0-2.1,0.3-2.9,0.9c-0.8,0.6-1.3,1.4-1.6,2.4s-0.5,2-0.5,3.1c0,1.4,0.2,2.5,0.6,3.5c0.4,1,1,1.8,1.7,2.3
	s1.6,0.8,2.5,0.8c1.1,0,2-0.3,2.8-1C527.3,214.8,527.8,213.8,528.1,212.5L528.1,212.5L528.1,212.5z"/>
<path class="st4" d="M532.2,218l5.8-15.9h2.1l6.1,15.9h-2.3l-1.8-4.8h-6.3l-1.7,4.8H532.2z M536.5,211.5h5.1l-1.6-4.4
	c-0.5-1.3-0.8-2.4-1.1-3.3c-0.2,1-0.5,2-0.8,3L536.5,211.5L536.5,211.5L536.5,211.5z"/>
<path class="st4" d="M555.3,211.8v-1.9h6.4v5.9c-1,0.8-2,1.4-3,1.9c-1,0.4-2.1,0.6-3.2,0.6c-1.5,0-2.8-0.3-4-1s-2.1-1.6-2.7-2.9
	c-0.6-1.3-0.9-2.7-0.9-4.2s0.3-3,0.9-4.3s1.5-2.3,2.6-3c1.2-0.6,2.5-1,4-1c1.1,0,2.1,0.2,2.9,0.6s1.6,0.9,2.1,1.6s0.9,1.5,1.1,2.6
	l-1.8,0.5c-0.2-0.8-0.5-1.4-0.8-1.9s-0.8-0.8-1.4-1.1s-1.3-0.4-2.1-0.4c-0.9,0-1.7,0.1-2.3,0.4c-0.7,0.3-1.2,0.7-1.6,1.1
	c-0.4,0.5-0.7,1-1,1.6c-0.4,1-0.6,2.1-0.6,3.2c0,1.4,0.2,2.6,0.7,3.6s1.1,1.7,2,2.1c0.9,0.5,1.8,0.7,2.8,0.7c0.9,0,1.7-0.2,2.5-0.5
	s1.4-0.7,1.9-1.1v-3L555.3,211.8L555.3,211.8L555.3,211.8L555.3,211.8z"/>
<path class="st4" d="M571.1,211.8v-1.9h6.4v5.9c-1,0.8-2,1.4-3,1.9c-1,0.4-2.1,0.6-3.2,0.6c-1.5,0-2.8-0.3-4-1s-2.1-1.6-2.7-2.9
	c-0.6-1.3-0.9-2.7-0.9-4.2s0.3-3,0.9-4.3s1.5-2.3,2.6-3c1.2-0.6,2.5-1,4-1c1.1,0,2.1,0.2,2.9,0.6s1.6,0.9,2.1,1.6s0.9,1.5,1.1,2.6
	l-1.8,0.5c-0.2-0.8-0.5-1.4-0.8-1.9s-0.8-0.8-1.4-1.1s-1.3-0.4-2.1-0.4c-0.9,0-1.7,0.1-2.3,0.4c-0.7,0.3-1.2,0.7-1.6,1.1
	c-0.4,0.5-0.7,1-1,1.6c-0.4,1-0.6,2.1-0.6,3.2c0,1.4,0.2,2.6,0.7,3.6s1.1,1.7,2,2.1c0.9,0.5,1.8,0.7,2.8,0.7c0.9,0,1.7-0.2,2.5-0.5
	s1.4-0.7,1.9-1.1v-3L571.1,211.8L571.1,211.8L571.1,211.8L571.1,211.8z"/>
<path class="st4" d="M586.9,211.8v-1.9h6.4v5.9c-1,0.8-2,1.4-3,1.9c-1,0.4-2.1,0.6-3.2,0.6c-1.5,0-2.8-0.3-4-1s-2.1-1.6-2.7-2.9
	c-0.6-1.3-0.9-2.7-0.9-4.2s0.3-3,0.9-4.3s1.5-2.3,2.6-3c1.2-0.6,2.5-1,4-1c1.1,0,2.1,0.2,2.9,0.6s1.6,0.9,2.1,1.6s0.9,1.5,1.1,2.6
	l-1.8,0.5c-0.2-0.8-0.5-1.4-0.8-1.9s-0.8-0.8-1.4-1.1s-1.3-0.4-2.1-0.4c-0.9,0-1.7,0.1-2.3,0.4c-0.7,0.3-1.2,0.7-1.6,1.1
	c-0.4,0.5-0.7,1-1,1.6c-0.4,1-0.6,2.1-0.6,3.2c0,1.4,0.2,2.6,0.7,3.6s1.1,1.7,2,2.1c0.9,0.5,1.8,0.7,2.8,0.7c0.9,0,1.7-0.2,2.5-0.5
	s1.4-0.7,1.9-1.1v-3L586.9,211.8L586.9,211.8L586.9,211.8L586.9,211.8z"/>
<path class="st4" d="M606.2,202.1h2v9.2c0,1.6-0.2,2.9-0.5,3.8s-1,1.7-1.8,2.3c-0.9,0.6-2.1,0.9-3.5,0.9s-2.6-0.3-3.5-0.8
	s-1.5-1.2-1.9-2.2s-0.6-2.3-0.6-4v-9.2h2v9.2c0,1.4,0.1,2.4,0.4,3.1c0.2,0.6,0.7,1.2,1.2,1.5c0.6,0.4,1.3,0.5,2.2,0.5
	c1.5,0,2.5-0.4,3.1-1.1s0.9-2.1,0.9-4L606.2,202.1L606.2,202.1L606.2,202.1L606.2,202.1z"/>
<path class="st4" d="M614.6,195.1v-1.9h6.4v5.9c-1,0.8-2,1.4-3,1.9c-1,0.4-2.1,0.6-3.2,0.6c-1.5,0-2.8-0.3-4-1s-2.1-1.6-2.7-2.9
	c-0.6-1.3-0.9-2.7-0.9-4.2s0.3-3,0.9-4.3s1.5-2.3,2.6-3c1.2-0.6,2.5-1,4-1c1.1,0,2.1,0.2,2.9,0.6s1.6,0.9,2.1,1.6s0.9,1.5,1.1,2.6
	l-1.8,0.5c-0.2-0.8-0.5-1.4-0.8-1.9s-0.8-0.8-1.4-1.1s-1.3-0.4-2.1-0.4c-0.9,0-1.7,0.1-2.3,0.4c-0.7,0.3-1.2,0.7-1.6,1.1
	c-0.4,0.5-0.7,1-1,1.6c-0.4,1-0.6,2.1-0.6,3.2c0,1.4,0.2,2.6,0.7,3.6s1.1,1.7,2,2.1c0.9,0.5,1.8,0.7,2.8,0.7c0.9,0,1.7-0.2,2.5-0.5
	s1.4-0.7,1.9-1.1v-3L614.6,195.1L614.6,195.1L614.6,195.1L614.6,195.1z"/>
<path class="st4" d="M626.9,193l5.8-15.9h2.1L641,193h-2.3l-1.8-4.8h-6.3L629,193H626.9z M631.3,186.4h5.1l-1.6-4.4
	c-0.5-1.3-0.8-2.4-1.1-3.3c-0.2,1-0.5,2-0.8,3L631.3,186.4L631.3,186.4L631.3,186.4z"/>
<path class="st4" d="M646.7,197.1l5.8-15.9h2.1l6.1,15.9h-2.3l-1.8-4.8h-6.3l-1.7,4.8H646.7z M651,190.6h5.1l-1.6-4.4
	c-0.5-1.3-0.8-2.4-1.1-3.3c-0.2,1-0.5,2-0.8,3L651,190.6L651,190.6L651,190.6z"/>
<line class="st1" x1="653.8" y1="177.2" x2="653.8" y2="166"/>
<path d="M652.4,149l-1.8,0.1c-0.2-0.8-0.4-1.3-0.7-1.7c-0.5-0.6-1.1-0.8-1.8-0.8c-0.6,0-1.1,0.2-1.5,0.5c-0.6,0.4-1,1.1-1.4,2
	s-0.5,2.1-0.5,3.7c0.5-0.7,1-1.2,1.6-1.6c0.6-0.4,1.3-0.5,2-0.5c1.2,0,2.3,0.5,3.1,1.4s1.3,2.2,1.3,3.7c0,1-0.2,1.9-0.6,2.8
	s-1,1.5-1.7,2s-1.5,0.7-2.4,0.7c-1.5,0-2.8-0.6-3.8-1.8s-1.5-3.2-1.5-5.9c0-3.1,0.5-5.3,1.6-6.7c0.9-1.2,2.2-1.8,3.8-1.8
	c1.2,0,2.2,0.4,2.9,1.1C651.8,146.8,652.3,147.8,652.4,149L652.4,149L652.4,149z M644.9,155.9c0,0.7,0.1,1.3,0.4,1.9
	c0.3,0.6,0.7,1.1,1.1,1.4c0.5,0.3,1,0.5,1.5,0.5c0.8,0,1.4-0.3,2-1s0.8-1.6,0.8-2.7s-0.3-2-0.8-2.6s-1.2-0.9-2.1-0.9
	s-1.5,0.3-2.1,0.9C645.2,154,644.9,154.8,644.9,155.9L644.9,155.9L644.9,155.9z M654.6,153.2c0-1.9,0.2-3.4,0.5-4.5s0.9-2,1.6-2.6
	c0.7-0.6,1.6-0.9,2.7-0.9c0.8,0,1.5,0.2,2.1,0.5s1.1,0.8,1.5,1.5c0.4,0.6,0.7,1.4,0.9,2.4c0.2,0.9,0.3,2.2,0.3,3.8
	c0,1.9-0.2,3.4-0.5,4.5s-0.9,2-1.6,2.6c-0.7,0.6-1.6,0.9-2.7,0.9c-1.5,0-2.6-0.6-3.4-1.6C655.1,158.3,654.6,156.2,654.6,153.2
	L654.6,153.2L654.6,153.2z M656.5,153.2c0,2.6,0.3,4.4,0.9,5.2s1.3,1.3,2.1,1.3s1.6-0.4,2.1-1.3c0.6-0.9,0.9-2.6,0.9-5.2
	s-0.3-4.4-0.9-5.2s-1.3-1.3-2.2-1.3s-1.5,0.4-2,1.1C656.8,148.8,656.5,150.6,656.5,153.2L656.5,153.2z"/>
<path class="st4" d="M669.8,203.4v-1.9h6.4v5.9c-1,0.8-2,1.4-3,1.9c-1,0.4-2.1,0.6-3.2,0.6c-1.5,0-2.8-0.3-4-1s-2.1-1.6-2.7-2.9
	c-0.6-1.3-0.9-2.7-0.9-4.2s0.3-3,0.9-4.3s1.5-2.3,2.6-3c1.2-0.6,2.5-1,4-1c1.1,0,2.1,0.2,2.9,0.6s1.6,0.9,2.1,1.6s0.9,1.5,1.1,2.6
	l-1.8,0.5c-0.2-0.8-0.5-1.4-0.8-1.9s-0.8-0.8-1.4-1.1s-1.3-0.4-2.1-0.4c-0.9,0-1.7,0.1-2.3,0.4c-0.7,0.3-1.2,0.7-1.6,1.1
	c-0.4,0.5-0.7,1-1,1.6c-0.4,1-0.6,2.1-0.6,3.2c0,1.4,0.2,2.6,0.7,3.6s1.1,1.7,2,2.1c0.9,0.5,1.8,0.7,2.8,0.7c0.9,0,1.7-0.2,2.5-0.5
	s1.4-0.7,1.9-1.1v-3L669.8,203.4L669.8,203.4L669.8,203.4L669.8,203.4z"/>
<path class="st4" d="M681.2,214.7h2v9.2c0,1.6-0.2,2.9-0.5,3.8s-1,1.7-1.8,2.3c-0.9,0.6-2.1,0.9-3.5,0.9s-2.6-0.3-3.5-0.8
	s-1.5-1.2-1.9-2.2s-0.6-2.3-0.6-4v-9.2h2v9.2c0,1.4,0.1,2.4,0.4,3.1c0.2,0.6,0.7,1.2,1.2,1.5c0.6,0.4,1.3,0.5,2.2,0.5
	c1.5,0,2.5-0.4,3.1-1.1s0.9-2.1,0.9-4L681.2,214.7L681.2,214.7L681.2,214.7L681.2,214.7z"/>
<path class="st4" d="M673.3,235.6h2v9.2c0,1.6-0.2,2.9-0.5,3.8s-1,1.7-1.8,2.3c-0.9,0.6-2.1,0.9-3.5,0.9s-2.6-0.3-3.5-0.8
	s-1.5-1.2-1.9-2.2s-0.6-2.3-0.6-4v-9.2h2v9.2c0,1.4,0.1,2.4,0.4,3.1c0.2,0.6,0.7,1.2,1.2,1.5c0.6,0.4,1.3,0.5,2.2,0.5
	c1.5,0,2.5-0.4,3.1-1.1s0.9-2.1,0.9-4L673.3,235.6L673.3,235.6L673.3,235.6L673.3,235.6z"/>
<path class="st4" d="M662.3,262.6l2,0.5c-0.4,1.7-1.2,3-2.2,4s-2.4,1.4-4,1.4s-2.9-0.4-4-1c-1-0.7-1.8-1.7-2.3-3s-0.8-2.7-0.8-4.3
	c0-1.7,0.3-3.1,0.9-4.3c0.6-1.2,1.5-2.2,2.5-2.8s2.3-1,3.6-1c1.5,0,2.8,0.4,3.8,1.2s1.7,1.9,2.1,3.4l-2,0.5c-0.3-1.2-0.8-2-1.5-2.5
	s-1.5-0.8-2.5-0.8c-1.2,0-2.1,0.3-2.9,0.9c-0.8,0.6-1.3,1.4-1.6,2.4s-0.5,2-0.5,3c0,1.4,0.2,2.5,0.6,3.5c0.4,1,1,1.8,1.7,2.3
	s1.6,0.8,2.5,0.8c1.1,0,2-0.3,2.8-1S662.1,264,662.3,262.6L662.3,262.6L662.3,262.6z"/>
<path class="st4" d="M642.6,266.8l2,0.5c-0.4,1.7-1.2,3-2.2,4s-2.4,1.4-4,1.4s-2.9-0.4-4-1c-1-0.7-1.8-1.7-2.3-3s-0.8-2.7-0.8-4.3
	c0-1.7,0.3-3.1,0.9-4.3c0.6-1.2,1.5-2.2,2.5-2.8s2.3-1,3.6-1c1.5,0,2.8,0.4,3.8,1.2c1,0.8,1.7,2,2.1,3.4l-2,0.5
	c-0.3-1.2-0.8-2-1.5-2.5s-1.5-0.8-2.5-0.8c-1.2,0-2.1,0.3-2.9,0.9s-1.3,1.4-1.6,2.4s-0.5,2-0.5,3c0,1.4,0.2,2.5,0.6,3.5
	c0.4,1,1,1.8,1.7,2.3s1.6,0.8,2.5,0.8c1.1,0,2-0.3,2.8-1S642.3,268.1,642.6,266.8L642.6,266.8L642.6,266.8z"/>
<path class="st4" d="M611.1,264l5.8-15.9h2.1l6.1,15.9h-2.3l-1.8-4.8h-6.3L613,264H611.1z M615.5,257.5h5.1l-1.6-4.4
	c-0.5-1.3-0.8-2.4-1.1-3.3c-0.2,1-0.5,2-0.8,3L615.5,257.5L615.5,257.5L615.5,257.5z"/>
<path class="st4" d="M595.3,251.5l5.8-15.9h2.1l6.1,15.9H607l-1.8-4.8h-6.3l-1.7,4.8H595.3z M599.7,244.9h5.1l-1.6-4.4
	c-0.5-1.3-0.8-2.4-1.1-3.3c-0.2,1-0.5,2-0.8,3L599.7,244.9L599.7,244.9L599.7,244.9z"/>
<path class="st4" d="M590.4,235.6h2v9.2c0,1.6-0.2,2.9-0.5,3.8s-1,1.7-1.8,2.3c-0.9,0.6-2.1,0.9-3.5,0.9s-2.6-0.3-3.5-0.8
	s-1.5-1.2-1.9-2.2s-0.6-2.3-0.6-4v-9.2h2v9.2c0,1.4,0.1,2.4,0.4,3.1c0.2,0.6,0.7,1.2,1.2,1.5c0.6,0.4,1.3,0.5,2.2,0.5
	c1.5,0,2.5-0.4,3.1-1.1s0.9-2.1,0.9-4L590.4,235.6L590.4,235.6L590.4,235.6L590.4,235.6z"/>
<path class="st4" d="M574.6,235.6h2v9.2c0,1.6-0.2,2.9-0.5,3.8s-1,1.7-1.8,2.3c-0.9,0.6-2.1,0.9-3.5,0.9s-2.6-0.3-3.5-0.8
	s-1.5-1.2-1.9-2.2s-0.6-2.3-0.6-4v-9.2h2v9.2c0,1.4,0.1,2.4,0.4,3.1c0.2,0.6,0.7,1.2,1.2,1.5c0.6,0.4,1.3,0.5,2.2,0.5
	c1.5,0,2.5-0.4,3.1-1.1s0.9-2.1,0.9-4L574.6,235.6L574.6,235.6L574.6,235.6L574.6,235.6z"/>
<path class="st4" d="M558.8,235.6h2v9.2c0,1.6-0.2,2.9-0.5,3.8s-1,1.7-1.8,2.3c-0.9,0.6-2.1,0.9-3.5,0.9s-2.6-0.3-3.5-0.8
	s-1.5-1.2-1.9-2.2s-0.6-2.3-0.6-4v-9.2h2v9.2c0,1.4,0.1,2.4,0.4,3.1c0.2,0.6,0.7,1.2,1.2,1.5c0.6,0.4,1.3,0.5,2.2,0.5
	c1.5,0,2.5-0.4,3.1-1.1s0.9-2.1,0.9-4L558.8,235.6L558.8,235.6L558.8,235.6L558.8,235.6z"/>
<line class="st1" x1="555" y1="253.8" x2="555" y2="264.9"/>
<path d="M544.3,273.8v-1.9h9.7v1.5c-1,1.1-1.9,2.5-2.8,4.3s-1.7,3.6-2.2,5.5c-0.4,1.3-0.6,2.8-0.7,4.4h-1.9c0-1.2,0.3-2.8,0.7-4.5
	s1.1-3.5,1.9-5.1c0.8-1.6,1.7-3,2.7-4.2L544.3,273.8L544.3,273.8z M555.8,279.8c0-1.9,0.2-3.4,0.5-4.5s0.9-2,1.6-2.6
	c0.7-0.6,1.6-0.9,2.7-0.9c0.8,0,1.5,0.2,2.1,0.5s1.1,0.8,1.5,1.5c0.4,0.6,0.7,1.4,0.9,2.4c0.2,0.9,0.3,2.2,0.3,3.8
	c0,1.9-0.2,3.4-0.5,4.5s-0.9,2-1.6,2.6c-0.7,0.6-1.6,0.9-2.7,0.9c-1.5,0-2.6-0.5-3.4-1.6C556.4,284.9,555.9,282.7,555.8,279.8
	L555.8,279.8L555.8,279.8z M557.7,279.8c0,2.6,0.3,4.4,0.9,5.2s1.3,1.3,2.1,1.3s1.6-0.4,2.1-1.3s0.9-2.6,0.9-5.2s-0.3-4.4-0.9-5.2
	s-1.3-1.3-2.2-1.3s-1.5,0.4-2,1.1C558.1,275.4,557.7,277.2,557.7,279.8L557.7,279.8z"/>
<path class="st4" d="M543,235.6h2v9.2c0,1.6-0.2,2.9-0.5,3.8s-1,1.7-1.8,2.3c-0.9,0.6-2.1,0.9-3.5,0.9s-2.6-0.3-3.5-0.8
	s-1.5-1.2-1.9-2.2s-0.6-2.3-0.6-4v-9.2h2v9.2c0,1.4,0.1,2.4,0.4,3.1c0.2,0.6,0.7,1.2,1.2,1.5c0.6,0.4,1.3,0.5,2.2,0.5
	c1.5,0,2.5-0.4,3.1-1.1s0.9-2.1,0.9-4L543,235.6L543,235.6L543,235.6L543,235.6z"/>
<path class="st4" d="M523.8,245.2v-1.9h6.4v5.9c-1,0.8-2,1.4-3,1.9c-1,0.4-2.1,0.6-3.2,0.6c-1.5,0-2.8-0.3-4-1s-2.1-1.6-2.7-2.9
	c-0.6-1.3-0.9-2.7-0.9-4.2s0.3-3,0.9-4.3s1.5-2.3,2.6-3c1.2-0.6,2.5-1,4-1c1.1,0,2.1,0.2,2.9,0.6s1.6,0.9,2.1,1.6s0.9,1.5,1.1,2.6
	l-1.8,0.5c-0.2-0.8-0.5-1.4-0.8-1.9s-0.8-0.8-1.4-1.1s-1.3-0.4-2.1-0.4c-0.9,0-1.7,0.1-2.3,0.4c-0.7,0.3-1.2,0.7-1.6,1.1
	c-0.4,0.5-0.7,1-1,1.6c-0.4,1-0.6,2.1-0.6,3.2c0,1.4,0.2,2.6,0.7,3.6s1.1,1.7,2,2.1c0.9,0.5,1.8,0.7,2.8,0.7c0.9,0,1.7-0.2,2.5-0.5
	s1.4-0.7,1.9-1.1v-3L523.8,245.2L523.8,245.2L523.8,245.2L523.8,245.2z"/>
<line class="st5" x1="306.2" y1="218.4" x2="306.2" y2="234.7"/>
<line class="st5" x1="321.9" y1="218.4" x2="321.9" y2="234.7"/>
<line class="st5" x1="337.9" y1="218.4" x2="337.9" y2="234.7"/>
<line class="st5" x1="354.1" y1="218.4" x2="354.1" y2="234.7"/>
<line class="st5" x1="369.3" y1="218.4" x2="369.3" y2="234.7"/>
<line class="st5" x1="385.7" y1="218.4" x2="385.7" y2="234.7"/>
<line class="st5" x1="401.5" y1="218.4" x2="401.5" y2="234.7"/>
<line class="st5" x1="476.5" y1="219.1" x2="476.5" y2="235.3"/>
<line class="st5" x1="491.7" y1="218.2" x2="491.7" y2="234.4"/>
<line class="st5" x1="524.4" y1="218.5" x2="524.4" y2="234.7"/>
<line class="st5" x1="540" y1="218.5" x2="540" y2="234.7"/>
<line class="st5" x1="555.5" y1="218.5" x2="555.5" y2="234.7"/>
<line class="st5" x1="571.1" y1="218.5" x2="571.1" y2="234.7"/>
<line class="st5" x1="586.7" y1="218.5" x2="586.7" y2="234.7"/>
<line class="st5" x1="602.2" y1="218.5" x2="602.2" y2="234.7"/>
<line class="st5" x1="247.6" y1="117.7" x2="231.6" y2="117.7"/>
<line class="st5" x1="247.6" y1="135" x2="231.6" y2="135"/>
<line class="st5" x1="247.6" y1="151.1" x2="231.6" y2="151.1"/>
<line class="st5" x1="247.6" y1="167.1" x2="231.6" y2="167.1"/>
<line class="st5" x1="247.6" y1="184.6" x2="231.6" y2="184.6"/>
<line class="st5" x1="247.6" y1="202.6" x2="231.6" y2="202.6"/>
<line class="st5" x1="247.6" y1="218.3" x2="231.6" y2="218.3"/>
<line class="st5" x1="247.6" y1="244.9" x2="231.6" y2="244.9"/>
<line class="st5" x1="247.6" y1="259.4" x2="231.6" y2="259.4"/>
<line class="st5" x1="247.6" y1="278.4" x2="231.6" y2="278.4"/>
<line class="st5" x1="247.6" y1="293.7" x2="231.6" y2="293.7"/>
<line class="st5" x1="247.6" y1="310.1" x2="231.6" y2="310.1"/>
<line class="st5" x1="247.6" y1="325.9" x2="231.6" y2="325.9"/>
<line class="st1" x1="297.3" y1="244.5" x2="265.9" y2="244.5"/>
<g>
	<g>
		<text transform="matrix(1 0 0 1 324.4466 44.8393)" class="st6 st7">D16-05 aptamer</text>
	</g>
</g>
<g>
	<text transform="matrix(1 0 0 1 84.81 334.56)" class="st6 st8">5</text>
	<text transform="matrix(1 0 0 1 97.05 334.56)" class="st6 st8">’</text>
</g>
<g>
	<text transform="matrix(1 0 0 1 410.8 337.39)" class="st6 st8">3</text>
	<text transform="matrix(1 0 0 1 423.04 337.39)" class="st6 st8">’</text>
</g>
<path d="M277.7,249l2.2-2.3l2.3-0.9l2.4-0.5l4.7-1.4l-4.8-0.7L282,243l-2.4-0.5l-2.5-1.9L277.7,249L277.7,249L277.7,249z"/>
</svg>
