<?xml version="1.0" encoding="UTF-8"?>
<svg id="_图层_1" data-name=" 图层 1" xmlns="http://www.w3.org/2000/svg" viewBox="0 0 800 400">
  <defs>
    <style>
      .cls-1 {
        stroke-width: .14px;
      }

      .cls-1, .cls-2, .cls-3, .cls-4, .cls-5 {
        stroke: #000;
        stroke-miterlimit: 1.11;
      }

      .cls-6, .cls-7, .cls-8, .cls-9, .cls-10, .cls-11, .cls-12, .cls-13, .cls-14, .cls-15 {
        isolation: isolate;
      }

      .cls-6, .cls-7, .cls-8, .cls-9, .cls-10, .cls-11, .cls-13, .cls-14, .cls-15 {
        font-family: ArialMT, Arial;
      }

      .cls-6, .cls-15 {
        font-size: 20px;
      }

      .cls-2, .cls-5 {
        fill: none;
      }

      .cls-7, .cls-8, .cls-9, .cls-10, .cls-11, .cls-13, .cls-14 {
        font-size: 16.21px;
      }

      .cls-7, .cls-10, .cls-3 {
        fill: #b83233;
      }

      .cls-8, .cls-10, .cls-13 {
        letter-spacing: -.06em;
      }

      .cls-8, .cls-11 {
        fill: #084595;
      }

      .cls-9, .cls-13 {
        fill: #18988c;
      }

      .cls-3, .cls-5 {
        stroke-width: .89px;
      }

      .cls-15 {
        letter-spacing: -.04em;
      }
    </style>
  </defs>
  <g id="ID000002">
    <g class="cls-12">
      <text class="cls-7" transform="translate(53.08 257.84)"><tspan x="0" y="0">U</tspan></text>
    </g>
  </g>
  <g id="ID000003">
    <g class="cls-12">
      <text class="cls-7" transform="translate(69.12 257.84)"><tspan x="0" y="0">C</tspan></text>
    </g>
  </g>
  <g id="ID000004">
    <g class="cls-12">
      <text class="cls-7" transform="translate(84.71 257.84)"><tspan x="0" y="0">G</tspan></text>
    </g>
  </g>
  <g id="ID000005">
    <g class="cls-12">
      <text class="cls-7" transform="translate(100.75 257.84)"><tspan x="0" y="0">G</tspan></text>
    </g>
  </g>
  <g id="ID000006">
    <g class="cls-12">
      <text class="cls-10" transform="translate(117.68 257.84)"><tspan x="0" y="0">A</tspan></text>
    </g>
  </g>
  <g id="ID000007">
    <g class="cls-12">
      <text class="cls-7" transform="translate(132.82 257.84)"><tspan x="0" y="0">G</tspan></text>
    </g>
  </g>
  <g id="ID000008">
    <g class="cls-12">
      <text class="cls-10" transform="translate(149.76 257.84)"><tspan x="0" y="0">A</tspan></text>
    </g>
  </g>
  <g id="ID000009">
    <g class="cls-12">
      <text class="cls-10" transform="translate(165.8 257.84)"><tspan x="0" y="0">A</tspan></text>
    </g>
  </g>
  <g id="ID000010">
    <g class="cls-12">
      <text class="cls-10" transform="translate(181.84 257.84)"><tspan x="0" y="0">A</tspan></text>
    </g>
  </g>
  <g id="ID000011">
    <g class="cls-12">
      <text class="cls-7" transform="translate(196.98 257.84)"><tspan x="0" y="0">G</tspan></text>
    </g>
  </g>
  <g id="ID000012">
    <line class="cls-2" x1="203.28" y1="261.32" x2="203.28" y2="272.01"/>
  </g>
  <g id="ID000013">
    <g class="cls-12">
      <text class="cls-14" transform="translate(194.27 290.93)"><tspan x="0" y="0">10</tspan></text>
    </g>
  </g>
  <g id="ID000014">
    <g class="cls-12">
      <text class="cls-7" transform="translate(181.39 225.76)"><tspan x="0" y="0">C</tspan></text>
    </g>
  </g>
  <g id="ID000015">
    <g class="cls-12">
      <text class="cls-7" transform="translate(164.9 225.76)"><tspan x="0" y="0">G</tspan></text>
    </g>
  </g>
  <g id="ID000016">
    <g class="cls-12">
      <text class="cls-7" transform="translate(148.86 225.76)"><tspan x="0" y="0">G</tspan></text>
    </g>
  </g>
  <g id="ID000017">
    <g class="cls-12">
      <text class="cls-10" transform="translate(133.72 225.76)"><tspan x="0" y="0">A</tspan></text>
    </g>
  </g>
  <g id="ID000018">
    <g class="cls-12">
      <text class="cls-7" transform="translate(117.24 225.76)"><tspan x="0" y="0">U</tspan></text>
    </g>
  </g>
  <g id="ID000019">
    <g class="cls-12">
      <text class="cls-7" transform="translate(101.2 225.76)"><tspan x="0" y="0">C</tspan></text>
    </g>
  </g>
  <g id="ID000020">
    <g class="cls-12">
      <text class="cls-7" transform="translate(85.16 225.76)"><tspan x="0" y="0">C</tspan></text>
    </g>
  </g>
  <g id="ID000021">
    <g class="cls-12">
      <text class="cls-7" transform="translate(68.67 225.76)"><tspan x="0" y="0">G</tspan></text>
    </g>
  </g>
  <g id="ID000022">
    <g class="cls-12">
      <text class="cls-10" transform="translate(53.53 225.76)"><tspan x="0" y="0">A</tspan></text>
    </g>
  </g>
  <g id="ID000023">
    <g class="cls-12">
      <text class="cls-7" transform="translate(37.04 225.76)"><tspan x="0" y="0">U</tspan></text>
    </g>
  </g>
  <g id="ID000024">
    <line class="cls-2" x1="42.89" y1="207.85" x2="42.89" y2="197.16"/>
  </g>
  <g id="ID000025">
    <g class="cls-12">
      <text class="cls-14" transform="translate(33.88 193.15)"><tspan x="0" y="0">90</tspan></text>
    </g>
  </g>
  <g id="ID000026">
    <g class="cls-12">
      <text class="cls-7" transform="translate(21 225.76)"><tspan x="0" y="0">C</tspan></text>
    </g>
  </g>
  <g id="ID000027">
    <line class="cls-2" x1="58.93" y1="246.21" x2="58.93" y2="226.96"/>
  </g>
  <g id="ID000028">
    <line class="cls-2" x1="74.97" y1="246.21" x2="74.97" y2="226.96"/>
  </g>
  <g id="ID000029">
    <line class="cls-2" x1="91.01" y1="246.21" x2="91.01" y2="226.96"/>
  </g>
  <g id="ID000030">
    <line class="cls-2" x1="107.05" y1="246.21" x2="107.05" y2="226.96"/>
  </g>
  <g id="ID000031">
    <line class="cls-2" x1="123.09" y1="246.21" x2="123.09" y2="226.96"/>
  </g>
  <g id="ID000033">
    <g class="cls-12">
      <text class="cls-7" transform="translate(213.02 257.84)"><tspan x="0" y="0">G</tspan></text>
    </g>
  </g>
  <g id="ID000034">
    <g class="cls-12">
      <text class="cls-7" transform="translate(229.06 257.84)"><tspan x="0" y="0">G</tspan></text>
    </g>
  </g>
  <g id="ID000035">
    <g class="cls-12">
      <text class="cls-10" transform="translate(246 257.84)"><tspan x="0" y="0">A</tspan></text>
    </g>
  </g>
  <g id="ID000036">
    <g class="cls-12">
      <text class="cls-10" transform="translate(262.04 257.84)"><tspan x="0" y="0">A</tspan></text>
    </g>
  </g>
  <g id="ID000037">
    <g class="cls-12">
      <text class="cls-7" transform="translate(277.18 257.84)"><tspan x="0" y="0">G</tspan></text>
    </g>
  </g>
  <g id="ID000038">
    <g class="cls-12">
      <text class="cls-7" transform="translate(293.67 257.84)"><tspan x="0" y="0">C</tspan></text>
    </g>
  </g>
  <g id="ID000039">
    <g class="cls-12">
      <text class="cls-7" transform="translate(309.71 257.84)"><tspan x="0" y="0">U</tspan></text>
    </g>
  </g>
  <g id="ID000040">
    <g class="cls-12">
      <text class="cls-7" transform="translate(325.75 257.84)"><tspan x="0" y="0">U</tspan></text>
    </g>
  </g>
  <g id="ID000041">
    <g class="cls-12">
      <text class="cls-7" transform="translate(341.33 257.84)"><tspan x="0" y="0">G</tspan></text>
    </g>
  </g>
  <g id="ID000042">
    <g class="cls-12">
      <text class="cls-8" transform="translate(358.27 257.84)"><tspan x="0" y="0">A</tspan></text>
    </g>
  </g>
  <g id="ID000043">
    <line class="cls-2" x1="363.68" y1="261.32" x2="363.68" y2="272.01"/>
  </g>
  <g id="ID000044">
    <g class="cls-12">
      <text class="cls-14" transform="translate(354.66 290.93)"><tspan x="0" y="0">20</tspan></text>
    </g>
  </g>
  <g id="ID000045">
    <g class="cls-12">
      <text class="cls-11" transform="translate(373.41 257.84)"><tspan x="0" y="0">G</tspan></text>
    </g>
  </g>
  <g id="ID000046">
    <g class="cls-12">
      <text class="cls-11" transform="translate(393.91 257.84)"><tspan x="0" y="0">C</tspan></text>
    </g>
  </g>
  <g id="ID000047">
    <g class="cls-12">
      <text class="cls-11" transform="translate(421.53 142.57)"><tspan x="0" y="0">G</tspan></text>
    </g>
  </g>
  <g id="ID000048">
    <g class="cls-12">
      <text class="cls-8" transform="translate(403.38 143.57)"><tspan x="0" y="0">A</tspan></text>
    </g>
  </g>
  <g id="ID000049">
    <g class="cls-12">
      <text class="cls-8" transform="translate(386.34 149.58)"><tspan x="0" y="0">A</tspan></text>
    </g>
  </g>
  <g id="ID000050">
    <g class="cls-12">
      <text class="cls-11" transform="translate(370.35 166.21)"><tspan x="0" y="0">G</tspan></text>
    </g>
  </g>
  <g id="ID000051">
    <g class="cls-12">
      <text class="cls-11" transform="translate(361.38 185.67)"><tspan x="0" y="0">G</tspan></text>
    </g>
  </g>
  <g id="ID000052">
    <line class="cls-2" x1="360.12" y1="170.89" x2="352.56" y2="163.33"/>
  </g>
  <g id="ID000053">
    <g class="cls-12">
      <text class="cls-14" transform="translate(334.54 159.32)"><tspan x="0" y="0">70</tspan></text>
    </g>
  </g>
  <g id="ID000054">
    <g class="cls-12">
      <text class="cls-8" transform="translate(358.27 205.71)"><tspan x="0" y="0">A</tspan></text>
    </g>
  </g>
  <g id="ID000055">
    <g class="cls-12">
      <text class="cls-8" transform="translate(358.27 225.76)"><tspan x="0" y="0">A</tspan></text>
    </g>
  </g>
  <g id="ID000056">
    <g class="cls-12">
      <text class="cls-7" transform="translate(341.79 225.76)"><tspan x="0" y="0">C</tspan></text>
    </g>
  </g>
  <g id="ID000057">
    <g class="cls-12">
      <text class="cls-7" transform="translate(325.29 225.76)"><tspan x="0" y="0">G</tspan></text>
    </g>
  </g>
  <g id="ID000058">
    <g class="cls-12">
      <text class="cls-10" transform="translate(310.15 225.76)"><tspan x="0" y="0">A</tspan></text>
    </g>
  </g>
  <g id="ID000059">
    <g class="cls-12">
      <text class="cls-7" transform="translate(293.22 225.76)"><tspan x="0" y="0">G</tspan></text>
    </g>
  </g>
  <g id="ID000060">
    <g class="cls-12">
      <text class="cls-7" transform="translate(277.63 225.76)"><tspan x="0" y="0">C</tspan></text>
    </g>
  </g>
  <g id="ID000061">
    <g class="cls-12">
      <text class="cls-7" transform="translate(261.14 225.76)"><tspan x="0" y="0">G</tspan></text>
    </g>
  </g>
  <g id="ID000062">
    <g class="cls-12">
      <text class="cls-7" transform="translate(245.55 225.76)"><tspan x="0" y="0">U</tspan></text>
    </g>
  </g>
  <g id="ID000063">
    <g class="cls-12">
      <text class="cls-10" transform="translate(229.96 225.76)"><tspan x="0" y="0">A</tspan></text>
    </g>
  </g>
  <g id="ID000064">
    <line class="cls-2" x1="235.36" y1="207.85" x2="235.36" y2="197.16"/>
  </g>
  <g id="ID000065">
    <g class="cls-12">
      <text class="cls-14" transform="translate(226.35 193.15)"><tspan x="0" y="0">80</tspan></text>
    </g>
  </g>
  <g id="ID000066">
    <line class="cls-2" x1="283.48" y1="246.21" x2="283.48" y2="226.96"/>
  </g>
  <g id="ID000067">
    <line class="cls-2" x1="299.52" y1="246.21" x2="299.52" y2="226.96"/>
  </g>
  <g id="ID000068">
    <line class="cls-2" x1="315.56" y1="246.21" x2="315.56" y2="226.96"/>
  </g>
  <g id="ID000069">
    <polygon class="cls-4" points="331.6 233.38 331.39 233.38 331.19 233.4 330.99 233.43 330.79 233.48 330.6 233.54 330.41 233.61 330.22 233.69 330.04 233.78 329.86 233.89 329.7 234 329.53 234.13 329.38 234.26 329.24 234.41 329.11 234.56 328.98 234.72 328.87 234.89 328.77 235.07 328.68 235.25 328.6 235.44 328.53 235.63 328.48 235.83 328.44 236.03 328.41 236.23 328.39 236.43 328.39 236.63 328.4 236.84 328.42 237.04 328.46 237.24 328.5 237.44 328.57 237.63 328.64 237.82 328.72 238.01 328.82 238.19 328.93 238.36 329.04 238.53 329.17 238.68 329.31 238.83 329.46 238.98 329.61 239.11 329.78 239.23 329.95 239.34 330.13 239.44 330.31 239.52 330.5 239.6 330.69 239.66 330.89 239.71 331.09 239.75 331.29 239.78 331.49 239.79 331.7 239.79 331.9 239.78 332.1 239.75 332.3 239.71 332.5 239.66 332.69 239.6 332.88 239.52 333.07 239.44 333.24 239.34 333.42 239.23 333.58 239.11 333.74 238.98 333.88 238.83 334.02 238.68 334.15 238.53 334.27 238.36 334.37 238.19 334.47 238.01 334.56 237.82 334.63 237.63 334.69 237.44 334.74 237.24 334.77 237.04 334.79 236.84 334.8 236.63 334.8 236.43 334.78 236.23 334.76 236.03 334.71 235.83 334.66 235.63 334.59 235.44 334.51 235.25 334.42 235.07 334.32 234.89 334.21 234.72 334.09 234.56 333.95 234.41 333.81 234.26 333.66 234.13 333.5 234 333.33 233.89 333.16 233.78 332.98 233.69 332.79 233.61 332.6 233.54 332.4 233.48 332.2 233.43 332 233.4 331.8 233.38 331.6 233.38"/>
  </g>
  <g id="ID000070">
    <line class="cls-2" x1="347.64" y1="246.21" x2="347.64" y2="226.96"/>
  </g>
  <g id="ID000072">
    <g class="cls-12">
      <text class="cls-8" transform="translate(414.41 257.84)"><tspan x="0" y="0">A</tspan></text>
    </g>
  </g>
  <g id="ID000083">
    <g class="cls-12">
      <text class="cls-8" transform="translate(478.57 225.76)"><tspan x="0" y="0">A</tspan></text>
    </g>
  </g>
  <g id="ID000084">
    <line class="cls-2" x1="476.92" y1="220.66" x2="466.23" y2="220.66"/>
  </g>
  <g id="ID000085">
    <g class="cls-12">
      <text class="cls-14" transform="translate(445.71 226.34)"><tspan x="0" y="0">60</tspan></text>
    </g>
  </g>
  <g id="ID000086">
    <g class="cls-12">
      <text class="cls-8" transform="translate(478.57 209.72)"><tspan x="0" y="0">A</tspan></text>
    </g>
  </g>
  <g id="ID000087">
    <g class="cls-12">
      <text class="cls-8" transform="translate(474.56 189.67)"><tspan x="0" y="0">A</tspan></text>
    </g>
  </g>
  <g id="ID000088">
    <g class="cls-12">
      <text class="cls-11" transform="translate(465.64 173.64)"><tspan x="0" y="0">G</tspan></text>
    </g>
  </g>
  <g id="ID000089">
    <g class="cls-12">
      <text class="cls-8" transform="translate(458.52 157.6)"><tspan x="0" y="0">A</tspan></text>
    </g>
  </g>
  <g id="ID000090">
    <g class="cls-12">
      <text class="cls-8" transform="translate(441.19 146.36)"><tspan x="0" y="0">A</tspan></text>
    </g>
  </g>
  <g id="ID000130">
    <g class="cls-12">
      <text class="cls-14" transform="translate(637.94 192.92)"><tspan x="0" y="0">50</tspan></text>
    </g>
  </g>
  <g id="ID000073">
    <g class="cls-12">
      <text class="cls-11" transform="translate(474.72 257.84)"><tspan x="0" y="0">G</tspan></text>
    </g>
  </g>
  <g id="ID000074">
    <g class="cls-12">
      <text class="cls-9" transform="translate(491.21 257.84)"><tspan x="0" y="0">C</tspan></text>
    </g>
  </g>
  <g id="ID000075">
    <g class="cls-12">
      <text class="cls-13" transform="translate(507.69 257.84)"><tspan x="0" y="0">A</tspan></text>
    </g>
  </g>
  <g id="ID000076">
    <g class="cls-12">
      <text class="cls-9" transform="translate(522.83 257.84)"><tspan x="0" y="0">G</tspan></text>
    </g>
  </g>
  <g id="ID000077">
    <g class="cls-12">
      <text class="cls-9" transform="translate(538.87 257.84)"><tspan x="0" y="0">G</tspan></text>
    </g>
  </g>
  <g id="ID000078">
    <g class="cls-12">
      <text class="cls-13" transform="translate(551.8 273.88)"><tspan x="0" y="0">A</tspan></text>
    </g>
  </g>
  <g id="ID000079">
    <g class="cls-12">
      <text class="cls-13" transform="translate(539.77 225.76)"><tspan x="0" y="0">A</tspan></text>
    </g>
  </g>
  <g id="ID000080">
    <g class="cls-12">
      <text class="cls-9" transform="translate(523.28 225.76)"><tspan x="0" y="0">U</tspan></text>
    </g>
  </g>
  <g id="ID000081">
    <g class="cls-12">
      <text class="cls-9" transform="translate(507.24 225.76)"><tspan x="0" y="0">U</tspan></text>
    </g>
  </g>
  <g id="ID000082">
    <g class="cls-12">
      <text class="cls-9" transform="translate(490.76 225.76)"><tspan x="0" y="0">G</tspan></text>
    </g>
  </g>
  <g id="ID000091">
    <line class="cls-2" x1="497.06" y1="246.21" x2="497.06" y2="226.96"/>
  </g>
  <g id="ID000092">
    <line class="cls-2" x1="513.1" y1="246.21" x2="513.1" y2="226.96"/>
  </g>
  <g id="ID000093">
    <polygon class="cls-4" points="529.14 233.38 528.93 233.38 528.73 233.4 528.53 233.43 528.33 233.48 528.13 233.54 527.94 233.61 527.76 233.69 527.58 233.78 527.4 233.89 527.23 234 527.07 234.13 526.92 234.26 526.78 234.41 526.65 234.56 526.52 234.72 526.41 234.89 526.31 235.07 526.22 235.25 526.14 235.44 526.07 235.63 526.02 235.83 525.98 236.03 525.95 236.23 525.93 236.43 525.93 236.63 525.94 236.84 525.96 237.04 526 237.24 526.04 237.44 526.1 237.63 526.18 237.82 526.26 238.01 526.36 238.19 526.46 238.36 526.58 238.53 526.71 238.68 526.85 238.83 527 238.98 527.15 239.11 527.32 239.23 527.49 239.34 527.67 239.44 527.85 239.52 528.04 239.6 528.23 239.66 528.43 239.71 528.63 239.75 528.83 239.78 529.03 239.79 529.24 239.79 529.44 239.78 529.64 239.75 529.84 239.71 530.04 239.66 530.23 239.6 530.42 239.52 530.61 239.44 530.78 239.34 530.95 239.23 531.12 239.11 531.27 238.98 531.42 238.83 531.56 238.68 531.69 238.53 531.81 238.36 531.91 238.19 532.01 238.01 532.09 237.82 532.17 237.63 532.23 237.44 532.28 237.24 532.31 237.04 532.33 236.84 532.34 236.63 532.34 236.43 532.32 236.23 532.29 236.03 532.25 235.83 532.2 235.63 532.13 235.44 532.05 235.25 531.96 235.07 531.86 234.89 531.75 234.72 531.62 234.56 531.49 234.41 531.35 234.26 531.2 234.13 531.04 234 530.87 233.89 530.7 233.78 530.51 233.69 530.33 233.61 530.14 233.54 529.94 233.48 529.74 233.43 529.54 233.4 529.34 233.38 529.14 233.38"/>
  </g>
  <g id="ID000095">
    <g class="cls-12">
      <text class="cls-9" transform="translate(558.92 257.84)"><tspan x="0" y="0">G</tspan></text>
    </g>
  </g>
  <g id="ID000096">
    <line class="cls-2" x1="565.22" y1="261.32" x2="565.22" y2="272.01"/>
  </g>
  <g id="ID000097">
    <g class="cls-12">
      <text class="cls-14" transform="translate(557.3 288.92)"><tspan x="0" y="0">30</tspan></text>
    </g>
  </g>
  <g id="ID000098">
    <g class="cls-12">
      <text class="cls-9" transform="translate(574.96 257.84)"><tspan x="0" y="0">G</tspan></text>
    </g>
  </g>
  <g id="ID000099">
    <g class="cls-12">
      <text class="cls-9" transform="translate(591 257.84)"><tspan x="0" y="0">G</tspan></text>
    </g>
  </g>
  <g id="ID000100">
    <g class="cls-12">
      <text class="cls-9" transform="translate(607.49 257.84)"><tspan x="0" y="0">C</tspan></text>
    </g>
  </g>
  <g id="ID000101">
    <g class="cls-12">
      <text class="cls-9" transform="translate(623.53 257.84)"><tspan x="0" y="0">C</tspan></text>
    </g>
  </g>
  <g id="ID000102">
    <g class="cls-12">
      <text class="cls-13" transform="translate(623.97 225.76)"><tspan x="0" y="0">A</tspan></text>
    </g>
  </g>
  <g id="ID000103">
    <g class="cls-12">
      <text class="cls-9" transform="translate(607.04 225.76)"><tspan x="0" y="0">G</tspan></text>
    </g>
  </g>
  <g id="ID000104">
    <g class="cls-12">
      <text class="cls-9" transform="translate(591.45 225.76)"><tspan x="0" y="0">C</tspan></text>
    </g>
  </g>
  <g id="ID000105">
    <g class="cls-12">
      <text class="cls-9" transform="translate(575.41 225.76)"><tspan x="0" y="0">C</tspan></text>
    </g>
  </g>
  <g id="ID000106">
    <g class="cls-12">
      <text class="cls-9" transform="translate(558.92 225.76)"><tspan x="0" y="0">G</tspan></text>
    </g>
  </g>
  <g id="ID000107">
    <line class="cls-2" x1="581.26" y1="246.21" x2="581.26" y2="226.96"/>
  </g>
  <g id="ID000108">
    <line class="cls-2" x1="597.3" y1="246.21" x2="597.3" y2="226.96"/>
  </g>
  <g id="ID000109">
    <line class="cls-2" x1="613.34" y1="246.21" x2="613.34" y2="226.96"/>
  </g>
  <g id="ID000111">
    <g class="cls-12">
      <text class="cls-9" transform="translate(639.12 257.84)"><tspan x="0" y="0">G</tspan></text>
    </g>
  </g>
  <g id="ID000112">
    <g class="cls-12">
      <text class="cls-9" transform="translate(655.16 257.84)"><tspan x="0" y="0">G</tspan></text>
    </g>
  </g>
  <g id="ID000113">
    <g class="cls-12">
      <text class="cls-9" transform="translate(671.65 257.84)"><tspan x="0" y="0">C</tspan></text>
    </g>
  </g>
  <g id="ID000114">
    <g class="cls-12">
      <text class="cls-9" transform="translate(687.24 257.84)"><tspan x="0" y="0">G</tspan></text>
    </g>
  </g>
  <g id="ID000115">
    <g class="cls-12">
      <text class="cls-9" transform="translate(703.73 257.84)"><tspan x="0" y="0">U</tspan></text>
    </g>
  </g>
  <g id="ID000116">
    <g class="cls-12">
      <text class="cls-9" transform="translate(719.76 257.84)"><tspan x="0" y="0">U</tspan></text>
    </g>
  </g>
  <g id="ID000117">
    <line class="cls-2" x1="725.61" y1="261.32" x2="725.61" y2="272.01"/>
  </g>
  <g id="ID000118">
    <g class="cls-12">
      <text class="cls-14" transform="translate(715.93 287.13)"><tspan x="0" y="0">40</tspan></text>
    </g>
  </g>
  <g id="ID000119">
    <g class="cls-12">
      <text class="cls-13" transform="translate(736.25 257.84)"><tspan x="0" y="0">A</tspan></text>
    </g>
  </g>
  <g id="ID000120">
    <g class="cls-12">
      <text class="cls-9" transform="translate(751.39 249.82)"><tspan x="0" y="0">G</tspan></text>
    </g>
  </g>
  <g id="ID000121">
    <g class="cls-12">
      <text class="cls-9" transform="translate(751.39 229.77)"><tspan x="0" y="0">G</tspan></text>
    </g>
  </g>
  <g id="ID000122">
    <g class="cls-12">
      <text class="cls-9" transform="translate(735.35 225.76)"><tspan x="0" y="0">G</tspan></text>
    </g>
  </g>
  <g id="ID000123">
    <g class="cls-12">
      <text class="cls-9" transform="translate(719.76 225.76)"><tspan x="0" y="0">U</tspan></text>
    </g>
  </g>
  <g id="ID000124">
    <g class="cls-12">
      <text class="cls-9" transform="translate(703.73 225.76)"><tspan x="0" y="0">U</tspan></text>
    </g>
  </g>
  <g id="ID000125">
    <g class="cls-12">
      <text class="cls-13" transform="translate(688.13 225.76)"><tspan x="0" y="0">A</tspan></text>
    </g>
  </g>
  <g id="ID000126">
    <g class="cls-12">
      <text class="cls-9" transform="translate(671.19 225.76)"><tspan x="0" y="0">G</tspan></text>
    </g>
  </g>
  <g id="ID000127">
    <g class="cls-12">
      <text class="cls-9" transform="translate(655.61 225.76)"><tspan x="0" y="0">C</tspan></text>
    </g>
  </g>
  <g id="ID000128">
    <g class="cls-12">
      <text class="cls-9" transform="translate(639.12 225.76)"><tspan x="0" y="0">G</tspan></text>
    </g>
  </g>
  <g id="ID000129">
    <line class="cls-2" x1="645.42" y1="207.85" x2="645.42" y2="197.16"/>
  </g>
  <g id="ID000131">
    <line class="cls-2" x1="661.46" y1="246.21" x2="661.46" y2="226.96"/>
  </g>
  <g id="ID000132">
    <line class="cls-2" x1="677.5" y1="246.21" x2="677.5" y2="226.96"/>
  </g>
  <g id="ID000134">
    <line class="cls-3" x1="228.95" y1="218.55" x2="193.66" y2="218.55"/>
  </g>
  <g id="ID000135">
    <polygon class="cls-1" points="216.65 223.36 213.98 220.95 211.3 220.15 208.63 219.75 203.28 218.55 208.63 217.34 211.3 216.94 213.98 216.14 216.65 213.73 216.65 223.36"/>
  </g>
  <g id="ID000136">
    <line class="cls-5" x1="426.23" y1="250.62" x2="476.19" y2="250.62"/>
  </g>
  <g id="ID000137">
    <polygon class="cls-1" points="442.03 245.66 444.7 248.06 447.38 248.87 450.05 249.27 455.4 250.47 450.05 251.67 447.38 252.07 444.7 252.88 442.03 255.28 442.03 245.66"/>
  </g>
  <g class="cls-12">
    <text class="cls-6" transform="translate(40.61 282.31)"><tspan x="0" y="0">5</tspan></text>
    <text class="cls-15" transform="translate(51.73 282.31)"><tspan x="0" y="0">’</tspan></text>
  </g>
  <g class="cls-12">
    <text class="cls-6" transform="translate(8.3 210.2)"><tspan x="0" y="0">3</tspan></text>
    <text class="cls-15" transform="translate(19.42 210.2)"><tspan x="0" y="0">’</tspan></text>
  </g>
  <g class="cls-12">
    <text class="cls-6" transform="translate(357.72 57.06)"><tspan x="0" y="0" xml:space="preserve">DP3  aptamer</tspan></text>
  </g>
</svg>