<?xml version="1.0" encoding="utf-8"?>
<!-- Generator: Adobe Illustrator 25.2.0, SVG Export Plug-In . SVG Version: 6.00 Build 0)  -->
<svg version="1.1" id="图层_1" xmlns="http://www.w3.org/2000/svg" xmlns:xlink="http://www.w3.org/1999/xlink" x="0px" y="0px"
	 viewBox="0 0 400 400" style="enable-background:new 0 0 400 400;" xml:space="preserve">
<style type="text/css">
	.st0{fill:#0066CC;}
	.st1{font-family:'ArialMT';}
	.st2{font-size:8.2856px;}
	.st3{fill:#FF870A;}
	.st4{fill:none;stroke:#000000;stroke-width:0.14;stroke-miterlimit:1.11;}
	.st5{font-size:8.4871px;}
	.st6{fill:#80DB9E;}
	.st7{fill:#9933CC;}
	.st8{font-size:7.4262px;}
	.st9{fill:#33CC33;}
	.st10{font-size:20px;}
	.st11{font-size:10.6089px;}
</style>
<g id="ID000002">
	<text transform="matrix(1 0 0 1 184.1294 279.0459)" class="st0 st1 st2">A</text>
</g>
<g id="ID000003">
	<text transform="matrix(1 0 0 1 192.3511 274.8232)" class="st3 st1 st2">U</text>
</g>
<g id="ID000004">
	<text transform="matrix(1 0 0 1 192.3511 266.3682)" class="st3 st1 st2">U</text>
</g>
<g id="ID000005">
	<text transform="matrix(1 0 0 1 192.3511 257.9229)" class="st3 st1 st2">C</text>
</g>
<g id="ID000006">
	<line class="st4" x1="189.7" y1="254.1" x2="184.1" y2="254.1"/>
</g>
<g id="ID000007">
	<text transform="matrix(1 0 0 1 174.8574 257.9229)" class="st1 st2">10</text>
</g>
<g id="ID000008">
	<text transform="matrix(1 0 0 1 192.3511 249.4785)" class="st3 st1 st2">C</text>
</g>
<g id="ID000009">
	<text transform="matrix(1 0 0 1 192.3511 241.0234)" class="st3 st1 st2">C</text>
</g>
<g id="ID000010">
	<text transform="matrix(1 0 0 1 192.1182 232.5781)" class="st3 st1 st2">G</text>
</g>
<g id="ID000011">
	<text transform="matrix(1 0 0 1 181.7954 226.2451)" class="st0 st1 st2">C</text>
</g>
<g id="ID000012">
	<text transform="matrix(1 0 0 1 209.251 232.5781)" class="st3 st1 st2">C</text>
</g>
<g id="ID000013">
	<text transform="matrix(1 0 0 1 209.0176 241.0234)" class="st3 st1 st2">G</text>
</g>
<g id="ID000014">
	<text transform="matrix(1 0 0 1 209.0176 249.4785)" class="st3 st1 st2">G</text>
</g>
<g id="ID000015">
	<text transform="matrix(1 0 0 1 209.0176 257.9229)" class="st3 st1 st2">G</text>
</g>
<g id="ID000016">
	<text transform="matrix(1 0 0 1 209.4746 266.3682)" class="st3 st1 st2">A</text>
</g>
<g id="ID000017">
	<text transform="matrix(1 0 0 1 209.4746 274.8232)" class="st3 st1 st2">A</text>
</g>
<g id="ID000018">
	<text transform="matrix(1 0 0 1 213.2402 285.3789)" class="st0 st1 st2">G</text>
</g>
<g id="ID000019">
	<line class="st4" x1="222.1" y1="281.6" x2="227.7" y2="281.6"/>
</g>
<g id="ID000020">
	<text transform="matrix(1 0 0 1 227.7324 285.3789)" class="st1 st2">130</text>
</g>
<g id="ID000034">
	<text transform="matrix(1 0 0 1 192.1182 329.7354)" class="st0 st1 st5">G</text>
</g>
<g id="ID000035">
	<text transform="matrix(1 0 0 1 192.1182 321.29)" class="st0 st1 st2">G</text>
</g>
<g id="ID000036">
	<text transform="matrix(1 0 0 1 192.1182 312.835)" class="st6 st1 st2">G</text>
</g>
<g id="ID000037">
	<text transform="matrix(1 0 0 1 192.585 304.3906)" class="st6 st1 st2">A</text>
</g>
<g id="ID000038">
	<text transform="matrix(1 0 0 1 192.1182 295.9453)" class="st6 st1 st2">G</text>
</g>
<g id="ID000039">
	<text transform="matrix(1 0 0 1 184.1294 289.6016)" class="st0 st1 st2">A</text>
</g>
<g id="ID000040">
	<text transform="matrix(1 0 0 1 209.251 295.9453)" class="st6 st1 st2">C</text>
</g>
<g id="ID000041">
	<text transform="matrix(1 0 0 1 209.251 304.3906)" class="st6 st1 st2">U</text>
</g>
<g id="ID000042">
	<text transform="matrix(1 0 0 1 209.251 312.835)" class="st6 st1 st2">U</text>
</g>
<g id="ID000045">
	<line class="st4" x1="198.7" y1="300.5" x2="208.9" y2="300.5"/>
</g>
<g id="ID000049">
	<text transform="matrix(1 0 0 1 192.1182 222.0225)" class="st3 st1 st2">G</text>
</g>
<g id="ID000050">
	<text transform="matrix(1 0 0 1 192.1182 213.5674)" class="st3 st1 st2">G</text>
</g>
<g id="ID000051">
	<text transform="matrix(1 0 0 1 192.3511 205.1221)" class="st3 st1 st2">C</text>
</g>
<g id="ID000052">
	<text transform="matrix(1 0 0 1 209.4746 196.6777)" class="st0 st1 st2">A</text>
</g>
<g id="ID000055">
	<text transform="matrix(1 0 0 1 209.0176 205.1221)" class="st3 st1 st2">G</text>
</g>
<g id="ID000056">
	<text transform="matrix(1 0 0 1 209.251 213.5674)" class="st3 st1 st2">C</text>
</g>
<g id="ID000057">
	<text transform="matrix(1 0 0 1 209.251 222.0225)" class="st3 st1 st2">C</text>
</g>
<g id="ID000064">
	<text transform="matrix(1 0 0 1 187.8955 194.5562)" class="st7 st1 st2">G</text>
</g>
<g id="ID000065">
	<text transform="matrix(1 0 0 1 179.6738 194.5562)" class="st7 st1 st2">U</text>
</g>
<g id="ID000066">
	<text transform="matrix(1 0 0 1 171.229 194.5562)" class="st7 st1 st2">U</text>
</g>
<g id="ID000069">
	<text transform="matrix(1 0 0 1 162.5508 194.5562)" class="st7 st1 st2">G</text>
</g>
<g id="ID000070">
	<text transform="matrix(1 0 0 1 154.106 194.5562)" class="st7 st1 st2">G</text>
</g>
<g id="ID000071">
	<text transform="matrix(1 0 0 1 145.8843 200.9004)" class="st0 st1 st2">C</text>
</g>
<g id="ID000072">
	<text transform="matrix(1 0 0 1 137.4395 207.2334)" class="st0 st1 st2">C</text>
</g>
<g id="ID000073">
	<text transform="matrix(1 0 0 1 137.6621 167.1001)" class="st0 st1 st2">A</text>
</g>
<g id="ID000074">
	<text transform="matrix(1 0 0 1 145.8843 171.3223)" class="st0 st1 st2">C</text>
</g>
<g id="ID000075">
	<text transform="matrix(1 0 0 1 154.3291 177.6665)" class="st7 st1 st2">C</text>
</g>
<g id="ID000076">
	<text transform="matrix(1 0 0 1 162.7842 177.6665)" class="st7 st1 st2">C</text>
</g>
<g id="ID000079">
	<text transform="matrix(1 0 0 1 171.4624 177.6665)" class="st7 st1 st2">A</text>
</g>
<g id="ID000080">
	<text transform="matrix(1 0 0 1 179.9072 177.6665)" class="st7 st1 st2">A</text>
</g>
<g id="ID000081">
	<text transform="matrix(1 0 0 1 188.1289 177.2422)" class="st7 st1 st2">C</text>
</g>
<g id="ID000082">
	<text transform="matrix(1 0 0 1 188.3516 167.1001)" class="st0 st1 st2">A</text>
</g>
<g id="ID000083">
	<text transform="matrix(1 0 0 1 188.1289 156.5444)" class="st0 st1 st2">U</text>
</g>
<g id="ID000084">
	<text transform="matrix(1 0 0 1 188.3516 145.9775)" class="st0 st1 st2">A</text>
</g>
<g id="ID000085">
	<text transform="matrix(1 0 0 1 187.8955 135.4219)" class="st0 st1 st2">G</text>
</g>
<g id="ID000086">
	<text transform="matrix(1 0 0 1 196.8071 129.0884)" class="st0 st1 st2">A</text>
</g>
<g id="ID000087">
	<text transform="matrix(1 0 0 1 205.252 129.0884)" class="st0 st1 st2">A</text>
</g>
<g id="ID000092">
	<line class="st4" x1="174.2" y1="187.4" x2="174.2" y2="177.3"/>
</g>
<g id="ID000098">
	<text transform="matrix(1 0 0 1 128.9844 207.2334)" class="st0 st1 st2">C</text>
</g>
<g id="ID000099">
	<text transform="matrix(1 0 0 1 120.7622 200.9004)" class="st0 st1 st2">A</text>
</g>
<g id="ID000100">
	<text transform="matrix(1 0 0 1 111.8613 194.5562)" class="st7 st1 st2">G</text>
</g>
<g id="ID000101">
	<text transform="matrix(1 0 0 1 103.417 194.5562)" class="st7 st1 st2">G</text>
</g>
<g id="ID000102">
	<text transform="matrix(1 0 0 1 95.4175 194.5562)" class="st7 st1 st2">A</text>
</g>
<g id="ID000103">
	<text transform="matrix(1 0 0 1 86.75 194.5562)" class="st7 st1 st2">U</text>
</g>
<g id="ID000104">
	<line class="st4" x1="89.8" y1="196.4" x2="89.8" y2="202"/>
</g>
<g id="ID000105">
	<text transform="matrix(1 0 0 1 85.127 211.9971)" class="st1 st2">30</text>
</g>
<g id="ID000106">
	<text transform="matrix(1 0 0 1 80.0137 200.9004)" class="st0 st1 st2">A</text>
</g>
<g id="ID000107">
	<text transform="matrix(1 0 0 1 70.0625 203.6162)" class="st0 st1 st2">A</text>
</g>
<g id="ID000108">
	<text transform="matrix(1 0 0 1 63.0181 163.4824)" class="st0 st1 st2">A</text>
</g>
<g id="ID000109">
	<text transform="matrix(1 0 0 1 72.5874 163.4824)" class="st0 st1 st2">A</text>
</g>
<g id="ID000110">
	<text transform="matrix(1 0 0 1 79.9922 168.6489)" class="st0 st1 st2">A</text>
</g>
<g id="ID000111">
	<line class="st4" x1="82.5" y1="160.5" x2="82.5" y2="154.9"/>
</g>
<g id="ID000112">
	<text transform="matrix(1 0 0 1 78.1357 152.6294)" class="st1 st8">50</text>
</g>
<g id="ID000113">
	<text transform="matrix(1 0 0 1 86.9731 177.6665)" class="st7 st1 st2">A</text>
</g>
<g id="ID000114">
	<text transform="matrix(1 0 0 1 95.1948 177.6665)" class="st7 st1 st2">U</text>
</g>
<g id="ID000115">
	<text transform="matrix(1 0 0 1 103.6396 177.6665)" class="st7 st1 st2">C</text>
</g>
<g id="ID000116">
	<text transform="matrix(1 0 0 1 112.0947 177.6665)" class="st7 st1 st2">C</text>
</g>
<g id="ID000117">
	<text transform="matrix(1 0 0 1 120.3062 173.4443)" class="st0 st1 st2">G</text>
</g>
<g id="ID000118">
	<text transform="matrix(1 0 0 1 128.9844 167.1001)" class="st0 st1 st2">U</text>
</g>
<g id="ID000128">
	<text transform="matrix(1 0 0 1 60.7476 203.0117)" class="st0 st1 st2">U</text>
</g>
<g id="ID000129">
	<text transform="matrix(1 0 0 1 51.9209 198.7891)" class="st0 st1 st2">A</text>
</g>
<g id="ID000130">
	<text transform="matrix(1 0 0 1 42.1606 196.6777)" class="st7 st1 st2">G</text>
</g>
<g id="ID000131">
	<text transform="matrix(1 0 0 1 33.7163 196.6777)" class="st7 st1 st2">G</text>
</g>
<g id="ID000132">
	<text transform="matrix(1 0 0 1 25.7168 196.6777)" class="st7 st1 st2">A</text>
</g>
<g id="ID000133">
	<text transform="matrix(1 0 0 1 17.0493 200.9004)" class="st0 st1 st2">C</text>
</g>
<g id="ID000134">
	<text transform="matrix(1 0 0 1 6.2495 198.7891)" class="st0 st1 st2">G</text>
</g>
<g id="ID000135">
	<text transform="matrix(1 0 0 1 2.4941 188.2227)" class="st0 st1 st2">A</text>
</g>
<g id="ID000138">
	<text transform="matrix(1 0 0 1 8.8276 179.7778)" class="st0 st1 st2">A</text>
</g>
<g id="ID000139">
	<text transform="matrix(1 0 0 1 19.3833 179.7778)" class="st0 st1 st2">A</text>
</g>
<g id="ID000140">
	<text transform="matrix(1 0 0 1 25.4941 179.7778)" class="st7 st1 st2">U</text>
</g>
<g id="ID000141">
	<text transform="matrix(1 0 0 1 33.939 179.7778)" class="st7 st1 st2">C</text>
</g>
<g id="ID000142">
	<text transform="matrix(1 0 0 1 42.394 179.7778)" class="st7 st1 st2">C</text>
</g>
<g id="ID000143">
	<text transform="matrix(1 0 0 1 50.1177 176.1494)" class="st0 st1 st2">G</text>
</g>
<g id="ID000144">
	<text transform="matrix(1 0 0 1 56.7056 168.6489)" class="st0 st1 st2">A</text>
</g>
<g id="ID000151">
	<text transform="matrix(1 0 0 1 211.3623 137.5332)" class="st0 st1 st2">C</text>
</g>
<g id="ID000152">
	<line class="st4" x1="219.9" y1="133.8" x2="225.6" y2="133.8"/>
</g>
<g id="ID000153">
	<text transform="matrix(1 0 0 1 225.6211 137.5332)" class="st1 st2">70</text>
</g>
<g id="ID000154">
	<text transform="matrix(1 0 0 1 211.3623 148.0996)" class="st0 st1 st2">C</text>
</g>
<g id="ID000155">
	<text transform="matrix(1 0 0 1 211.3623 158.6553)" class="st0 st1 st2">C</text>
</g>
<g id="ID000156">
	<text transform="matrix(1 0 0 1 211.3623 169.2114)" class="st0 st1 st2">C</text>
</g>
<g id="ID000157">
	<text transform="matrix(1 0 0 1 211.3623 179.7778)" class="st0 st1 st2">C</text>
</g>
<g id="ID000158">
	<text transform="matrix(1 0 0 1 219.8076 179.7778)" class="st0 st1 st2">C</text>
</g>
<g id="ID000159">
	<text transform="matrix(1 0 0 1 228.252 179.7778)" class="st9 st1 st2">C</text>
</g>
<g id="ID000160">
	<text transform="matrix(1 0 0 1 236.9297 179.7778)" class="st9 st1 st2">A</text>
</g>
<g id="ID000161">
	<text transform="matrix(1 0 0 1 244.9297 179.7778)" class="st9 st1 st2">G</text>
</g>
<g id="ID000162">
	<text transform="matrix(1 0 0 1 249.374 171.3223)" class="st0 st1 st2">C</text>
</g>
<g id="ID000163">
	<text transform="matrix(1 0 0 1 245.1523 196.6777)" class="st9 st1 st2">C</text>
</g>
<g id="ID000164">
	<text transform="matrix(1 0 0 1 236.707 196.6777)" class="st9 st1 st2">U</text>
</g>
<g id="ID000165">
	<text transform="matrix(1 0 0 1 228.0293 196.6777)" class="st9 st1 st2">G</text>
</g>
<g id="ID000166">
	<text transform="matrix(1 0 0 1 219.8076 196.6777)" class="st0 st1 st2">C</text>
</g>
<g id="ID000173">
	<text transform="matrix(1 0 0 1 255.4854 179.7778)" class="st9 st1 st2">G</text>
</g>
<g id="ID000176">
	<text transform="matrix(1 0 0 1 264.1631 179.7778)" class="st9 st1 st2">C</text>
</g>
<g id="ID000177">
	<text transform="matrix(1 0 0 1 270.4971 173.4443)" class="st0 st1 st2">U</text>
</g>
<g id="ID000178">
	<text transform="matrix(1 0 0 1 272.6074 162.8779)" class="st0 st1 st2">C</text>
</g>
<g id="ID000179">
	<text transform="matrix(1 0 0 1 281.2861 158.6553)" class="st0 st1 st2">A</text>
</g>
<g id="ID000180">
	<text transform="matrix(1 0 0 1 281.2861 196.6777)" class="st0 st1 st2">A</text>
</g>
<g id="ID000181">
	<text transform="matrix(1 0 0 1 272.6074 196.6777)" class="st0 st1 st2">C</text>
</g>
<g id="ID000182">
	<text transform="matrix(1 0 0 1 263.9297 196.6777)" class="st9 st1 st2">G</text>
</g>
<g id="ID000183">
	<text transform="matrix(1 0 0 1 255.7188 196.6777)" class="st9 st1 st2">C</text>
</g>
<g id="ID000189">
	<text transform="matrix(1 0 0 1 289.5078 162.8779)" class="st0 st1 st2">C</text>
</g>
<g id="ID000190">
	<text transform="matrix(1 0 0 1 293.9639 173.4443)" class="st0 st1 st2">A</text>
</g>
<g id="ID000191">
	<text transform="matrix(1 0 0 1 297.9521 179.7778)" class="st9 st1 st2">C</text>
</g>
<g id="ID000192">
	<text transform="matrix(1 0 0 1 306.1748 179.7778)" class="st9 st1 st2">G</text>
</g>
<g id="ID000193">
	<text transform="matrix(1 0 0 1 314.6191 179.7778)" class="st9 st1 st2">G</text>
</g>
<g id="ID000194">
	<text transform="matrix(1 0 0 1 323.5303 177.6665)" class="st0 st1 st2">A</text>
</g>
<g id="ID000195">
	<line class="st4" x1="326.2" y1="168.3" x2="326.2" y2="162.6"/>
</g>
<g id="ID000196">
	<text transform="matrix(1 0 0 1 321.6846 160.4805)" class="st1 st2">90</text>
</g>
<g id="ID000197">
	<text transform="matrix(1 0 0 1 329.8643 207.2334)" class="st0 st1 st2">A</text>
</g>
<g id="ID000198">
	<text transform="matrix(1 0 0 1 321.4199 203.0117)" class="st0 st1 st2">A</text>
</g>
<g id="ID000199">
	<text transform="matrix(1 0 0 1 314.8525 196.6777)" class="st9 st1 st2">C</text>
</g>
<g id="ID000200">
	<text transform="matrix(1 0 0 1 306.4082 196.6777)" class="st9 st1 st2">C</text>
</g>
<g id="ID000201">
	<text transform="matrix(1 0 0 1 297.7295 196.6777)" class="st9 st1 st2">G</text>
</g>
<g id="ID000204">
	<text transform="matrix(1 0 0 1 289.7412 196.6777)" class="st0 st1 st2">A</text>
</g>
<g id="ID000211">
	<text transform="matrix(1 0 0 1 333.8633 177.6665)" class="st0 st1 st2">C</text>
</g>
<g id="ID000212">
	<text transform="matrix(1 0 0 1 342.0859 177.6665)" class="st9 st1 st2">G</text>
</g>
<g id="ID000213">
	<text transform="matrix(1 0 0 1 350.7637 177.6665)" class="st9 st1 st2">C</text>
</g>
<g id="ID000214">
	<text transform="matrix(1 0 0 1 359.208 177.6665)" class="st9 st1 st2">C</text>
</g>
<g id="ID000215">
	<text transform="matrix(1 0 0 1 367.6533 175.5557)" class="st0 st1 st2">C</text>
</g>
<g id="ID000216">
	<text transform="matrix(1 0 0 1 376.1084 171.3223)" class="st0 st1 st2">C</text>
</g>
<g id="ID000217">
	<text transform="matrix(1 0 0 1 384.7861 177.6665)" class="st0 st1 st2">A</text>
</g>
<g id="ID000218">
	<text transform="matrix(1 0 0 1 390.8867 188.2227)" class="st0 st1 st2">U</text>
</g>
<g id="ID000219">
	<text transform="matrix(1 0 0 1 384.5527 196.6777)" class="st0 st1 st2">U</text>
</g>
<g id="ID000220">
	<text transform="matrix(1 0 0 1 376.3311 203.0117)" class="st0 st1 st2">A</text>
</g>
<g id="ID000221">
	<line class="st4" x1="379.1" y1="204.9" x2="379.1" y2="210.5"/>
</g>
<g id="ID000222">
	<text transform="matrix(1 0 0 1 372.1836 220.4414)" class="st1 st2">100</text>
</g>
<g id="ID000223">
	<text transform="matrix(1 0 0 1 367.6533 196.6777)" class="st0 st1 st2">C</text>
</g>
<g id="ID000224">
	<text transform="matrix(1 0 0 1 358.9756 194.5562)" class="st9 st1 st2">G</text>
</g>
<g id="ID000225">
	<text transform="matrix(1 0 0 1 350.5303 194.5562)" class="st9 st1 st2">G</text>
</g>
<g id="ID000226">
	<text transform="matrix(1 0 0 1 342.3086 194.5562)" class="st9 st1 st2">C</text>
</g>
<g id="ID000227">
	<text transform="matrix(1 0 0 1 335.9746 203.0117)" class="st0 st1 st2">U</text>
</g>
<g id="ID000045-2">
	<line class="st4" x1="198.8" y1="293.2" x2="209" y2="293.2"/>
</g>
<g id="ID000045-3">
	<line class="st4" x1="198.8" y1="310.4" x2="209" y2="310.4"/>
</g>
<g id="ID000045-4">
	<line class="st4" x1="198.8" y1="272.1" x2="209" y2="272.1"/>
</g>
<g id="ID000045-5">
	<line class="st4" x1="198.8" y1="263.1" x2="209" y2="263.1"/>
</g>
<g id="ID000045-6">
	<line class="st4" x1="198.6" y1="254.6" x2="208.7" y2="254.6"/>
</g>
<g id="ID000045-7">
	<line class="st4" x1="198.8" y1="246.3" x2="209" y2="246.3"/>
</g>
<g id="ID000045-8">
	<line class="st4" x1="198.6" y1="237.6" x2="208.7" y2="237.6"/>
</g>
<g id="ID000045-9">
	<line class="st4" x1="198.8" y1="229.4" x2="209" y2="229.4"/>
</g>
<g id="ID000045-10">
	<line class="st4" x1="199.2" y1="219.1" x2="209.2" y2="219.1"/>
</g>
<g id="ID000045-11">
	<line class="st4" x1="198.8" y1="210.5" x2="209" y2="210.5"/>
</g>
<g id="ID000045-12">
	<line class="st4" x1="198.6" y1="201.9" x2="208.7" y2="201.9"/>
</g>
<g id="ID000092-2">
	<line class="st4" x1="191.2" y1="187.1" x2="191.2" y2="177.5"/>
</g>
<g id="ID000092-3">
	<line class="st4" x1="182.8" y1="187.4" x2="182.8" y2="177.3"/>
</g>
<g id="ID000092-4">
	<line class="st4" x1="165.7" y1="187.7" x2="165.7" y2="177.9"/>
</g>
<g id="ID000092-5">
	<line class="st4" x1="157.4" y1="187.5" x2="157.4" y2="178.1"/>
</g>
<g id="ID000092-6">
	<line class="st4" x1="115.4" y1="188.2" x2="115.4" y2="178.1"/>
</g>
<g id="ID000092-7">
	<line class="st4" x1="107" y1="188.2" x2="107" y2="178.1"/>
</g>
<g id="ID000092-8">
	<line class="st4" x1="98" y1="188.2" x2="98" y2="178.1"/>
</g>
<g id="ID000092-9">
	<line class="st4" x1="89.8" y1="188.2" x2="89.8" y2="178.1"/>
</g>
<g id="ID000092-10">
	<line class="st4" x1="45.6" y1="190" x2="45.6" y2="179.9"/>
</g>
<g id="ID000092-11">
	<line class="st4" x1="36.8" y1="190" x2="36.8" y2="179.9"/>
</g>
<g id="ID000092-12">
	<line class="st4" x1="28.2" y1="190.3" x2="28.2" y2="180.1"/>
</g>
<g id="ID000092-13">
	<line class="st4" x1="248.4" y1="190.2" x2="248.4" y2="180.1"/>
</g>
<g id="ID000092-14">
	<line class="st4" x1="231.3" y1="190.2" x2="231.3" y2="180.1"/>
</g>
<g id="ID000092-15">
	<line class="st4" x1="239.7" y1="190.2" x2="239.7" y2="180.1"/>
</g>
<g id="ID000092-16">
	<line class="st4" x1="258.7" y1="190.2" x2="258.7" y2="180.1"/>
</g>
<g id="ID000092-17">
	<line class="st4" x1="267.3" y1="190.2" x2="267.3" y2="180.1"/>
</g>
<g id="ID000092-18">
	<line class="st4" x1="301" y1="189.9" x2="301" y2="179.8"/>
</g>
<g id="ID000092-19">
	<line class="st4" x1="309.7" y1="190.2" x2="309.7" y2="180.1"/>
</g>
<g id="ID000092-20">
	<line class="st4" x1="318.9" y1="190.2" x2="318.9" y2="180.1"/>
</g>
<g id="ID000092-21">
	<line class="st4" x1="345.2" y1="188.1" x2="345.2" y2="177.9"/>
</g>
<g id="ID000092-22">
	<line class="st4" x1="354.5" y1="188.4" x2="354.5" y2="178.2"/>
</g>
<g id="ID000092-23">
	<line class="st4" x1="363.1" y1="188.4" x2="363.1" y2="178.2"/>
</g>
<text transform="matrix(1 0 0 1 142.1631 23.1617)" class="st1 st10">Reactive Blue 4_B4-25 aptamer</text>
<text transform="matrix(1 0 0 1 179.8965 334.626)" class="st1 st11">5</text>
<text transform="matrix(1 0 0 1 185.7949 334.626)" class="st1 st11">’</text>
<text transform="matrix(1 0 0 1 219.1709 318.7012)" class="st1 st11">3</text>
<text transform="matrix(1 0 0 1 225.0693 318.7012)" class="st1 st11">’</text>
</svg>
