<?xml version="1.0" encoding="utf-8"?>
<!-- Generator: Adobe Illustrator 25.2.0, SVG Export Plug-In . SVG Version: 6.00 Build 0)  -->
<svg version="1.1" id="图层_1" xmlns="http://www.w3.org/2000/svg" xmlns:xlink="http://www.w3.org/1999/xlink" x="0px" y="0px"
	 viewBox="0 0 800 400" style="enable-background:new 0 0 800 400;" xml:space="preserve">
<style type="text/css">
	.st0{fill:#17BECF;}
	.st1{font-family:'ArialMT';}
	.st2{font-size:21.4058px;}
	.st3{fill:#FF7F0E;}
	.st4{fill:none;stroke:#000000;stroke-width:0.1298;stroke-miterlimit:1.0381;}
	.st5{fill:#2CA02C;}
	.st6{stroke:#000000;stroke-width:0.1298;stroke-miterlimit:1.0381;}
	.st7{fill:#D62728;}
	.st8{fill:#9467BD;}
	.st9{fill:#8C564B;}
	.st10{font-size:20px;}
	.st11{font-size:23.4376px;}
</style>
<g id="ID000002">
	<g transform="translate(74.709,443.891)">
		<g transform="rotate(-0.0)">
			<text transform="matrix(1 0 0 1 -28.3596 -186.3282)" class="st0 st1 st2">G</text>
		</g>
	</g>
</g>
<g id="ID000003">
	<g transform="translate(105.411,443.891)">
		<g transform="rotate(-0.0)">
			<text transform="matrix(1 0 0 1 -37.86 -186.3282)" class="st3 st1 st2">G</text>
		</g>
	</g>
</g>
<g id="ID000004">
	<g transform="translate(136.113,443.891)">
		<g transform="rotate(-0.0)">
			<text transform="matrix(1 0 0 1 -47.3633 -186.3282)" class="st3 st1 st2">G</text>
		</g>
	</g>
</g>
<g id="ID000005">
	<g transform="translate(166.815,443.891)">
		<g transform="rotate(-0.0)">
			<text transform="matrix(1 0 0 1 -55.678 -186.3282)" class="st3 st1 st2">A</text>
		</g>
	</g>
</g>
<g id="ID000006">
	<g transform="translate(197.517,443.891)">
		<g transform="rotate(-0.0)">
			<text transform="matrix(1 0 0 1 -65.7711 -186.3282)" class="st3 st1 st2">U</text>
		</g>
	</g>
</g>
<g id="ID000007">
	<g transform="translate(182.166,405.513)">
		<g transform="rotate(-0.0)">
			<text transform="matrix(1 0 0 1 -61.615 -174.4502)" class="st0 st1 st2">G</text>
		</g>
	</g>
</g>
<g id="ID000008">
	<g transform="translate(166.815,374.811)">
		<g transform="rotate(-0.0)">
			<text transform="matrix(1 0 0 1 -56.2684 -164.9494)" class="st0 st1 st2">U</text>
		</g>
	</g>
</g>
<g id="ID000009">
	<g transform="translate(166.815,344.109)">
		<g transform="rotate(-0.0)">
			<text transform="matrix(1 0 0 1 -56.2684 -155.4471)" class="st0 st1 st2">U</text>
		</g>
	</g>
</g>
<g id="ID000010">
	<g transform="translate(189.842,321.082)">
		<g transform="rotate(-0.0)">
			<text transform="matrix(1 0 0 1 -63.395 -148.323)" class="st0 st1 st2">C</text>
		</g>
	</g>
</g>
<g id="ID000011">
	<g transform="translate(197.517,505.295)">
		<g transform="rotate(-0.0)">
			<text transform="matrix(1 0 0 1 -65.1808 -205.3338)" class="st3 st1 st2">A</text>
		</g>
	</g>
</g>
<g id="ID000012">
	<g transform="translate(166.815,505.295)">
		<g transform="rotate(-0.0)">
			<text transform="matrix(1 0 0 1 -56.2684 -205.3338)" class="st3 st1 st2">U</text>
		</g>
	</g>
</g>
<g id="ID000013">
	<g transform="translate(136.113,505.295)">
		<g transform="rotate(-0.0)">
			<text transform="matrix(1 0 0 1 -46.768 -205.3338)" class="st3 st1 st2">C</text>
		</g>
	</g>
</g>
<g id="ID000014">
	<g transform="translate(105.411,505.295)">
		<g transform="rotate(-0.0)">
			<text transform="matrix(1 0 0 1 -37.2648 -205.3338)" class="st3 st1 st2">C</text>
		</g>
	</g>
</g>
<g id="ID000015">
	<g transform="translate(74.709,505.295)">
		<g transform="rotate(-0.0)">
			<text transform="matrix(1 0 0 1 -28.3596 -205.3338)" class="st0 st1 st2">G</text>
		</g>
	</g>
</g>
<g id="ID000016">
	<g transform="translate(44.006,505.295)">
		<g transform="rotate(-0.0)">
			<text transform="matrix(1 0 0 1 -17.6698 -205.3338)" class="st0 st1 st2">A</text>
		</g>
	</g>
</g>
<g id="ID000017">
	<line class="st4" x1="75.8" y1="256.5" x2="75.8" y2="282"/>
</g>
<g id="ID000018">
	<line class="st4" x1="97.1" y1="256.5" x2="97.1" y2="282"/>
</g>
<g id="ID000019">
	<line class="st4" x1="118.3" y1="256.5" x2="118.3" y2="282"/>
</g>
<g id="ID000020">
	<line class="st4" x1="139.5" y1="256.5" x2="139.5" y2="282"/>
</g>
<g id="ID000022">
	<g transform="translate(228.220,321.082)">
		<g transform="rotate(-0.0)">
			<text transform="matrix(1 0 0 1 -75.2754 -148.323)" class="st0 st1 st2">U</text>
		</g>
	</g>
</g>
<g id="ID000023">
	<line class="st4" x1="160.7" y1="149.1" x2="160.7" y2="134.9"/>
</g>
<g id="ID000024">
	<g transform="translate(228.220,258.654)">
		<g transform="rotate(-0.0)">
			<text transform="matrix(1 0 0 1 -79.4502 -129.0004)" class="st1 st2">10</text>
		</g>
	</g>
</g>
<g id="ID000025">
	<g transform="translate(251.246,344.109)">
		<g transform="rotate(-0.0)">
			<text transform="matrix(1 0 0 1 -81.8078 -155.4471)" class="st0 st1 st2">A</text>
		</g>
	</g>
</g>
<g id="ID000026">
	<g transform="translate(251.246,374.811)">
		<g transform="rotate(-0.0)">
			<text transform="matrix(1 0 0 1 -82.9933 -164.9494)" class="st0 st1 st2">G</text>
		</g>
	</g>
</g>
<g id="ID000027">
	<g transform="translate(228.220,405.513)">
		<g transform="rotate(-0.0)">
			<text transform="matrix(1 0 0 1 -75.8682 -174.4502)" class="st0 st1 st2">G</text>
		</g>
	</g>
</g>
<g id="ID000028">
	<g transform="translate(235.895,443.891)">
		<g transform="rotate(-0.0)">
			<text transform="matrix(1 0 0 1 -77.6492 -186.3282)" class="st5 st1 st2">C</text>
		</g>
	</g>
</g>
<g id="ID000029">
	<g transform="translate(266.597,443.891)">
		<g transform="rotate(-0.0)">
			<text transform="matrix(1 0 0 1 -87.7476 -186.3282)" class="st5 st1 st2">G</text>
		</g>
	</g>
</g>
<g id="ID000030">
	<g transform="translate(297.300,443.891)">
		<g transform="rotate(-0.0)">
			<text transform="matrix(1 0 0 1 -97.2465 -186.3282)" class="st5 st1 st2">G</text>
		</g>
	</g>
</g>
<g id="ID000031">
	<g transform="translate(328.002,443.891)">
		<g transform="rotate(-0.0)">
			<text transform="matrix(1 0 0 1 -106.1546 -186.3282)" class="st5 st1 st2">U</text>
		</g>
	</g>
</g>
<g id="ID000032">
	<g transform="translate(358.704,443.891)">
		<g transform="rotate(-0.0)">
			<text transform="matrix(1 0 0 1 -115.6549 -186.3282)" class="st5 st1 st2">U</text>
		</g>
	</g>
</g>
<g id="ID000033">
	<g transform="translate(389.406,443.891)">
		<g transform="rotate(-0.0)">
			<text transform="matrix(1 0 0 1 -125.7529 -186.3282)" class="st5 st1 st2">G</text>
		</g>
	</g>
</g>
<g id="ID000034">
	<g transform="translate(420.108,428.540)">
		<g transform="rotate(-0.0)">
			<text transform="matrix(1 0 0 1 -134.0682 -181.5788)" class="st0 st1 st2">A</text>
		</g>
	</g>
</g>
<g id="ID000035">
	<line class="st4" x1="293.2" y1="223.3" x2="293.2" y2="209.2"/>
</g>
<g id="ID000036">
	<g transform="translate(420.108,366.112)">
		<g transform="rotate(-0.0)">
			<text transform="matrix(1 0 0 1 -138.8358 -162.2592)" class="st1 st2">20</text>
		</g>
	</g>
</g>
<g id="ID000037">
	<g transform="translate(450.811,420.864)">
		<g transform="rotate(-0.0)">
			<text transform="matrix(1 0 0 1 -144.1623 -179.2046)" class="st0 st1 st2">U</text>
		</g>
	</g>
</g>
<g id="ID000038">
	<g transform="translate(435.459,543.673)">
		<g transform="rotate(-0.0)">
			<text transform="matrix(1 0 0 1 -139.4099 -217.2098)" class="st0 st1 st2">C</text>
		</g>
	</g>
</g>
<g id="ID000039">
	<g transform="translate(412.433,520.646)">
		<g transform="rotate(-0.0)">
			<text transform="matrix(1 0 0 1 -131.694 -210.0852)" class="st0 st1 st2">A</text>
		</g>
	</g>
</g>
<g id="ID000040">
	<g transform="translate(389.406,505.295)">
		<g transform="rotate(-0.0)">
			<text transform="matrix(1 0 0 1 -125.1582 -205.3338)" class="st5 st1 st2">U</text>
		</g>
	</g>
</g>
<g id="ID000041">
	<g transform="translate(358.704,505.295)">
		<g transform="rotate(-0.0)">
			<text transform="matrix(1 0 0 1 -115.067 -205.3338)" class="st5 st1 st2">A</text>
		</g>
	</g>
</g>
<g id="ID000042">
	<g transform="translate(328.002,505.295)">
		<g transform="rotate(-0.0)">
			<text transform="matrix(1 0 0 1 -105.5638 -205.3338)" class="st5 st1 st2">A</text>
		</g>
	</g>
</g>
<g id="ID000043">
	<line class="st4" x1="229.6" y1="304.6" x2="229.6" y2="318.7"/>
</g>
<g id="ID000044">
	<g transform="translate(328.002,568.644)">
		<g transform="rotate(-0.0)">
			<text transform="matrix(1 0 0 1 -110.3314 -224.9386)" class="st1 st2">80</text>
		</g>
	</g>
</g>
<g id="ID000045">
	<g transform="translate(297.300,505.295)">
		<g transform="rotate(-0.0)">
			<text transform="matrix(1 0 0 1 -96.6518 -205.3338)" class="st5 st1 st2">U</text>
		</g>
	</g>
</g>
<g id="ID000046">
	<g transform="translate(266.597,505.295)">
		<g transform="rotate(-0.0)">
			<text transform="matrix(1 0 0 1 -87.1524 -205.3338)" class="st5 st1 st2">U</text>
		</g>
	</g>
</g>
<g id="ID000047">
	<g transform="translate(235.895,505.295)">
		<g transform="rotate(-0.0)">
			<text transform="matrix(1 0 0 1 -78.2444 -205.3338)" class="st5 st1 st2">G</text>
		</g>
	</g>
</g>
<g id="ID000048">
	<line class="st4" x1="166" y1="256.5" x2="166" y2="282"/>
</g>
<g id="ID000049">
	<polygon class="st6" points="187.2,273.4 187.4,273.4 187.8,273.4 188,273.4 188.2,273.3 188.5,273.3 188.7,273.2 189,273.1 
		189.3,273 189.5,272.8 189.6,272.6 189.9,272.5 190.1,272.2 190.3,272.1 190.5,271.9 190.7,271.7 190.8,271.4 190.9,271.2 191,271 
		191.2,270.7 191.3,270.5 191.3,270.3 191.4,269.9 191.4,269.7 191.4,269.4 191.4,269.2 191.4,268.8 191.4,268.6 191.3,268.4 
		191.3,268.1 191.2,267.8 191,267.6 190.9,267.3 190.8,267.1 190.7,266.9 190.6,266.6 190.3,266.4 190.2,266.3 190,266 189.8,265.9 
		189.6,265.7 189.4,265.6 189.2,265.5 188.9,265.3 188.6,265.2 188.3,265.1 188.1,265.1 187.9,265 187.5,265 187.3,265 187.1,265 
		186.8,265 186.5,265 186.2,265.1 186,265.1 185.8,265.2 185.5,265.3 185.2,265.5 184.9,265.6 184.8,265.7 184.6,265.9 184.4,266 
		184.1,266.3 184,266.4 183.8,266.6 183.7,266.9 183.5,267.1 183.4,267.3 183.3,267.6 183.2,267.8 183.1,268.1 183.1,268.4 
		183,268.6 183,268.8 183,269.2 183,269.4 183,269.7 183,269.9 183.1,270.3 183.1,270.5 183.2,270.7 183.3,271 183.4,271.2 
		183.5,271.4 183.8,271.7 183.9,271.9 184,272.1 184.2,272.2 184.5,272.5 184.7,272.6 184.8,272.8 185.1,273 185.3,273.1 
		185.6,273.2 185.9,273.3 186.1,273.3 186.4,273.4 186.6,273.4 186.9,273.4 	"/>
</g>
<g id="ID000050">
	<polygon class="st6" points="208.4,273.4 208.6,273.4 209,273.4 209.2,273.4 209.4,273.3 209.7,273.3 209.9,273.2 210.1,273.1 
		210.5,273 210.7,272.8 210.8,272.6 211.1,272.5 211.3,272.2 211.5,272.1 211.7,271.9 211.8,271.7 212,271.4 212.1,271.2 212.3,271 
		212.4,270.7 212.4,270.5 212.5,270.3 212.6,269.9 212.6,269.7 212.6,269.4 212.6,269.2 212.6,268.8 212.6,268.6 212.5,268.4 
		212.5,268.1 212.4,267.8 212.3,267.6 212.1,267.3 212,267.1 211.9,266.9 211.8,266.6 211.5,266.4 211.4,266.3 211.2,266 211,265.9 
		210.7,265.7 210.6,265.6 210.4,265.5 210,265.3 209.8,265.2 209.6,265.1 209.3,265.1 209.1,265 208.7,265 208.5,265 208.3,265 
		208,265 207.7,265 207.4,265.1 207.2,265.1 207,265.2 206.6,265.3 206.4,265.5 206.2,265.6 205.9,265.7 205.8,265.9 205.6,266 
		205.3,266.3 205.2,266.4 205,266.6 204.9,266.9 204.8,267.1 204.6,267.3 204.5,267.6 204.4,267.8 204.3,268.1 204.3,268.4 
		204.2,268.6 204.2,268.8 204.2,269.2 204.2,269.4 204.2,269.7 204.2,269.9 204.3,270.3 204.3,270.5 204.4,270.7 204.5,271 
		204.6,271.2 204.8,271.4 204.9,271.7 205.1,271.9 205.2,272.1 205.5,272.2 205.7,272.5 205.8,272.6 206,272.8 206.3,273 
		206.5,273.1 206.7,273.2 207.1,273.3 207.3,273.3 207.6,273.4 207.8,273.4 208.1,273.4 	"/>
</g>
<g id="ID000051">
	<line class="st4" x1="229.6" y1="256.5" x2="229.6" y2="282"/>
</g>
<g id="ID000052">
	<line class="st4" x1="250.8" y1="256.5" x2="250.8" y2="282"/>
</g>
<g id="ID000053">
	<polygon class="st6" points="272,273.4 272.3,273.4 272.5,273.4 272.8,273.4 273.1,273.3 273.3,273.3 273.5,273.2 273.8,273.1 
		274,273 274.2,272.8 274.5,272.6 274.7,272.5 274.9,272.2 275.1,272.1 275.3,271.9 275.4,271.7 275.5,271.4 275.8,271.2 275.9,271 
		275.9,270.7 276,270.5 276.1,270.3 276.1,269.9 276.2,269.7 276.2,269.4 276.2,269.2 276.2,268.8 276.1,268.6 276.1,268.4 
		276.1,268.1 276,267.8 275.9,267.6 275.8,267.3 275.6,267.1 275.5,266.9 275.3,266.6 275.2,266.4 274.9,266.3 274.8,266 
		274.6,265.9 274.4,265.7 274.1,265.6 273.9,265.5 273.7,265.3 273.4,265.2 273.2,265.1 273,265.1 272.6,265 272.4,265 272.1,265 
		271.9,265 271.5,265 271.3,265 271.1,265.1 270.7,265.1 270.5,265.2 270.3,265.3 270,265.5 269.8,265.6 269.6,265.7 269.3,265.9 
		269.2,266 269,266.3 268.7,266.4 268.6,266.6 268.5,266.9 268.3,267.1 268.1,267.3 268,267.6 267.9,267.8 267.9,268.1 267.8,268.4 
		267.8,268.6 267.8,268.8 267.7,269.2 267.8,269.4 267.8,269.7 267.8,269.9 267.9,270.3 267.9,270.5 268,270.7 268.1,271 
		268.3,271.2 268.4,271.4 268.5,271.7 268.7,271.9 268.9,272.1 269.1,272.2 269.2,272.5 269.4,272.6 269.7,272.8 269.9,273 
		270.1,273.1 270.4,273.2 270.6,273.3 271,273.3 271.2,273.4 271.4,273.4 271.7,273.4 	"/>
</g>
<g id="ID000055">
	<g transform="translate(481.513,428.540)">
		<g transform="rotate(-0.0)">
			<text transform="matrix(1 0 0 1 -154.2603 -181.5788)" class="st0 st1 st2">G</text>
		</g>
	</g>
</g>
<g id="ID000056">
	<g transform="translate(504.539,443.891)">
		<g transform="rotate(-0.0)">
			<text transform="matrix(1 0 0 1 -160.2004 -186.3282)" class="st7 st1 st2">A</text>
		</g>
	</g>
</g>
<g id="ID000057">
	<g transform="translate(535.242,443.891)">
		<g transform="rotate(-0.0)">
			<text transform="matrix(1 0 0 1 -170.2921 -186.3282)" class="st7 st1 st2">U</text>
		</g>
	</g>
</g>
<g id="ID000058">
	<g transform="translate(565.944,443.891)">
		<g transform="rotate(-0.0)">
			<text transform="matrix(1 0 0 1 -179.7958 -186.3282)" class="st7 st1 st2">U</text>
		</g>
	</g>
</g>
<g id="ID000059">
	<g transform="translate(596.646,443.891)">
		<g transform="rotate(-0.0)">
			<text transform="matrix(1 0 0 1 -189.2957 -186.3282)" class="st7 st1 st2">U</text>
		</g>
	</g>
</g>
<g id="ID000060">
	<g transform="translate(627.348,443.891)">
		<g transform="rotate(-0.0)">
			<text transform="matrix(1 0 0 1 -199.3942 -186.3282)" class="st7 st1 st2">G</text>
		</g>
	</g>
</g>
<g id="ID000061">
	<g transform="translate(658.050,443.891)">
		<g transform="rotate(-0.0)">
			<text transform="matrix(1 0 0 1 -208.8969 -186.3282)" class="st7 st1 st2">G</text>
		</g>
	</g>
</g>
<g id="ID000062">
	<g transform="translate(688.752,443.891)">
		<g transform="rotate(-0.0)">
			<text transform="matrix(1 0 0 1 -218.3997 -186.3282)" class="st7 st1 st2">G</text>
		</g>
	</g>
</g>
<g id="ID000063">
	<g transform="translate(719.455,443.891)">
		<g transform="rotate(-0.0)">
			<text transform="matrix(1 0 0 1 -227.9016 -186.3282)" class="st7 st1 st2">G</text>
		</g>
	</g>
</g>
<g id="ID000064">
	<line class="st4" x1="499.8" y1="233.9" x2="499.8" y2="219.7"/>
</g>
<g id="ID000065">
	<g transform="translate(719.455,381.463)">
		<g transform="rotate(-0.0)">
			<text transform="matrix(1 0 0 1 -231.4807 -167.0077)" class="st1 st2">30</text>
		</g>
	</g>
</g>
<g id="ID000066">
	<g transform="translate(750.157,443.891)">
		<g transform="rotate(-0.0)">
			<text transform="matrix(1 0 0 1 -236.8066 -186.3282)" class="st7 st1 st2">U</text>
		</g>
	</g>
</g>
<g id="ID000067">
	<g transform="translate(780.859,443.891)">
		<g transform="rotate(-0.0)">
			<text transform="matrix(1 0 0 1 -246.9022 -186.3282)" class="st7 st1 st2">G</text>
		</g>
	</g>
</g>
<g id="ID000068">
	<g transform="translate(811.561,428.540)">
		<g transform="rotate(-0.0)">
			<text transform="matrix(1 0 0 1 -255.8102 -181.5788)" class="st0 st1 st2">U</text>
		</g>
	</g>
</g>
<g id="ID000069">
	<g transform="translate(811.561,520.646)">
		<g transform="rotate(-0.0)">
			<text transform="matrix(1 0 0 1 -255.8102 -210.0852)" class="st0 st1 st2">U</text>
		</g>
	</g>
</g>
<g id="ID000070">
	<g transform="translate(780.859,505.295)">
		<g transform="rotate(-0.0)">
			<text transform="matrix(1 0 0 1 -246.3075 -205.3338)" class="st7 st1 st2">C</text>
		</g>
	</g>
</g>
<g id="ID000071">
	<g transform="translate(750.157,505.295)">
		<g transform="rotate(-0.0)">
			<text transform="matrix(1 0 0 1 -236.2158 -205.3338)" class="st7 st1 st2">A</text>
		</g>
	</g>
</g>
<g id="ID000072">
	<g transform="translate(719.455,505.295)">
		<g transform="rotate(-0.0)">
			<text transform="matrix(1 0 0 1 -227.3068 -205.3338)" class="st7 st1 st2">U</text>
		</g>
	</g>
</g>
<g id="ID000073">
	<g transform="translate(688.752,505.295)">
		<g transform="rotate(-0.0)">
			<text transform="matrix(1 0 0 1 -217.8021 -205.3338)" class="st7 st1 st2">C</text>
		</g>
	</g>
</g>
<g id="ID000074">
	<g transform="translate(658.050,505.295)">
		<g transform="rotate(-0.0)">
			<text transform="matrix(1 0 0 1 -208.3022 -205.3338)" class="st7 st1 st2">C</text>
		</g>
	</g>
</g>
<g id="ID000075">
	<g transform="translate(627.348,505.295)">
		<g transform="rotate(-0.0)">
			<text transform="matrix(1 0 0 1 -198.2086 -205.3338)" class="st7 st1 st2">A</text>
		</g>
	</g>
</g>
<g id="ID000076">
	<g transform="translate(596.646,505.295)">
		<g transform="rotate(-0.0)">
			<text transform="matrix(1 0 0 1 -189.8933 -205.3338)" class="st7 st1 st2">G</text>
		</g>
	</g>
</g>
<g id="ID000077">
	<line class="st4" x1="415.1" y1="304.6" x2="415.1" y2="318.7"/>
</g>
<g id="ID000078">
	<g transform="translate(596.646,568.644)">
		<g transform="rotate(-0.0)">
			<text transform="matrix(1 0 0 1 -193.4705 -224.9386)" class="st1 st2">70</text>
		</g>
	</g>
</g>
<g id="ID000079">
	<g transform="translate(565.944,505.295)">
		<g transform="rotate(-0.0)">
			<text transform="matrix(1 0 0 1 -179.202 -205.3338)" class="st7 st1 st2">A</text>
		</g>
	</g>
</g>
<g id="ID000080">
	<g transform="translate(535.242,505.295)">
		<g transform="rotate(-0.0)">
			<text transform="matrix(1 0 0 1 -170.8878 -205.3338)" class="st7 st1 st2">G</text>
		</g>
	</g>
</g>
<g id="ID000081">
	<g transform="translate(504.539,505.295)">
		<g transform="rotate(-0.0)">
			<text transform="matrix(1 0 0 1 -160.7883 -205.3338)" class="st7 st1 st2">U</text>
		</g>
	</g>
</g>
<g id="ID000082">
	<g transform="translate(481.513,520.646)">
		<g transform="rotate(-0.0)">
			<text transform="matrix(1 0 0 1 -153.0748 -210.0852)" class="st0 st1 st2">A</text>
		</g>
	</g>
</g>
<g id="ID000083">
	<g transform="translate(458.486,543.673)">
		<g transform="rotate(-0.0)">
			<text transform="matrix(1 0 0 1 -147.1337 -217.2098)" class="st0 st1 st2">G</text>
		</g>
	</g>
</g>
<g id="ID000084">
	<line class="st4" x1="351.5" y1="256.5" x2="351.5" y2="282"/>
</g>
<g id="ID000085">
	<polygon class="st6" points="372.7,273.4 372.9,273.4 373.3,273.4 373.5,273.4 373.7,273.3 374,273.3 374.2,273.2 374.6,273.1 
		374.8,273 375,272.8 375.1,272.6 375.4,272.5 375.6,272.2 375.8,272.1 376,271.9 376.1,271.7 376.3,271.4 376.4,271.2 376.5,271 
		376.7,270.7 376.8,270.5 376.8,270.3 376.9,269.9 376.9,269.7 376.9,269.4 376.9,269.2 376.9,268.8 376.9,268.6 376.8,268.4 
		376.8,268.1 376.7,267.8 376.5,267.6 376.4,267.3 376.3,267.1 376.2,266.9 376.1,266.6 375.8,266.4 375.7,266.3 375.5,266 
		375.3,265.9 375.1,265.7 374.9,265.6 374.7,265.5 374.3,265.3 374.1,265.2 373.9,265.1 373.6,265.1 373.4,265 373,265 372.8,265 
		372.6,265 372.3,265 372,265 371.7,265.1 371.5,265.1 371.3,265.2 370.9,265.3 370.7,265.5 370.5,265.6 370.2,265.7 370.1,265.9 
		369.9,266 369.6,266.3 369.5,266.4 369.3,266.6 369.2,266.9 369,267.1 368.9,267.3 368.8,267.6 368.7,267.8 368.6,268.1 
		368.6,268.4 368.5,268.6 368.5,268.8 368.5,269.2 368.5,269.4 368.5,269.7 368.5,269.9 368.6,270.3 368.6,270.5 368.7,270.7 
		368.8,271 368.9,271.2 369,271.4 369.3,271.7 369.4,271.9 369.5,272.1 369.8,272.2 370,272.5 370.2,272.6 370.3,272.8 370.6,273 
		370.8,273.1 371.2,273.2 371.4,273.3 371.6,273.3 371.9,273.4 372.1,273.4 372.4,273.4 	"/>
</g>
<g id="ID000086">
	<line class="st4" x1="393.9" y1="256.5" x2="393.9" y2="282"/>
</g>
<g id="ID000087">
	<polygon class="st6" points="415.1,273.4 415.3,273.4 415.6,273.4 415.9,273.4 416.2,273.3 416.4,273.3 416.6,273.2 416.9,273.1 
		417.1,273 417.3,272.8 417.6,272.6 417.8,272.5 418,272.2 418.1,272.1 418.4,271.9 418.5,271.7 418.7,271.4 418.9,271.2 419,271 
		419.1,270.7 419.1,270.5 419.2,270.3 419.2,269.9 419.3,269.7 419.3,269.4 419.3,269.2 419.3,268.8 419.3,268.6 419.2,268.4 
		419.2,268.1 419.1,267.8 419,267.6 418.9,267.3 418.7,267.1 418.6,266.9 418.5,266.6 418.3,266.4 418.1,266.3 417.9,266 
		417.7,265.9 417.4,265.7 417.2,265.6 417,265.5 416.7,265.3 416.5,265.2 416.3,265.1 416,265.1 415.8,265 415.5,265 415.2,265 
		415,265 414.6,265 414.4,265 414.2,265.1 413.9,265.1 413.6,265.2 413.3,265.3 413.1,265.5 412.9,265.6 412.6,265.7 412.4,265.9 
		412.3,266 412.1,266.3 411.8,266.4 411.7,266.6 411.6,266.9 411.4,267.1 411.2,267.3 411.1,267.6 411.1,267.8 411,268.1 
		410.9,268.4 410.9,268.6 410.9,268.8 410.9,269.2 410.9,269.4 410.9,269.7 410.9,269.9 411,270.3 411,270.5 411.1,270.7 411.2,271 
		411.4,271.2 411.5,271.4 411.6,271.7 411.8,271.9 411.9,272.1 412.2,272.2 412.4,272.5 412.5,272.6 412.8,272.8 413,273 
		413.2,273.1 413.5,273.2 413.8,273.3 414,273.3 414.3,273.4 414.5,273.4 414.8,273.4 	"/>
</g>
<g id="ID000088">
	<line class="st4" x1="436.3" y1="256.5" x2="436.3" y2="282"/>
</g>
<g id="ID000089">
	<line class="st4" x1="457.5" y1="256.5" x2="457.5" y2="282"/>
</g>
<g id="ID000090">
	<line class="st4" x1="478.7" y1="256.5" x2="478.7" y2="282"/>
</g>
<g id="ID000091">
	<polygon class="st6" points="499.8,273.4 500.2,273.4 500.4,273.4 500.6,273.4 501,273.3 501.2,273.3 501.5,273.2 501.7,273.1 
		501.9,273 502.2,272.8 502.4,272.6 502.6,272.5 502.8,272.2 503,272.1 503.2,271.9 503.3,271.7 503.5,271.4 503.6,271.2 503.7,271 
		503.8,270.7 503.9,270.5 504,270.3 504,269.9 504,269.7 504.2,269.4 504.2,269.2 504,268.8 504,268.6 504,268.4 503.9,268.1 
		503.9,267.8 503.8,267.6 503.7,267.3 503.6,267.1 503.5,266.9 503.2,266.6 503.1,266.4 502.9,266.3 502.8,266 502.5,265.9 
		502.3,265.7 502.1,265.6 501.8,265.5 501.6,265.3 501.4,265.2 501.1,265.1 500.8,265.1 500.5,265 500.3,265 500.1,265 499.7,265 
		499.5,265 499.2,265 498.9,265.1 498.7,265.1 498.4,265.2 498.2,265.3 498,265.5 497.7,265.6 497.5,265.7 497.3,265.9 497,266 
		496.9,266.3 496.7,266.4 496.5,266.6 496.3,266.9 496.2,267.1 496.1,267.3 496,267.6 495.8,267.8 495.8,268.1 495.7,268.4 
		495.7,268.6 495.6,268.8 495.6,269.2 495.6,269.4 495.6,269.7 495.7,269.9 495.7,270.3 495.8,270.5 496,270.7 496.1,271 
		496.2,271.2 496.3,271.4 496.4,271.7 496.5,271.9 496.8,272.1 496.9,272.2 497.1,272.5 497.4,272.6 497.6,272.8 497.8,273 
		498.1,273.1 498.3,273.2 498.5,273.3 498.8,273.3 499.1,273.4 499.4,273.4 499.6,273.4 	"/>
</g>
<g id="ID000092">
	<line class="st4" x1="521" y1="256.5" x2="521" y2="282"/>
</g>
<g id="ID000093">
	<line class="st4" x1="542.3" y1="256.5" x2="542.3" y2="282"/>
</g>
<g id="ID000095">
	<g transform="translate(842.263,443.891)">
		<g transform="rotate(-0.0)">
			<text transform="matrix(1 0 0 1 -265.3111 -186.3282)" class="st8 st1 st2">C</text>
		</g>
	</g>
</g>
<g id="ID000096">
	<g transform="translate(872.966,443.891)">
		<g transform="rotate(-0.0)">
			<text transform="matrix(1 0 0 1 -275.4096 -186.3282)" class="st8 st1 st2">G</text>
		</g>
	</g>
</g>
<g id="ID000097">
	<g transform="translate(903.668,443.891)">
		<g transform="rotate(-0.0)">
			<text transform="matrix(1 0 0 1 -284.9124 -186.3282)" class="st8 st1 st2">G</text>
		</g>
	</g>
</g>
<g id="ID000098">
	<g transform="translate(888.317,413.188)">
		<g transform="rotate(-0.0)">
			<text transform="matrix(1 0 0 1 -280.1639 -176.8264)" class="st0 st1 st2">G</text>
		</g>
	</g>
</g>
<g id="ID000099">
	<g transform="translate(880.641,382.486)">
		<g transform="rotate(-0.0)">
			<text transform="matrix(1 0 0 1 -277.1891 -167.3266)" class="st0 st1 st2">C</text>
		</g>
	</g>
</g>
<g id="ID000100">
	<g transform="translate(888.317,351.784)">
		<g transform="rotate(-0.0)">
			<text transform="matrix(1 0 0 1 -280.1639 -157.8233)" class="st0 st1 st2">G</text>
		</g>
	</g>
</g>
<g id="ID000101">
	<g transform="translate(911.343,328.757)">
		<g transform="rotate(-0.0)">
			<text transform="matrix(1 0 0 1 -286.104 -150.6967)" class="st0 st1 st2">A</text>
		</g>
	</g>
</g>
<g id="ID000102">
	<line class="st4" x1="632.4" y1="154.4" x2="632.4" y2="140.3"/>
</g>
<g id="ID000103">
	<g transform="translate(911.343,266.330)">
		<g transform="rotate(-0.0)">
			<text transform="matrix(1 0 0 1 -290.8687 -131.3776)" class="st1 st2">40</text>
		</g>
	</g>
</g>
<g id="ID000104">
	<g transform="translate(934.370,321.082)">
		<g transform="rotate(-0.0)">
			<text transform="matrix(1 0 0 1 -293.8185 -148.323)" class="st0 st1 st2">U</text>
		</g>
	</g>
</g>
<g id="ID000105">
	<g transform="translate(965.072,321.082)">
		<g transform="rotate(-0.0)">
			<text transform="matrix(1 0 0 1 -303.3213 -148.323)" class="st0 st1 st2">U</text>
		</g>
	</g>
</g>
<g id="ID000106">
	<g transform="translate(965.072,505.295)">
		<g transform="rotate(-0.0)">
			<text transform="matrix(1 0 0 1 -303.916 -205.3338)" class="st0 st1 st2">G</text>
		</g>
	</g>
</g>
<g id="ID000107">
	<g transform="translate(934.370,505.295)">
		<g transform="rotate(-0.0)">
			<text transform="matrix(1 0 0 1 -294.4161 -205.3338)" class="st0 st1 st2">G</text>
		</g>
	</g>
</g>
<g id="ID000108">
	<g transform="translate(903.668,505.295)">
		<g transform="rotate(-0.0)">
			<text transform="matrix(1 0 0 1 -284.3177 -205.3338)" class="st8 st1 st2">C</text>
		</g>
	</g>
</g>
<g id="ID000109">
	<line class="st4" x1="627.1" y1="304.6" x2="627.1" y2="318.7"/>
</g>
<g id="ID000110">
	<g transform="translate(903.668,568.644)">
		<g transform="rotate(-0.0)">
			<text transform="matrix(1 0 0 1 -288.4925 -224.9386)" class="st1 st2">60</text>
		</g>
	</g>
</g>
<g id="ID000111">
	<g transform="translate(872.966,505.295)">
		<g transform="rotate(-0.0)">
			<text transform="matrix(1 0 0 1 -274.8149 -205.3338)" class="st8 st1 st2">C</text>
		</g>
	</g>
</g>
<g id="ID000112">
	<g transform="translate(842.263,505.295)">
		<g transform="rotate(-0.0)">
			<text transform="matrix(1 0 0 1 -265.9088 -205.3338)" class="st8 st1 st2">G</text>
		</g>
	</g>
</g>
<g id="ID000113">
	<line class="st4" x1="584.7" y1="256.5" x2="584.7" y2="282"/>
</g>
<g id="ID000114">
	<line class="st4" x1="605.9" y1="256.5" x2="605.9" y2="282"/>
</g>
<g id="ID000115">
	<line class="st4" x1="627.1" y1="256.5" x2="627.1" y2="282"/>
</g>
<g id="ID000117">
	<g transform="translate(988.099,328.757)">
		<g transform="rotate(-0.0)">
			<text transform="matrix(1 0 0 1 -310.4459 -150.6967)" class="st0 st1 st2">U</text>
		</g>
	</g>
</g>
<g id="ID000118">
	<g transform="translate(1003.450,351.784)">
		<g transform="rotate(-0.0)">
			<text transform="matrix(1 0 0 1 -315.1993 -157.8233)" class="st0 st1 st2">U</text>
		</g>
	</g>
</g>
<g id="ID000119">
	<g transform="translate(1018.801,382.486)">
		<g transform="rotate(-0.0)">
			<text transform="matrix(1 0 0 1 -319.9487 -167.3266)" class="st0 st1 st2">U</text>
		</g>
	</g>
</g>
<g id="ID000120">
	<g transform="translate(1003.450,413.188)">
		<g transform="rotate(-0.0)">
			<text transform="matrix(1 0 0 1 -314.6065 -176.8264)" class="st0 st1 st2">A</text>
		</g>
	</g>
</g>
<g id="ID000121">
	<g transform="translate(988.099,443.891)">
		<g transform="rotate(-0.0)">
			<text transform="matrix(1 0 0 1 -311.0455 -186.3282)" class="st0 st1 st2">G</text>
		</g>
	</g>
</g>
<g id="ID000122">
	<g transform="translate(1018.801,443.891)">
		<g transform="rotate(-0.0)">
			<text transform="matrix(1 0 0 1 -320.5435 -186.3282)" class="st9 st1 st2">G</text>
		</g>
	</g>
</g>
<g id="ID000123">
	<g transform="translate(1049.503,443.891)">
		<g transform="rotate(-0.0)">
			<text transform="matrix(1 0 0 1 -330.0463 -186.3282)" class="st9 st1 st2">G</text>
		</g>
	</g>
</g>
<g id="ID000124">
	<g transform="translate(1080.205,443.891)">
		<g transform="rotate(-0.0)">
			<text transform="matrix(1 0 0 1 -338.9523 -186.3282)" class="st0 st1 st2">U</text>
		</g>
	</g>
</g>
<g id="ID000125">
	<line class="st4" x1="749" y1="233.9" x2="749" y2="219.7"/>
</g>
<g id="ID000126">
	<g transform="translate(1080.205,381.463)">
		<g transform="rotate(-0.0)">
			<text transform="matrix(1 0 0 1 -343.131 -167.0077)" class="st1 st2">50</text>
		</g>
	</g>
</g>
<g id="ID000127">
	<g transform="translate(1110.908,443.891)">
		<g transform="rotate(-0.0)">
			<text transform="matrix(1 0 0 1 -348.4561 -186.3282)" class="st0 st1 st2">U</text>
		</g>
	</g>
</g>
<g id="ID000128">
	<g transform="translate(1133.934,474.593)">
		<g transform="rotate(-0.0)">
			<text transform="matrix(1 0 0 1 -356.1783 -195.831)" class="st0 st1 st2">G</text>
		</g>
	</g>
</g>
<g id="ID000129">
	<g transform="translate(1110.908,505.295)">
		<g transform="rotate(-0.0)">
			<text transform="matrix(1 0 0 1 -349.0508 -205.3338)" class="st0 st1 st2">G</text>
		</g>
	</g>
</g>
<g id="ID000130">
	<g transform="translate(1080.205,505.295)">
		<g transform="rotate(-0.0)">
			<text transform="matrix(1 0 0 1 -339.549 -205.3338)" class="st0 st1 st2">G</text>
		</g>
	</g>
</g>
<g id="ID000131">
	<g transform="translate(1049.503,505.295)">
		<g transform="rotate(-0.0)">
			<text transform="matrix(1 0 0 1 -329.4515 -205.3338)" class="st9 st1 st2">C</text>
		</g>
	</g>
</g>
<g id="ID000132">
	<g transform="translate(1018.801,505.295)">
		<g transform="rotate(-0.0)">
			<text transform="matrix(1 0 0 1 -319.9487 -205.3338)" class="st9 st1 st2">C</text>
		</g>
	</g>
</g>
<g id="ID000133">
	<g transform="translate(988.099,505.295)">
		<g transform="rotate(-0.0)">
			<text transform="matrix(1 0 0 1 -309.8571 -205.3338)" class="st0 st1 st2">A</text>
		</g>
	</g>
</g>
<g id="ID000134">
	<line class="st4" x1="706.5" y1="256.5" x2="706.5" y2="282"/>
</g>
<g id="ID000135">
	<line class="st4" x1="727.8" y1="256.5" x2="727.8" y2="282"/>
</g>
<text transform="matrix(1 0 0 1 27.1252 38.5821)" class="st1 st10">E2 Aptamer</text>
<text transform="matrix(1 0 0 1 17.2307 246.9612)" class="st1 st11">5’</text>
<text transform="matrix(1 0 0 1 18.2153 333.4075)" class="st1 st11">3’</text>
</svg>
