<?xml version="1.0" encoding="utf-8"?>
<!-- Generator: Adobe Illustrator 27.0.0, SVG Export Plug-In . SVG Version: 6.00 Build 0)  -->
<svg version="1.1" id="图层_1" xmlns="http://www.w3.org/2000/svg" xmlns:xlink="http://www.w3.org/1999/xlink" x="0px" y="0px"
	 viewBox="0 0 800 400" style="enable-background:new 0 0 800 400;" xml:space="preserve">
<style type="text/css">
	.st0{fill:#B83332;}
	.st1{font-family:'ArialMT';}
	.st2{font-size:23.8677px;}
	.st3{fill:#084595;}
	.st4{fill:#CF3E7D;}
	.st5{fill:#18988C;}
	.st6{fill:#583A2B;}
	.st7{font-size:16.5238px;}
	.st8{stroke:#000000;stroke-miterlimit:10;}
	.st9{font-size:16px;}
</style>
<text transform="matrix(1 1.148582e-04 -1.148582e-04 1 87.3564 196.3355)" class="st0 st1 st2">G</text>
<text transform="matrix(1 1.148582e-04 -1.148582e-04 1 109.1221 199.2823)" class="st0 st1 st2">G</text>
<text transform="matrix(1 1.148582e-04 -1.148582e-04 1 130.176 198.211)" class="st0 st1 st2">G</text>
<text transform="matrix(1 1.148582e-04 -1.148582e-04 1 132.9022 175.5009)" class="st0 st1 st2">A</text>
<text transform="matrix(1 1.148582e-04 -1.148582e-04 1 144.0363 159.9621)" class="st0 st1 st2">G</text>
<text transform="matrix(1 1.148582e-04 -1.148582e-04 1 162.2776 146.5535)" class="st0 st1 st2">A</text>
<text transform="matrix(1 1.148582e-04 -1.148582e-04 1 178.0037 142.196)" class="st0 st1 st2">G</text>
<text transform="matrix(1 1.148582e-04 -1.148582e-04 1 183.5385 119.4476)" class="st0 st1 st2">C</text>
<text transform="matrix(1 1.148582e-04 -1.148582e-04 1 181.2661 97.732)" class="st0 st1 st2">G</text>
<text transform="matrix(1 1.148582e-04 -1.148582e-04 1 196.0502 81.4353)" class="st0 st1 st2">G</text>
<text transform="matrix(1 1.148582e-04 -1.148582e-04 1 218.2768 85.3022)" class="st0 st1 st2">A</text>
<text transform="matrix(1 1.148582e-04 -1.148582e-04 1 226.9148 104.5805)" class="st0 st1 st2">A</text>
<text transform="matrix(1 1.148582e-04 -1.148582e-04 1 212.1411 123.6569)" class="st0 st1 st2">G</text>
<text transform="matrix(1 1.148582e-04 -1.148582e-04 1 207.5179 146.3693)" class="st0 st1 st2">C</text>
<text transform="matrix(1 1.148582e-04 -1.148582e-04 1 221.8962 160.1058)" class="st0 st1 st2">G</text>
<text transform="matrix(1 1.148582e-04 -1.148582e-04 1 233.5503 178.341)" class="st0 st1 st2">U</text>
<text transform="matrix(1 1.148582e-04 -1.148582e-04 1 238.9128 197.8075)" class="st0 st1 st2">G</text>
<text transform="matrix(1 1.148582e-04 -1.148582e-04 1 231.5116 217.8174)" class="st0 st1 st2">C</text>
<text transform="matrix(1 1.148582e-04 -1.148582e-04 1 249.8199 229.1788)" class="st3 st1 st2">U</text>
<text transform="matrix(1 1.148582e-04 -1.148582e-04 1 270.7329 237.9459)" class="st3 st1 st2">G</text>
<text transform="matrix(1 1.148582e-04 -1.148582e-04 1 292.6103 243.3107)" class="st3 st1 st2">G</text>
<text transform="matrix(1 1.148582e-04 -1.148582e-04 1 314.6046 245.3171)" class="st3 st1 st2">G</text>
<text transform="matrix(1 1.148582e-04 -1.148582e-04 1 331.6935 228.0359)" class="st3 st1 st2">C</text>
<text transform="matrix(1 1.148582e-04 -1.148582e-04 1 354.024 229.1508)" class="st3 st1 st2">C</text>
<text transform="matrix(1 1.148582e-04 -1.148582e-04 1 367.4889 241.123)" class="st3 st1 st2">A</text>
<text transform="matrix(1 1.148582e-04 -1.148582e-04 1 388.7145 236.5424)" class="st4 st1 st2">U</text>
<text transform="matrix(1 1.148582e-04 -1.148582e-04 1 409.1173 228.7547)" class="st4 st1 st2">G</text>
<text transform="matrix(1 1.148582e-04 -1.148582e-04 1 420.1039 209.4621)" class="st4 st1 st2">G</text>
<text transform="matrix(1 1.148582e-04 -1.148582e-04 1 443.662 204.8398)" class="st4 st1 st2">A</text>
<text transform="matrix(1 1.148582e-04 -1.148582e-04 1 458.3882 216.9069)" class="st4 st1 st2">G</text>
<text transform="matrix(1 1.148582e-04 -1.148582e-04 1 481.9215 215.5317)" class="st5 st1 st2">U</text>
<text transform="matrix(1 1.148582e-04 -1.148582e-04 1 506.3826 214.4222)" class="st5 st1 st2">C</text>
<text transform="matrix(1 1.148582e-04 -1.148582e-04 1 530.4041 214.6241)" class="st5 st1 st2">G</text>
<text transform="matrix(1 1.148582e-04 -1.148582e-04 1 555.652 216.0987)" class="st5 st1 st2">A</text>
<text transform="matrix(1 1.148582e-04 -1.148582e-04 1 579.3301 220.4432)" class="st5 st1 st2">U</text>
<text transform="matrix(1 1.148582e-04 -1.148582e-04 1 591.3362 201.5413)" class="st5 st1 st2">G</text>
<text transform="matrix(1 1.148582e-04 -1.148582e-04 1 610.012 193.7285)" class="st5 st1 st2">U</text>
<text transform="matrix(1 1.148582e-04 -1.148582e-04 1 631.2606 188.4956)" class="st5 st1 st2">G</text>
<text transform="matrix(1 1.148582e-04 -1.148582e-04 1 653.8044 190.0309)" class="st5 st1 st2">A</text>
<text transform="matrix(1 1.148582e-04 -1.148582e-04 1 673.4078 199.6655)" class="st5 st1 st2">U</text>
<text transform="matrix(1 1.148582e-04 -1.148582e-04 1 689.4147 215.2713)" class="st5 st1 st2">A</text>
<text transform="matrix(1 1.148582e-04 -1.148582e-04 1 698.7181 235.3036)" class="st5 st1 st2">A</text>
<text transform="matrix(1 1.148582e-04 -1.148582e-04 1 700.0156 255.7286)" class="st5 st1 st2">G</text>
<text transform="matrix(1 1.148582e-04 -1.148582e-04 1 722.1428 261.8972)" class="st5 st1 st2">U</text>
<text transform="matrix(1 1.148582e-04 -1.148582e-04 1 745.8184 263.7661)" class="st5 st1 st2">A</text>
<text transform="matrix(1 1.148582e-04 -1.148582e-04 1 752.433 285.7405)" class="st5 st1 st2">G</text>
<text transform="matrix(1 1.148582e-04 -1.148582e-04 1 734.5203 299.4083)" class="st5 st1 st2">G</text>
<text transform="matrix(1 1.148582e-04 -1.148582e-04 1 716.4542 288.0107)" class="st5 st1 st2">A</text>
<text transform="matrix(1 1.148582e-04 -1.148582e-04 1 694.5389 281.8207)" class="st5 st1 st2">C</text>
<text transform="matrix(1 1.148582e-04 -1.148582e-04 1 680.998 297.6932)" class="st5 st1 st2">G</text>
<text transform="matrix(1 1.148582e-04 -1.148582e-04 1 662.7603 310.2214)" class="st5 st1 st2">G</text>
<text transform="matrix(1 1.148582e-04 -1.148582e-04 1 641.9775 315.1809)" class="st5 st1 st2">A</text>
<text transform="matrix(1 1.148582e-04 -1.148582e-04 1 619.4923 313.8287)" class="st5 st1 st2">G</text>
<text transform="matrix(1 1.148582e-04 -1.148582e-04 1 599.5949 304.4192)" class="st5 st1 st2">G</text>
<text transform="matrix(1 1.148582e-04 -1.148582e-04 1 584.3175 288.3442)" class="st5 st1 st2">U</text>
<text transform="matrix(1 1.148582e-04 -1.148582e-04 1 574.9614 268.598)" class="st5 st1 st2">G</text>
<text transform="matrix(1 1.148582e-04 -1.148582e-04 1 573.3093 248.841)" class="st5 st1 st2">G</text>
<text transform="matrix(1 1.148582e-04 -1.148582e-04 1 551.5306 244.1002)" class="st5 st1 st2">U</text>
<text transform="matrix(1 1.148582e-04 -1.148582e-04 1 529.1733 242.4111)" class="st5 st1 st2">C</text>
<text transform="matrix(1 1.148582e-04 -1.148582e-04 1 505.6802 242.5295)" class="st5 st1 st2">G</text>
<text transform="matrix(1 1.148582e-04 -1.148582e-04 1 482.7026 243.104)" class="st5 st1 st2">A</text>
<text transform="matrix(1 1.148582e-04 -1.148582e-04 1 458.3049 245.0123)" class="st4 st1 st2">U</text>
<text transform="matrix(1 1.148582e-04 -1.148582e-04 1 440.7153 259.3765)" class="st4 st1 st2">A</text>
<text transform="matrix(1 1.148582e-04 -1.148582e-04 1 417.8955 255.163)" class="st4 st1 st2">C</text>
<text transform="matrix(1 1.148582e-04 -1.148582e-04 1 394.4639 263.2394)" class="st4 st1 st2">A</text>
<text transform="matrix(1 1.148582e-04 -1.148582e-04 1 369.5062 269.3742)" class="st3 st1 st2">U</text>
<text transform="matrix(1 1.148582e-04 -1.148582e-04 1 353.673 283.6859)" class="st3 st1 st2">A</text>
<text transform="matrix(1 1.148582e-04 -1.148582e-04 1 331.8999 285.1814)" class="st3 st1 st2">A</text>
<text transform="matrix(1 1.148582e-04 -1.148582e-04 1 313.805 273.4147)" class="st3 st1 st2">C</text>
<text transform="matrix(1 1.148582e-04 -1.148582e-04 1 288.6794 270.7253)" class="st3 st1 st2">C</text>
<text transform="matrix(1 1.148582e-04 -1.148582e-04 1 263.9428 264.5379)" class="st3 st1 st2">C</text>
<text transform="matrix(1 1.148582e-04 -1.148582e-04 1 240.1588 254.3154)" class="st3 st1 st2">A</text>
<text transform="matrix(1 1.148582e-04 -1.148582e-04 1 216.796 241.8987)" class="st0 st1 st2">G</text>
<text transform="matrix(1 1.148582e-04 -1.148582e-04 1 199.3177 248.1974)" class="st0 st1 st2">A</text>
<text transform="matrix(1 1.148582e-04 -1.148582e-04 1 175.7185 249.1859)" class="st0 st1 st2">G</text>
<text transform="matrix(1 1.148582e-04 -1.148582e-04 1 167.3189 271.4506)" class="st6 st1 st2">G</text>
<text transform="matrix(1 1.148582e-04 -1.148582e-04 1 160.4208 294.3112)" class="st6 st1 st2">U</text>
<text transform="matrix(1 1.148582e-04 -1.148582e-04 1 154.1603 317.493)" class="st6 st1 st2">C</text>
<text transform="matrix(1 1.148582e-04 -1.148582e-04 1 154.7477 338.9228)" class="st6 st1 st2">G</text>
<text transform="matrix(1 1.148582e-04 -1.148582e-04 1 139.1176 353.2061)" class="st6 st1 st2">A</text>
<text transform="matrix(1 1.148582e-04 -1.148582e-04 1 117.6662 346.9605)" class="st6 st1 st2">U</text>
<text transform="matrix(1 1.148582e-04 -1.148582e-04 1 112.3176 325.9863)" class="st6 st1 st2">G</text>
<text transform="matrix(1 1.148582e-04 -1.148582e-04 1 126.2764 310.4625)" class="st6 st1 st2">G</text>
<text transform="matrix(1 1.148582e-04 -1.148582e-04 1 134.114 287.065)" class="st6 st1 st2">A</text>
<text transform="matrix(1 1.148582e-04 -1.148582e-04 1 141.2163 263.7386)" class="st6 st1 st2">U</text>
<text transform="matrix(1 1.148582e-04 -1.148582e-04 1 149.1741 240.1692)" class="st0 st1 st2">C</text>
<text transform="matrix(1 1.148582e-04 -1.148582e-04 1 131.6879 226.1711)" class="st0 st1 st2">C</text>
<text transform="matrix(1 1.148582e-04 -1.148582e-04 1 109.1142 225.6138)" class="st0 st1 st2">C</text>
<text transform="matrix(1 1.148582e-04 -1.148582e-04 1 84.4676 223.0309)" class="st0 st1 st2">C</text>
<text transform="matrix(1 1.148582e-04 -1.148582e-04 1 63.488 223.6945)" class="st0 st1 st2">C</text>
<text transform="matrix(1 1.148582e-04 -1.148582e-04 1 40.8669 223.2857)" class="st0 st1 st2">C</text>
<text transform="matrix(1 1.148582e-04 -1.148582e-04 1 186.4478 63.1857)" class="st1 st7">10</text>
<text transform="matrix(1 1.148582e-04 -1.148582e-04 1 277.1233 218.8011)" class="st1 st7">20</text>
<text transform="matrix(1 1.148582e-04 -1.148582e-04 1 465.9812 197.7173)" class="st1 st7">30</text>
<text transform="matrix(1 1.148582e-04 -1.148582e-04 1 684.2661 182.8415)" class="st1 st7">40</text>
<text transform="matrix(1 1.148582e-04 -1.148582e-04 1 694.2154 310.0912)" class="st1 st7">50</text>
<text transform="matrix(1 1.148582e-04 -1.148582e-04 1 508.4536 259.1519)" class="st1 st7">60</text>
<text transform="matrix(1 1.148582e-04 -1.148582e-04 1 286.1403 287.7563)" class="st1 st7">70</text>
<text transform="matrix(1 1.148582e-04 -1.148582e-04 1 150.6507 367.3481)" class="st1 st7">80</text>
<text transform="matrix(1 1.148582e-04 -1.148582e-04 1 46.1278 238.9347)" class="st1 st7">90</text>
<g id="ID000011">
	<polygon class="st8" points="96.1,197.7 96.2,207.2 96.1,207.2 	"/>
</g>
<g id="ID000011-2">
	<polygon class="st8" points="118.8,200.1 118.8,209.7 118.8,209.7 118.7,200.1 	"/>
</g>
<g id="ID000011-3">
	<polygon class="st8" points="140.8,199.4 141.8,209 141.7,209 140.7,199.4 	"/>
</g>
<g id="ID000011-4">
	<polygon class="st8" points="208.3,138.5 196.8,137.4 196.8,137.3 	"/>
</g>
<g id="ID000011-5">
	<polygon class="st8" points="236.7,217 230.6,226.8 230.6,226.8 	"/>
</g>
<g id="ID000011-6">
	<polygon class="st8" points="161.9,284.4 147.5,281 147.6,281 	"/>
</g>
<g id="ID000011-7">
	<polygon class="st8" points="154.6,308.4 142.9,306.8 143,306.7 	"/>
</g>
<g id="ID000011-8">
	<polygon class="st8" points="176.8,239.7 165.7,235.9 165.7,235.8 	"/>
</g>
<g id="ID000011-9">
	<polygon class="st8" points="255.2,229.2 250.5,239.9 250.5,239.8 	"/>
</g>
<g id="ID000011-10">
	<polygon class="st8" points="277.7,238.2 273.1,248.8 273.1,248.8 	"/>
</g>
<g id="ID000011-11">
	<polygon class="st8" points="300.7,243.7 298.6,255.1 298.6,255.1 300.6,243.7 	"/>
</g>
<g id="ID000011-12">
	<polygon class="st8" points="323.1,246 322.1,257.7 322.1,257.5 	"/>
</g>
<g id="ID000011-13">
	<polygon class="st8" points="376.6,242 377.8,253.6 377.7,253.6 376.5,242 	"/>
</g>
<g id="ID000011-14">
	<polygon class="st8" points="398.5,236.1 400.4,249.5 400.3,249.5 	"/>
</g>
<g id="ID000011-15">
	<polygon class="st8" points="420.2,229.2 423.3,240.7 423.3,240.7 	"/>
</g>
<g id="ID000011-16">
	<polygon class="st8" points="489.9,217.1 490.3,228.8 490.3,228.8 	"/>
</g>
<g id="ID000011-17">
	<polygon class="st8" points="514.5,215 514.9,224.9 514.8,224.9 	"/>
</g>
<g id="ID000011-18">
	<polygon class="st8" points="539,216 539.3,225.8 539.3,225.8 538.9,216 	"/>
</g>
<g id="ID000011-19">
	<polygon class="st8" points="706.5,256.2 705.2,266 705.2,266 	"/>
</g>
<g id="ID000011-20">
	<polygon class="st8" points="727.9,263.2 726.6,272.9 726.5,272.9 727.8,263.2 	"/>
</g>
<g id="ID000011-21">
	<polygon class="st8" points="561.9,217 562.3,226.7 562.2,226.7 561.9,216.9 	"/>
</g>
<g id="ID000011-22">
	<polygon class="st8" points="213.4,112.3 198.7,113 198.7,112.9 	"/>
</g>
<g id="ID000021">
	<polygon class="st8" points="467.1,224.1 467.2,224.2 467.4,224.3 467.6,224.4 467.8,224.5 467.9,224.6 468.1,224.6 468.3,224.7 
		468.5,224.7 468.6,224.7 468.8,224.7 469,224.7 469.2,224.7 469.3,224.7 469.5,224.7 469.7,224.6 469.8,224.6 470,224.5 
		470.1,224.4 470.3,224.4 470.4,224.2 470.6,224.1 470.7,224 470.9,223.9 471,223.8 471.1,223.6 471.2,223.5 471.3,223.3 
		471.4,223.2 471.4,223 471.5,222.9 471.6,222.6 471.6,222.4 471.6,222.3 471.6,222.1 471.6,221.9 471.7,221.7 471.6,221.5 
		471.6,221.4 471.6,221.2 471.5,221.1 471.5,220.8 471.4,220.7 471.3,220.6 471.2,220.4 471.1,220.3 471,220.1 470.9,220 
		470.8,219.8 470.7,219.7 470.5,219.6 470.4,219.5 470.2,219.5 470.1,219.4 469.9,219.3 469.7,219.2 469.6,219.2 469.4,219.1 
		469.2,219.1 469,219.1 468.9,219.1 468.7,219.1 468.5,219.1 468.4,219.1 468.2,219.2 468,219.3 467.8,219.3 467.7,219.4 
		467.4,219.5 467.3,219.5 467.1,219.6 467,219.7 466.8,219.9 466.7,220 466.6,220.1 466.5,220.3 466.4,220.4 466.3,220.6 
		466.3,220.7 466.2,220.9 466.1,221.1 466.1,221.2 466,221.4 466,221.6 466,221.7 466,221.9 466,222.1 466,222.3 466.1,222.4 
		466.1,222.6 466.2,222.9 466.2,223 466.3,223.2 466.4,223.4 466.5,223.5 466.6,223.6 466.7,223.8 466.8,223.9 467,224 	"/>
</g>
<g id="ID000021-2">
	<polygon class="st8" points="161.8,262.2 162,262.3 162.1,262.4 162.3,262.5 162.4,262.6 162.6,262.6 162.8,262.7 162.9,262.7 
		163.1,262.8 163.3,262.8 163.5,262.8 163.7,262.8 163.8,262.8 164,262.8 164.2,262.7 164.3,262.7 164.5,262.6 164.7,262.6 
		164.8,262.5 165,262.4 165.1,262.3 165.3,262.2 165.4,262.1 165.5,262 165.7,261.8 165.8,261.7 165.9,261.6 165.9,261.4 166,261.3 
		166.1,261.1 166.2,261 166.2,260.8 166.3,260.6 166.3,260.4 166.3,260.2 166.3,260.1 166.3,259.9 166.3,259.7 166.2,259.5 
		166.2,259.4 166.2,259.2 166.1,259 166.1,258.9 166,258.7 165.9,258.6 165.8,258.4 165.7,258.3 165.6,258.2 165.5,258 165.3,257.9 
		165.2,257.8 165.1,257.7 164.9,257.5 164.7,257.5 164.6,257.4 164.4,257.3 164.2,257.3 164.1,257.2 163.9,257.2 163.7,257.2 
		163.5,257.2 163.3,257.2 163.2,257.2 163,257.2 162.8,257.3 162.7,257.3 162.5,257.4 162.4,257.5 162.2,257.5 162,257.7 
		161.9,257.8 161.8,257.9 161.6,258 161.5,258.2 161.4,258.3 161.3,258.4 161.2,258.6 161.1,258.8 161,258.9 161,259.1 160.9,259.2 
		160.9,259.4 160.8,259.6 160.8,259.7 160.8,259.9 160.8,260.1 160.8,260.3 160.8,260.4 160.8,260.6 160.9,260.8 160.9,261 
		161,261.1 161.1,261.3 161.2,261.4 161.3,261.6 161.4,261.7 161.5,261.9 161.6,262 161.7,262.1 	"/>
</g>
<g id="ID000021-3">
	<polygon class="st8" points="583.9,228.7 584.1,228.9 584.2,229 584.3,229 584.5,229.1 584.7,229.2 584.8,229.2 585,229.3 
		585.2,229.3 585.4,229.3 585.5,229.4 585.7,229.3 585.9,229.3 586.2,229.3 586.3,229.3 586.5,229.2 586.6,229.2 586.8,229.1 
		587,229 587.1,229 587.3,228.9 587.4,228.8 587.5,228.6 587.7,228.5 587.8,228.4 587.9,228.3 588,228.1 588.1,228 588.2,227.8 
		588.3,227.7 588.3,227.5 588.4,227.3 588.4,227.1 588.4,227 588.5,226.8 588.5,226.6 588.5,226.4 588.5,226.2 588.4,226.1 
		588.4,225.9 588.3,225.8 588.3,225.6 588.2,225.4 588.1,225.3 588.1,225.1 587.9,225 587.8,224.8 587.7,224.7 587.6,224.6 
		587.5,224.5 587.3,224.3 587.2,224.2 587.1,224.2 586.9,224.1 586.7,224 586.6,224 586.4,223.9 586.2,223.8 585.9,223.8 
		585.8,223.8 585.6,223.8 585.4,223.8 585.3,223.8 585.1,223.9 584.9,223.9 584.8,224 584.5,224 584.4,224.1 584.3,224.2 
		584.1,224.2 584,224.4 583.8,224.5 583.7,224.6 583.6,224.7 583.5,224.8 583.4,225 583.3,225.1 583.2,225.3 583.1,225.5 583,225.6 
		583,225.8 582.9,225.9 582.9,226.1 582.8,226.3 582.9,226.5 582.8,226.6 582.9,226.8 582.9,227 582.9,227.1 582.9,227.3 583,227.5 
		583.1,227.7 583.1,227.8 583.2,228 583.3,228.1 583.4,228.3 583.5,228.4 583.7,228.5 583.8,228.6 	"/>
</g>
<text transform="matrix(1 1.148582e-04 -1.148582e-04 1 89.7268 176.7522)" class="st1 st7">5</text>
<text transform="matrix(1 1.148582e-04 -1.148582e-04 1 98.906 176.7533)" class="st1 st7">’</text>
<text transform="matrix(1 1.148582e-04 -1.148582e-04 1 30.0004 204.884)" class="st1 st7">3</text>
<text transform="matrix(1 1.148582e-04 -1.148582e-04 1 39.1806 204.8851)" class="st1 st7">’</text>
<text transform="matrix(1 0 0 1 340.5652 23.7143)" class="st1 st9">E2F-E1 aptamer</text>
</svg>
