<svg id="图层_1" data-name="图层 1" xmlns="http://www.w3.org/2000/svg" viewBox="0 0 800 400"><defs><style>.cls-1,.cls-10,.cls-11,.cls-12,.cls-13,.cls-14,.cls-15,.cls-16,.cls-17,.cls-18,.cls-19,.cls-2,.cls-3,.cls-4,.cls-5,.cls-7,.cls-8,.cls-9{isolation:isolate;font-family:ArialMT, Arial;}.cls-1,.cls-10,.cls-11,.cls-12,.cls-13,.cls-18,.cls-2,.cls-3,.cls-4,.cls-8,.cls-9{font-size:25.6px;}.cls-1,.cls-14,.cls-8{fill:#8527b5;}.cls-1,.cls-18,.cls-2,.cls-3,.cls-4{letter-spacing:-0.06em;}.cls-15,.cls-2,.cls-20,.cls-9{fill:#b83233;}.cls-10,.cls-16,.cls-22,.cls-3{fill:#084595;}.cls-12,.cls-17,.cls-4{fill:#2ea103;}.cls-5{font-size:24.64px;}.cls-6{letter-spacing:-0.04em;}.cls-7{font-size:20px;}.cls-11{fill:#ff870a;}.cls-13,.cls-18,.cls-19,.cls-23{fill:#cf3e7d;}.cls-14,.cls-15,.cls-16,.cls-17,.cls-19{font-size:25.6px;}.cls-20,.cls-21,.cls-22,.cls-23{stroke:#000;stroke-miterlimit:10;}.cls-21{fill:none;}</style></defs><g id="ID000015"><text class="cls-1" transform="translate(214.12 87.16) rotate(2.92)">A</text></g><g id="ID000015-2" data-name="ID000015"><text class="cls-2" transform="translate(168.89 108.62) rotate(2.92)">A</text></g><g id="ID000015-3" data-name="ID000015"><text class="cls-3" transform="translate(121.67 297.11) rotate(2.92)">A</text></g><g id="ID000015-4" data-name="ID000015"><text class="cls-4" transform="translate(106.24 167.55) rotate(2.92)">A</text></g><g id="ID000015-5" data-name="ID000015"><text class="cls-4" transform="translate(106.24 237.26) rotate(2.92)">A</text></g><g id="ID000015-6" data-name="ID000015"><text class="cls-1" transform="translate(214.12 160.66) rotate(2.92)">A</text></g><g id="ID000018"><text class="cls-5" transform="translate(164.29 217.74) rotate(1.02)">20</text></g><g id="ID000018-2" data-name="ID000018"><text class="cls-5" transform="translate(483.58 217.74) rotate(1.02)">30</text></g><g id="ID000018-3" data-name="ID000018"><text class="cls-5" transform="translate(590.56 360.58) rotate(1.02)">40</text></g><g id="ID000018-4" data-name="ID000018"><text class="cls-5" transform="translate(314.12 371.23) rotate(1.02)">50</text></g><g id="ID000018-5" data-name="ID000018"><text class="cls-5" transform="translate(106.24 93.33) rotate(1.02)">5<tspan class="cls-6" x="13.7" y="0">’</tspan></text></g><g id="ID000018-6" data-name="ID000018"><text class="cls-5" transform="translate(94.4 307.61) rotate(1.02)">3<tspan class="cls-6" x="13.7" y="0">’</tspan></text></g><text class="cls-7" transform="translate(325.63 31.47)">APT58 aptamer</text><g id="ID000015-7" data-name="ID000015"><text class="cls-8" transform="translate(261.1 145.2) rotate(2.92)">G</text></g><g id="ID000015-8" data-name="ID000015"><text class="cls-9" transform="translate(191.05 108.62) rotate(2.92)">G</text></g><g id="ID000015-9" data-name="ID000015"><text class="cls-10" transform="translate(143.54 257.68) rotate(2.92)">G</text></g><g id="ID000015-10" data-name="ID000015"><text class="cls-9" transform="translate(143.54 108.62) rotate(2.92)">G</text></g><g id="ID000015-11" data-name="ID000015"><text class="cls-11" transform="translate(261.1 108.62) rotate(2.92)">C</text></g><g id="ID000015-12" data-name="ID000015"><text class="cls-9" transform="translate(191.05 145.2) rotate(2.92)">C</text></g><g id="ID000015-13" data-name="ID000015"><text class="cls-10" transform="translate(143.54 297.11) rotate(2.92)">C</text></g><g id="ID000015-14" data-name="ID000015"><text class="cls-10" transform="translate(191.78 256.98) rotate(2.92)">G</text></g><g id="ID000015-15" data-name="ID000015"><text class="cls-10" transform="translate(191.05 297.11) rotate(2.92)">C</text></g><g id="ID000015-16" data-name="ID000015"><text class="cls-10" transform="translate(244.89 256.98) rotate(2.92)">G</text></g><g id="ID000015-17" data-name="ID000015"><text class="cls-12" transform="translate(318.67 257.68) rotate(2.92)">G</text></g><g id="ID000015-18" data-name="ID000015"><text class="cls-12" transform="translate(274.67 297.11) rotate(2.92)">G</text></g><g id="ID000015-19" data-name="ID000015"><text class="cls-12" transform="translate(295.92 315.35) rotate(2.92)">G</text></g><g id="ID000015-20" data-name="ID000015"><text class="cls-12" transform="translate(339.41 315.35) rotate(2.92)">G</text></g><g id="ID000015-21" data-name="ID000015"><text class="cls-12" transform="translate(359.7 297.11) rotate(2.92)">G</text></g><g id="ID000015-22" data-name="ID000015"><text class="cls-12" transform="translate(391.34 257.68) rotate(2.92)">G</text></g><g id="ID000015-23" data-name="ID000015"><text class="cls-12" transform="translate(423.34 257.68) rotate(2.92)">G</text></g><g id="ID000015-24" data-name="ID000015"><text class="cls-13" transform="translate(488.27 297.11) rotate(2.92)">G</text></g><g id="ID000015-25" data-name="ID000015"><text class="cls-13" transform="translate(518.45 257.68) rotate(2.92)">G</text></g><g id="ID000015-26" data-name="ID000015"><text class="cls-8" transform="translate(617.55 318.87) rotate(2.92)">G</text></g><g id="ID000015-27" data-name="ID000015"><text class="cls-10" transform="translate(244.15 297.11) rotate(2.92)">C</text></g><g id="ID000015-28" data-name="ID000015"><text class="cls-12" transform="translate(456.94 257.68) rotate(2.92)">C</text></g><g id="ID000015-29" data-name="ID000015"><text class="cls-12" transform="translate(423.33 297.11) rotate(2.92)">C</text></g><g id="ID000015-30" data-name="ID000015"><text class="cls-13" transform="translate(488.16 257.51) rotate(3.94)">C</text></g><g id="ID000015-31" data-name="ID000015"><text class="cls-8" transform="translate(617.55 237.26) rotate(2.92)">C</text></g><g id="ID000015-32" data-name="ID000015"><text class="cls-13" transform="translate(518.45 297.11) rotate(2.92)">C</text></g><g id="ID000015-33" data-name="ID000015"><text class="cls-9" transform="translate(143.54 145.2) rotate(2.92)">C</text></g><g id="ID000015-34" data-name="ID000015"><text class="cls-9" transform="translate(121.68 108.62) rotate(2.92)">G</text></g><g id="ID000015-35" data-name="ID000015"><text class="cls-9" transform="translate(121.67 145.19) rotate(2.92)">C</text></g><g id="ID000015-36" data-name="ID000015"><text class="cls-12" transform="translate(106.24 204.39) rotate(2.92)">C</text></g><g id="ID000015-37" data-name="ID000015"><text class="cls-11" transform="translate(238.14 160.66) rotate(2.92)">C</text></g><g id="ID000015-38" data-name="ID000015"><text class="cls-14" transform="translate(238.14 87.17) rotate(0.27)">U</text></g><g id="ID000015-39" data-name="ID000015"><text class="cls-15" transform="translate(168.89 145.2) rotate(0.27)">U</text></g><g id="ID000015-40" data-name="ID000015"><text class="cls-16" transform="translate(121.67 257.68) rotate(0.27)">U</text></g><g id="ID000015-41" data-name="ID000015"><text class="cls-3" transform="translate(168.89 297.11) rotate(2.92)">A</text></g><g id="ID000015-42" data-name="ID000015"><text class="cls-3" transform="translate(220.1 256.98) rotate(2.92)">A</text></g><g id="ID000015-43" data-name="ID000015"><text class="cls-4" transform="translate(359.7 256.98) rotate(2.92)">A</text></g><g id="ID000015-44" data-name="ID000015"><text class="cls-4" transform="translate(391.34 297.11) rotate(2.92)">A</text></g><g id="ID000015-45" data-name="ID000015"><text class="cls-4" transform="translate(456.94 297.11) rotate(2.92)">A</text></g><g id="ID000015-46" data-name="ID000015"><text class="cls-4" transform="translate(318.67 330.61) rotate(2.92)">A</text></g><g id="ID000015-47" data-name="ID000015"><text class="cls-16" transform="translate(168.89 257.68) rotate(0.27)">U</text></g><g id="ID000015-48" data-name="ID000015"><text class="cls-16" transform="translate(220.1 297.11) rotate(0.27)">U</text></g><g id="ID000015-49" data-name="ID000015"><text class="cls-17" transform="translate(274.67 257.68) rotate(0.27)">U</text></g><g id="ID000015-50" data-name="ID000015"><text class="cls-18" transform="translate(546.8 257.8) rotate(2.92)">A</text></g><g id="ID000015-51" data-name="ID000015"><text class="cls-19" transform="translate(546.8 297.94) rotate(0.27)">U</text></g><g id="ID000015-52" data-name="ID000015"><text class="cls-18" transform="translate(574.11 258.38) rotate(2.92)">A</text></g><g id="ID000015-53" data-name="ID000015"><text class="cls-1" transform="translate(595.7 318.87) rotate(2.92)">A</text></g><g id="ID000015-54" data-name="ID000015"><text class="cls-1" transform="translate(643.24 258.38) rotate(2.92)">A</text></g><g id="ID000015-55" data-name="ID000015"><text class="cls-1" transform="translate(643.24 297.94) rotate(2.92)">A</text></g><g id="ID000015-56" data-name="ID000015"><text class="cls-1" transform="translate(595.7 237.26) rotate(2.92)">A</text></g><g id="ID000015-57" data-name="ID000015"><text class="cls-19" transform="translate(574.11 298.52) rotate(0.27)">U</text></g><g id="ID000015-58" data-name="ID000015"><text class="cls-14" transform="translate(653.55 281.12) rotate(0.27)">U</text></g><line class="cls-20" x1="202.3" y1="112.3" x2="202.4" y2="125.9"/><line class="cls-20" x1="178.3" y1="112.3" x2="178.4" y2="125.9"/><line class="cls-20" x1="155" y1="112.3" x2="155.1" y2="125.9"/><line class="cls-21" x1="132.6" y1="112.3" x2="132.7" y2="125.9"/><line class="cls-22" x1="202.3" y1="262.9" x2="202.4" y2="276.4"/><line class="cls-22" x1="229.1" y1="262.9" x2="229.2" y2="276.4"/><line class="cls-22" x1="254.4" y1="262.9" x2="254.6" y2="276.4"/><line class="cls-22" x1="178.3" y1="262.9" x2="178.4" y2="276.4"/><line class="cls-22" x1="154.3" y1="262.7" x2="154.4" y2="276.3"/><line class="cls-22" x1="130.6" y1="262.7" x2="130.7" y2="276.3"/><line class="cls-23" x1="529.4" y1="263" x2="529.6" y2="276.5"/><line class="cls-23" x1="556.5" y1="262.7" x2="556.5" y2="276.3"/><line class="cls-23" x1="583.9" y1="262.7" x2="584" y2="276.3"/><line class="cls-23" x1="499.5" y1="262.7" x2="499.6" y2="276.3"/><line class="cls-21" x1="178.2" y1="221.6" x2="178.4" y2="235.2"/><line class="cls-21" x1="328.2" y1="334.2" x2="328.3" y2="347.7"/><line class="cls-21" x1="499.4" y1="221.6" x2="499.6" y2="235.2"/><line class="cls-21" x1="605.1" y1="323.8" x2="605.2" y2="337.4"/></svg>