<?xml version="1.0" encoding="utf-8"?>
<!-- Generator: Adobe Illustrator 25.2.0, SVG Export Plug-In . SVG Version: 6.00 Build 0)  -->
<svg version="1.1" id="图层_1" xmlns="http://www.w3.org/2000/svg" xmlns:xlink="http://www.w3.org/1999/xlink" x="0px" y="0px"
	 viewBox="0 0 800 400" style="enable-background:new 0 0 800 400;" xml:space="preserve">
<style type="text/css">
	.st0{font-family:'ArialMT';}
	.st1{font-size:20px;}
	.st2{fill:#B83233;}
	.st3{font-family:'Helvetica';}
	.st4{font-size:22.8161px;}
	.st5{fill:none;stroke:#000000;stroke-width:0.5;stroke-miterlimit:1.1121;}
	.st6{fill:none;stroke:#000000;stroke-miterlimit:1.1121;}
	.st7{stroke:#000000;stroke-width:0.139;stroke-miterlimit:1.1121;}
	.st8{fill:none;stroke:#000000;stroke-width:2.0851;stroke-miterlimit:1.1121;}
	.st9{fill:#F17D07;}
</style>
<text transform="matrix(1 0 0 1 275.8594 75.6456)" class="st0 st1">FB4 (truncated version) aptamer</text>
<g>
	<g id="ID000002">
		<g transform="translate(218.940,451.872)">
			<g transform="rotate(-0.0)">
				<text transform="matrix(1 0 0 1 4.335 -238.245)" class="st2 st3 st4">G</text>
			</g>
		</g>
	</g>
	<g id="ID000003">
		<g transform="translate(281.495,451.872)">
			<g transform="rotate(-0.0)">
				<text transform="matrix(1 0 0 1 -35.5657 -238.245)" class="st2 st3 st4">G</text>
			</g>
		</g>
	</g>
	<g id="ID000004">
		<g transform="translate(344.049,451.872)">
			<g transform="rotate(-0.0)">
				<text transform="matrix(1 0 0 1 -74.2007 -238.245)" class="st2 st3 st4">A</text>
			</g>
		</g>
	</g>
	<g id="ID000005">
		<g transform="translate(406.603,451.872)">
			<g transform="rotate(-0.0)">
				<text transform="matrix(1 0 0 1 -114.7293 -238.245)" class="st2 st3 st4">C</text>
			</g>
		</g>
	</g>
	<g id="ID000006">
		<g transform="translate(469.158,451.872)">
			<g transform="rotate(-0.0)">
				<text transform="matrix(1 0 0 1 -155.2643 -238.245)" class="st2 st3 st4">G</text>
			</g>
		</g>
	</g>
	<g id="ID000007">
		<g transform="translate(531.712,451.872)">
			<g transform="rotate(-0.0)">
				<text transform="matrix(1 0 0 1 -195.164 -238.245)" class="st2 st3 st4">G</text>
			</g>
		</g>
	</g>
	<g id="ID000008">
		<g transform="translate(594.266,451.872)">
			<g transform="rotate(-0.0)">
				<text transform="matrix(1 0 0 1 -233.8 -238.245)" class="st2 st3 st4">A</text>
			</g>
		</g>
	</g>
	<g id="ID000009">
		<g transform="translate(656.821,451.872)">
			<g transform="rotate(-0.0)">
				<text transform="matrix(1 0 0 1 -274.3297 -238.245)" class="st2 st3 st4">U</text>
			</g>
		</g>
	</g>
	<g id="ID000010">
		<g transform="translate(719.375,451.872)">
			<g transform="rotate(-0.0)">
				<text transform="matrix(1 0 0 1 -314.2279 -238.245)" class="st2 st3 st4">U</text>
			</g>
		</g>
	</g>
	<g id="ID000011">
		<g transform="translate(656.821,576.981)">
			<g transform="rotate(-0.0)">
				<text transform="matrix(1 0 0 1 -274.9639 -318.0435)" class="st2 st3 st4">G</text>
			</g>
		</g>
	</g>
	<g id="ID000012">
		<g transform="translate(594.266,576.981)">
			<g transform="rotate(-0.0)">
				<text transform="matrix(1 0 0 1 -234.428 -318.0435)" class="st2 st3 st4">U</text>
			</g>
		</g>
	</g>
	<g id="ID000013">
		<g transform="translate(531.712,576.981)">
			<g transform="rotate(-0.0)">
				<text transform="matrix(1 0 0 1 -194.5292 -318.0435)" class="st2 st3 st4">C</text>
			</g>
		</g>
	</g>
	<g id="ID000014">
		<line class="st5" x1="345.4" y1="263.8" x2="345.4" y2="278.9"/>
	</g>
	<g id="ID000015">
		<g transform="translate(531.712,706.051)">
			<g transform="rotate(-0.0)">
				<text transform="matrix(1 0 0 1 -198.9804 -400.3703)" class="st3 st4">30</text>
			</g>
		</g>
	</g>
	<g id="ID000016">
		<g transform="translate(469.158,576.981)">
			<g transform="rotate(-0.0)">
				<text transform="matrix(1 0 0 1 -154.63 -318.0435)" class="st2 st3 st4">C</text>
			</g>
		</g>
	</g>
	<g id="ID000017">
		<g transform="translate(406.603,576.981)">
			<g transform="rotate(-0.0)">
				<text transform="matrix(1 0 0 1 -115.3646 -318.0435)" class="st2 st3 st4">G</text>
			</g>
		</g>
	</g>
	<g id="ID000018">
		<g transform="translate(344.049,576.981)">
			<g transform="rotate(-0.0)">
				<text transform="matrix(1 0 0 1 -74.8306 -318.0435)" class="st2 st3 st4">U</text>
			</g>
		</g>
	</g>
	<g id="ID000019">
		<g transform="translate(281.495,576.981)">
			<g transform="rotate(-0.0)">
				<text transform="matrix(1 0 0 1 -34.9309 -318.0435)" class="st2 st3 st4">U</text>
			</g>
		</g>
	</g>
	<g id="ID000020">
		<g transform="translate(218.940,576.981)">
			<g transform="rotate(-0.0)">
				<text transform="matrix(1 0 0 1 4.9693 -318.0435)" class="st2 st3 st4">C</text>
			</g>
		</g>
	</g>
	<g id="ID000021">
		<g transform="translate(156.386,576.981)">
			<g transform="rotate(-0.0)">
				<text transform="matrix(1 0 0 1 44.2342 -318.0435)" class="st2 st3 st4">G</text>
			</g>
		</g>
	</g>
	<g id="ID000022">
		<line class="st6" x1="232.1" y1="212.5" x2="232.1" y2="239.7"/>
	</g>
	<g id="ID000023">
		<polygon class="st7" points="254.8,230.6 255.1,230.6 255.4,230.6 255.7,230.5 255.9,230.5 256.2,230.4 256.5,230.3 256.8,230.2 
			257,230 257.3,229.9 257.5,229.7 257.7,229.6 257.9,229.4 258.1,229.2 258.3,228.9 258.5,228.7 258.7,228.5 258.8,228.2 
			258.9,228 259,227.7 259.1,227.4 259.2,227.2 259.3,226.9 259.3,226.6 259.3,226.3 259.3,226 259.3,225.7 259.3,225.4 
			259.2,225.2 259.2,224.9 259.1,224.6 259,224.3 258.9,224.1 258.7,223.8 258.6,223.6 258.4,223.3 258.2,223.1 258,222.9 
			257.8,222.7 257.6,222.5 257.4,222.4 257.1,222.2 256.9,222.1 256.6,221.9 256.4,221.8 256.1,221.7 255.8,221.7 255.5,221.6 
			255.2,221.6 254.9,221.6 254.7,221.6 254.4,221.6 254.1,221.6 253.8,221.7 253.5,221.7 253.3,221.8 253,221.9 252.7,222.1 
			252.5,222.2 252.2,222.4 252,222.5 251.8,222.7 251.6,222.9 251.4,223.1 251.2,223.3 251,223.6 250.9,223.8 250.7,224.1 
			250.6,224.3 250.5,224.6 250.4,224.9 250.4,225.2 250.3,225.4 250.3,225.7 250.3,226 250.3,226.3 250.3,226.6 250.3,226.9 
			250.4,227.2 250.5,227.4 250.6,227.7 250.7,228 250.8,228.2 251,228.5 251.1,228.7 251.3,228.9 251.5,229.2 251.7,229.4 
			251.9,229.6 252.1,229.7 252.4,229.9 252.6,230 252.9,230.2 253.1,230.3 253.4,230.4 253.7,230.5 253.9,230.5 254.2,230.6 
			254.5,230.6 		"/>
	</g>
	<g id="ID000024">
		<line class="st6" x1="277.5" y1="212.5" x2="277.5" y2="239.7"/>
	</g>
	<g id="ID000025">
		<line class="st6" x1="300.1" y1="212.5" x2="300.1" y2="239.7"/>
	</g>
	<g id="ID000026">
		<line class="st6" x1="322.8" y1="212.5" x2="322.8" y2="239.7"/>
	</g>
	<g id="ID000027">
		<line class="st6" x1="345.4" y1="212.5" x2="345.4" y2="239.7"/>
	</g>
	<g id="ID000028">
		<line class="st6" x1="368.1" y1="212.5" x2="368.1" y2="239.7"/>
	</g>
	<g id="ID000029">
		<polygon class="st7" points="390.7,230.6 391,230.6 391.3,230.6 391.6,230.5 391.9,230.5 392.1,230.4 392.4,230.3 392.7,230.2 
			392.9,230 393.2,229.9 393.4,229.7 393.6,229.6 393.9,229.4 394.1,229.2 394.2,228.9 394.4,228.7 394.6,228.5 394.7,228.2 
			394.9,228 395,227.7 395.1,227.4 395.1,227.2 395.2,226.9 395.2,226.6 395.3,226.3 395.3,226 395.2,225.7 395.2,225.4 
			395.2,225.2 395.1,224.9 395,224.6 394.9,224.3 394.8,224.1 394.7,223.8 394.5,223.6 394.3,223.3 394.2,223.1 394,222.9 
			393.8,222.7 393.5,222.5 393.3,222.4 393.1,222.2 392.8,222.1 392.5,221.9 392.3,221.8 392,221.7 391.7,221.7 391.4,221.6 
			391.2,221.6 390.9,221.6 390.6,221.6 390.3,221.6 390,221.6 389.7,221.7 389.5,221.7 389.2,221.8 388.9,221.9 388.7,222.1 
			388.4,222.2 388.2,222.4 387.9,222.5 387.7,222.7 387.5,222.9 387.3,223.1 387.1,223.3 387,223.6 386.8,223.8 386.7,224.1 
			386.6,224.3 386.4,224.6 386.4,224.9 386.3,225.2 386.2,225.4 386.2,225.7 386.2,226 386.2,226.3 386.2,226.6 386.3,226.9 
			386.3,227.2 386.4,227.4 386.5,227.7 386.6,228 386.7,228.2 386.9,228.5 387,228.7 387.2,228.9 387.4,229.2 387.6,229.4 
			387.8,229.6 388,229.7 388.3,229.9 388.5,230 388.8,230.2 389,230.3 389.3,230.4 389.6,230.5 389.9,230.5 390.2,230.6 
			390.4,230.6 		"/>
	</g>
	<g id="ID000030">
		<line class="st8" x1="427" y1="248.7" x2="399.8" y2="248.7"/>
	</g>
	<g id="ID000031">
		<polygon class="st7" points="420.9,255.5 417.2,252.1 413.4,251 409.6,250.4 402.1,248.7 409.6,247 413.4,246.5 417.2,245.3 
			420.9,241.9 		"/>
	</g>
	<g id="ID000033">
		<g transform="translate(781.929,451.872)">
			<g transform="rotate(-0.0)">
				<text transform="matrix(1 0 0 1 -354.7634 -238.245)" class="st2 st3 st4">G</text>
			</g>
		</g>
	</g>
	<g id="ID000034">
		<line class="st5" x1="436" y1="188.3" x2="436" y2="173.2"/>
	</g>
	<g id="ID000035">
		<g transform="translate(781.929,324.678)">
			<g transform="rotate(-0.0)">
				<text transform="matrix(1 0 0 1 -358.5783 -157.1155)" class="st3 st4">10</text>
			</g>
		</g>
	</g>
	<g id="ID000036">
		<g transform="translate(844.484,451.872)">
			<g transform="rotate(-0.0)">
				<text transform="matrix(1 0 0 1 -394.0273 -238.245)" class="st2 st3 st4">C</text>
			</g>
		</g>
	</g>
	<g id="ID000037">
		<g transform="translate(907.038,451.872)">
			<g transform="rotate(-0.0)">
				<text transform="matrix(1 0 0 1 -434.5633 -238.245)" class="st2 st3 st4">G</text>
			</g>
		</g>
	</g>
	<g id="ID000038">
		<g transform="translate(907.038,576.981)">
			<g transform="rotate(-0.0)">
				<text transform="matrix(1 0 0 1 -434.5633 -318.0435)" class="st2 st3 st4">G</text>
			</g>
		</g>
	</g>
	<g id="ID000039">
		<g transform="translate(844.484,576.981)">
			<g transform="rotate(-0.0)">
				<text transform="matrix(1 0 0 1 -394.6626 -318.0435)" class="st2 st3 st4">G</text>
			</g>
		</g>
	</g>
	<g id="ID000040">
		<g transform="translate(781.929,576.981)">
			<g transform="rotate(-0.0)">
				<text transform="matrix(1 0 0 1 -354.1286 -318.0435)" class="st2 st3 st4">C</text>
			</g>
		</g>
	</g>
	<g id="ID000041">
		<line class="st6" x1="436" y1="212.5" x2="436" y2="239.7"/>
	</g>
	<g id="ID000042">
		<line class="st6" x1="458.7" y1="212.5" x2="458.7" y2="239.7"/>
	</g>
	<g id="ID000044">
		<g transform="translate(969.592,451.872)">
			<g transform="rotate(-0.0)">
				<text transform="matrix(1 0 0 1 -474.461 -238.245)" class="st2 st3 st4">G</text>
			</g>
		</g>
	</g>
	<g id="ID000045">
		<g transform="translate(1032.147,451.872)">
			<g transform="rotate(-0.0)">
				<text transform="matrix(1 0 0 1 -513.726 -238.245)" class="st2 st3 st4">C</text>
			</g>
		</g>
	</g>
	<g id="ID000046">
		<g transform="translate(1094.701,436.234)">
			<g transform="rotate(-0.0)">
				<text transform="matrix(1 0 0 1 -553.6267 -228.2701)" class="st9 st3 st4">C</text>
			</g>
		</g>
	</g>
	<g id="ID000047">
		<g transform="translate(1157.255,420.595)">
			<g transform="rotate(-0.0)">
				<text transform="matrix(1 0 0 1 -594.1597 -218.2952)" class="st9 st3 st4">G</text>
			</g>
		</g>
	</g>
	<g id="ID000048">
		<g transform="translate(1219.810,436.234)">
			<g transform="rotate(-0.0)">
				<text transform="matrix(1 0 0 1 -633.4247 -228.2701)" class="st9 st3 st4">U</text>
			</g>
		</g>
	</g>
	<g id="ID000049">
		<g transform="translate(1282.364,483.149)">
			<g transform="rotate(-0.0)">
				<text transform="matrix(1 0 0 1 -673.3253 -258.1939)" class="st9 st3 st4">U</text>
			</g>
		</g>
	</g>
	<g id="ID000050">
		<g transform="translate(1282.364,561.342)">
			<g transform="rotate(-0.0)">
				<text transform="matrix(1 0 0 1 -673.9596 -308.0685)" class="st9 st3 st4">G</text>
			</g>
		</g>
	</g>
	<g id="ID000051">
		<g transform="translate(1219.810,608.258)">
			<g transform="rotate(-0.0)">
				<text transform="matrix(1 0 0 1 -633.4247 -337.9933)" class="st9 st3 st4">U</text>
			</g>
		</g>
	</g>
	<g id="ID000052">
		<line class="st5" x1="594.6" y1="275.2" x2="594.6" y2="290.3"/>
	</g>
	<g id="ID000053">
		<g transform="translate(1219.810,737.329)">
			<g transform="rotate(-0.0)">
				<text transform="matrix(1 0 0 1 -637.8763 -420.3192)" class="st3 st4">20</text>
			</g>
		</g>
	</g>
	<g id="ID000054">
		<g transform="translate(1157.255,623.897)">
			<g transform="rotate(-0.0)">
				<text transform="matrix(1 0 0 1 -593.5259 -347.9692)" class="st9 st3 st4">C</text>
			</g>
		</g>
	</g>
	<g id="ID000055">
		<g transform="translate(1094.701,608.258)">
			<g transform="rotate(-0.0)">
				<text transform="matrix(1 0 0 1 -553.6267 -337.9933)" class="st9 st3 st4">U</text>
			</g>
		</g>
	</g>
	<g id="ID000056">
		<g transform="translate(1032.147,576.981)">
			<g transform="rotate(-0.0)">
				<text transform="matrix(1 0 0 1 -514.3627 -318.0435)" class="st2 st3 st4">G</text>
			</g>
		</g>
	</g>
	<g id="ID000057">
		<g transform="translate(969.592,576.981)">
			<g transform="rotate(-0.0)">
				<text transform="matrix(1 0 0 1 -473.8272 -318.0435)" class="st2 st3 st4">U</text>
			</g>
		</g>
	</g>
	<g id="ID000058">
		<polygon class="st7" points="504,230.6 504.3,230.6 504.6,230.6 504.9,230.5 505.1,230.5 505.4,230.4 505.7,230.3 506,230.2 
			506.2,230 506.5,229.9 506.7,229.7 506.9,229.6 507.1,229.4 507.3,229.2 507.5,228.9 507.7,228.7 507.9,228.5 508,228.2 
			508.1,228 508.2,227.7 508.3,227.4 508.4,227.2 508.5,226.9 508.5,226.6 508.5,226.3 508.5,226 508.5,225.7 508.5,225.4 
			508.4,225.2 508.4,224.9 508.3,224.6 508.2,224.3 508.1,224.1 507.9,223.8 507.8,223.6 507.6,223.3 507.4,223.1 507.2,222.9 
			507,222.7 506.8,222.5 506.6,222.4 506.3,222.2 506.1,222.1 505.8,221.9 505.6,221.8 505.3,221.7 505,221.7 504.7,221.6 
			504.4,221.6 504.1,221.6 503.9,221.6 503.6,221.6 503.3,221.6 503,221.7 502.7,221.7 502.5,221.8 502.2,221.9 501.9,222.1 
			501.7,222.2 501.4,222.4 501.2,222.5 501,222.7 500.8,222.9 500.6,223.1 500.4,223.3 500.2,223.6 500.1,223.8 499.9,224.1 
			499.8,224.3 499.7,224.6 499.6,224.9 499.6,225.2 499.5,225.4 499.5,225.7 499.5,226 499.5,226.3 499.5,226.6 499.5,226.9 
			499.6,227.2 499.7,227.4 499.8,227.7 499.9,228 500,228.2 500.2,228.5 500.3,228.7 500.5,228.9 500.7,229.2 500.9,229.4 
			501.1,229.6 501.3,229.7 501.6,229.9 501.8,230 502.1,230.2 502.3,230.3 502.6,230.4 502.9,230.5 503.1,230.5 503.4,230.6 
			503.7,230.6 		"/>
	</g>
	<g id="ID000059">
		<line class="st6" x1="526.7" y1="212.5" x2="526.7" y2="239.7"/>
	</g>
	<text transform="matrix(1 0 0 1 205.7071 186.8858)" class="st0 st1">5’</text>
	<text transform="matrix(1 0 0 1 176.1997 280.384)" class="st0 st1">3’</text>
</g>
</svg>
