<?xml version="1.0" encoding="utf-8"?>
<!-- Generator: Adobe Illustrator 25.2.0, SVG Export Plug-In . SVG Version: 6.00 Build 0)  -->
<svg version="1.1" id="图层_1" xmlns="http://www.w3.org/2000/svg" xmlns:xlink="http://www.w3.org/1999/xlink" x="0px" y="0px"
	 viewBox="0 0 800 400" style="enable-background:new 0 0 800 400;" xml:space="preserve">
<style type="text/css">
	.st0{font-family:'ArialMT';}
	.st1{font-size:20px;}
	.st2{fill:#C2B617;}
	.st3{font-size:14.963px;}
	.st4{fill:#B83233;}
	.st5{fill:none;stroke:#000000;stroke-width:0.5;stroke-miterlimit:1.1121;}
	.st6{fill:none;stroke:#000000;stroke-miterlimit:1.1121;}
	.st7{fill:#084595;}
	.st8{stroke:#000000;stroke-width:0.139;stroke-miterlimit:1.1121;}
	.st9{fill:none;stroke:#000000;stroke-width:1.0565;stroke-miterlimit:1.1121;}
	.st10{fill:#F17D07;}
	.st11{font-size:14px;}
</style>
<text transform="matrix(1 0 0 1 338.3429 82.6057)" class="st0 st1">FB4 aptamer</text>
<g id="ID000002">
	<g transform="translate(641.182,383.063)">
		<g transform="rotate(-0.0)">
			<text transform="matrix(1 0 0 1 -280.3674 -191.1487)" class="st2 st0 st3">G</text>
		</g>
	</g>
</g>
<g id="ID000003">
	<g transform="translate(609.905,367.424)">
		<g transform="rotate(-0.0)">
			<text transform="matrix(1 0 0 1 -264.1881 -183.0566)" class="st2 st0 st3">G</text>
		</g>
	</g>
</g>
<g id="ID000004">
	<g transform="translate(578.628,367.424)">
		<g transform="rotate(-0.0)">
			<text transform="matrix(1 0 0 1 -248.0077 -183.0566)" class="st2 st0 st3">G</text>
		</g>
	</g>
</g>
<g id="ID000005">
	<g transform="translate(547.351,367.424)">
		<g transform="rotate(-0.0)">
			<text transform="matrix(1 0 0 1 -231.4104 -183.0566)" class="st2 st0 st3">C</text>
		</g>
	</g>
</g>
<g id="ID000006">
	<g transform="translate(516.073,383.063)">
		<g transform="rotate(-0.0)">
			<text transform="matrix(1 0 0 1 -215.6461 -191.1487)" class="st2 st0 st3">G</text>
		</g>
	</g>
</g>
<g id="ID000007">
	<g transform="translate(484.796,390.882)">
		<g transform="rotate(-0.0)">
			<text transform="matrix(1 0 0 1 -198.6367 -195.1924)" class="st2 st0 st3">A</text>
		</g>
	</g>
</g>
<g id="ID000008">
	<g transform="translate(453.519,414.340)">
		<g transform="rotate(-0.0)">
			<text transform="matrix(1 0 0 1 -182.4564 -207.3281)" class="st2 st0 st3">A</text>
		</g>
	</g>
</g>
<g id="ID000009">
	<g transform="translate(422.242,437.798)">
		<g transform="rotate(-0.0)">
			<text transform="matrix(1 0 0 1 -166.6891 -219.4619)" class="st4 st0 st3">U</text>
		</g>
	</g>
</g>
<g id="ID000010">
	<g transform="translate(390.965,437.798)">
		<g transform="rotate(-0.0)">
			<text transform="matrix(1 0 0 1 -150.5078 -219.4619)" class="st4 st0 st3">U</text>
		</g>
	</g>
</g>
<g id="ID000011">
	<g transform="translate(359.688,437.798)">
		<g transform="rotate(-0.0)">
			<text transform="matrix(1 0 0 1 -134.3285 -219.4619)" class="st4 st0 st3">C</text>
		</g>
	</g>
</g>
<g id="ID000012">
	<line class="st5" x1="230.8" y1="201.5" x2="230.8" y2="191.4"/>
</g>
<g id="ID000013">
	<g transform="translate(359.688,374.201)">
		<g transform="rotate(-0.0)">
			<text transform="matrix(1 0 0 1 -137.2464 -186.5621)" class="st0 st3">10</text>
		</g>
	</g>
</g>
<g id="ID000014">
	<g transform="translate(328.410,437.798)">
		<g transform="rotate(-0.0)">
			<text transform="matrix(1 0 0 1 -118.1472 -219.4619)" class="st4 st0 st3">C</text>
		</g>
	</g>
</g>
<g id="ID000015">
	<g transform="translate(297.133,437.798)">
		<g transform="rotate(-0.0)">
			<text transform="matrix(1 0 0 1 -102.3838 -219.4619)" class="st4 st0 st3">G</text>
		</g>
	</g>
</g>
<g id="ID000016">
	<g transform="translate(265.856,437.798)">
		<g transform="rotate(-0.0)">
			<text transform="matrix(1 0 0 1 -85.7865 -219.4619)" class="st4 st0 st3">C</text>
		</g>
	</g>
</g>
<g id="ID000017">
	<g transform="translate(242.398,414.340)">
		<g transform="rotate(-0.0)">
			<text transform="matrix(1 0 0 1 -74.0678 -207.3281)" class="st4 st0 st3">G</text>
		</g>
	</g>
</g>
<g id="ID000018">
	<g transform="translate(218.940,398.701)">
		<g transform="rotate(-0.0)">
			<text transform="matrix(1 0 0 1 -61.516 -199.2379)" class="st4 st0 st3">U</text>
		</g>
	</g>
</g>
<g id="ID000019">
	<g transform="translate(187.663,398.701)">
		<g transform="rotate(-0.0)">
			<text transform="matrix(1 0 0 1 -45.7517 -199.2379)" class="st4 st0 st3">G</text>
		</g>
	</g>
</g>
<g id="ID000020">
	<g transform="translate(164.205,414.340)">
		<g transform="rotate(-0.0)">
			<text transform="matrix(1 0 0 1 -33.201 -207.3281)" class="st4 st0 st3">U</text>
		</g>
	</g>
</g>
<g id="ID000021">
	<g transform="translate(140.747,429.978)">
		<g transform="rotate(-0.0)">
			<text transform="matrix(1 0 0 1 -21.4822 -215.4173)" class="st4 st0 st3">G</text>
		</g>
	</g>
</g>
<g id="ID000022">
	<g transform="translate(132.928,469.075)">
		<g transform="rotate(-0.0)">
			<text transform="matrix(1 0 0 1 -17.0197 -235.6432)" class="st4 st0 st3">C</text>
		</g>
	</g>
</g>
<g id="ID000023">
	<g transform="translate(140.747,508.171)">
		<g transform="rotate(-0.0)">
			<text transform="matrix(1 0 0 1 -21.0652 -255.8681)" class="st4 st0 st3">U</text>
		</g>
	</g>
</g>
<g id="ID000024">
	<line class="st5" x1="118" y1="252.6" x2="110.9" y2="259.7"/>
</g>
<g id="ID000025">
	<g transform="translate(111.259,560.492)">
		<g transform="rotate(-0.0)">
			<text transform="matrix(1 0 0 1 -17.0509 -282.9352)" class="st0 st3">20</text>
		</g>
	</g>
</g>
<g id="ID000026">
	<g transform="translate(164.205,523.810)">
		<g transform="rotate(-0.0)">
			<text transform="matrix(1 0 0 1 -33.617 -263.9602)" class="st4 st0 st3">G</text>
		</g>
	</g>
</g>
<g id="ID000027">
	<g transform="translate(187.663,539.448)">
		<g transform="rotate(-0.0)">
			<text transform="matrix(1 0 0 1 -44.9226 -272.0494)" class="st4 st0 st3">A</text>
		</g>
	</g>
</g>
<g id="ID000028">
	<g transform="translate(218.940,539.448)">
		<g transform="rotate(-0.0)">
			<text transform="matrix(1 0 0 1 -61.933 -272.0494)" class="st4 st0 st3">G</text>
		</g>
	</g>
</g>
<g id="ID000029">
	<g transform="translate(242.398,523.810)">
		<g transform="rotate(-0.0)">
			<text transform="matrix(1 0 0 1 -74.0678 -263.9602)" class="st4 st0 st3">G</text>
		</g>
	</g>
</g>
<g id="ID000030">
	<g transform="translate(265.856,500.352)">
		<g transform="rotate(-0.0)">
			<text transform="matrix(1 0 0 1 -86.2035 -251.8245)" class="st4 st0 st3">G</text>
		</g>
	</g>
</g>
<g id="ID000031">
	<g transform="translate(297.133,500.352)">
		<g transform="rotate(-0.0)">
			<text transform="matrix(1 0 0 1 -101.9668 -251.8245)" class="st4 st0 st3">C</text>
		</g>
	</g>
</g>
<g id="ID000032">
	<g transform="translate(328.410,500.352)">
		<g transform="rotate(-0.0)">
			<text transform="matrix(1 0 0 1 -118.5632 -251.8245)" class="st4 st0 st3">G</text>
		</g>
	</g>
</g>
<g id="ID000033">
	<g transform="translate(359.688,500.352)">
		<g transform="rotate(-0.0)">
			<text transform="matrix(1 0 0 1 -134.7445 -251.8245)" class="st4 st0 st3">G</text>
		</g>
	</g>
</g>
<g id="ID000034">
	<g transform="translate(390.965,500.352)">
		<g transform="rotate(-0.0)">
			<text transform="matrix(1 0 0 1 -150.0967 -251.8245)" class="st4 st0 st3">A</text>
		</g>
	</g>
</g>
<g id="ID000035">
	<g transform="translate(422.242,500.352)">
		<g transform="rotate(-0.0)">
			<text transform="matrix(1 0 0 1 -166.276 -251.8245)" class="st4 st0 st3">A</text>
		</g>
	</g>
</g>
<g id="ID000036">
	<line class="st5" x1="261" y1="251.8" x2="261" y2="261.9"/>
</g>
<g id="ID000037">
	<g transform="translate(422.242,564.887)">
		<g transform="rotate(-0.0)">
			<text transform="matrix(1 0 0 1 -169.6081 -285.2091)" class="st0 st3">30</text>
		</g>
	</g>
</g>
<g id="ID000038">
	<g transform="translate(453.519,523.810)">
		<g transform="rotate(-0.0)">
			<text transform="matrix(1 0 0 1 -183.2865 -263.9602)" class="st2 st0 st3">G</text>
		</g>
	</g>
</g>
<g id="ID000039">
	<g transform="translate(484.796,539.448)">
		<g transform="rotate(-0.0)">
			<text transform="matrix(1 0 0 1 -198.6367 -272.0494)" class="st2 st0 st3">A</text>
		</g>
	</g>
</g>
<g id="ID000040">
	<g transform="translate(516.073,555.087)">
		<g transform="rotate(-0.0)">
			<text transform="matrix(1 0 0 1 -214.817 -280.1395)" class="st2 st0 st3">A</text>
		</g>
	</g>
</g>
<g id="ID000041">
	<g transform="translate(547.351,562.906)">
		<g transform="rotate(-0.0)">
			<text transform="matrix(1 0 0 1 -231.4104 -284.1851)" class="st2 st0 st3">C</text>
		</g>
	</g>
</g>
<g id="ID000042">
	<g transform="translate(578.628,570.726)">
		<g transform="rotate(-0.0)">
			<text transform="matrix(1 0 0 1 -247.5907 -288.2297)" class="st2 st0 st3">U</text>
		</g>
	</g>
</g>
<g id="ID000043">
	<g transform="translate(609.905,570.726)">
		<g transform="rotate(-0.0)">
			<text transform="matrix(1 0 0 1 -263.359 -288.2297)" class="st2 st0 st3">A</text>
		</g>
	</g>
</g>
<g id="ID000044">
	<line class="st6" x1="261" y1="217.6" x2="261" y2="235.7"/>
</g>
<g id="ID000045">
	<line class="st6" x1="245.9" y1="217.6" x2="245.9" y2="235.7"/>
</g>
<g id="ID000046">
	<line class="st6" x1="230.8" y1="217.6" x2="230.8" y2="235.7"/>
</g>
<g id="ID000047">
	<line class="st6" x1="215.7" y1="217.6" x2="215.7" y2="235.7"/>
</g>
<g id="ID000048">
	<line class="st6" x1="200.6" y1="217.6" x2="200.6" y2="235.7"/>
</g>
<g id="ID000049">
	<line class="st6" x1="185.5" y1="217.6" x2="185.5" y2="235.7"/>
</g>
<g id="ID000050">
	<g transform="translate(641.182,562.906)">
		<g transform="rotate(-0.0)">
			<text transform="matrix(1 0 0 1 -279.5383 -284.1851)" class="st2 st0 st3">A</text>
		</g>
	</g>
</g>
<g id="ID000051">
	<g transform="translate(672.459,555.087)">
		<g transform="rotate(-0.0)">
			<text transform="matrix(1 0 0 1 -296.1327 -280.1395)" class="st2 st0 st3">U</text>
		</g>
	</g>
</g>
<g id="ID000052">
	<g transform="translate(703.736,539.448)">
		<g transform="rotate(-0.0)">
			<text transform="matrix(1 0 0 1 -312.3121 -272.0494)" class="st2 st0 st3">U</text>
		</g>
	</g>
</g>
<g id="ID000053">
	<g>
		<g transform="translate(735.014,523.810)">
			<g transform="rotate(-0.0)">
				<text transform="matrix(1 0 0 1 -328.4923 -263.9602)" class="st2 st0 st3">U</text>
			</g>
		</g>
	</g>
</g>
<g id="ID000054">
	<line class="st5" x1="411.9" y1="263.1" x2="411.9" y2="273.2"/>
</g>
<g id="ID000055">
	<g transform="translate(735.014,588.345)">
		<g transform="rotate(-0.0)">
			<text transform="matrix(1 0 0 1 -331.4123 -297.3448)" class="st0 st3">40</text>
		</g>
	</g>
</g>
<g id="ID000056">
	<g>
		<g transform="translate(766.291,500.352)">
			<g transform="rotate(-0.0)">
				<text transform="matrix(1 0 0 1 -345.0907 -251.8245)" class="st2 st0 st3">G</text>
			</g>
		</g>
	</g>
</g>
<g id="ID000057">
	<g transform="translate(797.568,500.352)">
		<g transform="rotate(-0.0)">
			<text transform="matrix(1 0 0 1 -361.271 -251.8245)" class="st7 st0 st3">G</text>
		</g>
	</g>
</g>
<g id="ID000058">
	<g transform="translate(828.845,500.352)">
		<g transform="rotate(-0.0)">
			<text transform="matrix(1 0 0 1 -377.4503 -251.8245)" class="st7 st0 st3">G</text>
		</g>
	</g>
</g>
<g id="ID000059">
	<g transform="translate(860.122,500.352)">
		<g transform="rotate(-0.0)">
			<text transform="matrix(1 0 0 1 -392.8015 -251.8245)" class="st7 st0 st3">A</text>
		</g>
	</g>
</g>
<g id="ID000060">
	<g transform="translate(891.399,500.352)">
		<g transform="rotate(-0.0)">
			<text transform="matrix(1 0 0 1 -409.395 -251.8245)" class="st7 st0 st3">C</text>
		</g>
	</g>
</g>
<g id="ID000061">
	<g transform="translate(922.677,500.352)">
		<g transform="rotate(-0.0)">
			<text transform="matrix(1 0 0 1 -425.9923 -251.8245)" class="st7 st0 st3">G</text>
		</g>
	</g>
</g>
<g id="ID000062">
	<g transform="translate(953.954,500.352)">
		<g transform="rotate(-0.0)">
			<text transform="matrix(1 0 0 1 -442.1721 -251.8245)" class="st7 st0 st3">G</text>
		</g>
	</g>
</g>
<g id="ID000063">
	<g transform="translate(985.231,500.352)">
		<g transform="rotate(-0.0)">
			<text transform="matrix(1 0 0 1 -457.5233 -251.8245)" class="st7 st0 st3">A</text>
		</g>
	</g>
</g>
<g id="ID000064">
	<g transform="translate(1016.508,500.352)">
		<g transform="rotate(-0.0)">
			<text transform="matrix(1 0 0 1 -474.1168 -251.8245)" class="st7 st0 st3">U</text>
		</g>
	</g>
</g>
<g id="ID000065">
	<g transform="translate(1047.785,500.352)">
		<g transform="rotate(-0.0)">
			<text transform="matrix(1 0 0 1 -490.2961 -251.8245)" class="st7 st0 st3">U</text>
		</g>
	</g>
</g>
<g id="ID000066">
	<line class="st5" x1="562.9" y1="251.8" x2="562.9" y2="261.9"/>
</g>
<g id="ID000067">
	<g transform="translate(1047.785,564.887)">
		<g transform="rotate(-0.0)">
			<text transform="matrix(1 0 0 1 -493.2141 -285.2091)" class="st0 st3">50</text>
		</g>
	</g>
</g>
<g id="ID000068">
	<g transform="translate(1016.508,437.798)">
		<g transform="rotate(-0.0)">
			<text transform="matrix(1 0 0 1 -474.5328 -219.4619)" class="st7 st0 st3">G</text>
		</g>
	</g>
</g>
<g id="ID000069">
	<g transform="translate(985.231,437.798)">
		<g transform="rotate(-0.0)">
			<text transform="matrix(1 0 0 1 -457.9374 -219.4619)" class="st7 st0 st3">U</text>
		</g>
	</g>
</g>
<g id="ID000070">
	<line class="st5" x1="532.7" y1="201.5" x2="532.7" y2="191.4"/>
</g>
<g id="ID000071">
	<g transform="translate(985.231,374.201)">
		<g transform="rotate(-0.0)">
			<text transform="matrix(1 0 0 1 -460.8554 -186.5621)" class="st0 st3">70</text>
		</g>
	</g>
</g>
<g id="ID000072">
	<g transform="translate(953.954,437.798)">
		<g transform="rotate(-0.0)">
			<text transform="matrix(1 0 0 1 -441.7561 -219.4619)" class="st7 st0 st3">C</text>
		</g>
	</g>
</g>
<g id="ID000073">
	<g transform="translate(922.677,437.798)">
		<g transform="rotate(-0.0)">
			<text transform="matrix(1 0 0 1 -425.5753 -219.4619)" class="st7 st0 st3">C</text>
		</g>
	</g>
</g>
<g id="ID000074">
	<g transform="translate(891.399,437.798)">
		<g transform="rotate(-0.0)">
			<text transform="matrix(1 0 0 1 -409.81 -219.4619)" class="st7 st0 st3">G</text>
		</g>
	</g>
</g>
<g id="ID000075">
	<g transform="translate(860.122,437.798)">
		<g transform="rotate(-0.0)">
			<text transform="matrix(1 0 0 1 -393.2137 -219.4619)" class="st7 st0 st3">U</text>
		</g>
	</g>
</g>
<g id="ID000076">
	<g transform="translate(828.845,437.798)">
		<g transform="rotate(-0.0)">
			<text transform="matrix(1 0 0 1 -377.0353 -219.4619)" class="st7 st0 st3">U</text>
		</g>
	</g>
</g>
<g id="ID000077">
	<g transform="translate(797.568,437.798)">
		<g transform="rotate(-0.0)">
			<text transform="matrix(1 0 0 1 -360.854 -219.4619)" class="st7 st0 st3">C</text>
		</g>
	</g>
</g>
<g id="ID000078">
	<g>
		<g transform="translate(766.291,414.340)">
			<g transform="rotate(-0.0)">
				<text transform="matrix(1 0 0 1 -345.0907 -207.3281)" class="st2 st0 st3">G</text>
			</g>
		</g>
	</g>
</g>
<g id="ID000079">
	<g>
		<g transform="translate(735.014,398.701)">
			<g transform="rotate(-0.0)">
				<text transform="matrix(1 0 0 1 -328.9093 -199.2379)" class="st2 st0 st3">G</text>
			</g>
		</g>
	</g>
</g>
<g id="ID000080">
	<g>
		<g transform="translate(703.736,398.701)">
			<g transform="rotate(-0.0)">
				<text transform="matrix(1 0 0 1 -312.7291 -199.2379)" class="st2 st0 st3">G</text>
			</g>
		</g>
	</g>
</g>
<g id="ID000081">
	<line class="st6" x1="442.1" y1="235.7" x2="442.1" y2="217.6"/>
</g>
<g id="ID000082">
	<polygon class="st8" points="457.2,223.6 457,223.6 456.8,223.6 456.6,223.7 456.5,223.7 456.3,223.8 456.1,223.8 455.9,223.9 
		455.7,224 455.6,224.1 455.4,224.2 455.3,224.3 455.1,224.5 455,224.6 454.9,224.7 454.8,224.9 454.6,225 454.6,225.2 454.5,225.4 
		454.4,225.6 454.3,225.7 454.3,225.9 454.2,226.1 454.2,226.3 454.2,226.5 454.2,226.7 454.2,226.9 454.2,227.1 454.3,227.3 
		454.3,227.4 454.4,227.6 454.4,227.8 454.5,228 454.6,228.1 454.7,228.3 454.8,228.5 454.9,228.6 455.1,228.8 455.2,228.9 
		455.3,229 455.5,229.1 455.7,229.2 455.8,229.3 456,229.4 456.2,229.5 456.4,229.5 456.5,229.6 456.7,229.6 456.9,229.6 
		457.1,229.7 457.3,229.7 457.5,229.6 457.7,229.6 457.9,229.6 458.1,229.5 458.2,229.5 458.4,229.4 458.6,229.3 458.8,229.2 
		458.9,229.1 459.1,229 459.2,228.9 459.4,228.8 459.5,228.6 459.6,228.5 459.7,228.3 459.8,228.1 459.9,228 460,227.8 460.1,227.6 
		460.1,227.4 460.2,227.3 460.2,227.1 460.2,226.9 460.2,226.7 460.2,226.5 460.2,226.3 460.2,226.1 460.1,225.9 460.1,225.7 
		460,225.6 460,225.4 459.9,225.2 459.8,225 459.7,224.9 459.6,224.7 459.4,224.6 459.3,224.5 459.2,224.3 459,224.2 458.8,224.1 
		458.7,224 458.5,223.9 458.3,223.8 458.2,223.8 458,223.7 457.8,223.7 457.6,223.6 457.4,223.6 	"/>
</g>
<g id="ID000083">
	<line class="st6" x1="472.3" y1="235.7" x2="472.3" y2="217.6"/>
</g>
<g id="ID000084">
	<line class="st6" x1="487.4" y1="235.7" x2="487.4" y2="217.6"/>
</g>
<g id="ID000085">
	<line class="st6" x1="502.5" y1="235.7" x2="502.5" y2="217.6"/>
</g>
<g id="ID000086">
	<line class="st6" x1="517.6" y1="235.7" x2="517.6" y2="217.6"/>
</g>
<g id="ID000087">
	<line class="st6" x1="532.7" y1="235.7" x2="532.7" y2="217.6"/>
</g>
<g id="ID000088">
	<polygon class="st8" points="547.8,223.6 547.6,223.6 547.4,223.6 547.2,223.7 547,223.7 546.9,223.8 546.7,223.8 546.5,223.9 
		546.3,224 546.2,224.1 546,224.2 545.9,224.3 545.7,224.5 545.6,224.6 545.5,224.7 545.3,224.9 545.2,225 545.1,225.2 545,225.4 
		545,225.6 544.9,225.7 544.9,225.9 544.8,226.1 544.8,226.3 544.8,226.5 544.8,226.7 544.8,226.9 544.8,227.1 544.8,227.3 
		544.9,227.4 544.9,227.6 545,227.8 545.1,228 545.2,228.1 545.3,228.3 545.4,228.5 545.5,228.6 545.6,228.8 545.8,228.9 545.9,229 
		546.1,229.1 546.2,229.2 546.4,229.3 546.6,229.4 546.8,229.5 546.9,229.5 547.1,229.6 547.3,229.6 547.5,229.6 547.7,229.7 
		547.9,229.7 548.1,229.6 548.3,229.6 548.5,229.6 548.6,229.5 548.8,229.5 549,229.4 549.2,229.3 549.3,229.2 549.5,229.1 
		549.7,229 549.8,228.9 549.9,228.8 550.1,228.6 550.2,228.5 550.3,228.3 550.4,228.1 550.5,228 550.6,227.8 550.6,227.6 
		550.7,227.4 550.8,227.3 550.8,227.1 550.8,226.9 550.8,226.7 550.8,226.5 550.8,226.3 550.8,226.1 550.7,225.9 550.7,225.7 
		550.6,225.6 550.5,225.4 550.5,225.2 550.4,225 550.3,224.9 550.1,224.7 550,224.6 549.9,224.5 549.7,224.3 549.6,224.2 
		549.4,224.1 549.3,224 549.1,223.9 548.9,223.8 548.7,223.8 548.6,223.7 548.4,223.7 548.2,223.6 548,223.6 	"/>
</g>
<g id="ID000089">
	<line class="st9" x1="572" y1="211.5" x2="553.8" y2="211.5"/>
</g>
<g id="ID000090">
	<polygon class="st8" points="567.9,216.1 565.4,213.8 562.9,213.1 560.4,212.7 555.3,211.5 560.4,210.4 562.9,210 565.4,209.3 
		567.9,207 	"/>
</g>
<g id="ID000091">
	<g transform="translate(1079.062,500.352)">
		<g transform="rotate(-0.0)">
			<text transform="matrix(1 0 0 1 -506.8934 -251.8245)" class="st7 st0 st3">G</text>
		</g>
	</g>
</g>
<g id="ID000092">
	<g transform="translate(1110.340,500.352)">
		<g transform="rotate(-0.0)">
			<text transform="matrix(1 0 0 1 -522.6577 -251.8245)" class="st7 st0 st3">C</text>
		</g>
	</g>
</g>
<g id="ID000093">
	<g transform="translate(1141.617,500.352)">
		<g transform="rotate(-0.0)">
			<text transform="matrix(1 0 0 1 -539.255 -251.8245)" class="st7 st0 st3">G</text>
		</g>
	</g>
</g>
<g id="ID000094">
	<g transform="translate(1141.617,437.798)">
		<g transform="rotate(-0.0)">
			<text transform="matrix(1 0 0 1 -539.255 -219.4619)" class="st7 st0 st3">G</text>
		</g>
	</g>
</g>
<g id="ID000095">
	<g transform="translate(1110.340,437.798)">
		<g transform="rotate(-0.0)">
			<text transform="matrix(1 0 0 1 -523.0737 -219.4619)" class="st7 st0 st3">G</text>
		</g>
	</g>
</g>
<g id="ID000096">
	<g transform="translate(1079.062,437.798)">
		<g transform="rotate(-0.0)">
			<text transform="matrix(1 0 0 1 -506.4774 -219.4619)" class="st7 st0 st3">C</text>
		</g>
	</g>
</g>
<g id="ID000097">
	<line class="st6" x1="578" y1="235.7" x2="578" y2="217.6"/>
</g>
<g id="ID000098">
	<line class="st6" x1="593.1" y1="235.7" x2="593.1" y2="217.6"/>
</g>
<g id="ID000099">
	<g transform="translate(1172.894,500.352)">
		<g transform="rotate(-0.0)">
			<text transform="matrix(1 0 0 1 -555.4364 -251.8245)" class="st7 st0 st3">G</text>
		</g>
	</g>
</g>
<g id="ID000100">
	<g transform="translate(1204.171,500.352)">
		<g transform="rotate(-0.0)">
			<text transform="matrix(1 0 0 1 -571.1997 -251.8245)" class="st7 st0 st3">C</text>
		</g>
	</g>
</g>
<g id="ID000101">
	<g transform="translate(1235.448,515.990)">
		<g transform="rotate(-0.0)">
			<text transform="matrix(1 0 0 1 -587.379 -259.9136)" class="st10 st0 st3">C</text>
		</g>
	</g>
</g>
<g id="ID000102">
	<g transform="translate(1266.726,523.810)">
		<g transform="rotate(-0.0)">
			<text transform="matrix(1 0 0 1 -603.9753 -263.9602)" class="st10 st0 st3">G</text>
		</g>
	</g>
</g>
<g id="ID000103">
	<g transform="translate(1298.003,515.990)">
		<g transform="rotate(-0.0)">
			<text transform="matrix(1 0 0 1 -619.7407 -259.9136)" class="st10 st0 st3">U</text>
		</g>
	</g>
</g>
<g id="ID000104">
	<g transform="translate(1329.280,484.713)">
		<g transform="rotate(-0.0)">
			<text transform="matrix(1 0 0 1 -635.92 -243.7343)" class="st10 st0 st3">U</text>
		</g>
	</g>
</g>
<g id="ID000105">
	<g transform="translate(1329.280,445.617)">
		<g transform="rotate(-0.0)">
			<text transform="matrix(1 0 0 1 -636.338 -223.5074)" class="st10 st0 st3">G</text>
		</g>
	</g>
</g>
<g id="ID000106">
	<line class="st5" x1="698.8" y1="205.3" x2="698.8" y2="195.2"/>
</g>
<g id="ID000107">
	<g transform="translate(1329.280,382.020)">
		<g transform="rotate(-0.0)">
			<text transform="matrix(1 0 0 1 -638.84 -190.6077)" class="st0 st3">60</text>
		</g>
	</g>
</g>
<g id="ID000108">
	<g transform="translate(1298.003,422.159)">
		<g transform="rotate(-0.0)">
			<text transform="matrix(1 0 0 1 -619.7407 -211.3737)" class="st10 st0 st3">U</text>
		</g>
	</g>
</g>
<g id="ID000109">
	<g transform="translate(1266.726,414.340)">
		<g transform="rotate(-0.0)">
			<text transform="matrix(1 0 0 1 -603.5593 -207.3281)" class="st10 st0 st3">C</text>
		</g>
	</g>
</g>
<g id="ID000110">
	<g transform="translate(1235.448,422.159)">
		<g transform="rotate(-0.0)">
			<text transform="matrix(1 0 0 1 -587.379 -211.3737)" class="st10 st0 st3">U</text>
		</g>
	</g>
</g>
<g id="ID000111">
	<g transform="translate(1204.171,437.798)">
		<g transform="rotate(-0.0)">
			<text transform="matrix(1 0 0 1 -571.6157 -219.4619)" class="st7 st0 st3">G</text>
		</g>
	</g>
</g>
<g id="ID000112">
	<g transform="translate(1172.894,437.798)">
		<g transform="rotate(-0.0)">
			<text transform="matrix(1 0 0 1 -555.0184 -219.4619)" class="st7 st0 st3">U</text>
		</g>
	</g>
</g>
<g id="ID000113">
	<polygon class="st8" points="623.3,223.6 623.1,223.6 622.9,223.6 622.7,223.7 622.5,223.7 622.3,223.8 622.2,223.8 622,223.9 
		621.8,224 621.6,224.1 621.5,224.2 621.3,224.3 621.2,224.5 621.1,224.6 620.9,224.7 620.8,224.9 620.7,225 620.6,225.2 
		620.5,225.4 620.5,225.6 620.4,225.7 620.3,225.9 620.3,226.1 620.3,226.3 620.3,226.5 620.3,226.7 620.3,226.9 620.3,227.1 
		620.3,227.3 620.4,227.4 620.4,227.6 620.5,227.8 620.6,228 620.7,228.1 620.8,228.3 620.9,228.5 621,228.6 621.1,228.8 
		621.3,228.9 621.4,229 621.6,229.1 621.7,229.2 621.9,229.3 622.1,229.4 622.2,229.5 622.4,229.5 622.6,229.6 622.8,229.6 
		623,229.6 623.2,229.7 623.4,229.7 623.6,229.6 623.8,229.6 623.9,229.6 624.1,229.5 624.3,229.5 624.5,229.4 624.7,229.3 
		624.8,229.2 625,229.1 625.1,229 625.3,228.9 625.4,228.8 625.6,228.6 625.7,228.5 625.8,228.3 625.9,228.1 626,228 626.1,227.8 
		626.1,227.6 626.2,227.4 626.2,227.3 626.3,227.1 626.3,226.9 626.3,226.7 626.3,226.5 626.3,226.3 626.3,226.1 626.2,225.9 
		626.2,225.7 626.1,225.6 626,225.4 625.9,225.2 625.8,225 625.7,224.9 625.6,224.7 625.5,224.6 625.4,224.5 625.2,224.3 
		625.1,224.2 624.9,224.1 624.7,224 624.6,223.9 624.4,223.8 624.2,223.8 624,223.7 623.9,223.7 623.7,223.6 623.5,223.6 	"/>
</g>
<g id="ID000114">
	<line class="st6" x1="638.4" y1="235.7" x2="638.4" y2="217.6"/>
</g>
<text transform="matrix(1 0 0 1 362.3667 173.34)" class="st0 st11">5’</text>
<text transform="matrix(1 0 0 1 392.6808 180.8869)" class="st0 st11">3’</text>
</svg>
