<?xml version="1.0" encoding="utf-8"?>
<!-- Generator: Adobe Illustrator 25.2.0, SVG Export Plug-In . SVG Version: 6.00 Build 0)  -->
<svg version="1.1" id="图层_1" xmlns="http://www.w3.org/2000/svg" xmlns:xlink="http://www.w3.org/1999/xlink" x="0px" y="0px"
	 viewBox="0 0 800 400" style="enable-background:new 0 0 800 400;" xml:space="preserve">
<style type="text/css">
	.st0{fill:#999999;}
	.st1{font-family:'ArialMT';}
	.st2{font-size:20.4095px;}
	.st3{fill:#F17D07;}
	.st4{fill:#18988C;}
	.st5{fill:none;stroke:#000000;stroke-miterlimit:1.11;}
	.st6{font-size:14.3414px;}
	.st7{fill:#C2B617;}
	.st8{fill:none;stroke:#000000;stroke-miterlimit:10;}
	.st9{stroke:#000000;stroke-width:0.14;stroke-miterlimit:1.11;}
	.st10{fill:none;stroke:#000000;stroke-width:1.08;stroke-miterlimit:1.11;}
	.st11{font-size:20px;}
</style>
<g id="ID000002">
	<text transform="matrix(1 0 0 1 339.0654 197.9134)" class="st0 st1 st2">A</text>
</g>
<g id="ID000003">
	<g>
		<g>
			<text transform="matrix(1 0 0 1 364.3506 197.9134)" class="st3 st1 st2">C</text>
		</g>
	</g>
</g>
<g id="ID000004">
	<g>
		<text transform="matrix(1 0 0 1 385.5938 192.7494)" class="st4 st1 st2">A</text>
	</g>
</g>
<g id="ID000005">
	<g>
		<g>
			<text transform="matrix(1 0 0 1 384.4648 172.0629)" class="st3 st1 st2">G</text>
		</g>
	</g>
</g>
<g id="ID000006">
	<g>
		<g>
			<text transform="matrix(1 0 0 1 385.0293 151.384)" class="st3 st1 st2">C</text>
		</g>
	</g>
</g>
<g id="ID000007">
	<g>
		<text transform="matrix(1 0 0 1 385.5938 130.6965)" class="st4 st1 st2">A</text>
	</g>
</g>
<g id="ID000008">
	<g>
		<text transform="matrix(1 0 0 1 372.9023 110.2601)" class="st4 st1 st2">C</text>
	</g>
</g>
<g id="ID000009">
	<g>
		<text transform="matrix(1 0 0 1 382.6543 87.8607)" class="st4 st1 st2">U</text>
	</g>
</g>
<g id="ID000010">
	<g>
		<text transform="matrix(1 0 0 1 406.2275 79.6869)" class="st4 st1 st2">G</text>
	</g>
</g>
<g id="ID000011">
	<g>
		<text transform="matrix(1 0 0 1 428.0088 87.8607)" class="st4 st1 st2">A</text>
	</g>
</g>
<g id="ID000012">
	<line class="st5" x1="445.8" y1="81.3" x2="459.6" y2="81.3"/>
</g>
<g id="ID000013">
	<text transform="matrix(1 0 0 1 459.6133 86.0951)" class="st1 st6">10</text>
</g>
<g id="ID000014">
	<g>
		<text transform="matrix(1 0 0 1 436.7383 110.0179)" class="st4 st1 st2">U</text>
	</g>
</g>
<g id="ID000015">
	<g>
		<text transform="matrix(1 0 0 1 426.3955 130.6965)" class="st4 st1 st2">U</text>
	</g>
</g>
<g id="ID000016">
	<g>
		<text transform="matrix(1 0 0 1 425.8213 151.384)" class="st4 st1 st2">G</text>
	</g>
</g>
<g id="ID000017">
	<g>
		<text transform="matrix(1 0 0 1 426.3955 172.0629)" class="st4 st1 st2">C</text>
	</g>
</g>
<g id="ID000018">
	<g>
		<text transform="matrix(1 0 0 1 425.8213 192.7494)" class="st4 st1 st2">G</text>
	</g>
</g>
<g id="ID000019">
	<line class="st5" x1="400.7" y1="183.5" x2="425.5" y2="183.5"/>
</g>
<g id="ID000020">
	<line class="st5" x1="400.7" y1="162.8" x2="425.5" y2="162.8"/>
</g>
<g id="ID000021">
	<line class="st5" x1="400.7" y1="142.1" x2="425.5" y2="142.1"/>
</g>
<g id="ID000022">
	<line class="st5" x1="400.7" y1="121.3" x2="425.5" y2="121.3"/>
</g>
<g id="ID000024">
	<g>
		<text transform="matrix(1 0 0 1 425.8213 239.2787)" class="st7 st1 st2">G</text>
	</g>
</g>
<g id="ID000025">
	<g>
		<text transform="matrix(1 0 0 1 426.3955 259.9574)" class="st3 st1 st2">U</text>
	</g>
</g>
<g id="ID000026">
	<g>
		<text transform="matrix(1 0 0 1 426.3955 280.6449)" class="st7 st1 st2">C</text>
	</g>
</g>
<g id="ID000027">
	<g>
		<text transform="matrix(1 0 0 1 425.8213 301.3226)" class="st7 st1 st2">G</text>
	</g>
</g>
<g id="ID000028">
	<g>
		<text transform="matrix(1 0 0 1 426.96 322.0013)" class="st7 st1 st2">A</text>
	</g>
</g>
<g id="ID000029">
	<g>
		<line class="st8" x1="447.6" y1="312.7" x2="461.4" y2="312.7"/>
	</g>
</g>
<g id="ID000030">
	<text transform="matrix(1 0 0 1 461.3438 317.5199)" class="st1 st6">20</text>
</g>
<g id="ID000031">
	<g>
		<text transform="matrix(1 0 0 1 425.8213 342.6898)" class="st7 st1 st2">G</text>
	</g>
</g>
<g id="ID000032">
	<text transform="matrix(1 0 0 1 436.166 363.3676)" class="st7 st1 st2">G</text>
</g>
<g id="ID000033">
	<text transform="matrix(1 0 0 1 416.0518 384.0551)" class="st7 st1 st2">U</text>
</g>
<g id="ID000034">
	<text transform="matrix(1 0 0 1 390.7656 384.0551)" class="st7 st1 st2">A</text>
</g>
<g id="ID000035">
	<text transform="matrix(1 0 0 1 374.1211 363.3676)" class="st7 st1 st2">G</text>
</g>
<g id="ID000036">
	<g>
		<text transform="matrix(1 0 0 1 385.0293 342.6898)" class="st7 st1 st2">C</text>
	</g>
</g>
<g id="ID000037">
	<g>
		<text transform="matrix(1 0 0 1 385.0293 322.0013)" class="st7 st1 st2">U</text>
	</g>
</g>
<g id="ID000038">
	<g>
		<text transform="matrix(1 0 0 1 385.0293 301.3226)" class="st7 st1 st2">U</text>
	</g>
</g>
<g id="ID000039">
	<g>
		<text transform="matrix(1 0 0 1 384.4648 280.6449)" class="st7 st1 st2">G</text>
	</g>
</g>
<g id="ID000040">
	<g>
		<text transform="matrix(1 0 0 1 385.5938 259.9574)" class="st7 st1 st2">A</text>
	</g>
</g>
<g id="ID000041">
	<line class="st5" x1="382.7" y1="260.4" x2="372.9" y2="270.1"/>
</g>
<g id="ID000042">
	<text transform="matrix(1 0 0 1 351.9902 282.9037)" class="st1 st6">30</text>
</g>
<g id="ID000043">
	<g>
		<text transform="matrix(1 0 0 1 385.0293 239.2787)" class="st7 st1 st2">U</text>
	</g>
</g>
<g id="ID000044">
	<g>
		<text transform="matrix(1 0 0 1 363.7861 234.1068)" class="st7 st1 st2">G</text>
	</g>
</g>
<g id="ID000045">
	<text transform="matrix(1 0 0 1 337.9268 234.1068)" class="st0 st1 st2">G</text>
</g>
<g id="ID000046">
	<polygon class="st9" points="408.9,230 408.9,230.3 408.9,230.5 409,230.8 409,231 409.1,231.2 409.2,231.5 409.4,231.8 409.5,232 
		409.6,232.2 409.8,232.4 409.9,232.7 410.1,232.9 410.3,233 410.5,233.2 410.6,233.3 410.9,233.5 411.1,233.6 411.4,233.7 
		411.6,233.8 411.9,233.9 412.1,234 412.3,234 412.6,234.1 412.9,234.1 413.2,234.1 413.4,234.1 413.7,234 414,234 414.2,233.9 
		414.4,233.8 414.7,233.7 414.9,233.7 415.1,233.6 415.4,233.4 415.6,233.3 415.8,233.1 416,232.9 416.2,232.8 416.3,232.5 
		416.5,232.3 416.7,232.1 416.7,231.9 416.8,231.6 417,231.4 417,231.1 417.1,230.9 417.2,230.6 417.2,230.3 417.2,230.1 
		417.2,229.8 417.2,229.5 417.2,229.4 417.1,229.1 417,228.8 417,228.5 416.8,228.3 416.7,228.1 416.7,227.8 416.5,227.7 
		416.3,227.4 416.2,227.2 416,227 415.8,226.8 415.6,226.7 415.4,226.5 415.1,226.4 414.9,226.2 414.7,226.1 414.4,226 414.2,226 
		414,226 413.7,225.9 413.4,225.9 413.2,225.9 412.9,225.9 412.6,225.9 412.3,225.9 412.1,226 411.9,226 411.6,226.1 411.4,226.2 
		411.1,226.3 410.9,226.5 410.6,226.6 410.5,226.8 410.3,226.9 410.1,227.1 409.9,227.3 409.8,227.6 409.6,227.7 409.5,227.9 
		409.4,228.2 409.2,228.5 409.1,228.6 409,228.9 409,229.2 408.9,229.4 408.9,229.7 	"/>
</g>
<g id="ID000047">
	<line class="st5" x1="425.5" y1="250.7" x2="400.7" y2="250.7"/>
</g>
<g id="ID000048">
	<line class="st5" x1="425.5" y1="271.3" x2="400.7" y2="271.3"/>
</g>
<g id="ID000049">
	<polygon class="st9" points="408.9,292 408.9,292.3 408.9,292.5 409,292.8 409,293.1 409.1,293.3 409.2,293.5 409.4,293.8 
		409.5,294 409.6,294.3 409.8,294.4 409.9,294.7 410.1,294.9 410.3,295.1 410.5,295.2 410.6,295.4 410.9,295.5 411.1,295.7 
		411.4,295.8 411.6,295.9 411.9,296 412.1,296 412.3,296.1 412.6,296.1 412.9,296.1 413.2,296.1 413.4,296.1 413.7,296.1 414,296 
		414.2,296 414.4,296 414.7,295.9 414.9,295.7 415.1,295.6 415.4,295.4 415.6,295.3 415.8,295.1 416,295 416.2,294.8 416.3,294.6 
		416.5,294.3 416.7,294.2 416.7,293.9 416.8,293.7 417,293.4 417,293.2 417.1,292.9 417.2,292.6 417.2,292.4 417.2,292.2 
		417.2,291.9 417.2,291.7 417.2,291.4 417.1,291.1 417,290.8 417,290.6 416.8,290.4 416.7,290.1 416.7,289.9 416.5,289.7 
		416.3,289.5 416.2,289.2 416,289.1 415.8,288.9 415.6,288.7 415.4,288.6 415.1,288.4 414.9,288.3 414.7,288.2 414.4,288.2 
		414.2,288.1 414,288 413.7,287.9 413.4,287.9 413.2,287.9 412.9,287.9 412.6,287.9 412.3,288 412.1,288 411.9,288.1 411.6,288.2 
		411.4,288.2 411.1,288.3 410.9,288.5 410.6,288.6 410.5,288.8 410.3,289 410.1,289.1 409.9,289.3 409.8,289.6 409.6,289.8 
		409.5,290 409.4,290.2 409.2,290.5 409.1,290.8 409,290.9 409,291.2 408.9,291.5 408.9,291.7 	"/>
</g>
<g id="ID000050">
	<line class="st5" x1="425.5" y1="312.7" x2="400.7" y2="312.7"/>
</g>
<g id="ID000051">
	<line class="st5" x1="425.5" y1="333.4" x2="400.7" y2="333.4"/>
</g>
<g id="ID000053">
	<line class="st10" x1="433.8" y1="191.7" x2="433.8" y2="221.7"/>
</g>
<g id="ID000054">
	<polygon class="st9" points="437.4,200.7 435.6,202.6 435,204.7 434.7,206.8 433.8,210.9 432.9,206.8 432.5,204.7 431.9,202.6 
		430.1,200.7 	"/>
</g>
<text transform="matrix(1 0 0 1 321.417 188.7796)" class="st1 st6">5</text>
<text transform="matrix(1 0 0 1 329.3945 188.7796)" class="st1 st6">’</text>
<text transform="matrix(1 0 0 1 319.2471 239.5209)" class="st1 st6">3</text>
<text transform="matrix(1 0 0 1 327.2246 239.5209)" class="st1 st6">’</text>
<text transform="matrix(1 0 0 1 337.3203 32.4658)" class="st1 st11">FC* RNA aptamer</text>
</svg>
