<?xml version="1.0" encoding="utf-8"?>
<!-- Generator: Adobe Illustrator 27.0.0, SVG Export Plug-In . SVG Version: 6.00 Build 0)  -->
<svg version="1.1" id="图层_1" xmlns="http://www.w3.org/2000/svg" xmlns:xlink="http://www.w3.org/1999/xlink" x="0px" y="0px"
	 viewBox="0 0 800 400" style="enable-background:new 0 0 800 400;" xml:space="preserve">
<style type="text/css">
	.st0{fill:#B83332;}
	.st1{font-family:'ArialMT';}
	.st2{font-size:22.1193px;}
	.st3{fill:#084595;}
	.st4{fill:#C2B617;}
	.st5{font-size:22.1195px;}
	.st6{fill:#CF3E7D;}
	.st7{opacity:0.75;}
	.st8{stroke:#000000;stroke-width:7.000000e-02;stroke-miterlimit:10;}
	.st9{font-size:16px;}
	.st10{fill:#FFFFFF;stroke:#000000;stroke-miterlimit:10;}
	.st11{fill:#FFFFFF;stroke:#000000;stroke-width:0.5;stroke-miterlimit:10;}
	.st12{font-size:15.4183px;}
	.st13{font-size:18.502px;}
</style>
<text transform="matrix(0.9997 -2.454979e-02 2.454979e-02 0.9997 93.4198 127.9926)" class="st0 st1 st2">C</text>
<text transform="matrix(0.9997 -2.454979e-02 2.454979e-02 0.9997 114.6441 128.1581)" class="st0 st1 st2">C</text>
<text transform="matrix(0.9997 -2.454979e-02 2.454979e-02 0.9997 185.6889 179.0719)" class="st0 st1 st2">C</text>
<text transform="matrix(0.9997 -2.454979e-02 2.454979e-02 0.9997 135.4185 128.3406)" class="st0 st1 st2">G</text>
<text transform="matrix(0.9997 -2.454979e-02 2.454979e-02 0.9997 157.3708 128.4355)" class="st0 st1 st2">U</text>
<text transform="matrix(0.9997 -2.454979e-02 2.454979e-02 0.9997 177.8652 128.6717)" class="st0 st1 st2">G</text>
<text transform="matrix(0.9997 -2.454979e-02 2.454979e-02 0.9997 212.9648 128.8374)" class="st0 st1 st2">G</text>
<text transform="matrix(0.9997 -2.454979e-02 2.454979e-02 0.9997 234.9161 128.9313)" class="st0 st1 st2">U</text>
<text transform="matrix(0.9997 -2.454979e-02 2.454979e-02 0.9997 256.1395 129.0968)" class="st0 st1 st2">U</text>
<text transform="matrix(0.9997 -2.454979e-02 2.454979e-02 0.9997 276.6348 129.332)" class="st0 st1 st2">G</text>
<text transform="matrix(0.9997 -2.454979e-02 2.454979e-02 0.9997 298.5862 129.4279)" class="st0 st1 st2">U</text>
<text transform="matrix(0.9997 -2.454979e-02 2.454979e-02 0.9997 93.1715 160.0084)" class="st0 st1 st2">G</text>
<text transform="matrix(0.9997 -2.454979e-02 2.454979e-02 0.9997 34.6836 132.6196)" class="st0 st1 st2">G</text>
<text transform="matrix(0.9997 -2.454979e-02 2.454979e-02 0.9997 34.4358 155.3845)" class="st0 st1 st2">G</text>
<text transform="matrix(0.9997 -2.454979e-02 2.454979e-02 0.9997 73.5444 117.8808)" class="st0 st1 st2">U</text>
<text transform="matrix(0.9997 -2.454979e-02 2.454979e-02 0.9997 73.1072 171.481)" class="st0 st1 st2">U</text>
<text transform="matrix(0.9997 -2.454979e-02 2.454979e-02 0.9997 54.1616 117.8811)" class="st0 st1 st2">A</text>
<text transform="matrix(0.9997 -2.454979e-02 2.454979e-02 0.9997 203.721 178.9651)" class="st0 st1 st2">A</text>
<text transform="matrix(0.9997 -2.454979e-02 2.454979e-02 0.9997 196.4719 113.2981)" class="st0 st1 st2">A</text>
<text transform="matrix(0.9997 -2.454979e-02 2.454979e-02 0.9997 53.7235 171.4812)" class="st0 st1 st2">C</text>
<text transform="matrix(0.9997 -2.454979e-02 2.454979e-02 0.9997 114.3948 160.1739)" class="st0 st1 st2">G</text>
<text transform="matrix(0.9997 -2.454979e-02 2.454979e-02 0.9997 135.1702 160.3563)" class="st0 st1 st2">C</text>
<text transform="matrix(0.9997 -2.454979e-02 2.454979e-02 0.9997 157.1215 160.4503)" class="st0 st1 st2">A</text>
<text transform="matrix(0.9997 -2.454979e-02 2.454979e-02 0.9997 177.6169 160.6874)" class="st0 st1 st2">C</text>
<text transform="matrix(0.9997 -2.454979e-02 2.454979e-02 0.9997 212.7165 160.8521)" class="st0 st1 st2">C</text>
<text transform="matrix(0.9997 -2.454979e-02 2.454979e-02 0.9997 234.6678 160.9461)" class="st0 st1 st2">G</text>
<text transform="matrix(0.9997 -2.454979e-02 2.454979e-02 0.9997 255.8912 161.1116)" class="st0 st1 st2">G</text>
<text transform="matrix(0.9997 -2.454979e-02 2.454979e-02 0.9997 276.3866 161.3488)" class="st0 st1 st2">C</text>
<text transform="matrix(0.9997 -2.454979e-02 2.454979e-02 0.9997 298.3379 161.4427)" class="st0 st1 st2">A</text>
<text transform="matrix(0.9997 -2.454979e-02 2.454979e-02 0.9997 468.2157 129.7979)" class="st3 st1 st2">G</text>
<text transform="matrix(0.9997 -2.454979e-02 2.454979e-02 0.9997 489.438 129.9625)" class="st3 st1 st2">C</text>
<text transform="matrix(0.9997 -2.454979e-02 2.454979e-02 0.9997 531.7991 130.1452)" class="st3 st1 st2">G</text>
<text transform="matrix(0.9997 -2.454979e-02 2.454979e-02 0.9997 518.2966 111.7563)" class="st3 st1 st2">G</text>
<text transform="matrix(0.9997 -2.454979e-02 2.454979e-02 0.9997 501.2358 111.7552)" class="st3 st1 st2">G</text>
<text transform="matrix(0.9997 -2.454979e-02 2.454979e-02 0.9997 553.7513 130.2401)" class="st3 st1 st2">U</text>
<text transform="matrix(0.9997 -2.454979e-02 2.454979e-02 0.9997 574.2467 130.4763)" class="st3 st1 st2">G</text>
<text transform="matrix(0.9997 -2.454979e-02 2.454979e-02 0.9997 595.4691 130.6418)" class="st3 st1 st2">G</text>
<text transform="matrix(0.9997 -2.454979e-02 2.454979e-02 0.9997 736.1005 168.397)" class="st3 st1 st2">C</text>
<text transform="matrix(0.9997 -2.454979e-02 2.454979e-02 0.9997 617.4204 130.7358)" class="st3 st1 st2">U</text>
<text transform="matrix(0.9997 -2.454979e-02 2.454979e-02 0.9997 638.6437 130.9013)" class="st3 st1 st2">A</text>
<text transform="matrix(0.9997 -2.454979e-02 2.454979e-02 0.9997 673.0154 131.1367)" class="st3 st1 st2">U</text>
<text transform="matrix(0.9997 -2.454979e-02 2.454979e-02 0.9997 655.5175 113.2982)" class="st3 st1 st2">U</text>
<text transform="matrix(0.9997 -2.454979e-02 2.454979e-02 0.9997 694.9667 131.2316)" class="st3 st1 st2">A</text>
<text transform="matrix(0.9997 -2.454979e-02 2.454979e-02 0.9997 737.0984 120.9657)" class="st3 st1 st2">A</text>
<text transform="matrix(0.9997 -2.454979e-02 2.454979e-02 0.9997 467.9664 161.8127)" class="st3 st1 st2">C</text>
<text transform="matrix(0.9997 -2.454979e-02 2.454979e-02 0.9997 531.7991 161.813)" class="st3 st1 st2">C</text>
<text transform="matrix(0.9997 -2.454979e-02 2.454979e-02 0.9997 489.1898 161.9782)" class="st3 st1 st2">G</text>
<text transform="matrix(0.9997 -2.454979e-02 2.454979e-02 0.9997 749.8613 144.8021)" class="st3 st1 st2">G</text>
<text transform="matrix(0.9997 -2.454979e-02 2.454979e-02 0.9997 553.5021 162.2559)" class="st3 st1 st2">A</text>
<text transform="matrix(0.9997 -2.454979e-02 2.454979e-02 0.9997 512.7144 171.4817)" class="st3 st1 st2">A</text>
<text transform="matrix(0.9997 -2.454979e-02 2.454979e-02 0.9997 573.9974 162.4911)" class="st3 st1 st2">C</text>
<text transform="matrix(0.9997 -2.454979e-02 2.454979e-02 0.9997 595.2208 162.6566)" class="st3 st1 st2">C</text>
<text transform="matrix(0.9997 -2.454979e-02 2.454979e-02 0.9997 617.1721 162.7505)" class="st3 st1 st2">G</text>
<text transform="matrix(0.9997 -2.454979e-02 2.454979e-02 0.9997 638.3964 162.9161)" class="st3 st1 st2">U</text>
<text transform="matrix(0.9997 -2.454979e-02 2.454979e-02 0.9997 672.7671 163.1524)" class="st3 st1 st2">A</text>
<text transform="matrix(0.9997 -2.454979e-02 2.454979e-02 0.9997 694.7184 163.2464)" class="st3 st1 st2">U</text>
<text transform="matrix(0.9997 -2.454979e-02 2.454979e-02 0.9997 716.8759 131.4028)" class="st3 st1 st2">G</text>
<text transform="matrix(0.9997 -2.454979e-02 2.454979e-02 0.9997 716.6276 163.4185)" class="st3 st1 st2">C</text>
<text transform="matrix(0.9997 -2.454979e-02 2.454979e-02 0.9997 655.2725 178.6647)" class="st3 st1 st2">C</text>
<text transform="matrix(0.9996 2.780404e-02 -2.780404e-02 0.9996 309.8004 111.7566)" class="st4 st1 st2">G</text>
<text transform="matrix(0.9996 2.780404e-02 -2.780404e-02 0.9996 295.6171 207.4325)" class="st4 st1 st2">G</text>
<text transform="matrix(0.9996 2.780404e-02 -2.780404e-02 0.9996 295.618 183.2376)" class="st4 st1 st2">G</text>
<text transform="matrix(0.9996 2.780404e-02 -2.780404e-02 0.9996 330.7185 96.4798)" class="st4 st1 st2">A</text>
<text transform="matrix(0.9996 2.780404e-02 -2.780404e-02 0.9996 346.3913 81.7048)" class="st4 st1 st2">C</text>
<text transform="matrix(0.9996 2.780404e-02 -2.780404e-02 0.9996 365.3151 72.5213)" class="st4 st1 st2">A</text>
<text transform="matrix(0.9996 2.780404e-02 -2.780404e-02 0.9996 384.8955 66.0701)" class="st4 st1 st2">A</text>
<text transform="matrix(0.9996 2.780404e-02 -2.780404e-02 0.9996 403.5255 74.3364)" class="st4 st1 st2">U</text>
<text transform="matrix(0.9996 2.780404e-02 -2.780404e-02 0.9996 422.9463 85.2859)" class="st4 st1 st2">U</text>
<text transform="matrix(0.9996 2.780404e-02 -2.780404e-02 0.9996 440.8285 97.2877)" class="st4 st1 st2">U</text>
<text transform="matrix(0.9996 2.780404e-02 -2.780404e-02 0.9996 454.8813 112.8622)" class="st4 st1 st2">A</text>
<text transform="matrix(1 2.568143e-03 -2.568143e-03 1 461.0666 178.7215)" class="st4 st1 st5">A</text>
<text transform="matrix(1 2.568143e-03 -2.568143e-03 1 455.219 196.1695)" class="st4 st1 st5">A</text>
<text transform="matrix(1 2.568143e-03 -2.568143e-03 1 439.9565 215.8336)" class="st4 st1 st5">U</text>
<text transform="matrix(1 2.568143e-03 -2.568143e-03 1 424.1314 224.4883)" class="st4 st1 st5">A</text>
<text transform="matrix(1 8.938164e-03 -8.938164e-03 1 403.9207 230.4107)" class="st6 st1 st2">G</text>
<text transform="matrix(1 8.938164e-03 -8.938164e-03 1 403.9202 254.9351)" class="st6 st1 st2">G</text>
<text transform="matrix(1 8.938164e-03 -8.938164e-03 1 405.1162 279.4487)" class="st6 st1 st2">A</text>
<text transform="matrix(1 8.938164e-03 -8.938164e-03 1 404.425 304.6574)" class="st6 st1 st2">U</text>
<text transform="matrix(1 8.938164e-03 -8.938164e-03 1 404.3329 328.514)" class="st6 st1 st2">C</text>
<text transform="matrix(1 8.938164e-03 -8.938164e-03 1 418.6401 347.4122)" class="st6 st1 st2">G</text>
<text transform="matrix(1 8.938164e-03 -8.938164e-03 1 419.8341 370.5136)" class="st6 st1 st2">A</text>
<text transform="matrix(1 8.938164e-03 -8.938164e-03 1 399.6852 386.6389)" class="st6 st1 st2">U</text>
<text transform="matrix(1 8.938164e-03 -8.938164e-03 1 380.1514 386.7269)" class="st6 st1 st2">A</text>
<text transform="matrix(1 8.938164e-03 -8.938164e-03 1 362.235 370.53)" class="st6 st1 st2">C</text>
<text transform="matrix(1 8.938164e-03 -8.938164e-03 1 363.0159 347.4003)" class="st6 st1 st2">A</text>
<text transform="matrix(1 8.938164e-03 -8.938164e-03 1 374.864 328.5094)" class="st6 st1 st2">G</text>
<text transform="matrix(1 8.938164e-03 -8.938164e-03 1 376.0589 304.7427)" class="st6 st1 st2">A</text>
<text transform="matrix(1 8.938164e-03 -8.938164e-03 1 375.3697 279.3635)" class="st6 st1 st2">U</text>
<text transform="matrix(1 8.938164e-03 -8.938164e-03 1 375.2774 254.9398)" class="st6 st1 st2">C</text>
<text transform="matrix(1 8.938164e-03 -8.938164e-03 1 375.3696 230.3127)" class="st6 st1 st2">U</text>
<g id="ID000021-3" class="st7">
	<polygon class="st8" points="625.1,134.4 624.8,134.4 624.7,134.4 624.4,134.5 624.2,134.5 623.9,134.5 623.7,134.7 623.4,134.8 
		623.3,134.8 623,135 622.8,135.2 622.7,135.3 622.5,135.5 622.2,135.6 622,135.8 622,135.9 621.9,136.2 621.7,136.4 621.6,136.7 
		621.6,136.8 621.4,137 621.4,137.3 621.3,137.5 621.3,137.8 621.3,138.1 621.3,138.2 621.3,138.5 621.3,138.7 621.3,139 
		621.4,139.2 621.4,139.5 621.6,139.6 621.7,139.9 621.9,140.1 621.9,140.2 622,140.5 622.2,140.7 622.4,140.9 622.5,141 
		622.8,141.2 623,141.3 623.1,141.5 623.3,141.6 623.6,141.6 623.7,141.8 624.1,141.8 624.2,141.9 624.5,141.9 624.7,142.1 
		625,142.1 625.1,142.1 625.4,142.1 625.7,141.9 625.9,141.9 626.2,141.8 626.4,141.8 626.7,141.6 626.8,141.6 627.1,141.5 
		627.3,141.3 627.4,141.2 627.6,141 627.8,140.9 627.9,140.7 628.1,140.5 628.2,140.2 628.4,140.1 628.5,139.9 628.5,139.6 
		628.7,139.5 628.8,139.2 628.8,139 628.8,138.7 628.8,138.5 628.8,138.2 628.8,138.1 628.8,137.8 628.8,137.5 628.8,137.3 
		628.7,137 628.7,136.8 628.5,136.7 628.5,136.4 628.4,136.2 628.2,135.9 628.1,135.8 627.9,135.6 627.8,135.5 627.6,135.3 
		627.4,135.2 627.1,135 627,134.8 626.7,134.8 626.5,134.7 626.2,134.5 626.1,134.5 625.7,134.5 625.6,134.4 625.3,134.4 	"/>
</g>
<g id="ID000021-3_00000118358882323050711580000013179232938473203338_" class="st7">
	<polygon class="st8" points="263.7,133 263.4,133 263.2,133 262.9,133.1 262.8,133.1 262.5,133.1 262.3,133.3 262,133.4 
		261.9,133.4 261.5,133.6 261.4,133.7 261.2,133.9 261.1,134 260.8,134.2 260.6,134.3 260.6,134.5 260.5,134.8 260.3,135 
		260.2,135.3 260.2,135.4 260,135.6 260,135.9 259.9,136 259.9,136.3 259.9,136.7 259.9,136.8 259.9,137.1 259.9,137.3 259.9,137.6 
		260,137.7 260,138 260.2,138.2 260.3,138.5 260.5,138.7 260.5,138.8 260.6,139.1 260.8,139.3 260.9,139.4 261.1,139.6 261.4,139.7 
		261.5,139.9 261.7,140 261.9,140.2 262.2,140.2 262.3,140.4 262.6,140.4 262.8,140.5 263.1,140.5 263.2,140.7 263.6,140.7 
		263.7,140.7 264,140.7 264.3,140.5 264.5,140.5 264.8,140.4 264.9,140.4 265.2,140.2 265.4,140.2 265.7,140 265.9,139.9 266,139.7 
		266.2,139.6 266.3,139.4 266.5,139.3 266.6,139.1 266.8,138.8 266.9,138.7 267.1,138.5 267.1,138.2 267.3,138 267.4,137.7 
		267.4,137.6 267.4,137.3 267.4,137.1 267.4,136.8 267.4,136.7 267.4,136.3 267.4,136 267.4,135.9 267.3,135.6 267.3,135.4 
		267.1,135.3 267.1,135 266.9,134.8 266.8,134.5 266.6,134.3 266.5,134.2 266.3,134 266.2,133.9 266,133.7 265.7,133.6 265.6,133.4 
		265.2,133.4 265.1,133.3 264.8,133.1 264.6,133.1 264.3,133.1 264.2,133 263.9,133 	"/>
</g>
<g id="ID000021-3_00000145747122800254781320000009475081623429934517_" class="st7">
	<polygon class="st8" points="243,133 242.6,133 242.5,133 242.2,133.1 242,133.1 241.7,133.1 241.6,133.3 241.3,133.4 241.1,133.4 
		240.8,133.6 240.6,133.7 240.5,133.9 240.3,134 240,134.2 239.9,134.3 239.9,134.5 239.7,134.8 239.6,135 239.4,135.3 239.4,135.4 
		239.3,135.6 239.3,135.9 239.1,136 239.1,136.3 239.1,136.7 239.1,136.8 239.1,137.1 239.1,137.3 239.1,137.6 239.3,137.7 
		239.3,138 239.4,138.2 239.6,138.5 239.7,138.7 239.7,138.8 239.9,139.1 240,139.3 240.2,139.4 240.3,139.6 240.6,139.7 
		240.8,139.9 240.9,140 241.1,140.2 241.4,140.2 241.6,140.4 241.9,140.4 242,140.5 242.3,140.5 242.5,140.7 242.8,140.7 243,140.7 
		243.3,140.7 243.6,140.5 243.7,140.5 244,140.4 244.2,140.4 244.5,140.2 244.6,140.2 245,140 245.1,139.9 245.3,139.7 245.4,139.6 
		245.6,139.4 245.7,139.3 245.9,139.1 246,138.8 246.2,138.7 246.3,138.5 246.3,138.2 246.5,138 246.7,137.7 246.7,137.6 
		246.7,137.3 246.7,137.1 246.7,136.8 246.7,136.7 246.7,136.3 246.7,136 246.7,135.9 246.5,135.6 246.5,135.4 246.3,135.3 
		246.3,135 246.2,134.8 246,134.5 245.9,134.3 245.7,134.2 245.6,134 245.4,133.9 245.3,133.7 245,133.6 244.8,133.4 244.5,133.4 
		244.3,133.3 244,133.1 243.9,133.1 243.6,133.1 243.4,133 243.1,133 	"/>
</g>
<text transform="matrix(1 0 0 1 350.3261 23.2125)" class="st1 st9">FB-1 aptamer</text>
<line class="st10" x1="102.6" y1="129.4" x2="102.6" y2="142.6"/>
<line class="st10" x1="122.4" y1="129.4" x2="122.4" y2="142.6"/>
<line class="st10" x1="144.3" y1="129.4" x2="144.3" y2="142.6"/>
<line class="st10" x1="164.7" y1="129.4" x2="164.7" y2="142.6"/>
<line class="st10" x1="186.6" y1="129.4" x2="186.6" y2="142.6"/>
<line class="st10" x1="220.8" y1="129.4" x2="220.8" y2="142.6"/>
<line class="st11" x1="180.9" y1="161.3" x2="173.6" y2="175.1"/>
<line class="st11" x1="680.6" y1="162.9" x2="687.6" y2="176.9"/>
<line class="st10" x1="285.7" y1="130.2" x2="285.7" y2="143.4"/>
<line class="st10" x1="306.4" y1="130.2" x2="306.4" y2="143.4"/>
<line class="st10" x1="477" y1="131.7" x2="477" y2="144.8"/>
<line class="st10" x1="498" y1="131.7" x2="498" y2="144.8"/>
<line class="st10" x1="540.8" y1="131.7" x2="540.8" y2="144.8"/>
<line class="st10" x1="560.7" y1="131.7" x2="560.7" y2="144.8"/>
<line class="st10" x1="583.9" y1="131.7" x2="583.9" y2="144.8"/>
<line class="st10" x1="604.5" y1="131.7" x2="604.5" y2="144.8"/>
<line class="st10" x1="679.6" y1="133.2" x2="679.6" y2="146.3"/>
<line class="st10" x1="703.2" y1="133.2" x2="703.2" y2="146.3"/>
<line class="st10" x1="724.7" y1="133.2" x2="724.7" y2="146.3"/>
<line class="st10" x1="645.6" y1="131.7" x2="645.6" y2="144.8"/>
<text transform="matrix(1 0 0 1 272.1348 111.7583)" class="st1 st12">30</text>
<text transform="matrix(1 0 0 1 463.1406 98.4556)" class="st1 st12">40</text>
<text transform="matrix(1 0 0 1 630.374 94.6763)" class="st1 st12">50</text>
<text transform="matrix(1 0 0 1 677.8232 190.0444)" class="st1 st12">60</text>
<line class="st11" x1="480.8" y1="162.4" x2="490.7" y2="182.4"/>
<line class="st11" x1="638.6" y1="94.6" x2="643.6" y2="113.9"/>
<text transform="matrix(1 0 0 1 482.8291 195.6636)" class="st1 st12">70</text>
<text transform="matrix(1 0 0 1 435.4443 340.1602)" class="st1 st12">80</text>
<text transform="matrix(1 0 0 1 357.083 235.4844)" class="st1 st12">90</text>
<text transform="matrix(1 0 0 1 283.3027 224.1826)" class="st1 st13">5’</text>
<text transform="matrix(1 0 0 1 372.4023 208.4346)" class="st1 st13">3’</text>
<text transform="matrix(1 0 0 1 76.2422 99.5728)" class="st1 st12">20</text>
<text transform="matrix(1 0 0 1 161.8232 189.2349)" class="st1 st13">10</text>
</svg>
