<svg id="图层_1" data-name="图层 1" xmlns="http://www.w3.org/2000/svg" viewBox="0 0 800 400"><defs><style>.cls-1,.cls-12,.cls-13,.cls-14,.cls-15,.cls-16,.cls-17,.cls-18,.cls-19,.cls-2,.cls-3,.cls-4,.cls-6,.cls-7,.cls-8,.cls-9{isolation:isolate;font-size:16.4px;font-family:Helvetica;}.cls-1,.cls-13,.cls-4{fill:#0a0bff;}.cls-2,.cls-3{fill:#228b22;}.cls-14,.cls-3,.cls-4,.cls-9{letter-spacing:-0.05em;}.cls-10,.cls-5{fill:none;}.cls-10,.cls-11,.cls-5{stroke:#000;stroke-miterlimit:3.05;}.cls-11,.cls-5{stroke-width:0.38px;}.cls-7{fill:#32cd32;}.cls-8,.cls-9{fill:teal;}.cls-10{stroke-width:0.84px;}.cls-12,.cls-14{fill:#ff870a;}.cls-13,.cls-16,.cls-18{letter-spacing:-0.05em;}.cls-15,.cls-16{fill:#c2c2ff;}.cls-17,.cls-18{fill:#80db9e;}.cls-19{fill:pink;}.cls-20{font-size:20px;font-family:ArialMT, Arial;}.cls-21{letter-spacing:-0.04em;}</style></defs><g id="topgroup"><g id="ID000000"><g id="ID000002"><text class="cls-1" transform="translate(141.03 349.62) scale(0.85 1)">G</text></g><g id="ID000003"><text class="cls-2" transform="translate(126.38 341.05) scale(0.85 1)">G</text></g><g id="ID000004"><text class="cls-2" transform="translate(111.73 341.05) scale(0.85 1)">G</text></g><g id="ID000005"><text class="cls-3" transform="translate(97.86 341.05) scale(0.85 1)">A</text></g><g id="ID000006"><text class="cls-1" transform="translate(82.43 349.62) scale(0.85 1)">G</text></g><g id="ID000007"><text class="cls-4" transform="translate(68.56 332.48) scale(0.85 1)">A</text></g><g id="ID000008"><text class="cls-4" transform="translate(68.56 311.06) scale(0.85 1)">A</text></g><g id="ID000009"><text class="cls-1" transform="translate(82.82 298.2) scale(0.85 1)">U</text></g><g id="ID000010"><text class="cls-2" transform="translate(97.47 306.77) scale(0.85 1)">U</text></g><g id="ID000011"><text class="cls-2" transform="translate(112.12 306.77) scale(0.85 1)">C</text></g><g id="ID000012"><line class="cls-5" x1="117.18" y1="287.63" x2="117.18" y2="276.2"/></g><g id="ID000013"><text class="cls-6" transform="translate(109.39 271.92) scale(0.85 1)">10</text></g><g id="ID000014"><text class="cls-2" transform="translate(126.77 306.77) scale(0.85 1)">C</text></g><g id="ID000015"><text class="cls-1" transform="translate(141.03 298.2) scale(0.85 1)">G</text></g><g id="ID000016"><line class="cls-5" x1="131.83" y1="326.48" x2="131.83" y2="305.91"/></g><g id="ID000017"><line class="cls-5" x1="117.18" y1="326.48" x2="117.18" y2="305.91"/></g><g id="ID000018"><line class="cls-5" x1="102.53" y1="326.48" x2="102.53" y2="305.91"/></g><g id="ID000020"><text class="cls-4" transform="translate(145.47 281.06) scale(0.85 1)">A</text></g><g id="ID000021"><text class="cls-7" transform="translate(159.73 272.49) scale(0.85 1)">C</text></g><g id="ID000022"><text class="cls-7" transform="translate(159.73 255.35) scale(0.85 1)">C</text></g><g id="ID000023"><text class="cls-4" transform="translate(149.13 238.21) scale(0.85 1)">A</text></g><g id="ID000024"><text class="cls-1" transform="translate(196.36 238.21) scale(0.85 1)">C</text></g><g id="ID000025"><text class="cls-7" transform="translate(188.64 255.35) scale(0.85 1)">G</text></g><g id="ID000026"><text class="cls-7" transform="translate(188.64 272.49) scale(0.85 1)">G</text></g><g id="ID000027"><text class="cls-1" transform="translate(196.36 289.63) scale(0.85 1)">C</text></g><g id="ID000028"><text class="cls-1" transform="translate(206.95 276.77) scale(0.85 1)">G</text></g><g id="ID000029"><line class="cls-5" x1="170.65" y1="264.77" x2="188.23" y2="264.77"/></g><g id="ID000030"><line class="cls-5" x1="170.65" y1="247.63" x2="188.23" y2="247.63"/></g><g id="ID000032"><text class="cls-8" transform="translate(159.34 221.06) scale(0.85 1)">G</text></g><g id="ID000033"><text class="cls-9" transform="translate(160.12 203.92) scale(0.85 1)">A</text></g><g id="ID000034"><text class="cls-9" transform="translate(160.12 186.78) scale(0.85 1)">A</text></g><g id="ID000035"><text class="cls-4" transform="translate(196.75 169.64) scale(0.85 1)">A</text></g><g id="ID000036"><text class="cls-8" transform="translate(189.03 186.78) scale(0.85 1)">U</text></g><g id="ID000037"><text class="cls-8" transform="translate(189.03 203.92) scale(0.85 1)">U</text></g><g id="ID000038"><text class="cls-8" transform="translate(189.03 221.06) scale(0.85 1)">C</text></g><g id="ID000039"><line class="cls-5" x1="170.65" y1="213.35" x2="188.23" y2="213.35"/></g><g id="ID000040"><line class="cls-5" x1="170.65" y1="196.21" x2="188.23" y2="196.21"/></g><g id="ID000041"><line class="cls-10" x1="164.79" y1="172.21" x2="164.79" y2="151.64"/></g><g id="ID000042"><polygon class="cls-11" points="160.4 167.64 162.6 164.78 163.33 161.93 163.7 159.07 164.79 153.36 165.89 159.07 166.26 161.93 166.99 164.78 169.19 167.64 160.4 167.64"/></g><g id="ID000043"><line class="cls-5" x1="170.65" y1="179.07" x2="188.23" y2="179.07"/></g><g id="ID000045"><text class="cls-8" transform="translate(159.34 152.5) scale(0.85 1)">G</text></g><g id="ID000046"><line class="cls-5" x1="155.03" y1="144.79" x2="145.26" y2="144.79"/></g><g id="ID000047"><text class="cls-6" transform="translate(129.67 152.5) scale(0.85 1)">20</text></g><g id="ID000048"><text class="cls-8" transform="translate(159.73 135.36) scale(0.85 1)">C</text></g><g id="ID000049"><text class="cls-8" transform="translate(159.73 118.22) scale(0.85 1)">U</text></g><g id="ID000050"><text class="cls-8" transform="translate(159.73 101.08) scale(0.85 1)">U</text></g><g id="ID000051"><text class="cls-1" transform="translate(156.07 83.93) scale(0.85 1)">C</text></g><g id="ID000052"><text class="cls-1" transform="translate(175.38 71.08) scale(0.85 1)">C</text></g><g id="ID000053"><text class="cls-1" transform="translate(192.31 83.93) scale(0.85 1)">G</text></g><g id="ID000054"><text class="cls-9" transform="translate(189.42 101.08) scale(0.85 1)">A</text></g><g id="ID000055"><text class="cls-9" transform="translate(189.42 118.22) scale(0.85 1)">A</text></g><g id="ID000056"><text class="cls-8" transform="translate(188.64 135.36) scale(0.85 1)">G</text></g><g id="ID000057"><text class="cls-8" transform="translate(189.03 152.5) scale(0.85 1)">C</text></g><g id="ID000058"><line class="cls-5" x1="203.86" y1="144.79" x2="213.63" y2="144.79"/></g><g id="ID000059"><text class="cls-6" transform="translate(213.63 152.5) scale(0.85 1)">30</text></g><g id="ID000060"><line class="cls-5" x1="170.65" y1="144.79" x2="188.23" y2="144.79"/></g><g id="ID000061"><line class="cls-5" x1="170.65" y1="127.64" x2="188.23" y2="127.64"/></g><g id="ID000062"><line class="cls-5" x1="170.65" y1="110.5" x2="188.23" y2="110.5"/></g><g id="ID000063"><line class="cls-5" x1="170.65" y1="93.36" x2="188.23" y2="93.36"/></g><g id="ID000065"><text class="cls-1" transform="translate(225.66 276.77) scale(0.85 1)">U</text></g><g id="ID000066"><line class="cls-5" x1="230.72" y1="257.63" x2="230.72" y2="246.2"/></g><g id="ID000067"><text class="cls-6" transform="translate(222.92 241.92) scale(0.85 1)">40</text></g><g id="ID000068"><text class="cls-4" transform="translate(233.37 298.2) scale(0.85 1)">A</text></g><g id="ID000069"><text class="cls-12" transform="translate(247.24 306.77) scale(0.85 1)">G</text></g><g id="ID000070"><text class="cls-12" transform="translate(261.89 306.77) scale(0.85 1)">G</text></g><g id="ID000071"><text class="cls-12" transform="translate(276.54 306.77) scale(0.85 1)">G</text></g><g id="ID000072"><text class="cls-12" transform="translate(291.19 306.77) scale(0.85 1)">G</text></g><g id="ID000073"><text class="cls-12" transform="translate(306.23 306.77) scale(0.85 1)">U</text></g><g id="ID000074"><text class="cls-12" transform="translate(320.88 306.77) scale(0.85 1)">C</text></g><g id="ID000075"><text class="cls-12" transform="translate(335.53 306.77) scale(0.85 1)">U</text></g><g id="ID000076"><text class="cls-12" transform="translate(349.79 306.77) scale(0.85 1)">G</text></g><g id="ID000077"><text class="cls-12" transform="translate(364.83 306.77) scale(0.85 1)">U</text></g><g id="ID000078"><line class="cls-5" x1="369.89" y1="287.63" x2="369.89" y2="276.2"/></g><g id="ID000079"><text class="cls-6" transform="translate(362.1 271.92) scale(0.85 1)">50</text></g><g id="ID000080"><text class="cls-13" transform="translate(394.52 362.48) scale(0.85 1)">A</text></g><g id="ID000081"><text class="cls-1" transform="translate(379.48 349.62) scale(0.85 1)">C</text></g><g id="ID000082"><text class="cls-14" transform="translate(365.22 341.05) scale(0.85 1)">A</text></g><g id="ID000083"><text class="cls-12" transform="translate(350.18 341.05) scale(0.85 1)">U</text></g><g id="ID000084"><line class="cls-5" x1="355.24" y1="344.77" x2="355.24" y2="356.19"/></g><g id="ID000085"><text class="cls-6" transform="translate(347.45 376.42) scale(0.85 1)">90</text></g><g id="ID000086"><text class="cls-12" transform="translate(335.14 341.05) scale(0.85 1)">G</text></g><g id="ID000087"><text class="cls-12" transform="translate(320.49 341.05) scale(0.85 1)">G</text></g><g id="ID000088"><text class="cls-14" transform="translate(306.62 341.05) scale(0.85 1)">A</text></g><g id="ID000089"><text class="cls-12" transform="translate(291.58 341.05) scale(0.85 1)">U</text></g><g id="ID000090"><text class="cls-12" transform="translate(276.93 341.05) scale(0.85 1)">C</text></g><g id="ID000091"><text class="cls-12" transform="translate(262.28 341.05) scale(0.85 1)">C</text></g><g id="ID000092"><text class="cls-12" transform="translate(247.63 341.05) scale(0.85 1)">U</text></g><g id="ID000093"><text class="cls-1" transform="translate(232.98 345.34) scale(0.85 1)">C</text></g><g id="ID000094"><text class="cls-4" transform="translate(218.72 345.34) scale(0.85 1)">A</text></g><g id="ID000095"><polygon class="cls-11" points="252.69 320.63 252.88 320.62 253.06 320.6 253.25 320.56 253.43 320.52 253.61 320.45 253.78 320.38 253.95 320.29 254.12 320.19 254.28 320.08 254.43 319.96 254.57 319.82 254.71 319.68 254.84 319.52 254.97 319.36 255.08 319.19 255.18 319.01 255.28 318.82 255.36 318.62 255.43 318.42 255.49 318.21 255.54 318.01 255.58 317.79 255.6 317.58 255.62 317.36 255.62 317.14 255.61 316.93 255.59 316.71 255.56 316.5 255.52 316.28 255.46 316.08 255.39 315.87 255.32 315.68 255.23 315.48 255.13 315.3 255.02 315.12 254.91 314.95 254.78 314.79 254.65 314.64 254.5 314.5 254.35 314.38 254.2 314.26 254.03 314.15 253.87 314.06 253.69 313.98 253.52 313.91 253.34 313.85 253.16 313.81 252.97 313.78 252.79 313.77 252.6 313.77 252.41 313.78 252.23 313.81 252.05 313.85 251.87 313.91 251.69 313.98 251.52 314.06 251.35 314.15 251.19 314.26 251.03 314.38 250.88 314.5 250.74 314.64 250.6 314.79 250.48 314.95 250.36 315.12 250.25 315.3 250.16 315.48 250.07 315.68 249.99 315.87 249.92 316.08 249.87 316.28 249.82 316.5 249.79 316.71 249.77 316.93 249.76 317.14 249.77 317.36 249.78 317.58 249.81 317.79 249.84 318.01 249.9 318.21 249.96 318.42 250.03 318.62 250.11 318.82 250.2 319.01 250.31 319.19 250.42 319.36 250.54 319.52 250.67 319.68 250.81 319.82 250.96 319.96 251.11 320.08 251.27 320.19 251.43 320.29 251.6 320.38 251.78 320.45 251.96 320.52 252.14 320.56 252.32 320.6 252.51 320.62 252.69 320.63"/></g><g id="ID000096"><line class="cls-5" x1="267.34" y1="305.91" x2="267.34" y2="326.48"/></g><g id="ID000097"><line class="cls-5" x1="281.99" y1="305.91" x2="281.99" y2="326.48"/></g><g id="ID000098"><polygon class="cls-11" points="296.64 320.63 296.83 320.62 297.01 320.6 297.2 320.56 297.38 320.52 297.56 320.45 297.73 320.38 297.9 320.29 298.07 320.19 298.23 320.08 298.38 319.96 298.52 319.82 298.66 319.68 298.79 319.52 298.92 319.36 299.03 319.19 299.13 319.01 299.22 318.82 299.31 318.62 299.38 318.42 299.44 318.21 299.49 318.01 299.53 317.79 299.55 317.58 299.57 317.36 299.57 317.14 299.56 316.93 299.54 316.71 299.51 316.5 299.46 316.28 299.41 316.08 299.34 315.87 299.27 315.68 299.18 315.48 299.08 315.3 298.97 315.12 298.86 314.95 298.73 314.79 298.6 314.64 298.45 314.5 298.3 314.38 298.15 314.26 297.98 314.15 297.82 314.06 297.64 313.98 297.47 313.91 297.29 313.85 297.11 313.81 296.92 313.78 296.73 313.77 296.55 313.77 296.36 313.78 296.18 313.81 296 313.85 295.82 313.91 295.64 313.98 295.47 314.06 295.3 314.15 295.14 314.26 294.98 314.38 294.83 314.5 294.69 314.64 294.55 314.79 294.43 314.95 294.31 315.12 294.2 315.3 294.1 315.48 294.02 315.68 293.94 315.87 293.87 316.08 293.82 316.28 293.77 316.5 293.74 316.71 293.72 316.93 293.71 317.14 293.71 317.36 293.73 317.58 293.76 317.79 293.79 318.01 293.84 318.21 293.9 318.42 293.98 318.62 294.06 318.82 294.15 319.01 294.25 319.19 294.37 319.36 294.49 319.52 294.62 319.68 294.76 319.82 294.9 319.96 295.06 320.08 295.22 320.19 295.38 320.29 295.55 320.38 295.73 320.45 295.91 320.52 296.09 320.56 296.27 320.6 296.45 320.62 296.64 320.63"/></g><g id="ID000099"><line class="cls-5" x1="311.29" y1="305.91" x2="311.29" y2="326.48"/></g><g id="ID000100"><line class="cls-5" x1="325.94" y1="305.91" x2="325.94" y2="326.48"/></g><g id="ID000101"><polygon class="cls-11" points="340.59 320.63 340.78 320.62 340.96 320.6 341.15 320.56 341.33 320.52 341.5 320.45 341.68 320.38 341.85 320.29 342.01 320.19 342.18 320.08 342.33 319.96 342.47 319.82 342.61 319.68 342.74 319.52 342.87 319.36 342.98 319.19 343.08 319.01 343.17 318.82 343.26 318.62 343.33 318.42 343.39 318.21 343.44 318.01 343.48 317.79 343.5 317.58 343.52 317.36 343.52 317.14 343.51 316.93 343.49 316.71 343.46 316.5 343.41 316.28 343.36 316.08 343.29 315.87 343.22 315.68 343.13 315.48 343.03 315.3 342.92 315.12 342.81 314.95 342.68 314.79 342.54 314.64 342.4 314.5 342.25 314.38 342.1 314.26 341.93 314.15 341.77 314.06 341.59 313.98 341.42 313.91 341.24 313.85 341.05 313.81 340.87 313.78 340.68 313.77 340.5 313.77 340.31 313.78 340.13 313.81 339.94 313.85 339.76 313.91 339.59 313.98 339.42 314.06 339.25 314.15 339.09 314.26 338.93 314.38 338.78 314.5 338.64 314.64 338.5 314.79 338.38 314.95 338.26 315.12 338.15 315.3 338.05 315.48 337.96 315.68 337.89 315.87 337.82 316.08 337.77 316.28 337.72 316.5 337.69 316.71 337.67 316.93 337.66 317.14 337.66 317.36 337.68 317.58 337.7 317.79 337.74 318.01 337.79 318.21 337.85 318.42 337.93 318.62 338.01 318.82 338.1 319.01 338.2 319.19 338.32 319.36 338.44 319.52 338.57 319.68 338.71 319.82 338.85 319.96 339.01 320.08 339.17 320.19 339.33 320.29 339.5 320.38 339.68 320.45 339.86 320.52 340.04 320.56 340.22 320.6 340.4 320.62 340.59 320.63"/></g><g id="ID000102"><polygon class="cls-11" points="355.24 320.63 355.43 320.62 355.61 320.6 355.8 320.56 355.98 320.52 356.15 320.45 356.33 320.38 356.5 320.29 356.67 320.19 356.82 320.08 356.98 319.96 357.12 319.82 357.26 319.68 357.39 319.52 357.51 319.36 357.63 319.19 357.73 319.01 357.82 318.82 357.91 318.62 357.98 318.42 358.04 318.21 358.09 318.01 358.13 317.79 358.15 317.58 358.17 317.36 358.17 317.14 358.16 316.93 358.14 316.71 358.11 316.5 358.06 316.28 358.01 316.08 357.94 315.87 357.87 315.68 357.78 315.48 357.68 315.3 357.57 315.12 357.45 314.95 357.33 314.79 357.19 314.64 357.05 314.5 356.9 314.38 356.75 314.26 356.58 314.15 356.42 314.06 356.24 313.98 356.06 313.91 355.89 313.85 355.7 313.81 355.52 313.78 355.33 313.77 355.15 313.77 354.96 313.78 354.78 313.81 354.6 313.85 354.42 313.91 354.24 313.98 354.07 314.06 353.9 314.15 353.74 314.26 353.58 314.38 353.43 314.5 353.29 314.64 353.15 314.79 353.03 314.95 352.91 315.12 352.8 315.3 352.7 315.48 352.62 315.68 352.54 315.87 352.47 316.08 352.42 316.28 352.37 316.5 352.34 316.71 352.32 316.93 352.31 317.14 352.31 317.36 352.33 317.58 352.36 317.79 352.39 318.01 352.44 318.21 352.5 318.42 352.57 318.62 352.66 318.82 352.75 319.01 352.85 319.19 352.97 319.36 353.09 319.52 353.22 319.68 353.36 319.82 353.5 319.96 353.66 320.08 353.82 320.19 353.98 320.29 354.15 320.38 354.33 320.45 354.5 320.52 354.69 320.56 354.87 320.6 355.06 320.62 355.24 320.63"/></g><g id="ID000103"><line class="cls-10" x1="375.75" y1="299.06" x2="440.94" y2="299.06"/></g><g id="ID000104"><polygon class="cls-11" points="403.46 293.91 405.9 296.49 408.35 297.34 410.79 297.77 415.67 299.06 410.79 300.34 408.35 300.77 405.9 301.63 403.46 304.2 403.46 293.91"/></g><g id="ID000105"><line class="cls-5" x1="369.89" y1="305.91" x2="369.89" y2="326.48"/></g><g id="ID000107"><text class="cls-15" transform="translate(441.35 306.77) scale(0.85 1)">G</text></g><g id="ID000108"><text class="cls-15" transform="translate(456.39 306.77) scale(0.85 1)">C</text></g><g id="ID000109"><text class="cls-15" transform="translate(470.65 306.77) scale(0.85 1)">G</text></g><g id="ID000110"><text class="cls-15" transform="translate(485.69 306.77) scale(0.85 1)">C</text></g><g id="ID000111"><text class="cls-16" transform="translate(500.73 306.77) scale(0.85 1)">A</text></g><g id="ID000112"><text class="cls-13" transform="translate(515.38 298.2) scale(0.85 1)">A</text></g><g id="ID000113"><text class="cls-13" transform="translate(522.7 281.06) scale(0.85 1)">A</text></g><g id="ID000114"><text class="cls-15" transform="translate(500.34 341.05) scale(0.85 1)">U</text></g><g id="ID000115"><line class="cls-5" x1="505.4" y1="344.77" x2="505.4" y2="356.19"/></g><g id="ID000116"><text class="cls-6" transform="translate(497.61 376.42) scale(0.85 1)">80</text></g><g id="ID000117"><text class="cls-15" transform="translate(485.3 341.05) scale(0.85 1)">G</text></g><g id="ID000118"><text class="cls-15" transform="translate(471.04 341.05) scale(0.85 1)">C</text></g><g id="ID000119"><text class="cls-15" transform="translate(456 341.05) scale(0.85 1)">G</text></g><g id="ID000120"><text class="cls-15" transform="translate(441.74 341.05) scale(0.85 1)">U</text></g><g id="ID000121"><text class="cls-1" transform="translate(427.09 349.62) scale(0.85 1)">C</text></g><g id="ID000122"><text class="cls-1" transform="translate(412.44 362.48) scale(0.85 1)">U</text></g><g id="ID000123"><polygon class="cls-11" points="446.8 320.63 446.99 320.62 447.17 320.6 447.36 320.56 447.54 320.52 447.71 320.45 447.89 320.38 448.06 320.29 448.23 320.19 448.38 320.08 448.54 319.96 448.68 319.82 448.82 319.68 448.95 319.52 449.07 319.36 449.19 319.19 449.29 319.01 449.38 318.82 449.47 318.62 449.54 318.42 449.6 318.21 449.65 318.01 449.69 317.79 449.71 317.58 449.73 317.36 449.73 317.14 449.72 316.93 449.7 316.71 449.67 316.5 449.63 316.28 449.57 316.08 449.5 315.87 449.43 315.68 449.34 315.48 449.24 315.3 449.13 315.12 449.01 314.95 448.89 314.79 448.75 314.64 448.61 314.5 448.46 314.38 448.31 314.26 448.14 314.15 447.98 314.06 447.8 313.98 447.63 313.91 447.45 313.85 447.26 313.81 447.08 313.78 446.89 313.77 446.71 313.77 446.52 313.78 446.34 313.81 446.15 313.85 445.98 313.91 445.8 313.98 445.63 314.06 445.46 314.15 445.3 314.26 445.14 314.38 444.99 314.5 444.85 314.64 444.71 314.79 444.59 314.95 444.47 315.12 444.36 315.3 444.26 315.48 444.18 315.68 444.1 315.87 444.03 316.08 443.98 316.28 443.93 316.5 443.9 316.71 443.88 316.93 443.87 317.14 443.87 317.36 443.89 317.58 443.92 317.79 443.95 318.01 444 318.21 444.06 318.42 444.13 318.62 444.22 318.82 444.31 319.01 444.41 319.19 444.53 319.36 444.65 319.52 444.78 319.68 444.92 319.82 445.06 319.96 445.22 320.08 445.38 320.19 445.54 320.29 445.71 320.38 445.89 320.45 446.06 320.52 446.25 320.56 446.43 320.6 446.62 320.62 446.8 320.63"/></g><g id="ID000124"><line class="cls-5" x1="461.45" y1="305.91" x2="461.45" y2="326.48"/></g><g id="ID000125"><line class="cls-5" x1="476.1" y1="305.91" x2="476.1" y2="326.48"/></g><g id="ID000126"><line class="cls-5" x1="490.75" y1="305.91" x2="490.75" y2="326.48"/></g><g id="ID000127"><line class="cls-5" x1="505.4" y1="305.91" x2="505.4" y2="326.48"/></g><g id="ID000128"><line class="cls-10" x1="565.46" y1="333.34" x2="511.26" y2="333.34"/></g><g id="ID000129"><polygon class="cls-11" points="543.25 338.48 540.8 335.91 538.36 335.05 535.92 334.63 531.04 333.34 535.92 332.05 538.36 331.62 540.8 330.77 543.25 328.2 543.25 338.48"/></g><g id="ID000131"><text class="cls-13" transform="translate(541.01 281.06) scale(0.85 1)">A</text></g><g id="ID000132"><text class="cls-1" transform="translate(551.61 298.2) scale(0.85 1)">C</text></g><g id="ID000133"><text class="cls-17" transform="translate(566.26 306.77) scale(0.85 1)">C</text></g><g id="ID000134"><line class="cls-5" x1="571.32" y1="287.63" x2="571.32" y2="276.2"/></g><g id="ID000135"><text class="cls-6" transform="translate(563.53 271.92) scale(0.85 1)">60</text></g><g id="ID000136"><text class="cls-18" transform="translate(581.3 306.77) scale(0.85 1)">A</text></g><g id="ID000137"><text class="cls-17" transform="translate(595.56 306.77) scale(0.85 1)">U</text></g><g id="ID000138"><text class="cls-1" transform="translate(613.87 293.91) scale(0.85 1)">C</text></g><g id="ID000139"><text class="cls-1" transform="translate(613.87 353.91) scale(0.85 1)">U</text></g><g id="ID000140"><text class="cls-18" transform="translate(595.95 341.05) scale(0.85 1)">A</text></g><g id="ID000141"><text class="cls-17" transform="translate(580.91 341.05) scale(0.85 1)">U</text></g><g id="ID000142"><text class="cls-17" transform="translate(565.87 341.05) scale(0.85 1)">G</text></g><g id="ID000143"><line class="cls-5" x1="571.32" y1="305.91" x2="571.32" y2="326.48"/></g><g id="ID000144"><line class="cls-5" x1="585.97" y1="305.91" x2="585.97" y2="326.48"/></g><g id="ID000145"><line class="cls-5" x1="600.62" y1="305.91" x2="600.62" y2="326.48"/></g><g id="ID000147"><text class="cls-19" transform="translate(628.14 306.77) scale(0.85 1)">G</text></g><g id="ID000148"><text class="cls-19" transform="translate(642.78 306.77) scale(0.85 1)">G</text></g><g id="ID000149"><text class="cls-19" transform="translate(657.82 306.77) scale(0.85 1)">C</text></g><g id="ID000150"><text class="cls-1" transform="translate(672.47 298.2) scale(0.85 1)">C</text></g><g id="ID000151"><text class="cls-1" transform="translate(690.79 293.91) scale(0.85 1)">C</text></g><g id="ID000152"><text class="cls-1" transform="translate(705.44 306.77) scale(0.85 1)">U</text></g><g id="ID000153"><text class="cls-1" transform="translate(705.05 341.05) scale(0.85 1)">G</text></g><g id="ID000154"><line class="cls-5" x1="720.26" y1="333.34" x2="730.03" y2="333.34"/></g><g id="ID000155"><text class="cls-6" transform="translate(730.03 341.05) scale(0.85 1)">70</text></g><g id="ID000156"><text class="cls-1" transform="translate(690.39 353.91) scale(0.85 1)">G</text></g><g id="ID000157"><text class="cls-1" transform="translate(672.47 349.62) scale(0.85 1)">U</text></g><g id="ID000158"><text class="cls-19" transform="translate(657.43 341.05) scale(0.85 1)">G</text></g><g id="ID000159"><text class="cls-19" transform="translate(643.17 341.05) scale(0.85 1)">C</text></g><g id="ID000160"><text class="cls-19" transform="translate(628.53 341.05) scale(0.85 1)">C</text></g><g id="ID000161"><line class="cls-5" x1="633.58" y1="305.91" x2="633.58" y2="326.48"/></g><g id="ID000162"><line class="cls-5" x1="648.23" y1="305.91" x2="648.23" y2="326.48"/></g><g id="ID000163"><line class="cls-5" x1="662.88" y1="305.91" x2="662.88" y2="326.48"/></g><g id="ID000165"><line class="cls-10" x1="710.5" y1="305.91" x2="710.5" y2="326.48"/></g><g id="ID000166"><polygon class="cls-11" points="714.89 310.48 712.69 313.34 711.96 316.2 711.59 319.06 710.5 324.77 709.4 319.06 709.03 316.2 708.3 313.34 706.1 310.48 714.89 310.48"/></g></g></g><text class="cls-20" transform="translate(321.16 45.81)">g18_04 aptamer</text><text class="cls-20" transform="translate(141.71 368.24)">5<tspan class="cls-21" x="11.12" y="0">’</tspan></text><text class="cls-20" transform="translate(219.77 368)">3<tspan class="cls-21" x="11.12" y="0">’</tspan></text></svg>