<svg id="图层_1" data-name="图层 1" xmlns="http://www.w3.org/2000/svg" viewBox="0 0 800 400"><defs><style>.cls-1,.cls-11,.cls-12,.cls-13,.cls-15,.cls-16,.cls-17,.cls-18,.cls-19,.cls-2,.cls-3,.cls-4,.cls-6,.cls-7,.cls-8{isolation:isolate;}.cls-1,.cls-11,.cls-12,.cls-13,.cls-15,.cls-16,.cls-17,.cls-2,.cls-3,.cls-4,.cls-6,.cls-7,.cls-8{font-size:15.44px;font-family:Helvetica;}.cls-1,.cls-12,.cls-4{fill:#c2b617;}.cls-2,.cls-3{fill:#b83332;}.cls-13,.cls-3,.cls-4,.cls-8{letter-spacing:-0.15em;}.cls-5,.cls-9{fill:none;}.cls-10,.cls-14,.cls-5,.cls-9{stroke:#000;stroke-miterlimit:3.05;}.cls-7,.cls-8{fill:#084595;}.cls-9{stroke-width:0.84px;}.cls-10{stroke-width:0.38px;}.cls-11,.cls-13,.cls-15{fill:#cf3e7d;}.cls-12,.cls-15,.cls-17{letter-spacing:-0.15em;}.cls-16,.cls-17{fill:#18988c;}.cls-18,.cls-19{font-size:20px;font-family:ArialMT, Arial;}.cls-19{letter-spacing:-0.12em;}</style></defs><g id="ID000002"><text class="cls-1" transform="translate(103.53 339.55) scale(1.02 1)">G</text></g><g id="ID000003"><text class="cls-2" transform="translate(87.1 331.48) scale(1.02 1)">G</text></g><g id="ID000004"><text class="cls-2" transform="translate(70.66 331.48) scale(1.02 1)">G</text></g><g id="ID000005"><text class="cls-3" transform="translate(55.09 331.48) scale(1.02 1)">A</text></g><g id="ID000006"><text class="cls-1" transform="translate(37.78 339.55) scale(1.02 1)">G</text></g><g id="ID000007"><text class="cls-4" transform="translate(22.22 323.41) scale(1.02 1)">A</text></g><g id="ID000008"><text class="cls-4" transform="translate(22.22 303.25) scale(1.02 1)">A</text></g><g id="ID000009"><text class="cls-1" transform="translate(38.22 291.14) scale(1.02 1)">U</text></g><g id="ID000010"><text class="cls-2" transform="translate(54.66 299.21) scale(1.02 1)">U</text></g><g id="ID000011"><text class="cls-2" transform="translate(71.1 299.21) scale(1.02 1)">C</text></g><g id="ID000012"><line class="cls-5" x1="76.77" y1="281.19" x2="76.77" y2="270.43"/></g><g id="ID000013"><text class="cls-6" transform="translate(68.03 266.4) scale(1.02 1)">10</text></g><g id="ID000014"><text class="cls-2" transform="translate(87.53 299.21) scale(1.02 1)">C</text></g><g id="ID000015"><text class="cls-1" transform="translate(103.53 291.14) scale(1.02 1)">G</text></g><g id="ID000016"><line class="cls-5" x1="93.21" y1="318.64" x2="93.21" y2="299.28"/></g><g id="ID000017"><line class="cls-5" x1="76.77" y1="318.64" x2="76.77" y2="299.28"/></g><g id="ID000018"><line class="cls-5" x1="60.33" y1="318.64" x2="60.33" y2="299.28"/></g><g id="ID000020"><text class="cls-4" transform="translate(108.52 275.01) scale(1.02 1)">A</text></g><g id="ID000021"><text class="cls-7" transform="translate(124.52 266.93) scale(1.02 1)">C</text></g><g id="ID000022"><text class="cls-7" transform="translate(124.52 250.8) scale(1.02 1)">C</text></g><g id="ID000023"><text class="cls-4" transform="translate(112.62 234.67) scale(1.02 1)">A</text></g><g id="ID000024"><text class="cls-1" transform="translate(165.62 234.67) scale(1.02 1)">C</text></g><g id="ID000025"><text class="cls-7" transform="translate(156.95 250.8) scale(1.02 1)">G</text></g><g id="ID000026"><text class="cls-7" transform="translate(156.95 266.06) scale(1.02 1)">G</text></g><g id="ID000027"><text class="cls-1" transform="translate(165.62 283.08) scale(1.02 1)">C</text></g><g id="ID000028"><text class="cls-1" transform="translate(177.5 270.97) scale(1.02 1)">G</text></g><g id="ID000029"><line class="cls-5" x1="136.77" y1="260.54" x2="156.49" y2="260.54"/></g><g id="ID000030"><line class="cls-5" x1="136.77" y1="244.41" x2="156.49" y2="244.41"/></g><g id="ID000032"><text class="cls-7" transform="translate(124.08 218.52) scale(1.02 1)">G</text></g><g id="ID000033"><text class="cls-8" transform="translate(124.95 202.38) scale(1.02 1)">A</text></g><g id="ID000034"><text class="cls-8" transform="translate(124.95 186.25) scale(1.02 1)">A</text></g><g id="ID000035"><text class="cls-4" transform="translate(166.05 170.12) scale(1.02 1)">A</text></g><g id="ID000036"><text class="cls-7" transform="translate(157.39 186.25) scale(1.02 1)">U</text></g><g id="ID000037"><text class="cls-7" transform="translate(157.39 202.38) scale(1.02 1)">U</text></g><g id="ID000038"><text class="cls-7" transform="translate(157.39 218.52) scale(1.02 1)">C</text></g><g id="ID000039"><line class="cls-5" x1="136.77" y1="212.14" x2="156.49" y2="212.14"/></g><g id="ID000040"><line class="cls-5" x1="136.77" y1="196.01" x2="156.49" y2="196.01"/></g><g id="ID000041"><line class="cls-9" x1="130.19" y1="172.54" x2="130.19" y2="153.17"/></g><g id="ID000042"><polygon class="cls-10" points="125.27 168.23 127.74 165.54 128.56 162.86 128.97 160.17 130.19 154.79 131.43 160.17 131.84 162.86 132.66 165.54 135.13 168.23 125.27 168.23"/></g><g id="ID000043"><line class="cls-5" x1="136.77" y1="179.87" x2="156.49" y2="179.87"/></g><g id="ID000045"><text class="cls-7" transform="translate(124.08 153.98) scale(1.02 1)">G</text></g><g id="ID000046"><line class="cls-5" x1="119.24" y1="146.72" x2="108.28" y2="146.72"/></g><g id="ID000047"><text class="cls-6" transform="translate(88.22 152.3) scale(1.02 1)">20</text></g><g id="ID000048"><text class="cls-7" transform="translate(124.52 137.85) scale(1.02 1)">C</text></g><g id="ID000049"><text class="cls-7" transform="translate(124.52 121.71) scale(1.02 1)">U</text></g><g id="ID000050"><text class="cls-7" transform="translate(124.52 105.58) scale(1.02 1)">U</text></g><g id="ID000051"><text class="cls-1" transform="translate(120.41 89.43) scale(1.02 1)">C</text></g><g id="ID000052"><text class="cls-1" transform="translate(142.08 77.34) scale(1.02 1)">C</text></g><g id="ID000053"><text class="cls-1" transform="translate(161.07 89.43) scale(1.02 1)">G</text></g><g id="ID000054"><text class="cls-8" transform="translate(157.83 105.58) scale(1.02 1)">A</text></g><g id="ID000055"><text class="cls-8" transform="translate(157.83 121.71) scale(1.02 1)">A</text></g><g id="ID000056"><text class="cls-7" transform="translate(156.95 137.85) scale(1.02 1)">G</text></g><g id="ID000057"><text class="cls-7" transform="translate(157.39 153.98) scale(1.02 1)">C</text></g><g id="ID000058"><line class="cls-5" x1="174.03" y1="146.72" x2="184.99" y2="146.72"/></g><g id="ID000059"><text class="cls-6" transform="translate(188.35 152.3) scale(1.02 1)">30</text></g><g id="ID000060"><line class="cls-5" x1="136.77" y1="147.6" x2="156.49" y2="147.6"/></g><g id="ID000061"><line class="cls-5" x1="136.77" y1="131.46" x2="156.49" y2="131.46"/></g><g id="ID000062"><line class="cls-5" x1="136.77" y1="115.32" x2="156.49" y2="115.32"/></g><g id="ID000063"><line class="cls-5" x1="136.77" y1="99.18" x2="156.49" y2="99.18"/></g><g id="ID000065"><text class="cls-1" transform="translate(198.49 270.97) scale(1.02 1)">U</text></g><g id="ID000066"><line class="cls-5" x1="204.17" y1="252.95" x2="204.17" y2="242.18"/></g><g id="ID000067"><text class="cls-6" transform="translate(195.42 238.16) scale(1.02 1)">40</text></g><g id="ID000068"><text class="cls-4" transform="translate(207.14 291.14) scale(1.02 1)">A</text></g><g id="ID000069"><text class="cls-11" transform="translate(222.71 299.21) scale(1.02 1)">G</text></g><g id="ID000070"><text class="cls-11" transform="translate(239.14 299.21) scale(1.02 1)">G</text></g><g id="ID000071"><text class="cls-11" transform="translate(255.58 299.21) scale(1.02 1)">G</text></g><g id="ID000072"><text class="cls-11" transform="translate(272.02 299.21) scale(1.02 1)">G</text></g><g id="ID000073"><text class="cls-11" transform="translate(288.9 299.21) scale(1.02 1)">U</text></g><g id="ID000074"><text class="cls-11" transform="translate(305.33 299.21) scale(1.02 1)">C</text></g><g id="ID000075"><text class="cls-11" transform="translate(321.77 299.21) scale(1.02 1)">U</text></g><g id="ID000076"><text class="cls-11" transform="translate(337.77 299.21) scale(1.02 1)">G</text></g><g id="ID000077"><text class="cls-11" transform="translate(354.65 299.21) scale(1.02 1)">U</text></g><g id="ID000078"><line class="cls-5" x1="360.33" y1="281.19" x2="360.33" y2="270.43"/></g><g id="ID000079"><text class="cls-6" transform="translate(351.58 266.4) scale(1.02 1)">50</text></g><g id="ID000080"><text class="cls-12" transform="translate(387.96 351.65) scale(1.02 1)">A</text></g><g id="ID000081"><text class="cls-1" transform="translate(371.09 339.55) scale(1.02 1)">C</text></g><g id="ID000082"><text class="cls-13" transform="translate(355.09 331.48) scale(1.02 1)">A</text></g><g id="ID000083"><text class="cls-11" transform="translate(338.21 331.48) scale(1.02 1)">U</text></g><g id="ID000084"><line class="cls-5" x1="343.89" y1="334.98" x2="343.89" y2="345.73"/></g><g id="ID000085"><text class="cls-6" transform="translate(335.71 360.5) scale(1.02 1)">90</text></g><g id="ID000086"><text class="cls-11" transform="translate(321.33 331.48) scale(1.02 1)">G</text></g><g id="ID000087"><text class="cls-11" transform="translate(304.9 331.48) scale(1.02 1)">G</text></g><g id="ID000088"><text class="cls-13" transform="translate(289.33 331.48) scale(1.02 1)">A</text></g><g id="ID000089"><text class="cls-11" transform="translate(272.46 331.48) scale(1.02 1)">U</text></g><g id="ID000090"><text class="cls-11" transform="translate(256.02 331.48) scale(1.02 1)">C</text></g><g id="ID000091"><text class="cls-11" transform="translate(239.58 331.48) scale(1.02 1)">C</text></g><g id="ID000092"><text class="cls-11" transform="translate(223.14 331.48) scale(1.02 1)">U</text></g><g id="ID000093"><text class="cls-1" transform="translate(206.71 335.52) scale(1.02 1)">C</text></g><g id="ID000094"><text class="cls-4" transform="translate(190.71 335.52) scale(1.02 1)">A</text></g><g id="ID000095"><polygon class="cls-14" points="228.82 312.26 229.04 312.24 229.24 312.23 229.45 312.19 229.65 312.15 229.85 312.08 230.04 312.02 230.23 311.94 230.43 311.84 230.61 311.74 230.77 311.63 230.93 311.5 231.09 311.37 231.23 311.21 231.38 311.06 231.5 310.9 231.62 310.74 231.73 310.55 231.82 310.37 231.9 310.17 231.96 309.98 232.02 309.79 232.06 309.59 232.09 309.38 232.11 309.17 232.11 308.97 232.1 308.77 232.08 308.57 232.04 308.37 232 308.17 231.93 307.97 231.85 307.78 231.77 307.6 231.67 307.41 231.56 307.24 231.44 307.07 231.31 306.91 231.17 306.75 231.02 306.61 230.85 306.48 230.68 306.37 230.52 306.26 230.32 306.16 230.15 306.07 229.94 306 229.75 305.93 229.55 305.88 229.35 305.83 229.14 305.81 228.93 305.8 228.72 305.8 228.51 305.81 228.31 305.83 228.1 305.88 227.9 305.93 227.7 306 227.51 306.07 227.32 306.16 227.14 306.26 226.96 306.37 226.79 306.48 226.63 306.61 226.48 306.75 226.34 306.91 226.21 307.07 226.08 307.24 225.98 307.41 225.88 307.6 225.79 307.78 225.71 307.97 225.66 308.17 225.6 308.37 225.57 308.57 225.54 308.77 225.53 308.97 225.54 309.17 225.56 309.38 225.59 309.59 225.62 309.79 225.69 309.98 225.76 310.17 225.84 310.37 225.93 310.55 226.03 310.74 226.15 310.9 226.28 311.06 226.41 311.21 226.56 311.37 226.71 311.5 226.88 311.63 227.05 311.74 227.23 311.84 227.41 311.94 227.6 312.02 227.8 312.08 228 312.15 228.2 312.19 228.41 312.23 228.62 312.24 228.82 312.26"/></g><g id="ID000096"><line class="cls-5" x1="245.26" y1="299.28" x2="245.26" y2="318.64"/></g><g id="ID000097"><line class="cls-5" x1="261.7" y1="299.28" x2="261.7" y2="318.64"/></g><g id="ID000098"><polygon class="cls-14" points="278.14 312.26 278.35 312.24 278.55 312.23 278.76 312.19 278.97 312.15 279.17 312.08 279.36 312.02 279.55 311.94 279.74 311.84 279.92 311.74 280.09 311.63 280.25 311.5 280.4 311.37 280.55 311.21 280.69 311.06 280.82 310.9 280.93 310.74 281.03 310.55 281.13 310.37 281.21 310.17 281.28 309.98 281.33 309.79 281.38 309.59 281.4 309.38 281.42 309.17 281.42 308.97 281.41 308.77 281.39 308.57 281.36 308.37 281.3 308.17 281.24 307.97 281.17 307.78 281.09 307.6 280.99 307.41 280.87 307.24 280.75 307.07 280.63 306.91 280.48 306.75 280.33 306.61 280.17 306.48 280 306.37 279.83 306.26 279.64 306.16 279.46 306.07 279.26 306 279.07 305.93 278.87 305.88 278.66 305.83 278.45 305.81 278.24 305.8 278.03 305.8 277.82 305.81 277.62 305.83 277.42 305.88 277.22 305.93 277.01 306 276.82 306.07 276.63 306.16 276.45 306.26 276.27 306.37 276.11 306.48 275.95 306.61 275.79 306.75 275.66 306.91 275.52 307.07 275.4 307.24 275.29 307.41 275.2 307.6 275.11 307.78 275.03 307.97 274.97 308.17 274.92 308.37 274.88 308.57 274.86 308.77 274.85 308.97 274.85 309.17 274.87 309.38 274.9 309.59 274.94 309.79 274.99 309.98 275.06 310.17 275.15 310.37 275.24 310.55 275.34 310.74 275.45 310.9 275.59 311.06 275.72 311.21 275.87 311.37 276.03 311.5 276.18 311.63 276.36 311.74 276.54 311.84 276.72 311.94 276.91 312.02 277.12 312.08 277.32 312.15 277.52 312.19 277.72 312.23 277.92 312.24 278.14 312.26"/></g><g id="ID000099"><line class="cls-5" x1="294.57" y1="299.28" x2="294.57" y2="318.64"/></g><g id="ID000100"><line class="cls-5" x1="311.01" y1="299.28" x2="311.01" y2="318.64"/></g><g id="ID000101"><polygon class="cls-14" points="327.45 312.26 327.66 312.24 327.87 312.23 328.08 312.19 328.28 312.15 328.47 312.08 328.67 312.02 328.86 311.94 329.04 311.84 329.23 311.74 329.4 311.63 329.56 311.5 329.72 311.37 329.86 311.21 330.01 311.06 330.13 310.9 330.24 310.74 330.34 310.55 330.45 310.37 330.52 310.17 330.59 309.98 330.65 309.79 330.69 309.59 330.71 309.38 330.74 309.17 330.74 308.97 330.73 308.77 330.7 308.57 330.67 308.37 330.61 308.17 330.56 307.97 330.48 307.78 330.4 307.6 330.3 307.41 330.19 307.24 330.06 307.07 329.94 306.91 329.8 306.75 329.64 306.61 329.48 306.48 329.31 306.37 329.14 306.26 328.95 306.16 328.77 306.07 328.57 306 328.38 305.93 328.18 305.88 327.97 305.83 327.76 305.81 327.55 305.8 327.35 305.8 327.14 305.81 326.93 305.83 326.72 305.88 326.52 305.93 326.33 306 326.14 306.07 325.95 306.16 325.77 306.26 325.59 306.37 325.42 306.48 325.26 306.61 325.11 306.75 324.97 306.91 324.84 307.07 324.71 307.24 324.6 307.41 324.5 307.6 324.42 307.78 324.34 307.97 324.29 308.17 324.23 308.37 324.2 308.57 324.17 308.77 324.16 308.97 324.16 309.17 324.19 309.38 324.21 309.59 324.25 309.79 324.31 309.98 324.38 310.17 324.46 310.37 324.56 310.55 324.66 310.74 324.77 310.9 324.9 311.06 325.04 311.21 325.18 311.37 325.34 311.5 325.5 311.63 325.68 311.74 325.86 311.84 326.04 311.94 326.23 312.02 326.43 312.08 326.63 312.15 326.83 312.19 327.03 312.23 327.24 312.24 327.45 312.26"/></g><g id="ID000102"><polygon class="cls-14" points="343.89 312.26 344.1 312.24 344.3 312.23 344.52 312.19 344.72 312.15 344.91 312.08 345.11 312.02 345.3 311.94 345.49 311.84 345.66 311.74 345.84 311.63 346 311.5 346.15 311.37 346.3 311.21 346.44 311.06 346.57 310.9 346.68 310.74 346.78 310.55 346.88 310.37 346.96 310.17 347.03 309.98 347.09 309.79 347.13 309.59 347.15 309.38 347.18 309.17 347.18 308.97 347.16 308.77 347.14 308.57 347.11 308.37 347.05 308.17 347 307.97 346.92 307.78 346.84 307.6 346.74 307.41 346.63 307.24 346.5 307.07 346.37 306.91 346.23 306.75 346.08 306.61 345.92 306.48 345.75 306.37 345.58 306.26 345.39 306.16 345.21 306.07 345.01 306 344.81 305.93 344.62 305.88 344.4 305.83 344.2 305.81 343.99 305.8 343.79 305.8 343.57 305.81 343.37 305.83 343.17 305.88 342.97 305.93 342.77 306 342.57 306.07 342.38 306.16 342.2 306.26 342.02 306.37 341.86 306.48 341.7 306.61 341.54 306.75 341.41 306.91 341.27 307.07 341.15 307.24 341.04 307.41 340.95 307.6 340.86 307.78 340.78 307.97 340.72 308.17 340.67 308.37 340.63 308.57 340.61 308.77 340.6 308.97 340.6 309.17 340.62 309.38 340.66 309.59 340.69 309.79 340.75 309.98 340.81 310.17 340.89 310.37 340.99 310.55 341.09 310.74 341.21 310.9 341.34 311.06 341.48 311.21 341.62 311.37 341.78 311.5 341.94 311.63 342.12 311.74 342.3 311.84 342.47 311.94 342.67 312.02 342.87 312.08 343.06 312.15 343.27 312.19 343.47 312.23 343.69 312.24 343.89 312.26"/></g><g id="ID000103"><line class="cls-5" x1="366.9" y1="291.95" x2="440.05" y2="291.95"/></g><g id="ID000104"><polygon class="cls-10" points="397.99 287.1 400.73 289.54 403.48 290.33 406.22 290.74 411.69 291.96 406.22 293.16 403.48 293.56 400.73 294.37 397.99 296.79 397.99 287.1"/></g><g id="ID000105"><line class="cls-5" x1="360.33" y1="299.28" x2="360.33" y2="318.64"/></g><g id="ID000107"><text class="cls-11" transform="translate(440.51 299.21) scale(1.02 1)">G</text></g><g id="ID000108"><text class="cls-11" transform="translate(457.38 299.21) scale(1.02 1)">C</text></g><g id="ID000109"><text class="cls-11" transform="translate(473.38 299.21) scale(1.02 1)">G</text></g><g id="ID000110"><text class="cls-11" transform="translate(490.26 299.21) scale(1.02 1)">C</text></g><g id="ID000111"><text class="cls-15" transform="translate(507.14 299.21) scale(1.02 1)">A</text></g><g id="ID000112"><text class="cls-12" transform="translate(523.57 291.14) scale(1.02 1)">A</text></g><g id="ID000113"><text class="cls-12" transform="translate(531.79 275.01) scale(1.02 1)">A</text></g><g id="ID000114"><text class="cls-11" transform="translate(506.7 331.48) scale(1.02 1)">U</text></g><g id="ID000115"><line class="cls-5" x1="512.38" y1="334.98" x2="512.38" y2="345.73"/></g><g id="ID000116"><text class="cls-6" transform="translate(504.13 360.79) scale(1.02 1)">80</text></g><g id="ID000117"><text class="cls-11" transform="translate(489.82 331.48) scale(1.02 1)">G</text></g><g id="ID000118"><text class="cls-11" transform="translate(473.82 331.48) scale(1.02 1)">C</text></g><g id="ID000119"><text class="cls-11" transform="translate(456.95 331.48) scale(1.02 1)">G</text></g><g id="ID000120"><text class="cls-11" transform="translate(440.95 331.48) scale(1.02 1)">U</text></g><g id="ID000121"><text class="cls-1" transform="translate(424.51 339.55) scale(1.02 1)">C</text></g><g id="ID000122"><text class="cls-1" transform="translate(408.07 351.65) scale(1.02 1)">U</text></g><g id="ID000123"><polygon class="cls-14" points="446.62 312.26 446.84 312.24 447.04 312.23 447.25 312.19 447.45 312.15 447.64 312.08 447.85 312.02 448.04 311.94 448.23 311.84 448.4 311.74 448.57 311.63 448.73 311.5 448.89 311.37 449.03 311.21 449.17 311.06 449.31 310.9 449.42 310.74 449.52 310.55 449.62 310.37 449.7 310.17 449.76 309.98 449.82 309.79 449.87 309.59 449.89 309.38 449.91 309.17 449.91 308.97 449.9 308.77 449.88 308.57 449.84 308.37 449.8 308.17 449.73 307.97 449.65 307.78 449.57 307.6 449.47 307.41 449.36 307.24 449.24 307.07 449.1 306.91 448.97 306.75 448.81 306.61 448.65 306.48 448.49 306.37 448.32 306.26 448.13 306.16 447.95 306.07 447.75 306 447.55 305.93 447.35 305.88 447.14 305.83 446.94 305.81 446.72 305.8 446.52 305.8 446.31 305.81 446.11 305.83 445.89 305.88 445.7 305.93 445.5 306 445.31 306.07 445.12 306.16 444.94 306.26 444.76 306.37 444.59 306.48 444.44 306.61 444.28 306.75 444.14 306.91 444.01 307.07 443.88 307.24 443.77 307.41 443.68 307.6 443.59 307.78 443.51 307.97 443.46 308.17 443.4 308.37 443.37 308.57 443.35 308.77 443.33 308.97 443.33 309.17 443.36 309.38 443.39 309.59 443.43 309.79 443.48 309.98 443.55 310.17 443.63 310.37 443.73 310.55 443.83 310.74 443.94 310.9 444.08 311.06 444.21 311.21 444.36 311.37 444.51 311.5 444.67 311.63 444.85 311.74 445.03 311.84 445.21 311.94 445.4 312.02 445.6 312.08 445.79 312.15 446.01 312.19 446.21 312.23 446.42 312.24 446.62 312.26"/></g><g id="ID000124"><line class="cls-5" x1="463.06" y1="299.28" x2="463.06" y2="318.64"/></g><g id="ID000125"><line class="cls-5" x1="479.5" y1="299.28" x2="479.5" y2="318.64"/></g><g id="ID000126"><line class="cls-5" x1="495.94" y1="299.28" x2="495.94" y2="318.64"/></g><g id="ID000127"><line class="cls-5" x1="512.38" y1="299.28" x2="512.38" y2="318.64"/></g><g id="ID000128"><line class="cls-5" x1="579.77" y1="324.22" x2="518.95" y2="324.22"/></g><g id="ID000129"><polygon class="cls-10" points="554.84 329.06 552.1 326.64 549.36 325.83 546.62 325.44 541.15 324.22 546.62 323.01 549.36 322.61 552.1 321.8 554.84 319.39 554.84 329.06"/></g><g id="ID000131"><text class="cls-12" transform="translate(552.33 275.01) scale(1.02 1)">A</text></g><g id="ID000132"><text class="cls-1" transform="translate(564.23 291.14) scale(1.02 1)">C</text></g><g id="ID000133"><text class="cls-16" transform="translate(580.66 299.21) scale(1.02 1)">C</text></g><g id="ID000134"><line class="cls-5" x1="586.34" y1="281.19" x2="586.34" y2="270.43"/></g><g id="ID000135"><text class="cls-6" transform="translate(577.6 266.4) scale(1.02 1)">60</text></g><g id="ID000136"><text class="cls-17" transform="translate(597.54 299.21) scale(1.02 1)">A</text></g><g id="ID000137"><text class="cls-16" transform="translate(613.54 299.21) scale(1.02 1)">U</text></g><g id="ID000138"><text class="cls-1" transform="translate(634.08 287.1) scale(1.02 1)">C</text></g><g id="ID000139"><text class="cls-1" transform="translate(634.08 343.58) scale(1.02 1)">U</text></g><g id="ID000140"><text class="cls-17" transform="translate(613.98 331.48) scale(1.02 1)">A</text></g><g id="ID000141"><text class="cls-16" transform="translate(597.1 331.48) scale(1.02 1)">U</text></g><g id="ID000142"><text class="cls-16" transform="translate(580.23 331.48) scale(1.02 1)">G</text></g><g id="ID000143"><line class="cls-5" x1="586.34" y1="299.28" x2="586.34" y2="318.64"/></g><g id="ID000144"><line class="cls-5" x1="602.78" y1="299.28" x2="602.78" y2="318.64"/></g><g id="ID000145"><line class="cls-5" x1="619.22" y1="299.28" x2="619.22" y2="318.64"/></g><g id="ID000147"><text class="cls-16" transform="translate(650.1 299.21) scale(1.02 1)">G</text></g><g id="ID000148"><text class="cls-16" transform="translate(666.52 299.21) scale(1.02 1)">G</text></g><g id="ID000149"><text class="cls-16" transform="translate(683.4 299.21) scale(1.02 1)">C</text></g><g id="ID000150"><text class="cls-1" transform="translate(699.84 291.14) scale(1.02 1)">C</text></g><g id="ID000151"><text class="cls-1" transform="translate(720.39 287.1) scale(1.02 1)">C</text></g><g id="ID000152"><text class="cls-1" transform="translate(736.83 299.21) scale(1.02 1)">U</text></g><g id="ID000153"><text class="cls-1" transform="translate(736.39 331.48) scale(1.02 1)">G</text></g><g id="ID000154"><line class="cls-5" x1="753.46" y1="324.22" x2="764.42" y2="324.22"/></g><g id="ID000155"><text class="cls-6" transform="translate(767.52 330.34) scale(1.02 1)">70</text></g><g id="ID000156"><text class="cls-1" transform="translate(719.94 343.58) scale(1.02 1)">G</text></g><g id="ID000157"><text class="cls-1" transform="translate(699.84 339.55) scale(1.02 1)">U</text></g><g id="ID000158"><text class="cls-16" transform="translate(682.96 331.48) scale(1.02 1)">G</text></g><g id="ID000159"><text class="cls-16" transform="translate(666.96 331.48) scale(1.02 1)">C</text></g><g id="ID000160"><text class="cls-16" transform="translate(650.53 331.48) scale(1.02 1)">C</text></g><g id="ID000161"><line class="cls-5" x1="656.2" y1="299.28" x2="656.2" y2="318.64"/></g><g id="ID000162"><line class="cls-5" x1="672.64" y1="299.28" x2="672.64" y2="318.64"/></g><g id="ID000163"><line class="cls-5" x1="689.08" y1="299.28" x2="689.08" y2="318.64"/></g><g id="ID000165"><line class="cls-5" x1="742.51" y1="298.4" x2="742.51" y2="317.77"/></g><g id="ID000166"><polygon class="cls-10" points="747.43 302.7 744.96 305.39 744.15 308.09 743.73 310.78 742.51 316.15 741.27 310.78 740.86 308.09 740.04 305.39 737.57 302.7 747.43 302.7"/></g><text class="cls-18" transform="translate(330.16 31.43)">g18_04 aptamer</text><text class="cls-18" transform="translate(123.91 343.89) scale(1.14 1)">5</text><text class="cls-19" transform="translate(135.03 343.89) scale(1.14 1)">’</text><text class="cls-18" transform="translate(170.97 345.73) scale(1.14 1)">3</text><text class="cls-19" transform="translate(182.09 345.73) scale(1.14 1)">’</text></svg>