<svg id="图层_1" data-name="图层 1" xmlns="http://www.w3.org/2000/svg" viewBox="0 0 800 400"><defs><style>.cls-1,.cls-10,.cls-2,.cls-4,.cls-5,.cls-6,.cls-7,.cls-8,.cls-9{isolation:isolate;}.cls-1,.cls-2,.cls-4,.cls-5{font-size:16.58px;}.cls-1,.cls-10,.cls-2,.cls-8{fill:#ff7f0e;}.cls-1,.cls-10,.cls-12,.cls-14,.cls-2,.cls-4,.cls-5,.cls-6,.cls-7,.cls-8,.cls-9{font-family:ArialMT, Arial;}.cls-2{letter-spacing:-0.06em;}.cls-3{fill:none;}.cls-11,.cls-3{stroke:#000;stroke-width:0.5px;}.cls-5,.cls-6,.cls-7{fill:#e377c2;}.cls-10,.cls-6,.cls-7,.cls-8,.cls-9{font-size:16.58px;}.cls-10,.cls-7{letter-spacing:-0.06em;}.cls-12{font-size:15px;}.cls-13{letter-spacing:-0.04em;}.cls-14{font-size:20px;}</style></defs><title>G5α3N.4 _apatamer_2D1</title><g id="topgroup"><g id="ID000000"><g id="ID000002"><text class="cls-1" transform="translate(296.66 353.7) rotate(-22.76)">G</text></g><g id="ID000003"><text class="cls-1" transform="translate(278.24 347.33) rotate(-22.76)">G</text></g><g id="ID000004"><text class="cls-2" transform="translate(263.59 339.17) rotate(-22.76)">A</text></g><g id="ID000005"><text class="cls-1" transform="translate(250.32 322.83) rotate(-22.76)">G</text></g><g id="ID000006"><text class="cls-2" transform="translate(244.84 309.77) rotate(-22.76)">A</text></g><g id="ID000007"><text class="cls-1" transform="translate(238.4 294.41) rotate(-22.76)">C</text></g><g id="ID000008"><text class="cls-1" transform="translate(231.49 277.95) rotate(-22.76)">C</text></g><g id="ID000009"><text class="cls-1" transform="translate(232.51 254.91) rotate(-22.76)">C</text></g><g id="ID000010"><text class="cls-2" transform="translate(237.79 233.47) rotate(-22.76)">A</text></g><g id="ID000011"><text class="cls-2" transform="translate(244.33 214.87) rotate(-22.76)">A</text></g><g id="ID000012"><line class="cls-3" x1="236.32" y1="204" x2="226.01" y2="201.95"/></g><g id="ID000013"><text class="cls-4" transform="translate(207.44 205.37) rotate(-22.76)">10</text></g><g id="ID000014"><text class="cls-1" transform="translate(257.68 201) rotate(-22.76)">G</text></g><g id="ID000015"><text class="cls-1" transform="translate(249.35 187.71) rotate(-22.76)">C</text></g><g id="ID000016"><text class="cls-1" transform="translate(240.59 174.6) rotate(-22.76)">C</text></g><g id="ID000017"><text class="cls-1" transform="translate(231.41 161.67) rotate(-22.76)">G</text></g><g id="ID000018"><text class="cls-2" transform="translate(223.5 148.2) rotate(-22.76)">A</text></g><g id="ID000019"><text class="cls-1" transform="translate(201.2 144.03) rotate(-22.76)">U</text></g><g id="ID000020"><text class="cls-1" transform="translate(186.98 129.83) rotate(-22.76)">U</text></g><g id="ID000021"><text class="cls-1" transform="translate(184.77 112.34) rotate(-22.76)">U</text></g><g id="ID000022"><text class="cls-2" transform="translate(193.93 96.84) rotate(-22.76)">A</text></g><g id="ID000023"><text class="cls-5" transform="translate(210.99 94.82) rotate(-22.76)">U</text></g><g id="ID000024"><line class="cls-3" x1="215.76" y1="75.51" x2="217.81" y2="65.2"/></g><g id="ID000025"><text class="cls-4" transform="translate(216.26 61.49) rotate(-22.76)">20</text></g><g id="ID000026"><text class="cls-5" transform="translate(232.86 99.17) rotate(-22.76)">U</text></g><g id="ID000027"><text class="cls-5" transform="translate(250.37 111.18) rotate(-22.76)">U</text></g><g id="ID000028"><text class="cls-5" transform="translate(249.3 130.86) rotate(-22.76)">U</text></g><g id="ID000029"><text class="cls-5" transform="translate(257.63 144.15) rotate(-22.76)">G</text></g><g id="ID000030"><text class="cls-5" transform="translate(266.81 157.08) rotate(-22.76)">U</text></g><g id="ID000031"><text class="cls-5" transform="translate(275.15 170.37) rotate(-22.76)">G</text></g><g id="ID000032"><text class="cls-5" transform="translate(284.33 183.31) rotate(-22.76)">C</text></g><g id="ID000033"><text class="cls-2" transform="translate(298.95 168.9) rotate(-22.76)">A</text></g><g id="ID000034"><text class="cls-1" transform="translate(313.41 163.78) rotate(-22.76)">G</text></g><g id="ID000035"><text class="cls-1" transform="translate(333.34 156.19) rotate(-22.76)">C</text></g><g id="ID000036"><line class="cls-3" x1="339.37" y1="139.9" x2="341.42" y2="129.59"/></g><g id="ID000037"><text class="cls-4" transform="translate(339.86 125.87) rotate(-22.76)">30</text></g><g id="ID000038"><text class="cls-1" transform="translate(351.1 152.65) rotate(-22.76)">U</text></g><g id="ID000039"><text class="cls-1" transform="translate(366.52 155.33) rotate(-22.76)">U</text></g><g id="ID000040"><line class="cls-3" x1="266.07" y1="188.32" x2="281.81" y2="177.81"/></g><g id="ID000041"><line class="cls-3" x1="257.31" y1="175.21" x2="273.05" y2="164.7"/></g><g id="ID000042"><line class="cls-3" x1="248.55" y1="162.1" x2="264.29" y2="151.59"/></g><g id="ID000043"><line class="cls-3" x1="239.79" y1="148.99" x2="255.53" y2="138.48"/></g><g id="ID000044"><line class="cls-3" x1="231.04" y1="135.88" x2="246.77" y2="125.37"/></g><g id="ID000046"><text class="cls-1" transform="translate(383.31 156.56) rotate(-22.76)">U</text></g><g id="ID000047"><text class="cls-1" transform="translate(399.02 160.9) rotate(-22.76)">U</text></g><g id="ID000048"><text class="cls-1" transform="translate(412.91 170.25) rotate(-22.76)">G</text></g><g id="ID000049"><text class="cls-1" transform="translate(428.7 179.76) rotate(-22.76)">U</text></g><g id="ID000050"><text class="cls-1" transform="translate(444.48 189.64) rotate(-22.76)">U</text></g><g id="ID000051"><text class="cls-6" transform="matrix(0.28, 0.96, -0.96, 0.28, 446.46, 194.36)">C</text></g><g id="ID000052"><text class="cls-6" transform="matrix(0.28, 0.96, -0.96, 0.28, 460.46, 187.1)">C</text></g><g id="ID000053"><text class="cls-6" transform="matrix(0.28, 0.96, -0.96, 0.28, 474.46, 179.84)">C</text></g><g id="ID000056"><text class="cls-6" transform="matrix(0.28, 0.96, -0.96, 0.28, 488.45, 172.58)">U</text></g><g id="ID000057"><text class="cls-6" transform="matrix(0.28, 0.96, -0.96, 0.28, 502.45, 165.32)">U</text></g><g id="ID000058"><text class="cls-6" transform="matrix(0.28, 0.96, -0.96, 0.28, 516.32, 149.24)">U</text></g><g id="ID000059"><text class="cls-7" transform="matrix(0.28, 0.96, -0.96, 0.28, 535.89, 152.92)">A</text></g><g id="ID000060"><text class="cls-6" transform="matrix(0.28, 0.96, -0.96, 0.28, 544.7, 169.53)">G</text></g><g id="ID000061"><text class="cls-6" transform="matrix(0.28, 0.96, -0.96, 0.28, 538.1, 191.23)">U</text></g><g id="ID000062"><text class="cls-6" transform="matrix(0.28, 0.96, -0.96, 0.28, 516.84, 192.87)">G</text></g><g id="ID000063"><text class="cls-7" transform="matrix(0.28, 0.96, -0.96, 0.28, 503.1, 201.01)">A</text></g><g id="ID000064"><text class="cls-6" transform="matrix(0.28, 0.96, -0.96, 0.28, 488.85, 207.39)">G</text></g><g id="ID000065"><text class="cls-8" transform="matrix(0.28, 0.96, -0.96, 0.28, 474.85, 214.65)">G</text></g><g id="ID000066"><line class="cls-3" x1="488.46" y1="228.11" x2="493.3" y2="237.45"/></g><g id="ID000067"><text class="cls-9" transform="matrix(0.28, 0.96, -0.96, 0.28, 486.35, 239.5)">50</text></g><g id="ID000068"><text class="cls-8" transform="matrix(0.28, 0.96, -0.96, 0.28, 460.85, 221.91)">G</text></g><g id="ID000069"><text class="cls-8" transform="matrix(0.28, 0.96, -0.96, 0.28, 464.79, 238.05)">U</text></g><g id="ID000070"><text class="cls-8" transform="matrix(0.28, 0.96, -0.96, 0.28, 460.86, 256.39)">U</text></g><g id="ID000071"><text class="cls-10" transform="matrix(0.28, 0.96, -0.96, 0.28, 460.46, 271.15)">A</text></g><g id="ID000072"><text class="cls-10" transform="matrix(0.28, 0.96, -0.96, 0.28, 452.48, 288.32)">A</text></g><g id="ID000073"><text class="cls-8" transform="matrix(0.28, 0.96, -0.96, 0.28, 438.54, 301.15)">U</text></g><g id="ID000074"><text class="cls-8" transform="matrix(0.28, 0.96, -0.96, 0.28, 428.7, 313.4)">U</text></g><g id="ID000075"><line class="cls-3" x1="458.01" y1="203.65" x2="466.72" y2="220.44"/></g><g id="ID000076"><line class="cls-3" x1="472.01" y1="196.39" x2="480.72" y2="213.18"/></g><g id="ID000077"><line class="cls-3" x1="486.01" y1="189.13" x2="494.72" y2="205.92"/></g><g id="ID000078"><line class="cls-3" x1="500" y1="181.87" x2="508.71" y2="198.66"/></g><g id="ID000079"><polygon class="cls-11" points="519.81 185.81 519.98 185.71 520.15 185.6 520.31 185.48 520.47 185.35 520.61 185.21 520.74 185.06 520.87 184.91 520.99 184.75 521.09 184.57 521.18 184.4 521.27 184.22 521.34 184.03 521.4 183.84 521.45 183.64 521.48 183.45 521.5 183.25 521.51 183.05 521.51 182.85 521.49 182.65 521.46 182.45 521.42 182.25 521.37 182.06 521.3 181.87 521.22 181.69 521.13 181.51 521.03 181.34 520.92 181.17 520.8 181.01 520.67 180.86 520.53 180.72 520.38 180.58 520.22 180.46 520.05 180.35 519.88 180.25 519.7 180.16 519.52 180.07 519.33 180.01 519.14 179.95 518.95 179.91 518.75 179.88 518.55 179.86 518.35 179.85 518.15 179.86 517.95 179.88 517.75 179.91 517.56 179.95 517.37 180.01 517.18 180.08 516.99 180.16 516.82 180.25 516.64 180.36 516.48 180.47 516.32 180.59 516.17 180.73 516.03 180.87 515.9 181.02 515.78 181.18 515.67 181.35 515.57 181.52 515.48 181.7 515.41 181.89 515.34 182.08 515.29 182.27 515.25 182.47 515.22 182.66 515.21 182.86 515.2 183.06 515.21 183.26 515.24 183.46 515.27 183.66 515.32 183.85 515.38 184.04 515.45 184.23 515.53 184.41 515.63 184.59 515.73 184.76 515.85 184.92 515.98 185.08 516.11 185.22 516.26 185.36 516.41 185.49 516.57 185.61 516.74 185.72 516.92 185.81 517.1 185.9 517.28 185.97 517.48 186.03 517.67 186.08 517.87 186.12 518.06 186.15 518.26 186.16 518.46 186.16 518.66 186.14 518.86 186.12 519.06 186.08 519.25 186.03 519.44 185.97 519.63 185.89 519.81 185.81"/></g></g></g><text class="cls-12" transform="translate(305 364.33)">5<tspan class="cls-13" x="8.34" y="0">’</tspan></text><text class="cls-12" transform="translate(423.33 339.17)">3<tspan class="cls-13" x="8.34" y="0">’</tspan></text><text class="cls-14" transform="translate(406.72 48.5)">G5α3N.4 aptamer</text></svg>