<?xml version="1.0" encoding="utf-8"?>
<!-- Generator: Adobe Illustrator 22.1.0, SVG Export Plug-In . SVG Version: 6.00 Build 0)  -->
<svg version="1.1" id="图层_1" xmlns="http://www.w3.org/2000/svg" xmlns:xlink="http://www.w3.org/1999/xlink" x="0px" y="0px"
	 viewBox="0 0 800 400" style="enable-background:new 0 0 800 400;" xml:space="preserve">
<style type="text/css">
	.st0{fill:#C2B617;}
	.st1{font-family:'ArialMT';}
	.st2{font-size:16.5793px;}
	.st3{fill:none;stroke:#000000;stroke-width:0.5;}
	.st4{fill:#B83233;}
	.st5{font-size:16.5806px;}
	.st6{font-size:16.5794px;}
	.st7{font-size:16.5808px;}
	.st8{font-size:16.58px;}
	.st9{font-size:16.5795px;}
	.st10{fill:none;stroke:#000000;}
	.st11{fill:#084595;}
	.st12{stroke:#000000;stroke-width:0.5;}
	.st13{font-size:15px;}
	.st14{font-size:20px;}
</style>
<title>G5α3N.4 _apatamer_2D1</title>
<g>
	<g>
		<g id="ID000002">
			<text transform="matrix(0.9988 -4.815439e-02 4.815439e-02 0.9988 321.4148 361.1063)" class="st0 st1 st2">G</text>
		</g>
		<g id="ID000003">
			<text transform="matrix(0.9988 -4.815439e-02 4.815439e-02 0.9988 302.9954 354.7359)" class="st0 st1 st2">G</text>
		</g>
		<g id="ID000004">
			<text transform="matrix(0.9988 -4.815439e-02 4.815439e-02 0.9988 288.4154 346.8859)" class="st0 st1 st2">A</text>
		</g>
		<g id="ID000005">
			<text transform="matrix(0.9988 -4.815439e-02 4.815439e-02 0.9988 275.2977 333.7357)" class="st0 st1 st2">G</text>
		</g>
		<g id="ID000006">
			<text transform="matrix(0.9988 -4.815439e-02 4.815439e-02 0.9988 265.6525 317.487)" class="st0 st1 st2">A</text>
		</g>
		<g id="ID000007">
			<text transform="matrix(0.9988 -4.815439e-02 4.815439e-02 0.9988 258.1575 301.9734)" class="st0 st1 st2">C</text>
		</g>
		<g id="ID000008">
			<text transform="matrix(0.9988 -4.815439e-02 4.815439e-02 0.9988 256.2806 280.4021)" class="st0 st1 st2">C</text>
		</g>
		<g id="ID000009">
			<text transform="matrix(0.9988 -4.815439e-02 4.815439e-02 0.9988 257.3007 262.4718)" class="st0 st1 st2">C</text>
		</g>
		<g id="ID000010">
			<text transform="matrix(0.9988 -4.815439e-02 4.815439e-02 0.9988 262.6154 241.1863)" class="st0 st1 st2">A</text>
		</g>
		<g id="ID000011">
			<text transform="matrix(0.9988 -4.815439e-02 4.815439e-02 0.9988 269.1555 222.5861)" class="st0 st1 st2">A</text>
		</g>
		<g id="ID000012">
			<line class="st3" x1="263.1" y1="213.3" x2="252.8" y2="211.2"/>
		</g>
		<g id="ID000013">
			<text transform="matrix(0.9988 -4.815439e-02 4.815439e-02 0.9988 231.982 211.8373)" class="st1 st2">10</text>
		</g>
		<g id="ID000014">
			<text transform="matrix(0.9988 -4.815439e-02 4.815439e-02 0.9988 282.4348 208.4058)" class="st4 st1 st2">G</text>
		</g>
		<g id="ID000015">
			<text transform="matrix(0.9988 -4.815439e-02 4.815439e-02 0.9988 274.1404 195.2724)" class="st4 st1 st2">C</text>
		</g>
		<g id="ID000016">
			<text transform="matrix(0.9988 -4.815439e-02 4.815439e-02 0.9988 265.3808 182.1624)" class="st4 st1 st2">C</text>
		</g>
		<g id="ID000017">
			<text transform="matrix(0.9988 -4.815439e-02 4.815439e-02 0.9988 256.1653 169.0763)" class="st4 st1 st2">G</text>
		</g>
		<g id="ID000018">
			<text transform="matrix(0.9988 -4.815439e-02 4.815439e-02 0.9988 248.3252 155.9161)" class="st4 st1 st2">A</text>
		</g>
		<g id="ID000019">
			<text transform="matrix(0.9988 -4.815439e-02 4.815439e-02 0.9988 229.4901 151.5925)" class="st4 st1 st2">U</text>
		</g>
		<g id="ID000020">
			<text transform="matrix(0.9988 -4.815439e-02 4.815439e-02 0.9988 211.7706 137.3922)" class="st4 st1 st2">U</text>
		</g>
		<g id="ID000021">
			<text transform="matrix(0.9988 -4.815439e-02 4.815439e-02 0.9988 209.5606 119.9022)" class="st4 st1 st2">U</text>
		</g>
		<g id="ID000022">
			<text transform="matrix(0.9988 -4.815439e-02 4.815439e-02 0.9988 218.7552 104.5559)" class="st4 st1 st2">A</text>
		</g>
		<g id="ID000023">
			<text transform="matrix(0.9988 -4.815439e-02 4.815439e-02 0.9988 238.2805 98.8825)" class="st4 st1 st2">U</text>
		</g>
		<g id="ID000024">
			<line class="st3" x1="242.5" y1="84.8" x2="244.6" y2="74.5"/>
		</g>
		<g id="ID000025">
			<text transform="matrix(0.9994 -3.559818e-02 3.559818e-02 0.9994 240.7418 67.8438)" class="st1 st5">20</text>
		</g>
		<g id="ID000026">
			<text transform="matrix(0.9988 -4.815439e-02 4.815439e-02 0.9988 257.3009 104.5572)" class="st4 st1 st2">U</text>
		</g>
		<g id="ID000027">
			<text transform="matrix(0.9988 -4.815439e-02 4.815439e-02 0.9988 269.1557 119.9025)" class="st4 st1 st2">U</text>
		</g>
		<g id="ID000028">
			<text transform="matrix(0.9988 -4.815439e-02 4.815439e-02 0.9988 274.0903 138.4227)" class="st4 st1 st2">U</text>
		</g>
		<g id="ID000029">
			<text transform="matrix(0.9988 -4.815439e-02 4.815439e-02 0.9988 282.3847 151.5561)" class="st4 st1 st2">G</text>
		</g>
		<g id="ID000030">
			<text transform="matrix(0.9988 -4.815439e-02 4.815439e-02 0.9988 291.6008 164.6422)" class="st4 st1 st2">U</text>
		</g>
		<g id="ID000031">
			<text transform="matrix(0.9988 -4.815439e-02 4.815439e-02 0.9988 299.905 177.7761)" class="st4 st1 st2">G</text>
		</g>
		<g id="ID000032">
			<text transform="matrix(0.9988 -4.815439e-02 4.815439e-02 0.9988 309.1205 190.8719)" class="st4 st1 st2">C</text>
		</g>
		<g id="ID000033">
			<text transform="matrix(0.9997 -2.302759e-02 2.302759e-02 0.9997 323.6967 176.5222)" class="st0 st1 st6">A</text>
		</g>
		<g id="ID000034">
			<text transform="matrix(0.9974 7.274163e-02 -7.274163e-02 0.9974 337.6401 170.4005)" class="st0 st1 st7">G</text>
		</g>
		<g id="ID000035">
			<text transform="matrix(0.9914 -0.1309 0.1309 0.9914 358.5408 164.2148)" class="st0 st1 st8">C</text>
		</g>
		<g id="ID000036">
			<line class="st3" x1="366.1" y1="149.2" x2="368.2" y2="138.8"/>
		</g>
		<g id="ID000037">
			<text transform="matrix(0.9988 -4.815439e-02 4.815439e-02 0.9988 364.4025 132.3372)" class="st1 st2">30</text>
		</g>
		<g id="ID000038">
			<text transform="matrix(0.9984 -5.596896e-02 5.596896e-02 0.9984 375.9276 160.2582)" class="st0 st1 st9">U</text>
		</g>
		<g id="ID000039">
			<text transform="matrix(0.9988 -4.815439e-02 4.815439e-02 0.9988 391.3104 162.8924)" class="st0 st1 st2">U</text>
		</g>
		<g id="ID000040">
			<line class="st10" x1="292.8" y1="197.6" x2="308.6" y2="187.1"/>
		</g>
		<g id="ID000041">
			<line class="st10" x1="284.1" y1="184.5" x2="299.8" y2="174"/>
		</g>
		<g id="ID000042">
			<line class="st10" x1="275.3" y1="171.4" x2="291" y2="160.8"/>
		</g>
		<g id="ID000043">
			<line class="st10" x1="266.5" y1="158.2" x2="282.3" y2="147.7"/>
		</g>
		<g id="ID000044">
			<line class="st10" x1="257.8" y1="145.1" x2="273.5" y2="134.6"/>
		</g>
		<g id="ID000046">
			<text transform="matrix(0.9988 -4.815439e-02 4.815439e-02 0.9988 408.1005 164.1224)" class="st0 st1 st2">U</text>
		</g>
		<g id="ID000047">
			<text transform="matrix(0.9988 -4.815439e-02 4.815439e-02 0.9988 423.8107 168.4627)" class="st0 st1 st2">U</text>
		</g>
		<g id="ID000048">
			<text transform="matrix(0.9988 -4.815439e-02 4.815439e-02 0.9988 437.6649 177.6559)" class="st0 st1 st2">G</text>
		</g>
		<g id="ID000049">
			<text transform="matrix(0.9988 -4.815439e-02 4.815439e-02 0.9988 453.4906 187.322)" class="st0 st1 st2">U</text>
		</g>
		<g id="ID000050">
			<text transform="matrix(0.9988 -4.815439e-02 4.815439e-02 0.9988 469.2703 197.2025)" class="st0 st1 st2">U</text>
		</g>
		<g id="ID000051">
			<text transform="matrix(0.9975 -7.073714e-02 7.073714e-02 0.9975 473.4702 212.9555)" class="st11 st1 st8">C</text>
		</g>
		<g id="ID000052">
			<text transform="matrix(0.9975 -7.080465e-02 7.080465e-02 0.9975 487.4702 205.6956)" class="st11 st1 st8">C</text>
		</g>
		<g id="ID000053">
			<text transform="matrix(0.9975 -7.080465e-02 7.080465e-02 0.9975 501.4702 198.4355)" class="st11 st1 st8">C</text>
		</g>
		<g id="ID000056">
			<text transform="matrix(0.9975 -7.080465e-02 7.080465e-02 0.9975 515.4606 191.1754)" class="st11 st1 st8">U</text>
		</g>
		<g id="ID000057">
			<text transform="matrix(0.9975 -7.080465e-02 7.080465e-02 0.9975 529.4604 183.9155)" class="st11 st1 st8">U</text>
		</g>
		<g id="ID000058">
			<text transform="matrix(0.9975 -7.080465e-02 7.080465e-02 0.9975 545.1027 170.3999)" class="st11 st1 st8">U</text>
		</g>
		<g id="ID000059">
			<text transform="matrix(0.9975 -7.080465e-02 7.080465e-02 0.9975 568.1118 169.0765)" class="st11 st1 st8">A</text>
		</g>
		<g id="ID000060">
			<text transform="matrix(0.9975 -7.080465e-02 7.080465e-02 0.9975 577.8793 188.6017)" class="st11 st1 st8">G</text>
		</g>
		<g id="ID000061">
			<text transform="matrix(0.9975 -7.080465e-02 7.080465e-02 0.9975 565.1119 205.6415)" class="st11 st1 st8">U</text>
		</g>
		<g id="ID000062">
			<text transform="matrix(0.9975 -7.080465e-02 7.080465e-02 0.9975 543.5186 211.941)" class="st11 st1 st8">G</text>
		</g>
		<g id="ID000063">
			<text transform="matrix(0.9975 -7.080465e-02 7.080465e-02 0.9975 533.4373 219.1373)" class="st11 st1 st8">A</text>
		</g>
		<g id="ID000064">
			<text transform="matrix(0.9975 -7.080465e-02 7.080465e-02 0.9975 516.5293 226.4619)" class="st11 st1 st8">G</text>
		</g>
		<g id="ID000065">
			<text transform="matrix(0.9975 -7.080465e-02 7.080465e-02 0.9975 501.5295 233.7217)" class="st11 st1 st8">G</text>
		</g>
		<g id="ID000066">
			<line class="st3" x1="515.2" y1="237.4" x2="520" y2="246.7"/>
		</g>
		<g id="ID000067">
			<text transform="matrix(0.9994 3.489128e-02 -3.489128e-02 0.9994 510.5566 260.4633)" class="st1 st8">50</text>
		</g>
		<g id="ID000068">
			<text transform="matrix(0.9975 -7.080465e-02 7.080465e-02 0.9975 487.5298 240.9816)" class="st11 st1 st8">G</text>
		</g>
		<g id="ID000069">
			<text transform="matrix(0.9975 -7.080465e-02 7.080465e-02 0.9975 491.7999 256.6459)" class="st0 st1 st8">U</text>
		</g>
		<g id="ID000070">
			<text transform="matrix(0.9975 -7.080465e-02 7.080465e-02 0.9975 493.7301 274.9849)" class="st0 st1 st8">U</text>
		</g>
		<g id="ID000071">
			<text transform="matrix(0.9975 -7.080465e-02 7.080465e-02 0.9975 494.056 292.2776)" class="st0 st1 st8">A</text>
		</g>
		<g id="ID000072">
			<text transform="matrix(0.9975 -7.080465e-02 7.080465e-02 0.9975 485.3458 306.4466)" class="st0 st1 st8">A</text>
		</g>
		<g id="ID000073">
			<text transform="matrix(0.9975 -7.080465e-02 7.080465e-02 0.9975 476.5499 323.7455)" class="st0 st1 st8">U</text>
		</g>
		<g id="ID000074">
			<text transform="matrix(0.9975 -7.080465e-02 7.080465e-02 0.9975 463.7104 338.9956)" class="st0 st1 st8">U</text>
		</g>
		<g id="ID000075">
			<line class="st10" x1="484.8" y1="212.9" x2="493.5" y2="229.7"/>
		</g>
		<g id="ID000076">
			<line class="st10" x1="498.8" y1="205.6" x2="507.5" y2="222.4"/>
		</g>
		<g id="ID000077">
			<line class="st10" x1="512.8" y1="198.4" x2="521.5" y2="215.2"/>
		</g>
		<g id="ID000078">
			<line class="st10" x1="526.7" y1="191.1" x2="535.5" y2="207.9"/>
		</g>
		<g id="ID000079">
			<polygon class="st12" points="546.6,195.1 546.7,195 546.9,194.9 547.1,194.7 547.2,194.6 547.4,194.5 547.5,194.3 547.6,194.2 
				547.7,194 547.8,193.8 547.9,193.7 548,193.5 548.1,193.3 548.1,193.1 548.2,192.9 548.2,192.7 548.2,192.5 548.3,192.3 
				548.3,192.1 548.2,191.9 548.2,191.7 548.2,191.5 548.1,191.3 548,191.1 548,190.9 547.9,190.8 547.8,190.6 547.7,190.4 
				547.5,190.3 547.4,190.1 547.3,190 547.1,189.8 547,189.7 546.8,189.6 546.6,189.5 546.4,189.4 546.3,189.3 546.1,189.3 
				545.9,189.2 545.7,189.2 545.5,189.1 545.3,189.1 545.1,189.1 544.9,189.1 544.7,189.1 544.5,189.2 544.3,189.2 544.1,189.3 
				543.9,189.3 543.7,189.4 543.6,189.5 543.4,189.6 543.2,189.7 543.1,189.8 542.9,190 542.8,190.1 542.6,190.3 542.5,190.4 
				542.4,190.6 542.3,190.8 542.2,191 542.2,191.1 542.1,191.3 542,191.5 542,191.7 542,191.9 542,192.1 541.9,192.3 542,192.5 
				542,192.7 542,192.9 542.1,193.1 542.1,193.3 542.2,193.5 542.3,193.7 542.4,193.8 542.5,194 542.6,194.2 542.7,194.3 
				542.9,194.5 543,194.6 543.2,194.7 543.3,194.9 543.5,195 543.7,195.1 543.8,195.2 544,195.2 544.2,195.3 544.4,195.3 
				544.6,195.4 544.8,195.4 545,195.4 545.2,195.4 545.4,195.4 545.6,195.4 545.8,195.3 546,195.3 546.2,195.2 546.4,195.1 			"/>
		</g>
		<text transform="matrix(1 0 0 1 338.7477 362.5815)" class="st1 st13">5</text>
		<text transform="matrix(1 0 0 1 346.0877 362.5815)" class="st1 st13">’</text>
		<text transform="matrix(1 0 0 1 448.0777 351.4215)" class="st1 st13">3</text>
		<text transform="matrix(1 0 0 1 456.4177 351.4215)" class="st1 st13">’</text>
	</g>
	<text transform="matrix(1 0 0 1 343.0875 49.7106)" class="st1 st14">G5α3N.4 aptamer</text>
</g>
</svg>
