<?xml version="1.0" encoding="utf-8"?>
<!-- Generator: Adobe Illustrator 25.2.0, SVG Export Plug-In . SVG Version: 6.00 Build 0)  -->
<svg version="1.1" id="图层_1" xmlns="http://www.w3.org/2000/svg" xmlns:xlink="http://www.w3.org/1999/xlink" x="0px" y="0px"
	 viewBox="0 0 800 400" style="enable-background:new 0 0 800 400;" xml:space="preserve">
<style type="text/css">
	.st0{fill:#B83332;}
	.st1{font-family:'ArialMT';}
	.st2{font-size:20.3098px;}
	.st3{letter-spacing:-2.7;}
	.st4{fill:#C2B617;}
	.st5{fill:none;stroke:#000000;stroke-miterlimit:3.05;}
	.st6{stroke:#000000;stroke-miterlimit:3.05;}
	.st7{fill:#084595;}
	.st8{fill:#CF3E7D;}
	.st9{fill:#18988C;}
	.st10{fill:none;stroke:#000000;stroke-width:1.45;stroke-miterlimit:3.05;}
	.st11{stroke:#000000;stroke-width:0.25;stroke-miterlimit:3.05;}
	.st12{font-size:20px;}
	.st13{font-size:21.0684px;}
	.st14{letter-spacing:-2.2;}
	.st15{font-size:15px;}
</style>
<g id="ID000002">
	<text transform="matrix(1.1064 0 0 1 512.4072 265.0756)" class="st0 st1 st2">G</text>
</g>
<g id="ID000003">
	<text transform="matrix(1.1064 0 0 1 490.3076 265.0756)" class="st0 st1 st2">G</text>
</g>
<g id="ID000004">
	<text transform="matrix(1.1064 0 0 1 468.208 265.0756)" class="st0 st1 st2">G</text>
</g>
<g id="ID000005">
	<text transform="matrix(1.1064 0 0 1 447.373 265.0756)" class="st0 st1 st2 st3">A</text>
</g>
<g id="ID000006">
	<text transform="matrix(1.1064 0 0 1 424.0176 265.0756)" class="st0 st1 st2">G</text>
</g>
<g id="ID000007">
	<text transform="matrix(1.1064 0 0 1 403.1729 265.0756)" class="st0 st1 st2 st3">A</text>
</g>
<g id="ID000008">
	<text transform="matrix(1.1064 0 0 1 381.0728 274.9974)" class="st4 st1 st2 st3">A</text>
</g>
<g id="ID000009">
	<text transform="matrix(1.1064 0 0 1 378.377 217.6888)" class="st4 st1 st2">C</text>
</g>
<g id="ID000010">
	<text transform="matrix(1.1064 0 0 1 402.5508 225.3558)" class="st0 st1 st2">U</text>
</g>
<g id="ID000013">
	<text transform="matrix(1.1064 0 0 1 424.6504 225.3558)" class="st0 st1 st2">C</text>
</g>
<g id="ID000014">
	<text transform="matrix(1.1064 0 0 1 446.75 225.3558)" class="st0 st1 st2">U</text>
</g>
<g id="ID000015">
	<text transform="matrix(1.1064 0 0 1 468.8408 225.3558)" class="st0 st1 st2">C</text>
</g>
<g id="ID000016">
	<text transform="matrix(1.1064 0 0 1 490.9307 225.3558)" class="st0 st1 st2">C</text>
</g>
<g id="ID000017">
	<text transform="matrix(1.1064 0 0 1 513.0303 225.3558)" class="st0 st1 st2">U</text>
</g>
<g id="ID000018">
	<text transform="matrix(1.1064 0 0 1 535.1299 225.3558)" class="st4 st1 st2">U</text>
</g>
<g id="ID000019">
	<text transform="matrix(1.1064 0 0 1 557.2305 225.3558)" class="st4 st1 st2">C</text>
</g>
<g id="ID000020">
	<text transform="matrix(1.1064 0 0 1 579.3203 225.3558)" class="st4 st1 st2">C</text>
</g>
<g id="ID000021">
	<text transform="matrix(1.1064 0 0 1 601.4199 225.3558)" class="st4 st1 st2">U</text>
</g>
<g id="ID000022">
	<text transform="matrix(1.1064 0 0 1 623.5195 225.3558)" class="st4 st1 st2">C</text>
</g>
<g id="ID000023">
	<line class="st5" x1="631.7" y1="203.2" x2="631.7" y2="190"/>
</g>
<g id="ID000024">
	<text transform="matrix(1.1064 0 0 1 619.1123 184.9989)" class="st1 st2">70</text>
</g>
<g id="ID000025">
	<text transform="matrix(1.1064 0 0 1 644.5791 225.3558)" class="st4 st1 st2">U</text>
</g>
<g id="ID000026">
	<text transform="matrix(1.1064 0 0 1 663.7988 225.3558)" class="st4 st1 st2">U</text>
</g>
<g id="ID000027">
	<text transform="matrix(1.1064 0 0 1 684.2832 225.3558)" class="st4 st1 st2">C</text>
</g>
<g id="ID000028">
	<text transform="matrix(1.1064 0 0 1 706.3828 225.3558)" class="st4 st1 st2">U</text>
</g>
<g id="ID000029">
	<polygon class="st6" points="521.2,233.4 520.9,233.4 520.6,233.5 520.4,233.5 520.1,233.6 519.8,233.6 519.6,233.7 519.3,233.8 
		519.1,233.9 518.8,234.1 518.6,234.2 518.4,234.4 518.1,234.5 518,234.7 517.8,234.9 517.6,235.1 517.4,235.3 517.3,235.5 
		517.2,235.8 517.1,236 517,236.2 516.9,236.5 516.8,236.7 516.8,237 516.8,237.2 516.8,237.5 516.8,237.7 516.8,238 516.9,238.2 
		516.9,238.5 517,238.7 517.1,238.9 517.2,239.2 517.4,239.4 517.5,239.6 517.7,239.8 517.9,240 518,240.2 518.2,240.4 518.5,240.5 
		518.7,240.7 518.9,240.8 519.2,240.9 519.4,241 519.7,241.1 519.9,241.2 520.2,241.3 520.5,241.3 520.8,241.4 521,241.4 
		521.3,241.4 521.6,241.4 521.9,241.3 522.2,241.3 522.4,241.2 522.7,241.1 523,241 523.2,240.9 523.5,240.8 523.7,240.7 
		523.9,240.5 524.1,240.4 524.3,240.2 524.5,240 524.7,239.8 524.9,239.6 525,239.4 525.2,239.2 525.3,238.9 525.4,238.7 
		525.5,238.5 525.5,238.2 525.6,238 525.6,237.7 525.6,237.5 525.6,237.2 525.6,237 525.5,236.7 525.5,236.5 525.4,236.2 525.3,236 
		525.2,235.8 525.1,235.5 525,235.3 524.8,235.1 524.6,234.9 524.4,234.7 524.3,234.5 524,234.4 523.8,234.2 523.6,234.1 
		523.3,233.9 523.1,233.8 522.8,233.7 522.6,233.6 522.3,233.6 522,233.5 521.8,233.5 521.5,233.4 	"/>
</g>
<g id="ID000030">
	<line class="st5" x1="499.1" y1="249.3" x2="499.1" y2="225.4"/>
</g>
<g id="ID000031">
	<line class="st5" x1="477" y1="249.3" x2="477" y2="225.4"/>
</g>
<g id="ID000032">
	<line class="st5" x1="454.9" y1="249.3" x2="454.9" y2="225.4"/>
</g>
<g id="ID000033">
	<line class="st5" x1="432.8" y1="249.3" x2="432.8" y2="225.4"/>
</g>
<g id="ID000034">
	<line class="st5" x1="410.7" y1="249.3" x2="410.7" y2="225.4"/>
</g>
<g id="ID000036">
	<text transform="matrix(1.1064 0 0 1 391.5049 294.8519)" class="st7 st1 st2">U</text>
</g>
<g id="ID000037">
	<text transform="matrix(1.1064 0 0 1 391.5049 314.7064)" class="st7 st1 st2">U</text>
</g>
<g id="ID000038">
	<text transform="matrix(1.1064 0 0 1 391.5049 334.5609)" class="st7 st1 st2">C</text>
</g>
<g id="ID000039">
	<line class="st5" x1="414.4" y1="325.6" x2="429.1" y2="325.6"/>
</g>
<g id="ID000040">
	<text transform="matrix(1.1064 0 0 1 429.127 334.5609)" class="st1 st2">10</text>
</g>
<g id="ID000041">
	<text transform="matrix(1.1064 0 0 1 402.5508 354.4261)" class="st4 st1 st2">C</text>
</g>
<g id="ID000042">
	<text transform="matrix(1.1064 0 0 1 396.3999 374.2601)" class="st4 st1 st2">G</text>
</g>
<g id="ID000043">
	<text transform="matrix(1.1064 0 0 1 382.4453 389.1488)" class="st4 st1 st2 st3">A</text>
</g>
<g id="ID000044">
	<text transform="matrix(1.1064 0 0 1 358.3604 389.1488)" class="st4 st1 st2">C</text>
</g>
<g id="ID000045">
	<text transform="matrix(1.1064 0 0 1 341.7778 374.2601)" class="st4 st1 st2">C</text>
</g>
<g id="ID000046">
	<text transform="matrix(1.1064 0 0 1 336.8828 354.4261)" class="st4 st1 st2 st3">A</text>
</g>
<g id="ID000047">
	<text transform="matrix(1.1064 0 0 1 346.6826 334.5609)" class="st7 st1 st2">G</text>
</g>
<g id="ID000048">
	<text transform="matrix(1.1064 0 0 1 347.938 314.7064)" class="st7 st1 st2 st3">A</text>
</g>
<g id="ID000049">
	<text transform="matrix(1.1064 0 0 1 347.938 294.8519)" class="st7 st1 st2 st3">A</text>
</g>
<g id="ID000050">
	<line class="st5" x1="390.8" y1="287" x2="364.3" y2="287"/>
</g>
<g id="ID000051">
	<line class="st5" x1="390.8" y1="306.8" x2="364.3" y2="306.8"/>
</g>
<g id="ID000052">
	<line class="st5" x1="390.8" y1="326.7" x2="364.3" y2="326.7"/>
</g>
<g id="ID000054">
	<text transform="matrix(1.1064 0 0 1 324.5825 265.0756)" class="st8 st1 st2">G</text>
</g>
<g id="ID000055">
	<line class="st5" x1="333.4" y1="269.4" x2="333.4" y2="282.6"/>
</g>
<g id="ID000056">
	<text transform="matrix(1.1064 0 0 1 320.8071 306.0385)" class="st1 st2">20</text>
</g>
<g id="ID000057">
	<text transform="matrix(1.1064 0 0 1 303.1147 265.0756)" class="st8 st1 st2">U</text>
</g>
<g id="ID000058">
	<text transform="matrix(1.1064 0 0 1 280.3823 265.0756)" class="st8 st1 st2">G</text>
</g>
<g id="ID000059">
	<text transform="matrix(1.1064 0 0 1 268.9385 284.9301)" class="st4 st1 st2">C</text>
</g>
<g id="ID000060">
	<text transform="matrix(1.1064 0 0 1 281.0151 225.3558)" class="st8 st1 st2">C</text>
</g>
<g id="ID000061">
	<text transform="matrix(1.1064 0 0 1 303.7383 225.3558)" class="st8 st1 st2 st3">A</text>
</g>
<g id="ID000062">
	<text transform="matrix(1.1064 0 0 1 325.2144 225.3558)" class="st8 st1 st2">C</text>
</g>
<g id="ID000063">
	<text transform="matrix(1.1064 0 0 1 324.5825 200.5443)" class="st4 st1 st2">G</text>
</g>
<g id="ID000064">
	<line class="st5" x1="333.4" y1="249.3" x2="333.4" y2="225.4"/>
</g>
<g id="ID000065">
	<line class="st5" x1="311.3" y1="249.3" x2="311.3" y2="225.4"/>
</g>
<g id="ID000066">
	<line class="st5" x1="289.2" y1="249.3" x2="289.2" y2="225.4"/>
</g>
<g id="ID000068">
	<text transform="matrix(1.1064 0 0 1 253.3975 265.0756)" class="st8 st1 st2">U</text>
</g>
<g id="ID000069">
	<text transform="matrix(1.1064 0 0 1 231.2974 265.0756)" class="st8 st1 st2">C</text>
</g>
<g id="ID000070">
	<text transform="matrix(1.1064 0 0 1 209.1978 265.0756)" class="st8 st1 st2">U</text>
</g>
<g id="ID000071">
	<text transform="matrix(1.1064 0 0 1 187.1074 265.0756)" class="st8 st1 st2">U</text>
</g>
<g id="ID000072">
	<text transform="matrix(1.1064 0 0 1 165.6304 265.0756)" class="st8 st1 st2 st3">A</text>
</g>
<g id="ID000073">
	<text transform="matrix(1.1064 0 0 1 142.2847 265.0756)" class="st8 st1 st2">G</text>
</g>
<g id="ID000074">
	<text transform="matrix(1.1064 0 0 1 121.4404 274.9974)" class="st4 st1 st2 st3">A</text>
</g>
<g id="ID000075">
	<line class="st5" x1="129" y1="279.3" x2="129" y2="292.5"/>
</g>
<g id="ID000076">
	<text transform="matrix(1.1064 0 0 1 116.4092 315.9711)" class="st1 st2">30</text>
</g>
<g id="ID000077">
	<text transform="matrix(1.1064 0 0 1 99.3501 279.9535)" class="st4 st1 st2 st3">A</text>
</g>
<g id="ID000078">
	<text transform="matrix(1.1064 0 0 1 76.627 270.0316)" class="st4 st1 st2">U</text>
</g>
<g id="ID000079">
	<text transform="matrix(1.1064 0 0 1 64.9497 245.2201)" class="st4 st1 st2">G</text>
</g>
<g id="ID000080">
	<text transform="matrix(1.1064 0 0 1 75.9946 220.3998)" class="st4 st1 st2">G</text>
</g>
<g id="ID000081">
	<text transform="matrix(1.1064 0 0 1 98.0947 210.4779)" class="st4 st1 st2">G</text>
</g>
<g id="ID000082">
	<text transform="matrix(1.1064 0 0 1 121.4404 215.4437)" class="st4 st1 st2 st3">A</text>
</g>
<g id="ID000083">
	<text transform="matrix(1.1064 0 0 1 142.9072 225.3558)" class="st8 st1 st2">C</text>
</g>
<g id="ID000084">
	<text transform="matrix(1.1064 0 0 1 165.0073 225.3558)" class="st8 st1 st2">U</text>
</g>
<g id="ID000085">
	<text transform="matrix(1.1064 0 0 1 187.73 225.3558)" class="st8 st1 st2 st3">A</text>
</g>
<g id="ID000086">
	<text transform="matrix(1.1064 0 0 1 209.8203 225.3558)" class="st8 st1 st2 st3">A</text>
</g>
<g id="ID000087">
	<line class="st5" x1="217.4" y1="203.2" x2="217.4" y2="190"/>
</g>
<g id="ID000088">
	<text transform="matrix(1.1064 0 0 1 204.7896 184.9989)" class="st1 st2">40</text>
</g>
<g id="ID000089">
	<text transform="matrix(1.1064 0 0 1 230.665 225.3558)" class="st8 st1 st2">G</text>
</g>
<g id="ID000090">
	<text transform="matrix(1.1064 0 0 1 254.02 225.3558)" class="st8 st1 st2 st3">A</text>
</g>
<g id="ID000091">
	<line class="st5" x1="261.6" y1="249.3" x2="261.6" y2="225.4"/>
</g>
<g id="ID000092">
	<line class="st5" x1="239.5" y1="249.3" x2="239.5" y2="225.4"/>
</g>
<g id="ID000093">
	<line class="st5" x1="217.4" y1="249.3" x2="217.4" y2="225.4"/>
</g>
<g id="ID000094">
	<line class="st5" x1="195.3" y1="249.3" x2="195.3" y2="225.4"/>
</g>
<g id="ID000095">
	<line class="st5" x1="173.2" y1="249.3" x2="173.2" y2="225.4"/>
</g>
<g id="ID000096">
	<line class="st5" x1="151.1" y1="249.3" x2="151.1" y2="225.4"/>
</g>
<g id="ID000098">
	<text transform="matrix(1.1064 0 0 1 335.6367 175.7337)" class="st9 st1 st2">G</text>
</g>
<g id="ID000099">
	<text transform="matrix(1.1064 0 0 1 335.6367 155.8895)" class="st9 st1 st2">G</text>
</g>
<g id="ID000100">
	<text transform="matrix(1.1064 0 0 1 336.8828 136.0345)" class="st9 st1 st2 st3">A</text>
</g>
<g id="ID000101">
	<text transform="matrix(1.1064 0 0 1 325.2144 116.1698)" class="st4 st1 st2">C</text>
</g>
<g id="ID000102">
	<line class="st5" x1="318.6" y1="107.2" x2="303.9" y2="107.2"/>
</g>
<g id="ID000103">
	<text transform="matrix(1.1064 0 0 1 278.7671 116.1698)" class="st1 st2">50</text>
</g>
<g id="ID000104">
	<text transform="matrix(1.1064 0 0 1 336.2603 96.3251)" class="st4 st1 st2">C</text>
</g>
<g id="ID000105">
	<text transform="matrix(1.1064 0 0 1 358.3604 81.4369)" class="st4 st1 st2">C</text>
</g>
<g id="ID000106">
	<text transform="matrix(1.1064 0 0 1 380.4507 96.3251)" class="st4 st1 st2">U</text>
</g>
<g id="ID000107">
	<text transform="matrix(1.1064 0 0 1 391.5049 116.1698)" class="st4 st1 st2">U</text>
</g>
<g id="ID000108">
	<text transform="matrix(1.1064 0 0 1 380.4507 136.0345)" class="st9 st1 st2">U</text>
</g>
<g id="ID000109">
	<text transform="matrix(1.1064 0 0 1 380.4507 155.8895)" class="st9 st1 st2">C</text>
</g>
<g id="ID000110">
	<text transform="matrix(1.1064 0 0 1 380.4507 175.7337)" class="st9 st1 st2">C</text>
</g>
<g id="ID000111">
	<text transform="matrix(1.1064 0 0 1 383.8955 195.5887)" class="st4 st1 st2">U</text>
</g>
<g id="ID000112">
	<line class="st5" x1="353.3" y1="167.9" x2="379.8" y2="167.9"/>
</g>
<g id="ID000113">
	<line class="st5" x1="353.3" y1="148" x2="379.8" y2="148"/>
</g>
<g id="ID000114">
	<line class="st5" x1="353.3" y1="128.1" x2="379.8" y2="128.1"/>
</g>
<g id="ID000116">
	<line class="st10" x1="350.6" y1="279.3" x2="338.3" y2="262.7"/>
</g>
<g id="ID000117">
	<polygon class="st11" points="343,279.8 343.7,275.4 342.6,272.1 341,269.1 338.3,262.8 343.8,267.4 346.3,269.9 349.2,272.1 
		354,273.2 	"/>
</g>
<text transform="matrix(1 0 0 1 324.42 34.58)" class="st1 st12">HCV NS3 protease_G9-II aptamer</text>
<text transform="matrix(0.9236 0 0 1 553.9307 272.4681)" class="st1 st13 st14">’</text>
<text transform="matrix(0.9236 0 0 1 744.0732 234.5091)" class="st1 st13 st14">’</text>
<text transform="matrix(1 0 0 1 544.7133 271.0045)" class="st1 st15">5</text>
<text transform="matrix(1 0 0 1 734.6029 234.3872)" class="st1 st15">3</text>
</svg>
