<svg id="图层_1" data-name="图层 1" xmlns="http://www.w3.org/2000/svg" viewBox="0 0 800 400"><defs><style>.cls-1,.cls-10,.cls-11,.cls-12,.cls-13,.cls-14,.cls-2,.cls-3,.cls-4,.cls-6,.cls-8,.cls-9{isolation:isolate;font-size:18.08px;font-family:Helvetica;}.cls-1,.cls-2{fill:#c2c2ff;}.cls-2,.cls-3{letter-spacing:-0.05em;}.cls-3,.cls-4,.cls-9{fill:#0a0bff;}.cls-15,.cls-5{fill:none;}.cls-15,.cls-16,.cls-5,.cls-7{stroke:#000;stroke-miterlimit:3.05;}.cls-5,.cls-7{stroke-width:0.38px;}.cls-10,.cls-8{fill:#228b22;}.cls-10,.cls-12,.cls-14,.cls-9{letter-spacing:-0.05em;}.cls-11,.cls-12{fill:#ff870a;}.cls-13,.cls-14{fill:teal;}.cls-15{stroke-width:1.45px;}.cls-16{stroke-width:0.25px;}.cls-17{font-size:20px;font-family:ArialMT, Arial;}.cls-18{letter-spacing:-0.04em;}</style></defs><g id="topgroup"><g id="ID000000"><g id="ID000002"><text class="cls-1" transform="translate(522.11 256.85) scale(1.2 1)">G</text></g><g id="ID000003"><text class="cls-1" transform="translate(500.82 256.85) scale(1.2 1)">G</text></g><g id="ID000004"><text class="cls-1" transform="translate(479.53 256.85) scale(1.2 1)">G</text></g><g id="ID000005"><text class="cls-2" transform="translate(459.45 256.85) scale(1.2 1)">A</text></g><g id="ID000006"><text class="cls-1" transform="translate(436.95 256.85) scale(1.2 1)">G</text></g><g id="ID000007"><text class="cls-2" transform="translate(416.87 256.85) scale(1.2 1)">A</text></g><g id="ID000008"><text class="cls-3" transform="translate(395.58 265.68) scale(1.2 1)">A</text></g><g id="ID000009"><text class="cls-4" transform="translate(392.98 214.67) scale(1.2 1)">C</text></g><g id="ID000010"><text class="cls-1" transform="translate(416.27 221.5) scale(1.2 1)">U</text></g><g id="ID000011"><line class="cls-5" x1="424.13" y1="201.77" x2="424.13" y2="189.99"/></g><g id="ID000012"><text class="cls-6" transform="translate(412.02 185.57) scale(1.2 1)">60</text></g><g id="ID000013"><text class="cls-1" transform="translate(437.56 221.5) scale(1.2 1)">C</text></g><g id="ID000014"><text class="cls-1" transform="translate(458.85 221.5) scale(1.2 1)">U</text></g><g id="ID000015"><text class="cls-1" transform="translate(480.14 221.5) scale(1.2 1)">C</text></g><g id="ID000016"><text class="cls-1" transform="translate(501.42 221.5) scale(1.2 1)">C</text></g><g id="ID000017"><text class="cls-1" transform="translate(522.71 221.5) scale(1.2 1)">U</text></g><g id="ID000018"><text class="cls-4" transform="translate(544 221.5) scale(1.2 1)">U</text></g><g id="ID000019"><text class="cls-4" transform="translate(565.29 221.5) scale(1.2 1)">C</text></g><g id="ID000020"><text class="cls-4" transform="translate(586.58 221.5) scale(1.2 1)">C</text></g><g id="ID000021"><text class="cls-4" transform="translate(607.87 221.5) scale(1.2 1)">U</text></g><g id="ID000022"><text class="cls-4" transform="translate(629.16 221.5) scale(1.2 1)">C</text></g><g id="ID000023"><line class="cls-5" x1="637.02" y1="201.77" x2="637.02" y2="189.99"/></g><g id="ID000024"><text class="cls-6" transform="translate(624.91 185.57) scale(1.2 1)">70</text></g><g id="ID000025"><text class="cls-4" transform="translate(649.45 221.5) scale(1.2 1)">U</text></g><g id="ID000026"><text class="cls-4" transform="translate(667.97 221.5) scale(1.2 1)">U</text></g><g id="ID000027"><text class="cls-4" transform="translate(687.7 221.5) scale(1.2 1)">C</text></g><g id="ID000028"><text class="cls-4" transform="translate(708.99 221.5) scale(1.2 1)">U</text></g><g id="ID000029"><polygon class="cls-7" points="530.58 228.69 530.31 228.69 530.04 228.72 529.77 228.75 529.51 228.8 529.25 228.86 528.99 228.94 528.75 229.03 528.51 229.13 528.28 229.25 528.05 229.38 527.84 229.51 527.64 229.66 527.45 229.82 527.27 229.99 527.11 230.17 526.96 230.36 526.83 230.55 526.7 230.75 526.6 230.96 526.51 231.17 526.44 231.39 526.38 231.61 526.35 231.83 526.32 232.05 526.32 232.28 526.33 232.5 526.36 232.72 526.41 232.95 526.47 233.16 526.55 233.38 526.65 233.59 526.76 233.79 526.89 233.99 527.03 234.18 527.19 234.36 527.36 234.54 527.54 234.7 527.74 234.85 527.95 235 528.16 235.13 528.39 235.25 528.63 235.36 528.87 235.46 529.12 235.54 529.38 235.61 529.64 235.67 529.9 235.71 530.17 235.74 530.44 235.75 530.71 235.75 530.98 235.74 531.25 235.71 531.51 235.67 531.78 235.61 532.03 235.54 532.28 235.46 532.53 235.36 532.76 235.25 532.99 235.13 533.21 235 533.42 234.85 533.61 234.7 533.8 234.54 533.97 234.36 534.12 234.18 534.26 233.99 534.39 233.79 534.5 233.59 534.6 233.38 534.68 233.16 534.74 232.95 534.79 232.72 534.82 232.5 534.83 232.28 534.83 232.05 534.81 231.83 534.77 231.61 534.72 231.39 534.64 231.17 534.55 230.96 534.45 230.75 534.33 230.55 534.2 230.36 534.05 230.17 533.88 229.99 533.71 229.82 533.52 229.66 533.31 229.51 533.1 229.38 532.88 229.25 532.65 229.13 532.41 229.03 532.16 228.94 531.9 228.86 531.65 228.8 531.38 228.75 531.12 228.72 530.85 228.69 530.58 228.69"/></g><g id="ID000030"><line class="cls-5" x1="509.29" y1="241.83" x2="509.29" y2="220.62"/></g><g id="ID000031"><line class="cls-5" x1="488" y1="241.83" x2="488" y2="220.62"/></g><g id="ID000032"><line class="cls-5" x1="466.71" y1="241.83" x2="466.71" y2="220.62"/></g><g id="ID000033"><line class="cls-5" x1="445.42" y1="241.83" x2="445.42" y2="220.62"/></g><g id="ID000034"><line class="cls-5" x1="424.13" y1="241.83" x2="424.13" y2="220.62"/></g><g id="ID000036"><text class="cls-8" transform="translate(405.63 283.36) scale(1.2 1)">U</text></g><g id="ID000037"><text class="cls-8" transform="translate(405.63 301.03) scale(1.2 1)">U</text></g><g id="ID000038"><text class="cls-8" transform="translate(405.63 318.7) scale(1.2 1)">C</text></g><g id="ID000039"><line class="cls-5" x1="427.68" y1="310.75" x2="441.87" y2="310.75"/></g><g id="ID000040"><text class="cls-6" transform="translate(441.87 318.7) scale(1.2 1)">10</text></g><g id="ID000041"><text class="cls-4" transform="translate(416.27 336.38) scale(1.2 1)">C</text></g><g id="ID000042"><text class="cls-4" transform="translate(410.34 354.05) scale(1.2 1)">G</text></g><g id="ID000043"><text class="cls-3" transform="translate(396.9 367.3) scale(1.2 1)">A</text></g><g id="ID000044"><text class="cls-4" transform="translate(373.69 367.3) scale(1.2 1)">C</text></g><g id="ID000045"><text class="cls-4" transform="translate(357.72 354.05) scale(1.2 1)">C</text></g><g id="ID000046"><text class="cls-9" transform="translate(353 336.38) scale(1.2 1)">A</text></g><g id="ID000047"><text class="cls-8" transform="translate(362.44 318.7) scale(1.2 1)">G</text></g><g id="ID000048"><text class="cls-10" transform="translate(363.65 301.03) scale(1.2 1)">A</text></g><g id="ID000049"><text class="cls-10" transform="translate(363.65 283.36) scale(1.2 1)">A</text></g><g id="ID000050"><line class="cls-5" x1="404.97" y1="275.4" x2="379.43" y2="275.4"/></g><g id="ID000051"><line class="cls-5" x1="404.97" y1="293.08" x2="379.43" y2="293.08"/></g><g id="ID000052"><line class="cls-5" x1="404.97" y1="310.75" x2="379.43" y2="310.75"/></g><g id="ID000054"><text class="cls-11" transform="translate(341.15 256.85) scale(1.2 1)">G</text></g><g id="ID000055"><line class="cls-5" x1="349.62" y1="260.68" x2="349.62" y2="272.46"/></g><g id="ID000056"><text class="cls-6" transform="translate(337.51 293.31) scale(1.2 1)">20</text></g><g id="ID000057"><text class="cls-11" transform="translate(320.47 256.85) scale(1.2 1)">U</text></g><g id="ID000058"><text class="cls-11" transform="translate(298.57 256.85) scale(1.2 1)">G</text></g><g id="ID000059"><text class="cls-4" transform="translate(287.54 274.52) scale(1.2 1)">C</text></g><g id="ID000060"><text class="cls-11" transform="translate(299.18 221.5) scale(1.2 1)">C</text></g><g id="ID000061"><text class="cls-12" transform="translate(321.07 221.5) scale(1.2 1)">A</text></g><g id="ID000062"><text class="cls-11" transform="translate(341.76 221.5) scale(1.2 1)">C</text></g><g id="ID000063"><text class="cls-4" transform="translate(341.15 199.41) scale(1.2 1)">G</text></g><g id="ID000064"><line class="cls-5" x1="349.62" y1="241.83" x2="349.62" y2="220.62"/></g><g id="ID000065"><line class="cls-5" x1="328.33" y1="241.83" x2="328.33" y2="220.62"/></g><g id="ID000066"><line class="cls-5" x1="307.04" y1="241.83" x2="307.04" y2="220.62"/></g><g id="ID000068"><text class="cls-11" transform="translate(272.57 256.85) scale(1.2 1)">U</text></g><g id="ID000069"><text class="cls-11" transform="translate(251.28 256.85) scale(1.2 1)">C</text></g><g id="ID000070"><text class="cls-11" transform="translate(229.99 256.85) scale(1.2 1)">U</text></g><g id="ID000071"><text class="cls-11" transform="translate(208.7 256.85) scale(1.2 1)">U</text></g><g id="ID000072"><text class="cls-12" transform="translate(188.01 256.85) scale(1.2 1)">A</text></g><g id="ID000073"><text class="cls-11" transform="translate(165.52 256.85) scale(1.2 1)">G</text></g><g id="ID000074"><text class="cls-9" transform="translate(145.44 265.68) scale(1.2 1)">A</text></g><g id="ID000075"><line class="cls-5" x1="152.7" y1="269.51" x2="152.7" y2="281.29"/></g><g id="ID000076"><text class="cls-6" transform="translate(140.59 302.15) scale(1.2 1)">30</text></g><g id="ID000077"><text class="cls-9" transform="translate(124.15 270.1) scale(1.2 1)">A</text></g><g id="ID000078"><text class="cls-4" transform="translate(102.26 261.26) scale(1.2 1)">U</text></g><g id="ID000079"><text class="cls-4" transform="translate(91.01 239.18) scale(1.2 1)">G</text></g><g id="ID000080"><text class="cls-4" transform="translate(101.65 217.08) scale(1.2 1)">G</text></g><g id="ID000081"><text class="cls-4" transform="translate(122.94 208.25) scale(1.2 1)">G</text></g><g id="ID000082"><text class="cls-9" transform="translate(145.44 212.67) scale(1.2 1)">A</text></g><g id="ID000083"><text class="cls-11" transform="translate(166.12 221.5) scale(1.2 1)">C</text></g><g id="ID000084"><text class="cls-11" transform="translate(187.41 221.5) scale(1.2 1)">U</text></g><g id="ID000085"><text class="cls-12" transform="translate(209.3 221.5) scale(1.2 1)">A</text></g><g id="ID000086"><text class="cls-12" transform="translate(230.59 221.5) scale(1.2 1)">A</text></g><g id="ID000087"><line class="cls-5" x1="237.85" y1="201.77" x2="237.85" y2="189.99"/></g><g id="ID000088"><text class="cls-6" transform="translate(225.74 185.57) scale(1.2 1)">40</text></g><g id="ID000089"><text class="cls-11" transform="translate(250.67 221.5) scale(1.2 1)">G</text></g><g id="ID000090"><text class="cls-12" transform="translate(273.17 221.5) scale(1.2 1)">A</text></g><g id="ID000091"><line class="cls-5" x1="280.43" y1="241.83" x2="280.43" y2="220.62"/></g><g id="ID000092"><line class="cls-5" x1="259.14" y1="241.83" x2="259.14" y2="220.62"/></g><g id="ID000093"><line class="cls-5" x1="237.85" y1="241.83" x2="237.85" y2="220.62"/></g><g id="ID000094"><line class="cls-5" x1="216.57" y1="241.83" x2="216.57" y2="220.62"/></g><g id="ID000095"><line class="cls-5" x1="195.28" y1="241.83" x2="195.28" y2="220.62"/></g><g id="ID000096"><line class="cls-5" x1="173.99" y1="241.83" x2="173.99" y2="220.62"/></g><g id="ID000098"><text class="cls-13" transform="translate(351.8 177.32) scale(1.2 1)">G</text></g><g id="ID000099"><text class="cls-13" transform="translate(351.8 159.65) scale(1.2 1)">G</text></g><g id="ID000100"><text class="cls-14" transform="translate(353 141.98) scale(1.2 1)">A</text></g><g id="ID000101"><text class="cls-4" transform="translate(341.76 124.3) scale(1.2 1)">C</text></g><g id="ID000102"><line class="cls-5" x1="335.43" y1="116.35" x2="321.24" y2="116.35"/></g><g id="ID000103"><text class="cls-6" transform="translate(297.01 124.3) scale(1.2 1)">50</text></g><g id="ID000104"><text class="cls-4" transform="translate(352.4 106.63) scale(1.2 1)">C</text></g><g id="ID000105"><text class="cls-4" transform="translate(373.69 93.38) scale(1.2 1)">C</text></g><g id="ID000106"><text class="cls-4" transform="translate(394.98 106.63) scale(1.2 1)">U</text></g><g id="ID000107"><text class="cls-4" transform="translate(405.63 124.3) scale(1.2 1)">U</text></g><g id="ID000108"><text class="cls-13" transform="translate(394.98 141.98) scale(1.2 1)">U</text></g><g id="ID000109"><text class="cls-13" transform="translate(394.98 159.65) scale(1.2 1)">C</text></g><g id="ID000110"><text class="cls-13" transform="translate(394.98 177.32) scale(1.2 1)">C</text></g><g id="ID000111"><text class="cls-4" transform="translate(398.3 194.99) scale(1.2 1)">U</text></g><g id="ID000112"><line class="cls-5" x1="368.78" y1="169.37" x2="394.33" y2="169.37"/></g><g id="ID000113"><line class="cls-5" x1="368.78" y1="151.69" x2="394.33" y2="151.69"/></g><g id="ID000114"><line class="cls-5" x1="368.78" y1="134.02" x2="394.33" y2="134.02"/></g><g id="ID000116"><line class="cls-15" x1="366.19" y1="269.52" x2="354.34" y2="254.78"/></g><g id="ID000117"><polygon class="cls-16" points="358.89 269.99 359.58 266.07 358.49 263.13 356.97 260.43 354.36 254.8 359.63 258.96 362.04 261.17 364.89 263.13 369.51 264.11 358.89 269.99"/></g></g></g><text class="cls-17" transform="translate(322.3 54)">HCV NS3 protease_G9-II aptamer</text><text class="cls-17" transform="translate(551 263.43)">5<tspan class="cls-18" x="11.12" y="0">’</tspan></text><text class="cls-17" transform="translate(734.19 229.64)">3<tspan class="cls-18" x="11.12" y="0">’</tspan></text></svg>