<?xml version="1.0" encoding="utf-8"?>
<!-- Generator: Adobe Illustrator 25.2.0, SVG Export Plug-In . SVG Version: 6.00 Build 0)  -->
<svg version="1.1" id="图层_1" xmlns="http://www.w3.org/2000/svg" xmlns:xlink="http://www.w3.org/1999/xlink" x="0px" y="0px"
	 viewBox="0 0 800 400" style="enable-background:new 0 0 800 400;" xml:space="preserve">
<style type="text/css">
	.st0{font-family:'ArialMT';}
	.st1{font-size:20px;}
	.st2{fill:#B83233;}
	.st3{font-size:19.6569px;}
	.st4{fill:#F17D07;}
	.st5{fill:#2EA103;}
	.st6{fill:#C2B617;}
	.st7{fill:none;stroke:#000000;stroke-width:0.1541;stroke-miterlimit:1.2331;}
	.st8{fill:none;stroke:#000000;stroke-miterlimit:1.2331;}
	.st9{fill:none;stroke:#000000;stroke-width:1.6031;stroke-miterlimit:1.2331;}
	.st10{stroke:#000000;stroke-width:0.1541;stroke-miterlimit:1.2331;}
	.st11{fill:#084595;}
	.st12{stroke:#000000;stroke-width:0.5;}
	.st13{fill:#FFFFFF;stroke:#000000;stroke-width:0.5;}
</style>
<text transform="matrix(1 0 0 1 342.6194 91.1925)" class="st0 st1">A9g aptamer</text>
<text transform="matrix(1 0 0 1 179.8601 202.8556)" class="st0 st1">5’</text>
<text transform="matrix(1 0 0 1 180.7 293.2492)" class="st0 st1">3’</text>
<g id="ID000002">
	<g transform="translate(180.844,385.083)">
		<g transform="rotate(-0.0)">
			<text transform="matrix(1 0 0 1 18.2673 -157.1553)" class="st2 st0 st3">G</text>
		</g>
	</g>
</g>
<g id="ID000003">
	<g transform="translate(224.198,385.083)">
		<g transform="rotate(-0.0)">
			<text transform="matrix(1 0 0 1 -5.2683 -157.1553)" class="st2 st0 st3">G</text>
		</g>
	</g>
</g>
<g id="ID000004">
	<g transform="translate(1047.926,352.568)">
		<g transform="rotate(-0.0)">
			<text transform="matrix(1 0 0 1 -451.8923 -139.5035)" class="st4 st0 st3">fU</text>
		</g>
	</g>
</g>
<g id="ID000005">
	<g transform="translate(1047.926,493.468)">
		<g transform="rotate(-0.0)">
			<text transform="matrix(1 0 0 1 -451.3494 -215.9924)" class="st5 st0 st3">A</text>
		</g>
	</g>
</g>
<g id="ID000006">
	<g transform="translate(267.552,385.083)">
		<g transform="rotate(-0.0)">
			<text transform="matrix(1 0 0 1 -28.803 -157.1553)" class="st2 st0 st3">G</text>
		</g>
	</g>
</g>
<g id="ID000007">
	<g transform="translate(484.323,471.791)">
		<g transform="rotate(-0.0)">
			<text transform="matrix(1 0 0 1 -145.3914 -204.2256)" class="st6 st0 st3">A</text>
		</g>
	</g>
</g>
<g id="ID000008">
	<g transform="translate(440.969,471.791)">
		<g transform="rotate(-0.0)">
			<text transform="matrix(1 0 0 1 -122.3987 -204.2256)" class="st2 st0 st3">fC</text>
		</g>
	</g>
</g>
<g id="ID000009">
	<g transform="translate(397.615,471.791)">
		<g transform="rotate(-0.0)">
			<text transform="matrix(1 0 0 1 -99.4099 -204.2256)" class="st2 st0 st3">G</text>
		</g>
	</g>
</g>
<g id="ID000010">
	<g>
		<g transform="translate(354.260,471.791)">
			<g transform="rotate(-0.0)">
				<text transform="matrix(1 0 0 1 -75.3264 -204.2256)" class="st4 st0 st3">fU</text>
			</g>
		</g>
	</g>
</g>
<g id="ID000011">
	<g transform="translate(310.906,385.083)">
		<g transform="rotate(-0.0)">
			<text transform="matrix(1 0 0 1 -51.2498 -157.1553)" class="st2 st0 st3">A</text>
		</g>
	</g>
</g>
<g id="ID000012">
	<g transform="translate(310.906,471.791)">
		<g transform="rotate(-0.0)">
			<text transform="matrix(1 0 0 1 -51.7918 -204.2256)" class="st2 st0 st3">fU</text>
		</g>
	</g>
</g>
<g id="ID000013">
	<line class="st7" x1="266.2" y1="271.9" x2="266.2" y2="285.1"/>
</g>
<g id="ID000014">
	<g transform="translate(310.906,561.245)">
		<g transform="rotate(-0.0)">
			<text transform="matrix(1 0 0 1 -55.6258 -252.787)" class="st0 st3">40</text>
		</g>
	</g>
</g>
<g id="ID000015">
	<g transform="translate(267.552,471.791)">
		<g transform="rotate(-0.0)">
			<text transform="matrix(1 0 0 1 -28.2571 -204.2256)" class="st2 st0 st3">fC</text>
		</g>
	</g>
</g>
<g id="ID000016">
	<g transform="translate(224.198,471.791)">
		<g transform="rotate(-0.0)">
			<text transform="matrix(1 0 0 1 -4.7215 -204.2256)" class="st2 st0 st3">fC</text>
		</g>
	</g>
</g>
<g id="ID000017">
	<g transform="translate(180.844,471.791)">
		<g transform="rotate(-0.0)">
			<text transform="matrix(1 0 0 1 18.8142 -204.2256)" class="st2 st0 st3">fC</text>
		</g>
	</g>
</g>
<g id="ID000018">
	<g>
		<g transform="translate(354.260,385.083)">
			<g transform="rotate(-0.0)">
				<text transform="matrix(1 0 0 1 -76.0265 -157.1553)" class="st4 st0 st3">fC</text>
			</g>
		</g>
	</g>
</g>
<g id="ID000019">
	<g>
		<g transform="translate(397.615,385.083)">
			<g transform="rotate(-0.0)">
				<text transform="matrix(1 0 0 1 -99.1631 -157.1553)" class="st4 st0 st3">fC</text>
			</g>
		</g>
	</g>
</g>
<g id="ID000020">
	<g transform="translate(440.969,385.083)">
		<g transform="rotate(-0.0)">
			<text transform="matrix(1 0 0 1 -122.9446 -157.1553)" class="st2 st0 st3">G</text>
		</g>
	</g>
</g>
<g id="ID000021">
	<g>
		<g transform="translate(484.323,363.406)">
			<g transform="rotate(-0.0)">
				<text transform="matrix(1 0 0 1 -145.3914 -145.3875)" class="st4 st0 st3">A</text>
			</g>
		</g>
	</g>
</g>
<g id="ID000022">
	<g transform="translate(516.838,341.729)">
		<g transform="rotate(-0.0)">
			<text transform="matrix(1 0 0 1 -163.0412 -133.6206)" class="st6 st0 st3">A</text>
		</g>
	</g>
</g>
<g id="ID000023">
	<line class="st8" x1="206.7" y1="226.9" x2="206.7" y2="250.7"/>
</g>
<g id="ID000024">
	<line class="st8" x1="226.6" y1="226.9" x2="226.6" y2="250.7"/>
</g>
<g id="ID000025">
	<line class="st8" x1="246.4" y1="226.9" x2="246.4" y2="250.7"/>
</g>
<g id="ID000026">
	<line class="st9" x1="406.9" y1="258.6" x2="353.4" y2="258.6"/>
</g>
<g id="ID000027">
	<polygon class="st10" points="386.8,264.6 383.5,261.6 380.2,260.6 376.8,260.1 370.2,258.6 376.8,257.2 380.2,256.7 383.5,255.7 
		386.8,252.7 	"/>
</g>
<g id="ID000028">
	<line class="st8" x1="325.7" y1="226.9" x2="325.7" y2="250.7"/>
</g>
<g id="ID000029">
	<line class="st8" x1="305.8" y1="226.9" x2="305.8" y2="250.7"/>
</g>
<g id="ID000030">
	<line class="st8" x1="286" y1="226.9" x2="286" y2="250.7"/>
</g>
<g id="ID000031">
	<line class="st8" x1="266.2" y1="226.9" x2="266.2" y2="250.7"/>
</g>
<g id="ID000032">
	<g transform="translate(560.192,341.729)">
		<g transform="rotate(-0.0)">
			<text transform="matrix(1 0 0 1 -186.5768 -133.6206)" class="st6 st0 st3">A</text>
		</g>
	</g>
</g>
<g id="ID000033">
	<line class="st7" x1="380.2" y1="186" x2="380.2" y2="172.8"/>
</g>
<g id="ID000034">
	<g transform="translate(560.192,253.576)">
		<g transform="rotate(-0.0)">
			<text transform="matrix(1 0 0 1 -190.9547 -85.7645)" class="st0 st3">10</text>
		</g>
	</g>
</g>
<g id="ID000035">
	<g transform="translate(592.708,363.406)">
		<g transform="rotate(-0.0)">
			<text transform="matrix(1 0 0 1 -204.2305 -145.3875)" class="st6 st0 st3">A</text>
		</g>
	</g>
</g>
<g id="ID000036">
	<g>
		<g transform="translate(636.062,385.083)">
			<g transform="rotate(-0.0)">
				<text transform="matrix(1 0 0 1 -227.7642 -157.1553)" class="st4 st0 st3">A</text>
			</g>
		</g>
	</g>
</g>
<g id="ID000037">
	<g transform="translate(679.416,385.083)">
		<g transform="rotate(-0.0)">
			<text transform="matrix(1 0 0 1 -252.3877 -157.1553)" class="st11 st0 st3">G</text>
		</g>
	</g>
</g>
<g id="ID000038">
	<g transform="translate(722.770,385.083)">
		<g transform="rotate(-0.0)">
			<text transform="matrix(1 0 0 1 -274.834 -157.1553)" class="st11 st0 st3">A</text>
		</g>
	</g>
</g>
<g id="ID000039">
	<g transform="translate(766.124,385.083)">
		<g transform="rotate(-0.0)">
			<text transform="matrix(1 0 0 1 -298.9116 -157.1553)" class="st11 st0 st3">fC</text>
		</g>
	</g>
</g>
<g id="ID000040">
	<g transform="translate(809.478,363.406)">
		<g transform="rotate(-0.0)">
			<text transform="matrix(1 0 0 1 -324.2817 -145.8461)" class="st5 st0 st3">fC</text>
		</g>
	</g>
</g>
<g id="ID000041">
	<g transform="translate(841.994,341.729)">
		<g transform="rotate(-0.0)">
			<text transform="matrix(1 0 0 1 -344.4176 -139.0469)" class="st5 st0 st3">fU</text>
		</g>
	</g>
</g>
<g id="ID000042">
	<g transform="translate(874.509,320.052)">
		<g transform="rotate(-0.0)">
			<text transform="matrix(1 0 0 1 -358.2976 -121.8518)" class="st4 st0 st3">G</text>
		</g>
	</g>
</g>
<g id="ID000043">
	<g transform="translate(917.863,309.214)">
		<g transform="rotate(-0.0)">
			<text transform="matrix(1 0 0 1 -380.7434 -115.9679)" class="st5 st0 st3">A</text>
		</g>
	</g>
</g>
<g id="ID000044">
	<g transform="translate(961.218,320.052)">
		<g transform="rotate(-0.0)">
			<text transform="matrix(1 0 0 1 -404.821 -121.8518)" class="st5 st0 st3">fC</text>
		</g>
	</g>
</g>
<g id="ID000045">
	<line class="st7" x1="563.5" y1="176.1" x2="563.5" y2="162.9"/>
</g>
<g id="ID000046">
	<g transform="translate(961.218,231.899)">
		<g transform="rotate(-0.0)">
			<text transform="matrix(1 0 0 1 -408.656 -73.9957)" class="st0 st3">20</text>
		</g>
	</g>
</g>
<g id="ID000047">
	<g>
		<g transform="translate(1004.572,330.891)">
			<g transform="rotate(-0.0)">
				<text transform="matrix(1 0 0 1 -428.3567 -127.7357)" class="st4 st0 st3">fU</text>
			</g>
		</g>
	</g>
</g>
<g id="ID000048">
	<g transform="translate(1069.603,395.922)">
		<g transform="rotate(-0.0)">
			<text transform="matrix(1 0 0 1 -463.6592 -163.0392)" class="st4 st0 st3">fC</text>
		</g>
	</g>
</g>
<g id="ID000049">
	<g>
		<g transform="translate(1069.603,450.114)">
			<g transform="rotate(-0.0)">
				<text transform="matrix(1 0 0 1 -463.6592 -192.4568)" class="st4 st0 st3">fU</text>
			</g>
		</g>
	</g>
</g>
<g id="ID000050">
	<g transform="translate(1004.572,515.145)">
		<g transform="rotate(-0.0)">
			<text transform="matrix(1 0 0 1 -428.3567 -227.7612)" class="st5 st0 st3">fU</text>
		</g>
	</g>
</g>
<g id="ID000051">
	<g transform="translate(961.218,536.823)">
		<g transform="rotate(-0.0)">
			<text transform="matrix(1 0 0 1 -404.28 -239.5291)" class="st5 st0 st3">A</text>
		</g>
	</g>
</g>
<g id="ID000052">
	<g>
		<g transform="translate(917.863,547.661)">
			<g transform="rotate(-0.0)">
				<text transform="matrix(1 0 0 1 -381.2863 -245.412)" class="st4 st0 st3">fC</text>
			</g>
		</g>
	</g>
</g>
<g id="ID000053">
	<g transform="translate(874.509,536.823)">
		<g transform="rotate(-0.0)">
			<text transform="matrix(1 0 0 1 -357.7507 -239.5291)" class="st5 st0 st3">fU</text>
		</g>
	</g>
</g>
<g id="ID000054">
	<g transform="translate(841.994,515.145)">
		<g transform="rotate(-0.0)">
			<text transform="matrix(1 0 0 1 -339.557 -227.7612)" class="st5 st0 st3">A</text>
		</g>
	</g>
</g>
<g id="ID000055">
	<line class="st7" x1="509" y1="291.7" x2="509" y2="304.9"/>
</g>
<g id="ID000056">
	<g transform="translate(841.994,604.599)">
		<g transform="rotate(-0.0)">
			<text transform="matrix(1 0 0 1 -343.933 -276.3226)" class="st0 st3">30</text>
		</g>
	</g>
</g>
<g id="ID000057">
	<g transform="translate(809.478,493.468)">
		<g transform="rotate(-0.0)">
			<text transform="matrix(1 0 0 1 -321.9053 -215.9924)" class="st5 st0 st3">A</text>
		</g>
	</g>
</g>
<g id="ID000058">
	<g transform="translate(766.124,471.791)">
		<g transform="rotate(-0.0)">
			<text transform="matrix(1 0 0 1 -299.4595 -204.2256)" class="st11 st0 st3">G</text>
		</g>
	</g>
</g>
<g id="ID000059">
	<g transform="translate(722.770,471.791)">
		<g transform="rotate(-0.0)">
			<text transform="matrix(1 0 0 1 -275.377 -204.2256)" class="st11 st0 st3">fU</text>
		</g>
	</g>
</g>
<g id="ID000060">
	<g transform="translate(679.416,471.791)">
		<g transform="rotate(-0.0)">
			<text transform="matrix(1 0 0 1 -251.8418 -204.2256)" class="st11 st0 st3">fC</text>
		</g>
	</g>
</g>
<g id="ID000061">
	<g transform="translate(636.062,471.791)">
		<g transform="rotate(-0.0)">
			<text transform="matrix(1 0 0 1 -228.3072 -204.2256)" class="st11 st0 st3">fU</text>
		</g>
	</g>
</g>
<g id="ID000062">
	<line class="st8" x1="414.8" y1="226.9" x2="414.8" y2="250.7"/>
</g>
<g id="ID000063">
	<line class="st8" x1="434.7" y1="226.9" x2="434.7" y2="250.7"/>
</g>
<g id="ID000064">
	<line class="st8" x1="454.5" y1="226.9" x2="454.5" y2="250.7"/>
</g>
<g id="ID000065">
	<line class="st8" x1="474.3" y1="226.9" x2="474.3" y2="250.7"/>
</g>
<g id="ID000111">
	<polygon class="st12" points="288.7,238.5 288.7,238.3 288.7,238.2 288.7,238 288.7,237.8 288.5,237.5 288.5,237.3 288.5,237.3 
		288.4,237 288.4,236.9 288.2,236.7 288.1,236.5 288.1,236.4 287.9,236.2 287.6,236.2 287.4,236 287.4,235.9 287.2,235.9 
		286.9,235.7 286.8,235.6 286.6,235.6 286.4,235.6 286.3,235.6 286.1,235.6 285.8,235.6 285.6,235.6 285.5,235.6 285.3,235.6 
		285,235.6 285,235.6 284.7,235.6 284.5,235.7 284.3,235.7 284.2,235.9 284,236 283.8,236.2 283.7,236.2 283.5,236.4 283.4,236.5 
		283.4,236.7 283.2,236.7 283,237 282.9,237.2 282.9,237.3 282.7,237.5 282.7,237.7 282.7,238 282.7,238 282.7,238.3 282.7,238.5 
		282.7,238.6 282.7,238.8 282.7,239.1 282.7,239.3 282.7,239.5 282.7,239.6 282.9,239.8 282.9,239.9 283,240.3 283.2,240.3 
		283.4,240.4 283.4,240.6 283.5,240.8 283.7,240.9 283.8,241.1 284,241.1 284.2,241.2 284.3,241.4 284.5,241.4 284.7,241.4 
		285,241.6 285,241.6 285.3,241.6 285.5,241.6 285.6,241.7 285.8,241.7 286.1,241.6 286.3,241.6 286.4,241.6 286.6,241.4 
		286.8,241.4 286.9,241.4 287.2,241.4 287.4,241.2 287.4,241.1 287.6,240.9 287.9,240.9 288.1,240.8 288.1,240.6 288.2,240.4 
		288.4,240.3 288.4,240.1 288.5,239.9 288.5,239.6 288.5,239.6 288.7,239.3 288.7,239.1 288.7,239 288.7,238.8 	"/>
</g>
<g id="ID000065_1_">
	<line class="st8" x1="493.9" y1="220.7" x2="493.9" y2="261.2"/>
</g>
<g id="ID000111_1_">
	<polygon class="st12" points="497,239.8 497,239.7 497,239.5 497,239.4 497,239.2 496.9,238.9 496.9,238.7 496.9,238.7 
		496.7,238.4 496.7,238.2 496.6,238.1 496.4,237.9 496.4,237.7 496.2,237.6 495.9,237.6 495.7,237.4 495.7,237.3 495.6,237.3 
		495.3,237.1 495.1,236.9 494.9,236.9 494.8,236.9 494.6,236.9 494.4,236.9 494.1,236.9 494,236.9 493.8,236.9 493.6,236.9 
		493.3,236.9 493.3,236.9 493,236.9 492.8,237.1 492.7,237.1 492.5,237.3 492.3,237.4 492.2,237.6 492,237.6 491.8,237.7 
		491.7,237.9 491.7,238.1 491.5,238.1 491.4,238.4 491.2,238.6 491.2,238.7 491,238.9 491,239 491,239.4 491,239.4 491,239.7 
		491,239.8 491,240 491,240.2 491,240.5 491,240.7 491,240.8 491,241 491.2,241.1 491.2,241.3 491.4,241.6 491.5,241.6 491.7,241.8 
		491.7,242 491.8,242.1 492,242.3 492.2,242.4 492.3,242.4 492.5,242.6 492.7,242.8 492.8,242.8 493,242.8 493.3,242.9 493.3,242.9 
		493.6,242.9 493.8,242.9 494,243.1 494.1,243.1 494.4,242.9 494.6,242.9 494.8,242.9 494.9,242.8 495.1,242.8 495.3,242.8 
		495.6,242.8 495.7,242.6 495.7,242.4 495.9,242.3 496.2,242.3 496.4,242.1 496.4,242 496.6,241.8 496.7,241.6 496.7,241.5 
		496.9,241.3 496.9,241 496.9,241 497,240.7 497,240.5 497,240.3 497,240.2 	"/>
</g>
<g id="ID000065_2_">
	<line class="st8" x1="509" y1="205.4" x2="509" y2="270.9"/>
</g>
<g id="ID000111_2_">
	<polygon class="st13" points="512.2,239.5 512.2,239.3 512.2,239.2 512.2,239 512.2,238.8 512.1,238.5 512.1,238.3 512.1,238.3 
		511.9,238 511.9,237.9 511.7,237.7 511.6,237.5 511.6,237.4 511.4,237.2 511.1,237.2 510.9,237.1 510.9,236.9 510.8,236.9 
		510.4,236.7 510.3,236.6 510.1,236.6 509.9,236.6 509.8,236.6 509.6,236.6 509.3,236.6 509.1,236.6 509,236.6 508.8,236.6 
		508.5,236.6 508.5,236.6 508.2,236.6 508,236.7 507.8,236.7 507.7,236.9 507.5,237.1 507.3,237.2 507.2,237.2 507,237.4 
		506.9,237.5 506.9,237.7 506.7,237.7 506.5,238 506.4,238.2 506.4,238.3 506.2,238.5 506.2,238.7 506.2,239 506.2,239 506.2,239.3 
		506.2,239.5 506.2,239.6 506.2,239.8 506.2,240.1 506.2,240.3 506.2,240.5 506.2,240.6 506.4,240.8 506.4,240.9 506.5,241.3 
		506.7,241.3 506.9,241.4 506.9,241.6 507,241.8 507.2,241.9 507.3,242.1 507.5,242.1 507.7,242.2 507.8,242.4 508,242.4 
		508.2,242.4 508.5,242.6 508.5,242.6 508.8,242.6 509,242.6 509.1,242.7 509.3,242.7 509.6,242.6 509.8,242.6 509.9,242.6 
		510.1,242.4 510.3,242.4 510.4,242.4 510.8,242.4 510.9,242.2 510.9,242.1 511.1,241.9 511.4,241.9 511.6,241.8 511.6,241.6 
		511.7,241.4 511.9,241.3 511.9,241.1 512.1,240.9 512.1,240.6 512.1,240.6 512.2,240.3 512.2,240.1 512.2,240 512.2,239.8 	"/>
</g>
<g id="ID000065_3_">
	<line class="st8" x1="525.8" y1="200.7" x2="541.7" y2="285.1"/>
</g>
<g id="ID000065_4_">
	<line class="st8" x1="529.9" y1="199.5" x2="604.7" y2="226.9"/>
</g>
<g id="ID000065_5_">
	<line class="st8" x1="545.6" y1="196.8" x2="581.5" y2="270.2"/>
</g>
<g id="ID000065_6_">
	<line class="st8" x1="594.8" y1="210.9" x2="524.2" y2="281.2"/>
</g>
<g id="ID000065_7_">
	<line class="st8" x1="603.9" y1="248.5" x2="564.8" y2="281.5"/>
</g>
<g id="ID000065_8_">
	<line class="st8" x1="603.6" y1="247.5" x2="547.4" y2="286.2"/>
</g>
<g id="ID000111_3_">
	<polygon class="st13" points="536.1,240.3 536.1,240.2 536.1,240 536.1,239.9 536.1,239.7 535.9,239.4 535.9,239.2 535.9,239.2 
		535.8,238.9 535.8,238.7 535.6,238.6 535.4,238.4 535.4,238.2 535.3,238.1 535,238.1 534.8,237.9 534.8,237.7 534.6,237.7 
		534.3,237.6 534.2,237.4 534,237.4 533.8,237.4 533.7,237.4 533.5,237.4 533.2,237.4 533,237.4 532.9,237.4 532.7,237.4 
		532.4,237.4 532.4,237.4 532,237.4 531.9,237.6 531.7,237.6 531.6,237.7 531.4,237.9 531.2,238.1 531.1,238.1 530.9,238.2 
		530.7,238.4 530.7,238.6 530.6,238.6 530.4,238.9 530.3,239 530.3,239.2 530.1,239.4 530.1,239.5 530.1,239.9 530.1,239.9 
		530.1,240.2 530.1,240.3 530.1,240.5 530.1,240.7 530.1,241 530.1,241.2 530.1,241.3 530.1,241.5 530.3,241.6 530.3,241.8 
		530.4,242.1 530.6,242.1 530.7,242.3 530.7,242.5 530.9,242.6 531.1,242.8 531.2,242.9 531.4,242.9 531.6,243.1 531.7,243.3 
		531.9,243.3 532,243.3 532.4,243.4 532.4,243.4 532.7,243.4 532.9,243.4 533,243.6 533.2,243.6 533.5,243.4 533.7,243.4 
		533.8,243.4 534,243.3 534.2,243.3 534.3,243.3 534.6,243.3 534.8,243.1 534.8,242.9 535,242.8 535.3,242.8 535.4,242.6 
		535.4,242.5 535.6,242.3 535.8,242.1 535.8,242 535.9,241.8 535.9,241.5 535.9,241.5 536.1,241.2 536.1,241 536.1,240.8 
		536.1,240.7 	"/>
</g>
<g id="ID000111_4_">
	<polygon class="st12" points="563.9,244.8 563.9,244.6 563.9,244.5 563.9,244.3 563.9,244.1 563.8,243.8 563.8,243.6 563.8,243.6 
		563.6,243.3 563.6,243.2 563.4,243 563.3,242.8 563.3,242.7 563.1,242.5 562.8,242.5 562.6,242.3 562.6,242.2 562.5,242.2 
		562.1,242 562,241.9 561.8,241.9 561.6,241.9 561.5,241.9 561.3,241.9 561,241.9 560.8,241.9 560.7,241.9 560.5,241.9 560.2,241.9 
		560.2,241.9 559.9,241.9 559.7,242 559.5,242 559.4,242.2 559.2,242.3 559.1,242.5 558.9,242.5 558.7,242.7 558.6,242.8 558.6,243 
		558.4,243 558.2,243.3 558.1,243.5 558.1,243.6 557.9,243.8 557.9,244 557.9,244.3 557.9,244.3 557.9,244.6 557.9,244.8 
		557.9,244.9 557.9,245.1 557.9,245.4 557.9,245.6 557.9,245.8 557.9,245.9 558.1,246.1 558.1,246.2 558.2,246.6 558.4,246.6 
		558.6,246.7 558.6,246.9 558.7,247.1 558.9,247.2 559.1,247.4 559.2,247.4 559.4,247.5 559.5,247.7 559.7,247.7 559.9,247.7 
		560.2,247.9 560.2,247.9 560.5,247.9 560.7,247.9 560.8,248 561,248 561.3,247.9 561.5,247.9 561.6,247.9 561.8,247.7 562,247.7 
		562.1,247.7 562.5,247.7 562.6,247.5 562.6,247.4 562.8,247.2 563.1,247.2 563.3,247.1 563.3,246.9 563.4,246.7 563.6,246.6 
		563.6,246.4 563.8,246.2 563.8,245.9 563.8,245.9 563.9,245.6 563.9,245.4 563.9,245.3 563.9,245.1 	"/>
</g>
<g id="ID000111_5_">
	<polygon class="st13" points="574.2,269.1 574.2,268.9 574.2,268.8 574.2,268.6 574.2,268.4 574,268.1 574,267.9 574,267.9 
		573.8,267.6 573.8,267.5 573.7,267.3 573.5,267.1 573.5,267 573.4,266.8 573,266.8 572.9,266.7 572.9,266.5 572.7,266.5 
		572.4,266.3 572.2,266.2 572.1,266.2 571.9,266.2 571.7,266.2 571.6,266.2 571.2,266.2 571.1,266.2 570.9,266.2 570.8,266.2 
		570.4,266.2 570.4,266.2 570.1,266.2 569.9,266.3 569.8,266.3 569.6,266.5 569.5,266.7 569.3,266.8 569.1,266.8 569,267 
		568.8,267.1 568.8,267.3 568.6,267.3 568.5,267.6 568.3,267.8 568.3,267.9 568.2,268.1 568.2,268.3 568.2,268.6 568.2,268.6 
		568.2,268.9 568.2,269.1 568.2,269.2 568.2,269.4 568.2,269.7 568.2,269.9 568.2,270.1 568.2,270.2 568.3,270.4 568.3,270.5 
		568.5,270.9 568.6,270.9 568.8,271 568.8,271.2 569,271.4 569.1,271.5 569.3,271.7 569.5,271.7 569.6,271.8 569.8,272 569.9,272 
		570.1,272 570.4,272.2 570.4,272.2 570.8,272.2 570.9,272.2 571.1,272.3 571.2,272.3 571.6,272.2 571.7,272.2 571.9,272.2 
		572.1,272 572.2,272 572.4,272 572.7,272 572.9,271.8 572.9,271.7 573,271.5 573.4,271.5 573.5,271.4 573.5,271.2 573.7,271 
		573.8,270.9 573.8,270.7 574,270.5 574,270.2 574,270.2 574.2,269.9 574.2,269.7 574.2,269.6 574.2,269.4 	"/>
</g>
<g id="ID000111_6_">
	<polygon class="st13" points="589.3,264.3 589.3,264.2 589.3,264 589.3,263.9 589.3,263.7 589.1,263.4 589.1,263.2 589.1,263.2 
		589,262.9 589,262.7 588.8,262.6 588.6,262.4 588.6,262.2 588.5,262.1 588.2,262.1 588,261.9 588,261.7 587.8,261.7 587.5,261.6 
		587.3,261.4 587.2,261.4 587,261.4 586.9,261.4 586.7,261.4 586.4,261.4 586.2,261.4 586,261.4 585.9,261.4 585.6,261.4 
		585.6,261.4 585.2,261.4 585.1,261.6 584.9,261.6 584.8,261.7 584.6,261.9 584.4,262.1 584.3,262.1 584.1,262.2 583.9,262.4 
		583.9,262.6 583.8,262.6 583.6,262.9 583.5,263 583.5,263.2 583.3,263.4 583.3,263.5 583.3,263.9 583.3,263.9 583.3,264.2 
		583.3,264.3 583.3,264.5 583.3,264.7 583.3,265 583.3,265.2 583.3,265.3 583.3,265.5 583.5,265.6 583.5,265.8 583.6,266.1 
		583.8,266.1 583.9,266.3 583.9,266.5 584.1,266.6 584.3,266.8 584.4,266.9 584.6,266.9 584.8,267.1 584.9,267.3 585.1,267.3 
		585.2,267.3 585.6,267.4 585.6,267.4 585.9,267.4 586,267.4 586.2,267.6 586.4,267.6 586.7,267.4 586.9,267.4 587,267.4 
		587.2,267.3 587.3,267.3 587.5,267.3 587.8,267.3 588,267.1 588,266.9 588.2,266.8 588.5,266.8 588.6,266.6 588.6,266.5 
		588.8,266.3 589,266.1 589,266 589.1,265.8 589.1,265.5 589.1,265.5 589.3,265.2 589.3,265 589.3,264.8 589.3,264.7 	"/>
</g>
<g id="ID000136">
	<polygon class="st13" points="566.5,213.1 563.6,208.8 561.4,213.4 	"/>
</g>
<g id="ID000125">
	<polygon class="st13" points="564.6,230.1 562.4,226 558.4,228.2 560.5,232.2 	"/>
</g>
<text transform="matrix(1 0 0 1 10.6468 387.39)" class="st0 st1">fC/fU: 2’-fluor-pyrimidines bases</text>
</svg>
