<svg id="图层_1" data-name="图层 1" xmlns="http://www.w3.org/2000/svg" viewBox="0 0 800 400"><defs><style>.cls-1,.cls-10,.cls-11,.cls-12,.cls-13,.cls-14,.cls-15,.cls-16,.cls-19,.cls-2,.cls-20,.cls-22,.cls-3,.cls-4,.cls-6,.cls-8,.cls-9{isolation:isolate;}.cls-1,.cls-10,.cls-11,.cls-12,.cls-13,.cls-14,.cls-15,.cls-16,.cls-2,.cls-3,.cls-4,.cls-6,.cls-8,.cls-9{font-size:9.77px;}.cls-1,.cls-10,.cls-11,.cls-12,.cls-13,.cls-14,.cls-15,.cls-16,.cls-2,.cls-20,.cls-3,.cls-4,.cls-6,.cls-8,.cls-9{font-family:ArialMT, Arial;}.cls-1{letter-spacing:-0.04em;}.cls-2,.cls-3{fill:#b83233;}.cls-10,.cls-11,.cls-13,.cls-16,.cls-3,.cls-9{letter-spacing:-0.06em;}.cls-10,.cls-4{fill:#084595;}.cls-5,.cls-7{fill:none;}.cls-17,.cls-18,.cls-5,.cls-7{stroke:#000;}.cls-17,.cls-18,.cls-5{stroke-width:0.5px;}.cls-8,.cls-9{fill:#f17d07;}.cls-11,.cls-12{fill:#cf3e7d;}.cls-13,.cls-14{fill:#c2b617;}.cls-15,.cls-16{fill:#18988c;}.cls-18{fill:#fff;}.cls-20,.cls-22{font-size:18px;}.cls-21{letter-spacing:-0.06em;}.cls-22{font-family:AdobeSongStd-Light-GBpc-EUC-H, Adobe Song Std;}</style></defs><title>GlnRs_aptamer_2D</title><text class="cls-1" transform="translate(383.57 132.63)">’</text><g id="topgroup"><g id="ID000000"><g id="ID000002"><text class="cls-2" transform="translate(377.59 153.92)">G</text></g><g id="ID000003"><text class="cls-2" transform="translate(377.59 163.49)">G</text></g><g id="ID000004"><text class="cls-2" transform="translate(377.59 173.06)">G</text></g><g id="ID000005"><text class="cls-2" transform="translate(377.59 182.63)">G</text></g><g id="ID000006"><text class="cls-2" transform="translate(377.87 192.19)">U</text></g><g id="ID000007"><text class="cls-3" transform="translate(378.13 201.77)">A</text></g><g id="ID000008"><text class="cls-4" transform="translate(375.48 213.73)">U</text></g><g id="ID000009"><text class="cls-2" transform="translate(397 201.77)">U</text></g><g id="ID000010"><text class="cls-3" transform="translate(397.27 192.19)">A</text></g><g id="ID000011"><text class="cls-2" transform="translate(397 182.63)">C</text></g><g id="ID000012"><text class="cls-2" transform="translate(397 173.06)">C</text></g><g id="ID000013"><text class="cls-2" transform="translate(397 163.49)">C</text></g><g id="ID000014"><line class="cls-5" x1="406.9" y1="159.2" x2="413.3" y2="159.2"/></g><g id="ID000015"><text class="cls-6" transform="translate(413.29 163.49)">70</text></g><g id="ID000016"><text class="cls-2" transform="translate(397 153.92)">C</text></g><g id="ID000017"><text class="cls-3" transform="translate(397.27 144.36)">A</text></g><g id="ID000018"><text class="cls-2" transform="translate(396.73 134.79)">G</text></g><g id="ID000019"><text class="cls-2" transform="translate(397 125.22)">C</text></g><g id="ID000020"><text class="cls-2" transform="translate(397 115.65)">C</text></g><g id="ID000021"><text class="cls-3" transform="translate(397.27 106.08)">A</text></g><g id="ID000022"><line class="cls-7" x1="385.2" y1="149.6" x2="396.7" y2="149.6"/></g><g id="ID000023"><line class="cls-7" x1="385.2" y1="159.2" x2="396.7" y2="159.2"/></g><g id="ID000024"><line class="cls-7" x1="385.2" y1="168.8" x2="396.7" y2="168.8"/></g><g id="ID000025"><line class="cls-7" x1="385.2" y1="178.3" x2="396.7" y2="178.3"/></g><g id="ID000026"><line class="cls-7" x1="385.2" y1="187.9" x2="396.7" y2="187.9"/></g><g id="ID000027"><line class="cls-7" x1="385.2" y1="197.5" x2="396.7" y2="197.5"/></g><g id="ID000029"><text class="cls-4" transform="translate(370.69 225.69)">C</text></g><g id="ID000030"><text class="cls-8" transform="translate(360.85 231.32)">G</text></g><g id="ID000031"><text class="cls-8" transform="translate(351.56 231.32)">C</text></g><g id="ID000032"><text class="cls-8" transform="translate(341.98 231.32)">C</text></g><g id="ID000033"><text class="cls-9" transform="translate(332.69 231.32)">A</text></g><g id="ID000034"><text class="cls-9" transform="translate(323.12 221.76)">A</text></g><g id="ID000035"><text class="cls-8" transform="translate(310.61 216.97)">G</text></g><g id="ID000036"><text class="cls-4" transform="translate(298.93 221.76)">C</text></g><g id="ID000037"><text class="cls-4" transform="translate(289.09 236.11)">G</text></g><g id="ID000038"><text class="cls-4" transform="translate(293.87 247.21)">G</text></g><g id="ID000039"><text class="cls-4" transform="translate(308.5 256.78)">U</text></g><g id="ID000040"><line class="cls-5" x1="312" y1="258.9" x2="312" y2="265.2"/></g><g id="ID000041"><text class="cls-6" transform="translate(304.76 276.52)">20</text></g><g id="ID000042"><text class="cls-10" transform="translate(320.72 251.99)">A</text></g><g id="ID000043"><text class="cls-10" transform="translate(332.69 251.99)">A</text></g><g id="ID000044"><text class="cls-4" transform="translate(341.72 249.6)">G</text></g><g id="ID000045"><text class="cls-4" transform="translate(351.28 249.6)">G</text></g><g id="ID000046"><text class="cls-4" transform="translate(361.12 249.6)">C</text></g><g id="ID000047"><text class="cls-11" transform="translate(370.96 249.6)">A</text></g><g id="ID000048"><line class="cls-7" x1="364.6" y1="230" x2="364.6" y2="241.5"/></g><g id="ID000049"><line class="cls-7" x1="355.1" y1="230" x2="355.1" y2="241.5"/></g><g id="ID000050"><line class="cls-7" x1="345.5" y1="230" x2="345.5" y2="241.5"/></g><g id="ID000052"><text class="cls-12" transform="translate(373.08 261.56)">C</text></g><g id="ID000053"><text class="cls-12" transform="translate(373.08 271.14)">C</text></g><g id="ID000054"><text class="cls-12" transform="translate(372.81 280.7)">G</text></g><g id="ID000055"><text class="cls-12" transform="translate(372.81 290.27)">G</text></g><g id="ID000056"><line class="cls-5" x1="370.2" y1="286" x2="363.9" y2="286"/></g><g id="ID000057"><text class="cls-6" transform="translate(352.98 290.27)">30</text></g><g id="ID000058"><text class="cls-11" transform="translate(373.35 299.84)">A</text></g><g id="ID000059"><text class="cls-12" transform="translate(365.91 309.41)">U</text></g><g id="ID000060"><text class="cls-12" transform="translate(361.12 321.36)">U</text></g><g id="ID000061"><text class="cls-12" transform="translate(370.69 328.55)">C</text></g><g id="ID000062"><text class="cls-12" transform="translate(382.65 333.33)">U</text></g><g id="ID000063"><text class="cls-12" transform="translate(394.34 330.94)">G</text></g><g id="ID000064"><text class="cls-11" transform="translate(404.45 321.36)">A</text></g><g id="ID000065"><text class="cls-12" transform="translate(401.78 309.41)">U</text></g><g id="ID000066"><text class="cls-12" transform="translate(392.22 299.84)">U</text></g><g id="ID000067"><text class="cls-12" transform="translate(392.22 290.27)">C</text></g><g id="ID000068"><line class="cls-5" x1="402.9" y1="288.7" x2="406.3" y2="283.3"/></g><g id="ID000069"><text class="cls-6" transform="translate(409.92 285.63) rotate(-57.09)">40</text></g><g id="ID000070"><text class="cls-12" transform="translate(392.22 280.7)">C</text></g><g id="ID000071"><text class="cls-12" transform="translate(391.95 271.14)">G</text></g><g id="ID000072"><text class="cls-12" transform="translate(391.95 261.56)">G</text></g><g id="ID000073"><text class="cls-13" transform="translate(404.45 256.78)">A</text></g><g id="ID000074"><text class="cls-14" transform="translate(415.87 254.39)">G</text></g><g id="ID000075"><text class="cls-14" transform="translate(423.04 242.43)">G</text></g><g id="ID000076"><line class="cls-7" x1="380.5" y1="257.2" x2="391.9" y2="257.2"/></g><g id="ID000077"><line class="cls-7" x1="380.5" y1="266.8" x2="391.9" y2="266.8"/></g><g id="ID000078"><line class="cls-7" x1="380.5" y1="276.4" x2="391.9" y2="276.4"/></g><g id="ID000079"><line class="cls-7" x1="380.5" y1="286" x2="391.9" y2="286"/></g><g id="ID000080"><line class="cls-7" x1="380.5" y1="295.5" x2="391.9" y2="295.5"/></g><g id="ID000082"><text class="cls-14" transform="translate(411.36 232.86)">U</text></g><g id="ID000083"><text class="cls-15" transform="translate(408.97 220.9)">C</text></g><g id="ID000084"><text class="cls-15" transform="translate(418.26 220.9)">G</text></g><g id="ID000085"><line class="cls-5" x1="426.6" y1="221.1" x2="431.1" y2="225.6"/></g><g id="ID000086"><text class="cls-6" transform="translate(428.1 233.82)">50</text></g><g id="ID000087"><text class="cls-16" transform="translate(428.37 220.9)">A</text></g><g id="ID000088"><text class="cls-15" transform="translate(437.39 220.9)">G</text></g><g id="ID000089"><text class="cls-15" transform="translate(446.96 220.9)">G</text></g><g id="ID000090"><text class="cls-15" transform="translate(459.19 228.08)">U</text></g><g id="ID000091"><text class="cls-15" transform="translate(471.15 232.86)">U</text></g><g id="ID000092"><text class="cls-15" transform="translate(483.12 228.08)">C</text></g><g id="ID000093"><text class="cls-15" transform="translate(487.63 216.12)">G</text></g><g id="ID000094"><text class="cls-16" transform="translate(483.39 204.16)">A</text></g><g id="ID000095"><text class="cls-16" transform="translate(471.43 196.98)">A</text></g><g id="ID000096"><text class="cls-15" transform="translate(459.19 199.38)">U</text></g><g id="ID000097"><line class="cls-5" x1="462.7" y1="188.7" x2="462.7" y2="182.3"/></g><g id="ID000098"><text class="cls-6" transform="translate(457.29 179.92)">60</text></g><g id="ID000099"><text class="cls-15" transform="translate(447.24 201.77)">C</text></g><g id="ID000100"><text class="cls-15" transform="translate(437.67 201.77)">C</text></g><g id="ID000101"><text class="cls-15" transform="translate(428.1 201.77)">U</text></g><g id="ID000102"><text class="cls-15" transform="translate(418.53 201.77)">C</text></g><g id="ID000103"><text class="cls-15" transform="translate(408.69 201.77)">G</text></g><g id="ID000104"><line class="cls-7" x1="412.5" y1="212.8" x2="412.5" y2="201.3"/></g><g id="ID000105"><line class="cls-7" x1="422" y1="212.8" x2="422" y2="201.3"/></g><g id="ID000106"><line class="cls-7" x1="431.6" y1="212.8" x2="431.6" y2="201.3"/></g><g id="ID000107"><line class="cls-7" x1="441.2" y1="212.8" x2="441.2" y2="201.3"/></g><g id="ID000108"><line class="cls-7" x1="450.7" y1="212.8" x2="450.7" y2="201.3"/></g><g id="ID000110"><polyline class="cls-7" points="297.7 246.7 297.8 350.5 486.7 350.5 486.7 227.6"/></g><g id="ID000111"><polygon class="cls-17" points="394.1 350.5 394.1 350.4 394.1 350.3 394.1 350.2 394.1 350.1 394 349.9 394 349.8 394 349.8 393.9 349.6 393.9 349.5 393.8 349.4 393.7 349.3 393.7 349.2 393.6 349.1 393.4 349.1 393.3 349 393.3 348.9 393.2 348.9 393 348.8 392.9 348.7 392.8 348.7 392.7 348.7 392.6 348.7 392.5 348.7 392.3 348.7 392.2 348.7 392.1 348.7 392 348.7 391.8 348.7 391.8 348.7 391.6 348.7 391.5 348.8 391.4 348.8 391.3 348.9 391.2 349 391.1 349.1 391 349.1 390.9 349.2 390.8 349.3 390.8 349.4 390.7 349.4 390.6 349.6 390.5 349.7 390.5 349.8 390.4 349.9 390.4 350 390.4 350.2 390.4 350.2 390.4 350.4 390.4 350.5 390.4 350.6 390.4 350.7 390.4 350.9 390.4 351 390.4 351.1 390.4 351.2 390.5 351.3 390.5 351.4 390.6 351.6 390.7 351.6 390.8 351.7 390.8 351.8 390.9 351.9 391 352 391.1 352.1 391.2 352.1 391.3 352.2 391.4 352.3 391.5 352.3 391.6 352.3 391.8 352.4 391.8 352.4 392 352.4 392.1 352.4 392.2 352.5 392.3 352.5 392.5 352.4 392.6 352.4 392.7 352.4 392.8 352.3 392.9 352.3 393 352.3 393.2 352.3 393.3 352.2 393.3 352.1 393.4 352 393.6 352 393.7 351.9 393.7 351.8 393.8 351.7 393.9 351.6 393.9 351.5 394 351.4 394 351.2 394 351.2 394.1 351 394.1 350.9 394.1 350.8 394.1 350.7 394.1 350.5"/></g><g id="ID000112"><line class="cls-7" x1="375.2" y1="209.9" x2="330.2" y2="216.1"/></g><g id="ID000113"><polygon class="cls-18" points="357 212.4 357 212.3 357 212.2 357 212.1 357 212 356.9 211.8 356.8 211.7 356.7 211.6 356.7 211.5 356.6 211.4 356.6 211.4 356.5 211.3 356.3 211.2 356.2 211.1 356.2 211 356 211 355.9 211 355.9 210.9 355.7 210.8 355.6 210.8 355.5 210.8 355.4 210.8 355.2 210.8 355.1 210.7 355 210.8 354.8 210.8 354.8 210.8 354.6 210.8 354.5 210.9 354.4 210.9 354.3 211 354.2 211 354.1 211.1 354 211.2 353.9 211.2 353.8 211.4 353.7 211.4 353.7 211.5 353.6 211.6 353.5 211.7 353.4 211.8 353.4 211.9 353.3 212.1 353.3 212.1 353.3 212.3 353.3 212.4 353.3 212.5 353.3 212.6 353.3 212.8 353.3 212.8 353.3 213 353.3 213.1 353.3 213.2 353.3 213.3 353.4 213.5 353.4 213.5 353.5 213.7 353.6 213.8 353.7 213.9 353.7 213.9 353.8 214 353.9 214.1 354 214.2 354.1 214.3 354.2 214.3 354.3 214.4 354.4 214.4 354.5 214.5 354.7 214.5 354.8 214.6 354.9 214.6 355 214.6 355.1 214.6 355.3 214.6 355.4 214.6 355.5 214.6 355.6 214.6 355.8 214.5 355.9 214.5 355.9 214.4 356.1 214.3 356.2 214.3 356.2 214.3 356.4 214.2 356.5 214.1 356.6 213.9 356.6 213.9 356.7 213.8 356.8 213.7 356.9 213.5 356.9 213.5 357 213.4 357 213.2 357 213.2 357 213 357 212.9 357 212.8 357.1 212.7 357 212.5 357 212.4"/></g><g id="ID000114"><polygon class="cls-18" points="348.6 215.5 352.4 215 351.9 211.2 348.1 211.7 348.6 215.5"/></g><g id="ID000115"><line class="cls-7" x1="465.4" y1="221.1" x2="483.9" y2="202.6"/></g><g id="ID000116"><polygon class="cls-18" points="471.6 215 471.7 215 471.8 215.1 471.8 215.1 471.9 215.2 472.1 215.3 472.1 215.3 472.3 215.3 472.4 215.4 472.5 215.4 472.6 215.4 472.8 215.5 472.9 215.5 473 215.5 473.1 215.5 473.2 215.4 473.4 215.4 473.5 215.4 473.6 215.3 473.7 215.3 473.8 215.3 474 215.2 474 215.1 474.1 215 474.2 215 474.3 214.9 474.3 214.8 474.4 214.7 474.5 214.6 474.6 214.5 474.7 214.4 474.7 214.3 474.7 214.2 474.7 214.1 474.8 213.9 474.8 213.9 474.8 213.7 474.8 213.5 474.8 213.5 474.8 213.3 474.8 213.2 474.8 213.1 474.7 213 474.7 212.8 474.7 212.8 474.6 212.7 474.6 212.5 474.5 212.4 474.4 212.4 474.3 212.3 474.3 212.2 474.1 212.1 474 212 474 212 473.9 211.9 473.7 211.8 473.6 211.8 473.5 211.7 473.4 211.7 473.2 211.7 473.2 211.7 473 211.7 472.9 211.7 472.8 211.7 472.7 211.7 472.5 211.7 472.5 211.7 472.3 211.7 472.2 211.8 472.1 211.8 472 211.9 471.9 212 471.8 212.1 471.7 212.1 471.6 212.2 471.5 212.3 471.4 212.4 471.4 212.4 471.3 212.6 471.2 212.7 471.2 212.8 471.1 212.9 471.1 213 471.1 213.2 471.1 213.2 471.1 213.4 471.1 213.5 471.1 213.6 471.1 213.7 471.1 213.9 471.1 213.9 471.1 214.1 471.1 214.2 471.1 214.3 471.2 214.4 471.3 214.6 471.4 214.6 471.4 214.7 471.5 214.8 471.6 215"/></g><g id="ID000117"><polygon class="cls-18" points="476.5 207.4 473.7 210 476.5 212.8 479.1 210 476.5 207.4"/></g><g id="ID000118"><line class="cls-7" x1="368.5" y1="317.1" x2="403.8" y2="317.1"/></g><g id="ID000119"><polygon class="cls-18" points="381.2 317.1 384.9 319.3 384.9 314.9 381.2 317.1"/></g><g id="ID000120"><polygon class="cls-18" points="390.6 315.2 386.8 315.2 386.8 318.9 390.6 318.9 390.6 315.2"/></g><g id="ID000121"><line class="cls-7" x1="373.3" y1="305.1" x2="401.5" y2="305.1"/></g><g id="ID000122"><polygon class="cls-17" points="389.3 305.1 389.3 305 389.3 304.8 389.3 304.7 389.3 304.6 389.2 304.5 389.2 304.4 389.1 304.3 389 304.2 389 304 388.9 304 388.9 303.9 388.8 303.8 388.7 303.7 388.6 303.6 388.5 303.6 388.4 303.5 388.3 303.4 388.2 303.3 388.1 303.3 387.9 303.3 387.8 303.3 387.7 303.3 387.6 303.2 387.5 303.2 387.4 303.2 387.2 303.2 387.1 303.2 387 303.3 386.8 303.3 386.8 303.3 386.7 303.3 386.5 303.4 386.4 303.4 386.3 303.5 386.2 303.6 386.1 303.6 386 303.7 386 303.8 385.9 303.9 385.8 304 385.7 304.1 385.7 304.2 385.7 304.4 385.6 304.4 385.6 304.6 385.5 304.7 385.5 304.8 385.5 304.9 385.5 305.1 385.5 305.1 385.5 305.3 385.5 305.4 385.5 305.5 385.6 305.6 385.6 305.8 385.7 305.8 385.7 306 385.7 306.1 385.8 306.2 385.9 306.3 386 306.4 386 306.5 386.1 306.6 386.2 306.6 386.3 306.7 386.4 306.8 386.5 306.8 386.7 306.9 386.8 306.9 386.8 306.9 387 306.9 387.1 307 387.2 307 387.4 307 387.5 307 387.6 307 387.7 307 387.8 306.9 387.9 306.9 388.1 306.9 388.2 306.9 388.3 306.8 388.4 306.7 388.5 306.6 388.6 306.6 388.7 306.5 388.8 306.4 388.9 306.3 388.9 306.2 389 306.2 389 306 389.1 305.9 389.2 305.8 389.2 305.7 389.3 305.6 389.3 305.5 389.3 305.4 389.3 305.2 389.3 305.1"/></g><g id="ID000123"><line class="cls-5" x1="335.9" y1="230" x2="335.9" y2="243.9"/></g><g id="ID000124"><polygon class="cls-18" points="335.9 232 333.8 235.7 338.1 235.7 335.9 232"/></g><g id="ID000125"><polygon class="cls-18" points="337.9 241.3 337.9 237.5 334.1 237.5 334.1 241.3 337.9 241.3"/></g><g id="ID000126"><line class="cls-7" x1="378" y1="246.1" x2="404" y2="251.7"/></g><g id="ID000127"><polygon class="cls-17" points="392.9 249.3 392.9 249.1 392.9 249.1 392.9 248.9 392.9 248.8 392.9 248.7 392.9 248.6 392.8 248.4 392.8 248.4 392.8 248.2 392.7 248.1 392.6 248 392.6 247.9 392.6 247.8 392.5 247.7 392.4 247.6 392.3 247.5 392.2 247.4 392.1 247.3 392 247.3 391.9 247.2 391.8 247.2 391.7 247.1 391.5 247.1 391.5 247 391.3 247 391.2 247 391.1 247 391 247 390.8 247 390.8 247 390.6 247 390.5 247 390.4 247.1 390.3 247.1 390.1 247.2 390 247.2 390 247.3 389.8 247.3 389.7 247.4 389.7 247.5 389.6 247.6 389.5 247.7 389.4 247.7 389.3 247.9 389.3 248 389.3 248.1 389.2 248.2 389.1 248.3 389.1 248.4 389.1 248.5 389.1 248.7 389 248.8 389 248.9 389 249.1 389.1 249.1 389.1 249.3 389.1 249.4 389.2 249.5 389.2 249.6 389.3 249.7 389.3 249.9 389.3 249.9 389.4 250 389.5 250.2 389.6 250.2 389.7 250.3 389.8 250.4 389.9 250.5 390 250.6 390 250.6 390.2 250.6 390.3 250.7 390.4 250.7 390.5 250.8 390.7 250.8 390.8 250.8 390.9 250.8 391 250.8 391.1 250.8 391.2 250.8 391.4 250.8 391.5 250.7 391.6 250.7 391.7 250.6 391.8 250.6 391.9 250.6 392 250.5 392.2 250.4 392.2 250.3 392.3 250.2 392.4 250.2 392.5 250.1 392.6 249.9 392.6 249.9 392.6 249.8 392.7 249.6 392.8 249.5 392.8 249.4 392.9 249.3"/></g><g id="ID000128"><polyline class="cls-5" points="328.1 220.1 328.8 221.4 324.6 243.9"/></g><g id="ID000129"><polygon class="cls-17" points="327.5 228.3 327.4 228.3 327.2 228.3 327.2 228.3 327 228.3 326.9 228.3 326.8 228.3 326.7 228.4 326.5 228.4 326.4 228.4 326.3 228.4 326.2 228.5 326.1 228.6 326 228.7 325.9 228.8 325.8 228.8 325.7 228.9 325.7 229 325.6 229.1 325.5 229.2 325.5 229.3 325.4 229.5 325.3 229.5 325.3 229.6 325.3 229.8 325.3 229.9 325.3 230 325.3 230.2 325.3 230.2 325.3 230.4 325.3 230.5 325.3 230.6 325.3 230.7 325.3 230.9 325.4 231 325.4 231 325.5 231.2 325.6 231.3 325.7 231.3 325.7 231.5 325.8 231.6 325.9 231.7 326 231.7 326.1 231.8 326.2 231.8 326.3 231.9 326.4 232 326.5 232 326.7 232.1 326.8 232.1 326.9 232.1 327 232.1 327.2 232.1 327.2 232.1 327.4 232.1 327.5 232.1 327.6 232.1 327.7 232.1 327.9 232 327.9 232 328.1 231.9 328.2 231.8 328.3 231.7 328.3 231.7 328.5 231.6 328.6 231.5 328.6 231.4 328.7 231.3 328.8 231.3 328.8 231.1 328.9 231 329 231 329 230.8 329 230.7 329 230.6 329 230.5 329 230.3 329.1 230.2 329 230.1 329 230 329 229.9 329 229.7 329 229.6 329 229.5 328.9 229.4 328.9 229.3 328.8 229.2 328.7 229.1 328.6 229 328.6 228.9 328.5 228.8 328.4 228.8 328.3 228.7 328.2 228.6 328.1 228.5 327.9 228.4 327.9 228.4 327.8 228.4 327.6 228.4 327.5 228.3"/></g><g id="ID000130"><polygon class="cls-17" points="325.8 237.5 328.6 234.2 324.4 233.5 325.8 237.5"/></g><g id="ID000131"><polyline class="cls-7" points="377.3 206 376.6 204.6 376.6 190.3 321.6 190.3 321.6 242.9 322.3 244.3"/></g><g id="ID000132"><polygon class="cls-18" points="354.1 190.3 350.4 188.1 350.4 192.5 354.1 190.3"/></g><g id="ID000133"><polygon class="cls-18" points="344.7 190.3 344.7 190.4 344.7 190.5 344.7 190.6 344.8 190.8 344.8 190.9 344.8 191 344.9 191.1 345 191.2 345 191.4 345.1 191.4 345.2 191.5 345.2 191.6 345.3 191.7 345.4 191.7 345.5 191.8 345.6 191.9 345.7 192 345.8 192 346 192.1 346.1 192.1 346.1 192.1 346.3 192.1 346.4 192.2 346.5 192.2 346.7 192.2 346.8 192.2 346.9 192.2 347 192.1 347.2 192.1 347.2 192.1 347.4 192.1 347.5 192 347.5 192 347.7 191.9 347.8 191.8 347.9 191.7 347.9 191.7 348 191.6 348.1 191.4 348.2 191.4 348.2 191.3 348.3 191.2 348.3 191 348.4 191 348.5 190.8 348.5 190.7 348.5 190.6 348.5 190.5 348.6 190.3 348.6 190.3 348.5 190.1 348.5 190 348.5 189.9 348.5 189.8 348.4 189.6 348.3 189.6 348.3 189.4 348.2 189.3 348.2 189.2 348.1 189.1 348 189 347.9 188.9 347.9 188.8 347.8 188.8 347.7 188.7 347.5 188.6 347.5 188.6 347.4 188.5 347.2 188.5 347.2 188.5 347 188.5 346.9 188.4 346.8 188.4 346.7 188.4 346.5 188.4 346.4 188.4 346.3 188.4 346.1 188.5 346.1 188.5 346 188.5 345.8 188.5 345.7 188.6 345.6 188.7 345.5 188.7 345.4 188.8 345.3 188.8 345.2 189 345.2 189.1 345.1 189.2 345 189.2 345 189.4 344.9 189.5 344.8 189.6 344.8 189.7 344.8 189.8 344.7 189.9 344.7 190 344.7 190.2 344.7 190.3"/></g><g id="ID000134"><polyline class="cls-7" points="292.9 234.8 292.9 338.6 474.7 338.6 474.7 232.4"/></g><g id="ID000135"><polygon class="cls-18" points="379.4 338.6 379.4 338.7 379.4 338.9 379.5 338.9 379.5 339.1 379.5 339.2 379.5 339.3 379.5 339.4 379.6 339.5 379.7 339.6 379.8 339.7 379.9 339.8 379.9 339.9 380 340 380.1 340.1 380.2 340.1 380.3 340.2 380.4 340.3 380.5 340.3 380.6 340.3 380.7 340.4 380.9 340.4 380.9 340.5 381.1 340.5 381.2 340.5 381.3 340.5 381.4 340.5 381.6 340.5 381.7 340.4 381.8 340.4 382 340.4 382 340.3 382.1 340.3 382.3 340.3 382.4 340.2 382.4 340.1 382.5 340 382.7 340 382.8 339.9 382.8 339.8 382.9 339.6 382.9 339.6 383 339.5 383.1 339.3 383.1 339.3 383.1 339.1 383.1 339 383.2 338.9 383.2 338.8 383.2 338.6 383.2 338.5 383.2 338.4 383.2 338.3 383.1 338.2 383.1 338.1 383.1 337.9 383.1 337.8 383 337.7 382.9 337.6 382.9 337.5 382.8 337.4 382.8 337.3 382.7 337.2 382.5 337.1 382.4 337.1 382.4 337 382.3 336.9 382.1 336.9 382 336.8 382 336.8 381.8 336.7 381.7 336.7 381.6 336.7 381.4 336.7 381.3 336.7 381.2 336.7 381.1 336.7 380.9 336.7 380.9 336.7 380.7 336.7 380.6 336.8 380.5 336.8 380.4 336.9 380.3 337 380.2 337.1 380.1 337.1 380 337.2 379.9 337.3 379.9 337.4 379.8 337.4 379.7 337.5 379.6 337.7 379.5 337.8 379.5 337.8 379.5 338 379.5 338.1 379.5 338.2 379.4 338.4 379.4 338.5 379.4 338.6"/></g><g id="ID000136"><polygon class="cls-18" points="388.8 338.6 385 336.4 385 340.7 388.8 338.6"/></g><g id="ID000137"><polyline class="cls-7" points="316.1 215.3 316.8 216.6 316.8 343.4 414.9 343.4 414.9 232.4"/></g><g id="ID000138"><polygon class="cls-18" points="367.8 343.4 367.8 343.3 367.8 343.2 367.7 343 367.7 342.9 367.7 342.8 367.6 342.7 367.5 342.5 367.5 342.5 367.5 342.3 367.4 342.2 367.3 342.2 367.2 342.1 367.1 342 367.1 341.9 366.9 341.8 366.8 341.8 366.8 341.7 366.7 341.6 366.5 341.6 366.4 341.5 366.3 341.5 366.2 341.5 366 341.4 366 341.4 365.8 341.4 365.7 341.4 365.6 341.4 365.4 341.5 365.3 341.5 365.2 341.6 365.1 341.6 365 341.7 364.9 341.7 364.8 341.8 364.7 341.8 364.6 341.9 364.5 342 364.4 342.1 364.3 342.2 364.2 342.3 364.2 342.4 364.2 342.5 364.1 342.6 364 342.7 364 342.9 364 342.9 363.9 343.1 363.9 343.2 363.9 343.3 363.9 343.4 363.9 343.6 363.9 343.6 364 343.8 364 344 364 344 364.1 344.1 364.2 344.3 364.2 344.3 364.2 344.4 364.3 344.6 364.4 344.7 364.5 344.7 364.6 344.8 364.7 344.9 364.8 345 364.9 345.1 365 345.1 365.1 345.1 365.2 345.2 365.3 345.2 365.4 345.2 365.6 345.3 365.7 345.3 365.8 345.3 366 345.3 366 345.3 366.2 345.3 366.3 345.2 366.4 345.2 366.5 345.1 366.7 345.1 366.8 345.1 366.8 345 366.9 344.9 367.1 344.8 367.1 344.8 367.2 344.7 367.3 344.6 367.4 344.5 367.5 344.4 367.5 344.3 367.5 344.2 367.6 344.1 367.7 344 367.7 343.9 367.7 343.7 367.8 343.6 367.8 343.5 367.8 343.4"/></g><g id="ID000139"><polyline class="cls-5" points="297.7 246.7 297.7 249.5 308.3 251.7"/></g><g id="ID000140"><polygon class="cls-17" points="298.1 249.5 301.3 252.4 302.2 248.2 298.1 249.5"/></g><g id="ID000141"><polygon class="cls-17" points="307.7 249.6 303.9 248.8 303.2 252.6 306.9 253.4 307.7 249.6"/></g><g id="ID000142"><polyline class="cls-7" points="333.8 229.4 331.2 233.3 331.2 245.3 331.2 264.4 331.2 362.5 426.8 362.5 426.8 241.9"/></g><g id="ID000143"><polygon class="cls-18" points="380.9 362.5 380.9 362.4 380.9 362.3 380.9 362.1 380.9 362.1 380.8 361.9 380.8 361.8 380.7 361.7 380.6 361.6 380.6 361.4 380.6 361.4 380.5 361.3 380.4 361.2 380.3 361.1 380.2 361.1 380.1 361 380 360.9 379.9 360.8 379.8 360.7 379.7 360.7 379.5 360.7 379.5 360.7 379.3 360.7 379.2 360.6 379.1 360.6 379 360.6 378.8 360.6 378.8 360.6 378.6 360.7 378.5 360.7 378.4 360.7 378.3 360.7 378.1 360.8 378 360.9 378 360.9 377.8 361 377.7 361.1 377.7 361.1 377.6 361.2 377.5 361.3 377.4 361.4 377.3 361.5 377.3 361.6 377.3 361.8 377.2 361.8 377.2 362 377.1 362.1 377.1 362.2 377.1 362.3 377.1 362.5 377.1 362.5 377.1 362.7 377.1 362.8 377.1 362.9 377.2 363.1 377.2 363.2 377.3 363.2 377.3 363.4 377.3 363.5 377.4 363.6 377.5 363.7 377.6 363.8 377.7 363.9 377.7 364 377.8 364 378 364.1 378 364.2 378.1 364.3 378.3 364.3 378.4 364.3 378.5 364.3 378.6 364.4 378.8 364.4 378.8 364.4 379 364.4 379.1 364.4 379.2 364.4 379.3 364.4 379.5 364.3 379.5 364.3 379.7 364.3 379.8 364.3 379.9 364.2 380 364.1 380.1 364 380.2 364 380.3 364 380.4 363.8 380.5 363.7 380.6 363.6 380.6 363.6 380.6 363.5 380.7 363.3 380.8 363.2 380.8 363.1 380.9 363 380.9 362.9 380.9 362.8 380.9 362.6 380.9 362.5"/></g><g id="ID000144"><polyline class="cls-7" points="371.5 218.6 371.9 219 345.5 219 345.5 222.3"/></g><g id="ID000145"><polygon class="cls-17" points="356.7 220.9 360.6 220.9 360.6 217.1 356.7 217.1 356.7 220.9"/></g><g id="ID000146"><line class="cls-7" x1="377.4" y1="223.4" x2="416.5" y2="248.1"/></g><g id="ID000147"><polygon class="cls-17" points="398.6 236.8 398.6 236.7 398.7 236.5 398.7 236.4 398.7 236.3 398.8 236.2 398.8 236.1 398.8 236 398.8 235.8 398.8 235.7 398.8 235.6 398.8 235.5 398.8 235.3 398.8 235.3 398.7 235.1 398.7 235 398.7 234.9 398.6 234.8 398.5 234.7 398.5 234.6 398.4 234.5 398.3 234.4 398.2 234.3 398.1 234.2 398 234.2 398 234.1 397.8 234 397.7 234 397.7 233.9 397.5 233.9 397.3 233.9 397.3 233.9 397.1 233.9 397 233.8 396.9 233.8 396.8 233.9 396.6 233.9 396.6 233.9 396.4 233.9 396.3 233.9 396.2 233.9 396.1 234 396 234.1 395.8 234.2 395.8 234.2 395.7 234.3 395.6 234.4 395.5 234.5 395.5 234.6 395.4 234.6 395.3 234.7 395.2 234.9 395.1 235 395.1 235.1 395.1 235.2 395.1 235.3 395.1 235.4 395.1 235.6 395.1 235.7 395.1 235.8 395.1 235.9 395.1 236.1 395.1 236.1 395.1 236.3 395.1 236.4 395.2 236.5 395.2 236.6 395.3 236.8 395.4 236.8 395.5 236.9 395.5 237 395.6 237.1 395.7 237.2 395.8 237.2 395.9 237.3 396 237.4 396.1 237.5 396.2 237.5 396.3 237.5 396.5 237.6 396.6 237.6 396.7 237.6 396.8 237.6 396.9 237.6 397 237.6 397.2 237.6 397.3 237.6 397.4 237.6 397.5 237.5 397.7 237.5 397.7 237.5 397.9 237.4 398 237.3 398 237.3 398.1 237.2 398.3 237.2 398.4 237.1 398.4 236.9 398.5 236.8 398.6 236.8"/></g><g id="ID000148"><line class="cls-5" x1="364.6" y1="219.8" x2="364.6" y2="213.4"/></g><g id="ID000149"><text class="cls-6" transform="translate(358 210.4)">10</text></g><g id="ID000006-2"><text class="cls-2" transform="translate(377.59 144.36)">U</text></g><g id="ID000022-2"><line class="cls-7" x1="385.2" y1="141.2" x2="396.7" y2="141.2"/></g></g></g><text class="cls-6" transform="translate(378.13 132.63)">5</text><text class="cls-6" transform="translate(396.95 94.58)">3</text><text class="cls-1" transform="translate(402.38 94.58)">’</text><g class="cls-19"><text class="cls-20" transform="translate(247.95 54.83)">var-AGGU aptamer (tRN<tspan class="cls-21" x="197.03" y="0">A</tspan><tspan x="208.05" y="0" xml:space="preserve"> variant</tspan></text><text class="cls-22" transform="translate(516.05 53.98)">）</text></g></svg>