<svg id="_图层_1" data-name=" 图层 1" xmlns="http://www.w3.org/2000/svg" viewBox="0 0 800 400"><defs><style>.cls-1,.cls-13,.cls-2,.cls-3,.cls-4,.cls-5,.cls-6,.cls-7,.cls-8,.cls-9{isolation:isolate;font-family:ArialMT, Arial;}.cls-1,.cls-2,.cls-3,.cls-4,.cls-5,.cls-6,.cls-7,.cls-8{font-size:19.61px;}.cls-1,.cls-4,.cls-6{fill:#084595;}.cls-1,.cls-2,.cls-8{letter-spacing:-0.06em;}.cls-2,.cls-3,.cls-5{fill:#b83233;}.cls-3{letter-spacing:-0.06em;}.cls-6{letter-spacing:-0.06em;}.cls-7,.cls-8{fill:#cf3e7d;}.cls-13,.cls-9{font-size:20px;}.cls-9{fill:#242424;}.cls-10{letter-spacing:-0.04em;}.cls-11,.cls-12,.cls-14{fill:none;}.cls-11,.cls-14,.cls-15{stroke:#000;}.cls-11,.cls-12{stroke-miterlimit:10;}.cls-12{stroke:#242424;}.cls-14,.cls-15{stroke-miterlimit:1;}</style></defs><text class="cls-1" transform="translate(265.43 205.02)">A</text><text class="cls-2" transform="translate(239.75 212.65)">A</text><text class="cls-3" transform="translate(197.59 212.65)">A</text><text class="cls-4" transform="translate(285.2 194.97)">U</text><text class="cls-4" transform="translate(285.2 171.9)">U</text><text class="cls-4" transform="translate(285.2 148.82)">C</text><text class="cls-4" transform="translate(278.95 128.52)">C</text><text class="cls-4" transform="translate(278.4 99.05)">G</text><text class="cls-5" transform="translate(217.68 212.52)">G</text><text class="cls-1" transform="translate(299.78 82.7)">A</text><text class="cls-4" transform="translate(325.27 84.97)">C</text><text class="cls-4" transform="translate(345.4 103.89)">C</text><text class="cls-1" transform="translate(346.28 127.99)">A</text><text class="cls-4" transform="translate(330.97 147.63)">G</text><text class="cls-5" transform="translate(133.36 212.52)">G</text><text class="cls-1" transform="translate(331.71 172.92)">A</text><text class="cls-6" transform="translate(332.06 194.09)">A</text><text class="cls-7" transform="translate(361.86 194.13)">G</text><text class="cls-5" transform="translate(175.52 212.52)">G</text><text class="cls-5" transform="translate(154.35 212.52)">G</text><text class="cls-7" transform="translate(390.86 196.54)">C</text><text class="cls-8" transform="translate(405.45 217.51)">A</text><text class="cls-8" transform="translate(417.94 243.02)">A</text><text class="cls-7" transform="translate(439.41 243.06)">G</text><text class="cls-7" transform="translate(454.18 225.86)">U</text><text class="cls-8" transform="translate(477.97 243.02)">A</text><text class="cls-7" transform="translate(499.62 243.06)">G</text><text class="cls-7" transform="translate(522.2 225.86)">U</text><text class="cls-7" transform="translate(543.71 225.86)">U</text><text class="cls-7" transform="translate(557.74 243.06)">G</text><text class="cls-7" transform="translate(576.65 243.06)">G</text><text class="cls-7" transform="translate(595.94 243.03)">C</text><text class="cls-7" transform="translate(614.3 243.06)">G</text><text class="cls-7" transform="translate(636.71 231.06)">C</text><text class="cls-7" transform="translate(650.07 246.85)">C</text><text class="cls-7" transform="translate(668.81 246.85)">U</text><text class="cls-8" transform="translate(688.08 246.83)">A</text><text class="cls-7" transform="translate(706.28 246.85)">C</text><text class="cls-7" transform="translate(722.77 266.81)">U</text><text class="cls-8" transform="translate(710.98 288.13)">A</text><text class="cls-7" transform="translate(690.15 287.97)">U</text><text class="cls-8" transform="translate(670.56 288.13)">A</text><text class="cls-7" transform="translate(649.18 288)">G</text><text class="cls-8" transform="translate(648.35 305.48)">A</text><text class="cls-8" transform="translate(648.35 326.65)">A</text><text class="cls-8" transform="translate(632.91 340.18)">A</text><text class="cls-7" transform="translate(616.23 325.8)">U</text><text class="cls-8" transform="translate(616.77 305.48)">A</text><text class="cls-7" transform="translate(614.5 289.01)">C</text><text class="cls-7" transform="translate(595.22 289.04)">G</text><text class="cls-7" transform="translate(577.02 289.01)">C</text><text class="cls-7" transform="translate(558.29 289.01)">C</text><text class="cls-7" transform="translate(531.57 301.51)">U</text><text class="cls-7" transform="translate(500.16 289.71)">U</text><text class="cls-7" transform="translate(476.91 289.71)">U</text><text class="cls-7" transform="translate(454.18 301.51)">C</text><text class="cls-7" transform="translate(439.61 289.71)">C</text><text class="cls-7" transform="translate(417.4 289.71)">U</text><text class="cls-7" transform="translate(391.03 300.46)">C</text><text class="cls-5" transform="translate(237.48 256.57)">U</text><text class="cls-5" transform="translate(216.66 256.57)">C</text><text class="cls-5" transform="translate(196.02 256.57)">U</text><text class="cls-5" transform="translate(175.37 256.57)">C</text><text class="cls-5" transform="translate(154.55 256.57)">C</text><text class="cls-5" transform="translate(133.9 256.57)">U</text><text class="cls-5" transform="translate(124.88 286.58)">U</text><text class="cls-5" transform="translate(130.6 315.73)">C</text><text class="cls-5" transform="translate(150.38 336.9)">C</text><text class="cls-5" transform="translate(169.3 347.66)">U</text><text class="cls-5" transform="translate(190.29 349.22)">C</text><text class="cls-5" transform="translate(216.66 349.22)">U</text><text class="cls-5" transform="translate(239.22 355.98)">U</text><text class="cls-5" transform="translate(264.89 360.15)">C</text><text class="cls-5" transform="translate(288.32 368.65)">U</text><text class="cls-9" transform="translate(117.17 205.02)">5<tspan class="cls-10" x="11.12" y="0">’</tspan></text><text class="cls-9" transform="translate(307.41 377.01)">3<tspan class="cls-10" x="11.12" y="0">’</tspan></text><text class="cls-9" transform="translate(244.41 150.02)">10</text><text class="cls-9" transform="translate(357.16 160.17)">20</text><text class="cls-9" transform="translate(556.28 209.01)">30</text><text class="cls-9" transform="translate(708.43 320.67)">40</text><text class="cls-9" transform="translate(584.21 318.92)">50</text><text class="cls-9" transform="translate(234.41 293.09)">60</text><text class="cls-9" transform="translate(185.98 386.67)">70</text><line class="cls-11" x1="140.12" y1="217.98" x2="140.12" y2="240.26"/><line class="cls-11" x1="161.02" y1="217.98" x2="161.02" y2="240.26"/><line class="cls-11" x1="181.81" y1="217.98" x2="181.81" y2="240.26"/><line class="cls-11" x1="202.61" y1="217.98" x2="202.61" y2="240.26"/><line class="cls-11" x1="223.4" y1="217.98" x2="223.4" y2="240.26"/><line class="cls-11" x1="244.41" y1="217.98" x2="244.41" y2="240.26"/><line class="cls-11" x1="565.42" y1="249.59" x2="565.42" y2="271.77"/><line class="cls-11" x1="584.21" y1="249.59" x2="584.21" y2="271.77"/><line class="cls-11" x1="603.22" y1="249.59" x2="603.22" y2="271.77"/><line class="cls-11" x1="623.02" y1="249.59" x2="623.02" y2="271.77"/><line class="cls-11" x1="657.47" y1="250.02" x2="657.47" y2="272.19"/><line class="cls-11" x1="676.64" y1="249.59" x2="676.64" y2="271.77"/><line class="cls-11" x1="696.14" y1="250.02" x2="696.14" y2="272.19"/><line class="cls-11" x1="424.27" y1="250.02" x2="424.27" y2="272.19"/><line class="cls-11" x1="327.15" y1="188.29" x2="304.87" y2="188.29"/><line class="cls-11" x1="327.15" y1="142.45" x2="304.87" y2="142.45"/><line class="cls-11" x1="327.15" y1="162.93" x2="304.87" y2="162.93"/><line class="cls-11" x1="446.26" y1="250.02" x2="446.26" y2="272.19"/><line class="cls-11" x1="484.56" y1="250.02" x2="484.56" y2="272.19"/><line class="cls-11" x1="507.36" y1="250.02" x2="507.36" y2="272.19"/><line class="cls-12" x1="244.41" y1="274.31" x2="244.41" y2="259.77"/><line class="cls-12" x1="197.56" y1="367.65" x2="197.56" y2="353.12"/><line class="cls-12" x1="283.19" y1="142.85" x2="268.66" y2="142.85"/><line class="cls-12" x1="368.76" y1="177.57" x2="368.76" y2="162.93"/><line class="cls-12" x1="566.15" y1="226.35" x2="566.15" y2="211.81"/><line class="cls-12" x1="720.12" y1="303.81" x2="720.12" y2="289.17"/><text class="cls-13" transform="translate(338.64 24.44)">Apt1 aptamer</text><g id="ID000345"><line class="cls-14" x1="391.23" y1="293.09" x2="255.64" y2="250.44"/></g><g id="ID000346"><polygon class="cls-15" points="313.88 272.08 312.93 270.18 311.55 269.11 310.17 268.37 307.41 266.67 310.6 267.1 312.19 267.31 313.88 267.42 315.9 266.67 313.88 272.08"/></g><line class="cls-12" x1="604.48" y1="302.05" x2="614" y2="290.92"/></svg>