<svg id="图层_1" data-name="图层 1" xmlns="http://www.w3.org/2000/svg" viewBox="0 0 400 400"><defs><style>.cls-1,.cls-3,.cls-4,.cls-6{isolation:isolate;font-size:11.43px;}.cls-1,.cls-4,.cls-6{fill:#ff7f0e;}.cls-1,.cls-3,.cls-4,.cls-6,.cls-7,.cls-9{font-family:ArialMT, Arial;}.cls-2{fill:none;}.cls-2,.cls-5{stroke:#000;stroke-width:0.5px;}.cls-4{letter-spacing:-0.06em;}.cls-6{letter-spacing:-0.06em;}.cls-7{font-size:14px;}.cls-8{letter-spacing:-0.04em;}.cls-9{font-size:20px;}</style></defs><title>H1 aptamer_2D1</title><g id="topgroup"><g id="ID000000"><g id="ID000002"><text class="cls-1" transform="translate(59.09 196.72)">G</text></g><g id="ID000003"><text class="cls-1" transform="translate(70.02 196.72)">G</text></g><g id="ID000004"><text class="cls-1" transform="translate(80.96 196.72)">G</text></g><g id="ID000005"><text class="cls-1" transform="translate(92.21 196.72)">C</text></g><g id="ID000006"><text class="cls-1" transform="translate(105.88 191.25)">C</text></g><g id="ID000007"><text class="cls-1" transform="translate(86.74 232.25)">C</text></g><g id="ID000008"><text class="cls-1" transform="translate(91.89 218.59)">G</text></g><g id="ID000009"><text class="cls-1" transform="translate(81.28 218.59)">U</text></g><g id="ID000010"><text class="cls-1" transform="translate(70.34 218.59)">C</text></g><g id="ID000011"><line class="cls-2" x1="74.47" y1="220.96" x2="74.47" y2="228.25"/></g><g id="ID000012"><text class="cls-3" transform="translate(68.11 241.15)">70</text></g><g id="ID000013"><text class="cls-1" transform="translate(59.41 218.59)">C</text></g><g id="ID000014"><text class="cls-1" transform="translate(50.38 224.6)">G</text></g><g id="ID000015"><text class="cls-4" transform="translate(37.85 224.6)">A</text></g><g id="ID000016"><text class="cls-1" transform="translate(26.97 218.59)">G</text></g><g id="ID000017"><text class="cls-4" transform="translate(26.97 207.62)">A</text></g><g id="ID000018"><line class="cls-2" x1="63.53" y1="196.17" x2="63.53" y2="209.29"/></g><g id="ID000019"><line class="cls-2" x1="74.47" y1="196.17" x2="74.47" y2="209.29"/></g><g id="ID000020"><polygon class="cls-5" points="85.4 204.92 85.54 204.91 85.68 204.9 85.82 204.88 85.95 204.85 86.08 204.81 86.22 204.76 86.34 204.71 86.47 204.64 86.58 204.57 86.7 204.49 86.81 204.41 86.91 204.31 87.01 204.22 87.1 204.11 87.18 204 87.26 203.88 87.33 203.76 87.39 203.64 87.44 203.51 87.49 203.38 87.53 203.25 87.56 203.11 87.58 202.97 87.59 202.84 87.59 202.7 87.58 202.56 87.57 202.42 87.54 202.28 87.51 202.15 87.47 202.02 87.42 201.89 87.36 201.76 87.3 201.64 87.22 201.52 87.14 201.41 87.06 201.3 86.96 201.2 86.86 201.1 86.75 201.01 86.64 200.93 86.53 200.85 86.4 200.79 86.28 200.73 86.15 200.68 86.02 200.63 85.88 200.6 85.75 200.57 85.61 200.55 85.47 200.54 85.33 200.54 85.19 200.55 85.06 200.57 84.92 200.6 84.79 200.63 84.65 200.68 84.53 200.73 84.4 200.79 84.28 200.85 84.16 200.93 84.05 201.01 83.94 201.1 83.84 201.2 83.75 201.3 83.66 201.41 83.58 201.52 83.51 201.64 83.44 201.76 83.39 201.89 83.33 202.02 83.3 202.15 83.26 202.28 83.24 202.42 83.22 202.56 83.22 202.7 83.22 202.84 83.23 202.97 83.25 203.11 83.28 203.25 83.31 203.38 83.36 203.51 83.41 203.64 83.47 203.76 83.54 203.88 83.62 204 83.7 204.11 83.8 204.22 83.89 204.31 84 204.41 84.11 204.49 84.22 204.57 84.34 204.64 84.46 204.71 84.59 204.76 84.72 204.81 84.85 204.85 84.99 204.88 85.13 204.9 85.26 204.91 85.4 204.92"/></g><g id="ID000021"><line class="cls-2" x1="96.34" y1="196.17" x2="96.34" y2="209.29"/></g><g id="ID000023"><text class="cls-4" transform="translate(119.86 196.72)">A</text></g><g id="ID000024"><text class="cls-1" transform="translate(130.16 196.72)">G</text></g><g id="ID000025"><text class="cls-1" transform="translate(141.1 196.72)">G</text></g><g id="ID000026"><text class="cls-1" transform="translate(152.35 196.72)">C</text></g><g id="ID000027"><text class="cls-4" transform="translate(163.6 196.72)">A</text></g><g id="ID000028"><line class="cls-2" x1="167.41" y1="184.51" x2="167.41" y2="177.22"/></g><g id="ID000029"><text class="cls-3" transform="translate(161.06 174.48)">10</text></g><g id="ID000030"><text class="cls-1" transform="translate(173.9 196.72)">G</text></g><g id="ID000031"><text class="cls-1" transform="translate(185.16 196.72)">C</text></g><g id="ID000032"><text class="cls-1" transform="translate(195.78 196.72)">G</text></g><g id="ID000033"><text class="cls-6" transform="translate(207.34 188.52)">A</text></g><g id="ID000034"><text class="cls-1" transform="translate(209.44 226.79)">G</text></g><g id="ID000035"><text class="cls-1" transform="translate(196.09 218.59)">C</text></g><g id="ID000036"><text class="cls-1" transform="translate(184.84 218.59)">G</text></g><g id="ID000037"><text class="cls-1" transform="translate(174.22 218.59)">U</text></g><g id="ID000038"><text class="cls-1" transform="translate(163.29 218.59)">U</text></g><g id="ID000039"><text class="cls-1" transform="translate(152.04 218.59)">G</text></g><g id="ID000040"><line class="cls-2" x1="156.48" y1="220.96" x2="156.48" y2="228.25"/></g><g id="ID000041"><text class="cls-3" transform="translate(150.12 241.15)">50</text></g><g id="ID000042"><text class="cls-1" transform="translate(141.42 218.59)">U</text></g><g id="ID000043"><text class="cls-1" transform="translate(130.48 218.59)">C</text></g><g id="ID000044"><text class="cls-1" transform="translate(119.55 218.59)">U</text></g><g id="ID000045"><text class="cls-1" transform="translate(108.61 218.59)">U</text></g><g id="ID000046"><text class="cls-4" transform="translate(114.4 229.52)">A</text></g><g id="ID000047"><line class="cls-2" x1="123.67" y1="196.17" x2="123.67" y2="209.29"/></g><g id="ID000048"><line class="cls-2" x1="134.61" y1="196.17" x2="134.61" y2="209.29"/></g><g id="ID000049"><polygon class="cls-5" points="145.54 204.92 145.68 204.91 145.82 204.9 145.96 204.88 146.09 204.85 146.23 204.81 146.36 204.76 146.48 204.71 146.61 204.64 146.73 204.57 146.84 204.49 146.95 204.41 147.05 204.31 147.15 204.22 147.24 204.11 147.32 204 147.4 203.88 147.47 203.76 147.53 203.64 147.59 203.51 147.63 203.38 147.67 203.25 147.7 203.11 147.72 202.97 147.73 202.84 147.73 202.7 147.72 202.56 147.71 202.42 147.69 202.28 147.65 202.15 147.61 202.02 147.56 201.89 147.5 201.76 147.44 201.64 147.37 201.52 147.28 201.41 147.2 201.3 147.1 201.2 147 201.1 146.9 201.01 146.78 200.93 146.67 200.85 146.55 200.79 146.42 200.73 146.29 200.68 146.16 200.63 146.03 200.6 145.89 200.57 145.75 200.55 145.61 200.54 145.47 200.54 145.34 200.55 145.2 200.57 145.06 200.6 144.93 200.63 144.8 200.68 144.67 200.73 144.54 200.79 144.42 200.85 144.3 200.93 144.19 201.01 144.09 201.1 143.99 201.2 143.89 201.3 143.8 201.41 143.72 201.52 143.65 201.64 143.58 201.76 143.53 201.89 143.48 202.02 143.44 202.15 143.4 202.28 143.38 202.42 143.36 202.56 143.36 202.7 143.36 202.84 143.37 202.97 143.39 203.11 143.42 203.25 143.46 203.38 143.5 203.51 143.55 203.64 143.62 203.76 143.69 203.88 143.76 204 143.85 204.11 143.94 204.22 144.03 204.31 144.14 204.41 144.25 204.49 144.36 204.57 144.48 204.64 144.6 204.71 144.73 204.76 144.86 204.81 145 204.85 145.13 204.88 145.27 204.9 145.41 204.91 145.54 204.92"/></g><g id="ID000050"><line class="cls-2" x1="156.48" y1="196.17" x2="156.48" y2="209.29"/></g><g id="ID000051"><line class="cls-2" x1="167.41" y1="196.17" x2="167.41" y2="209.29"/></g><g id="ID000052"><polygon class="cls-5" points="178.35 204.92 178.49 204.91 178.63 204.9 178.76 204.88 178.9 204.85 179.03 204.81 179.16 204.76 179.29 204.71 179.41 204.64 179.53 204.57 179.65 204.49 179.75 204.41 179.86 204.31 179.96 204.22 180.05 204.11 180.13 204 180.21 203.88 180.28 203.76 180.34 203.64 180.39 203.51 180.44 203.38 180.47 203.25 180.5 203.11 180.52 202.97 180.53 202.84 180.53 202.7 180.53 202.56 180.51 202.42 180.49 202.28 180.46 202.15 180.42 202.02 180.37 201.89 180.31 201.76 180.24 201.64 180.17 201.52 180.09 201.41 180 201.3 179.91 201.2 179.81 201.1 179.7 201.01 179.59 200.93 179.47 200.85 179.35 200.79 179.22 200.73 179.1 200.68 178.97 200.63 178.83 200.6 178.69 200.57 178.56 200.55 178.42 200.54 178.28 200.54 178.14 200.55 178 200.57 177.87 200.6 177.73 200.63 177.6 200.68 177.47 200.73 177.35 200.79 177.22 200.85 177.11 200.93 177 201.01 176.89 201.1 176.79 201.2 176.7 201.3 176.61 201.41 176.53 201.52 176.46 201.64 176.39 201.76 176.33 201.89 176.28 202.02 176.24 202.15 176.21 202.28 176.18 202.42 176.17 202.56 176.16 202.7 176.16 202.84 176.18 202.97 176.19 203.11 176.22 203.25 176.26 203.38 176.31 203.51 176.36 203.64 176.42 203.76 176.49 203.88 176.57 204 176.65 204.11 176.74 204.22 176.84 204.31 176.94 204.41 177.05 204.49 177.17 204.57 177.29 204.64 177.41 204.71 177.54 204.76 177.67 204.81 177.8 204.85 177.94 204.88 178.07 204.9 178.21 204.91 178.35 204.92"/></g><g id="ID000053"><line class="cls-2" x1="189.28" y1="196.17" x2="189.28" y2="209.29"/></g><g id="ID000054"><line class="cls-2" x1="200.22" y1="196.17" x2="200.22" y2="209.29"/></g><g id="ID000056"><text class="cls-1" transform="translate(220.38 188.52)">G</text></g><g id="ID000057"><text class="cls-1" transform="translate(231.31 196.72)">G</text></g><g id="ID000058"><text class="cls-1" transform="translate(242.25 196.72)">G</text></g><g id="ID000059"><text class="cls-1" transform="translate(245.3 183.05)">U</text></g><g id="ID000060"><text class="cls-1" transform="translate(250.45 169.38)">G</text></g><g id="ID000061"><text class="cls-1" transform="translate(261.7 161.18)">U</text></g><g id="ID000062"><line class="cls-2" x1="265.83" y1="148.97" x2="265.83" y2="141.68"/></g><g id="ID000063"><text class="cls-3" transform="translate(259.47 138.94)">20</text></g><g id="ID000064"><text class="cls-6" transform="translate(272.95 152.98)">A</text></g><g id="ID000065"><text class="cls-1" transform="translate(283.57 150.24)">U</text></g><g id="ID000066"><text class="cls-6" transform="translate(297.55 147.51)">A</text></g><g id="ID000067"><text class="cls-1" transform="translate(310.59 147.51)">G</text></g><g id="ID000068"><text class="cls-1" transform="translate(324.26 150.24)">G</text></g><g id="ID000069"><text class="cls-1" transform="translate(338.25 152.98)">U</text></g><g id="ID000070"><text class="cls-6" transform="translate(352.23 158.44)">A</text></g><g id="ID000071"><text class="cls-1" transform="translate(360.12 172.11)">U</text></g><g id="ID000072"><text class="cls-1" transform="translate(362.85 185.78)">U</text></g><g id="ID000073"><text class="cls-1" transform="translate(365.27 199.45)">G</text></g><g id="ID000074"><line class="cls-2" x1="377" y1="194.53" x2="384.29" y2="194.53"/></g><g id="ID000075"><text class="cls-3" transform="translate(384.29 199.45)">30</text></g><g id="ID000076"><text class="cls-6" transform="translate(365.9 213.12)">A</text></g><g id="ID000077"><text class="cls-6" transform="translate(363.17 226.79)">A</text></g><g id="ID000078"><text class="cls-1" transform="translate(351.92 237.72)">U</text></g><g id="ID000079"><text class="cls-1" transform="translate(338.25 245.92)">C</text></g><g id="ID000080"><text class="cls-6" transform="translate(324.89 248.66)">A</text></g><g id="ID000081"><text class="cls-6" transform="translate(311.22 251.39)">A</text></g><g id="ID000082"><text class="cls-1" transform="translate(299.98 251.39)">U</text></g><g id="ID000083"><text class="cls-1" transform="translate(286.31 248.66)">U</text></g><g id="ID000084"><text class="cls-1" transform="translate(272.32 243.19)">G</text></g><g id="ID000085"><text class="cls-1" transform="translate(258.97 237.72)">U</text></g><g id="ID000086"><line class="cls-2" x1="263.09" y1="240.09" x2="263.09" y2="247.38"/></g><g id="ID000087"><text class="cls-3" transform="translate(256.74 260.29)">40</text></g><g id="ID000088"><text class="cls-1" transform="translate(248.03 226.79)">U</text></g><g id="ID000089"><text class="cls-1" transform="translate(242.57 218.59)">U</text></g><g id="ID000090"><text class="cls-1" transform="translate(231.63 218.59)">U</text></g><g id="ID000091"><text class="cls-6" transform="translate(221.01 226.79)">A</text></g><g id="ID000092"><polygon class="cls-5" points="235.76 204.92 235.9 204.91 236.03 204.9 236.17 204.88 236.31 204.85 236.44 204.81 236.57 204.76 236.7 204.71 236.82 204.64 236.94 204.57 237.05 204.49 237.16 204.41 237.27 204.31 237.36 204.22 237.46 204.11 237.54 204 237.62 203.88 237.68 203.76 237.75 203.64 237.8 203.51 237.84 203.38 237.88 203.25 237.91 203.11 237.93 202.97 237.94 202.84 237.94 202.7 237.94 202.56 237.92 202.42 237.9 202.28 237.87 202.15 237.82 202.02 237.77 201.89 237.72 201.76 237.65 201.64 237.58 201.52 237.5 201.41 237.41 201.3 237.32 201.2 237.22 201.1 237.11 201.01 237 200.93 236.88 200.85 236.76 200.79 236.63 200.73 236.5 200.68 236.37 200.63 236.24 200.6 236.1 200.57 235.97 200.55 235.83 200.54 235.69 200.54 235.55 200.55 235.41 200.57 235.28 200.6 235.14 200.63 235.01 200.68 234.88 200.73 234.75 200.79 234.63 200.85 234.52 200.93 234.41 201.01 234.3 201.1 234.2 201.2 234.1 201.3 234.02 201.41 233.94 201.52 233.86 201.64 233.8 201.76 233.74 201.89 233.69 202.02 233.65 202.15 233.62 202.28 233.59 202.42 233.58 202.56 233.57 202.7 233.57 202.84 233.58 202.97 233.6 203.11 233.63 203.25 233.67 203.38 233.71 203.51 233.77 203.64 233.83 203.76 233.9 203.88 233.98 204 234.06 204.11 234.15 204.22 234.25 204.31 234.35 204.41 234.46 204.49 234.57 204.57 234.69 204.64 234.82 204.71 234.94 204.76 235.07 204.81 235.21 204.85 235.34 204.88 235.48 204.9 235.62 204.91 235.76 204.92"/></g><g id="ID000093"><polygon class="cls-5" points="246.69 204.92 246.83 204.91 246.97 204.9 247.1 204.88 247.24 204.85 247.38 204.81 247.5 204.76 247.63 204.71 247.75 204.64 247.87 204.57 247.99 204.49 248.1 204.41 248.2 204.31 248.3 204.22 248.39 204.11 248.47 204 248.55 203.88 248.62 203.76 248.68 203.64 248.74 203.51 248.78 203.38 248.82 203.25 248.84 203.11 248.87 202.97 248.88 202.84 248.88 202.7 248.87 202.56 248.86 202.42 248.83 202.28 248.8 202.15 248.76 202.02 248.71 201.89 248.65 201.76 248.59 201.64 248.51 201.52 248.43 201.41 248.34 201.3 248.25 201.2 248.15 201.1 248.04 201.01 247.93 200.93 247.81 200.85 247.69 200.79 247.57 200.73 247.44 200.68 247.31 200.63 247.17 200.6 247.04 200.57 246.9 200.55 246.76 200.54 246.62 200.54 246.48 200.55 246.35 200.57 246.21 200.6 246.08 200.63 245.94 200.68 245.81 200.73 245.69 200.79 245.57 200.85 245.45 200.93 245.34 201.01 245.23 201.1 245.13 201.2 245.04 201.3 244.95 201.41 244.87 201.52 244.8 201.64 244.73 201.76 244.68 201.89 244.63 202.02 244.58 202.15 244.55 202.28 244.53 202.42 244.51 202.56 244.5 202.7 244.51 202.84 244.52 202.97 244.54 203.11 244.57 203.25 244.6 203.38 244.65 203.51 244.7 203.64 244.76 203.76 244.83 203.88 244.91 204 245 204.11 245.09 204.22 245.18 204.31 245.29 204.41 245.4 204.49 245.51 204.57 245.63 204.64 245.75 204.71 245.88 204.76 246.01 204.81 246.14 204.85 246.28 204.88 246.41 204.9 246.55 204.91 246.69 204.92"/></g><g id="ID000095"><text class="cls-1" transform="translate(116.81 240.46)">C</text></g><g id="ID000096"><text class="cls-1" transform="translate(108.61 245.92)">C</text></g><g id="ID000097"><text class="cls-1" transform="translate(108.3 256.86)">G</text></g><g id="ID000098"><text class="cls-4" transform="translate(114.4 267.79)">A</text></g><g id="ID000099"><text class="cls-1" transform="translate(114.08 278.73)">C</text></g><g id="ID000100"><line class="cls-2" x1="125.5" y1="273.81" x2="132.79" y2="273.81"/></g><g id="ID000101"><text class="cls-3" transform="translate(132.79 278.73)">60</text></g><g id="ID000102"><text class="cls-1" transform="translate(105.88 289.66)">C</text></g><g id="ID000103"><text class="cls-4" transform="translate(92.53 289.66)">A</text></g><g id="ID000104"><text class="cls-1" transform="translate(84.01 281.46)">C</text></g><g id="ID000105"><text class="cls-4" transform="translate(81.59 267.79)">A</text></g><g id="ID000106"><text class="cls-1" transform="translate(86.74 256.86)">C</text></g><g id="ID000107"><text class="cls-1" transform="translate(86.43 245.92)">G</text></g><g id="ID000108"><line class="cls-2" x1="108.37" y1="241" x2="95.24" y2="241"/></g><g id="ID000109"><line class="cls-2" x1="108.37" y1="251.94" x2="95.24" y2="251.94"/></g></g></g><text class="cls-7" transform="translate(46.92 196.17)">5<tspan class="cls-8" x="7.79" y="0">’</tspan></text><text class="cls-7" transform="translate(14.5 207.62)">3<tspan class="cls-8" x="7.79" y="0">’</tspan></text><text class="cls-9" transform="translate(255.15 56.24)">H1 aptamer</text></svg>