<?xml version="1.0" encoding="utf-8"?>
<!-- Generator: Adobe Illustrator 25.2.0, SVG Export Plug-In . SVG Version: 6.00 Build 0)  -->
<svg version="1.1" id="图层_1" xmlns="http://www.w3.org/2000/svg" xmlns:xlink="http://www.w3.org/1999/xlink" x="0px" y="0px"
	 viewBox="0 0 800 400" style="enable-background:new 0 0 800 400;" xml:space="preserve">
<style type="text/css">
	.st0{font-family:'ArialMT';}
	.st1{font-size:20px;}
	.st2{fill:#B83233;}
	.st3{font-size:13.8876px;}
	.st4{fill:#AFAFAF;}
	.st5{fill:#084595;}
	.st6{fill:#2EA103;}
	.st7{fill:#C2B617;}
	.st8{fill:#CF3E7D;}
	.st9{font-size:13.8884px;}
	.st10{font-size:17.3509px;}
	.st11{fill:none;stroke:#000000;stroke-miterlimit:10;}
	.st12{font-size:10.415px;}
	.st13{fill:none;stroke:#000000;stroke-width:0.25;stroke-miterlimit:10;}
	.st14{stroke:#000000;stroke-miterlimit:10;}
</style>
<text transform="matrix(1 0 0 1 345.9441 34.3807)" class="st0 st1">8-3 aptamer</text>
<g id="ID000012_00000132067672931027451360000011479076388135863710_">
	<g>
		<text transform="matrix(1.0554 1.570601e-02 -1.657913e-02 0.9999 204.6905 204.9613)" class="st2 st0 st3">A</text>
	</g>
</g>
<g id="ID000012_00000036970667174035970450000007327575226052445108_">
	<text transform="matrix(1.0554 1.570580e-02 -1.657891e-02 0.9999 253.6428 222.8917)" class="st4 st0 st3">A</text>
</g>
<g id="ID000012_00000173856394879840610450000002683848953909926544_">
	<g>
		<g>
			<text transform="matrix(1.0554 1.570580e-02 -1.657891e-02 0.9999 136.3999 223.8043)" class="st5 st0 st3">A</text>
		</g>
	</g>
</g>
<g id="ID000012_00000102541830614883825830000009005794645933259676_">
	<text transform="matrix(1.0554 1.570580e-02 -1.657891e-02 0.9999 145.6439 175.4671)" class="st5 st0 st3">A</text>
</g>
<g id="ID000012_00000010313210898438540200000002223611340099543947_">
	<text transform="matrix(1.0554 1.570580e-02 -1.657891e-02 0.9999 157.1212 151.1292)" class="st6 st0 st3">A</text>
</g>
<g id="ID000012_00000088135319918072118160000009596353033417067676_">
	<text transform="matrix(1.0554 1.570580e-02 -1.657891e-02 0.9999 232.0671 166.1406)" class="st5 st0 st3">A</text>
</g>
<g id="ID000012_00000137117127880301586080000003242208866761419910_">
	<text transform="matrix(1.0554 1.570580e-02 -1.657891e-02 0.9999 292.9498 131.4034)" class="st5 st0 st3">A</text>
</g>
<g id="ID000012_00000144332495119020210290000017981613704743980930_">
	<g>
		<text transform="matrix(1.0554 1.570580e-02 -1.657891e-02 0.9999 358.2408 108.215)" class="st6 st0 st3">A</text>
	</g>
</g>
<g id="ID000012_00000021834700820715225110000004561290587115728779_">
	<g>
		<text transform="matrix(1.0554 1.570580e-02 -1.657891e-02 0.9999 368.0114 148.0136)" class="st6 st0 st3">A</text>
	</g>
</g>
<g id="ID000012_00000119096787360909696250000004048566752291330456_">
	<text transform="matrix(1.0554 1.570580e-02 -1.657891e-02 0.9999 424.4496 133.8118)" class="st7 st0 st3">A</text>
</g>
<g id="ID000012_00000052099078685244229760000009777271462013942206_">
	<g>
		<text transform="matrix(1.0554 1.570580e-02 -1.657891e-02 0.9999 501.6481 74.0487)" class="st6 st0 st3">A</text>
	</g>
</g>
<g id="ID000012_00000169526860626802505240000015611937148799521972_">
	<text transform="matrix(1.0554 1.570580e-02 -1.657891e-02 0.9999 520.0176 113.8791)" class="st8 st0 st3">A</text>
</g>
<g id="ID000012_00000111912440233268925030000003036424744522194086_">
	<g>
		<g>
			<text transform="matrix(1.0554 1.570601e-02 -1.657913e-02 0.9999 536.8593 204.9867)" class="st6 st0 st3">A</text>
		</g>
	</g>
</g>
<g id="ID000012_00000175315074311367782180000002000745102742473632_">
	<g>
		<g>
			<text transform="matrix(1.0554 1.570580e-02 -1.657891e-02 0.9999 607.728 192.2637)" class="st6 st0 st3">A</text>
		</g>
	</g>
</g>
<g id="ID000012_00000129207435949764858500000007875085400777604010_">
	<g>
		<g>
			<text transform="matrix(1.0554 1.570580e-02 -1.657891e-02 0.9999 699.4105 285.8032)" class="st6 st0 st3">A</text>
		</g>
	</g>
</g>
<g id="ID000012_00000140711914123670724790000016976863552852893863_">
	<g>
		<g>
			<text transform="matrix(1.0554 1.570580e-02 -1.657891e-02 0.9999 679.8047 286.6614)" class="st6 st0 st3">A</text>
		</g>
	</g>
</g>
<g id="ID000012_00000086689974883124539860000013426773137207515299_">
	<g>
		<g>
			<text transform="matrix(1.0554 1.570580e-02 -1.657891e-02 0.9999 736.1395 345.1497)" class="st6 st0 st3">A</text>
		</g>
	</g>
</g>
<g id="ID000012_00000173161393437533362450000008112495206237620132_">
	<g>
		<g>
			<text transform="matrix(1.0554 1.570580e-02 -1.657891e-02 0.9999 740.0625 362.081)" class="st6 st0 st3">A</text>
		</g>
	</g>
</g>
<g id="ID000012_00000002361826616848970690000015903304075413888650_">
	<g>
		<text transform="matrix(1.0554 1.570601e-02 -1.657913e-02 0.9999 623.7652 279.5234)" class="st8 st0 st3">A</text>
	</g>
</g>
<g id="ID000012_00000026149771274277719330000002931735607046748859_">
	<g>
		<g>
			<text transform="matrix(1.0554 1.570601e-02 -1.657913e-02 0.9999 643.5117 342.9213)" class="st6 st0 st3">A</text>
		</g>
	</g>
</g>
<g id="ID000012_00000007394126243031942150000007227933831322643844_">
	<g>
		<g>
			<text transform="matrix(1.0554 1.570580e-02 -1.657891e-02 0.9999 650.8101 358.3745)" class="st6 st0 st3">A</text>
		</g>
	</g>
</g>
<g id="ID000012_00000154391116724075315990000001503000949219083414_">
	<g>
		<g>
			<text transform="matrix(1.0554 1.570580e-02 -1.657891e-02 0.9999 547.265 219.9349)" class="st6 st0 st3">A</text>
		</g>
	</g>
</g>
<g id="ID000012_00000082354033166105241900000009285695545123904663_">
	<g>
		<g>
			<text transform="matrix(1.0554 1.570580e-02 -1.657891e-02 0.9999 588.9963 178.3433)" class="st6 st0 st3">A</text>
		</g>
	</g>
</g>
<g id="ID000012_00000044166570178685389150000010736911677928109199_">
	<g>
		<g>
			<text transform="matrix(1.0554 1.570580e-02 -1.657891e-02 0.9999 561.8918 232.1363)" class="st6 st0 st3">A</text>
		</g>
	</g>
</g>
<g id="ID000012_00000085959029659985447330000011550710178360220844_">
	<text transform="matrix(1.0554 1.570580e-02 -1.657891e-02 0.9999 56.4107 201.6684)" class="st6 st0 st3">A</text>
</g>
<g id="ID000012_00000124862926364769814560000003017154155727080094_">
	<text transform="matrix(1.0554 1.570580e-02 -1.657891e-02 0.9999 157.1765 201.2328)" class="st5 st0 st3">U</text>
</g>
<g id="ID000012_00000049189057883307937290000014729289576263982241_">
	<g>
		<text transform="matrix(1.0549 3.140602e-02 -3.315192e-02 0.9995 218.4759 183.7492)" class="st2 st0 st9">U</text>
	</g>
</g>
<g id="ID000012_00000052782817563756145600000005856170117092130963_">
	<text transform="matrix(1.0554 1.570580e-02 -1.657891e-02 0.9999 164.6866 137.4693)" class="st6 st0 st3">U</text>
</g>
<g id="ID000012_00000117666944991345590680000012746510593964423830_">
	<text transform="matrix(1.0554 1.570580e-02 -1.657891e-02 0.9999 174.1015 126.8309)" class="st6 st0 st3">U</text>
</g>
<g id="ID000012_00000093134958104049150050000006799506887750862489_">
	<text transform="matrix(1.0554 1.570580e-02 -1.657891e-02 0.9999 227.1243 143.7384)" class="st5 st0 st3">U</text>
</g>
<g id="ID000012_00000061454182255257774530000012066660592807062958_">
	<text transform="matrix(1.0554 1.570580e-02 -1.657891e-02 0.9999 259.8367 137.5643)" class="st5 st0 st3">U</text>
</g>
<g id="ID000012_00000143593853357887850180000018302345370001217470_">
	<text transform="matrix(1.0554 1.570580e-02 -1.657891e-02 0.9999 297.4744 154.6766)" class="st5 st0 st3">U</text>
</g>
<g id="ID000012_00000028320726453656371080000003264120171159963556_">
	<g>
		<text transform="matrix(1.0554 1.570580e-02 -1.657891e-02 0.9999 397.5486 100.8531)" class="st6 st0 st3">U</text>
	</g>
</g>
<g id="ID000012_00000082367876682900164120000007609153463225384090_">
	<g>
		<text transform="matrix(1.0554 1.570580e-02 -1.657891e-02 0.9999 483.5046 82.9672)" class="st6 st0 st3">U</text>
	</g>
</g>
<g id="ID000012_00000150091216144145545210000002633739918243592882_">
	<text transform="matrix(1.0554 1.570580e-02 -1.657891e-02 0.9999 419.1831 108.8293)" class="st7 st0 st3">U</text>
</g>
<g id="ID000012_00000163785590046284518820000003754825175783625616_">
	<text transform="matrix(1.0554 1.570580e-02 -1.657891e-02 0.9999 496.5975 126.8309)" class="st8 st0 st3">U</text>
</g>
<g id="ID000012_00000039134724066038842930000004444393346811282096_">
	<g>
		<text transform="matrix(1.0554 1.570580e-02 -1.657891e-02 0.9999 644.9818 266.8003)" class="st8 st0 st3">U</text>
	</g>
</g>
<g id="ID000012_00000163060748014312310340000001007798417950903708_">
	<g>
		<g>
			<text transform="matrix(1.0554 1.570580e-02 -1.657891e-02 0.9999 712.2681 315.7551)" class="st6 st0 st3">U</text>
		</g>
	</g>
</g>
<g id="ID000012_00000136369522930892762810000017708078318809143443_">
	<g>
		<g>
			<text transform="matrix(1.0554 1.570580e-02 -1.657891e-02 0.9999 641.7774 329.2272)" class="st6 st0 st3">U</text>
		</g>
	</g>
</g>
<g id="ID000012_00000075143658291185464030000000360020563255004036_">
	<g>
		<text transform="matrix(1.0554 1.570580e-02 -1.657891e-02 0.9999 703.2927 332.885)" class="st6 st0 st3">U</text>
	</g>
</g>
<g id="ID000012_00000113313142936502252880000007682840462012630417_">
	<g>
		<g>
			<text transform="matrix(1.0554 1.570580e-02 -1.657891e-02 0.9999 708.0072 376.2276)" class="st6 st0 st3">U</text>
		</g>
	</g>
</g>
<g id="ID000012_00000029013493359115842150000007799678206289449903_">
	<g>
		<g>
			<text transform="matrix(1.0554 1.570580e-02 -1.657891e-02 0.9999 663.0819 368.2907)" class="st6 st0 st3">U</text>
		</g>
	</g>
</g>
<g id="ID000012_00000144334678558205150390000015606347298169726113_">
	<text transform="matrix(1.0554 1.570580e-02 -1.657891e-02 0.9999 506.7207 144.5543)" class="st8 st0 st3">U</text>
</g>
<g id="ID000012_00000037677486520841672550000017008107856521537156_">
	<text transform="matrix(1.0554 1.570580e-02 -1.657891e-02 0.9999 212.2059 130.3924)" class="st6 st0 st3">U</text>
</g>
<g id="ID000012_00000014599470682225084550000016521857889893157807_">
	<text transform="matrix(1.0554 1.570580e-02 -1.657891e-02 0.9999 72.4985 238.2394)" class="st6 st0 st3">U</text>
</g>
<g id="ID000012_00000178191046237580529010000003032534669093455295_">
	<text transform="matrix(1.0554 1.570580e-02 -1.657891e-02 0.9999 82.7888 192.1301)" class="st6 st0 st3">U</text>
</g>
<g id="ID000012_00000000184221395496544740000010300213841441200514_">
	<text transform="matrix(1.0554 1.570580e-02 -1.657891e-02 0.9999 58.7355 230.5743)" class="st6 st0 st3">U</text>
</g>
<g id="ID000012_00000094613475685443247000000002878384736029451710_">
	<g>
		<text transform="matrix(1.0549 3.140602e-02 -3.315192e-02 0.9995 228.5388 229.6129)" class="st2 st0 st9">G</text>
	</g>
</g>
<g id="ID000012_00000022554723876293991140000014096471071382340528_">
	<g>
		<text transform="matrix(1.0549 3.140602e-02 -3.315192e-02 0.9995 216.2172 218.2039)" class="st2 st0 st9">G</text>
	</g>
</g>
<g id="ID000012_00000039135086997430530420000010356417779143510717_">
	<text transform="matrix(1.0554 1.570601e-02 -1.657913e-02 0.9999 247.7095 163.2743)" class="st5 st0 st3">G</text>
</g>
<g id="ID000012_00000075159167160351393570000005751246295987175298_">
	<text transform="matrix(1.0554 1.570580e-02 -1.657891e-02 0.9999 275.7853 134.4661)" class="st5 st0 st3">G</text>
</g>
<g id="ID000012_00000118396004384190618970000000498877453838636470_">
	<text transform="matrix(1.0554 1.570580e-02 -1.657891e-02 0.9999 264.1622 160.4086)" class="st5 st0 st3">G</text>
</g>
<g id="ID000012_00000114755022795632421630000010895476740131856031_">
	<text transform="matrix(1.0554 1.570580e-02 -1.657891e-02 0.9999 313.5192 151.8105)" class="st5 st0 st3">G</text>
</g>
<g id="ID000012_00000137815781195804845630000010652939333845207977_">
	<g>
		<text transform="matrix(1.0554 1.570580e-02 -1.657891e-02 0.9999 194.1333 192.8788)" class="st6 st0 st3">G</text>
	</g>
</g>
<g id="ID000012_00000143605278901225122780000017931285031936854436_">
	<text transform="matrix(1.0554 1.570580e-02 -1.657891e-02 0.9999 160.927 167.7609)" class="st5 st0 st3">G</text>
</g>
<g id="ID000012_00000135676985088584459350000016671875193987887551_">
	<text transform="matrix(1.0554 1.570580e-02 -1.657891e-02 0.9999 195.0463 121.9106)" class="st6 st0 st3">G</text>
</g>
<g id="ID000012_00000038402425991076143130000017066469576470518669_">
	<text transform="matrix(1.0554 1.570580e-02 -1.657891e-02 0.9999 96.5557 198.5842)" class="st5 st0 st3">G</text>
</g>
<g id="ID000012_00000013159476087087596680000012455661933993577112_">
	<g>
		<text transform="matrix(1.0554 1.570580e-02 -1.657891e-02 0.9999 174.9839 194.0135)" class="st5 st0 st3">C</text>
	</g>
</g>
<g id="ID000012_00000123406717696863986990000006138409127877894589_">
	<g>
		<text transform="matrix(1.0549 3.140602e-02 -3.315192e-02 0.9995 231.0601 196.263)" class="st2 st0 st9">C</text>
	</g>
</g>
<g id="ID000012_00000041260658795481976010000012559092945578527362_">
	<text transform="matrix(1.0554 1.570580e-02 -1.657891e-02 0.9999 243.4807 140.6513)" class="st5 st0 st3">C</text>
</g>
<g id="ID000012_00000168093715362461597600000003818074290051296384_">
	<text transform="matrix(1.0554 1.570580e-02 -1.657891e-02 0.9999 308.9048 128.3049)" class="st5 st0 st3">C</text>
</g>
<g id="ID000012_00000009577044827524651810000009114285454270417538_">
	<text transform="matrix(1.0554 1.570580e-02 -1.657891e-02 0.9999 329.9713 148.9437)" class="st5 st0 st3">G</text>
</g>
<g id="ID000012_00000100358568626512999480000011063709023238218902_">
	<text transform="matrix(1.0554 1.570580e-02 -1.657891e-02 0.9999 341.2087 122.1198)" class="st5 st0 st3">G</text>
</g>
<g id="ID000012_00000124136295865965728040000011215808224496046751_">
	<g>
		<text transform="matrix(1.0554 1.570580e-02 -1.657891e-02 0.9999 375.9317 113.0624)" class="st7 st0 st3">G</text>
	</g>
</g>
<g id="ID000012_00000006693128282593323630000006852741003304497309_">
	<text transform="matrix(1.0554 1.570580e-02 -1.657891e-02 0.9999 325.2609 125.218)" class="st5 st0 st3">C</text>
</g>
<g id="ID000012_00000057117177150302572540000014874359768721527425_">
	<text transform="matrix(1.0554 1.570601e-02 -1.657913e-02 0.9999 346.8315 146.0778)" class="st5 st0 st3">C</text>
</g>
<g id="ID000012_00000007414328263525313200000007857848632533008809_">
	<g>
		<text transform="matrix(1.0554 1.570580e-02 -1.657891e-02 0.9999 383.6568 139.0028)" class="st7 st0 st3">C</text>
	</g>
</g>
<g id="ID000012_00000044145722477494689560000018380116492852300458_">
	<text transform="matrix(1.0554 1.570580e-02 -1.657891e-02 0.9999 435.5566 104.1851)" class="st7 st0 st3">G</text>
</g>
<g id="ID000012_00000172404731228782709580000007632091109074379401_">
	<text transform="matrix(1.0554 1.570580e-02 -1.657891e-02 0.9999 458.3718 126.1897)" class="st7 st0 st3">G</text>
</g>
<g id="ID000012_00000175287453810495223780000016489058154675962286_">
	<text transform="matrix(1.0554 1.570580e-02 -1.657891e-02 0.9999 441.521 130.0855)" class="st7 st0 st3">C</text>
</g>
<g id="ID000012_00000085953864382044971600000008255118667681071262_">
	<text transform="matrix(1.0554 1.570580e-02 -1.657891e-02 0.9999 454.2634 101.1787)" class="st7 st0 st3">C</text>
</g>
<g id="ID000012_00000129908732180086502750000014420758219373258660_">
	<g>
		<text transform="matrix(1.0554 1.570580e-02 -1.657891e-02 0.9999 529.9643 96.618)" class="st6 st0 st3">C</text>
	</g>
</g>
<g id="ID000012_00000075856414400475168760000006580569544165398187_">
	<text transform="matrix(1.0554 1.570580e-02 -1.657891e-02 0.9999 518.5589 160.2838)" class="st8 st0 st3">C</text>
</g>
<g id="ID000012_00000021825603028514657810000000152617385763193776_">
	<text transform="matrix(1.0554 1.570580e-02 -1.657891e-02 0.9999 477.3904 121.4049)" class="st7 st0 st3">G</text>
</g>
<g id="ID000012_00000052083444363992135650000014075526652357470623_">
	<g>
		<text transform="matrix(1.0554 1.570580e-02 -1.657891e-02 0.9999 519.0411 77.4661)" class="st6 st0 st3">G</text>
	</g>
</g>
<g id="ID000012_00000139993128909312635260000007609930428445160115_">
	<text transform="matrix(1.0554 1.570580e-02 -1.657891e-02 0.9999 540.1229 143.867)" class="st8 st0 st3">G</text>
</g>
<g id="ID000012_00000077301060174708995270000010813991770563862168_">
	<text transform="matrix(1.0554 1.570580e-02 -1.657891e-02 0.9999 529.9771 175.721)" class="st8 st0 st3">C</text>
</g>
<g id="ID000012_00000152230943429000558120000001849795513982296708_">
	<text transform="matrix(1.0554 1.570580e-02 -1.657891e-02 0.9999 562.5242 174.6809)" class="st8 st0 st3">C</text>
</g>
<g id="ID000012_00000053529327889870961170000016225092050039412096_">
	<g>
		<text transform="matrix(1.0554 1.570580e-02 -1.657891e-02 0.9999 602.4646 213.8249)" class="st8 st0 st3">C</text>
	</g>
</g>
<g id="ID000012_00000142134033270696301130000015314485968854640264_">
	<text transform="matrix(1.0554 1.570580e-02 -1.657891e-02 0.9999 552.0787 159.8677)" class="st8 st0 st3">G</text>
</g>
<g id="ID000012_00000053524832670776437520000004168570014825107894_">
	<text transform="matrix(1.0554 1.570580e-02 -1.657891e-02 0.9999 540.7479 190.764)" class="st8 st0 st3">G</text>
</g>
<g id="ID000012_00000147913128270938137050000014242710206724923321_">
	<g>
		<text transform="matrix(1.0554 1.570580e-02 -1.657891e-02 0.9999 583.141 228.1786)" class="st8 st0 st3">G</text>
	</g>
</g>
<g id="ID000012_00000013186135501660842140000004199964462320452280_">
	<g>
		<g>
			<text transform="matrix(1.0554 1.570580e-02 -1.657891e-02 0.9999 661.9277 271.6135)" class="st8 st0 st3">G</text>
		</g>
	</g>
</g>
<g id="ID000012_00000000218820446274955410000002757922195916260017_">
	<g>
		<text transform="matrix(1.0554 1.570580e-02 -1.657891e-02 0.9999 660.8495 287.5138)" class="st6 st0 st3">G</text>
	</g>
</g>
<g id="ID000012_00000132774534702515302270000009935930856842275256_">
	<text transform="matrix(1.0554 1.570580e-02 -1.657891e-02 0.9999 690.8628 351.9279)" class="st6 st0 st3">G</text>
</g>
<g id="ID000012_00000168794931359023309940000017687366903669037720_">
	<text transform="matrix(1.0554 1.570580e-02 -1.657891e-02 0.9999 718.4038 340.9625)" class="st6 st0 st3">G</text>
</g>
<g id="ID000012_00000030471819288527392650000002957311845511278268_">
	<g>
		<g>
			<text transform="matrix(1.0554 1.570580e-02 -1.657891e-02 0.9999 727.3727 380.8483)" class="st6 st0 st3">G</text>
		</g>
	</g>
</g>
<g id="ID000012_00000113349588725940084610000008825628165709601721_">
	<g>
		<g>
			<text transform="matrix(1.0554 1.570580e-02 -1.657891e-02 0.9999 677.7381 365.9968)" class="st6 st0 st3">G</text>
		</g>
	</g>
</g>
<g id="ID000012_00000043416817641207129170000006583469890394973841_">
	<g>
		<g>
			<text transform="matrix(1.0554 1.570580e-02 -1.657891e-02 0.9999 624.4109 296.5302)" class="st8 st0 st3">G</text>
		</g>
	</g>
</g>
<g id="ID000012_00000107576033581562340560000015931858590852430742_">
	<g>
		<g>
			<text transform="matrix(1.0554 1.570580e-02 -1.657891e-02 0.9999 636.6744 315.3705)" class="st6 st0 st3">G</text>
		</g>
	</g>
</g>
<g id="ID000012_00000007391907483106323210000006915675721349086613_">
	<g>
		<text transform="matrix(1.0554 1.570580e-02 -1.657891e-02 0.9999 613.6045 225.3279)" class="st8 st0 st3">C</text>
	</g>
</g>
<g id="ID000012_00000150818623016719617660000003497528171324173752_">
	<g>
		<text transform="matrix(1.0554 1.570580e-02 -1.657891e-02 0.9999 603.953 253.765)" class="st8 st0 st3">C</text>
	</g>
</g>
<g id="ID000012_00000043450381570643295980000003135628980860480652_">
	<g>
		<text transform="matrix(1.0554 1.570580e-02 -1.657891e-02 0.9999 634.3289 253.9001)" class="st8 st0 st3">C</text>
	</g>
</g>
<g id="ID000012_00000050637061259113706240000013374771430616454826_">
	<g>
		<g>
			<text transform="matrix(1.0554 1.570580e-02 -1.657891e-02 0.9999 705.4445 304.1758)" class="st6 st0 st3">C</text>
		</g>
	</g>
</g>
<g id="ID000012_00000085219791329218939690000000767673309808443788_">
	<text transform="matrix(1.0554 1.570580e-02 -1.657891e-02 0.9999 705.6233 361.0762)" class="st6 st0 st3">C</text>
</g>
<g id="ID000012_00000018929854818530500140000007889815002395393207_">
	<g>
		<text transform="matrix(1.0554 1.570580e-02 -1.657891e-02 0.9999 643.1465 301.9081)" class="st6 st0 st3">C</text>
	</g>
</g>
<g id="ID000012_00000029745042802059704390000007113993074781096862_">
	<g>
		<text transform="matrix(1.0554 1.570580e-02 -1.657891e-02 0.9999 594.2819 239.6816)" class="st8 st0 st3">G</text>
	</g>
</g>
<g id="ID000012_00000152979042698530035330000002350505923167650462_">
	<g>
		<text transform="matrix(1.0554 1.570580e-02 -1.657891e-02 0.9999 621.7527 239.958)" class="st8 st0 st3">G</text>
	</g>
</g>
<g id="ID000012_00000052827145387317122070000015829944236506089899_">
	<g>
		<text transform="matrix(1.0554 1.570580e-02 -1.657891e-02 0.9999 612.6153 267.786)" class="st8 st0 st3">G</text>
	</g>
</g>
<g id="ID000012_00000029742396377470908220000014279715211588011181_">
	<text transform="matrix(1.0554 1.570580e-02 -1.657891e-02 0.9999 529.409 128.3486)" class="st8 st0 st3">G</text>
</g>
<g id="ID000012_00000062898371421671042650000001156599652988202393_">
	<text transform="matrix(1.0554 1.570580e-02 -1.657891e-02 0.9999 471.4703 96.6578)" class="st7 st0 st3">C</text>
</g>
<g id="ID000012_00000065044777109177867980000007063487310691881352_">
	<g>
		<text transform="matrix(1.0554 1.570580e-02 -1.657891e-02 0.9999 404.4151 141.0298)" class="st6 st0 st3">C</text>
	</g>
</g>
<g id="ID000012_00000116233922853432100690000003938562858231471546_">
	<text transform="matrix(1.0554 1.570580e-02 -1.657891e-02 0.9999 281.0221 157.5426)" class="st5 st0 st3">C</text>
</g>
<g id="ID000012_00000173841880096742355070000007059545802931896254_">
	<g>
		<text transform="matrix(1.0549 3.140602e-02 -3.315192e-02 0.9995 244.0487 209.8596)" class="st2 st0 st9">C</text>
	</g>
</g>
<g id="ID000012_00000049208768575287795000000007000417532762292127_">
	<text transform="matrix(1.0554 1.570580e-02 -1.657891e-02 0.9999 261.226 233.4886)" class="st4 st0 st3">C</text>
</g>
<g id="ID000012_00000113349860978133468300000013190998738490788789_">
	<text transform="matrix(1.0554 1.570580e-02 -1.657891e-02 0.9999 103.7533 222.8913)" class="st5 st0 st3">C</text>
</g>
<g id="ID000012_00000030479301092880501580000005608303689038661504_">
	<text transform="matrix(1.0554 1.570580e-02 -1.657891e-02 0.9999 89.1009 233.7931)" class="st6 st0 st3">C</text>
</g>
<g id="ID000012_00000158720162487004363760000000152717937067424408_">
	<text transform="matrix(1.0554 1.570580e-02 -1.657891e-02 0.9999 66.7103 194.8443)" class="st6 st0 st3">C</text>
</g>
<g id="ID000012_00000110441063076991824700000014476246927554447531_">
	<text transform="matrix(1.0554 1.570547e-02 -1.657856e-02 0.9999 53.9182 217.5635)" class="st6 st0 st3">C</text>
</g>
<g id="ID000012_00000052783942435988806080000008503046350172343198_">
	<text transform="matrix(1.0554 1.570580e-02 -1.657891e-02 0.9999 113.0561 190.8786)" class="st5 st0 st3">C</text>
</g>
<g id="ID000012_00000136374476934590356600000003441700297082395067_">
	<text transform="matrix(1.0554 1.570580e-02 -1.657891e-02 0.9999 128.7415 183.173)" class="st5 st0 st3">G</text>
</g>
<g id="ID000012_00000054945261857599244170000015741986260933375655_">
	<text transform="matrix(1.0554 1.570580e-02 -1.657891e-02 0.9999 121.1533 215.6715)" class="st5 st0 st3">G</text>
</g>
<g id="ID000012_00000022557900942595710850000001700366433096540065_">
	<text transform="matrix(1.0554 1.570580e-02 -1.657891e-02 0.9999 139.3688 208.4522)" class="st5 st0 st3">C</text>
</g>
<g id="ID000018_00000104707097969389953970000009088350760481935533_">
	<text transform="matrix(1.0554 1.779512e-02 -1.878437e-02 0.9998 220.0453 253.7644)" class="st0 st10">5’</text>
</g>
<g id="ID000018_00000054229788772175650710000009096838164884966548_">
	<text transform="matrix(1.0554 1.779512e-02 -1.878437e-02 0.9998 275.3786 243.4509)" class="st0 st10">3’</text>
</g>
<line class="st11" x1="103.5" y1="199.6" x2="107" y2="210.3"/>
<line class="st11" x1="120.6" y1="192.3" x2="124.1" y2="203.1"/>
<line class="st11" x1="137.8" y1="185" x2="141.3" y2="195.8"/>
<line class="st11" x1="154.9" y1="177.9" x2="158.4" y2="188.6"/>
<line class="st11" x1="172" y1="170.6" x2="175.6" y2="181.4"/>
<line class="st11" x1="233.8" y1="146.2" x2="235.5" y2="153.9"/>
<line class="st11" x1="250.2" y1="143.4" x2="251.9" y2="151.1"/>
<line class="st11" x1="283" y1="137.8" x2="284.7" y2="145.4"/>
<line class="st11" x1="299.3" y1="135" x2="301" y2="142.7"/>
<line class="st11" x1="315.7" y1="132.2" x2="317.4" y2="139.8"/>
<line class="st11" x1="332.1" y1="129.4" x2="333.8" y2="137.1"/>
<line class="st11" x1="348.5" y1="126.6" x2="350.2" y2="134.2"/>
<line class="st11" x1="383.9" y1="118.4" x2="385.8" y2="126.1"/>
<line class="st11" x1="426.2" y1="112.8" x2="427.9" y2="120.4"/>
<line class="st11" x1="443.8" y1="108.8" x2="445.5" y2="116.5"/>
<line class="st11" x1="460.7" y1="105" x2="462.5" y2="112.6"/>
<line class="st11" x1="479" y1="101" x2="480.7" y2="108.7"/>
<line class="st11" x1="232.1" y1="198.7" x2="226" y2="206.2"/>
<line class="st11" x1="539.2" y1="145.2" x2="531.3" y2="150"/>
<line class="st11" x1="549.9" y1="160.4" x2="542.2" y2="165.4"/>
<line class="st11" x1="560.8" y1="175.9" x2="553" y2="180.8"/>
<line class="st11" x1="602.5" y1="215" x2="595.5" y2="220"/>
<line class="st11" x1="612.6" y1="226.3" x2="605.7" y2="231.3"/>
<line class="st11" x1="632.7" y1="255.2" x2="625.7" y2="260.2"/>
<line class="st11" x1="643.5" y1="267.8" x2="636.5" y2="272.7"/>
<line class="st11" x1="660.8" y1="287.5" x2="653.8" y2="292.4"/>
<line class="st11" x1="720.4" y1="344.9" x2="716.4" y2="350.9"/>
<line class="st11" x1="622.2" y1="241" x2="615.3" y2="245.9"/>
<line class="st11" x1="517.5" y1="114.4" x2="509.7" y2="119.2"/>
<line class="st11" x1="220.3" y1="188.1" x2="214.1" y2="195.6"/>
<line class="st11" x1="244.8" y1="210.7" x2="238.6" y2="218.3"/>
<text transform="matrix(1.0556 0 0 1 112.1899 243.4502)" class="st0 st12">10</text>
<text transform="matrix(1.0556 0 0 1 427.9699 78.6883)" class="st0 st12">40</text>
<text transform="matrix(1.0556 0 0 1 679.8047 272.7461)" class="st0 st12">60</text>
<line class="st13" x1="112.2" y1="223.4" x2="117" y2="230.6"/>
<line class="st13" x1="436.9" y1="81.9" x2="438.6" y2="89.6"/>
<line class="st13" x1="679.8" y1="273.8" x2="671.7" y2="278.3"/>
<text transform="matrix(1.0556 0 0 1 602.4521 304.1748)" class="st0 st12">80</text>
<text transform="matrix(1.0556 0 0 1 368.0121 168.8865)" class="st0 st12">100</text>
<line class="st13" x1="622.8" y1="295.6" x2="614.7" y2="300.1"/>
<line class="st13" x1="373.5" y1="150.9" x2="375.3" y2="158.5"/>
<ellipse class="st14" cx="702.2" cy="337.1" rx="2" ry="1.8"/>
<ellipse class="st14" cx="524.5" cy="131.9" rx="2" ry="1.8"/>
<ellipse class="st14" cx="267.4" cy="145.4" rx="2" ry="1.8"/>
</svg>
