<?xml version="1.0" encoding="utf-8"?>
<!-- Generator: Adobe Illustrator 25.2.0, SVG Export Plug-In . SVG Version: 6.00 Build 0)  -->
<svg version="1.1" id="图层_1" xmlns="http://www.w3.org/2000/svg" xmlns:xlink="http://www.w3.org/1999/xlink" x="0px" y="0px"
	 viewBox="0 0 800 400" style="enable-background:new 0 0 800 400;" xml:space="preserve">
<style type="text/css">
	.st0{fill:none;}
	.st1{font-family:'ArialMT';}
	.st2{font-size:20px;}
	.st3{font-size:16px;}
	.st4{fill:#8527B5;stroke:#8527B5;stroke-width:1;stroke-linecap:round;stroke-miterlimit:10.0001;}
	.st5{fill:#FFFFFF;}
	.st6{font-size:14px;}
	.st7{fill:#2EA103;}
	.st8{font-size:14.48px;}
	.st9{fill:none;stroke:#000000;}
	.st10{fill:#F17D07;}
	.st11{fill:none;stroke:#000000;stroke-width:0.5;}
	.st12{fill:#C2B617;}
	.st13{stroke:#000000;stroke-width:0.5;}
	.st14{fill:#CF3E7D;}
	.st15{stroke:#000000;}
	.st16{stroke:#000000;stroke-width:0.25;}
	.st17{fill:#FFFFFF;stroke:#000000;}
	.st18{fill:#084595;}
	.st19{fill:#B83233;}
</style>
<line class="st0" x1="794" y1="131.5" x2="792.5" y2="527.5"/>
<g id="ID000024">
	<text transform="matrix(1 4.380000e-03 -4.380000e-03 1 473.363 242.0464)" class="st1 st2">10</text>
</g>
<g id="ID000039">
	<text transform="matrix(1 4.380000e-03 -4.380000e-03 1 395.8396 240.9368)" class="st1 st3">40</text>
</g>
<g id="ID000055">
	<text transform="matrix(1 4.380000e-03 -4.380000e-03 1 477.1359 96.1955)" class="st1 st2">20</text>
</g>
<g id="ID000067">
	<text transform="matrix(1 4.380000e-03 -4.380000e-03 1 300.6118 225.4927)" class="st1 st2">30</text>
</g>
<text transform="matrix(1 4.380000e-03 -4.380000e-03 1 393.3841 373.8429)" class="st1 st2">5’</text>
<text transform="matrix(1 4.380000e-03 -4.380000e-03 1 456.9889 371.9993)" class="st1 st2">3’</text>
<g>
	
		<rect x="431.3" y="241.1" transform="matrix(4.384373e-03 -1 1 4.384373e-03 177.959 695.2499)" class="st4" width="13.7" height="34.4"/>
	<text transform="matrix(1.06 4.642844e-03 -4.380000e-03 1 422.1582 263.082)" class="st5 st1 st6">HBC</text>
</g>
<g id="ID000006_1_">
	<text transform="matrix(-1 -4.380000e-03 -4.380000e-03 1 407.866 285.2396)" class="st7 st1 st8">A</text>
</g>
<g id="ID000007_1_">
	<text transform="matrix(1 4.380000e-03 -4.380000e-03 1 411.6324 292.8177)" class="st7 st1 st8">C</text>
</g>
<g id="ID000008_1_">
	<text transform="matrix(1 4.380000e-03 -4.380000e-03 1 463.4469 284.1868)" class="st7 st1 st8">C</text>
</g>
<g id="ID000009_1_">
	<text transform="matrix(1 4.380000e-03 -4.380000e-03 1 444.1615 292.9598)" class="st7 st1 st8">G</text>
</g>
<g id="ID000015_1_">
	<line class="st9" x1="441.3" y1="344.7" x2="424.1" y2="344.6"/>
</g>
<g id="ID000016_1_">
	<line class="st9" x1="441.4" y1="330.5" x2="424.2" y2="330.4"/>
</g>
<g id="ID000017_1_">
	<line class="st9" x1="441.4" y1="316.3" x2="424.2" y2="316.2"/>
</g>
<g id="ID000018_1_">
	<line class="st9" x1="441.5" y1="302" x2="424.3" y2="301.9"/>
</g>
<g id="ID000020_1_">
	<text transform="matrix(-1 -4.380000e-03 -4.380000e-03 1 421.3738 278.6786)" class="st7 st1 st8">U</text>
</g>
<g id="ID000021_1_">
	<text transform="matrix(1 4.380000e-03 -4.380000e-03 1 401.0632 260.7003)" class="st10 st1 st8">G</text>
</g>
<g id="ID000023_3_">
	<line class="st11" x1="472.1" y1="236.4" x2="462.6" y2="236.4"/>
</g>
<g id="ID000029_1_">
	<g>
		<text transform="matrix(-1 -4.380000e-03 -4.380000e-03 1 361.868 248.2483)" class="st12 st1 st8">U</text>
	</g>
</g>
<g id="ID000030_1_">
	<g>
		<text transform="matrix(1 4.380000e-03 -4.380000e-03 1 368.6056 246.2986)" class="st12 st1 st8">C</text>
	</g>
</g>
<g id="ID000031_1_">
	<g>
		<text transform="matrix(1 4.380000e-03 -4.380000e-03 1 373.6982 232.0698)" class="st12 st1 st8">G</text>
	</g>
</g>
<g id="ID000032_1_">
	<g>
		<text transform="matrix(-1 -4.380000e-03 -4.380000e-03 1 390.9813 217.9543)" class="st12 st1 st8">U</text>
	</g>
</g>
<g id="ID000038_1_">
	<line class="st11" x1="413.4" y1="236" x2="422.9" y2="236"/>
</g>
<g id="ID000040_1_">
	<text transform="matrix(1 4.380000e-03 -4.380000e-03 1 464.8811 268.0995)" class="st7 st1 st8">G</text>
</g>
<g id="ID000041_1_">
	<text transform="matrix(-1 -4.380000e-03 -4.380000e-03 1 458.4246 278.8407)" class="st7 st1 st8">U</text>
</g>
<g id="ID000042_1_">
	<polygon class="st13" points="439.4,235.2 439.4,235.4 439.4,235.6 439.5,235.7 439.5,235.9 439.6,236.1 439.6,236.3 439.7,236.4 
		439.9,236.6 439.9,236.7 440,236.9 440.2,237 440.4,237.1 440.4,237.2 440.6,237.4 440.7,237.4 440.9,237.5 441,237.6 441.2,237.7 
		441.4,237.8 441.5,237.8 441.7,237.8 441.9,237.9 442.1,237.9 442.4,237.9 442.4,237.9 442.6,237.8 442.9,237.8 443,237.8 
		443.1,237.7 443.4,237.7 443.5,237.6 443.6,237.5 443.9,237.4 443.9,237.3 444.1,237.2 444.2,237.1 444.4,236.9 444.5,236.8 
		444.6,236.6 444.7,236.5 444.9,236.3 444.9,236.2 444.9,236 445,235.8 445,235.7 445,235.5 445.1,235.3 445.1,235.1 445.1,234.9 
		445.1,234.8 445,234.6 445,234.4 445,234.2 444.9,234.1 444.9,233.9 444.9,233.7 444.7,233.6 444.6,233.4 444.5,233.3 444.4,233.1 
		444.2,233 444.1,232.9 443.9,232.8 443.9,232.7 443.6,232.6 443.5,232.5 443.4,232.4 443.1,232.3 443,232.3 442.9,232.2 
		442.6,232.2 442.4,232.2 442.4,232.2 442.1,232.2 441.9,232.2 441.7,232.2 441.5,232.3 441.4,232.3 441.2,232.4 441,232.4 
		440.9,232.5 440.7,232.6 440.6,232.7 440.4,232.8 440.4,232.9 440.2,233.1 440,233.2 439.9,233.3 439.9,233.5 439.7,233.6 
		439.6,233.8 439.6,234 439.5,234.1 439.5,234.3 439.4,234.5 439.4,234.7 439.4,234.8 439.4,235 	"/>
</g>
<g id="ID000043_1_">
	<line class="st9" x1="434.2" y1="218.9" x2="451.4" y2="218.9"/>
</g>
<g id="ID000044_1_">
	<line class="st9" x1="434.2" y1="204.6" x2="451.4" y2="204.6"/>
</g>
<g id="ID000045_1_">
	<line class="st9" x1="434.3" y1="190.4" x2="451.5" y2="190.4"/>
</g>
<g id="ID000046_1_">
	<line class="st9" x1="434.3" y1="176.1" x2="451.5" y2="176.1"/>
</g>
<g id="ID000054_1_">
	<line class="st11" x1="476.6" y1="90.7" x2="467.1" y2="90.7"/>
</g>
<g id="ID000048_2_">
	<text transform="matrix(1 4.380000e-03 -4.380000e-03 1 451.5783 168.2604)" class="st14 st1 st8">G</text>
</g>
<g id="ID000049_2_">
	<text transform="matrix(1 4.380000e-03 -4.380000e-03 1 452.0412 154.0034)" class="st14 st1 st8">C</text>
</g>
<g id="ID000050_2_">
	<text transform="matrix(1 4.380000e-03 -4.380000e-03 1 451.7033 139.7508)" class="st14 st1 st8">G</text>
</g>
<g id="ID000051_2_">
	<text transform="matrix(1 4.380000e-03 -4.380000e-03 1 452.1664 125.4938)" class="st14 st1 st8">C</text>
</g>
<g id="ID000052_2_">
	<text transform="matrix(1 4.380000e-03 -4.380000e-03 1 452.2287 111.2439)" class="st14 st1 st8">C</text>
</g>
<g id="ID000053_2_">
	<text transform="matrix(-1 -4.380000e-03 -4.380000e-03 1 462.7918 97.0985)" class="st14 st1 st8">U</text>
</g>
<g id="ID000056_2_">
	<text transform="matrix(-1 -4.380000e-03 -4.380000e-03 1 452.1824 78.7312)" class="st14 st1 st8">U</text>
</g>
<g id="ID000057_2_">
	<text transform="matrix(1 4.380000e-03 -4.380000e-03 1 422.8639 82.6037)" class="st14 st1 st8">C</text>
</g>
<g id="ID000058_2_">
	<text transform="matrix(1 4.380000e-03 -4.380000e-03 1 422.4019 96.8528)" class="st14 st1 st8">G</text>
</g>
<g id="ID000059_2_">
	<text transform="matrix(1 4.380000e-03 -4.380000e-03 1 422.3394 111.1125)" class="st14 st1 st8">G</text>
</g>
<g id="ID000060_2_">
	<text transform="matrix(1 4.380000e-03 -4.380000e-03 1 422.2769 125.3625)" class="st14 st1 st8">G</text>
</g>
<g id="ID000061_2_">
	<text transform="matrix(1 4.380000e-03 -4.380000e-03 1 422.6139 139.6228)" class="st14 st1 st8">C</text>
</g>
<g id="ID000062_2_">
	<text transform="matrix(1 4.380000e-03 -4.380000e-03 1 422.1519 153.872)" class="st14 st1 st8">G</text>
</g>
<g id="ID000063_2_">
	<text transform="matrix(1 4.380000e-03 -4.380000e-03 1 422.4889 168.1344)" class="st14 st1 st8">C</text>
</g>
<g id="ID000064_1_">
	<g>
		<text transform="matrix(1 4.380000e-03 -4.380000e-03 1 342.2718 210.5429)" class="st12 st1 st8">C</text>
	</g>
</g>
<g id="ID000065_1_">
	<g>
		<text transform="matrix(-1 -4.380000e-03 -4.380000e-03 1 347.7899 224.8961)" class="st12 st1 st8">A</text>
	</g>
</g>
<g id="ID000066_1_">
	<line class="st11" x1="324" y1="218.4" x2="333.5" y2="218.4"/>
</g>
<g id="ID000068_1_">
	<g>
		<text transform="matrix(-1 -4.380000e-03 -4.380000e-03 1 347.7274 239.146)" class="st12 st1 st8">A</text>
	</g>
</g>
<g id="ID000069_1_">
	<line class="st9" x1="434.4" y1="161.9" x2="451.6" y2="161.9"/>
</g>
<g id="ID000070_1_">
	<line class="st9" x1="434.5" y1="147.6" x2="451.7" y2="147.6"/>
</g>
<g id="ID000071_1_">
	<line class="st9" x1="434.5" y1="133.3" x2="451.7" y2="133.3"/>
</g>
<g id="ID000072_1_">
	<line class="st9" x1="434.6" y1="119.1" x2="451.8" y2="119.1"/>
</g>
<g id="ID000073_1_">
	<line class="st9" x1="434.7" y1="104.8" x2="451.9" y2="104.8"/>
</g>
<g id="ID000075_1_">
	<polyline class="st9" points="423,176 385.8,175.8 385.7,205.7 	"/>
</g>
<g id="ID000076_1_">
	<polygon class="st13" points="384.1,193.3 385,192.2 385.3,191.2 385.3,190.2 385.6,188.1 386.2,190.3 386.2,191.4 386.5,192.4 
		387.2,193.5 	"/>
</g>
<g id="ID000077_1_">
	<polyline class="st9" points="346.5,198.5 346.7,161.5 423.1,161.8 	"/>
</g>
<g id="ID000078_1_">
	<polygon class="st13" points="348,177.8 347.4,178.8 347,179.7 347,180.7 346.6,182.6 346.2,180.7 346.2,179.7 345.9,178.8 
		345.1,177.8 	"/>
</g>
<g id="ID000079_1_">
	<line class="st9" x1="451.6" y1="235.4" x2="412.2" y2="252.2"/>
</g>
<g id="ID000080_1_">
	<polygon class="st15" points="430.9,242.9 431.7,243.3 432.2,243.2 432.8,243.1 433.9,242.9 433,243.5 432.5,243.8 432.1,244.2 
		431.7,244.9 	"/>
</g>
<g id="ID000081_1_">
	<line class="st9" x1="466.4" y1="258.6" x2="433.1" y2="236.3"/>
</g>
<g id="ID000082_1_">
	<polygon class="st16" points="447.9,244.6 448.3,245.7 449.2,246.6 450.1,247.1 452,248.4 449.5,248 448.3,247.5 447,247.1 
		445.2,247.3 	"/>
</g>
<g id="ID000083_1_">
	<line class="st9" x1="443.8" y1="286.6" x2="423.2" y2="286.5"/>
</g>
<g id="ID000084_1_">
	<polygon class="st13" points="436.4,286.4 436.3,286.1 436.3,286 436.3,285.9 436.2,285.6 436.2,285.5 436.1,285.4 436.1,285.1 
		435.9,285 435.8,284.9 435.7,284.8 435.6,284.6 435.4,284.5 435.3,284.4 435.2,284.3 435.1,284.1 434.9,284.1 434.7,284 
		434.6,283.9 434.4,283.9 434.2,283.8 434.1,283.8 433.8,283.8 433.6,283.6 433.6,283.6 433.3,283.6 433.1,283.8 432.9,283.8 
		432.7,283.8 432.6,283.9 432.4,284 432.2,284 432.1,284.1 431.9,284.1 431.8,284.3 431.6,284.4 431.6,284.6 431.4,284.6 
		431.3,284.7 431.2,284.9 431.1,285 431.1,285.2 430.9,285.3 430.8,285.5 430.8,285.7 430.7,285.9 430.7,286 430.7,286.2 
		430.7,286.4 430.7,286.5 430.7,286.8 430.7,286.9 430.7,287 430.8,287.3 430.8,287.5 430.9,287.5 431,287.8 431,287.9 431.1,288 
		431.2,288.2 431.3,288.5 431.5,288.6 431.5,288.6 431.7,288.9 431.8,289 432,289.1 432.1,289.1 432.3,289.1 432.5,289.3 
		432.6,289.3 432.8,289.4 433,289.4 433.2,289.4 433.5,289.4 433.5,289.4 433.7,289.4 434,289.4 434.1,289.4 434.3,289.3 
		434.5,289.1 434.6,289.1 434.8,289.1 435,289 435.1,288.9 435.2,288.8 435.3,288.6 435.5,288.6 435.6,288.4 435.7,288.3 
		435.8,288.1 436,288 436.1,287.8 436.2,287.6 436.2,287.5 436.3,287.3 436.3,287.1 436.3,286.9 436.4,286.8 436.4,286.6 	"/>
</g>
<g id="ID000085_1_">
	<line class="st9" x1="445.7" y1="272.3" x2="422" y2="272.2"/>
</g>
<g id="ID000086_1_">
	<polygon class="st13" points="436.4,272.1 436.3,272 436.3,271.8 436.3,271.6 436.2,271.4 436.2,271.3 436.1,271.1 436.1,270.9 
		435.9,270.8 435.8,270.6 435.7,270.5 435.6,270.4 435.4,270.2 435.3,270.1 435.2,270 435.1,269.9 434.9,269.8 434.7,269.7 
		434.6,269.7 434.4,269.6 434.2,269.6 434.1,269.5 433.8,269.5 433.6,269.5 433.6,269.5 433.3,269.5 433.1,269.5 432.9,269.5 
		432.7,269.6 432.6,269.6 432.4,269.7 432.2,269.8 432.1,269.9 431.9,270 431.8,270.1 431.6,270.2 431.6,270.3 431.4,270.4 
		431.3,270.5 431.2,270.6 431.1,270.8 431.1,270.9 430.9,271.1 430.8,271.3 430.8,271.4 430.7,271.6 430.7,271.8 430.7,272 
		430.7,272.1 430.7,272.3 430.7,272.5 430.7,272.7 430.7,272.9 430.8,273 430.8,273.2 430.9,273.4 431.1,273.5 431.1,273.7 
		431.2,273.8 431.3,274 431.4,274.2 431.6,274.4 431.6,274.5 431.8,274.6 431.9,274.7 432.1,274.8 432.2,274.9 432.4,275 432.6,275 
		432.7,275.1 432.9,275.1 433.1,275.2 433.3,275.2 433.6,275.2 433.6,275.2 433.8,275.2 434.1,275.1 434.2,275.1 434.4,275.1 
		434.6,275 434.7,274.9 434.9,274.8 435.1,274.8 435.2,274.7 435.3,274.5 435.4,274.4 435.6,274.3 435.7,274.2 435.8,274 
		435.9,273.9 436.1,273.7 436.1,273.6 436.2,273.4 436.2,273.2 436.3,273 436.3,272.9 436.3,272.7 436.4,272.5 436.4,272.3 	"/>
</g>
<g id="ID000093_1_">
	<path class="st9" d="M380.3,212.3l-23.7,26.1L380.3,212.3z"/>
</g>
<g id="ID000094_1_">
	<polygon class="st17" points="365.2,229.2 365.4,229.3 365.7,229.3 365.7,229.4 365.9,229.5 366.1,229.6 366.2,229.6 366.4,229.7 
		366.6,229.7 366.7,229.8 367,229.8 367.1,229.8 367.3,229.8 367.5,229.8 367.7,229.7 367.8,229.6 368,229.6 368.1,229.5 
		368.3,229.5 368.4,229.4 368.6,229.3 368.7,229.2 368.9,229 369.1,228.8 369.1,228.8 369.3,228.7 369.5,228.5 369.5,228.3 
		369.6,228.2 369.7,228 369.7,227.9 369.8,227.7 369.8,227.6 369.9,227.4 369.8,227.1 369.8,227 369.9,226.9 369.9,226.6 
		369.8,226.5 369.8,226.3 369.7,226.1 369.7,226 369.6,225.8 369.5,225.6 369.5,225.3 369.5,225.2 369.4,225.1 369.2,224.9 
		368.9,224.9 368.8,224.7 368.8,224.7 368.6,224.6 368.4,224.4 368.2,224.3 368.1,224.3 368,224.1 367.7,224.2 367.5,224.1 
		367.4,224.1 367.3,224.1 367,224.1 366.9,224.1 366.7,224.1 366.6,224.1 366.3,224.2 366.1,224.2 366.1,224.2 365.8,224.3 
		365.7,224.5 365.5,224.6 365.3,224.6 365.2,224.7 365,224.8 364.9,225 364.9,225.1 364.6,225.3 364.6,225.4 364.6,225.5 
		364.4,225.7 364.4,225.9 364.3,226 364.2,226.2 364.1,226.4 364.2,226.6 364.3,226.7 364.2,226.9 364.2,227.1 364.2,227.3 
		364.2,227.5 364.4,227.6 364.3,227.9 364.4,228 364.4,228.2 364.6,228.4 364.6,228.5 364.7,228.6 364.9,228.8 365,228.9 
		365.1,229.1 	"/>
</g>
<g id="ID000095_1_">
	<polygon class="st17" points="371.8,217.4 368,221.6 372.2,225.5 376,221.2 	"/>
</g>
<g id="ID000099_1_">
	<line class="st9" x1="422.8" y1="219.6" x2="384.1" y2="224.9"/>
</g>
<g id="ID000100_1_">
	<polygon class="st17" points="397,223.3 397,223.5 397.1,223.7 397.1,223.9 397.3,224 397.3,224.2 397.4,224.3 397.5,224.5 
		397.6,224.6 397.8,224.8 397.8,224.9 398,225 398.1,225.1 398.3,225.2 398.4,225.3 398.6,225.4 398.8,225.4 398.9,225.5 
		399.1,225.5 399.3,225.6 399.5,225.6 399.8,225.6 399.8,225.6 400,225.6 400.3,225.6 400.4,225.5 400.5,225.5 400.8,225.4 
		400.9,225.4 401.1,225.3 401.3,225.2 401.4,225.1 401.5,225 401.6,224.9 401.8,224.8 401.9,224.6 402,224.5 402.1,224.3 
		402.3,224.2 402.3,224 402.4,223.9 402.4,223.7 402.5,223.5 402.5,223.3 402.6,223.2 402.6,223 402.6,222.8 402.6,222.6 
		402.6,222.4 402.6,222.3 402.5,222.1 402.5,221.9 402.4,221.7 402.3,221.6 402.3,221.4 402.3,221.3 402.1,221.1 402,221 
		401.8,220.8 401.8,220.7 401.6,220.6 401.4,220.5 401.3,220.4 401.1,220.3 401,220.2 400.8,220.1 400.6,220.1 400.5,220 400.3,220 
		400.1,219.9 399.9,219.9 399.8,219.9 399.6,219.9 399.4,219.9 399.3,220 399,220 398.9,220.1 398.8,220.1 398.5,220.2 398.4,220.3 
		398.3,220.4 398.1,220.5 397.9,220.6 397.8,220.7 397.8,220.8 397.5,221 397.4,221.1 397.3,221.3 397.3,221.4 397.3,221.6 
		397.1,221.7 397,221.9 397,222.1 396.9,222.3 396.9,222.4 396.9,222.6 396.9,222.8 396.9,223 396.9,223.2 	"/>
</g>
<g id="ID000101_1_">
	<polygon class="st17" points="409.6,218.6 403.9,219.3 404.8,224.9 410.3,224.2 	"/>
</g>
<g id="ID000102_1_">
	<line class="st9" x1="434.7" y1="90.6" x2="451.9" y2="90.6"/>
</g>
<g id="ID000103_1_">
	<polygon class="st17" points="445.1,87.4 445.1,93.8 450.6,90.6 	"/>
</g>
<g id="ID000104_1_">
	<polygon class="st17" points="436.7,90.8 436.7,90.9 436.7,91.1 436.9,91.3 436.9,91.5 436.9,91.6 436.9,91.8 437,92 437.1,92.1 
		437.2,92.3 437.4,92.4 437.4,92.5 437.6,92.7 437.7,92.8 437.9,92.9 438,93 438.2,93.1 438.4,93.2 438.5,93.2 438.7,93.3 
		438.9,93.3 439,93.4 439.2,93.4 439.4,93.4 439.6,93.4 439.7,93.4 439.9,93.4 440.1,93.4 440.4,93.3 440.4,93.3 440.6,93.2 
		440.9,93.1 440.9,93 441.1,92.9 441.2,92.8 441.4,92.7 441.5,92.6 441.6,92.5 441.9,92.3 441.9,92.2 442,92 442,91.9 442.1,91.7 
		442.2,91.6 442.2,91.4 442.4,91.2 442.4,91 442.4,90.8 442.4,90.7 442.4,90.5 442.4,90.3 442.4,90.1 442.4,89.9 442.2,89.8 
		442.2,89.6 442.1,89.4 442,89.3 442,89.1 441.9,89 441.9,88.8 441.6,88.7 441.5,88.5 441.4,88.4 441.2,88.3 441.1,88.2 440.9,88.1 
		440.9,88 440.6,87.9 440.4,87.9 440.4,87.8 440.1,87.8 439.9,87.8 439.7,87.7 439.6,87.7 439.4,87.7 439.2,87.7 439,87.8 
		438.9,87.8 438.7,87.9 438.5,87.9 438.4,88 438.2,88.1 438,88.2 437.9,88.3 437.7,88.4 437.6,88.5 437.4,88.6 437.4,88.7 
		437.2,88.9 437.1,89 437,89.2 436.9,89.4 436.9,89.5 436.9,89.7 436.9,89.9 436.7,90 436.7,90.2 436.7,90.4 436.7,90.6 	"/>
</g>
<g id="ID000108_1_">
	<line class="st9" x1="380" y1="242.3" x2="401.7" y2="252"/>
</g>
<g id="ID000109_1_">
	<polygon class="st17" points="388.2,246.2 388.2,246.4 388.2,246.5 388,246.7 388,246.9 388,247.1 388,247.3 388,247.4 388,247.6 
		388.2,247.8 388.2,248 388.2,248.1 388.2,248.3 388.3,248.5 388.4,248.6 388.5,248.8 388.7,248.9 388.7,249.1 388.8,249.2 
		389,249.3 389.2,249.4 389.2,249.5 389.4,249.6 389.7,249.7 389.7,249.8 389.9,249.9 390.2,249.9 390.2,250 390.4,250 390.7,250 
		390.8,250 391,250 391.2,250 391.3,250 391.5,250 391.7,249.9 391.8,249.9 392,249.8 392.2,249.7 392.3,249.6 392.5,249.5 
		392.7,249.4 392.8,249.3 392.9,249.2 393,249 393.2,248.9 393.2,248.7 393.3,248.6 393.4,248.4 393.5,248.3 393.5,248.1 
		393.7,247.9 393.7,247.7 393.7,247.6 393.7,247.4 393.7,247.2 393.7,247 393.7,246.8 393.7,246.7 393.7,246.5 393.7,246.3 
		393.5,246.1 393.4,246 393.3,245.8 393.2,245.7 393.2,245.5 393,245.4 392.9,245.2 392.8,245.1 392.7,245 392.5,244.9 392.4,244.8 
		392.2,244.7 392,244.6 391.9,244.5 391.7,244.5 391.5,244.4 391.4,244.4 391.2,244.4 391,244.3 390.8,244.3 390.7,244.3 
		390.5,244.4 390.3,244.4 390.2,244.4 389.9,244.5 389.8,244.5 389.7,244.6 389.4,244.7 389.3,244.8 389.2,244.9 389,245 
		388.9,245.1 388.7,245.3 388.7,245.4 388.5,245.6 388.4,245.7 388.3,245.9 388.2,246 	"/>
</g>
<g id="ID000022_4_">
	<text transform="matrix(1 4.380000e-03 -4.380000e-03 1 451.2596 240.9611)" class="st18 st1 st8">G</text>
</g>
<g id="ID000025_2_">
	<text transform="matrix(1 4.380000e-03 -4.380000e-03 1 451.7287 225.2822)" class="st18 st1 st8">C</text>
</g>
<g id="ID000026_2_">
	<text transform="matrix(1 4.380000e-03 -4.380000e-03 1 451.3908 211.0198)" class="st18 st1 st8">G</text>
</g>
<g id="ID000027_2_">
	<text transform="matrix(1 4.380000e-03 -4.380000e-03 1 451.8537 196.7726)" class="st18 st1 st8">C</text>
</g>
<g id="ID000028_2_">
	<text transform="matrix(-1 -4.380000e-03 -4.380000e-03 1 462.4168 182.6272)" class="st18 st1 st8">U</text>
</g>
<g id="ID000033_2_">
	<text transform="matrix(1 4.380000e-03 -4.380000e-03 1 422.8268 182.385)" class="st18 st1 st8">A</text>
</g>
<g id="ID000034_2_">
	<text transform="matrix(1 4.380000e-03 -4.380000e-03 1 421.9644 196.6413)" class="st18 st1 st8">G</text>
</g>
<g id="ID000035_2_">
	<text transform="matrix(1 4.380000e-03 -4.380000e-03 1 422.3014 210.8939)" class="st18 st1 st8">C</text>
</g>
<g id="ID000036_2_">
	<text transform="matrix(1 4.380000e-03 -4.380000e-03 1 421.8394 225.1508)" class="st18 st1 st8">G</text>
</g>
<g id="ID000037_2_">
	<text transform="matrix(-1 -4.380000e-03 -4.380000e-03 1 434.6004 240.9568)" class="st18 st1 st8">U</text>
</g>
<text transform="matrix(1 3.180000e-03 -3.180000e-03 1 413.7242 351.1038)" class="st19 st1 st8">G</text>
<text transform="matrix(1 4.380000e-03 -4.380000e-03 1 413.2591 336.7738)" class="st19 st1 st8">C</text>
<g id="ID000004_3_">
	<text transform="matrix(1 1.850000e-03 -1.850000e-03 1 412.8512 322.6142)" class="st19 st1 st8">G</text>
</g>
<g id="ID000005_3_">
	<text transform="matrix(1 1.850000e-03 -1.850000e-03 1 413.2867 308.3533)" class="st19 st1 st8">C</text>
</g>
<g id="ID000010_3_">
	<text transform="matrix(1 4.380000e-03 -4.380000e-03 1 441.4638 308.3884)" class="st19 st1 st8">G</text>
</g>
<g id="ID000011_3_">
	<text transform="matrix(1 4.380000e-03 -4.380000e-03 1 441.8017 322.6488)" class="st19 st1 st8">C</text>
</g>
<g id="ID000012_3_">
	<text transform="matrix(1 4.380000e-03 -4.380000e-03 1 441.339 336.898)" class="st19 st1 st8">G</text>
</g>
<g id="ID000013_3_">
	<text transform="matrix(1 4.380000e-03 -4.380000e-03 1 441.6767 351.1584)" class="st19 st1 st8">C</text>
</g>
<g id="ID000014_3_">
	<text transform="matrix(1 4.380000e-03 -4.380000e-03 1 441.6142 365.4083)" class="st19 st1 st8">C</text>
</g>
<text transform="matrix(0.9977 6.823000e-02 -6.823000e-02 0.9977 413.079 364.9466)" class="st19 st1 st8">G</text>
<g id="ID000015-2_1_">
	<line class="st9" x1="442" y1="359.5" x2="424.9" y2="359.4"/>
</g>
<g id="ID000022_2_">
	<line class="st9" x1="413.9" y1="297.2" x2="395.2" y2="287"/>
</g>
<g id="ID000023_2_">
	<polygon class="st15" points="402.5,293.4 404.5,289.6 400.2,289.7 	"/>
</g>
<g id="ID000024_2_">
	<polygon class="st15" points="409.3,292.5 406,290.7 404.2,294 407.5,295.9 	"/>
</g>
<line class="st9" x1="415.6" y1="293.6" x2="413.5" y2="297.5"/>
<line class="st9" x1="397.3" y1="284.1" x2="395.2" y2="287.6"/>
<g id="ID000019_1_">
	<line class="st9" x1="449.3" y1="276.1" x2="406.8" y2="282.9"/>
</g>
<g id="ID000020_2_">
	<polygon class="st17" points="421.3,280.5 421.4,280.7 421.4,281 421.4,281.1 421.6,281.2 421.7,281.4 421.7,281.5 421.9,281.7 
		422,281.8 422.1,282 422.3,282.1 422.4,282.2 422.6,282.2 422.7,282.4 422.9,282.5 423,282.5 423.1,282.7 423.3,282.7 423.6,282.7 
		423.7,282.8 423.9,282.8 424,282.8 424.3,282.8 424.4,282.8 424.6,282.7 424.7,282.7 425,282.7 425.1,282.5 425.3,282.5 
		425.4,282.4 425.6,282.4 425.7,282.2 425.9,282.1 426,282 426.1,282 426.3,281.8 426.4,281.7 426.6,281.5 426.6,281.4 426.7,281.1 
		426.7,281 426.8,280.8 426.8,280.7 426.8,280.5 427,280.2 427,280.1 427,280 427,279.8 427,279.5 426.8,279.4 426.8,279.2 
		426.8,279.1 426.7,278.8 426.7,278.7 426.6,278.5 426.6,278.4 426.4,278.2 426.3,278.1 426.1,278 426,277.8 425.9,277.7 
		425.7,277.7 425.6,277.5 425.4,277.4 425.3,277.4 425.1,277.2 425,277.2 424.7,277.1 424.6,277.1 424.4,277.1 424.3,277.1 
		424,277.1 423.9,277.1 423.7,277.1 423.6,277.1 423.3,277.2 423.1,277.2 423,277.2 422.9,277.4 422.7,277.5 422.6,277.5 
		422.4,277.7 422.3,277.8 422.1,278 422,278.1 421.9,278.2 421.7,278.4 421.7,278.5 421.6,278.7 421.4,278.8 421.4,279 421.4,279.1 
		421.3,279.2 421.3,279.5 421.3,279.7 421.3,279.8 421.3,280.1 421.3,280.2 421.3,280.4 	"/>
</g>
<g id="ID000021_2_">
	<polygon class="st17" points="434,275.8 428.6,276.6 429.5,282 434.9,281.2 	"/>
</g>
<g>
	<g id="ID000027">
		<line class="st9" x1="458.7" y1="271.9" x2="463.6" y2="274.6"/>
	</g>
	<g id="ID000028">
		<polygon class="st15" points="457.2,271 459.2,274.4 461.1,271 		"/>
	</g>
	<g id="ID000029">
		<polygon class="st15" points="465.4,273.7 462.4,272 460.7,275 463.7,276.7 		"/>
	</g>
</g>
<g id="ID000093_2_">
	<line class="st9" x1="422.2" y1="204.7" x2="390.7" y2="209.7"/>
</g>
<g id="ID000094_2_">
	<polygon class="st17" points="399.9,208.4 400,208.6 400.2,208.8 400.2,208.9 400.2,209.1 400.3,209.3 400.4,209.4 400.5,209.6 
		400.7,209.7 400.7,209.8 400.9,210 401,210.1 401.2,210.2 401.3,210.3 401.5,210.4 401.7,210.4 401.8,210.5 402,210.5 402.2,210.6 
		402.3,210.6 402.5,210.6 402.7,210.6 402.9,210.6 403.2,210.6 403.2,210.6 403.4,210.6 403.7,210.5 403.8,210.4 403.9,210.4 
		404.2,210.3 404.2,210.2 404.4,210.1 404.5,210 404.7,209.9 404.8,209.7 404.9,209.6 405,209.5 405.2,209.3 405.2,209.2 405.3,209 
		405.4,208.8 405.4,208.7 405.5,208.5 405.5,208.3 405.7,208.1 405.7,208 405.7,207.8 405.7,207.6 405.5,207.4 405.5,207.2 
		405.5,207.1 405.4,206.9 405.4,206.7 405.3,206.5 405.2,206.4 405.2,206.2 405,206.1 404.9,205.9 404.8,205.8 404.7,205.7 
		404.5,205.6 404.4,205.5 404.2,205.4 404.2,205.3 403.9,205.2 403.7,205.1 403.7,205.1 403.4,205 403.2,205 403,205 402.8,204.9 
		402.7,204.9 402.5,204.9 402.3,205 402.2,205 401.9,205 401.8,205.1 401.7,205.2 401.4,205.2 401.3,205.3 401.2,205.4 401,205.5 
		400.8,205.6 400.7,205.8 400.7,205.9 400.5,206 400.4,206.2 400.3,206.3 400.2,206.5 400.2,206.7 400,206.8 400,207 399.9,207.2 
		399.9,207.4 399.9,207.5 399.9,207.7 399.9,207.9 399.9,208.1 399.9,208.3 	"/>
</g>
<g id="ID000095_2_">
	<polygon class="st17" points="412.5,203.3 406.8,204.2 407.7,209.9 413.3,208.9 	"/>
</g>
<text transform="matrix(1 0 0 1 373.0456 39.4788)" class="st1 st2">Pepper aptamer</text>
</svg>
