<svg id="图层_1" data-name="图层 1" xmlns="http://www.w3.org/2000/svg" viewBox="0 0 400 400"><defs><style>.cls-1,.cls-2,.cls-4,.cls-5,.cls-6,.cls-7,.cls-9{isolation:isolate;}.cls-1,.cls-2,.cls-4,.cls-5,.cls-6,.cls-7{font-size:10.91px;}.cls-1,.cls-2,.cls-7{fill:#ff7f0e;}.cls-1,.cls-10,.cls-2,.cls-4,.cls-5,.cls-6,.cls-7,.cls-9{font-family:ArialMT, Arial;}.cls-2,.cls-6{letter-spacing:-0.06em;}.cls-3{fill:none;}.cls-3,.cls-8{stroke:#000;stroke-width:0.5px;}.cls-5,.cls-6{fill:#e377c2;}.cls-7{letter-spacing:-0.06em;}.cls-9{font-size:20px;}.cls-10{font-size:13px;}.cls-11{letter-spacing:-0.04em;}</style></defs><title>R20_43_aptamer_2D1</title><g id="topgroup"><g id="ID000000"><g id="ID000002"><text class="cls-1" transform="translate(90.13 270.16)">G</text></g><g id="ID000003"><text class="cls-1" transform="translate(103.4 270.16)">G</text></g><g id="ID000004"><text class="cls-1" transform="translate(114.02 270.16)">G</text></g><g id="ID000005"><text class="cls-2" transform="translate(114.63 280.78)">A</text></g><g id="ID000006"><text class="cls-1" transform="translate(114.02 291.4)">G</text></g><g id="ID000007"><text class="cls-1" transform="translate(114.33 302.02)">C</text></g><g id="ID000008"><text class="cls-1" transform="translate(101.05 309.98)">U</text></g><g id="ID000009"><text class="cls-1" transform="translate(95.74 323.25)">C</text></g><g id="ID000010"><text class="cls-2" transform="translate(98.7 333.87)">A</text></g><g id="ID000011"><text class="cls-1" transform="translate(98.09 347.15)">G</text></g><g id="ID000012"><line class="cls-3" x1="95.26" y1="342.37" x2="88.18" y2="342.37"/></g><g id="ID000013"><text class="cls-4" transform="translate(76.04 347.15)">10</text></g><g id="ID000014"><text class="cls-2" transform="translate(111.97 352.46)">A</text></g><g id="ID000015"><text class="cls-2" transform="translate(125.25 352.46)">A</text></g><g id="ID000016"><text class="cls-1" transform="translate(138.22 352.46)">U</text></g><g id="ID000017"><text class="cls-2" transform="translate(151.79 344.49)">A</text></g><g id="ID000018"><text class="cls-2" transform="translate(154.45 331.22)">A</text></g><g id="ID000019"><text class="cls-2" transform="translate(154.45 317.94)">A</text></g><g id="ID000020"><text class="cls-1" transform="translate(143.53 312.63)">C</text></g><g id="ID000021"><text class="cls-1" transform="translate(135.26 302.02)">G</text></g><g id="ID000022"><text class="cls-1" transform="translate(135.56 291.4)">C</text></g><g id="ID000023"><text class="cls-1" transform="translate(135.56 280.78)">U</text></g><g id="ID000024"><line class="cls-3" x1="144.51" y1="281.01" x2="149.52" y2="286.01"/></g><g id="ID000025"><text class="cls-4" transform="translate(149.52 298.54)">20</text></g><g id="ID000026"><text class="cls-1" transform="translate(135.56 270.16)">C</text></g><g id="ID000027"><text class="cls-2" transform="translate(149.14 270.16)">A</text></g><g id="ID000028"><line class="cls-3" x1="122.51" y1="265.38" x2="135.26" y2="265.38"/></g><g id="ID000029"><line class="cls-3" x1="122.51" y1="276" x2="135.26" y2="276"/></g><g id="ID000030"><line class="cls-3" x1="122.51" y1="286.62" x2="135.26" y2="286.62"/></g><g id="ID000031"><line class="cls-3" x1="122.51" y1="297.24" x2="135.26" y2="297.24"/></g><g id="ID000033"><text class="cls-2" transform="translate(162.41 270.16)">A</text></g><g id="ID000034"><text class="cls-5" transform="translate(162.11 259.54)">U</text></g><g id="ID000035"><text class="cls-5" transform="translate(161.81 248.92)">G</text></g><g id="ID000036"><text class="cls-5" transform="translate(162.11 238.3)">U</text></g><g id="ID000037"><text class="cls-6" transform="translate(162.41 227.68)">A</text></g><g id="ID000038"><text class="cls-5" transform="translate(151.19 217.06)">G</text></g><g id="ID000039"><text class="cls-6" transform="translate(191.61 217.06)">A</text></g><g id="ID000040"><text class="cls-5" transform="translate(183.35 227.68)">U</text></g><g id="ID000041"><text class="cls-1" transform="translate(183.05 238.3)">G</text></g><g id="ID000042"><text class="cls-1" transform="translate(183.35 248.92)">C</text></g><g id="ID000043"><text class="cls-2" transform="translate(183.65 259.54)">A</text></g><g id="ID000044"><text class="cls-1" transform="translate(183.35 270.16)">U</text></g><g id="ID000045"><text class="cls-1" transform="translate(193.67 270.16)">G</text></g><g id="ID000046"><text class="cls-1" transform="translate(207.24 270.16)">C</text></g><g id="ID000047"><text class="cls-7" transform="translate(218.16 270.16)">A</text></g><g id="ID000048"><line class="cls-3" x1="226.81" y1="260.37" x2="231.81" y2="255.37"/></g><g id="ID000049"><text class="cls-4" transform="translate(231.81 252.71)">70</text></g><g id="ID000050"><text class="cls-1" transform="translate(228.48 270.16)">U</text></g><g id="ID000051"><line class="cls-3" x1="170.3" y1="265.38" x2="183.04" y2="265.38"/></g><g id="ID000052"><line class="cls-3" x1="170.3" y1="254.76" x2="183.04" y2="254.76"/></g><g id="ID000053"><line class="cls-3" x1="170.3" y1="244.14" x2="183.04" y2="244.14"/></g><g id="ID000054"><polygon class="cls-8" points="178.79 233.52 178.79 233.39 178.78 233.25 178.76 233.12 178.73 232.99 178.69 232.86 178.64 232.73 178.59 232.61 178.53 232.49 178.46 232.38 178.38 232.26 178.3 232.16 178.21 232.06 178.11 231.96 178.01 231.88 177.9 231.79 177.79 231.72 177.67 231.65 177.55 231.59 177.43 231.54 177.3 231.5 177.17 231.46 177.04 231.43 176.91 231.41 176.77 231.4 176.64 231.4 176.5 231.41 176.37 231.42 176.24 231.44 176.1 231.48 175.97 231.52 175.85 231.56 175.73 231.62 175.61 231.68 175.49 231.75 175.38 231.83 175.28 231.92 175.18 232.01 175.09 232.11 175 232.21 174.92 232.32 174.85 232.43 174.78 232.55 174.72 232.67 174.68 232.8 174.63 232.93 174.6 233.06 174.57 233.19 174.56 233.32 174.55 233.46 174.55 233.59 174.56 233.72 174.57 233.86 174.6 233.99 174.63 234.12 174.68 234.25 174.72 234.38 174.78 234.5 174.85 234.61 174.92 234.73 175 234.84 175.09 234.94 175.18 235.04 175.28 235.13 175.38 235.21 175.49 235.29 175.61 235.36 175.73 235.43 175.85 235.48 175.97 235.53 176.1 235.57 176.24 235.6 176.37 235.63 176.5 235.64 176.64 235.65 176.77 235.65 176.91 235.63 177.04 235.62 177.17 235.59 177.3 235.55 177.43 235.51 177.55 235.46 177.67 235.4 177.79 235.33 177.9 235.25 178.01 235.17 178.11 235.08 178.21 234.99 178.3 234.89 178.38 234.78 178.46 234.67 178.53 234.56 178.59 234.44 178.64 234.31 178.69 234.19 178.73 234.06 178.76 233.93 178.78 233.79 178.79 233.66 178.79 233.52"/></g><g id="ID000055"><line class="cls-3" x1="170.3" y1="222.9" x2="183.04" y2="222.9"/></g><g id="ID000057"><text class="cls-6" transform="translate(162.41 206.45)">A</text></g><g id="ID000058"><text class="cls-5" transform="translate(161.81 195.83)">G</text></g><g id="ID000059"><line class="cls-3" x1="158.97" y1="191.05" x2="151.89" y2="191.05"/></g><g id="ID000060"><text class="cls-4" transform="translate(139.75 195.83)">30</text></g><g id="ID000061"><text class="cls-6" transform="translate(162.41 185.21)">A</text></g><g id="ID000062"><text class="cls-5" transform="translate(162.11 174.59)">C</text></g><g id="ID000063"><text class="cls-5" transform="translate(162.11 163.97)">U</text></g><g id="ID000064"><text class="cls-5" transform="translate(162.11 153.35)">U</text></g><g id="ID000065"><text class="cls-5" transform="translate(193.97 148.04)">U</text></g><g id="ID000066"><text class="cls-5" transform="translate(183.05 153.35)">G</text></g><g id="ID000067"><text class="cls-6" transform="translate(183.65 163.97)">A</text></g><g id="ID000068"><text class="cls-5" transform="translate(183.05 174.59)">G</text></g><g id="ID000069"><text class="cls-5" transform="translate(183.35 185.21)">U</text></g><g id="ID000070"><text class="cls-5" transform="translate(183.35 195.83)">C</text></g><g id="ID000071"><line class="cls-3" x1="194.37" y1="191.05" x2="201.45" y2="191.05"/></g><g id="ID000072"><text class="cls-4" transform="translate(201.45 195.83)">60</text></g><g id="ID000073"><text class="cls-5" transform="translate(183.35 206.45)">U</text></g><g id="ID000074"><line class="cls-3" x1="170.3" y1="201.67" x2="183.04" y2="201.67"/></g><g id="ID000075"><line class="cls-3" x1="170.3" y1="191.05" x2="183.04" y2="191.05"/></g><g id="ID000076"><line class="cls-3" x1="170.3" y1="180.43" x2="183.04" y2="180.43"/></g><g id="ID000077"><line class="cls-3" x1="170.3" y1="169.81" x2="183.04" y2="169.81"/></g><g id="ID000078"><line class="cls-3" x1="170.3" y1="159.19" x2="183.04" y2="159.19"/></g><g id="ID000079"><polygon class="cls-8" points="178.79 148.57 178.79 148.44 178.78 148.3 178.76 148.17 178.73 148.04 178.69 147.91 178.64 147.78 178.59 147.66 178.53 147.54 178.46 147.42 178.38 147.31 178.3 147.21 178.21 147.11 178.11 147.01 178.01 146.92 177.9 146.84 177.79 146.77 177.67 146.7 177.55 146.64 177.43 146.59 177.3 146.54 177.17 146.51 177.04 146.48 176.91 146.46 176.77 146.45 176.64 146.45 176.5 146.45 176.37 146.47 176.24 146.49 176.1 146.52 175.97 146.56 175.85 146.61 175.73 146.67 175.61 146.73 175.49 146.8 175.38 146.88 175.28 146.97 175.18 147.06 175.09 147.16 175 147.26 174.92 147.37 174.85 147.48 174.78 147.6 174.72 147.72 174.68 147.84 174.63 147.97 174.6 148.1 174.57 148.24 174.56 148.37 174.55 148.5 174.55 148.64 174.56 148.77 174.57 148.91 174.6 149.04 174.63 149.17 174.68 149.3 174.72 149.42 174.78 149.54 174.85 149.66 174.92 149.78 175 149.88 175.09 149.99 175.18 150.09 175.28 150.18 175.38 150.26 175.49 150.34 175.61 150.41 175.73 150.47 175.85 150.53 175.97 150.58 176.1 150.62 176.24 150.65 176.37 150.67 176.5 150.69 176.64 150.69 176.77 150.69 176.91 150.68 177.04 150.66 177.17 150.63 177.3 150.6 177.43 150.56 177.55 150.5 177.67 150.44 177.79 150.38 177.9 150.3 178.01 150.22 178.11 150.13 178.21 150.04 178.3 149.94 178.38 149.83 178.46 149.72 178.53 149.6 178.59 149.48 178.64 149.36 178.69 149.23 178.73 149.1 178.76 148.97 178.78 148.84 178.79 148.71 178.79 148.57"/></g><g id="ID000081"><text class="cls-5" transform="translate(162.11 140.08)">U</text></g><g id="ID000082"><text class="cls-5" transform="translate(162.11 129.46)">U</text></g><g id="ID000083"><text class="cls-5" transform="translate(162.11 118.84)">C</text></g><g id="ID000084"><text class="cls-5" transform="translate(193.97 124.15)">C</text></g><g id="ID000085"><text class="cls-6" transform="translate(183.65 129.46)">A</text></g><g id="ID000086"><text class="cls-6" transform="translate(183.65 140.08)">A</text></g><g id="ID000087"><line class="cls-3" x1="170.3" y1="135.3" x2="183.04" y2="135.3"/></g><g id="ID000088"><line class="cls-3" x1="170.3" y1="124.68" x2="183.04" y2="124.68"/></g><g id="ID000090"><text class="cls-5" transform="translate(161.81 105.56)">G</text></g><g id="ID000091"><text class="cls-6" transform="translate(162.41 94.95)">A</text></g><g id="ID000092"><text class="cls-6" transform="translate(162.41 84.33)">A</text></g><g id="ID000093"><line class="cls-3" x1="158.97" y1="79.55" x2="151.89" y2="79.55"/></g><g id="ID000094"><text class="cls-4" transform="translate(139.75 84.33)">40</text></g><g id="ID000095"><text class="cls-6" transform="translate(154.45 73.71)">A</text></g><g id="ID000096"><text class="cls-6" transform="translate(151.79 60.43)">A</text></g><g id="ID000097"><text class="cls-5" transform="translate(159.15 47.16)">G</text></g><g id="ID000098"><text class="cls-5" transform="translate(172.73 44.5)">C</text></g><g id="ID000099"><text class="cls-5" transform="translate(185.7 47.16)">G</text></g><g id="ID000100"><text class="cls-5" transform="translate(193.97 60.43)">U</text></g><g id="ID000101"><text class="cls-5" transform="translate(191.01 73.71)">G</text></g><g id="ID000102"><text class="cls-5" transform="translate(183.35 84.33)">U</text></g><g id="ID000103"><text class="cls-5" transform="translate(183.35 94.95)">U</text></g><g id="ID000104"><text class="cls-5" transform="translate(183.35 105.56)">C</text></g><g id="ID000105"><line class="cls-3" x1="192.29" y1="95.78" x2="197.3" y2="90.77"/></g><g id="ID000106"><text class="cls-4" transform="translate(197.3 88.12)">50</text></g><g id="ID000107"><text class="cls-5" transform="translate(196.62 110.87)">C</text></g><g id="ID000108"><line class="cls-3" x1="170.3" y1="100.79" x2="183.04" y2="100.79"/></g><g id="ID000109"><line class="cls-3" x1="170.3" y1="90.17" x2="183.04" y2="90.17"/></g><g id="ID000110"><line class="cls-3" x1="170.3" y1="79.55" x2="183.04" y2="79.55"/></g><g id="ID000112"><text class="cls-1" transform="translate(238.79 270.16)">G</text></g><g id="ID000113"><text class="cls-7" transform="translate(250.02 270.16)">A</text></g><g id="ID000114"><text class="cls-1" transform="translate(260.03 270.16)">G</text></g><g id="ID000115"><text class="cls-1" transform="translate(273.31 270.16)">G</text></g><g id="ID000116"><text class="cls-1" transform="translate(273.61 280.78)">C</text></g><g id="ID000117"><text class="cls-1" transform="translate(273.61 291.4)">C</text></g><g id="ID000118"><text class="cls-1" transform="translate(268.3 302.02)">C</text></g><g id="ID000119"><text class="cls-1" transform="translate(262.69 315.29)">G</text></g><g id="ID000120"><text class="cls-1" transform="translate(270.65 328.56)">G</text></g><g id="ID000121"><line class="cls-3" x1="267.82" y1="323.78" x2="260.74" y2="323.78"/></g><g id="ID000122"><text class="cls-4" transform="translate(248.6 328.56)">80</text></g><g id="ID000123"><text class="cls-7" transform="translate(284.53 331.22)">A</text></g><g id="ID000124"><text class="cls-1" transform="translate(297.5 328.56)">U</text></g><g id="ID000125"><text class="cls-1" transform="translate(305.47 317.94)">C</text></g><g id="ID000126"><text class="cls-1" transform="translate(302.81 304.67)">C</text></g><g id="ID000127"><text class="cls-1" transform="translate(294.54 291.4)">G</text></g><g id="ID000128"><text class="cls-1" transform="translate(294.54 280.78)">G</text></g><g id="ID000129"><text class="cls-1" transform="translate(294.85 270.16)">C</text></g><g id="ID000130"><line class="cls-3" x1="281.8" y1="265.38" x2="294.54" y2="265.38"/></g><g id="ID000131"><line class="cls-3" x1="281.8" y1="276" x2="294.54" y2="276"/></g><g id="ID000132"><line class="cls-3" x1="281.8" y1="286.62" x2="294.54" y2="286.62"/></g></g></g><text class="cls-9" transform="translate(241.96 40.32) scale(0.95 1)">R20-43 aptamer</text><text class="cls-10" transform="translate(80 270.16)">5<tspan class="cls-11" x="7.23" y="0">’</tspan></text><text class="cls-10" transform="translate(305.47 270.16)">3<tspan class="cls-11" x="7.23" y="0">’</tspan></text></svg>