<svg id="图层_1" data-name="图层 1" xmlns="http://www.w3.org/2000/svg" viewBox="0 0 800 400"><defs><style>.cls-1{fill:#b83332;}.cls-2{fill:#f17d07;}.cls-11,.cls-3,.cls-6,.cls-9{fill:none;}.cls-10,.cls-11,.cls-21,.cls-3,.cls-6,.cls-7,.cls-9{stroke:#000;}.cls-3{stroke-linejoin:round;}.cls-4{fill:#084595;}.cls-5{fill:#fff;}.cls-6,.cls-9{stroke-linecap:square;}.cls-10,.cls-6,.cls-7,.cls-9{stroke-miterlimit:10;}.cls-6{stroke-width:0.75px;}.cls-7,.cls-9{stroke-width:0.5px;}.cls-8{fill:#cf3e7d;}.cls-10{stroke-width:0.25px;}.cls-11{stroke-miterlimit:3.05;}.cls-12,.cls-13,.cls-14,.cls-16,.cls-17,.cls-18,.cls-19,.cls-20{isolation:isolate;}.cls-12,.cls-13,.cls-18,.cls-20{font-size:21.41px;}.cls-12,.cls-13,.cls-14,.cls-18,.cls-19,.cls-20{font-family:ArialMT, Arial;}.cls-13{letter-spacing:-0.36em;}.cls-14{font-size:20px;}.cls-15{fill:#18988c;}.cls-16{fill:#8527b5;opacity:0.7;}.cls-18{letter-spacing:-0.06em;}.cls-19{font-size:12.42px;}.cls-20{fill:#251e1c;}.cls-21{stroke-miterlimit:3.05;}</style></defs><path class="cls-1" d="M180.2,188l.68,2h1.67v-8.35h-8.69v1.78h6.32a4.42,4.42,0,0,1-1.59,3.67,6,6,0,0,1-2,1.07,8.56,8.56,0,0,1-2.75.4,7.53,7.53,0,0,1-2.93-.53,6.18,6.18,0,0,1-2.14-1.39,5.76,5.76,0,0,1-1.3-2,6.29,6.29,0,0,1-.44-2.39,8.27,8.27,0,0,1,.38-2.47,6.55,6.55,0,0,1,1.2-2.14,5.9,5.9,0,0,1,2.14-1.52,7.72,7.72,0,0,1,3.12-.53,10.23,10.23,0,0,1,2.14.22,6.78,6.78,0,0,1,1.75.63,4.37,4.37,0,0,1,1.31,1.07,3.83,3.83,0,0,1,.73,1.57h2.63a5.53,5.53,0,0,0-1.07-2.38,6.29,6.29,0,0,0-1.88-1.64,9,9,0,0,0-2.55-.94,15.11,15.11,0,0,0-3-.3,11.08,11.08,0,0,0-4.11.7,8.6,8.6,0,0,0-2.94,1.88,7.55,7.55,0,0,0-1.78,2.74,9.26,9.26,0,0,0-.6,3.29,7.22,7.22,0,0,0,.64,3A7.84,7.84,0,0,0,167,188a9.48,9.48,0,0,0,3,1.77,11.8,11.8,0,0,0,7.43.1A6.56,6.56,0,0,0,180.2,188Z"/><path class="cls-1" d="M207.92,188l.69,2h1.64v-8.35h-8.68v1.78h6.32a4.17,4.17,0,0,1-.36,2,4.36,4.36,0,0,1-1.24,1.64,5.86,5.86,0,0,1-2,1.07,8.56,8.56,0,0,1-2.75.4,7.48,7.48,0,0,1-2.92-.53,6,6,0,0,1-2.14-1.39,5.79,5.79,0,0,1-1.31-2,6.5,6.5,0,0,1-.45-2.39,7.7,7.7,0,0,1,.4-2.47,5.73,5.73,0,0,1,3.34-3.66,7.62,7.62,0,0,1,3.09-.58,10.23,10.23,0,0,1,2.14.22,7,7,0,0,1,1.76.63,4.33,4.33,0,0,1,1.3,1.07,3.69,3.69,0,0,1,.72,1.57h2.63a5.45,5.45,0,0,0-1.07-2.39,6.26,6.26,0,0,0-1.88-1.63,8.91,8.91,0,0,0-2.55-1,15.11,15.11,0,0,0-3-.3,11.3,11.3,0,0,0-4.15.76,8.85,8.85,0,0,0-2.94,1.88,7.4,7.4,0,0,0-1.77,2.74,9.26,9.26,0,0,0-.6,3.29,7.22,7.22,0,0,0,.64,3,7.53,7.53,0,0,0,1.85,2.55,9.48,9.48,0,0,0,3,1.77,11.34,11.34,0,0,0,4,.65,11,11,0,0,0,3.47-.55A6.5,6.5,0,0,0,207.92,188Z"/><path class="cls-1" d="M235.41,178.91h2.67a5.34,5.34,0,0,0-.94-2.22,6.07,6.07,0,0,0-1.81-1.61,8.38,8.38,0,0,0-2.46-1,12.11,12.11,0,0,0-2.94-.33,11.61,11.61,0,0,0-4,.65,8.42,8.42,0,0,0-2.93,1.79,7.49,7.49,0,0,0-1.79,2.65,9,9,0,0,0,0,6.42,6.9,6.9,0,0,0,1.7,2.62,7.87,7.87,0,0,0,2.86,1.74,11.83,11.83,0,0,0,4,.63,9.62,9.62,0,0,0,6-1.67,6.62,6.62,0,0,0,2.58-4.65h-2.64a5,5,0,0,1-.5,1.82,4.16,4.16,0,0,1-1.15,1.45,5,5,0,0,1-1.74,1,7.3,7.3,0,0,1-2.32.35A7.59,7.59,0,0,1,227,188a5.3,5.3,0,0,1-3.35-3.56,8.61,8.61,0,0,1-.39-2.57,7.5,7.5,0,0,1,.39-2.4,5.7,5.7,0,0,1,3.28-3.48,7.92,7.92,0,0,1,3-.53,7.12,7.12,0,0,1,3.59.84A4,4,0,0,1,235.41,178.91Z"/><path class="cls-2" d="M265,184.27V174.15h-2.64v10.12a4,4,0,0,1-1.31,3.21,5.93,5.93,0,0,1-3.85,1.07,6.58,6.58,0,0,1-4.07-1.07,3.85,3.85,0,0,1-1.42-3.21V174.15h-2.63v10.12a5.15,5.15,0,0,0,2.14,4.62,10.61,10.61,0,0,0,6,1.46,9.56,9.56,0,0,0,5.77-1.52A5.36,5.36,0,0,0,265,184.27Z"/><path class="cls-2" d="M291.12,188l.7,2h1.66v-8.35H284.8v1.78h6.32a4.42,4.42,0,0,1-1.59,3.67,6,6,0,0,1-2,1.07,8.56,8.56,0,0,1-2.75.4,7.53,7.53,0,0,1-2.93-.53,6.18,6.18,0,0,1-2.14-1.39,5.76,5.76,0,0,1-1.3-2,6.7,6.7,0,0,1-.44-2.39,8.27,8.27,0,0,1,.38-2.47,6.31,6.31,0,0,1,1.21-2.14,5.9,5.9,0,0,1,2.14-1.52,7.45,7.45,0,0,1,3.09-.58,9,9,0,0,1,2.14.22,6.5,6.5,0,0,1,1.76.63,4.33,4.33,0,0,1,1.3,1.07,3.83,3.83,0,0,1,.73,1.57h2.63a5.57,5.57,0,0,0-1.07-2.39,6.42,6.42,0,0,0-1.89-1.63,8.91,8.91,0,0,0-2.55-1,15.11,15.11,0,0,0-3-.3,11.29,11.29,0,0,0-4.11.71,8.53,8.53,0,0,0-3,1.87A7.77,7.77,0,0,0,276,179a9,9,0,0,0-.59,3.3,7.38,7.38,0,0,0,.64,3,7.56,7.56,0,0,0,1.86,2.55,9.27,9.27,0,0,0,3,1.76,11.73,11.73,0,0,0,7.43.11A6.65,6.65,0,0,0,291.12,188Z"/><path class="cls-2" d="M321.16,169.53l.7,2h1.67v-8.34h-8.69V165h6.32a4.41,4.41,0,0,1-.35,2,4.72,4.72,0,0,1-1.25,1.65,6,6,0,0,1-2,1.07,8.85,8.85,0,0,1-2.75.4,7.66,7.66,0,0,1-2.92-.52,6.21,6.21,0,0,1-2.14-1.4,5.93,5.93,0,0,1-1.31-2,6.49,6.49,0,0,1-.45-2.38,8.36,8.36,0,0,1,.4-2.48,5.74,5.74,0,0,1,1.2-2.14,6.34,6.34,0,0,1,2.14-1.52,7.61,7.61,0,0,1,3.09-.57,9.59,9.59,0,0,1,2.14.21,7,7,0,0,1,1.76.63A4.35,4.35,0,0,1,320,159a3.6,3.6,0,0,1,.72,1.56h2.65a5.84,5.84,0,0,0-1.07-2.38,6.3,6.3,0,0,0-1.89-1.63,8.24,8.24,0,0,0-2.55-.94,13.76,13.76,0,0,0-3-.3,11.16,11.16,0,0,0-4.12.69,8.81,8.81,0,0,0-2.93,1.88,7.77,7.77,0,0,0-1.78,2.74,9.48,9.48,0,0,0-.6,3.29,7.2,7.2,0,0,0,.65,3,7.53,7.53,0,0,0,1.85,2.55,9.48,9.48,0,0,0,3,1.77,11.34,11.34,0,0,0,4,.65,11.48,11.48,0,0,0,3.54-.55A6.73,6.73,0,0,0,321.16,169.53Z"/><path class="cls-2" d="M331.84,242.63l3.35-7.4h0l3.31,7.4Zm2-9.31-7.72,15.85h2.7L331,244.4h8.37l2.14,4.77h2.91l-7.71-15.79Z"/><path class="cls-2" d="M311,242.63l3.35-7.4h0l3.31,7.4Zm2-9.25-7.71,15.84H308l2.22-4.76h8.37l2.14,4.76h2.91l-7.7-15.84Z"/><line class="cls-3" x1="315.03" y1="255.81" x2="315.03" y2="270.61"/><path d="M305.15,283v1.6c.44,0,.91-.07,1.41-.07a7,7,0,0,1,1.65.2,3.51,3.51,0,0,1,1.31.58,2.79,2.79,0,0,1,.89.95,2.62,2.62,0,0,1,0,2.57,2.91,2.91,0,0,1-.93.95,4.16,4.16,0,0,1-1.36.6,5.68,5.68,0,0,1-1.64.21,4.41,4.41,0,0,1-3.08-1,3.45,3.45,0,0,1-1.07-2.49H300a4.63,4.63,0,0,0,.42,2.14,4.35,4.35,0,0,0,1.32,1.6,5.81,5.81,0,0,0,2.08,1,10.4,10.4,0,0,0,2.72.34,11.57,11.57,0,0,0,2.62-.3,7,7,0,0,0,2.14-.9,4.86,4.86,0,0,0,1.46-1.5,4.07,4.07,0,0,0,.53-2.07,3.72,3.72,0,0,0-.87-2.47,4.32,4.32,0,0,0-2.67-1.36h0a4.82,4.82,0,0,0,1.93-1.24,2.75,2.75,0,0,0,.78-1.88,3.54,3.54,0,0,0-1.72-3.2,5.92,5.92,0,0,0-1.9-.76,10.5,10.5,0,0,0-2.37-.26,8.42,8.42,0,0,0-2.59.38,5.07,5.07,0,0,0-1.87,1.07,4.36,4.36,0,0,0-1.16,1.59,6.16,6.16,0,0,0-.46,2.07h2.37A4.24,4.24,0,0,1,303,280a2.9,2.9,0,0,1,.69-1.07,3.41,3.41,0,0,1,1.16-.75,5.18,5.18,0,0,1,4.15.35,2.14,2.14,0,0,1,1,1.91,2.1,2.1,0,0,1-.3,1.07,2.54,2.54,0,0,1-.82.81,4.3,4.3,0,0,1-1.19.5,6.89,6.89,0,0,1-1.43.16h-1.08Zm13,1.25V283a7.68,7.68,0,0,1,.2-1.44,7.15,7.15,0,0,1,.35-1.36,3.39,3.39,0,0,1,.69-1.17,3.25,3.25,0,0,1,1.16-.81,4.09,4.09,0,0,1,1.69-.31,4.26,4.26,0,0,1,1.69.31,3.69,3.69,0,0,1,1.15.81,3.16,3.16,0,0,1,.69,1.17,8,8,0,0,1,.37,1.36,10.88,10.88,0,0,1,.14,1.4v1.27a16.64,16.64,0,0,1-.08,2,7,7,0,0,1-.44,2.07,3.63,3.63,0,0,1-1.21,1.63,4.38,4.38,0,0,1-4.65,0,3.9,3.9,0,0,1-1.21-1.63,7,7,0,0,1-.44-2.07c0-.66-.08-1.31-.08-2Zm-2.49,0c0,.57,0,1.17,0,1.79a11.28,11.28,0,0,0,.28,1.82,7.76,7.76,0,0,0,.64,1.68,4.38,4.38,0,0,0,1.14,1.39,5.26,5.26,0,0,0,1.82.94,10,10,0,0,0,5.25,0,5.64,5.64,0,0,0,1.8-.94,4.38,4.38,0,0,0,1.14-1.39,7.76,7.76,0,0,0,.64-1.68,11.28,11.28,0,0,0,.28-1.82v-3.59a11.28,11.28,0,0,0-.28-1.82,8.55,8.55,0,0,0-.64-1.68,4.57,4.57,0,0,0-1.14-1.41,5.46,5.46,0,0,0-1.82-1,9.88,9.88,0,0,0-5.23,0,5.46,5.46,0,0,0-1.82,1,4.57,4.57,0,0,0-1.14,1.41,8.55,8.55,0,0,0-.64,1.68,11.28,11.28,0,0,0-.28,1.82c0,.64,0,1.22,0,1.82Z"/><path class="cls-1" d="M290.87,223.3h2.63a5.08,5.08,0,0,0-.94-2.23,6.16,6.16,0,0,0-1.8-1.61,9.15,9.15,0,0,0-2.47-1,12.11,12.11,0,0,0-2.94-.33,11.12,11.12,0,0,0-4,.65,8.21,8.21,0,0,0-3,1.79,7.34,7.34,0,0,0-1.78,2.65,8.4,8.4,0,0,0-.61,3.21,9.51,9.51,0,0,0,.56,3.21,7.32,7.32,0,0,0,1.72,2.63A7.78,7.78,0,0,0,281.1,234a11.59,11.59,0,0,0,4,.63,9.55,9.55,0,0,0,6-1.66,6.73,6.73,0,0,0,2.63-4.65H291.1a5.29,5.29,0,0,1-.57,1.82,4.47,4.47,0,0,1-1.15,1.44,5.14,5.14,0,0,1-1.75.95,7,7,0,0,1-2.31.36,8,8,0,0,1-3.05-.54,5.57,5.57,0,0,1-3.31-3.54,8.87,8.87,0,0,1-.38-2.56,7.87,7.87,0,0,1,.38-2.4,5.7,5.7,0,0,1,3.3-3.49,7.72,7.72,0,0,1,3-.52,7.5,7.5,0,0,1,3.6.83A4,4,0,0,1,290.87,223.3Z"/><path class="cls-1" d="M253.26,227.83l3.36-7.39h.06l3.29,7.39Zm2-9.3-7.71,15.84h2.69l2.22-4.77h8.38l2.14,4.77h3l-7.73-15.84Z"/><path class="cls-1" d="M235.65,232.4l.7,2H238V226h-8.68v1.78h6.32a4.29,4.29,0,0,1-.36,2,4.56,4.56,0,0,1-1.23,1.65,6,6,0,0,1-2,1.07,8.8,8.8,0,0,1-2.74.41,7.71,7.71,0,0,1-2.93-.52,6.38,6.38,0,0,1-2.14-1.41,5.88,5.88,0,0,1-1.29-2,6.5,6.5,0,0,1-.45-2.39,8.27,8.27,0,0,1,.38-2.47,5.84,5.84,0,0,1,3.35-3.66,7.83,7.83,0,0,1,3.1-.57,9.59,9.59,0,0,1,2.14.21,5.79,5.79,0,0,1,1.76.63,4.37,4.37,0,0,1,1.31,1.07,3.6,3.6,0,0,1,.72,1.56h2.63a5.57,5.57,0,0,0-1.07-2.39,6.23,6.23,0,0,0-1.88-1.62,8.24,8.24,0,0,0-2.55-.94,13.76,13.76,0,0,0-3-.3,11,11,0,0,0-4.12.69,8.92,8.92,0,0,0-2.94,1.87,7.74,7.74,0,0,0-1.77,2.74,9.27,9.27,0,0,0-.6,3.3,7.22,7.22,0,0,0,.64,3,7.53,7.53,0,0,0,1.85,2.55,9.27,9.27,0,0,0,3,1.76,11.35,11.35,0,0,0,4,.66,12,12,0,0,0,3.47-.54A6.53,6.53,0,0,0,235.65,232.4Z"/><path class="cls-1" d="M207.67,223.3h2.64a5.09,5.09,0,0,0-.95-2.23,6,6,0,0,0-1.79-1.61,9.22,9.22,0,0,0-2.48-1,12.11,12.11,0,0,0-2.94-.33,11.57,11.57,0,0,0-4,.65,8.27,8.27,0,0,0-2.93,1.79,7.49,7.49,0,0,0-1.79,2.65,8.8,8.8,0,0,0-.61,3.21,9,9,0,0,0,.57,3.21,7,7,0,0,0,1.7,2.64A7.71,7.71,0,0,0,198,234a11.36,11.36,0,0,0,4,.63,9.55,9.55,0,0,0,6-1.66,6.62,6.62,0,0,0,2.58-4.65H207.9a5.27,5.27,0,0,1-.51,1.82,4.21,4.21,0,0,1-1.14,1.44,5.14,5.14,0,0,1-1.75.95,7,7,0,0,1-2.32.36,8,8,0,0,1-3.05-.54A5.84,5.84,0,0,1,197,231a5.63,5.63,0,0,1-1.21-2.14,8.55,8.55,0,0,1-.39-2.56,7.5,7.5,0,0,1,.39-2.4,5.54,5.54,0,0,1,1.21-2.05,5.73,5.73,0,0,1,2.07-1.44,7.91,7.91,0,0,1,3-.52,7.35,7.35,0,0,1,3.59.83A4,4,0,0,1,207.67,223.3Z"/><path class="cls-1" d="M179.94,223.3h2.63a5.08,5.08,0,0,0-.94-2.23,6.16,6.16,0,0,0-1.8-1.61,9.15,9.15,0,0,0-2.47-1,12,12,0,0,0-2.93-.33,11.12,11.12,0,0,0-4,.65,8.17,8.17,0,0,0-2.94,1.79,7.49,7.49,0,0,0-1.79,2.65,8.6,8.6,0,0,0-.61,3.21,9.24,9.24,0,0,0,.57,3.21,7.27,7.27,0,0,0,1.7,2.63,7.63,7.63,0,0,0,2.86,1.73,11.36,11.36,0,0,0,4,.63,9.62,9.62,0,0,0,6-1.66,6.62,6.62,0,0,0,2.58-4.65h-2.63a5.24,5.24,0,0,1-.49,1.82,4.39,4.39,0,0,1-1.16,1.44,5,5,0,0,1-1.74.95,7,7,0,0,1-2.31.36,8,8,0,0,1-3.06-.54,5.84,5.84,0,0,1-2.14-1.43,5.76,5.76,0,0,1-1.21-2.14,8.87,8.87,0,0,1-.38-2.56,7.87,7.87,0,0,1,.38-2.4,5.86,5.86,0,0,1,1.21-2,5.77,5.77,0,0,1,2.08-1.44,7.72,7.72,0,0,1,3-.52,7.39,7.39,0,0,1,3.6.83A4,4,0,0,1,179.94,223.3Z"/><line class="cls-3" x1="173.77" y1="190.71" x2="173.77" y2="217.34"/><line class="cls-3" x1="201.49" y1="190.71" x2="201.49" y2="217.34"/><line class="cls-3" x1="229.79" y1="190.71" x2="229.79" y2="217.34"/><line class="cls-3" x1="257.24" y1="190.71" x2="257.24" y2="217.34"/><line class="cls-3" x1="284.69" y1="190.71" x2="284.69" y2="217.34"/><line class="cls-3" x1="314.74" y1="172.22" x2="314.74" y2="232.14"/><path d="M310.63,204.42l.21.2.23.18.24.17.25.16.27.15.29.14.28.12.3.09.3.09.31.08.32.06h2l.32-.06.3-.08.31-.09.29-.09.29-.12.29-.14.26-.15L318,205l.24-.17.22-.18.22-.2.2-.21L319,204l.15-.23.15-.23.13-.24.1-.25.09-.25.07-.26V201l-.08-.24-.1-.25-.12-.25-.13-.23-.15-.23-.17-.22-.19-.21-.21-.2-.21-.2-.24-.18-.25-.16-.26-.15-.27-.14-.29-.13-.29-.12-.3-.09-.32-.07-.3-.07h-2.26l-.31.07-.31.07-.3.09-.3.12-.28.13-.27.14-.27.15-.24.16L311,199l-.22.2-.2.2-.19.21-.17.22-.16.23-.13.23-.11.25-.1.25-.08.24v1.55l.07.26.09.25.1.24.12.25.15.23.16.23.18.21Z"/><path class="cls-2" d="M352.62,165l3.35-7.4h0l3.3,7.4Zm2-9.31-7.71,15.85h2.69l2.21-4.78h8.39l2.14,4.78h2.91l-7.74-15.85Z"/><path class="cls-4" d="M390.25,177.07h2.63a5.08,5.08,0,0,0-.94-2.23,6.16,6.16,0,0,0-1.8-1.61,8.55,8.55,0,0,0-2.47-1,12.78,12.78,0,0,0-2.95-.34,11.35,11.35,0,0,0-4,.66,7.86,7.86,0,0,0-3,1.79A7.35,7.35,0,0,0,376,177a8.4,8.4,0,0,0-.61,3.21,9.51,9.51,0,0,0,.56,3.21,6.87,6.87,0,0,0,1.7,2.61,7.89,7.89,0,0,0,2.86,1.75,11.59,11.59,0,0,0,4,.63,9.68,9.68,0,0,0,6-1.66,6.63,6.63,0,0,0,2.58-4.67h-2.63a5.24,5.24,0,0,1-.49,1.82,4.44,4.44,0,0,1-1.16,1.46,5.05,5.05,0,0,1-1.75.95,6.53,6.53,0,0,1-2.32.34,7.93,7.93,0,0,1-3.05-.52,5.5,5.5,0,0,1-3.3-3.58A8.86,8.86,0,0,1,378,180a7.87,7.87,0,0,1,.38-2.4,6,6,0,0,1,1.21-2.06,5.87,5.87,0,0,1,2.08-1.43,7.89,7.89,0,0,1,3-.54,7.23,7.23,0,0,1,3.59.85A4,4,0,0,1,390.25,177.07Z"/><path class="cls-4" d="M419.86,182.41V172.3h-2.63v10.11a4,4,0,0,1-1.32,3.22,5.9,5.9,0,0,1-3.84,1.07,6.69,6.69,0,0,1-4.08-1.07,3.86,3.86,0,0,1-1.41-3.22V172.3H404v10.11a5.17,5.17,0,0,0,2.14,4.63,10.52,10.52,0,0,0,6,1.45,9.42,9.42,0,0,0,5.77-1.52A5.33,5.33,0,0,0,419.86,182.41Z"/><path class="cls-4" d="M445.75,177.07h2.63a5.08,5.08,0,0,0-.94-2.23,6.07,6.07,0,0,0-1.81-1.61,8.38,8.38,0,0,0-2.46-1,12.78,12.78,0,0,0-2.95-.34,11.58,11.58,0,0,0-4,.66,8.21,8.21,0,0,0-3,1.79,7.3,7.3,0,0,0-1.78,2.64,8.4,8.4,0,0,0-.61,3.21,9.24,9.24,0,0,0,.57,3.21,7,7,0,0,0,1.71,2.61,7.85,7.85,0,0,0,2.85,1.75,11.36,11.36,0,0,0,4,.63,9.68,9.68,0,0,0,6-1.66,6.7,6.7,0,0,0,2.58-4.67H446a5,5,0,0,1-.5,1.82,4.54,4.54,0,0,1-1.15,1.46,5.51,5.51,0,0,1-1.75.91,6.77,6.77,0,0,1-2.32.34,7.93,7.93,0,0,1-3.05-.52,5.49,5.49,0,0,1-3.29-3.55,8.53,8.53,0,0,1-.39-2.55,7.5,7.5,0,0,1,.39-2.4,5.57,5.57,0,0,1,3.28-3.49,7.89,7.89,0,0,1,3-.54,7.3,7.3,0,0,1,3.6.85A4,4,0,0,1,445.75,177.07Z"/><line class="cls-3" x1="439.82" y1="165.19" x2="439.82" y2="150.4"/><path d="M435,144.28V128.55h-1.81a3.12,3.12,0,0,1-.71,1.46,3.78,3.78,0,0,1-1.29.91,6.76,6.76,0,0,1-1.71.46,17.88,17.88,0,0,1-1.94.11V133h5.11v11.28Zm9.21-7.74v-1.28a8.2,8.2,0,0,1,.14-1.4,8,8,0,0,1,.36-1.36,3.34,3.34,0,0,1,1.84-2,4.69,4.69,0,0,1,3.38,0,3.62,3.62,0,0,1,1.16.81,3.24,3.24,0,0,1,.69,1.17,10,10,0,0,1,.35,1.33,9.35,9.35,0,0,1,.14,1.4v1.27c0,.59,0,1.26-.07,2a6.15,6.15,0,0,1-.45,2.07,3.89,3.89,0,0,1-1.19,1.64,3.76,3.76,0,0,1-2.34.66,3.61,3.61,0,0,1-2.32-.66,3.93,3.93,0,0,1-1.21-1.64,7.3,7.3,0,0,1-.45-2.07c0-.69,0-1.36,0-1.94Zm-2.5,0c0,.57,0,1.17.06,1.79a9.43,9.43,0,0,0,.28,1.82,8.2,8.2,0,0,0,.63,1.67,4.53,4.53,0,0,0,1.14,1.4,5.22,5.22,0,0,0,1.81.94,10.2,10.2,0,0,0,5.26,0,5.22,5.22,0,0,0,1.81-.94,4.5,4.5,0,0,0,1.13-1.4,7.2,7.2,0,0,0,.64-1.67,9.41,9.41,0,0,0,.27-1.82c0-.62.07-1.22.07-1.79a15.91,15.91,0,0,0-.07-1.8,9.41,9.41,0,0,0-.27-1.82,7.18,7.18,0,0,0-.64-1.69,4.35,4.35,0,0,0-1.13-1.39,5.78,5.78,0,0,0-1.82-1,10,10,0,0,0-5.25,0,5.27,5.27,0,0,0-1.81,1,4.38,4.38,0,0,0-1.14,1.39,8.6,8.6,0,0,0-.63,1.69,9.43,9.43,0,0,0-.28,1.82c0,.64-.06,1.23-.06,1.82Z"/><path class="cls-4" d="M473.7,247.2l.69,2h1.66v-8.3h-8.68v1.78h6.33a4.43,4.43,0,0,1-.37,2,4.56,4.56,0,0,1-1.23,1.65,6.14,6.14,0,0,1-2,1.07,8.8,8.8,0,0,1-2.74.41,7.53,7.53,0,0,1-2.93-.53,6.15,6.15,0,0,1-2.15-1.4,6.06,6.06,0,0,1-1.3-2,6.7,6.7,0,0,1-.44-2.39,8.27,8.27,0,0,1,.38-2.47,5.92,5.92,0,0,1,3.32-3.67,7.5,7.5,0,0,1,3.1-.58,9.65,9.65,0,0,1,2.08.2,6.58,6.58,0,0,1,1.77.64,4.33,4.33,0,0,1,1.3,1.07,3.69,3.69,0,0,1,.72,1.57h2.64a5.88,5.88,0,0,0-1.07-2.39,6.57,6.57,0,0,0-1.89-1.63,9,9,0,0,0-2.56-.94,13.76,13.76,0,0,0-3-.3,11.13,11.13,0,0,0-4.12.7,8.57,8.57,0,0,0-2.94,1.87,8.05,8.05,0,0,0-1.78,2.74,9,9,0,0,0-.59,3.3,7.38,7.38,0,0,0,.64,3,7.5,7.5,0,0,0,1.86,2.56,9.09,9.09,0,0,0,3,1.76,11.87,11.87,0,0,0,7.43.12A6.73,6.73,0,0,0,473.7,247.2Z"/><path class="cls-2" d="M446,230.55l.7,2h1.66v-8.34h-8.69V226H446a4.29,4.29,0,0,1-.36,2,4.85,4.85,0,0,1-1.23,1.64,6,6,0,0,1-2,1.07,8.79,8.79,0,0,1-2.74.4,7.53,7.53,0,0,1-2.93-.53,6.33,6.33,0,0,1-2.14-1.39,6.09,6.09,0,0,1-1.31-2,6.7,6.7,0,0,1-.44-2.39,8,8,0,0,1,.39-2.47,5.87,5.87,0,0,1,3.32-3.67,7.45,7.45,0,0,1,3.09-.58,9.59,9.59,0,0,1,2.14.21,6.13,6.13,0,0,1,1.77.63,4.36,4.36,0,0,1,1.3,1.08,3.78,3.78,0,0,1,.72,1.56h2.64a5.89,5.89,0,0,0-1.08-2.39,6.4,6.4,0,0,0-1.88-1.63,9.26,9.26,0,0,0-2.56-.94,15.11,15.11,0,0,0-3-.3,11.13,11.13,0,0,0-4.12.7,8.57,8.57,0,0,0-2.94,1.87,8.11,8.11,0,0,0-1.79,2.76,8.85,8.85,0,0,0-.6,3.3,7.58,7.58,0,0,0,.63,3,7.77,7.77,0,0,0,1.87,2.56,9.06,9.06,0,0,0,3,1.75,11.83,11.83,0,0,0,7.44.12A6.62,6.62,0,0,0,446,230.55Z"/><path class="cls-4" d="M408.1,226l3.36-7.38h0l3.3,7.38Zm2-9.3-7.71,15.84h2.71l2.23-4.76h8.37l2.14,4.76h2.91L413,216.68Z"/><path class="cls-2" d="M390.49,230.55l.7,2h1.67v-8.34h-8.68V226h6.31a4.16,4.16,0,0,1-.35,2,4.75,4.75,0,0,1-1.24,1.64,6,6,0,0,1-2,1.07,8.85,8.85,0,0,1-2.75.4,7.48,7.48,0,0,1-2.92-.53,6.18,6.18,0,0,1-2.14-1.39,5.93,5.93,0,0,1-1.31-2,6.29,6.29,0,0,1-.44-2.39,8,8,0,0,1,.39-2.47,5.78,5.78,0,0,1,3.31-3.67,7.62,7.62,0,0,1,3.09-.58,9.59,9.59,0,0,1,2.14.21,6.07,6.07,0,0,1,1.76.63,4.36,4.36,0,0,1,1.3,1.08,3.49,3.49,0,0,1,.72,1.56h2.65a6,6,0,0,0-1.07-2.39,6.42,6.42,0,0,0-1.89-1.63,9.32,9.32,0,0,0-2.55-.94,15.11,15.11,0,0,0-3-.3,11.13,11.13,0,0,0-4.12.7,8.78,8.78,0,0,0-2.93,1.87,7.76,7.76,0,0,0-1.78,2.76,9.54,9.54,0,0,0-.6,3.3,7.23,7.23,0,0,0,.65,3,7.67,7.67,0,0,0,1.85,2.56,9.24,9.24,0,0,0,3,1.75,10.91,10.91,0,0,0,4,.66,11,11,0,0,0,3.47-.54A6.56,6.56,0,0,0,390.49,230.55Z"/><path class="cls-2" d="M352.62,242.63l3.35-7.4h0l3.3,7.4Zm2-9.31-7.71,15.85h2.69l2.21-4.77h8.39l2.14,4.77h2.91l-7.7-15.79Z"/><line class="cls-3" x1="356.34" y1="172.22" x2="356.34" y2="232.14"/><path class="cls-5" d="M352.32,205l.22.21.25.2.27.19.27.17.3.16.3.15.31.13.32.11.33.09.34.09.34.06h2.14l.35-.06.33-.09.33-.09.32-.11.32-.13.3-.15.29-.16.28-.17.26-.19.24-.2L361,205l.21-.23.2-.23.17-.25.16-.24.14-.27.11-.27.09-.27.07-.27.06-.28v-1.13l-.07-.28L362,201l-.11-.27-.12-.27-.15-.25-.17-.25-.18-.24-.2-.23-.23-.22-.23-.21-.26-.19-.27-.18-.28-.17-.3-.15-.31-.13-.32-.13-.32-.1-.33-.08-.34-.08h-2.42l-.34.08-.33.12-.32.1-.32.13-.3.14-.3.15-.29.16-.26.18-.26.19-.24.22-.22.21-.2.24-.19.23-.17.25-.14.25-.13.27-.1.27-.08.27-.06.28V203l.07.28.1.26.12.27.13.27.16.25.17.24.2.24Z"/><path class="cls-6" d="M356.2,205.76h1.32l.3-.08.31-.09.29-.1.3-.12.28-.14.26-.15.26-.15.24-.18.22-.18.22-.2.2-.2.18-.22.15-.23.15-.23.13-.24.11-.25.08-.25.07-.25.05-.26v-1l-.06-.25-.08-.25-.1-.25-.11-.24-.14-.24-.15-.23-.17-.22-.19-.21-.21-.2-.21-.2-.24-.18-.25-.16-.26-.15-.27-.14-.29-.13-.29-.12L358,198l-.31-.07-.31-.07h-2.25l-.32.07h-.3l-.29.09-.3.12-.28.13-.27.14-.27.15-.25.16-.23.18-.22.2-.21.2-.18.21-.17.22-.16.23-.13.24-.12.24-.1.25-.06.25-.06.25v1.3l.06.25.09.25.11.25.12.24.15.23.16.23.18.22.2.2.21.2.23.18.24.18.25.15.28.15.27.14.29.12.3.1.3.09.32.07.31.06h1"/><line class="cls-3" x1="384.36" y1="188.86" x2="384.36" y2="215.49"/><line class="cls-3" x1="412.08" y1="188.86" x2="412.08" y2="215.49"/><line class="cls-3" x1="450.91" y1="179.98" x2="511.92" y2="179.98"/><line class="cls-3" x1="439.82" y1="188.86" x2="439.82" y2="215.49"/><path class="cls-7" d="M457.92,259.23l.23.24.24.22.25.21.26.19.27.18.28.15.3.14.3.11.31.11.31.07h1.91l.31-.06.31-.1.3-.11.29-.14.29-.14.28-.18.26-.19.26-.2.24-.22.21-.24.22-.25.19-.27.19-.27.15-.3.15-.3.12-.31.11-.31.09-.32.07-.34.05-.33v-1.33l-.05-.34-.08-.33-.09-.31-.12-.32-.13-.31-.15-.3-.16-.28-.19-.28-.2-.26-.22-.25-.23-.23-.27-.19-.26-.19-.27-.19L464,251l-.29-.14-.29-.13-.31-.1-.31-.1-.31-.06h-1.6l-.31.06-.31.09-.31.1-.29.12-.29.14-.28.17-.27.18-.27.22-.25.21-.23.23-.22.25-.21.26-.18.27-.17.28-.16.3-.13.31-.12.31-.09.32-.08.32-.06.34v1.66l.07.34.08.32.1.32.13.31.13.31.16.29.18.28.18.26Z"/><path class="cls-8" d="M529.15,186.17l.7,2h1.67v-8.28h-8.7v1.76h6.31a4.44,4.44,0,0,1-.35,2,4.51,4.51,0,0,1-1.24,1.63,5.7,5.7,0,0,1-2,1.07,8.3,8.3,0,0,1-2.75.4,7.7,7.7,0,0,1-2.93-.51,6.38,6.38,0,0,1-2.14-1.41,5.76,5.76,0,0,1-1.3-2,6.2,6.2,0,0,1-.45-2.37,7.77,7.77,0,0,1,.39-2.49,5.83,5.83,0,0,1,3.31-3.67,7.79,7.79,0,0,1,3.09-.58,10.23,10.23,0,0,1,2.14.22,6.85,6.85,0,0,1,1.76.63,4.37,4.37,0,0,1,1.31,1.07,3.47,3.47,0,0,1,.71,1.56h2.7a5.88,5.88,0,0,0-1.07-2.39,6.23,6.23,0,0,0-1.88-1.62,8.63,8.63,0,0,0-2.55-1,14.39,14.39,0,0,0-3-.29,11,11,0,0,0-4.12.69,8.53,8.53,0,0,0-3,1.87A7.66,7.66,0,0,0,514,177.2a9.27,9.27,0,0,0-.6,3.3,7.07,7.07,0,0,0,.64,3,7.53,7.53,0,0,0,1.85,2.55,9.27,9.27,0,0,0,3,1.76,11.13,11.13,0,0,0,4,.66,11.34,11.34,0,0,0,3.47-.55A6.43,6.43,0,0,0,529.15,186.17Z"/><path class="cls-8" d="M558.53,182.41V172.3h-2.64v10.11a4,4,0,0,1-1.31,3.22,5.93,5.93,0,0,1-3.85,1.07,6.64,6.64,0,0,1-4.07-1.07,3.87,3.87,0,0,1-1.42-3.22V172.3h-2.63v10.11a5.17,5.17,0,0,0,2.14,4.63,10.52,10.52,0,0,0,6,1.45,9.42,9.42,0,0,0,5.77-1.52A5.36,5.36,0,0,0,558.53,182.41Z"/><path class="cls-8" d="M574.5,181.59l3.36-7.39h0l3.3,7.39Zm2-9.29-7.71,15.84h2.69l2.22-4.77H582l2.15,4.77h2.91l-7.74-15.84Z"/><path class="cls-8" d="M612.1,177.07h2.65a5.25,5.25,0,0,0-1-2.23,5.67,5.67,0,0,0-1.8-1.61,8.38,8.38,0,0,0-2.46-1,12.63,12.63,0,0,0-2.94-.34,11.58,11.58,0,0,0-4,.66,8.17,8.17,0,0,0-2.94,1.79,7.45,7.45,0,0,0-1.79,2.64,8.8,8.8,0,0,0-.61,3.21,9.24,9.24,0,0,0,.57,3.21,7,7,0,0,0,1.71,2.61,7.94,7.94,0,0,0,2.85,1.75,11.36,11.36,0,0,0,4,.63,9.76,9.76,0,0,0,6-1.66,6.72,6.72,0,0,0,2.58-4.67h-2.63a5.27,5.27,0,0,1-.51,1.82,4.41,4.41,0,0,1-1.15,1.46,5.14,5.14,0,0,1-1.75.95,6.71,6.71,0,0,1-2.31.34,7.75,7.75,0,0,1-3.05-.52,5.84,5.84,0,0,1-2.14-1.43,5.45,5.45,0,0,1-1.2-2.15,7.86,7.86,0,0,1-.4-2.55,7.24,7.24,0,0,1,.4-2.4,5.52,5.52,0,0,1,3.34-3.49,7.67,7.67,0,0,1,3-.54,7.23,7.23,0,0,1,3.59.85A3.86,3.86,0,0,1,612.1,177.07Z"/><path class="cls-8" d="M641.72,165.77V155.65h-2.63v10.12a4,4,0,0,1-1.32,3.21,5.77,5.77,0,0,1-3.84,1.07,6.58,6.58,0,0,1-4.07-1.07,3.79,3.79,0,0,1-1.42-3.21V155.65H625.8v10.12a5.23,5.23,0,0,0,2.14,4.63,10.6,10.6,0,0,0,6,1.45,9.49,9.49,0,0,0,5.77-1.52A5.36,5.36,0,0,0,641.72,165.77Z"/><path class="cls-8" d="M669.47,182.41V172.3h-2.64v10.11a4,4,0,0,1-1.31,3.22,5.93,5.93,0,0,1-3.85,1.07,6.64,6.64,0,0,1-4.07-1.07,3.82,3.82,0,0,1-1.42-3.22V172.3h-2.63v10.11a5.17,5.17,0,0,0,2.14,4.63,10.52,10.52,0,0,0,6,1.45,9.42,9.42,0,0,0,5.77-1.52A5.36,5.36,0,0,0,669.47,182.41Z"/><path class="cls-8" d="M667.57,221.45h2.63a5,5,0,0,0-.94-2.22,5.82,5.82,0,0,0-1.8-1.62,9.15,9.15,0,0,0-2.47-1,12.63,12.63,0,0,0-2.94-.34,11.58,11.58,0,0,0-4,.66,8.38,8.38,0,0,0-2.94,1.78,7.62,7.62,0,0,0-1.79,2.66,9,9,0,0,0,0,6.42,6.9,6.9,0,0,0,1.7,2.62,8.12,8.12,0,0,0,2.86,1.75,11.83,11.83,0,0,0,4,.63,9.69,9.69,0,0,0,6-1.67,6.62,6.62,0,0,0,2.58-4.66h-2.64a5,5,0,0,1-.49,1.82,4.54,4.54,0,0,1-1.15,1.46,5.62,5.62,0,0,1-1.75.95,7.3,7.3,0,0,1-2.32.35,8.09,8.09,0,0,1-3-.54,5.84,5.84,0,0,1-2.14-1.43,5.48,5.48,0,0,1-1.21-2.14,8.55,8.55,0,0,1-.39-2.56,7.5,7.5,0,0,1,.39-2.4,5.58,5.58,0,0,1,1.21-2.06,5.89,5.89,0,0,1,2.07-1.42,7.49,7.49,0,0,1,3-.54,7.23,7.23,0,0,1,3.59.85A3.85,3.85,0,0,1,667.57,221.45Z"/><path class="cls-8" d="M640.09,247.2l.69,2h1.67v-8.3h-8.68v1.78h6.32a4.29,4.29,0,0,1-.36,2,4.56,4.56,0,0,1-1.23,1.65,6.14,6.14,0,0,1-2,1.07,8.86,8.86,0,0,1-2.75.41,7.53,7.53,0,0,1-2.93-.53,6.21,6.21,0,0,1-2.14-1.4,5.76,5.76,0,0,1-1.3-2,6.29,6.29,0,0,1-.44-2.39,8.27,8.27,0,0,1,.38-2.47,5.94,5.94,0,0,1,3.31-3.67,7.45,7.45,0,0,1,3.09-.58,10.21,10.21,0,0,1,2.14.2,6.87,6.87,0,0,1,1.76.64,4.5,4.5,0,0,1,1.31,1.07,3.69,3.69,0,0,1,.72,1.57h2.64a5.88,5.88,0,0,0-1.07-2.39,6.61,6.61,0,0,0-1.9-1.63,9,9,0,0,0-2.55-.94,13.76,13.76,0,0,0-3-.3,11.08,11.08,0,0,0-4.11.7,8.77,8.77,0,0,0-3,1.85,7.91,7.91,0,0,0-1.78,2.74,9.54,9.54,0,0,0-.6,3.3,7.2,7.2,0,0,0,.65,3,7.5,7.5,0,0,0,1.86,2.56,9.09,9.09,0,0,0,3,1.76,11.73,11.73,0,0,0,7.43.11A6.73,6.73,0,0,0,640.09,247.2Z"/><path class="cls-8" d="M612.36,230.55l.69,2h1.66v-8.34H606V226h6.33a4.43,4.43,0,0,1-.37,2,4.61,4.61,0,0,1-1.23,1.64,6,6,0,0,1-2,1.07,8.79,8.79,0,0,1-2.74.4,7.53,7.53,0,0,1-2.93-.53,6.33,6.33,0,0,1-2.14-1.39,5.79,5.79,0,0,1-1.31-2,6.7,6.7,0,0,1-.44-2.39,8,8,0,0,1,.39-2.47,5.8,5.8,0,0,1,3.35-3.66,7.45,7.45,0,0,1,3.09-.58,9.21,9.21,0,0,1,2.09.21,6.15,6.15,0,0,1,1.77.64,4,4,0,0,1,1.29,1.07,3.8,3.8,0,0,1,.73,1.56h2.63a5.69,5.69,0,0,0-1.07-2.39,6.4,6.4,0,0,0-1.88-1.63,9.38,9.38,0,0,0-2.56-.94,15.11,15.11,0,0,0-3-.3,11.13,11.13,0,0,0-4.12.7,8.72,8.72,0,0,0-2.94,1.87,7.91,7.91,0,0,0-1.78,2.74,9,9,0,0,0-.59,3.3,7.41,7.41,0,0,0,.63,3,7.7,7.7,0,0,0,1.86,2.55,8.73,8.73,0,0,0,3,1.76,11.78,11.78,0,0,0,7.49.11A6.74,6.74,0,0,0,612.36,230.55Z"/><path class="cls-8" d="M586.26,226.81V216.68h-2.63v10.13a4,4,0,0,1-1.32,3.21,5.9,5.9,0,0,1-3.84,1.07,6.48,6.48,0,0,1-4.08-1.07,3.83,3.83,0,0,1-1.41-3.21V216.68h-2.64v10.13a5.18,5.18,0,0,0,2.15,4.62,10.61,10.61,0,0,0,6,1.46,9.56,9.56,0,0,0,5.77-1.52A5.35,5.35,0,0,0,586.26,226.81Z"/><line class="cls-3" x1="578.48" y1="239.17" x2="578.48" y2="253.96"/><path d="M563.77,265.2h2.37a4.41,4.41,0,0,1,.17-1.4,3.55,3.55,0,0,1,.68-1.25,3.26,3.26,0,0,1,1.21-.9,4.08,4.08,0,0,1,1.76-.36,5.22,5.22,0,0,1,1.47.21,3.39,3.39,0,0,1,1.21.58,2.83,2.83,0,0,1,.82.9,2.23,2.23,0,0,1,.3,1.16,3.17,3.17,0,0,1-.32,1.45,4,4,0,0,1-.94,1.14,9.26,9.26,0,0,1-1.57,1.07c-.63.35-1.36.73-2.19,1.15a16.68,16.68,0,0,0-2,1.07,9.17,9.17,0,0,0-1.69,1.28,6.2,6.2,0,0,0-1.23,1.73,6.82,6.82,0,0,0-.62,2.38H576v-1.67H566a2.56,2.56,0,0,1,.7-1.29,6.74,6.74,0,0,1,1.31-1.07,13.7,13.7,0,0,1,1.68-.92l1.83-.88c.61-.31,1.2-.64,1.77-1a7.66,7.66,0,0,0,1.53-1.13,5.75,5.75,0,0,0,1.07-1.43,4.08,4.08,0,0,0,.39-1.85,3.81,3.81,0,0,0-.48-1.95,4.12,4.12,0,0,0-1.31-1.41,7,7,0,0,0-2-.86,9.66,9.66,0,0,0-5.17.11,5.76,5.76,0,0,0-2,1.17,4.52,4.52,0,0,0-1.21,1.77A5.32,5.32,0,0,0,563.77,265.2Zm17.92,2.43v-1.27a9.35,9.35,0,0,1,.14-1.4,8,8,0,0,1,.36-1.36,3.32,3.32,0,0,1,1.85-2,4.69,4.69,0,0,1,3.38,0,3.31,3.31,0,0,1,1.84,2,8,8,0,0,1,.36,1.36,8.2,8.2,0,0,1,.14,1.4v1.27c0,.6,0,1.25-.06,2a7,7,0,0,1-.45,2.07,3.82,3.82,0,0,1-1.2,1.63,4.44,4.44,0,0,1-4.66,0,3.84,3.84,0,0,1-1.21-1.63,8.15,8.15,0,0,1-.45-2.07C581.69,268.87,581.69,268.22,581.69,267.63Zm-2.49,0v1.8a8.72,8.72,0,0,0,.28,1.82,7.25,7.25,0,0,0,.63,1.68,4.46,4.46,0,0,0,1.14,1.38,5.24,5.24,0,0,0,1.81.95,9.25,9.25,0,0,0,2.62.35,8.75,8.75,0,0,0,2.64-.35,5.24,5.24,0,0,0,1.81-.95,4.09,4.09,0,0,0,1.13-1.38,7.25,7.25,0,0,0,.63-1.68,9.43,9.43,0,0,0,.28-1.82q.06-.93.06-1.8t-.06-1.8a9.43,9.43,0,0,0-.28-1.82,7.25,7.25,0,0,0-.63-1.68,4.5,4.5,0,0,0-1.13-1.4,5.46,5.46,0,0,0-1.82-.95,10,10,0,0,0-5.25,0,5.42,5.42,0,0,0-1.81.95,4.53,4.53,0,0,0-1.14,1.4,7.25,7.25,0,0,0-.63,1.68,8.72,8.72,0,0,0-.28,1.82Z"/><path class="cls-8" d="M546.76,226l3.36-7.38h0l3.3,7.38Zm2-9.3L541,232.52h2.69l2.23-4.76h8.37l2.14,4.76h2.91l-7.74-15.84Z"/><path class="cls-2" d="M528.91,221.45h2.63a5,5,0,0,0-.94-2.22,5.82,5.82,0,0,0-1.8-1.62,9.15,9.15,0,0,0-2.47-1,12.61,12.61,0,0,0-3-.34,11.35,11.35,0,0,0-4,.66,8.29,8.29,0,0,0-2.94,1.78,7.19,7.19,0,0,0-1.79,2.66,8.6,8.6,0,0,0-.61,3.21,8.76,8.76,0,0,0,.57,3.21,6.9,6.9,0,0,0,1.7,2.62,7.89,7.89,0,0,0,2.86,1.75,11.83,11.83,0,0,0,4,.63,9.62,9.62,0,0,0,6-1.67,6.59,6.59,0,0,0,2.58-4.66h-2.6a5.24,5.24,0,0,1-.49,1.82,4.34,4.34,0,0,1-1.16,1.46,5.57,5.57,0,0,1-1.74.95,7.36,7.36,0,0,1-2.33.35,8.09,8.09,0,0,1-3-.54,5.87,5.87,0,0,1-2.08-1.43A5.47,5.47,0,0,1,517,227a8.55,8.55,0,0,1-.39-2.56A7.51,7.51,0,0,1,517,222a5.58,5.58,0,0,1,1.21-2.06,5.89,5.89,0,0,1,2.07-1.42,7.49,7.49,0,0,1,3-.54,7.23,7.23,0,0,1,3.59.85A3.87,3.87,0,0,1,528.91,221.45Z"/><path class="cls-2" d="M503.06,243.44V233.38h-2.64v10.11a4,4,0,0,1-1.31,3.21,5.8,5.8,0,0,1-3.85,1.07,6.34,6.34,0,0,1-4.06-1.07,3.82,3.82,0,0,1-1.43-3.21V233.38h-2.63v10.11a5.18,5.18,0,0,0,2.14,4.64,10.6,10.6,0,0,0,6,1.45,9.42,9.42,0,0,0,5.77-1.52A5.35,5.35,0,0,0,503.06,243.44Z"/><line class="cls-3" x1="523.02" y1="188.86" x2="523.02" y2="215.49"/><line class="cls-3" x1="550.18" y1="188.86" x2="550.18" y2="215.49"/><line class="cls-3" x1="578.48" y1="188.86" x2="578.48" y2="215.49"/><line class="cls-3" x1="606.21" y1="188.86" x2="606.21" y2="215.49"/><line class="cls-3" x1="633.95" y1="172.22" x2="633.95" y2="232.14"/><path class="cls-5" d="M634,190.65l-6.23,8.65H640.2Z"/><path class="cls-9" d="M633.93,191.14l-5.81,8.06h11.63l-5.81-8.06"/><path class="cls-5" d="M629.23,210.57l.2.24.22.22.22.22.25.19.26.19.27.17.3.16.3.15.31.13.32.11.34.1.34.08.34.06H635l.34-.06.34-.08.33-.1.32-.11.32-.13.3-.15.29-.16.28-.17.25-.19.25-.19.24-.22.21-.22.19-.24.17-.24.16-.25.14-.27.11-.26.1-.27.11-.24v-1.35l-.06-.28-.09-.26-.1-.27-.12-.27-.15-.26-.17-.24-.18-.24-.21-.23-.22-.22-.24-.2-.25-.2-.35-.26-.27-.16-.3-.15-.32-.14-.32-.12-.32-.11-.33-.08-.34-.08h-2.44l-.34.08-.35.08-.32.11-.32.12-.3.14-.3.15-.29.16-.27.18-.25.2-.24.21-.22.21-.21.24-.18.23-.17.25-.14.26-.13.26-.1.27-.08.27-.06.28V209l.07.28.1.28.12.25.12.27.16.25Z"/><path class="cls-6" d="M633.52,212.28h1l.32-.06.3-.08.31-.09.29-.1.3-.12.28-.14.26-.14.26-.16.24-.18.23-.18.21-.2.2-.2.18-.22.16-.23.14-.22.13-.25.1-.24.09-.26.07-.25v-1.3l-.06-.25-.08-.25-.1-.25-.11-.24-.13-.24-.16-.23-.17-.21-.19-.22-.21-.2-.21-.19-.24-.18-.26-.22-.25-.15-.28-.14-.29-.13-.29-.11-.3-.09-.31-.08-.31-.07h-2.25l-.32.07-.31.08-.3.09-.3.11-.27.13-.28.14-.27.15-.24.17-.24.18-.22.19-.21.2-.18.22-.17.21-.16.23-.13.24-.12.24-.09.25-.07.25-.06.26v1.31l.07.26.08.25.11.24.12.25.15.22.16.23.19.22.19.2.21.2.23.18.24.18.25.16.28.14.27.14.29.12.3.1.3.09.32.08.32.06h1"/><line class="cls-3" x1="661.68" y1="188.86" x2="661.68" y2="215.49"/><line class="cls-3" x1="326.12" y1="163.34" x2="345.52" y2="163.34"/><path class="cls-10" d="M333,161.72l-2.26-1.63v6.49L333,165l2.25-.52,2.25-.27,4.51-.81-4.51-.84-2.25-.27Z"/><g id="ID000046"><polyline class="cls-11" points="489.22 259.79 488.88 262.37 409.9 238.91 409.9 238.91 409.9 238.91 410.23 236.33"/></g><text class="cls-12" transform="translate(133.89 191.8)">5</text><text class="cls-13" transform="translate(145.79 193.32)">’</text><text class="cls-12" transform="translate(133.89 235.69)">3</text><text class="cls-13" transform="translate(145.79 237.71)">’</text><text class="cls-14" transform="translate(304.15 74.42)">RBA-14 aptamer</text><rect class="cls-15" x="360.74" y="314.61" width="64.38" height="25.35"/><rect class="cls-16" x="345.89" y="267.59" width="184.81" height="25.35"/><g class="cls-17"><text class="cls-12" transform="translate(348.15 288.41)">HI</text><text class="cls-18" transform="translate(369.56 288.41)">V</text><text class="cls-12" transform="translate(382.66 288.41)"><tspan xml:space="preserve">-1 Rev   protein</tspan></text></g><g class="cls-17"><text class="cls-19" transform="translate(446.18 280.12)"><tspan xml:space="preserve">93  </tspan></text></g><text class="cls-20" transform="translate(371.2 333.7)">scFv</text><path class="cls-10" d="M478.32,178.56l-2.26-1.63v6.49l2.26-1.62,2.25-.52,2.25-.27,4.51-.82-4.51-.83-2.25-.27Z"/><path class="cls-10" d="M663.41,199l1.62-2.25h-6.49l1.62,2.25.53,2.25.27,2.25.81,4.51.84-4.51.27-2.25Z"/><rect class="cls-21" x="432.14" y="242.32" width="8.59" height="8.59" transform="translate(80.12 599.22) rotate(-74.17)"/></svg>