<?xml version="1.0" encoding="utf-8"?>
<!-- Generator: Adobe Illustrator 27.0.0, SVG Export Plug-In . SVG Version: 6.00 Build 0)  -->
<svg version="1.1" id="图层_1" xmlns="http://www.w3.org/2000/svg" xmlns:xlink="http://www.w3.org/1999/xlink" x="0px" y="0px"
	 viewBox="0 0 800 400" style="enable-background:new 0 0 800 400;" xml:space="preserve">
<style type="text/css">
	.st0{fill:#B83332;}
	.st1{font-family:'ArialMT';}
	.st2{font-size:28.3012px;}
	.st3{letter-spacing:-1;}
	.st4{fill:#084595;}
	.st5{font-size:15px;}
	.st6{font-size:20px;}
	.st7{font-size:16px;}
	.st8{fill:none;stroke:#020202;stroke-miterlimit:10;}
	.st9{stroke:#000000;stroke-miterlimit:3.05;}
</style>
<text transform="matrix(1 0 0 1 238.7662 119.509)" class="st0 st1 st2">G</text>
<text transform="matrix(1 0 0 1 260.3277 119.509)" class="st0 st1 st2">C</text>
<text transform="matrix(1 0 0 1 281.3805 119.509)" class="st0 st1 st2">C</text>
<text transform="matrix(1 0 0 1 303.3473 119.509)" class="st0 st1 st2 st3">A</text>
<text transform="matrix(1 0 0 1 324.4 119.509)" class="st0 st1 st2 st3">A</text>
<text transform="matrix(1 0 0 1 344.0289 119.509)" class="st0 st1 st2">G</text>
<text transform="matrix(1 0 0 1 365.5914 119.509)" class="st4 st1 st2">C</text>
<text transform="matrix(1 0 0 1 371.8521 96.3015)" class="st4 st1 st2 st3">A</text>
<text transform="matrix(1 0 0 1 387.3668 84.9514)" class="st4 st1 st2">G</text>
<text transform="matrix(1 0 0 1 407.316 96.301)" class="st4 st1 st2">G</text>
<text transform="matrix(1 0 0 1 413.4137 119.3386)" class="st4 st1 st2">U</text>
<text transform="matrix(1 0 0 1 434.4664 119.3386)" class="st4 st1 st2">U</text>
<text transform="matrix(1 0 0 1 455.3492 119.509)" class="st4 st1 st2">C</text>
<text transform="matrix(1 0 0 1 475.8922 119.5095)" class="st4 st1 st2">G</text>
<text transform="matrix(1 0 0 1 498.2447 107.5359)" class="st4 st1 st2">U</text>
<text transform="matrix(1 0 0 1 519.9029 122.3503)" class="st4 st1 st2">U</text>
<text transform="matrix(1 0 0 1 240.19 153.1355)" class="st0 st1 st2">A</text>
<text transform="matrix(1 0 0 1 259.818 153.135)" class="st0 st1 st2">G</text>
<text transform="matrix(1 0 0 1 280.8707 153.135)" class="st0 st1 st2">G</text>
<text transform="matrix(1 0 0 1 302.6031 153.135)" class="st0 st1 st2 st3">U</text>
<text transform="matrix(1 0 0 1 323.6559 153.135)" class="st0 st1 st2 st3">U</text>
<text transform="matrix(1 0 0 1 344.5387 153.1355)" class="st0 st1 st2">C</text>
<text transform="matrix(1 0 0 1 365.0816 153.135)" class="st4 st1 st2">G</text>
<text transform="matrix(1 0 0 1 414.1578 152.9656)" class="st4 st1 st2">A</text>
<text transform="matrix(1 0 0 1 435.2115 152.9656)" class="st4 st1 st2">A</text>
<text transform="matrix(1 0 0 1 454.8404 153.135)" class="st4 st1 st2">G</text>
<text transform="matrix(1 0 0 1 475.8922 153.1355)" class="st4 st1 st2">C</text>
<text transform="matrix(1 0 0 1 498.2447 166.5876)" class="st4 st1 st2">U</text>
<text transform="matrix(1 0 0 1 519.9029 149.1199)" class="st4 st1 st2">U</text>
<text transform="matrix(1 0 0 1 427.5511 80.3405)" class="st1 st5">10</text>
<text transform="matrix(1 0 0 1 226.2924 98.906)" class="st1 st6">5</text>
<text transform="matrix(1 0 0 1 237.4524 98.906)" class="st1 st6">’</text>
<text transform="matrix(1 0 0 1 459.607 170.2474)" class="st1 st5">20</text>
<text transform="matrix(1 0 0 1 227.1321 174.1251)" class="st1 st6">3</text>
<text transform="matrix(1 0 0 1 238.2921 174.1251)" class="st1 st6">’</text>
<text transform="matrix(1 0 0 1 332.7552 25.93)" class="st1 st7"> II-mini3-4 aptamer</text>
<line class="st8" x1="387" y1="143.5" x2="414.1" y2="143.5"/>
<g id="ID000094-2">
	<polygon class="st9" points="397.3,140.5 399,142 400.7,142.5 402.4,142.9 405.8,143.5 402.3,144.4 400.7,144.7 399,145.3 
		397.3,146.9 	"/>
</g>
<line class="st8" x1="250.1" y1="120.9" x2="250.1" y2="131.7"/>
<line class="st8" x1="270.7" y1="120.9" x2="270.7" y2="131.7"/>
<line class="st8" x1="292.2" y1="120.9" x2="292.2" y2="131.7"/>
<line class="st8" x1="312.9" y1="120.9" x2="312.9" y2="131.7"/>
<line class="st8" x1="333.6" y1="120.9" x2="333.6" y2="131.7"/>
<line class="st8" x1="355.2" y1="120.9" x2="355.2" y2="131.7"/>
<line class="st8" x1="376.8" y1="120.9" x2="376.8" y2="131.7"/>
<line class="st8" x1="423.3" y1="120.9" x2="423.3" y2="131.7"/>
<line class="st8" x1="444.8" y1="120.9" x2="444.8" y2="131.7"/>
<line class="st8" x1="466.4" y1="120.9" x2="466.4" y2="131.7"/>
<line class="st8" x1="487.4" y1="120.9" x2="487.4" y2="131.7"/>
</svg>
