<?xml version="1.0" encoding="utf-8"?>
<!-- Generator: Adobe Illustrator 25.2.0, SVG Export Plug-In . SVG Version: 6.00 Build 0)  -->
<svg version="1.1" id="图层_1" xmlns="http://www.w3.org/2000/svg" xmlns:xlink="http://www.w3.org/1999/xlink" x="0px" y="0px"
	 viewBox="0 0 800 400" style="enable-background:new 0 0 800 400;" xml:space="preserve">
<style type="text/css">
	.st0{font-family:'ArialMT';}
	.st1{font-size:25px;}
	.st2{fill:#FF870A;}
	.st3{font-size:16px;}
	.st4{fill:#C2C2FF;}
	.st5{fill:#80DB9E;}
	.st6{fill:#FF3399;}
	.st7{font-size:19.992px;}
	.st8{fill:none;stroke:#000000;stroke-width:0.25;stroke-miterlimit:10;}
	.st9{font-size:12px;}
</style>
<text transform="matrix(1 0 0 1 23.8662 46.1373)" class="st0 st1">8-3 aptamer</text>
<g id="ID000012_00000132067672931027451360000011479076388135863710_">
	<g>
		<text transform="matrix(0.9999 1.570719e-02 -1.570719e-02 0.9999 179.9402 186.6985)" class="st2 st0 st3">A</text>
	</g>
</g>
<g id="ID000012_00000036970667174035970450000007327575226052445108_">
	<text transform="matrix(0.9999 1.570698e-02 -1.570698e-02 0.9999 233.3722 207.3577)" class="st4 st0 st3">A</text>
</g>
<g id="ID000012_00000173856394879840610450000002683848953909926544_">
	<g>
		<g>
			<text transform="matrix(0.9999 1.570698e-02 -1.570698e-02 0.9999 108.4029 213.3408)" class="st5 st0 st3">A</text>
		</g>
	</g>
</g>
<g id="ID000012_00000102541830614883825830000009005794645933259676_">
	<text transform="matrix(0.9999 1.570698e-02 -1.570698e-02 0.9999 119.666 155.9951)" class="st5 st0 st3">A</text>
</g>
<g id="ID000012_00000010313210898438540200000002223611340099543947_">
	<text transform="matrix(0.9999 1.570698e-02 -1.570698e-02 0.9999 128.0176 124.6734)" class="st6 st0 st3">A</text>
</g>
<g id="ID000012_00000088135319918072118160000009596353033417067676_">
	<text transform="matrix(0.9999 1.570698e-02 -1.570698e-02 0.9999 209.8213 141.9697)" class="st5 st0 st3">A</text>
</g>
<g id="ID000012_00000137117127880301586080000003242208866761419910_">
	<text transform="matrix(0.9999 1.570698e-02 -1.570698e-02 0.9999 281.7629 97.7078)" class="st5 st0 st3">A</text>
</g>
<g id="ID000012_00000144332495119020210290000017981613704743980930_">
	<g>
		<text transform="matrix(0.9999 1.570698e-02 -1.570698e-02 0.9999 343.2041 68.5355)" class="st5 st0 st3">A</text>
	</g>
</g>
<g id="ID000012_00000021834700820715225110000004561290587115728779_">
	<g>
		<text transform="matrix(0.9999 1.570698e-02 -1.570698e-02 0.9999 358.42 124.149)" class="st5 st0 st3">A</text>
	</g>
</g>
<g id="ID000012_00000119096787360909696250000004048566752291330456_">
	<text transform="matrix(0.9999 1.570698e-02 -1.570698e-02 0.9999 419.8091 104.7205)" class="st2 st0 st3">A</text>
</g>
<g id="ID000012_00000052099078685244229760000009777271462013942206_">
	<g>
		<text transform="matrix(0.9999 1.570698e-02 -1.570698e-02 0.9999 504.0722 35.8626)" class="st6 st0 st3">A</text>
	</g>
</g>
<g id="ID000012_00000169526860626802505240000015611937148799521972_">
	<text transform="matrix(0.9999 1.570698e-02 -1.570698e-02 0.9999 524.1229 81.7544)" class="st5 st0 st3">A</text>
</g>
<g id="ID000012_00000111912440233268925030000003036424744522194086_">
	<g>
		<g>
			<text transform="matrix(0.9999 1.570719e-02 -1.570719e-02 0.9999 542.5058 186.728)" class="st6 st0 st3">A</text>
		</g>
	</g>
</g>
<g id="ID000012_00000175315074311367782180000002000745102742473632_">
	<g>
		<g>
			<text transform="matrix(0.9999 1.570698e-02 -1.570698e-02 0.9999 619.8597 172.0683)" class="st6 st0 st3">A</text>
		</g>
	</g>
</g>
<g id="ID000012_00000129207435949764858500000007875085400777604010_">
	<g>
		<g>
			<text transform="matrix(0.9999 1.570698e-02 -1.570698e-02 0.9999 719.9323 279.8439)" class="st5 st0 st3">A</text>
		</g>
	</g>
</g>
<g id="ID000012_00000140711914123670724790000016976863552852893863_">
	<g>
		<g>
			<text transform="matrix(0.9999 1.570698e-02 -1.570698e-02 0.9999 698.532 280.8327)" class="st5 st0 st3">A</text>
		</g>
	</g>
</g>
<g id="ID000012_00000086689974883124539860000013426773137207515299_">
	<g>
		<g>
			<text transform="matrix(0.9999 1.570698e-02 -1.570698e-02 0.9999 760.0225 348.2218)" class="st5 st0 st3">A</text>
		</g>
	</g>
</g>
<g id="ID000012_00000173161393437533362450000008112495206237620132_">
	<g>
		<g>
			<text transform="matrix(0.9999 1.570698e-02 -1.570698e-02 0.9999 764.304 367.7299)" class="st5 st0 st3">A</text>
		</g>
	</g>
</g>
<g id="ID000012_00000002361826616848970690000015903304075413888650_">
	<g>
		<text transform="matrix(0.9999 1.570719e-02 -1.570719e-02 0.9999 637.3653 272.6083)" class="st2 st0 st3">A</text>
	</g>
</g>
<g id="ID000012_00000026149771274277719330000002931735607046748859_">
	<g>
		<g>
			<text transform="matrix(0.9999 1.570719e-02 -1.570719e-02 0.9999 658.9183 345.6543)" class="st5 st0 st3">A</text>
		</g>
	</g>
</g>
<g id="ID000012_00000007394126243031942150000007227933831322643844_">
	<g>
		<g>
			<text transform="matrix(0.9999 1.570698e-02 -1.570698e-02 0.9999 666.8848 363.46)" class="st5 st0 st3">A</text>
		</g>
	</g>
</g>
<g id="ID000012_00000154391116724075315990000001503000949219083414_">
	<g>
		<g>
			<text transform="matrix(0.9999 1.570698e-02 -1.570698e-02 0.9999 553.8638 203.951)" class="st6 st0 st3">A</text>
		</g>
	</g>
</g>
<g id="ID000012_00000082354033166105241900000009285695545123904663_">
	<g>
		<g>
			<text transform="matrix(0.9999 1.570698e-02 -1.570698e-02 0.9999 599.4136 156.0298)" class="st6 st0 st3">A</text>
		</g>
	</g>
</g>
<g id="ID000012_00000044166570178685389150000010736911677928109199_">
	<g>
		<g>
			<text transform="matrix(0.9999 1.570698e-02 -1.570698e-02 0.9999 569.8293 218.0092)" class="st6 st0 st3">A</text>
		</g>
	</g>
</g>
<g id="ID000012_00000085959029659985447330000011550710178360220844_">
	<text transform="matrix(0.9999 1.570698e-02 -1.570698e-02 0.9999 18.0909 182.9041)" class="st6 st0 st3">A</text>
</g>
<g id="ID000012_00000124862926364769814560000003017154155727080094_">
	<text transform="matrix(0.9999 1.570698e-02 -1.570698e-02 0.9999 131.4149 185.9674)" class="st5 st0 st3">U</text>
</g>
<g id="ID000012_00000049189057883307937290000014729289576263982241_">
	<g>
		<text transform="matrix(0.9999 1.570698e-02 -1.570698e-02 0.9999 194.623 162.525)" class="st2 st0 st3">U</text>
	</g>
</g>
<g id="ID000012_00000052782817563756145600000005856170117092130963_">
	<text transform="matrix(0.9999 1.570698e-02 -1.570698e-02 0.9999 136.2754 108.935)" class="st6 st0 st3">U</text>
</g>
<g id="ID000012_00000117666944991345590680000012746510593964423830_">
	<text transform="matrix(0.9999 1.570698e-02 -1.570698e-02 0.9999 146.5522 96.6772)" class="st6 st0 st3">U</text>
</g>
<g id="ID000012_00000093134958104049150050000006799506887750862489_">
	<text transform="matrix(0.9999 1.570698e-02 -1.570698e-02 0.9999 204.4267 116.1579)" class="st5 st0 st3">U</text>
</g>
<g id="ID000012_00000061454182255257774530000012066660592807062958_">
	<text transform="matrix(0.9999 1.570698e-02 -1.570698e-02 0.9999 243.7313 107.473)" class="st5 st0 st3">U</text>
</g>
<g id="ID000012_00000143593853357887850180000018302345370001217470_">
	<text transform="matrix(0.9999 1.570698e-02 -1.570698e-02 0.9999 288.5298 131.8802)" class="st5 st0 st3">U</text>
</g>
<g id="ID000012_00000028320726453656371080000003264120171159963556_">
	<g>
		<text transform="matrix(0.9999 1.570698e-02 -1.570698e-02 0.9999 386.5537 63.5981)" class="st5 st0 st3">U</text>
	</g>
</g>
<g id="ID000012_00000082367876682900164120000007609153463225384090_">
	<g>
		<text transform="matrix(0.9999 1.570698e-02 -1.570698e-02 0.9999 484.2683 46.1378)" class="st6 st0 st3">U</text>
	</g>
</g>
<g id="ID000012_00000150091216144145545210000002633739918243592882_">
	<text transform="matrix(0.9999 1.570698e-02 -1.570698e-02 0.9999 413.3943 72.766)" class="st2 st0 st3">U</text>
</g>
<g id="ID000012_00000163785590046284518820000003754825175783625616_">
	<text transform="matrix(0.9999 1.570698e-02 -1.570698e-02 0.9999 498.5603 96.6775)" class="st5 st0 st3">U</text>
</g>
<g id="ID000012_00000039134724066038842930000004444393346811282096_">
	<g>
		<text transform="matrix(0.9999 1.570698e-02 -1.570698e-02 0.9999 660.5229 257.9491)" class="st2 st0 st3">U</text>
	</g>
</g>
<g id="ID000012_00000163060748014312310340000001007798417950903708_">
	<g>
		<g>
			<text transform="matrix(0.9999 1.570698e-02 -1.570698e-02 0.9999 733.9664 314.3539)" class="st5 st0 st3">U</text>
		</g>
	</g>
</g>
<g id="ID000012_00000136369522930892762810000017708078318809143443_">
	<g>
		<g>
			<text transform="matrix(0.9999 1.570698e-02 -1.570698e-02 0.9999 657.0247 329.8765)" class="st5 st0 st3">U</text>
		</g>
	</g>
</g>
<g id="ID000012_00000075143658291185464030000000360020563255004036_">
	<g>
		<text transform="matrix(0.9999 1.570698e-02 -1.570698e-02 0.9999 724.17 335.5005)" class="st5 st0 st3">U</text>
	</g>
</g>
<g id="ID000012_00000113313142936502252880000007682840462012630417_">
	<g>
		<g>
			<text transform="matrix(0.9999 1.570698e-02 -1.570698e-02 0.9999 729.3151 384.0298)" class="st5 st0 st3">U</text>
		</g>
	</g>
</g>
<g id="ID000012_00000029013493359115842150000007799678206289449903_">
	<g>
		<g>
			<text transform="matrix(0.9999 1.570698e-02 -1.570698e-02 0.9999 680.2789 374.8849)" class="st5 st0 st3">U</text>
		</g>
	</g>
</g>
<g id="ID000012_00000144334678558205150390000015606347298169726113_">
	<text transform="matrix(0.9999 1.570698e-02 -1.570698e-02 0.9999 506.2812 118.9378)" class="st5 st0 st3">U</text>
</g>
<g id="ID000012_00000037677486520841672550000017008107856521537156_">
	<text transform="matrix(0.9999 1.570698e-02 -1.570698e-02 0.9999 188.1426 100.7809)" class="st6 st0 st3">U</text>
</g>
<g id="ID000012_00000014599470682225084550000016521857889893157807_">
	<text transform="matrix(0.9999 1.570698e-02 -1.570698e-02 0.9999 35.6506 225.0413)" class="st6 st0 st3">U</text>
</g>
<g id="ID000012_00000178191046237580529010000003032534669093455295_">
	<text transform="matrix(0.9999 1.570698e-02 -1.570698e-02 0.9999 46.8828 171.9148)" class="st6 st0 st3">U</text>
</g>
<g id="ID000012_00000000184221395496544740000010300213841441200514_">
	<text transform="matrix(0.9999 1.570698e-02 -1.570698e-02 0.9999 20.6287 216.2095)" class="st6 st0 st3">U</text>
</g>
<g id="ID000012_00000094613475685443247000000002878384736029451710_">
	<g>
		<text transform="matrix(0.9999 1.570698e-02 -1.570698e-02 0.9999 202.125 217.0191)" class="st2 st0 st3">G</text>
	</g>
</g>
<g id="ID000012_00000022554723876293991140000014096471071382340528_">
	<g>
		<text transform="matrix(0.9999 1.570698e-02 -1.570698e-02 0.9999 192.7805 202.2572)" class="st2 st0 st3">G</text>
	</g>
</g>
<g id="ID000012_00000039135086997430530420000010356417779143510717_">
	<text transform="matrix(0.9999 1.570719e-02 -1.570719e-02 0.9999 230.492 141.5082)" class="st5 st0 st3">G</text>
</g>
<g id="ID000012_00000075159167160351393570000005751246295987175298_">
	<text transform="matrix(0.9999 1.570698e-02 -1.570698e-02 0.9999 262.8643 103.6247)" class="st5 st0 st3">G</text>
</g>
<g id="ID000012_00000118396004384190618970000000498877453838636470_">
	<text transform="matrix(0.9999 1.570698e-02 -1.570698e-02 0.9999 251.3937 139.7512)" class="st5 st0 st3">G</text>
</g>
<g id="ID000012_00000114755022795632421630000010895476740131856031_">
	<text transform="matrix(0.9999 1.570698e-02 -1.570698e-02 0.9999 304.8922 127.8722)" class="st5 st0 st3">G</text>
</g>
<g id="ID000012_00000137815781195804845630000010652939333845207977_">
	<g>
		<text transform="matrix(0.9999 1.570698e-02 -1.570698e-02 0.9999 168.4161 172.7768)" class="st5 st0 st3">G</text>
	</g>
</g>
<g id="ID000012_00000143605278901225122780000017931285031936854436_">
	<text transform="matrix(0.9999 1.570698e-02 -1.570698e-02 0.9999 132.172 143.8362)" class="st5 st0 st3">G</text>
</g>
<g id="ID000012_00000135676985088584459350000016671875193987887551_">
	<text transform="matrix(0.9999 1.570698e-02 -1.570698e-02 0.9999 169.4127 91.008)" class="st6 st0 st3">G</text>
</g>
<g id="ID000012_00000038402425991076143130000017066469576470518669_">
	<text transform="matrix(0.9999 1.570698e-02 -1.570698e-02 0.9999 61.9093 179.351)" class="st5 st0 st3">G</text>
</g>
<g id="ID000012_00000013159476087087596680000012455661933993577112_">
	<text transform="matrix(0.9999 1.570698e-02 -1.570698e-02 0.9999 147.5151 174.0846)" class="st5 st0 st3">C</text>
</g>
<g id="ID000012_00000123406717696863986990000006138409127877894589_">
	<g>
		<text transform="matrix(0.9999 1.570698e-02 -1.570698e-02 0.9999 208.5834 176.7257)" class="st2 st0 st3">C</text>
	</g>
</g>
<g id="ID000012_00000041260658795481976010000012559092945578527362_">
	<text transform="matrix(0.9999 1.570698e-02 -1.570698e-02 0.9999 224.5165 111.2463)" class="st5 st0 st3">C</text>
</g>
<g id="ID000012_00000168093715362461597600000003818074290051296384_">
	<text transform="matrix(0.9999 1.570698e-02 -1.570698e-02 0.9999 296.8788 95.8174)" class="st5 st0 st3">C</text>
</g>
<g id="ID000012_00000009577044827524651810000009114285454270417538_">
	<text transform="matrix(0.9999 1.570698e-02 -1.570698e-02 0.9999 321.2354 123.1074)" class="st5 st0 st3">G</text>
</g>
<g id="ID000012_00000100358568626512999480000011063709023238218902_">
	<text transform="matrix(0.9999 1.570698e-02 -1.570698e-02 0.9999 326.4933 85.6274)" class="st5 st0 st3">G</text>
</g>
<g id="ID000012_00000124136295865965728040000011215808224496046751_">
	<g>
		<text transform="matrix(0.9999 1.570698e-02 -1.570698e-02 0.9999 366.4406 79.1526)" class="st2 st0 st3">G</text>
	</g>
</g>
<g id="ID000012_00000006693128282593323630000006852741003304497309_">
	<text transform="matrix(0.9999 1.570698e-02 -1.570698e-02 0.9999 313.3192 90.098)" class="st5 st0 st3">C</text>
</g>
<g id="ID000012_00000057117177150302572540000014874359768721527425_">
	<text transform="matrix(0.9999 1.570719e-02 -1.570719e-02 0.9999 335.0883 118.8535)" class="st5 st0 st3">C</text>
</g>
<g id="ID000012_00000007414328263525313200000007857848632533008809_">
	<g>
		<text transform="matrix(0.9999 1.570698e-02 -1.570698e-02 0.9999 374.0117 111.2466)" class="st2 st0 st3">C</text>
	</g>
</g>
<g id="ID000012_00000044145722477494689560000018380116492852300458_">
	<text transform="matrix(0.9999 1.570698e-02 -1.570698e-02 0.9999 429.3791 67.7641)" class="st2 st0 st3">G</text>
</g>
<g id="ID000012_00000172404731228782709580000007632091109074379401_">
	<text transform="matrix(0.9999 1.570698e-02 -1.570698e-02 0.9999 459.5061 98.7562)" class="st2 st0 st3">G</text>
</g>
<g id="ID000012_00000175287453810495223780000016489058154675962286_">
	<text transform="matrix(0.9999 1.570698e-02 -1.570698e-02 0.9999 440.1114 102.8925)" class="st2 st0 st3">C</text>
</g>
<g id="ID000012_00000085953864382044971600000008255118667681071262_">
	<text transform="matrix(0.9999 1.570698e-02 -1.570698e-02 0.9999 448.6806 63.5983)" class="st2 st0 st3">C</text>
</g>
<g id="ID000012_00000129908732180086502750000014420758219373258660_">
	<g>
		<text transform="matrix(0.9999 1.570698e-02 -1.570698e-02 0.9999 534.98 61.8668)" class="st6 st0 st3">C</text>
	</g>
</g>
<g id="ID000012_00000075856414400475168760000006580569544165398187_">
	<text transform="matrix(0.9999 1.570698e-02 -1.570698e-02 0.9999 519.1937 135.2214)" class="st5 st0 st3">C</text>
</g>
<g id="ID000012_00000021825603028514657810000000152617385763193776_">
	<text transform="matrix(0.9999 1.570698e-02 -1.570698e-02 0.9999 476.2598 93.5962)" class="st2 st0 st3">G</text>
</g>
<g id="ID000012_00000052083444363992135650000014075526652357470623_">
	<g>
		<text transform="matrix(0.9999 1.570698e-02 -1.570698e-02 0.9999 523.0573 39.7999)" class="st6 st0 st3">G</text>
	</g>
</g>
<g id="ID000012_00000139993128909312635260000007609930428445160115_">
	<text transform="matrix(0.9999 1.570698e-02 -1.570698e-02 0.9999 543.2925 119.1616)" class="st5 st0 st3">G</text>
</g>
<g id="ID000012_00000077301060174708995270000010813991770563862168_">
	<text transform="matrix(0.9999 1.570698e-02 -1.570698e-02 0.9999 532.3245 151.5991)" class="st5 st0 st3">C</text>
</g>
<g id="ID000012_00000152230943429000558120000001849795513982296708_">
	<text transform="matrix(0.9999 1.570698e-02 -1.570698e-02 0.9999 570.5189 151.8098)" class="st5 st0 st3">C</text>
</g>
<g id="ID000012_00000053529327889870961170000016225092050039412096_">
	<g>
		<text transform="matrix(0.9999 1.570698e-02 -1.570698e-02 0.9999 614.1146 196.9113)" class="st2 st0 st3">C</text>
	</g>
</g>
<g id="ID000012_00000142134033270696301130000015314485968854640264_">
	<text transform="matrix(0.9999 1.570698e-02 -1.570698e-02 0.9999 556.4244 135.5372)" class="st5 st0 st3">G</text>
</g>
<g id="ID000012_00000053524832670776437520000004168570014825107894_">
	<text transform="matrix(0.9999 1.570698e-02 -1.570698e-02 0.9999 545.0464 170.5822)" class="st5 st0 st3">G</text>
</g>
<g id="ID000012_00000147913128270938137050000014242710206724923321_">
	<g>
		<text transform="matrix(0.9999 1.570698e-02 -1.570698e-02 0.9999 593.0233 213.4494)" class="st2 st0 st3">G</text>
	</g>
</g>
<g id="ID000012_00000013186135501660842140000004199964462320452280_">
	<g>
		<g>
			<text transform="matrix(0.9999 1.570698e-02 -1.570698e-02 0.9999 679.0197 263.4945)" class="st2 st0 st3">G</text>
		</g>
	</g>
</g>
<g id="ID000012_00000000218820446274955410000002757922195916260017_">
	<g>
		<text transform="matrix(0.9999 1.570698e-02 -1.570698e-02 0.9999 677.8428 281.8145)" class="st2 st0 st3">G</text>
	</g>
</g>
<g id="ID000012_00000132774534702515302270000009935930856842275256_">
	<text transform="matrix(0.9999 1.570698e-02 -1.570698e-02 0.9999 710.6024 356.0317)" class="st5 st0 st3">G</text>
</g>
<g id="ID000012_00000168794931359023309940000017687366903669037720_">
	<text transform="matrix(0.9999 1.570698e-02 -1.570698e-02 0.9999 740.6636 343.3981)" class="st5 st0 st3">G</text>
</g>
<g id="ID000012_00000030471819288527392650000002957311845511278268_">
	<g>
		<g>
			<text transform="matrix(0.9999 1.570698e-02 -1.570698e-02 0.9999 750.4539 389.3535)" class="st5 st0 st3">G</text>
		</g>
	</g>
</g>
<g id="ID000012_00000113349588725940084610000008825628165709601721_">
	<g>
		<g>
			<text transform="matrix(0.9999 1.570698e-02 -1.570698e-02 0.9999 696.2764 372.2424)" class="st5 st0 st3">G</text>
		</g>
	</g>
</g>
<g id="ID000012_00000043416817641207129170000006583469890394973841_">
	<g>
		<g>
			<text transform="matrix(0.9999 1.570698e-02 -1.570698e-02 0.9999 638.0701 292.2035)" class="st2 st0 st3">G</text>
		</g>
	</g>
</g>
<g id="ID000012_00000107576033581562340560000015931858590852430742_">
	<g>
		<g>
			<text transform="matrix(0.9999 1.570698e-02 -1.570698e-02 0.9999 651.4551 313.9107)" class="st5 st0 st3">G</text>
		</g>
	</g>
</g>
<g id="ID000012_00000007391907483106323210000006915675721349086613_">
	<g>
		<text transform="matrix(0.9999 1.570698e-02 -1.570698e-02 0.9999 626.2745 210.1646)" class="st2 st0 st3">C</text>
	</g>
</g>
<g id="ID000012_00000150818623016719617660000003497528171324173752_">
	<g>
		<text transform="matrix(0.9999 1.570698e-02 -1.570698e-02 0.9999 615.7399 242.9298)" class="st2 st0 st3">C</text>
	</g>
</g>
<g id="ID000012_00000043450381570643295980000003135628980860480652_">
	<g>
		<text transform="matrix(0.9999 1.570698e-02 -1.570698e-02 0.9999 648.8947 243.0851)" class="st2 st0 st3">C</text>
	</g>
</g>
<g id="ID000012_00000050637061259113706240000013374771430616454826_">
	<g>
		<g>
			<text transform="matrix(0.9999 1.570698e-02 -1.570698e-02 0.9999 726.5186 301.0126)" class="st5 st0 st3">C</text>
		</g>
	</g>
</g>
<g id="ID000012_00000085219791329218939690000000767673309808443788_">
	<text transform="matrix(0.9999 1.570698e-02 -1.570698e-02 0.9999 726.7134 366.5726)" class="st5 st0 st3">C</text>
</g>
<g id="ID000012_00000018929854818530500140000007889815002395393207_">
	<g>
		<text transform="matrix(0.9999 1.570698e-02 -1.570698e-02 0.9999 658.5201 298.3998)" class="st2 st0 st3">C</text>
	</g>
</g>
<g id="ID000012_00000029745042802059704390000007113993074781096862_">
	<g>
		<text transform="matrix(0.9999 1.570698e-02 -1.570698e-02 0.9999 605.1832 226.7028)" class="st2 st0 st3">G</text>
	</g>
</g>
<g id="ID000012_00000152979042698530035330000002350505923167650462_">
	<g>
		<text transform="matrix(0.9999 1.570698e-02 -1.570698e-02 0.9999 635.1685 227.0213)" class="st2 st0 st3">G</text>
	</g>
</g>
<g id="ID000012_00000052827145387317122070000015829944236506089899_">
	<g>
		<text transform="matrix(0.9999 1.570698e-02 -1.570698e-02 0.9999 625.1942 259.0844)" class="st2 st0 st3">G</text>
	</g>
</g>
<g id="ID000012_00000029742396377470908220000014279715211588011181_">
	<text transform="matrix(0.9999 1.570698e-02 -1.570698e-02 0.9999 532.0278 100.7811)" class="st5 st0 st3">G</text>
</g>
<g id="ID000012_00000062898371421671042650000001156599652988202393_">
	<text transform="matrix(0.9999 1.570698e-02 -1.570698e-02 0.9999 468.4641 58.7422)" class="st2 st0 st3">C</text>
</g>
<g id="ID000012_00000065044777109177867980000007063487310691881352_">
	<g>
		<text transform="matrix(0.9999 1.570698e-02 -1.570698e-02 0.9999 403.2815 115.8552)" class="st5 st0 st3">C</text>
	</g>
</g>
<g id="ID000012_00000116233922853432100690000003938562858231471546_">
	<text transform="matrix(0.9999 1.570698e-02 -1.570698e-02 0.9999 270.4481 135.6559)" class="st5 st0 st3">C</text>
</g>
<g id="ID000012_00000173841880096742355070000007059545802931896254_">
	<g>
		<text transform="matrix(0.9999 1.570698e-02 -1.570698e-02 0.9999 221.6976 193.9489)" class="st2 st0 st3">C</text>
	</g>
</g>
<g id="ID000012_00000049208768575287795000000007000417532762292127_">
	<text transform="matrix(0.9999 1.570698e-02 -1.570698e-02 0.9999 241.6492 219.5669)" class="st4 st0 st3">C</text>
</g>
<g id="ID000012_00000113349860978133468300000013190998738490788789_">
	<text transform="matrix(0.9999 1.570698e-02 -1.570698e-02 0.9999 69.7653 207.3571)" class="st5 st0 st3">C</text>
</g>
<g id="ID000012_00000030479301092880501580000005608303689038661504_">
	<text transform="matrix(0.9999 1.570698e-02 -1.570698e-02 0.9999 53.7722 219.9182)" class="st6 st0 st3">C</text>
</g>
<g id="ID000012_00000158720162487004363760000000152717937067424408_">
	<text transform="matrix(0.9999 1.570698e-02 -1.570698e-02 0.9999 29.333 175.0415)" class="st6 st0 st3">C</text>
</g>
<g id="ID000012_00000110441063076991824700000014476246927554447531_">
	<text transform="matrix(0.9999 1.570665e-02 -1.570665e-02 0.9999 15.3696 201.2194)" class="st6 st0 st3">C</text>
</g>
<g id="ID000012_00000052783942435988806080000008503046350172343198_">
	<text transform="matrix(0.9999 1.570698e-02 -1.570698e-02 0.9999 78.9745 173.3396)" class="st5 st0 st3">C</text>
</g>
<g id="ID000012_00000136374476934590356600000003441700297082395067_">
	<text transform="matrix(0.9999 1.570698e-02 -1.570698e-02 0.9999 100.972 165.2659)" class="st5 st0 st3">G</text>
</g>
<g id="ID000012_00000054945261857599244170000015741986260933375655_">
	<text transform="matrix(0.9999 1.570698e-02 -1.570698e-02 0.9999 87.9222 200.0003)" class="st5 st0 st3">G</text>
</g>
<g id="ID000012_00000022557900942595710850000001700366433096540065_">
	<text transform="matrix(0.9999 1.570698e-02 -1.570698e-02 0.9999 112.5445 193.9486)" class="st5 st0 st3">C</text>
</g>
<g id="ID000018_00000104707097969389953970000009088350760481935533_">
	<text transform="matrix(0.9998 1.779470e-02 -1.779470e-02 0.9998 196.7 242.9294)" class="st0 st7">5’</text>
</g>
<g id="ID000018_00000054229788772175650710000009096838164884966548_">
	<text transform="matrix(0.9998 1.779470e-02 -1.779470e-02 0.9998 257.0969 231.0458)" class="st0 st7">3’</text>
</g>
<line class="st8" x1="69.8" y1="181.6" x2="73.6" y2="193.9"/>
<line class="st8" x1="87.4" y1="175" x2="91.2" y2="187.4"/>
<line class="st8" x1="110.6" y1="167.9" x2="114.5" y2="180.3"/>
<line class="st8" x1="128" y1="159.1" x2="131.8" y2="171.4"/>
<line class="st8" x1="144.6" y1="148.2" x2="148.5" y2="160.6"/>
<line class="st8" x1="211.7" y1="119" x2="213.6" y2="127.9"/>
<line class="st8" x1="233.4" y1="117" x2="235.3" y2="125.9"/>
<line class="st8" x1="252.6" y1="113.7" x2="254.5" y2="122.6"/>
<line class="st8" x1="272.5" y1="110.1" x2="274.4" y2="118.9"/>
<line class="st8" x1="290.6" y1="106.8" x2="292.5" y2="115.7"/>
<line class="st8" x1="307.4" y1="103.2" x2="309.3" y2="112"/>
<line class="st8" x1="323.7" y1="99.2" x2="325.6" y2="108"/>
<line class="st8" x1="336.9" y1="96.4" x2="338.8" y2="105.2"/>
<line class="st8" x1="375.6" y1="87" x2="377.6" y2="95.8"/>
<line class="st8" x1="421.7" y1="80.5" x2="423.6" y2="89.3"/>
<line class="st8" x1="440.9" y1="77.3" x2="442.8" y2="86.2"/>
<line class="st8" x1="459.4" y1="72.3" x2="461.3" y2="81.1"/>
<line class="st8" x1="479.3" y1="66.9" x2="481.2" y2="75.8"/>
<line class="st8" x1="209.8" y1="179.5" x2="203.2" y2="188.3"/>
<line class="st8" x1="530.3" y1="101.9" x2="521.8" y2="107.5"/>
<line class="st8" x1="541.8" y1="119.2" x2="533.3" y2="124.8"/>
<line class="st8" x1="554.5" y1="136.9" x2="546" y2="142.6"/>
<line class="st8" x1="568.6" y1="153.2" x2="560.1" y2="158.9"/>
<line class="st8" x1="614.1" y1="198.3" x2="606.5" y2="204"/>
<line class="st8" x1="625.2" y1="211.3" x2="617.6" y2="217"/>
<line class="st8" x1="647.1" y1="244.6" x2="639.5" y2="250.3"/>
<line class="st8" x1="658.9" y1="259.1" x2="651.3" y2="264.8"/>
<line class="st8" x1="677.8" y1="281.8" x2="670.2" y2="287.5"/>
<line class="st8" x1="724.2" y1="336.5" x2="719.9" y2="343.4"/>
<line class="st8" x1="742.8" y1="347.9" x2="738.5" y2="354.8"/>
<line class="st8" x1="635.7" y1="228.2" x2="628.1" y2="233.9"/>
<line class="st8" x1="521.4" y1="82.3" x2="512.9" y2="87.9"/>
<line class="st8" x1="196.7" y1="167.5" x2="190.1" y2="176.3"/>
<line class="st8" x1="220.5" y1="195.6" x2="213.9" y2="204.4"/>
<text transform="matrix(1 0 0 1 78.9743 231.0457)" class="st0 st9">10</text>
<text transform="matrix(1 0 0 1 422.65 39.7999)" class="st0 st9">40</text>
<text transform="matrix(1 0 0 1 698.5317 264.8004)" class="st0 st9">60</text>
<line class="st8" x1="79" y1="208" x2="84.2" y2="216.2"/>
<line class="st8" x1="432.4" y1="43.5" x2="434.3" y2="52.4"/>
<line class="st8" x1="698.5" y1="266" x2="689.7" y2="271.2"/>
<text transform="matrix(1 0 0 1 614.1 301.0126)" class="st0 st9">80</text>
<text transform="matrix(1 0 0 1 358.4201 148.1998)" class="st0 st9">100</text>
<line class="st8" x1="636.3" y1="291.1" x2="627.5" y2="296.3"/>
<line class="st8" x1="364.4" y1="127.5" x2="366.4" y2="136.3"/>
</svg>
