<?xml version="1.0" encoding="utf-8"?>
<!-- Generator: Adobe Illustrator 25.2.0, SVG Export Plug-In . SVG Version: 6.00 Build 0)  -->
<svg version="1.1" id="图层_1" xmlns="http://www.w3.org/2000/svg" xmlns:xlink="http://www.w3.org/1999/xlink" x="0px" y="0px"
	 viewBox="0 0 800 400" style="enable-background:new 0 0 800 400;" xml:space="preserve">
<style type="text/css">
	.st0{fill:#B83233;}
	.st1{font-family:'ArialMT';}
	.st2{font-size:26.8211px;}
	.st3{fill:#F17D07;}
	.st4{fill:#2EA103;}
	.st5{fill:none;stroke:#000000;stroke-miterlimit:1.11;}
	.st6{font-size:19.2881px;}
	.st7{fill:#084595;}
	.st8{fill:none;stroke:#000000;stroke-width:1.19;stroke-miterlimit:1.11;}
	.st9{stroke:#000000;stroke-width:0.14;stroke-miterlimit:1.11;}
	.st10{font-size:21.4312px;}
	.st11{font-size:20px;}
</style>
<g id="ID000002">
	<g>
		<text transform="matrix(1 0 0 1 261.3677 197.7533)" class="st0 st1 st2">G</text>
	</g>
</g>
<g id="ID000003">
	<g>
		<text transform="matrix(1 0 0 1 288.3618 197.7533)" class="st0 st1 st2">G</text>
	</g>
</g>
<g id="ID000004">
	<g>
		<text transform="matrix(1 0 0 1 316.835 197.7508)" class="st0 st1 st2">A</text>
	</g>
</g>
<g id="ID000005">
	<text transform="matrix(1 0 0 1 342.3457 197.7533)" class="st3 st1 st2">G</text>
</g>
<g id="ID000006">
	<text transform="matrix(1 0 0 1 371.5894 173.0004)" class="st4 st1 st2">G</text>
</g>
<g id="ID000007">
	<g>
		<text transform="matrix(1 0 0 1 395.6025 149.7367)" class="st4 st1 st2">fU</text>
	</g>
</g>
<g id="ID000008">
	<g>
		<text transform="matrix(1 0 0 1 457.412 252.1943)" class="st4 st1 st2">A</text>
	</g>
</g>
<g id="ID000009">
	<text transform="matrix(1 0 0 1 339.3667 255.4564)" class="st0 st1 st2">fC</text>
</g>
<g id="ID000010">
	<line class="st5" x1="357.8" y1="262.6" x2="357.8" y2="280.6"/>
</g>
<g id="ID000011">
	<text transform="matrix(1 0 0 1 346.418 304.0101)" class="st1 st6">20</text>
</g>
<g id="ID000012">
	<text transform="matrix(1 0 0 1 312.3745 255.4564)" class="st0 st1 st2">fU</text>
</g>
<g id="ID000013">
	<text transform="matrix(1 0 0 1 285.3828 255.4564)" class="st0 st1 st2">fC</text>
</g>
<g id="ID000014">
	<text transform="matrix(1 0 0 1 258.3887 255.4564)" class="st0 st1 st2">fC</text>
</g>
<g id="ID000016">
	<line class="st5" x1="271.1" y1="201.4" x2="271.1" y2="230"/>
</g>
<g id="ID000017">
	<line class="st5" x1="298.1" y1="201.4" x2="298.1" y2="230"/>
</g>
<g id="ID000018">
	<line class="st5" x1="325.1" y1="201.4" x2="325.1" y2="230"/>
</g>
<g id="ID000019">
	<line class="st5" x1="352.1" y1="201.4" x2="352.1" y2="230"/>
</g>
<g id="ID000023">
	<text transform="matrix(1 0 0 1 436.8252 150.5082)" class="st3 st1 st2">G</text>
</g>
<g id="ID000024">
	<g>
		<text transform="matrix(1 0 0 1 460.8271 174.4794)" class="st4 st1 st2">fC</text>
	</g>
</g>
<g id="ID000025">
	<text transform="matrix(1 0 0 1 474.3301 201.472)" class="st7 st1 st2">fU</text>
</g>
<g id="ID000026">
	<text transform="matrix(1 0 0 1 501.3223 201.472)" class="st7 st1 st2">fC</text>
</g>
<g id="ID000027">
	<line class="st5" x1="519.7" y1="172.6" x2="519.7" y2="154.6"/>
</g>
<g id="ID000028">
	<text transform="matrix(1 0 0 1 505.874 148.974)" class="st1 st6">10</text>
</g>
<g id="ID000029">
	<text transform="matrix(1 0 0 1 528.3145 201.472)" class="st7 st1 st2">fC</text>
</g>
<g id="ID000030">
	<g>
		<text transform="matrix(1 0 0 1 565.0371 184.2518)" class="st7 st1 st2">G</text>
	</g>
</g>
<g id="ID000031">
	<g>
		<text transform="matrix(1 0 0 1 593.5 211.2523)" class="st7 st1 st2">A</text>
	</g>
</g>
<g id="ID000032">
	<g>
		<text transform="matrix(1 0 0 1 593.5 238.2445)" class="st7 st1 st2">A</text>
	</g>
</g>
<g id="ID000033">
	<g>
		<text transform="matrix(1 0 0 1 566.5186 258.4867)" class="st7 st1 st2">A</text>
	</g>
</g>
<g id="ID000034">
	<g>
		<text transform="matrix(1 0 0 1 531.2939 251.7386)" class="st7 st1 st2">G</text>
	</g>
</g>
<g id="ID000035">
	<g>
		<text transform="matrix(1 0 0 1 504.3018 251.7386)" class="st7 st1 st2">G</text>
	</g>
</g>
<g id="ID000036">
	<g>
		<text transform="matrix(1 0 0 1 478.791 251.7357)" class="st7 st1 st2">A</text>
	</g>
</g>
<g id="ID000037">
	<line class="st5" x1="487.1" y1="201.4" x2="487.1" y2="230"/>
</g>
<g id="ID000038">
	<line class="st5" x1="514.1" y1="201.4" x2="514.1" y2="230"/>
</g>
<g id="ID000039">
	<line class="st5" x1="541" y1="201.4" x2="541" y2="230"/>
</g>
<g id="ID000041">
	<line class="st8" x1="456" y1="244.6" x2="368.6" y2="244.6"/>
</g>
<g id="ID000042">
	<polygon class="st9" points="418.5,249.4 415.8,247 413.1,246.2 410.4,245.8 405,244.6 410.4,243.4 413.1,243 415.8,242.1 
		418.5,239.7 	"/>
</g>
<text transform="matrix(1 0 0 1 242.7695 168.6107)" class="st1 st10">5</text>
<text transform="matrix(1 0 0 1 254.6855 168.6107)" class="st1 st10">’</text>
<text transform="matrix(1 0 0 1 239.9005 277.6293)" class="st1 st10">3</text>
<text transform="matrix(1 0 0 1 251.8159 277.6293)" class="st1 st10">’</text>
<text transform="matrix(1 0 0 1 367.9826 70.9875)" class="st1 st11">Apt8 aptamer</text>
<text transform="matrix(1 0 0 1 545.3398 376.2299)" class="st1 st11">fC/fU: 2′-F substituents</text>
</svg>
