<?xml version="1.0" encoding="UTF-8"?>
<svg id="_图层_1" data-name="图层 1" xmlns="http://www.w3.org/2000/svg" version="1.1" viewBox="0 0 800 400">
  <defs>
    <style>
      .cls-1 {
        fill: #242424;
        font-size: 6px;
      }

      .cls-1, .cls-2, .cls-3, .cls-4, .cls-5, .cls-6, .cls-7 {
        font-family: ArialMT, Arial;
      }

      .cls-2 {
        fill: #ff870a;
      }

      .cls-2, .cls-3, .cls-5, .cls-7 {
        font-size: 10px;
      }

      .cls-3 {
        fill: #80db9e;
      }

      .cls-8 {
        stroke: #242424;
      }

      .cls-8, .cls-9 {
        fill: none;
        stroke-miterlimit: 10;
        stroke-width: .5px;
      }

      .cls-10, .cls-6 {
        isolation: isolate;
      }

      .cls-4 {
        font-size: 10.2px;
      }

      .cls-4, .cls-7 {
        fill: #09fefe;
      }

      .cls-5 {
        fill: #c2c2ff;
      }

      .cls-9 {
        stroke: #000;
      }

      .cls-6 {
        fill: #000;
        font-size: 25px;
      }
    </style>
  </defs>
  <text class="cls-5" transform="translate(287.9 175.1)"><tspan x="0" y="0">G</tspan></text>
  <text class="cls-5" transform="translate(288.3 165)"><tspan x="0" y="0">G</tspan></text>
  <text class="cls-5" transform="translate(291.1 155.2)"><tspan x="0" y="0">A</tspan></text>
  <text class="cls-5" transform="translate(296 146.4)"><tspan x="0" y="0">A</tspan></text>
  <text class="cls-5" transform="translate(302.9 138.9)"><tspan x="0" y="0">G</tspan></text>
  <text class="cls-5" transform="translate(314.5 134.1)"><tspan x="0" y="0">A</tspan></text>
  <text class="cls-3" transform="translate(325.6 133)"><tspan x="0" y="0">A</tspan></text>
  <text class="cls-3" transform="translate(325.6 122.5)"><tspan x="0" y="0">A</tspan></text>
  <text class="cls-3" transform="translate(325.6 111.9)"><tspan x="0" y="0">G</tspan></text>
  <text class="cls-3" transform="translate(325.6 101.3)"><tspan x="0" y="0">A</tspan></text>
  <text class="cls-3" transform="translate(325.6 90.8)"><tspan x="0" y="0">G</tspan></text>
  <text class="cls-3" transform="translate(325.6 77.9)"><tspan x="0" y="0">G</tspan></text>
  <text class="cls-3" transform="translate(325.6 67.3)"><tspan x="0" y="0">U</tspan></text>
  <text class="cls-3" transform="translate(325.6 56.8)"><tspan x="0" y="0">C</tspan></text>
  <text class="cls-5" transform="translate(326.1 44.5)"><tspan x="0" y="0">U</tspan></text>
  <text class="cls-5" transform="translate(335.9 36.5)"><tspan x="0" y="0">G</tspan></text>
  <text class="cls-5" transform="translate(347 44.6)"><tspan x="0" y="0">A</tspan></text>
  <text class="cls-3" transform="translate(346.2 56.8)"><tspan x="0" y="0">G</tspan></text>
  <text class="cls-3" transform="translate(346.2 67.3)"><tspan x="0" y="0">A</tspan></text>
  <text class="cls-3" transform="translate(346.2 77.9)"><tspan x="0" y="0">C</tspan></text>
  <text class="cls-5" transform="translate(358.1 86.7)"><tspan x="0" y="0">A</tspan></text>
  <text class="cls-3" transform="translate(346.2 90.8)"><tspan x="0" y="0">U</tspan></text>
  <text class="cls-3" transform="translate(346.2 101.3)"><tspan x="0" y="0">U</tspan></text>
  <text class="cls-3" transform="translate(346.2 111.9)"><tspan x="0" y="0">C</tspan></text>
  <text class="cls-3" transform="translate(346.2 122.5)"><tspan x="0" y="0">U</tspan></text>
  <text class="cls-3" transform="translate(346.2 133)"><tspan x="0" y="0">U</tspan></text>
  <text class="cls-5" transform="translate(357 134.4)"><tspan x="0" y="0">A</tspan></text>
  <text class="cls-5" transform="translate(367 141.2)"><tspan x="0" y="0">A</tspan></text>
  <text class="cls-5" transform="translate(378.2 150.2)"><tspan x="0" y="0">A</tspan></text>
  <text class="cls-5" transform="translate(382.5 160.5)"><tspan x="0" y="0">A</tspan></text>
  <text class="cls-5" transform="translate(384 171.7)"><tspan x="0" y="0">A</tspan></text>
  <text class="cls-5" transform="translate(382.5 182.9)"><tspan x="0" y="0">C</tspan></text>
  <text class="cls-2" transform="translate(375.1 198.4)"><tspan x="0" y="0">G</tspan></text>
  <text class="cls-2" transform="translate(382.6 205.9)"><tspan x="0" y="0">G</tspan></text>
  <text class="cls-2" transform="translate(390 213.4)"><tspan x="0" y="0">C</tspan></text>
  <text class="cls-2" transform="translate(397.5 220.8)"><tspan x="0" y="0">C</tspan></text>
  <text class="cls-2" transform="translate(405 228.3)"><tspan x="0" y="0">C</tspan></text>
  <text class="cls-2" transform="translate(412.4 235.8)"><tspan x="0" y="0">A</tspan></text>
  <text class="cls-2" transform="translate(419.9 243.3)"><tspan x="0" y="0">U</tspan></text>
  <text class="cls-2" transform="translate(427.4 250.7)"><tspan x="0" y="0">C</tspan></text>
  <text class="cls-2" transform="translate(434.9 258.2)"><tspan x="0" y="0">G</tspan></text>
  <text class="cls-2" transform="translate(442.3 265.7)"><tspan x="0" y="0">U</tspan></text>
  <text class="cls-2" transform="translate(449.8 273.1)"><tspan x="0" y="0">U</tspan></text>
  <text class="cls-2" transform="translate(457.3 280.6)"><tspan x="0" y="0">U</tspan></text>
  <text class="cls-2" transform="translate(464.7 288.1)"><tspan x="0" y="0">G</tspan></text>
  <text class="cls-2" transform="translate(472.2 295.5)"><tspan x="0" y="0">G</tspan></text>
  <text class="cls-2" transform="translate(479.7 303)"><tspan x="0" y="0">C</tspan></text>
  <text class="cls-2" transform="translate(487.1 310.5)"><tspan x="0" y="0">G</tspan></text>
  <text class="cls-2" transform="translate(494.6 318)"><tspan x="0" y="0">C</tspan></text>
  <text class="cls-2" transform="translate(502.1 325.4)"><tspan x="0" y="0">U</tspan></text>
  <text class="cls-2" transform="translate(509.6 332.9)"><tspan x="0" y="0">G</tspan></text>
  <text class="cls-2" transform="translate(517 340.4)"><tspan x="0" y="0">U</tspan></text>
  <text class="cls-5" transform="translate(527.7 338.5)"><tspan x="0" y="0">G</tspan></text>
  <text class="cls-5" transform="translate(539.9 338.6)"><tspan x="0" y="0">G</tspan></text>
  <text class="cls-5" transform="translate(548.5 342)"><tspan x="0" y="0">G</tspan></text>
  <text class="cls-5" transform="translate(557.8 347.3)"><tspan x="0" y="0">A</tspan></text>
  <text class="cls-5" transform="translate(562.1 356.6)"><tspan x="0" y="0">G</tspan></text>
  <text class="cls-5" transform="translate(563 366.9)"><tspan x="0" y="0">U</tspan></text>
  <text class="cls-5" transform="translate(560.4 376.8)"><tspan x="0" y="0">G</tspan></text>
  <text class="cls-5" transform="translate(554.5 385.3)"><tspan x="0" y="0">G</tspan></text>
  <text class="cls-5" transform="translate(547.1 391.2)"><tspan x="0" y="0">A</tspan></text>
  <text class="cls-5" transform="translate(536.1 393.8)"><tspan x="0" y="0">G</tspan></text>
  <text class="cls-5" transform="translate(525.8 392.9)"><tspan x="0" y="0">G</tspan></text>
  <text class="cls-5" transform="translate(516.5 388.6)"><tspan x="0" y="0">G</tspan></text>
  <text class="cls-5" transform="translate(509.2 381.3)"><tspan x="0" y="0">U</tspan></text>
  <text class="cls-5" transform="translate(504.9 372)"><tspan x="0" y="0">G</tspan></text>
  <text class="cls-5" transform="translate(498.6 364.7)"><tspan x="0" y="0">G</tspan></text>
  <text class="cls-2" transform="translate(503.6 355.8)"><tspan x="0" y="0">A</tspan></text>
  <text class="cls-2" transform="translate(496.8 348.7)"><tspan x="0" y="0">U</tspan></text>
  <text class="cls-2" transform="translate(489.6 341.9)"><tspan x="0" y="0">G</tspan></text>
  <text class="cls-2" transform="translate(482.1 334.4)"><tspan x="0" y="0">G</tspan></text>
  <text class="cls-2" transform="translate(474.7 327)"><tspan x="0" y="0">U</tspan></text>
  <text class="cls-2" transform="translate(467.2 319.5)"><tspan x="0" y="0">G</tspan></text>
  <text class="cls-2" transform="translate(459.7 312)"><tspan x="0" y="0">U</tspan></text>
  <text class="cls-2" transform="translate(452.3 304.5)"><tspan x="0" y="0">U</tspan></text>
  <text class="cls-2" transform="translate(444.8 297.1)"><tspan x="0" y="0">A</tspan></text>
  <text class="cls-2" transform="translate(437.3 289.6)"><tspan x="0" y="0">A</tspan></text>
  <text class="cls-2" transform="translate(429.9 282.1)"><tspan x="0" y="0">G</tspan></text>
  <text class="cls-2" transform="translate(422.4 274.7)"><tspan x="0" y="0">C</tspan></text>
  <text class="cls-2" transform="translate(414.9 267.2)"><tspan x="0" y="0">G</tspan></text>
  <text class="cls-2" transform="translate(407.4 259.7)"><tspan x="0" y="0">A</tspan></text>
  <text class="cls-2" transform="translate(400 252.3)"><tspan x="0" y="0">U</tspan></text>
  <text class="cls-2" transform="translate(392.5 244.8)"><tspan x="0" y="0">U</tspan></text>
  <text class="cls-2" transform="translate(385 237.3)"><tspan x="0" y="0">G</tspan></text>
  <text class="cls-2" transform="translate(377.6 229.8)"><tspan x="0" y="0">G</tspan></text>
  <text class="cls-2" transform="translate(370.1 222.4)"><tspan x="0" y="0">C</tspan></text>
  <text class="cls-2" transform="translate(362.6 214.9)"><tspan x="0" y="0">U</tspan></text>
  <text class="cls-5" transform="translate(351.2 214.9)"><tspan x="0" y="0">U</tspan></text>
  <text class="cls-5" transform="translate(341.3 214)"><tspan x="0" y="0">C</tspan></text>
  <text class="cls-5" transform="translate(330.6 214.6)"><tspan x="0" y="0">U</tspan></text>
  <text class="cls-5" transform="translate(319.7 212.4)"><tspan x="0" y="0">G</tspan></text>
  <text class="cls-7" transform="translate(307.2 210.8)"><tspan x="0" y="0">G</tspan></text>
  <text class="cls-4" transform="translate(300.4 216.7)"><tspan x="0" y="0">A</tspan></text>
  <text class="cls-7" transform="translate(293.2 223.8)"><tspan x="0" y="0">G</tspan></text>
  <text class="cls-7" transform="translate(285.8 231.3)"><tspan x="0" y="0">U</tspan></text>
  <text class="cls-5" transform="translate(284.7 242.6)"><tspan x="0" y="0">U</tspan></text>
  <text class="cls-5" transform="translate(277.7 249.7)"><tspan x="0" y="0">G</tspan></text>
  <text class="cls-5" transform="translate(267.8 251.3)"><tspan x="0" y="0">A</tspan></text>
  <text class="cls-5" transform="translate(258.9 246.7)"><tspan x="0" y="0">C</tspan></text>
  <text class="cls-5" transform="translate(254.3 237.8)"><tspan x="0" y="0">G</tspan></text>
  <text class="cls-5" transform="translate(255.9 227.9)"><tspan x="0" y="0">U</tspan></text>
  <text class="cls-5" transform="translate(263 220.9)"><tspan x="0" y="0">U</tspan></text>
  <text class="cls-7" transform="translate(270.3 213.8)"><tspan x="0" y="0">G</tspan></text>
  <text class="cls-7" transform="translate(277.8 206.4)"><tspan x="0" y="0">C</tspan></text>
  <text class="cls-7" transform="translate(285.2 198.9)"><tspan x="0" y="0">U</tspan></text>
  <text class="cls-7" transform="translate(292.7 191.4)"><tspan x="0" y="0">U</tspan></text>
  <text class="cls-1" transform="translate(282.7 174.4)"><tspan x="0" y="0">5’</tspan></text>
  <text class="cls-1" transform="translate(288.5 187.2)"><tspan x="0" y="0">3’</tspan></text>
  <text class="cls-1" transform="translate(361.5 76.1)"><tspan x="0" y="0">20</tspan></text>
  <text class="cls-1" transform="translate(436.7 237.9)"><tspan x="0" y="0">40</tspan></text>
  <text class="cls-1" transform="translate(565.2 395)"><tspan x="0" y="0">60</tspan></text>
  <text class="cls-1" transform="translate(406.4 275.9)"><tspan x="0" y="0">80</tspan></text>
  <text class="cls-1" transform="translate(239.9 246.7)"><tspan x="0" y="0">100</tspan></text>
  <line class="cls-9" x1="334.4" y1="98.1" x2="344.1" y2="98.1"/>
  <line class="cls-9" x1="334.4" y1="86.1" x2="344.1" y2="86.1"/>
  <line class="cls-9" x1="301.8" y1="194" x2="308" y2="201.4"/>
  <line class="cls-9" x1="374.7" y1="198.6" x2="369" y2="206.5"/>
  <line class="cls-9" x1="383.7" y1="206.7" x2="378.1" y2="214.6"/>
  <line class="cls-9" x1="390.3" y1="213.6" x2="384.7" y2="221.5"/>
  <line class="cls-9" x1="398" y1="221" x2="392.4" y2="228.9"/>
  <line class="cls-9" x1="404.5" y1="226.9" x2="398.9" y2="234.8"/>
  <line class="cls-9" x1="411.1" y1="233.7" x2="405.5" y2="241.6"/>
  <line class="cls-9" x1="418.8" y1="243.3" x2="413.2" y2="251.2"/>
  <line class="cls-9" x1="425.7" y1="250.3" x2="420.1" y2="258.2"/>
  <line class="cls-9" x1="434.2" y1="257.8" x2="428.6" y2="265.7"/>
  <line class="cls-9" x1="441.6" y1="266" x2="436" y2="273.9"/>
  <line class="cls-9" x1="448.7" y1="273.1" x2="443.1" y2="281"/>
  <line class="cls-9" x1="457.1" y1="280.2" x2="451.5" y2="288.1"/>
  <line class="cls-9" x1="464.3" y1="287.6" x2="458.7" y2="295.5"/>
  <line class="cls-9" x1="471.8" y1="295.1" x2="466.1" y2="303"/>
  <line class="cls-9" x1="479.2" y1="302.1" x2="473.6" y2="310"/>
  <line class="cls-9" x1="486.7" y1="310.5" x2="481.1" y2="318.4"/>
  <line class="cls-9" x1="494.9" y1="318.4" x2="489.3" y2="326.3"/>
  <line class="cls-9" x1="503.5" y1="326.3" x2="497.9" y2="334.2"/>
  <line class="cls-9" x1="508.6" y1="331.7" x2="503" y2="339.6"/>
  <line class="cls-9" x1="515.9" y1="339.6" x2="510.2" y2="347.5"/>
  <line class="cls-9" x1="295.5" y1="197.7" x2="301.8" y2="205.1"/>
  <line class="cls-9" x1="288.5" y1="205.7" x2="294.8" y2="213.1"/>
  <line class="cls-9" x1="280.4" y1="214" x2="286.7" y2="221.4"/>
  <line class="cls-9" x1="334.1" y1="118" x2="343.8" y2="118"/>
  <line class="cls-9" x1="334.1" y1="129.5" x2="343.8" y2="129.5"/>
  <line class="cls-9" x1="334.1" y1="108" x2="343.8" y2="108"/>
  <line class="cls-9" x1="334.4" y1="63" x2="344.1" y2="63"/>
  <line class="cls-9" x1="334.4" y1="74.1" x2="344.1" y2="74.1"/>
  <line class="cls-9" x1="334.4" y1="51" x2="344.1" y2="51"/>
  <line class="cls-8" x1="361.2" y1="74.1" x2="352.8" y2="74.1"/>
  <g class="cls-10">
    <g class="cls-10">
      <g class="cls-10">
        <g class="cls-10">
          <g class="cls-10">
            <g class="cls-10">
              <g class="cls-10">
                <text class="cls-6" transform="translate(118.7 23.2)"><tspan x="0" y="0">Interleukin-6 receptor domain 3 (IL-6R D3) -aptamer</tspan></text>
              </g>
            </g>
          </g>
        </g>
      </g>
    </g>
  </g>
  <line class="cls-8" x1="437.7" y1="238.4" x2="433.7" y2="243.5"/>
  <line class="cls-8" x1="566.1" y1="389.9" x2="561.6" y2="385.3"/>
  <line class="cls-8" x1="414.8" y1="265.8" x2="410.8" y2="270.9"/>
  <line class="cls-8" x1="252.4" y1="235.8" x2="248.5" y2="240.9"/>
</svg>