<svg id="_图层_1" data-name=" 图层 1" xmlns="http://www.w3.org/2000/svg" viewBox="0 0 800 400"><defs><style>.cls-1,.cls-10,.cls-14,.cls-2,.cls-3,.cls-4,.cls-5,.cls-6,.cls-7,.cls-8,.cls-9{isolation:isolate;font-family:ArialMT, Arial;}.cls-1,.cls-2,.cls-3,.cls-4,.cls-5,.cls-6,.cls-7,.cls-9{font-size:15.53px;}.cls-1,.cls-2,.cls-3{fill:#b83233;}.cls-2,.cls-4,.cls-9{letter-spacing:-0.06em;}.cls-3,.cls-5{letter-spacing:-0.06em;}.cls-4,.cls-5,.cls-6{fill:#084595;}.cls-7,.cls-8,.cls-9{fill:#cf3e7d;}.cls-8{font-size:15.84px;letter-spacing:-0.06em;}.cls-10,.cls-14{font-size:20px;}.cls-10{fill:#242424;}.cls-11{letter-spacing:-0.04em;}.cls-12,.cls-13{fill:none;stroke-miterlimit:10;}.cls-12{stroke:#000;}.cls-13{stroke:#242424;}</style></defs><text class="cls-1" transform="translate(198.06 261.98)">G</text><text class="cls-1" transform="translate(187.41 250.45)">G</text><text class="cls-2" transform="translate(179.97 237.22)">A</text><text class="cls-2" transform="translate(175.69 222.18)">A</text><text class="cls-1" transform="translate(174.78 205.76)">G</text><text class="cls-2" transform="translate(182.5 188.36)">A</text><text class="cls-3" transform="translate(190.79 176.4)">A</text><text class="cls-3" transform="translate(179.26 164.87)">A</text><text class="cls-1" transform="translate(167.37 152.62)">G</text><text class="cls-2" transform="translate(155.98 141.59)">A</text><text class="cls-1" transform="translate(144.2 129.45)">G</text><text class="cls-1" transform="translate(130.03 115.29)">G</text><text class="cls-1" transform="translate(118.52 103.95)">U</text><text class="cls-1" transform="translate(106.99 92.43)">C</text><text class="cls-1" transform="translate(96.73 76.93)">U</text><text class="cls-1" transform="translate(98.58 57.08)">G</text><text class="cls-2" transform="translate(119.91 54.4)">A</text><text class="cls-1" transform="translate(132.18 68.07)">G</text><text class="cls-2" transform="translate(143.96 80.2)">A</text><text class="cls-1" transform="translate(155.47 91.54)">C</text><text class="cls-3" transform="translate(178.33 88.44)">A</text><text class="cls-1" transform="translate(169.64 105.71)">U</text><text class="cls-1" transform="translate(181.17 117.23)">U</text><text class="cls-1" transform="translate(192.81 128.87)">C</text><text class="cls-1" transform="translate(204.44 140.51)">U</text><text class="cls-1" transform="translate(215.97 152.04)">U</text><text class="cls-4" transform="translate(231.65 145.25)">A</text><text class="cls-5" transform="translate(250.09 141.73)">A</text><text class="cls-4" transform="translate(272.27 139.32)">A</text><text class="cls-5" transform="translate(288.31 145.91)">A</text><text class="cls-5" transform="translate(302.25 156.56)">A</text><text class="cls-6" transform="translate(312.78 170.2)">C</text><text class="cls-6" transform="translate(319.39 188.71)">G</text><text class="cls-6" transform="translate(335.79 188.71)">G</text><text class="cls-6" transform="translate(352.61 188.71)">C</text><text class="cls-6" transform="translate(369 188.71)">C</text><text class="cls-6" transform="translate(385.39 188.71)">C</text><text class="cls-4" transform="translate(402.21 188.71)">A</text><text class="cls-6" transform="translate(418.17 188.71)">U</text><text class="cls-6" transform="translate(434.56 188.71)">C</text><text class="cls-6" transform="translate(450.52 188.71)">G</text><text class="cls-6" transform="translate(467.35 188.71)">U</text><text class="cls-6" transform="translate(483.74 188.71)">U</text><text class="cls-6" transform="translate(500.13 188.71)">U</text><text class="cls-6" transform="translate(516.09 188.71)">G</text><text class="cls-6" transform="translate(532.48 188.71)">G</text><text class="cls-6" transform="translate(549.3 188.71)">C</text><text class="cls-6" transform="translate(565.26 188.71)">G</text><text class="cls-6" transform="translate(582.08 188.71)">C</text><text class="cls-6" transform="translate(598.47 188.71)">U</text><text class="cls-6" transform="translate(614.43 188.71)">G</text><text class="cls-6" transform="translate(631.26 188.71)">U</text><text class="cls-6" transform="translate(640.79 174.99)">G</text><text class="cls-6" transform="translate(654.3 161.7)">G</text><text class="cls-6" transform="translate(667.47 155.99)">G</text><text class="cls-4" transform="translate(683.76 152.2)">A</text><text class="cls-6" transform="translate(698.44 157.09)">G</text><text class="cls-6" transform="translate(710.86 167.71)">U</text><text class="cls-6" transform="translate(718.75 181.13)">G</text><text class="cls-6" transform="translate(721.61 200.17)">G</text><text class="cls-4" transform="translate(720.21 215.26)">A</text><text class="cls-6" transform="translate(710.74 229.59)">G</text><text class="cls-6" transform="translate(698.44 239.91)">G</text><text class="cls-6" transform="translate(683.5 245.4)">G</text><text class="cls-6" transform="translate(667.6 245.7)">U</text><text class="cls-6" transform="translate(652.54 239.91)">G</text><text class="cls-6" transform="translate(637.61 238.81)">G</text><text class="cls-4" transform="translate(631.26 223.52)">A</text><text class="cls-6" transform="translate(614.44 223.52)">U</text><text class="cls-6" transform="translate(597.62 223.52)">G</text><text class="cls-6" transform="translate(581.22 223.52)">G</text><text class="cls-6" transform="translate(565.27 223.52)">U</text><text class="cls-6" transform="translate(548.44 223.52)">G</text><text class="cls-6" transform="translate(532.48 223.52)">U</text><text class="cls-6" transform="translate(516.09 223.52)">U</text><text class="cls-4" transform="translate(500.12 223.52)">A</text><text class="cls-4" transform="translate(483.73 223.52)">A</text><text class="cls-6" transform="translate(466.49 223.52)">G</text><text class="cls-6" transform="translate(450.53 223.52)">C</text><text class="cls-6" transform="translate(433.7 223.52)">G</text><text class="cls-4" transform="translate(418.17 223.52)">A</text><text class="cls-6" transform="translate(401.35 223.52)">U</text><text class="cls-6" transform="translate(384.96 223.52)">U</text><text class="cls-6" transform="translate(368.14 223.52)">G</text><text class="cls-6" transform="translate(351.74 223.52)">G</text><text class="cls-6" transform="translate(335.79 223.52)">C</text><text class="cls-6" transform="translate(319.39 223.52)">U</text><text class="cls-7" transform="translate(311.39 236.48)">U</text><text class="cls-7" transform="translate(299.54 246.36)">C</text><text class="cls-7" transform="translate(288.45 258.77)">U</text><text class="cls-7" transform="translate(273.93 268.02)">G</text><text class="cls-7" transform="translate(257.82 274.91)">G</text><text class="cls-8" transform="translate(258.58 291.65)">A</text><text class="cls-7" transform="translate(257.82 307.75)">G</text><text class="cls-7" transform="translate(258.26 323.8)">U</text><text class="cls-7" transform="translate(270.12 337.75)">U</text><text class="cls-7" transform="translate(268.77 355.09)">G</text><text class="cls-9" transform="translate(261.29 367.72)">A</text><text class="cls-7" transform="translate(242.4 372.75)">C</text><text class="cls-7" transform="translate(221.23 368.9)">G</text><text class="cls-7" transform="translate(214.71 355.09)">U</text><text class="cls-7" transform="translate(214.07 337.75)">U</text><text class="cls-7" transform="translate(221.03 323.8)">G</text><text class="cls-7" transform="translate(221.46 307.75)">C</text><text class="cls-7" transform="translate(221.46 291.38)">U</text><text class="cls-7" transform="translate(221.46 274.91)">U</text><text class="cls-10" transform="translate(179.95 274.42)">5<tspan class="cls-11" x="11.12" y="0">’</tspan></text><text class="cls-10" transform="translate(205.67 285.2)">3<tspan class="cls-11" x="11.12" y="0">’</tspan></text><text class="cls-10" transform="translate(175.67 69.08)">20</text><text class="cls-10" transform="translate(428.13 164.24)">40</text><text class="cls-10" transform="translate(747.05 200.6)">60</text><text class="cls-10" transform="translate(430.71 250.45)">80</text><text class="cls-10" transform="translate(206.51 397)">100</text><line class="cls-12" x1="169.27" y1="129.4" x2="179.91" y2="118.76"/><line class="cls-12" x1="156.04" y1="116.28" x2="166.79" y2="105.64"/><line class="cls-12" x1="190.77" y1="151.66" x2="201.41" y2="140.91"/><line class="cls-12" x1="203.46" y1="164.24" x2="214.1" y2="153.59"/><line class="cls-12" x1="179.8" y1="140.58" x2="190.45" y2="129.94"/><line class="cls-12" x1="130.77" y1="90.91" x2="141.42" y2="80.26"/><line class="cls-12" x1="142.92" y1="103.06" x2="153.57" y2="92.41"/><line class="cls-12" x1="117.55" y1="77.68" x2="128.19" y2="67.04"/><line class="cls-13" x1="175.43" y1="71.02" x2="166.29" y2="80.26"/><text class="cls-14" transform="translate(330.5 20.9)">F4 aptamer</text><line class="cls-13" x1="745.7" y1="194.48" x2="735.7" y2="194.37"/><line class="cls-12" x1="324.85" y1="192.52" x2="324.85" y2="208"/><line class="cls-12" x1="252.25" y1="269.72" x2="236.66" y2="269.72"/><line class="cls-12" x1="252.2" y1="285.44" x2="236.71" y2="285.44"/><line class="cls-12" x1="252.2" y1="302.15" x2="236.71" y2="302.15"/><line class="cls-12" x1="252.25" y1="317.33" x2="236.66" y2="317.33"/><line class="cls-12" x1="225.93" y1="372.93" x2="225.93" y2="381.43"/><line class="cls-12" x1="341.19" y1="192.52" x2="341.19" y2="208"/><line class="cls-12" x1="357.54" y1="192.52" x2="357.54" y2="208"/><line class="cls-12" x1="373.88" y1="192.52" x2="373.88" y2="208"/><line class="cls-12" x1="390.23" y1="192.52" x2="390.23" y2="208"/><line class="cls-12" x1="406.57" y1="192.52" x2="406.57" y2="208"/><line class="cls-12" x1="422.91" y1="192.52" x2="422.91" y2="208"/><line class="cls-12" x1="439.26" y1="192.52" x2="439.26" y2="208"/><line class="cls-12" x1="455.6" y1="192.52" x2="455.6" y2="208"/><line class="cls-12" x1="471.94" y1="192.52" x2="471.94" y2="208"/><line class="cls-12" x1="488.29" y1="192.52" x2="488.29" y2="208"/><line class="cls-12" x1="504.63" y1="192.52" x2="504.63" y2="208"/><line class="cls-12" x1="520.97" y1="192.52" x2="520.97" y2="208"/><line class="cls-12" x1="537.32" y1="192.52" x2="537.32" y2="208"/><line class="cls-12" x1="553.66" y1="192.52" x2="553.66" y2="208"/><line class="cls-12" x1="570" y1="192.52" x2="570" y2="208"/><line class="cls-12" x1="602.69" y1="192.52" x2="602.69" y2="208"/><line class="cls-12" x1="619.04" y1="192.52" x2="619.04" y2="208"/><line class="cls-12" x1="635.38" y1="192.52" x2="635.38" y2="208"/><line class="cls-12" x1="586.35" y1="192.52" x2="586.35" y2="208"/><line class="cls-12" x1="438.72" y1="166.17" x2="438.72" y2="174.67"/><line class="cls-12" x1="441.08" y1="226.28" x2="441.08" y2="234.77"/><line class="cls-13" x1="152.81" y1="145.25" x2="143.67" y2="154.5"/><text class="cls-10" transform="translate(128.19 172.86)">10</text><line class="cls-12" x1="294.05" y1="123.95" x2="294.05" y2="132.45"/><text class="cls-10" transform="translate(282.66 121.69)">30</text><line class="cls-12" x1="604.03" y1="166.17" x2="604.03" y2="174.67"/><text class="cls-10" transform="translate(592.33 163.68)">50</text><line class="cls-12" x1="604.03" y1="226.28" x2="604.03" y2="234.77"/><text class="cls-10" transform="translate(592.68 252.91)">70</text><line class="cls-13" x1="300.37" y1="259.96" x2="307.52" y2="270.82"/><text class="cls-10" transform="translate(300.37 289.46)">90</text></svg>