<?xml version="1.0" encoding="utf-8"?>
<!-- Generator: Adobe Illustrator 25.2.0, SVG Export Plug-In . SVG Version: 6.00 Build 0)  -->
<svg version="1.1" id="图层_1" xmlns="http://www.w3.org/2000/svg" xmlns:xlink="http://www.w3.org/1999/xlink" x="0px" y="0px"
	 viewBox="0 0 800 400" style="enable-background:new 0 0 800 400;" xml:space="preserve">
<style type="text/css">
	.st0{fill:#B83233;}
	.st1{font-family:'ArialMT';}
	.st2{font-size:14.7746px;}
	.st3{fill:#2EA103;}
	.st4{fill:none;stroke:#000000;stroke-width:0.2857;stroke-miterlimit:2.2857;}
	.st5{fill:none;stroke:#000000;stroke-miterlimit:2.2857;}
	.st6{fill:#084595;}
	.st7{fill:#084595;stroke:#000000;stroke-width:0.2857;stroke-miterlimit:2.2857;}
	.st8{stroke:#000000;stroke-miterlimit:2.2857;}
	.st9{stroke:#000000;stroke-miterlimit:10;}
	.st10{fill:#8527B5;}
	.st11{font-size:20px;}
	.st12{font-size:15px;}
</style>
<g id="ID000002">
	<g transform="translate(414.966,412.620)">
		<g transform="rotate(-0.0)">
			<text transform="matrix(1 0 0 1 40.5054 -127.4606)" class="st0 st1 st2">G</text>
		</g>
	</g>
</g>
<g id="ID000003">
	<g transform="translate(422.058,394.889)">
		<g transform="rotate(-0.0)">
			<text transform="matrix(1 0 0 1 40.8978 -128.4435)" class="st0 st1 st2">G</text>
		</g>
	</g>
</g>
<g id="ID000004">
	<g transform="translate(422.058,380.704)">
		<g transform="rotate(-0.0)">
			<text transform="matrix(1 0 0 1 40.8978 -129.2282)" class="st0 st1 st2">G</text>
		</g>
	</g>
</g>
<g id="ID000005">
	<g>
		<g transform="translate(422.058,366.519)">
			<g transform="rotate(-0.0)">
				<text transform="matrix(1 0 0 1 41.7162 -130.013)" class="st0 st1 st2">A</text>
			</g>
		</g>
	</g>
</g>
<g id="ID000006">
	<g transform="translate(468.159,355.880)">
		<g transform="rotate(-0.0)">
			<text transform="matrix(1 0 0 1 44.2675 -130.6015)" class="st3 st1 st2">A</text>
		</g>
	</g>
</g>
<g id="ID000007">
	<g transform="translate(450.428,366.519)">
		<g transform="rotate(-0.0)">
			<text transform="matrix(1 0 0 1 42.8794 -130.013)" class="st0 st1 st2">U</text>
		</g>
	</g>
</g>
<g id="ID000008">
	<line class="st4" x1="508.6" y1="229.8" x2="518.6" y2="229.8"/>
</g>
<g id="ID000009">
	<g transform="translate(469.341,366.519)">
		<g transform="rotate(-0.0)">
			<text transform="matrix(1 0 0 1 49.2613 -130.013)" class="st1 st2">110</text>
		</g>
	</g>
</g>
<g id="ID000010">
	<g transform="translate(450.428,380.704)">
		<g transform="rotate(-0.0)">
			<text transform="matrix(1 0 0 1 42.8794 -129.2282)" class="st0 st1 st2">C</text>
		</g>
	</g>
</g>
<g id="ID000011">
	<g transform="translate(450.428,394.889)">
		<g transform="rotate(-0.0)">
			<text transform="matrix(1 0 0 1 42.8794 -128.4435)" class="st0 st1 st2">C</text>
		</g>
	</g>
</g>
<g id="ID000012">
	<g transform="translate(464.613,409.073)">
		<g transform="rotate(-0.0)">
			<text transform="matrix(1 0 0 1 44.0713 -127.6578)" class="st0 st1 st2">A</text>
		</g>
	</g>
</g>
<g id="ID000013">
	<g transform="translate(475.251,423.258)">
		<g transform="rotate(-0.0)">
			<text transform="matrix(1 0 0 1 44.2536 -126.873)" class="st0 st1 st2">C</text>
		</g>
	</g>
</g>
<g id="ID000014">
	<line class="st5" x1="474.7" y1="259.7" x2="492.6" y2="259.7"/>
</g>
<g id="ID000015">
	<line class="st5" x1="474.7" y1="244.7" x2="492.6" y2="244.7"/>
</g>
<g id="ID000016">
	<line class="st5" x1="474.7" y1="229.8" x2="492.6" y2="229.8"/>
</g>
<g id="ID000018">
	<g transform="translate(407.874,352.334)">
		<g transform="rotate(-0.0)">
			<text transform="matrix(1 0 0 1 40.115 -130.7977)" class="st6 st1 st2">G</text>
		</g>
	</g>
</g>
<g id="ID000019">
	<g transform="translate(393.689,352.334)">
		<g transform="rotate(-0.0)">
			<text transform="matrix(1 0 0 1 39.74 -130.7977)" class="st6 st1 st2">C</text>
		</g>
	</g>
</g>
<g id="ID000020">
	<g transform="translate(379.504,352.334)">
		<g transform="rotate(-0.0)">
			<text transform="matrix(1 0 0 1 38.9552 -130.7977)" class="st6 st1 st2">U</text>
		</g>
	</g>
</g>
<g id="ID000021">
	<g transform="translate(365.319,352.334)">
		<g transform="rotate(-0.0)">
			<text transform="matrix(1 0 0 1 38.1705 -130.7977)" class="st6 st1 st2">C</text>
		</g>
	</g>
</g>
<g id="ID000022">
	<g transform="translate(351.134,352.334)">
		<g transform="rotate(-0.0)">
			<text transform="matrix(1 0 0 1 37.794 -130.7977)" class="st6 st1 st2">A</text>
		</g>
	</g>
</g>
<g id="ID000023">
	<g transform="translate(336.950,352.334)">
		<g transform="rotate(-0.0)">
			<text transform="matrix(1 0 0 1 36.1899 -130.7977)" class="st6 st1 st2">G</text>
		</g>
	</g>
</g>
<g id="ID000024">
	<line class="st7" x1="378.8" y1="224.8" x2="378.8" y2="234.8"/>
</g>
<g id="ID000025">
	<g transform="translate(336.950,381.602)">
		<g transform="rotate(-0.0)">
			<text transform="matrix(1 0 0 1 33.7192 -129.177)" class="st1 st2">10</text>
		</g>
	</g>
</g>
<g id="ID000026">
	<g transform="translate(322.765,352.334)">
		<g transform="rotate(-0.0)">
			<text transform="matrix(1 0 0 1 35.8163 -130.7977)" class="st6 st1 st2">C</text>
		</g>
	</g>
</g>
<g id="ID000027">
	<g transform="translate(308.580,352.334)">
		<g transform="rotate(-0.0)">
			<text transform="matrix(1 0 0 1 35.0316 -130.7977)" class="st6 st1 st2">C</text>
		</g>
	</g>
</g>
<g id="ID000028">
	<g transform="translate(290.849,362.973)">
		<g transform="rotate(-0.0)">
			<text transform="matrix(1 0 0 1 34.0497 -130.2081)" class="st6 st1 st2">U</text>
		</g>
	</g>
</g>
<g id="ID000029">
	<g>
		<g transform="translate(294.395,323.965)">
			<g transform="rotate(-0.0)">
				<text transform="matrix(1 0 0 1 33.8347 -132.3647)" class="st6 st1 st2">G</text>
			</g>
		</g>
	</g>
</g>
<g id="ID000030">
	<g>
		<g>
			<g transform="translate(308.580,313.326)">
				<g transform="rotate(-0.0)">
					<text transform="matrix(1 0 0 1 35.4388 -132.9552)" class="st6 st1 st2">A</text>
				</g>
			</g>
		</g>
	</g>
</g>
<g id="ID000031">
	<g>
		<g transform="translate(322.765,323.965)">
			<g transform="rotate(-0.0)">
				<text transform="matrix(1 0 0 1 35.4061 -132.3647)" class="st6 st1 st2">G</text>
			</g>
		</g>
	</g>
</g>
<g id="ID000032">
	<g>
		<g transform="translate(336.950,323.965)">
			<g transform="rotate(-0.0)">
				<text transform="matrix(1 0 0 1 36.601 -132.3647)" class="st6 st1 st2">C</text>
			</g>
		</g>
	</g>
</g>
<g id="ID000033">
	<g>
		<g transform="translate(351.134,323.965)">
			<g transform="rotate(-0.0)">
				<text transform="matrix(1 0 0 1 37.3858 -132.3647)" class="st6 st1 st2">U</text>
			</g>
		</g>
	</g>
</g>
<g id="ID000034">
	<g>
		<g transform="translate(365.319,323.965)">
			<g transform="rotate(-0.0)">
				<text transform="matrix(1 0 0 1 37.7594 -132.3647)" class="st6 st1 st2">G</text>
			</g>
		</g>
	</g>
</g>
<g id="ID000035">
	<g>
		<g transform="translate(379.504,323.965)">
			<g transform="rotate(-0.0)">
				<text transform="matrix(1 0 0 1 39.3625 -132.3647)" class="st6 st1 st2">A</text>
			</g>
		</g>
	</g>
</g>
<g id="ID000036">
	<g>
		<g transform="translate(393.689,323.965)">
			<g transform="rotate(-0.0)">
				<text transform="matrix(1 0 0 1 39.3288 -132.3647)" class="st6 st1 st2">G</text>
			</g>
		</g>
	</g>
</g>
<g id="ID000037">
	<g>
		<g transform="translate(407.874,323.965)">
			<g transform="rotate(-0.0)">
				<text transform="matrix(1 0 0 1 40.5252 -132.3647)" class="st6 st1 st2">C</text>
			</g>
		</g>
	</g>
</g>
<g id="ID000038">
	<line class="st4" x1="453.8" y1="174.9" x2="453.8" y2="165"/>
</g>
<g id="ID000039">
	<g transform="translate(407.874,295.122)">
		<g transform="rotate(-0.0)">
			<text transform="matrix(1 0 0 1 37.6443 -133.9621)" class="st1 st2">60</text>
		</g>
	</g>
</g>
<g id="ID000040">
	<g transform="translate(422.058,309.780)">
		<g transform="rotate(-0.0)">
			<text transform="matrix(1 0 0 1 40.8978 -133.1514)" class="st3 st1 st2">G</text>
		</g>
	</g>
</g>
<g id="ID000041">
	<g transform="translate(436.243,295.595)">
		<g transform="rotate(-0.0)">
			<text transform="matrix(1 0 0 1 42.0937 -133.9371)" class="st3 st1 st2">C</text>
		</g>
	</g>
</g>
<g id="ID000042">
	<line class="st5" x1="453.8" y1="209.6" x2="453.8" y2="191.7"/>
</g>
<g id="ID000043">
	<line class="st5" x1="438.8" y1="209.6" x2="438.8" y2="191.7"/>
</g>
<g id="ID000044">
	<line class="st5" x1="423.9" y1="209.6" x2="423.9" y2="191.7"/>
</g>
<g id="ID000045">
	<line class="st5" x1="408.9" y1="209.6" x2="408.9" y2="191.7"/>
</g>
<g id="ID000046">
	<line class="st5" x1="393.8" y1="209.6" x2="393.8" y2="191.7"/>
</g>
<g id="ID000047">
	<line class="st5" x1="378.8" y1="209.6" x2="378.8" y2="191.7"/>
</g>
<g id="ID000048">
	<line class="st5" x1="363.8" y1="209.6" x2="363.8" y2="191.7"/>
</g>
<g id="ID000049">
	<line class="st5" x1="346.3" y1="209.5" x2="336.7" y2="190.3"/>
</g>
<g id="ID000050">
	<polygon class="st8" points="340.2,197.1 340,197.3 339.8,197.3 339.7,197.5 339.5,197.7 339.3,197.7 339.3,197.8 339.1,198 
		338.9,198.2 338.9,198.4 338.7,198.4 338.7,198.6 338.7,198.8 338.5,198.9 338.5,199.1 338.5,199.3 338.5,199.5 338.5,199.7 
		338.5,199.9 338.5,200.1 338.5,200.2 338.5,200.4 338.5,200.6 338.7,200.8 338.7,201 338.7,201.2 338.9,201.3 338.9,201.5 
		339.1,201.7 339.3,201.9 339.3,201.9 339.5,202.1 339.7,202.3 339.8,202.3 340,202.5 340.2,202.5 340.4,202.6 340.6,202.6 
		340.8,202.6 340.9,202.8 341.1,202.8 341.3,202.8 341.5,202.8 341.7,202.8 341.9,202.8 342.1,202.8 342.2,202.8 342.4,202.6 
		342.6,202.6 342.8,202.6 342.8,202.5 343,202.5 343.2,202.3 343.3,202.1 343.5,202.1 343.7,201.9 343.7,201.7 343.9,201.5 
		343.9,201.5 344.1,201.3 344.1,201.2 344.3,201 344.3,200.8 344.3,200.6 344.5,200.4 344.5,200.2 344.5,200.1 344.5,199.9 
		344.5,199.7 344.5,199.5 344.5,199.3 344.3,199.1 344.3,198.9 344.3,198.8 344.1,198.6 344.1,198.4 343.9,198.2 343.9,198 
		343.7,197.8 343.5,197.8 343.5,197.7 343.3,197.5 343.2,197.5 343,197.3 342.8,197.1 342.6,197.1 342.6,197.1 342.4,196.9 
		342.2,196.9 342.1,196.9 341.9,196.9 341.7,196.9 341.3,196.9 341.1,196.9 340.9,196.9 340.8,196.9 340.6,196.9 340.4,197.1 	"/>
</g>
<g id="ID000052">
	<g transform="translate(273.118,362.973)">
		<g transform="rotate(-0.0)">
			<text transform="matrix(1 0 0 1 33.0688 -130.2081)" class="st6 st1 st2">U</text>
		</g>
	</g>
</g>
<g id="ID000053">
	<g>
		<g transform="translate(255.387,355.880)">
			<g transform="rotate(-0.0)">
				<text transform="matrix(1 0 0 1 32.0879 -130.6015)" class="st6 st1 st2">C</text>
			</g>
		</g>
	</g>
</g>
<g id="ID000054">
	<g>
		<g transform="translate(241.202,355.880)">
			<g transform="rotate(-0.0)">
				<text transform="matrix(1 0 0 1 31.7113 -130.6015)" class="st6 st1 st2">A</text>
			</g>
		</g>
	</g>
</g>
<g id="ID000055">
	<g transform="translate(223.471,362.973)">
		<g transform="rotate(-0.0)">
			<text transform="matrix(1 0 0 1 30.3222 -130.2081)" class="st6 st1 st2">C</text>
		</g>
	</g>
</g>
<g id="ID000056">
	<g>
		<g transform="translate(216.379,313.326)">
			<g transform="rotate(-0.0)">
				<text transform="matrix(1 0 0 1 29.9298 -132.9552)" class="st6 st1 st2">U</text>
			</g>
		</g>
	</g>
</g>
<g id="ID000057">
	<g>
		<g transform="translate(227.017,320.419)">
			<g transform="rotate(-0.0)">
				<text transform="matrix(1 0 0 1 30.9256 -132.5619)" class="st6 st1 st2">A</text>
			</g>
		</g>
	</g>
</g>
<g id="ID000058">
	<g>
		<g>
			<g transform="translate(241.202,327.511)">
				<g transform="rotate(-0.0)">
					<text transform="matrix(1 0 0 1 31.3031 -132.1695)" class="st6 st1 st2">U</text>
				</g>
			</g>
		</g>
	</g>
</g>
<g id="ID000059">
	<g>
		<g>
			<g transform="translate(255.387,327.511)">
				<g transform="rotate(-0.0)">
					<text transform="matrix(1 0 0 1 31.6767 -132.1695)" class="st6 st1 st2">G</text>
				</g>
			</g>
		</g>
	</g>
</g>
<g id="ID000060">
	<g>
		<g transform="translate(266.026,316.872)">
			<g transform="rotate(-0.0)">
				<text transform="matrix(1 0 0 1 32.2643 -132.759)" class="st6 st1 st2">G</text>
			</g>
		</g>
	</g>
</g>
<g id="ID000061">
	<g>
		<line class="st6" x1="304" y1="167.4" x2="304" y2="157.4"/>
	</g>
</g>
<g id="ID000062">
	<g transform="translate(266.026,288.030)">
		<g transform="rotate(-0.0)">
			<text transform="matrix(1 0 0 1 29.7936 -134.3545)" class="st1 st2">50</text>
		</g>
	</g>
</g>
<g id="ID000063">
	<g>
		<g transform="translate(280.210,316.872)">
			<g transform="rotate(-0.0)">
				<text transform="matrix(1 0 0 1 33.05 -132.759)" class="st6 st1 st2">G</text>
			</g>
		</g>
	</g>
</g>
<g id="ID000064">
	<g>
		<line class="st9" x1="292.7" y1="212.6" x2="292.7" y2="194.5"/>
	</g>
</g>
<g id="ID000065">
	<g>
		<line class="st9" x1="277.8" y1="212.6" x2="277.8" y2="194.5"/>
	</g>
</g>
<g id="ID000067">
	<g transform="translate(205.740,362.973)">
		<g transform="rotate(-0.0)">
			<text transform="matrix(1 0 0 1 29.3413 -130.2081)" class="st6 st1 st2">U</text>
		</g>
	</g>
</g>
<g id="ID000068">
	<g>
		<g transform="translate(188.009,359.427)">
			<g transform="rotate(-0.0)">
				<text transform="matrix(1 0 0 1 27.9483 -130.4043)" class="st6 st1 st2">G</text>
			</g>
		</g>
	</g>
</g>
<g id="ID000069">
	<g>
		<g transform="translate(173.825,359.427)">
			<g transform="rotate(-0.0)">
				<text transform="matrix(1 0 0 1 27.5747 -130.4043)" class="st6 st1 st2">C</text>
			</g>
		</g>
	</g>
</g>
<g id="ID000070">
	<line class="st4" x1="206.7" y1="232.2" x2="206.7" y2="242.2"/>
</g>
<g id="ID000071">
	<g transform="translate(173.825,388.695)">
		<g transform="rotate(-0.0)">
			<text transform="matrix(1 0 0 1 24.6928 -128.7847)" class="st1 st2">20</text>
		</g>
	</g>
</g>
<g id="ID000072">
	<g>
		<g transform="translate(159.640,359.427)">
			<g transform="rotate(-0.0)">
				<text transform="matrix(1 0 0 1 26.7899 -130.4043)" class="st6 st1 st2">C</text>
			</g>
		</g>
	</g>
</g>
<g id="ID000073">
	<g transform="translate(149.001,373.611)">
		<g transform="rotate(-0.0)">
			<text transform="matrix(1 0 0 1 26.2024 -129.6186)" class="st6 st1 st2">U</text>
		</g>
	</g>
</g>
<g id="ID000074">
	<g transform="translate(131.270,377.158)">
		<g transform="rotate(-0.0)">
			<text transform="matrix(1 0 0 1 25.6287 -129.4234)" class="st6 st1 st2">A</text>
		</g>
	</g>
</g>
<g id="ID000075">
	<g transform="translate(131.270,313.326)">
		<g transform="rotate(-0.0)">
			<text transform="matrix(1 0 0 1 25.6287 -132.9552)" class="st6 st1 st2">A</text>
		</g>
	</g>
</g>
<g id="ID000076">
	<line class="st4" x1="161.8" y1="163.7" x2="161.8" y2="153.7"/>
</g>
<g id="ID000077">
	<g transform="translate(131.270,284.484)">
		<g transform="rotate(-0.0)">
			<text transform="matrix(1 0 0 1 22.3386 -134.5507)" class="st1 st2">40</text>
		</g>
	</g>
</g>
<g id="ID000078">
	<g transform="translate(149.001,320.419)">
		<g transform="rotate(-0.0)">
			<text transform="matrix(1 0 0 1 26.2024 -132.5619)" class="st6 st1 st2">C</text>
		</g>
	</g>
</g>
<g id="ID000079">
	<g>
		<g transform="translate(159.640,331.057)">
			<g transform="rotate(-0.0)">
				<text transform="matrix(1 0 0 1 26.3788 -131.9733)" class="st6 st1 st2">G</text>
			</g>
		</g>
	</g>
</g>
<g id="ID000080">
	<g>
		<g transform="translate(173.825,331.057)">
			<g transform="rotate(-0.0)">
				<text transform="matrix(1 0 0 1 27.1635 -131.9733)" class="st6 st1 st2">G</text>
			</g>
		</g>
	</g>
</g>
<g id="ID000081">
	<g>
		<g transform="translate(188.009,331.057)">
			<g transform="rotate(-0.0)">
				<text transform="matrix(1 0 0 1 28.3594 -131.9733)" class="st6 st1 st2">C</text>
			</g>
		</g>
	</g>
</g>
<g id="ID000082">
	<g transform="translate(202.194,320.419)">
		<g transform="rotate(-0.0)">
			<text transform="matrix(1 0 0 1 29.1451 -132.5619)" class="st6 st1 st2">U</text>
		</g>
	</g>
</g>
<g id="ID000083">
	<line class="st5" x1="221.6" y1="216.3" x2="221.6" y2="198.4"/>
</g>
<g id="ID000084">
	<line class="st5" x1="206.7" y1="216.3" x2="206.7" y2="198.4"/>
</g>
<g id="ID000085">
	<line class="st5" x1="191.7" y1="216.3" x2="191.7" y2="198.4"/>
</g>
<g id="ID000087">
	<g transform="translate(117.085,370.065)">
		<g transform="rotate(-0.0)">
			<text transform="matrix(1 0 0 1 24.4358 -129.8158)" class="st6 st1 st2">C</text>
		</g>
	</g>
</g>
<g id="ID000088">
	<g>
		<g transform="translate(102.901,359.427)">
			<g transform="rotate(-0.0)">
				<text transform="matrix(1 0 0 1 23.2408 -130.4043)" class="st6 st1 st2">G</text>
			</g>
		</g>
	</g>
</g>
<g id="ID000089">
	<g>
		<g transform="translate(88.716,359.427)">
			<g transform="rotate(-0.0)">
				<text transform="matrix(1 0 0 1 22.8653 -130.4043)" class="st6 st1 st2">C</text>
			</g>
		</g>
	</g>
</g>
<g id="ID000090">
	<g>
		<g transform="translate(74.531,359.427)">
			<g transform="rotate(-0.0)">
				<text transform="matrix(1 0 0 1 21.6694 -130.4043)" class="st6 st1 st2">G</text>
			</g>
		</g>
	</g>
</g>
<g id="ID000091">
	<g transform="translate(60.346,373.611)">
		<g transform="rotate(-0.0)">
			<text transform="matrix(1 0 0 1 20.8847 -129.6186)" class="st6 st1 st2">G</text>
		</g>
	</g>
</g>
<g id="ID000092">
	<g transform="translate(42.615,377.158)">
		<g transform="rotate(-0.0)">
			<text transform="matrix(1 0 0 1 19.9048 -129.4234)" class="st6 st1 st2">G</text>
		</g>
	</g>
</g>
<g id="ID000093">
	<g transform="translate(24.884,373.611)">
		<g transform="rotate(-0.0)">
			<text transform="matrix(1 0 0 1 19.335 -129.6186)" class="st6 st1 st2">C</text>
		</g>
	</g>
</g>
<g id="ID000094">
	<line class="st4" x1="49.5" y1="247.1" x2="49.5" y2="257.3"/>
</g>
<g id="ID000095">
	<g transform="translate(24.884,402.879)">
		<g transform="rotate(-0.0)">
			<text transform="matrix(1 0 0 1 16.4522 -127.9989)" class="st1 st2">30</text>
		</g>
	</g>
</g>
<g id="ID000096">
	<g transform="translate(17.792,355.880)">
		<g transform="rotate(-0.0)">
			<text transform="matrix(1 0 0 1 18.5315 -130.6015)" class="st6 st1 st2">G</text>
		</g>
	</g>
</g>
<g id="ID000097">
	<g transform="translate(17.792,338.149)">
		<g transform="rotate(-0.0)">
			<text transform="matrix(1 0 0 1 18.9416 -131.5824)" class="st6 st1 st2">U</text>
		</g>
	</g>
</g>
<g id="ID000098">
	<g transform="translate(31.977,323.965)">
		<g transform="rotate(-0.0)">
			<text transform="matrix(1 0 0 1 19.7264 -132.3647)" class="st6 st1 st2">U</text>
		</g>
	</g>
</g>
<g id="ID000099">
	<g transform="translate(46.161,320.419)">
		<g transform="rotate(-0.0)">
			<text transform="matrix(1 0 0 1 20.5121 -132.5619)" class="st6 st1 st2">U</text>
		</g>
	</g>
</g>
<g id="ID000100">
	<g transform="translate(60.346,316.872)">
		<g transform="rotate(-0.0)">
			<text transform="matrix(1 0 0 1 21.704 -132.759)" class="st6 st1 st2">A</text>
		</g>
	</g>
</g>
<g id="ID000101">
	<g>
		<g transform="translate(74.531,331.057)">
			<g transform="rotate(-0.0)">
				<text transform="matrix(1 0 0 1 22.0806 -131.9733)" class="st6 st1 st2">C</text>
			</g>
		</g>
	</g>
</g>
<g id="ID000102">
	<g>
		<g transform="translate(88.716,331.057)">
			<g transform="rotate(-0.0)">
				<text transform="matrix(1 0 0 1 22.4542 -131.9733)" class="st6 st1 st2">G</text>
			</g>
		</g>
	</g>
</g>
<g id="ID000103">
	<g>
		<g transform="translate(102.901,331.057)">
			<g transform="rotate(-0.0)">
				<text transform="matrix(1 0 0 1 23.651 -131.9733)" class="st6 st1 st2">U</text>
			</g>
		</g>
	</g>
</g>
<g id="ID000104">
	<g transform="translate(117.085,316.872)">
		<g transform="rotate(-0.0)">
			<text transform="matrix(1 0 0 1 24.843 -132.759)" class="st6 st1 st2">A</text>
		</g>
	</g>
</g>
<g id="ID000105">
	<polygon class="st8" points="131.9,204.3 131.7,204.3 131.5,204.3 131.3,204.3 131.1,204.5 131,204.5 130.8,204.5 130.6,204.7 
		130.4,204.7 130.2,204.9 130,204.9 130,205 129.9,205.2 129.7,205.2 129.5,205.4 129.5,205.6 129.3,205.8 129.3,206 129.1,206.1 
		129.1,206.3 129.1,206.5 128.9,206.7 128.9,206.9 128.9,207.1 128.9,207.3 128.9,207.4 128.9,207.6 128.9,207.8 128.9,208 
		128.9,208.2 129.1,208.4 129.1,208.5 129.1,208.7 129.3,208.7 129.5,208.9 129.5,209.1 129.7,209.3 129.7,209.5 129.9,209.5 
		130,209.7 130.2,209.8 130.4,209.8 130.6,210 130.8,210 130.8,210.2 131,210.2 131.1,210.2 131.3,210.2 131.5,210.2 131.7,210.4 
		132.1,210.4 132.3,210.2 132.4,210.2 132.6,210.2 132.8,210.2 133,210.2 133.2,210 133.2,210 133.4,209.8 133.5,209.8 133.7,209.7 
		133.9,209.5 134.1,209.5 134.1,209.3 134.3,209.1 134.5,208.9 134.5,208.7 134.7,208.7 134.7,208.5 134.7,208.4 134.8,208.2 
		134.8,208 134.8,207.8 134.8,207.6 134.8,207.4 134.8,207.3 134.8,207.1 134.8,206.9 134.8,206.7 134.7,206.5 134.7,206.3 
		134.7,206.1 134.5,206 134.5,205.8 134.3,205.6 134.3,205.4 134.1,205.2 133.9,205.2 133.7,205 133.7,204.9 133.5,204.9 
		133.4,204.7 133.2,204.7 133,204.5 132.8,204.5 132.6,204.5 132.4,204.3 132.3,204.3 132.1,204.3 	"/>
</g>
<g id="ID000106">
	<line class="st5" x1="116.9" y1="216.3" x2="116.9" y2="198.4"/>
</g>
<g id="ID000107">
	<line class="st5" x1="102" y1="216.3" x2="102" y2="198.4"/>
</g>
<g id="ID000109">
	<g transform="translate(453.974,288.503)">
		<g transform="rotate(-0.0)">
			<text transform="matrix(1 0 0 1 43.0775 -134.3285)" class="st3 st1 st2">U</text>
		</g>
	</g>
</g>
<g id="ID000110">
	<g transform="translate(471.705,292.049)">
		<g transform="rotate(-0.0)">
			<text transform="matrix(1 0 0 1 44.0575 -134.1323)" class="st3 st1 st2">U</text>
		</g>
	</g>
</g>
<g id="ID000111">
	<g transform="translate(485.890,292.049)">
		<g transform="rotate(-0.0)">
			<text transform="matrix(1 0 0 1 44.431 -134.1323)" class="st3 st1 st2">G</text>
		</g>
	</g>
</g>
<g id="ID000112">
	<g transform="translate(500.075,292.049)">
		<g transform="rotate(-0.0)">
			<text transform="matrix(1 0 0 1 46.0351 -134.1323)" class="st3 st1 st2">A</text>
		</g>
	</g>
</g>
<g id="ID000113">
	<g transform="translate(514.259,292.049)">
		<g transform="rotate(-0.0)">
			<text transform="matrix(1 0 0 1 46.4117 -134.1323)" class="st3 st1 st2">C</text>
		</g>
	</g>
</g>
<g id="ID000114">
	<g transform="translate(528.444,292.049)">
		<g transform="rotate(-0.0)">
			<text transform="matrix(1 0 0 1 47.1954 -134.1323)" class="st3 st1 st2">C</text>
		</g>
	</g>
</g>
<g id="ID000115">
	<g transform="translate(542.629,292.049)">
		<g transform="rotate(-0.0)">
			<text transform="matrix(1 0 0 1 47.5709 -134.1323)" class="st3 st1 st2">G</text>
		</g>
	</g>
</g>
<g id="ID000116">
	<g transform="translate(556.814,292.049)">
		<g transform="rotate(-0.0)">
			<text transform="matrix(1 0 0 1 48.7668 -134.1323)" class="st3 st1 st2">U</text>
		</g>
	</g>
</g>
<g id="ID000117">
	<line class="st4" x1="611" y1="141.1" x2="611" y2="131.2"/>
</g>
<g id="ID000118">
	<g transform="translate(556.814,263.207)">
		<g transform="rotate(-0.0)">
			<text transform="matrix(1 0 0 1 45.884 -135.7278)" class="st1 st2">70</text>
		</g>
	</g>
</g>
<g id="ID000119">
	<g transform="translate(570.999,292.049)">
		<g transform="rotate(-0.0)">
			<text transform="matrix(1 0 0 1 49.1404 -134.1323)" class="st3 st1 st2">G</text>
		</g>
	</g>
</g>
<g id="ID000120">
	<g transform="translate(585.183,292.049)">
		<g transform="rotate(-0.0)">
			<text transform="matrix(1 0 0 1 49.9252 -134.1323)" class="st3 st1 st2">G</text>
		</g>
	</g>
</g>
<g id="ID000121">
	<g transform="translate(599.368,292.049)">
		<g transform="rotate(-0.0)">
			<text transform="matrix(1 0 0 1 51.121 -134.1323)" class="st3 st1 st2">U</text>
		</g>
	</g>
</g>
<g id="ID000122">
	<g transform="translate(610.007,281.410)">
		<g transform="rotate(-0.0)">
			<text transform="matrix(1 0 0 1 52.1168 -134.7208)" class="st10 st1 st2">A</text>
		</g>
	</g>
</g>
<g id="ID000123">
	<g transform="translate(617.099,263.679)">
		<g transform="rotate(-0.0)">
			<text transform="matrix(1 0 0 1 51.6908 -135.7017)" class="st10 st1 st2">G</text>
		</g>
	</g>
</g>
<g id="ID000124">
	<g transform="translate(634.830,256.587)">
		<g transform="rotate(-0.0)">
			<text transform="matrix(1 0 0 1 53.0828 -136.0941)" class="st10 st1 st2">U</text>
		</g>
	</g>
</g>
<g id="ID000125">
	<g transform="translate(652.561,260.133)">
		<g transform="rotate(-0.0)">
			<text transform="matrix(1 0 0 1 53.6526 -135.8979)" class="st10 st1 st2">G</text>
		</g>
	</g>
</g>
<g id="ID000126">
	<g transform="translate(599.368,320.419)">
		<g transform="rotate(-0.0)">
			<text transform="matrix(1 0 0 1 51.5273 -132.5619)" class="st3 st1 st2">A</text>
		</g>
	</g>
</g>
<g id="ID000127">
	<g transform="translate(585.183,320.419)">
		<g transform="rotate(-0.0)">
			<text transform="matrix(1 0 0 1 50.3373 -132.5619)" class="st3 st1 st2">C</text>
		</g>
	</g>
</g>
<g id="ID000128">
	<g transform="translate(570.999,320.419)">
		<g transform="rotate(-0.0)">
			<text transform="matrix(1 0 0 1 49.5505 -132.5619)" class="st3 st1 st2">C</text>
		</g>
	</g>
</g>
<g id="ID000129">
	<line class="st4" x1="625.9" y1="191.2" x2="625.9" y2="201.2"/>
</g>
<g id="ID000130">
	<g transform="translate(570.999,349.686)">
		<g transform="rotate(-0.0)">
			<text transform="matrix(1 0 0 1 42.5603 -130.9436)" class="st1 st2">100</text>
		</g>
	</g>
</g>
<g id="ID000131">
	<g transform="translate(556.814,320.419)">
		<g transform="rotate(-0.0)">
			<text transform="matrix(1 0 0 1 49.175 -132.5619)" class="st3 st1 st2">A</text>
		</g>
	</g>
</g>
<g id="ID000132">
	<g transform="translate(542.629,320.419)">
		<g transform="rotate(-0.0)">
			<text transform="matrix(1 0 0 1 47.9811 -132.5619)" class="st3 st1 st2">C</text>
		</g>
	</g>
</g>
<g id="ID000133">
	<g transform="translate(528.444,320.419)">
		<g transform="rotate(-0.0)">
			<text transform="matrix(1 0 0 1 46.7853 -132.5619)" class="st3 st1 st2">G</text>
		</g>
	</g>
</g>
<g id="ID000134">
	<g transform="translate(514.259,320.419)">
		<g transform="rotate(-0.0)">
			<text transform="matrix(1 0 0 1 45.9996 -132.5619)" class="st3 st1 st2">G</text>
		</g>
	</g>
</g>
<g id="ID000135">
	<g transform="translate(500.075,320.419)">
		<g transform="rotate(-0.0)">
			<text transform="matrix(1 0 0 1 45.6269 -132.5619)" class="st3 st1 st2">U</text>
		</g>
	</g>
</g>
<g id="ID000136">
	<g transform="translate(485.890,320.419)">
		<g transform="rotate(-0.0)">
			<text transform="matrix(1 0 0 1 44.8412 -132.5619)" class="st3 st1 st2">C</text>
		</g>
	</g>
</g>
<g id="ID000137">
	<g transform="translate(471.705,320.419)">
		<g transform="rotate(-0.0)">
			<text transform="matrix(1 0 0 1 43.6454 -132.5619)" class="st3 st1 st2">G</text>
		</g>
	</g>
</g>
<g id="ID000138">
	<g transform="translate(478.797,338.149)">
		<g transform="rotate(-0.0)">
			<text transform="matrix(1 0 0 1 44.0397 -131.5824)" class="st3 st1 st2">G</text>
		</g>
	</g>
</g>
<g id="ID000139">
	<polygon class="st8" points="521,169.2 521.2,169.2 521.6,169.2 521.8,169 521.9,169 522.1,169 522.1,168.8 522.3,168.8 
		522.5,168.8 522.7,168.7 522.9,168.5 523,168.5 523.2,168.3 523.2,168.1 523.4,168.1 523.6,167.9 523.6,167.7 523.8,167.5 
		523.8,167.4 524,167.2 524,167 524,166.8 524,166.6 524.2,166.4 524.2,166.3 524.2,166.1 524.2,165.9 524.2,165.7 524,165.5 
		524,165.3 524,165.1 523.8,165 523.8,164.8 523.6,164.6 523.6,164.4 523.4,164.4 523.4,164.2 523.2,164 523,163.9 522.9,163.9 
		522.9,163.7 522.7,163.7 522.5,163.5 522.3,163.5 522.1,163.3 521.9,163.3 521.8,163.3 521.6,163.1 521.4,163.1 521.2,163.1 
		521,163.1 520.8,163.1 520.6,163.1 520.5,163.3 520.3,163.3 520.1,163.3 519.9,163.5 519.7,163.5 519.5,163.7 519.4,163.7 
		519.2,163.9 519.2,163.9 519,164 518.8,164.2 518.8,164.4 518.6,164.4 518.4,164.6 518.4,164.8 518.4,165 518.2,165.1 518.2,165.3 
		518.2,165.5 518.1,165.7 518.1,165.9 518.1,166.1 518.1,166.3 518.1,166.4 518.1,166.6 518.2,166.8 518.2,167 518.2,167.2 
		518.4,167.4 518.4,167.5 518.6,167.7 518.6,167.9 518.8,168.1 519,168.1 519,168.3 519.2,168.5 519.4,168.5 519.5,168.7 
		519.7,168.8 519.7,168.8 519.9,168.8 520.1,169 520.3,169 520.5,169 520.6,169.2 520.8,169.2 	"/>
</g>
<g id="ID000140">
	<line class="st5" x1="536.2" y1="158" x2="536.2" y2="175.9"/>
</g>
<g id="ID000141">
	<line class="st5" x1="551.1" y1="158" x2="551.1" y2="175.9"/>
</g>
<g id="ID000142">
	<line class="st5" x1="566.1" y1="158" x2="566.1" y2="175.9"/>
</g>
<g id="ID000143">
	<line class="st5" x1="581" y1="158" x2="581" y2="175.9"/>
</g>
<g id="ID000144">
	<line class="st5" x1="596" y1="158" x2="596" y2="175.9"/>
</g>
<g id="ID000145">
	<line class="st5" x1="611" y1="158" x2="611" y2="175.9"/>
</g>
<g id="ID000146">
	<line class="st5" x1="625.9" y1="158" x2="625.9" y2="175.9"/>
</g>
<g id="ID000147">
	<line class="st5" x1="640.9" y1="158" x2="640.9" y2="175.9"/>
</g>
<g id="ID000148">
	<line class="st5" x1="655.8" y1="158" x2="655.8" y2="175.9"/>
</g>
<g id="ID000150">
	<g transform="translate(670.292,267.226)">
		<g transform="rotate(-0.0)">
			<text transform="matrix(1 0 0 1 55.0466 -135.5056)" class="st10 st1 st2">C</text>
		</g>
	</g>
</g>
<g id="ID000151">
	<g transform="translate(673.838,284.957)">
		<g transform="rotate(-0.0)">
			<text transform="matrix(1 0 0 1 54.8307 -134.5247)" class="st10 st1 st2">G</text>
		</g>
	</g>
</g>
<g id="ID000152">
	<g transform="translate(666.746,302.688)">
		<g transform="rotate(-0.0)">
			<text transform="matrix(1 0 0 1 55.2567 -133.5428)" class="st10 st1 st2">A</text>
		</g>
	</g>
</g>
<g id="ID000153">
	<line class="st4" x1="736.9" y1="162.4" x2="746.9" y2="162.4"/>
</g>
<g id="ID000154">
	<g transform="translate(685.659,302.688)">
		<g transform="rotate(-0.0)">
			<text transform="matrix(1 0 0 1 61.2304 -133.5428)" class="st1 st2">80</text>
		</g>
	</g>
</g>
<g id="ID000155">
	<g transform="translate(656.107,320.419)">
		<g transform="rotate(-0.0)">
			<text transform="matrix(1 0 0 1 54.6672 -132.5619)" class="st10 st1 st2">A</text>
		</g>
	</g>
</g>
<g id="ID000156">
	<g transform="translate(641.922,331.057)">
		<g transform="rotate(-0.0)">
			<text transform="matrix(1 0 0 1 53.0631 -131.9733)" class="st10 st1 st2">G</text>
		</g>
	</g>
</g>
<g id="ID000157">
	<g transform="translate(641.922,345.242)">
		<g transform="rotate(-0.0)">
			<text transform="matrix(1 0 0 1 53.4752 -131.1891)" class="st10 st1 st2">C</text>
		</g>
	</g>
</g>
<g id="ID000158">
	<g transform="translate(641.922,359.427)">
		<g transform="rotate(-0.0)">
			<text transform="matrix(1 0 0 1 53.4752 -130.4043)" class="st10 st1 st2">C</text>
		</g>
	</g>
</g>
<g id="ID000159">
	<g transform="translate(656.107,370.065)">
		<g transform="rotate(-0.0)">
			<text transform="matrix(1 0 0 1 54.6672 -129.8158)" class="st10 st1 st2">A</text>
		</g>
	</g>
</g>
<g id="ID000160">
	<g transform="translate(652.561,387.796)">
		<g transform="rotate(-0.0)">
			<text transform="matrix(1 0 0 1 53.6526 -128.8349)" class="st10 st1 st2">G</text>
		</g>
	</g>
</g>
<g id="ID000161">
	<g transform="translate(670.292,394.889)">
		<g transform="rotate(-0.0)">
			<text transform="matrix(1 0 0 1 55.0466 -128.4435)" class="st10 st1 st2">U</text>
		</g>
	</g>
</g>
<g id="ID000162">
	<g transform="translate(673.838,412.620)">
		<g transform="rotate(-0.0)">
			<text transform="matrix(1 0 0 1 55.649 -127.4606)" class="st10 st1 st2">A</text>
		</g>
	</g>
</g>
<g id="ID000163">
	<g transform="translate(663.200,426.804)">
		<g transform="rotate(-0.0)">
			<text transform="matrix(1 0 0 1 55.0605 -126.6768)" class="st10 st1 st2">A</text>
		</g>
	</g>
</g>
<g id="ID000164">
	<g transform="translate(645.469,423.258)">
		<g transform="rotate(-0.0)">
			<text transform="matrix(1 0 0 1 54.0786 -126.873)" class="st10 st1 st2">A</text>
		</g>
	</g>
</g>
<g id="ID000165">
	<line class="st4" x1="698.6" y1="295.5" x2="691" y2="302"/>
</g>
<g id="ID000166">
	<g transform="translate(626.556,423.258)">
		<g transform="rotate(-0.0)">
			<text transform="matrix(1 0 0 1 46.5033 -112.8858)" class="st1 st2">90</text>
		</g>
	</g>
</g>
<g id="ID000167">
	<g transform="translate(631.284,412.620)">
		<g transform="rotate(-0.0)">
			<text transform="matrix(1 0 0 1 52.8867 -127.4606)" class="st10 st1 st2">C</text>
		</g>
	</g>
</g>
<g id="ID000168">
	<g transform="translate(613.553,405.527)">
		<g transform="rotate(-0.0)">
			<text transform="matrix(1 0 0 1 51.4946 -127.8549)" class="st10 st1 st2">G</text>
		</g>
	</g>
</g>
<g id="ID000169">
	<g transform="translate(599.368,391.342)">
		<g transform="rotate(-0.0)">
			<text transform="matrix(1 0 0 1 51.5273 -128.6377)" class="st10 st1 st2">A</text>
		</g>
	</g>
</g>
<g id="ID000170">
	<g transform="translate(602.914,373.611)">
		<g transform="rotate(-0.0)">
			<text transform="matrix(1 0 0 1 50.907 -129.6186)" class="st10 st1 st2">G</text>
		</g>
	</g>
</g>
<g id="ID000171">
	<g transform="translate(613.553,359.427)">
		<g transform="rotate(-0.0)">
			<text transform="matrix(1 0 0 1 51.4946 -130.4043)" class="st10 st1 st2">G</text>
		</g>
	</g>
</g>
<g id="ID000172">
	<g transform="translate(613.553,345.242)">
		<g transform="rotate(-0.0)">
			<text transform="matrix(1 0 0 1 51.4946 -131.1891)" class="st10 st1 st2">G</text>
		</g>
	</g>
</g>
<g id="ID000173">
	<g transform="translate(613.553,331.057)">
		<g transform="rotate(-0.0)">
			<text transform="matrix(1 0 0 1 51.9048 -131.9733)" class="st10 st1 st2">C</text>
		</g>
	</g>
</g>
<g id="ID000174">
	<line class="st5" x1="694.8" y1="192.3" x2="676.7" y2="192.3"/>
</g>
<g id="ID000175">
	<line class="st5" x1="694.8" y1="207.3" x2="676.7" y2="207.3"/>
</g>
<g id="ID000176">
	<line class="st5" x1="694.8" y1="222.2" x2="676.7" y2="222.2"/>
</g>
<g id="ID000177">
	<line class="st5" x1="708.1" y1="256.8" x2="693.3" y2="273.9"/>
</g>
<g id="ID000178">
	<polygon class="st8" points="698.9,267.6 698.9,267.6 699,267.8 699.2,268 699.4,268 699.6,268 699.8,268.2 700,268.2 700.2,268.2 
		700.3,268.2 700.5,268.4 700.7,268.4 700.9,268.4 701.1,268.4 701.3,268.2 701.4,268.2 701.6,268.2 701.8,268.2 702,268 702.2,268 
		702.4,267.8 702.6,267.8 702.6,267.6 702.7,267.5 702.9,267.5 703.1,267.3 703.1,267.1 703.3,266.9 703.3,266.7 703.5,266.5 
		703.5,266.4 703.7,266.2 703.7,266 703.7,265.8 703.7,265.6 703.7,265.4 703.7,265.2 703.7,265.1 703.7,264.9 703.7,264.7 
		703.7,264.5 703.7,264.3 703.5,264.1 703.5,264 703.3,263.8 703.3,263.8 703.1,263.6 702.9,263.4 702.9,263.2 702.7,263 702.6,263 
		702.4,262.8 702.4,262.8 702.2,262.7 702,262.7 701.8,262.5 701.6,262.5 701.4,262.5 701.3,262.3 701.1,262.3 700.9,262.3 
		700.7,262.3 700.5,262.3 700.3,262.3 700.2,262.5 700,262.5 699.8,262.5 699.6,262.7 699.4,262.7 699.2,262.7 699,262.8 698.9,263 
		698.7,263 698.7,263.2 698.5,263.4 698.3,263.4 698.3,263.6 698.1,263.8 698.1,264 697.9,264.1 697.9,264.3 697.9,264.5 
		697.8,264.7 697.8,264.9 697.8,265.1 697.8,265.2 697.8,265.4 697.8,265.6 697.8,265.8 697.8,266 697.9,266.2 697.9,266.4 
		697.9,266.5 698.1,266.7 698.1,266.9 698.3,267.1 698.3,267.3 698.5,267.3 698.7,267.5 	"/>
</g>
<text transform="matrix(1 0 0 1 326.6104 40.7118)" class="st1 st11">Clone 5 aptamer</text>
<text transform="matrix(1 0 0 1 446.0798 303.9489)" class="st1 st12">5’</text>
<text transform="matrix(1 0 0 1 525.9138 317.7509)" class="st1 st12">3’</text>
</svg>
