<?xml version="1.0" encoding="utf-8"?>
<!-- Generator: Adobe Illustrator 25.2.0, SVG Export Plug-In . SVG Version: 6.00 Build 0)  -->
<svg version="1.1" id="图层_1" xmlns="http://www.w3.org/2000/svg" xmlns:xlink="http://www.w3.org/1999/xlink" x="0px" y="0px"
	 viewBox="0 0 800 400" style="enable-background:new 0 0 800 400;" xml:space="preserve">
<style type="text/css">
	.st0{font-family:'MicrosoftYaHei';}
	.st1{font-size:20px;}
	.st2{fill:#B83233;}
	.st3{font-family:'Arial-BoldMT';}
	.st4{font-size:22.7666px;}
	.st5{fill:#2EA103;}
	.st6{fill:none;stroke:#000000;stroke-miterlimit:1.7741;}
	.st7{font-family:'ArialMT';}
	.st8{stroke:#000000;stroke-miterlimit:1.7741;}
	.st9{fill:#084595;}
	.st10{fill:#CF3E7D;}
	.st11{stroke:#000000;stroke-width:0.2218;stroke-miterlimit:1.7741;}
	.st12{fill:#18988C;}
	.st13{fill:#040000;}
	.st14{font-size:22.766px;}
</style>
<text transform="matrix(1 0 0 1 331.1567 37.1523)" class="st0 st1">K61 aptamer</text>
<g id="ID000002">
	<g transform="translate(450.442,329.711)">
		<g transform="rotate(-0.0)">
			<text transform="matrix(1 0 0 1 -271.9586 -189.1505)" class="st2 st3 st4">G</text>
		</g>
	</g>
</g>
<g id="ID000003">
	<g transform="translate(485.607,329.711)">
		<g transform="rotate(-0.0)">
			<text transform="matrix(1 0 0 1 -284.2486 -189.1505)" class="st2 st3 st4">G</text>
		</g>
	</g>
</g>
<g id="ID000004">
	<g transform="translate(520.772,329.711)">
		<g transform="rotate(-0.0)">
			<text transform="matrix(1 0 0 1 -296.5415 -189.1505)" class="st2 st3 st4">G</text>
		</g>
	</g>
</g>
<g id="ID000005">
	<g transform="translate(555.936,329.711)">
		<g transform="rotate(-0.0)">
			<text transform="matrix(1 0 0 1 -308.1977 -189.1505)" class="st2 st3 st4">A</text>
		</g>
	</g>
</g>
<g id="ID000006">
	<g transform="translate(591.101,329.711)">
		<g transform="rotate(-0.0)">
			<text transform="matrix(1 0 0 1 -321.1225 -189.1505)" class="st2 st3 st4">G</text>
		</g>
	</g>
</g>
<g id="ID000007">
	<g transform="translate(626.266,329.711)">
		<g transform="rotate(-0.0)">
			<text transform="matrix(1 0 0 1 -332.7806 -189.1505)" class="st2 st3 st4">A</text>
		</g>
	</g>
</g>
<g id="ID000008">
	<g transform="translate(661.431,329.711)">
		<g transform="rotate(-0.0)">
			<text transform="matrix(1 0 0 1 -345.7045 -189.1505)" class="st2 st3 st4">G</text>
		</g>
	</g>
</g>
<g id="ID000009">
	<g transform="translate(679.013,294.546)">
		<g transform="rotate(-0.0)">
			<text transform="matrix(1 0 0 1 -351.2171 -176.8604)" class="st5 st3 st4">A</text>
		</g>
	</g>
</g>
<g id="ID000010">
	<g transform="translate(661.431,400.040)">
		<g transform="rotate(-0.0)">
			<text transform="matrix(1 0 0 1 -345.0717 -213.7324)" class="st2 st3 st4">C</text>
		</g>
	</g>
</g>
<g id="ID000011">
	<g transform="translate(626.266,400.040)">
		<g transform="rotate(-0.0)">
			<text transform="matrix(1 0 0 1 -332.7806 -213.7324)" class="st2 st3 st4">U</text>
		</g>
	</g>
</g>
<g id="ID000012">
	<line class="st6" x1="301.7" y1="191.3" x2="301.7" y2="206.5"/>
</g>
<g id="ID000013">
	<g transform="translate(626.266,472.597)">
		<g transform="rotate(-0.0)">
			<text transform="matrix(1 0 0 1 -337.2201 -239.0931)" class="st7 st4">70</text>
		</g>
	</g>
</g>
<g id="ID000014">
	<g transform="translate(591.101,400.040)">
		<g transform="rotate(-0.0)">
			<text transform="matrix(1 0 0 1 -320.4887 -213.7324)" class="st2 st3 st4">C</text>
		</g>
	</g>
</g>
<g id="ID000015">
	<g transform="translate(555.936,400.040)">
		<g transform="rotate(-0.0)">
			<text transform="matrix(1 0 0 1 -308.1977 -213.7324)" class="st2 st3 st4">U</text>
		</g>
	</g>
</g>
<g id="ID000016">
	<g transform="translate(520.772,400.040)">
		<g transform="rotate(-0.0)">
			<text transform="matrix(1 0 0 1 -295.9067 -213.7324)" class="st2 st3 st4">U</text>
		</g>
	</g>
</g>
<g id="ID000017">
	<g transform="translate(485.607,400.040)">
		<g transform="rotate(-0.0)">
			<text transform="matrix(1 0 0 1 -283.6168 -213.7324)" class="st2 st3 st4">C</text>
		</g>
	</g>
</g>
<g id="ID000018">
	<g transform="translate(450.442,400.040)">
		<g transform="rotate(-0.0)">
			<text transform="matrix(1 0 0 1 -271.3258 -213.7324)" class="st2 st3 st4">C</text>
		</g>
	</g>
</g>
<g id="ID000019">
	<g transform="translate(415.277,400.040)">
		<g transform="rotate(-0.0)">
			<text transform="matrix(1 0 0 1 -259.0338 -213.7324)" class="st5 st3 st4">U</text>
		</g>
	</g>
</g>
<g id="ID000020">
	<g transform="translate(380.112,400.040)">
		<g transform="rotate(-0.0)">
			<text transform="matrix(1 0 0 1 -246.7429 -213.7324)" class="st5 st3 st4">A</text>
		</g>
	</g>
</g>
<g id="ID000021">
	<g transform="translate(344.948,400.040)">
		<g transform="rotate(-0.0)">
			<text transform="matrix(1 0 0 1 -235.0857 -213.7324)" class="st5 st3 st4">G</text>
		</g>
	</g>
</g>
<g id="ID000022">
	<g transform="translate(309.783,400.040)">
		<g transform="rotate(-0.0)">
			<text transform="matrix(1 0 0 1 -222.7957 -213.7324)" class="st5 st3 st4">G</text>
		</g>
	</g>
</g>
<g id="ID000023">
	<g transform="translate(276.267,400.040)">
		<g transform="rotate(-0.0)">
			<text transform="matrix(1 0 0 1 -210.4457 -213.7324)" class="st5 st3 st4">A</text>
		</g>
	</g>
</g>
<g id="ID000024">
	<line class="st6" x1="74" y1="191.3" x2="74" y2="206.5"/>
</g>
<g id="ID000025">
	<g transform="translate(276.267,472.597)">
		<g transform="rotate(-0.0)">
			<text transform="matrix(1 0 0 1 -214.8881 -239.0931)" class="st7 st4">80</text>
		</g>
	</g>
</g>
<g id="ID000026">
	<g transform="translate(239.453,400.040)">
		<g transform="rotate(-0.0)">
			<text transform="matrix(1 0 0 1 -198.2128 -213.7324)" class="st5 st3 st4">G</text>
		</g>
	</g>
</g>
<g id="ID000027">
	<g transform="translate(204.289,400.040)">
		<g transform="rotate(-0.0)">
			<text transform="matrix(1 0 0 1 -185.289 -213.7324)" class="st5 st3 st4">U</text>
		</g>
	</g>
</g>
<g id="ID000028">
	<line class="st6" x1="187.3" y1="139.4" x2="187.3" y2="166.9"/>
</g>
<g id="ID000029">
	<line class="st6" x1="210.2" y1="139.4" x2="210.2" y2="166.9"/>
</g>
<g id="ID000030">
	<polygon class="st8" points="233.1,157.7 233.4,157.7 233.7,157.7 234,157.6 234.2,157.6 234.5,157.5 234.8,157.4 235.1,157.3 
		235.3,157.1 235.6,157 235.8,156.8 236,156.6 236.2,156.5 236.4,156.2 236.6,156 236.8,155.8 237,155.6 237.1,155.3 237.2,155 
		237.4,154.8 237.5,154.5 237.5,154.2 237.6,153.9 237.6,153.6 237.7,153.4 237.7,153.1 237.6,152.8 237.6,152.5 237.6,152.2 
		237.5,151.9 237.4,151.6 237.3,151.4 237.2,151.1 237,150.9 236.9,150.6 236.7,150.4 236.5,150.1 236.3,149.9 236.1,149.7 
		235.9,149.5 235.7,149.4 235.4,149.2 235.2,149.1 234.9,148.9 234.6,148.8 234.4,148.8 234.1,148.7 233.8,148.6 233.5,148.6 
		233.2,148.6 232.9,148.6 232.6,148.6 232.4,148.6 232.1,148.7 231.8,148.8 231.5,148.8 231.3,148.9 231,149.1 230.7,149.2 
		230.5,149.4 230.3,149.5 230,149.7 229.8,149.9 229.6,150.1 229.4,150.4 229.3,150.6 229.1,150.9 229,151.1 228.9,151.4 
		228.8,151.6 228.7,151.9 228.6,152.2 228.6,152.5 228.5,152.8 228.5,153.1 228.5,153.4 228.5,153.6 228.6,153.9 228.6,154.2 
		228.7,154.5 228.8,154.8 228.9,155 229.1,155.3 229.2,155.6 229.4,155.8 229.5,156 229.7,156.2 229.9,156.5 230.1,156.6 
		230.4,156.8 230.6,157 230.9,157.1 231.1,157.3 231.4,157.4 231.7,157.5 231.9,157.6 232.2,157.6 232.5,157.7 232.8,157.7 	"/>
</g>
<g id="ID000031">
	<line class="st6" x1="256" y1="139.4" x2="256" y2="166.9"/>
</g>
<g id="ID000032">
	<line class="st6" x1="278.8" y1="139.4" x2="278.8" y2="166.9"/>
</g>
<g id="ID000033">
	<line class="st6" x1="301.7" y1="139.4" x2="301.7" y2="166.9"/>
</g>
<g id="ID000034">
	<line class="st6" x1="324.6" y1="139.4" x2="324.6" y2="166.9"/>
</g>
<g id="ID000035">
	<g transform="translate(696.595,329.711)">
		<g transform="rotate(-0.0)">
			<text transform="matrix(1 0 0 1 -357.3625 -189.1505)" class="st9 st3 st4">C</text>
		</g>
	</g>
</g>
<g id="ID000036">
	<g transform="translate(731.760,329.711)">
		<g transform="rotate(-0.0)">
			<text transform="matrix(1 0 0 1 -369.6526 -189.1505)" class="st9 st3 st4">A</text>
		</g>
	</g>
</g>
<g id="ID000037">
	<line class="st6" x1="370.3" y1="115" x2="370.3" y2="99.8"/>
</g>
<g id="ID000038">
	<g transform="translate(731.760,258.209)">
		<g transform="rotate(-0.0)">
			<text transform="matrix(1 0 0 1 -374.095 -164.1602)" class="st7 st4">10</text>
		</g>
	</g>
</g>
<g id="ID000039">
	<g transform="translate(766.925,329.711)">
		<g transform="rotate(-0.0)">
			<text transform="matrix(1 0 0 1 -381.9435 -189.1505)" class="st9 st3 st4">A</text>
		</g>
	</g>
</g>
<g id="ID000040">
	<g transform="translate(802.090,329.711)">
		<g transform="rotate(-0.0)">
			<text transform="matrix(1 0 0 1 -394.8683 -189.1505)" class="st9 st3 st4">G</text>
		</g>
	</g>
</g>
<g id="ID000041">
	<g transform="translate(819.672,294.546)">
		<g transform="rotate(-0.0)">
			<text transform="matrix(1 0 0 1 -400.38 -176.8604)" class="st5 st3 st4">C</text>
		</g>
	</g>
</g>
<g id="ID000042">
	<g transform="translate(854.837,276.964)">
		<g transform="rotate(-0.0)">
			<text transform="matrix(1 0 0 1 -412.6719 -170.714)" class="st5 st3 st4">U</text>
		</g>
	</g>
</g>
<g id="ID000043">
	<g transform="translate(810.881,435.205)">
		<g transform="rotate(-0.0)">
			<text transform="matrix(1 0 0 1 -397.3077 -226.0233)" class="st5 st3 st4">U</text>
		</g>
	</g>
</g>
<g id="ID000044">
	<g transform="translate(802.090,400.040)">
		<g transform="rotate(-0.0)">
			<text transform="matrix(1 0 0 1 -394.2355 -213.7324)" class="st9 st3 st4">C</text>
		</g>
	</g>
</g>
<g id="ID000045">
	<g transform="translate(766.925,400.040)">
		<g transform="rotate(-0.0)">
			<text transform="matrix(1 0 0 1 -381.9435 -213.7324)" class="st9 st3 st4">U</text>
		</g>
	</g>
</g>
<g id="ID000046">
	<g transform="translate(731.760,400.040)">
		<g transform="rotate(-0.0)">
			<text transform="matrix(1 0 0 1 -369.6526 -213.7324)" class="st9 st3 st4">U</text>
		</g>
	</g>
</g>
<g id="ID000047">
	<g transform="translate(696.595,400.040)">
		<g transform="rotate(-0.0)">
			<text transform="matrix(1 0 0 1 -357.9954 -213.7324)" class="st9 st3 st4">G</text>
		</g>
	</g>
</g>
<g id="ID000048">
	<line class="st6" x1="347.5" y1="139.4" x2="347.5" y2="166.9"/>
</g>
<g id="ID000049">
	<line class="st6" x1="370.3" y1="139.4" x2="370.3" y2="166.9"/>
</g>
<g id="ID000050">
	<line class="st6" x1="393.2" y1="139.4" x2="393.2" y2="166.9"/>
</g>
<g id="ID000051">
	<line class="st6" x1="416.1" y1="139.4" x2="416.1" y2="166.9"/>
</g>
<g id="ID000052">
	<g transform="translate(898.793,294.546)">
		<g transform="rotate(-0.0)">
			<text transform="matrix(1 0 0 1 -428.0342 -176.8604)" class="st5 st3 st4">U</text>
		</g>
	</g>
</g>
<g id="ID000053">
	<g transform="translate(916.375,329.711)">
		<g transform="rotate(-0.0)">
			<text transform="matrix(1 0 0 1 -434.8145 -189.1505)" class="st10 st3 st4">G</text>
		</g>
	</g>
</g>
<g id="ID000054">
	<g transform="translate(951.540,329.711)">
		<g transform="rotate(-0.0)">
			<text transform="matrix(1 0 0 1 -447.1044 -189.1505)" class="st10 st3 st4">G</text>
		</g>
	</g>
</g>
<g id="ID000055">
	<g transform="translate(986.705,329.711)">
		<g transform="rotate(-0.0)">
			<text transform="matrix(1 0 0 1 -459.3954 -189.1505)" class="st10 st3 st4">G</text>
		</g>
	</g>
</g>
<g id="ID000056">
	<g transform="translate(1021.869,329.711)">
		<g transform="rotate(-0.0)">
			<text transform="matrix(1 0 0 1 -471.0536 -189.1505)" class="st10 st3 st4">U</text>
		</g>
	</g>
</g>
<g id="ID000057">
	<g transform="translate(1048.243,303.337)">
		<g transform="rotate(-0.0)">
			<text transform="matrix(1 0 0 1 -480.2714 -179.9317)" class="st5 st3 st4">C</text>
		</g>
	</g>
</g>
<g id="ID000058">
	<line class="st6" x1="576.2" y1="97.9" x2="576.2" y2="82.6"/>
</g>
<g id="ID000059">
	<g transform="translate(1048.243,231.835)">
		<g transform="rotate(-0.0)">
			<text transform="matrix(1 0 0 1 -484.7128 -154.9415)" class="st7 st4">20</text>
		</g>
	</g>
</g>
<g id="ID000060">
	<g transform="translate(1048.243,523.117)">
		<g transform="rotate(-0.0)">
			<text transform="matrix(1 0 0 1 -480.2714 -256.7508)" class="st5 st3 st4">U</text>
		</g>
	</g>
</g>
<g id="ID000061">
	<g transform="translate(1013.078,505.534)">
		<g transform="rotate(-0.0)">
			<text transform="matrix(1 0 0 1 -467.9803 -250.6043)" class="st5 st3 st4">U</text>
		</g>
	</g>
</g>
<g id="ID000062">
	<g transform="translate(1004.287,470.370)">
		<g transform="rotate(-0.0)">
			<text transform="matrix(1 0 0 1 -464.9081 -238.3134)" class="st5 st3 st4">U</text>
		</g>
	</g>
</g>
<g id="ID000063">
	<g transform="translate(1013.078,435.205)">
		<g transform="rotate(-0.0)">
			<text transform="matrix(1 0 0 1 -467.9803 -226.0233)" class="st5 st3 st4">A</text>
		</g>
	</g>
</g>
<g id="ID000064">
	<g transform="translate(1021.869,400.040)">
		<g transform="rotate(-0.0)">
			<text transform="matrix(1 0 0 1 -471.0536 -213.7324)" class="st10 st3 st4">A</text>
		</g>
	</g>
</g>
<g id="ID000065">
	<g transform="translate(986.705,400.040)">
		<g transform="rotate(-0.0)">
			<text transform="matrix(1 0 0 1 -458.7626 -213.7324)" class="st10 st3 st4">C</text>
		</g>
	</g>
</g>
<g id="ID000066">
	<g transform="translate(951.540,400.040)">
		<g transform="rotate(-0.0)">
			<text transform="matrix(1 0 0 1 -446.4716 -213.7324)" class="st10 st3 st4">C</text>
		</g>
	</g>
</g>
<g id="ID000067">
	<g transform="translate(916.375,400.040)">
		<g transform="rotate(-0.0)">
			<text transform="matrix(1 0 0 1 -434.1797 -213.7324)" class="st10 st3 st4">U</text>
		</g>
	</g>
</g>
<g id="ID000068">
	<polygon class="st11" points="490.4,157.7 490.7,157.7 491,157.7 491.3,157.6 491.6,157.6 491.8,157.5 492.1,157.4 492.4,157.3 
		492.6,157.1 492.9,157 493.1,156.8 493.4,156.6 493.6,156.5 493.8,156.2 494,156 494.1,155.8 494.3,155.6 494.4,155.3 494.6,155 
		494.7,154.8 494.8,154.5 494.9,154.2 494.9,153.9 495,153.6 495,153.4 495,153.1 495,152.8 494.9,152.5 494.9,152.2 494.8,151.9 
		494.7,151.6 494.6,151.4 494.5,151.1 494.4,150.9 494.2,150.6 494.1,150.4 493.9,150.1 493.7,149.9 493.5,149.7 493.2,149.5 
		493,149.4 492.8,149.2 492.5,149.1 492.2,148.9 492,148.8 491.7,148.8 491.4,148.7 491.1,148.6 490.9,148.6 490.6,148.6 
		490.3,148.6 490,148.6 489.7,148.6 489.4,148.7 489.1,148.8 488.9,148.8 488.6,148.9 488.3,149.1 488.1,149.2 487.8,149.4 
		487.6,149.5 487.4,149.7 487.2,149.9 487,150.1 486.8,150.4 486.6,150.6 486.5,150.9 486.3,151.1 486.2,151.4 486.1,151.6 
		486,151.9 485.9,152.2 485.9,152.5 485.9,152.8 485.8,153.1 485.8,153.4 485.9,153.6 485.9,153.9 486,154.2 486,154.5 486.1,154.8 
		486.3,155 486.4,155.3 486.5,155.6 486.7,155.8 486.9,156 487.1,156.2 487.3,156.5 487.5,156.6 487.7,156.8 487.9,157 488.2,157.1 
		488.4,157.3 488.7,157.4 489,157.5 489.3,157.6 489.5,157.6 489.8,157.7 490.1,157.7 	"/>
</g>
<g id="ID000069">
	<line class="st6" x1="513.3" y1="139.4" x2="513.3" y2="166.9"/>
</g>
<g id="ID000070">
	<line class="st6" x1="536.2" y1="139.4" x2="536.2" y2="166.9"/>
</g>
<g id="ID000071">
	<line class="st6" x1="559" y1="139.4" x2="559" y2="166.9"/>
</g>
<g id="ID000072">
	<g transform="translate(1074.616,329.711)">
		<g transform="rotate(-0.0)">
			<text transform="matrix(1 0 0 1 -490.1228 -189.1505)" class="st12 st3 st4">G</text>
		</g>
	</g>
</g>
<g id="ID000073">
	<g transform="translate(1109.781,329.711)">
		<g transform="rotate(-0.0)">
			<text transform="matrix(1 0 0 1 -501.781 -189.1505)" class="st12 st3 st4">C</text>
		</g>
	</g>
</g>
<g id="ID000074">
	<g transform="translate(1144.946,329.711)">
		<g transform="rotate(-0.0)">
			<text transform="matrix(1 0 0 1 -514.7058 -189.1505)" class="st12 st3 st4">G</text>
		</g>
	</g>
</g>
<g id="ID000075">
	<g transform="translate(1180.111,329.711)">
		<g transform="rotate(-0.0)">
			<text transform="matrix(1 0 0 1 -526.3629 -189.1505)" class="st12 st3 st4">U</text>
		</g>
	</g>
</g>
<g id="ID000076">
	<g transform="translate(1215.275,329.711)">
		<g transform="rotate(-0.0)">
			<text transform="matrix(1 0 0 1 -538.653 -189.1505)" class="st12 st3 st4">U</text>
		</g>
	</g>
</g>
<g id="ID000077">
	<g transform="translate(1250.440,320.920)">
		<g transform="rotate(-0.0)">
			<text transform="matrix(1 0 0 1 -550.9448 -186.0772)" class="st5 st3 st4">U</text>
		</g>
	</g>
</g>
<g id="ID000078">
	<g transform="translate(1285.605,312.128)">
		<g transform="rotate(-0.0)">
			<text transform="matrix(1 0 0 1 -563.2358 -183.004)" class="st5 st3 st4">U</text>
		</g>
	</g>
</g>
<g id="ID000079">
	<g transform="translate(1320.770,320.920)">
		<g transform="rotate(-0.0)">
			<text transform="matrix(1 0 0 1 -576.1606 -186.0772)" class="st5 st3 st4">G</text>
		</g>
	</g>
</g>
<g id="ID000080">
	<g transform="translate(1355.935,347.293)">
		<g transform="rotate(-0.0)">
			<text transform="matrix(1 0 0 1 -587.8179 -195.2959)" class="st5 st3 st4">C</text>
		</g>
	</g>
</g>
<g id="ID000081">
	<g transform="translate(1355.935,382.458)">
		<g transform="rotate(-0.0)">
			<text transform="matrix(1 0 0 1 -587.8179 -207.5869)" class="st5 st3 st4">U</text>
		</g>
	</g>
</g>
<g id="ID000082">
	<line class="st6" x1="776.3" y1="179.8" x2="776.3" y2="195.1"/>
</g>
<g id="ID000083">
	<g transform="translate(1355.935,455.014)">
		<g transform="rotate(-0.0)">
			<text transform="matrix(1 0 0 1 -592.2583 -232.9476)" class="st7 st4">30</text>
		</g>
	</g>
</g>
<g id="ID000084">
	<g transform="translate(1320.770,408.831)">
		<g transform="rotate(-0.0)">
			<text transform="matrix(1 0 0 1 -575.5259 -216.8046)" class="st5 st3 st4">A</text>
		</g>
	</g>
</g>
<g id="ID000085">
	<g transform="translate(1285.605,417.623)">
		<g transform="rotate(-0.0)">
			<text transform="matrix(1 0 0 1 -563.2358 -219.8779)" class="st5 st3 st4">U</text>
		</g>
	</g>
</g>
<g id="ID000086">
	<g transform="translate(1250.440,408.831)">
		<g transform="rotate(-0.0)">
			<text transform="matrix(1 0 0 1 -550.9448 -216.8046)" class="st5 st3 st4">U</text>
		</g>
	</g>
</g>
<g id="ID000087">
	<g transform="translate(1215.275,400.040)">
		<g transform="rotate(-0.0)">
			<text transform="matrix(1 0 0 1 -539.2867 -213.7324)" class="st12 st3 st4">G</text>
		</g>
	</g>
</g>
<g id="ID000088">
	<g transform="translate(1180.111,400.040)">
		<g transform="rotate(-0.0)">
			<text transform="matrix(1 0 0 1 -526.3629 -213.7324)" class="st12 st3 st4">A</text>
		</g>
	</g>
</g>
<g id="ID000089">
	<g transform="translate(1144.946,400.040)">
		<g transform="rotate(-0.0)">
			<text transform="matrix(1 0 0 1 -514.071 -213.7324)" class="st12 st3 st4">U</text>
		</g>
	</g>
</g>
<g id="ID000090">
	<g transform="translate(1109.781,400.040)">
		<g transform="rotate(-0.0)">
			<text transform="matrix(1 0 0 1 -502.4148 -213.7324)" class="st12 st3 st4">G</text>
		</g>
	</g>
</g>
<g id="ID000091">
	<g transform="translate(1074.616,400.040)">
		<g transform="rotate(-0.0)">
			<text transform="matrix(1 0 0 1 -489.49 -213.7324)" class="st12 st3 st4">U</text>
		</g>
	</g>
</g>
<g id="ID000092">
	<g transform="translate(1083.408,435.205)">
		<g transform="rotate(-0.0)">
			<text transform="matrix(1 0 0 1 -492.5632 -226.0233)" class="st5 st3 st4">U</text>
		</g>
	</g>
</g>
<g id="ID000093">
	<g transform="translate(1092.199,470.370)">
		<g transform="rotate(-0.0)">
			<text transform="matrix(1 0 0 1 -495.6355 -238.3134)" class="st5 st3 st4">C</text>
		</g>
	</g>
</g>
<g id="ID000094">
	<line class="st6" x1="620" y1="221.8" x2="635.3" y2="221.8"/>
</g>
<g id="ID000095">
	<g transform="translate(1139.085,470.370)">
		<g transform="rotate(-0.0)">
			<text transform="matrix(1 0 0 1 -503.8027 -238.3134)" class="st7 st4">40</text>
		</g>
	</g>
</g>
<g id="ID000096">
	<g transform="translate(1083.408,505.534)">
		<g transform="rotate(-0.0)">
			<text transform="matrix(1 0 0 1 -492.5632 -250.6043)" class="st5 st3 st4">U</text>
		</g>
	</g>
</g>
<g id="ID000097">
	<polygon class="st8" points="593.3,157.7 593.6,157.7 593.9,157.7 594.2,157.6 594.5,157.6 594.8,157.5 595,157.4 595.3,157.3 
		595.6,157.1 595.8,157 596.1,156.8 596.3,156.6 596.5,156.5 596.7,156.2 596.9,156 597.1,155.8 597.2,155.6 597.4,155.3 597.5,155 
		597.6,154.8 597.7,154.5 597.8,154.2 597.9,153.9 597.9,153.6 597.9,153.4 597.9,153.1 597.9,152.8 597.9,152.5 597.8,152.2 
		597.8,151.9 597.7,151.6 597.6,151.4 597.4,151.1 597.3,150.9 597.2,150.6 597,150.4 596.8,150.1 596.6,149.9 596.4,149.7 
		596.2,149.5 595.9,149.4 595.7,149.2 595.4,149.1 595.2,148.9 594.9,148.8 594.6,148.8 594.4,148.7 594.1,148.6 593.8,148.6 
		593.5,148.6 593.2,148.6 592.9,148.6 592.6,148.6 592.3,148.7 592.1,148.8 591.8,148.8 591.5,148.9 591.3,149.1 591,149.2 
		590.8,149.4 590.5,149.5 590.3,149.7 590.1,149.9 589.9,150.1 589.7,150.4 589.5,150.6 589.4,150.9 589.2,151.1 589.1,151.4 
		589,151.6 588.9,151.9 588.9,152.2 588.8,152.5 588.8,152.8 588.8,153.1 588.8,153.4 588.8,153.6 588.8,153.9 588.9,154.2 
		589,154.5 589.1,154.8 589.2,155 589.3,155.3 589.5,155.6 589.6,155.8 589.8,156 590,156.2 590.2,156.5 590.4,156.6 590.6,156.8 
		590.9,157 591.1,157.1 591.4,157.3 591.6,157.4 591.9,157.5 592.2,157.6 592.5,157.6 592.8,157.7 593.1,157.7 	"/>
</g>
<g id="ID000098">
	<line class="st6" x1="616.2" y1="139.4" x2="616.2" y2="166.9"/>
</g>
<g id="ID000099">
	<polygon class="st8" points="639.1,157.7 639.4,157.7 639.7,157.7 640,157.6 640.2,157.6 640.5,157.5 640.8,157.4 641.1,157.3 
		641.3,157.1 641.6,157 641.8,156.8 642,156.6 642.3,156.5 642.5,156.2 642.6,156 642.8,155.8 643,155.6 643.1,155.3 643.3,155 
		643.4,154.8 643.5,154.5 643.5,154.2 643.6,153.9 643.6,153.6 643.7,153.4 643.7,153.1 643.7,152.8 643.6,152.5 643.6,152.2 
		643.5,151.9 643.4,151.6 643.3,151.4 643.2,151.1 643.1,150.9 642.9,150.6 642.7,150.4 642.6,150.1 642.4,149.9 642.1,149.7 
		641.9,149.5 641.7,149.4 641.4,149.2 641.2,149.1 640.9,148.9 640.7,148.8 640.4,148.8 640.1,148.7 639.8,148.6 639.5,148.6 
		639.2,148.6 638.9,148.6 638.7,148.6 638.4,148.6 638.1,148.7 637.8,148.8 637.5,148.8 637.3,148.9 637,149.1 636.7,149.2 
		636.5,149.4 636.3,149.5 636,149.7 635.8,149.9 635.6,150.1 635.5,150.4 635.3,150.6 635.1,150.9 635,151.1 634.9,151.4 
		634.8,151.6 634.7,151.9 634.6,152.2 634.6,152.5 634.5,152.8 634.5,153.1 634.5,153.4 634.5,153.6 634.6,153.9 634.6,154.2 
		634.7,154.5 634.8,154.8 634.9,155 635.1,155.3 635.2,155.6 635.4,155.8 635.5,156 635.7,156.2 635.9,156.5 636.2,156.6 
		636.4,156.8 636.6,157 636.9,157.1 637.1,157.3 637.4,157.4 637.7,157.5 637.9,157.6 638.2,157.6 638.5,157.7 638.8,157.7 	"/>
</g>
<g id="ID000100">
	<line class="st6" x1="662" y1="139.4" x2="662" y2="166.9"/>
</g>
<g id="ID000101">
	<polygon class="st8" points="684.8,157.7 685.1,157.7 685.4,157.7 685.7,157.6 686,157.6 686.3,157.5 686.5,157.4 686.8,157.3 
		687.1,157.1 687.3,157 687.6,156.8 687.8,156.6 688,156.5 688.2,156.2 688.4,156 688.6,155.8 688.7,155.6 688.9,155.3 689,155 
		689.1,154.8 689.2,154.5 689.3,154.2 689.3,153.9 689.4,153.6 689.4,153.4 689.4,153.1 689.4,152.8 689.4,152.5 689.3,152.2 
		689.3,151.9 689.2,151.6 689.1,151.4 688.9,151.1 688.8,150.9 688.7,150.6 688.5,150.4 688.3,150.1 688.1,149.9 687.9,149.7 
		687.7,149.5 687.4,149.4 687.2,149.2 686.9,149.1 686.7,148.9 686.4,148.8 686.1,148.8 685.9,148.7 685.6,148.6 685.3,148.6 
		685,148.6 684.7,148.6 684.4,148.6 684.1,148.6 683.8,148.7 683.6,148.8 683.3,148.8 683,148.9 682.7,149.1 682.5,149.2 
		682.2,149.4 682,149.5 681.8,149.7 681.6,149.9 681.4,150.1 681.2,150.4 681,150.6 680.9,150.9 680.7,151.1 680.6,151.4 
		680.5,151.6 680.4,151.9 680.4,152.2 680.3,152.5 680.3,152.8 680.3,153.1 680.3,153.4 680.3,153.6 680.3,153.9 680.4,154.2 
		680.5,154.5 680.6,154.8 680.7,155 680.8,155.3 681,155.6 681.1,155.8 681.3,156 681.5,156.2 681.7,156.5 681.9,156.6 682.1,156.8 
		682.4,157 682.6,157.1 682.9,157.3 683.1,157.4 683.4,157.5 683.7,157.6 684,157.6 684.3,157.7 684.6,157.7 	"/>
</g>
<g id="ID000102">
	<g transform="translate(916.375,435.205)">
		<g transform="rotate(-0.0)">
			<text transform="matrix(1 0 0 1 -434.8145 -226.0233)" class="st2 st3 st4">G</text>
		</g>
	</g>
</g>
<g id="ID000103">
	<line class="st6" x1="501.2" y1="209.7" x2="512" y2="220.5"/>
</g>
<g id="ID000104">
	<g transform="translate(949.529,494.029)">
		<g transform="rotate(-0.0)">
			<text transform="matrix(1 0 0 1 -437.5475 -246.5837)" class="st7 st4">50</text>
		</g>
	</g>
</g>
<g id="ID000105">
	<g transform="translate(916.375,470.370)">
		<g transform="rotate(-0.0)">
			<text transform="matrix(1 0 0 1 -434.8145 -238.3134)" class="st2 st3 st4">G</text>
		</g>
	</g>
</g>
<g id="ID000106">
	<g transform="translate(916.375,505.534)">
		<g transform="rotate(-0.0)">
			<text transform="matrix(1 0 0 1 -434.1797 -250.6043)" class="st2 st3 st4">C</text>
		</g>
	</g>
</g>
<g id="ID000107">
	<g transform="translate(916.375,540.699)">
		<g transform="rotate(-0.0)">
			<text transform="matrix(1 0 0 1 -434.1797 -262.8953)" class="st2 st3 st4">C</text>
		</g>
	</g>
</g>
<g id="ID000108">
	<g transform="translate(916.375,575.864)">
		<g transform="rotate(-0.0)">
			<text transform="matrix(1 0 0 1 -434.1797 -275.1873)" class="st2 st3 st4">U</text>
		</g>
	</g>
</g>
<g id="ID000109">
	<g transform="translate(925.166,611.029)">
		<g transform="rotate(-0.0)">
			<text transform="matrix(1 0 0 1 -437.8867 -287.4782)" class="st2 st3 st4">G</text>
		</g>
	</g>
</g>
<g id="ID000110">
	<g transform="translate(898.793,646.194)">
		<g transform="rotate(-0.0)">
			<text transform="matrix(1 0 0 1 -428.0342 -299.7682)" class="st2 st3 st4">U</text>
		</g>
	</g>
</g>
<g id="ID000111">
	<g transform="translate(863.628,646.194)">
		<g transform="rotate(-0.0)">
			<text transform="matrix(1 0 0 1 -415.7442 -299.7682)" class="st2 st3 st4">U</text>
		</g>
	</g>
</g>
<g id="ID000112">
	<g transform="translate(837.254,611.029)">
		<g transform="rotate(-0.0)">
			<text transform="matrix(1 0 0 1 -406.5255 -287.4782)" class="st2 st3 st4">U</text>
		</g>
	</g>
</g>
<g id="ID000113">
	<g transform="translate(846.046,575.864)">
		<g transform="rotate(-0.0)">
			<text transform="matrix(1 0 0 1 -410.2325 -275.1873)" class="st2 st3 st4">G</text>
		</g>
	</g>
</g>
<g id="ID000114">
	<g transform="translate(846.046,540.699)">
		<g transform="rotate(-0.0)">
			<text transform="matrix(1 0 0 1 -410.2325 -262.8953)" class="st2 st3 st4">G</text>
		</g>
	</g>
</g>
<g id="ID000115">
	<line class="st6" x1="429.4" y1="267.5" x2="414.2" y2="267.5"/>
</g>
<g id="ID000116">
	<g transform="translate(799.159,540.699)">
		<g transform="rotate(-0.0)">
			<text transform="matrix(1 0 0 1 -410.3133 -262.8953)" class="st7 st4">60</text>
		</g>
	</g>
</g>
<g id="ID000117">
	<g transform="translate(846.046,505.534)">
		<g transform="rotate(-0.0)">
			<text transform="matrix(1 0 0 1 -410.2325 -250.6043)" class="st2 st3 st4">G</text>
		</g>
	</g>
</g>
<g id="ID000118">
	<g transform="translate(846.046,470.370)">
		<g transform="rotate(-0.0)">
			<text transform="matrix(1 0 0 1 -409.5988 -238.3134)" class="st2 st3 st4">C</text>
		</g>
	</g>
</g>
<g id="ID000119">
	<g transform="translate(846.046,435.205)">
		<g transform="rotate(-0.0)">
			<text transform="matrix(1 0 0 1 -409.5988 -226.0233)" class="st2 st3 st4">C</text>
		</g>
	</g>
</g>
<g id="ID000120">
	<line class="st6" x1="481.3" y1="198.9" x2="453.8" y2="198.9"/>
</g>
<g id="ID000121">
	<line class="st6" x1="481.3" y1="221.8" x2="453.8" y2="221.8"/>
</g>
<g id="ID000122">
	<line class="st6" x1="481.3" y1="244.6" x2="453.8" y2="244.6"/>
</g>
<g id="ID000123">
	<line class="st6" x1="481.3" y1="267.5" x2="453.8" y2="267.5"/>
</g>
<g id="ID000124">
	<polygon class="st11" points="463,290.4 463,290.7 463,291 463,291.2 463.1,291.5 463.2,291.8 463.3,292.1 463.4,292.3 
		463.5,292.6 463.7,292.9 463.9,293.1 464,293.3 464.2,293.5 464.4,293.7 464.7,293.9 464.9,294.1 465.1,294.3 465.4,294.4 
		465.6,294.5 465.9,294.7 466.2,294.8 466.5,294.8 466.7,294.9 467,294.9 467.3,295 467.6,295 467.9,294.9 468.2,294.9 468.5,294.9 
		468.8,294.8 469,294.7 469.3,294.6 469.6,294.5 469.8,294.3 470.1,294.2 470.3,294 470.5,293.8 470.8,293.6 471,293.4 471.1,293.2 
		471.3,293 471.5,292.7 471.6,292.5 471.7,292.2 471.8,291.9 471.9,291.7 472,291.4 472.1,291.1 472.1,290.8 472.1,290.5 
		472.1,290.2 472.1,289.9 472.1,289.7 472,289.4 471.9,289.1 471.8,288.8 471.7,288.5 471.6,288.3 471.5,288 471.3,287.8 
		471.1,287.6 471,287.3 470.8,287.1 470.5,286.9 470.3,286.7 470.1,286.6 469.8,286.4 469.6,286.3 469.3,286.2 469,286.1 468.8,286 
		468.5,285.9 468.2,285.9 467.9,285.8 467.6,285.8 467.3,285.8 467,285.8 466.7,285.9 466.5,285.9 466.2,286 465.9,286.1 
		465.6,286.2 465.4,286.4 465.1,286.5 464.9,286.7 464.7,286.8 464.4,287 464.2,287.2 464,287.4 463.9,287.7 463.7,287.9 
		463.5,288.2 463.4,288.4 463.3,288.7 463.2,289 463.1,289.2 463,289.5 463,289.8 463,290.1 	"/>
</g>
<text transform="matrix(1 0 0 1 14.9999 206.5119)" class="st13 st7 st14">3’</text>
<text transform="matrix(1 0 0 1 163.9907 129.1243)" class="st13 st7 st14">5’</text>
</svg>
