<?xml version="1.0" encoding="utf-8"?>
<!-- Generator: Adobe Illustrator 25.2.0, SVG Export Plug-In . SVG Version: 6.00 Build 0)  -->
<svg version="1.1" id="图层_1" xmlns="http://www.w3.org/2000/svg" xmlns:xlink="http://www.w3.org/1999/xlink" x="0px" y="0px"
	 viewBox="0 0 800 400" style="enable-background:new 0 0 800 400;" xml:space="preserve">
<style type="text/css">
	.st0{font-family:'ArialMT';}
	.st1{font-size:20px;}
	.st2{fill:#B83233;}
	.st3{font-family:'Arial-BoldMT';}
	.st4{font-size:17.62px;}
	.st5{fill:#18988C;}
	.st6{fill:#F17D07;}
	.st7{fill:none;stroke:#000000;stroke-miterlimit:10;}
	.st8{fill:#084595;}
	.st9{stroke:#000000;stroke-width:8.000000e-02;stroke-miterlimit:10;}
	.st10{fill:#CF3E7D;}
	.st11{font-size:16px;}
</style>
<text transform="matrix(1 0 0 1 318.26 101.48)" class="st0 st1">NOX-E36 L-aptamer</text>
<g id="ID000002">
	<text transform="matrix(1 0 0 1 247.91 234.64)" class="st2 st3 st4">G</text>
</g>
<g id="ID000003">
	<text transform="matrix(1 0 0 1 267.92 234.53)" class="st2 st3 st4">C</text>
</g>
<g id="ID000004">
	<text transform="matrix(1 0 0 1 285.49 234.38)" class="st2 st3 st4">A</text>
</g>
<g id="ID000005">
	<text transform="matrix(1 0 0 1 289.72 216.86)" class="st5 st3 st4">C</text>
</g>
<g id="ID000006">
	<text transform="matrix(1 0 0 1 289.12 199.33)" class="st6 st3 st4">G</text>
</g>
<g id="ID000007">
	<text transform="matrix(1 0 0 1 316.24 251.75)" class="st5 st3 st4">U</text>
</g>
<g id="ID000008">
	<text transform="matrix(1 0 0 1 307.58 269.34)" class="st5 st3 st4">C</text>
</g>
<g id="ID000009">
	<text transform="matrix(1 0 0 1 285.67 269.47)" class="st2 st3 st4">U</text>
</g>
<g id="ID000010">
	<text transform="matrix(1 0 0 1 267.65 269.58)" class="st2 st3 st4">G</text>
</g>
<g id="ID000011">
	<text transform="matrix(1 0 0 1 250.61 269.7)" class="st2 st3 st4">C</text>
</g>
<g id="ID000012">
	<text transform="matrix(1 0 0 1 232.6 269.8)" class="st5 st3 st4">G</text>
</g>
<g id="ID000013">
	<line class="st7" x1="239.6" y1="276" x2="239.6" y2="287.6"/>
</g>
<g id="ID000014">
	<text transform="matrix(1 0 0 1 229.4 303.43)" class="st0 st4">40</text>
</g>
<g id="ID000015">
	<line class="st7" x1="256.9" y1="236.1" x2="257" y2="257.2"/>
</g>
<g id="ID000016">
	<line class="st7" x1="274.4" y1="236" x2="274.5" y2="257"/>
</g>
<g id="ID000017">
	<line class="st7" x1="291.9" y1="235.9" x2="292" y2="256.9"/>
</g>
<g id="ID000018">
	<text transform="matrix(1 0 0 1 307.06 186.08)" class="st5 st3 st4">U</text>
</g>
<g id="ID000019">
	<text transform="matrix(1 0 0 -1 328.94 173.0697)" class="st5 st3 st4">C</text>
</g>
<g id="ID000020">
	<text transform="matrix(1 0 0 1 336.82 198.23)" class="st8 st3 st4">C</text>
</g>
<g id="ID000021">
	<text transform="matrix(1 0 0 1 355.34 198.92)" class="st6 st3 st4">C</text>
</g>
<g id="ID000022">
	<text transform="matrix(1 0 0 1 368.38 181.31)" class="st6 st3 st4">U</text>
</g>
<g id="ID000023">
	<line class="st7" x1="374.7" y1="164.1" x2="374.6" y2="152.4"/>
</g>
<g id="ID000024">
	<text transform="matrix(1 0 0 1 364.27 148.6)" class="st0 st4">10</text>
</g>
<g id="ID000025">
	<text transform="matrix(1 0 0 1 385.85 172.43)" class="st6 st3 st4">C</text>
</g>
<g id="ID000026">
	<text transform="matrix(1 0 0 1 373.13 233.83)" class="st5 st3 st4">A</text>
</g>
<g id="ID000027">
	<text transform="matrix(1 0 0 1 355.08 233.98)" class="st8 st3 st4">G</text>
</g>
<g id="ID000028">
	<text transform="matrix(1 0 0 1 337.55 234.09)" class="st8 st3 st4">G</text>
</g>
<g id="ID000029">
	<text transform="matrix(1 0 0 1 320.51 234.2)" class="st5 st3 st4">C</text>
</g>
<g id="ID000030">
	<line class="st7" x1="344.3" y1="200.5" x2="344.4" y2="221.5"/>
</g>
<g id="ID000031">
	<line class="st7" x1="361.8" y1="200.4" x2="361.9" y2="221.4"/>
</g>
<g id="ID000032">
	<line class="st7" x1="429.5" y1="228" x2="386.5" y2="228.3"/>
</g>
<g id="ID000033">
	<polygon class="st9" points="413.8,222.9 410.9,225.5 408,226.4 405.1,226.9 399.2,228.2 405.1,229.5 408,229.9 410.9,230.8 
		413.9,233.4 	"/>
</g>
<g id="ID000034">
	<text transform="matrix(1 0 0 1 403.42 172.28)" class="st5 st3 st4">A</text>
</g>
<g id="ID000035">
	<text transform="matrix(1 0 0 1 420.96 180.97)" class="st5 st3 st4">C</text>
</g>
<g id="ID000036">
	<text transform="matrix(1 0 0 1 429.84 198.45)" class="st10 st3 st4">C</text>
</g>
<g id="ID000037">
	<text transform="matrix(1 0 0 1 446.87 198.34)" class="st10 st3 st4">G</text>
</g>
<g id="ID000038">
	<text transform="matrix(1 0 0 1 464.4 198.23)" class="st10 st3 st4">G</text>
</g>
<g id="ID000039">
	<text transform="matrix(1 0 0 1 482.42 198.12)" class="st5 st3 st4">U</text>
</g>
<g id="ID000040">
	<text transform="matrix(1 0 0 1 477.88 250.73)" class="st6 st3 st4">G</text>
</g>
<g id="ID000041">
	<text transform="matrix(1 0 0 1 465.11 233.28)" class="st10 st3 st4">C</text>
</g>
<g id="ID000042">
	<text transform="matrix(1 0 0 1 447.59 233.39)" class="st10 st3 st4">C</text>
</g>
<g id="ID000043">
	<text transform="matrix(1 0 0 1 429.57 233.51)" class="st10 st3 st4">G</text>
</g>
<g id="ID000044">
	<line class="st7" x1="436.5" y1="239.7" x2="436.6" y2="251.3"/>
</g>
<g id="ID000045">
	<text transform="matrix(1 0 0 1 426.37 267.13)" class="st0 st4">30</text>
</g>
<g id="ID000046">
	<line class="st7" x1="436.3" y1="199.9" x2="436.4" y2="221"/>
</g>
<g id="ID000047">
	<line class="st7" x1="453.8" y1="199.8" x2="454" y2="220.9"/>
</g>
<g id="ID000048">
	<line class="st7" x1="471.4" y1="199.7" x2="471.5" y2="220.7"/>
</g>
<g id="ID000049">
	<text transform="matrix(1 0 0 1 503.84 197.98)" class="st5 st3 st4">G</text>
</g>
<g id="ID000050">
	<text transform="matrix(1 0 0 1 521.78 184.72)" class="st5 st3 st4">C</text>
</g>
<g id="ID000051">
	<text transform="matrix(1 0 0 1 539.4 193.34)" class="st5 st3 st4">A</text>
</g>
<g id="ID000052">
	<line class="st7" x1="545.7" y1="176.2" x2="545.6" y2="164.5"/>
</g>
<g id="ID000053">
	<text transform="matrix(1 0 0 1 535.26 160.67)" class="st0 st4">20</text>
</g>
<g id="ID000054">
	<text transform="matrix(1 0 0 1 552.62 206.4)" class="st5 st3 st4">A</text>
</g>
<g id="ID000055">
	<text transform="matrix(1 0 0 1 552.2 223.96)" class="st6 st3 st4">G</text>
</g>
<g id="ID000056">
	<text transform="matrix(1 0 0 1 539.64 237.19)" class="st5 st3 st4">U</text>
</g>
<g id="ID000057">
	<text transform="matrix(1 0 0 1 521.67 246.07)" class="st6 st3 st4">G</text>
</g>
<g id="ID000058">
	<text transform="matrix(1 0 0 1 504.59 233)" class="st5 st3 st4">A</text>
</g>
<g id="ID000059">
	<text transform="matrix(1 0 0 1 495.94 250.58)" class="st6 st3 st4">A</text>
</g>
<g id="ID000060">
	<line class="st7" x1="510.8" y1="199.5" x2="510.9" y2="220.5"/>
</g>
<text transform="matrix(1 0 0 1 229.02 224.06)" class="st0 st11">5</text>
<text transform="matrix(1 0 0 1 237.92 224.06)" class="st0 st11">’</text>
<text transform="matrix(1 0 0 1 208.94 271.72)" class="st0 st11">3</text>
<text transform="matrix(1 0 0 1 217.84 271.72)" class="st0 st11">’</text>
</svg>
