<?xml version="1.0" encoding="utf-8"?>
<!-- Generator: Adobe Illustrator 25.2.0, SVG Export Plug-In . SVG Version: 6.00 Build 0)  -->
<svg version="1.1" id="_图层_1" xmlns="http://www.w3.org/2000/svg" xmlns:xlink="http://www.w3.org/1999/xlink" x="0px" y="0px"
	 viewBox="0 0 800 400" style="enable-background:new 0 0 800 400;" xml:space="preserve">
<style type="text/css">
	.st0{fill:#B83233;}
	.st1{font-family:'ArialMT';}
	.st2{font-size:27.87px;}
	.st3{letter-spacing:-1;}
	.st4{fill:none;stroke:#000000;stroke-miterlimit:10;}
	.st5{font-size:20px;}
	.st6{fill:#084595;}
	.st7{stroke:#000000;stroke-miterlimit:10;}
	.st8{fill:#18988C;}
</style>
<text transform="matrix(1 2.094394e-03 -2.094394e-03 1 115.84 171.97)" class="st0 st1 st2">G</text>
<text transform="matrix(1 2.094394e-03 -2.094394e-03 1 143.61 172.03)" class="st0 st1 st2">G</text>
<text transform="matrix(1 2.094394e-03 -2.094394e-03 1 172.15 172.1)" class="st0 st1 st2">C</text>
<text transform="matrix(1 2.094394e-03 -2.094394e-03 1 199.14 172.1499)" class="st0 st1 st2">G</text>
<text transform="matrix(1 2.094394e-03 -2.094394e-03 1 227.66 172.21)" class="st0 st1 st2">C</text>
<text transform="matrix(1 2.094394e-03 -2.094394e-03 1 256.19 172.28)" class="st0 st1 st2 st3">A</text>
<text transform="matrix(1 2.094394e-03 -2.094394e-03 1 277.67 146.13)" class="st0 st1 st2">G</text>
<text transform="matrix(1 2.094394e-03 -2.094394e-03 1 274.73 245.39)" class="st0 st1 st2 st3">A</text>
<text transform="matrix(1 2.094394e-03 -2.094394e-03 1 254.53 227.79)" class="st0 st1 st2">G</text>
<text transform="matrix(1 2.094394e-03 -2.094394e-03 1 226.76 227.73)" class="st0 st1 st2">G</text>
<line class="st4" x1="237.5" y1="232.4" x2="237.3" y2="250.9"/>
<text transform="matrix(1 2.094394e-03 -2.094394e-03 1 226.1 272.61)" class="st1 st5">40</text>
<text transform="matrix(1 2.094394e-03 -2.094394e-03 1 199.79 227.68)" class="st0 st1 st2">C</text>
<text transform="matrix(1 2.094394e-03 -2.094394e-03 1 171.26 227.61)" class="st0 st1 st2">G</text>
<text transform="matrix(1 2.094394e-03 -2.094394e-03 1 144.27 227.56)" class="st0 st1 st2">C</text>
<text transform="matrix(1 2.094394e-03 -2.094394e-03 1 116.5 227.5)" class="st0 st1 st2">C</text>
<line class="st4" x1="130" y1="172.5" x2="129.6" y2="205.8"/>
<line class="st4" x1="157.8" y1="172.8" x2="157.4" y2="206.1"/>
<line class="st4" x1="185.5" y1="173.1" x2="185.2" y2="206.4"/>
<line class="st4" x1="213.2" y1="173.4" x2="212.9" y2="206.7"/>
<line class="st4" x1="241" y1="173.7" x2="240.7" y2="207"/>
<text transform="matrix(1 2.094394e-03 -2.094394e-03 1 311.28 146.7)" class="st0 st1 st2">G</text>
<text transform="matrix(1 2.094394e-03 -2.094394e-03 1 336.06 172.45)" class="st6 st1 st2">U</text>
<text transform="matrix(1 2.094394e-03 -2.094394e-03 1 363.04 172.5)" class="st6 st1 st2">G</text>
<line class="st4" x1="375.8" y1="149.5" x2="376" y2="131"/>
<text transform="matrix(1 2.094394e-03 -2.094394e-03 1 364.09 129.08)" class="st1 st5">10</text>
<text transform="matrix(1 2.094394e-03 -2.094394e-03 1 390.81 172.56)" class="st6 st1 st2">G</text>
<text transform="matrix(1 2.094394e-03 -2.094394e-03 1 414.25 151.16)" class="st6 st1 st2">G</text>
<text transform="matrix(1 2.094394e-03 -2.094394e-03 1 438.11 134.61)" class="st6 st1 st2">U</text>
<text transform="matrix(1 2.094394e-03 -2.094394e-03 1 471.13 121.5)" class="st6 st1 st2 st3">A</text>
<text transform="matrix(1 2.094394e-03 -2.094394e-03 1 467.79 272.61)" class="st6 st1 st2">G</text>
<line class="st4" x1="479.8" y1="280.7" x2="479.6" y2="299.2"/>
<text transform="matrix(1 2.094394e-03 -2.094394e-03 1 469.69 317.63)" class="st1 st5">30</text>
<text transform="matrix(1 2.094394e-03 -2.094394e-03 1 436.72 264.77)" class="st6 st1 st2">G</text>
<text transform="matrix(1 2.094394e-03 -2.094394e-03 1 413.71 250.38)" class="st6 st1 st2">G</text>
<text transform="matrix(1 2.094394e-03 -2.094394e-03 1 391.47 228.09)" class="st6 st1 st2">U</text>
<text transform="matrix(1 2.094394e-03 -2.094394e-03 1 363.7 228.03)" class="st6 st1 st2">C</text>
<text transform="matrix(1 2.094394e-03 -2.094394e-03 1 335.16 227.96)" class="st6 st1 st2">G</text>
<text transform="matrix(1 2.094394e-03 -2.094394e-03 1 315.79 243.83)" class="st0 st1 st2 st3">A</text>
<text transform="matrix(1 2.094394e-03 -2.094394e-03 1 294.51 263.62)" class="st0 st1 st2">G</text>
<polygon class="st7" points="349.2,197 349.5,197 349.9,197 350.2,196.9 350.6,196.9 350.9,196.8 351.2,196.7 351.6,196.5 
	351.9,196.4 352.2,196.2 352.5,196 352.8,195.8 353,195.5 353.3,195.3 353.5,195 353.7,194.7 353.9,194.5 354.1,194.2 354.3,193.8 
	354.4,193.5 354.5,193.2 354.6,192.8 354.7,192.5 354.7,192.1 354.8,191.8 354.8,191.4 354.8,191.1 354.7,190.8 354.7,190.4 
	354.6,190.1 354.5,189.7 354.4,189.4 354.2,189.1 354.1,188.8 353.9,188.5 353.7,188.2 353.5,187.9 353.2,187.6 353,187.4 
	352.7,187.2 352.4,186.9 352.1,186.7 351.8,186.6 351.5,186.4 351.2,186.3 350.9,186.2 350.5,186.1 350.2,186 349.8,186 
	349.5,185.9 349.1,185.9 348.8,185.9 348.4,186 348.1,186.1 347.7,186.1 347.4,186.3 347.1,186.4 346.8,186.5 346.4,186.7 
	346.1,186.9 345.9,187.1 345.6,187.3 345.3,187.5 345.1,187.8 344.9,188.1 344.6,188.4 344.5,188.7 344.3,189 344.1,189.3 
	344,189.6 343.9,189.9 343.8,190.3 343.8,190.6 343.7,191 343.7,191.3 343.7,191.7 343.7,192 343.8,192.4 343.8,192.7 343.9,193.1 
	344,193.4 344.2,193.7 344.3,194.1 344.5,194.4 344.7,194.6 344.9,194.9 345.1,195.2 345.4,195.5 345.6,195.7 345.9,195.9 
	346.2,196.1 346.5,196.3 346.8,196.5 347.1,196.6 347.5,196.7 347.8,196.8 348.1,196.9 348.5,197 348.8,197 "/>
<line class="st4" x1="377.2" y1="175.1" x2="376.8" y2="208.4"/>
<polygon class="st7" points="400.3,197.5 400.7,197.5 401,197.4 401.4,197.4 401.7,197.3 402,197.2 402.4,197.1 402.7,197 
	403,196.8 403.3,196.6 403.6,196.4 403.9,196.2 404.1,196 404.4,195.7 404.6,195.5 404.9,195.2 405.1,194.9 405.2,194.6 
	405.4,194.3 405.5,194 405.6,193.6 405.8,193.3 405.8,192.9 405.9,192.6 405.9,192.3 405.9,191.9 405.9,191.5 405.9,191.2 
	405.8,190.8 405.7,190.5 405.6,190.2 405.5,189.8 405.4,189.5 405.2,189.2 405,188.9 404.8,188.6 404.6,188.3 404.4,188.1 
	404.1,187.8 403.8,187.6 403.6,187.4 403.3,187.2 403,187 402.6,186.9 402.3,186.7 402,186.6 401.6,186.5 401.3,186.5 401,186.4 
	400.6,186.4 400.3,186.4 399.9,186.4 399.5,186.4 399.2,186.5 398.9,186.6 398.5,186.7 398.2,186.8 397.9,187 397.6,187.1 
	397.3,187.3 397,187.5 396.7,187.7 396.5,188 396.2,188.3 396,188.5 395.8,188.8 395.6,189.1 395.4,189.4 395.3,189.7 395.1,190 
	395,190.4 395,190.7 394.9,191.1 394.8,191.4 394.8,191.8 394.8,192.1 394.8,192.5 394.9,192.8 395,193.2 395,193.5 395.2,193.9 
	395.3,194.2 395.5,194.5 395.6,194.8 395.8,195.1 396,195.4 396.3,195.7 396.5,195.9 396.8,196.1 397,196.4 397.3,196.6 
	397.6,196.8 397.9,196.9 398.3,197.1 398.6,197.2 398.9,197.3 399.3,197.4 399.6,197.4 400,197.5 "/>
<text transform="matrix(1 2.094394e-03 -2.094394e-03 1 503.39 126.06)" class="st6 st1 st2 st3">A</text>
<text transform="matrix(1 2.094394e-03 -2.094394e-03 1 533.9 147.09)" class="st6 st1 st2 st3">A</text>
<text transform="matrix(1 2.094394e-03 -2.094394e-03 1 524.6 257.71)" class="st6 st1 st2">G</text>
<text transform="matrix(1 2.094394e-03 -2.094394e-03 1 498.64 277.42)" class="st6 st1 st2 st3">A</text>
<text transform="matrix(1 2.094394e-03 -2.094394e-03 1 545.05 177.63)" class="st8 st1 st2">G</text>
<text transform="matrix(1 2.094394e-03 -2.094394e-03 1 569.62 177.69)" class="st8 st1 st2">G</text>
<text transform="matrix(1 2.094394e-03 -2.094394e-03 1 597.07 164.5)" class="st8 st1 st2">G</text>
<text transform="matrix(1 2.094394e-03 -2.094394e-03 1 625.2 153.1)" class="st8 st1 st2">G</text>
<line class="st4" x1="635.7" y1="129.8" x2="635.9" y2="111.3"/>
<text transform="matrix(1 2.094394e-03 -2.094394e-03 1 626.09 109.14)" class="st1 st5">20</text>
<text transform="matrix(1 2.094394e-03 -2.094394e-03 1 649.78 173.88)" class="st8 st1 st2">U</text>
<text transform="matrix(1 2.094394e-03 -2.094394e-03 1 660.45 199.81)" class="st8 st1 st2">G</text>
<text transform="matrix(1 2.094394e-03 -2.094394e-03 1 649.65 232.34)" class="st8 st1 st2">U</text>
<text transform="matrix(1 2.094394e-03 -2.094394e-03 1 626.88 254.75)" class="st8 st1 st2">G</text>
<text transform="matrix(1 2.094394e-03 -2.094394e-03 1 601.68 247.35)" class="st8 st1 st2 st3">A</text>
<text transform="matrix(1 2.094394e-03 -2.094394e-03 1 570.28 233.21)" class="st8 st1 st2">U</text>
<text transform="matrix(1 2.094394e-03 -2.094394e-03 1 545.71 233.1499)" class="st8 st1 st2">C</text>
<line class="st4" x1="557.5" y1="181.7" x2="557.2" y2="215.1"/>
<polygon class="st7" points="580.3,204.2 580.6,204.2 581,204.1 581.3,204.1 581.7,204 582,203.9 582.3,203.8 582.7,203.7 
	583,203.5 583.3,203.3 583.6,203.1 583.8,202.9 584.1,202.7 584.4,202.4 584.6,202.2 584.8,201.9 585,201.6 585.2,201.3 585.3,201 
	585.5,200.7 585.6,200.3 585.7,200 585.8,199.7 585.8,199.3 585.9,199 585.9,198.6 585.9,198.3 585.8,197.9 585.8,197.5 
	585.7,197.2 585.6,196.9 585.5,196.5 585.3,196.2 585.2,195.9 585,195.6 584.8,195.3 584.5,195 584.3,194.8 584.1,194.5 
	583.8,194.3 583.5,194.1 583.2,193.9 582.9,193.7 582.6,193.6 582.3,193.4 582,193.3 581.6,193.2 581.3,193.2 580.9,193.1 
	580.6,193.1 580.2,193.1 579.8,193.1 579.5,193.1 579.2,193.2 578.8,193.3 578.5,193.4 578.1,193.5 577.8,193.7 577.5,193.8 
	577.2,194 576.9,194.2 576.7,194.4 576.4,194.7 576.2,195 575.9,195.2 575.7,195.5 575.5,195.8 575.4,196.1 575.2,196.4 
	575.1,196.8 575,197.1 574.9,197.4 574.8,197.8 574.8,198.1 574.8,198.5 574.8,198.8 574.8,199.2 574.8,199.5 574.9,199.9 
	575,200.2 575.1,200.6 575.2,200.9 575.4,201.2 575.6,201.5 575.8,201.8 576,202.1 576.2,202.4 576.5,202.6 576.7,202.8 577,203.1 
	577.3,203.3 577.6,203.5 577.9,203.6 578.2,203.8 578.5,203.9 578.9,204 579.2,204.1 579.6,204.1 579.9,204.2 "/>
<g>
	<text transform="matrix(1 2.094394e-03 -2.094394e-03 1 103.95 247.68)" class="st1 st5">3</text>
	<text transform="matrix(1 2.094394e-03 -2.094394e-03 1 118.55 245.89)" class="st1 st5">’</text>
</g>
<text transform="matrix(1 0 0 1 315.8454 57.1536)" class="st1 st5">SUP-A-004 aptamer</text>
<g>
	<text transform="matrix(1 2.094394e-03 -2.094394e-03 1 103.06 150.23)" class="st1 st5">5</text>
	<text transform="matrix(1 2.094394e-03 -2.094394e-03 1 116.45 148.5)" class="st1 st5">’</text>
</g>
</svg>
