<?xml version="1.0" encoding="utf-8"?>
<!-- Generator: Adobe Illustrator 25.2.0, SVG Export Plug-In . SVG Version: 6.00 Build 0)  -->
<svg version="1.1" id="_图层_1" xmlns="http://www.w3.org/2000/svg" xmlns:xlink="http://www.w3.org/1999/xlink" x="0px" y="0px"
	 viewBox="0 0 800 400" style="enable-background:new 0 0 800 400;" xml:space="preserve">
<style type="text/css">
	.st0{fill:#B83233;}
	.st1{fill:none;stroke:#000000;stroke-width:1.3;stroke-linejoin:round;}
	.st2{fill:#084595;}
	.st3{fill:#CF3E7D;}
	.st4{fill:#18988C;}
	.st5{fill:none;stroke:#000000;stroke-linejoin:round;}
	.st6{font-family:'ArialMT';}
	.st7{font-size:23px;}
	.st8{letter-spacing:-2;}
	.st9{font-size:24px;}
	.st10{font-size:20px;}
	.st11{stroke:#000000;stroke-width:1.3;stroke-linejoin:round;}
</style>
<path class="st0" d="M153,327.8v-2h7v6.2c-1,0.8-2.1,1.5-3.3,2c-1.1,0.4-2.3,0.6-3.5,0.6c-1.5,0-3.1-0.3-4.4-1c-1.3-0.7-2.3-1.7-3-3
	c-0.7-1.4-1-2.9-1-4.4c0-1.6,0.3-3.1,1-4.5c0.6-1.3,1.6-2.4,2.9-3.1c1.4-0.7,2.9-1,4.4-1c1.1,0,2.2,0.2,3.3,0.6
	c0.9,0.3,1.7,0.9,2.3,1.6c0.6,0.8,1,1.7,1.3,2.7l-2,0.5c-0.2-0.7-0.5-1.4-0.9-2c-0.4-0.5-1-0.9-1.6-1.2c-0.7-0.3-1.5-0.4-2.3-0.4
	c-0.9,0-1.8,0.1-2.6,0.5c-0.7,0.3-1.3,0.7-1.8,1.2c-0.4,0.5-0.8,1-1.1,1.6c-0.4,1.1-0.6,2.2-0.6,3.4c0,1.3,0.2,2.6,0.8,3.7
	c0.5,1,1.3,1.8,2.2,2.2c1,0.5,2,0.7,3.1,0.7c1,0,1.9-0.2,2.8-0.5c0.8-0.3,1.5-0.7,2.1-1.2v-3.1h-4.9l0,0L153,327.8z"/>
<path class="st0" d="M153.1,307.8v-2h7v6.2c-1,0.8-2.1,1.5-3.3,2c-1.1,0.4-2.3,0.7-3.5,0.7c-1.6,0-3.1-0.3-4.4-1
	c-1.3-0.7-2.3-1.7-3-3c-0.7-1.4-1-2.9-1-4.4c0-1.6,0.3-3.1,1-4.5c0.6-1.3,1.6-2.4,2.9-3.1c1.4-0.7,2.9-1,4.4-1
	c1.1,0,2.2,0.2,3.3,0.6c0.9,0.3,1.7,0.9,2.3,1.6c0.6,0.8,1,1.7,1.3,2.7l-2,0.5c-0.2-0.7-0.5-1.4-0.9-2c-0.4-0.5-1-0.9-1.6-1.2
	c-0.7-0.3-1.5-0.5-2.3-0.4c-0.9,0-1.8,0.1-2.6,0.5c-0.7,0.3-1.3,0.7-1.8,1.2c-0.4,0.5-0.8,1-1.1,1.6c-0.4,1.1-0.6,2.2-0.6,3.3
	c0,1.3,0.2,2.6,0.8,3.7c0.5,1,1.3,1.7,2.2,2.2c1,0.5,2,0.7,3.1,0.7s1.9-0.2,2.8-0.6c0.8-0.3,1.4-0.7,2.1-1.2v-3.1h-4.9l0,0
	L153.1,307.8z"/>
<path class="st0" d="M133.7,307.8v-2h7v6.2c-1,0.8-2.1,1.5-3.4,2c-1.1,0.4-2.3,0.6-3.5,0.6c-1.6,0-3.1-0.3-4.4-1
	c-1.3-0.7-2.3-1.7-3-3c-0.7-1.4-1-2.9-1-4.4c0-1.6,0.3-3.1,1-4.5c0.6-1.3,1.6-2.4,2.9-3.1c1.4-0.7,2.9-1,4.4-1
	c1.1,0,2.2,0.2,3.3,0.6c0.9,0.3,1.7,0.9,2.3,1.6c0.6,0.8,1,1.7,1.3,2.7l-2,0.5c-0.2-0.7-0.5-1.4-0.9-2c-0.4-0.5-1-0.9-1.6-1.2
	c-0.7-0.3-1.5-0.4-2.3-0.4c-0.9,0-1.8,0.1-2.6,0.5c-0.7,0.3-1.3,0.7-1.8,1.2c-0.4,0.5-0.8,1-1,1.6c-0.4,1.1-0.7,2.2-0.6,3.4
	c0,1.3,0.2,2.6,0.8,3.7c0.5,1,1.3,1.8,2.2,2.2c1,0.5,2,0.7,3.1,0.7c0.9,0,1.9-0.2,2.8-0.5c0.8-0.3,1.4-0.7,2.1-1.2v-3.1h-4.9
	L133.7,307.8z"/>
<path class="st0" d="M105.9,314.3l6.4-16.6h2.4l6.8,16.6H119l-1.9-5h-7l-1.8,5H105.9L105.9,314.3z M110.7,307.5h5.6l-1.7-4.6
	c-0.5-1.4-0.9-2.5-1.2-3.5c-0.2,1.1-0.5,2.1-0.9,3.2L110.7,307.5L110.7,307.5z"/>
<path class="st0" d="M86.6,313.6L93,297h2.4l6.8,16.6h-2.5l-1.9-5h-6.9l-1.8,5h-2.3H86.6z M91.4,306.7H97l-1.7-4.6
	c-0.5-1.4-0.9-2.5-1.2-3.4c-0.2,1.1-0.5,2.1-0.9,3.2l-1.8,4.9V306.7z"/>
<path class="st0" d="M79.5,291.7h2.2v9.6c0,1.4-0.1,2.7-0.6,4c-0.4,1-1.1,1.8-2,2.4c-1.2,0.7-2.5,1-3.9,0.9c-1.3,0-2.6-0.2-3.8-0.8
	c-0.9-0.5-1.7-1.3-2.1-2.3c-0.5-1.3-0.7-2.8-0.6-4.2v-9.6h2.2v9.6c0,1.1,0,2.2,0.4,3.2c0.3,0.6,0.7,1.2,1.3,1.5
	c0.7,0.4,1.6,0.6,2.4,0.6c1.2,0.1,2.5-0.3,3.4-1.1c0.7-0.7,1-2.1,1-4.2v-9.5l0,0L79.5,291.7z"/>
<path class="st0" d="M77.6,275.7v-2h7v6.2c-1,0.8-2.1,1.5-3.3,2c-1.1,0.4-2.3,0.7-3.5,0.7c-1.6,0-3.1-0.3-4.4-1s-2.3-1.7-3-3
	c-0.7-1.4-1-2.9-1-4.4c0-1.6,0.3-3.1,1-4.5c0.6-1.3,1.6-2.4,2.9-3.1s2.9-1,4.4-1c1.1,0,2.2,0.2,3.3,0.6c0.9,0.3,1.7,0.9,2.3,1.6
	c0.6,0.8,1,1.7,1.3,2.7l-2,0.5c-0.2-0.7-0.5-1.4-0.9-2c-0.4-0.5-1-0.9-1.6-1.2c-0.7-0.3-1.5-0.5-2.3-0.4c-0.9,0-1.8,0.1-2.6,0.5
	c-0.7,0.3-1.3,0.7-1.8,1.2c-0.4,0.5-0.8,1-1,1.6c-0.4,1.1-0.6,2.2-0.6,3.3c0,1.3,0.2,2.6,0.8,3.7c0.5,1,1.3,1.7,2.2,2.2
	c1,0.5,2,0.7,3.1,0.7c1,0,1.9-0.2,2.8-0.5c0.8-0.3,1.4-0.7,2.1-1.2v-3.1h-4.9l0,0L77.6,275.7z"/>
<path class="st0" d="M97.3,270.3v-2h7v6.2c-1,0.8-2.1,1.5-3.3,2c-1.1,0.4-2.3,0.6-3.5,0.6c-1.5,0-3.1-0.4-4.4-1
	c-1.3-0.7-2.3-1.7-3-3c-0.7-1.4-1-2.9-1-4.4c0-1.6,0.3-3.1,1-4.6c0.6-1.3,1.6-2.4,2.9-3.1c1.4-0.7,2.9-1,4.4-1
	c1.1,0,2.2,0.2,3.3,0.6c0.9,0.3,1.7,0.9,2.3,1.6c0.6,0.8,1,1.7,1.3,2.7l-2,0.5c-0.2-0.7-0.5-1.4-0.9-2c-0.4-0.5-1-0.9-1.6-1.2
	c-0.7-0.3-1.5-0.4-2.3-0.4c-0.9,0-1.8,0.1-2.6,0.5c-0.7,0.3-1.3,0.7-1.8,1.2c-0.4,0.5-0.8,1-1,1.6c-0.4,1.1-0.6,2.2-0.6,3.4
	c0,1.3,0.2,2.6,0.8,3.7c0.5,1,1.3,1.8,2.2,2.2c1,0.5,2,0.7,3.1,0.7c1.8,0,3.5-0.6,4.9-1.7v-3.1h-5L97.3,270.3z"/>
<path class="st0" d="M106.4,277.7l6.4-16.6h2.4l6.8,16.6h-2.5l-1.9-5h-7l-1.8,5H106.4L106.4,277.7z M111.2,270.9h5.6l-1.7-4.6
	c-0.5-1.4-0.9-2.5-1.2-3.4c-0.2,1.1-0.5,2.1-0.9,3.2l-1.8,4.9V270.9z"/>
<path class="st0" d="M137,260.9h2.2v9.6c0,1.4-0.1,2.7-0.6,4c-0.4,1-1.1,1.9-2.1,2.4c-1.2,0.7-2.5,1-3.9,0.9c-1.3,0-2.6-0.2-3.8-0.8
	c-1-0.5-1.7-1.3-2.1-2.3c-0.5-1.3-0.7-2.8-0.6-4.2v-9.6h2.2v9.6c0,1.1,0,2.2,0.4,3.2c0.3,0.7,0.8,1.2,1.4,1.6
	c0.7,0.4,1.6,0.6,2.4,0.6c1.2,0.1,2.5-0.3,3.4-1.1c0.7-0.7,1-2.1,1-4.2V261l0,0L137,260.9z"/>
<line class="st1" x1="123.6" y1="259.4" x2="115.3" y2="251.2"/>
<path d="M97.4,245.4h-2v-13c-0.6,0.5-1.2,1-1.9,1.4c-0.7,0.4-1.4,0.8-2.2,1.1v-2c1.1-0.5,2.1-1.2,3-2c0.7-0.6,1.4-1.4,1.8-2.2h1.3
	v16.8L97.4,245.4z M102.7,237.2c0-1.6,0.2-3.2,0.6-4.8c0.3-1.1,0.9-2,1.8-2.8c0.8-0.7,1.9-1,3-1c0.8,0,1.6,0.2,2.3,0.5
	c0.7,0.4,1.3,0.9,1.7,1.6c0.5,0.8,0.8,1.6,1,2.5c0.3,1.3,0.4,2.6,0.4,3.9c0,1.6-0.2,3.2-0.6,4.7c-0.3,1.1-0.9,2-1.8,2.8
	c-2.1,1.6-5.1,1.2-6.8-0.7C103.3,242.5,102.7,240.3,102.7,237.2L102.7,237.2z M104.8,237.2c0,2.7,0.3,4.5,1,5.4
	c0.8,1.3,2.4,1.8,3.7,1c0.4-0.2,0.8-0.6,1-1c0.7-0.9,1-2.7,1-5.4s-0.3-4.5-1-5.4c-0.5-0.8-1.4-1.4-2.4-1.4c-0.9,0-1.8,0.4-2.2,1.2
	C105.2,232.6,104.8,234.5,104.8,237.2L104.8,237.2z"/>
<path class="st0" d="M156.2,271.8l2.2,0.6c-0.3,1.6-1.2,3.1-2.5,4.1s-2.8,1.5-4.4,1.4c-1.5,0-3.1-0.3-4.4-1.1
	c-1.2-0.8-2.1-1.9-2.6-3.2c-0.6-1.4-0.9-2.9-0.9-4.5s0.3-3.1,1-4.5c0.6-1.2,1.6-2.3,2.8-2.9c1.2-0.7,2.6-1,4-1c1.5,0,3,0.4,4.2,1.3
	s2,2.1,2.4,3.6l-2.2,0.5c-0.3-1-0.9-2-1.7-2.6s-1.8-0.9-2.8-0.8c-1.1,0-2.3,0.3-3.2,0.9s-1.5,1.5-1.8,2.5c-0.4,1-0.5,2.1-0.5,3.2
	c0,1.3,0.2,2.5,0.6,3.7c0.4,1,1,1.8,1.9,2.4c0.9,0.5,1.8,0.8,2.8,0.8c1.1,0,2.2-0.3,3.1-1.1c0.9-0.8,1.6-1.9,1.8-3.2l0,0
	L156.2,271.8z"/>
<path class="st0" d="M154.2,249.1l2.2,0.6c-0.3,1.6-1.2,3.1-2.5,4.1s-2.8,1.5-4.4,1.4c-1.5,0-3.1-0.3-4.4-1.1
	c-1.2-0.8-2.1-1.9-2.6-3.2c-0.6-1.4-0.9-2.9-0.9-4.5s0.3-3.1,1-4.5c0.6-1.2,1.6-2.3,2.8-2.9c1.2-0.7,2.6-1,4-1c1.5,0,3,0.4,4.2,1.3
	c1.2,0.9,2,2.1,2.4,3.6l-2.2,0.5c-0.3-1-0.9-2-1.7-2.6s-1.8-0.9-2.8-0.8c-1.1,0-2.3,0.3-3.2,0.9c-0.9,0.6-1.5,1.5-1.8,2.5
	c-0.4,1-0.5,2.1-0.5,3.2c0,1.3,0.2,2.5,0.6,3.7c0.4,1,1,1.8,1.9,2.4c0.9,0.5,1.8,0.8,2.8,0.8c1.1,0,2.2-0.3,3.1-1.1
	c0.9-0.8,1.6-1.9,1.8-3.2l0,0L154.2,249.1z"/>
<path class="st0" d="M128.3,233.1l6.4-16.6h2.4l6.8,16.6h-2.5l-1.9-5h-6.9l-1.8,5h-2.3H128.3z M133.1,226.3h5.6l-1.7-4.6
	c-0.5-1.4-0.9-2.6-1.2-3.4c-0.2,1.1-0.5,2.1-0.9,3.2L133.1,226.3L133.1,226.3L133.1,226.3z"/>
<path class="st0" d="M136.8,205.4l2.2,0.6c-0.3,1.6-1.2,3.1-2.5,4.1s-2.8,1.5-4.4,1.4c-1.5,0-3.1-0.3-4.4-1.1
	c-1.2-0.8-2.1-1.9-2.6-3.2c-0.6-1.4-0.9-2.9-0.9-4.5s0.3-3.1,1-4.5c0.6-1.2,1.6-2.3,2.8-2.9c1.2-0.7,2.6-1,4-1c1.5,0,3,0.4,4.2,1.3
	c1.2,0.9,2,2.1,2.4,3.6l-2.2,0.5c-0.3-1-0.9-2-1.7-2.6s-1.8-0.9-2.8-0.8c-1.1,0-2.3,0.3-3.2,0.9c-0.9,0.6-1.5,1.5-1.8,2.5
	s-0.5,2.1-0.5,3.2c0,1.3,0.2,2.5,0.6,3.7c0.4,1,1,1.8,1.9,2.4c0.9,0.5,1.8,0.8,2.8,0.8c1.1,0,2.2-0.3,3.1-1.1c0.9-0.8,1.5-2,1.7-3.2
	l0,0L136.8,205.4z"/>
<path class="st0" d="M124.3,189.4l6.4-16.6h2.4l6.8,16.6h-2.5l-1.9-5h-6.9l-1.8,5h-2.3H124.3z M129.1,182.6h5.6L133,178
	c-0.5-1.4-0.9-2.6-1.2-3.4c-0.2,1.1-0.5,2.1-0.9,3.2L129.1,182.6L129.1,182.6L129.1,182.6z"/>
<path class="st0" d="M142.9,150.9h2.2v9.6c0,1.4-0.1,2.7-0.6,4c-0.4,1-1.1,1.8-2,2.4c-1.2,0.7-2.5,1-3.9,0.9c-1.3,0-2.6-0.2-3.8-0.8
	c-1-0.5-1.7-1.3-2.1-2.3c-0.5-1.3-0.7-2.8-0.6-4.2v-9.6h2.2v9.6c0,1.1,0,2.2,0.4,3.2c0.3,0.7,0.8,1.2,1.4,1.6
	c0.7,0.4,1.6,0.6,2.4,0.6c1.2,0.1,2.5-0.3,3.4-1.1c0.7-0.7,1-2.1,1-4.2L142.9,150.9L142.9,150.9L142.9,150.9L142.9,150.9z"/>
<path class="st0" d="M154.6,140.9l2.2,0.6c-0.3,1.6-1.2,3.1-2.5,4.1s-2.8,1.5-4.4,1.4c-1.5,0-3.1-0.3-4.4-1.1
	c-1.2-0.8-2.1-1.9-2.6-3.2c-0.6-1.4-0.9-2.9-0.9-4.5s0.3-3.1,1-4.5c0.6-1.2,1.6-2.3,2.8-2.9c1.2-0.7,2.6-1,4-1c1.5,0,3,0.4,4.2,1.3
	c1.2,0.9,2,2.1,2.4,3.6l-2.2,0.5c-0.3-1-0.9-2-1.7-2.6s-1.8-0.9-2.8-0.8c-1.1,0-2.3,0.3-3.2,0.9c-0.9,0.6-1.5,1.5-1.8,2.5
	c-0.4,1-0.5,2.1-0.5,3.2c0,1.3,0.2,2.6,0.7,3.8c0.4,1,1,1.8,1.9,2.4c0.9,0.5,1.8,0.8,2.8,0.8c1.1,0,2.2-0.3,3.1-1.1
	c0.9-0.8,1.5-2,1.7-3.2l0,0L154.6,140.9z"/>
<path class="st0" d="M171.8,119.3h2.2v9.6c0,1.4-0.1,2.7-0.6,4c-0.4,1-1.1,1.8-2,2.4c-1.2,0.7-2.5,1-3.9,0.9c-1.3,0-2.6-0.2-3.8-0.8
	c-1-0.5-1.7-1.3-2.1-2.3c-0.5-1.3-0.7-2.8-0.6-4.2v-9.6h2.2v9.6c0,1.1,0,2.2,0.4,3.2c0.2,0.7,0.7,1.2,1.4,1.6
	c0.7,0.4,1.6,0.6,2.4,0.6c1.2,0.1,2.5-0.3,3.4-1.1c0.7-0.7,1-2.1,1-4.2L171.8,119.3L171.8,119.3L171.8,119.3L171.8,119.3z"/>
<path class="st0" d="M179.7,129.6l6.4-16.6h2.4l6.8,16.6h-2.5l-1.9-5H184l-1.8,5h-2.4l0,0H179.7z M184.5,122.8h5.6l-1.7-4.6
	c-0.5-1.4-0.9-2.6-1.2-3.4c-0.2,1.1-0.5,2.1-0.9,3.2L184.5,122.8L184.5,122.8z"/>
<path class="st0" d="M211.1,122.8l2.2,0.6c-0.3,1.6-1.2,3.1-2.5,4.1s-2.8,1.5-4.4,1.4c-1.5,0-3.1-0.3-4.4-1.1
	c-1.2-0.8-2.1-1.9-2.6-3.2c-0.6-1.4-0.9-2.9-0.9-4.5s0.3-3.1,1-4.5c0.6-1.2,1.6-2.3,2.8-2.9c1.2-0.7,2.6-1,4-1c1.5,0,3,0.4,4.2,1.3
	s2,2.2,2.4,3.6l-2.2,0.5c-0.3-1-0.9-2-1.7-2.6s-1.8-0.9-2.8-0.8c-1.1,0-2.3,0.3-3.2,0.9s-1.5,1.5-1.8,2.5c-0.4,1-0.5,2.1-0.5,3.2
	c0,1.3,0.2,2.5,0.6,3.7c0.4,1,1,1.8,1.9,2.4c0.9,0.5,1.8,0.8,2.8,0.8c1.1,0,2.2-0.3,3.1-1.1c0.9-0.8,1.6-1.9,1.8-3.2l0,0
	L211.1,122.8z"/>
<line class="st1" x1="206.1" y1="108.8" x2="206.1" y2="97.2"/>
<path d="M204.5,89.4v1.9h-11c0-0.5,0-1,0.2-1.4c0.3-0.8,0.8-1.6,1.4-2.2c0.8-0.9,1.7-1.8,2.7-2.5c1.4-1,2.6-2.2,3.7-3.5
	c0.6-0.7,0.9-1.6,1-2.4c0-0.8-0.3-1.5-0.9-2c-0.6-0.6-1.4-0.9-2.3-0.8c-0.9,0-1.7,0.3-2.4,0.9c-0.6,0.7-0.9,1.6-0.9,2.4l-2.1-0.2
	c0-1.4,0.6-2.6,1.6-3.6c1.1-0.9,2.4-1.3,3.8-1.2c1.4,0,2.7,0.4,3.7,1.3c0.9,0.8,1.4,2.1,1.4,3.3c0,0.7-0.1,1.4-0.4,2
	c-0.3,0.7-0.8,1.4-1.4,2c-1,1-2,2-3.1,2.9c-1.2,1-2,1.7-2.4,2.1c-0.3,0.3-0.6,0.7-0.9,1.1h8.1l0,0L204.5,89.4z M206.7,83.1
	c0-1.6,0.2-3.2,0.6-4.7c0.3-1.1,0.9-2,1.8-2.8c0.9-0.7,1.9-1,3-1c0.8,0,1.6,0.2,2.4,0.5c0.7,0.4,1.2,0.9,1.7,1.6
	c0.5,0.8,0.8,1.6,1,2.5c0.3,1.3,0.4,2.6,0.4,3.9c0,1.6-0.1,3.2-0.6,4.7c-0.3,1.1-0.9,2-1.8,2.8c-2.1,1.6-5.1,1.2-6.8-0.7
	C207.3,88.5,206.8,86.3,206.7,83.1L206.7,83.1z M208.8,83.1c0,2.7,0.3,4.5,1,5.4c0.8,1.3,2.4,1.8,3.7,1c0.4-0.2,0.8-0.6,1-1
	c0.6-0.9,1-2.7,1-5.4s-0.3-4.5-1-5.4c-0.5-0.8-1.4-1.3-2.4-1.3c-0.9,0-1.8,0.4-2.2,1.2C209.2,78.6,208.8,80.5,208.8,83.1L208.8,83.1
	L208.8,83.1z"/>
<path class="st0" d="M226.7,126.1v-2h7v6.2c-1,0.8-2.1,1.5-3.4,1.9c-1.1,0.4-2.3,0.6-3.5,0.6c-1.6,0-3.1-0.3-4.4-1.1
	c-1.3-0.7-2.3-1.7-3-3c-0.7-1.4-1-2.9-1-4.4c0-1.6,0.3-3.1,1-4.5c0.6-1.3,1.6-2.4,2.9-3.1c1.4-0.7,2.9-1,4.4-1
	c1.1,0,2.2,0.2,3.3,0.6c0.9,0.3,1.7,0.9,2.3,1.6c0.6,0.8,1,1.7,1.3,2.7l-2,0.5c-0.2-0.7-0.5-1.4-0.9-2c-0.4-0.5-1-0.9-1.6-1.2
	c-0.7-0.3-1.5-0.4-2.3-0.4c-0.9,0-1.8,0.1-2.6,0.4c-0.7,0.3-1.3,0.7-1.8,1.2c-0.4,0.5-0.8,1-1,1.6c-0.4,1.1-0.6,2.2-0.6,3.3
	c0,1.3,0.2,2.6,0.8,3.7c0.5,1,1.3,1.8,2.2,2.2c1,0.5,2,0.7,3.1,0.7s1.9-0.2,2.8-0.6c0.8-0.3,1.4-0.7,2.1-1.2v-3.1h-4.9l0,0
	L226.7,126.1z"/>
<path class="st0" d="M237.5,141.3l6.4-16.6h2.4l6.8,16.6h-2.5l-1.9-5h-6.9l-1.8,5h-2.3H237.5z M242.3,134.5h5.6l-1.7-4.6
	c-0.5-1.4-0.9-2.6-1.2-3.4c-0.2,1.1-0.5,2.1-0.9,3.2L242.3,134.5L242.3,134.5L242.3,134.5z"/>
<path class="st0" d="M246.2,158.8l6.4-16.6h2.4l6.8,16.6h-2.5l-1.9-5h-7l-1.8,5H246.2L246.2,158.8L246.2,158.8z M251.1,152h5.6
	l-1.7-4.6c-0.5-1.4-0.9-2.6-1.2-3.4c-0.2,1.1-0.5,2.1-0.9,3.2L251.1,152L251.1,152L251.1,152z"/>
<path class="st2" d="M275.6,150.9h2.2v9.6c0,1.4-0.1,2.7-0.6,4c-0.4,1-1.1,1.8-2,2.4c-1.2,0.7-2.5,1-3.9,0.9c-1.3,0-2.6-0.2-3.8-0.8
	c-1-0.5-1.7-1.3-2.1-2.3c-0.5-1.3-0.7-2.8-0.6-4.2v-9.6h2.2v9.6c0,1.1,0,2.2,0.4,3.2c0.3,0.7,0.8,1.2,1.4,1.6
	c0.7,0.4,1.6,0.6,2.4,0.6c1.3,0.1,2.5-0.3,3.5-1.1c0.7-0.7,1-2.1,1-4.2V151l0,0L275.6,150.9z"/>
<path class="st2" d="M293.2,150.9h2.2v9.6c0,1.4-0.1,2.7-0.6,4c-0.4,1-1.1,1.9-2,2.4c-1.2,0.7-2.5,1-3.9,0.9c-1.3,0-2.6-0.2-3.8-0.8
	c-1-0.5-1.7-1.3-2.1-2.3c-0.5-1.3-0.7-2.8-0.6-4.2v-9.6h2.2v9.6c0,1.1,0,2.2,0.4,3.2c0.3,0.7,0.8,1.2,1.4,1.6
	c0.7,0.4,1.6,0.6,2.4,0.6c1.3,0.1,2.5-0.3,3.5-1.1c0.7-0.7,1-2.1,1-4.2V151l0,0L293.2,150.9z"/>
<path class="st2" d="M311.6,161.8l2.2,0.6c-0.3,1.6-1.2,3.1-2.5,4.1s-2.8,1.5-4.4,1.4c-1.5,0-3-0.3-4.4-1.1
	c-1.2-0.8-2.1-1.9-2.6-3.2c-0.6-1.4-0.9-2.9-0.9-4.5s0.3-3.1,1-4.5c0.6-1.2,1.6-2.3,2.8-2.9c1.2-0.7,2.6-1,4-1c1.5,0,3,0.4,4.2,1.3
	c1.2,0.9,2,2.1,2.4,3.6l-2.2,0.5c-0.3-1-0.9-2-1.7-2.6c-0.8-0.6-1.8-0.9-2.8-0.8c-1.1,0-2.3,0.3-3.2,0.9c-0.9,0.6-1.5,1.5-1.8,2.5
	c-0.4,1-0.5,2.1-0.5,3.2c0,1.3,0.2,2.5,0.6,3.7c0.4,1,1,1.8,1.9,2.4c0.9,0.5,1.8,0.8,2.8,0.8c1.1,0,2.3-0.3,3.1-1.1
	c0.9-0.8,1.5-1.9,1.8-3.2l0,0L311.6,161.8z"/>
<path class="st2" d="M317.2,147.5l6.4-16.6h2.4l6.8,16.6h-2.5l-1.9-5h-7l-1.8,5H317.2z M322,140.7h5.6l-1.7-4.6
	c-0.5-1.4-0.9-2.6-1.2-3.4c-0.2,1.1-0.5,2.1-0.9,3.2L322,140.7L322,140.7z"/>
<path class="st2" d="M330.6,206l2.2,0.6c-0.3,1.6-1.2,3.1-2.5,4.1s-2.8,1.5-4.4,1.4c-1.5,0-3-0.3-4.4-1.1c-1.1-0.8-2-1.9-2.6-3.2
	c-0.6-1.4-0.9-2.9-0.9-4.5s0.3-3.1,1-4.5c0.6-1.3,1.6-2.3,2.8-3c1.2-0.7,2.6-1,4-1c1.5,0,3,0.4,4.2,1.3c1.2,0.9,2,2.1,2.4,3.6
	l-2.2,0.5c-0.3-1-0.9-2-1.7-2.6c-0.8-0.6-1.8-0.9-2.8-0.8c-1.1,0-2.3,0.3-3.2,0.9c-0.9,0.6-1.5,1.5-1.8,2.5c-0.4,1-0.5,2.1-0.5,3.2
	c0,1.3,0.2,2.5,0.6,3.7c0.4,1,1,1.8,1.9,2.4c0.9,0.5,1.8,0.8,2.8,0.8c1.1,0,2.3-0.4,3.1-1.1c0.9-0.8,1.5-1.9,1.8-3.1l0,0L330.6,206z
	"/>
<path class="st2" d="M307.1,196.9v-2h7v6.2c-1,0.8-2.1,1.5-3.4,1.9c-1.1,0.4-2.3,0.6-3.5,0.6c-1.5,0-3.1-0.3-4.5-1
	c-1.3-0.7-2.3-1.7-3-3c-0.7-1.4-1-2.9-1-4.4c0-1.6,0.3-3.1,1-4.5c0.6-1.3,1.6-2.4,2.9-3.1c1.4-0.7,2.9-1,4.4-1
	c1.1,0,2.2,0.2,3.3,0.6c0.9,0.3,1.7,0.9,2.3,1.6c0.6,0.8,1,1.7,1.3,2.7l-2,0.6c-0.2-0.7-0.5-1.4-0.9-2c-0.4-0.5-1-0.9-1.6-1.2
	c-0.7-0.3-1.5-0.4-2.3-0.4c-0.9,0-1.8,0.1-2.6,0.4c-0.7,0.3-1.3,0.7-1.8,1.2c-0.4,0.5-0.8,1-1,1.6c-0.4,1.1-0.6,2.2-0.6,3.4
	c0,1.3,0.2,2.6,0.8,3.7c0.5,1,1.3,1.7,2.2,2.2c1,0.5,2,0.7,3.1,0.7c1,0,1.9-0.2,2.8-0.6c0.8-0.3,1.5-0.7,2.1-1.2v-3.2h-4.9
	L307.1,196.9z"/>
<path class="st2" d="M281.2,203.4l6.4-16.6h2.4l6.8,16.6h-2.5l-1.9-5h-7l-1.8,5H281.2z M286,196.6h5.6l-1.7-4.6
	c-0.5-1.4-0.9-2.6-1.2-3.4c-0.2,1.1-0.5,2.1-0.9,3.2L286,196.6L286,196.6L286,196.6z"/>
<path class="st2" d="M263.7,203.4l6.4-16.6h2.4l6.8,16.6h-2.5l-1.9-5h-7l-1.8,5h-2.3H263.7z M268.5,196.6h5.6l-1.7-4.6
	c-0.5-1.4-0.9-2.6-1.2-3.4c-0.2,1.1-0.5,2.1-0.9,3.2L268.5,196.6L268.5,196.6z"/>
<path class="st0" d="M271.8,218.4v-1.7h7v5.5c-1,0.7-2.1,1.3-3.3,1.7c-1.1,0.4-2.3,0.6-3.5,0.6c-1.5,0-3.1-0.3-4.5-0.9
	c-1.3-0.6-2.3-1.5-3-2.7s-1-2.6-1-4s0.3-2.8,1-4c0.6-1.2,1.7-2.2,2.9-2.8c1.4-0.6,2.9-0.9,4.4-0.9c1.1,0,2.2,0.2,3.3,0.5
	c0.9,0.3,1.6,0.8,2.3,1.4c0.6,0.7,1,1.5,1.3,2.4l-2,0.5c-0.2-0.6-0.5-1.2-0.9-1.8c-0.4-0.5-1-0.8-1.6-1c-0.7-0.3-1.5-0.4-2.3-0.4
	c-0.9,0-1.8,0.1-2.6,0.4c-0.7,0.2-1.3,0.6-1.8,1.1c-0.4,0.4-0.8,0.9-1,1.5c-0.4,0.9-0.6,2-0.6,3c0,1.1,0.2,2.3,0.8,3.3
	c0.5,0.9,1.3,1.6,2.2,2c1,0.4,2,0.6,3.1,0.6c1,0,1.9-0.2,2.8-0.5c0.7-0.2,1.4-0.6,2.1-1v-2.8H272c0-0.1,0-0.1,0,0L271.8,218.4z"/>
<path class="st0" d="M276.7,239.5l2.2,0.6c-0.3,1.6-1.2,3.1-2.5,4.1s-2.8,1.5-4.4,1.4c-1.5,0-3-0.3-4.4-1.1c-1.2-0.8-2-1.9-2.6-3.2
	c-0.6-1.4-0.9-2.9-0.9-4.5s0.3-3.1,1-4.5c0.6-1.2,1.6-2.3,2.8-2.9c1.2-0.7,2.6-1,4-1c1.5,0,3,0.4,4.2,1.3c1.2,0.9,2,2.1,2.4,3.6
	l-2.2,0.5c-0.3-1-0.9-2-1.7-2.6c-0.8-0.6-1.8-0.9-2.8-0.8c-1.1,0-2.3,0.3-3.2,0.9c-0.9,0.6-1.5,1.5-1.8,2.5c-0.4,1-0.5,2.1-0.5,3.2
	c0,1.3,0.2,2.5,0.6,3.7c0.4,1,1,1.8,1.9,2.4c0.9,0.5,1.8,0.8,2.8,0.8c1.1,0,2.2-0.3,3.1-1.1s1.6-1.9,1.8-3.2l0,0L276.7,239.5z"/>
<path class="st0" d="M275.9,248.6h2.2v9.6c0,1.4-0.1,2.7-0.6,4c-0.4,1-1.1,1.8-2,2.4c-1.2,0.7-2.5,1-3.9,0.9c-1.3,0-2.6-0.2-3.8-0.8
	c-1-0.5-1.7-1.3-2.1-2.3c-0.5-1.3-0.7-2.8-0.6-4.2v-9.6h2.2v9.6c0,1.1,0,2.2,0.4,3.2c0.2,0.7,0.7,1.2,1.4,1.6
	c0.7,0.4,1.6,0.6,2.4,0.6c1.3,0.1,2.5-0.3,3.5-1.1c0.7-0.7,1-2.1,1-4.2v-9.6l0,0L275.9,248.6z"/>
<path class="st0" d="M275.5,269.7h2.2v9.6c0,1.4-0.1,2.7-0.6,4c-0.4,1-1.1,1.9-2,2.4c-1.2,0.7-2.5,1-3.9,0.9c-1.3,0-2.6-0.2-3.8-0.8
	c-1-0.5-1.7-1.3-2.1-2.3c-0.5-1.3-0.7-2.8-0.6-4.2v-9.6h2.2v9.6c0,1.1,0,2.2,0.4,3.2c0.2,0.7,0.7,1.2,1.4,1.6
	c0.7,0.4,1.6,0.6,2.4,0.6c1.2,0.1,2.5-0.3,3.5-1.1c0.7-0.7,1-2.1,1-4.2v-9.6l0,0L275.5,269.7z"/>
<line class="st1" x1="289.1" y1="171.7" x2="289.1" y2="183.4"/>
<line class="st1" x1="306.6" y1="171.7" x2="306.6" y2="183.4"/>
<path class="st2" d="M337.1,148l6.4-16.6h2.4l6.8,16.6h-2.5l-1.9-5h-7l-1.8,5h-2.3H337.1z M341.9,141.2h5.6l-1.7-4.6
	c-0.5-1.4-0.9-2.6-1.2-3.4c-0.2,1.1-0.5,2.1-0.9,3.2L341.9,141.2L341.9,141.2L341.9,141.2z"/>
<path class="st3" d="M365.2,163.2l2.2,0.6c-0.3,1.6-1.2,3.1-2.5,4.1s-2.8,1.5-4.4,1.4c-1.5,0-3-0.3-4.4-1.1
	c-1.2-0.8-2.1-1.9-2.6-3.2c-0.6-1.4-0.9-2.9-0.9-4.5s0.3-3.1,1-4.5c0.6-1.2,1.6-2.3,2.8-2.9c1.2-0.7,2.6-1,4-1c1.5,0,3,0.4,4.2,1.3
	c1.2,0.9,2,2.1,2.4,3.6l-2.2,0.5c-0.3-1-0.9-2-1.7-2.6c-0.8-0.6-1.8-0.9-2.8-0.8c-1.1,0-2.3,0.3-3.2,0.9c-0.9,0.6-1.5,1.5-1.8,2.5
	c-0.4,1-0.5,2.1-0.5,3.2c0,1.3,0.2,2.5,0.6,3.7c0.4,1,1,1.8,1.9,2.4c0.9,0.5,1.8,0.8,2.8,0.8c1.1,0,2.3-0.4,3.1-1.1
	c0.9-0.8,1.5-1.9,1.8-3.2l0,0L365.2,163.2z"/>
<path class="st3" d="M378.7,162.5v-2h7v6.2c-1,0.8-2.1,1.5-3.3,2c-1.1,0.4-2.3,0.6-3.5,0.6c-1.5,0-3.1-0.3-4.5-1
	c-1.3-0.7-2.3-1.7-3-3c-0.7-1.4-1-2.9-1-4.4c0-1.6,0.3-3.1,1-4.5c0.6-1.3,1.6-2.4,2.9-3.1c1.4-0.7,2.9-1,4.4-1
	c1.1,0,2.2,0.2,3.3,0.6c0.9,0.3,1.7,0.9,2.3,1.6c0.6,0.8,1,1.7,1.3,2.7l-2,0.6c-0.2-0.7-0.5-1.4-0.9-2c-0.4-0.5-1-0.9-1.6-1.2
	c-0.7-0.3-1.5-0.4-2.3-0.4c-0.9,0-1.8,0.1-2.6,0.4c-0.7,0.3-1.3,0.7-1.8,1.2c-0.4,0.5-0.8,1.1-1,1.6c-0.4,1.1-0.6,2.2-0.6,3.3
	c0,1.3,0.2,2.6,0.8,3.7c0.5,1,1.3,1.7,2.2,2.2c1,0.5,2,0.7,3.1,0.7c1,0,1.9-0.2,2.8-0.6c0.8-0.3,1.5-0.7,2.1-1.2v-3.1h-4.9
	c0-0.1,0-0.1,0-0.1L378.7,162.5z"/>
<line class="st1" x1="378" y1="148.2" x2="378" y2="136.6"/>
<path d="M368.2,126.4l2-0.3c0.1,0.9,0.5,1.8,1.2,2.5c0.6,0.5,1.3,0.8,2.1,0.8c0.9,0,1.8-0.3,2.4-1c0.7-0.7,1-1.5,1-2.5
	c0-0.9-0.3-1.7-0.9-2.3c-0.6-0.6-1.5-0.9-2.3-0.9c-0.5,0-1,0-1.4,0.2l0.2-1.8h0.3c0.8,0,1.6-0.2,2.3-0.7c0.7-0.5,1.1-1.3,1-2.1
	c0-0.7-0.2-1.4-0.8-1.9c-0.5-0.5-1.3-0.8-2-0.7c-0.7,0-1.5,0.2-2,0.8c-0.6,0.6-0.9,1.4-1,2.2l-2-0.4c0.2-1.2,0.8-2.3,1.7-3.2
	c0.9-0.8,2.1-1.2,3.3-1.1c0.9,0,1.7,0.2,2.5,0.6c0.7,0.3,1.3,0.9,1.8,1.6c0.4,0.6,0.6,1.4,0.6,2.1s-0.2,1.4-0.6,2s-1,1.1-1.7,1.4
	c0.9,0.2,1.7,0.7,2.3,1.4c0.6,0.8,0.9,1.7,0.8,2.7c0,1.4-0.6,2.7-1.6,3.7c-1.1,1-2.5,1.6-4,1.5c-1.3,0-2.6-0.4-3.6-1.3
	c-0.9-0.9-1.5-2.1-1.6-3.4L368.2,126.4z M381.1,122.6c0-1.6,0.1-3.2,0.6-4.7c0.3-1.1,1-2,1.8-2.8c0.9-0.7,1.9-1,3-1
	c0.8,0,1.6,0.2,2.3,0.5c0.7,0.4,1.3,0.9,1.7,1.6c0.5,0.8,0.8,1.6,1,2.5c0.3,1.3,0.4,2.6,0.4,3.9c0,1.6-0.1,3.2-0.6,4.7
	c-0.3,1.1-0.9,2-1.8,2.8c-2.1,1.6-5.1,1.2-6.8-0.7C381.7,128,381.1,125.8,381.1,122.6L381.1,122.6L381.1,122.6z M383.2,122.6
	c0,2.7,0.3,4.5,1,5.5c0.8,1.3,2.4,1.8,3.8,1c0.4-0.2,0.7-0.6,1-1c0.6-0.9,0.9-2.7,1-5.4c0-2.7-0.3-4.5-1-5.4
	c-0.5-0.8-1.4-1.3-2.4-1.3c-0.9,0-1.8,0.4-2.3,1.2c-0.7,1-1.1,2.8-1.1,5.6l0,0V122.6z"/>
<path class="st3" d="M388.3,169.1l6.4-16.6h2.4l6.8,16.6h-2.5l-2-5h-6.9l-1.8,5H388.3z M393.1,162.2h5.6l-1.7-4.6
	c-0.5-1.4-0.9-2.6-1.2-3.4c-0.2,1.1-0.5,2.1-0.9,3.2L393.1,162.2L393.1,162.2z"/>
<path class="st3" d="M414.7,162.5v-2h7v6.2c-1,0.8-2.1,1.5-3.3,2c-1.1,0.4-2.3,0.6-3.5,0.6c-1.5,0-3.1-0.3-4.5-1
	c-1.3-0.7-2.3-1.7-3-3c-0.7-1.4-1-2.9-1-4.4c0-1.6,0.3-3.1,1-4.5c0.6-1.3,1.6-2.4,2.9-3.1c1.4-0.7,2.9-1,4.4-1
	c1.1,0,2.2,0.2,3.3,0.6c0.9,0.3,1.7,0.9,2.3,1.6c0.6,0.8,1,1.7,1.3,2.7l-2,0.6c-0.2-0.7-0.5-1.4-0.9-2c-0.4-0.5-1-0.9-1.6-1.2
	c-0.7-0.3-1.5-0.4-2.3-0.4c-0.9,0-1.8,0.1-2.6,0.4c-0.7,0.3-1.3,0.7-1.8,1.2c-0.4,0.5-0.8,1.1-1,1.6c-0.4,1.1-0.6,2.2-0.6,3.3
	c0,1.3,0.2,2.6,0.8,3.7c0.5,1,1.3,1.8,2.2,2.2c1,0.5,2,0.7,3.1,0.7c1.8,0,3.5-0.6,4.9-1.7v-3.1h-4.9c0-0.1,0-0.1,0-0.1L414.7,162.5z
	"/>
<path class="st3" d="M436.4,152.3h2.2v9.6c0,1.4-0.1,2.7-0.6,4c-0.4,1-1.1,1.9-2,2.4c-1.2,0.7-2.5,1-3.9,0.9c-1.3,0-2.6-0.2-3.8-0.8
	c-1-0.5-1.7-1.3-2.1-2.3c-0.5-1.3-0.7-2.8-0.6-4.2v-9.6h2.2v9.6c0,1.1,0,2.2,0.4,3.2c0.3,0.7,0.8,1.2,1.4,1.6
	c0.7,0.4,1.6,0.6,2.4,0.6c1.3,0.1,2.5-0.3,3.5-1.1c0.7-0.7,1-2.1,1-4.2v-9.6l0,0L436.4,152.3z"/>
<path class="st3" d="M450.7,162.5v-2h7v6.2c-1,0.8-2.1,1.5-3.4,2c-1.1,0.4-2.3,0.6-3.5,0.6c-1.5,0-3.1-0.3-4.5-1
	c-1.3-0.7-2.3-1.7-3-3c-0.7-1.4-1-2.9-1-4.4c0-1.6,0.3-3.1,1-4.5c0.6-1.3,1.6-2.4,2.9-3.1c1.4-0.7,2.9-1,4.4-1
	c1.1,0,2.2,0.2,3.3,0.6c0.9,0.3,1.7,0.9,2.3,1.6c0.6,0.8,1,1.6,1.3,2.6l-2,0.6c-0.2-0.7-0.5-1.4-0.9-2c-0.4-0.5-1-0.9-1.6-1.2
	c-0.7-0.3-1.5-0.4-2.3-0.4c-0.9,0-1.8,0.1-2.6,0.4c-0.7,0.3-1.3,0.7-1.8,1.2c-0.4,0.5-0.8,1.1-1,1.6c-0.4,1.1-0.6,2.2-0.6,3.3
	c0,1.3,0.2,2.6,0.8,3.7c0.5,1,1.3,1.7,2.2,2.2c1,0.5,2,0.7,3.1,0.7c1.8,0,3.5-0.6,4.9-1.7v-3.1L450.7,162.5L450.7,162.5z"/>
<path class="st3" d="M473.1,163.2l2.2,0.6c-0.3,1.6-1.2,3.1-2.5,4.1c-1.2,1-2.8,1.5-4.4,1.4c-1.5,0-3-0.3-4.4-1.1
	c-1.2-0.8-2-1.9-2.6-3.2c-0.6-1.4-0.9-2.9-0.9-4.5s0.3-3.1,1-4.5c0.6-1.2,1.6-2.3,2.8-2.9c1.2-0.7,2.6-1,4-1c1.5,0,3,0.4,4.2,1.3
	c1.2,0.9,2,2.2,2.4,3.6l-2.2,0.5c-0.3-1-0.9-2-1.7-2.6c-0.8-0.6-1.8-0.9-2.8-0.8c-1.1,0-2.3,0.3-3.2,0.9c-0.9,0.6-1.5,1.5-1.8,2.5
	c-0.4,1-0.5,2.1-0.5,3.2c0,1.3,0.2,2.5,0.6,3.7c0.4,1,1,1.8,1.9,2.4c0.9,0.5,1.8,0.8,2.8,0.8c1.1,0,2.3-0.4,3.1-1.1
	c0.9-0.8,1.5-1.9,1.8-3.2l0,0L473.1,163.2z"/>
<path class="st3" d="M478.2,169.1l6.4-16.6h2.4l6.8,16.6h-2.5l-1.9-5h-7l-1.8,5h-2.3H478.2z M483,162.2h5.6l-1.7-4.6
	c-0.5-1.4-0.9-2.6-1.2-3.4c-0.2,1.1-0.5,2.1-0.9,3.2L483,162.2L483,162.2z"/>
<path class="st3" d="M504.6,162.5v-2h7v6.2c-1,0.8-2.1,1.5-3.4,2c-1.1,0.4-2.3,0.6-3.5,0.6c-1.5,0-3.1-0.3-4.5-1
	c-1.3-0.7-2.3-1.7-3-3c-0.7-1.4-1-2.9-1-4.4c0-1.6,0.3-3.1,1-4.5c0.6-1.3,1.6-2.4,2.9-3.1c1.4-0.7,2.9-1,4.4-1
	c1.1,0,2.2,0.2,3.2,0.6c0.9,0.3,1.7,0.9,2.3,1.6c0.6,0.8,1,1.7,1.3,2.7l-2,0.6c-0.2-0.7-0.5-1.4-0.9-2c-0.4-0.5-1-0.9-1.6-1.2
	c-0.7-0.3-1.5-0.4-2.3-0.4c-0.9,0-1.8,0.1-2.6,0.4c-0.7,0.3-1.3,0.7-1.8,1.2c-0.4,0.5-0.8,1.1-1,1.6c-0.4,1.1-0.6,2.2-0.6,3.3
	c0,1.3,0.2,2.6,0.8,3.7c0.5,1,1.3,1.7,2.2,2.2c1,0.5,2,0.7,3.1,0.7c1,0,1.9-0.2,2.8-0.6c0.8-0.3,1.5-0.7,2.1-1.2v-3.1L504.6,162.5
	L504.6,162.5z"/>
<path class="st3" d="M526.2,152.3h2.2v9.6c0,1.4-0.1,2.7-0.6,4c-0.4,1-1.1,1.8-2,2.4c-1.2,0.7-2.5,1-3.9,0.9c-1.3,0-2.6-0.2-3.8-0.8
	c-1-0.5-1.7-1.3-2.1-2.3c-0.5-1.3-0.7-2.8-0.6-4.2v-9.6h2.2v9.6c0,1.1,0,2.2,0.4,3.2c0.3,0.7,0.8,1.2,1.4,1.6
	c0.7,0.4,1.6,0.6,2.4,0.6c1.3,0.1,2.5-0.3,3.5-1.1c0.7-0.7,1-2.1,1-4.2v-9.6l0,0L526.2,152.3z"/>
<path class="st3" d="M540.6,162.5v-2h7v6.2c-1,0.8-2.1,1.5-3.3,2c-1.1,0.4-2.3,0.6-3.5,0.6c-1.5,0-3.1-0.3-4.5-1
	c-1.3-0.7-2.3-1.7-3-3c-0.7-1.4-1-2.9-1-4.4c0-1.6,0.3-3.1,1-4.5c0.6-1.3,1.6-2.4,2.9-3.1c1.4-0.7,2.9-1,4.4-1
	c1.1,0,2.2,0.2,3.2,0.6c0.9,0.3,1.7,0.9,2.3,1.6c0.6,0.8,1,1.7,1.3,2.7l-2,0.6c-0.2-0.7-0.5-1.4-0.9-2c-0.4-0.5-1-0.9-1.6-1.2
	c-0.7-0.3-1.5-0.4-2.3-0.4c-0.9,0-1.8,0.1-2.6,0.4c-0.7,0.3-1.3,0.7-1.8,1.2c-0.4,0.5-0.8,1.1-1,1.6c-0.4,1.1-0.7,2.2-0.6,3.3
	c0,1.3,0.2,2.6,0.8,3.7c0.5,1,1.3,1.7,2.2,2.2c1,0.5,2,0.7,3.1,0.7c1,0,1.9-0.2,2.8-0.6c0.8-0.3,1.5-0.7,2.1-1.2v-3.1h-4.9
	L540.6,162.5z"/>
<path class="st3" d="M558.6,162.5v-2h7v6.2c-1,0.8-2.1,1.5-3.3,2c-1.1,0.4-2.3,0.6-3.5,0.6c-1.5,0-3.1-0.3-4.5-1
	c-1.3-0.7-2.3-1.7-3-3c-0.7-1.4-1-2.9-1-4.4c0-1.6,0.3-3.1,1-4.5c0.6-1.3,1.6-2.4,2.9-3.1c1.4-0.7,2.9-1,4.4-1
	c1.1,0,2.2,0.2,3.2,0.6c0.9,0.3,1.7,0.9,2.3,1.6c0.6,0.8,1,1.7,1.3,2.7l-2,0.6c-0.2-0.7-0.5-1.4-0.9-2c-0.4-0.5-1-0.9-1.6-1.2
	c-0.7-0.3-1.5-0.4-2.3-0.4c-0.9,0-1.8,0.1-2.6,0.4c-0.7,0.3-1.3,0.7-1.8,1.2c-0.4,0.5-0.8,1.1-1,1.6c-0.4,1.1-0.7,2.2-0.6,3.3
	c0,1.3,0.2,2.6,0.8,3.7c0.5,1,1.3,1.7,2.2,2.2c1,0.5,2,0.7,3.1,0.7c1,0,1.9-0.2,2.8-0.6c0.8-0.3,1.5-0.7,2.1-1.2v-3.1h-4.9
	L558.6,162.5z"/>
<path d="M550.5,135.1v-4h-7.2v-1.9l7.6-10.8h1.7v10.8h2.2v1.9h-2.2v4H550.5L550.5,135.1z M550.5,129.2v-7.5l-5.2,7.5H550.5z
	 M556.9,126.9c0-1.6,0.2-3.2,0.6-4.8c0.3-1.1,1-2,1.8-2.8c0.8-0.7,1.9-1,3-1c0.8,0,1.6,0.2,2.3,0.5c0.7,0.4,1.3,0.9,1.7,1.6
	c0.5,0.8,0.8,1.6,1,2.5c0.3,1.3,0.4,2.6,0.4,3.9c0,1.6-0.2,3.2-0.6,4.7c-0.3,1.1-0.9,2-1.8,2.8c-2.1,1.6-5.1,1.2-6.8-0.7
	C557.4,132.2,556.9,130,556.9,126.9L556.9,126.9L556.9,126.9z M559,126.9c0,2.7,0.3,4.5,1,5.4c0.8,1.3,2.4,1.8,3.8,1
	c0.4-0.2,0.7-0.6,1-1c0.7-0.9,1-2.7,1-5.4s-0.3-4.5-1-5.4c-0.5-0.8-1.4-1.3-2.4-1.4c-0.9,0-1.8,0.4-2.2,1.2
	C559.5,122.3,559.1,124.2,559,126.9L559,126.9L559,126.9L559,126.9z"/>
<path class="st3" d="M576.5,162.5v-2h7v6.2c-1,0.8-2.1,1.5-3.3,2c-1.1,0.4-2.3,0.6-3.5,0.6c-1.5,0-3.1-0.3-4.5-1
	c-1.3-0.7-2.3-1.7-3-3c-0.7-1.4-1-2.9-1-4.4c0-1.6,0.3-3.1,1-4.5c0.6-1.3,1.6-2.4,2.9-3.1c1.4-0.7,2.9-1,4.4-1
	c1.1,0,2.2,0.2,3.3,0.6c0.9,0.3,1.7,0.9,2.3,1.6c0.6,0.8,1,1.7,1.3,2.7l-2,0.6c-0.2-0.7-0.5-1.4-0.9-2c-0.4-0.5-1-0.9-1.6-1.2
	c-0.7-0.3-1.5-0.4-2.3-0.4c-0.9,0-1.8,0.1-2.6,0.4c-0.7,0.3-1.3,0.7-1.8,1.2c-0.4,0.5-0.8,1.1-1,1.6c-0.4,1.1-0.7,2.2-0.6,3.3
	c0,1.3,0.2,2.6,0.8,3.7c0.5,1,1.3,1.7,2.2,2.2c1,0.5,2,0.7,3.1,0.7c1,0,1.9-0.2,2.8-0.6c0.8-0.3,1.5-0.7,2.1-1.2v-3.1h-4.9
	c0-0.1,0-0.1,0-0.1L576.5,162.5z"/>
<path class="st3" d="M581.6,150.8l6.4-16.6h2.4l6.8,16.6h-2.5l-2-5h-6.9l-1.8,5h-2.3H581.6z M586.4,143.9h5.6l-1.7-4.6
	c-0.5-1.4-0.9-2.6-1.2-3.4c-0.2,1.1-0.5,2.1-0.9,3.2L586.4,143.9L586.4,143.9L586.4,143.9z"/>
<path class="st3" d="M598.1,136.8l6.4-16.6h2.4l6.8,16.6h-2.5l-1.9-5h-7l-1.8,5h-2.3H598.1z M602.9,130h5.6l-1.7-4.6
	c-0.5-1.4-0.9-2.6-1.2-3.4c-0.2,1.1-0.5,2.1-0.9,3.2L602.9,130L602.9,130L602.9,130z"/>
<path class="st3" d="M598.3,211.6l2.2,0.6c-0.3,1.6-1.2,3.1-2.5,4.1s-2.8,1.5-4.4,1.4c-1.5,0-3-0.3-4.4-1.1c-1.2-0.8-2-1.9-2.6-3.2
	c-0.6-1.4-0.9-2.9-0.9-4.5s0.3-3.1,1-4.5c0.6-1.2,1.6-2.3,2.8-2.9c1.2-0.7,2.6-1,4-1c1.5,0,3,0.4,4.2,1.3c1.2,0.9,2,2.1,2.4,3.6
	l-2.2,0.5c-0.3-1-0.8-2-1.7-2.6c-0.8-0.6-1.8-0.9-2.8-0.8c-1.1,0-2.3,0.3-3.2,0.9c-0.8,0.6-1.5,1.5-1.8,2.5s-0.5,2.1-0.5,3.2
	c0,1.3,0.2,2.5,0.6,3.7c0.4,1,1,1.8,1.9,2.4c0.8,0.5,1.8,0.8,2.8,0.8c1.1,0,2.3-0.4,3.1-1.1c0.9-0.8,1.5-1.9,1.8-3.2l0,0
	L598.3,211.6z"/>
<path class="st3" d="M580.1,188.6h2.2v9.6c0,1.4-0.1,2.7-0.6,4c-0.4,1-1.1,1.8-2,2.4c-1.2,0.7-2.5,1-3.9,0.9c-1.3,0-2.6-0.2-3.8-0.8
	c-1-0.5-1.7-1.3-2.1-2.3c-0.5-1.3-0.7-2.8-0.6-4.2v-9.6h2.2v9.6c0,1.1,0,2.2,0.4,3.2c0.3,0.7,0.8,1.2,1.4,1.6
	c0.7,0.4,1.6,0.6,2.4,0.6c1.3,0.1,2.5-0.3,3.5-1.1c0.7-0.7,1-2.1,1-4.2v-9.6l0,0l0,0L580.1,188.6z"/>
<path class="st3" d="M562.2,188.6h2.2v9.6c0,1.4-0.1,2.7-0.6,4c-0.4,1-1.1,1.8-2,2.4c-1.2,0.7-2.5,1-3.9,0.9c-1.3,0-2.6-0.2-3.8-0.8
	c-1-0.5-1.7-1.3-2.1-2.3c-0.5-1.3-0.7-2.8-0.6-4.2v-9.6h2.2v9.6c0,1.1,0,2.2,0.4,3.2c0.3,0.7,0.8,1.2,1.4,1.6
	c0.7,0.4,1.6,0.6,2.4,0.6c1.3,0.1,2.5-0.3,3.5-1.1c0.7-0.7,1-2.1,1-4.2v-9.6l0,0l0,0L562.2,188.6z"/>
<path class="st3" d="M545.1,199.6l2.2,0.6c-0.3,1.6-1.2,3.1-2.5,4.1s-2.8,1.5-4.4,1.4c-1.5,0-3-0.3-4.4-1.1
	c-1.2-0.8-2.1-1.9-2.6-3.2c-0.6-1.4-0.9-2.9-0.9-4.5s0.3-3.1,1-4.5c0.6-1.2,1.6-2.3,2.8-2.9c1.2-0.7,2.6-1,4-1c1.5,0,3,0.4,4.2,1.3
	c1.2,0.9,2,2.1,2.4,3.6l-2.2,0.5c-0.3-1-0.8-2-1.7-2.6c-0.8-0.6-1.8-0.9-2.8-0.8c-1.1,0-2.3,0.3-3.2,0.9c-0.8,0.6-1.5,1.5-1.8,2.5
	s-0.5,2.1-0.5,3.2c0,1.3,0.2,2.5,0.6,3.7c0.4,1,1,1.8,1.9,2.4c0.8,0.5,1.8,0.8,2.8,0.8c1.1,0,2.3-0.4,3.1-1.1
	c0.9-0.8,1.5-1.9,1.7-3.2l0,0L545.1,199.6z"/>
<path class="st3" d="M514.2,205.4l6.4-16.6h2.4l6.8,16.6h-2.5l-1.9-5h-7l-1.8,5h-2.3H514.2z M519,198.6h5.6l-1.7-4.6
	c-0.5-1.4-0.9-2.5-1.2-3.4c-0.2,1.1-0.5,2.1-0.9,3.2L519,198.6L519,198.6L519,198.6z"/>
<line class="st1" x1="523.7" y1="206.5" x2="523.7" y2="218.1"/>
<path d="M521.9,229.6l-2,0.2c-0.1-0.6-0.4-1.2-0.8-1.8c-0.5-0.6-1.2-0.9-2-0.9s-1.2,0.2-1.7,0.5c-0.7,0.5-1.2,1.2-1.5,2.1
	c-0.4,1.2-0.6,2.5-0.6,3.8c0.4-0.7,1.1-1.3,1.8-1.7s1.5-0.5,2.2-0.5c1.3,0,2.6,0.5,3.5,1.5c1,1.1,1.5,2.4,1.4,3.9c0,1-0.2,2-0.7,2.9
	c-0.4,0.9-1,1.6-1.9,2.1c-0.8,0.5-1.7,0.7-2.7,0.7c-1.6,0-3.1-0.6-4.2-1.9c-1.1-1.2-1.6-3.3-1.6-6.2s0.6-5.5,1.8-7
	c1-1.3,2.6-2,4.2-1.9C519.5,225.3,521.6,227.1,521.9,229.6L521.9,229.6L521.9,229.6L521.9,229.6z M513.6,236.8c0,0.7,0.2,1.4,0.5,2
	s0.7,1.1,1.2,1.5c0.5,0.3,1.1,0.5,1.7,0.5c0.8,0,1.7-0.4,2.2-1c0.7-0.8,1-1.8,0.9-2.8c0-1-0.3-2-0.9-2.7c-0.6-0.7-1.4-1-2.3-1
	c-0.9,0-1.7,0.4-2.3,1c-0.7,0.7-1,1.6-1,2.6L513.6,236.8z M524.3,234c0-1.6,0.2-3.2,0.6-4.8c0.3-1.1,1-2,1.8-2.8c0.8-0.7,1.9-1,3-1
	c0.8,0,1.6,0.2,2.3,0.5c0.7,0.4,1.2,0.9,1.7,1.6c0.5,0.8,0.8,1.6,1,2.5c0.3,1.3,0.4,2.6,0.4,3.9c0,1.6-0.2,3.2-0.6,4.7
	c-0.3,1.1-1,2-1.8,2.8c-2.1,1.6-5.1,1.2-6.8-0.7C524.8,239.3,524.3,237.1,524.3,234L524.3,234L524.3,234z M526.4,234
	c0,2.7,0.3,4.5,1,5.4c0.8,1.3,2.4,1.8,3.8,1c0.4-0.2,0.7-0.6,1-1c0.7-0.9,1-2.7,1-5.4s-0.3-4.5-1-5.4c-0.5-0.8-1.4-1.4-2.4-1.4
	c-0.9,0-1.8,0.4-2.2,1.2C526.9,229.4,526.5,231.3,526.4,234L526.4,234L526.4,234z"/>
<path class="st3" d="M509.3,199.6l2.2,0.6c-0.3,1.6-1.2,3.1-2.5,4.1s-2.8,1.5-4.4,1.4c-1.5,0-3-0.3-4.4-1.1
	c-1.2-0.8-2.1-1.9-2.6-3.2c-0.6-1.4-0.9-2.9-0.9-4.5s0.3-3.1,1-4.5c0.6-1.2,1.6-2.3,2.8-2.9c1.2-0.7,2.6-1,4-1c1.5,0,3,0.4,4.2,1.3
	c1.2,0.9,2,2.1,2.4,3.6l-2.2,0.5c-0.3-1-0.9-2-1.7-2.6c-0.8-0.6-1.8-0.9-2.8-0.8c-1.1,0-2.3,0.3-3.2,0.9c-0.9,0.6-1.5,1.5-1.8,2.5
	c-0.4,1-0.5,2.1-0.5,3.2c0,1.3,0.2,2.5,0.6,3.7c0.4,1,1,1.8,1.9,2.4c0.9,0.5,1.8,0.8,2.8,0.8c1.1,0,2.3-0.4,3.1-1.1
	c0.9-0.8,1.5-1.9,1.8-3.2l0,0L509.3,199.6z"/>
<path class="st3" d="M490.5,188.6h2.2v9.6c0,1.4-0.1,2.7-0.6,4c-0.4,1-1.1,1.8-2,2.4c-1.2,0.7-2.5,1-3.9,0.9c-1.3,0-2.6-0.2-3.8-0.8
	c-1-0.5-1.7-1.3-2.1-2.3c-0.5-1.3-0.7-2.8-0.6-4.2v-9.6h2.2v9.6c0,1.1,0,2.2,0.4,3.2c0.3,0.7,0.8,1.2,1.4,1.6
	c0.7,0.4,1.6,0.6,2.4,0.6c1.3,0.1,2.5-0.3,3.5-1.1c0.7-0.7,1-2.1,1-4.2v-9.6l0,0L490.5,188.6z"/>
<path class="st3" d="M469,198.8v-2h7v6.2c-1,0.8-2.1,1.5-3.4,2c-1.1,0.4-2.3,0.7-3.5,0.7c-1.5,0-3.1-0.3-4.5-1.1
	c-1.3-0.7-2.3-1.7-3-3c-0.7-1.4-1-2.9-1-4.4c0-1.6,0.3-3.1,1-4.5c0.6-1.3,1.6-2.4,2.9-3.1c1.4-0.7,2.9-1,4.4-1
	c1.1,0,2.2,0.2,3.3,0.6c0.9,0.3,1.7,0.9,2.3,1.6c0.6,0.8,1,1.7,1.3,2.7l-2,0.5c-0.2-0.7-0.5-1.4-0.9-2c-0.4-0.5-1-0.9-1.6-1.2
	c-0.7-0.3-1.5-0.4-2.3-0.4c-0.9,0-1.8,0.1-2.6,0.4c-0.7,0.3-1.3,0.7-1.8,1.2c-0.4,0.5-0.8,1.1-1,1.6c-0.4,1.1-0.6,2.2-0.6,3.3
	c0,1.3,0.2,2.6,0.8,3.7c0.5,1,1.3,1.7,2.2,2.2s2,0.7,3.1,0.7s1.9-0.2,2.8-0.6c0.8-0.3,1.5-0.7,2.1-1.2v-3.1h-4.9l0,0L469,198.8z"/>
<path class="st3" d="M455.5,199.6l2.2,0.6c-0.3,1.6-1.2,3.1-2.5,4.1c-1.2,1-2.8,1.5-4.4,1.4c-1.5,0-3-0.3-4.4-1.1
	c-1.2-0.8-2-1.9-2.6-3.2c-0.6-1.4-0.9-2.9-0.9-4.5s0.3-3.1,1-4.5c0.6-1.2,1.6-2.3,2.8-2.9c1.2-0.7,2.6-1,4-1c1.5,0,3,0.4,4.2,1.3
	c1.2,0.9,2,2.2,2.4,3.6l-2.2,0.5c-0.3-1-0.9-2-1.7-2.6c-0.8-0.6-1.8-0.8-2.7-0.8c-1.1,0-2.3,0.3-3.2,0.9c-0.9,0.6-1.5,1.5-1.8,2.5
	c-0.4,1-0.5,2.1-0.5,3.2c0,1.3,0.2,2.5,0.6,3.7c0.4,1,1,1.8,1.9,2.4c0.9,0.5,1.8,0.8,2.8,0.8c1.1,0,2.3-0.4,3.1-1.1
	c0.9-0.9,1.5-2,1.7-3.2l0,0L455.5,199.6z"/>
<path class="st3" d="M449,226.3l6.4-16.6h2.4l6.8,16.6h-2.5l-1.9-5.1h-6.9l-1.8,5.1h-2.4H449z M453.8,219.5h5.6l-1.7-4.6
	c-0.5-1.4-0.9-2.6-1.2-3.4c-0.2,1.1-0.5,2.1-0.9,3.2L453.8,219.5L453.8,219.5z"/>
<path class="st3" d="M435.9,220.8v-2h7v6.2c-1,0.8-2.1,1.5-3.3,1.9c-1.1,0.4-2.3,0.6-3.5,0.6c-1.5,0-3.1-0.3-4.5-1.1
	c-1.3-0.7-2.3-1.7-3-3c-0.7-1.4-1-2.9-1-4.4c0-1.6,0.3-3.1,1-4.5c0.6-1.3,1.6-2.4,2.9-3.1c1.4-0.7,2.9-1,4.4-1
	c1.1,0,2.2,0.2,3.3,0.6c0.9,0.3,1.7,0.9,2.3,1.6c0.6,0.8,1,1.7,1.3,2.7l-2,0.5c-0.2-0.7-0.5-1.4-0.9-2c-0.4-0.5-1-0.9-1.6-1.2
	c-0.7-0.3-1.5-0.4-2.3-0.4c-0.9,0-1.8,0.1-2.6,0.4c-0.7,0.3-1.3,0.7-1.8,1.2c-0.4,0.5-0.8,1-1,1.6c-0.4,1.1-0.6,2.2-0.6,3.4
	c0,1.3,0.2,2.6,0.8,3.7c0.5,1,1.3,1.8,2.2,2.2c1,0.5,2,0.7,3.1,0.7c1,0,1.9-0.2,2.8-0.6c0.8-0.3,1.4-0.7,2.1-1.2v-3.1h-4.9l0,0
	L435.9,220.8z"/>
<path class="st3" d="M424.7,205.4l6.4-16.6h2.4l6.8,16.6h-2.5l-1.9-5h-7l-1.8,5h-2.3H424.7z M429.5,198.6h5.6l-1.7-4.6
	c-0.5-1.4-0.9-2.5-1.2-3.4c-0.2,1.1-0.5,2.1-0.9,3.2L429.5,198.6L429.5,198.6L429.5,198.6z"/>
<path class="st3" d="M419.7,199.6l2.2,0.6c-0.4,1.6-1.2,3.1-2.5,4.1s-2.8,1.5-4.4,1.4c-1.5,0-3-0.3-4.4-1.1c-1.2-0.8-2-1.9-2.6-3.2
	c-0.6-1.4-0.9-2.9-0.9-4.5s0.3-3.1,1-4.5c0.6-1.2,1.6-2.3,2.8-2.9c1.2-0.7,2.6-1,4-1c1.5,0,3,0.4,4.2,1.3c1.2,0.9,2,2.2,2.4,3.6
	l-2.2,0.5c-0.3-1-0.9-1.9-1.7-2.6c-0.8-0.6-1.8-0.9-2.8-0.8c-1.1,0-2.3,0.3-3.2,0.9c-0.9,0.6-1.5,1.5-1.8,2.5
	c-0.4,1-0.5,2.1-0.5,3.2c0,1.3,0.2,2.5,0.6,3.7c0.4,1,1,1.8,1.9,2.4c0.9,0.5,1.8,0.8,2.8,0.8c1.1,0,2.2-0.4,3.1-1.1
	c0.9-0.8,1.6-1.9,1.8-3.2l0,0L419.7,199.6z"/>
<path class="st3" d="M401,188.6h2.2v9.6c0,1.4-0.1,2.7-0.6,4c-0.4,1-1.1,1.9-2,2.4c-1.2,0.7-2.5,1-3.9,0.9c-1.3,0-2.6-0.2-3.8-0.8
	c-1-0.5-1.7-1.3-2.1-2.3c-0.5-1.3-0.7-2.8-0.6-4.2v-9.6h2.2v9.6c0,1.1,0,2.2,0.4,3.2c0.2,0.7,0.7,1.2,1.4,1.6
	c0.7,0.4,1.6,0.6,2.4,0.6c1.2,0.1,2.5-0.3,3.5-1.1c0.7-0.7,1-2.1,1-4.2v-9.6l0,0L401,188.6z"/>
<path class="st3" d="M383.1,188.6h2.2v9.6c0,1.4-0.1,2.7-0.6,4c-0.4,1-1.1,1.8-2,2.4c-1.2,0.7-2.5,1-3.9,0.9c-1.3,0-2.6-0.2-3.8-0.8
	c-1-0.5-1.7-1.3-2.1-2.3c-0.5-1.3-0.7-2.8-0.6-4.2v-9.6h2.2v9.6c0,1.1,0,2.2,0.4,3.2c0.3,0.7,0.8,1.2,1.4,1.6
	c0.7,0.4,1.6,0.6,2.4,0.6c1.2,0.1,2.5-0.3,3.5-1.1c0.7-0.7,1-2.1,1-4.2v-9.6l0,0L383.1,188.6z"/>
<path d="M354.2,233.6v-2H365v1.6c-1.2,1.4-2.3,2.9-3.1,4.5c-1,1.8-1.8,3.8-2.4,5.8c-0.4,1.5-0.7,3-0.8,4.6h-2.1
	c0-1.6,0.3-3.2,0.8-4.7c0.5-1.9,1.2-3.7,2.1-5.4c0.8-1.6,1.8-3,2.9-4.4L354.2,233.6L354.2,233.6L354.2,233.6z M367,239.9
	c0-1.6,0.1-3.2,0.6-4.7c0.3-1.1,1-2,1.8-2.8c0.9-0.7,1.9-1,3-1c0.8,0,1.6,0.2,2.3,0.5c0.7,0.4,1.3,0.9,1.7,1.6
	c0.5,0.8,0.8,1.6,1,2.5c0.3,1.3,0.4,2.6,0.4,3.9c0,1.6-0.2,3.2-0.6,4.7c-0.3,1.1-0.9,2-1.8,2.8c-0.9,0.7-1.9,1-3,1
	c-1.5,0-2.9-0.6-3.8-1.7C367.5,245.3,367,243.1,367,239.9L367,239.9z M369.1,239.9c0,2.7,0.3,4.5,1,5.4c0.8,1.3,2.4,1.8,3.8,1
	c0.4-0.2,0.7-0.6,1-1c0.6-0.9,1-2.7,1-5.4s-0.3-4.5-1-5.4c-0.5-0.8-1.4-1.4-2.4-1.4c-0.9,0-1.8,0.4-2.2,1.2
	C369.5,235.3,369.2,237.2,369.1,239.9L369.1,239.9L369.1,239.9z"/>
<path class="st3" d="M361.5,198.9v-2h7v6.2c-1,0.8-2.1,1.5-3.4,1.9c-1.1,0.4-2.3,0.6-3.5,0.6c-1.5,0-3.1-0.3-4.5-1
	c-1.3-0.7-2.3-1.7-3-3c-0.7-1.4-1-2.9-1-4.4c0-1.6,0.3-3.1,1-4.5c0.6-1.3,1.6-2.4,2.9-3.1c1.4-0.7,2.9-1,4.4-1
	c1.1,0,2.2,0.2,3.3,0.6c0.9,0.3,1.7,0.9,2.3,1.6c0.6,0.8,1,1.7,1.3,2.7l-2,0.6c-0.2-0.7-0.5-1.4-0.9-2c-0.4-0.5-1-0.9-1.6-1.2
	c-0.7-0.3-1.5-0.4-2.3-0.4c-0.9,0-1.8,0.1-2.6,0.4c-0.7,0.3-1.3,0.7-1.8,1.2c-0.4,0.5-0.8,1-1,1.6c-0.4,1.1-0.6,2.2-0.6,3.4
	c0,1.3,0.2,2.6,0.8,3.7c0.5,1,1.3,1.7,2.2,2.2c1,0.5,2,0.7,3.1,0.7c1,0,1.9-0.2,2.8-0.6c0.8-0.3,1.5-0.7,2.1-1.2v-3.1h-4.9l0,0
	L361.5,198.9z"/>
<path class="st2" d="M336.1,212.1l6.4-16.6h2.4l6.8,16.6h-2.5l-2-5h-6.9l-1.8,5h-2.3H336.1z M340.9,205.3h5.6l-1.7-4.6
	c-0.5-1.4-0.9-2.6-1.2-3.4c-0.2,1.1-0.5,2.1-0.9,3.2L340.9,205.3L340.9,205.3L340.9,205.3z"/>
<path class="st3" d="M613.1,154.7l6.4-16.7h2.4l6.8,16.6h-2.5l-1.9-5h-7l-1.8,5h-2.3L613.1,154.7z M617.9,147.8h5.6l-1.7-4.6
	c-0.5-1.4-0.9-2.6-1.2-3.4c-0.2,1.1-0.5,2.1-0.9,3.2L617.9,147.8L617.9,147.8L617.9,147.8z"/>
<path class="st4" d="M634.9,170.5l2.2,0.6c-0.3,1.6-1.2,3.1-2.5,4.1s-2.8,1.5-4.4,1.4c-1.5,0-3-0.3-4.4-1.1c-1.2-0.8-2-1.9-2.6-3.2
	c-0.6-1.4-0.9-2.9-0.9-4.5s0.3-3.1,1-4.5c0.6-1.2,1.6-2.3,2.8-2.9c1.2-0.7,2.6-1,4-1c1.5,0,3,0.4,4.2,1.3c1.2,0.9,2,2.1,2.4,3.6
	l-2.2,0.5c-0.3-1-0.8-2-1.7-2.6c-0.8-0.6-1.8-0.9-2.8-0.8c-1.1,0-2.3,0.3-3.2,0.9c-0.8,0.6-1.5,1.5-1.8,2.5c-0.7,2.2-0.7,4.7,0,6.9
	c0.3,1,1,1.8,1.9,2.4c0.8,0.5,1.8,0.8,2.8,0.8c1.1,0,2.2-0.3,3.1-1.1c0.9-0.8,1.6-1.9,1.8-3.2l0,0L634.9,170.5z"/>
<path class="st4" d="M639.5,176.3l6.4-16.6h2.4l6.8,16.6h-2.5l-1.9-5h-7l-1.8,5h-2.3H639.5z M644.3,169.5h5.7l-1.7-4.6
	c-0.5-1.4-0.9-2.6-1.2-3.4c-0.2,1.1-0.5,2.1-0.9,3.2L644.3,169.5L644.3,169.5L644.3,169.5z"/>
<path class="st4" d="M665.4,169.8v-2h7v6.2c-1,0.8-2.1,1.5-3.3,1.9c-1.1,0.4-2.3,0.6-3.5,0.6c-1.5,0-3.1-0.3-4.5-1
	c-1.3-0.7-2.3-1.7-3-3c-0.7-1.4-1-2.9-1-4.4c0-1.6,0.3-3.1,1-4.5c0.6-1.4,1.6-2.5,2.9-3.2c1.4-0.7,2.9-1,4.4-1
	c1.1,0,2.2,0.2,3.3,0.6c0.9,0.3,1.7,0.9,2.3,1.6c0.6,0.8,1,1.7,1.3,2.7l-2,0.6c-0.2-0.7-0.5-1.4-0.9-2c-0.4-0.5-1-0.9-1.6-1.2
	c-0.7-0.3-1.5-0.4-2.3-0.4c-0.9,0-1.8,0.1-2.6,0.4c-0.7,0.3-1.3,0.7-1.8,1.2c-0.4,0.5-0.8,1-1,1.6c-0.4,1.1-0.6,2.2-0.6,3.4
	c0,1.3,0.2,2.6,0.8,3.7c0.5,1,1.3,1.8,2.2,2.2c1,0.5,2,0.7,3.1,0.7c1,0,1.9-0.2,2.8-0.6c0.8-0.3,1.5-0.7,2.1-1.2v-3.1h-4.9l0,0
	L665.4,169.8z"/>
<path class="st4" d="M687.2,166.3v-2h7v6.2c-1,0.8-2.1,1.5-3.3,1.9c-1.1,0.4-2.3,0.7-3.5,0.7c-1.5,0-3.1-0.3-4.5-1.1
	c-1.3-0.7-2.3-1.7-3-3c-0.7-1.4-1-2.9-1-4.4c0-1.6,0.3-3.1,1-4.5c0.6-1.3,1.6-2.4,2.9-3.1c1.3-0.7,2.9-1,4.4-1
	c1.1,0,2.2,0.2,3.3,0.6c0.9,0.3,1.7,0.9,2.3,1.6c0.6,0.8,1,1.7,1.3,2.7l-2,0.5c-0.2-0.7-0.5-1.4-0.9-2c-0.4-0.5-1-0.9-1.6-1.2
	c-0.7-0.3-1.5-0.4-2.3-0.4c-0.9,0-1.8,0.1-2.6,0.4c-0.7,0.3-1.3,0.7-1.8,1.2c-0.4,0.5-0.8,1.1-1,1.6c-0.4,1.1-0.6,2.2-0.6,3.3
	c0,1.3,0.2,2.6,0.8,3.7c0.5,1,1.3,1.8,2.2,2.2c1,0.5,2,0.7,3.1,0.7c1.8,0,3.5-0.6,4.9-1.7v-3.1h-4.9l0,0L687.2,166.3z"/>
<path class="st4" d="M711.3,165.1h2.2v9.6c0,1.4-0.1,2.7-0.6,4c-0.4,1-1.1,1.9-2,2.4c-1.2,0.7-2.5,1-3.9,0.9c-1.3,0-2.6-0.2-3.8-0.8
	c-1-0.5-1.7-1.3-2.1-2.3c-0.5-1.3-0.7-2.8-0.6-4.2v-9.6h2.2v9.6c0,1.1,0,2.2,0.4,3.2c0.2,0.7,0.7,1.2,1.4,1.6
	c0.7,0.4,1.6,0.6,2.4,0.6c1.2,0.1,2.5-0.3,3.5-1.1c0.7-0.7,1-2.1,1-4.2v-9.6l0,0L711.3,165.1z"/>
<path class="st4" d="M710.8,203.5l2.2,0.6c-0.3,1.6-1.2,3.1-2.5,4.1s-2.8,1.5-4.4,1.4c-1.5,0-3-0.3-4.4-1.1c-1.2-0.8-2-1.9-2.6-3.2
	c-0.6-1.4-0.9-2.9-0.9-4.4c0-1.6,0.3-3.1,1-4.5c0.6-1.2,1.6-2.3,2.8-2.9c1.2-0.7,2.6-1,4-1c1.5,0,3,0.4,4.2,1.3
	c1.2,0.9,2,2.1,2.4,3.6l-2.2,0.5c-0.3-1-0.8-1.9-1.7-2.6c-0.8-0.6-1.8-0.9-2.8-0.8c-1.1,0-2.3,0.3-3.2,0.9c-0.8,0.6-1.5,1.5-1.8,2.5
	s-0.5,2.1-0.5,3.2c0,1.3,0.2,2.5,0.6,3.7c0.3,1,1,1.8,1.9,2.4c0.8,0.5,1.8,0.8,2.8,0.8c1.1,0,2.3-0.4,3.1-1.1
	c0.9-0.8,1.5-1.9,1.8-3.2L710.8,203.5z"/>
<line class="st1" x1="706.6" y1="212.4" x2="706.6" y2="224.1"/>
<path d="M696.3,242.8l2.2-0.2c0,0.9,0.5,1.7,1.1,2.4c0.6,0.5,1.3,0.8,2.1,0.8c1,0,1.9-0.4,2.5-1.1c0.7-0.8,1.1-1.9,1-2.9
	c0-1-0.3-2-1-2.8c-0.7-0.7-1.6-1-2.6-1c-0.6,0-1.2,0.1-1.8,0.4c-0.5,0.3-0.9,0.7-1.2,1.2l-1.9-0.2l1.6-8.5h8.3v1.9H700l-0.9,4.5
	c0.9-0.6,2-1,3.1-1c1.4,0,2.7,0.5,3.7,1.5s1.5,2.4,1.5,3.9c0,1.4-0.4,2.8-1.3,3.9c-1,1.3-2.7,2.1-4.3,2c-1.3,0-2.7-0.4-3.7-1.3
	c-1-0.9-1.5-2.1-1.6-3.4l0,0L696.3,242.8z M709.3,238.9c0-1.6,0.2-3.2,0.6-4.7c0.3-1.1,1-2.1,1.8-2.8s1.9-1,3-1
	c0.8,0,1.6,0.2,2.3,0.5c0.7,0.4,1.2,0.9,1.7,1.6c0.5,0.8,0.8,1.6,1,2.5c0.3,1.3,0.4,2.6,0.4,3.9c0,1.6-0.2,3.2-0.6,4.7
	c-0.3,1.1-1,2-1.8,2.8c-2.1,1.6-5.1,1.3-6.8-0.7c-1.1-1.4-1.6-3.6-1.6-6.7l0,0L709.3,238.9z M711.4,238.9c0,2.7,0.3,4.5,1,5.4
	c0.5,0.8,1.4,1.3,2.4,1.4c1,0,1.8-0.5,2.3-1.4c0.7-0.9,1-2.7,1-5.4s-0.3-4.5-1-5.4c-0.5-0.8-1.4-1.3-2.4-1.4c-0.9,0-1.8,0.4-2.2,1.2
	c-0.8,1-1.2,2.9-1.2,5.6l0,0L711.4,238.9z"/>
<path class="st4" d="M688.8,198.8h2.2v9.6c0,1.4-0.1,2.7-0.6,4c-0.4,1-1.1,1.8-2,2.4c-1.2,0.7-2.5,1-3.9,0.9c-1.3,0-2.6-0.2-3.8-0.8
	c-1-0.5-1.7-1.3-2.1-2.3c-0.5-1.3-0.7-2.8-0.6-4.2v-9.6h2.2v9.6c0,1.1,0,2.2,0.4,3.2c0.3,0.7,0.8,1.2,1.4,1.6
	c0.7,0.4,1.6,0.6,2.4,0.6c1.2,0.1,2.5-0.3,3.5-1.1c0.7-0.7,1-2.1,1-4.2v-9.6l0,0l0,0L688.8,198.8z"/>
<path class="st4" d="M668.9,194.6h2.2v9.6c0,1.4-0.1,2.7-0.6,4c-0.4,1-1.1,1.8-2,2.4c-1.2,0.7-2.5,1-3.9,0.9c-1.3,0-2.6-0.2-3.8-0.8
	c-1-0.5-1.7-1.3-2.1-2.3c-0.5-1.3-0.7-2.8-0.6-4.2v-9.6h2.2v9.6c0,1.1,0,2.2,0.4,3.2c0.2,0.7,0.7,1.2,1.3,1.6
	c0.7,0.4,1.6,0.6,2.4,0.6c1.2,0.1,2.5-0.3,3.5-1.1c0.7-0.7,1-2.1,1-4.2L668.9,194.6L668.9,194.6L668.9,194.6z"/>
<path class="st4" d="M651.5,194.6h2.2v9.6c0,1.4-0.1,2.7-0.6,4c-0.4,1-1.1,1.8-2,2.4c-1.2,0.7-2.5,1-3.9,0.9c-1.3,0-2.6-0.2-3.8-0.8
	c-1-0.5-1.7-1.3-2.1-2.3c-0.5-1.3-0.7-2.8-0.6-4.2v-9.6h2.2v9.6c0,1.1,0,2.2,0.4,3.2c0.3,0.7,0.8,1.2,1.4,1.6
	c0.7,0.4,1.6,0.6,2.4,0.6c1.2,0.1,2.5-0.3,3.5-1.1c0.7-0.7,1-2.1,1-4.2v-9.6l0,0L651.5,194.6z"/>
<path class="st4" d="M630.4,204.8v-2h7v6.2c-1,0.8-2.1,1.5-3.3,1.9c-1.1,0.4-2.3,0.6-3.5,0.6c-1.5,0-3.1-0.3-4.5-1.1
	c-1.3-0.7-2.3-1.7-3-3c-0.7-1.4-1-2.9-1-4.4c0-1.6,0.3-3.1,1-4.5c0.6-1.3,1.6-2.4,2.9-3.1c1.4-0.7,2.9-1,4.4-1
	c1.1,0,2.2,0.2,3.3,0.6c0.9,0.3,1.7,0.9,2.3,1.6c0.6,0.8,1,1.7,1.3,2.7l-2,0.6c-0.2-0.7-0.5-1.4-0.9-2c-0.4-0.5-1-0.9-1.6-1.2
	c-0.7-0.3-1.5-0.4-2.3-0.4c-0.9,0-1.8,0.1-2.6,0.4c-0.7,0.3-1.3,0.7-1.8,1.2c-0.4,0.5-0.8,1-1,1.6c-0.4,1.1-0.6,2.2-0.6,3.4
	c0,1.3,0.2,2.6,0.8,3.7c0.5,1,1.3,1.8,2.2,2.2c1,0.5,2,0.7,3.1,0.7c1,0,1.9-0.2,2.8-0.6c0.8-0.3,1.4-0.7,2.1-1.2v-3.1h-4.9
	L630.4,204.8z"/>
<path class="st3" d="M613,211v-2h7v6.2c-1,0.8-2.1,1.5-3.3,1.9c-1.1,0.4-2.3,0.7-3.5,0.7c-1.5,0-3.1-0.3-4.5-1c-1.3-0.7-2.3-1.7-3-3
	c-0.7-1.4-1-2.9-1-4.4c0-1.6,0.3-3.1,1-4.5c0.6-1.3,1.6-2.4,2.9-3.1c1.4-0.7,2.9-1,4.4-1c1.1,0,2.2,0.2,3.3,0.6
	c0.9,0.3,1.7,0.9,2.3,1.6c0.6,0.8,1,1.7,1.3,2.7l-2,0.6c-0.2-0.7-0.5-1.4-0.9-2c-0.4-0.5-1-0.9-1.6-1.2c-0.7-0.3-1.5-0.4-2.3-0.4
	c-0.9,0-1.8,0.1-2.6,0.4c-0.7,0.3-1.3,0.7-1.8,1.2c-0.4,0.5-0.8,1.1-1,1.6c-0.4,1.1-0.6,2.2-0.6,3.3c0,1.3,0.2,2.6,0.8,3.7
	c0.5,1,1.3,1.8,2.2,2.2c1,0.5,2,0.7,3.1,0.7c1.8,0,3.5-0.6,4.9-1.7V211h-4.9H613z"/>
<line class="st1" x1="271.7" y1="170.4" x2="271.7" y2="184.8"/>
<line class="st1" x1="431.6" y1="171.6" x2="431.6" y2="186.7"/>
<line class="st5" x1="150.4" y1="278.6" x2="150.4" y2="295"/>
<line class="st5" x1="113.5" y1="278.6" x2="113.5" y2="295"/>
<line class="st1" x1="360.4" y1="171.9" x2="360.4" y2="186.3"/>
<line class="st1" x1="396" y1="171.9" x2="396" y2="186.3"/>
<line class="st1" x1="362.7" y1="215.8" x2="362.7" y2="227.5"/>
<line class="st1" x1="413.8" y1="172" x2="413.8" y2="186.3"/>
<line class="st1" x1="449.4" y1="171.6" x2="449.4" y2="186.7"/>
<line class="st1" x1="467.3" y1="171.6" x2="467.3" y2="186.7"/>
<line class="st1" x1="485.1" y1="171.6" x2="485.1" y2="186.7"/>
<line class="st1" x1="502.9" y1="171.6" x2="502.9" y2="186.7"/>
<line class="st1" x1="520.7" y1="171.6" x2="520.7" y2="186.7"/>
<line class="st1" x1="538.5" y1="171.6" x2="538.5" y2="186.7"/>
<line class="st1" x1="557.1" y1="149.8" x2="557.1" y2="138.1"/>
<line class="st5" x1="629.8" y1="177.7" x2="629.8" y2="192.8"/>
<line class="st5" x1="646.7" y1="177.7" x2="646.7" y2="192.8"/>
<g>
	<g>
		<g>
			<text transform="matrix(1 0 0 1 145.4 358)" class="st6 st7">5</text>
		</g>
	</g>
	<g>
		<g>
			<text transform="matrix(1 0 0 1 158.2 358)" class="st6 st7 st8">’</text>
		</g>
	</g>
</g>
<g>
	<g>
		<g>
			<text transform="matrix(1 0 0 1 264.5 312.2)" class="st6 st9">3</text>
		</g>
	</g>
	<g>
		<g>
			<text transform="matrix(1 0 0 1 277.9 312.2)" class="st6 st9 st8">’</text>
		</g>
	</g>
</g>
<g>
	<g>
		<text transform="matrix(1 0 0 1 369.1 34.7)" class="st6 st10">SLB10-1</text>
	</g>
</g>
<ellipse class="st11" cx="576.2" cy="179.6" rx="3.1" ry="3.2"/>
<ellipse class="st11" cx="558.9" cy="179.1" rx="3.1" ry="3.2"/>
<ellipse class="st11" cx="664.1" cy="185.7" rx="3.1" ry="3.2"/>
<ellipse class="st11" cx="378.9" cy="180.4" rx="3.1" ry="3.2"/>
<ellipse class="st11" cx="132.8" cy="288.2" rx="3.1" ry="3.2"/>
</svg>
