<?xml version="1.0" encoding="utf-8"?>
<!-- Generator: Adobe Illustrator 25.2.0, SVG Export Plug-In . SVG Version: 6.00 Build 0)  -->
<svg version="1.1" id="图层_1" xmlns="http://www.w3.org/2000/svg" xmlns:xlink="http://www.w3.org/1999/xlink" x="0px" y="0px"
	 viewBox="0 0 400 400" style="enable-background:new 0 0 400 400;" xml:space="preserve">
<style type="text/css">
	.st0{font-family:'ArialMT';}
	.st1{font-size:20px;}
	.st2{fill:#B82303;}
	.st3{font-family:'Arial-BoldMT';}
	.st4{font-size:12.1px;}
	.st5{fill:none;stroke:#000000;stroke-width:0.25;stroke-miterlimit:10;}
	.st6{fill:none;stroke:#000000;stroke-miterlimit:10;}
	.st7{stroke:#000000;stroke-width:8.333334e-02;stroke-miterlimit:10;}
	.st8{fill:#C2B617;}
	.st9{fill:#FFFFFF;stroke:#000000;stroke-miterlimit:10;}
	.st10{fill:#084595;}
	.st11{fill:#2EA103;}
	.st12{fill:#F17D07;}
</style>
<desc>Matlab Figure Converted by PLOT2SVG written by Juerg Schwizer</desc>
<g id="ID000020">
</g>
<g id="ID000036">
</g>
<g id="ID000087">
</g>
<text transform="matrix(1 0 0 1 147.1617 28.5212)" class="st0 st1">Lys1.2minF</text>
<g id="ID000002">
	<g transform="translate(1076.495,769.303)">
		<g transform="rotate(-0.0)">
			<text transform="matrix(1 0 0 1 -994.0507 -468.3954)" class="st2 st3 st4">G</text>
		</g>
	</g>
</g>
<g id="ID000003">
	<g transform="translate(1116.445,769.303)">
		<g transform="rotate(-0.0)">
			<text transform="matrix(1 0 0 1 -1015.8395 -468.3954)" class="st2 st3 st4">G</text>
		</g>
	</g>
</g>
<g id="ID000004">
	<line class="st5" x1="104.7" y1="308.2" x2="94.4" y2="314.5"/>
</g>
<g id="ID000005">
	<g transform="translate(1116.445,839.679)">
		<g transform="rotate(-0.0)">
			<text transform="matrix(1 0 0 1 -1035.1173 -521.5771)" class="st0 st4">10</text>
		</g>
	</g>
</g>
<g id="ID000006">
	<g transform="translate(1156.395,769.303)">
		<g transform="rotate(-0.0)">
			<text transform="matrix(1 0 0 1 -1037.3413 -468.3954)" class="st2 st3 st4">C</text>
		</g>
	</g>
</g>
<g id="ID000007">
	<g transform="translate(1196.345,769.303)">
		<g transform="rotate(-0.0)">
			<text transform="matrix(1 0 0 1 -1059.4236 -468.3954)" class="st2 st3 st4">G</text>
		</g>
	</g>
</g>
<g id="ID000008">
	<g transform="translate(1236.295,769.303)">
		<g transform="rotate(-0.0)">
			<text transform="matrix(1 0 0 1 -1081.2135 -468.3954)" class="st2 st3 st4">G</text>
		</g>
	</g>
</g>
<g id="ID000009">
	<g transform="translate(1236.295,689.403)">
		<g transform="rotate(-0.0)">
			<text transform="matrix(1 0 0 1 -1080.922 -424.8158)" class="st2 st3 st4">A</text>
		</g>
	</g>
</g>
<g id="ID000010">
	<g transform="translate(1196.345,689.403)">
		<g transform="rotate(-0.0)">
			<text transform="matrix(1 0 0 1 -1059.1306 -424.8158)" class="st2 st3 st4">C</text>
		</g>
	</g>
</g>
<g id="ID000011">
	<g transform="translate(1156.395,689.403)">
		<g transform="rotate(-0.0)">
			<text transform="matrix(1 0 0 1 -1037.6323 -424.8158)" class="st2 st3 st4">G</text>
		</g>
	</g>
</g>
<g id="ID000012">
	<g transform="translate(1116.445,689.403)">
		<g transform="rotate(-0.0)">
			<text transform="matrix(1 0 0 1 -1015.5494 -424.8158)" class="st2 st3 st4">C</text>
		</g>
	</g>
</g>
<g id="ID000013">
	<line class="st5" x1="104.7" y1="247.7" x2="104.7" y2="235.6"/>
</g>
<g id="ID000014">
	<g transform="translate(1116.445,619.730)">
		<g transform="rotate(-0.0)">
			<text transform="matrix(1 0 0 1 -1017.589 -386.8117)" class="st0 st4">50</text>
		</g>
	</g>
</g>
<g id="ID000015">
	<line class="st6" x1="104.7" y1="288.8" x2="104.7" y2="267.1"/>
</g>
<g id="ID000016">
	<line class="st6" x1="122.8" y1="288.8" x2="122.8" y2="267.1"/>
</g>
<g id="ID000017">
	<line class="st6" x1="141" y1="288.8" x2="141" y2="267.1"/>
</g>
<g id="ID000018">
	<line class="st6" x1="159.1" y1="288.8" x2="159.1" y2="267.1"/>
</g>
<g id="ID000019">
	<polygon class="st7" points="159.1,274.3 158.9,274.3 158.7,274.4 158.5,274.4 158.2,274.4 158,274.5 157.8,274.6 157.6,274.7 
		157.4,274.8 157.2,274.9 157,275 156.8,275.2 156.6,275.3 156.5,275.5 156.3,275.7 156.2,275.8 156.1,276 155.9,276.2 155.8,276.4 
		155.8,276.7 155.7,276.9 155.6,277.1 155.6,277.3 155.5,277.6 155.5,277.8 155.5,278 155.5,278.2 155.6,278.5 155.6,278.7 
		155.6,278.9 155.7,279.1 155.8,279.4 155.9,279.6 156,279.8 156.1,280 156.3,280.2 156.4,280.3 156.6,280.5 156.7,280.7 
		156.9,280.8 157.1,280.9 157.3,281.1 157.5,281.2 157.7,281.3 157.9,281.4 158.1,281.4 158.3,281.5 158.6,281.5 158.8,281.6 
		159,281.6 159.3,281.6 159.5,281.6 159.7,281.5 159.9,281.5 160.2,281.4 160.4,281.4 160.6,281.3 160.8,281.2 161,281.1 
		161.2,280.9 161.4,280.8 161.6,280.7 161.7,280.5 161.9,280.3 162,280.2 162.2,280 162.3,279.8 162.4,279.6 162.5,279.4 
		162.6,279.1 162.6,278.9 162.7,278.7 162.7,278.5 162.8,278.2 162.8,278 162.8,277.8 162.8,277.6 162.7,277.3 162.7,277.1 
		162.6,276.9 162.5,276.7 162.5,276.4 162.3,276.2 162.2,276 162.1,275.8 162,275.7 161.8,275.5 161.7,275.3 161.5,275.2 161.3,275 
		161.1,274.9 160.9,274.8 160.7,274.7 160.5,274.6 160.3,274.5 160.1,274.4 159.8,274.4 159.6,274.4 159.4,274.3 	"/>
</g>
<g id="ID000021">
	<g transform="translate(1276.246,769.303)">
		<g transform="rotate(-0.0)">
			<text transform="matrix(1 0 0 1 -1102.7137 -468.3954)" class="st2 st3 st4">C</text>
		</g>
	</g>
</g>
<g id="ID000022">
	<g transform="translate(1316.196,769.303)">
		<g transform="rotate(-0.0)">
			<text transform="matrix(1 0 0 1 -1124.5022 -468.3954)" class="st2 st3 st4">U</text>
		</g>
	</g>
</g>
<g id="ID000023">
	<g transform="translate(1356.146,799.266)">
		<g transform="rotate(-0.0)">
			<text transform="matrix(1 0 0 1 -1146.2915 -484.7383)" class="st8 st3 st4">A</text>
		</g>
	</g>
</g>
<g id="ID000024">
	<g transform="translate(1386.108,819.241)">
		<g transform="rotate(-0.0)">
			<text transform="matrix(1 0 0 1 -1162.6373 -495.6333)" class="st8 st3 st4">A</text>
		</g>
	</g>
</g>
<g id="ID000025">
	<g transform="translate(1436.046,819.241)">
		<g transform="rotate(-0.0)">
			<text transform="matrix(1 0 0 1 -1189.8746 -495.6333)" class="st8 st3 st4">A</text>
		</g>
	</g>
</g>
<g id="ID000026">
	<g transform="translate(1466.009,799.266)">
		<g transform="rotate(-0.0)">
			<text transform="matrix(1 0 0 1 -1206.5115 -484.7383)" class="st8 st3 st4">G</text>
		</g>
	</g>
</g>
<g id="ID000027">
	<g transform="translate(1316.196,689.403)">
		<g transform="rotate(-0.0)">
			<text transform="matrix(1 0 0 1 -1124.5022 -424.8158)" class="st2 st3 st4">A</text>
		</g>
	</g>
</g>
<g id="ID000028">
	<g transform="translate(1276.246,689.403)">
		<g transform="rotate(-0.0)">
			<text transform="matrix(1 0 0 1 -1103.0043 -424.8158)" class="st2 st3 st4">G</text>
		</g>
	</g>
</g>
<g id="ID000029">
	<line class="st6" x1="177.3" y1="288.8" x2="177.3" y2="267.1"/>
</g>
<g id="ID000030">
	<line class="st6" x1="195.5" y1="288.8" x2="195.5" y2="267.1"/>
</g>
<g id="ID000031">
	<line class="st6" x1="251.6" y1="311.7" x2="261.9" y2="266.9"/>
</g>
<g id="ID000032">
	<polygon class="st9" points="257.6,285.8 257.3,285.7 257.1,285.7 256.9,285.7 256.7,285.7 256.4,285.7 256.2,285.7 256,285.8 
		255.7,285.8 255.5,285.9 255.3,286 255.1,286.1 254.9,286.2 254.7,286.3 254.5,286.4 254.3,286.6 254.2,286.7 254,286.9 
		253.9,287.1 253.7,287.3 253.6,287.5 253.5,287.7 253.4,287.9 253.3,288.1 253.3,288.3 253.2,288.5 253.2,288.8 253.1,289 
		253.1,289.2 253.1,289.5 253.1,289.7 253.2,289.9 253.2,290.1 253.3,290.4 253.4,290.6 253.4,290.8 253.5,291 253.7,291.2 
		253.8,291.4 253.9,291.6 254.1,291.8 254.2,291.9 254.4,292.1 254.6,292.2 254.8,292.3 255,292.5 255.2,292.6 255.4,292.7 
		255.6,292.7 255.8,292.8 256.1,292.9 256.3,292.9 256.5,292.9 256.7,292.9 257,292.9 257.2,292.9 257.4,292.9 257.7,292.8 
		257.9,292.8 258.1,292.7 258.3,292.6 258.5,292.5 258.7,292.4 258.9,292.2 259.1,292.1 259.2,291.9 259.4,291.8 259.6,291.6 
		259.7,291.4 259.8,291.2 259.9,291 260.1,290.8 260.1,290.6 260.2,290.4 260.3,290.2 260.3,290 260.4,289.7 260.4,289.5 
		260.4,289.3 260.4,289 260.4,288.8 260.3,288.6 260.3,288.4 260.2,288.1 260.1,287.9 260,287.7 259.9,287.5 259.8,287.3 
		259.7,287.1 259.5,286.9 259.4,286.8 259.2,286.6 259,286.5 258.8,286.3 258.6,286.2 258.4,286.1 258.2,286 258,285.9 257.8,285.8 
			"/>
</g>
<g id="ID000033">
	<polyline class="st6" points="258.3,304.8 186.4,237.1 178,144.5 	"/>
</g>
<g id="ID000034">
	<polygon class="st9" points="229.2,277.4 226.9,269.6 221.3,275.5 	"/>
</g>
<g id="ID000035">
	<polygon class="st9" points="216.2,265.2 216.1,265.4 216,265.6 215.8,265.7 215.7,265.9 215.6,266.1 215.5,266.4 215.4,266.6 
		215.4,266.8 215.3,267 215.3,267.3 215.3,267.5 215.3,267.7 215.3,267.9 215.3,268.2 215.3,268.4 215.4,268.6 215.5,268.8 
		215.5,269.1 215.6,269.3 215.7,269.5 215.9,269.7 216,269.9 216.1,270 216.3,270.2 216.4,270.4 216.6,270.5 216.8,270.7 217,270.8 
		217.2,270.9 217.4,271 217.6,271.1 217.8,271.2 218.1,271.2 218.3,271.3 218.5,271.3 218.7,271.3 219,271.3 219.2,271.3 
		219.4,271.3 219.7,271.2 219.9,271.2 220.1,271.1 220.3,271 220.5,270.9 220.7,270.8 220.9,270.7 221.1,270.6 221.3,270.4 
		221.5,270.3 221.6,270.1 221.8,269.9 221.9,269.7 222,269.5 222.1,269.3 222.2,269.1 222.3,268.9 222.4,268.7 222.4,268.5 
		222.5,268.2 222.5,268 222.5,267.8 222.5,267.5 222.5,267.3 222.5,267.1 222.4,266.9 222.4,266.6 222.3,266.4 222.2,266.2 
		222.1,266 222,265.8 221.9,265.6 221.7,265.4 221.6,265.2 221.4,265.1 221.3,264.9 221.1,264.8 220.9,264.7 220.7,264.5 
		220.5,264.4 220.3,264.3 220.1,264.2 219.8,264.2 219.6,264.1 219.4,264.1 219.2,264.1 218.9,264.1 218.7,264.1 218.5,264.1 
		218.2,264.1 218,264.2 217.8,264.2 217.6,264.3 217.4,264.4 217.2,264.5 217,264.6 216.8,264.7 216.6,264.9 216.4,265 	"/>
</g>
<g id="ID000037">
	<g transform="translate(1495.971,769.303)">
		<g transform="rotate(-0.0)">
			<text transform="matrix(1 0 0 1 -1222.5623 -468.3954)" class="st8 st3 st4">A</text>
		</g>
	</g>
</g>
<g id="ID000038">
	<line class="st5" x1="285.7" y1="287.6" x2="294.3" y2="279"/>
</g>
<g id="ID000039">
	<g transform="translate(1533.636,715.232)">
		<g transform="rotate(-0.0)">
			<text transform="matrix(1 0 0 1 -1239.3328 -438.9045)" class="st0 st4">20</text>
		</g>
	</g>
</g>
<g id="ID000040">
	<g transform="translate(1495.971,719.366)">
		<g transform="rotate(-0.0)">
			<text transform="matrix(1 0 0 1 -1222.8533 -441.1567)" class="st8 st3 st4">G</text>
		</g>
	</g>
</g>
<g id="ID000041">
	<g transform="translate(1466.009,689.403)">
		<g transform="rotate(-0.0)">
			<text transform="matrix(1 0 0 1 -1206.2185 -424.8158)" class="st8 st3 st4">U</text>
		</g>
	</g>
</g>
<g id="ID000042">
	<g transform="translate(1426.058,659.440)">
		<g transform="rotate(-0.0)">
			<text transform="matrix(1 0 0 1 -1184.7206 -408.4719)" class="st10 st3 st4">G</text>
		</g>
	</g>
</g>
<g id="ID000043">
	<g transform="translate(1426.058,619.490)">
		<g transform="rotate(-0.0)">
			<text transform="matrix(1 0 0 1 -1184.4266 -386.682)" class="st10 st3 st4">C</text>
		</g>
	</g>
</g>
<g id="ID000044">
	<g transform="translate(1426.058,579.540)">
		<g transform="rotate(-0.0)">
			<text transform="matrix(1 0 0 1 -1184.4266 -364.8893)" class="st10 st3 st4">A</text>
		</g>
	</g>
</g>
<g id="ID000045">
	<g transform="translate(1426.058,539.590)">
		<g transform="rotate(-0.0)">
			<text transform="matrix(1 0 0 1 -1184.7206 -343.0995)" class="st10 st3 st4">G</text>
		</g>
	</g>
</g>
<g id="ID000046">
	<g transform="translate(1456.021,499.640)">
		<g transform="rotate(-0.0)">
			<text transform="matrix(1 0 0 1 -1200.7705 -321.3081)" class="st11 st3 st4">A</text>
		</g>
	</g>
</g>
<g id="ID000047">
	<g transform="translate(1475.996,459.690)">
		<g transform="rotate(-0.0)">
			<text transform="matrix(1 0 0 1 -1211.9603 -299.5184)" class="st11 st3 st4">G</text>
		</g>
	</g>
</g>
<g id="ID000048">
	<g transform="translate(1495.971,419.740)">
		<g transform="rotate(-0.0)">
			<text transform="matrix(1 0 0 1 -1222.5623 -277.7266)" class="st11 st3 st4">U</text>
		</g>
	</g>
</g>
<g id="ID000049">
	<g transform="translate(1495.971,379.790)">
		<g transform="rotate(-0.0)">
			<text transform="matrix(1 0 0 1 -1222.5623 -255.9362)" class="st12 st3 st4">U</text>
		</g>
	</g>
</g>
<g id="ID000050">
	<line class="st5" x1="289.3" y1="119.1" x2="301.4" y2="119.1"/>
</g>
<g id="ID000051">
	<g transform="translate(1549.238,379.790)">
		<g transform="rotate(-0.0)">
			<text transform="matrix(1 0 0 1 -1247.8391 -255.9362)" class="st0 st4">30</text>
		</g>
	</g>
</g>
<g id="ID000052">
	<g transform="translate(1485.984,339.840)">
		<g transform="rotate(-0.0)">
			<text transform="matrix(1 0 0 1 -1217.1154 -234.1479)" class="st11 st3 st4">A</text>
		</g>
	</g>
</g>
<g id="ID000053">
	<g transform="translate(1456.021,309.877)">
		<g transform="rotate(-0.0)">
			<text transform="matrix(1 0 0 1 -1200.7705 -217.8026)" class="st11 st3 st4">C</text>
		</g>
	</g>
</g>
<g id="ID000054">
	<g transform="translate(1416.071,289.902)">
		<g transform="rotate(-0.0)">
			<text transform="matrix(1 0 0 1 -1178.9836 -206.9085)" class="st11 st3 st4">U</text>
		</g>
	</g>
</g>
<g id="ID000055">
	<g transform="translate(1366.133,289.902)">
		<g transform="rotate(-0.0)">
			<text transform="matrix(1 0 0 1 -1151.7419 -206.9085)" class="st11 st3 st4">U</text>
		</g>
	</g>
</g>
<g id="ID000056">
	<g transform="translate(1326.183,309.877)">
		<g transform="rotate(-0.0)">
			<text transform="matrix(1 0 0 1 -1129.9515 -217.8026)" class="st12 st3 st4">A</text>
		</g>
	</g>
</g>
<g id="ID000057">
	<g transform="translate(1286.233,339.840)">
		<g transform="rotate(-0.0)">
			<text transform="matrix(1 0 0 1 -1108.4532 -234.1479)" class="st12 st3 st4">G</text>
		</g>
	</g>
</g>
<g id="ID000058">
	<g transform="translate(1276.246,379.790)">
		<g transform="rotate(-0.0)">
			<text transform="matrix(1 0 0 1 -1102.7137 -255.9362)" class="st11 st3 st4">U</text>
		</g>
	</g>
</g>
<g id="ID000059">
	<g transform="translate(1276.246,419.740)">
		<g transform="rotate(-0.0)">
			<text transform="matrix(1 0 0 1 -1102.7137 -277.7266)" class="st11 st3 st4">U</text>
		</g>
	</g>
</g>
<g id="ID000060">
	<g transform="translate(1296.221,459.690)">
		<g transform="rotate(-0.0)">
			<text transform="matrix(1 0 0 1 -1113.6091 -299.5184)" class="st11 st3 st4">C</text>
		</g>
	</g>
</g>
<g id="ID000061">
	<g transform="translate(1326.183,499.640)">
		<g transform="rotate(-0.0)">
			<text transform="matrix(1 0 0 1 -1129.9515 -321.3081)" class="st11 st3 st4">A</text>
		</g>
	</g>
</g>
<g id="ID000062">
	<line class="st5" x1="187.9" y1="173.5" x2="175.8" y2="173.5"/>
</g>
<g id="ID000063">
	<g transform="translate(1272.916,499.640)">
		<g transform="rotate(-0.0)">
			<text transform="matrix(1 0 0 1 -1108.751 -321.3081)" class="st0 st4">40</text>
		</g>
	</g>
</g>
<g id="ID000064">
	<g transform="translate(1346.158,539.590)">
		<g transform="rotate(-0.0)">
			<text transform="matrix(1 0 0 1 -1140.8459 -343.0995)" class="st10 st3 st4">C</text>
		</g>
	</g>
</g>
<g id="ID000065">
	<g transform="translate(1346.158,579.540)">
		<g transform="rotate(-0.0)">
			<text transform="matrix(1 0 0 1 -1140.8459 -364.8893)" class="st10 st3 st4">U</text>
		</g>
	</g>
</g>
<g id="ID000066">
	<g transform="translate(1346.158,619.490)">
		<g transform="rotate(-0.0)">
			<text transform="matrix(1 0 0 1 -1141.1345 -386.682)" class="st10 st3 st4">G</text>
		</g>
	</g>
</g>
<g id="ID000067">
	<g transform="translate(1346.158,659.440)">
		<g transform="rotate(-0.0)">
			<text transform="matrix(1 0 0 1 -1140.8459 -408.4719)" class="st10 st3 st4">C</text>
		</g>
	</g>
</g>
<g id="ID000068">
	<line class="st6" x1="238.1" y1="246.2" x2="216.4" y2="246.2"/>
</g>
<g id="ID000069">
	<line class="st6" x1="238.1" y1="228" x2="216.4" y2="228"/>
</g>
<g id="ID000070">
	<line class="st6" x1="238.1" y1="209.9" x2="216.4" y2="209.9"/>
</g>
<g id="ID000071">
	<line class="st6" x1="238.1" y1="191.7" x2="216.4" y2="191.7"/>
</g>
<g id="ID000072">
	<line class="st6" x1="260.8" y1="155.4" x2="193.7" y2="155.4"/>
</g>
<g id="ID000073">
	<polygon class="st7" points="223.6,155.4 223.6,155.6 223.6,155.8 223.7,156.1 223.7,156.3 223.8,156.5 223.9,156.7 224,156.9 
		224.1,157.1 224.2,157.3 224.3,157.5 224.5,157.7 224.6,157.9 224.8,158 225,158.2 225.1,158.3 225.3,158.5 225.5,158.6 
		225.7,158.7 226,158.8 226.2,158.8 226.4,158.9 226.6,159 226.8,159 227.1,159 227.3,159 227.5,159 227.8,159 228,158.9 
		228.2,158.9 228.4,158.8 228.6,158.7 228.9,158.6 229.1,158.5 229.3,158.4 229.4,158.3 229.6,158.1 229.8,158 230,157.8 
		230.1,157.6 230.2,157.4 230.4,157.2 230.5,157 230.6,156.8 230.7,156.6 230.7,156.4 230.8,156.2 230.8,156 230.9,155.7 
		230.9,155.5 230.9,155.3 230.9,155 230.8,154.8 230.8,154.6 230.7,154.4 230.7,154.1 230.6,153.9 230.5,153.7 230.4,153.5 
		230.2,153.3 230.1,153.1 230,153 229.8,152.8 229.6,152.6 229.4,152.5 229.3,152.4 229.1,152.2 228.9,152.1 228.6,152 228.4,151.9 
		228.2,151.9 228,151.8 227.8,151.8 227.5,151.8 227.3,151.7 227.1,151.7 226.8,151.8 226.6,151.8 226.4,151.8 226.2,151.9 226,152 
		225.7,152.1 225.5,152.2 225.3,152.3 225.1,152.4 225,152.6 224.8,152.7 224.6,152.9 224.5,153 224.3,153.2 224.2,153.4 
		224.1,153.6 224,153.8 223.9,154 223.8,154.2 223.7,154.5 223.7,154.7 223.6,154.9 223.6,155.1 	"/>
</g>
<g id="ID000074">
	<line class="st6" x1="261.1" y1="157.2" x2="207" y2="171.7"/>
</g>
<g id="ID000075">
	<polygon class="st9" points="243.2,162 235.3,159.9 237.4,167.8 	"/>
</g>
<g id="ID000076">
	<polygon class="st9" points="226.9,170.1 233.9,168.2 232.1,161.2 225,163.1 	"/>
</g>
<g id="ID000077">
	<polyline class="st6" points="269.9,119.1 222.7,119.1 204.2,93.2 	"/>
</g>
<g id="ID000078">
	<polygon class="st7" points="242.7,119.1 242.7,119.3 242.7,119.5 242.7,119.7 242.8,120 242.9,120.2 242.9,120.4 243,120.6 
		243.1,120.8 243.3,121 243.4,121.2 243.5,121.4 243.7,121.6 243.8,121.7 244,121.9 244.2,122 244.4,122.1 244.6,122.3 244.8,122.4 
		245,122.5 245.2,122.5 245.5,122.6 245.7,122.6 245.9,122.7 246.1,122.7 246.4,122.7 246.6,122.7 246.8,122.7 247.1,122.6 
		247.3,122.6 247.5,122.5 247.7,122.4 247.9,122.3 248.1,122.2 248.3,122.1 248.5,121.9 248.7,121.8 248.9,121.6 249,121.5 
		249.2,121.3 249.3,121.1 249.4,120.9 249.5,120.7 249.6,120.5 249.7,120.3 249.8,120.1 249.9,119.9 249.9,119.6 249.9,119.4 
		249.9,119.2 249.9,118.9 249.9,118.7 249.9,118.5 249.9,118.3 249.8,118 249.7,117.8 249.6,117.6 249.5,117.4 249.4,117.2 
		249.3,117 249.2,116.8 249,116.6 248.9,116.5 248.7,116.3 248.5,116.2 248.3,116 248.1,115.9 247.9,115.8 247.7,115.7 247.5,115.6 
		247.3,115.6 247.1,115.5 246.8,115.5 246.6,115.4 246.4,115.4 246.1,115.4 245.9,115.4 245.7,115.5 245.5,115.5 245.2,115.6 
		245,115.7 244.8,115.8 244.6,115.9 244.4,116 244.2,116.1 244,116.2 243.8,116.4 243.7,116.6 243.5,116.7 243.4,116.9 243.3,117.1 
		243.1,117.3 243,117.5 242.9,117.7 242.9,117.9 242.8,118.1 242.7,118.4 242.7,118.6 242.7,118.8 	"/>
</g>
<g id="ID000079">
	<polyline class="st6" points="270.3,107.8 263.6,128.1 195.5,128.1 188.7,148.5 	"/>
</g>
<g id="ID000080">
	<polygon class="st7" points="237.9,128.1 237.9,127.9 237.8,127.7 237.8,127.5 237.8,127.2 237.7,127 237.6,126.8 237.5,126.6 
		237.4,126.4 237.3,126.2 237.2,126 237,125.8 236.9,125.6 236.7,125.5 236.5,125.3 236.3,125.2 236.2,125.1 236,124.9 235.7,124.8 
		235.5,124.7 235.3,124.7 235.1,124.6 234.9,124.6 234.6,124.5 234.4,124.5 234.2,124.5 234,124.5 233.7,124.5 233.5,124.6 
		233.3,124.6 233.1,124.7 232.8,124.8 232.6,124.9 232.4,125 232.2,125.1 232,125.2 231.9,125.4 231.7,125.5 231.5,125.7 
		231.4,125.9 231.2,126.1 231.1,126.3 231,126.5 230.9,126.7 230.8,126.9 230.8,127.1 230.7,127.3 230.7,127.6 230.6,127.8 
		230.6,128 230.6,128.3 230.6,128.5 230.7,128.7 230.7,128.9 230.8,129.2 230.8,129.4 230.9,129.6 231,129.8 231.1,130 231.2,130.2 
		231.4,130.4 231.5,130.6 231.7,130.7 231.9,130.9 232,131 232.2,131.2 232.4,131.3 232.6,131.4 232.8,131.5 233.1,131.6 
		233.3,131.6 233.5,131.7 233.7,131.7 234,131.8 234.2,131.8 234.4,131.8 234.6,131.7 234.9,131.7 235.1,131.7 235.3,131.6 
		235.5,131.5 235.7,131.4 236,131.3 236.2,131.2 236.3,131.1 236.5,131 236.7,130.8 236.9,130.6 237,130.5 237.2,130.3 237.3,130.1 
		237.4,129.9 237.5,129.7 237.6,129.5 237.7,129.3 237.8,129.1 237.8,128.8 237.8,128.6 237.9,128.4 	"/>
</g>
<g id="ID000081">
	<polygon class="st7" points="220.1,128.1 227.2,132.2 227.2,124.1 	"/>
</g>
<g id="ID000082">
	<line class="st6" x1="251.9" y1="88.5" x2="189" y2="99.6"/>
</g>
<g id="ID000083">
	<polygon class="st7" points="216.9,94.7 216.9,94.9 217,95.2 217,95.4 217.1,95.6 217.2,95.8 217.4,96 217.5,96.2 217.6,96.4 
		217.8,96.6 217.9,96.7 218.1,96.9 218.3,97 218.5,97.1 218.7,97.3 218.9,97.4 219.1,97.5 219.3,97.5 219.5,97.6 219.7,97.7 
		220,97.7 220.2,97.7 220.4,97.7 220.7,97.7 220.9,97.7 221.1,97.7 221.3,97.6 221.6,97.5 221.8,97.5 222,97.4 222.2,97.3 
		222.4,97.1 222.6,97 222.8,96.9 222.9,96.7 223.1,96.6 223.3,96.4 223.4,96.2 223.5,96 223.6,95.8 223.7,95.6 223.8,95.4 
		223.9,95.2 224,94.9 224,94.7 224,94.5 224.1,94.3 224.1,94 224.1,93.8 224,93.6 224,93.3 223.9,93.1 223.9,92.9 223.8,92.7 
		223.7,92.5 223.6,92.3 223.5,92.1 223.3,91.9 223.2,91.7 223,91.5 222.9,91.4 222.7,91.2 222.5,91.1 222.3,91 222.1,90.9 
		221.9,90.8 221.7,90.7 221.5,90.6 221.2,90.5 221,90.5 220.8,90.5 220.6,90.5 220.3,90.5 220.1,90.5 219.9,90.5 219.6,90.5 
		219.4,90.6 219.2,90.7 219,90.8 218.8,90.9 218.6,91 218.4,91.1 218.2,91.2 218,91.4 217.8,91.5 217.7,91.7 217.5,91.9 217.4,92.1 
		217.3,92.3 217.2,92.5 217.1,92.7 217,92.9 216.9,93.1 216.9,93.3 216.8,93.6 216.8,93.8 216.8,94 216.8,94.3 216.8,94.5 	"/>
</g>
<g id="ID000084">
	<polyline class="st6" points="235.7,73.1 218.2,55.5 203.6,81 	"/>
</g>
<g id="ID000085">
	<polygon class="st7" points="215,61 214.8,60.9 214.6,60.8 214.4,60.7 214.2,60.6 214,60.6 213.7,60.5 213.5,60.5 213.3,60.5 
		213,60.5 212.8,60.5 212.6,60.6 212.4,60.6 212.1,60.7 211.9,60.8 211.7,60.8 211.5,60.9 211.3,61.1 211.1,61.2 210.9,61.3 
		210.8,61.5 210.6,61.6 210.4,61.8 210.3,62 210.2,62.2 210,62.4 209.9,62.6 209.9,62.8 209.8,63 209.7,63.2 209.7,63.5 209.6,63.7 
		209.6,63.9 209.6,64.2 209.6,64.4 209.6,64.6 209.7,64.8 209.7,65.1 209.8,65.3 209.9,65.5 210,65.7 210.1,65.9 210.2,66.1 
		210.3,66.3 210.5,66.5 210.6,66.7 210.8,66.8 211,67 211.1,67.1 211.3,67.2 211.5,67.3 211.7,67.4 212,67.5 212.2,67.6 212.4,67.7 
		212.6,67.7 212.8,67.7 213.1,67.8 213.3,67.8 213.5,67.8 213.8,67.7 214,67.7 214.2,67.6 214.4,67.6 214.6,67.5 214.9,67.4 
		215.1,67.3 215.3,67.2 215.4,67 215.6,66.9 215.8,66.7 215.9,66.5 216.1,66.4 216.2,66.2 216.4,66 216.5,65.8 216.6,65.6 
		216.6,65.4 216.7,65.1 216.8,64.9 216.8,64.7 216.8,64.5 216.9,64.2 216.9,64 216.8,63.8 216.8,63.5 216.8,63.3 216.7,63.1 
		216.6,62.9 216.6,62.7 216.5,62.5 216.3,62.3 216.2,62.1 216.1,61.9 215.9,61.7 215.8,61.5 215.6,61.4 215.4,61.2 215.2,61.1 	"/>
</g>
<g id="ID000086">
	<polygon class="st7" points="206.2,76.4 213.3,72.3 206.2,68.3 	"/>
</g>
<text transform="matrix(1 0 0 1 54.2788 312.9277)" class="st0 st4">5</text>
<text transform="matrix(1 0 0 1 62.5454 312.9277)" class="st0 st4">’</text>
<text transform="matrix(1 0 0 1 64.2242 253.8172)" class="st0 st4">3</text>
<text transform="matrix(1 0 0 1 72.4908 253.8172)" class="st0 st4">’</text>
<g id="ID000002_1_">
	<g transform="translate(1076.495,769.303)">
		<g transform="rotate(-0.0)">
			<text transform="matrix(1 0 0 1 -1011.3986 -468.1236)" class="st2 st3 st4">G</text>
		</g>
	</g>
</g>
<g id="ID000012_1_">
	<g transform="translate(1116.445,689.403)">
		<g transform="rotate(-0.0)">
			<text transform="matrix(1 0 0 1 -1034.1744 -424.3429)" class="st2 st3 st4">C</text>
		</g>
	</g>
</g>
<g id="ID000012_2_">
	<g transform="translate(1116.445,689.403)">
		<g transform="rotate(-0.0)">
			<text transform="matrix(1 0 0 1 -1051.3695 -423.8743)" class="st2 st3 st4">C</text>
		</g>
	</g>
</g>
<g id="ID000015_1_">
	<line class="st6" x1="68.3" y1="289.6" x2="68.3" y2="267.8"/>
</g>
<g id="ID000016_1_">
	<line class="st6" x1="86.5" y1="289.6" x2="86.5" y2="267.8"/>
</g>
</svg>
