<?xml version="1.0" encoding="utf-8"?>
<!-- Generator: Adobe Illustrator 25.2.0, SVG Export Plug-In . SVG Version: 6.00 Build 0)  -->
<svg version="1.1" id="图层_1" xmlns="http://www.w3.org/2000/svg" xmlns:xlink="http://www.w3.org/1999/xlink" x="0px" y="0px"
	 viewBox="0 0 400 400" style="enable-background:new 0 0 400 400;" xml:space="preserve">
<style type="text/css">
	.st0{fill:#228B22;}
	.st1{font-family:'Arial-BoldMT';}
	.st2{font-size:8.4024px;}
	.st3{fill:#BF00BF;}
	.st4{fill:none;stroke:#000000;stroke-miterlimit:10;}
	.st5{font-family:'ArialMT';}
	.st6{stroke:#000000;stroke-width:0.1111;stroke-miterlimit:10;}
	.st7{fill:#FFFFFF;stroke:#000000;stroke-width:2;stroke-miterlimit:10;}
	.st8{fill:#00AA26;}
	.st9{font-size:20px;}
</style>
<g id="topgroup">
	<g id="ID000000">
		<g>
			<g id="ID000002">
				<g transform="translate(949.011,865.284)">
					<g transform="rotate(-0.0)">
						<text transform="matrix(1.0135 0 0 1 -727.0485 -468.4478)" class="st0 st1 st2">G</text>
					</g>
				</g>
			</g>
			<g id="ID000003">
				<g transform="translate(949.011,832.610)">
					<g transform="rotate(-0.0)">
						<text transform="matrix(1.0135 0 0 1 -727.0485 -451.9222)" class="st3 st1 st2">G</text>
					</g>
				</g>
			</g>
			<g id="ID000004">
				<line class="st4" x1="236.2" y1="376.9" x2="247.1" y2="376.9"/>
			</g>
			<g id="ID000005">
				<g transform="translate(992.576,832.610)">
					<g transform="rotate(-0.0)">
						<text transform="matrix(1.0135 0 0 1 -745.4767 -451.9222)" class="st5 st2">10</text>
					</g>
				</g>
			</g>
			<g id="ID000006">
				<g transform="translate(949.011,799.936)">
					<g transform="rotate(-0.0)">
						<text transform="matrix(1.0135 0 0 1 -726.8112 -435.3976)" class="st3 st1 st2">C</text>
					</g>
				</g>
			</g>
			<g id="ID000007">
				<g transform="translate(949.011,767.262)">
					<g transform="rotate(-0.0)">
						<text transform="matrix(1.0135 0 0 1 -727.0485 -418.8721)" class="st3 st1 st2">G</text>
					</g>
				</g>
			</g>
			<g id="ID000008">
				<g transform="translate(949.011,734.588)">
					<g transform="rotate(-0.0)">
						<text transform="matrix(1.0135 0 0 1 -727.0485 -402.3475)" class="st0 st1 st2">G</text>
					</g>
				</g>
			</g>
			<g id="ID000009">
				<g transform="translate(883.663,734.588)">
					<g transform="rotate(-0.0)">
						<text transform="matrix(1.0135 0 0 1 -694.2015 -402.3475)" class="st0 st1 st2">A</text>
					</g>
				</g>
			</g>
			<g id="ID000010">
				<g transform="translate(883.663,767.262)">
					<g transform="rotate(-0.0)">
						<text transform="matrix(1.0135 0 0 1 -694.2015 -418.8721)" class="st3 st1 st2">C</text>
					</g>
				</g>
			</g>
			<g id="ID000011">
				<g transform="translate(883.663,799.936)">
					<g transform="rotate(-0.0)">
						<text transform="matrix(1.0135 0 0 1 -694.4368 -435.3976)" class="st3 st1 st2">G</text>
					</g>
				</g>
			</g>
			<g id="ID000012">
				<g transform="translate(883.663,832.610)">
					<g transform="rotate(-0.0)">
						<text transform="matrix(1.0135 0 0 1 -694.2015 -451.9222)" class="st3 st1 st2">C</text>
					</g>
				</g>
			</g>
			<g id="ID000013">
				<line class="st4" x1="181.6" y1="376.9" x2="170.7" y2="376.9"/>
			</g>
			<g id="ID000014">
				<g transform="translate(840.098,832.610)">
					<g transform="rotate(-0.0)">
						<text transform="matrix(1.0135 0 0 1 -678.8577 -451.9222)" class="st5 st2">50</text>
					</g>
				</g>
			</g>
			<g id="ID000015">
				<line class="st4" x1="218.7" y1="376.9" x2="199.1" y2="376.9"/>
			</g>
			<g id="ID000016">
				<line class="st4" x1="218.7" y1="360.8" x2="199.1" y2="360.8"/>
			</g>
			<g id="ID000017">
				<polygon class="st6" points="205.6,360.8 205.6,361 205.7,361.2 205.7,361.4 205.7,361.6 205.8,361.8 205.9,362 205.9,362.2 
					206,362.4 206.2,362.5 206.3,362.7 206.4,362.9 206.5,363 206.7,363.2 206.8,363.3 207,363.4 207.2,363.5 207.4,363.6 
					207.5,363.7 207.7,363.8 207.9,363.9 208.1,363.9 208.3,364 208.5,364 208.7,364 209,364 209.2,364 209.4,364 209.6,363.9 
					209.8,363.9 210,363.8 210.2,363.8 210.4,363.7 210.5,363.6 210.7,363.5 210.9,363.4 211,363.2 211.2,363.1 211.3,362.9 
					211.5,362.8 211.6,362.6 211.7,362.4 211.8,362.3 211.9,362.1 212,361.9 212,361.7 212.1,361.5 212.1,361.3 212.2,361.1 
					212.2,360.9 212.2,360.7 212.2,360.5 212.1,360.3 212.1,360.1 212,359.9 212,359.7 211.9,359.5 211.8,359.3 211.7,359.1 
					211.6,359 211.5,358.8 211.3,358.6 211.2,358.5 211,358.3 210.9,358.2 210.7,358.1 210.5,358 210.4,357.9 210.2,357.8 
					210,357.7 209.8,357.7 209.6,357.6 209.4,357.6 209.2,357.6 209,357.6 208.7,357.6 208.5,357.6 208.3,357.6 208.1,357.6 
					207.9,357.7 207.7,357.8 207.5,357.8 207.4,357.9 207.2,358 207,358.2 206.8,358.3 206.7,358.4 206.5,358.6 206.4,358.7 
					206.3,358.9 206.2,359 206,359.2 205.9,359.4 205.9,359.6 205.8,359.8 205.7,360 205.7,360.2 205.7,360.4 205.6,360.6 				"/>
			</g>
			<g id="ID000018">
				<line class="st4" x1="218.7" y1="344.6" x2="199.1" y2="344.6"/>
			</g>
			<g id="ID000019">
				<line class="st4" x1="218.7" y1="328.5" x2="199.1" y2="328.5"/>
			</g>
			<g id="ID000020">
				<polygon class="st6" points="205.6,328.5 205.6,328.7 205.7,328.9 205.7,329.1 205.7,329.3 205.8,329.5 205.9,329.7 
					205.9,329.9 206,330.1 206.2,330.2 206.3,330.4 206.4,330.6 206.5,330.7 206.7,330.9 206.8,331 207,331.1 207.2,331.2 
					207.4,331.3 207.5,331.4 207.7,331.5 207.9,331.6 208.1,331.6 208.3,331.7 208.5,331.7 208.7,331.7 209,331.7 209.2,331.7 
					209.4,331.7 209.6,331.6 209.8,331.6 210,331.5 210.2,331.5 210.4,331.4 210.5,331.3 210.7,331.2 210.9,331.1 211,330.9 
					211.2,330.8 211.3,330.6 211.5,330.5 211.6,330.3 211.7,330.1 211.8,330 211.9,329.8 212,329.6 212,329.4 212.1,329.2 
					212.1,329 212.2,328.8 212.2,328.6 212.2,328.4 212.2,328.2 212.1,328 212.1,327.8 212,327.6 212,327.4 211.9,327.2 211.8,327 
					211.7,326.8 211.6,326.7 211.5,326.5 211.3,326.3 211.2,326.2 211,326 210.9,325.9 210.7,325.8 210.5,325.7 210.4,325.6 
					210.2,325.5 210,325.4 209.8,325.4 209.6,325.3 209.4,325.3 209.2,325.3 209,325.3 208.7,325.3 208.5,325.3 208.3,325.3 
					208.1,325.3 207.9,325.4 207.7,325.5 207.5,325.5 207.4,325.6 207.2,325.7 207,325.9 206.8,326 206.7,326.1 206.5,326.3 
					206.4,326.4 206.3,326.6 206.2,326.7 206,326.9 205.9,327.1 205.9,327.3 205.8,327.5 205.7,327.7 205.7,327.9 205.7,328.1 
					205.6,328.3 				"/>
			</g>
			<g id="ID000021">
			</g>
			<g id="ID000022">
				<g transform="translate(949.011,701.914)">
					<g transform="rotate(-0.0)">
						<text transform="matrix(1.0135 0 0 1 -726.8112 -385.8239)" class="st3 st1 st2">C</text>
					</g>
				</g>
			</g>
			<g id="ID000023">
				<g transform="translate(949.011,669.240)">
					<g transform="rotate(-0.0)">
						<text transform="matrix(1.0135 0 0 1 -726.8112 -369.2993)" class="st3 st1 st2">U</text>
					</g>
				</g>
			</g>
			<g id="ID000024">
				<g transform="translate(949.011,636.567)">
					<g transform="rotate(-0.0)">
						<text transform="matrix(1.0135 0 0 1 -726.8112 -352.7758)" class="st0 st1 st2">A</text>
					</g>
				</g>
			</g>
			<g id="ID000025">
				<g transform="translate(949.011,603.893)">
					<g transform="rotate(-0.0)">
						<text transform="matrix(1.0135 0 0 1 -726.8112 -336.2502)" class="st0 st1 st2">A</text>
					</g>
				</g>
			</g>
			<g id="ID000026">
				<g transform="translate(949.011,571.219)">
					<g transform="rotate(-0.0)">
						<text transform="matrix(1.0135 0 0 1 -726.8112 -319.7275)" class="st0 st1 st2">A</text>
					</g>
				</g>
			</g>
			<g id="ID000027">
				<g transform="translate(949.011,538.545)">
					<g transform="rotate(-0.0)">
						<text transform="matrix(1.0135 0 0 1 -727.0485 -303.202)" class="st0 st1 st2">G</text>
					</g>
				</g>
			</g>
			<g id="ID000028">
				<g transform="translate(883.663,669.240)">
					<g transform="rotate(-0.0)">
						<text transform="matrix(1.0135 0 0 1 -694.2015 -369.2993)" class="st3 st1 st2">A</text>
					</g>
				</g>
			</g>
			<g id="ID000029">
				<g transform="translate(883.663,701.914)">
					<g transform="rotate(-0.0)">
						<text transform="matrix(1.0135 0 0 1 -694.4368 -385.8239)" class="st3 st1 st2">G</text>
					</g>
				</g>
			</g>
			<g id="ID000030">
				<line class="st4" x1="218.7" y1="312.3" x2="199.1" y2="312.3"/>
			</g>
			<g id="ID000031">
				<line class="st4" x1="218.7" y1="296.2" x2="199.1" y2="296.2"/>
			</g>
			<g id="ID000032">
				<polyline class="st4" points="218.7,247.7 208.9,247.7 208.9,187.2 218.7,187.2 				"/>
			</g>
			<g id="ID000033">
				<polygon class="st7" points="208.9,214.2 208.7,214.2 208.5,214.3 208.3,214.3 208.1,214.3 207.9,214.4 207.7,214.5 
					207.5,214.5 207.3,214.6 207.1,214.7 207,214.9 206.8,215 206.6,215.1 206.5,215.3 206.4,215.4 206.2,215.6 206.1,215.8 
					206,215.9 205.9,216.1 205.8,216.3 205.8,216.5 205.7,216.7 205.7,216.9 205.7,217.1 205.6,217.3 205.6,217.5 205.6,217.7 
					205.7,217.9 205.7,218.1 205.7,218.3 205.8,218.5 205.9,218.7 206,218.9 206.1,219.1 206.2,219.2 206.3,219.4 206.4,219.6 
					206.6,219.7 206.7,219.9 206.9,220 207,220.1 207.2,220.2 207.4,220.3 207.6,220.4 207.8,220.5 208,220.6 208.2,220.6 
					208.4,220.6 208.6,220.7 208.8,220.7 209,220.7 209.2,220.7 209.4,220.6 209.6,220.6 209.8,220.6 210,220.5 210.2,220.4 
					210.4,220.3 210.6,220.2 210.8,220.1 210.9,220 211.1,219.9 211.2,219.7 211.4,219.6 211.5,219.4 211.6,219.2 211.7,219.1 
					211.8,218.9 211.9,218.7 212,218.5 212.1,218.3 212.1,218.1 212.1,217.9 212.2,217.7 212.2,217.5 212.2,217.3 212.2,217.1 
					212.1,216.9 212.1,216.7 212,216.5 212,216.3 211.9,216.1 211.8,215.9 211.7,215.8 211.6,215.6 211.4,215.4 211.3,215.3 
					211.2,215.1 211,215 210.8,214.9 210.7,214.7 210.5,214.6 210.3,214.5 210.1,214.5 209.9,214.4 209.7,214.3 209.5,214.3 
					209.3,214.3 209.1,214.2 				"/>
			</g>
			<g id="ID000034">
				<polyline class="st4" points="218.7,231.5 167.8,230.7 168,80.6 				"/>
			</g>
			<g id="ID000035">
				<polygon class="st7" points="167.9,164.1 171.6,157.8 164.2,157.8 				"/>
			</g>
			<g id="ID000036">
				<polygon class="st7" points="167.9,148.2 167.7,148.2 167.5,148.3 167.3,148.3 167.1,148.3 166.9,148.4 166.7,148.5 
					166.5,148.5 166.3,148.6 166.1,148.7 166,148.9 165.8,149 165.6,149.1 165.5,149.3 165.4,149.4 165.2,149.6 165.1,149.8 
					165,149.9 164.9,150.1 164.8,150.3 164.8,150.5 164.7,150.7 164.7,150.9 164.6,151.1 164.6,151.3 164.6,151.5 164.6,151.7 
					164.7,151.9 164.7,152.1 164.7,152.3 164.8,152.5 164.9,152.7 165,152.9 165.1,153.1 165.2,153.2 165.3,153.4 165.4,153.6 
					165.6,153.7 165.7,153.9 165.9,154 166,154.1 166.2,154.2 166.4,154.3 166.6,154.4 166.8,154.5 167,154.6 167.2,154.6 
					167.4,154.7 167.6,154.7 167.8,154.7 168,154.7 168.2,154.7 168.4,154.7 168.6,154.6 168.8,154.6 169,154.5 169.2,154.4 
					169.4,154.3 169.6,154.2 169.8,154.1 169.9,154 170.1,153.9 170.2,153.7 170.4,153.6 170.5,153.4 170.6,153.3 170.7,153.1 
					170.8,152.9 170.9,152.7 171,152.5 171.1,152.3 171.1,152.1 171.1,151.9 171.2,151.7 171.2,151.5 171.2,151.3 171.2,151.1 
					171.1,150.9 171.1,150.7 171,150.5 171,150.3 170.9,150.1 170.8,149.9 170.7,149.8 170.6,149.6 170.4,149.4 170.3,149.3 
					170.2,149.1 170,149 169.8,148.9 169.7,148.7 169.5,148.6 169.3,148.5 169.1,148.5 168.9,148.4 168.7,148.3 168.5,148.3 
					168.3,148.3 168.1,148.2 				"/>
			</g>
			<g id="ID000037">
				<line class="st4" x1="192.5" y1="177.5" x2="192.5" y2="289.7"/>
			</g>
			<g id="ID000038">
				<polygon class="st6" points="197.4,228.2 195,230.9 194.2,233.6 193.8,236.3 192.5,241.7 191.3,236.3 190.9,233.6 190.1,230.9 
					187.6,228.2 				"/>
			</g>
			<g id="ID000039">
			</g>
			<g id="ID000040">
				<g transform="translate(949.011,514.039)">
					<g transform="rotate(-0.0)">
						<text transform="matrix(1.0135 0 0 1 -726.8112 -290.8093)" class="st0 st1 st2">A</text>
					</g>
				</g>
			</g>
			<g id="ID000041">
				<line class="st4" x1="236.2" y1="219.5" x2="247.1" y2="219.5"/>
			</g>
			<g id="ID000042">
				<g transform="translate(992.576,514.039)">
					<g transform="rotate(-0.0)">
						<text transform="matrix(1.0135 0 0 1 -745.4767 -290.8093)" class="st5 st2">20</text>
					</g>
				</g>
			</g>
			<g id="ID000043">
				<g transform="translate(949.011,481.365)">
					<g transform="rotate(-0.0)">
						<text transform="matrix(1.0135 0 0 1 -727.0485 -274.2856)" class="st0 st1 st2">G</text>
					</g>
				</g>
			</g>
			<g id="ID000044">
				<g transform="translate(949.011,448.692)">
					<g transform="rotate(-0.0)">
						<text transform="matrix(1.0135 0 0 1 -726.8112 -257.7606)" class="st0 st1 st2">U</text>
					</g>
				</g>
			</g>
			<g id="ID000045">
				<g transform="translate(949.011,416.018)">
					<g transform="rotate(-0.0)">
						<text transform="matrix(1.0135 0 0 1 -727.0485 -241.236)" class="st3 st1 st2">G</text>
					</g>
				</g>
			</g>
			<g id="ID000046">
				<g transform="translate(949.011,383.344)">
					<g transform="rotate(-0.0)">
						<text transform="matrix(1.0135 0 0 1 -726.8112 -224.7119)" class="st3 st1 st2">C</text>
					</g>
				</g>
			</g>
			<g id="ID000047">
				<g transform="translate(949.011,350.670)">
					<g transform="rotate(-0.0)">
						<text transform="matrix(1.0135 0 0 1 -726.8112 -208.1873)" class="st3 st1 st2">A</text>
					</g>
				</g>
			</g>
			<g id="ID000048">
				<g transform="translate(949.011,317.996)">
					<g transform="rotate(-0.0)">
						<text transform="matrix(1.0135 0 0 1 -727.0485 -191.6623)" class="st3 st1 st2">G</text>
					</g>
				</g>
			</g>
			<g id="ID000049">
				<g transform="translate(965.348,285.322)">
					<g transform="rotate(-0.0)">
						<text transform="matrix(1.0135 0 0 1 -734.9626 -175.1377)" class="st0 st1 st2">A</text>
					</g>
				</g>
			</g>
			<g id="ID000050">
				<g transform="translate(981.685,252.648)">
					<g transform="rotate(-0.0)">
						<text transform="matrix(1.0135 0 0 1 -743.3524 -158.6141)" class="st0 st1 st2">G</text>
					</g>
				</g>
			</g>
			<g id="ID000051">
				<g transform="translate(998.022,219.974)">
					<g transform="rotate(-0.0)">
						<text transform="matrix(1.0135 0 0 1 -751.2704 -142.089)" class="st0 st1 st2">U</text>
					</g>
				</g>
			</g>
			<g id="ID000052">
				<g transform="translate(998.022,187.300)">
					<g transform="rotate(-0.0)">
						<text transform="matrix(1.0135 0 0 1 -751.2704 -125.5644)" class="st0 st1 st2">U</text>
					</g>
				</g>
			</g>
			<g id="ID000053">
				<line class="st4" x1="260.7" y1="58" x2="271.7" y2="58"/>
			</g>
			<g id="ID000054">
				<g transform="translate(1041.587,187.300)">
					<g transform="rotate(-0.0)">
						<text transform="matrix(1.0135 0 0 1 -769.936 -125.5644)" class="st5 st2">30</text>
					</g>
				</g>
			</g>
			<g id="ID000055">
				<g transform="translate(981.685,154.626)">
					<g transform="rotate(-0.0)">
						<text transform="matrix(1.0135 0 0 1 -743.117 -109.0418)" class="st0 st1 st2">A</text>
					</g>
				</g>
			</g>
			<g id="ID000056">
				<g transform="translate(973.516,121.952)">
					<g transform="rotate(-0.0)">
						<text transform="matrix(1.0135 0 0 1 -739.0408 -92.5167)" class="st0 st1 st2">C</text>
					</g>
				</g>
			</g>
			<g id="ID000057">
				<g transform="translate(932.674,97.447)">
					<g transform="rotate(-0.0)">
						<text transform="matrix(1.0135 0 0 1 -718.6588 -80.123)" class="st0 st1 st2">U</text>
					</g>
				</g>
			</g>
			<g id="ID000058">
				<g transform="translate(900.000,97.447)">
					<g transform="rotate(-0.0)">
						<text transform="matrix(1.0135 0 0 1 -702.3529 -80.123)" class="st0 st1 st2">U</text>
					</g>
				</g>
			</g>
			<g id="ID000059">
				<g transform="translate(859.158,121.952)">
					<g transform="rotate(-0.0)">
						<text transform="matrix(1.0135 0 0 1 -681.9714 -92.5167)" class="st0 st1 st2">A</text>
					</g>
				</g>
			</g>
			<g id="ID000060">
				<g transform="translate(850.989,154.626)">
					<g transform="rotate(-0.0)">
						<text transform="matrix(1.0135 0 0 1 -678.1305 -109.0418)" class="st0 st1 st2">G</text>
					</g>
				</g>
			</g>
			<g id="ID000061">
				<g transform="translate(834.652,187.300)">
					<g transform="rotate(-0.0)">
						<text transform="matrix(1.0135 0 0 1 -669.7412 -125.5644)" class="st0 st1 st2">U</text>
					</g>
				</g>
			</g>
			<g id="ID000062">
				<g transform="translate(834.652,219.974)">
					<g transform="rotate(-0.0)">
						<text transform="matrix(1.0135 0 0 1 -669.7412 -142.089)" class="st0 st1 st2">U</text>
					</g>
				</g>
			</g>
			<g id="ID000063">
				<g transform="translate(850.989,252.648)">
					<g transform="rotate(-0.0)">
						<text transform="matrix(1.0135 0 0 1 -677.8951 -158.6141)" class="st0 st1 st2">C</text>
					</g>
				</g>
			</g>
			<g id="ID000064">
				<g transform="translate(867.326,285.322)">
					<g transform="rotate(-0.0)">
						<text transform="matrix(1.0135 0 0 1 -686.0475 -175.1377)" class="st0 st1 st2">A</text>
					</g>
				</g>
			</g>
			<g id="ID000065">
				<line class="st4" x1="173.4" y1="106.4" x2="162.5" y2="106.4"/>
			</g>
			<g id="ID000066">
				<g transform="translate(823.761,285.322)">
					<g transform="rotate(-0.0)">
						<text transform="matrix(1.0135 0 0 1 -670.7037 -175.1377)" class="st5 st2">40</text>
					</g>
				</g>
			</g>
			<g id="ID000067">
				<g transform="translate(883.663,317.996)">
					<g transform="rotate(-0.0)">
						<text transform="matrix(1.0135 0 0 1 -694.2015 -191.6623)" class="st3 st1 st2">C</text>
					</g>
				</g>
			</g>
			<g id="ID000068">
				<g transform="translate(883.663,350.670)">
					<g transform="rotate(-0.0)">
						<text transform="matrix(1.0135 0 0 1 -694.2015 -208.1873)" class="st3 st1 st2">U</text>
					</g>
				</g>
			</g>
			<g id="ID000069">
				<g transform="translate(883.663,383.344)">
					<g transform="rotate(-0.0)">
						<text transform="matrix(1.0135 0 0 1 -694.4368 -224.7119)" class="st3 st1 st2">G</text>
					</g>
				</g>
			</g>
			<g id="ID000070">
				<g transform="translate(883.663,416.018)">
					<g transform="rotate(-0.0)">
						<text transform="matrix(1.0135 0 0 1 -694.2015 -241.236)" class="st3 st1 st2">C</text>
					</g>
				</g>
			</g>
			<g id="ID000071">
				<line class="st4" x1="218.7" y1="171" x2="199.1" y2="171"/>
			</g>
			<g id="ID000072">
				<line class="st4" x1="218.7" y1="154.9" x2="199.1" y2="154.9"/>
			</g>
			<g id="ID000073">
				<line class="st4" x1="218.7" y1="138.7" x2="199.1" y2="138.7"/>
			</g>
			<g id="ID000074">
				<line class="st4" x1="218.7" y1="122.6" x2="199.1" y2="122.6"/>
			</g>
			<g id="ID000075">
				<line class="st4" x1="235.1" y1="90.3" x2="182.7" y2="90.3"/>
			</g>
			<g id="ID000076">
				<polygon class="st6" points="205.6,90.3 205.6,90.5 205.7,90.7 205.7,90.9 205.7,91.1 205.8,91.3 205.9,91.5 205.9,91.7 
					206,91.9 206.2,92 206.3,92.2 206.4,92.4 206.5,92.5 206.7,92.7 206.8,92.8 207,92.9 207.2,93 207.4,93.1 207.5,93.2 
					207.7,93.3 207.9,93.4 208.1,93.4 208.3,93.5 208.5,93.5 208.7,93.5 209,93.5 209.2,93.5 209.4,93.5 209.6,93.4 209.8,93.4 
					210,93.3 210.2,93.3 210.4,93.2 210.5,93.1 210.7,93 210.9,92.8 211,92.7 211.2,92.6 211.3,92.4 211.5,92.3 211.6,92.1 
					211.7,91.9 211.8,91.8 211.9,91.6 212,91.4 212,91.2 212.1,91 212.1,90.8 212.2,90.6 212.2,90.4 212.2,90.2 212.2,90 
					212.1,89.8 212.1,89.6 212,89.4 212,89.2 211.9,89 211.8,88.8 211.7,88.6 211.6,88.4 211.5,88.3 211.3,88.1 211.2,88 211,87.8 
					210.9,87.7 210.7,87.6 210.5,87.5 210.4,87.4 210.2,87.3 210,87.2 209.8,87.2 209.6,87.1 209.4,87.1 209.2,87.1 209,87 
					208.7,87.1 208.5,87.1 208.3,87.1 208.1,87.1 207.9,87.2 207.7,87.3 207.5,87.3 207.4,87.4 207.2,87.5 207,87.6 206.8,87.8 
					206.7,87.9 206.5,88.1 206.4,88.2 206.3,88.4 206.2,88.5 206,88.7 205.9,88.9 205.9,89.1 205.8,89.3 205.7,89.5 205.7,89.7 
					205.7,89.9 205.6,90.1 				"/>
			</g>
			<g id="ID000077">
				<line class="st4" x1="235.3" y1="92.1" x2="190.6" y2="104.7"/>
			</g>
			<g id="ID000078">
				<polygon class="st7" points="221.2,96 214,94.3 216.1,101.3 				"/>
			</g>
			<g id="ID000079">
				<polygon class="st7" points="206.7,103.5 213,101.7 211.2,95.5 204.9,97.3 				"/>
			</g>
			<g id="ID000080">
				<line class="st4" x1="243.9" y1="55.2" x2="186.2" y2="28.4"/>
			</g>
			<g id="ID000081">
				<polygon class="st6" points="212.1,40.5 212,40.6 211.9,40.8 211.9,41 211.8,41.2 211.8,41.4 211.8,41.6 211.8,41.8 211.8,42.1 
					211.8,42.3 211.8,42.5 211.9,42.7 211.9,42.9 212,43 212.1,43.2 212.2,43.4 212.3,43.6 212.4,43.8 212.5,43.9 212.7,44.1 
					212.8,44.2 213,44.3 213.2,44.5 213.3,44.6 213.5,44.7 213.7,44.8 213.9,44.9 214.1,44.9 214.3,45 214.5,45 214.7,45 
					214.9,45.1 215.1,45.1 215.3,45 215.5,45 215.7,45 215.9,44.9 216.1,44.9 216.3,44.8 216.5,44.7 216.7,44.6 216.9,44.5 
					217,44.4 217.2,44.3 217.4,44.1 217.5,44 217.6,43.8 217.7,43.7 217.9,43.5 218,43.3 218,43.1 218.1,42.9 218.2,42.7 
					218.2,42.5 218.3,42.3 218.3,42.1 218.3,41.9 218.3,41.7 218.3,41.5 218.3,41.3 218.2,41.1 218.2,40.9 218.1,40.7 218,40.5 
					217.9,40.3 217.8,40.2 217.7,40 217.6,39.8 217.5,39.7 217.3,39.5 217.2,39.4 217,39.3 216.8,39.1 216.7,39 216.5,38.9 
					216.3,38.8 216.1,38.8 215.9,38.7 215.7,38.7 215.5,38.6 215.3,38.6 215.1,38.6 214.9,38.6 214.7,38.6 214.5,38.7 214.3,38.7 
					214.1,38.8 213.9,38.8 213.7,38.9 213.5,39 213.3,39.1 213.1,39.2 213,39.3 212.8,39.5 212.7,39.6 212.5,39.8 212.4,39.9 
					212.3,40.1 212.2,40.3 				"/>
			</g>
			<g id="ID000082">
				<line class="st4" x1="236.4" y1="45.7" x2="181.4" y2="86.4"/>
			</g>
			<g id="ID000083">
				<polygon class="st6" points="214.9,61.6 214.8,61.4 214.7,61.3 214.5,61.1 214.4,61 214.2,60.9 214,60.8 213.8,60.7 213.6,60.6 
					213.5,60.5 213.3,60.4 213.1,60.4 212.8,60.4 212.6,60.3 212.4,60.3 212.2,60.3 212,60.3 211.8,60.3 211.6,60.4 211.4,60.4 
					211.2,60.5 211,60.6 210.8,60.7 210.6,60.8 210.5,60.9 210.3,61 210.1,61.1 210,61.3 209.9,61.4 209.7,61.6 209.6,61.7 
					209.5,61.9 209.4,62.1 209.3,62.3 209.2,62.5 209.2,62.7 209.1,62.9 209.1,63.1 209,63.3 209,63.5 209,63.7 209.1,63.9 
					209.1,64.1 209.1,64.3 209.2,64.5 209.2,64.7 209.3,64.9 209.4,65 209.5,65.2 209.6,65.4 209.8,65.6 209.9,65.7 210,65.9 
					210.2,66 210.4,66.1 210.5,66.2 210.7,66.3 210.9,66.4 211.1,66.5 211.3,66.6 211.5,66.7 211.7,66.7 211.9,66.7 212.1,66.8 
					212.3,66.8 212.5,66.8 212.7,66.7 212.9,66.7 213.1,66.7 213.3,66.6 213.5,66.5 213.7,66.5 213.9,66.4 214.1,66.3 214.2,66.2 
					214.4,66 214.6,65.9 214.7,65.7 214.8,65.6 215,65.4 215.1,65.3 215.2,65.1 215.3,64.9 215.4,64.7 215.4,64.5 215.5,64.3 
					215.5,64.1 215.6,63.9 215.6,63.7 215.6,63.5 215.6,63.3 215.6,63.1 215.5,62.9 215.5,62.7 215.4,62.5 215.3,62.3 215.3,62.1 
					215.2,61.9 215,61.8 				"/>
			</g>
			<g id="ID000084">
				<polygon class="st6" points="202.1,71.1 209.4,70.2 205,64.4 				"/>
			</g>
			<g id="ID000085">
				<line class="st4" x1="231.2" y1="27.3" x2="182.5" y2="40.2"/>
			</g>
			<g id="ID000086">
				<polygon class="st6" points="203.7,34.6 203.8,34.8 203.8,35 203.9,35.2 204,35.3 204.1,35.5 204.2,35.7 204.4,35.8 204.5,36 
					204.7,36.1 204.8,36.3 205,36.4 205.2,36.5 205.3,36.6 205.5,36.7 205.7,36.8 205.9,36.8 206.1,36.9 206.3,36.9 206.5,37 
					206.7,37 206.9,37 207.1,37 207.3,37 207.6,36.9 207.8,36.9 208,36.8 208.1,36.7 208.3,36.6 208.5,36.5 208.7,36.4 208.9,36.3 
					209,36.2 209.2,36 209.3,35.9 209.4,35.7 209.6,35.6 209.7,35.4 209.8,35.2 209.9,35 209.9,34.8 210,34.6 210.1,34.4 
					210.1,34.2 210.1,34 210.1,33.8 210.1,33.6 210.1,33.4 210.1,33.2 210,33 210,32.8 209.9,32.6 209.8,32.4 209.8,32.3 
					209.7,32.1 209.5,31.9 209.4,31.7 209.3,31.6 209.1,31.4 209,31.3 208.8,31.2 208.7,31.1 208.5,30.9 208.3,30.9 208.1,30.8 
					207.9,30.7 207.7,30.6 207.5,30.6 207.3,30.6 207.1,30.5 206.9,30.5 206.7,30.5 206.5,30.5 206.3,30.6 206.1,30.6 205.9,30.7 
					205.7,30.7 205.5,30.8 205.3,30.9 205.1,31 204.9,31.1 204.8,31.3 204.6,31.4 204.5,31.5 204.3,31.7 204.2,31.9 204.1,32 
					204,32.2 203.9,32.4 203.8,32.6 203.7,32.8 203.7,33 203.6,33.2 203.6,33.4 203.6,33.6 203.6,33.8 203.6,34 203.6,34.2 
					203.6,34.4 				"/>
			</g>
			<g id="ID000087">
				<polyline class="st4" points="213.5,18.9 208.9,25.7 186.8,25.7 				"/>
			</g>
			<g id="ID000088">
				<polygon class="st6" points="205.4,25.7 205.4,25.5 205.4,25.3 205.3,25.1 205.3,24.9 205.2,24.7 205.2,24.5 205.1,24.3 
					205,24.1 204.9,23.9 204.7,23.8 204.6,23.6 204.5,23.5 204.3,23.3 204.2,23.2 204,23.1 203.8,22.9 203.7,22.8 203.5,22.7 
					203.3,22.7 203.1,22.6 202.9,22.5 202.7,22.5 202.5,22.5 202.3,22.5 202.1,22.5 201.9,22.5 201.6,22.5 201.4,22.5 201.2,22.6 
					201,22.6 200.8,22.7 200.7,22.8 200.5,22.9 200.3,23 200.1,23.1 200,23.2 199.8,23.4 199.7,23.5 199.5,23.7 199.4,23.9 
					199.3,24 199.2,24.2 199.1,24.4 199,24.6 199,24.8 198.9,25 198.9,25.2 198.9,25.4 198.8,25.6 198.8,25.8 198.9,26 198.9,26.2 
					198.9,26.4 199,26.6 199,26.8 199.1,27 199.2,27.2 199.3,27.3 199.4,27.5 199.5,27.7 199.7,27.8 199.8,28 200,28.1 200.1,28.3 
					200.3,28.4 200.5,28.5 200.7,28.6 200.8,28.7 201,28.7 201.2,28.8 201.4,28.8 201.6,28.9 201.9,28.9 202.1,28.9 202.3,28.9 
					202.5,28.9 202.7,28.9 202.9,28.8 203.1,28.8 203.3,28.7 203.5,28.6 203.7,28.5 203.8,28.4 204,28.3 204.2,28.2 204.3,28.1 
					204.5,27.9 204.6,27.8 204.7,27.6 204.9,27.4 205,27.3 205.1,27.1 205.2,26.9 205.2,26.7 205.3,26.5 205.3,26.3 205.4,26.1 
					205.4,25.9 				"/>
			</g>
			<g id="ID000089">
				<polygon class="st6" points="189.3,25.7 195.7,29.3 195.7,22 				"/>
			</g>
			<g id="ID000090">
			</g>
		</g>
	</g>
</g>
<text transform="matrix(1 0 0 1 19.7577 39.3609)" class="st8 st5 st9">Lys1.2minF</text>
</svg>
