<?xml version="1.0" encoding="utf-8"?>
<!-- Generator: Adobe Illustrator 25.2.0, SVG Export Plug-In . SVG Version: 6.00 Build 0)  -->
<svg version="1.1" id="图层_1" xmlns="http://www.w3.org/2000/svg" xmlns:xlink="http://www.w3.org/1999/xlink" x="0px" y="0px"
	 viewBox="0 0 400 400" style="enable-background:new 0 0 400 400;" xml:space="preserve">
<style type="text/css">
	.st0{fill:#BF00BF;}
	.st1{font-family:'Arial-BoldMT';}
	.st2{font-size:8.0199px;}
	.st3{fill:#228B22;}
	.st4{fill:none;stroke:#000000;stroke-miterlimit:10;}
	.st5{stroke:#000000;stroke-width:0.1111;stroke-miterlimit:10;}
	.st6{fill:#FFFFFF;stroke:#000000;stroke-miterlimit:10;}
	.st7{font-family:'ArialMT';}
	.st8{fill:#00AA26;}
	.st9{font-size:20px;}
	.st10{font-size:9.8226px;}
	.st11{fill:none;}
</style>
<g id="topgroup">
	<g id="ID000000">
		<g>
			<g id="ID000002">
				<g transform="translate(923.378,883.210)">
					<g transform="rotate(-0.0)">
						<text transform="matrix(1.0984 0 0 1 -710.8438 -487.8233)" class="st0 st1 st2">G</text>
					</g>
				</g>
			</g>
			<g id="ID000003">
				<g transform="translate(923.378,857.707)">
					<g transform="rotate(-0.0)">
						<text transform="matrix(1.0984 0 0 1 -710.8438 -474.3515)" class="st0 st1 st2">G</text>
					</g>
				</g>
			</g>
			<g id="ID000004">
				<g transform="translate(923.378,832.203)">
					<g transform="rotate(-0.0)">
						<text transform="matrix(1.0984 0 0 1 -710.8438 -460.8788)" class="st0 st1 st2">G</text>
					</g>
				</g>
			</g>
			<g id="ID000005">
				<g transform="translate(923.378,806.700)">
					<g transform="rotate(-0.0)">
						<text transform="matrix(1.0984 0 0 1 -710.5997 -447.407)" class="st0 st1 st2">U</text>
					</g>
				</g>
			</g>
			<g id="ID000006">
				<g transform="translate(923.378,781.197)">
					<g transform="rotate(-0.0)">
						<text transform="matrix(1.0984 0 0 1 -710.5997 -433.9353)" class="st0 st1 st2">U</text>
					</g>
				</g>
			</g>
			<g id="ID000007">
				<g transform="translate(923.378,755.693)">
					<g transform="rotate(-0.0)">
						<text transform="matrix(1.0984 0 0 1 -710.5997 -420.4625)" class="st0 st1 st2">C</text>
					</g>
				</g>
			</g>
			<g id="ID000008">
				<g transform="translate(923.378,730.190)">
					<g transform="rotate(-0.0)">
						<text transform="matrix(1.0984 0 0 1 -710.5997 -406.9898)" class="st3 st1 st2">A</text>
					</g>
				</g>
			</g>
			<g id="ID000009">
				<g transform="translate(872.371,730.190)">
					<g transform="rotate(-0.0)">
						<text transform="matrix(1.0984 0 0 1 -686.0233 -406.9898)" class="st3 st1 st2">C</text>
					</g>
				</g>
			</g>
			<g id="ID000010">
				<g transform="translate(872.371,755.693)">
					<g transform="rotate(-0.0)">
						<text transform="matrix(1.0984 0 0 1 -686.2694 -420.4625)" class="st0 st1 st2">G</text>
					</g>
				</g>
			</g>
			<g id="ID000011">
				<g transform="translate(872.371,781.197)">
					<g transform="rotate(-0.0)">
						<text transform="matrix(1.0984 0 0 1 -686.0233 -433.9353)" class="st0 st1 st2">A</text>
					</g>
				</g>
			</g>
			<g id="ID000012">
				<g transform="translate(872.371,806.700)">
					<g transform="rotate(-0.0)">
						<text transform="matrix(1.0984 0 0 1 -686.0233 -447.407)" class="st0 st1 st2">A</text>
					</g>
				</g>
			</g>
			<g id="ID000013">
				<g transform="translate(872.371,832.203)">
					<g transform="rotate(-0.0)">
						<text transform="matrix(1.0984 0 0 1 -686.0233 -460.8788)" class="st0 st1 st2">C</text>
					</g>
				</g>
			</g>
			<g id="ID000014">
				<g transform="translate(872.371,857.707)">
					<g transform="rotate(-0.0)">
						<text transform="matrix(1.0984 0 0 1 -686.0233 -474.3515)" class="st0 st1 st2">C</text>
					</g>
				</g>
			</g>
			<g id="ID000015">
				<g transform="translate(872.371,883.210)">
					<g transform="rotate(-0.0)">
						<text transform="matrix(1.0984 0 0 1 -686.0233 -487.8233)" class="st0 st1 st2">C</text>
					</g>
				</g>
			</g>
			<g id="ID000016">
				<line class="st4" x1="210.7" y1="391.8" x2="194.8" y2="391.8"/>
			</g>
			<g id="ID000017">
				<line class="st4" x1="210.7" y1="379.8" x2="194.8" y2="379.8"/>
			</g>
			<g id="ID000018">
				<line class="st4" x1="210.7" y1="367.7" x2="194.8" y2="367.7"/>
			</g>
			<g id="ID000019">
				<line class="st4" x1="210.7" y1="355.7" x2="194.8" y2="355.7"/>
			</g>
			<g id="ID000020">
				<line class="st4" x1="210.7" y1="343.7" x2="194.8" y2="343.7"/>
			</g>
			<g id="ID000021">
				<line class="st4" x1="210.7" y1="331.6" x2="194.8" y2="331.6"/>
			</g>
			<g id="ID000022">
				<line class="st4" x1="210.7" y1="319.6" x2="194.8" y2="319.6"/>
			</g>
			<g id="ID000023">
				<polygon class="st5" points="200.1,319.6 200.1,319.8 200.1,319.9 200.1,320 200.2,320.2 200.3,320.4 200.3,320.5 200.4,320.6 
					200.4,320.8 200.5,320.9 200.6,321 200.7,321.2 200.8,321.3 201,321.4 201.1,321.5 201.2,321.6 201.3,321.7 201.5,321.7 
					201.7,321.8 201.8,321.9 202,321.9 202.1,322 202.3,322 202.5,322 202.6,322 202.8,322 202.9,322 203.1,322 203.3,322 
					203.4,321.9 203.6,321.9 203.8,321.8 203.9,321.8 204.1,321.7 204.2,321.6 204.4,321.5 204.5,321.4 204.6,321.3 204.7,321.2 
					204.8,321.1 204.9,321 205,320.8 205.1,320.7 205.2,320.6 205.2,320.4 205.3,320.3 205.3,320.1 205.4,320 205.4,319.9 
					205.4,319.7 205.4,319.6 205.4,319.4 205.4,319.2 205.3,319.1 205.3,318.9 205.2,318.8 205.2,318.7 205.1,318.5 205,318.4 
					204.9,318.2 204.8,318.1 204.7,318 204.6,317.9 204.5,317.8 204.4,317.7 204.2,317.6 204.1,317.5 203.9,317.4 203.8,317.4 
					203.6,317.3 203.4,317.3 203.3,317.2 203.1,317.2 202.9,317.2 202.8,317.2 202.6,317.2 202.5,317.2 202.3,317.2 202.1,317.3 
					202,317.3 201.8,317.3 201.7,317.4 201.5,317.5 201.3,317.6 201.2,317.6 201.1,317.7 201,317.8 200.8,317.9 200.7,318.1 
					200.6,318.2 200.5,318.3 200.4,318.4 200.4,318.6 200.3,318.7 200.3,318.9 200.2,319 200.1,319.2 200.1,319.3 200.1,319.5 				
					"/>
			</g>
			<g id="ID000024">
			</g>
			<g id="ID000025">
				<g transform="translate(925.503,549.541)">
					<g transform="rotate(-0.0)">
						<text transform="matrix(1.0984 0 0 1 -711.6251 -311.5654)" class="st0 st1 st2">C</text>
					</g>
				</g>
			</g>
			<g id="ID000026">
				<g transform="translate(925.503,524.037)">
					<g transform="rotate(-0.0)">
						<text transform="matrix(1.0984 0 0 1 -711.6251 -298.0946)" class="st0 st1 st2">U</text>
					</g>
				</g>
			</g>
			<g id="ID000027">
				<g transform="translate(925.503,498.534)">
					<g transform="rotate(-0.0)">
						<text transform="matrix(1.0984 0 0 1 -711.6251 -284.6219)" class="st3 st1 st2">A</text>
					</g>
				</g>
			</g>
			<g id="ID000028">
				<g transform="translate(925.503,473.031)">
					<g transform="rotate(-0.0)">
						<text transform="matrix(1.0984 0 0 1 -711.6251 -271.1501)" class="st3 st1 st2">A</text>
					</g>
				</g>
			</g>
			<g id="ID000029">
				<g transform="translate(925.503,447.527)">
					<g transform="rotate(-0.0)">
						<text transform="matrix(1.0984 0 0 1 -711.6251 -257.6759)" class="st3 st1 st2">A</text>
					</g>
				</g>
			</g>
			<g id="ID000030">
				<g transform="translate(925.503,428.400)">
					<g transform="rotate(-0.0)">
						<text transform="matrix(1.0984 0 0 1 -711.8702 -247.5748)" class="st3 st1 st2">G</text>
					</g>
				</g>
			</g>
			<g id="ID000031">
				<g transform="translate(874.497,524.037)">
					<g transform="rotate(-0.0)">
						<text transform="matrix(1.0984 0 0 1 -687.0483 -298.0946)" class="st0 st1 st2">A</text>
					</g>
				</g>
			</g>
			<g id="ID000032">
				<g transform="translate(874.497,549.541)">
					<g transform="rotate(-0.0)">
						<text transform="matrix(1.0984 0 0 1 -687.2949 -311.5654)" class="st0 st1 st2">G</text>
					</g>
				</g>
			</g>
			<g id="ID000033">
				<line class="st4" x1="211.8" y1="234.4" x2="195.9" y2="234.4"/>
			</g>
			<g id="ID000034">
				<line class="st4" x1="211.8" y1="222.4" x2="195.9" y2="222.4"/>
			</g>
			<g id="ID000035">
				<polyline class="st4" points="211.8,186.3 200.5,186.3 200.5,168.2 200.5,144.2 211.8,144.2 				"/>
			</g>
			<g id="ID000036">
				<polygon class="st6" points="200.5,174.8 200.4,174.8 200.2,174.9 200,174.9 199.9,174.9 199.7,175 199.5,175 199.4,175.1 
					199.3,175.2 199.1,175.2 199,175.3 198.8,175.4 198.7,175.5 198.6,175.6 198.5,175.7 198.4,175.9 198.3,176 198.2,176.1 
					198.1,176.2 198.1,176.4 198,176.5 198,176.7 197.9,176.8 197.9,177 197.9,177.1 197.9,177.3 197.9,177.4 197.9,177.6 
					197.9,177.7 198,177.9 198,178 198.1,178.2 198.1,178.3 198.3,178.5 198.4,178.6 198.4,178.7 198.5,178.8 198.6,178.9 
					198.8,179 198.9,179.1 199.1,179.2 199.2,179.3 199.3,179.4 199.5,179.4 199.7,179.5 199.8,179.5 200,179.6 200.1,179.6 
					200.3,179.6 200.5,179.6 200.6,179.6 200.8,179.6 201,179.6 201.1,179.6 201.3,179.5 201.4,179.5 201.6,179.4 201.8,179.4 
					201.9,179.3 202,179.2 202.2,179.1 202.3,179 202.4,178.9 202.5,178.8 202.6,178.7 202.7,178.6 202.8,178.5 202.9,178.3 
					203,178.2 203.1,178 203.1,177.9 203.1,177.7 203.2,177.6 203.2,177.4 203.2,177.3 203.2,177.1 203.2,177 203.2,176.8 
					203.1,176.7 203.1,176.5 203,176.4 202.9,176.2 202.9,176.1 202.8,176 202.7,175.9 202.6,175.7 202.5,175.6 202.4,175.5 
					202.2,175.4 202.1,175.3 202,175.2 201.8,175.2 201.7,175.1 201.5,175 201.4,175 201.2,174.9 201.1,174.9 200.9,174.9 
					200.7,174.8 				"/>
			</g>
			<g id="ID000037">
				<polyline class="st4" points="211.8,177.2 170.8,177.2 170.8,58.7 				"/>
			</g>
			<g id="ID000038">
				<polygon class="st6" points="170.8,124.2 173.8,119.6 167.8,119.6 				"/>
			</g>
			<g id="ID000039">
				<polygon class="st6" points="170.8,112.4 170.6,112.4 170.5,112.5 170.3,112.5 170.1,112.5 170,112.6 169.8,112.6 169.7,112.7 
					169.5,112.7 169.4,112.8 169.2,112.9 169.1,113 169,113.1 168.9,113.2 168.7,113.3 168.6,113.5 168.6,113.6 168.5,113.7 
					168.4,113.9 168.3,114 168.3,114.2 168.3,114.3 168.2,114.5 168.2,114.6 168.2,114.8 168.2,114.9 168.2,115.1 168.2,115.2 
					168.2,115.3 168.3,115.5 168.3,115.6 168.4,115.8 168.4,115.9 168.5,116.1 168.6,116.2 168.7,116.3 168.8,116.4 168.9,116.5 
					169.1,116.7 169.2,116.8 169.3,116.8 169.4,116.9 169.6,117 169.8,117.1 169.9,117.1 170,117.2 170.2,117.2 170.4,117.3 
					170.6,117.3 170.7,117.3 170.9,117.3 171.1,117.3 171.2,117.3 171.4,117.2 171.6,117.2 171.7,117.1 171.9,117.1 172,117 
					172.1,116.9 172.3,116.8 172.4,116.8 172.6,116.7 172.7,116.5 172.8,116.4 172.9,116.3 173,116.2 173.1,116.1 173.2,115.9 
					173.2,115.8 173.3,115.6 173.3,115.5 173.4,115.3 173.4,115.2 173.4,115.1 173.4,114.9 173.4,114.8 173.4,114.6 173.4,114.5 
					173.4,114.3 173.3,114.2 173.3,114 173.2,113.9 173.1,113.7 173.1,113.6 173,113.5 172.8,113.3 172.7,113.2 172.6,113.1 
					172.5,113 172.4,112.9 172.3,112.8 172.1,112.7 171.9,112.7 171.8,112.6 171.6,112.6 171.4,112.5 171.3,112.5 171.1,112.5 
					171,112.4 				"/>
			</g>
			<g id="ID000040">
				<line class="st4" x1="190.6" y1="137" x2="190.6" y2="217.5"/>
			</g>
			<g id="ID000041">
				<polygon class="st5" points="194.6,173.2 192.6,175.2 191.9,177.2 191.6,179.2 190.6,183.3 189.6,179.2 189.3,177.2 
					188.7,175.2 186.7,173.2 				"/>
			</g>
			<g id="ID000042">
			</g>
			<g id="ID000043">
				<g transform="translate(925.503,409.272)">
					<g transform="rotate(-0.0)">
						<text transform="matrix(1.0984 0 0 1 -711.6251 -237.4698)" class="st3 st1 st2">A</text>
					</g>
				</g>
			</g>
			<g id="ID000044">
				<line class="st4" x1="225.9" y1="168.2" x2="234.7" y2="168.2"/>
			</g>
			<g id="ID000045">
				<g transform="translate(959.508,409.272)">
					<g transform="rotate(-0.0)">
						<text transform="matrix(1.0984 0 0 1 -724.8273 -237.4698)" class="st7 st2">20</text>
					</g>
				</g>
			</g>
			<g id="ID000046">
				<g transform="translate(925.503,383.769)">
					<g transform="rotate(-0.0)">
						<text transform="matrix(1.0984 0 0 1 -711.8702 -223.999)" class="st3 st1 st2">G</text>
					</g>
				</g>
			</g>
			<g id="ID000047">
				<g transform="translate(925.503,358.265)">
					<g transform="rotate(-0.0)">
						<text transform="matrix(1.0984 0 0 1 -711.6251 -210.5258)" class="st3 st1 st2">U</text>
					</g>
				</g>
			</g>
			<g id="ID000048">
				<g transform="translate(925.503,332.762)">
					<g transform="rotate(-0.0)">
						<text transform="matrix(1.0984 0 0 1 -711.8702 -197.0559)" class="st0 st1 st2">G</text>
					</g>
				</g>
			</g>
			<g id="ID000049">
				<g transform="translate(925.503,307.259)">
					<g transform="rotate(-0.0)">
						<text transform="matrix(1.0984 0 0 1 -711.6251 -183.5842)" class="st0 st1 st2">C</text>
					</g>
				</g>
			</g>
			<g id="ID000050">
				<g transform="translate(925.503,281.755)">
					<g transform="rotate(-0.0)">
						<text transform="matrix(1.0984 0 0 1 -711.6251 -170.111)" class="st0 st1 st2">A</text>
					</g>
				</g>
			</g>
			<g id="ID000051">
				<g transform="translate(925.503,256.252)">
					<g transform="rotate(-0.0)">
						<text transform="matrix(1.0984 0 0 1 -711.8702 -156.6392)" class="st0 st1 st2">G</text>
					</g>
				</g>
			</g>
			<g id="ID000052">
				<g transform="translate(938.255,230.748)">
					<g transform="rotate(-0.0)">
						<text transform="matrix(1.0984 0 0 1 -717.7697 -143.1674)" class="st3 st1 st2">A</text>
					</g>
				</g>
			</g>
			<g id="ID000053">
				<g transform="translate(951.007,198.869)">
					<g transform="rotate(-0.0)">
						<text transform="matrix(1.0984 0 0 1 -724.1574 -126.3275)" class="st3 st1 st2">G</text>
					</g>
				</g>
			</g>
			<g id="ID000054">
				<g transform="translate(963.758,166.990)">
					<g transform="rotate(-0.0)">
						<text transform="matrix(1.0984 0 0 1 -730.0568 -109.4876)" class="st3 st1 st2">U</text>
					</g>
				</g>
			</g>
			<g id="ID000055">
				<g transform="translate(963.758,141.487)">
					<g transform="rotate(-0.0)">
						<text transform="matrix(1.0984 0 0 1 -730.0568 -96.0163)" class="st3 st1 st2">U</text>
					</g>
				</g>
			</g>
			<g id="ID000056">
				<line class="st4" x1="245.7" y1="41.9" x2="254.5" y2="41.9"/>
			</g>
			<g id="ID000057">
				<g transform="translate(997.763,141.487)">
					<g transform="rotate(-0.0)">
						<text transform="matrix(1.0984 0 0 1 -743.261 -96.0163)" class="st7 st2">30</text>
					</g>
				</g>
			</g>
			<g id="ID000058">
				<g transform="translate(951.007,115.983)">
					<g transform="rotate(-0.0)">
						<text transform="matrix(1.0984 0 0 1 -723.9123 -82.5445)" class="st3 st1 st2">A</text>
					</g>
				</g>
			</g>
			<g id="ID000059">
				<g transform="translate(944.631,90.480)">
					<g transform="rotate(-0.0)">
						<text transform="matrix(1.0984 0 0 1 -720.8419 -69.0718)" class="st3 st1 st2">C</text>
					</g>
				</g>
			</g>
			<g id="ID000060">
				<g transform="translate(912.752,71.352)">
					<g transform="rotate(-0.0)">
						<text transform="matrix(1.0984 0 0 1 -705.4815 -58.9687)" class="st3 st1 st2">U</text>
					</g>
				</g>
			</g>
			<g id="ID000061">
				<g transform="translate(887.248,71.352)">
					<g transform="rotate(-0.0)">
						<text transform="matrix(1.0984 0 0 1 -693.1923 -58.9687)" class="st3 st1 st2">U</text>
					</g>
				</g>
			</g>
			<g id="ID000062">
				<g transform="translate(855.369,90.480)">
					<g transform="rotate(-0.0)">
						<text transform="matrix(1.0984 0 0 1 -677.8334 -69.0718)" class="st3 st1 st2">A</text>
					</g>
				</g>
			</g>
			<g id="ID000063">
				<g transform="translate(848.993,115.983)">
					<g transform="rotate(-0.0)">
						<text transform="matrix(1.0984 0 0 1 -675.0057 -82.5445)" class="st3 st1 st2">G</text>
					</g>
				</g>
			</g>
			<g id="ID000064">
				<g transform="translate(836.242,141.487)">
					<g transform="rotate(-0.0)">
						<text transform="matrix(1.0984 0 0 1 -668.6185 -96.0163)" class="st3 st1 st2">U</text>
					</g>
				</g>
			</g>
			<g id="ID000065">
				<g transform="translate(836.242,166.990)">
					<g transform="rotate(-0.0)">
						<text transform="matrix(1.0984 0 0 1 -668.6185 -109.4876)" class="st3 st1 st2">U</text>
					</g>
				</g>
			</g>
			<g id="ID000066">
				<g transform="translate(848.993,198.869)">
					<g transform="rotate(-0.0)">
						<text transform="matrix(1.0984 0 0 1 -674.7625 -126.3275)" class="st3 st1 st2">C</text>
					</g>
				</g>
			</g>
			<g id="ID000067">
				<g transform="translate(861.745,230.748)">
					<g transform="rotate(-0.0)">
						<text transform="matrix(1.0984 0 0 1 -680.9061 -143.1674)" class="st3 st1 st2">A</text>
					</g>
				</g>
			</g>
			<g id="ID000068">
				<line class="st4" x1="175.2" y1="84" x2="166.4" y2="84"/>
			</g>
			<g id="ID000069">
				<g transform="translate(827.740,230.748)">
					<g transform="rotate(-0.0)">
						<text transform="matrix(1.0984 0 0 1 -671.1389 -143.1674)" class="st7 st2">40</text>
					</g>
				</g>
			</g>
			<g id="ID000070">
				<g transform="translate(874.497,256.252)">
					<g transform="rotate(-0.0)">
						<text transform="matrix(1.0984 0 0 1 -687.0483 -156.6392)" class="st0 st1 st2">C</text>
					</g>
				</g>
			</g>
			<g id="ID000071">
				<g transform="translate(874.497,281.755)">
					<g transform="rotate(-0.0)">
						<text transform="matrix(1.0984 0 0 1 -687.0483 -170.111)" class="st0 st1 st2">U</text>
					</g>
				</g>
			</g>
			<g id="ID000072">
				<g transform="translate(874.497,307.259)">
					<g transform="rotate(-0.0)">
						<text transform="matrix(1.0984 0 0 1 -687.2949 -183.5842)" class="st0 st1 st2">G</text>
					</g>
				</g>
			</g>
			<g id="ID000073">
				<g transform="translate(874.497,332.762)">
					<g transform="rotate(-0.0)">
						<text transform="matrix(1.0984 0 0 1 -687.0483 -197.0559)" class="st0 st1 st2">C</text>
					</g>
				</g>
			</g>
			<g id="ID000074">
				<line class="st4" x1="211.8" y1="132.1" x2="195.9" y2="132.1"/>
			</g>
			<g id="ID000075">
				<line class="st4" x1="211.8" y1="120.1" x2="195.9" y2="120.1"/>
			</g>
			<g id="ID000076">
				<line class="st4" x1="211.8" y1="108.1" x2="195.9" y2="108.1"/>
			</g>
			<g id="ID000077">
				<line class="st4" x1="211.8" y1="96" x2="195.9" y2="96"/>
			</g>
			<g id="ID000078">
				<polyline class="st4" points="221.3,79.7 210.4,59.9 231.8,55.1 				"/>
			</g>
			<g id="ID000079">
				<polygon class="st5" points="215.2,58.9 215.2,59 215.3,59.2 215.4,59.3 215.5,59.4 215.5,59.6 215.6,59.7 215.7,59.8 
					215.8,59.9 215.9,60 216.1,60.1 216.2,60.2 216.4,60.3 216.5,60.4 216.7,60.4 216.8,60.5 217,60.6 217.1,60.6 217.3,60.6 
					217.5,60.7 217.6,60.7 217.8,60.7 217.9,60.7 218.1,60.6 218.3,60.6 218.4,60.6 218.6,60.5 218.8,60.5 218.9,60.4 219.1,60.4 
					219.2,60.3 219.3,60.2 219.5,60.1 219.6,60 219.7,59.9 219.8,59.8 219.9,59.7 220,59.5 220.1,59.4 220.2,59.3 220.3,59.1 
					220.3,59 220.3,58.8 220.4,58.7 220.4,58.5 220.4,58.4 220.4,58.2 220.4,58.1 220.4,57.9 220.4,57.8 220.3,57.6 220.3,57.5 
					220.2,57.3 220.2,57.2 220,57 219.9,56.9 219.9,56.8 219.8,56.7 219.6,56.6 219.5,56.5 219.4,56.4 219.2,56.3 219.1,56.2 
					219,56.1 218.8,56.1 218.6,56 218.5,56 218.3,55.9 218.2,55.9 218,55.9 217.8,55.9 217.7,55.9 217.5,55.9 217.4,55.9 
					217.2,55.9 217,56 216.9,56 216.7,56.1 216.5,56.1 216.4,56.2 216.3,56.3 216.1,56.4 216,56.5 215.9,56.6 215.8,56.7 
					215.7,56.8 215.6,56.9 215.5,57.1 215.4,57.2 215.3,57.3 215.2,57.5 215.2,57.6 215.2,57.8 215.1,57.9 215.1,58.1 215.1,58.2 
					215.1,58.4 215.1,58.6 215.2,58.7 				"/>
			</g>
			<g id="ID000080">
				<polygon class="st5" points="226.4,53.9 221.2,55 222.5,59.7 227.7,58.5 				"/>
			</g>
			<g id="ID000081">
				<line class="st4" x1="225" y1="69" x2="182.7" y2="69"/>
			</g>
			<g id="ID000082">
				<polygon class="st5" points="201.2,69 201.2,69.1 201.2,69.3 201.3,69.4 201.3,69.6 201.3,69.7 201.4,69.9 201.4,70 201.5,70.1 
					201.6,70.3 201.7,70.4 201.8,70.5 201.9,70.6 202,70.8 202.2,70.8 202.3,70.9 202.5,71 202.6,71.1 202.7,71.1 202.9,71.2 
					203.1,71.2 203.2,71.3 203.4,71.3 203.5,71.3 203.7,71.3 203.9,71.4 204,71.3 204.2,71.3 204.4,71.3 204.6,71.3 204.7,71.2 
					204.9,71.2 205,71.1 205.2,71 205.3,70.9 205.4,70.9 205.6,70.8 205.7,70.7 205.8,70.6 205.9,70.5 206,70.3 206.1,70.2 
					206.2,70.1 206.3,69.9 206.3,69.8 206.4,69.6 206.4,69.5 206.5,69.3 206.5,69.2 206.5,69 206.5,68.9 206.5,68.7 206.5,68.6 
					206.4,68.4 206.4,68.3 206.3,68.1 206.3,68 206.2,67.9 206.1,67.7 206,67.6 205.9,67.5 205.8,67.4 205.7,67.3 205.6,67.2 
					205.4,67.1 205.3,67 205.2,66.9 205,66.8 204.9,66.7 204.7,66.7 204.6,66.6 204.4,66.6 204.2,66.6 204,66.6 203.9,66.6 
					203.7,66.6 203.5,66.6 203.4,66.6 203.2,66.6 203.1,66.7 202.9,66.7 202.7,66.8 202.6,66.8 202.5,66.9 202.3,67 202.2,67.1 
					202,67.2 201.9,67.3 201.8,67.4 201.7,67.5 201.6,67.7 201.5,67.8 201.4,67.9 201.4,68 201.3,68.2 201.3,68.3 201.3,68.5 
					201.2,68.6 201.2,68.8 				"/>
			</g>
			<g id="ID000083">
				<line class="st4" x1="225.3" y1="70.6" x2="189" y2="82.4"/>
			</g>
			<g id="ID000084">
				<polygon class="st6" points="213.6,74.4 207.7,73.4 209.7,78.5 				"/>
			</g>
			<g id="ID000085">
				<polygon class="st6" points="202.3,80.6 207.3,79 205.5,74.4 200.5,76.1 				"/>
			</g>
			<g id="ID000086">
				<polyline class="st4" points="231.9,40.3 197.2,29.8 184.8,20.9 				"/>
			</g>
			<g id="ID000087">
				<polygon class="st5" points="212.1,34.4 212,34.5 212,34.7 212,34.8 211.9,34.9 211.9,35.1 211.9,35.2 211.9,35.4 212,35.5 
					212,35.7 212,35.8 212.1,36 212.2,36.1 212.2,36.3 212.3,36.4 212.4,36.5 212.5,36.7 212.7,36.8 212.8,36.9 212.9,37 213,37.1 
					213.1,37.2 213.3,37.2 213.5,37.3 213.6,37.4 213.7,37.4 213.9,37.5 214.1,37.5 214.2,37.5 214.4,37.5 214.6,37.5 214.8,37.5 
					214.9,37.5 215.1,37.5 215.2,37.5 215.4,37.4 215.6,37.4 215.7,37.3 215.8,37.2 216,37.1 216.2,37 216.3,37 216.4,36.8 
					216.5,36.7 216.6,36.6 216.7,36.5 216.8,36.4 216.9,36.2 217,36.1 217,35.9 217.1,35.8 217.1,35.6 217.1,35.5 217.2,35.3 
					217.2,35.2 217.2,35 217.2,34.9 217.2,34.8 217.1,34.6 217.1,34.5 217,34.3 217,34.2 216.9,34 216.8,33.9 216.8,33.8 
					216.7,33.6 216.5,33.5 216.4,33.4 216.3,33.3 216.2,33.2 216,33.1 215.9,33 215.7,33 215.6,32.9 215.4,32.8 215.2,32.8 
					215.1,32.7 214.9,32.7 214.8,32.7 214.6,32.7 214.4,32.7 214.3,32.7 214.1,32.7 214,32.8 213.8,32.8 213.6,32.9 213.5,32.9 
					213.3,33 213.1,33.1 213,33.1 212.9,33.2 212.8,33.3 212.7,33.4 212.6,33.6 212.4,33.7 212.3,33.8 212.2,33.9 212.2,34.1 
					212.1,34.2 				"/>
			</g>
			<g id="ID000088">
				<line class="st4" x1="226.2" y1="32.9" x2="181.5" y2="65.9"/>
			</g>
			<g id="ID000089">
				<polygon class="st5" points="208.6,45.9 208.5,45.8 208.3,45.7 208.2,45.6 208.1,45.5 208,45.4 207.8,45.3 207.6,45.3 
					207.5,45.2 207.3,45.2 207.2,45.1 207,45.1 206.8,45.1 206.7,45 206.5,45 206.3,45 206.2,45.1 206,45.1 205.9,45.1 205.7,45.2 
					205.5,45.2 205.4,45.3 205.2,45.3 205.1,45.4 204.9,45.5 204.8,45.6 204.7,45.7 204.6,45.8 204.5,45.9 204.4,46 204.2,46.1 
					204.2,46.3 204.1,46.4 204,46.6 204,46.7 203.9,46.9 203.9,47 203.9,47.2 203.9,47.3 203.9,47.5 203.9,47.6 203.9,47.8 
					203.9,47.9 204,48.1 204,48.2 204.1,48.4 204.1,48.5 204.2,48.6 204.3,48.7 204.4,48.9 204.5,49 204.6,49.1 204.7,49.2 
					204.9,49.3 205,49.4 205.2,49.5 205.3,49.6 205.4,49.6 205.6,49.7 205.8,49.7 205.9,49.8 206.1,49.8 206.2,49.8 206.5,49.8 
					206.6,49.8 206.8,49.8 206.9,49.8 207.1,49.8 207.3,49.7 207.4,49.7 207.6,49.6 207.7,49.6 207.9,49.5 208,49.4 208.1,49.3 
					208.3,49.2 208.4,49.1 208.5,49 208.6,48.9 208.7,48.7 208.8,48.6 208.9,48.5 208.9,48.4 209,48.2 209,48.1 209.1,47.9 
					209.2,47.8 209.2,47.6 209.2,47.5 209.2,47.3 209.2,47.2 209.1,47 209.1,46.9 209,46.7 209,46.6 208.9,46.4 208.8,46.3 
					208.8,46.1 208.7,46 				"/>
			</g>
			<g id="ID000090">
				<polygon class="st5" points="198.5,53.4 204.4,52.5 200.6,48.3 				"/>
			</g>
			<g id="ID000091">
				<line class="st4" x1="221.9" y1="19.1" x2="182.5" y2="28.6"/>
			</g>
			<g id="ID000092">
				<polygon class="st5" points="199.7,24.4 199.7,24.6 199.8,24.7 199.8,24.9 199.9,25 200,25.2 200.1,25.3 200.2,25.4 200.3,25.5 
					200.4,25.6 200.5,25.7 200.7,25.8 200.8,25.9 201,26 201.1,26.1 201.3,26.1 201.4,26.2 201.6,26.2 201.8,26.2 201.9,26.3 
					202.1,26.3 202.2,26.3 202.4,26.3 202.6,26.2 202.7,26.2 202.9,26.2 203.1,26.1 203.2,26.1 203.4,26 203.5,25.9 203.6,25.8 
					203.8,25.8 203.9,25.7 204.1,25.6 204.2,25.4 204.3,25.3 204.4,25.2 204.5,25.1 204.6,24.9 204.6,24.8 204.7,24.6 204.7,24.5 
					204.8,24.3 204.8,24.2 204.8,24 204.8,23.9 204.8,23.7 204.8,23.6 204.8,23.5 204.8,23.3 204.7,23.2 204.7,23 204.6,22.9 
					204.5,22.7 204.5,22.6 204.4,22.5 204.2,22.3 204.1,22.2 204,22.1 203.9,22 203.8,21.9 203.6,21.8 203.5,21.7 203.3,21.7 
					203.2,21.6 203.1,21.5 202.9,21.5 202.7,21.5 202.6,21.4 202.4,21.4 202.2,21.4 202,21.4 201.9,21.4 201.7,21.5 201.5,21.5 
					201.4,21.5 201.2,21.6 201.1,21.6 201,21.7 200.8,21.8 200.6,21.9 200.5,22 200.4,22.1 200.3,22.2 200.1,22.3 200,22.4 
					200,22.6 199.9,22.7 199.8,22.8 199.7,23 199.7,23.1 199.6,23.3 199.6,23.4 199.5,23.6 199.5,23.7 199.5,23.8 199.5,24 
					199.5,24.1 199.6,24.3 				"/>
			</g>
			<g id="ID000093">
				<polyline class="st4" points="208.7,13.3 207.2,17.2 186,17.7 				"/>
			</g>
			<g id="ID000094">
				<polygon class="st5" points="202.7,17.3 202.6,17.2 202.6,17 202.6,16.9 202.6,16.7 202.5,16.6 202.5,16.4 202.4,16.3 
					202.3,16.2 202.2,16 202.1,15.9 202,15.8 201.9,15.7 201.8,15.6 201.6,15.5 201.5,15.4 201.3,15.3 201.2,15.3 201.1,15.2 
					200.9,15.1 200.7,15.1 200.6,15.1 200.4,15 200.3,15 200.1,15 199.9,15 199.7,15 199.5,15 199.4,15.1 199.2,15.1 199.1,15.2 
					198.9,15.2 198.8,15.3 198.6,15.4 198.5,15.4 198.4,15.5 198.3,15.6 198.1,15.7 198,15.8 197.9,15.9 197.8,16.1 197.7,16.2 
					197.6,16.3 197.6,16.5 197.5,16.6 197.4,16.8 197.4,16.9 197.4,17.1 197.4,17.2 197.4,17.4 197.4,17.5 197.4,17.7 197.4,17.8 
					197.4,18 197.5,18.1 197.6,18.2 197.6,18.4 197.7,18.5 197.8,18.7 197.9,18.8 198,18.9 198.1,19 198.2,19.1 198.3,19.2 
					198.5,19.3 198.6,19.4 198.7,19.5 198.9,19.6 199.1,19.6 199.2,19.7 199.4,19.7 199.5,19.8 199.7,19.8 199.9,19.8 200,19.8 
					200.2,19.8 200.4,19.8 200.5,19.8 200.7,19.7 200.8,19.7 201,19.6 201.2,19.6 201.3,19.5 201.4,19.4 201.6,19.3 201.7,19.2 
					201.9,19.1 202,19 202.1,18.9 202.2,18.8 202.2,18.6 202.4,18.5 202.4,18.3 202.5,18.2 202.5,18.1 202.6,18 202.6,17.8 
					202.6,17.7 202.6,17.5 				"/>
			</g>
			<g id="ID000095">
				<polygon class="st5" points="189.7,17.6 194.9,20.2 194.8,14.8 				"/>
			</g>
			<g id="ID000096">
			</g>
			<g id="ID000097">
				<g transform="translate(925.503,702.561)">
					<g transform="rotate(-0.0)">
						<text transform="matrix(1.0984 0 0 1 -711.6251 -392.395)" class="st0 st1 st2">U</text>
					</g>
				</g>
			</g>
			<g id="ID000098">
				<g transform="translate(925.503,677.058)">
					<g transform="rotate(-0.0)">
						<text transform="matrix(1.0984 0 0 1 -711.6251 -378.9261)" class="st0 st1 st2">C</text>
					</g>
				</g>
			</g>
			<g id="ID000099">
				<g transform="translate(925.503,651.554)">
					<g transform="rotate(-0.0)">
						<text transform="matrix(1.0984 0 0 1 -711.6251 -365.4534)" class="st0 st1 st2">A</text>
					</g>
				</g>
			</g>
			<g id="ID000100">
				<line class="st4" x1="225.9" y1="282.5" x2="234.7" y2="282.5"/>
			</g>
			<g id="ID000101">
				<g transform="translate(959.508,651.554)">
					<g transform="rotate(-0.0)">
						<text transform="matrix(1.0984 0 0 1 -724.8273 -365.4534)" class="st7 st2">10</text>
					</g>
				</g>
			</g>
			<g id="ID000102">
				<g transform="translate(925.503,626.051)">
					<g transform="rotate(-0.0)">
						<text transform="matrix(1.0984 0 0 1 -711.8702 -351.9807)" class="st0 st1 st2">G</text>
					</g>
				</g>
			</g>
			<g id="ID000103">
				<g transform="translate(925.503,600.548)">
					<g transform="rotate(-0.0)">
						<text transform="matrix(1.0984 0 0 1 -711.8702 -338.5109)" class="st0 st1 st2">G</text>
					</g>
				</g>
			</g>
			<g id="ID000104">
				<g transform="translate(925.503,575.044)">
					<g transform="rotate(-0.0)">
						<text transform="matrix(1.0984 0 0 1 -711.8702 -325.0372)" class="st3 st1 st2">G</text>
					</g>
				</g>
			</g>
			<g id="ID000105">
				<g transform="translate(874.497,575.044)">
					<g transform="rotate(-0.0)">
						<text transform="matrix(1.0984 0 0 1 -687.0483 -325.0372)" class="st3 st1 st2">A</text>
					</g>
				</g>
			</g>
			<g id="ID000106">
				<g transform="translate(874.497,600.548)">
					<g transform="rotate(-0.0)">
						<text transform="matrix(1.0984 0 0 1 -687.0483 -338.5109)" class="st0 st1 st2">C</text>
					</g>
				</g>
			</g>
			<g id="ID000107">
				<g transform="translate(874.497,626.051)">
					<g transform="rotate(-0.0)">
						<text transform="matrix(1.0984 0 0 1 -687.0483 -351.9807)" class="st0 st1 st2">U</text>
					</g>
				</g>
			</g>
			<g id="ID000108">
				<g transform="translate(874.497,651.554)">
					<g transform="rotate(-0.0)">
						<text transform="matrix(1.0984 0 0 1 -687.0483 -365.4534)" class="st0 st1 st2">U</text>
					</g>
				</g>
			</g>
			<g id="ID000109">
				<line class="st4" x1="181.8" y1="282.5" x2="173" y2="282.5"/>
			</g>
			<g id="ID000110">
				<g transform="translate(840.492,651.554)">
					<g transform="rotate(-0.0)">
						<text transform="matrix(1.0984 0 0 1 -677.2835 -365.4534)" class="st7 st2">50</text>
					</g>
				</g>
			</g>
			<g id="ID000111">
				<g transform="translate(874.497,677.058)">
					<g transform="rotate(-0.0)">
						<text transform="matrix(1.0984 0 0 1 -687.2949 -378.9261)" class="st0 st1 st2">G</text>
					</g>
				</g>
			</g>
			<g id="ID000112">
				<g transform="translate(874.497,702.561)">
					<g transform="rotate(-0.0)">
						<text transform="matrix(1.0984 0 0 1 -687.0483 -392.395)" class="st0 st1 st2">A</text>
					</g>
				</g>
			</g>
			<g id="ID000113">
				<line class="st4" x1="211.8" y1="306.6" x2="195.9" y2="306.6"/>
			</g>
			<g id="ID000114">
				<line class="st4" x1="211.8" y1="294.6" x2="195.9" y2="294.6"/>
			</g>
			<g id="ID000115">
				<line class="st4" x1="211.8" y1="282.5" x2="195.9" y2="282.5"/>
			</g>
			<g id="ID000116">
				<polygon class="st5" points="201.2,270.5 201.2,270.6 201.2,270.8 201.3,270.9 201.3,271.1 201.3,271.2 201.4,271.4 
					201.4,271.5 201.5,271.7 201.6,271.8 201.7,271.9 201.8,272 201.9,272.2 202,272.3 202.2,272.4 202.3,272.5 202.5,272.6 
					202.6,272.6 202.7,272.7 202.9,272.8 203.1,272.8 203.2,272.9 203.4,272.9 203.5,272.9 203.7,272.9 203.9,272.9 204,272.9 
					204.2,272.9 204.4,272.9 204.6,272.8 204.7,272.8 204.9,272.7 205,272.7 205.2,272.6 205.3,272.5 205.4,272.4 205.6,272.3 
					205.7,272.2 205.8,272.1 205.9,272 206,271.9 206.1,271.7 206.2,271.6 206.3,271.5 206.3,271.3 206.4,271.2 206.4,271 
					206.5,270.9 206.5,270.7 206.5,270.5 206.5,270.4 206.5,270.2 206.5,270.1 206.4,270 206.4,269.8 206.3,269.7 206.3,269.5 
					206.2,269.4 206.1,269.3 206,269.1 205.9,269 205.8,268.9 205.7,268.8 205.6,268.7 205.4,268.6 205.3,268.5 205.2,268.4 
					205,268.3 204.9,268.3 204.7,268.2 204.6,268.2 204.4,268.1 204.2,268.1 204,268.1 203.9,268.1 203.7,268.1 203.5,268.1 
					203.4,268.1 203.2,268.1 203.1,268.2 202.9,268.2 202.7,268.3 202.6,268.4 202.5,268.4 202.3,268.5 202.2,268.6 202,268.7 
					201.9,268.8 201.8,268.9 201.7,269.1 201.6,269.2 201.5,269.3 201.4,269.5 201.4,269.6 201.3,269.8 201.3,269.9 201.3,270.1 
					201.2,270.2 201.2,270.3 				"/>
			</g>
			<g id="ID000117">
				<line class="st4" x1="211.8" y1="258.5" x2="195.9" y2="258.5"/>
			</g>
			<g id="ID000118">
				<line class="st4" x1="211.8" y1="246.4" x2="195.9" y2="246.4"/>
			</g>
			<g id="ID000119">
				<polygon class="st5" points="201.2,246.4 201.2,246.6 201.2,246.7 201.3,246.9 201.3,247 201.3,247.2 201.4,247.3 201.4,247.5 
					201.5,247.6 201.6,247.7 201.7,247.9 201.8,248 201.9,248.1 202,248.2 202.2,248.3 202.3,248.4 202.5,248.5 202.6,248.5 
					202.7,248.6 202.9,248.7 203.1,248.7 203.2,248.8 203.4,248.8 203.5,248.8 203.7,248.8 203.9,248.8 204,248.8 204.2,248.8 
					204.4,248.8 204.6,248.7 204.7,248.7 204.9,248.6 205,248.6 205.2,248.5 205.3,248.4 205.4,248.3 205.6,248.2 205.7,248.1 
					205.8,248 205.9,247.9 206,247.8 206.1,247.7 206.2,247.5 206.3,247.4 206.3,247.3 206.4,247.1 206.4,247 206.5,246.8 
					206.5,246.7 206.5,246.5 206.5,246.3 206.5,246.2 206.5,246 206.4,245.9 206.4,245.7 206.3,245.6 206.3,245.4 206.2,245.3 
					206.1,245.2 206,245.1 205.9,245 205.8,244.8 205.7,244.7 205.6,244.6 205.4,244.5 205.3,244.4 205.2,244.4 205,244.3 
					204.9,244.2 204.7,244.2 204.6,244.1 204.4,244.1 204.2,244 204,244 203.9,244 203.7,244 203.5,244 203.4,244.1 203.2,244.1 
					203.1,244.1 202.9,244.2 202.7,244.2 202.6,244.3 202.5,244.4 202.3,244.5 202.2,244.6 202,244.7 201.9,244.8 201.8,244.9 
					201.7,245 201.6,245.1 201.5,245.2 201.4,245.4 201.4,245.5 201.3,245.7 201.3,245.8 201.3,246 201.2,246.1 201.2,246.3 				"/>
			</g>
			<g id="ID000120">
			</g>
		</g>
	</g>
</g>
<text transform="matrix(1 0 0 1 15.683 43.7581)" class="st8 st7 st9">Lys1.2minE</text>
<text transform="matrix(1.0984 0 0 1 234.6807 395.3867)" class="st7 st10">5’</text>
<line class="st11" x1="220.5" y1="391.8" x2="233.6" y2="391.8"/>
<text transform="matrix(1.0984 0 0 1 160.5049 395.3877)" class="st7 st10">3’</text>
<line class="st11" x1="167.9" y1="391.7" x2="181.1" y2="391.7"/>
</svg>
