<?xml version="1.0" encoding="utf-8"?>
<!-- Generator: Adobe Illustrator 27.0.0, SVG Export Plug-In . SVG Version: 6.00 Build 0)  -->
<svg version="1.1" id="_图层_1" xmlns="http://www.w3.org/2000/svg" xmlns:xlink="http://www.w3.org/1999/xlink" x="0px" y="0px"
	 viewBox="0 0 400 400" style="enable-background:new 0 0 400 400;" xml:space="preserve">
<style type="text/css">
	.st0{fill:#8527B5;}
	.st1{fill:#18988C;}
	.st2{font-family:'ArialMT';}
	.st3{font-size:18.09px;}
	.st4{fill:#F17D07;}
	.st5{font-size:18px;}
	.st6{fill:#FFFFFF;}
	.st7{font-size:7.5px;}
	.st8{opacity:0.5;fill:#0A0BFF;stroke:#000000;stroke-miterlimit:1.11;enable-background:new    ;}
	.st9{opacity:0.4;fill:#0A0BFF;stroke:#000000;stroke-miterlimit:1.11;enable-background:new    ;}
	.st10{fill:#B83332;}
	.st11{letter-spacing:-1;}
	.st12{fill:#084595;}
	.st13{letter-spacing:-3;}
	.st14{font-size:12.91px;}
	.st15{fill:#04A103;}
	.st16{font-size:16px;}
	.st17{font-size:11.3755px;}
	.st18{letter-spacing:-2;}
	.st19{fill:#C2B617;}
	.st20{fill:none;stroke:#000000;stroke-width:0.25;stroke-miterlimit:1.11;}
	.st21{fill:none;stroke:#000000;stroke-miterlimit:10;}
	.st22{fill:none;stroke:#000000;stroke-miterlimit:1.11;}
	.st23{stroke:#000000;stroke-miterlimit:1.11;}
	.st24{fill:#FFFFFF;stroke:#000000;stroke-miterlimit:1.11;}
	.st25{font-size:20px;}
</style>
<rect x="345.7" y="118.4" class="st0" width="10.5" height="37.1"/>
<g id="ID000009">
	<text transform="matrix(1 0 0 1 239.73 140.11)" class="st1 st2 st3">G</text>
</g>
<g id="ID000010">
	<text transform="matrix(1 0 0 1 286.08 140.11)" class="st1 st2 st3">G</text>
</g>
<g id="ID000011">
	<text transform="matrix(1 0 0 1 332.87 140.11)" class="st4 st2 st5">G</text>
</g>
<g id="ID000028">
	<text transform="matrix(1 0 0 1 239.73 109.16)" class="st1 st2 st3">G</text>
</g>
<g id="ID000029">
	<text transform="matrix(1 0 0 1 286.8 110.16)" class="st1 st2 st3">G</text>
</g>
<g id="ID000031">
	<text transform="matrix(1 0 0 1 333.87 110.16)" class="st1 st2 st3">G</text>
</g>
<text transform="matrix(6.123234e-17 -1 1 6.123234e-17 353.65 154.9798)" class="st6 st2 st7">T</text>
<text transform="matrix(6.123234e-17 -1 1 6.123234e-17 353.65 150.5404)" class="st6 st2 st7">O1-Biotin</text>
<polygon class="st8" points="244,131.4 222.7,138.7 222.7,114.6 244,107.3 "/>
<polygon class="st8" points="291.5,131.4 270.2,138.6 270.2,114.6 291.5,107.3 "/>
<polygon class="st9" points="339,130.9 317.7,138.2 317.7,114.1 339,107 "/>
<g id="ID000002">
	<text transform="matrix(1 0 0 1 98.53 93.04)" class="st10 st2 st3">G</text>
</g>
<g id="ID000003">
	<text transform="matrix(1 0 0 1 116.41 93.04)" class="st10 st2 st3">U</text>
</g>
<g id="ID000004">
	<text transform="matrix(1 0 0 1 134.22 93.04)" class="st10 st2 st3 st11">A</text>
</g>
<g id="ID000005">
	<text transform="matrix(1 0 0 1 150.64 93.04)" class="st10 st2 st3">C</text>
</g>
<g id="ID000006">
	<text transform="matrix(1 0 0 1 167 93.04)" class="st12 st2 st3">C</text>
</g>
<g id="ID000007">
	<text transform="matrix(1 0 0 1 185.63 93.04)" class="st12 st2 st3 st13">G</text>
</g>
<g id="ID000008">
	<text transform="matrix(1 0 0 1 202.74 93.04)" class="st12 st2 st3 st13">A</text>
</g>
<g id="ID000013">
	<text transform="matrix(1 0 0 1 166.17 65.9)" class="st2 st14">10</text>
</g>
<g id="ID000014">
	<text transform="matrix(1 0 0 1 335.38 151.23)" class="st15 st2 st16 st13">U</text>
</g>
<g id="ID000014-2">
	<text transform="matrix(1 0 0 1 308.6384 137.7)" class="st15 st2 st17 st18">A</text>
</g>
<g id="ID000014-2_00000132776781453429732910000013939859727452379794_">
	<text transform="matrix(1 0 0 1 299.5916 137.7)" class="st15 st2 st17 st18">G</text>
</g>
<g id="ID000016">
	<text transform="matrix(1 0 0 1 214.07 148.67)" class="st1 st2 st3">G</text>
</g>
<g id="ID000017">
	<text transform="matrix(1 0 0 1 261.13 148.67)" class="st1 st2 st3">G</text>
</g>
<g id="ID000018">
	<text transform="matrix(1 0 0 1 356.03 148.67)" class="st4 st2 st3 st11">U</text>
</g>
<g id="ID000020">
	<text transform="matrix(1 0 0 1 215.55 174.34)" class="st19 st2 st3 st11">A</text>
</g>
<g id="ID000021">
	<text transform="matrix(1 0 0 1 214.07 118.71)" class="st1 st2 st3">G</text>
</g>
<g id="ID000022">
	<text transform="matrix(1 0 0 1 261.13 118.71)" class="st1 st2 st3">G</text>
</g>
<g id="ID000023">
	<text transform="matrix(1 0 0 1 371.2029 119.4202)" class="st15 st2 st3 st13">A</text>
</g>
<g id="ID000023_00000016770794911459114850000010033899351309040811_">
	<text transform="matrix(1 0 0 1 359.3933 119.4198)" class="st15 st2 st3 st13">U</text>
</g>
<g id="ID000026">
	<text transform="matrix(1 0 0 1 312.48 118.71)" class="st1 st2 st3">G</text>
</g>
<g id="ID000027">
	<text transform="matrix(1 0 0 1 242.97 94.59)" class="st19 st2 st3 st13">A</text>
</g>
<g id="ID000030">
	<text transform="matrix(1 0 0 1 348.22 97.32)" class="st15 st2 st3 st13">C</text>
</g>
<g id="ID000032">
	<text transform="matrix(1 0 0 1 168.51 127.27)" class="st12 st2 st3 st13">A</text>
</g>
<g id="ID000033">
	<text transform="matrix(1 0 0 1 149.88 127.27)" class="st10 st2 st3">G</text>
</g>
<g id="ID000034">
	<text transform="matrix(1 0 0 1 133.53 127.27)" class="st10 st2 st3">U</text>
</g>
<g id="ID000035">
	<text transform="matrix(1 0 0 1 117.16 127.27)" class="st10 st2 st3 st13">A</text>
</g>
<g id="ID000036">
	<line class="st20" x1="246.5" y1="192.7" x2="263.2" y2="147.4"/>
</g>
<g id="ID000036-2">
	<line class="st20" x1="174.2" y1="78.1" x2="174.2" y2="66.6"/>
</g>
<g id="ID000013_00000137127060681298337370000017945579609782964877_">
	<text transform="matrix(1 0 0 1 64.4925 151.55)" class="st2 st14">40</text>
</g>
<g id="ID000036-2_00000000910979918462622230000008101358498889512090_">
	<line class="st20" x1="72.2" y1="140.8" x2="72.2" y2="129.4"/>
</g>
<g id="ID000013-2">
	<text transform="matrix(1 0 0 1 226.1002 73.1914)" class="st2 st14">30</text>
</g>
<g id="ID000036-3">
	<line class="st20" x1="241.5" y1="98" x2="233.5" y2="73.2"/>
</g>
<g id="ID000037">
	<text transform="matrix(1 0 0 1 237.0201 203.8336)" class="st2 st14">20</text>
</g>
<g id="ID000038">
	<text transform="matrix(1 0 0 1 99.3 127.27)" class="st10 st2 st3">C</text>
</g>
<g id="ID000039">
	<line class="st21" x1="105.7" y1="113.7" x2="105.7" y2="93.2"/>
</g>
<g id="ID000040">
	<line class="st22" x1="122.8" y1="113.7" x2="122.8" y2="93.2"/>
</g>
<g id="ID000041">
	<line class="st22" x1="139.9" y1="113.7" x2="139.9" y2="93.2"/>
</g>
<g id="ID000042">
	<line class="st22" x1="157.1" y1="113.7" x2="157.1" y2="93.2"/>
</g>
<g id="ID000002-2">
	<text transform="matrix(1 0 0 1 30.83 93.36)" class="st10 st2 st3">G</text>
</g>
<g id="ID000002-3">
	<text transform="matrix(1 0 0 1 14.58 93.57)" class="st10 st2 st3">G</text>
</g>
<g id="ID000003-2">
	<text transform="matrix(1 0 0 1 48.72 93.36)" class="st10 st2 st3">C</text>
</g>
<g id="ID000004-2">
	<text transform="matrix(1 0 0 1 66.52 93.36)" class="st10 st2 st3 st11">A</text>
</g>
<g id="ID000005-2">
	<text transform="matrix(1 0 0 1 82.94 93.36)" class="st10 st2 st3">C</text>
</g>
<g id="ID000033-2">
	<text transform="matrix(1 0 0 1 82.19 127.58)" class="st10 st2 st3">G</text>
</g>
<g id="ID000034-2">
	<text transform="matrix(1 0 0 1 65.83 127.58)" class="st10 st2 st3">U</text>
</g>
<g id="ID000035-2">
	<text transform="matrix(1 0 0 1 48.02 127.58)" class="st10 st2 st3 st18">G</text>
</g>
<g id="ID000038-2">
	<text transform="matrix(1 0 0 1 31.6 127.58)" class="st10 st2 st3">C</text>
</g>
<g id="ID000039-2">
	<line class="st21" x1="38" y1="114" x2="38" y2="93.5"/>
</g>
<g id="ID000040-2">
	<line class="st22" x1="55.1" y1="114" x2="55.1" y2="93.5"/>
</g>
<g id="ID000041-2">
	<line class="st22" x1="72.2" y1="114" x2="72.2" y2="93.5"/>
</g>
<g id="ID000042-2">
	<line class="st22" x1="89.4" y1="114" x2="89.4" y2="93.5"/>
</g>
<g id="ID000043">
	<line class="st22" x1="227.9" y1="165.9" x2="313.1" y2="143.8"/>
</g>
<g id="ID000044">
	<polygon class="st23" points="276.9,155.5 275.1,154.6 273.6,154.6 272.3,154.7 269.2,154.8 271.9,153.4 273.2,152.9 274.5,152.1 
		275.6,150.5 	"/>
</g>
<g id="ID000046">
	<line class="st22" x1="287.1" y1="133.5" x2="253.8" y2="133.5"/>
</g>
<g id="ID000047">
	<polygon class="st23" points="273.7,130.9 275.1,132.2 276.6,132.6 278,132.8 280.9,133.5 278,134.1 276.6,134.3 275.1,134.7 
		273.7,136 	"/>
</g>
<g id="ID000048">
	<line class="st22" x1="326.5" y1="112.1" x2="359.9" y2="112.1"/>
</g>
<g id="ID000049">
	<polygon class="st23" points="352.8,114.6 351.4,113.3 349.9,112.9 348.5,112.7 345.7,112.1 348.5,111.4 349.9,111.2 351.4,110.7 
		352.8,109.4 	"/>
</g>
<g id="ID000050">
	<polyline class="st22" points="347,90.6 293.9,90.6 293.9,96.7 	"/>
</g>
<g id="ID000051">
	<polygon class="st23" points="309.7,88.1 311,89.3 312.5,89.8 313.9,90 316.7,90.6 313.9,91.3 312.5,91.5 311,92 309.7,93.2 	"/>
</g>
<g id="ID000052">
	<line class="st22" x1="242.6" y1="128.1" x2="212.8" y2="91.6"/>
</g>
<g id="ID000053">
	<polygon class="st23" points="218.6,95 218.5,96.9 219.1,98.3 219.8,99.5 221.1,102.2 218.8,100.3 217.7,99.4 216.5,98.5 
		214.6,98.2 	"/>
</g>
<g id="ID000054">
	<line class="st22" x1="333.4" y1="133.5" x2="316.3" y2="133.5"/>
</g>
<g id="ID000055">
	<polygon class="st23" points="322.8,130.9 324.2,132.2 325.6,132.6 327,132.8 329.8,133.5 327,134.1 325.6,134.3 324.2,134.7 
		322.8,136 	"/>
</g>
<g id="ID000056">
	<line class="st22" x1="261.5" y1="112.1" x2="228.1" y2="112.1"/>
</g>
<g id="ID000057">
	<polygon class="st23" points="242.6,109.4 244.1,110.7 245.5,111.2 246.9,111.4 249.7,112.1 246.9,112.7 245.5,112.9 244.1,113.3 
		242.6,114.6 	"/>
</g>
<g id="ID000058">
	<polyline class="st22" points="182.8,141.6 182.8,184.7 341,184.7 341,151.8 	"/>
</g>
<g id="ID000059">
	<polygon class="st23" points="264,187.3 262.6,186.1 261.2,185.7 259.8,185.4 256.9,184.7 259.8,184.1 261.2,183.9 262.6,183.6 
		264,182.3 	"/>
</g>
<g id="ID000060">
	<line class="st22" x1="213.7" y1="142" x2="182.8" y2="142"/>
</g>
<g id="ID000062">
	<line class="st22" x1="261.5" y1="142" x2="228.1" y2="142"/>
</g>
<g id="ID000063">
	<polygon class="st23" points="242.6,139.4 244.1,140.7 245.5,141.1 246.9,141.3 249.7,142 246.9,142.6 245.5,142.9 244.1,143.2 
		242.6,144.5 	"/>
</g>
<g id="ID000064">
	<polyline class="st22" points="362.4,148.9 362.4,167.7 268.3,167.7 268.3,148.9 	"/>
</g>
<g id="ID000065">
	<polygon class="st23" points="311.6,165.1 313,166.4 314.4,166.8 315.8,167 318.7,167.7 315.8,168.2 314.4,168.5 313,168.9 
		311.6,170.2 	"/>
</g>
<g id="ID000066">
	<polyline class="st22" points="214.4,112.1 208.4,112.1 208.4,167.7 214.4,167.7 	"/>
</g>
<g id="ID000067">
	<polygon class="st23" points="205.8,151.5 207.1,150.1 207.6,148.7 207.8,147.3 208.4,144.5 209,147.3 209.2,148.7 209.7,150.1 
		211,151.5 	"/>
</g>
<g id="ID000068">
	<polyline class="st22" points="377,105.7 377,78.4 269.3,78.4 269.3,105.7 	"/>
</g>
<g id="ID000069">
	<polygon class="st23" points="315.4,75.5 316.8,76.7 318.2,77.2 319.6,77.4 322.6,78 319.6,78.7 318.2,78.9 316.8,79.3 315.4,80.6 
			"/>
</g>
<g id="ID000070">
	<polyline class="st22" points="253.8,86.5 319.6,86.7 319.6,105.2 	"/>
</g>
<g id="ID000071">
	<polygon class="st23" points="288.8,89.1 287.5,87.9 286,87.4 284.6,87.2 281.7,86.6 284.6,85.9 286,85.7 287.5,85.3 288.9,84 	"/>
</g>
<g id="ID000072">
	<line class="st22" x1="287.1" y1="103.5" x2="253.8" y2="103.5"/>
</g>
<g id="ID000073">
	<polygon class="st23" points="256.3,100.9 257.7,102.2 259.1,102.6 260.5,102.8 263.4,103.5 260.5,104.1 259.1,104.3 257.7,104.7 
		256.3,106 	"/>
</g>
<g id="ID000074">
	<polyline class="st22" points="181,120.6 306.8,120.6 306.8,103.5 334.1,103.5 	"/>
</g>
<g id="ID000075">
	<polygon class="st23" points="246.1,123.1 244.7,121.9 243.3,121.5 241.8,121.2 238.9,120.6 241.8,119.9 243.3,119.7 244.7,119.3 
		246.1,118 	"/>
</g>
<g id="ID000076">
	<line class="st22" x1="242.1" y1="91.2" x2="226.1" y2="107.2"/>
</g>
<g id="ID000077">
	<polygon class="st24" points="233.4,102.6 230.6,99.9 229.6,103.7 	"/>
</g>
<g id="ID000078">
	<polygon class="st24" points="235.6,95.7 233.1,98.1 235.6,100.5 238,98.1 	"/>
</g>
<g id="ID000082">
	<line class="st22" x1="240.4" y1="105.7" x2="227.7" y2="109.9"/>
</g>
<g id="ID000083">
	<polygon class="st23" points="229.6,109.4 229.6,109.4 229.6,109.6 229.6,109.6 229.8,109.8 229.8,109.9 229.8,110 229.9,110 
		230.1,110 230.2,110.2 230.2,110.2 230.3,110.2 230.4,110.3 230.5,110.4 230.6,110.4 230.8,110.4 230.9,110.5 230.9,110.5 
		231,110.5 231.1,110.5 231.2,110.5 231.3,110.5 231.5,110.4 231.6,110.4 231.7,110.4 231.8,110.3 231.9,110.2 231.9,110.2 
		232.1,110.2 232.2,110.1 232.3,110 232.3,110 232.4,109.9 232.4,109.8 232.5,109.6 232.6,109.6 232.6,109.5 232.6,109.4 
		232.6,109.3 232.7,109.2 232.9,109.1 232.9,109 232.9,108.8 232.9,108.8 232.9,108.7 232.9,108.6 232.9,108.5 232.9,108.4 
		232.7,108.2 232.6,108.1 232.6,108.1 232.6,107.9 232.6,107.9 232.4,107.8 232.4,107.7 232.4,107.7 232.3,107.5 232.3,107.4 
		232.1,107.3 232,107.3 231.9,107.3 231.9,107.2 231.7,107.1 231.7,107.1 231.5,107.1 231.5,107.1 231.3,107.1 231.2,107.1 
		231.1,107.1 231,107.1 230.9,107.1 230.8,107.1 230.8,107.1 230.6,107.1 230.5,107.1 230.4,107.2 230.3,107.2 230.2,107.3 
		230.2,107.3 230.1,107.4 229.9,107.5 229.8,107.5 229.8,107.7 229.8,107.7 229.6,107.8 229.6,107.9 229.6,108 229.6,108.1 
		229.5,108.2 229.5,108.3 229.4,108.5 229.4,108.5 229.4,108.7 229.4,108.7 229.4,108.8 229.4,109 229.4,109.1 229.5,109.2 
		229.5,109.3 	"/>
</g>
<g id="ID000084">
	<polygon class="st23" points="236.4,105.1 233.2,106.1 234.4,109.4 237.5,108.3 	"/>
</g>
<g id="ID000085">
	<line class="st22" x1="341" y1="110.3" x2="341" y2="126.6"/>
</g>
<g id="ID000086">
	<polygon class="st23" points="341.1,122.1 341.3,122.1 341.4,122 341.5,122 341.5,122 341.7,121.9 341.7,121.9 341.9,121.9 
		342,121.9 342.1,121.7 342.1,121.7 342.2,121.7 342.3,121.6 342.3,121.5 342.4,121.4 342.5,121.3 342.6,121.2 342.7,121.1 
		342.7,121 342.7,120.9 342.7,120.8 342.7,120.6 342.7,120.6 342.8,120.4 342.8,120.4 342.7,120.3 342.7,120.2 342.7,120.1 
		342.7,119.9 342.7,119.9 342.7,119.7 342.6,119.7 342.5,119.6 342.5,119.5 342.4,119.4 342.3,119.3 342.3,119.2 342.2,119.1 
		342.1,119.1 342.1,119 341.9,118.9 341.9,118.9 341.7,118.9 341.6,118.8 341.5,118.8 341.5,118.7 341.4,118.7 341.3,118.7 
		341.1,118.7 341,118.7 340.9,118.7 340.8,118.7 340.7,118.7 340.6,118.8 340.5,118.8 340.3,118.9 340.2,118.9 340.2,118.9 340,119 
		340,119.1 339.9,119.1 339.8,119.2 339.8,119.3 339.6,119.4 339.6,119.5 339.6,119.6 339.5,119.7 339.5,119.7 339.5,119.9 
		339.4,119.9 339.4,120.1 339.4,120.2 339.4,120.3 339.4,120.4 339.4,120.4 339.4,120.6 339.4,120.6 339.4,120.8 339.4,120.9 
		339.5,121 339.5,121.1 339.5,121.2 339.6,121.3 339.6,121.4 339.8,121.5 339.8,121.6 339.9,121.7 340,121.7 340,121.7 340.1,121.9 
		340.2,121.9 340.3,121.9 340.4,121.9 340.6,122 340.6,122 340.8,122 340.8,122.1 341,122.1 341,122.1 	"/>
</g>
<g id="ID000087">
	<polygon class="st23" points="339.4,114 339.4,117.4 342.8,117.4 342.8,114 	"/>
</g>
<g id="ID000088">
	<line class="st22" x1="227.7" y1="139.8" x2="240.4" y2="135.6"/>
</g>
<g id="ID000089">
	<polygon class="st23" points="237.4,136.5 237.3,136.4 237.3,136.3 237.2,136.2 237.2,136.1 237.1,136 237,136 237,135.8 
		236.8,135.8 236.8,135.7 236.7,135.7 236.6,135.6 236.5,135.6 236.4,135.5 236.3,135.5 236.2,135.5 236.1,135.4 236,135.4 
		235.9,135.4 235.8,135.4 235.7,135.4 235.6,135.4 235.4,135.5 235.3,135.5 235.3,135.5 235.1,135.6 235.1,135.6 234.9,135.6 
		234.8,135.7 234.8,135.8 234.6,135.8 234.6,136 234.6,136 234.5,136.1 234.4,136.2 234.4,136.3 234.3,136.4 234.3,136.4 
		234.2,136.5 234.2,136.7 234.1,136.7 234.1,136.9 234.1,136.9 234,137.1 234,137.1 234.1,137.3 234.1,137.4 234.1,137.5 
		234.2,137.7 234.2,137.7 234.3,137.8 234.3,137.9 234.4,138.1 234.4,138.1 234.5,138.2 234.6,138.3 234.6,138.3 234.7,138.4 
		234.8,138.5 234.8,138.5 234.9,138.7 235.1,138.7 235.1,138.8 235.3,138.8 235.3,138.8 235.4,138.8 235.6,138.8 235.7,138.8 
		235.8,138.8 235.9,138.8 236,138.8 236.1,138.8 236.2,138.8 236.4,138.8 236.4,138.8 236.5,138.7 236.6,138.7 236.7,138.6 
		236.8,138.5 236.8,138.4 237,138.4 237,138.3 237.1,138.3 237.2,138.2 237.2,138.1 237.3,137.9 237.4,137.8 237.4,137.7 
		237.4,137.7 237.4,137.5 237.5,137.5 237.5,137.4 237.5,137.2 237.5,137.1 237.5,137 237.5,136.9 237.5,136.8 237.4,136.7 
		237.4,136.5 	"/>
</g>
<g id="ID000090">
	<polygon class="st23" points="229.6,141.3 232.9,140.2 231.8,136.9 228.5,138.1 	"/>
</g>
<g id="ID000091">
	<line class="st22" x1="268.3" y1="118.9" x2="268.3" y2="135.1"/>
</g>
<g id="ID000092">
	<polygon class="st23" points="268.4,130.3 268.5,130.2 268.6,130.2 268.7,130.2 268.9,130.2 268.9,130.1 269.1,130.1 269.1,130.1 
		269.2,130 269.2,129.9 269.5,129.9 269.5,129.8 269.6,129.7 269.6,129.6 269.7,129.5 269.8,129.4 269.8,129.3 269.8,129.3 
		269.9,129.1 269.9,129.1 270,128.9 270,128.8 270,128.7 270,128.6 270,128.6 270,128.4 270,128.4 270,128.2 270,128.1 269.9,128 
		269.9,127.9 269.8,127.8 269.8,127.7 269.7,127.6 269.7,127.5 269.6,127.4 269.5,127.3 269.5,127.3 269.3,127.2 269.2,127.2 
		269.2,127.1 269.1,127.1 269,127 268.9,127 268.9,126.9 268.7,126.9 268.5,126.8 268.5,126.8 268.3,126.8 268.3,126.8 268.1,126.8 
		268.1,126.8 267.9,126.9 267.8,126.9 267.8,127 267.6,127 267.5,127.1 267.5,127.1 267.4,127.2 267.2,127.2 267.2,127.3 
		267.1,127.3 267,127.4 267,127.5 266.9,127.6 266.8,127.7 266.8,127.8 266.8,127.9 266.7,128 266.7,128.1 266.7,128.2 266.6,128.4 
		266.6,128.4 266.6,128.6 266.6,128.6 266.6,128.7 266.7,128.8 266.7,128.9 266.7,129.1 266.8,129.1 266.8,129.3 266.8,129.3 
		266.8,129.4 266.9,129.5 267,129.6 267,129.7 267.1,129.8 267.2,129.9 267.4,129.9 267.4,130 267.5,130.1 267.5,130.1 267.7,130.1 
		267.8,130.2 267.9,130.2 268,130.2 268.1,130.2 268.2,130.3 268.3,130.3 	"/>
</g>
<g id="ID000093">
	<polygon class="st23" points="266.6,121.7 266.6,125.1 270,125.1 270,121.7 	"/>
</g>
<g id="ID000094">
	<line class="st22" x1="221.3" y1="118.9" x2="221.3" y2="135.1"/>
</g>
<g id="ID000095">
	<polygon class="st23" points="221.4,130.3 221.4,130.2 221.6,130.2 221.6,130.2 221.9,130.2 221.9,130.1 222,130.1 222.1,130.1 
		222.2,130 222.2,129.9 222.3,129.9 222.4,129.8 222.5,129.7 222.6,129.6 222.6,129.5 222.7,129.4 222.8,129.3 222.8,129.3 
		222.8,129.1 222.9,129.1 222.9,128.9 222.9,128.8 223,128.7 223,128.6 223,128.6 223,128.4 223,128.4 222.9,128.2 222.9,128.1 
		222.9,128 222.8,127.9 222.8,127.8 222.7,127.7 222.7,127.6 222.6,127.5 222.6,127.4 222.5,127.3 222.4,127.3 222.2,127.2 
		222.2,127.2 222.1,127.1 222,127.1 221.9,127 221.9,127 221.6,126.9 221.6,126.9 221.5,126.8 221.4,126.8 221.3,126.8 221.2,126.8 
		221.1,126.8 220.9,126.8 220.9,126.9 220.7,126.9 220.7,127 220.5,127 220.5,127.1 220.4,127.1 220.3,127.2 220.2,127.2 
		220.1,127.3 220,127.3 219.9,127.4 219.9,127.5 219.8,127.6 219.8,127.7 219.8,127.8 219.6,127.9 219.6,128 219.6,128.1 
		219.6,128.2 219.5,128.4 219.5,128.4 219.5,128.6 219.5,128.6 219.5,128.7 219.5,128.8 219.6,128.9 219.6,129.1 219.6,129.1 
		219.8,129.3 219.8,129.3 219.8,129.4 219.8,129.5 219.9,129.6 220,129.7 220,129.8 220.1,129.9 220.2,129.9 220.3,130 220.5,130.1 
		220.5,130.1 220.7,130.1 220.7,130.2 220.8,130.2 220.9,130.2 221,130.2 221.1,130.3 221.3,130.3 	"/>
</g>
<g id="ID000096">
	<polygon class="st23" points="219.5,121.7 219.5,125.1 223,125.1 223,121.7 	"/>
</g>
<g id="ID000097">
	<line class="st22" x1="287.5" y1="105.7" x2="274.8" y2="109.9"/>
</g>
<g id="ID000098">
	<polygon class="st23" points="277,109.4 277.1,109.4 277.1,109.6 277.2,109.6 277.2,109.8 277.2,109.9 277.3,110 277.4,110 
		277.5,110 277.6,110.2 277.7,110.2 277.8,110.2 277.9,110.3 278,110.4 278.1,110.4 278.2,110.4 278.3,110.5 278.4,110.5 
		278.5,110.5 278.6,110.5 278.7,110.5 278.8,110.5 278.9,110.4 279.1,110.4 279.1,110.4 279.3,110.3 279.3,110.2 279.5,110.2 
		279.5,110.2 279.6,110.1 279.7,110 279.8,110 279.9,109.9 279.9,109.8 280,109.6 280.1,109.6 280.1,109.5 280.2,109.4 280.2,109.3 
		280.2,109.2 280.3,109.1 280.3,109 280.3,108.8 280.3,108.8 280.3,108.7 280.3,108.6 280.3,108.5 280.3,108.4 280.2,108.2 
		280.2,108.1 280.1,108.1 280.1,107.9 280.1,107.9 280,107.8 279.9,107.7 279.9,107.7 279.8,107.5 279.7,107.4 279.6,107.3 
		279.5,107.3 279.4,107.3 279.3,107.2 279.3,107.1 279.1,107.1 279.1,107.1 278.9,107.1 278.8,107.1 278.7,107.1 278.6,107.1 
		278.5,107.1 278.4,107.1 278.3,107.1 278.2,107.1 278.1,107.1 278,107.1 277.9,107.2 277.8,107.2 277.7,107.3 277.6,107.3 
		277.5,107.4 277.4,107.5 277.3,107.5 277.2,107.7 277.2,107.7 277.2,107.8 277.1,107.9 277.1,108 277,108.1 276.9,108.2 
		276.9,108.3 276.9,108.5 276.9,108.5 276.9,108.7 276.9,108.7 276.9,108.8 276.9,109 276.9,109.1 276.9,109.2 276.9,109.3 	"/>
</g>
<g id="ID000099">
	<polygon class="st23" points="283.5,105.1 280.3,106.1 281.4,109.4 284.6,108.3 	"/>
</g>
<g id="ID000100">
	<line class="st22" x1="274.8" y1="139.8" x2="287.5" y2="135.6"/>
</g>
<g id="ID000101">
	<polygon class="st23" points="283.7,136.5 283.6,136.4 283.5,136.3 283.5,136.2 283.5,136.1 283.3,136 283.3,136 283.2,135.8 
		283.1,135.8 283,135.7 282.9,135.7 282.9,135.6 282.7,135.6 282.7,135.5 282.6,135.5 282.4,135.5 282.3,135.4 282.2,135.4 
		282.1,135.4 282,135.4 281.9,135.4 281.8,135.4 281.6,135.5 281.6,135.5 281.5,135.5 281.4,135.6 281.3,135.6 281.2,135.6 
		281,135.7 281,135.8 280.9,135.8 280.9,136 280.8,136 280.7,136.1 280.6,136.2 280.6,136.3 280.5,136.4 280.5,136.4 280.5,136.5 
		280.5,136.7 280.5,136.7 280.3,136.9 280.3,136.9 280.3,137.1 280.3,137.1 280.3,137.3 280.3,137.4 280.5,137.5 280.5,137.7 
		280.5,137.7 280.5,137.8 280.5,137.9 280.6,138.1 280.6,138.1 280.7,138.2 280.8,138.3 280.9,138.3 280.9,138.4 281,138.5 
		281,138.5 281.2,138.7 281.3,138.7 281.4,138.8 281.5,138.8 281.6,138.8 281.6,138.8 281.8,138.8 281.9,138.8 282,138.8 
		282.1,138.8 282.2,138.8 282.4,138.8 282.4,138.8 282.6,138.8 282.7,138.8 282.7,138.7 282.9,138.7 282.9,138.6 283,138.5 
		283.2,138.4 283.3,138.4 283.3,138.3 283.3,138.3 283.5,138.2 283.5,138.1 283.5,137.9 283.6,137.8 283.7,137.7 283.7,137.7 
		283.7,137.5 283.7,137.5 283.7,137.4 283.7,137.2 283.7,137.1 283.7,137 283.7,136.9 283.7,136.8 283.7,136.7 283.7,136.5 	"/>
</g>
<g id="ID000102">
	<polygon class="st23" points="277.1,140.9 280.3,139.8 279.3,136.5 276,137.6 	"/>
</g>
<g id="ID000103">
	<polyline class="st22" points="319.6,150.3 319.6,177.7 371,177.7 371,143.4 369.3,143.4 	"/>
</g>
<g id="ID000104-2">
	<polygon class="st23" points="355.6,180.2 354.2,179 352.7,178.5 351.3,178.3 348.4,177.7 351.3,177 352.7,176.8 354.2,176.4 
		355.6,175.1 	"/>
</g>
<text transform="matrix(1 0 0 1 8.18 78.86)" class="st2 st14">5</text>
<text transform="matrix(1 0 0 1 15.35 78.86)" class="st2 st14">’</text>
<text transform="matrix(1 0 0 1 18.84 135.51)" class="st2 st14">3</text>
<text transform="matrix(1 0 0 1 26.02 135.51)" class="st2 st14">’</text>
<text transform="matrix(1 0 0 1 117.043 27.34)" class="st2 st25">Mango-IV aptamer</text>
<g id="ID000019">
	<text transform="matrix(1 0 0 1 312.48 150.12)" class="st1 st2 st3">G</text>
</g>
</svg>
