<?xml version="1.0" encoding="utf-8"?>
<!-- Generator: Adobe Illustrator 27.0.0, SVG Export Plug-In . SVG Version: 6.00 Build 0)  -->
<svg version="1.1" id="_图层_1" xmlns="http://www.w3.org/2000/svg" xmlns:xlink="http://www.w3.org/1999/xlink" x="0px" y="0px"
	 viewBox="0 0 400 400" style="enable-background:new 0 0 400 400;" xml:space="preserve">
<style type="text/css">
	.st0{fill:#8527B5;}
	.st1{fill:#FFFFFF;}
	.st2{font-family:'ArialMT';}
	.st3{font-size:8.8687px;}
	.st4{fill:#18988C;}
	.st5{font-size:22.0098px;}
	.st6{opacity:0.5;fill:#0A0BFF;enable-background:new    ;}
	.st7{fill:#B83332;}
	.st8{letter-spacing:-3;}
	.st9{fill:none;stroke:#000000;stroke-miterlimit:2.19;}
	.st10{font-size:17.0432px;}
	.st11{fill:#C2B617;}
	.st12{fill:#084595;}
	.st13{fill:#2EA103;}
	.st14{fill:none;stroke:#000000;stroke-width:0.75;stroke-miterlimit:2.19;}
	.st15{stroke:#000000;stroke-miterlimit:2.19;}
	.st16{fill:#FFFFFF;stroke:#000000;stroke-miterlimit:2.19;}
	.st17{letter-spacing:-1;}
	.st18{font-size:20px;}
</style>
<rect x="313.7" y="189.4" transform="matrix(0.2925 -0.9563 0.9563 0.2925 47.785 462.7259)" class="st0" width="45.9" height="19.4"/>
<text transform="matrix(0.284 -0.9588 0.9588 0.284 333.4319 220.413)" class="st1 st2 st3">YO3-biotin</text>
<g id="ID000011">
	<text transform="matrix(1 0 0 1 307.0635 234.9867)" class="st4 st2 st5">G</text>
</g>
<g id="ID000028">
	<text transform="matrix(1 0 0 1 307.0635 178.9286)" class="st4 st2 st5">G</text>
</g>
<polygon class="st6" points="285.7,188.8 313.3,175.8 313.3,227.7 285.7,240.7 "/>
<g id="ID000010">
	<text transform="matrix(1 0 0 1 230.6201 234.9867)" class="st4 st2 st5">G</text>
</g>
<g id="ID000030">
	<text transform="matrix(1 0 0 1 230.6201 178.9286)" class="st4 st2 st5">G</text>
</g>
<polygon class="st6" points="208.8,190.1 236.4,177.1 236.4,229 208.8,242.1 "/>
<g id="ID000002">
	<text transform="matrix(1 0 0 1 12.2598 195.0624)" class="st7 st2 st5">G</text>
</g>
<g id="ID000003">
	<text transform="matrix(1 0 0 1 33.2939 195.0624)" class="st7 st2 st5">C</text>
</g>
<g id="ID000004">
	<text transform="matrix(1 0 0 1 53.6777 195.0624)" class="st7 st2 st5">U</text>
</g>
<g id="ID000005">
	<text transform="matrix(1 0 0 1 74.7051 195.0624)" class="st7 st2 st5 st8">A</text>
</g>
<g id="ID000006">
	<text transform="matrix(1 0 0 1 94.4521 195.0624)" class="st7 st2 st5">C</text>
</g>
<g id="ID000007">
	<text transform="matrix(1 0 0 1 114.1855 195.0624)" class="st7 st2 st5">G</text>
</g>
<g id="ID000008">
	<text transform="matrix(1 0 0 1 135.8633 195.0624)" class="st7 st2 st5 st8">A</text>
</g>
<g id="ID000009">
	<text transform="matrix(1 0 0 1 152.7002 195.0624)" class="st7 st2 st5 st8">A</text>
</g>
<g id="ID000012">
	<line class="st9" x1="371.1" y1="225.8" x2="324.7" y2="225.8"/>
</g>
<g id="ID000013">
	<text transform="matrix(1 0 0 1 372.4717 231.0931)" class="st2 st10">10</text>
</g>
<g id="ID000014">
	<text transform="matrix(1 0 0 1 333.8408 153.4442)" class="st11 st2 st5 st8">A</text>
</g>
<g id="ID000015">
	<text transform="matrix(1 0 0 1 267.5889 153.4442)" class="st12 st2 st5 st8">A</text>
</g>
<g id="ID000016">
	<text transform="matrix(1 0 0 1 200.0449 250.2796)" class="st4 st2 st5">G</text>
</g>
<g id="ID000017">
	<text transform="matrix(1 0 0 1 276.4951 250.2796)" class="st4 st2 st5">G</text>
</g>
<g id="ID000018">
	<text transform="matrix(1 0 0 1 333.8408 250.2796)" class="st13 st2 st5 st8">A</text>
</g>
<g id="ID000019">
	<text transform="matrix(1 0 0 1 277.1377 285.9545)" class="st11 st2 st5">U</text>
</g>
<g id="ID000020">
	<text transform="matrix(1 0 0 1 200.6953 285.9545)" class="st13 st2 st5">U</text>
</g>
<g id="ID000021">
	<text transform="matrix(1 0 0 1 200.0449 194.2186)" class="st4 st2 st5">G</text>
</g>
<g id="ID000022">
	<text transform="matrix(1 0 0 1 276.4951 194.2186)" class="st4 st2 st5">G</text>
</g>
<g id="ID000023">
	<text transform="matrix(1 0 0 1 277.1377 122.869)" class="st12 st2 st5">U</text>
</g>
<g id="ID000024">
	<line class="st9" x1="153.5" y1="113.7" x2="277.4" y2="113.7"/>
</g>
<g id="ID000025">
	<text transform="matrix(1 0 0 1 135.1543 119.579)" class="st2 st10">20</text>
</g>
<g id="ID000026">
	<text transform="matrix(1 0 0 1 293.0654 122.869)" class="st12 st2 st5 st8">A</text>
</g>
<g id="ID000027">
	<text transform="matrix(1 0 0 1 348.4893 178.9286)" class="st13 st2 st5">U</text>
</g>
<g id="ID000029">
	<text transform="matrix(1 0 0 1 266.9531 178.9286)" class="st12 st2 st5">U</text>
</g>
<g id="ID000031">
	<text transform="matrix(1 0 0 1 230.6201 92.285)" class="st12 st2 st5">G</text>
</g>
<g id="ID000032">
	<text transform="matrix(1 0 0 1 277.1377 92.285)" class="st12 st2 st5">U</text>
</g>
<g id="ID000033">
	<text transform="matrix(1 0 0 1 293.0654 92.285)" class="st12 st2 st5 st8">A</text>
</g>
<g id="ID000034">
	<text transform="matrix(1 0 0 1 302.6221 71.9012)" class="st12 st2 st5">U</text>
</g>
<g id="ID000035">
	<text transform="matrix(1 0 0 1 171.5977 71.9012)" class="st12 st2 st5 st8">A</text>
</g>
<g id="ID000036">
	<line class="st9" x1="160.7" y1="63.4" x2="174.3" y2="63.4"/>
</g>
<g id="ID000037">
	<text transform="matrix(1 0 0 1 142.5 69.0565)" class="st2 st10">30</text>
</g>
<g id="ID000038">
	<text transform="matrix(1 0 0 1 160.5635 236.8793)" class="st7 st2 st5">U</text>
</g>
<g id="ID000039">
	<text transform="matrix(1 0 0 1 135.2051 236.8793)" class="st7 st2 st5">U</text>
</g>
<g id="ID000040">
	<text transform="matrix(1 0 0 1 114.8213 236.8793)" class="st7 st2 st5">C</text>
</g>
<g id="ID000041">
	<text transform="matrix(1 0 0 1 93.7803 236.8793)" class="st7 st2 st5">G</text>
</g>
<g id="ID000042">
	<text transform="matrix(1 0 0 1 74.0469 236.8793)" class="st7 st2 st5">U</text>
</g>
<g id="ID000043">
	<text transform="matrix(1 0 0 1 54.2988 236.8793)" class="st7 st2 st5 st8">A</text>
</g>
<g id="ID000044">
	<text transform="matrix(1 0 0 1 32.6221 236.8793)" class="st7 st2 st5">G</text>
</g>
<g id="ID000045">
	<text transform="matrix(1 0 0 1 12.8955 236.8793)" class="st7 st2 st5">C</text>
</g>
<g id="ID000046">
	<line class="st9" x1="21.3" y1="219.8" x2="21.3" y2="195.4"/>
</g>
<g id="ID000047">
	<line class="st9" x1="41.6" y1="219.8" x2="41.6" y2="195.4"/>
</g>
<g id="ID000048">
	<line class="st9" x1="62" y1="219.8" x2="62" y2="195.4"/>
</g>
<g id="ID000049">
	<line class="st9" x1="82.4" y1="219.8" x2="82.4" y2="195.4"/>
</g>
<g id="ID000050">
	<line class="st9" x1="102.8" y1="219.8" x2="102.8" y2="195.4"/>
</g>
<g id="ID000051">
	<line class="st9" x1="123.2" y1="219.8" x2="123.2" y2="195.4"/>
</g>
<g id="ID000052">
	<line class="st9" x1="143.6" y1="219.8" x2="143.6" y2="195.4"/>
</g>
<g id="ID000053">
	<line class="st9" x1="167.6" y1="220.1" x2="161.9" y2="196.3"/>
</g>
<g id="ID000054">
	<line class="st14" x1="285.6" y1="121.8" x2="285.6" y2="176.9"/>
</g>
<g id="ID000055">
	<polygon class="st15" points="282.5,158.3 284.1,156.6 284.6,154.9 284.8,153.2 285.6,149.8 286.4,153.2 286.6,154.9 287.1,156.6 
		288.7,158.3 	"/>
</g>
<g id="ID000057">
	<line class="st14" x1="308" y1="225.8" x2="247.9" y2="225.8"/>
</g>
<g id="ID000058">
	<polygon class="st15" points="275.4,222.8 277.1,224.2 278.8,224.8 280.5,225.1 283.9,225.8 280.5,226.6 278.8,226.8 277.1,227.4 
		275.4,228.9 	"/>
</g>
<g id="ID000059">
	<line class="st14" x1="231.7" y1="225.1" x2="167.2" y2="195.9"/>
</g>
<g id="ID000060">
	<polygon class="st15" points="200.5,207.2 201.4,209.3 202.7,210.5 204.1,211.5 206.9,213.5 203.5,212.8 201.8,212.3 200.1,212.1 
		197.9,212.8 	"/>
</g>
<g id="ID000061">
	<line class="st14" x1="213.8" y1="234.4" x2="270.8" y2="151"/>
</g>
<g id="ID000062">
	<polygon class="st15" points="246.8,191.4 244.5,192 243.2,193.1 242,194.3 239.4,196.8 240.8,193.5 241.5,192 242,190.3 
		241.7,188 	"/>
</g>
<g id="ID000063">
	<line class="st14" x1="277.4" y1="241.1" x2="217.3" y2="241.1"/>
</g>
<g id="ID000064">
	<polygon class="st15" points="244.8,238.1 246.5,239.5 248.2,240.1 249.9,240.4 253.3,241.1 249.9,241.8 248.2,242.1 246.5,242.7 
		244.8,244.1 	"/>
</g>
<g id="ID000065">
	<line class="st14" x1="281.2" y1="144.3" x2="336.6" y2="144.3"/>
</g>
<g id="ID000066">
	<polygon class="st15" points="311.1,147.3 309.4,145.8 307.7,145.3 306,145 302.6,144.3 306,143.5 307.7,143.2 309.4,142.7 
		311.1,141.2 	"/>
</g>
<g id="ID000067">
	<line class="st14" x1="339.2" y1="152" x2="318.6" y2="218"/>
</g>
<g id="ID000068">
	<polygon class="st15" points="324.7,187.7 326.6,186.6 327.7,185.1 328.4,183.5 330.1,180.6 329.8,184 329.6,185.7 329.5,187.5 
		330.5,189.6 	"/>
</g>
<g id="ID000069">
	<path class="st14" d="M192.4,186.9v91.2"/>
</g>
<g id="ID000070">
	<polygon class="st15" points="189.3,245.3 190.9,243.7 191.4,241.9 191.6,240.3 192.4,236.9 193.2,240.3 193.4,241.9 193.9,243.7 
		195.5,245.3 	"/>
</g>
<g id="ID000071">
	<line class="st14" x1="277.4" y1="185" x2="217.3" y2="185"/>
</g>
<g id="ID000072">
	<polygon class="st15" points="229.9,182 231.6,183.5 233.3,184 235,184.3 238.4,185 235,185.8 233.3,186 231.6,186.6 229.9,188.1 	
		"/>
</g>
<g id="ID000073">
	<line class="st14" x1="239.7" y1="91.3" x2="239.7" y2="161.6"/>
</g>
<g id="ID000074">
	<polygon class="st15" points="236.7,139 238.2,137.3 238.7,135.6 239,133.9 239.7,130.5 240.5,133.9 240.8,135.6 241.3,137.3 
		242.8,139 	"/>
</g>
<g id="ID000075">
	<line class="st14" x1="324.4" y1="169.8" x2="348.7" y2="169.8"/>
</g>
<g id="ID000076">
	<polygon class="st15" points="344.1,172.8 342.4,171.3 340.7,170.7 339,170.5 335.6,169.8 339,169 340.7,168.7 342.4,168.2 
		344.1,166.7 	"/>
</g>
<g id="ID000077">
	<line class="st9" x1="217" y1="274.7" x2="333.7" y2="243.2"/>
</g>
<g id="ID000078">
	<polygon class="st15" points="279,255.4 280.2,259.8 283.4,256.5 	"/>
</g>
<g id="ID000079">
	<polygon class="st15" points="269.7,261 269.8,261.1 269.9,261.2 270,261.4 270,261.4 270,261.6 270.2,261.6 270.3,261.7 
		270.3,261.8 270.4,261.9 270.6,262 270.6,262.1 270.8,262.1 270.8,262.2 271,262.2 271.1,262.2 271.2,262.3 271.4,262.3 
		271.5,262.3 271.6,262.4 271.7,262.4 271.9,262.3 272,262.3 272.1,262.3 272.3,262.2 272.4,262.2 272.5,262.2 272.6,262.2 
		272.8,262.1 272.8,262 272.9,261.9 273.1,261.9 273.1,261.8 273.2,261.6 273.3,261.6 273.4,261.4 273.4,261.4 273.5,261.2 
		273.6,261.1 273.7,261 273.7,260.8 273.7,260.8 273.7,260.6 273.7,260.5 273.7,260.4 273.7,260.2 273.7,260.1 273.7,259.9 
		273.7,259.9 273.7,259.7 273.6,259.6 273.6,259.5 273.5,259.4 273.4,259.3 273.4,259.1 273.3,259.1 273.2,258.9 273.1,258.8 
		273,258.8 272.9,258.7 272.8,258.6 272.7,258.5 272.6,258.5 272.5,258.5 272.3,258.4 272.3,258.3 272.1,258.3 272,258.3 
		271.8,258.3 271.7,258.3 271.6,258.3 271.4,258.3 271.4,258.3 271.2,258.3 271.1,258.4 270.9,258.4 270.8,258.5 270.7,258.5 
		270.6,258.6 270.5,258.7 270.4,258.8 270.3,258.8 270.2,258.9 270.1,259 270,259.1 270,259.2 269.9,259.4 269.9,259.4 269.8,259.6 
		269.7,259.7 269.7,259.8 269.7,259.9 269.7,260.1 269.7,260.2 269.7,260.3 269.7,260.5 269.7,260.6 269.7,260.7 269.7,260.8 	"/>
</g>
<g id="ID000080">
	<line class="st9" x1="300.2" y1="91.3" x2="300.2" y2="105.6"/>
</g>
<g id="ID000081">
	<polygon class="st16" points="298.1,96.4 298.1,100.5 302.2,100.5 302.2,96.4 	"/>
</g>
<g id="ID000082">
	<line class="st9" x1="275.4" y1="166.2" x2="275.4" y2="150.8"/>
</g>
<g id="ID000083">
	<polygon class="st16" points="273.4,154 273.4,158 277.4,158 277.4,154 	"/>
</g>
<g id="ID000084">
	<polygon class="st16" points="275.5,163.6 275.7,163.6 275.8,163.6 275.9,163.6 276,163.6 276.2,163.5 276.2,163.4 276.4,163.4 
		276.5,163.3 276.6,163.3 276.7,163.2 276.8,163.1 276.9,163 277,162.9 277.1,162.8 277.1,162.7 277.2,162.5 277.3,162.5 
		277.3,162.3 277.4,162.2 277.4,162.1 277.4,161.9 277.4,161.8 277.4,161.7 277.4,161.6 277.4,161.4 277.4,161.3 277.4,161.2 
		277.4,161.1 277.4,160.9 277.3,160.8 277.2,160.7 277.1,160.6 277.1,160.5 277.1,160.4 276.9,160.2 276.8,160.2 276.8,160.1 
		276.7,160 276.5,159.9 276.5,159.9 276.3,159.8 276.2,159.7 276.1,159.7 275.9,159.7 275.9,159.6 275.7,159.6 275.6,159.6 
		275.4,159.6 275.4,159.6 275.2,159.6 275.1,159.6 274.9,159.6 274.8,159.7 274.7,159.7 274.5,159.7 274.5,159.8 274.3,159.9 
		274.2,159.9 274.1,160 274,160.1 274,160.2 273.9,160.2 273.8,160.4 273.7,160.5 273.7,160.6 273.6,160.7 273.5,160.8 273.4,160.9 
		273.4,161.1 273.4,161.2 273.4,161.3 273.4,161.4 273.4,161.6 273.4,161.7 273.4,161.8 273.4,161.9 273.4,162.1 273.4,162.2 
		273.5,162.3 273.6,162.5 273.6,162.5 273.7,162.7 273.7,162.8 273.8,162.9 273.9,163 274,163.1 274.1,163.2 274.2,163.3 
		274.3,163.3 274.4,163.4 274.5,163.4 274.6,163.5 274.8,163.6 274.9,163.6 275,163.6 275.1,163.6 275.3,163.6 275.4,163.6 	"/>
</g>
<g id="ID000085">
	<line class="st9" x1="355.3" y1="177.8" x2="343.4" y2="233.1"/>
</g>
<g id="ID000086">
	<polygon class="st16" points="349.6,203.4 349.5,203.4 349.3,203.4 349.2,203.4 349.1,203.4 349,203.4 348.8,203.4 348.7,203.5 
		348.6,203.5 348.5,203.6 348.4,203.6 348.2,203.7 348.2,203.8 348,203.8 347.9,203.9 347.9,204 347.7,204.1 347.6,204.2 
		347.6,204.3 347.5,204.4 347.5,204.5 347.4,204.7 347.3,204.8 347.3,204.9 347.3,205 347.3,205.2 347.3,205.3 347.3,205.4 
		347.3,205.5 347.3,205.7 347.3,205.8 347.3,205.9 347.3,206.1 347.4,206.1 347.5,206.3 347.5,206.4 347.6,206.5 347.6,206.7 
		347.7,206.7 347.8,206.8 347.9,206.9 348,207 348.1,207.1 348.2,207.2 348.3,207.2 348.5,207.2 348.5,207.3 348.7,207.4 
		348.8,207.4 349,207.5 349,207.5 349.2,207.5 349.3,207.5 349.5,207.5 349.6,207.5 349.7,207.4 349.9,207.4 349.9,207.3 
		350.1,207.3 350.2,207.2 350.3,207.2 350.4,207.1 350.5,207 350.6,207 350.7,206.9 350.8,206.8 350.9,206.7 351,206.6 351,206.5 
		351.1,206.4 351.2,206.3 351.2,206.1 351.3,206 351.3,205.9 351.3,205.8 351.3,205.6 351.3,205.5 351.3,205.4 351.3,205.3 
		351.3,205.1 351.3,205 351.3,204.9 351.2,204.7 351.2,204.6 351.1,204.5 351,204.4 351,204.3 350.9,204.1 350.8,204.1 350.7,204 
		350.7,203.9 350.5,203.8 350.4,203.7 350.3,203.7 350.2,203.6 350.1,203.6 350,203.5 349.9,203.5 349.7,203.4 	"/>
</g>
<g id="ID000087">
	<line class="st9" x1="284.9" y1="92" x2="284.9" y2="106.2"/>
</g>
<g id="ID000088">
	<polygon class="st16" points="284.7,96.4 284.6,96.4 284.5,96.4 284.4,96.5 284.2,96.5 284.2,96.5 284,96.5 283.9,96.6 283.8,96.7 
		283.7,96.8 283.6,96.8 283.5,96.9 283.4,97.1 283.3,97.1 283.2,97.2 283.1,97.3 283,97.4 283,97.6 283,97.6 283,97.8 282.9,97.9 
		282.9,98 282.9,98.2 282.8,98.3 282.8,98.5 282.8,98.5 282.9,98.7 282.9,98.8 282.9,99 283,99 283,99.2 283,99.3 283.1,99.4 
		283.2,99.5 283.3,99.6 283.3,99.7 283.4,99.9 283.5,99.9 283.6,100 283.7,100.1 283.9,100.2 283.9,100.2 284.1,100.2 284.2,100.3 
		284.3,100.4 284.4,100.4 284.5,100.5 284.7,100.5 284.8,100.5 285,100.5 285.1,100.5 285.2,100.5 285.3,100.4 285.5,100.4 
		285.6,100.3 285.7,100.2 285.9,100.2 285.9,100.2 286,100.1 286.1,100 286.2,99.9 286.3,99.9 286.4,99.7 286.5,99.6 286.6,99.5 
		286.7,99.4 286.7,99.3 286.7,99.2 286.8,99 286.9,99 286.9,98.8 286.9,98.7 286.9,98.5 286.9,98.5 286.9,98.3 286.9,98.2 286.9,98 
		286.9,97.9 286.8,97.8 286.8,97.6 286.7,97.6 286.7,97.4 286.6,97.3 286.5,97.2 286.4,97.1 286.4,97.1 286.3,96.9 286.2,96.8 
		286.1,96.8 286,96.7 285.9,96.6 285.8,96.5 285.6,96.5 285.6,96.5 285.4,96.5 285.3,96.4 285.1,96.4 285,96.4 284.9,96.4 	"/>
</g>
<g id="ID000089">
	<line class="st9" x1="303.2" y1="65" x2="247.6" y2="80.9"/>
</g>
<g id="ID000090">
	<polygon class="st15" points="268.4,75 268.4,75.2 268.5,75.3 268.6,75.4 268.6,75.5 268.7,75.6 268.8,75.7 268.9,75.8 268.9,75.9 
		269.1,76 269.1,76.1 269.3,76.1 269.4,76.2 269.5,76.3 269.6,76.3 269.7,76.4 269.9,76.4 270,76.4 270.1,76.4 270.3,76.4 
		270.4,76.4 270.5,76.4 270.6,76.4 270.8,76.4 270.9,76.4 271,76.3 271.1,76.2 271.2,76.2 271.4,76.1 271.4,76.1 271.6,76 
		271.7,75.9 271.8,75.8 271.9,75.7 272,75.6 272,75.5 272.1,75.4 272.2,75.3 272.2,75.2 272.3,75 272.3,74.9 272.3,74.8 272.3,74.7 
		272.3,74.5 272.3,74.4 272.3,74.3 272.3,74.1 272.3,74 272.3,73.8 272.3,73.8 272.2,73.6 272.2,73.6 272.1,73.4 272,73.3 272,73.2 
		271.9,73.1 271.8,73 271.7,72.9 271.6,72.8 271.5,72.7 271.4,72.7 271.3,72.6 271.1,72.5 271.1,72.4 270.9,72.4 270.8,72.4 
		270.7,72.4 270.6,72.4 270.4,72.4 270.3,72.4 270.2,72.4 270,72.4 269.9,72.4 269.7,72.4 269.7,72.4 269.5,72.5 269.4,72.5 
		269.3,72.6 269.2,72.7 269.1,72.7 269,72.8 268.9,72.9 268.8,73 268.7,73.1 268.6,73.2 268.6,73.3 268.5,73.4 268.4,73.6 
		268.4,73.7 268.3,73.8 268.3,73.9 268.3,74.1 268.3,74.1 268.3,74.3 268.3,74.4 268.3,74.6 268.3,74.7 268.3,74.8 268.3,75 	"/>
</g>
<g id="ID000091">
	<polygon class="st15" points="281.9,69 278,70.1 279.1,74 283,72.9 	"/>
</g>
<g id="ID000092">
	<line class="st9" x1="247.5" y1="172.4" x2="277.9" y2="182.5"/>
</g>
<g id="ID000093">
	<polygon class="st15" points="268.9,179.6 269,179.5 269,179.3 269,179.2 269,179.1 269,178.9 269,178.8 269,178.7 268.9,178.6 
		268.9,178.4 268.9,178.4 268.9,178.2 268.8,178.1 268.7,178 268.6,177.8 268.6,177.8 268.5,177.7 268.3,177.6 268.3,177.5 
		268.2,177.4 268,177.3 268,177.2 267.8,177.2 267.7,177.2 267.6,177.1 267.4,177.1 267.4,177.1 267.2,177 267.1,177 266.9,177 
		266.8,177 266.7,177 266.6,177.1 266.4,177.1 266.3,177.2 266.2,177.2 266,177.2 266,177.3 265.9,177.4 265.7,177.5 265.7,177.5 
		265.5,177.6 265.5,177.7 265.4,177.8 265.3,177.9 265.2,178 265.2,178.1 265.1,178.3 265.1,178.4 265,178.5 265,178.6 264.9,178.7 
		264.9,178.9 264.9,179 264.9,179.1 264.9,179.2 264.9,179.4 265,179.5 265,179.6 265.1,179.8 265.1,179.9 265.2,180 265.2,180.1 
		265.3,180.2 265.4,180.3 265.5,180.4 265.5,180.5 265.6,180.6 265.7,180.7 265.8,180.8 266,180.9 266,180.9 266.2,180.9 266.3,181 
		266.4,181 266.6,181.1 266.7,181.1 266.8,181.1 266.9,181.1 267.1,181.1 267.2,181.1 267.3,181.1 267.4,181.1 267.6,181 267.7,181 
		267.8,180.9 267.9,180.9 268,180.8 268.2,180.7 268.3,180.6 268.3,180.6 268.5,180.5 268.6,180.4 268.6,180.3 268.7,180.2 
		268.8,180.1 268.8,180 268.9,179.8 268.9,179.7 	"/>
</g>
<g id="ID000094">
	<polygon class="st15" points="257.9,177.8 261.8,179 263,175.1 259.2,173.8 	"/>
</g>
<g id="ID000095">
	<line class="st9" x1="215.7" y1="238.9" x2="231.8" y2="230.9"/>
</g>
<g id="ID000096">
	<polygon class="st15" points="227.4,232.9 227.3,232.8 227.2,232.7 227.2,232.6 227.1,232.5 226.9,232.4 226.9,232.3 226.8,232.2 
		226.7,232.2 226.6,232.1 226.4,232.1 226.4,232 226.2,231.9 226.1,231.9 225.9,231.9 225.8,231.9 225.7,231.9 225.5,231.9 
		225.4,231.9 225.3,231.9 225.2,231.9 225,231.9 225,232 224.8,232.1 224.7,232.2 224.6,232.2 224.4,232.2 224.4,232.3 224.3,232.5 
		224.1,232.5 224.1,232.6 224,232.7 223.9,232.8 223.8,232.9 223.8,233 223.8,233.1 223.7,233.3 223.6,233.4 223.6,233.5 
		223.6,233.6 223.6,233.8 223.5,233.9 223.6,234 223.6,234.2 223.6,234.3 223.6,234.4 223.7,234.5 223.7,234.7 223.8,234.8 
		223.8,234.9 223.9,235 224,235.1 224.1,235.2 224.1,235.3 224.2,235.4 224.3,235.5 224.4,235.6 224.5,235.6 224.7,235.7 
		224.7,235.8 224.9,235.9 225,235.9 225.1,235.9 225.2,235.9 225.4,235.9 225.5,235.9 225.6,236 225.8,235.9 225.9,235.9 
		226.1,235.9 226.1,235.9 226.3,235.9 226.4,235.9 226.5,235.8 226.7,235.7 226.7,235.6 226.8,235.6 226.9,235.5 227,235.4 
		227.2,235.3 227.2,235.2 227.3,235.1 227.4,235 227.5,234.9 227.5,234.7 227.5,234.7 227.5,234.5 227.6,234.4 227.6,234.3 
		227.7,234.2 227.7,234 227.7,233.9 227.7,233.8 227.6,233.6 227.6,233.5 227.6,233.3 227.5,233.3 227.5,233.1 227.5,233 	"/>
</g>
<g id="ID000097">
	<polygon class="st15" points="219.5,239.3 223.1,237.5 221.3,233.8 217.6,235.6 	"/>
</g>
<g id="ID000098">
	<line class="st9" x1="285.6" y1="193.2" x2="285.6" y2="233"/>
</g>
<g id="ID000099">
	<polygon class="st15" points="285.7,217.6 285.9,217.5 286,217.5 286.1,217.5 286.2,217.4 286.4,217.4 286.4,217.4 286.6,217.3 
		286.7,217.2 286.8,217.2 286.9,217.1 287,217 287.1,216.9 287.2,216.8 287.3,216.7 287.3,216.6 287.4,216.5 287.5,216.3 
		287.5,216.3 287.6,216.1 287.6,216 287.6,215.9 287.6,215.7 287.6,215.6 287.6,215.5 287.6,215.4 287.6,215.2 287.6,215.1 
		287.6,215 287.6,214.9 287.5,214.7 287.4,214.6 287.3,214.5 287.3,214.4 287.2,214.3 287.1,214.2 287,214.1 287,214 286.9,213.9 
		286.7,213.8 286.7,213.8 286.5,213.8 286.4,213.7 286.3,213.6 286.1,213.6 286.1,213.5 285.9,213.5 285.8,213.5 285.6,213.5 
		285.6,213.5 285.4,213.5 285.3,213.5 285.1,213.5 285,213.6 284.9,213.6 284.7,213.7 284.7,213.8 284.5,213.8 284.4,213.8 
		284.3,213.9 284.2,214 284.2,214.1 284.1,214.2 284,214.3 283.9,214.4 283.9,214.5 283.8,214.6 283.7,214.7 283.6,214.9 283.6,215 
		283.6,215.1 283.6,215.2 283.6,215.4 283.6,215.5 283.6,215.6 283.6,215.7 283.6,215.9 283.6,216 283.6,216.1 283.7,216.3 
		283.7,216.3 283.8,216.5 283.9,216.6 283.9,216.7 284,216.8 284.1,216.9 284.2,217 284.3,217.1 284.4,217.2 284.5,217.2 
		284.6,217.3 284.7,217.4 284.8,217.4 285,217.4 285.1,217.5 285.2,217.5 285.3,217.5 285.5,217.6 285.6,217.6 	"/>
</g>
<g id="ID000100">
	<polygon class="st15" points="283.6,205.7 283.6,209.8 287.6,209.8 287.6,205.7 	"/>
</g>
<g id="ID000101">
	<line class="st9" x1="209.1" y1="193.2" x2="209.1" y2="233"/>
</g>
<g id="ID000102">
	<polygon class="st15" points="209.3,211.2 209.4,211.2 209.5,211.2 209.7,211.1 209.8,211.1 209.9,211 210,211 210.2,210.9 
		210.2,210.9 210.3,210.8 210.5,210.7 210.5,210.6 210.6,210.5 210.8,210.4 210.8,210.4 210.9,210.2 210.9,210.1 211,210 
		211.1,209.8 211.1,209.8 211.1,209.6 211.1,209.5 211.2,209.4 211.2,209.2 211.2,209.1 211.2,208.9 211.2,208.9 211.1,208.7 
		211.1,208.6 211.1,208.5 211.1,208.4 211,208.2 210.9,208.1 210.8,208 210.8,207.9 210.7,207.8 210.6,207.7 210.5,207.6 
		210.4,207.5 210.3,207.5 210.2,207.4 210.1,207.3 209.9,207.2 209.9,207.2 209.7,207.2 209.6,207.2 209.4,207.1 209.4,207.1 
		209.2,207.1 209.1,207.1 209,207.1 208.8,207.1 208.7,207.2 208.5,207.2 208.5,207.2 208.3,207.2 208.2,207.3 208.1,207.4 
		208,207.5 207.9,207.5 207.8,207.6 207.7,207.7 207.6,207.8 207.5,207.9 207.4,208 207.4,208.1 207.3,208.2 207.3,208.4 
		207.2,208.5 207.2,208.6 207.1,208.7 207.1,208.9 207.1,208.9 207.1,209.1 207.1,209.2 207.1,209.4 207.1,209.5 207.1,209.6 
		207.2,209.8 207.2,209.8 207.3,210 207.4,210.1 207.4,210.2 207.5,210.4 207.6,210.4 207.7,210.5 207.7,210.6 207.8,210.7 
		208,210.8 208,210.9 208.2,210.9 208.2,211 208.4,211 208.5,211.1 208.6,211.1 208.8,211.2 208.9,211.2 209,211.2 209.1,211.2 	"/>
</g>
<g id="ID000103">
	<polygon class="st15" points="207.1,199.3 207.1,203.4 211.2,203.4 211.2,199.3 	"/>
</g>
<g id="ID000104">
	<line class="st9" x1="292.9" y1="237.5" x2="308.9" y2="229.5"/>
</g>
<g id="ID000105">
	<polygon class="st15" points="304.6,231.5 304.5,231.3 304.4,231.3 304.3,231.2 304.3,231 304.1,231 304,230.9 304,230.8 
		303.8,230.8 303.7,230.7 303.6,230.6 303.4,230.6 303.4,230.5 303.2,230.5 303.1,230.5 302.9,230.5 302.9,230.5 302.7,230.5 
		302.6,230.5 302.5,230.5 302.3,230.5 302.2,230.5 302.1,230.6 302,230.7 301.8,230.7 301.7,230.8 301.6,230.8 301.5,230.9 
		301.4,231 301.3,231.1 301.2,231.2 301.2,231.3 301.1,231.4 301,231.5 300.9,231.6 300.9,231.7 300.9,231.9 300.8,231.9 
		300.8,232.1 300.8,232.2 300.8,232.4 300.7,232.5 300.8,232.6 300.8,232.7 300.8,232.9 300.8,233 300.9,233.1 300.9,233.3 
		300.9,233.3 301,233.5 301.1,233.6 301.2,233.7 301.2,233.8 301.3,233.9 301.4,234 301.4,234.1 301.6,234.2 301.7,234.2 
		301.8,234.3 301.9,234.4 302,234.4 302.2,234.4 302.3,234.4 302.4,234.5 302.6,234.5 302.6,234.5 302.8,234.5 302.9,234.5 
		303.1,234.5 303.1,234.5 303.3,234.4 303.4,234.4 303.5,234.4 303.7,234.4 303.8,234.3 303.9,234.2 304,234.2 304.1,234.1 
		304.2,234 304.3,233.9 304.4,233.8 304.5,233.7 304.6,233.6 304.6,233.5 304.6,233.3 304.7,233.3 304.8,233.1 304.8,233 
		304.8,232.8 304.8,232.7 304.8,232.6 304.8,232.5 304.8,232.3 304.8,232.2 304.8,232.1 304.8,231.9 304.7,231.9 304.6,231.7 
		304.6,231.6 	"/>
</g>
<g id="ID000106">
	<polygon class="st15" points="296.6,237.8 300.3,236 298.5,232.4 294.8,234.2 	"/>
</g>
<g id="ID000107">
	<line class="st14" x1="283.6" y1="169.8" x2="308" y2="169.8"/>
</g>
<g id="ID000108">
	<polygon class="st15" points="298.3,172.8 296.6,171.3 294.9,170.7 293.2,170.5 289.8,169.8 293.2,169 294.9,168.7 296.6,168.2 
		298.3,166.7 	"/>
</g>
<g id="ID000109">
	<line class="st14" x1="247.9" y1="169.8" x2="268.6" y2="169.8"/>
</g>
<g id="ID000110">
	<polygon class="st15" points="265.8,172.8 264.1,171.3 262.4,170.7 260.7,170.5 257.3,169.8 260.7,169 262.4,168.7 264.1,168.2 
		265.8,166.7 	"/>
</g>
<g id="ID000111">
	<line class="st14" x1="333.5" y1="241.1" x2="293.8" y2="241.1"/>
</g>
<g id="ID000112">
	<polygon class="st15" points="311.1,238.1 312.8,239.5 314.5,240.1 316.2,240.4 319.6,241.1 316.2,241.8 314.5,242.1 312.8,242.7 
		311.1,244.1 	"/>
</g>
<g id="ID000113">
	<line class="st14" x1="292.5" y1="272.4" x2="334.8" y2="245.5"/>
</g>
<g id="ID000114">
	<polygon class="st15" points="318.2,259.6 316,259.2 314.3,259.7 312.7,260.4 309.4,261.6 311.9,259.1 313.2,258 314.4,256.6 
		315,254.4 	"/>
</g>
<g id="ID000115">
	<polyline class="st14" points="357,161.6 357,113.7 309.1,113.7 	"/>
</g>
<g id="ID000116">
	<polygon class="st15" points="330.4,110.7 332.1,112.1 333.8,112.6 335.5,112.9 338.9,113.7 335.5,114.4 333.8,114.7 332.1,115.2 
		330.4,116.7 	"/>
</g>
<g id="ID000117">
	<line class="st14" x1="184.7" y1="62.8" x2="302.9" y2="62.8"/>
</g>
<g id="ID000118">
	<polygon class="st15" points="249.9,65.8 248.2,64.2 246.5,63.7 244.8,63.5 241.4,62.8 244.8,61.9 246.5,61.7 248.2,61.2 
		249.9,59.7 	"/>
</g>
<g id="ID000119">
	<line class="st14" x1="173" y1="220.2" x2="178.5" y2="70.9"/>
</g>
<g id="ID000120">
	<polygon class="st15" points="181.3,82 179.7,83.7 179.1,85.4 178.8,87.1 177.9,90.5 177.3,87 177.1,85.3 176.6,83.6 175.1,81.8 	
		"/>
</g>
<g id="ID000121">
	<line class="st14" x1="277.4" y1="83.1" x2="247.9" y2="83.1"/>
</g>
<g id="ID000122">
	<polygon class="st15" points="260.1,80.1 261.8,81.6 263.5,82.1 265.2,82.3 268.6,83.1 265.2,83.9 263.5,84.1 261.8,84.6 
		260.1,86.2 	"/>
</g>
<g id="ID000123">
	<line class="st14" x1="217.3" y1="276.8" x2="277.4" y2="276.8"/>
</g>
<g id="ID000123-2">
	<line class="st14" x1="192.4" y1="277.8" x2="202.4" y2="277.8"/>
</g>
<g id="ID000123-3">
	<line class="st14" x1="192.4" y1="187.1" x2="201.4" y2="187.1"/>
</g>
<g id="ID000124">
	<polygon class="st15" points="249.9,279.8 248.2,278.3 246.5,277.8 244.8,277.5 241.4,276.8 244.8,276 246.5,275.8 248.2,275.2 
		249.9,273.7 	"/>
</g>
<g>
	<text transform="matrix(1 0 0 1 8.1436 176.4374)" class="st2 st10">5</text>
	<text transform="matrix(1 0 0 1 17.625 176.4374)" class="st2 st10 st17">’</text>
</g>
<g>
	<text transform="matrix(1 0 0 1 8.1436 252.8656)" class="st2 st10">3</text>
	<text transform="matrix(1 0 0 1 17.625 252.8656)" class="st2 st10 st17">’</text>
</g>
<g>
	<text transform="matrix(1 0 0 1 117.6 26.53)" class="st2 st18">Mango-III</text>
	<text transform="matrix(1 0 0 1 206.54 26.53)" class="st2 st18">aptamer</text>
</g>
</svg>
