<?xml version="1.0" encoding="utf-8"?>
<!-- Generator: Adobe Illustrator 25.2.0, SVG Export Plug-In . SVG Version: 6.00 Build 0)  -->
<svg version="1.1" id="图层_1" xmlns="http://www.w3.org/2000/svg" xmlns:xlink="http://www.w3.org/1999/xlink" x="0px" y="0px"
	 viewBox="0 0 800 400" style="enable-background:new 0 0 800 400;" xml:space="preserve">
<style type="text/css">
	.st0{fill:#C2B617;}
	.st1{font-family:'ArialMT';}
	.st2{font-size:15.55px;}
	.st3{fill:#2EA103;}
	.st4{fill:none;stroke:#000000;stroke-miterlimit:1.11;}
	.st5{fill:#B83233;}
	.st6{fill:none;stroke:#000000;stroke-width:0.14;stroke-miterlimit:1.11;}
	.st7{font-size:11.57px;}
	.st8{stroke:#000000;stroke-miterlimit:1.11;}
	.st9{font-size:18px;}
	.st10{font-size:20px;}
</style>
<g id="ID000002">
	<text transform="matrix(1 0 0 1 232.8717 295.0358)" class="st0 st1 st2">G</text>
</g>
<g id="ID000003">
	<text transform="matrix(1 0 0 1 252.0017 295.0358)" class="st0 st1 st2">G</text>
</g>
<g id="ID000004">
	<text transform="matrix(1 0 0 1 271.1317 295.0358)" class="st0 st1 st2">G</text>
</g>
<g id="ID000005">
	<text transform="matrix(1 0 0 1 287.3017 295.0358)" class="st0 st1 st2">A</text>
</g>
<g id="ID000006">
	<text transform="matrix(1 0 0 1 302.6017 295.0358)" class="st0 st1 st2">A</text>
</g>
<g id="ID000007">
	<text transform="matrix(1 0 0 1 317.4717 295.0358)" class="st0 st1 st2">U</text>
</g>
<g id="ID000008">
	<text transform="matrix(1 0 0 1 332.3517 295.0358)" class="st0 st1 st2">G</text>
</g>
<g id="ID000009">
	<text transform="matrix(1 0 0 1 346.3717 295.0358)" class="st0 st1 st2">G</text>
</g>
<g id="ID000010">
	<text transform="matrix(1 0 0 1 347.2417 281.0158)" class="st3 st1 st2">A</text>
</g>
<g id="ID000011">
	<text transform="matrix(1 0 0 1 346.8117 265.7058)" class="st3 st1 st2">U</text>
</g>
<g id="ID000012">
	<line class="st4" x1="342.2" y1="258.8" x2="332" y2="258.8"/>
</g>
<g id="ID000013">
	<text transform="matrix(1 0 0 1 314.7217 265.7058)" class="st1 st2">10</text>
</g>
<g id="ID000014">
	<text transform="matrix(1 0 0 1 346.8117 250.4058)" class="st3 st1 st2">C</text>
</g>
<g id="ID000015">
	<text transform="matrix(1 0 0 1 346.8117 235.1058)" class="st3 st1 st2">C</text>
</g>
<g id="ID000016">
	<text transform="matrix(1 0 0 1 347.2417 219.7958)" class="st3 st1 st2">A</text>
</g>
<g id="ID000017">
	<g>
		<text transform="matrix(1 0 0 1 394.4217 207.0458)" class="st3 st1 st2">A</text>
	</g>
</g>
<g id="ID000018">
	<g>
		<text transform="matrix(1 0 0 1 377.4117 219.7958)" class="st3 st1 st2">U</text>
	</g>
</g>
<g id="ID000019">
	<g>
		<text transform="matrix(1 0 0 1 376.9817 235.1058)" class="st3 st1 st2">G</text>
	</g>
</g>
<g id="ID000020">
	<g>
		<text transform="matrix(1 0 0 1 376.9817 250.4058)" class="st3 st1 st2">G</text>
	</g>
</g>
<g id="ID000021">
	<line class="st4" x1="393.2" y1="243.5" x2="403.4" y2="243.5"/>
</g>
<g id="ID000022">
	<text transform="matrix(1 0 0 1 403.4317 250.4058)" class="st1 st2">40</text>
</g>
<g id="ID000023">
	<g>
		<text transform="matrix(1 0 0 1 377.8417 265.7058)" class="st3 st1 st2">A</text>
	</g>
</g>
<g id="ID000024">
	<g>
		<text transform="matrix(1 0 0 1 377.4117 281.0158)" class="st3 st1 st2">U</text>
	</g>
</g>
<g id="ID000025">
	<text transform="matrix(1 0 0 1 376.9817 296.3158)" class="st0 st1 st2">G</text>
</g>
<g id="ID000026">
	<text transform="matrix(1 0 0 1 378.6917 314.1658)" class="st0 st1 st2">U</text>
</g>
<g id="ID000027">
	<line class="st4" x1="358.5" y1="274.1" x2="376.9" y2="274.1"/>
</g>
<g id="ID000028">
	<line class="st4" x1="358.5" y1="258.8" x2="376.9" y2="258.8"/>
</g>
<g id="ID000029">
	<line class="st4" x1="358.5" y1="243.5" x2="376.9" y2="243.5"/>
</g>
<g id="ID000030">
	<line class="st4" x1="358.5" y1="228.2" x2="376.9" y2="228.2"/>
</g>
<g id="ID000031">
	<line class="st4" x1="358.5" y1="212.9" x2="376.9" y2="212.9"/>
</g>
<g id="ID000033">
	<text transform="matrix(1 0 0 1 348.0817 199.3958)" class="st3 st1 st2">C</text>
</g>
<g id="ID000034">
	<text transform="matrix(1 0 0 1 348.5117 184.0958)" class="st3 st1 st2">A</text>
</g>
<g id="ID000035">
	<text transform="matrix(1 0 0 1 348.0817 168.7858)" class="st3 st1 st2">U</text>
</g>
<g id="ID000036">
	<text transform="matrix(1 0 0 1 348.0817 153.4858)" class="st3 st1 st2">C</text>
</g>
<g id="ID000037">
	<text transform="matrix(1 0 0 1 348.0817 138.1758)" class="st3 st1 st2">U</text>
</g>
<g id="ID000038">
	<text transform="matrix(1 0 0 1 348.5117 122.8758)" class="st3 st1 st2">A</text>
</g>
<g id="ID000039">
	<text transform="matrix(1 0 0 1 348.0817 107.5758)" class="st3 st1 st2">C</text>
</g>
<g id="ID000040">
	<line class="st4" x1="343.5" y1="100.7" x2="333.3" y2="100.7"/>
</g>
<g id="ID000041">
	<text transform="matrix(1 0 0 1 316.0017 107.5758)" class="st1 st2">20</text>
</g>
<g id="ID000042">
	<text transform="matrix(1 0 0 1 347.6517 92.2758)" class="st3 st1 st2">G</text>
</g>
<g id="ID000043">
	<g>
		<text transform="matrix(1 0 0 1 333.2117 76.9658)" class="st3 st1 st2">A</text>
	</g>
</g>
<g id="ID000044">
	<g>
		<text transform="matrix(1 0 0 1 333.2117 61.6658)" class="st3 st1 st2">A</text>
	</g>
</g>
<g id="ID000045">
	<g>
		<text transform="matrix(1 0 0 1 344.2617 46.3658)" class="st3 st1 st2">U</text>
	</g>
</g>
<g id="ID000046">
	<g>
		<text transform="matrix(1 0 0 1 363.3917 42.5358)" class="st3 st1 st2">U</text>
	</g>
</g>
<g id="ID000047">
	<g>
		<text transform="matrix(1 0 0 1 378.6917 46.3658)" class="st3 st1 st2">C</text>
	</g>
</g>
<g id="ID000048">
	<g>
		<text transform="matrix(1 0 0 1 386.7717 61.6658)" class="st3 st1 st2">A</text>
	</g>
</g>
<g id="ID000049">
	<g>
		<text transform="matrix(1 0 0 1 386.3417 80.7958)" class="st3 st1 st2">C</text>
	</g>
</g>
<g id="ID000050">
	<g>
		<text transform="matrix(1 0 0 1 378.6917 92.2758)" class="st3 st1 st2">C</text>
	</g>
</g>
<g id="ID000051">
	<g>
		<text transform="matrix(1 0 0 1 378.2617 107.5758)" class="st3 st1 st2">G</text>
	</g>
</g>
<g id="ID000052">
	<line class="st4" x1="394.5" y1="100.7" x2="404.7" y2="100.7"/>
</g>
<g id="ID000053">
	<text transform="matrix(1 0 0 1 404.7117 107.5758)" class="st1 st2">30</text>
</g>
<g id="ID000054">
	<g>
		<text transform="matrix(1 0 0 1 378.6917 122.8758)" class="st3 st1 st2">U</text>
	</g>
</g>
<g id="ID000055">
	<g>
		<text transform="matrix(1 0 0 1 379.1217 138.1758)" class="st3 st1 st2">A</text>
	</g>
</g>
<g id="ID000056">
	<g>
		<text transform="matrix(1 0 0 1 378.2617 153.4858)" class="st3 st1 st2">G</text>
	</g>
</g>
<g id="ID000057">
	<g>
		<text transform="matrix(1 0 0 1 379.1217 168.7858)" class="st3 st1 st2">A</text>
	</g>
</g>
<g id="ID000058">
	<g>
		<text transform="matrix(1 0 0 1 378.6917 184.0958)" class="st3 st1 st2">U</text>
	</g>
</g>
<g id="ID000059">
	<g>
		<text transform="matrix(1 0 0 1 378.2617 199.3958)" class="st3 st1 st2">G</text>
	</g>
</g>
<g id="ID000060">
	<line class="st4" x1="359.8" y1="192.5" x2="378.2" y2="192.5"/>
</g>
<g id="ID000061">
	<line class="st4" x1="359.8" y1="177.2" x2="378.2" y2="177.2"/>
</g>
<g id="ID000062">
	<line class="st4" x1="359.8" y1="161.9" x2="378.2" y2="161.9"/>
</g>
<g id="ID000063">
	<line class="st4" x1="359.8" y1="146.6" x2="378.2" y2="146.6"/>
</g>
<g id="ID000064">
	<line class="st4" x1="359.8" y1="131.3" x2="378.2" y2="131.3"/>
</g>
<g id="ID000065">
	<line class="st4" x1="359.8" y1="116" x2="378.2" y2="116"/>
</g>
<g id="ID000066">
	<line class="st4" x1="359.8" y1="100.7" x2="378.2" y2="100.7"/>
</g>
<g id="ID000067">
	<line class="st4" x1="359.8" y1="85.4" x2="378.2" y2="85.4"/>
</g>
<g id="ID000069">
	<text transform="matrix(1 0 0 1 389.7317 325.6458)" class="st0 st1 st2">G</text>
</g>
<g id="ID000070">
	<g>
		<text transform="matrix(1 0 0 1 405.4717 325.6458)" class="st5 st1 st2">C</text>
	</g>
</g>
<g id="ID000071">
	<g>
		<text transform="matrix(1 0 0 1 420.3417 325.6458)" class="st5 st1 st2">G</text>
	</g>
</g>
<g id="ID000072">
	<g>
		<text transform="matrix(1 0 0 1 435.6417 325.6458)" class="st5 st1 st2">G</text>
	</g>
</g>
<g id="ID000073">
	<g>
		<text transform="matrix(1 0 0 1 451.3817 325.6458)" class="st5 st1 st2">U</text>
	</g>
</g>
<g id="ID000074">
	<text transform="matrix(1 0 0 1 445.7617 357.5958)" class="st5 st1 st2">A</text>
</g>
<g id="ID000075">
	<text transform="matrix(1 0 0 1 420.7717 356.2558)" class="st5 st1 st2">C</text>
</g>
<g id="ID000076">
	<text transform="matrix(1 0 0 1 405.0417 356.2558)" class="st5 st1 st2">G</text>
</g>
<g id="ID000077">
	<text transform="matrix(1 0 0 1 396.3917 367.7358)" class="st0 st1 st2">A</text>
</g>
<g id="ID000078">
	<text transform="matrix(1 0 0 1 383.5117 376.6558)" class="st0 st1 st2">A</text>
</g>
<g id="ID000079">
	<text transform="matrix(1 0 0 1 365.8717 379.2058)" class="st0 st1 st2">G</text>
</g>
<g id="ID000080">
	<text transform="matrix(1 0 0 1 350.5717 372.7158)" class="st0 st1 st2">C</text>
</g>
<g id="ID000081">
	<text transform="matrix(1 0 0 1 340.1717 361.3958)" class="st0 st1 st2">U</text>
</g>
<g id="ID000082">
	<text transform="matrix(1 0 0 1 335.5517 345.1158)" class="st0 st1 st2">U</text>
</g>
<g id="ID000083">
	<line class="st4" x1="336.1" y1="345.2" x2="330.3" y2="353.6"/>
</g>
<g id="ID000084">
	<text transform="matrix(1 0 0 1 316.4017 369.7758)" class="st1 st2">80</text>
</g>
<g id="ID000085">
	<line class="st4" x1="411.1" y1="324.9" x2="411.1" y2="343.2"/>
</g>
<g id="ID000086">
	<line class="st4" x1="426.4" y1="324.9" x2="426.4" y2="343.2"/>
</g>
<g id="ID000088">
	<g>
		<text transform="matrix(1 0 0 1 470.9417 325.6458)" class="st5 st1 st2">A</text>
	</g>
</g>
<g id="ID000089">
	<line class="st6" x1="476.1" y1="308.6" x2="476.1" y2="298.4"/>
</g>
<g id="ID000090">
	<text transform="matrix(1 0 0 1 467.4817 294.5358)" class="st1 st2">50</text>
</g>
<g id="ID000091">
	<g>
		<text transform="matrix(1 0 0 1 485.3817 325.6458)" class="st5 st1 st2">G</text>
	</g>
</g>
<g id="ID000092">
	<g>
		<text transform="matrix(1 0 0 1 501.5417 325.6458)" class="st5 st1 st2">A</text>
	</g>
</g>
<g id="ID000093">
	<g>
		<text transform="matrix(1 0 0 1 515.9917 325.6458)" class="st5 st1 st2">G</text>
	</g>
</g>
<g id="ID000094">
	<g>
		<text transform="matrix(1 0 0 1 531.7217 325.6458)" class="st5 st1 st2">U</text>
	</g>
</g>
<g id="ID000095">
	<g>
		<text transform="matrix(1 0 0 1 547.0317 325.6458)" class="st5 st1 st2">C</text>
	</g>
</g>
<g id="ID000096">
	<g>
		<text transform="matrix(1 0 0 1 562.3317 325.6458)" class="st5 st1 st2">U</text>
	</g>
</g>
<g id="ID000097">
	<g>
		<text transform="matrix(1 0 0 1 577.6317 317.9958)" class="st5 st1 st2">U</text>
	</g>
</g>
<g id="ID000098">
	<g>
		<text transform="matrix(1 0 0 1 596.7617 314.1658)" class="st5 st1 st2">U</text>
	</g>
</g>
<g id="ID000099">
	<g>
		<text transform="matrix(1 0 0 1 612.0617 321.8258)" class="st5 st1 st2">C</text>
	</g>
</g>
<g id="ID000100">
	<g>
		<text transform="matrix(1 0 0 1 623.9717 337.1259)" class="st5 st1 st2">A</text>
	</g>
</g>
<g id="ID000101">
	<line class="st4" x1="636.4" y1="323" x2="643.6" y2="315.8"/>
</g>
<g id="ID000102">
	<text transform="matrix(1 0 0 1 648.7817 310.5059)" class="st1 st7">60</text>
</g>
<g id="ID000103">
	<g>
		<text transform="matrix(1 0 0 1 623.5417 356.2558)" class="st5 st1 st2">C</text>
	</g>
</g>
<g id="ID000104">
	<g>
		<text transform="matrix(1 0 0 1 608.2417 367.7358)" class="st5 st1 st2">U</text>
	</g>
</g>
<g id="ID000105">
	<g>
		<text transform="matrix(1 0 0 1 592.5017 367.7358)" class="st5 st1 st2">G</text>
	</g>
</g>
<g id="ID000106">
	<g>
		<text transform="matrix(1 0 0 1 577.6317 363.9058)" class="st5 st1 st2">C</text>
	</g>
</g>
<g id="ID000107">
	<text transform="matrix(1 0 0 1 562.7617 356.2558)" class="st5 st1 st2">A</text>
</g>
<g id="ID000108">
	<text transform="matrix(1 0 0 1 546.5917 356.2558)" class="st5 st1 st2">G</text>
</g>
<g id="ID000109">
	<text transform="matrix(1 0 0 1 532.1517 356.2558)" class="st5 st1 st2">A</text>
</g>
<g id="ID000110">
	<text transform="matrix(1 0 0 1 516.4217 356.2558)" class="st5 st1 st2">C</text>
</g>
<g id="ID000111">
	<text transform="matrix(1 0 0 1 501.1217 356.2558)" class="st5 st1 st2">U</text>
</g>
<g id="ID000112">
	<text transform="matrix(1 0 0 1 485.8117 356.2558)" class="st5 st1 st2">U</text>
</g>
<g id="ID000113">
	<line class="st4" x1="491.4" y1="359.6" x2="491.4" y2="369.8"/>
</g>
<g id="ID000114">
	<text transform="matrix(1 0 0 1 482.7817 387.8258)" class="st1 st2">70</text>
</g>
<g id="ID000115">
	<text transform="matrix(1 0 0 1 461.9017 357.8758)" class="st5 st1 st2">G</text>
</g>
<g id="ID000116">
	<polygon class="st8" points="491.4,337.1 491.6,337.1 491.8,337.1 492,337.1 492.2,337 492.4,337 492.6,336.9 492.7,336.8 
		492.9,336.7 493.1,336.6 493.2,336.5 493.4,336.4 493.5,336.3 493.7,336.1 493.8,336 493.9,335.8 494,335.7 494.1,335.5 
		494.2,335.3 494.3,335.2 494.4,335 494.4,334.8 494.4,334.6 494.5,334.4 494.5,334.2 494.5,334 494.5,333.8 494.5,333.6 
		494.4,333.4 494.4,333.2 494.3,333.1 494.3,332.9 494.2,332.7 494.1,332.5 494,332.4 493.9,332.2 493.7,332.1 493.6,331.9 
		493.5,331.8 493.3,331.7 493.2,331.5 493,331.4 492.8,331.3 492.7,331.3 492.5,331.2 492.3,331.1 492.1,331.1 491.9,331 491.7,331 
		491.5,331 491.3,331 491.1,331 490.9,331 490.8,331.1 490.6,331.1 490.4,331.2 490.2,331.3 490,331.3 489.9,331.4 489.7,331.5 
		489.5,331.7 489.4,331.8 489.3,331.9 489.1,332.1 489,332.2 488.9,332.4 488.8,332.5 488.7,332.7 488.6,332.9 488.5,333.1 
		488.5,333.2 488.4,333.4 488.4,333.6 488.4,333.8 488.4,334 488.4,334.2 488.4,334.4 488.4,334.6 488.5,334.8 488.5,335 
		488.6,335.2 488.6,335.3 488.7,335.5 488.8,335.7 488.9,335.8 489.1,336 489.2,336.1 489.3,336.3 489.5,336.4 489.6,336.5 
		489.8,336.6 489.9,336.7 490.1,336.8 490.3,336.9 490.5,337 490.7,337 490.9,337.1 491,337.1 491.2,337.1 	"/>
</g>
<g id="ID000117">
	<line class="st4" x1="506.7" y1="324.9" x2="506.7" y2="343.2"/>
</g>
<g id="ID000118">
	<line class="st4" x1="522" y1="324.9" x2="522" y2="343.2"/>
</g>
<g id="ID000119">
	<line class="st4" x1="537.3" y1="324.9" x2="537.3" y2="343.2"/>
</g>
<g id="ID000120">
	<line class="st4" x1="552.6" y1="324.9" x2="552.6" y2="343.2"/>
</g>
<g id="ID000121">
	<line class="st4" x1="567.9" y1="324.9" x2="567.9" y2="343.2"/>
</g>
<text transform="matrix(1 0 0 1 221.5517 274.1259)" class="st1 st9">5</text>
<text transform="matrix(1 0 0 1 231.5617 274.1259)" class="st1 st9">’</text>
<text transform="matrix(1 0 0 1 297.7017 352.5858)" class="st1 st9">3</text>
<text transform="matrix(1 0 0 1 307.7117 352.5858)" class="st1 st9">’</text>
<text transform="matrix(1 0 0 1 328.1611 21.2877)" class="st1 st10">RNA20 aptamer</text>
</svg>
