<?xml version="1.0" encoding="utf-8"?>
<!-- Generator: Adobe Illustrator 25.2.0, SVG Export Plug-In . SVG Version: 6.00 Build 0)  -->
<svg version="1.1" id="图层_1" xmlns="http://www.w3.org/2000/svg" xmlns:xlink="http://www.w3.org/1999/xlink" x="0px" y="0px"
	 viewBox="0 0 800 400" style="enable-background:new 0 0 800 400;" xml:space="preserve">
<style type="text/css">
	.st0{fill:#CF3E7D;}
	.st1{font-family:'ArialMT';}
	.st2{font-size:11.4631px;}
	.st3{fill:none;stroke:#000000;stroke-miterlimit:3.05;}
	.st4{font-size:9.1705px;}
	.st5{fill:#18988C;}
	.st6{font-size:7.6421px;}
	.st7{font-size:20px;}
	.st8{fill:#B83233;}
	.st9{fill:#C2B617;}
	.st10{fill:#084595;}
	.st11{fill:none;stroke:#000000;stroke-width:0.38;stroke-miterlimit:3.05;}
</style>
<g id="ID000010">
	<text transform="matrix(1 0 0 1 411.0352 222.055)" class="st0 st1 st2">C</text>
</g>
<g id="ID000011">
	<text transform="matrix(1 0 0 1 380.291 245.7455)" class="st0 st1 st2">C</text>
</g>
<g id="ID000019">
	<text transform="matrix(1 0 0 1 411.0508 245.8597)" class="st0 st1 st2">A</text>
</g>
<g id="ID000020">
	<text transform="matrix(1 0 0 1 379.6533 221.8597)" class="st0 st1 st2">G</text>
</g>
<g id="ID000021">
	<line class="st3" x1="409.7" y1="217.2" x2="390.4" y2="217.1"/>
</g>
<text transform="matrix(1 0 0 1 425.8496 333.515)" class="st1 st4">5</text>
<text transform="matrix(1 0 0 1 430.9502 333.515)" class="st1 st4">’</text>
<text transform="matrix(1 0 0 1 332.7227 379.0765)" class="st1 st4">3</text>
<text transform="matrix(1 0 0 1 337.6094 379.0765)" class="st1 st4">’</text>
<g id="ID000002-3">
	<text transform="matrix(1 0 0 1 232.4556 190.0951)" class="st5 st1 st2">U</text>
</g>
<g id="ID000011-2">
	<text transform="matrix(1 0 0 1 411.0352 234.6302)" class="st0 st1 st2">U</text>
</g>
<g id="ID000019-2">
	<text transform="matrix(1 0 0 1 380.8984 234.473)" class="st0 st1 st2">A</text>
</g>
<g id="ID000022-2">
	<line class="st3" x1="409.7" y1="229.9" x2="390.4" y2="229.8"/>
</g>
<g id="ID000019-3">
	<text transform="matrix(1 0 0 1 411.0352 209.8851)" class="st0 st1 st2">C</text>
</g>
<g id="ID000018">
	<text transform="matrix(1 0 0 1 368.5254 199.2621)" class="st1 st6">60</text>
</g>
<g id="ID000003-2">
	<text transform="matrix(1 0 0 1 411.0352 187.2757)" class="st0 st1 st2">C</text>
</g>
<g id="ID000005-5">
	<text transform="matrix(1 0 0 1 379.6533 186.8827)" class="st0 st1 st2">G</text>
</g>
<g id="ID000010-2">
	<text transform="matrix(1 0 0 1 411.0352 198.4408)" class="st0 st1 st2">C</text>
</g>
<g id="ID000020-3">
	<text transform="matrix(1 0 0 1 379.6533 198.1654)" class="st0 st1 st2">G</text>
</g>
<text transform="matrix(1 0 0 1 301.162 28.1183)" class="st1 st7">N17yc16 aptamer</text>
<g id="ID000020-3-2">
	<text transform="matrix(1 0 0 1 379.6533 209.4496)" class="st0 st1 st2">G</text>
</g>
<line class="st3" x1="409.7" y1="194.2" x2="390.4" y2="194.1"/>
<line class="st3" x1="409.7" y1="205.5" x2="390.4" y2="205.3"/>
<line class="st3" x1="409.7" y1="182.8" x2="390.4" y2="182.7"/>
<g id="ID000018-2">
	<text transform="matrix(1 0 0 1 254.1138 291.1292)" class="st1 st6">20</text>
</g>
<g id="ID000005-5-2">
	<text transform="matrix(1 0 0 1 423.4346 164.0208)" class="st0 st1 st2">A</text>
</g>
<g id="ID000010-2-2">
	<text transform="matrix(1 0 0 1 412.9033 155.37)" class="st0 st1 st2">U</text>
</g>
<g id="ID000020-2">
	<text transform="matrix(1 0 0 1 381.2646 155.1756)" class="st0 st1 st2">A</text>
</g>
<g id="ID000021-2">
	<line class="st3" x1="411.3" y1="150.6" x2="391.9" y2="150.5"/>
</g>
<g id="ID000019-3-2">
	<text transform="matrix(1 0 0 1 412.8838 143.2)" class="st0 st1 st2">C</text>
</g>
<g id="ID000003-2-2">
	<text transform="matrix(1 0 0 1 412.1357 114.057)" class="st0 st1 st2">U</text>
</g>
<g id="ID000005-5-3">
	<text transform="matrix(1 0 0 1 380.627 112.2186)" class="st0 st1 st2">A</text>
</g>
<g id="ID000010-2-3">
	<text transform="matrix(1 0 0 1 412.4834 130.9271)" class="st0 st1 st2">C</text>
</g>
<g id="ID000020-3-3">
	<text transform="matrix(1 0 0 1 380.8643 130.6517)" class="st0 st1 st2">G</text>
</g>
<g id="ID000020-3-4">
	<text transform="matrix(1 0 0 1 380.627 142.7645)" class="st0 st1 st2">G</text>
</g>
<line class="st3" x1="410.8" y1="126.7" x2="391.4" y2="126.5"/>
<line class="st3" x1="411.2" y1="138.8" x2="391.9" y2="138.7"/>
<line class="st3" x1="411.2" y1="108.5" x2="391.9" y2="108.3"/>
<g id="ID000002-5">
	<text transform="matrix(1 0 0 1 421.6885 120.9383)" class="st0 st1 st2">A</text>
</g>
<g id="ID000005-5-4">
	<text transform="matrix(1 0 0 1 372.7441 74.3451)" class="st0 st1 st2">A</text>
</g>
<g id="ID000010-2-4">
	<text transform="matrix(1 0 0 1 412.8838 100.6869)" class="st0 st1 st2">G</text>
</g>
<g id="ID000020-3-5">
	<text transform="matrix(1 0 0 1 381.2646 100.6717)" class="st0 st1 st2">C</text>
</g>
<line class="st3" x1="411.2" y1="96.4" x2="391.9" y2="96.3"/>
<g id="ID000003-2-3">
	<text transform="matrix(1 0 0 1 375.1289 87.9325)" class="st0 st1 st2">C</text>
</g>
<g id="ID000005-5-5">
	<text transform="matrix(1 0 0 1 415.2412 65.7166)" class="st0 st1 st2">G</text>
</g>
<g id="ID000018-2-2">
	<text transform="matrix(1 0 0 1 286.1357 186.1405)" class="st1 st6">40</text>
</g>
<g id="ID000003-2-4">
	<text transform="matrix(1 0 0 1 418.5703 87.9325)" class="st0 st1 st2">C</text>
</g>
<g id="ID000005-5-6">
	<text transform="matrix(1 0 0 1 424.875 75.9422)" class="st0 st1 st2">A</text>
</g>
<g id="ID000005-5-7">
	<text transform="matrix(1 0 0 1 380.4131 63.8714)" class="st0 st1 st2">G</text>
</g>
<g id="ID000005-5-8">
	<text transform="matrix(1 0 0 1 393.833 56.3055)" class="st0 st1 st2">A</text>
</g>
<g id="ID000003-2-5">
	<text transform="matrix(1 0 0 1 405.0635 56.3055)" class="st0 st1 st2">C</text>
</g>
<g id="ID000005-5-9">
	<text transform="matrix(1 0 0 1 423.4375 175.9657)" class="st0 st1 st2">A</text>
</g>
<g id="ID000020-3-6">
	<text transform="matrix(1 0 0 1 369.5195 161.1937)" class="st0 st1 st2">G</text>
</g>
<g id="ID000019-3-3">
	<text transform="matrix(1 0 0 1 360.708 166.0995)" class="st0 st1 st2">C</text>
</g>
<g id="ID000020-3-7">
	<text transform="matrix(1 0 0 1 361.2812 176.932)" class="st0 st1 st2">G</text>
</g>
<g id="ID000005-5-10">
	<text transform="matrix(1 0 0 1 370.126 182.8514)" class="st0 st1 st2">A</text>
</g>
<g id="ID000010-3">
	<text transform="matrix(1 0 0 1 411.2295 281.5033)" class="st0 st1 st2">U</text>
</g>
<g id="ID000020-3-8">
	<text transform="matrix(1 0 0 1 379.6533 281.1703)" class="st0 st1 st2">G</text>
</g>
<g id="ID000019-3-4">
	<text transform="matrix(1 0 0 1 411.0352 269.1947)" class="st0 st1 st2">G</text>
</g>
<g id="ID000010-2-5">
	<text transform="matrix(1 0 0 1 411.0508 257.7513)" class="st0 st1 st2">A</text>
</g>
<g id="ID000020-3-9">
	<text transform="matrix(1 0 0 1 380.291 257.4769)" class="st0 st1 st2">U</text>
</g>
<g id="ID000020-3-10">
	<text transform="matrix(1 0 0 1 380.291 268.7591)" class="st0 st1 st2">U</text>
</g>
<line class="st3" x1="409.7" y1="253.5" x2="390.3" y2="253.4"/>
<g id="ID000010-4">
	<text transform="matrix(1 0 0 1 237.373 175.7289)" class="st5 st1 st2">U</text>
</g>
<g id="ID000019-3-5">
	<text transform="matrix(1 0 0 1 325.623 366.6136)" class="st8 st1 st2">G</text>
</g>
<g id="ID000010-5">
	<text transform="matrix(1 0 0 1 428.3408 322.3382)" class="st9 st1 st2">U</text>
</g>
<g id="ID000019-3-6">
	<text transform="matrix(1 0 0 1 529.4453 332.9613)" class="st9 st1 st2">G</text>
</g>
<g id="ID000020-3-11">
	<text transform="matrix(1 0 0 1 277.3066 354.5267)" class="st8 st1 st2">U</text>
</g>
<g id="ID000010-6">
	<text transform="matrix(1 0 0 1 519.3506 339.0335)" class="st9 st1 st2">U</text>
</g>
<g id="ID000019-3-7">
	<text transform="matrix(1 0 0 1 306.3955 384.0589)" class="st8 st1 st2">G</text>
</g>
<g id="ID000010-7">
	<text transform="matrix(1 0 0 1 259.543 173.3329)" class="st5 st1 st2">U</text>
</g>
<g id="ID000020-3-12">
	<text transform="matrix(1 0 0 1 324.5996 302.0902)" class="st5 st1 st2">U</text>
</g>
<g id="ID000005-5-11">
	<text transform="matrix(1 0 0 1 363.9102 283.4906)" class="st0 st1 st2">A</text>
</g>
<g id="ID000005-5-12">
	<text transform="matrix(1 0 0 1 432.418 297.2689)" class="st9 st1 st2">A</text>
</g>
<g id="ID000005-5-13">
	<text transform="matrix(1 0 0 1 239.8032 334.9095)" class="st10 st1 st2">A</text>
</g>
<g id="ID000005-5-14">
	<text transform="matrix(1 0 0 1 349.3066 289.0609)" class="st5 st1 st2">A</text>
</g>
<g id="ID000005-5-15">
	<text transform="matrix(1 0 0 1 525.8848 306.0374)" class="st9 st1 st2">A</text>
</g>
<g id="ID000005-5-16">
	<text transform="matrix(1 0 0 1 534.2637 318.9496)" class="st9 st1 st2">A</text>
</g>
<g id="ID000005-5-17">
	<text transform="matrix(1 0 0 1 290.1523 350.3197)" class="st8 st1 st2">A</text>
</g>
<g id="ID000003-2-6">
	<text transform="matrix(1 0 0 1 272.2856 368.3978)" class="st8 st1 st2">A</text>
</g>
<g id="ID000005-5-18">
	<text transform="matrix(1 0 0 1 305.4404 216.1058)" class="st5 st1 st2">A</text>
</g>
<g id="ID000005-5-19">
	<text transform="matrix(1 0 0 1 421.0801 289.2171)" class="st0 st1 st2">G</text>
</g>
<g id="ID000005-5-20">
	<text transform="matrix(1 0 0 1 248.5034 167.7581)" class="st5 st1 st2">A</text>
</g>
<g id="ID000003-2-7">
	<text transform="matrix(1 0 0 1 243.9111 300.1039)" class="st10 st1 st2">C</text>
</g>
<line class="st3" x1="433.3" y1="312.6" x2="435.7" y2="299.5"/>
<g id="ID000010-8">
	<text transform="matrix(1 0 0 1 441.4736 323.7298)" class="st9 st1 st2">C</text>
</g>
<g id="ID000005-5-21">
	<text transform="matrix(1 0 0 1 445.5508 298.6595)" class="st9 st1 st2">G</text>
</g>
<line class="st3" x1="446.4" y1="313.9" x2="448.8" y2="300.9"/>
<g id="ID000010-9">
	<text transform="matrix(1 0 0 1 454.167 325.766)" class="st9 st1 st2">U</text>
</g>
<g id="ID000005-5-22">
	<text transform="matrix(1 0 0 1 458.2441 300.6966)" class="st9 st1 st2">A</text>
</g>
<line class="st3" x1="459.1" y1="316" x2="461.6" y2="302.9"/>
<g id="ID000010-10">
	<text transform="matrix(1 0 0 1 467.2998 327.1566)" class="st9 st1 st2">A</text>
</g>
<g id="ID000005-5-23">
	<text transform="matrix(1 0 0 1 471.377 302.0902)" class="st9 st1 st2">U</text>
</g>
<line class="st3" x1="472.3" y1="317.3" x2="474.6" y2="304.4"/>
<g id="ID000010-11">
	<text transform="matrix(1 0 0 1 479.8027 329.1937)" class="st9 st1 st2">A</text>
</g>
<g id="ID000005-5-24">
	<text transform="matrix(1 0 0 1 483.8799 304.1224)" class="st9 st1 st2">A</text>
</g>
<g id="ID000010-12">
	<text transform="matrix(1 0 0 1 492.9355 330.5843)" class="st9 st1 st2">C</text>
</g>
<g id="ID000005-5-25">
	<text transform="matrix(1 0 0 1 497.0117 305.5179)" class="st9 st1 st2">G</text>
</g>
<line class="st3" x1="497.9" y1="320.8" x2="500.3" y2="307.8"/>
<g id="ID000010-13">
	<text transform="matrix(1 0 0 1 507.8105 332.8236)" class="st9 st1 st2">G</text>
</g>
<g id="ID000005-5-26">
	<text transform="matrix(1 0 0 1 511.8877 307.7572)" class="st9 st1 st2">U</text>
</g>
<line class="st3" x1="335.1" y1="295.9" x2="345.9" y2="286.4"/>
<g id="ID000020-3-13">
	<text transform="matrix(1 0 0 1 315.3945 289.515)" class="st5 st1 st2">G</text>
</g>
<g id="ID000005-5-27">
	<text transform="matrix(1 0 0 1 340.1006 276.4857)" class="st5 st1 st2">U</text>
</g>
<g id="ID000020-3-14">
	<text transform="matrix(1 0 0 1 308.624 277.8499)" class="st5 st1 st2">G</text>
</g>
<g id="ID000005-5-28">
	<text transform="matrix(1 0 0 1 333.3271 264.8246)" class="st5 st1 st2">C</text>
</g>
<line class="st3" x1="319.2" y1="271.7" x2="329.9" y2="262.1"/>
<g id="ID000020-3-15">
	<text transform="matrix(1 0 0 1 298.5635 264.8246)" class="st5 st1 st2">C</text>
</g>
<g id="ID000005-5-29">
	<text transform="matrix(1 0 0 1 324.126 252.2494)" class="st5 st1 st2">G</text>
</g>
<line class="st3" x1="310" y1="259.1" x2="320.7" y2="249.5"/>
<g id="ID000020-3-16">
	<text transform="matrix(1 0 0 1 290.4512 254.3158)" class="st5 st1 st2">A</text>
</g>
<g id="ID000005-5-30">
	<text transform="matrix(1 0 0 1 315.1572 241.2904)" class="st5 st1 st2">U</text>
</g>
<line class="st3" x1="301" y1="248.1" x2="311.8" y2="238.6"/>
<g id="ID000020-3-17">
	<text transform="matrix(1 0 0 1 275.3232 243.9037)" class="st5 st1 st2">A</text>
</g>
<g id="ID000005-5-31">
	<text transform="matrix(1 0 0 1 311.7725 228.1615)" class="st5 st1 st2">G</text>
</g>
<g id="ID000020-3-18">
	<text transform="matrix(1 0 0 1 267.9756 228.1615)" class="st5 st1 st2">U</text>
</g>
<g id="ID000005-5-32">
	<text transform="matrix(1 0 0 1 293.5376 215.5902)" class="st5 st1 st2">A</text>
</g>
<line class="st3" x1="279.4" y1="222.5" x2="290.2" y2="212.8"/>
<g id="ID000020-3-19">
	<text transform="matrix(1 0 0 1 275.8081 193.9095)" class="st5 st1 st2">C</text>
</g>
<g id="ID000005-5-33">
	<text transform="matrix(1 0 0 1 284.5708 204.6273)" class="st5 st1 st2">C</text>
</g>
<line class="st3" x1="270.4" y1="211.5" x2="281.2" y2="201.9"/>
<g id="ID000020-3-20">
	<text transform="matrix(1 0 0 1 251.1021 207.6078)" class="st5 st1 st2">G</text>
</g>
<g id="ID000005-5-34">
	<text transform="matrix(1 0 0 1 258.9346 217.7953)" class="st5 st1 st2">G</text>
</g>
<line class="st3" x1="262.5" y1="201.9" x2="273.3" y2="192.3"/>
<g id="ID000020-3-21">
	<text transform="matrix(1 0 0 1 243.3027 197.0999)" class="st5 st1 st2">G</text>
</g>
<g id="ID000005-5-35">
	<text transform="matrix(1 0 0 1 267.6963 184.0736)" class="st5 st1 st2">C</text>
</g>
<line class="st3" x1="253.6" y1="190.9" x2="264.3" y2="181.4"/>
<g id="ID000010-14">
	<text transform="matrix(1 0 0 1 249.6079 333.3773)" class="st10 st1 st2">U</text>
</g>
<g id="ID000010-15">
	<text transform="matrix(1 0 0 1 233.3608 308.3539)" class="st10 st1 st2">U</text>
</g>
<g id="ID000005-5-36">
	<text transform="matrix(1 0 0 1 253.6846 308.3119)" class="st10 st1 st2">A</text>
</g>
<g id="ID000010-16">
	<text transform="matrix(1 0 0 1 262.7373 334.7718)" class="st10 st1 st2">U</text>
</g>
<g id="ID000005-5-37">
	<text transform="matrix(1 0 0 1 266.814 309.7015)" class="st10 st1 st2">A</text>
</g>
<g id="ID000010-17">
	<text transform="matrix(1 0 0 1 275.4341 336.805)" class="st10 st1 st2">C</text>
</g>
<g id="ID000005-5-38">
	<text transform="matrix(1 0 0 1 279.5107 311.7386)" class="st10 st1 st2">U</text>
</g>
<g id="ID000010-18">
	<text transform="matrix(1 0 0 1 288.5669 338.1996)" class="st10 st1 st2">G</text>
</g>
<g id="ID000005-5-39">
	<text transform="matrix(1 0 0 1 292.6445 313.1292)" class="st10 st1 st2">U</text>
</g>
<g id="ID000010-19">
	<text transform="matrix(1 0 0 1 301.0693 340.2357)" class="st10 st1 st2">A</text>
</g>
<g id="ID000005-5-40">
	<text transform="matrix(1 0 0 1 305.1475 315.1664)" class="st10 st1 st2">C</text>
</g>
<g id="ID000010-20">
	<g>
		<text transform="matrix(1 0 0 1 311.8604 342.4447)" class="st8 st1 st2">C</text>
	</g>
</g>
<g id="ID000005-5-41">
	<text transform="matrix(1 0 0 1 318.2754 316.5609)" class="st10 st1 st2">U</text>
</g>
<g id="ID000010-21">
	<text transform="matrix(1 0 0 1 279.4004 384.0589)" class="st8 st1 st2">G</text>
</g>
<g id="ID000005-5-42">
	<text transform="matrix(1 0 0 1 232.1343 322.472)" class="st10 st1 st2">U</text>
</g>
<line class="st3" x1="326.9" y1="355.9" x2="321.7" y2="344.7"/>
<g id="ID000019-3-8">
	<text transform="matrix(1 0 0 1 314.3281 374.0863)" class="st8 st1 st2">G</text>
</g>
<g id="ID000010-22">
	<text transform="matrix(1 0 0 1 301.8149 349.1048)" class="st8 st1 st2">C</text>
</g>
<line class="st3" x1="315.7" y1="363.4" x2="310.4" y2="352.2"/>
<g id="ID000003-2-8">
	<text transform="matrix(1 0 0 1 293.5498 388.7787)" class="st8 st1 st2">A</text>
</g>
<text transform="matrix(1 0 0 1 433.5459 132.9583)" class="st1 st6">80</text>
<text transform="matrix(1 0 0 1 493.5078 285.7259)" class="st1 st6">100</text>
<line class="st11" x1="257.5" y1="298.8" x2="257.5" y2="293"/>
<circle cx="333.5" cy="277.3" r="2.2"/>
<line class="st11" x1="289.7" y1="194.9" x2="289.7" y2="189.1"/>
<line class="st11" x1="372.7" y1="191.6" x2="372.7" y2="185.9"/>
<line class="st11" x1="431.8" y1="127.5" x2="428.3" y2="122.9"/>
<line class="st11" x1="502.2" y1="294.8" x2="502.2" y2="289.1"/>
<circle cx="399" cy="266.8" r="2.2"/>
<circle cx="399.2" cy="278.5" r="2.2"/>
</svg>
