<?xml version="1.0" encoding="utf-8"?>
<!-- Generator: Adobe Illustrator 25.2.0, SVG Export Plug-In . SVG Version: 6.00 Build 0)  -->
<svg version="1.1" id="图层_1" xmlns="http://www.w3.org/2000/svg" xmlns:xlink="http://www.w3.org/1999/xlink" x="0px" y="0px"
	 viewBox="0 0 800 400" style="enable-background:new 0 0 800 400;" xml:space="preserve">
<style type="text/css">
	.st0{font-family:'MicrosoftYaHei';}
	.st1{font-size:20px;}
	.st2{fill:#2EA103;}
	.st3{font-family:'Arial-BoldMT';}
	.st4{fill:#084595;}
	.st5{fill:none;stroke:#000000;stroke-miterlimit:1.7741;}
	.st6{font-family:'ArialMT';}
	.st7{fill:#B83233;}
	.st8{fill:#CF3E7D;}
	.st9{stroke:#000000;stroke-width:0.2218;stroke-miterlimit:1.7741;}
	.st10{fill:#18988C;}
	.st11{fill:#040000;}
</style>
<text transform="matrix(1 0 0 1 336.8386 26.0917)" class="st0 st1">no.21 aptamer</text>
<g id="topgroup">
	<g id="ID000000">
		<g>
			<g id="ID000002">
				<g transform="translate(441.117,552.531)">
					<g transform="rotate(-0.0)">
						<text transform="matrix(1 0 0 1 -130.5291 -299.5027)" class="st2 st3 st1">A</text>
					</g>
				</g>
			</g>
			<g id="ID000003">
				<g transform="translate(441.117,571.392)">
					<g transform="rotate(-0.0)">
						<text transform="matrix(1 0 0 1 -131.0413 -300.1147)" class="st4 st3 st1">G</text>
					</g>
				</g>
			</g>
			<g id="ID000004">
				<g transform="translate(441.117,590.252)">
					<g transform="rotate(-0.0)">
						<text transform="matrix(1 0 0 1 -131.0413 -300.7266)" class="st4 st3 st1">G</text>
					</g>
				</g>
			</g>
			<g id="ID000005">
				<g transform="translate(441.117,609.112)">
					<g transform="rotate(-0.0)">
						<text transform="matrix(1 0 0 1 -131.0413 -301.3386)" class="st4 st3 st1">G</text>
					</g>
				</g>
			</g>
			<g id="ID000006">
				<g transform="translate(441.117,627.972)">
					<g transform="rotate(-0.0)">
						<text transform="matrix(1 0 0 1 -131.0413 -301.9476)" class="st4 st3 st1">G</text>
					</g>
				</g>
			</g>
			<g id="ID000007">
				<g transform="translate(436.402,646.832)">
					<g transform="rotate(-0.0)">
						<text transform="matrix(1 0 0 1 -130.3766 -302.5634)" class="st2 st3 st1">A</text>
					</g>
				</g>
			</g>
			<g id="ID000008">
				<g transform="translate(431.687,670.408)">
					<g transform="rotate(-0.0)">
						<text transform="matrix(1 0 0 1 -130.2251 -303.326)" class="st2 st3 st1">C</text>
					</g>
				</g>
			</g>
			<g id="ID000009">
				<g transform="translate(445.832,684.553)">
					<g transform="rotate(-0.0)">
						<text transform="matrix(1 0 0 1 -130.6845 -303.7854)" class="st2 st3 st1">C</text>
					</g>
				</g>
			</g>
			<g id="ID000010">
				<line class="st5" x1="309.6" y1="372.6" x2="297.5" y2="372.6"/>
			</g>
			<g id="ID000011">
				<g transform="translate(420.685,684.553)">
					<g transform="rotate(-0.0)">
						<text transform="matrix(1 0 0 1 -143.6777 -303.7854)" class="st6 st1">30</text>
					</g>
				</g>
			</g>
			<g id="ID000012">
				<g transform="translate(469.407,684.553)">
					<g transform="rotate(-0.0)">
						<text transform="matrix(1 0 0 1 -131.9593 -303.7854)" class="st2 st3 st1">G</text>
					</g>
				</g>
			</g>
			<g id="ID000013">
				<g transform="translate(488.268,670.408)">
					<g transform="rotate(-0.0)">
						<text transform="matrix(1 0 0 1 -132.0615 -303.326)" class="st2 st3 st1">C</text>
					</g>
				</g>
			</g>
			<g id="ID000014">
				<g transform="translate(483.552,646.832)">
					<g transform="rotate(-0.0)">
						<text transform="matrix(1 0 0 1 -132.4197 -302.5634)" class="st2 st3 st1">G</text>
					</g>
				</g>
			</g>
			<g id="ID000015">
				<g transform="translate(478.837,627.972)">
					<g transform="rotate(-0.0)">
						<text transform="matrix(1 0 0 1 -131.754 -301.9476)" class="st4 st3 st1">C</text>
					</g>
				</g>
			</g>
			<g id="ID000016">
				<g transform="translate(478.837,609.112)">
					<g transform="rotate(-0.0)">
						<text transform="matrix(1 0 0 1 -131.754 -301.3386)" class="st4 st3 st1">C</text>
					</g>
				</g>
			</g>
			<g id="ID000017">
				<g transform="translate(478.837,590.252)">
					<g transform="rotate(-0.0)">
						<text transform="matrix(1 0 0 1 -131.754 -300.7266)" class="st4 st3 st1">C</text>
					</g>
				</g>
			</g>
			<g id="ID000018">
				<g transform="translate(478.837,571.392)">
					<g transform="rotate(-0.0)">
						<text transform="matrix(1 0 0 1 -131.754 -300.1147)" class="st4 st3 st1">C</text>
					</g>
				</g>
			</g>
			<g id="ID000019">
				<g transform="translate(478.837,552.531)">
					<g transform="rotate(-0.0)">
						<text transform="matrix(1 0 0 1 -131.754 -299.5027)" class="st2 st3 st1">A</text>
					</g>
				</g>
			</g>
			<g id="ID000020">
				<g transform="translate(478.837,533.671)">
					<g transform="rotate(-0.0)">
						<text transform="matrix(1 0 0 1 -131.754 -298.8888)" class="st2 st3 st1">C</text>
					</g>
				</g>
			</g>
			<g id="ID000021">
				<line class="st5" x1="324.5" y1="263.1" x2="346.4" y2="263.1"/>
			</g>
			<g id="ID000022">
				<line class="st5" x1="324.5" y1="281.3" x2="346.4" y2="281.3"/>
			</g>
			<g id="ID000023">
				<line class="st5" x1="324.5" y1="299.6" x2="346.4" y2="299.6"/>
			</g>
			<g id="ID000024">
				<line class="st5" x1="324.5" y1="317.8" x2="346.4" y2="317.8"/>
			</g>
			<g id="ID000025">
				<g transform="translate(422.257,458.230)">
					<g transform="rotate(-0.0)">
						<text transform="matrix(1 0 0 1 -130.4308 -296.4419)" class="st2 st3 st1">G</text>
					</g>
				</g>
			</g>
			<g id="ID000026">
				<g transform="translate(422.257,477.091)">
					<g transform="rotate(-0.0)">
						<text transform="matrix(1 0 0 1 -130.4308 -297.0549)" class="st2 st3 st1">G</text>
					</g>
				</g>
			</g>
			<g id="ID000027">
				<g transform="translate(422.257,495.951)">
					<g transform="rotate(-0.0)">
						<text transform="matrix(1 0 0 1 -130.4308 -297.6639)" class="st7 st3 st1">G</text>
					</g>
				</g>
			</g>
			<g id="ID000028">
				<g transform="translate(403.397,495.951)">
					<g transform="rotate(-0.0)">
						<text transform="matrix(1 0 0 1 -129.3062 -297.6639)" class="st7 st3 st1">A</text>
					</g>
				</g>
			</g>
			<g id="ID000029">
				<g transform="translate(384.536,495.951)">
					<g transform="rotate(-0.0)">
						<text transform="matrix(1 0 0 1 -129.2059 -297.6639)" class="st7 st3 st1">G</text>
					</g>
				</g>
			</g>
			<g id="ID000030">
				<g transform="translate(365.676,486.521)">
					<g transform="rotate(-0.0)">
						<text transform="matrix(1 0 0 1 -128.0837 -297.3613)" class="st2 st3 st1">A</text>
					</g>
				</g>
			</g>
			<g id="ID000031">
				<g transform="translate(346.816,477.091)">
					<g transform="rotate(-0.0)">
						<text transform="matrix(1 0 0 1 -127.4698 -297.0549)" class="st2 st3 st1">C</text>
					</g>
				</g>
			</g>
			<g id="ID000032">
				<g transform="translate(327.956,472.376)">
					<g transform="rotate(-0.0)">
						<text transform="matrix(1 0 0 1 -126.8588 -296.9014)" class="st2 st3 st1">A</text>
					</g>
				</g>
			</g>
			<g id="ID000033">
				<g transform="translate(309.096,472.376)">
					<g transform="rotate(-0.0)">
						<text transform="matrix(1 0 0 1 -126.2454 -296.9014)" class="st2 st3 st1">A</text>
					</g>
				</g>
			</g>
			<g id="ID000034">
				<g transform="translate(290.236,477.091)">
					<g transform="rotate(-0.0)">
						<text transform="matrix(1 0 0 1 -126.1461 -297.0549)" class="st2 st3 st1">G</text>
					</g>
				</g>
			</g>
			<g id="ID000035">
				<line class="st5" x1="171.2" y1="159.7" x2="171.2" y2="147.5"/>
			</g>
			<g id="ID000036">
				<g transform="translate(290.236,438.742)">
					<g transform="rotate(-0.0)">
						<text transform="matrix(1 0 0 1 -129.2199 -295.8109)" class="st6 st1">10</text>
					</g>
				</g>
			</g>
			<g id="ID000037">
				<g transform="translate(276.090,491.236)">
					<g transform="rotate(-0.0)">
						<text transform="matrix(1 0 0 1 -125.175 -297.5128)" class="st2 st3 st1">A</text>
					</g>
				</g>
			</g>
			<g id="ID000038">
				<g transform="translate(271.375,514.811)">
					<g transform="rotate(-0.0)">
						<text transform="matrix(1 0 0 1 -125.0225 -298.2787)" class="st2 st3 st1">A</text>
					</g>
				</g>
			</g>
			<g id="ID000039">
				<g transform="translate(276.090,538.386)">
					<g transform="rotate(-0.0)">
						<text transform="matrix(1 0 0 1 -125.175 -299.0432)" class="st2 st3 st1">U</text>
					</g>
				</g>
			</g>
			<g id="ID000040">
				<g transform="translate(290.236,552.531)">
					<g transform="rotate(-0.0)">
						<text transform="matrix(1 0 0 1 -125.6349 -299.5027)" class="st2 st3 st1">A</text>
					</g>
				</g>
			</g>
			<g id="ID000041">
				<g transform="translate(309.096,557.246)">
					<g transform="rotate(-0.0)">
						<text transform="matrix(1 0 0 1 -126.2454 -299.6522)" class="st2 st3 st1">A</text>
					</g>
				</g>
			</g>
			<g id="ID000042">
				<g transform="translate(327.956,557.246)">
					<g transform="rotate(-0.0)">
						<text transform="matrix(1 0 0 1 -126.8588 -299.6522)" class="st2 st3 st1">A</text>
					</g>
				</g>
			</g>
			<g id="ID000043">
				<g transform="translate(346.816,552.531)">
					<g transform="rotate(-0.0)">
						<text transform="matrix(1 0 0 1 -127.4698 -299.5027)" class="st2 st3 st1">C</text>
					</g>
				</g>
			</g>
			<g id="ID000044">
				<g transform="translate(365.676,543.101)">
					<g transform="rotate(-0.0)">
						<text transform="matrix(1 0 0 1 -128.5945 -299.1977)" class="st2 st3 st1">G</text>
					</g>
				</g>
			</g>
			<g id="ID000045">
				<g transform="translate(384.536,533.671)">
					<g transform="rotate(-0.0)">
						<text transform="matrix(1 0 0 1 -128.6942 -298.8888)" class="st7 st3 st1">C</text>
					</g>
				</g>
			</g>
			<g id="ID000046">
				<g transform="translate(403.397,533.671)">
					<g transform="rotate(-0.0)">
						<text transform="matrix(1 0 0 1 -129.3062 -298.8888)" class="st7 st3 st1">U</text>
					</g>
				</g>
			</g>
			<g id="ID000047">
				<line class="st5" x1="280.7" y1="238.7" x2="280.7" y2="250.9"/>
			</g>
			<g id="ID000048">
				<g transform="translate(403.397,572.586)">
					<g transform="rotate(-0.0)">
						<text transform="matrix(1 0 0 1 -132.8921 -300.1524)" class="st6 st1">20</text>
					</g>
				</g>
			</g>
			<g id="ID000049">
				<g transform="translate(422.257,533.671)">
					<g transform="rotate(-0.0)">
						<text transform="matrix(1 0 0 1 -129.9186 -298.8888)" class="st7 st3 st1">C</text>
					</g>
				</g>
			</g>
			<g id="ID000050">
				<g transform="translate(422.257,552.531)">
					<g transform="rotate(-0.0)">
						<text transform="matrix(1 0 0 1 -129.9186 -299.5027)" class="st2 st3 st1">A</text>
					</g>
				</g>
			</g>
			<g id="ID000051">
				<line class="st5" x1="299" y1="197.4" x2="299" y2="219.3"/>
			</g>
			<g id="ID000052">
				<line class="st5" x1="280.7" y1="197.4" x2="280.7" y2="219.3"/>
			</g>
			<g id="ID000053">
				<line class="st5" x1="262.5" y1="197.4" x2="262.5" y2="219.3"/>
			</g>
			<g id="ID000054">
				<g transform="translate(478.837,514.811)">
					<g transform="rotate(-0.0)">
						<text transform="matrix(1 0 0 1 -131.754 -298.2787)" class="st2 st3 st1">A</text>
					</g>
				</g>
			</g>
			<g id="ID000055">
				<line class="st5" x1="362.3" y1="216.9" x2="370.9" y2="225.5"/>
			</g>
			<g id="ID000056">
				<g transform="translate(496.619,546.360)">
					<g transform="rotate(-0.0)">
						<text transform="matrix(1 0 0 1 -125.6937 -299.3004)" class="st6 st1">40</text>
					</g>
				</g>
			</g>
			<g id="ID000057">
				<g transform="translate(497.698,514.811)">
					<g transform="rotate(-0.0)">
						<text transform="matrix(1 0 0 1 -132.365 -298.2787)" class="st8 st3 st1">U</text>
					</g>
				</g>
			</g>
			<g id="ID000058">
				<g transform="translate(516.558,514.811)">
					<g transform="rotate(-0.0)">
						<text transform="matrix(1 0 0 1 -133.4906 -298.2787)" class="st8 st3 st1">G</text>
					</g>
				</g>
			</g>
			<g id="ID000059">
				<g transform="translate(535.418,514.811)">
					<g transform="rotate(-0.0)">
						<text transform="matrix(1 0 0 1 -133.5899 -298.2787)" class="st8 st3 st1">U</text>
					</g>
				</g>
			</g>
			<g id="ID000060">
				<g transform="translate(554.278,514.811)">
					<g transform="rotate(-0.0)">
						<text transform="matrix(1 0 0 1 -134.7136 -298.2787)" class="st8 st3 st1">G</text>
					</g>
				</g>
			</g>
			<g id="ID000061">
				<g transform="translate(573.138,514.811)">
					<g transform="rotate(-0.0)">
						<text transform="matrix(1 0 0 1 -134.8138 -298.2787)" class="st8 st3 st1">A</text>
					</g>
				</g>
			</g>
			<g id="ID000062">
				<g transform="translate(591.999,514.811)">
					<g transform="rotate(-0.0)">
						<text transform="matrix(1 0 0 1 -135.9385 -298.2787)" class="st8 st3 st1">G</text>
					</g>
				</g>
			</g>
			<g id="ID000063">
				<g transform="translate(610.859,514.811)">
					<g transform="rotate(-0.0)">
						<text transform="matrix(1 0 0 1 -136.0377 -298.2787)" class="st8 st3 st1">U</text>
					</g>
				</g>
			</g>
			<g id="ID000064">
				<g transform="translate(620.289,533.671)">
					<g transform="rotate(-0.0)">
						<text transform="matrix(1 0 0 1 -136.8574 -298.8888)" class="st2 st3 st1">G</text>
					</g>
				</g>
			</g>
			<g id="ID000065">
				<g transform="translate(620.289,552.531)">
					<g transform="rotate(-0.0)">
						<text transform="matrix(1 0 0 1 -136.3427 -299.5027)" class="st2 st3 st1">A</text>
					</g>
				</g>
			</g>
			<g id="ID000066">
				<g transform="translate(639.149,561.961)">
					<g transform="rotate(-0.0)">
						<text transform="matrix(1 0 0 1 -137.4664 -299.8067)" class="st2 st3 st1">G</text>
					</g>
				</g>
			</g>
			<g id="ID000067">
				<line class="st5" x1="508.8" y1="266.1" x2="508.8" y2="278.3"/>
			</g>
			<g id="ID000068">
				<g transform="translate(639.149,600.876)">
					<g transform="rotate(-0.0)">
						<text transform="matrix(1 0 0 1 -140.5416 -301.0713)" class="st6 st1">50</text>
					</g>
				</g>
			</g>
			<g id="ID000069">
				<g transform="translate(639.149,406.365)">
					<g transform="rotate(-0.0)">
						<text transform="matrix(1 0 0 1 -137.4664 -294.759)" class="st2 st3 st1">G</text>
					</g>
				</g>
			</g>
			<g id="ID000070">
				<g transform="translate(620.289,420.510)">
					<g transform="rotate(-0.0)">
						<text transform="matrix(1 0 0 1 -136.8574 -295.218)" class="st2 st3 st1">G</text>
					</g>
				</g>
			</g>
			<g id="ID000071">
				<g transform="translate(615.574,439.370)">
					<g transform="rotate(-0.0)">
						<text transform="matrix(1 0 0 1 -136.1912 -295.8314)" class="st2 st3 st1">A</text>
					</g>
				</g>
			</g>
			<g id="ID000072">
				<g transform="translate(625.004,458.230)">
					<g transform="rotate(-0.0)">
						<text transform="matrix(1 0 0 1 -137.0089 -296.4419)" class="st2 st3 st1">G</text>
					</g>
				</g>
			</g>
			<g id="ID000073">
				<g transform="translate(610.859,477.091)">
					<g transform="rotate(-0.0)">
						<text transform="matrix(1 0 0 1 -136.5475 -297.0549)" class="st8 st3 st1">G</text>
					</g>
				</g>
			</g>
			<g id="ID000074">
				<g transform="translate(591.999,477.091)">
					<g transform="rotate(-0.0)">
						<text transform="matrix(1 0 0 1 -135.4277 -297.0549)" class="st8 st3 st1">C</text>
					</g>
				</g>
			</g>
			<g id="ID000075">
				<g transform="translate(573.138,477.091)">
					<g transform="rotate(-0.0)">
						<text transform="matrix(1 0 0 1 -134.8138 -297.0549)" class="st8 st3 st1">U</text>
					</g>
				</g>
			</g>
			<g id="ID000076">
				<g transform="translate(554.278,477.091)">
					<g transform="rotate(-0.0)">
						<text transform="matrix(1 0 0 1 -134.2009 -297.0549)" class="st8 st3 st1">C</text>
					</g>
				</g>
			</g>
			<g id="ID000077">
				<g transform="translate(535.418,477.091)">
					<g transform="rotate(-0.0)">
						<text transform="matrix(1 0 0 1 -133.5899 -297.0549)" class="st8 st3 st1">A</text>
					</g>
				</g>
			</g>
			<g id="ID000078">
				<g transform="translate(516.558,477.091)">
					<g transform="rotate(-0.0)">
						<text transform="matrix(1 0 0 1 -132.9774 -297.0549)" class="st8 st3 st1">C</text>
					</g>
				</g>
			</g>
			<g id="ID000079">
				<line class="st5" x1="398.8" y1="163.2" x2="407.4" y2="154.6"/>
			</g>
			<g id="ID000080">
				<g transform="translate(534.339,446.107)">
					<g transform="rotate(-0.0)">
						<text transform="matrix(1 0 0 1 -126.9142 -296.0499)" class="st6 st1">80</text>
					</g>
				</g>
			</g>
			<g id="ID000081">
				<g transform="translate(497.698,477.091)">
					<g transform="rotate(-0.0)">
						<text transform="matrix(1 0 0 1 -132.365 -297.0549)" class="st8 st3 st1">A</text>
					</g>
				</g>
			</g>
			<g id="ID000082">
				<g transform="translate(497.698,458.230)">
					<g transform="rotate(-0.0)">
						<text transform="matrix(1 0 0 1 -132.365 -296.4419)" class="st2 st3 st1">A</text>
					</g>
				</g>
			</g>
			<g id="ID000083">
				<g transform="translate(497.698,439.370)">
					<g transform="rotate(-0.0)">
						<text transform="matrix(1 0 0 1 -132.365 -295.8314)" class="st2 st3 st1">C</text>
					</g>
				</g>
			</g>
			<g id="ID000084">
				<g transform="translate(497.698,420.510)">
					<g transform="rotate(-0.0)">
						<text transform="matrix(1 0 0 1 -132.365 -295.218)" class="st2 st3 st1">A</text>
					</g>
				</g>
			</g>
			<g id="ID000085">
				<g transform="translate(497.698,401.650)">
					<g transform="rotate(-0.0)">
						<text transform="matrix(1 0 0 1 -132.8762 -294.6075)" class="st2 st3 st1">G</text>
					</g>
				</g>
			</g>
			<g id="ID000086">
				<g transform="translate(497.698,382.790)">
					<g transform="rotate(-0.0)">
						<text transform="matrix(1 0 0 1 -132.8762 -293.9951)" class="st2 st3 st1">G</text>
					</g>
				</g>
			</g>
			<g id="ID000087">
				<g transform="translate(497.698,363.930)">
					<g transform="rotate(-0.0)">
						<text transform="matrix(1 0 0 1 -132.365 -293.3841)" class="st2 st3 st1">C</text>
					</g>
				</g>
			</g>
			<g id="ID000088">
				<line class="st5" x1="372" y1="201" x2="372" y2="179.1"/>
			</g>
			<g id="ID000089">
				<line class="st5" x1="390.2" y1="201" x2="390.2" y2="179.1"/>
			</g>
			<g id="ID000090">
				<line class="st5" x1="408.5" y1="201" x2="408.5" y2="179.1"/>
			</g>
			<g id="ID000091">
				<line class="st5" x1="426.7" y1="201" x2="426.7" y2="179.1"/>
			</g>
			<g id="ID000092">
				<line class="st5" x1="445" y1="201" x2="445" y2="179.1"/>
			</g>
			<g id="ID000093">
				<line class="st5" x1="463.2" y1="201" x2="463.2" y2="179.1"/>
			</g>
			<g id="ID000094">
				<polygon class="st9" points="481.5,186.4 481.2,186.4 481,186.5 480.8,186.5 480.5,186.5 480.3,186.6 480.1,186.7 479.9,186.8 
					479.7,186.9 479.5,187 479.3,187.1 479.1,187.3 478.9,187.4 478.8,187.6 478.6,187.8 478.5,188 478.4,188.1 478.2,188.3 
					478.1,188.6 478.1,188.8 478,189 477.9,189.2 477.9,189.4 477.8,189.7 477.8,189.9 477.8,190.1 477.8,190.4 477.8,190.6 
					477.9,190.8 477.9,191 478,191.3 478.1,191.5 478.2,191.7 478.3,191.9 478.4,192.1 478.6,192.3 478.7,192.5 478.9,192.6 
					479,192.8 479.2,192.9 479.4,193.1 479.6,193.2 479.8,193.3 480,193.4 480.2,193.5 480.4,193.6 480.7,193.6 480.9,193.7 
					481.1,193.7 481.3,193.7 481.6,193.7 481.8,193.7 482,193.7 482.3,193.6 482.5,193.6 482.7,193.5 482.9,193.4 483.1,193.3 
					483.3,193.2 483.5,193.1 483.7,192.9 483.9,192.8 484.1,192.6 484.2,192.5 484.4,192.3 484.5,192.1 484.6,191.9 484.7,191.7 
					484.8,191.5 484.9,191.3 485,191 485,190.8 485.1,190.6 485.1,190.4 485.1,190.1 485.1,189.9 485.1,189.7 485.1,189.4 
					485,189.2 484.9,189 484.9,188.8 484.8,188.6 484.7,188.3 484.6,188.1 484.4,188 484.3,187.8 484.1,187.6 484,187.4 
					483.8,187.3 483.6,187.1 483.4,187 483.2,186.9 483,186.8 482.8,186.7 482.6,186.6 482.4,186.5 482.2,186.5 481.9,186.5 
					481.7,186.4 				"/>
			</g>
			<g id="ID000095">
				<g transform="translate(658.009,552.531)">
					<g transform="rotate(-0.0)">
						<text transform="matrix(1 0 0 1 -138.0793 -299.5027)" class="st2 st3 st1">G</text>
					</g>
				</g>
			</g>
			<g id="ID000096">
				<g transform="translate(658.009,533.671)">
					<g transform="rotate(-0.0)">
						<text transform="matrix(1 0 0 1 -137.5685 -298.8888)" class="st2 st3 st1">C</text>
					</g>
				</g>
			</g>
			<g id="ID000097">
				<g transform="translate(662.724,514.811)">
					<g transform="rotate(-0.0)">
						<text transform="matrix(1 0 0 1 -137.7201 -298.2787)" class="st10 st3 st1">C</text>
					</g>
				</g>
			</g>
			<g id="ID000098">
				<g transform="translate(681.584,514.811)">
					<g transform="rotate(-0.0)">
						<text transform="matrix(1 0 0 1 -138.8418 -298.2787)" class="st10 st3 st1">G</text>
					</g>
				</g>
			</g>
			<g id="ID000099">
				<g transform="translate(700.445,514.811)">
					<g transform="rotate(-0.0)">
						<text transform="matrix(1 0 0 1 -138.9431 -298.2787)" class="st10 st3 st1">A</text>
					</g>
				</g>
			</g>
			<g id="ID000100">
				<g transform="translate(719.305,514.811)">
					<g transform="rotate(-0.0)">
						<text transform="matrix(1 0 0 1 -139.5569 -298.2787)" class="st10 st3 st1">A</text>
					</g>
				</g>
			</g>
			<g id="ID000101">
				<g transform="translate(738.165,519.526)">
					<g transform="rotate(-0.0)">
						<text transform="matrix(1 0 0 1 -140.1669 -298.4313)" class="st2 st3 st1">A</text>
					</g>
				</g>
			</g>
			<g id="ID000102">
				<g transform="translate(757.025,524.241)">
					<g transform="rotate(-0.0)">
						<text transform="matrix(1 0 0 1 -140.7809 -298.5828)" class="st2 st3 st1">C</text>
					</g>
				</g>
			</g>
			<g id="ID000103">
				<g transform="translate(780.600,514.811)">
					<g transform="rotate(-0.0)">
						<text transform="matrix(1 0 0 1 -141.5453 -298.2787)" class="st2 st3 st1">A</text>
					</g>
				</g>
			</g>
			<g id="ID000104">
				<g transform="translate(790.030,495.951)">
					<g transform="rotate(-0.0)">
						<text transform="matrix(1 0 0 1 -141.8513 -297.6639)" class="st2 st3 st1">U</text>
					</g>
				</g>
			</g>
			<g id="ID000105">
				<line class="st5" x1="667" y1="190.1" x2="679.1" y2="190.1"/>
			</g>
			<g id="ID000106">
				<g transform="translate(815.177,495.951)">
					<g transform="rotate(-0.0)">
						<text transform="matrix(1 0 0 1 -136.0276 -297.6639)" class="st6 st1">60</text>
					</g>
				</g>
			</g>
			<g id="ID000107">
				<g transform="translate(780.600,477.091)">
					<g transform="rotate(-0.0)">
						<text transform="matrix(1 0 0 1 -141.5453 -297.0549)" class="st2 st3 st1">A</text>
					</g>
				</g>
			</g>
			<g id="ID000108">
				<g transform="translate(757.025,467.661)">
					<g transform="rotate(-0.0)">
						<text transform="matrix(1 0 0 1 -141.2926 -296.7484)" class="st2 st3 st1">G</text>
					</g>
				</g>
			</g>
			<g id="ID000109">
				<g transform="translate(738.165,472.376)">
					<g transform="rotate(-0.0)">
						<text transform="matrix(1 0 0 1 -140.1669 -296.9014)" class="st2 st3 st1">A</text>
					</g>
				</g>
			</g>
			<g id="ID000110">
				<g transform="translate(719.305,477.091)">
					<g transform="rotate(-0.0)">
						<text transform="matrix(1 0 0 1 -139.5569 -297.0549)" class="st10 st3 st1">U</text>
					</g>
				</g>
			</g>
			<g id="ID000111">
				<g transform="translate(700.445,477.091)">
					<g transform="rotate(-0.0)">
						<text transform="matrix(1 0 0 1 -138.9431 -297.0549)" class="st10 st3 st1">U</text>
					</g>
				</g>
			</g>
			<g id="ID000112">
				<g transform="translate(681.584,477.091)">
					<g transform="rotate(-0.0)">
						<text transform="matrix(1 0 0 1 -138.332 -297.0549)" class="st10 st3 st1">C</text>
					</g>
				</g>
			</g>
			<g id="ID000113">
				<g transform="translate(662.724,477.091)">
					<g transform="rotate(-0.0)">
						<text transform="matrix(1 0 0 1 -138.2328 -297.0549)" class="st10 st3 st1">G</text>
					</g>
				</g>
			</g>
			<g id="ID000114">
				<g transform="translate(653.294,458.230)">
					<g transform="rotate(-0.0)">
						<text transform="matrix(1 0 0 1 -137.4161 -296.4419)" class="st2 st3 st1">A</text>
					</g>
				</g>
			</g>
			<g id="ID000115">
				<g transform="translate(662.724,439.370)">
					<g transform="rotate(-0.0)">
						<text transform="matrix(1 0 0 1 -137.7201 -295.8314)" class="st2 st3 st1">C</text>
					</g>
				</g>
			</g>
			<g id="ID000116">
				<g transform="translate(658.009,420.510)">
					<g transform="rotate(-0.0)">
						<text transform="matrix(1 0 0 1 -137.5685 -295.218)" class="st2 st3 st1">A</text>
					</g>
				</g>
			</g>
			<g id="ID000117">
				<line class="st5" x1="527.1" y1="104.9" x2="527.1" y2="92.7"/>
			</g>
			<g id="ID000118">
				<g transform="translate(658.009,382.161)">
					<g transform="rotate(-0.0)">
						<text transform="matrix(1 0 0 1 -141.1555 -293.974)" class="st6 st1">70</text>
					</g>
				</g>
			</g>
			<g id="ID000119">
				<line class="st5" x1="531.6" y1="201" x2="531.6" y2="179.1"/>
			</g>
			<g id="ID000120">
				<line class="st5" x1="549.9" y1="201" x2="549.9" y2="179.1"/>
			</g>
			<g id="ID000121">
				<line class="st5" x1="568.1" y1="201" x2="568.1" y2="179.1"/>
			</g>
			<g id="ID000122">
				<line class="st5" x1="586.4" y1="201" x2="586.4" y2="179.1"/>
			</g>
		</g>
	</g>
</g>
<text transform="matrix(1 0 0 1 280.7299 150.2876)" class="st11 st6 st1">5’</text>
<text transform="matrix(1 0 0 1 346.4228 74.3748)" class="st11 st6 st1">3’</text>
</svg>
