<?xml version="1.0" encoding="utf-8"?>
<!-- Generator: Adobe Illustrator 27.0.0, SVG Export Plug-In . SVG Version: 6.00 Build 0)  -->
<svg version="1.1" id="图层_1" xmlns="http://www.w3.org/2000/svg" xmlns:xlink="http://www.w3.org/1999/xlink" x="0px" y="0px"
	 viewBox="0 0 800 400" style="enable-background:new 0 0 800 400;" xml:space="preserve">
<style type="text/css">
	.st0{fill:#8527B5;}
	.st1{fill:#FFFFFF;}
	.st2{font-family:'ArialMT';}
	.st3{font-size:12.8229px;}
	.st4{font-size:7.4758px;}
	.st5{fill:#B83332;}
	.st6{font-size:26.6594px;}
	.st7{fill:none;stroke:#000000;stroke-width:0.38;stroke-miterlimit:3.05;}
	.st8{font-size:18.3311px;}
	.st9{fill:#084595;}
	.st10{fill:none;stroke:#000000;stroke-miterlimit:3.05;}
	.st11{stroke:#000000;stroke-width:0.38;stroke-miterlimit:3.05;}
	.st12{fill:#FFFFFF;stroke:#000000;stroke-miterlimit:3.05;}
	.st13{fill:#CF3E7D;}
	.st14{fill:none;stroke:#000000;stroke-width:0.75;stroke-miterlimit:3.05;}
	.st15{fill:#18988C;}
	.st16{fill:#2EA103;}
	.st17{fill:#F17D07;}
	.st18{fill:#C2B617;}
	.st19{font-size:20px;}
</style>
<rect x="526.5" y="313.4" class="st0" width="55.3" height="17.5"/>
<text transform="matrix(1 0 0 1 527.5522 326.2225)" class="st1 st2 st3">OTB-SO</text>
<text transform="matrix(1 0 0 1 576.709 330.4932)" class="st1 st2 st4">3</text>
<g id="ID000002">
	<text transform="matrix(1 0 0 1 193.7964 249.1346)" class="st5 st2 st6">G</text>
</g>
<g id="ID000003">
	<text transform="matrix(1 0 0 1 214.6529 249.1346)" class="st5 st2 st6">G</text>
</g>
<g id="ID000004">
	<text transform="matrix(1 0 0 1 236.9673 248.7928)" class="st5 st2 st6">A</text>
</g>
<g id="ID000005">
	<text transform="matrix(1 0 0 1 257.0952 248.9667)" class="st5 st2 st6">U</text>
</g>
<g id="ID000006">
	<text transform="matrix(1 0 0 1 277.2105 249.1346)" class="st5 st2 st6">G</text>
</g>
<g id="ID000007">
	<text transform="matrix(1 0 0 1 298.8111 248.9667)" class="st5 st2 st6">C</text>
</g>
<g id="ID000008">
	<text transform="matrix(1 0 0 1 318.9117 249.1346)" class="st5 st2 st6">G</text>
</g>
<g id="ID000009">
	<text transform="matrix(1 0 0 1 340.5093 248.9667)" class="st5 st2 st6">C</text>
</g>
<g id="ID000010">
	<text transform="matrix(1 0 0 1 361.3687 248.9667)" class="st5 st2 st6">C</text>
</g>
<g id="ID000011">
	<text transform="matrix(1 0 0 1 382.2105 248.9667)" class="st5 st2 st6">U</text>
</g>
<g id="ID000012">
	<line class="st7" x1="391.6" y1="234.5" x2="392.1" y2="206.6"/>
</g>
<g id="ID000013">
	<text transform="matrix(1 0 0 1 381.315 201.7928)" class="st2 st8">10</text>
</g>
<g id="ID000014">
	<text transform="matrix(1 0 0 1 403.0669 248.9667)" class="st9 st2 st6">U</text>
</g>
<g id="ID000015">
	<text transform="matrix(1 0 0 1 424.9165 235.2401)" class="st9 st2 st6">G</text>
</g>
<g id="ID000016">
	<text transform="matrix(1 0 0 1 447.2466 255.7401)" class="st9 st2 st6">A</text>
</g>
<g id="ID000017">
	<text transform="matrix(1 0 0 1 473.3033 255.7401)" class="st9 st2 st6">A</text>
</g>
<g id="ID000018">
	<text transform="matrix(1 0 0 1 488.9478 234.8983)" class="st9 st2 st6">A</text>
</g>
<g id="ID000019">
	<text transform="matrix(1 0 0 1 382.2115 293.6659)" class="st5 st2 st6">U</text>
</g>
<g id="ID000020">
	<text transform="matrix(1 0 0 1 360.6275 293.8475)" class="st5 st2 st6">G</text>
</g>
<g id="ID000021">
	<text transform="matrix(1 0 0 1 339.7681 293.8475)" class="st5 st2 st6">G</text>
</g>
<g id="ID000022">
	<text transform="matrix(1 0 0 1 319.6538 293.6659)" class="st5 st2 st6">C</text>
</g>
<g id="ID000023">
	<text transform="matrix(1 0 0 1 298.0699 293.8475)" class="st5 st2 st6">G</text>
</g>
<g id="ID000024">
	<text transform="matrix(1 0 0 1 277.9517 293.6659)" class="st5 st2 st6">C</text>
</g>
<g id="ID000025">
	<text transform="matrix(1 0 0 1 257.8257 293.492)" class="st5 st2 st6">A</text>
</g>
<g id="ID000026">
	<text transform="matrix(1 0 0 1 236.2368 293.6659)" class="st5 st2 st6">U</text>
</g>
<g id="ID000027">
	<text transform="matrix(1 0 0 1 215.3951 293.6659)" class="st5 st2 st6">C</text>
</g>
<g id="ID000028">
	<text transform="matrix(1 0 0 1 194.5386 293.6659)" class="st5 st2 st6">C</text>
</g>
<g id="ID000029">
	<line class="st7" x1="204.5" y1="295.2" x2="204.5" y2="309.1"/>
</g>
<g id="ID000030">
	<text transform="matrix(1 0 0 1 194.2163 323.4002)" class="st2 st8">60</text>
</g>
<g id="ID000031">
	<line class="st10" x1="203.5" y1="250.2" x2="203.5" y2="275.2"/>
</g>
<g id="ID000032">
	<line class="st10" x1="224.3" y1="250.2" x2="224.3" y2="275.2"/>
</g>
<g id="ID000033">
	<line class="st10" x1="245.2" y1="250.2" x2="245.2" y2="275.2"/>
</g>
<g id="ID000034">
	<line class="st10" x1="266.1" y1="250.2" x2="266.1" y2="275.2"/>
</g>
<g id="ID000035">
	<line class="st10" x1="286.9" y1="250.2" x2="286.9" y2="275.2"/>
</g>
<g id="ID000036">
	<line class="st10" x1="307.8" y1="250.2" x2="307.8" y2="275.2"/>
</g>
<g id="ID000037">
	<line class="st10" x1="328.5" y1="250.2" x2="328.5" y2="275.2"/>
</g>
<g id="ID000038">
	<line class="st10" x1="349.5" y1="248.6" x2="349.5" y2="273.6"/>
</g>
<g id="ID000039">
	<line class="st10" x1="370.3" y1="248.6" x2="370.3" y2="273.6"/>
</g>
<g id="ID000040">
	<line class="st10" x1="391.1" y1="249.6" x2="391.1" y2="274.6"/>
</g>
<g id="ID000041">
	<polygon class="st11" points="391.1,265.2 391.3,265.2 391.6,265.2 391.9,265.2 392.2,265.1 392.4,265.1 392.7,264.9 393,264.9 
		393.1,264.8 393.4,264.6 393.6,264.5 393.8,264.3 394,264 394.1,263.9 394.3,263.7 394.6,263.4 394.7,263.3 394.7,263 394.9,262.9 
		395,262.6 395,262.3 395.2,262.1 395.2,261.8 395.3,261.5 395.3,261.2 395.3,260.9 395.3,260.8 395.3,260.5 395.2,260.2 
		395.2,259.9 395,259.8 395,259.5 394.9,259.2 394.7,259 394.6,258.7 394.4,258.6 394.3,258.3 394.1,258.2 393.8,258 393.7,257.9 
		393.6,257.7 393.3,257.6 393,257.4 392.8,257.3 392.5,257.1 392.2,257.1 392.1,257 391.8,257 391.5,257 391.2,257 390.9,257 
		390.8,257 390.5,257 390.2,257 389.9,257.1 389.7,257.1 389.4,257.3 389.1,257.4 389,257.6 388.7,257.7 388.6,257.9 388.4,258 
		388.1,258.2 388,258.3 387.8,258.6 387.7,258.7 387.5,259 387.4,259.2 387.2,259.5 387.2,259.8 387.1,259.9 387.1,260.2 
		386.9,260.5 386.9,260.8 386.9,260.9 386.9,261.2 386.9,261.5 386.9,261.8 387.1,262.1 387.1,262.3 387.2,262.6 387.4,262.9 
		387.4,263 387.5,263.3 387.7,263.4 387.8,263.7 388.1,263.9 388.3,264 388.4,264.3 388.7,264.5 388.9,264.6 389.1,264.8 
		389.3,264.9 389.6,264.9 389.9,265.1 390,265.1 390.3,265.2 390.6,265.2 390.9,265.2 	"/>
</g>
<g id="ID000042">
	<line class="st10" x1="415.2" y1="232.9" x2="416.5" y2="183.5"/>
</g>
<g id="ID000043">
	<polygon class="st11" points="415.9,204.1 415.6,204.1 415.4,204.1 415.2,204.1 414.9,204.1 414.6,204.2 414.5,204.4 414.2,204.4 
		413.9,204.5 413.7,204.7 413.4,204.8 413.3,205 413,205.1 412.9,205.2 412.7,205.5 412.6,205.7 412.4,206 412.3,206.1 412.1,206.4 
		412,206.6 411.8,206.9 411.8,207.2 411.8,207.4 411.7,207.6 411.7,207.9 411.7,208.2 411.7,208.5 411.7,208.6 411.7,208.9 
		411.8,209.2 411.8,209.5 412,209.8 412.1,209.9 412.1,210.2 412.3,210.4 412.4,210.7 412.6,210.8 412.9,211.1 413,211.3 
		413.1,211.4 413.4,211.6 413.6,211.7 413.9,211.9 414,212 414.3,212.1 414.6,212.1 414.8,212.3 415.1,212.3 415.4,212.3 
		415.6,212.4 415.9,212.4 416.1,212.4 416.4,212.3 416.7,212.3 417,212.3 417.1,212.1 417.4,212 417.7,212 417.8,211.9 418.1,211.7 
		418.3,211.6 418.6,211.4 418.7,211.3 418.9,211 419.2,210.8 419.3,210.5 419.3,210.4 419.5,210.1 419.6,209.9 419.8,209.7 
		419.8,209.5 419.9,209.2 419.9,208.9 420.1,208.6 420.1,208.3 420.1,208.2 420.1,207.9 419.9,207.6 419.9,207.3 419.9,207 
		419.8,206.9 419.6,206.6 419.6,206.3 419.5,206.1 419.3,205.8 419.2,205.7 419,205.4 418.7,205.2 418.6,205.1 418.4,205 
		418.1,204.8 418,204.7 417.7,204.5 417.6,204.4 417.3,204.2 417,204.2 416.7,204.1 416.5,204.1 416.2,204.1 	"/>
</g>
<g id="ID000044">
	<line class="st10" x1="435.5" y1="217.9" x2="435.5" y2="203.4"/>
</g>
<g id="ID000045">
	<polygon class="st11" points="435.5,206.6 435.2,206.6 435.1,206.6 434.8,206.6 434.5,206.6 434.2,206.7 434.1,206.7 433.8,206.9 
		433.5,207 433.3,207.2 433,207.3 432.9,207.5 432.7,207.6 432.4,207.9 432.3,208.1 432.2,208.2 432,208.5 431.9,208.7 431.7,208.9 
		431.7,209.2 431.6,209.4 431.6,209.7 431.4,210 431.4,210.3 431.4,210.4 431.4,210.7 431.4,211 431.4,211.3 431.4,211.6 
		431.6,211.7 431.6,212 431.7,212.3 431.9,212.5 432,212.8 432.2,213.1 432.3,213.2 432.4,213.4 432.6,213.6 432.7,213.8 433,213.9 
		433.2,214.1 433.5,214.2 433.6,214.4 433.9,214.5 434.2,214.7 434.4,214.7 434.7,214.7 434.9,214.8 435.2,214.8 435.4,214.8 
		435.7,214.8 436,214.8 436.3,214.8 436.4,214.7 436.7,214.7 437,214.7 437.3,214.5 437.4,214.4 437.7,214.2 437.9,214.1 
		438.2,213.9 438.3,213.8 438.5,213.6 438.8,213.4 438.9,213.2 439.1,213.1 439.2,212.8 439.4,212.5 439.4,212.3 439.5,212 
		439.6,211.7 439.6,211.6 439.6,211.3 439.6,211 439.8,210.7 439.8,210.4 439.6,210.3 439.6,210 439.6,209.7 439.5,209.4 
		439.5,209.2 439.4,208.9 439.2,208.7 439.1,208.5 438.9,208.2 438.8,208.1 438.6,207.9 438.5,207.6 438.2,207.5 438,207.3 
		437.9,207.2 437.6,207 437.3,206.9 437.1,206.7 436.9,206.7 436.6,206.6 436.4,206.6 436.1,206.6 435.8,206.6 	"/>
</g>
<g id="ID000046">
	<line class="st10" x1="461.2" y1="240.4" x2="481.7" y2="183.1"/>
</g>
<g id="ID000047">
	<polygon class="st12" points="472.9,207.7 472.6,207.7 472.3,207.6 472,207.6 471.8,207.6 471.6,207.6 471.3,207.6 471,207.6 
		470.7,207.6 470.6,207.6 470.3,207.7 470,207.7 469.7,207.9 469.6,208 469.3,208.2 469.1,208.3 468.8,208.5 468.7,208.6 
		468.5,208.8 468.2,208.9 468.1,209.2 467.9,209.4 467.8,209.7 467.6,209.8 467.6,210.1 467.5,210.4 467.3,210.5 467.3,210.8 
		467.3,211.1 467.3,211.4 467.3,211.7 467.3,211.9 467.3,212.1 467.3,212.4 467.3,212.7 467.5,212.9 467.5,213.2 467.6,213.5 
		467.8,213.6 467.9,213.9 468.1,214.2 468.2,214.4 468.4,214.5 468.5,214.8 468.8,214.9 469,215.1 469.3,215.2 469.4,215.4 
		469.7,215.5 470,215.5 470.1,215.7 470.4,215.7 470.7,215.8 471,215.8 471.2,215.8 471.5,215.8 471.8,215.8 472,215.8 472.2,215.8 
		472.5,215.7 472.8,215.7 473.1,215.5 473.2,215.4 473.5,215.4 473.7,215.2 474,215.1 474.1,214.9 474.4,214.6 474.5,214.5 
		474.7,214.4 474.8,214.1 475,213.9 475.1,213.6 475.3,213.5 475.4,213.2 475.4,212.9 475.4,212.6 475.6,212.4 475.6,212.1 
		475.6,211.9 475.6,211.6 475.6,211.3 475.6,211.1 475.6,210.8 475.4,210.5 475.4,210.2 475.3,210.1 475.1,209.8 475,209.7 
		475,209.4 474.7,209.1 474.5,208.9 474.4,208.8 474.3,208.6 474,208.3 473.8,208.2 473.5,208 473.4,208 473.1,207.9 	"/>
</g>
<g id="ID000048">
	<polyline class="st10" points="492.8,248.1 578.4,248.1 578.4,286.8 	"/>
</g>
<g id="ID000049">
	<polygon class="st12" points="526,252.4 534.3,252.4 534.3,244 526,244 	"/>
</g>
<g id="ID000050">
	<polygon class="st12" points="545.2,248.1 545.2,248 545.2,247.7 545.1,247.4 545.1,247.1 544.9,246.8 544.9,246.7 544.8,246.4 
		544.6,246.2 544.5,245.9 544.3,245.8 544.2,245.5 544,245.3 543.9,245.1 543.6,244.9 543.4,244.8 543.1,244.6 543,244.5 
		542.7,244.3 542.6,244.3 542.3,244.2 542,244.2 541.7,244 541.5,244 541.2,244 540.9,244 540.6,244 540.4,244 540.2,244.2 
		539.9,244.2 539.6,244.3 539.3,244.3 539.2,244.5 538.9,244.6 538.7,244.8 538.4,244.9 538.3,245.1 538.1,245.2 537.9,245.3 
		537.7,245.6 537.6,245.8 537.4,246.1 537.3,246.2 537.1,246.5 537.1,246.8 537,247 537,247.3 536.8,247.5 536.8,247.8 536.8,248 
		536.8,248.3 536.8,248.6 536.8,248.9 537,249.2 537,249.3 537.1,249.6 537.1,249.9 537.3,250 537.4,250.3 537.6,250.5 537.7,250.8 
		537.9,250.9 538.1,251.1 538.3,251.4 538.4,251.5 538.7,251.7 538.9,251.8 539.2,252 539.3,252.1 539.6,252.1 539.9,252.2 
		540.2,252.2 540.4,252.2 540.6,252.4 540.9,252.4 541.2,252.4 541.5,252.4 541.7,252.2 542,252.2 542.3,252.1 542.6,252.1 
		542.7,252 543,251.8 543.1,251.7 543.4,251.5 543.6,251.4 543.9,251.2 544,251.1 544.2,250.9 544.3,250.6 544.5,250.5 544.6,250.2 
		544.8,250 544.9,249.8 544.9,249.5 545.1,249.2 545.1,249 545.2,248.7 545.2,248.4 	"/>
</g>
<g id="ID000051">
	<line class="st10" x1="488.9" y1="254.2" x2="553" y2="350.2"/>
</g>
<g id="ID000052">
	<polygon class="st12" points="506.8,282.6 507,282.5 507.1,282.3 507.4,282.2 507.5,282 507.7,281.7 507.8,281.6 508,281.4 
		508.1,281.2 508.3,280.9 508.4,280.7 508.4,280.4 508.6,280.1 508.6,280 508.6,279.7 508.7,279.4 508.7,279.1 508.7,278.8 
		508.6,278.7 508.6,278.4 508.6,278.1 508.4,277.8 508.3,277.6 508.3,277.3 508.1,277 508,276.9 507.8,276.6 507.7,276.5 
		507.4,276.3 507.2,276 507.1,275.9 506.8,275.7 506.7,275.6 506.4,275.4 506.2,275.3 505.9,275.3 505.6,275.1 505.5,275.1 
		505.2,275 504.9,275 504.6,275 504.3,275 504.2,275 503.9,275 503.6,275.1 503.3,275.1 503.1,275.3 502.8,275.3 502.5,275.4 
		502.4,275.6 502.1,275.7 502,275.9 501.7,276 501.5,276.2 501.4,276.5 501.2,276.6 501.1,276.9 500.9,277 500.8,277.3 500.6,277.5 
		500.5,277.8 500.5,278.1 500.3,278.2 500.3,278.5 500.3,278.8 500.3,279.1 500.3,279.4 500.3,279.5 500.3,279.8 500.5,280.1 
		500.5,280.4 500.6,280.6 500.6,280.9 500.8,281.2 500.9,281.3 501.1,281.6 501.2,281.7 501.4,282 501.5,282.2 501.8,282.3 
		502,282.5 502.3,282.6 502.4,282.8 502.7,282.9 502.8,283.1 503.1,283.1 503.4,283.2 503.7,283.2 504,283.2 504.2,283.4 
		504.5,283.4 504.8,283.4 505,283.4 505.3,283.2 505.5,283.2 505.8,283.1 506.1,283.1 506.2,282.9 506.5,282.8 	"/>
</g>
<g id="ID000053">
	<polyline class="st10" points="505.9,223.7 596.1,223.7 596.6,298.8 	"/>
</g>
<g id="ID000054">
	<polygon class="st12" points="545.2,220.2 536.8,220.2 536.8,228.5 545.2,228.5 	"/>
</g>
<g id="ID000056">
	<text transform="matrix(1 0 0 1 488.9478 208.826)" class="st9 st2 st6">A</text>
</g>
<g id="ID000057">
	<text transform="matrix(1 0 0 1 471.8316 183.1112)" class="st9 st2 st6">G</text>
</g>
<g id="ID000058">
	<text transform="matrix(1 0 0 1 446.5161 182.9256)" class="st9 st2 st6">C</text>
</g>
<g id="ID000059">
	<text transform="matrix(1 0 0 1 425.6587 203.785)" class="st9 st2 st6">C</text>
</g>
<g id="ID000060">
	<text transform="matrix(1 0 0 1 408.1372 186.2596)" class="st9 st2 st6">U</text>
</g>
<g id="ID000062">
	<text transform="matrix(1 0 0 1 425.9673 149.4144)" class="st2 st8">20</text>
</g>
<g id="ID000063">
	<text transform="matrix(1 0 0 1 387.9898 170.8011)" class="st13 st2 st6">G</text>
</g>
<g id="ID000064">
	<text transform="matrix(1 0 0 1 388.732 149.7748)" class="st13 st2 st6">C</text>
</g>
<g id="ID000065">
	<text transform="matrix(1 0 0 1 387.9898 129.0863)" class="st13 st2 st6">G</text>
</g>
<g id="ID000066">
	<text transform="matrix(1 0 0 1 403.106 104.8871)" class="st13 st2 st6">A</text>
</g>
<g id="ID000067">
	<text transform="matrix(1 0 0 1 392.6773 81.0453)" class="st13 st2 st6">A</text>
</g>
<g id="ID000068">
	<text transform="matrix(1 0 0 1 369.8326 76.6156)" class="st13 st2 st6">A</text>
</g>
<g id="ID000069">
	<text transform="matrix(1 0 0 1 347.0298 87.2171)" class="st13 st2 st6">C</text>
</g>
<g id="ID000070">
	<text transform="matrix(1 0 0 1 347.7603 107.8871)" class="st13 st2 st6">A</text>
</g>
<g id="ID000071">
	<text transform="matrix(1 0 0 1 347.0308 128.9173)" class="st13 st2 st6">C</text>
</g>
<g id="ID000072">
	<text transform="matrix(1 0 0 1 346.2886 149.9437)" class="st13 st2 st6">G</text>
</g>
<g id="ID000073">
	<line class="st7" x1="346.8" y1="142.1" x2="332.8" y2="142.1"/>
</g>
<g id="ID000074">
	<text transform="matrix(1 0 0 1 312.8824 147.4896)" class="st2 st8">30</text>
</g>
<g id="ID000075">
	<text transform="matrix(1 0 0 1 347.0298 169.4134)" class="st13 st2 st6">C</text>
</g>
<g id="ID000076">
	<polyline class="st10" points="456.4,163.9 456.4,151.3 555.4,151.3 555.4,273.3 	"/>
</g>
<g id="ID000077">
	<polygon class="st11" points="555.4,214.5 555.7,214.5 556,214.5 556.3,214.5 556.6,214.3 556.7,214.3 557,214.2 557.3,214.1 
		557.4,213.9 557.7,213.9 557.9,213.8 558.2,213.5 558.3,213.3 558.5,213.2 558.8,213 558.9,212.7 559.1,212.6 559.2,212.3 
		559.2,212.1 559.4,211.8 559.5,211.6 559.5,211.3 559.6,211.1 559.6,210.8 559.6,210.5 559.6,210.2 559.6,209.9 559.6,209.8 
		559.5,209.5 559.5,209.2 559.4,208.9 559.4,208.8 559.2,208.5 559.1,208.3 558.9,208 558.8,207.7 558.6,207.6 558.5,207.4 
		558.2,207.1 558,207 557.9,206.9 557.6,206.7 557.3,206.6 557.2,206.6 556.9,206.4 556.7,206.3 556.4,206.3 556.1,206.3 
		555.8,206.1 555.5,206.1 555.4,206.1 555.1,206.1 554.8,206.3 554.5,206.3 554.4,206.3 554.1,206.4 553.8,206.6 553.6,206.6 
		553.3,206.7 553,206.9 552.9,207 552.7,207.1 552.5,207.4 552.3,207.6 552.2,207.7 552,208 551.9,208.3 551.7,208.5 551.6,208.8 
		551.6,208.9 551.4,209.2 551.4,209.5 551.3,209.8 551.3,209.9 551.3,210.2 551.3,210.5 551.3,210.8 551.4,211.1 551.4,211.3 
		551.4,211.6 551.6,211.8 551.7,212.1 551.7,212.3 551.9,212.6 552,212.7 552.3,213 552.5,213.2 552.6,213.3 552.7,213.5 553,213.8 
		553.2,213.9 553.5,213.9 553.6,214.1 553.9,214.2 554.2,214.3 554.4,214.3 554.7,214.5 554.9,214.5 555.2,214.5 	"/>
</g>
<g id="ID000078">
	<line class="st10" x1="389.7" y1="161.9" x2="364.6" y2="161.9"/>
</g>
<g id="ID000079">
	<line class="st10" x1="391.3" y1="141.1" x2="366.3" y2="141.1"/>
</g>
<g id="ID000080">
	<line class="st10" x1="391.3" y1="120.2" x2="366.3" y2="120.2"/>
</g>
<g id="ID000081">
	<line class="st10" x1="396.2" y1="82.9" x2="364.6" y2="97"/>
</g>
<g id="ID000082">
	<polygon class="st12" points="390.3,85.5 380.9,84.5 384.9,93 	"/>
</g>
<g id="ID000083">
	<polygon class="st12" points="371.6,93.8 371.8,94.1 371.9,94.2 372.1,94.5 372.2,94.6 372.4,94.9 372.5,95.1 372.7,95.2 373,95.4 
		373.1,95.5 373.4,95.7 373.5,95.8 373.8,96 374.1,96.1 374.3,96.1 374.6,96.1 374.9,96.3 375.2,96.3 375.5,96.3 375.6,96.3 
		375.9,96.3 376.2,96.3 376.5,96.1 376.6,96.1 376.9,96 377.2,96 377.4,95.8 377.7,95.7 378,95.5 378.1,95.4 378.2,95.2 378.5,94.9 
		378.7,94.8 378.8,94.5 379,94.3 379.1,94.1 379.3,93.9 379.3,93.6 379.4,93.3 379.4,93.2 379.6,92.9 379.6,92.6 379.6,92.3 
		379.6,92.1 379.6,91.9 379.6,91.6 379.6,91.3 379.4,91 379.4,90.8 379.3,90.5 379.1,90.2 379.1,90.1 379,89.8 378.8,89.6 
		378.7,89.4 378.4,89.2 378.2,89.1 378.1,88.9 377.8,88.6 377.7,88.6 377.4,88.5 377.2,88.3 376.9,88.2 376.6,88 376.3,88 376.2,88 
		375.9,87.9 375.6,87.9 375.3,87.9 375,87.9 374.9,88 374.6,88 374.3,88 374,88.2 373.8,88.3 373.5,88.3 373.4,88.5 373.1,88.6 
		373,88.8 372.7,88.9 372.5,89.2 372.4,89.4 372.1,89.5 371.9,89.8 371.8,89.9 371.8,90.2 371.6,90.5 371.5,90.7 371.5,91 
		371.3,91.3 371.3,91.4 371.3,91.7 371.3,92 371.3,92.3 371.3,92.6 371.3,92.7 371.3,93 371.5,93.3 371.5,93.6 	"/>
</g>
<g id="ID000084">
	<polyline class="st14" points="358.5,169.9 358.5,344 421.2,344 	"/>
</g>
<g id="ID000085">
	<polygon class="st11" points="364.6,210.2 361.4,213.7 360.4,217.1 359.9,220.6 358.3,227.7 356.9,220.6 356.3,217.1 355.2,213.7 
		352.2,210.2 	"/>
</g>
<g id="ID000087">
	<text transform="matrix(1 0 0 1 421.1743 349.5838)" class="st15 st2 st6">A</text>
</g>
<g id="ID000088">
	<text transform="matrix(1 0 0 1 440.5611 349.9256)" class="st15 st2 st6">G</text>
</g>
<g id="ID000089">
	<text transform="matrix(1 0 0 1 462.1587 349.7577)" class="st15 st2 st6">C</text>
</g>
<g id="ID000090">
	<text transform="matrix(1 0 0 1 483.0005 349.7577)" class="st15 st2 st6">U</text>
</g>
<g id="ID000091">
	<text transform="matrix(1 0 0 1 503.1187 349.9256)" class="st15 st2 st6">G</text>
</g>
<g id="ID000092">
	<text transform="matrix(1 0 0 1 523.9741 363.91)" class="st16 st2 st6">G</text>
</g>
<g id="ID000093">
	<text transform="matrix(1 0 0 1 545.5591 370.6131)" class="st16 st2 st6">U</text>
</g>
<g id="ID000094">
	<text transform="matrix(1 0 0 1 563.6753 360.3534)" class="st17 st2 st6">G</text>
</g>
<g id="ID000095">
	<text transform="matrix(1 0 0 1 588.0044 342.9022)" class="st16 st2 st6">A</text>
</g>
<g id="ID000096">
	<line class="st7" x1="617.9" y1="358.4" x2="604.1" y2="339.9"/>
</g>
<g id="ID000096-2">
	<line class="st7" x1="432.7" y1="150.5" x2="420.1" y2="167.7"/>
</g>
<g id="ID000097">
	<text transform="matrix(1 0 0 1 610.9702 371.8397)" class="st2 st8">40</text>
</g>
<g id="ID000098">
	<text transform="matrix(1 0 0 1 588.0044 318.3123)" class="st16 st2 st6">A</text>
</g>
<g id="ID000099">
	<text transform="matrix(1 0 0 1 566.4175 302.8416)" class="st16 st2 st6">U</text>
</g>
<g id="ID000100">
	<text transform="matrix(1 0 0 1 544.8169 292.5819)" class="st16 st2 st6">G</text>
</g>
<g id="ID000101">
	<text transform="matrix(1 0 0 1 525.4468 302.6698)" class="st16 st2 st6">A</text>
</g>
<g id="ID000102">
	<text transform="matrix(1 0 0 1 503.8599 308.0565)" class="st15 st2 st6">C</text>
</g>
<g id="ID000103">
	<text transform="matrix(1 0 0 1 483.731 307.8846)" class="st15 st2 st6">A</text>
</g>
<g id="ID000104">
	<text transform="matrix(1 0 0 1 461.4165 308.2264)" class="st15 st2 st6">G</text>
</g>
<g id="ID000105">
	<text transform="matrix(1 0 0 1 441.3033 308.0565)" class="st15 st2 st6">C</text>
</g>
<g id="ID000106">
	<text transform="matrix(1 0 0 1 420.4439 308.0565)" class="st15 st2 st6">U</text>
</g>
<g id="ID000107">
	<text transform="matrix(1 0 0 1 400.3316 307.8846)" class="st18 st2 st6">A</text>
</g>
<g id="ID000108">
	<line class="st7" x1="411.4" y1="372.7" x2="411.4" y2="306"/>
</g>
<g id="ID000109">
	<text transform="matrix(1 0 0 1 401.7036 386.9842)" class="st2 st8">50</text>
</g>
<g id="ID000110">
	<line class="st10" x1="429.4" y1="333.4" x2="429.4" y2="308.3"/>
</g>
<g id="ID000111">
	<line class="st10" x1="450.2" y1="333.4" x2="450.2" y2="308.3"/>
</g>
<g id="ID000112">
	<line class="st10" x1="471.1" y1="333.4" x2="471.1" y2="308.3"/>
</g>
<g id="ID000113">
	<line class="st10" x1="492" y1="331.6" x2="492" y2="306.7"/>
</g>
<g id="ID000114">
	<line class="st10" x1="512.8" y1="331.6" x2="512.8" y2="306.7"/>
</g>
<g id="ID000115">
	<line class="st10" x1="578.4" y1="340.9" x2="588.8" y2="318.2"/>
</g>
<g id="ID000116">
	<polygon class="st11" points="579.2,338.3 587,333.1 578.6,328.9 	"/>
</g>
<g id="ID000117">
	<polygon class="st11" points="588.3,320 588.2,319.9 587.9,319.8 587.6,319.8 587.3,319.6 587.1,319.6 586.9,319.6 586.6,319.6 
		586.3,319.6 586.1,319.6 585.8,319.6 585.5,319.8 585.2,319.8 585.1,319.9 584.8,319.9 584.5,320 584.4,320.2 584.1,320.3 
		583.9,320.5 583.6,320.6 583.5,320.8 583.3,321.1 583.2,321.2 583,321.5 582.9,321.7 582.7,322 582.6,322.1 582.6,322.4 
		582.4,322.7 582.4,323 582.4,323.1 582.3,323.4 582.3,323.7 582.3,324 582.3,324.3 582.4,324.5 582.4,324.7 582.6,325 582.6,325.3 
		582.7,325.5 582.9,325.8 583,325.9 583.2,326.2 583.3,326.4 583.5,326.7 583.6,326.8 583.9,327 584.1,327.1 584.4,327.2 
		584.5,327.4 584.8,327.5 584.9,327.7 585.2,327.7 585.5,327.8 585.8,327.8 586,327.8 586.3,328 586.6,328 586.9,328 587.1,327.8 
		587.3,327.8 587.6,327.8 587.9,327.7 588,327.5 588.3,327.5 588.6,327.4 588.8,327.2 589.1,327.1 589.2,327 589.4,326.7 
		589.6,326.5 589.8,326.4 589.9,326.1 590.1,325.9 590.2,325.6 590.4,325.5 590.4,325.2 590.5,324.9 590.5,324.6 590.7,324.5 
		590.7,324.2 590.7,323.9 590.7,323.6 590.7,323.4 590.7,323.1 590.5,322.8 590.5,322.5 590.4,322.2 590.4,322.1 590.2,321.8 
		590.1,321.7 589.9,321.4 589.8,321.2 589.6,320.9 589.5,320.8 589.2,320.6 589.1,320.5 588.8,320.3 588.6,320.2 	"/>
</g>
<text transform="matrix(1 0 0 1 171.7925 231.6678)" class="st2 st8">5’</text>
<text transform="matrix(1 0 0 1 171.7925 301.7323)" class="st2 st8">3’</text>
<text transform="matrix(1 0 0 1 314.83 26.49)" class="st2 st19">DIR2s-apt</text>
<text transform="matrix(1 0 0 1 413.76 26.49)" class="st2 st19">aptamer</text>
</svg>
