<?xml version="1.0" encoding="utf-8"?>
<!-- Generator: Adobe Illustrator 25.2.0, SVG Export Plug-In . SVG Version: 6.00 Build 0)  -->
<svg version="1.1" id="图层_1" xmlns="http://www.w3.org/2000/svg" xmlns:xlink="http://www.w3.org/1999/xlink" x="0px" y="0px"
	 viewBox="0 0 800 400" style="enable-background:new 0 0 800 400;" xml:space="preserve">
<style type="text/css">
	.st0{font-family:'ArialMT';}
	.st1{font-size:25px;}
	.st2{fill:#8E8E8E;}
	.st3{font-size:16.388px;}
	.st4{fill:#B83233;}
	.st5{fill:#2EA103;}
	.st6{fill:#084595;}
	.st7{fill:#C2B617;}
	.st8{font-size:16.3876px;}
	.st9{font-size:15.765px;}
	.st10{fill:none;stroke:#000000;stroke-miterlimit:3.05;}
	.st11{fill:none;stroke:#000000;stroke-width:0.25;stroke-miterlimit:3.05;}
</style>
<text transform="matrix(1 0 0 1 336.0991 39.227)" class="st0 st1">9C7 aptamer</text>
<g id="ID000012_00000034065401200064617450000012471684555361177746_">
	<g>
		<text transform="matrix(0.9995 3.140787e-02 -3.140787e-02 0.9995 300.9589 373.9214)" class="st2 st0 st3">G</text>
	</g>
</g>
<g id="ID000012_00000008865513974239311830000001467287583627290547_">
	<g>
		<text transform="matrix(0.9999 1.570587e-02 -1.570587e-02 0.9999 301.0246 357.3822)" class="st2 st0 st3">G</text>
	</g>
</g>
<g id="ID000012_00000090977333287268178150000011358688372721255329_">
	<text transform="matrix(0.9999 1.570587e-02 -1.570587e-02 0.9999 301.4457 338.6521)" class="st4 st0 st3">G</text>
</g>
<g id="ID000012_00000085950117530443808670000016720765069068648597_">
	<text transform="matrix(0.9999 1.570587e-02 -1.570587e-02 0.9999 300.6546 276.2873)" class="st4 st0 st3">G</text>
</g>
<g id="ID000012_00000008107693548418714380000007013085435344277173_">
	<text transform="matrix(0.9999 1.570587e-02 -1.570587e-02 0.9999 324.5337 259.0323)" class="st4 st0 st3">G</text>
</g>
<g id="ID000012_00000015320383692216868010000012034652801683255190_">
	<g>
		<text transform="matrix(0.9999 1.570587e-02 -1.570587e-02 0.9999 344.4255 310.3705)" class="st5 st0 st3">G</text>
	</g>
</g>
<g id="ID000012_00000044864171208351583720000000390657865510058656_">
	<g>
		<text transform="matrix(0.9999 1.570587e-02 -1.570587e-02 0.9999 283.1533 310.3711)" class="st5 st0 st3">A</text>
	</g>
</g>
<g id="ID000012_00000046307973477459913060000006418203535398650273_">
	<g>
		<text transform="matrix(0.9999 1.570587e-02 -1.570587e-02 0.9999 324.5587 291.9836)" class="st4 st0 st3">A</text>
	</g>
</g>
<g id="ID000012_00000159449800252084637720000013668240111451672747_">
	<g>
		<text transform="matrix(0.9999 1.570587e-02 -1.570587e-02 0.9999 277.2149 208.9709)" class="st5 st0 st3">A</text>
	</g>
</g>
<g id="ID000012_00000044872723323004467110000005294788515821262005_">
	<g>
		<text transform="matrix(0.9999 1.570587e-02 -1.570587e-02 0.9999 265.8912 191.4979)" class="st5 st0 st3">A</text>
	</g>
</g>
<g id="ID000012_00000052083684629996665900000008600109897748740778_">
	<g>
		<text transform="matrix(0.9999 1.570587e-02 -1.570587e-02 0.9999 277.2152 169.6531)" class="st5 st0 st3">A</text>
	</g>
</g>
<g id="ID000012_00000139987545913495754940000010509485273906075323_">
	<g>
		<text transform="matrix(0.9999 1.570587e-02 -1.570587e-02 0.9999 300.5897 157.5298)" class="st5 st0 st3">A</text>
	</g>
</g>
<g id="ID000012_00000021093500540814672850000009720021703209572250_">
	<text transform="matrix(0.9999 1.570587e-02 -1.570587e-02 0.9999 324.0338 157.2237)" class="st6 st0 st3">A</text>
</g>
<g id="ID000012_00000170975336905849815240000009118862742065277105_">
	<text transform="matrix(0.9999 1.570587e-02 -1.570587e-02 0.9999 338.4874 142.1716)" class="st6 st0 st3">A</text>
</g>
<g id="ID000012_00000133531176895448367880000017608775617678956452_">
	<g>
		<text transform="matrix(0.9999 1.570587e-02 -1.570587e-02 0.9999 363.4063 92.8137)" class="st5 st0 st3">A</text>
	</g>
</g>
<g id="ID000012_00000085238330085230516260000005285625264071100341_">
	<g>
		<text transform="matrix(0.9999 1.570587e-02 -1.570587e-02 0.9999 403.6687 125.7309)" class="st5 st0 st3">A</text>
	</g>
</g>
<g id="ID000012_00000072267181047374234340000008063837738270100866_">
	<g>
		<text transform="matrix(0.9999 1.570587e-02 -1.570587e-02 0.9999 409.1465 169.6519)" class="st5 st0 st3">A</text>
	</g>
</g>
<g id="ID000012_00000095299759126276380880000016854977104957198256_">
	<g>
		<text transform="matrix(0.9999 1.570587e-02 -1.570587e-02 0.9999 426.8965 208.9688)" class="st7 st0 st3">A</text>
	</g>
</g>
<g id="ID000012_00000114777424927387422120000003249195730568766370_">
	<g>
		<text transform="matrix(0.9999 1.570587e-02 -1.570587e-02 0.9999 386.7855 84.7063)" class="st5 st0 st3">A</text>
	</g>
</g>
<g id="ID000012_00000095312236544751385660000001339301323478858882_">
	<g>
		<text transform="matrix(0.9999 1.570587e-02 -1.570587e-02 0.9999 339.2025 326.7065)" class="st5 st0 st3">A</text>
	</g>
</g>
<g id="ID000012_00000163780630755816521670000000908869296210700417_">
	<g>
		<text transform="matrix(0.9999 1.570587e-02 -1.570587e-02 0.9999 300.6542 291.9836)" class="st4 st0 st3">U</text>
	</g>
</g>
<g id="ID000012_00000055690191501196615880000009641984226903181973_">
	<text transform="matrix(0.9999 1.570587e-02 -1.570587e-02 0.9999 348.3208 171.7923)" class="st6 st0 st3">U</text>
</g>
<g id="ID000012_00000016790147940039695220000003938979890721907868_">
	<g>
		<text transform="matrix(0.9995 3.140881e-02 -3.140881e-02 0.9995 426.8305 187.1204)" class="st7 st0 st8">U</text>
	</g>
</g>
<g id="ID000012_00000168081586026004552170000004693701218138318745_">
	<g>
		<text transform="matrix(0.9999 1.570587e-02 -1.570587e-02 0.9999 445.4364 208.4996)" class="st7 st0 st3">A</text>
	</g>
</g>
<g id="ID000012_00000096057048547937042630000012320627278538501566_">
	<g>
		<text transform="matrix(0.9999 1.570587e-02 -1.570587e-02 0.9999 463.0453 187.2145)" class="st7 st0 st3">A</text>
	</g>
</g>
<g id="ID000012_00000084514646127943274790000018213383888011845292_">
	<g>
		<text transform="matrix(0.9999 1.570587e-02 -1.570587e-02 0.9999 534.1499 223.9544)" class="st5 st0 st3">A</text>
	</g>
</g>
<g id="ID000012_00000094577677107415823540000006504526597850125202_">
	<g>
		<text transform="matrix(0.9999 1.570587e-02 -1.570587e-02 0.9999 445.4367 187.2153)" class="st7 st0 st3">U</text>
	</g>
</g>
<g id="ID000012_00000102504816899643074940000007762810906938490814_">
	<g>
		<text transform="matrix(0.9999 1.570587e-02 -1.570587e-02 0.9999 463.0454 208.9701)" class="st7 st0 st3">U</text>
	</g>
</g>
<g id="ID000012_00000066498384943166411260000001216328557799522978_">
	<text transform="matrix(0.9999 1.570587e-02 -1.570587e-02 0.9999 363.4059 158.25)" class="st6 st0 st3">U</text>
</g>
<g id="ID000012_00000040546027276384012780000003396610756115918747_">
	<text transform="matrix(0.9999 1.570587e-02 -1.570587e-02 0.9999 324.5337 338.4124)" class="st4 st0 st3">C</text>
</g>
<g id="ID000012_00000169524285357805490160000009963988056620631475_">
	<text transform="matrix(0.9999 1.570587e-02 -1.570587e-02 0.9999 354.6901 187.2158)" class="st7 st0 st3">C</text>
</g>
<g id="ID000012_00000026861120386705270180000016569749735881498787_">
	<text transform="matrix(0.9999 1.570587e-02 -1.570587e-02 0.9999 324.5338 276.2868)" class="st4 st0 st3">C</text>
</g>
<g id="ID000012_00000069386893976274427090000013917289703805097350_">
	<text transform="matrix(0.9999 1.570587e-02 -1.570587e-02 0.9999 300.2836 242.0204)" class="st4 st0 st3">G</text>
</g>
<g id="ID000012_00000103229051345657390160000000328863131246084781_">
	<text transform="matrix(0.9999 1.570587e-02 -1.570587e-02 0.9999 324.5338 242.0199)" class="st4 st0 st3">C</text>
</g>
<g id="ID000012_00000093871016117578977290000012676829185224800654_">
	<text transform="matrix(0.9999 1.570587e-02 -1.570587e-02 0.9999 300.283 225.0198)" class="st4 st0 st3">G</text>
</g>
<g id="ID000012_00000018942593925829847810000006908353146477829760_">
	<text transform="matrix(0.9999 1.570587e-02 -1.570587e-02 0.9999 350.1552 125.7317)" class="st6 st0 st3">G</text>
</g>
<g id="ID000012_00000171720385806234431880000004970552718315775363_">
	<text transform="matrix(0.9999 1.570587e-02 -1.570587e-02 0.9999 354.6902 208.9704)" class="st7 st0 st3">G</text>
</g>
<g id="ID000012_00000178172997688680604760000015510315437054727575_">
	<text transform="matrix(0.9999 1.570587e-02 -1.570587e-02 0.9999 373.7364 187.2151)" class="st7 st0 st3">C</text>
</g>
<g id="ID000012_00000122704656003615967580000014777616513356975503_">
	<text transform="matrix(0.9999 1.570587e-02 -1.570587e-02 0.9999 373.7356 208.9697)" class="st7 st0 st3">G</text>
</g>
<g id="ID000012_00000061459582054656398460000009423906347183762343_">
	<text transform="matrix(0.9999 1.570587e-02 -1.570587e-02 0.9999 392.6987 187.2151)" class="st7 st0 st3">G</text>
</g>
<g id="ID000012_00000094599742994360745740000008224082116212862886_">
	<text transform="matrix(0.9999 1.570587e-02 -1.570587e-02 0.9999 392.6989 208.9697)" class="st7 st0 st3">C</text>
</g>
<g id="ID000012_00000054958845457259205620000014339255019989598908_">
	<g>
		<text transform="matrix(0.9999 1.570587e-02 -1.570587e-02 0.9999 479.3627 187.2154)" class="st7 st0 st3">G</text>
	</g>
</g>
<g id="ID000012_00000088119804910530080360000012522998374557809585_">
	<g>
		<text transform="matrix(0.9999 1.570587e-02 -1.570587e-02 0.9999 479.3629 208.9695)" class="st7 st0 st3">C</text>
	</g>
</g>
<g id="ID000012_00000094617642752545568650000009411898773271440278_">
	<g>
		<text transform="matrix(0.9999 1.570587e-02 -1.570587e-02 0.9999 497.3809 187.7567)" class="st7 st0 st3">G</text>
	</g>
</g>
<g id="ID000012_00000005976083454710534040000014191927209367660451_">
	<g>
		<text transform="matrix(0.9999 1.570587e-02 -1.570587e-02 0.9999 497.381 209.5114)" class="st7 st0 st3">C</text>
	</g>
</g>
<g id="ID000012_00000170993145571388777680000003441310339047993505_">
	<g>
		<text transform="matrix(0.9999 1.570587e-02 -1.570587e-02 0.9999 514.4816 187.7568)" class="st7 st0 st3">G</text>
	</g>
</g>
<g id="ID000012_00000080208606901871069020000013551358127511725218_">
	<g>
		<text transform="matrix(0.9999 1.570587e-02 -1.570587e-02 0.9999 514.4818 209.5114)" class="st7 st0 st3">C</text>
	</g>
</g>
<g id="ID000012_00000040540515566953370740000004627322917258240677_">
	<g>
		<text transform="matrix(0.9999 1.570587e-02 -1.570587e-02 0.9999 552.5205 187.7565)" class="st5 st0 st3">C</text>
	</g>
</g>
<g id="ID000012_00000130615023769462311050000003968178638906888614_">
	<g>
		<text transform="matrix(0.9999 1.570587e-02 -1.570587e-02 0.9999 552.5199 208.4988)" class="st5 st0 st3">C</text>
	</g>
</g>
<g id="ID000012_00000098189309746900834570000008687035601894942117_">
	<g>
		<text transform="matrix(0.9999 1.570587e-02 -1.570587e-02 0.9999 534.1502 169.6523)" class="st5 st0 st3">C</text>
	</g>
</g>
<g id="ID000012_00000170982791038403875100000004728156430366961050_">
	<text transform="matrix(0.9999 1.570587e-02 -1.570587e-02 0.9999 324.5337 225.0193)" class="st4 st0 st3">C</text>
</g>
<g id="ID000012_00000170269834846717235460000013945952119982210197_">
	<text transform="matrix(0.9999 1.570587e-02 -1.570587e-02 0.9999 377.5039 142.1711)" class="st6 st0 st3">C</text>
</g>
<g id="ID000012_00000021834984327113468420000005724536435405334195_">
	<g>
		<text transform="matrix(0.9999 1.570587e-02 -1.570587e-02 0.9999 405.7083 103.2045)" class="st5 st0 st3">C</text>
	</g>
</g>
<g id="ID000012_00000074413577122691434050000007415029074451020199_">
	<text transform="matrix(0.9999 1.570587e-02 -1.570587e-02 0.9999 300.284 259.0327)" class="st4 st0 st3">C</text>
</g>
<g id="ID000018_00000104707097969389953970000009088350760481935533_">
	<text transform="matrix(0.9998 1.779544e-02 -1.779544e-02 0.9998 278.5541 374.0228)" class="st0 st9">5’</text>
</g>
<g id="ID000018_00000074432191412392947320000007456582386398894230_">
	<text transform="matrix(0.9998 1.779544e-02 -1.779544e-02 0.9998 261.5818 230.9535)" class="st0 st9">10</text>
</g>
<g id="ID000018_00000016776568461928348080000008120274785395454901_">
	<text transform="matrix(0.9998 1.779544e-02 -1.779544e-02 0.9998 423.9271 132.4319)" class="st0 st9">20</text>
</g>
<g id="ID000018_00000173875532345894262190000001693141531838976410_">
	<text transform="matrix(0.9998 1.779544e-02 -1.779544e-02 0.9998 459.2323 162.6802)" class="st0 st9">30</text>
</g>
<g id="ID000018_00000161597497116145835630000001696915511484909206_">
	<text transform="matrix(0.9998 1.779544e-02 -1.779544e-02 0.9998 477.0354 232.4001)" class="st0 st9">40</text>
</g>
<g id="ID000018_00000046333073655428963730000016054846294715392905_">
	<text transform="matrix(0.9998 1.779544e-02 -1.779544e-02 0.9998 350.1557 278.1255)" class="st0 st9">50</text>
</g>
<g id="ID000018_00000054229788772175650710000009096838164884966548_">
	<text transform="matrix(0.9998 1.779544e-02 -1.779544e-02 0.9998 334.3116 357.6863)" class="st0 st9">3’</text>
</g>
<line class="st10" x1="322.4" y1="333.1" x2="314.8" y2="333.1"/>
<line class="st10" x1="451.1" y1="195.8" x2="451.2" y2="189"/>
<line class="st10" x1="504.4" y1="196.7" x2="504.5" y2="189.8"/>
<line class="st10" x1="469.1" y1="196.7" x2="469.3" y2="189.8"/>
<line class="st10" x1="486.2" y1="196.7" x2="486.2" y2="189.8"/>
<line class="st10" x1="521.2" y1="196.7" x2="521.3" y2="189.8"/>
<line class="st10" x1="431.8" y1="195.8" x2="431.9" y2="189"/>
<line class="st10" x1="380.1" y1="195.6" x2="380.2" y2="188.7"/>
<line class="st10" x1="399.7" y1="195.8" x2="399.8" y2="189"/>
<line class="st10" x1="361.4" y1="195.6" x2="361.5" y2="188.7"/>
<line class="st10" x1="322.4" y1="287.2" x2="314.8" y2="287.2"/>
<line class="st10" x1="346.8" y1="162.3" x2="339.8" y2="156.7"/>
<line class="st10" x1="360" y1="148.8" x2="353" y2="143.2"/>
<line class="st10" x1="374.4" y1="132.4" x2="367.5" y2="126.8"/>
<line class="st10" x1="322.4" y1="271.6" x2="314.8" y2="271.6"/>
<line class="st10" x1="322.4" y1="254.2" x2="314.8" y2="254.2"/>
<line class="st10" x1="322.4" y1="237.3" x2="314.8" y2="237.3"/>
<line class="st10" x1="322.4" y1="219.6" x2="314.8" y2="219.6"/>
<line class="st11" x1="469.3" y1="173" x2="469.4" y2="166.2"/>
<line class="st11" x1="486.2" y1="217.6" x2="486.2" y2="210.7"/>
<line class="st11" x1="415.5" y1="125.1" x2="423.9" y2="128.3"/>
<line class="st11" x1="347.8" y1="273" x2="341" y2="272.7"/>
<line class="st11" x1="272.5" y1="216.8" x2="277" y2="211.6"/>
</svg>
