<?xml version="1.0" encoding="utf-8"?>
<!-- Generator: Adobe Illustrator 27.0.0, SVG Export Plug-In . SVG Version: 6.00 Build 0)  -->
<svg version="1.1" id="图层_1" xmlns="http://www.w3.org/2000/svg" xmlns:xlink="http://www.w3.org/1999/xlink" x="0px" y="0px"
	 viewBox="0 0 800 400" style="enable-background:new 0 0 800 400;" xml:space="preserve">
<style type="text/css">
	.st0{fill:#B83332;}
	.st1{font-family:'ArialMT';}
	.st2{font-size:18.0842px;}
	.st3{fill:#084595;}
	.st4{fill:#C2B617;}
	.st5{fill:#CF3E7D;}
	.st6{font-size:10.0467px;}
	.st7{fill:none;stroke:#000000;stroke-miterlimit:10;}
	.st8{stroke:#000000;stroke-miterlimit:10;}
	.st9{font-size:16px;}
	.st10{font-size:14.0843px;}
</style>
<text transform="matrix(0.9999 1.262599e-02 -1.262599e-02 0.9999 275.0842 200.9033)" class="st0 st1 st2">A</text>
<text transform="matrix(0.9999 1.262599e-02 -1.262599e-02 0.9999 291.7285 202.3772)" class="st0 st1 st2">G</text>
<text transform="matrix(0.9999 1.262599e-02 -1.262599e-02 0.9999 310.8228 201.5611)" class="st0 st1 st2">G</text>
<text transform="matrix(0.9999 1.262599e-02 -1.262599e-02 0.9999 327.6953 194.4484)" class="st0 st1 st2">A</text>
<text transform="matrix(0.9999 1.262599e-02 -1.262599e-02 0.9999 343.603 201.3119)" class="st0 st1 st2">C</text>
<text transform="matrix(0.9999 1.262599e-02 -1.262599e-02 0.9999 363.2225 202.7999)" class="st0 st1 st2">G</text>
<text transform="matrix(0.9999 1.262599e-02 -1.262599e-02 0.9999 384.2611 204.595)" class="st0 st1 st2">A</text>
<text transform="matrix(0.9999 1.262599e-02 -1.262599e-02 0.9999 399.7844 197.977)" class="st0 st1 st2">U</text>
<text transform="matrix(0.9999 1.262599e-02 -1.262599e-02 0.9999 416.6093 202.2083)" class="st0 st1 st2">G</text>
<text transform="matrix(0.9999 1.262599e-02 -1.262599e-02 0.9999 428.4576 214.7627)" class="st0 st1 st2">C</text>
<text transform="matrix(0.9999 1.262599e-02 -1.262599e-02 0.9999 448.4815 222.1148)" class="st0 st1 st2">G</text>
<text transform="matrix(0.9999 1.262599e-02 -1.262599e-02 0.9999 462.0931 213.1302)" class="st3 st1 st2">G</text>
<text transform="matrix(0.9999 1.262599e-02 -1.262599e-02 0.9999 468.5463 191.3588)" class="st3 st1 st2">A</text>
<text transform="matrix(0.9999 1.262599e-02 -1.262599e-02 0.9999 474.9373 172.2632)" class="st3 st1 st2">C</text>
<text transform="matrix(0.9999 1.262599e-02 -1.262599e-02 0.9999 465.7126 157.9063)" class="st3 st1 st2">A</text>
<text transform="matrix(0.9999 1.262599e-02 -1.262599e-02 0.9999 456.0906 142.599)" class="st3 st1 st2">G</text>
<text transform="matrix(0.9999 1.262599e-02 -1.262599e-02 0.9999 453.6785 123.8674)" class="st3 st1 st2">A</text>
<text transform="matrix(0.9999 1.262599e-02 -1.262599e-02 0.9999 455.6884 106.1521)" class="st3 st1 st2">U</text>
<text transform="matrix(0.9999 1.262599e-02 -1.262599e-02 0.9999 464.1302 89.6211)" class="st3 st1 st2">A</text>
<text transform="matrix(0.9999 1.262599e-02 -1.262599e-02 0.9999 476.1936 77.1782)" class="st3 st1 st2">C</text>
<text transform="matrix(0.9999 1.262599e-02 -1.262599e-02 0.9999 491.584 68.7874)" class="st3 st1 st2">G</text>
<text transform="matrix(0.9999 1.262599e-02 -1.262599e-02 0.9999 509.3318 65.5171)" class="st3 st1 st2">G</text>
<text transform="matrix(0.9999 1.262599e-02 -1.262599e-02 0.9999 528.1898 67.6792)" class="st3 st1 st2">A</text>
<text transform="matrix(0.9999 1.262599e-02 -1.262599e-02 0.9999 544.2072 75.76)" class="st3 st1 st2">A</text>
<text transform="matrix(0.9999 1.262599e-02 -1.262599e-02 0.9999 557.2894 88.1293)" class="st3 st1 st2">C</text>
<text transform="matrix(0.9999 1.262599e-02 -1.262599e-02 0.9999 565.9821 103.6275)" class="st3 st1 st2">U</text>
<text transform="matrix(0.9999 1.262599e-02 -1.262599e-02 0.9999 569.7198 121.093)" class="st3 st1 st2">A</text>
<text transform="matrix(0.9999 1.262599e-02 -1.262599e-02 0.9999 567.0345 139.5435)" class="st3 st1 st2">C</text>
<text transform="matrix(0.9999 1.262599e-02 -1.262599e-02 0.9999 559.8865 155.3198)" class="st3 st1 st2">A</text>
<text transform="matrix(0.9999 1.262599e-02 -1.262599e-02 0.9999 546.4822 169.3103)" class="st3 st1 st2">G</text>
<text transform="matrix(0.9999 1.262599e-02 -1.262599e-02 0.9999 531.4476 177.376)" class="st3 st1 st2">A</text>
<text transform="matrix(0.9999 1.262599e-02 -1.262599e-02 0.9999 513.5004 181.4315)" class="st3 st1 st2">G</text>
<text transform="matrix(0.9999 1.262599e-02 -1.262599e-02 0.9999 496.9433 179.7404)" class="st3 st1 st2">G</text>
<text transform="matrix(0.9999 1.262599e-02 -1.262599e-02 0.9999 490.4113 196.6177)" class="st3 st1 st2">U</text>
<text transform="matrix(0.9999 1.262599e-02 -1.262599e-02 0.9999 487.2238 214.1536)" class="st3 st1 st2">C</text>
<text transform="matrix(0.9999 1.262599e-02 -1.262599e-02 0.9999 503.3793 218.2583)" class="st4 st1 st2">A</text>
<text transform="matrix(0.9999 1.262599e-02 -1.262599e-02 0.9999 516.3611 229.4529)" class="st4 st1 st2">A</text>
<text transform="matrix(0.9999 1.262599e-02 -1.262599e-02 0.9999 523.8979 245.6851)" class="st4 st1 st2">U</text>
<text transform="matrix(0.9999 1.262599e-02 -1.262599e-02 0.9999 524.6564 263.5833)" class="st4 st1 st2">U</text>
<text transform="matrix(0.9999 1.262599e-02 -1.262599e-02 0.9999 518.1207 279.9044)" class="st4 st1 st2">A</text>
<text transform="matrix(0.9999 1.262599e-02 -1.262599e-02 0.9999 505.6237 292.8932)" class="st4 st1 st2">C</text>
<text transform="matrix(0.9999 1.262599e-02 -1.262599e-02 0.9999 490.493 300.4464)" class="st5 st1 st2">G</text>
<text transform="matrix(0.9999 1.262599e-02 -1.262599e-02 0.9999 491.25 319.3046)" class="st5 st1 st2">G</text>
<text transform="matrix(0.9999 1.262599e-02 -1.262599e-02 0.9999 493.7314 337.8882)" class="st5 st1 st2">U</text>
<text transform="matrix(0.9999 1.262599e-02 -1.262599e-02 0.9999 495.8902 357.1133)" class="st5 st1 st2">G</text>
<text transform="matrix(0.9999 1.262599e-02 -1.262599e-02 0.9999 505.4196 371.6322)" class="st5 st1 st2">G</text>
<text transform="matrix(0.9999 1.262599e-02 -1.262599e-02 0.9999 498.1715 388.2149)" class="st5 st1 st2">C</text>
<text transform="matrix(0.9999 1.262599e-02 -1.262599e-02 0.9999 480.2891 390.9366)" class="st5 st1 st2">C</text>
<text transform="matrix(0.9999 1.262599e-02 -1.262599e-02 0.9999 468.4651 376.3799)" class="st5 st1 st2">A</text>
<text transform="matrix(0.9999 1.262599e-02 -1.262599e-02 0.9999 472.5367 361.3744)" class="st5 st1 st2">C</text>
<text transform="matrix(0.9999 1.262599e-02 -1.262599e-02 0.9999 469.6593 342.2057)" class="st5 st1 st2">G</text>
<text transform="matrix(0.9999 1.262599e-02 -1.262599e-02 0.9999 468.2813 322.3274)" class="st5 st1 st2">C</text>
<text transform="matrix(0.9999 1.262599e-02 -1.262599e-02 0.9999 466.9847 302.346)" class="st5 st1 st2">C</text>
<text transform="matrix(0.9999 1.262599e-02 -1.262599e-02 0.9999 453.1936 290.7359)" class="st4 st1 st2">A</text>
<text transform="matrix(0.9999 1.262599e-02 -1.262599e-02 0.9999 441.8389 277.1515)" class="st4 st1 st2">G</text>
<text transform="matrix(0.9999 1.262599e-02 -1.262599e-02 0.9999 438.0122 259.6072)" class="st4 st1 st2">A</text>
<text transform="matrix(0.9999 1.262599e-02 -1.262599e-02 0.9999 440.5306 243.7026)" class="st0 st1 st2">C</text>
<text transform="matrix(0.9999 1.262599e-02 -1.262599e-02 0.9999 423.135 237.8004)" class="st0 st1 st2">G</text>
<text transform="matrix(0.9999 1.262599e-02 -1.262599e-02 0.9999 407.7974 245.3403)" class="st0 st1 st2">A</text>
<text transform="matrix(0.9999 1.262599e-02 -1.262599e-02 0.9999 390.5168 241.2301)" class="st0 st1 st2">C</text>
<text transform="matrix(0.9999 1.262599e-02 -1.262599e-02 0.9999 380.7307 228.3292)" class="st0 st1 st2">U</text>
<text transform="matrix(0.9999 1.262599e-02 -1.262599e-02 0.9999 361.8813 226.0231)" class="st0 st1 st2">C</text>
<text transform="matrix(0.9999 1.262599e-02 -1.262599e-02 0.9999 342.6139 225.2705)" class="st0 st1 st2">G</text>
<text transform="matrix(0.9999 1.262599e-02 -1.262599e-02 0.9999 327.2875 232.4599)" class="st0 st1 st2">C</text>
<text transform="matrix(0.9999 1.262599e-02 -1.262599e-02 0.9999 311.5386 224.4626)" class="st0 st1 st2">C</text>
<text transform="matrix(0.9999 1.262599e-02 -1.262599e-02 0.9999 293.9456 224.4128)" class="st0 st1 st2">C</text>
<text transform="matrix(0.9999 1.262599e-02 -1.262599e-02 0.9999 275.5524 224.9209)" class="st0 st1 st2">G</text>
<text transform="matrix(0.9999 1.262599e-02 -1.262599e-02 0.9999 259.7512 224.3937)" class="st0 st1 st2">A</text>
<text transform="matrix(0.9999 1.262599e-02 -1.262599e-02 0.9999 436.6517 201.9106)" class="st1 st6">10</text>
<text transform="matrix(0.9999 1.262599e-02 -1.262599e-02 0.9999 468.6735 63.9474)" class="st1 st6">20</text>
<text transform="matrix(0.9999 1.262599e-02 -1.262599e-02 0.9999 553.2866 179.9718)" class="st1 st6">30</text>
<text transform="matrix(0.9999 1.262599e-02 -1.262599e-02 0.9999 525.7675 287.2022)" class="st1 st6">40</text>
<text transform="matrix(0.9999 1.262599e-02 -1.262599e-02 0.9999 457.4927 373.4228)" class="st1 st6">50</text>
<text transform="matrix(0.9999 1.262599e-02 -1.262599e-02 0.9999 386.2009 252.3035)" class="st1 st6">60</text>
<g id="ID000011">
	<line class="st7" x1="496.7" y1="171.1" x2="488.3" y2="168.9"/>
</g>
<g id="ID000011-2">
	<line class="st7" x1="489.4" y1="188.5" x2="481" y2="186.3"/>
</g>
<g id="ID000011-3">
	<line class="st7" x1="486.8" y1="206.8" x2="476.7" y2="207"/>
</g>
<g id="ID000011-4">
	<line class="st7" x1="453" y1="221.5" x2="450" y2="230.6"/>
</g>
<g id="ID000011-5">
	<line class="st7" x1="433" y1="213.9" x2="430.4" y2="224.5"/>
</g>
<g id="ID000011-6">
	<line class="st7" x1="490" y1="294.4" x2="480.7" y2="295.3"/>
</g>
<g id="ID000011-7">
	<line class="st7" x1="495.6" y1="351.6" x2="485.8" y2="354.2"/>
</g>
<g id="ID000011-8">
	<line class="st7" x1="490.4" y1="313.5" x2="482.5" y2="314.3"/>
</g>
<g id="ID000011-9">
	<line class="st7" x1="389.3" y1="203" x2="388.6" y2="215.5"/>
</g>
<g id="ID000011-10">
	<line class="st7" x1="370.1" y1="203.3" x2="369.3" y2="213.3"/>
</g>
<g id="ID000011-11">
	<line class="st7" x1="349.9" y1="201.6" x2="349.3" y2="212.4"/>
</g>
<g id="ID000011-12">
	<line class="st7" x1="316.6" y1="201.9" x2="317.6" y2="211.4"/>
</g>
<g id="ID000011-13">
	<line class="st7" x1="298.2" y1="201.7" x2="299.2" y2="212.4"/>
</g>
<g id="ID000021">
	<polygon class="st8" points="487.4,332.9 487.4,333.1 487.4,333.2 487.4,333.3 487.4,333.4 487.4,333.5 487.5,333.6 487.5,333.7 
		487.6,333.8 487.6,333.9 487.7,334 487.8,334.1 487.8,334.1 487.9,334.2 488,334.3 488.1,334.3 488.2,334.4 488.3,334.4 
		488.4,334.5 488.4,334.6 488.6,334.6 488.7,334.6 488.8,334.6 488.9,334.7 489,334.7 489.1,334.7 489.2,334.7 489.3,334.6 
		489.4,334.6 489.5,334.6 489.6,334.6 489.7,334.5 489.8,334.5 489.9,334.4 490,334.4 490.1,334.3 490.2,334.2 490.3,334.2 
		490.3,334.1 490.4,334 490.5,333.9 490.6,333.8 490.6,333.7 490.6,333.6 490.7,333.5 490.7,333.4 490.7,333.3 490.8,333.2 
		490.8,333.1 490.8,333 490.8,332.9 490.8,332.8 490.8,332.7 490.7,332.6 490.7,332.5 490.7,332.3 490.6,332.2 490.6,332.1 
		490.6,332 490.5,331.9 490.4,331.9 490.3,331.8 490.3,331.7 490.2,331.6 490.1,331.6 490,331.5 489.9,331.4 489.8,331.4 
		489.7,331.3 489.6,331.3 489.5,331.3 489.4,331.2 489.3,331.2 489.2,331.2 489.1,331.2 489,331.2 488.9,331.2 488.7,331.2 
		488.6,331.3 488.5,331.3 488.4,331.3 488.4,331.4 488.2,331.4 488.1,331.5 488.1,331.5 488,331.6 487.9,331.7 487.8,331.8 
		487.7,331.8 487.7,331.9 487.6,332 487.6,332.1 487.5,332.2 487.5,332.3 487.4,332.4 487.4,332.5 487.4,332.6 487.4,332.7 
		487.4,332.8 	"/>
</g>
<text transform="matrix(1 0 0 1 353.4677 27.2282)" class="st1 st9">P19 aptamer</text>
<text transform="matrix(0.9999 1.262599e-02 -1.262599e-02 0.9999 265.0768 186.0682)" class="st1 st10">5</text>
<text transform="matrix(0.9999 1.262599e-02 -1.262599e-02 0.9999 272.9068 186.1666)" class="st1 st10">’</text>
<text transform="matrix(0.9999 1.262599e-02 -1.262599e-02 0.9999 245.9163 220.0077)" class="st1 st10">3</text>
<text transform="matrix(0.9999 1.262599e-02 -1.262599e-02 0.9999 253.7467 220.1076)" class="st1 st10">’</text>
</svg>
