<?xml version="1.0" encoding="utf-8"?>
<!-- Generator: Adobe Illustrator 25.2.0, SVG Export Plug-In . SVG Version: 6.00 Build 0)  -->
<svg version="1.1" id="图层_1" xmlns="http://www.w3.org/2000/svg" xmlns:xlink="http://www.w3.org/1999/xlink" x="0px" y="0px"
	 viewBox="0 0 800 400" style="enable-background:new 0 0 800 400;" xml:space="preserve">
<style type="text/css">
	.st0{fill:#B83233;}
	.st1{font-family:'ArialMT';}
	.st2{font-size:14.75px;}
	.st3{fill:#C2B617;}
	.st4{fill:none;stroke:#000000;stroke-width:0.5;}
	.st5{stroke:#000000;stroke-width:0.5;}
	.st6{fill:none;stroke:#000000;}
	.st7{fill:#084595;}
	.st8{fill:#CF3E7D;}
	.st9{font-size:16px;}
	.st10{font-size:20px;}
</style>
<g id="ID000002">
	<text transform="matrix(1 0 0 1 326.0391 85.9986)" class="st0 st1 st2">G</text>
</g>
<g id="ID000003">
	<text transform="matrix(1 0 0 1 340.6691 85.9986)" class="st0 st1 st2">G</text>
</g>
<g id="ID000004">
	<text transform="matrix(1 0 0 1 355.2991 85.9986)" class="st0 st1 st2">G</text>
</g>
<g id="ID000005">
	<text transform="matrix(1 0 0 1 370.7491 85.9986)" class="st0 st1 st2">A</text>
</g>
<g id="ID000006">
	<text transform="matrix(1 0 0 1 384.5691 85.9986)" class="st0 st1 st2">G</text>
</g>
<g id="ID000007">
	<text transform="matrix(1 0 0 1 400.0191 85.9986)" class="st0 st1 st2">A</text>
</g>
<g id="ID000008">
	<text transform="matrix(1 0 0 1 410.9891 67.7086)" class="st3 st1 st2">A</text>
</g>
<g id="ID000009">
	<text transform="matrix(1 0 0 1 428.8691 64.0486)" class="st3 st1 st2">U</text>
</g>
<g id="ID000010">
	<text transform="matrix(1 0 0 1 447.1691 71.3686)" class="st3 st1 st2">U</text>
</g>
<g id="ID000011">
	<text transform="matrix(1 0 0 1 399.6091 115.2586)" class="st0 st1 st2">U</text>
</g>
<g id="ID000012">
	<line class="st4" x1="398" y1="115.6" x2="391.1" y2="122.5"/>
</g>
<g id="ID000013">
	<text transform="matrix(1 0 0 1 374.7391 139.7386)" class="st1 st2">60</text>
</g>
<g id="ID000014">
	<text transform="matrix(1 0 0 1 384.9791 115.2586)" class="st0 st1 st2">C</text>
</g>
<g id="ID000015">
	<text transform="matrix(1 0 0 1 370.3491 115.2586)" class="st0 st1 st2">U</text>
</g>
<g id="ID000016">
	<text transform="matrix(1 0 0 1 355.7091 115.2586)" class="st0 st1 st2">C</text>
</g>
<g id="ID000017">
	<text transform="matrix(1 0 0 1 341.0791 115.2586)" class="st0 st1 st2">C</text>
</g>
<g id="ID000018">
	<text transform="matrix(1 0 0 1 326.4491 115.2586)" class="st0 st1 st2">U</text>
</g>
<g id="ID000019">
	<text transform="matrix(1 0 0 1 311.8191 115.2586)" class="st0 st1 st2">U</text>
</g>
<g id="ID000020">
	<text transform="matrix(1 0 0 1 297.1891 115.2586)" class="st0 st1 st2">C</text>
</g>
<g id="ID000021">
	<text transform="matrix(1 0 0 1 282.5491 115.2586)" class="st0 st1 st2">C</text>
</g>
<g id="ID000022">
	<text transform="matrix(1 0 0 1 267.9191 115.2586)" class="st0 st1 st2">U</text>
</g>
<g id="ID000023">
	<text transform="matrix(1 0 0 1 253.2891 115.2586)" class="st0 st1 st2">C</text>
</g>
<g id="ID000024">
	<line class="st4" x1="258.6" y1="118.4" x2="258.6" y2="128.2"/>
</g>
<g id="ID000025">
	<text transform="matrix(1 0 0 1 250.4091 145.4586)" class="st1 st2">70</text>
</g>
<g id="ID000026">
	<text transform="matrix(1 0 0 1 239.3391 115.2586)" class="st0 st1 st2">U</text>
</g>
<g id="ID000027">
	<text transform="matrix(1 0 0 1 226.6091 115.2586)" class="st0 st1 st2">U</text>
</g>
<g id="ID000028">
	<text transform="matrix(1 0 0 1 214.899 115.2586)" class="st0 st1 st2">C</text>
</g>
<g id="ID000029">
	<text transform="matrix(1 0 0 1 204.0491 115.2586)" class="st0 st1 st2">U</text>
</g>
<g id="ID000030">
	<polygon class="st5" points="331.8,97 332,97 332.1,96.9 332.3,96.9 332.5,96.9 332.7,96.8 332.9,96.8 333,96.7 333.2,96.6 
		333.4,96.5 333.5,96.4 333.7,96.3 333.8,96.2 333.9,96 334,95.9 334.2,95.7 334.3,95.6 334.3,95.4 334.4,95.3 334.5,95.1 
		334.6,94.9 334.6,94.7 334.7,94.5 334.7,94.4 334.7,94.2 334.7,94 334.7,93.8 334.7,93.6 334.6,93.4 334.6,93.3 334.5,93.1 
		334.5,92.9 334.4,92.7 334.3,92.6 334.2,92.4 334.1,92.3 334,92.1 333.9,92 333.7,91.9 333.6,91.7 333.4,91.6 333.3,91.5 
		333.1,91.4 332.9,91.4 332.8,91.3 332.6,91.2 332.4,91.2 332.2,91.2 332,91.1 331.9,91.1 331.7,91.1 331.5,91.1 331.3,91.2 
		331.1,91.2 330.9,91.2 330.8,91.3 330.6,91.4 330.4,91.4 330.3,91.5 330.1,91.6 330,91.7 329.8,91.9 329.7,92 329.6,92.1 
		329.4,92.3 329.3,92.4 329.2,92.6 329.1,92.7 329.1,92.9 329,93.1 328.9,93.3 328.9,93.4 328.9,93.6 328.9,93.8 328.8,94 
		328.8,94.2 328.9,94.4 328.9,94.5 328.9,94.7 329,94.9 329,95.1 329.1,95.3 329.2,95.4 329.3,95.6 329.4,95.7 329.5,95.9 329.6,96 
		329.7,96.2 329.9,96.3 330,96.4 330.2,96.5 330.3,96.6 330.5,96.7 330.7,96.8 330.9,96.8 331,96.9 331.2,96.9 331.4,96.9 331.6,97 
			"/>
</g>
<g id="ID000031">
	<line class="st6" x1="346.4" y1="85.3" x2="346.4" y2="102.8"/>
</g>
<g id="ID000032">
	<line class="st6" x1="361" y1="85.3" x2="361" y2="102.8"/>
</g>
<g id="ID000033">
	<line class="st6" x1="375.7" y1="85.3" x2="375.7" y2="102.8"/>
</g>
<g id="ID000034">
	<line class="st6" x1="390.3" y1="85.3" x2="390.3" y2="102.8"/>
</g>
<g id="ID000035">
	<line class="st6" x1="404.9" y1="85.3" x2="404.9" y2="102.8"/>
</g>
<g id="ID000037">
	<text transform="matrix(1 0 0 1 458.1391 85.9986)" class="st3 st1 st2">C</text>
</g>
<g id="ID000038">
	<line class="st4" x1="473.2" y1="79.4" x2="483" y2="79.4"/>
</g>
<g id="ID000039">
	<text transform="matrix(1 0 0 1 482.9791 85.9986)" class="st1 st2">10</text>
</g>
<g id="ID000040">
	<text transform="matrix(1 0 0 1 454.4791 104.2886)" class="st3 st1 st2">C</text>
</g>
<g id="ID000041">
	<text transform="matrix(1 0 0 1 446.7591 122.5786)" class="st7 st1 st2">G</text>
</g>
<g id="ID000042">
	<text transform="matrix(1 0 0 1 447.5691 137.2086)" class="st7 st1 st2">A</text>
</g>
<g id="ID000043">
	<text transform="matrix(1 0 0 1 465.459 140.8686)" class="st7 st1 st2">C</text>
</g>
<g id="ID000044">
	<text transform="matrix(1 0 0 1 472.7691 159.1586)" class="st7 st1 st2">C</text>
</g>
<g id="ID000045">
	<text transform="matrix(1 0 0 1 410.5891 155.4986)" class="st7 st1 st2">C</text>
</g>
<g id="ID000046">
	<text transform="matrix(1 0 0 1 417.8991 137.2086)" class="st7 st1 st2">U</text>
</g>
<g id="ID000047">
	<text transform="matrix(1 0 0 1 417.8991 122.5786)" class="st7 st1 st2">C</text>
</g>
<g id="ID000048">
	<line class="st6" x1="446.6" y1="116" x2="429.1" y2="116"/>
</g>
<g id="ID000049">
	<line class="st6" x1="446.6" y1="133.3" x2="429.1" y2="133.3"/>
</g>
<g id="ID000051">
	<text transform="matrix(1 0 0 1 462.1991 170.1386)" class="st7 st1 st2">A</text>
</g>
<g id="ID000052">
	<text transform="matrix(1 0 0 1 446.7591 173.7886)" class="st7 st1 st2">G</text>
</g>
<g id="ID000053">
	<text transform="matrix(1 0 0 1 447.5691 188.4286)" class="st7 st1 st2">A</text>
</g>
<g id="ID000054">
	<text transform="matrix(1 0 0 1 447.5691 203.0586)" class="st7 st1 st2">A</text>
</g>
<g id="ID000055">
	<text transform="matrix(1 0 0 1 446.7591 217.6886)" class="st7 st1 st2">G</text>
</g>
<g id="ID000056">
	<line class="st4" x1="462.2" y1="211.1" x2="472" y2="211.1"/>
</g>
<g id="ID000057">
	<text transform="matrix(1 0 0 1 471.9991 217.6886)" class="st1 st2">20</text>
</g>
<g id="ID000058">
	<text transform="matrix(1 0 0 1 446.7591 232.3186)" class="st7 st1 st2">G</text>
</g>
<g id="ID000059">
	<text transform="matrix(1 0 0 1 446.7591 246.9486)" class="st7 st1 st2">G</text>
</g>
<g id="ID000060">
	<text transform="matrix(1 0 0 1 447.1691 261.5886)" class="st7 st1 st2">U</text>
</g>
<g id="ID000061">
	<text transform="matrix(1 0 0 1 447.1691 276.2186)" class="st7 st1 st2">U</text>
</g>
<g id="ID000062">
	<g>
		<text transform="matrix(1 0 0 1 447.2291 294.5086)" class="st3 st1 st2">A</text>
	</g>
</g>
<g id="ID000063">
	<text transform="matrix(1 0 0 1 344.7991 289.5386)" class="st3 st1 st2">A</text>
</g>
<g id="ID000064">
	<text transform="matrix(1 0 0 1 358.6191 274.8986)" class="st3 st1 st2">G</text>
</g>
<g id="ID000065">
	<text transform="matrix(1 0 0 1 374.0691 274.8986)" class="st3 st1 st2">A</text>
</g>
<g id="ID000066">
	<g>
		<text transform="matrix(1 0 0 1 388.2991 278.5586)" class="st3 st1 st2">C</text>
	</g>
</g>
<g id="ID000067">
	<text transform="matrix(1 0 0 1 403.3291 278.5586)" class="st3 st1 st2">A</text>
</g>
<g id="ID000068">
	<text transform="matrix(1 0 0 1 417.4891 276.2186)" class="st7 st1 st2">G</text>
</g>
<g id="ID000069">
	<text transform="matrix(1 0 0 1 418.3091 261.5886)" class="st7 st1 st2">A</text>
</g>
<g id="ID000070">
	<line class="st4" x1="416.3" y1="248.1" x2="409.4" y2="241.2"/>
</g>
<g id="ID000071">
	<text transform="matrix(1 0 0 1 393.0291 237.5486)" class="st1 st2">50</text>
</g>
<g id="ID000072">
	<text transform="matrix(1 0 0 1 417.8991 246.9486)" class="st7 st1 st2">C</text>
</g>
<g id="ID000073">
	<text transform="matrix(1 0 0 1 417.8991 232.3186)" class="st7 st1 st2">C</text>
</g>
<g id="ID000074">
	<text transform="matrix(1 0 0 1 417.8991 217.6886)" class="st7 st1 st2">U</text>
</g>
<g id="ID000075">
	<text transform="matrix(1 0 0 1 417.8991 203.0586)" class="st7 st1 st2">U</text>
</g>
<g id="ID000076">
	<text transform="matrix(1 0 0 1 417.8991 188.4286)" class="st7 st1 st2">U</text>
</g>
<g id="ID000077">
	<text transform="matrix(1 0 0 1 417.8991 173.7886)" class="st7 st1 st2">C</text>
</g>
<g id="ID000078">
	<line class="st6" x1="446.6" y1="167.2" x2="429.1" y2="167.2"/>
</g>
<g id="ID000079">
	<line class="st6" x1="446.6" y1="181.8" x2="429.1" y2="181.8"/>
</g>
<g id="ID000080">
	<line class="st6" x1="446.6" y1="196.5" x2="429.1" y2="196.5"/>
</g>
<g id="ID000081">
	<polygon class="st5" points="434.9,211.1 434.9,211.3 435,211.5 435,211.7 435,211.8 435.1,212 435.1,212.2 435.2,212.4 
		435.3,212.5 435.4,212.7 435.5,212.8 435.6,213 435.7,213.1 435.9,213.3 436,213.4 436.2,213.5 436.3,213.6 436.5,213.7 
		436.6,213.8 436.8,213.8 437,213.9 437.2,213.9 437.3,214 437.5,214 437.7,214 437.9,214 438.1,214 438.3,214 438.5,214 
		438.6,213.9 438.8,213.9 439,213.8 439.2,213.7 439.3,213.6 439.5,213.5 439.6,213.4 439.8,213.3 439.9,213.2 440,213.1 
		440.2,212.9 440.3,212.8 440.4,212.6 440.5,212.4 440.5,212.3 440.6,212.1 440.7,211.9 440.7,211.7 440.7,211.6 440.8,211.4 
		440.8,211.2 440.8,211 440.8,210.8 440.7,210.6 440.7,210.5 440.7,210.3 440.6,210.1 440.5,209.9 440.5,209.8 440.4,209.6 
		440.3,209.4 440.2,209.3 440,209.2 439.9,209 439.8,208.9 439.6,208.8 439.5,208.7 439.3,208.6 439.2,208.5 439,208.4 438.8,208.3 
		438.6,208.3 438.5,208.2 438.3,208.2 438.1,208.2 437.9,208.2 437.7,208.2 437.5,208.2 437.3,208.2 437.2,208.3 437,208.3 
		436.8,208.4 436.6,208.4 436.5,208.5 436.3,208.6 436.2,208.7 436,208.8 435.9,209 435.7,209.1 435.6,209.2 435.5,209.4 
		435.4,209.5 435.3,209.7 435.2,209.8 435.1,210 435.1,210.2 435,210.4 435,210.5 435,210.7 434.9,210.9 	"/>
</g>
<g id="ID000082">
	<line class="st6" x1="446.6" y1="225.7" x2="429.1" y2="225.7"/>
</g>
<g id="ID000083">
	<line class="st6" x1="446.6" y1="240.4" x2="429.1" y2="240.4"/>
</g>
<g id="ID000084">
	<line class="st6" x1="446.6" y1="255" x2="429.1" y2="255"/>
</g>
<g id="ID000085">
	<polygon class="st5" points="434.9,269.6 434.9,269.8 435,270 435,270.2 435,270.4 435.1,270.5 435.1,270.7 435.2,270.9 
		435.3,271.1 435.4,271.2 435.5,271.4 435.6,271.5 435.7,271.7 435.9,271.8 436,271.9 436.2,272 436.3,272.1 436.5,272.2 
		436.6,272.3 436.8,272.4 437,272.4 437.2,272.5 437.3,272.5 437.5,272.5 437.7,272.6 437.9,272.6 438.1,272.5 438.3,272.5 
		438.5,272.5 438.6,272.5 438.8,272.4 439,272.3 439.2,272.3 439.3,272.2 439.5,272.1 439.6,272 439.8,271.8 439.9,271.7 440,271.6 
		440.2,271.4 440.3,271.3 440.4,271.1 440.5,271 440.5,270.8 440.6,270.6 440.7,270.5 440.7,270.3 440.7,270.1 440.8,269.9 
		440.8,269.7 440.8,269.5 440.8,269.4 440.7,269.2 440.7,269 440.7,268.8 440.6,268.6 440.5,268.5 440.5,268.3 440.4,268.1 
		440.3,268 440.2,267.8 440,267.7 439.9,267.5 439.8,267.4 439.6,267.3 439.5,267.2 439.3,267.1 439.2,267 439,266.9 438.8,266.9 
		438.6,266.8 438.5,266.8 438.3,266.7 438.1,266.7 437.9,266.7 437.7,266.7 437.5,266.7 437.3,266.7 437.2,266.8 437,266.8 
		436.8,266.9 436.6,267 436.5,267.1 436.3,267.1 436.2,267.2 436,267.4 435.9,267.5 435.7,267.6 435.6,267.8 435.5,267.9 435.4,268 
		435.3,268.2 435.2,268.4 435.1,268.5 435.1,268.7 435,268.9 435,269.1 435,269.3 434.9,269.4 	"/>
</g>
<g id="ID000087">
	<text transform="matrix(1 0 0 1 446.4091 309.1386)" class="st8 st1 st2">G</text>
</g>
<g id="ID000088">
	<text transform="matrix(1 0 0 1 446.8191 323.7686)" class="st8 st1 st2">C</text>
</g>
<g id="ID000089">
	<text transform="matrix(1 0 0 1 447.2291 338.4086)" class="st8 st1 st2">A</text>
</g>
<g id="ID000090">
	<text transform="matrix(1 0 0 1 454.4788 353.0385)" class="st8 st1 st2">G</text>
</g>
<g id="ID000091">
	<text transform="matrix(1 0 0 1 458.1387 367.6685)" class="st8 st1 st2">U</text>
</g>
<g id="ID000092">
	<line class="st4" x1="483.8" y1="361.1" x2="493.6" y2="361.1"/>
</g>
<g id="ID000093">
	<text transform="matrix(1 0 0 1 493.6091 367.6686)" class="st1 st2">30</text>
</g>
<g id="ID000094">
	<text transform="matrix(1 0 0 1 454.4791 382.3086)" class="st8 st1 st2">C</text>
</g>
<g id="ID000095">
	<text transform="matrix(1 0 0 1 432.1862 389.6188)" class="st8 st1 st2">G</text>
</g>
<g id="ID000096">
	<text transform="matrix(1 0 0 1 410.9895 385.9582)" class="st8 st1 st2">G</text>
</g>
<g id="ID000097">
	<text transform="matrix(1 0 0 1 406.5891 371.3286)" class="st8 st1 st2">C</text>
</g>
<g id="ID000098">
	<text transform="matrix(1 0 0 1 409.4289 353.0381)" class="st8 st1 st2">A</text>
</g>
<g id="ID000099">
	<text transform="matrix(1 0 0 1 417.5591 338.4086)" class="st8 st1 st2">U</text>
</g>
<g id="ID000100">
	<text transform="matrix(1 0 0 1 417.1491 323.7686)" class="st8 st1 st2">G</text>
</g>
<g id="ID000101">
	<text transform="matrix(1 0 0 1 417.5591 309.1386)" class="st8 st1 st2">C</text>
</g>
<g id="ID000102">
	<text transform="matrix(1 0 0 1 402.5191 304.1686)" class="st3 st1 st2">G</text>
</g>
<g id="ID000103">
	<text transform="matrix(1 0 0 1 387.8891 315.1386)" class="st3 st1 st2">G</text>
</g>
<g id="ID000104">
	<line class="st4" x1="393.6" y1="318.3" x2="393.6" y2="328.1"/>
</g>
<g id="ID000105">
	<text transform="matrix(1 0 0 1 385.4191 345.3286)" class="st1 st2">40</text>
</g>
<g id="ID000106">
	<text transform="matrix(1 0 0 1 369.9991 322.4586)" class="st3 st1 st2">U</text>
</g>
<g id="ID000107">
	<text transform="matrix(1 0 0 1 355.7791 322.4586)" class="st3 st1 st2">A</text>
</g>
<g id="ID000108">
	<text transform="matrix(1 0 0 1 344.3991 307.8286)" class="st3 st1 st2">C</text>
</g>
<g id="ID000109">
	<line class="st6" x1="446.3" y1="302.6" x2="428.7" y2="302.6"/>
</g>
<g id="ID000110">
	<line class="st6" x1="446.3" y1="317.2" x2="428.7" y2="317.2"/>
</g>
<g id="ID000111">
	<line class="st6" x1="446.3" y1="331.8" x2="428.7" y2="331.8"/>
</g>
<text transform="matrix(1 0 0 1 308.5591 85.9986)" class="st1 st9">5</text>
<text transform="matrix(1 0 0 1 317.459 85.9986)" class="st1 st9">’</text>
<text transform="matrix(1 0 0 1 188.5591 115.9986)" class="st1 st9">3</text>
<text transform="matrix(1 0 0 1 197.4591 115.9986)" class="st1 st9">’</text>
<text transform="matrix(1 0 0 1 311.8193 36.9735)" class="st1 st10">P30-10-16 aptamer</text>
</svg>
