<?xml version="1.0" encoding="utf-8"?>
<!-- Generator: Adobe Illustrator 25.2.0, SVG Export Plug-In . SVG Version: 6.00 Build 0)  -->
<svg version="1.1" id="图层_1" xmlns="http://www.w3.org/2000/svg" xmlns:xlink="http://www.w3.org/1999/xlink" x="0px" y="0px"
	 viewBox="0 0 800 400" style="enable-background:new 0 0 800 400;" xml:space="preserve">
<style type="text/css">
	.st0{fill:#B83332;}
	.st1{font-family:'ArialMT';}
	.st2{font-size:19.1089px;}
	.st3{fill:#C2B617;}
	.st4{letter-spacing:-2.5;}
	.st5{fill:none;stroke:#000000;stroke-miterlimit:3.05;}
	.st6{fill:#084595;}
	.st7{stroke:#000000;stroke-miterlimit:3.05;}
	.st8{fill:#CF3E7D;}
	.st9{fill:#18988C;}
	.st10{font-size:20px;}
</style>
<g id="ID000002">
	<text transform="matrix(1.1916 0 0 1 231.3032 260.9955)" class="st0 st1 st2">G</text>
</g>
<g id="ID000003">
	<text transform="matrix(1.1916 0 0 1 247.6753 260.975)" class="st0 st1 st2">G</text>
</g>
<g id="ID000004">
	<text transform="matrix(1.1916 0 0 1 264.0654 260.975)" class="st0 st1 st2">G</text>
</g>
<g id="ID000005">
	<text transform="matrix(1.1916 0 0 1 276.7012 236.9398)" class="st3 st1 st2 st4">A</text>
</g>
<g id="ID000006">
	<text transform="matrix(1.1916 0 0 1 283.0767 332.1)" class="st3 st1 st2">G</text>
</g>
<g id="ID000007">
	<text transform="matrix(1.1916 0 0 1 264.0654 313.4301)" class="st0 st1 st2">C</text>
</g>
<g id="ID000008">
	<text transform="matrix(1.1916 0 0 1 247.6753 313.4301)" class="st0 st1 st2">C</text>
</g>
<g id="ID000009">
	<text transform="matrix(1.1916 0 0 1 231.3032 313.4301)" class="st0 st1 st2">C</text>
</g>
<g id="ID000010">
	<text transform="matrix(1.1916 0 0 1 214.9131 312.7045)" class="st3 st1 st2">G</text>
</g>
<g id="ID000011">
	<text transform="matrix(1.1916 0 0 1 198.521 312.7045)" class="st3 st1 st2">G</text>
</g>
<g id="ID000012">
	<line class="st5" x1="206.3" y1="316.7" x2="206.3" y2="334"/>
</g>
<g id="ID000013">
	<text transform="matrix(1.1916 0 0 1 193.1353 351.3959)" class="st1 st2">70</text>
</g>
<g id="ID000014">
	<text transform="matrix(1.1916 0 0 1 182.8003 313.4301)" class="st3 st1 st2 st4">A</text>
</g>
<g id="ID000015">
	<text transform="matrix(1.1916 0 0 1 165.7495 313.4301)" class="st3 st1 st2">U</text>
</g>
<g id="ID000016">
	<text transform="matrix(1.1916 0 0 1 149.3584 313.4301)" class="st3 st1 st2">C</text>
</g>
<g id="ID000017">
	<text transform="matrix(1.1916 0 0 1 132.9771 313.4301)" class="st3 st1 st2">C</text>
</g>
<g id="ID000018">
	<text transform="matrix(1.1916 0 0 1 116.5864 312.7045)" class="st3 st1 st2">G</text>
</g>
<g id="ID000019">
	<text transform="matrix(1.1916 0 0 1 100.2056 312.7045)" class="st3 st1 st2">G</text>
</g>
<g id="ID000020">
	<text transform="matrix(1.1916 0 0 1 84.5811 313.4301)" class="st3 st1 st2">C</text>
</g>
<g id="ID000021">
	<line class="st5" x1="239.6" y1="266.5" x2="239.6" y2="297.6"/>
</g>
<g id="ID000022">
	<line class="st5" x1="256" y1="266.5" x2="256" y2="297.6"/>
</g>
<g id="ID000023">
	<line class="st5" x1="272.4" y1="266.5" x2="272.4" y2="297.6"/>
</g>
<g id="ID000025">
	<text transform="matrix(1.1916 0 0 1 293.8384 236.5658)" class="st3 st1 st2">G</text>
</g>
<g id="ID000026">
	<text transform="matrix(1.1916 0 0 1 300.9429 261.722)" class="st0 st1 st2">C</text>
</g>
<g id="ID000027">
	<text transform="matrix(1.1916 0 0 1 317.3345 261.722)" class="st0 st1 st2">U</text>
</g>
<g id="ID000028">
	<text transform="matrix(1.1916 0 0 1 333.7246 261.722)" class="st0 st1 st2">C</text>
</g>
<g id="ID000029">
	<text transform="matrix(1.1916 0 0 1 350.106 262.4359)" class="st0 st1 st2 st4">A</text>
</g>
<g id="ID000030">
	<text transform="matrix(1.1916 0 0 1 366.4868 235.1254)" class="st3 st1 st2">G</text>
</g>
<g id="ID000031">
	<line class="st5" x1="373.2" y1="216.3" x2="373.2" y2="199.1"/>
</g>
<g id="ID000032">
	<text transform="matrix(1.1916 0 0 1 358.5396 190.5853)" class="st1 st2">10</text>
</g>
<g id="ID000033">
	<text transform="matrix(1.1916 0 0 1 378.7827 210.7171)" class="st3 st1 st2 st4">A</text>
</g>
<g id="ID000034">
	<text transform="matrix(1.1916 0 0 1 399.2783 197.7982)" class="st3 st1 st2 st4">A</text>
</g>
<g id="ID000035">
	<text transform="matrix(1.1916 0 0 1 395.1836 372.3412)" class="st3 st1 st2 st4">A</text>
</g>
<g id="ID000036">
	<text transform="matrix(1.1916 0 0 1 378.7827 352.2094)" class="st3 st1 st2">C</text>
</g>
<g id="ID000037">
	<text transform="matrix(1.1916 0 0 1 366.4868 333.5502)" class="st3 st1 st2 st4">A</text>
</g>
<g id="ID000038">
	<line class="st5" x1="373.2" y1="335.7" x2="373.2" y2="352.9"/>
</g>
<g id="ID000039">
	<text transform="matrix(1.1916 0 0 1 360.7227 369.3392)" class="st3 st1 st2">60</text>
</g>
<g id="ID000040">
	<text transform="matrix(1.1916 0 0 1 350.106 313.4301)" class="st0 st1 st2">U</text>
</g>
<g id="ID000041">
	<text transform="matrix(1.1916 0 0 1 333.7246 312.7045)" class="st0 st1 st2">G</text>
</g>
<g id="ID000042">
	<text transform="matrix(1.1916 0 0 1 317.3345 314.1449)" class="st0 st1 st2 st4">A</text>
</g>
<g id="ID000043">
	<text transform="matrix(1.1916 0 0 1 300.9429 312.7045)" class="st0 st1 st2">G</text>
</g>
<g id="ID000044">
	<line class="st5" x1="308.5" y1="266.5" x2="308.5" y2="297.6"/>
</g>
<g id="ID000045">
	<line class="st5" x1="325.7" y1="266.5" x2="325.7" y2="297.6"/>
</g>
<g id="ID000046">
	<line class="st5" x1="341.4" y1="266.5" x2="341.4" y2="297.6"/>
</g>
<g id="ID000047">
	<line class="st5" x1="358.5" y1="266.5" x2="358.5" y2="297.6"/>
</g>
<g id="ID000049">
	<text transform="matrix(1.1916 0 0 1 419.7646 210.0023)" class="st3 st1 st2">U</text>
</g>
<g id="ID000050">
	<text transform="matrix(1.1916 0 0 1 432.0518 236.5658)" class="st3 st1 st2 st4">A</text>
</g>
<g id="ID000051">
	<text transform="matrix(1.1916 0 0 1 440.2324 262.4359)" class="st6 st1 st2 st4">A</text>
</g>
<g id="ID000052">
	<text transform="matrix(1.1916 0 0 1 456.6318 262.4359)" class="st6 st1 st2 st4">A</text>
</g>
<g id="ID000053">
	<text transform="matrix(1.1916 0 0 1 473.0234 261.722)" class="st6 st1 st2">C</text>
</g>
<g id="ID000054">
	<text transform="matrix(1.1916 0 0 1 489.4141 260.975)" class="st6 st1 st2">G</text>
</g>
<g id="ID000055">
	<text transform="matrix(1.1916 0 0 1 505.7861 261.722)" class="st6 st1 st2">C</text>
</g>
<g id="ID000056">
	<text transform="matrix(1.1916 0 0 1 522.1865 261.722)" class="st6 st1 st2">U</text>
</g>
<g id="ID000057">
	<line class="st5" x1="529.1" y1="244.8" x2="519" y2="232.1"/>
</g>
<g id="ID000058">
	<text transform="matrix(1.1916 0 0 1 496.8877 227.2865)" class="st1 st2">20</text>
</g>
<g id="ID000059">
	<text transform="matrix(1.1916 0 0 1 538.5771 261.722)" class="st6 st1 st2">C</text>
</g>
<g id="ID000060">
	<text transform="matrix(1.1916 0 0 1 534.084 240.9974)" class="st3 st1 st2 st4">A</text>
</g>
<g id="ID000061">
	<text transform="matrix(1.1916 0 0 1 551.1934 332.1)" class="st3 st1 st2">G</text>
</g>
<g id="ID000062">
	<text transform="matrix(1.1916 0 0 1 538.5771 312.7045)" class="st6 st1 st2">G</text>
</g>
<g id="ID000063">
	<text transform="matrix(1.1916 0 0 1 523.1953 311.6488)" class="st6 st1 st2 st4">A</text>
</g>
<g id="ID000064">
	<line class="st5" x1="530.4" y1="316.6" x2="530.4" y2="333.8"/>
</g>
<g id="ID000065">
	<text transform="matrix(1.1916 0 0 1 519.043 352.5717)" class="st1 st2">50</text>
</g>
<g id="ID000066">
	<text transform="matrix(1.1916 0 0 1 505.7861 312.7045)" class="st6 st1 st2">G</text>
</g>
<g id="ID000067">
	<text transform="matrix(1.1916 0 0 1 489.4141 313.4301)" class="st6 st1 st2">U</text>
</g>
<g id="ID000068">
	<text transform="matrix(1.1916 0 0 1 473.0234 312.7045)" class="st6 st1 st2">G</text>
</g>
<g id="ID000069">
	<text transform="matrix(1.1916 0 0 1 456.6318 313.4301)" class="st6 st1 st2">U</text>
</g>
<g id="ID000070">
	<text transform="matrix(1.1916 0 0 1 440.2324 313.4301)" class="st6 st1 st2">U</text>
</g>
<g id="ID000071">
	<text transform="matrix(1.1916 0 0 1 432.0518 339.2904)" class="st3 st1 st2">C</text>
</g>
<g id="ID000072">
	<text transform="matrix(1.1916 0 0 1 415.6504 364.4135)" class="st3 st1 st2">G</text>
</g>
<g id="ID000073">
	<line class="st5" x1="448.1" y1="266.5" x2="448.1" y2="297.6"/>
</g>
<g id="ID000074">
	<line class="st5" x1="464.7" y1="266.5" x2="464.7" y2="297.6"/>
</g>
<g id="ID000075">
	<line class="st5" x1="481.2" y1="266.5" x2="481.2" y2="297.6"/>
</g>
<g id="ID000076">
	<polygon class="st7" points="498.2,285.5 498.4,285.5 498.6,285.5 498.8,285.4 499,285.4 499.2,285.3 499.4,285.2 499.6,285 
		499.8,284.9 500,284.7 500.1,284.5 500.3,284.3 500.5,284.1 500.6,283.9 500.7,283.6 500.9,283.3 501,283.1 501.1,282.8 
		501.2,282.5 501.3,282.2 501.3,281.9 501.4,281.6 501.4,281.2 501.5,280.9 501.5,280.6 501.5,280.3 501.5,279.9 501.4,279.6 
		501.4,279.3 501.4,279 501.3,278.7 501.2,278.3 501.1,278 501,277.8 500.9,277.5 500.8,277.2 500.7,277 500.5,276.7 500.4,276.5 
		500.2,276.3 500.1,276.1 499.9,275.9 499.7,275.8 499.5,275.6 499.3,275.5 499.1,275.4 498.9,275.3 498.7,275.2 498.5,275.2 
		498.3,275.2 498.1,275.2 497.9,275.2 497.7,275.2 497.5,275.3 497.3,275.4 497.1,275.5 496.9,275.6 496.7,275.8 496.5,275.9 
		496.3,276.1 496.2,276.3 496,276.5 495.9,276.7 495.7,277 495.6,277.2 495.5,277.5 495.4,277.8 495.3,278 495.2,278.3 495.1,278.7 
		495.1,279 495,279.3 495,279.6 494.9,279.9 494.9,280.3 494.9,280.6 494.9,280.9 495,281.2 495,281.6 495.1,281.9 495.2,282.2 
		495.2,282.5 495.3,282.8 495.4,283.1 495.5,283.3 495.7,283.6 495.8,283.9 495.9,284.1 496.1,284.3 496.3,284.5 496.4,284.7 
		496.6,284.9 496.8,285 497,285.2 497.2,285.3 497.4,285.4 497.6,285.4 497.8,285.5 498,285.5 	"/>
</g>
<g id="ID000077">
	<line class="st5" x1="514.6" y1="266.5" x2="514.6" y2="297.6"/>
</g>
<g id="ID000078">
	<line class="st5" x1="530.4" y1="266.5" x2="530.4" y2="297.6"/>
</g>
<g id="ID000079">
	<line class="st5" x1="546.3" y1="266.5" x2="546.3" y2="297.6"/>
</g>
<g id="ID000081">
	<text transform="matrix(1.1916 0 0 1 530.3867 218.3695)" class="st3 st1 st2 st4">A</text>
</g>
<g id="ID000082">
	<text transform="matrix(1.1916 0 0 1 548.9609 204.6703)" class="st8 st1 st2">C</text>
</g>
<g id="ID000083">
	<text transform="matrix(1.1916 0 0 1 548.9609 184.1869)" class="st8 st1 st2">C</text>
</g>
<g id="ID000084">
	<text transform="matrix(1.1916 0 0 1 549.9609 165.1869)" class="st8 st1 st2 st4">A</text>
</g>
<g id="ID000085">
	<text transform="matrix(1.1916 0 0 1 539.6641 145.0121)" class="st3 st1 st2">G</text>
</g>
<g id="ID000086">
	<text transform="matrix(1.1916 0 0 1 545.3809 120.4613)" class="st3 st1 st2">U</text>
</g>
<g id="ID000087">
	<text transform="matrix(1.1916 0 0 1 555.4248 94.3705)" class="st3 st1 st2">C</text>
</g>
<g id="ID000088">
	<text transform="matrix(1.1916 0 0 1 579.1719 93.9964)" class="st3 st1 st2">U</text>
</g>
<g id="ID000089">
	<line class="st5" x1="597" y1="86.4" x2="607.9" y2="86.4"/>
</g>
<g id="ID000090">
	<text transform="matrix(1.1916 0 0 1 610.0518 93.6449)" class="st3 st1 st2">30</text>
</g>
<g id="ID000091">
	<text transform="matrix(1.1916 0 0 1 588.8174 120.4613)" class="st3 st1 st2">U</text>
</g>
<g id="ID000092">
	<text transform="matrix(1.1916 0 0 1 594.2812 145.0121)" class="st3 st1 st2">G</text>
</g>
<g id="ID000093">
	<text transform="matrix(1.1916 0 0 1 582.4326 165.1771)" class="st8 st1 st2">U</text>
</g>
<g id="ID000094">
	<text transform="matrix(1.1916 0 0 1 583.6357 184.1869)" class="st8 st1 st2">G</text>
</g>
<g id="ID000095">
	<text transform="matrix(1.1916 0 0 1 584.7217 204.6703)" class="st8 st1 st2">G</text>
</g>
<g id="ID000096">
	<text transform="matrix(1.1916 0 0 1 581.083 232.1459)" class="st3 st1 st2">C</text>
</g>
<g id="ID000097">
	<line class="st5" x1="562.8" y1="158.2" x2="582.4" y2="158.2"/>
</g>
<g id="ID000098">
	<line class="st5" x1="564.8" y1="197" x2="584.5" y2="197"/>
</g>
<g id="ID000099">
	<line class="st5" x1="564.2" y1="176.9" x2="583.9" y2="176.9"/>
</g>
<g id="ID000101">
	<text transform="matrix(1.1916 0 0 1 587.7305 261.722)" class="st9 st1 st2">U</text>
</g>
<g id="ID000102">
	<text transform="matrix(1.1916 0 0 1 604.1221 261.722)" class="st9 st1 st2">U</text>
</g>
<g id="ID000103">
	<text transform="matrix(1.1916 0 0 1 620.502 261.722)" class="st9 st1 st2">U</text>
</g>
<g id="ID000104">
	<text transform="matrix(1.1916 0 0 1 636.8936 248.056)" class="st3 st1 st2">G</text>
</g>
<g id="ID000105">
	<line class="st5" x1="644.7" y1="231.1" x2="644.7" y2="213.9"/>
</g>
<g id="ID000106">
	<text transform="matrix(1.1916 0 0 1 632.585 210.0023)" class="st1 st2">40</text>
</g>
<g id="ID000107">
	<text transform="matrix(1.1916 0 0 1 653.2852 268.9135)" class="st3 st1 st2 st4">A</text>
</g>
<g id="ID000108">
	<text transform="matrix(1.1916 0 0 1 654.6035 298.6205)" class="st3 st1 st2 st4">A</text>
</g>
<g id="ID000109">
	<text transform="matrix(1.1916 0 0 1 636.8936 325.3597)" class="st3 st1 st2 st4">A</text>
</g>
<g id="ID000110">
	<text transform="matrix(1.1916 0 0 1 620.502 312.7045)" class="st9 st1 st2">G</text>
</g>
<g id="ID000111">
	<text transform="matrix(1.1916 0 0 1 606.0342 312.7045)" class="st9 st1 st2 st4">A</text>
</g>
<g id="ID000112">
	<text transform="matrix(1.1916 0 0 1 587.7402 312.7045)" class="st9 st1 st2">G</text>
</g>
<g id="ID000113">
	<text transform="matrix(1.1916 0 0 1 574.668 332.1)" class="st3 st1 st2 st4">A</text>
</g>
<g id="ID000114">
	<polygon class="st7" points="596.5,284.8 596.7,284.8 596.9,284.8 597.2,284.7 597.3,284.7 597.6,284.6 597.8,284.5 597.9,284.3 
		598.1,284.2 598.3,284 598.5,283.8 598.6,283.6 598.8,283.4 598.9,283.2 599.1,282.9 599.2,282.7 599.3,282.4 599.4,282.1 
		599.5,281.8 599.6,281.5 599.7,281.2 599.7,280.9 599.8,280.6 599.8,280.2 599.8,279.9 599.8,279.6 599.8,279.3 599.8,278.9 
		599.7,278.6 599.7,278.3 599.6,278 599.6,277.7 599.5,277.4 599.4,277.1 599.3,276.8 599.1,276.5 599,276.3 598.9,276 598.7,275.8 
		598.6,275.6 598.4,275.4 598.2,275.2 598,275.1 597.9,274.9 597.6,274.8 597.5,274.7 597.3,274.6 597.1,274.6 596.9,274.5 
		596.6,274.5 596.4,274.5 596.2,274.5 596,274.6 595.8,274.6 595.6,274.7 595.4,274.8 595.2,274.9 595,275.1 594.9,275.2 
		594.7,275.4 594.5,275.6 594.3,275.8 594.2,276 594.1,276.3 593.9,276.5 593.8,276.8 593.7,277.1 593.6,277.4 593.5,277.7 
		593.4,278 593.4,278.3 593.3,278.6 593.3,278.9 593.3,279.3 593.3,279.6 593.3,279.9 593.3,280.2 593.3,280.6 593.4,280.9 
		593.4,281.2 593.5,281.5 593.6,281.8 593.6,282.1 593.7,282.4 593.9,282.7 594,282.9 594.1,283.2 594.3,283.4 594.4,283.6 
		594.6,283.8 594.8,284 594.9,284.2 595.1,284.3 595.3,284.5 595.5,284.6 595.7,284.7 595.9,284.7 596.1,284.8 596.3,284.8 	"/>
</g>
<g id="ID000115">
	<line class="st5" x1="612.4" y1="266.5" x2="612.4" y2="297.6"/>
</g>
<g id="ID000116">
	<polygon class="st7" points="629.3,285.5 629.5,285.5 629.7,285.5 629.9,285.4 630.1,285.4 630.3,285.3 630.5,285.2 630.7,285 
		630.9,284.9 631.1,284.7 631.3,284.5 631.4,284.3 631.6,284.1 631.7,283.9 631.9,283.6 632,283.3 632.1,283.1 632.2,282.8 
		632.3,282.5 632.4,282.2 632.4,281.9 632.5,281.6 632.5,281.2 632.6,280.9 632.6,280.6 632.6,280.3 632.6,279.9 632.5,279.6 
		632.5,279.3 632.5,279 632.4,278.7 632.3,278.3 632.2,278 632.2,277.8 632.1,277.5 631.9,277.2 631.8,277 631.6,276.7 631.5,276.5 
		631.3,276.3 631.2,276.1 631,275.9 630.8,275.8 630.6,275.6 630.4,275.5 630.2,275.4 630,275.3 629.8,275.2 629.6,275.2 
		629.4,275.2 629.2,275.2 629,275.2 628.8,275.2 628.6,275.3 628.4,275.4 628.2,275.5 628,275.6 627.8,275.8 627.6,275.9 
		627.5,276.1 627.3,276.3 627.1,276.5 627,276.7 626.8,277 626.7,277.2 626.6,277.5 626.5,277.8 626.4,278 626.3,278.3 626.2,278.7 
		626.2,279 626.1,279.3 626.1,279.6 626,279.9 626,280.3 626,280.6 626,280.9 626.1,281.2 626.1,281.6 626.2,281.9 626.2,282.2 
		626.3,282.5 626.4,282.8 626.5,283.1 626.7,283.3 626.8,283.6 626.9,283.9 627,284.1 627.2,284.3 627.4,284.5 627.5,284.7 
		627.7,284.9 627.9,285 628.1,285.2 628.3,285.3 628.5,285.4 628.7,285.4 628.9,285.5 629.1,285.5 	"/>
</g>
<text transform="matrix(1 0 0 1 348.8539 40.9126)" class="st1 st10">P5 aptamer</text>
<text transform="matrix(1 0 0 1 217.8852 247.1576)" class="st1 st10">5’</text>
<text transform="matrix(1 0 0 1 61.0529 314.567)" class="st1 st10">3’</text>
</svg>
