<svg id="图层_1" data-name="图层 1" xmlns="http://www.w3.org/2000/svg" viewBox="0 0 800 400"><defs><style>.cls-1,.cls-10,.cls-12,.cls-13,.cls-14,.cls-15,.cls-2,.cls-3,.cls-5,.cls-6,.cls-7,.cls-8,.cls-9{isolation:isolate;font-size:11.12px;font-family:Helvetica;}.cls-1{fill:#228b22;}.cls-2,.cls-3,.cls-8{fill:#0a0bff;}.cls-13,.cls-15,.cls-2,.cls-7,.cls-9{letter-spacing:-0.05em;}.cls-16,.cls-4{fill:none;}.cls-11,.cls-16,.cls-17,.cls-4{stroke:#000;stroke-miterlimit:3.05;}.cls-11,.cls-4{stroke-width:0.38px;}.cls-6,.cls-7{fill:#ff870a;}.cls-8{letter-spacing:-0.05em;}.cls-10,.cls-9{fill:#c2c2ff;}.cls-12,.cls-13{fill:#80db9e;}.cls-14,.cls-15{fill:teal;}.cls-16{stroke-width:0.84px;}.cls-17{stroke-width:0.25px;}.cls-18{font-size:20px;font-family:ArialMT, Arial;}.cls-19{letter-spacing:-0.04em;}</style></defs><g id="topgroup"><g id="ID000000"><g id="ID000002"><text class="cls-1" transform="translate(391.67 299.49) scale(1.37 1)">G</text></g><g id="ID000003"><text class="cls-1" transform="translate(391.67 288.51) scale(1.37 1)">G</text></g><g id="ID000004"><text class="cls-1" transform="translate(391.67 277.52) scale(1.37 1)">G</text></g><g id="ID000005"><text class="cls-2" transform="translate(377.47 269.28) scale(1.37 1)">A</text></g><g id="ID000006"><text class="cls-3" transform="translate(433.04 264.78) scale(1.37 1)">G</text></g><g id="ID000007"><text class="cls-1" transform="translate(422.18 277.52) scale(1.37 1)">C</text></g><g id="ID000008"><text class="cls-1" transform="translate(422.18 288.51) scale(1.37 1)">C</text></g><g id="ID000009"><text class="cls-1" transform="translate(422.18 299.49) scale(1.37 1)">C</text></g><g id="ID000010"><text class="cls-3" transform="translate(421.76 310.48) scale(1.37 1)">G</text></g><g id="ID000011"><text class="cls-3" transform="translate(421.76 321.47) scale(1.37 1)">G</text></g><g id="ID000012"><line class="cls-4" x1="437.71" y1="316.52" x2="447.74" y2="316.52"/></g><g id="ID000013"><text class="cls-5" transform="translate(447.74 321.47) scale(1.37 1)">70</text></g><g id="ID000014"><text class="cls-2" transform="translate(422.6 332.46) scale(1.37 1)">A</text></g><g id="ID000015"><text class="cls-3" transform="translate(422.18 343.44) scale(1.37 1)">U</text></g><g id="ID000016"><text class="cls-3" transform="translate(422.18 354.43) scale(1.37 1)">C</text></g><g id="ID000017"><text class="cls-3" transform="translate(422.18 365.41) scale(1.37 1)">C</text></g><g id="ID000018"><text class="cls-3" transform="translate(421.76 376.4) scale(1.37 1)">G</text></g><g id="ID000019"><text class="cls-3" transform="translate(421.76 387.39) scale(1.37 1)">G</text></g><g id="ID000020"><text class="cls-3" transform="translate(422.18 397.86) scale(1.37 1)">C</text></g><g id="ID000021"><line class="cls-4" x1="403.61" y1="294.55" x2="421.66" y2="294.55"/></g><g id="ID000022"><line class="cls-4" x1="403.61" y1="283.56" x2="421.66" y2="283.56"/></g><g id="ID000023"><line class="cls-4" x1="403.61" y1="272.57" x2="421.66" y2="272.57"/></g><g id="ID000025"><text class="cls-3" transform="translate(376.63 258.29) scale(1.37 1)">G</text></g><g id="ID000026"><text class="cls-6" transform="translate(392.1 252.8) scale(1.37 1)">C</text></g><g id="ID000027"><text class="cls-6" transform="translate(392.1 241.81) scale(1.37 1)">U</text></g><g id="ID000028"><text class="cls-6" transform="translate(392.1 230.82) scale(1.37 1)">C</text></g><g id="ID000029"><text class="cls-7" transform="translate(392.52 219.84) scale(1.37 1)">A</text></g><g id="ID000030"><text class="cls-3" transform="translate(376.63 208.85) scale(1.37 1)">G</text></g><g id="ID000031"><line class="cls-4" x1="372.52" y1="203.9" x2="362.49" y2="203.9"/></g><g id="ID000032"><text class="cls-5" transform="translate(345.56 208.85) scale(1.37 1)">10</text></g><g id="ID000033"><text class="cls-2" transform="translate(362.43 200.61) scale(1.37 1)">A</text></g><g id="ID000034"><text class="cls-2" transform="translate(354.91 186.87) scale(1.37 1)">A</text></g><g id="ID000035"><text class="cls-8" transform="translate(456.45 189.62) scale(1.37 1)">A</text></g><g id="ID000036"><text class="cls-3" transform="translate(444.74 200.61) scale(1.37 1)">C</text></g><g id="ID000037"><text class="cls-2" transform="translate(433.88 208.85) scale(1.37 1)">A</text></g><g id="ID000038"><line class="cls-4" x1="448.99" y1="203.9" x2="459.02" y2="203.9"/></g><g id="ID000039"><text class="cls-5" transform="translate(459.02 208.85) scale(1.37 1)">60</text></g><g id="ID000040"><text class="cls-6" transform="translate(422.18 219.84) scale(1.37 1)">U</text></g><g id="ID000041"><text class="cls-6" transform="translate(421.76 230.82) scale(1.37 1)">G</text></g><g id="ID000042"><text class="cls-7" transform="translate(422.6 241.81) scale(1.37 1)">A</text></g><g id="ID000043"><text class="cls-6" transform="translate(421.76 252.8) scale(1.37 1)">G</text></g><g id="ID000044"><line class="cls-4" x1="403.61" y1="247.85" x2="421.66" y2="247.85"/></g><g id="ID000045"><line class="cls-4" x1="403.61" y1="236.87" x2="421.66" y2="236.87"/></g><g id="ID000046"><line class="cls-4" x1="403.61" y1="225.88" x2="421.66" y2="225.88"/></g><g id="ID000047"><line class="cls-4" x1="403.61" y1="214.89" x2="421.66" y2="214.89"/></g><g id="ID000049"><text class="cls-3" transform="translate(362.01 173.14) scale(1.37 1)">U</text></g><g id="ID000050"><text class="cls-2" transform="translate(377.47 164.9) scale(1.37 1)">A</text></g><g id="ID000051"><text class="cls-9" transform="translate(392.52 159.41) scale(1.37 1)">A</text></g><g id="ID000052"><text class="cls-9" transform="translate(392.52 148.42) scale(1.37 1)">A</text></g><g id="ID000053"><text class="cls-10" transform="translate(392.1 137.43) scale(1.37 1)">C</text></g><g id="ID000054"><text class="cls-10" transform="translate(391.67 126.44) scale(1.37 1)">G</text></g><g id="ID000055"><text class="cls-10" transform="translate(392.1 115.46) scale(1.37 1)">C</text></g><g id="ID000056"><text class="cls-10" transform="translate(392.1 104.47) scale(1.37 1)">U</text></g><g id="ID000057"><line class="cls-4" x1="387.56" y1="99.53" x2="377.54" y2="99.53"/></g><g id="ID000058"><text class="cls-5" transform="translate(360.6 104.47) scale(1.37 1)">20</text></g><g id="ID000059"><text class="cls-10" transform="translate(392.1 93.48) scale(1.37 1)">C</text></g><g id="ID000060"><text class="cls-2" transform="translate(380.04 96.49) scale(1.37 1)">A</text></g><g id="ID000061"><text class="cls-3" transform="translate(421.76 82.5) scale(1.37 1)">G</text></g><g id="ID000062"><text class="cls-10" transform="translate(421.76 93.48) scale(1.37 1)">G</text></g><g id="ID000063"><text class="cls-9" transform="translate(422.6 104.47) scale(1.37 1)">A</text></g><g id="ID000064"><line class="cls-4" x1="437.71" y1="99.53" x2="447.74" y2="99.53"/></g><g id="ID000065"><text class="cls-5" transform="translate(447.74 104.47) scale(1.37 1)">50</text></g><g id="ID000066"><text class="cls-10" transform="translate(421.76 115.46) scale(1.37 1)">G</text></g><g id="ID000067"><text class="cls-10" transform="translate(422.18 126.44) scale(1.37 1)">U</text></g><g id="ID000068"><text class="cls-10" transform="translate(421.76 137.43) scale(1.37 1)">G</text></g><g id="ID000069"><text class="cls-10" transform="translate(422.18 148.42) scale(1.37 1)">U</text></g><g id="ID000070"><text class="cls-10" transform="translate(422.18 159.41) scale(1.37 1)">U</text></g><g id="ID000071"><text class="cls-3" transform="translate(437.22 164.9) scale(1.37 1)">C</text></g><g id="ID000072"><text class="cls-3" transform="translate(451.84 175.89) scale(1.37 1)">G</text></g><g id="ID000073"><line class="cls-4" x1="403.61" y1="154.46" x2="421.66" y2="154.46"/></g><g id="ID000074"><line class="cls-4" x1="403.61" y1="143.48" x2="421.66" y2="143.48"/></g><g id="ID000075"><line class="cls-4" x1="403.61" y1="132.49" x2="421.66" y2="132.49"/></g><g id="ID000076"><polygon class="cls-11" points="415.64 121.5 415.64 121.36 415.62 121.22 415.59 121.08 415.55 120.95 415.49 120.82 415.43 120.69 415.35 120.56 415.26 120.43 415.17 120.31 415.06 120.2 414.94 120.09 414.81 119.98 414.68 119.89 414.53 119.8 414.38 119.71 414.22 119.63 414.06 119.56 413.88 119.5 413.71 119.45 413.53 119.4 413.35 119.36 413.16 119.34 412.97 119.32 412.78 119.31 412.59 119.31 412.4 119.31 412.21 119.33 412.02 119.35 411.83 119.38 411.65 119.42 411.47 119.47 411.3 119.53 411.13 119.6 410.97 119.67 410.81 119.75 410.67 119.84 410.52 119.94 410.39 120.04 410.27 120.14 410.16 120.25 410.05 120.37 409.96 120.5 409.88 120.62 409.81 120.75 409.75 120.88 409.7 121.02 409.67 121.16 409.64 121.29 409.63 121.43 409.63 121.57 409.64 121.71 409.67 121.85 409.7 121.98 409.75 122.12 409.81 122.25 409.88 122.38 409.96 122.51 410.05 122.63 410.16 122.75 410.27 122.86 410.39 122.97 410.52 123.07 410.67 123.16 410.81 123.25 410.97 123.33 411.13 123.4 411.3 123.47 411.47 123.53 411.65 123.58 411.83 123.62 412.02 123.65 412.21 123.68 412.4 123.69 412.59 123.7 412.78 123.7 412.97 123.69 413.16 123.67 413.35 123.64 413.53 123.6 413.71 123.55 413.88 123.5 414.06 123.44 414.22 123.37 414.38 123.29 414.53 123.21 414.68 123.12 414.81 123.02 414.94 122.91 415.06 122.8 415.17 122.69 415.26 122.57 415.35 122.45 415.43 122.32 415.49 122.19 415.55 122.05 415.59 121.92 415.62 121.78 415.64 121.64 415.64 121.5"/></g><g id="ID000077"><line class="cls-4" x1="403.61" y1="110.51" x2="421.66" y2="110.51"/></g><g id="ID000078"><line class="cls-4" x1="403.61" y1="99.53" x2="421.66" y2="99.53"/></g><g id="ID000079"><line class="cls-4" x1="403.61" y1="88.54" x2="421.66" y2="88.54"/></g><g id="ID000081"><text class="cls-2" transform="translate(366.88 89.95) scale(1.37 1)">A</text></g><g id="ID000082"><text class="cls-12" transform="translate(354.49 85.24) scale(1.37 1)">C</text></g><g id="ID000083"><text class="cls-12" transform="translate(339.45 85.24) scale(1.37 1)">C</text></g><g id="ID000084"><text class="cls-13" transform="translate(324.83 85.24) scale(1.37 1)">A</text></g><g id="ID000085"><text class="cls-3" transform="translate(308.94 89.74) scale(1.37 1)">G</text></g><g id="ID000086"><text class="cls-3" transform="translate(294.32 85.24) scale(1.37 1)">U</text></g><g id="ID000087"><text class="cls-3" transform="translate(279.28 79.75) scale(1.37 1)">C</text></g><g id="ID000088"><text class="cls-3" transform="translate(279.28 66.02) scale(1.37 1)">U</text></g><g id="ID000089"><line class="cls-4" x1="284.77" y1="53.75" x2="284.77" y2="46.42"/></g><g id="ID000090"><text class="cls-5" transform="translate(276.31 43.67) scale(1.37 1)">30</text></g><g id="ID000091"><text class="cls-3" transform="translate(294.32 58.78) scale(1.37 1)">U</text></g><g id="ID000092"><text class="cls-3" transform="translate(308.94 55.03) scale(1.37 1)">G</text></g><g id="ID000093"><text class="cls-12" transform="translate(324.41 63.27) scale(1.37 1)">U</text></g><g id="ID000094"><text class="cls-12" transform="translate(339.02 63.27) scale(1.37 1)">G</text></g><g id="ID000095"><text class="cls-12" transform="translate(354.06 63.27) scale(1.37 1)">G</text></g><g id="ID000096"><text class="cls-3" transform="translate(373.29 57.78) scale(1.37 1)">C</text></g><g id="ID000097"><line class="cls-4" x1="359.99" y1="75.9" x2="359.99" y2="62.72"/></g><g id="ID000098"><line class="cls-4" x1="344.94" y1="75.9" x2="344.94" y2="62.72"/></g><g id="ID000099"><line class="cls-4" x1="329.9" y1="75.9" x2="329.9" y2="62.72"/></g><g id="ID000101"><text class="cls-14" transform="translate(392.1 60.52) scale(1.37 1)">U</text></g><g id="ID000102"><text class="cls-14" transform="translate(392.1 49.53) scale(1.37 1)">U</text></g><g id="ID000103"><text class="cls-14" transform="translate(392.1 38.55) scale(1.37 1)">U</text></g><g id="ID000104"><text class="cls-3" transform="translate(384.15 27.56) scale(1.37 1)">G</text></g><g id="ID000105"><line class="cls-4" x1="380.04" y1="22.62" x2="370.01" y2="22.62"/></g><g id="ID000106"><text class="cls-5" transform="translate(353.08 27.56) scale(1.37 1)">40</text></g><g id="ID000107"><text class="cls-2" transform="translate(396.28 16.57) scale(1.37 1)">A</text></g><g id="ID000108"><text class="cls-2" transform="translate(418.84 16.57) scale(1.37 1)">A</text></g><g id="ID000109"><text class="cls-2" transform="translate(429.12 27.56) scale(1.37 1)">A</text></g><g id="ID000110"><text class="cls-14" transform="translate(421.76 38.55) scale(1.37 1)">G</text></g><g id="ID000111"><text class="cls-15" transform="translate(422.6 49.53) scale(1.37 1)">A</text></g><g id="ID000112"><text class="cls-14" transform="translate(421.76 60.52) scale(1.37 1)">G</text></g><g id="ID000113"><text class="cls-2" transform="translate(422.6 71.51) scale(1.37 1)">A</text></g><g id="ID000114"><polygon class="cls-11" points="415.64 55.58 415.64 55.44 415.62 55.3 415.59 55.16 415.55 55.03 415.49 54.89 415.43 54.76 415.35 54.63 415.26 54.51 415.17 54.39 415.06 54.27 414.94 54.16 414.81 54.06 414.68 53.96 414.53 53.87 414.38 53.79 414.22 53.71 414.06 53.64 413.88 53.58 413.71 53.52 413.53 53.48 413.35 53.44 413.16 53.41 412.97 53.39 412.78 53.38 412.59 53.38 412.4 53.39 412.21 53.4 412.02 53.43 411.83 53.46 411.65 53.5 411.47 53.55 411.3 53.61 411.13 53.68 410.97 53.75 410.81 53.83 410.67 53.92 410.52 54.01 410.39 54.11 410.27 54.22 410.16 54.33 410.05 54.45 409.96 54.57 409.88 54.7 409.81 54.83 409.75 54.96 409.7 55.09 409.67 55.23 409.64 55.37 409.63 55.51 409.63 55.65 409.64 55.79 409.67 55.92 409.7 56.06 409.75 56.2 409.81 56.33 409.88 56.46 409.96 56.59 410.05 56.71 410.16 56.82 410.27 56.94 410.39 57.04 410.52 57.15 410.67 57.24 410.81 57.33 410.97 57.41 411.13 57.48 411.3 57.55 411.47 57.6 411.65 57.66 411.83 57.7 412.02 57.73 412.21 57.75 412.4 57.77 412.59 57.77 412.78 57.77 412.97 57.76 413.16 57.74 413.35 57.71 413.53 57.68 413.71 57.63 413.88 57.58 414.06 57.52 414.22 57.45 414.38 57.37 414.53 57.28 414.68 57.19 414.81 57.09 414.94 56.99 415.06 56.88 415.17 56.77 415.26 56.65 415.35 56.52 415.43 56.39 415.49 56.26 415.55 56.13 415.59 55.99 415.62 55.86 415.64 55.72 415.64 55.58"/></g><g id="ID000115"><line class="cls-4" x1="403.61" y1="44.59" x2="421.66" y2="44.59"/></g><g id="ID000116"><polygon class="cls-11" points="415.64 33.6 415.64 33.46 415.62 33.33 415.59 33.19 415.55 33.05 415.49 32.92 415.43 32.79 415.35 32.66 415.26 32.54 415.17 32.42 415.06 32.3 414.94 32.19 414.81 32.09 414.68 31.99 414.53 31.9 414.38 31.81 414.22 31.74 414.06 31.67 413.88 31.61 413.71 31.55 413.53 31.5 413.35 31.47 413.16 31.44 412.97 31.42 412.78 31.41 412.59 31.41 412.4 31.41 412.21 31.43 412.02 31.45 411.83 31.48 411.65 31.53 411.47 31.58 411.3 31.64 411.13 31.7 410.97 31.77 410.81 31.86 410.67 31.94 410.52 32.04 410.39 32.14 410.27 32.24 410.16 32.36 410.05 32.48 409.96 32.6 409.88 32.72 409.81 32.85 409.75 32.98 409.7 33.12 409.67 33.26 409.64 33.4 409.63 33.53 409.63 33.67 409.64 33.81 409.67 33.95 409.7 34.09 409.75 34.22 409.81 34.35 409.88 34.48 409.96 34.61 410.05 34.73 410.16 34.85 410.27 34.96 410.39 35.07 410.52 35.17 410.67 35.27 410.81 35.35 410.97 35.43 411.13 35.51 411.3 35.57 411.47 35.63 411.65 35.68 411.83 35.72 412.02 35.76 412.21 35.78 412.4 35.8 412.59 35.8 412.78 35.8 412.97 35.79 413.16 35.77 413.35 35.74 413.53 35.7 413.71 35.66 413.88 35.6 414.06 35.54 414.22 35.47 414.38 35.39 414.53 35.31 414.68 35.22 414.81 35.12 414.94 35.02 415.06 34.91 415.17 34.79 415.26 34.67 415.35 34.55 415.43 34.42 415.49 34.29 415.55 34.16 415.59 34.02 415.62 33.88 415.64 33.74 415.64 33.6"/></g><g id="ID000117"><line class="cls-16" x1="407.37" y1="11.63" x2="417.9" y2="11.63"/></g><g id="ID000118"><polygon class="cls-17" points="407.62 8.33 410.13 9.98 412.64 10.53 415.14 10.8 420.16 11.63 415.14 12.45 412.64 12.73 410.13 13.28 407.62 14.93 407.62 8.33"/></g></g></g><text class="cls-18" transform="translate(97.82 71.51)">P5 aptamer</text><text class="cls-18" transform="translate(367.51 302.28)">5<tspan class="cls-19" x="11.12" y="0">’</tspan></text><text class="cls-18" transform="translate(445.41 389.66)">3<tspan class="cls-19" x="11.12" y="0">’</tspan></text></svg>