<?xml version="1.0" encoding="utf-8"?>
<!-- Generator: Adobe Illustrator 25.2.0, SVG Export Plug-In . SVG Version: 6.00 Build 0)  -->
<svg version="1.1" id="_图层_1" xmlns="http://www.w3.org/2000/svg" xmlns:xlink="http://www.w3.org/1999/xlink" x="0px" y="0px"
	 viewBox="0 0 800 400" style="enable-background:new 0 0 800 400;" xml:space="preserve">
<style type="text/css">
	.st0{fill:#B83233;}
	.st1{font-family:'ArialMT';}
	.st2{font-size:18.9898px;}
	.st3{fill:#C2B617;}
	.st4{fill:none;stroke:#000000;stroke-miterlimit:1.1;}
	.st5{fill:#084595;}
	.st6{fill:none;stroke:#000000;stroke-width:1.1;stroke-miterlimit:1.1;}
	.st7{stroke:#000000;stroke-width:0.1;stroke-miterlimit:1.1;}
	.st8{fill:#CF3E7D;}
	.st9{stroke:#000000;stroke-miterlimit:1.1;}
	.st10{font-size:20px;}
	.st11{font-size:18.0855px;}
</style>
<g id="ID000002">
	<g>
		<text transform="matrix(1 0 0 1 207.7568 208.9818)" class="st0 st1 st2">C</text>
	</g>
</g>
<g id="ID000003">
	<g>
		<text transform="matrix(1 0 0 1 227.6074 208.9134)" class="st0 st1 st2">A</text>
	</g>
</g>
<g id="ID000004">
	<g>
		<text transform="matrix(1 0 0 1 246.936 208.9134)" class="st0 st1 st2">A</text>
	</g>
</g>
<g id="ID000005">
	<g>
		<text transform="matrix(1 0 0 1 265.3281 208.9447)" class="st0 st1 st2">G</text>
	</g>
</g>
<g id="ID000006">
	<g>
		<text transform="matrix(1 0 0 1 285.1851 208.9818)" class="st0 st1 st2">U</text>
	</g>
</g>
<g id="ID000007">
	<g>
		<text transform="matrix(1 0 0 1 304.5137 208.9818)" class="st0 st1 st2">C</text>
	</g>
</g>
<g id="ID000008">
	<g>
		<text transform="matrix(1 0 0 1 323.8442 208.9818)" class="st0 st1 st2">U</text>
	</g>
</g>
<g id="ID000009">
	<g>
		<text transform="matrix(1 0 0 1 343.6929 189.5848)" class="st3 st1 st2">A</text>
	</g>
</g>
<g id="ID000010">
	<g>
		<text transform="matrix(1 0 0 1 367.8828 184.8373)" class="st3 st1 st2">A</text>
	</g>
</g>
<g id="ID000011">
	<g>
		<text transform="matrix(1 0 0 1 361.9727 276.6527)" class="st3 st1 st2">G</text>
	</g>
</g>
<g id="ID000012">
	<g>
		<text transform="matrix(1 0 0 1 343.1724 262.1078)" class="st3 st1 st2">C</text>
	</g>
</g>
<g id="ID000013">
	<g>
		<text transform="matrix(1 0 0 1 324.3647 247.6839)" class="st0 st1 st2">A</text>
	</g>
</g>
<g id="ID000014">
	<g>
		<text transform="matrix(1 0 0 1 303.9854 247.6019)" class="st0 st1 st2">G</text>
	</g>
</g>
<g id="ID000015">
	<g>
		<text transform="matrix(1 0 0 1 285.7056 247.6839)" class="st0 st1 st2">A</text>
	</g>
</g>
<g id="ID000016">
	<g>
		<text transform="matrix(1 0 0 1 265.8569 247.639)" class="st0 st1 st2">C</text>
	</g>
</g>
<g id="ID000017">
	<g>
		<text transform="matrix(1 0 0 1 246.416 247.639)" class="st0 st1 st2">U</text>
	</g>
</g>
<g id="ID000018">
	<line class="st4" x1="256.9" y1="255.5" x2="256.9" y2="268.4"/>
</g>
<g id="ID000019">
	<g>
		<text transform="matrix(1 0 0 1 242.7114 284.0111)" class="st1 st2">40</text>
	</g>
</g>
<g id="ID000020">
	<g>
		<text transform="matrix(1 0 0 1 227.0874 247.639)" class="st0 st1 st2">U</text>
	</g>
</g>
<g id="ID000021">
	<g>
		<text transform="matrix(1 0 0 1 207.2285 247.6019)" class="st0 st1 st2">G</text>
	</g>
</g>
<g id="ID000022">
	<line class="st4" x1="214.9" y1="209.8" x2="214.9" y2="233"/>
</g>
<g id="ID000023">
	<line class="st4" x1="234.2" y1="209.8" x2="234.2" y2="233"/>
</g>
<g id="ID000024">
	<line class="st4" x1="253.5" y1="209.8" x2="253.5" y2="233"/>
</g>
<g id="ID000025">
	<line class="st4" x1="272.9" y1="209.8" x2="272.9" y2="233"/>
</g>
<g id="ID000026">
	<line class="st4" x1="292.3" y1="209.8" x2="292.3" y2="233"/>
</g>
<g id="ID000027">
	<line class="st4" x1="311.6" y1="209.8" x2="311.6" y2="233"/>
</g>
<g id="ID000028">
	<line class="st4" x1="331" y1="209.8" x2="331" y2="233"/>
</g>
<g id="ID000030">
	<g>
		<text transform="matrix(1 0 0 1 386.6904 194.513)" class="st3 st1 st2">U</text>
	</g>
</g>
<g id="ID000031">
	<line class="st4" x1="397.2" y1="176.5" x2="397.2" y2="163.6"/>
</g>
<g id="ID000032">
	<g>
		<text transform="matrix(1 0 0 1 385.9424 154.7279)" class="st1 st2">10</text>
	</g>
</g>
<g id="ID000033">
	<g>
		<text transform="matrix(1 0 0 1 406.9961 208.9447)" class="st5 st1 st2">G</text>
	</g>
</g>
<g id="ID000034">
	<g>
		<text transform="matrix(1 0 0 1 426.8525 208.9818)" class="st5 st1 st2">U</text>
	</g>
</g>
<g id="ID000035">
	<g>
		<text transform="matrix(1 0 0 1 452.7031 194.513)" class="st5 st1 st2">C</text>
	</g>
</g>
<g id="ID000036">
	<g>
		<text transform="matrix(1 0 0 1 430.0508 247.6839)" class="st5 st1 st2">A</text>
	</g>
</g>
<g id="ID000037">
	<g>
		<text transform="matrix(1 0 0 1 410.2021 247.639)" class="st5 st1 st2">C</text>
	</g>
</g>
<g id="ID000038">
	<g>
		<text transform="matrix(1 0 0 1 386.6914 266.9681)" class="st3 st1 st2">U</text>
	</g>
</g>
<g id="ID000039">
	<line class="st4" x1="416.5" y1="211.6" x2="416.5" y2="234.8"/>
</g>
<g id="ID000040">
	<line class="st4" x1="435.9" y1="211.6" x2="435.9" y2="234.8"/>
</g>
<g id="ID000041">
	<line class="st6" x1="471.7" y1="242.6" x2="443.7" y2="242.6"/>
</g>
<g id="ID000042">
	<polygon class="st7" points="468.3,248.4 465,245.4 461.9,244.5 458.6,244.1 452.1,242.6 458.6,241.1 461.9,240.7 465,239.7 
		468.3,236.9 	"/>
</g>
<g id="ID000044">
	<g>
		<text transform="matrix(1 0 0 1 471.5029 208.9447)" class="st5 st1 st2">G</text>
	</g>
</g>
<g id="ID000045">
	<g>
		<text transform="matrix(1 0 0 1 489.1709 208.9447)" class="st5 st1 st2">G</text>
	</g>
</g>
<g id="ID000046">
	<g>
		<text transform="matrix(1 0 0 1 509.5508 208.9134)" class="st5 st1 st2">A</text>
	</g>
</g>
<g id="ID000047">
	<g>
		<text transform="matrix(1 0 0 1 526.8545 199.2601)" class="st8 st1 st2">C</text>
	</g>
</g>
<g id="ID000048">
	<g>
		<text transform="matrix(1 0 0 1 541.4355 179.932)" class="st8 st1 st2">U</text>
	</g>
</g>
<g id="ID000049">
	<g>
		<text transform="matrix(1 0 0 1 565.623 179.932)" class="st8 st1 st2">C</text>
	</g>
</g>
<g id="ID000050">
	<g>
		<text transform="matrix(1 0 0 1 584.4258 189.6156)" class="st8 st1 st2">G</text>
	</g>
</g>
<g id="ID000051">
	<line class="st4" x1="595.5" y1="171.7" x2="595.5" y2="158.7"/>
</g>
<g id="ID000052">
	<g>
		<text transform="matrix(1 0 0 1 581.25 153.2294)" class="st1 st2">20</text>
	</g>
</g>
<g id="ID000053">
	<g>
		<text transform="matrix(1 0 0 1 604.8027 204.1664)" class="st8 st1 st2">A</text>
	</g>
</g>
<g id="ID000054">
	<g>
		<text transform="matrix(1 0 0 1 609.1416 223.4496)" class="st8 st1 st2">U</text>
	</g>
</g>
<g id="ID000055">
	<g>
		<text transform="matrix(1 0 0 1 607.4014 245.0843)" class="st8 st1 st2">A</text>
	</g>
</g>
<g id="ID000056">
	<g>
		<text transform="matrix(1 0 0 1 589.8125 262.1078)" class="st8 st1 st2">U</text>
	</g>
</g>
<g id="ID000057">
	<g>
		<text transform="matrix(1 0 0 1 565.623 271.8285)" class="st8 st1 st2">C</text>
	</g>
</g>
<g id="ID000058">
	<g>
		<text transform="matrix(1 0 0 1 541.9561 271.8734)" class="st8 st1 st2">A</text>
	</g>
</g>
<g id="ID000059">
	<g>
		<text transform="matrix(1 0 0 1 527.8262 257.2924)" class="st8 st1 st2">A</text>
	</g>
</g>
<g id="ID000060">
	<g>
		<text transform="matrix(1 0 0 1 511.708 247.639)" class="st5 st1 st2">U</text>
	</g>
</g>
<g id="ID000061">
	<g>
		<text transform="matrix(1 0 0 1 492.377 247.639)" class="st5 st1 st2">U</text>
	</g>
</g>
<g id="ID000062">
	<g>
		<text transform="matrix(1 0 0 1 473.0488 247.639)" class="st5 st1 st2">C</text>
	</g>
</g>
<g id="ID000063">
	<line class="st4" x1="479.4" y1="255.5" x2="479.4" y2="268.4"/>
</g>
<g id="ID000064">
	<g>
		<text transform="matrix(1 0 0 1 465.1621 284.0111)" class="st1 st2">30</text>
	</g>
</g>
<g id="ID000065">
	<line class="st4" x1="479.4" y1="211.6" x2="479.4" y2="234.8"/>
</g>
<g id="ID000066">
	<polygon class="st9" points="498.7,227.1 498.9,227.1 499.2,227.1 499.5,227 499.7,227 500,226.9 500.2,226.8 500.4,226.8 
		500.6,226.7 500.9,226.6 501.1,226.3 501.2,226.2 501.4,226.1 501.5,225.9 501.8,225.7 501.9,225.5 502,225.3 502.1,225.1 
		502.2,224.9 502.3,224.6 502.4,224.4 502.4,224.2 502.6,224 502.6,223.7 502.6,223.4 502.6,223.2 502.6,222.9 502.6,222.7 
		502.6,222.5 502.4,222.3 502.4,222 502.3,221.7 502.2,221.6 502.1,221.4 502,221.1 501.8,220.9 501.6,220.7 501.5,220.6 
		501.3,220.3 501.1,220.2 501,220.1 500.7,219.9 500.5,219.8 500.3,219.7 500.1,219.7 499.8,219.6 499.6,219.4 499.4,219.4 
		499,219.4 498.8,219.4 498.6,219.4 498.4,219.4 498.1,219.4 497.9,219.4 497.7,219.6 497.4,219.7 497.1,219.7 496.9,219.8 
		496.8,219.9 496.6,220.1 496.3,220.2 496.1,220.3 496,220.6 495.8,220.7 495.7,220.9 495.5,221.1 495.4,221.4 495.3,221.6 
		495.2,221.7 495.1,222 495,222.3 495,222.5 494.9,222.7 494.9,222.9 494.9,223.2 494.9,223.4 494.9,223.7 494.9,224 495,224.2 
		495.1,224.4 495.1,224.6 495.2,224.9 495.3,225.1 495.4,225.3 495.5,225.5 495.8,225.7 495.9,225.9 496.1,226.1 496.2,226.2 
		496.5,226.3 496.7,226.6 496.9,226.7 497.1,226.8 497.4,226.8 497.6,226.9 497.8,227 498,227 498.3,227.1 498.5,227.1 	"/>
</g>
<g id="ID000067">
	<line class="st4" x1="518" y1="211.6" x2="518" y2="234.8"/>
</g>
<g>
	<text transform="matrix(1 0 0 1 340.3826 66.9921)" class="st1 st10">8-09 aptamer</text>
</g>
<text transform="matrix(1 0 0 1 200.7744 188.014)" class="st1 st11">5’</text>
<text transform="matrix(1 0 0 1 201.002 273.9203)" class="st1 st11">3’</text>
</svg>
