<?xml version="1.0" encoding="utf-8"?>
<!-- Generator: Adobe Illustrator 22.1.0, SVG Export Plug-In . SVG Version: 6.00 Build 0)  -->
<svg version="1.1" id="图层_1" xmlns="http://www.w3.org/2000/svg" xmlns:xlink="http://www.w3.org/1999/xlink" x="0px" y="0px"
	 viewBox="0 0 400 400" style="enable-background:new 0 0 400 400;" xml:space="preserve">
<style type="text/css">
	.st0{fill:#FF7F0E;}
	.st1{font-family:'ArialMT';}
	.st2{font-size:14.48px;}
	.st3{fill:#9467BD;}
	.st4{letter-spacing:-1;}
	.st5{fill:none;stroke:#000000;stroke-width:0.5;}
	.st6{fill:#E377C2;}
	.st7{fill:#17BECF;}
	.st8{stroke:#000000;stroke-width:0.5;}
	.st9{fill:#2CA02C;}
	.st10{fill:#FFFFFF;stroke:#000000;stroke-width:0.5;}
	.st11{font-size:20px;}
	.st12{font-size:21px;}
	.st13{fill:#FFFF00;stroke:#D01100;stroke-linecap:round;stroke-miterlimit:10;}
	.st14{fill:#B91A00;}
	.st15{font-size:16.2px;}
</style>
<title>Pepper_aptamer_2D</title>
<g id="topgroup">
	<g id="ID000000">
		<g id="ID000002">
			<text transform="matrix(1 0 0 1 202.36 329.56)" class="st0 st1 st2">G</text>
		</g>
		<g id="ID000003">
			<text transform="matrix(1 0 0 1 202.77 315.3)" class="st0 st1 st2">C</text>
		</g>
		<g id="ID000004">
			<text transform="matrix(1 0 0 1 202.36 301.05)" class="st0 st1 st2">G</text>
		</g>
		<g id="ID000005">
			<text transform="matrix(1 0 0 1 202.77 286.79)" class="st0 st1 st2">C</text>
		</g>
		<g id="ID000006">
			<text transform="matrix(1 0 0 1 218.85 263.72)" class="st3 st1 st2 st4">A</text>
		</g>
		<g id="ID000007">
			<text transform="matrix(1 0 0 1 203.95 271.35)" class="st3 st1 st2">C</text>
		</g>
		<g id="ID000008">
			<text transform="matrix(1 0 0 1 157.06 258.66)" class="st3 st1 st2">C</text>
		</g>
		<g id="ID000009">
			<text transform="matrix(1 0 0 1 171.48 271.35)" class="st3 st1 st2">G</text>
		</g>
		<g id="ID000010">
			<text transform="matrix(1 0 0 1 173.85 286.79)" class="st0 st1 st2">G</text>
		</g>
		<g id="ID000011">
			<text transform="matrix(1 0 0 1 174.25 301.05)" class="st0 st1 st2">C</text>
		</g>
		<g id="ID000012">
			<text transform="matrix(1 0 0 1 173.85 315.3)" class="st0 st1 st2">G</text>
		</g>
		<g id="ID000013">
			<text transform="matrix(1 0 0 1 174.25 329.56)" class="st0 st1 st2">C</text>
		</g>
		<g id="ID000014">
			<text transform="matrix(1 0 0 1 174.25 343.81)" class="st0 st1 st2">C</text>
		</g>
		<g id="ID000015">
			<line class="st5" x1="202.3" y1="323.1" x2="185.1" y2="323.1"/>
		</g>
		<g id="ID000016">
			<line class="st5" x1="202.3" y1="308.9" x2="185.1" y2="308.9"/>
		</g>
		<g id="ID000017">
			<line class="st5" x1="202.3" y1="294.7" x2="185.1" y2="294.7"/>
		</g>
		<g id="ID000018">
			<line class="st5" x1="202.3" y1="280.4" x2="185.1" y2="280.4"/>
		</g>
		<g id="ID000020">
			<text transform="matrix(1 0 0 1 205.37 257.1)" class="st3 st1 st2">U</text>
		</g>
		<g id="ID000021">
			<text transform="matrix(1 0 0 1 214.24 239.28)" class="st3 st1 st2">G</text>
		</g>
		<g id="ID000022">
			<text transform="matrix(1 0 0 1 164.35 219.32)" class="st6 st1 st2">G</text>
		</g>
		<g id="ID000023">
			<line class="st5" x1="164.3" y1="214.7" x2="154.8" y2="214.7"/>
		</g>
		<g id="ID000024">
			<text transform="matrix(1 0 0 1 138.25 219.7)" class="st1 st2">10</text>
		</g>
		<g id="ID000025">
			<text transform="matrix(1 0 0 1 164.75 203.64)" class="st6 st1 st2">C</text>
		</g>
		<g id="ID000026">
			<text transform="matrix(1 0 0 1 164.35 189.38)" class="st6 st1 st2">G</text>
		</g>
		<g id="ID000027">
			<text transform="matrix(1 0 0 1 164.75 175.13)" class="st6 st1 st2">C</text>
		</g>
		<g id="ID000028">
			<text transform="matrix(1 0 0 1 164.75 160.87)" class="st6 st1 st2">U</text>
		</g>
		<g id="ID000029">
			<text transform="matrix(1 0 0 1 265.01 226.93)" class="st7 st1 st2">U</text>
		</g>
		<g id="ID000030">
			<text transform="matrix(1 0 0 1 246.72 225.02)" class="st7 st1 st2">C</text>
		</g>
		<g id="ID000031">
			<text transform="matrix(1 0 0 1 242.75 210.77)" class="st7 st1 st2">G</text>
		</g>
		<g id="ID000032">
			<text transform="matrix(1 0 0 1 236.03 196.51)" class="st7 st1 st2">U</text>
		</g>
		<g id="ID000033">
			<text transform="matrix(1 0 0 1 193.66 160.87)" class="st6 st1 st2 st4">A</text>
		</g>
		<g id="ID000034">
			<text transform="matrix(1 0 0 1 192.86 175.13)" class="st6 st1 st2">G</text>
		</g>
		<g id="ID000035">
			<text transform="matrix(1 0 0 1 193.26 189.38)" class="st6 st1 st2">C</text>
		</g>
		<g id="ID000036">
			<text transform="matrix(1 0 0 1 192.86 203.64)" class="st6 st1 st2">G</text>
		</g>
		<g id="ID000037">
			<text transform="matrix(1 0 0 1 192.31 219.32)" class="st6 st1 st2">U</text>
		</g>
		<g id="ID000038">
			<line class="st5" x1="204" y1="214.5" x2="213.5" y2="214.5"/>
		</g>
		<g id="ID000039">
			<text transform="matrix(1 0 0 1 213.93 219.54)" class="st1 st2">40</text>
		</g>
		<g id="ID000040">
			<text transform="matrix(1 0 0 1 150.09 246.4)" class="st3 st1 st2">G</text>
		</g>
		<g id="ID000041">
			<text transform="matrix(1 0 0 1 168.32 257.1)" class="st3 st1 st2">U</text>
		</g>
		<g id="ID000042">
			<polygon class="st8" points="187.1,211.5 187.1,211.3 187.1,211.2 187.1,211 187,210.8 187,210.6 186.9,210.5 186.9,210.3 
				186.8,210.1 186.6,210 186.6,209.8 186.5,209.7 186.3,209.6 186.1,209.4 186.1,209.3 185.9,209.2 185.8,209.1 185.6,209 
				185.5,208.9 185.3,208.9 185.1,208.8 185,208.8 184.8,208.7 184.6,208.7 184.4,208.7 184.1,208.7 184.1,208.7 183.9,208.7 
				183.6,208.7 183.5,208.8 183.4,208.8 183.1,208.9 183,209 182.9,209.1 182.6,209.2 182.6,209.3 182.4,209.4 182.3,209.5 
				182.1,209.6 182,209.8 181.9,209.9 181.8,210.1 181.6,210.2 181.6,210.4 181.6,210.6 181.5,210.7 181.5,210.9 181.5,211.1 
				181.4,211.3 181.4,211.4 181.4,211.6 181.4,211.8 181.5,212 181.5,212.2 181.5,212.3 181.6,212.5 181.6,212.7 181.6,212.8 
				181.8,213 181.9,213.1 182,213.3 182.1,213.4 182.3,213.6 182.4,213.7 182.6,213.8 182.6,213.9 182.9,214 183,214.1 183.1,214.2 
				183.4,214.2 183.5,214.3 183.6,214.3 183.9,214.3 184.1,214.4 184.1,214.4 184.4,214.4 184.6,214.4 184.8,214.3 185,214.3 
				185.1,214.3 185.3,214.2 185.5,214.1 185.6,214 185.8,213.9 185.9,213.9 186.1,213.7 186.1,213.6 186.3,213.5 186.5,213.4 
				186.6,213.2 186.6,213.1 186.8,212.9 186.9,212.8 186.9,212.6 187,212.4 187,212.2 187.1,212.1 187.1,211.9 187.1,211.7 			"/>
		</g>
		<g id="ID000043">
			<line class="st5" x1="175.6" y1="197.3" x2="192.8" y2="197.3"/>
		</g>
		<g id="ID000044">
			<line class="st5" x1="175.6" y1="183" x2="192.8" y2="183"/>
		</g>
		<g id="ID000045">
			<line class="st5" x1="175.6" y1="168.8" x2="192.8" y2="168.8"/>
		</g>
		<g id="ID000046">
			<line class="st5" x1="175.6" y1="154.5" x2="192.8" y2="154.5"/>
		</g>
		<g id="ID000048">
			<text transform="matrix(1 0 0 1 164.35 146.62)" class="st9 st1 st2">G</text>
		</g>
		<g id="ID000049">
			<text transform="matrix(1 0 0 1 164.75 132.36)" class="st9 st1 st2">C</text>
		</g>
		<g id="ID000050">
			<text transform="matrix(1 0 0 1 164.35 118.11)" class="st9 st1 st2">G</text>
		</g>
		<g id="ID000051">
			<text transform="matrix(1 0 0 1 164.75 103.85)" class="st9 st1 st2">C</text>
		</g>
		<g id="ID000052">
			<text transform="matrix(1 0 0 1 164.75 89.6)" class="st9 st1 st2">C</text>
		</g>
		<g id="ID000053">
			<text transform="matrix(1 0 0 1 164.75 75.34)" class="st9 st1 st2">U</text>
		</g>
		<g id="ID000054">
			<line class="st5" x1="160.4" y1="69" x2="150.9" y2="69"/>
		</g>
		<g id="ID000055">
			<text transform="matrix(1 0 0 1 134.87 75.34)" class="st1 st2">20</text>
		</g>
		<g id="ID000056">
			<text transform="matrix(1 0 0 1 175.44 57.52)" class="st9 st1 st2">U</text>
		</g>
		<g id="ID000057">
			<text transform="matrix(1 0 0 1 193.26 61.09)" class="st9 st1 st2">C</text>
		</g>
		<g id="ID000058">
			<text transform="matrix(1 0 0 1 192.86 75.34)" class="st9 st1 st2">G</text>
		</g>
		<g id="ID000059">
			<text transform="matrix(1 0 0 1 192.86 89.6)" class="st9 st1 st2">G</text>
		</g>
		<g id="ID000060">
			<text transform="matrix(1 0 0 1 192.86 103.85)" class="st9 st1 st2">G</text>
		</g>
		<g id="ID000061">
			<text transform="matrix(1 0 0 1 193.26 118.11)" class="st9 st1 st2">C</text>
		</g>
		<g id="ID000062">
			<text transform="matrix(1 0 0 1 192.86 132.36)" class="st9 st1 st2">G</text>
		</g>
		<g id="ID000063">
			<text transform="matrix(1 0 0 1 193.26 146.62)" class="st9 st1 st2">C</text>
		</g>
		<g id="ID000064">
			<text transform="matrix(1 0 0 1 275.23 189.38)" class="st7 st1 st2">C</text>
		</g>
		<g id="ID000065">
			<text transform="matrix(1 0 0 1 279.19 203.64)" class="st7 st1 st2 st4">A</text>
		</g>
		<g id="ID000066">
			<line class="st5" x1="293.5" y1="197.3" x2="303" y2="197.3"/>
		</g>
		<g id="ID000067">
			<text transform="matrix(1 0 0 1 303.03 203.64)" class="st1 st2">30</text>
		</g>
		<g id="ID000068">
			<text transform="matrix(1 0 0 1 279.19 217.89)" class="st7 st1 st2 st4">A</text>
		</g>
		<g id="ID000069">
			<line class="st5" x1="175.6" y1="140.3" x2="192.8" y2="140.3"/>
		</g>
		<g id="ID000070">
			<line class="st5" x1="175.6" y1="126" x2="192.8" y2="126"/>
		</g>
		<g id="ID000071">
			<line class="st5" x1="175.6" y1="111.7" x2="192.8" y2="111.7"/>
		</g>
		<g id="ID000072">
			<line class="st5" x1="175.6" y1="97.5" x2="192.8" y2="97.5"/>
		</g>
		<g id="ID000073">
			<line class="st5" x1="175.6" y1="83.2" x2="192.8" y2="83.2"/>
		</g>
		<g id="ID000075">
			<polyline class="st5" points="241.3,184.4 241.3,154.5 204.1,154.5 			"/>
		</g>
		<g id="ID000076">
			<polygon class="st8" points="240.4,169.7 240.8,169.1 241,168.5 241,167.9 241.3,166.7 241.5,167.9 241.5,168.5 241.7,169.1 
				242.2,169.7 			"/>
		</g>
		<g id="ID000077">
			<polyline class="st5" points="204.1,140.3 280.5,140.3 280.5,177.3 			"/>
		</g>
		<g id="ID000078">
			<polygon class="st8" points="281.4,158.4 280.9,159 280.7,159.6 280.7,160.2 280.5,161.4 280.2,160.2 280.2,159.6 280,159 
				279.6,158.4 			"/>
		</g>
		<g id="ID000079">
			<line class="st5" x1="214.6" y1="230.7" x2="175.3" y2="213.8"/>
		</g>
		<g id="ID000080">
			<polygon class="st8" points="195.1,223.3 194.7,222.6 194.3,222.2 193.8,221.9 192.9,221.3 194,221.5 194.6,221.6 195.1,221.7 
				195.9,221.4 			"/>
		</g>
		<g id="ID000081">
			<line class="st5" x1="193.8" y1="214.7" x2="160.4" y2="236.9"/>
		</g>
		<g id="ID000082">
			<polygon class="st8" points="179.1,225.8 178.3,225.7 177.7,225.9 177.2,226.1 176.1,226.3 176.9,225.7 177.3,225.5 177.7,225.1 
				177.9,224.6 			"/>
		</g>
		<g id="ID000083">
			<line class="st5" x1="203.5" y1="265" x2="182.9" y2="265"/>
		</g>
		<g id="ID000084">
			<polygon class="st8" points="190.3,265 190.3,265.2 190.4,265.3 190.4,265.5 190.4,265.7 190.5,265.9 190.5,266 190.6,266.2 
				190.6,266.4 190.8,266.5 190.9,266.7 191,266.8 191.1,267 191.3,267 191.4,267.2 191.5,267.3 191.6,267.4 191.8,267.5 192,267.5 
				192.1,267.5 192.3,267.7 192.5,267.8 192.6,267.8 192.9,267.8 193.1,267.8 193.1,267.8 193.4,267.8 193.6,267.8 193.8,267.8 
				194,267.7 194.1,267.7 194.3,267.5 194.5,267.5 194.6,267.5 194.8,267.4 194.9,267.3 195.1,267 195.1,267 195.3,266.9 
				195.4,266.7 195.5,266.5 195.6,266.4 195.6,266.3 195.8,266 195.9,266 195.9,265.8 196,265.5 196,265.4 196,265.3 196,265 
				196,264.9 196,264.7 196,264.5 196,264.4 195.9,264.2 195.9,264 195.8,263.8 195.6,263.7 195.6,263.5 195.5,263.4 195.4,263.2 
				195.3,263 195.1,263 195.1,262.8 194.9,262.7 194.8,262.5 194.6,262.5 194.5,262.4 194.3,262.4 194.1,262.3 194,262.2 
				193.8,262.2 193.6,262.2 193.4,262 193.1,262 193.1,262 192.9,262.2 192.6,262.2 192.5,262.2 192.3,262.3 192.1,262.3 192,262.4 
				191.8,262.5 191.6,262.5 191.5,262.7 191.4,262.8 191.3,262.9 191.1,263 191,263.2 190.9,263.3 190.8,263.4 190.6,263.5 
				190.6,263.8 190.5,263.9 190.5,264 190.4,264.3 190.4,264.4 190.4,264.5 190.3,264.8 			"/>
		</g>
		<g id="ID000085">
			<line class="st5" x1="207.1" y1="250.7" x2="179.3" y2="250.7"/>
		</g>
		<g id="ID000086">
			<polygon class="st8" points="190.3,250.7 190.3,250.9 190.4,251.1 190.4,251.3 190.4,251.4 190.5,251.6 190.5,251.8 190.6,252 
				190.6,252.1 190.8,252.3 190.9,252.4 191,252.6 191.1,252.7 191.3,252.8 191.4,252.9 191.5,253.1 191.6,253.2 191.8,253.2 
				192,253.3 192.1,253.4 192.3,253.5 192.5,253.5 192.6,253.5 192.9,253.6 193.1,253.6 193.1,253.6 193.4,253.6 193.6,253.6 
				193.8,253.5 194,253.5 194.1,253.4 194.3,253.4 194.5,253.3 194.6,253.2 194.8,253.1 194.9,253 195.1,252.9 195.1,252.8 
				195.3,252.6 195.4,252.5 195.5,252.3 195.6,252.2 195.6,252 195.8,251.9 195.9,251.7 195.9,251.5 196,251.4 196,251.2 196,251 
				196,250.8 196,250.6 196,250.5 196,250.3 196,250.1 195.9,249.9 195.9,249.8 195.8,249.6 195.6,249.4 195.6,249.3 195.5,249.1 
				195.4,249 195.3,248.8 195.1,248.7 195.1,248.6 194.9,248.5 194.8,248.4 194.6,248.3 194.5,248.2 194.3,248.1 194.1,248 194,248 
				193.8,247.9 193.6,247.9 193.4,247.9 193.1,247.9 193.1,247.9 192.9,247.9 192.6,247.9 192.5,248 192.3,248 192.1,248.1 
				192,248.1 191.8,248.2 191.6,248.3 191.5,248.4 191.4,248.5 191.3,248.6 191.1,248.8 191,248.9 190.9,249 190.8,249.2 
				190.6,249.3 190.6,249.5 190.5,249.7 190.5,249.8 190.4,250 190.4,250.2 190.4,250.4 190.3,250.5 			"/>
		</g>
		<g id="ID000093">
			<line class="st5" x1="235.6" y1="189.2" x2="204.1" y2="184"/>
		</g>
		<g id="ID000094">
			<polygon class="st10" points="226.4,187.7 226.4,187.5 226.4,187.3 226.4,187.1 226.4,186.9 226.4,186.8 226.4,186.6 
				226.3,186.4 226.3,186.2 226.1,186.1 226.1,185.9 226,185.7 225.9,185.6 225.8,185.4 225.6,185.3 225.6,185.2 225.5,185 
				225.3,184.9 225.1,184.8 225,184.7 224.9,184.6 224.6,184.6 224.5,184.5 224.4,184.4 224.1,184.4 224,184.4 223.8,184.3 
				223.6,184.3 223.5,184.3 223.3,184.4 223.1,184.4 222.9,184.4 222.6,184.5 222.6,184.5 222.4,184.6 222.1,184.7 222.1,184.8 
				221.9,184.9 221.8,185 221.6,185.1 221.5,185.2 221.4,185.3 221.3,185.5 221.1,185.6 221.1,185.8 221,185.9 220.9,186.1 
				220.9,186.3 220.8,186.5 220.8,186.6 220.8,186.8 220.6,187 220.6,187.2 220.6,187.4 220.6,187.5 220.8,187.7 220.8,187.9 
				220.9,188.1 220.9,188.2 221,188.4 221.1,188.6 221.1,188.7 221.3,188.9 221.4,189 221.5,189.1 221.6,189.3 221.8,189.4 
				221.9,189.5 222.1,189.6 222.1,189.7 222.4,189.8 222.5,189.8 222.6,189.9 222.9,190 223.1,190 223.1,190 223.4,190 223.6,190 
				223.8,190 224,190 224.1,190 224.3,189.9 224.5,189.9 224.6,189.8 224.8,189.8 225,189.7 225.1,189.6 225.3,189.5 225.4,189.4 
				225.6,189.2 225.6,189.1 225.8,189 225.9,188.8 226,188.7 226.1,188.5 226.1,188.3 226.1,188.2 226.3,188 226.4,187.8 			"/>
		</g>
		<g id="ID000095">
			<polygon class="st10" points="213,188.3 218.6,189.3 219.5,183.6 213.9,182.7 			"/>
		</g>
		<g id="ID000099">
			<line class="st5" x1="242.8" y1="203.6" x2="204.1" y2="198.1"/>
		</g>
		<g id="ID000100">
			<polygon class="st10" points="230,201.8 230,201.6 230,201.4 230,201.2 230,201 230,200.9 229.9,200.7 229.9,200.5 229.8,200.3 
				229.6,200.2 229.6,200 229.6,199.9 229.5,199.7 229.4,199.6 229.1,199.4 229.1,199.3 229,199.2 228.8,199.1 228.6,199 
				228.5,198.9 228.4,198.8 228.1,198.7 228,198.7 227.9,198.6 227.6,198.6 227.5,198.5 227.3,198.5 227.1,198.5 227,198.5 
				226.8,198.5 226.6,198.6 226.4,198.6 226.3,198.7 226.1,198.7 225.9,198.8 225.8,198.9 225.6,199 225.5,199.1 225.3,199.2 
				225.1,199.3 225.1,199.4 224.9,199.6 224.8,199.7 224.6,199.9 224.6,200 224.6,200.2 224.5,200.3 224.4,200.5 224.4,200.7 
				224.3,200.9 224.3,201 224.3,201.2 224.3,201.4 224.3,201.6 224.3,201.8 224.4,201.9 224.4,202.1 224.5,202.3 224.5,202.5 
				224.6,202.6 224.6,202.8 224.8,202.9 224.9,203.1 225,203.2 225.1,203.4 225.3,203.5 225.4,203.6 225.5,203.7 225.6,203.8 
				225.8,203.9 226,204 226.1,204 226.4,204.1 226.5,204.1 226.6,204.2 226.9,204.2 227.1,204.2 227.1,204.2 227.4,204.2 
				227.6,204.2 227.8,204.1 228,204.1 228.1,204 228.3,204 228.5,203.9 228.6,203.8 228.8,203.7 228.9,203.6 229.1,203.5 
				229.1,203.4 229.3,203.2 229.4,203.1 229.5,202.9 229.6,202.8 229.6,202.6 229.8,202.5 229.8,202.3 229.9,202.1 229.9,201.9 			
				"/>
		</g>
		<g id="ID000101">
			<polygon class="st10" points="216.6,202.7 222.1,203.5 223,197.9 217.4,197.1 			"/>
		</g>
		<g id="ID000102">
			<line class="st5" x1="175.6" y1="69" x2="192.8" y2="69"/>
		</g>
		<g id="ID000103">
			<polygon class="st10" points="176.9,69 182.4,72.2 182.4,65.8 			"/>
		</g>
		<g id="ID000104">
			<polygon class="st10" points="190.8,69 190.8,68.8 190.8,68.6 190.8,68.4 190.6,68.3 190.6,68.1 190.6,67.9 190.6,67.8 
				190.5,67.6 190.4,67.4 190.3,67.3 190.1,67.1 190.1,67 189.9,66.9 189.8,66.8 189.6,66.7 189.5,66.6 189.3,66.5 189.1,66.4 
				189,66.3 188.8,66.3 188.6,66.2 188.5,66.2 188.3,66.1 188.1,66.1 187.9,66.1 187.8,66.1 187.6,66.2 187.4,66.2 187.1,66.2 
				187.1,66.3 186.9,66.3 186.6,66.4 186.6,66.5 186.4,66.6 186.3,66.7 186.1,66.8 186,66.9 185.9,67.1 185.6,67.2 185.6,67.4 
				185.5,67.5 185.5,67.7 185.4,67.8 185.3,68 185.3,68.2 185.1,68.3 185.1,68.5 185.1,68.7 185.1,68.9 185.1,69.1 185.1,69.2 
				185.1,69.4 185.1,69.6 185.3,69.8 185.3,70 185.4,70.1 185.5,70.3 185.5,70.4 185.6,70.6 185.6,70.7 185.9,70.9 186,71 
				186.1,71.1 186.3,71.2 186.4,71.3 186.6,71.4 186.6,71.5 186.9,71.6 187.1,71.7 187.1,71.7 187.4,71.8 187.6,71.8 187.8,71.8 
				187.9,71.8 188.1,71.8 188.3,71.8 188.5,71.8 188.6,71.7 188.8,71.7 189,71.6 189.1,71.6 189.3,71.5 189.5,71.4 189.6,71.3 
				189.8,71.2 189.9,71.1 190.1,70.9 190.1,70.8 190.3,70.7 190.4,70.5 190.5,70.4 190.6,70.2 190.6,70 190.6,69.9 190.6,69.7 
				190.8,69.5 190.8,69.3 190.8,69.2 			"/>
		</g>
		<g id="ID000105">
			<line class="st5" x1="214.5" y1="266.7" x2="214.6" y2="266.8"/>
		</g>
		<g id="ID000108">
			<line class="st5" x1="225.1" y1="230.6" x2="246.8" y2="221"/>
		</g>
		<g id="ID000109">
			<polygon class="st10" points="238.6,224.6 238.5,224.5 238.4,224.3 238.3,224.2 238.1,224 238.1,223.9 237.9,223.7 237.8,223.6 
				237.6,223.5 237.5,223.4 237.4,223.3 237.1,223.2 237,223.1 236.9,223.1 236.6,223 236.5,223 236.3,223 236.1,222.9 236,222.9 
				235.8,222.9 235.6,223 235.4,223 235.3,223 235.1,223.1 234.9,223.1 234.8,223.2 234.6,223.3 234.4,223.4 234.3,223.5 
				234.1,223.6 234,223.7 233.9,223.8 233.8,224 233.6,224.1 233.6,224.3 233.5,224.4 233.4,224.6 233.3,224.7 233.1,224.9 
				233.1,225.1 233.1,225.3 233.1,225.4 233.1,225.6 233.1,225.8 233.1,226 233.1,226.2 233.1,226.3 233.1,226.5 233.3,226.7 
				233.3,226.9 233.4,227 233.5,227.2 233.6,227.3 233.6,227.5 233.8,227.6 233.9,227.8 234,227.9 234.1,228 234.3,228.1 
				234.5,228.2 234.6,228.3 234.8,228.4 235,228.5 235.1,228.5 235.3,228.6 235.5,228.6 235.6,228.6 235.8,228.6 236,228.6 
				236.1,228.6 236.4,228.6 236.6,228.6 236.6,228.5 236.9,228.5 237.1,228.4 237.1,228.3 237.4,228.2 237.6,228.1 237.6,228 
				237.8,227.9 238,227.8 238.1,227.7 238.1,227.5 238.3,227.4 238.4,227.2 238.5,227.1 238.6,226.9 238.6,226.7 238.6,226.6 
				238.6,226.4 238.8,226.2 238.8,226 238.8,225.9 238.8,225.7 238.8,225.5 238.8,225.3 238.6,225.1 238.6,225 238.6,224.8 			"/>
		</g>
		<g id="ID000002-2">
			<text transform="matrix(1 0 0 1 200.98 343.81)" class="st0 st1 st2">G</text>
		</g>
		<g id="ID000015-2">
			<line class="st5" x1="201.4" y1="337.9" x2="184.3" y2="337.9"/>
		</g>
	</g>
</g>
<text transform="matrix(1 0 0 1 217.26 348.08)" class="st1 st11">5</text>
<text transform="matrix(1 0 0 1 228.38 348.08)" class="st1 st11 st4">’</text>
<text transform="matrix(1 0 0 1 154.64 348.09)" class="st1 st12">3</text>
<text transform="matrix(1 0 0 1 166.32 348.09)" class="st1 st12 st4">’</text>
<ellipse class="st13" cx="190.8" cy="236.9" rx="22.6" ry="9.5"/>
<text transform="matrix(1.06 0 0 1 172.8501 242.5703)" class="st14 st1 st15">HBC</text>
<text transform="matrix(1 0 0 1 13 29)" class="st1 st11">Pepper aptamer</text>
</svg>
