<?xml version="1.0" encoding="utf-8"?>
<!-- Generator: Adobe Illustrator 25.2.0, SVG Export Plug-In . SVG Version: 6.00 Build 0)  -->
<svg version="1.1" id="图层_1" xmlns="http://www.w3.org/2000/svg" xmlns:xlink="http://www.w3.org/1999/xlink" x="0px" y="0px"
	 viewBox="0 0 800 400" style="enable-background:new 0 0 800 400;" xml:space="preserve">
<style type="text/css">
	.st0{fill:#B83233;}
	.st1{font-family:'ArialMT';}
	.st2{font-size:14.6991px;}
	.st3{fill:none;stroke:#000000;stroke-width:0.1724;stroke-miterlimit:1.3793;}
	.st4{fill:#084595;}
	.st5{fill:#2EA103;}
	.st6{fill:none;stroke:#000000;stroke-miterlimit:1.3793;}
	.st7{stroke:#000000;stroke-miterlimit:1.3793;}
	.st8{font-size:20px;}
	.st9{font-size:15px;}
</style>
<g id="ID000002">
	<g>
		<g transform="translate(382.378,111.880)">
			<g transform="rotate(-0.0)">
				<text transform="matrix(1 0 0 1 -47.5288 3.2322)" class="st0 st1 st2">G</text>
			</g>
		</g>
	</g>
</g>
<g id="ID000003">
	<g>
		<g transform="translate(366.063,111.880)">
			<g transform="rotate(-0.0)">
				<text transform="matrix(1 0 0 1 -46.2031 3.2322)" class="st0 st1 st2">G</text>
			</g>
		</g>
	</g>
</g>
<g id="ID000004">
	<g>
		<g transform="translate(349.748,111.880)">
			<g transform="rotate(-0.0)">
				<text transform="matrix(1 0 0 1 -44.8773 3.2322)" class="st0 st1 st2">G</text>
			</g>
		</g>
	</g>
</g>
<g id="ID000005">
	<g transform="translate(333.433,124.117)">
		<g transform="rotate(-0.0)">
			<text transform="matrix(1 0 0 1 -42.7362 2.2374)" class="st0 st1 st2">A</text>
		</g>
	</g>
</g>
<g id="ID000006">
	<g transform="translate(313.039,120.038)">
		<g transform="rotate(-0.0)">
			<text transform="matrix(1 0 0 1 -41.0785 2.5698)" class="st0 st1 st2">A</text>
		</g>
	</g>
</g>
<g id="ID000007">
	<g transform="translate(296.724,107.802)">
		<g transform="rotate(-0.0)">
			<text transform="matrix(1 0 0 1 -40.159 3.5636)" class="st0 st1 st2">U</text>
		</g>
	</g>
</g>
<g id="ID000008">
	<g transform="translate(296.724,87.408)">
		<g transform="rotate(-0.0)">
			<text transform="matrix(1 0 0 1 -40.5672 5.2218)" class="st0 st1 st2">G</text>
		</g>
	</g>
</g>
<g id="ID000009">
	<g transform="translate(313.039,71.093)">
		<g transform="rotate(-0.0)">
			<text transform="matrix(1 0 0 1 -41.892 6.5475)" class="st0 st1 st2">G</text>
		</g>
	</g>
</g>
<g id="ID000010">
	<g transform="translate(333.433,71.093)">
		<g transform="rotate(-0.0)">
			<text transform="matrix(1 0 0 1 -42.7362 6.5475)" class="st0 st1 st2">A</text>
		</g>
	</g>
</g>
<g id="ID000011">
	<g>
		<g transform="translate(349.748,79.250)">
			<g transform="rotate(-0.0)">
				<text transform="matrix(1 0 0 1 -44.4681 5.8871)" class="st0 st1 st2">U</text>
			</g>
		</g>
	</g>
</g>
<g id="ID000012">
	<line class="st3" x1="310.6" y1="68.4" x2="310.6" y2="58.5"/>
</g>
<g id="ID000013">
	<g transform="translate(349.748,46.076)">
		<g transform="rotate(-0.0)">
			<text transform="matrix(1 0 0 1 -47.3363 8.5831)" class="st1 st2">10</text>
		</g>
	</g>
</g>
<g id="ID000014">
	<g>
		<g transform="translate(366.063,79.250)">
			<g transform="rotate(-0.0)">
				<text transform="matrix(1 0 0 1 -45.7949 5.8871)" class="st0 st1 st2">C</text>
			</g>
		</g>
	</g>
</g>
<g id="ID000015">
	<g>
		<g transform="translate(382.378,79.250)">
			<g transform="rotate(-0.0)">
				<text transform="matrix(1 0 0 1 -47.1206 5.8871)" class="st0 st1 st2">C</text>
			</g>
		</g>
	</g>
</g>
<g id="ID000016">
	<g transform="translate(402.772,71.093)">
		<g transform="rotate(-0.0)">
			<text transform="matrix(1 0 0 1 -48.373 6.5475)" class="st0 st1 st2">A</text>
		</g>
	</g>
</g>
<g id="ID000023">
	<g>
		<g transform="translate(419.087,67.014)">
			<g transform="rotate(-0.0)">
				<text transform="matrix(1 0 0 1 -50.105 6.88)" class="st0 st1 st2">C</text>
			</g>
		</g>
	</g>
</g>
<g id="ID000024">
	<g transform="translate(439.481,71.093)">
		<g transform="rotate(-0.0)">
			<text transform="matrix(1 0 0 1 -51.3584 6.5475)" class="st4 st1 st2">A</text>
		</g>
	</g>
</g>
<g id="ID000025">
	<g transform="translate(455.796,71.093)">
		<g transform="rotate(-0.0)">
			<text transform="matrix(1 0 0 1 -53.0894 6.5475)" class="st4 st1 st2">U</text>
		</g>
	</g>
</g>
<g id="ID000026">
	<g transform="translate(472.111,71.093)">
		<g transform="rotate(-0.0)">
			<text transform="matrix(1 0 0 1 -54.4151 6.5475)" class="st4 st1 st2">C</text>
		</g>
	</g>
</g>
<g id="ID000027">
	<g transform="translate(488.426,71.093)">
		<g transform="rotate(-0.0)">
			<text transform="matrix(1 0 0 1 -55.7419 6.5475)" class="st4 st1 st2">U</text>
		</g>
	</g>
</g>
<g id="ID000028">
	<g transform="translate(504.741,71.093)">
		<g transform="rotate(-0.0)">
			<text transform="matrix(1 0 0 1 -56.6623 6.5475)" class="st4 st1 st2">A</text>
		</g>
	</g>
</g>
<g id="ID000029">
	<g transform="translate(521.056,71.093)">
		<g transform="rotate(-0.0)">
			<text transform="matrix(1 0 0 1 -58.3944 6.5475)" class="st4 st1 st2">C</text>
		</g>
	</g>
</g>
<g id="ID000030">
	<line class="st3" x1="468" y1="60.9" x2="468" y2="50.8"/>
</g>
<g id="ID000031">
	<g transform="translate(521.056,37.919)">
		<g transform="rotate(-0.0)">
			<text transform="matrix(1 0 0 1 -61.2615 9.2446)" class="st1 st2">20</text>
		</g>
	</g>
</g>
<g id="ID000032">
	<g transform="translate(537.371,71.093)">
		<g transform="rotate(-0.0)">
			<text transform="matrix(1 0 0 1 -60.1312 6.5475)" class="st4 st1 st2">G</text>
		</g>
	</g>
</g>
<g id="ID000033">
	<g transform="translate(553.686,71.093)">
		<g transform="rotate(-0.0)">
			<text transform="matrix(1 0 0 1 -60.6425 6.5475)" class="st4 st1 st2">A</text>
		</g>
	</g>
</g>
<g id="ID000034">
	<g>
		<g transform="translate(570.001,62.935)">
			<g transform="rotate(-0.0)">
				<text transform="matrix(1 0 0 1 -61.9672 7.2124)" class="st4 st1 st2">A</text>
			</g>
		</g>
	</g>
</g>
<g id="ID000035">
	<g>
		<g transform="translate(582.238,124.117)">
			<g transform="rotate(-0.0)">
				<text transform="matrix(1 0 0 1 -63.3693 2.2374)" class="st4 st1 st2">U</text>
			</g>
		</g>
	</g>
</g>
<g id="ID000036">
	<g>
		<g transform="translate(565.923,115.959)">
			<g transform="rotate(-0.0)">
				<text transform="matrix(1 0 0 1 -62.4517 2.9023)" class="st4 st1 st2">G</text>
			</g>
		</g>
	</g>
</g>
<g id="ID000037">
	<g transform="translate(553.686,103.723)">
		<g transform="rotate(-0.0)">
			<text transform="matrix(1 0 0 1 -61.0487 3.8956)" class="st4 st1 st2">U</text>
		</g>
	</g>
</g>
<g id="ID000038">
	<g transform="translate(537.371,103.723)">
		<g transform="rotate(-0.0)">
			<text transform="matrix(1 0 0 1 -59.723 3.8956)" class="st4 st1 st2">C</text>
		</g>
	</g>
</g>
<g id="ID000039">
	<g transform="translate(521.056,103.723)">
		<g transform="rotate(-0.0)">
			<text transform="matrix(1 0 0 1 -58.8055 3.8956)" class="st4 st1 st2">G</text>
		</g>
	</g>
</g>
<g id="ID000040">
	<g transform="translate(504.741,103.723)">
		<g transform="rotate(-0.0)">
			<text transform="matrix(1 0 0 1 -57.0676 3.8956)" class="st4 st1 st2">U</text>
		</g>
	</g>
</g>
<g id="ID000041">
	<line class="st3" x1="452.9" y1="110.7" x2="452.9" y2="120.9"/>
</g>
<g id="ID000042">
	<g transform="translate(504.741,137.386)">
		<g transform="rotate(-0.0)">
			<text transform="matrix(1 0 0 1 -59.9348 1.1603)" class="st5 st1 st2">40</text>
		</g>
	</g>
</g>
<g id="ID000043">
	<g transform="translate(488.426,103.723)">
		<g transform="rotate(-0.0)">
			<text transform="matrix(1 0 0 1 -55.3356 3.8956)" class="st4 st1 st2">A</text>
		</g>
	</g>
</g>
<g id="ID000044">
	<g transform="translate(472.111,103.723)">
		<g transform="rotate(-0.0)">
			<text transform="matrix(1 0 0 1 -54.8243 3.8956)" class="st4 st1 st2">G</text>
		</g>
	</g>
</g>
<g id="ID000045">
	<g transform="translate(455.796,103.723)">
		<g transform="rotate(-0.0)">
			<text transform="matrix(1 0 0 1 -52.6831 3.8956)" class="st4 st1 st2">A</text>
		</g>
	</g>
</g>
<g id="ID000046">
	<g transform="translate(439.481,103.723)">
		<g transform="rotate(-0.0)">
			<text transform="matrix(1 0 0 1 -51.7637 3.8956)" class="st4 st1 st2">U</text>
		</g>
	</g>
</g>
<g id="ID000047">
	<g>
		<g transform="translate(443.560,124.117)">
			<g transform="rotate(-0.0)">
				<text transform="matrix(1 0 0 1 -51.6893 2.2374)" class="st4 st1 st2">A</text>
			</g>
		</g>
	</g>
</g>
<g id="ID000048">
	<line class="st6" x1="392.9" y1="77.9" x2="392.9" y2="95.8"/>
</g>
<g id="ID000049">
	<line class="st6" x1="408.1" y1="77.9" x2="408.1" y2="95.8"/>
</g>
<g id="ID000050">
	<line class="st6" x1="423" y1="77.9" x2="423" y2="95.8"/>
</g>
<g id="ID000051">
	<line class="st6" x1="437.9" y1="77.9" x2="437.9" y2="95.8"/>
</g>
<g id="ID000052">
	<line class="st6" x1="452.9" y1="77.9" x2="452.9" y2="95.8"/>
</g>
<g id="ID000053">
	<line class="st6" x1="468" y1="77.9" x2="468" y2="95.8"/>
</g>
<g id="ID000054">
	<line class="st6" x1="483" y1="77.9" x2="483" y2="95.8"/>
</g>
<g id="ID000055">
	<line class="st6" x1="497.9" y1="77.9" x2="497.9" y2="95.8"/>
</g>
<g id="ID000057">
	<g>
		<g transform="translate(590.395,62.935)">
			<g transform="rotate(-0.0)">
				<text transform="matrix(1 0 0 1 -64.0332 7.2124)" class="st4 st1 st2">U</text>
			</g>
		</g>
	</g>
</g>
<g id="ID000058">
	<g transform="translate(610.789,71.093)">
		<g transform="rotate(-0.0)">
			<text transform="matrix(1 0 0 1 -65.6889 6.5475)" class="st4 st1 st2">U</text>
		</g>
	</g>
</g>
<g id="ID000059">
	<g transform="translate(627.104,71.093)">
		<g transform="rotate(-0.0)">
			<text transform="matrix(1 0 0 1 -67.0156 6.5475)" class="st4 st1 st2">C</text>
		</g>
	</g>
</g>
<g id="ID000060">
	<g>
		<g transform="translate(643.419,67.014)">
			<g transform="rotate(-0.0)">
				<text transform="matrix(1 0 0 1 -68.7525 6.88)" class="st4 st1 st2">G</text>
			</g>
		</g>
	</g>
</g>
<g id="ID000061">
	<g>
		<g transform="translate(663.813,67.014)">
			<g transform="rotate(-0.0)">
				<text transform="matrix(1 0 0 1 -70.4091 6.88)" class="st4 st1 st2">G</text>
			</g>
		</g>
	</g>
</g>
<g id="ID000062">
	<g>
		<g transform="translate(680.128,83.329)">
			<g transform="rotate(-0.0)">
				<text transform="matrix(1 0 0 1 -71.3286 5.5537)" class="st4 st1 st2">U</text>
			</g>
		</g>
	</g>
</g>
<g id="ID000063">
	<g>
		<g transform="translate(667.892,103.723)">
			<g transform="rotate(-0.0)">
				<text transform="matrix(1 0 0 1 -70.3329 3.8956)" class="st4 st1 st2">U</text>
			</g>
		</g>
	</g>
</g>
<g id="ID000064">
	<line class="st3" x1="602.9" y1="110.7" x2="602.9" y2="120.9"/>
</g>
<g id="ID000065">
	<g transform="translate(667.892,137.386)">
		<g transform="rotate(-0.0)">
			<text transform="matrix(1 0 0 1 -73.1991 1.1603)" class="st1 st2">30</text>
		</g>
	</g>
</g>
<g id="ID000066">
	<g>
		<g transform="translate(647.498,111.880)">
			<g transform="rotate(-0.0)">
				<text transform="matrix(1 0 0 1 -69.0844 3.2322)" class="st4 st1 st2">G</text>
			</g>
		</g>
	</g>
</g>
<g id="ID000067">
	<g transform="translate(627.104,103.723)">
		<g transform="rotate(-0.0)">
			<text transform="matrix(1 0 0 1 -67.4257 3.8956)" class="st4 st1 st2">G</text>
		</g>
	</g>
</g>
<g id="ID000068">
	<g transform="translate(610.789,103.723)">
		<g transform="rotate(-0.0)">
			<text transform="matrix(1 0 0 1 -66.099 3.8956)" class="st4 st1 st2">G</text>
		</g>
	</g>
</g>
<g id="ID000069">
	<g>
		<g transform="translate(594.474,120.038)">
			<g transform="rotate(-0.0)">
				<text transform="matrix(1 0 0 1 -64.3621 2.5698)" class="st4 st1 st2">U</text>
			</g>
		</g>
	</g>
</g>
<g id="ID000070">
	<polygon class="st7" points="550.4,88.9 550.6,88.9 550.6,88.9 550.9,88.9 551.2,88.9 551.4,88.6 551.4,88.6 551.7,88.6 552,88.4 
		552,88.4 552.2,88.4 552.2,88.1 552.5,88.1 552.5,87.8 552.8,87.8 552.8,87.6 553,87.6 553,87.3 553,87 553.3,87 553.3,86.8 
		553.3,86.5 553.3,86.5 553.3,86.2 553.3,86 553.3,85.7 553.3,85.7 553.3,85.4 553.3,85.2 553.3,85.2 553.3,84.9 553,84.6 553,84.6 
		553,84.4 552.8,84.1 552.8,84.1 552.8,83.8 552.5,83.8 552.5,83.6 552.2,83.6 552,83.3 552,83.3 551.7,83.3 551.7,83 551.4,83 
		551.2,83 551.2,83 550.9,83 550.6,82.8 550.4,82.8 550.4,82.8 550.1,82.8 549.8,83 549.8,83 549.6,83 549.3,83 549.3,83 549,83.3 
		548.8,83.3 548.8,83.3 548.5,83.6 548.5,83.6 548.2,83.8 548.2,83.8 548,84.1 548,84.1 547.7,84.4 547.7,84.6 547.7,84.6 
		547.4,84.9 547.4,85.2 547.4,85.2 547.4,85.4 547.4,85.7 547.4,85.7 547.4,86 547.4,86.2 547.4,86.5 547.4,86.5 547.4,86.8 
		547.7,87 547.7,87 547.7,87.3 547.7,87.6 548,87.6 548,87.8 548.2,87.8 548.2,88.1 548.5,88.1 548.5,88.4 548.8,88.4 549,88.4 
		549,88.6 549.3,88.6 549.6,88.6 549.6,88.9 549.8,88.9 550.1,88.9 550.1,88.9 	"/>
</g>
<g id="ID000071">
	<line class="st6" x1="565.3" y1="80" x2="565.3" y2="94.8"/>
</g>
<g id="ID000073">
	<g transform="translate(435.402,144.510)">
		<g transform="rotate(-0.0)">
			<text transform="matrix(1 0 0 1 -51.8399 0.5793)" class="st5 st1 st2">G</text>
		</g>
	</g>
</g>
<g id="ID000074">
	<g transform="translate(435.402,160.826)">
		<g transform="rotate(-0.0)">
			<text transform="matrix(1 0 0 1 -51.0255 -0.7465)" class="st5 st1 st2">A</text>
		</g>
	</g>
</g>
<g id="ID000075">
	<g transform="translate(435.402,177.141)">
		<g transform="rotate(-0.0)">
			<text transform="matrix(1 0 0 1 -51.8399 -2.0731)" class="st5 st1 st2">G</text>
		</g>
	</g>
</g>
<g id="ID000076">
	<g transform="translate(435.402,193.456)">
		<g transform="rotate(-0.0)">
			<text transform="matrix(1 0 0 1 -51.4317 -3.3994)" class="st5 st1 st2">C</text>
		</g>
	</g>
</g>
<g id="ID000077">
	<g transform="translate(451.717,209.771)">
		<g transform="rotate(-0.0)">
			<text transform="matrix(1 0 0 1 -53.1657 -4.7266)" class="st5 st1 st2">G</text>
		</g>
	</g>
</g>
<g id="ID000078">
	<line class="st3" x1="414.2" y1="198.4" x2="424.4" y2="198.4"/>
</g>
<g id="ID000079">
	<g transform="translate(473.471,209.771)">
		<g transform="rotate(-0.0)">
			<text transform="matrix(1 0 0 1 -49.2185 -4.7266)" class="st1 st2">50</text>
		</g>
	</g>
</g>
<g id="ID000080">
	<g transform="translate(459.875,230.164)">
		<g transform="rotate(-0.0)">
			<text transform="matrix(1 0 0 1 -53.4223 -6.3823)" class="st5 st1 st2">C</text>
		</g>
	</g>
</g>
<g id="ID000081">
	<g transform="translate(382.378,217.928)">
		<g transform="rotate(-0.0)">
			<text transform="matrix(1 0 0 1 -46.7144 -5.3889)" class="st5 st1 st2">A</text>
		</g>
	</g>
</g>
<g id="ID000082">
	<g transform="translate(390.536,205.692)">
		<g transform="rotate(-0.0)">
			<text transform="matrix(1 0 0 1 -47.3802 -4.3928)" class="st5 st1 st2">A</text>
		</g>
	</g>
</g>
<g id="ID000083">
	<g transform="translate(402.772,193.456)">
		<g transform="rotate(-0.0)">
			<text transform="matrix(1 0 0 1 -49.1875 -3.3994)" class="st5 st1 st2">G</text>
		</g>
	</g>
</g>
<g id="ID000084">
	<g transform="translate(402.772,177.141)">
		<g transform="rotate(-0.0)">
			<text transform="matrix(1 0 0 1 -48.7783 -2.0731)" class="st5 st1 st2">C</text>
		</g>
	</g>
</g>
<g id="ID000085">
	<g transform="translate(402.772,160.826)">
		<g transform="rotate(-0.0)">
			<text transform="matrix(1 0 0 1 -48.7783 -0.7465)" class="st5 st1 st2">U</text>
		</g>
	</g>
</g>
<g id="ID000086">
	<g transform="translate(402.772,144.510)">
		<g transform="rotate(-0.0)">
			<text transform="matrix(1 0 0 1 -48.7783 0.5793)" class="st5 st1 st2">U</text>
		</g>
	</g>
</g>
<g id="ID000089">
	<polygon class="st7" points="371.3,138.4 371.3,138.4 371.3,138.7 371.3,139 371.3,139 371.3,139.2 371.6,139.5 371.6,139.5 
		371.6,139.8 371.9,140 371.9,140 371.9,140.3 372.1,140.3 372.1,140.6 372.4,140.6 372.4,140.8 372.7,140.8 372.9,140.8 
		372.9,141.1 373.2,141.1 373.5,141.1 373.5,141.1 373.7,141.4 374,141.4 374,141.4 374.3,141.4 374.5,141.4 374.8,141.4 
		374.8,141.4 375.1,141.1 375.3,141.1 375.3,141.1 375.6,141.1 375.9,140.8 375.9,140.8 376.1,140.8 376.1,140.6 376.4,140.6 
		376.4,140.3 376.7,140.3 376.7,140 376.9,139.8 376.9,139.8 376.9,139.5 377.2,139.2 377.2,139.2 377.2,139 377.2,138.7 
		377.2,138.7 377.2,138.4 377.2,138.2 377.2,137.9 377.2,137.9 377.2,137.6 377.2,137.4 377.2,137.4 376.9,137.1 376.9,136.8 
		376.9,136.8 376.7,136.6 376.7,136.6 376.4,136.3 376.4,136.3 376.1,136 376.1,136 375.9,135.8 375.9,135.8 375.6,135.5 
		375.3,135.5 375.3,135.5 375.1,135.5 374.8,135.5 374.8,135.2 374.5,135.2 374.3,135.2 374,135.2 374,135.2 373.7,135.2 
		373.5,135.5 373.5,135.5 373.2,135.5 372.9,135.5 372.9,135.8 372.7,135.8 372.4,135.8 372.4,136 372.1,136 372.1,136.3 
		371.9,136.3 371.9,136.6 371.9,136.6 371.6,136.8 371.6,137.1 371.6,137.1 371.3,137.4 371.3,137.6 371.3,137.6 371.3,137.9 
		371.3,138.2 	"/>
</g>
<g id="ID000090">
	<line class="st6" x1="383.3" y1="153.4" x2="365.2" y2="153.4"/>
</g>
<g id="ID000091">
	<line class="st6" x1="383.3" y1="168.3" x2="365.2" y2="168.3"/>
</g>
<g id="ID000092">
	<line class="st6" x1="383.3" y1="183.2" x2="365.2" y2="183.2"/>
</g>
<g id="ID000094">
	<g transform="translate(447.639,246.480)">
		<g transform="rotate(-0.0)">
			<text transform="matrix(1 0 0 1 -52.4256 -7.7091)" class="st5 st1 st2">U</text>
		</g>
	</g>
</g>
<g id="ID000095">
	<g transform="translate(435.402,258.716)">
		<g transform="rotate(-0.0)">
			<text transform="matrix(1 0 0 1 -51.4317 -8.7029)" class="st5 st1 st2">U</text>
		</g>
	</g>
</g>
<g id="ID000096">
	<g transform="translate(435.402,275.031)">
		<g transform="rotate(-0.0)">
			<text transform="matrix(1 0 0 1 -51.4317 -10.0325)" class="st5 st1 st2">C</text>
		</g>
	</g>
</g>
<g id="ID000097">
	<g transform="translate(435.402,291.346)">
		<g transform="rotate(-0.0)">
			<text transform="matrix(1 0 0 1 -51.0255 -11.3593)" class="st5 st1 st2">A</text>
		</g>
	</g>
</g>
<g id="ID000098">
	<g transform="translate(435.402,307.661)">
		<g transform="rotate(-0.0)">
			<text transform="matrix(1 0 0 1 -51.0255 -12.6831)" class="st5 st1 st2">A</text>
		</g>
	</g>
</g>
<g id="ID000099">
	<g transform="translate(447.639,323.976)">
		<g transform="rotate(-0.0)">
			<text transform="matrix(1 0 0 1 -52.4256 -14.0087)" class="st5 st1 st2">U</text>
		</g>
	</g>
</g>
<g id="ID000100">
	<g transform="translate(390.536,323.976)">
		<g transform="rotate(-0.0)">
			<text transform="matrix(1 0 0 1 -47.7825 -14.0087)" class="st5 st1 st2">C</text>
		</g>
	</g>
</g>
<g id="ID000101">
	<g transform="translate(402.772,307.661)">
		<g transform="rotate(-0.0)">
			<text transform="matrix(1 0 0 1 -48.7783 -12.6831)" class="st5 st1 st2">U</text>
		</g>
	</g>
</g>
<g id="ID000102">
	<g transform="translate(402.772,291.346)">
		<g transform="rotate(-0.0)">
			<text transform="matrix(1 0 0 1 -48.7783 -11.3593)" class="st5 st1 st2">U</text>
		</g>
	</g>
</g>
<g id="ID000103">
	<line class="st3" x1="349.2" y1="273.3" x2="339.4" y2="273.3"/>
</g>
<g id="ID000104">
	<g transform="translate(381.019,291.346)">
		<g transform="rotate(-0.0)">
			<text transform="matrix(1 0 0 1 -58.0527 -11.3593)" class="st1 st2">70</text>
		</g>
	</g>
</g>
<g id="ID000105">
	<g transform="translate(402.772,275.031)">
		<g transform="rotate(-0.0)">
			<text transform="matrix(1 0 0 1 -49.1875 -10.0325)" class="st5 st1 st2">G</text>
		</g>
	</g>
</g>
<g id="ID000106">
	<g transform="translate(402.772,258.716)">
		<g transform="rotate(-0.0)">
			<text transform="matrix(1 0 0 1 -48.373 -8.7029)" class="st5 st1 st2">A</text>
		</g>
	</g>
</g>
<g id="ID000107">
	<g transform="translate(390.536,246.480)">
		<g transform="rotate(-0.0)">
			<text transform="matrix(1 0 0 1 -47.7825 -7.7091)" class="st5 st1 st2">C</text>
		</g>
	</g>
</g>
<g id="ID000108">
	<g transform="translate(378.300,234.243)">
		<g transform="rotate(-0.0)">
			<text transform="matrix(1 0 0 1 -47.1979 -6.7157)" class="st5 st1 st2">G</text>
		</g>
	</g>
</g>
<g id="ID000109">
	<line class="st6" x1="383.3" y1="243.1" x2="365.2" y2="243.1"/>
</g>
<g id="ID000110">
	<line class="st6" x1="383.3" y1="258.3" x2="365.2" y2="258.3"/>
</g>
<g id="ID000111">
	<line class="st6" x1="383.3" y1="273.3" x2="365.2" y2="273.3"/>
</g>
<g id="ID000112">
	<line class="st6" x1="383.3" y1="288.2" x2="365.2" y2="288.2"/>
</g>
<g id="ID000114">
	<g transform="translate(435.402,344.370)">
		<g transform="rotate(-0.0)">
			<text transform="matrix(1 0 0 1 -51.4317 -15.6694)" class="st5 st1 st2">U</text>
		</g>
	</g>
</g>
<g id="ID000115">
	<g transform="translate(435.402,360.685)">
		<g transform="rotate(-0.0)">
			<text transform="matrix(1 0 0 1 -51.4317 -16.9932)" class="st5 st1 st2">C</text>
		</g>
	</g>
</g>
<g id="ID000116">
	<g transform="translate(447.639,377.000)">
		<g transform="rotate(-0.0)">
			<text transform="matrix(1 0 0 1 -52.0203 -18.3209)" class="st5 st1 st2">A</text>
		</g>
	</g>
</g>
<g id="ID000117">
	<line class="st3" x1="410.5" y1="351.8" x2="420.4" y2="351.8"/>
</g>
<g id="ID000118">
	<g transform="translate(469.392,377.000)">
		<g transform="rotate(-0.0)">
			<text transform="matrix(1 0 0 1 -48.8866 -18.3209)" class="st1 st2">60</text>
		</g>
	</g>
</g>
<g id="ID000119">
	<g transform="translate(443.560,397.394)">
		<g transform="rotate(-0.0)">
			<text transform="matrix(1 0 0 1 -52.0936 -19.9795)" class="st5 st1 st2">C</text>
		</g>
	</g>
</g>
<g id="ID000120">
	<g transform="translate(427.245,409.630)">
		<g transform="rotate(-0.0)">
			<text transform="matrix(1 0 0 1 -50.7679 -20.9724)" class="st5 st1 st2">U</text>
		</g>
	</g>
</g>
<g id="ID000121">
	<g transform="translate(406.851,409.630)">
		<g transform="rotate(-0.0)">
			<text transform="matrix(1 0 0 1 -49.5204 -20.9724)" class="st5 st1 st2">G</text>
		</g>
	</g>
</g>
<g id="ID000122">
	<g transform="translate(390.536,397.394)">
		<g transform="rotate(-0.0)">
			<text transform="matrix(1 0 0 1 -47.7825 -19.9795)" class="st5 st1 st2">C</text>
		</g>
	</g>
</g>
<g id="ID000123">
	<g transform="translate(386.457,377.000)">
		<g transform="rotate(-0.0)">
			<text transform="matrix(1 0 0 1 -47.0473 -18.3209)" class="st5 st1 st2">A</text>
		</g>
	</g>
</g>
<g id="ID000124">
	<g transform="translate(402.772,360.685)">
		<g transform="rotate(-0.0)">
			<text transform="matrix(1 0 0 1 -49.1875 -16.9932)" class="st5 st1 st2">G</text>
		</g>
	</g>
</g>
<g id="ID000125">
	<g transform="translate(402.772,344.370)">
		<g transform="rotate(-0.0)">
			<text transform="matrix(1 0 0 1 -48.373 -15.6694)" class="st5 st1 st2">A</text>
		</g>
	</g>
</g>
<g id="ID000126">
	<line class="st6" x1="383.3" y1="322" x2="365.2" y2="322"/>
</g>
<g id="ID000127">
	<line class="st6" x1="383.3" y1="336.9" x2="365.2" y2="336.9"/>
</g>
<text transform="matrix(1 0 0 1 358.422 25.2784)" class="st1 st8">aptamer 32</text>
<text transform="matrix(1 0 0 1 349.243 122.7841)" class="st0 st1 st9">5’</text>
<text transform="matrix(1 0 0 1 338.6085 149.5552)" class="st1 st9">3’</text>
<g id="ID000048_1_">
	<line class="st6" x1="341.5" y1="86.5" x2="341.5" y2="102"/>
</g>
<g id="ID000048_2_">
	<line class="st6" x1="325.6" y1="86.5" x2="325.6" y2="102"/>
</g>
<g id="ID000089_1_">
	<polygon class="st7" points="307.7,94.4 307.7,94.4 307.7,94.7 307.7,95 307.7,95 307.7,95.2 307.9,95.5 307.9,95.5 307.9,95.8 
		308.2,96 308.2,96 308.2,96.3 308.5,96.3 308.5,96.6 308.7,96.6 308.7,96.8 309,96.8 309.3,96.8 309.3,97.1 309.5,97.1 309.8,97.1 
		309.8,97.1 310.1,97.4 310.3,97.4 310.3,97.4 310.6,97.4 310.9,97.4 311.1,97.4 311.1,97.4 311.4,97.1 311.7,97.1 311.7,97.1 
		311.9,97.1 312.2,96.8 312.2,96.8 312.5,96.8 312.5,96.6 312.7,96.6 312.7,96.3 313,96.3 313,96 313.3,95.8 313.3,95.8 313.3,95.5 
		313.5,95.2 313.5,95.2 313.5,95 313.5,94.7 313.5,94.7 313.5,94.4 313.5,94.2 313.5,93.9 313.5,93.9 313.5,93.6 313.5,93.4 
		313.5,93.4 313.3,93.1 313.3,92.8 313.3,92.8 313,92.6 313,92.6 312.7,92.3 312.7,92.3 312.5,92 312.5,92 312.2,91.8 312.2,91.8 
		311.9,91.5 311.7,91.5 311.7,91.5 311.4,91.5 311.1,91.5 311.1,91.2 310.9,91.2 310.6,91.2 310.3,91.2 310.3,91.2 310.1,91.2 
		309.8,91.5 309.8,91.5 309.5,91.5 309.3,91.5 309.3,91.8 309,91.8 308.7,91.8 308.7,92 308.5,92 308.5,92.3 308.2,92.3 308.2,92.6 
		308.2,92.6 307.9,92.8 307.9,93.1 307.9,93.1 307.7,93.4 307.7,93.6 307.7,93.6 307.7,93.9 307.7,94.2 	"/>
</g>
</svg>
