<?xml version="1.0" encoding="utf-8"?>
<!-- Generator: Adobe Illustrator 27.0.0, SVG Export Plug-In . SVG Version: 6.00 Build 0)  -->
<svg version="1.1" id="图层_1" xmlns="http://www.w3.org/2000/svg" xmlns:xlink="http://www.w3.org/1999/xlink" x="0px" y="0px"
	 viewBox="0 0 800 400" style="enable-background:new 0 0 800 400;" xml:space="preserve">
<style type="text/css">
	.st0{fill:#B83332;}
	.st1{font-family:'ArialMT';}
	.st2{font-size:16.7484px;}
	.st3{fill:#C2B617;}
	.st4{fill:#084595;}
	.st5{fill:#CF3E7D;}
	.st6{font-size:11.5145px;}
	.st7{fill:none;stroke:#000000;stroke-miterlimit:10;}
	.st8{font-size:14.6548px;}
	.st9{font-size:16px;}
</style>
<text transform="matrix(1 0 0 1 443.2305 234.4873)" class="st0 st1 st2">G</text>
<text transform="matrix(1 0 0 1 425.6035 239.5322)" class="st0 st1 st2">G</text>
<text transform="matrix(1 0 0 1 407.4316 244.6719)" class="st0 st1 st2">G</text>
<text transform="matrix(1 0 0 1 389.2593 248.9639)" class="st0 st1 st2">A</text>
<text transform="matrix(1 0 0 1 375.6094 257.0342)" class="st0 st1 st2">A</text>
<text transform="matrix(1 0 0 1 358.8608 253.9043)" class="st0 st1 st2">U</text>
<text transform="matrix(1 0 0 1 340.5635 256.2178)" class="st0 st1 st2">G</text>
<text transform="matrix(1 0 0 1 322.4751 258.751)" class="st0 st1 st2">G</text>
<text transform="matrix(1 0 0 1 304.9624 261.8809)" class="st0 st1 st2">A</text>
<text transform="matrix(1 0 0 1 287.4712 266.2256)" class="st0 st1 st2">U</text>
<text transform="matrix(1 0 0 1 283.1689 282.335)" class="st0 st1 st2">C</text>
<text transform="matrix(1 0 0 1 273.4336 295.252)" class="st0 st1 st2">C</text>
<text transform="matrix(1 0 0 1 259.3965 302.4854)" class="st0 st1 st2">A</text>
<text transform="matrix(1 0 0 1 242.5435 303.4062)" class="st0 st1 st2">C</text>
<text transform="matrix(1 0 0 1 226.7163 296.8223)" class="st0 st1 st2">A</text>
<text transform="matrix(1 0 0 1 215.5474 283.8008)" class="st0 st1 st2">U</text>
<text transform="matrix(1 0 0 1 210.9204 267.5967)" class="st0 st1 st2">C</text>
<text transform="matrix(1 0 0 1 213.0034 250.6807)" class="st0 st1 st2">U</text>
<text transform="matrix(1 0 0 1 223.1992 236.79)" class="st0 st1 st2">A</text>
<text transform="matrix(1 0 0 1 238.1787 228.4678)" class="st0 st1 st2">C</text>
<text transform="matrix(1 0 0 1 255.042 227.5361)" class="st0 st1 st2">G</text>
<text transform="matrix(1 0 0 1 271.1099 234.0059)" class="st0 st1 st2">A</text>
<text transform="matrix(1 0 0 1 282.3418 244.5361)" class="st0 st1 st2">A</text>
<text transform="matrix(1 0 0 1 300.3462 240.5479)" class="st0 st1 st2">U</text>
<text transform="matrix(1 0 0 1 318.895 237.2188)" class="st0 st1 st2">U</text>
<text transform="matrix(1 0 0 1 337.6636 234.6436)" class="st0 st1 st2">C</text>
<text transform="matrix(1 0 0 1 355.5952 232.0898)" class="st0 st1 st2">A</text>
<text transform="matrix(1 0 0 1 370.0615 223.1719)" class="st0 st1 st2">A</text>
<text transform="matrix(1 0 0 1 384.915 227.3584)" class="st0 st1 st2">U</text>
<text transform="matrix(1 0 0 1 402.71 223.5801)" class="st0 st1 st2">C</text>
<text transform="matrix(1 0 0 1 420.3066 218.6074)" class="st0 st1 st2">C</text>
<text transform="matrix(1 0 0 1 437.9658 213.0391)" class="st0 st1 st2">C</text>
<text transform="matrix(1 0 0 1 439.7559 197.4727)" class="st3 st1 st2">A</text>
<text transform="matrix(1 0 0 1 443.4824 180.9443)" class="st3 st1 st2">A</text>
<text transform="matrix(1 0 0 1 443.7959 166.583)" class="st4 st1 st2">U</text>
<text transform="matrix(1 0 0 1 431.8311 150.8604)" class="st4 st1 st2">G</text>
<text transform="matrix(1 0 0 1 422.0752 134.1958)" class="st4 st1 st2">G</text>
<text transform="matrix(1 0 0 1 414.2979 117.3428)" class="st4 st1 st2">C</text>
<text transform="matrix(1 0 0 1 403.5586 109.3975)" class="st4 st1 st2">U</text>
<text transform="matrix(1 0 0 1 394.5034 94.8159)" class="st4 st1 st2">U</text>
<text transform="matrix(1 0 0 1 396.9009 77.5967)" class="st4 st1 st2">G</text>
<text transform="matrix(1 0 0 1 410.0898 66.2603)" class="st4 st1 st2">A</text>
<text transform="matrix(1 0 0 1 427.2881 65.6426)" class="st4 st1 st2">A</text>
<text transform="matrix(1 0 0 1 440.959 76.2461)" class="st4 st1 st2">C</text>
<text transform="matrix(1 0 0 1 444.1621 93.1201)" class="st4 st1 st2">U</text>
<text transform="matrix(1 0 0 1 438.0283 107.5449)" class="st4 st1 st2">G</text>
<text transform="matrix(1 0 0 1 445.4922 123.4766)" class="st4 st1 st2">C</text>
<text transform="matrix(1 0 0 1 454.2012 138.6025)" class="st4 st1 st2">C</text>
<text transform="matrix(1 0 0 1 465.5479 152.7861)" class="st4 st1 st2">A</text>
<text transform="matrix(1 0 0 1 476.0576 142.7686)" class="st3 st1 st2">A</text>
<text transform="matrix(1 0 0 1 491.5811 136.2056)" class="st3 st1 st2">C</text>
<text transform="matrix(1 0 0 1 507.6807 133.9863)" class="st3 st1 st2">G</text>
<text transform="matrix(1 0 0 1 524.3555 135.7554)" class="st3 st1 st2">A</text>
<text transform="matrix(1 0 0 1 539.9844 140.3613)" class="st3 st1 st2">A</text>
<text transform="matrix(1 0 0 1 554.1367 148.6724)" class="st3 st1 st2">C</text>
<text transform="matrix(1 0 0 1 565.2744 160.208)" class="st3 st1 st2">G</text>
<text transform="matrix(1 0 0 1 573.3867 174.3813)" class="st3 st1 st2">U</text>
<text transform="matrix(1 0 0 1 578.5469 189.8633)" class="st3 st1 st2">U</text>
<text transform="matrix(1 0 0 1 581.2998 206.1094)" class="st3 st1 st2">C</text>
<text transform="matrix(1 0 0 1 578.9873 222.5225)" class="st3 st1 st2">A</text>
<text transform="matrix(1 0 0 1 572.4023 237.5859)" class="st3 st1 st2">C</text>
<text transform="matrix(1 0 0 1 563.5361 251.7695)" class="st3 st1 st2">U</text>
<text transform="matrix(1 0 0 1 551.1113 262.8965)" class="st3 st1 st2">G</text>
<text transform="matrix(1 0 0 1 536.6865 270.6426)" class="st3 st1 st2">C</text>
<text transform="matrix(1 0 0 1 522.3564 275.3428)" class="st5 st1 st2">A</text>
<text transform="matrix(1 0 0 1 523.7275 292.6768)" class="st5 st1 st2">G</text>
<text transform="matrix(1 0 0 1 531.1279 307.2275)" class="st5 st1 st2">A</text>
<text transform="matrix(1 0 0 1 520.7754 321.7666)" class="st5 st1 st2">C</text>
<text transform="matrix(1 0 0 1 513.1348 338.0439)" class="st5 st1 st2">U</text>
<text transform="matrix(1 0 0 1 506.2783 354.7295)" class="st5 st1 st2">U</text>
<text transform="matrix(1 0 0 1 505.1475 371.1221)" class="st5 st1 st2">G</text>
<text transform="matrix(1 0 0 1 491.8008 381.2764)" class="st5 st1 st2">A</text>
<text transform="matrix(1 0 0 1 476.1836 374.6504)" class="st5 st1 st2">C</text>
<text transform="matrix(1 0 0 1 473.5771 357.7656)" class="st5 st1 st2">G</text>
<text transform="matrix(1 0 0 1 485.6875 344.9844)" class="st5 st1 st2">A</text>
<text transform="matrix(1 0 0 1 492.9316 328.4346)" class="st5 st1 st2">A</text>
<text transform="matrix(1 0 0 1 499.9238 311.4355)" class="st5 st1 st2">G</text>
<text transform="matrix(1 0 0 1 503.1689 294.8545)" class="st5 st1 st2">C</text>
<text transform="matrix(1 0 0 1 501.1074 276.3477)" class="st5 st1 st2">U</text>
<text transform="matrix(1 0 0 1 486.3164 271.7627)" class="st3 st1 st2">U</text>
<text transform="matrix(1 0 0 1 299.7812 284.8369)" class="st1 st6">10</text>
<text transform="matrix(1 0 0 1 231.5522 203.4502)" class="st1 st6">20</text>
<text transform="matrix(1 0 0 1 398.2197 198.583)" class="st1 st6">30</text>
<text transform="matrix(1 0 0 1 369.3809 94.3032)" class="st1 st6">40</text>
<text transform="matrix(1 0 0 1 471.5039 117.6777)" class="st1 st6">50</text>
<text transform="matrix(1 0 0 1 553.917 222.0098)" class="st1 st6">60</text>
<text transform="matrix(1 0 0 1 530.0605 352.835)" class="st1 st6">70</text>
<text transform="matrix(1 0 0 1 471.7969 288.4062)" class="st1 st6">80</text>
<g id="ID000017">
	<line class="st7" x1="304.8" y1="275.5" x2="297.2" y2="265.6"/>
</g>
<g id="ID000017-2">
	<line class="st7" x1="241.6" y1="216.4" x2="238.5" y2="204.3"/>
</g>
<g id="ID000017-3">
	<line class="st7" x1="407.2" y1="211.2" x2="404.6" y2="199"/>
</g>
<g id="ID000017-4">
	<line class="st7" x1="479.6" y1="130.7" x2="478" y2="118.3"/>
</g>
<g id="ID000017-5">
	<line class="st7" x1="567" y1="217.6" x2="579.5" y2="217.5"/>
</g>
<g id="ID000017-6">
	<line class="st7" x1="395" y1="90.4" x2="382.6" y2="90"/>
</g>
<g id="ID000017-7">
	<line class="st7" x1="531.1" y1="348.8" x2="518.2" y2="349"/>
</g>
<g id="ID000017-8">
	<line class="st7" x1="488.1" y1="271" x2="478.8" y2="280"/>
</g>
<g id="ID000017-9">
	<line class="st7" x1="522.3" y1="270.7" x2="513.1" y2="270.9"/>
</g>
<g id="ID000017-10">
	<line class="st7" x1="523.8" y1="288.3" x2="514.6" y2="288.5"/>
</g>
<g id="ID000017-11">
	<line class="st7" x1="521.3" y1="312.1" x2="512.8" y2="308.6"/>
</g>
<g id="ID000017-12">
	<line class="st7" x1="513.6" y1="330.2" x2="505.1" y2="326.7"/>
</g>
<g id="ID000017-13">
	<line class="st7" x1="506.7" y1="347.3" x2="498.2" y2="343.8"/>
</g>
<g id="ID000017-14">
	<line class="st7" x1="426.6" y1="110.2" x2="437.5" y2="104.1"/>
</g>
<g id="ID000017-15">
	<line class="st7" x1="435.4" y1="127.1" x2="446.3" y2="121"/>
</g>
<g id="ID000017-16">
	<line class="st7" x1="443.9" y1="144" x2="454.8" y2="137.9"/>
</g>
<g id="ID000017-17">
	<line class="st7" x1="454.8" y1="157.6" x2="465.7" y2="151.6"/>
</g>
<g id="ID000017-18">
	<line class="st7" x1="292.1" y1="253.2" x2="289.8" y2="244.5"/>
</g>
<g id="ID000017-19">
	<line class="st7" x1="309.1" y1="249.8" x2="306.8" y2="241.2"/>
</g>
<g id="ID000017-20">
	<line class="st7" x1="328.4" y1="246.3" x2="326.3" y2="237.6"/>
</g>
<g id="ID000017-21">
	<line class="st7" x1="346.2" y1="243.9" x2="344.1" y2="235.2"/>
</g>
<g id="ID000017-22">
	<line class="st7" x1="363.5" y1="241.2" x2="362.4" y2="232.3"/>
</g>
<g id="ID000017-23">
	<line class="st7" x1="393.6" y1="235.9" x2="392.5" y2="227.1"/>
</g>
<g id="ID000017-24">
	<line class="st7" x1="411.5" y1="233.1" x2="410.4" y2="224.2"/>
</g>
<g id="ID000017-25">
	<line class="st7" x1="429.3" y1="227.5" x2="428.2" y2="218.6"/>
</g>
<g id="ID000017-26">
	<line class="st7" x1="446.9" y1="222" x2="445.8" y2="213.1"/>
</g>
<text transform="matrix(1 0 0 1 458.7334 231.8389)" class="st1 st8">5</text>
<text transform="matrix(1 0 0 1 466.8877 231.8389)" class="st1 st8">’</text>
<text transform="matrix(1 0 0 1 479.6377 258.7305)" class="st1 st8">3</text>
<text transform="matrix(1 0 0 1 487.792 258.7305)" class="st1 st8">’</text>
<text transform="matrix(1 0 0 1 339.4738 26.3869)" class="st1 st9">ps11-20 aptamer</text>
</svg>
