<?xml version="1.0" encoding="utf-8"?>
<!-- Generator: Adobe Illustrator 22.1.0, SVG Export Plug-In . SVG Version: 6.00 Build 0)  -->
<svg version="1.1" id="图层_1" xmlns="http://www.w3.org/2000/svg" xmlns:xlink="http://www.w3.org/1999/xlink" x="0px" y="0px"
	 viewBox="0 0 400 400" style="enable-background:new 0 0 400 400;" xml:space="preserve">
<style type="text/css">
	.st0{font-family:'ArialMT';}
	.st1{font-size:20px;}
	.st2{fill:#C2B617;}
	.st3{font-size:10.57px;}
	.st4{fill:#B83233;}
	.st5{fill:none;stroke:#000000;stroke-width:0.5;}
	.st6{fill:none;stroke:#000000;}
	.st7{fill:#084595;}
	.st8{stroke:#000000;stroke-width:0.5;}
	.st9{fill:#CF3E7D;}
	.st10{font-size:13px;}
</style>
<title>R20_15_aptamer_2D2</title>
<text transform="matrix(1 0 0 1 135.85 33.81)" class="st0 st1">R20-15 aptamer</text>
<g>
	<g id="topgroup">
		<g id="ID000000">
			<g id="ID000002">
				<text transform="matrix(1 0 0 1 111.2814 168.2)" class="st2 st0 st3">G</text>
			</g>
			<g id="ID000003">
				<text transform="matrix(1 0 0 1 122.1514 168.2)" class="st2 st0 st3">G</text>
			</g>
			<g id="ID000004">
				<text transform="matrix(1 0 0 1 133.0214 168.2)" class="st4 st0 st3">G</text>
			</g>
			<g id="ID000005">
				<text transform="matrix(1 0 0 1 133.6114 179.07)" class="st4 st0 st3">A</text>
			</g>
			<g id="ID000006">
				<text transform="matrix(1 0 0 1 133.0214 189.94)" class="st4 st0 st3">G</text>
			</g>
			<g id="ID000007">
				<text transform="matrix(1 0 0 1 133.3113 200.81)" class="st4 st0 st3">C</text>
			</g>
			<g id="ID000008">
				<text transform="matrix(1 0 0 1 122.4413 211.68)" class="st4 st0 st3">U</text>
			</g>
			<g id="ID000009">
				<text transform="matrix(1 0 0 1 117.0114 225.26)" class="st4 st0 st3">C</text>
			</g>
			<g id="ID000010">
				<text transform="matrix(1 0 0 1 119.0214 236.42)" class="st4 st0 st3">A</text>
			</g>
			<g id="ID000011">
				<text transform="matrix(1 0 0 1 124.8714 247)" class="st4 st0 st3">G</text>
			</g>
			<g id="ID000012">
				<line class="st5" x1="121.7" y1="242.1" x2="114.5" y2="242.1"/>
			</g>
			<g id="ID000013">
				<text transform="matrix(1 0 0 1 102.7314 247)" class="st0 st3">10</text>
			</g>
			<g id="ID000014">
				<text transform="matrix(1 0 0 1 130.8914 255.16)" class="st4 st0 st3">A</text>
			</g>
			<g id="ID000015">
				<text transform="matrix(1 0 0 1 144.4714 257.87)" class="st4 st0 st3">A</text>
			</g>
			<g id="ID000016">
				<text transform="matrix(1 0 0 1 157.7714 255.16)" class="st4 st0 st3">U</text>
			</g>
			<g id="ID000017">
				<text transform="matrix(1 0 0 1 166.2114 244.29)" class="st4 st0 st3">A</text>
			</g>
			<g id="ID000018">
				<text transform="matrix(1 0 0 1 168.9313 233.13)" class="st4 st0 st3">A</text>
			</g>
			<g id="ID000019">
				<text transform="matrix(1 0 0 1 166.2114 222.55)" class="st4 st0 st3">A</text>
			</g>
			<g id="ID000020">
				<text transform="matrix(1 0 0 1 160.4914 211.68)" class="st4 st0 st3">C</text>
			</g>
			<g id="ID000021">
				<text transform="matrix(1 0 0 1 154.7614 200.81)" class="st4 st0 st3">G</text>
			</g>
			<g id="ID000022">
				<text transform="matrix(1 0 0 1 155.0514 189.94)" class="st4 st0 st3">C</text>
			</g>
			<g id="ID000023">
				<text transform="matrix(1 0 0 1 155.0514 179.07)" class="st4 st0 st3">U</text>
			</g>
			<g id="ID000024">
				<line class="st5" x1="164" y1="179.3" x2="169.1" y2="184.4"/>
			</g>
			<g id="ID000025">
				<text transform="matrix(1 0 0 1 169.1213 197.25)" class="st0 st3">20</text>
			</g>
			<g id="ID000026">
				<text transform="matrix(1 0 0 1 155.0514 168.2)" class="st4 st0 st3">C</text>
			</g>
			<g id="ID000027">
				<text transform="matrix(1 0 0 1 168.9313 168.2)" class="st2 st0 st3">A</text>
			</g>
			<g id="ID000028">
				<line class="st6" x1="141.5" y1="163.3" x2="154.5" y2="163.3"/>
			</g>
			<g id="ID000029">
				<line class="st6" x1="141.5" y1="174.2" x2="154.5" y2="174.2"/>
			</g>
			<g id="ID000030">
				<line class="st6" x1="141.5" y1="185.1" x2="154.5" y2="185.1"/>
			</g>
			<g id="ID000031">
				<line class="st6" x1="141.5" y1="195.9" x2="154.5" y2="195.9"/>
			</g>
			<g id="ID000033">
				<text transform="matrix(1 0 0 1 179.8014 168.2)" class="st2 st0 st3">A</text>
			</g>
			<g id="ID000034">
				<text transform="matrix(1 0 0 1 187.6614 168.2)" class="st7 st0 st3">U</text>
			</g>
			<g id="ID000035">
				<text transform="matrix(1 0 0 1 187.3713 157.33)" class="st7 st0 st3">G</text>
			</g>
			<g id="ID000036">
				<text transform="matrix(1 0 0 1 187.6614 146.46)" class="st7 st0 st3">U</text>
			</g>
			<g id="ID000037">
				<text transform="matrix(1 0 0 1 187.9514 135.59)" class="st7 st0 st3">A</text>
			</g>
			<g id="ID000038">
				<text transform="matrix(1 0 0 1 187.3713 124.72)" class="st7 st0 st3">G</text>
			</g>
			<g id="ID000039">
				<text transform="matrix(1 0 0 1 187.3713 113.85)" class="st7 st0 st3">G</text>
			</g>
			<g id="ID000040">
				<text transform="matrix(1 0 0 1 187.6614 102.98)" class="st7 st0 st3">C</text>
			</g>
			<g id="ID000041">
				<line class="st5" x1="184.2" y1="98.1" x2="177" y2="98.1"/>
			</g>
			<g id="ID000042">
				<text transform="matrix(1 0 0 1 165.2314 102.98)" class="st0 st3">30</text>
			</g>
			<g id="ID000043">
				<text transform="matrix(1 0 0 1 184.9413 89.39)" class="st7 st0 st3">U</text>
			</g>
			<g id="ID000044">
				<text transform="matrix(1 0 0 1 176.9814 81.2397)" class="st7 st0 st3">A</text>
			</g>
			<g id="ID000045">
				<text transform="matrix(1 0 0 1 179.2214 67.66)" class="st7 st0 st3">G</text>
			</g>
			<g id="ID000046">
				<text transform="matrix(1 0 0 1 192.3813 56.79)" class="st7 st0 st3">U</text>
			</g>
			<g id="ID000047">
				<text transform="matrix(1 0 0 1 209.4012 56.79)" class="st7 st0 st3">A</text>
			</g>
			<g id="ID000048">
				<text transform="matrix(1 0 0 1 217.5514 64.94)" class="st7 st0 st3">C</text>
			</g>
			<g id="ID000049">
				<text transform="matrix(1 0 0 1 218.3918 78.52)" class="st7 st0 st3">C</text>
			</g>
			<g id="ID000050">
				<text transform="matrix(1 0 0 1 209.6912 89.3903)" class="st7 st0 st3">G</text>
			</g>
			<g id="ID000051">
				<text transform="matrix(1 0 0 1 209.6913 102.98)" class="st7 st0 st3">A</text>
			</g>
			<g id="ID000052">
				<text transform="matrix(1 0 0 1 209.4014 113.85)" class="st7 st0 st3">C</text>
			</g>
			<g id="ID000053">
				<line class="st5" x1="220.5" y1="109" x2="227.7" y2="109"/>
			</g>
			<g id="ID000054">
				<text transform="matrix(1 0 0 1 227.7114 113.85)" class="st0 st3">40</text>
			</g>
			<g id="ID000055">
				<text transform="matrix(1 0 0 1 209.4014 124.72)" class="st7 st0 st3">C</text>
			</g>
			<g id="ID000056">
				<text transform="matrix(1 0 0 1 209.4014 135.59)" class="st7 st0 st3">U</text>
			</g>
			<g id="ID000057">
				<text transform="matrix(1 0 0 1 209.1114 146.46)" class="st7 st0 st3">G</text>
			</g>
			<g id="ID000058">
				<text transform="matrix(1 0 0 1 209.4014 157.33)" class="st7 st0 st3">C</text>
			</g>
			<g id="ID000059">
				<text transform="matrix(1 0 0 1 209.1114 168.2)" class="st7 st0 st3">G</text>
			</g>
			<g id="ID000060">
				<text transform="matrix(1 0 0 1 222.9914 168.2)" class="st2 st0 st3">U</text>
			</g>
			<g id="ID000061">
				<polygon class="st8" points="204.5,163.3 204.5,163.2 204.5,163 204.5,162.9 204.5,162.8 204.4,162.6 204.4,162.5 204.3,162.4 
					204.3,162.3 204.2,162.1 204.1,162 204,161.9 203.9,161.8 203.8,161.7 203.7,161.6 203.6,161.5 203.5,161.5 203.4,161.4 
					203.3,161.3 203.1,161.3 203,161.2 202.9,161.2 202.7,161.2 202.6,161.1 202.5,161.1 202.3,161.1 202.2,161.1 202,161.2 
					201.9,161.2 201.8,161.2 201.6,161.3 201.5,161.3 201.4,161.4 201.3,161.4 201.1,161.5 201,161.6 200.9,161.7 200.8,161.8 
					200.7,161.9 200.6,162 200.6,162.1 200.5,162.2 200.4,162.3 200.4,162.4 200.3,162.6 200.3,162.7 200.2,162.8 200.2,163 
					200.2,163.1 200.2,163.2 200.2,163.4 200.2,163.5 200.2,163.6 200.2,163.8 200.3,163.9 200.3,164.1 200.4,164.2 200.4,164.3 
					200.5,164.4 200.6,164.5 200.6,164.6 200.7,164.8 200.8,164.9 200.9,164.9 201,165 201.1,165.1 201.3,165.2 201.4,165.3 
					201.5,165.3 201.6,165.4 201.8,165.4 201.9,165.4 202,165.5 202.2,165.5 202.3,165.5 202.5,165.5 202.6,165.5 202.7,165.4 
					202.9,165.4 203,165.4 203.1,165.3 203.3,165.3 203.4,165.2 203.5,165.2 203.6,165.1 203.7,165 203.8,164.9 203.9,164.8 
					204,164.7 204.1,164.6 204.2,164.5 204.3,164.4 204.3,164.2 204.4,164.1 204.4,164 204.5,163.9 204.5,163.7 204.5,163.6 
					204.5,163.4 				"/>
			</g>
			<g id="ID000062">
				<line class="st6" x1="195.8" y1="152.4" x2="208.9" y2="152.4"/>
			</g>
			<g id="ID000063">
				<polygon class="st8" points="204.5,141.6 204.5,141.4 204.5,141.3 204.5,141.2 204.5,141 204.4,140.9 204.4,140.8 204.3,140.6 
					204.3,140.5 204.2,140.4 204.1,140.3 204,140.2 203.9,140.1 203.8,140 203.7,139.9 203.6,139.8 203.5,139.7 203.4,139.6 
					203.3,139.6 203.1,139.5 203,139.5 202.9,139.5 202.7,139.4 202.6,139.4 202.5,139.4 202.3,139.4 202.2,139.4 202,139.4 
					201.9,139.4 201.8,139.5 201.6,139.5 201.5,139.6 201.4,139.6 201.3,139.7 201.1,139.8 201,139.8 200.9,139.9 200.8,140 
					200.7,140.1 200.6,140.2 200.6,140.3 200.5,140.4 200.4,140.6 200.4,140.7 200.3,140.8 200.3,141 200.2,141.1 200.2,141.2 
					200.2,141.4 200.2,141.5 200.2,141.6 200.2,141.8 200.2,141.9 200.2,142.1 200.3,142.2 200.3,142.3 200.4,142.4 200.4,142.6 
					200.5,142.7 200.6,142.8 200.6,142.9 200.7,143 200.8,143.1 200.9,143.2 201,143.3 201.1,143.4 201.3,143.4 201.4,143.5 
					201.5,143.6 201.6,143.6 201.8,143.7 201.9,143.7 202,143.7 202.2,143.7 202.3,143.7 202.5,143.7 202.6,143.7 202.7,143.7 
					202.9,143.7 203,143.6 203.1,143.6 203.3,143.6 203.4,143.5 203.5,143.4 203.6,143.3 203.7,143.3 203.8,143.2 203.9,143.1 
					204,143 204.1,142.9 204.2,142.7 204.3,142.6 204.3,142.5 204.4,142.4 204.4,142.3 204.5,142.1 204.5,142 204.5,141.8 
					204.5,141.7 				"/>
			</g>
			<g id="ID000064">
				<line class="st6" x1="195.8" y1="130.7" x2="208.9" y2="130.7"/>
			</g>
			<g id="ID000065">
				<line class="st6" x1="195.8" y1="119.8" x2="208.9" y2="119.8"/>
			</g>
			<g id="ID000066">
				<line class="st6" x1="195.8" y1="109" x2="208.9" y2="109"/>
			</g>
			<g id="ID000067">
				<line class="st6" x1="195.8" y1="98.1" x2="208.9" y2="98.1"/>
			</g>
			<g id="ID000069">
				<text transform="matrix(1 0 0 1 236.2814 168.2)" class="st9 st0 st3">G</text>
			</g>
			<g id="ID000070">
				<text transform="matrix(1 0 0 1 236.5814 179.07)" class="st9 st0 st3">C</text>
			</g>
			<g id="ID000071">
				<text transform="matrix(1 0 0 1 236.5814 189.94)" class="st9 st0 st3">C</text>
			</g>
			<g id="ID000072">
				<text transform="matrix(1 0 0 1 229.5209 197.2499)" class="st9 st0 st3">U</text>
			</g>
			<g id="ID000073">
				<line class="st5" x1="235.3" y1="188.8" x2="230.1" y2="183.7"/>
			</g>
			<g id="ID000074">
				<text transform="matrix(1 0 0 1 218.3914 182.95)" class="st0 st3">50</text>
			</g>
			<g id="ID000075">
				<text transform="matrix(1 0 0 1 222.9914 203.52)" class="st9 st0 st3">C</text>
			</g>
			<g id="ID000076">
				<text transform="matrix(1 0 0 1 273.0009 211.68)" class="st9 st0 st3">C</text>
			</g>
			<g id="ID000077">
				<text transform="matrix(1 0 0 1 269.1813 200.81)" class="st9 st0 st3">C</text>
			</g>
			<g id="ID000078">
				<text transform="matrix(1 0 0 1 258.0214 189.94)" class="st9 st0 st3">G</text>
			</g>
			<g id="ID000079">
				<text transform="matrix(1 0 0 1 258.0214 179.07)" class="st9 st0 st3">G</text>
			</g>
			<g id="ID000080">
				<text transform="matrix(1 0 0 1 258.3113 168.2)" class="st9 st0 st3">C</text>
			</g>
			<g id="ID000081">
				<line class="st6" x1="244.7" y1="163.3" x2="257.8" y2="163.3"/>
			</g>
			<g id="ID000082">
				<line class="st6" x1="244.7" y1="174.2" x2="257.8" y2="174.2"/>
			</g>
			<g id="ID000083">
				<line class="st6" x1="244.7" y1="185.1" x2="257.8" y2="185.1"/>
			</g>
			<g id="ID000085">
				<text transform="matrix(1 0 0 1 222.6913 217.11)" class="st9 st0 st3">G</text>
			</g>
			<g id="ID000086">
				<text transform="matrix(1 0 0 1 228.4214 227.98)" class="st9 st0 st3">C</text>
			</g>
			<g id="ID000087">
				<text transform="matrix(1 0 0 1 236.5814 236.13)" class="st9 st0 st3">U</text>
			</g>
			<g id="ID000088">
				<text transform="matrix(1 0 0 1 236.5814 247)" class="st9 st0 st3">C</text>
			</g>
			<g id="ID000089">
				<text transform="matrix(1 0 0 1 236.5814 257.87)" class="st9 st0 st3">C</text>
			</g>
			<g id="ID000090">
				<text transform="matrix(1 0 0 1 236.5814 268.74)" class="st9 st0 st3">U</text>
			</g>
			<g id="ID000091">
				<text transform="matrix(1 0 0 1 277.3414 271.46)" class="st9 st0 st3">C</text>
			</g>
			<g id="ID000092">
				<text transform="matrix(1 0 0 1 269.1813 260.59)" class="st9 st0 st3">C</text>
			</g>
			<g id="ID000093">
				<text transform="matrix(1 0 0 1 258.0214 257.87)" class="st9 st0 st3">G</text>
			</g>
			<g id="ID000094">
				<text transform="matrix(1 0 0 1 258.0214 247)" class="st9 st0 st3">G</text>
			</g>
			<g id="ID000095">
				<line class="st5" x1="269.4" y1="242.1" x2="276.6" y2="242.1"/>
			</g>
			<g id="ID000096">
				<text transform="matrix(1 0 0 1 276.6214 247)" class="st0 st3">80</text>
			</g>
			<g id="ID000097">
				<text transform="matrix(1 0 0 1 258.6114 236.13)" class="st9 st0 st3">A</text>
			</g>
			<g id="ID000098">
				<text transform="matrix(1 0 0 1 266.4714 225.26)" class="st9 st0 st3">U</text>
			</g>
			<g id="ID000099">
				<line class="st6" x1="244.7" y1="231.2" x2="257.8" y2="231.2"/>
			</g>
			<g id="ID000100">
				<line class="st6" x1="244.7" y1="242.1" x2="257.8" y2="242.1"/>
			</g>
			<g id="ID000101">
				<line class="st6" x1="244.7" y1="253" x2="257.8" y2="253"/>
			</g>
			<g id="ID000103">
				<text transform="matrix(1 0 0 1 236.5814 282.33)" class="st9 st0 st3">U</text>
			</g>
			<g id="ID000104">
				<text transform="matrix(1 0 0 1 236.5814 293.2)" class="st9 st0 st3">U</text>
			</g>
			<g id="ID000105">
				<text transform="matrix(1 0 0 1 236.5814 304.07)" class="st9 st0 st3">U</text>
			</g>
			<g id="ID000106">
				<line class="st5" x1="233.1" y1="299.2" x2="225.9" y2="299.2"/>
			</g>
			<g id="ID000107">
				<text transform="matrix(1 0 0 1 214.1414 304.07)" class="st0 st3">60</text>
			</g>
			<g id="ID000108">
				<text transform="matrix(1 0 0 1 236.5814 314.94)" class="st9 st0 st3">C</text>
			</g>
			<g id="ID000109">
				<text transform="matrix(1 0 0 1 236.8713 325.81)" class="st9 st0 st3">A</text>
			</g>
			<g id="ID000110">
				<text transform="matrix(1 0 0 1 236.5814 336.68)" class="st9 st0 st3">U</text>
			</g>
			<g id="ID000111">
				<text transform="matrix(1 0 0 1 236.2814 347.55)" class="st9 st0 st3">G</text>
			</g>
			<g id="ID000112">
				<text transform="matrix(1 0 0 1 228.4214 358.42)" class="st9 st0 st3">C</text>
			</g>
			<g id="ID000113">
				<text transform="matrix(1 0 0 1 239.5814 366.57)" class="st9 st0 st3">A</text>
			</g>
			<g id="ID000114">
				<text transform="matrix(1 0 0 1 252.8813 366.57)" class="st9 st0 st3">U</text>
			</g>
			<g id="ID000115">
				<text transform="matrix(1 0 0 1 263.4614 358.42)" class="st9 st0 st3">G</text>
			</g>
			<g id="ID000116">
				<text transform="matrix(1 0 0 1 258.3113 347.55)" class="st9 st0 st3">C</text>
			</g>
			<g id="ID000117">
				<text transform="matrix(1 0 0 1 258.6114 336.68)" class="st9 st0 st3">A</text>
			</g>
			<g id="ID000118">
				<line class="st5" x1="269.4" y1="331.8" x2="276.6" y2="331.8"/>
			</g>
			<g id="ID000119">
				<text transform="matrix(1 0 0 1 276.6214 336.68)" class="st0 st3">70</text>
			</g>
			<g id="ID000120">
				<text transform="matrix(1 0 0 1 258.3113 325.81)" class="st9 st0 st3">U</text>
			</g>
			<g id="ID000121">
				<text transform="matrix(1 0 0 1 258.0214 314.94)" class="st9 st0 st3">G</text>
			</g>
			<g id="ID000122">
				<text transform="matrix(1 0 0 1 258.6114 304.07)" class="st9 st0 st3">A</text>
			</g>
			<g id="ID000123">
				<text transform="matrix(1 0 0 1 258.0214 293.2)" class="st9 st0 st3">G</text>
			</g>
			<g id="ID000124">
				<text transform="matrix(1 0 0 1 258.0214 282.33)" class="st9 st0 st3">G</text>
			</g>
			<g id="ID000125">
				<text transform="matrix(1 0 0 1 269.1813 279.61)" class="st9 st0 st3">C</text>
			</g>
			<g id="ID000126">
				<polygon class="st8" points="253.4,277.4 253.4,277.3 253.4,277.2 253.4,277 253.4,276.9 253.3,276.8 253.3,276.6 253.2,276.5 
					253.2,276.4 253.1,276.3 253,276.1 252.9,276 252.8,275.9 252.7,275.8 252.6,275.8 252.5,275.7 252.4,275.6 252.3,275.5 
					252.2,275.5 252,275.4 251.9,275.4 251.8,275.3 251.6,275.3 251.5,275.3 251.4,275.3 251.2,275.3 251.1,275.3 251,275.3 
					250.8,275.3 250.7,275.3 250.6,275.4 250.4,275.4 250.3,275.5 250.2,275.6 250.1,275.6 249.9,275.7 249.8,275.8 249.7,275.9 
					249.6,276 249.6,276.1 249.5,276.2 249.4,276.3 249.3,276.4 249.3,276.6 249.2,276.7 249.2,276.8 249.1,277 249.1,277.1 
					249.1,277.2 249.1,277.4 249.1,277.5 249.1,277.6 249.1,277.8 249.1,277.9 249.2,278 249.2,278.2 249.3,278.3 249.3,278.4 
					249.4,278.6 249.5,278.7 249.6,278.8 249.6,278.9 249.7,279 249.8,279.1 249.9,279.2 250.1,279.3 250.2,279.3 250.3,279.4 
					250.4,279.4 250.6,279.5 250.7,279.5 250.8,279.6 251,279.6 251.1,279.6 251.2,279.6 251.4,279.6 251.5,279.6 251.6,279.6 
					251.8,279.5 251.9,279.5 252,279.5 252.2,279.4 252.3,279.4 252.4,279.3 252.5,279.2 252.6,279.1 252.7,279 252.8,278.9 
					252.9,278.8 253,278.7 253.1,278.6 253.2,278.5 253.2,278.4 253.3,278.3 253.3,278.1 253.4,278 253.4,277.9 253.4,277.7 
					253.4,277.6 				"/>
			</g>
			<g id="ID000127">
				<polygon class="st8" points="253.4,288.3 253.4,288.2 253.4,288 253.4,287.9 253.4,287.8 253.3,287.6 253.3,287.5 253.2,287.4 
					253.2,287.3 253.1,287.1 253,287 252.9,286.9 252.8,286.8 252.7,286.7 252.6,286.6 252.5,286.5 252.4,286.5 252.3,286.4 
					252.2,286.3 252,286.3 251.9,286.2 251.8,286.2 251.6,286.2 251.5,286.1 251.4,286.1 251.2,286.1 251.1,286.1 251,286.2 
					250.8,286.2 250.7,286.2 250.6,286.3 250.4,286.3 250.3,286.4 250.2,286.4 250.1,286.5 249.9,286.6 249.8,286.7 249.7,286.8 
					249.6,286.9 249.6,287 249.5,287.1 249.4,287.2 249.3,287.3 249.3,287.4 249.2,287.6 249.2,287.7 249.1,287.8 249.1,288 
					249.1,288.1 249.1,288.2 249.1,288.4 249.1,288.5 249.1,288.6 249.1,288.8 249.2,288.9 249.2,289 249.3,289.2 249.3,289.3 
					249.4,289.4 249.5,289.5 249.6,289.6 249.6,289.8 249.7,289.9 249.8,290 249.9,290 250.1,290.1 250.2,290.2 250.3,290.3 
					250.4,290.3 250.6,290.4 250.7,290.4 250.8,290.4 251,290.5 251.1,290.5 251.2,290.5 251.4,290.5 251.5,290.5 251.6,290.5 
					251.8,290.4 251.9,290.4 252,290.3 252.2,290.3 252.3,290.2 252.4,290.2 252.5,290.1 252.6,290 252.7,289.9 252.8,289.8 
					252.9,289.7 253,289.6 253.1,289.5 253.2,289.4 253.2,289.2 253.3,289.1 253.3,289 253.4,288.9 253.4,288.7 253.4,288.6 
					253.4,288.5 				"/>
			</g>
			<g id="ID000128">
				<line class="st6" x1="244.7" y1="299.2" x2="257.8" y2="299.2"/>
			</g>
			<g id="ID000129">
				<line class="st6" x1="244.7" y1="310" x2="257.8" y2="310"/>
			</g>
			<g id="ID000130">
				<line class="st6" x1="244.7" y1="320.9" x2="257.8" y2="320.9"/>
			</g>
			<g id="ID000131">
				<line class="st6" x1="244.7" y1="331.8" x2="257.8" y2="331.8"/>
			</g>
			<g id="ID000132">
				<line class="st6" x1="244.7" y1="342.7" x2="257.8" y2="342.7"/>
			</g>
		</g>
	</g>
	<text transform="matrix(1 0 0 1 99.6214 168.2)" class="st0 st10">5</text>
	<text transform="matrix(1 0 0 1 106.8514 168.2)" class="st0 st10">’</text>
	<text transform="matrix(1 0 0 1 269.3813 168.2)" class="st0 st10">3</text>
	<text transform="matrix(1 0 0 1 276.6114 168.2)" class="st0 st10">’</text>
</g>
</svg>
