<?xml version="1.0" encoding="utf-8"?>
<!-- Generator: Adobe Illustrator 25.2.0, SVG Export Plug-In . SVG Version: 6.00 Build 0)  -->
<svg version="1.1" id="_图层_1" xmlns="http://www.w3.org/2000/svg" xmlns:xlink="http://www.w3.org/1999/xlink" x="0px" y="0px"
	 viewBox="0 0 400 400" style="enable-background:new 0 0 400 400;" xml:space="preserve">
<style type="text/css">
	.st0{fill:#B83233;}
	.st1{font-family:'ArialMT';}
	.st2{font-size:14.51px;}
	.st3{fill:#C2B617;}
	.st4{fill:none;stroke:#000000;stroke-miterlimit:1.11;}
	.st5{stroke:#000000;stroke-width:0.14;stroke-miterlimit:1.11;}
	.st6{fill:#2EA103;}
	.st7{fill:#CF3E7D;}
	.st8{fill:#084595;}
	.st9{fill:#999999;}
	.st10{font-size:16px;}
	.st11{font-size:20px;}
</style>
<g id="ID000002">
	<text transform="matrix(1 0 0 1 80.44 318.79)" class="st0 st1 st2">G</text>
</g>
<g id="ID000003">
	<text transform="matrix(1 0 0 1 65.67 318.79)" class="st0 st1 st2">G</text>
</g>
<g id="ID000004">
	<text transform="matrix(1 0 0 1 50.91 326.17)" class="st0 st1 st2">G</text>
</g>
<g id="ID000005">
	<g>
		<text transform="matrix(1 0 0 1 33.26 315.1)" class="st0 st1 st2">A</text>
	</g>
</g>
<g id="ID000006">
	<g>
		<text transform="matrix(1 0 0 1 33.26 296.65)" class="st0 st1 st2">A</text>
	</g>
</g>
<g id="ID000007">
	<g>
		<text transform="matrix(1 0 0 1 51.71 285.58)" class="st0 st1 st2">A</text>
	</g>
</g>
<g id="ID000008">
	<g>
		<text transform="matrix(1 0 0 1 66.08 289.27)" class="st0 st1 st2">C</text>
	</g>
</g>
<g id="ID000009">
	<g>
		<text transform="matrix(1 0 0 1 80.84 289.27)" class="st0 st1 st2">U</text>
	</g>
</g>
<g id="ID000010">
	<text transform="matrix(1 0 0 1 91.51 274.5)" class="st3 st1 st2">G</text>
</g>
<g id="ID000011">
	<text transform="matrix(1 0 0 1 76.74 259.74)" class="st3 st1 st2">G</text>
</g>
<g id="ID000012">
	<line class="st4" x1="72.6" y1="253.1" x2="62.7" y2="253.1"/>
</g>
<g id="ID000013">
	<text transform="matrix(1 0 0 1 46.57 259.74)" class="st1 st2">10</text>
</g>
<g id="ID000014">
	<text transform="matrix(1 0 0 1 66.48 241.29)" class="st3 st1 st2">A</text>
</g>
<g id="ID000015">
	<text transform="matrix(1 0 0 1 55 230.22)" class="st3 st1 st2">U</text>
</g>
<g id="ID000016">
	<text transform="matrix(1 0 0 1 36.15 219.15)" class="st3 st1 st2">G</text>
</g>
<g id="ID000017">
	<text transform="matrix(1 0 0 1 25.08 200.69)" class="st3 st1 st2">G</text>
</g>
<g id="ID000018">
	<text transform="matrix(1 0 0 1 18.5 182.24)" class="st3 st1 st2">A</text>
</g>
<g id="ID000019">
	<polygon class="st5" points="86.1,294.4 85.9,294.4 85.7,294.5 85.5,294.5 85.3,294.5 85.2,294.6 85,294.6 84.8,294.7 84.6,294.8 
		84.5,294.9 84.3,295 84.2,295.1 84,295.2 83.9,295.4 83.8,295.5 83.7,295.7 83.6,295.8 83.5,296 83.4,296.2 83.3,296.3 83.3,296.5 
		83.2,296.7 83.2,296.9 83.1,297.1 83.1,297.2 83.1,297.4 83.1,297.6 83.2,297.8 83.2,298 83.2,298.2 83.3,298.4 83.3,298.5 
		83.4,298.7 83.5,298.9 83.6,299 83.7,299.2 83.8,299.3 84,299.5 84.1,299.6 84.2,299.7 84.4,299.8 84.6,299.9 84.7,300 84.9,300.1 
		85.1,300.2 85.2,300.2 85.4,300.3 85.6,300.3 85.8,300.3 86,300.3 86.2,300.3 86.4,300.3 86.5,300.3 86.7,300.3 86.9,300.2 
		87.1,300.2 87.3,300.1 87.4,300 87.6,299.9 87.8,299.8 87.9,299.7 88.1,299.6 88.2,299.5 88.3,299.3 88.4,299.2 88.5,299 
		88.6,298.9 88.7,298.7 88.8,298.5 88.9,298.4 88.9,298.2 89,298 89,297.8 89,297.6 89,297.4 89,297.2 89,297.1 89,296.9 
		88.9,296.7 88.9,296.5 88.8,296.3 88.8,296.2 88.7,296 88.6,295.8 88.5,295.7 88.4,295.5 88.2,295.4 88.1,295.2 88,295.1 87.8,295 
		87.7,294.9 87.5,294.8 87.3,294.7 87.2,294.6 87,294.6 86.8,294.5 86.6,294.5 86.4,294.5 86.3,294.4 	"/>
</g>
<g id="ID000020">
	<line class="st4" x1="71.3" y1="306.2" x2="71.3" y2="288.5"/>
</g>
<g id="ID000022">
	<text transform="matrix(1 0 0 1 36.95 174.86)" class="st3 st1 st2">A</text>
</g>
<g id="ID000023">
	<text transform="matrix(1 0 0 1 51.31 185.93)" class="st3 st1 st2">U</text>
</g>
<g id="ID000024">
	<text transform="matrix(1 0 0 1 65.67 200.69)" class="st3 st1 st2">G</text>
</g>
<g id="ID000025">
	<text transform="matrix(1 0 0 1 80.44 211.77)" class="st3 st1 st2">G</text>
</g>
<g id="ID000026">
	<text transform="matrix(1 0 0 1 98.89 211.77)" class="st3 st1 st2">G</text>
</g>
<g id="ID000027">
	<line class="st4" x1="111.5" y1="212.1" x2="118.4" y2="219"/>
</g>
<g id="ID000028">
	<text transform="matrix(1 0 0 1 118.45 236.46)" class="st1 st2">20</text>
</g>
<g id="ID000029">
	<text transform="matrix(1 0 0 1 110.36 200.69)" class="st6 st1 st2">C</text>
</g>
<g id="ID000030">
	<text transform="matrix(1 0 0 1 110.36 185.93)" class="st6 st1 st2">U</text>
</g>
<g id="ID000031">
	<text transform="matrix(1 0 0 1 110.36 171.17)" class="st6 st1 st2">C</text>
</g>
<g id="ID000032">
	<text transform="matrix(1 0 0 1 109.96 156.41)" class="st6 st1 st2">G</text>
</g>
<g id="ID000033">
	<text transform="matrix(1 0 0 1 110.76 141.65)" class="st6 st1 st2">A</text>
</g>
<g id="ID000034">
	<text transform="matrix(1 0 0 1 110.36 126.88)" class="st6 st1 st2">U</text>
</g>
<g id="ID000035">
	<text transform="matrix(1 0 0 1 102.58 108.43)" class="st6 st1 st2">G</text>
</g>
<g id="ID000036">
	<text transform="matrix(1 0 0 1 114.45 89.98)" class="st6 st1 st2">A</text>
</g>
<g id="ID000037">
	<text transform="matrix(1 0 0 1 132.91 89.98)" class="st6 st1 st2">A</text>
</g>
<g id="ID000038">
	<text transform="matrix(1 0 0 1 143.98 108.43)" class="st6 st1 st2">A</text>
</g>
<g id="ID000039">
	<line class="st4" x1="148.8" y1="91.9" x2="148.8" y2="82.1"/>
</g>
<g id="ID000040">
	<text transform="matrix(1 0 0 1 140.75 78.42)" class="st1 st2">30</text>
</g>
<g id="ID000041">
	<text transform="matrix(1 0 0 1 140.29 126.88)" class="st6 st1 st2">A</text>
</g>
<g id="ID000042">
	<text transform="matrix(1 0 0 1 139.89 141.65)" class="st6 st1 st2">U</text>
</g>
<g id="ID000043">
	<text transform="matrix(1 0 0 1 139.89 156.41)" class="st6 st1 st2">C</text>
</g>
<g id="ID000044">
	<text transform="matrix(1 0 0 1 139.48 171.17)" class="st6 st1 st2">G</text>
</g>
<g id="ID000045">
	<text transform="matrix(1 0 0 1 140.29 185.93)" class="st6 st1 st2">A</text>
</g>
<g id="ID000046">
	<text transform="matrix(1 0 0 1 158.34 193.31)" class="st6 st1 st2">C</text>
</g>
<g id="ID000047">
	<line class="st4" x1="121.5" y1="179.3" x2="139.2" y2="179.3"/>
</g>
<g id="ID000048">
	<line class="st4" x1="121.5" y1="164.5" x2="139.2" y2="164.5"/>
</g>
<g id="ID000049">
	<line class="st4" x1="121.5" y1="149.8" x2="139.2" y2="149.8"/>
</g>
<g id="ID000050">
	<line class="st4" x1="121.5" y1="135" x2="139.2" y2="135"/>
</g>
<g id="ID000051">
	<line class="st4" x1="121.5" y1="120.2" x2="139.2" y2="120.2"/>
</g>
<g id="ID000053">
	<text transform="matrix(1 0 0 1 176.79 193.31)" class="st7 st1 st2">C</text>
</g>
<g id="ID000054">
	<text transform="matrix(1 0 0 1 176.39 178.55)" class="st7 st1 st2">G</text>
</g>
<g id="ID000055">
	<text transform="matrix(1 0 0 1 176.79 163.79)" class="st7 st1 st2">U</text>
</g>
<g id="ID000056">
	<text transform="matrix(1 0 0 1 176.39 149.03)" class="st7 st1 st2">G</text>
</g>
<g id="ID000057">
	<text transform="matrix(1 0 0 1 176.79 134.27)" class="st7 st1 st2">C</text>
</g>
<g id="ID000058">
	<text transform="matrix(1 0 0 1 176.39 119.5)" class="st7 st1 st2">G</text>
</g>
<g id="ID000059">
	<text transform="matrix(1 0 0 1 176.79 104.74)" class="st7 st1 st2">C</text>
</g>
<g id="ID000060">
	<text transform="matrix(1 0 0 1 176.79 89.98)" class="st7 st1 st2">U</text>
</g>
<g id="ID000061">
	<text transform="matrix(1 0 0 1 169.01 75.22)" class="st7 st1 st2">G</text>
</g>
<g id="ID000062">
	<text transform="matrix(1 0 0 1 184.57 60.45)" class="st7 st1 st2">A</text>
</g>
<g id="ID000063">
	<text transform="matrix(1 0 0 1 199.34 60.45)" class="st7 st1 st2">A</text>
</g>
<g id="ID000064">
	<text transform="matrix(1 0 0 1 210.41 75.22)" class="st7 st1 st2">A</text>
</g>
<g id="ID000065">
	<text transform="matrix(1 0 0 1 206.72 89.98)" class="st7 st1 st2">A</text>
</g>
<g id="ID000066">
	<text transform="matrix(1 0 0 1 205.91 104.74)" class="st7 st1 st2">G</text>
</g>
<g id="ID000067">
	<line class="st4" x1="221.4" y1="98.1" x2="231.2" y2="98.1"/>
</g>
<g id="ID000068">
	<text transform="matrix(1 0 0 1 231.24 104.74)" class="st1 st2">50</text>
</g>
<g id="ID000069">
	<text transform="matrix(1 0 0 1 206.32 119.5)" class="st7 st1 st2">C</text>
</g>
<g id="ID000070">
	<text transform="matrix(1 0 0 1 206.72 134.27)" class="st7 st1 st2">A</text>
</g>
<g id="ID000071">
	<text transform="matrix(1 0 0 1 206.32 149.03)" class="st7 st1 st2">C</text>
</g>
<g id="ID000072">
	<text transform="matrix(1 0 0 1 205.91 163.79)" class="st7 st1 st2">G</text>
</g>
<g id="ID000073">
	<text transform="matrix(1 0 0 1 206.32 178.55)" class="st7 st1 st2">C</text>
</g>
<g id="ID000074">
	<text transform="matrix(1 0 0 1 205.91 193.31)" class="st7 st1 st2">G</text>
</g>
<g id="ID000075">
	<text transform="matrix(1 0 0 1 214.1 208.08)" class="st7 st1 st2">A</text>
</g>
<g id="ID000076">
	<line class="st4" x1="187.9" y1="186.7" x2="205.6" y2="186.7"/>
</g>
<g id="ID000077">
	<line class="st4" x1="187.9" y1="171.9" x2="205.6" y2="171.9"/>
</g>
<g id="ID000078">
	<polygon class="st5" points="199.8,157.1 199.7,157 199.7,156.8 199.7,156.6 199.6,156.4 199.6,156.2 199.5,156 199.5,155.9 
		199.4,155.7 199.3,155.5 199.2,155.4 199.1,155.2 198.9,155.1 198.8,155 198.7,154.8 198.5,154.7 198.4,154.6 198.2,154.5 
		198,154.5 197.9,154.4 197.7,154.3 197.5,154.3 197.3,154.2 197.1,154.2 196.9,154.2 196.8,154.2 196.6,154.2 196.4,154.2 
		196.2,154.3 196,154.3 195.8,154.4 195.6,154.4 195.5,154.5 195.3,154.6 195.2,154.7 195,154.8 194.9,154.9 194.7,155 194.6,155.2 
		194.5,155.3 194.4,155.5 194.3,155.6 194.2,155.8 194.1,156 194,156.1 194,156.3 193.9,156.5 193.9,156.7 193.9,156.9 193.8,157 
		193.8,157.2 193.9,157.4 193.9,157.6 193.9,157.8 194,158 194,158.2 194.1,158.3 194.2,158.5 194.3,158.7 194.4,158.8 194.5,159 
		194.6,159.1 194.7,159.2 194.9,159.4 195,159.5 195.2,159.6 195.3,159.7 195.5,159.8 195.6,159.9 195.8,159.9 196,160 196.2,160 
		196.4,160.1 196.6,160.1 196.8,160.1 196.9,160.1 197.1,160.1 197.3,160 197.5,160 197.7,160 197.9,159.9 198,159.8 198.2,159.7 
		198.4,159.6 198.5,159.5 198.7,159.4 198.8,159.3 198.9,159.2 199.1,159 199.2,158.9 199.3,158.7 199.4,158.6 199.5,158.4 
		199.5,158.2 199.6,158.1 199.6,157.9 199.7,157.7 199.7,157.5 199.7,157.3 	"/>
</g>
<g id="ID000079">
	<line class="st4" x1="187.9" y1="142.4" x2="205.6" y2="142.4"/>
</g>
<g id="ID000080">
	<line class="st4" x1="187.9" y1="127.6" x2="205.6" y2="127.6"/>
</g>
<g id="ID000081">
	<line class="st4" x1="187.9" y1="112.9" x2="205.6" y2="112.9"/>
</g>
<g id="ID000082">
	<line class="st4" x1="187.9" y1="98.1" x2="205.6" y2="98.1"/>
</g>
<g id="ID000083">
	<line class="st4" x1="187.9" y1="83.3" x2="205.6" y2="83.3"/>
</g>
<g id="ID000085">
	<text transform="matrix(1 0 0 1 231.75 215.46)" class="st8 st1 st2">G</text>
</g>
<g id="ID000086">
	<text transform="matrix(1 0 0 1 246.51 215.46)" class="st8 st1 st2">G</text>
</g>
<g id="ID000087">
	<text transform="matrix(1 0 0 1 261.67 215.46)" class="st8 st1 st2">U</text>
</g>
<g id="ID000088">
	<line class="st4" x1="266.9" y1="199" x2="266.9" y2="189.1"/>
</g>
<g id="ID000089">
	<text transform="matrix(1 0 0 1 258.84 185.44)" class="st1 st2">60</text>
</g>
<g id="ID000090">
	<text transform="matrix(1 0 0 1 275.1 205.74)" class="st8 st1 st2">C</text>
</g>
<g id="ID000091">
	<text transform="matrix(1 0 0 1 283.82 250.64)" class="st8 st1 st2">U</text>
</g>
<g id="ID000092">
	<text transform="matrix(1 0 0 1 261.27 244.98)" class="st8 st1 st2">G</text>
</g>
<g id="ID000093">
	<text transform="matrix(1 0 0 1 246.91 244.98)" class="st8 st1 st2">C</text>
</g>
<g id="ID000094">
	<text transform="matrix(1 0 0 1 232.15 244.98)" class="st8 st1 st2">C</text>
</g>
<g id="ID000095">
	<text transform="matrix(1 0 0 1 217.79 252.36)" class="st9 st1 st2">A</text>
</g>
<g id="ID000096">
	<line class="st4" x1="237.4" y1="214.7" x2="237.4" y2="232.4"/>
</g>
<g id="ID000097">
	<line class="st4" x1="252.1" y1="214.7" x2="252.1" y2="232.4"/>
</g>
<g id="ID000098">
	<polygon class="st5" points="266.9,226.5 267.1,226.5 267.3,226.5 267.5,226.5 267.6,226.4 267.8,226.4 268,226.3 268.2,226.2 
		268.4,226.2 268.5,226.1 268.7,225.9 268.8,225.8 269,225.7 269.1,225.6 269.2,225.4 269.3,225.3 269.4,225.1 269.5,225 
		269.6,224.8 269.7,224.6 269.7,224.4 269.8,224.3 269.8,224.1 269.9,223.9 269.9,223.7 269.9,223.5 269.9,223.3 269.8,223.2 
		269.8,223 269.8,222.8 269.7,222.6 269.6,222.4 269.6,222.3 269.5,222.1 269.4,221.9 269.3,221.8 269.1,221.6 269,221.5 
		268.9,221.4 268.7,221.2 268.6,221.1 268.4,221 268.3,220.9 268.1,220.9 267.9,220.8 267.8,220.7 267.6,220.7 267.4,220.7 
		267.2,220.6 267,220.6 266.8,220.6 266.6,220.6 266.5,220.7 266.3,220.7 266.1,220.7 265.9,220.8 265.7,220.9 265.6,220.9 
		265.4,221 265.2,221.1 265.1,221.2 264.9,221.4 264.8,221.5 264.7,221.6 264.6,221.8 264.5,221.9 264.4,222.1 264.3,222.3 
		264.2,222.4 264.1,222.6 264.1,222.8 264,223 264,223.2 264,223.3 264,223.5 264,223.7 264,223.9 264,224.1 264,224.3 264.1,224.4 
		264.2,224.6 264.2,224.8 264.3,225 264.4,225.1 264.5,225.3 264.6,225.4 264.7,225.6 264.9,225.7 265,225.8 265.2,225.9 
		265.3,226.1 265.5,226.2 265.6,226.2 265.8,226.3 266,226.4 266.2,226.4 266.4,226.5 266.5,226.5 266.7,226.5 	"/>
</g>
<g id="ID000102">
	<text transform="matrix(1 0 0 1 293.12 205.91)" class="st8 st1 st2">C</text>
</g>
<g id="ID000103">
	<text transform="matrix(1 0 0 1 305.96 215.46)" class="st8 st1 st2">U</text>
</g>
<g id="ID000104">
	<text transform="matrix(1 0 0 1 320.32 215.46)" class="st8 st1 st2">G</text>
</g>
<g id="ID000105">
	<text transform="matrix(1 0 0 1 335.49 215.46)" class="st8 st1 st2">C</text>
</g>
<g id="ID000106">
	<text transform="matrix(1 0 0 1 350.25 215.46)" class="st8 st1 st2">U</text>
</g>
<g id="ID000107">
	<text transform="matrix(1 0 0 1 364.6 215.46)" class="st8 st1 st2">G</text>
</g>
<g id="ID000108">
	<text transform="matrix(1 0 0 1 379.77 230.22)" class="st8 st1 st2">U</text>
</g>
<g id="ID000109">
	<text transform="matrix(1 0 0 1 365.41 244.98)" class="st8 st1 st2">A</text>
</g>
<g id="ID000110">
	<text transform="matrix(1 0 0 1 350.65 244.98)" class="st8 st1 st2">A</text>
</g>
<g id="ID000111">
	<line class="st4" x1="355.5" y1="248.2" x2="355.5" y2="258"/>
</g>
<g id="ID000112">
	<text transform="matrix(1 0 0 1 347.42 275.44)" class="st1 st2">70</text>
</g>
<g id="ID000113">
	<text transform="matrix(1 0 0 1 335.08 244.98)" class="st8 st1 st2">G</text>
</g>
<g id="ID000114">
	<text transform="matrix(1 0 0 1 320.72 244.98)" class="st8 st1 st2">U</text>
</g>
<g id="ID000115">
	<text transform="matrix(1 0 0 1 305.56 244.98)" class="st8 st1 st2">G</text>
</g>
<g id="ID000116">
	<polygon class="st5" points="311.2,226.5 311.4,226.5 311.6,226.5 311.8,226.5 311.9,226.4 312.1,226.4 312.3,226.3 312.5,226.2 
		312.6,226.2 312.8,226.1 313,225.9 313.1,225.8 313.2,225.7 313.4,225.6 313.5,225.4 313.6,225.3 313.7,225.1 313.8,225 
		313.9,224.8 314,224.6 314,224.4 314.1,224.3 314.1,224.1 314.1,223.9 314.1,223.7 314.1,223.5 314.1,223.3 314.1,223.2 314.1,223 
		314,222.8 314,222.6 313.9,222.4 313.9,222.3 313.8,222.1 313.7,221.9 313.5,221.8 313.4,221.6 313.3,221.5 313.2,221.4 313,221.2 
		312.9,221.1 312.7,221 312.5,220.9 312.4,220.9 312.2,220.8 312,220.7 311.9,220.7 311.7,220.7 311.5,220.6 311.3,220.6 
		311.1,220.6 310.9,220.6 310.7,220.7 310.5,220.7 310.4,220.7 310.2,220.8 310,220.9 309.9,220.9 309.7,221 309.5,221.1 
		309.4,221.2 309.2,221.4 309.1,221.5 309,221.6 308.9,221.8 308.7,221.9 308.6,222.1 308.5,222.3 308.5,222.4 308.4,222.6 
		308.4,222.8 308.3,223 308.3,223.2 308.3,223.3 308.2,223.5 308.2,223.7 308.3,223.9 308.3,224.1 308.3,224.3 308.4,224.4 
		308.4,224.6 308.5,224.8 308.6,225 308.7,225.1 308.8,225.3 308.9,225.4 309,225.6 309.2,225.7 309.3,225.8 309.5,225.9 
		309.6,226.1 309.8,226.2 309.9,226.2 310.1,226.3 310.3,226.4 310.5,226.4 310.6,226.5 310.8,226.5 311,226.5 	"/>
</g>
<g id="ID000117">
	<polygon class="st5" points="326,226.5 326.1,226.5 326.3,226.5 326.5,226.5 326.7,226.4 326.9,226.4 327.1,226.3 327.2,226.2 
		327.4,226.2 327.6,226.1 327.7,225.9 327.9,225.8 328,225.7 328.1,225.6 328.2,225.4 328.4,225.3 328.5,225.1 328.6,225 
		328.6,224.8 328.7,224.6 328.8,224.4 328.8,224.3 328.9,224.1 328.9,223.9 328.9,223.7 328.9,223.5 328.9,223.3 328.9,223.2 
		328.9,223 328.8,222.8 328.8,222.6 328.7,222.4 328.6,222.3 328.5,222.1 328.4,221.9 328.3,221.8 328.2,221.6 328.1,221.5 
		327.9,221.4 327.8,221.2 327.6,221.1 327.5,221 327.3,220.9 327.1,220.9 327,220.8 326.8,220.7 326.6,220.7 326.4,220.7 
		326.2,220.6 326.1,220.6 325.9,220.6 325.7,220.6 325.5,220.7 325.3,220.7 325.1,220.7 325,220.8 324.8,220.9 324.6,220.9 
		324.5,221 324.3,221.1 324.1,221.2 324,221.4 323.9,221.5 323.7,221.6 323.6,221.8 323.5,221.9 323.4,222.1 323.3,222.3 
		323.2,222.4 323.2,222.6 323.1,222.8 323.1,223 323,223.2 323,223.3 323,223.5 323,223.7 323,223.9 323,224.1 323.1,224.3 
		323.1,224.4 323.2,224.6 323.3,224.8 323.4,225 323.5,225.1 323.6,225.3 323.7,225.4 323.8,225.6 323.9,225.7 324.1,225.8 
		324.2,225.9 324.4,226.1 324.5,226.2 324.7,226.2 324.9,226.3 325,226.4 325.2,226.4 325.4,226.5 325.6,226.5 325.8,226.5 	"/>
</g>
<g id="ID000118">
	<line class="st4" x1="340.7" y1="214.7" x2="340.7" y2="232.4"/>
</g>
<g id="ID000119">
	<line class="st4" x1="355.5" y1="214.7" x2="355.5" y2="232.4"/>
</g>
<text transform="matrix(1 0 0 1 90.14 337.22)" class="st1 st10">5</text>
<text transform="matrix(1 0 0 1 99.04 337.22)" class="st1 st10">’</text>
<text transform="matrix(1 0 0 1 214.07 275.61)" class="st1 st10">3</text>
<text transform="matrix(1 0 0 1 222.97 275.61)" class="st1 st10">’</text>
<text transform="matrix(1 0 0 1 144.8361 31.6453)" class="st1 st11">B-2 aptamer</text>
</svg>
