<?xml version="1.0" encoding="utf-8"?>
<!-- Generator: Adobe Illustrator 25.2.0, SVG Export Plug-In . SVG Version: 6.00 Build 0)  -->
<svg version="1.1" id="图层_1" xmlns="http://www.w3.org/2000/svg" xmlns:xlink="http://www.w3.org/1999/xlink" x="0px" y="0px"
	 viewBox="0 0 800 400" style="enable-background:new 0 0 800 400;" xml:space="preserve">
<style type="text/css">
	.st0{font-family:'ArialMT';}
	.st1{font-size:20px;}
	.st2{fill:#2EA103;}
	.st3{font-size:20.78px;}
	.st4{fill:#B83233;}
	.st5{fill:#FF870A;}
	.st6{fill:#084595;}
	.st7{font-size:19.9888px;}
	.st8{fill:none;stroke:#000000;stroke-miterlimit:3.05;}
	.st9{fill:none;stroke:#000000;stroke-width:0.25;stroke-miterlimit:3.05;}
	.st10{stroke:#000000;stroke-miterlimit:3.05;}
</style>
<text transform="matrix(1 0 0 1 320.3877 33.4083)" class="st0 st1">class II-1 aptamer</text>
<g id="ID000012_00000137117127880301586080000003242208866761419910_">
	<text transform="matrix(0.9999 1.570698e-02 -1.570698e-02 0.9999 130.9955 86.2479)" class="st2 st0 st3">A</text>
</g>
<g id="ID000012_00000052800987457583873640000015051008823717665466_">
	<text transform="matrix(0.9999 1.570698e-02 -1.570698e-02 0.9999 509.4661 153.4438)" class="st4 st0 st3">A</text>
</g>
<g id="ID000012_00000135674319178248923230000011007626322400028056_">
	<g>
		<text transform="matrix(0.9999 1.570698e-02 -1.570698e-02 0.9999 584.6946 134.8957)" class="st2 st0 st3">A</text>
	</g>
</g>
<g id="ID000012_00000180358388346558012050000011580048546187022779_">
	<g>
		<text transform="matrix(0.9999 1.570698e-02 -1.570698e-02 0.9999 668.6824 201.6059)" class="st2 st0 st3">A</text>
	</g>
</g>
<g id="ID000012_00000176018681289456321210000013504339159570007728_">
	<g>
		<text transform="matrix(0.9999 1.570698e-02 -1.570698e-02 0.9999 668.6821 131.6994)" class="st2 st0 st3">A</text>
	</g>
</g>
<g id="ID000012_00000051364927317426556150000018277135338315049915_">
	<g>
		<text transform="matrix(0.9999 1.570698e-02 -1.570698e-02 0.9999 711.3718 142.3898)" class="st2 st0 st3">A</text>
	</g>
</g>
<g id="ID000012_00000118366801429329420920000002263225920473462423_">
	<g>
		<text transform="matrix(0.9999 1.570698e-02 -1.570698e-02 0.9999 553.6358 97.7193)" class="st2 st0 st3">A</text>
	</g>
</g>
<g id="ID000012_00000183248091961641036070000007943231880476681883_">
	<g>
		<text transform="matrix(0.9999 1.570698e-02 -1.570698e-02 0.9999 533.8711 93.9545)" class="st2 st0 st3">A</text>
	</g>
</g>
<g id="ID000012_00000136380413877205328230000007713554749011748532_">
	<text transform="matrix(0.9999 1.570698e-02 -1.570698e-02 0.9999 416.3147 153.4436)" class="st4 st0 st3">A</text>
</g>
<g id="ID000012_00000104702420131679990220000007206354001651626389_">
	<text transform="matrix(0.9999 1.570698e-02 -1.570698e-02 0.9999 152.5915 86.2482)" class="st2 st0 st3">A</text>
</g>
<g id="ID000012_00000089554334047010967910000003244779316245020344_">
	<text transform="matrix(0.9999 1.570698e-02 -1.570698e-02 0.9999 278.5418 108.5415)" class="st2 st0 st3">A</text>
</g>
<g id="ID000012_00000176042149529313569050000003277506239383167884_">
	<text transform="matrix(0.9999 1.570698e-02 -1.570698e-02 0.9999 291.6709 228.3247)" class="st5 st0 st3">A</text>
</g>
<g id="ID000012_00000036951145234406370860000001171004608539729576_">
	<text transform="matrix(0.9999 1.570698e-02 -1.570698e-02 0.9999 221.8808 193.7954)" class="st2 st0 st3">A</text>
</g>
<g id="ID000012_00000061447645308699190930000012435311287110549640_">
	<text transform="matrix(0.9999 1.570698e-02 -1.570698e-02 0.9999 238.663 215.4246)" class="st2 st0 st3">A</text>
</g>
<g id="ID000012_00000037653424137305481610000010630444137899434629_">
	<g>
		<text transform="matrix(0.9999 1.570698e-02 -1.570698e-02 0.9999 241.5326 312.4424)" class="st2 st0 st3">A</text>
	</g>
</g>
<g id="ID000012_00000129919283634739673800000002227798511490388119_">
	<g>
		<text transform="matrix(0.9999 1.570698e-02 -1.570698e-02 0.9999 310.0031 312.4426)" class="st2 st0 st3">A</text>
	</g>
</g>
<g id="ID000012_00000107578153871611089410000014909541544827095741_">
	<text transform="matrix(0.9999 1.570698e-02 -1.570698e-02 0.9999 221.8805 239.5257)" class="st2 st0 st3">A</text>
</g>
<g id="ID000012_00000079471821260873873500000000726658022903440286_">
	<text transform="matrix(0.9999 1.570698e-02 -1.570698e-02 0.9999 186.5952 148.9522)" class="st6 st0 st3">A</text>
</g>
<g id="ID000012_00000057828036159769810340000017128759505667138236_">
	<text transform="matrix(0.9999 1.570698e-02 -1.570698e-02 0.9999 379.0093 153.443)" class="st4 st0 st3">A</text>
</g>
<g id="ID000012_00000105395121571334125910000004778229057341999026_">
	<text transform="matrix(0.9999 1.570698e-02 -1.570698e-02 0.9999 359.323 153.4439)" class="st4 st0 st3">A</text>
</g>
<g id="ID000012_00000093134958104049150050000006799506887750862489_">
	<text transform="matrix(0.9999 1.570698e-02 -1.570698e-02 0.9999 316.5097 139.0858)" class="st2 st0 st3">U</text>
</g>
<g id="ID000012_00000164479414478061805810000015899212884355125891_">
	<text transform="matrix(0.9999 1.570698e-02 -1.570698e-02 0.9999 202.1568 125.2655)" class="st6 st0 st3">U</text>
</g>
<g id="ID000012_00000182493909247175254790000006383242837873001365_">
	<g>
		<text transform="matrix(0.9999 1.570698e-02 -1.570698e-02 0.9999 167.5685 104.089)" class="st2 st0 st3">U</text>
	</g>
</g>
<g id="ID000012_00000122682124678217713890000001087326731523239590_">
	<text transform="matrix(0.9999 1.570698e-02 -1.570698e-02 0.9999 113.5792 104.0886)" class="st2 st0 st3">U</text>
</g>
<g id="ID000012_00000084530851471588638350000011552953488596522883_">
	<text transform="matrix(0.9999 1.570698e-02 -1.570698e-02 0.9999 141.2586 144.3234)" class="st2 st0 st3">U</text>
</g>
<g id="ID000012_00000145048700219822617630000006440679143267178677_">
	<text transform="matrix(0.9999 1.570698e-02 -1.570698e-02 0.9999 167.5683 139.0856)" class="st6 st0 st3">U</text>
</g>
<g id="ID000012_00000178922472172603966200000017197311325470707621_">
	<text transform="matrix(0.9999 1.570698e-02 -1.570698e-02 0.9999 202.1565 206.1444)" class="st2 st0 st3">U</text>
</g>
<g id="ID000012_00000031193918083088736570000003579246519791356824_">
	<text transform="matrix(0.9999 1.570698e-02 -1.570698e-02 0.9999 296.8065 125.266)" class="st2 st0 st3">U</text>
</g>
<g id="ID000012_00000146488805362387105430000015688025136423632060_">
	<text transform="matrix(0.9999 1.570698e-02 -1.570698e-02 0.9999 257.3754 228.3249)" class="st5 st0 st3">U</text>
</g>
<g id="ID000012_00000099644952111919559750000014487600756943333770_">
	<g>
		<text transform="matrix(0.9999 1.570698e-02 -1.570698e-02 0.9999 287.369 375.3654)" class="st2 st0 st3">U</text>
	</g>
</g>
<g id="ID000012_00000146458971542962810620000001501789230461844411_">
	<g>
		<text transform="matrix(0.9999 1.570698e-02 -1.570698e-02 0.9999 233.4032 334.6588)" class="st2 st0 st3">U</text>
	</g>
</g>
<g id="ID000012_00000181788990106384301540000000112907578555711873_">
	<g>
		<text transform="matrix(0.9999 1.570698e-02 -1.570698e-02 0.9999 317.0928 336.065)" class="st2 st0 st3">U</text>
	</g>
</g>
<g id="ID000012_00000029028779197013204280000018383762369457272215_">
	<text transform="matrix(0.9999 1.570698e-02 -1.570698e-02 0.9999 416.3145 180.9297)" class="st4 st0 st3">U</text>
</g>
<g id="ID000012_00000161631032309025640210000013873789955288420519_">
	<text transform="matrix(0.9999 1.570698e-02 -1.570698e-02 0.9999 396.6289 180.9305)" class="st4 st0 st3">U</text>
</g>
<g id="ID000012_00000023263408834628793590000001757288287706193570_">
	<text transform="matrix(0.9999 1.570698e-02 -1.570698e-02 0.9999 529.3812 181.618)" class="st4 st0 st3">U</text>
</g>
<g id="ID000012_00000096749497561937414860000007870905252230249365_">
	<g>
		<text transform="matrix(0.9999 1.570698e-02 -1.570698e-02 0.9999 651.9473 190.3671)" class="st2 st0 st3">U</text>
	</g>
</g>
<g id="ID000012_00000127021088809032588820000015068139848390487467_">
	<g>
		<text transform="matrix(0.9999 1.570698e-02 -1.570698e-02 0.9999 651.948 142.3899)" class="st2 st0 st3">U</text>
	</g>
</g>
<g id="ID000012_00000005260075793019977780000002718600891252814510_">
	<text transform="matrix(0.9999 1.570698e-02 -1.570698e-02 0.9999 509.4664 180.9309)" class="st4 st0 st3">U</text>
</g>
<g id="ID000012_00000080919761436038995980000009553815440474005170_">
	<text transform="matrix(0.9999 1.570698e-02 -1.570698e-02 0.9999 379.0097 180.9306)" class="st4 st0 st3">U</text>
</g>
<g id="ID000012_00000183249405065280398320000007246177860791656853_">
	<text transform="matrix(0.9999 1.570698e-02 -1.570698e-02 0.9999 359.3233 180.9304)" class="st4 st0 st3">U</text>
</g>
<g id="ID000012_00000135676985088584459350000016671875193987887551_">
	<text transform="matrix(0.9999 1.570698e-02 -1.570698e-02 0.9999 551.4251 153.444)" class="st4 st0 st3">G</text>
</g>
<g id="ID000012_00000167392746478899951190000012617734687624515485_">
	<g>
		<text transform="matrix(0.9999 1.570698e-02 -1.570698e-02 0.9999 575.293 118.9794)" class="st2 st0 st3">G</text>
	</g>
</g>
<g id="ID000012_00000082367494200331278530000014537433094329339801_">
	<text transform="matrix(0.9999 1.570698e-02 -1.570698e-02 0.9999 584.6943 180.9309)" class="st4 st0 st3">G</text>
</g>
<g id="ID000012_00000039814173023328764830000003604654890958410892_">
	<text transform="matrix(0.9999 1.570698e-02 -1.570698e-02 0.9999 607.7532 153.4427)" class="st4 st0 st3">G</text>
</g>
<g id="ID000012_00000042697149451187117950000010620959801653089187_">
	<text transform="matrix(0.9999 1.570698e-02 -1.570698e-02 0.9999 632.2239 180.9306)" class="st4 st0 st3">G</text>
</g>
<g id="ID000012_00000156568879845792396600000009027621755769069707_">
	<g>
		<text transform="matrix(0.9999 1.570698e-02 -1.570698e-02 0.9999 711.3711 190.3668)" class="st2 st0 st3">G</text>
	</g>
</g>
<g id="ID000012_00000111179454662305277030000007247702175336432524_">
	<g>
		<text transform="matrix(0.9999 1.570698e-02 -1.570698e-02 0.9999 567.8957 198.0765)" class="st4 st0 st3">G</text>
	</g>
</g>
<g id="ID000012_00000062911934304891129850000011202553211484842411_">
	<text transform="matrix(0.9999 1.570698e-02 -1.570698e-02 0.9999 476.6883 180.9305)" class="st4 st0 st3">G</text>
</g>
<g id="ID000012_00000019648153635788796810000002541587626889016481_">
	<text transform="matrix(0.9999 1.570698e-02 -1.570698e-02 0.9999 436.6514 153.4436)" class="st4 st0 st3">G</text>
</g>
<g id="ID000012_00000172436059134635901340000005564672132746209969_">
	<text transform="matrix(0.9999 1.570698e-02 -1.570698e-02 0.9999 396.6292 153.4436)" class="st4 st0 st3">G</text>
</g>
<g id="ID000012_00000016765849689237579670000012628798906812596615_">
	<text transform="matrix(0.9999 1.570698e-02 -1.570698e-02 0.9999 182.6937 114.77)" class="st6 st0 st3">G</text>
</g>
<g id="ID000012_00000063592230824810930670000014766104840841106050_">
	<text transform="matrix(0.9999 1.570698e-02 -1.570698e-02 0.9999 203.0259 160.9027)" class="st6 st0 st3">G</text>
</g>
<g id="ID000012_00000127753072761903412570000013412204497944544177_">
	<text transform="matrix(0.9999 1.570698e-02 -1.570698e-02 0.9999 202.1563 228.3247)" class="st2 st0 st3">G</text>
</g>
<g id="ID000012_00000038403187510542351620000014845559592266204348_">
	<g>
		<text transform="matrix(0.9999 1.570698e-02 -1.570698e-02 0.9999 241.5324 357.3412)" class="st2 st0 st3">G</text>
	</g>
</g>
<g id="ID000012_00000183215278305600283550000010646538177466634938_">
	<text transform="matrix(0.9999 1.570698e-02 -1.570698e-02 0.9999 221.8807 169.6917)" class="st6 st0 st3">G</text>
</g>
<g id="ID000012_00000028303901785621603610000010042659625768053934_">
	<text transform="matrix(0.9999 1.570698e-02 -1.570698e-02 0.9999 456.9962 180.9304)" class="st4 st0 st3">G</text>
</g>
<g id="ID000012_00000034050139662664577880000002306128301156684198_">
	<text transform="matrix(0.9999 1.570698e-02 -1.570698e-02 0.9999 335.729 153.4431)" class="st4 st0 st3">G</text>
</g>
<g id="ID000012_00000103957640327402295590000000354172591157874071_">
	<text transform="matrix(0.9999 1.570698e-02 -1.570698e-02 0.9999 291.6708 251.8355)" class="st5 st0 st3">G</text>
</g>
<g id="ID000012_00000102539304744919107120000011430235196269751226_">
	<text transform="matrix(0.9999 1.570698e-02 -1.570698e-02 0.9999 257.3751 274.6402)" class="st5 st0 st3">G</text>
</g>
<g id="ID000012_00000080198530309232305990000009142494878794365599_">
	<text transform="matrix(0.9999 1.570698e-02 -1.570698e-02 0.9999 529.1525 153.4439)" class="st4 st0 st3">G</text>
</g>
<g id="ID000012_00000168093715362461597600000003818074290051296384_">
	<text transform="matrix(0.9999 1.570698e-02 -1.570698e-02 0.9999 551.4246 180.9302)" class="st4 st0 st3">C</text>
</g>
<g id="ID000012_00000085212162228298535610000008714513775080758921_">
	<text transform="matrix(0.9999 1.570698e-02 -1.570698e-02 0.9999 584.6943 153.4441)" class="st4 st0 st3">C</text>
</g>
<g id="ID000012_00000101788706654631259800000011407920311418840736_">
	<text transform="matrix(0.9999 1.570698e-02 -1.570698e-02 0.9999 607.7532 180.9298)" class="st4 st0 st3">C</text>
</g>
<g id="ID000012_00000115485712102813929780000003331618125781259913_">
	<text transform="matrix(0.9999 1.570698e-02 -1.570698e-02 0.9999 632.2239 153.444)" class="st4 st0 st3">C</text>
</g>
<g id="ID000012_00000144309507296500445100000012726534044252831126_">
	<g>
		<text transform="matrix(0.9999 1.570698e-02 -1.570698e-02 0.9999 718.1628 169.6917)" class="st2 st0 st3">C</text>
	</g>
</g>
<g id="ID000012_00000018916460424750660470000009527095078820096687_">
	<g>
		<text transform="matrix(0.9999 1.570698e-02 -1.570698e-02 0.9999 689.165 131.6994)" class="st2 st0 st3">C</text>
	</g>
</g>
<g id="ID000012_00000167390873100727381130000000204616893727249329_">
	<g>
		<text transform="matrix(0.9999 1.570698e-02 -1.570698e-02 0.9999 689.1648 201.6058)" class="st2 st0 st3">C</text>
	</g>
</g>
<g id="ID000012_00000141425831493366151130000001870712652452711304_">
	<g>
		<text transform="matrix(0.9999 1.570698e-02 -1.570698e-02 0.9999 513.6355 93.9546)" class="st2 st0 st3">C</text>
	</g>
</g>
<g id="ID000012_00000158018882520317734470000014771958422581125034_">
	<text transform="matrix(0.9999 1.570698e-02 -1.570698e-02 0.9999 476.6883 153.4438)" class="st4 st0 st3">C</text>
</g>
<g id="ID000012_00000057842192987999151430000013229943347476631457_">
	<g>
		<text transform="matrix(0.9999 1.570698e-02 -1.570698e-02 0.9999 567.8953 104.0884)" class="st2 st0 st3">C</text>
	</g>
</g>
<g id="ID000012_00000134938498925120093440000006084181147943648919_">
	<text transform="matrix(0.9999 1.570698e-02 -1.570698e-02 0.9999 456.9962 153.4434)" class="st4 st0 st3">C</text>
</g>
<g id="ID000012_00000154392791151405584190000013557872722015568312_">
	<text transform="matrix(0.9999 1.570698e-02 -1.570698e-02 0.9999 436.6508 180.9307)" class="st4 st0 st3">C</text>
</g>
<g id="ID000012_00000043443981850761620570000018391394746729544083_">
	<text transform="matrix(0.9999 1.570698e-02 -1.570698e-02 0.9999 335.7287 180.93)" class="st4 st0 st3">C</text>
</g>
<g id="ID000012_00000047744630192086195470000011886719799064411268_">
	<text transform="matrix(0.9999 1.570698e-02 -1.570698e-02 0.9999 316.5095 206.1442)" class="st2 st0 st3">C</text>
</g>
<g id="ID000012_00000100346356562659446550000013401420570646140315_">
	<text transform="matrix(0.9999 1.570698e-02 -1.570698e-02 0.9999 257.3755 251.8359)" class="st5 st0 st3">C</text>
</g>
<g id="ID000012_00000104681783913334582670000012094400375814914190_">
	<g>
		<text transform="matrix(0.9999 1.570698e-02 -1.570698e-02 0.9999 264.4343 375.3653)" class="st2 st0 st3">C</text>
	</g>
</g>
<g id="ID000012_00000098900384461920282100000014733964558137879700_">
	<g>
		<text transform="matrix(0.9999 1.570698e-02 -1.570698e-02 0.9999 291.6702 296.2876)" class="st5 st0 st3">G</text>
	</g>
</g>
<g id="ID000012_00000165192780530262720300000002296862683012722059_">
	<g>
		<text transform="matrix(0.9999 1.570698e-02 -1.570698e-02 0.9999 257.3749 296.2879)" class="st5 st0 st3">C</text>
	</g>
</g>
<g id="ID000012_00000137102091584094727370000004367536051776952195_">
	<g>
		<text transform="matrix(0.9999 1.570698e-02 -1.570698e-02 0.9999 310.0027 357.3414)" class="st2 st0 st3">C</text>
	</g>
</g>
<g id="ID000012_00000033358463268199106030000013354422003353826953_">
	<text transform="matrix(0.9999 1.570698e-02 -1.570698e-02 0.9999 291.6707 274.6396)" class="st5 st0 st3">C</text>
</g>
<g id="ID000012_00000130620427983233646620000016492061007292255616_">
	<text transform="matrix(0.9999 1.570698e-02 -1.570698e-02 0.9999 257.3758 125.2656)" class="st2 st0 st3">C</text>
</g>
<g id="ID000012_00000044176447270618946380000004920895329746363038_">
	<text transform="matrix(0.9999 1.570698e-02 -1.570698e-02 0.9999 237.2109 142.7545)" class="st6 st0 st3">C</text>
</g>
<g id="ID000012_00000161625627552299864610000018230532349691463575_">
	<text transform="matrix(0.9999 1.570698e-02 -1.570698e-02 0.9999 116.4159 129.6059)" class="st2 st0 st3">C</text>
</g>
<g id="ID000012_00000026138558818960190020000001889133113432445324_">
	<text transform="matrix(0.9999 1.570698e-02 -1.570698e-02 0.9999 220.0544 133.6228)" class="st6 st0 st3">C</text>
</g>
<g id="ID000012_00000000910616602484796860000007133575757073048229_">
	<g>
		<text transform="matrix(0.9999 1.570698e-02 -1.570698e-02 0.9999 491.8284 198.0765)" class="st4 st0 st3">C</text>
	</g>
</g>
<g id="ID000018_00000104707097969389953970000009088350760481935533_">
	<text transform="matrix(0.9998 1.779766e-02 -1.779766e-02 0.9998 550.8264 134.3169)" class="st0 st7">5’</text>
</g>
<g id="ID000018_00000005240790440685367580000013749272138437122451_">
	<text transform="matrix(0.9998 1.779766e-02 -1.779766e-02 0.9998 352.0757 118.9789)" class="st0 st7">10</text>
</g>
<g id="ID000018_00000018919578949443278470000004591136595677655200_">
	<text transform="matrix(0.9998 1.779766e-02 -1.779766e-02 0.9998 167.5688 74.1582)" class="st0 st7">20</text>
</g>
<g id="ID000018_00000040536256568878568320000001917535169621034889_">
	<text transform="matrix(0.9998 1.779766e-02 -1.779766e-02 0.9998 320.6228 236.9329)" class="st0 st7">50</text>
</g>
<g id="ID000018_00000026161672118903032120000001216484520102137260_">
	<text transform="matrix(0.9998 1.779766e-02 -1.779766e-02 0.9998 491.8275 228.3248)" class="st0 st7">60</text>
</g>
<g id="ID000018_00000054229788772175650710000009096838164884966548_">
	<text transform="matrix(0.9998 1.779766e-02 -1.779766e-02 0.9998 491.8288 97.7181)" class="st0 st7">3’</text>
</g>
<line class="st8" x1="198.1" y1="134.2" x2="204.2" y2="126.1"/>
<line class="st8" x1="215.7" y1="142.4" x2="221.8" y2="134.3"/>
<line class="st8" x1="234" y1="152.4" x2="240.1" y2="144.3"/>
<line class="st8" x1="277.4" y1="244.3" x2="289.2" y2="244.2"/>
<line class="st8" x1="277.3" y1="221" x2="289.1" y2="220.9"/>
<line class="st8" x1="344.4" y1="164.5" x2="344.3" y2="155.1"/>
<line class="st8" x1="366.9" y1="164.5" x2="366.8" y2="155.1"/>
<line class="st8" x1="386.4" y1="164.5" x2="386.3" y2="155.1"/>
<line class="st8" x1="423.6" y1="164.5" x2="423.5" y2="155.1"/>
<line class="st8" x1="445.2" y1="164.5" x2="445.1" y2="155.1"/>
<line class="st8" x1="464.8" y1="164.5" x2="464.8" y2="155.1"/>
<line class="st8" x1="485.1" y1="164.5" x2="485" y2="155.1"/>
<line class="st8" x1="517.3" y1="164.5" x2="517.3" y2="155.1"/>
<line class="st8" x1="559.7" y1="165.8" x2="559.6" y2="156.4"/>
<line class="st8" x1="592.4" y1="165.6" x2="592.4" y2="156.1"/>
<line class="st8" x1="616.6" y1="165.4" x2="616.6" y2="156"/>
<line class="st8" x1="640.8" y1="165.4" x2="640.7" y2="156"/>
<line class="st8" x1="277.6" y1="267.9" x2="289.4" y2="267.8"/>
<line class="st8" x1="276.2" y1="289.3" x2="288" y2="289.2"/>
<line class="st9" x1="366.8" y1="134.9" x2="366.8" y2="125.4"/>
<line class="st9" x1="176" y1="86.2" x2="175.9" y2="76.8"/>
<line class="st9" x1="308.2" y1="222.3" x2="317.2" y2="225.1"/>
<line class="st9" x1="500.2" y1="210.8" x2="500.1" y2="201.4"/>
<circle class="st10" cx="405.4" cy="159.4" r="1.8"/>
<circle class="st10" cx="537" cy="160.9" r="1.8"/>
<circle class="st10" cx="183" cy="119.4" r="1.8"/>
</svg>
