<?xml version="1.0" encoding="utf-8"?>
<!-- Generator: Adobe Illustrator 25.2.0, SVG Export Plug-In . SVG Version: 6.00 Build 0)  -->
<svg version="1.1" id="图层_1" xmlns="http://www.w3.org/2000/svg" xmlns:xlink="http://www.w3.org/1999/xlink" x="0px" y="0px"
	 viewBox="0 0 400 400" style="enable-background:new 0 0 400 400;" xml:space="preserve">
<style type="text/css">
	.st0{fill:#B83233;}
	.st1{font-family:'ArialMT';}
	.st2{font-size:21.0578px;}
	.st3{fill:none;stroke:#000000;stroke-miterlimit:3.05;}
	.st4{font-size:16.8462px;}
	.st5{font-size:16.1443px;}
	.st6{font-size:14.0385px;}
	.st7{fill:#084595;}
	.st8{font-size:20px;}
	.st9{fill:#2EA103;}
</style>
<g id="ID000006">
	<text transform="matrix(1 0 0 1 130.2449 380.5204)" class="st0 st1 st2">G</text>
</g>
<g id="ID000010">
	<text transform="matrix(1 0 0 1 226.9422 311.0712)" class="st0 st1 st2">C</text>
</g>
<g id="ID000011">
	<text transform="matrix(1 0 0 1 169.9793 359.5692)" class="st0 st1 st2">A</text>
</g>
<g id="ID000019">
	<text transform="matrix(1 0 0 1 226.9422 359.7782)" class="st0 st1 st2">U</text>
</g>
<g id="ID000020">
	<text transform="matrix(1 0 0 1 167.6844 310.7138)" class="st0 st1 st2">G</text>
</g>
<g id="ID000021">
	<line class="st3" x1="223.9" y1="302.2" x2="188.3" y2="302"/>
</g>
<g id="ID000022">
	<line class="st3" x1="223.8" y1="351.2" x2="188.3" y2="351"/>
</g>
<text transform="matrix(1 0 0 1 110.9891 379.1103)" class="st1 st4">5</text>
<text transform="matrix(1 0 0 1 120.3602 379.1103)" class="st1 st4">’</text>
<text transform="matrix(1 0 0 1 251.8582 378.913)" class="st1 st5">3</text>
<text transform="matrix(1 0 0 1 260.8367 378.913)" class="st1 st5">’</text>
<g id="ID000006-2">
	<text transform="matrix(1 0 0 1 151.5399 380.6688)" class="st0 st1 st2">U</text>
</g>
<g id="ID000002-3">
	<text transform="matrix(1 0 0 1 227.9676 380.4169)" class="st0 st1 st2">U</text>
</g>
<g id="ID000006-3">
	<text transform="matrix(1 0 0 1 169.3973 380.2685)" class="st0 st1 st2">C</text>
</g>
<g id="ID000011-2">
	<text transform="matrix(1 0 0 1 226.9422 339.1493)" class="st0 st1 st2">G</text>
</g>
<g id="ID000019-2">
	<text transform="matrix(1 0 0 1 168.8563 338.8622)" class="st0 st1 st2">C</text>
</g>
<g id="ID000022-2">
	<line class="st3" x1="223.8" y1="330.5" x2="188.3" y2="330.3"/>
</g>
<g id="ID000019-3">
	<text transform="matrix(1 0 0 1 226.9422 288.7157)" class="st0 st1 st2">U</text>
</g>
<g id="ID000002-5">
	<text transform="matrix(1 0 0 1 148.3113 327.7626)" class="st0 st1 st2">U</text>
</g>
<g id="ID000018">
	<text transform="matrix(1 0 0 1 138.3004 243.045)" class="st1 st6">10</text>
</g>
<g id="ID000003-2">
	<text transform="matrix(1 0 0 1 226.9422 247.1826)" class="st7 st1 st2">G</text>
</g>
<g id="ID000005-5">
	<text transform="matrix(1 0 0 1 168.8563 246.4579)" class="st7 st1 st2">C</text>
</g>
<g id="ID000010-2">
	<text transform="matrix(1 0 0 1 226.9422 267.6942)" class="st0 st1 st2">G</text>
</g>
<g id="ID000020-3">
	<text transform="matrix(1 0 0 1 168.8563 267.1864)" class="st0 st1 st2">C</text>
</g>
<text transform="matrix(1 0 0 1 143.7131 23.2531)" class="st1 st8">945 aptamer</text>
<g id="ID000020-3-2">
	<text transform="matrix(1 0 0 1 169.9793 287.9149)" class="st0 st1 st2">A</text>
</g>
<line class="st3" x1="223.8" y1="259.8" x2="188.3" y2="259.6"/>
<line class="st3" x1="223.8" y1="280.7" x2="188.3" y2="280.4"/>
<line class="st3" x1="223.8" y1="239" x2="188.3" y2="238.8"/>
<g id="ID000005-5-2">
	<text transform="matrix(1 0 0 1 243.6043 228.9306)" class="st7 st1 st2">C</text>
</g>
<g id="ID000010-2-2">
	<text transform="matrix(1 0 0 1 226.9774 216.8096)" class="st7 st1 st2">A</text>
</g>
<g id="ID000020-2">
	<text transform="matrix(1 0 0 1 168.8563 216.4521)" class="st7 st1 st2">U</text>
</g>
<g id="ID000021-2">
	<line class="st3" x1="223.9" y1="208" x2="188.3" y2="207.8"/>
</g>
<g id="ID000019-3-2">
	<text transform="matrix(1 0 0 1 226.9422 194.4482)" class="st7 st1 st2">C</text>
</g>
<g id="ID000003-2-2">
	<text transform="matrix(1 0 0 1 226.9422 138.7489)" class="st7 st1 st2">C</text>
</g>
<g id="ID000005-5-3">
	<text transform="matrix(1 0 0 1 167.6844 137.5419)" class="st7 st1 st2">G</text>
</g>
<g id="ID000010-2-3">
	<text transform="matrix(1 0 0 1 226.9422 159.2587)" class="st7 st1 st2">G</text>
</g>
<g id="ID000020-3-3">
	<text transform="matrix(1 0 0 1 168.8563 158.7528)" class="st7 st1 st2">C</text>
</g>
<g id="ID000020-3-4">
	<text transform="matrix(1 0 0 1 167.6844 193.6532)" class="st7 st1 st2">G</text>
</g>
<line class="st3" x1="223.8" y1="151.4" x2="188.3" y2="151.2"/>
<line class="st3" x1="223.8" y1="186.4" x2="188.3" y2="186.1"/>
<line class="st3" x1="223.8" y1="130.6" x2="188.3" y2="130.4"/>
<g id="ID000002-5-2">
	<text transform="matrix(1 0 0 1 149.9754 175.2704)" class="st7 st1 st2">U</text>
</g>
<g id="ID000003-2-3">
	<text transform="matrix(1 0 0 1 226.9422 95.8408)" class="st7 st1 st2">U</text>
</g>
<g id="ID000005-5-4">
	<text transform="matrix(1 0 0 1 169.9793 95.1161)" class="st7 st1 st2">A</text>
</g>
<g id="ID000010-2-4">
	<text transform="matrix(1 0 0 1 226.9422 116.3505)" class="st7 st1 st2">G</text>
</g>
<g id="ID000020-3-5">
	<text transform="matrix(1 0 0 1 168.8563 116.3311)" class="st7 st1 st2">C</text>
</g>
<line class="st3" x1="223.8" y1="108.5" x2="188.3" y2="108.3"/>
<line class="st3" x1="223.8" y1="87.7" x2="188.3" y2="87.5"/>
<g id="ID000003-2-4">
	<text transform="matrix(1 0 0 1 231.1172 74.6346)" class="st9 st1 st2">C</text>
</g>
<g id="ID000005-5-5">
	<text transform="matrix(1 0 0 1 163.4734 76.0408)" class="st9 st1 st2">G</text>
</g>
<g id="ID000005-5-6">
	<text transform="matrix(1 0 0 1 183.0081 52.3821)" class="st9 st1 st2">G</text>
</g>
<g id="ID000003-2-5">
	<text transform="matrix(1 0 0 1 211.3585 52.3821)" class="st9 st1 st2">U</text>
</g>
<g id="ID000018-2-2">
	<text transform="matrix(1 0 0 1 255.088 264.8349)" class="st1 st6">30</text>
</g>
<line class="st3" x1="165.4" y1="239.8" x2="157.4" y2="239.6"/>
<line class="st3" x1="253.2" y1="260.8" x2="245.2" y2="260.6"/>
</svg>
