<?xml version="1.0" encoding="utf-8"?>
<!-- Generator: Adobe Illustrator 25.2.0, SVG Export Plug-In . SVG Version: 6.00 Build 0)  -->
<svg version="1.1" id="图层_1" xmlns="http://www.w3.org/2000/svg" xmlns:xlink="http://www.w3.org/1999/xlink" x="0px" y="0px"
	 viewBox="0 0 800 400" style="enable-background:new 0 0 800 400;" xml:space="preserve">
<style type="text/css">
	.st0{fill:#B83233;}
	.st1{font-family:'ArialMT';}
	.st2{font-size:15.87px;}
	.st3{fill:none;stroke:#000000;stroke-width:0.19;stroke-miterlimit:1.53;}
	.st4{fill:#C2B617;}
	.st5{fill:none;stroke:#000000;stroke-miterlimit:1.53;}
	.st6{fill:#FFFFFF;stroke:#000000;stroke-miterlimit:1.53;}
	.st7{stroke:#000000;stroke-width:0.19;stroke-miterlimit:1.53;}
	.st8{fill:#084595;}
	.st9{fill:none;stroke:#000000;stroke-width:1.11;stroke-miterlimit:1.53;}
	.st10{fill:#F17D07;}
	.st11{font-size:20px;}
</style>
<g id="ID000002">
	<text transform="matrix(1 0 0 1 357.97 333.24)" class="st0 st1 st2">A</text>
</g>
<g id="ID000003">
	<text transform="matrix(1 0 0 1 373.53 333.24)" class="st0 st1 st2">A</text>
</g>
<g id="ID000004">
	<text transform="matrix(1 0 0 1 388.65 333.24)" class="st0 st1 st2">U</text>
</g>
<g id="ID000005">
	<text transform="matrix(1 0 0 1 403.77 333.24)" class="st0 st1 st2">G</text>
</g>
<g id="ID000006">
	<text transform="matrix(1 0 0 1 419.32 333.24)" class="st0 st1 st2">G</text>
</g>
<g id="ID000007">
	<text transform="matrix(1 0 0 1 435.33 333.24)" class="st0 st1 st2">U</text>
</g>
<g id="ID000008">
	<text transform="matrix(1 0 0 1 450.44 333.24)" class="st0 st1 st2">G</text>
</g>
<g id="ID000009">
	<text transform="matrix(1 0 0 1 466.88 333.24)" class="st0 st1 st2">A</text>
</g>
<g id="ID000010">
	<line class="st3" x1="472.1" y1="315.9" x2="472.1" y2="305.5"/>
</g>
<g id="ID000011">
	<text transform="matrix(1 0 0 1 463.35 301.6)" class="st1 st2">20</text>
</g>
<g id="ID000012">
	<text transform="matrix(1 0 0 1 482.44 333.24)" class="st0 st1 st2">A</text>
</g>
<g id="ID000013">
	<text transform="matrix(1 0 0 1 485.45 321.57)" class="st4 st1 st2">G</text>
</g>
<g id="ID000014">
	<text transform="matrix(1 0 0 1 485.45 306.01)" class="st4 st1 st2">G</text>
</g>
<g id="ID000015">
	<text transform="matrix(1 0 0 1 532.14 364.36)" class="st4 st1 st2">G</text>
</g>
<g id="ID000016">
	<text transform="matrix(1 0 0 1 517.02 364.36)" class="st4 st1 st2">U</text>
</g>
<g id="ID000017">
	<text transform="matrix(1 0 0 1 497.12 364.36)" class="st4 st1 st2">G</text>
</g>
<g id="ID000018">
	<text transform="matrix(1 0 0 1 482.44 364.36)" class="st0 st1 st2">A</text>
</g>
<g id="ID000019">
	<text transform="matrix(1 0 0 1 466 364.36)" class="st0 st1 st2">G</text>
</g>
<g id="ID000020">
	<text transform="matrix(1 0 0 1 450.89 364.36)" class="st0 st1 st2">C</text>
</g>
<g id="ID000021">
	<text transform="matrix(1 0 0 1 435.33 364.36)" class="st0 st1 st2">U</text>
</g>
<g id="ID000022">
	<text transform="matrix(1 0 0 1 419.77 364.36)" class="st0 st1 st2">C</text>
</g>
<g id="ID000023">
	<text transform="matrix(1 0 0 1 404.21 364.36)" class="st0 st1 st2">C</text>
</g>
<g id="ID000024">
	<text transform="matrix(1 0 0 1 388.21 364.36)" class="st0 st1 st2">G</text>
</g>
<g id="ID000025">
	<line class="st3" x1="394.4" y1="367.8" x2="394.4" y2="378.1"/>
</g>
<g id="ID000026">
	<text transform="matrix(1 0 0 1 385.55 396.46)" class="st1 st2">70</text>
</g>
<g id="ID000027">
	<text transform="matrix(1 0 0 1 373.09 364.36)" class="st0 st1 st2">U</text>
</g>
<g id="ID000028">
	<text transform="matrix(1 0 0 1 357.97 364.36)" class="st0 st1 st2">A</text>
</g>
<g id="ID000029">
	<text transform="matrix(1 0 0 1 342.4 364.36)" class="st0 st1 st2">A</text>
</g>
<g id="ID000030">
	<line class="st5" x1="363.3" y1="332.4" x2="363.3" y2="351.1"/>
</g>
<g id="ID000031">
	<polygon class="st6" points="360.1,334.6 360.1,340.9 366.3,340.9 366.3,334.6 	"/>
</g>
<g id="ID000032">
	<polygon class="st6" points="363.3,349.9 366.7,343.8 359.8,343.8 	"/>
</g>
<g id="ID000033">
	<line class="st5" x1="378.8" y1="332.4" x2="378.8" y2="351.1"/>
</g>
<g id="ID000034">
	<polygon class="st7" points="394.4,344.9 394.6,344.9 394.7,344.9 395,344.9 395.1,344.9 395.4,344.8 395.6,344.6 395.7,344.6 
		395.8,344.5 396.1,344.4 396.2,344.3 396.3,344.1 396.6,344 396.7,343.9 396.8,343.8 396.9,343.6 397.1,343.4 397.2,343.3 
		397.2,343 397.3,342.9 397.3,342.7 397.4,342.5 397.4,342.3 397.4,342.2 397.5,341.9 397.5,341.7 397.4,341.6 397.4,341.3 
		397.4,341.2 397.4,341 397.3,340.7 397.3,340.6 397.2,340.4 397.1,340.2 396.9,340.1 396.8,339.9 396.7,339.8 396.6,339.6 
		396.5,339.5 396.3,339.4 396.1,339.3 396,339.1 395.8,339 395.6,338.9 395.5,338.9 395.2,338.8 395.1,338.8 394.9,338.8 
		394.6,338.6 394.5,338.6 394.2,338.6 394.1,338.6 393.9,338.8 393.6,338.8 393.5,338.8 393.3,338.9 393.2,338.9 392.9,339 
		392.8,339.1 392.7,339.3 392.4,339.4 392.3,339.5 392.2,339.6 392.1,339.8 391.9,339.9 391.8,340.1 391.7,340.2 391.6,340.4 
		391.5,340.6 391.5,340.7 391.3,341 391.3,341.2 391.3,341.3 391.3,341.6 391.2,341.7 391.3,341.9 391.3,342.2 391.3,342.3 
		391.3,342.5 391.5,342.7 391.5,342.9 391.6,343 391.7,343.3 391.7,343.4 391.8,343.6 391.9,343.8 392.1,343.9 392.2,344 
		392.4,344.1 392.5,344.3 392.7,344.4 392.9,344.5 393,344.6 393.3,344.6 393.4,344.8 393.6,344.9 393.8,344.9 394,344.9 
		394.1,344.9 	"/>
</g>
<g id="ID000035">
	<line class="st5" x1="410" y1="332.4" x2="410" y2="351.1"/>
</g>
<g id="ID000036">
	<line class="st5" x1="425.5" y1="332.4" x2="425.5" y2="351.1"/>
</g>
<g id="ID000037">
	<line class="st5" x1="441.1" y1="332.4" x2="441.1" y2="351.1"/>
</g>
<g id="ID000038">
	<polygon class="st7" points="441.1,344.9 441.3,344.9 441.4,344.9 441.7,344.9 441.8,344.9 442,344.8 442.2,344.6 442.4,344.6 
		442.5,344.5 442.8,344.4 442.9,344.3 443,344.1 443.3,344 443.4,343.9 443.5,343.8 443.6,343.6 443.8,343.4 443.8,343.3 443.9,343 
		444,342.9 444,342.7 444.1,342.5 444.1,342.3 444.1,342.2 444.1,341.9 444.1,341.7 444.1,341.6 444.1,341.3 444.1,341.2 444.1,341 
		444,340.7 443.9,340.6 443.9,340.4 443.8,340.2 443.6,340.1 443.5,339.9 443.4,339.8 443.3,339.6 443.1,339.5 443,339.4 
		442.8,339.3 442.6,339.1 442.5,339 442.3,338.9 442.2,338.9 441.9,338.8 441.8,338.8 441.5,338.8 441.3,338.6 441.2,338.6 
		440.9,338.6 440.8,338.6 440.6,338.8 440.3,338.8 440.2,338.8 440,338.9 439.9,338.9 439.6,339 439.5,339.1 439.2,339.3 
		439.1,339.4 439,339.5 438.9,339.6 438.8,339.8 438.6,339.9 438.5,340.1 438.4,340.2 438.3,340.4 438.1,340.6 438.1,340.7 438,341 
		438,341.2 438,341.3 437.9,341.6 437.9,341.7 437.9,341.9 438,342.2 438,342.3 438,342.5 438.1,342.7 438.1,342.9 438.3,343 
		438.3,343.3 438.4,343.4 438.5,343.6 438.6,343.8 438.8,343.9 438.9,344 439.1,344.1 439.2,344.3 439.4,344.4 439.6,344.5 
		439.7,344.6 439.9,344.6 440.1,344.8 440.3,344.9 440.5,344.9 440.7,344.9 440.8,344.9 	"/>
</g>
<g id="ID000039">
	<line class="st5" x1="456.7" y1="332.4" x2="456.7" y2="351.1"/>
</g>
<g id="ID000040">
	<polygon class="st7" points="456.7,344.9 456.8,344.9 457,344.9 457.2,344.9 457.4,344.9 457.6,344.8 457.8,344.6 458,344.6 
		458.1,344.5 458.2,344.4 458.5,344.3 458.6,344.1 458.7,344 458.9,343.9 459,343.8 459.1,343.6 459.2,343.4 459.4,343.3 459.5,343 
		459.5,342.9 459.6,342.7 459.6,342.5 459.7,342.3 459.7,342.2 459.7,341.9 459.7,341.7 459.7,341.6 459.7,341.3 459.7,341.2 
		459.6,341 459.6,340.7 459.5,340.6 459.4,340.4 459.4,340.2 459.2,340.1 459.1,339.9 459,339.8 458.9,339.6 458.7,339.5 
		458.5,339.4 458.4,339.3 458.2,339.1 458,339 457.9,338.9 457.6,338.9 457.5,338.8 457.3,338.8 457.2,338.8 456.9,338.6 
		456.7,338.6 456.5,338.6 456.3,338.6 456.2,338.8 455.9,338.8 455.7,338.8 455.6,338.9 455.3,338.9 455.2,339 455,339.1 
		454.8,339.3 454.7,339.4 454.6,339.5 454.4,339.6 454.2,339.8 454.1,339.9 454,340.1 453.9,340.2 453.9,340.4 453.7,340.6 
		453.6,340.7 453.6,341 453.6,341.2 453.5,341.3 453.5,341.6 453.5,341.7 453.5,341.9 453.5,342.2 453.5,342.3 453.6,342.5 
		453.6,342.7 453.7,342.9 453.7,343 453.9,343.3 454,343.4 454.1,343.6 454.2,343.8 454.4,343.9 454.5,344 454.6,344.1 454.7,344.3 
		455,344.4 455.1,344.5 455.3,344.6 455.5,344.6 455.7,344.8 455.8,344.9 456.1,344.9 456.2,344.9 456.4,344.9 	"/>
</g>
<g id="ID000041">
	<line class="st5" x1="472.1" y1="332.4" x2="472.1" y2="351.1"/>
</g>
<g id="ID000042">
	<polygon class="st7" points="472.1,344.9 472.4,344.9 472.5,344.9 472.8,344.9 473,344.9 473.1,344.8 473.4,344.6 473.5,344.6 
		473.7,344.5 473.9,344.4 474,344.3 474.2,344.1 474.3,344 474.5,343.9 474.6,343.8 474.7,343.6 474.8,343.4 475,343.3 475,343 
		475.1,342.9 475.2,342.7 475.2,342.5 475.2,342.3 475.3,342.2 475.3,341.9 475.3,341.7 475.3,341.6 475.2,341.3 475.2,341.2 
		475.2,341 475.1,340.7 475.1,340.6 475,340.4 474.8,340.2 474.7,340.1 474.7,339.9 474.6,339.8 474.3,339.6 474.2,339.5 
		474.1,339.4 474,339.3 473.7,339.1 473.6,339 473.4,338.9 473.2,338.9 473,338.8 472.9,338.8 472.6,338.8 472.5,338.6 472.3,338.6 
		472,338.6 471.9,338.6 471.7,338.8 471.5,338.8 471.3,338.8 471,338.9 470.9,338.9 470.8,339 470.6,339.1 470.4,339.3 470.2,339.4 
		470.1,339.5 470,339.6 469.8,339.8 469.7,339.9 469.6,340.1 469.5,340.2 469.4,340.4 469.4,340.6 469.2,340.7 469.2,341 
		469.1,341.2 469.1,341.3 469.1,341.6 469.1,341.7 469.1,341.9 469.1,342.2 469.1,342.3 469.1,342.5 469.2,342.7 469.2,342.9 
		469.4,343 469.5,343.3 469.6,343.4 469.6,343.6 469.7,343.8 469.8,343.9 470.1,344 470.2,344.1 470.3,344.3 470.4,344.4 
		470.7,344.5 470.8,344.6 471,344.6 471.2,344.8 471.4,344.9 471.5,344.9 471.8,344.9 472,344.9 	"/>
</g>
<g id="ID000043">
	<line class="st5" x1="487.8" y1="332.4" x2="487.8" y2="351.1"/>
</g>
<g id="ID000044">
	<polygon class="st7" points="487.8,344.9 487.9,344.9 488.1,344.9 488.4,344.9 488.5,344.9 488.7,344.8 488.9,344.6 489.1,344.6 
		489.2,344.5 489.5,344.4 489.6,344.3 489.7,344.1 489.8,344 490.1,343.9 490.2,343.8 490.3,343.6 490.4,343.4 490.4,343.3 
		490.6,343 490.7,342.9 490.7,342.7 490.8,342.5 490.8,342.3 490.8,342.2 490.8,341.9 490.8,341.7 490.8,341.6 490.8,341.3 
		490.8,341.2 490.7,341 490.7,340.7 490.6,340.6 490.6,340.4 490.4,340.2 490.3,340.1 490.2,339.9 490.1,339.8 490,339.6 
		489.8,339.5 489.7,339.4 489.5,339.3 489.3,339.1 489.2,339 489,338.9 488.9,338.9 488.6,338.8 488.4,338.8 488.2,338.8 488,338.6 
		487.9,338.6 487.6,338.6 487.4,338.6 487.3,338.8 487,338.8 486.9,338.8 486.7,338.9 486.5,338.9 486.3,339 486.2,339.1 
		485.9,339.3 485.8,339.4 485.7,339.5 485.6,339.6 485.4,339.8 485.3,339.9 485.2,340.1 485.1,340.2 485,340.4 484.8,340.6 
		484.8,340.7 484.7,341 484.7,341.2 484.7,341.3 484.6,341.6 484.6,341.7 484.6,341.9 484.6,342.2 484.7,342.3 484.7,342.5 
		484.7,342.7 484.8,342.9 485,343 485,343.3 485.1,343.4 485.2,343.6 485.3,343.8 485.4,343.9 485.6,344 485.7,344.1 485.9,344.3 
		486,344.4 486.2,344.5 486.4,344.6 486.5,344.6 486.8,344.8 486.9,344.9 487.1,344.9 487.4,344.9 487.5,344.9 	"/>
</g>
<g id="ID000045">
	<line class="st5" x1="512.7" y1="266.1" x2="536.6" y2="351.3"/>
</g>
<g id="ID000046">
	<polygon class="st7" points="522.7,301.8 522.6,302 522.4,302 522.2,302.1 522,302.2 521.9,302.2 521.8,302.3 521.5,302.5 
		521.4,302.6 521.3,302.8 521.2,302.9 521,303.1 520.9,303.3 520.8,303.4 520.8,303.5 520.7,303.8 520.7,303.9 520.5,304.1 
		520.5,304.4 520.5,304.5 520.5,304.8 520.5,304.9 520.5,305.1 520.5,305.4 520.5,305.5 520.7,305.7 520.7,305.9 520.8,306.1 
		520.8,306.2 520.9,306.5 521,306.6 521.2,306.7 521.3,307 521.4,307.1 521.5,307.2 521.8,307.3 521.9,307.4 522,307.6 522.2,307.7 
		522.4,307.7 522.6,307.8 522.7,307.8 523,307.9 523.1,307.9 523.3,307.9 523.6,307.9 523.7,307.9 524,307.9 524.2,307.9 
		524.3,307.8 524.6,307.8 524.7,307.7 524.9,307.7 525.1,307.6 525.3,307.4 525.4,307.3 525.5,307.2 525.7,307.1 525.9,307 
		526,306.8 526.2,306.7 526.3,306.5 526.3,306.4 526.4,306.1 526.5,306 526.5,305.7 526.6,305.6 526.6,305.4 526.6,305.2 526.8,305 
		526.8,304.9 526.8,304.6 526.6,304.4 526.6,304.3 526.6,304 526.5,303.9 526.5,303.7 526.4,303.5 526.3,303.3 526.2,303.2 
		526.2,302.9 526,302.8 525.8,302.7 525.7,302.6 525.5,302.5 525.4,302.3 525.2,302.2 525.1,302.1 524.9,302 524.7,302 524.6,301.8 
		524.3,301.8 524.1,301.7 524,301.7 523.7,301.7 523.6,301.7 523.3,301.7 523.1,301.7 523,301.8 	"/>
</g>
<g id="ID000047">
	<polygon class="st7" points="529.6,314.8 528,308.8 521.9,310.5 523.6,316.5 	"/>
</g>
<g id="ID000048">
	<line class="st5" x1="503.2" y1="277.9" x2="503.2" y2="351.1"/>
</g>
<g id="ID000049">
	<polygon class="st7" points="503.2,317.7 503.5,317.7 503.7,317.7 503.9,317.6 504.1,317.6 504.2,317.6 504.5,317.4 504.6,317.3 
		504.8,317.3 504.9,317.2 505.2,317.1 505.3,317 505.4,316.8 505.5,316.7 505.7,316.6 505.8,316.3 505.9,316.2 506,316 506.2,315.9 
		506.2,315.7 506.3,315.5 506.3,315.2 506.4,315.1 506.4,314.9 506.4,314.8 506.4,314.5 506.4,314.3 506.4,314.1 506.3,313.9 
		506.3,313.8 506.3,313.5 506.2,313.4 506,313.2 506,313 505.9,312.8 505.8,312.7 505.7,312.6 505.5,312.4 505.4,312.2 505.2,312.1 
		505.1,312 504.9,312 504.7,311.8 504.6,311.7 504.3,311.6 504.2,311.6 504,311.6 503.9,311.5 503.6,311.5 503.4,311.5 503.2,311.5 
		503,311.5 502.8,311.5 502.6,311.6 502.4,311.6 502.3,311.6 502,311.7 501.9,311.8 501.6,312 501.5,312 501.4,312.1 501.2,312.2 
		501,312.4 500.9,312.6 500.8,312.7 500.7,312.8 500.5,313 500.5,313.2 500.4,313.4 500.3,313.5 500.3,313.8 500.3,313.9 
		500.2,314.1 500.2,314.3 500.2,314.5 500.2,314.8 500.2,314.9 500.2,315.1 500.3,315.2 500.3,315.5 500.4,315.7 500.4,315.9 
		500.5,316 500.7,316.2 500.8,316.3 500.9,316.6 501,316.7 501.2,316.8 501.3,317 501.4,317.1 501.6,317.2 501.8,317.3 502,317.3 
		502.1,317.4 502.4,317.6 502.5,317.6 502.8,317.6 502.9,317.7 503.1,317.7 	"/>
</g>
<g id="ID000050">
	<line class="st5" x1="561.6" y1="284.4" x2="507.1" y2="352.5"/>
</g>
<g id="ID000051">
	<polygon class="st6" points="534.9,322.8 538.8,317.9 534,314 530,318.9 	"/>
</g>
<g id="ID000052">
	<line class="st5" x1="347.7" y1="332.4" x2="347.7" y2="351.1"/>
</g>
<g id="ID000053">
	<polygon class="st6" points="347.7,333.6 344.1,339.8 351.2,339.8 	"/>
</g>
<g id="ID000054">
	<polygon class="st6" points="350.9,349 350.9,342.7 344.6,342.7 344.6,349 	"/>
</g>
<g id="ID000056">
	<text transform="matrix(1 0 0 1 185.93 333.24)" class="st0 st1 st2">G</text>
</g>
<g id="ID000057">
	<text transform="matrix(1 0 0 1 202.37 333.24)" class="st0 st1 st2">A</text>
</g>
<g id="ID000058">
	<text transform="matrix(1 0 0 1 217.49 333.24)" class="st0 st1 st2">C</text>
</g>
<g id="ID000059">
	<text transform="matrix(1 0 0 1 232.61 333.24)" class="st0 st1 st2">G</text>
</g>
<g id="ID000060">
	<text transform="matrix(1 0 0 1 248.61 333.24)" class="st0 st1 st2">C</text>
</g>
<g id="ID000061">
	<text transform="matrix(1 0 0 1 263.73 333.24)" class="st0 st1 st2">G</text>
</g>
<g id="ID000062">
	<text transform="matrix(1 0 0 1 280.16 333.24)" class="st0 st1 st2">A</text>
</g>
<g id="ID000063">
	<text transform="matrix(1 0 0 1 295.29 333.24)" class="st0 st1 st2">C</text>
</g>
<g id="ID000064">
	<text transform="matrix(1 0 0 1 310.85 333.24)" class="st0 st1 st2">C</text>
</g>
<g id="ID000065">
	<line class="st3" x1="316.6" y1="315.9" x2="316.6" y2="305.5"/>
</g>
<g id="ID000066">
	<text transform="matrix(1 0 0 1 307.75 301.6)" class="st1 st2">10</text>
</g>
<g id="ID000067">
	<text transform="matrix(1 0 0 1 325.97 333.24)" class="st0 st1 st2">G</text>
</g>
<g id="ID000068">
	<text transform="matrix(1 0 0 1 342.64 333.24)" class="st0 st1 st2">A</text>
</g>
<g id="ID000069">
	<text transform="matrix(1 0 0 1 326.41 364.36)" class="st0 st1 st2">C</text>
</g>
<g id="ID000070">
	<text transform="matrix(1 0 0 1 322.52 379.92)" class="st0 st1 st2">U</text>
</g>
<g id="ID000071">
	<text transform="matrix(1 0 0 1 310.41 364.36)" class="st0 st1 st2">G</text>
</g>
<g id="ID000072">
	<text transform="matrix(1 0 0 1 294.85 364.36)" class="st0 st1 st2">G</text>
</g>
<g id="ID000073">
	<text transform="matrix(1 0 0 1 279.73 364.36)" class="st0 st1 st2">U</text>
</g>
<g id="ID000074">
	<text transform="matrix(1 0 0 1 264.17 364.36)" class="st0 st1 st2">C</text>
</g>
<g id="ID000075">
	<text transform="matrix(1 0 0 1 248.17 364.36)" class="st0 st1 st2">G</text>
</g>
<g id="ID000076">
	<line class="st3" x1="254.3" y1="367.8" x2="254.3" y2="378.1"/>
</g>
<g id="ID000077">
	<text transform="matrix(1 0 0 1 245.51 396.46)" class="st1 st2">80</text>
</g>
<g id="ID000078">
	<text transform="matrix(1 0 0 1 233.05 364.36)" class="st0 st1 st2">C</text>
</g>
<g id="ID000079">
	<text transform="matrix(1 0 0 1 217.05 364.36)" class="st0 st1 st2">G</text>
</g>
<g id="ID000080">
	<text transform="matrix(1 0 0 1 201.93 364.36)" class="st0 st1 st2">U</text>
</g>
<g id="ID000081">
	<text transform="matrix(1 0 0 1 186.37 364.36)" class="st0 st1 st2">C</text>
</g>
<g id="ID000082">
	<line class="st5" x1="192.1" y1="332.4" x2="192.1" y2="351.1"/>
</g>
<g id="ID000083">
	<line class="st5" x1="207.6" y1="332.4" x2="207.6" y2="351.1"/>
</g>
<g id="ID000084">
	<line class="st5" x1="223.2" y1="332.4" x2="223.2" y2="351.1"/>
</g>
<g id="ID000085">
	<line class="st5" x1="238.8" y1="332.4" x2="238.8" y2="351.1"/>
</g>
<g id="ID000086">
	<line class="st5" x1="254.3" y1="332.4" x2="254.3" y2="351.1"/>
</g>
<g id="ID000087">
	<line class="st5" x1="269.9" y1="332.4" x2="269.9" y2="351.1"/>
</g>
<g id="ID000088">
	<line class="st5" x1="285.5" y1="332.4" x2="285.5" y2="351.1"/>
</g>
<g id="ID000089">
	<line class="st5" x1="301" y1="332.4" x2="301" y2="351.1"/>
</g>
<g id="ID000090">
	<line class="st5" x1="316.6" y1="332.4" x2="316.6" y2="351.1"/>
</g>
<g id="ID000091">
	<line class="st5" x1="332.1" y1="332.4" x2="332.1" y2="351.1"/>
</g>
<g id="ID000092">
	<polygon class="st7" points="332.1,344.9 332.3,344.9 332.6,344.9 332.7,344.9 332.9,344.9 333.1,344.8 333.3,344.6 333.4,344.6 
		333.7,344.5 333.8,344.4 334,344.3 334.1,344.1 334.3,344 334.4,343.9 334.5,343.8 334.6,343.6 334.8,343.4 334.9,343.3 335,343 
		335,342.9 335.1,342.7 335.1,342.5 335.2,342.3 335.2,342.2 335.2,341.9 335.2,341.7 335.2,341.6 335.2,341.3 335.1,341.2 
		335.1,341 335.1,340.7 335,340.6 334.9,340.4 334.9,340.2 334.8,340.1 334.6,339.9 334.5,339.8 334.4,339.6 334.1,339.5 334,339.4 
		333.9,339.3 333.8,339.1 333.5,339 333.4,338.9 333.2,338.9 333.1,338.8 332.8,338.8 332.6,338.8 332.5,338.6 332.2,338.6 
		332.1,338.6 331.8,338.6 331.6,338.8 331.5,338.8 331.2,338.8 331.1,338.9 330.9,338.9 330.7,339 330.5,339.1 330.4,339.3 
		330.2,339.4 330,339.5 329.9,339.6 329.8,339.8 329.6,339.9 329.5,340.1 329.4,340.2 329.4,340.4 329.3,340.6 329.1,340.7 
		329.1,341 329,341.2 329,341.3 329,341.6 329,341.7 329,341.9 329,342.2 329,342.3 329.1,342.5 329.1,342.7 329.3,342.9 329.3,343 
		329.4,343.3 329.5,343.4 329.6,343.6 329.8,343.8 329.9,343.9 330,344 330.1,344.1 330.2,344.3 330.5,344.4 330.6,344.5 
		330.7,344.6 331,344.6 331.1,344.8 331.4,344.9 331.6,344.9 331.7,344.9 332,344.9 	"/>
</g>
<g id="ID000093">
	<text transform="matrix(1 0 0 1 490.23 290.45)" class="st4 st1 st2">A</text>
</g>
<g id="ID000094">
	<text transform="matrix(1 0 0 1 497.57 278.78)" class="st4 st1 st2">C</text>
</g>
<g id="ID000095">
	<text transform="matrix(1 0 0 1 504.9 267.11)" class="st4 st1 st2">G</text>
</g>
<g id="ID000096">
	<text transform="matrix(1 0 0 1 516.58 259.33)" class="st4 st1 st2">G</text>
</g>
<g id="ID000097">
	<text transform="matrix(1 0 0 1 528.24 255.44)" class="st4 st1 st2">G</text>
</g>
<g id="ID000098">
	<text transform="matrix(1 0 0 1 528.69 239.88)" class="st8 st1 st2">U</text>
</g>
<g id="ID000099">
	<text transform="matrix(1 0 0 1 528.69 224.32)" class="st8 st1 st2">C</text>
</g>
<g id="ID000100">
	<line class="st3" x1="524.1" y1="217.4" x2="513.7" y2="217.4"/>
</g>
<g id="ID000101">
	<text transform="matrix(1 0 0 1 496.02 224.32)" class="st1 st2">30</text>
</g>
<g id="ID000102">
	<text transform="matrix(1 0 0 1 571.48 216.54)" class="st8 st1 st2">U</text>
</g>
<g id="ID000103">
	<text transform="matrix(1 0 0 1 559.37 224.32)" class="st8 st1 st2">G</text>
</g>
<g id="ID000104">
	<text transform="matrix(1 0 0 1 560.24 239.88)" class="st8 st1 st2">A</text>
</g>
<g id="ID000105">
	<text transform="matrix(1 0 0 1 559.37 255.44)" class="st4 st1 st2">G</text>
</g>
<g id="ID000106">
	<text transform="matrix(1 0 0 1 559.81 271)" class="st4 st1 st2">U</text>
</g>
<g id="ID000107">
	<text transform="matrix(1 0 0 1 560.24 286.56)" class="st4 st1 st2">A</text>
</g>
<g id="ID000108">
	<text transform="matrix(1 0 0 1 559.37 302.12)" class="st4 st1 st2">G</text>
</g>
<g id="ID000109">
	<text transform="matrix(1 0 0 1 560.24 317.68)" class="st4 st1 st2">A</text>
</g>
<g id="ID000110">
	<text transform="matrix(1 0 0 1 559.37 337.13)" class="st4 st1 st2">G</text>
</g>
<g id="ID000111">
	<text transform="matrix(1 0 0 1 548.14 352.69)" class="st4 st1 st2">U</text>
</g>
<g id="ID000112">
	<line class="st3" x1="564.2" y1="345.7" x2="574.7" y2="345.7"/>
</g>
<g id="ID000113">
	<text transform="matrix(1 0 0 1 574.61 352.69)" class="st1 st2">60</text>
</g>
<g id="ID000114">
	<line class="st5" x1="509.5" y1="271" x2="559.3" y2="264.8"/>
</g>
<g id="ID000115">
	<polygon class="st6" points="527.7,271.9 533.8,271.1 533.1,264.9 526.9,265.6 	"/>
</g>
<g id="ID000116">
	<polygon class="st6" points="541.5,267 541.5,266.9 541.4,266.6 541.4,266.4 541.3,266.2 541.3,266 541.2,265.9 541,265.8 
		540.9,265.5 540.8,265.4 540.7,265.3 540.5,265.1 540.4,265 540.3,264.9 540,264.8 539.9,264.7 539.7,264.5 539.6,264.5 
		539.3,264.4 539.2,264.4 539,264.3 538.8,264.3 538.6,264.3 538.3,264.3 538.2,264.3 538,264.3 537.9,264.3 537.6,264.4 
		537.4,264.4 537.2,264.5 537,264.5 536.9,264.7 536.8,264.8 536.5,264.9 536.4,265 536.3,265.1 536.2,265.3 536,265.5 535.9,265.6 
		535.8,265.8 535.7,266 535.5,266.1 535.5,266.4 535.4,266.5 535.4,266.7 535.4,266.9 535.3,267.1 535.3,267.3 535.3,267.5 
		535.3,267.7 535.3,267.8 535.4,268.1 535.4,268.3 535.5,268.4 535.5,268.7 535.7,268.8 535.8,268.9 535.9,269.2 536,269.3 
		536.2,269.4 536.3,269.6 536.4,269.8 536.5,269.9 536.8,270 536.9,270 537,270.1 537.2,270.3 537.4,270.3 537.6,270.4 537.7,270.4 
		538,270.5 538.2,270.5 538.3,270.5 538.6,270.5 538.7,270.5 539,270.5 539.2,270.4 539.3,270.4 539.6,270.3 539.7,270.3 
		539.9,270.1 540,270 540.2,269.9 540.4,269.8 540.5,269.6 540.7,269.5 540.8,269.4 540.9,269.3 541,269 541.2,268.9 541.3,268.7 
		541.3,268.6 541.4,268.3 541.4,268.2 541.5,268 541.5,267.8 541.5,267.6 541.5,267.3 541.5,267.2 	"/>
</g>
<g id="ID000117">
	<line class="st5" x1="525.8" y1="257.8" x2="562.5" y2="324.6"/>
</g>
<g id="ID000118">
	<polygon class="st7" points="540.7,285 540.5,285 540.4,285.1 540.2,285.3 540,285.4 539.9,285.5 539.8,285.8 539.7,285.9 
		539.6,286 539.4,286.2 539.3,286.4 539.3,286.6 539.2,286.7 539.2,287 539.1,287.1 539.1,287.3 539.1,287.6 539.1,287.7 
		539.1,287.9 539.1,288.1 539.2,288.3 539.2,288.5 539.2,288.7 539.3,288.9 539.4,289 539.4,289.3 539.6,289.4 539.7,289.5 
		539.8,289.8 539.9,289.9 540,290 540.3,290.1 540.4,290.3 540.5,290.4 540.8,290.5 540.9,290.5 541.2,290.6 541.3,290.6 
		541.5,290.7 541.6,290.7 541.9,290.7 542.1,290.7 542.2,290.7 542.5,290.7 542.6,290.7 542.9,290.7 543.1,290.6 543.2,290.6 
		543.5,290.5 543.6,290.5 543.8,290.4 544,290.3 544.1,290.1 544.2,290 544.4,289.9 544.6,289.8 544.7,289.5 544.8,289.4 
		544.9,289.3 544.9,289 545,288.9 545.2,288.7 545.2,288.5 545.3,288.3 545.3,288.2 545.3,287.9 545.3,287.7 545.3,287.6 
		545.3,287.3 545.3,287.2 545.2,287 545.2,286.7 545,286.6 545,286.4 544.9,286.2 544.8,286.1 544.7,285.9 544.6,285.8 544.4,285.6 
		544.3,285.4 544.2,285.3 544.1,285.1 543.8,285 543.7,285 543.6,284.9 543.3,284.8 543.2,284.8 543,284.6 542.9,284.6 542.6,284.6 
		542.4,284.5 542.2,284.5 542,284.5 541.8,284.6 541.6,284.6 541.4,284.6 541.3,284.8 541,284.8 540.9,284.9 	"/>
</g>
<g id="ID000119">
	<polygon class="st7" points="550.3,296 547.4,290.5 541.9,293.5 544.8,299 	"/>
</g>
<g id="ID000120">
	<line class="st5" x1="540.7" y1="232.8" x2="559.3" y2="232.8"/>
</g>
<g id="ID000121">
	<line class="st5" x1="536.8" y1="238.7" x2="563.2" y2="304.9"/>
</g>
<g id="ID000122">
	<polygon class="st7" points="547,264.3 546,271.2 552.5,268.6 	"/>
</g>
<g id="ID000123">
	<polygon class="st7" points="552.6,278.4 552.8,278.3 553,278.3 553.2,278.2 553.3,278.1 553.5,277.9 553.6,277.8 553.7,277.7 
		554,277.5 554.1,277.3 554.1,277.2 554.2,277 554.3,276.9 554.4,276.6 554.4,276.5 554.6,276.2 554.6,276.1 554.6,275.9 
		554.6,275.6 554.6,275.5 554.6,275.3 554.6,275.1 554.6,274.9 554.4,274.6 554.4,274.5 554.3,274.3 554.3,274.2 554.2,273.9 
		554.1,273.8 554,273.7 553.8,273.6 553.7,273.3 553.6,273.2 553.5,273.1 553.2,273 553.1,272.8 552.8,272.8 552.7,272.7 
		552.5,272.6 552.4,272.6 552.1,272.5 552,272.5 551.8,272.5 551.6,272.5 551.4,272.5 551.1,272.5 551,272.5 550.8,272.5 
		550.7,272.6 550.4,272.6 550.3,272.7 550,272.8 549.9,272.8 549.7,273 549.6,273.1 549.4,273.2 549.3,273.3 549.1,273.6 549,273.7 
		548.8,273.8 548.8,273.9 548.7,274.2 548.6,274.3 548.6,274.5 548.5,274.6 548.5,274.9 548.3,275.1 548.3,275.3 548.3,275.5 
		548.3,275.6 548.3,275.9 548.5,276.1 548.5,276.2 548.5,276.5 548.6,276.6 548.7,276.9 548.7,277 548.8,277.2 549,277.3 
		549.1,277.5 549.2,277.7 549.3,277.8 549.4,277.9 549.7,278.1 549.8,278.2 549.9,278.3 550.2,278.3 550.3,278.4 550.5,278.4 
		550.7,278.5 550.9,278.5 551,278.7 551.3,278.7 551.5,278.7 551.6,278.7 551.9,278.7 552.1,278.5 552.2,278.5 552.5,278.4 	"/>
</g>
<g id="ID000124">
	<line class="st9" x1="534.4" y1="211.1" x2="534.4" y2="188.6"/>
</g>
<g id="ID000125">
	<polygon class="st7" points="529.7,205 532.1,202.4 532.9,199.8 533.2,197.2 534.4,192 535.5,197.2 536,199.8 536.8,202.4 
		539.1,205 	"/>
</g>
<g id="ID000126">
	<line class="st5" x1="540.7" y1="217.4" x2="559.3" y2="217.4"/>
</g>
<g id="ID000127">
	<text transform="matrix(1 0 0 1 528.69 189.31)" class="st8 st1 st2">C</text>
</g>
<g id="ID000128">
	<text transform="matrix(1 0 0 1 529.12 173.75)" class="st8 st1 st2">A</text>
</g>
<g id="ID000129">
	<text transform="matrix(1 0 0 1 528.24 158.19)" class="st8 st1 st2">G</text>
</g>
<g id="ID000130">
	<text transform="matrix(1 0 0 1 528.69 142.63)" class="st8 st1 st2">U</text>
</g>
<g id="ID000131">
	<text transform="matrix(1 0 0 1 528.24 127.07)" class="st8 st1 st2">G</text>
</g>
<g id="ID000132">
	<text transform="matrix(1 0 0 1 528.69 111.51)" class="st8 st1 st2">C</text>
</g>
<g id="ID000133">
	<text transform="matrix(1 0 0 1 528.24 95.95)" class="st8 st1 st2">G</text>
</g>
<g id="ID000134">
	<text transform="matrix(1 0 0 1 521.34 80.39)" class="st10 st1 st2">A</text>
</g>
<g id="ID000135">
	<text transform="matrix(1 0 0 1 528.24 68.72)" class="st10 st1 st2">G</text>
</g>
<g id="ID000136">
	<text transform="matrix(1 0 0 1 544.68 60.94)" class="st10 st1 st2">A</text>
</g>
<g id="ID000139">
	<text transform="matrix(1 0 0 1 559.81 68.72)" class="st10 st1 st2">C</text>
</g>
<g id="ID000140">
	<text transform="matrix(1 0 0 1 567.59 80.39)" class="st10 st1 st2">C</text>
</g>
<g id="ID000141">
	<text transform="matrix(1 0 0 1 559.81 95.95)" class="st8 st1 st2">C</text>
</g>
<g id="ID000142">
	<text transform="matrix(1 0 0 1 559.37 111.51)" class="st8 st1 st2">G</text>
</g>
<g id="ID000143">
	<text transform="matrix(1 0 0 1 559.81 127.07)" class="st8 st1 st2">C</text>
</g>
<g id="ID000144">
	<text transform="matrix(1 0 0 1 560.24 142.63)" class="st8 st1 st2">A</text>
</g>
<g id="ID000145">
	<text transform="matrix(1 0 0 1 559.81 158.19)" class="st8 st1 st2">C</text>
</g>
<g id="ID000146">
	<text transform="matrix(1 0 0 1 559.81 173.75)" class="st8 st1 st2">U</text>
</g>
<g id="ID000147">
	<text transform="matrix(1 0 0 1 559.37 189.31)" class="st8 st1 st2">G</text>
</g>
<g id="ID000148">
	<text transform="matrix(1 0 0 1 571.48 200.98)" class="st8 st1 st2">U</text>
</g>
<g id="ID000149">
	<line class="st3" x1="587.6" y1="193.9" x2="598" y2="193.9"/>
</g>
<g id="ID000150">
	<text transform="matrix(1 0 0 1 597.95 200.98)" class="st1 st2">50</text>
</g>
<g id="ID000151">
	<line class="st5" x1="540.7" y1="182.2" x2="559.3" y2="182.2"/>
</g>
<g id="ID000152">
	<line class="st5" x1="540.7" y1="166.8" x2="559.3" y2="166.8"/>
</g>
<g id="ID000153">
	<line class="st5" x1="540.7" y1="151.2" x2="559.3" y2="151.2"/>
</g>
<g id="ID000154">
	<line class="st5" x1="540.7" y1="135.7" x2="559.3" y2="135.7"/>
</g>
<g id="ID000155">
	<line class="st5" x1="540.7" y1="120.1" x2="559.3" y2="120.1"/>
</g>
<g id="ID000156">
	<line class="st5" x1="540.7" y1="104.5" x2="559.3" y2="104.5"/>
</g>
<g id="ID000157">
	<line class="st5" x1="540.7" y1="89" x2="559.3" y2="89"/>
</g>
<g id="ID000158">
	<line class="st5" x1="540.4" y1="63.5" x2="567.4" y2="71.6"/>
</g>
<g id="ID000159">
	<polygon class="st6" points="546.2,65.2 550.9,70.3 553,63.6 	"/>
</g>
<g id="ID000160">
	<polygon class="st6" points="560.8,69.6 560.8,69.4 560.8,69.2 560.9,69 560.9,68.9 560.9,68.6 560.9,68.4 560.8,68.3 560.8,68 
		560.8,67.9 560.7,67.7 560.7,67.5 560.5,67.3 560.4,67.2 560.3,66.9 560.2,66.8 560,66.7 559.9,66.6 559.8,66.3 559.7,66.2 
		559.4,66.2 559.3,66.1 559.2,65.9 559,65.8 558.8,65.8 558.6,65.7 558.3,65.7 558.2,65.6 558,65.6 557.8,65.6 557.6,65.6 
		557.4,65.6 557.2,65.7 557,65.7 556.9,65.7 556.6,65.8 556.5,65.8 556.3,65.9 556.1,66.1 555.9,66.2 555.8,66.3 555.7,66.4 
		555.5,66.6 555.4,66.7 555.3,66.8 555.2,67 555,67.2 554.9,67.4 554.8,67.5 554.8,67.8 554.7,67.9 554.7,68.1 554.7,68.3 
		554.7,68.5 554.7,68.7 554.7,68.9 554.7,69.1 554.7,69.2 554.7,69.5 554.8,69.7 554.8,69.8 554.9,70.1 555,70.2 555.2,70.3 
		555.2,70.6 555.3,70.7 555.5,70.8 555.7,70.9 555.8,71.1 555.9,71.2 556.1,71.3 556.3,71.4 556.4,71.6 556.6,71.6 556.8,71.7 
		557,71.7 557.2,71.8 557.4,71.8 557.6,71.8 557.7,71.8 558,71.8 558.2,71.8 558.3,71.8 558.6,71.7 558.7,71.7 559,71.6 559.1,71.6 
		559.3,71.4 559.4,71.3 559.6,71.2 559.8,71.1 559.9,70.9 560,70.8 560.2,70.7 560.3,70.5 560.4,70.3 560.5,70.2 560.5,70 
		560.7,69.8 	"/>
</g>
<text transform="matrix(1 0 0 1 293.86 32.5535)" class="st1 st11">Spinach aptamer</text>
<text transform="matrix(1 0 0 1 170.6536 311.0206)" class="st1 st11">5’</text>
<text transform="matrix(1 0 0 1 170.0927 390.5859)" class="st1 st11">3’</text>
</svg>
