<?xml version="1.0" encoding="utf-8"?>
<!-- Generator: Adobe Illustrator 25.2.0, SVG Export Plug-In . SVG Version: 6.00 Build 0)  -->
<svg version="1.1" id="图层_1" xmlns="http://www.w3.org/2000/svg" xmlns:xlink="http://www.w3.org/1999/xlink" x="0px" y="0px"
	 viewBox="0 0 800 400" style="enable-background:new 0 0 800 400;" xml:space="preserve">
<style type="text/css">
	.st0{fill:#8527B5;}
	.st1{fill:#B83233;}
	.st2{font-family:'ArialMT';}
	.st3{font-size:20.7673px;}
	.st4{fill:none;stroke:#000000;stroke-width:0.14;stroke-miterlimit:1.11;}
	.st5{font-size:17px;}
	.st6{fill:#2EA103;}
	.st7{fill:#F17D07;}
	.st8{font-size:18px;}
	.st9{fill:none;stroke:#000000;stroke-miterlimit:1.11;}
	.st10{fill:#084595;}
	.st11{stroke:#000000;stroke-width:0.14;stroke-miterlimit:1.11;}
	.st12{fill:#C2B617;}
	.st13{fill:none;stroke:#000000;stroke-width:0.94;stroke-miterlimit:1.11;}
	.st14{fill:#FFFFFF;stroke:#000000;stroke-width:0.14;stroke-miterlimit:1.11;}
	.st15{fill:#FFFFFF;}
	.st16{font-size:17.2751px;}
	.st17{font-size:20px;}
</style>
<rect x="336.9" y="184.9" transform="matrix(1 -2.094384e-03 2.094384e-03 1 -0.4694 0.7362)" class="st0" width="28.7" height="79.3"/>
<g>
	<text transform="matrix(1 0 0 1 104.5942 197.2308)" class="st1 st2 st3">G</text>
</g>
<g>
	<text transform="matrix(1 0 0 1 125.6469 197.2308)" class="st1 st2 st3">G</text>
</g>
<g>
	<text transform="matrix(1 0 0 1 147.8483 197.2318)" class="st1 st2 st3">A</text>
</g>
<g>
	<text transform="matrix(1 0 0 1 170.2601 197.2396)" class="st1 st2 st3">A</text>
</g>
<g>
	<text transform="matrix(1 0 0 1 188.812 197.2308)" class="st1 st2 st3">G</text>
</g>
<g>
	<text transform="matrix(1 0 0 1 211.0104 197.2318)" class="st1 st2 st3">A</text>
</g>
<g>
	<text transform="matrix(1 0 0 1 231.4799 197.2259)" class="st1 st2 st3">U</text>
</g>
<g>
	<text transform="matrix(1 0 0 1 253.1032 197.2318)" class="st1 st2 st3">A</text>
</g>
<g>
	<text transform="matrix(1 0 0 1 273.5891 197.2259)" class="st1 st2 st3">C</text>
</g>
<line class="st4" x1="274.3" y1="178.2" x2="264.4" y2="168.3"/>
<text transform="matrix(1 0 0 1 236.9088 164.2884)" class="st2 st5">10</text>
<text transform="matrix(1 0 0 1 295.2075 197.2318)" class="st6 st2 st3">A</text>
<text transform="matrix(1 0 0 1 321.5287 197.2318)" class="st6 st2 st3">A</text>
<text transform="matrix(1 0 0 1 346.6985 181.4398)" class="st6 st2 st3">G</text>
<text transform="matrix(1 0 0 1 366.4192 163.0521)" class="st6 st2 st3">G</text>
<text transform="matrix(1 0 0 1 358.3727 286.7103)" class="st7 st2 st3">A</text>
<line class="st4" x1="361.7" y1="291.1" x2="361.7" y2="305.1"/>
<text transform="matrix(1 0 0 1 349.6027 324.2357)" class="st2 st8">70</text>
<text transform="matrix(1 0 0 1 330.9072 286.7113)" class="st6 st2 st3">G</text>
<text transform="matrix(1 0 0 1 320.9606 239.3343)" class="st6 st2 st3">C</text>
<text transform="matrix(1 0 0 1 294.0615 239.3382)" class="st6 st2 st3">G</text>
<text transform="matrix(1 0 0 1 273.0117 240.805)" class="st1 st2 st3">G</text>
<text transform="matrix(1 0 0 1 252.3059 240.805)" class="st1 st2 st3">U</text>
<text transform="matrix(1 0 0 1 233.7974 240.805)" class="st1 st2 st3">A</text>
<text transform="matrix(1 0 0 1 210.4423 240.805)" class="st1 st2 st3">U</text>
<text transform="matrix(1 0 0 1 189.3906 240.805)" class="st1 st2 st3">C</text>
<text transform="matrix(1 0 0 1 168.3163 240.805)" class="st1 st2 st3">U</text>
<text transform="matrix(1 0 0 1 147.2802 240.805)" class="st1 st2 st3">U</text>
<line class="st4" x1="155.2" y1="247.6" x2="155.2" y2="261.6"/>
<text transform="matrix(1 0 0 1 143.2286 280.642)" class="st2 st8">80</text>
<text transform="matrix(1 0 0 1 126.2255 240.805)" class="st1 st2 st3">C</text>
<text transform="matrix(1 0 0 1 105.1728 240.805)" class="st1 st2 st3">C</text>
<text transform="matrix(1 0 0 1 84.1172 240.8053)" class="st1 st2 st3">C</text>
<line class="st9" x1="113.2" y1="198.1" x2="113.2" y2="223.4"/>
<line class="st9" x1="134.3" y1="198.1" x2="134.3" y2="223.4"/>
<line class="st9" x1="155.2" y1="198.1" x2="155.2" y2="223.4"/>
<line class="st9" x1="176.3" y1="198.1" x2="176.3" y2="223.4"/>
<line class="st9" x1="197.4" y1="198.1" x2="197.4" y2="223.4"/>
<line class="st9" x1="218.5" y1="198.1" x2="218.5" y2="223.4"/>
<line class="st9" x1="239.6" y1="198.1" x2="239.6" y2="223.4"/>
<line class="st9" x1="260.5" y1="198.1" x2="260.5" y2="223.4"/>
<line class="st9" x1="281.6" y1="198.1" x2="281.6" y2="223.4"/>
<g>
	<text transform="matrix(1 0 0 1 420.9662 155.1175)" class="st6 st2 st3">U</text>
</g>
<g>
	<text transform="matrix(1 0 0 1 442.1178 156.6517)" class="st6 st2 st3">G</text>
</g>
<g>
	<text transform="matrix(1 0 0 1 468.9055 155.1224)" class="st6 st2 st3">A</text>
</g>
<g>
	<text transform="matrix(1 0 0 1 488.8144 160.3851)" class="st10 st2 st3">G</text>
</g>
<g>
	<text transform="matrix(1 0 0 1 510.4411 160.3812)" class="st10 st2 st3">C</text>
</g>
<g>
	<text transform="matrix(1 0 0 1 531.4977 160.3812)" class="st10 st2 st3">C</text>
</g>
<line class="st4" x1="539.5" y1="138.9" x2="539.5" y2="124.7"/>
<text transform="matrix(1 0 0 1 527.4469 120.764)" class="st2 st8">20</text>
<g>
	<text transform="matrix(1 0 0 1 552.5358 160.3822)" class="st10 st2 st3">C</text>
</g>
<g>
	<text transform="matrix(1 0 0 1 574.1596 160.3861)" class="st10 st2 st3">A</text>
</g>
<g>
	<text transform="matrix(1 0 0 1 595.2123 160.3861)" class="st10 st2 st3">A</text>
</g>
<g>
	<text transform="matrix(1 0 0 1 615.696 155.1185)" class="st10 st2 st3">U</text>
</g>
<g>
	<text transform="matrix(1 0 0 1 637.3207 155.1214)" class="st10 st2 st3">A</text>
</g>
<g>
	<text transform="matrix(1 0 0 1 658.3754 155.1214)" class="st10 st2 st3">A</text>
</g>
<text transform="matrix(1 0 0 1 615.6965 202.4896)" class="st10 st2 st3">U</text>
<text transform="matrix(1 0 0 1 594.6437 202.4896)" class="st10 st2 st3">U</text>
<text transform="matrix(1 0 0 1 573.591 202.4896)" class="st10 st2 st3">U</text>
<text transform="matrix(1 0 0 1 551.9582 202.4955)" class="st10 st2 st3">G</text>
<text transform="matrix(1 0 0 1 530.9201 202.4945)" class="st10 st2 st3">G</text>
<text transform="matrix(1 0 0 1 509.8632 202.4945)" class="st10 st2 st3">G</text>
<text transform="matrix(1 0 0 1 489.3925 202.4886)" class="st10 st2 st3">U</text>
<text transform="matrix(1 0 0 1 468.3369 202.4896)" class="st6 st2 st3">U</text>
<text transform="matrix(1 0 0 1 442.59 202.4945)" class="st6 st2 st3">A</text>
<text transform="matrix(1 0 0 1 420.3887 202.4945)" class="st6 st2 st3">G</text>
<text transform="matrix(1 0 0 1 399.3332 207.7591)" class="st6 st2 st3">G</text>
<text transform="matrix(1 0 0 1 379.4245 218.2855)" class="st6 st2 st3">A</text>
<text transform="matrix(1 0 0 1 378.8561 239.3343)" class="st6 st2 st3">U</text>
<text transform="matrix(1 0 0 1 400.4799 244.6029)" class="st6 st2 st3">A</text>
<polygon class="st11" points="497.4,178 497.7,178 497.9,178 498.2,178 498.5,178 498.7,177.9 499.1,177.9 499.2,177.7 499.6,177.5 
	499.7,177.4 499.9,177.4 500.1,177.2 500.4,177 500.6,176.7 500.7,176.5 500.9,176.4 501.1,176.2 501.1,175.9 501.2,175.7 
	501.4,175.3 501.4,175.2 501.6,174.8 501.6,174.7 501.6,174.3 501.6,174.2 501.6,173.8 501.6,173.7 501.6,173.3 501.6,173 
	501.4,172.8 501.4,172.5 501.2,172.3 501.2,172 501.1,171.8 500.9,171.6 500.7,171.3 500.6,171.1 500.4,171 500.2,170.8 
	500.1,170.6 499.9,170.5 499.6,170.3 499.4,170.1 499.1,170.1 498.9,169.9 498.5,169.9 498.4,169.8 498,169.8 497.9,169.8 
	497.5,169.6 497.4,169.6 497,169.8 496.7,169.8 496.5,169.8 496.2,169.9 496,169.9 495.7,170.1 495.5,170.1 495.3,170.3 495,170.5 
	494.8,170.6 494.7,170.8 494.5,171 494.3,171.1 494,171.3 494,171.6 493.8,171.8 493.7,172 493.5,172.3 493.5,172.5 493.3,172.8 
	493.3,173 493.3,173.3 493.1,173.7 493.1,173.8 493.1,174.2 493.1,174.3 493.3,174.7 493.3,174.8 493.3,175.2 493.5,175.3 
	493.7,175.7 493.7,175.9 493.8,176.2 494,176.4 494.2,176.5 494.3,176.7 494.5,177 494.7,177.2 494.8,177.4 495.2,177.4 
	495.3,177.5 495.7,177.7 495.8,177.9 496.2,177.9 496.4,178 496.7,178 496.9,178 497.2,178 "/>
<line class="st9" x1="518.5" y1="161.3" x2="518.5" y2="186.5"/>
<line class="st9" x1="539.5" y1="161.3" x2="539.5" y2="186.5"/>
<line class="st9" x1="560.6" y1="161.3" x2="560.6" y2="186.5"/>
<line class="st9" x1="581.7" y1="161.3" x2="581.7" y2="186.5"/>
<line class="st9" x1="602.6" y1="161.3" x2="602.6" y2="186.5"/>
<g>
	<text transform="matrix(1 0 0 1 678.8591 155.1175)" class="st10 st2 st3">U</text>
</g>
<g>
	<text transform="matrix(1 0 0 1 695.2211 176.1761)" class="st10 st2 st3">A</text>
</g>
<text transform="matrix(1 0 0 1 678.8596 202.4886)" class="st10 st2 st3">U</text>
<text transform="matrix(1 0 0 1 657.2287 202.4945)" class="st10 st2 st3">G</text>
<line class="st4" x1="665.9" y1="180.9" x2="665.9" y2="166.9"/>
<text transform="matrix(1 0 0 1 636.174 202.4945)" class="st10 st2 st3">G</text>
<g>
	<text transform="matrix(1 0 0 1 636.7524 244.598)" class="st12 st2 st3">C</text>
</g>
<g>
	<text transform="matrix(1 0 0 1 657.8071 244.598)" class="st12 st2 st3">C</text>
</g>
<g>
	<text transform="matrix(1 0 0 1 678.8598 244.598)" class="st12 st2 st3">U</text>
</g>
<g>
	<text transform="matrix(1 0 0 1 689.3862 276.1771)" class="st12 st2 st3">U</text>
</g>
<g>
	<text transform="matrix(1 0 0 1 679.4282 291.975)" class="st12 st2 st3">A</text>
</g>
<line class="st4" x1="687" y1="298.5" x2="687" y2="312.5"/>
<text transform="matrix(1 0 0 1 674.8087 331.5902)" class="st2 st8">60</text>
<line class="st9" x1="665.9" y1="203.4" x2="665.9" y2="228.7"/>
<line class="st9" x1="644.8" y1="203.4" x2="644.8" y2="228.7"/>
<text transform="matrix(1 0 0 1 420.3889 249.8656)" class="st6 st2 st3">G</text>
<text transform="matrix(1 0 0 1 441.4436 249.8656)" class="st6 st2 st3">G</text>
<text transform="matrix(1 0 0 1 463.6389 249.8656)" class="st6 st2 st3">A</text>
<text transform="matrix(1 0 0 1 484.6945 249.8646)" class="st6 st2 st3">A</text>
<g>
	<text transform="matrix(1 0 0 1 504.6037 244.6)" class="st12 st2 st3">G</text>
</g>
<g>
	<text transform="matrix(1 0 0 1 526.2365 244.598)" class="st12 st2 st3">U</text>
</g>
<g>
	<text transform="matrix(1 0 0 1 547.8381 244.6019)" class="st12 st2 st3">A</text>
</g>
<g>
	<text transform="matrix(1 0 0 1 567.7484 244.6)" class="st12 st2 st3">G</text>
</g>
<g>
	<text transform="matrix(1 0 0 1 589.9496 244.6019)" class="st12 st2 st3">A</text>
</g>
<g>
	<text transform="matrix(1 0 0 1 609.8578 244.6)" class="st12 st2 st3">G</text>
</g>
<g>
	<text transform="matrix(1 0 0 1 653.1118 297.2386)" class="st12 st2 st3">A</text>
</g>
<text transform="matrix(1 0 0 1 632.0571 286.7094)" class="st12 st2 st3">A</text>
<text transform="matrix(1 0 0 1 610.4359 286.7054)" class="st12 st2 st3">C</text>
<text transform="matrix(1 0 0 1 589.381 286.7054)" class="st12 st2 st3">U</text>
<text transform="matrix(1 0 0 1 568.3264 286.7054)" class="st12 st2 st3">C</text>
<text transform="matrix(1 0 0 1 547.2697 286.7054)" class="st12 st2 st3">U</text>
<text transform="matrix(1 0 0 1 526.2365 286.7054)" class="st12 st2 st3">C</text>
<text transform="matrix(1 0 0 1 505.1819 286.7054)" class="st6 st2 st3">U</text>
<text transform="matrix(1 0 0 1 386.2179 286.4056)" class="st7 st2 st3">A</text>
<line class="st9" x1="555.2" y1="245.5" x2="555.2" y2="270.7"/>
<line class="st9" x1="576.3" y1="245.5" x2="576.3" y2="270.7"/>
<line class="st9" x1="597.4" y1="245.5" x2="597.4" y2="270.7"/>
<line class="st9" x1="618.5" y1="245.5" x2="618.5" y2="270.7"/>
<line class="st13" x1="504.8" y1="279.1" x2="400.5" y2="279.1"/>
<polygon class="st11" points="459.7,285.5 456.2,282.3 452.7,281.3 449.1,280.8 442.2,279.1 449.1,277.6 452.7,277.1 456.2,276.1 
	459.7,272.9 "/>
<line class="st13" x1="384.7" y1="152.1" x2="420.6" y2="148.4"/>
<polygon class="st11" points="395.8,145.8 398.8,147.8 401.5,148.4 404.2,148.4 409.5,149 404.4,150.7 401.7,151.4 399.2,152.4 
	396.8,154.9 "/>
<line class="st4" x1="441.7" y1="241.6" x2="338.1" y2="238.6"/>
<polygon class="st11" points="373,239.4 373,239.6 373,239.9 373,240.1 373,240.4 373,240.6 373.1,240.9 373.1,241.3 373.3,241.4 
	373.5,241.6 373.5,241.9 373.6,242.1 373.8,242.3 374,242.6 374.1,242.8 374.5,243 374.7,243.1 374.8,243.3 375,243.3 375.3,243.5 
	375.5,243.6 375.8,243.8 376,243.8 376.3,243.8 376.5,244 376.8,244 377.2,244 377.4,244 377.7,244 377.9,243.8 378.2,243.8 
	378.4,243.8 378.7,243.6 378.9,243.5 379.2,243.5 379.4,243.3 379.5,243.1 379.9,243 380.1,242.8 380.2,242.6 380.4,242.4 
	380.6,242.1 380.7,241.9 380.9,241.8 380.9,241.4 381.1,241.3 381.2,240.9 381.2,240.8 381.2,240.4 381.2,240.3 381.4,239.9 
	381.4,239.7 381.4,239.4 381.2,239.2 381.2,238.9 381.2,238.6 381.1,238.4 381.1,238.1 380.9,237.9 380.9,237.7 380.7,237.4 
	380.6,237.2 380.4,237 380.2,236.9 380.1,236.5 379.7,236.4 379.5,236.2 379.4,236.2 379,236 378.9,235.9 378.7,235.7 378.4,235.7 
	378,235.5 377.9,235.5 377.5,235.5 377.4,235.5 377,235.5 376.8,235.5 376.5,235.5 376.2,235.5 376,235.7 375.7,235.7 375.5,235.9 
	375.3,236 375,236 374.8,236.2 374.5,236.4 374.3,236.5 374.1,236.7 374,236.9 373.8,237.2 373.6,237.4 373.5,237.6 373.3,237.9 
	373.3,238.1 373.1,238.2 373.1,238.6 373,238.7 373,239.1 "/>
<line class="st9" x1="516.9" y1="244.5" x2="530.4" y2="271.7"/>
<polygon class="st11" points="525.7,261.9 525.9,261.7 526,261.6 526.4,261.4 526.6,261.4 526.7,261 526.9,260.9 527.1,260.7 
	527.2,260.5 527.4,260.2 527.4,260 527.6,259.9 527.7,259.5 527.7,259.4 527.9,259 527.9,258.9 527.9,258.5 527.9,258.2 527.9,258 
	527.9,257.7 527.9,257.5 527.9,257.2 527.7,257 527.7,256.7 527.6,256.5 527.4,256.2 527.4,256 527.2,255.6 527.1,255.5 
	526.9,255.3 526.7,255.1 526.6,255 526.2,254.8 526,254.6 525.9,254.5 525.5,254.3 525.4,254.3 525,254.1 524.9,254.1 524.5,254 
	524.4,254 524,254 523.9,254 523.5,254 523.2,254 523,254 522.7,254 522.5,254.1 522.2,254.1 522,254.3 521.7,254.5 521.5,254.6 
	521.3,254.6 521,254.8 520.8,255 520.6,255.3 520.5,255.5 520.3,255.6 520.1,255.8 520.1,256.2 520,256.3 519.8,256.5 519.8,256.8 
	519.6,257.2 519.6,257.3 519.6,257.7 519.5,257.8 519.5,258.2 519.5,258.3 519.6,258.7 519.6,258.9 519.6,259.2 519.8,259.5 
	519.8,259.7 520,259.9 520.1,260.2 520.1,260.4 520.3,260.5 520.5,260.9 520.6,261 520.8,261.2 521.2,261.4 521.3,261.6 
	521.5,261.7 521.8,261.9 522,261.9 522.3,262.1 522.5,262.2 522.7,262.2 523,262.2 523.3,262.2 523.5,262.4 523.9,262.4 524,262.2 
	524.4,262.2 524.7,262.2 524.9,262.2 525.2,262.1 525.4,262.1 "/>
<line class="st9" x1="426.7" y1="155.8" x2="389.9" y2="273.4"/>
<polygon class="st14" points="409.9,223.6 412.2,215.4 404.1,213.2 401.8,221.3 "/>
<polyline class="st9" points="695.3,147.5 729,147.5 729,290.4 668.9,289.7 "/>
<polygon class="st14" points="729.1,220.2 728.9,220.2 728.6,220.2 728.3,220.4 728.1,220.4 727.8,220.5 727.7,220.5 727.4,220.7 
	727.2,220.8 727.1,220.8 726.8,221 726.6,221.1 726.5,221.3 726.3,221.4 726.1,221.7 726,221.9 725.8,222 725.7,222.4 725.5,222.5 
	725.5,222.7 725.4,223 725.4,223.1 725.2,223.4 725.2,223.7 725.2,223.9 725.2,224.2 725.2,224.4 725.2,224.7 725.4,224.8 
	725.4,225.1 725.5,225.4 725.5,225.6 725.7,225.7 725.7,226 725.8,226.2 726,226.4 726.1,226.7 726.3,226.8 726.5,227 726.8,227.1 
	726.9,227.3 727.1,227.4 727.4,227.6 727.5,227.6 727.8,227.7 728,227.7 728.3,227.9 728.5,227.9 728.8,227.9 728.9,227.9 
	729.2,227.9 729.4,227.9 729.7,227.9 730,227.9 730.1,227.7 730.5,227.7 730.6,227.6 730.9,227.6 731.1,227.4 731.2,227.3 
	731.4,227.1 731.7,227 731.8,226.8 732,226.7 732.1,226.4 732.3,226.2 732.5,226 732.5,225.7 732.6,225.6 732.8,225.4 732.8,225.1 
	732.8,224.8 732.9,224.7 732.9,224.4 732.9,224.2 732.9,223.9 732.9,223.7 732.9,223.4 732.8,223.1 732.8,223 732.6,222.7 
	732.6,222.5 732.5,222.4 732.3,222 732.1,221.9 732,221.7 731.8,221.4 731.7,221.3 731.5,221.1 731.4,221 731.1,220.8 730.9,220.8 
	730.8,220.7 730.5,220.5 730.3,220.5 730,220.4 729.8,220.4 729.5,220.2 729.4,220.2 "/>
<polygon class="st14" points="732.9,237.9 732.9,230.2 725.2,230.2 725.2,237.9 "/>
<line class="st9" x1="475.4" y1="203.4" x2="472.1" y2="234.1"/>
<polygon class="st14" points="474.8,209.1 474.6,209.1 474.3,209.1 474.1,209.1 473.7,209.1 473.4,209.1 473.2,209.1 472.9,209.3 
	472.7,209.3 472.4,209.4 472.2,209.6 472.1,209.8 471.7,209.9 471.6,210.1 471.4,210.3 471.2,210.4 471,210.6 470.9,210.8 
	470.7,211.1 470.5,211.3 470.5,211.4 470.4,211.8 470.4,212 470.2,212.3 470.2,212.5 470.2,212.8 470.2,213.1 470.2,213.3 
	470.2,213.6 470.2,213.8 470.2,214.1 470.4,214.3 470.4,214.7 470.5,214.8 470.5,215.2 470.7,215.3 470.9,215.7 471,215.8 
	471.2,216 471.4,216.2 471.6,216.3 471.7,216.5 472.1,216.7 472.2,216.8 472.4,217 472.7,217.2 472.9,217.2 473.2,217.4 
	473.4,217.4 473.7,217.4 474.1,217.4 474.3,217.4 474.6,217.4 474.8,217.4 475.1,217.4 475.3,217.4 475.6,217.2 475.8,217.2 
	476.1,217 476.3,216.8 476.6,216.8 476.8,216.7 477,216.5 477.1,216.3 477.5,216.2 477.6,215.8 477.8,215.7 478,215.5 478,215.2 
	478.1,215 478.3,214.8 478.3,214.5 478.5,214.3 478.5,214 478.5,213.8 478.5,213.5 478.5,213.1 478.5,213 478.5,212.6 478.5,212.5 
	478.5,212.1 478.3,212 478.3,211.6 478.1,211.4 478,211.1 478,210.9 477.8,210.8 477.6,210.4 477.5,210.3 477.1,210.1 477,209.9 
	476.8,209.8 476.6,209.6 476.3,209.4 476.1,209.4 475.8,209.3 475.6,209.3 475.3,209.1 475.1,209.1 "/>
<polygon class="st14" points="476.8,228.7 477.8,220.4 469.4,219.4 468.5,227.8 "/>
<line class="st9" x1="623.7" y1="155.9" x2="623.7" y2="186.5"/>
<polygon class="st11" points="623.7,175.5 624.1,175.5 624.2,175.5 624.6,175.3 624.7,175.3 625.1,175.3 625.2,175.2 625.6,175 
	625.7,175 626.1,174.8 626.3,174.7 626.4,174.5 626.6,174.3 626.8,174.2 626.9,174 627.1,173.7 627.3,173.5 627.4,173.3 627.6,173 
	627.6,172.8 627.8,172.5 627.8,172.3 627.9,172 627.9,171.8 627.9,171.5 627.9,171.1 627.9,171 627.9,170.6 627.8,170.5 
	627.8,170.1 627.8,169.9 627.6,169.6 627.6,169.4 627.4,169.1 627.3,168.9 627.1,168.8 626.9,168.6 626.8,168.3 626.6,168.1 
	626.4,167.9 626.1,167.8 625.9,167.8 625.7,167.6 625.4,167.4 625.2,167.2 624.9,167.2 624.7,167.1 624.4,167.1 624.2,167.1 
	623.9,167.1 623.6,167.1 623.4,167.1 623,167.1 622.9,167.1 622.5,167.2 622.4,167.2 622,167.4 621.9,167.6 621.5,167.8 
	621.4,167.8 621.2,167.9 620.9,168.1 620.7,168.3 620.5,168.6 620.3,168.8 620.2,168.9 620,169.1 620,169.4 619.8,169.6 
	619.8,169.9 619.7,170.1 619.7,170.5 619.5,170.6 619.5,171 619.5,171.1 619.5,171.5 619.5,171.8 619.7,172 619.7,172.3 
	619.7,172.5 619.8,172.8 619.8,173 620,173.3 620.2,173.5 620.3,173.7 620.5,174 620.7,174.2 620.9,174.3 621,174.5 621.2,174.7 
	621.5,174.8 621.7,175 621.9,175 622.2,175.2 622.4,175.3 622.7,175.3 622.9,175.3 623.2,175.5 623.4,175.5 "/>
<line class="st9" x1="665.9" y1="155.9" x2="665.9" y2="186.5"/>
<polygon class="st11" points="665.9,161.7 665.6,161.7 665.4,161.7 665.1,161.7 664.7,161.7 664.5,161.9 664.2,161.9 664,162 
	663.7,162.2 663.5,162.2 663.4,162.4 663.2,162.5 663,162.7 662.7,162.9 662.5,163.2 662.4,163.4 662.2,163.5 662.2,163.9 662,164 
	661.9,164.4 661.9,164.6 661.7,164.9 661.7,165.1 661.7,165.4 661.7,165.6 661.7,165.9 661.7,166.1 661.7,166.4 661.7,166.7 
	661.9,166.9 661.9,167.2 662,167.4 662,167.8 662.2,167.9 662.4,168.1 662.5,168.4 662.7,168.6 662.9,168.8 663,168.9 663.2,169.1 
	663.4,169.3 663.7,169.4 663.9,169.6 664.2,169.6 664.4,169.8 664.7,169.8 664.9,169.9 665.2,169.9 665.4,169.9 665.7,169.9 
	665.9,169.9 666.2,169.9 666.6,169.9 666.7,169.9 667.1,169.8 667.2,169.8 667.6,169.6 667.8,169.6 668.1,169.4 668.3,169.3 
	668.4,169.1 668.6,168.9 668.8,168.8 668.9,168.6 669.3,168.4 669.3,168.1 669.4,167.9 669.6,167.8 669.8,167.4 669.8,167.2 
	669.9,166.9 669.9,166.7 669.9,166.4 670.1,166.1 670.1,165.9 670.1,165.6 670.1,165.4 669.9,165.1 669.9,164.9 669.8,164.6 
	669.8,164.4 669.6,164 669.6,163.9 669.4,163.5 669.3,163.4 669.1,163.2 668.9,162.9 668.8,162.7 668.6,162.5 668.4,162.4 
	668.1,162.2 667.9,162.2 667.6,162 667.4,161.9 667.1,161.9 666.9,161.7 666.6,161.7 666.4,161.7 666.1,161.7 "/>
<polygon class="st11" points="665.9,182.3 670.6,174 661.2,174 "/>
<polyline class="st9" points="399.9,239.1 281.6,268.6 281.6,240.3 "/>
<polygon class="st11" points="316.5,259.5 316.5,259.2 316.3,259 316.1,258.7 316.1,258.5 316,258.2 315.8,258 315.6,257.9 
	315.4,257.7 315.3,257.5 315.1,257.2 314.9,257 314.6,257 314.4,256.9 314.1,256.7 313.9,256.5 313.6,256.5 313.4,256.5 
	313.1,256.3 312.9,256.3 312.6,256.3 312.4,256.3 312.1,256.3 311.9,256.3 311.6,256.3 311.2,256.5 311.1,256.5 310.7,256.7 
	310.6,256.7 310.2,256.9 310,257 309.9,257.2 309.7,257.4 309.4,257.5 309.2,257.7 309,257.9 308.9,258 308.9,258.4 308.7,258.5 
	308.5,258.7 308.4,259 308.4,259.2 308.2,259.5 308.2,259.9 308.2,260.1 308.2,260.4 308.2,260.6 308.2,260.9 308.2,261.1 
	308.2,261.4 308.4,261.7 308.4,261.9 308.5,262.2 308.7,262.4 308.7,262.6 308.9,262.9 309,263.1 309.2,263.3 309.4,263.4 
	309.5,263.6 309.9,263.8 310,263.9 310.2,264.1 310.6,264.3 310.7,264.4 311.1,264.4 311.2,264.6 311.6,264.6 311.7,264.6 
	312.1,264.6 312.2,264.8 312.6,264.8 312.7,264.6 313.1,264.6 313.3,264.6 313.6,264.4 313.9,264.4 314.1,264.3 314.3,264.3 
	314.6,264.1 314.8,263.9 314.9,263.8 315.3,263.6 315.4,263.4 315.6,263.3 315.8,263.1 316,262.8 316.1,262.6 316.1,262.4 
	316.3,262.1 316.3,261.9 316.5,261.6 316.5,261.4 316.6,261.1 316.6,260.7 316.6,260.6 316.6,260.2 316.6,260.1 316.5,259.7 "/>
<polygon class="st11" points="298.7,264.3 307.8,267 305.6,257.7 "/>
<line class="st9" x1="337.4" y1="190.2" x2="420.6" y2="194.6"/>
<polygon class="st11" points="369.3,191.9 369.3,192 369.3,192.4 369.3,192.6 369.5,192.9 369.5,193.1 369.5,193.4 369.7,193.7 
	369.7,193.9 369.8,194.1 370,194.4 370.2,194.6 370.3,194.7 370.5,194.9 370.7,195.3 370.8,195.4 371.2,195.6 371.3,195.6 
	371.5,195.8 371.9,195.9 372,195.9 372.4,196.1 372.5,196.1 372.9,196.3 373,196.3 373.4,196.3 373.7,196.3 373.9,196.3 
	374.2,196.3 374.4,196.1 374.7,196.1 374.9,195.9 375.2,195.9 375.4,195.8 375.7,195.6 375.9,195.6 376.1,195.4 376.4,195.3 
	376.6,195.1 376.7,194.7 376.9,194.6 377.1,194.4 377.2,194.2 377.2,193.9 377.4,193.7 377.6,193.4 377.6,193.2 377.6,192.9 
	377.8,192.7 377.8,192.4 377.8,192.2 377.8,191.9 377.8,191.5 377.8,191.4 377.6,191 377.6,190.9 377.4,190.5 377.4,190.4 
	377.2,190 377.1,189.9 376.9,189.7 376.7,189.3 376.6,189.2 376.4,189 376.2,188.8 376.1,188.7 375.9,188.5 375.6,188.3 
	375.4,188.2 375.1,188.2 374.9,188 374.5,188 374.4,188 374,187.8 373.9,187.8 373.5,187.8 373.4,187.8 373,187.8 372.7,187.8 
	372.5,188 372.2,188 372,188.2 371.7,188.2 371.5,188.3 371.3,188.5 371,188.7 370.8,188.8 370.7,189 370.5,189.2 370.3,189.3 
	370.2,189.5 370,189.9 369.8,190 369.7,190.4 369.7,190.5 369.5,190.7 369.5,191 369.3,191.4 369.3,191.5 "/>
<polygon class="st11" points="389.9,192.9 382,187.8 381.5,197.3 "/>
<line class="st9" x1="363.6" y1="175.7" x2="441.9" y2="193.1"/>
<polygon class="st11" points="391.9,182.1 399,188.5 401,179.2 "/>
<polygon class="st11" points="412.2,186.5 412.2,186.3 412.2,186 412.2,185.8 412.2,185.5 412.2,185.3 412.2,185 412.2,184.6 
	412,184.5 412,184.1 411.8,184 411.8,183.6 411.7,183.4 411.5,183.3 411.3,182.9 411.2,182.8 411,182.6 410.8,182.4 410.5,182.3 
	410.3,182.1 410.1,181.9 409.8,181.9 409.6,181.8 409.3,181.6 409.1,181.6 408.8,181.4 408.6,181.4 408.3,181.4 408.1,181.4 
	407.8,181.4 407.6,181.4 407.3,181.4 406.9,181.6 406.8,181.6 406.4,181.8 406.3,181.8 406.1,181.9 405.8,182.1 405.6,182.3 
	405.4,182.4 405.1,182.6 404.9,182.8 404.7,182.9 404.6,183.1 404.4,183.4 404.4,183.6 404.2,183.8 404.1,184.1 404.1,184.3 
	403.9,184.6 403.9,184.8 403.9,185.1 403.7,185.3 403.7,185.6 403.7,186 403.9,186.1 403.9,186.5 403.9,186.7 404.1,187 
	404.1,187.2 404.2,187.5 404.4,187.7 404.6,188 404.6,188.2 404.7,188.3 404.9,188.5 405.3,188.7 405.4,188.8 405.6,189 
	405.8,189.2 406.1,189.3 406.3,189.5 406.6,189.5 406.8,189.7 407.1,189.7 407.3,189.7 407.6,189.9 407.8,189.9 408.1,189.9 
	408.5,189.9 408.6,189.9 409,189.7 409.1,189.7 409.5,189.7 409.6,189.5 410,189.3 410.1,189.2 410.3,189.2 410.7,189 410.8,188.8 
	411,188.7 411.2,188.5 411.3,188.2 411.5,188 411.7,187.8 411.8,187.5 411.8,187.3 412,187 412,186.8 "/>
<polyline class="st9" points="710.6,171.3 718.5,173.8 718.5,285.8 695.3,284.8 "/>
<polygon class="st14" points="714.3,220.2 714.3,228.7 722.8,228.7 722.8,220.2 "/>
<polygon class="st14" points="718.5,239.6 718.7,239.5 719,239.5 719.2,239.5 719.5,239.5 719.7,239.3 720.1,239.3 720.2,239.1 
	720.6,238.9 720.7,238.9 720.9,238.8 721.2,238.6 721.4,238.4 721.6,238.3 721.7,237.9 721.9,237.8 722.1,237.6 722.2,237.3 
	722.2,237.1 722.4,236.9 722.6,236.6 722.6,236.2 722.6,236.1 722.6,235.7 722.8,235.6 722.8,235.2 722.6,235.1 722.6,234.7 
	722.6,234.4 722.6,234.2 722.4,234.1 722.4,233.7 722.2,233.5 722.1,233.2 721.9,233 721.7,232.7 721.7,232.5 721.4,232.4 
	721.2,232.2 721.1,232 720.9,231.9 720.6,231.7 720.4,231.5 720.2,231.5 719.9,231.4 719.7,231.4 719.4,231.2 719.2,231.2 
	718.9,231.2 718.7,231.2 718.4,231.2 718,231.2 717.9,231.2 717.5,231.2 717.4,231.4 717,231.4 716.8,231.5 716.5,231.5 
	716.3,231.7 716,231.9 715.8,232 715.7,232.2 715.5,232.4 715.3,232.5 715.2,232.7 715,233 714.8,233.2 714.7,233.5 714.7,233.7 
	714.5,234.1 714.5,234.2 714.3,234.4 714.3,234.7 714.3,235.1 714.3,235.2 714.3,235.6 714.3,235.7 714.3,236.1 714.3,236.2 
	714.5,236.6 714.5,236.9 714.7,237.1 714.8,237.3 714.8,237.6 715,237.8 715.2,237.9 715.3,238.3 715.5,238.4 715.8,238.6 
	716,238.8 716.2,238.9 716.3,238.9 716.7,239.1 716.8,239.3 717.2,239.3 717.4,239.5 717.7,239.5 718,239.5 718.2,239.5 "/>
<polyline class="st9" points="637.7,199.6 629,205.5 629,268.6 633.5,273.2 "/>
<polygon class="st14" points="629,226.1 624.2,234.4 633.7,234.4 "/>
<polygon class="st14" points="629,246.7 629.3,246.7 629.5,246.7 629.8,246.7 630.1,246.5 630.3,246.5 630.6,246.4 630.8,246.4 
	631,246.2 631.3,246 631.5,245.9 631.7,245.7 631.8,245.5 632.2,245.4 632.3,245.2 632.5,245 632.7,244.7 632.7,244.5 632.8,244.3 
	633,244 633,243.8 633.2,243.5 633.2,243.3 633.2,243 633.2,242.8 633.2,242.5 633.2,242.2 633.2,242 633.2,241.6 633,241.5 
	633,241.1 632.8,241 632.8,240.6 632.7,240.5 632.5,240.3 632.3,240 632.2,239.8 632,239.6 631.8,239.5 631.7,239.3 631.3,239.1 
	631.1,238.9 631,238.8 630.6,238.6 630.5,238.6 630.1,238.4 630,238.4 629.6,238.4 629.5,238.4 629.1,238.3 629,238.3 628.6,238.4 
	628.3,238.4 628.1,238.4 627.8,238.4 627.6,238.6 627.3,238.6 627.1,238.8 626.8,238.9 626.6,239.1 626.4,239.3 626.3,239.5 
	625.9,239.6 625.7,239.8 625.6,240 625.6,240.3 625.4,240.5 625.2,240.6 625.1,241 625.1,241.1 624.9,241.5 624.9,241.6 624.9,242 
	624.7,242.2 624.7,242.5 624.7,242.8 624.9,243 624.9,243.3 624.9,243.5 624.9,243.8 625.1,244 625.2,244.3 625.2,244.5 
	625.4,244.7 625.6,245 625.7,245.2 625.9,245.4 626.1,245.5 626.3,245.7 626.6,245.9 626.8,246 626.9,246.2 627.3,246.4 
	627.4,246.4 627.6,246.5 627.9,246.5 628.3,246.7 628.4,246.7 628.8,246.7 "/>
<line class="st9" x1="478.6" y1="155.8" x2="510.9" y2="271"/>
<polygon class="st14" points="496,217.5 496.2,217.4 496.4,217.4 496.7,217.2 496.9,217 497.2,216.8 497.4,216.7 497.5,216.5 
	497.7,216.3 497.9,216.2 498,216 498.2,215.8 498.4,215.5 498.5,215.3 498.7,215 498.7,214.8 498.9,214.5 498.9,214.3 498.9,214 
	499.1,213.8 499.1,213.5 499.1,213.3 499.1,213 498.9,212.6 498.9,212.5 498.9,212.1 498.7,212 498.7,211.6 498.5,211.4 
	498.4,211.3 498.2,210.9 498,210.8 497.9,210.6 497.7,210.4 497.5,210.3 497.4,210.1 497,209.9 496.9,209.8 496.7,209.6 
	496.4,209.4 496.2,209.4 495.8,209.3 495.7,209.3 495.3,209.3 495.2,209.3 494.8,209.1 494.5,209.3 494.3,209.3 494,209.3 
	493.8,209.3 493.5,209.4 493.3,209.4 493,209.6 492.8,209.8 492.6,209.8 492.3,209.9 492.1,210.1 492,210.3 491.8,210.4 
	491.6,210.8 491.5,210.9 491.3,211.1 491.1,211.3 491,211.6 491,211.8 490.8,212.1 490.6,212.3 490.6,212.6 490.6,212.8 
	490.6,213.1 490.6,213.5 490.6,213.6 490.6,214 490.6,214.1 490.8,214.5 490.8,214.7 491,215 491,215.2 491.1,215.5 491.3,215.7 
	491.5,215.8 491.6,216.2 491.8,216.3 492,216.5 492.1,216.7 492.3,216.8 492.6,217 492.8,217.2 493,217.2 493.3,217.4 493.5,217.4 
	493.8,217.5 494,217.5 494.3,217.5 494.7,217.5 494.8,217.5 495.2,217.5 495.3,217.5 495.7,217.5 "/>
<line class="st9" x1="451.3" y1="162.2" x2="482" y2="241.3"/>
<polygon class="st14" points="458.7,180.9 457.2,190.4 466,186.8 "/>
<polygon class="st14" points="465.9,198.9 466,198.8 466.4,198.6 466.6,198.6 466.9,198.4 467.1,198.3 467.2,198.1 467.4,197.9 
	467.6,197.6 467.7,197.4 467.9,197.3 468.1,197.1 468.1,196.8 468.2,196.6 468.4,196.2 468.4,196.1 468.4,195.7 468.6,195.6 
	468.6,195.2 468.6,194.9 468.6,194.7 468.6,194.4 468.4,194.2 468.4,193.9 468.4,193.7 468.2,193.4 468.1,193.2 468.1,192.9 
	467.9,192.7 467.7,192.4 467.6,192.2 467.4,192 467.2,191.9 466.9,191.7 466.7,191.5 466.6,191.4 466.4,191.2 466,191.2 465.9,191 
	465.5,191 465.4,190.8 465,190.8 464.7,190.8 464.5,190.7 464.2,190.7 464,190.8 463.7,190.8 463.5,190.8 463.2,190.8 463,191 
	462.7,191 462.5,191.2 462.2,191.4 462,191.5 461.8,191.7 461.5,191.9 461.3,192 461.2,192.2 461,192.4 460.8,192.5 460.7,192.9 
	460.7,193 460.5,193.4 460.3,193.5 460.3,193.9 460.1,194.1 460.1,194.4 460.1,194.6 460.1,194.9 460.1,195.1 460.1,195.4 
	460.1,195.7 460.3,195.9 460.3,196.2 460.5,196.4 460.5,196.8 460.7,196.9 460.7,197.1 460.8,197.4 461,197.6 461.2,197.8 
	461.3,197.9 461.7,198.1 461.8,198.3 462,198.4 462.2,198.6 462.5,198.8 462.7,198.9 463,198.9 463.2,199.1 463.5,199.1 
	463.9,199.1 464,199.1 464.4,199.1 464.5,199.1 464.9,199.1 465,199.1 465.4,199.1 465.5,198.9 "/>
<polyline class="st9" points="378.8,233.9 260.5,263.4 260.5,240.3 "/>
<polygon class="st11" points="303,252.3 303,252.1 302.8,251.8 302.8,251.6 302.7,251.5 302.5,251.1 302.3,251 302.2,250.8 
	302,250.5 301.8,250.3 301.7,250.1 301.5,250 301.2,249.8 301,249.8 300.8,249.6 300.5,249.4 300.3,249.4 300,249.3 299.8,249.3 
	299.5,249.3 299.1,249.1 299,249.1 298.6,249.1 298.5,249.3 298.1,249.3 298,249.3 297.6,249.4 297.4,249.4 297.1,249.6 
	296.9,249.8 296.6,250 296.4,250 296.3,250.1 296.1,250.5 295.9,250.6 295.8,250.8 295.6,251 295.4,251.1 295.3,251.5 295.1,251.6 
	295.1,252 294.9,252.1 294.9,252.5 294.7,252.7 294.7,253 294.7,253.2 294.7,253.5 294.7,253.8 294.7,254 294.9,254.3 294.9,254.5 
	295.1,254.8 295.1,255 295.3,255.4 295.3,255.5 295.4,255.7 295.6,256 295.8,256.2 295.9,256.4 296.3,256.5 296.4,256.7 
	296.6,256.9 296.8,257 297.1,257.2 297.3,257.2 297.6,257.4 297.8,257.4 298.1,257.5 298.3,257.5 298.6,257.5 298.8,257.5 
	299.1,257.5 299.5,257.5 299.6,257.5 300,257.5 300.1,257.4 300.5,257.4 300.7,257.2 301,257.2 301.2,257 301.3,256.9 301.7,256.7 
	301.8,256.5 302,256.4 302.2,256.2 302.3,255.9 302.5,255.7 302.7,255.5 302.7,255.2 302.8,255 303,254.7 303,254.5 303.2,254.2 
	303.2,254 303.2,253.7 303.2,253.5 303.2,253.2 303.2,253 303.2,252.7 "/>
<polygon class="st11" points="285.1,257.2 294.2,259.8 291.8,250.6 "/>
<line class="st9" x1="356.2" y1="182.3" x2="364.9" y2="270.8"/>
<polygon class="st14" points="359.5,216.8 359.4,217 359,217 358.9,217 358.5,217.2 358.4,217.2 358,217.4 357.8,217.5 357.7,217.7 
	357.3,217.9 357.2,218 357,218.2 356.8,218.4 356.7,218.5 356.5,218.9 356.3,219 356.2,219.2 356.2,219.5 356,219.7 356,220.1 
	356,220.2 355.8,220.6 355.8,220.7 355.8,221.1 355.8,221.2 355.8,221.6 355.8,221.9 356,222.1 356,222.4 356.2,222.6 356.2,222.9 
	356.3,223.1 356.5,223.3 356.7,223.6 356.8,223.8 357,223.9 357.2,224.1 357.3,224.3 357.5,224.4 357.8,224.6 358,224.8 
	358.2,224.9 358.5,224.9 358.7,225.1 359,225.1 359.2,225.3 359.5,225.3 359.9,225.3 360,225.3 360.4,225.3 360.5,225.3 
	360.9,225.3 361.1,225.1 361.4,225.1 361.6,224.9 361.9,224.9 362.1,224.8 362.4,224.6 362.6,224.4 362.7,224.3 362.9,224.1 
	363.1,223.9 363.2,223.8 363.4,223.6 363.6,223.3 363.8,223.1 363.9,222.8 363.9,222.6 364.1,222.4 364.1,222.1 364.1,221.7 
	364.3,221.6 364.3,221.2 364.3,221.1 364.3,220.7 364.3,220.6 364.1,220.2 364.1,219.9 364.1,219.7 363.9,219.4 363.8,219.2 
	363.8,219 363.6,218.7 363.4,218.5 363.2,218.4 363.1,218.2 362.9,217.9 362.6,217.7 362.4,217.7 362.2,217.5 361.9,217.4 
	361.7,217.2 361.4,217.2 361.2,217 360.9,217 360.7,216.8 360.4,216.8 360.2,216.8 359.9,216.8 "/>
<polygon class="st14" points="361.7,237.4 365.6,228.8 356.2,229.7 "/>
<line class="st9" x1="432.4" y1="202.7" x2="446.6" y2="234.6"/>
<polygon class="st14" points="435.6,209.8 435.3,209.9 435.1,210.1 434.9,210.1 434.6,210.4 434.4,210.6 434.3,210.8 434.1,210.9 
	433.9,211.1 433.8,211.3 433.6,211.6 433.6,211.8 433.4,212.1 433.3,212.3 433.3,212.5 433.3,212.8 433.1,213.1 433.1,213.3 
	433.1,213.6 433.1,213.8 433.1,214.1 433.1,214.3 433.3,214.7 433.3,215 433.4,215.2 433.4,215.5 433.6,215.7 433.8,215.8 
	433.9,216.2 434.1,216.3 434.3,216.5 434.4,216.7 434.6,216.8 434.8,217 435.1,217.2 435.3,217.4 435.5,217.5 435.8,217.5 
	436,217.7 436.3,217.7 436.5,217.9 436.8,217.9 437.1,217.9 437.3,217.9 437.6,217.9 437.8,217.9 438.2,217.7 438.3,217.7 
	438.7,217.7 438.8,217.5 439.2,217.5 439.3,217.4 439.7,217.2 439.8,217 440,216.8 440.2,216.7 440.3,216.5 440.5,216.3 440.7,216 
	440.8,215.8 441,215.7 441.2,215.3 441.2,215.2 441.4,214.8 441.4,214.7 441.5,214.3 441.5,214.1 441.5,213.8 441.5,213.5 
	441.5,213.3 441.5,213 441.4,212.8 441.4,212.5 441.4,212.3 441.2,212 441,211.8 440.8,211.4 440.8,211.3 440.7,211.1 440.5,210.9 
	440.3,210.6 440,210.4 439.8,210.3 439.7,210.1 439.5,209.9 439.2,209.9 439,209.8 438.7,209.8 438.5,209.6 438.2,209.6 438,209.4 
	437.6,209.4 437.5,209.4 437.1,209.4 437,209.4 436.6,209.4 436.3,209.6 436.1,209.6 435.8,209.8 "/>
<polygon class="st14" points="447.3,225.8 443.9,218 436.1,221.6 439.7,229.2 "/>
<polyline class="st9" points="420.8,244 303.9,268.6 303,240.3 "/>
<polygon class="st11" points="393.4,250 384.4,247 386.3,256.2 "/>
<polygon class="st11" points="375.6,253.9 375.7,254.3 375.7,254.4 375.9,254.6 375.9,254.9 376.1,255.1 376.2,255.4 376.4,255.6 
	376.6,255.8 376.7,255.9 376.9,256.1 377.1,256.3 377.4,256.6 377.6,256.6 377.8,256.8 378.1,257 378.3,257 378.6,257.1 
	378.8,257.1 379.1,257.1 379.3,257.3 379.6,257.3 379.8,257.3 380.1,257.3 380.5,257.1 380.6,257.1 381,257.1 381.1,257 381.5,257 
	381.6,256.8 382,256.6 382.1,256.4 382.3,256.3 382.5,256.1 382.6,255.9 383,255.8 383.2,255.6 383.2,255.4 383.3,255.1 
	383.5,254.9 383.7,254.6 383.7,254.4 383.8,254.3 383.8,253.9 383.8,253.6 384,253.4 384,253.1 384,252.9 384,252.6 383.8,252.2 
	383.8,252.1 383.8,251.7 383.7,251.6 383.5,251.2 383.5,251 383.3,250.9 383.2,250.5 383,250.4 382.8,250.2 382.6,250 382.5,249.9 
	382.3,249.7 382,249.5 381.8,249.4 381.5,249.2 381.3,249.2 381,249 380.8,249 380.5,248.9 380.3,248.9 380,248.9 379.8,248.9 
	379.4,248.9 379.3,248.9 378.9,248.9 378.6,249 378.4,249 378.1,249.2 377.9,249.2 377.8,249.4 377.4,249.5 377.3,249.7 
	377.1,249.9 376.7,250 376.6,250.2 376.4,250.4 376.2,250.5 376.1,250.9 376.1,251 375.9,251.2 375.7,251.6 375.7,251.9 
	375.6,252.1 375.6,252.4 375.6,252.6 375.6,252.9 375.6,253.1 375.6,253.4 375.6,253.6 "/>
<line class="st9" x1="689.5" y1="245" x2="694.7" y2="260.7"/>
<polygon class="st11" points="688.7,242.5 686.8,251.8 695.8,248.7 "/>
<polygon class="st11" points="699.1,260.7 696.6,252.8 688.5,255.5 691.2,263.4 "/>
<polyline class="st9" points="664,245.4 655.3,284.5 654.6,283.8 "/>
<polygon class="st11" points="662,254.1 655.6,261.2 664.9,263.2 "/>
<polygon class="st11" points="657.6,274.4 657.8,274.4 658.1,274.4 658.3,274.4 658.6,274.4 658.8,274.4 659.2,274.4 659.5,274.4 
	659.7,274.2 660,274.2 660.2,274 660.3,273.9 660.7,273.9 660.8,273.7 661.2,273.5 661.3,273.4 661.5,273.2 661.7,273 661.9,272.7 
	662,272.5 662.2,272.4 662.2,272 662.4,271.8 662.5,271.5 662.5,271.3 662.5,271 662.7,270.8 662.7,270.5 662.7,270.3 662.7,270 
	662.7,269.7 662.7,269.5 662.5,269.1 662.5,269 662.4,268.6 662.4,268.5 662.2,268.1 662,268 661.9,267.8 661.7,267.5 661.5,267.3 
	661.3,267.1 661.2,267 661,266.8 660.8,266.6 660.5,266.4 660.3,266.4 660,266.3 659.8,266.3 659.5,266.1 659.3,266.1 659,266.1 
	658.6,265.9 658.5,265.9 658.1,265.9 658,266.1 657.6,266.1 657.5,266.1 657.1,266.3 657,266.3 656.6,266.4 656.5,266.4 
	656.3,266.6 655.9,266.8 655.8,267 655.6,267.1 655.4,267.3 655.3,267.6 655.1,267.8 654.9,268 654.8,268.3 654.6,268.5 
	654.6,268.8 654.4,269 654.4,269.1 654.3,269.5 654.3,269.8 654.3,270 654.3,270.3 654.3,270.5 654.3,270.8 654.4,271.2 
	654.4,271.3 654.6,271.7 654.6,271.8 654.8,272.2 654.9,272.4 654.9,272.5 655.1,272.9 655.3,273 655.4,273.2 655.8,273.4 
	655.9,273.5 656.1,273.7 656.3,273.9 656.6,274 656.8,274 657.1,274.2 657.3,274.2 "/>
<line class="st9" x1="334.4" y1="272.5" x2="307.9" y2="238.4"/>
<polygon class="st11" points="327,261.5 327.3,261.4 327.5,261.2 327.7,261 327.8,260.9 328,260.7 328.2,260.4 328.2,260.2 
	328.3,259.9 328.5,259.7 328.5,259.5 328.7,259.2 328.7,258.8 328.7,258.7 328.7,258.3 328.7,258.2 328.7,257.8 328.7,257.5 
	328.5,257.3 328.5,257 328.3,256.8 328.3,256.5 328.2,256.3 328,256.1 327.8,255.8 327.8,255.6 327.5,255.5 327.3,255.3 
	327.1,255.1 327,255 326.8,254.8 326.5,254.6 326.3,254.5 326.1,254.5 325.8,254.3 325.6,254.1 325.3,254.1 325,254.1 324.8,254.1 
	324.4,254.1 324.3,254.1 323.9,254.1 323.6,254.1 323.4,254.1 323.1,254.3 322.9,254.5 322.8,254.5 322.4,254.6 322.3,254.8 
	321.9,254.8 321.7,255 321.6,255.1 321.4,255.5 321.2,255.6 321.1,255.8 320.9,256 320.7,256.3 320.6,256.5 320.6,256.8 320.4,257 
	320.4,257.3 320.2,257.5 320.2,257.8 320.2,258 320.2,258.3 320.2,258.5 320.2,258.8 320.4,259.2 320.4,259.4 320.6,259.7 
	320.6,259.9 320.7,260.2 320.7,260.4 320.9,260.5 321.1,260.9 321.2,261 321.4,261.2 321.6,261.4 321.9,261.5 322.1,261.7 
	322.3,261.9 322.4,262 322.8,262.2 322.9,262.2 323.3,262.4 323.6,262.4 323.8,262.4 324.1,262.4 324.3,262.6 324.6,262.6 
	324.8,262.4 325.1,262.4 325.3,262.4 325.6,262.4 325.8,262.2 326.1,262.2 326.3,262 326.6,261.9 326.8,261.7 "/>
<polygon class="st11" points="312.1,250.1 317.3,256.9 323.9,251.6 318.8,244.9 "/>
<line class="st9" x1="337.6" y1="271" x2="330.9" y2="240"/>
<polygon class="st11" points="336.6,266.1 339.5,257.2 330.2,259.2 "/>
<polygon class="st11" points="328,246.9 329.8,255.1 338.1,253.3 336.3,245.2 "/>
<g>
	<text transform="matrix(1 0 0 1 83.2852 198.3366)" class="st1 st2 st3">G</text>
</g>
<line class="st9" x1="90.6" y1="198.1" x2="90.6" y2="223.4"/>
<text transform="matrix(-1.800231e-16 0.98 -1 -1.836970e-16 342.5733 186.7113)" class="st15 st2 st16">DFHBI-1T</text>
<text transform="matrix(1 0 0 1 78.3274 168.473)" class="st2 st8">5’</text>
<text transform="matrix(1 0 0 1 72.2633 267.6312)" class="st2 st8">3’</text>
<text transform="matrix(1 0 0 1 301.5351 82.0165)" class="st2 st17">Squash RNA aptamer</text>
</svg>
