<?xml version="1.0" encoding="utf-8"?>
<!-- Generator: Adobe Illustrator 25.2.0, SVG Export Plug-In . SVG Version: 6.00 Build 0)  -->
<svg version="1.1" id="图层_1" xmlns="http://www.w3.org/2000/svg" xmlns:xlink="http://www.w3.org/1999/xlink" x="0px" y="0px"
	 viewBox="0 0 800 400" style="enable-background:new 0 0 800 400;" xml:space="preserve">
<style type="text/css">
	.st0{fill:#2EA103;}
	.st1{font-family:'ArialMT';}
	.st2{font-size:20.8093px;}
	.st3{fill:none;stroke:#000000;stroke-miterlimit:3.05;}
	.st4{font-size:16.6475px;}
	.st5{font-size:15.9538px;}
	.st6{font-size:13.8729px;}
	.st7{font-size:20px;}
	.st8{fill:#18988C;}
	.st9{fill:#B83233;}
	.st10{fill:#084595;}
	.st11{fill:#C2B617;}
	.st12{fill:none;stroke:#000000;stroke-width:0.38;stroke-miterlimit:3.05;}
</style>
<g id="ID000010">
	<g>
		<text transform="matrix(1 0 0 1 369.2124 200.3477)" class="st0 st1 st2">C</text>
	</g>
</g>
<g id="ID000020">
	<g>
		<text transform="matrix(1 0 0 1 438.0967 67.001)" class="st0 st1 st2">A</text>
	</g>
</g>
<g id="ID000021">
	<line class="st3" x1="416.1" y1="192.6" x2="387" y2="192.4"/>
</g>
<text transform="matrix(1 0 0 1 317.1958 134.9092)" class="st1 st4">5</text>
<text transform="matrix(1 0 0 1 326.4556 134.9092)" class="st1 st4">’</text>
<text transform="matrix(1 0 0 1 328.0718 81.2559)" class="st1 st5">3</text>
<text transform="matrix(1 0 0 1 336.9429 81.2559)" class="st0 st1 st5">’</text>
<g id="ID000011-2">
	<g>
		<text transform="matrix(1 0 0 1 419.9795 200.3477)" class="st0 st1 st2">G</text>
	</g>
</g>
<g id="ID000019-2">
	<g>
		<text transform="matrix(1 0 0 1 454.6123 77.4053)" class="st0 st1 st2">A</text>
	</g>
</g>
<g id="ID000018">
	<text transform="matrix(1 0 0 1 313.7935 311.3311)" class="st1 st6">10</text>
</g>
<g id="ID000020-3">
	<g>
		<text transform="matrix(1 0 0 1 421.0127 59.3564)" class="st0 st1 st2">G</text>
	</g>
</g>
<text transform="matrix(1 0 0 1 327.6141 32.2596)" class="st1 st7"> RNA-1 aptamer</text>
<g id="ID000020-3-2">
	<g>
		<text transform="matrix(1 0 0 1 382.0933 59.3564)" class="st0 st1 st2">A</text>
	</g>
</g>
<g id="ID000010-2">
	<g>
		<text transform="matrix(1 0 0 1 400.481 57.2549)" class="st0 st1 st2">G</text>
	</g>
</g>
<g id="ID000020-2">
	<g>
		<text transform="matrix(1 0 0 1 435.8154 189.3809)" class="st0 st1 st2">U</text>
	</g>
</g>
<g id="ID000019-3">
	<text transform="matrix(1 0 0 1 438.3672 364.8936)" class="st8 st1 st2">C</text>
</g>
<g id="ID000003-2">
	<text transform="matrix(1 0 0 1 419.9795 262.3857)" class="st9 st1 st2">G</text>
</g>
<g id="ID000005-5">
	<text transform="matrix(1 0 0 1 357.9956 370.9482)" class="st8 st1 st2">C</text>
</g>
<g id="ID000020-3-3">
	<g>
		<text transform="matrix(1 0 0 1 450.9819 353.0089)" class="st10 st1 st2">G</text>
	</g>
</g>
<g id="ID000002-5">
	<text transform="matrix(1 0 0 1 347.064 354.1963)" class="st8 st1 st2">U</text>
</g>
<g id="ID000003-2-2">
	<text transform="matrix(1 0 0 1 430.9385 299.5586)" class="st8 st1 st2">U</text>
</g>
<g id="ID000005-5-2">
	<g>
		<text transform="matrix(1 0 0 1 471.9951 138.4463)" class="st0 st1 st2">A</text>
	</g>
</g>
<g id="ID000010-2-2">
	<text transform="matrix(1 0 0 1 343.1792 313.4521)" class="st8 st1 st2">G</text>
</g>
<g id="ID000020-3-4">
	<g>
		<text transform="matrix(1 0 0 1 443.417 313.4521)" class="st10 st1 st2">C</text>
	</g>
</g>
<line class="st3" x1="458.9" y1="334.7" x2="456.8" y2="320.2"/>
<g id="ID000003-2-3">
	<g>
		<text transform="matrix(1 0 0 1 473.7852 118.8916)" class="st0 st1 st2">U</text>
	</g>
</g>
<g id="ID000005-5-3">
	<g>
		<text transform="matrix(1 0 0 1 465.3223 96.1475)" class="st0 st1 st2">U</text>
	</g>
</g>
<g id="ID000003-2-4">
	<g>
		<text transform="matrix(1 0 0 1 463.7832 160.4482)" class="st0 st1 st2">C</text>
	</g>
</g>
<g id="ID000010-3">
	<text transform="matrix(1 0 0 1 369.2124 222.4121)" class="st9 st1 st2">C</text>
</g>
<g id="ID000021-3">
	<line class="st3" x1="415.8" y1="214.6" x2="386.8" y2="214.5"/>
</g>
<g id="ID000011-2-2">
	<text transform="matrix(1 0 0 1 419.9795 224)" class="st9 st1 st2">G</text>
</g>
<g id="ID000010-4">
	<text transform="matrix(1 0 0 1 370.3218 241.6396)" class="st9 st1 st2">A</text>
</g>
<g id="ID000021-4">
	<line class="st3" x1="415.7" y1="233.9" x2="386.6" y2="233.7"/>
</g>
<g id="ID000011-2-3">
	<text transform="matrix(1 0 0 1 419.9795 243.2275)" class="st9 st1 st2">U</text>
</g>
<g id="ID000010-5">
	<text transform="matrix(1 0 0 1 369.2124 260.6602)" class="st9 st1 st2">C</text>
</g>
<g id="ID000021-5">
	<line class="st3" x1="416.7" y1="251.5" x2="387.7" y2="251.3"/>
</g>
<text transform="matrix(1 0 0 1 469.3086 275.5664)" class="st1 st6">30</text>
<g id="ID000020-3-5">
	<g>
		<text transform="matrix(1 0 0 1 451.4014 177.9346)" class="st0 st1 st2">A</text>
	</g>
</g>
<g id="ID000003-2-5">
	<text transform="matrix(1 0 0 1 420.0068 280.4141)" class="st9 st1 st2">A</text>
</g>
<g id="ID000010-6">
	<text transform="matrix(1 0 0 1 369.2124 278.6865)" class="st9 st1 st2">U</text>
</g>
<g id="ID000021-6">
	<line class="st3" x1="416.9" y1="270.5" x2="387.8" y2="270.3"/>
</g>
<g id="ID000020-3-6">
	<text transform="matrix(1 0 0 1 388.7583 390.0859)" class="st8 st1 st2">A</text>
</g>
<g id="ID000019-2-2">
	<text transform="matrix(1 0 0 1 371.5981 382.5322)" class="st8 st1 st2">A</text>
</g>
<g id="ID000020-3-7">
	<text transform="matrix(1 0 0 1 531.7676 290.5488)" class="st11 st1 st2">G</text>
</g>
<g id="ID000020-3-8">
	<text transform="matrix(1 0 0 1 511.3945 288.0508)" class="st11 st1 st2">A</text>
</g>
<g id="ID000010-7">
	<text transform="matrix(1 0 0 1 490.252 295.7988)" class="st11 st1 st2">G</text>
</g>
<g id="ID000005-5-4">
	<text transform="matrix(1 0 0 1 424.4521 376.6777)" class="st8 st1 st2">A</text>
</g>
<g id="ID000003-2-6">
	<text transform="matrix(1 0 0 1 325.353 154.5596)" class="st0 st1 st2">G</text>
</g>
<g id="ID000005-5-5">
	<text transform="matrix(1 0 0 1 344.2817 72.4521)" class="st0 st1 st2">U</text>
</g>
<g id="ID000003-2-7">
	<text transform="matrix(1 0 0 1 406.3076 386.0977)" class="st8 st1 st2">C</text>
</g>
<g id="ID000020-4">
	<text transform="matrix(1 0 0 1 337.8032 169.709)" class="st0 st1 st2">G</text>
</g>
<g id="ID000019-2-3">
	<text transform="matrix(1 0 0 1 549.0107 301.791)" class="st11 st1 st2">A</text>
</g>
<g id="ID000020-3-9">
	<text transform="matrix(1 0 0 1 536.5322 343.626)" class="st11 st1 st2">G</text>
</g>
<g id="ID000020-3-10">
	<text transform="matrix(1 0 0 1 502.46 346.1299)" class="st11 st1 st2">A</text>
</g>
<g id="ID000010-8">
	<g>
		<text transform="matrix(1 0 0 1 353.0366 184.8574)" class="st0 st1 st2">G</text>
	</g>
</g>
<g id="ID000005-5-6">
	<text transform="matrix(1 0 0 1 520.2109 349.7432)" class="st11 st1 st2">A</text>
</g>
<g id="ID000003-2-8">
	<text transform="matrix(1 0 0 1 361.6655 62.5059)" class="st0 st1 st2">C</text>
</g>
<g id="ID000005-5-7">
	<text transform="matrix(1 0 0 1 549.8008 326.2295)" class="st11 st1 st2">U</text>
</g>
<g id="ID000003-2-9">
	<text transform="matrix(1 0 0 1 341.2856 333.6787)" class="st8 st1 st2">C</text>
</g>
<g id="ID000005-5-8">
	<text transform="matrix(1 0 0 1 353.7437 294.2588)" class="st8 st1 st2">C</text>
</g>
<g id="ID000020-3-11">
	<text transform="matrix(1 0 0 1 468.8965 347.3955)" class="st10 st1 st2">G</text>
</g>
<g id="ID000020-3-12">
	<text transform="matrix(1 0 0 1 461.2305 310.9482)" class="st10 st1 st2">C</text>
</g>
<line class="st3" x1="476.7" y1="330.6" x2="474.7" y2="315.8"/>
<g id="ID000020-3-13">
	<g>
		<text transform="matrix(1 0 0 1 488.5437 346.0939)" class="st10 st1 st2">U</text>
	</g>
</g>
<g id="ID000020-3-14">
	<text transform="matrix(1 0 0 1 478.3916 308.4443)" class="st10 st1 st2">A</text>
</g>
<line class="st3" x1="494" y1="326.4" x2="491.9" y2="311.7"/>
<text transform="matrix(1 0 0 1 379.7222 78.8496)" class="st1 st6">50</text>
<g id="ID000021_1_">
	<line class="st12" x1="388.5" y1="68.5" x2="389.1" y2="59.6"/>
</g>
<g id="ID000021_2_">
	<line class="st12" x1="342.1" y1="307" x2="331.8" y2="306.8"/>
</g>
<g id="ID000021_3_">
	<line class="st12" x1="480.9" y1="290.6" x2="478.4" y2="278.7"/>
</g>
</svg>
