<?xml version="1.0" encoding="utf-8"?>
<!-- Generator: Adobe Illustrator 25.2.0, SVG Export Plug-In . SVG Version: 6.00 Build 0)  -->
<svg version="1.1" id="图层_1" xmlns="http://www.w3.org/2000/svg" xmlns:xlink="http://www.w3.org/1999/xlink" x="0px" y="0px"
	 viewBox="0 0 400 400" style="enable-background:new 0 0 400 400;" xml:space="preserve">
<style type="text/css">
	.st0{font-family:'MicrosoftYaHei';}
	.st1{font-size:20px;}
	.st2{fill:#FF3399;}
	.st3{font-size:21.3091px;}
	.st4{fill:#FF8001;}
	.st5{fill:none;stroke:#000000;stroke-width:0.25;stroke-miterlimit:10;}
	.st6{font-family:'ArialMT';}
	.st7{fill:#33CC33;}
</style>
<text transform="matrix(1 0 0 1 17.1152 34.9109)" class="st0 st1">T1 aptamer</text>
<text transform="matrix(1 0 0 1 226.1611 339.374)" class="st2 st0 st3">U</text>
<g>
	<text transform="matrix(1 0 0 1 230.5508 74.0757)" class="st4 st0 st3">G</text>
</g>
<line class="st5" x1="202.2" y1="363" x2="225.7" y2="363"/>
<text transform="matrix(1 0 0 1 270.3145 278.9121)" class="st6 st1">40</text>
<text transform="matrix(1 0 0 1 226.3535 354.5566)" class="st2 st0 st3">C</text>
<text transform="matrix(1 0 0 1 226.3857 297.3096)" class="st2 st0 st3">C</text>
<text transform="matrix(1 0 0 1 226.3213 230.1006)" class="st2 st0 st3">C</text>
<g>
	<text transform="matrix(1 0 0 1 224.6377 125.4307)" class="st4 st0 st3">C</text>
</g>
<text transform="matrix(1 0 0 1 189.3643 197.583)" class="st2 st0 st3">C</text>
<text transform="matrix(1 0 0 1 189.3643 279.5811)" class="st2 st0 st3">C</text>
<text transform="matrix(1 0 0 1 189.3643 371.2842)" class="st2 st0 st3">C</text>
<text transform="matrix(1 0 0 1 225.0957 372.1045)" class="st2 st0 st3">G</text>
<text transform="matrix(1 0 0 1 226.4062 280.6465)" class="st2 st0 st3">G</text>
<text transform="matrix(1 0 0 1 225.0957 197.583)" class="st2 st0 st3">G</text>
<g>
	<text transform="matrix(1 0 0 1 224.0625 109.0439)" class="st4 st0 st3">G</text>
</g>
<g>
	<text transform="matrix(1 0 0 1 224.084 92.6572)" class="st4 st0 st3">G</text>
</g>
<g>
	<text transform="matrix(1 0 0 1 187.5923 125.1533)" class="st4 st0 st3">G</text>
</g>
<text transform="matrix(1 0 0 1 187.7725 230.1006)" class="st2 st0 st3">G</text>
<text transform="matrix(1 0 0 1 187.772 297.0332)" class="st2 st0 st3">G</text>
<text transform="matrix(1 0 0 1 187.7725 354.7695)" class="st2 st0 st3">G</text>
<text transform="matrix(1 0 0 1 226.7686 213.9912)" class="st2 st0 st3">A</text>
<g>
	<text transform="matrix(1 0 0 1 225.0957 141.2739)" class="st4 st0 st3">A</text>
</g>
<text transform="matrix(1 0 0 1 188.6255 247.0732)" class="st2 st0 st3">A</text>
<text transform="matrix(1 0 0 1 188.6255 263.1943)" class="st2 st0 st3">A</text>
<text transform="matrix(1 0 0 1 188.625 323.3604)" class="st2 st0 st3">A</text>
<text transform="matrix(1 0 0 1 188.6255 337.9033)" class="st2 st0 st3">A</text>
<text transform="matrix(1 0 0 1 230.5508 177.4355)" class="st2 st0 st3">U</text>
<text transform="matrix(1 0 0 1 131.0591 190.7749)" class="st7 st0 st3">U</text>
<text transform="matrix(1 0 0 1 173.7729 193.5449)" class="st7 st0 st3">U</text>
<text transform="matrix(1 0 0 1 174.3779 312.6445)" class="st2 st0 st3">U</text>
<text transform="matrix(1 0 0 1 226.1406 323.3604)" class="st2 st0 st3">U</text>
<text transform="matrix(1 0 0 1 226.2891 264.2598)" class="st2 st0 st3">U</text>
<text transform="matrix(1 0 0 1 226.7686 247.0732)" class="st2 st0 st3">U</text>
<g>
	<text transform="matrix(1 0 0 1 188.1782 92.6572)" class="st4 st0 st3">U</text>
</g>
<g>
	<text transform="matrix(1 0 0 1 187.5601 108.7666)" class="st4 st0 st3">U</text>
</g>
<g>
	<text transform="matrix(1 0 0 1 188.0396 141.2739)" class="st4 st0 st3">U</text>
</g>
<text transform="matrix(1 0 0 1 187.71 213.7139)" class="st2 st0 st3">U</text>
<text transform="matrix(1 0 0 1 203.4785 48.5259)" class="st4 st0 st3">G</text>
<text transform="matrix(1 0 0 1 184.0015 57.4121)" class="st4 st0 st3">G</text>
<text transform="matrix(1 0 0 1 179.0151 73.7988)" class="st4 st0 st3">G</text>
<text transform="matrix(1 0 0 1 173.9331 144.2144)" class="st7 st0 st3">G</text>
<text transform="matrix(1 0 0 1 145.0166 150.6074)" class="st7 st0 st3">G</text>
<text transform="matrix(1 0 0 1 124.5171 173.291)" class="st7 st0 st3">G</text>
<text transform="matrix(1 0 0 1 144.292 197.583)" class="st7 st0 st3">G</text>
<text transform="matrix(1 0 0 1 159.6665 199.959)" class="st7 st0 st3">G</text>
<text transform="matrix(1 0 0 1 222.5176 55.0254)" class="st4 st0 st3">A</text>
<text transform="matrix(1 0 0 1 159.6348 147.4111)" class="st7 st0 st3">A</text>
<text transform="matrix(0.9991 -4.309628e-02 4.309628e-02 0.9991 132.9353 156.6283)" class="st7 st0 st3">A</text>
<text transform="matrix(1 0 0 1 229.5068 158.5664)" class="st2 st0 st3">G</text>
<line class="st5" x1="202.2" y1="346.2" x2="225.7" y2="346.2"/>
<line class="st5" x1="202.2" y1="331.5" x2="225.7" y2="331.5"/>
<line class="st5" x1="202.2" y1="314.8" x2="225.7" y2="314.8"/>
<line class="st5" x1="202.2" y1="287.7" x2="225.7" y2="287.7"/>
<line class="st5" x1="202.2" y1="272.7" x2="225.7" y2="272.7"/>
<line class="st5" x1="202.2" y1="255.6" x2="225.7" y2="255.6"/>
<line class="st5" x1="202.2" y1="238.5" x2="225.7" y2="238.5"/>
<line class="st5" x1="202.2" y1="221.4" x2="225.7" y2="221.4"/>
<line class="st5" x1="202.2" y1="206.1" x2="225.7" y2="206.1"/>
<line class="st5" x1="202.2" y1="190.8" x2="225.7" y2="190.8"/>
<line class="st5" x1="202.2" y1="132.1" x2="225.7" y2="132.1"/>
<line class="st5" x1="202.2" y1="117.7" x2="225.7" y2="117.7"/>
<line class="st5" x1="202.2" y1="102.5" x2="225.7" y2="102.5"/>
<line class="st5" x1="202.2" y1="84.7" x2="225.7" y2="84.7"/>
<line class="st5" x1="240.8" y1="272.7" x2="268.2" y2="272.7"/>
<line class="st5" x1="240.8" y1="102.5" x2="268.2" y2="102.5"/>
<line class="st5" x1="160.2" y1="223.4" x2="187.6" y2="223.4"/>
<text transform="matrix(1 0 0 1 269.3018 108.3755)" class="st6 st1">30</text>
<text transform="matrix(1 0 0 1 135.1929 228.9639)" class="st6 st1">10</text>
<text transform="matrix(1 0 0 1 173.9316 394.5576)" class="st6 st3">5’</text>
<text transform="matrix(1 0 0 1 244.8164 394.2881)" class="st6 st3">3’</text>
</svg>
