<?xml version="1.0" encoding="utf-8"?>
<!-- Generator: Adobe Illustrator 25.2.0, SVG Export Plug-In . SVG Version: 6.00 Build 0)  -->
<svg version="1.1" id="图层_1" xmlns="http://www.w3.org/2000/svg" xmlns:xlink="http://www.w3.org/1999/xlink" x="0px" y="0px"
	 viewBox="0 0 400 400" style="enable-background:new 0 0 400 400;" xml:space="preserve">
<style type="text/css">
	.st0{fill:#999999;}
	.st1{font-family:'ArialMT';}
	.st2{font-size:12.32px;}
	.st3{fill:#C2B617;}
	.st4{fill:none;stroke:#000000;stroke-miterlimit:1.11;}
	.st5{fill:#B83233;}
	.st6{stroke:#000000;stroke-miterlimit:1.11;}
	.st7{font-size:12px;}
	.st8{font-size:20px;}
</style>
<g id="ID000002">
	<text transform="matrix(1 0 0 1 6.15 237.09)" class="st0 st1 st2">U</text>
</g>
<g id="ID000003">
	<text transform="matrix(1 0 0 1 16.47 236.79)" class="st0 st1 st2">A</text>
</g>
<g id="ID000004">
	<text transform="matrix(1 0 0 1 26.95 237.09)" class="st0 st1 st2">A</text>
</g>
<g id="ID000005">
	<text transform="matrix(1 0 0 1 37.45 237.53)" class="st0 st1 st2">U</text>
</g>
<g id="ID000006">
	<text transform="matrix(1 0 0 1 47.92 236.94)" class="st0 st1 st2">A</text>
</g>
<g id="ID000007">
	<text transform="matrix(1 0 0 1 57.16 237.82)" class="st0 st1 st2">U</text>
</g>
<g id="ID000008">
	<text transform="matrix(1 0 0 1 67.79 236.94)" class="st0 st1 st2">A</text>
</g>
<g id="ID000009">
	<text transform="matrix(1 0 0 1 77.09 237.53)" class="st0 st1 st2">U</text>
</g>
<g id="ID000010">
	<text transform="matrix(1 0 0 1 87.71 237.38)" class="st3 st1 st2">C</text>
</g>
<g id="ID000011">
	<text transform="matrix(1 0 0 1 98.89 237.09)" class="st3 st1 st2">A</text>
</g>
<g id="ID000012">
	<line class="st4" x1="103" y1="226.3" x2="103" y2="218.3"/>
</g>
<g id="ID000013">
	<text transform="matrix(1 0 0 1 95.94 212.64)" class="st1 st2">10</text>
</g>
<g id="ID000014">
	<text transform="matrix(1 0 0 1 110.36 237.23)" class="st3 st1 st2">A</text>
</g>
<g id="ID000015">
	<text transform="matrix(1 0 0 1 120.34 237.23)" class="st3 st1 st2">G</text>
</g>
<g id="ID000016">
	<text transform="matrix(1 0 0 1 132.49 236.64)" class="st5 st1 st2">A</text>
</g>
<g id="ID000017">
	<text transform="matrix(1 0 0 1 131.81 224.64)" class="st5 st1 st2">G</text>
</g>
<g id="ID000018">
	<text transform="matrix(1 0 0 1 132.15 212.64)" class="st5 st1 st2">C</text>
</g>
<g id="ID000019">
	<text transform="matrix(1 0 0 1 132.15 200.64)" class="st5 st1 st2">C</text>
</g>
<g id="ID000020">
	<text transform="matrix(1 0 0 1 132.15 188.63)" class="st5 st1 st2">U</text>
</g>
<g id="ID000021">
	<text transform="matrix(1 0 0 1 133.05 175.78)" class="st5 st1 st2">A</text>
</g>
<g id="ID000023">
	<text transform="matrix(1 0 0 1 129.15 152.47)" class="st5 st1 st2">C</text>
</g>
<g id="ID000024">
	<line class="st4" x1="124.7" y1="149.1" x2="116.7" y2="149.1"/>
</g>
<g id="ID000025">
	<text transform="matrix(1 0 0 1 102.98 154.52)" class="st1 st2">20</text>
</g>
<g id="ID000026">
	<g>
		<text transform="matrix(1 0 0 1 138.43 140.22)" class="st5 st1 st2">A</text>
	</g>
</g>
<g id="ID000027">
	<g>
		<text transform="matrix(1 0 0 1 149.82 140.22)" class="st5 st1 st2">A</text>
	</g>
</g>
<g id="ID000028">
	<text transform="matrix(1 0 0 1 157.14 152.47)" class="st5 st1 st2">C</text>
</g>
<g id="ID000029">
	<text transform="matrix(1 0 0 1 155.81 175.78)" class="st5 st1 st2">U</text>
</g>
<g id="ID000030">
	<text transform="matrix(1 0 0 1 155.81 163.49)" class="st5 st1 st2">C</text>
</g>
<g id="ID000031">
	<text transform="matrix(1 0 0 1 155.82 188.63)" class="st5 st1 st2">G</text>
</g>
<g id="ID000032">
	<text transform="matrix(1 0 0 1 155.82 200.64)" class="st5 st1 st2">G</text>
</g>
<g id="ID000033">
	<text transform="matrix(1 0 0 1 155.82 212.64)" class="st5 st1 st2">G</text>
</g>
<g id="ID000034">
	<text transform="matrix(1 0 0 1 156.16 224.64)" class="st5 st1 st2">C</text>
</g>
<g id="ID000035">
	<text transform="matrix(1 0 0 1 156.16 236.64)" class="st5 st1 st2">U</text>
</g>
<g id="ID000036">
	<line class="st4" x1="160.6" y1="239.2" x2="160.6" y2="247.2"/>
</g>
<g id="ID000037">
	<text transform="matrix(1 0 0 1 153.76 261.41)" class="st1 st2">30</text>
</g>
<g id="ID000038">
	<text transform="matrix(1 0 0 1 166.87 236.64)" class="st3 st1 st2">A</text>
</g>
<g id="ID000039">
	<text transform="matrix(1 0 0 1 177.93 236.79)" class="st3 st1 st2">U</text>
</g>
<g id="ID000040">
	<text transform="matrix(1 0 0 1 189.97 236.64)" class="st3 st1 st2">A</text>
</g>
<g id="ID000041">
	<text transform="matrix(1 0 0 1 201.07 236.94)" class="st3 st1 st2">A</text>
</g>
<g id="ID000042">
	<text transform="matrix(1 0 0 1 211.31 236.94)" class="st3 st1 st2">A</text>
</g>
<g id="ID000043">
	<text transform="matrix(1 0 0 1 222.13 236.94)" class="st3 st1 st2">C</text>
</g>
<g id="ID000044">
	<text transform="matrix(1 0 0 1 234.24 237.08)" class="st3 st1 st2">U</text>
</g>
<g id="ID000045">
	<text transform="matrix(1 0 0 1 245.13 236.79)" class="st3 st1 st2">A</text>
</g>
<g id="ID000046">
	<text transform="matrix(1 0 0 1 255.95 236.94)" class="st3 st1 st2">A</text>
</g>
<g id="ID000047">
	<text transform="matrix(1 0 0 1 265.75 236.64)" class="st3 st1 st2">G</text>
</g>
<g id="ID000048">
	<line class="st4" x1="270.8" y1="225.1" x2="270.8" y2="217.1"/>
</g>
<g id="ID000049">
	<text transform="matrix(1 0 0 1 263.97 214.08)" class="st1 st2">40</text>
</g>
<g id="ID000050">
	<text transform="matrix(1 0 0 1 277.08 236.79)" class="st3 st1 st2">G</text>
</g>
<g id="ID000051">
	<text transform="matrix(1 0 0 1 289.94 236.94)" class="st3 st1 st2">A</text>
</g>
<g id="ID000052">
	<text transform="matrix(1 0 0 1 301.1 236.64)" class="st3 st1 st2">A</text>
</g>
<g id="ID000053">
	<text transform="matrix(1 0 0 1 310.9 236.94)" class="st3 st1 st2">U</text>
</g>
<g id="ID000054">
	<text transform="matrix(1 0 0 1 321.56 236.64)" class="st0 st1 st2">A</text>
</g>
<g id="ID000055">
	<text transform="matrix(1 0 0 1 332.08 236.64)" class="st0 st1 st2">U</text>
</g>
<g id="ID000056">
	<text transform="matrix(1 0 0 1 342.9 236.64)" class="st0 st1 st2">C</text>
</g>
<g id="ID000057">
	<text transform="matrix(1 0 0 1 354.06 236.64)" class="st0 st1 st2">U</text>
</g>
<g id="ID000058">
	<text transform="matrix(1 0 0 1 365.19 236.79)" class="st0 st1 st2">A</text>
</g>
<g id="ID000059">
	<text transform="matrix(1 0 0 1 375.84 237.23)" class="st0 st1 st2">U</text>
</g>
<g id="ID000060">
	<line class="st4" x1="380.2" y1="223.6" x2="380.2" y2="215.6"/>
</g>
<g id="ID000061">
	<text transform="matrix(1 0 0 1 373.39 212.64)" class="st1 st2">50</text>
</g>
<g id="ID000062">
	<text transform="matrix(1 0 0 1 385.98 237.38)" class="st0 st1 st2">G</text>
</g>
<g id="ID000063">
	<line class="st4" x1="141.4" y1="231.2" x2="155.8" y2="231.2"/>
</g>
<g id="ID000064">
	<line class="st4" x1="141.4" y1="219.2" x2="155.8" y2="219.2"/>
</g>
<g id="ID000065">
	<line class="st4" x1="141.4" y1="207.2" x2="155.8" y2="207.2"/>
</g>
<g id="ID000066">
	<line class="st4" x1="141.4" y1="195.2" x2="155.8" y2="195.2"/>
</g>
<g id="ID000067">
	<polygon class="st6" points="151,183.2 151,183.1 151,182.9 151,182.8 150.9,182.6 150.9,182.5 150.8,182.3 150.8,182.2 
		150.7,182.1 150.6,181.9 150.5,181.8 150.4,181.7 150.3,181.6 150.2,181.5 150.1,181.4 150,181.3 149.9,181.2 149.7,181.1 
		149.6,181 149.5,181 149.3,180.9 149.2,180.9 149,180.9 148.9,180.8 148.7,180.8 148.6,180.8 148.4,180.8 148.3,180.8 148.1,180.9 
		148,180.9 147.8,181 147.7,181 147.5,181.1 147.4,181.1 147.3,181.2 147.1,181.3 147,181.4 146.9,181.5 146.8,181.6 146.7,181.7 
		146.6,181.9 146.6,182 146.5,182.1 146.4,182.3 146.4,182.4 146.3,182.6 146.3,182.7 146.2,182.8 146.2,183 146.2,183.2 
		146.2,183.3 146.2,183.5 146.2,183.6 146.3,183.8 146.3,183.9 146.4,184 146.4,184.2 146.5,184.3 146.6,184.5 146.6,184.6 
		146.7,184.7 146.8,184.8 146.9,184.9 147,185 147.1,185.1 147.3,185.2 147.4,185.3 147.5,185.4 147.7,185.4 147.8,185.5 148,185.5 
		148.1,185.6 148.3,185.6 148.4,185.6 148.6,185.6 148.7,185.6 148.9,185.6 149,185.6 149.2,185.6 149.3,185.5 149.5,185.5 
		149.6,185.4 149.7,185.3 149.9,185.3 150,185.2 150.1,185.1 150.2,185 150.3,184.9 150.4,184.8 150.5,184.6 150.6,184.5 
		150.7,184.4 150.8,184.3 150.8,184.1 150.9,184 150.9,183.8 151,183.7 151,183.5 151,183.4 	"/>
</g>
<text transform="matrix(1 0 0 1 7.12 258.59)" class="st1 st7">5</text>
<text transform="matrix(1 0 0 1 13.79 258.59)" class="st1 st7">’</text>
<text transform="matrix(1 0 0 1 386.64 258.59)" class="st1 st7">3</text>
<text transform="matrix(1 0 0 1 393.31 258.59)" class="st1 st7">’</text>
<text transform="matrix(1 0 0 1 102.5998 64.8448)" class="st1 st8">Major variant aptamer</text>
<g id="ID000066-2">
	<line class="st4" x1="141.4" y1="171.2" x2="155.8" y2="171.2"/>
</g>
<g id="ID000033-2">
	<text transform="matrix(1 0 0 1 132.05 163.49)" class="st5 st1 st2">G</text>
</g>
<g id="ID000066-3">
	<line class="st4" x1="141.6" y1="158.2" x2="156" y2="158.2"/>
</g>
</svg>
