<svg id="图层_1" data-name="图层 1" xmlns="http://www.w3.org/2000/svg" viewBox="0 0 400 400">
  <defs>
    <style>
      .cls-1, .cls-10, .cls-11, .cls-12, .cls-13, .cls-2, .cls-3, .cls-4, .cls-6, .cls-7, .cls-8, .cls-9 {
        isolation: isolate;
        font-size: 17.37px;
      }

      .cls-1, .cls-2, .cls-8 {
        fill: #999;
      }

      .cls-1, .cls-10, .cls-11, .cls-12, .cls-13, .cls-15, .cls-17, .cls-2, .cls-3, .cls-4, .cls-6, .cls-7, .cls-8, .cls-9 {
        font-family: ArialMT, Arial;
      }

      .cls-2 {
        letter-spacing: -0.06em;
      }

      .cls-3, .cls-4 {
        fill: #f63;
      }

      .cls-11, .cls-12, .cls-13, .cls-4, .cls-8 {
        letter-spacing: -0.06em;
      }

      .cls-5 {
        fill: none;
      }

      .cls-14, .cls-5 {
        stroke: #000;
        stroke-miterlimit: 1.11;
        stroke-width: 0.14px;
      }

      .cls-13, .cls-7 {
        fill: #f06;
      }

      .cls-12, .cls-9 {
        fill: #3c3;
      }

      .cls-10, .cls-11 {
        fill: #39f;
      }

      .cls-15 {
        font-size: 16px;
      }

      .cls-16 {
        letter-spacing: -0.04em;
      }

      .cls-17 {
        font-size: 18px;
      }
    </style>
  </defs>
  <g id="ID000002">
    <text class="cls-1" transform="translate(89.56 393.39)">G</text>
  </g>
  <g id="ID000003">
    <text class="cls-1" transform="translate(111.26 393.39)">G</text>
  </g>
  <g id="ID000004">
    <text class="cls-2" transform="translate(133.93 393.39)">A</text>
  </g>
  <g id="ID000005">
    <text class="cls-1" transform="translate(150.81 393.39)">U</text>
  </g>
  <g id="ID000006">
    <text class="cls-1" transform="translate(172.51 393.39)">C</text>
  </g>
  <g id="ID000007">
    <text class="cls-1" transform="translate(194.21 393.39)">C</text>
  </g>
  <g id="ID000008">
    <text class="cls-3" transform="translate(193.72 376.03)">G</text>
  </g>
  <g id="ID000009">
    <text class="cls-3" transform="translate(194.21 358.67)">C</text>
  </g>
  <g id="ID000010">
    <text class="cls-4" transform="translate(194.69 341.31)">A</text>
  </g>
  <g id="ID000011">
    <text class="cls-3" transform="translate(193.72 323.95)">G</text>
  </g>
  <g id="ID000012">
    <line class="cls-5" x1="188.91" y1="316.14" x2="177.33" y2="316.14"/>
  </g>
  <g id="ID000013">
    <text class="cls-6" transform="translate(158.01 323.95)">10</text>
  </g>
  <g id="ID000014">
    <text class="cls-7" transform="translate(176.85 306.59)">U</text>
  </g>
  <g id="ID000015">
    <text class="cls-7" transform="translate(245.81 306.59)">G</text>
  </g>
  <g id="ID000016">
    <text class="cls-3" transform="translate(228.93 323.95)">C</text>
  </g>
  <g id="ID000017">
    <text class="cls-3" transform="translate(228.93 341.31)">U</text>
  </g>
  <g id="ID000018">
    <text class="cls-3" transform="translate(228.45 358.67)">G</text>
  </g>
  <g id="ID000019">
    <text class="cls-3" transform="translate(228.93 376.03)">C</text>
  </g>
  <g id="ID000020">
    <text class="cls-8" transform="translate(229.41 393.39)">A</text>
  </g>
  <g id="ID000021">
    <line class="cls-5" x1="207.43" y1="368.22" x2="228.26" y2="368.22"/>
  </g>
  <g id="ID000022">
    <line class="cls-5" x1="207.43" y1="350.86" x2="228.26" y2="350.86"/>
  </g>
  <g id="ID000023">
    <line class="cls-5" x1="207.43" y1="333.5" x2="228.26" y2="333.5"/>
  </g>
  <g id="ID000024">
    <line class="cls-5" x1="207.43" y1="316.14" x2="228.26" y2="316.14"/>
  </g>
  <g id="ID000026">
    <text class="cls-7" transform="translate(176.36 284.89)">G</text>
  </g>
  <g id="ID000027">
    <text class="cls-7" transform="translate(194.21 271.87)">C</text>
  </g>
  <g id="ID000028">
    <text class="cls-7" transform="translate(193.72 254.51)">G</text>
  </g>
  <g id="ID000029">
    <text class="cls-7" transform="translate(194.21 237.15)">U</text>
  </g>
  <g id="ID000030">
    <text class="cls-7" transform="translate(194.21 219.79)">C</text>
  </g>
  <g id="ID000031">
    <text class="cls-7" transform="translate(194.21 202.42)">U</text>
  </g>
  <g id="ID000032">
    <text class="cls-7" transform="translate(194.21 185.06)">U</text>
  </g>
  <g id="ID000033">
    <text class="cls-9" transform="translate(185.05 167.7)">G</text>
  </g>
  <g id="ID000034">
    <text class="cls-9" transform="translate(172.02 150.34)">G</text>
  </g>
  <g id="ID000035">
    <line class="cls-5" x1="167.21" y1="142.53" x2="155.63" y2="142.53"/>
  </g>
  <g id="ID000036">
    <text class="cls-6" transform="translate(136.31 150.34)">20</text>
  </g>
  <g id="ID000037">
    <text class="cls-9" transform="translate(180.7 128.64)">G</text>
  </g>
  <g id="ID000038">
    <text class="cls-9" transform="translate(194.21 115.62)">U</text>
  </g>
  <g id="ID000039">
    <text class="cls-10" transform="translate(176.85 98.26)">U</text>
  </g>
  <g id="ID000040">
    <text class="cls-10" transform="translate(176.36 76.56)">G</text>
  </g>
  <g id="ID000041">
    <text class="cls-10" transform="translate(194.21 63.54)">U</text>
  </g>
  <g id="ID000042">
    <text class="cls-10" transform="translate(193.72 46.18)">G</text>
  </g>
  <g id="ID000043">
    <text class="cls-11" transform="translate(212.05 33.16)">A</text>
  </g>
  <g id="ID000044">
    <text class="cls-10" transform="translate(228.45 46.18)">G</text>
  </g>
  <g id="ID000045">
    <text class="cls-10" transform="translate(228.45 63.54)">G</text>
  </g>
  <g id="ID000046">
    <text class="cls-10" transform="translate(241.95 80.9)">U</text>
  </g>
  <g id="ID000047">
    <line class="cls-5" x1="259.8" y1="73.09" x2="271.37" y2="73.09"/>
  </g>
  <g id="ID000048">
    <text class="cls-6" transform="translate(271.37 80.9)">30</text>
  </g>
  <g id="ID000049">
    <text class="cls-10" transform="translate(241.47 98.26)">G</text>
  </g>
  <g id="ID000050">
    <text class="cls-9" transform="translate(228.45 115.62)">G</text>
  </g>
  <g id="ID000051">
    <text class="cls-12" transform="translate(246.77 128.64)">A</text>
  </g>
  <g id="ID000052">
    <text class="cls-9" transform="translate(258.83 150.34)">G</text>
  </g>
  <g id="ID000053">
    <text class="cls-9" transform="translate(241.47 167.7)">G</text>
  </g>
  <g id="ID000054">
    <text class="cls-7" transform="translate(228.45 185.06)">G</text>
  </g>
  <g id="ID000055">
    <text class="cls-7" transform="translate(228.45 202.42)">G</text>
  </g>
  <g id="ID000056">
    <text class="cls-7" transform="translate(228.45 219.79)">G</text>
  </g>
  <g id="ID000057">
    <text class="cls-13" transform="translate(229.41 237.15)">A</text>
  </g>
  <g id="ID000058">
    <text class="cls-7" transform="translate(228.93 254.51)">C</text>
  </g>
  <g id="ID000059">
    <line class="cls-5" x1="246.78" y1="246.69" x2="258.35" y2="246.69"/>
  </g>
  <g id="ID000060">
    <text class="cls-6" transform="translate(258.35 254.51)">40</text>
  </g>
  <g id="ID000061">
    <text class="cls-7" transform="translate(228.45 271.87)">G</text>
  </g>
  <g id="ID000062">
    <text class="cls-7" transform="translate(246.29 284.89)">U</text>
  </g>
  <g id="ID000063">
    <line class="cls-5" x1="207.43" y1="264.05" x2="228.26" y2="264.05"/>
  </g>
  <g id="ID000064">
    <line class="cls-5" x1="207.43" y1="246.69" x2="228.26" y2="246.69"/>
  </g>
  <g id="ID000065">
    <line class="cls-5" x1="207.43" y1="229.33" x2="228.26" y2="229.33"/>
  </g>
  <g id="ID000066">
    <line class="cls-5" x1="207.43" y1="211.97" x2="228.26" y2="211.97"/>
  </g>
  <g id="ID000067">
    <polygon class="cls-14" points="221.31 194.61 221.31 194.39 221.29 194.17 221.25 193.96 221.2 193.74 221.14 193.53 221.07 193.32 220.98 193.12 220.88 192.92 220.76 192.74 220.64 192.55 220.5 192.38 220.35 192.22 220.2 192.06 220.03 191.92 219.86 191.78 219.67 191.66 219.48 191.55 219.28 191.45 219.08 191.37 218.87 191.3 218.66 191.24 218.44 191.19 218.23 191.16 218.01 191.14 217.79 191.14 217.57 191.15 217.35 191.18 217.13 191.21 216.92 191.26 216.71 191.33 216.5 191.41 216.3 191.5 216.11 191.6 215.92 191.72 215.74 191.85 215.57 191.99 215.41 192.14 215.25 192.3 215.11 192.47 214.98 192.64 214.86 192.83 214.76 193.02 214.66 193.22 214.58 193.42 214.51 193.63 214.46 193.85 214.41 194.06 214.39 194.28 214.37 194.5 214.37 194.72 214.39 194.94 214.41 195.16 214.46 195.38 214.51 195.59 214.58 195.8 214.66 196 214.76 196.2 214.86 196.4 214.98 196.58 215.11 196.76 215.25 196.93 215.41 197.09 215.57 197.24 215.74 197.38 215.92 197.5 216.11 197.62 216.3 197.72 216.5 197.81 216.71 197.89 216.92 197.96 217.13 198.01 217.35 198.05 217.57 198.07 217.79 198.08 218.01 198.08 218.23 198.06 218.44 198.03 218.66 197.99 218.87 197.93 219.08 197.85 219.28 197.77 219.48 197.67 219.67 197.56 219.86 197.44 220.03 197.31 220.2 197.16 220.35 197.01 220.5 196.84 220.64 196.67 220.76 196.49 220.88 196.3 220.98 196.1 221.07 195.9 221.14 195.69 221.2 195.48 221.25 195.27 221.29 195.05 221.31 194.83 221.31 194.61"/>
  </g>
  <g id="ID000068">
    <polygon class="cls-14" points="221.31 177.25 221.31 177.03 221.29 176.81 221.25 176.59 221.2 176.38 221.14 176.17 221.07 175.96 220.98 175.76 220.88 175.56 220.76 175.37 220.64 175.19 220.5 175.02 220.35 174.86 220.2 174.7 220.03 174.56 219.86 174.42 219.67 174.3 219.48 174.19 219.28 174.09 219.08 174.01 218.87 173.94 218.66 173.88 218.44 173.83 218.23 173.8 218.01 173.78 217.79 173.78 217.57 173.79 217.35 173.81 217.13 173.85 216.92 173.91 216.71 173.97 216.5 174.05 216.3 174.14 216.11 174.24 215.92 174.36 215.74 174.49 215.57 174.63 215.41 174.78 215.25 174.94 215.11 175.1 214.98 175.28 214.86 175.47 214.76 175.66 214.66 175.86 214.58 176.06 214.51 176.27 214.46 176.49 214.41 176.7 214.39 176.92 214.37 177.14 214.37 177.36 214.39 177.58 214.41 177.8 214.46 178.02 214.51 178.23 214.58 178.44 214.66 178.64 214.76 178.84 214.86 179.03 214.98 179.22 215.11 179.4 215.25 179.57 215.41 179.73 215.57 179.88 215.74 180.01 215.92 180.14 216.11 180.26 216.3 180.36 216.5 180.45 216.71 180.53 216.92 180.6 217.13 180.65 217.35 180.69 217.57 180.71 217.79 180.72 218.01 180.72 218.23 180.7 218.44 180.67 218.66 180.63 218.87 180.57 219.08 180.5 219.28 180.41 219.48 180.31 219.67 180.2 219.86 180.08 220.03 179.95 220.2 179.8 220.35 179.65 220.5 179.48 220.64 179.31 220.76 179.13 220.88 178.94 220.98 178.74 221.07 178.54 221.14 178.34 221.2 178.12 221.25 177.91 221.29 177.69 221.31 177.47 221.31 177.25"/>
  </g>
  <g id="ID000069">
    <line class="cls-5" x1="207.43" y1="107.81" x2="228.26" y2="107.81"/>
  </g>
  <g id="ID000070">
    <polygon class="cls-14" points="221.31 107.81 221.31 107.59 221.29 107.37 221.25 107.15 221.2 106.94 221.14 106.73 221.07 106.52 220.98 106.32 220.88 106.12 220.76 105.93 220.64 105.75 220.5 105.58 220.35 105.41 220.2 105.26 220.03 105.11 219.86 104.98 219.67 104.86 219.48 104.75 219.28 104.65 219.08 104.56 218.87 104.49 218.66 104.44 218.44 104.39 218.23 104.36 218.01 104.34 217.79 104.34 217.57 104.35 217.35 104.37 217.13 104.41 216.92 104.46 216.71 104.53 216.5 104.61 216.3 104.7 216.11 104.8 215.92 104.92 215.74 105.05 215.57 105.19 215.41 105.33 215.25 105.49 215.11 105.66 214.98 105.84 214.86 106.03 214.76 106.22 214.66 106.42 214.58 106.62 214.51 106.83 214.46 107.04 214.41 107.26 214.39 107.48 214.37 107.7 214.37 107.92 214.39 108.14 214.41 108.36 214.46 108.57 214.51 108.79 214.58 109 214.66 109.2 214.76 109.4 214.86 109.59 214.98 109.78 215.11 109.95 215.25 110.12 215.41 110.28 215.57 110.43 215.74 110.57 215.92 110.7 216.11 110.82 216.3 110.92 216.5 111.01 216.71 111.09 216.92 111.16 217.13 111.21 217.35 111.25 217.57 111.27 217.79 111.28 218.01 111.28 218.23 111.26 218.44 111.23 218.66 111.18 218.87 111.12 219.08 111.05 219.28 110.97 219.48 110.87 219.67 110.76 219.86 110.64 220.03 110.5 220.2 110.36 220.35 110.2 220.5 110.04 220.64 109.87 220.76 109.69 220.88 109.5 220.98 109.3 221.07 109.1 221.14 108.89 221.2 108.68 221.25 108.47 221.29 108.25 221.31 108.03 221.31 107.81"/>
  </g>
  <g id="ID000071">
    <line class="cls-14" x1="207.43" y1="55.73" x2="228.26" y2="55.73"/>
  </g>
  <g id="ID000072">
    <polygon class="cls-14" points="221.31 55.73 221.31 55.51 221.29 55.29 221.25 55.07 221.2 54.85 221.14 54.64 221.07 54.44 220.98 54.23 220.88 54.04 220.76 53.85 220.64 53.67 220.5 53.49 220.35 53.33 220.2 53.18 220.03 53.03 219.86 52.9 219.67 52.78 219.48 52.67 219.28 52.57 219.08 52.48 218.87 52.41 218.66 52.35 218.44 52.31 218.23 52.28 218.01 52.26 217.79 52.26 217.57 52.27 217.35 52.29 217.13 52.33 216.92 52.38 216.71 52.45 216.5 52.52 216.3 52.62 216.11 52.72 215.92 52.84 215.74 52.96 215.57 53.1 215.41 53.25 215.25 53.41 215.11 53.58 214.98 53.76 214.86 53.94 214.76 54.14 214.66 54.34 214.58 54.54 214.51 54.75 214.46 54.96 214.41 55.18 214.39 55.4 214.37 55.62 214.37 55.84 214.39 56.06 214.41 56.27 214.46 56.49 214.51 56.7 214.58 56.91 214.66 57.12 214.76 57.32 214.86 57.51 214.98 57.7 215.11 57.87 215.25 58.04 215.41 58.2 215.57 58.35 215.74 58.49 215.92 58.62 216.11 58.73 216.3 58.84 216.5 58.93 216.71 59.01 216.92 59.07 217.13 59.13 217.35 59.16 217.57 59.19 217.79 59.2 218.01 59.2 218.23 59.18 218.44 59.15 218.66 59.1 218.87 59.04 219.08 58.97 219.28 58.88 219.48 58.79 219.67 58.68 219.86 58.55 220.03 58.42 220.2 58.28 220.35 58.12 220.5 57.96 220.64 57.78 220.76 57.6 220.88 57.41 220.98 57.22 221.07 57.02 221.14 56.81 221.2 56.6 221.25 56.38 221.29 56.17 221.31 55.95 221.31 55.73"/>
  </g>
  <text class="cls-15" transform="translate(79 380.95)">5<tspan class="cls-16" x="8.9" y="0">’</tspan></text>
  <text class="cls-15" transform="translate(257.43 393.39)">3<tspan class="cls-16" x="8.9" y="0">’</tspan></text>
  <text class="cls-17" transform="translate(4.62 20.72)">ApT4-AΔ20nt-int aptamer</text>
</svg>
