<?xml version="1.0" encoding="utf-8"?>
<!-- Generator: Adobe Illustrator 25.2.0, SVG Export Plug-In . SVG Version: 6.00 Build 0)  -->
<svg version="1.1" id="图层_1" xmlns="http://www.w3.org/2000/svg" xmlns:xlink="http://www.w3.org/1999/xlink" x="0px" y="0px"
	 viewBox="0 0 800 400" style="enable-background:new 0 0 800 400;" xml:space="preserve">
<style type="text/css">
	.st0{fill:#B03233;}
	.st1{font-family:'Arial-BoldMT';}
	.st2{font-size:22.9059px;}
	.st3{fill:#389A38;}
	.st4{fill:none;stroke:#040000;stroke-miterlimit:1.7741;}
	.st5{fill:#0A428C;}
	.st6{fill:#040000;}
	.st7{font-family:'ArialMT';}
	.st8{font-size:20px;}
	.st9{fill:#C23F77;}
	.st10{fill:#1F9286;}
	.st11{font-family:'MicrosoftYaHei';}
	.st12{fill:none;}
</style>
<g id="topgroup">
	<g id="ID000000">
		<g>
			<g id="ID000002">
				<g transform="translate(175.506,416.164)">
					<g transform="rotate(-0.0)">
						<text transform="matrix(1 0 0 1 -81.4619 -233.918)" class="st0 st1 st2">G</text>
					</g>
				</g>
			</g>
			<g id="ID000003">
				<g transform="translate(214.872,416.164)">
					<g transform="rotate(-0.0)">
						<text transform="matrix(1 0 0 1 -97.0691 -233.918)" class="st0 st1 st2">C</text>
					</g>
				</g>
			</g>
			<g id="ID000004">
				<g transform="translate(254.237,416.164)">
					<g transform="rotate(-0.0)">
						<text transform="matrix(1 0 0 1 -113.314 -233.918)" class="st0 st1 st2">A</text>
					</g>
				</g>
			</g>
			<g id="ID000005">
				<g transform="translate(293.603,416.164)">
					<g transform="rotate(-0.0)">
						<text transform="matrix(1 0 0 1 -129.5598 -233.918)" class="st0 st1 st2">A</text>
					</g>
				</g>
			</g>
			<g id="ID000006">
				<g transform="translate(313.286,376.799)">
					<g transform="rotate(-0.0)">
						<text transform="matrix(1 0 0 1 -137.6823 -217.6731)" class="st3 st1 st2">U</text>
					</g>
				</g>
			</g>
			<g id="ID000007">
				<g transform="translate(332.969,494.896)">
					<g transform="rotate(-0.0)">
						<text transform="matrix(1 0 0 1 -145.8047 -266.4088)" class="st3 st1 st2">U</text>
					</g>
				</g>
			</g>
			<g id="ID000008">
				<g transform="translate(293.603,494.896)">
					<g transform="rotate(-0.0)">
						<text transform="matrix(1 0 0 1 -129.5598 -266.4088)" class="st0 st1 st2">U</text>
					</g>
				</g>
			</g>
			<g id="ID000009">
				<g transform="translate(254.237,494.896)">
					<g transform="rotate(-0.0)">
						<text transform="matrix(1 0 0 1 -113.314 -266.4088)" class="st0 st1 st2">U</text>
					</g>
				</g>
			</g>
			<g id="ID000010">
				<g transform="translate(214.872,494.896)">
					<g transform="rotate(-0.0)">
						<text transform="matrix(1 0 0 1 -97.7068 -266.4088)" class="st0 st1 st2">G</text>
					</g>
				</g>
			</g>
			<g id="ID000011">
				<g transform="translate(175.506,494.896)">
					<g transform="rotate(-0.0)">
						<text transform="matrix(1 0 0 1 -80.8242 -266.4088)" class="st0 st1 st2">C</text>
					</g>
				</g>
			</g>
			<g id="ID000012">
				<g transform="translate(136.140,494.896)">
					<g transform="rotate(-0.0)">
						<text transform="matrix(1 0 0 1 -64.5802 -266.4088)" class="st0 st1 st2">U</text>
					</g>
				</g>
			</g>
			<g id="ID000013">
				<g transform="translate(96.774,494.896)">
					<g transform="rotate(-0.0)">
						<text transform="matrix(1 0 0 1 -48.3334 -266.4088)" class="st0 st1 st2">A</text>
					</g>
				</g>
			</g>
			<g id="ID000014">
				<g transform="translate(57.408,494.896)">
					<g transform="rotate(-0.0)">
						<text transform="matrix(1 0 0 1 -32.0895 -266.4088)" class="st0 st1 st2">A</text>
					</g>
				</g>
			</g>
			<g id="ID000015">
				<line class="st4" x1="103" y1="181.1" x2="103" y2="208.8"/>
			</g>
			<g id="ID000016">
				<line class="st4" x1="126.1" y1="181.1" x2="126.1" y2="208.8"/>
			</g>
			<g id="ID000017">
				<line class="st4" x1="149.2" y1="181.1" x2="149.2" y2="208.8"/>
			</g>
			<g id="ID000018">
				<line class="st4" x1="172.3" y1="181.1" x2="172.3" y2="208.8"/>
			</g>
			<g id="ID000020">
				<g transform="translate(352.652,376.799)">
					<g transform="rotate(-0.0)">
						<text transform="matrix(1 0 0 1 -154.5639 -217.6731)" class="st3 st1 st2">G</text>
					</g>
				</g>
			</g>
			<g id="ID000021">
				<g transform="translate(372.335,416.164)">
					<g transform="rotate(-0.0)">
						<text transform="matrix(1 0 0 1 -162.6873 -233.918)" class="st5 st1 st2">G</text>
					</g>
				</g>
			</g>
			<g id="ID000022">
				<g transform="translate(411.700,416.164)">
					<g transform="rotate(-0.0)">
						<text transform="matrix(1 0 0 1 -178.2946 -233.918)" class="st5 st1 st2">U</text>
					</g>
				</g>
			</g>
			<g id="ID000023">
				<g transform="translate(451.066,416.164)">
					<g transform="rotate(-0.0)">
						<text transform="matrix(1 0 0 1 -194.5395 -233.918)" class="st5 st1 st2">A</text>
					</g>
				</g>
			</g>
			<g id="ID000024">
				<g transform="translate(490.432,416.164)">
					<g transform="rotate(-0.0)">
						<text transform="matrix(1 0 0 1 -210.7852 -233.918)" class="st5 st1 st2">C</text>
					</g>
				</g>
			</g>
			<g id="ID000025">
				<line class="st4" x1="287.9" y1="156.4" x2="287.9" y2="141"/>
			</g>
			<g id="ID000026">
				<g transform="translate(490.432,336.121)">
					<g transform="rotate(-0.0)">
						<text transform="matrix(1 0 0 1 -215.2541 -200.8867)" class="st6 st7 st8">10</text>
					</g>
				</g>
			</g>
			<g id="ID000027">
				<g transform="translate(490.432,494.896)">
					<g transform="rotate(-0.0)">
						<text transform="matrix(1 0 0 1 -210.7852 -266.4088)" class="st5 st1 st2">C</text>
					</g>
				</g>
			</g>
			<g id="ID000028">
				<g transform="translate(451.066,494.896)">
					<g transform="rotate(-0.0)">
						<text transform="matrix(1 0 0 1 -194.5395 -266.4088)" class="st5 st1 st2">U</text>
					</g>
				</g>
			</g>
			<g id="ID000029">
				<g transform="translate(411.700,494.896)">
					<g transform="rotate(-0.0)">
						<text transform="matrix(1 0 0 1 -178.2946 -266.4088)" class="st5 st1 st2">A</text>
					</g>
				</g>
			</g>
			<g id="ID000030">
				<g transform="translate(372.335,494.896)">
					<g transform="rotate(-0.0)">
						<text transform="matrix(1 0 0 1 -162.0497 -266.4088)" class="st5 st1 st2">C</text>
					</g>
				</g>
			</g>
			<g id="ID000031">
				<line class="st4" x1="218.6" y1="233.5" x2="218.6" y2="248.9"/>
			</g>
			<g id="ID000032">
				<g transform="translate(372.335,576.121)">
					<g transform="rotate(-0.0)">
						<text transform="matrix(1 0 0 1 -166.5173 -299.9267)" class="st6 st7 st8">60</text>
					</g>
				</g>
			</g>
			<g id="ID000033">
				<line class="st4" x1="218.6" y1="181.1" x2="218.6" y2="208.8"/>
			</g>
			<g id="ID000034">
				<line class="st4" x1="241.7" y1="181.1" x2="241.7" y2="208.8"/>
			</g>
			<g id="ID000035">
				<line class="st4" x1="264.8" y1="181.1" x2="264.8" y2="208.8"/>
			</g>
			<g id="ID000036">
				<g transform="translate(529.798,416.164)">
					<g transform="rotate(-0.0)">
						<text transform="matrix(1 0 0 1 -227.6678 -233.918)" class="st5 st1 st2">G</text>
					</g>
				</g>
			</g>
			<g id="ID000037">
				<g transform="translate(569.163,416.164)">
					<g transform="rotate(-0.0)">
						<text transform="matrix(1 0 0 1 -243.9128 -233.918)" class="st5 st1 st2">G</text>
					</g>
				</g>
			</g>
			<g id="ID000038">
				<g transform="translate(608.529,416.164)">
					<g transform="rotate(-0.0)">
						<text transform="matrix(1 0 0 1 -259.52 -233.918)" class="st5 st1 st2">U</text>
					</g>
				</g>
			</g>
			<g id="ID000039">
				<g transform="translate(647.895,416.164)">
					<g transform="rotate(-0.0)">
						<text transform="matrix(1 0 0 1 -275.765 -233.918)" class="st5 st1 st2">A</text>
					</g>
				</g>
			</g>
			<g id="ID000040">
				<g transform="translate(687.261,416.164)">
					<g transform="rotate(-0.0)">
						<text transform="matrix(1 0 0 1 -292.0107 -233.918)" class="st5 st1 st2">C</text>
					</g>
				</g>
			</g>
			<g id="ID000041">
				<g transform="translate(706.944,376.799)">
					<g transform="rotate(-0.0)">
						<text transform="matrix(1 0 0 1 -300.1337 -217.6731)" class="st3 st1 st2">U</text>
					</g>
				</g>
			</g>
			<g id="ID000042">
				<g transform="translate(726.627,494.896)">
					<g transform="rotate(-0.0)">
						<text transform="matrix(1 0 0 1 -308.2562 -266.4088)" class="st3 st1 st2">U</text>
					</g>
				</g>
			</g>
			<g id="ID000043">
				<g transform="translate(687.261,494.896)">
					<g transform="rotate(-0.0)">
						<text transform="matrix(1 0 0 1 -292.6485 -266.4088)" class="st5 st1 st2">G</text>
					</g>
				</g>
			</g>
			<g id="ID000044">
				<g transform="translate(647.895,494.896)">
					<g transform="rotate(-0.0)">
						<text transform="matrix(1 0 0 1 -275.765 -266.4088)" class="st5 st1 st2">C</text>
					</g>
				</g>
			</g>
			<g id="ID000045">
				<g transform="translate(608.529,494.896)">
					<g transform="rotate(-0.0)">
						<text transform="matrix(1 0 0 1 -259.52 -266.4088)" class="st5 st1 st2">A</text>
					</g>
				</g>
			</g>
			<g id="ID000046">
				<g transform="translate(569.163,494.896)">
					<g transform="rotate(-0.0)">
						<text transform="matrix(1 0 0 1 -243.2751 -266.4088)" class="st5 st1 st2">C</text>
					</g>
				</g>
			</g>
			<g id="ID000047">
				<g transform="translate(529.798,494.896)">
					<g transform="rotate(-0.0)">
						<text transform="matrix(1 0 0 1 -227.6678 -266.4088)" class="st5 st1 st2">G</text>
					</g>
				</g>
			</g>
			<g id="ID000048">
				<line class="st4" x1="334.2" y1="181.1" x2="334.2" y2="208.8"/>
			</g>
			<g id="ID000049">
				<line class="st4" x1="357.3" y1="181.1" x2="357.3" y2="208.8"/>
			</g>
			<g id="ID000050">
				<line class="st4" x1="380.4" y1="181.1" x2="380.4" y2="208.8"/>
			</g>
			<g id="ID000051">
				<line class="st4" x1="403.6" y1="181.1" x2="403.6" y2="208.8"/>
			</g>
			<g id="ID000052">
				<g transform="translate(746.309,376.799)">
					<g transform="rotate(-0.0)">
						<text transform="matrix(1 0 0 1 -316.3777 -217.6731)" class="st3 st1 st2">U</text>
					</g>
				</g>
			</g>
			<g id="ID000053">
				<g transform="translate(765.992,416.164)">
					<g transform="rotate(-0.0)">
						<text transform="matrix(1 0 0 1 -324.5001 -233.918)" class="st9 st1 st2">C</text>
					</g>
				</g>
			</g>
			<g id="ID000054">
				<g transform="translate(805.358,416.164)">
					<g transform="rotate(-0.0)">
						<text transform="matrix(1 0 0 1 -340.745 -233.918)" class="st9 st1 st2">C</text>
					</g>
				</g>
			</g>
			<g id="ID000055">
				<g transform="translate(844.724,416.164)">
					<g transform="rotate(-0.0)">
						<text transform="matrix(1 0 0 1 -356.9919 -233.918)" class="st9 st1 st2">U</text>
					</g>
				</g>
			</g>
			<g id="ID000056">
				<line class="st4" x1="496" y1="156.4" x2="496" y2="141"/>
			</g>
			<g id="ID000057">
				<g transform="translate(844.724,336.121)">
					<g transform="rotate(-0.0)">
						<text transform="matrix(1 0 0 1 -361.4586 -200.8867)" class="st6 st7 st8">20</text>
					</g>
				</g>
			</g>
			<g id="ID000058">
				<g transform="translate(884.090,416.164)">
					<g transform="rotate(-0.0)">
						<text transform="matrix(1 0 0 1 -373.2368 -233.918)" class="st9 st1 st2">U</text>
					</g>
				</g>
			</g>
			<g id="ID000059">
				<g transform="translate(923.455,416.164)">
					<g transform="rotate(-0.0)">
						<text transform="matrix(1 0 0 1 -389.4807 -233.918)" class="st9 st1 st2">U</text>
					</g>
				</g>
			</g>
			<g id="ID000060">
				<g transform="translate(962.821,416.164)">
					<g transform="rotate(-0.0)">
						<text transform="matrix(1 0 0 1 -406.3643 -233.918)" class="st9 st1 st2">G</text>
					</g>
				</g>
			</g>
			<g id="ID000061">
				<g transform="translate(1002.187,416.164)">
					<g transform="rotate(-0.0)">
						<text transform="matrix(1 0 0 1 -422.6073 -233.918)" class="st9 st1 st2">G</text>
					</g>
				</g>
			</g>
			<g id="ID000062">
				<g transform="translate(1012.028,376.799)">
					<g transform="rotate(-0.0)">
						<text transform="matrix(1 0 0 1 -426.0322 -217.6731)" class="st3 st1 st2">A</text>
					</g>
				</g>
			</g>
			<g id="ID000063">
				<g transform="translate(1031.711,337.433)">
					<g transform="rotate(-0.0)">
						<text transform="matrix(1 0 0 1 -434.1547 -201.4282)" class="st3 st1 st2">A</text>
					</g>
				</g>
			</g>
			<g id="ID000064">
				<g transform="translate(1051.394,494.896)">
					<g transform="rotate(-0.0)">
						<text transform="matrix(1 0 0 1 -442.2772 -266.4088)" class="st3 st1 st2">A</text>
					</g>
				</g>
			</g>
			<g id="ID000065">
				<g transform="translate(1002.187,494.896)">
					<g transform="rotate(-0.0)">
						<text transform="matrix(1 0 0 1 -421.9705 -266.4088)" class="st9 st1 st2">C</text>
					</g>
				</g>
			</g>
			<g id="ID000066">
				<g transform="translate(962.821,494.896)">
					<g transform="rotate(-0.0)">
						<text transform="matrix(1 0 0 1 -405.7255 -266.4088)" class="st9 st1 st2">C</text>
					</g>
				</g>
			</g>
			<g id="ID000067">
				<g transform="translate(923.455,494.896)">
					<g transform="rotate(-0.0)">
						<text transform="matrix(1 0 0 1 -389.4807 -266.4088)" class="st9 st1 st2">A</text>
					</g>
				</g>
			</g>
			<g id="ID000068">
				<g transform="translate(884.090,494.896)">
					<g transform="rotate(-0.0)">
						<text transform="matrix(1 0 0 1 -373.2368 -266.4088)" class="st9 st1 st2">A</text>
					</g>
				</g>
			</g>
			<g id="ID000069">
				<g transform="translate(844.724,494.896)">
					<g transform="rotate(-0.0)">
						<text transform="matrix(1 0 0 1 -356.9919 -266.4088)" class="st9 st1 st2">A</text>
					</g>
				</g>
			</g>
			<g id="ID000070">
				<g transform="translate(805.358,494.896)">
					<g transform="rotate(-0.0)">
						<text transform="matrix(1 0 0 1 -340.745 -266.4088)" class="st9 st1 st2">A</text>
					</g>
				</g>
			</g>
			<g id="ID000071">
				<g transform="translate(765.992,494.896)">
					<g transform="rotate(-0.0)">
						<text transform="matrix(1 0 0 1 -325.1388 -266.4088)" class="st9 st1 st2">G</text>
					</g>
				</g>
			</g>
			<g id="ID000072">
				<line class="st4" x1="449.8" y1="233.5" x2="449.8" y2="248.9"/>
			</g>
			<g id="ID000073">
				<g transform="translate(765.992,576.121)">
					<g transform="rotate(-0.0)">
						<text transform="matrix(1 0 0 1 -328.9688 -299.9267)" class="st6 st7 st8">50</text>
					</g>
				</g>
			</g>
			<g id="ID000074">
				<line class="st4" x1="449.8" y1="181.1" x2="449.8" y2="208.8"/>
			</g>
			<g id="ID000075">
				<line class="st4" x1="472.9" y1="181.1" x2="472.9" y2="208.8"/>
			</g>
			<g id="ID000076">
				<line class="st4" x1="496" y1="181.1" x2="496" y2="208.8"/>
			</g>
			<g id="ID000077">
				<line class="st4" x1="519.2" y1="181.1" x2="519.2" y2="208.8"/>
			</g>
			<g id="ID000078">
				<line class="st4" x1="542.3" y1="181.1" x2="542.3" y2="208.8"/>
			</g>
			<g id="ID000079">
				<line class="st4" x1="565.4" y1="181.1" x2="565.4" y2="208.8"/>
			</g>
			<g id="ID000080">
				<line class="st4" x1="588.5" y1="181.1" x2="588.5" y2="208.8"/>
			</g>
			<g id="ID000081">
				<g transform="translate(1071.077,337.433)">
					<g transform="rotate(-0.0)">
						<text transform="matrix(1 0 0 1 -451.0383 -201.4282)" class="st3 st1 st2">G</text>
					</g>
				</g>
			</g>
			<g id="ID000082">
				<g transform="translate(1090.760,376.799)">
					<g transform="rotate(-0.0)">
						<text transform="matrix(1 0 0 1 -458.5239 -217.6731)" class="st3 st1 st2">A</text>
					</g>
				</g>
			</g>
			<g id="ID000083">
				<g transform="translate(1100.601,416.164)">
					<g transform="rotate(-0.0)">
						<text transform="matrix(1 0 0 1 -462.5836 -233.918)" class="st10 st1 st2">U</text>
					</g>
				</g>
			</g>
			<g id="ID000084">
				<g transform="translate(1139.967,416.164)">
					<g transform="rotate(-0.0)">
						<text transform="matrix(1 0 0 1 -478.8286 -233.918)" class="st10 st1 st2">A</text>
					</g>
				</g>
			</g>
			<g id="ID000085">
				<line class="st4" x1="680.3" y1="160.9" x2="691.2" y2="150"/>
			</g>
			<g id="ID000086">
				<g transform="translate(1177.082,351.494)">
					<g transform="rotate(-0.0)">
						<text transform="matrix(1 0 0 1 -485.8752 -207.2304)" class="st6 st7 st8">30</text>
					</g>
				</g>
			</g>
			<g id="ID000087">
				<g transform="translate(1179.333,416.164)">
					<g transform="rotate(-0.0)">
						<text transform="matrix(1 0 0 1 -495.7122 -233.918)" class="st10 st1 st2">G</text>
					</g>
				</g>
			</g>
			<g id="ID000088">
				<g transform="translate(1218.699,416.164)">
					<g transform="rotate(-0.0)">
						<text transform="matrix(1 0 0 1 -511.3184 -233.918)" class="st10 st1 st2">C</text>
					</g>
				</g>
			</g>
			<g id="ID000089">
				<g transform="translate(1258.065,416.164)">
					<g transform="rotate(-0.0)">
						<text transform="matrix(1 0 0 1 -527.5651 -233.918)" class="st10 st1 st2">U</text>
					</g>
				</g>
			</g>
			<g id="ID000090">
				<g transform="translate(1297.430,416.164)">
					<g transform="rotate(-0.0)">
						<text transform="matrix(1 0 0 1 -544.446 -233.918)" class="st10 st1 st2">G</text>
					</g>
				</g>
			</g>
			<g id="ID000091">
				<g transform="translate(1336.796,435.847)">
					<g transform="rotate(-0.0)">
						<text transform="matrix(1 0 0 1 -560.6927 -242.0404)" class="st10 st1 st2">G</text>
					</g>
				</g>
			</g>
			<g id="ID000092">
				<g transform="translate(1336.796,475.213)">
					<g transform="rotate(-0.0)">
						<text transform="matrix(1 0 0 1 -560.0541 -258.2854)" class="st10 st1 st2">A</text>
					</g>
				</g>
			</g>
			<g id="ID000093">
				<g transform="translate(1297.430,494.896)">
					<g transform="rotate(-0.0)">
						<text transform="matrix(1 0 0 1 -544.446 -266.4088)" class="st10 st1 st2">G</text>
					</g>
				</g>
			</g>
			<g id="ID000094">
				<g transform="translate(1258.065,494.896)">
					<g transform="rotate(-0.0)">
						<text transform="matrix(1 0 0 1 -527.5651 -266.4088)" class="st10 st1 st2">A</text>
					</g>
				</g>
			</g>
			<g id="ID000095">
				<g transform="translate(1218.699,494.896)">
					<g transform="rotate(-0.0)">
						<text transform="matrix(1 0 0 1 -511.3184 -266.4088)" class="st10 st1 st2">A</text>
					</g>
				</g>
			</g>
			<g id="ID000096">
				<g transform="translate(1179.333,494.896)">
					<g transform="rotate(-0.0)">
						<text transform="matrix(1 0 0 1 -495.0735 -266.4088)" class="st10 st1 st2">C</text>
					</g>
				</g>
			</g>
			<g id="ID000097">
				<line class="st4" x1="692.6" y1="233.5" x2="692.6" y2="248.9"/>
			</g>
			<g id="ID000098">
				<g transform="translate(1179.333,576.121)">
					<g transform="rotate(-0.0)">
						<text transform="matrix(1 0 0 1 -499.5422 -299.9267)" class="st6 st7 st8">40</text>
					</g>
				</g>
			</g>
			<g id="ID000099">
				<g transform="translate(1139.967,494.896)">
					<g transform="rotate(-0.0)">
						<text transform="matrix(1 0 0 1 -478.8286 -266.4088)" class="st10 st1 st2">U</text>
					</g>
				</g>
			</g>
			<g id="ID000100">
				<g transform="translate(1100.601,494.896)">
					<g transform="rotate(-0.0)">
						<text transform="matrix(1 0 0 1 -462.5836 -266.4088)" class="st10 st1 st2">A</text>
					</g>
				</g>
			</g>
			<g id="ID000101">
				<line class="st4" x1="646.3" y1="181.1" x2="646.3" y2="208.8"/>
			</g>
			<g id="ID000102">
				<line class="st4" x1="669.4" y1="181.1" x2="669.4" y2="208.8"/>
			</g>
			<g id="ID000103">
				<line class="st4" x1="692.6" y1="181.1" x2="692.6" y2="208.8"/>
			</g>
			<g id="ID000104">
				<line class="st4" x1="715.7" y1="181.1" x2="715.7" y2="208.8"/>
			</g>
			<g id="ID000105">
				<line class="st4" x1="738.8" y1="181.1" x2="738.8" y2="208.8"/>
			</g>
		</g>
	</g>
</g>
<text transform="matrix(1 0 0 1 338.4568 50.8651)" class="st11 st8">T705 aptamer</text>
<text transform="matrix(1 0 0 1 8.7748 244.479)" class="st6 st7 st8">3’</text>
<text transform="matrix(1 0 0 1 82.8072 160.9441)" class="st6 st7 st8">5’</text>
<polygon class="st12" points="83.6,156.9 94.8,156.9 94.8,156.9 "/>
<rect x="24.6" y="239.6" class="st12" width="1.1" height="2.2"/>
</svg>
