<?xml version="1.0" encoding="utf-8"?>
<!-- Generator: Adobe Illustrator 25.2.0, SVG Export Plug-In . SVG Version: 6.00 Build 0)  -->
<svg version="1.1" id="_图层_1" xmlns="http://www.w3.org/2000/svg" xmlns:xlink="http://www.w3.org/1999/xlink" x="0px" y="0px"
	 viewBox="0 0 800 400" style="enable-background:new 0 0 800 400;" xml:space="preserve">
<style type="text/css">
	.st0{fill:#B83233;}
	.st1{font-family:'ArialMT';}
	.st2{font-size:25.4919px;}
	.st3{letter-spacing:-1.9;}
	.st4{fill:#F17D07;}
	.st5{fill:none;stroke:#000000;stroke-width:1.2;stroke-miterlimit:9.61;}
	.st6{font-size:20px;}
	.st7{stroke:#000000;stroke-width:1.2;stroke-miterlimit:9.61;}
	.st8{fill:#FFFFFF;stroke:#000000;stroke-width:1.2;stroke-miterlimit:9.61;}
	.st9{fill:#2EA103;}
	.st10{fill:#084595;}
	.st11{fill:none;stroke:#000000;stroke-miterlimit:9.61;}
	.st12{letter-spacing:-1;}
	.st13{fill:#CCCCCC;}
	.st14{font-size:25.9928px;}
	.st15{letter-spacing:-2.9;}
	.st16{letter-spacing:-2;}
</style>
<g id="ID000002">
	<g>
		<text transform="matrix(1.07 0 0 1 205.2017 187.4906)" class="st0 st1 st2">C</text>
	</g>
</g>
<g id="ID000003">
	<g>
		<text transform="matrix(1.07 0 0 1 231.3457 187.4906)" class="st0 st1 st2">G</text>
	</g>
</g>
<g id="ID000004">
	<g>
		<text transform="matrix(1.07 0 0 1 258.2373 187.4906)" class="st0 st1 st2">G</text>
	</g>
</g>
<g id="ID000005">
	<g>
		<text transform="matrix(1.07 0 0 1 286.647 187.4906)" class="st0 st1 st2 st3">A</text>
	</g>
</g>
<g id="ID000006">
	<g>
		<text transform="matrix(1.07 0 0 1 305.3008 168.6698)" class="st4 st1 st2">G</text>
	</g>
</g>
<g id="ID000007">
	<g>
		<text transform="matrix(1.07 0 0 1 326.9922 187.4906)" class="st0 st1 st2 st3">A</text>
	</g>
</g>
<g id="ID000008">
	<g>
		<text transform="matrix(1.07 0 0 1 353.8828 187.4906)" class="st0 st1 st2 st3">A</text>
	</g>
</g>
<g id="ID000009">
	<line class="st5" x1="363" y1="159.5" x2="363" y2="142.7"/>
</g>
<g id="ID000010">
	<g>
		<text transform="matrix(1.07 0 0 1 348.1006 136.4588)" class="st1 st6">10</text>
	</g>
</g>
<g id="ID000011">
	<g>
		<text transform="matrix(1.07 0 0 1 380.0273 187.4906)" class="st0 st1 st2">U</text>
	</g>
</g>
<g id="ID000012">
	<g>
		<text transform="matrix(1.07 0 0 1 406.1631 187.4906)" class="st4 st1 st2">G</text>
	</g>
</g>
<g id="ID000013">
	<g>
		<text transform="matrix(1.07 0 0 1 367.3291 237.6791)" class="st0 st1 st2 st3">A</text>
	</g>
</g>
<g id="ID000014">
	<g>
		<text transform="matrix(1.07 0 0 1 340.4375 237.6791)" class="st0 st1 st2 st3">A</text>
	</g>
</g>
<g id="ID000015">
	<g>
		<text transform="matrix(1.07 0 0 1 313.5381 237.6791)" class="st0 st1 st2 st3">A</text>
	</g>
</g>
<g id="ID000016">
	<g>
		<text transform="matrix(1.07 0 0 1 286.647 237.6791)" class="st0 st1 st2 st3">A</text>
	</g>
</g>
<g id="ID000017">
	<g>
		<text transform="matrix(1.07 0 0 1 258.9922 237.6791)" class="st0 st1 st2">C</text>
	</g>
</g>
<g id="ID000018">
	<g>
		<text transform="matrix(1.07 0 0 1 232.1011 237.6791)" class="st0 st1 st2">C</text>
	</g>
</g>
<g id="ID000019">
	<g>
		<text transform="matrix(1.07 0 0 1 204.4468 237.6791)" class="st0 st1 st2">G</text>
	</g>
</g>
<g id="ID000020">
	<line class="st5" x1="215.1" y1="243.1" x2="215.1" y2="259.8"/>
</g>
<g id="ID000021">
	<g>
		<text transform="matrix(1.07 0 0 1 202.7744 277.9584)" class="st1 st6">40</text>
	</g>
</g>
<g id="ID000022">
	<g>
		<text transform="matrix(1.07 0 0 1 177.5474 237.6791)" class="st0 st1 st2">G</text>
	</g>
</g>
<g id="ID000023">
	<line class="st5" x1="210.3" y1="185.2" x2="193" y2="217.4"/>
</g>
<g id="ID000024">
	<polygon class="st7" points="199.2,205.8 199.5,205.9 199.8,206 200.2,206.1 200.5,206.2 200.8,206.3 201.2,206.3 201.5,206.3 
		201.9,206.3 202.2,206.3 202.5,206.2 202.9,206.2 203.2,206.1 203.5,206 203.8,205.9 204.1,205.7 204.4,205.6 204.7,205.4 
		205,205.2 205.3,205 205.5,204.8 205.7,204.5 205.9,204.3 206.1,204 206.3,203.8 206.5,203.5 206.6,203.2 206.7,202.9 206.8,202.6 
		206.9,202.3 207,201.9 207,201.6 207,201.3 207,201 207,200.7 206.9,200.4 206.8,200 206.7,199.7 206.6,199.4 206.5,199.1 
		206.3,198.9 206.2,198.6 206,198.3 205.8,198.1 205.5,197.8 205.3,197.6 205,197.4 204.8,197.2 204.5,197 204.2,196.9 203.9,196.7 
		203.6,196.6 203.2,196.5 202.9,196.4 202.6,196.4 202.2,196.3 201.9,196.3 201.6,196.3 201.2,196.3 200.9,196.3 200.5,196.4 
		200.2,196.5 199.9,196.5 199.6,196.7 199.3,196.8 199,196.9 198.7,197.1 198.4,197.3 198.1,197.5 197.9,197.7 197.6,197.9 
		197.4,198.2 197.2,198.4 197,198.7 196.9,199 196.7,199.3 196.6,199.6 196.5,199.9 196.4,200.2 196.3,200.5 196.3,200.8 
		196.2,201.1 196.2,201.4 196.3,201.7 196.3,202.1 196.4,202.4 196.5,202.7 196.6,203 196.7,203.3 196.8,203.6 197,203.9 
		197.2,204.1 197.4,204.4 197.6,204.6 197.8,204.9 198.1,205.1 198.3,205.3 198.6,205.5 198.9,205.6 	"/>
</g>
<g id="ID000025">
	<line class="st5" x1="242" y1="186.2" x2="242" y2="216.3"/>
</g>
<g id="ID000026">
	<line class="st5" x1="268.9" y1="186.2" x2="268.9" y2="216.3"/>
</g>
<g id="ID000027">
	<line class="st5" x1="295.8" y1="186.2" x2="295.8" y2="216.3"/>
</g>
<g id="ID000028">
	<polygon class="st8" points="295.8,206.3 296.1,206.3 296.4,206.3 296.8,206.2 297.1,206.2 297.4,206.1 297.8,206 298.1,205.8 
		298.4,205.7 298.7,205.5 298.9,205.3 299.2,205.1 299.5,204.9 299.7,204.7 299.9,204.5 300.1,204.2 300.3,203.9 300.5,203.7 
		300.6,203.4 300.8,203.1 300.9,202.8 301,202.5 301.1,202.2 301.1,201.9 301.1,201.5 301.1,201.2 301.1,200.9 301.1,200.6 
		301,200.3 300.9,200 300.8,199.6 300.7,199.4 300.6,199.1 300.4,198.8 300.2,198.5 300,198.2 299.8,198 299.6,197.8 299.3,197.5 
		299.1,197.4 298.8,197.2 298.5,197 298.2,196.8 297.9,196.7 297.6,196.6 297.3,196.5 296.9,196.4 296.6,196.3 296.3,196.3 
		295.9,196.3 295.6,196.3 295.2,196.3 294.9,196.3 294.6,196.4 294.2,196.5 293.9,196.6 293.6,196.7 293.3,196.8 293,197 
		292.7,197.2 292.4,197.4 292.2,197.5 291.9,197.8 291.7,198 291.5,198.2 291.3,198.5 291.1,198.8 290.9,199.1 290.8,199.4 
		290.7,199.6 290.6,200 290.5,200.3 290.4,200.6 290.4,200.9 290.4,201.2 290.4,201.5 290.4,201.9 290.5,202.2 290.5,202.5 
		290.6,202.8 290.7,203.1 290.9,203.4 291,203.7 291.2,203.9 291.4,204.2 291.6,204.5 291.8,204.7 292,204.9 292.3,205.1 
		292.6,205.3 292.8,205.5 293.1,205.7 293.4,205.8 293.8,206 294.1,206.1 294.4,206.2 294.7,206.2 295.1,206.3 295.4,206.3 	"/>
</g>
<g id="ID000029">
	<line class="st5" x1="333.5" y1="185.9" x2="325.3" y2="216.6"/>
</g>
<g id="ID000030">
	<polygon class="st8" points="332.4,190.1 332,190 331.7,190 331.4,189.9 331,189.9 330.7,190 330.3,190 330,190 329.7,190.1 
		329.3,190.2 329,190.3 328.7,190.4 328.4,190.6 328.1,190.8 327.8,190.9 327.6,191.1 327.3,191.4 327.1,191.6 326.9,191.8 
		326.7,192.1 326.5,192.4 326.3,192.6 326.2,192.9 326,193.2 325.9,193.5 325.8,193.8 325.8,194.1 325.7,194.4 325.7,194.8 
		325.7,195.1 325.7,195.4 325.8,195.7 325.8,196 325.9,196.3 326,196.6 326.1,196.9 326.3,197.2 326.4,197.5 326.6,197.8 326.8,198 
		327,198.3 327.3,198.5 327.5,198.7 327.8,198.9 328.1,199.1 328.4,199.3 328.6,199.4 329,199.6 329.3,199.7 329.6,199.8 
		329.9,199.9 330.3,199.9 330.6,200 331,200 331.3,200 331.6,200 332,199.9 332.3,199.8 332.6,199.8 333,199.7 333.3,199.5 
		333.6,199.4 333.9,199.2 334.2,199.1 334.4,198.9 334.7,198.7 334.9,198.4 335.2,198.2 335.4,198 335.6,197.7 335.8,197.4 
		335.9,197.2 336,196.9 336.2,196.6 336.3,196.3 336.3,195.9 336.4,195.6 336.4,195.3 336.5,195 336.4,194.7 336.4,194.4 336.4,194 
		336.3,193.7 336.2,193.4 336.1,193.1 335.9,192.8 335.8,192.6 335.6,192.3 335.4,192 335.2,191.8 335,191.5 334.8,191.3 
		334.5,191.1 334.2,190.9 333.9,190.7 333.6,190.6 333.3,190.4 333,190.3 332.7,190.2 	"/>
</g>
<g id="ID000031">
	<polygon class="st8" points="331.6,213.7 334.2,204 323.8,201.5 321.2,211.3 	"/>
</g>
<g id="ID000032">
	<line class="st5" x1="360.4" y1="185.9" x2="352.2" y2="216.6"/>
</g>
<g id="ID000033">
	<polygon class="st8" points="359.3,190.1 358.9,190 358.6,190 358.3,189.9 357.9,189.9 357.6,190 357.2,190 356.9,190 356.6,190.1 
		356.2,190.2 355.9,190.3 355.6,190.4 355.3,190.6 355,190.8 354.7,190.9 354.5,191.1 354.2,191.4 354,191.6 353.8,191.8 
		353.6,192.1 353.4,192.4 353.2,192.6 353.1,192.9 352.9,193.2 352.8,193.5 352.7,193.8 352.7,194.1 352.6,194.4 352.6,194.8 
		352.6,195.1 352.6,195.4 352.7,195.7 352.7,196 352.8,196.3 352.9,196.6 353,196.9 353.2,197.2 353.3,197.5 353.5,197.8 353.7,198 
		353.9,198.3 354.2,198.5 354.4,198.7 354.7,198.9 355,199.1 355.2,199.3 355.5,199.4 355.9,199.6 356.2,199.7 356.5,199.8 
		356.8,199.9 357.2,199.9 357.5,200 357.8,200 358.2,200 358.5,200 358.9,199.9 359.2,199.8 359.5,199.8 359.9,199.7 360.2,199.5 
		360.5,199.4 360.8,199.2 361.1,199.1 361.3,198.9 361.6,198.7 361.8,198.4 362.1,198.2 362.3,198 362.5,197.7 362.6,197.4 
		362.8,197.2 362.9,196.9 363.1,196.6 363.2,196.3 363.2,195.9 363.3,195.6 363.3,195.3 363.3,195 363.3,194.7 363.3,194.4 
		363.3,194 363.2,193.7 363.1,193.4 363,193.1 362.8,192.8 362.7,192.6 362.5,192.3 362.3,192 362.1,191.8 361.9,191.5 361.6,191.3 
		361.4,191.1 361.1,190.9 360.8,190.7 360.5,190.6 360.2,190.4 359.9,190.3 359.6,190.2 	"/>
</g>
<g id="ID000034">
	<polygon class="st8" points="358.5,213.7 361.1,204 350.7,201.5 348.1,211.3 	"/>
</g>
<g id="ID000035">
	<line class="st5" x1="387.3" y1="185.9" x2="379" y2="216.6"/>
</g>
<g id="ID000036">
	<polygon class="st8" points="386.2,190.1 385.8,190 385.5,190 385.2,189.9 384.8,189.9 384.5,190 384.1,190 383.8,190 383.5,190.1 
		383.1,190.2 382.8,190.3 382.5,190.4 382.2,190.6 381.9,190.8 381.6,190.9 381.4,191.1 381.1,191.4 380.9,191.6 380.7,191.8 
		380.4,192.1 380.3,192.4 380.1,192.6 379.9,192.9 379.8,193.2 379.7,193.5 379.6,193.8 379.6,194.1 379.5,194.4 379.5,194.8 
		379.5,195.1 379.5,195.4 379.5,195.7 379.6,196 379.7,196.3 379.8,196.6 379.9,196.9 380.1,197.2 380.2,197.5 380.4,197.8 
		380.6,198 380.8,198.3 381.1,198.5 381.3,198.7 381.6,198.9 381.8,199.1 382.1,199.3 382.4,199.4 382.7,199.6 383.1,199.7 
		383.4,199.8 383.7,199.9 384.1,199.9 384.4,200 384.7,200 385.1,200 385.4,200 385.8,199.9 386.1,199.8 386.4,199.8 386.7,199.7 
		387.1,199.5 387.4,199.4 387.7,199.2 388,199.1 388.2,198.9 388.5,198.7 388.7,198.4 389,198.2 389.2,198 389.4,197.7 389.5,197.4 
		389.7,197.2 389.8,196.9 390,196.6 390.1,196.3 390.1,195.9 390.2,195.6 390.2,195.3 390.2,195 390.2,194.7 390.2,194.4 390.1,194 
		390.1,193.7 390,193.4 389.9,193.1 389.7,192.8 389.6,192.6 389.4,192.3 389.2,192 389,191.8 388.8,191.5 388.5,191.3 388.3,191.1 
		388,190.9 387.7,190.7 387.4,190.6 387.1,190.4 386.8,190.3 386.5,190.2 	"/>
</g>
<g id="ID000037">
	<polygon class="st8" points="385.4,213.7 388,204 377.6,201.5 374.9,211.3 	"/>
</g>
<g id="ID000038">
	<line class="st5" x1="425.4" y1="182.2" x2="515.8" y2="245.5"/>
</g>
<g id="ID000039">
	<polygon class="st8" points="476.2,217.8 471.4,207.4 464.2,216.4 	"/>
</g>
<g id="ID000040">
	<polyline class="st5" points="540.5,226.4 389.9,226.4 389.9,226.4 389.9,226.4 387.2,226.4 	"/>
</g>
<g id="ID000041">
	<polygon class="st7" points="479.2,226.4 468.7,220.7 468.7,232 	"/>
</g>
<g id="ID000042">
	<polygon class="st7" points="452.8,226.4 452.8,226.7 452.9,227 452.9,227.3 453,227.6 453.1,228 453.2,228.2 453.3,228.5 
		453.5,228.8 453.7,229.1 453.9,229.4 454.1,229.6 454.3,229.8 454.6,230.1 454.8,230.3 455.1,230.5 455.4,230.7 455.7,230.8 
		456,231 456.3,231.1 456.6,231.2 456.9,231.3 457.3,231.3 457.6,231.4 458,231.4 458.3,231.4 458.6,231.4 459,231.4 459.3,231.3 
		459.6,231.2 460,231.1 460.3,231 460.6,230.9 460.9,230.7 461.2,230.6 461.5,230.4 461.7,230.2 462,230 462.2,229.7 462.4,229.5 
		462.6,229.2 462.8,229 463,228.7 463.1,228.4 463.3,228.1 463.4,227.8 463.5,227.5 463.5,227.2 463.6,226.9 463.6,226.5 
		463.6,226.2 463.6,225.9 463.5,225.6 463.5,225.3 463.4,225 463.3,224.7 463.1,224.4 463,224.1 462.8,223.8 462.6,223.5 
		462.4,223.3 462.2,223 462,222.8 461.7,222.6 461.5,222.4 461.2,222.2 460.9,222 460.6,221.9 460.3,221.8 460,221.6 459.6,221.5 
		459.3,221.5 459,221.4 458.6,221.4 458.3,221.4 458,221.4 457.6,221.4 457.3,221.4 456.9,221.5 456.6,221.6 456.3,221.7 456,221.8 
		455.7,222 455.4,222.1 455.1,222.3 454.8,222.5 454.6,222.7 454.3,222.9 454.1,223.2 453.9,223.4 453.7,223.7 453.5,223.9 
		453.3,224.2 453.2,224.5 453.1,224.8 453,225.1 452.9,225.4 452.9,225.8 452.8,226.1 	"/>
</g>
<g id="ID000043">
	<polyline class="st5" points="568.5,180.7 524.4,201.3 430.2,201.3 359.8,223.2 	"/>
</g>
<g id="ID000044">
	<polygon class="st8" points="470.3,201.3 480.8,206.9 480.8,195.6 	"/>
</g>
<g id="ID000046">
	<g>
		<text transform="matrix(1.07 0 0 1 433.8174 168.6698)" class="st9 st1 st2">U</text>
	</g>
</g>
<g id="ID000047">
	<g>
		<text transform="matrix(1.07 0 0 1 460.709 156.1224)" class="st9 st1 st2">U</text>
	</g>
</g>
<g id="ID000048">
	<g>
		<text transform="matrix(1.07 0 0 1 488.3633 156.1224)" class="st4 st1 st2 st3">A</text>
	</g>
</g>
<g id="ID000049">
	<g>
		<text transform="matrix(1.07 0 0 1 514.499 168.6698)" class="st4 st1 st2">U</text>
	</g>
</g>
<g id="ID000050">
	<g>
		<text transform="matrix(1.07 0 0 1 540.501 182.2191)" class="st4 st1 st2">G</text>
	</g>
</g>
<g id="ID000051">
	<g>
		<text transform="matrix(1.07 0 0 1 567.5342 187.4906)" class="st10 st1 st2">G</text>
	</g>
</g>
<g id="ID000052">
	<g>
		<text transform="matrix(1.07 0 0 1 595.1895 187.4906)" class="st10 st1 st2">C</text>
	</g>
</g>
<g id="ID000053">
	<g>
		<text transform="matrix(1.07 0 0 1 621.3252 187.4906)" class="st10 st1 st2">G</text>
	</g>
</g>
<g id="ID000054">
	<line class="st5" x1="631.9" y1="159.5" x2="631.9" y2="142.7"/>
</g>
<g id="ID000055">
	<g>
		<text transform="matrix(1.07 0 0 1 618.8525 136.4588)" class="st1 st6">20</text>
	</g>
</g>
<g id="ID000056">
	<g>
		<text transform="matrix(1.07 0 0 1 648.9795 187.4906)" class="st10 st1 st2">C</text>
	</g>
</g>
<g id="ID000057">
	<g>
		<text transform="matrix(1.07 0 0 1 677.3506 185.3993)" class="st10 st1 st2">G</text>
	</g>
</g>
<g id="ID000058">
	<g>
		<text transform="matrix(1.07 0 0 1 678.8691 241.8617)" class="st10 st1 st2 st3">A</text>
	</g>
</g>
<g id="ID000059">
	<g>
		<text transform="matrix(1.07 0 0 1 648.2158 237.6791)" class="st10 st1 st2">G</text>
	</g>
</g>
<g id="ID000060">
	<g>
		<text transform="matrix(1.07 0 0 1 622.0811 237.6791)" class="st10 st1 st2">C</text>
	</g>
</g>
<g id="ID000061">
	<g>
		<text transform="matrix(1.07 0 0 1 594.4268 237.6791)" class="st10 st1 st2">G</text>
	</g>
</g>
<g id="ID000062">
	<g>
		<text transform="matrix(1.07 0 0 1 568.29 237.6791)" class="st10 st1 st2">C</text>
	</g>
</g>
<g id="ID000063">
	<g>
		<text transform="matrix(1.07 0 0 1 542.1543 237.6791)" class="st4 st1 st2 st3">A</text>
	</g>
</g>
<g id="ID000064">
	<line class="st5" x1="551.3" y1="243.1" x2="551.3" y2="259.8"/>
</g>
<g id="ID000065">
	<g>
		<text transform="matrix(1.07 0 0 1 539.7705 278.7582)" class="st1 st6">30</text>
	</g>
</g>
<g id="ID000066">
	<g>
		<text transform="matrix(1.07 0 0 1 513.7451 262.7728)" class="st4 st1 st2">G</text>
	</g>
</g>
<g id="ID000067">
	<g>
		<text transform="matrix(1.07 0 0 1 488.3633 269.0463)" class="st9 st1 st2 st3">A</text>
	</g>
</g>
<g id="ID000068">
	<g>
		<text transform="matrix(1.07 0 0 1 459.9541 262.7728)" class="st4 st1 st2">G</text>
	</g>
</g>
<g id="ID000069">
	<line class="st5" x1="551.3" y1="186.2" x2="551.3" y2="216.3"/>
</g>
<g id="ID000070">
	<polygon class="st7" points="551.3,206.3 551.6,206.3 551.9,206.3 552.3,206.2 552.6,206.2 552.9,206.1 553.3,206 553.6,205.8 
		553.9,205.7 554.2,205.5 554.4,205.3 554.7,205.1 555,204.9 555.2,204.7 555.4,204.5 555.6,204.2 555.8,203.9 556,203.7 
		556.2,203.4 556.3,203.1 556.4,202.8 556.5,202.5 556.6,202.2 556.6,201.9 556.6,201.5 556.6,201.2 556.6,200.9 556.6,200.6 
		556.5,200.3 556.4,200 556.3,199.6 556.2,199.4 556.1,199.1 555.9,198.8 555.7,198.5 555.5,198.2 555.3,198 555.1,197.8 
		554.8,197.5 554.6,197.4 554.3,197.2 554,197 553.7,196.8 553.4,196.7 553.1,196.6 552.8,196.5 552.4,196.4 552.1,196.3 
		551.8,196.3 551.4,196.3 551.1,196.3 550.8,196.3 550.4,196.3 550.1,196.4 549.7,196.5 549.4,196.6 549.1,196.7 548.8,196.8 
		548.5,197 548.2,197.2 547.9,197.4 547.7,197.5 547.4,197.8 547.2,198 547,198.2 546.8,198.5 546.6,198.8 546.4,199.1 546.3,199.4 
		546.2,199.6 546.1,200 546,200.3 545.9,200.6 545.9,200.9 545.9,201.2 545.9,201.5 545.9,201.9 546,202.2 546,202.5 546.1,202.8 
		546.2,203.1 546.4,203.4 546.5,203.7 546.7,203.9 546.9,204.2 547.1,204.5 547.3,204.7 547.5,204.9 547.8,205.1 548.1,205.3 
		548.4,205.5 548.6,205.7 549,205.8 549.3,206 549.6,206.1 549.9,206.2 550.2,206.2 550.6,206.3 550.9,206.3 	"/>
</g>
<g id="ID000071">
	<line class="st5" x1="578.2" y1="186.2" x2="578.2" y2="216.3"/>
</g>
<g id="ID000072">
	<line class="st5" x1="605" y1="186.2" x2="605" y2="216.3"/>
</g>
<g id="ID000073">
	<line class="st5" x1="631.9" y1="186.2" x2="631.9" y2="216.3"/>
</g>
<g id="ID000074">
	<line class="st5" x1="658.8" y1="186.2" x2="658.8" y2="216.3"/>
</g>
<g id="ID000075">
	<line class="st5" x1="688" y1="184.1" x2="688" y2="220.5"/>
</g>
<g id="ID000076">
	<polygon class="st8" points="688,189.3 681.9,199.1 694,199.1 	"/>
</g>
<g id="ID000077">
	<polygon class="st8" points="693.4,213.9 693.4,203.8 682.6,203.8 682.6,213.9 	"/>
</g>
<g id="ID000079">
	<line class="st11" x1="460.2" y1="248.7" x2="386.8" y2="229.1"/>
</g>
<g id="ID000080">
	<polygon class="st7" points="429.9,248.5 426.7,243.7 422.8,241.3 418.6,239.6 410.6,235.5 419.8,236 424.2,236.5 428.9,236.5 
		434.3,234 	"/>
</g>
<g>
	<text transform="matrix(1.07 0 0 1 135.0557 150.1112)" class="st1 st6">5</text>
	<text transform="matrix(1.07 0 0 1 148.1196 150.1112)" class="st1 st6">’</text>
</g>
<g>
	<text transform="matrix(1.05 0 0 1 132.6226 270.6049)" class="st1 st6">3</text>
	<text transform="matrix(1.05 0 0 1 145.6943 270.6049)" class="st1 st6 st12">’</text>
</g>
<g id="ID000002-2">
	<g>
		<g>
			<text transform="matrix(1.05 0 0 1 179.0024 187.4906)" class="st13 st1 st14">C</text>
		</g>
	</g>
</g>
<g id="ID000004-2">
	<g>
		<g>
			<text transform="matrix(1.05 0 0 1 132.6226 187.4906)" class="st13 st1 st14">G</text>
		</g>
	</g>
</g>
<g id="ID000004-3">
	<g>
		<g>
			<text transform="matrix(1.05 0 0 1 156.1025 187.4906)" class="st13 st1 st14">G</text>
		</g>
	</g>
</g>
<g id="ID000058-2">
	<g>
		<g>
			<text transform="matrix(1.05 0 0 1 706.2695 224.9808)" class="st13 st1 st14">A</text>
		</g>
	</g>
</g>
<g id="ID000058-3">
	<g>
		<text transform="matrix(1.05 0 0 1 706.2295 197.1278)" class="st10 st1 st14 st15">A</text>
	</g>
</g>
<g id="ID000011-2">
	<g>
		<g>
			<text transform="matrix(1.05 0 0 1 156.1582 236.4945)" class="st13 st1 st14">U</text>
		</g>
	</g>
</g>
<g id="ID000002-3">
	<g>
		<g>
			<text transform="matrix(1.05 0 0 1 132.6226 236.4945)" class="st13 st1 st14">C</text>
		</g>
	</g>
</g>
<g>
	<text transform="matrix(1 0 0 1 335.1568 57.5123)" class="st1 st6 st16">T</text>
	<text transform="matrix(1 0 0 1 343.1568 57.5123)" class="st1 st6">etR-RNA aptamer</text>
</g>
</svg>
