<?xml version="1.0" encoding="utf-8"?>
<!-- Generator: Adobe Illustrator 25.2.0, SVG Export Plug-In . SVG Version: 6.00 Build 0)  -->
<svg version="1.1" id="图层_1" xmlns="http://www.w3.org/2000/svg" xmlns:xlink="http://www.w3.org/1999/xlink" x="0px" y="0px"
	 viewBox="0 0 400 400" style="enable-background:new 0 0 400 400;" xml:space="preserve">
<style type="text/css">
	.st0{fill:#B83233;}
	.st1{font-family:'ArialMT';}
	.st2{font-size:24.5291px;}
	.st3{fill:#2EA103;}
	.st4{letter-spacing:-1;}
	.st5{fill:none;stroke:#000000;stroke-miterlimit:1.11;}
	.st6{fill:none;stroke:#000000;stroke-width:1.25;stroke-miterlimit:1.11;}
	.st7{stroke:#000000;stroke-width:0.14;stroke-miterlimit:1.11;}
	.st8{fill:#F17D07;}
	.st9{fill:#084595;}
	.st10{font-size:16px;}
	.st11{font-size:14.2269px;}
</style>
<g id="ID000002">
	<text transform="matrix(1 0 0 1 37.0027 176.12)" class="st0 st1 st2">G</text>
</g>
<g id="ID000003">
	<text transform="matrix(1 0 0 1 61.5954 176.12)" class="st0 st1 st2">G</text>
</g>
<g id="ID000004">
	<text transform="matrix(1 0 0 1 86.1804 176.12)" class="st0 st1 st2">G</text>
</g>
<g id="ID000005">
	<text transform="matrix(1 0 0 1 114.1806 153.5848)" class="st3 st1 st2 st4">A</text>
</g>
<g id="ID000006">
	<text transform="matrix(1 0 0 1 138.7637 135.1473)" class="st3 st1 st2 st4">A</text>
</g>
<g id="ID000007">
	<text transform="matrix(1 0 0 1 154.0592 225.7635)" class="st3 st1 st2 st4">A</text>
</g>
<g id="ID000008">
	<g>
		<text transform="matrix(1 0 0 1 83.4556 228.7128)" class="st0 st1 st2">fC</text>
	</g>
</g>
<g id="ID000009">
	<g>
		<text transform="matrix(1 0 0 1 58.8706 228.7128)" class="st0 st1 st2">fC</text>
	</g>
</g>
<g id="ID000010">
	<g>
		<text transform="matrix(1 0 0 1 34.2778 228.7128)" class="st0 st1 st2">fC</text>
	</g>
</g>
<g id="ID000011">
	<line class="st5" x1="45.2" y1="179.4" x2="45.2" y2="208.9"/>
</g>
<g id="ID000012">
	<line class="st5" x1="69.8" y1="179.4" x2="69.8" y2="208.9"/>
</g>
<g id="ID000013">
	<line class="st5" x1="94.3" y1="179.4" x2="94.3" y2="208.9"/>
</g>
<g id="ID000014">
	<line class="st6" x1="207.2" y1="218.8" x2="171.6" y2="218.8"/>
</g>
<g id="ID000015">
	<path class="st7" d="M196.4,223.8l-1.2-1c-1.1-1-2.4-1.7-3.8-2.1l0,0c-0.5-0.1-0.9-0.2-1.4-0.3l-1.7-0.3c-0.2,0-0.5-0.1-0.7-0.1
		l-5.2-1.2l5.2-1.2c0.2-0.1,0.5-0.1,0.7-0.1l1.7-0.3c0.5-0.1,0.9-0.2,1.4-0.3l0,0c1.4-0.4,2.7-1.1,3.8-2.1l1.2-1V223.8z"/>
</g>
<g id="ID000016">
	<text transform="matrix(1 0 0 1 157.2261 136.494)" class="st8 st1 st2">fC</text>
</g>
<g id="ID000017">
	<text transform="matrix(1 0 0 1 185.8994 151.5428)" class="st8 st1 st2 st4">A</text>
</g>
<g id="ID000018">
	<text transform="matrix(1 0 0 1 204.3369 176.1268)" class="st9 st1 st2 st4">A</text>
</g>
<g id="ID000019">
	<text transform="matrix(1 0 0 1 228.9316 176.1273)" class="st9 st1 st2 st4">A</text>
</g>
<g id="ID000020">
	<text transform="matrix(1 0 0 1 252.1706 176.1205)" class="st9 st1 st2">G</text>
</g>
<g id="ID000021">
	<line class="st5" x1="261.4" y1="153.2" x2="261.4" y2="136.8"/>
</g>
<g id="ID000022">
	<text transform="matrix(1 0 0 1 252.2295 132.6966)" class="st1 st10">10</text>
</g>
<g id="ID000023">
	<text transform="matrix(1 0 0 1 274.0317 161.0873)" class="st8 st1 st2">fC</text>
</g>
<g id="ID000024">
	<g>
		<text transform="matrix(1 0 0 1 302.3803 150.4896)" class="st3 st1 st2">U</text>
		<text transform="matrix(1 0 0 1 320.0917 158.6576)" class="st3 st1 st11">se</text>
	</g>
</g>
<g id="ID000025">
	<text transform="matrix(1 0 0 1 338.2253 157.683)" class="st8 st1 st2">G</text>
</g>
<g id="ID000026">
	<text transform="matrix(1 0 0 1 358.0273 188.4193)" class="st3 st1 st2 st4">A</text>
</g>
<g id="ID000027">
	<text transform="matrix(1 0 0 1 358.0273 213.013)" class="st8 st1 st2 st4">A</text>
</g>
<g id="ID000028">
	<text transform="matrix(1 0 0 1 338.2256 237.599)" class="st8 st1 st2">G</text>
</g>
<g id="ID000029">
	<g>
		<text transform="matrix(1 0 0 1 310.4177 254.7494)" class="st8 st1 st2">U</text>
		<text transform="matrix(1 0 0 1 328.1287 262.9174)" class="st8 st1 st11">Fs2</text>
	</g>
</g>
<g id="ID000030">
	<text transform="matrix(1 0 0 1 280.9576 237.7943)" class="st3 st1 st2 st4">A</text>
</g>
<g id="ID000031">
	<text transform="matrix(1 0 0 1 249.4458 228.7123)" class="st9 st1 st2">fC</text>
</g>
<g id="ID000032">
	<text transform="matrix(1 0 0 1 224.852 228.7123)" class="st9 st1 st2">fU</text>
</g>
<g id="ID000033">
	<line class="st5" x1="241.6" y1="235.2" x2="241.6" y2="251.5"/>
</g>
<g id="ID000034">
	<text transform="matrix(1 0 0 1 232.605 269.3334)" class="st1 st10">20</text>
</g>
<g id="ID000035">
	<g>
		<text transform="matrix(1 0 0 1 205.332 227.6776)" class="st9 st1 st2">U</text>
		<text transform="matrix(1 0 0 1 223.0439 235.8373)" class="st9 st1 st11">se</text>
	</g>
</g>
<g id="ID000036">
	<line class="st5" x1="211.1" y1="179.4" x2="211.1" y2="208.9"/>
</g>
<g id="ID000037">
	<line class="st5" x1="235.7" y1="179.4" x2="235.7" y2="208.9"/>
</g>
<g id="ID000038">
	<line class="st5" x1="260.3" y1="179.4" x2="260.3" y2="208.9"/>
</g>
<g id="ID000039">
	<line class="st6" x1="151.9" y1="218.8" x2="110.1" y2="218.8"/>
</g>
<g id="ID000040">
	<path class="st7" d="M139.2,223.8l-1.2-1c-1.1-1-2.4-1.7-3.8-2.1l0,0c-0.5-0.1-0.9-0.2-1.4-0.3l-1.8-0.3c-0.2,0-0.5-0.1-0.7-0.1
		l-5.3-1.2l5.3-1.2c0.2-0.1,0.5-0.1,0.7-0.1l1.8-0.3c0.5-0.1,0.9-0.2,1.4-0.3l0,0c1.4-0.4,2.7-1.2,3.8-2.1l1.2-1V223.8z"/>
</g>
<text transform="matrix(1 0 0 1 26.1292 153.7547)" class="st1 st10">5</text>
<text transform="matrix(1 0 0 1 36.3602 153.7547)" class="st1 st10">’</text>
<text transform="matrix(1 0 0 1 26.7957 255.4608)" class="st1 st10">3</text>
<text transform="matrix(1 0 0 1 37.0261 255.4608)" class="st1 st10">’</text>
<text transform="matrix(1 0 0 1 132.0292 73.7654)" class="st1 st10">AF</text>
<text transform="matrix(1 0 0 1 155.0292 73.7654)" class="st1 st10 st4">1</text>
<text transform="matrix(1 0 0 1 163.7092 73.7654)" class="st1 st10">13-18 aptamer</text>
<text transform="matrix(1 0 0 1 10.7507 349.0336)" class="st1 st10">fC/fU: 2′-F substituents</text>
<text transform="matrix(1 0 0 1 10.7507 368.1332)" class="st1 st10">se: 2′-SeMe substituents</text>
<text transform="matrix(1 0 0 1 10.7507 387.2386)" class="st1 st10">Fs2: 3′-phosphate  replaced by a PS2 moiety </text>
<text transform="matrix(1 0 0 1 10.7507 406.3378)" class="st1 st10">          </text>
</svg>
