<?xml version="1.0" encoding="utf-8"?>
<!-- Generator: Adobe Illustrator 25.2.0, SVG Export Plug-In . SVG Version: 6.00 Build 0)  -->
<svg version="1.1" id="图层_1" xmlns="http://www.w3.org/2000/svg" xmlns:xlink="http://www.w3.org/1999/xlink" x="0px" y="0px"
	 viewBox="0 0 400 400" style="enable-background:new 0 0 400 400;" xml:space="preserve">
<style type="text/css">
	.st0{font-family:'ArialMT';}
	.st1{font-size:16px;}
	.st2{opacity:0.7;fill:#8527B5;enable-background:new    ;}
	.st3{fill:none;stroke:#000000;stroke-miterlimit:2.29;}
	.st4{fill:#B83332;}
	.st5{font-size:24.9281px;}
	.st6{letter-spacing:-1.9;}
	.st7{fill:#F17D07;}
	.st8{fill:#2EA103;}
	.st9{stroke:#000000;stroke-width:0.29;stroke-miterlimit:2.29;}
	.st10{stroke:#000000;stroke-width:0.5;stroke-miterlimit:2.29;}
	.st11{fill:#FFFFFF;stroke:#000000;stroke-miterlimit:2.29;}
	.st12{fill:#FFFFFF;}
	.st13{font-family:'Arial-BoldMT';}
	.st14{font-size:8.0206px;}
</style>
<text transform="matrix(1 0 0 1 120.8596 104.3044)" class="st0 st1">Tobramycin aptamer II</text>
<rect x="290.4" y="201.8" class="st2" width="18.6" height="49.3"/>
<g id="ID000029">
	<polyline class="st3" points="172.8,207.5 189.5,278.7 299.3,278.7 299.3,275.7 	"/>
</g>
<g id="ID000002">
	<text transform="matrix(1.03 0 0 1 84.0095 209.1174)" class="st4 st0 st5 st6">A</text>
</g>
<g id="ID000003">
	<text transform="matrix(1.03 0 0 1 109.1516 209.1174)" class="st4 st0 st5">C</text>
</g>
<g id="ID000004">
	<text transform="matrix(1.03 0 0 1 135.0046 209.1174)" class="st4 st0 st5">U</text>
</g>
<g id="ID000005">
	<text transform="matrix(1.03 0 0 1 160.8567 209.1174)" class="st7 st0 st5">U</text>
</g>
<g id="ID000006">
	<text transform="matrix(1.03 0 0 1 185.9993 209.1174)" class="st7 st0 st5">G</text>
</g>
<g id="ID000007">
	<text transform="matrix(1.03 0 0 1 211.8523 209.1174)" class="st7 st0 st5">G</text>
</g>
<g id="ID000008">
	<text transform="matrix(1.03 0 0 1 238.4138 209.1174)" class="st7 st0 st5">U</text>
</g>
<g id="ID000009">
	<line class="st3" x1="247.6" y1="181" x2="247.6" y2="164.2"/>
</g>
<g id="ID000010">
	<text transform="matrix(1.03 0 0 1 238.1296 157.4509)" class="st0 st1">10</text>
</g>
<g id="ID000011">
	<text transform="matrix(1.03 0 0 1 264.2576 209.1174)" class="st7 st0 st5">U</text>
</g>
<g id="ID000012">
	<text transform="matrix(1.03 0 0 1 290.1111 199.9592)" class="st7 st0 st5">U</text>
</g>
<g id="ID000013">
	<text transform="matrix(1.03 0 0 1 316.6746 221.7228)" class="st8 st0 st5 st6">A</text>
</g>
<g id="ID000014">
	<text transform="matrix(1.03 0 0 1 315.2537 253.2394)" class="st8 st0 st5">G</text>
</g>
<g id="ID000015">
	<text transform="matrix(1.03 0 0 1 290.6267 270.381)" class="st7 st0 st5">G</text>
</g>
<g id="ID000016">
	<g>
		<text transform="matrix(1.03 0 0 1 264.2576 259.5383)" class="st8 st0 st5">U</text>
	</g>
</g>
<g id="ID000017">
	<g>
		<text transform="matrix(1.03 0 0 1 239.115 259.5383)" class="st8 st0 st5">A</text>
	</g>
</g>
<g id="ID000018">
	<g>
		<text transform="matrix(1.03 0 0 1 213.2634 259.5383)" class="st8 st0 st5">A</text>
	</g>
</g>
<g id="ID000019">
	<text transform="matrix(1.03 0 0 1 186.7092 259.5383)" class="st7 st0 st5">U</text>
</g>
<g id="ID000020">
	<g>
		<text transform="matrix(1.03 0 0 1 160.1467 259.5383)" class="st8 st0 st5">G</text>
	</g>
</g>
<g id="ID000021">
	<line class="st3" x1="170.1" y1="265" x2="170.1" y2="281.8"/>
</g>
<g id="ID000022">
	<text transform="matrix(1.03 0 0 1 160.697 299.0373)" class="st0 st1">20</text>
</g>
<g id="ID000023">
	<text transform="matrix(1.03 0 0 1 135.7146 259.5383)" class="st4 st0 st5 st6">A</text>
</g>
<g id="ID000024">
	<text transform="matrix(1.03 0 0 1 108.4412 259.5383)" class="st4 st0 st5">G</text>
</g>
<g id="ID000025">
	<text transform="matrix(1.03 0 0 1 83.2981 259.5383)" class="st4 st0 st5">U</text>
</g>
<g id="ID000026">
	<line class="st3" x1="92.5" y1="209.8" x2="92.5" y2="240.1"/>
</g>
<g id="ID000027">
	<line class="st3" x1="118.4" y1="209.8" x2="118.4" y2="240.1"/>
</g>
<g id="ID000028">
	<line class="st3" x1="144.2" y1="209.8" x2="144.2" y2="240.1"/>
</g>
<g id="ID000030">
	<polygon class="st9" points="232.5,283.8 242.9,283.8 242.9,273.7 232.5,273.7 	"/>
</g>
<g id="ID000031">
	<polygon class="st9" points="256.3,278.8 256.3,278.5 256.3,278.1 256.2,277.8 256.1,277.5 256,277.2 255.9,276.9 255.8,276.6 
		255.7,276.3 255.5,276.1 255.3,275.8 255.1,275.5 254.9,275.3 254.6,275.1 254.4,274.9 254.1,274.7 253.9,274.5 253.6,274.3 
		253.3,274.2 253,274.1 252.7,274 252.4,273.9 252,273.8 251.7,273.8 251.4,273.8 251,273.7 250.7,273.8 250.4,273.8 250.1,273.8 
		249.8,273.9 249.4,274 249.1,274.1 248.8,274.3 248.5,274.4 248.3,274.6 248,274.8 247.7,275 247.5,275.2 247.3,275.4 247.1,275.7 
		246.9,275.9 246.7,276.2 246.5,276.5 246.4,276.8 246.3,277.1 246.2,277.4 246.1,277.7 246,278 246,278.3 246,278.6 246,278.9 
		246,279.3 246,279.6 246.1,279.9 246.2,280.2 246.3,280.5 246.4,280.8 246.5,281.1 246.7,281.4 246.9,281.6 247.1,281.9 
		247.3,282.2 247.5,282.4 247.7,282.6 248,282.8 248.3,283 248.5,283.2 248.8,283.3 249.1,283.4 249.4,283.6 249.8,283.6 
		250.1,283.7 250.4,283.8 250.7,283.8 251,283.8 251.4,283.8 251.7,283.8 252,283.7 252.4,283.7 252.7,283.6 253,283.5 253.3,283.4 
		253.6,283.2 253.9,283.1 254.1,282.9 254.4,282.7 254.6,282.5 254.9,282.3 255.1,282 255.3,281.8 255.5,281.5 255.7,281.2 
		255.8,281 255.9,280.7 256,280.4 256.1,280 256.2,279.7 256.3,279.4 256.3,279.1 	"/>
</g>
<g id="ID000032">
	<polygon class="st10" points="170.1,229 170.4,229 170.7,229 171.1,228.9 171.4,228.8 171.7,228.8 172,228.6 172.3,228.5 
		172.6,228.4 172.9,228.2 173.2,228 173.4,227.8 173.7,227.6 173.9,227.4 174.1,227.1 174.3,226.9 174.5,226.6 174.6,226.3 
		174.8,226.1 174.9,225.8 175,225.5 175.1,225.1 175.2,224.8 175.2,224.5 175.3,224.2 175.3,223.9 175.2,223.6 175.2,223.2 
		175.1,222.9 175.1,222.6 175,222.3 174.9,222 174.7,221.7 174.6,221.4 174.4,221.2 174.2,220.9 174,220.7 173.8,220.4 173.5,220.2 
		173.3,220 173,219.8 172.7,219.6 172.5,219.5 172.2,219.3 171.9,219.2 171.5,219.1 171.2,219 170.9,219 170.6,218.9 170.2,218.9 
		169.9,218.9 169.6,218.9 169.3,219 168.9,219 168.6,219.1 168.3,219.2 168,219.3 167.7,219.5 167.4,219.6 167.2,219.8 166.9,220 
		166.6,220.2 166.4,220.4 166.2,220.7 166,220.9 165.8,221.2 165.6,221.4 165.5,221.7 165.3,222 165.2,222.3 165.1,222.6 165,222.9 
		165,223.2 164.9,223.6 164.9,223.9 164.9,224.2 164.9,224.5 165,224.8 165.1,225.1 165.1,225.5 165.3,225.8 165.4,226.1 
		165.5,226.3 165.7,226.6 165.9,226.9 166.1,227.1 166.3,227.4 166.5,227.6 166.8,227.8 167,228 167.3,228.2 167.6,228.4 
		167.9,228.5 168.2,228.6 168.5,228.8 168.8,228.8 169.1,228.9 169.4,229 169.8,229 	"/>
</g>
<g id="ID000033">
	<line class="st3" x1="195.9" y1="209.8" x2="195.9" y2="240.1"/>
</g>
<g id="ID000034">
	<polygon class="st11" points="190.8,212.4 190.8,222.4 201.1,222.4 201.1,212.4 	"/>
</g>
<g id="ID000035">
	<polygon class="st11" points="195.9,236.5 196.3,236.5 196.6,236.5 196.9,236.4 197.2,236.4 197.6,236.3 197.9,236.2 198.2,236 
		198.5,235.9 198.7,235.7 199,235.5 199.3,235.4 199.5,235.1 199.7,234.9 200,234.7 200.2,234.4 200.3,234.1 200.5,233.9 
		200.6,233.6 200.8,233.3 200.9,233 201,232.7 201,232.4 201.1,232 201.1,231.7 201.1,231.4 201.1,231.1 201.1,230.8 201,230.5 
		200.9,230.1 200.8,229.8 200.7,229.5 200.6,229.2 200.4,229 200.2,228.7 200.1,228.4 199.8,228.2 199.6,228 199.4,227.7 
		199.1,227.5 198.9,227.3 198.6,227.2 198.3,227 198,226.9 197.7,226.7 197.4,226.6 197.1,226.6 196.8,226.5 196.4,226.5 
		196.1,226.4 195.8,226.4 195.5,226.5 195.1,226.5 194.8,226.6 194.5,226.6 194.2,226.7 193.9,226.9 193.6,227 193.3,227.2 
		193,227.3 192.7,227.5 192.5,227.7 192.3,228 192,228.2 191.8,228.4 191.6,228.7 191.5,229 191.3,229.2 191.2,229.5 191.1,229.8 
		191,230.1 190.9,230.5 190.8,230.8 190.8,231.1 190.8,231.4 190.8,231.7 190.8,232 190.8,232.4 190.9,232.7 191,233 191.1,233.3 
		191.2,233.6 191.4,233.9 191.5,234.1 191.7,234.4 191.9,234.7 192.1,234.9 192.4,235.1 192.6,235.4 192.9,235.5 193.1,235.7 
		193.4,235.9 193.7,236 194,236.2 194.3,236.3 194.6,236.4 195,236.4 195.3,236.5 195.6,236.5 	"/>
</g>
<g id="ID000036">
	<line class="st3" x1="221.8" y1="209.8" x2="221.8" y2="240.1"/>
</g>
<g id="ID000037">
	<polygon class="st9" points="221.8,229 222.1,229 222.4,229 222.8,228.9 223.1,228.8 223.4,228.8 223.7,228.6 224,228.5 
		224.3,228.4 224.6,228.2 224.9,228 225.1,227.8 225.4,227.6 225.6,227.4 225.8,227.1 226,226.9 226.2,226.6 226.3,226.3 
		226.5,226.1 226.6,225.8 226.7,225.5 226.8,225.1 226.9,224.8 226.9,224.5 227,224.2 227,223.9 226.9,223.6 226.9,223.2 
		226.9,222.9 226.8,222.6 226.7,222.3 226.6,222 226.4,221.7 226.3,221.4 226.1,221.2 225.9,220.9 225.7,220.7 225.5,220.4 
		225.2,220.2 225,220 224.7,219.8 224.4,219.6 224.2,219.5 223.9,219.3 223.6,219.2 223.2,219.1 222.9,219 222.6,219 222.3,218.9 
		222,218.9 221.6,218.9 221.3,218.9 221,219 220.7,219 220.3,219.1 220,219.2 219.7,219.3 219.4,219.5 219.1,219.6 218.9,219.8 
		218.6,220 218.3,220.2 218.1,220.4 217.9,220.7 217.7,220.9 217.5,221.2 217.3,221.4 217.2,221.7 217,222 216.9,222.3 216.8,222.6 
		216.7,222.9 216.7,223.2 216.6,223.6 216.6,223.9 216.6,224.2 216.7,224.5 216.7,224.8 216.8,225.1 216.9,225.5 217,225.8 
		217.1,226.1 217.2,226.3 217.4,226.6 217.6,226.9 217.8,227.1 218,227.4 218.2,227.6 218.5,227.8 218.7,228 219,228.2 219.3,228.4 
		219.6,228.5 219.9,228.6 220.2,228.8 220.5,228.8 220.8,228.9 221.1,229 221.5,229 	"/>
</g>
<g id="ID000038">
	<line class="st3" x1="247.6" y1="209.8" x2="247.6" y2="240.1"/>
</g>
<g id="ID000039">
	<polygon class="st9" points="247.6,229 248,229 248.3,229 248.6,228.9 248.9,228.8 249.3,228.8 249.6,228.6 249.9,228.5 
		250.2,228.4 250.4,228.2 250.7,228 251,227.8 251.2,227.6 251.4,227.4 251.7,227.1 251.9,226.9 252,226.6 252.2,226.3 252.3,226.1 
		252.5,225.8 252.6,225.5 252.7,225.1 252.7,224.8 252.8,224.5 252.8,224.2 252.8,223.9 252.8,223.6 252.8,223.2 252.7,222.9 
		252.6,222.6 252.5,222.3 252.4,222 252.3,221.7 252.1,221.4 251.9,221.2 251.8,220.9 251.5,220.7 251.3,220.4 251.1,220.2 
		250.8,220 250.6,219.8 250.3,219.6 250,219.5 249.7,219.3 249.4,219.2 249.1,219.1 248.8,219 248.5,219 248.1,218.9 247.8,218.9 
		247.5,218.9 247.1,218.9 246.8,219 246.5,219 246.2,219.1 245.9,219.2 245.6,219.3 245.3,219.5 245,219.6 244.7,219.8 244.4,220 
		244.2,220.2 244,220.4 243.7,220.7 243.5,220.9 243.3,221.2 243.2,221.4 243,221.7 242.9,222 242.8,222.3 242.7,222.6 242.6,222.9 
		242.5,223.2 242.5,223.6 242.5,223.9 242.5,224.2 242.5,224.5 242.6,224.8 242.6,225.1 242.7,225.5 242.8,225.8 242.9,226.1 
		243.1,226.3 243.3,226.6 243.4,226.9 243.6,227.1 243.8,227.4 244.1,227.6 244.3,227.8 244.6,228 244.8,228.2 245.1,228.4 
		245.4,228.5 245.7,228.6 246,228.8 246.3,228.8 246.7,228.9 247,229 247.3,229 	"/>
</g>
<g id="ID000040">
	<line class="st3" x1="273.5" y1="209.8" x2="273.5" y2="240.1"/>
</g>
<g id="ID000041">
	<polygon class="st9" points="273.5,229 273.8,229 274.1,229 274.5,228.9 274.8,228.8 275.1,228.8 275.4,228.6 275.7,228.5 
		276,228.4 276.3,228.2 276.6,228 276.8,227.8 277.1,227.6 277.3,227.4 277.5,227.1 277.7,226.9 277.9,226.6 278.1,226.3 
		278.2,226.1 278.3,225.8 278.4,225.5 278.5,225.1 278.6,224.8 278.6,224.5 278.7,224.2 278.7,223.9 278.6,223.6 278.6,223.2 
		278.6,222.9 278.5,222.6 278.4,222.3 278.3,222 278.1,221.7 278,221.4 277.8,221.2 277.6,220.9 277.4,220.7 277.2,220.4 
		276.9,220.2 276.7,220 276.4,219.8 276.2,219.6 275.9,219.5 275.6,219.3 275.3,219.2 274.9,219.1 274.6,219 274.3,219 274,218.9 
		273.7,218.9 273.3,218.9 273,218.9 272.7,219 272.4,219 272,219.1 271.7,219.2 271.4,219.3 271.1,219.5 270.8,219.6 270.6,219.8 
		270.3,220 270,220.2 269.8,220.4 269.6,220.7 269.4,220.9 269.2,221.2 269,221.4 268.9,221.7 268.7,222 268.6,222.3 268.5,222.6 
		268.4,222.9 268.4,223.2 268.3,223.6 268.3,223.9 268.3,224.2 268.4,224.5 268.4,224.8 268.5,225.1 268.6,225.5 268.7,225.8 
		268.8,226.1 268.9,226.3 269.1,226.6 269.3,226.9 269.5,227.1 269.7,227.4 269.9,227.6 270.2,227.8 270.4,228 270.7,228.2 
		271,228.4 271.3,228.5 271.6,228.6 271.9,228.8 272.2,228.8 272.5,228.9 272.8,229 273.2,229 	"/>
</g>
<text transform="matrix(6.123234e-17 -1 1 6.123234e-17 302.0632 249.0754)" class="st12 st13 st14">T</text>
<text transform="matrix(6.123234e-17 -1 1 6.123234e-17 302.0632 244.7717)" class="st12 st13 st14">obramycin</text>
<text transform="matrix(1.03 0 0 1 72.2191 186.7828)" class="st0 st1">5’</text>
<text transform="matrix(1.03 0 0 1 69.9131 278.4763)" class="st0 st1">3’</text>
</svg>
