<?xml version="1.0" encoding="utf-8"?>
<!-- Generator: Adobe Illustrator 25.2.0, SVG Export Plug-In . SVG Version: 6.00 Build 0)  -->
<svg version="1.1" id="图层_1" xmlns="http://www.w3.org/2000/svg" xmlns:xlink="http://www.w3.org/1999/xlink" x="0px" y="0px"
	 viewBox="0 0 400 400" style="enable-background:new 0 0 400 400;" xml:space="preserve">
<style type="text/css">
	.st0{opacity:0.7;fill:#8527B5;enable-background:new    ;}
	.st1{fill:#B83332;}
	.st2{font-family:'ArialMT';}
	.st3{font-size:24.91px;}
	.st4{letter-spacing:-1;}
	.st5{fill:#2EA103;}
	.st6{fill:#F17D07;}
	.st7{fill:none;stroke:#000000;stroke-miterlimit:2.29;}
	.st8{font-size:16px;}
	.st9{stroke:#000000;stroke-width:0.5;stroke-miterlimit:2.29;}
	.st10{fill:#FFFFFF;}
	.st11{font-family:'Arial-BoldMT';}
	.st12{font-size:8.24px;}
</style>
<rect x="326.5" y="191.8" class="st0" width="19.1" height="50.6"/>
<g id="ID000002">
	<text transform="matrix(1.03 0 0 1 30.29 202.2599)" class="st1 st2 st3">G</text>
</g>
<g id="ID000003">
	<text transform="matrix(1.03 0 0 1 56.52 202.2599)" class="st1 st2 st3">G</text>
</g>
<g id="ID000004">
	<text transform="matrix(1.03 0 0 1 83.4702 202.2599)" class="st1 st2 st3">C</text>
</g>
<g id="ID000005">
	<text transform="matrix(1.03 0 0 1 110.4102 202.2599)" class="st1 st2 st3 st4">A</text>
</g>
<g id="ID000006">
	<text transform="matrix(1.03 0 0 1 135.9302 202.2599)" class="st1 st2 st3">C</text>
</g>
<g id="ID000007">
	<g>
		<text transform="matrix(1.03 0 0 1 161.4399 202.2599)" class="st5 st2 st3">G</text>
	</g>
</g>
<g id="ID000008">
	<text transform="matrix(1.03 0 0 1 189.1001 202.2599)" class="st6 st2 st3 st4">A</text>
</g>
<g id="ID000009">
	<g>
		<text transform="matrix(1.03 0 0 1 213.8999 202.2599)" class="st5 st2 st3">G</text>
	</g>
</g>
<g id="ID000010">
	<g>
		<text transform="matrix(1.03 0 0 1 232.4502 278.4899)" class="st1 st2 st3">A</text>
	</g>
</g>
<g id="ID000011">
	<g>
		<text transform="matrix(1.03 0 0 1 214.6201 253.0803)" class="st1 st2 st3">C</text>
	</g>
</g>
<g id="ID000012">
	<line class="st7" x1="171.6" y1="259.5" x2="171.6" y2="276.4"/>
</g>
<g id="ID000013">
	<text transform="matrix(1.03 0 0 1 160.9886 295.8794)" class="st2 st8">22</text>
</g>
<g id="ID000014">
	<g>
		<text transform="matrix(1.03 0 0 1 188.3901 253.0803)" class="st1 st2 st3">U</text>
	</g>
</g>
<g id="ID000015">
	<g>
		<text transform="matrix(1.03 0 0 1 162.1602 253.0803)" class="st1 st2 st3">C</text>
	</g>
</g>
<g id="ID000016">
	<text transform="matrix(1.03 0 0 1 135.21 253.0803)" class="st1 st2 st3">G</text>
</g>
<g id="ID000017">
	<text transform="matrix(1.03 0 0 1 109.7002 253.0803)" class="st1 st2 st3">U</text>
</g>
<g id="ID000018">
	<text transform="matrix(1.03 0 0 1 82.75 253.0803)" class="st1 st2 st3">G</text>
</g>
<g id="ID000019">
	<text transform="matrix(1.03 0 0 1 57.23 253.0803)" class="st1 st2 st3">C</text>
</g>
<g id="ID000020">
	<text transform="matrix(1.03 0 0 1 31 253.0803)" class="st1 st2 st3">C</text>
</g>
<g id="ID000021">
	<line class="st7" x1="40.3" y1="203.6" x2="40.3" y2="234.1"/>
</g>
<g id="ID000022">
	<line class="st7" x1="66.5" y1="203.6" x2="66.5" y2="234.1"/>
</g>
<g id="ID000023">
	<line class="st7" x1="92.8" y1="203.6" x2="92.8" y2="234.1"/>
</g>
<g id="ID000024">
	<line class="st7" x1="119" y1="203.6" x2="119" y2="234.1"/>
</g>
<g id="ID000025">
	<line class="st7" x1="145.2" y1="203.6" x2="145.2" y2="234.1"/>
</g>
<g id="ID000026">
	<line class="st7" x1="171.4" y1="203.6" x2="171.4" y2="234.1"/>
</g>
<g id="ID000027">
	<line class="st7" x1="197.7" y1="203.6" x2="197.7" y2="234.1"/>
</g>
<g id="ID000028">
	<line class="st7" x1="223.9" y1="203.6" x2="223.9" y2="234.1"/>
</g>
<g id="ID000030">
	<text transform="matrix(1.03 0 0 1 246.6899 202.2599)" class="st6 st2 st3">G</text>
</g>
<g id="ID000031">
	<g>
		<text transform="matrix(1.03 0 0 1 273.6401 202.2599)" class="st5 st2 st3">U</text>
	</g>
</g>
<g id="ID000032">
	<line class="st7" x1="282.9" y1="173.9" x2="282.9" y2="156.9"/>
</g>
<g id="ID000033">
	<text transform="matrix(1.03 0 0 1 272.7136 154.8324)" class="st2 st8">10</text>
</g>
<g id="ID000034">
	<g>
		<text transform="matrix(1.03 0 0 1 299.8701 202.2599)" class="st5 st2 st3">U</text>
	</g>
</g>
<g id="ID000035">
	<text transform="matrix(1.03 0 0 1 326.0996 189.6599)" class="st6 st2 st3">U</text>
</g>
<g id="ID000036">
	<text transform="matrix(1.03 0 0 1 355.6201 206.7302)" class="st5 st2 st3 st4">A</text>
</g>
<g id="ID000037">
	<text transform="matrix(1.03 0 0 1 355.71 242.3801)" class="st5 st2 st3">G</text>
</g>
<g id="ID000038">
	<text transform="matrix(1.03 0 0 1 328.2598 263.9499)" class="st6 st2 st3">C</text>
</g>
<g id="ID000039">
	<g>
		<text transform="matrix(1.03 0 0 1 299.8701 253.0803)" class="st5 st2 st3">U</text>
	</g>
</g>
<g id="ID000040">
	<g>
		<text transform="matrix(1.03 0 0 1 274.3501 253.0803)" class="st5 st2 st3">A</text>
	</g>
</g>
<g id="ID000041">
	<g>
		<text transform="matrix(1.03 0 0 1 247.4102 253.0803)" class="st5 st2 st3">C</text>
	</g>
</g>
<g id="ID000042">
	<line class="st7" x1="256.7" y1="203.6" x2="256.7" y2="234.1"/>
</g>
<g id="ID000043">
	<line class="st7" x1="282.9" y1="203.6" x2="282.9" y2="234.1"/>
</g>
<g id="ID000044">
	<line class="st7" x1="309.2" y1="203.6" x2="309.2" y2="234.1"/>
</g>
<g id="ID000045">
	<polygon class="st9" points="309.2,223.7 309.5,223.7 309.8,223.7 310.1,223.6 310.5,223.6 310.8,223.5 311.1,223.4 311.4,223.2 
		311.7,223.1 312,222.9 312.3,222.7 312.5,222.5 312.8,222.3 313,222.1 313.2,221.8 313.4,221.6 313.6,221.3 313.8,221 313.9,220.8 
		314.1,220.4 314.2,220.1 314.3,219.8 314.3,219.5 314.4,219.2 314.4,218.9 314.4,218.6 314.4,218.2 314.4,217.9 314.3,217.6 
		314.2,217.3 314.1,217 314,216.7 313.9,216.4 313.7,216.1 313.5,215.8 313.3,215.6 313.1,215.3 312.9,215.1 312.7,214.9 
		312.4,214.6 312.1,214.4 311.9,214.3 311.6,214.1 311.3,214 311,213.9 310.6,213.8 310.3,213.7 310,213.6 309.7,213.6 309.3,213.6 
		309,213.6 308.7,213.6 308.3,213.6 308,213.7 307.7,213.8 307.4,213.9 307.1,214 306.8,214.1 306.5,214.3 306.2,214.4 305.9,214.6 
		305.7,214.9 305.4,215.1 305.2,215.3 305,215.6 304.8,215.8 304.6,216.1 304.5,216.4 304.3,216.7 304.2,217 304.1,217.3 304,217.6 
		304,217.9 303.9,218.2 303.9,218.6 303.9,218.9 303.9,219.2 304,219.5 304.1,219.8 304.1,220.1 304.3,220.4 304.4,220.8 304.5,221 
		304.7,221.3 304.9,221.6 305.1,221.8 305.3,222.1 305.5,222.3 305.8,222.5 306,222.7 306.3,222.9 306.6,223.1 306.9,223.2 
		307.2,223.4 307.5,223.5 307.8,223.6 308.2,223.6 308.5,223.7 308.8,223.7 	"/>
</g>
<text transform="matrix(6.123234e-17 -1 1 6.123234e-17 338.86 239.9396)" class="st10 st11 st12">T</text>
<text transform="matrix(6.123234e-17 -1 1 6.123234e-17 338.86 235.5197)" class="st10 st11 st12">obramycin</text>
<text transform="matrix(1 0 0 1 18.6923 181.9677)" class="st2 st8">5</text>
<text transform="matrix(1 0 0 1 29.8123 181.9677)" class="st2 st8">’</text>
<text transform="matrix(1 0 0 1 17.0444 271.7462)" class="st2 st8">3</text>
<text transform="matrix(1 0 0 1 28.1644 271.7462)" class="st2 st8">’</text>
<text transform="matrix(1 0 0 1 132.63 99.1983)" class="st2 st8 st4">T</text>
<text transform="matrix(1 0 0 1 142.63 99.1983)" class="st2 st8">obramycin aptamer I</text>
</svg>
