<?xml version="1.0" encoding="utf-8"?>
<!-- Generator: Adobe Illustrator 25.2.0, SVG Export Plug-In . SVG Version: 6.00 Build 0)  -->
<svg version="1.1" id="图层_1" xmlns="http://www.w3.org/2000/svg" xmlns:xlink="http://www.w3.org/1999/xlink" x="0px" y="0px"
	 viewBox="0 0 400 400" style="enable-background:new 0 0 400 400;" xml:space="preserve">
<style type="text/css">
	.st0{fill:#FFFF00;}
	.st1{fill:#09FEFE;}
	.st2{fill:#FF00FF;}
	.st3{fill:#228B22;}
	.st4{fill:none;stroke:#000000;stroke-width:1.33;stroke-linejoin:round;}
	.st5{fill:#FFC0CB;}
	.st6{fill:#32CD32;}
	.st7{font-family:'ArialMT';}
	.st8{font-size:30px;}
	.st9{letter-spacing:-2.2;}
	.st10{font-size:20px;}
	.st11{stroke:#000000;stroke-width:0.5;stroke-miterlimit:10;}
	.st12{font-size:14px;}
</style>
<rect x="235.9" y="186.9" class="st0" width="78.1" height="21.6"/>
<path class="st1" d="M59.2,172.5v-3.2h10.4v10.1c-1.5,1.3-3.2,2.4-5,3.2c-1.7,0.7-3.4,1.1-5.2,1.1c-2.3,0-4.6-0.6-6.6-1.7
	c-2-1.2-3.5-2.9-4.5-5c-1-2.3-1.5-4.8-1.5-7.3c0-2.6,0.5-5.1,1.5-7.4c0.9-2.1,2.4-3.9,4.3-5.1c2-1.1,4.2-1.7,6.5-1.7
	c1.7,0,3.3,0.3,4.8,1c1.3,0.6,2.5,1.5,3.4,2.7c0.9,1.4,1.5,2.9,1.9,4.5l-2.9,0.9c-0.3-1.2-0.7-2.3-1.4-3.3c-0.6-0.8-1.4-1.5-2.4-1.9
	c-1.1-0.5-2.2-0.7-3.4-0.7c-1.3,0-2.7,0.2-3.9,0.8c-1,0.5-1.9,1.1-2.6,2c-0.7,0.8-1.2,1.7-1.6,2.7c-0.6,1.8-1,3.6-0.9,5.5
	c-0.1,2.1,0.3,4.2,1.1,6.1c0.7,1.5,1.8,2.8,3.3,3.7c1.4,0.8,3,1.2,4.6,1.2c1.4,0,2.8-0.3,4.1-0.9c1.1-0.5,2.2-1.1,3.1-1.9v-5.2H59.2
	z"/>
<path class="st1" d="M85.1,172.5v-3.2h10.4v10.1c-1.5,1.3-3.2,2.4-5,3.2c-1.7,0.7-3.4,1.1-5.2,1.1c-2.3,0-4.6-0.6-6.6-1.7
	c-2-1.2-3.5-2.9-4.5-5c-1-2.3-1.5-4.8-1.5-7.3c0-2.6,0.5-5.1,1.5-7.4c0.9-2.1,2.4-3.9,4.3-5.1c2-1.1,4.2-1.7,6.5-1.7
	c1.7,0,3.3,0.3,4.8,1c1.3,0.6,2.5,1.5,3.4,2.7c0.9,1.4,1.5,2.9,1.9,4.5l-3,0.9c-0.3-1.2-0.7-2.3-1.4-3.3c-0.6-0.8-1.4-1.5-2.4-1.9
	c-1.1-0.5-2.2-0.7-3.4-0.7c-1.3,0-2.7,0.2-3.9,0.8c-1,0.5-1.9,1.1-2.6,2c-0.7,0.8-1.2,1.7-1.5,2.7c-0.6,1.8-1,3.6-1,5.5
	c-0.1,2.1,0.3,4.2,1.1,6.1c0.7,1.5,1.8,2.8,3.3,3.7c1.4,0.8,3,1.2,4.6,1.2c1.4,0,2.8-0.3,4.1-0.9c1.1-0.5,2.2-1.1,3.1-1.9v-5.2H85.1
	z"/>
<path class="st1" d="M118,173.7l3.3,0.9c-0.5,2.6-1.8,5-3.7,6.8c-1.8,1.6-4.1,2.4-6.5,2.3c-2.3,0.1-4.6-0.5-6.5-1.8
	c-1.8-1.3-3.1-3.1-3.8-5.2c-0.9-2.3-1.3-4.8-1.3-7.3c-0.1-2.6,0.4-5.1,1.5-7.4c0.9-2,2.3-3.7,4.2-4.8c1.8-1.1,3.9-1.7,6-1.6
	c2.3-0.1,4.5,0.7,6.2,2.1c1.8,1.5,3,3.6,3.5,5.9l-3.2,0.8c-0.4-1.7-1.2-3.2-2.5-4.4c-1.2-0.9-2.6-1.4-4.1-1.4
	c-1.7-0.1-3.4,0.5-4.8,1.5c-1.3,1-2.2,2.5-2.7,4.1c-0.5,1.7-0.8,3.5-0.8,5.2c0,2.1,0.3,4.1,0.9,6.1c0.5,1.6,1.5,2.9,2.9,3.9
	c1.2,0.8,2.7,1.3,4.2,1.3c1.7,0,3.4-0.6,4.6-1.8C116.9,177.4,117.8,175.6,118,173.7z"/>
<path class="st1" d="M124.5,183.3l9.5-27.3h3.5l10.1,27.3h-3.7L141,175h-10.3l-2.7,8.3H124.5z M131.7,172h8.4l-2.6-7.6
	c-0.8-2.3-1.4-4.2-1.8-5.7c-0.3,1.8-0.8,3.5-1.3,5.2L131.7,172z"/>
<path class="st1" d="M169.8,173.7l3.3,0.9c-0.5,2.6-1.8,5-3.7,6.8c-1.8,1.6-4.1,2.4-6.5,2.3c-2.3,0.1-4.6-0.5-6.5-1.8
	c-1.8-1.3-3.1-3.1-3.8-5.2c-0.9-2.3-1.3-4.8-1.3-7.3c-0.1-2.6,0.4-5.1,1.5-7.4c0.9-2,2.3-3.7,4.2-4.8c1.8-1.1,3.9-1.7,6-1.6
	c2.3-0.1,4.5,0.7,6.2,2.1c1.8,1.5,3,3.6,3.5,5.9l-3.2,0.8c-0.4-1.7-1.2-3.2-2.5-4.4c-1.2-0.9-2.6-1.4-4.1-1.4
	c-1.7-0.1-3.4,0.5-4.8,1.5c-1.3,1-2.2,2.5-2.7,4.1c-1.1,3.7-1,7.7,0.1,11.3c1,3.1,3.8,5.2,7,5.2c1.7,0,3.4-0.6,4.6-1.8
	C168.6,177.5,169.5,175.6,169.8,173.7z"/>
<path class="st1" d="M188.6,172.5v-3.2H199v10.1c-1.5,1.3-3.2,2.4-5,3.2c-1.7,0.7-3.4,1.1-5.2,1.1c-2.3,0-4.6-0.6-6.6-1.7
	c-2-1.2-3.6-2.9-4.5-5c-1-2.3-1.5-4.8-1.5-7.3c0-2.6,0.5-5.1,1.5-7.4c0.9-2.1,2.4-3.9,4.3-5.1c2-1.1,4.2-1.7,6.5-1.7
	c1.7,0,3.3,0.3,4.8,1c1.3,0.6,2.5,1.5,3.4,2.7c0.9,1.4,1.5,2.9,1.9,4.5l-2.9,0.9c-0.3-1.2-0.7-2.3-1.4-3.3c-0.6-0.8-1.4-1.5-2.4-1.9
	c-1.1-0.5-2.2-0.7-3.4-0.7c-1.3,0-2.7,0.2-3.9,0.8c-1,0.5-1.9,1.1-2.6,2c-0.7,0.8-1.2,1.7-1.6,2.7c-0.6,1.8-1,3.6-0.9,5.5
	c-0.1,2.1,0.3,4.2,1.1,6.1c0.7,1.5,1.8,2.8,3.3,3.7c1.4,0.8,3,1.2,4.6,1.2c1.4,0,2.8-0.3,4.1-0.9c1.1-0.5,2.2-1.1,3.1-1.9v-5.2
	H188.6z"/>
<path class="st2" d="M202.2,183.3l9.5-27.3h3.5l10.1,27.3h-3.7l-2.9-8.3h-10.3l-2.7,8.3H202.2z M209.3,172h8.4l-2.6-7.6
	c-0.8-2.3-1.4-4.2-1.8-5.7c-0.3,1.8-0.8,3.5-1.3,5.2L209.3,172z"/>
<path class="st1" d="M240.8,168.3v-3.2h10.4v10.1c-1.5,1.3-3.2,2.4-5,3.2c-1.7,0.7-3.4,1.1-5.2,1.1c-2.3,0-4.6-0.6-6.6-1.7
	c-2-1.2-3.5-2.9-4.5-5c-1-2.3-1.5-4.8-1.5-7.3c0-2.6,0.5-5.1,1.5-7.4c0.9-2.1,2.4-3.9,4.3-5.1c2-1.1,4.2-1.7,6.5-1.7
	c1.7,0,3.3,0.3,4.8,1c1.3,0.6,2.5,1.5,3.4,2.7c0.9,1.4,1.5,2.9,1.9,4.5l-2.9,0.9c-0.3-1.2-0.7-2.3-1.4-3.3c-0.6-0.8-1.4-1.5-2.4-1.9
	c-1.1-0.5-2.2-0.7-3.4-0.7c-1.3,0-2.7,0.2-3.9,0.8c-1,0.5-1.9,1.1-2.6,2c-0.7,0.8-1.2,1.7-1.5,2.7c-0.6,1.8-1,3.6-1,5.5
	c-0.1,2.1,0.3,4.2,1.1,6.1c0.7,1.5,1.8,2.8,3.3,3.7c1.4,0.8,3,1.2,4.6,1.2c1.4,0,2.8-0.3,4.1-0.9c1.1-0.5,2.2-1.1,3.1-1.9v-5.2
	H240.8z"/>
<path class="st3" d="M247.4,269.3l9.5-27.3h3.5l10.1,27.3h-3.7l-2.9-8.3h-10.3l-2.7,8.3L247.4,269.3z M254.5,258.1h8.3l-2.6-7.6
	c-0.8-2.3-1.4-4.2-1.8-5.7c-0.3,1.8-0.8,3.5-1.3,5.2L254.5,258.1z"/>
<path class="st1" d="M247,243.2l3.3,0.9c-0.5,2.6-1.8,5-3.7,6.8c-1.8,1.6-4.1,2.4-6.5,2.3c-2.3,0.1-4.6-0.5-6.5-1.8
	c-1.8-1.3-3.1-3.1-3.8-5.2c-0.9-2.3-1.3-4.8-1.3-7.3c-0.1-2.6,0.4-5.1,1.5-7.4c0.9-2,2.3-3.7,4.2-4.8c1.8-1.1,3.9-1.7,6-1.6
	c2.3-0.1,4.5,0.7,6.2,2.1c1.8,1.5,3,3.6,3.5,5.9l-3.2,0.8c-0.4-1.7-1.3-3.2-2.5-4.3c-1.2-0.9-2.6-1.4-4.1-1.4
	c-1.7-0.1-3.4,0.5-4.8,1.5c-1.3,1-2.2,2.5-2.7,4.1c-0.5,1.7-0.8,3.5-0.8,5.2c0,2.1,0.3,4.1,0.9,6.1c0.9,3.1,3.8,5.2,7,5.2
	c1.7,0,3.4-0.6,4.6-1.8C245.8,247,246.7,245.2,247,243.2z"/>
<line class="st4" x1="229.5" y1="255.6" x2="217.3" y2="269.1"/>
<path d="M205.5,282.4v1.5H198c0-0.4,0-0.7,0.2-1.1c0.2-0.6,0.5-1.2,0.9-1.7c0.6-0.7,1.2-1.3,1.8-1.9c0.9-0.8,1.8-1.7,2.5-2.7
	c0.4-0.5,0.6-1.2,0.7-1.9c0-0.6-0.2-1.1-0.6-1.6c-0.9-0.9-2.3-0.8-3.2,0c-0.4,0.5-0.6,1.2-0.6,1.9l-1.4-0.2c0-1,0.4-2,1.1-2.7
	c0.7-0.6,1.6-1,2.6-0.9c1,0,1.9,0.3,2.6,1c0.6,0.7,1,1.6,1,2.5c0,0.5-0.1,1-0.3,1.5c-0.2,0.6-0.5,1.1-0.9,1.5
	c-0.7,0.8-1.4,1.5-2.2,2.2c-0.8,0.8-1.4,1.3-1.6,1.6c-0.2,0.3-0.4,0.5-0.6,0.8L205.5,282.4z M207,277.7c0-1.2,0.1-2.4,0.4-3.6
	c0.2-0.8,0.6-1.5,1.2-2.1c0.6-0.5,1.3-0.8,2-0.7c0.6,0,1.1,0.1,1.6,0.4c0.5,0.3,0.9,0.7,1.1,1.2c0.3,0.6,0.5,1.2,0.7,1.9
	c0.2,1,0.3,2,0.3,3c0,1.2-0.1,2.4-0.4,3.6c-0.2,0.8-0.6,1.5-1.2,2.1c-0.6,0.5-1.3,0.8-2.1,0.7c-1,0-2-0.5-2.6-1.3
	C207.4,281.8,207,280,207,277.7L207,277.7z M208.5,277.7c0,2.1,0.2,3.5,0.7,4.1c0.4,0.9,1.5,1.3,2.4,0.9c0.4-0.2,0.7-0.5,0.9-0.9
	c0.5-0.7,0.7-2.1,0.7-4.1s-0.2-3.4-0.7-4.1c-0.3-0.6-1-1-1.7-1c-0.6,0-1.2,0.3-1.5,0.9C208.7,274.2,208.5,275.6,208.5,277.7
	L208.5,277.7z"/>
<path class="st1" d="M220.1,213.3h3.3v15.8c0.1,2.2-0.2,4.4-0.8,6.6c-0.5,1.6-1.6,3-3,3.9c-1.7,1.1-3.7,1.6-5.8,1.5
	c-2,0.1-3.9-0.4-5.7-1.3c-1.5-0.9-2.6-2.2-3.1-3.8c-0.7-2.2-1-4.5-0.9-6.9v-15.8h3.3V229c-0.1,1.8,0.1,3.5,0.6,5.2
	c0.3,1.1,1.1,2,2,2.6c1.1,0.6,2.3,1,3.6,0.9c2.4,0,4.1-0.6,5.1-1.8c1-1.2,1.5-3.5,1.5-7L220.1,213.3z"/>
<path class="st1" d="M195.7,231l3.3,0.9c-0.5,2.6-1.8,5-3.7,6.8c-1.8,1.6-4.1,2.4-6.5,2.3c-2.3,0.1-4.6-0.5-6.5-1.8
	c-1.8-1.3-3.1-3.1-3.8-5.2c-0.9-2.3-1.3-4.8-1.3-7.3c-0.1-2.6,0.4-5.1,1.5-7.4c0.9-2,2.3-3.7,4.2-4.8c1.8-1.1,3.9-1.7,6-1.6
	c2.3-0.1,4.5,0.7,6.2,2.1c1.8,1.5,3,3.6,3.5,5.9l-3.2,0.8c-0.4-1.7-1.2-3.2-2.5-4.3c-1.2-0.9-2.6-1.4-4.1-1.4
	c-1.7-0.1-3.4,0.5-4.8,1.5c-1.3,1-2.2,2.5-2.7,4.1c-0.5,1.7-0.8,3.5-0.8,5.2c0,2.1,0.3,4.1,0.9,6.1c0.9,3.1,3.8,5.2,7,5.2
	c1.7,0,3.4-0.6,4.6-1.8C194.5,234.8,195.4,233,195.7,231z"/>
<path class="st1" d="M162.7,229.9v-3.2h10.4v10.1c-1.5,1.3-3.2,2.4-5,3.2c-1.7,0.7-3.4,1.1-5.2,1.1c-2.3,0-4.6-0.6-6.6-1.7
	c-2-1.2-3.6-2.9-4.5-5c-1-2.3-1.5-4.8-1.5-7.3c0-2.6,0.5-5.1,1.5-7.4c0.9-2.1,2.4-3.9,4.3-5.1c2-1.2,4.3-1.7,6.6-1.7
	c1.7,0,3.3,0.3,4.8,1c1.3,0.6,2.5,1.5,3.4,2.7c0.9,1.4,1.5,2.9,1.9,4.5l-2.9,0.9c-0.3-1.2-0.7-2.3-1.4-3.3c-0.6-0.8-1.4-1.5-2.4-1.9
	c-1.1-0.5-2.2-0.7-3.4-0.7c-1.3,0-2.7,0.2-3.9,0.8c-1,0.5-1.9,1.1-2.6,2c-0.7,0.8-1.2,1.7-1.5,2.7c-0.6,1.8-1,3.6-0.9,5.5
	c-0.1,2.1,0.3,4.2,1.1,6.1c0.7,1.5,1.8,2.8,3.3,3.7c1.4,0.8,3,1.2,4.6,1.2c1.4,0,2.8-0.3,4.1-0.9c1.1-0.5,2.2-1.1,3.1-1.9v-5.1
	L162.7,229.9z"/>
<path class="st1" d="M142.5,213.3h3.3v15.8c0.1,2.2-0.2,4.4-0.8,6.6c-0.5,1.6-1.6,3-3,3.9c-1.7,1.1-3.7,1.6-5.8,1.5
	c-2,0.1-3.9-0.4-5.7-1.3c-1.5-0.9-2.6-2.2-3.1-3.8c-0.7-2.2-1-4.5-0.9-6.9v-15.8h3.3V229c-0.1,1.8,0.1,3.5,0.6,5.2
	c0.4,1.1,1.1,2,2,2.6c1.1,0.6,2.3,1,3.6,0.9c2.4,0,4.1-0.6,5.1-1.8s1.5-3.5,1.5-7L142.5,213.3z"/>
<path class="st1" d="M110.9,229.9v-3.2h10.5v10.1c-1.5,1.3-3.2,2.4-5,3.2c-1.7,0.7-3.4,1.1-5.2,1.1c-2.3,0-4.6-0.6-6.6-1.7
	c-2-1.2-3.6-2.9-4.5-5c-1-2.3-1.5-4.8-1.5-7.3c0-2.6,0.5-5.1,1.5-7.4c0.9-2.1,2.4-3.9,4.3-5.1c2-1.1,4.2-1.7,6.5-1.7
	c1.7,0,3.3,0.3,4.8,1c1.3,0.6,2.5,1.5,3.4,2.7c0.9,1.4,1.5,2.9,1.9,4.5l-3,0.9c-0.3-1.2-0.7-2.3-1.4-3.3c-0.6-0.8-1.4-1.5-2.4-1.9
	c-1.1-0.5-2.2-0.7-3.4-0.7c-1.3,0-2.7,0.2-3.9,0.8c-1,0.5-1.9,1.1-2.6,2c-0.7,0.8-1.2,1.7-1.5,2.7c-0.6,1.8-1,3.6-0.9,5.5
	c-0.1,2.1,0.3,4.2,1.1,6.1c0.7,1.5,1.8,2.8,3.3,3.7c1.4,0.8,3,1.2,4.6,1.2c1.4,0,2.8-0.3,4.1-0.9c1.1-0.5,2.2-1.1,3.1-1.9V230
	L110.9,229.9z"/>
<path class="st1" d="M92.2,231l3.3,0.9c-0.5,2.6-1.8,5-3.7,6.8c-1.8,1.6-4.1,2.4-6.5,2.3c-2.3,0.1-4.6-0.5-6.5-1.8
	c-1.8-1.3-3.1-3.1-3.8-5.2c-0.9-2.3-1.3-4.8-1.3-7.3c-0.1-2.6,0.4-5.1,1.5-7.4c0.9-2,2.3-3.7,4.2-4.8c1.8-1.1,3.9-1.7,6-1.6
	c2.3-0.1,4.5,0.7,6.2,2.1c1.8,1.5,3,3.6,3.5,5.9l-3.2,0.8c-0.4-1.7-1.3-3.2-2.5-4.3c-1.2-0.9-2.6-1.4-4.1-1.4
	c-1.7-0.1-3.4,0.5-4.8,1.5c-1.3,1-2.2,2.5-2.7,4.1c-0.5,1.7-0.8,3.5-0.8,5.2c-0.1,2.1,0.2,4.1,0.9,6.1c0.9,3.1,3.8,5.2,7,5.2
	c1.7,0,3.4-0.6,4.6-1.8C90.9,234.8,91.9,233,92.2,231z"/>
<path class="st1" d="M66.3,231l3.3,0.9c-0.5,2.6-1.8,5-3.7,6.8c-1.8,1.6-4.1,2.4-6.5,2.3c-2.3,0.1-4.6-0.5-6.5-1.8
	c-1.8-1.3-3.1-3.1-3.8-5.2c-0.9-2.3-1.3-4.8-1.3-7.3c-0.1-2.6,0.4-5.1,1.5-7.4c0.9-2,2.3-3.7,4.2-4.8c1.8-1.1,3.9-1.7,6-1.6
	c2.3-0.1,4.5,0.7,6.2,2.1c1.8,1.5,3,3.6,3.5,5.9l-3.2,0.8c-0.4-1.7-1.3-3.2-2.5-4.3c-1.2-0.9-2.6-1.4-4.1-1.4
	c-1.7-0.1-3.4,0.5-4.8,1.5c-1.3,1-2.2,2.5-2.7,4.1c-0.5,1.7-0.8,3.5-0.8,5.2c0,2.1,0.3,4.1,0.9,6.1c0.9,3.1,3.8,5.2,7,5.2
	c1.7,0,3.4-0.6,4.6-1.8C65.1,234.8,66,233,66.3,231z"/>
<path class="st2" d="M273,157.2V154h10.4v10.1c-1.5,1.3-3.2,2.4-5,3.2c-1.6,0.7-3.4,1.1-5.2,1.1c-2.3,0-4.6-0.6-6.6-1.7
	c-2-1.2-3.6-2.9-4.5-5c-1-2.3-1.5-4.8-1.5-7.3c0-2.6,0.5-5.1,1.5-7.4c0.9-2.1,2.4-3.9,4.3-5.1c2-1.1,4.2-1.7,6.5-1.7
	c1.7,0,3.3,0.3,4.8,1c1.3,0.6,2.5,1.5,3.4,2.7c0.9,1.4,1.5,2.9,1.9,4.5l-2.9,0.9c-0.3-1.2-0.7-2.3-1.4-3.3c-0.6-0.8-1.4-1.5-2.4-1.9
	c-1.1-0.5-2.2-0.7-3.4-0.7c-1.3,0-2.7,0.2-3.9,0.8c-1,0.5-1.9,1.1-2.6,2c-0.7,0.8-1.2,1.7-1.6,2.7c-0.6,1.8-1,3.6-0.9,5.5
	c-0.1,2.1,0.3,4.2,1.1,6.1c0.7,1.5,1.8,2.8,3.3,3.7c1.4,0.8,3,1.2,4.6,1.2c1.4,0,2.8-0.3,4.1-0.9c1.1-0.5,2.2-1.1,3.1-1.9v-5.2H273z
	"/>
<path class="st5" d="M307.5,127.7h3.3v15.8c0.1,2.2-0.2,4.4-0.8,6.5c-0.5,1.6-1.6,3-3,3.9c-1.7,1.1-3.7,1.6-5.8,1.5
	c-2,0.1-3.9-0.4-5.7-1.3c-1.5-0.9-2.6-2.2-3.1-3.8c-0.7-2.2-1-4.5-1-6.9v-15.8h3.3v15.8c-0.1,1.8,0.1,3.5,0.6,5.2
	c0.4,1.1,1.1,2,2.1,2.6c1.1,0.6,2.3,1,3.6,0.9c2.4,0,4.1-0.6,5.1-1.8c1-1.2,1.5-3.5,1.5-6.9L307.5,127.7z"/>
<line class="st4" x1="312" y1="113.7" x2="312" y2="94.6"/>
<path d="M290.9,92.1h-1.3V83c-0.4,0.4-0.8,0.7-1.2,1c-0.4,0.3-0.9,0.5-1.3,0.7v-1.4c0.7-0.4,1.3-0.8,1.9-1.4c0.5-0.4,0.9-1,1.1-1.5
	h0.8L290.9,92.1z M294.2,86.4c0-1.1,0.1-2.2,0.4-3.3c0.2-0.7,0.6-1.4,1.1-1.9c0.5-0.4,1.2-0.7,1.9-0.6c0.5,0,1,0.1,1.5,0.4
	c0.4,0.3,0.8,0.6,1,1.1c0.3,0.5,0.5,1.1,0.6,1.7c0.2,0.9,0.3,1.8,0.2,2.7c0,1.1-0.1,2.2-0.4,3.3c-0.2,0.7-0.6,1.4-1.1,1.9
	c-0.5,0.5-1.2,0.7-1.9,0.7c-0.9,0-1.8-0.4-2.4-1.2C294.6,90.1,294.2,88.5,294.2,86.4z M295.5,86.4c0,1.9,0.2,3.2,0.6,3.8
	c0.4,0.8,1.4,1.2,2.2,0.8c0.3-0.2,0.6-0.4,0.8-0.8c0.4-0.6,0.6-1.9,0.6-3.8c0-1.9-0.2-3.2-0.6-3.8c-0.3-0.6-0.9-0.9-1.5-0.9
	c-0.6,0-1.1,0.3-1.4,0.8C295.8,83.2,295.5,84.5,295.5,86.4L295.5,86.4z"/>
<path class="st6" d="M334.4,135.2h3.3V151c0.1,2.2-0.2,4.4-0.8,6.5c-0.6,1.6-1.6,3-3,3.9c-1.7,1.1-3.7,1.6-5.8,1.5
	c-2,0.1-3.9-0.4-5.7-1.3c-1.5-0.9-2.6-2.2-3.1-3.8c-0.7-2.2-1-4.5-0.9-6.9v-15.8h3.3V151c-0.1,1.8,0.1,3.5,0.6,5.2
	c0.3,1.1,1.1,2,2,2.6c1.1,0.6,2.3,1,3.5,0.9c2.4,0,4.1-0.6,5.1-1.8c1-1.2,1.5-3.5,1.5-6.9L334.4,135.2z"/>
<path class="st2" d="M362.8,144.2h3.3V160c0.1,2.2-0.2,4.4-0.8,6.5c-0.5,1.6-1.6,3-3,3.9c-1.7,1.1-3.7,1.6-5.8,1.5
	c-2,0.1-3.9-0.4-5.7-1.3c-1.5-0.9-2.6-2.2-3.1-3.8c-0.7-2.2-1-4.5-0.9-6.9v-15.8h3.3V160c-0.1,1.8,0.1,3.5,0.6,5.2
	c0.3,1.1,1.1,2,2,2.6c1.1,0.6,2.3,1,3.5,0.9c2.4,0,4.1-0.6,5.1-1.8c1-1.2,1.5-3.5,1.5-6.9L362.8,144.2z"/>
<path class="st6" d="M363.6,200.6l9.5-27.3h3.5l10.1,27.3H383l-2.9-8.3h-10.3l-2.7,8.3H363.6z M370.7,189.4h8.4l-2.6-7.5
	c-0.8-2.3-1.4-4.2-1.8-5.7c-0.3,1.8-0.8,3.5-1.3,5.2L370.7,189.4z"/>
<path class="st6" d="M378.4,222.4v-3.2h10.4v10.1c-1.5,1.3-3.2,2.4-5,3.2c-1.7,0.7-3.4,1.1-5.2,1.1c-2.3,0-4.6-0.6-6.6-1.7
	c-2-1.2-3.6-2.9-4.5-5c-1-2.3-1.5-4.8-1.5-7.3c0-2.6,0.5-5.1,1.5-7.4c0.9-2.1,2.4-3.9,4.3-5.1c2-1.1,4.2-1.7,6.5-1.7
	c1.7,0,3.3,0.3,4.8,1c1.3,0.6,2.5,1.5,3.4,2.7c0.9,1.4,1.5,2.9,1.9,4.5l-2.9,0.9c-0.3-1.2-0.7-2.3-1.4-3.3c-0.6-0.8-1.4-1.5-2.4-1.9
	c-1.1-0.5-2.2-0.7-3.4-0.7c-1.3,0-2.7,0.2-3.9,0.8c-1,0.5-1.9,1.1-2.6,2c-0.7,0.8-1.2,1.7-1.5,2.7c-0.6,1.8-1,3.6-0.9,5.5
	c-0.1,2.1,0.3,4.2,1.1,6.1c0.7,1.5,1.8,2.8,3.3,3.7c1.4,0.8,3,1.2,4.6,1.2c1.4,0,2.8-0.3,4.1-0.9c1.1-0.5,2.2-1.1,3.1-1.9v-5.1
	L378.4,222.4z"/>
<path class="st2" d="M360.4,245.2l3.3,0.9c-0.5,2.6-1.8,5-3.7,6.8c-1.8,1.6-4.1,2.4-6.5,2.3c-2.3,0.1-4.6-0.5-6.5-1.8
	c-1.8-1.3-3.1-3.1-3.8-5.2c-0.9-2.3-1.3-4.8-1.3-7.3c-0.1-2.6,0.4-5.1,1.5-7.4c0.9-2,2.3-3.7,4.2-4.8c1.8-1.1,3.9-1.7,6-1.6
	c2.3-0.1,4.5,0.7,6.2,2.1c1.8,1.5,3,3.6,3.5,5.9l-3.2,0.8c-0.4-1.7-1.2-3.2-2.5-4.3c-1.2-0.9-2.6-1.4-4.1-1.4
	c-1.7-0.1-3.4,0.5-4.7,1.5c-1.3,1-2.2,2.5-2.7,4.1c-0.5,1.7-0.8,3.5-0.8,5.2c0,2.1,0.3,4.1,0.9,6.1c0.9,3.1,3.8,5.2,7,5.2
	c1.7,0,3.4-0.6,4.7-1.8C359.2,249,360.1,247.1,360.4,245.2z"/>
<path class="st6" d="M332.3,234.6h3.3v15.8c0.1,2.2-0.2,4.4-0.8,6.5c-0.6,1.6-1.6,3-3,3.9c-1.7,1.1-3.7,1.6-5.8,1.5
	c-2,0.1-3.9-0.4-5.7-1.3c-1.5-0.9-2.6-2.2-3.1-3.8c-0.7-2.2-1-4.5-0.9-6.9v-15.8h3.3v15.8c-0.1,1.8,0.1,3.5,0.6,5.2
	c0.3,1.1,1.1,2,2,2.6c1.1,0.6,2.3,1,3.5,0.9c2.4,0,4.1-0.6,5.1-1.8s1.5-3.5,1.5-7L332.3,234.6z"/>
<path class="st6" d="M289.5,265.1l9.5-27.3h3.5l10.1,27.3h-3.7l-2.9-8.3h-10.3l-2.7,8.3H289.5z M296.6,253.9h8.3l-2.6-7.6
	c-0.8-2.3-1.4-4.2-1.8-5.7c-0.3,1.8-0.8,3.5-1.3,5.2L296.6,253.9z"/>
<path class="st5" d="M282.6,244.7l3.3,0.9c-0.5,2.6-1.8,5-3.7,6.8c-1.8,1.6-4.1,2.4-6.5,2.3c-2.3,0.1-4.6-0.5-6.5-1.8
	c-1.8-1.3-3.1-3.1-3.8-5.2c-0.9-2.3-1.3-4.8-1.3-7.3c-0.1-2.6,0.4-5.1,1.5-7.4c0.9-2,2.3-3.7,4.2-4.8c1.8-1.1,3.9-1.7,6-1.6
	c2.3-0.1,4.5,0.7,6.2,2.1c1.8,1.5,3,3.6,3.5,5.9l-3.2,0.8c-0.4-1.7-1.3-3.2-2.5-4.3c-1.2-0.9-2.6-1.4-4.1-1.4
	c-1.7-0.1-3.4,0.5-4.8,1.5c-1.3,1-2.2,2.5-2.7,4.1c-0.5,1.7-0.8,3.5-0.8,5.2c0,2.1,0.3,4.1,0.9,6.1c0.9,3.1,3.8,5.2,7,5.2
	c1.7,0,3.4-0.6,4.6-1.8C281.4,248.5,282.3,246.6,282.6,244.7z"/>
<g>
	<text transform="matrix(0.92 0 0 1 16.6494 182.7437)" class="st7 st8">5</text>
	<text transform="matrix(0.92 0 0 1 30.1797 182.7437)" class="st7 st8 st9">’</text>
</g>
<line class="st4" x1="31" y1="175.6" x2="31" y2="175.6"/>
<g>
	<text transform="matrix(0.92 0 0 1 13.2901 239.1334)" class="st7 st8">3</text>
	<text transform="matrix(0.92 0 0 1 26.8203 239.1334)" class="st7 st8 st9">’</text>
</g>
<text transform="matrix(1 0 0 1 121.3099 52.5854)" class="st7 st10">RNA aptamer I</text>
<line class="st11" x1="58.7" y1="185.5" x2="58.7" y2="209.7"/>
<line class="st11" x1="84.5" y1="185.5" x2="84.5" y2="209.7"/>
<line class="st11" x1="111.9" y1="185.5" x2="111.9" y2="209.7"/>
<line class="st11" x1="135.8" y1="184.3" x2="135.8" y2="208.5"/>
<line class="st11" x1="162.2" y1="184.3" x2="162.2" y2="208.5"/>
<line class="st11" x1="188" y1="184.3" x2="188" y2="208.5"/>
<line class="st11" x1="215.2" y1="184.3" x2="215.2" y2="208.5"/>
<text transform="matrix(1 0 0 1 239.8008 203.4492)" class="st7 st12">tobramycin</text>
</svg>
