<?xml version="1.0" encoding="utf-8"?>
<!-- Generator: Adobe Illustrator 25.2.0, SVG Export Plug-In . SVG Version: 6.00 Build 0)  -->
<svg version="1.1" id="图层_1" xmlns="http://www.w3.org/2000/svg" xmlns:xlink="http://www.w3.org/1999/xlink" x="0px" y="0px"
	 viewBox="0 0 400 400" style="enable-background:new 0 0 400 400;" xml:space="preserve">
<style type="text/css">
	.st0{fill:#09FEFE;}
	.st1{fill:#FF00FF;}
	.st2{fill:#FFC0CB;}
	.st3{fill:none;stroke:#000000;stroke-width:1.33;stroke-linejoin:round;}
	.st4{fill:#FFFF00;}
	.st5{font-family:'ArialMT';}
	.st6{font-size:23.9059px;}
	.st7{letter-spacing:-1.1;}
	.st8{font-size:16.8115px;}
	.st9{font-size:20px;}
</style>
<path class="st0" d="M86.6,227.8L96.9,201h3.8l11,26.8h-4l-3.1-8.1H93.4l-3,8.1H86.6z M94.4,216.8h9.1l-2.8-7.4
	c-0.8-2.3-1.5-4.1-1.9-5.6c-0.4,1.7-0.8,3.5-1.4,5.1L94.4,216.8z"/>
<path class="st0" d="M135.8,218.4l3.5,0.9c-0.6,2.6-2,5-4,6.7c-2,1.6-4.5,2.4-7.1,2.3c-2.5,0.1-4.9-0.5-7.1-1.8
	c-1.9-1.2-3.3-3-4.1-5.1c-1-2.3-1.4-4.7-1.4-7.2c-0.1-2.5,0.5-5,1.6-7.3c1-2,2.6-3.7,4.5-4.7c2-1.1,4.2-1.6,6.5-1.6
	c2.4-0.1,4.8,0.6,6.7,2.1c1.9,1.4,3.2,3.5,3.8,5.8l-3.5,0.8c-0.4-1.7-1.4-3.2-2.7-4.3c-1.3-0.9-2.9-1.4-4.5-1.3
	c-1.8-0.1-3.6,0.5-5.2,1.5c-1.4,1-2.4,2.4-2.9,4c-1.2,3.6-1.1,7.5,0.2,11.1c0.6,1.6,1.7,3,3.1,3.8c1.4,0.8,3,1.3,4.6,1.3
	c1.8,0.1,3.6-0.6,5-1.7C134.5,222.3,135.5,220.4,135.8,218.4z"/>
<path class="st0" d="M162.4,201h3.5v15.5c0.1,2.2-0.2,4.4-0.9,6.4c-0.6,1.6-1.8,3-3.3,3.9c-1.9,1.1-4.1,1.6-6.3,1.5
	c-2.1,0.1-4.3-0.4-6.2-1.3c-1.5-0.8-2.8-2.1-3.4-3.8c-0.8-2.2-1.1-4.4-1-6.7V201h3.5v15.5c-0.1,1.7,0.1,3.5,0.7,5.2
	c0.4,1.1,1.2,2,2.2,2.5c1.2,0.6,2.5,0.9,3.9,0.9c2.6,0,4.5-0.6,5.6-1.8c1.1-1.2,1.7-3.5,1.7-6.8L162.4,201z"/>
<path class="st1" d="M190.6,201h3.5v15.5c0.1,2.2-0.2,4.4-0.9,6.4c-0.6,1.6-1.8,3-3.3,3.9c-1.9,1.1-4.1,1.6-6.3,1.5
	c-2.1,0.1-4.2-0.4-6.2-1.3c-1.5-0.8-2.8-2.1-3.4-3.8c-0.8-2.2-1.1-4.4-1-6.7V201h3.5v15.5c-0.1,1.7,0.1,3.5,0.6,5.2
	c0.4,1.1,1.2,2,2.2,2.5c1.2,0.6,2.5,0.9,3.9,0.9c2.6,0,4.5-0.6,5.6-1.8c1.1-1.2,1.7-3.5,1.7-6.8L190.6,201z"/>
<path class="st1" d="M207.9,207.9v-3.1h11.4v10c-1.6,1.3-3.4,2.4-5.4,3.1c-1.8,0.7-3.8,1.1-5.7,1.1c-2.5,0-5-0.5-7.2-1.7
	c-2.1-1.1-3.8-2.8-4.9-5c-1.1-2.2-1.7-4.7-1.7-7.2c0-2.5,0.5-5,1.6-7.3c1-2.1,2.6-3.9,4.7-5c2.2-1.1,4.6-1.7,7.1-1.7
	c1.8,0,3.6,0.3,5.3,0.9c1.4,0.5,2.7,1.4,3.7,2.6c1,1.3,1.7,2.8,2,4.4l-3.2,0.8c-0.3-1.2-0.8-2.2-1.5-3.2c-0.7-0.8-1.6-1.5-2.6-1.9
	c-1.2-0.5-2.4-0.7-3.7-0.7c-1.4,0-2.9,0.2-4.2,0.7c-1.1,0.4-2.1,1.1-2.9,2c-0.7,0.8-1.3,1.7-1.7,2.7c-0.7,1.7-1,3.5-1,5.4
	c-0.1,2.1,0.4,4.1,1.2,6c0.8,1.6,2,2.8,3.6,3.6c1.6,0.8,3.3,1.2,5,1.2c1.5,0,3.1-0.3,4.5-0.9c1.2-0.4,2.4-1.1,3.4-1.9v-5
	L207.9,207.9z"/>
<path class="st1" d="M236.1,186.8v-3.1h11.4v10c-1.6,1.3-3.4,2.4-5.4,3.1c-1.8,0.7-3.8,1.1-5.7,1.1c-2.5,0-5-0.5-7.2-1.7
	c-2.1-1.1-3.8-2.8-4.9-4.9c-1.1-2.2-1.7-4.7-1.7-7.2c0-2.5,0.5-5,1.6-7.3c1-2.1,2.6-3.9,4.7-5c2.2-1.1,4.6-1.7,7.1-1.7
	c1.8,0,3.6,0.3,5.3,0.9c1.5,0.5,2.7,1.5,3.7,2.6c1,1.3,1.7,2.8,2,4.4l-3.2,0.8c-0.3-1.2-0.8-2.2-1.5-3.2c-0.7-0.8-1.5-1.5-2.5-1.9
	c-1.2-0.5-2.4-0.7-3.7-0.7c-1.4,0-2.9,0.2-4.2,0.7c-1.1,0.4-2.1,1.1-2.9,2c-0.7,0.8-1.3,1.7-1.7,2.7c-0.7,1.7-1,3.5-1,5.4
	c-0.1,2.1,0.4,4.1,1.2,6c0.8,1.6,2,2.8,3.6,3.6c1.6,0.8,3.3,1.2,5,1.2c1.5,0,3.1-0.3,4.5-0.9c1.2-0.4,2.4-1.1,3.4-1.9v-5
	L236.1,186.8z"/>
<path class="st2" d="M277.5,163.5h3.5v15.5c0.1,2.2-0.2,4.4-0.9,6.4c-0.6,1.6-1.8,3-3.3,3.9c-1.9,1.1-4.1,1.6-6.3,1.5
	c-2.1,0.1-4.2-0.4-6.2-1.3c-1.5-0.8-2.8-2.1-3.4-3.8c-0.8-2.2-1.1-4.4-1-6.7v-15.5h3.5v15.5c-0.1,1.7,0.1,3.5,0.6,5.2
	c0.4,1.1,1.2,2,2.2,2.5c1.2,0.6,2.5,0.9,3.9,0.9c2.6,0,4.5-0.6,5.6-1.8c1.1-1.2,1.7-3.5,1.7-6.8L277.5,163.5z"/>
<line class="st3" x1="270.7" y1="156.9" x2="270.7" y2="138.1"/>
<path d="M266.9,127.8h-2.1v-13.6c-0.6,0.6-1.3,1.1-2,1.5c-0.7,0.4-1.5,0.8-2.2,1.1v-2c1.1-0.5,2.2-1.2,3.1-2
	c0.8-0.6,1.4-1.4,1.9-2.3h1.4V127.8z M272.4,119.3c-0.1-1.7,0.2-3.4,0.6-5c0.3-1.1,1-2.1,1.9-2.9c0.9-0.7,2-1.1,3.2-1
	c0.9,0,1.7,0.2,2.5,0.5c0.7,0.4,1.3,1,1.7,1.6c0.5,0.8,0.9,1.7,1.1,2.6c0.3,1.3,0.4,2.7,0.4,4.1c0,1.7-0.2,3.3-0.6,4.9
	c-0.3,1.1-1,2.1-1.9,2.9c-0.9,0.7-2,1.1-3.2,1c-1.5,0.1-3-0.6-3.9-1.8C273,124.9,272.4,122.5,272.4,119.3z M274.6,119.3
	c0,2.9,0.3,4.8,1,5.7c0.8,1.4,2.5,1.8,3.9,1c0.4-0.3,0.8-0.6,1-1c0.7-0.9,1-2.8,1-5.7c0-2.8-0.3-4.8-1-5.7c-0.5-0.9-1.5-1.4-2.5-1.4
	c-0.9,0-1.8,0.5-2.3,1.3C274.9,114.4,274.6,116.4,274.6,119.3L274.6,119.3z"/>
<path class="st1" d="M305.7,170.5h3.5V186c0.1,2.2-0.2,4.4-0.9,6.4c-0.6,1.6-1.8,3-3.3,3.9c-1.9,1.1-4.1,1.6-6.3,1.5
	c-2.1,0.1-4.3-0.4-6.2-1.3c-1.5-0.8-2.8-2.1-3.4-3.8c-0.8-2.2-1.1-4.4-1-6.7v-15.5h3.5V186c-0.1,1.7,0.1,3.5,0.6,5.1
	c0.4,1.1,1.2,2,2.2,2.5c1.2,0.6,2.5,0.9,3.9,0.9c2.6,0,4.5-0.6,5.6-1.8c1.1-1.2,1.7-3.5,1.7-6.8L305.7,170.5z"/>
<path class="st1" d="M333.9,184.6h3.5v15.5c0.1,2.2-0.2,4.4-0.9,6.4c-0.6,1.6-1.8,3-3.3,3.9c-1.9,1.1-4.1,1.6-6.3,1.5
	c-2.1,0.1-4.3-0.4-6.2-1.3c-1.5-0.8-2.8-2.1-3.4-3.8c-0.8-2.2-1.1-4.4-1-6.7v-15.5h3.5V200c-0.1,1.7,0.1,3.5,0.6,5.2
	c0.4,1.1,1.2,2,2.2,2.5c1.2,0.6,2.5,0.9,3.9,0.9c2.6,0,4.5-0.6,5.6-1.8c1.1-1.2,1.7-3.5,1.7-6.8L333.9,184.6z"/>
<path class="st2" d="M328.6,239.6l10.3-26.8h3.8l11,26.8h-4l-3.1-8.1h-11.2l-3,8.1H328.6z M336.3,228.6h9.1l-2.8-7.4
	c-0.8-2.3-1.5-4.1-1.9-5.6c-0.4,1.7-0.8,3.5-1.4,5.1L336.3,228.6z"/>
<path class="st2" d="M341.8,264.3v-3.1h11.4v10c-1.6,1.3-3.4,2.4-5.4,3.1c-1.8,0.7-3.8,1-5.7,1.1c-2.5,0-5-0.5-7.2-1.7
	c-2.1-1.1-3.8-2.8-4.9-4.9c-1.1-2.2-1.7-4.7-1.7-7.2c0-2.5,0.6-5,1.7-7.3c1-2.1,2.6-3.9,4.7-5c2.2-1.1,4.6-1.7,7.1-1.7
	c1.8,0,3.6,0.3,5.3,0.9c1.4,0.5,2.7,1.4,3.7,2.6c1,1.3,1.7,2.8,2,4.4l-3.2,0.9c-0.3-1.2-0.8-2.2-1.5-3.2c-0.7-0.8-1.5-1.5-2.5-1.9
	c-1.2-0.5-2.4-0.7-3.7-0.7c-1.4,0-2.9,0.2-4.2,0.7c-1.1,0.4-2.1,1.1-2.9,2c-0.7,0.8-1.3,1.7-1.7,2.6c-0.7,1.7-1,3.6-1,5.4
	c-0.1,2.1,0.4,4.1,1.2,6c0.8,1.6,2,2.8,3.6,3.6c1.6,0.8,3.3,1.2,5,1.2c1.5,0,3.1-0.3,4.5-0.9c1.2-0.4,2.4-1.1,3.4-1.9v-5
	L341.8,264.3z"/>
<path class="st2" d="M327.7,292.5v-3.1h11.4v9.9c-1.6,1.3-3.4,2.4-5.4,3.1c-1.8,0.7-3.8,1.1-5.7,1.1c-2.5,0-5-0.5-7.2-1.7
	c-2.1-1.1-3.8-2.8-4.9-4.9c-1.1-2.2-1.7-4.7-1.6-7.2c0-2.5,0.5-5,1.6-7.3c1-2.1,2.6-3.9,4.7-5c2.2-1.1,4.6-1.7,7.1-1.7
	c1.8,0,3.6,0.3,5.3,0.9c1.4,0.5,2.7,1.4,3.7,2.6c1,1.3,1.7,2.8,2,4.4l-3.2,0.8c-0.3-1.2-0.8-2.2-1.5-3.2c-0.7-0.8-1.5-1.5-2.5-1.9
	c-1.2-0.5-2.4-0.7-3.7-0.7c-1.4,0-2.9,0.2-4.2,0.7c-1.1,0.4-2.1,1.1-2.9,2c-0.7,0.8-1.3,1.7-1.7,2.7c-0.7,1.7-1,3.5-1,5.4
	c-0.1,2.1,0.4,4.1,1.2,6c0.8,1.6,2,2.8,3.6,3.6c1.6,0.8,3.3,1.2,5,1.2c1.5,0,3.1-0.3,4.5-0.9c1.2-0.4,2.4-1.1,3.4-1.9v-5
	L327.7,292.5z"/>
<path class="st2" d="M305.7,283.2h3.5v15.5c0.1,2.2-0.2,4.4-0.9,6.4c-0.6,1.6-1.8,3-3.3,3.9c-1.9,1.1-4.1,1.6-6.3,1.5
	c-2.1,0.1-4.3-0.4-6.2-1.3c-1.5-0.8-2.8-2.1-3.4-3.8c-0.8-2.2-1.1-4.4-1-6.7v-15.5h3.5v15.5c-0.1,1.7,0.1,3.5,0.6,5.2
	c0.4,1.1,1.2,2,2.2,2.5c1.2,0.6,2.5,0.9,3.9,0.9c2.6,0,4.5-0.6,5.6-1.8c1.1-1.2,1.7-3.5,1.7-6.8L305.7,283.2z"/>
<path class="st2" d="M258.1,317.1l10.3-26.8h3.8l11,26.8h-4L276,309h-11.2l-3,8.1L258.1,317.1z M265.9,306.1h9.1l-2.8-7.4
	c-0.8-2.3-1.5-4.1-1.9-5.6c-0.3,1.7-0.8,3.5-1.4,5.1L265.9,306.1z"/>
<path class="st2" d="M229.9,317.1l10.3-26.8h3.8l11,26.8h-4l-3.1-8.1h-11.2l-3,8.1L229.9,317.1z M237.7,306.1h9.1l-2.8-7.4
	c-0.8-2.3-1.5-4.1-1.9-5.6c-0.4,1.7-0.8,3.5-1.4,5.1L237.7,306.1z"/>
<path class="st1" d="M221.2,276.2h3.6v15.5c0.1,2.2-0.2,4.4-0.9,6.4c-0.6,1.6-1.8,3-3.3,3.9c-1.9,1.1-4.1,1.6-6.3,1.5
	c-2.1,0.1-4.3-0.4-6.2-1.3c-1.5-0.8-2.8-2.1-3.4-3.8c-0.8-2.2-1.1-4.4-1-6.7v-15.5h3.5v15.5c-0.1,1.7,0.1,3.5,0.7,5.2
	c0.4,1.1,1.2,2,2.2,2.5c1.2,0.6,2.5,0.9,3.9,0.9c2.6,0,4.5-0.6,5.6-1.8c1.1-1.2,1.7-3.5,1.7-6.8L221.2,276.2z"/>
<path class="st2" d="M184.5,273.7v-3.1h11.4v10c-1.6,1.3-3.4,2.4-5.4,3.1c-1.8,0.7-3.8,1-5.7,1.1c-2.5,0-5-0.5-7.2-1.7
	c-2.1-1.1-3.8-2.8-4.9-4.9c-1.1-2.2-1.7-4.7-1.7-7.2c0-2.5,0.5-5,1.6-7.3c1-2.1,2.6-3.9,4.7-5c2.2-1.1,4.6-1.7,7.1-1.7
	c1.8,0,3.6,0.3,5.3,0.9c1.4,0.5,2.7,1.4,3.7,2.6c1,1.3,1.7,2.8,2,4.4l-3.2,0.8c-0.3-1.2-0.8-2.2-1.5-3.2c-0.7-0.8-1.6-1.5-2.6-1.9
	c-1.2-0.5-2.4-0.7-3.7-0.7c-1.4,0-2.9,0.2-4.2,0.7c-1.1,0.4-2.1,1.1-2.9,2c-0.7,0.8-1.3,1.7-1.7,2.7c-0.7,1.7-1,3.5-1,5.4
	c-0.1,2.1,0.4,4.1,1.2,6c0.8,1.6,2,2.8,3.6,3.6c1.6,0.8,3.3,1.2,5,1.2c1.5,0,3.1-0.3,4.5-0.9c1.2-0.4,2.4-1.1,3.4-1.9v-5
	L184.5,273.7z"/>
<line class="st3" x1="183.8" y1="288.4" x2="183.8" y2="307.2"/>
<path d="M182,333.2v2h-11.3c0-0.5,0.1-1,0.2-1.5c0.3-0.8,0.8-1.6,1.4-2.3c0.8-0.9,1.8-1.8,2.7-2.6c1.4-1.1,2.6-2.3,3.7-3.6
	c0.6-0.7,0.9-1.6,1-2.5c0-0.8-0.3-1.6-0.9-2.1c-0.6-0.6-1.5-0.9-2.3-0.9c-0.9,0-1.8,0.3-2.4,0.9c-0.6,0.7-1,1.6-0.9,2.5l-2.1-0.2
	c0-1.4,0.6-2.7,1.7-3.7c1.1-0.9,2.5-1.3,3.9-1.3c1.4-0.1,2.8,0.4,3.9,1.4c0.9,0.9,1.5,2.1,1.4,3.4c0,0.7-0.1,1.4-0.4,2
	c-0.3,0.8-0.8,1.5-1.4,2.1c-1,1.1-2.1,2.1-3.2,3c-1.3,1.1-2.1,1.8-2.4,2.1c-0.3,0.3-0.6,0.7-0.9,1.1L182,333.2z M184.3,326.8
	c-0.1-1.6,0.2-3.3,0.6-4.9c0.3-1.1,1-2.1,1.8-2.8c0.9-0.7,2-1,3.1-1c0.8,0,1.7,0.2,2.4,0.5c0.7,0.4,1.3,0.9,1.7,1.6
	c0.5,0.8,0.9,1.6,1.1,2.5c0.3,1.3,0.4,2.7,0.4,4c0,1.6-0.2,3.3-0.6,4.8c-0.3,1.1-1,2.1-1.8,2.8c-0.9,0.7-2,1-3.1,1
	c-1.5,0.1-2.9-0.6-3.9-1.8C184.8,332.3,184.3,330,184.3,326.8L184.3,326.8z M186.4,326.8c0,2.8,0.3,4.7,1,5.6c0.8,1.3,2.5,1.8,3.8,1
	c0.4-0.2,0.8-0.6,1-1c0.7-0.9,1-2.8,1-5.6c0-2.8-0.3-4.6-1-5.6c-0.5-0.8-1.4-1.4-2.4-1.4c-0.9,0-1.8,0.4-2.3,1.2
	C186.8,322.1,186.4,324,186.4,326.8L186.4,326.8z"/>
<path class="st0" d="M143,284.2l10.3-26.8h3.8l11,26.8h-4l-3.1-8.1h-11.2l-3,8.1H143z M150.8,273.2h9.1l-2.8-7.4
	c-0.8-2.3-1.5-4.1-1.9-5.6c-0.4,1.7-0.8,3.5-1.4,5.1L150.8,273.2z"/>
<path class="st0" d="M128,273.7v-3.1h11.4v10c-1.6,1.3-3.4,2.4-5.4,3.1c-1.8,0.7-3.8,1.1-5.7,1.1c-2.5,0-5-0.5-7.2-1.7
	c-2.1-1.1-3.8-2.8-4.9-4.9c-1.1-2.2-1.7-4.7-1.6-7.2c0-2.5,0.5-5,1.6-7.3c1-2.1,2.6-3.9,4.7-5c2.2-1.1,4.6-1.7,7.1-1.7
	c1.8,0,3.6,0.3,5.3,0.9c1.4,0.5,2.7,1.4,3.7,2.6c1,1.3,1.7,2.8,2,4.4l-3.2,0.8c-0.3-1.2-0.8-2.2-1.5-3.2c-0.7-0.8-1.6-1.5-2.6-1.9
	c-1.2-0.5-2.4-0.7-3.7-0.7c-1.4,0-2.9,0.2-4.2,0.7c-1.1,0.4-2.1,1.1-2.9,2c-0.7,0.8-1.3,1.7-1.7,2.7c-0.7,1.7-1,3.5-1,5.4
	c-0.1,2.1,0.4,4.1,1.2,6c0.8,1.6,2,2.8,3.6,3.6c1.6,0.8,3.3,1.2,5,1.2c1.5,0,3.1-0.3,4.5-0.9c1.2-0.4,2.4-1.1,3.4-1.9v-5L128,273.7z
	"/>
<path class="st0" d="M106.1,257.4h3.5v15.5c0.1,2.2-0.2,4.4-0.9,6.4c-0.6,1.6-1.8,3-3.3,3.9c-1.9,1.1-4.1,1.6-6.3,1.5
	c-2.1,0.1-4.3-0.4-6.2-1.3c-1.5-0.8-2.8-2.1-3.4-3.8c-0.8-2.2-1.1-4.4-1-6.7v-15.5h3.5v15.5c-0.1,1.7,0.1,3.5,0.6,5.2
	c0.4,1.1,1.2,2,2.2,2.5c1.2,0.6,2.5,0.9,3.9,0.9c2.6,0,4.5-0.6,5.6-1.8c1.1-1.2,1.7-3.5,1.7-6.8L106.1,257.4z"/>
<line class="st3" x1="99.3" y1="229.4" x2="99.3" y2="254.2"/>
<line class="st3" x1="127" y1="229.4" x2="127" y2="254.2"/>
<line class="st3" x1="155.6" y1="230.2" x2="155.6" y2="254.2"/>
<rect x="221" y="222.1" class="st4" width="88.3" height="25.5"/>
<g>
	<text transform="matrix(0.92 0 0 1 62.8279 221.5436)" class="st5 st6">5</text>
	<text transform="matrix(0.92 0 0 1 75.0574 221.5436)" class="st5 st6 st7">’</text>
</g>
<g>
	<text transform="matrix(0.92 0 0 1 60.0623 279.258)" class="st5 st6">3</text>
	<text transform="matrix(0.92 0 0 1 70.6111 279.258)" class="st5 st6 st7">’</text>
</g>
<text transform="matrix(1 0 0 1 224.7244 241.4235)" class="st5 st8">tobramycin</text>
<text transform="matrix(1 0 0 1 139.4041 55)" class="st5 st9">RNA aptamer II</text>
</svg>
