<?xml version="1.0" encoding="utf-8"?>
<!-- Generator: Adobe Illustrator 27.0.0, SVG Export Plug-In . SVG Version: 6.00 Build 0)  -->
<svg version="1.1" id="图层_1" xmlns="http://www.w3.org/2000/svg" xmlns:xlink="http://www.w3.org/1999/xlink" x="0px" y="0px"
	 viewBox="0 0 800 400" style="enable-background:new 0 0 800 400;" xml:space="preserve">
<style type="text/css">
	.st0{fill:#C2B617;}
	.st1{font-family:'ArialMT';}
	.st2{font-size:29.556px;}
	.st3{fill:#B83332;}
	.st4{fill:#084595;}
	.st5{font-size:20.9355px;}
	.st6{fill:none;stroke:#000000;stroke-miterlimit:10;}
	.st7{font-size:19.704px;}
	.st8{font-size:16px;}
</style>
<text transform="matrix(0.9999 1.566132e-02 -1.566132e-02 0.9999 311.4094 167.3809)" class="st0 st1 st2">C</text>
<text transform="matrix(0.9999 1.566132e-02 -1.566132e-02 0.9999 338.6833 166.8134)" class="st3 st1 st2">G</text>
<text transform="matrix(0.9999 1.566132e-02 -1.566132e-02 0.9999 369.3335 167.3809)" class="st3 st1 st2">U</text>
<text transform="matrix(0.9999 1.566132e-02 -1.566132e-02 0.9999 400.7897 165.0002)" class="st3 st1 st2">C</text>
<text transform="matrix(0.9999 1.566132e-02 -1.566132e-02 0.9999 433.1562 164.2985)" class="st3 st1 st2">C</text>
<text transform="matrix(0.9999 1.566132e-02 -1.566132e-02 0.9999 465.7035 166.1458)" class="st3 st1 st2">C</text>
<text transform="matrix(0.9999 1.566132e-02 -1.566132e-02 0.9999 493.535 163.0311)" class="st3 st1 st2">U</text>
<text transform="matrix(0.9999 1.566132e-02 -1.566132e-02 0.9999 521.9368 160.1054)" class="st3 st1 st2">U</text>
<text transform="matrix(0.9999 1.566132e-02 -1.566132e-02 0.9999 551.9533 147.7527)" class="st4 st1 st2">C</text>
<text transform="matrix(0.9999 1.566132e-02 -1.566132e-02 0.9999 558.2554 118.9142)" class="st4 st1 st2">G</text>
<text transform="matrix(0.9999 1.566132e-02 -1.566132e-02 0.9999 571.1518 98.0668)" class="st4 st1 st2">C</text>
<text transform="matrix(0.9999 1.566132e-02 -1.566132e-02 0.9999 596.094 80.3156)" class="st4 st1 st2">A</text>
<text transform="matrix(0.9999 1.566132e-02 -1.566132e-02 0.9999 624.5029 75.6926)" class="st4 st1 st2">A</text>
<text transform="matrix(0.9999 1.566132e-02 -1.566132e-02 0.9999 650.8206 84.6063)" class="st4 st1 st2">C</text>
<text transform="matrix(0.9999 1.566132e-02 -1.566132e-02 0.9999 671.7756 104.2963)" class="st4 st1 st2">C</text>
<text transform="matrix(0.9999 1.566132e-02 -1.566132e-02 0.9999 681.9105 130.9251)" class="st4 st1 st2">C</text>
<text transform="matrix(0.9999 1.566132e-02 -1.566132e-02 0.9999 681.5868 159.0143)" class="st4 st1 st2">U</text>
<text transform="matrix(0.9999 1.566132e-02 -1.566132e-02 0.9999 667.7996 184.2936)" class="st4 st1 st2">U</text>
<text transform="matrix(0.9999 1.566132e-02 -1.566132e-02 0.9999 644.258 200.7302)" class="st4 st1 st2">U</text>
<text transform="matrix(0.9999 1.566132e-02 -1.566132e-02 0.9999 621.6639 203.6272)" class="st4 st1 st2">A</text>
<text transform="matrix(0.9999 1.566132e-02 -1.566132e-02 0.9999 593.8001 201.0127)" class="st4 st1 st2">A</text>
<text transform="matrix(0.9999 1.566132e-02 -1.566132e-02 0.9999 569.1887 188.3562)" class="st4 st1 st2">G</text>
<text transform="matrix(0.9999 1.566132e-02 -1.566132e-02 0.9999 548.0009 199.0603)" class="st3 st1 st2">A</text>
<text transform="matrix(0.9999 1.566132e-02 -1.566132e-02 0.9999 533.2708 221.3685)" class="st3 st1 st2">C</text>
<text transform="matrix(0.9999 1.566132e-02 -1.566132e-02 0.9999 510.8418 236.3609)" class="st3 st1 st2">U</text>
<text transform="matrix(0.9999 1.566132e-02 -1.566132e-02 0.9999 482.8725 230.6253)" class="st3 st1 st2">U</text>
<text transform="matrix(0.9999 1.566132e-02 -1.566132e-02 0.9999 461.5168 208.9664)" class="st3 st1 st2">G</text>
<text transform="matrix(0.9999 1.566132e-02 -1.566132e-02 0.9999 432.4001 206.4559)" class="st3 st1 st2">G</text>
<text transform="matrix(0.9999 1.566132e-02 -1.566132e-02 0.9999 402.2914 207.2374)" class="st3 st1 st2">G</text>
<text transform="matrix(0.9999 1.566132e-02 -1.566132e-02 0.9999 374.2707 209.0287)" class="st3 st1 st2">A</text>
<text transform="matrix(0.9999 1.566132e-02 -1.566132e-02 0.9999 340.4759 209.6909)" class="st3 st1 st2">C</text>
<text transform="matrix(0.9999 1.566132e-02 -1.566132e-02 0.9999 312.4568 209.6916)" class="st0 st1 st2">C</text>
<text transform="matrix(0.9999 1.566132e-02 -1.566132e-02 0.9999 286.0473 209.6925)" class="st0 st1 st2">C</text>
<text transform="matrix(0.9999 1.566132e-02 -1.566132e-02 0.9999 261.1537 209.6918)" class="st0 st1 st2">U</text>
<text transform="matrix(0.9999 1.566132e-02 -1.566132e-02 0.9999 234.5132 209.6916)" class="st0 st1 st2">G</text>
<text transform="matrix(0.9999 1.566132e-02 -1.566132e-02 0.9999 210.7658 209.0281)" class="st0 st1 st2">C</text>
<text transform="matrix(0.9999 1.566132e-02 -1.566132e-02 0.9999 187.2047 209.6919)" class="st0 st1 st2">U</text>
<text transform="matrix(0.9999 1.566132e-02 -1.566132e-02 0.9999 163.7565 209.6913)" class="st0 st1 st2">C</text>
<text transform="matrix(0.9999 1.566132e-02 -1.566132e-02 0.9999 141.1585 209.6924)" class="st0 st1 st2">U</text>
<text transform="matrix(0.9999 1.566132e-02 -1.566132e-02 0.9999 115.7008 209.6921)" class="st0 st1 st2">U</text>
<text transform="matrix(0.9999 1.566132e-02 -1.566132e-02 0.9999 536.9984 106.0363)" class="st1 st5">10</text>
<text transform="matrix(0.9999 1.566132e-02 -1.566132e-02 0.9999 619.8214 221.7431)" class="st1 st5">20</text>
<text transform="matrix(0.9999 1.566132e-02 -1.566132e-02 0.9999 374.4882 227.007)" class="st1 st5">30</text>
<text transform="matrix(0.9999 1.566132e-02 -1.566132e-02 0.9999 104.8189 184.294)" class="st1 st5">40</text>
<g id="ID000017">
	<line class="st6" x1="575.5" y1="167.4" x2="567.1" y2="149"/>
</g>
<g id="ID000017-2">
	<line class="st6" x1="554.7" y1="181.7" x2="541.3" y2="160.1"/>
</g>
<g id="ID000017-3">
	<line class="st6" x1="475.4" y1="186.7" x2="474.7" y2="167.1"/>
</g>
<g id="ID000017-4">
	<line class="st6" x1="443.6" y1="183.4" x2="443.6" y2="165"/>
</g>
<g id="ID000017-5">
	<line class="st6" x1="412.3" y1="184.3" x2="411.6" y2="166.1"/>
</g>
<g id="ID000017-6">
	<line class="st6" x1="381.4" y1="186.7" x2="380.7" y2="167.6"/>
</g>
<g id="ID000017-7">
	<line class="st6" x1="351.6" y1="187.7" x2="351.2" y2="168.7"/>
</g>
<text transform="matrix(0.9999 1.566132e-02 -1.566132e-02 0.9999 305.8771 140.246)" class="st1 st7">5</text>
<text transform="matrix(0.9999 1.566132e-02 -1.566132e-02 0.9999 316.8372 140.4177)" class="st1 st7">’</text>
<text transform="matrix(0.9999 1.566132e-02 -1.566132e-02 0.9999 107.5041 230.54)" class="st1 st7">3</text>
<text transform="matrix(0.9999 1.566132e-02 -1.566132e-02 0.9999 118.4627 230.7116)" class="st1 st7">’</text>
<text transform="matrix(1 0 0 1 356.2221 25.3236)" class="st1 st8">W2 aptamer</text>
</svg>
