<?xml version="1.0" encoding="utf-8"?>
<!-- Generator: Adobe Illustrator 25.2.0, SVG Export Plug-In . SVG Version: 6.00 Build 0)  -->
<svg version="1.1" id="图层_1" xmlns="http://www.w3.org/2000/svg" xmlns:xlink="http://www.w3.org/1999/xlink" x="0px" y="0px"
	 viewBox="0 0 800 400" style="enable-background:new 0 0 800 400;" xml:space="preserve">
<style type="text/css">
	.st0{fill:#FF7F0E;}
	.st1{font-family:'ArialMT';}
	.st2{font-size:15.2279px;}
	.st3{fill:#17BECF;}
	.st4{fill:none;stroke:#000000;stroke-width:0.1796;stroke-miterlimit:1.4366;}
	.st5{stroke:#000000;stroke-width:0.1796;stroke-miterlimit:1.4366;}
	.st6{fill:#2CA02C;}
	.st7{fill:#D62728;}
	.st8{fill:none;stroke:#000000;stroke-width:1.0774;stroke-miterlimit:1.4366;}
	.st9{fill:#9467BD;}
	.st10{fill:#8C564B;}
	.st11{fill:#BCBD22;}
	.st12{font-size:20px;}
</style>
<g id="ID000002">
	<g transform="translate(114.866,495.997)">
		<g transform="rotate(-0.0)">
			<text transform="matrix(1 0 0 1 23.2315 -180.3547)" class="st0 st1 st2">G</text>
		</g>
	</g>
</g>
<g id="ID000003">
	<g transform="translate(139.658,495.997)">
		<g transform="rotate(-0.0)">
			<text transform="matrix(1 0 0 1 13.5425 -180.3547)" class="st0 st1 st2">G</text>
		</g>
	</g>
</g>
<g id="ID000004">
	<g transform="translate(164.449,495.997)">
		<g transform="rotate(-0.0)">
			<text transform="matrix(1 0 0 1 3.8507 -180.3547)" class="st0 st1 st2">G</text>
		</g>
	</g>
</g>
<g id="ID000005">
	<g transform="translate(189.240,495.997)">
		<g transform="rotate(-0.0)">
			<text transform="matrix(1 0 0 1 -5.4159 -180.3547)" class="st0 st1 st2">C</text>
		</g>
	</g>
</g>
<g id="ID000006">
	<g transform="translate(214.032,495.997)">
		<g transform="rotate(-0.0)">
			<text transform="matrix(1 0 0 1 -15.1068 -180.3547)" class="st0 st1 st2">C</text>
		</g>
	</g>
</g>
<g id="ID000007">
	<g transform="translate(238.823,495.997)">
		<g transform="rotate(-0.0)">
			<text transform="matrix(1 0 0 1 -24.3764 -180.3547)" class="st3 st1 st2">A</text>
		</g>
	</g>
</g>
<g id="ID000008">
	<g transform="translate(238.823,545.580)">
		<g transform="rotate(-0.0)">
			<text transform="matrix(1 0 0 1 -24.3764 -199.7365)" class="st3 st1 st2">A</text>
		</g>
	</g>
</g>
<g id="ID000009">
	<g transform="translate(214.032,545.580)">
		<g transform="rotate(-0.0)">
			<text transform="matrix(1 0 0 1 -15.5297 -199.7365)" class="st0 st1 st2">G</text>
		</g>
	</g>
</g>
<g id="ID000010">
	<g transform="translate(189.240,545.580)">
		<g transform="rotate(-0.0)">
			<text transform="matrix(1 0 0 1 -5.8412 -199.7365)" class="st0 st1 st2">G</text>
		</g>
	</g>
</g>
<g id="ID000011">
	<g transform="translate(164.449,545.580)">
		<g transform="rotate(-0.0)">
			<text transform="matrix(1 0 0 1 4.274 -199.7365)" class="st0 st1 st2">U</text>
		</g>
	</g>
</g>
<g id="ID000012">
	<g transform="translate(139.658,545.580)">
		<g transform="rotate(-0.0)">
			<text transform="matrix(1 0 0 1 13.9659 -199.7365)" class="st0 st1 st2">U</text>
		</g>
	</g>
</g>
<g id="ID000013">
	<line class="st4" x1="159.1" y1="349.1" x2="159.1" y2="359.2"/>
</g>
<g id="ID000014">
	<g transform="translate(139.658,596.733)">
		<g transform="rotate(-0.0)">
			<text transform="matrix(1 0 0 1 6.7613 -219.7313)" class="st1 st2">100</text>
		</g>
	</g>
</g>
<g id="ID000015">
	<g transform="translate(114.866,545.580)">
		<g transform="rotate(-0.0)">
			<text transform="matrix(1 0 0 1 23.6568 -199.7365)" class="st0 st1 st2">C</text>
		</g>
	</g>
</g>
<g id="ID000016">
	<g transform="translate(90.075,545.580)">
		<g transform="rotate(-0.0)">
			<text transform="matrix(1 0 0 1 33.3462 -199.7365)" class="st3 st1 st2">C</text>
		</g>
	</g>
</g>
<g id="ID000017">
	<g transform="translate(65.284,545.580)">
		<g transform="rotate(-0.0)">
			<text transform="matrix(1 0 0 1 43.0362 -199.7365)" class="st3 st1 st2">C</text>
		</g>
	</g>
</g>
<g id="ID000018">
	<line class="st4" x1="144" y1="314.9" x2="144" y2="333"/>
</g>
<g id="ID000019">
	<polygon class="st5" points="159.1,327 159.3,327 159.5,326.9 159.7,326.9 159.9,326.9 160.1,326.8 160.2,326.8 160.4,326.7 
		160.6,326.6 160.8,326.5 160.9,326.4 161.1,326.3 161.2,326.1 161.3,326 161.5,325.9 161.6,325.7 161.7,325.5 161.8,325.4 
		161.9,325.2 161.9,325 162,324.8 162.1,324.7 162.1,324.5 162.1,324.3 162.1,324.1 162.1,323.9 162.1,323.7 162.1,323.5 
		162.1,323.3 162,323.1 162,323 161.9,322.8 161.8,322.6 161.7,322.4 161.6,322.3 161.5,322.1 161.4,322 161.3,321.8 161.1,321.7 
		161,321.6 160.8,321.5 160.7,321.4 160.5,321.3 160.3,321.2 160.2,321.1 160,321 159.8,321 159.6,321 159.4,320.9 159.2,320.9 
		159,320.9 158.8,320.9 158.6,321 158.5,321 158.3,321 158.1,321.1 157.9,321.2 157.7,321.3 157.6,321.4 157.4,321.5 157.3,321.6 
		157.1,321.7 157,321.8 156.8,322 156.7,322.1 156.6,322.3 156.5,322.4 156.4,322.6 156.3,322.8 156.3,323 156.2,323.1 156.2,323.3 
		156.1,323.5 156.1,323.7 156.1,323.9 156.1,324.1 156.1,324.3 156.1,324.5 156.2,324.7 156.2,324.8 156.3,325 156.4,325.2 
		156.5,325.4 156.6,325.5 156.7,325.7 156.8,325.9 156.9,326 157,326.1 157.2,326.3 157.3,326.4 157.5,326.5 157.7,326.6 
		157.8,326.7 158,326.8 158.2,326.8 158.4,326.9 158.5,326.9 158.7,326.9 158.9,327 	"/>
</g>
<g id="ID000020">
	<polygon class="st5" points="174.2,327 174.4,327 174.6,326.9 174.8,326.9 175,326.9 175.2,326.8 175.3,326.8 175.5,326.7 
		175.7,326.6 175.9,326.5 176,326.4 176.2,326.3 176.3,326.1 176.4,326 176.6,325.9 176.7,325.7 176.8,325.5 176.9,325.4 177,325.2 
		177,325 177.1,324.8 177.2,324.7 177.2,324.5 177.2,324.3 177.2,324.1 177.2,323.9 177.2,323.7 177.2,323.5 177.2,323.3 
		177.1,323.1 177.1,323 177,322.8 176.9,322.6 176.8,322.4 176.7,322.3 176.6,322.1 176.5,322 176.4,321.8 176.2,321.7 176.1,321.6 
		175.9,321.5 175.8,321.4 175.6,321.3 175.4,321.2 175.3,321.1 175.1,321 174.9,321 174.7,321 174.5,320.9 174.3,320.9 174.1,320.9 
		173.9,320.9 173.7,321 173.6,321 173.4,321 173.2,321.1 173,321.2 172.8,321.3 172.7,321.4 172.5,321.5 172.4,321.6 172.2,321.7 
		172.1,321.8 171.9,322 171.8,322.1 171.7,322.3 171.6,322.4 171.5,322.6 171.4,322.8 171.4,323 171.3,323.1 171.3,323.3 
		171.2,323.5 171.2,323.7 171.2,323.9 171.2,324.1 171.2,324.3 171.2,324.5 171.3,324.7 171.3,324.8 171.4,325 171.5,325.2 
		171.6,325.4 171.7,325.5 171.8,325.7 171.9,325.9 172,326 172.1,326.1 172.3,326.3 172.4,326.4 172.6,326.5 172.8,326.6 
		172.9,326.7 173.1,326.8 173.3,326.8 173.5,326.9 173.7,326.9 173.8,326.9 174,327 	"/>
</g>
<g id="ID000021">
	<line class="st4" x1="189.3" y1="314.9" x2="189.3" y2="333"/>
</g>
<g id="ID000022">
	<line class="st4" x1="204.4" y1="314.9" x2="204.4" y2="333"/>
</g>
<g id="ID000023">
</g>
<g id="ID000024">
	<g transform="translate(269.812,495.997)">
		<g transform="rotate(-0.0)">
			<text transform="matrix(1 0 0 1 -36.4894 -180.3547)" class="st6 st1 st2">A</text>
		</g>
	</g>
</g>
<g id="ID000025">
	<g transform="translate(294.604,495.997)">
		<g transform="rotate(-0.0)">
			<text transform="matrix(1 0 0 1 -47.0246 -180.3547)" class="st6 st1 st2">G</text>
		</g>
	</g>
</g>
<g id="ID000026">
	<g transform="translate(319.395,495.997)">
		<g transform="rotate(-0.0)">
			<text transform="matrix(1 0 0 1 -56.2902 -180.3547)" class="st6 st1 st2">C</text>
		</g>
	</g>
</g>
<g id="ID000027">
	<g transform="translate(344.186,495.997)">
		<g transform="rotate(-0.0)">
			<text transform="matrix(1 0 0 1 -65.9811 -180.3547)" class="st6 st1 st2">U</text>
		</g>
	</g>
</g>
<g id="ID000028">
	<line class="st4" x1="283.7" y1="298.8" x2="283.7" y2="288.7"/>
</g>
<g id="ID000029">
	<g transform="translate(344.186,445.588)">
		<g transform="rotate(-0.0)">
			<text transform="matrix(1 0 0 1 -68.9523 -160.6508)" class="st1 st2">10</text>
		</g>
	</g>
</g>
<g id="ID000030">
	<g transform="translate(368.977,495.997)">
		<g transform="rotate(-0.0)">
			<text transform="matrix(1 0 0 1 -75.671 -180.3547)" class="st6 st1 st2">U</text>
		</g>
	</g>
</g>
<g id="ID000031">
	<g transform="translate(393.769,495.997)">
		<g transform="rotate(-0.0)">
			<text transform="matrix(1 0 0 1 -85.7858 -180.3547)" class="st6 st1 st2">G</text>
		</g>
	</g>
</g>
<g id="ID000032">
	<g transform="translate(412.362,477.404)">
		<g transform="rotate(-0.0)">
			<text transform="matrix(1 0 0 1 -92.6302 -173.0869)" class="st3 st1 st2">C</text>
		</g>
	</g>
</g>
<g id="ID000033">
	<g transform="translate(418.560,557.976)">
		<g transform="rotate(-0.0)">
			<text transform="matrix(1 0 0 1 -95.0514 -204.5807)" class="st3 st1 st2">C</text>
		</g>
	</g>
</g>
<g id="ID000034">
	<g transform="translate(393.769,545.580)">
		<g transform="rotate(-0.0)">
			<text transform="matrix(1 0 0 1 -85.3639 -199.7365)" class="st6 st1 st2">C</text>
		</g>
	</g>
</g>
<g id="ID000035">
	<g transform="translate(368.977,545.580)">
		<g transform="rotate(-0.0)">
			<text transform="matrix(1 0 0 1 -76.0948 -199.7365)" class="st6 st1 st2">G</text>
		</g>
	</g>
</g>
<g id="ID000036">
	<line class="st4" x1="298.8" y1="349.1" x2="298.8" y2="359.2"/>
</g>
<g id="ID000037">
	<g transform="translate(368.977,596.733)">
		<g transform="rotate(-0.0)">
			<text transform="matrix(1 0 0 1 -78.6422 -219.7313)" class="st1 st2">90</text>
		</g>
	</g>
</g>
<g id="ID000038">
	<g transform="translate(344.186,545.580)">
		<g transform="rotate(-0.0)">
			<text transform="matrix(1 0 0 1 -65.5607 -199.7365)" class="st6 st1 st2">A</text>
		</g>
	</g>
</g>
<g id="ID000039">
	<g transform="translate(319.395,545.580)">
		<g transform="rotate(-0.0)">
			<text transform="matrix(1 0 0 1 -56.7145 -199.7365)" class="st6 st1 st2">G</text>
		</g>
	</g>
</g>
<g id="ID000040">
	<g transform="translate(294.604,545.580)">
		<g transform="rotate(-0.0)">
			<text transform="matrix(1 0 0 1 -46.6002 -199.7365)" class="st6 st1 st2">C</text>
		</g>
	</g>
</g>
<g id="ID000041">
	<g transform="translate(269.812,545.580)">
		<g transform="rotate(-0.0)">
			<text transform="matrix(1 0 0 1 -36.9093 -199.7365)" class="st6 st1 st2">U</text>
		</g>
	</g>
</g>
<g id="ID000042">
	<g transform="translate(257.417,564.174)">
		<g transform="rotate(-0.0)">
			<text transform="matrix(1 0 0 1 -32.0631 -207.0053)" class="st3 st1 st2">C</text>
		</g>
	</g>
</g>
<g id="ID000043">
	<line class="st4" x1="238.4" y1="314.9" x2="238.4" y2="333"/>
</g>
<g id="ID000044">
	<line class="st4" x1="253.5" y1="314.9" x2="253.5" y2="333"/>
</g>
<g id="ID000045">
	<line class="st4" x1="268.6" y1="314.9" x2="268.6" y2="333"/>
</g>
<g id="ID000046">
	<line class="st4" x1="283.7" y1="314.9" x2="283.7" y2="333"/>
</g>
<g id="ID000047">
	<polygon class="st5" points="298.8,327 299,327 299.2,326.9 299.4,326.9 299.6,326.9 299.7,326.8 299.9,326.8 300.1,326.7 
		300.3,326.6 300.4,326.5 300.6,326.4 300.7,326.3 300.9,326.1 301,326 301.1,325.9 301.3,325.7 301.4,325.5 301.5,325.4 
		301.6,325.2 301.6,325 301.7,324.8 301.7,324.7 301.8,324.5 301.8,324.3 301.8,324.1 301.8,323.9 301.8,323.7 301.8,323.5 
		301.8,323.3 301.7,323.1 301.7,323 301.6,322.8 301.5,322.6 301.4,322.4 301.3,322.3 301.2,322.1 301.1,322 301,321.8 300.8,321.7 
		300.7,321.6 300.5,321.5 300.4,321.4 300.2,321.3 300,321.2 299.8,321.1 299.7,321 299.5,321 299.3,321 299.1,320.9 298.9,320.9 
		298.7,320.9 298.5,320.9 298.3,321 298.1,321 298,321 297.8,321.1 297.6,321.2 297.4,321.3 297.3,321.4 297.1,321.5 296.9,321.6 
		296.8,321.7 296.7,321.8 296.5,322 296.4,322.1 296.3,322.3 296.2,322.4 296.1,322.6 296,322.8 295.9,323 295.9,323.1 295.8,323.3 
		295.8,323.5 295.8,323.7 295.8,323.9 295.8,324.1 295.8,324.3 295.8,324.5 295.9,324.7 295.9,324.8 296,325 296.1,325.2 
		296.1,325.4 296.2,325.5 296.3,325.7 296.5,325.9 296.6,326 296.7,326.1 296.9,326.3 297,326.4 297.2,326.5 297.3,326.6 
		297.5,326.7 297.7,326.8 297.9,326.8 298,326.9 298.2,326.9 298.4,326.9 298.6,327 	"/>
</g>
<g id="ID000048">
	<line class="st4" x1="313.9" y1="314.9" x2="313.9" y2="333"/>
</g>
<g id="ID000049">
</g>
<g id="ID000050">
	<g transform="translate(430.956,477.404)">
		<g transform="rotate(-0.0)">
			<text transform="matrix(1 0 0 1 -99.4786 -173.0869)" class="st3 st1 st2">A</text>
		</g>
	</g>
</g>
<g id="ID000051">
	<g transform="translate(449.549,495.997)">
		<g transform="rotate(-0.0)">
			<text transform="matrix(1 0 0 1 -107.1663 -180.3547)" class="st7 st1 st2">U</text>
		</g>
	</g>
</g>
<g id="ID000052">
	<g transform="translate(474.341,495.997)">
		<g transform="rotate(-0.0)">
			<text transform="matrix(1 0 0 1 -117.2806 -180.3547)" class="st7 st1 st2">G</text>
		</g>
	</g>
</g>
<g id="ID000053">
	<g transform="translate(499.132,495.997)">
		<g transform="rotate(-0.0)">
			<text transform="matrix(1 0 0 1 -126.5481 -180.3547)" class="st7 st1 st2">C</text>
		</g>
	</g>
</g>
<g id="ID000054">
	<g transform="translate(523.923,495.997)">
		<g transform="rotate(-0.0)">
			<text transform="matrix(1 0 0 1 -136.2361 -180.3547)" class="st7 st1 st2">C</text>
		</g>
	</g>
</g>
<g id="ID000055">
	<g transform="translate(548.715,495.997)">
		<g transform="rotate(-0.0)">
			<text transform="matrix(1 0 0 1 -145.9286 -180.3547)" class="st3 st1 st2">U</text>
		</g>
	</g>
</g>
<g id="ID000056">
	<g transform="translate(722.254,545.580)">
		<g transform="rotate(-0.0)">
			<text transform="matrix(1 0 0 1 -213.3406 -199.7365)" class="st3 st1 st2">A</text>
		</g>
	</g>
</g>
<g id="ID000057">
	<g transform="translate(697.462,545.580)">
		<g transform="rotate(-0.0)">
			<text transform="matrix(1 0 0 1 -203.6491 -199.7365)" class="st3 st1 st2">A</text>
		</g>
	</g>
</g>
<g id="ID000058">
	<g transform="translate(672.671,545.580)">
		<g transform="rotate(-0.0)">
			<text transform="matrix(1 0 0 1 -194.8055 -199.7365)" class="st3 st1 st2">G</text>
		</g>
	</g>
</g>
<g id="ID000059">
	<g transform="translate(647.880,545.580)">
		<g transform="rotate(-0.0)">
			<text transform="matrix(1 0 0 1 -184.6902 -199.7365)" class="st3 st1 st2">U</text>
		</g>
	</g>
</g>
<g id="ID000060">
	<g transform="translate(623.088,545.580)">
		<g transform="rotate(-0.0)">
			<text transform="matrix(1 0 0 1 -175.0008 -199.7365)" class="st3 st1 st2">C</text>
		</g>
	</g>
</g>
<g id="ID000061">
	<line class="st4" x1="453.6" y1="349.1" x2="453.6" y2="359.2"/>
</g>
<g id="ID000062">
	<g transform="translate(623.088,596.733)">
		<g transform="rotate(-0.0)">
			<text transform="matrix(1 0 0 1 -177.9685 -219.7313)" class="st1 st2">80</text>
		</g>
	</g>
</g>
<g id="ID000063">
	<g transform="translate(598.297,545.580)">
		<g transform="rotate(-0.0)">
			<text transform="matrix(1 0 0 1 -164.8894 -199.7365)" class="st3 st1 st2">A</text>
		</g>
	</g>
</g>
<g id="ID000064">
	<g transform="translate(573.506,545.580)">
		<g transform="rotate(-0.0)">
			<text transform="matrix(1 0 0 1 -156.0418 -199.7365)" class="st3 st1 st2">G</text>
		</g>
	</g>
</g>
<g id="ID000065">
	<g transform="translate(548.715,545.580)">
		<g transform="rotate(-0.0)">
			<text transform="matrix(1 0 0 1 -145.9286 -199.7365)" class="st3 st1 st2">U</text>
		</g>
	</g>
</g>
<g id="ID000066">
	<g transform="translate(523.923,545.580)">
		<g transform="rotate(-0.0)">
			<text transform="matrix(1 0 0 1 -136.6614 -199.7365)" class="st7 st1 st2">G</text>
		</g>
	</g>
</g>
<g id="ID000067">
	<g transform="translate(499.132,545.580)">
		<g transform="rotate(-0.0)">
			<text transform="matrix(1 0 0 1 -126.9715 -199.7365)" class="st7 st1 st2">G</text>
		</g>
	</g>
</g>
<g id="ID000068">
	<g transform="translate(474.341,545.580)">
		<g transform="rotate(-0.0)">
			<text transform="matrix(1 0 0 1 -116.8563 -199.7365)" class="st7 st1 st2">U</text>
		</g>
	</g>
</g>
<g id="ID000069">
	<g transform="translate(449.549,545.580)">
		<g transform="rotate(-0.0)">
			<text transform="matrix(1 0 0 1 -106.7445 -199.7365)" class="st7 st1 st2">A</text>
		</g>
	</g>
</g>
<g id="ID000070">
	<line class="st4" x1="347.9" y1="314.9" x2="347.9" y2="333"/>
</g>
<g id="ID000071">
	<polygon class="st5" points="363,327 363.2,327 363.4,326.9 363.6,326.9 363.7,326.9 363.9,326.8 364.1,326.8 364.3,326.7 
		364.5,326.6 364.6,326.5 364.8,326.4 364.9,326.3 365.1,326.1 365.2,326 365.3,325.9 365.4,325.7 365.5,325.5 365.6,325.4 
		365.7,325.2 365.8,325 365.9,324.8 365.9,324.7 366,324.5 366,324.3 366,324.1 366,323.9 366,323.7 366,323.5 365.9,323.3 
		365.9,323.1 365.8,323 365.8,322.8 365.7,322.6 365.6,322.4 365.5,322.3 365.4,322.1 365.3,322 365.1,321.8 365,321.7 364.8,321.6 
		364.7,321.5 364.5,321.4 364.4,321.3 364.2,321.2 364,321.1 363.8,321 363.6,321 363.5,321 363.3,320.9 363.1,320.9 362.9,320.9 
		362.7,320.9 362.5,321 362.3,321 362.1,321 361.9,321.1 361.8,321.2 361.6,321.3 361.4,321.4 361.3,321.5 361.1,321.6 361,321.7 
		360.8,321.8 360.7,322 360.6,322.1 360.5,322.3 360.4,322.4 360.3,322.6 360.2,322.8 360.1,323 360.1,323.1 360,323.3 360,323.5 
		360,323.7 360,323.9 360,324.1 360,324.3 360,324.5 360,324.7 360.1,324.8 360.2,325 360.2,325.2 360.3,325.4 360.4,325.5 
		360.5,325.7 360.6,325.9 360.8,326 360.9,326.1 361,326.3 361.2,326.4 361.3,326.5 361.5,326.6 361.7,326.7 361.9,326.8 362,326.8 
		362.2,326.9 362.4,326.9 362.6,326.9 362.8,327 	"/>
</g>
<g id="ID000072">
	<line class="st4" x1="378.1" y1="314.9" x2="378.1" y2="333"/>
</g>
<g id="ID000073">
	<line class="st4" x1="393.2" y1="314.9" x2="393.2" y2="333"/>
</g>
<g id="ID000074">
	<line class="st8" x1="414.3" y1="308.8" x2="564.6" y2="308.8"/>
</g>
<g id="ID000075">
	<polygon class="st5" points="484.4,304.3 486.9,306.6 489.5,307.3 492,307.7 497,308.8 492,310 489.5,310.4 486.9,311.1 
		484.4,313.4 	"/>
</g>
<g id="ID000076">
</g>
<g id="ID000077">
	<g transform="translate(815.221,495.997)">
		<g transform="rotate(-0.0)">
			<text transform="matrix(1 0 0 1 -250.5253 -180.3547)" class="st9 st1 st2">G</text>
		</g>
	</g>
</g>
<g id="ID000078">
	<line class="st4" x1="560.6" y1="308.8" x2="550.5" y2="308.8"/>
</g>
<g id="ID000080">
	<g transform="translate(815.221,471.206)">
		<g transform="rotate(-0.0)">
			<text transform="matrix(1 0 0 1 -250.1015 -170.6652)" class="st9 st1 st2">C</text>
		</g>
	</g>
</g>
<g id="ID000081">
	<g transform="translate(883.397,452.613)">
		<g transform="rotate(-0.0)">
			<text transform="matrix(1 0 0 1 -276.3302 -163.3974)" class="st3 st1 st2">A</text>
		</g>
	</g>
</g>
<g id="ID000082">
	<g transform="translate(864.804,471.206)">
		<g transform="rotate(-0.0)">
			<text transform="matrix(1 0 0 1 -269.9062 -170.6652)" class="st9 st1 st2">G</text>
		</g>
	</g>
</g>
<g id="ID000083">
	<g transform="translate(864.804,495.997)">
		<g transform="rotate(-0.0)">
			<text transform="matrix(1 0 0 1 -269.4824 -180.3547)" class="st9 st1 st2">C</text>
		</g>
	</g>
</g>
<g id="ID000084">
	<g transform="translate(877.199,514.591)">
		<g transform="rotate(-0.0)">
			<text transform="matrix(1 0 0 1 -274.3266 -187.6245)" class="st3 st1 st2">C</text>
		</g>
	</g>
</g>
<g id="ID000085">
	<line class="st4" x1="576.7" y1="308.8" x2="594.8" y2="308.8"/>
</g>
<g id="ID000086">
	<line class="st4" x1="576.7" y1="293.7" x2="594.8" y2="293.7"/>
</g>
<g id="ID000087">
</g>
<g id="ID000088">
	<g transform="translate(815.221,440.217)">
		<g transform="rotate(-0.0)">
			<text transform="matrix(1 0 0 1 -249.6816 -158.5512)" class="st10 st1 st2">A</text>
		</g>
	</g>
</g>
<g id="ID000089">
	<g transform="translate(815.221,415.426)">
		<g transform="rotate(-0.0)">
			<text transform="matrix(1 0 0 1 -250.5253 -148.8618)" class="st10 st1 st2">G</text>
		</g>
	</g>
</g>
<g id="ID000090">
	<g transform="translate(815.221,390.634)">
		<g transform="rotate(-0.0)">
			<text transform="matrix(1 0 0 1 -249.6816 -139.1704)" class="st3 st1 st2">A</text>
		</g>
	</g>
</g>
<g id="ID000091">
	<g transform="translate(815.221,372.041)">
		<g transform="rotate(-0.0)">
			<text transform="matrix(1 0 0 1 -249.6816 -131.9026)" class="st3 st1 st2">A</text>
		</g>
	</g>
</g>
<g id="ID000092">
	<g transform="translate(815.221,347.250)">
		<g transform="rotate(-0.0)">
			<text transform="matrix(1 0 0 1 -249.6816 -122.2131)" class="st3 st1 st2">A</text>
		</g>
	</g>
</g>
<g id="ID000093">
	<g transform="translate(815.221,322.458)">
		<g transform="rotate(-0.0)">
			<text transform="matrix(1 0 0 1 -249.6816 -112.5217)" class="st3 st1 st2">A</text>
		</g>
	</g>
</g>
<g id="ID000094">
	<g transform="translate(864.804,341.052)">
		<g transform="rotate(-0.0)">
			<text transform="matrix(1 0 0 1 -269.4824 -119.7905)" class="st3 st1 st2">U</text>
		</g>
	</g>
</g>
<g id="ID000095">
	<g transform="translate(864.804,365.843)">
		<g transform="rotate(-0.0)">
			<text transform="matrix(1 0 0 1 -269.4824 -129.479)" class="st3 st1 st2">U</text>
		</g>
	</g>
</g>
<g id="ID000096">
	<g transform="translate(864.804,390.634)">
		<g transform="rotate(-0.0)">
			<text transform="matrix(1 0 0 1 -269.9062 -139.1704)" class="st3 st1 st2">G</text>
		</g>
	</g>
</g>
<g id="ID000097">
	<g transform="translate(864.804,415.426)">
		<g transform="rotate(-0.0)">
			<text transform="matrix(1 0 0 1 -269.4824 -148.8618)" class="st10 st1 st2">C</text>
		</g>
	</g>
</g>
<g id="ID000098">
	<line class="st4" x1="610.9" y1="259.8" x2="621" y2="259.8"/>
</g>
<g id="ID000099">
	<g transform="translate(897.859,415.426)">
		<g transform="rotate(-0.0)">
			<text transform="matrix(1 0 0 1 -276.9026 -148.8618)" class="st1 st2">50</text>
		</g>
	</g>
</g>
<g id="ID000100">
	<g transform="translate(864.804,440.217)">
		<g transform="rotate(-0.0)">
			<text transform="matrix(1 0 0 1 -269.4824 -158.5512)" class="st10 st1 st2">U</text>
		</g>
	</g>
</g>
<g id="ID000101">
	<line class="st4" x1="576.7" y1="274.9" x2="594.8" y2="274.9"/>
</g>
<g id="ID000102">
	<line class="st4" x1="576.7" y1="259.8" x2="594.8" y2="259.8"/>
</g>
<g id="ID000103">
	<line class="st8" x1="600.8" y1="122.4" x2="600.8" y2="208.4"/>
</g>
<g id="ID000104">
	<polygon class="st5" points="605.3,160.4 603.1,162.9 602.3,165.4 602,167.9 600.8,172.9 599.7,167.9 599.3,165.4 598.6,162.9 
		596.3,160.4 	"/>
</g>
<g id="ID000105">
</g>
<g id="ID000106">
	<g transform="translate(815.221,297.667)">
		<g transform="rotate(-0.0)">
			<text transform="matrix(1 0 0 1 -249.6816 -102.8313)" class="st3 st1 st2">A</text>
		</g>
	</g>
</g>
<g id="ID000107">
	<g transform="translate(815.221,272.876)">
		<g transform="rotate(-0.0)">
			<text transform="matrix(1 0 0 1 -250.1015 -93.1389)" class="st3 st1 st2">U</text>
		</g>
	</g>
</g>
<g id="ID000108">
	<g transform="translate(815.221,248.084)">
		<g transform="rotate(-0.0)">
			<text transform="matrix(1 0 0 1 -249.6816 -83.4495)" class="st3 st1 st2">A</text>
		</g>
	</g>
</g>
<g id="ID000111">
	<g transform="translate(815.221,229.491)">
		<g transform="rotate(-0.0)">
			<text transform="matrix(1 0 0 1 -249.6816 -76.1817)" class="st3 st1 st2">A</text>
		</g>
	</g>
</g>
<g id="ID000112">
	<g transform="translate(790.430,229.491)">
		<g transform="rotate(-0.0)">
			<text transform="matrix(1 0 0 1 -239.9883 -76.1817)" class="st10 st1 st2">A</text>
		</g>
	</g>
</g>
<g id="ID000113">
	<g transform="translate(765.639,229.491)">
		<g transform="rotate(-0.0)">
			<text transform="matrix(1 0 0 1 -231.1425 -76.1817)" class="st10 st1 st2">G</text>
		</g>
	</g>
</g>
<g id="ID000114">
	<g transform="translate(740.847,229.491)">
		<g transform="rotate(-0.0)">
			<text transform="matrix(1 0 0 1 -221.0293 -76.1817)" class="st10 st1 st2">U</text>
		</g>
	</g>
</g>
<g id="ID000115">
	<g transform="translate(716.056,229.491)">
		<g transform="rotate(-0.0)">
			<text transform="matrix(1 0 0 1 -211.7617 -76.1817)" class="st10 st1 st2">G</text>
		</g>
	</g>
</g>
<g id="ID000116">
	<g transform="translate(691.265,229.491)">
		<g transform="rotate(-0.0)">
			<text transform="matrix(1 0 0 1 -201.6494 -76.1817)" class="st3 st1 st2">U</text>
		</g>
	</g>
</g>
<g id="ID000117">
	<g transform="translate(666.473,217.095)">
		<g transform="rotate(-0.0)">
			<text transform="matrix(1 0 0 1 -192.3809 -71.3365)" class="st3 st1 st2">G</text>
		</g>
	</g>
</g>
<g id="ID000118">
	<g transform="translate(666.473,192.304)">
		<g transform="rotate(-0.0)">
			<text transform="matrix(1 0 0 1 -191.957 -61.6451)" class="st3 st1 st2">U</text>
		</g>
	</g>
</g>
<g id="ID000119">
	<g transform="translate(691.265,179.908)">
		<g transform="rotate(-0.0)">
			<text transform="matrix(1 0 0 1 -201.2285 -56.8008)" class="st3 st1 st2">A</text>
		</g>
	</g>
</g>
<g id="ID000120">
	<g transform="translate(716.056,179.908)">
		<g transform="rotate(-0.0)">
			<text transform="matrix(1 0 0 1 -211.3369 -56.8008)" class="st10 st1 st2">C</text>
		</g>
	</g>
</g>
<g id="ID000121">
	<line class="st4" x1="510.2" y1="106.2" x2="510.2" y2="96.2"/>
</g>
<g id="ID000122">
	<g transform="translate(716.056,129.499)">
		<g transform="rotate(-0.0)">
			<text transform="matrix(1 0 0 1 -214.3096 -37.0979)" class="st1 st2">40</text>
		</g>
	</g>
</g>
<g id="ID000123">
	<g transform="translate(740.847,179.908)">
		<g transform="rotate(-0.0)">
			<text transform="matrix(1 0 0 1 -220.6084 -56.8008)" class="st10 st1 st2">A</text>
		</g>
	</g>
</g>
<g id="ID000124">
	<g transform="translate(765.639,179.908)">
		<g transform="rotate(-0.0)">
			<text transform="matrix(1 0 0 1 -230.7187 -56.8008)" class="st10 st1 st2">C</text>
		</g>
	</g>
</g>
<g id="ID000125">
	<g transform="translate(790.430,179.908)">
		<g transform="rotate(-0.0)">
			<text transform="matrix(1 0 0 1 -240.4111 -56.8008)" class="st10 st1 st2">U</text>
		</g>
	</g>
</g>
<g id="ID000126">
	<g transform="translate(815.221,161.315)">
		<g transform="rotate(-0.0)">
			<text transform="matrix(1 0 0 1 -249.6816 -49.533)" class="st3 st1 st2">A</text>
		</g>
	</g>
</g>
<g id="ID000127">
	<g transform="translate(840.013,179.908)">
		<g transform="rotate(-0.0)">
			<text transform="matrix(1 0 0 1 -259.3691 -56.8008)" class="st3 st1 st2">A</text>
		</g>
	</g>
</g>
<g id="ID000128">
	<g transform="translate(864.804,179.908)">
		<g transform="rotate(-0.0)">
			<text transform="matrix(1 0 0 1 -269.0625 -56.8008)" class="st3 st1 st2">A</text>
		</g>
	</g>
</g>
<g id="ID000129">
	<line class="st4" x1="555.5" y1="140.5" x2="555.5" y2="122.4"/>
</g>
<g id="ID000130">
	<line class="st4" x1="540.4" y1="140.5" x2="540.4" y2="122.4"/>
</g>
<g id="ID000131">
	<line class="st4" x1="525.3" y1="140.5" x2="525.3" y2="122.4"/>
</g>
<g id="ID000132">
	<line class="st4" x1="510.2" y1="140.5" x2="510.2" y2="122.4"/>
</g>
<g id="ID000133">
</g>
<g id="ID000134">
	<g transform="translate(895.793,495.997)">
		<g transform="rotate(-0.0)">
			<text transform="matrix(1 0 0 1 -281.5945 -180.3547)" class="st3 st1 st2">C</text>
		</g>
	</g>
</g>
<g id="ID000135">
	<g transform="translate(920.584,495.997)">
		<g transform="rotate(-0.0)">
			<text transform="matrix(1 0 0 1 -291.2858 -180.3547)" class="st11 st1 st2">C</text>
		</g>
	</g>
</g>
<g id="ID000136">
	<g transform="translate(945.376,495.997)">
		<g transform="rotate(-0.0)">
			<text transform="matrix(1 0 0 1 -300.9772 -180.3547)" class="st11 st1 st2">C</text>
		</g>
	</g>
</g>
<g id="ID000137">
	<g transform="translate(970.167,495.997)">
		<g transform="rotate(-0.0)">
			<text transform="matrix(1 0 0 1 -311.0915 -180.3547)" class="st3 st1 st2">G</text>
		</g>
	</g>
</g>
<g id="ID000138">
	<g transform="translate(994.958,495.997)">
		<g transform="rotate(-0.0)">
			<text transform="matrix(1 0 0 1 -320.779 -180.3547)" class="st3 st1 st2">G</text>
		</g>
	</g>
</g>
<g id="ID000139">
	<line class="st4" x1="680.1" y1="298.8" x2="680.1" y2="288.7"/>
</g>
<g id="ID000140">
	<g transform="translate(994.958,445.588)">
		<g transform="rotate(-0.0)">
			<text transform="matrix(1 0 0 1 -323.3268 -160.6508)" class="st1 st2">60</text>
		</g>
	</g>
</g>
<g id="ID000141">
	<g transform="translate(1019.750,495.997)">
		<g transform="rotate(-0.0)">
			<text transform="matrix(1 0 0 1 -329.6266 -180.3547)" class="st3 st1 st2">A</text>
		</g>
	</g>
</g>
<g id="ID000142">
	<g transform="translate(1044.541,502.195)">
		<g transform="rotate(-0.0)">
			<text transform="matrix(1 0 0 1 -339.318 -182.7783)" class="st3 st1 st2">A</text>
		</g>
	</g>
</g>
<g id="ID000143">
	<g transform="translate(1044.541,533.184)">
		<g transform="rotate(-0.0)">
			<text transform="matrix(1 0 0 1 -339.318 -194.8903)" class="st3 st1 st2">A</text>
		</g>
	</g>
</g>
<g id="ID000144">
	<g transform="translate(1019.750,545.580)">
		<g transform="rotate(-0.0)">
			<text transform="matrix(1 0 0 1 -330.4713 -199.7365)" class="st3 st1 st2">G</text>
		</g>
	</g>
</g>
<g id="ID000145">
	<g transform="translate(994.958,545.580)">
		<g transform="rotate(-0.0)">
			<text transform="matrix(1 0 0 1 -319.9362 -199.7365)" class="st3 st1 st2">A</text>
		</g>
	</g>
</g>
<g id="ID000146">
	<g transform="translate(970.167,545.580)">
		<g transform="rotate(-0.0)">
			<text transform="matrix(1 0 0 1 -310.2458 -199.7365)" class="st3 st1 st2">A</text>
		</g>
	</g>
</g>
<g id="ID000147">
	<g transform="translate(945.376,545.580)">
		<g transform="rotate(-0.0)">
			<text transform="matrix(1 0 0 1 -301.3991 -199.7365)" class="st11 st1 st2">G</text>
		</g>
	</g>
</g>
<g id="ID000148">
	<g transform="translate(920.584,545.580)">
		<g transform="rotate(-0.0)">
			<text transform="matrix(1 0 0 1 -291.7096 -199.7365)" class="st11 st1 st2">G</text>
		</g>
	</g>
</g>
<g id="ID000149">
	<g transform="translate(895.793,545.580)">
		<g transform="rotate(-0.0)">
			<text transform="matrix(1 0 0 1 -281.5945 -199.7365)" class="st3 st1 st2">U</text>
		</g>
	</g>
</g>
<g id="ID000150">
	<g transform="translate(871.002,545.580)">
		<g transform="rotate(-0.0)">
			<text transform="matrix(1 0 0 1 -271.904 -199.7365)" class="st3 st1 st2">C</text>
		</g>
	</g>
</g>
<g id="ID000151">
	<line class="st4" x1="604.6" y1="349.1" x2="604.6" y2="359.2"/>
</g>
<g id="ID000152">
	<g transform="translate(871.002,596.733)">
		<g transform="rotate(-0.0)">
			<text transform="matrix(1 0 0 1 -274.8757 -219.7313)" class="st1 st2">70</text>
		</g>
	</g>
</g>
<g id="ID000153">
	<g transform="translate(846.210,545.580)">
		<g transform="rotate(-0.0)">
			<text transform="matrix(1 0 0 1 -261.7927 -199.7365)" class="st3 st1 st2">A</text>
		</g>
	</g>
</g>
<g id="ID000154">
	<g transform="translate(821.419,545.580)">
		<g transform="rotate(-0.0)">
			<text transform="matrix(1 0 0 1 -252.1052 -199.7365)" class="st3 st1 st2">A</text>
		</g>
	</g>
</g>
<g id="ID000155">
	<g transform="translate(796.628,545.580)">
		<g transform="rotate(-0.0)">
			<text transform="matrix(1 0 0 1 -242.8327 -199.7365)" class="st3 st1 st2">C</text>
		</g>
	</g>
</g>
<g id="ID000156">
	<g transform="translate(771.836,545.580)">
		<g transform="rotate(-0.0)">
			<text transform="matrix(1 0 0 1 -232.7234 -199.7365)" class="st3 st1 st2">A</text>
		</g>
	</g>
</g>
<g id="ID000157">
	<g transform="translate(747.045,545.580)">
		<g transform="rotate(-0.0)">
			<text transform="matrix(1 0 0 1 -223.032 -199.7365)" class="st3 st1 st2">A</text>
		</g>
	</g>
</g>
<g id="ID000158">
	<line class="st4" x1="634.8" y1="314.9" x2="634.8" y2="333"/>
</g>
<g id="ID000159">
	<line class="st4" x1="649.9" y1="314.9" x2="649.9" y2="333"/>
</g>
<g id="ID000160">
</g>
<text transform="matrix(1 0 0 1 112.8484 314.8997)" class="st1 st12">5’</text>
<text transform="matrix(1 0 0 1 78.8398 345.946)" class="st1 st12">3’</text>
<text transform="matrix(1 0 0 1 25.0209 28.0605)" class="st1 st12">WL-2 Aptamer</text>
</svg>
