<?xml version="1.0" encoding="utf-8"?>
<!-- Generator: Adobe Illustrator 25.2.0, SVG Export Plug-In . SVG Version: 6.00 Build 0)  -->
<svg version="1.1" id="图层_1" xmlns="http://www.w3.org/2000/svg" xmlns:xlink="http://www.w3.org/1999/xlink" x="0px" y="0px"
	 viewBox="0 0 800 400" style="enable-background:new 0 0 800 400;" xml:space="preserve">
<style type="text/css">
	.st0{fill:#B83233;}
	.st1{font-family:'Helvetica';}
	.st2{font-size:16.2826px;}
	.st3{fill:#084595;}
	.st4{fill:none;stroke:#000000;stroke-miterlimit:1.1169;}
	.st5{fill:none;stroke:#000000;stroke-width:1.0052;stroke-miterlimit:1.1169;}
	.st6{stroke:#000000;stroke-width:0.1396;stroke-miterlimit:1.1169;}
	.st7{fill:none;stroke:#000000;stroke-width:0.5;stroke-miterlimit:1.1169;}
	.st8{fill:#F17D07;}
	.st9{font-family:'ArialMT';}
	.st10{font-size:20px;}
</style>
<g id="ID000002">
	<g transform="translate(444.870,163.597)">
		<g transform="rotate(-0.0)">
			<text transform="matrix(1 0 0 1 -157.1429 19.5069)" class="st0 st1 st2">G</text>
		</g>
	</g>
</g>
<g id="ID000003">
	<g transform="translate(414.979,163.597)">
		<g transform="rotate(-0.0)">
			<text transform="matrix(1 0 0 1 -143.4746 19.5069)" class="st0 st1 st2">G</text>
		</g>
	</g>
</g>
<g id="ID000004">
	<g transform="translate(392.561,245.796)">
		<g transform="rotate(-0.0)">
			<text transform="matrix(1 0 0 1 -132.3222 -18.0788)" class="st0 st1 st2">A</text>
		</g>
	</g>
</g>
<g id="ID000005">
	<g transform="translate(414.979,223.378)">
		<g transform="rotate(-0.0)">
			<text transform="matrix(1 0 0 1 -143.0215 -7.8268)" class="st0 st1 st2">C</text>
		</g>
	</g>
</g>
<g id="ID000006">
	<g transform="translate(444.870,223.378)">
		<g transform="rotate(-0.0)">
			<text transform="matrix(1 0 0 1 -156.6888 -7.8268)" class="st0 st1 st2">C</text>
		</g>
	</g>
</g>
<g id="ID000007">
	<g transform="translate(474.760,223.378)">
		<g transform="rotate(-0.0)">
			<text transform="matrix(1 0 0 1 -170.8103 -7.8268)" class="st3 st1 st2">G</text>
		</g>
	</g>
</g>
<g id="ID000008">
	<g transform="translate(504.650,223.378)">
		<g transform="rotate(-0.0)">
			<text transform="matrix(1 0 0 1 -184.0235 -7.8268)" class="st3 st1 st2">U</text>
		</g>
	</g>
</g>
<g id="ID000009">
	<line class="st4" x1="294.1" y1="182.3" x2="294.1" y2="201.8"/>
</g>
<g id="ID000010">
	<line class="st5" x1="271.3" y1="175.8" x2="255.9" y2="175.8"/>
</g>
<g id="ID000011">
	<polygon class="st6" points="269,180.7 266.3,178.2 263.6,177.4 260.9,177 255.5,175.8 260.9,174.6 263.6,174.2 266.3,173.4 
		269,170.9 	"/>
</g>
<g id="ID000012">
	<line class="st4" x1="277.8" y1="182.3" x2="277.8" y2="201.8"/>
</g>
<g id="ID000014">
	<g transform="translate(362.671,163.597)">
		<g transform="rotate(-0.0)">
			<text transform="matrix(1 0 0 1 -119.5572 19.5069)" class="st0 st1 st2">G</text>
		</g>
	</g>
</g>
<g id="ID000015">
	<g transform="translate(332.780,163.597)">
		<g transform="rotate(-0.0)">
			<text transform="matrix(1 0 0 1 -104.9865 19.5069)" class="st0 st1 st2">A</text>
		</g>
	</g>
</g>
<g id="ID000016">
	<g transform="translate(302.890,163.597)">
		<g transform="rotate(-0.0)">
			<text transform="matrix(1 0 0 1 -92.2225 19.5069)" class="st0 st1 st2">G</text>
		</g>
	</g>
</g>
<g id="ID000017">
	<g transform="translate(280.472,141.180)">
		<g transform="rotate(-0.0)">
			<text transform="matrix(1 0 0 1 -81.9725 29.756)" class="st0 st1 st2">G</text>
		</g>
	</g>
</g>
<g id="ID000018">
	<g transform="translate(250.582,126.234)">
		<g transform="rotate(-0.0)">
			<text transform="matrix(1 0 0 1 -67.4028 36.5906)" class="st0 st1 st2">A</text>
		</g>
	</g>
</g>
<g id="ID000019">
	<g transform="translate(265.527,245.796)">
		<g transform="rotate(-0.0)">
			<text transform="matrix(1 0 0 1 -74.2355 -18.0788)" class="st0 st1 st2">A</text>
		</g>
	</g>
</g>
<g id="ID000020">
	<line class="st7" x1="196.7" y1="231.2" x2="196.7" y2="242"/>
</g>
<g id="ID000021">
	<g transform="translate(265.527,307.470)">
		<g transform="rotate(-0.0)">
			<text transform="matrix(1 0 0 1 -77.8615 -46.2782)" class="st1 st2">20</text>
		</g>
	</g>
</g>
<g id="ID000022">
	<g transform="translate(302.890,223.378)">
		<g transform="rotate(-0.0)">
			<text transform="matrix(1 0 0 1 -91.7694 -7.8268)" class="st0 st1 st2">C</text>
		</g>
	</g>
</g>
<g id="ID000023">
	<g transform="translate(332.780,223.378)">
		<g transform="rotate(-0.0)">
			<text transform="matrix(1 0 0 1 -105.4367 -7.8268)" class="st0 st1 st2">U</text>
		</g>
	</g>
</g>
<g id="ID000024">
	<g transform="translate(362.671,223.378)">
		<g transform="rotate(-0.0)">
			<text transform="matrix(1 0 0 1 -119.1041 -7.8268)" class="st0 st1 st2">C</text>
		</g>
	</g>
</g>
<g id="ID000025">
	<line class="st4" x1="249.4" y1="182.3" x2="249.4" y2="201.8"/>
</g>
<g id="ID000026">
	<line class="st4" x1="233.2" y1="182.3" x2="233.2" y2="201.8"/>
</g>
<g id="ID000027">
	<line class="st4" x1="217" y1="182.3" x2="217" y2="201.8"/>
</g>
<g id="ID000029">
	<g transform="translate(220.691,141.180)">
		<g transform="rotate(-0.0)">
			<text transform="matrix(1 0 0 1 -54.1846 29.756)" class="st0 st1 st2">C</text>
		</g>
	</g>
</g>
<g id="ID000030">
	<g transform="translate(190.801,163.597)">
		<g transform="rotate(-0.0)">
			<text transform="matrix(1 0 0 1 -40.9704 19.5069)" class="st0 st1 st2">G</text>
		</g>
	</g>
</g>
<g id="ID000031">
	<g transform="translate(160.910,163.597)">
		<g transform="rotate(-0.0)">
			<text transform="matrix(1 0 0 1 -26.4007 19.5069)" class="st0 st1 st2">A</text>
		</g>
	</g>
</g>
<g id="ID000032">
	<line class="st7" x1="139.9" y1="165" x2="139.9" y2="154.2"/>
</g>
<g id="ID000033">
	<g transform="translate(160.910,102.820)">
		<g transform="rotate(-0.0)">
			<text transform="matrix(1 0 0 1 -30.0257 47.2956)" class="st1 st2">10</text>
		</g>
	</g>
</g>
<g id="ID000034">
	<g transform="translate(131.020,163.597)">
		<g transform="rotate(-0.0)">
			<text transform="matrix(1 0 0 1 -13.1826 19.5069)" class="st0 st1 st2">U</text>
		</g>
	</g>
</g>
<g id="ID000035">
	<g transform="translate(101.129,163.597)">
		<g transform="rotate(-0.0)">
			<text transform="matrix(1 0 0 1 3.164653e-02 19.5069)" class="st0 st1 st2">G</text>
		</g>
	</g>
</g>
<g id="ID000036">
	<g transform="translate(71.239,178.543)">
		<g transform="rotate(-0.0)">
			<text transform="matrix(1 0 0 1 14.1511 12.6722)" class="st0 st1 st2">C</text>
		</g>
	</g>
</g>
<g id="ID000037">
	<g transform="translate(71.239,208.433)">
		<g transform="rotate(-0.0)">
			<text transform="matrix(1 0 0 1 13.699 -0.9951)" class="st0 st1 st2">G</text>
		</g>
	</g>
</g>
<g id="ID000038">
	<g transform="translate(101.129,223.378)">
		<g transform="rotate(-0.0)">
			<text transform="matrix(1 0 0 1 3.164653e-02 -7.8268)" class="st0 st1 st2">G</text>
		</g>
	</g>
</g>
<g id="ID000039">
	<g transform="translate(131.020,223.378)">
		<g transform="rotate(-0.0)">
			<text transform="matrix(1 0 0 1 -12.7334 -7.8268)" class="st0 st1 st2">A</text>
		</g>
	</g>
</g>
<g id="ID000040">
	<g transform="translate(160.910,223.378)">
		<g transform="rotate(-0.0)">
			<text transform="matrix(1 0 0 1 -26.8499 -7.8268)" class="st0 st1 st2">U</text>
		</g>
	</g>
</g>
<g id="ID000041">
	<g transform="translate(190.801,223.378)">
		<g transform="rotate(-0.0)">
			<text transform="matrix(1 0 0 1 -40.5173 -7.8268)" class="st0 st1 st2">C</text>
		</g>
	</g>
</g>
<g id="ID000042">
	<g transform="translate(228.164,245.796)">
		<g transform="rotate(-0.0)">
			<text transform="matrix(1 0 0 1 -57.1518 -18.0788)" class="st0 st1 st2">A</text>
		</g>
	</g>
</g>
<g id="ID000043">
	<line class="st4" x1="156.2" y1="182.3" x2="156.2" y2="201.8"/>
</g>
<g id="ID000044">
	<line class="st4" x1="139.9" y1="182.3" x2="139.9" y2="201.8"/>
</g>
<g id="ID000045">
	<line class="st4" x1="123.7" y1="182.3" x2="123.7" y2="201.8"/>
</g>
<g id="ID000047">
	<g transform="translate(534.541,223.378)">
		<g transform="rotate(-0.0)">
			<text transform="matrix(1 0 0 1 -197.2417 -7.8268)" class="st3 st1 st2">A</text>
		</g>
	</g>
</g>
<g id="ID000048">
	<g transform="translate(564.431,223.378)">
		<g transform="rotate(-0.0)">
			<text transform="matrix(1 0 0 1 -211.8114 -7.8268)" class="st3 st1 st2">G</text>
		</g>
	</g>
</g>
<g id="ID000049">
	<line class="st7" x1="359" y1="219.1" x2="359" y2="229.9"/>
</g>
<g id="ID000050">
	<g transform="translate(564.431,285.052)">
		<g transform="rotate(-0.0)">
			<text transform="matrix(1 0 0 1 -214.5341 -36.0282)" class="st1 st2">30</text>
		</g>
	</g>
</g>
<g id="ID000051">
	<g transform="translate(594.322,223.378)">
		<g transform="rotate(-0.0)">
			<text transform="matrix(1 0 0 1 -225.4788 -7.8268)" class="st3 st1 st2">G</text>
		</g>
	</g>
</g>
<g id="ID000052">
	<g transform="translate(624.212,223.378)">
		<g transform="rotate(-0.0)">
			<text transform="matrix(1 0 0 1 -238.692 -7.8268)" class="st3 st1 st2">U</text>
		</g>
	</g>
</g>
<g id="ID000053">
	<g transform="translate(654.103,223.378)">
		<g transform="rotate(-0.0)">
			<text transform="matrix(1 0 0 1 -252.3604 -7.8268)" class="st3 st1 st2">C</text>
		</g>
	</g>
</g>
<g id="ID000054">
	<g transform="translate(683.993,223.378)">
		<g transform="rotate(-0.0)">
			<text transform="matrix(1 0 0 1 -266.0276 -7.8268)" class="st3 st1 st2">U</text>
		</g>
	</g>
</g>
<g id="ID000055">
	<g transform="translate(706.411,141.180)">
		<g transform="rotate(-0.0)">
			<text transform="matrix(1 0 0 1 -275.8285 29.756)" class="st3 st1 st2">A</text>
		</g>
	</g>
</g>
<g id="ID000056">
	<line class="st7" x1="436" y1="152.8" x2="436" y2="142"/>
</g>
<g id="ID000057">
	<g transform="translate(706.411,80.402)">
		<g transform="rotate(-0.0)">
			<text transform="matrix(1 0 0 1 -279.4535 57.5471)" class="st1 st2">70</text>
		</g>
	</g>
</g>
<g id="ID000058">
	<g transform="translate(683.993,163.597)">
		<g transform="rotate(-0.0)">
			<text transform="matrix(1 0 0 1 -266.4798 19.5069)" class="st3 st1 st2">G</text>
		</g>
	</g>
</g>
<g id="ID000059">
	<g transform="translate(654.103,163.597)">
		<g transform="rotate(-0.0)">
			<text transform="matrix(1 0 0 1 -252.8135 19.5069)" class="st3 st1 st2">G</text>
		</g>
	</g>
</g>
<g id="ID000060">
	<g transform="translate(624.212,163.597)">
		<g transform="rotate(-0.0)">
			<text transform="matrix(1 0 0 1 -238.2427 19.5069)" class="st3 st1 st2">A</text>
		</g>
	</g>
</g>
<g id="ID000061">
	<g transform="translate(594.322,163.597)">
		<g transform="rotate(-0.0)">
			<text transform="matrix(1 0 0 1 -225.0247 19.5069)" class="st3 st1 st2">U</text>
		</g>
	</g>
</g>
<g id="ID000062">
	<g transform="translate(564.431,163.597)">
		<g transform="rotate(-0.0)">
			<text transform="matrix(1 0 0 1 -211.3583 19.5069)" class="st3 st1 st2">C</text>
		</g>
	</g>
</g>
<g id="ID000063">
	<g transform="translate(534.541,163.597)">
		<g transform="rotate(-0.0)">
			<text transform="matrix(1 0 0 1 -197.6909 19.5069)" class="st3 st1 st2">C</text>
		</g>
	</g>
</g>
<g id="ID000064">
	<line class="st4" x1="359" y1="201.8" x2="359" y2="182.3"/>
</g>
<g id="ID000065">
	<polygon class="st6" points="375.2,188.8 375,188.8 374.8,188.8 374.6,188.8 374.4,188.9 374.2,188.9 374,189 373.8,189.1 
		373.6,189.2 373.4,189.3 373.3,189.4 373.1,189.5 372.9,189.7 372.8,189.8 372.7,190 372.5,190.1 372.4,190.3 372.3,190.5 
		372.2,190.7 372.1,190.9 372.1,191.1 372,191.3 372,191.5 372,191.7 371.9,191.9 371.9,192.1 371.9,192.3 372,192.5 372,192.7 
		372,192.9 372.1,193.1 372.2,193.3 372.3,193.5 372.4,193.6 372.5,193.8 372.6,194 372.7,194.2 372.9,194.3 373,194.4 373.2,194.6 
		373.3,194.7 373.5,194.8 373.7,194.9 373.9,195 374.1,195.1 374.3,195.1 374.5,195.2 374.7,195.2 374.9,195.3 375.1,195.3 
		375.3,195.3 375.5,195.3 375.7,195.2 375.9,195.2 376.1,195.1 376.3,195.1 376.5,195 376.7,194.9 376.8,194.8 377,194.7 
		377.2,194.6 377.3,194.4 377.5,194.3 377.6,194.2 377.8,194 377.9,193.8 378,193.6 378.1,193.5 378.2,193.3 378.2,193.1 
		378.3,192.9 378.4,192.7 378.4,192.5 378.4,192.3 378.4,192.1 378.4,191.9 378.4,191.7 378.4,191.5 378.3,191.3 378.3,191.1 
		378.2,190.9 378.1,190.7 378,190.5 377.9,190.3 377.8,190.1 377.7,190 377.6,189.8 377.4,189.7 377.3,189.5 377.1,189.4 
		376.9,189.3 376.8,189.2 376.6,189.1 376.4,189 376.2,188.9 376,188.9 375.8,188.8 375.6,188.8 375.4,188.8 	"/>
</g>
<g id="ID000066">
	<line class="st4" x1="391.4" y1="201.8" x2="391.4" y2="182.3"/>
</g>
<g id="ID000067">
	<line class="st4" x1="407.6" y1="201.8" x2="407.6" y2="182.3"/>
</g>
<g id="ID000068">
	<line class="st5" x1="430.3" y1="208.2" x2="453.9" y2="208.2"/>
</g>
<g id="ID000069">
	<polygon class="st6" points="436.7,203.4 439.4,205.8 442.1,206.6 444.8,207 450.2,208.2 444.8,209.5 442.1,209.9 439.4,210.7 
		436.7,213.1 	"/>
</g>
<g id="ID000070">
	<polygon class="st6" points="423.8,188.8 423.6,188.8 423.4,188.8 423.2,188.8 423,188.9 422.8,188.9 422.6,189 422.5,189.1 
		422.3,189.2 422.1,189.3 421.9,189.4 421.8,189.5 421.6,189.7 421.5,189.8 421.3,190 421.2,190.1 421.1,190.3 421,190.5 
		420.9,190.7 420.8,190.9 420.7,191.1 420.7,191.3 420.7,191.5 420.6,191.7 420.6,191.9 420.6,192.1 420.6,192.3 420.6,192.5 
		420.7,192.7 420.7,192.9 420.8,193.1 420.9,193.3 420.9,193.5 421,193.6 421.1,193.8 421.3,194 421.4,194.2 421.5,194.3 
		421.7,194.4 421.8,194.6 422,194.7 422.2,194.8 422.4,194.9 422.5,195 422.7,195.1 422.9,195.1 423.1,195.2 423.3,195.2 
		423.5,195.3 423.7,195.3 423.9,195.3 424.2,195.3 424.4,195.2 424.6,195.2 424.8,195.1 425,195.1 425.1,195 425.3,194.9 
		425.5,194.8 425.7,194.7 425.9,194.6 426,194.4 426.2,194.3 426.3,194.2 426.4,194 426.5,193.8 426.7,193.6 426.8,193.5 
		426.8,193.3 426.9,193.1 427,192.9 427,192.7 427.1,192.5 427.1,192.3 427.1,192.1 427.1,191.9 427.1,191.7 427,191.5 427,191.3 
		426.9,191.1 426.9,190.9 426.8,190.7 426.7,190.5 426.6,190.3 426.5,190.1 426.4,190 426.2,189.8 426.1,189.7 425.9,189.5 
		425.8,189.4 425.6,189.3 425.4,189.2 425.2,189.1 425.1,189 424.9,188.9 424.7,188.9 424.5,188.8 424.3,188.8 424.1,188.8 	"/>
</g>
<g id="ID000072">
	<g transform="translate(751.247,223.378)">
		<g transform="rotate(-0.0)">
			<text transform="matrix(1 0 0 1 -296.3295 -7.8268)" class="st3 st1 st2">A</text>
		</g>
	</g>
</g>
<g id="ID000073">
	<g transform="translate(781.137,223.378)">
		<g transform="rotate(-0.0)">
			<text transform="matrix(1 0 0 1 -310.8992 -7.8268)" class="st3 st1 st2">G</text>
		</g>
	</g>
</g>
<g id="ID000074">
	<g transform="translate(811.028,223.378)">
		<g transform="rotate(-0.0)">
			<text transform="matrix(1 0 0 1 -324.1125 -7.8268)" class="st3 st1 st2">U</text>
		</g>
	</g>
</g>
<g id="ID000075">
	<g transform="translate(840.918,223.378)">
		<g transform="rotate(-0.0)">
			<text transform="matrix(1 0 0 1 -338.2349 -7.8268)" class="st3 st1 st2">G</text>
		</g>
	</g>
</g>
<g id="ID000076">
	<g transform="translate(870.809,223.378)">
		<g transform="rotate(-0.0)">
			<text transform="matrix(1 0 0 1 -350.998 -7.8268)" class="st3 st1 st2">A</text>
		</g>
	</g>
</g>
<g id="ID000077">
	<g transform="translate(900.699,223.378)">
		<g transform="rotate(-0.0)">
			<text transform="matrix(1 0 0 1 -365.5676 -7.8268)" class="st3 st1 st2">G</text>
		</g>
	</g>
</g>
<g id="ID000078">
	<line class="st7" x1="533.8" y1="215.9" x2="526.2" y2="223.5"/>
</g>
<g id="ID000079">
	<g transform="translate(872.518,273.379)">
		<g transform="rotate(-0.0)">
			<text transform="matrix(1 0 0 1 -364.4609 -30.6911)" class="st1 st2">40</text>
		</g>
	</g>
</g>
<g id="ID000080">
	<g transform="translate(893.226,253.269)">
		<g transform="rotate(-0.0)">
			<text transform="matrix(1 0 0 1 -361.2499 -21.4952)" class="st8 st1 st2">A</text>
		</g>
	</g>
</g>
<g id="ID000081">
	<g transform="translate(893.226,283.159)">
		<g transform="rotate(-0.0)">
			<text transform="matrix(1 0 0 1 -361.2499 -35.1625)" class="st8 st1 st2">A</text>
		</g>
	</g>
</g>
<g id="ID000082">
	<g transform="translate(923.117,298.104)">
		<g transform="rotate(-0.0)">
			<text transform="matrix(1 0 0 1 -375.3655 -41.9962)" class="st8 st1 st2">C</text>
		</g>
	</g>
</g>
<g id="ID000083">
	<g transform="translate(900.699,163.597)">
		<g transform="rotate(-0.0)">
			<text transform="matrix(1 0 0 1 -365.1145 19.5069)" class="st3 st1 st2">C</text>
		</g>
	</g>
</g>
<g id="ID000084">
	<g transform="translate(870.809,163.597)">
		<g transform="rotate(-0.0)">
			<text transform="matrix(1 0 0 1 -351.4482 19.5069)" class="st3 st1 st2">U</text>
		</g>
	</g>
</g>
<g id="ID000085">
	<g transform="translate(840.918,163.597)">
		<g transform="rotate(-0.0)">
			<text transform="matrix(1 0 0 1 -337.7789 19.5069)" class="st3 st1 st2">C</text>
		</g>
	</g>
</g>
<g id="ID000086">
	<g transform="translate(811.028,163.597)">
		<g transform="rotate(-0.0)">
			<text transform="matrix(1 0 0 1 -324.5666 19.5069)" class="st3 st1 st2">G</text>
		</g>
	</g>
</g>
<g id="ID000087">
	<g transform="translate(781.137,163.597)">
		<g transform="rotate(-0.0)">
			<text transform="matrix(1 0 0 1 -310.4461 19.5069)" class="st3 st1 st2">C</text>
		</g>
	</g>
</g>
<g id="ID000088">
	<g transform="translate(751.247,163.597)">
		<g transform="rotate(-0.0)">
			<text transform="matrix(1 0 0 1 -296.7778 19.5069)" class="st3 st1 st2">U</text>
		</g>
	</g>
</g>
<g id="ID000089">
	<g transform="translate(728.829,141.180)">
		<g transform="rotate(-0.0)">
			<text transform="matrix(1 0 0 1 -286.9828 29.756)" class="st3 st1 st2">G</text>
		</g>
	</g>
</g>
<g id="ID000090">
	<line class="st4" x1="460.3" y1="201.8" x2="460.3" y2="182.3"/>
</g>
<g id="ID000091">
	<line class="st4" x1="476.6" y1="201.8" x2="476.6" y2="182.3"/>
</g>
<g id="ID000092">
	<polygon class="st6" points="492.8,188.8 492.6,188.8 492.4,188.8 492.2,188.8 492,188.9 491.8,188.9 491.6,189 491.4,189.1 
		491.2,189.2 491,189.3 490.9,189.4 490.7,189.5 490.6,189.7 490.4,189.8 490.3,190 490.2,190.1 490,190.3 489.9,190.5 489.8,190.7 
		489.8,190.9 489.7,191.1 489.6,191.3 489.6,191.5 489.6,191.7 489.6,191.9 489.5,192.1 489.6,192.3 489.6,192.5 489.6,192.7 
		489.7,192.9 489.7,193.1 489.8,193.3 489.9,193.5 490,193.6 490.1,193.8 490.2,194 490.3,194.2 490.5,194.3 490.6,194.4 
		490.8,194.6 491,194.7 491.1,194.8 491.3,194.9 491.5,195 491.7,195.1 491.9,195.1 492.1,195.2 492.3,195.2 492.5,195.3 
		492.7,195.3 492.9,195.3 493.1,195.3 493.3,195.2 493.5,195.2 493.7,195.1 493.9,195.1 494.1,195 494.3,194.9 494.5,194.8 
		494.6,194.7 494.8,194.6 495,194.4 495.1,194.3 495.2,194.2 495.4,194 495.5,193.8 495.6,193.6 495.7,193.5 495.8,193.3 
		495.9,193.1 495.9,192.9 496,192.7 496,192.5 496,192.3 496,192.1 496,191.9 496,191.7 496,191.5 495.9,191.3 495.9,191.1 
		495.8,190.9 495.7,190.7 495.7,190.5 495.6,190.3 495.4,190.1 495.3,190 495.2,189.8 495,189.7 494.9,189.5 494.7,189.4 
		494.5,189.3 494.4,189.2 494.2,189.1 494,189 493.8,188.9 493.6,188.9 493.4,188.8 493.2,188.8 493,188.8 	"/>
</g>
<g id="ID000093">
	<line class="st4" x1="509" y1="201.8" x2="509" y2="182.3"/>
</g>
<g id="ID000094">
	<line class="st4" x1="525.2" y1="201.8" x2="525.2" y2="182.3"/>
</g>
<g id="ID000095">
	<line class="st4" x1="541.5" y1="201.8" x2="541.5" y2="182.3"/>
</g>
<g id="ID000096">
	<line class="st5" x1="575.5" y1="175.8" x2="548" y2="175.8"/>
</g>
<g id="ID000097">
	<polygon class="st6" points="567.2,180.7 564.4,178.2 561.7,177.4 559,177 553.6,175.8 559,174.6 561.7,174.2 564.4,173.4 
		567.2,170.9 	"/>
</g>
<g id="ID000099">
	<g transform="translate(953.007,298.104)">
		<g transform="rotate(-0.0)">
			<text transform="matrix(1 0 0 1 -389.0305 -41.9962)" class="st8 st1 st2">U</text>
		</g>
	</g>
</g>
<g id="ID000100">
	<g transform="translate(982.898,283.159)">
		<g transform="rotate(-0.0)">
			<text transform="matrix(1 0 0 1 -402.7007 -35.1625)" class="st8 st1 st2">U</text>
		</g>
	</g>
</g>
<g id="ID000101">
	<g transform="translate(982.898,253.269)">
		<g transform="rotate(-0.0)">
			<text transform="matrix(1 0 0 1 -402.7007 -21.4952)" class="st8 st1 st2">C</text>
		</g>
	</g>
</g>
<g id="ID000102">
	<g transform="translate(975.425,223.378)">
		<g transform="rotate(-0.0)">
			<text transform="matrix(1 0 0 1 -398.8332 -7.8268)" class="st3 st1 st2">A</text>
		</g>
	</g>
</g>
<g id="ID000103">
	<g transform="translate(1005.316,223.378)">
		<g transform="rotate(-0.0)">
			<text transform="matrix(1 0 0 1 -412.5015 -7.8268)" class="st3 st1 st2">A</text>
		</g>
	</g>
</g>
<g id="ID000104">
	<g transform="translate(1035.206,223.378)">
		<g transform="rotate(-0.0)">
			<text transform="matrix(1 0 0 1 -427.0713 -7.8268)" class="st3 st1 st2">G</text>
		</g>
	</g>
</g>
<g id="ID000105">
	<g transform="translate(1065.097,223.378)">
		<g transform="rotate(-0.0)">
			<text transform="matrix(1 0 0 1 -440.2845 -7.8268)" class="st3 st1 st2">U</text>
		</g>
	</g>
</g>
<g id="ID000106">
	<line class="st7" x1="630.7" y1="219.1" x2="630.7" y2="229.9"/>
</g>
<g id="ID000107">
	<g transform="translate(1065.097,285.052)">
		<g transform="rotate(-0.0)">
			<text transform="matrix(1 0 0 1 -443.4623 -36.0282)" class="st1 st2">50</text>
		</g>
	</g>
</g>
<g id="ID000108">
	<g transform="translate(1094.987,223.378)">
		<g transform="rotate(-0.0)">
			<text transform="matrix(1 0 0 1 -453.9519 -7.8268)" class="st3 st1 st2">C</text>
		</g>
	</g>
</g>
<g id="ID000109">
	<g transform="translate(1124.877,223.378)">
		<g transform="rotate(-0.0)">
			<text transform="matrix(1 0 0 1 -467.6191 -7.8268)" class="st3 st1 st2">U</text>
		</g>
	</g>
</g>
<g id="ID000110">
	<g transform="translate(1154.768,223.378)">
		<g transform="rotate(-0.0)">
			<text transform="matrix(1 0 0 1 -480.8383 -7.8268)" class="st3 st1 st2">A</text>
		</g>
	</g>
</g>
<g id="ID000111">
	<g transform="translate(1184.658,215.906)">
		<g transform="rotate(-0.0)">
			<text transform="matrix(1 0 0 1 -494.9548 -4.4115)" class="st3 st1 st2">C</text>
		</g>
	</g>
</g>
<g id="ID000112">
	<g transform="translate(1184.658,178.543)">
		<g transform="rotate(-0.0)">
			<text transform="matrix(1 0 0 1 -494.9548 12.6722)" class="st3 st1 st2">U</text>
		</g>
	</g>
</g>
<g id="ID000113">
	<g transform="translate(1154.768,163.597)">
		<g transform="rotate(-0.0)">
			<text transform="matrix(1 0 0 1 -481.2855 19.5069)" class="st3 st1 st2">C</text>
		</g>
	</g>
</g>
<g id="ID000114">
	<g transform="translate(1124.877,163.597)">
		<g transform="rotate(-0.0)">
			<text transform="matrix(1 0 0 1 -467.168 19.5069)" class="st3 st1 st2">A</text>
		</g>
	</g>
</g>
<g id="ID000115">
	<g transform="translate(1094.987,163.597)">
		<g transform="rotate(-0.0)">
			<text transform="matrix(1 0 0 1 -454.405 19.5069)" class="st3 st1 st2">G</text>
		</g>
	</g>
</g>
<g id="ID000116">
	<g transform="translate(1065.097,163.597)">
		<g transform="rotate(-0.0)">
			<text transform="matrix(1 0 0 1 -439.8373 19.5069)" class="st3 st1 st2">A</text>
		</g>
	</g>
</g>
<g id="ID000117">
	<g transform="translate(1035.206,163.597)">
		<g transform="rotate(-0.0)">
			<text transform="matrix(1 0 0 1 -426.6182 19.5069)" class="st3 st1 st2">C</text>
		</g>
	</g>
</g>
<g id="ID000118">
	<line class="st7" x1="614.5" y1="165" x2="614.5" y2="154.2"/>
</g>
<g id="ID000119">
	<g transform="translate(1035.206,102.820)">
		<g transform="rotate(-0.0)">
			<text transform="matrix(1 0 0 1 -429.7939 47.2956)" class="st1 st2">60</text>
		</g>
	</g>
</g>
<g id="ID000120">
	<g transform="translate(1005.316,163.597)">
		<g transform="rotate(-0.0)">
			<text transform="matrix(1 0 0 1 -413.4019 19.5069)" class="st3 st1 st2">G</text>
		</g>
	</g>
</g>
<g id="ID000121">
	<g transform="translate(975.425,163.597)">
		<g transform="rotate(-0.0)">
			<text transform="matrix(1 0 0 1 -398.8332 19.5069)" class="st3 st1 st2">A</text>
		</g>
	</g>
</g>
<g id="ID000122">
	<line class="st4" x1="582" y1="201.8" x2="582" y2="182.3"/>
</g>
<g id="ID000123">
	<line class="st4" x1="598.2" y1="201.8" x2="598.2" y2="182.3"/>
</g>
<g id="ID000124">
	<line class="st4" x1="614.5" y1="201.8" x2="614.5" y2="182.3"/>
</g>
<g id="ID000125">
	<line class="st4" x1="630.7" y1="201.8" x2="630.7" y2="182.3"/>
</g>
<g id="ID000126">
	<line class="st4" x1="646.9" y1="201.8" x2="646.9" y2="182.3"/>
</g>
<g id="ID000127">
	<line class="st4" x1="663.1" y1="201.8" x2="663.1" y2="182.3"/>
</g>
<text transform="matrix(1 0 0 1 333.3545 54.9981)" class="st9 st10">WT-15 aptamer</text>
<text transform="matrix(1 0 0 1 289.4854 158.9611)" class="st9 st10">5’</text>
<text transform="matrix(1 0 0 1 338.5411 160.2661)" class="st9 st10">3’</text>
</svg>
