<?xml version="1.0" encoding="utf-8"?>
<!-- Generator: Adobe Illustrator 27.0.0, SVG Export Plug-In . SVG Version: 6.00 Build 0)  -->
<svg version="1.1" id="_图层_1" xmlns="http://www.w3.org/2000/svg" xmlns:xlink="http://www.w3.org/1999/xlink" x="0px" y="0px"
	 viewBox="0 0 800 400" style="enable-background:new 0 0 800 400;" xml:space="preserve">
<style type="text/css">
	.st0{fill:#8527B5;}
	.st1{fill:#FFFFFF;}
	.st2{font-family:'ArialMT';}
	.st3{font-size:12px;}
	.st4{fill:#18988C;}
	.st5{font-size:29.78px;}
	.st6{opacity:0.5;fill:#0A0BFF;enable-background:new    ;}
	.st7{fill:#B83332;}
	.st8{letter-spacing:-5;}
	.st9{fill:none;stroke:#000000;stroke-miterlimit:2.19;}
	.st10{font-size:23.06px;}
	.st11{fill:#C2B617;}
	.st12{fill:#084595;}
	.st13{fill:#2EA103;}
	.st14{fill:none;stroke:#000000;stroke-width:0.75;stroke-miterlimit:2.19;}
	.st15{stroke:#000000;stroke-miterlimit:2.19;}
	.st16{fill:#FFFFFF;stroke:#000000;stroke-miterlimit:2.19;}
	.st17{letter-spacing:-2;}
	.st18{font-size:20px;}
</style>
<rect x="526" y="242.5" transform="matrix(0.2925 -0.9563 0.9563 0.2925 149.6517 713.562)" class="st0" width="62.1" height="26.3"/>
<text transform="matrix(0.284 -0.9588 0.9588 0.284 552.78 284.5105)" class="st1 st2 st3">YO3-biotin</text>
<g id="ID000011">
	<text transform="matrix(1 0 0 1 517.1 304.23)" class="st4 st2 st5">G</text>
</g>
<g id="ID000028">
	<text transform="matrix(1 0 0 1 517.1 228.38)" class="st4 st2 st5">G</text>
</g>
<polygon class="st6" points="488.2,241.7 525.5,224.1 525.5,294.4 488.2,312 "/>
<g id="ID000010">
	<text transform="matrix(1 0 0 1 413.67 304.23)" class="st4 st2 st5">G</text>
</g>
<g id="ID000030">
	<text transform="matrix(1 0 0 1 413.67 228.38)" class="st4 st2 st5">G</text>
</g>
<polygon class="st6" points="384.2,243.5 421.5,225.9 421.5,296.1 384.2,313.8 "/>
<g id="ID000002">
	<text transform="matrix(1 0 0 1 118.22 250.21)" class="st7 st2 st5">G</text>
</g>
<g id="ID000003">
	<text transform="matrix(1 0 0 1 146.68 250.21)" class="st7 st2 st5">C</text>
</g>
<g id="ID000004">
	<text transform="matrix(1 0 0 1 174.26 250.21)" class="st7 st2 st5">U</text>
</g>
<g id="ID000005">
	<text transform="matrix(1 0 0 1 202.71 250.21)" class="st7 st2 st5 st8">A</text>
</g>
<g id="ID000006">
	<text transform="matrix(1 0 0 1 229.43 250.21)" class="st7 st2 st5">C</text>
</g>
<g id="ID000007">
	<text transform="matrix(1 0 0 1 256.13 250.21)" class="st7 st2 st5">G</text>
</g>
<g id="ID000008">
	<text transform="matrix(1 0 0 1 285.46 250.21)" class="st7 st2 st5 st8">A</text>
</g>
<g id="ID000009">
	<text transform="matrix(1 0 0 1 308.24 250.21)" class="st7 st2 st5 st8">A</text>
</g>
<g id="ID000012">
	<line class="st9" x1="603.8" y1="291.8" x2="540.9" y2="291.8"/>
</g>
<g id="ID000013">
	<text transform="matrix(1 0 0 1 605.6 298.96)" class="st2 st10">10</text>
</g>
<g id="ID000014">
	<text transform="matrix(1 0 0 1 553.33 193.9)" class="st11 st2 st5 st8">A</text>
</g>
<g id="ID000015">
	<text transform="matrix(1 0 0 1 463.69 193.9)" class="st12 st2 st5 st8">A</text>
</g>
<g id="ID000016">
	<text transform="matrix(1 0 0 1 372.3 324.92)" class="st4 st2 st5">G</text>
</g>
<g id="ID000017">
	<text transform="matrix(1 0 0 1 475.74 324.92)" class="st4 st2 st5">G</text>
</g>
<g id="ID000018">
	<text transform="matrix(1 0 0 1 553.33 324.92)" class="st13 st2 st5 st8">A</text>
</g>
<g id="ID000019">
	<text transform="matrix(1 0 0 1 476.61 373.19)" class="st11 st2 st5">U</text>
</g>
<g id="ID000020">
	<text transform="matrix(1 0 0 1 373.18 373.19)" class="st13 st2 st5">U</text>
</g>
<g id="ID000021">
	<text transform="matrix(1 0 0 1 372.3 249.07)" class="st4 st2 st5">G</text>
</g>
<g id="ID000022">
	<text transform="matrix(1 0 0 1 475.74 249.07)" class="st4 st2 st5">G</text>
</g>
<g id="ID000023">
	<text transform="matrix(1 0 0 1 476.61 152.53)" class="st12 st2 st5">U</text>
</g>
<g id="ID000024">
	<line class="st9" x1="309.3" y1="140.1" x2="477" y2="140.1"/>
</g>
<g id="ID000025">
	<text transform="matrix(1 0 0 1 284.5 148.08)" class="st2 st10">20</text>
</g>
<g id="ID000026">
	<text transform="matrix(1 0 0 1 498.16 152.53)" class="st12 st2 st5 st8">A</text>
</g>
<g id="ID000027">
	<text transform="matrix(1 0 0 1 573.15 228.38)" class="st13 st2 st5">U</text>
</g>
<g id="ID000029">
	<text transform="matrix(1 0 0 1 462.83 228.38)" class="st12 st2 st5">U</text>
</g>
<g id="ID000031">
	<text transform="matrix(1 0 0 1 413.67 111.15)" class="st12 st2 st5">G</text>
</g>
<g id="ID000032">
	<text transform="matrix(1 0 0 1 476.61 111.15)" class="st12 st2 st5">U</text>
</g>
<g id="ID000033">
	<text transform="matrix(1 0 0 1 498.16 111.15)" class="st12 st2 st5 st8">A</text>
</g>
<g id="ID000034">
	<text transform="matrix(1 0 0 1 511.09 83.57)" class="st12 st2 st5">U</text>
</g>
<g id="ID000035">
	<text transform="matrix(1 0 0 1 333.81 83.57)" class="st12 st2 st5 st8">A</text>
</g>
<g id="ID000036">
	<line class="st9" x1="319.1" y1="72.1" x2="337.5" y2="72.1"/>
</g>
<g id="ID000037">
	<text transform="matrix(1 0 0 1 294.44 79.72)" class="st2 st10">30</text>
</g>
<g id="ID000038">
	<text transform="matrix(1 0 0 1 318.88 306.79)" class="st7 st2 st5">U</text>
</g>
<g id="ID000039">
	<text transform="matrix(1 0 0 1 284.57 306.79)" class="st7 st2 st5">U</text>
</g>
<g id="ID000040">
	<text transform="matrix(1 0 0 1 256.99 306.79)" class="st7 st2 st5">C</text>
</g>
<g id="ID000041">
	<text transform="matrix(1 0 0 1 228.52 306.79)" class="st7 st2 st5">G</text>
</g>
<g id="ID000042">
	<text transform="matrix(1 0 0 1 201.82 306.79)" class="st7 st2 st5">U</text>
</g>
<g id="ID000043">
	<text transform="matrix(1 0 0 1 175.1 306.79)" class="st7 st2 st5 st8">A</text>
</g>
<g id="ID000044">
	<text transform="matrix(1 0 0 1 145.77 306.79)" class="st7 st2 st5">G</text>
</g>
<g id="ID000045">
	<text transform="matrix(1 0 0 1 119.08 306.79)" class="st7 st2 st5">C</text>
</g>
<g id="ID000046">
	<line class="st9" x1="130.4" y1="283.7" x2="130.4" y2="250.6"/>
</g>
<g id="ID000047">
	<line class="st9" x1="157.9" y1="283.7" x2="157.9" y2="250.6"/>
</g>
<g id="ID000048">
	<line class="st9" x1="185.5" y1="283.7" x2="185.5" y2="250.6"/>
</g>
<g id="ID000049">
	<line class="st9" x1="213.1" y1="283.7" x2="213.1" y2="250.6"/>
</g>
<g id="ID000050">
	<line class="st9" x1="240.7" y1="283.7" x2="240.7" y2="250.6"/>
</g>
<g id="ID000051">
	<line class="st9" x1="268.3" y1="283.7" x2="268.3" y2="250.6"/>
</g>
<g id="ID000052">
	<line class="st9" x1="295.9" y1="283.7" x2="295.9" y2="250.6"/>
</g>
<g id="ID000053">
	<line class="st9" x1="328.4" y1="284.1" x2="320.7" y2="251.9"/>
</g>
<g id="ID000054">
	<line class="st14" x1="488" y1="151.1" x2="488" y2="225.6"/>
</g>
<g id="ID000055">
	<polygon class="st15" points="483.9,200.5 486,198.2 486.7,195.9 487,193.6 488,189 489.1,193.6 489.4,195.9 490.1,198.2 
		492.2,200.5 	"/>
</g>
<g id="ID000057">
	<line class="st14" x1="518.4" y1="291.8" x2="437" y2="291.8"/>
</g>
<g id="ID000058">
	<polygon class="st15" points="474.2,287.7 476.5,289.7 478.8,290.4 481.1,290.8 485.7,291.8 481.1,292.9 478.8,293.2 476.5,293.9 
		474.2,296 	"/>
</g>
<g id="ID000059">
	<line class="st14" x1="415.1" y1="290.8" x2="327.8" y2="251.3"/>
</g>
<g id="ID000060">
	<polygon class="st15" points="372.9,266.6 374.1,269.5 375.9,271.1 377.8,272.4 381.6,275.2 377,274.2 374.7,273.6 372.4,273.2 
		369.4,274.2 	"/>
</g>
<g id="ID000061">
	<line class="st14" x1="390.9" y1="303.4" x2="468" y2="190.6"/>
</g>
<g id="ID000062">
	<polygon class="st15" points="435.5,245.3 432.5,246 430.7,247.6 429.1,249.2 425.6,252.5 427.4,248.1 428.4,246 429.1,243.7 
		428.7,240.6 	"/>
</g>
<g id="ID000063">
	<line class="st14" x1="477" y1="312.5" x2="395.6" y2="312.5"/>
</g>
<g id="ID000064">
	<polygon class="st15" points="432.9,308.4 435.2,310.4 437.5,311.1 439.8,311.5 444.4,312.5 439.8,313.5 437.5,313.9 435.2,314.6 
		432.9,316.6 	"/>
</g>
<g id="ID000065">
	<line class="st14" x1="482.1" y1="181.5" x2="557" y2="181.5"/>
</g>
<g id="ID000066">
	<polygon class="st15" points="522.6,185.6 520.3,183.6 518,182.9 515.7,182.5 511,181.5 515.7,180.4 518,180.1 520.3,179.4 
		522.6,177.4 	"/>
</g>
<g id="ID000067">
	<line class="st14" x1="560.6" y1="192" x2="532.7" y2="281.3"/>
</g>
<g id="ID000068">
	<polygon class="st15" points="540.9,240.3 543.6,238.7 545,236.7 546,234.6 548.3,230.6 547.9,235.3 547.6,237.6 547.5,240 
		548.8,242.8 	"/>
</g>
<g id="ID000069">
	<path class="st14" d="M362,239.2v123.4"/>
</g>
<g id="ID000070">
	<polygon class="st15" points="357.8,318.2 359.9,316 360.6,313.6 360.9,311.4 361.9,306.8 363,311.4 363.3,313.6 364,316 
		366.1,318.2 	"/>
</g>
<g id="ID000071">
	<line class="st14" x1="477" y1="236.6" x2="395.6" y2="236.6"/>
</g>
<g id="ID000072">
	<polygon class="st15" points="412.7,232.5 415,234.6 417.3,235.3 419.6,235.6 424.2,236.6 419.6,237.7 417.3,238 415,238.7 
		412.7,240.8 	"/>
</g>
<g id="ID000073">
	<line class="st14" x1="426" y1="109.8" x2="426" y2="204.9"/>
</g>
<g id="ID000074">
	<polygon class="st15" points="421.9,174.3 423.9,172 424.6,169.7 425,167.4 426,162.8 427,167.4 427.4,169.7 428.1,172 
		430.1,174.3 	"/>
</g>
<g id="ID000075">
	<line class="st14" x1="540.5" y1="216" x2="573.5" y2="216"/>
</g>
<g id="ID000076">
	<polygon class="st15" points="567.2,220.1 564.9,218 562.6,217.3 560.3,217 555.7,216 560.3,214.9 562.6,214.6 564.9,213.9 
		567.2,211.8 	"/>
</g>
<g id="ID000077">
	<line class="st9" x1="395.3" y1="357.9" x2="553.2" y2="315.4"/>
</g>
<g id="ID000078">
	<polygon class="st15" points="479.1,331.8 480.7,337.8 485.1,333.4 	"/>
</g>
<g id="ID000079">
	<polygon class="st15" points="466.6,339.4 466.7,339.5 466.8,339.7 466.9,339.9 467,340 467,340.2 467.2,340.3 467.3,340.4 
		467.4,340.5 467.5,340.6 467.7,340.8 467.8,340.9 468,340.9 468.1,341 468.3,341.1 468.5,341.1 468.6,341.2 468.8,341.2 469,341.2 
		469.1,341.3 469.3,341.3 469.5,341.2 469.7,341.2 469.8,341.2 470,341.1 470.2,341.1 470.4,341 470.5,341 470.7,340.9 470.8,340.8 
		470.9,340.7 471.1,340.6 471.2,340.5 471.3,340.3 471.4,340.2 471.5,340 471.6,339.9 471.7,339.7 471.8,339.6 471.9,339.4 
		471.9,339.2 472,339.1 472,338.9 472,338.7 472,338.6 472,338.4 472,338.2 472,338 471.9,337.9 471.9,337.7 471.8,337.5 
		471.8,337.4 471.7,337.2 471.6,337.1 471.5,336.9 471.4,336.8 471.3,336.6 471.2,336.5 471,336.4 470.9,336.3 470.8,336.2 
		470.6,336.1 470.5,336 470.3,336 470.1,335.9 470,335.8 469.8,335.8 469.6,335.8 469.4,335.8 469.3,335.8 469.1,335.8 468.9,335.8 
		468.8,335.8 468.6,335.8 468.4,335.9 468.2,335.9 468.1,336 467.9,336.1 467.8,336.2 467.6,336.3 467.5,336.4 467.4,336.5 
		467.2,336.6 467.1,336.7 467,336.9 466.9,337 466.8,337.2 466.8,337.3 466.7,337.5 466.6,337.7 466.6,337.8 466.5,338 466.5,338.2 
		466.5,338.4 466.5,338.5 466.5,338.7 466.5,338.9 466.5,339 466.6,339.2 	"/>
</g>
<g id="ID000080">
	<line class="st9" x1="507.8" y1="109.8" x2="507.8" y2="129.1"/>
</g>
<g id="ID000081">
	<polygon class="st16" points="505,116.7 505,122.2 510.5,122.2 510.5,116.7 	"/>
</g>
<g id="ID000082">
	<line class="st9" x1="474.3" y1="211.2" x2="474.3" y2="190.3"/>
</g>
<g id="ID000083">
	<polygon class="st16" points="471.5,194.6 471.5,200.1 477,200.1 477,194.6 	"/>
</g>
<g id="ID000084">
	<polygon class="st16" points="474.4,207.7 474.6,207.7 474.8,207.6 475,207.6 475.1,207.6 475.3,207.5 475.4,207.4 475.6,207.4 
		475.8,207.2 475.9,207.2 476,207.1 476.2,206.9 476.3,206.8 476.4,206.7 476.5,206.5 476.6,206.4 476.7,206.2 476.8,206.1 
		476.8,205.9 476.9,205.8 476.9,205.6 477,205.4 477,205.2 477,205.1 477,204.9 477,204.7 477,204.5 477,204.4 476.9,204.2 
		476.9,204 476.8,203.9 476.7,203.7 476.6,203.6 476.5,203.4 476.5,203.3 476.3,203.1 476.2,203 476.1,202.9 476,202.8 475.8,202.7 
		475.7,202.6 475.5,202.5 475.4,202.4 475.2,202.3 475,202.3 474.9,202.2 474.7,202.2 474.5,202.2 474.3,202.2 474.2,202.2 
		474,202.2 473.8,202.2 473.6,202.2 473.5,202.3 473.3,202.3 473.1,202.4 473,202.5 472.8,202.6 472.7,202.7 472.5,202.8 
		472.4,202.9 472.3,203 472.2,203.1 472.1,203.3 472,203.4 471.9,203.6 471.8,203.7 471.7,203.9 471.6,204 471.6,204.2 471.6,204.4 
		471.5,204.5 471.5,204.7 471.5,204.9 471.5,205.1 471.5,205.2 471.5,205.4 471.6,205.6 471.6,205.8 471.7,205.9 471.8,206.1 
		471.8,206.2 471.9,206.4 472,206.5 472.1,206.7 472.2,206.8 472.4,206.9 472.5,207.1 472.6,207.2 472.8,207.2 472.9,207.4 
		473.1,207.4 473.2,207.5 473.4,207.6 473.6,207.6 473.7,207.6 473.9,207.7 474.1,207.7 474.3,207.7 	"/>
</g>
<g id="ID000085">
	<line class="st9" x1="582.3" y1="226.8" x2="566.2" y2="301.7"/>
</g>
<g id="ID000086">
	<polygon class="st16" points="574.7,261.5 574.5,261.5 574.3,261.5 574.1,261.5 574,261.5 573.8,261.5 573.6,261.5 573.4,261.6 
		573.3,261.6 573.1,261.7 573,261.8 572.8,261.9 572.7,262 572.5,262.1 572.4,262.2 572.3,262.3 572.1,262.5 572,262.6 571.9,262.7 
		571.8,262.9 571.8,263 571.7,263.2 571.6,263.4 571.6,263.5 571.5,263.7 571.5,263.9 571.5,264 571.5,264.2 571.5,264.4 
		571.5,264.6 571.5,264.8 571.6,264.9 571.6,265.1 571.7,265.2 571.8,265.4 571.8,265.6 571.9,265.7 572,265.9 572.1,266 
		572.2,266.1 572.4,266.2 572.5,266.4 572.6,266.5 572.8,266.6 572.9,266.7 573.1,266.7 573.2,266.8 573.4,266.9 573.6,266.9 
		573.8,267 573.9,267 574.1,267 574.3,267 574.5,267 574.6,267 574.8,266.9 575,266.9 575.1,266.8 575.3,266.8 575.5,266.7 
		575.6,266.6 575.8,266.5 575.9,266.4 576,266.3 576.2,266.2 576.3,266.1 576.4,266 576.5,265.8 576.6,265.7 576.7,265.5 
		576.8,265.4 576.8,265.2 576.9,265 576.9,264.9 577,264.7 577,264.5 577,264.3 577,264.2 577,264 577,263.8 576.9,263.6 
		576.9,263.5 576.8,263.3 576.8,263.1 576.7,263 576.6,262.8 576.5,262.7 576.4,262.5 576.3,262.4 576.2,262.3 576.1,262.2 
		575.9,262 575.8,261.9 575.6,261.9 575.5,261.8 575.3,261.7 575.2,261.6 575,261.6 574.8,261.5 	"/>
</g>
<g id="ID000087">
	<line class="st9" x1="487.1" y1="110.7" x2="487.1" y2="130"/>
</g>
<g id="ID000088">
	<polygon class="st16" points="486.9,116.7 486.7,116.7 486.6,116.7 486.4,116.8 486.2,116.8 486.1,116.9 485.9,116.9 485.8,117 
		485.6,117.1 485.5,117.2 485.3,117.3 485.2,117.4 485.1,117.6 485,117.7 484.8,117.8 484.7,118 484.6,118.1 484.6,118.3 
		484.5,118.4 484.5,118.6 484.4,118.8 484.4,118.9 484.4,119.1 484.3,119.3 484.3,119.5 484.3,119.6 484.4,119.8 484.4,120 
		484.4,120.2 484.5,120.3 484.5,120.5 484.6,120.7 484.7,120.8 484.8,120.9 484.9,121.1 485,121.2 485.1,121.4 485.2,121.5 
		485.4,121.6 485.5,121.7 485.7,121.8 485.8,121.9 486,121.9 486.1,122 486.3,122.1 486.5,122.1 486.6,122.2 486.8,122.2 487,122.2 
		487.2,122.2 487.4,122.2 487.5,122.2 487.7,122.1 487.9,122.1 488,122 488.2,121.9 488.4,121.9 488.5,121.8 488.6,121.7 
		488.8,121.6 488.9,121.5 489,121.4 489.2,121.2 489.3,121.1 489.4,120.9 489.5,120.8 489.6,120.7 489.6,120.5 489.7,120.3 
		489.8,120.2 489.8,120 489.8,119.8 489.8,119.6 489.8,119.5 489.8,119.3 489.8,119.1 489.8,118.9 489.8,118.8 489.7,118.6 
		489.7,118.4 489.6,118.3 489.5,118.1 489.4,118 489.3,117.8 489.2,117.7 489.1,117.6 489,117.4 488.9,117.3 488.7,117.2 
		488.6,117.1 488.4,117 488.3,116.9 488.1,116.9 488,116.8 487.8,116.8 487.6,116.7 487.4,116.7 487.3,116.7 487.1,116.7 	"/>
</g>
<g id="ID000089">
	<line class="st9" x1="511.9" y1="74.2" x2="436.6" y2="95.7"/>
</g>
<g id="ID000090">
	<polygon class="st15" points="464.8,87.8 464.8,88 464.9,88.2 465,88.3 465.1,88.5 465.2,88.6 465.3,88.7 465.4,88.9 465.5,89 
		465.7,89.1 465.8,89.2 466,89.3 466.1,89.4 466.3,89.5 466.4,89.5 466.6,89.6 466.8,89.6 467,89.7 467.1,89.7 467.3,89.7 
		467.5,89.7 467.6,89.7 467.8,89.6 468,89.6 468.2,89.6 468.3,89.5 468.5,89.4 468.6,89.4 468.8,89.3 468.9,89.2 469.1,89.1 
		469.2,89 469.4,88.8 469.5,88.7 469.6,88.6 469.7,88.4 469.8,88.3 469.9,88.1 469.9,88 470,87.8 470,87.6 470.1,87.5 470.1,87.3 
		470.1,87.1 470.1,86.9 470.1,86.8 470.1,86.6 470.1,86.4 470,86.2 470,86.1 469.9,85.9 469.9,85.8 469.8,85.6 469.7,85.4 
		469.6,85.3 469.5,85.2 469.4,85 469.2,84.9 469.1,84.8 469,84.7 468.8,84.6 468.7,84.5 468.5,84.4 468.4,84.3 468.2,84.3 468,84.2 
		467.9,84.2 467.7,84.2 467.5,84.2 467.3,84.2 467.2,84.2 467,84.2 466.8,84.2 466.6,84.3 466.5,84.3 466.3,84.4 466.2,84.4 
		466,84.5 465.9,84.6 465.7,84.7 465.6,84.8 465.4,84.9 465.3,85.1 465.2,85.2 465.1,85.3 465,85.5 464.9,85.6 464.8,85.8 464.8,86 
		464.7,86.1 464.7,86.3 464.6,86.5 464.6,86.6 464.6,86.8 464.6,87 464.6,87.2 464.6,87.3 464.7,87.5 464.7,87.7 	"/>
</g>
<g id="ID000091">
	<polygon class="st15" points="483,79.6 477.8,81.1 479.2,86.4 484.6,84.9 	"/>
</g>
<g id="ID000092">
	<line class="st9" x1="436.5" y1="219.5" x2="477.6" y2="233.2"/>
</g>
<g id="ID000093">
	<polygon class="st15" points="465.5,229.3 465.6,229.1 465.6,228.9 465.6,228.8 465.6,228.6 465.6,228.4 465.6,228.2 465.6,228.1 
		465.5,227.9 465.5,227.7 465.4,227.6 465.4,227.4 465.3,227.2 465.2,227.1 465.1,226.9 465,226.8 464.9,226.7 464.7,226.6 
		464.6,226.4 464.5,226.3 464.3,226.2 464.2,226.1 464,226.1 463.9,226 463.7,225.9 463.5,225.9 463.4,225.9 463.2,225.8 463,225.8 
		462.8,225.8 462.6,225.8 462.5,225.8 462.3,225.9 462.1,225.9 462,226 461.8,226 461.6,226.1 461.5,226.2 461.4,226.3 461.2,226.4 
		461.1,226.5 460.9,226.6 460.8,226.7 460.7,226.9 460.6,227 460.5,227.1 460.4,227.3 460.3,227.5 460.3,227.6 460.2,227.8 
		460.2,228 460.1,228.1 460.1,228.3 460.1,228.5 460.1,228.6 460.1,228.8 460.1,229 460.2,229.2 460.2,229.3 460.3,229.5 
		460.3,229.7 460.4,229.8 460.5,230 460.6,230.1 460.7,230.3 460.8,230.4 460.9,230.5 461,230.6 461.2,230.8 461.3,230.9 461.5,231 
		461.6,231 461.8,231.1 462,231.2 462.1,231.2 462.3,231.3 462.5,231.3 462.6,231.3 462.8,231.3 463,231.3 463.1,231.3 463.3,231.3 
		463.5,231.3 463.7,231.2 463.8,231.2 464,231.1 464.1,231 464.3,230.9 464.5,230.8 464.6,230.7 464.7,230.6 464.9,230.5 465,230.4 
		465.1,230.2 465.2,230.1 465.3,229.9 465.3,229.8 465.4,229.6 465.5,229.4 	"/>
</g>
<g id="ID000094">
	<polygon class="st15" points="450.6,226.8 455.8,228.5 457.5,223.2 452.3,221.5 	"/>
</g>
<g id="ID000095">
	<line class="st9" x1="393.5" y1="309.5" x2="415.2" y2="298.7"/>
</g>
<g id="ID000096">
	<polygon class="st15" points="409.3,301.4 409.2,301.3 409.1,301.1 409,301 408.9,300.9 408.7,300.7 408.6,300.6 408.5,300.5 
		408.3,300.4 408.2,300.3 408,300.3 407.9,300.2 407.7,300.1 407.5,300.1 407.3,300.1 407.2,300 407,300 406.8,300 406.6,300 
		406.5,300.1 406.3,300.1 406.1,300.1 406,300.2 405.8,300.3 405.6,300.4 405.5,300.4 405.3,300.5 405.2,300.6 405.1,300.8 
		404.9,300.9 404.8,301 404.7,301.1 404.6,301.3 404.5,301.4 404.4,301.6 404.4,301.7 404.3,301.9 404.2,302.1 404.2,302.2 
		404.2,302.4 404.2,302.6 404.1,302.8 404.2,302.9 404.2,303.1 404.2,303.3 404.2,303.5 404.3,303.6 404.3,303.8 404.4,304 
		404.5,304.1 404.6,304.3 404.7,304.4 404.8,304.5 404.9,304.7 405,304.8 405.1,304.9 405.3,305 405.4,305.1 405.6,305.2 
		405.7,305.3 405.9,305.4 406.1,305.4 406.2,305.5 406.4,305.5 406.6,305.5 406.8,305.5 406.9,305.6 407.1,305.5 407.3,305.5 
		407.5,305.5 407.6,305.5 407.8,305.4 408,305.4 408.1,305.3 408.3,305.2 408.4,305.1 408.5,305 408.7,304.9 408.8,304.8 409,304.7 
		409.1,304.5 409.2,304.4 409.3,304.2 409.4,304.1 409.4,303.9 409.5,303.8 409.5,303.6 409.6,303.4 409.6,303.3 409.7,303.1 
		409.7,302.9 409.7,302.7 409.7,302.6 409.6,302.4 409.6,302.2 409.6,302 409.5,301.9 409.5,301.7 409.4,301.6 	"/>
</g>
<g id="ID000097">
	<polygon class="st15" points="398.6,310 403.5,307.6 401.1,302.6 396.1,305.1 	"/>
</g>
<g id="ID000098">
	<line class="st9" x1="488" y1="247.7" x2="488" y2="301.5"/>
</g>
<g id="ID000099">
	<polygon class="st15" points="488.2,280.7 488.4,280.6 488.6,280.6 488.7,280.6 488.9,280.5 489.1,280.5 489.2,280.4 489.4,280.3 
		489.5,280.2 489.7,280.1 489.8,280 490,279.9 490.1,279.8 490.2,279.6 490.3,279.5 490.4,279.4 490.5,279.2 490.6,279 490.6,278.9 
		490.7,278.7 490.7,278.5 490.8,278.4 490.8,278.2 490.8,278 490.8,277.9 490.8,277.7 490.8,277.5 490.7,277.3 490.7,277.2 
		490.7,277 490.6,276.8 490.5,276.7 490.4,276.5 490.3,276.4 490.2,276.2 490.1,276.1 490,276 489.9,275.9 489.8,275.7 489.6,275.6 
		489.5,275.5 489.3,275.5 489.2,275.4 489,275.3 488.8,275.3 488.7,275.2 488.5,275.2 488.3,275.2 488.1,275.1 488,275.1 
		487.8,275.2 487.6,275.2 487.4,275.2 487.3,275.3 487.1,275.3 486.9,275.4 486.8,275.5 486.6,275.5 486.5,275.6 486.3,275.7 
		486.2,275.9 486.1,276 486,276.1 485.9,276.2 485.8,276.4 485.7,276.5 485.6,276.7 485.5,276.8 485.4,277 485.4,277.2 485.4,277.3 
		485.3,277.5 485.3,277.7 485.3,277.9 485.3,278 485.3,278.2 485.3,278.4 485.4,278.5 485.4,278.7 485.5,278.9 485.5,279 
		485.6,279.2 485.7,279.4 485.8,279.5 485.9,279.6 486,279.8 486.1,279.9 486.3,280 486.4,280.1 486.6,280.2 486.7,280.3 
		486.9,280.4 487,280.5 487.2,280.5 487.4,280.6 487.5,280.6 487.7,280.6 487.9,280.7 488,280.7 	"/>
</g>
<g id="ID000100">
	<polygon class="st15" points="485.3,264.6 485.3,270.2 490.8,270.2 490.8,264.6 	"/>
</g>
<g id="ID000101">
	<line class="st9" x1="384.6" y1="247.7" x2="384.6" y2="301.5"/>
</g>
<g id="ID000102">
	<polygon class="st15" points="384.8,272 385,272 385.1,272 385.3,271.9 385.5,271.9 385.6,271.8 385.8,271.8 386,271.7 
		386.1,271.6 386.2,271.5 386.4,271.4 386.5,271.2 386.6,271.1 386.8,271 386.9,270.9 387,270.7 387,270.6 387.1,270.4 387.2,270.2 
		387.2,270.1 387.3,269.9 387.3,269.7 387.4,269.6 387.4,269.4 387.4,269.2 387.4,269 387.4,268.9 387.3,268.7 387.3,268.5 
		387.2,268.4 387.2,268.2 387.1,268 387,267.9 386.9,267.7 386.8,267.6 386.7,267.5 386.6,267.3 386.5,267.2 386.3,267.1 386.2,267 
		386,266.9 385.9,266.8 385.7,266.7 385.6,266.7 385.4,266.6 385.2,266.6 385,266.5 384.9,266.5 384.7,266.5 384.5,266.5 
		384.4,266.5 384.2,266.5 384,266.6 383.8,266.6 383.7,266.7 383.5,266.7 383.4,266.8 383.2,266.9 383,267 382.9,267.1 382.8,267.2 
		382.6,267.3 382.5,267.5 382.4,267.6 382.3,267.7 382.2,267.9 382.1,268 382.1,268.2 382,268.4 382,268.5 381.9,268.7 381.9,268.9 
		381.9,269 381.9,269.2 381.9,269.4 381.9,269.6 381.9,269.7 381.9,269.9 382,270.1 382,270.2 382.1,270.4 382.2,270.6 382.3,270.7 
		382.4,270.9 382.5,271 382.6,271.1 382.7,271.2 382.8,271.4 383,271.5 383.1,271.6 383.3,271.7 383.4,271.8 383.6,271.8 
		383.8,271.9 383.9,271.9 384.1,272 384.3,272 384.4,272 384.6,272 	"/>
</g>
<g id="ID000103">
	<polygon class="st15" points="381.9,256 381.9,261.5 387.4,261.5 387.4,256 	"/>
</g>
<g id="ID000104">
	<line class="st9" x1="497.9" y1="307.6" x2="519.6" y2="296.8"/>
</g>
<g id="ID000105">
	<polygon class="st15" points="513.7,299.5 513.6,299.3 513.5,299.2 513.4,299.1 513.3,298.9 513.1,298.8 513,298.7 512.9,298.6 
		512.7,298.5 512.6,298.4 512.4,298.3 512.2,298.3 512.1,298.2 511.9,298.2 511.7,298.1 511.5,298.1 511.4,298.1 511.2,298.1 
		511,298.1 510.9,298.1 510.7,298.2 510.5,298.2 510.4,298.3 510.2,298.4 510,298.4 509.9,298.5 509.7,298.6 509.6,298.7 
		509.5,298.8 509.3,299 509.2,299.1 509.1,299.2 509,299.4 508.9,299.5 508.8,299.7 508.8,299.8 508.7,300 508.6,300.1 508.6,300.3 
		508.6,300.5 508.6,300.7 508.5,300.8 508.6,301 508.6,301.2 508.6,301.4 508.6,301.5 508.7,301.7 508.7,301.9 508.8,302 
		508.9,302.2 509,302.3 509.1,302.5 509.2,302.6 509.3,302.8 509.4,302.9 509.5,303 509.7,303.1 509.8,303.2 510,303.3 510.1,303.4 
		510.3,303.4 510.5,303.5 510.6,303.5 510.8,303.6 511,303.6 511.1,303.6 511.3,303.6 511.5,303.6 511.7,303.6 511.8,303.6 
		512,303.5 512.2,303.5 512.3,303.4 512.5,303.4 512.7,303.3 512.8,303.2 513,303.1 513.1,303 513.2,302.9 513.3,302.7 513.5,302.6 
		513.6,302.5 513.7,302.3 513.8,302.2 513.8,302 513.9,301.9 514,301.7 514,301.5 514,301.3 514,301.2 514.1,301 514.1,300.8 
		514,300.6 514,300.5 514,300.3 514,300.1 513.9,300 513.8,299.8 513.8,299.6 	"/>
</g>
<g id="ID000106">
	<polygon class="st15" points="503,308.1 507.9,305.6 505.5,300.7 500.5,303.2 	"/>
</g>
<g id="ID000107">
	<line class="st14" x1="485.3" y1="216" x2="518.4" y2="216"/>
</g>
<g id="ID000108">
	<polygon class="st15" points="505.3,220.1 503,218 500.7,217.3 498.4,217 493.8,216 498.4,214.9 500.7,214.6 503,213.9 
		505.3,211.8 	"/>
</g>
<g id="ID000109">
	<line class="st14" x1="437" y1="216" x2="465.1" y2="216"/>
</g>
<g id="ID000110">
	<polygon class="st15" points="461.3,220.1 459,218 456.7,217.3 454.4,217 449.8,216 454.4,214.9 456.7,214.6 459,213.9 
		461.3,211.8 	"/>
</g>
<g id="ID000111">
	<line class="st14" x1="552.9" y1="312.5" x2="499.1" y2="312.5"/>
</g>
<g id="ID000112">
	<polygon class="st15" points="522.5,308.4 524.8,310.4 527.1,311.1 529.4,311.5 534,312.5 529.4,313.5 527.1,313.9 524.8,314.6 
		522.5,316.6 	"/>
</g>
<g id="ID000113">
	<line class="st14" x1="497.4" y1="354.9" x2="554.6" y2="318.4"/>
</g>
<g id="ID000114">
	<polygon class="st15" points="532.2,337.5 529.2,337 526.9,337.6 524.7,338.6 520.3,340.2 523.6,336.8 525.4,335.3 527,333.5 
		527.8,330.5 	"/>
</g>
<g id="ID000115">
	<polyline class="st14" points="584.6,204.9 584.6,140.1 519.8,140.1 	"/>
</g>
<g id="ID000116">
	<polygon class="st15" points="548.7,136 551,138 553.3,138.7 555.6,139.1 560.2,140.1 555.6,141.1 553.3,141.5 551,142.2 
		548.7,144.2 	"/>
</g>
<g id="ID000117">
	<line class="st14" x1="351.6" y1="71.2" x2="511.5" y2="71.2"/>
</g>
<g id="ID000118">
	<polygon class="st15" points="439.8,75.3 437.5,73.2 435.2,72.5 432.9,72.2 428.3,71.2 432.9,70.1 435.2,69.8 437.5,69.1 439.8,67 
			"/>
</g>
<g id="ID000119">
	<line class="st14" x1="335.7" y1="284.2" x2="343.1" y2="82.2"/>
</g>
<g id="ID000120">
	<polygon class="st15" points="346.9,97.3 344.8,99.5 344,101.8 343.6,104.1 342.4,108.7 341.5,104 341.3,101.7 340.6,99.4 
		338.6,97 	"/>
</g>
<g id="ID000121">
	<line class="st14" x1="477" y1="98.7" x2="437" y2="98.7"/>
</g>
<g id="ID000122">
	<polygon class="st15" points="453.5,94.6 455.8,96.7 458.1,97.4 460.4,97.7 465,98.7 460.4,99.8 458.1,100.1 455.8,100.8 
		453.5,102.9 	"/>
</g>
<g id="ID000123">
	<line class="st14" x1="395.6" y1="360.8" x2="477" y2="360.8"/>
</g>
<g id="ID000123-2">
	<line class="st14" x1="362" y1="362.2" x2="375.5" y2="362.2"/>
</g>
<g id="ID000123-3">
	<line class="st14" x1="362" y1="239.5" x2="374.2" y2="239.5"/>
</g>
<g id="ID000124">
	<polygon class="st15" points="439.8,364.9 437.5,362.8 435.2,362.1 432.9,361.8 428.3,360.8 432.9,359.7 435.2,359.4 437.5,358.7 
		439.8,356.6 	"/>
</g>
<g>
	<text transform="matrix(1 0 0 1 112.65 225.01)" class="st2 st10">5</text>
	<text transform="matrix(1 0 0 1 125.48 225.01)" class="st2 st10 st17">’</text>
</g>
<g>
	<text transform="matrix(1 0 0 1 112.65 328.42)" class="st2 st10">3</text>
	<text transform="matrix(1 0 0 1 125.48 328.42)" class="st2 st10 st17">’</text>
</g>
<g>
	<text transform="matrix(1 0 0 1 317.6 26.53)" class="st2 st18">Mango-III</text>
	<text transform="matrix(1 0 0 1 406.54 26.53)" class="st2 st18">aptamer</text>
</g>
</svg>
