<?xml version="1.0" encoding="utf-8"?>
<!-- Generator: Adobe Illustrator 25.2.0, SVG Export Plug-In . SVG Version: 6.00 Build 0)  -->
<svg version="1.1" id="图层_1" xmlns="http://www.w3.org/2000/svg" xmlns:xlink="http://www.w3.org/1999/xlink" x="0px" y="0px"
	 viewBox="0 0 800 400" style="enable-background:new 0 0 800 400;" xml:space="preserve">
<style type="text/css">
	.st0{font-family:'ArialMT';}
	.st1{font-size:25px;}
	.st2{fill:#FF870A;}
	.st3{font-size:20.7806px;}
	.st4{fill:#2EA103;}
	.st5{font-size:20.7815px;}
	.st6{fill:#8527B5;}
	.st7{fill:#C2B617;}
	.st8{font-size:20.7842px;}
	.st9{font-size:19.9936px;}
	.st10{fill:none;stroke:#000000;stroke-miterlimit:3.05;}
	.st11{fill:none;stroke:#000000;stroke-miterlimit:10;}
	.st12{fill:none;stroke:#000000;stroke-width:0.25;stroke-miterlimit:10;}
</style>
<text transform="matrix(1 0 0 1 299.1798 54.7189)" class="st0 st1">21-E aptamer</text>
<g id="ID000012_00000148648250294949811600000002476682368564361104_">
	<text transform="matrix(0.9999 1.570624e-02 -1.570624e-02 0.9999 84.0598 162.1746)" class="st2 st0 st3">G</text>
</g>
<g id="ID000012_00000005243505809657936210000016000302523228052371_">
	<text transform="matrix(0.9999 1.570624e-02 -1.570624e-02 0.9999 90.9411 287.783)" class="st2 st0 st3">U</text>
</g>
<g id="ID000012_00000018945088859602690940000015000490808175986327_">
	<text transform="matrix(0.9999 1.570624e-02 -1.570624e-02 0.9999 19.8672 284.2443)" class="st2 st0 st3">U</text>
</g>
<g id="ID000012_00000155130754262846598240000010966005089359089826_">
	<g>
		<text transform="matrix(0.9999 1.570624e-02 -1.570624e-02 0.9999 113.8883 229.0841)" class="st4 st0 st3">C</text>
	</g>
</g>
<g id="ID000012_00000117650233970356945190000009812813908289842345_">
	<text transform="matrix(0.9999 1.570624e-02 -1.570624e-02 0.9999 220.2491 198.3281)" class="st4 st0 st3">C</text>
</g>
<g id="ID000012_00000013194185513542469860000011163524102569917871_">
	<text transform="matrix(0.9999 1.570624e-02 -1.570624e-02 0.9999 69.8488 308.8553)" class="st2 st0 st3">C</text>
</g>
<g id="ID000012_00000034075340722826870730000002923839255988758946_">
	<text transform="matrix(0.9999 1.570624e-02 -1.570624e-02 0.9999 38.4237 303.7964)" class="st2 st0 st3">A</text>
</g>
<g id="ID000012_00000105406048537938841600000011078086781653769603_">
	<text transform="matrix(0.9999 1.570624e-02 -1.570624e-02 0.9999 7.0511 261.1807)" class="st2 st0 st3">A</text>
</g>
<g id="ID000012_00000076575886740773082630000009495314680833584512_">
	<text transform="matrix(0.9999 1.570624e-02 -1.570624e-02 0.9999 114.241 197.1566)" class="st4 st0 st3">G</text>
</g>
<g id="ID000012_00000064316486301353662310000011781616575941669052_">
	<g>
		<text transform="matrix(0.9999 1.570624e-02 -1.570624e-02 0.9999 219.8964 230.2557)" class="st4 st0 st3">G</text>
	</g>
</g>
<g id="ID000012_00000002352553912849959790000005688451255759855762_">
	<text transform="matrix(0.9999 1.570624e-02 -1.570624e-02 0.9999 290.3713 198.163)" class="st4 st0 st3">C</text>
</g>
<g id="ID000012_00000181777636987782787520000014493413261486570632_">
	<g>
		<text transform="matrix(0.9999 1.570624e-02 -1.570624e-02 0.9999 384.48 229.6602)" class="st4 st0 st3">C</text>
	</g>
</g>
<g id="ID000012_00000119092986949871967190000001368725069498506154_">
	<g>
		<text transform="matrix(0.9999 1.570624e-02 -1.570624e-02 0.9999 290.0189 230.0909)" class="st4 st0 st3">G</text>
	</g>
</g>
<g id="ID000012_00000071531718182832015670000010578365959109899919_">
	<text transform="matrix(0.9999 1.570624e-02 -1.570624e-02 0.9999 313.8006 197.9847)" class="st4 st0 st3">C</text>
</g>
<g id="ID000012_00000041288472715204775660000015005560976051028396_">
	<g>
		<text transform="matrix(0.9999 1.570624e-02 -1.570624e-02 0.9999 313.4479 229.9119)" class="st4 st0 st3">G</text>
	</g>
</g>
<g id="ID000012_00000116226590567361219000000011083110597125249937_">
	<g>
		<text transform="matrix(0.9999 1.570624e-02 -1.570624e-02 0.9999 409.105 197.6826)" class="st4 st0 st3">C</text>
	</g>
</g>
<g id="ID000012_00000005985008279970668590000004448254639495021749_">
	<g>
		<text transform="matrix(0.9999 1.570624e-02 -1.570624e-02 0.9999 408.7526 229.6106)" class="st4 st0 st3">G</text>
	</g>
</g>
<g id="ID000012_00000165953536198858775620000016858846824595650978_">
	<g>
		<text transform="matrix(1 9.321971e-03 -9.321971e-03 1 508.5416 197.9282)" class="st4 st0 st5">C</text>
	</g>
</g>
<g id="ID000012_00000179608354211218645130000016851827873150192803_">
	<g>
		<text transform="matrix(1 9.321971e-03 -9.321971e-03 1 508.3934 229.8579)" class="st4 st0 st5">G</text>
	</g>
</g>
<g id="ID000012_00000030463951467681028660000013740299505534738339_">
	<g>
		<text transform="matrix(1 9.321971e-03 -9.321971e-03 1 619.1522 197.1585)" class="st4 st0 st5">C</text>
	</g>
</g>
<g id="ID000012_00000138552026474875569020000017019517068837073326_">
	<g>
		<text transform="matrix(1 9.321971e-03 -9.321971e-03 1 619.1534 232.017)" class="st4 st0 st5">G</text>
	</g>
</g>
<g id="ID000012_00000132780634495194390200000000346027985761100722_">
	<text transform="matrix(0.9999 1.570624e-02 -1.570624e-02 0.9999 637.5701 180.8299)" class="st6 st0 st3">G</text>
</g>
<g id="ID000012_00000000908445179074547090000014859347219595353001_">
	<text transform="matrix(0.9999 1.570624e-02 -1.570624e-02 0.9999 683.7101 145.7918)" class="st6 st0 st3">G</text>
</g>
<g id="ID000012_00000157267390177633028030000016035220471722308031_">
	<text transform="matrix(0.9999 1.570624e-02 -1.570624e-02 0.9999 730.4167 148.515)" class="st6 st0 st3">G</text>
</g>
<g id="ID000012_00000075849680111956198480000013789057698063074209_">
	<text transform="matrix(0.9999 1.570624e-02 -1.570624e-02 0.9999 666.6475 155.5264)" class="st6 st0 st3">G</text>
</g>
<g id="ID000012_00000180350000669334215510000016709472973473476248_">
	<text transform="matrix(0.9999 1.570624e-02 -1.570624e-02 0.9999 747.8287 163.3012)" class="st6 st0 st3">G</text>
</g>
<g id="ID000012_00000102536982036859573280000009211690250802913434_">
	<text transform="matrix(0.9999 1.570624e-02 -1.570624e-02 0.9999 771.1227 197.1556)" class="st6 st0 st3">G</text>
</g>
<g id="ID000012_00000120542069279796168450000001322196497175772058_">
	<text transform="matrix(0.9999 1.570624e-02 -1.570624e-02 0.9999 776.3991 215.2304)" class="st6 st0 st3">G</text>
</g>
<g id="ID000012_00000080187530276321991640000004830613269485918900_">
	<text transform="matrix(0.9999 1.570624e-02 -1.570624e-02 0.9999 770.3896 254.8593)" class="st6 st0 st3">G</text>
</g>
<g id="ID000012_00000047755428215566319710000004165197751210747270_">
	<text transform="matrix(0.9999 1.570624e-02 -1.570624e-02 0.9999 725.9269 291.5003)" class="st6 st0 st3">G</text>
</g>
<g id="ID000012_00000101068993241424882100000002217399422835612056_">
	<text transform="matrix(0.9999 1.570624e-02 -1.570624e-02 0.9999 633.9462 251.8975)" class="st6 st0 st3">G</text>
</g>
<g id="ID000012_00000117678387360243539990000008682857529202421387_">
	<text transform="matrix(0.9999 1.570624e-02 -1.570624e-02 0.9999 650.4675 265.1927)" class="st6 st0 st3">G</text>
</g>
<g id="ID000012_00000134971094671624407390000002539273970818195617_">
	<text transform="matrix(0.9999 1.570624e-02 -1.570624e-02 0.9999 742.1808 282.832)" class="st6 st0 st3">G</text>
</g>
<g id="ID000012_00000132073604774811949010000015313403802408852407_">
	<text transform="matrix(0.9999 1.570624e-02 -1.570624e-02 0.9999 706.7708 296.4719)" class="st6 st0 st3">G</text>
</g>
<g id="ID000012_00000153678186920955175130000002192003770275445672_">
	<text transform="matrix(0.9999 1.570624e-02 -1.570624e-02 0.9999 685.5949 289.5565)" class="st6 st0 st3">G</text>
</g>
<g id="ID000012_00000121976050905609661470000016184496556647328698_">
	<g>
		<text transform="matrix(0.9999 1.570624e-02 -1.570624e-02 0.9999 433.0368 197.1561)" class="st4 st0 st3">C</text>
	</g>
</g>
<g id="ID000012_00000052817178548328171680000007409920258984297893_">
	<g>
		<text transform="matrix(0.9999 1.570624e-02 -1.570624e-02 0.9999 432.8629 229.393)" class="st4 st0 st3">G</text>
	</g>
</g>
<g id="ID000012_00000010286276259096073610000014541636548829742724_">
	<text transform="matrix(0.9999 1.570624e-02 -1.570624e-02 0.9999 266.8995 198.215)" class="st4 st0 st3">G</text>
</g>
<g id="ID000012_00000015321899287943694700000002295706081913859230_">
	<g>
		<text transform="matrix(0.9999 1.570624e-02 -1.570624e-02 0.9999 384.8361 197.443)" class="st4 st0 st3">G</text>
	</g>
</g>
<g id="ID000012_00000101094929934395403460000016078405738825889162_">
	<g>
		<text transform="matrix(1 9.321971e-03 -9.321971e-03 1 483.8524 230.0496)" class="st4 st0 st5">C</text>
	</g>
</g>
<g id="ID000012_00000121266349813293428980000007707483028582597306_">
	<g>
		<text transform="matrix(1 9.321971e-03 -9.321971e-03 1 484.0024 197.8308)" class="st4 st0 st5">G</text>
	</g>
</g>
<g id="ID000012_00000013899358686023535060000013196588349684048774_">
	<g>
		<text transform="matrix(0.9999 1.570624e-02 -1.570624e-02 0.9999 266.5468 230.1412)" class="st4 st0 st3">G</text>
	</g>
</g>
<g id="ID000012_00000177472387867390972210000008946930669333343621_">
	<g>
		<g>
			<text transform="matrix(0.9999 1.570624e-02 -1.570624e-02 0.9999 360.8409 235.6322)" class="st7 st0 st3">G</text>
		</g>
	</g>
</g>
<g id="ID000012_00000139270344796189169450000013219683954932217515_">
	<g>
		<text transform="matrix(1 9.321971e-03 -9.321971e-03 1 459.5062 230.2088)" class="st4 st0 st5">G</text>
	</g>
</g>
<g id="ID000012_00000081640449240685527750000004750877923809341370_">
	<text transform="matrix(0.9999 1.570624e-02 -1.570624e-02 0.9999 337.0238 198.1624)" class="st4 st0 st3">G</text>
</g>
<g id="ID000012_00000137105378624273191520000007682827104971360951_">
	<g>
		<text transform="matrix(0.9999 1.570624e-02 -1.570624e-02 0.9999 139.8198 229.3706)" class="st4 st0 st3">U</text>
	</g>
</g>
<g id="ID000012_00000003077821065600573220000014197998962231174796_">
	<text transform="matrix(0.9999 1.570624e-02 -1.570624e-02 0.9999 140.1726 197.4436)" class="st4 st0 st3">A</text>
</g>
<g id="ID000012_00000152953286390826754880000008495207833541928127_">
	<g>
		<text transform="matrix(0.9998 2.036746e-02 -2.036746e-02 0.9998 244.6658 230.2532)" class="st4 st0 st3">U</text>
	</g>
</g>
<g id="ID000012_00000078756637752562407990000011919417637059583159_">
	<g>
		<text transform="matrix(1 9.321971e-03 -9.321971e-03 1 459.0604 197.9875)" class="st4 st0 st5">U</text>
	</g>
</g>
<g id="ID000012_00000075874515887709393670000014160498948306460823_">
	<g>
		<g>
			<text transform="matrix(1 9.321971e-03 -9.321971e-03 1 561.3575 231.0167)" class="st4 st0 st5">G</text>
		</g>
	</g>
</g>
<g id="ID000012_00000136370387814573020420000003610253098319399813_">
	<g>
		<g>
			<text transform="matrix(1 9.321971e-03 -9.321971e-03 1 560.3578 197.9874)" class="st4 st0 st5">U</text>
		</g>
	</g>
</g>
<g id="ID000012_00000040561711406294606580000002673084805204445367_">
	<text transform="matrix(1 9.321971e-03 -9.321971e-03 1 761.9601 179.5652)" class="st6 st0 st8">U</text>
</g>
<g id="ID000012_00000145769044365357159930000015615220151046903461_">
	<text transform="matrix(1 9.321971e-03 -9.321971e-03 1 669.4367 279.1762)" class="st6 st0 st8">U</text>
</g>
<g id="ID000012_00000106839460264851756350000000425338017478339734_">
	<g>
		<text transform="matrix(0.9999 1.570624e-02 -1.570624e-02 0.9999 446.7808 250.4868)" class="st7 st0 st3">U</text>
	</g>
</g>
<g id="ID000012_00000071517944565238586840000001257416063228521143_">
	<g>
		<text transform="matrix(0.9999 1.570624e-02 -1.570624e-02 0.9999 336.675 229.8008)" class="st4 st0 st3">U</text>
	</g>
</g>
<g id="ID000012_00000078035502460834007300000009018566330246138044_">
	<g>
		<text transform="matrix(1 9.321971e-03 -9.321971e-03 1 534.1425 198.3305)" class="st4 st0 st5">G</text>
	</g>
</g>
<g id="ID000012_00000122688687031283589020000017258625391325232558_">
	<g>
		<text transform="matrix(1 9.321971e-03 -9.321971e-03 1 534.1424 231.0247)" class="st4 st0 st5">U</text>
	</g>
</g>
<g id="ID000012_00000103952572293882464340000003569665630788309439_">
	<g>
		<g>
			<text transform="matrix(1 9.321971e-03 -9.321971e-03 1 587.0835 197.1569)" class="st4 st0 st5">G</text>
		</g>
	</g>
</g>
<g id="ID000012_00000038391262212531217530000012462951158447605393_">
	<g>
		<g>
			<text transform="matrix(1 9.321971e-03 -9.321971e-03 1 588.3762 231.0249)" class="st4 st0 st5">U</text>
		</g>
	</g>
</g>
<g id="ID000012_00000111908618600421967300000007497521832425146043_">
	<text transform="matrix(0.9998 2.036746e-02 -2.036746e-02 0.9998 245.1674 198.3279)" class="st4 st0 st3">A</text>
</g>
<g id="ID000012_00000050638203366766585660000016679369840556918953_">
	<g>
		<g>
			<text transform="matrix(0.9999 1.570624e-02 -1.570624e-02 0.9999 362.076 188.7737)" class="st7 st0 st3">A</text>
		</g>
	</g>
</g>
<g id="ID000012_00000069361753531753936320000000411678729110856626_">
	<text transform="matrix(0.9999 1.570624e-02 -1.570624e-02 0.9999 706.7709 141.715)" class="st6 st0 st3">A</text>
</g>
<g id="ID000012_00000021091975175244374840000017153052408746495150_">
	<text transform="matrix(0.9999 1.570624e-02 -1.570624e-02 0.9999 653.9788 165.0226)" class="st6 st0 st3">A</text>
</g>
<g id="ID000012_00000088839180591982796080000009621461721729928368_">
	<text transform="matrix(0.9999 1.570624e-02 -1.570624e-02 0.9999 777.6349 235.6318)" class="st6 st0 st3">A</text>
</g>
<g id="ID000012_00000005241102470666221740000004148074669698368909_">
	<text transform="matrix(0.9999 1.570624e-02 -1.570624e-02 0.9999 759.6765 269.4803)" class="st6 st0 st3">A</text>
</g>
<g id="ID000012_00000065772260692565994970000005315911973861996990_">
	<g>
		<text transform="matrix(0.9999 1.570624e-02 -1.570624e-02 0.9999 161.5563 229.6109)" class="st4 st0 st3">U</text>
	</g>
</g>
<g id="ID000012_00000172436935639851911780000003867481804782623927_">
	<text transform="matrix(0.9999 1.570624e-02 -1.570624e-02 0.9999 161.9095 197.6834)" class="st4 st0 st3">A</text>
</g>
<g id="ID000012_00000074419599673748885260000012966553899004421541_">
	<g>
		<g>
			<text transform="matrix(0.9999 1.570624e-02 -1.570624e-02 0.9999 203.4903 250.7762)" class="st7 st0 st3">A</text>
		</g>
	</g>
</g>
<g id="ID000012_00000173868329632860879120000010929944959712045237_">
	<g>
		<g>
			<text transform="matrix(0.9999 1.570624e-02 -1.570624e-02 0.9999 177.3718 250.4872)" class="st7 st0 st3">A</text>
		</g>
	</g>
</g>
<g id="ID000012_00000085210473507274872110000008053949336172943522_">
	<text transform="matrix(0.9999 1.570624e-02 -1.570624e-02 0.9999 108.0359 258.6039)" class="st2 st0 st3">G</text>
</g>
<g id="ID000012_00000112620318536633581860000004527845857866710461_">
	<text transform="matrix(0.9999 1.570624e-02 -1.570624e-02 0.9999 101.2865 176.5655)" class="st2 st0 st3">G</text>
</g>
<g id="ID000018_00000161621232568950818450000011460166986190009767_">
	<text transform="matrix(0.9998 1.779322e-02 -1.779322e-02 0.9998 65.6922 153.6834)" class="st0 st9">5’</text>
</g>
<g id="ID000018_00000170269247702836697810000010559508156464314770_">
	<text transform="matrix(0.9998 1.779322e-02 -1.779322e-02 0.9998 20.509 250.4865)" class="st0 st9">3’</text>
</g>
<g id="ID000018_00000023248899822241751660000018095557378986355332_">
	<text transform="matrix(0.9998 1.779322e-02 -1.779322e-02 0.9998 241.6149 263.9824)" class="st0 st9">60</text>
</g>
<g id="ID000018_00000026851613719079311830000017844119002240725137_">
	<text transform="matrix(0.9998 1.779322e-02 -1.779322e-02 0.9998 747.8285 123.8824)" class="st0 st9">30</text>
</g>
<g id="ID000018_00000091002834926832935120000009194514160340880574_">
	<text transform="matrix(0.9998 1.779322e-02 -1.779322e-02 0.9998 639.5668 311.057)" class="st0 st9">40</text>
</g>
<g id="ID000018_00000099663778134591729430000012021966493038371223_">
	<text transform="matrix(0.9998 1.779322e-02 -1.779322e-02 0.9998 309.2325 162.3643)" class="st0 st9">10</text>
</g>
<line class="st10" x1="628.1" y1="214.4" x2="628.1" y2="200.6"/>
<line class="st11" x1="517.2" y1="213.9" x2="517.2" y2="200.1"/>
<line class="st11" x1="492.7" y1="213.9" x2="492.8" y2="200.1"/>
<line class="st11" x1="441.4" y1="213.9" x2="441.5" y2="200.1"/>
<line class="st11" x1="417.7" y1="213.9" x2="417.7" y2="200.1"/>
<line class="st11" x1="393" y1="213.9" x2="393" y2="200.1"/>
<line class="st11" x1="322.2" y1="213.8" x2="322.2" y2="200"/>
<line class="st11" x1="298.3" y1="213.9" x2="298.4" y2="200.1"/>
<line class="st11" x1="275.7" y1="213.9" x2="275.7" y2="200.1"/>
<line class="st11" x1="252.8" y1="213.9" x2="252.8" y2="200.1"/>
<line class="st11" x1="228.9" y1="214.6" x2="228.9" y2="200.8"/>
<line class="st11" x1="169.2" y1="213.8" x2="169.2" y2="200"/>
<line class="st11" x1="147.8" y1="213.4" x2="147.8" y2="199.6"/>
<line class="st11" x1="122.3" y1="213.8" x2="122.3" y2="200"/>
<circle cx="569.7" cy="206.9" r="2.3"/>
<circle cx="595.7" cy="206.9" r="2.3"/>
<line class="st12" x1="322.2" y1="180.9" x2="322.2" y2="167.1"/>
<line class="st12" x1="251.3" y1="247.6" x2="251.4" y2="233.8"/>
<line class="st12" x1="662.7" y1="294.7" x2="672.6" y2="281.1"/>
<line class="st12" x1="759.6" y1="143.6" x2="759.7" y2="129.8"/>
<circle cx="344.7" cy="206.1" r="2.3"/>
<circle cx="467.4" cy="205.9" r="2.3"/>
<circle cx="541.6" cy="206.8" r="2.3"/>
</svg>
