<?xml version="1.0" encoding="UTF-8"?>
<svg id="_图层_1" data-name="图层 1" xmlns="http://www.w3.org/2000/svg" viewBox="0 0 200 130">
  <defs>
    <style>
      .cls-1 {
        font-size: 12.15px;
      }

      .cls-1, .cls-2, .cls-3, .cls-4 {
        isolation: isolate;
      }

      .cls-1, .cls-3, .cls-4 {
        font-family: ArialMT, Arial;
      }

      .cls-3 {
        font-size: 11.43px;
      }

      .cls-4 {
        font-size: 7.03px;
      }
    </style>
  </defs>
  <polygon points="177.22 2.37 170.32 28.7 170.77 29.15 171.39 28.98 178.29 2.65 177.76 2.51 177.22 2.37"/>
  <polygon points="170.32 28.7 143.75 35.98 144.21 36.42 144.66 36.87 170.61 29.77 170.77 29.15 170.32 28.7"/>
  <polygon points="169.66 32.31 146.78 38.58 146.92 39.11 147.07 39.64 169.95 33.37 169.81 32.84 169.66 32.31"/>
  <polygon points="143.75 35.98 136.75 62.69 137.22 63.07 137.84 62.9 144.66 36.87 144.21 36.42 143.75 35.98"/>
  <polygon points="137.12 63.74 156.14 82.55 156.81 82.44 156.97 81.82 137.84 62.9 137.22 63.07 137.12 63.74"/>
  <polygon points="140.52 62.45 157.39 79.14 157.78 78.75 158.16 78.36 141.29 61.67 140.91 62.06 140.52 62.45"/>
  <polygon points="157.19 82.91 183.83 75.61 183.37 75.16 182.92 74.72 156.97 81.82 156.81 82.44 157.19 82.91"/>
  <polygon points="183.83 75.61 190.97 48.35 190.36 48.52 189.74 48.69 182.92 74.72 183.37 75.16 183.83 75.61"/>
  <polygon points="181.19 72.62 187.21 49.67 186.68 49.53 186.14 49.39 180.13 72.34 180.66 72.48 181.19 72.62"/>
  <polygon points="190.97 48.35 171.39 28.98 170.77 29.15 170.61 29.77 189.74 48.69 190.36 48.52 190.97 48.35"/>
  <polygon points="156.14 82.55 147.02 100.67 147.52 100.92 148.01 101.17 157.19 82.91 156.81 82.44 156.14 82.55"/>
  <g class="cls-2">
    <text class="cls-1" transform="translate(148.82 111.97) rotate(-180) scale(1 -1)"><tspan x="0" y="0">N</tspan></text>
  </g>
  <g class="cls-2">
    <text class="cls-1" transform="translate(148.82 123.06) rotate(-180) scale(1 -1)"><tspan x="0" y="0">H</tspan></text>
  </g>
  <polygon points="139.03 105.67 117.69 102.41 117.21 102.89 116.73 103.37 138.87 106.75 138.95 106.21 139.03 105.67"/>
  <polygon points="120.63 99.89 116.95 77.45 116.4 77.54 115.86 77.63 119.54 100.07 120.08 99.98 120.63 99.89"/>
  <polygon points="117.69 102.41 113.36 76.01 112.75 75.71 112.25 76.07 116.73 103.37 117.21 102.89 117.69 102.41"/>
  <polygon points="112.75 75.09 88.11 62.7 88.14 63.34 88.18 63.97 112.25 76.07 112.75 75.71 112.75 75.09"/>
  <polygon points="88.11 62.7 65.09 77.83 65.13 78.47 65.69 78.75 88.18 63.97 88.14 63.34 88.11 62.7"/>
  <polygon points="65.09 77.83 40.48 65.46 40.51 66.1 40.55 66.73 64.59 78.82 65.13 78.47 65.09 77.83"/>
  <polygon points="42.77 66.92 41.48 44.6 40.93 44.63 40.38 44.66 41.67 66.99 42.22 66.95 42.77 66.92"/>
  <polygon points="39.47 67.11 38.18 44.79 37.63 44.82 37.08 44.85 38.37 67.18 38.92 67.14 39.47 67.11"/>
  <g class="cls-2">
    <text class="cls-1" transform="translate(43.65 43.52) rotate(-180) scale(1 -1)"><tspan x="0" y="0">O</tspan></text>
  </g>
  <polygon points="40.48 65.46 23.02 76.94 23.32 77.4 23.63 77.86 40.55 66.73 40.51 66.1 40.48 65.46"/>
  <g class="cls-2">
    <text class="cls-1" transform="translate(22.22 86.14) rotate(-180) scale(1 -1)"><tspan x="0" y="0">O</tspan></text>
    <text class="cls-1" transform="translate(12.77 86.14) rotate(-180) scale(1 -1)"><tspan x="0" y="0">H</tspan></text>
  </g>
  <polygon points="64.59 78.82 65.81 99.87 66.36 99.84 66.91 99.81 65.69 78.75 65.13 78.47 64.59 78.82"/>
  <polygon points="113.36 76.01 137.12 63.74 137.22 63.07 136.75 62.69 112.75 75.09 112.75 75.71 113.36 76.01"/>
  <g class="cls-2">
    <text class="cls-3" transform="translate(62.73 109.77)"><tspan x="0" y="0">N</tspan></text>
    <text class="cls-3" transform="translate(70.98 109.77)"><tspan x="0" y="0">H</tspan></text>
    <text class="cls-4" transform="translate(79.24 111.53)"><tspan x="0" y="0">2</tspan></text>
  </g>
</svg>