<svg id="图层_1" data-name="图层 1" xmlns="http://www.w3.org/2000/svg" viewBox="0 0 200 130"><defs><style>.cls-1,.cls-2,.cls-3{isolation:isolate;}.cls-2{font-size:12.02px;}.cls-2,.cls-3{font-family:ArialMT, Arial;}.cls-3{font-size:7.39px;}</style></defs><polygon points="189.45 67.79 175.51 91.93 175.2 91.39 174.89 90.84 188.19 67.79 188.82 67.79 189.45 67.79"/><polygon points="185.52 68.06 173.78 88.39 173.31 88.12 172.84 87.84 184.58 67.52 185.05 67.79 185.52 68.06"/><polygon points="175.51 91.93 148.19 91.93 147.95 91.39 148.27 90.84 174.89 90.84 175.2 91.39 175.51 91.93"/><polygon points="147.28 91.32 134.05 68.4 134.33 67.79 134.96 67.79 148.27 90.84 147.95 91.39 147.28 91.32"/><polygon points="149.37 88.39 137.63 68.06 138.1 67.79 138.58 67.52 150.31 87.84 149.84 88.12 149.37 88.39"/><polygon points="133.98 67.31 147.64 43.65 147.95 44.19 148.27 44.74 134.96 67.79 134.33 67.79 133.98 67.31"/><polygon points="147.64 43.65 174.89 43.65 175.2 44.19 174.89 44.74 148.27 44.74 147.95 44.19 147.64 43.65"/><polygon points="149.84 46.92 173.31 46.92 173.31 47.46 173.31 48.01 149.84 48.01 149.84 47.46 149.84 46.92"/><polygon points="174.89 43.65 184.85 26.38 185.32 26.66 185.8 26.93 175.83 44.19 175.2 44.19 174.89 43.65"/><g class="cls-1"><text class="cls-2" transform="translate(182.82 25.46)">Br</text></g><polygon points="175.83 44.19 189.45 67.79 188.82 67.79 188.19 67.79 174.89 44.74 175.2 44.19 175.83 44.19"/><polygon points="134.05 68.4 108.18 73.91 107.68 73.45 107.83 72.86 133.98 67.31 134.33 67.79 134.05 68.4"/><polygon points="111.22 76.22 108.87 98.59 108.33 98.53 107.79 98.47 110.14 76.1 110.68 76.16 111.22 76.22"/><polygon points="108.18 73.91 105.41 100.22 104.83 100.55 104.24 100.89 107.11 73.67 107.68 73.45 108.18 73.91"/><polygon points="105.41 100.22 124.51 108.72 124.29 109.22 124.07 109.72 104.24 100.89 104.83 100.55 105.41 100.22"/><g class="cls-1"><text class="cls-2" transform="translate(125.38 116.5)">N</text></g><g class="cls-1"><text class="cls-2" transform="translate(125.38 127.47)">H</text></g><polygon points="134.74 105.24 147.28 91.32 147.95 91.39 148.19 91.93 135.55 105.97 135.15 105.61 134.74 105.24"/><polygon points="107.11 73.67 87.3 55.84 87.43 55.22 87.56 54.61 107.83 72.86 107.68 73.45 107.11 73.67"/><polygon points="87.3 55.84 61.98 64.06 61.51 63.64 61.64 63.03 87.56 54.61 87.43 55.22 87.3 55.84"/><polygon points="60.91 63.84 41.13 46.02 41.26 45.41 41.39 44.79 61.64 63.03 61.51 63.64 60.91 63.84"/><polygon points="38.94 45.88 43.51 24.36 44.04 24.48 44.57 24.59 40 46.11 39.47 45.99 38.94 45.88"/><polygon points="42.13 46.56 46.71 25.04 47.24 25.16 47.77 25.27 43.2 46.79 42.67 46.67 42.13 46.56"/><g class="cls-1"><text class="cls-2" transform="translate(42.26 23.62)">O</text></g><polygon points="41.13 46.02 21.28 52.48 21.11 51.96 20.95 51.44 41.39 44.79 41.26 45.41 41.13 46.02"/><g class="cls-1"><text class="cls-2" transform="translate(2 58.7)">H</text><text class="cls-2" transform="translate(10.68 58.7)">O</text></g><polygon points="61.98 64.06 57.67 84.35 57.14 84.23 56.6 84.12 60.91 63.84 61.51 63.64 61.98 64.06"/><g class="cls-1"><text class="cls-2" transform="translate(38.83 93.61)">H</text><text class="cls-3" transform="translate(47.5 95.46)">2</text><text class="cls-2" transform="translate(51.62 93.61)">N</text></g></svg>