<svg id="图层_1" data-name="图层 1" xmlns="http://www.w3.org/2000/svg" viewBox="0 0 200 130"><defs><style>.cls-1,.cls-2,.cls-3{isolation:isolate;}.cls-2{font-size:12.17px;}.cls-2,.cls-3{font-family:ArialMT, Arial;}.cls-3{font-size:7.49px;}</style></defs><polygon points="192.92 61.19 178.8 85.65 178.48 85.09 178.16 84.54 191.65 61.19 192.28 61.19 192.92 61.19"/><polygon points="188.94 61.47 177.05 82.06 176.57 81.78 176.09 81.51 187.98 60.91 188.46 61.19 188.94 61.47"/><polygon points="178.8 85.65 151.12 85.65 150.88 85.09 151.19 84.54 178.16 84.54 178.48 85.09 178.8 85.65"/><polygon points="150.2 85.02 136.8 61.81 137.07 61.19 137.71 61.19 151.19 84.54 150.88 85.09 150.2 85.02"/><polygon points="152.31 82.06 140.42 61.47 140.9 61.19 141.38 60.91 153.27 81.51 152.79 81.78 152.31 82.06"/><polygon points="136.72 60.7 150.56 36.73 150.88 37.28 151.19 37.84 137.71 61.19 137.07 61.19 136.72 60.7"/><polygon points="150.56 36.73 178.16 36.73 178.48 37.28 178.16 37.84 151.19 37.84 150.88 37.28 150.56 36.73"/><polygon points="152.79 40.04 176.57 40.04 176.57 40.6 176.57 41.15 152.79 41.15 152.79 40.6 152.79 40.04"/><polygon points="178.16 36.73 188.26 19.24 188.74 19.52 189.22 19.79 179.12 37.28 178.48 37.28 178.16 36.73"/><g class="cls-1"><text class="cls-2" transform="translate(188.57 18.31)">F</text></g><polygon points="179.12 37.28 192.92 61.19 192.28 61.19 191.65 61.19 178.16 37.84 178.48 37.28 179.12 37.28"/><polygon points="136.8 61.81 110.58 67.39 110.07 66.93 110.23 66.33 136.72 60.7 137.07 61.19 136.8 61.81"/><polygon points="113.67 69.73 111.28 92.39 110.73 92.33 110.19 92.28 112.57 69.61 113.12 69.67 113.67 69.73"/><polygon points="110.58 67.39 107.78 94.04 107.19 94.38 106.6 94.72 109.5 67.15 110.07 66.93 110.58 67.39"/><polygon points="107.78 94.04 127.13 102.66 126.91 103.16 126.68 103.66 106.6 94.72 107.19 94.38 107.78 94.04"/><g class="cls-1"><text class="cls-2" transform="translate(128.01 110.54)">N</text></g><g class="cls-1"><text class="cls-2" transform="translate(128.01 121.65)">H</text></g><polygon points="137.5 99.13 150.2 85.02 150.88 85.09 151.12 85.65 138.31 99.87 137.91 99.5 137.5 99.13"/><polygon points="109.5 67.15 89.43 49.08 89.56 48.46 89.69 47.83 110.23 66.33 110.07 66.93 109.5 67.15"/><polygon points="89.43 49.08 63.78 57.41 63.31 56.99 63.44 56.36 89.69 47.83 89.56 48.46 89.43 49.08"/><polygon points="62.7 57.19 42.66 39.14 42.79 38.52 42.93 37.89 63.44 56.36 63.31 56.99 62.7 57.19"/><polygon points="40.44 38.99 45.07 17.2 45.61 17.31 46.15 17.43 41.52 39.22 40.98 39.11 40.44 38.99"/><polygon points="43.68 39.68 48.31 17.89 48.85 18 49.39 18.11 44.76 39.91 44.22 39.8 43.68 39.68"/><g class="cls-1"><text class="cls-2" transform="translate(43.8 16.45)">O</text></g><polygon points="42.66 39.14 22.55 45.67 22.38 45.15 22.21 44.63 42.93 37.89 42.79 38.52 42.66 39.14"/><g class="cls-1"><text class="cls-2" transform="translate(3.02 51.98)">H</text><text class="cls-2" transform="translate(11.81 51.98)">O</text></g><polygon points="63.78 57.41 59.41 77.96 58.87 77.85 58.33 77.73 62.7 57.19 63.31 56.99 63.78 57.41"/><g class="cls-1"><text class="cls-2" transform="translate(40.32 87.35)">H</text><text class="cls-3" transform="translate(49.12 89.22)">2</text><text class="cls-2" transform="translate(53.28 87.35)">N</text></g></svg>