<svg id="图层_1" data-name="图层 1" xmlns="http://www.w3.org/2000/svg" viewBox="0 0 200 130"><defs><style>.cls-1,.cls-2,.cls-3{isolation:isolate;}.cls-2{font-size:11.43px;}.cls-2,.cls-3{font-family:ArialMT, Arial;}.cls-3{font-size:7.03px;}</style></defs><polygon points="180.31 60.92 167.05 83.89 166.75 83.37 166.45 82.85 179.11 60.92 179.71 60.92 180.31 60.92"/><polygon points="176.56 61.18 165.4 80.52 164.95 80.26 164.5 80 175.67 60.67 176.12 60.92 176.56 61.18"/><polygon points="167.05 83.89 141.06 83.89 140.83 83.37 141.13 82.85 166.45 82.85 166.75 83.37 167.05 83.89"/><polygon points="140.19 83.3 127.61 61.51 127.87 60.92 128.47 60.92 141.13 82.85 140.83 83.37 140.19 83.3"/><polygon points="142.18 80.52 131.01 61.18 131.46 60.92 131.91 60.67 143.07 80 142.63 80.26 142.18 80.52"/><polygon points="127.54 60.47 140.53 37.96 140.83 38.48 141.13 39 128.47 60.92 127.87 60.92 127.54 60.47"/><polygon points="140.53 37.96 166.45 37.96 166.75 38.48 166.45 39 141.13 39 140.83 38.48 140.53 37.96"/><polygon points="142.63 41.07 164.95 41.07 164.95 41.59 164.95 42.11 142.63 42.11 142.63 41.59 142.63 41.07"/><polygon points="166.45 37.96 175.93 21.54 176.38 21.8 176.83 22.06 167.35 38.48 166.75 38.48 166.45 37.96"/><g class="cls-1"><text class="cls-2" transform="translate(175.58 19.19)">N</text><text class="cls-2" transform="translate(183.83 19.19)">H</text><text class="cls-3" transform="translate(192.09 20.95)">2</text></g><polygon points="167.35 38.48 180.31 60.92 179.71 60.92 179.11 60.92 166.45 39 166.75 38.48 167.35 38.48"/><polygon points="127.61 61.51 103 66.74 102.52 66.31 102.67 65.75 127.54 60.47 127.87 60.92 127.61 61.51"/><polygon points="105.89 68.94 103.66 90.22 103.14 90.17 102.62 90.11 104.86 68.83 105.38 68.89 105.89 68.94"/><polygon points="103 66.74 100.36 91.77 99.81 92.09 99.25 92.41 101.98 66.52 102.52 66.31 103 66.74"/><polygon points="100.36 91.77 118.53 99.86 118.32 100.33 118.11 100.81 99.25 92.41 99.81 92.09 100.36 91.77"/><g class="cls-1"><text class="cls-2" transform="translate(119.36 107.26)">N</text></g><g class="cls-1"><text class="cls-2" transform="translate(119.36 117.7)">H</text></g><polygon points="128.26 96.55 140.19 83.3 140.83 83.37 141.06 83.89 129.03 97.24 128.65 96.9 128.26 96.55"/><polygon points="101.98 66.52 83.13 49.56 83.26 48.97 83.38 48.38 102.67 65.75 102.52 66.31 101.98 66.52"/><polygon points="83.13 49.56 59.05 57.38 58.61 56.98 58.73 56.4 83.38 48.38 83.26 48.97 83.13 49.56"/><polygon points="58.04 57.16 39.22 40.22 39.35 39.64 39.47 39.05 58.73 56.4 58.61 56.98 58.04 57.16"/><polygon points="37.13 40.09 41.48 19.62 41.99 19.73 42.5 19.84 38.15 40.3 37.64 40.19 37.13 40.09"/><polygon points="40.17 40.73 44.52 20.27 45.03 20.37 45.54 20.48 41.19 40.95 40.68 40.84 40.17 40.73"/><g class="cls-1"><text class="cls-2" transform="translate(40.29 18.91)">O</text></g><polygon points="39.22 40.22 20.34 46.36 20.18 45.87 20.02 45.37 39.47 39.05 39.35 39.64 39.22 40.22"/><g class="cls-1"><text class="cls-2" transform="translate(2 52.28)">H</text><text class="cls-2" transform="translate(10.25 52.28)">O</text></g><polygon points="59.05 57.38 54.95 76.67 54.45 76.57 53.94 76.46 58.04 57.16 58.61 56.98 59.05 57.38"/><g class="cls-1"><text class="cls-2" transform="translate(37.03 85.49)">H</text><text class="cls-3" transform="translate(45.28 87.25)">2</text><text class="cls-2" transform="translate(49.19 85.49)">N</text></g></svg>