<?xml version="1.0" encoding="UTF-8"?>
<svg id="_图层_1" data-name="图层 1" xmlns="http://www.w3.org/2000/svg" viewBox="0 0 200 130">
  <defs>
    <style>
      .cls-1 {
        font-size: 10.36px;
      }

      .cls-1, .cls-2, .cls-3, .cls-4 {
        isolation: isolate;
      }

      .cls-1, .cls-3, .cls-4 {
        font-family: ArialMT, Arial;
      }

      .cls-3 {
        font-size: 12.94px;
      }

      .cls-4 {
        font-size: 6.38px;
      }
    </style>
  </defs>
  <polygon points="169.85 11.37 194.26 28.83 193.64 29.1 193.02 29.39 169.72 12.72 169.79 12.04 169.85 11.37"/>
  <polygon points="169.72 15.61 190.28 30.31 189.94 30.78 189.6 31.26 169.04 16.57 169.39 16.1 169.72 15.61"/>
  <polygon points="194.26 28.83 191.35 58.69 190.8 58.29 190.25 57.91 193.02 29.39 193.64 29.1 194.26 28.83"/>
  <polygon points="191.35 58.69 164.57 70.85 164.09 70.43 164.15 69.76 190.25 57.91 190.8 58.29 191.35 58.69"/>
  <polygon points="187.73 56.47 164.73 66.91 164.49 66.39 164.24 65.85 187.25 55.4 187.49 55.94 187.73 56.47"/>
  <polygon points="163.4 70.65 140.24 54.1 140.23 53.37 140.85 53.09 164.15 69.76 164.09 70.43 163.4 70.65"/>
  <polygon points="139.67 53.05 142.53 23.78 143.08 24.18 143.63 24.58 140.85 53.09 140.23 53.37 139.67 53.05"/>
  <polygon points="143.36 51.63 145.8 26.49 146.39 26.54 146.97 26.6 144.52 51.74 143.94 51.69 143.36 51.63"/>
  <polygon points="142.53 23.78 169.85 11.37 169.79 12.04 169.72 12.72 143.63 24.58 143.08 24.18 142.53 23.78"/>
  <polygon points="140.24 54.1 117.33 71.01 116.64 70.78 116.54 70.14 139.67 53.05 140.23 53.37 140.24 54.1"/>
  <polygon points="121.34 71.92 129.01 94.89 128.44 95.07 127.89 95.25 120.23 72.28 120.79 72.1 121.34 71.92"/>
  <polygon points="117.33 71.01 126.33 98.02 125.92 98.61 125.49 99.2 116.18 71.25 116.64 70.78 117.33 71.01"/>
  <polygon points="126.33 98.02 149.4 97.85 149.4 98.43 149.4 99.02 125.49 99.2 125.92 98.61 126.33 98.02"/>
  <g class="cls-2">
    <text class="cls-3" transform="translate(159.84 103.91) rotate(-179.33)"><tspan x="0" y="0">H</tspan></text>
  </g>
  <g class="cls-2">
    <text class="cls-3" transform="translate(159.98 92.1) rotate(-179.33)"><tspan x="0" y="0">N</tspan></text>
  </g>
  <polygon points="156.74 91.71 163.4 70.65 164.09 70.43 164.57 70.85 157.86 92.07 157.3 91.89 156.74 91.71"/>
  <polygon points="116.18 71.25 88.82 62.6 88.68 61.93 88.54 61.28 116.54 70.14 116.64 70.78 116.18 71.25"/>
  <polygon points="88.82 62.6 67.68 81.93 67.03 81.73 66.89 81.06 88.54 61.28 88.68 61.93 88.82 62.6"/>
  <polygon points="66.53 82.19 39.22 73.54 39.07 72.87 38.93 72.21 66.89 81.06 67.03 81.73 66.53 82.19"/>
  <polygon points="37 74.37 31.91 51.27 32.48 51.15 33.06 51.02 38.15 74.12 37.57 74.25 37 74.37"/>
  <polygon points="40.44 73.61 35.35 50.52 35.92 50.4 36.49 50.27 41.59 73.36 41.01 73.48 40.44 73.61"/>
  <g class="cls-2">
    <text class="cls-3" transform="translate(37.85 39.06) rotate(-179.33)"><tspan x="0" y="0">O</tspan></text>
  </g>
  <polygon points="39.22 73.54 24.1 87.36 23.7 86.92 23.3 86.49 38.93 72.21 39.07 72.87 39.22 73.54"/>
  <g class="cls-2">
    <text class="cls-3" transform="translate(22.52 87.48) rotate(-179.33)"><tspan x="0" y="0">O</tspan></text>
    <text class="cls-3" transform="translate(12.46 87.36) rotate(-179.33)"><tspan x="0" y="0">H</tspan></text>
  </g>
  <polygon points="67.68 81.93 72.48 103.69 71.91 103.82 71.33 103.95 66.53 82.19 67.03 81.73 67.68 81.93"/>
  <g class="cls-2">
    <text class="cls-1" transform="translate(69.16 112.85)"><tspan x="0" y="0">N</tspan></text>
    <text class="cls-1" transform="translate(76.64 112.85)"><tspan x="0" y="0">H</tspan></text>
    <text class="cls-4" transform="translate(84.12 114.44)"><tspan x="0" y="0">2</tspan></text>
  </g>
</svg>