<svg id="图层_1" data-name="图层 1" xmlns="http://www.w3.org/2000/svg" viewBox="0 0 200 130"><defs><style>.cls-1,.cls-2,.cls-3{isolation:isolate;}.cls-2{font-size:12.17px;}.cls-2,.cls-3{font-family:ArialMT, Arial;}.cls-3{font-size:7.49px;}</style></defs><polygon points="192.83 61.19 178.71 85.65 178.39 85.09 178.07 84.54 191.55 61.19 192.19 61.19 192.83 61.19"/><polygon points="188.84 61.47 176.95 82.06 176.47 81.78 176 81.51 187.89 60.91 188.37 61.19 188.84 61.47"/><polygon points="178.71 85.65 151.03 85.65 150.78 85.09 151.1 84.54 178.07 84.54 178.39 85.09 178.71 85.65"/><polygon points="150.1 85.02 136.71 61.81 136.98 61.19 137.62 61.19 151.1 84.54 150.78 85.09 150.1 85.02"/><polygon points="152.22 82.06 140.33 61.47 140.81 61.19 141.28 60.91 153.18 81.51 152.7 81.78 152.22 82.06"/><polygon points="136.63 60.7 150.47 36.73 150.78 37.28 151.1 37.84 137.62 61.19 136.98 61.19 136.63 60.7"/><polygon points="150.47 36.73 178.07 36.73 178.39 37.28 178.07 37.84 151.1 37.84 150.78 37.28 150.47 36.73"/><polygon points="152.7 40.04 176.48 40.04 176.48 40.59 176.48 41.15 152.7 41.15 152.7 40.59 152.7 40.04"/><polygon points="178.07 36.73 188.17 19.24 188.65 19.52 189.12 19.79 179.03 37.28 178.39 37.28 178.07 36.73"/><g class="cls-1"><text class="cls-2" transform="translate(186.44 18.31)">Cl</text></g><polygon points="179.03 37.28 192.83 61.19 192.19 61.19 191.55 61.19 178.07 37.84 178.39 37.28 179.03 37.28"/><polygon points="136.71 61.81 110.49 67.38 109.98 66.93 110.14 66.33 136.63 60.7 136.98 61.19 136.71 61.81"/><polygon points="113.57 69.72 111.19 92.39 110.64 92.33 110.09 92.28 112.47 69.61 113.02 69.67 113.57 69.72"/><polygon points="110.49 67.38 107.69 94.04 107.1 94.38 106.5 94.72 109.4 67.15 109.98 66.93 110.49 67.38"/><polygon points="107.69 94.04 127.04 102.66 126.81 103.16 126.59 103.66 106.5 94.72 107.1 94.38 107.69 94.04"/><g class="cls-1"><text class="cls-2" transform="translate(127.92 110.54)">N</text></g><g class="cls-1"><text class="cls-2" transform="translate(127.92 121.65)">H</text></g><polygon points="137.4 99.13 150.1 85.02 150.78 85.09 151.03 85.65 138.22 99.87 137.81 99.5 137.4 99.13"/><polygon points="109.4 67.15 89.33 49.08 89.47 48.46 89.6 47.83 110.14 66.33 109.98 66.93 109.4 67.15"/><polygon points="89.33 49.08 63.69 57.41 63.22 56.99 63.35 56.36 89.6 47.83 89.47 48.46 89.33 49.08"/><polygon points="62.61 57.18 42.57 39.14 42.7 38.52 42.83 37.89 63.35 56.36 63.22 56.99 62.61 57.18"/><polygon points="40.34 38.99 44.98 17.2 45.52 17.31 46.05 17.43 41.42 39.22 40.88 39.11 40.34 38.99"/><polygon points="43.58 39.68 48.22 17.89 48.76 18 49.3 18.11 44.66 39.91 44.12 39.8 43.58 39.68"/><g class="cls-1"><text class="cls-2" transform="translate(43.7 16.45)">O</text></g><polygon points="42.57 39.14 22.46 45.67 22.29 45.15 22.12 44.62 42.83 37.89 42.7 38.52 42.57 39.14"/><g class="cls-1"><text class="cls-2" transform="translate(2.92 51.98)">H</text><text class="cls-2" transform="translate(11.71 51.98)">O</text></g><polygon points="63.69 57.41 59.32 77.96 58.78 77.85 58.24 77.73 62.61 57.18 63.22 56.99 63.69 57.41"/><g class="cls-1"><text class="cls-2" transform="translate(40.23 87.35)">H</text><text class="cls-3" transform="translate(49.02 89.22)">2</text><text class="cls-2" transform="translate(53.19 87.35)">N</text></g></svg>