<svg id="图层_1" data-name="图层 1" xmlns="http://www.w3.org/2000/svg" viewBox="0 0 200 130"><defs><style>.cls-1,.cls-2{isolation:isolate;}.cls-2{font-size:7.99px;font-family:ArialMT, Arial;}</style></defs><polygon points="170.86 4.44 170.88 22.76 170.51 22.55 170.15 22.34 170.13 4.44 170.5 4.44 170.86 4.44"/><polygon points="170.88 22.76 155.2 31.83 154.84 31.62 154.48 31.41 170.15 22.34 170.51 22.55 170.88 22.76"/><polygon points="155.2 31.83 155.22 49.94 154.86 49.73 154.5 49.52 154.48 31.41 154.84 31.62 155.2 31.83"/><polygon points="155.22 49.94 139.55 59.01 139.19 58.8 138.82 58.59 154.5 49.52 154.86 49.73 155.22 49.94"/><polygon points="139.55 59.01 139.56 72.88 139.2 72.88 138.84 72.88 138.82 58.59 139.19 58.8 139.55 59.01"/><g class="cls-1"><text class="cls-2" transform="translate(136.32 80.14)">N</text><text class="cls-2" transform="translate(142.09 80.14)">H</text></g><polygon points="135.78 79.31 123.89 86.19 123.53 85.98 123.17 85.77 135.42 78.68 135.6 79 135.78 79.31"/><polygon points="112.39 77.89 124.8 85.04 124.62 85.35 124.44 85.67 112.03 78.52 112.21 78.21 112.39 77.89"/><polygon points="111.31 79.78 123.71 86.92 123.53 87.23 123.35 87.55 110.95 80.4 111.13 80.09 111.31 79.78"/><g class="cls-1"><text class="cls-2" transform="translate(104.73 80.18)">O</text></g><polygon points="123.89 86.19 123.91 103.88 123.55 104.09 123.19 103.85 123.17 85.77 123.53 85.98 123.89 86.19"/><polygon points="107.73 110.48 123.19 103.85 123.55 104.09 123.53 104.49 108.02 111.15 107.87 110.81 107.73 110.48"/><polygon points="107.85 112.73 121.3 102.63 121.52 102.92 121.73 103.21 107.9 113.59 107.88 113.16 107.85 112.73"/><polygon points="107.9 113.59 92.18 104.54 92.18 104.12 92.55 103.91 107.85 112.73 107.88 113.16 107.9 113.59"/><polygon points="92.53 85.8 92.55 103.91 92.18 104.12 91.82 103.91 91.8 86.22 92.17 86.01 92.53 85.8"/><polygon points="90.36 87.27 90.37 102.87 90.01 102.87 89.65 102.87 89.63 87.27 89.99 87.27 90.36 87.27"/><polygon points="91.8 86.22 76.47 77.39 76.47 76.97 76.83 76.77 92.53 85.8 92.17 86.01 91.8 86.22"/><polygon points="60.8 85.63 76.11 76.77 76.47 76.97 76.47 77.39 61.16 86.25 60.8 86.05 60.8 85.63"/><polygon points="62.79 86.98 76.29 79.17 76.47 79.48 76.66 79.8 63.15 87.61 62.97 87.3 62.79 86.98"/><polygon points="61.16 86.25 61.18 103.95 60.82 104.16 60.45 103.95 60.44 86.25 60.8 86.05 61.16 86.25"/><polygon points="76.51 113.61 60.82 104.57 60.82 104.16 61.18 103.95 76.51 112.78 76.51 113.19 76.51 113.61"/><polygon points="76.33 111 62.81 103.21 62.99 102.9 63.17 102.58 76.69 110.37 76.51 110.68 76.33 111"/><polygon points="76.51 112.78 91.82 103.91 92.18 104.12 92.18 104.54 76.51 113.61 76.51 113.19 76.51 112.78"/><polygon points="60.82 104.57 45.14 113.64 45.14 113.23 45.14 112.81 60.45 103.95 60.82 104.16 60.82 104.57"/><polygon points="45.14 113.64 29.09 104.4 29.45 104.19 29.81 103.98 45.14 112.81 45.14 113.23 45.14 113.64"/><polygon points="29.09 104.4 29.07 85.87 29.43 86.08 29.79 86.29 29.81 103.98 29.45 104.19 29.09 104.4"/><polygon points="29.07 85.87 41.32 78.78 41.5 79.09 41.68 79.41 29.79 86.29 29.43 86.08 29.07 85.87"/><g class="cls-1"><text class="cls-2" transform="translate(42.22 80.24)">N</text></g><polygon points="44.74 72.98 44.72 58.69 45.09 58.9 45.45 59.11 45.46 72.98 45.1 72.98 44.74 72.98"/><polygon points="44.72 58.69 60.76 49.41 60.76 49.83 60.76 50.24 45.45 59.11 45.09 58.9 44.72 58.69"/><polygon points="60.76 49.41 76.81 58.66 76.45 58.87 76.09 59.08 60.76 50.24 60.76 49.83 60.76 49.41"/><polygon points="76.81 58.66 76.83 76.77 76.47 76.97 76.11 76.77 76.09 59.08 76.45 58.87 76.81 58.66"/><polygon points="48.89 78.77 60.8 85.63 60.8 86.05 60.44 86.25 48.53 79.4 48.71 79.08 48.89 78.77"/><polygon points="123.91 103.88 139.42 112.81 139.24 113.13 139.06 113.44 123.53 104.49 123.55 104.09 123.91 103.88"/><polygon points="140.51 110.93 152.59 117.89 152.41 118.2 152.23 118.52 140.15 111.56 140.33 111.24 140.51 110.93"/><polygon points="139.42 112.81 151.51 119.77 151.33 120.09 151.15 120.4 139.06 113.44 139.24 113.13 139.42 112.81"/><polygon points="138.34 114.7 150.43 121.66 150.24 121.97 150.06 122.28 137.98 115.32 138.16 115.01 138.34 114.7"/><g class="cls-1"><text class="cls-2" transform="translate(152.05 125.4)">N</text></g></svg>