<svg id="图层_1" data-name="图层 1" xmlns="http://www.w3.org/2000/svg" viewBox="0 0 200 130"><defs><style>.cls-1,.cls-2,.cls-3{isolation:isolate;}.cls-2{font-size:10.63px;}.cls-2,.cls-3{font-family:ArialMT, Arial;}.cls-3{font-size:6.54px;}</style></defs><polygon points="100.9 75.64 121.78 63.59 121.78 64.14 121.78 64.7 100.9 76.75 100.9 76.2 100.9 75.64"/><polygon points="121.78 63.59 142.66 75.64 142.66 76.2 142.18 76.47 121.78 64.7 121.78 64.14 121.78 63.59"/><polygon points="142.66 75.64 163.54 63.59 163.54 64.14 163.54 64.7 143.14 76.47 142.66 76.2 142.66 75.64"/><polygon points="161.61 64.98 161.61 45.4 162.09 45.4 162.57 45.4 162.57 64.98 162.09 64.98 161.61 64.98"/><polygon points="164.5 64.98 164.5 45.4 164.99 45.4 165.47 45.4 165.47 64.98 164.99 64.98 164.5 64.98"/><g class="cls-1"><text class="cls-2" transform="translate(159.4 44.34)">O</text></g><polygon points="163.54 63.59 179.56 72.83 179.32 73.25 179.08 73.67 163.54 64.7 163.54 64.14 163.54 63.59"/><g class="cls-1"><text class="cls-2" transform="translate(180.28 80.5)">O</text><text class="cls-2" transform="translate(188.55 80.5)">H</text></g><polygon points="143.14 76.47 143.14 94.94 142.66 94.94 142.18 94.94 142.18 76.47 142.66 76.2 143.14 76.47"/><g class="cls-1"><text class="cls-2" transform="translate(138.82 103.24)">N</text><text class="cls-2" transform="translate(146.5 103.24)">H</text><text class="cls-3" transform="translate(154.18 104.88)">2</text></g><polygon points="100.9 76.75 80.02 64.7 80.02 64.14 80.02 63.59 100.9 75.64 100.9 76.2 100.9 76.75"/><polygon points="80.02 64.7 64.19 73.84 63.95 73.42 63.71 73 80.02 63.59 80.02 64.14 80.02 64.7"/><g class="cls-1"><text class="cls-2" transform="translate(55.31 80.5)">N</text></g><g class="cls-1"><text class="cls-2" transform="translate(55.31 90.21)">H</text></g><polygon points="54.1 73.84 38.27 64.7 38.27 64.14 38.27 63.59 54.58 73 54.34 73.42 54.1 73.84"/><polygon points="36.34 64.98 36.34 45.4 36.82 45.4 37.3 45.4 37.3 64.98 36.82 64.98 36.34 64.98"/><polygon points="39.23 64.98 39.23 45.4 39.71 45.4 40.2 45.4 40.2 64.98 39.71 64.98 39.23 64.98"/><g class="cls-1"><text class="cls-2" transform="translate(34.72 44.34)">S</text></g><polygon points="38.27 64.7 22.43 73.84 22.19 73.42 21.95 73 38.27 63.59 38.27 64.14 38.27 64.7"/><g class="cls-1"><text class="cls-2" transform="translate(2.33 79.13)">H</text><text class="cls-3" transform="translate(10 80.77)">2</text><text class="cls-2" transform="translate(13.64 79.13)">N</text></g></svg>