<svg id="图层_1" data-name="图层 1" xmlns="http://www.w3.org/2000/svg" viewBox="0 0 200 130">
  <defs>
    <style>
      .cls-1, .cls-2, .cls-3, .cls-4 {
        isolation: isolate;
      }

      .cls-2, .cls-3 {
        font-size: 8.51px;
      }

      .cls-2, .cls-3, .cls-4 {
        font-family: ArialMT, Arial;
      }

      .cls-3 {
        letter-spacing: -0.02em;
      }

      .cls-4 {
        font-size: 5.24px;
      }
    </style>
  </defs>
  <polygon points="153.03 23.65 165.86 31.46 165.66 31.79 165.46 32.12 153.01 24.54 153.02 24.09 153.03 23.65"/>
  <polygon points="153.16 26.44 164.66 33.44 164.46 33.77 164.26 34.1 152.76 27.09 152.96 26.77 153.16 26.44"/>
  <g class="cls-1">
    <text class="cls-2" transform="translate(166.44 37.58)">N</text>
  </g>
  <polygon points="169.79 38.44 169.44 53.22 169.05 53.43 168.67 53.2 169.02 38.42 169.41 38.43 169.79 38.44"/>
  <polygon points="169.04 53.88 152.45 62.95 152.11 62.69 152.12 62.24 168.67 53.2 169.05 53.43 169.04 53.88"/>
  <polygon points="166.95 52.38 152.36 60.35 152.18 60.02 151.99 59.68 166.58 51.7 166.77 52.04 166.95 52.38"/>
  <polygon points="151.67 62.87 135.66 53.12 135.63 52.65 136.02 52.43 152.12 62.24 152.11 62.69 151.67 62.87"/>
  <polygon points="135.24 52.47 135.59 37.63 135.98 37.64 136.37 37.65 136.02 52.43 135.63 52.65 135.24 52.47"/>
  <polygon points="137.59 51.35 137.91 37.69 138.3 37.7 138.68 37.7 138.36 51.37 137.97 51.36 137.59 51.35"/>
  <g class="cls-1">
    <text class="cls-2" transform="translate(133.01 36.79)">N</text>
  </g>
  <polygon points="139.74 30.91 153.03 23.65 153.02 24.09 153.01 24.54 140.11 31.59 139.93 31.25 139.74 30.91"/>
  <polygon points="135.66 53.12 125.08 62.21 124.83 61.92 124.57 61.63 135.24 52.47 135.63 52.65 135.66 53.12"/>
  <g class="cls-1">
    <text class="cls-2" transform="translate(117.91 68.67)">N</text>
  </g>
  <polygon points="123.13 69.37 128.66 82.63 128.41 83.04 128.16 83.44 122.41 69.66 122.77 69.52 123.13 69.37"/>
  <polygon points="129.87 80.21 143.59 79.09 143.62 79.48 143.65 79.86 129.93 80.98 129.9 80.59 129.87 80.21"/>
  <polygon points="128.66 82.63 143.78 81.4 143.81 81.78 143.84 82.17 128.16 83.44 128.41 83.04 128.66 82.63"/>
  <g class="cls-1">
    <text class="cls-2" transform="translate(144.58 84.92)">N</text>
  </g>
  <polygon points="148.3 77.09 151.67 62.87 152.11 62.69 152.45 62.95 149.05 77.27 148.67 77.18 148.3 77.09"/>
  <polygon points="102.47 60.41 117.53 62.62 117.13 64.31 116.73 66 102.28 61.2 102.2 60.76 102.47 60.41"/>
  <polygon points="102.28 61.2 87.8 73.63 87.55 73.34 87.51 72.86 101.73 60.65 102.2 60.76 102.28 61.2"/>
  <polygon points="87.35 73.67 70.86 63.63 71.06 63.3 71.5 63.11 87.51 72.86 87.55 73.34 87.35 73.67"/>
  <polygon points="70.69 63.21 75.1 44.63 75.52 44.51 75.83 44.87 71.5 63.11 71.06 63.3 70.69 63.21"/>
  <polygon points="75.7 44.11 90.65 42.9 90.68 43.28 90.71 43.66 75.83 44.87 75.52 44.51 75.7 44.11"/>
  <g class="cls-1">
    <text class="cls-2" transform="translate(91.45 46.4)">O</text>
  </g>
  <polygon points="96.91 47.09 102.47 60.41 102.2 60.76 101.73 60.65 96.2 47.39 96.55 47.24 96.91 47.09"/>
  <polygon points="75.1 44.63 61.22 30.58 62.95 29.87 64.58 29.16 75.7 44.11 75.52 44.51 75.1 44.63"/>
  <polygon points="61.22 30.58 48.13 33.05 48.06 32.66 47.99 32.29 64.58 29.16 62.95 29.87 61.22 30.58"/>
  <g class="cls-1">
    <text class="cls-2" transform="translate(34.52 36.88)">H</text>
    <text class="cls-2" transform="translate(40.66 36.88)">O</text>
  </g>
  <polygon points="70.84 62.92 71.17 63.71 70.82 63.86 70.46 64.01 70.13 63.22 70.49 63.07 70.84 62.92"/>
  <polygon points="68.6 63.63 69.09 64.81 68.74 64.96 68.38 65.11 67.89 63.93 68.25 63.78 68.6 63.63"/>
  <polygon points="66.36 64.33 67.01 65.91 66.66 66.06 66.3 66.2 65.65 64.63 66 64.48 66.36 64.33"/>
  <polygon points="64.11 65.04 64.94 67.01 64.58 67.15 64.22 67.3 63.4 65.34 63.76 65.19 64.11 65.04"/>
  <polygon points="61.87 65.75 62.86 68.1 62.5 68.25 62.14 68.4 61.16 66.04 61.52 65.89 61.87 65.75"/>
  <polygon points="59.63 66.45 60.78 69.2 60.42 69.35 60.06 69.5 58.92 66.75 59.27 66.6 59.63 66.45"/>
  <polygon points="57.39 67.16 58.7 70.3 58.34 70.45 57.98 70.6 56.67 67.45 57.03 67.31 57.39 67.16"/>
  <g class="cls-1">
    <text class="cls-2" transform="translate(49.94 74.18)">O</text>
  </g>
  <polygon points="49.35 73.34 33.84 81.97 33.66 81.63 33.47 81.29 48.98 72.66 49.16 73 49.35 73.34"/>
  <g class="cls-1">
    <text class="cls-3" transform="translate(27.21 87.09)">P</text>
  </g>
  <polygon points="32.69 87.53 35.38 97.59 35.01 97.69 34.64 97.79 31.94 87.73 32.31 87.63 32.69 87.53"/>
  <polygon points="30.45 88.13 33.14 98.19 32.77 98.29 32.4 98.39 29.7 88.33 30.07 88.23 30.45 88.13"/>
  <g class="cls-1">
    <text class="cls-2" transform="translate(31.73 105.73)">O</text>
  </g>
  <polygon points="28.52 79.44 25.82 69.39 26.2 69.29 26.57 69.19 29.27 79.25 28.89 79.34 28.52 79.44"/>
  <g class="cls-1">
    <text class="cls-2" transform="translate(15.59 68.44)">H</text>
    <text class="cls-2" transform="translate(21.74 68.44)">O</text>
  </g>
  <polygon points="26.53 84.98 15.58 87.91 15.48 87.54 15.38 87.17 26.33 84.23 26.43 84.61 26.53 84.98"/>
  <g class="cls-1">
    <text class="cls-2" transform="translate(1.94 92.08)">H</text>
    <text class="cls-2" transform="translate(8.09 92.08)">O</text>
  </g>
  <polygon points="87.13 73.43 87.98 73.36 88.01 73.75 88.04 74.13 87.19 74.2 87.16 73.82 87.13 73.43"/>
  <polygon points="87.11 75.8 88.38 75.7 88.41 76.08 88.44 76.47 87.17 76.57 87.14 76.19 87.11 75.8"/>
  <polygon points="87.09 78.17 88.79 78.04 88.82 78.42 88.85 78.81 87.15 78.94 87.12 78.56 87.09 78.17"/>
  <polygon points="87.07 80.54 89.19 80.37 89.22 80.76 89.25 81.14 87.13 81.31 87.1 80.93 87.07 80.54"/>
  <polygon points="87.05 82.92 89.59 82.71 89.62 83.09 89.66 83.48 87.11 83.69 87.08 83.3 87.05 82.92"/>
  <polygon points="87.03 85.29 90 85.04 90.03 85.43 90.06 85.81 87.09 86.06 87.06 85.67 87.03 85.29"/>
  <polygon points="87 87.66 90.4 87.38 90.43 87.77 90.46 88.15 87.07 88.43 87.04 88.04 87 87.66"/>
  <g class="cls-1">
    <text class="cls-2" transform="translate(85.8 96.03)">O</text>
    <text class="cls-2" transform="translate(92.42 96.03)">H</text>
  </g>
  <polygon points="169.44 53.22 181.9 60.81 181.69 61.13 181.49 61.47 169.04 53.88 169.05 53.43 169.44 53.22"/>
  <g class="cls-1">
    <text class="cls-2" transform="translate(182.47 65.83)">N</text>
    <text class="cls-2" transform="translate(188.61 65.83)">H</text>
    <text class="cls-4" transform="translate(194.76 67.14)">2</text>
  </g>
</svg>
