<svg id="图层_1" data-name="图层 1" xmlns="http://www.w3.org/2000/svg" viewBox="0 0 200 130">
  <defs>
    <style>
      .cls-1, .cls-2, .cls-3, .cls-4 {
        isolation: isolate;
      }

      .cls-2, .cls-3 {
        font-size: 7.6px;
      }

      .cls-2, .cls-3, .cls-4 {
        font-family: ArialMT, Arial;
      }

      .cls-3 {
        letter-spacing: -0.02em;
      }

      .cls-4 {
        font-size: 4.68px;
      }
    </style>
  </defs>
  <polygon points="156.89 24.51 168.16 31.7 167.97 32 167.78 32.29 156.86 25.31 156.88 24.91 156.89 24.51"/>
  <polygon points="156.95 27.01 167.04 33.45 166.86 33.74 166.67 34.03 156.58 27.59 156.77 27.3 156.95 27.01"/>
  <g class="cls-1">
    <text class="cls-2" transform="translate(168.66 37.27)">N</text>
  </g>
  <polygon points="171.58 38.04 170.99 51.23 170.63 51.41 170.3 51.2 170.89 38.01 171.23 38.02 171.58 38.04"/>
  <polygon points="170.62 51.81 155.63 59.59 155.33 59.35 155.35 58.96 170.3 51.2 170.63 51.41 170.62 51.81"/>
  <polygon points="168.78 50.43 155.6 57.27 155.44 56.97 155.28 56.66 168.46 49.82 168.62 50.13 168.78 50.43"/>
  <polygon points="154.94 59.51 140.83 50.5 140.81 50.08 141.16 49.89 155.35 58.96 155.33 59.35 154.94 59.51"/>
  <polygon points="140.47 49.91 141.06 36.67 141.4 36.69 141.75 36.7 141.16 49.89 140.81 50.08 140.47 49.91"/>
  <polygon points="142.58 48.96 143.13 36.77 143.47 36.78 143.81 36.8 143.27 48.99 142.93 48.98 142.58 48.96"/>
  <g class="cls-1">
    <text class="cls-2" transform="translate(138.83 35.93)">N</text>
  </g>
  <polygon points="144.85 30.77 156.89 24.51 156.88 24.91 156.86 25.31 145.17 31.38 145.01 31.07 144.85 30.77"/>
  <polygon points="140.83 50.5 131.14 58.47 130.93 58.2 130.71 57.94 140.47 49.91 140.81 50.08 140.83 50.5"/>
  <g class="cls-1">
    <text class="cls-2" transform="translate(124.75 64.11)">N</text>
  </g>
  <polygon points="129.32 64.73 134.02 76.71 133.79 77.07 133.56 77.43 128.68 64.99 129 64.86 129.32 64.73"/>
  <polygon points="135.15 74.57 147.42 73.84 147.44 74.18 147.46 74.53 135.19 75.26 135.17 74.92 135.15 74.57"/>
  <polygon points="134.02 76.71 147.54 75.9 147.57 76.25 147.59 76.59 133.56 77.43 133.79 77.07 134.02 76.71"/>
  <g class="cls-1">
    <text class="cls-2" transform="translate(148.25 79.12)">N</text>
  </g>
  <polygon points="151.66 72.12 154.94 59.51 155.33 59.35 155.63 59.59 152.33 72.29 152 72.2 151.66 72.12"/>
  <polygon points="123.97 60.47 114.36 57.97 114.45 57.64 114.54 57.31 124.14 59.8 124.06 60.13 123.97 60.47"/>
  <g class="cls-1">
    <text class="cls-2" transform="translate(107.85 59.77)">O</text>
  </g>
  <polygon points="98.57 68.61 106.05 59.31 107.16 60.4 108.26 61.48 99.08 69.11 98.71 68.97 98.57 68.61"/>
  <polygon points="99.08 69.11 101.84 85.73 101.54 85.98 101.16 85.79 98.41 69.28 98.71 68.97 99.08 69.11"/>
  <polygon points="101.52 86.38 86.39 94.23 86.24 93.92 86.3 93.5 101.16 85.79 101.54 85.98 101.52 86.38"/>
  <polygon points="85.99 94.17 73.85 82.21 73.95 81.83 74.37 81.76 86.3 93.5 86.24 93.92 85.99 94.17"/>
  <polygon points="73.73 81.5 79.44 70.09 79.75 70.24 80.05 70.4 74.37 81.76 73.95 81.83 73.73 81.5"/>
  <g class="cls-1">
    <text class="cls-2" transform="translate(78.7 69.49)">O</text>
  </g>
  <polygon points="85.36 66.62 98.57 68.61 98.71 68.97 98.41 69.28 85.26 67.3 85.31 66.96 85.36 66.62"/>
  <polygon points="73.85 82.21 57.67 86.07 56.95 84.66 56.17 83.17 73.73 81.5 73.95 81.83 73.85 82.21"/>
  <polygon points="57.67 86.07 48.88 75.39 49.15 75.17 49.42 74.96 56.17 83.17 56.95 84.66 57.67 86.07"/>
  <g class="cls-1">
    <text class="cls-2" transform="translate(43.04 74.42)">O</text>
  </g>
  <polygon points="42.41 72.29 32.27 73.97 32.22 73.63 32.16 73.29 42.29 71.61 42.35 71.95 42.41 72.29"/>
  <g class="cls-1">
    <text class="cls-3" transform="translate(26.45 77.25)">P</text>
  </g>
  <polygon points="26.99 70.56 25.44 61.22 25.78 61.17 26.12 61.11 27.67 70.45 27.33 70.5 26.99 70.56"/>
  <polygon points="29.03 70.22 27.48 60.88 27.82 60.83 28.16 60.77 29.71 70.11 29.37 70.16 29.03 70.22"/>
  <g class="cls-1">
    <text class="cls-2" transform="translate(23.21 60.24)">O</text>
  </g>
  <polygon points="29.97 77.95 31.52 87.28 31.18 87.34 30.84 87.4 29.29 78.06 29.63 78 29.97 77.95"/>
  <g class="cls-1">
    <text class="cls-2" transform="translate(28.86 94.25)">O</text>
    <text class="cls-2" transform="translate(34.77 94.25)">H</text>
  </g>
  <polygon points="25.82 75.04 15.69 76.73 15.63 76.39 15.57 76.05 25.71 74.36 25.77 74.7 25.82 75.04"/>
  <g class="cls-1">
    <text class="cls-2" transform="translate(3.54 80.07)">H</text>
    <text class="cls-2" transform="translate(9.03 80.07)">O</text>
  </g>
  <polygon points="85.85 93.92 86.6 94.03 86.55 94.37 86.5 94.72 85.75 94.6 85.8 94.26 85.85 93.92"/>
  <polygon points="85.35 95.97 86.48 96.14 86.43 96.48 86.38 96.82 85.25 96.65 85.3 96.31 85.35 95.97"/>
  <polygon points="84.85 98.02 86.35 98.25 86.3 98.59 86.25 98.93 84.75 98.7 84.8 98.36 84.85 98.02"/>
  <polygon points="84.35 100.08 86.23 100.36 86.18 100.7 86.13 101.04 84.25 100.76 84.3 100.42 84.35 100.08"/>
  <polygon points="83.85 102.13 86.1 102.47 86.05 102.81 86 103.15 83.75 102.81 83.8 102.47 83.85 102.13"/>
  <polygon points="83.35 104.18 85.98 104.58 85.93 104.92 85.88 105.26 83.24 104.86 83.3 104.52 83.35 104.18"/>
  <polygon points="82.84 106.23 85.85 106.68 85.8 107.02 85.75 107.36 82.74 106.91 82.79 106.57 82.84 106.23"/>
  <g class="cls-1">
    <text class="cls-2" transform="translate(75.22 114.05)">H</text>
    <text class="cls-2" transform="translate(80.71 114.05)">O</text>
  </g>
  <polygon points="101.84 85.73 114 90.48 113.31 91.87 112.61 93.25 101.52 86.38 101.54 85.98 101.84 85.73"/>
  <g class="cls-1">
    <text class="cls-2" transform="translate(114 96.77)">O</text>
    <text class="cls-2" transform="translate(119.91 96.77)">H</text>
  </g>
  <polygon points="170.99 51.23 181.91 58.2 181.73 58.5 181.54 58.79 170.62 51.81 170.63 51.41 170.99 51.23"/>
  <g class="cls-1">
    <text class="cls-2" transform="translate(182.42 62.79)">N</text>
    <text class="cls-2" transform="translate(187.91 62.79)">H</text>
    <text class="cls-4" transform="translate(193.4 63.96)">2</text>
  </g>
</svg>
