<svg id="图层_1" data-name="图层 1" xmlns="http://www.w3.org/2000/svg" viewBox="0 0 200 130">
  <defs>
    <style>
      .cls-1, .cls-2, .cls-3 {
        isolation: isolate;
      }

      .cls-2, .cls-3 {
        font-size: 9.33px;
        font-family: ArialMT, Arial;
      }

      .cls-3 {
        letter-spacing: -0.02em;
      }
    </style>
  </defs>
  <polygon points="161.11 50.99 147.39 57.22 147.22 56.83 147.04 56.45 160.76 50.22 160.94 50.6 161.11 50.99"/>
  <polygon points="161.17 48.17 146.34 54.91 146.17 54.52 145.99 54.13 161.27 47.2 161.22 47.68 161.17 48.17"/>
  <g class="cls-1">
    <text class="cls-2" transform="translate(138.58 60.21)">N</text>
  </g>
  <polygon points="141.91 61.18 140.34 77.3 139.9 77.5 139.49 77.27 141.07 61.1 141.49 61.14 141.91 61.18"/>
  <polygon points="140.34 77.3 157.16 89.32 157.11 89.81 156.61 89.98 139.9 78.02 139.9 77.5 140.34 77.3"/>
  <polygon points="140.16 80.29 154.38 90.46 154.13 90.8 153.88 91.15 139.67 80.98 139.92 80.64 140.16 80.29"/>
  <polygon points="157.16 89.32 175.98 80.77 176.38 81.06 176.33 81.55 157.46 90.12 157.11 89.81 157.16 89.32"/>
  <polygon points="173.57 79.31 175.03 64.41 175.45 64.45 175.87 64.5 174.41 79.39 173.99 79.35 173.57 79.31"/>
  <polygon points="175.98 80.77 177.55 64.66 177.97 64.7 178.4 64.74 176.82 80.86 176.38 81.06 175.98 80.77"/>
  <g class="cls-1">
    <text class="cls-2" transform="translate(175.06 63.77)">N</text>
  </g>
  <polygon points="173.97 57.32 161.17 48.17 161.22 47.68 161.27 47.2 174.47 56.63 174.22 56.98 173.97 57.32"/>
  <polygon points="176.82 80.86 188.59 89.27 188.34 89.61 188.09 89.96 176.33 81.55 176.38 81.06 176.82 80.86"/>
  <g class="cls-1">
    <text class="cls-2" transform="translate(189.19 97.15)">Cl</text>
  </g>
  <polygon points="157.46 90.12 152.61 105.41 152.21 105.28 151.81 105.15 156.61 89.98 157.11 89.81 157.46 90.12"/>
  <g class="cls-1">
    <text class="cls-2" transform="translate(147.35 113.77)">N</text>
  </g>
  <polygon points="146.51 110.44 129.25 110.57 129.56 110.14 129.86 109.72 146.5 109.59 146.5 110.02 146.51 110.44"/>
  <polygon points="146.49 107.9 131.38 108.01 131.38 107.59 131.38 107.17 146.48 107.06 146.48 107.48 146.49 107.9"/>
  <polygon points="129.25 110.57 124.03 94.91 124.43 94.77 124.84 94.64 129.86 109.72 129.56 110.14 129.25 110.57"/>
  <g class="cls-1">
    <text class="cls-2" transform="translate(119.5 93.84)">N</text>
  </g>
  <polygon points="103.02 83.32 119.22 86.91 118.65 88.73 118.08 90.55 102.75 84.16 102.69 83.67 103.02 83.32"/>
  <polygon points="102.75 84.16 85.91 96.58 85.66 96.24 85.66 95.72 102.19 83.52 102.69 83.67 102.75 84.16"/>
  <polygon points="85.41 96.59 68.39 84.41 68.45 83.93 68.94 83.77 85.66 95.72 85.66 96.24 85.41 96.59"/>
  <polygon points="68.11 83.58 74.43 63.63 74.84 63.75 75.15 64.17 68.94 83.77 68.45 83.93 68.11 83.58"/>
  <polygon points="74.83 63.33 91.52 63.21 91.52 63.63 91.53 64.05 75.15 64.17 74.84 63.75 74.83 63.33"/>
  <g class="cls-1">
    <text class="cls-2" transform="translate(92.37 67.38)">O</text>
  </g>
  <polygon points="97.97 68.17 103.02 83.32 102.69 83.67 102.19 83.52 97.17 68.44 97.57 68.3 97.97 68.17"/>
  <polygon points="75.17 63.44 74.44 63.98 74.19 63.64 73.94 63.3 74.67 62.76 74.92 63.1 75.17 63.44"/>
  <polygon points="73.81 61.3 72.79 62.05 72.54 61.71 72.29 61.37 73.31 60.62 73.56 60.96 73.81 61.3"/>
  <polygon points="72.45 59.15 71.14 60.12 70.89 59.78 70.64 59.44 71.95 58.47 72.2 58.81 72.45 59.15"/>
  <polygon points="71.09 57.01 69.5 58.18 69.25 57.84 69 57.5 70.59 56.33 70.84 56.67 71.09 57.01"/>
  <polygon points="69.73 54.87 67.85 56.25 67.6 55.91 67.35 55.57 69.22 54.19 69.47 54.53 69.73 54.87"/>
  <polygon points="68.36 52.72 66.2 54.32 65.95 53.98 65.7 53.64 67.86 52.04 68.11 52.38 68.36 52.72"/>
  <polygon points="67 50.58 64.56 52.38 64.31 52.04 64.05 51.7 66.5 49.9 66.75 50.24 67 50.58"/>
  <polygon points="65.64 48.44 62.91 50.45 62.66 50.11 62.41 49.77 65.14 47.75 65.39 48.09 65.64 48.44"/>
  <polygon points="64.28 46.29 61.26 48.52 61.01 48.18 60.76 47.84 63.78 45.61 64.03 45.95 64.28 46.29"/>
  <polygon points="61.59 47.23 45.76 49.01 45.72 48.59 45.67 48.17 62.95 46.22 62.27 46.73 61.59 47.23"/>
  <g class="cls-1">
    <text class="cls-2" transform="translate(37.61 52.87)">O</text>
  </g>
  <polygon points="37.42 44.64 31.8 37.02 32.15 36.77 32.48 36.52 38.1 44.13 37.76 44.39 37.42 44.64"/>
  <g class="cls-1">
    <text class="cls-3" transform="translate(25.56 35.84)">P</text>
  </g>
  <polygon points="25.72 36.35 17.12 42.69 16.87 42.35 16.62 42.01 25.21 35.67 25.47 36.01 25.72 36.35"/>
  <polygon points="24.21 34.3 15.62 40.65 15.37 40.31 15.11 39.97 23.71 33.62 23.96 33.96 24.21 34.3"/>
  <g class="cls-1">
    <text class="cls-2" transform="translate(8.01 48.41)">O</text>
  </g>
  <polygon points="24.86 27.61 19.24 19.99 19.58 19.74 19.92 19.49 25.54 27.11 25.2 27.36 24.86 27.61"/>
  <g class="cls-1">
    <text class="cls-2" transform="translate(5.73 18.81)">H</text>
    <text class="cls-2" transform="translate(12.47 18.81)">O</text>
  </g>
  <polygon points="32.38 28.8 40.97 22.46 41.22 22.8 41.48 23.14 32.88 29.48 32.63 29.14 32.38 28.8"/>
  <g class="cls-1">
    <text class="cls-2" transform="translate(42.07 23.28)">O</text>
    <text class="cls-2" transform="translate(49.33 23.28)">H</text>
  </g>
  <polygon points="68.39 84.41 53.45 90.94 52.84 89.13 52.24 87.32 68.11 83.58 68.45 83.93 68.39 84.41"/>
  <g class="cls-1">
    <text class="cls-2" transform="translate(38 94.4)">H</text>
    <text class="cls-2" transform="translate(44.74 94.4)">O</text>
  </g>
  <polygon points="85.19 96.31 86.13 96.3 86.13 96.73 86.13 97.15 85.2 97.16 85.2 96.73 85.19 96.31"/>
  <polygon points="84.98 98.9 86.38 98.89 86.38 99.32 86.39 99.74 84.99 99.75 84.98 99.33 84.98 98.9"/>
  <polygon points="84.77 101.5 86.63 101.48 86.64 101.91 86.64 102.33 84.77 102.34 84.77 101.92 84.77 101.5"/>
  <polygon points="84.55 104.09 86.89 104.07 86.89 104.5 86.89 104.92 84.56 104.94 84.56 104.51 84.55 104.09"/>
  <polygon points="84.34 106.68 87.14 106.66 87.14 107.08 87.14 107.51 84.34 107.53 84.34 107.11 84.34 106.68"/>
  <polygon points="84.12 109.28 87.39 109.25 87.39 109.67 87.4 110.1 84.13 110.12 84.13 109.7 84.12 109.28"/>
  <polygon points="83.91 111.87 87.64 111.84 87.65 112.26 87.65 112.69 83.92 112.71 83.91 112.29 83.91 111.87"/>
  <g class="cls-1">
    <text class="cls-2" transform="translate(82.19 121.19)">O</text>
    <text class="cls-2" transform="translate(89.45 121.19)">H</text>
  </g>
  <polygon points="126.83 86.61 139.49 77.27 139.9 77.5 139.9 78.02 127.33 87.3 127.08 86.95 126.83 86.61"/>
</svg>
