<svg id="图层_1" data-name="图层 1" xmlns="http://www.w3.org/2000/svg" viewBox="0 0 200 130">
  <defs>
    <style>
      .cls-1, .cls-2, .cls-3 {
        isolation: isolate;
      }

      .cls-2, .cls-3 {
        font-size: 7.68px;
        font-family: ArialMT, Arial;
      }

      .cls-3 {
        letter-spacing: -0.02em;
      }
    </style>
  </defs>
  <polygon points="162.52 49.81 176.03 60.08 175.81 60.36 175.6 60.63 162.41 50.61 162.47 50.21 162.52 49.81"/>
  <polygon points="162.37 52.33 174.76 61.74 174.55 62.02 174.34 62.3 161.95 52.88 162.16 52.6 162.37 52.33"/>
  <g class="cls-1">
    <text class="cls-2" transform="translate(176.51 66.1)">N</text>
  </g>
  <polygon points="179.14 66.91 176.94 84.19 176.62 83.95 176.3 83.71 178.45 66.82 178.79 66.87 179.14 66.91"/>
  <polygon points="176.99 82.48 191.03 93.15 190.81 93.42 190.6 93.7 176.56 83.03 176.77 82.75 176.99 82.48"/>
  <polygon points="175.72 84.14 189.76 94.81 189.55 95.09 189.34 95.37 175.3 84.69 175.51 84.42 175.72 84.14"/>
  <g class="cls-1">
    <text class="cls-2" transform="translate(190.88 99.84)">S</text>
  </g>
  <polygon points="176.94 84.19 157.42 92.39 157.14 92.12 157.19 91.72 176.3 83.71 176.62 83.95 176.94 84.19"/>
  <polygon points="156.73 92.25 140.32 79.77 140.32 79.34 140.7 79.19 157.19 91.72 157.14 92.12 156.73 92.25"/>
  <polygon points="157.24 90.01 142.34 78.69 142.55 78.41 142.76 78.13 157.66 89.45 157.45 89.73 157.24 90.01"/>
  <polygon points="140 79.14 142.15 62.21 142.49 62.26 142.84 62.3 140.7 79.19 140.32 79.34 140 79.14"/>
  <g class="cls-1">
    <text class="cls-2" transform="translate(134.67 61.49)">H</text>
    <text class="cls-2" transform="translate(140.21 61.49)">N</text>
  </g>
  <polygon points="146.32 56.61 162.52 49.81 162.47 50.21 162.41 50.61 146.59 57.25 146.46 56.93 146.32 56.61"/>
  <polygon points="140.32 79.77 126.64 89.26 126.44 88.98 126.24 88.69 140 79.14 140.32 79.34 140.32 79.77"/>
  <g class="cls-1">
    <text class="cls-2" transform="translate(120.2 94.5)">N</text>
  </g>
  <polygon points="124.47 95.16 129.32 111.27 129.06 111.61 128.8 111.95 123.8 95.36 124.14 95.26 124.47 95.16"/>
  <polygon points="130.63 109.21 146.77 109.56 146.76 109.9 146.75 110.25 130.62 109.9 130.63 109.56 130.63 109.21"/>
  <polygon points="129.32 111.27 146.72 111.64 146.71 111.99 146.71 112.34 128.8 111.95 129.06 111.61 129.32 111.27"/>
  <g class="cls-1">
    <text class="cls-2" transform="translate(147.41 115.18)">N</text>
  </g>
  <polygon points="151.21 108.08 156.73 92.25 157.14 92.12 157.42 92.39 151.86 108.31 151.53 108.19 151.21 108.08"/>
  <polygon points="103.3 84.14 120.02 88.7 119.5 90.17 118.99 91.66 103.07 84.82 103.03 84.43 103.3 84.14"/>
  <polygon points="103.07 84.82 85.87 96.76 85.67 96.47 85.68 96.04 102.62 84.28 103.03 84.43 103.07 84.82"/>
  <polygon points="85.46 96.75 68.64 83.97 68.86 83.69 69.27 83.56 85.68 96.04 85.67 96.47 85.46 96.75"/>
  <polygon points="68.53 83.57 75.42 63.81 75.81 63.74 76.06 64.1 69.27 83.56 68.86 83.69 68.53 83.57"/>
  <polygon points="76.01 63.4 93.26 63.77 93.25 64.12 93.24 64.47 76.06 64.1 75.81 63.74 76.01 63.4"/>
  <g class="cls-1">
    <text class="cls-2" transform="translate(93.95 67.31)">O</text>
  </g>
  <polygon points="98.43 67.97 103.3 84.14 103.03 84.43 102.62 84.28 97.77 68.17 98.1 68.07 98.43 67.97"/>
  <polygon points="75.42 63.81 62.16 46.87 63.77 46.39 65.31 45.91 76.01 63.4 75.81 63.74 75.42 63.81"/>
  <polygon points="62.16 46.87 46.43 48.18 46.4 47.84 46.37 47.49 65.31 45.91 63.77 46.39 62.16 46.87"/>
  <g class="cls-1">
    <text class="cls-2" transform="translate(39.73 51.25)">O</text>
  </g>
  <polygon points="39.74 44.47 33.08 34.86 33.36 34.66 33.65 34.46 40.32 44.07 40.03 44.27 39.74 44.47"/>
  <g class="cls-1">
    <text class="cls-3" transform="translate(28.11 33.9)">P</text>
  </g>
  <polygon points="28.21 34.2 17.8 41.42 17.6 41.14 17.4 40.85 27.81 33.62 28.01 33.91 28.21 34.2"/>
  <polygon points="27.02 32.48 16.61 39.71 16.41 39.42 16.21 39.13 26.62 31.91 26.82 32.19 27.02 32.48"/>
  <g class="cls-1">
    <text class="cls-2" transform="translate(10.33 45.94)">O</text>
  </g>
  <polygon points="33.73 28.24 44.15 21.02 44.34 21.3 44.54 21.59 34.13 28.82 33.93 28.53 33.73 28.24"/>
  <g class="cls-1">
    <text class="cls-2" transform="translate(45.04 21.85)">O</text>
    <text class="cls-2" transform="translate(51.01 21.85)">H</text>
  </g>
  <polygon points="27.7 27.11 21.03 17.51 21.32 17.31 21.6 17.11 28.27 26.72 27.99 26.92 27.7 27.11"/>
  <g class="cls-1">
    <text class="cls-2" transform="translate(10.1 16.54)">H</text>
    <text class="cls-2" transform="translate(15.64 16.54)">O</text>
  </g>
  <polygon points="68.71 83.34 68.92 84.06 68.59 84.16 68.26 84.26 68.04 83.54 68.37 83.44 68.71 83.34"/>
  <polygon points="66.68 83.8 66.98 84.8 66.65 84.9 66.32 85 66.02 84 66.35 83.9 66.68 83.8"/>
  <polygon points="64.66 84.25 65.05 85.53 64.71 85.63 64.38 85.73 64 84.45 64.33 84.35 64.66 84.25"/>
  <polygon points="62.64 84.71 63.11 86.27 62.78 86.37 62.44 86.47 61.97 84.91 62.31 84.81 62.64 84.71"/>
  <polygon points="60.62 85.17 61.17 87 60.84 87.1 60.51 87.2 59.95 85.37 60.29 85.27 60.62 85.17"/>
  <polygon points="58.6 85.62 59.23 87.74 58.9 87.84 58.57 87.94 57.93 85.82 58.26 85.72 58.6 85.62"/>
  <polygon points="56.58 86.08 57.3 88.48 56.96 88.58 56.63 88.68 55.91 86.28 56.24 86.18 56.58 86.08"/>
  <polygon points="54.55 86.54 55.36 89.21 55.03 89.31 54.69 89.41 53.89 86.74 54.22 86.64 54.55 86.54"/>
  <polygon points="52.53 86.99 53.42 89.95 53.09 90.05 52.76 90.15 51.87 87.19 52.2 87.09 52.53 86.99"/>
  <g class="cls-1">
    <text class="cls-2" transform="translate(40.1 92.89)">H</text>
    <text class="cls-2" transform="translate(45.64 92.89)">O</text>
  </g>
  <polygon points="85.3 96.5 86.05 96.52 86.04 96.87 86.03 97.22 85.28 97.2 85.29 96.85 85.3 96.5"/>
  <polygon points="85.11 98.56 86.15 98.59 86.14 98.94 86.13 99.28 85.09 99.26 85.1 98.91 85.11 98.56"/>
  <polygon points="84.92 100.63 86.25 100.65 86.24 101 86.23 101.35 84.9 101.32 84.91 100.97 84.92 100.63"/>
  <polygon points="84.72 102.69 86.35 102.72 86.34 103.07 86.34 103.42 84.71 103.38 84.72 103.03 84.72 102.69"/>
  <polygon points="84.53 104.75 86.45 104.79 86.44 105.14 86.44 105.48 84.52 105.44 84.53 105.09 84.53 104.75"/>
  <polygon points="84.34 106.81 86.55 106.86 86.55 107.2 86.54 107.55 84.33 107.5 84.34 107.16 84.34 106.81"/>
  <polygon points="84.15 108.87 86.66 108.92 86.65 109.27 86.64 109.62 84.14 109.56 84.15 109.22 84.15 108.87"/>
  <polygon points="83.96 110.93 86.76 110.99 86.75 111.34 86.74 111.68 83.95 111.62 83.96 111.28 83.96 110.93"/>
  <polygon points="83.77 112.99 86.86 113.06 86.85 113.4 86.84 113.75 83.76 113.69 83.77 113.34 83.77 112.99"/>
  <g class="cls-1">
    <text class="cls-2" transform="translate(82.23 120.7)">O</text>
    <text class="cls-2" transform="translate(88.2 120.7)">H</text>
  </g>
</svg>
