<svg id="图层_1" data-name="图层 1" xmlns="http://www.w3.org/2000/svg" viewBox="0 0 191.07 94.93">
  <defs>
    <style>
      .cls-1, .cls-2, .cls-3 {
        isolation: isolate;
      }

      .cls-2, .cls-3 {
        font-size: 8.7px;
        font-family: ArialMT, Arial;
      }

      .cls-3 {
        letter-spacing: -0.02em;
      }
    </style>
  </defs>
  <polygon points="33.43 6.11 47.82 12.32 47.67 12.69 47.51 13.05 33.54 7.01 33.48 6.56 33.43 6.11"/>
  <polygon points="33.96 8.91 46.88 14.5 46.73 14.86 46.57 15.22 33.64 9.64 33.8 9.28 33.96 8.91"/>
  <g class="cls-1">
    <text class="cls-2" transform="translate(48.46 17.91)">N</text>
  </g>
  <polygon points="52.5 18.73 54.25 33.76 53.88 33.98 53.46 33.8 51.72 18.82 52.11 18.77 52.5 18.73"/>
  <polygon points="53.88 34.47 38.52 45.9 38.05 45.76 38 45.3 53.46 33.8 53.88 33.98 53.88 34.47"/>
  <polygon points="51.6 33.21 37.97 43.36 37.73 43.04 37.5 42.72 51.13 32.58 51.37 32.9 51.6 33.21"/>
  <polygon points="37.73 46.05 19.99 38.39 19.94 37.93 20.3 37.66 38 45.3 38.05 45.76 37.73 46.05"/>
  <polygon points="19.52 37.75 17.77 22.77 18.16 22.73 18.56 22.68 20.3 37.66 19.94 37.93 19.52 37.75"/>
  <polygon points="21.74 36.35 20.12 22.5 20.52 22.45 20.91 22.41 22.52 36.26 22.13 36.3 21.74 36.35"/>
  <g class="cls-1">
    <text class="cls-2" transform="translate(14.51 21.86)">N</text>
  </g>
  <polygon points="21.35 15.1 33.43 6.11 33.48 6.56 33.54 7.01 21.82 15.73 21.58 15.41 21.35 15.1"/>
  <polygon points="19.99 38.39 9.24 46.38 9 46.07 8.77 45.75 19.52 37.75 19.94 37.93 19.99 38.39"/>
  <g class="cls-1">
    <text class="cls-2" transform="translate(0 53.23)">Cl</text>
  </g>
  <polygon points="38.52 45.9 43.25 59.94 42.88 60.06 42.5 60.19 37.73 46.05 38.05 45.76 38.52 45.9"/>
  <g class="cls-1">
    <text class="cls-2" transform="translate(41.22 67.97)">N</text>
  </g>
  <polygon points="48.26 61.65 62.34 61.48 62.34 61.88 62.34 62.27 48.27 62.43 48.26 62.04 48.26 61.65"/>
  <polygon points="48.28 64.01 63.8 63.84 64.09 64.23 64.38 64.62 48.29 64.8 48.29 64.41 48.28 64.01"/>
  <polygon points="63.8 63.84 68.22 49.67 68.6 49.78 68.98 49.9 64.38 64.62 64.09 64.23 63.8 63.84"/>
  <g class="cls-1">
    <text class="cls-2" transform="translate(66.83 48.92)">N</text>
  </g>
  <polygon points="88.62 39.54 74.47 45.75 73.9 44.07 73.33 42.39 88.36 38.76 88.67 39.09 88.62 39.54"/>
  <polygon points="88.36 38.76 94.17 20.14 94.55 20.26 94.84 20.65 89.13 38.93 88.67 39.09 88.36 38.76"/>
  <polygon points="94.55 19.86 114.05 19.64 114.28 20.03 114 20.43 94.84 20.65 94.55 20.26 94.55 19.86"/>
  <polygon points="114.72 20.12 120.96 38.6 120.59 38.73 120.12 38.58 114 20.43 114.28 20.03 114.72 20.12"/>
  <polygon points="120.82 39.05 109.17 47.72 108.93 47.4 108.7 47.08 120.12 38.58 120.59 38.73 120.82 39.05"/>
  <g class="cls-1">
    <text class="cls-2" transform="translate(101.37 54.03)">O</text>
  </g>
  <polygon points="100.36 47.87 88.62 39.54 88.67 39.09 89.13 38.93 100.81 47.22 100.58 47.54 100.36 47.87"/>
  <polygon points="120.51 39.15 120.76 38.34 121.14 38.45 121.51 38.57 121.26 39.38 120.88 39.27 120.51 39.15"/>
  <polygon points="122.71 40.01 123.06 38.88 123.44 39 123.82 39.12 123.47 40.25 123.09 40.13 122.71 40.01"/>
  <polygon points="124.92 40.87 125.37 39.43 125.74 39.55 126.12 39.66 125.67 41.11 125.29 40.99 124.92 40.87"/>
  <polygon points="127.12 41.74 127.67 39.98 128.05 40.09 128.42 40.21 127.87 41.97 127.5 41.85 127.12 41.74"/>
  <polygon points="129.33 42.6 129.97 40.52 130.35 40.64 130.73 40.76 130.08 42.83 129.7 42.72 129.33 42.6"/>
  <polygon points="131.53 43.46 132.28 41.07 132.65 41.19 133.03 41.3 132.28 43.7 131.91 43.58 131.53 43.46"/>
  <polygon points="133.74 44.32 134.58 41.62 134.96 41.73 135.33 41.85 134.49 44.56 134.11 44.44 133.74 44.32"/>
  <polygon points="135.94 45.18 136.88 42.16 137.26 42.28 137.64 42.4 136.69 45.42 136.32 45.3 135.94 45.18"/>
  <polygon points="138.15 46.05 139.19 42.71 139.56 42.83 139.94 42.94 138.9 46.28 138.52 46.16 138.15 46.05"/>
  <polygon points="139.65 43.86 143.14 59.39 142.75 59.48 142.37 59.56 139.18 45.37 139.42 44.61 139.65 43.86"/>
  <g class="cls-1">
    <text class="cls-2" transform="translate(140.36 67.39)">O</text>
  </g>
  <polygon points="148.03 64.79 159 68.22 158.88 68.6 158.76 68.97 147.8 65.55 147.91 65.17 148.03 64.79"/>
  <g class="cls-1">
    <text class="cls-3" transform="translate(159.67 73.27)">P</text>
  </g>
  <polygon points="162.71 74.61 159.56 84.67 159.19 84.55 158.81 84.43 161.95 74.37 162.33 74.49 162.71 74.61"/>
  <polygon points="160.45 73.9 157.3 83.96 156.93 83.84 156.55 83.72 159.69 73.67 160.07 73.78 160.45 73.9"/>
  <g class="cls-1">
    <text class="cls-2" transform="translate(153.3 92.11)">O</text>
  </g>
  <polygon points="163.56 65.24 166.71 55.19 167.08 55.3 167.46 55.42 164.32 65.48 163.94 65.36 163.56 65.24"/>
  <g class="cls-1">
    <text class="cls-2" transform="translate(165.07 54.44)">O</text>
    <text class="cls-2" transform="translate(171.84 54.44)">H</text>
  </g>
  <polygon points="166.38 70.53 177.35 73.95 177.23 74.33 177.11 74.71 166.14 71.28 166.26 70.9 166.38 70.53"/>
  <g class="cls-1">
    <text class="cls-2" transform="translate(178.02 79.16)">O</text>
    <text class="cls-2" transform="translate(184.79 79.16)">H</text>
  </g>
  <polygon points="114.05 19.64 121.13 7.3 122.58 8.33 124.03 9.36 114.72 20.12 114.28 20.03 114.05 19.64"/>
  <g class="cls-1">
    <text class="cls-2" transform="translate(122.31 7.47)">O</text>
    <text class="cls-2" transform="translate(129.08 7.47)">H</text>
  </g>
  <polygon points="94.87 19.94 94.16 20.47 93.93 20.15 93.69 19.83 94.39 19.31 94.63 19.63 94.87 19.94"/>
  <polygon points="93.7 18.02 92.65 18.8 92.42 18.49 92.18 18.17 93.23 17.39 93.47 17.7 93.7 18.02"/>
  <polygon points="92.55 16.1 91.15 17.14 90.91 16.82 90.67 16.51 92.07 15.46 92.31 15.78 92.55 16.1"/>
  <polygon points="91.39 14.18 89.64 15.47 89.4 15.16 89.17 14.84 90.91 13.54 91.15 13.86 91.39 14.18"/>
  <polygon points="90.22 12.25 88.13 13.81 87.89 13.49 87.66 13.18 89.75 11.62 89.99 11.94 90.22 12.25"/>
  <polygon points="89.06 10.33 86.62 12.15 86.39 11.83 86.15 11.51 88.59 9.7 88.83 10.02 89.06 10.33"/>
  <polygon points="87.9 8.41 85.12 10.48 84.88 10.17 84.64 9.85 87.43 7.78 87.67 8.09 87.9 8.41"/>
  <g class="cls-1">
    <text class="cls-2" transform="translate(73.11 7.95)">H</text>
    <text class="cls-2" transform="translate(79.39 7.95)">O</text>
  </g>
  <polygon points="65.81 42.93 53.88 34.47 53.88 33.98 54.25 33.76 66.27 42.28 66.04 42.61 65.81 42.93"/>
</svg>
