<svg id="图层_1" data-name="图层 1" xmlns="http://www.w3.org/2000/svg" viewBox="0 0 185.05 107.49">
  <defs>
    <style>
      .cls-1, .cls-2, .cls-3 {
        isolation: isolate;
      }

      .cls-2 {
        font-size: 9.8px;
      }

      .cls-2, .cls-3 {
        font-family: ArialMT, Arial;
      }

      .cls-3 {
        font-size: 6.03px;
      }
    </style>
  </defs>
  <polygon points="63.24 89.01 79.09 89.25 79.08 89.69 79.08 90.14 63.23 89.9 63.23 89.46 63.24 89.01"/>
  <polygon points="63.2 91.68 80.67 91.94 80.98 92.39 81.3 92.84 63.19 92.57 63.19 92.12 63.2 91.68"/>
  <g class="cls-1">
    <text class="cls-2" transform="translate(55.23 96.03)">N</text>
  </g>
  <polygon points="56.81 87.25 51.84 71.15 52.21 70.83 52.73 71.01 57.66 86.99 57.24 87.12 56.81 87.25"/>
  <polygon points="32.47 61.2 52.16 70.32 52.21 70.83 51.84 71.15 32.09 62.01 32.05 61.49 32.47 61.2"/>
  <polygon points="32.51 64.16 50.2 72.35 50.01 72.75 49.83 73.15 32.14 64.96 32.32 64.56 32.51 64.16"/>
  <polygon points="31.58 61.28 30.05 44.35 30.5 44.31 30.94 44.27 32.47 61.2 32.05 61.49 31.58 61.28"/>
  <g class="cls-1">
    <text class="cls-2" transform="translate(26.51 43.33)">N</text>
  </g>
  <polygon points="48.75 30 36.27 38.79 36.01 38.43 35.76 38.06 48.24 29.27 48.49 29.64 48.75 30"/>
  <polygon points="48.26 27.08 34.73 36.61 34.48 36.25 34.22 35.88 47.75 26.35 48.22 26.57 48.26 27.08"/>
  <polygon points="48.63 26.27 64.14 33.45 63.95 33.86 63.77 34.26 48.26 27.08 48.22 26.57 48.63 26.27"/>
  <g class="cls-1">
    <text class="cls-2" transform="translate(64.84 39.87)">N</text>
  </g>
  <polygon points="67.14 56.78 65.73 41.13 66.17 41.09 66.61 41.05 68.03 56.7 67.58 56.74 67.14 56.78"/>
  <polygon points="69.91 57.82 68.38 40.89 68.83 40.85 69.27 40.81 70.8 57.8 70.38 58.03 69.91 57.82"/>
  <polygon points="70.8 57.8 84 67.69 83.73 68.04 83.47 68.4 70.37 58.58 70.38 58.03 70.8 57.8"/>
  <g class="cls-1">
    <text class="cls-2" transform="translate(84.62 75.33)">N</text>
  </g>
  <polygon points="109.33 65.31 93.17 71.9 92.58 69.99 91.99 68.08 109.05 64.42 109.39 64.8 109.33 65.31"/>
  <polygon points="109.92 64.64 127.18 77.58 127.17 78.13 126.71 78.33 109.33 65.31 109.39 64.8 109.92 64.64"/>
  <polygon points="127.18 77.58 144.82 65.15 145.34 65.33 145.59 65.69 127.63 78.35 127.17 78.13 127.18 77.58"/>
  <polygon points="144.82 65.15 138.45 44.54 138.78 44.1 139.28 44.2 145.76 65.2 145.34 65.33 144.82 65.15"/>
  <polygon points="138.45 44.54 121.26 44.29 121.27 43.84 121.27 43.4 138.54 43.65 138.78 44.1 138.45 44.54"/>
  <g class="cls-1">
    <text class="cls-2" transform="translate(112.76 47.74)">O</text>
  </g>
  <polygon points="115.3 48.86 109.92 64.64 109.39 64.8 109.05 64.42 114.46 48.57 114.88 48.72 115.3 48.86"/>
  <polygon points="138.54 43.65 150.17 25.64 152.1 26.32 154.14 27.01 139.28 44.2 138.78 44.1 138.54 43.65"/>
  <polygon points="150.17 25.64 169.52 27.96 169.47 28.4 169.42 28.84 154.14 27.01 152.1 26.32 150.17 25.64"/>
  <g class="cls-1">
    <text class="cls-2" transform="translate(170.36 32.94)">O</text>
    <text class="cls-2" transform="translate(177.98 32.94)">H</text>
  </g>
  <polygon points="145.24 65.82 145.56 64.89 145.98 65.03 146.4 65.18 146.09 66.11 145.66 65.96 145.24 65.82"/>
  <polygon points="147.74 66.93 148.21 65.53 148.63 65.68 149.05 65.82 148.58 67.21 148.16 67.07 147.74 66.93"/>
  <polygon points="150.23 68.04 150.86 66.18 151.28 66.32 151.7 66.47 151.07 68.32 150.65 68.18 150.23 68.04"/>
  <polygon points="152.72 69.14 153.51 66.83 153.93 66.97 154.35 67.11 153.56 69.43 153.14 69.29 152.72 69.14"/>
  <polygon points="155.21 70.25 156.16 67.47 156.58 67.61 157 67.76 156.05 70.54 155.63 70.4 155.21 70.25"/>
  <polygon points="157.7 71.36 158.81 68.12 159.23 68.26 159.65 68.4 158.54 71.65 158.12 71.51 157.7 71.36"/>
  <polygon points="160.19 72.47 161.46 68.76 161.88 68.91 162.3 69.05 161.04 72.76 160.62 72.61 160.19 72.47"/>
  <g class="cls-1">
    <text class="cls-2" transform="translate(162.56 76.47)">O</text>
    <text class="cls-2" transform="translate(170.18 76.47)">H</text>
  </g>
  <polygon points="127.63 78.35 128.92 95.43 126.92 95.4 124.92 95.37 126.71 78.33 127.17 78.13 127.63 78.35"/>
  <g class="cls-1">
    <text class="cls-2" transform="translate(123.03 104.31)">O</text>
    <text class="cls-2" transform="translate(130.65 104.31)">H</text>
  </g>
  <polygon points="86.89 76.44 81.3 92.84 80.98 92.39 80.67 91.94 86.05 76.16 86.47 76.3 86.89 76.44"/>
  <polygon points="70.37 58.58 52.73 71.01 52.21 70.83 52.16 70.32 69.91 57.82 70.38 58.03 70.37 58.58"/>
  <polygon points="47.75 26.35 46.22 9.42 46.66 9.38 47.11 9.34 48.63 26.27 48.22 26.57 47.75 26.35"/>
  <g class="cls-1">
    <text class="cls-2" transform="translate(43.23 8.41)">F</text>
  </g>
  <polygon points="32.09 62.01 18.56 71.53 18.31 71.17 18.05 70.81 31.58 61.28 32.05 61.49 32.09 62.01"/>
  <g class="cls-1">
    <text class="cls-2" transform="translate(0 77)">H</text>
    <text class="cls-3" transform="translate(7.08 78.5)">2</text>
    <text class="cls-2" transform="translate(10.43 77)">N</text>
  </g>
</svg>
