<svg id="图层_1" data-name="图层 1" xmlns="http://www.w3.org/2000/svg" viewBox="0 0 181.37 102.65">
  <defs>
    <style>
      .cls-1, .cls-2, .cls-3, .cls-4 {
        isolation: isolate;
      }

      .cls-2, .cls-3 {
        font-size: 8.43px;
      }

      .cls-2, .cls-3, .cls-4 {
        font-family: ArialMT, Arial;
      }

      .cls-3 {
        letter-spacing: -0.02em;
      }

      .cls-4 {
        font-size: 5.19px;
      }
    </style>
  </defs>
  <polygon points="140.33 33.37 152.2 41.93 151.98 42.24 151.75 42.55 140.24 34.25 140.28 33.81 140.33 33.37"/>
  <polygon points="140.24 36.13 150.86 43.79 150.64 44.1 150.41 44.41 139.79 36.75 140.02 36.44 140.24 36.13"/>
  <g class="cls-1">
    <text class="cls-2" transform="translate(152.74 48.4)">N</text>
  </g>
  <polygon points="155.73 49.27 154.26 63.82 153.85 64 153.5 63.74 154.97 49.2 155.35 49.24 155.73 49.27"/>
  <polygon points="153.81 64.44 136.74 72.11 136.42 71.83 136.47 71.39 153.5 63.74 153.85 64 153.81 64.44"/>
  <polygon points="151.86 62.8 136.85 69.55 136.69 69.2 136.53 68.85 151.55 62.1 151.71 62.45 151.86 62.8"/>
  <polygon points="135.97 71.98 120.92 61.13 120.92 60.66 121.33 60.47 136.47 71.39 136.42 71.83 135.97 71.98"/>
  <polygon points="120.56 60.45 122.04 45.85 122.42 45.89 122.8 45.93 121.33 60.47 120.92 60.66 120.56 60.45"/>
  <polygon points="122.96 59.53 124.32 46.09 124.7 46.13 125.08 46.16 123.72 59.61 123.34 59.57 122.96 59.53"/>
  <g class="cls-1">
    <text class="cls-2" transform="translate(119.81 45.06)">N</text>
  </g>
  <polygon points="126.5 39.58 140.33 33.37 140.28 33.81 140.24 34.25 126.82 40.28 126.66 39.93 126.5 39.58"/>
  <polygon points="120.92 61.13 109.54 69.47 109.31 69.16 109.08 68.85 120.56 60.45 120.92 60.66 120.92 61.13"/>
  <g class="cls-1">
    <text class="cls-2" transform="translate(102.46 75.36)">N</text>
  </g>
  <polygon points="107.26 76.07 111.75 89.72 111.47 90.1 111.2 90.48 106.54 76.31 106.9 76.19 107.26 76.07"/>
  <polygon points="113.13 87.42 126.77 87.37 126.77 87.75 126.77 88.13 113.13 88.18 113.13 87.8 113.13 87.42"/>
  <polygon points="111.75 89.72 126.77 89.66 126.78 90.04 126.78 90.43 111.2 90.48 111.47 90.1 111.75 89.72"/>
  <g class="cls-1">
    <text class="cls-2" transform="translate(127.54 93.44)">N</text>
  </g>
  <polygon points="131.58 85.66 135.97 71.98 136.42 71.83 136.74 72.11 132.31 85.9 131.95 85.78 131.58 85.66"/>
  <polygon points="87.6 65.78 102.22 69.08 101.7 70.72 101.17 72.36 87.36 66.54 87.31 66.1 87.6 65.78"/>
  <polygon points="87.36 66.54 72.28 77.57 71.88 77.39 71.88 76.92 86.86 65.96 87.31 66.1 87.36 66.54"/>
  <polygon points="71.49 77.58 56.16 66.52 56.38 66.21 56.83 66.06 71.88 76.92 71.88 77.39 71.49 77.58"/>
  <polygon points="56.02 66.1 61.8 48.1 62.23 48.02 62.5 48.4 56.83 66.06 56.38 66.21 56.02 66.1"/>
  <polygon points="62.43 47.63 77.29 47.58 77.29 47.96 77.29 48.34 62.5 48.4 62.23 48.02 62.43 47.63"/>
  <g class="cls-1">
    <text class="cls-2" transform="translate(78.06 51.36)">O</text>
  </g>
  <polygon points="83.1 52.08 87.6 65.78 87.31 66.1 86.86 65.96 82.37 52.32 82.73 52.2 83.1 52.08"/>
  <polygon points="61.8 48.1 49.18 33.17 50.94 32.6 52.61 32.03 62.43 47.63 62.23 48.02 61.8 48.1"/>
  <polygon points="49.18 33.17 36.02 34.6 35.98 34.22 35.94 33.84 52.61 32.03 50.94 32.6 49.18 33.17"/>
  <g class="cls-1">
    <text class="cls-2" transform="translate(28.66 38.07)">O</text>
  </g>
  <polygon points="28.52 30.64 23.45 23.72 23.76 23.49 24.07 23.27 29.13 30.18 28.83 30.41 28.52 30.64"/>
  <g class="cls-1">
    <text class="cls-3" transform="translate(17.84 22.65)">P</text>
  </g>
  <polygon points="17.98 23.09 10.18 28.8 9.95 28.49 9.72 28.18 17.53 22.47 17.75 22.78 17.98 23.09"/>
  <polygon points="16.62 21.24 8.82 26.95 8.6 26.64 8.37 26.34 16.17 20.62 16.4 20.93 16.62 21.24"/>
  <g class="cls-1">
    <text class="cls-2" transform="translate(1.95 33.94)">O</text>
  </g>
  <polygon points="24 16.32 31.8 10.6 32.03 10.91 32.26 11.22 24.45 16.93 24.23 16.62 24 16.32"/>
  <g class="cls-1">
    <text class="cls-2" transform="translate(32.79 11.37)">O</text>
    <text class="cls-2" transform="translate(39.35 11.37)">H</text>
  </g>
  <polygon points="17.23 15.21 12.16 8.29 12.47 8.07 12.78 7.84 17.85 14.76 17.54 14.99 17.23 15.21"/>
  <g class="cls-1">
    <text class="cls-2" transform="translate(0 7.23)">H</text>
    <text class="cls-2" transform="translate(6.09 7.23)">O</text>
  </g>
  <polygon points="56.2 65.83 56.46 66.63 56.1 66.75 55.73 66.87 55.47 66.07 55.83 65.95 56.2 65.83"/>
  <polygon points="53.91 66.36 54.3 67.56 53.94 67.68 53.58 67.8 53.18 66.6 53.55 66.48 53.91 66.36"/>
  <polygon points="51.62 66.89 52.15 68.49 51.78 68.61 51.42 68.73 50.9 67.13 51.26 67.01 51.62 66.89"/>
  <polygon points="49.33 67.42 49.99 69.42 49.63 69.54 49.27 69.66 48.61 67.66 48.97 67.54 49.33 67.42"/>
  <polygon points="47.05 67.95 47.84 70.36 47.47 70.47 47.11 70.59 46.32 68.19 46.68 68.07 47.05 67.95"/>
  <polygon points="44.76 68.48 45.68 71.28 45.32 71.41 44.95 71.52 44.03 68.72 44.4 68.6 44.76 68.48"/>
  <polygon points="42.47 69.01 43.52 72.22 43.16 72.33 42.8 72.45 41.74 69.25 42.11 69.13 42.47 69.01"/>
  <g class="cls-1">
    <text class="cls-2" transform="translate(28.87 75.6)">H</text>
    <text class="cls-2" transform="translate(34.95 75.6)">O</text>
  </g>
  <polygon points="72.28 77.57 73.66 92.24 71.94 92.25 70.22 92.26 71.49 77.58 71.88 77.39 72.28 77.57"/>
  <g class="cls-1">
    <text class="cls-2" transform="translate(68.68 99.91)">O</text>
    <text class="cls-2" transform="translate(75.23 99.91)">H</text>
  </g>
  <polygon points="154.26 63.82 165.77 72.12 165.55 72.43 165.32 72.74 153.81 64.44 153.85 64 154.26 63.82"/>
  <g class="cls-1">
    <text class="cls-2" transform="translate(166.31 77.5)">N</text>
    <text class="cls-2" transform="translate(172.4 77.5)">H</text>
    <text class="cls-4" transform="translate(178.49 78.8)">2</text>
  </g>
</svg>
