<?xml version="1.0" encoding="utf-8"?>
<!-- Generator: Adobe Illustrator 25.2.0, SVG Export Plug-In . SVG Version: 6.00 Build 0)  -->
<svg version="1.1" id="图层_1" xmlns="http://www.w3.org/2000/svg" xmlns:xlink="http://www.w3.org/1999/xlink" x="0px" y="0px"
	 viewBox="0 0 200 130" style="enable-background:new 0 0 200 130;" xml:space="preserve">
<style type="text/css">
	.st0{font-family:'ArialMT';}
	.st1{font-size:5.51px;}
	.st2{font-size:3.39px;}
</style>
<polygon points="142.4,115.9 131.2,121.1 130.7,120.1 130.2,119.1 142.2,115.5 142.4,115.7 "/>
<polygon points="142.2,115.5 141.6,103.4 141.8,103.2 142.1,103.4 142.7,115.5 142.4,115.7 "/>
<polygon points="141.6,103.4 129.9,100.2 129.8,99.9 130,99.7 141.8,102.9 141.8,103.2 "/>
<polygon points="129.9,100.2 124.9,107.7 124.7,107.6 124.5,107.4 129.5,99.9 129.8,99.9 "/>
<g>
	<text transform="matrix(1 0 0 1 121.06 112.56)" class="st0 st1">S</text>
</g>
<polygon points="125.3,112.9 130.2,119.1 130.7,120.1 131.2,121.1 124.9,113.3 125.1,113.1 "/>
<polygon points="129.5,99.9 124.1,88.3 125.3,88.2 126.5,88.1 130,99.7 129.8,99.9 "/>
<polygon points="124.1,88.3 112.8,86.4 113,86.2 113.2,86 126.5,88.1 125.3,88.2 "/>
<polygon points="112.8,86.4 108.4,74.7 108.6,74.5 108.8,74.3 113.2,86 113,86.2 "/>
<polygon points="108.4,74.7 96.1,72.7 96.2,72.5 96.4,72.3 108.8,74.3 108.6,74.5 "/>
<polygon points="96.1,72.7 91.6,61 91.8,60.8 92,60.6 96.4,72.3 96.2,72.5 "/>
<polygon points="90.8,60.5 96.7,53.3 96.9,53.5 97.1,53.6 91.2,60.8 90.9,60.7 "/>
<polygon points="91.9,61.5 97.8,54.2 98,54.4 98.2,54.6 92.3,61.8 92.1,61.6 "/>
<g>
	<text transform="matrix(1 0 0 1 97.59 53.38)" class="st0 st1">O</text>
</g>
<polygon points="91.6,61 81.9,59.5 82,59.2 82,59 92,60.6 91.8,60.8 "/>
<g>
	<text transform="matrix(1 0 0 1 77.47 61.02)" class="st0 st1">N</text>
</g>
<g>
	<text transform="matrix(1 0 0 1 77.47 66.05)" class="st0 st1">H</text>
</g>
<polygon points="78.2,56.1 74.9,47.3 75,47.1 75.2,46.9 78.7,55.9 78.4,56 "/>
<polygon points="74.9,47.3 62.5,45.3 62.7,45.1 62.9,44.9 75.2,46.9 75,47.1 "/>
<polygon points="62.5,45.3 58.1,33.6 58.3,33.4 58.5,33.2 62.9,44.9 62.7,45.1 "/>
<polygon points="58.1,33.6 45.8,31.6 45.9,31.4 46.1,31.2 58.5,33.2 58.3,33.4 "/>
<polygon points="45.8,31.6 41.3,19.9 41.5,19.7 41.8,19.8 46.1,31.2 45.9,31.4 "/>
<polygon points="41.3,19.9 29,17.9 29.2,17.7 29.4,17.5 41.4,19.4 41.5,19.7 "/>
<polygon points="30.2,18 24.3,25.2 24.1,25 23.9,24.9 29.8,17.7 30,17.8 "/>
<polygon points="29,17 23.1,24.3 22.9,24.1 22.7,23.9 28.7,16.7 28.9,16.9 "/>
<g>
	<text transform="matrix(1 0 0 1 19.09 29.58)" class="st0 st1">O</text>
</g>
<polygon points="29,17.9 25.6,8.9 25.8,8.8 26,8.7 29.4,17.5 29.2,17.7 "/>
<g>
	<text transform="matrix(1 0 0 1 18.61 8.24)" class="st0 st1">H</text>
	<text transform="matrix(1 0 0 1 22.6 8.24)" class="st0 st1">O</text>
</g>
<polygon points="41.4,19.4 46.3,12.1 47.2,12.8 48,13.5 41.8,19.8 41.5,19.7 "/>
<g>
	<text transform="matrix(1 0 0 1 47.44 11.57)" class="st0 st1">N</text>
	<text transform="matrix(1 0 0 1 51.43 11.57)" class="st0 st1">H</text>
	<text transform="matrix(1 0 0 1 55.41 12.42)" class="st0 st2">2</text>
</g>
<polygon points="141.8,102.9 150.6,98.7 151,99.7 151.4,100.8 142.1,103.4 141.8,103.2 "/>
<g>
	<text transform="matrix(1 0 0 1 151.54 96.45)" class="st0 st1">H</text>
</g>
<g>
	<text transform="matrix(1 0 0 1 151.54 101.48)" class="st0 st1">N</text>
</g>
<polygon points="156,101.4 161.7,108.5 161.4,108.5 161.1,108.5 155.6,101.7 155.8,101.6 "/>
<polygon points="160.8,107.6 171.2,107.1 171.2,107.3 171.2,107.6 160.8,108.1 160.8,107.8 "/>
<polygon points="160.8,109 171.2,108.6 171.2,108.8 171.3,109.1 160.9,109.5 160.9,109.3 "/>
<g>
	<text transform="matrix(1 0 0 1 171.71 110.16)" class="st0 st1">O</text>
</g>
<polygon points="161.7,108.5 156.5,116.3 156.3,116.2 156.1,116 161.1,108.5 161.4,108.5 "/>
<g>
	<text transform="matrix(1 0 0 1 152.5 121.19)" class="st0 st1">N</text>
</g>
<g>
	<text transform="matrix(1 0 0 1 152.5 126.21)" class="st0 st1">H</text>
</g>
<polygon points="151.9,118.5 142.4,115.9 142.4,115.7 142.7,115.5 152.1,118 152,118.3 "/>
</svg>
