<?xml version="1.0" encoding="utf-8"?>
<!-- Generator: Adobe Illustrator 25.2.0, SVG Export Plug-In . SVG Version: 6.00 Build 0)  -->
<svg version="1.1" id="图层_1" xmlns="http://www.w3.org/2000/svg" xmlns:xlink="http://www.w3.org/1999/xlink" x="0px" y="0px"
	 viewBox="0 0 200 130" style="enable-background:new 0 0 200 130;" xml:space="preserve">
<style type="text/css">
	.st0{font-family:'ArialMT';}
	.st1{font-size:7.67px;}
	.st2{stroke:#FF0D0D;stroke-width:0.93;stroke-miterlimit:3.95;}
</style>
<polygon points="113.5,104.8 97,109.7 96.5,108.2 96,106.7 113.2,104.2 113.5,104.5 "/>
<polygon points="113.2,104.2 114.8,87.4 115.1,87.2 115.5,87.5 113.8,104.3 113.5,104.5 "/>
<polygon points="114.8,87.4 99.3,80.7 99.2,80.2 99.5,80 115.2,86.8 115.1,87.2 "/>
<polygon points="99.3,80.7 91.2,89.8 90.9,89.6 90.7,89.4 98.8,80.2 99.2,80.2 "/>
<g>
	<text transform="matrix(1 0 0 1 85.13 96.38)" class="st0 st1">S</text>
</g>
<polygon points="90.3,97 96,106.7 96.5,108.2 97,109.7 89.7,97.3 90,97.1 "/>
<polygon points="98.8,80.2 93.8,63.1 95.4,63.3 97,63.4 99.5,80 99.2,80.2 "/>
<polygon points="93.8,63.1 78.6,58.3 78.8,58 79.1,57.8 97,63.4 95.4,63.3 "/>
<polygon points="78.6,58.3 74.8,41.3 75.1,41.1 75.4,40.8 79.1,57.8 78.8,58 "/>
<polygon points="74.8,41.3 58.2,36.1 58.5,35.9 58.8,35.6 75.4,40.8 75.1,41.1 "/>
<polygon points="58.2,36.1 54.4,19.2 54.7,18.9 55,18.6 58.8,35.6 58.5,35.9 "/>
<polygon points="53.3,18.3 62.9,9.5 63.2,9.7 63.4,10 53.8,18.8 53.6,18.5 "/>
<polygon points="54.8,19.8 64.3,11 64.6,11.3 64.8,11.5 55.2,20.3 55,20.1 "/>
<g>
	<text transform="matrix(1 0 0 1 64.56 10.25)" class="st0 st1">O</text>
</g>
<polygon points="54.4,19.2 41.7,15.2 41.8,14.8 41.9,14.5 55,18.6 54.7,18.9 "/>
<g>
	<text transform="matrix(1 0 0 1 35.17 16.77)" class="st0 st1">O</text>
</g>
<line class="st2" x1="40.8" y1="9.6" x2="43.7" y2="9.6"/>
<polygon points="115.2,86.8 128.3,82.7 128.6,84.2 129,85.7 115.5,87.5 115.1,87.2 "/>
<g>
	<text transform="matrix(1 0 0 1 129.35 80.17)" class="st0 st1">H</text>
</g>
<g>
	<text transform="matrix(1 0 0 1 129.35 87.17)" class="st0 st1">N</text>
</g>
<polygon points="134.7,87.1 141.4,98.4 140.9,98.4 140.5,98.3 134.1,87.4 134.4,87.3 "/>
<polygon points="140.3,96.9 154.7,98.3 154.7,98.7 154.6,99 140.2,97.6 140.3,97.3 "/>
<polygon points="140.1,99 154.5,100.4 154.5,100.7 154.4,101.1 140.1,99.7 140.1,99.3 "/>
<g>
	<text transform="matrix(1 0 0 1 155.27 103.15)" class="st0 st1">O</text>
</g>
<polygon points="141.4,98.4 133.1,107.8 132.9,107.5 132.6,107.3 140.5,98.3 140.9,98.4 "/>
<g>
	<text transform="matrix(1 0 0 1 126.66 114.51)" class="st0 st1">N</text>
</g>
<g>
	<text transform="matrix(1 0 0 1 126.66 121.51)" class="st0 st1">H</text>
</g>
<polygon points="125.8,110.2 113.5,104.8 113.5,104.5 113.8,104.3 126.1,109.6 126,109.9 "/>
</svg>
