<?xml version="1.0" encoding="utf-8"?>
<!-- Generator: Adobe Illustrator 25.2.0, SVG Export Plug-In . SVG Version: 6.00 Build 0)  -->
<svg version="1.1" id="图层_1" xmlns="http://www.w3.org/2000/svg" xmlns:xlink="http://www.w3.org/1999/xlink" x="0px" y="0px"
	 viewBox="0 0 200 130" style="enable-background:new 0 0 200 130;" xml:space="preserve">
<style type="text/css">
	.st0{font-family:'ArialMT';}
	.st1{font-size:10.26px;}
</style>
<polygon points="120.3,104.8 99.2,114 98.3,112.1 97.4,110.1 119.8,103.9 120.3,104.3 "/>
<polygon points="119.8,103.9 119.2,81.4 119.7,81 120.1,81.4 120.7,103.9 120.3,104.3 "/>
<polygon points="119.2,81.4 97.5,75 97.3,74.4 97.7,74.1 119.6,80.6 119.7,81 "/>
<polygon points="97.5,75 88.1,88.7 87.7,88.4 87.3,88.2 96.8,74.4 97.3,74.4 "/>
<g>
	<text transform="matrix(1 0 0 1 80.74 97.75)" class="st0 st1">S</text>
</g>
<polygon points="88.5,98.5 97.4,110.1 98.3,112.1 99.2,114 87.8,99.1 88.1,98.8 "/>
<polygon points="96.8,74.4 87.3,52.5 89.6,52.5 91.7,52.4 97.7,74.1 97.3,74.4 "/>
<polygon points="87.3,52.5 66.4,48.7 66.7,48.2 67.1,47.8 91.7,52.4 89.6,52.5 "/>
<polygon points="66.4,48.7 58.6,26.7 59,26.3 59.3,25.9 67.1,47.8 66.7,48.2 "/>
<polygon points="57,25.7 68.2,12.6 68.6,12.9 68.9,13.2 57.7,26.3 57.4,26 "/>
<polygon points="59.1,27.5 70.3,14.4 70.7,14.7 71.1,15 59.8,28.1 59.5,27.8 "/>
<g>
	<text transform="matrix(1 0 0 1 70.07 12.77)" class="st0 st1">O</text>
</g>
<polygon points="58.6,26.7 40.9,23.4 41,23 41.1,22.5 59.3,25.9 59,26.3 "/>
<g>
	<text transform="matrix(1 0 0 1 24.67 26.22)" class="st0 st1">H</text>
	<text transform="matrix(1 0 0 1 32.08 26.22)" class="st0 st1">O</text>
</g>
<polygon points="119.6,80.6 136.3,72.9 137,74.9 137.6,76.9 120.1,81.4 119.7,81 "/>
<g>
	<text transform="matrix(1 0 0 1 137.89 68.95)" class="st0 st1">H</text>
</g>
<g>
	<text transform="matrix(1 0 0 1 137.89 78.32)" class="st0 st1">N</text>
</g>
<polygon points="145.9,78.2 156.3,91.7 155.8,91.8 155.2,91.8 145.2,78.7 145.6,78.5 "/>
<polygon points="154.7,89.9 174,89.4 174.1,89.9 174.1,90.3 154.7,90.8 154.7,90.4 "/>
<polygon points="154.8,92.7 174.1,92.2 174.1,92.7 174.1,93.1 154.8,93.6 154.8,93.2 "/>
<g>
	<text transform="matrix(1 0 0 1 175.02 95.3)" class="st0 st1">O</text>
</g>
<polygon points="156.3,91.7 146.5,106 146.1,105.7 145.7,105.5 155.2,91.8 155.8,91.8 "/>
<g>
	<text transform="matrix(1 0 0 1 138.86 115.07)" class="st0 st1">N</text>
</g>
<g>
	<text transform="matrix(1 0 0 1 138.86 124.44)" class="st0 st1">H</text>
</g>
<polygon points="137.8,110 120.3,104.8 120.3,104.3 120.7,103.9 138.1,109.1 137.9,109.5 "/>
</svg>
