<?xml version="1.0" encoding="utf-8"?>
<!-- Generator: Adobe Illustrator 25.2.0, SVG Export Plug-In . SVG Version: 6.00 Build 0)  -->
<svg version="1.1" id="图层_1" xmlns="http://www.w3.org/2000/svg" xmlns:xlink="http://www.w3.org/1999/xlink" x="0px" y="0px"
	 viewBox="0 0 200 130" style="enable-background:new 0 0 200 130;" xml:space="preserve">
<style type="text/css">
	.st0{font-family:'ArialMT';}
	.st1{font-size:9.64px;}
</style>
<polygon points="125.8,99.3 104.9,104.8 104.4,102.9 103.8,101 125.4,98.4 125.8,98.8 "/>
<polygon points="125.4,98.4 128.1,77.4 128.6,77.1 129,77.5 126.3,98.6 125.8,98.8 "/>
<polygon points="128.1,77.4 108.9,68.4 108.8,67.8 109.2,67.5 128.6,76.7 128.6,77.1 "/>
<polygon points="108.9,68.4 98.2,79.7 97.9,79.4 97.6,79.1 108.3,67.7 108.8,67.8 "/>
<g>
	<text transform="matrix(1 0 0 1 90.63 87.67)" class="st0 st1">S</text>
</g>
<polygon points="96.9,88.4 103.8,101 104.4,102.9 104.9,104.8 96.1,88.8 96.5,88.6 "/>
<polygon points="108.3,67.7 102.6,46.1 104.7,46.4 106.7,46.6 109.2,67.5 108.8,67.8 "/>
<polygon points="102.6,46.1 83.7,39.5 84.1,39.2 84.5,38.8 106.7,46.6 104.7,46.4 "/>
<polygon points="83.7,39.5 79.6,18 80,17.7 80.4,17.4 84.5,38.8 84.1,39.2 "/>
<polygon points="77.6,20.1 59.8,13.9 59.9,13.5 60,13.1 77.8,19.3 77.7,19.7 "/>
<polygon points="79.6,18 59.4,11 59.3,10.5 59.2,10 80.4,17.4 80,17.7 "/>
<polygon points="59.4,11 42.9,25.3 42.8,24.8 42.7,24.3 59.2,10 59.3,10.5 "/>
<polygon points="44.4,23.7 47.7,41.1 47.3,41.2 46.8,41.2 43.5,23.9 44,23.8 "/>
<polygon points="41.8,24.2 45.1,41.6 44.7,41.7 44.2,41.7 40.9,24.4 41.4,24.3 "/>
<g>
	<text transform="matrix(1 0 0 1 43.15 50.18)" class="st0 st1">O</text>
</g>
<polygon points="42.9,25.3 26.6,19.6 26.8,19.2 26.9,18.8 42.7,24.3 42.8,24.8 "/>
<g>
	<text transform="matrix(1 0 0 1 11.46 21.53)" class="st0 st1">H</text>
	<text transform="matrix(1 0 0 1 18.42 21.53)" class="st0 st1">O</text>
</g>
<polygon points="128.6,76.7 145.3,71.9 145.7,73.9 146.1,75.8 129,77.5 128.6,77.1 "/>
<g>
	<text transform="matrix(1 0 0 1 146.57 68.98)" class="st0 st1">H</text>
</g>
<g>
	<text transform="matrix(1 0 0 1 146.57 77.78)" class="st0 st1">N</text>
</g>
<polygon points="153.1,77.7 161.1,92.3 160.6,92.2 160,92.1 152.3,78.1 152.7,77.9 "/>
<polygon points="159.9,90.3 177.9,92.6 177.8,93.1 177.7,93.5 159.7,91.2 159.8,90.8 "/>
<polygon points="159.5,92.9 177.5,95.2 177.5,95.7 177.4,96.1 159.4,93.8 159.5,93.4 "/>
<g>
	<text transform="matrix(1 0 0 1 178.5 98.84)" class="st0 st1">O</text>
</g>
<polygon points="161.1,92.3 150.3,103.8 150,103.5 149.6,103.2 160,92.1 160.6,92.2 "/>
<g>
	<text transform="matrix(1 0 0 1 142.13 112.03)" class="st0 st1">N</text>
</g>
<g>
	<text transform="matrix(1 0 0 1 142.13 120.83)" class="st0 st1">H</text>
</g>
<polygon points="141.1,106.5 125.8,99.3 125.8,98.8 126.3,98.6 141.4,105.7 141.3,106.1 "/>
</svg>
