<?xml version="1.0" encoding="UTF-8"?>
<svg id="_图层_1" data-name="图层 1" xmlns="http://www.w3.org/2000/svg" viewBox="0 0 200 130">
  <defs>
    <style>
      .cls-1 {
        stroke-width: 0px;
      }

      .cls-1, .cls-2, .cls-3, .cls-4 {
        fill: #000;
      }

      .cls-5, .cls-2, .cls-3, .cls-4 {
        isolation: isolate;
      }

      .cls-2 {
        font-size: 4.8px;
      }

      .cls-2, .cls-3, .cls-4 {
        font-family: ArialMT, Arial;
      }

      .cls-3, .cls-4 {
        font-size: 7.8px;
      }

      .cls-4 {
        letter-spacing: -.02em;
      }
    </style>
  </defs>
  <polygon class="cls-1" points="75.8 60.52 61.51 49.48 63 48.62 64.4 47.78 76.32 60.01 76.19 60.38 75.8 60.52"/>
  <polygon class="cls-1" points="76.49 60.7 73 77.51 72.6 77.69 72.26 77.62 75.8 60.52 76.19 60.38 76.49 60.7"/>
  <polygon class="cls-1" points="73 77.51 87.91 86.02 87.96 86.45 87.61 86.66 72.43 78 72.6 77.69 73 77.51"/>
  <polygon class="cls-1" points="87.91 86.02 100.61 74.47 101.04 74.56 101.13 74.96 88.34 86.58 87.96 86.45 87.91 86.02"/>
  <polygon class="cls-1" points="100.61 74.47 95.22 62.52 95.54 62.38 95.86 62.23 101.28 74.23 101.04 74.56 100.61 74.47"/>
  <g class="cls-5">
    <text class="cls-3" transform="translate(90.73 61.6)"><tspan x="0" y="0">O</tspan></text>
  </g>
  <polygon class="cls-1" points="90.06 59.21 76.49 60.7 76.19 60.38 76.32 60.01 89.99 58.51 90.02 58.86 90.06 59.21"/>
  <polygon class="cls-1" points="101.28 74.23 115.15 75.86 114.82 77.42 114.5 78.98 101.13 74.96 101.04 74.56 101.28 74.23"/>
  <g class="cls-5">
    <text class="cls-3" transform="translate(115.53 81.31)"><tspan x="0" y="0">N</tspan></text>
  </g>
  <polygon class="cls-1" points="120.44 81.94 125.83 93.89 125.62 94.27 125.4 94.65 119.8 82.23 120.12 82.08 120.44 81.94"/>
  <polygon class="cls-1" points="126.88 91.64 139.4 90.26 139.44 90.61 139.48 90.96 126.96 92.34 126.92 91.99 126.88 91.64"/>
  <polygon class="cls-1" points="125.83 93.89 139.63 92.37 139.67 92.72 139.71 93.07 125.4 94.65 125.62 94.27 125.83 93.89"/>
  <g class="cls-5">
    <text class="cls-3" transform="translate(140.38 95.49)"><tspan x="0" y="0">N</tspan></text>
  </g>
  <polygon class="cls-1" points="143.66 88.33 146.38 75.2 146.78 75.02 147.1 75.25 144.35 88.47 144.01 88.4 143.66 88.33"/>
  <polygon class="cls-1" points="146.78 74.61 161.69 65.9 162.05 66.11 162.05 66.51 147.1 75.25 146.78 75.02 146.78 74.61"/>
  <polygon class="cls-1" points="148.49 76.07 161.88 68.25 162.06 68.56 162.24 68.86 148.84 76.68 148.67 76.38 148.49 76.07"/>
  <polygon class="cls-1" points="161.69 65.9 161.63 52.36 161.98 52.36 162.33 52.36 162.4 65.9 162.05 66.11 161.69 65.9"/>
  <g class="cls-5">
    <text class="cls-3" transform="translate(159.15 51.58)"><tspan x="0" y="0">N</tspan></text>
  </g>
  <polygon class="cls-1" points="157.21 48.57 146.44 42.42 146.62 42.11 146.79 41.8 157.56 47.95 157.39 48.26 157.21 48.57"/>
  <polygon class="cls-1" points="158.26 46.72 146.61 40.07 146.6 39.66 146.6 39.25 158.61 46.11 158.44 46.42 158.26 46.72"/>
  <polygon class="cls-1" points="146.61 40.07 135.04 46.83 134.86 46.52 134.68 46.21 146.6 39.25 146.6 39.66 146.61 40.07"/>
  <g class="cls-5">
    <text class="cls-3" transform="translate(128.52 51.73)"><tspan x="0" y="0">N</tspan></text>
  </g>
  <polygon class="cls-1" points="133.83 52.5 133.9 65.02 133.54 65.02 133.19 65.02 133.13 52.5 133.48 52.5 133.83 52.5"/>
  <polygon class="cls-1" points="131.71 52.51 131.78 66.05 131.43 66.26 131.07 66.1 131.01 52.51 131.36 52.51 131.71 52.51"/>
  <polygon class="cls-1" points="131.47 66.69 122.11 75.21 121.87 74.95 121.63 74.69 131.07 66.1 131.43 66.26 131.47 66.69"/>
  <polygon class="cls-1" points="131.78 66.05 146.78 74.61 146.78 75.02 146.38 75.2 131.47 66.69 131.43 66.26 131.78 66.05"/>
  <polygon class="cls-1" points="162.4 65.9 174.06 72.55 173.88 72.86 173.71 73.17 162.05 66.51 162.05 66.11 162.4 65.9"/>
  <g class="cls-5">
    <text class="cls-3" transform="translate(174.59 77.02)"><tspan x="0" y="0">N</tspan></text>
    <text class="cls-3" transform="translate(180.22 77.02)"><tspan x="0" y="0">H</tspan></text>
    <text class="cls-2" transform="translate(185.85 78.22)"><tspan x="0" y="0">2</tspan></text>
  </g>
  <polygon class="cls-1" points="88.34 86.58 91.04 99.92 89.46 100.1 87.88 100.27 87.61 86.66 87.96 86.45 88.34 86.58"/>
  <g class="cls-5">
    <text class="cls-3" transform="translate(86.86 107.19)"><tspan x="0" y="0">O</tspan></text>
    <text class="cls-3" transform="translate(92.92 107.19)"><tspan x="0" y="0">H</tspan></text>
  </g>
  <polygon class="cls-1" points="72.43 77.34 72.67 78.08 72.34 78.19 72 78.3 71.76 77.56 72.09 77.45 72.43 77.34"/>
  <polygon class="cls-1" points="70.31 77.83 70.68 78.94 70.34 79.05 70.01 79.16 69.64 78.05 69.98 77.94 70.31 77.83"/>
  <polygon class="cls-1" points="68.2 78.33 68.69 79.81 68.35 79.92 68.01 80.03 67.53 78.55 67.86 78.44 68.2 78.33"/>
  <polygon class="cls-1" points="66.08 78.82 66.69 80.67 66.36 80.78 66.02 80.89 65.41 79.04 65.75 78.93 66.08 78.82"/>
  <polygon class="cls-1" points="63.97 79.31 64.7 81.53 64.36 81.64 64.03 81.76 63.29 79.53 63.63 79.42 63.97 79.31"/>
  <polygon class="cls-1" points="61.85 79.81 62.71 82.4 62.37 82.51 62.04 82.62 61.18 80.03 61.51 79.92 61.85 79.81"/>
  <polygon class="cls-1" points="59.74 80.3 60.71 83.26 60.38 83.37 60.04 83.48 59.06 80.52 59.4 80.41 59.74 80.3"/>
  <g class="cls-5">
    <text class="cls-3" transform="translate(52.78 86.39)"><tspan x="0" y="0">O</tspan></text>
  </g>
  <polygon class="cls-1" points="51.84 80.17 45.69 74.68 45.92 74.42 46.16 74.16 52.31 79.64 52.07 79.9 51.84 80.17"/>
  <g class="cls-5">
    <text class="cls-4" transform="translate(40.02 74.63)"><tspan x="0" y="0">P</tspan></text>
  </g>
  <polygon class="cls-1" points="41.39 76.15 36.96 83.32 36.66 83.14 36.35 82.95 40.79 75.78 41.09 75.96 41.39 76.15"/>
  <polygon class="cls-1" points="39.59 75.03 35.15 82.21 34.85 82.02 34.55 81.84 38.98 74.66 39.29 74.85 39.59 75.03"/>
  <g class="cls-5">
    <text class="cls-3" transform="translate(30.29 89.67)"><tspan x="0" y="0">O</tspan></text>
  </g>
  <polygon class="cls-1" points="43.09 67.47 45.05 58.02 45.39 58.09 45.74 58.17 43.78 67.61 43.43 67.54 43.09 67.47"/>
  <g class="cls-5">
    <text class="cls-3" transform="translate(43.18 57.32)"><tspan x="0" y="0">O</tspan></text>
  </g>
  <polygon class="cls-1" points="49.84 52.59 64.4 47.78 63 48.62 61.51 49.48 50.06 53.26 49.95 52.93 49.84 52.59"/>
  <polygon class="cls-1" points="39.18 70.48 29.8 66.75 29.93 66.42 30.06 66.09 39.44 69.83 39.31 70.16 39.18 70.48"/>
  <g class="cls-5">
    <text class="cls-3" transform="translate(17.53 68.09)"><tspan x="0" y="0">H</tspan></text>
    <text class="cls-3" transform="translate(23.16 68.09)"><tspan x="0" y="0">O</tspan></text>
  </g>
</svg>