<?xml version="1.0" encoding="UTF-8"?>
<svg id="_图层_1" data-name="图层 1" xmlns="http://www.w3.org/2000/svg" viewBox="0 0 200 130">
  <defs>
    <style>
      .cls-1 {
        stroke-width: 0px;
      }

      .cls-1, .cls-2, .cls-3, .cls-4 {
        fill: #000;
      }

      .cls-5, .cls-2, .cls-3, .cls-4 {
        isolation: isolate;
      }

      .cls-2 {
        font-size: 4.49px;
      }

      .cls-2, .cls-3, .cls-4 {
        font-family: ArialMT, Arial;
      }

      .cls-3 {
        letter-spacing: -.02em;
      }

      .cls-3, .cls-4 {
        font-size: 7.3px;
      }
    </style>
  </defs>
  <polygon class="cls-1" points="83.63 58.76 71.07 47.45 72.51 46.75 73.88 46.06 84.15 58.32 84 58.65 83.63 58.76"/>
  <polygon class="cls-1" points="84.26 58.97 79.82 74.42 79.44 74.56 79.18 74.27 83.63 58.76 84 58.65 84.26 58.97"/>
  <polygon class="cls-1" points="79.82 74.42 93.14 83.41 93.16 83.81 92.97 84.09 79.39 74.92 79.44 74.56 79.82 74.42"/>
  <polygon class="cls-1" points="93.14 83.41 105.8 73.52 106.2 73.63 106.26 74 93.36 84.07 93.16 83.81 93.14 83.41"/>
  <polygon class="cls-1" points="105.8 73.52 101.57 61.87 101.88 61.76 102.19 61.65 106.45 73.34 106.2 73.63 105.8 73.52"/>
  <g class="cls-5">
    <text class="cls-4" transform="translate(97.7 61.03)"><tspan x="0" y="0">O</tspan></text>
  </g>
  <polygon class="cls-1" points="97.05 58.53 84.26 58.97 84 58.65 84.15 58.32 97.03 57.87 97.04 58.2 97.05 58.53"/>
  <polygon class="cls-1" points="106.45 73.34 119.22 75.82 118.81 77.25 118.4 78.68 106.26 74 106.2 73.63 106.45 73.34"/>
  <g class="cls-5">
    <text class="cls-4" transform="translate(119.47 81.15)"><tspan x="0" y="0">N</tspan></text>
  </g>
  <polygon class="cls-1" points="123.75 81.76 127.99 93.41 127.76 93.74 127.53 94.08 123.13 81.99 123.44 81.87 123.75 81.76"/>
  <polygon class="cls-1" points="129.12 91.38 140.92 90.97 140.93 91.3 140.95 91.63 129.15 92.04 129.13 91.71 129.12 91.38"/>
  <polygon class="cls-1" points="127.99 93.41 140.99 92.95 141 93.29 141.01 93.62 127.53 94.08 127.76 93.74 127.99 93.41"/>
  <g class="cls-5">
    <text class="cls-4" transform="translate(141.66 96.13)"><tspan x="0" y="0">N</tspan></text>
  </g>
  <polygon class="cls-1" points="145.04 89.4 148.48 77.4 148.86 77.27 149.14 77.5 145.67 89.58 145.36 89.49 145.04 89.4"/>
  <polygon class="cls-1" points="148.89 76.88 163.42 69.8 163.74 70.01 163.71 70.4 149.14 77.5 148.86 77.27 148.89 76.88"/>
  <polygon class="cls-1" points="150.38 78.37 163.43 72 163.58 72.3 163.72 72.6 150.67 78.96 150.53 78.66 150.38 78.37"/>
  <polygon class="cls-1" points="163.42 69.8 164.31 57.16 164.64 57.19 164.97 57.21 164.08 69.85 163.74 70.01 163.42 69.8"/>
  <g class="cls-5">
    <text class="cls-4" transform="translate(162.26 56.46)"><tspan x="0" y="0">N</tspan></text>
  </g>
  <polygon class="cls-1" points="160.3 53.2 150.83 46.81 151.02 46.54 151.2 46.26 160.67 52.65 160.49 52.93 160.3 53.2"/>
  <polygon class="cls-1" points="161.41 51.56 151.15 44.63 151.18 44.25 151.2 43.87 161.79 51.01 161.6 51.28 161.41 51.56"/>
  <polygon class="cls-1" points="151.15 44.63 139.75 50.19 139.6 49.89 139.46 49.6 151.2 43.87 151.18 44.25 151.15 44.63"/>
  <g class="cls-5">
    <text class="cls-4" transform="translate(133.67 54.46)"><tspan x="0" y="0">N</tspan></text>
  </g>
  <polygon class="cls-1" points="138.36 55.34 137.54 67.03 137.21 67 136.88 66.98 137.7 55.3 138.03 55.32 138.36 55.34"/>
  <polygon class="cls-1" points="136.38 55.2 135.49 67.84 135.15 68.01 134.83 67.84 135.72 55.16 136.05 55.18 136.38 55.2"/>
  <polygon class="cls-1" points="135.16 68.42 125.6 75.88 125.4 75.62 125.2 75.36 134.83 67.84 135.15 68.01 135.16 68.42"/>
  <polygon class="cls-1" points="135.49 67.84 148.89 76.88 148.86 77.27 148.48 77.4 135.16 68.42 135.15 68.01 135.49 67.84"/>
  <polygon class="cls-1" points="164.08 69.85 174.34 76.77 174.16 77.05 173.97 77.32 163.71 70.4 163.74 70.01 164.08 69.85"/>
  <g class="cls-5">
    <text class="cls-4" transform="translate(174.82 81.29)"><tspan x="0" y="0">N</tspan></text>
    <text class="cls-4" transform="translate(180.09 81.29)"><tspan x="0" y="0">H</tspan></text>
    <text class="cls-2" transform="translate(185.36 82.41)"><tspan x="0" y="0">2</tspan></text>
  </g>
  <polygon class="cls-1" points="92.79 83.88 93.52 83.85 93.53 84.18 93.55 84.51 92.82 84.54 92.8 84.21 92.79 83.88"/>
  <polygon class="cls-1" points="92.68 85.91 93.78 85.87 93.79 86.2 93.8 86.53 92.7 86.57 92.69 86.24 92.68 85.91"/>
  <polygon class="cls-1" points="92.57 87.94 94.03 87.89 94.04 88.22 94.05 88.55 92.59 88.6 92.58 88.27 92.57 87.94"/>
  <polygon class="cls-1" points="92.46 89.97 94.28 89.91 94.29 90.24 94.3 90.57 92.48 90.63 92.47 90.3 92.46 89.97"/>
  <polygon class="cls-1" points="92.34 92 94.53 91.93 94.54 92.26 94.56 92.59 92.37 92.66 92.36 92.33 92.34 92"/>
  <polygon class="cls-1" points="92.23 94.03 94.79 93.94 94.8 94.27 94.81 94.61 92.26 94.69 92.24 94.36 92.23 94.03"/>
  <polygon class="cls-1" points="92.12 96.06 95.04 95.96 95.05 96.29 95.06 96.62 92.14 96.73 92.13 96.39 92.12 96.06"/>
  <g class="cls-5">
    <text class="cls-4" transform="translate(90.89 103.31)"><tspan x="0" y="0">O</tspan></text>
    <text class="cls-4" transform="translate(96.57 103.31)"><tspan x="0" y="0">H</tspan></text>
  </g>
  <polygon class="cls-1" points="79.39 74.92 67.24 79.13 66.88 77.69 66.52 76.24 79.18 74.27 79.44 74.56 79.39 74.92"/>
  <g class="cls-5">
    <text class="cls-4" transform="translate(60.54 81.52)"><tspan x="0" y="0">O</tspan></text>
  </g>
  <polygon class="cls-1" points="59.64 75.16 54.75 70.09 54.98 69.86 55.22 69.63 60.12 74.7 59.88 74.93 59.64 75.16"/>
  <g class="cls-5">
    <text class="cls-3" transform="translate(49.46 69.61)"><tspan x="0" y="0">P</tspan></text>
  </g>
  <polygon class="cls-1" points="50.28 71.11 45.9 77.14 45.64 76.94 45.37 76.75 49.75 70.72 50.02 70.92 50.28 71.11"/>
  <polygon class="cls-1" points="48.68 69.94 44.3 75.97 44.03 75.77 43.76 75.58 48.14 69.55 48.41 69.75 48.68 69.94"/>
  <g class="cls-5">
    <text class="cls-4" transform="translate(39.32 82.99)"><tspan x="0" y="0">O</tspan></text>
  </g>
  <polygon class="cls-1" points="52.63 62.88 55.08 54.34 55.4 54.43 55.72 54.52 53.26 63.06 52.94 62.97 52.63 62.88"/>
  <g class="cls-5">
    <text class="cls-4" transform="translate(53.61 53.7)"><tspan x="0" y="0">O</tspan></text>
  </g>
  <polygon class="cls-1" points="59.87 49.55 73.88 46.06 72.51 46.75 71.07 47.45 60.03 50.2 59.95 49.87 59.87 49.55"/>
  <polygon class="cls-1" points="48.65 65.44 40.37 61.4 40.52 61.1 40.66 60.81 48.94 64.84 48.79 65.14 48.65 65.44"/>
  <g class="cls-5">
    <text class="cls-4" transform="translate(28.91 62.35)"><tspan x="0" y="0">H</tspan></text>
    <text class="cls-4" transform="translate(34.18 62.35)"><tspan x="0" y="0">O</tspan></text>
  </g>
</svg>