<svg id="图层_1" data-name="图层 1" xmlns="http://www.w3.org/2000/svg" viewBox="0 0 200 130"><defs><style>.cls-1,.cls-2{isolation:isolate;}.cls-2{font-size:5.97px;font-family:ArialMT, Arial;}.cls-3{stroke:#ff0d0d;}.cls-3,.cls-4{stroke-width:0.94px;}.cls-4{stroke:#304ff7;}</style></defs><title>Chloramphenicol _Simi_compound2</title><polygon points="134.74 60.23 146.49 52.91 146.5 53.22 146.51 53.53 135.29 60.52 135.01 60.38 134.74 60.23"/><polygon points="136.53 61.03 146.42 54.86 146.56 55.09 146.71 55.32 136.81 61.49 136.67 61.26 136.53 61.03"/><polygon points="146.49 52.91 158.43 59.27 158.44 59.58 158.18 59.75 146.51 53.53 146.5 53.22 146.49 52.91"/><polygon points="158.72 59.73 159.18 73.25 158.9 73.11 158.63 72.96 158.18 59.75 158.44 59.58 158.72 59.73"/><polygon points="157.12 60.56 157.52 72.22 157.25 72.22 156.98 72.23 156.58 60.58 156.85 60.57 157.12 60.56"/><polygon points="159.18 73.25 147.43 80.58 147.42 80.27 147.41 79.96 158.63 72.96 158.9 73.11 159.18 73.25"/><polygon points="147.43 80.58 135.49 74.22 135.48 73.9 135.74 73.74 147.41 79.96 147.42 80.27 147.43 80.58"/><polygon points="147.23 78.63 136.94 73.15 137.07 72.91 137.19 72.67 147.48 78.16 147.35 78.39 147.23 78.63"/><polygon points="135.49 74.22 124.14 81.3 123.99 81.07 123.98 80.75 135.2 73.76 135.48 73.9 135.49 74.22"/><polygon points="123.86 81.3 112.07 75.02 112.05 74.7 112.31 74.54 123.98 80.75 123.99 81.07 123.86 81.3"/><polygon points="112.07 75.02 101.51 82.67 100.56 81.86 99.56 81.02 111.77 74.54 112.05 74.7 112.07 75.02"/><polygon points="101.51 82.67 91.36 77.26 91.48 77.02 91.61 76.78 99.56 81.02 100.56 81.86 101.51 82.67"/><g class="cls-1"><text class="cls-2" transform="translate(86.3 77.92)">O</text></g><polygon points="85.9 77.51 77.15 82.97 77.14 82.66 77.13 82.35 85.61 77.05 85.76 77.28 85.9 77.51"/><polygon points="78.2 82.16 78.58 93.14 78.31 93.15 78.04 93.16 77.66 82.17 77.93 82.16 78.2 82.16"/><polygon points="76.58 82.21 76.95 93.19 76.68 93.2 76.41 93.21 76.04 82.23 76.31 82.22 76.58 82.21"/><g class="cls-1"><text class="cls-2" transform="translate(75.28 98.6)">O</text></g><polygon points="77.15 82.97 65.2 76.61 65.19 76.3 65.18 75.98 77.13 82.35 77.14 82.66 77.15 82.97"/><polygon points="65.2 76.61 53.72 83.77 53.71 83.46 53.7 83.14 65.18 75.98 65.19 76.3 65.2 76.61"/><polygon points="53.72 83.77 41.78 77.41 41.77 77.09 41.76 76.78 53.7 83.14 53.71 83.46 53.72 83.77"/><polygon points="40.7 77.6 40.33 66.61 40.6 66.61 40.87 66.6 41.24 77.58 40.97 77.59 40.7 77.6"/><polygon points="42.32 77.54 41.95 66.56 42.22 66.55 42.49 66.54 42.87 77.53 42.59 77.53 42.32 77.54"/><g class="cls-1"><text class="cls-2" transform="translate(38.99 65.98)">O</text></g><polygon points="41.78 77.41 33.29 82.7 33.15 82.47 33 82.24 41.76 76.78 41.77 77.09 41.78 77.41"/><g class="cls-1"><text class="cls-2" transform="translate(23.65 86.67)">H</text><text class="cls-2" transform="translate(27.96 86.67)">O</text></g><polygon points="111.77 74.54 111.42 64.19 111.69 64.19 111.96 64.18 112.31 74.54 112.05 74.7 111.77 74.54"/><g class="cls-1"><text class="cls-2" transform="translate(109.43 63.59)">N</text><text class="cls-2" transform="translate(113.74 63.59)">H</text></g><polygon points="108.77 59.98 99.38 54.98 99.64 54.81 99.91 54.65 109.02 59.5 108.89 59.74 108.77 59.98"/><polygon points="100.61 55.48 91.6 61.11 91.45 60.88 91.31 60.65 100.33 55.02 100.47 55.25 100.61 55.48"/><polygon points="99.76 54.1 90.74 59.73 90.59 59.5 90.45 59.27 99.47 53.65 99.61 53.87 99.76 54.1"/><g class="cls-1"><text class="cls-2" transform="translate(85.84 64.39)">O</text></g><polygon points="99.38 54.98 98.92 41.45 99.18 41.29 99.46 41.43 99.91 54.65 99.64 54.81 99.38 54.98"/><polygon points="98.92 41.45 90.47 36.95 90.6 36.71 90.73 36.47 99.17 40.97 99.18 41.29 98.92 41.45"/><g class="cls-1"><text class="cls-2" transform="translate(84.42 37.34)">Cl</text></g><polygon points="99.17 40.97 107.17 35.99 107.31 36.22 107.45 36.45 99.46 41.43 99.18 41.29 99.17 40.97"/><g class="cls-1"><text class="cls-2" transform="translate(107.85 36.54)">Cl</text></g><polygon points="123.69 81.12 124.29 81.1 124.3 81.37 124.31 81.64 123.71 81.66 123.7 81.39 123.69 81.12"/><polygon points="123.6 82.78 124.5 82.75 124.51 83.02 124.52 83.29 123.62 83.32 123.61 83.05 123.6 82.78"/><polygon points="123.51 84.44 124.7 84.4 124.71 84.67 124.72 84.94 123.53 84.98 123.52 84.71 123.51 84.44"/><polygon points="123.42 86.1 124.91 86.05 124.92 86.32 124.93 86.59 123.44 86.64 123.43 86.37 123.42 86.1"/><polygon points="123.32 87.76 125.11 87.7 125.12 87.97 125.13 88.24 123.34 88.3 123.33 88.03 123.32 87.76"/><polygon points="123.23 89.42 125.32 89.35 125.33 89.62 125.34 89.89 123.25 89.96 123.24 89.69 123.23 89.42"/><polygon points="123.14 91.08 125.53 91 125.53 91.27 125.54 91.54 123.16 91.62 123.15 91.35 123.14 91.08"/><g class="cls-1"><text class="cls-2" transform="translate(122.13 97.01)">O</text><text class="cls-2" transform="translate(126.77 97.01)">H</text></g><polygon points="135.2 73.76 134.74 60.23 135.01 60.38 135.29 60.52 135.74 73.74 135.48 73.9 135.2 73.76"/><polygon points="158.43 59.27 167.09 53.87 167.23 54.1 167.37 54.33 158.72 59.73 158.44 59.58 158.43 59.27"/><g class="cls-1"><text class="cls-2" transform="translate(167.77 54.84)">N</text></g><polygon points="168.74 49.45 168.49 41.94 168.76 41.93 169.03 41.92 169.28 49.43 169.01 49.44 168.74 49.45"/><polygon points="170.36 49.39 170.11 41.89 170.38 41.88 170.65 41.87 170.91 49.37 170.63 49.38 170.36 49.39"/><g class="cls-1"><text class="cls-2" transform="translate(167.15 41.31)">O</text></g><polygon points="172.75 53.62 179.13 57.02 179.01 57.26 178.88 57.5 172.49 54.09 172.62 53.86 172.75 53.62"/><g class="cls-1"><text class="cls-2" transform="translate(179.55 61.2)">O</text></g><line class="cls-3" x1="183.94" y1="55.59" x2="186.19" y2="55.59"/><line class="cls-4" x1="171.91" y1="49.31" x2="174.17" y2="49.31"/><line class="cls-4" x1="173.04" y1="48.18" x2="173.04" y2="50.43"/></svg>