<svg id="图层_1" data-name="图层 1" xmlns="http://www.w3.org/2000/svg" viewBox="0 0 200 130"><defs><style>.cls-1,.cls-2{isolation:isolate;}.cls-2{font-size:7.75px;font-family:ArialMT, Arial;}.cls-3{stroke:#ff0d0d;}.cls-3,.cls-4{stroke-width:0.94px;}.cls-4{stroke:#304ff7;}</style></defs><title>Chloramphenicol _Simi_compound1</title><polygon points="107.58 55.39 123.3 46.64 123.3 47.05 123.29 47.45 108.28 55.8 107.93 55.59 107.58 55.39"/><polygon points="109.85 56.54 123.09 49.18 123.26 49.48 123.43 49.79 110.19 57.15 110.02 56.85 109.85 56.54"/><polygon points="123.3 46.64 138.39 55.68 138.38 56.08 138.03 56.28 123.29 47.45 123.3 47.05 123.3 46.64"/><polygon points="138.73 56.29 138.45 73.88 138.1 73.67 137.75 73.46 138.03 56.28 138.38 56.08 138.73 56.29"/><polygon points="136.61 57.27 136.36 72.42 136.01 72.41 135.66 72.41 135.9 57.26 136.25 57.27 136.61 57.27"/><polygon points="138.45 73.88 122.73 82.62 122.73 82.21 122.74 81.81 137.75 73.46 138.1 73.67 138.45 73.88"/><polygon points="122.73 82.62 107.64 73.58 107.65 73.18 108 72.98 122.74 81.81 122.73 82.21 122.73 82.62"/><polygon points="122.59 80.08 109.6 72.3 109.78 71.99 109.96 71.69 122.95 79.47 122.77 79.78 122.59 80.08"/><polygon points="107.64 73.58 92.65 81.92 92.28 81.72 92.29 81.32 107.3 72.97 107.65 73.18 107.64 73.58"/><polygon points="91.91 81.91 77.2 73.1 77.19 72.69 77.55 72.49 92.29 81.32 92.28 81.72 91.91 81.91"/><polygon points="77.2 73.1 63.01 82.35 61.83 81.23 60.58 80.08 76.85 72.46 77.19 72.69 77.2 73.1"/><polygon points="63.01 82.35 50.28 74.73 50.46 74.43 50.64 74.13 60.58 80.08 61.83 81.23 63.01 82.35"/><g class="cls-1"><text class="cls-2" transform="translate(38.13 75.34)">H</text><text class="cls-2" transform="translate(43.73 75.34)">O</text></g><polygon points="76.85 72.46 77.06 59.01 77.41 59.02 77.77 59.02 77.55 72.49 77.19 72.69 76.85 72.46"/><g class="cls-1"><text class="cls-2" transform="translate(74.68 58.25)">N</text><text class="cls-2" transform="translate(80.28 58.25)">H</text></g><polygon points="73.79 53.31 62.04 46.27 62.39 46.07 62.75 45.87 74.15 52.71 73.97 53.01 73.79 53.31"/><polygon points="63.61 47 51.43 53.78 51.26 53.47 51.09 53.16 63.27 46.39 63.44 46.7 63.61 47"/><polygon points="62.58 45.16 50.4 51.93 50.23 51.63 50.06 51.32 62.24 44.55 62.41 44.85 62.58 45.16"/><g class="cls-1"><text class="cls-2" transform="translate(44.01 57.76)">O</text></g><polygon points="62.04 46.27 62.32 28.68 62.67 28.49 63.02 28.7 62.75 45.87 62.39 46.07 62.04 46.27"/><polygon points="62.32 28.68 51.77 22.37 51.95 22.07 52.13 21.76 62.68 28.08 62.67 28.49 62.32 28.68"/><g class="cls-1"><text class="cls-2" transform="translate(43.93 22.59)">Cl</text></g><polygon points="62.68 28.08 73.51 22.06 73.68 22.37 73.85 22.68 63.02 28.7 62.67 28.49 62.68 28.08"/><g class="cls-1"><text class="cls-2" transform="translate(74.38 23.08)">Cl</text></g><polygon points="92.65 81.92 93.64 95.42 92.06 95.39 90.48 95.37 91.91 81.91 92.28 81.72 92.65 81.92"/><g class="cls-1"><text class="cls-2" transform="translate(88.98 102.45)">O</text><text class="cls-2" transform="translate(95.01 102.45)">H</text></g><polygon points="107.3 72.97 107.58 55.39 107.93 55.59 108.28 55.8 108 72.98 107.65 73.18 107.3 72.97"/><polygon points="138.39 55.68 150.08 49.18 150.25 49.48 150.42 49.79 138.73 56.29 138.38 56.08 138.39 55.68"/><g class="cls-1"><text class="cls-2" transform="translate(150.95 50.68)">N</text></g><polygon points="152.41 43.6 152.56 33.84 152.92 33.85 153.27 33.85 153.11 43.62 152.76 43.61 152.41 43.6"/><polygon points="154.52 43.64 154.67 33.88 155.03 33.88 155.38 33.89 155.22 43.65 154.87 43.64 154.52 43.64"/><g class="cls-1"><text class="cls-2" transform="translate(151.02 33.1)">O</text></g><polygon points="157.44 49.33 165.3 54.04 165.12 54.34 164.94 54.65 157.07 49.94 157.25 49.63 157.44 49.33"/><g class="cls-1"><text class="cls-2" transform="translate(165.82 59.71)">O</text></g><line class="cls-3" x1="171.52" y1="52.42" x2="174.45" y2="52.42"/><line class="cls-4" x1="156.33" y1="43.49" x2="159.26" y2="43.49"/><line class="cls-4" x1="157.8" y1="42.02" x2="157.8" y2="44.96"/></svg>