<svg id="图层_1" data-name="图层 1" xmlns="http://www.w3.org/2000/svg" viewBox="0 0 200 130"><defs><style>.cls-1,.cls-2,.cls-3{isolation:isolate;}.cls-2{font-size:10.56px;}.cls-2,.cls-3{font-family:ArialMT, Arial;}.cls-3{font-size:6.5px;}</style></defs><polygon points="102.09 75.85 122.83 63.88 122.83 64.44 122.83 64.99 102.09 76.96 102.09 76.41 102.09 75.85"/><polygon points="122.83 63.88 143.56 75.85 143.56 76.41 143.08 76.68 122.83 64.99 122.83 64.44 122.83 63.88"/><polygon points="143.56 75.85 164.3 63.88 164.3 64.44 164.3 64.99 144.04 76.68 143.56 76.41 143.56 75.85"/><polygon points="162.38 65.27 162.38 45.82 162.86 45.82 163.34 45.82 163.34 65.27 162.86 65.27 162.38 65.27"/><polygon points="165.26 65.27 165.26 45.82 165.74 45.82 166.21 45.82 166.21 65.27 165.74 65.27 165.26 65.27"/><g class="cls-1"><text class="cls-2" transform="translate(160.19 44.77)">O</text></g><polygon points="164.3 63.88 180.21 73.07 179.97 73.48 179.73 73.9 164.3 64.99 164.3 64.44 164.3 63.88"/><g class="cls-1"><text class="cls-2" transform="translate(180.93 80.68)">O</text><text class="cls-2" transform="translate(189.14 80.68)">H</text></g><polygon points="144.04 76.68 144.04 95.03 143.56 95.03 143.08 95.03 143.08 76.68 143.56 76.41 144.04 76.68"/><g class="cls-1"><text class="cls-2" transform="translate(139.75 103.27)">N</text><text class="cls-2" transform="translate(147.38 103.27)">H</text><text class="cls-3" transform="translate(155 104.89)">2</text></g><polygon points="102.09 76.96 81.36 64.99 81.36 64.44 81.36 63.88 102.09 75.85 102.09 76.41 102.09 76.96"/><polygon points="81.36 64.99 65.63 74.07 65.39 73.65 65.15 73.24 81.36 63.88 81.36 64.44 81.36 64.99"/><g class="cls-1"><text class="cls-2" transform="translate(56.81 80.68)">N</text></g><polygon points="55.61 74.07 39.89 64.99 39.89 64.44 40.37 64.16 56.09 73.24 55.85 73.65 55.61 74.07"/><polygon points="57.05 71.58 42.52 63.19 42.76 62.78 43 62.36 57.53 70.75 57.29 71.17 57.05 71.58"/><polygon points="39.89 64.99 24.16 74.07 23.92 73.65 23.68 73.24 39.41 64.16 39.89 64.44 39.89 64.99"/><g class="cls-1"><text class="cls-2" transform="translate(4.2 79.32)">H</text><text class="cls-3" transform="translate(11.82 80.95)">2</text><text class="cls-2" transform="translate(15.43 79.32)">N</text></g><polygon points="39.41 64.16 39.41 45.82 39.89 45.82 40.37 45.82 40.37 64.16 39.89 64.44 39.41 64.16"/><g class="cls-1"><text class="cls-2" transform="translate(36.08 43.41)">N</text><text class="cls-2" transform="translate(43.7 43.41)">H</text><text class="cls-3" transform="translate(51.33 45.03)">2</text></g></svg>