<svg id="图层_1" data-name="图层 1" xmlns="http://www.w3.org/2000/svg" viewBox="0 0 200 130"><defs><style>.cls-1,.cls-2,.cls-3{isolation:isolate;}.cls-2{font-size:10.69px;}.cls-2,.cls-3{font-family:ArialMT, Arial;}.cls-3{font-size:6.58px;}</style></defs><polygon points="102.13 74.82 123.13 62.7 123.13 63.26 123.13 63.82 102.13 75.94 102.13 75.38 102.13 74.82"/><polygon points="123.13 62.7 144.13 74.82 144.13 75.38 143.64 75.66 123.13 63.82 123.13 63.26 123.13 62.7"/><polygon points="144.13 74.82 165.13 62.7 165.13 63.26 165.13 63.82 144.61 75.66 144.13 75.38 144.13 74.82"/><polygon points="163.19 64.1 163.19 44.41 163.67 44.41 164.16 44.41 164.16 64.1 163.67 64.1 163.19 64.1"/><polygon points="166.09 64.1 166.09 44.41 166.58 44.41 167.06 44.41 167.06 64.1 166.58 64.1 166.09 64.1"/><g class="cls-1"><text class="cls-2" transform="translate(160.97 43.34)">O</text></g><polygon points="165.13 62.7 181.24 72 180.99 72.42 180.75 72.84 165.13 63.82 165.13 63.26 165.13 62.7"/><g class="cls-1"><text class="cls-2" transform="translate(181.96 79.71)">O</text><text class="cls-2" transform="translate(190.28 79.71)">H</text></g><polygon points="144.61 75.66 144.61 94.23 144.13 94.23 143.64 94.23 143.64 75.66 144.13 75.38 144.61 75.66"/><g class="cls-1"><text class="cls-2" transform="translate(140.27 102.58)">N</text><text class="cls-2" transform="translate(147.99 102.58)">H</text><text class="cls-3" transform="translate(155.71 104.22)">2</text></g><polygon points="102.13 75.94 81.14 63.82 81.14 63.26 81.14 62.7 102.13 74.82 102.13 75.38 102.13 75.94"/><polygon points="81.14 63.82 65.21 73.01 64.97 72.59 64.73 72.17 81.14 62.7 81.14 63.26 81.14 63.82"/><g class="cls-1"><text class="cls-2" transform="translate(56.28 79.71)">N</text></g><g class="cls-1"><text class="cls-2" transform="translate(56.28 89.47)">H</text></g><polygon points="55.07 73.01 39.14 63.82 39.14 63.26 39.14 62.7 55.55 72.17 55.31 72.59 55.07 73.01"/><polygon points="37.2 64.1 37.2 44.41 37.69 44.41 38.17 44.41 38.17 64.1 37.69 64.1 37.2 64.1"/><polygon points="40.11 64.1 40.11 44.41 40.6 44.41 41.08 44.41 41.08 64.1 40.6 64.1 40.11 64.1"/><g class="cls-1"><text class="cls-2" transform="translate(34.98 43.34)">O</text></g><polygon points="39.14 63.82 23.22 73.01 22.98 72.59 22.73 72.17 39.14 62.7 39.14 63.26 39.14 63.82"/><g class="cls-1"><text class="cls-2" transform="translate(3 78.33)">H</text><text class="cls-3" transform="translate(10.72 79.98)">2</text><text class="cls-2" transform="translate(14.38 78.33)">N</text></g></svg>