<svg id="图层_1" data-name="图层 1" xmlns="http://www.w3.org/2000/svg" viewBox="0 0 200 130"><defs><style>.cls-1,.cls-2,.cls-3{isolation:isolate;}.cls-2{font-size:11.47px;}.cls-2,.cls-3{font-family:ArialMT, Arial;}.cls-3{font-size:7.06px;}</style></defs><polygon points="195.76 77.57 173.51 63.52 174.05 63.24 174.58 62.96 196.32 76.69 196.04 77.13 195.76 77.57"/><polygon points="173.51 63.52 174.33 43.01 174.85 43.03 175.37 43.05 174.58 62.96 174.05 63.24 173.51 63.52"/><g class="cls-1"><text class="cls-2" transform="translate(170.94 40.42)">N</text><text class="cls-2" transform="translate(179.22 40.42)">H</text><text class="cls-3" transform="translate(187.5 42.18)">2</text></g><g class="cls-1"><text class="cls-2" transform="translate(146.88 79.99)">N</text></g><polygon points="145.56 72.52 129 62.06 129.03 61.46 129.05 60.86 146.12 71.64 145.84 72.08 145.56 72.52"/><polygon points="129 62.06 105.98 74.16 106 73.56 106.03 72.96 129.05 60.86 129.03 61.46 129 62.06"/><polygon points="105.98 74.16 83.98 60.28 84 59.68 84.03 59.08 106.03 72.96 106 73.56 105.98 74.16"/><polygon points="83.98 60.28 61.49 72.1 60.98 71.78 61 71.18 84.03 59.08 84 59.68 83.98 60.28"/><polygon points="60.45 72.06 38.96 58.49 38.98 57.89 39.01 57.29 61 71.18 60.98 71.78 60.45 72.06"/><polygon points="61.49 72.1 60.7 92.01 60.18 91.99 59.66 91.97 60.45 72.06 60.98 71.78 61.49 72.1"/><polygon points="36.87 58.71 37.7 37.6 38.22 37.62 38.74 37.65 37.91 58.75 37.39 58.73 36.87 58.71"/><polygon points="39.99 58.84 40.82 37.73 41.34 37.75 41.86 37.77 41.03 58.88 40.51 58.85 39.99 58.84"/><polygon points="38.96 58.49 21.7 67.57 21.46 67.11 21.22 66.64 39.01 57.29 38.98 57.89 38.96 58.49"/><g class="cls-1"><text class="cls-2" transform="translate(35.55 36.55)">O</text></g><g class="cls-1"><text class="cls-2" transform="translate(3.21 74.64)">H</text><text class="cls-2" transform="translate(11.5 74.64)">O</text></g><g class="cls-1"><text class="cls-2" transform="translate(43.7 100.94)">H</text><text class="cls-3" transform="translate(51.98 102.71)">2</text><text class="cls-2" transform="translate(55.91 100.94)">N</text></g><polygon points="154.51 69.4 172.35 60.02 172.59 60.48 172.84 60.94 154.99 70.32 154.75 69.86 154.51 69.4"/><polygon points="155.96 72.16 173.81 62.78 174.05 63.24 174.29 63.7 156.44 73.08 156.2 72.62 155.96 72.16"/></svg>