<svg id="图层_1" data-name="图层 1" xmlns="http://www.w3.org/2000/svg" viewBox="0 0 200 130">
  <defs>
    <style>
      .cls-1, .cls-2 {
        isolation: isolate;
      }

      .cls-2 {
        font-size: 10.17px;
        font-family: ArialMT, Arial;
      }
    </style>
  </defs>
  <polygon points="169.04 47.62 141.72 47.62 141.72 47.16 141.72 46.7 169.04 46.7 169.04 47.16 169.04 47.62"/>
  <g class="cls-1">
    <text class="cls-2" transform="translate(133.45 51.28)">N</text>
  </g>
  <polygon points="134.56 52.52 130.3 59.91 130.03 59.45 129.76 58.98 133.76 52.06 134.16 52.29 134.56 52.52"/>
  <polygon points="130.3 59.91 115.49 59.91 115.84 59.45 116.2 58.98 129.76 58.98 130.03 59.45 130.3 59.91"/>
  <polygon points="99.63 47.6 100.24 46.8 100.61 47.08 100.97 47.36 100.36 48.16 99.99 47.88 99.63 47.6"/>
  <polygon points="101.66 49.44 102.54 48.3 102.91 48.58 103.27 48.86 102.39 50 102.03 49.72 101.66 49.44"/>
  <polygon points="103.7 51.28 104.85 49.79 105.21 50.07 105.58 50.35 104.43 51.84 104.06 51.56 103.7 51.28"/>
  <polygon points="105.73 53.13 107.15 51.29 107.51 51.57 107.88 51.85 106.46 53.69 106.1 53.41 105.73 53.13"/>
  <polygon points="107.77 54.97 109.45 52.78 109.82 53.06 110.18 53.34 108.5 55.53 108.13 55.25 107.77 54.97"/>
  <polygon points="109.8 56.81 111.75 54.28 112.12 54.56 112.48 54.84 110.53 57.38 110.17 57.09 109.8 56.81"/>
  <polygon points="111.84 58.66 114.06 55.77 114.42 56.05 114.79 56.34 112.57 59.22 112.2 58.94 111.84 58.66"/>
  <polygon points="113.87 60.5 116.36 57.27 116.72 57.55 117.09 57.83 114.6 61.06 114.24 60.78 113.87 60.5"/>
  <polygon points="99.62 46.7 110.87 27.21 111.41 27.19 111.68 27.66 100.28 47.39 99.88 47.16 99.62 46.7"/>
  <polygon points="111.7 26.73 134.69 26.73 134.47 27.19 134.06 27.66 111.68 27.66 111.41 27.19 111.7 26.73"/>
  <polygon points="134.69 26.73 153.04 50.73 151.36 51.94 149.68 53.16 135.21 29.31 134.47 27.19 134.69 26.73"/>
  <polygon points="153.04 50.73 128.55 78.61 128.07 78.46 127.95 77.9 149.68 53.16 151.36 51.94 153.04 50.73"/>
  <polygon points="127.64 78.78 107.06 69.61 107.01 69.08 107.38 68.75 127.95 77.9 128.07 78.46 127.64 78.78"/>
  <polygon points="127.15 75.53 109.07 67.48 109.26 67.06 109.45 66.64 127.52 74.69 127.33 75.11 127.15 75.53"/>
  <polygon points="107.06 69.61 88.84 82.85 88.36 82.64 88.36 82.07 106.47 68.91 107.01 69.08 107.06 69.61"/>
  <polygon points="88.84 82.85 91.2 105.25 90.77 105.56 90.28 105.35 87.92 82.89 88.36 82.64 88.84 82.85"/>
  <polygon points="86.19 84.1 88.31 104.22 87.85 104.26 87.39 104.31 85.28 84.2 85.73 84.15 86.19 84.1"/>
  <polygon points="91.2 105.25 111.77 114.41 111.83 114.94 111.88 115.47 90.82 106.09 90.77 105.56 91.2 105.25"/>
  <polygon points="111.22 111.39 127.29 99.72 127.56 100.09 127.83 100.46 111.77 112.14 111.49 111.76 111.22 111.39"/>
  <polygon points="111.77 114.41 129.99 101.17 130.48 101.39 130.97 101.61 111.88 115.47 111.83 114.94 111.77 114.41"/>
  <polygon points="129.99 101.17 127.64 78.78 128.07 78.46 128.55 78.61 130.97 101.61 130.48 101.39 129.99 101.17"/>
  <polygon points="90.82 106.09 77.26 115.94 76.99 115.57 76.72 115.2 90.28 105.35 90.77 105.56 90.82 106.09"/>
  <g class="cls-1">
    <text class="cls-2" transform="translate(60.82 123.23)">H</text>
    <text class="cls-2" transform="translate(68.16 123.23)">O</text>
  </g>
  <polygon points="87.92 82.89 74.31 73 74.58 72.63 74.85 72.25 88.36 82.07 88.36 82.64 87.92 82.89"/>
  <g class="cls-1">
    <text class="cls-2" transform="translate(65.75 73.2)">O</text>
  </g>
  <polygon points="77.2 47.62 73.35 64.6 71.37 63.96 69.4 63.32 76.32 47.19 76.83 47.16 77.2 47.62"/>
  <polygon points="76.32 47.19 65.05 27.68 65.3 27.19 65.84 27.19 77.1 46.7 76.83 47.16 76.32 47.19"/>
  <polygon points="65.05 26.71 76.56 6.77 76.83 7.23 77.1 7.69 65.84 27.19 65.3 27.19 65.05 26.71"/>
  <polygon points="76.56 6.77 101.96 6.77 99.88 7.23 97.7 7.69 77.1 7.69 76.83 7.23 76.56 6.77"/>
  <polygon points="78.43 9.53 98.29 9.53 98.29 9.99 98.29 10.46 78.43 10.46 78.43 9.99 78.43 9.53"/>
  <polygon points="110.87 27.21 97.7 7.69 99.88 7.23 101.96 6.77 111.7 26.73 111.41 27.19 110.87 27.21"/>
  <polygon points="65.05 27.68 47.13 29.27 47.13 27.19 47.13 25.12 65.05 26.71 65.3 27.19 65.05 27.68"/>
  <g class="cls-1">
    <text class="cls-2" transform="translate(30.95 31.31)">H</text>
    <text class="cls-2" transform="translate(38.3 31.31)">O</text>
  </g>
  <polygon points="77.1 46.7 99.62 46.7 99.88 47.16 99.55 47.62 77.2 47.62 76.83 47.16 77.1 46.7"/>
  <polygon points="106.47 68.91 99.55 47.62 99.88 47.16 100.32 47.02 107.38 68.75 107.01 69.08 106.47 68.91"/>
  <polygon points="135.21 29.31 136.9 41.97 136.44 42.03 135.99 42.09 134.06 27.66 134.47 27.19 135.21 29.31"/>
</svg>
