<svg id="图层_1" data-name="图层 1" xmlns="http://www.w3.org/2000/svg" viewBox="0 0 200 130">
  <defs>
    <style>
      .cls-1, .cls-2 {
        isolation: isolate;
      }

      .cls-2 {
        font-size: 7.81px;
        font-family: ArialMT, Arial;
      }
    </style>
  </defs>
  <polygon points="153.42 89.42 135.09 89.42 135.09 89.07 135.09 88.72 153.42 88.72 153.42 89.07 153.42 89.42"/>
  <polygon points="153.42 87.3 135.09 87.3 135.09 86.94 135.09 86.59 153.42 86.59 153.42 86.94 153.42 87.3"/>
  <polygon points="136.11 88.01 127.05 103.7 126.85 103.34 126.64 102.99 135.29 88.01 135.7 88.01 136.11 88.01"/>
  <polygon points="127.05 103.7 108.93 103.7 109.14 103.34 109.34 102.99 126.64 102.99 126.85 103.34 127.05 103.7"/>
  <polygon points="108.93 103.7 99.97 88.18 100.28 88.01 100.69 88.01 109.34 102.99 109.14 103.34 108.93 103.7"/>
  <polygon points="100.28 88.36 82.57 88.36 82.57 88.01 82.57 87.65 100.08 87.65 100.28 88.01 100.28 88.36"/>
  <polygon points="82.88 87.78 82.22 88.16 82.04 87.85 81.86 87.55 82.52 87.17 82.7 87.47 82.88 87.78"/>
  <polygon points="82.05 86.08 81.16 86.59 80.98 86.29 80.81 85.98 81.69 85.47 81.87 85.77 82.05 86.08"/>
  <polygon points="81.22 84.38 80.1 85.03 79.93 84.72 79.75 84.42 80.87 83.77 81.04 84.08 81.22 84.38"/>
  <polygon points="80.39 82.68 79.05 83.46 78.87 83.16 78.69 82.85 80.04 82.07 80.22 82.38 80.39 82.68"/>
  <polygon points="79.56 80.99 77.99 81.9 77.81 81.59 77.64 81.28 79.21 80.37 79.39 80.68 79.56 80.99"/>
  <polygon points="78.74 79.29 76.93 80.33 76.76 80.02 76.58 79.72 78.38 78.67 78.56 78.98 78.74 79.29"/>
  <polygon points="77.91 77.59 75.88 78.76 75.7 78.46 75.52 78.15 77.56 76.98 77.73 77.28 77.91 77.59"/>
  <polygon points="77.08 75.89 74.82 77.2 74.64 76.89 74.47 76.58 76.73 75.28 76.9 75.58 77.08 75.89"/>
  <polygon points="76.25 74.19 73.76 75.63 73.59 75.32 73.41 75.02 75.9 73.58 76.08 73.89 76.25 74.19"/>
  <polygon points="75.42 72.5 72.71 74.06 72.53 73.76 72.35 73.45 75.07 71.88 75.25 72.19 75.42 72.5"/>
  <polygon points="73.1 73.02 82.16 57.33 82.57 57.33 82.77 57.68 74.33 72.31 73.71 72.67 73.1 73.02"/>
  <polygon points="82.77 56.97 100.08 56.97 100.28 57.33 100.08 57.68 82.77 57.68 82.57 57.33 82.77 56.97"/>
  <polygon points="83.8 59.1 99.05 59.1 99.05 59.45 99.05 59.81 83.8 59.81 83.8 59.45 83.8 59.1"/>
  <polygon points="100.69 57.33 109.34 72.31 109.14 72.67 108.73 72.67 100.08 57.68 100.28 57.33 100.69 57.33"/>
  <polygon points="109.34 72.31 126.5 72.31 126.85 72.67 126.64 73.02 109.14 73.02 109.14 72.67 109.34 72.31"/>
  <polygon points="126.5 72.31 126.7 58.83 128.28 58.99 129.87 59.16 127.22 72.6 126.85 72.67 126.5 72.31"/>
  <g class="cls-1">
    <text class="cls-2" transform="translate(125.66 58.22)">O</text>
  </g>
  <polygon points="124.76 52.84 109.25 42.49 109.14 41.99 109.4 41.74 125.15 52.26 124.95 52.55 124.76 52.84"/>
  <polygon points="108.73 41.99 100.08 27 100.28 26.65 100.69 26.65 109.4 41.74 109.14 41.99 108.73 41.99"/>
  <polygon points="110.42 40.67 102.43 26.83 102.73 26.65 103.04 26.47 111.04 40.32 110.73 40.5 110.42 40.67"/>
  <polygon points="100.08 27 82.77 27 82.57 26.65 82.36 26.3 100.08 26.3 100.28 26.65 100.08 27"/>
  <polygon points="84.1 28.95 76.47 42.17 76.17 41.99 75.86 41.81 83.49 28.6 83.8 28.78 84.1 28.95"/>
  <polygon points="82.77 27 74.12 41.99 73.71 41.99 73.3 41.99 82.36 26.3 82.57 26.65 82.77 27"/>
  <polygon points="74.12 41.99 82.77 56.97 82.57 57.33 82.16 57.33 73.3 41.99 73.71 41.99 74.12 41.99"/>
  <polygon points="100.08 26.3 106.56 15.07 106.86 15.25 107.17 15.43 100.69 26.65 100.28 26.65 100.08 26.3"/>
  <g class="cls-1">
    <text class="cls-2" transform="translate(106.1 14.47)">O</text>
    <text class="cls-2" transform="translate(112.17 14.47)">H</text>
  </g>
  <polygon points="109.25 42.49 100.69 57.33 100.28 57.33 100.08 56.97 108.73 41.99 109.14 41.99 109.25 42.49"/>
  <polygon points="127.22 72.6 136.11 88.01 135.7 88.01 135.29 88.01 126.64 73.02 126.85 72.67 127.22 72.6"/>
  <polygon points="108.73 72.59 109.49 72.88 109.36 73.21 109.23 73.54 108.47 73.25 108.6 72.92 108.73 72.59"/>
  <polygon points="107.84 74.22 109.03 74.68 108.9 75.01 108.77 75.34 107.58 74.88 107.71 74.55 107.84 74.22"/>
  <polygon points="106.96 75.85 108.57 76.48 108.44 76.81 108.31 77.14 106.7 76.51 106.83 76.18 106.96 75.85"/>
  <polygon points="106.07 77.48 108.11 78.28 107.98 78.61 107.85 78.94 105.81 78.14 105.94 77.81 106.07 77.48"/>
  <polygon points="105.18 79.11 107.64 80.08 107.52 80.41 107.39 80.74 104.92 79.77 105.06 79.44 105.18 79.11"/>
  <polygon points="104.3 80.75 107.18 81.88 107.06 82.21 106.92 82.54 104.04 81.41 104.17 81.08 104.3 80.75"/>
  <polygon points="105.41 82.31 95.75 80.16 95.51 79.75 95.27 79.33 105.56 81.62 105.48 81.97 105.41 82.31"/>
  <polygon points="95.75 80.16 94.03 85.66 93.69 85.55 93.35 85.45 95.27 79.33 95.51 79.75 95.75 80.16"/>
  <g class="cls-1">
    <text class="cls-2" transform="translate(89.63 92.66)">N</text>
  </g>
  <polygon points="91.45 93.55 82.82 119.04 82.57 118.68 82.31 118.33 90.78 93.32 91.12 93.43 91.45 93.55"/>
  <polygon points="82.82 119.04 64.95 119.04 64.86 118.68 64.95 118.33 82.31 118.33 82.57 118.68 82.82 119.04"/>
  <polygon points="64.95 119.04 49.16 128.15 49.52 127.54 49.87 126.93 64.15 118.68 64.86 118.68 64.95 119.04"/>
  <polygon points="49.16 128.15 49.16 109.22 49.52 109.83 49.87 110.44 49.87 126.93 49.52 127.54 49.16 128.15"/>
  <polygon points="49.16 109.22 64.95 118.33 64.86 118.68 64.15 118.68 49.87 110.44 49.52 109.83 49.16 109.22"/>
  <polygon points="88.87 89.31 82.52 88.36 82.57 88.01 82.62 87.66 88.97 88.61 88.92 88.96 88.87 89.31"/>
  <polygon points="109.34 73.02 100.69 88.01 100.28 88.01 100.08 87.65 108.73 72.67 109.14 72.67 109.34 73.02"/>
  <polygon points="99.89 87.95 100.64 88.17 100.54 88.51 100.45 88.85 99.69 88.63 99.79 88.29 99.89 87.95"/>
  <polygon points="99.11 89.96 100.24 90.28 100.14 90.62 100.04 90.96 98.92 90.64 99.01 90.3 99.11 89.96"/>
  <polygon points="98.33 91.96 99.84 92.39 99.74 92.73 99.64 93.07 98.14 92.64 98.23 92.3 98.33 91.96"/>
  <polygon points="97.56 93.97 99.43 94.5 99.33 94.85 99.24 95.19 97.36 94.65 97.46 94.31 97.56 93.97"/>
  <polygon points="96.78 95.97 99.03 96.62 98.93 96.96 98.83 97.3 96.58 96.65 96.68 96.31 96.78 95.97"/>
  <polygon points="96 97.98 98.63 98.73 98.53 99.07 98.43 99.41 95.8 98.66 95.9 98.32 96 97.98"/>
  <polygon points="95.22 99.98 98.22 100.84 98.13 101.18 98.03 101.53 95.03 100.66 95.12 100.32 95.22 99.98"/>
  <g class="cls-1">
    <text class="cls-2" transform="translate(86.72 108.2)">H</text>
    <text class="cls-2" transform="translate(92.36 108.2)">O</text>
  </g>
</svg>
