<svg id="图层_1" data-name="图层 1" xmlns="http://www.w3.org/2000/svg" viewBox="0 0 200 130">
  <defs>
    <style>
      .cls-1, .cls-2 {
        isolation: isolate;
      }

      .cls-2 {
        font-size: 9.08px;
        font-family: ArialMT, Arial;
      }
    </style>
  </defs>
  <polygon points="163.35 18.45 163.35 39.29 162.94 39.05 162.53 38.81 162.53 18.45 162.94 18.45 163.35 18.45"/>
  <polygon points="163.35 39.29 145.51 49.59 145.1 49.35 144.69 49.11 162.53 38.81 162.94 39.05 163.35 39.29"/>
  <polygon points="145.51 49.59 145.51 69.54 145.1 69.95 144.69 69.54 144.69 49.11 145.1 49.35 145.51 49.59"/>
  <polygon points="144.66 70 145.55 70 145.55 70.41 145.55 70.83 144.66 70.83 144.66 70.41 144.66 70"/>
  <polygon points="144.5 72.19 145.7 72.19 145.7 72.61 145.7 73.02 144.5 73.02 144.5 72.61 144.5 72.19"/>
  <polygon points="144.35 74.39 145.85 74.39 145.85 74.8 145.85 75.21 144.35 75.21 144.35 74.8 144.35 74.39"/>
  <polygon points="144.2 76.58 146.01 76.58 146.01 76.99 146.01 77.4 144.2 77.4 144.2 76.99 144.2 76.58"/>
  <polygon points="144.04 78.77 146.16 78.77 146.16 79.18 146.16 79.59 144.04 79.59 144.04 79.18 144.04 78.77"/>
  <polygon points="143.89 80.96 146.31 80.96 146.31 81.37 146.31 81.78 143.89 81.78 143.89 81.37 143.89 80.96"/>
  <polygon points="143.74 83.15 146.47 83.15 146.47 83.56 146.47 83.98 143.74 83.98 143.74 83.56 143.74 83.15"/>
  <polygon points="143.58 85.34 146.62 85.34 146.62 85.76 146.62 86.17 143.58 86.17 143.58 85.76 143.58 85.34"/>
  <polygon points="143.43 87.54 146.77 87.54 146.77 87.95 146.77 88.36 143.43 88.36 143.43 87.95 143.43 87.54"/>
  <polygon points="143.28 89.73 146.93 89.73 146.93 90.14 146.93 90.55 143.28 90.55 143.28 90.14 143.28 89.73"/>
  <polygon points="145.1 70.36 124.76 70.36 124.5 69.95 124.74 69.54 144.69 69.54 145.1 69.95 145.1 70.36"/>
  <polygon points="124.76 70.36 114.2 92.01 114.2 87.79 114.2 84.48 124.02 69.94 124.5 69.95 124.76 70.36"/>
  <polygon points="93.65 88.24 93.65 87.35 94.06 87.35 94.47 87.35 94.47 88.24 94.06 88.24 93.65 88.24"/>
  <polygon points="96.11 88.41 96.11 87.17 96.53 87.17 96.94 87.17 96.94 88.41 96.53 88.41 96.11 88.41"/>
  <polygon points="98.58 88.58 98.58 87 98.99 87 99.41 87 99.41 88.58 98.99 88.58 98.58 88.58"/>
  <polygon points="101.05 88.75 101.05 86.83 101.46 86.83 101.87 86.83 101.87 88.75 101.46 88.75 101.05 88.75"/>
  <polygon points="103.51 88.93 103.51 86.66 103.92 86.66 104.34 86.66 104.34 88.93 103.92 88.93 103.51 88.93"/>
  <polygon points="105.98 89.1 105.98 86.48 106.39 86.48 106.8 86.48 106.8 89.1 106.39 89.1 105.98 89.1"/>
  <polygon points="108.44 89.27 108.44 86.31 108.86 86.31 109.27 86.31 109.27 89.27 108.86 89.27 108.44 89.27"/>
  <polygon points="110.91 89.44 110.91 86.14 111.32 86.14 111.74 86.14 111.74 89.44 111.32 89.44 110.91 89.44"/>
  <polygon points="113.38 89.62 113.38 85.97 113.79 85.97 114.2 85.97 114.2 89.62 113.79 89.62 113.38 89.62"/>
  <polygon points="92.92 85.78 90.8 69.87 91.22 69.95 91.65 70.04 94.01 87.74 93.6 87.79 92.92 85.78"/>
  <polygon points="90.8 69.87 97.28 58.65 97.56 58.97 97.85 59.3 91.65 70.04 91.22 69.95 90.8 69.87"/>
  <polygon points="93.43 70.25 98.92 60.73 99.28 60.94 99.64 61.14 94.14 70.67 93.78 70.46 93.43 70.25"/>
  <polygon points="97.28 58.65 112.12 52.52 114.2 52.11 114.02 52.63 97.85 59.3 97.56 58.97 97.28 58.65"/>
  <polygon points="112.12 52.52 93.84 52.52 93.6 52.11 93.81 51.7 113.94 51.7 114.2 52.11 112.12 52.52"/>
  <polygon points="93.84 52.52 83.78 69.95 83.3 69.95 83.09 69.49 93.08 52.19 93.6 52.11 93.84 52.52"/>
  <polygon points="83.08 69.56 83.42 70.39 83.04 70.55 82.66 70.7 82.31 69.87 82.7 69.71 83.08 69.56"/>
  <polygon points="80.74 70.31 81.23 71.5 80.85 71.66 80.47 71.82 79.98 70.62 80.36 70.47 80.74 70.31"/>
  <polygon points="78.41 71.06 79.05 72.61 78.67 72.77 78.28 72.93 77.64 71.37 78.02 71.22 78.41 71.06"/>
  <polygon points="76.07 71.81 76.86 73.73 76.48 73.89 76.1 74.04 75.31 72.13 75.69 71.97 76.07 71.81"/>
  <polygon points="73.73 72.56 74.67 74.84 74.29 75 73.91 75.16 72.97 72.88 73.35 72.72 73.73 72.56"/>
  <polygon points="71.4 73.31 72.49 75.96 72.11 76.11 71.73 76.27 70.64 73.63 71.02 73.47 71.4 73.31"/>
  <polygon points="69.06 74.06 70.3 77.07 69.92 77.23 69.54 77.38 68.3 74.38 68.68 74.22 69.06 74.06"/>
  <polygon points="66.73 74.82 68.12 78.18 67.73 78.34 67.35 78.5 65.97 75.13 66.35 74.97 66.73 74.82"/>
  <polygon points="66.86 77.3 60.8 87.79 60.32 87.79 59.85 87.79 66.46 76.33 66.66 76.81 66.86 77.3"/>
  <polygon points="60.8 87.79 64.37 93.98 64.02 94.19 63.66 94.39 59.85 87.79 60.32 87.79 60.8 87.79"/>
  <g class="cls-1">
    <text class="cls-2" transform="translate(63.38 102.45)">N</text>
  </g>
  <polygon points="70.92 100.08 83.12 105.11 83.3 105.63 81.17 105.2 70.61 100.84 70.76 100.46 70.92 100.08"/>
  <polygon points="83.55 106.02 55.17 108.67 55.05 106.82 54.94 104.97 81.17 105.2 83.3 105.63 83.55 106.02"/>
  <polygon points="55.17 108.67 46.14 78.08 46.48 77.78 46.96 77.94 54.94 104.97 55.05 106.82 55.17 108.67"/>
  <polygon points="46.43 77.3 62.72 65.47 63.15 65.67 63.24 66.11 46.96 77.94 46.48 77.78 46.43 77.3"/>
  <polygon points="62.72 65.47 60.61 45.46 61 45.18 61.44 45.44 63.53 65.33 63.15 65.67 62.72 65.47"/>
  <polygon points="65.01 63.67 63.23 46.75 63.64 46.71 64.05 46.66 65.83 63.58 65.42 63.62 65.01 63.67"/>
  <polygon points="60.61 45.46 42.23 37.27 42.18 36.8 42.56 36.52 61 44.73 61 45.18 60.61 45.46"/>
  <polygon points="42.72 39.97 28.36 50.41 28.12 50.07 27.88 49.74 42.23 39.31 42.48 39.64 42.72 39.97"/>
  <polygon points="42.23 37.27 25.95 49.1 25.51 48.91 25.08 48.72 41.74 36.61 42.18 36.8 42.23 37.27"/>
  <polygon points="25.95 49.1 28.05 69.12 27.66 69.4 27.28 69.68 25.08 48.72 25.51 48.91 25.95 49.1"/>
  <polygon points="30.14 67.34 46.35 74.56 46.19 74.94 46.02 75.31 29.8 68.1 29.97 67.72 30.14 67.34"/>
  <polygon points="28.05 69.12 46.43 77.3 46.48 77.78 46.14 78.08 27.28 69.68 27.66 69.4 28.05 69.12"/>
  <polygon points="41.74 36.61 40.09 20.94 40.51 20.9 40.91 20.85 42.56 36.52 42.18 36.8 41.74 36.61"/>
  <g class="cls-1">
    <text class="cls-2" transform="translate(29.93 19.99)">H</text>
    <text class="cls-2" transform="translate(36.49 19.99)">O</text>
  </g>
  <polygon points="61 44.73 75.29 38.37 75.46 38.74 75.63 39.12 61.44 45.44 61 45.18 61 44.73"/>
  <g class="cls-1">
    <text class="cls-2" transform="translate(76.28 40.48)">O</text>
  </g>
  <polygon points="93.08 52.19 82.56 42.62 83.94 41.38 85.32 40.14 93.81 51.7 93.6 52.11 93.08 52.19"/>
  <polygon points="63.53 65.33 83.09 69.49 83.3 69.95 83.21 70.35 63.24 66.11 63.15 65.67 63.53 65.33"/>
  <polygon points="83.12 105.11 93.12 87.79 93.6 87.79 93.96 88 83.55 106.02 83.3 105.63 83.12 105.11"/>
  <polygon points="64.37 103.56 52.76 123.68 52.4 123.47 52.04 123.27 63.66 103.15 64.02 103.35 64.37 103.56"/>
  <polygon points="83.78 69.95 92.92 85.78 93.6 87.79 93.12 87.79 82.94 70.16 83.3 69.95 83.78 69.95"/>
  <polygon points="113.94 51.7 120.25 37.92 121.86 38.85 123.46 39.78 114.69 52.13 114.2 52.11 113.94 51.7"/>
  <g class="cls-1">
    <text class="cls-2" transform="translate(120.97 37.95)">O</text>
  </g>
  <polygon points="128.86 33.86 145.1 33.86 145.1 34.27 145.1 34.68 128.86 34.68 128.86 34.27 128.86 33.86"/>
  <polygon points="114.69 52.13 124.74 69.54 124.5 69.95 124.02 69.94 114.02 52.63 114.2 52.11 114.69 52.13"/>
  <polygon points="145.51 69.54 161.34 69.54 161.34 69.95 161.34 70.36 145.1 70.36 145.1 69.95 145.51 69.54"/>
  <g class="cls-1">
    <text class="cls-2" transform="translate(162.17 73.63)">O</text>
    <text class="cls-2" transform="translate(169.23 73.63)">H</text>
  </g>
</svg>
