<svg id="图层_1" data-name="图层 1" xmlns="http://www.w3.org/2000/svg" viewBox="0 0 200 130">
  <defs>
    <style>
      .cls-1, .cls-2 {
        isolation: isolate;
      }

      .cls-2 {
        font-size: 9.09px;
        font-family: ArialMT, Arial;
      }
    </style>
  </defs>
  <polygon points="178.66 38.55 159.48 38.55 159.48 38.14 159.48 37.73 178.66 37.73 178.66 38.14 178.66 38.55"/>
  <polygon points="178.66 36.08 158.29 36.08 158.05 35.67 157.81 35.26 178.66 35.26 178.66 35.67 178.66 36.08"/>
  <polygon points="158.29 36.08 147.99 53.92 147.75 53.51 147.51 53.1 157.81 35.26 158.05 35.67 158.29 36.08"/>
  <polygon points="147.99 53.92 123.32 53.92 123.32 53.51 123.32 53.1 147.51 53.1 147.75 53.51 147.99 53.92"/>
  <g class="cls-1">
    <text class="cls-2" transform="translate(115.94 57.19)">N</text>
  </g>
  <polygon points="116.93 58.3 113.12 64.91 112.88 64.49 112.64 64.08 116.22 57.89 116.57 58.1 116.93 58.3"/>
  <polygon points="113.12 64.91 99.88 64.91 100.2 64.49 100.52 64.08 112.64 64.08 112.88 64.49 113.12 64.91"/>
  <polygon points="85.7 53.9 86.25 53.19 86.58 53.44 86.91 53.69 86.36 54.41 86.03 54.15 85.7 53.9"/>
  <polygon points="87.52 55.55 88.31 54.53 88.64 54.78 88.96 55.03 88.18 56.05 87.85 55.8 87.52 55.55"/>
  <polygon points="89.34 57.2 90.37 55.86 90.69 56.12 91.02 56.37 90 57.7 89.67 57.45 89.34 57.2"/>
  <polygon points="91.16 58.84 92.43 57.2 92.75 57.45 93.08 57.7 91.81 59.35 91.49 59.1 91.16 58.84"/>
  <polygon points="92.98 60.49 94.48 58.54 94.81 58.79 95.14 59.04 93.63 61 93.31 60.74 92.98 60.49"/>
  <polygon points="94.8 62.14 96.54 59.88 96.87 60.13 97.2 60.38 95.45 62.64 95.13 62.39 94.8 62.14"/>
  <polygon points="96.62 63.79 98.6 61.21 98.93 61.46 99.25 61.71 97.27 64.29 96.94 64.04 96.62 63.79"/>
  <polygon points="98.44 65.44 100.66 62.55 100.98 62.8 101.31 63.05 99.09 65.94 98.76 65.69 98.44 65.44"/>
  <polygon points="85.7 53.1 95.75 35.68 96.24 35.67 96.47 36.08 86.29 53.72 85.93 53.51 85.7 53.1"/>
  <polygon points="96.49 35.26 117.03 35.26 116.84 35.67 116.48 36.08 96.47 36.08 96.24 35.67 96.49 35.26"/>
  <polygon points="117.03 35.26 134.57 55.59 133.06 56.67 131.56 57.75 117.48 37.31 116.84 35.67 117.03 35.26"/>
  <polygon points="134.57 55.59 111.55 81.63 111.13 81.49 111.02 80.99 131.56 57.75 133.06 56.67 134.57 55.59"/>
  <polygon points="110.74 81.77 92.35 73.58 92.3 73.11 92.64 72.81 111.02 80.99 111.13 81.49 110.74 81.77"/>
  <polygon points="110.31 78.87 94.14 71.67 94.31 71.3 94.48 70.92 110.64 78.12 110.47 78.49 110.31 78.87"/>
  <polygon points="92.35 73.58 76.07 85.41 75.63 85.22 75.63 84.71 91.82 72.95 92.3 73.11 92.35 73.58"/>
  <polygon points="76.07 85.41 78.17 105.43 77.78 105.71 77.35 105.52 75.24 85.45 75.63 85.22 76.07 85.41"/>
  <polygon points="73.7 86.53 75.59 104.51 75.18 104.55 74.77 104.59 72.88 86.62 73.29 86.57 73.7 86.53"/>
  <polygon points="78.17 105.43 96.56 113.62 96.61 114.09 96.66 114.57 77.83 106.19 77.78 105.71 78.17 105.43"/>
  <polygon points="96.07 110.92 110.43 100.49 110.67 100.82 110.91 101.16 96.55 111.59 96.31 111.25 96.07 110.92"/>
  <polygon points="96.56 113.62 112.84 101.79 113.28 101.98 113.71 102.18 96.66 114.57 96.61 114.09 96.56 113.62"/>
  <polygon points="112.84 101.79 110.74 81.77 111.13 81.49 111.55 81.63 113.71 102.18 113.28 101.98 112.84 101.79"/>
  <polygon points="77.83 106.19 65.72 114.99 65.47 114.66 65.23 114.33 77.35 105.52 77.78 105.71 77.83 106.19"/>
  <g class="cls-1">
    <text class="cls-2" transform="translate(51.02 121.51)">H</text>
    <text class="cls-2" transform="translate(57.58 121.51)">O</text>
  </g>
  <polygon points="75.24 85.45 63.08 76.61 63.32 76.28 63.56 75.94 75.63 84.71 75.63 85.22 75.24 85.45"/>
  <g class="cls-1">
    <text class="cls-2" transform="translate(55.43 76.79)">O</text>
  </g>
  <polygon points="65.66 53.92 62.21 69.1 60.45 68.53 58.69 67.95 64.87 53.54 65.33 53.51 65.66 53.92"/>
  <polygon points="64.87 53.54 54.8 36.1 55.03 35.67 55.5 35.67 65.57 53.1 65.33 53.51 64.87 53.54"/>
  <polygon points="54.8 35.24 65.09 17.41 65.33 17.82 65.57 18.23 55.5 35.67 55.03 35.67 54.8 35.24"/>
  <polygon points="65.09 17.41 87.79 17.41 85.93 17.82 83.98 18.23 65.57 18.23 65.33 17.82 65.09 17.41"/>
  <polygon points="66.76 19.88 84.51 19.88 84.51 20.3 84.51 20.71 66.76 20.71 66.76 20.3 66.76 19.88"/>
  <polygon points="95.75 35.68 83.98 18.23 85.93 17.82 87.79 17.41 96.49 35.26 96.24 35.67 95.75 35.68"/>
  <polygon points="54.8 36.1 38.78 37.52 38.78 35.67 38.78 33.81 54.8 35.24 55.03 35.67 54.8 36.1"/>
  <g class="cls-1">
    <text class="cls-2" transform="translate(24.33 39.35)">H</text>
    <text class="cls-2" transform="translate(30.89 39.35)">O</text>
  </g>
  <polygon points="65.57 53.1 85.7 53.1 85.93 53.51 85.64 53.92 65.66 53.92 65.33 53.51 65.57 53.1"/>
  <polygon points="91.82 72.95 85.64 53.92 85.93 53.51 86.33 53.38 92.64 72.81 92.3 73.11 91.82 72.95"/>
  <polygon points="117.48 37.31 119.02 48.88 118.61 48.93 118.2 48.98 116.48 36.08 116.84 35.67 117.48 37.31"/>
</svg>
