<svg id="图层_1" data-name="图层 1" xmlns="http://www.w3.org/2000/svg" viewBox="0 0 200 130">
  <defs>
    <style>
      .cls-1, .cls-2 {
        isolation: isolate;
      }

      .cls-2 {
        font-size: 7.38px;
        font-family: ArialMT, Arial;
      }
    </style>
  </defs>
  <polygon points="149.13 49.46 165.53 48.31 165.53 49.82 165.53 51.33 149.13 50.18 148.79 49.82 149.13 49.46"/>
  <polygon points="148.46 50.16 132.26 50.16 132.06 49.82 132.25 49.49 148.46 49.49 148.79 49.82 148.46 50.16"/>
  <polygon points="132.26 50.16 123.69 67.74 123.69 64.32 123.69 61.63 131.66 49.81 132.06 49.82 132.26 50.16"/>
  <polygon points="106.99 64.68 106.99 63.96 107.32 63.96 107.66 63.96 107.66 64.68 107.32 64.68 106.99 64.68"/>
  <polygon points="108.99 64.82 108.99 63.82 109.33 63.82 109.66 63.82 109.66 64.82 109.33 64.82 108.99 64.82"/>
  <polygon points="111 64.96 111 63.67 111.33 63.67 111.67 63.67 111.67 64.96 111.33 64.96 111 64.96"/>
  <polygon points="113 65.1 113 63.53 113.33 63.53 113.67 63.53 113.67 65.1 113.33 65.1 113 65.1"/>
  <polygon points="115 65.24 115 63.4 115.34 63.4 115.67 63.4 115.67 65.24 115.34 65.24 115 65.24"/>
  <polygon points="117.01 65.38 117.01 63.25 117.34 63.25 117.68 63.25 117.68 65.38 117.34 65.38 117.01 65.38"/>
  <polygon points="119.01 65.52 119.01 63.11 119.34 63.11 119.68 63.11 119.68 65.52 119.34 65.52 119.01 65.52"/>
  <polygon points="121.01 65.66 121.01 62.97 121.35 62.97 121.68 62.97 121.68 65.66 121.35 65.66 121.01 65.66"/>
  <polygon points="123.02 65.8 123.02 62.83 123.35 62.83 123.69 62.83 123.69 65.8 123.35 65.8 123.02 65.8"/>
  <polygon points="106.39 62.69 104.67 49.75 105.02 49.82 105.36 49.89 107.28 64.27 106.95 64.32 106.39 62.69"/>
  <polygon points="104.67 49.75 109.93 40.63 110.17 40.9 110.4 41.17 105.36 49.89 105.02 49.82 104.67 49.75"/>
  <polygon points="109.93 40.63 122 35.66 123.69 35.33 123.54 35.75 110.4 41.17 110.17 40.9 109.93 40.63"/>
  <polygon points="122 35.66 107.14 35.66 106.95 35.33 107.11 34.99 123.47 34.99 123.69 35.33 122 35.66"/>
  <polygon points="107.14 35.66 98.97 49.82 98.58 49.82 98.41 49.44 106.52 35.39 106.95 35.33 107.14 35.66"/>
  <polygon points="98.4 49.5 98.68 50.18 98.37 50.3 98.06 50.43 97.78 49.76 98.09 49.63 98.4 49.5"/>
  <polygon points="96.5 50.11 96.9 51.08 96.59 51.21 96.28 51.34 95.88 50.37 96.19 50.24 96.5 50.11"/>
  <polygon points="94.6 50.72 95.12 51.98 94.81 52.11 94.5 52.24 93.98 50.98 94.29 50.85 94.6 50.72"/>
  <polygon points="92.7 51.33 93.35 52.89 93.04 53.02 92.73 53.15 92.08 51.59 92.39 51.46 92.7 51.33"/>
  <polygon points="90.81 51.94 91.57 53.8 91.26 53.92 90.95 54.05 90.19 52.2 90.5 52.07 90.81 51.94"/>
  <polygon points="88.91 52.55 89.79 54.7 89.48 54.83 89.17 54.95 88.29 52.81 88.6 52.68 88.91 52.55"/>
  <polygon points="87.01 53.16 88.02 55.6 87.71 55.73 87.4 55.86 86.39 53.42 86.7 53.29 87.01 53.16"/>
  <polygon points="85.11 53.77 86.24 56.51 85.93 56.64 85.62 56.77 84.49 54.03 84.8 53.9 85.11 53.77"/>
  <polygon points="85.22 55.79 80.3 64.32 79.91 64.32 79.52 64.32 84.9 55.01 85.06 55.4 85.22 55.79"/>
  <polygon points="80.3 64.32 83.2 69.35 82.91 69.51 82.62 69.68 79.52 64.32 79.91 64.32 80.3 64.32"/>
  <g class="cls-1">
    <text class="cls-2" transform="translate(82.39 76.23)">N</text>
  </g>
  <polygon points="88.52 74.3 98.44 78.39 98.58 78.81 96.54 78.33 88.27 74.92 88.39 74.61 88.52 74.3"/>
  <polygon points="98.78 79.14 76.23 79.91 76.08 78.41 75.93 76.89 96.54 78.33 98.58 78.81 98.78 79.14"/>
  <polygon points="76.23 79.91 68.39 56.42 68.66 56.18 69.06 56.31 75.93 76.89 76.08 78.41 76.23 79.91"/>
  <polygon points="68.62 55.8 81.85 46.18 82.21 46.34 82.28 46.7 69.06 56.31 68.66 56.18 68.62 55.8"/>
  <polygon points="81.85 46.18 80.14 29.92 80.46 29.69 80.81 29.9 82.51 46.06 82.21 46.34 81.85 46.18"/>
  <polygon points="83.72 44.71 82.27 30.97 82.61 30.93 82.94 30.9 84.38 44.64 84.05 44.68 83.72 44.71"/>
  <polygon points="80.14 29.92 65.2 23.27 65.17 22.89 65.48 22.66 80.46 29.33 80.46 29.69 80.14 29.92"/>
  <polygon points="65.6 25.46 53.94 33.94 53.74 33.67 53.55 33.4 65.21 24.92 65.41 25.19 65.6 25.46"/>
  <polygon points="65.2 23.27 51.98 32.88 51.62 32.72 51.27 32.57 64.81 22.73 65.17 22.89 65.2 23.27"/>
  <polygon points="51.98 32.88 53.69 49.14 53.37 49.37 53.06 49.6 51.27 32.57 51.62 32.72 51.98 32.88"/>
  <polygon points="55.38 47.7 68.56 53.57 68.42 53.87 68.29 54.18 55.11 48.31 55.25 48.01 55.38 47.7"/>
  <polygon points="53.69 49.14 68.62 55.8 68.66 56.18 68.39 56.42 53.06 49.6 53.37 49.37 53.69 49.14"/>
  <polygon points="64.81 22.73 63.47 10 63.81 9.96 64.14 9.93 65.48 22.66 65.17 22.89 64.81 22.73"/>
  <g class="cls-1">
    <text class="cls-2" transform="translate(55.21 9.23)">H</text>
    <text class="cls-2" transform="translate(60.54 9.23)">O</text>
  </g>
  <polygon points="80.46 29.33 92.07 24.16 92.21 24.46 92.34 24.77 80.81 29.9 80.46 29.69 80.46 29.33"/>
  <g class="cls-1">
    <text class="cls-2" transform="translate(92.88 25.88)">O</text>
  </g>
  <polygon points="106.52 35.39 97.98 27.62 99.1 26.61 100.22 25.6 107.11 34.99 106.95 35.33 106.52 35.39"/>
  <polygon points="82.51 46.06 98.41 49.44 98.58 49.82 98.51 50.15 82.28 46.7 82.21 46.34 82.51 46.06"/>
  <polygon points="98.44 78.39 106.56 64.32 106.95 64.32 107.24 64.48 98.78 79.14 98.58 78.81 98.44 78.39"/>
  <polygon points="83.2 77.13 73.86 93.31 73.47 93.31 73.08 93.31 82.62 76.79 82.91 76.96 83.2 77.13"/>
  <polygon points="73.86 93.31 82.08 107.56 81.84 107.81 81.5 107.89 73.08 93.31 73.47 93.31 73.86 93.31"/>
  <polygon points="82.08 107.56 97.01 116.17 96.34 116.17 95.67 116.17 82.17 108.39 81.84 107.81 82.08 107.56"/>
  <polygon points="97.01 116.17 81.5 125.12 81.84 124.54 82.17 123.96 95.67 116.17 96.34 116.17 97.01 116.17"/>
  <polygon points="81.5 125.12 81.5 107.89 81.84 107.81 82.17 108.39 82.17 123.96 81.84 124.54 81.5 125.12"/>
  <polygon points="98.97 49.82 106.39 62.69 106.95 64.32 106.56 64.32 98.29 49.99 98.58 49.82 98.97 49.82"/>
  <polygon points="123.47 34.99 128.6 23.8 129.91 24.55 131.21 25.3 124.08 35.34 123.69 35.33 123.47 34.99"/>
  <g class="cls-1">
    <text class="cls-2" transform="translate(129.18 23.82)">O</text>
  </g>
  <polygon points="135.6 20.49 148.79 20.49 148.79 20.83 148.79 21.16 135.6 21.16 135.6 20.83 135.6 20.49"/>
  <polygon points="124.08 35.34 132.25 49.49 132.06 49.82 131.66 49.81 123.54 35.75 123.69 35.33 124.08 35.34"/>
  <polygon points="149.13 50.18 149.13 66.22 148.79 66.56 148.46 66.22 148.46 50.16 148.79 49.82 149.13 50.18"/>
  <polygon points="149.13 66.22 165.53 66.22 165.53 66.56 165.53 66.89 149.13 66.89 148.79 66.56 149.13 66.22"/>
  <polygon points="148.46 66.89 132.06 66.89 132.06 66.56 132.06 66.22 148.46 66.22 148.79 66.56 148.46 66.89"/>
  <polygon points="149.13 66.89 149.13 83.3 148.79 83.3 148.46 83.3 148.46 66.89 148.79 66.56 149.13 66.89"/>
  <polygon points="148.46 49.49 148.46 36.8 148.79 36.8 149.13 36.8 149.13 49.46 148.79 49.82 148.46 49.49"/>
  <g class="cls-1">
    <text class="cls-2" transform="translate(145.92 36.07)">O</text>
    <text class="cls-2" transform="translate(151.66 36.07)">H</text>
  </g>
</svg>
