<svg id="图层_1" data-name="图层 1" xmlns="http://www.w3.org/2000/svg" viewBox="0 0 200 130"><defs><style>.cls-1,.cls-2{isolation:isolate;}.cls-2{font-size:9.23px;font-family:ArialMT, Arial;}</style></defs><polygon points="62.86 32.99 69.1 47.57 68.72 47.73 68.33 47.9 62.09 33.32 62.47 33.15 62.86 32.99"/><g class="cls-1"><text class="cls-2" transform="translate(67.38 56.13)">N</text></g><polygon points="74.97 52.93 91.5 56.69 91.11 57.03 90.72 57.37 74.78 53.75 74.88 53.34 74.97 52.93"/><polygon points="89.33 56.37 101.34 45.87 101.61 46.18 101.89 46.5 89.88 57 89.6 56.69 89.33 56.37"/><polygon points="90.98 58.26 102.99 47.76 103.27 48.07 103.54 48.39 91.53 58.89 91.25 58.58 90.98 58.26"/><g class="cls-1"><text class="cls-2" transform="translate(103.28 46.99)">O</text></g><polygon points="91.5 56.69 93.4 77.62 93 77.87 92.56 77.61 90.72 57.37 91.11 57.03 91.5 56.69"/><polygon points="95.6 76.01 111.23 85.34 111.02 85.7 110.8 86.06 95.17 76.73 95.39 76.37 95.6 76.01"/><polygon points="93.4 77.62 110.98 88.11 110.97 88.6 110.97 89.08 92.97 78.34 93 77.87 93.4 77.62"/><polygon points="110.98 88.11 128.83 78.15 129.25 78.39 129.24 78.88 110.97 89.08 110.97 88.6 110.98 88.11"/><polygon points="131.99 76.62 147.47 85.86 147.26 86.22 147.04 86.58 131.56 77.34 131.78 76.98 131.99 76.62"/><polygon points="129.67 78.16 147.22 88.63 147.22 89.11 147.21 89.6 129.24 78.88 129.25 78.39 129.67 78.16"/><polygon points="147.22 88.63 165.07 78.67 165.49 78.91 165.48 79.4 147.21 89.6 147.22 89.11 147.22 88.63"/><polygon points="165.91 78.68 180.02 87.09 179.8 87.45 179.59 87.81 165.48 79.4 165.49 78.91 165.91 78.68"/><g class="cls-1"><text class="cls-2" transform="translate(180.64 93.37)">F</text></g><polygon points="165.07 78.67 165.37 58.22 165.79 57.99 166.2 58.24 165.91 78.68 165.49 78.91 165.07 78.67"/><polygon points="167.6 77.49 167.86 59.47 168.28 59.47 168.7 59.48 168.44 77.5 168.02 77.5 167.6 77.49"/><polygon points="165.79 57.51 179.43 49.89 179.63 50.26 179.84 50.62 166.2 58.24 165.79 57.99 165.79 57.51"/><g class="cls-1"><text class="cls-2" transform="translate(180.47 51.52)">O</text><text class="cls-2" transform="translate(187.65 51.52)">H</text></g><polygon points="165.37 58.22 147.81 47.75 147.82 47.27 148.24 47.03 165.79 57.51 165.79 57.99 165.37 58.22"/><polygon points="147.4 47.02 147.63 30.99 148.05 31 148.47 31 148.24 47.03 147.82 47.27 147.4 47.02"/><g class="cls-1"><text class="cls-2" transform="translate(145.3 30.08)">F</text></g><polygon points="147.98 50.53 132.24 59.32 132.03 58.95 131.83 58.59 147.57 49.8 147.78 50.17 147.98 50.53"/><polygon points="147.81 47.75 129.96 57.72 129.54 57.47 129.13 57.22 147.4 47.02 147.82 47.27 147.81 47.75"/><polygon points="129.96 57.72 129.67 78.16 129.25 78.39 128.83 78.15 129.13 57.22 129.54 57.47 129.96 57.72"/><polygon points="92.97 78.34 78.1 84.71 77.93 84.33 77.77 83.94 92.56 77.61 93 77.87 92.97 78.34"/><g class="cls-1"><text class="cls-2" transform="translate(70.43 89.85)">N</text></g><g class="cls-1"><text class="cls-2" transform="translate(70.43 98.27)">H</text></g><polygon points="69.38 81.73 59.81 70.8 59.99 70.36 60.5 70.31 70.01 81.18 69.69 81.46 69.38 81.73"/><polygon points="58.98 73.39 40.85 75.04 40.82 74.62 40.78 74.2 58.9 72.56 58.94 72.98 58.98 73.39"/><polygon points="59.81 70.8 39.42 72.64 39.15 72.25 38.87 71.85 59.74 69.96 59.99 70.36 59.81 70.8"/><polygon points="39.42 72.64 32.89 86.76 32.51 86.59 32.13 86.41 38.87 71.85 39.15 72.25 39.42 72.64"/><g class="cls-1"><text class="cls-2" transform="translate(27.03 94.98)">N</text></g><polygon points="26.23 92.04 13.98 93.15 13.95 92.73 13.91 92.31 26.16 91.2 26.19 91.62 26.23 92.04"/><polygon points="26 89.54 13.76 90.65 13.72 90.23 13.68 89.81 25.93 88.7 25.97 89.12 26 89.54"/><g class="cls-1"><text class="cls-2" transform="translate(5.93 96.87)">O</text></g><polygon points="59.74 69.96 67.57 56.83 67.93 57.04 68.29 57.26 60.5 70.31 59.99 70.36 59.74 69.96"/></svg>