<svg id="图层_1" data-name="图层 1" xmlns="http://www.w3.org/2000/svg" viewBox="0 0 200 130"><defs><style>.cls-1,.cls-2{isolation:isolate;}.cls-2{font-size:10.58px;font-family:ArialMT, Arial;}</style></defs><polygon points="96 4.35 80.27 22.11 79.73 22 79.55 21.47 95.28 3.71 95.64 4.03 96 4.35"/><polygon points="56.04 16.68 79.55 21.47 79.73 22 79.36 22.41 56.39 17.73 56.22 17.2 56.04 16.68"/><polygon points="57.37 19.88 77.62 24.01 77.53 24.48 77.43 24.95 57.18 20.82 57.27 20.35 57.37 19.88"/><polygon points="56.39 17.73 40.85 35.27 40.31 35.16 39.77 35.05 56.04 16.68 56.22 17.2 56.39 17.73"/><polygon points="47.39 57.87 39.77 35.05 40.31 35.16 40.85 35.27 48.28 57.51 47.91 57.92 47.39 57.87"/><polygon points="49.66 55.59 43.11 35.98 43.57 35.83 44.02 35.68 50.57 55.28 50.12 55.43 49.66 55.59"/><polygon points="48.28 57.51 71.25 62.19 71.42 62.72 70.99 63.12 48.16 58.46 47.91 57.92 48.28 57.51"/><polygon points="87.88 44.86 71.92 62.88 71.42 62.72 71.25 62.19 86.79 44.64 87.33 44.75 87.88 44.86"/><polygon points="84.43 44.41 70.73 59.88 70.37 59.56 70.01 59.25 83.72 43.77 84.07 44.09 84.43 44.41"/><polygon points="86.79 44.64 79.36 22.41 79.73 22 80.27 22.11 87.88 44.86 87.33 44.75 86.79 44.64"/><polygon points="71.92 62.88 74.58 86.26 74.13 86.56 73.61 86.27 70.99 63.12 71.42 62.72 71.92 62.88"/><polygon points="95.01 98.94 74.11 87.1 74.13 86.56 74.58 86.26 95 97.83 95.01 98.39 95.01 98.94"/><polygon points="94.74 95.48 76.59 85.19 76.82 84.78 77.06 84.36 95.22 94.64 94.98 95.06 94.74 95.48"/><polygon points="95 97.83 115.21 85.94 115.69 86.22 115.69 86.77 95.01 98.94 95.01 98.39 95 97.83"/><polygon points="118.86 63.86 119.03 84.53 118.55 84.53 118.07 84.53 117.9 63.87 118.38 63.86 118.86 63.86"/><polygon points="115.97 62.5 116.17 85.94 115.69 86.22 115.21 85.94 115.01 61.95 115.49 62.22 115.97 62.5"/><polygon points="115.01 61.95 135.69 49.78 136.17 50.05 136.18 50.61 115.97 62.5 115.49 62.22 115.01 61.95"/><polygon points="135.69 49.78 135.54 31.4 136.02 31.4 136.5 31.39 136.65 49.77 136.17 50.05 135.69 49.78"/><g class="cls-1"><text class="cls-2" transform="translate(132.74 30.35)">F</text></g><polygon points="156.57 62.16 136.18 50.61 136.17 50.05 136.65 49.77 157.04 61.33 157.05 61.88 156.57 62.16"/><polygon points="156.78 58.97 138.8 48.79 139.04 48.37 139.27 47.95 157.26 58.14 157.02 58.55 156.78 58.97"/><polygon points="157.04 61.33 172.41 52.28 172.65 52.7 172.9 53.11 157.53 62.15 157.05 61.88 157.04 61.33"/><g class="cls-1"><text class="cls-2" transform="translate(173.61 54)">O</text><text class="cls-2" transform="translate(181.84 54)">H</text></g><polygon points="157.53 62.15 157.72 85.59 157.25 85.87 156.76 85.6 156.57 62.16 157.05 61.88 157.53 62.15"/><polygon points="157.72 85.59 174.17 94.91 173.93 95.33 173.7 95.74 157.25 86.43 157.25 85.87 157.72 85.59"/><g class="cls-1"><text class="cls-2" transform="translate(174.89 101.98)">F</text></g><polygon points="136.29 94.3 154.11 83.82 154.35 84.24 154.6 84.65 136.78 95.13 136.54 94.72 136.29 94.3"/><polygon points="136.56 97.49 156.76 85.6 157.25 85.87 157.25 86.43 136.57 98.6 136.56 98.04 136.56 97.49"/><polygon points="136.57 98.6 115.69 86.77 115.69 86.22 116.17 85.94 136.56 97.49 136.56 98.04 136.57 98.6"/><polygon points="74.11 87.1 52.17 97.08 52.29 96.5 52.41 95.92 73.61 86.27 74.13 86.56 74.11 87.1"/><polygon points="46.7 114.29 50.62 95.09 51.09 95.19 51.56 95.28 47.64 114.48 47.17 114.39 46.7 114.29"/><polygon points="49.52 114.86 53.44 95.67 53.91 95.76 54.38 95.86 50.46 115.06 49.99 114.96 49.52 114.86"/><g class="cls-1"><text class="cls-2" transform="translate(43.38 124.29)">O</text></g><polygon points="52.17 97.08 40.51 84.35 40.87 84.02 41.22 83.7 52.41 95.92 52.29 96.5 52.17 97.08"/><g class="cls-1"><text class="cls-2" transform="translate(32.27 83.08)">N</text></g><polygon points="31.36 79.82 12.3 81.98 12.25 81.5 12.19 81.03 31.25 78.87 31.31 79.34 31.36 79.82"/><polygon points="38.69 73.23 47.39 57.87 47.91 57.92 48.16 58.46 39.53 73.7 39.11 73.46 38.69 73.23"/></svg>