<svg id="图层_1" data-name="图层 1" xmlns="http://www.w3.org/2000/svg" viewBox="0 0 200 130"><defs><style>.cls-1,.cls-2{isolation:isolate;}.cls-2{font-size:11.29px;font-family:ArialMT, Arial;}</style></defs><polygon points="4.89 72.18 25.29 70.31 25.34 70.82 25.39 71.33 4.98 73.2 4.94 72.69 4.89 72.18"/><g class="cls-1"><text class="cls-2" transform="translate(26.37 74.92)">N</text></g><polygon points="33.39 64.39 43.29 47.76 43.54 48.34 43.79 48.92 34.27 64.91 33.83 64.65 33.39 64.39"/><polygon points="37.76 29.69 45.87 48.55 45.39 48.76 44.92 48.96 36.82 30.09 37.29 29.89 37.76 29.69"/><polygon points="34.94 30.9 43.04 49.77 42.57 49.97 42.1 50.17 34 31.31 34.47 31.11 34.94 30.9"/><g class="cls-1"><text class="cls-2" transform="translate(29.04 29.38)">O</text></g><polygon points="43.29 47.76 63.84 52.41 63.73 52.91 63.62 53.41 43.79 48.92 43.54 48.34 43.29 47.76"/><g class="cls-1"><text class="cls-2" transform="translate(64.76 58.57)">S</text></g><polygon points="69.56 59.64 71.35 79.19 70.86 79.5 70.32 79.17 68.54 59.73 69.05 59.69 69.56 59.64"/><polygon points="92.87 93.19 70.83 80.07 70.86 79.5 71.35 79.19 92.88 92 92.88 92.6 92.87 93.19"/><polygon points="92.66 89.49 73.52 78.1 73.78 77.66 74.04 77.22 93.19 88.61 92.92 89.05 92.66 89.49"/><polygon points="92.88 92 114.72 79.78 115.22 80.08 115.22 80.67 92.87 93.19 92.88 92.6 92.88 92"/><polygon points="119.13 56.29 118.83 78.36 118.32 78.35 117.81 78.34 118.1 56.28 118.61 56.28 119.13 56.29"/><polygon points="116.07 54.77 115.74 79.79 115.22 80.08 114.72 79.78 115.05 54.17 115.56 54.47 116.07 54.77"/><polygon points="115.05 54.17 137.4 41.65 137.91 41.96 137.9 42.55 116.07 54.77 115.56 54.47 115.05 54.17"/><polygon points="137.4 41.65 137.66 22.04 138.17 22.04 138.69 22.05 138.43 41.67 137.91 41.96 137.4 41.65"/><g class="cls-1"><text class="cls-2" transform="translate(136.68 20.92)">I</text></g><polygon points="159.41 55.34 137.9 42.55 137.91 41.96 138.43 41.67 159.93 54.46 159.92 55.05 159.41 55.34"/><polygon points="159.71 51.95 140.75 40.66 141.01 40.22 141.27 39.78 160.23 51.07 159.97 51.51 159.71 51.95"/><polygon points="159.93 54.46 176.6 45.13 176.85 45.57 177.1 46.02 160.43 55.36 159.92 55.05 159.93 54.46"/><g class="cls-1"><text class="cls-2" transform="translate(177.88 47.11)">O</text><text class="cls-2" transform="translate(186.66 47.11)">H</text></g><polygon points="160.43 55.36 160.1 80.38 159.59 80.67 159.08 80.36 159.41 55.34 159.92 55.05 160.43 55.36"/><polygon points="160.1 80.38 179.26 91.78 179 92.22 178.74 92.66 159.58 81.26 159.59 80.67 160.1 80.38"/><g class="cls-1"><text class="cls-2" transform="translate(180.03 98.34)">I</text></g><polygon points="137.03 89.18 156.28 78.4 156.53 78.85 156.79 79.3 137.53 90.08 137.28 89.63 137.03 89.18"/><polygon points="137.24 92.59 159.08 80.36 159.59 80.67 159.58 81.26 137.23 93.77 137.24 93.18 137.24 92.59"/><polygon points="137.23 93.77 115.22 80.67 115.22 80.08 115.74 79.79 137.24 92.59 137.24 93.18 137.23 93.77"/><polygon points="70.83 80.07 47.19 90.22 47.33 89.61 47.47 88.99 70.32 79.17 70.86 79.5 70.83 80.07"/><polygon points="40.97 108.44 45.58 88.06 46.08 88.18 46.58 88.29 41.97 108.67 41.47 108.55 40.97 108.44"/><polygon points="43.96 109.12 48.58 88.74 49.08 88.86 49.58 88.97 44.96 109.34 44.46 109.23 43.96 109.12"/><g class="cls-1"><text class="cls-2" transform="translate(37.28 119.16)">O</text></g><polygon points="47.19 90.22 35.05 76.38 35.44 76.05 35.82 75.71 47.47 88.99 47.33 89.61 47.19 90.22"/></svg>