<svg id="图层_1" data-name="图层 1" xmlns="http://www.w3.org/2000/svg" viewBox="0 0 200 130"><defs><style>.cls-1,.cls-2{isolation:isolate;}.cls-2{font-size:11.41px;font-family:ArialMT, Arial;}</style></defs><polygon points="4.33 73.83 24.89 71.45 24.95 71.97 25.01 72.48 4.45 74.86 4.39 74.34 4.33 73.83"/><g class="cls-1"><text class="cls-2" transform="translate(25.98 75.99)">N</text></g><polygon points="32.9 65.36 42.55 48.24 42.81 48.82 43.08 49.4 33.8 65.87 33.35 65.61 32.9 65.36"/><polygon points="36.55 30.18 45.16 48.98 44.69 49.2 44.22 49.41 35.61 30.61 36.08 30.39 36.55 30.18"/><polygon points="33.73 31.47 42.34 50.27 41.87 50.49 41.4 50.71 32.79 31.9 33.26 31.68 33.73 31.47"/><g class="cls-1"><text class="cls-2" transform="translate(27.6 29.9)">O</text></g><polygon points="42.55 48.24 63.45 52.45 63.34 52.96 63.24 53.47 43.08 49.4 42.81 48.82 42.55 48.24"/><g class="cls-1"><text class="cls-2" transform="translate(64.38 58.56)">S</text></g><polygon points="69.37 59.63 71.64 79.33 71.16 79.65 70.6 79.33 68.34 59.75 68.85 59.69 69.37 59.63"/><polygon points="93.72 92.95 71.14 80.23 71.16 79.65 71.64 79.33 93.71 91.76 93.71 92.36 93.72 92.95"/><polygon points="93.42 89.22 73.81 78.17 74.06 77.72 74.32 77.27 93.93 88.32 93.68 88.77 93.42 89.22"/><polygon points="93.71 91.76 115.47 78.89 115.99 79.18 116 79.78 93.72 92.95 93.71 92.36 93.71 91.76"/><polygon points="119.36 55.05 119.6 77.35 119.08 77.35 118.56 77.36 118.33 55.06 118.85 55.06 119.36 55.05"/><polygon points="116.24 53.59 116.51 78.88 115.99 79.18 115.47 78.89 115.2 53 115.72 53.3 116.24 53.59"/><polygon points="115.2 53 137.48 39.83 138 40.12 138.01 40.72 116.24 53.59 115.72 53.3 115.2 53"/><polygon points="137.48 39.83 137.28 20 137.79 19.99 138.31 19.99 138.52 39.81 138 40.12 137.48 39.83"/><g class="cls-1"><text class="cls-2" transform="translate(132.03 18.86)">Br</text></g><polygon points="160.04 53.13 138.01 40.72 138 40.12 138.52 39.81 160.55 52.23 160.56 52.83 160.04 53.13"/><polygon points="160.26 49.69 140.84 38.74 141.09 38.29 141.35 37.84 160.77 48.79 160.52 49.24 160.26 49.69"/><polygon points="160.55 52.23 177.1 42.44 177.36 42.89 177.63 43.33 161.08 53.12 160.56 52.83 160.55 52.23"/><g class="cls-1"><text class="cls-2" transform="translate(178.4 44.27)">O</text><text class="cls-2" transform="translate(187.28 44.27)">H</text></g><polygon points="161.08 53.12 161.34 78.41 160.83 78.71 160.31 78.42 160.04 53.13 160.56 52.83 161.08 53.12"/><polygon points="161.34 78.41 176.89 87.17 176.64 87.62 176.38 88.07 160.83 79.31 160.83 78.71 161.34 78.41"/><g class="cls-1"><text class="cls-2" transform="translate(177.67 96.04)">Br</text></g><polygon points="138.25 87.86 157.44 76.5 157.7 76.95 157.97 77.39 138.77 88.75 138.51 88.3 138.25 87.86"/><polygon points="138.54 91.29 160.31 78.42 160.83 78.71 160.83 79.31 138.55 92.48 138.55 91.89 138.54 91.29"/><polygon points="138.55 92.48 116 79.78 115.99 79.18 116.51 78.88 138.54 91.29 138.55 91.89 138.55 92.48"/><polygon points="71.14 80.23 47.5 91.05 47.63 90.42 47.75 89.8 70.6 79.33 71.16 79.65 71.14 80.23"/><polygon points="41.64 109.63 45.82 88.91 46.33 89.01 46.83 89.11 42.65 109.84 42.15 109.73 41.64 109.63"/><polygon points="44.68 110.25 48.86 89.52 49.37 89.63 49.88 89.73 45.7 110.45 45.19 110.35 44.68 110.25"/><g class="cls-1"><text class="cls-2" transform="translate(38.07 120.42)">O</text></g><polygon points="47.5 91.05 34.88 77.33 35.26 76.98 35.64 76.63 47.75 89.8 47.63 90.42 47.5 91.05"/></svg>