<svg id="图层_1" data-name="图层 1" xmlns="http://www.w3.org/2000/svg" viewBox="0 0 200 130"><defs><style>.cls-1,.cls-2{isolation:isolate;}.cls-2{font-size:7.53px;font-family:ArialMT, Arial;}.cls-3{fill:none;stroke:#000;stroke-miterlimit:3.87;stroke-width:0.91px;}</style></defs><polygon points="29.6 28.98 41.82 23.58 41.96 23.89 42.1 24.2 29.88 29.61 29.74 29.29 29.6 28.98"/><g class="cls-1"><text class="cls-2" transform="translate(42.64 25.43)">N</text></g><polygon points="48.63 20.57 60.85 15.16 60.99 15.48 61.13 15.79 48.91 21.19 48.77 20.88 48.63 20.57"/><polygon points="43.37 18.72 38.14 6.9 38.46 6.76 38.77 6.62 44 18.45 43.68 18.59 43.37 18.72"/><polygon points="47.36 26.05 52.51 37.69 52.27 38.01 51.88 37.97 46.73 26.32 47.04 26.18 47.36 26.05"/><polygon points="41.8 51.76 51.88 37.97 52.27 38.01 52.43 38.37 42.59 51.84 42.2 51.8 41.8 51.76"/><polygon points="44.27 51.85 52.95 39.97 53.23 40.17 53.51 40.37 44.83 52.26 44.55 52.05 44.27 51.85"/><polygon points="42.59 51.84 49.34 67.11 49.1 67.42 48.87 67.74 41.8 51.76 42.2 51.8 42.59 51.84"/><polygon points="65.86 69.57 48.87 67.74 49.1 67.42 49.34 67.11 65.93 68.89 66.09 69.25 65.86 69.57"/><polygon points="65.09 67.43 50.46 65.85 50.5 65.51 50.54 65.17 65.17 66.75 65.13 67.09 65.09 67.43"/><polygon points="65.93 68.89 75.77 55.42 76.16 55.46 76.56 55.5 66.48 69.3 66.09 69.25 65.93 68.89"/><polygon points="69.49 39.52 76.56 55.5 76.16 55.46 75.77 55.42 69.02 40.16 69.26 39.84 69.49 39.52"/><polygon points="68.17 41.61 74.12 55.07 73.81 55.21 73.5 55.34 67.55 41.89 67.86 41.75 68.17 41.61"/><polygon points="69.02 40.16 52.43 38.37 52.27 38.01 52.51 37.69 69.49 39.52 69.26 39.84 69.02 40.16"/><polygon points="66.48 69.3 71.63 80.94 71.32 81.08 71 81.22 65.86 69.57 66.09 69.25 66.48 69.3"/><g class="cls-1"><text class="cls-2" transform="translate(70.27 87.93)">N</text></g><polygon points="71.08 88.85 64.84 99.61 64.42 99.65 64.2 99.35 70.49 88.5 70.79 88.68 71.08 88.85"/><polygon points="47.2 101.05 63.64 101.33 63.64 101.67 63.63 102.01 47.64 101.74 47.42 101.39 47.2 101.05"/><polygon points="48.65 102.85 64.2 99.35 64.42 99.65 64.3 100.03 48.8 103.52 48.72 103.19 48.65 102.85"/><polygon points="47.64 101.74 42.45 113.32 42.14 113.18 41.83 113.04 47.2 101.05 47.42 101.39 47.64 101.74"/><g class="cls-1"><text class="cls-2" transform="translate(37.72 120.03)">N</text></g><polygon points="26.81 115.97 36.79 114.95 36.83 115.29 36.86 115.63 26.88 116.65 26.85 116.31 26.81 115.97"/><polygon points="27.02 118.01 37 116.99 37.03 117.33 37.07 117.67 27.09 118.69 27.06 118.35 27.02 118.01"/><g class="cls-1"><text class="cls-2" transform="translate(20.51 121.77)">O</text></g><polygon points="64.84 99.61 72.67 108.34 72.41 108.57 72.16 108.8 64.3 100.03 64.42 99.65 64.84 99.61"/><g class="cls-1"><text class="cls-2" transform="translate(73.1 115.42)">N</text></g><g class="cls-1"><text class="cls-2" transform="translate(73.1 122.3)">H</text></g><polygon points="79.08 110.56 91.07 105.25 91.44 105.46 91.44 105.84 79.36 111.18 79.22 110.87 79.08 110.56"/><polygon points="106.19 114.45 93.05 104.56 93.26 104.29 93.47 104.02 106.23 113.63 106.21 114.04 106.19 114.45"/><polygon points="106.08 112.14 91.44 105.84 91.44 105.46 91.76 105.23 106.35 111.52 106.22 111.83 106.08 112.14"/><polygon points="106.23 113.63 120.68 105.34 121.03 105.54 121.03 105.93 106.19 114.45 106.21 114.04 106.23 113.63"/><polygon points="123.46 89.65 123.42 104.36 123.08 104.36 122.74 104.36 122.77 89.64 123.12 89.65 123.46 89.65"/><polygon points="121.41 88.66 121.37 105.34 121.03 105.54 120.68 105.34 120.73 88.26 121.07 88.46 121.41 88.66"/><polygon points="120.73 88.26 135.54 79.76 135.88 79.95 135.88 80.35 121.41 88.66 121.07 88.46 120.73 88.26"/><polygon points="150.31 88.73 135.88 80.35 135.88 79.95 136.23 79.76 150.66 88.14 150.66 88.53 150.31 88.73"/><polygon points="150.49 86.46 137.77 79.07 137.94 78.78 138.11 78.48 150.83 85.87 150.66 86.17 150.49 86.46"/><polygon points="151 88.73 150.96 105.42 150.61 105.61 150.27 105.42 150.31 88.73 150.66 88.53 151 88.73"/><polygon points="135.63 111.45 148.4 104.13 148.57 104.43 148.74 104.72 135.97 112.05 135.8 111.75 135.63 111.45"/><polygon points="135.8 113.72 150.27 105.42 150.61 105.61 150.61 106.01 135.8 114.51 135.8 114.12 135.8 113.72"/><polygon points="135.8 114.51 121.03 105.93 121.03 105.54 121.37 105.34 135.8 113.72 135.8 114.12 135.8 114.51"/><polygon points="150.96 105.42 161.94 111.8 161.77 112.1 161.6 112.39 150.61 106.01 150.61 105.61 150.96 105.42"/><g class="cls-1"><text class="cls-2" transform="translate(162.45 117.25)">O</text></g><polygon points="168.83 111.82 180.03 105.39 180.2 105.69 180.37 105.99 169.17 112.42 169 112.12 168.83 111.82"/><polygon points="150.66 88.14 161.69 81.81 161.86 82.1 162.03 82.4 151 88.73 150.66 88.53 150.66 88.14"/><g class="cls-1"><text class="cls-2" transform="translate(162.54 83.08)">O</text><text class="cls-2" transform="translate(168.4 83.08)">H</text></g><polygon points="135.54 79.76 135.58 66.67 135.92 66.67 136.26 66.67 136.23 79.76 135.88 79.95 135.54 79.76"/><g class="cls-1"><text class="cls-2" transform="translate(133 65.92)">O</text></g><polygon points="139.37 60.5 150.57 54.07 150.74 54.37 150.91 54.66 139.71 61.09 139.54 60.8 139.37 60.5"/><polygon points="91.07 105.25 89.38 88.75 89.7 88.47 90.01 88.19 91.76 105.23 91.44 105.46 91.07 105.25"/><polygon points="99.72 81.33 90.05 89.99 89.83 89.73 89.6 89.48 99.26 80.82 99.49 81.07 99.72 81.33"/><polygon points="98.35 79.8 88.69 88.46 88.46 88.2 88.23 87.95 97.89 79.29 98.12 79.55 98.35 79.8"/><g class="cls-1"><text class="cls-2" transform="translate(99.49 80.12)">O</text></g><polygon points="89.38 88.75 76.33 85.94 76.4 85.61 76.47 85.28 90.01 88.19 89.7 88.47 89.38 88.75"/><line class="cls-3" x1="47.87" y1="18.45" x2="50.72" y2="18.45"/><line class="cls-3" x1="49.3" y1="17.03" x2="49.3" y2="19.88"/></svg>