<svg id="图层_1" data-name="图层 1" xmlns="http://www.w3.org/2000/svg" viewBox="0 0 200 130"><defs><style>.cls-1,.cls-2{isolation:isolate;}.cls-2{font-size:9.85px;font-family:ArialMT, Arial;}</style></defs><polygon points="29.22 87.62 51.19 85.21 51.47 85.63 51.29 86.1 29.32 88.51 29.27 88.07 29.22 87.62"/><polygon points="55.09 84.97 64.35 95.16 64.02 95.46 63.69 95.76 54.43 85.57 54.76 85.27 55.09 84.97"/><polygon points="52.02 85.57 62.37 96.96 62.04 97.26 61.71 97.56 51.29 86.1 51.47 85.63 52.02 85.57"/><g class="cls-1"><text class="cls-2" transform="translate(62.93 106.15)">N</text></g><polygon points="70.75 99.75 86.37 92.7 86.85 92.98 86.86 93.47 71.12 100.56 70.94 100.15 70.75 99.75"/><polygon points="89.49 91.06 106.27 103.52 106.24 104.06 106.21 104.59 88.95 91.78 89.22 91.42 89.49 91.06"/><polygon points="87.27 92.67 106.4 100.75 106.23 101.16 106.06 101.57 86.86 93.47 86.85 92.98 87.27 92.67"/><polygon points="106.27 103.52 125.09 92.54 125.53 92.8 125.54 93.31 106.21 104.59 106.24 104.06 106.27 103.52"/><polygon points="128.43 90.85 145.13 100.39 144.91 100.78 144.69 101.17 127.98 91.63 128.21 91.24 128.43 90.85"/><polygon points="125.98 92.54 144.93 103.36 144.93 103.88 144.93 104.39 125.54 93.31 125.53 92.8 125.98 92.54"/><polygon points="144.93 103.36 163.77 92.36 164.22 92.62 164.22 93.14 144.93 104.39 144.93 103.88 144.93 103.36"/><polygon points="164.66 92.36 179.93 101.08 179.71 101.47 179.49 101.86 164.22 93.14 164.22 92.62 164.66 92.36"/><g class="cls-1"><text class="cls-2" transform="translate(180.6 107.69)">F</text></g><polygon points="163.77 92.36 163.67 70.55 164.11 70.29 164.56 70.54 164.66 92.36 164.22 92.62 163.77 92.36"/><polygon points="166.44 91.06 166.35 71.82 166.8 71.82 167.25 71.82 167.34 91.06 166.89 91.06 166.44 91.06"/><polygon points="164.11 69.77 178.46 61.4 178.68 61.79 178.91 62.17 164.56 70.54 164.11 70.29 164.11 69.77"/><g class="cls-1"><text class="cls-2" transform="translate(179.57 63.02)">O</text><text class="cls-2" transform="translate(187.23 63.02)">H</text></g><polygon points="163.67 70.55 144.72 59.73 144.72 59.21 145.17 58.95 164.11 69.77 164.11 70.29 163.67 70.55"/><polygon points="144.27 58.95 144.19 41.84 144.64 41.84 145.09 41.84 145.17 58.95 144.72 59.21 144.27 58.95"/><g class="cls-1"><text class="cls-2" transform="translate(141.61 40.86)">F</text></g><polygon points="144.96 62.69 128.34 72.39 128.12 72 127.89 71.61 144.51 61.92 144.74 62.3 144.96 62.69"/><polygon points="144.72 59.73 125.88 70.72 125.43 70.47 124.98 70.21 144.27 58.95 144.72 59.21 144.72 59.73"/><polygon points="125.88 70.72 125.98 92.54 125.53 92.8 125.09 92.54 124.98 70.21 125.43 70.47 125.88 70.72"/><polygon points="86.37 92.7 84 71.15 84.41 70.78 84.82 70.41 87.27 92.67 86.85 92.98 86.37 92.7"/><polygon points="82.49 70.11 95.01 58.73 95.31 59.06 95.61 59.39 83.09 70.77 82.79 70.44 82.49 70.11"/><polygon points="84.29 72.09 96.82 60.71 97.12 61.04 97.42 61.37 84.89 72.75 84.59 72.42 84.29 72.09"/><g class="cls-1"><text class="cls-2" transform="translate(97.11 59.75)">O</text></g><polygon points="84 71.15 66.9 67.6 66.99 67.16 67.08 66.72 84.82 70.41 84.41 70.78 84 71.15"/><g class="cls-1"><text class="cls-2" transform="translate(58.99 70.23)">N</text></g><polygon points="59.9 61.45 53.06 46.29 53.37 45.88 53.67 45.46 60.71 61.09 60.31 61.27 59.9 61.45"/><polygon points="53.06 46.29 31.54 44.13 31.14 43.64 31.63 43.24 53.67 45.46 53.37 45.88 53.06 46.29"/><polygon points="30.66 44.04 12.78 42.25 12.82 41.8 12.87 41.36 30.74 43.15 31.14 43.64 30.66 44.04"/><g class="cls-1"><text class="cls-2" transform="translate(5.91 45.4)">F</text></g><polygon points="30.74 43.15 32.43 26.34 32.88 26.39 33.32 26.43 31.63 43.24 31.14 43.64 30.74 43.15"/><g class="cls-1"><text class="cls-2" transform="translate(30.37 25.41)">F</text></g><polygon points="31.54 44.13 29.86 60.94 29.41 60.9 28.97 60.85 30.66 44.04 31.14 43.64 31.54 44.13"/><g class="cls-1"><text class="cls-2" transform="translate(25.91 69.86)">F</text></g><polygon points="60.09 71.42 52.02 85.57 51.47 85.63 51.19 85.21 59.32 70.98 59.71 71.2 60.09 71.42"/></svg>