<svg id="图层_1" data-name="图层 1" xmlns="http://www.w3.org/2000/svg" viewBox="0 0 200 130"><defs><style>.cls-1,.cls-2{isolation:isolate;}.cls-2{font-size:11.21px;font-family:ArialMT, Arial;}</style></defs><polygon points="36.48 33.11 44.36 50.64 43.9 50.85 43.44 51.06 35.55 33.53 36.02 33.32 36.48 33.11"/><g class="cls-1"><text class="cls-2" transform="translate(42.4 61.04)">N</text></g><polygon points="43.65 62.41 34.44 78.49 33.81 78.56 33.19 78.63 42.76 61.9 43.2 62.15 43.65 62.41"/><polygon points="35.14 80.46 14.14 82.75 14.09 82.24 14.03 81.74 35.03 79.45 35.08 79.96 35.14 80.46"/><polygon points="34.81 77.43 13.81 79.72 13.76 79.21 13.7 78.71 34.7 76.42 34.75 76.92 34.81 77.43"/><g class="cls-1"><text class="cls-2" transform="translate(4.19 85.85)">O</text></g><polygon points="34.44 78.49 46.21 91.46 45.83 91.81 45.45 92.15 33.19 78.63 33.81 78.56 34.44 78.49"/><g class="cls-1"><text class="cls-2" transform="translate(46.85 101.93)">N</text></g><g class="cls-1"><text class="cls-2" transform="translate(46.85 112.16)">H</text></g><polygon points="55.75 94.65 73.53 86.65 74.08 86.96 74.05 87.53 56.16 95.57 55.96 95.11 55.75 94.65"/><polygon points="77.19 84.64 96.38 95.62 96.12 96.07 95.87 96.51 76.69 85.53 76.94 85.09 77.19 84.64"/><polygon points="74.55 86.65 96.13 99 96.14 99.59 96.14 100.17 74.05 87.53 74.08 86.96 74.55 86.65"/><polygon points="96.13 99 117.59 86.5 118.1 86.8 118.1 87.38 96.14 100.17 96.14 99.59 96.13 99"/><polygon points="121.4 84.58 140.4 95.46 140.15 95.9 139.9 96.34 120.89 85.47 121.14 85.02 121.4 84.58"/><polygon points="118.61 86.5 140.16 98.84 140.16 99.42 140.16 100.01 118.1 87.38 118.1 86.8 118.61 86.5"/><polygon points="140.16 98.84 161.62 86.34 162.13 86.63 162.13 87.22 140.16 100.01 140.16 99.42 140.16 98.84"/><polygon points="162.63 86.34 178.13 95.21 177.88 95.65 177.63 96.09 162.13 87.22 162.13 86.63 162.63 86.34"/><g class="cls-1"><text class="cls-2" transform="translate(178.9 103.8)">Cl</text></g><polygon points="161.62 86.34 161.52 61.51 162.03 61.21 162.54 61.51 162.63 86.34 162.13 86.63 161.62 86.34"/><polygon points="164.66 84.86 164.58 62.97 165.09 62.96 165.6 62.96 165.68 84.86 165.17 84.86 164.66 84.86"/><polygon points="162.03 60.63 178.36 51.11 178.62 51.55 178.88 51.99 162.54 61.51 162.03 61.21 162.03 60.63"/><g class="cls-1"><text class="cls-2" transform="translate(179.64 52.96)">O</text><text class="cls-2" transform="translate(188.36 52.96)">H</text></g><polygon points="161.52 61.51 139.97 49.17 139.97 48.59 140.48 48.29 162.03 60.63 162.03 61.21 161.52 61.51"/><polygon points="139.46 48.3 139.39 28.82 139.9 28.82 140.41 28.82 140.48 48.29 139.97 48.59 139.46 48.3"/><g class="cls-1"><text class="cls-2" transform="translate(134.59 27.71)">Cl</text></g><polygon points="140.24 52.55 121.32 63.57 121.06 63.13 120.81 62.69 139.73 51.67 139.98 52.11 140.24 52.55"/><polygon points="139.97 49.17 118.52 61.67 118 61.38 117.5 61.09 139.46 48.3 139.97 48.59 139.97 49.17"/><polygon points="118.52 61.67 118.61 86.5 118.1 86.8 117.59 86.5 117.5 61.09 118 61.38 118.52 61.67"/><polygon points="73.53 86.65 70.86 62.12 71.32 61.69 71.79 61.27 74.55 86.65 74.08 86.96 73.53 86.65"/><polygon points="69.14 60.93 83.41 47.98 83.75 48.36 84.09 48.74 69.82 61.68 69.48 61.31 69.14 60.93"/><polygon points="71.19 63.19 85.46 50.24 85.8 50.62 86.14 51 71.87 63.94 71.53 63.57 71.19 63.19"/><g class="cls-1"><text class="cls-2" transform="translate(85.79 49.15)">O</text></g><polygon points="70.86 62.12 51.4 58.05 51.51 57.56 51.61 57.06 71.79 61.27 71.32 61.69 70.86 62.12"/></svg>