<svg id="图层_1" data-name="图层 1" xmlns="http://www.w3.org/2000/svg" viewBox="0 0 200 130"><defs><style>.cls-1,.cls-2{isolation:isolate;}.cls-2{font-size:10.26px;font-family:ArialMT, Arial;}</style></defs><polygon points="50.03 21.14 70.43 32.89 69.97 33.16 69.5 33.43 49.57 21.95 49.8 21.54 50.03 21.14"/><polygon points="70.43 32.89 70.45 51.26 69.99 51.26 69.52 51.26 69.5 33.43 69.97 33.16 70.43 32.89"/><g class="cls-1"><text class="cls-2" transform="translate(66.29 60.59)">N</text></g><polygon points="65.59 59.52 49.85 68.63 49.85 68.09 49.84 67.55 65.12 58.71 65.36 59.12 65.59 59.52"/><polygon points="49.85 68.63 29.85 57.11 29.68 56.47 30.31 56.3 49.84 67.55 49.85 68.09 49.85 68.63"/><polygon points="29.04 56.64 13.34 47.6 13.58 47.2 13.81 46.79 29.51 55.84 29.68 56.47 29.04 56.64"/><g class="cls-1"><text class="cls-2" transform="translate(6.38 49.01)">F</text></g><polygon points="29.85 57.11 21.45 71.7 21.04 71.46 20.64 71.23 29.04 56.64 29.68 56.47 29.85 57.11"/><g class="cls-1"><text class="cls-2" transform="translate(14.93 80.8)">F</text></g><polygon points="29.51 55.84 37.91 41.25 38.31 41.48 38.72 41.72 30.31 56.3 29.68 56.47 29.51 55.84"/><g class="cls-1"><text class="cls-2" transform="translate(38.16 40.46)">F</text></g><polygon points="74.86 58.7 90.62 67.78 90.16 68.05 89.69 68.32 74.39 59.51 74.63 59.1 74.86 58.7"/><polygon points="106.31 60.86 90.39 70.07 90.16 69.67 89.93 69.26 105.84 60.05 106.08 60.45 106.31 60.86"/><polygon points="104.91 58.44 88.99 67.65 88.76 67.25 88.53 66.84 104.45 57.63 104.68 58.04 104.91 58.44"/><g class="cls-1"><text class="cls-2" transform="translate(106.31 60.55)">O</text></g><polygon points="90.62 67.78 90.64 91.06 90.18 91.33 89.71 91.6 89.69 68.32 90.16 68.05 90.62 67.78"/><polygon points="110.35 103.48 89.71 91.6 90.18 91.33 90.64 91.06 110.35 102.41 110.35 102.94 110.35 103.48"/><polygon points="110.11 100.12 92.74 90.11 92.97 89.71 93.2 89.31 110.58 99.32 110.34 99.72 110.11 100.12"/><polygon points="110.35 102.41 130.03 91.02 130.49 91.29 130.49 91.83 110.35 103.48 110.35 102.94 110.35 102.41"/><polygon points="150.66 103.44 130.49 91.83 130.49 91.29 130.96 91.02 150.66 102.37 150.66 102.91 150.66 103.44"/><polygon points="150.42 100.08 133.05 90.08 133.28 89.67 133.51 89.27 150.89 99.28 150.66 99.68 150.42 100.08"/><polygon points="150.66 102.37 170.34 90.98 170.8 91.25 170.8 91.79 150.66 103.44 150.66 102.91 150.66 102.37"/><polygon points="171.27 90.98 187.14 100.12 186.91 100.53 186.67 100.93 170.8 91.79 170.8 91.25 171.27 90.98"/><g class="cls-1"><text class="cls-2" transform="translate(187.84 107.02)">F</text></g><polygon points="171.25 68.24 171.27 90.98 170.8 91.25 170.34 90.98 170.32 68.25 170.78 67.98 171.25 68.24"/><polygon points="168.46 69.59 168.47 89.64 168.01 89.64 167.54 89.64 167.52 69.59 167.99 69.59 168.46 69.59"/><polygon points="170.78 67.44 186.63 58.27 186.86 58.67 187.09 59.08 171.25 68.24 170.78 67.98 170.78 67.44"/><g class="cls-1"><text class="cls-2" transform="translate(187.79 60.48)">F</text></g><polygon points="170.32 68.25 150.62 56.9 150.62 56.36 151.08 56.09 170.78 67.44 170.78 67.98 170.32 68.25"/><polygon points="150.15 56.09 150.13 38.26 150.6 38.26 151.06 38.26 151.08 56.09 150.62 56.36 150.15 56.09"/><g class="cls-1"><text class="cls-2" transform="translate(147.46 37.24)">F</text></g><polygon points="130 67.75 150.15 56.09 150.62 56.36 150.62 56.9 130.94 68.28 130.47 68.01 130 67.75"/><polygon points="133.03 69.22 150.38 59.18 150.62 59.58 150.85 59.99 133.5 70.03 133.26 69.62 133.03 69.22"/><polygon points="130.94 68.28 130.96 91.02 130.49 91.29 130.03 91.02 130 67.75 130.47 68.01 130.94 68.28"/></svg>