<svg id="图层_1" data-name="图层 1" xmlns="http://www.w3.org/2000/svg" viewBox="0 0 200 130"><defs><style>.cls-1{isolation:isolate;font-size:7.49px;font-family:ArialMT, Arial;}</style></defs><polygon points="115.83 46.47 111 58.46 110.68 58.32 110.37 58.2 115.19 46.22 115.51 46.34 115.83 46.47"/><text class="cls-1" transform="translate(106.46 65.15)">N</text><polygon points="111.82 65.7 118.38 76.18 118.18 76.51 117.77 76.48 111.24 66.06 111.53 65.89 111.82 65.7"/><text class="cls-1" transform="translate(104.57 92.57)">N</text><polygon points="103.76 88.49 91.51 83.56 91.5 83.2 91.87 82.97 104.01 87.87 103.89 88.17 103.76 88.49"/><polygon points="91.51 83.56 77.17 90.32 77.03 90.01 76.88 89.7 91.18 82.97 91.5 83.2 91.51 83.56"/><polygon points="89.87 82.35 77.14 92.62 77.1 92.21 77.07 91.81 89.44 81.82 89.66 82.08 89.87 82.35"/><polygon points="77.14 92.62 62.1 84.64 62.09 84.24 62.42 84.04 77.07 91.81 77.1 92.21 77.14 92.62"/><polygon points="59.67 83.16 59.14 68.53 59.48 68.51 59.82 68.5 60.35 83.13 60.01 83.14 59.67 83.16"/><polygon points="61.74 84.07 61.14 67.47 61.48 67.26 61.81 67.06 62.42 84.04 62.09 84.24 61.74 84.07"/><polygon points="61.14 67.47 46.48 59.69 46.46 59.3 46.8 59.09 61.81 67.06 61.48 67.26 61.14 67.47"/><polygon points="46.48 59.69 32.4 68.5 32.06 68.32 32.04 67.93 46.12 59.12 46.46 59.3 46.48 59.69"/><polygon points="44.57 58.48 32.16 66.26 31.97 65.97 31.8 65.68 44.2 57.91 44.38 58.19 44.57 58.48"/><polygon points="32.4 68.5 33 85.1 32.67 85.31 32.32 85.13 31.73 68.53 32.06 68.32 32.4 68.5"/><polygon points="34.83 83.76 47.76 90.62 47.6 90.92 47.44 91.22 34.51 84.36 34.67 84.06 34.83 83.76"/><polygon points="33 85.1 47.67 92.88 47.69 93.27 47.69 93.67 32.69 85.7 32.67 85.31 33 85.1"/><polygon points="47.67 92.88 61.74 84.07 62.09 84.24 62.1 84.64 47.69 93.67 47.69 93.27 47.67 92.88"/><polygon points="32.69 85.7 22.04 92.36 21.86 92.08 21.68 91.79 32.32 85.13 32.67 85.31 32.69 85.7"/><text class="cls-1" transform="translate(15.35 97.37)">O</text><polygon points="14.51 92.72 3.09 86.67 3.25 86.37 3.41 86.06 14.83 92.12 14.67 92.42 14.51 92.72"/><polygon points="31.73 68.53 20.48 62.56 20.64 62.26 20.8 61.96 32.04 67.93 32.06 68.32 31.73 68.53"/><text class="cls-1" transform="translate(8.71 63.39)">H</text><text class="cls-1" transform="translate(14.13 63.39)">O</text><polygon points="46.12 59.12 45.65 46.11 45.98 46.09 46.33 46.08 46.8 59.09 46.46 59.3 46.12 59.12"/><text class="cls-1" transform="translate(42.94 45.35)">O</text><polygon points="42.1 40.71 30.68 34.65 30.84 34.35 30.99 34.05 42.41 40.11 42.26 40.41 42.1 40.71"/><polygon points="91.18 82.97 92.35 65.97 92.68 66.23 93 66.5 91.87 82.97 91.5 83.2 91.18 82.97"/><polygon points="92.37 67.75 82.37 59.37 82.59 59.12 82.81 58.85 92.81 67.23 92.59 67.49 92.37 67.75"/><polygon points="93.68 66.19 83.68 57.81 83.89 57.55 84.11 57.29 94.11 65.67 93.9 65.93 93.68 66.19"/><text class="cls-1" transform="translate(76.73 58.36)">O</text><polygon points="92.35 65.97 105.69 62.63 105.77 62.95 105.86 63.29 93 66.5 92.68 66.23 92.35 65.97"/><polygon points="108.61 84.23 115.41 76.12 115.67 76.34 115.93 76.56 109.13 84.67 108.88 84.46 108.61 84.23"/><polygon points="110.18 85.54 117.77 76.48 118.18 76.51 118.33 76.86 110.7 85.98 110.44 85.76 110.18 85.54"/><polygon points="118.38 76.18 134.96 77.33 135.14 77.68 135.31 78.03 118.33 76.86 118.18 76.51 118.38 76.18"/><polygon points="144.46 63.23 161.44 64.4 161.59 64.75 161.4 65.08 144.8 63.94 144.63 63.59 144.46 63.23"/><polygon points="144.8 63.94 135.31 78.03 135.14 77.68 134.96 77.33 144.46 63.23 144.63 63.59 144.8 63.94"/><polygon points="143.22 62.63 134.39 75.76 134.11 75.56 133.83 75.38 142.66 62.26 142.94 62.44 143.22 62.63"/><polygon points="162 64.78 168.53 75.19 168.24 75.38 167.95 75.55 161.4 65.08 161.59 64.75 162 64.78"/><text class="cls-1" transform="translate(167.9 82.19)">N</text><polygon points="186.77 74.76 187.67 61.83 188 61.85 188.35 61.88 187.41 75.3 187.09 75.03 186.77 74.76"/><text class="cls-1" transform="translate(185.56 61.11)">N</text><text class="cls-1" transform="translate(190.97 61.11)">H</text><polygon points="184.75 57.03 172.6 52.13 172.5 51.72 172.39 51.32 185.01 56.39 184.87 56.71 184.75 57.03"/><polygon points="161.44 64.4 172.39 51.32 172.5 51.72 172.6 52.13 162 64.78 161.59 64.75 161.44 64.4"/><polygon points="163.84 64.7 172.85 53.94 173.11 54.16 173.37 54.38 164.37 65.15 164.1 64.93 163.84 64.7"/><polygon points="187.41 75.3 174.08 78.64 173.99 78.31 173.91 77.98 186.77 74.76 187.09 75.03 187.41 75.3"/><polygon points="185.24 73.74 173.58 76.67 173.5 76.33 173.42 76 185.08 73.08 185.16 73.41 185.24 73.74"/></svg>