<svg id="图层_1" data-name="图层 1" xmlns="http://www.w3.org/2000/svg" viewBox="0 0 200 130"><defs><style>.cls-1,.cls-2{isolation:isolate;}.cls-2{font-size:11.03px;font-family:ArialMT, Arial;}</style></defs><polygon points="8.28 78.12 28.17 75.97 28.22 76.47 28.27 76.97 8.39 79.11 8.34 78.62 8.28 78.12"/><g class="cls-1"><text class="cls-2" transform="translate(29.22 80.4)">N</text></g><polygon points="38.56 81.1 50.12 93.87 49.99 94.48 49.86 95.08 37.81 81.77 38.19 81.44 38.56 81.1"/><polygon points="52.17 93.82 47.98 113.8 47.49 113.7 47 113.6 51.19 93.61 51.68 93.72 52.17 93.82"/><polygon points="49.23 93.2 45.04 113.19 44.55 113.08 44.06 112.98 48.26 93 48.74 93.1 49.23 93.2"/><g class="cls-1"><text class="cls-2" transform="translate(40.57 123.42)">O</text></g><polygon points="50.12 93.87 72.27 83.93 72.81 84.24 72.82 84.78 49.86 95.08 49.99 94.48 50.12 93.87"/><polygon points="75.77 82.1 94.54 96.09 94.5 96.69 94.47 97.28 75.17 82.91 75.47 82.5 75.77 82.1"/><polygon points="73.28 83.89 94.69 92.98 94.5 93.44 94.3 93.91 72.82 84.78 72.81 84.24 73.28 83.89"/><polygon points="94.54 96.09 115.63 83.83 116.13 84.12 116.13 84.7 94.47 97.28 94.5 96.69 94.54 96.09"/><polygon points="119.38 81.95 138.06 92.67 137.82 93.1 137.57 93.53 118.88 82.81 119.13 82.38 119.38 81.95"/><polygon points="116.63 83.83 137.82 95.99 137.83 96.57 137.83 97.14 116.13 84.7 116.13 84.12 116.63 83.83"/><polygon points="137.82 95.99 158.95 83.71 159.45 84 159.45 84.58 137.83 97.14 137.83 96.57 137.82 95.99"/><polygon points="158.95 83.71 158.88 59.28 159.38 58.99 159.88 59.28 159.95 83.71 159.45 84 158.95 83.71"/><polygon points="161.95 82.26 161.89 60.72 162.39 60.72 162.89 60.71 162.95 82.26 162.45 82.26 161.95 82.26"/><polygon points="158.88 59.28 137.69 47.12 137.69 46.54 138.19 46.25 159.38 58.41 159.38 58.99 158.88 59.28"/><polygon points="137.95 50.44 119.32 61.27 119.07 60.83 118.82 60.4 137.45 49.58 137.7 50.01 137.95 50.44"/><polygon points="137.69 47.12 116.56 59.4 116.06 59.11 115.56 58.82 137.19 46.26 137.69 46.54 137.69 47.12"/><polygon points="116.56 59.4 116.63 83.83 116.13 84.12 115.63 83.83 115.56 58.82 116.06 59.11 116.56 59.4"/><polygon points="137.19 46.26 137.13 27.1 137.63 27.1 138.14 27.09 138.19 46.25 137.69 46.54 137.19 46.26"/><g class="cls-1"><text class="cls-2" transform="translate(134.25 26)">F</text></g><polygon points="159.38 58.41 175.47 49.07 175.72 49.5 175.97 49.93 159.88 59.28 159.38 58.99 159.38 58.41"/><g class="cls-1"><text class="cls-2" transform="translate(176.72 50.89)">O</text><text class="cls-2" transform="translate(185.3 50.89)">H</text></g><polygon points="159.95 83.71 177.03 93.51 176.78 93.94 176.53 94.38 159.45 84.58 159.45 84 159.95 83.71"/><g class="cls-1"><text class="cls-2" transform="translate(177.78 100.91)">F</text></g><polygon points="72.27 83.93 70.23 64.99 70.73 64.94 71.22 64.88 73.28 83.89 72.81 84.24 72.27 83.93"/><g class="cls-1"><text class="cls-2" transform="translate(66.15 63.84)">N</text></g><polygon points="64.43 61.76 47.06 58.11 47.17 57.63 47.27 57.13 64.63 60.78 64.53 61.27 64.43 61.76"/><polygon points="65.04 58.82 45.9 54.8 45.65 54.24 46 53.8 65.25 57.84 65.14 58.33 65.04 58.82"/><polygon points="45.09 54.21 35.16 32.08 35.41 31.42 36.07 31.67 46 53.8 45.65 54.24 45.09 54.21"/><polygon points="34.75 31.17 27.22 14.37 27.67 14.16 28.13 13.96 35.66 30.76 35.41 31.42 34.75 31.17"/><g class="cls-1"><text class="cls-2" transform="translate(21.81 13.06)">F</text></g><polygon points="35.16 32.08 17.16 40.15 16.96 39.7 16.76 39.24 34.75 31.17 35.41 31.42 35.16 32.08"/><g class="cls-1"><text class="cls-2" transform="translate(9.22 46.12)">F</text></g><polygon points="35.66 30.76 53.66 22.69 53.87 23.14 54.07 23.6 36.07 31.67 35.41 31.42 35.66 30.76"/><g class="cls-1"><text class="cls-2" transform="translate(54.87 25.65)">F</text></g><polygon points="45.9 54.8 36.83 70.62 36.39 70.37 35.96 70.12 45.09 54.21 45.65 54.24 45.9 54.8"/></svg>