<svg id="图层_1" data-name="图层 1" xmlns="http://www.w3.org/2000/svg" viewBox="0 0 200 130"><defs><style>.cls-1,.cls-2{isolation:isolate;}.cls-2{font-size:11.61px;font-family:ArialMT, Arial;}</style></defs><polygon points="38.75 32.12 46.73 50.39 46.25 50.6 45.77 50.81 37.78 32.54 38.27 32.33 38.75 32.12"/><g class="cls-1"><text class="cls-2" transform="translate(44.61 61.16)">N</text></g><polygon points="54.16 57.09 75 61.68 74.52 62.11 74.03 62.54 53.94 58.12 54.05 57.61 54.16 57.09"/><polygon points="72.26 61.3 87.24 48 87.59 48.4 87.94 48.79 72.96 62.08 72.61 61.69 72.26 61.3"/><polygon points="74.36 63.66 89.34 50.36 89.69 50.76 90.04 51.15 75.06 64.45 74.71 64.05 74.36 63.66"/><g class="cls-1"><text class="cls-2" transform="translate(89.69 49.33)">O</text></g><polygon points="75 61.68 77.58 88 77.08 88.31 76.52 87.98 74.03 62.54 74.52 62.11 75 61.68"/><polygon points="80.34 85.95 100.08 97.54 99.82 97.99 99.55 98.44 79.81 86.86 80.07 86.4 80.34 85.95"/><polygon points="77.58 88 99.79 101.03 99.79 101.64 99.78 102.25 77.05 88.9 77.08 88.31 77.58 88"/><polygon points="99.79 101.03 122.16 88.33 122.68 88.64 122.68 89.25 99.78 102.25 99.79 101.64 99.79 101.03"/><polygon points="126.12 86.38 145.68 97.86 145.42 98.31 145.15 98.77 125.59 87.29 125.86 86.83 126.12 86.38"/><polygon points="123.21 88.34 145.39 101.35 145.39 101.96 145.38 102.57 122.68 89.25 122.68 88.64 123.21 88.34"/><polygon points="145.39 101.35 167.76 88.65 168.28 88.96 168.28 89.57 145.38 102.57 145.39 101.96 145.39 101.35"/><polygon points="168.81 88.66 186.66 99.13 186.39 99.59 186.13 100.04 168.28 89.57 168.28 88.96 168.81 88.66"/><g class="cls-1"><text class="cls-2" transform="translate(187.44 106.99)">F</text></g><polygon points="167.76 88.65 167.94 62.93 168.47 62.63 169 62.94 168.81 88.66 168.28 88.96 167.76 88.65"/><polygon points="170.93 87.16 171.09 64.48 171.62 64.48 172.14 64.48 171.98 87.16 171.46 87.16 170.93 87.16"/><polygon points="168.47 62.03 186.5 51.79 186.76 52.24 187.03 52.7 169 62.94 168.47 62.63 168.47 62.03"/><g class="cls-1"><text class="cls-2" transform="translate(187.82 54.33)">F</text></g><polygon points="167.94 62.93 145.76 49.92 145.76 49.31 146.29 49.01 168.47 62.03 168.47 62.63 167.94 62.93"/><polygon points="145.24 49 145.38 28.83 145.91 28.84 146.44 28.84 146.29 49.01 145.76 49.31 145.24 49"/><g class="cls-1"><text class="cls-2" transform="translate(142.41 27.68)">F</text></g><polygon points="146 53.41 126.28 64.61 126.02 64.16 125.76 63.7 145.48 52.5 145.74 52.96 146 53.41"/><polygon points="145.76 49.92 123.39 62.62 122.87 62.31 122.35 62 145.24 49 145.76 49.31 145.76 49.92"/><polygon points="123.39 62.62 123.21 88.34 122.68 88.64 122.16 88.33 122.35 62 122.87 62.31 123.39 62.62"/><polygon points="77.05 88.9 58.09 97.18 57.88 96.7 57.67 96.22 76.52 87.98 77.08 88.31 77.05 88.9"/><g class="cls-1"><text class="cls-2" transform="translate(49.08 103.55)">S</text></g><polygon points="47.64 93.65 34.83 79.22 35.48 79.16 36.13 79.1 48.42 92.95 48.03 93.3 47.64 93.65"/><polygon points="36.83 81.14 14.41 83.34 14.36 82.82 14.3 82.29 36.72 80.1 36.77 80.62 36.83 81.14"/><polygon points="36.52 78 14.1 80.2 14.05 79.67 14 79.15 36.42 76.95 36.47 77.48 36.52 78"/><g class="cls-1"><text class="cls-2" transform="translate(5.41 86.43)">S</text></g><polygon points="34.83 79.22 44.91 62.04 45.37 62.31 45.82 62.58 36.13 79.1 35.48 79.16 34.83 79.22"/></svg>