<svg id="图层_1" data-name="图层 1" xmlns="http://www.w3.org/2000/svg" viewBox="0 0 200 130"><defs><style>.cls-1,.cls-2{isolation:isolate;}.cls-2{font-size:11.45px;font-family:ArialMT, Arial;}</style></defs><polygon points="183.82 88.01 161.33 75.61 161.32 75.01 161.84 74.7 184.32 87.1 184.07 87.55 183.82 88.01"/><polygon points="161.33 75.61 139.09 89.03 139.08 88.43 139.07 87.83 160.8 74.72 161.32 75.01 161.33 75.61"/><polygon points="158.44 73.71 139.28 85.28 139.01 84.83 138.75 84.39 157.9 72.82 158.17 73.27 158.44 73.71"/><polygon points="139.09 89.03 116.35 76.48 116.34 75.88 116.85 75.57 139.07 87.83 139.08 88.43 139.09 89.03"/><polygon points="115.81 75.59 115.31 49.62 115.83 49.91 116.36 50.2 116.85 75.57 116.34 75.88 115.81 75.59"/><polygon points="118.9 74.03 118.46 51.66 118.98 51.65 119.5 51.64 119.94 74.01 119.42 74.02 118.9 74.03"/><polygon points="115.31 49.62 137.54 36.2 138.07 36.49 138.08 37.09 116.36 50.2 115.83 49.91 115.31 49.62"/><polygon points="138.58 36.18 160.8 48.44 160.81 49.03 160.3 49.34 138.08 37.09 138.07 36.49 138.58 36.18"/><polygon points="138.39 39.63 157.99 50.44 157.73 50.9 157.48 51.35 137.89 40.54 138.14 40.09 138.39 39.63"/><polygon points="160.8 48.44 177.29 38.48 177.56 38.93 177.83 39.37 161.34 49.33 160.81 49.03 160.8 48.44"/><g class="cls-1"><text class="cls-2" transform="translate(178.6 40.25)">O</text><text class="cls-2" transform="translate(187.51 40.25)">H</text></g><polygon points="161.34 49.33 161.84 74.7 161.32 75.01 160.8 74.72 160.3 49.34 160.81 49.03 161.34 49.33"/><polygon points="137.54 36.2 137.04 10.53 137.56 10.52 138.08 10.51 138.58 36.18 138.07 36.49 137.54 36.2"/><polygon points="116.35 76.48 94.07 89.93 94.1 89.31 94.12 88.69 115.81 75.59 116.34 75.88 116.35 76.48"/><polygon points="94.07 89.93 73.78 75.33 74.08 74.91 74.39 74.49 94.12 88.69 94.1 89.31 94.07 89.93"/><polygon points="93.84 86.42 71.37 77.33 71.36 76.76 71.83 76.39 94.23 85.46 94.03 85.94 93.84 86.42"/><polygon points="71.37 77.33 47.71 88.42 47.84 87.79 47.96 87.16 70.79 76.45 71.36 76.76 71.37 77.33"/><polygon points="50.09 87.07 46.08 107.91 45.57 107.81 45.06 107.72 49.07 86.87 49.58 86.97 50.09 87.07"/><polygon points="47.03 86.48 43.02 107.32 42.51 107.22 42 107.13 46.01 86.28 46.52 86.38 47.03 86.48"/><g class="cls-1"><text class="cls-2" transform="translate(38.48 117.94)">O</text></g><polygon points="47.71 88.42 34.88 74.71 35.26 74.35 35.63 74 47.96 87.16 47.84 87.79 47.71 88.42"/><g class="cls-1"><text class="cls-2" transform="translate(25.95 73.46)">N</text></g><polygon points="32.81 62.8 42.35 45.5 42.63 46.08 42.9 46.66 33.72 63.3 33.27 63.05 32.81 62.8"/><polygon points="41.23 47.99 32.43 29.22 32.9 29 33.37 28.78 42.17 47.55 41.7 47.77 41.23 47.99"/><polygon points="44.05 46.66 35.25 27.9 35.72 27.68 36.19 27.46 44.99 46.22 44.52 46.44 44.05 46.66"/><g class="cls-1"><text class="cls-2" transform="translate(27.15 27.2)">O</text></g><polygon points="42.35 45.5 63.38 49.54 63.28 50.05 63.18 50.56 42.9 46.66 42.63 46.08 42.35 45.5"/><g class="cls-1"><text class="cls-2" transform="translate(64.32 55.62)">S</text></g><polygon points="69.37 56.7 71.83 76.39 71.36 76.76 70.79 76.45 68.34 56.83 68.86 56.76 69.37 56.7"/><polygon points="24.97 69.99 4.37 72.56 4.3 72.04 4.24 71.53 24.84 68.96 24.91 69.47 24.97 69.99"/></svg>