<svg id="图层_1" data-name="图层 1" xmlns="http://www.w3.org/2000/svg" viewBox="0 0 200 130"><defs><style>.cls-1{isolation:isolate;font-size:8.12px;font-family:ArialMT, Arial;}.cls-2{fill:none;stroke:#000;stroke-miterlimit:3.87;stroke-width:0.91px;}</style></defs><polygon points="179.43 26.61 166.01 21.21 166.15 20.87 166.29 20.53 179.71 25.93 179.56 26.27 179.43 26.61"/><text class="cls-1" transform="translate(159.55 22.68)">N</text><polygon points="158.68 18.26 145.27 12.85 145.4 12.51 145.54 12.16 158.96 17.57 158.81 17.91 158.68 18.26"/><polygon points="163.79 15.16 169.02 2.18 169.37 2.31 169.71 2.46 164.48 15.43 164.13 15.3 163.79 15.16"/><polygon points="161.17 23.62 156.03 36.41 155.61 36.48 155.34 36.14 160.5 23.35 160.84 23.49 161.17 23.62"/><polygon points="156.03 36.41 167.38 50.91 166.96 50.97 166.53 51.03 155.44 36.87 155.61 36.48 156.03 36.41"/><polygon points="154.94 38.62 164.72 51.1 164.43 51.32 164.14 51.55 154.37 39.06 154.65 38.84 154.94 38.62"/><polygon points="167.38 50.91 160.34 68.39 160.08 68.05 159.82 67.72 166.53 51.03 166.96 50.97 167.38 50.91"/><polygon points="160.34 68.39 142.1 70.97 141.85 70.63 142 70.24 159.82 67.72 160.08 68.05 160.34 68.39"/><polygon points="158.56 66.41 142.85 68.64 142.8 68.26 142.75 67.9 158.45 65.68 158.5 66.04 158.56 66.41"/><polygon points="141.42 70.7 130.07 56.19 130.49 56.14 130.91 56.08 142 70.24 141.85 70.63 141.42 70.7"/><polygon points="130.07 56.19 137.11 38.72 137.37 39.05 137.64 39.39 130.91 56.08 130.49 56.14 130.07 56.19"/><polygon points="132.68 55.64 138.6 40.93 138.94 41.06 139.29 41.2 133.36 55.92 133.01 55.77 132.68 55.64"/><polygon points="137.11 38.72 155.34 36.14 155.61 36.48 155.44 36.87 137.64 39.39 137.37 39.05 137.11 38.72"/><polygon points="142.1 70.97 136.96 83.76 136.62 83.62 136.27 83.48 141.42 70.7 141.85 70.63 142.1 70.97"/><text class="cls-1" transform="translate(132.03 91.01)">N</text><polygon points="137.84 91.61 144.95 102.96 144.74 103.32 144.28 103.29 137.22 92 137.53 91.81 137.84 91.61"/><text class="cls-1" transform="translate(129.99 120.72)">N</text><polygon points="129.11 116.3 115.85 110.96 115.84 110.56 116.22 110.32 129.39 115.63 129.24 115.96 129.11 116.3"/><polygon points="115.85 110.96 100.3 118.28 100.14 117.94 99.99 117.61 115.48 110.32 115.84 110.56 115.85 110.96"/><polygon points="114.06 109.65 100.27 120.77 100.23 120.33 100.19 119.89 113.6 109.08 113.83 109.36 114.06 109.65"/><polygon points="100.27 120.77 83.97 112.13 83.96 111.7 84.33 111.48 100.19 119.89 100.23 120.33 100.27 120.77"/><polygon points="81.34 110.53 80.77 94.67 81.14 94.66 81.51 94.65 82.07 110.5 81.71 110.51 81.34 110.53"/><polygon points="83.59 111.51 82.94 93.53 83.3 93.3 83.66 93.08 84.33 111.48 83.96 111.7 83.59 111.51"/><polygon points="82.94 93.53 67.04 85.1 67.03 84.68 67.4 84.45 83.66 93.08 83.3 93.3 82.94 93.53"/><polygon points="67.04 85.1 51.8 94.65 51.42 94.45 51.41 94.03 66.65 84.48 67.03 84.68 67.04 85.1"/><polygon points="64.97 83.79 51.53 92.21 51.34 91.9 51.13 91.58 64.58 83.17 64.78 83.47 64.97 83.79"/><polygon points="51.8 94.65 52.44 112.63 52.09 112.86 51.71 112.66 51.07 94.67 51.42 94.45 51.8 94.65"/><polygon points="54.42 111.17 68.44 118.6 68.27 118.93 68.09 119.25 54.08 111.83 54.25 111.5 54.42 111.17"/><polygon points="52.44 112.63 68.34 121.06 68.35 121.48 68.37 121.91 52.1 113.28 52.09 112.86 52.44 112.63"/><polygon points="68.34 121.06 83.59 111.51 83.96 111.7 83.97 112.13 68.37 121.91 68.35 121.48 68.34 121.06"/><polygon points="52.1 113.28 40.57 120.5 40.37 120.19 40.18 119.87 51.71 112.66 52.09 112.86 52.1 113.28"/><text class="cls-1" transform="translate(33.33 125.92)">O</text><polygon points="32.41 120.89 20.05 114.33 20.22 114 20.39 113.67 32.76 120.24 32.58 120.56 32.41 120.89"/><polygon points="51.07 94.67 38.88 88.21 39.06 87.89 39.23 87.56 51.41 94.03 51.42 94.45 51.07 94.67"/><text class="cls-1" transform="translate(26.14 89.11)">H</text><text class="cls-1" transform="translate(32 89.11)">O</text><polygon points="66.65 84.48 66.15 70.38 66.52 70.36 66.88 70.36 67.4 84.45 67.03 84.68 66.65 84.48"/><text class="cls-1" transform="translate(63.21 69.56)">O</text><polygon points="62.3 64.53 49.93 57.97 50.1 57.65 50.28 57.32 62.65 63.88 62.48 64.21 62.3 64.53"/><polygon points="115.48 110.32 116.75 91.9 117.1 92.18 117.45 92.48 116.22 110.32 115.84 110.56 115.48 110.32"/><polygon points="116.77 93.83 105.94 84.75 106.16 84.48 106.4 84.19 117.24 93.27 117.01 93.55 116.77 93.83"/><polygon points="118.19 92.14 107.35 83.06 107.59 82.78 107.83 82.5 118.66 91.57 118.42 91.86 118.19 92.14"/><text class="cls-1" transform="translate(99.82 83.66)">O</text><polygon points="116.75 91.9 131.2 88.28 131.3 88.63 131.38 88.99 117.45 92.48 117.1 92.18 116.75 91.9"/><line class="cls-2" x1="165.18" y1="15.15" x2="168.26" y2="15.15"/><line class="cls-2" x1="166.72" y1="13.62" x2="166.72" y2="16.69"/><polygon points="134.37 111.69 141.73 102.9 142.01 103.14 142.3 103.36 134.93 112.16 134.65 111.93 134.37 111.69"/><polygon points="136.06 113.1 144.28 103.29 144.74 103.32 144.9 103.7 136.62 113.58 136.35 113.34 136.06 113.1"/><polygon points="144.95 102.96 163.13 104.22 163.11 104.59 163.08 104.96 144.9 103.7 144.74 103.32 144.95 102.96"/></svg>