<?xml version="1.0" encoding="utf-8"?>
<!-- Generator: Adobe Illustrator 25.4.1, SVG Export Plug-In . SVG Version: 6.00 Build 0)  -->
<svg version="1.1" id="图层_1" xmlns="http://www.w3.org/2000/svg" xmlns:xlink="http://www.w3.org/1999/xlink" x="0px" y="0px"
	 viewBox="0 0 200 130" style="enable-background:new 0 0 200 130;" xml:space="preserve">
<style type="text/css">
	.st0{font-family:'ArialMT';}
	.st1{font-size:10.1491px;}
</style>
<polygon points="173.4,43.9 150.7,45.9 150.5,45.5 150.7,45 173.3,43 173.4,43.4 "/>
<polygon points="149.9,45.5 139.5,33.6 139.8,33.3 140.1,32.9 150.7,45 150.5,45.5 "/>
<g>
	<text transform="matrix(1 0 0 1 131.6775 23.8491)" class="st0 st1">H</text>
</g>
<g>
	<text transform="matrix(1 0 0 1 131.6775 33.1098)" class="st0 st1">N</text>
</g>
<polygon points="130.9,30.5 114.7,37.4 114.2,37.2 114.2,36.6 130.6,29.7 130.8,30.1 "/>
<polygon points="111.4,39.1 94.4,25.9 94.4,25.3 94.5,24.8 112,38.3 111.7,38.7 "/>
<polygon points="113.7,37.5 94.2,28.7 94.4,28.3 94.6,27.9 114.2,36.6 114.2,37.2 "/>
<polygon points="94.4,25.9 74.8,36.8 74.3,36.5 74.3,36 94.5,24.8 94.4,25.3 "/>
<polygon points="71.3,38.5 54.3,28.3 54.5,27.9 54.8,27.5 71.8,37.7 71.5,38.1 "/>
<polygon points="73.9,36.8 54.6,25.2 54.6,24.7 54.6,24.2 74.3,36 74.3,36.5 "/>
<polygon points="54.6,25.2 34.9,36.1 34.5,35.9 34.5,35.3 54.6,24.2 54.6,24.7 "/>
<polygon points="34.9,36.1 34.6,58.6 34.1,58.9 33.7,58.6 34,36.1 34.5,35.9 "/>
<polygon points="32.2,37.4 31.8,57.2 31.4,57.2 30.9,57.2 31.2,37.4 31.7,37.4 "/>
<polygon points="34.6,58.6 53.9,70.2 53.9,70.7 53.4,70.9 34.1,59.4 34.1,58.9 "/>
<polygon points="53.7,67.1 71,57.5 71.2,57.9 71.4,58.3 54.1,67.9 53.9,67.5 "/>
<polygon points="53.9,70.2 73.5,59.2 74,59.5 74.4,59.8 54.3,71 53.9,70.7 "/>
<polygon points="73.5,59.2 73.9,36.8 74.3,36.5 74.8,36.8 74.4,59.8 74,59.5 "/>
<polygon points="54.3,71 54,88.6 53.6,88.6 53.1,88.6 53.4,70.9 53.9,70.7 "/>
<g>
	<text transform="matrix(1 0 0 1 50.3855 97.8012)" class="st0 st1">F</text>
</g>
<polygon points="34.1,59.4 19.1,67.7 18.9,67.3 18.7,66.9 33.7,58.6 34.1,58.9 "/>
<g>
	<text transform="matrix(1 0 0 1 2.7385 74.1596)" class="st0 st1">H</text>
	<text transform="matrix(1 0 0 1 10.0686 74.1596)" class="st0 st1">O</text>
</g>
<polygon points="34,36.1 18.5,26.8 18.8,26.4 19,26.1 34.5,35.3 34.5,35.9 "/>
<g>
	<text transform="matrix(1 0 0 1 11.6545 28.1548)" class="st0 st1">F</text>
</g>
<polygon points="114.7,37.4 116.6,59.7 116.2,60.1 115.8,60.4 113.7,37.5 114.2,37.2 "/>
<polygon points="118.2,60.8 104.9,72.3 104.6,72 104.3,71.6 117.6,60.1 117.9,60.5 "/>
<polygon points="116.4,58.7 103.1,70.2 102.8,69.9 102.5,69.6 115.8,58 116.1,58.4 "/>
<g>
	<text transform="matrix(1 0 0 1 94.9187 79.2954)" class="st0 st1">O</text>
</g>
<polygon points="116.6,59.7 134.2,63.7 134.1,64.2 133.9,64.6 115.8,60.4 116.2,60.1 "/>
<g>
	<text transform="matrix(1 0 0 1 134.9724 69.3178)" class="st0 st1">N</text>
</g>
<polygon points="141.2,70.1 148,86 147.7,86.4 147.3,86.8 140.4,70.5 140.8,70.3 "/>
<polygon points="148,86 170.1,88.6 170.5,89.1 170,89.6 147.3,86.8 147.7,86.4 "/>
<polygon points="171,88.7 189.4,91 189.3,91.4 189.3,91.9 170.9,89.7 170.5,89.1 "/>
<g>
	<text transform="matrix(1 0 0 1 190.2282 96.0346)" class="st0 st1">F</text>
</g>
<polygon points="170.9,89.7 168.8,106.9 168.3,106.9 167.9,106.8 170,89.6 170.5,89.1 "/>
<g>
	<text transform="matrix(1 0 0 1 164.614 116.0942)" class="st0 st1">F</text>
</g>
<polygon points="170.1,88.6 172.2,71.4 172.6,71.4 173.1,71.5 171,88.7 170.5,89.1 "/>
<g>
	<text transform="matrix(1 0 0 1 170.1609 70.4204)" class="st0 st1">F</text>
</g>
<polygon points="141.3,59.9 149.9,45.5 150.5,45.5 150.7,45.9 142.1,60.3 141.7,60.1 "/>
</svg>
