<?xml version="1.0" encoding="utf-8"?>
<!-- Generator: Adobe Illustrator 25.4.1, SVG Export Plug-In . SVG Version: 6.00 Build 0)  -->
<svg version="1.1" id="图层_1" xmlns="http://www.w3.org/2000/svg" xmlns:xlink="http://www.w3.org/1999/xlink" x="0px" y="0px"
	 viewBox="0 0 200 130" style="enable-background:new 0 0 200 130;" xml:space="preserve">
<style type="text/css">
	.st0{font-family:'ArialMT';}
	.st1{font-size:9.2725px;}
</style>
<polygon points="136.5,94.2 130.1,79.6 130.5,79.4 130.9,79.3 137.3,93.9 136.9,94 "/>
<g>
	<text transform="matrix(1 0 0 1 125.1475 78.5221)" class="st0 st1">N</text>
</g>
<polygon points="130.9,69.9 138.7,56.7 139.2,56.7 139.4,57.1 131.6,70.3 131.3,70.1 "/>
<polygon points="139.4,56.2 159,56.7 159,57.1 159,57.5 139.4,57.1 139.2,56.7 "/>
<polygon points="140.5,58.5 160.3,54.2 160.1,54.6 159.9,55.1 140.7,59.3 140.6,58.9 "/>
<polygon points="160.3,54.2 169.3,66.9 169,67.1 168.6,67.3 159.9,55.1 160.1,54.6 "/>
<g>
	<text transform="matrix(1 0 0 1 168.9532 75.524)" class="st0 st1">N</text>
</g>
<polygon points="176.2,68.4 188.5,67.3 188.5,67.7 188.6,68.1 176.3,69.3 176.2,68.9 "/>
<polygon points="176.5,70.9 188.7,69.8 188.8,70.2 188.8,70.6 176.5,71.8 176.5,71.4 "/>
<g>
	<text transform="matrix(1 0 0 1 189.6231 73.5143)" class="st0 st1">O</text>
</g>
<polygon points="138.7,56.7 129.1,45.9 129.4,45.6 129.7,45.3 139.4,56.2 139.2,56.7 "/>
<g>
	<text transform="matrix(1 0 0 1 121.9083 36.9855)" class="st0 st1">H</text>
</g>
<g>
	<text transform="matrix(1 0 0 1 121.9083 45.4537)" class="st0 st1">N</text>
</g>
<polygon points="121.2,43.1 106.4,49.5 106,49.3 106,48.8 120.9,42.3 121.1,42.7 "/>
<polygon points="103.5,51 87.8,39.1 87.9,38.6 87.9,38.1 104,50.4 103.7,50.7 "/>
<polygon points="105.6,49.6 87.7,41.7 87.8,41.3 88,40.9 106,48.8 106,49.3 "/>
<polygon points="87.8,39.1 70,49.2 69.6,48.9 69.6,48.5 87.9,38.1 87.9,38.6 "/>
<polygon points="66.8,50.7 51.2,41.5 51.4,41.2 51.6,40.8 67.2,50 67,50.4 "/>
<polygon points="69.1,49.2 51.4,38.8 51.4,38.3 51.5,37.8 69.6,48.5 69.6,48.9 "/>
<polygon points="51.4,38.8 33.6,48.9 33.2,48.6 33.2,48.1 51.5,37.8 51.4,38.3 "/>
<polygon points="33.6,48.9 33.4,69.4 33,69.6 32.5,69.4 32.7,48.9 33.2,48.6 "/>
<polygon points="31,50.1 30.9,68.2 30.4,68.2 30,68.1 30.2,50 30.6,50 "/>
<polygon points="33.4,69.4 51.1,79.8 51.1,80.3 50.6,80.5 33,70.1 33,69.6 "/>
<polygon points="50.9,77 66.7,68.1 66.9,68.5 67.1,68.9 51.3,77.8 51.1,77.4 "/>
<polygon points="51.1,79.8 69,69.7 69.4,70 69.8,70.2 51.5,80.6 51.1,80.3 "/>
<polygon points="69,69.7 69.1,49.2 69.6,48.9 70,49.2 69.8,70.2 69.4,70 "/>
<polygon points="51.5,80.6 51.3,96.7 50.9,96.7 50.5,96.7 50.6,80.5 51.1,80.3 "/>
<g>
	<text transform="matrix(1 0 0 1 48.0391 105.0865)" class="st0 st1">F</text>
</g>
<polygon points="33,70.1 19.3,77.8 19.1,77.5 18.9,77.1 32.5,69.4 33,69.6 "/>
<g>
	<text transform="matrix(1 0 0 1 4.3555 83.735)" class="st0 st1">H</text>
	<text transform="matrix(1 0 0 1 11.0479 83.735)" class="st0 st1">O</text>
</g>
<polygon points="32.7,48.9 18.5,40.5 18.7,40.1 18.9,39.7 33.2,48.1 33.2,48.6 "/>
<g>
	<text transform="matrix(1 0 0 1 12.2091 41.6896)" class="st0 st1">F</text>
</g>
<polygon points="106.4,49.5 108.4,69.9 108,70.2 107.6,70.5 105.6,49.6 106,49.3 "/>
<polygon points="109.8,70.9 97.8,81.5 97.5,81.1 97.2,80.8 109.2,70.2 109.5,70.5 "/>
<polygon points="108.1,69 96.1,79.6 95.8,79.3 95.6,78.9 107.6,68.3 107.8,68.7 "/>
<g>
	<text transform="matrix(1 0 0 1 88.6202 87.8844)" class="st0 st1">O</text>
</g>
<polygon points="108.4,69.9 124.4,73.4 124.3,73.8 124.2,74.2 107.6,70.5 108,70.2 "/>
</svg>
