<?xml version="1.0" encoding="utf-8"?>
<!-- Generator: Adobe Illustrator 25.4.1, SVG Export Plug-In . SVG Version: 6.00 Build 0)  -->
<svg version="1.1" id="图层_1" xmlns="http://www.w3.org/2000/svg" xmlns:xlink="http://www.w3.org/1999/xlink" x="0px" y="0px"
	 viewBox="0 0 200 130" style="enable-background:new 0 0 200 130;" xml:space="preserve">
<style type="text/css">
	.st0{font-family:'ArialMT';}
	.st1{font-size:6.5716px;}
	.st2{font-size:4.0457px;}
</style>
<polygon points="38.9,44.9 51.8,52.4 51.8,52.7 51.5,52.9 38.9,45.6 38.9,45.2 "/>
<polygon points="39,47 50.1,53.5 50,53.7 49.8,54 38.7,47.5 38.9,47.3 "/>
<polygon points="52.1,52.9 52,67.8 51.7,67.6 51.4,67.4 51.5,52.9 51.8,52.7 "/>
<polygon points="52,67.8 39.1,75.2 38.8,75 38.8,74.7 51.4,67.4 51.7,67.6 "/>
<polygon points="50.1,66.8 38.9,73.2 38.8,73 38.6,72.7 49.8,66.3 49.9,66.6 "/>
<polygon points="38.5,75.2 25.9,67.9 25.9,67.5 26.2,67.4 38.8,74.7 38.8,75 "/>
<polygon points="25.6,67.4 25.6,52.8 25.9,52.6 26.2,52.8 26.2,67.4 25.9,67.5 "/>
<polygon points="27.4,66.5 27.4,53.7 27.7,53.7 28,53.7 28,66.5 27.7,66.5 "/>
<polygon points="25.6,52.8 15.5,46.9 15.7,46.7 15.8,46.4 25.9,52.3 25.9,52.6 "/>
<g>
	<text transform="matrix(1 0 0 1 11.0564 47.7996)" class="st0 st1">F</text>
</g>
<polygon points="25.9,52.3 38.9,44.9 38.9,45.2 38.9,45.6 26.2,52.8 25.9,52.6 "/>
<polygon points="25.9,67.9 16.3,73.4 16.1,73.1 16,72.9 25.6,67.4 25.9,67.5 "/>
<g>
	<text transform="matrix(1 0 0 1 5.6727 77.6077)" class="st0 st1">H</text>
	<text transform="matrix(1 0 0 1 10.4168 77.6077)" class="st0 st1">O</text>
</g>
<polygon points="39.1,75.2 39,86.6 38.7,86.6 38.4,86.6 38.5,75.2 38.8,75 "/>
<g>
	<text transform="matrix(1 0 0 1 36.7293 92.5902)" class="st0 st1">F</text>
</g>
<polygon points="51.8,52.4 64.7,44.9 64.7,45.3 64.7,45.7 52.1,52.9 51.8,52.7 "/>
<polygon points="64.7,44.9 76.2,53.6 76,53.8 75.8,54.1 64.7,45.7 64.7,45.3 "/>
<polygon points="64.8,47 77.6,52.5 77.6,52.8 77.3,53 64.6,47.5 64.7,47.2 "/>
<polygon points="77.6,52.5 91.3,46.4 91.2,46.8 91.1,47.1 77.9,53 77.6,52.8 "/>
<polygon points="89.9,47.2 92.5,35.3 92.8,35.3 93,35.4 90.5,47.3 90.2,47.2 "/>
<polygon points="91.6,47.5 94.2,35.7 94.5,35.7 94.8,35.8 92.2,47.7 91.9,47.6 "/>
<g>
	<text transform="matrix(1 0 0 1 91.7918 34.8729)" class="st0 st1">O</text>
</g>
<polygon points="91.3,46.4 98.4,54.4 98.2,54.6 98,54.8 91.1,47.1 91.2,46.8 "/>
<g>
	<text transform="matrix(1 0 0 1 98.7654 60.5467)" class="st0 st1">N</text>
</g>
<polygon points="99.5,61.3 94,70.8 93.6,70.8 93.5,70.4 99,61 99.2,61.2 "/>
<polygon points="95.8,70.8 99.9,84.1 99.7,84.4 99.4,84.7 95.2,71 95.5,70.9 "/>
<polygon points="94,70.8 101.1,82.7 100.8,82.8 100.6,83 93.5,71 93.6,70.8 "/>
<polygon points="99.9,84.1 111.5,85.4 111.5,85.7 111.5,86 99.4,84.7 99.7,84.4 "/>
<g>
	<text transform="matrix(1 0 0 1 112.1102 88.6654)" class="st0 st1">N</text>
</g>
<polygon points="116.2,89.2 119.3,96.2 119,96.3 118.8,96.4 115.7,89.4 115.9,89.3 "/>
<polygon points="114.6,89.9 117.7,96.9 117.4,97 117.1,97.2 114,90.2 114.3,90 "/>
<g>
	<text transform="matrix(1 0 0 1 117.9402 102.2952)" class="st0 st1">O</text>
</g>
<polygon points="93.5,71 82,68.6 82,68.3 82.1,68 93.5,70.4 93.6,70.8 "/>
<g>
	<text transform="matrix(1 0 0 1 71.9607 70.2845)" class="st0 st1">H</text>
	<text transform="matrix(1 0 0 1 76.7098 70.2845)" class="st0 st1">N</text>
</g>
<polygon points="78.4,64.3 77.3,53 77.6,52.8 77.9,53 79,64.3 78.7,64.3 "/>
<polygon points="104.1,57.3 116.1,56.1 116,56.4 115.8,56.7 104.1,57.9 104.1,57.6 "/>
<polygon points="116.1,56.1 124.8,68.1 124.7,68.5 124.5,68.8 115.8,56.7 116,56.4 "/>
<polygon points="124.8,68.1 139.7,66.6 139.5,66.9 139.4,67.3 124.5,68.8 124.7,68.5 "/>
<polygon points="139.7,66.6 148.4,78.7 148.2,79 148.1,79.3 139.4,67.3 139.5,66.9 "/>
<polygon points="148.4,78.7 163.2,77.2 163.1,77.5 162.9,77.8 148.1,79.3 148.2,79 "/>
<polygon points="163.2,77.2 171.9,89.3 171.8,89.6 171.6,89.9 162.9,77.8 163.1,77.5 "/>
<polygon points="171.9,89.3 183.6,88.1 183.6,88.4 183.7,88.7 171.6,89.9 171.8,89.6 "/>
<g>
	<text transform="matrix(1 0 0 1 184.2283 89.9046)" class="st0 st1">N</text>
	<text transform="matrix(1 0 0 1 188.9793 89.9046)" class="st0 st1">H</text>
	<text transform="matrix(1 0 0 1 193.7225 90.9163)" class="st0 st2">2</text>
</g>
</svg>
