<svg id="图层_1" data-name="图层 1" xmlns="http://www.w3.org/2000/svg" viewBox="0 0 234.21 108.86"><defs><style>.cls-1,.cls-2{isolation:isolate;}.cls-2{font-size:12.21px;font-family:ArialMT, Arial;}</style></defs><polygon points="220.75 38.99 193.44 41.51 193.11 40.98 193.34 40.4 220.65 37.89 220.69 38.44 220.75 38.99"/><polygon points="192.43 41.04 179.83 26.68 180.25 26.32 180.67 25.95 193.34 40.4 193.11 40.98 192.43 41.04"/><g class="cls-1"><text class="cls-2" transform="translate(170.44 15)">H</text></g><g class="cls-1"><text class="cls-2" transform="translate(170.44 26.15)">N</text></g><polygon points="169.55 23.04 149.99 31.45 149.4 31.1 149.4 30.49 169.11 22.02 169.33 22.53 169.55 23.04"/><polygon points="146.09 33.41 125.54 17.6 125.59 16.94 125.64 16.28 146.76 32.54 146.43 32.98 146.09 33.41"/><polygon points="148.88 31.47 125.32 21.04 125.54 20.53 125.77 20.02 149.4 30.49 149.4 31.1 148.88 31.47"/><polygon points="125.54 17.6 101.98 30.81 101.43 30.48 101.43 29.84 125.64 16.28 125.59 16.94 125.54 17.6"/><polygon points="97.79 32.83 77.28 20.64 77.57 20.16 77.85 19.68 98.36 31.88 98.08 32.36 97.79 32.83"/><polygon points="100.87 30.79 77.61 16.96 77.62 16.32 77.63 15.68 101.43 29.84 101.43 30.48 100.87 30.79"/><polygon points="77.61 16.96 54 30.19 53.45 29.86 53.46 29.22 77.63 15.68 77.62 16.32 77.61 16.96"/><polygon points="54 30.19 53.65 57.25 53.1 57.56 52.55 57.23 52.9 30.18 53.45 29.86 54 30.19"/><polygon points="50.66 31.75 50.35 55.6 49.8 55.6 49.24 55.59 49.55 31.73 50.1 31.74 50.66 31.75"/><polygon points="53.65 57.25 76.91 71.08 76.9 71.72 76.35 72.03 53.09 58.2 53.1 57.56 53.65 57.25"/><polygon points="76.68 67.4 97.5 55.73 97.77 56.22 98.04 56.7 77.22 68.36 76.95 67.88 76.68 67.4"/><polygon points="76.91 71.08 100.52 57.85 101.07 58.18 101.62 58.5 77.45 72.04 76.9 71.72 76.91 71.08"/><polygon points="100.52 57.85 100.87 30.79 101.43 30.48 101.98 30.81 101.62 58.5 101.07 58.18 100.52 57.85"/><polygon points="77.45 72.04 77.18 93.26 76.63 93.25 76.07 93.25 76.35 72.03 76.9 71.72 77.45 72.04"/><g class="cls-1"><text class="cls-2" transform="translate(72.82 104.36)">F</text></g><polygon points="53.09 58.2 35.06 68.3 34.79 67.82 34.52 67.33 52.55 57.23 53.1 57.56 53.09 58.2"/><g class="cls-1"><text class="cls-2" transform="translate(15.36 76.05)">H</text><text class="cls-2" transform="translate(24.18 76.05)">O</text></g><polygon points="52.9 30.18 34.2 19.06 34.48 18.58 34.77 18.11 53.46 29.22 53.45 29.86 52.9 30.18"/><g class="cls-1"><text class="cls-2" transform="translate(25.91 20.65)">F</text></g><polygon points="149.99 31.45 152.45 58.23 151.94 58.68 151.42 59.13 148.88 31.47 149.4 31.1 149.99 31.45"/><polygon points="154.31 59.55 138.44 73.47 138.07 73.06 137.71 72.64 153.58 58.72 153.94 59.13 154.31 59.55"/><polygon points="152.12 57.05 136.25 70.97 135.88 70.56 135.51 70.14 151.38 56.22 151.75 56.63 152.12 57.05"/><g class="cls-1"><text class="cls-2" transform="translate(126.37 81.9)">O</text></g><polygon points="152.45 58.23 173.56 63 173.44 63.54 173.32 64.08 151.42 59.13 151.94 58.68 152.45 58.23"/><g class="cls-1"><text class="cls-2" transform="translate(174.55 69.74)">N</text></g><polygon points="182.11 70.73 190.41 90.02 189.9 90.23 189.39 90.45 181.09 71.17 181.6 70.95 182.11 70.73"/><polygon points="182.14 58.34 192.43 41.04 193.11 40.98 193.44 41.51 183.09 58.91 182.62 58.63 182.14 58.34"/></svg>