<?xml version="1.0" encoding="utf-8"?>
<!-- Generator: Adobe Illustrator 25.4.1, SVG Export Plug-In . SVG Version: 6.00 Build 0)  -->
<svg version="1.1" id="图层_1" xmlns="http://www.w3.org/2000/svg" xmlns:xlink="http://www.w3.org/1999/xlink" x="0px" y="0px"
	 viewBox="0 0 200 130" style="enable-background:new 0 0 200 130;" xml:space="preserve">
<style type="text/css">
	.st0{font-family:'ArialMT';}
	.st1{font-size:9.7747px;}
	.st2{font-size:6.0201px;}
</style>
<polygon points="143.2,95.6 136.6,80.2 137,80 137.4,79.8 144,95.3 143.6,95.5 "/>
<g>
	<text transform="matrix(1 0 0 1 131.3322 79.0543)" class="st0 st1">N</text>
</g>
<polygon points="137.4,69.9 145.7,56.1 146.2,56.1 146.5,56.5 138.2,70.4 137.8,70.2 "/>
<polygon points="145.7,56.1 135.6,44.6 135.9,44.3 136.3,44 146.4,55.6 146.2,56.1 "/>
<g>
	<text transform="matrix(1 0 0 1 128.09 35.2315)" class="st0 st1">H</text>
</g>
<g>
	<text transform="matrix(1 0 0 1 128.09 44.1583)" class="st0 st1">N</text>
</g>
<polygon points="127.4,41.7 111.7,48.4 111.2,48.1 111.2,47.6 127,40.8 127.2,41.3 "/>
<polygon points="108.6,49.9 92.2,37.3 92.2,36.7 92.2,36.2 109.1,49.2 108.9,49.6 "/>
<polygon points="110.8,48.4 92,40 92.2,39.6 92.3,39.2 111.2,47.6 111.2,48.1 "/>
<polygon points="92.2,37.3 73.3,47.8 72.8,47.5 72.9,47 92.2,36.2 92.2,36.7 "/>
<polygon points="69.9,49.4 53.5,39.6 53.8,39.2 54,38.9 70.4,48.6 70.2,49 "/>
<polygon points="72.4,47.8 53.8,36.7 53.8,36.2 53.8,35.7 72.9,47 72.8,47.5 "/>
<polygon points="53.8,36.7 34.9,47.2 34.4,47 34.4,46.5 53.8,35.7 53.8,36.2 "/>
<polygon points="34.9,47.2 34.6,68.9 34.1,69.2 33.7,68.9 34,47.2 34.4,47 "/>
<polygon points="32.2,48.5 31.9,67.6 31.5,67.6 31,67.6 31.3,48.5 31.8,48.5 "/>
<polygon points="34.6,68.9 53.2,80 53.2,80.5 52.7,80.8 34.1,69.7 34.1,69.2 "/>
<polygon points="53,77.1 69.7,67.7 69.9,68.1 70.1,68.5 53.4,77.8 53.2,77.4 "/>
<polygon points="53.2,80 72.1,69.4 72.5,69.7 73,70 53.6,80.8 53.2,80.5 "/>
<polygon points="72.1,69.4 72.4,47.8 72.8,47.5 73.3,47.8 73,70 72.5,69.7 "/>
<polygon points="53.6,80.8 53.4,97.8 52.9,97.7 52.5,97.7 52.7,80.8 53.2,80.5 "/>
<g>
	<text transform="matrix(1 0 0 1 49.8517 106.6412)" class="st0 st1">F</text>
</g>
<polygon points="34.1,69.7 19.7,77.7 19.4,77.3 19.2,76.9 33.7,68.9 34.1,69.2 "/>
<g>
	<text transform="matrix(1 0 0 1 3.9 83.9137)" class="st0 st1">H</text>
	<text transform="matrix(1 0 0 1 10.9611 83.9137)" class="st0 st1">O</text>
</g>
<polygon points="34,47.2 19,38.3 19.3,37.9 19.5,37.5 34.4,46.5 34.4,47 "/>
<g>
	<text transform="matrix(1 0 0 1 12.4098 39.5792)" class="st0 st1">F</text>
</g>
<polygon points="111.7,48.4 113.7,69.8 113.2,70.2 112.8,70.5 110.8,48.4 111.2,48.1 "/>
<polygon points="115.1,70.9 102.4,82 102.1,81.7 101.8,81.3 114.6,70.2 114.8,70.5 "/>
<polygon points="113.4,68.9 100.7,80 100.4,79.7 100.1,79.3 112.8,68.2 113.1,68.5 "/>
<g>
	<text transform="matrix(1 0 0 1 92.7452 88.7242)" class="st0 st1">O</text>
</g>
<polygon points="113.7,69.8 130.5,73.7 130.4,74.1 130.3,74.5 112.8,70.5 113.2,70.2 "/>
<polygon points="146.4,55.6 168.5,53.6 168.3,54.1 168.1,54.5 146.5,56.5 146.2,56.1 "/>
<polygon points="168.5,53.6 178,67 177.6,67.2 177.2,67.5 168.1,54.5 168.3,54.1 "/>
<g>
	<text transform="matrix(1 0 0 1 177.548 74.8746)" class="st0 st1">N</text>
	<text transform="matrix(1 0 0 1 184.6085 74.8746)" class="st0 st1">H</text>
	<text transform="matrix(1 0 0 1 191.67 76.3805)" class="st0 st2">2</text>
</g>
</svg>
