<?xml version="1.0" encoding="utf-8"?>
<!-- Generator: Adobe Illustrator 25.4.1, SVG Export Plug-In . SVG Version: 6.00 Build 0)  -->
<svg version="1.1" id="图层_1" xmlns="http://www.w3.org/2000/svg" xmlns:xlink="http://www.w3.org/1999/xlink" x="0px" y="0px"
	 viewBox="0 0 200 130" style="enable-background:new 0 0 200 130;" xml:space="preserve">
<style type="text/css">
	.st0{font-family:'ArialMT';}
	.st1{font-size:10.9707px;}
</style>
<g>
	<text transform="matrix(1 0 0 1 61.0695 112.5123)" class="st0 st1">B</text>
</g>
<polygon points="64.3,102.5 64.4,83.5 64.9,83.2 65.4,83.5 65.3,102.5 64.8,102.5 "/>
<polygon points="64.4,83.5 43,70.9 43.5,70.6 44,70.3 64.9,82.6 64.9,83.2 "/>
<polygon points="64.7,80.2 46.2,69.3 46.5,68.9 46.7,68.5 65.2,79.3 65,79.8 "/>
<polygon points="43,70.9 43.2,46 43.7,45.7 44.2,46 44,70.3 43.5,70.6 "/>
<polygon points="43.7,45.1 64.8,33.2 65.3,33.5 65.3,34 44.2,46 43.7,45.7 "/>
<polygon points="46.4,47 65,36.5 65.3,36.9 65.5,37.3 46.9,47.9 46.7,47.5 "/>
<polygon points="65.8,33.2 87.3,45.8 86.8,46.1 86.3,46.3 65.3,34 65.3,33.5 "/>
<polygon points="87.3,45.8 87.1,70.7 86.6,70.9 86.1,70.6 86.3,46.3 86.8,46.1 "/>
<polygon points="84.3,47.8 84.1,69.2 83.6,69.2 83.1,69.2 83.3,47.8 83.8,47.8 "/>
<polygon points="87.1,70.7 108,83 108,83.5 108,84.1 86.6,71.5 86.6,70.9 "/>
<polygon points="107.8,79.9 129.2,70.9 129.6,71.3 129.6,71.8 108.2,80.8 108,80.3 "/>
<polygon points="108,83 126.7,69.1 127,69.5 127.3,69.9 108,84.1 108,83.5 "/>
<polygon points="130.2,71 152.2,81 152.3,81.6 152.4,82.2 129.6,71.8 129.6,71.3 "/>
<polygon points="154,80.1 158.1,100 157.6,100.1 157.1,100.2 153,80.3 153.5,80.2 "/>
<polygon points="151.1,80.7 155.2,100.6 154.7,100.7 154.2,100.8 150.1,80.9 150.6,80.8 "/>
<g>
	<text transform="matrix(1 0 0 1 152.9997 110.3902)" class="st0 st1">O</text>
</g>
<polygon points="152.2,81 163.8,68.3 164.1,68.6 164.5,69 152.4,82.2 152.3,81.6 "/>
<g>
	<text transform="matrix(1 0 0 1 165.1198 67.6656)" class="st0 st1">N</text>
</g>
<polygon points="165.5,57.9 156.6,42.1 156.8,41.6 157.1,41 166.4,57.4 165.9,57.7 "/>
<polygon points="154.6,41.7 165.3,18.1 165.8,18.3 166.2,18.5 155.5,42.2 155,41.9 "/>
<polygon points="157.3,43 168,19.4 168.5,19.6 168.9,19.8 158.2,43.4 157.7,43.2 "/>
<polygon points="156.6,42.1 137.5,46 137.4,45.5 137.3,45.1 157.1,41 156.8,41.6 "/>
<g>
	<text transform="matrix(1 0 0 1 120.5642 51.0015)" class="st0 st1">H</text>
	<text transform="matrix(1 0 0 1 128.4851 51.0015)" class="st0 st1">N</text>
</g>
<polygon points="132.3,52.2 130.2,71 129.6,71.3 129.2,70.9 131.3,52 131.8,52.1 "/>
<polygon points="174.1,63.3 193.9,65.5 193.8,66 193.7,66.5 174,64.3 174,63.8 "/>
<polygon points="86.6,71.5 65.4,83.5 64.9,83.2 64.9,82.6 86.1,70.6 86.6,70.9 "/>
<polygon points="64.8,33.2 65,14.1 65.5,14.1 66,14.1 65.8,33.2 65.3,33.5 "/>
<g>
	<text transform="matrix(1 0 0 1 62.1657 13.024)" class="st0 st1">F</text>
</g>
<polygon points="43.2,46 27.2,36.6 27.5,36.2 27.8,35.8 43.7,45.1 43.7,45.7 "/>
<g>
	<text transform="matrix(1 0 0 1 10.0525 37.5557)" class="st0 st1">H</text>
	<text transform="matrix(1 0 0 1 17.9734 37.5557)" class="st0 st1">O</text>
</g>
<polygon points="60.3,111.1 47.7,118.3 47.4,117.9 47.2,117.4 59.8,110.3 60.1,110.7 "/>
<g>
	<text transform="matrix(1 0 0 1 39.738 124.7828)" class="st0 st1">F</text>
</g>
<polygon points="69.6,110.4 82.1,117.7 81.8,118.1 81.6,118.6 69.1,111.2 69.4,110.8 "/>
<g>
	<text transform="matrix(1 0 0 1 82.8166 125.1275)" class="st0 st1">F</text>
</g>
</svg>
