<svg id="图层_1" data-name="图层 1" xmlns="http://www.w3.org/2000/svg" viewBox="0 0 200 130"><defs><style>.cls-1,.cls-2{isolation:isolate;}.cls-2{font-size:9.51px;font-family:ArialMT, Arial;}</style></defs><polygon points="192.63 93.19 175.19 83.24 175.41 82.86 175.62 82.49 193.06 92.44 192.84 92.81 192.63 93.19"/><polygon points="193.91 90.94 175.39 80.37 175.39 79.87 175.39 79.38 194.34 90.19 194.13 90.56 193.91 90.94"/><polygon points="175.39 80.37 156.77 91.25 156.77 90.75 156.76 90.26 175.39 79.38 175.39 79.87 175.39 80.37"/><polygon points="156.77 91.25 138.03 80.56 138.03 80.06 138.46 79.81 156.76 90.26 156.77 90.75 156.77 91.25"/><polygon points="138.03 80.56 119.41 91.44 119.41 90.94 119.41 90.44 137.6 79.82 138.03 80.06 138.03 80.56"/><polygon points="135.65 78.95 119.61 88.33 119.39 87.95 119.18 87.58 135.22 78.21 135.44 78.58 135.65 78.95"/><polygon points="119.41 91.44 100.68 80.75 100.67 80.25 101.1 80 119.41 90.44 119.41 90.94 119.41 91.44"/><polygon points="100.68 80.75 82.05 91.63 82.05 91.13 82.05 90.64 100.24 80.01 100.67 80.25 100.68 80.75"/><polygon points="82.05 91.63 63.29 80.93 63.31 80.44 63.72 80.18 82.05 90.64 82.05 91.13 82.05 91.63"/><polygon points="81.82 88.52 65.53 79.22 65.74 78.85 65.96 78.47 82.25 87.77 82.03 88.14 81.82 88.52"/><polygon points="62.85 80.18 61.05 63.85 61.48 63.8 61.91 63.75 63.72 80.18 63.31 80.44 62.85 80.18"/><g class="cls-1"><text class="cls-2" transform="translate(57.52 62.86)">N</text></g><polygon points="56.04 61.07 41.06 57.97 41.15 57.54 41.23 57.12 56.22 60.23 56.13 60.65 56.04 61.07"/><polygon points="56.57 58.54 40.05 55.11 39.83 54.63 40.13 54.25 56.74 57.69 56.66 58.11 56.57 58.54"/><polygon points="39.35 54.6 32.73 39.94 33.12 39.76 33.52 39.59 40.13 54.25 39.83 54.63 39.35 54.6"/><g class="cls-1"><text class="cls-2" transform="translate(20.92 38.82)">H</text><text class="cls-2" transform="translate(27.79 38.82)">S</text></g><polygon points="40.05 55.11 32.25 68.78 31.88 68.56 31.5 68.35 39.35 54.6 39.83 54.63 40.05 55.11"/><g class="cls-1"><text class="cls-2" transform="translate(25.71 77.21)">N</text></g><polygon points="24.89 74.26 7.75 76.15 7.7 75.72 7.65 75.3 24.8 73.41 24.84 73.83 24.89 74.26"/><polygon points="33.76 77.79 43.76 88.79 43.66 89.32 43.55 89.84 33.12 78.37 33.44 78.08 33.76 77.79"/><polygon points="45.54 88.75 41.96 105.99 41.54 105.9 41.12 105.81 44.69 88.57 45.11 88.66 45.54 88.75"/><polygon points="43 88.22 39.43 105.47 39.01 105.38 38.58 105.29 42.16 88.05 42.58 88.13 43 88.22"/><g class="cls-1"><text class="cls-2" transform="translate(35.58 114.29)">O</text></g><polygon points="43.76 88.79 62.85 80.18 63.31 80.44 63.29 80.93 43.55 89.84 43.66 89.32 43.76 88.79"/><polygon points="100.24 80.01 100.13 58.44 100.56 58.69 101 58.93 101.1 80 100.67 80.25 100.24 80.01"/><polygon points="102.82 78.75 102.73 60.17 103.16 60.17 103.59 60.16 103.69 78.74 103.25 78.75 102.82 78.75"/><polygon points="100.13 58.44 118.76 47.56 119.19 47.8 119.19 48.3 101 58.93 100.56 58.69 100.13 58.44"/><polygon points="118.76 47.56 118.67 31.04 119.1 31.03 119.53 31.03 119.62 47.55 119.19 47.8 118.76 47.56"/><g class="cls-1"><text class="cls-2" transform="translate(115.38 30.09)">O</text></g><polygon points="123.42 23.2 137.49 14.98 137.7 15.36 137.92 15.73 123.86 23.94 123.64 23.57 123.42 23.2"/><polygon points="119.62 47.55 137.92 58 137.92 58.49 137.49 58.75 119.19 48.3 119.19 47.8 119.62 47.55"/><polygon points="119.42 50.42 135.56 59.63 135.34 60 135.13 60.38 118.99 51.17 119.2 50.79 119.42 50.42"/><polygon points="137.92 58 151.77 49.91 151.99 50.28 152.2 50.65 138.36 58.74 137.92 58.49 137.92 58"/><g class="cls-1"><text class="cls-2" transform="translate(152.85 51.47)">O</text><text class="cls-2" transform="translate(160.25 51.47)">H</text></g><polygon points="138.36 58.74 138.46 79.81 138.03 80.06 137.6 79.82 137.49 58.75 137.92 58.49 138.36 58.74"/></svg>