<svg id="图层_1" data-name="图层 1" xmlns="http://www.w3.org/2000/svg" viewBox="0 0 200 130"><defs><style>.cls-1,.cls-2{isolation:isolate;}.cls-2{font-size:11.06px;font-family:ArialMT, Arial;}</style></defs><polygon points="197.07 81.92 180.62 91.36 180.37 90.92 180.12 90.48 196.57 81.05 196.82 81.48 197.07 81.92"/><g class="cls-1"><text class="cls-2" transform="translate(170.77 98.44)">O</text></g><polygon points="169.51 91.32 153.38 81.94 153.38 81.37 153.88 81.08 170.01 90.45 169.76 90.88 169.51 91.32"/><polygon points="153.38 81.94 131.63 94.43 131.63 93.85 131.63 93.27 152.88 81.08 153.38 81.37 153.38 81.94"/><polygon points="150.63 80.06 131.89 90.81 131.64 90.37 131.39 89.94 150.13 79.19 150.38 79.62 150.63 80.06"/><polygon points="131.63 94.43 109.94 81.83 109.94 81.25 110.44 80.96 131.63 93.27 131.63 93.85 131.63 94.43"/><polygon points="109.94 81.83 88.19 94.31 88.19 93.73 88.19 93.15 109.44 80.96 109.94 81.25 109.94 81.83"/><polygon points="88.19 94.31 66.47 81.7 66.5 81.13 66.97 80.83 88.19 93.15 88.19 93.73 88.19 94.31"/><polygon points="87.95 90.69 69.09 79.74 69.34 79.3 69.59 78.87 88.45 89.82 88.2 90.26 87.95 90.69"/><polygon points="66.47 81.7 43.43 91.88 43.56 91.27 43.69 90.67 65.97 80.82 66.5 81.13 66.47 81.7"/><polygon points="45.75 90.63 41.45 110.64 40.95 110.53 40.47 110.42 44.77 90.42 45.26 90.52 45.75 90.63"/><polygon points="42.81 89.99 38.5 110 38.01 109.9 37.52 109.79 41.83 89.78 42.32 89.89 42.81 89.99"/><g class="cls-1"><text class="cls-2" transform="translate(33.98 120.27)">O</text></g><polygon points="43.43 91.88 31.45 78.5 31.83 78.17 32.2 77.83 43.69 90.67 43.56 91.27 43.43 91.88"/><g class="cls-1"><text class="cls-2" transform="translate(22.84 77.07)">N</text></g><polygon points="21.89 73.6 1.93 75.64 1.88 75.15 1.83 74.65 21.78 72.6 21.83 73.1 21.89 73.6"/><polygon points="29.64 66.76 39.18 50.34 39.43 50.91 39.68 51.47 30.5 67.27 30.07 67.01 29.64 66.76"/><polygon points="38.03 52.72 29.92 34.35 30.38 34.15 30.84 33.95 38.95 52.31 38.49 52.51 38.03 52.72"/><polygon points="40.79 51.5 32.67 33.14 33.13 32.94 33.59 32.73 41.7 51.09 41.25 51.3 40.79 51.5"/><g class="cls-1"><text class="cls-2" transform="translate(25.6 32.45)">S</text></g><polygon points="39.18 50.34 59.06 54.62 58.95 55.11 58.84 55.6 39.68 51.47 39.43 50.91 39.18 50.34"/><g class="cls-1"><text class="cls-2" transform="translate(59.95 60.66)">N</text></g><polygon points="68.61 51.34 82.3 39.08 82.63 39.45 82.96 39.83 69.28 52.08 68.94 51.71 68.61 51.34"/><polygon points="65.02 61.71 66.97 80.83 66.5 81.13 65.97 80.82 64.02 61.81 64.52 61.76 65.02 61.71"/><polygon points="109.44 80.96 109.51 55.88 110.01 56.17 110.51 56.46 110.44 80.96 109.94 81.25 109.44 80.96"/><polygon points="112.45 79.52 112.51 57.91 113.01 57.92 113.52 57.92 113.46 79.52 112.96 79.52 112.45 79.52"/><polygon points="109.51 55.88 131.26 43.4 131.76 43.69 131.76 44.27 110.51 56.46 110.01 56.17 109.51 55.88"/><polygon points="131.26 43.4 131.31 24.18 131.81 24.19 132.31 24.19 132.26 43.4 131.76 43.69 131.26 43.4"/><g class="cls-1"><text class="cls-2" transform="translate(127.53 23.09)">O</text></g><polygon points="136.88 15.13 153.33 5.69 153.58 6.13 153.83 6.56 137.38 16 137.13 15.56 136.88 15.13"/><polygon points="132.26 43.4 153.45 55.71 153.45 56.29 152.95 56.57 131.76 44.27 131.76 43.69 132.26 43.4"/><polygon points="132 46.73 150.69 57.58 150.43 58.02 150.18 58.45 131.5 47.6 131.75 47.16 132 46.73"/><polygon points="153.45 55.71 169.65 46.41 169.9 46.85 170.15 47.28 153.95 56.58 153.45 56.29 153.45 55.71"/><g class="cls-1"><text class="cls-2" transform="translate(170.9 48.28)">O</text><text class="cls-2" transform="translate(179.5 48.28)">H</text></g><polygon points="153.95 56.58 153.88 81.08 153.38 81.37 152.88 81.08 152.95 56.57 153.45 56.29 153.95 56.58"/></svg>