<svg id="图层_1" data-name="图层 1" xmlns="http://www.w3.org/2000/svg" viewBox="0 0 200 130"><defs><style>.cls-1,.cls-2{isolation:isolate;}.cls-2{font-size:10.57px;font-family:ArialMT, Arial;}</style></defs><polygon points="194.06 81.85 178.34 90.86 178.1 90.44 177.86 90.03 193.59 81.02 193.83 81.43 194.06 81.85"/><g class="cls-1"><text class="cls-2" transform="translate(168.92 97.62)">O</text></g><polygon points="167.72 90.81 152.31 81.84 152.31 81.29 152.79 81.01 168.2 89.98 167.96 90.39 167.72 90.81"/><polygon points="152.31 81.84 131.51 93.75 131.52 93.2 131.52 92.64 151.84 81.01 152.31 81.29 152.31 81.84"/><polygon points="149.68 80.03 131.77 90.29 131.53 89.88 131.29 89.46 149.21 79.2 149.44 79.62 149.68 80.03"/><polygon points="131.51 93.75 110.8 81.69 110.8 81.14 111.28 80.87 131.52 92.64 131.52 93.2 131.51 93.75"/><polygon points="110.8 81.69 90 93.61 90 93.05 90.01 92.5 110.32 80.86 110.8 81.14 110.8 81.69"/><polygon points="90 93.61 69.26 81.53 69.29 80.99 69.74 80.7 90.01 92.5 90 93.05 90 93.61"/><polygon points="89.78 90.14 71.76 79.66 72 79.25 72.25 78.83 90.26 89.32 90.02 89.73 89.78 90.14"/><polygon points="68.78 80.7 66.93 62.53 67.41 62.48 67.89 62.43 69.74 80.7 69.29 80.99 68.78 80.7"/><g class="cls-1"><text class="cls-2" transform="translate(63.35 61.43)">S</text></g><polygon points="62.29 56.65 43.68 52.63 43.45 52.08 43.2 51.54 62.49 55.71 62.39 56.18 62.29 56.65"/><polygon points="42.11 53.81 34.37 36.26 34.81 36.07 35.25 35.87 42.99 53.43 42.55 53.62 42.11 53.81"/><polygon points="44.74 52.65 37 35.1 37.44 34.91 37.88 34.71 45.62 52.27 45.18 52.46 44.74 52.65"/><g class="cls-1"><text class="cls-2" transform="translate(29.66 34.44)">O</text></g><polygon points="43.68 52.63 34.91 67.71 34.49 67.47 34.08 67.23 43.2 51.54 43.45 52.08 43.68 52.63"/><g class="cls-1"><text class="cls-2" transform="translate(27.57 77.08)">N</text></g><polygon points="26.66 73.76 7.59 75.7 7.54 75.22 7.5 74.74 26.57 72.81 26.61 73.28 26.66 73.76"/><polygon points="36.51 77.81 47.49 90.09 47.36 90.67 47.24 91.25 35.8 78.45 36.15 78.13 36.51 77.81"/><polygon points="49.46 90.05 45.32 109.17 44.85 109.06 44.39 108.96 48.52 89.85 48.99 89.95 49.46 90.05"/><polygon points="46.65 89.44 42.51 108.56 42.04 108.46 41.58 108.36 45.71 89.24 46.18 89.34 46.65 89.44"/><g class="cls-1"><text class="cls-2" transform="translate(38.19 118.37)">O</text></g><polygon points="47.49 90.09 68.78 80.7 69.29 80.99 69.26 81.53 47.24 91.25 47.36 90.67 47.49 90.09"/><polygon points="110.32 80.86 110.41 56.9 110.89 57.17 111.37 57.45 111.28 80.87 110.8 81.14 110.32 80.86"/><polygon points="113.2 79.49 113.28 58.84 113.76 58.84 114.24 58.85 114.16 79.49 113.69 79.49 113.2 79.49"/><polygon points="110.41 56.9 131.21 44.99 131.69 45.26 131.68 45.82 111.37 57.45 110.89 57.17 110.41 56.9"/><polygon points="131.21 44.99 131.27 26.63 131.75 26.63 132.23 26.63 132.17 44.99 131.69 45.26 131.21 44.99"/><g class="cls-1"><text class="cls-2" transform="translate(127.66 25.58)">O</text></g><polygon points="136.6 17.98 152.33 8.97 152.57 9.39 152.81 9.8 137.08 18.81 136.84 18.39 136.6 17.98"/><polygon points="132.17 44.99 152.4 56.77 152.4 57.32 151.92 57.6 131.68 45.82 131.69 45.26 132.17 44.99"/><polygon points="131.91 48.17 149.76 58.56 149.52 58.97 149.28 59.39 131.43 49 131.67 48.59 131.91 48.17"/><polygon points="152.4 56.77 167.89 47.9 168.13 48.31 168.37 48.73 152.88 57.6 152.4 57.32 152.4 56.77"/><g class="cls-1"><text class="cls-2" transform="translate(169.09 49.69)">O</text><text class="cls-2" transform="translate(177.31 49.69)">H</text></g><polygon points="152.88 57.6 152.79 81.01 152.31 81.29 151.84 81.01 151.92 57.6 152.4 57.32 152.88 57.6"/></svg>