<?xml version="1.0" encoding="UTF-8"?>
<svg id="_图层_1" data-name="图层 1" xmlns="http://www.w3.org/2000/svg" viewBox="0 0 200 130">
  <defs>
    <style>
      .cls-1 {
        stroke-width: 0px;
      }

      .cls-1, .cls-2, .cls-3 {
        fill: #000;
      }

      .cls-4, .cls-2, .cls-3 {
        isolation: isolate;
      }

      .cls-2 {
        font-size: 5.11px;
      }

      .cls-2, .cls-3 {
        font-family: ArialMT, Arial;
      }

      .cls-3 {
        font-size: 8.31px;
      }
    </style>
  </defs>
  <polygon class="cls-1" points="72.03 45.38 71.22 45.34 71.24 44.96 71.26 44.58 72.07 44.63 72.05 45 72.03 45.38"/>
  <polygon class="cls-1" points="72.31 43.14 71.18 43.08 71.2 42.7 71.22 42.32 72.35 42.39 72.33 42.76 72.31 43.14"/>
  <polygon class="cls-1" points="72.59 40.89 71.14 40.82 71.16 40.44 71.18 40.06 72.63 40.14 72.61 40.52 72.59 40.89"/>
  <polygon class="cls-1" points="72.86 38.65 71.11 38.56 71.13 38.18 71.15 37.8 72.91 37.9 72.89 38.28 72.86 38.65"/>
  <polygon class="cls-1" points="73.14 36.41 71.07 36.3 71.09 35.92 71.11 35.54 73.18 35.66 73.16 36.03 73.14 36.41"/>
  <polygon class="cls-1" points="73.42 34.17 71.04 34.04 71.06 33.66 71.08 33.28 73.46 33.41 73.44 33.79 73.42 34.17"/>
  <polygon class="cls-1" points="73.7 31.92 71 31.78 71.02 31.4 71.04 31.02 73.74 31.17 73.72 31.55 73.7 31.92"/>
  <polygon class="cls-1" points="73.98 29.68 70.96 29.52 70.98 29.14 71 28.76 74.02 28.93 74 29.3 73.98 29.68"/>
  <polygon class="cls-1" points="74.26 27.44 70.93 27.26 70.95 26.88 70.97 26.5 74.3 26.68 74.28 27.06 74.26 27.44"/>
  <polygon class="cls-1" points="71.83 45.09 87.42 55.25 87.4 55.69 87.2 56 71.6 45.84 71.62 45.4 71.83 45.09"/>
  <polygon class="cls-1" points="87.42 55.25 104.03 46.83 104.2 47.16 104.17 47.6 87.57 56.02 87.4 55.69 87.42 55.25"/>
  <polygon class="cls-1" points="104.4 46.85 119.99 57 119.98 57.45 119.59 57.64 104.17 47.6 104.2 47.16 104.4 46.85"/>
  <polygon class="cls-1" points="119.99 57 133.85 48.71 136.78 48.92 138.07 50.21 120.34 57.7 119.98 57.45 119.99 57"/>
  <polygon class="cls-1" points="136.98 48.61 152.95 59.01 152.56 59.21 152.17 59.4 138.07 50.21 136.78 48.92 136.98 48.61"/>
  <polygon class="cls-1" points="151.29 58.16 164.69 51.36 164.86 51.69 165.03 52.03 151.64 58.83 151.46 58.49 151.29 58.16"/>
  <polygon class="cls-1" points="152.32 60.17 165.71 53.37 165.88 53.71 166.05 54.05 152.66 60.84 152.49 60.51 152.32 60.17"/>
  <g class="cls-4">
    <text class="cls-3" transform="translate(166.12 54.04)"><tspan x="0" y="0">O</tspan></text>
  </g>
  <polygon class="cls-1" points="152.95 59.01 151.93 77.82 151.54 78.01 151.18 77.78 152.17 59.4 152.56 59.21 152.95 59.01"/>
  <polygon class="cls-1" points="151.52 78.45 135.11 86.78 134.75 86.54 134.77 86.11 151.18 77.78 151.54 78.01 151.52 78.45"/>
  <polygon class="cls-1" points="149.53 76.93 135.06 84.27 134.89 83.93 134.72 83.6 149.19 76.25 149.36 76.59 149.53 76.93"/>
  <polygon class="cls-1" points="134.36 86.74 118.76 76.57 118.96 76.26 119.35 76.06 134.77 86.11 134.75 86.54 134.36 86.74"/>
  <polygon class="cls-1" points="119.13 76.59 102.14 85.22 102.17 84.78 102.19 84.35 118.6 76.02 118.96 76.26 119.13 76.59"/>
  <polygon class="cls-1" points="103.71 84.21 102.88 99.48 102.51 99.46 102.13 99.44 102.95 84.17 103.33 84.19 103.71 84.21"/>
  <polygon class="cls-1" points="101.45 84.09 100.63 99.36 100.25 99.34 99.87 99.32 100.7 84.05 101.07 84.07 101.45 84.09"/>
  <g class="cls-4">
    <text class="cls-3" transform="translate(97.92 106.95)"><tspan x="0" y="0">O</tspan></text>
  </g>
  <polygon class="cls-1" points="102.14 85.22 86.36 74.93 86.39 74.5 87.14 74.54 102.19 84.35 102.17 84.78 102.14 85.22"/>
  <polygon class="cls-1" points="86.36 74.93 69.95 83.26 69.59 83.02 69.61 82.59 85.63 74.46 86.39 74.5 86.36 74.93"/>
  <polygon class="cls-1" points="84.37 73.41 69.9 80.75 69.73 80.42 69.56 80.08 84.03 72.74 84.2 73.07 84.37 73.41"/>
  <polygon class="cls-1" points="69.2 83.22 53.78 73.17 53.81 72.74 54.19 72.54 69.61 82.59 69.59 83.02 69.2 83.22"/>
  <polygon class="cls-1" points="53.44 72.5 54.43 54.13 54.82 53.93 55.19 54.17 54.19 72.54 53.81 72.74 53.44 72.5"/>
  <polygon class="cls-1" points="55.76 71.54 56.63 55.33 57.01 55.35 57.39 55.37 56.51 71.58 56.13 71.56 55.76 71.54"/>
  <polygon class="cls-1" points="54.43 54.13 39.02 44.08 39.04 43.65 39.06 43.21 54.85 53.5 54.82 53.93 54.43 54.13"/>
  <polygon class="cls-1" points="39.07 46.59 24.6 53.93 24.43 53.6 24.26 53.26 38.73 45.92 38.9 46.25 39.07 46.59"/>
  <polygon class="cls-1" points="39.02 44.08 22.61 52.41 22.24 52.17 21.88 51.93 39.06 43.21 39.04 43.65 39.02 44.08"/>
  <polygon class="cls-1" points="22.61 52.41 21.62 70.78 21.23 70.98 20.84 71.18 21.88 51.93 22.24 52.17 22.61 52.41"/>
  <polygon class="cls-1" points="23.76 69.48 37.36 78.34 37.15 78.66 36.94 78.97 23.35 70.11 23.56 69.8 23.76 69.48"/>
  <polygon class="cls-1" points="21.62 70.78 37.03 80.83 37.01 81.26 36.62 81.46 20.84 71.18 21.23 70.98 21.62 70.78"/>
  <polygon class="cls-1" points="37.37 81.5 36.6 95.9 36.22 95.88 35.84 95.86 36.62 81.46 37.01 81.26 37.37 81.5"/>
  <g class="cls-4">
    <text class="cls-3" transform="translate(26.77 103.44)"><tspan x="0" y="0">H</tspan></text>
    <text class="cls-3" transform="translate(32.76 103.44)"><tspan x="0" y="0">O</tspan></text>
  </g>
  <polygon class="cls-1" points="37.03 80.83 53.44 72.5 53.81 72.74 53.78 73.17 37.37 81.5 37.01 81.26 37.03 80.83"/>
  <polygon class="cls-1" points="54.85 53.5 71.45 45.07 71.62 45.4 71.6 45.84 55.19 54.17 54.82 53.93 54.85 53.5"/>
  <polygon class="cls-1" points="69.95 83.26 69.18 97.66 68.8 97.64 68.42 97.62 69.2 83.22 69.59 83.02 69.95 83.26"/>
  <g class="cls-4">
    <text class="cls-3" transform="translate(59.34 105.2)"><tspan x="0" y="0">H</tspan></text>
    <text class="cls-3" transform="translate(65.34 105.2)"><tspan x="0" y="0">O</tspan></text>
  </g>
  <polygon class="cls-1" points="86.99 55.71 87.8 55.76 87.78 56.13 87.76 56.51 86.95 56.46 86.97 56.09 86.99 55.71"/>
  <polygon class="cls-1" points="86.71 57.95 87.84 58.02 87.82 58.39 87.8 58.77 86.67 58.71 86.69 58.33 86.71 57.95"/>
  <polygon class="cls-1" points="86.43 60.2 87.88 60.28 87.86 60.65 87.84 61.03 86.39 60.95 86.41 60.57 86.43 60.2"/>
  <polygon class="cls-1" points="86.16 62.44 87.91 62.54 87.89 62.91 87.87 63.29 86.11 63.19 86.14 62.82 86.16 62.44"/>
  <polygon class="cls-1" points="85.88 64.68 87.95 64.8 87.93 65.17 87.91 65.55 85.84 65.44 85.86 65.06 85.88 64.68"/>
  <polygon class="cls-1" points="85.6 66.93 87.98 67.06 87.96 67.43 87.94 67.81 85.56 67.68 85.58 67.3 85.6 66.93"/>
  <polygon class="cls-1" points="85.32 69.17 88.02 69.32 88 69.69 87.98 70.07 85.28 69.92 85.3 69.55 85.32 69.17"/>
  <polygon class="cls-1" points="85.04 71.41 88.06 71.58 88.04 71.95 88.02 72.33 85 72.17 85.02 71.79 85.04 71.41"/>
  <polygon class="cls-1" points="84.76 73.66 88.09 73.84 88.07 74.21 88.05 74.59 84.72 74.41 84.74 74.03 84.76 73.66"/>
  <polygon class="cls-1" points="118.55 76.29 119.38 76.34 119.36 76.71 119.34 77.09 118.51 77.04 118.53 76.67 118.55 76.29"/>
  <polygon class="cls-1" points="118.21 78.58 119.46 78.65 119.44 79.03 119.42 79.4 118.17 79.33 118.19 78.96 118.21 78.58"/>
  <polygon class="cls-1" points="117.88 80.87 119.54 80.96 119.52 81.34 119.5 81.71 117.84 81.62 117.86 81.25 117.88 80.87"/>
  <polygon class="cls-1" points="117.55 83.16 119.63 83.28 119.61 83.65 119.58 84.03 117.51 83.92 117.53 83.54 117.55 83.16"/>
  <polygon class="cls-1" points="117.22 85.45 119.71 85.59 119.69 85.96 119.67 86.34 117.18 86.21 117.2 85.83 117.22 85.45"/>
  <polygon class="cls-1" points="116.89 87.74 119.79 87.9 119.77 88.28 119.75 88.65 116.85 88.5 116.87 88.12 116.89 87.74"/>
  <polygon class="cls-1" points="116.56 90.04 119.87 90.21 119.85 90.59 119.83 90.97 116.52 90.79 116.54 90.41 116.56 90.04"/>
  <g class="cls-4">
    <text class="cls-3" transform="translate(108.72 98.43)"><tspan x="0" y="0">H</tspan></text>
    <text class="cls-3" transform="translate(114.72 98.43)"><tspan x="0" y="0">O</tspan></text>
  </g>
  <polygon class="cls-1" points="118.6 76.02 119.59 57.64 119.98 57.45 120.34 57.7 119.35 76.06 118.96 76.26 118.6 76.02"/>
  <polygon class="cls-1" points="135.11 86.78 134.33 101.18 133.96 101.16 133.58 101.14 134.36 86.74 134.75 86.54 135.11 86.78"/>
  <g class="cls-4">
    <text class="cls-3" transform="translate(124.5 108.71)"><tspan x="0" y="0">H</tspan></text>
    <text class="cls-3" transform="translate(130.5 108.71)"><tspan x="0" y="0">O</tspan></text>
  </g>
  <polygon class="cls-1" points="151.93 77.82 167.35 87.86 167.32 88.3 167.3 88.73 151.52 78.45 151.54 78.01 151.93 77.82"/>
  <polygon class="cls-1" points="168.86 87.73 168.04 103 167.66 102.98 167.29 102.96 168.11 87.69 168.49 87.71 168.86 87.73"/>
  <polygon class="cls-1" points="166.61 87.61 165.78 102.88 165.41 102.86 165.03 102.84 165.85 87.57 166.23 87.59 166.61 87.61"/>
  <g class="cls-4">
    <text class="cls-3" transform="translate(163.08 110.47)"><tspan x="0" y="0">O</tspan></text>
  </g>
  <polygon class="cls-1" points="167.35 87.86 180.2 81.34 180.37 81.68 180.54 82.01 167.3 88.73 167.32 88.3 167.35 87.86"/>
  <g class="cls-4">
    <text class="cls-3" transform="translate(181.12 82.07)"><tspan x="0" y="0">N</tspan></text>
    <text class="cls-3" transform="translate(187.12 82.07)"><tspan x="0" y="0">H</tspan></text>
    <text class="cls-2" transform="translate(193.12 83.35)"><tspan x="0" y="0">2</tspan></text>
  </g>
  <polygon class="cls-1" points="137.19 48.89 136.36 48.84 136.38 48.47 136.4 48.09 137.24 48.13 137.22 48.51 137.19 48.89"/>
  <polygon class="cls-1" points="137.53 46.6 136.28 46.53 136.3 46.15 136.32 45.78 137.57 45.84 137.55 46.22 137.53 46.6"/>
  <polygon class="cls-1" points="137.86 44.31 136.2 44.22 136.22 43.84 136.24 43.46 137.9 43.55 137.88 43.93 137.86 44.31"/>
  <polygon class="cls-1" points="138.19 42.01 136.12 41.9 136.14 41.53 136.16 41.15 138.23 41.26 138.21 41.64 138.19 42.01"/>
  <polygon class="cls-1" points="138.52 39.72 136.03 39.59 136.05 39.21 136.07 38.84 138.56 38.97 138.54 39.35 138.52 39.72"/>
  <polygon class="cls-1" points="138.85 37.43 135.95 37.28 135.97 36.9 135.99 36.52 138.89 36.68 138.87 37.06 138.85 37.43"/>
  <polygon class="cls-1" points="139.18 35.14 135.87 34.96 135.89 34.59 135.91 34.21 139.22 34.39 139.2 34.77 139.18 35.14"/>
  <g class="cls-4">
    <text class="cls-3" transform="translate(134.79 33.48)"><tspan x="0" y="0">N</tspan></text>
  </g>
  <polygon class="cls-1" points="141.37 27.87 154.42 21.25 154.59 21.59 154.76 21.92 141.71 28.54 141.54 28.21 141.37 27.87"/>
  <polygon class="cls-1" points="133.83 27.98 121.8 20.14 122.01 19.83 122.22 19.51 134.25 27.35 134.04 27.67 133.83 27.98"/>
  <polygon class="cls-1" points="104.62 47.13 103.79 47.08 103.81 46.71 103.83 46.33 104.66 46.38 104.64 46.75 104.62 47.13"/>
  <polygon class="cls-1" points="104.95 44.84 103.7 44.77 103.72 44.39 103.74 44.02 104.99 44.08 104.97 44.46 104.95 44.84"/>
  <polygon class="cls-1" points="105.28 42.55 103.62 42.46 103.64 42.08 103.66 41.7 105.32 41.79 105.3 42.17 105.28 42.55"/>
  <polygon class="cls-1" points="105.61 40.26 103.54 40.14 103.56 39.77 103.58 39.39 105.65 39.5 105.63 39.88 105.61 40.26"/>
  <polygon class="cls-1" points="105.94 37.97 103.45 37.83 103.47 37.45 103.49 37.08 105.98 37.21 105.96 37.59 105.94 37.97"/>
  <polygon class="cls-1" points="106.27 35.67 103.37 35.52 103.39 35.14 103.41 34.77 106.31 34.92 106.29 35.3 106.27 35.67"/>
  <polygon class="cls-1" points="106.61 33.38 103.29 33.2 103.31 32.83 103.33 32.45 106.65 32.63 106.63 33.01 106.61 33.38"/>
  <g class="cls-4">
    <text class="cls-3" transform="translate(101.98 31.72)"><tspan x="0" y="0">O</tspan></text>
    <text class="cls-3" transform="translate(108.44 31.72)"><tspan x="0" y="0">H</tspan></text>
  </g>
</svg>