<?xml version="1.0" encoding="UTF-8"?>
<svg id="_图层_1" data-name="图层 1" xmlns="http://www.w3.org/2000/svg" viewBox="0 0 200 130">
  <defs>
    <style>
      .cls-1 {
        stroke-width: 0px;
      }

      .cls-1, .cls-2, .cls-3 {
        fill: #000;
      }

      .cls-4, .cls-2, .cls-3 {
        isolation: isolate;
      }

      .cls-2 {
        font-size: 7.99px;
      }

      .cls-2, .cls-3 {
        font-family: ArialMT, Arial;
      }

      .cls-3 {
        font-size: 4.92px;
      }
    </style>
  </defs>
  <polygon class="cls-1" points="68.57 52.07 67.79 52.07 67.79 51.71 67.79 51.35 68.57 51.35 68.57 51.71 68.57 52.07"/>
  <polygon class="cls-1" points="68.73 49.9 67.64 49.9 67.64 49.54 67.64 49.18 68.73 49.18 68.73 49.54 68.73 49.9"/>
  <polygon class="cls-1" points="68.88 47.73 67.49 47.73 67.49 47.37 67.49 47.01 68.88 47.01 68.88 47.37 68.88 47.73"/>
  <polygon class="cls-1" points="69.04 45.56 67.34 45.56 67.34 45.2 67.34 44.84 69.04 44.84 69.04 45.2 69.04 45.56"/>
  <polygon class="cls-1" points="69.19 43.39 67.2 43.39 67.2 43.03 67.2 42.66 69.19 42.67 69.19 43.03 69.19 43.39"/>
  <polygon class="cls-1" points="69.35 41.22 67.05 41.22 67.05 40.86 67.05 40.49 69.35 40.5 69.35 40.86 69.35 41.22"/>
  <polygon class="cls-1" points="69.5 39.05 66.9 39.05 66.9 38.69 66.9 38.32 69.5 38.33 69.5 38.69 69.5 39.05"/>
  <polygon class="cls-1" points="69.66 36.88 66.75 36.88 66.75 36.52 66.75 36.15 69.66 36.16 69.66 36.52 69.66 36.88"/>
  <polygon class="cls-1" points="69.81 34.71 66.6 34.71 66.6 34.35 66.6 33.98 69.82 33.99 69.82 34.35 69.81 34.71"/>
  <polygon class="cls-1" points="68.36 51.8 83.87 60.79 83.87 61.21 83.49 61.41 68.18 52.53 68.18 52.12 68.36 51.8"/>
  <polygon class="cls-1" points="83.87 60.79 99.4 51.85 99.58 52.17 99.58 52.59 84.24 61.41 83.87 61.21 83.87 60.79"/>
  <polygon class="cls-1" points="99.76 51.85 115.25 60.83 115.27 61.26 114.9 61.47 99.58 52.59 99.58 52.17 99.76 51.85"/>
  <polygon class="cls-1" points="115.25 60.83 128.15 52.16 130.98 52.22 132.29 53.39 115.63 61.48 115.27 61.26 115.25 60.83"/>
  <polygon class="cls-1" points="131.16 51.9 147.03 61.1 146.67 61.31 146.31 61.52 132.29 53.39 130.98 52.22 131.16 51.9"/>
  <polygon class="cls-1" points="145.4 60.36 157.83 53.22 158.01 53.53 158.19 53.85 145.76 60.99 145.58 60.68 145.4 60.36"/>
  <polygon class="cls-1" points="146.49 62.25 158.91 55.1 159.09 55.42 159.27 55.73 146.85 62.88 146.67 62.56 146.49 62.25"/>
  <g class="cls-4">
    <text class="cls-2" transform="translate(159.27 55.51)"><tspan x="0" y="0">O</tspan></text>
  </g>
  <polygon class="cls-1" points="147.03 61.1 147 79.23 146.64 79.44 146.28 79.23 146.31 61.52 146.67 61.31 147.03 61.1"/>
  <polygon class="cls-1" points="146.64 79.86 131.29 88.69 130.92 88.48 130.92 88.06 146.28 79.23 146.64 79.44 146.64 79.86"/>
  <polygon class="cls-1" points="144.65 78.49 131.11 86.28 130.93 85.96 130.75 85.65 144.28 77.86 144.47 78.18 144.65 78.49"/>
  <polygon class="cls-1" points="130.56 88.69 115.06 79.7 115.24 79.39 115.6 79.18 130.92 88.06 130.92 88.48 130.56 88.69"/>
  <polygon class="cls-1" points="115.42 79.7 99.52 88.84 99.52 88.43 99.52 88.01 114.88 79.18 115.24 79.39 115.42 79.7"/>
  <polygon class="cls-1" points="100.97 87.8 100.95 102.53 100.59 102.52 100.22 102.52 100.25 87.8 100.61 87.8 100.97 87.8"/>
  <polygon class="cls-1" points="98.8 87.8 98.77 102.52 98.41 102.52 98.05 102.52 98.07 87.8 98.44 87.8 98.8 87.8"/>
  <g class="cls-4">
    <text class="cls-2" transform="translate(96.38 109.79)"><tspan x="0" y="0">O</tspan></text>
  </g>
  <polygon class="cls-1" points="99.52 88.84 83.84 79.75 83.84 79.34 85.51 79.88 99.52 88.01 99.52 88.43 99.52 88.84"/>
  <polygon class="cls-1" points="83.84 79.75 68.48 88.58 68.12 88.37 68.12 87.96 82.17 79.88 83.84 79.34 83.84 79.75"/>
  <polygon class="cls-1" points="81.84 78.39 68.31 86.18 68.13 85.86 67.94 85.55 81.48 77.76 81.66 78.08 81.84 78.39"/>
  <polygon class="cls-1" points="67.76 88.58 52.43 79.7 52.44 79.28 52.8 79.08 68.12 87.96 68.12 88.37 67.76 88.58"/>
  <polygon class="cls-1" points="52.07 79.07 52.1 61.36 52.46 61.15 52.83 61.36 52.8 79.08 52.44 79.28 52.07 79.07"/>
  <polygon class="cls-1" points="54.25 78.03 54.28 62.41 54.64 62.41 55 62.42 54.98 78.03 54.61 78.03 54.25 78.03"/>
  <polygon class="cls-1" points="52.1 61.36 36.78 52.48 36.78 52.06 36.78 51.65 52.47 60.74 52.46 61.15 52.1 61.36"/>
  <polygon class="cls-1" points="36.96 54.89 23.42 62.68 23.24 62.36 23.06 62.05 36.59 54.26 36.77 54.58 36.96 54.89"/>
  <polygon class="cls-1" points="36.78 52.48 21.43 61.31 21.06 61.1 20.7 60.89 36.78 51.65 36.78 52.06 36.78 52.48"/>
  <polygon class="cls-1" points="21.43 61.31 21.4 79.02 21.03 79.23 20.67 79.44 20.7 60.89 21.06 61.1 21.43 61.31"/>
  <polygon class="cls-1" points="23.39 77.67 36.91 85.5 36.72 85.81 36.54 86.13 23.03 78.29 23.21 77.98 23.39 77.67"/>
  <polygon class="cls-1" points="21.4 79.02 36.72 87.91 36.72 88.32 36.36 88.53 20.67 79.44 21.03 79.23 21.4 79.02"/>
  <polygon class="cls-1" points="37.08 88.53 37.06 102.42 36.7 102.42 36.33 102.42 36.36 88.53 36.72 88.32 37.08 88.53"/>
  <g class="cls-4">
    <text class="cls-2" transform="translate(33.58 109.69)"><tspan x="0" y="0">O</tspan></text>
    <text class="cls-2" transform="translate(39.8 109.69)"><tspan x="0" y="0">H</tspan></text>
  </g>
  <polygon class="cls-1" points="36.72 87.91 52.07 79.07 52.44 79.28 52.43 79.7 37.08 88.53 36.72 88.32 36.72 87.91"/>
  <polygon class="cls-1" points="52.47 60.74 68 51.8 68.18 52.12 68.18 52.53 52.83 61.36 52.46 61.15 52.47 60.74"/>
  <polygon class="cls-1" points="68.48 88.58 68.46 102.47 68.1 102.47 67.74 102.47 67.76 88.58 68.12 88.37 68.48 88.58"/>
  <g class="cls-4">
    <text class="cls-2" transform="translate(64.98 109.74)"><tspan x="0" y="0">O</tspan></text>
    <text class="cls-2" transform="translate(71.2 109.74)"><tspan x="0" y="0">H</tspan></text>
  </g>
  <polygon class="cls-1" points="84.24 61.41 85.51 79.88 83.84 79.34 82.17 79.88 83.49 61.41 83.87 61.21 84.24 61.41"/>
  <polygon class="cls-1" points="114.84 79.44 115.64 79.44 115.64 79.81 115.64 80.17 114.84 80.17 114.84 79.8 114.84 79.44"/>
  <polygon class="cls-1" points="114.63 81.66 115.83 81.66 115.83 82.03 115.83 82.39 114.63 82.39 114.63 82.02 114.63 81.66"/>
  <polygon class="cls-1" points="114.43 83.88 116.03 83.88 116.03 84.25 116.03 84.61 114.43 84.61 114.43 84.24 114.43 83.88"/>
  <polygon class="cls-1" points="114.23 86.1 116.23 86.1 116.23 86.47 116.23 86.83 114.23 86.82 114.23 86.46 114.23 86.1"/>
  <polygon class="cls-1" points="114.02 88.32 116.42 88.32 116.42 88.69 116.42 89.05 114.02 89.04 114.02 88.68 114.02 88.32"/>
  <polygon class="cls-1" points="113.82 90.54 116.62 90.54 116.62 90.91 116.62 91.27 113.82 91.26 113.82 90.9 113.82 90.54"/>
  <polygon class="cls-1" points="113.62 92.76 116.81 92.76 116.81 93.13 116.81 93.49 113.62 93.48 113.62 93.12 113.62 92.76"/>
  <g class="cls-4">
    <text class="cls-2" transform="translate(112.1 100.75)"><tspan x="0" y="0">O</tspan></text>
    <text class="cls-2" transform="translate(118.32 100.75)"><tspan x="0" y="0">H</tspan></text>
  </g>
  <polygon class="cls-1" points="114.88 79.18 114.9 61.47 115.27 61.26 115.63 61.48 115.6 79.18 115.24 79.39 114.88 79.18"/>
  <polygon class="cls-1" points="131.29 88.69 131.26 102.57 130.9 102.57 130.54 102.57 130.56 88.69 130.92 88.48 131.29 88.69"/>
  <g class="cls-4">
    <text class="cls-2" transform="translate(127.78 109.84)"><tspan x="0" y="0">O</tspan></text>
    <text class="cls-2" transform="translate(134 109.84)"><tspan x="0" y="0">H</tspan></text>
  </g>
  <polygon class="cls-1" points="147 79.23 162.33 88.11 162.32 88.53 162.32 88.95 146.64 79.86 146.64 79.44 147 79.23"/>
  <polygon class="cls-1" points="163.78 87.9 163.75 102.63 163.39 102.63 163.03 102.63 163.05 87.9 163.41 87.9 163.78 87.9"/>
  <polygon class="cls-1" points="161.6 87.9 161.58 102.62 161.21 102.62 160.85 102.62 160.88 87.9 161.24 87.9 161.6 87.9"/>
  <g class="cls-4">
    <text class="cls-2" transform="translate(159.19 109.9)"><tspan x="0" y="0">O</tspan></text>
  </g>
  <polygon class="cls-1" points="162.33 88.11 174.25 81.25 174.43 81.57 174.61 81.88 162.32 88.95 162.32 88.53 162.33 88.11"/>
  <g class="cls-4">
    <text class="cls-2" transform="translate(175.15 81.7)"><tspan x="0" y="0">N</tspan></text>
    <text class="cls-2" transform="translate(180.93 81.7)"><tspan x="0" y="0">H</tspan></text>
    <text class="cls-3" transform="translate(186.7 82.93)"><tspan x="0" y="0">2</tspan></text>
  </g>
  <polygon class="cls-1" points="131.38 52.16 130.58 52.16 130.58 51.8 130.58 51.44 131.38 51.44 131.38 51.8 131.38 52.16"/>
  <polygon class="cls-1" points="131.59 49.94 130.39 49.94 130.39 49.58 130.39 49.22 131.59 49.22 131.59 49.58 131.59 49.94"/>
  <polygon class="cls-1" points="131.79 47.72 130.19 47.72 130.19 47.36 130.19 47 131.79 47 131.79 47.36 131.79 47.72"/>
  <polygon class="cls-1" points="131.99 45.51 129.99 45.5 129.99 45.14 129.99 44.78 131.99 44.78 131.99 45.14 131.99 45.51"/>
  <polygon class="cls-1" points="132.2 43.29 129.8 43.28 129.8 42.92 129.8 42.56 132.2 42.56 132.2 42.92 132.2 43.29"/>
  <polygon class="cls-1" points="132.4 41.07 129.6 41.06 129.6 40.7 129.6 40.34 132.4 40.34 132.4 40.7 132.4 41.07"/>
  <polygon class="cls-1" points="132.6 38.85 129.41 38.84 129.41 38.48 129.41 38.12 132.6 38.12 132.6 38.48 132.6 38.85"/>
  <g class="cls-4">
    <text class="cls-2" transform="translate(128.13 37.33)"><tspan x="0" y="0">N</tspan></text>
  </g>
  <polygon class="cls-1" points="134.44 31.7 146.55 24.73 146.73 25.05 146.91 25.36 134.8 32.33 134.62 32.01 134.44 31.7"/>
  <polygon class="cls-1" points="127.22 32.31 115.14 25.31 115.33 25 115.51 24.68 127.58 31.68 127.4 32 127.22 32.31"/>
  <polygon class="cls-1" points="99.98 52.11 99.18 52.11 99.18 51.75 99.18 51.39 99.98 51.39 99.98 51.75 99.98 52.11"/>
  <polygon class="cls-1" points="100.18 49.89 98.98 49.89 98.99 49.53 98.99 49.17 100.19 49.17 100.19 49.53 100.18 49.89"/>
  <polygon class="cls-1" points="100.39 47.67 98.79 47.67 98.79 47.31 98.79 46.95 100.39 46.95 100.39 47.31 100.39 47.67"/>
  <polygon class="cls-1" points="100.59 45.45 98.59 45.45 98.59 45.09 98.59 44.73 100.59 44.73 100.59 45.09 100.59 45.45"/>
  <polygon class="cls-1" points="100.8 43.23 98.4 43.23 98.4 42.87 98.4 42.51 100.8 42.51 100.8 42.87 100.8 43.23"/>
  <polygon class="cls-1" points="101 41.02 98.2 41.01 98.2 40.65 98.2 40.29 101 40.29 101 40.65 101 41.02"/>
  <polygon class="cls-1" points="101.2 38.8 98 38.79 98 38.43 98 38.07 101.2 38.07 101.2 38.43 101.2 38.8"/>
  <g class="cls-4">
    <text class="cls-2" transform="translate(96.5 37.28)"><tspan x="0" y="0">O</tspan></text>
    <text class="cls-2" transform="translate(102.72 37.28)"><tspan x="0" y="0">H</tspan></text>
  </g>
</svg>