<?xml version="1.0" encoding="UTF-8"?>
<svg id="_图层_1" data-name="图层 1" xmlns="http://www.w3.org/2000/svg" viewBox="0 0 200 130">
  <defs>
    <style>
      .cls-1 {
        stroke-width: 0px;
      }

      .cls-1, .cls-2, .cls-3 {
        fill: #000;
      }

      .cls-4, .cls-2, .cls-3 {
        isolation: isolate;
      }

      .cls-2 {
        font-size: 7.53px;
      }

      .cls-2, .cls-3 {
        font-family: ArialMT, Arial;
      }

      .cls-3 {
        font-size: 4.63px;
      }
    </style>
  </defs>
  <polygon class="cls-1" points="72.93 49.14 72.2 49.13 72.2 48.79 72.21 48.45 72.94 48.46 72.94 48.8 72.93 49.14"/>
  <polygon class="cls-1" points="73.09 47.33 72.1 47.31 72.1 46.97 72.11 46.63 73.1 46.65 73.09 46.99 73.09 47.33"/>
  <polygon class="cls-1" points="73.24 45.51 72 45.5 72 45.15 72.01 44.81 73.25 44.83 73.25 45.17 73.24 45.51"/>
  <polygon class="cls-1" points="73.4 43.7 71.9 43.68 71.9 43.34 71.91 43 73.41 43.02 73.4 43.36 73.4 43.7"/>
  <polygon class="cls-1" points="73.55 41.89 71.8 41.86 71.8 41.52 71.81 41.18 73.56 41.2 73.56 41.54 73.55 41.89"/>
  <polygon class="cls-1" points="73.7 40.07 71.7 40.04 71.7 39.7 71.71 39.36 73.71 39.39 73.71 39.73 73.7 40.07"/>
  <polygon class="cls-1" points="73.86 38.26 71.6 38.22 71.6 37.88 71.61 37.54 73.87 37.57 73.86 37.92 73.86 38.26"/>
  <polygon class="cls-1" points="74.01 36.44 71.5 36.4 71.5 36.06 71.51 35.72 74.02 35.76 74.02 36.1 74.01 36.44"/>
  <polygon class="cls-1" points="74.17 34.63 71.4 34.59 71.4 34.25 71.41 33.9 74.18 33.95 74.17 34.29 74.17 34.63"/>
  <polygon class="cls-1" points="74.32 32.81 71.3 32.77 71.3 32.43 71.31 32.09 74.33 32.13 74.33 32.47 74.32 32.81"/>
  <polygon class="cls-1" points="72.74 48.89 87.23 57.54 87.22 57.93 86.86 58.12 72.56 49.57 72.56 49.18 72.74 48.89"/>
  <polygon class="cls-1" points="87.23 57.54 101.96 49.32 102.13 49.62 102.13 50.01 87.57 58.13 87.22 57.93 87.23 57.54"/>
  <polygon class="cls-1" points="102.31 49.33 116.78 57.97 116.79 58.37 116.44 58.57 102.13 50.01 102.13 49.62 102.31 49.33"/>
  <polygon class="cls-1" points="116.78 57.97 129.04 49.97 131.7 50.06 132.91 51.18 117.13 58.59 116.79 58.37 116.78 57.97"/>
  <polygon class="cls-1" points="131.87 49.77 146.7 58.62 146.35 58.81 146.01 59.01 132.91 51.18 131.7 50.06 131.87 49.77"/>
  <polygon class="cls-1" points="145.17 57.91 156.99 51.32 157.15 51.62 157.32 51.92 145.5 58.51 145.34 58.21 145.17 57.91"/>
  <polygon class="cls-1" points="146.17 59.7 157.99 53.11 158.15 53.41 158.32 53.71 146.5 60.3 146.34 60 146.17 59.7"/>
  <g class="cls-4">
    <text class="cls-2" transform="translate(158.34 53.55)"><tspan x="0" y="0">O</tspan></text>
  </g>
  <polygon class="cls-1" points="146.7 58.62 146.44 75.69 146.1 75.89 145.76 75.68 146.01 59.01 146.35 58.81 146.7 58.62"/>
  <polygon class="cls-1" points="146.09 76.28 131.53 84.4 131.19 84.2 131.2 83.81 145.76 75.68 146.1 75.89 146.09 76.28"/>
  <polygon class="cls-1" points="144.24 74.97 131.39 82.13 131.22 81.83 131.06 81.54 143.9 74.37 144.07 74.67 144.24 74.97"/>
  <polygon class="cls-1" points="130.84 84.39 116.92 76.07 116.53 75.44 116.88 75.25 131.2 83.81 131.19 84.2 130.84 84.39"/>
  <polygon class="cls-1" points="116.13 76.06 101.62 84.15 101.62 83.76 101.63 83.37 116.19 75.24 116.53 75.44 116.13 76.06"/>
  <polygon class="cls-1" points="103 83.19 102.79 97.05 102.45 97.05 102.11 97.04 102.31 83.18 102.66 83.18 103 83.19"/>
  <polygon class="cls-1" points="100.95 83.16 100.74 97.02 100.4 97.02 100.06 97.01 100.27 83.15 100.61 83.15 100.95 83.16"/>
  <g class="cls-4">
    <text class="cls-2" transform="translate(98.44 103.88)"><tspan x="0" y="0">O</tspan></text>
  </g>
  <polygon class="cls-1" points="101.62 84.15 86.96 75.4 86.97 75 88.53 75.54 101.63 83.37 101.62 83.76 101.62 84.15"/>
  <polygon class="cls-1" points="86.96 75.4 72.39 83.52 72.06 83.32 72.06 82.93 85.39 75.49 86.97 75 86.96 75.4"/>
  <polygon class="cls-1" points="85.1 74.09 72.26 81.25 72.09 80.95 71.93 80.66 84.77 73.49 84.94 73.79 85.1 74.09"/>
  <polygon class="cls-1" points="71.71 83.51 57.39 74.96 57.4 74.56 57.74 74.37 72.06 82.93 72.06 83.32 71.71 83.51"/>
  <polygon class="cls-1" points="57.06 74.36 57.31 57.69 57.65 57.49 57.99 57.7 57.74 74.37 57.4 74.56 57.06 74.36"/>
  <polygon class="cls-1" points="59.12 73.41 59.34 58.7 59.68 58.71 60.03 58.71 59.81 73.42 59.47 73.41 59.12 73.41"/>
  <polygon class="cls-1" points="57.31 57.69 42.99 49.13 43 48.74 43 48.34 57.66 57.1 57.65 57.49 57.31 57.69"/>
  <polygon class="cls-1" points="43.13 51.4 30.28 58.57 30.12 58.27 29.95 57.97 42.8 50.81 42.96 51.1 43.13 51.4"/>
  <polygon class="cls-1" points="42.99 49.13 28.43 57.26 28.09 57.05 27.75 56.85 43 48.34 43 48.74 42.99 49.13"/>
  <polygon class="cls-1" points="28.43 57.26 28.18 73.93 27.83 74.12 27.49 74.32 27.75 56.85 28.09 57.05 28.43 57.26"/>
  <polygon class="cls-1" points="30.07 72.68 42.7 80.22 42.52 80.51 42.35 80.81 29.72 73.27 29.9 72.97 30.07 72.68"/>
  <polygon class="cls-1" points="28.18 73.93 42.5 82.49 42.49 82.88 42.15 83.07 27.49 74.32 27.83 74.12 28.18 73.93"/>
  <polygon class="cls-1" points="42.83 83.08 42.63 96.16 42.29 96.15 41.95 96.15 42.15 83.07 42.49 82.88 42.83 83.08"/>
  <g class="cls-4">
    <text class="cls-2" transform="translate(39.31 103)"><tspan x="0" y="0">O</tspan></text>
    <text class="cls-2" transform="translate(45.16 103)"><tspan x="0" y="0">H</tspan></text>
  </g>
  <polygon class="cls-1" points="42.5 82.49 57.06 74.36 57.4 74.56 57.39 74.96 42.83 83.08 42.49 82.88 42.5 82.49"/>
  <polygon class="cls-1" points="57.66 57.1 72.4 48.88 72.56 49.18 72.56 49.57 57.99 57.7 57.65 57.49 57.66 57.1"/>
  <polygon class="cls-1" points="72.39 83.52 72.2 96.6 71.86 96.59 71.52 96.59 71.71 83.51 72.06 83.32 72.39 83.52"/>
  <g class="cls-4">
    <text class="cls-2" transform="translate(68.87 103.44)"><tspan x="0" y="0">O</tspan></text>
    <text class="cls-2" transform="translate(74.73 103.44)"><tspan x="0" y="0">H</tspan></text>
  </g>
  <polygon class="cls-1" points="87.57 58.13 88.53 75.54 86.97 75 85.39 75.49 86.86 58.12 87.22 57.93 87.57 58.13"/>
  <polygon class="cls-1" points="116.92 76.07 117.87 88.74 116.34 88.72 114.8 88.7 116.13 76.06 116.53 75.44 116.92 76.07"/>
  <g class="cls-4">
    <text class="cls-2" transform="translate(113.35 95.56)"><tspan x="0" y="0">O</tspan></text>
    <text class="cls-2" transform="translate(119.21 95.56)"><tspan x="0" y="0">H</tspan></text>
  </g>
  <polygon class="cls-1" points="116.19 75.24 116.44 58.57 116.79 58.37 117.13 58.59 116.88 75.25 116.53 75.44 116.19 75.24"/>
  <polygon class="cls-1" points="131.53 84.4 131.33 97.48 130.99 97.47 130.65 97.47 130.84 84.39 131.19 84.2 131.53 84.4"/>
  <g class="cls-4">
    <text class="cls-2" transform="translate(128.01 104.32)"><tspan x="0" y="0">O</tspan></text>
    <text class="cls-2" transform="translate(133.86 104.32)"><tspan x="0" y="0">H</tspan></text>
  </g>
  <polygon class="cls-1" points="146.44 75.69 160.76 84.25 160.76 84.64 160.75 85.03 146.09 76.28 146.1 75.89 146.44 75.69"/>
  <polygon class="cls-1" points="162.13 84.07 161.92 97.93 161.58 97.93 161.24 97.92 161.45 84.06 161.79 84.06 162.13 84.07"/>
  <polygon class="cls-1" points="160.08 84.04 159.88 97.9 159.53 97.9 159.19 97.89 159.4 84.03 159.74 84.03 160.08 84.04"/>
  <g class="cls-4">
    <text class="cls-2" transform="translate(157.57 104.76)"><tspan x="0" y="0">O</tspan></text>
  </g>
  <polygon class="cls-1" points="160.76 84.25 172.1 77.92 172.27 78.22 172.43 78.52 160.75 85.03 160.76 84.64 160.76 84.25"/>
  <g class="cls-4">
    <text class="cls-2" transform="translate(172.95 78.4)"><tspan x="0" y="0">N</tspan></text>
    <text class="cls-2" transform="translate(178.39 78.4)"><tspan x="0" y="0">H</tspan></text>
    <text class="cls-3" transform="translate(183.82 79.56)"><tspan x="0" y="0">2</tspan></text>
  </g>
  <polygon class="cls-1" points="132.08 50.01 131.32 50 131.33 49.66 131.33 49.32 132.09 49.33 132.08 49.67 132.08 50.01"/>
  <polygon class="cls-1" points="132.29 47.93 131.16 47.91 131.17 47.57 131.17 47.23 132.3 47.24 132.3 47.58 132.29 47.93"/>
  <polygon class="cls-1" points="132.51 45.84 131.01 45.82 131.01 45.48 131.02 45.13 132.52 45.16 132.52 45.5 132.51 45.84"/>
  <polygon class="cls-1" points="132.73 43.75 130.85 43.72 130.86 43.38 130.86 43.04 132.74 43.07 132.74 43.41 132.73 43.75"/>
  <polygon class="cls-1" points="132.95 41.66 130.69 41.63 130.7 41.29 130.7 40.95 132.96 40.98 132.96 41.32 132.95 41.66"/>
  <polygon class="cls-1" points="133.17 39.58 130.54 39.54 130.54 39.2 130.55 38.86 133.18 38.89 133.18 39.24 133.17 39.58"/>
  <polygon class="cls-1" points="133.39 37.49 130.38 37.45 130.38 37.1 130.39 36.76 133.4 36.81 133.4 37.15 133.39 37.49"/>
  <g class="cls-4">
    <text class="cls-2" transform="translate(129.23 36.04)"><tspan x="0" y="0">N</tspan></text>
  </g>
  <polygon class="cls-1" points="135.19 30.79 146.7 24.38 146.86 24.67 147.03 24.97 135.52 31.39 135.35 31.09 135.19 30.79"/>
  <polygon class="cls-1" points="128.38 31.25 117.12 24.53 117.3 24.23 117.47 23.94 128.73 30.66 128.55 30.96 128.38 31.25"/>
  <polygon class="cls-1" points="102.51 49.57 101.75 49.56 101.76 49.22 101.77 48.88 102.52 48.89 102.51 49.23 102.51 49.57"/>
  <polygon class="cls-1" points="102.73 47.49 101.6 47.47 101.6 47.13 101.61 46.79 102.74 46.8 102.73 47.14 102.73 47.49"/>
  <polygon class="cls-1" points="102.95 45.4 101.44 45.38 101.45 45.03 101.45 44.69 102.96 44.72 102.95 45.06 102.95 45.4"/>
  <polygon class="cls-1" points="103.17 43.31 101.28 43.28 101.29 42.94 101.29 42.6 103.18 42.63 103.17 42.97 103.17 43.31"/>
  <polygon class="cls-1" points="103.39 41.22 101.13 41.19 101.13 40.85 101.14 40.51 103.4 40.54 103.39 40.88 103.39 41.22"/>
  <polygon class="cls-1" points="103.6 39.14 100.97 39.1 100.97 38.76 100.98 38.42 103.62 38.45 103.61 38.8 103.6 39.14"/>
  <polygon class="cls-1" points="103.82 37.05 100.81 37.01 100.82 36.66 100.82 36.32 103.83 36.37 103.83 36.71 103.82 37.05"/>
  <g class="cls-4">
    <text class="cls-2" transform="translate(99.46 35.6)"><tspan x="0" y="0">O</tspan></text>
    <text class="cls-2" transform="translate(105.31 35.6)"><tspan x="0" y="0">H</tspan></text>
  </g>
</svg>