<?xml version="1.0" encoding="utf-8"?>
<!-- Generator: Adobe Illustrator 25.2.0, SVG Export Plug-In . SVG Version: 6.00 Build 0)  -->
<svg version="1.1" id="图层_1" xmlns="http://www.w3.org/2000/svg" xmlns:xlink="http://www.w3.org/1999/xlink" x="0px" y="0px"
	 viewBox="0 0 200 130" style="enable-background:new 0 0 200 130;" xml:space="preserve">
<style type="text/css">
	.st0{font-family:'ArialMT';}
	.st1{font-size:7.2958px;}
	.st2{font-size:4.4897px;}
</style>
<polygon points="180.5,6 195.1,14.5 194.8,14.7 194.5,14.9 180.5,6.7 180.5,6.3 "/>
<polygon points="180.7,8.3 193,15.5 192.8,15.8 192.6,16.1 180.3,8.9 180.5,8.6 "/>
<polygon points="195.1,14.5 195,31.4 194.7,31.2 194.4,31 194.5,14.9 194.8,14.7 "/>
<polygon points="195,31.4 180.7,39.6 180.3,39.4 180.3,39 194.4,31 194.7,31.2 "/>
<polygon points="192.9,30.4 180.5,37.4 180.4,37.1 180.2,36.8 192.6,29.8 192.7,30.1 "/>
<polygon points="180,39.6 166.1,31.5 166.1,31.1 166.4,30.9 180.3,39 180.3,39.4 "/>
<polygon points="165.7,30.9 165.8,14.3 166.1,14.5 166.5,14.7 166.4,30.9 166.1,31.1 "/>
<polygon points="167.7,29.9 167.8,15.7 168.1,15.7 168.5,15.7 168.4,29.9 168,29.9 "/>
<polygon points="165.8,14.3 180.5,6 180.5,6.3 180.5,6.7 166.5,14.7 166.1,14.5 "/>
<polygon points="166.1,31.5 152,39.5 151.7,39.3 151.4,39.1 165.7,30.9 166.1,31.1 "/>
<polygon points="151.5,40.7 140.2,34.1 140.4,33.8 140.6,33.5 151.8,40.1 151.7,40.4 "/>
<polygon points="152.5,39 141.2,32.4 141.4,32.1 141.6,31.8 152.8,38.4 152.7,38.7 "/>
<text transform="matrix(1 0 0 1 134.5614 33.8697)" class="st0 st1">O</text>
<polygon points="152,39.5 151.9,55.6 151.6,55.8 151.3,55.6 151.4,39.1 151.7,39.3 "/>
<polygon points="151.9,55.6 165.9,63.8 165.9,64.2 165.5,64.4 151.6,56.2 151.6,55.8 "/>
<polygon points="151.7,57.8 164,65 163.9,65.3 163.7,65.6 151.4,58.4 151.6,58.1 "/>
<polygon points="165.9,63.8 179.9,55.8 180.2,56 180.6,56.2 166.2,64.4 165.9,64.2 "/>
<polygon points="180.4,54.5 191.7,61.1 191.5,61.4 191.4,61.7 180.1,55.1 180.3,54.8 "/>
<polygon points="179.4,56.3 190.7,62.8 190.5,63.1 190.4,63.4 179.1,56.8 179.2,56.5 "/>
<text transform="matrix(1 0 0 1 191.6893 67.2798)" class="st0 st1">O</text>
<polygon points="179.9,55.8 180,39.6 180.3,39.4 180.7,39.6 180.6,56.2 180.2,56 "/>
<polygon points="166.2,64.4 166.1,80.5 165.8,80.7 165.4,80.5 165.5,64.4 165.9,64.2 "/>
<polygon points="165.8,81.1 151.7,89.1 151.4,88.9 151.4,88.5 165.4,80.5 165.8,80.7 "/>
<polygon points="164,79.8 151.6,86.9 151.4,86.6 151.3,86.3 163.6,79.3 163.8,79.6 "/>
<polygon points="151.1,89.1 136.8,80.7 137.1,80.5 137.5,80.4 151.4,88.5 151.4,88.9 "/>
<polygon points="136.8,80.7 136.9,64.2 137.2,64 137.5,64.2 137.5,80.4 137.1,80.5 "/>
<polygon points="138.8,79.4 138.9,65.2 139.2,65.2 139.5,65.2 139.4,79.4 139.1,79.4 "/>
<polygon points="136.9,64.2 126.1,57.9 126.2,57.6 126.4,57.3 137.2,63.6 137.2,64 "/>
<text transform="matrix(1 0 0 1 120.2987 52.5709)" class="st0 st1">H</text>
<text transform="matrix(1 0 0 1 120.2987 59.232)" class="st0 st1">N</text>
<polygon points="119.8,57.8 108.9,64 108.6,63.8 108.6,63.5 119.5,57.2 119.6,57.5 "/>
<polygon points="106.4,65.3 94.1,58.1 94.3,57.8 94.4,57.5 106.7,64.7 106.6,65 "/>
<polygon points="108.2,64 94.3,55.9 94.3,55.5 94.3,55.1 108.6,63.5 108.6,63.8 "/>
<polygon points="94.3,55.9 80.2,63.9 79.9,63.7 79.9,63.3 94.3,55.1 94.3,55.5 "/>
<polygon points="82.2,64.8 82.1,79.1 81.8,79.1 81.5,79.1 81.6,64.8 81.9,64.8 "/>
<polygon points="80.2,63.9 80.1,80 79.8,80.2 79.5,80.4 79.6,63.9 79.9,63.7 "/>
<polygon points="80.1,80 94.1,88.2 94.1,88.6 94.1,89 79.5,80.4 79.8,80.2 "/>
<polygon points="93.9,86 106.3,78.9 106.5,79.2 106.7,79.5 94.3,86.6 94.1,86.3 "/>
<polygon points="94.1,88.2 108.1,80.2 108.5,80.4 108.8,80.6 94.1,89 94.1,88.6 "/>
<polygon points="108.1,80.2 108.2,64 108.6,63.8 108.9,64 108.8,80.6 108.5,80.4 "/>
<polygon points="79.6,63.9 68.7,57.5 68.9,57.3 69.1,57 79.9,63.3 79.9,63.7 "/>
<text transform="matrix(1 0 0 1 62.9867 52.2505)" class="st0 st1">H</text>
<text transform="matrix(1 0 0 1 62.9867 58.9117)" class="st0 st1">N</text>
<polygon points="62.5,57.5 51.6,63.7 51.2,63.5 51.2,63.1 62.2,56.9 62.3,57.2 "/>
<polygon points="49.1,64.9 39.1,59.1 39.3,58.8 39.4,58.5 49.4,64.4 49.3,64.7 "/>
<polygon points="50.9,63.7 40.1,57.4 40.3,57.1 40.4,56.8 51.2,63.1 51.2,63.5 "/>
<text transform="matrix(1 0 0 1 34.3304 58.1265)" class="st0 st1">N</text>
<polygon points="33.8,57.3 22.9,63.6 22.6,63.4 22.6,63 33.5,56.8 33.7,57.1 "/>
<polygon points="24.9,64.5 24.8,76.2 24.5,76.2 24.2,76.2 24.2,64.5 24.6,64.5 "/>
<polygon points="22.9,63.6 22.8,76.2 22.5,76.2 22.2,76.2 22.3,63.6 22.6,63.4 "/>
<text transform="matrix(1 0 0 1 19.8636 82.8638)" class="st0 st1">N</text>
<polygon points="26,81.6 36.8,87.9 36.8,88.3 36.4,88.5 25.6,82.1 25.8,81.8 "/>
<polygon points="36.6,85.7 46.7,79.9 46.9,80.2 47,80.5 37,86.3 36.8,86 "/>
<polygon points="36.8,87.9 47.7,81.7 47.9,81.9 48,82.2 37.1,88.5 36.8,88.3 "/>
<text transform="matrix(1 0 0 1 48.5199 83.024)" class="st0 st1">N</text>
<polygon points="50.8,76.4 50.9,63.7 51.2,63.5 51.6,63.7 51.5,76.4 51.2,76.4 "/>
<polygon points="37.1,88.5 37,101.1 36.7,101.1 36.4,101.1 36.4,88.5 36.8,88.3 "/>
<text transform="matrix(1 0 0 1 33.243 107.7613)" class="st0 st1">Cl</text>
<polygon points="22.3,63.6 12.2,57.7 12.4,57.4 12.6,57.1 22.6,63 22.6,63.4 "/>
<text transform="matrix(1 0 0 1 4.8641 57.9664)" class="st0 st1">Cl</text>
<polygon points="137.2,63.6 151.3,55.6 151.6,55.8 151.6,56.2 137.5,64.2 137.2,64 "/>
<polygon points="151.7,89.1 151.7,101.8 151.3,101.8 151,101.8 151.1,89.1 151.4,88.9 "/>
<text transform="matrix(1 0 0 1 148.8783 108.4009)" class="st0 st1">S</text>
<polygon points="148.2,106.8 138.3,106.7 138.3,106.4 138.3,106 148.2,106.1 148.2,106.4 "/>
<polygon points="148.2,104.8 138.3,104.7 138.3,104.4 138.3,104 148.2,104.1 148.2,104.4 "/>
<text transform="matrix(1 0 0 1 131.9291 108.3082)" class="st0 st1">O</text>
<polygon points="154.4,104.1 164.4,104.2 164.4,104.5 164.4,104.9 154.4,104.8 154.4,104.5 "/>
<polygon points="154.4,106.1 164.4,106.2 164.4,106.5 164.3,106.8 154.4,106.8 154.4,106.5 "/>
<text transform="matrix(1 0 0 1 165.0184 108.4937)" class="st0 st1">O</text>
<polygon points="151.6,109.1 151.6,118.3 151.2,118.3 150.9,118.3 151,109.1 151.3,109.1 "/>
<text transform="matrix(1 0 0 1 148.3812 124.9459)" class="st0 st1">O</text>
<text transform="matrix(1 0 0 1 154.056 124.9459)" class="st0 st1">H</text>
<polygon points="166.1,80.5 176.9,86.8 176.8,87.1 176.6,87.4 165.8,81.1 165.8,80.7 "/>
<text transform="matrix(1 0 0 1 177.4257 91.0767)" class="st0 st1">N</text>
<text transform="matrix(1 0 0 1 182.6952 91.0767)" class="st0 st1">H</text>
<text transform="matrix(1 0 0 1 187.9637 92.1998)" class="st0 st2">2</text>
</svg>
