<?xml version="1.0" encoding="utf-8"?>
<!-- Generator: Adobe Illustrator 25.2.0, SVG Export Plug-In . SVG Version: 6.00 Build 0)  -->
<svg version="1.1" id="图层_1" xmlns="http://www.w3.org/2000/svg" xmlns:xlink="http://www.w3.org/1999/xlink" x="0px" y="0px"
	 viewBox="0 0 200 130" style="enable-background:new 0 0 200 130;" xml:space="preserve">
<style type="text/css">
	.st0{font-family:'ArialMT';}
	.st1{font-size:5.913px;}
	.st2{font-size:3.6388px;}
</style>
<polygon points="183.9,11.3 195.9,18 195.6,18.1 195.4,18.3 183.9,11.9 183.9,11.6 "/>
<polygon points="184.1,13.2 194.2,18.9 194,19.1 193.9,19.3 183.8,13.7 184,13.4 "/>
<polygon points="195.9,18 196,31.7 195.8,31.6 195.5,31.4 195.4,18.3 195.6,18.1 "/>
<polygon points="196,31.7 184.5,38.5 184.2,38.4 184.2,38.1 195.5,31.4 195.8,31.6 "/>
<polygon points="194.3,30.9 184.3,36.8 184.2,36.5 184.1,36.3 194,30.4 194.1,30.6 "/>
<polygon points="184,38.5 172.5,32.1 172.5,31.8 172.8,31.6 184.2,38.1 184.2,38.4 "/>
<polygon points="172.3,31.6 172.1,18.2 172.4,18.4 172.7,18.5 172.8,31.6 172.5,31.8 "/>
<polygon points="173.9,30.9 173.8,19.3 174,19.3 174.3,19.3 174.4,30.9 174.1,30.9 "/>
<polygon points="172.1,18.2 183.9,11.3 183.9,11.6 183.9,11.9 172.7,18.5 172.4,18.4 "/>
<polygon points="172.5,32.1 161.3,38.8 161,38.6 160.7,38.5 172.3,31.6 172.5,31.8 "/>
<polygon points="160.9,39.8 151.6,34.6 151.8,34.3 151.9,34.1 161.1,39.3 161,39.6 "/>
<polygon points="161.7,38.4 152.4,33.2 152.5,32.9 152.7,32.7 161.9,37.9 161.8,38.2 "/>
<text transform="matrix(1 0 0 1 147.0188 34.4359)" class="st0 st1">O</text>
<polygon points="161.3,38.8 161.4,51.9 161.1,52 160.9,51.9 160.7,38.5 161,38.6 "/>
<polygon points="161.4,51.9 172.8,58.3 172.8,58.6 172.6,58.8 161.1,52.3 161.1,52 "/>
<polygon points="161.3,53.7 171.4,59.3 171.2,59.6 171.1,59.8 161,54.1 161.2,53.9 "/>
<polygon points="172.8,58.3 184.1,51.6 184.4,51.8 184.6,51.9 173.1,58.8 172.8,58.6 "/>
<polygon points="184.5,50.6 193.7,55.8 193.6,56.1 193.5,56.3 184.2,51.1 184.4,50.9 "/>
<polygon points="183.7,52 192.9,57.2 192.8,57.5 192.7,57.7 183.4,52.5 183.6,52.3 "/>
<text transform="matrix(1 0 0 1 193.7454 60.7689)" class="st0 st1">O</text>
<polygon points="184.1,51.6 184,38.5 184.2,38.4 184.5,38.5 184.6,51.9 184.4,51.8 "/>
<polygon points="173.1,58.8 173.2,71.9 173,72 172.7,71.9 172.6,58.8 172.8,58.6 "/>
<polygon points="173,72.3 161.7,79 161.4,78.8 161.4,78.5 172.7,71.9 173,72 "/>
<polygon points="171.5,71.3 161.5,77.2 161.4,77 161.3,76.8 171.2,70.9 171.3,71.1 "/>
<polygon points="161.2,79 149.5,72.4 149.7,72.3 150,72.1 161.4,78.5 161.4,78.8 "/>
<polygon points="149.5,72.4 149.3,59 149.6,58.9 149.9,59 150,72.1 149.7,72.3 "/>
<polygon points="151.1,71.3 150.9,59.8 151.2,59.8 151.5,59.8 151.6,71.3 151.3,71.3 "/>
<polygon points="149.3,59 140.5,54 140.6,53.8 140.7,53.5 149.6,58.5 149.6,58.9 "/>
<text transform="matrix(1 0 0 1 135.7815 49.7777)" class="st0 st1">H</text>
<text transform="matrix(1 0 0 1 135.7815 55.1757)" class="st0 st1">N</text>
<polygon points="135.4,54.1 126.6,59.3 126.4,59.1 126.4,58.8 135.1,53.6 135.2,53.9 "/>
<polygon points="124.6,60.3 114.6,54.6 114.7,54.4 114.8,54.1 124.9,59.8 124.8,60 "/>
<polygon points="126.1,59.3 114.7,52.8 114.7,52.5 114.7,52.2 126.4,58.8 126.4,59.1 "/>
<polygon points="114.7,52.8 103.4,59.5 103.1,59.3 103.1,59 114.7,52.2 114.7,52.5 "/>
<polygon points="103.4,59.5 103.6,72.6 103.3,72.8 103,72.7 102.9,59.5 103.1,59.3 "/>
<polygon points="101.8,60.3 101.9,72.5 101.7,72.5 101.4,72.5 101.3,60.3 101.6,60.3 "/>
<polygon points="103.6,72.6 115,79 115,79.3 115,79.6 103.4,73.1 103.3,72.8 "/>
<polygon points="114.8,77.2 124.8,71.4 124.9,71.6 125,71.8 115.1,77.7 115,77.5 "/>
<polygon points="115,79 126.2,72.4 126.5,72.5 126.8,72.7 115,79.6 115,79.3 "/>
<polygon points="126.2,72.4 126.1,59.3 126.4,59.1 126.6,59.3 126.8,72.7 126.5,72.5 "/>
<polygon points="103.4,73.1 100.3,82.9 100,82.8 99.7,82.7 103,72.7 103.3,72.8 "/>
<text transform="matrix(1 0 0 1 97.053 88.1561)" class="st0 st1">S</text>
<polygon points="95.8,84 91.6,79.9 91.8,79.7 92,79.5 96.1,83.6 95.9,83.8 "/>
<polygon points="96.9,82.9 92.8,78.7 92.9,78.5 93.1,78.4 97.3,82.5 97.1,82.7 "/>
<text transform="matrix(1 0 0 1 87.2434 78.6742)" class="st0 st1">O</text>
<polygon points="101.8,85.4 109.4,87.4 109.3,87.7 109.3,88 101.7,85.9 101.7,85.7 "/>
<polygon points="101.4,87 109,89 108.9,89.2 108.9,89.5 101.3,87.5 101.3,87.2 "/>
<text transform="matrix(1 0 0 1 109.677 91.6263)" class="st0 st1">O</text>
<polygon points="97.5,88.9 94.3,94.5 94,94.4 93.8,94.3 97.1,88.6 97.3,88.7 "/>
<text transform="matrix(1 0 0 1 85.7512 99.7689)" class="st0 st1">H</text>
<text transform="matrix(1 0 0 1 90.0213 99.7689)" class="st0 st1">O</text>
<polygon points="102.9,59.5 94,54.5 94.1,54.3 94.3,54 103.1,59 103.1,59.3 "/>
<text transform="matrix(1 0 0 1 89.3333 50.2616)" class="st0 st1">H</text>
<text transform="matrix(1 0 0 1 89.3333 55.6595)" class="st0 st1">N</text>
<polygon points="88.9,54.6 80.2,59.7 79.9,59.6 79.9,59.3 88.7,54.1 88.8,54.3 "/>
<polygon points="78.2,60.8 70,56.1 70.1,55.9 70.3,55.7 78.5,60.3 78.3,60.5 "/>
<polygon points="79.7,59.7 70.8,54.7 70.9,54.5 71,54.3 79.9,59.3 79.9,59.6 "/>
<text transform="matrix(1 0 0 1 66.1096 55.3959)" class="st0 st1">N</text>
<polygon points="65.7,54.8 57,60 56.7,59.8 56.7,59.5 65.4,54.3 65.6,54.6 "/>
<polygon points="58.6,60.7 58.7,70.2 58.4,70.2 58.2,70.2 58.1,60.7 58.3,60.7 "/>
<polygon points="57,60 57.1,70.2 56.8,70.3 56.5,70.3 56.4,60 56.7,59.8 "/>
<text transform="matrix(1 0 0 1 54.7073 75.6288)" class="st0 st1">N</text>
<polygon points="59.6,74.5 68.5,79.5 68.5,79.8 68.3,80 59.4,75 59.5,74.7 "/>
<polygon points="68.4,77.7 76.4,73 76.6,73.2 76.7,73.4 68.6,78.2 68.5,78 "/>
<polygon points="68.5,79.5 77.3,74.3 77.4,74.6 77.5,74.8 68.8,80 68.5,79.8 "/>
<text transform="matrix(1 0 0 1 77.9309 75.3871)" class="st0 st1">N</text>
<polygon points="79.8,70 79.7,59.7 79.9,59.6 80.2,59.7 80.3,70 80,70 "/>
<polygon points="68.8,80 68.9,90.2 68.6,90.2 68.4,90.2 68.3,80 68.5,79.8 "/>
<text transform="matrix(1 0 0 1 66.5286 95.6205)" class="st0 st1">N</text>
<text transform="matrix(1 0 0 1 70.7986 95.6205)" class="st0 st1">H</text>
<polygon points="66.1,95 57.4,100.2 57.1,100.1 57.1,99.7 65.9,94.6 66,94.8 "/>
<polygon points="55.4,101.2 45.3,95.6 45.5,95.3 45.6,95.1 55.7,100.8 55.5,101 "/>
<polygon points="56.9,100.2 45.4,93.8 45.4,93.5 45.4,93.2 57.1,99.7 57.1,100.1 "/>
<polygon points="45.4,93.8 34.2,100.4 33.9,100.3 33.9,100 45.4,93.2 45.4,93.5 "/>
<polygon points="35.8,101.2 35.9,112.8 35.6,112.8 35.4,112.8 35.2,101.2 35.5,101.2 "/>
<polygon points="34.2,100.4 34.3,113.5 34,113.7 33.8,113.9 33.6,100.5 33.9,100.3 "/>
<polygon points="34.3,113.5 45.7,120 45.7,120.3 45.7,120.6 33.8,113.9 34,113.7 "/>
<polygon points="45.6,118.2 55.5,112.3 55.6,112.5 55.8,112.8 45.8,118.7 45.7,118.4 "/>
<polygon points="45.7,120 57,113.3 57.3,113.5 57.5,113.6 45.7,120.6 45.7,120.3 "/>
<polygon points="57,113.3 56.9,100.2 57.1,100.1 57.4,100.2 57.5,113.6 57.3,113.5 "/>
<polygon points="33.6,100.5 24.6,95.4 24.7,95.1 24.9,94.9 33.9,100 33.9,100.3 "/>
<text transform="matrix(1 0 0 1 20.2434 96.1039)" class="st0 st1">S</text>
<polygon points="21.5,97.2 18.2,102.9 18,102.8 17.8,102.7 21,97 21.2,97.1 "/>
<polygon points="20.1,96.4 16.8,102.1 16.6,102 16.4,101.9 19.6,96.2 19.8,96.3 "/>
<text transform="matrix(1 0 0 1 13.3323 107.7865)" class="st0 st1">O</text>
<polygon points="23,90.2 26.2,84.5 26.4,84.6 26.7,84.7 23.4,90.5 23.2,90.3 "/>
<polygon points="24.4,91 27.6,85.3 27.8,85.4 28.1,85.5 24.8,91.3 24.6,91.1 "/>
<text transform="matrix(1 0 0 1 26.4983 84.4222)" class="st0 st1">O</text>
<polygon points="19.6,92.5 13.2,89 13.4,88.7 13.5,88.5 19.8,92.1 19.7,92.3 "/>
<text transform="matrix(1 0 0 1 3.9641 89.5209)" class="st0 st1">H</text>
<text transform="matrix(1 0 0 1 8.2346 89.5209)" class="st0 st1">O</text>
<polygon points="56.4,60 48.2,55.4 48.3,55.1 48.5,54.9 56.7,59.5 56.7,59.8 "/>
<text transform="matrix(1 0 0 1 42.2288 55.6371)" class="st0 st1">Cl</text>
<polygon points="149.6,58.5 160.9,51.9 161.1,52 161.1,52.3 149.9,59 149.6,58.9 "/>
<polygon points="161.7,79 161.8,89.3 161.5,89.3 161.3,89.3 161.2,79 161.4,78.8 "/>
<text transform="matrix(1 0 0 1 159.5872 94.6527)" class="st0 st1">S</text>
<polygon points="159.1,93.4 151,93.4 151,93.2 151,92.9 159.1,92.8 159.1,93.1 "/>
<polygon points="159,91.7 151,91.8 151,91.6 151,91.3 159,91.2 159,91.5 "/>
<text transform="matrix(1 0 0 1 145.8504 94.7924)" class="st0 st1">O</text>
<polygon points="164.1,91.2 172.1,91.1 172.1,91.3 172.1,91.6 164.1,91.7 164.1,91.4 "/>
<polygon points="164.1,92.8 172.1,92.7 172.1,93 172.1,93.2 164.1,93.3 164.1,93 "/>
<text transform="matrix(1 0 0 1 172.6673 94.5131)" class="st0 st1">O</text>
<polygon points="161.9,95.2 161.9,102.7 161.7,102.7 161.4,102.7 161.3,95.2 161.6,95.2 "/>
<text transform="matrix(1 0 0 1 159.3987 108.0609)" class="st0 st1">O</text>
<text transform="matrix(1 0 0 1 163.9978 108.0609)" class="st0 st1">H</text>
<polygon points="173.2,71.9 182.1,76.9 182,77.1 181.8,77.3 173,72.3 173,72 "/>
<text transform="matrix(1 0 0 1 182.5081 80.2406)" class="st0 st1">N</text>
<text transform="matrix(1 0 0 1 186.7786 80.2406)" class="st0 st1">H</text>
<text transform="matrix(1 0 0 1 191.0486 81.1507)" class="st0 st2">2</text>
</svg>
