<?xml version="1.0" encoding="utf-8"?>
<!-- Generator: Adobe Illustrator 25.2.0, SVG Export Plug-In . SVG Version: 6.00 Build 0)  -->
<svg version="1.1" id="图层_1" xmlns="http://www.w3.org/2000/svg" xmlns:xlink="http://www.w3.org/1999/xlink" x="0px" y="0px"
	 viewBox="0 0 200 130" style="enable-background:new 0 0 200 130;" xml:space="preserve">
<style type="text/css">
	.st0{font-family:'ArialMT';}
	.st1{font-size:5.9614px;}
	.st2{fill:none;stroke:#000000;stroke-width:0.9159;stroke-miterlimit:3.8775;}
	.st3{font-size:3.6686px;}
</style>
<polygon points="182.1,22 194.2,28.7 194,28.8 193.7,29 182.1,22.6 182.1,22.3 "/>
<polygon points="182.3,24 192.5,29.6 192.4,29.8 192.2,30 182,24.4 182.1,24.2 "/>
<polygon points="194.2,28.7 194.5,42.5 194.3,42.3 194,42.2 193.7,29 194,28.8 "/>
<polygon points="194.5,42.5 183,49.5 182.7,49.4 182.7,49.1 194,42.2 194.3,42.3 "/>
<polygon points="192.8,41.7 182.8,47.7 182.7,47.5 182.5,47.3 192.5,41.2 192.6,41.4 "/>
<polygon points="182.4,49.5 170.9,43.2 170.9,42.9 171.1,42.7 182.7,49.1 182.7,49.4 "/>
<polygon points="170.6,42.7 170.3,29.2 170.6,29.4 170.8,29.5 171.1,42.7 170.9,42.9 "/>
<polygon points="172.2,41.9 171.9,30.3 172.2,30.3 172.5,30.2 172.7,41.9 172.5,41.9 "/>
<polygon points="170.3,29.2 182.1,22 182.1,22.3 182.1,22.6 170.8,29.5 170.6,29.4 "/>
<polygon points="170.9,43.2 159.6,50 159.3,49.9 159,49.7 170.6,42.7 170.9,42.9 "/>
<polygon points="159.2,51.1 149.8,45.9 149.9,45.7 150,45.4 159.4,50.6 159.3,50.8 "/>
<polygon points="160,49.6 150.6,44.5 150.7,44.2 150.8,44 160.2,49.2 160.1,49.4 "/>
<text transform="matrix(1 0 0 1 145.1228 45.8017)" class="st0 st1">O</text>
<polygon points="159.6,50 159.9,63.2 159.6,63.4 159.3,63.3 159,49.7 159.3,49.9 "/>
<polygon points="159.9,63.2 171.4,69.6 171.5,69.9 171.2,70.1 159.6,63.7 159.6,63.4 "/>
<polygon points="159.8,65 170,70.6 169.9,70.9 169.7,71.1 159.5,65.5 159.6,65.3 "/>
<polygon points="171.4,69.6 182.7,62.7 183,62.9 183.3,63 171.7,70 171.5,69.9 "/>
<polygon points="183.1,61.7 192.5,66.9 192.4,67.1 192.3,67.3 182.9,62.2 183,61.9 "/>
<polygon points="182.3,63.1 191.7,68.3 191.6,68.5 191.5,68.8 182.1,63.6 182.2,63.4 "/>
<text transform="matrix(1 0 0 1 192.5423 71.7925)" class="st0 st1">O</text>
<polygon points="182.7,62.7 182.4,49.5 182.7,49.4 183,49.5 183.3,63 183,62.9 "/>
<polygon points="171.7,70 172,83.3 171.8,83.4 171.5,83.3 171.2,70.1 171.5,69.9 "/>
<polygon points="171.8,83.7 160.5,90.6 160.2,90.4 160.2,90.1 171.5,83.3 171.8,83.4 "/>
<polygon points="170.2,82.7 160.3,88.8 160.2,88.6 160,88.3 170,82.3 170.1,82.5 "/>
<polygon points="159.9,90.6 148.1,84.1 148.3,83.9 148.6,83.8 160.2,90.1 160.2,90.4 "/>
<polygon points="148.1,84.1 147.8,70.6 148,70.4 148.3,70.6 148.6,83.8 148.3,83.9 "/>
<polygon points="149.7,83 149.4,71.3 149.7,71.3 150,71.3 150.2,83 149.9,83 "/>
<polygon points="147.8,70.6 138.8,65.6 138.9,65.4 139,65.2 148,70.1 148,70.4 "/>
<text transform="matrix(1 0 0 1 134.0349 61.4028)" class="st0 st1">H</text>
<text transform="matrix(1 0 0 1 134.0349 66.8452)" class="st0 st1">N</text>
<polygon points="133.6,65.8 124.9,71.1 124.6,70.9 124.6,70.6 133.4,65.3 133.5,65.6 "/>
<polygon points="122.9,72.1 112.7,66.6 112.8,66.3 112.9,66.1 123.2,71.7 123,71.9 "/>
<polygon points="124.4,71.1 112.8,64.8 112.8,64.4 112.8,64.1 124.6,70.6 124.6,70.9 "/>
<polygon points="112.8,64.8 101.5,71.6 101.2,71.5 101.5,71 112.8,64.1 112.8,64.4 "/>
<polygon points="101.5,71.6 101.8,84.8 101.5,85 101.2,84.8 100.9,71.3 101.2,71.5 "/>
<polygon points="99.9,71.5 100.2,84.1 99.9,84.1 99.6,84.1 99.3,71.5 99.6,71.5 "/>
<polygon points="101.8,84.8 113.4,91.2 113.4,91.5 113.4,91.8 101.5,85.3 101.5,85 "/>
<polygon points="113.2,89.4 123.1,83.3 123.3,83.6 123.4,83.8 113.5,89.8 113.3,89.6 "/>
<polygon points="113.4,91.2 124.7,84.3 124.9,84.5 125.2,84.6 113.4,91.8 113.4,91.5 "/>
<polygon points="124.7,84.3 124.4,71.1 124.6,70.9 124.9,71.1 125.2,84.6 124.9,84.5 "/>
<polygon points="101.5,85.3 92.8,90.6 92.7,90.4 92.5,90.1 101.2,84.8 101.5,85 "/>
<text transform="matrix(1 0 0 1 87.8167 94.4062)" class="st0 st1">N</text>
<text transform="matrix(1 0 0 1 87.8167 99.8491)" class="st0 st1">H</text>
<polygon points="87.1,90.8 78.1,85.8 78.1,85.5 78.4,85.3 87.4,90.3 87.3,90.5 "/>
<polygon points="76.2,84.6 76,75 76.3,75 76.5,75 76.7,84.6 76.5,84.6 "/>
<polygon points="77.8,85.3 77.6,75 77.9,75 78.2,75 78.4,85.3 78.1,85.5 "/>
<text transform="matrix(1 0 0 1 75.6614 74.3931)" class="st0 st1">N</text>
<polygon points="75,70.7 66,65.8 66,65.5 66.2,65.3 75.3,70.3 75.1,70.5 "/>
<polygon points="66.1,67.6 58.1,72.5 57.9,72.2 57.8,72 65.9,67.1 66,67.4 "/>
<polygon points="66,65.8 57.2,71.1 57.1,70.9 57,70.6 65.7,65.3 66,65.5 "/>
<text transform="matrix(1 0 0 1 52.2517 74.9136)" class="st0 st1">N</text>
<polygon points="54.7,75.5 55,85.9 54.7,86 54.4,85.9 54.2,75.5 54.5,75.5 "/>
<polygon points="56.4,84.8 64.8,89.4 64.6,89.6 64.5,89.9 56.2,85.3 56.3,85 "/>
<polygon points="55,85.9 64,90.8 63.9,91 63.7,91.3 54.7,86.3 54.7,86 "/>
<text transform="matrix(1 0 0 1 64.407 94.9267)" class="st0 st1">N</text>
<polygon points="69.1,90.6 77.8,85.3 78.1,85.5 78.1,85.8 69.4,91.1 69.3,90.9 "/>
<polygon points="54.7,86.3 46,91.6 45.8,91.4 45.7,91.2 54.4,85.9 54.7,86 "/>
<text transform="matrix(1 0 0 1 40.9973 95.4468)" class="st0 st1">N</text>
<text transform="matrix(1 0 0 1 40.9973 100.8891)" class="st0 st1">H</text>
<polygon points="40.3,91.8 31.3,86.8 31.3,86.5 31.6,86.4 40.6,91.3 40.5,91.6 "/>
<polygon points="29.4,85.6 29.1,74 29.4,74 29.7,74 29.9,85.6 29.7,85.6 "/>
<polygon points="31,86.4 30.7,73.2 31,73 31.3,72.9 31.6,86.4 31.3,86.5 "/>
<polygon points="30.7,73.2 19.1,66.8 19.1,66.5 19.4,66.4 31.3,72.9 31,73 "/>
<polygon points="19.3,68.6 9.4,74.7 9.2,74.4 9.1,74.2 19,68.2 19.2,68.4 "/>
<polygon points="19.1,66.8 7.9,73.7 7.6,73.5 7.3,73.4 18.9,66.4 19.1,66.5 "/>
<polygon points="7.9,73.7 8.2,86.9 7.9,87.1 7.6,87.2 7.3,73.4 7.6,73.5 "/>
<polygon points="9.6,85.8 19.8,91.4 19.7,91.7 19.6,91.9 9.4,86.3 9.5,86.1 "/>
<polygon points="8.2,86.9 19.7,93.2 19.7,93.6 19.7,93.9 7.6,87.2 7.9,87.1 "/>
<polygon points="19.7,93.2 31,86.4 31.3,86.5 31.3,86.8 19.7,93.9 19.7,93.6 "/>
<polygon points="18.9,66.4 18.6,56 18.9,56 19.2,56 19.4,66.4 19.1,66.5 "/>
<text transform="matrix(1 0 0 1 16.8513 55.4204)" class="st0 st1">S</text>
<polygon points="16.3,54.1 8.2,54.3 8.2,54.1 8.2,53.8 16.3,53.6 16.3,53.9 "/>
<polygon points="16.3,52.5 8.2,52.7 8.2,52.4 8.2,52.2 16.3,52 16.3,52.3 "/>
<text transform="matrix(1 0 0 1 3.0047 55.7212)" class="st0 st1">O</text>
<polygon points="21.3,51.9 29.5,51.7 29.5,52 29.5,52.2 21.4,52.4 21.3,52.1 "/>
<polygon points="21.4,53.5 29.5,53.3 29.5,53.6 29.5,53.9 21.4,54 21.4,53.8 "/>
<text transform="matrix(1 0 0 1 30.0359 55.1206)" class="st0 st1">O</text>
<polygon points="18.5,50 18.3,42.5 18.6,42.5 18.9,42.5 19,50 18.8,50 "/>
<text transform="matrix(1 0 0 1 16.22 41.9053)" class="st0 st1">O</text>
<line class="st2" x1="20.6" y1="36.3" x2="22.9" y2="36.3"/>
<polygon points="65.7,65.3 65.5,55 65.7,55 66,55 66.2,65.3 66,65.5 "/>
<text transform="matrix(1 0 0 1 62.844 54.3804)" class="st0 st1">Cl</text>
<polygon points="101,71.9 100.6,62.8 100.9,62.8 101.1,62.8 101.5,71 101.2,71.5 "/>
<text transform="matrix(1 0 0 1 98.7527 62.2392)" class="st0 st1">S</text>
<polygon points="98.5,61.5 90.8,63.6 90.8,63.3 90.7,63.1 98.4,61 98.4,61.3 "/>
<polygon points="98.1,60 90.4,62 90.3,61.8 90.3,61.5 97.9,59.5 98,59.7 "/>
<text transform="matrix(1 0 0 1 85.3635 65.7383)" class="st0 st1">O</text>
<polygon points="102.7,57.4 109,53.8 109.2,54 109.3,54.2 103,57.9 102.9,57.7 "/>
<polygon points="103.5,58.8 109.9,55.2 110,55.4 110.1,55.7 103.8,59.3 103.7,59.1 "/>
<text transform="matrix(1 0 0 1 110.1297 55.48)" class="st0 st1">O</text>
<polygon points="98.8,57 95.5,51.3 95.7,51.1 96,51 99.2,56.7 99,56.8 "/>
<text transform="matrix(1 0 0 1 91.6624 50.5317)" class="st0 st1">O</text>
<line class="st2" x1="96" y1="44.9" x2="98.3" y2="44.9"/>
<polygon points="148,70.1 159.3,63.3 159.6,63.4 159.6,63.7 148.3,70.6 148,70.4 "/>
<polygon points="160.5,90.6 160.7,100.9 160.4,100.9 160.2,100.9 159.9,90.6 160.2,90.4 "/>
<text transform="matrix(1 0 0 1 158.5096 106.3613)" class="st0 st1">S</text>
<polygon points="158,105.1 149.9,105.3 149.9,105 149.9,104.7 158,104.5 158,104.8 "/>
<polygon points="158,103.5 149.8,103.6 149.8,103.4 149.8,103.1 157.9,102.9 158,103.2 "/>
<text transform="matrix(1 0 0 1 144.6634 106.6616)" class="st0 st1">O</text>
<polygon points="163,102.8 171.1,102.6 171.1,102.9 171.1,103.2 163,103.3 163,103.1 "/>
<polygon points="163,104.4 171.2,104.3 171.2,104.5 171.2,104.8 163.1,105 163,104.7 "/>
<text transform="matrix(1 0 0 1 171.6941 106.061)" class="st0 st1">O</text>
<polygon points="160.8,106.9 161,114.4 160.7,114.5 160.5,114.5 160.3,107 160.6,107 "/>
<text transform="matrix(1 0 0 1 158.4793 119.8764)" class="st0 st1">O</text>
<line class="st2" x1="162.9" y1="114.3" x2="165.1" y2="114.3"/>
<polygon points="172,83.3 181,88.2 180.9,88.4 180.8,88.7 171.8,83.7 171.8,83.4 "/>
<text transform="matrix(1 0 0 1 181.4549 91.5581)" class="st0 st1">N</text>
<text transform="matrix(1 0 0 1 185.76 91.5581)" class="st0 st1">H</text>
<text transform="matrix(1 0 0 1 190.0652 92.4751)" class="st0 st3">2</text>
<text transform="matrix(1 0 0 1 95.6214 31.2661)" class="st0 st1">Na</text>
<line class="st2" x1="102.3" y1="24.8" x2="104.6" y2="24.8"/>
<line class="st2" x1="103.4" y1="23.7" x2="103.4" y2="26"/>
<text transform="matrix(1 0 0 1 14.6404 29.3467)" class="st0 st1">Na</text>
<line class="st2" x1="21.3" y1="22.9" x2="23.6" y2="22.9"/>
<line class="st2" x1="22.5" y1="21.8" x2="22.5" y2="24.1"/>
<text transform="matrix(1 0 0 1 151.8269 31.2661)" class="st0 st1">Na</text>
<line class="st2" x1="158.5" y1="24.8" x2="160.8" y2="24.8"/>
<line class="st2" x1="159.6" y1="23.7" x2="159.6" y2="26"/>
</svg>
