<?xml version="1.0" encoding="utf-8"?>
<!-- Generator: Adobe Illustrator 25.2.0, SVG Export Plug-In . SVG Version: 6.00 Build 0)  -->
<svg version="1.1" id="图层_1" xmlns="http://www.w3.org/2000/svg" xmlns:xlink="http://www.w3.org/1999/xlink" x="0px" y="0px"
	 viewBox="0 0 200 130" style="enable-background:new 0 0 200 130;" xml:space="preserve">
<style type="text/css">
	.st0{font-family:'ArialMT';}
	.st1{font-size:6.7332px;}
	.st2{font-size:4.1435px;}
</style>
<polygon points="169.8,8.5 183.5,15.9 183.2,16 182.9,16.2 169.8,9.2 169.8,8.8 "/>
<polygon points="170,10.7 181.6,16.9 181.4,17.2 181.3,17.4 169.7,11.2 169.8,10.9 "/>
<polygon points="183.5,15.9 184,31.5 183.7,31.3 183.4,31.1 182.9,16.2 183.2,16 "/>
<polygon points="184,31.5 171.1,39.5 170.7,39.4 170.7,39 183.4,31.1 183.7,31.3 "/>
<polygon points="182,30.6 170.8,37.5 170.7,37.2 170.5,37 181.7,30 181.9,30.3 "/>
<polygon points="170.4,39.5 157.3,32.5 157.3,32.1 157.6,32 170.7,39 170.7,39.4 "/>
<polygon points="157,32 156.5,16.7 156.8,16.9 157.1,17 157.6,32 157.3,32.1 "/>
<polygon points="158.8,31 158.4,17.9 158.7,17.9 159,17.9 159.4,31 159.1,31 "/>
<polygon points="156.5,16.7 169.8,8.5 169.8,8.8 169.8,9.2 157.1,17 156.8,16.9 "/>
<polygon points="157.3,32.5 144.6,40.4 144.3,40.2 144,40 157,32 157.3,32.1 "/>
<polygon points="144.2,41.5 133.5,35.8 133.6,35.5 133.8,35.2 144.5,41 144.3,41.2 "/>
<polygon points="145.1,39.9 134.4,34.2 134.5,33.9 134.7,33.6 145.4,39.4 145.2,39.6 "/>
<text transform="matrix(1 0 0 1 128.2315 35.7022)" class="st0 st1">O</text>
<polygon points="144.6,40.4 145.1,55.3 144.8,55.5 144.5,55.3 144,40 144.3,40.2 "/>
<polygon points="145.1,55.3 158.2,62.3 158.2,62.7 157.9,62.9 144.8,55.8 144.8,55.5 "/>
<polygon points="145,57.3 156.6,63.5 156.4,63.8 156.3,64 144.7,57.8 144.9,57.6 "/>
<polygon points="158.2,62.3 170.9,54.5 171.2,54.6 171.5,54.8 158.6,62.8 158.2,62.7 "/>
<polygon points="171.3,53.3 182,59 181.9,59.3 181.7,59.6 171,53.8 171.2,53.6 "/>
<polygon points="170.5,54.9 181.2,60.6 181,60.9 180.9,61.2 170.2,55.4 170.3,55.2 "/>
<text transform="matrix(1 0 0 1 182.0596 64.5601)" class="st0 st1">O</text>
<polygon points="170.9,54.5 170.4,39.5 170.7,39.4 171.1,39.5 171.5,54.8 171.2,54.6 "/>
<polygon points="158.6,62.8 159,77.7 158.7,77.9 158.4,77.8 157.9,62.9 158.2,62.7 "/>
<polygon points="158.7,78.3 146.1,86.1 145.7,86 145.7,85.6 158.4,77.8 158.7,77.9 "/>
<polygon points="157,77.2 145.8,84.1 145.7,83.9 145.5,83.6 156.7,76.7 156.9,76.9 "/>
<polygon points="145.4,86.2 132,78.9 132.3,78.8 132.6,78.6 145.7,85.6 145.7,86 "/>
<polygon points="132,78.9 131.5,63.7 131.8,63.5 132.1,63.7 132.6,78.6 132.3,78.8 "/>
<polygon points="133.8,77.7 133.4,64.5 133.7,64.5 134,64.5 134.4,77.6 134.1,77.6 "/>
<polygon points="131.5,63.7 121.3,58.2 121.4,57.9 121.5,57.6 131.8,63.1 131.8,63.5 "/>
<text transform="matrix(1 0 0 1 115.9229 53.4395)" class="st0 st1">H</text>
<text transform="matrix(1 0 0 1 115.9229 59.587)" class="st0 st1">N</text>
<polygon points="115.5,58.4 105.7,64.5 105.4,64.3 105.4,64 115.2,57.9 115.3,58.2 "/>
<polygon points="103.4,65.7 91.8,59.5 92,59.2 92.1,59 103.7,65.2 103.6,65.4 "/>
<polygon points="105.1,64.5 91.9,57.5 91.9,57.1 91.9,56.8 105.4,64 105.4,64.3 "/>
<polygon points="91.9,57.5 79.3,65.3 78.9,65.2 78.9,64.8 91.9,56.8 91.9,57.1 "/>
<polygon points="81.1,66.2 81.5,79.3 81.2,79.3 80.9,79.3 80.5,66.2 80.8,66.2 "/>
<polygon points="79.3,65.3 79.7,80.2 79.4,80.4 79.1,80.6 78.6,65.3 78.9,65.2 "/>
<polygon points="79.7,80.2 92.9,87.3 92.9,87.6 92.9,88 79.1,80.6 79.4,80.4 "/>
<polygon points="92.7,85.3 103.8,78.3 104,78.6 104.2,78.9 93,85.8 92.8,85.5 "/>
<polygon points="92.9,87.3 105.5,79.4 105.9,79.6 106.2,79.8 92.9,88 92.9,87.6 "/>
<polygon points="105.5,79.4 105.1,64.5 105.4,64.3 105.7,64.5 106.2,79.8 105.9,79.6 "/>
<polygon points="78.6,65.3 68.4,59.8 68.5,59.6 68.7,59.3 78.9,64.8 78.9,65.2 "/>
<text transform="matrix(1 0 0 1 63.0562 55.1045)" class="st0 st1">H</text>
<text transform="matrix(1 0 0 1 63.0562 61.252)" class="st0 st1">N</text>
<polygon points="62.6,60.1 52.8,66.2 52.5,66 52.5,65.6 62.3,59.6 62.4,59.8 "/>
<polygon points="50.6,67.4 41.1,62.3 41.2,62 41.4,61.8 50.9,66.8 50.7,67.1 "/>
<polygon points="52.2,66.2 42,60.7 42.1,60.4 42.2,60.1 52.5,65.6 52.5,66 "/>
<text transform="matrix(1 0 0 1 36.6226 61.5079)" class="st0 st1">N</text>
<polygon points="36.2,60.9 26.4,67 26.1,66.8 26.1,66.5 35.9,60.4 36,60.7 "/>
<polygon points="28.2,67.8 28.6,78.6 28.3,78.6 28,78.6 27.6,67.8 27.9,67.8 "/>
<polygon points="26.4,67 26.8,78.7 26.5,78.7 26.1,78.7 25.8,67 26.1,66.8 "/>
<text transform="matrix(1 0 0 1 24.1265 84.8169)" class="st0 st1">N</text>
<polygon points="29.7,83.5 40,89 40,89.3 39.7,89.5 29.5,84 29.6,83.7 "/>
<polygon points="39.8,86.9 48.8,81.3 49,81.6 49.1,81.8 40.1,87.4 39.9,87.2 "/>
<polygon points="40,89 49.8,82.9 49.9,83.1 50.1,83.4 40.3,89.5 40,89.3 "/>
<text transform="matrix(1 0 0 1 50.5611 83.9849)" class="st0 st1">N</text>
<polygon points="52.6,77.9 52.2,66.2 52.5,66 52.8,66.2 53.2,77.9 52.9,77.9 "/>
<polygon points="40.3,89.5 40.7,101.2 40.4,101.2 40.1,101.2 39.7,89.5 40,89.3 "/>
<text transform="matrix(1 0 0 1 37.3179 107.2925)" class="st0 st1">Cl</text>
<polygon points="25.8,67 16.3,61.9 16.4,61.6 16.6,61.4 26.1,66.5 26.1,66.8 "/>
<text transform="matrix(1 0 0 1 9.442 62.3399)" class="st0 st1">Cl</text>
<polygon points="131.8,63.1 144.5,55.3 144.8,55.5 144.8,55.8 132.1,63.7 131.8,63.5 "/>
<polygon points="146.1,86.1 146.4,97.8 146.1,97.8 145.8,97.8 145.4,86.2 145.7,86 "/>
<text transform="matrix(1 0 0 1 143.9845 103.9624)" class="st0 st1">S</text>
<polygon points="143.4,102.5 134.2,102.8 134.2,102.5 134.2,102.2 143.4,101.9 143.4,102.2 "/>
<polygon points="143.4,100.7 134.2,101 134.2,100.7 134.2,100.4 143.3,100.1 143.3,100.4 "/>
<text transform="matrix(1 0 0 1 128.3497 104.4439)" class="st0 st1">O</text>
<polygon points="149,99.9 158.2,99.6 158.2,99.9 158.2,100.2 149.1,100.5 149.1,100.2 "/>
<polygon points="149.1,101.8 158.3,101.5 158.3,101.8 158.3,102.1 149.1,102.4 149.1,102.1 "/>
<text transform="matrix(1 0 0 1 158.8712 103.482)" class="st0 st1">O</text>
<polygon points="146.6,104.6 146.9,113.1 146.6,113.1 146.3,113.1 146,104.6 146.3,104.6 "/>
<text transform="matrix(1 0 0 1 144.0909 119.2232)" class="st0 st1">O</text>
<text transform="matrix(1 0 0 1 149.3292 119.2232)" class="st0 st1">H</text>
<polygon points="159,77.7 169.3,83.2 169.1,83.5 169,83.8 158.7,78.3 158.7,77.9 "/>
<text transform="matrix(1 0 0 1 169.7511 87.0015)" class="st0 st1">N</text>
<text transform="matrix(1 0 0 1 174.6143 87.0015)" class="st0 st1">H</text>
<text transform="matrix(1 0 0 1 179.4776 88.0367)" class="st0 st2">2</text>
</svg>
