<?xml version="1.0" encoding="utf-8"?>
<!-- Generator: Adobe Illustrator 25.2.0, SVG Export Plug-In . SVG Version: 6.00 Build 0)  -->
<svg version="1.1" id="图层_1" xmlns="http://www.w3.org/2000/svg" xmlns:xlink="http://www.w3.org/1999/xlink" x="0px" y="0px"
	 viewBox="0 0 200 130" style="enable-background:new 0 0 200 130;" xml:space="preserve">
<style type="text/css">
	.st0{font-family:'ArialMT';}
	.st1{font-size:5.9851px;}
	.st2{font-size:3.6831px;}
</style>
<polygon points="183.3,21.6 195.4,28.5 195.1,28.7 194.8,28.8 183.3,22.2 183.3,21.9 "/>
<polygon points="183.5,23.6 193.6,29.4 193.5,29.6 193.3,29.8 183.2,24.1 183.3,23.8 "/>
<polygon points="195.4,28.5 195.4,42.4 195.2,42.2 194.9,42.1 194.8,28.8 195.1,28.7 "/>
<polygon points="195.4,42.4 183.7,49.2 183.4,49.1 183.4,48.8 194.9,42.1 195.2,42.2 "/>
<polygon points="193.7,41.5 183.6,47.4 183.4,47.2 183.3,47 193.4,41.1 193.5,41.3 "/>
<polygon points="183.2,49.2 171.7,42.7 171.7,42.4 171.9,42.2 183.4,48.8 183.4,49.1 "/>
<polygon points="171.4,42.2 171.3,28.6 171.6,28.8 171.9,28.9 171.9,42.2 171.7,42.4 "/>
<polygon points="173,41.4 173,29.7 173.2,29.7 173.5,29.7 173.6,41.4 173.3,41.4 "/>
<polygon points="171.3,28.6 183.3,21.6 183.3,21.9 183.3,22.2 171.9,28.9 171.6,28.8 "/>
<polygon points="171.7,42.7 160.2,49.4 159.9,49.2 159.7,49 171.4,42.2 171.7,42.4 "/>
<polygon points="159.8,50.4 150.5,45.1 150.6,44.8 150.8,44.6 160.1,49.9 159.9,50.1 "/>
<polygon points="160.6,49 151.3,43.6 151.4,43.4 151.6,43.2 160.9,48.5 160.7,48.7 "/>
<text transform="matrix(1 0 0 1 145.8232 44.8946)" class="st0 st1">O</text>
<polygon points="160.2,49.4 160.3,62.6 160,62.8 159.7,62.6 159.7,49 159.9,49.2 "/>
<polygon points="160.3,62.6 171.8,69.2 171.8,69.5 171.5,69.7 160,63.1 160,62.8 "/>
<polygon points="160.1,64.4 170.3,70.2 170.2,70.4 170,70.7 159.9,64.9 160,64.7 "/>
<polygon points="171.8,69.2 183.2,62.5 183.5,62.7 183.8,62.8 172.1,69.7 171.8,69.5 "/>
<polygon points="183.6,61.5 193,66.8 192.8,67 192.7,67.3 183.4,61.9 183.5,61.7 "/>
<polygon points="182.8,62.9 192.2,68.2 192,68.4 191.9,68.7 182.6,63.4 182.7,63.1 "/>
<text transform="matrix(1 0 0 1 192.9726 71.8048)" class="st0 st1">O</text>
<polygon points="183.2,62.5 183.2,49.2 183.4,49.1 183.7,49.2 183.8,62.8 183.5,62.7 "/>
<polygon points="172.1,69.7 172.1,82.9 171.9,83.1 171.6,82.9 171.5,69.7 171.8,69.5 "/>
<polygon points="171.9,83.4 160.4,90.1 160.1,89.9 160.1,89.6 171.6,82.9 171.9,83.1 "/>
<polygon points="170.4,82.4 160.3,88.3 160.1,88 160,87.8 170.1,81.9 170.2,82.1 "/>
<polygon points="159.9,90.1 148.1,83.3 148.4,83.2 148.6,83 160.1,89.6 160.1,89.9 "/>
<polygon points="148.1,83.3 148,69.8 148.3,69.6 148.6,69.8 148.6,83 148.4,83.2 "/>
<polygon points="149.7,82.2 149.6,70.5 149.9,70.5 150.2,70.5 150.2,82.2 150,82.2 "/>
<polygon points="148,69.8 139.1,64.7 139.2,64.4 139.3,64.2 148.3,69.3 148.3,69.6 "/>
<text transform="matrix(1 0 0 1 134.3378 60.3595)" class="st0 st1">H</text>
<text transform="matrix(1 0 0 1 134.3378 65.8243)" class="st0 st1">N</text>
<polygon points="133.9,64.7 125,69.9 124.8,69.7 124.8,69.4 133.7,64.2 133.8,64.5 "/>
<polygon points="123,70.9 112.9,65.1 113,64.9 113.1,64.6 123.3,70.4 123.2,70.7 "/>
<polygon points="124.5,69.9 113,63.3 113,63 113,62.7 124.8,69.4 124.8,69.7 "/>
<polygon points="113,63.3 101.5,70 101.3,69.8 101.4,69.4 113,62.7 113,63 "/>
<polygon points="101.5,70 101.6,83.3 101.3,83.4 101.1,83.3 101,69.9 101.3,69.8 "/>
<polygon points="99.9,70.1 100,82.5 99.7,82.5 99.4,82.5 99.4,70.1 99.6,70.1 "/>
<polygon points="101.6,83.3 113.1,89.8 113.1,90.1 113.1,90.5 101.3,83.7 101.3,83.4 "/>
<polygon points="113,88 123.1,82.1 123.2,82.4 123.3,82.6 113.3,88.5 113.1,88.3 "/>
<polygon points="113.1,89.8 124.6,83.1 124.8,83.3 125.1,83.5 113.1,90.5 113.1,90.1 "/>
<polygon points="124.6,83.1 124.5,69.9 124.8,69.7 125,69.9 125.1,83.5 124.8,83.3 "/>
<polygon points="101.3,83.7 92.5,88.9 92.3,88.7 92.2,88.5 101.1,83.3 101.3,83.4 "/>
<text transform="matrix(1 0 0 1 87.4574 92.6895)" class="st0 st1">N</text>
<text transform="matrix(1 0 0 1 87.4574 98.1534)" class="st0 st1">H</text>
<polygon points="86.8,89 77.8,83.9 77.8,83.5 78.1,83.4 87,88.5 86.9,88.7 "/>
<polygon points="75.9,82.6 75.9,73 76.1,73 76.4,73 76.5,82.6 76.2,82.6 "/>
<polygon points="77.6,83.4 77.5,73 77.8,73 78,73 78.1,83.4 77.8,83.5 "/>
<text transform="matrix(1 0 0 1 75.601 72.3907)" class="st0 st1">N</text>
<polygon points="74.9,68.7 66,63.6 66,63.2 66.2,63.1 75.2,68.2 75.1,68.4 "/>
<polygon points="66.1,65.4 57.9,70.1 57.8,69.9 57.6,69.7 65.8,64.9 66,65.1 "/>
<polygon points="66,63.6 57.1,68.7 57,68.5 56.8,68.3 65.7,63.1 66,63.2 "/>
<text transform="matrix(1 0 0 1 52.0932 72.5069)" class="st0 st1">N</text>
<polygon points="54.5,73.1 54.6,83.5 54.3,83.7 54,83.5 54,73.1 54.3,73.1 "/>
<polygon points="56.1,82.5 64.3,87.2 64.2,87.4 64.1,87.7 55.8,82.9 55.9,82.7 "/>
<polygon points="54.6,83.5 63.5,88.6 63.4,88.8 63.3,89.1 54.3,84 54.3,83.7 "/>
<text transform="matrix(1 0 0 1 63.9477 92.8067)" class="st0 st1">N</text>
<polygon points="68.7,88.6 77.6,83.4 77.8,83.5 77.8,83.9 68.9,89 68.8,88.8 "/>
<polygon points="54.3,84 45.4,89.2 45.3,88.9 45.2,88.7 54,83.5 54.3,83.7 "/>
<text transform="matrix(1 0 0 1 40.4399 92.9239)" class="st0 st1">N</text>
<text transform="matrix(1 0 0 1 40.4399 98.3878)" class="st0 st1">H</text>
<polygon points="39.8,89.2 30.8,84.1 30.8,83.8 31.1,83.6 40,88.7 39.9,89 "/>
<polygon points="28.9,82.8 28.9,71.1 29.1,71.1 29.4,71.1 29.5,82.8 29.2,82.8 "/>
<polygon points="30.5,83.6 30.5,70.4 30.7,70.2 31,70 31.1,83.6 30.8,83.8 "/>
<polygon points="30.5,70.4 19,63.8 19,63.5 19.2,63.3 31,70 30.7,70.2 "/>
<polygon points="19.1,65.6 9,71.5 8.9,71.2 8.7,71 18.8,65.1 19,65.4 "/>
<polygon points="19,63.8 7.5,70.5 7.2,70.3 7,70.2 18.7,63.3 19,63.5 "/>
<polygon points="7.5,70.5 7.6,83.7 7.3,83.9 7,84 7,70.2 7.2,70.3 "/>
<polygon points="9.1,82.7 19.2,88.5 19.1,88.7 18.9,89 8.8,83.2 8.9,82.9 "/>
<polygon points="7.6,83.7 19.1,90.3 19.1,90.6 19.1,90.9 7,84 7.3,83.9 "/>
<polygon points="19.1,90.3 30.5,83.6 30.8,83.8 30.8,84.1 19.1,90.9 19.1,90.6 "/>
<polygon points="18.7,63.3 18.6,52.9 18.9,52.9 19.2,52.9 19.2,63.3 19,63.5 "/>
<text transform="matrix(1 0 0 1 16.8949 52.3243)" class="st0 st1">S</text>
<polygon points="16.4,51 8.2,51 8.2,50.8 8.2,50.5 16.4,50.5 16.4,50.7 "/>
<polygon points="16.3,49.4 8.2,49.4 8.2,49.1 8.2,48.9 16.3,48.8 16.3,49.1 "/>
<text transform="matrix(1 0 0 1 2.9906 52.3917)" class="st0 st1">O</text>
<polygon points="21.4,48.8 29.6,48.8 29.6,49 29.6,49.3 21.4,49.3 21.4,49.1 "/>
<polygon points="21.4,50.4 29.6,50.4 29.6,50.7 29.6,50.9 21.4,51 21.4,50.7 "/>
<text transform="matrix(1 0 0 1 30.1352 52.2569)" class="st0 st1">O</text>
<polygon points="18.6,46.9 18.6,39.3 18.8,39.3 19.1,39.3 19.1,46.9 18.9,46.9 "/>
<text transform="matrix(1 0 0 1 16.4965 38.752)" class="st0 st1">O</text>
<text transform="matrix(1 0 0 1 21.1508 38.752)" class="st0 st1">H</text>
<polygon points="65.7,63.1 65.6,52.7 65.9,52.7 66.2,52.7 66.2,63.1 66,63.2 "/>
<text transform="matrix(1 0 0 1 63.0815 52.0899)" class="st0 st1">Cl</text>
<polygon points="101,69.9 98,61.1 98.2,61 98.5,60.9 101.4,69.4 101.3,69.8 "/>
<text transform="matrix(1 0 0 1 95.2201 60.3897)" class="st0 st1">S</text>
<polygon points="95.4,61.3 91.3,65.5 91.1,65.3 90.9,65.1 95.1,60.9 95.3,61.1 "/>
<polygon points="94.3,60.1 90.1,64.3 89.9,64.1 89.7,63.9 93.9,59.7 94.1,59.9 "/>
<text transform="matrix(1 0 0 1 85.2914 69.9864)" class="st0 st1">O</text>
<polygon points="99.2,55.6 105.6,51.9 105.7,52.1 105.8,52.4 99.5,56 99.3,55.8 "/>
<polygon points="100,57 106.4,53.3 106.5,53.5 106.6,53.8 100.3,57.4 100.2,57.2 "/>
<text transform="matrix(1 0 0 1 106.6425 53.6026)" class="st0 st1">O</text>
<polygon points="95.2,55.1 91.9,49.4 92.2,49.2 92.4,49.1 95.7,54.8 95.5,54.9 "/>
<text transform="matrix(1 0 0 1 83.7797 48.6358)" class="st0 st1">H</text>
<text transform="matrix(1 0 0 1 88.103 48.6358)" class="st0 st1">O</text>
<polygon points="148.3,69.3 159.7,62.6 160,62.8 160,63.1 148.6,69.8 148.3,69.6 "/>
<polygon points="160.4,90.1 160.5,100.5 160.2,100.5 159.9,100.5 159.9,90.1 160.1,89.9 "/>
<text transform="matrix(1 0 0 1 158.2138 105.9112)" class="st0 st1">S</text>
<polygon points="157.7,104.6 149.5,104.6 149.5,104.4 149.5,104.1 157.7,104 157.7,104.3 "/>
<polygon points="157.7,103 149.5,103 149.5,102.7 149.5,102.5 157.7,102.4 157.7,102.7 "/>
<text transform="matrix(1 0 0 1 144.3085 105.9786)" class="st0 st1">O</text>
<polygon points="162.7,102.4 170.9,102.3 170.9,102.6 170.9,102.9 162.7,102.9 162.7,102.7 "/>
<polygon points="162.7,104 170.9,104 170.9,104.2 170.9,104.5 162.8,104.6 162.8,104.3 "/>
<text transform="matrix(1 0 0 1 171.4521 105.8438)" class="st0 st1">O</text>
<polygon points="160.5,106.5 160.5,114 160.3,114 160,114 160,106.5 160.2,106.5 "/>
<text transform="matrix(1 0 0 1 157.9482 119.4835)" class="st0 st1">O</text>
<text transform="matrix(1 0 0 1 162.6034 119.4835)" class="st0 st1">H</text>
<polygon points="172.1,82.9 181.1,88 180.9,88.3 180.8,88.5 171.9,83.4 171.9,83.1 "/>
<text transform="matrix(1 0 0 1 181.4882 91.4503)" class="st0 st1">N</text>
<text transform="matrix(1 0 0 1 185.8105 91.4503)" class="st0 st1">H</text>
<text transform="matrix(1 0 0 1 190.1327 92.3712)" class="st0 st2">2</text>
</svg>
