<svg id="图层_1" data-name="图层 1" xmlns="http://www.w3.org/2000/svg" viewBox="0 0 200 130"><defs><style>.cls-1,.cls-2{isolation:isolate;}.cls-2{font-size:13.54px;font-family:ArialMT, Arial;}</style></defs><polygon points="85.53 126.24 85.89 109.98 86.51 109.64 87.12 110.01 86.76 126.27 86.14 126.25 85.53 126.24"/><polygon points="85.89 109.98 71.69 101.35 72.31 101.01 72.93 100.67 86.53 108.93 86.51 109.64 85.89 109.98"/><polygon points="86.29 105.91 75.72 99.49 76.04 98.97 76.36 98.44 86.93 104.86 86.61 105.39 86.29 105.91"/><polygon points="71.69 101.35 72.06 84.74 72.68 84.4 73.28 84.76 72.93 100.67 72.31 101.01 71.69 101.35"/><polygon points="72.69 83.69 86.65 76.04 87.25 76.41 87.24 77.12 73.28 84.76 72.68 84.4 72.69 83.69"/><polygon points="76.02 86.07 86.86 80.12 87.16 80.66 87.45 81.2 76.61 87.14 76.31 86.6 76.02 86.07"/><polygon points="87.87 76.07 102.08 84.69 101.46 85.03 100.84 85.38 87.24 77.12 87.25 76.41 87.87 76.07"/><polygon points="102.08 84.69 101.71 101.31 101.09 101.65 100.48 101.28 100.84 85.38 101.46 85.03 102.08 84.69"/><polygon points="98.34 87.09 98.07 99.46 97.45 99.44 96.84 99.43 97.11 87.07 97.73 87.08 98.34 87.09"/><polygon points="101.71 101.31 109.5 106.04 109.18 106.56 108.86 107.09 101.07 102.36 101.09 101.65 101.71 101.31"/><g class="cls-1"><text class="cls-2" transform="translate(110.41 115.76)">N</text></g><polygon points="115.76 117.12 115.54 126.91 114.92 126.89 114.31 126.88 114.53 117.09 115.14 117.11 115.76 117.12"/><polygon points="121.11 106.39 129.57 101.75 129.87 102.29 130.16 102.83 121.7 107.47 121.41 106.93 121.11 106.39"/><polygon points="101.07 102.36 87.12 110.01 86.51 109.64 86.53 108.93 100.48 101.28 101.09 101.65 101.07 102.36"/><polygon points="86.65 76.04 86.86 66.61 87.47 66.62 88.08 66.63 87.87 76.07 87.25 76.41 86.65 76.04"/><g class="cls-1"><text class="cls-2" transform="translate(82.73 65.27)">N</text></g><polygon points="81.19 56.6 73.4 51.87 73.42 51.16 74.04 50.82 81.83 55.55 81.51 56.08 81.19 56.6"/><polygon points="69.17 48.94 69.34 41.28 69.95 41.29 70.56 41.31 70.39 48.97 69.78 48.96 69.17 48.94"/><polygon points="72.81 50.8 73.02 41.36 73.63 41.38 74.25 41.39 74.04 50.82 73.42 51.16 72.81 50.8"/><g class="cls-1"><text class="cls-2" transform="translate(68.9 40.03)">N</text></g><polygon points="67.35 31.36 59.56 26.63 59.58 25.92 59.6 25.21 67.99 30.31 67.67 30.83 67.35 31.36"/><polygon points="57.1 26.93 57.34 16.08 57.96 16.09 58.57 16.11 58.33 26.96 57.72 26.94 57.1 26.93"/><polygon points="60.78 27.01 61.03 16.16 61.64 16.17 62.25 16.19 62.01 27.04 61.4 27.02 60.78 27.01"/><g class="cls-1"><text class="cls-2" transform="translate(54.68 14.79)">O</text></g><polygon points="59.56 26.63 51.42 31.09 51.12 30.56 50.83 30.02 59.6 25.21 59.58 25.92 59.56 26.63"/><g class="cls-1"><text class="cls-2" transform="translate(30.34 39.39)">H</text><text class="cls-2" transform="translate(40.12 39.39)">N</text></g><polygon points="45.47 40.75 45.26 50.18 44.64 50.52 44.02 50.87 44.24 40.72 44.85 40.74 45.47 40.75"/><polygon points="46.75 52.17 37.74 57.11 37.44 56.57 37.15 56.03 46.16 51.09 46.45 51.63 46.75 52.17"/><polygon points="44.98 48.94 35.97 53.88 35.67 53.34 35.38 52.8 44.39 47.86 44.68 48.4 44.98 48.94"/><g class="cls-1"><text class="cls-2" transform="translate(24.8 64)">O</text></g><polygon points="45.26 50.18 58.86 58.44 58.84 59.15 58.22 59.49 44.02 50.87 44.64 50.52 45.26 50.18"/><polygon points="63.09 61.37 62.92 69.04 62.31 69.02 61.69 69.01 61.86 61.35 62.48 61.36 63.09 61.37"/><polygon points="59.45 59.52 59.24 68.95 58.63 68.94 58.01 68.93 58.22 59.49 58.84 59.15 59.45 59.52"/><g class="cls-1"><text class="cls-2" transform="translate(53.59 81.25)">N</text></g><polygon points="64.91 78.96 72.69 83.69 72.68 84.4 72.06 84.74 64.27 80.01 64.59 79.48 64.91 78.96"/><polygon points="58.86 58.44 72.81 50.8 73.42 51.16 73.4 51.87 59.45 59.52 58.84 59.15 58.86 58.44"/><polygon points="93.44 55.9 102.21 51.09 102.2 51.8 102.18 52.51 94.03 56.98 93.74 56.44 93.44 55.9"/><polygon points="102.21 51.09 116.42 59.72 116.4 60.43 115.78 60.77 102.18 52.51 102.2 51.8 102.21 51.09"/><polygon points="116.42 59.72 130.37 52.08 130.98 52.44 130.96 53.15 117.01 60.8 116.4 60.43 116.42 59.72"/><polygon points="131.6 52.1 145.2 60.36 145.18 61.07 144.56 61.41 130.96 53.15 130.98 52.44 131.6 52.1"/><polygon points="145.2 60.36 159.77 52.37 159.76 53.08 159.74 53.79 145.79 61.44 145.18 61.07 145.2 60.36"/><polygon points="159.77 52.37 167.79 57.24 167.47 57.77 167.15 58.29 159.74 53.79 159.76 53.08 159.77 52.37"/><g class="cls-1"><text class="cls-2" transform="translate(168.7 67.19)">O</text><text class="cls-2" transform="translate(179.22 67.19)">H</text></g><polygon points="145.79 61.44 145.58 70.87 144.96 70.86 144.35 70.84 144.56 61.41 145.18 61.07 145.79 61.44"/><g class="cls-1"><text class="cls-2" transform="translate(139.55 83.17)">O</text><text class="cls-2" transform="translate(150.08 83.17)">H</text></g><polygon points="130.37 52.08 130.58 42.64 131.19 42.66 131.81 42.67 131.6 52.1 130.98 52.44 130.37 52.08"/><g class="cls-1"><text class="cls-2" transform="translate(126.08 41.31)">O</text><text class="cls-2" transform="translate(136.61 41.31)">H</text></g><polygon points="117.01 60.8 116.8 70.23 116.18 70.22 115.57 70.21 115.78 60.77 116.4 60.43 117.01 60.8"/><g class="cls-1"><text class="cls-2" transform="translate(110.77 82.53)">O</text><text class="cls-2" transform="translate(121.3 82.53)">H</text></g></svg>