<svg id="图层_1" data-name="图层 1" xmlns="http://www.w3.org/2000/svg" viewBox="0 0 200 130"><defs><style>.cls-1,.cls-2{isolation:isolate;}.cls-2{font-size:10.03px;font-family:ArialMT, Arial;}</style></defs><polygon points="55.6 36.39 70.42 31.37 70.32 31.88 70.22 32.4 56.39 37.08 56 36.74 55.6 36.39"/><polygon points="58.22 38.39 69.56 34.54 69.7 34.97 69.85 35.41 58.51 39.25 58.37 38.82 58.22 38.39"/><polygon points="70.42 31.37 82.18 41.69 81.69 41.86 81.19 42.03 70.22 32.4 70.32 31.88 70.42 31.37"/><polygon points="82.18 41.69 79.23 56.52 78.73 56.69 78.33 56.34 81.19 42.03 81.69 41.86 82.18 41.69"/><polygon points="79.14 42.96 76.81 54.7 76.36 54.61 75.91 54.52 78.25 42.78 78.7 42.87 79.14 42.96"/><polygon points="78.63 57.2 64.8 61.89 64.41 61.54 64.51 61.03 78.33 56.34 78.73 56.69 78.63 57.2"/><polygon points="63.91 61.71 52.54 51.74 53.04 51.57 53.54 51.4 64.51 61.03 64.41 61.54 63.91 61.71"/><polygon points="64.72 58.79 55.73 50.9 56.03 50.56 56.33 50.21 65.32 58.11 65.02 58.45 64.72 58.79"/><polygon points="52.54 51.74 55.6 36.39 56 36.74 56.39 37.08 53.54 51.4 53.04 51.57 52.54 51.74"/><polygon points="64.8 61.89 61.95 76.21 61.45 76.38 60.95 76.55 63.91 61.71 64.41 61.54 64.8 61.89"/><polygon points="64.74 75.02 73.73 82.92 73.43 83.26 73.13 83.6 64.14 75.71 64.44 75.36 64.74 75.02"/><polygon points="61.95 76.21 72.92 85.84 72.81 86.35 72.32 86.52 60.95 76.55 61.45 76.38 61.95 76.21"/><polygon points="73.21 86.7 70.36 101.02 69.86 101.18 69.36 101.35 72.32 86.52 72.81 86.35 73.21 86.7"/><polygon points="71.19 102.65 60.93 106.13 60.78 105.7 60.63 105.27 70.9 101.79 71.04 102.22 71.19 102.65"/><polygon points="70.31 100.07 60.05 103.55 59.9 103.12 59.76 102.69 70.02 99.21 70.17 99.64 70.31 100.07"/><g class="cls-1"><text class="cls-2" transform="translate(51.65 110.12) rotate(-0.26)">O</text></g><polygon points="70.36 101.02 76.97 106.82 76.67 107.17 76.37 107.51 69.36 101.35 69.86 101.18 70.36 101.02"/><g class="cls-1"><text class="cls-2" transform="translate(77.62 115.24) rotate(-0.26)">N</text></g><g class="cls-1"><text class="cls-2" transform="translate(77.66 124.4) rotate(-0.26)">H</text></g><polygon points="85.61 109.19 95.15 105.96 95.55 106.31 95.94 106.65 85.9 110.06 85.75 109.63 85.61 109.19"/><polygon points="96.16 104.42 103.28 110.67 102.98 111.01 102.68 111.36 95.56 105.1 95.86 104.76 96.16 104.42"/><polygon points="94.35 106.47 101.48 112.72 101.18 113.06 100.88 113.41 93.75 107.15 94.05 106.81 94.35 106.47"/><g class="cls-1"><text class="cls-2" transform="translate(103.03 120.37) rotate(-0.26)">O</text></g><polygon points="95.15 105.96 97.05 96.45 97.49 96.54 97.94 96.63 95.94 106.65 95.55 106.31 95.15 105.96"/><g class="cls-1"><text class="cls-2" transform="translate(94.9 95.56) rotate(-0.26)">N</text></g><polygon points="91.85 89.87 86.22 84.93 86.52 84.59 86.82 84.25 92.45 89.19 92.15 89.53 91.85 89.87"/><polygon points="93.65 87.82 87.03 82.01 87.14 81.5 87.64 81.33 94.25 87.14 93.95 87.48 93.65 87.82"/><polygon points="86.74 81.15 88.64 71.64 89.08 71.73 89.53 71.82 87.64 81.33 87.14 81.5 86.74 81.15"/><g class="cls-1"><text class="cls-2" transform="translate(86.49 70.75) rotate(-0.26)">N</text></g><polygon points="94.47 64.7 104.02 61.46 104.42 61.81 104.81 62.16 94.77 65.56 94.62 65.13 94.47 64.7"/><polygon points="104.02 61.46 106.88 47.15 107.37 46.98 107.77 47.33 104.81 62.16 104.42 61.81 104.02 61.46"/><polygon points="107.48 46.46 121.3 41.78 121.7 42.12 121.59 42.64 107.77 47.33 107.37 46.98 107.48 46.46"/><polygon points="121.3 41.78 124.16 27.46 124.65 27.29 125.05 27.64 122.19 41.95 121.7 42.12 121.3 41.78"/><polygon points="124.76 26.78 138.58 22.09 138.98 22.44 139.37 22.78 125.05 27.64 124.65 27.29 124.76 26.78"/><polygon points="138.58 22.09 140.48 12.58 140.92 12.67 141.37 12.76 139.37 22.78 138.98 22.44 138.58 22.09"/><g class="cls-1"><text class="cls-2" transform="translate(138.05 11.69) rotate(-0.26)">O</text><text class="cls-2" transform="translate(145.86 11.65) rotate(-0.26)">H</text></g><polygon points="124.16 27.46 117.82 21.9 118.12 21.56 118.42 21.22 124.76 26.78 124.65 27.29 124.16 27.46"/><g class="cls-1"><text class="cls-2" transform="translate(102.16 21.43) rotate(-0.26)">H</text><text class="cls-2" transform="translate(109.4 21.4) rotate(-0.26)">O</text></g><polygon points="122.19 41.95 128.53 47.52 128.23 47.86 127.93 48.2 121.59 42.64 121.7 42.12 122.19 41.95"/><g class="cls-1"><text class="cls-2" transform="translate(129.18 56.18) rotate(-0.26)">O</text><text class="cls-2" transform="translate(136.98 56.15) rotate(-0.26)">H</text></g><polygon points="106.88 47.15 100.54 41.59 100.84 41.24 101.14 40.9 107.48 46.46 107.37 46.98 106.88 47.15"/><g class="cls-1"><text class="cls-2" transform="translate(84.88 41.12) rotate(-0.26)">H</text><text class="cls-2" transform="translate(92.13 41.09) rotate(-0.26)">O</text></g><polygon points="85.24 63.01 78.63 57.2 78.73 56.69 79.23 56.52 85.84 62.33 85.54 62.67 85.24 63.01"/><polygon points="87.03 82.01 73.21 86.7 72.81 86.35 72.92 85.84 86.74 81.15 87.14 81.5 87.03 82.01"/></svg>