<svg id="图层_1" data-name="图层 1" xmlns="http://www.w3.org/2000/svg" viewBox="0 0 200 130"><defs><style>.cls-1,.cls-2{isolation:isolate;}.cls-2{font-size:9.29px;font-family:ArialMT, Arial;}</style></defs><polygon points="175.57 123.48 175.57 107.1 175.99 107.1 176.41 107.1 176.42 123.48 176 123.48 175.57 123.48"/><g class="cls-1"><text class="cls-2" transform="translate(172.38 106.18)">O</text></g><polygon points="171.32 100.21 157.75 92.38 157.75 91.89 158.17 91.65 171.74 99.48 171.53 99.85 171.32 100.21"/><polygon points="158.16 70.59 158.17 91.65 157.75 91.89 157.33 91.65 157.32 71.08 157.74 70.83 158.16 70.59"/><polygon points="155.64 72.29 155.64 90.43 155.22 90.43 154.8 90.44 154.79 72.29 155.22 72.29 155.64 72.29"/><polygon points="157.32 71.08 139.5 60.8 139.5 60.31 139.5 59.82 158.16 70.59 157.74 70.83 157.32 71.08"/><polygon points="121.27 70.36 139.5 59.82 139.5 60.31 139.5 60.8 121.69 71.09 121.27 70.84 121.27 70.36"/><polygon points="123.58 71.94 139.29 62.86 139.5 63.23 139.71 63.59 124 72.67 123.79 72.3 123.58 71.94"/><polygon points="121.69 71.09 121.69 91.66 121.27 91.9 120.85 91.66 120.84 71.09 121.27 70.84 121.69 71.09"/><polygon points="139.51 102.91 121.27 92.39 121.27 91.9 121.69 91.66 139.51 101.94 139.51 102.43 139.51 102.91"/><polygon points="139.3 99.87 123.59 90.81 123.8 90.44 124.01 90.08 139.72 99.14 139.51 99.51 139.3 99.87"/><polygon points="139.51 101.94 157.33 91.65 157.75 91.89 157.75 92.38 139.51 102.91 139.51 102.43 139.51 101.94"/><polygon points="121.27 92.39 107.7 100.23 107.49 99.86 107.28 99.5 120.85 91.66 121.27 91.9 121.27 92.39"/><g class="cls-1"><text class="cls-2" transform="translate(99.42 106.2)">O</text></g><polygon points="98.37 100.23 84.8 92.4 84.8 91.91 85.22 91.67 98.79 99.5 98.58 99.87 98.37 100.23"/><polygon points="66.35 99.17 82.06 90.09 82.27 90.45 82.48 90.82 66.77 99.89 66.56 99.53 66.35 99.17"/><polygon points="66.56 101.96 84.37 91.67 84.8 91.91 84.8 92.4 66.56 102.93 66.56 102.45 66.56 101.96"/><polygon points="66.56 102.93 48.32 92.41 48.32 91.92 48.74 91.68 66.56 101.96 66.56 102.45 66.56 102.93"/><polygon points="48.32 92.41 34.75 100.25 34.54 99.88 34.33 99.52 47.9 91.68 48.32 91.92 48.32 92.41"/><g class="cls-1"><text class="cls-2" transform="translate(19.77 106.22)">H</text><text class="cls-2" transform="translate(26.47 106.22)">O</text></g><polygon points="51.26 72.32 51.27 90.46 50.85 90.46 50.42 90.46 50.42 72.32 50.84 72.32 51.26 72.32"/><polygon points="48.73 71.11 48.74 91.68 48.32 91.92 47.9 91.68 47.89 70.62 48.31 70.86 48.73 71.11"/><polygon points="47.89 70.62 66.55 59.84 66.55 60.33 66.55 60.81 48.73 71.11 48.31 70.86 47.89 70.62"/><polygon points="82.05 72.68 66.34 63.61 66.55 63.25 66.76 62.88 82.47 71.95 82.26 72.31 82.05 72.68"/><polygon points="84.37 71.1 66.55 60.81 66.55 60.33 66.55 59.84 84.79 70.37 84.79 70.85 84.37 71.1"/><polygon points="84.79 70.37 102.81 59.95 103.03 60.32 103.03 60.8 85.21 71.1 84.79 70.85 84.79 70.37"/><polygon points="103.25 59.9 102.7 60.66 102.36 60.41 102.01 60.16 102.56 59.41 102.9 59.65 103.25 59.9"/><polygon points="101.41 58.28 100.58 59.41 100.24 59.16 99.9 58.91 100.72 57.78 101.06 58.03 101.41 58.28"/><polygon points="99.57 56.66 98.47 58.16 98.13 57.91 97.79 57.67 98.89 56.16 99.22 56.41 99.57 56.66"/><polygon points="97.73 55.04 96.36 56.92 96.02 56.67 95.68 56.42 97.05 54.54 97.39 54.79 97.73 55.04"/><polygon points="95.89 53.41 94.25 55.67 93.91 55.42 93.57 55.17 95.21 52.92 95.55 53.17 95.89 53.41"/><polygon points="94.05 51.79 92.14 54.42 91.8 54.17 91.46 53.93 93.37 51.3 93.71 51.55 94.05 51.79"/><polygon points="92.21 50.17 90.03 53.17 89.69 52.93 89.35 52.68 91.53 49.68 91.87 49.92 92.21 50.17"/><g class="cls-1"><text class="cls-2" transform="translate(82.37 51.71)">O</text></g><polygon points="87.1 43.13 92.18 27.49 92.49 27.91 92.79 28.34 87.91 43.39 87.5 43.26 87.1 43.13"/><polygon points="84.87 14.57 94.39 27.67 94.05 27.91 93.71 28.16 84.19 15.07 84.53 14.82 84.87 14.57"/><polygon points="82.83 16.06 92.34 29.15 92 29.4 91.66 29.65 82.15 16.55 82.49 16.31 82.83 16.06"/><g class="cls-1"><text class="cls-2" transform="translate(76.49 14.64)">O</text></g><polygon points="92.18 27.49 113.36 27.49 113.55 27.91 113.24 28.33 92.79 28.34 92.49 27.91 92.18 27.49"/><polygon points="120.16 48.39 103.8 60.28 103.03 60.32 102.78 59.98 119.56 47.77 120.06 47.94 120.16 48.39"/><polygon points="103.8 60.28 121.27 70.36 121.27 70.84 120.84 71.09 103.03 60.8 103.03 60.32 103.8 60.28"/><polygon points="85.21 71.1 85.22 91.67 84.8 91.91 84.37 91.67 84.37 71.1 84.79 70.85 85.21 71.1"/><polygon points="140.51 51.84 154.27 36.55 154.75 36.65 155.22 36.75 140.81 52.77 140.66 52.31 140.51 51.84"/><polygon points="147.91 16.99 127.78 12.72 127.63 12.25 127.48 11.79 148.56 16.27 148.23 16.63 147.91 16.99"/><polygon points="114.02 28.01 120.38 47.57 120.06 47.94 119.56 47.77 113.24 28.33 113.55 27.91 114.02 28.01"/><polygon points="128.85 15.31 116.71 28.8 116.4 28.51 116.09 28.23 128.22 14.75 128.53 15.03 128.85 15.31"/><polygon points="127.78 12.72 114.02 28.01 113.55 27.91 113.36 27.49 127.48 11.79 127.63 12.25 127.78 12.72"/><polygon points="151.49 36.18 145.88 18.93 146.28 18.8 146.68 18.66 152.29 35.92 151.89 36.05 151.49 36.18"/><polygon points="154.27 36.55 147.91 16.99 148.23 16.63 148.56 16.27 155.22 36.75 154.75 36.65 154.27 36.55"/><polygon points="122.1 45.35 139.84 49.12 139.76 49.53 139.67 49.95 121.92 46.18 122.01 45.77 122.1 45.35"/><polygon points="120.38 47.57 140.51 51.84 140.66 52.31 140.81 52.77 120.16 48.39 120.06 47.94 120.38 47.57"/></svg>