<svg id="图层_1" data-name="图层 1" xmlns="http://www.w3.org/2000/svg" viewBox="0 0 200 130"><defs><style>.cls-1,.cls-2{isolation:isolate;}.cls-2{font-size:8.96px;font-family:ArialMT, Arial;}</style></defs><g class="cls-1"><text class="cls-2" transform="translate(117.85 14.63)">O</text></g><polygon points="107.52 27.16 116.72 14.56 117.05 14.8 117.38 15.04 108.17 27.64 107.85 27.4 107.52 27.16"/><polygon points="109.49 28.6 118.69 16 119.02 16.24 119.35 16.48 110.14 29.08 109.81 28.84 109.49 28.6"/><polygon points="109.65 27 114.51 42.1 114.13 42.23 113.74 42.35 109.06 27.81 109.35 27.41 109.65 27"/><g class="cls-1"><text class="cls-2" transform="translate(112.1 50.38)">O</text></g><polygon points="111.52 50.18 99.72 58.71 99.11 58.65 99.12 58.15 111.05 49.52 111.28 49.85 111.52 50.18"/><polygon points="99.11 59.26 85.94 73.81 85.48 73.71 85.34 73.27 98.51 58.71 99.11 58.65 99.11 59.26"/><polygon points="88.57 92.59 83.21 75.93 83.59 75.8 83.98 75.68 89.35 92.34 88.96 92.46 88.57 92.59"/><polygon points="91.25 92.95 85.17 74.06 85.48 73.71 85.94 73.81 92.17 93.15 91.71 93.05 91.25 92.95"/><polygon points="92.17 93.15 78.22 108.56 78.08 108.12 77.93 107.67 91.25 92.95 91.71 93.05 92.17 93.15"/><polygon points="60.19 101.36 77.3 105.04 77.22 105.44 77.13 105.84 60.02 102.15 60.1 101.76 60.19 101.36"/><polygon points="58.53 103.5 77.93 107.67 78.08 108.12 78.22 108.56 58.36 104.29 58.21 103.84 58.53 103.5"/><polygon points="58.36 104.29 48.97 114.66 48.67 114.39 48.37 114.12 57.76 103.75 58.21 103.84 58.36 104.29"/><g class="cls-1"><text class="cls-2" transform="translate(34.63 122.54)">H</text><text class="cls-2" transform="translate(41.1 122.54)">O</text></g><polygon points="57.76 103.75 51.52 84.41 51.98 84.5 52.44 84.6 58.53 103.5 58.21 103.84 57.76 103.75"/><polygon points="66.78 72.39 55.04 85.37 54.74 85.1 54.44 84.82 66.18 71.85 66.48 72.12 66.78 72.39"/><polygon points="65.76 69.89 52.44 84.6 51.98 84.5 51.52 84.41 65.47 68.99 65.62 69.44 65.76 69.89"/><polygon points="65.47 68.99 85.34 73.27 85.48 73.71 85.17 74.06 65.76 69.89 65.62 69.44 65.47 68.99"/><polygon points="99.72 58.71 112.82 73.34 112.67 73.78 112.21 73.88 99.11 59.26 99.11 58.65 99.72 58.71"/><polygon points="131.76 72.68 114.64 76.28 114.55 75.88 114.47 75.48 131.6 71.89 131.68 72.28 131.76 72.68"/><polygon points="132.41 70.05 112.99 74.13 112.67 73.78 112.82 73.34 132.7 69.16 132.56 69.61 132.41 70.05"/><polygon points="132.7 69.16 146.57 84.64 146.12 84.74 145.66 84.84 132.41 70.05 132.56 69.61 132.7 69.16"/><polygon points="137.52 101.83 142.97 85.19 143.36 85.32 143.75 85.45 138.3 102.08 137.91 101.95 137.52 101.83"/><polygon points="139.47 103.7 145.66 84.84 146.12 84.74 146.57 84.64 140.25 103.95 139.79 104.05 139.47 103.7"/><polygon points="140.25 103.95 149.6 114.39 149.3 114.66 148.99 114.94 139.64 104.5 139.79 104.05 140.25 103.95"/><g class="cls-1"><text class="cls-2" transform="translate(149.86 122.81)">O</text><text class="cls-2" transform="translate(156.83 122.81)">H</text></g><polygon points="139.64 104.5 119.76 108.67 119.9 108.22 120.05 107.78 139.47 103.7 139.79 104.05 139.64 104.5"/><polygon points="109.4 92.24 121.08 105.28 120.78 105.55 120.48 105.82 108.8 92.78 109.1 92.51 109.4 92.24"/><polygon points="106.81 92.99 120.05 107.78 119.9 108.22 119.76 108.67 105.89 93.19 106.35 93.09 106.81 92.99"/><polygon points="105.89 93.19 112.21 73.88 112.67 73.78 112.99 74.13 106.81 92.99 106.35 93.09 105.89 93.19"/><polygon points="98.51 58.71 82.61 47.1 82.71 46.66 83.19 46.51 99.12 58.15 99.11 58.65 98.51 58.71"/><polygon points="63.62 47.77 80.75 44.17 80.83 44.57 80.91 44.97 63.78 48.56 63.7 48.16 63.62 47.77"/><polygon points="62.97 50.39 82.39 46.31 82.71 46.66 82.61 47.1 62.68 51.28 62.82 50.84 62.97 50.39"/><polygon points="62.68 51.28 48.8 35.8 49.27 35.7 49.72 35.61 62.97 50.39 62.82 50.84 62.68 51.28"/><polygon points="57.86 18.62 52.41 35.25 52.02 35.13 51.63 35 57.08 18.37 57.47 18.49 57.86 18.62"/><polygon points="55.91 16.75 49.72 35.61 49.27 35.7 48.8 35.8 55.28 16.05 55.59 16.4 55.91 16.75"/><polygon points="55.28 16.05 75.62 11.78 75.48 12.22 75.33 12.67 55.91 16.75 55.59 16.4 55.28 16.05"/><polygon points="85.98 28.21 74.3 15.17 74.6 14.9 74.9 14.63 86.58 27.66 86.28 27.93 85.98 28.21"/><polygon points="88.58 27.45 75.33 12.67 75.48 12.22 75.62 11.78 89.22 26.95 89.03 27.36 88.58 27.45"/><polygon points="89.22 26.95 109.65 27 109.35 27.41 109.06 27.81 89.33 27.76 89.03 27.36 89.22 26.95"/><polygon points="89.33 27.76 83.19 46.51 82.71 46.66 82.39 46.31 88.58 27.45 89.03 27.36 89.33 27.76"/></svg>