<svg id="图层_1" data-name="图层 1" xmlns="http://www.w3.org/2000/svg" viewBox="0 0 200 130"><defs><style>.cls-1,.cls-2,.cls-3{isolation:isolate;}.cls-2{font-size:10.44px;}.cls-2,.cls-3{font-family:ArialMT, Arial;}.cls-3{font-size:6.43px;}</style></defs><g class="cls-1"><text class="cls-2" transform="translate(177.08 118.5)">N</text><text class="cls-2" transform="translate(184.63 118.5)">H</text><text class="cls-3" transform="translate(192.17 120.11)">2</text></g><polygon points="175.9 113.31 160.34 104.34 160.34 103.8 160.81 103.52 176.37 112.49 176.14 112.9 175.9 113.31"/><polygon points="160.79 79.84 160.81 103.52 160.34 103.8 159.86 103.52 159.85 80.39 160.32 80.11 160.79 79.84"/><polygon points="157.95 81.76 157.97 102.16 157.49 102.16 157.02 102.16 157 81.76 157.48 81.76 157.95 81.76"/><polygon points="159.85 80.39 139.8 68.84 139.8 68.29 139.8 67.74 160.79 79.84 160.32 80.11 159.85 80.39"/><polygon points="119.3 79.6 139.8 67.74 139.8 68.29 139.8 68.84 119.78 80.42 119.3 80.14 119.3 79.6"/><polygon points="121.91 81.37 139.57 71.16 139.8 71.57 140.04 71.98 122.38 82.19 122.14 81.78 121.91 81.37"/><polygon points="119.78 80.42 119.79 103.55 119.32 103.83 118.85 103.55 118.83 80.42 119.3 80.14 119.78 80.42"/><polygon points="139.84 116.2 119.32 104.37 119.32 103.83 119.79 103.55 139.84 115.1 139.84 115.65 139.84 116.2"/><polygon points="139.6 112.78 121.92 102.59 122.16 102.18 122.4 101.77 140.07 111.96 139.84 112.37 139.6 112.78"/><polygon points="139.84 115.1 159.86 103.52 160.34 103.8 160.34 104.34 139.84 116.2 139.84 115.65 139.84 115.1"/><polygon points="119.32 104.37 104.07 113.19 103.83 112.78 103.59 112.38 118.85 103.55 119.32 103.83 119.32 104.37"/><g class="cls-1"><text class="cls-2" transform="translate(94.76 119.91)">O</text></g><polygon points="93.58 113.21 78.3 104.41 78.3 103.86 78.78 103.58 94.05 112.39 93.81 112.8 93.58 113.21"/><polygon points="57.56 112.02 75.22 101.81 75.46 102.22 75.7 102.63 58.04 112.84 57.8 112.43 57.56 112.02"/><polygon points="57.8 115.17 77.83 103.58 78.3 103.86 78.3 104.41 57.8 116.26 57.8 115.71 57.8 115.17"/><polygon points="57.8 116.26 37.28 104.44 37.28 103.89 37.76 103.62 57.8 115.17 57.8 115.71 57.8 116.26"/><polygon points="37.28 104.44 22.03 113.26 21.8 112.85 21.56 112.44 36.81 103.62 37.28 103.89 37.28 104.44"/><g class="cls-1"><text class="cls-2" transform="translate(5.18 119.98)">H</text><text class="cls-2" transform="translate(12.72 119.98)">O</text></g><polygon points="40.58 81.85 40.6 102.25 40.13 102.25 39.65 102.25 39.64 81.85 40.11 81.85 40.58 81.85"/><polygon points="37.74 80.48 37.76 103.62 37.28 103.89 36.81 103.62 36.79 79.94 37.27 80.21 37.74 80.48"/><polygon points="36.79 79.94 57.77 67.81 57.77 68.35 57.77 68.9 37.74 80.48 37.27 80.21 36.79 79.94"/><polygon points="75.21 82.23 57.53 72.04 57.77 71.63 58.01 71.22 75.68 81.41 75.44 81.82 75.21 82.23"/><polygon points="77.81 80.45 57.77 68.9 57.77 68.35 57.77 67.81 78.28 79.63 78.28 80.18 77.81 80.45"/><polygon points="78.28 79.63 98.55 67.91 98.78 68.32 98.78 68.87 78.76 80.45 78.28 80.18 78.28 79.63"/><polygon points="99.03 67.85 98.41 68.7 98.03 68.42 97.65 68.14 98.27 67.29 98.65 67.57 99.03 67.85"/><polygon points="96.96 66.03 96.04 67.3 95.66 67.02 95.27 66.74 96.19 65.47 96.58 65.75 96.96 66.03"/><polygon points="94.89 64.2 93.66 65.9 93.28 65.62 92.9 65.34 94.13 63.65 94.51 63.93 94.89 64.2"/><polygon points="92.82 62.38 91.29 64.5 90.91 64.22 90.52 63.94 92.06 61.83 92.44 62.1 92.82 62.38"/><polygon points="90.75 60.56 88.91 63.1 88.53 62.82 88.15 62.54 89.99 60 90.37 60.28 90.75 60.56"/><polygon points="88.68 58.74 86.54 61.69 86.16 61.42 85.77 61.14 87.92 58.18 88.3 58.46 88.68 58.74"/><polygon points="86.61 56.91 84.16 60.29 83.78 60.02 83.4 59.74 85.85 56.36 86.23 56.64 86.61 56.91"/><g class="cls-1"><text class="cls-2" transform="translate(75.55 58.64)">O</text></g><polygon points="80.87 49 86.57 31.41 86.92 31.89 87.26 32.36 81.77 49.29 81.32 49.15 80.87 49"/><polygon points="78.35 16.89 89.05 31.61 88.67 31.89 88.29 32.16 77.58 17.45 77.96 17.17 78.35 16.89"/><polygon points="76.05 18.56 86.76 33.28 86.37 33.56 85.99 33.84 75.28 19.12 75.67 18.84 76.05 18.56"/><g class="cls-1"><text class="cls-2" transform="translate(68.92 16.97)">O</text></g><polygon points="86.57 31.41 110.39 31.4 110.6 31.87 110.25 32.34 87.26 32.36 86.92 31.89 86.57 31.41"/><polygon points="118.04 54.89 99.65 68.27 98.78 68.32 98.51 67.94 117.38 54.2 117.93 54.39 118.04 54.89"/><polygon points="99.65 68.27 119.3 79.6 119.3 80.14 118.83 80.42 98.78 68.87 98.78 68.32 99.65 68.27"/><polygon points="78.76 80.45 78.78 103.58 78.3 103.86 77.83 103.58 77.81 80.45 78.28 80.18 78.76 80.45"/><polygon points="140.93 58.77 156.4 41.57 156.93 41.68 157.47 41.8 141.27 59.81 141.1 59.29 140.93 58.77"/><polygon points="149.23 19.57 126.6 14.78 126.43 14.26 126.26 13.74 149.96 18.76 149.6 19.16 149.23 19.57"/><polygon points="111.13 31.98 118.3 53.98 117.93 54.39 117.38 54.2 110.25 32.34 110.6 31.87 111.13 31.98"/><polygon points="127.8 17.7 114.16 32.87 113.81 32.55 113.45 32.23 127.09 17.06 127.45 17.38 127.8 17.7"/><polygon points="126.6 14.78 111.13 31.98 110.6 31.87 110.39 31.4 126.26 13.74 126.43 14.26 126.6 14.78"/><polygon points="153.27 41.15 146.95 21.75 147.4 21.61 147.85 21.46 154.17 40.85 153.72 41 153.27 41.15"/><polygon points="156.4 41.57 149.23 19.57 149.6 19.16 149.96 18.76 157.47 41.8 156.93 41.68 156.4 41.57"/><polygon points="120.22 51.48 140.18 55.71 140.08 56.17 139.99 56.63 120.03 52.41 120.13 51.95 120.22 51.48"/><polygon points="118.3 53.98 140.93 58.77 141.1 59.29 141.27 59.81 118.04 54.89 117.93 54.39 118.3 53.98"/></svg>