<svg id="图层_1" data-name="图层 1" xmlns="http://www.w3.org/2000/svg" viewBox="0 0 200 130"><defs><style>.cls-1,.cls-2,.cls-3{isolation:isolate;}.cls-2{font-size:10px;}.cls-2,.cls-3{font-family:ArialMT, Arial;}.cls-3{font-size:6.15px;}</style></defs><g class="cls-1"><text class="cls-2" transform="translate(160.65 13.77)">N</text><text class="cls-2" transform="translate(167.88 13.77)">H</text><text class="cls-3" transform="translate(175.1 15.31)">2</text></g><polygon points="160.09 16.34 149.62 27.98 149.11 27.88 148.94 27.38 159.41 15.73 159.75 16.04 160.09 16.34"/><polygon points="149.62 27.98 156.65 49.54 156.13 49.43 155.62 49.32 148.76 28.26 149.11 27.88 149.62 27.98"/><polygon points="147.44 30.07 153.49 48.64 153.06 48.78 152.63 48.92 146.58 30.35 147.01 30.21 147.44 30.07"/><polygon points="156.65 49.54 141.14 66.79 140.97 66.3 140.81 65.8 155.62 49.32 156.13 49.43 156.65 49.54"/><polygon points="141.14 66.79 118.9 62.09 118.79 61.6 119.14 61.21 140.81 65.8 140.97 66.3 141.14 66.79"/><polygon points="139.91 63.75 120.8 59.71 120.89 59.26 120.99 58.82 140.1 62.87 140 63.31 139.91 63.75"/><polygon points="118.26 61.43 111.44 40.5 111.77 40.04 112.28 40.15 119.14 61.21 118.79 61.6 118.26 61.43"/><polygon points="111.57 39.59 126.76 22.68 126.92 23.18 127.09 23.68 112.28 40.15 111.77 40.04 111.57 39.59"/><polygon points="114.5 40.39 127.56 25.86 127.9 26.17 128.24 26.47 115.18 41 114.84 40.69 114.5 40.39"/><polygon points="126.76 22.68 148.94 27.38 149.11 27.88 148.76 28.26 127.09 23.68 126.92 23.18 126.76 22.68"/><polygon points="111.44 40.5 89.42 40.52 89.09 40.06 88.76 39.61 111.57 39.59 111.77 40.04 111.44 40.5"/><polygon points="88.21 41.93 77.95 27.84 78.32 27.57 78.69 27.31 88.94 41.4 88.58 41.66 88.21 41.93"/><polygon points="90.41 40.33 80.16 26.24 80.52 25.97 80.89 25.71 91.14 39.79 90.78 40.06 90.41 40.33"/><g class="cls-1"><text class="cls-2" transform="translate(71.86 25.78)">O</text></g><polygon points="89.42 40.52 84.17 56.73 83.74 56.59 83.31 56.45 88.76 39.61 89.09 40.06 89.42 40.52"/><g class="cls-1"><text class="cls-2" transform="translate(78.22 65.68)">O</text></g><polygon points="87.17 64.74 100.46 74.38 100.46 74.94 99.63 74.9 86.64 65.48 86.9 65.11 87.17 64.74"/><polygon points="100.46 75.47 81.29 86.56 80.84 86.3 80.83 85.77 99.63 74.9 100.46 74.94 100.46 75.47"/><polygon points="77.89 88.26 60.97 78.51 61.19 78.12 61.42 77.73 78.34 87.48 78.12 87.87 77.89 88.26"/><polygon points="80.38 86.56 61.19 75.5 61.19 74.98 61.19 74.45 80.83 85.77 80.84 86.3 80.38 86.56"/><polygon points="61.19 75.5 42.02 86.59 41.56 86.33 41.11 86.07 61.19 74.45 61.19 74.98 61.19 75.5"/><polygon points="44.74 87.9 44.76 107.43 44.3 107.43 43.85 107.43 43.83 87.9 44.29 87.9 44.74 87.9"/><polygon points="42.02 86.59 42.04 108.74 41.58 109 41.13 108.74 41.11 86.07 41.56 86.33 42.02 86.59"/><polygon points="41.58 109.53 26.98 117.98 26.75 117.58 26.53 117.19 41.13 108.74 41.58 109 41.58 109.53"/><g class="cls-1"><text class="cls-2" transform="translate(10.85 124.41)">H</text><text class="cls-2" transform="translate(18.07 124.41)">O</text></g><polygon points="42.04 108.74 61.23 119.8 61.23 120.33 61.23 120.85 41.58 109.53 41.58 109 42.04 108.74"/><polygon points="61 116.79 77.91 107.01 78.13 107.4 78.36 107.8 61.45 117.58 61.23 117.18 61 116.79"/><polygon points="61.23 119.8 80.4 108.71 80.86 108.97 80.86 109.5 61.23 120.85 61.23 120.33 61.23 119.8"/><polygon points="81.31 108.71 95.93 117.13 95.7 117.53 95.48 117.92 80.86 109.5 80.86 108.97 81.31 108.71"/><g class="cls-1"><text class="cls-2" transform="translate(96.61 124.34)">O</text></g><polygon points="105.07 117.12 119.67 108.67 120.13 108.94 120.13 109.46 105.52 117.91 105.3 117.52 105.07 117.12"/><polygon points="119.65 86.53 100.46 75.47 100.46 74.94 101.29 74.9 120.11 85.74 120.11 86.26 119.65 86.53"/><polygon points="80.4 108.71 80.38 86.56 80.84 86.3 81.29 86.56 81.31 108.71 80.86 108.97 80.4 108.71"/><polygon points="100.46 74.38 118.26 61.43 118.79 61.6 118.9 62.09 101.29 74.9 100.46 74.94 100.46 74.38"/><polygon points="139.73 74.39 159.83 85.97 159.38 86.23 158.93 86.49 139.73 75.43 139.73 74.91 139.73 74.39"/><polygon points="159.4 109.43 139.77 120.78 139.77 120.26 139.77 119.73 158.94 108.64 159.4 108.9 159.4 109.43"/><polygon points="119.67 108.67 119.65 86.53 120.11 86.26 120.56 86.52 120.58 108.67 120.13 108.94 119.67 108.67"/><polygon points="120.11 85.74 139.73 74.39 139.73 74.91 139.73 75.43 120.56 86.53 120.11 86.26 120.11 85.74"/><polygon points="122.6 87.44 139.51 77.66 139.74 78.05 139.96 78.44 123.06 88.22 122.83 87.83 122.6 87.44"/><polygon points="159.83 85.97 159.85 108.64 159.4 108.9 158.94 108.64 158.93 86.49 159.38 86.23 159.83 85.97"/><polygon points="157.11 87.8 157.13 107.33 156.68 107.33 156.22 107.33 156.21 87.8 156.66 87.8 157.11 87.8"/><polygon points="139.77 120.78 120.13 109.46 120.13 108.94 120.58 108.67 139.77 119.73 139.77 120.26 139.77 120.78"/><polygon points="139.54 117.51 122.62 107.76 122.85 107.36 123.07 106.97 140 116.72 139.77 117.11 139.54 117.51"/><polygon points="159.85 108.64 174.48 117.06 174.25 117.45 174.03 117.85 159.4 109.43 159.4 108.9 159.85 108.64"/><g class="cls-1"><text class="cls-2" transform="translate(175.16 124.26)">O</text><text class="cls-2" transform="translate(182.94 124.26)">H</text></g></svg>