<?xml version="1.0" encoding="utf-8"?>
<!-- Generator: Adobe Illustrator 25.4.1, SVG Export Plug-In . SVG Version: 6.00 Build 0)  -->
<svg version="1.1" id="图层_1" xmlns="http://www.w3.org/2000/svg" xmlns:xlink="http://www.w3.org/1999/xlink" x="0px" y="0px"
	 viewBox="0 0 200 130" style="enable-background:new 0 0 200 130;" xml:space="preserve">
<style type="text/css">
	.st0{font-family:'ArialMT';}
	.st1{font-size:7.1686px;}
</style>
<g>
	<polygon points="128.9,3 128.9,19.1 128.6,19.3 128.2,19.1 128.3,3 128.6,3 	"/>
	<polygon points="128.9,19.1 143,27.2 142.6,27.4 142.3,27.6 128.6,19.6 128.6,19.3 	"/>
	<polygon points="128.7,21.2 140.8,28.3 140.7,28.5 140.5,28.8 128.4,21.8 128.6,21.5 	"/>
	<polygon points="143,27.2 142.9,43.5 142.6,43.7 142.3,43.5 142.3,27.6 142.6,27.4 	"/>
	<polygon points="142.6,44.1 128.8,52 128.5,51.8 128.5,51.4 142.3,43.5 142.6,43.7 	"/>
	<polygon points="140.8,42.8 128.7,49.8 128.5,49.5 128.4,49.2 140.5,42.3 140.7,42.6 	"/>
	<polygon points="128.2,52 114.1,43.8 114.5,43.6 114.8,43.4 128.5,51.4 128.5,51.8 	"/>
	<polygon points="114.1,43.8 114.2,27.6 114.5,27.4 114.8,27.6 114.8,43.4 114.5,43.6 	"/>
	<polygon points="116.1,42.5 116.1,28.5 116.4,28.5 116.8,28.5 116.7,42.5 116.4,42.5 	"/>
	<polygon points="114.2,27.6 100.3,19.5 100.4,19.2 100.6,18.9 114.5,27 114.5,27.4 	"/>
	<polygon points="114.5,27 128.2,19.1 128.6,19.3 128.6,19.6 114.8,27.6 114.5,27.4 	"/>
	<polygon points="128.8,52 128.8,64.4 128.5,64.4 128.2,64.4 128.2,52 128.5,51.8 	"/>
	<g>
		<text transform="matrix(1 0 0 1 125.9033 70.9404)" class="st0 st1">N</text>
	</g>
	<polygon points="131.9,69.6 142.6,75.8 142.6,76.2 142.2,76.4 131.6,70.2 131.7,69.9 	"/>
	<polygon points="144.8,77.3 144.8,88.8 144.5,88.8 144.2,88.8 144.2,77.3 144.5,77.3 	"/>
	<polygon points="142.9,76.4 142.9,88.8 142.5,88.8 142.2,88.8 142.2,76.4 142.6,76.2 	"/>
	<g>
		<text transform="matrix(1 0 0 1 139.9453 95.3477)" class="st0 st1">N</text>
	</g>
	<polygon points="145.9,94 156.6,100.2 156.6,100.6 156.6,101 145.6,94.6 145.8,94.3 	"/>
	<polygon points="157.9,100 157.9,113.2 157.6,113.2 157.2,113.2 157.2,100 157.6,100 	"/>
	<polygon points="155.9,100 155.9,113.2 155.6,113.2 155.3,113.2 155.3,100 155.6,100 	"/>
	<g>
		<text transform="matrix(1 0 0 1 153.7812 119.7559)" class="st0 st1">O</text>
	</g>
	<polygon points="156.6,100.2 167.3,94.1 167.5,94.4 167.6,94.6 156.6,101 156.6,100.6 	"/>
	<g>
		<text transform="matrix(1 0 0 1 168.1016 95.3936)" class="st0 st1">N</text>
		<text transform="matrix(1 0 0 1 173.2783 95.3936)" class="st0 st1">H</text>
	</g>
	<polygon points="170.4,88.9 170.4,76.4 170.7,76.2 171,76 171,88.9 170.7,88.9 	"/>
	<polygon points="169.6,75.4 180.7,69 180.9,69.3 181,69.5 169.9,76 169.7,75.7 	"/>
	<polygon points="170.6,77.1 181.7,70.7 181.9,71 182,71.2 170.9,77.6 170.7,77.4 	"/>
	<g>
		<text transform="matrix(1 0 0 1 182.0176 71.0371)" class="st0 st1">O</text>
	</g>
	<polygon points="170.4,76.4 156.6,68.5 156.6,68.1 157,67.9 171,76 170.7,76.2 	"/>
	<polygon points="154.4,67 154.4,55.4 154.7,55.4 155,55.4 155,67 154.7,67 	"/>
	<polygon points="156.3,67.9 156.3,55.4 156.7,55.4 157,55.4 157,67.9 156.6,68.1 	"/>
	<g>
		<text transform="matrix(1 0 0 1 154.0889 54.7314)" class="st0 st1">N</text>
	</g>
	<polygon points="153.3,50.2 142.6,44.1 142.6,43.7 142.9,43.5 153.6,49.7 153.4,50 	"/>
	<polygon points="156.6,68.5 142.9,76.4 142.6,76.2 142.6,75.8 156.3,67.9 156.6,68.1 	"/>
	<polygon points="125.4,70.2 114.4,76.5 114.4,76.1 114.4,75.8 125.1,69.6 125.3,69.9 	"/>
	<polygon points="114.4,76.5 100.3,68.4 100.3,68 100.7,67.8 114.4,75.8 114.4,76.1 	"/>
	<polygon points="100.3,68.4 86.4,76.4 86.2,76.1 86.2,75.7 100,67.8 100.3,68 	"/>
	<polygon points="86.1,76.4 72.2,68.3 72.2,67.9 72.3,67.7 86.2,75.7 86.2,76.1 	"/>
	<polygon points="72.2,68.3 58.1,76.4 58.1,76.1 58.1,75.7 72,67.7 72.2,67.9 	"/>
	<polygon points="58.1,76.4 47.3,70.2 47.5,69.9 47.6,69.6 58.1,75.7 58.1,76.1 	"/>
	<g>
		<text transform="matrix(1 0 0 1 41.2344 70.8037)" class="st0 st1">O</text>
	</g>
	<polygon points="40.7,70.2 33.1,74.5 33,74.3 32.8,74 40.4,69.6 40.6,69.9 	"/>
	<g>
		<text transform="matrix(1 0 0 1 27.5405 78.9111)" class="st0 st1">P</text>
	</g>
	<polygon points="26.7,73 22.8,66.2 23.1,66 23.3,65.9 27.3,72.7 27,72.9 	"/>
	<polygon points="28.4,72.1 24.5,65.2 24.8,65 25,64.9 29,71.7 28.7,71.9 	"/>
	<g>
		<text transform="matrix(1 0 0 1 19.04 64.8188)" class="st0 st1">O</text>
	</g>
	<polygon points="32.3,79.5 36.2,86.3 36,86.5 35.7,86.6 31.7,79.8 32,79.6 	"/>
	<g>
		<text transform="matrix(1 0 0 1 35.249 93.0039)" class="st0 st1">O</text>
		<text transform="matrix(1 0 0 1 40.8247 93.0039)" class="st0 st1">H</text>
	</g>
	<polygon points="27.1,78 19.4,82.4 19.3,82.1 19.1,81.9 26.7,77.5 26.9,77.8 	"/>
	<g>
		<text transform="matrix(1 0 0 1 7.8774 87.0127)" class="st0 st1">H</text>
		<text transform="matrix(1 0 0 1 13.0547 87.0127)" class="st0 st1">O</text>
	</g>
	<polygon points="72.5,67.9 71.8,67.9 71.8,67.6 71.8,67.2 72.5,67.2 72.5,67.6 	"/>
	<polygon points="72.7,65.9 71.6,65.9 71.6,65.6 71.6,65.3 72.7,65.3 72.7,65.6 	"/>
	<polygon points="72.9,63.9 71.5,63.9 71.5,63.6 71.5,63.3 72.9,63.3 72.9,63.6 	"/>
	<polygon points="73.1,61.9 71.3,61.9 71.3,61.6 71.3,61.3 73.1,61.3 73.1,61.6 	"/>
	<polygon points="73.3,59.9 71.1,59.9 71.1,59.6 71.1,59.3 73.3,59.3 73.3,59.6 	"/>
	<polygon points="73.5,57.9 70.9,57.9 70.9,57.6 70.9,57.3 73.5,57.3 73.5,57.6 	"/>
	<polygon points="73.6,56 70.8,56 70.8,55.6 70.8,55.3 73.6,55.3 73.6,55.6 	"/>
	<g>
		<text transform="matrix(1 0 0 1 69.4194 54.5947)" class="st0 st1">O</text>
		<text transform="matrix(1 0 0 1 74.9951 54.5947)" class="st0 st1">H</text>
	</g>
	<polygon points="85.9,76.1 86.6,76.1 86.6,76.5 86.6,76.8 85.9,76.8 85.9,76.5 	"/>
	<polygon points="85.7,78.1 86.8,78.1 86.8,78.5 86.8,78.8 85.7,78.8 85.7,78.5 	"/>
	<polygon points="85.5,80.1 87,80.1 87,80.5 87,80.8 85.5,80.8 85.5,80.5 	"/>
	<polygon points="85.3,82.1 87.1,82.1 87.1,82.4 87.1,82.8 85.3,82.8 85.3,82.4 	"/>
	<polygon points="85.2,84.1 87.3,84.1 87.3,84.4 87.3,84.8 85.2,84.8 85.2,84.4 	"/>
	<polygon points="85,86.1 87.5,86.1 87.5,86.4 87.5,86.8 85,86.7 85,86.4 	"/>
	<polygon points="84.8,88.1 87.7,88.1 87.7,88.4 87.7,88.7 84.8,88.7 84.8,88.4 	"/>
	<g>
		<text transform="matrix(1 0 0 1 83.4326 95.2568)" class="st0 st1">O</text>
		<text transform="matrix(1 0 0 1 89.0078 95.2568)" class="st0 st1">H</text>
	</g>
	<polygon points="100,67.8 98.9,55.4 100.4,55.4 101.8,55.4 100.7,67.8 100.3,68 	"/>
	<g>
		<text transform="matrix(1 0 0 1 97.5762 54.6401)" class="st0 st1">O</text>
		<text transform="matrix(1 0 0 1 103.1514 54.6401)" class="st0 st1">H</text>
	</g>
</g>
</svg>
