<?xml version="1.0" encoding="utf-8"?>
<!-- Generator: Adobe Illustrator 25.4.1, SVG Export Plug-In . SVG Version: 6.00 Build 0)  -->
<svg version="1.1" id="图层_1" xmlns="http://www.w3.org/2000/svg" xmlns:xlink="http://www.w3.org/1999/xlink" x="0px" y="0px"
	 viewBox="0 0 200 130" style="enable-background:new 0 0 200 130;" xml:space="preserve">
<style type="text/css">
	.st0{font-family:'ArialMT';}
	.st1{font-size:4.9021px;}
	.st2{fill:none;stroke:#000000;stroke-width:0.92;stroke-miterlimit:3.89;}
	.st3{font-size:3.0158px;}
</style>
<g>
	<polygon points="123.2,34.7 123.2,45.7 123,45.8 122.8,45.7 122.8,34.7 123,34.7 	"/>
	<polygon points="123.2,45.7 132.8,51.3 132.6,51.4 132.4,51.5 123,46.1 123,45.8 	"/>
	<polygon points="123.1,47.2 131.4,52 131.3,52.2 131.2,52.4 122.9,47.6 123,47.4 	"/>
	<polygon points="132.8,51.3 132.8,62.4 132.6,62.5 132.4,62.4 132.4,51.5 132.6,51.4 	"/>
	<polygon points="132.6,62.8 123.2,68.2 123,68.1 123,67.8 132.4,62.4 132.6,62.5 	"/>
	<polygon points="131.4,61.9 123.1,66.7 123,66.5 122.8,66.3 131.1,61.6 131.3,61.7 	"/>
	<polygon points="122.7,68.2 113.1,62.6 113.3,62.5 113.6,62.4 123,67.8 123,68.1 	"/>
	<polygon points="113.1,62.6 113.1,51.5 113.4,51.4 113.6,51.5 113.6,62.4 113.3,62.5 	"/>
	<polygon points="114.5,61.7 114.5,52.1 114.7,52.1 114.9,52.1 114.9,61.7 114.7,61.7 	"/>
	<polygon points="113.1,51.5 103.6,46 103.7,45.8 103.9,45.6 113.4,51.1 113.4,51.4 	"/>
	<polygon points="113.4,51.1 122.8,45.7 123,45.8 123,46.1 113.6,51.5 113.4,51.4 	"/>
	<polygon points="123.2,68.2 123.2,76.7 122.9,76.7 122.7,76.7 122.7,68.2 123,68.1 	"/>
	<g>
		<text transform="matrix(1 0 0 1 121.1677 81.1587)" class="st0 st1">N</text>
	</g>
	<polygon points="125.3,80.3 132.6,84.5 132.6,84.7 132.3,84.9 125,80.6 125.1,80.5 	"/>
	<polygon points="134.1,85.5 134.1,93.4 133.9,93.4 133.6,93.4 133.7,85.5 133.9,85.5 	"/>
	<polygon points="132.8,84.9 132.8,93.4 132.5,93.4 132.3,93.4 132.3,84.9 132.6,84.7 	"/>
	<g>
		<text transform="matrix(1 0 0 1 130.7615 97.8481)" class="st0 st1">N</text>
	</g>
	<polygon points="134.9,97 142.1,101.2 142.1,101.4 142.1,101.7 134.6,97.3 134.7,97.1 	"/>
	<polygon points="143,101.1 143,110.1 142.8,110.1 142.6,110.1 142.6,101.1 142.8,101.1 	"/>
	<polygon points="141.7,101.1 141.7,110.1 141.5,110.1 141.2,110.1 141.3,101 141.5,101.1 	"/>
	<g>
		<text transform="matrix(1 0 0 1 140.2166 114.5385)" class="st0 st1">O</text>
	</g>
	<polygon points="142.1,101.2 149.5,97 149.6,97.2 149.7,97.4 142.1,101.7 142.1,101.4 	"/>
	<g>
		<text transform="matrix(1 0 0 1 150.0085 97.8833)" class="st0 st1">N</text>
		<text transform="matrix(1 0 0 1 153.5486 97.8833)" class="st0 st1">H</text>
	</g>
	<polygon points="151.6,93.4 151.6,84.9 151.8,84.8 152,84.7 152,93.4 151.8,93.4 	"/>
	<polygon points="151,84.2 158.6,79.8 158.8,80 158.9,80.2 151.2,84.6 151.1,84.4 	"/>
	<polygon points="151.7,85.4 159.3,81 159.4,81.2 159.5,81.4 151.9,85.7 151.8,85.6 	"/>
	<g>
		<text transform="matrix(1 0 0 1 159.5291 81.2319)" class="st0 st1">O</text>
	</g>
	<polygon points="151.6,84.9 142.2,79.5 142.2,79.2 142.4,79.1 152,84.7 151.8,84.8 	"/>
	<polygon points="140.6,78.4 140.6,70.6 140.9,70.6 141.1,70.6 141.1,78.4 140.9,78.4 	"/>
	<polygon points="142,79.1 142,70.6 142.2,70.6 142.4,70.6 142.4,79.1 142.2,79.2 	"/>
	<g>
		<text transform="matrix(1 0 0 1 140.4373 70.0815)" class="st0 st1">N</text>
	</g>
	<polygon points="139.9,67 132.6,62.8 132.6,62.5 132.8,62.4 140.1,66.6 140,66.8 	"/>
	<polygon points="142.2,79.5 132.8,84.9 132.6,84.7 132.6,84.5 142,79.1 142.2,79.2 	"/>
	<polygon points="120.8,80.6 113.3,85 113.3,84.7 113.3,84.5 120.6,80.3 120.7,80.4 	"/>
	<polygon points="113.3,85 103.7,79.4 103.7,79.1 103.9,79 113.3,84.5 113.3,84.7 	"/>
	<polygon points="103.7,79.4 94.2,84.9 94.1,84.7 94.1,84.4 103.5,79 103.7,79.1 	"/>
	<polygon points="93.9,84.9 84.4,79.4 84.4,79.1 84.7,79 94.1,84.4 94.1,84.7 	"/>
	<polygon points="84.4,79.4 74.8,84.9 74.8,84.6 74.8,84.4 84.2,79 84.4,79.1 	"/>
	<polygon points="74.8,84.9 67.4,80.6 67.5,80.4 67.6,80.2 74.8,84.4 74.8,84.6 	"/>
	<g>
		<text transform="matrix(1 0 0 1 63.2776 81.0542)" class="st0 st1">O</text>
	</g>
	<polygon points="62.9,80.6 57.7,83.6 57.6,83.4 57.5,83.2 62.7,80.2 62.8,80.4 	"/>
	<g>
		<text transform="matrix(1 0 0 1 53.9153 86.5923)" class="st0 st1">P</text>
	</g>
	<polygon points="53.4,82.6 50.7,77.9 50.9,77.8 51,77.7 53.7,82.4 53.6,82.5 	"/>
	<polygon points="54.5,81.9 51.8,77.2 52,77.1 52.2,77 54.9,81.7 54.7,81.8 	"/>
	<g>
		<text transform="matrix(1 0 0 1 48.1047 76.9555)" class="st0 st1">O</text>
	</g>
	<polygon points="53.6,86 48.4,89 48.3,88.8 48.2,88.6 53.4,85.6 53.5,85.8 	"/>
	<g>
		<text transform="matrix(1 0 0 1 40.4709 92.1313)" class="st0 st1">H</text>
		<text transform="matrix(1 0 0 1 44.011 92.1313)" class="st0 st1">O</text>
	</g>
	<polygon points="57.2,87 59.9,91.7 59.7,91.8 59.5,91.9 56.8,87.2 57,87.1 	"/>
	<g>
		<text transform="matrix(1 0 0 1 59.1829 96.2251)" class="st0 st1">O</text>
	</g>
	<line class="st2" x1="62.8" y1="91.6" x2="64.6" y2="91.6"/>
	<polygon points="84.2,79 83.5,70.5 84.4,70.5 85.5,70.5 84.7,79 84.4,79.1 	"/>
	<g>
		<text transform="matrix(1 0 0 1 82.5481 69.9731)" class="st0 st1">O</text>
		<text transform="matrix(1 0 0 1 86.3635 69.9731)" class="st0 st1">H</text>
	</g>
	<polygon points="93.8,84.7 94.3,84.7 94.3,84.9 94.3,85.2 93.8,85.2 93.8,84.9 	"/>
	<polygon points="93.7,86.1 94.4,86.1 94.4,86.3 94.4,86.5 93.7,86.5 93.7,86.3 	"/>
	<polygon points="93.6,87.4 94.5,87.4 94.5,87.7 94.5,87.9 93.6,87.9 93.6,87.7 	"/>
	<polygon points="93.4,88.8 94.7,88.8 94.7,89 94.7,89.2 93.4,89.2 93.4,89 	"/>
	<polygon points="93.3,90.2 94.8,90.2 94.8,90.4 94.8,90.6 93.3,90.6 93.3,90.4 	"/>
	<polygon points="93.2,91.5 94.9,91.5 94.9,91.7 94.9,92 93.2,92 93.2,91.7 	"/>
	<polygon points="93.1,92.9 95,92.9 95,93.1 95,93.3 93.1,93.3 93.1,93.1 	"/>
	<g>
		<text transform="matrix(1 0 0 1 92.1233 97.7788)" class="st0 st1">O</text>
		<text transform="matrix(1 0 0 1 95.9338 97.7788)" class="st0 st1">H</text>
	</g>
	<polygon points="103.5,79 102.7,70.5 103.7,70.5 104.7,70.5 103.9,79 103.7,79.1 	"/>
	<g>
		<text transform="matrix(1 0 0 1 101.7991 70.0112)" class="st0 st1">O</text>
		<text transform="matrix(1 0 0 1 105.6116 70.0112)" class="st0 st1">H</text>
	</g>
	<g>
		<text transform="matrix(1 0 0 1 88.8831 43.9477)" class="st0 st1">H</text>
		<text transform="matrix(1 0 0 1 92.4221 44.7016)" class="st0 st3">2</text>
		<text transform="matrix(1 0 0 1 94.0989 43.9477)" class="st0 st1">O</text>
	</g>
	<g>
		<text transform="matrix(1 0 0 1 88.8831 36.7133)" class="st0 st1">H</text>
		<text transform="matrix(1 0 0 1 92.4221 37.4702)" class="st0 st3">2</text>
		<text transform="matrix(1 0 0 1 94.0989 36.7133)" class="st0 st1">O</text>
	</g>
	<g>
		<text transform="matrix(1 0 0 1 120.1541 32.5366)" class="st0 st1">Na</text>
	</g>
	<line class="st2" x1="125.7" y1="27.3" x2="127.5" y2="27.3"/>
	<line class="st2" x1="126.6" y1="26.3" x2="126.6" y2="28.2"/>
</g>
</svg>
