<?xml version="1.0" encoding="utf-8"?>
<!-- Generator: Adobe Illustrator 25.4.1, SVG Export Plug-In . SVG Version: 6.00 Build 0)  -->
<svg version="1.1" id="图层_1" xmlns="http://www.w3.org/2000/svg" xmlns:xlink="http://www.w3.org/1999/xlink" x="0px" y="0px"
	 viewBox="0 0 200 130" style="enable-background:new 0 0 200 130;" xml:space="preserve">
<style type="text/css">
	.st0{font-family:'ArialMT';}
	.st1{font-size:6.103px;}
</style>
<g>
	<polygon points="83.8,116.5 83.7,102.8 84,102.6 84.2,102.8 84.3,116.5 84,116.5 	"/>
	<polygon points="83.7,102.8 72.2,96 72.5,95.8 72.7,95.6 84,102.3 84,102.6 	"/>
	<polygon points="83.8,101 73.9,95.1 74.1,94.8 74.2,94.6 84.1,100.5 83.9,100.7 	"/>
	<polygon points="72.2,96 72.1,82.1 72.4,82 72.7,82.1 72.7,95.6 72.5,95.8 	"/>
	<polygon points="72.4,81.6 83.5,74.8 83.8,75 83.8,75.3 72.7,82.1 72.4,82 	"/>
	<polygon points="73.8,82.7 83.7,76.6 83.8,76.9 83.9,77.1 74.1,83.1 74,82.9 	"/>
	<polygon points="84.1,74.8 95.5,81.6 95.3,81.8 95,82 83.8,75.3 83.8,75 	"/>
	<polygon points="95.5,81.6 95.6,95.5 95.4,95.6 95.1,95.5 95,82 95.3,81.8 	"/>
	<polygon points="94,82.8 94,94.7 93.8,94.7 93.5,94.7 93.4,82.8 93.7,82.8 	"/>
	<polygon points="95.6,95.5 107,102.3 106.8,102.5 106.7,102.7 95.4,96 95.4,95.6 	"/>
	<polygon points="95.4,96 84.2,102.8 84,102.6 84,102.3 95.1,95.5 95.4,95.6 	"/>
	<polygon points="83.5,74.8 83.5,64.2 83.7,64.2 84,64.2 84.1,74.8 83.8,75 	"/>
	<g>
		<text transform="matrix(0.95 0 0 1 81.6083 63.5917)" class="st0 st1">N</text>
	</g>
	<polygon points="81,59.8 72.2,54.6 72.2,54.3 72.5,54.1 81.2,59.3 81.1,59.6 	"/>
	<polygon points="70.4,53.3 70.3,43.5 70.6,43.5 70.8,43.5 70.9,53.3 70.6,53.3 	"/>
	<polygon points="72,54.1 71.9,43.5 72.2,43.5 72.4,43.5 72.5,54.1 72.2,54.3 	"/>
	<g>
		<text transform="matrix(0.95 0 0 1 70.0424 42.9061)" class="st0 st1">N</text>
	</g>
	<polygon points="69.4,39.1 60.7,33.9 60.7,33.6 60.7,33.3 69.6,38.6 69.5,38.9 	"/>
	<polygon points="59.6,34.1 59.5,22.8 59.8,22.8 60.1,22.8 60.1,34.1 59.9,34.1 	"/>
	<polygon points="61.2,34.1 61.1,22.8 61.4,22.8 61.7,22.8 61.7,34.1 61.5,34.1 	"/>
	<g>
		<text transform="matrix(0.95 0 0 1 58.3134 22.2206)" class="st0 st1">O</text>
	</g>
	<polygon points="60.7,33.9 52,39.2 51.9,39 51.8,38.7 60.7,33.3 60.7,33.6 	"/>
	<g>
		<text transform="matrix(0.95 0 0 1 42.9443 43.0565)" class="st0 st1">H</text>
		<text transform="matrix(0.95 0 0 1 47.1562 43.0565)" class="st0 st1">N</text>
	</g>
	<polygon points="49.5,43.7 49.6,54.3 49.3,54.4 49.1,54.6 49,43.7 49.3,43.7 	"/>
	<polygon points="50.3,55.1 41.3,60.7 41.1,60.4 41,60.2 50,54.7 50.1,54.9 	"/>
	<polygon points="49.5,53.7 40.5,59.2 40.3,59 40.2,58.7 49.2,53.2 49.3,53.5 	"/>
	<g>
		<text transform="matrix(0.95 0 0 1 35.6679 63.8886)" class="st0 st1">O</text>
	</g>
	<polygon points="49.6,54.3 60.8,60.9 60.8,61.3 60.6,61.4 49.1,54.6 49.3,54.4 	"/>
	<polygon points="62.7,62.2 62.7,72 62.5,72 62.2,72 62.2,62.2 62.4,62.2 	"/>
	<polygon points="61.1,61.4 61.2,72 60.9,72 60.6,72 60.6,61.4 60.8,61.3 	"/>
	<g>
		<text transform="matrix(0.95 0 0 1 58.7992 77.5809)" class="st0 st1">N</text>
	</g>
	<polygon points="63.7,76.4 72.4,81.6 72.4,82 72.1,82.1 63.4,76.9 63.5,76.7 	"/>
	<polygon points="60.8,60.9 72,54.1 72.2,54.3 72.2,54.6 61.1,61.4 60.8,61.3 	"/>
	<polygon points="86.2,59.3 95.1,53.8 95.1,54.1 95.1,54.4 86.5,59.7 86.3,59.5 	"/>
	<polygon points="95.1,53.8 106.6,60.7 106.6,61 106.3,61.1 95.1,54.4 95.1,54.1 	"/>
	<polygon points="106.6,60.7 117.9,53.7 118,54 118,54.3 106.9,61.1 106.6,61 	"/>
	<polygon points="118.1,53.7 129.5,60.5 129.5,60.8 129.2,61 118,54.3 118,54 	"/>
	<polygon points="129.5,60.5 140.9,54 141.5,55.1 142.1,56.2 129.8,61 129.5,60.8 	"/>
	<polygon points="140.9,54 147.9,62.1 147.7,62.3 147.6,62.5 142.1,56.2 141.5,55.1 	"/>
	<g>
		<text transform="matrix(0.95 0 0 1 148.1615 67.8173)" class="st0 st1">O</text>
	</g>
	<polygon points="149,68.6 145.8,74.4 145.6,74.3 145.3,74.2 148.5,68.3 148.8,68.4 	"/>
	<g>
		<text transform="matrix(0.95 0 0 1 141.9467 79.8466)" class="st0 st1">P</text>
	</g>
	<polygon points="146.8,77.5 153.6,80.6 153.5,80.9 153.4,81.1 146.6,78 146.7,77.7 	"/>
	<polygon points="146.1,79 153,82.1 152.9,82.4 152.8,82.7 145.9,79.5 146,79.3 	"/>
	<g>
		<text transform="matrix(0.95 0 0 1 153.727 85.3993)" class="st0 st1">O</text>
	</g>
	<polygon points="141.4,77.1 133.7,75.5 133.7,75.2 133.8,74.9 141.5,76.6 141.4,76.8 	"/>
	<g>
		<text transform="matrix(0.95 0 0 1 128.684 77.0526)" class="st0 st1">O</text>
	</g>
	<polygon points="130.4,71.5 129.2,61 129.5,60.8 129.8,61 130.9,71.5 130.6,71.5 	"/>
	<polygon points="143.2,80.5 141.1,87.6 140.8,87.5 140.6,87.4 142.7,80.4 143,80.5 	"/>
	<g>
		<text transform="matrix(0.95 0 0 1 133.4106 93.0321)" class="st0 st1">H</text>
		<text transform="matrix(0.95 0 0 1 137.6186 93.0321)" class="st0 st1">O</text>
	</g>
	<polygon points="118.3,53.9 117.7,53.9 117.7,53.7 117.7,53.4 118.3,53.4 118.3,53.7 	"/>
	<polygon points="118.4,52.2 117.6,52.2 117.6,52 117.6,51.7 118.4,51.7 118.4,52 	"/>
	<polygon points="118.6,50.5 117.4,50.6 117.4,50.3 117.4,50 118.6,50 118.6,50.3 	"/>
	<polygon points="118.7,48.8 117.2,48.9 117.2,48.6 117.2,48.3 118.7,48.3 118.7,48.6 	"/>
	<polygon points="118.8,47.2 117.1,47.2 117.1,46.9 117.1,46.6 118.8,46.6 118.8,46.9 	"/>
	<polygon points="119,45.5 116.9,45.5 116.9,45.2 116.9,44.9 119,44.9 119,45.2 	"/>
	<polygon points="119.1,43.8 116.8,43.8 116.8,43.5 116.8,43.2 119.1,43.2 119.1,43.5 	"/>
	<g>
		<text transform="matrix(0.95 0 0 1 115.6523 42.6093)" class="st0 st1">O</text>
		<text transform="matrix(0.95 0 0 1 120.186 42.6093)" class="st0 st1">H</text>
	</g>
	<polygon points="106.9,61.1 107.9,71.7 106.7,71.7 105.5,71.7 106.3,61.1 106.6,61 	"/>
	<g>
		<text transform="matrix(0.95 0 0 1 104.4135 77.285)" class="st0 st1">O</text>
		<text transform="matrix(0.95 0 0 1 108.9472 77.285)" class="st0 st1">H</text>
	</g>
</g>
</svg>
