<?xml version="1.0" encoding="utf-8"?>
<!-- Generator: Adobe Illustrator 25.4.1, SVG Export Plug-In . SVG Version: 6.00 Build 0)  -->
<svg version="1.1" id="图层_1" xmlns="http://www.w3.org/2000/svg" xmlns:xlink="http://www.w3.org/1999/xlink" x="0px" y="0px"
	 viewBox="0 0 200 130" style="enable-background:new 0 0 200 130;" xml:space="preserve">
<style type="text/css">
	.st0{font-family:'ArialMT';}
	.st1{font-size:7.1052px;}
</style>
<g>
	<polygon points="97,110.9 83.2,102.8 83.2,102.5 83.5,102.3 97.3,110.3 97.1,110.6 	"/>
	<polygon points="83.2,102.8 69.6,110.7 69.2,110.5 69.2,110.1 82.9,102.3 83.2,102.5 	"/>
	<polygon points="81.5,101.6 69.4,108.5 69.3,108.3 69.1,108 81.1,101.1 81.3,101.3 	"/>
	<polygon points="68.9,110.7 55,102.6 55.3,102.4 55.6,102.2 69.2,110.1 69.2,110.5 	"/>
	<polygon points="56.4,103.2 45.4,109.6 45.2,109.3 45.1,109 56.1,102.7 56.3,102.9 	"/>
	<polygon points="55.5,101.5 44.4,107.9 44.3,107.6 44.1,107.3 55.2,101 55.3,101.3 	"/>
	<g>
		<text transform="matrix(1 0 0 1 38.5693 113.2707)" class="st0 st1">O</text>
	</g>
	<polygon points="55,102.6 55,86.5 55.4,86.3 55.7,86.5 55.6,102.2 55.3,102.4 	"/>
	<polygon points="55,86.5 44.5,80.3 44.6,80 44.8,79.8 55.4,85.9 55.4,86.3 	"/>
	<polygon points="55.2,84.3 45.5,78.6 45.6,78.4 45.8,78.1 55.5,83.8 55.4,84 	"/>
	<g>
		<text transform="matrix(1 0 0 1 38.8735 81.0432)" class="st0 st1">N</text>
	</g>
	<polygon points="41.1,74.6 41.2,62.2 41.5,62.1 41.8,62.2 41.8,74.6 41.5,74.6 	"/>
	<polygon points="41.5,61.7 55.2,53.9 55.5,54 55.5,54.4 41.8,62.2 41.5,62.1 	"/>
	<polygon points="43.3,62.9 55.3,56 55.5,56.3 55.6,56.6 43.6,63.5 43.4,63.2 	"/>
	<polygon points="55.2,53.9 55.2,41.5 55.5,41.5 55.8,41.5 55.8,53.9 55.5,54 	"/>
	<g>
		<text transform="matrix(1 0 0 1 52.9604 40.8088)" class="st0 st1">N</text>
		<text transform="matrix(1 0 0 1 58.0918 40.8088)" class="st0 st1">H</text>
	</g>
	<polygon points="52.2,36.3 41.6,30.2 41.6,29.8 41.6,29.5 52.5,35.8 52.3,36.1 	"/>
	<polygon points="40.3,30.4 40.4,17.3 40.7,17.3 41,17.3 40.9,30.4 40.6,30.4 	"/>
	<polygon points="42.2,30.4 42.3,17.3 42.6,17.3 42.9,17.3 42.9,30.4 42.6,30.4 	"/>
	<g>
		<text transform="matrix(1 0 0 1 38.8853 16.5944)" class="st0 st1">O</text>
	</g>
	<polygon points="41.6,30.2 31,36.3 30.8,36 30.7,35.7 41.6,29.5 41.6,29.8 	"/>
	<g>
		<text transform="matrix(1 0 0 1 19.9209 40.718)" class="st0 st1">H</text>
		<text transform="matrix(1 0 0 1 25.0522 40.718)" class="st0 st1">N</text>
	</g>
	<polygon points="27.9,41.4 27.9,53.8 27.6,54 27.2,54.1 27.3,41.4 27.6,41.4 	"/>
	<polygon points="28.7,54.8 17.6,61.1 17.5,60.8 17.3,60.6 28.4,54.2 28.5,54.5 	"/>
	<polygon points="27.7,53.1 16.7,59.5 16.5,59.2 16.4,58.9 27.4,52.6 27.6,52.8 	"/>
	<g>
		<text transform="matrix(1 0 0 1 10.8198 64.842)" class="st0 st1">O</text>
	</g>
	<polygon points="27.9,53.8 41.5,61.7 41.5,62.1 41.2,62.2 27.2,54.1 27.6,54 	"/>
	<polygon points="55.8,53.9 66.4,60 66.2,60.3 66,60.6 55.5,54.4 55.5,54 	"/>
	<g>
		<text transform="matrix(1 0 0 1 66.8325 65.0226)" class="st0 st1">N</text>
	</g>
	<polygon points="69.7,65.7 69.7,78.1 69.3,78.3 69,78.1 69.1,65.7 69.4,65.7 	"/>
	<polygon points="69.7,78.1 83.6,86.2 83.3,86.4 83,86.5 69.3,78.6 69.3,78.3 	"/>
	<polygon points="69.5,80.2 81.5,87.2 81.3,87.5 81.2,87.7 69.2,80.8 69.3,80.5 	"/>
	<polygon points="83.6,86.2 83.5,102.3 83.2,102.5 82.9,102.3 83,86.5 83.3,86.4 	"/>
	<polygon points="69.3,78.6 55.7,86.5 55.4,86.3 55.4,85.9 69,78.1 69.3,78.3 	"/>
	<polygon points="72.4,60 83.4,53.8 83.4,54.1 83.4,54.5 72.8,60.6 72.6,60.3 	"/>
	<polygon points="83.4,53.8 97.3,61.9 97.3,62.2 97.1,62.5 83.4,54.5 83.4,54.1 	"/>
	<polygon points="97.3,61.9 111,54 111.3,54.2 111.3,54.6 97.5,62.5 97.3,62.2 	"/>
	<polygon points="111.6,54 125.2,62 125.2,62.3 125.1,62.6 111.3,54.6 111.3,54.2 	"/>
	<polygon points="125.2,62 139.2,53.9 139.2,54.3 139.2,54.7 125.4,62.6 125.2,62.3 	"/>
	<polygon points="139.2,53.9 149.9,60.2 149.7,60.4 149.6,60.7 139.2,54.7 139.2,54.3 	"/>
	<g>
		<text transform="matrix(1 0 0 1 150.3579 65.299)" class="st0 st1">O</text>
	</g>
	<polygon points="156.4,60.2 163.9,55.9 164.1,56.1 164.3,56.4 156.7,60.7 156.5,60.5 	"/>
	<g>
		<text transform="matrix(1 0 0 1 164.7378 57.2858)" class="st0 st1">P</text>
	</g>
	<polygon points="170.3,57.4 174.2,64.2 173.9,64.3 173.6,64.5 169.7,57.7 170,57.5 	"/>
	<polygon points="168.6,58.3 172.5,65.1 172.2,65.3 171.9,65.4 168,58.6 168.3,58.5 	"/>
	<g>
		<text transform="matrix(1 0 0 1 172.3501 71.2707)" class="st0 st1">O</text>
	</g>
	<polygon points="164.8,51 160.9,44.2 161.1,44 161.4,43.9 165.3,50.7 165.1,50.8 	"/>
	<g>
		<text transform="matrix(1 0 0 1 151.1982 43.3068)" class="st0 st1">H</text>
		<text transform="matrix(1 0 0 1 156.3296 43.3068)" class="st0 st1">O</text>
	</g>
	<polygon points="170,52.4 177.5,48.1 177.7,48.4 177.8,48.6 170.3,53 170.1,52.7 	"/>
	<g>
		<text transform="matrix(1 0 0 1 178.3228 49.2785)" class="st0 st1">O</text>
		<text transform="matrix(1 0 0 1 183.8481 49.2785)" class="st0 st1">H</text>
	</g>
	<polygon points="124.9,62.4 125.6,62.4 125.6,62.7 125.6,63 124.9,63 124.9,62.7 	"/>
	<polygon points="124.7,64.4 125.7,64.4 125.7,64.7 125.7,65 124.7,65 124.7,64.7 	"/>
	<polygon points="124.5,66.3 125.9,66.3 125.9,66.6 125.9,67 124.5,67 124.5,66.6 	"/>
	<polygon points="124.3,68.3 126.1,68.3 126.1,68.6 126.1,68.9 124.3,68.9 124.3,68.6 	"/>
	<polygon points="124.1,70.3 126.3,70.3 126.3,70.6 126.3,70.9 124.1,70.9 124.1,70.6 	"/>
	<polygon points="123.9,72.2 126.4,72.2 126.4,72.6 126.4,72.9 123.9,72.9 123.9,72.6 	"/>
	<polygon points="123.8,74.2 126.6,74.2 126.6,74.5 126.6,74.9 123.8,74.9 123.8,74.5 	"/>
	<g>
		<text transform="matrix(1 0 0 1 122.3999 81.3195)" class="st0 st1">O</text>
		<text transform="matrix(1 0 0 1 127.9258 81.3195)" class="st0 st1">H</text>
	</g>
	<polygon points="111,54 109.9,41.7 111.3,41.7 112.8,41.7 111.6,54 111.3,54.2 	"/>
	<g>
		<text transform="matrix(1 0 0 1 108.5786 40.9943)" class="st0 st1">O</text>
		<text transform="matrix(1 0 0 1 114.1045 40.9943)" class="st0 st1">H</text>
	</g>
	<polygon points="97,62.3 97.7,62.3 97.7,62.6 97.7,62.9 97,62.9 97,62.6 	"/>
	<polygon points="96.8,64.3 97.8,64.3 97.8,64.6 97.8,64.9 96.8,64.9 96.8,64.6 	"/>
	<polygon points="96.6,66.2 98,66.2 98,66.6 98,66.9 96.6,66.9 96.6,66.6 	"/>
	<polygon points="96.4,68.2 98.2,68.2 98.2,68.5 98.2,68.9 96.4,68.8 96.4,68.5 	"/>
	<polygon points="96.2,70.2 98.3,70.2 98.3,70.5 98.3,70.8 96.2,70.8 96.2,70.5 	"/>
	<polygon points="96,72.1 98.5,72.2 98.5,72.5 98.5,72.8 96,72.8 96,72.5 	"/>
	<polygon points="95.8,74.1 98.7,74.1 98.7,74.5 98.7,74.8 95.8,74.8 95.8,74.4 	"/>
	<g>
		<text transform="matrix(1 0 0 1 94.4917 81.2292)" class="st0 st1">O</text>
		<text transform="matrix(1 0 0 1 100.0181 81.2292)" class="st0 st1">H</text>
	</g>
	<polygon points="69.6,110.7 69.5,126.6 69.2,126.6 68.9,126.6 68.9,110.7 69.2,110.5 	"/>
</g>
</svg>
