<?xml version="1.0" encoding="utf-8"?>
<!-- Generator: Adobe Illustrator 25.4.1, SVG Export Plug-In . SVG Version: 6.00 Build 0)  -->
<svg version="1.1" id="图层_1" xmlns="http://www.w3.org/2000/svg" xmlns:xlink="http://www.w3.org/1999/xlink" x="0px" y="0px"
	 viewBox="0 0 200 130" style="enable-background:new 0 0 200 130;" xml:space="preserve">
<style type="text/css">
	.st0{font-family:'ArialMT';}
	.st1{font-size:5.822px;}
</style>
<g>
	<polygon points="124.3,17.5 124.2,30.6 124,30.7 123.7,30.6 123.8,17.5 124.1,17.5 	"/>
	<polygon points="124.2,30.6 135.6,37.3 135.4,37.4 135.1,37.6 124,31 124,30.7 	"/>
	<polygon points="124.1,32.3 133.9,38.1 133.8,38.3 133.6,38.5 123.8,32.8 124,32.6 	"/>
	<polygon points="135.6,37.3 135.5,50.5 135.3,50.6 135,50.5 135.1,37.6 135.4,37.4 	"/>
	<polygon points="135.3,50.9 124,57.3 123.8,57.1 123.8,56.8 135,50.5 135.3,50.6 	"/>
	<polygon points="133.8,49.9 123.9,55.5 123.8,55.3 123.7,55.1 133.6,49.5 133.7,49.7 	"/>
	<polygon points="123.5,57.3 112.1,50.6 112.4,50.5 112.7,50.3 123.8,56.8 123.8,57.1 	"/>
	<polygon points="112.1,50.6 112.2,37.4 112.5,37.3 112.8,37.4 112.7,50.3 112.4,50.5 	"/>
	<polygon points="113.7,49.5 113.8,38.2 114.1,38.2 114.3,38.2 114.3,49.6 114,49.5 	"/>
	<polygon points="112.2,37.4 101,30.8 101.1,30.6 101.2,30.3 112.5,36.9 112.5,37.3 	"/>
	<polygon points="112.5,36.9 123.7,30.6 124,30.7 124,31 112.8,37.4 112.5,37.3 	"/>
	<polygon points="124,57.3 124,67.4 123.7,67.4 123.4,67.4 123.5,57.3 123.8,57.1 	"/>
	<g>
		<text transform="matrix(1 0 0 1 121.5838 72.6982)" class="st0 st1">N</text>
	</g>
	<polygon points="126.4,71.7 135.1,76.7 135.1,77 134.8,77.2 126.2,72.1 126.3,71.9 	"/>
	<polygon points="136.9,78 136.9,87.3 136.6,87.3 136.3,87.3 136.4,77.9 136.7,78 	"/>
	<polygon points="135.3,77.2 135.3,87.3 135,87.3 134.7,87.3 134.8,77.2 135.1,77 	"/>
	<g>
		<text transform="matrix(1 0 0 1 132.8768 92.5854)" class="st0 st1">N</text>
	</g>
	<polygon points="137.7,91.5 146.4,96.6 146.4,96.9 146.4,97.2 137.5,92 137.6,91.8 	"/>
	<polygon points="147.4,96.5 147.3,107.2 147.1,107.2 146.8,107.2 146.9,96.5 147.2,96.5 	"/>
	<polygon points="145.8,96.4 145.8,107.2 145.5,107.2 145.2,107.2 145.3,96.4 145.6,96.4 	"/>
	<g>
		<text transform="matrix(1 0 0 1 144.0076 112.4721)" class="st0 st1">O</text>
	</g>
	<polygon points="146.4,96.6 155.1,91.7 155.2,91.9 155.3,92.1 146.4,97.2 146.4,96.9 	"/>
	<g>
		<text transform="matrix(1 0 0 1 155.744 92.747)" class="st0 st1">N</text>
		<text transform="matrix(1 0 0 1 159.9486 92.747)" class="st0 st1">H</text>
	</g>
	<polygon points="157.6,87.5 157.7,77.3 157.9,77.2 158.2,77 158.1,87.5 157.9,87.5 	"/>
	<polygon points="157,76.5 166.1,71.3 166.2,71.6 166.4,71.8 157.3,77 157.2,76.7 	"/>
	<polygon points="157.8,77.9 166.9,72.7 167,72.9 167.2,73.2 158.1,78.3 157.9,78.1 	"/>
	<g>
		<text transform="matrix(1 0 0 1 167.1571 73.0263)" class="st0 st1">O</text>
	</g>
	<polygon points="157.7,77.3 146.6,70.8 146.6,70.5 146.8,70.4 158.2,77 157.9,77.2 	"/>
	<polygon points="144.7,69.6 144.8,60.2 145,60.2 145.3,60.2 145.2,69.6 145,69.6 	"/>
	<polygon points="146.3,70.4 146.4,60.2 146.6,60.2 146.9,60.2 146.8,70.4 146.6,70.5 	"/>
	<g>
		<text transform="matrix(1 0 0 1 144.5482 59.6586)" class="st0 st1">N</text>
	</g>
	<polygon points="143.9,56 135.3,50.9 135.3,50.6 135.5,50.5 144.2,55.5 144,55.8 	"/>
	<polygon points="146.6,70.8 135.3,77.2 135.1,77 135.1,76.7 146.3,70.4 146.6,70.5 	"/>
	<polygon points="121.2,72.1 112.2,77.2 112.2,76.9 112.2,76.6 120.9,71.6 121.1,71.8 	"/>
	<polygon points="112.2,77.2 100.8,70.5 100.8,70.2 101.1,70 112.2,76.6 112.2,76.9 	"/>
	<polygon points="100.8,70.5 89.6,76.8 89.3,76.7 89.3,76.4 100.5,70 100.8,70.2 	"/>
	<polygon points="89.1,76.8 78,70.3 78,70 78.2,69.9 89.3,76.4 89.3,76.7 	"/>
	<polygon points="78,70.3 66.5,76.8 66.5,76.5 66.5,76.2 77.7,69.9 78,70 	"/>
	<polygon points="66.5,76.8 57.7,71.7 57.9,71.5 58,71.3 66.5,76.2 66.5,76.5 	"/>
	<g>
		<text transform="matrix(1 0 0 1 52.8197 72.2084)" class="st0 st1">O</text>
	</g>
	<polygon points="52.4,71.7 46.2,75.2 46.1,75 45.9,74.7 52.2,71.2 52.3,71.4 	"/>
	<g>
		<text transform="matrix(1 0 0 1 41.661 78.728)" class="st0 st1">P</text>
	</g>
	<polygon points="41,74 37.8,68.3 38.1,68.2 38.3,68.1 41.5,73.7 41.2,73.8 	"/>
	<polygon points="42.4,73.2 39.2,67.6 39.4,67.4 39.7,67.3 42.9,72.9 42.6,73 	"/>
	<g>
		<text transform="matrix(1 0 0 1 34.8177 67.2455)" class="st0 st1">O</text>
	</g>
	<polygon points="45.5,79.2 48.7,84.8 48.5,84.9 48.2,85 45,79.4 45.3,79.3 	"/>
	<g>
		<text transform="matrix(1 0 0 1 47.8573 90.2055)" class="st0 st1">O</text>
		<text transform="matrix(1 0 0 1 52.3856 90.2055)" class="st0 st1">H</text>
	</g>
	<polygon points="41.3,78 35,81.5 34.9,81.3 34.8,81.1 41,77.5 41.1,77.8 	"/>
	<g>
		<text transform="matrix(1 0 0 1 25.6507 85.2475)" class="st0 st1">H</text>
		<text transform="matrix(1 0 0 1 29.8553 85.2475)" class="st0 st1">O</text>
	</g>
	<polygon points="77.7,69.9 76.8,59.7 78,59.7 79.2,59.8 78.2,69.9 78,70 	"/>
	<g>
		<text transform="matrix(1 0 0 1 75.7796 59.1689)" class="st0 st1">O</text>
		<text transform="matrix(1 0 0 1 80.3123 59.1689)" class="st0 st1">H</text>
	</g>
	<polygon points="89.6,76.8 90.5,87 89.3,87 88.1,87 89.1,76.8 89.3,76.7 	"/>
	<g>
		<text transform="matrix(1 0 0 1 86.9798 92.2572)" class="st0 st1">O</text>
		<text transform="matrix(1 0 0 1 91.5081 92.2572)" class="st0 st1">H</text>
	</g>
	<polygon points="100.5,70 99.7,59.9 100.9,59.9 102.1,59.9 101.1,70 100.8,70.2 	"/>
	<g>
		<text transform="matrix(1 0 0 1 98.6517 59.3305)" class="st0 st1">O</text>
		<text transform="matrix(1 0 0 1 103.18 59.3305)" class="st0 st1">H</text>
	</g>
</g>
</svg>
