<?xml version="1.0" encoding="utf-8"?>
<!-- Generator: Adobe Illustrator 25.4.1, SVG Export Plug-In . SVG Version: 6.00 Build 0)  -->
<svg version="1.1" id="图层_1" xmlns="http://www.w3.org/2000/svg" xmlns:xlink="http://www.w3.org/1999/xlink" x="0px" y="0px"
	 viewBox="0 0 200 130" style="enable-background:new 0 0 200 130;" xml:space="preserve">
<style type="text/css">
	.st0{font-family:'ArialMT';}
	.st1{font-size:6.175px;}
	.st2{fill:none;stroke:#000000;stroke-width:0.92;stroke-miterlimit:3.88;}
</style>
<g>
	<polygon points="80.9,113.4 80.6,99.5 80.9,99.4 81.2,99.5 81.5,113.4 81.2,113.4 	"/>
	<polygon points="80.6,99.5 68.4,92.8 68.7,92.6 68.9,92.4 80.9,99 80.9,99.4 	"/>
	<polygon points="80.7,97.7 70.2,91.8 70.3,91.6 70.5,91.4 81,97.2 80.9,97.4 	"/>
	<polygon points="68.4,92.8 68.1,78.8 68.4,78.6 68.7,78.8 68.9,92.4 68.7,92.6 	"/>
	<polygon points="68.4,78.3 80.1,71.2 80.4,71.4 80.4,71.7 68.7,78.8 68.4,78.6 	"/>
	<polygon points="69.9,79.3 80.3,73.1 80.4,73.3 80.5,73.5 70.2,79.8 70.1,79.5 	"/>
	<polygon points="80.6,71.2 92.9,78 92.6,78.1 92.3,78.3 80.4,71.7 80.4,71.4 	"/>
	<polygon points="92.9,78 93.2,92 92.9,92.1 92.6,92 92.3,78.3 92.6,78.1 	"/>
	<polygon points="91.2,79.1 91.5,91.2 91.2,91.2 90.9,91.2 90.7,79.1 91,79.1 	"/>
	<polygon points="93.2,92 105.3,98.6 105.2,98.9 105,99.1 92.9,92.4 92.9,92.1 	"/>
	<polygon points="92.9,92.4 81.2,99.5 80.9,99.4 80.9,99 92.6,92 92.9,92.1 	"/>
	<polygon points="80.1,71.2 79.9,60.5 80.1,60.5 80.4,60.5 80.6,71.2 80.4,71.4 	"/>
	<g>
		<text transform="matrix(1 0 0 1 77.8547 59.857)" class="st0 st1">N</text>
	</g>
	<polygon points="77.2,56.1 67.8,50.9 67.8,50.6 68.1,50.4 77.4,55.6 77.3,55.8 	"/>
	<polygon points="65.8,49.7 65.6,39.8 65.9,39.7 66.2,39.7 66.4,49.7 66.1,49.7 	"/>
	<polygon points="67.5,50.4 67.3,39.7 67.6,39.7 67.9,39.7 68.1,50.4 67.8,50.6 	"/>
	<g>
		<text transform="matrix(1 0 0 1 65.3088 39.0992)" class="st0 st1">N</text>
	</g>
	<polygon points="64.6,35.3 55.3,30.2 55.3,29.8 55.3,29.5 64.9,34.8 64.8,35.1 	"/>
	<polygon points="54.2,30.3 53.9,19 54.2,19 54.5,19 54.7,30.3 54.4,30.3 	"/>
	<polygon points="55.8,30.3 55.6,18.9 55.9,18.9 56.2,18.9 56.4,30.3 56.1,30.3 	"/>
	<g>
		<text transform="matrix(1 0 0 1 52.5915 18.3365)" class="st0 st1">O</text>
	</g>
	<polygon points="55.3,30.2 46.2,35.6 46.1,35.4 45.9,35.2 55.3,29.5 55.3,29.8 	"/>
	<g>
		<text transform="matrix(1 0 0 1 36.5983 39.5836)" class="st0 st1">H</text>
		<text transform="matrix(1 0 0 1 41.0597 39.5836)" class="st0 st1">N</text>
	</g>
	<polygon points="43.6,40.2 43.8,50.9 43.6,51.1 43.3,51.2 43.1,40.2 43.4,40.2 	"/>
	<polygon points="44.6,51.8 35.1,57.5 35,57.3 34.8,57 44.3,51.3 44.4,51.6 	"/>
	<polygon points="43.7,50.4 34.3,56.1 34.1,55.8 34,55.6 43.4,49.9 43.5,50.1 	"/>
	<g>
		<text transform="matrix(1 0 0 1 29.1799 60.8267)" class="st0 st1">O</text>
	</g>
	<polygon points="43.8,50.9 55.8,57.5 55.8,57.8 55.6,58 43.3,51.2 43.6,51.1 	"/>
	<polygon points="57.8,58.8 58,68.7 57.7,68.7 57.4,68.7 57.3,58.8 57.5,58.8 	"/>
	<polygon points="56.1,58 56.3,68.7 56,68.7 55.8,68.7 55.6,58 55.8,57.8 	"/>
	<g>
		<text transform="matrix(1 0 0 1 53.8796 74.3424)" class="st0 st1">N</text>
	</g>
	<polygon points="59,73.1 68.4,78.3 68.4,78.6 68.1,78.8 58.8,73.6 58.9,73.4 	"/>
	<polygon points="55.8,57.5 67.5,50.4 67.8,50.6 67.8,50.9 56.1,58 55.8,57.8 	"/>
	<polygon points="82.7,55.4 92.1,49.8 92.1,50.1 92.1,50.4 83,55.9 82.9,55.7 	"/>
	<polygon points="92.1,49.8 104.3,56.6 104.3,56.9 104.1,57 92.1,50.4 92.1,50.1 	"/>
	<polygon points="104.3,56.6 116,49.5 116.3,49.6 116.3,50 104.6,57 104.3,56.9 	"/>
	<polygon points="116.6,49.5 128.6,56.1 128.6,56.4 128.3,56.6 116.3,50 116.3,49.6 	"/>
	<polygon points="128.6,56.1 140.6,48.8 140.6,49.1 140.6,49.5 128.9,56.5 128.6,56.4 	"/>
	<polygon points="140.6,48.8 150,54 149.9,54.3 149.7,54.5 140.6,49.5 140.6,49.1 	"/>
	<g>
		<text transform="matrix(1 0 0 1 150.4313 58.4078)" class="st0 st1">O</text>
	</g>
	<polygon points="155.7,53.9 162.1,50 162.2,50.2 162.3,50.5 155.9,54.4 155.8,54.1 	"/>
	<g>
		<text transform="matrix(1 0 0 1 162.7619 51.1656)" class="st0 st1">P</text>
	</g>
	<polygon points="167.7,51.2 171.1,57 170.9,57.1 170.7,57.2 167.2,51.5 167.4,51.3 	"/>
	<polygon points="166.2,52.1 169.7,57.8 169.5,58 169.2,58.1 165.7,52.4 166,52.2 	"/>
	<g>
		<text transform="matrix(1 0 0 1 169.6613 63.148)" class="st0 st1">O</text>
	</g>
	<polygon points="167.3,46.8 173.7,43 173.8,43.2 174,43.5 167.6,47.3 167.4,47.1 	"/>
	<g>
		<text transform="matrix(1 0 0 1 174.4064 43.9234)" class="st0 st1">O</text>
		<text transform="matrix(1 0 0 1 179.2101 43.9234)" class="st0 st1">H</text>
	</g>
	<polygon points="162.7,45.7 159.2,39.9 159.5,39.8 159.7,39.6 163.2,45.4 162.9,45.5 	"/>
	<g>
		<text transform="matrix(1 0 0 1 155.1765 39.1773)" class="st0 st1">O</text>
	</g>
	<line class="st2" x1="159.7" y1="33.4" x2="162.1" y2="33.4"/>
	<polygon points="128.9,56.5 129.1,67.3 128.8,67.3 128.5,67.3 128.3,56.6 128.6,56.4 	"/>
	<g>
		<text transform="matrix(1 0 0 1 126.4611 72.8922)" class="st0 st1">O</text>
		<text transform="matrix(1 0 0 1 131.2648 72.8922)" class="st0 st1">H</text>
	</g>
	<polygon points="116,49.5 115.8,38.8 116.1,38.7 116.4,38.7 116.6,49.5 116.3,49.6 	"/>
	<g>
		<text transform="matrix(1 0 0 1 113.6364 38.1304)" class="st0 st1">O</text>
		<text transform="matrix(1 0 0 1 118.4401 38.1304)" class="st0 st1">H</text>
	</g>
	<polygon points="104.6,57 104.8,67.8 104.6,67.8 104.3,67.8 104.1,57 104.3,56.9 	"/>
	<g>
		<text transform="matrix(1 0 0 1 102.2116 73.3775)" class="st0 st1">O</text>
		<text transform="matrix(1 0 0 1 107.0158 73.3775)" class="st0 st1">H</text>
	</g>
	<g>
		<text transform="matrix(1 0 0 1 79.0348 119.565)" class="st0 st1">Na</text>
	</g>
	<line class="st2" x1="86" y1="112.9" x2="88.3" y2="112.9"/>
	<line class="st2" x1="87.1" y1="111.7" x2="87.1" y2="114.1"/>
</g>
</svg>
