<?xml version="1.0" encoding="utf-8"?>
<!-- Generator: Adobe Illustrator 25.4.1, SVG Export Plug-In . SVG Version: 6.00 Build 0)  -->
<svg version="1.1" id="图层_1" xmlns="http://www.w3.org/2000/svg" xmlns:xlink="http://www.w3.org/1999/xlink" x="0px" y="0px"
	 viewBox="0 0 200 130" style="enable-background:new 0 0 200 130;" xml:space="preserve">
<style type="text/css">
	.st0{font-family:'ArialMT';}
	.st1{font-size:6.7281px;}
</style>
<g>
	<polygon points="125.8,10.1 125.7,25.1 125.4,25.3 125.1,25.1 125.2,10.1 125.5,10.1 	"/>
	<polygon points="125.7,25.1 137.8,32.9 137.5,33.1 137.2,33.2 125.4,25.7 125.4,25.3 	"/>
	<polygon points="125.5,27.2 135.9,33.8 135.8,34.1 135.7,34.4 125.2,27.7 125.4,27.4 	"/>
	<polygon points="137.8,32.9 137.6,48.2 137.4,48.3 137.1,48.2 137.2,33.2 137.5,33.1 	"/>
	<polygon points="137.4,48.7 125.4,56 125.1,55.8 125.1,55.5 137.1,48.2 137.4,48.3 	"/>
	<polygon points="135.8,47.5 125.3,54 125.1,53.7 125,53.5 135.6,47 135.7,47.3 	"/>
	<polygon points="124.8,56 112.7,48.3 113,48.1 113.3,47.9 125.1,55.5 125.1,55.8 	"/>
	<polygon points="112.7,48.3 112.8,33 113.1,32.8 113.4,33 113.3,47.9 113,48.1 	"/>
	<polygon points="114.4,47.1 114.5,33.9 114.8,33.9 115.1,33.9 115,47.1 114.7,47.1 	"/>
	<polygon points="112.8,33 100.9,25.4 101,25.1 101.1,24.8 113.1,32.5 113.1,32.8 	"/>
	<polygon points="113.1,32.5 125.1,25.1 125.4,25.3 125.4,25.7 113.4,33 113.1,32.8 	"/>
	<polygon points="125.4,56 125.3,67.7 125,67.7 124.7,67.7 124.8,56 125.1,55.8 	"/>
	<g>
		<text transform="matrix(0.92 0 0 1 122.7524 73.8299)" class="st0 st1">N</text>
	</g>
	<polygon points="127.9,72.6 137.1,78.5 137.1,78.9 136.8,79 127.7,73.2 127.8,72.9 	"/>
	<polygon points="139.1,79.9 139,90.7 138.7,90.7 138.4,90.7 138.5,79.9 138.8,79.9 	"/>
	<polygon points="137.4,79 137.3,90.7 137,90.7 136.7,90.7 136.8,79 137.1,78.9 	"/>
	<g>
		<text transform="matrix(0.92 0 0 1 134.7485 96.8435)" class="st0 st1">N</text>
	</g>
	<polygon points="139.9,95.6 149.1,101.5 149.1,101.9 149.1,102.2 139.7,96.2 139.8,95.9 	"/>
	<polygon points="150.2,101.4 150.1,113.7 149.9,113.7 149.6,113.7 149.7,101.3 150,101.3 	"/>
	<polygon points="148.6,101.3 148.5,113.7 148.2,113.7 147.9,113.7 148,101.3 148.3,101.3 	"/>
	<g>
		<text transform="matrix(0.92 0 0 1 146.5742 119.8523)" class="st0 st1">O</text>
	</g>
	<polygon points="149.1,101.5 158.4,95.8 158.6,96.1 158.7,96.3 149.1,102.2 149.1,101.9 	"/>
	<g>
		<text transform="matrix(0.92 0 0 1 159.127 97.0808)" class="st0 st1">N</text>
		<text transform="matrix(0.92 0 0 1 163.6108 97.0808)" class="st0 st1">H</text>
	</g>
	<polygon points="161.1,91 161.2,79.3 161.5,79.1 161.8,78.9 161.7,91 161.4,91 	"/>
	<polygon points="160.5,78.3 170.2,72.3 170.4,72.6 170.5,72.9 160.8,78.8 160.7,78.6 	"/>
	<polygon points="161.3,79.9 171,73.9 171.2,74.2 171.3,74.5 161.6,80.4 161.5,80.1 	"/>
	<g>
		<text transform="matrix(0.92 0 0 1 171.3325 74.3055)" class="st0 st1">O</text>
	</g>
	<polygon points="161.2,79.3 149.4,71.7 149.4,71.3 149.7,71.2 161.8,78.9 161.5,79.1 	"/>
	<polygon points="147.4,70.3 147.5,59.5 147.8,59.5 148.1,59.5 148,70.3 147.7,70.3 	"/>
	<polygon points="149.1,71.2 149.2,59.5 149.5,59.5 149.7,59.5 149.7,71.2 149.4,71.3 	"/>
	<g>
		<text transform="matrix(0.92 0 0 1 147.2544 58.805)" class="st0 st1">N</text>
	</g>
	<polygon points="146.6,54.6 137.4,48.7 137.4,48.3 137.6,48.2 146.8,54 146.7,54.3 	"/>
	<polygon points="149.4,71.7 137.4,79 137.1,78.9 137.1,78.5 149.1,71.2 149.4,71.3 	"/>
	<polygon points="122.3,73.1 112.7,79 112.7,78.6 112.7,78.3 122,72.6 122.2,72.8 	"/>
	<polygon points="112.7,79 100.6,71.2 100.6,70.9 100.9,70.7 112.7,78.3 112.7,78.6 	"/>
	<polygon points="100.6,71.2 88.7,78.6 88.4,78.4 88.4,78 100.3,70.7 100.6,70.9 	"/>
	<polygon points="88.1,78.5 76.2,71 76.2,70.6 76.4,70.4 88.4,78 88.4,78.4 	"/>
	<polygon points="76.2,71 64,78.5 64,78.1 64,77.8 76.1,70.4 76.2,70.6 	"/>
	<polygon points="64,78.5 54.7,72.6 54.8,72.3 55,72 64,77.8 64,78.1 	"/>
	<g>
		<text transform="matrix(0.92 0 0 1 49.4478 73.1219)" class="st0 st1">O</text>
	</g>
	<polygon points="49,72.5 42.4,76.6 42.2,76.3 42.1,76 48.7,72 48.9,72.2 	"/>
	<g>
		<text transform="matrix(0.92 0 0 1 37.5415 80.6346)" class="st0 st1">P</text>
	</g>
	<polygon points="36.9,75.1 33.5,68.6 33.7,68.5 34,68.3 37.4,74.8 37.1,75 	"/>
	<polygon points="38.3,74.2 34.9,67.7 35.2,67.6 35.4,67.4 38.8,73.9 38.6,74.1 	"/>
	<g>
		<text transform="matrix(0.92 0 0 1 30.2671 67.3494)" class="st0 st1">O</text>
	</g>
	<polygon points="41.6,81.2 45,87.7 44.8,87.8 44.5,88 41.1,81.5 41.4,81.3 	"/>
	<g>
		<text transform="matrix(0.92 0 0 1 44.1226 93.9187)" class="st0 st1">O</text>
		<text transform="matrix(0.92 0 0 1 48.9536 93.9187)" class="st0 st1">H</text>
	</g>
	<polygon points="37.1,79.8 30.5,83.9 30.3,83.6 30.2,83.3 36.8,79.3 37,79.5 	"/>
	<g>
		<text transform="matrix(0.92 0 0 1 20.4624 88.1472)" class="st0 st1">H</text>
		<text transform="matrix(0.92 0 0 1 24.9458 88.1472)" class="st0 st1">O</text>
	</g>
	<polygon points="76.6,70.6 75.9,70.6 75.9,70.3 75.9,70 76.6,70 76.6,70.3 	"/>
	<polygon points="76.7,68.7 75.8,68.7 75.8,68.4 75.8,68.1 76.7,68.1 76.7,68.4 	"/>
	<polygon points="76.9,66.9 75.6,66.8 75.7,66.5 75.7,66.2 76.9,66.2 76.9,66.6 	"/>
	<polygon points="77.1,65 75.5,65 75.5,64.7 75.5,64.4 77.1,64.4 77.1,64.7 	"/>
	<polygon points="77.2,63.1 75.4,63.1 75.4,62.8 75.4,62.5 77.2,62.5 77.2,62.8 	"/>
	<polygon points="77.4,61.3 75.2,61.2 75.2,60.9 75.2,60.6 77.4,60.6 77.4,60.9 	"/>
	<polygon points="77.6,59.4 75.1,59.4 75.1,59.1 75.1,58.8 77.6,58.8 77.6,59.1 	"/>
	<g>
		<text transform="matrix(0.92 0 0 1 73.9492 58.0965)" class="st0 st1">O</text>
		<text transform="matrix(0.92 0 0 1 78.7754 58.0965)" class="st0 st1">H</text>
	</g>
	<polygon points="88.7,78.6 89.5,90.3 88.3,90.2 87,90.2 88.1,78.5 88.4,78.4 	"/>
	<g>
		<text transform="matrix(0.92 0 0 1 85.8218 96.368)" class="st0 st1">O</text>
		<text transform="matrix(0.92 0 0 1 90.6528 96.368)" class="st0 st1">H</text>
	</g>
	<polygon points="100.3,70.7 99.4,59 100.7,59 102,59 100.9,70.7 100.6,70.9 	"/>
	<g>
		<text transform="matrix(0.92 0 0 1 98.3271 58.3338)" class="st0 st1">O</text>
		<text transform="matrix(0.92 0 0 1 103.1538 58.3338)" class="st0 st1">H</text>
	</g>
</g>
</svg>
