<?xml version="1.0" encoding="UTF-8"?>
<svg id="_图层_1" data-name="图层 1" xmlns="http://www.w3.org/2000/svg" viewBox="0 0 200 130">
  <defs>
    <style>
      .cls-1 {
        font-size: 1.06px;
      }

      .cls-1, .cls-2 {
        font-family: ArialMT, Arial;
      }

      .cls-1, .cls-2, .cls-3 {
        fill: #000;
      }

      .cls-2 {
        font-size: 1.77px;
      }

      .cls-3 {
        fill-rule: evenodd;
        stroke-width: 0px;
      }
    </style>
  </defs>
  <text class="cls-2" transform="translate(88.43 16.79)"><tspan x="0" y="0">C</tspan></text>
  <text class="cls-2" transform="translate(89.71 16.79)"><tspan x="0" y="0">H</tspan></text>
  <text class="cls-1" transform="translate(90.98 17.21)"><tspan x="0" y="0">4</tspan></text>
  <text class="cls-2" transform="translate(88.43 11.65)"><tspan x="0" y="0">C</tspan></text>
  <text class="cls-2" transform="translate(89.71 11.65)"><tspan x="0" y="0">H</tspan></text>
  <text class="cls-1" transform="translate(90.98 12.08)"><tspan x="0" y="0">4</tspan></text>
  <text class="cls-2" transform="translate(88.43 6.52)"><tspan x="0" y="0">C</tspan></text>
  <text class="cls-2" transform="translate(89.71 6.52)"><tspan x="0" y="0">H</tspan></text>
  <text class="cls-1" transform="translate(90.98 6.94)"><tspan x="0" y="0">4</tspan></text>
  <polygon class="cls-3" points="101.84 117.63 101 113.66 101.09 113.69 101.18 113.72 102 117.59 101.92 117.61 101.84 117.63 101.84 117.63"/>
  <polygon class="cls-3" points="101 113.66 103.22 111.67 103.27 111.73 103.32 111.79 101.18 113.72 101.09 113.69 101 113.66 101 113.66"/>
  <text class="cls-2" transform="translate(103.46 111.38)"><tspan x="0" y="0">N</tspan></text>
  <polygon class="cls-3" points="104.89 111.19 107.95 112.19 107.88 112.25 107.81 112.31 104.84 111.35 104.86 111.27 104.89 111.19 104.89 111.19"/>
  <polygon class="cls-3" points="107.95 112.19 108.79 116.15 108.71 116.17 108.63 116.18 107.81 112.31 107.88 112.25 107.95 112.19 107.95 112.19"/>
  <polygon class="cls-3" points="103.8 110.14 103.17 107.15 103.23 107.09 103.32 107.12 103.96 110.1 103.88 110.12 103.8 110.14 103.8 110.14"/>
  <polygon class="cls-3" points="103.17 107.15 99.36 105.92 99.42 105.85 99.49 105.79 103.21 107 103.23 107.09 103.17 107.15 103.17 107.15"/>
  <polygon class="cls-3" points="103.09 106.63 99.81 105.56 99.84 105.48 99.86 105.41 103.14 106.47 103.12 106.55 103.09 106.63 103.09 106.63"/>
  <polygon class="cls-3" points="99.36 105.92 98.52 102 98.59 101.94 98.68 101.96 99.49 105.79 99.42 105.85 99.36 105.92 99.36 105.92"/>
  <polygon class="cls-3" points="98.57 101.85 101.48 99.23 101.57 99.26 101.59 99.35 98.68 101.96 98.59 101.94 98.57 101.85 98.57 101.85"/>
  <polygon class="cls-3" points="99.07 102.05 101.63 99.74 101.68 99.8 101.74 99.86 99.17 102.17 99.12 102.11 99.07 102.05 99.07 102.05"/>
  <polygon class="cls-3" points="101.64 99.19 105.45 100.43 105.38 100.49 105.31 100.55 101.59 99.35 101.57 99.26 101.64 99.19 101.64 99.19"/>
  <polygon class="cls-3" points="105.45 100.43 106.3 104.44 106.21 104.41 106.12 104.38 105.31 100.55 105.38 100.49 105.45 100.43 105.45 100.43"/>
  <polygon class="cls-3" points="105.04 100.85 105.76 104.22 105.68 104.24 105.6 104.26 104.89 100.88 104.97 100.86 105.04 100.85 105.04 100.85"/>
  <polygon class="cls-3" points="106.3 104.44 103.32 107.12 103.23 107.09 103.21 107 106.12 104.38 106.21 104.41 106.3 104.44 106.3 104.44"/>
  <polygon class="cls-3" points="101.48 99.23 100.66 95.39 100.74 95.34 100.81 95.28 101.64 99.19 101.57 99.26 101.48 99.23 101.48 99.23"/>
  <polygon class="cls-3" points="100.66 95.39 97.84 93.97 97.87 93.9 97.91 93.83 100.81 95.28 100.74 95.34 100.66 95.39 100.66 95.39"/>
  <polygon class="cls-3" points="100.87 94.96 97.71 94.44 97.72 94.36 97.74 94.28 100.9 94.8 100.88 94.88 100.87 94.96 100.87 94.96"/>
  <text class="cls-2" transform="translate(96.31 94.47)"><tspan x="0" y="0">N</tspan></text>
  <polygon class="cls-3" points="96.66 93.22 96.2 91.09 96.28 91.07 96.36 91.05 96.81 93.19 96.74 93.21 96.66 93.22 96.66 93.22"/>
  <text class="cls-2" transform="translate(95.48 90.55)"><tspan x="0" y="0">N</tspan></text>
  <polygon class="cls-3" points="95.12 90.45 92.34 89.55 92.37 89.48 92.39 89.4 95.17 90.3 95.15 90.38 95.12 90.45 95.12 90.45"/>
  <polygon class="cls-3" points="95.27 90 92.3 89.03 92.28 88.94 92.35 88.88 95.32 89.84 95.29 89.92 95.27 90 95.27 90"/>
  <polygon class="cls-3" points="92.19 88.91 90.99 85.21 91.04 85.13 91.13 85.14 92.35 88.88 92.28 88.94 92.19 88.91 92.19 88.91"/>
  <polygon class="cls-3" points="90.7 84.61 92.42 81.62 92.49 81.66 92.56 81.7 90.84 84.69 90.77 84.65 90.7 84.61 90.7 84.61"/>
  <polygon class="cls-3" points="91 85.05 92.96 81.66 93.05 81.66 93.14 81.66 91.13 85.14 91.04 85.13 91 85.05 91 85.05"/>
  <polygon class="cls-3" points="92.96 81.66 91 78.27 91.04 78.19 91.09 78.11 93.14 81.66 93.05 81.66 92.96 81.66 92.96 81.66"/>
  <polygon class="cls-3" points="90.77 78.75 87.32 78.75 87.32 78.67 87.32 78.59 90.77 78.59 90.77 78.67 90.77 78.75 90.77 78.75"/>
  <polygon class="cls-3" points="91 78.27 87.08 78.27 87.04 78.19 86.99 78.11 91.09 78.11 91.04 78.19 91 78.27 91 78.27"/>
  <polygon class="cls-3" points="87.08 78.27 85.13 81.66 85.04 81.66 84.94 81.66 86.99 78.11 87.04 78.19 87.08 78.27 87.08 78.27"/>
  <polygon class="cls-3" points="85.66 81.62 87.39 84.61 87.32 84.65 87.25 84.69 85.52 81.7 85.59 81.66 85.66 81.62 85.66 81.62"/>
  <polygon class="cls-3" points="85.13 81.66 87.08 85.05 87.04 85.13 86.95 85.14 84.94 81.66 85.04 81.66 85.13 81.66 85.13 81.66"/>
  <polygon class="cls-3" points="87.1 85.21 85.89 88.91 85.8 88.94 85.74 88.88 86.95 85.14 87.04 85.13 87.1 85.21 87.1 85.21"/>
  <polygon class="cls-3" points="85.78 89.57 82.62 90.97 82.59 90.9 82.56 90.82 85.71 89.42 85.74 89.49 85.78 89.57 85.78 89.57"/>
  <polygon class="cls-3" points="85.79 89.03 82.22 90.63 82.14 90.57 82.07 90.52 85.74 88.88 85.8 88.94 85.79 89.03 85.79 89.03"/>
  <polygon class="cls-3" points="82.22 90.63 81.81 94.52 81.72 94.56 81.64 94.59 82.07 90.52 82.14 90.57 82.22 90.63 82.22 90.63"/>
  <polygon class="cls-3" points="82.28 94.27 85.07 96.29 85.02 96.36 84.97 96.42 82.18 94.39 82.23 94.33 82.28 94.27 82.28 94.27"/>
  <polygon class="cls-3" points="81.81 94.52 84.97 96.82 84.96 96.91 84.95 97 81.64 94.59 81.72 94.56 81.81 94.52 81.81 94.52"/>
  <polygon class="cls-3" points="84.97 96.82 88.55 95.23 88.62 95.28 88.7 95.34 84.95 97 84.96 96.91 84.97 96.82 84.97 96.82"/>
  <polygon class="cls-3" points="88.09 94.95 88.45 91.51 88.53 91.52 88.61 91.53 88.25 94.96 88.17 94.95 88.09 94.95 88.09 94.95"/>
  <polygon class="cls-3" points="88.55 95.23 88.96 91.33 89.04 91.3 89.12 91.34 88.7 95.34 88.62 95.28 88.55 95.23 88.55 95.23"/>
  <polygon class="cls-3" points="89.04 91.2 92.19 88.91 92.28 88.94 92.3 89.03 89.12 91.34 89.04 91.3 89.04 91.2 89.04 91.2"/>
  <polygon class="cls-3" points="88.96 91.33 85.79 89.03 85.8 88.94 85.89 88.91 89.04 91.2 89.04 91.3 88.96 91.33 88.96 91.33"/>
  <polygon class="cls-3" points="87.08 85.05 91 85.05 91.04 85.13 90.99 85.21 87.1 85.21 87.04 85.13 87.08 85.05 87.08 85.05"/>
  <polygon class="cls-3" points="98.52 102 95.6 101.05 95.63 100.97 95.65 100.9 98.57 101.85 98.59 101.94 98.52 102 98.52 102"/>
  <text class="cls-2" transform="translate(94.12 101.11)"><tspan x="0" y="0">O</tspan></text>
  <polygon class="cls-3" points="93.99 101.52 91.82 103.47 91.8 103.38 91.78 103.29 93.88 101.4 93.93 101.46 93.99 101.52 93.99 101.52"/>
  <polygon class="cls-3" points="91.82 103.47 88.01 102.23 87.99 102.14 88.06 102.08 91.78 103.29 91.8 103.38 91.82 103.47 91.82 103.47"/>
  <polygon class="cls-3" points="88.01 102.23 85.04 104.91 85.02 104.82 85 104.73 87.91 102.11 87.99 102.14 88.01 102.23 88.01 102.23"/>
  <polygon class="cls-3" points="85.04 104.91 81.93 103.9 81.96 103.83 81.98 103.75 85 104.73 85.02 104.82 85.04 104.91 85.04 104.91"/>
  <text class="cls-2" transform="translate(80.65 103.99)"><tspan x="0" y="0">S</tspan></text>
  <polygon class="cls-3" points="80.51 104.32 78.32 106.29 78.23 106.26 78.21 106.17 80.4 104.2 80.46 104.26 80.51 104.32 80.51 104.32"/>
  <polygon class="cls-3" points="77.79 106.71 74.51 105.64 74.54 105.57 74.56 105.49 77.84 106.56 77.82 106.63 77.79 106.71 77.79 106.71"/>
  <polygon class="cls-3" points="78.16 106.33 74.44 105.12 74.42 105.03 74.4 104.94 78.21 106.17 78.23 106.26 78.16 106.33 78.16 106.33"/>
  <polygon class="cls-3" points="74.44 105.12 71.53 107.73 71.44 107.71 71.36 107.68 74.4 104.94 74.42 105.03 74.44 105.12 74.44 105.12"/>
  <polygon class="cls-3" points="72.05 107.86 72.77 111.24 72.69 111.25 72.61 111.27 71.89 107.89 71.97 107.88 72.05 107.86 72.05 107.86"/>
  <polygon class="cls-3" points="71.53 107.73 72.35 111.56 72.28 111.62 72.19 111.6 71.36 107.68 71.44 107.71 71.53 107.73 71.53 107.73"/>
  <polygon class="cls-3" points="72.35 111.56 76.07 112.77 76.09 112.86 76.11 112.95 72.3 111.71 72.28 111.62 72.35 111.56 72.35 111.56"/>
  <polygon class="cls-3" points="75.92 112.26 78.48 109.95 78.54 110.01 78.59 110.07 76.02 112.38 75.97 112.32 75.92 112.26 75.92 112.26"/>
  <polygon class="cls-3" points="76.07 112.77 78.98 110.15 79.06 110.18 79.15 110.21 76.11 112.95 76.09 112.86 76.07 112.77 76.07 112.77"/>
  <polygon class="cls-3" points="78.98 110.15 78.16 106.33 78.23 106.26 78.32 106.29 79.15 110.21 79.06 110.18 78.98 110.15 78.98 110.15"/>
  <polygon class="cls-3" points="72.3 111.71 70.1 113.69 70.05 113.63 69.99 113.57 72.19 111.6 72.28 111.62 72.3 111.71 72.3 111.71"/>
  <text class="cls-2" transform="translate(68.74 114.72)"><tspan x="0" y="0">S</tspan></text>
  <polygon class="cls-3" points="68.53 114.14 65.51 113.16 65.49 113.07 65.56 113.01 68.57 113.99 68.55 114.06 68.53 114.14 68.53 114.14"/>
  <polygon class="cls-3" points="64.88 112.91 64.17 109.54 64.24 109.52 64.32 109.5 65.04 112.88 64.96 112.9 64.88 112.91 64.88 112.91"/>
  <polygon class="cls-3" points="65.4 113.04 64.59 109.21 64.66 109.15 64.73 109.09 65.56 113.01 65.49 113.07 65.4 113.04 65.4 113.04"/>
  <polygon class="cls-3" points="64.59 109.21 60.87 108 60.85 107.91 60.83 107.82 64.73 109.09 64.66 109.15 64.59 109.21 64.59 109.21"/>
  <polygon class="cls-3" points="61.02 108.51 58.45 110.82 58.4 110.76 58.34 110.7 60.91 108.39 60.96 108.45 61.02 108.51 61.02 108.51"/>
  <polygon class="cls-3" points="60.87 108 57.96 110.62 57.87 110.59 57.85 110.5 60.83 107.82 60.85 107.91 60.87 108 60.87 108"/>
  <polygon class="cls-3" points="57.96 110.62 58.77 114.45 58.7 114.51 58.63 114.57 57.8 110.65 57.87 110.59 57.96 110.62 57.96 110.62"/>
  <polygon class="cls-3" points="59.14 114.06 62.42 115.13 62.4 115.2 62.37 115.28 59.09 114.21 59.11 114.14 59.14 114.06 59.14 114.06"/>
  <polygon class="cls-3" points="58.77 114.45 62.49 115.66 62.51 115.75 62.53 115.84 58.63 114.57 58.7 114.51 58.77 114.45 58.77 114.45"/>
  <polygon class="cls-3" points="62.49 115.66 65.4 113.04 65.49 113.07 65.51 113.16 62.53 115.84 62.51 115.75 62.49 115.66 62.49 115.66"/>
  <polygon class="cls-3" points="57.8 110.65 54.78 109.67 54.81 109.6 54.83 109.52 57.85 110.5 57.87 110.59 57.8 110.65 57.8 110.65"/>
  <text class="cls-2" transform="translate(53.5 109.77)"><tspan x="0" y="0">S</tspan></text>
  <polygon class="cls-3" points="53.79 108.48 53.16 105.5 53.23 105.43 53.3 105.37 53.95 108.45 53.87 108.46 53.79 108.48 53.79 108.48"/>
  <polygon class="cls-3" points="53.16 105.5 49.44 104.29 49.42 104.2 49.49 104.14 53.3 105.37 53.23 105.43 53.16 105.5 53.16 105.5"/>
  <polygon class="cls-3" points="49.33 104.17 48.52 100.34 48.58 100.28 48.65 100.22 49.49 104.14 49.42 104.2 49.33 104.17 49.33 104.17"/>
  <polygon class="cls-3" points="48.52 100.34 45.6 99.39 45.62 99.32 45.65 99.24 48.65 100.22 48.58 100.28 48.52 100.34 48.52 100.34"/>
  <text class="cls-2" transform="translate(44.11 99.45)"><tspan x="0" y="0">O</tspan></text>
  <polygon class="cls-3" points="44.51 98.17 43.87 95.18 43.94 95.12 44.03 95.15 44.66 98.13 44.58 98.15 44.51 98.17 44.51 98.17"/>
  <polygon class="cls-3" points="43.92 95.03 46.83 92.41 46.92 92.44 46.94 92.53 44.03 95.15 43.94 95.12 43.92 95.03 43.92 95.03"/>
  <polygon class="cls-3" points="46.31 92.29 45.59 88.91 45.67 88.89 45.75 88.88 46.47 92.25 46.39 92.27 46.31 92.29 46.31 92.29"/>
  <polygon class="cls-3" points="46.83 92.41 46.02 88.59 46.09 88.52 46.15 88.46 46.99 92.38 46.92 92.44 46.83 92.41 46.83 92.41"/>
  <polygon class="cls-3" points="46.02 88.59 42.29 87.38 42.28 87.29 42.26 87.19 46.15 88.46 46.09 88.52 46.02 88.59 46.02 88.59"/>
  <polygon class="cls-3" points="42.44 87.89 39.88 90.2 39.83 90.14 39.77 90.08 42.34 87.77 42.39 87.83 42.44 87.89 42.44 87.89"/>
  <polygon class="cls-3" points="42.29 87.38 39.39 89.99 39.3 89.97 39.28 89.88 42.26 87.19 42.28 87.29 42.29 87.38 42.29 87.38"/>
  <polygon class="cls-3" points="39.39 89.99 40.2 93.82 40.13 93.88 40.06 93.95 39.23 90.03 39.3 89.97 39.39 89.99 39.39 89.99"/>
  <polygon class="cls-3" points="40.57 93.44 43.85 94.5 43.83 94.58 43.8 94.66 40.52 93.59 40.54 93.51 40.57 93.44 40.57 93.44"/>
  <polygon class="cls-3" points="40.2 93.82 43.92 95.03 43.94 95.12 43.87 95.18 40.06 93.95 40.13 93.88 40.2 93.82 40.2 93.82"/>
  <polygon class="cls-3" points="39.23 90.03 36.26 89.06 36.29 88.99 36.31 88.91 39.28 89.88 39.3 89.97 39.23 90.03 39.23 90.03"/>
  <text class="cls-2" transform="translate(34.88 89.09)"><tspan x="0" y="0">N</tspan></text>
  <polygon class="cls-3" points="35.22 87.85 34.59 84.87 34.66 84.81 34.72 84.75 35.38 87.82 35.3 87.84 35.22 87.85 35.22 87.85"/>
  <polygon class="cls-3" points="34.59 84.87 30.82 83.65 30.85 83.57 30.87 83.5 34.72 84.75 34.66 84.81 34.59 84.87 34.59 84.87"/>
  <polygon class="cls-3" points="34.74 89.51 32.53 91.5 32.51 91.41 32.49 91.32 34.64 89.39 34.69 89.45 34.74 89.51 34.74 89.51"/>
  <polygon class="cls-3" points="32.53 91.5 28.68 90.25 28.7 90.17 28.73 90.09 32.49 91.32 32.51 91.41 32.53 91.5 32.53 91.5"/>
  <polygon class="cls-3" points="46.99 92.38 50.72 93.59 50.73 93.68 50.74 93.77 46.94 92.53 46.92 92.44 46.99 92.38 46.99 92.38"/>
  <polygon class="cls-3" points="50.72 93.59 53.19 92.01 53.23 92.07 53.27 92.14 50.74 93.77 50.73 93.68 50.72 93.59 50.72 93.59"/>
  <polygon class="cls-3" points="50.99 93.99 52.84 91.67 52.91 91.72 52.97 91.77 51.11 94.09 51.05 94.04 50.99 93.99 50.99 93.99"/>
  <text class="cls-2" transform="translate(53.09 91.37)"><tspan x="0" y="0">N</tspan></text>
  <polygon class="cls-3" points="54.53 91.18 56.74 91.9 56.72 91.98 56.69 92.05 54.48 91.33 54.5 91.26 54.53 91.18 54.53 91.18"/>
  <text class="cls-2" transform="translate(56.9 92.61)"><tspan x="0" y="0">N</tspan></text>
  <polygon class="cls-3" points="57.94 91.1 59.93 89.3 59.99 89.36 60.04 89.42 58.05 91.22 57.99 91.16 57.94 91.1 57.94 91.1"/>
  <polygon class="cls-3" points="58.26 91.46 60.41 89.52 60.49 89.56 60.52 89.64 58.37 91.58 58.31 91.52 58.26 91.46 58.26 91.46"/>
  <polygon class="cls-3" points="60.57 89.49 64.37 90.3 64.41 90.39 64.36 90.46 60.52 89.64 60.49 89.56 60.57 89.49 60.57 89.49"/>
  <polygon class="cls-3" points="65.03 90.35 66.76 93.34 66.69 93.38 66.62 93.42 64.9 90.43 64.97 90.39 65.03 90.35 65.03 90.35"/>
  <polygon class="cls-3" points="64.5 90.39 66.46 93.78 66.41 93.86 66.37 93.94 64.36 90.46 64.41 90.39 64.5 90.39 64.5 90.39"/>
  <polygon class="cls-3" points="66.46 93.78 70.37 93.78 70.42 93.86 70.47 93.94 66.37 93.94 66.41 93.86 66.46 93.78 66.46 93.78"/>
  <polygon class="cls-3" points="70.07 93.34 71.8 90.35 71.87 90.39 71.94 90.43 70.21 93.42 70.14 93.38 70.07 93.34 70.07 93.34"/>
  <polygon class="cls-3" points="70.37 93.78 72.33 90.39 72.42 90.39 72.51 90.39 70.47 93.94 70.42 93.86 70.37 93.78 70.37 93.78"/>
  <polygon class="cls-3" points="72.33 90.39 70.37 87 70.42 86.92 70.47 86.84 72.51 90.39 72.42 90.39 72.33 90.39 72.33 90.39"/>
  <polygon class="cls-3" points="70.14 87.48 66.69 87.48 66.69 87.4 66.69 87.32 70.14 87.32 70.14 87.4 70.14 87.48 70.14 87.48"/>
  <polygon class="cls-3" points="70.37 87 66.46 87 66.41 86.92 66.45 86.84 70.47 86.84 70.42 86.92 70.37 87 70.37 87"/>
  <polygon class="cls-3" points="66.31 86.93 63.71 84.04 63.73 83.94 63.82 83.92 66.45 86.84 66.41 86.92 66.31 86.93 66.31 86.93"/>
  <polygon class="cls-3" points="63.2 83.61 63.56 80.18 63.64 80.18 63.72 80.19 63.36 83.63 63.28 83.62 63.2 83.61 63.2 83.61"/>
  <polygon class="cls-3" points="63.66 83.89 64.07 80 64.15 79.96 64.24 79.92 63.82 83.92 63.73 83.94 63.66 83.89 63.66 83.89"/>
  <polygon class="cls-3" points="64.07 80 60.9 77.7 60.91 77.6 60.92 77.51 64.24 79.92 64.15 79.96 64.07 80 64.07 80"/>
  <polygon class="cls-3" points="60.89 78.23 57.73 79.63 57.7 79.56 57.67 79.49 60.82 78.08 60.85 78.16 60.89 78.23 60.89 78.23"/>
  <polygon class="cls-3" points="60.9 77.7 57.33 79.29 57.25 79.23 57.18 79.18 60.92 77.51 60.91 77.6 60.9 77.7 60.9 77.7"/>
  <polygon class="cls-3" points="57.33 79.29 56.92 83.18 56.83 83.22 56.75 83.26 57.18 79.18 57.25 79.23 57.33 79.29 57.33 79.29"/>
  <polygon class="cls-3" points="57.39 82.93 60.18 84.96 60.13 85.02 60.08 85.09 57.29 83.06 57.34 82.99 57.39 82.93 57.39 82.93"/>
  <polygon class="cls-3" points="56.92 83.18 60.08 85.48 60.07 85.57 60 85.62 56.75 83.26 56.83 83.22 56.92 83.18 56.92 83.18"/>
  <polygon class="cls-3" points="60.08 85.48 63.66 83.89 63.73 83.94 63.71 84.04 60.16 85.62 60.07 85.57 60.08 85.48 60.08 85.48"/>
  <polygon class="cls-3" points="60.16 85.62 60.57 89.49 60.49 89.56 60.41 89.52 60 85.62 60.07 85.57 60.16 85.62 60.16 85.62"/>
  <polygon class="cls-3" points="66.46 87 64.5 90.39 64.41 90.39 64.37 90.3 66.31 86.93 66.41 86.92 66.46 87 66.46 87"/>
  <polygon class="cls-3" points="49.44 104.29 47.34 106.17 47.29 106.11 47.23 106.05 49.33 104.17 49.42 104.2 49.44 104.29 49.44 104.29"/>
  <text class="cls-2" transform="translate(44.5 107.24)"><tspan x="0" y="0">H</tspan></text>
  <text class="cls-2" transform="translate(45.78 107.24)"><tspan x="0" y="0">O</tspan></text>
  <polygon class="cls-3" points="87.91 102.11 87.27 99.13 87.35 99.11 87.43 99.1 88.06 102.08 87.99 102.14 87.91 102.11 87.91 102.11"/>
  <text class="cls-2" transform="translate(85.22 98.59)"><tspan x="0" y="0">H</tspan></text>
  <text class="cls-2" transform="translate(86.5 98.59)"><tspan x="0" y="0">O</tspan></text>
  <polygon class="cls-3" points="101.84 60.94 101 56.98 101.09 57.01 101.18 57.04 102 60.91 101.92 60.93 101.84 60.94 101.84 60.94"/>
  <polygon class="cls-3" points="101 56.98 103.22 54.99 103.27 55.05 103.32 55.11 101.18 57.04 101.09 57.01 101 56.98 101 56.98"/>
  <text class="cls-2" transform="translate(103.46 54.7)"><tspan x="0" y="0">N</tspan></text>
  <polygon class="cls-3" points="104.89 54.51 107.95 55.5 107.88 55.57 107.81 55.63 104.84 54.66 104.86 54.59 104.89 54.51 104.89 54.51"/>
  <polygon class="cls-3" points="107.95 55.5 108.79 59.47 108.71 59.49 108.63 59.5 107.81 55.63 107.88 55.57 107.95 55.5 107.95 55.5"/>
  <polygon class="cls-3" points="103.8 53.45 103.17 50.47 103.23 50.41 103.32 50.44 103.96 53.42 103.88 53.44 103.8 53.45 103.8 53.45"/>
  <polygon class="cls-3" points="103.17 50.47 99.36 49.23 99.42 49.17 99.49 49.11 103.21 50.32 103.23 50.41 103.17 50.47 103.17 50.47"/>
  <polygon class="cls-3" points="103.09 49.94 99.81 48.88 99.84 48.8 99.86 48.72 103.14 49.79 103.12 49.87 103.09 49.94 103.09 49.94"/>
  <polygon class="cls-3" points="99.36 49.23 98.52 45.32 98.59 45.25 98.68 45.28 99.49 49.11 99.42 49.17 99.36 49.23 99.36 49.23"/>
  <polygon class="cls-3" points="98.57 45.16 101.48 42.54 101.57 42.57 101.59 42.66 98.68 45.28 98.59 45.25 98.57 45.16 98.57 45.16"/>
  <polygon class="cls-3" points="99.07 45.37 101.63 43.06 101.68 43.12 101.74 43.18 99.17 45.49 99.12 45.43 99.07 45.37 99.07 45.37"/>
  <polygon class="cls-3" points="101.64 42.51 105.45 43.75 105.38 43.81 105.31 43.87 101.59 42.66 101.57 42.57 101.64 42.51 101.64 42.51"/>
  <polygon class="cls-3" points="105.45 43.75 106.3 47.76 106.21 47.73 106.12 47.7 105.31 43.87 105.38 43.81 105.45 43.75 105.45 43.75"/>
  <polygon class="cls-3" points="105.04 44.17 105.76 47.54 105.68 47.56 105.6 47.57 104.89 44.2 104.97 44.18 105.04 44.17 105.04 44.17"/>
  <polygon class="cls-3" points="106.3 47.76 103.32 50.44 103.23 50.41 103.21 50.32 106.12 47.7 106.21 47.73 106.3 47.76 106.3 47.76"/>
  <polygon class="cls-3" points="101.48 42.54 100.66 38.71 100.74 38.66 100.81 38.6 101.64 42.51 101.57 42.57 101.48 42.54 101.48 42.54"/>
  <polygon class="cls-3" points="100.66 38.71 97.84 37.29 97.87 37.22 97.91 37.15 100.81 38.6 100.74 38.66 100.66 38.71 100.66 38.71"/>
  <polygon class="cls-3" points="100.87 38.28 97.71 37.76 97.72 37.68 97.74 37.6 100.9 38.12 100.88 38.2 100.87 38.28 100.87 38.28"/>
  <text class="cls-2" transform="translate(96.31 37.79)"><tspan x="0" y="0">N</tspan></text>
  <polygon class="cls-3" points="96.66 36.54 96.2 34.41 96.28 34.39 96.36 34.37 96.81 36.51 96.74 36.53 96.66 36.54 96.66 36.54"/>
  <text class="cls-2" transform="translate(95.48 33.87)"><tspan x="0" y="0">N</tspan></text>
  <polygon class="cls-3" points="95.12 33.77 92.34 32.87 92.37 32.79 92.39 32.72 95.17 33.62 95.15 33.7 95.12 33.77 95.12 33.77"/>
  <polygon class="cls-3" points="95.27 33.32 92.3 32.35 92.28 32.26 92.35 32.2 95.32 33.16 95.29 33.24 95.27 33.32 95.27 33.32"/>
  <polygon class="cls-3" points="92.19 32.23 90.99 28.53 91.04 28.45 91.13 28.46 92.35 32.2 92.28 32.26 92.19 32.23 92.19 32.23"/>
  <polygon class="cls-3" points="90.7 27.93 92.42 24.94 92.49 24.98 92.56 25.02 90.84 28.01 90.77 27.97 90.7 27.93 90.7 27.93"/>
  <polygon class="cls-3" points="91 28.37 92.96 24.98 93.05 24.98 93.14 24.98 91.13 28.46 91.04 28.45 91 28.37 91 28.37"/>
  <polygon class="cls-3" points="92.96 24.98 91 21.59 91.04 21.51 91.09 21.43 93.14 24.98 93.05 24.98 92.96 24.98 92.96 24.98"/>
  <polygon class="cls-3" points="90.77 22.07 87.32 22.07 87.32 21.99 87.32 21.91 90.77 21.91 90.77 21.99 90.77 22.07 90.77 22.07"/>
  <polygon class="cls-3" points="91 21.59 87.08 21.59 87.04 21.51 86.99 21.43 91.09 21.43 91.04 21.51 91 21.59 91 21.59"/>
  <polygon class="cls-3" points="87.08 21.59 85.13 24.98 85.04 24.98 84.94 24.98 86.99 21.43 87.04 21.51 87.08 21.59 87.08 21.59"/>
  <polygon class="cls-3" points="85.66 24.94 87.39 27.93 87.32 27.97 87.25 28.01 85.52 25.02 85.59 24.98 85.66 24.94 85.66 24.94"/>
  <polygon class="cls-3" points="85.13 24.98 87.08 28.37 87.04 28.45 86.95 28.46 84.94 24.98 85.04 24.98 85.13 24.98 85.13 24.98"/>
  <polygon class="cls-3" points="87.1 28.53 85.89 32.23 85.8 32.26 85.74 32.2 86.95 28.46 87.04 28.45 87.1 28.53 87.1 28.53"/>
  <polygon class="cls-3" points="85.78 32.89 82.62 34.29 82.59 34.22 82.56 34.14 85.71 32.74 85.74 32.81 85.78 32.89 85.78 32.89"/>
  <polygon class="cls-3" points="85.79 32.35 82.22 33.94 82.14 33.89 82.07 33.84 85.74 32.2 85.8 32.26 85.79 32.35 85.79 32.35"/>
  <polygon class="cls-3" points="82.22 33.94 81.81 37.84 81.72 37.87 81.64 37.91 82.07 33.84 82.14 33.89 82.22 33.94 82.22 33.94"/>
  <polygon class="cls-3" points="82.28 37.58 85.07 39.61 85.02 39.68 84.97 39.74 82.18 37.71 82.23 37.65 82.28 37.58 82.28 37.58"/>
  <polygon class="cls-3" points="81.81 37.84 84.97 40.14 84.96 40.23 84.95 40.32 81.64 37.91 81.72 37.87 81.81 37.84 81.81 37.84"/>
  <polygon class="cls-3" points="84.97 40.14 88.55 38.55 88.62 38.6 88.7 38.65 84.95 40.32 84.96 40.23 84.97 40.14 84.97 40.14"/>
  <polygon class="cls-3" points="88.09 38.26 88.45 34.83 88.53 34.84 88.61 34.85 88.25 38.28 88.17 38.27 88.09 38.26 88.09 38.26"/>
  <polygon class="cls-3" points="88.55 38.55 88.96 34.65 89.04 34.62 89.12 34.66 88.7 38.65 88.62 38.6 88.55 38.55 88.55 38.55"/>
  <polygon class="cls-3" points="89.04 34.52 92.19 32.23 92.28 32.26 92.3 32.35 89.12 34.66 89.04 34.62 89.04 34.52 89.04 34.52"/>
  <polygon class="cls-3" points="88.96 34.65 85.79 32.35 85.8 32.26 85.89 32.23 89.04 34.52 89.04 34.62 88.96 34.65 88.96 34.65"/>
  <polygon class="cls-3" points="87.08 28.37 91 28.37 91.04 28.45 90.99 28.53 87.1 28.53 87.04 28.45 87.08 28.37 87.08 28.37"/>
  <polygon class="cls-3" points="98.52 45.32 95.6 44.37 95.63 44.29 95.65 44.22 98.57 45.16 98.59 45.25 98.52 45.32 98.52 45.32"/>
  <text class="cls-2" transform="translate(94.12 44.42)"><tspan x="0" y="0">O</tspan></text>
  <polygon class="cls-3" points="93.99 44.84 91.82 46.79 91.8 46.7 91.78 46.61 93.88 44.72 93.93 44.78 93.99 44.84 93.99 44.84"/>
  <polygon class="cls-3" points="91.82 46.79 88.01 45.55 87.99 45.46 88.06 45.4 91.78 46.61 91.8 46.7 91.82 46.79 91.82 46.79"/>
  <polygon class="cls-3" points="88.01 45.55 85.04 48.23 85.02 48.14 85 48.05 87.91 45.43 87.99 45.46 88.01 45.55 88.01 45.55"/>
  <polygon class="cls-3" points="85.04 48.23 81.93 47.22 81.96 47.14 81.98 47.07 85 48.05 85.02 48.14 85.04 48.23 85.04 48.23"/>
  <text class="cls-2" transform="translate(80.65 47.31)"><tspan x="0" y="0">S</tspan></text>
  <polygon class="cls-3" points="80.51 47.64 78.32 49.61 78.23 49.58 78.21 49.49 80.4 47.52 80.46 47.58 80.51 47.64 80.51 47.64"/>
  <polygon class="cls-3" points="77.79 50.03 74.51 48.96 74.54 48.89 74.56 48.81 77.84 49.88 77.82 49.95 77.79 50.03 77.79 50.03"/>
  <polygon class="cls-3" points="78.16 49.64 74.44 48.43 74.42 48.34 74.4 48.25 78.21 49.49 78.23 49.58 78.16 49.64 78.16 49.64"/>
  <polygon class="cls-3" points="74.44 48.43 71.53 51.05 71.44 51.02 71.42 50.93 74.4 48.25 74.42 48.34 74.44 48.43 74.44 48.43"/>
  <polygon class="cls-3" points="72.05 51.18 72.77 54.55 72.69 54.57 72.61 54.59 71.89 51.21 71.97 51.2 72.05 51.18 72.05 51.18"/>
  <polygon class="cls-3" points="71.53 51.05 72.35 54.88 72.28 54.94 72.21 55 71.37 51.09 71.44 51.02 71.53 51.05 71.53 51.05"/>
  <polygon class="cls-3" points="72.35 54.88 76.07 56.09 76.09 56.18 76.11 56.27 72.21 55 72.28 54.94 72.35 54.88 72.35 54.88"/>
  <polygon class="cls-3" points="75.92 55.58 78.48 53.27 78.54 53.33 78.59 53.39 76.02 55.7 75.97 55.64 75.92 55.58 75.92 55.58"/>
  <polygon class="cls-3" points="76.07 56.09 78.98 53.47 79.06 53.5 79.15 53.53 76.11 56.27 76.09 56.18 76.07 56.09 76.07 56.09"/>
  <polygon class="cls-3" points="78.98 53.47 78.16 49.64 78.23 49.58 78.32 49.61 79.15 53.53 79.06 53.5 78.98 53.47 78.98 53.47"/>
  <polygon class="cls-3" points="71.37 51.09 68.36 50.11 68.38 50.03 68.41 49.95 71.42 50.93 71.44 51.02 71.37 51.09 71.37 51.09"/>
  <text class="cls-2" transform="translate(67.07 50.2)"><tspan x="0" y="0">S</tspan></text>
  <polygon class="cls-3" points="66.94 50.52 64.68 52.56 64.66 52.47 64.64 52.38 66.83 50.4 66.88 50.46 66.94 50.52 66.94 50.52"/>
  <polygon class="cls-3" points="64.68 52.56 60.87 51.32 60.85 51.23 60.92 51.17 64.64 52.38 64.66 52.47 64.68 52.56 64.68 52.56"/>
  <polygon class="cls-3" points="60.87 51.32 57.89 54 57.87 53.91 57.85 53.82 60.76 51.2 60.85 51.23 60.87 51.32 60.87 51.32"/>
  <polygon class="cls-3" points="57.89 54 54.88 53.02 54.91 52.95 54.93 52.87 57.85 53.82 57.87 53.91 57.89 54 57.89 54"/>
  <text class="cls-2" transform="translate(53.4 53.08)"><tspan x="0" y="0">O</tspan></text>
  <polygon class="cls-3" points="53.27 53.49 51.17 55.38 51.08 55.35 51.06 55.26 53.16 53.38 53.21 53.43 53.27 53.49 53.27 53.49"/>
  <polygon class="cls-3" points="51.01 55.41 47.29 54.2 47.27 54.11 47.34 54.05 51.06 55.26 51.08 55.35 51.01 55.41 51.01 55.41"/>
  <polygon class="cls-3" points="47.44 54.72 44.88 57.03 44.82 56.97 44.77 56.91 47.33 54.6 47.39 54.66 47.44 54.72 47.44 54.72"/>
  <polygon class="cls-3" points="47.29 54.2 44.38 56.82 44.3 56.79 44.21 56.77 47.18 54.09 47.27 54.11 47.29 54.2 47.29 54.2"/>
  <polygon class="cls-3" points="44.38 56.82 45.2 60.65 45.13 60.71 45.06 60.78 44.21 56.77 44.3 56.79 44.38 56.82 44.38 56.82"/>
  <polygon class="cls-3" points="45.57 60.27 48.85 61.33 48.82 61.41 48.8 61.48 45.52 60.42 45.54 60.34 45.57 60.27 45.57 60.27"/>
  <polygon class="cls-3" points="45.2 60.65 48.92 61.86 48.94 61.95 48.87 62.01 45.06 60.78 45.13 60.71 45.2 60.65 45.2 60.65"/>
  <polygon class="cls-3" points="48.92 61.86 51.83 59.24 51.92 59.27 52 59.3 49.03 61.98 48.94 61.95 48.92 61.86 48.92 61.86"/>
  <polygon class="cls-3" points="51.31 59.12 50.59 55.74 50.67 55.72 50.75 55.71 51.47 59.08 51.39 59.1 51.31 59.12 51.31 59.12"/>
  <polygon class="cls-3" points="51.83 59.24 51.01 55.41 51.08 55.35 51.17 55.38 52 59.3 51.92 59.27 51.83 59.24 51.83 59.24"/>
  <polygon class="cls-3" points="49.03 61.98 49.66 64.96 49.58 64.98 49.5 65 48.87 62.01 48.94 61.95 49.03 61.98 49.03 61.98"/>
  <text class="cls-2" transform="translate(49.16 66.24)"><tspan x="0" y="0">N</tspan></text>
  <polygon class="cls-3" points="49.03 66.65 46.88 68.58 46.79 68.55 46.71 68.52 48.92 66.53 48.97 66.59 49.03 66.65 49.03 66.65"/>
  <polygon class="cls-3" points="46.88 68.58 47.71 72.45 47.63 72.47 47.55 72.49 46.71 68.52 46.79 68.55 46.88 68.58 46.88 68.58"/>
  <polygon class="cls-3" points="50.59 66.05 53.65 67.05 53.58 67.11 53.51 67.17 50.54 66.21 50.57 66.13 50.59 66.05 50.59 66.05"/>
  <polygon class="cls-3" points="53.65 67.05 54.49 71.01 54.41 71.03 54.34 71.04 53.51 67.17 53.58 67.11 53.65 67.05 53.65 67.05"/>
  <polygon class="cls-3" points="47.18 54.09 46.37 50.25 46.44 50.2 46.51 50.14 47.34 54.05 47.27 54.11 47.18 54.09 47.18 54.09"/>
  <polygon class="cls-3" points="46.37 50.25 43.54 48.83 43.58 48.76 43.61 48.69 46.51 50.14 46.44 50.2 46.37 50.25 46.37 50.25"/>
  <polygon class="cls-3" points="46.58 49.82 43.41 49.3 43.43 49.22 43.44 49.14 46.6 49.66 46.59 49.74 46.58 49.82 46.58 49.82"/>
  <text class="cls-2" transform="translate(42.02 49.32)"><tspan x="0" y="0">N</tspan></text>
  <polygon class="cls-3" points="42.36 48.08 41.91 45.95 41.99 45.93 42.06 45.91 42.52 48.05 42.44 48.07 42.36 48.08 42.36 48.08"/>
  <text class="cls-2" transform="translate(41.19 45.41)"><tspan x="0" y="0">N</tspan></text>
  <polygon class="cls-3" points="40.83 45.31 38.05 44.41 38.07 44.33 38.1 44.26 40.88 45.16 40.85 45.24 40.83 45.31 40.83 45.31"/>
  <polygon class="cls-3" points="40.97 44.86 38 43.89 37.99 43.8 38.05 43.74 41.02 44.7 41 44.78 40.97 44.86 40.97 44.86"/>
  <polygon class="cls-3" points="37.89 43.77 36.69 40.07 36.75 39.99 36.84 40 38.05 43.74 37.99 43.8 37.89 43.77 37.89 43.77"/>
  <polygon class="cls-3" points="36.4 39.47 38.13 36.48 38.2 36.52 38.27 36.56 36.54 39.55 36.47 39.51 36.4 39.47 36.4 39.47"/>
  <polygon class="cls-3" points="36.7 39.91 38.66 36.52 38.75 36.52 38.84 36.52 36.84 40 36.75 39.99 36.7 39.91 36.7 39.91"/>
  <polygon class="cls-3" points="38.66 36.52 36.7 33.13 36.75 33.05 36.8 32.97 38.84 36.52 38.75 36.52 38.66 36.52 38.66 36.52"/>
  <polygon class="cls-3" points="36.47 33.61 33.02 33.61 33.02 33.53 33.02 33.45 36.47 33.45 36.47 33.53 36.47 33.61 36.47 33.61"/>
  <polygon class="cls-3" points="36.7 33.13 32.79 33.13 32.74 33.05 32.7 32.97 36.8 32.97 36.75 33.05 36.7 33.13 36.7 33.13"/>
  <polygon class="cls-3" points="32.79 33.13 30.83 36.52 30.74 36.52 30.65 36.52 32.7 32.97 32.74 33.05 32.79 33.13 32.79 33.13"/>
  <polygon class="cls-3" points="31.36 36.48 33.09 39.47 33.02 39.51 32.95 39.55 31.23 36.56 31.3 36.52 31.36 36.48 31.36 36.48"/>
  <polygon class="cls-3" points="30.83 36.52 32.79 39.91 32.74 39.99 32.66 40 30.65 36.52 30.74 36.52 30.83 36.52 30.83 36.52"/>
  <polygon class="cls-3" points="32.8 40.07 31.6 43.77 31.51 43.8 31.44 43.74 32.66 40 32.74 39.99 32.8 40.07 32.8 40.07"/>
  <polygon class="cls-3" points="31.48 44.43 28.33 45.83 28.29 45.76 28.26 45.68 31.41 44.28 31.45 44.35 31.48 44.43 31.48 44.43"/>
  <polygon class="cls-3" points="31.5 43.89 27.92 45.49 27.85 45.43 27.77 45.38 31.44 43.74 31.51 43.8 31.5 43.89 31.5 43.89"/>
  <polygon class="cls-3" points="27.92 45.49 27.51 49.38 27.43 49.42 27.34 49.45 27.77 45.38 27.85 45.43 27.92 45.49 27.92 45.49"/>
  <polygon class="cls-3" points="27.98 49.12 30.77 51.15 30.73 51.22 30.68 51.28 27.89 49.25 27.93 49.19 27.98 49.12 27.98 49.12"/>
  <polygon class="cls-3" points="27.51 49.38 30.68 51.68 30.67 51.77 30.66 51.86 27.34 49.45 27.43 49.42 27.51 49.38 27.51 49.38"/>
  <polygon class="cls-3" points="30.68 51.68 34.25 50.09 34.33 50.14 34.4 50.19 30.66 51.86 30.67 51.77 30.68 51.68 30.68 51.68"/>
  <polygon class="cls-3" points="33.8 49.81 34.16 46.37 34.24 46.38 34.32 46.39 33.96 49.82 33.88 49.81 33.8 49.81 33.8 49.81"/>
  <polygon class="cls-3" points="34.25 50.09 34.66 46.19 34.75 46.16 34.82 46.2 34.4 50.19 34.33 50.14 34.25 50.09 34.25 50.09"/>
  <polygon class="cls-3" points="34.75 46.06 37.89 43.77 37.99 43.8 38 43.89 34.82 46.2 34.75 46.16 34.75 46.06 34.75 46.06"/>
  <polygon class="cls-3" points="34.66 46.19 31.5 43.89 31.51 43.8 31.6 43.77 34.75 46.06 34.75 46.16 34.66 46.19 34.66 46.19"/>
  <polygon class="cls-3" points="32.79 39.91 36.7 39.91 36.75 39.99 36.69 40.07 32.8 40.07 32.74 39.99 32.79 39.91 32.79 39.91"/>
  <polygon class="cls-3" points="60.76 51.2 60.12 48.22 60.2 48.2 60.28 48.19 60.92 51.17 60.85 51.23 60.76 51.2 60.76 51.2"/>
  <text class="cls-2" transform="translate(58.08 47.68)"><tspan x="0" y="0">H</tspan></text>
  <text class="cls-2" transform="translate(59.35 47.68)"><tspan x="0" y="0">O</tspan></text>
  <polygon class="cls-3" points="87.91 45.43 87.27 42.45 87.35 42.43 87.43 42.41 88.06 45.4 87.99 45.46 87.91 45.43 87.91 45.43"/>
  <text class="cls-2" transform="translate(85.22 41.91)"><tspan x="0" y="0">H</tspan></text>
  <text class="cls-2" transform="translate(86.5 41.91)"><tspan x="0" y="0">O</tspan></text>
  <polygon class="cls-3" points="179.06 117.63 178.22 113.66 178.3 113.69 178.39 113.72 179.21 117.59 179.14 117.61 179.06 117.63 179.06 117.63"/>
  <polygon class="cls-3" points="178.22 113.66 180.43 111.67 180.48 111.73 180.54 111.79 178.39 113.72 178.3 113.69 178.22 113.66 178.22 113.66"/>
  <text class="cls-2" transform="translate(180.67 111.38)"><tspan x="0" y="0">N</tspan></text>
  <polygon class="cls-3" points="182.1 111.19 185.16 112.19 185.09 112.25 185.02 112.31 182.05 111.35 182.08 111.27 182.1 111.19 182.1 111.19"/>
  <polygon class="cls-3" points="185.16 112.19 186 116.15 185.92 116.17 185.84 116.18 185.02 112.31 185.09 112.25 185.16 112.19 185.16 112.19"/>
  <polygon class="cls-3" points="181.01 110.14 180.38 107.15 180.45 107.09 180.54 107.12 181.17 110.1 181.09 110.12 181.01 110.14 181.01 110.14"/>
  <polygon class="cls-3" points="180.38 107.15 176.57 105.92 176.64 105.85 176.71 105.79 180.43 107 180.45 107.09 180.38 107.15 180.38 107.15"/>
  <polygon class="cls-3" points="180.31 106.63 177.03 105.56 177.05 105.48 177.08 105.41 180.36 106.47 180.33 106.55 180.31 106.63 180.31 106.63"/>
  <polygon class="cls-3" points="176.57 105.92 175.74 102 175.8 101.94 175.89 101.96 176.71 105.79 176.64 105.85 176.57 105.92 176.57 105.92"/>
  <polygon class="cls-3" points="175.79 101.85 178.69 99.23 178.78 99.26 178.8 99.35 175.89 101.96 175.8 101.94 175.79 101.85 175.79 101.85"/>
  <polygon class="cls-3" points="176.28 102.05 178.84 99.74 178.9 99.8 178.95 99.86 176.39 102.17 176.33 102.11 176.28 102.05 176.28 102.05"/>
  <polygon class="cls-3" points="178.85 99.19 182.66 100.43 182.59 100.49 182.52 100.55 178.8 99.35 178.78 99.26 178.85 99.19 178.85 99.19"/>
  <polygon class="cls-3" points="182.66 100.43 183.51 104.44 183.42 104.41 183.34 104.38 182.52 100.55 182.59 100.49 182.66 100.43 182.66 100.43"/>
  <polygon class="cls-3" points="182.26 100.85 182.98 104.22 182.9 104.24 182.82 104.26 182.1 100.88 182.18 100.86 182.26 100.85 182.26 100.85"/>
  <polygon class="cls-3" points="183.51 104.44 180.54 107.12 180.45 107.09 180.43 107 183.34 104.38 183.42 104.41 183.51 104.44 183.51 104.44"/>
  <polygon class="cls-3" points="178.69 99.23 177.88 95.39 177.95 95.34 178.02 95.28 178.85 99.19 178.78 99.26 178.69 99.23 178.69 99.23"/>
  <polygon class="cls-3" points="177.88 95.39 175.05 93.97 175.09 93.9 175.12 93.83 178.02 95.28 177.95 95.34 177.88 95.39 177.88 95.39"/>
  <polygon class="cls-3" points="178.08 94.96 174.92 94.44 174.94 94.36 174.95 94.28 178.11 94.8 178.1 94.88 178.08 94.96 178.08 94.96"/>
  <text class="cls-2" transform="translate(173.53 94.47)"><tspan x="0" y="0">N</tspan></text>
  <polygon class="cls-3" points="173.87 93.22 173.42 91.09 173.5 91.07 173.57 91.05 174.03 93.19 173.95 93.21 173.87 93.22 173.87 93.22"/>
  <text class="cls-2" transform="translate(172.7 90.55)"><tspan x="0" y="0">N</tspan></text>
  <polygon class="cls-3" points="172.33 90.45 169.56 89.55 169.58 89.48 169.61 89.4 172.38 90.3 172.36 90.38 172.33 90.45 172.33 90.45"/>
  <polygon class="cls-3" points="172.48 90 169.51 89.03 169.5 88.94 169.56 88.88 172.53 89.84 172.51 89.92 172.48 90 172.48 90"/>
  <polygon class="cls-3" points="169.4 88.91 168.2 85.21 168.26 85.13 168.35 85.14 169.56 88.88 169.5 88.94 169.4 88.91 169.4 88.91"/>
  <polygon class="cls-3" points="167.91 84.61 169.64 81.62 169.71 81.66 169.78 81.7 168.05 84.69 167.98 84.65 167.91 84.61 167.91 84.61"/>
  <polygon class="cls-3" points="168.21 85.05 170.17 81.66 170.26 81.66 170.35 81.66 168.35 85.14 168.26 85.13 168.21 85.05 168.21 85.05"/>
  <polygon class="cls-3" points="170.17 81.66 168.21 78.27 168.26 78.19 168.3 78.11 170.35 81.66 170.26 81.66 170.17 81.66 170.17 81.66"/>
  <polygon class="cls-3" points="167.98 78.75 164.53 78.75 164.53 78.67 164.53 78.59 167.98 78.59 167.98 78.67 167.98 78.75 167.98 78.75"/>
  <polygon class="cls-3" points="168.21 78.27 164.3 78.27 164.25 78.19 164.21 78.11 168.3 78.11 168.26 78.19 168.21 78.27 168.21 78.27"/>
  <polygon class="cls-3" points="164.3 78.27 162.34 81.66 162.25 81.66 162.16 81.66 164.21 78.11 164.25 78.19 164.3 78.27 164.3 78.27"/>
  <polygon class="cls-3" points="162.87 81.62 164.6 84.61 164.53 84.65 164.46 84.69 162.74 81.7 162.8 81.66 162.87 81.62 162.87 81.62"/>
  <polygon class="cls-3" points="162.34 81.66 164.3 85.05 164.25 85.13 164.17 85.14 162.16 81.66 162.25 81.66 162.34 81.66 162.34 81.66"/>
  <polygon class="cls-3" points="164.31 85.21 163.11 88.91 163.01 88.94 162.95 88.88 164.17 85.14 164.25 85.13 164.31 85.21 164.31 85.21"/>
  <polygon class="cls-3" points="162.99 89.57 159.84 90.97 159.8 90.9 159.77 90.82 162.92 89.42 162.96 89.49 162.99 89.57 162.99 89.57"/>
  <polygon class="cls-3" points="163 89.03 159.43 90.63 159.35 90.57 159.28 90.52 162.95 88.88 163.01 88.94 163 89.03 163 89.03"/>
  <polygon class="cls-3" points="159.43 90.63 159.02 94.52 158.94 94.56 158.85 94.59 159.28 90.52 159.35 90.57 159.43 90.63 159.43 90.63"/>
  <polygon class="cls-3" points="159.49 94.27 162.28 96.29 162.24 96.36 162.19 96.42 159.4 94.39 159.44 94.33 159.49 94.27 159.49 94.27"/>
  <polygon class="cls-3" points="159.02 94.52 162.19 96.82 162.18 96.91 162.17 97 158.85 94.59 158.94 94.56 159.02 94.52 159.02 94.52"/>
  <polygon class="cls-3" points="162.19 96.82 165.76 95.23 165.84 95.28 165.91 95.34 162.17 97 162.18 96.91 162.19 96.82 162.19 96.82"/>
  <polygon class="cls-3" points="165.31 94.95 165.67 91.51 165.75 91.52 165.83 91.53 165.47 94.96 165.39 94.95 165.31 94.95 165.31 94.95"/>
  <polygon class="cls-3" points="165.76 95.23 166.17 91.33 166.26 91.3 166.33 91.34 165.91 95.34 165.84 95.28 165.76 95.23 165.76 95.23"/>
  <polygon class="cls-3" points="166.26 91.2 169.4 88.91 169.5 88.94 169.51 89.03 166.33 91.34 166.26 91.3 166.26 91.2 166.26 91.2"/>
  <polygon class="cls-3" points="166.17 91.33 163 89.03 163.01 88.94 163.11 88.91 166.26 91.2 166.26 91.3 166.17 91.33 166.17 91.33"/>
  <polygon class="cls-3" points="164.3 85.05 168.21 85.05 168.26 85.13 168.2 85.21 164.31 85.21 164.25 85.13 164.3 85.05 164.3 85.05"/>
  <polygon class="cls-3" points="175.74 102 172.82 101.05 172.84 100.97 172.87 100.9 175.79 101.85 175.8 101.94 175.74 102 175.74 102"/>
  <text class="cls-2" transform="translate(171.33 101.11)"><tspan x="0" y="0">O</tspan></text>
  <polygon class="cls-3" points="171.2 101.52 169.04 103.47 169.02 103.38 169 103.29 171.09 101.4 171.15 101.46 171.2 101.52 171.2 101.52"/>
  <polygon class="cls-3" points="169.04 103.47 165.23 102.23 165.21 102.14 165.28 102.08 169 103.29 169.02 103.38 169.04 103.47 169.04 103.47"/>
  <polygon class="cls-3" points="165.23 102.23 162.25 104.91 162.23 104.82 162.21 104.73 165.12 102.11 165.21 102.14 165.23 102.23 165.23 102.23"/>
  <polygon class="cls-3" points="162.25 104.91 159.15 103.9 159.17 103.83 159.2 103.75 162.21 104.73 162.23 104.82 162.25 104.91 162.25 104.91"/>
  <text class="cls-2" transform="translate(157.86 103.99)"><tspan x="0" y="0">S</tspan></text>
  <polygon class="cls-3" points="157.73 104.32 155.53 106.3 155.44 106.26 155.42 106.18 157.62 104.2 157.67 104.26 157.73 104.32 157.73 104.32"/>
  <polygon class="cls-3" points="155.53 106.3 155.85 109.35 155.77 109.36 155.69 109.36 155.37 106.33 155.44 106.26 155.53 106.3 155.53 106.3"/>
  <polygon class="cls-3" points="155.08 106.65 155.37 109.4 155.29 109.41 155.21 109.42 154.92 106.67 155 106.66 155.08 106.65 155.08 106.65"/>
  <text class="cls-2" transform="translate(155.25 110.62)"><tspan x="0" y="0">N</tspan></text>
  <polygon class="cls-3" points="155.1 110.68 153.03 111.59 153 111.52 152.97 111.45 155.03 110.53 155.06 110.6 155.1 110.68 155.1 110.68"/>
  <text class="cls-2" transform="translate(151.59 112.24)"><tspan x="0" y="0">N</tspan></text>
  <polygon class="cls-3" points="151.35 111.04 149.49 108.98 149.52 108.9 149.62 108.89 151.46 110.94 151.41 110.99 151.35 111.04 151.35 111.04"/>
  <polygon class="cls-3" points="151.7 110.72 150.05 108.89 150.11 108.84 150.17 108.78 151.82 110.62 151.76 110.67 151.7 110.72 151.7 110.72"/>
  <polygon class="cls-3" points="149.47 108.82 150.94 106.28 151.01 106.32 151.08 106.36 149.62 108.89 149.52 108.9 149.47 108.82 149.47 108.82"/>
  <text class="cls-2" transform="translate(150.96 105.84)"><tspan x="0" y="0">S</tspan></text>
  <polygon class="cls-3" points="152.29 105.51 155.42 106.18 155.44 106.26 155.37 106.33 152.26 105.67 152.28 105.59 152.29 105.51 152.29 105.51"/>
  <polygon class="cls-3" points="149.49 108.98 146.3 109.32 146.29 109.24 146.28 109.16 149.47 108.82 149.52 108.9 149.49 108.98 149.49 108.98"/>
  <text class="cls-2" transform="translate(144.98 109.73)"><tspan x="0" y="0">S</tspan></text>
  <polygon class="cls-3" points="144.83 108.47 143.15 106.16 143.18 106.08 143.22 105.99 144.96 108.38 144.89 108.43 144.83 108.47 144.83 108.47"/>
  <polygon class="cls-3" points="143.15 106.16 139.25 106.57 139.2 106.5 139.24 106.41 143.22 105.99 143.18 106.08 143.15 106.16 143.15 106.16"/>
  <polygon class="cls-3" points="139.11 106.51 136.81 103.34 136.85 103.26 136.88 103.17 139.24 106.41 139.2 106.5 139.11 106.51 139.11 106.51"/>
  <polygon class="cls-3" points="136.81 103.34 133.72 103.66 133.71 103.59 133.7 103.51 136.88 103.17 136.85 103.26 136.81 103.34 136.81 103.34"/>
  <text class="cls-2" transform="translate(132.2 104.08)"><tspan x="0" y="0">O</tspan></text>
  <polygon class="cls-3" points="132.15 102.83 130.47 100.52 130.51 100.43 130.6 100.42 132.28 102.74 132.21 102.78 132.15 102.83 132.15 102.83"/>
  <polygon class="cls-3" points="130.45 100.36 132.04 96.78 132.14 96.77 132.19 96.85 130.6 100.42 130.51 100.43 130.45 100.36 130.45 100.36"/>
  <polygon class="cls-3" points="131.52 96.88 129.49 94.09 129.56 94.04 129.62 93.99 131.65 96.78 131.58 96.83 131.52 96.88 131.52 96.88"/>
  <polygon class="cls-3" points="132.04 96.78 129.74 93.62 129.78 93.53 129.82 93.45 132.17 96.69 132.14 96.77 132.04 96.78 132.04 96.78"/>
  <polygon class="cls-3" points="129.74 93.62 125.85 94.03 125.8 93.95 125.74 93.88 129.82 93.45 129.78 93.53 129.74 93.62 129.74 93.62"/>
  <polygon class="cls-3" points="126.2 94.43 124.79 97.59 124.72 97.55 124.65 97.52 126.05 94.37 126.12 94.4 126.2 94.43 126.2 94.43"/>
  <polygon class="cls-3" points="125.85 94.03 124.26 97.6 124.17 97.61 124.11 97.54 125.74 93.88 125.8 93.95 125.85 94.03 125.85 94.03"/>
  <polygon class="cls-3" points="124.26 97.6 126.56 100.77 126.52 100.85 126.49 100.94 124.13 97.7 124.17 97.61 124.26 97.6 124.26 97.6"/>
  <polygon class="cls-3" points="126.74 100.27 130.17 99.9 130.18 99.98 130.19 100.06 126.76 100.42 126.75 100.34 126.74 100.27 126.74 100.27"/>
  <polygon class="cls-3" points="126.56 100.77 130.45 100.36 130.51 100.43 130.47 100.52 126.49 100.94 126.52 100.85 126.56 100.77 126.56 100.77"/>
  <polygon class="cls-3" points="124.13 97.7 120.99 98.03 120.98 97.95 120.97 97.87 124.11 97.54 124.17 97.61 124.13 97.7 124.13 97.7"/>
  <text class="cls-2" transform="translate(119.58 98.4)"><tspan x="0" y="0">N</tspan></text>
  <polygon class="cls-3" points="119.47 97.19 117.79 94.87 117.83 94.79 117.87 94.7 119.6 97.09 119.54 97.14 119.47 97.19 119.47 97.19"/>
  <polygon class="cls-3" points="117.79 94.87 113.85 95.29 113.85 95.21 113.84 95.13 117.87 94.7 117.83 94.79 117.79 94.87 117.79 94.87"/>
  <polygon class="cls-3" points="119.86 98.95 118.61 101.76 118.55 101.69 118.5 101.61 119.71 98.89 119.79 98.92 119.86 98.95 119.86 98.95"/>
  <polygon class="cls-3" points="118.61 101.76 114.58 102.19 114.57 102.11 114.56 102.03 118.5 101.61 118.55 101.69 118.61 101.76 118.61 101.76"/>
  <polygon class="cls-3" points="132.17 96.69 136.07 96.28 136.12 96.35 136.17 96.43 132.19 96.85 132.14 96.77 132.17 96.69 132.17 96.69"/>
  <polygon class="cls-3" points="136.07 96.28 137.72 93.74 137.79 93.78 137.86 93.83 136.17 96.43 136.12 96.35 136.07 96.28 136.07 96.28"/>
  <polygon class="cls-3" points="136.48 96.53 137.28 93.57 137.35 93.59 137.43 93.61 136.64 96.57 136.56 96.55 136.48 96.53 136.48 96.53"/>
  <text class="cls-2" transform="translate(137.14 93.06)"><tspan x="0" y="0">N</tspan></text>
  <polygon class="cls-3" points="138.54 92.53 140.93 92.28 140.94 92.36 140.94 92.44 138.56 92.69 138.55 92.61 138.54 92.53 138.54 92.53"/>
  <text class="cls-2" transform="translate(141.12 92.64)"><tspan x="0" y="0">N</tspan></text>
  <polygon class="cls-3" points="141.62 91.16 142.75 88.61 142.82 88.65 142.9 88.68 141.76 91.22 141.69 91.19 141.62 91.16 141.62 91.16"/>
  <polygon class="cls-3" points="142.06 91.35 143.27 88.62 143.36 88.62 143.42 88.69 142.2 91.42 142.13 91.39 142.06 91.35 142.06 91.35"/>
  <polygon class="cls-3" points="143.4 88.53 147.21 87.72 147.28 87.78 147.26 87.87 143.42 88.69 143.36 88.62 143.4 88.53 143.4 88.53"/>
  <polygon class="cls-3" points="147.84 87.49 150.63 89.52 150.58 89.59 150.53 89.65 147.74 87.62 147.79 87.56 147.84 87.49 147.84 87.49"/>
  <polygon class="cls-3" points="147.37 87.75 150.53 90.05 150.52 90.14 150.51 90.23 147.26 87.87 147.28 87.78 147.37 87.75 147.37 87.75"/>
  <polygon class="cls-3" points="150.53 90.05 154.11 88.45 154.18 88.51 154.26 88.56 150.51 90.23 150.52 90.14 150.53 90.05 150.53 90.05"/>
  <polygon class="cls-3" points="153.65 88.17 154.01 84.74 154.09 84.75 154.17 84.76 153.81 88.19 153.73 88.18 153.65 88.17 153.65 88.17"/>
  <polygon class="cls-3" points="154.11 88.45 154.52 84.56 154.6 84.53 154.69 84.49 154.26 88.56 154.18 88.51 154.11 88.45 154.11 88.45"/>
  <polygon class="cls-3" points="154.52 84.56 151.35 82.26 151.36 82.17 151.37 82.08 154.69 84.49 154.6 84.53 154.52 84.56 154.52 84.56"/>
  <polygon class="cls-3" points="151.33 82.8 148.18 84.2 148.15 84.13 148.12 84.05 151.27 82.65 151.3 82.72 151.33 82.8 151.33 82.8"/>
  <polygon class="cls-3" points="151.35 82.26 147.77 83.85 147.7 83.8 147.7 83.71 151.37 82.08 151.36 82.17 151.35 82.26 151.35 82.26"/>
  <polygon class="cls-3" points="147.61 83.85 144.06 82.27 144.04 82.17 144.11 82.11 147.7 83.71 147.7 83.8 147.61 83.85 147.61 83.85"/>
  <polygon class="cls-3" points="143.42 82.08 142.35 78.8 142.43 78.77 142.51 78.75 143.57 82.03 143.5 82.06 143.42 82.08 143.42 82.08"/>
  <polygon class="cls-3" points="143.95 82.15 142.74 78.43 142.8 78.36 142.86 78.29 144.11 82.11 144.04 82.17 143.95 82.15 143.95 82.15"/>
  <polygon class="cls-3" points="142.74 78.43 138.91 77.62 138.88 77.53 138.86 77.44 142.86 78.29 142.8 78.36 142.74 78.43 142.74 78.43"/>
  <polygon class="cls-3" points="139.12 78.11 136.81 80.67 136.75 80.62 136.69 80.57 139 78 139.06 78.06 139.12 78.11 139.12 78.11"/>
  <polygon class="cls-3" points="138.91 77.62 136.29 80.52 136.2 80.5 136.11 80.49 138.86 77.44 138.88 77.53 138.91 77.62 138.91 77.62"/>
  <polygon class="cls-3" points="136.29 80.52 137.5 84.25 137.44 84.31 137.38 84.38 136.11 80.49 136.2 80.5 136.29 80.52 136.29 80.52"/>
  <polygon class="cls-3" points="137.83 83.82 141.21 84.54 141.19 84.62 141.17 84.7 137.8 83.98 137.81 83.9 137.83 83.82 137.83 83.82"/>
  <polygon class="cls-3" points="137.5 84.25 141.33 85.06 141.36 85.15 141.31 85.22 137.38 84.38 137.44 84.31 137.5 84.25 137.5 84.25"/>
  <polygon class="cls-3" points="141.46 85.16 143.4 88.53 143.36 88.62 143.27 88.62 141.31 85.22 141.36 85.15 141.46 85.16 141.46 85.16"/>
  <polygon class="cls-3" points="141.33 85.06 143.95 82.15 144.04 82.17 144.06 82.27 141.46 85.16 141.36 85.15 141.33 85.06 141.33 85.06"/>
  <polygon class="cls-3" points="147.77 83.85 147.37 87.75 147.28 87.78 147.21 87.72 147.61 83.85 147.7 83.8 147.77 83.85 147.77 83.85"/>
  <polygon class="cls-3" points="139.25 106.57 138.04 109.3 137.97 109.27 137.89 109.23 139.11 106.51 139.2 106.5 139.25 106.57 139.25 106.57"/>
  <text class="cls-2" transform="translate(135.64 110.52)"><tspan x="0" y="0">H</tspan></text>
  <text class="cls-2" transform="translate(136.91 110.52)"><tspan x="0" y="0">O</tspan></text>
  <polygon class="cls-3" points="165.12 102.11 164.49 99.13 164.56 99.11 164.64 99.1 165.28 102.08 165.21 102.14 165.12 102.11 165.12 102.11"/>
  <text class="cls-2" transform="translate(162.44 98.59)"><tspan x="0" y="0">H</tspan></text>
  <text class="cls-2" transform="translate(163.72 98.59)"><tspan x="0" y="0">O</tspan></text>
</svg>