<?xml version="1.0" encoding="UTF-8"?>
<svg id="_图层_1" data-name="图层 1" xmlns="http://www.w3.org/2000/svg" viewBox="0 0 200 130">
  <defs>
    <style>
      .cls-1 {
        font-family: ArialMT, Arial;
        font-size: 2.81px;
      }

      .cls-1, .cls-2 {
        fill: #000;
      }

      .cls-2 {
        fill-rule: evenodd;
        stroke-width: 0px;
      }
    </style>
  </defs>
  <polygon class="cls-2" points="157.28 61.98 156.62 68.25 156.48 68.31 156.35 68.37 157.02 61.96 157.15 61.97 157.28 61.98 157.28 61.98"/>
  <polygon class="cls-2" points="156.62 68.25 160.44 71.03 160.37 71.13 160.29 71.24 156.35 68.37 156.48 68.31 156.62 68.25 156.62 68.25"/>
  <text class="cls-1" transform="translate(160.67 72.64)"><tspan x="0" y="0">N</tspan></text>
  <polygon class="cls-2" points="162.86 71.37 167.34 69.38 167.46 69.46 167.58 69.55 162.96 71.61 162.91 71.49 162.86 71.37 162.86 71.37"/>
  <polygon class="cls-2" points="167.34 69.38 168 63.11 168.13 63.12 168.26 63.14 167.58 69.55 167.46 69.46 167.34 69.38 167.34 69.38"/>
  <polygon class="cls-2" points="161.62 73.49 161.11 78.34 160.97 78.4 160.85 78.31 161.36 73.46 161.49 73.47 161.62 73.49 161.62 73.49"/>
  <polygon class="cls-2" points="160.93 79.39 155.92 81.62 155.86 81.51 155.81 81.39 160.83 79.16 160.88 79.27 160.93 79.39 160.93 79.39"/>
  <polygon class="cls-2" points="160.96 78.54 155.27 81.07 155.15 80.99 155.03 80.9 160.85 78.31 160.97 78.4 160.96 78.54 160.96 78.54"/>
  <polygon class="cls-2" points="155.27 81.07 154.62 87.27 154.48 87.33 154.36 87.26 155.03 80.9 155.15 80.99 155.27 81.07 155.27 81.07"/>
  <polygon class="cls-2" points="154.62 87.27 159.66 90.93 159.64 91.07 159.49 91.12 154.48 87.48 154.48 87.33 154.62 87.27 154.62 87.27"/>
  <polygon class="cls-2" points="154.56 88.17 158.82 91.26 158.74 91.37 158.67 91.47 154.41 88.38 154.48 88.27 154.56 88.17 154.56 88.17"/>
  <polygon class="cls-2" points="159.66 90.93 165.34 88.39 165.46 88.48 165.58 88.57 159.74 91.17 159.64 91.07 159.66 90.93 159.66 90.93"/>
  <polygon class="cls-2" points="164.62 87.95 165.2 82.49 165.32 82.5 165.45 82.51 164.88 87.98 164.75 87.96 164.62 87.95 164.62 87.95"/>
  <polygon class="cls-2" points="165.34 88.39 166 82.2 166.13 82.14 166.26 82.08 165.58 88.57 165.46 88.48 165.34 88.39 165.34 88.39"/>
  <polygon class="cls-2" points="166 82.2 160.96 78.54 160.97 78.4 161.11 78.34 166.26 82.08 166.13 82.14 166 82.2 166 82.2"/>
  <polygon class="cls-2" points="159.74 91.17 157.81 97.12 157.67 97.14 157.58 97.01 159.49 91.12 159.64 91.07 159.74 91.17 159.74 91.17"/>
  <polygon class="cls-2" points="157.6 97.26 151.37 97.26 151.3 97.14 151.39 97.01 157.58 97.01 157.67 97.14 157.6 97.26 157.6 97.26"/>
  <polygon class="cls-2" points="157.11 96.5 151.85 96.5 151.85 96.37 151.85 96.24 157.11 96.24 157.11 96.37 157.11 96.5 157.11 96.5"/>
  <polygon class="cls-2" points="151.16 97.12 149.23 91.18 149.33 91.07 149.48 91.12 151.39 97.01 151.3 97.14 151.16 97.12 151.16 97.12"/>
  <polygon class="cls-2" points="148.68 91.8 144.26 90.37 144.3 90.24 144.34 90.12 148.76 91.56 148.72 91.68 148.68 91.8 148.68 91.8"/>
  <polygon class="cls-2" points="149.23 91.18 144.49 89.64 144.53 89.52 144.57 89.4 149.3 90.93 149.33 91.07 149.23 91.18 149.23 91.18"/>
  <text class="cls-1" transform="translate(142.29 89.69)"><tspan x="0" y="0">N</tspan></text>
  <polygon class="cls-2" points="142.08 90.34 139.88 92.32 139.8 92.23 139.71 92.13 141.91 90.15 141.99 90.25 142.08 90.34 142.08 90.34"/>
  <text class="cls-1" transform="translate(137.55 93.95)"><tspan x="0" y="0">N</tspan></text>
  <polygon class="cls-2" points="138.96 94.78 139.21 99.35 139.08 99.35 138.95 99.36 138.7 94.79 138.83 94.79 138.96 94.78 138.96 94.78"/>
  <polygon class="cls-2" points="138.2 94.9 140 99.64 139.85 99.6 139.7 99.57 137.96 94.99 138.08 94.95 138.2 94.9 138.2 94.9"/>
  <polygon class="cls-2" points="140 99.64 135.26 103.92 135.12 103.87 135.09 103.73 139.7 99.57 139.85 99.6 140 99.64 140 99.64"/>
  <polygon class="cls-2" points="135.01 103.97 129.08 102.04 129.05 101.9 129.16 101.8 135.09 103.73 135.12 103.87 135.01 103.97 135.01 103.97"/>
  <polygon class="cls-2" points="129.32 102.86 125.24 106.53 125.16 106.44 125.07 106.34 129.15 102.67 129.24 102.76 129.32 102.86 129.32 102.86"/>
  <polygon class="cls-2" points="129.08 102.04 124.46 106.21 124.32 106.17 124.18 106.12 128.91 101.85 129.05 101.9 129.08 102.04 129.08 102.04"/>
  <polygon class="cls-2" points="124.46 106.21 125.75 112.3 125.64 112.4 125.5 112.35 124.18 106.12 124.32 106.17 124.46 106.21 124.46 106.21"/>
  <polygon class="cls-2" points="126.34 111.69 131.56 113.38 131.52 113.51 131.48 113.63 126.26 111.93 126.3 111.81 126.34 111.69 126.34 111.69"/>
  <polygon class="cls-2" points="125.75 112.3 131.67 114.23 131.7 114.37 131.73 114.51 125.67 112.54 125.64 112.4 125.75 112.3 125.75 112.3"/>
  <polygon class="cls-2" points="131.67 114.23 136.3 110.06 136.44 110.1 136.58 110.15 131.73 114.51 131.7 114.37 131.67 114.23 131.67 114.23"/>
  <polygon class="cls-2" points="135.48 109.86 134.33 104.49 134.46 104.46 134.58 104.43 135.73 109.81 135.6 109.83 135.48 109.86 135.48 109.86"/>
  <polygon class="cls-2" points="136.3 110.06 135.01 103.97 135.12 103.87 135.26 103.92 136.58 110.15 136.44 110.1 136.3 110.06 136.3 110.06"/>
  <polygon class="cls-2" points="125.67 112.54 122.26 115.62 122.17 115.52 122.09 115.43 125.5 112.35 125.64 112.4 125.67 112.54 125.67 112.54"/>
  <text class="cls-1" transform="translate(119.93 117.25)"><tspan x="0" y="0">N</tspan></text>
  <polygon class="cls-2" points="121.33 118.06 122.37 122.95 122.23 122.9 122.09 122.85 121.08 118.11 121.21 118.08 121.33 118.06 121.33 118.06"/>
  <polygon class="cls-2" points="122.37 122.95 117.58 127.26 117.49 127.17 117.41 127.07 122.09 122.85 122.23 122.9 122.37 122.95 122.37 122.95"/>
  <polygon class="cls-2" points="119.6 116.37 114.87 114.84 114.84 114.7 114.81 114.55 119.67 116.13 119.64 116.25 119.6 116.37 119.6 116.37"/>
  <polygon class="cls-2" points="114.87 114.84 110.19 119.06 110.11 118.96 110.02 118.87 114.81 114.55 114.84 114.7 114.87 114.84 114.87 114.84"/>
  <polygon class="cls-2" points="128.91 101.85 127.91 97.11 128.03 97.08 128.15 97.06 129.16 101.8 129.05 101.9 128.91 101.85 128.91 101.85"/>
  <text class="cls-1" transform="translate(126.68 96.32)"><tspan x="0" y="0">O</tspan></text>
  <polygon class="cls-2" points="126.34 95.35 121.56 93.79 121.67 93.7 121.78 93.6 126.42 95.11 126.38 95.23 126.34 95.35 126.34 95.35"/>
  <polygon class="cls-2" points="121.56 93.79 120.23 87.56 120.34 87.46 120.48 87.51 121.78 93.6 121.67 93.7 121.56 93.79 121.56 93.79"/>
  <polygon class="cls-2" points="120.23 87.56 114.17 85.59 114.28 85.49 114.39 85.39 120.31 87.32 120.34 87.46 120.23 87.56 120.23 87.56"/>
  <polygon class="cls-2" points="114.17 85.59 113.13 80.7 113.25 80.67 113.38 80.65 114.39 85.39 114.28 85.49 114.17 85.59 114.17 85.59"/>
  <text class="cls-1" transform="translate(112.06 79.9)"><tspan x="0" y="0">S</tspan></text>
  <polygon class="cls-2" points="111.72 78.99 106.91 77.43 106.89 77.29 106.99 77.18 111.8 78.75 111.76 78.87 111.72 78.99 111.72 78.99"/>
  <polygon class="cls-2" points="106.91 77.43 103.08 80.21 103 80.11 102.93 80.01 106.74 77.24 106.89 77.29 106.91 77.43 106.91 77.43"/>
  <polygon class="cls-2" points="106.07 77.1 102.63 79.59 102.55 79.49 102.48 79.39 105.92 76.89 105.99 76.99 106.07 77.1 106.07 77.1"/>
  <text class="cls-1" transform="translate(100.76 81.61)"><tspan x="0" y="0">N</tspan></text>
  <polygon class="cls-2" points="100.39 80.21 97.77 78.31 97.85 78.21 97.92 78.11 100.54 80.01 100.46 80.11 100.39 80.21 100.39 80.21"/>
  <text class="cls-1" transform="translate(95.61 77.87)"><tspan x="0" y="0">N</tspan></text>
  <polygon class="cls-2" points="96.92 75.83 98.41 71.25 98.55 71.22 98.64 71.35 97.16 75.91 97.04 75.87 96.92 75.83 96.92 75.83"/>
  <polygon class="cls-2" points="97.64 76.07 98.98 71.95 99.1 71.99 99.22 72.03 97.89 76.14 97.77 76.1 97.64 76.07 97.64 76.07"/>
  <polygon class="cls-2" points="98.61 71.1 103.73 71.1 103.73 71.22 103.73 71.35 98.64 71.35 98.55 71.22 98.61 71.1 98.61 71.1"/>
  <text class="cls-1" transform="translate(104.03 71.88)"><tspan x="0" y="0">S</tspan></text>
  <polygon class="cls-2" points="105.5 72.6 106.99 77.18 106.89 77.29 106.74 77.24 105.26 72.68 105.38 72.64 105.5 72.6 105.5 72.6"/>
  <polygon class="cls-2" points="98.41 71.25 95.73 67.56 95.83 67.48 95.93 67.41 98.61 71.1 98.55 71.22 98.41 71.25 98.41 71.25"/>
  <text class="cls-1" transform="translate(93.91 66.72)"><tspan x="0" y="0">S</tspan></text>
  <polygon class="cls-2" points="93.62 66.32 88.4 66.87 88.46 66.73 88.52 66.6 93.59 66.07 93.61 66.19 93.62 66.32 93.62 66.32"/>
  <polygon class="cls-2" points="88.4 66.87 84.65 61.71 84.71 61.58 84.86 61.56 88.52 66.6 88.46 66.73 88.4 66.87 88.4 66.87"/>
  <polygon class="cls-2" points="84.65 61.71 78.32 62.38 78.38 62.24 78.44 62.11 84.63 61.46 84.71 61.58 84.65 61.71 84.65 61.71"/>
  <polygon class="cls-2" points="78.32 62.38 75.56 58.58 75.66 58.5 75.76 58.43 78.44 62.11 78.38 62.24 78.32 62.38 78.32 62.38"/>
  <text class="cls-1" transform="translate(73.58 57.73)"><tspan x="0" y="0">O</tspan></text>
  <polygon class="cls-2" points="73.29 57.35 68.38 57.87 68.29 57.75 68.35 57.62 73.27 57.1 73.28 57.23 73.29 57.35 73.29 57.35"/>
  <polygon class="cls-2" points="68.14 57.77 64.48 52.73 64.54 52.6 64.69 52.58 68.35 57.62 68.29 57.75 68.14 57.77 68.14 57.77"/>
  <polygon class="cls-2" points="64.2 53.53 58.74 54.1 58.72 53.98 58.71 53.85 64.17 53.28 64.18 53.4 64.2 53.53 64.2 53.53"/>
  <polygon class="cls-2" points="64.48 52.73 58.29 53.38 58.2 53.26 58.12 53.14 64.46 52.48 64.54 52.6 64.48 52.73 64.48 52.73"/>
  <polygon class="cls-2" points="58.29 53.38 55.76 59.07 55.61 59.08 55.46 59.1 58.12 53.14 58.2 53.26 58.29 53.38 58.29 53.38"/>
  <polygon class="cls-2" points="56.59 58.92 59.82 63.36 59.72 63.43 59.61 63.51 56.39 59.07 56.49 58.99 56.59 58.92 56.59 58.92"/>
  <polygon class="cls-2" points="55.76 59.07 59.42 64.11 59.36 64.24 59.21 64.26 55.46 59.1 55.61 59.08 55.76 59.07 55.76 59.07"/>
  <polygon class="cls-2" points="59.42 64.11 65.61 63.46 65.7 63.58 65.78 63.69 59.44 64.36 59.36 64.24 59.42 64.11 59.42 64.11"/>
  <polygon class="cls-2" points="65.06 62.81 67.29 57.79 67.41 57.84 67.53 57.9 65.29 62.91 65.18 62.86 65.06 62.81 65.06 62.81"/>
  <polygon class="cls-2" points="65.61 63.46 68.14 57.77 68.29 57.75 68.38 57.87 65.78 63.69 65.7 63.58 65.61 63.46 65.61 63.46"/>
  <polygon class="cls-2" points="59.44 64.36 57.51 68.7 57.4 68.65 57.28 68.59 59.21 64.26 59.36 64.24 59.44 64.36 59.44 64.36"/>
  <text class="cls-1" transform="translate(55.79 70.65)"><tspan x="0" y="0">N</tspan></text>
  <polygon class="cls-2" points="55.51 70.32 50.51 70.85 50.43 70.73 50.34 70.61 55.48 70.07 55.49 70.2 55.51 70.32 55.51 70.32"/>
  <polygon class="cls-2" points="50.51 70.85 47.95 76.61 47.83 76.55 47.72 76.5 50.34 70.61 50.43 70.73 50.51 70.85 50.51 70.85"/>
  <polygon class="cls-2" points="57.9 71.41 60.66 75.21 60.51 75.22 60.36 75.24 57.69 71.56 57.79 71.48 57.9 71.41 57.9 71.41"/>
  <polygon class="cls-2" points="60.66 75.21 58.04 81.1 57.92 81.04 57.8 80.99 60.36 75.24 60.51 75.22 60.66 75.21 60.66 75.21"/>
  <polygon class="cls-2" points="64.46 52.48 66.99 46.78 67.14 46.77 67.28 46.77 64.69 52.58 64.54 52.6 64.46 52.48 64.46 52.48"/>
  <polygon class="cls-2" points="66.99 46.78 64.92 42.64 65.04 42.58 65.15 42.53 67.28 46.77 67.14 46.77 66.99 46.78 66.99 46.78"/>
  <polygon class="cls-2" points="67.66 46.41 64.33 43.12 64.42 43.03 64.51 42.94 67.84 46.23 67.75 46.32 67.66 46.41 67.66 46.41"/>
  <text class="cls-1" transform="translate(62.42 42.2)"><tspan x="0" y="0">N</tspan></text>
  <polygon class="cls-2" points="63.9 40.15 65.23 37.16 65.35 37.21 65.47 37.26 64.14 40.25 64.02 40.2 63.9 40.15 63.9 40.15"/>
  <text class="cls-1" transform="translate(65.01 36.38)"><tspan x="0" y="0">N</tspan></text>
  <polygon class="cls-2" points="64.23 34.9 61.74 31.48 61.84 31.4 61.95 31.33 64.44 34.75 64.33 34.82 64.23 34.9 64.23 34.9"/>
  <polygon class="cls-2" points="64.85 34.45 62.17 30.76 62.23 30.64 62.38 30.61 65.05 34.3 64.95 34.37 64.85 34.45 64.85 34.45"/>
  <polygon class="cls-2" points="62.17 30.76 55.92 30.76 55.86 30.64 55.95 30.51 62.14 30.51 62.23 30.64 62.17 30.76 62.17 30.76"/>
  <polygon class="cls-2" points="55.72 30.6 53.79 24.68 53.89 24.57 54.04 24.62 55.95 30.51 55.86 30.64 55.72 30.6 55.72 30.6"/>
  <polygon class="cls-2" points="53.27 25.35 47.9 24.21 47.93 24.09 47.96 23.96 53.33 25.1 53.3 25.23 53.27 25.35 53.27 25.35"/>
  <polygon class="cls-2" points="53.79 24.68 47.7 23.39 47.66 23.25 47.61 23.11 53.86 24.44 53.89 24.57 53.79 24.68 53.79 24.68"/>
  <polygon class="cls-2" points="47.7 23.39 43.53 28.02 43.39 27.98 43.25 27.95 47.61 23.11 47.66 23.25 47.7 23.39 47.7 23.39"/>
  <polygon class="cls-2" points="44.38 28.13 46.07 33.35 45.95 33.39 45.83 33.43 44.13 28.21 44.25 28.17 44.38 28.13 44.38 28.13"/>
  <polygon class="cls-2" points="43.53 28.02 45.46 33.94 45.36 34.05 45.22 34.02 43.25 27.95 43.39 27.98 43.53 28.02 43.53 28.02"/>
  <polygon class="cls-2" points="45.46 33.94 51.55 35.23 51.6 35.37 51.64 35.51 45.41 34.19 45.36 34.05 45.46 33.94 45.46 33.94"/>
  <polygon class="cls-2" points="51.23 34.45 54.9 30.37 55 30.45 55.09 30.54 51.42 34.62 51.32 34.53 51.23 34.45 51.23 34.45"/>
  <polygon class="cls-2" points="51.55 35.23 55.72 30.6 55.86 30.64 55.92 30.76 51.64 35.51 51.6 35.37 51.55 35.23 51.55 35.23"/>
  <polygon class="cls-2" points="45.41 34.19 42.46 37.46 42.36 37.37 42.27 37.29 45.22 34.02 45.36 34.05 45.41 34.19 45.41 34.19"/>
  <text class="cls-1" transform="translate(40.12 39.37)"><tspan x="0" y="0">N</tspan></text>
  <polygon class="cls-2" points="39.8 38.64 34.91 37.6 34.86 37.46 34.81 37.32 39.85 38.39 39.83 38.51 39.8 38.64 39.8 38.64"/>
  <polygon class="cls-2" points="34.91 37.6 30.69 42.28 30.59 42.2 30.5 42.11 34.81 37.32 34.86 37.46 34.91 37.6 34.91 37.6"/>
  <polygon class="cls-2" points="41.68 40.16 43.21 44.88 43.06 44.85 42.92 44.82 41.43 40.24 41.56 40.2 41.68 40.16 41.68 40.16"/>
  <polygon class="cls-2" points="43.21 44.88 38.89 49.67 38.8 49.58 38.7 49.5 42.92 44.82 43.06 44.85 43.21 44.88 43.21 44.88"/>
  <polygon class="cls-2" points="53.86 24.44 58.93 20.76 59.05 20.83 59.05 20.98 54.04 24.62 53.89 24.57 53.86 24.44 53.86 24.44"/>
  <polygon class="cls-2" points="59.18 20.77 64.22 24.43 64.2 24.57 64.05 24.62 59.05 20.98 59.05 20.83 59.18 20.77 59.18 20.77"/>
  <polygon class="cls-2" points="59.12 21.67 63.38 24.76 63.31 24.87 63.23 24.97 58.97 21.87 59.05 21.77 59.12 21.67 59.12 21.67"/>
  <polygon class="cls-2" points="64.22 24.43 69.91 21.89 70.03 21.98 70.15 22.07 64.31 24.67 64.2 24.57 64.22 24.43 64.22 24.43"/>
  <polygon class="cls-2" points="69.19 21.45 69.76 15.99 69.89 16 70.01 16.01 69.44 21.47 69.31 21.46 69.19 21.45 69.19 21.45"/>
  <polygon class="cls-2" points="69.91 21.89 70.56 15.7 70.69 15.64 70.81 15.73 70.15 22.07 70.03 21.98 69.91 21.89 69.91 21.89"/>
  <polygon class="cls-2" points="70.56 15.7 65.52 12.04 65.54 11.89 65.55 11.75 70.71 15.49 70.69 15.64 70.56 15.7 70.56 15.7"/>
  <polygon class="cls-2" points="65.5 12.89 60.48 15.12 60.43 15.01 60.38 14.89 65.39 12.66 65.44 12.77 65.5 12.89 65.5 12.89"/>
  <polygon class="cls-2" points="65.52 12.04 59.83 14.57 59.71 14.49 59.59 14.4 65.55 11.75 65.54 11.89 65.52 12.04 65.52 12.04"/>
  <polygon class="cls-2" points="59.83 14.57 59.18 20.77 59.05 20.83 58.93 20.76 59.59 14.4 59.71 14.49 59.83 14.57 59.83 14.57"/>
  <polygon class="cls-2" points="70.71 15.49 75.2 13.5 75.25 13.61 75.3 13.73 70.81 15.73 70.69 15.64 70.71 15.49 70.71 15.49"/>
  <text class="cls-1" transform="translate(75.55 13.63)"><tspan x="0" y="0">N</tspan></text>
  <polygon class="cls-2" points="77.86 13.87 81.69 16.65 81.67 16.8 81.66 16.94 77.71 14.07 77.79 13.97 77.86 13.87 77.86 13.87"/>
  <polygon class="cls-2" points="81.69 16.65 87.44 14.09 87.5 14.2 87.55 14.32 81.66 16.94 81.67 16.8 81.69 16.65 81.69 16.65"/>
  <polygon class="cls-2" points="76.54 11.62 77.06 6.62 77.18 6.71 77.3 6.8 76.79 11.64 76.67 11.63 76.54 11.62 76.54 11.62"/>
  <polygon class="cls-2" points="77.06 6.62 82.95 4 83.01 4.12 83.06 4.23 77.3 6.8 77.18 6.71 77.06 6.62 77.06 6.62"/>
  <polygon class="cls-2" points="64.31 24.67 62.38 30.61 62.23 30.64 62.14 30.51 64.05 24.62 64.2 24.57 64.31 24.67 64.31 24.67"/>
  <polygon class="cls-2" points="84.63 61.46 86.56 57.12 86.68 57.17 86.79 57.22 84.86 61.56 84.71 61.58 84.63 61.46 84.63 61.46"/>
  <text class="cls-1" transform="translate(86.26 56.41)"><tspan x="0" y="0">O</tspan></text>
  <text class="cls-1" transform="translate(88.44 56.41)"><tspan x="0" y="0">H</tspan></text>
  <polygon class="cls-2" points="120.31 87.32 123.64 84.31 123.73 84.41 123.81 84.5 120.48 87.51 120.34 87.46 120.31 87.32 120.31 87.32"/>
  <text class="cls-1" transform="translate(124.03 83.85)"><tspan x="0" y="0">O</tspan></text>
  <text class="cls-1" transform="translate(126.21 83.85)"><tspan x="0" y="0">H</tspan></text>
  <polygon class="cls-2" points="149.3 90.93 154.36 87.26 154.48 87.33 154.48 87.48 149.48 91.12 149.33 91.07 149.3 90.93 149.3 90.93"/>
  <polygon class="cls-2" points="151.37 97.26 148.26 102.66 148.11 102.66 147.96 102.66 151.16 97.12 151.3 97.14 151.37 97.26 151.37 97.26"/>
  <polygon class="cls-2" points="149.1 102.59 151.85 107.35 151.74 107.41 151.63 107.48 148.88 102.72 148.99 102.66 149.1 102.59 149.1 102.59"/>
  <polygon class="cls-2" points="148.26 102.66 151.37 108.05 151.3 108.18 151.15 108.18 147.96 102.66 148.11 102.66 148.26 102.66 148.26 102.66"/>
  <polygon class="cls-2" points="151.37 108.05 157.6 108.05 157.67 108.18 157.74 108.3 151.37 108.3 151.3 108.18 151.37 108.05 151.37 108.05"/>
  <polygon class="cls-2" points="157.12 107.35 159.86 102.59 159.97 102.66 160.08 102.72 157.34 107.48 157.23 107.41 157.12 107.35 157.12 107.35"/>
  <polygon class="cls-2" points="157.6 108.05 160.71 102.66 160.86 102.66 161.01 102.66 157.74 108.3 157.67 108.18 157.6 108.05 157.6 108.05"/>
  <polygon class="cls-2" points="160.71 102.66 157.6 97.26 157.67 97.14 157.81 97.12 161.01 102.66 160.86 102.66 160.71 102.66 160.71 102.66"/>
  <polygon class="cls-2" points="151.37 108.3 149.04 112.34 148.93 112.28 148.82 112.22 151.15 108.18 151.3 108.18 151.37 108.3 151.37 108.3"/>
  <text class="cls-1" transform="translate(147.14 114.28)"><tspan x="0" y="0">N</tspan></text>
  <polygon class="cls-2" points="146.84 113.82 141.81 113.82 141.74 113.7 141.66 113.57 146.84 113.57 146.84 113.7 146.84 113.82 146.84 113.82"/>
  <polygon class="cls-2" points="141.81 113.82 138.66 119.28 138.55 119.22 138.44 119.15 141.66 113.57 141.74 113.7 141.81 113.82 141.81 113.82"/>
  <polygon class="cls-2" points="149.04 115.05 151.44 119.22 151.3 119.22 151.15 119.22 148.82 115.18 148.93 115.11 149.04 115.05 149.04 115.05"/>
  <polygon class="cls-2" points="151.44 119.22 148.22 124.8 148.11 124.74 148 124.67 151.15 119.22 151.3 119.22 151.44 119.22 151.44 119.22"/>
</svg>