<?xml version="1.0" encoding="utf-8"?>
<!-- Generator: Adobe Illustrator 23.0.3, SVG Export Plug-In . SVG Version: 6.00 Build 0)  -->
<svg version="1.1" id="图层_1" xmlns="http://www.w3.org/2000/svg" xmlns:xlink="http://www.w3.org/1999/xlink" x="0px" y="0px"
	 viewBox="0 0 200 130" style="enable-background:new 0 0 200 130;" xml:space="preserve">
<style type="text/css">
	.st0{font-family:'ArialMT';}
	.st1{font-size:7.1135px;}
	.st2{font-size:4.3775px;}
</style>
<polygon points="163.1,79.1 172.4,72.6 172.5,72.8 172.7,73.1 163.4,79.7 163.2,79.4 "/>
<polygon points="163.2,81.4 173.5,74.1 173.7,74.4 173.8,74.7 163.2,82.2 163.2,81.8 "/>
<text transform="matrix(1 0 0 1 173.8179 75.3596)" class="st0 st1">N</text>
<polygon points="175,69 171.4,57.4 171.6,57.1 172,57.1 175.6,68.8 175.3,68.9 "/>
<polygon points="171.4,57.4 155.7,57.2 155.5,56.8 155.7,56.5 171.4,56.7 171.6,57.1 "/>
<polygon points="170.5,55.4 156.6,55.3 156.6,54.9 156.6,54.6 170.5,54.8 170.5,55.1 "/>
<polygon points="155.7,57.2 151.8,68.6 151.5,68.5 151.2,68.4 155.1,56.9 155.5,56.8 "/>
<text transform="matrix(1 0 0 1 147.7212 74.9993)" class="st0 st1">N</text>
<polygon points="134.9,76.5 146.6,71.7 147.1,73.1 147.5,74.5 135.1,77.2 134.9,76.9 "/>
<polygon points="135.1,77.2 130,92.3 129.7,92.2 129.5,91.8 134.5,77 134.9,76.9 "/>
<polygon points="129.7,92.5 113.5,92.3 113.6,91.9 113.8,91.6 129.5,91.8 129.7,92.2 "/>
<polygon points="113.2,92 108.5,76.8 108.8,76.5 109.2,76.7 113.8,91.6 113.6,91.9 "/>
<polygon points="108.7,76.2 118.9,69 119.1,69.2 119.3,69.5 109.2,76.7 108.8,76.5 "/>
<text transform="matrix(1 0 0 1 119.1938 70.1106)" class="st0 st1">O</text>
<polygon points="124.9,69.1 134.9,76.5 134.9,76.9 134.5,77 124.5,69.6 124.7,69.3 "/>
<polygon points="108.5,76.8 92.6,72.6 93.5,71.3 94.4,70.1 108.7,76.2 108.8,76.5 "/>
<polygon points="92.6,72.6 84.2,79.9 84,79.7 83.8,79.4 94.4,70.1 93.5,71.3 "/>
<text transform="matrix(1 0 0 1 78.605 84.8421)" class="st0 st1">O</text>
<polygon points="77.9,81.1 69,78.1 69.1,77.8 69.2,77.5 78.1,80.5 78,80.8 "/>
<text transform="matrix(1 0 0 1 63.73 79.6458)" class="st0 st1">P</text>
<polygon points="66.1,72.8 68.9,64.7 69.2,64.8 69.5,64.9 66.7,73 66.4,72.9 "/>
<polygon points="67.9,73.4 70.7,65.3 71,65.4 71.3,65.5 68.5,73.6 68.2,73.5 "/>
<text transform="matrix(1 0 0 1 68.5308 64.3748)" class="st0 st1">O</text>
<polygon points="65.2,80.5 62.3,89.1 62,89 61.6,88.8 64.6,80.2 64.9,80.4 "/>
<text transform="matrix(1 0 0 1 53.0015 94.9173)" class="st0 st1">H</text>
<text transform="matrix(1 0 0 1 58.1372 94.9173)" class="st0 st1">O</text>
<polygon points="63,76 54.1,73 54.2,72.7 54.3,72.4 63.2,75.4 63.1,75.7 "/>
<text transform="matrix(1 0 0 1 48.062 74.4495)" class="st0 st1">O</text>
<polygon points="49.8,68 48.1,59.4 48.4,59.3 48.7,59.3 50.4,67.9 50.1,68 "/>
<text transform="matrix(1 0 0 1 45.3218 58.6248)" class="st0 st1">P</text>
<polygon points="50.5,53.9 59.9,52 59.9,52.3 60,52.7 50.6,54.5 50.5,54.2 "/>
<polygon points="50.8,55.8 60.2,53.9 60.3,54.2 60.4,54.6 51,56.4 50.9,56.1 "/>
<text transform="matrix(1 0 0 1 60.7495 55.492)" class="st0 st1">O</text>
<polygon points="44.7,56.7 34.7,58.7 34.6,58.3 34.5,58 44.6,56 44.7,56.3 "/>
<text transform="matrix(1 0 0 1 29.3022 61.7595)" class="st0 st1">N</text>
<text transform="matrix(1 0 0 1 29.3022 68.2556)" class="st0 st1">H</text>
<polygon points="29.6,56.7 23.2,49.5 23.4,49.3 23.7,49 30.1,56.3 29.8,56.5 "/>
<text transform="matrix(1 0 0 1 18.8716 49.6257)" class="st0 st1">P</text>
<polygon points="18.1,45.1 12,38.1 12.2,37.9 12.5,37.7 18.6,44.7 18.3,44.9 "/>
<polygon points="19.5,43.8 13.5,36.9 13.7,36.7 13.9,36.4 20,43.4 19.8,43.6 "/>
<text transform="matrix(1 0 0 1 7.8491 37.49)" class="st0 st1">O</text>
<polygon points="19,49.1 11.7,55.6 11.5,55.3 11.2,55.1 18.6,48.6 18.8,48.9 "/>
<text transform="matrix(1 0 0 1 1.2017 60.2527)" class="st0 st1">H</text>
<text transform="matrix(1 0 0 1 6.3394 60.2527)" class="st0 st1">O</text>
<polygon points="23.5,44.4 30.8,37.9 31,38.2 31.3,38.4 23.9,44.9 23.7,44.6 "/>
<text transform="matrix(1 0 0 1 30.6128 38.9968)" class="st0 st1">O</text>
<text transform="matrix(1 0 0 1 36.146 38.9968)" class="st0 st1">H</text>
<polygon points="47.4,52.2 47.4,43.2 47.7,43.2 48,43.2 48,52.2 47.7,52.2 "/>
<text transform="matrix(1 0 0 1 44.9282 42.4929)" class="st0 st1">O</text>
<text transform="matrix(1 0 0 1 50.4604 42.4929)" class="st0 st1">H</text>
<polygon points="113.2,91.8 113.8,92.2 113.6,92.4 113.4,92.7 112.9,92.3 113,92 "/>
<polygon points="112.1,93.1 112.9,93.7 112.7,94 112.5,94.2 111.7,93.6 111.9,93.3 "/>
<polygon points="110.9,94.4 111.9,95.2 111.7,95.5 111.6,95.7 110.5,94.9 110.7,94.7 "/>
<polygon points="109.7,95.7 111,96.7 110.8,97 110.6,97.2 109.3,96.3 109.5,96 "/>
<polygon points="108.5,97.1 110.1,98.2 109.9,98.5 109.7,98.7 108.1,97.6 108.3,97.3 "/>
<polygon points="107.3,98.4 109.1,99.7 108.9,100 108.7,100.2 106.9,98.9 107.1,98.6 "/>
<polygon points="106.2,99.7 108.2,101.2 108,101.5 107.8,101.7 105.8,100.2 106,100 "/>
<polygon points="105,101 107.3,102.7 107.1,103 106.9,103.3 104.6,101.6 104.8,101.3 "/>
<text transform="matrix(1 0 0 1 95.9878 107.7376)" class="st0 st1">H</text>
<text transform="matrix(1 0 0 1 101.1245 107.7376)" class="st0 st1">O</text>
<polygon points="129.4,92.4 130,92 130.2,92.3 130.4,92.5 129.8,92.9 129.6,92.7 "/>
<polygon points="130.3,93.9 131.1,93.4 131.3,93.6 131.5,93.9 130.7,94.5 130.5,94.2 "/>
<polygon points="131.2,95.5 132.3,94.7 132.5,95 132.7,95.2 131.6,96 131.4,95.7 "/>
<polygon points="132.1,97 133.4,96.1 133.6,96.3 133.8,96.6 132.5,97.5 132.3,97.3 "/>
<polygon points="133,98.5 134.6,97.4 134.8,97.7 134.9,97.9 133.4,99.1 133.2,98.8 "/>
<polygon points="133.9,100.1 135.7,98.8 135.9,99 136.1,99.3 134.3,100.6 134.1,100.3 "/>
<polygon points="134.8,101.6 136.9,100.1 137,100.4 137.2,100.7 135.2,102.1 135,101.9 "/>
<polygon points="135.7,103.1 138,101.5 138.2,101.8 138.4,102 136.1,103.7 135.9,103.4 "/>
<text transform="matrix(1 0 0 1 136.2163 108.2229)" class="st0 st1">O</text>
<text transform="matrix(1 0 0 1 141.7505 108.2229)" class="st0 st1">H</text>
<polygon points="153.2,73.9 163.2,81.4 163.2,81.8 163.2,82.2 152.8,74.4 153,74.1 "/>
<polygon points="155.1,56.9 149.2,46.2 149.4,46 149.7,45.9 155.7,56.5 155.5,56.8 "/>
<text transform="matrix(1 0 0 1 145.0464 45.6482)" class="st0 st1">N</text>
<polygon points="149.2,39.4 155.5,28.9 155.9,28.9 156.1,29.2 149.8,39.8 149.5,39.6 "/>
<polygon points="150.9,40.4 156.7,30.7 157,30.9 157.2,31 151.4,40.8 151.2,40.6 "/>
<polygon points="156.1,28.6 169.1,28.8 169.1,29.1 169.1,29.4 156.1,29.2 155.9,28.9 "/>
<text transform="matrix(1 0 0 1 169.4331 26.1277)" class="st0 st1">H</text>
<text transform="matrix(1 0 0 1 169.4331 32.6238)" class="st0 st1">N</text>
<polygon points="174,32.1 180.2,43.2 179.9,43.2 179.5,43.2 173.5,32.4 173.8,32.3 "/>
<polygon points="179.3,41.9 192.6,42.1 192.6,42.4 192.6,42.7 179.3,42.6 179.3,42.2 "/>
<polygon points="179.3,43.9 192.6,44 192.6,44.4 192.6,44.7 179.3,44.5 179.3,44.2 "/>
<text transform="matrix(1 0 0 1 193.2358 46.3172)" class="st0 st1">O</text>
<polygon points="180.2,43.2 172,57.1 171.6,57.1 171.4,56.7 179.5,43.2 179.9,43.2 "/>
<polygon points="155.5,28.9 149.1,17.4 149.4,17.3 149.7,17.1 156.1,28.6 155.9,28.9 "/>
<text transform="matrix(1 0 0 1 137.9224 16.7947)" class="st0 st1">H</text>
<text transform="matrix(1 0 0 1 143.0591 17.8884)" class="st0 st2">2</text>
<text transform="matrix(1 0 0 1 145.4917 16.7947)" class="st0 st1">N</text>
</svg>
