<?xml version="1.0" encoding="utf-8"?>
<!-- Generator: Adobe Illustrator 23.0.3, SVG Export Plug-In . SVG Version: 6.00 Build 0)  -->
<svg version="1.1" id="图层_1" xmlns="http://www.w3.org/2000/svg" xmlns:xlink="http://www.w3.org/1999/xlink" x="0px" y="0px"
	 viewBox="0 0 200 130" style="enable-background:new 0 0 200 130;" xml:space="preserve">
<style type="text/css">
	.st0{font-family:'ArialMT';}
	.st1{font-size:7.3042px;}
	.st2{font-size:4.4949px;}
	.st3{fill:none;stroke:#304FF7;stroke-width:0.9449;}
</style>
<polygon points="191.6,78.7 179.2,74.6 179.3,74.3 179.4,74 191.8,78.1 191.7,78.4 "/>
<text transform="matrix(1 0 0 1 173.3469 76.2166)" class="st0 st1">N</text>
<polygon points="173.4,75.5 162.6,83.4 162.6,83 162.6,82.6 173,75 173.2,75.3 "/>
<polygon points="162.6,83.4 151.8,75.5 152,75.3 152.2,75 162.6,82.6 162.6,83 "/>
<polygon points="162.4,80.8 152.9,73.9 153.1,73.7 153.3,73.4 162.8,80.3 162.6,80.5 "/>
<text transform="matrix(1 0 0 1 146.548 76.2166)" class="st0 st1">N</text>
<polygon points="150.1,69.5 153.9,57.5 154.3,57.5 154.5,57.8 150.7,69.7 150.4,69.6 "/>
<polygon points="154.5,57.2 170.7,57.2 170.9,57.5 170.6,57.8 154.5,57.8 154.3,57.5 "/>
<polygon points="155.7,59.2 169.4,59.2 169.4,59.5 169.4,59.8 155.7,59.8 155.7,59.5 "/>
<polygon points="170.7,57.2 178.8,43.2 179.1,43.2 179.5,43.2 171.2,57.5 170.9,57.5 "/>
<polygon points="178.6,41.8 192.2,41.8 192.2,42.2 192.2,42.5 178.6,42.5 178.6,42.2 "/>
<polygon points="178.6,43.8 192.2,43.8 192.2,44.2 192.2,44.5 178.6,44.5 178.6,44.2 "/>
<text transform="matrix(1 0 0 1 192.8703 46.1194)" class="st0 st1">O</text>
<polygon points="178.8,43.2 172.4,32.2 172.7,32 173,31.8 179.5,43.2 179.1,43.2 "/>
<text transform="matrix(1 0 0 1 168.2297 25.7317)" class="st0 st1">H</text>
<text transform="matrix(1 0 0 1 168.2297 32.4002)" class="st0 st1">N</text>
<polygon points="167.9,29.1 154.5,29.1 154.3,28.8 154.5,28.5 167.9,28.5 167.9,28.8 "/>
<polygon points="155.7,31 149.9,41 149.6,40.9 149.4,40.7 155.2,30.6 155.5,30.8 "/>
<polygon points="154.5,29.1 148.2,40 147.9,39.9 147.6,39.7 153.9,28.8 154.3,28.8 "/>
<text transform="matrix(1 0 0 1 143.384 46.1194)" class="st0 st1">N</text>
<polygon points="148.2,46.3 154.5,57.2 154.3,57.5 153.9,57.5 147.6,46.6 147.9,46.5 "/>
<polygon points="153.9,28.8 147.2,17.1 147.5,17 147.8,16.8 154.5,28.5 154.3,28.8 "/>
<text transform="matrix(1 0 0 1 135.673 16.489)" class="st0 st1">H</text>
<text transform="matrix(1 0 0 1 140.9484 17.613)" class="st0 st2">2</text>
<text transform="matrix(1 0 0 1 143.4475 16.489)" class="st0 st1">N</text>
<polygon points="171.2,57.5 175.1,69.5 174.8,69.6 174.5,69.7 170.6,57.8 170.9,57.5 "/>
<polygon points="133.5,78 145.4,72.9 145.9,74.3 146.3,75.7 133.7,78.7 133.4,78.4 "/>
<polygon points="133.7,78.7 128.6,94.2 128.3,94.1 128.1,93.8 133,78.5 133.4,78.4 "/>
<polygon points="128.3,94.5 111.7,94.5 111.7,94.1 112,93.8 128.1,93.8 128.3,94.1 "/>
<polygon points="111.4,94.2 106.4,78.7 106.6,78.4 107,78.5 112,93.8 111.7,94.1 "/>
<polygon points="106.6,78 117,70.5 117.1,70.7 117.3,71 107,78.5 106.6,78.4 "/>
<text transform="matrix(1 0 0 1 117.1887 71.6003)" class="st0 st1">O</text>
<polygon points="123.1,70.5 133.5,78 133.4,78.4 133,78.5 122.7,71 122.9,70.7 "/>
<polygon points="106.4,78.7 89.9,74.6 90.9,73.3 91.8,72 106.6,78 106.6,78.4 "/>
<polygon points="89.9,74.6 81.5,82.2 81.2,81.9 81,81.7 91.8,72 90.9,73.3 "/>
<text transform="matrix(1 0 0 1 75.7263 87.3005)" class="st0 st1">O</text>
<polygon points="75,83.5 65.8,80.5 65.9,80.2 66,79.9 75.2,82.9 75.1,83.2 "/>
<text transform="matrix(1 0 0 1 60.3791 82.1814)" class="st0 st1">P</text>
<polygon points="62.8,75.1 65.5,66.7 65.8,66.8 66.1,67 63.4,75.3 63.1,75.2 "/>
<polygon points="64.6,75.7 67.4,67.4 67.7,67.5 68,67.6 65.3,75.9 65,75.8 "/>
<text transform="matrix(1 0 0 1 65.091 66.4295)" class="st0 st1">O</text>
<polygon points="61.9,83 59,91.9 58.7,91.8 58.4,91.7 61.3,82.8 61.6,82.9 "/>
<text transform="matrix(1 0 0 1 49.5793 97.9353)" class="st0 st1">H</text>
<text transform="matrix(1 0 0 1 54.8547 97.9353)" class="st0 st1">O</text>
<polygon points="59.6,78.5 50.5,75.6 50.6,75.2 50.7,74.9 59.8,77.9 59.7,78.2 "/>
<text transform="matrix(1 0 0 1 44.2185 77.0642)" class="st0 st1">O</text>
<polygon points="46,70.5 44.1,61.7 44.4,61.6 44.7,61.5 46.6,70.4 46.3,70.4 "/>
<text transform="matrix(1 0 0 1 41.1818 60.8611)" class="st0 st1">P</text>
<polygon points="40.8,59.9 31.2,61.9 31.1,61.6 31.1,61.3 40.7,59.2 40.7,59.5 "/>
<polygon points="40.4,57.9 30.8,60 30.7,59.6 30.6,59.3 40.2,57.3 40.3,57.6 "/>
<text transform="matrix(1 0 0 1 24.5734 64.3059)" class="st0 st1">O</text>
<polygon points="46.6,56.9 56.2,54.9 56.3,55.2 56.4,55.5 46.8,57.6 46.7,57.2 "/>
<text transform="matrix(1 0 0 1 56.9772 57.4192)" class="st0 st1">O</text>
<text transform="matrix(1 0 0 1 62.6589 57.4192)" class="st0 st1">H</text>
<polygon points="42.5,54.3 40.6,45.5 41,45.4 41.3,45.3 43.2,54.2 42.8,54.2 "/>
<text transform="matrix(1 0 0 1 37.3317 44.6604)" class="st0 st1">O</text>
<polygon points="36.6,40.9 27.4,37.9 27.5,37.6 27.6,37.3 36.8,40.2 36.7,40.6 "/>
<text transform="matrix(1 0 0 1 21.9846 39.5408)" class="st0 st1">P</text>
<polygon points="24.4,32.5 27.1,24.1 27.4,24.2 27.7,24.3 25,32.7 24.7,32.6 "/>
<polygon points="26.2,33.1 29,24.7 29.3,24.8 29.6,24.9 26.9,33.3 26.6,33.2 "/>
<text transform="matrix(1 0 0 1 26.697 23.7878)" class="st0 st1">O</text>
<polygon points="23.5,40.4 20.7,49.2 20.3,49.1 20,49 22.9,40.2 23.2,40.3 "/>
<text transform="matrix(1 0 0 1 11.1853 55.2957)" class="st0 st1">H</text>
<text transform="matrix(1 0 0 1 16.4602 55.2957)" class="st0 st1">O</text>
<polygon points="21.2,35.9 12.1,32.9 12.2,32.6 12.3,32.3 21.4,35.3 21.3,35.6 "/>
<text transform="matrix(1 0 0 1 0.5524 34.4226)" class="st0 st1">H</text>
<text transform="matrix(1 0 0 1 5.8273 34.4226)" class="st0 st1">O</text>
<polygon points="111.4,94 112,94.4 111.8,94.7 111.6,94.9 111,94.5 111.2,94.2 "/>
<polygon points="110.2,95.3 111.1,95.9 110.9,96.2 110.7,96.5 109.8,95.9 110,95.6 "/>
<polygon points="109,96.7 110.1,97.5 109.9,97.8 109.7,98 108.6,97.2 108.8,97 "/>
<polygon points="107.8,98.1 109.2,99.1 109,99.3 108.8,99.6 107.5,98.6 107.6,98.4 "/>
<polygon points="106.7,99.5 108.3,100.6 108.1,100.9 107.9,101.2 106.3,100 106.5,99.7 "/>
<polygon points="105.5,100.8 107.3,102.2 107.1,102.5 106.9,102.7 105.1,101.4 105.3,101.1 "/>
<polygon points="104.3,102.2 106.4,103.7 106.2,104 106,104.3 103.9,102.7 104.1,102.5 "/>
<polygon points="103.1,103.6 105.4,105.3 105.2,105.6 105,105.8 102.7,104.1 102.9,103.9 "/>
<text transform="matrix(1 0 0 1 93.8962 110.489)" class="st0 st1">H</text>
<text transform="matrix(1 0 0 1 99.1711 110.489)" class="st0 st1">O</text>
<polygon points="128,94.4 128.6,94 128.8,94.2 129,94.5 128.4,94.9 128.2,94.7 "/>
<polygon points="129,95.9 129.8,95.3 130,95.6 130.2,95.9 129.4,96.5 129.2,96.2 "/>
<polygon points="129.9,97.5 131,96.7 131.2,97 131.4,97.2 130.3,98 130.1,97.8 "/>
<polygon points="130.9,99.1 132.2,98.1 132.4,98.4 132.6,98.6 131.3,99.6 131.1,99.3 "/>
<polygon points="131.8,100.6 133.4,99.5 133.6,99.7 133.8,100 132.2,101.2 132,100.9 "/>
<polygon points="132.7,102.2 134.6,100.8 134.8,101.1 135,101.4 133.1,102.7 132.9,102.5 "/>
<polygon points="133.7,103.7 135.8,102.2 136,102.5 136.2,102.7 134.1,104.3 133.9,104 "/>
<polygon points="134.6,105.3 137,103.6 137.2,103.9 137.4,104.1 135,105.8 134.8,105.6 "/>
<text transform="matrix(1 0 0 1 135.2072 110.489)" class="st0 st1">O</text>
<text transform="matrix(1 0 0 1 140.8889 110.489)" class="st0 st1">H</text>
<line class="st3" x1="151.6" y1="69.4" x2="154.4" y2="69.4"/>
<line class="st3" x1="153" y1="68.1" x2="153" y2="70.8"/>
</svg>
