<?xml version="1.0" encoding="utf-8"?>
<!-- Generator: Adobe Illustrator 23.0.3, SVG Export Plug-In . SVG Version: 6.00 Build 0)  -->
<svg version="1.1" id="图层_1" xmlns="http://www.w3.org/2000/svg" xmlns:xlink="http://www.w3.org/1999/xlink" x="0px" y="0px"
	 viewBox="0 0 200 130" style="enable-background:new 0 0 200 130;" xml:space="preserve">
<style type="text/css">
	.st0{font-family:'ArialMT';}
	.st1{font-size:6.7052px;}
	.st2{font-size:4.1263px;}
</style>
<polygon points="193.3,50.6 183.8,63.2 183.6,63 183.4,62.8 192.8,50.2 193.1,50.4 "/>
<polygon points="191.8,49.5 182.4,62.1 182.1,61.9 181.9,61.7 191.4,49.1 191.6,49.3 "/>
<polygon points="183,62.3 168.2,60.5 168.1,60.2 168.3,59.9 183.4,61.7 183.2,62 "/>
<polygon points="168.2,60.5 159.3,72.3 158.9,72.3 158.8,71.9 167.7,60.2 168.1,60.2 "/>
<polygon points="166.1,60.3 158.5,70.3 158.3,70.1 158,70 165.6,59.9 165.8,60.1 "/>
<polygon points="159.3,72.3 163.7,82.8 163.4,82.9 163.2,83 158.7,72.5 158.9,72.3 "/>
<text transform="matrix(1 0 0 1 162.4561 89.0189)" class="st0 st1">N</text>
<polygon points="168.2,84.6 179.2,85.9 179.1,86.2 179.1,86.5 168.1,85.2 168.1,84.9 "/>
<polygon points="167.9,86.4 179.8,87.8 180,88.2 179.8,88.4 167.9,87 167.9,86.7 "/>
<polygon points="179.8,87.8 187.2,78.1 187.4,78.3 187.7,78.4 180.3,88.2 180,88.2 "/>
<text transform="matrix(1 0 0 1 186.7021 78.7318)" class="st0 st1">N</text>
<text transform="matrix(1 0 0 1 191.5439 78.7318)" class="st0 st1">H</text>
<polygon points="187.7,73.4 183,62.3 183.2,62 183.4,61.7 188.3,73.2 188,73.3 "/>
<polygon points="180.3,88.2 185.1,99.6 184.9,99.7 184.6,99.8 179.8,88.4 180,88.2 "/>
<text transform="matrix(1 0 0 1 183.4883 104.0091)" class="st0 st1">N</text>
<text transform="matrix(1 0 0 1 188.3301 104.0091)" class="st0 st1">H</text>
<text transform="matrix(1 0 0 1 193.1719 105.0414)" class="st0 st2">2</text>
<polygon points="158.7,72.5 147.5,68.7 147.6,68.4 147.7,68.1 158.8,71.9 158.9,72.3 "/>
<text transform="matrix(1 0 0 1 142.1426 70.0677)" class="st0 st1">N</text>
<polygon points="144.3,64 144.5,51.9 144.8,52.1 145.1,52.4 144.9,64 144.6,64 "/>
<polygon points="144.5,51.9 156.3,48.3 156.3,48.6 156.4,48.9 145.1,52.4 144.8,52.1 "/>
<polygon points="146.5,53.2 156.8,50.1 156.9,50.4 157,50.7 146.7,53.8 146.6,53.5 "/>
<text transform="matrix(1 0 0 1 156.9502 50.4232)" class="st0 st1">N</text>
<polygon points="161.6,50.3 168.3,59.9 168.1,60.2 167.7,60.2 161.1,50.6 161.3,50.5 "/>
<polygon points="142.2,69.4 132.4,76.2 132.1,76.1 132.1,75.7 141.8,68.9 142,69.2 "/>
<polygon points="132.4,76.2 132.1,91.1 131.8,91.3 131.5,91 131.8,76.3 132.1,76.1 "/>
<polygon points="131.8,91.6 117.5,96 117.3,95.7 117.4,95.4 131.5,91 131.8,91.3 "/>
<polygon points="117,95.8 108.4,83.6 108.6,83.3 109,83.3 117.4,95.4 117.3,95.7 "/>
<polygon points="108.4,83 115.4,73.7 115.7,73.9 115.9,74 109,83.3 108.6,83.3 "/>
<text transform="matrix(1 0 0 1 115.1191 73.8353)" class="st0 st1">O</text>
<polygon points="121,71.9 132.1,75.7 132.1,76.1 131.8,76.3 120.8,72.5 120.9,72.2 "/>
<polygon points="108.4,83.6 93.2,83.3 93.4,83 93.6,82.7 108.4,83 108.6,83.3 "/>
<polygon points="93.2,83.3 87.5,73 87.8,72.9 88,72.7 93.6,82.7 93.4,83 "/>
<text transform="matrix(1 0 0 1 83.3945 72.4086)" class="st0 st1">O</text>
<polygon points="82.8,69.9 73.6,69.8 73.6,69.5 73.6,69.2 82.8,69.3 82.8,69.6 "/>
<text transform="matrix(1 0 0 1 68.5645 72.141)" class="st0 st1">P</text>
<polygon points="72,72.8 71.8,81.3 71.5,81.3 71.2,81.3 71.3,72.8 71.7,72.8 "/>
<polygon points="70.1,72.8 70,81.2 69.7,81.2 69.4,81.2 69.5,72.8 69.8,72.8 "/>
<text transform="matrix(1 0 0 1 67.9229 87.3431)" class="st0 st1">O</text>
<polygon points="70.6,66 70.7,57.6 71,57.6 71.3,57.6 71.2,66 70.9,66 "/>
<text transform="matrix(1 0 0 1 68.459 56.9388)" class="st0 st1">O</text>
<text transform="matrix(1 0 0 1 73.6738 56.9388)" class="st0 st1">H</text>
<polygon points="67.9,69.7 58.8,69.5 58.8,69.2 58.8,68.9 68,69.1 68,69.4 "/>
<text transform="matrix(1 0 0 1 52.9883 71.8714)" class="st0 st1">O</text>
<polygon points="53.6,66.1 49.6,59 49.9,58.9 50.2,58.7 54.1,65.8 53.8,66 "/>
<text transform="matrix(1 0 0 1 45.9912 58.5726)" class="st0 st1">P</text>
<polygon points="46.2,58.4 38.4,62.7 38.2,62.4 38.1,62.2 45.9,57.8 46,58.1 "/>
<polygon points="45.3,56.8 37.5,61.1 37.4,60.8 37.2,60.6 45,56.3 45.1,56.5 "/>
<text transform="matrix(1 0 0 1 32.3184 65.9418)" class="st0 st1">O</text>
<polygon points="50.7,54.1 58.6,49.7 58.8,50 58.9,50.3 51,54.7 50.9,54.4 "/>
<text transform="matrix(1 0 0 1 58.9189 51.2025)" class="st0 st1">O</text>
<text transform="matrix(1 0 0 1 64.1338 51.2025)" class="st0 st1">H</text>
<polygon points="46.3,53 42.3,45.9 42.6,45.7 42.9,45.6 46.8,52.7 46.6,52.9 "/>
<text transform="matrix(1 0 0 1 38.249 45.2709)" class="st0 st1">O</text>
<polygon points="37.6,42.8 28.5,42.6 28.5,42.3 28.5,42 37.6,42.2 37.6,42.5 "/>
<text transform="matrix(1 0 0 1 23.4189 45.0033)" class="st0 st1">P</text>
<polygon points="24.5,38.9 24.6,30.4 24.9,30.5 25.3,30.5 25.1,38.9 24.8,38.9 "/>
<polygon points="26.3,38.9 26.5,30.5 26.8,30.5 27.1,30.5 26.9,38.9 26.6,38.9 "/>
<text transform="matrix(1 0 0 1 23.3135 29.8011)" class="st0 st1">O</text>
<polygon points="25.9,45.7 25.7,54.1 25.4,54.1 25.1,54.1 25.3,45.7 25.6,45.7 "/>
<text transform="matrix(1 0 0 1 22.7783 60.2054)" class="st0 st1">O</text>
<text transform="matrix(1 0 0 1 27.9932 60.2054)" class="st0 st1">H</text>
<polygon points="22.8,42.5 13.7,42.4 13.7,42.1 13.7,41.8 22.8,41.9 22.8,42.2 "/>
<text transform="matrix(1 0 0 1 3.001 44.7357)" class="st0 st1">H</text>
<text transform="matrix(1 0 0 1 7.8438 44.7357)" class="st0 st1">O</text>
<polygon points="117.5,96 113.6,107.3 113.3,107.2 113.1,107.1 117,95.8 117.3,95.7 "/>
<text transform="matrix(1 0 0 1 104.8926 112.8099)" class="st0 st1">H</text>
<text transform="matrix(1 0 0 1 109.7354 112.8099)" class="st0 st1">O</text>
<polygon points="132.1,91.1 141.8,98.4 141.6,98.6 141.4,98.9 131.8,91.6 131.8,91.3 "/>
<text transform="matrix(1 0 0 1 141.3701 103.1439)" class="st0 st1">O</text>
<text transform="matrix(1 0 0 1 146.5859 103.1439)" class="st0 st1">H</text>
</svg>
