<?xml version="1.0" encoding="utf-8"?>
<!-- Generator: Adobe Illustrator 22.1.0, SVG Export Plug-In . SVG Version: 6.00 Build 0)  -->
<svg version="1.1" id="图层_1" xmlns="http://www.w3.org/2000/svg" xmlns:xlink="http://www.w3.org/1999/xlink" x="0px" y="0px"
	 viewBox="0 0 200 130" style="enable-background:new 0 0 200 130;" xml:space="preserve">
<style type="text/css">
	.st0{font-family:'ArialMT';}
	.st1{font-size:7.4637px;}
</style>
<title>HBC_Simi_compound7</title>
<polygon points="159.5,114.7 153.1,103.7 153.4,103.6 153.7,103.4 160,114.3 159.7,114.4 "/>
<text transform="matrix(1 0 0 1 148.5434 102.816)" class="st0 st1">N</text>
<polygon points="153.1,95.9 159.5,84.9 159.7,85.2 160,85.3 153.7,96.2 153.4,96 "/>
<polygon points="147.9,100.1 134.5,100.1 134.4,99.8 134.5,99.5 147.9,99.5 147.9,99.8 "/>
<polygon points="134.5,100.1 126.1,114.8 125.9,114.4 125.7,114.1 133.9,99.8 134.4,99.8 "/>
<polygon points="132.3,100 125,112.6 124.7,112.4 124.4,112.3 131.7,99.6 132,99.8 "/>
<polygon points="126.1,114.8 108.8,114.8 109,114.4 109.1,114.1 125.7,114.1 125.9,114.4 "/>
<polygon points="108.8,114.8 100.3,100.1 100.5,99.8 100.9,99.8 109.1,114.1 109,114.4 "/>
<polygon points="109.9,112.6 102.5,100 102.8,99.8 103.1,99.6 110.4,112.3 110.1,112.4 "/>
<polygon points="100.3,99.5 108.8,84.9 109,85.2 109.1,85.5 100.9,99.8 100.5,99.8 "/>
<polygon points="108.8,84.9 126.1,84.9 125.9,85.2 125.7,85.5 109.1,85.5 109,85.2 "/>
<polygon points="110.1,86.8 124.7,86.8 124.7,87.1 124.7,87.5 110.1,87.5 110.1,87.1 "/>
<polygon points="126.1,84.9 134.5,99.5 134.4,99.8 133.9,99.8 125.7,85.5 125.9,85.2 "/>
<polygon points="100.3,100.1 83.4,100.1 83.6,99.8 83.8,99.5 100.3,99.5 100.5,99.8 "/>
<polygon points="83.4,100.1 74.9,85.5 75.1,85.2 75.5,85.2 83.8,99.5 83.6,99.8 "/>
<polygon points="84.5,97.9 77.2,85.3 77.5,85.2 77.7,84.9 85.1,97.6 84.8,97.8 "/>
<polygon points="74.9,85.5 58.2,85.5 58.2,85.2 58.2,84.9 74.9,84.9 75.1,85.2 "/>
<polygon points="58.2,87.5 44.7,87.5 44.7,87.1 44.7,86.8 58.2,86.8 58.2,87.1 "/>
<polygon points="58.2,85.5 44.7,85.5 44.7,85.2 44.7,84.9 58.2,84.9 58.2,85.2 "/>
<polygon points="58.2,83.4 44.7,83.4 44.7,83.1 44.7,82.8 58.2,82.8 58.2,83.1 "/>
<text transform="matrix(1 0 0 1 38.5678 88.1627)" class="st0 st1">N</text>
<polygon points="74.9,84.9 83.2,70.5 83.6,70.5 83.8,70.9 75.5,85.2 75.1,85.2 "/>
<polygon points="84.8,68.1 99.3,68.1 99.3,68.5 99.3,68.9 84.8,68.9 84.8,68.5 "/>
<polygon points="83.8,70.1 100.3,70.1 100.5,70.5 100.7,70.9 83.8,70.9 83.6,70.5 "/>
<polygon points="100.3,70.1 108.5,55.8 109,55.8 109.4,55.8 100.7,70.9 100.5,70.5 "/>
<polygon points="106.3,56 99,43.4 99.3,43.2 99.6,43 106.9,55.7 106.6,55.8 "/>
<polygon points="108.5,55.8 100.3,41.5 100.5,41.2 100.9,41.2 109.4,55.8 109,55.8 "/>
<polygon points="100.3,41.5 83.8,41.5 83.6,41.2 83.4,40.9 100.3,40.9 100.5,41.2 "/>
<polygon points="85.1,43.4 77.7,56 77.5,55.8 77.2,55.7 84.5,43 84.8,43.2 "/>
<polygon points="83.8,41.5 75.5,55.8 75.1,55.8 74.8,55.8 83.4,40.9 83.6,41.2 "/>
<polygon points="75.5,55.8 83.8,70.1 83.6,70.5 83.2,70.5 74.8,55.8 75.1,55.8 "/>
<polygon points="100.3,40.9 106.5,30.1 106.8,30.3 107.1,30.5 100.9,41.2 100.5,41.2 "/>
<text transform="matrix(1 0 0 1 106.0326 29.5524)" class="st0 st1">O</text>
<polygon points="106.5,22.9 100.2,12 100.5,11.8 100.8,11.7 107.1,22.6 106.8,22.8 "/>
</svg>
