<?xml version="1.0" encoding="utf-8"?>
<!-- Generator: Adobe Illustrator 22.1.0, SVG Export Plug-In . SVG Version: 6.00 Build 0)  -->
<svg version="1.1" id="图层_1" xmlns="http://www.w3.org/2000/svg" xmlns:xlink="http://www.w3.org/1999/xlink" x="0px" y="0px"
	 viewBox="0 0 200 130" style="enable-background:new 0 0 200 130;" xml:space="preserve">
<style type="text/css">
	.st0{font-family:'ArialMT';}
	.st1{font-size:7.3295px;}
</style>
<polygon points="145.7,110 139.5,99.3 139.8,99.1 140.1,99 146.3,109.7 146,109.8 "/>
<text transform="matrix(1 0 0 1 135.0135 98.4064)" class="st0 st1">N</text>
<polygon points="139.5,91.6 145.8,80.7 146,81 146.2,81.4 140.1,91.9 139.8,91.7 "/>
<polygon points="145.8,80.7 162.4,80.7 162.6,81 162.8,81.4 146.2,81.4 146,81 "/>
<polygon points="162.4,80.7 170.6,66.5 170.9,66.6 171.2,66.8 162.8,81.4 162.6,81 "/>
<polygon points="168.9,65.5 175.1,54.8 175.4,55 175.7,55.1 169.5,65.8 169.2,65.7 "/>
<polygon points="170.6,66.5 176.8,55.8 177.1,56 177.4,56.1 171.2,66.8 170.9,66.6 "/>
<polygon points="172.3,67.5 178.5,56.8 178.8,57 179.1,57.1 172.9,67.8 172.6,67.6 "/>
<text transform="matrix(1 0 0 1 176.5662 55.2233)" class="st0 st1">N</text>
<polygon points="134.4,95.7 121.2,95.7 121,95.5 121.2,95.1 134.4,95.1 134.4,95.5 "/>
<polygon points="121.2,95.7 112.9,110.2 112.7,109.8 112.5,109.5 120.6,95.5 121,95.5 "/>
<polygon points="119.1,95.6 111.9,108 111.6,107.8 111.3,107.7 118.5,95.3 118.8,95.5 "/>
<polygon points="112.9,110.2 95.9,110.2 96.1,109.8 96.3,109.5 112.5,109.5 112.7,109.8 "/>
<polygon points="95.9,110.2 87.6,95.7 87.8,95.5 88.2,95.5 96.3,109.5 96.1,109.8 "/>
<polygon points="97,108 89.8,95.6 90.1,95.5 90.4,95.3 97.6,107.7 97.3,107.8 "/>
<polygon points="87.6,95.1 95.9,80.7 96.1,81 96.3,81.4 88.2,95.5 87.8,95.5 "/>
<polygon points="95.9,80.7 112.9,80.7 112.7,81 112.5,81.4 96.3,81.4 96.1,81 "/>
<polygon points="97.3,82.7 111.6,82.7 111.6,83 111.6,83.4 97.3,83.4 97.3,83 "/>
<polygon points="112.9,80.7 121.2,95.1 121,95.5 120.6,95.5 112.5,81.4 112.7,81 "/>
<polygon points="87.6,95.7 71,95.7 71.2,95.5 71.4,95.1 87.6,95.1 87.8,95.5 "/>
<polygon points="71,95.7 62.7,81.4 62.8,81 63.3,81 71.4,95.1 71.2,95.5 "/>
<polygon points="72,93.6 64.9,81.2 65.2,81 65.5,80.9 72.6,93.3 72.3,93.5 "/>
<polygon points="62.7,81.4 46.3,81.4 46.3,81 46.3,80.7 62.7,80.7 62.8,81 "/>
<polygon points="46.3,83.4 32.9,83.4 32.9,83 32.9,82.7 46.3,82.7 46.3,83 "/>
<polygon points="46.3,81.4 32.9,81.4 32.9,81 32.9,80.7 46.3,80.7 46.3,81 "/>
<polygon points="46.3,79.4 32.9,79.4 32.9,79 32.9,78.7 46.3,78.7 46.3,79 "/>
<text transform="matrix(1 0 0 1 26.9749 84.0118)" class="st0 st1">N</text>
<polygon points="62.7,80.7 70.8,66.6 71.2,66.6 71.4,67 63.3,81 62.8,81 "/>
<polygon points="72.3,64.3 86.6,64.3 86.6,64.7 86.6,65 72.3,65 72.3,64.7 "/>
<polygon points="71.4,66.3 87.6,66.3 87.8,66.6 88,67 71.4,67 71.2,66.6 "/>
<polygon points="87.6,66.3 95.7,52.3 96.1,52.3 96.5,52.3 88,67 87.8,66.6 "/>
<polygon points="93.5,52.4 86.3,40 86.6,39.8 86.9,39.7 94.1,52.1 93.8,52.3 "/>
<polygon points="95.7,52.3 87.6,38.2 87.8,37.8 88.2,37.8 96.5,52.3 96.1,52.3 "/>
<polygon points="87.6,38.2 71.4,38.2 71.2,37.8 71,37.6 87.6,37.6 87.8,37.8 "/>
<polygon points="72.6,40 65.5,52.4 65.2,52.3 64.9,52.1 72,39.7 72.3,39.8 "/>
<polygon points="71.4,38.2 63.3,52.3 62.8,52.3 62.5,52.3 71,37.6 71.2,37.8 "/>
<polygon points="63.3,52.3 71.4,66.3 71.2,66.6 70.8,66.6 62.5,52.3 62.8,52.3 "/>
<polygon points="87.6,37.6 93.7,27 94,27.2 94.3,27.3 88.2,37.8 87.8,37.8 "/>
<text transform="matrix(1 0 0 1 93.2552 26.4332)" class="st0 st1">O</text>
<polygon points="93.7,19.9 87.5,9.2 87.8,9 88.1,8.9 94.3,19.6 94,19.8 "/>
</svg>
