<?xml version="1.0" encoding="utf-8"?>
<!-- Generator: Adobe Illustrator 22.1.0, SVG Export Plug-In . SVG Version: 6.00 Build 0)  -->
<svg version="1.1" id="图层_1" xmlns="http://www.w3.org/2000/svg" xmlns:xlink="http://www.w3.org/1999/xlink" x="0px" y="0px"
	 viewBox="0 0 200 130" style="enable-background:new 0 0 200 130;" xml:space="preserve">
<style type="text/css">
	.st0{font-family:'ArialMT';}
	.st1{font-size:6.3857px;}
</style>
<polygon points="14.6,64.2 21.8,76.6 21.6,76.9 21.4,77.2 14.1,64.5 14.4,64.4 "/>
<polygon points="21.8,76.6 35.9,76.6 36.1,76.9 35.9,77.2 21.4,77.2 21.6,76.9 "/>
<polygon points="35.9,76.6 43.2,64.1 43.3,64.4 43.5,64.7 36.4,76.9 36.1,76.9 "/>
<polygon points="37.8,76.8 44.1,66 44.3,66.1 44.6,66.3 38.4,77.1 38.1,76.9 "/>
<polygon points="43.2,64.1 58,64.1 57.8,64.4 57.7,64.7 43.5,64.7 43.3,64.4 "/>
<polygon points="58,64.1 65.2,76.6 65,76.9 64.7,76.9 57.7,64.7 57.8,64.4 "/>
<polygon points="57,66 63.3,76.8 63,76.9 62.8,77.1 56.5,66.3 56.8,66.1 "/>
<polygon points="65.2,77.2 58,89.8 57.8,89.5 57.7,89.2 64.7,76.9 65,76.9 "/>
<polygon points="58,89.8 43.2,89.8 43.3,89.5 43.5,89.2 57.7,89.2 57.8,89.5 "/>
<polygon points="56.8,88 44.3,88 44.3,87.7 44.3,87.4 56.8,87.4 56.8,87.7 "/>
<polygon points="43.2,89.8 35.9,77.2 36.1,76.9 36.4,76.9 43.5,89.2 43.3,89.5 "/>
<polygon points="65.2,76.6 79.4,76.6 79.5,76.9 79.4,77.2 65.2,77.2 65,76.9 "/>
<polygon points="79.4,76.6 86.6,64.1 86.8,64.4 86.9,64.7 79.9,76.9 79.5,76.9 "/>
<polygon points="81.3,76.8 87.5,66 87.7,66.1 88,66.3 81.8,77.1 81.6,76.9 "/>
<polygon points="86.6,64.1 101.1,64.1 101.3,64.4 101.1,64.7 86.9,64.7 86.8,64.4 "/>
<polygon points="103.5,64.2 109.8,75 109.5,75.2 109.2,75.3 103,64.5 103.3,64.4 "/>
<polygon points="101.6,64.4 108.7,76.6 108.5,76.9 108.3,77.2 101.1,64.7 101.3,64.4 "/>
<polygon points="108.7,76.6 122.8,76.6 123,76.9 123.1,77.2 108.3,77.2 108.5,76.9 "/>
<polygon points="121.7,75 128,64.2 128.2,64.4 128.4,64.5 122.2,75.3 122,75.2 "/>
<polygon points="122.8,76.6 129.9,64.4 130.2,64.4 130.4,64.7 123.1,77.2 123,76.9 "/>
<polygon points="129.9,64.4 122.8,52.2 123,51.9 123.1,51.5 130.4,64.1 130.2,64.4 "/>
<polygon points="122,53.9 109.5,53.9 109.5,53.6 109.5,53.3 122,53.3 122,53.6 "/>
<polygon points="122.8,52.2 108.7,52.2 108.5,51.9 108.3,51.5 123.1,51.5 123,51.9 "/>
<polygon points="108.7,52.2 101.6,64.4 101.3,64.4 101.1,64.1 108.3,51.5 108.5,51.9 "/>
<polygon points="130.4,64.1 141.8,64.1 141.8,64.4 141.8,64.7 130.4,64.7 130.2,64.4 "/>
<text transform="matrix(-1 0 0 -1 146.9995 61.81)" class="st0 st1">N</text>
<polygon points="146.8,67.5 152.2,76.8 151.9,76.9 151.7,77.1 146.3,67.8 146.6,67.6 "/>
<polygon points="146.3,61 151.8,51.5 151.9,51.9 152.1,52.2 146.8,61.3 146.6,61.2 "/>
<polygon points="151.8,51.5 166.3,51.5 166.4,51.9 166.6,52.2 152.1,52.2 151.9,51.9 "/>
<polygon points="166.3,51.5 173.4,39.2 173.6,39.3 173.9,39.5 166.6,52.2 166.4,51.9 "/>
<polygon points="171.9,38.3 177.3,29 177.5,29.1 177.8,29.3 172.4,38.6 172.1,38.4 "/>
<polygon points="173.4,39.2 178.8,29.8 179.1,30 179.3,30.2 173.9,39.5 173.6,39.3 "/>
<polygon points="174.9,40 180.3,30.7 180.5,30.9 180.8,31 175.4,40.3 175.2,40.2 "/>
<text transform="matrix(-1 0 0 -1 183.2017 24.1879)" class="st0 st1">N</text>
<polygon points="79.9,76.9 87,89.3 86.8,89.5 86.5,89.6 79.4,77.2 79.5,76.9 "/>
<polygon points="88.5,88.5 93.9,97.8 93.6,97.9 93.4,98.1 88,88.8 88.3,88.6 "/>
<polygon points="87,89.3 92.4,98.6 92.2,98.8 91.9,98.9 86.5,89.6 86.8,89.5 "/>
<polygon points="85.5,90.2 90.9,99.5 90.7,99.7 90.4,99.8 85,90.5 85.2,90.3 "/>
<text transform="matrix(-1 0 0 -1 96.316 99.433)" class="st0 st1">N</text>
</svg>
