<?xml version="1.0" encoding="utf-8"?>
<!-- Generator: Adobe Illustrator 22.1.0, SVG Export Plug-In . SVG Version: 6.00 Build 0)  -->
<svg version="1.1" id="图层_1" xmlns="http://www.w3.org/2000/svg" xmlns:xlink="http://www.w3.org/1999/xlink" x="0px" y="0px"
	 viewBox="0 0 200 130" style="enable-background:new 0 0 200 130;" xml:space="preserve">
<style type="text/css">
	.st0{font-family:'ArialMT';}
	.st1{font-size:7.206px;}
</style>
<polygon points="160.2,95.9 154.1,85.3 154.4,85.2 154.7,85 160.8,95.5 160.5,95.7 "/>
<text transform="matrix(1 0 0 1 149.711 84.4507)" class="st0 st1">N</text>
<polygon points="154.1,77.8 160.3,67.1 160.5,67.4 160.7,67.7 154.7,78.1 154.4,77.9 "/>
<polygon points="160.3,67.1 176.6,67.1 176.8,67.4 177,67.7 160.7,67.7 160.5,67.4 "/>
<polygon points="176.6,67.1 184.7,53.1 185,53.3 185.3,53.4 177,67.7 176.8,67.4 "/>
<polygon points="183,52.1 189.1,41.6 189.4,41.7 189.6,41.9 183.6,52.4 183.3,52.3 "/>
<polygon points="184.7,53.1 190.8,42.6 191.1,42.7 191.3,42.8 185.3,53.4 185,53.3 "/>
<polygon points="186.4,54.1 192.5,43.6 192.7,43.7 193,43.8 187,54.4 186.7,54.2 "/>
<text transform="matrix(1 0 0 1 190.564 41.9951)" class="st0 st1">N</text>
<polygon points="149.1,81.9 136.1,81.9 136,81.5 136.1,81.2 149.1,81.2 149.1,81.5 "/>
<polygon points="136.1,81.9 128,96 127.8,95.7 127.6,95.3 135.6,81.5 136,81.5 "/>
<polygon points="134,81.7 127,93.9 126.7,93.7 126.4,93.6 133.4,81.3 133.7,81.5 "/>
<polygon points="128,96 111.3,96 111.5,95.7 111.6,95.3 127.6,95.3 127.8,95.7 "/>
<polygon points="111.3,96 103.1,81.9 103.3,81.5 103.6,81.5 111.6,95.3 111.5,95.7 "/>
<polygon points="112.3,93.9 105.3,81.7 105.6,81.5 105.8,81.3 112.9,93.6 112.6,93.7 "/>
<polygon points="103.1,81.2 111.3,67.1 111.5,67.4 111.6,67.7 103.6,81.5 103.3,81.5 "/>
<polygon points="111.3,67.1 128,67.1 127.8,67.4 127.6,67.7 111.6,67.7 111.5,67.4 "/>
<polygon points="112.6,69 126.7,69 126.7,69.4 126.7,69.6 112.6,69.6 112.6,69.4 "/>
<polygon points="128,67.1 136.1,81.2 136,81.5 135.6,81.5 127.6,67.7 127.8,67.4 "/>
<polygon points="103.1,81.9 86.7,81.9 87,81.5 87.2,81.2 103.1,81.2 103.3,81.5 "/>
<polygon points="86.7,81.9 80.6,67.5 80.9,67.4 81.2,67.2 87.2,81.2 87,81.5 "/>
<polygon points="87.7,79.9 78.6,67.7 78.8,67.4 79.2,67.4 88.2,79.5 88,79.7 "/>
<polygon points="78.6,67.1 86.7,53.1 87,53.3 87.2,53.4 79.2,67.4 78.8,67.4 "/>
<polygon points="85,52.1 91.1,41.6 91.3,41.7 91.6,41.9 85.5,52.4 85.2,52.3 "/>
<polygon points="86.7,53.1 92.7,42.6 93,42.7 93.3,42.8 87.2,53.4 87,53.3 "/>
<polygon points="88.4,54.1 94.4,43.6 94.7,43.7 95,43.8 89,54.4 88.7,54.2 "/>
<text transform="matrix(1 0 0 1 92.5172 41.9951)" class="st0 st1">N</text>
<polygon points="78.6,67.7 62.6,67.7 62.4,67.4 62.6,67.1 78.6,67.1 78.8,67.4 "/>
<polygon points="59.9,67.5 52.9,55.4 53.2,55.2 53.4,55 60.4,67.2 60.2,67.4 "/>
<polygon points="62,67.4 54.1,53.5 54.3,53.3 54.5,52.9 62.6,67.1 62.4,67.4 "/>
<polygon points="54.1,53.5 38.1,53.5 37.9,53.3 37.8,52.9 54.5,52.9 54.3,53.3 "/>
<polygon points="39.3,55.4 32.3,67.5 32,67.4 31.7,67.2 38.8,55 39.1,55.2 "/>
<polygon points="38.1,53.5 30.1,67.4 29.8,67.4 29.6,67.1 37.8,52.9 37.9,53.3 "/>
<polygon points="30.1,67.4 38.1,81.2 37.9,81.5 37.8,81.9 29.6,67.7 29.8,67.4 "/>
<polygon points="39.1,79.2 53.2,79.2 53.2,79.6 53.2,79.9 39.1,79.9 39.1,79.6 "/>
<polygon points="38.1,81.2 54.1,81.2 54.3,81.5 54.5,81.9 37.8,81.9 37.9,81.5 "/>
<polygon points="54.1,81.2 62,67.4 62.4,67.4 62.6,67.7 54.5,81.9 54.3,81.5 "/>
<polygon points="29.6,67.7 16.9,67.7 16.9,67.4 16.9,67.1 29.6,67.1 29.8,67.4 "/>
<text transform="matrix(1 0 0 1 10.6104 70.2988)" class="st0 st1">O</text>
<polygon points="11,63.9 5,53.4 5.3,53.3 5.6,53.1 11.6,63.6 11.3,63.8 "/>
</svg>
