<?xml version="1.0" encoding="utf-8"?>
<!-- Generator: Adobe Illustrator 22.1.0, SVG Export Plug-In . SVG Version: 6.00 Build 0)  -->
<svg version="1.1" id="图层_1" xmlns="http://www.w3.org/2000/svg" xmlns:xlink="http://www.w3.org/1999/xlink" x="0px" y="0px"
	 viewBox="0 0 200 130" style="enable-background:new 0 0 200 130;" xml:space="preserve">
<style type="text/css">
	.st0{font-family:'ArialMT';}
	.st1{font-size:6.57px;}
</style>
<polygon points="160.6,84.9 155.1,75.3 155.3,75.1 155.6,75 161.1,84.5 160.8,84.7 "/>
<text transform="matrix(1 0 0 1 151.0303 74.4658)" class="st0 st1">N</text>
<polygon points="155.1,68.3 160.7,58.6 160.8,58.9 161,59.2 155.6,68.6 155.3,68.5 "/>
<polygon points="160.7,58.6 175.6,58.6 175.8,58.9 175.9,59.2 161,59.2 160.8,58.9 "/>
<polygon points="175.6,58.6 181,49.2 181.3,49.3 181.5,49.5 175.9,59.2 175.8,58.9 "/>
<text transform="matrix(1 0 0 1 180.6445 48.6592)" class="st0 st1">O</text>
<text transform="matrix(1 0 0 1 185.7549 48.6592)" class="st0 st1">H</text>
<polygon points="150.4,72.1 138.7,72.1 138.5,71.8 138.7,71.5 150.4,71.5 150.4,71.8 "/>
<polygon points="138.7,72.1 131.2,85 131.1,84.7 130.9,84.4 138.1,71.8 138.5,71.8 "/>
<polygon points="136.7,72 130.3,83.1 130,82.9 129.8,82.8 136.2,71.6 136.5,71.8 "/>
<polygon points="131.2,85 116,85 116.2,84.7 116.3,84.4 130.9,84.4 131.1,84.7 "/>
<polygon points="116,85 108.5,72.1 108.7,71.8 109,71.8 116.3,84.4 116.2,84.7 "/>
<polygon points="116.9,83.1 110.5,72 110.8,71.8 111,71.6 117.5,82.8 117.2,82.9 "/>
<polygon points="108.5,71.5 116,58.6 116.2,58.9 116.3,59.2 109,71.8 108.7,71.8 "/>
<polygon points="116,58.6 131.2,58.6 131.1,58.9 130.9,59.2 116.3,59.2 116.2,58.9 "/>
<polygon points="117.2,60.4 130,60.4 130,60.7 130,61 117.2,61 117.2,60.7 "/>
<polygon points="131.2,58.6 138.7,71.5 138.5,71.8 138.1,71.8 130.9,59.2 131.1,58.9 "/>
<polygon points="108.5,72.1 96.8,72.1 96.8,71.8 96.8,71.5 108.5,71.5 108.7,71.8 "/>
<text transform="matrix(1 0 0 1 91.4351 74.4658)" class="st0 st1">N</text>
<text transform="matrix(1 0 0 1 91.4351 80.4629)" class="st0 st1">H</text>
<polygon points="91.6,68.6 86.2,59.2 86.4,58.9 86.5,58.6 92.2,68.3 91.9,68.5 "/>
<polygon points="85.1,58.7 90.8,48.7 91.1,48.9 91.4,49 85.6,59.1 85.4,58.9 "/>
<polygon points="86.6,59.7 92.4,49.6 92.6,49.8 92.9,49.9 87.1,59.9 86.9,59.8 "/>
<text transform="matrix(1 0 0 1 91.2515 48.6592)" class="st0 st1">O</text>
<polygon points="86.2,59.2 71.6,59.2 71.5,58.9 71.6,58.6 86.5,58.6 86.4,58.9 "/>
<polygon points="69.1,59.1 64.1,50.4 64.4,50.2 64.6,50.1 69.7,58.7 69.4,58.9 "/>
<polygon points="71.1,58.9 65.6,49.5 65.9,49.3 66.2,49.2 71.6,58.6 71.5,58.9 "/>
<text transform="matrix(1 0 0 1 61.6372 48.6592)" class="st0 st1">N</text>
<polygon points="61,46.3 49.3,46.3 49.1,46 48.9,45.7 61,45.7 61,46 "/>
<polygon points="50.4,48 44,59.1 43.7,58.9 43.5,58.7 49.9,47.6 50.1,47.8 "/>
<polygon points="49.3,46.3 42,58.9 41.6,58.9 41.5,58.6 48.9,45.7 49.1,46 "/>
<polygon points="42,58.9 49.3,71.5 49.1,71.8 48.9,72.1 41.5,59.2 41.6,58.9 "/>
<polygon points="50.1,69.7 63,69.7 63,70 63,70.3 50.1,70.3 50.1,70 "/>
<polygon points="49.3,71.5 63.9,71.5 64,71.8 64.2,72.1 48.9,72.1 49.1,71.8 "/>
<polygon points="63.9,71.5 71.1,58.9 71.5,58.9 71.6,59.2 64.2,72.1 64,71.8 "/>
<polygon points="41.5,59.2 26.8,59.2 26.8,58.9 26.8,58.6 41.5,58.6 41.6,58.9 "/>
<polygon points="26.8,61 14.8,61 14.8,60.7 14.8,60.4 26.8,60.4 26.8,60.7 "/>
<polygon points="26.8,59.2 14.8,59.2 14.8,58.9 14.8,58.6 26.8,58.6 26.8,58.9 "/>
<polygon points="26.8,57.4 14.8,57.4 14.8,57.1 14.8,56.8 26.8,56.8 26.8,57.1 "/>
<text transform="matrix(1 0 0 1 9.4917 61.5625)" class="st0 st1">N</text>
</svg>
