<svg id="图层_1" data-name="图层 1" xmlns="http://www.w3.org/2000/svg" viewBox="0 0 200 130"><defs><style>.cls-1,.cls-2{isolation:isolate;}.cls-2{font-size:5.64px;font-family:ArialMT, Arial;}</style></defs><polygon points="193.32 3.51 180.56 3.51 180.41 3.26 180.26 3 193.32 3 193.32 3.26 193.32 3.51"/><polygon points="180.56 3.51 174.11 14.59 173.96 14.33 173.81 14.07 180.26 3 180.41 3.26 180.56 3.51"/><polygon points="174.11 14.59 163.79 14.59 163.79 14.33 163.79 14.08 173.81 14.07 173.96 14.33 174.11 14.59"/><g class="cls-1"><text class="cls-2" transform="translate(158.84 16.62) scale(1.01 1)">O</text></g><polygon points="159.63 17.3 154.91 25.41 154.61 25.41 154.46 25.15 159.18 17.05 159.4 17.18 159.63 17.3"/><polygon points="154.91 25.41 161.36 36.48 161.06 36.48 160.76 36.48 154.46 25.66 154.61 25.41 154.91 25.41"/><polygon points="153.94 26.81 159.5 36.35 159.27 36.48 159.05 36.6 153.49 27.07 153.71 26.94 153.94 26.81"/><polygon points="161.36 36.48 154.76 47.8 154.61 47.55 154.46 47.29 160.76 36.48 161.06 36.48 161.36 36.48"/><polygon points="154.76 47.8 141.86 47.81 141.71 47.55 141.86 47.3 154.46 47.29 154.61 47.55 154.76 47.8"/><polygon points="153.72 46.27 142.6 46.27 142.6 46.02 142.6 45.76 153.72 45.76 153.72 46.02 153.72 46.27"/><polygon points="141.41 47.55 134.96 36.48 135.25 36.48 135.55 36.48 141.86 47.3 141.71 47.55 141.41 47.55"/><polygon points="134.96 36.48 141.55 25.15 141.7 25.41 141.85 25.66 135.55 36.48 135.25 36.48 134.96 36.48"/><polygon points="136.82 36.35 142.37 26.82 142.6 26.94 142.82 27.07 137.26 36.61 137.04 36.48 136.82 36.35"/><polygon points="141.55 25.15 154.46 25.15 154.61 25.41 154.46 25.66 141.85 25.66 141.7 25.41 141.55 25.15"/><polygon points="141.86 47.81 135.55 58.64 135.26 58.63 135.1 58.38 141.41 47.55 141.71 47.55 141.86 47.81"/><polygon points="135.55 58.64 139.47 67.36 139.23 67.46 138.99 67.56 135.1 58.9 135.26 58.63 135.55 58.64"/><polygon points="134.54 60.16 138.05 67.98 137.82 68.08 137.58 68.19 134.06 60.37 134.3 60.27 134.54 60.16"/><g class="cls-1"><text class="cls-2" transform="translate(138.46 72.59) scale(1.01 1)">N</text></g><polygon points="138.11 72.79 131.18 78.97 130.92 78.86 130.89 78.55 137.76 72.41 137.94 72.6 138.11 72.79"/><polygon points="130.66 79.01 119.74 72.77 119.74 72.47 120.03 72.34 130.89 78.55 130.92 78.86 130.66 79.01"/><polygon points="130.59 77.19 121.36 71.92 121.49 71.7 121.62 71.48 130.85 76.75 130.72 76.97 130.59 77.19"/><polygon points="119.52 72.31 121.56 62.75 121.81 62.81 122.07 62.86 120.03 72.34 119.74 72.47 119.52 72.31"/><g class="cls-1"><text class="cls-2" transform="translate(120.37 57.58) scale(1.01 1)">H</text></g><g class="cls-1"><text class="cls-2" transform="translate(120.37 62.73) scale(1.01 1)">N</text></g><polygon points="124.97 59.44 135.1 58.38 135.26 58.63 135.1 58.9 125.02 59.95 125 59.7 124.97 59.44"/><polygon points="119.74 72.77 108.83 79.01 108.57 78.86 108.31 78.72 119.52 72.31 119.74 72.47 119.74 72.77"/><polygon points="110.38 79.75 110.38 90.76 110.12 90.76 109.86 90.76 109.86 79.75 110.12 79.75 110.38 79.75"/><polygon points="108.83 79.01 108.83 91.5 108.57 91.65 108.31 91.5 108.31 78.72 108.57 78.86 108.83 79.01"/><polygon points="108.83 91.5 119.75 97.74 119.75 98.04 119.75 98.33 108.57 91.94 108.57 91.65 108.83 91.5"/><polygon points="119.62 96.05 129.25 90.54 129.38 90.76 129.5 90.98 119.88 96.49 119.75 96.27 119.62 96.05"/><polygon points="119.75 97.74 130.66 91.5 130.92 91.64 131.18 91.79 119.75 98.33 119.75 98.04 119.75 97.74"/><polygon points="130.66 91.5 130.66 79.01 130.92 78.86 131.18 78.97 131.18 91.79 130.92 91.64 130.66 91.5"/><polygon points="108.57 91.94 97.64 98.2 97.4 98.04 97.38 97.76 108.31 91.5 108.57 91.65 108.57 91.94"/><polygon points="97.64 98.2 96.61 107.94 96.35 107.91 96.09 107.89 97.12 98.2 97.4 98.04 97.64 98.2"/><polygon points="96 99.02 95.07 107.78 94.81 107.75 94.56 107.73 95.48 98.96 95.74 98.99 96 99.02"/><g class="cls-1"><text class="cls-2" transform="translate(94 113.04) scale(1.01 1)">N</text></g><polygon points="93.53 111.55 83.59 113.64 83.43 113.42 83.56 113.13 93.43 111.05 93.48 111.3 93.53 111.55"/><polygon points="83.13 113.42 76.83 102.6 76.97 102.35 77.29 102.38 83.56 113.13 83.43 113.42 83.13 113.42"/><polygon points="83.98 111.81 78.65 102.67 78.88 102.55 79.1 102.42 84.43 111.56 84.21 111.69 83.98 111.81"/><polygon points="76.86 102.09 82.84 95.5 83.04 95.67 83.23 95.84 77.29 102.38 76.97 102.35 76.86 102.09"/><g class="cls-1"><text class="cls-2" transform="translate(83.55 90.46) scale(1.01 1)">H</text></g><g class="cls-1"><text class="cls-2" transform="translate(83.55 95.61) scale(1.01 1)">N</text></g><polygon points="88.28 93.74 97.38 97.76 97.4 98.04 97.12 98.2 88.07 94.21 88.18 93.98 88.28 93.74"/><polygon points="76.83 102.6 64.22 102.61 64.07 102.35 63.92 102.09 76.86 102.09 76.97 102.35 76.83 102.6"/><polygon points="65.19 104.01 59.63 113.55 59.41 113.42 59.18 113.29 64.74 103.76 64.96 103.88 65.19 104.01"/><polygon points="64.22 102.61 57.92 113.42 57.62 113.42 57.47 113.17 63.92 102.09 64.07 102.35 64.22 102.61"/><polygon points="57.92 113.42 64.22 124.24 64.07 124.49 63.92 124.75 57.47 113.68 57.62 113.42 57.92 113.42"/><polygon points="64.97 122.7 76.08 122.7 76.08 122.96 76.08 123.21 64.97 123.21 64.97 122.96 64.97 122.7"/><polygon points="64.22 124.24 76.83 124.23 76.98 124.49 77.13 124.75 63.92 124.75 64.07 124.49 64.22 124.24"/><polygon points="76.83 124.23 83.13 113.42 83.43 113.42 83.59 113.64 77.13 124.75 76.98 124.49 76.83 124.23"/><polygon points="57.47 113.68 47.28 113.68 47.28 113.42 47.28 113.17 57.47 113.17 57.62 113.42 57.47 113.68"/><g class="cls-1"><text class="cls-2" transform="translate(42.66 115.71) scale(1.01 1)">N</text></g><polygon points="42.83 110.71 38.11 102.61 38.26 102.36 38.41 102.1 43.28 110.45 43.06 110.58 42.83 110.71"/><polygon points="38.11 102.61 25.5 102.61 25.36 102.36 25.21 102.1 38.41 102.1 38.26 102.36 38.11 102.61"/><polygon points="25.5 102.61 20.79 110.72 20.56 110.59 20.34 110.46 25.21 102.1 25.36 102.36 25.5 102.61"/><g class="cls-1"><text class="cls-2" transform="translate(16.85 115.71) scale(1.01 1)">N</text></g><polygon points="20.79 116.15 25.51 124.25 25.36 124.5 25.21 124.76 20.34 116.4 20.56 116.27 20.79 116.15"/><polygon points="25.51 124.25 38.12 124.24 38.26 124.5 38.41 124.75 25.21 124.76 25.36 124.5 25.51 124.25"/><polygon points="38.12 124.24 42.84 116.14 43.06 116.27 43.28 116.4 38.41 124.75 38.26 124.5 38.12 124.24"/><polygon points="16.33 113.69 6 113.69 6 113.43 6 113.18 16.33 113.17 16.33 113.43 16.33 113.69"/></svg>