<svg id="图层_1" data-name="图层 1" xmlns="http://www.w3.org/2000/svg" viewBox="0 0 200 130"><defs><style>.cls-1,.cls-2{isolation:isolate;}.cls-2{font-size:5.69px;font-family:ArialMT, Arial;}</style></defs><polygon points="189.01 4.19 182.43 15.45 182.28 15.19 182.13 14.94 188.57 3.93 188.79 4.06 189.01 4.19"/><polygon points="182.43 15.45 172.11 15.4 172.11 15.14 172.11 14.88 182.13 14.94 182.28 15.19 182.43 15.45"/><g class="cls-1"><text class="cls-2" transform="translate(167.17 17.43)">O</text></g><polygon points="167.93 18.13 163.18 26.27 162.88 26.26 162.73 26.01 167.49 17.87 167.71 18 167.93 18.13"/><polygon points="163.18 26.27 169.57 37.47 169.27 37.47 168.97 37.47 162.73 26.52 162.88 26.26 163.18 26.27"/><polygon points="162.2 27.68 167.71 37.33 167.48 37.46 167.26 37.59 161.75 27.93 161.98 27.81 162.2 27.68"/><polygon points="169.57 37.47 162.91 48.86 162.76 48.6 162.61 48.35 168.97 37.47 169.27 37.47 169.57 37.47"/><polygon points="162.91 48.86 150.01 48.8 149.86 48.54 150.01 48.28 162.61 48.35 162.76 48.6 162.91 48.86"/><polygon points="161.88 47.31 150.76 47.25 150.76 46.99 150.77 46.74 161.88 46.79 161.88 47.05 161.88 47.31"/><polygon points="149.57 48.54 143.18 37.33 143.47 37.34 143.77 37.34 150.01 48.28 149.86 48.54 149.57 48.54"/><polygon points="143.18 37.33 149.83 25.94 149.98 26.2 150.13 26.46 143.77 37.34 143.47 37.34 143.18 37.33"/><polygon points="145.04 37.21 150.64 27.62 150.87 27.75 151.09 27.88 145.48 37.47 145.26 37.34 145.04 37.21"/><polygon points="149.83 25.94 162.73 26.01 162.88 26.26 162.73 26.52 150.13 26.46 149.98 26.2 149.83 25.94"/><polygon points="150.01 48.8 143.65 59.69 143.36 59.67 143.2 59.43 149.57 48.54 149.86 48.54 150.01 48.8"/><polygon points="143.65 59.69 147.52 68.51 147.28 68.62 147.05 68.72 143.2 59.95 143.36 59.67 143.65 59.69"/><polygon points="142.63 61.22 146.1 69.14 145.87 69.24 145.63 69.34 142.16 61.43 142.39 61.33 142.63 61.22"/><g class="cls-1"><text class="cls-2" transform="translate(146.49 73.79)">N</text></g><polygon points="146.15 73.97 139.17 80.18 138.91 80.07 138.88 79.75 145.8 73.58 145.97 73.78 146.15 73.97"/><polygon points="138.65 80.21 127.77 73.86 127.78 73.56 128.07 73.43 138.88 79.75 138.91 80.07 138.65 80.21"/><polygon points="138.59 78.39 129.4 73.01 129.53 72.79 129.66 72.57 138.85 77.94 138.72 78.16 138.59 78.39"/><polygon points="127.55 73.39 129.65 63.77 129.9 63.83 130.15 63.88 128.07 73.43 127.78 73.56 127.55 73.39"/><g class="cls-1"><text class="cls-2" transform="translate(128.47 58.55)">H</text></g><g class="cls-1"><text class="cls-2" transform="translate(128.47 63.75)">N</text></g><polygon points="133.07 60.44 143.2 59.43 143.36 59.67 143.2 59.95 133.12 60.96 133.09 60.7 133.07 60.44"/><polygon points="127.77 73.86 116.83 80.1 116.57 79.95 116.31 79.8 127.55 73.39 127.78 73.56 127.77 73.86"/><polygon points="118.37 80.85 118.32 91.96 118.06 91.96 117.8 91.96 117.86 80.85 118.11 80.85 118.37 80.85"/><polygon points="116.83 80.1 116.76 92.7 116.51 92.85 116.25 92.7 116.31 79.8 116.57 79.95 116.83 80.1"/><polygon points="116.76 92.7 127.64 99.06 127.64 99.36 127.64 99.65 116.5 93.15 116.51 92.85 116.76 92.7"/><polygon points="127.52 97.34 137.18 91.84 137.3 92.06 137.43 92.29 127.78 97.79 127.65 97.57 127.52 97.34"/><polygon points="127.64 99.06 138.59 92.81 138.85 92.96 139.1 93.11 127.64 99.65 127.64 99.36 127.64 99.06"/><polygon points="138.59 92.81 138.65 80.21 138.91 80.07 139.17 80.18 139.1 93.11 138.85 92.96 138.59 92.81"/><polygon points="116.5 93.15 105.54 99.4 105.3 99.24 105.29 98.95 116.25 92.7 116.51 92.85 116.5 93.15"/><polygon points="105.54 99.4 104.46 109.22 104.2 109.19 103.95 109.16 105.03 99.4 105.3 99.24 105.54 99.4"/><polygon points="103.9 100.22 102.92 109.05 102.67 109.02 102.41 108.99 103.38 100.16 103.64 100.19 103.9 100.22"/><g class="cls-1"><text class="cls-2" transform="translate(101.83 114.36)">N</text></g><polygon points="101.37 112.84 91.42 114.91 91.26 114.68 91.39 114.39 101.27 112.34 101.32 112.59 101.37 112.84"/><polygon points="90.96 114.67 84.72 103.73 84.87 103.47 85.18 103.51 91.39 114.39 91.26 114.68 90.96 114.67"/><polygon points="91.82 113.06 86.54 103.81 86.77 103.68 86.99 103.56 92.27 112.81 92.05 112.93 91.82 113.06"/><polygon points="84.75 103.22 90.79 96.58 90.98 96.76 91.17 96.93 85.18 103.51 84.87 103.47 84.75 103.22"/><g class="cls-1"><text class="cls-2" transform="translate(91.49 91.53)">H</text></g><g class="cls-1"><text class="cls-2" transform="translate(91.49 96.72)">N</text></g><polygon points="96.22 94.86 105.29 98.95 105.3 99.24 105.03 99.4 96.01 95.33 96.12 95.09 96.22 94.86"/><polygon points="84.72 103.73 72.12 103.67 71.97 103.41 71.82 103.15 84.75 103.22 84.87 103.47 84.72 103.73"/><polygon points="73.08 105.09 67.47 114.68 67.25 114.55 67.03 114.42 72.63 104.83 72.85 104.96 73.08 105.09"/><polygon points="72.12 103.67 65.76 114.55 65.46 114.54 65.31 114.28 71.82 103.15 71.97 103.41 72.12 103.67"/><polygon points="65.76 114.55 72 125.49 71.85 125.75 71.7 126 65.31 114.8 65.46 114.54 65.76 114.55"/><polygon points="72.76 123.95 83.87 124 83.86 124.26 83.86 124.52 72.75 124.46 72.75 124.2 72.76 123.95"/><polygon points="72 125.49 84.6 125.56 84.75 125.81 84.9 126.07 71.7 126 71.85 125.75 72 125.49"/><polygon points="84.6 125.56 90.96 114.67 91.26 114.68 91.42 114.91 84.9 126.07 84.75 125.81 84.6 125.56"/><polygon points="65.31 114.8 55.13 114.75 55.13 114.49 55.13 114.23 65.31 114.28 65.46 114.54 65.31 114.8"/><g class="cls-1"><text class="cls-2" transform="translate(50.51 116.78)">N</text></g><polygon points="50.7 111.74 46.02 103.53 46.17 103.27 46.32 103.02 51.15 111.48 50.93 111.61 50.7 111.74"/><polygon points="46.02 103.53 33.42 103.47 33.27 103.21 33.13 102.95 46.32 103.02 46.17 103.27 46.02 103.53"/><polygon points="33.42 103.47 28.67 111.61 28.44 111.47 28.22 111.34 33.13 102.95 33.27 103.21 33.42 103.47"/><g class="cls-1"><text class="cls-2" transform="translate(24.71 116.65)">N</text></g><polygon points="28.63 117.08 33.31 125.29 33.16 125.55 33.01 125.8 28.18 117.34 28.4 117.21 28.63 117.08"/><polygon points="33.31 125.29 45.91 125.36 46.06 125.61 46.2 125.87 33.01 125.8 33.16 125.55 33.31 125.29"/><polygon points="45.91 125.36 50.66 117.22 50.89 117.35 51.11 117.48 46.2 125.87 46.06 125.61 45.91 125.36"/><polygon points="24.2 114.59 13.87 114.53 13.87 114.28 13.87 114.02 24.2 114.07 24.2 114.33 24.2 114.59"/></svg>