<svg id="图层_1" data-name="图层 1" xmlns="http://www.w3.org/2000/svg" viewBox="0 0 200 130"><defs><style>.cls-1,.cls-2{isolation:isolate;}.cls-2{font-size:5.79px;font-family:ArialMT, Arial;}</style></defs><polygon points="2.94 84.32 13.46 84.28 13.46 84.54 13.46 84.8 2.94 84.84 2.94 84.58 2.94 84.32"/><g class="cls-1"><text class="cls-2" transform="translate(13.99 86.88)">N</text></g><polygon points="18.01 87.32 22.84 95.62 22.69 95.89 22.54 96.15 17.56 87.59 17.78 87.45 18.01 87.32"/><polygon points="22.84 95.62 35.68 95.58 35.83 95.84 35.98 96.1 22.54 96.15 22.69 95.89 22.84 95.62"/><polygon points="35.68 95.58 40.46 87.23 40.69 87.36 40.91 87.49 35.98 96.1 35.83 95.84 35.68 95.58"/><g class="cls-1"><text class="cls-2" transform="translate(40.27 86.78)">N</text></g><polygon points="40.43 81.64 35.6 73.34 35.75 73.08 35.9 72.82 40.88 81.38 40.66 81.51 40.43 81.64"/><polygon points="35.6 73.34 22.76 73.39 22.61 73.13 22.46 72.87 35.9 72.82 35.75 73.08 35.6 73.34"/><polygon points="22.76 73.39 17.98 81.74 17.75 81.61 17.53 81.48 22.46 72.87 22.61 73.13 22.76 73.39"/><polygon points="44.98 84.16 55.35 84.13 55.5 84.39 55.35 84.65 44.98 84.69 44.98 84.43 44.98 84.16"/><polygon points="63.17 74.69 57.55 84.51 57.32 84.38 57.09 84.25 62.71 74.43 62.94 74.56 63.17 74.69"/><polygon points="62.18 73.25 55.8 84.39 55.5 84.39 55.35 84.13 61.87 72.72 62.03 72.98 62.18 73.25"/><polygon points="61.87 72.72 75.05 72.67 75.17 72.94 75.01 73.2 62.18 73.25 62.03 72.98 61.87 72.72"/><polygon points="81.47 84.29 75.01 73.2 75.17 72.94 75.49 72.97 81.91 84 81.78 84.29 81.47 84.29"/><polygon points="82.33 82.64 76.88 73.27 77.1 73.13 77.33 73 82.79 82.38 82.56 82.51 82.33 82.64"/><polygon points="81.95 84.52 75.4 95.96 75.25 95.69 75.09 95.43 81.47 84.29 81.78 84.29 81.95 84.52"/><polygon points="63.01 93.9 74.33 93.86 74.33 94.12 74.33 94.38 63.02 94.42 63.01 94.16 63.01 93.9"/><polygon points="62.26 95.48 75.09 95.43 75.25 95.69 75.4 95.96 61.96 96.01 62.11 95.74 62.26 95.48"/><polygon points="61.96 96.01 55.35 84.65 55.5 84.39 55.8 84.39 62.26 95.48 62.11 95.74 61.96 96.01"/><polygon points="81.91 84 91.94 81.82 92 82.08 92.06 82.34 81.95 84.52 81.78 84.29 81.91 84"/><g class="cls-1"><text class="cls-2" transform="translate(92.53 83.86)">N</text></g><polygon points="96.19 68.6 95.18 78.62 94.91 78.59 94.65 78.56 95.66 68.61 95.94 68.44 96.19 68.6"/><polygon points="94.52 69.45 93.61 78.46 93.35 78.43 93.08 78.41 94 69.4 94.26 69.42 94.52 69.45"/><polygon points="95.66 68.61 86.43 64.54 86.54 64.3 86.64 64.06 95.93 68.15 95.94 68.44 95.66 68.61"/><g class="cls-1"><text class="cls-2" transform="translate(81.83 60.69)">H</text></g><g class="cls-1"><text class="cls-2" transform="translate(81.83 65.98)">N</text></g><polygon points="81.5 66.24 75.49 72.97 75.17 72.94 75.05 72.67 81.11 65.89 81.31 66.06 81.5 66.24"/><polygon points="95.93 68.15 107.03 61.68 107.3 61.83 107.3 62.13 96.19 68.6 95.94 68.44 95.93 68.15"/><polygon points="118.7 68.66 107.3 62.13 107.3 61.83 107.56 61.68 118.7 68.06 118.7 68.36 118.7 68.66"/><polygon points="118.56 66.77 108.74 61.14 108.87 60.91 109 60.69 118.83 66.31 118.69 66.54 118.56 66.77"/><polygon points="118.7 68.06 129.79 61.6 130.06 61.75 130.09 62.03 118.7 68.66 118.7 68.36 118.7 68.06"/><polygon points="130.27 48.8 130.32 61.56 130.06 61.75 129.79 61.6 129.75 48.76 130.01 48.61 130.27 48.8"/><polygon points="128.7 49.52 128.74 60.84 128.48 60.84 128.21 60.84 128.17 49.53 128.44 49.52 128.7 49.52"/><polygon points="129.75 48.76 118.61 42.38 118.61 42.08 118.6 41.78 130.04 48.32 130.01 48.61 129.75 48.76"/><polygon points="106.99 48.54 118.6 41.78 118.61 42.08 118.61 42.38 107.51 48.84 107.25 48.69 106.99 48.54"/><polygon points="108.7 49.37 118.48 43.67 118.61 43.9 118.74 44.13 108.96 49.82 108.83 49.6 108.7 49.37"/><polygon points="107.51 48.84 107.56 61.68 107.3 61.83 107.03 61.68 106.99 48.54 107.25 48.69 107.51 48.84"/><polygon points="130.04 48.32 139.79 45.12 139.87 45.37 139.95 45.61 130.27 48.8 130.01 48.61 130.04 48.32"/><g class="cls-1"><text class="cls-2" transform="translate(140.4 46.85)">N</text></g><polygon points="148.09 55.27 143.14 48.51 143.36 48.36 143.57 48.2 148.51 54.96 148.3 55.11 148.09 55.27"/><polygon points="149.93 55.11 144.42 47.58 144.63 47.43 144.84 47.27 150.38 54.84 150.25 55.1 149.93 55.11"/><polygon points="150.39 55.37 144.89 62.99 144.67 62.84 144.46 62.69 149.93 55.11 150.25 55.1 150.39 55.37"/><g class="cls-1"><text class="cls-2" transform="translate(140.47 68.11)">N</text></g><g class="cls-1"><text class="cls-2" transform="translate(140.47 73.4)">H</text></g><polygon points="139.87 65.17 130.09 62.03 130.06 61.75 130.32 61.56 140.03 64.67 139.95 64.92 139.87 65.17"/><polygon points="150.38 54.84 163.24 54.8 163.39 55.06 163.24 55.32 150.39 55.37 150.25 55.1 150.38 54.84"/><polygon points="171.06 45.36 165.44 55.18 165.21 55.05 164.98 54.92 170.61 45.1 170.83 45.23 171.06 45.36"/><polygon points="170.07 43.92 163.69 55.06 163.39 55.06 163.24 54.8 169.76 43.39 169.92 43.66 170.07 43.92"/><polygon points="169.76 43.39 182.9 43.34 183.06 43.61 182.91 43.87 170.07 43.92 169.92 43.66 169.76 43.39"/><polygon points="187.62 55.1 181.93 45.32 182.15 45.19 182.38 45.05 188.07 54.84 187.85 54.97 187.62 55.1"/><polygon points="189.36 54.96 182.91 43.87 183.06 43.61 183.36 43.61 189.97 54.96 189.67 54.96 189.36 54.96"/><polygon points="189.97 54.96 183.29 66.63 183.14 66.36 182.99 66.1 189.36 54.96 189.67 54.96 189.97 54.96"/><polygon points="170.9 64.57 182.22 64.53 182.22 64.79 182.22 65.05 170.91 65.09 170.91 64.83 170.9 64.57"/><polygon points="170.15 66.15 182.99 66.1 183.14 66.36 183.29 66.63 169.85 66.68 170 66.41 170.15 66.15"/><polygon points="169.85 66.68 163.24 55.32 163.39 55.06 163.69 55.06 170.15 66.15 170 66.41 169.85 66.68"/><polygon points="182.9 43.34 187.68 35 187.91 35.13 188.14 35.26 183.36 43.61 183.06 43.61 182.9 43.34"/><g class="cls-1"><text class="cls-2" transform="translate(187.33 34.55)">O</text><text class="cls-2" transform="translate(191.84 34.55)">H</text></g></svg>