<svg id="图层_1" data-name="图层 1" xmlns="http://www.w3.org/2000/svg" viewBox="0 0 200 130"><defs><style>.cls-1,.cls-2{isolation:isolate;}.cls-2{font-size:5.56px;font-family:ArialMT, Arial;}</style></defs><polygon points="3.65 80.85 13.74 80.91 13.74 81.16 13.74 81.42 3.65 81.36 3.65 81.1 3.65 80.85"/><g class="cls-1"><text class="cls-2" transform="translate(14.25 83.43)">N</text></g><polygon points="18.07 83.86 22.64 91.88 22.49 92.13 22.34 92.38 17.63 84.11 17.85 83.98 18.07 83.86"/><polygon points="22.64 91.88 34.95 91.95 35.09 92.2 35.23 92.46 22.34 92.38 22.49 92.13 22.64 91.88"/><polygon points="34.95 91.95 39.6 84 39.81 84.13 40.03 84.26 35.23 92.46 35.09 92.2 34.95 91.95"/><g class="cls-1"><text class="cls-2" transform="translate(39.45 83.58)">N</text></g><polygon points="39.64 78.65 35.07 70.63 35.22 70.38 35.37 70.13 40.08 78.4 39.86 78.53 39.64 78.65"/><polygon points="35.07 70.63 22.76 70.56 22.62 70.3 22.48 70.05 35.37 70.13 35.22 70.38 35.07 70.63"/><polygon points="22.76 70.56 18.11 78.5 17.89 78.38 17.68 78.25 22.48 70.05 22.62 70.3 22.76 70.56"/><polygon points="43.97 81.09 53.91 81.15 54.06 81.4 53.91 81.66 43.96 81.6 43.97 81.34 43.97 81.09"/><polygon points="61.5 72.17 56.02 81.54 55.8 81.42 55.59 81.29 61.07 71.92 61.29 72.05 61.5 72.17"/><polygon points="60.57 70.78 54.35 81.41 54.06 81.4 53.91 81.15 60.28 70.28 60.42 70.53 60.57 70.78"/><polygon points="60.28 70.28 72.91 70.35 73.02 70.6 72.88 70.86 60.57 70.78 60.42 70.53 60.28 70.28"/><polygon points="78.97 81.55 72.88 70.86 73.02 70.6 73.33 70.64 79.39 81.27 79.26 81.56 78.97 81.55"/><polygon points="79.81 79.98 74.66 70.94 74.88 70.81 75.1 70.69 80.25 79.73 80.03 79.85 79.81 79.98"/><polygon points="79.42 81.78 73.04 92.68 72.89 92.43 72.75 92.18 78.97 81.55 79.26 81.56 79.42 81.78"/><polygon points="61.18 90.6 72.03 90.66 72.03 90.91 72.03 91.17 61.17 91.1 61.17 90.85 61.18 90.6"/><polygon points="60.44 92.1 72.75 92.18 72.89 92.43 73.04 92.68 60.15 92.61 60.29 92.36 60.44 92.1"/><polygon points="60.15 92.61 53.91 81.66 54.06 81.4 54.35 81.41 60.44 92.1 60.29 92.36 60.15 92.61"/><polygon points="79.39 81.27 89.04 79.28 89.09 79.53 89.14 79.77 79.42 81.78 79.26 81.56 79.39 81.27"/><g class="cls-1"><text class="cls-2" transform="translate(89.59 81.26)">N</text></g><polygon points="93.23 66.64 92.16 76.23 91.91 76.21 91.66 76.18 92.72 66.64 92.99 66.48 93.23 66.64"/><polygon points="91.62 67.44 90.66 76.07 90.41 76.04 90.16 76.01 91.12 67.38 91.37 67.41 91.62 67.44"/><polygon points="92.72 66.64 83.92 62.66 84.02 62.43 84.13 62.2 92.98 66.2 92.99 66.48 92.72 66.64"/><g class="cls-1"><text class="cls-2" transform="translate(79.5 58.94)">H</text></g><g class="cls-1"><text class="cls-2" transform="translate(79.5 64.02)">N</text></g><polygon points="79.19 64.22 73.33 70.64 73.02 70.6 72.91 70.35 78.81 63.88 79 64.05 79.19 64.22"/><polygon points="92.98 66.2 103.69 60.1 103.94 60.25 103.94 60.54 93.23 66.64 92.99 66.48 92.98 66.2"/><polygon points="114.82 66.91 103.94 60.54 103.94 60.25 104.2 60.1 114.82 66.32 114.82 66.61 114.82 66.91"/><polygon points="114.7 65.09 105.33 59.6 105.46 59.38 105.59 59.17 114.96 64.65 114.83 64.87 114.7 65.09"/><polygon points="114.82 66.32 125.52 60.23 125.77 60.38 125.8 60.65 114.82 66.91 114.82 66.61 114.82 66.32"/><polygon points="126.09 47.96 126.02 60.2 125.77 60.38 125.52 60.23 125.59 47.92 125.84 47.78 126.09 47.96"/><polygon points="124.58 48.64 124.51 59.5 124.26 59.5 124.01 59.49 124.07 48.64 124.33 48.64 124.58 48.64"/><polygon points="125.59 47.92 114.97 41.7 114.97 41.41 114.97 41.12 125.87 47.5 125.84 47.78 125.59 47.92"/><polygon points="103.77 47.5 114.97 41.12 114.97 41.41 114.97 41.7 104.27 47.79 104.02 47.65 103.77 47.5"/><polygon points="105.4 48.31 114.83 42.94 114.96 43.16 115.08 43.38 105.65 48.75 105.53 48.53 105.4 48.31"/><polygon points="104.27 47.79 104.2 60.1 103.94 60.25 103.69 60.1 103.77 47.5 104.02 47.65 104.27 47.79"/><polygon points="125.87 47.5 135.26 44.51 135.34 44.75 135.42 44.99 126.09 47.96 125.84 47.78 125.87 47.5"/><g class="cls-1"><text class="cls-2" transform="translate(135.84 46.21)">N</text></g><polygon points="143.12 54.33 138.43 47.79 138.63 47.64 138.84 47.49 143.53 54.04 143.33 54.18 143.12 54.33"/><polygon points="144.89 54.19 139.66 46.91 139.86 46.76 140.07 46.61 145.33 53.94 145.2 54.19 144.89 54.19"/><polygon points="145.32 54.45 140 61.69 139.79 61.54 139.59 61.39 144.89 54.19 145.2 54.19 145.32 54.45"/><g class="cls-1"><text class="cls-2" transform="translate(135.72 66.59)">N</text></g><g class="cls-1"><text class="cls-2" transform="translate(135.72 71.67)">H</text></g><polygon points="135.14 63.75 125.8 60.65 125.77 60.38 126.02 60.2 135.3 63.27 135.22 63.51 135.14 63.75"/><polygon points="145.33 53.94 157.65 54.02 157.8 54.27 157.65 54.52 145.32 54.45 145.2 54.19 145.33 53.94"/><polygon points="165.25 45.04 159.76 54.41 159.54 54.28 159.33 54.15 164.81 44.78 165.03 44.91 165.25 45.04"/><polygon points="164.31 43.65 158.09 54.27 157.8 54.27 157.65 54.02 164.02 43.14 164.16 43.39 164.31 43.65"/><polygon points="164.02 43.14 176.91 43.22 176.76 43.47 176.62 43.72 164.31 43.65 164.16 43.39 164.02 43.14"/><polygon points="181.04 54.53 175.66 45.1 175.88 44.98 176.1 44.85 181.47 54.28 181.25 54.41 181.04 54.53"/><polygon points="182.71 54.42 176.62 43.72 176.76 43.47 176.91 43.22 183.15 54.17 183 54.42 182.71 54.42"/><polygon points="183.15 54.67 176.78 65.55 176.63 65.29 176.49 65.04 182.71 54.42 183 54.42 183.15 54.67"/><polygon points="164.92 63.46 175.77 63.52 175.77 63.78 175.77 64.03 164.91 63.96 164.92 63.71 164.92 63.46"/><polygon points="164.18 64.97 176.49 65.04 176.63 65.29 176.78 65.55 163.89 65.47 164.03 65.22 164.18 64.97"/><polygon points="163.89 65.47 157.65 54.52 157.8 54.27 158.09 54.27 164.18 64.97 164.03 65.22 163.89 65.47"/><polygon points="183.15 54.17 194.33 54.23 194.33 54.49 194.32 54.74 183.15 54.67 183 54.42 183.15 54.17"/><g class="cls-1"><text class="cls-2" transform="translate(194.83 56.75)">I</text></g></svg>