<svg id="图层_1" data-name="图层 1" xmlns="http://www.w3.org/2000/svg" viewBox="0 0 200 130"><defs><style>.cls-1,.cls-2,.cls-3{isolation:isolate;}.cls-2{font-size:7.43px;}.cls-2,.cls-3{font-family:ArialMT, Arial;}.cls-3{font-size:4.57px;}</style></defs><title>Tobramycin_Simi_compound4</title><polygon points="102.13 102.06 84.62 101.93 84.62 101.59 84.82 101.26 101.74 101.39 101.94 101.73 102.13 102.06"/><polygon points="84.32 101.76 75.89 87.28 76.08 86.93 76.48 86.93 84.82 101.26 84.62 101.59 84.32 101.76"/><polygon points="75.89 86.58 84.45 72.42 84.86 72.4 85.06 72.74 76.48 86.93 76.08 86.93 75.89 86.58"/><polygon points="85.08 72.07 102.18 72.2 102.17 72.53 101.97 72.87 85.06 72.74 84.86 72.4 85.08 72.07"/><polygon points="102.47 72.37 111.01 87.03 110.71 87.2 110.31 87.19 101.97 72.87 102.17 72.53 102.47 72.37"/><polygon points="110.76 87.57 110.77 86.83 111.11 86.83 111.46 86.83 111.45 87.57 111.11 87.57 110.76 87.57"/><polygon points="112.63 87.74 112.64 86.68 112.99 86.69 113.33 86.69 113.33 87.75 112.98 87.75 112.63 87.74"/><polygon points="114.51 87.92 114.52 86.54 114.86 86.54 115.21 86.54 115.2 87.92 114.85 87.92 114.51 87.92"/><polygon points="116.38 88.09 116.39 86.39 116.74 86.39 117.09 86.4 117.07 88.1 116.73 88.09 116.38 88.09"/><polygon points="118.25 88.27 118.27 86.25 118.62 86.25 118.96 86.25 118.95 88.27 118.6 88.27 118.25 88.27"/><polygon points="120.13 88.44 120.15 86.1 120.49 86.11 120.84 86.11 120.82 88.44 120.47 88.44 120.13 88.44"/><polygon points="122 88.61 122.02 85.96 122.37 85.96 122.72 85.96 122.69 88.62 122.35 88.61 122 88.61"/><polygon points="123.87 88.79 123.9 85.81 124.25 85.81 124.59 85.82 124.57 88.79 124.22 88.79 123.87 88.79"/><g class="cls-1"><text class="cls-2" transform="translate(125.27 89.38) scale(1.03 1)">N</text><text class="cls-2" transform="translate(130.79 89.38) scale(1.03 1)">H</text><text class="cls-3" transform="translate(136.3 90.53) scale(1.03 1)">2</text></g><polygon points="111.01 87.37 102.13 102.06 101.94 101.73 101.74 101.39 110.31 87.19 110.71 87.2 111.01 87.37"/><polygon points="102.53 72.68 101.87 72.3 102.05 72.01 102.22 71.72 102.88 72.1 102.71 72.39 102.53 72.68"/><polygon points="103.72 71.08 102.73 70.51 102.9 70.22 103.08 69.93 104.07 70.5 103.89 70.79 103.72 71.08"/><polygon points="104.91 69.48 103.59 68.73 103.76 68.44 103.94 68.15 105.26 68.9 105.08 69.19 104.91 69.48"/><polygon points="106.09 67.88 104.44 66.94 104.62 66.65 104.8 66.36 106.44 67.3 106.27 67.59 106.09 67.88"/><polygon points="107.28 66.28 105.3 65.16 105.48 64.86 105.65 64.57 107.63 65.7 107.45 65.99 107.28 66.28"/><polygon points="108.46 64.69 106.16 63.37 106.34 63.08 106.51 62.79 108.81 64.11 108.64 64.4 108.46 64.69"/><polygon points="109.65 63.09 107.02 61.58 107.19 61.29 107.37 61 110 62.51 109.83 62.8 109.65 63.09"/><g class="cls-1"><text class="cls-2" transform="translate(107.98 61.02) scale(1.03 1)">O</text></g><polygon points="128.07 58.49 114.6 59.55 114.61 58.03 114.62 56.52 128.08 57.78 128.26 58.14 128.07 58.49"/><polygon points="128.08 57.78 136.63 43.63 137.04 43.61 137.24 43.95 128.66 58.14 128.26 58.14 128.08 57.78"/><polygon points="137.26 43.27 154.36 43.41 154.36 43.74 154.15 44.08 137.24 43.95 137.04 43.61 137.26 43.27"/><polygon points="154.66 43.58 163.2 58.24 162.9 58.41 162.5 58.4 154.15 44.08 154.36 43.74 154.66 43.58"/><polygon points="163.19 58.58 154.42 73.11 154.12 72.94 153.92 72.6 162.5 58.4 162.9 58.41 163.19 58.58"/><polygon points="154.12 73.27 140.46 73.17 140.47 72.83 140.47 72.49 153.92 72.6 154.12 72.94 154.12 73.27"/><g class="cls-1"><text class="cls-2" transform="translate(133.84 75.81) scale(1.03 1)">O</text></g><polygon points="134.32 69.22 128.07 58.49 128.26 58.14 128.66 58.14 134.92 68.89 134.62 69.05 134.32 69.22"/><polygon points="153.81 73.15 154.46 72.79 154.63 73.08 154.81 73.38 154.16 73.74 153.99 73.44 153.81 73.15"/><polygon points="154.71 74.97 155.61 74.48 155.78 74.77 155.95 75.06 155.05 75.56 154.88 75.27 154.71 74.97"/><polygon points="155.61 76.8 156.76 76.16 156.93 76.46 157.1 76.75 155.95 77.39 155.78 77.09 155.61 76.8"/><polygon points="156.5 78.62 157.91 77.85 158.08 78.14 158.25 78.44 156.84 79.21 156.67 78.92 156.5 78.62"/><polygon points="157.4 80.45 159.06 79.53 159.23 79.83 159.4 80.12 157.74 81.04 157.57 80.74 157.4 80.45"/><polygon points="158.29 82.27 160.21 81.22 160.38 81.51 160.55 81.81 158.64 82.86 158.47 82.57 158.29 82.27"/><polygon points="159.19 84.1 161.35 82.91 161.53 83.2 161.7 83.49 159.53 84.69 159.36 84.39 159.19 84.1"/><polygon points="160.09 85.92 162.5 84.59 162.67 84.88 162.84 85.18 160.43 86.51 160.26 86.22 160.09 85.92"/><polygon points="160.98 87.75 163.65 86.28 163.82 86.57 163.99 86.86 161.32 88.33 161.15 88.04 160.98 87.75"/><polygon points="163.26 87.27 176.31 87.37 176.31 87.7 176.31 88.04 162.06 87.93 162.66 87.6 163.26 87.27"/><g class="cls-1"><text class="cls-2" transform="translate(177 90.74) scale(1.03 1)">O</text><text class="cls-2" transform="translate(182.94 90.74) scale(1.03 1)">H</text></g><polygon points="162.94 58.78 162.95 58.03 163.3 58.04 163.64 58.04 163.64 58.78 163.29 58.78 162.94 58.78"/><polygon points="164.79 58.95 164.8 57.89 165.14 57.89 165.49 57.9 165.48 58.96 165.13 58.95 164.79 58.95"/><polygon points="166.63 59.13 166.64 57.74 166.99 57.75 167.33 57.75 167.32 59.13 166.98 59.13 166.63 59.13"/><polygon points="168.47 59.3 168.49 57.6 168.83 57.6 169.18 57.6 169.17 59.3 168.82 59.3 168.47 59.3"/><polygon points="170.32 59.47 170.33 57.45 170.68 57.46 171.03 57.46 171.01 59.48 170.66 59.48 170.32 59.47"/><polygon points="172.16 59.65 172.18 57.31 172.52 57.31 172.87 57.31 172.85 59.65 172.5 59.65 172.16 59.65"/><polygon points="174 59.82 174.02 57.16 174.37 57.17 174.72 57.17 174.69 59.83 174.35 59.82 174 59.82"/><polygon points="175.84 59.99 175.87 57.02 176.22 57.02 176.56 57.02 176.54 60 176.19 60 175.84 59.99"/><g class="cls-1"><text class="cls-2" transform="translate(177.24 61.55) scale(1.03 1)">O</text><text class="cls-2" transform="translate(183.18 61.55) scale(1.03 1)">H</text></g><polygon points="154.72 43.89 154.05 43.51 154.23 43.22 154.4 42.93 155.07 43.31 154.89 43.6 154.72 43.89"/><polygon points="155.9 42.29 154.91 41.72 155.09 41.43 155.26 41.14 156.25 41.71 156.08 42 155.9 42.29"/><polygon points="157.09 40.69 155.77 39.94 155.94 39.65 156.12 39.35 157.44 40.11 157.26 40.4 157.09 40.69"/><polygon points="158.27 39.09 156.63 38.15 156.8 37.86 156.98 37.57 158.63 38.51 158.45 38.8 158.27 39.09"/><polygon points="159.46 37.49 157.49 36.36 157.66 36.07 157.84 35.78 159.81 36.91 159.64 37.2 159.46 37.49"/><polygon points="160.65 35.9 158.34 34.58 158.52 34.29 158.69 34 161 35.31 160.82 35.6 160.65 35.9"/><polygon points="161.83 34.3 159.2 32.79 159.38 32.5 159.55 32.21 162.18 33.72 162.01 34.01 161.83 34.3"/><g class="cls-1"><text class="cls-2" transform="translate(160.38 31.27) scale(1.03 1)">N</text><text class="cls-2" transform="translate(165.89 31.27) scale(1.03 1)">H</text><text class="cls-3" transform="translate(171.4 32.41) scale(1.03 1)">2</text></g><polygon points="136.63 43.63 129.33 33.45 130.69 32.7 132.04 31.95 137.26 43.27 137.04 43.61 136.63 43.63"/><g class="cls-1"><text class="cls-2" transform="translate(120.02 31.96) scale(1.03 1)">H</text><text class="cls-2" transform="translate(125.53 31.96) scale(1.03 1)">O</text></g><polygon points="84.45 72.42 77.15 62.24 78.5 61.49 79.86 60.74 85.08 72.07 84.86 72.4 84.45 72.42"/><g class="cls-1"><text class="cls-2" transform="translate(67.84 60.75) scale(1.03 1)">H</text><text class="cls-2" transform="translate(73.35 60.75) scale(1.03 1)">O</text></g><polygon points="75.89 87.28 62.42 88.34 62.43 86.83 62.44 85.31 75.89 86.58 76.08 86.93 75.89 87.28"/><g class="cls-1"><text class="cls-2" transform="translate(55.8 89.81) scale(1.03 1)">O</text></g><polygon points="50.64 72.12 57.94 82.3 56.58 83.05 55.23 83.8 50 72.47 50.23 72.14 50.64 72.12"/><polygon points="50 72.47 33.13 72.34 32.91 72 33.11 71.67 50.03 71.8 50.23 72.14 50 72.47"/><polygon points="32.5 71.98 23.97 57.34 24.37 57.34 24.77 57.34 33.11 71.67 32.91 72 32.5 71.98"/><polygon points="23.97 57.34 32.85 42.64 33.15 42.81 33.35 43.15 24.77 57.34 24.37 57.34 23.97 57.34"/><polygon points="33.15 42.47 50.25 42.6 50.46 42.94 50.26 43.28 33.35 43.15 33.15 42.81 33.15 42.47"/><polygon points="50.87 42.96 57.12 53.69 56.82 53.86 56.52 54.02 50.26 43.28 50.46 42.94 50.87 42.96"/><g class="cls-1"><text class="cls-2" transform="translate(56.03 60.62) scale(1.03 1)">O</text></g><polygon points="57.04 61.53 50.64 72.12 50.23 72.14 50.03 71.8 56.44 61.18 56.74 61.35 57.04 61.53"/><polygon points="50.25 42.6 58.13 27.19 59.24 28.41 60.31 29.57 50.87 42.96 50.46 42.94 50.25 42.6"/><polygon points="58.13 27.19 52.58 17.67 52.88 17.5 53.19 17.34 60.31 29.57 59.24 28.41 58.13 27.19"/><g class="cls-1"><text class="cls-2" transform="translate(39.88 15.8) scale(1.03 1)">H</text><text class="cls-3" transform="translate(45.4 16.95) scale(1.03 1)">2</text><text class="cls-2" transform="translate(48.01 15.8) scale(1.03 1)">N</text></g><polygon points="33.46 42.58 32.79 42.95 32.62 42.66 32.45 42.36 33.11 41.99 33.28 42.29 33.46 42.58"/><polygon points="32.62 40.77 31.62 41.33 31.45 41.03 31.28 40.74 32.28 40.19 32.45 40.48 32.62 40.77"/><polygon points="31.79 38.97 30.46 39.7 30.29 39.41 30.12 39.12 31.45 38.38 31.62 38.68 31.79 38.97"/><polygon points="30.96 37.16 29.3 38.08 29.13 37.79 28.95 37.49 30.62 36.58 30.79 36.87 30.96 37.16"/><polygon points="30.13 35.36 28.13 36.46 27.96 36.16 27.79 35.87 29.79 34.77 29.95 35.07 30.13 35.36"/><polygon points="29.29 33.55 26.97 34.84 26.8 34.54 26.63 34.25 28.95 32.97 29.12 33.26 29.29 33.55"/><polygon points="28.46 31.75 25.81 33.21 25.64 32.92 25.46 32.63 28.12 31.16 28.29 31.46 28.46 31.75"/><g class="cls-1"><text class="cls-2" transform="translate(16.13 31.16) scale(1.03 1)">H</text><text class="cls-2" transform="translate(21.64 31.16) scale(1.03 1)">O</text></g><polygon points="33.13 72.34 27.74 83.55 26.4 82.78 25.06 82.01 32.5 71.98 32.91 72 33.13 72.34"/><g class="cls-1"><text class="cls-2" transform="translate(13.32 88.58) scale(1.03 1)">H</text><text class="cls-3" transform="translate(18.83 89.73) scale(1.03 1)">2</text><text class="cls-2" transform="translate(21.45 88.58) scale(1.03 1)">N</text></g><polygon points="84.26 101.45 84.92 101.83 84.75 102.12 84.57 102.41 83.91 102.03 84.08 101.74 84.26 101.45"/><polygon points="83.07 103.05 84.06 103.62 83.89 103.91 83.71 104.2 82.72 103.63 82.9 103.34 83.07 103.05"/><polygon points="81.89 104.65 83.21 105.4 83.03 105.69 82.86 105.98 81.54 105.23 81.71 104.94 81.89 104.65"/><polygon points="80.7 106.25 82.35 107.19 82.17 107.48 82 107.77 80.35 106.83 80.53 106.54 80.7 106.25"/><polygon points="79.52 107.84 81.49 108.97 81.31 109.27 81.14 109.56 79.17 108.42 79.34 108.14 79.52 107.84"/><polygon points="78.33 109.44 80.63 110.76 80.46 111.05 80.28 111.34 77.98 110.02 78.15 109.73 78.33 109.44"/><polygon points="77.14 111.04 79.77 112.55 79.6 112.84 79.42 113.13 76.79 111.62 76.97 111.33 77.14 111.04"/><g class="cls-1"><text class="cls-2" transform="translate(65.03 118.18) scale(1.03 1)">H</text><text class="cls-3" transform="translate(70.54 119.32) scale(1.03 1)">2</text><text class="cls-2" transform="translate(73.15 118.18) scale(1.03 1)">N</text></g></svg>