<svg id="图层_1" data-name="图层 1" xmlns="http://www.w3.org/2000/svg" viewBox="0 0 200 130"><defs><style>.cls-1,.cls-2,.cls-3{isolation:isolate;}.cls-2{font-size:6.87px;}.cls-2,.cls-3{font-family:ArialMT, Arial;}.cls-3{font-size:4.23px;}</style></defs><title>Tobramycin_Simi_compound7</title><polygon points="105.78 99.42 90.22 99.17 90.03 98.85 90.22 98.54 105.43 98.79 105.6 99.11 105.78 99.42"/><polygon points="89.66 98.83 82.19 85.39 82.47 85.23 82.83 85.24 90.22 98.54 90.03 98.85 89.66 98.83"/><polygon points="82.2 85.08 90.11 71.89 90.47 71.88 90.65 72.19 82.83 85.24 82.47 85.23 82.2 85.08"/><polygon points="90.68 71.57 106.05 71.82 106.05 72.13 105.86 72.44 90.65 72.19 90.47 71.88 90.68 71.57"/><polygon points="106.32 71.98 113.79 85.42 113.61 85.75 113.25 85.74 105.86 72.44 106.05 72.13 106.32 71.98"/><polygon points="113.79 85.42 126.11 84.55 126.08 85.95 126.06 87.36 113.78 86.08 113.61 85.75 113.79 85.42"/><g class="cls-1"><text class="cls-2" transform="translate(126.71 87.9)">N</text><text class="cls-2" transform="translate(131.67 87.9)">H</text><text class="cls-3" transform="translate(136.63 88.96)">2</text></g><polygon points="113.78 86.08 105.78 99.42 105.6 99.11 105.43 98.79 113.25 85.74 113.61 85.75 113.78 86.08"/><polygon points="106.37 72.27 105.78 71.91 105.94 71.65 106.1 71.38 106.69 71.73 106.53 72 106.37 72.27"/><polygon points="107.45 70.8 106.56 70.27 106.72 70 106.88 69.74 107.77 70.27 107.61 70.54 107.45 70.8"/><polygon points="108.53 69.34 107.35 68.63 107.51 68.36 107.67 68.1 108.85 68.8 108.69 69.07 108.53 69.34"/><polygon points="109.6 67.87 108.13 66.99 108.29 66.72 108.45 66.46 109.92 67.34 109.76 67.61 109.6 67.87"/><polygon points="110.68 66.41 108.91 65.35 109.08 65.08 109.23 64.81 111 65.87 110.84 66.14 110.68 66.41"/><polygon points="111.76 64.94 109.7 63.71 109.86 63.44 110.02 63.17 112.08 64.41 111.92 64.68 111.76 64.94"/><polygon points="112.84 63.48 110.48 62.07 110.64 61.8 110.8 61.53 113.16 62.94 113 63.21 112.84 63.48"/><g class="cls-1"><text class="cls-2" transform="translate(111.39 61.56)">O</text></g><polygon points="129.59 58.69 129.58 59.37 129.27 59.37 128.96 59.36 128.97 58.68 129.28 58.68 129.59 58.69"/><polygon points="127.93 58.51 127.92 59.49 127.61 59.49 127.29 59.48 127.31 58.5 127.62 58.51 127.93 58.51"/><polygon points="126.28 58.34 126.25 59.61 125.94 59.61 125.63 59.6 125.65 58.33 125.97 58.33 126.28 58.34"/><polygon points="124.62 58.16 124.59 59.73 124.28 59.73 123.97 59.72 124 58.15 124.31 58.16 124.62 58.16"/><polygon points="122.96 57.99 122.93 59.85 122.62 59.85 122.31 59.84 122.34 57.98 122.65 57.98 122.96 57.99"/><polygon points="121.31 57.81 121.27 59.97 120.96 59.97 120.65 59.96 120.69 57.8 121 57.81 121.31 57.81"/><polygon points="119.65 57.64 119.61 60.09 119.3 60.09 118.99 60.08 119.03 57.63 119.34 57.63 119.65 57.64"/><polygon points="118 57.47 117.95 60.21 117.64 60.21 117.33 60.2 117.37 57.46 117.68 57.46 118 57.47"/><polygon points="129.36 58.87 137.37 45.51 137.64 45.67 137.81 45.99 129.99 59.04 129.63 59.03 129.36 58.87"/><polygon points="137.64 45.36 153.02 45.62 153.21 45.93 153.03 46.24 137.81 45.99 137.64 45.67 137.64 45.36"/><polygon points="153.58 45.95 161.05 59.39 160.78 59.55 160.42 59.54 153.03 46.24 153.21 45.93 153.58 45.95"/><polygon points="161.04 59.7 153.13 72.9 152.77 72.9 152.59 72.59 160.42 59.54 160.78 59.55 161.04 59.7"/><polygon points="152.57 73.21 140.48 73.01 140.49 72.7 140.49 72.39 152.59 72.59 152.77 72.9 152.57 73.21"/><g class="cls-1"><text class="cls-2" transform="translate(134.52 75.43)">O</text></g><polygon points="135 69.33 129.36 59.18 129.63 59.03 129.99 59.04 135.54 69.03 135.27 69.18 135 69.33"/><polygon points="153.13 72.9 161.81 86.23 160.33 86.52 158.92 86.81 152.57 73.21 152.77 72.9 153.13 72.9"/><polygon points="161.81 86.23 172.81 86.41 172.8 86.72 172.8 87.04 158.92 86.81 160.33 86.52 161.81 86.23"/><g class="cls-1"><text class="cls-2" transform="translate(173.43 88.67)">N</text><text class="cls-2" transform="translate(178.39 88.67)">H</text><text class="cls-3" transform="translate(183.35 89.73)">2</text></g><polygon points="160.82 59.89 160.83 59.2 161.14 59.21 161.45 59.21 161.44 59.9 161.13 59.89 160.82 59.89"/><polygon points="162.47 60.06 162.49 59.08 162.8 59.09 163.11 59.09 163.1 60.07 162.78 60.07 162.47 60.06"/><polygon points="164.13 60.24 164.15 58.96 164.46 58.97 164.77 58.97 164.75 60.25 164.44 60.24 164.13 60.24"/><polygon points="165.79 60.41 165.81 58.84 166.12 58.85 166.44 58.85 166.41 60.42 166.1 60.42 165.79 60.41"/><polygon points="167.44 60.59 167.47 58.72 167.78 58.73 168.1 58.73 168.06 60.6 167.75 60.59 167.44 60.59"/><polygon points="169.1 60.76 169.13 58.6 169.44 58.61 169.76 58.61 169.72 60.77 169.41 60.77 169.1 60.76"/><polygon points="170.75 60.94 170.79 58.48 171.11 58.49 171.42 58.49 171.38 60.95 171.07 60.94 170.75 60.94"/><polygon points="172.41 61.11 172.46 58.36 172.77 58.37 173.08 58.37 173.03 61.12 172.72 61.12 172.41 61.11"/><g class="cls-1"><text class="cls-2" transform="translate(173.68 62.58)">O</text><text class="cls-2" transform="translate(179.02 62.58)">H</text></g><polygon points="153.02 45.62 157.94 35.31 159.14 36.04 160.35 36.76 153.58 45.95 153.21 45.93 153.02 45.62"/><g class="cls-1"><text class="cls-2" transform="translate(158.55 35.35)">O</text><text class="cls-2" transform="translate(163.89 35.35)">H</text></g><polygon points="137.92 45.46 137.31 45.8 137.16 45.53 137.01 45.25 137.61 44.92 137.77 45.19 137.92 45.46"/><polygon points="137.18 43.78 136.28 44.29 136.13 44.02 135.97 43.74 136.88 43.24 137.03 43.51 137.18 43.78"/><polygon points="136.44 42.11 135.24 42.78 135.09 42.5 134.94 42.23 136.14 41.56 136.29 41.84 136.44 42.11"/><polygon points="135.71 40.43 134.21 41.27 134.06 40.99 133.91 40.72 135.41 39.89 135.56 40.16 135.71 40.43"/><polygon points="134.97 38.75 133.17 39.75 133.02 39.48 132.87 39.21 134.67 38.21 134.82 38.48 134.97 38.75"/><polygon points="134.24 37.08 132.14 38.24 131.99 37.97 131.83 37.7 133.93 36.53 134.09 36.8 134.24 37.08"/><polygon points="133.5 35.4 131.1 36.73 130.95 36.46 130.8 36.19 133.2 34.85 133.35 35.13 133.5 35.4"/><g class="cls-1"><text class="cls-2" transform="translate(122.44 34.84)">H</text><text class="cls-2" transform="translate(127.4 34.84)">O</text></g><polygon points="90.11 71.89 83.61 62.41 84.83 61.73 86.06 61.05 90.68 71.57 90.47 71.88 90.11 71.89"/><g class="cls-1"><text class="cls-2" transform="translate(75.28 61.04)">H</text><text class="cls-2" transform="translate(80.24 61.04)">O</text></g><polygon points="82.42 84.89 82.41 85.58 82.1 85.57 81.79 85.57 81.8 84.88 82.11 84.89 82.42 84.89"/><polygon points="80.77 84.72 80.75 85.7 80.44 85.69 80.13 85.69 80.15 84.71 80.46 84.71 80.77 84.72"/><polygon points="79.11 84.54 79.09 85.82 78.78 85.81 78.47 85.81 78.49 84.53 78.8 84.54 79.11 84.54"/><polygon points="77.46 84.37 77.43 85.94 77.12 85.93 76.81 85.93 76.83 84.36 77.14 84.36 77.46 84.37"/><polygon points="75.8 84.19 75.77 86.06 75.46 86.05 75.15 86.05 75.18 84.18 75.49 84.19 75.8 84.19"/><polygon points="74.14 84.02 74.11 86.18 73.8 86.17 73.48 86.17 73.52 84.01 73.83 84.01 74.14 84.02"/><polygon points="72.49 83.84 72.45 86.3 72.14 86.29 71.82 86.29 71.86 83.83 72.18 83.84 72.49 83.84"/><polygon points="70.83 83.67 70.79 86.42 70.47 86.41 70.16 86.41 70.21 83.66 70.52 83.66 70.83 83.67"/><g class="cls-1"><text class="cls-2" transform="translate(64.22 87.76)">O</text></g><polygon points="59.05 71.58 59.65 71.24 59.81 71.51 59.96 71.78 59.35 72.12 59.2 71.85 59.05 71.58"/><polygon points="59.79 73.25 60.69 72.75 60.84 73.02 60.99 73.3 60.09 73.8 59.94 73.52 59.79 73.25"/><polygon points="60.52 74.93 61.73 74.26 61.88 74.53 62.03 74.81 60.83 75.47 60.67 75.2 60.52 74.93"/><polygon points="61.26 76.61 62.76 75.77 62.91 76.04 63.06 76.32 61.56 77.15 61.41 76.88 61.26 76.61"/><polygon points="61.99 78.28 63.8 77.28 63.95 77.56 64.1 77.83 62.3 78.83 62.15 78.56 61.99 78.28"/><polygon points="62.73 79.96 64.83 78.79 64.98 79.07 65.13 79.34 63.03 80.5 62.88 80.23 62.73 79.96"/><polygon points="63.47 81.64 65.87 80.3 66.02 80.58 66.17 80.85 63.77 82.18 63.62 81.91 63.47 81.64"/><polygon points="59.32 71.67 43.75 71.42 43.76 71.11 43.94 70.8 59.15 71.05 59.33 71.36 59.32 71.67"/><polygon points="43.48 71.26 36.01 57.81 36.19 57.49 36.55 57.5 43.94 70.8 43.76 71.11 43.48 71.26"/><polygon points="36.02 57.16 43.93 43.97 44.2 44.13 44.38 44.45 36.55 57.5 36.19 57.49 36.02 57.16"/><polygon points="44.2 43.82 59.58 44.08 59.77 44.39 59.59 44.7 44.38 44.45 44.2 44.13 44.2 43.82"/><polygon points="60.14 44.41 65.69 54.39 65.41 54.54 65.14 54.69 59.59 44.7 59.77 44.39 60.14 44.41"/><g class="cls-1"><text class="cls-2" transform="translate(64.67 60.79)">O</text></g><polygon points="65.53 61.63 59.6 71.52 59.33 71.36 59.15 71.05 64.99 61.31 65.26 61.47 65.53 61.63"/><polygon points="59.58 44.08 66.79 29.89 67.78 31.03 68.74 32.11 60.14 44.41 59.77 44.39 59.58 44.08"/><polygon points="66.79 29.89 61.87 21.03 62.14 20.88 62.41 20.73 68.74 32.11 67.78 31.03 66.79 29.89"/><g class="cls-1"><text class="cls-2" transform="translate(52.59 20.2)">H</text><text class="cls-2" transform="translate(57.55 20.2)">O</text></g><polygon points="44.48 43.92 43.87 44.26 43.72 43.99 43.57 43.71 44.17 43.38 44.33 43.65 44.48 43.92"/><polygon points="43.74 42.24 42.84 42.75 42.69 42.48 42.54 42.2 43.44 41.7 43.59 41.97 43.74 42.24"/><polygon points="43.01 40.57 41.8 41.24 41.65 40.96 41.5 40.69 42.7 40.02 42.85 40.3 43.01 40.57"/><polygon points="42.27 38.89 40.77 39.73 40.62 39.45 40.47 39.18 41.97 38.35 42.12 38.62 42.27 38.89"/><polygon points="41.53 37.21 39.73 38.21 39.58 37.94 39.43 37.67 41.23 36.67 41.38 36.94 41.53 37.21"/><polygon points="40.8 35.54 38.7 36.7 38.55 36.43 38.4 36.16 40.49 34.99 40.65 35.26 40.8 35.54"/><polygon points="40.06 33.86 37.66 35.19 37.51 34.92 37.36 34.65 39.76 33.31 39.91 33.59 40.06 33.86"/><g class="cls-1"><text class="cls-2" transform="translate(29 33.3)">H</text><text class="cls-2" transform="translate(33.96 33.3)">O</text></g><polygon points="36.01 57.81 23.7 58.69 23.72 57.29 23.74 55.88 36.02 57.16 36.19 57.49 36.01 57.81"/><g class="cls-1"><text class="cls-2" transform="translate(10.89 59.13)">H</text><text class="cls-3" transform="translate(15.85 60.19)">2</text><text class="cls-2" transform="translate(18.2 59.13)">N</text></g><polygon points="43.43 70.97 44.03 71.33 43.87 71.59 43.71 71.86 43.11 71.51 43.27 71.24 43.43 70.97"/><polygon points="42.35 72.44 43.24 72.97 43.08 73.24 42.92 73.5 42.03 72.97 42.2 72.7 42.35 72.44"/><polygon points="41.28 73.9 42.46 74.61 42.3 74.88 42.14 75.14 40.96 74.44 41.12 74.17 41.28 73.9"/><polygon points="40.2 75.37 41.67 76.25 41.51 76.52 41.35 76.78 39.88 75.9 40.04 75.63 40.2 75.37"/><polygon points="39.12 76.83 40.89 77.89 40.73 78.16 40.57 78.43 38.8 77.37 38.96 77.1 39.12 76.83"/><polygon points="38.04 78.3 40.1 79.53 39.94 79.8 39.78 80.07 37.72 78.83 37.88 78.56 38.04 78.3"/><polygon points="36.97 79.76 39.32 81.17 39.16 81.44 39 81.71 36.65 80.3 36.81 80.03 36.97 79.76"/><g class="cls-1"><text class="cls-2" transform="translate(28.12 87.25)">H</text><text class="cls-2" transform="translate(33.08 87.25)">O</text></g><polygon points="90.22 99.17 85.3 109.47 84.1 108.75 82.9 108.02 89.66 98.83 90.03 98.85 90.22 99.17"/><g class="cls-1"><text class="cls-2" transform="translate(72.29 114.11)">H</text><text class="cls-3" transform="translate(77.25 115.16)">2</text><text class="cls-2" transform="translate(79.6 114.11)">N</text></g></svg>