<svg id="图层_1" data-name="图层 1" xmlns="http://www.w3.org/2000/svg" viewBox="0 0 200 130"><defs><style>.cls-1,.cls-2,.cls-3{isolation:isolate;}.cls-2{font-size:4.93px;}.cls-2,.cls-3{font-family:ArialMT, Arial;}.cls-3{font-size:3.04px;}</style></defs><title>Lividomycin _Simi_compound4</title><polygon points="158.88 81.4 153.3 91.08 153.03 91.09 152.91 90.86 158.37 81.4 158.63 81.4 158.88 81.4"/><polygon points="152.89 91.31 141.99 91.31 141.85 91.09 141.98 90.86 152.91 90.86 153.03 91.09 152.89 91.31"/><polygon points="141.58 91.08 136.13 81.64 136.26 81.4 136.51 81.4 141.98 90.86 141.85 91.09 141.58 91.08"/><polygon points="136.13 81.17 141.58 71.73 141.85 71.72 141.98 71.94 136.51 81.4 136.26 81.4 136.13 81.17"/><polygon points="141.99 71.49 152.89 71.49 153.03 71.72 152.91 71.94 141.98 71.94 141.85 71.72 141.99 71.49"/><polygon points="152.89 71.49 156.32 64.01 157.19 64.52 158.06 65.02 153.3 71.73 153.03 71.72 152.89 71.49"/><g class="cls-1"><text class="cls-2" transform="translate(156.85 63.39)">N</text><text class="cls-2" transform="translate(160.41 63.39)">H</text><text class="cls-3" transform="translate(163.97 64.15)">2</text></g><polygon points="153.3 71.73 158.88 81.4 158.63 81.4 158.37 81.4 152.91 71.94 153.03 71.72 153.3 71.73"/><polygon points="141.58 71.73 136.82 65.02 137.69 64.52 138.56 64.01 141.99 71.49 141.85 71.72 141.58 71.73"/><g class="cls-1"><text class="cls-2" transform="translate(134.34 64.02)">O</text></g><polygon points="141.99 52.56 138.56 60.04 137.69 59.54 136.82 59.04 141.58 52.33 141.85 52.34 141.99 52.56"/><polygon points="141.58 52.33 136.13 42.89 136.26 42.65 136.51 42.65 141.98 52.12 141.85 52.34 141.58 52.33"/><polygon points="136.13 42.42 141.72 32.74 141.85 32.97 141.98 33.19 136.51 42.65 136.26 42.65 136.13 42.42"/><polygon points="141.72 32.74 153.03 32.74 153.03 32.97 152.91 33.19 141.98 33.19 141.85 32.97 141.72 32.74"/><polygon points="153.23 32.85 158.82 42.54 158.63 42.65 158.37 42.65 152.91 33.19 153.03 32.97 153.23 32.85"/><polygon points="158.82 42.77 154.66 49.97 154.47 49.85 154.28 49.74 158.37 42.65 158.63 42.65 158.82 42.77"/><g class="cls-1"><text class="cls-2" transform="translate(151.12 54.34)">O</text></g><polygon points="150.67 52.56 141.99 52.56 141.85 52.34 141.98 52.12 150.67 52.12 150.67 52.34 150.67 52.56"/><polygon points="158.65 42.9 158.65 42.41 158.88 42.41 159.1 42.41 159.1 42.9 158.88 42.9 158.65 42.9"/><polygon points="159.99 42.99 159.99 42.32 160.22 42.32 160.44 42.32 160.44 42.99 160.22 42.99 159.99 42.99"/><polygon points="161.33 43.08 161.33 42.23 161.56 42.23 161.78 42.23 161.78 43.08 161.56 43.08 161.33 43.08"/><polygon points="162.67 43.18 162.67 42.13 162.89 42.13 163.12 42.13 163.12 43.18 162.89 43.18 162.67 43.18"/><polygon points="164.01 43.27 164.01 42.04 164.23 42.04 164.46 42.04 164.46 43.27 164.23 43.27 164.01 43.27"/><polygon points="165.35 43.36 165.35 41.94 165.57 41.94 165.8 41.94 165.8 43.36 165.57 43.36 165.35 43.36"/><polygon points="166.69 43.46 166.69 41.85 166.91 41.85 167.13 41.85 167.13 43.46 166.91 43.46 166.69 43.46"/><polygon points="168.03 43.55 168.03 41.76 168.25 41.76 168.47 41.76 168.47 43.55 168.25 43.55 168.03 43.55"/><polygon points="169.37 43.65 169.37 41.66 169.59 41.66 169.81 41.66 169.81 43.65 169.59 43.65 169.37 43.65"/><polygon points="169.81 42.2 173.78 35.34 173.97 35.45 174.16 35.57 169.81 43.1 169.81 42.65 169.81 42.2"/><g class="cls-1"><text class="cls-2" transform="translate(173.49 34.96)">O</text><text class="cls-2" transform="translate(177.32 34.96)">H</text></g><polygon points="153.27 33.06 152.84 32.81 152.95 32.62 153.06 32.42 153.49 32.67 153.38 32.87 153.27 33.06"/><polygon points="154.03 31.99 153.38 31.62 153.5 31.43 153.61 31.23 154.25 31.6 154.14 31.8 154.03 31.99"/><polygon points="154.78 30.92 153.93 30.43 154.04 30.23 154.15 30.04 155.01 30.54 154.9 30.73 154.78 30.92"/><polygon points="155.54 29.85 154.47 29.24 154.59 29.04 154.7 28.85 155.77 29.47 155.66 29.66 155.54 29.85"/><polygon points="156.3 28.79 155.02 28.05 155.13 27.85 155.25 27.66 156.53 28.4 156.41 28.59 156.3 28.79"/><polygon points="157.06 27.72 155.57 26.85 155.68 26.66 155.79 26.47 157.28 27.33 157.17 27.52 157.06 27.72"/><polygon points="157.82 26.65 156.11 25.66 156.22 25.47 156.34 25.27 158.04 26.26 157.93 26.45 157.82 26.65"/><g class="cls-1"><text class="cls-2" transform="translate(156.71 25.28)">O</text><text class="cls-2" transform="translate(160.54 25.28)">H</text></g><polygon points="136.13 42.89 127.3 43.66 127.3 42.65 127.3 41.65 136.13 42.42 136.26 42.65 136.13 42.89"/><g class="cls-1"><text class="cls-2" transform="translate(118.08 44.02)">H</text><text class="cls-3" transform="translate(121.64 44.77)">2</text><text class="cls-2" transform="translate(123.33 44.02)">N</text></g><polygon points="136.13 81.64 127.44 82.41 127.44 81.4 127.44 80.39 136.13 81.17 136.26 81.4 136.13 81.64"/><g class="cls-1"><text class="cls-2" transform="translate(123.15 83.4)">O</text></g><polygon points="119.28 71.87 119.71 71.62 119.82 71.81 119.93 72.01 119.5 72.26 119.39 72.06 119.28 71.87"/><polygon points="119.83 73.06 120.47 72.69 120.58 72.88 120.69 73.08 120.05 73.45 119.94 73.25 119.83 73.06"/><polygon points="120.37 74.25 121.23 73.76 121.34 73.95 121.45 74.15 120.6 74.64 120.48 74.45 120.37 74.25"/><polygon points="120.92 75.44 121.99 74.83 122.1 75.02 122.21 75.22 121.14 75.83 121.03 75.64 120.92 75.44"/><polygon points="121.47 76.64 122.75 75.9 122.86 76.09 122.97 76.28 121.69 77.02 121.58 76.83 121.47 76.64"/><polygon points="122.01 77.83 123.5 76.97 123.62 77.16 123.73 77.35 122.23 78.22 122.12 78.02 122.01 77.83"/><polygon points="122.56 79.02 124.26 78.03 124.38 78.23 124.49 78.42 122.78 79.41 122.67 79.21 122.56 79.02"/><polygon points="119.45 71.94 108.33 70.77 108.35 70.55 108.54 70.34 119.34 71.47 119.48 71.72 119.45 71.94"/><polygon points="108.14 70.59 105.81 59.65 106.03 59.6 106.28 59.72 108.54 70.34 108.35 70.55 108.14 70.59"/><polygon points="105.92 59.41 115.6 53.82 115.71 54.01 115.69 54.29 106.28 59.72 106.03 59.6 105.92 59.41"/><polygon points="115.86 53.84 121.81 59.2 121.66 59.37 121.51 59.53 115.69 54.29 115.71 54.01 115.86 53.84"/><g class="cls-1"><text class="cls-2" transform="translate(122.11 63.49)">O</text></g><polygon points="123.12 64.07 119.68 71.81 119.48 71.72 119.34 71.47 122.71 63.89 122.92 63.98 123.12 64.07"/><polygon points="115.96 54.01 115.48 53.96 115.5 53.74 115.52 53.51 116 53.56 115.98 53.79 115.96 54.01"/><polygon points="116.19 52.69 115.52 52.62 115.55 52.4 115.57 52.17 116.24 52.24 116.21 52.47 116.19 52.69"/><polygon points="116.42 51.37 115.57 51.28 115.59 51.05 115.62 50.83 116.47 50.92 116.45 51.14 116.42 51.37"/><polygon points="116.66 50.04 115.62 49.94 115.64 49.71 115.66 49.49 116.7 49.6 116.68 49.82 116.66 50.04"/><polygon points="116.89 48.72 115.66 48.59 115.69 48.37 115.71 48.15 116.94 48.28 116.91 48.5 116.89 48.72"/><polygon points="117.12 47.4 115.71 47.25 115.73 47.03 115.76 46.81 117.17 46.96 117.15 47.18 117.12 47.4"/><polygon points="117.36 46.08 115.76 45.91 115.78 45.69 115.8 45.47 117.4 45.63 117.38 45.86 117.36 46.08"/><polygon points="117.59 44.76 115.8 44.57 115.83 44.35 115.85 44.13 117.64 44.31 117.61 44.53 117.59 44.76"/><polygon points="117.82 43.44 115.85 43.23 115.87 43.01 115.9 42.78 117.87 42.99 117.84 43.21 117.82 43.44"/><polygon points="116.44 42.84 110.07 38.21 110.2 38.03 110.33 37.85 117.33 42.93 116.88 42.89 116.44 42.84"/><g class="cls-1"><text class="cls-2" transform="translate(102.35 38.31)">H</text><text class="cls-2" transform="translate(105.92 38.31)">O</text></g><polygon points="106.1 59.36 105.89 59.82 105.69 59.73 105.49 59.63 105.69 59.18 105.89 59.27 106.1 59.36"/><polygon points="104.91 58.7 104.61 59.38 104.41 59.29 104.2 59.2 104.5 58.52 104.71 58.61 104.91 58.7"/><polygon points="103.72 58.04 103.32 58.94 103.12 58.85 102.92 58.76 103.32 57.86 103.52 57.95 103.72 58.04"/><polygon points="102.54 57.38 102.04 58.5 101.83 58.41 101.63 58.32 102.13 57.2 102.34 57.29 102.54 57.38"/><polygon points="101.35 56.71 100.75 58.07 100.55 57.98 100.34 57.88 100.95 56.53 101.15 56.62 101.35 56.71"/><polygon points="100.17 56.05 99.47 57.63 99.26 57.54 99.06 57.45 99.76 55.87 99.97 55.96 100.17 56.05"/><polygon points="98.98 55.39 98.18 57.19 97.98 57.1 97.77 57.01 98.58 55.21 98.78 55.3 98.98 55.39"/><g class="cls-1"><text class="cls-2" transform="translate(93.89 57.05)">O</text></g><polygon points="86.72 61.37 92.85 55.96 93.44 56.77 94.03 57.59 87 61.75 86.76 61.63 86.72 61.37"/><polygon points="86.55 61.78 76.57 57.34 76.54 57.08 76.76 56.93 86.72 61.37 86.76 61.63 86.55 61.78"/><polygon points="76.57 57.34 67.73 63.76 67.49 63.65 67.47 63.39 76.29 56.98 76.54 57.08 76.57 57.34"/><polygon points="67.73 63.76 68.87 74.63 68.66 74.78 68.44 74.8 67.28 63.82 67.49 63.65 67.73 63.76"/><polygon points="68.87 74.63 78.85 79.07 78.88 79.33 78.66 79.48 68.57 74.98 68.66 74.78 68.87 74.63"/><polygon points="78.85 79.07 85.43 74.29 85.56 74.47 85.69 74.65 79.12 79.43 78.88 79.33 78.85 79.07"/><g class="cls-1"><text class="cls-2" transform="translate(86.01 74.75)">O</text></g><polygon points="87.44 70.29 86.55 61.78 86.76 61.63 87 61.75 87.89 70.24 87.67 70.27 87.44 70.29"/><polygon points="79.12 79.43 81 90.04 80.05 90.45 79.06 90.9 78.66 79.48 78.88 79.33 79.12 79.43"/><polygon points="81 90.04 73.36 95.59 73.23 95.41 73.1 95.23 79.06 90.9 80.05 90.45 81 90.04"/><g class="cls-1"><text class="cls-2" transform="translate(64.01 98.39)">H</text><text class="cls-3" transform="translate(67.57 99.15)">2</text><text class="cls-2" transform="translate(69.26 98.39)">N</text></g><polygon points="68.48 74.6 68.78 75 68.6 75.13 68.42 75.26 68.12 74.86 68.3 74.73 68.48 74.6"/><polygon points="67.36 75.26 67.8 75.86 67.62 75.99 67.44 76.13 67 75.53 67.18 75.39 67.36 75.26"/><polygon points="66.24 75.92 66.82 76.72 66.64 76.86 66.46 76.99 65.88 76.19 66.06 76.06 66.24 75.92"/><polygon points="65.12 76.59 65.85 77.58 65.67 77.72 65.49 77.85 64.76 76.85 64.94 76.72 65.12 76.59"/><polygon points="64 77.25 64.87 78.45 64.69 78.58 64.51 78.71 63.64 77.51 63.82 77.38 64 77.25"/><polygon points="62.88 77.91 63.9 79.31 63.71 79.44 63.53 79.57 62.52 78.17 62.7 78.04 62.88 77.91"/><polygon points="61.76 78.57 62.92 80.17 62.74 80.3 62.56 80.43 61.4 78.84 61.58 78.71 61.76 78.57"/><g class="cls-1"><text class="cls-2" transform="translate(57.69 83.35)">O</text></g><polygon points="49.32 77.04 49.52 76.59 49.73 76.68 49.93 76.77 49.73 77.23 49.53 77.14 49.32 77.04"/><polygon points="50.51 77.71 50.81 77.03 51.02 77.12 51.22 77.21 50.92 77.89 50.71 77.8 50.51 77.71"/><polygon points="51.7 78.37 52.1 77.47 52.3 77.56 52.51 77.65 52.1 78.55 51.9 78.46 51.7 78.37"/><polygon points="52.88 79.03 53.38 77.9 53.59 78 53.79 78.09 53.29 79.21 53.08 79.12 52.88 79.03"/><polygon points="54.07 79.69 54.67 78.34 54.87 78.43 55.08 78.52 54.47 79.88 54.27 79.78 54.07 79.69"/><polygon points="55.25 80.36 55.95 78.78 56.16 78.87 56.36 78.96 55.66 80.54 55.45 80.45 55.25 80.36"/><polygon points="56.44 81.02 57.24 79.22 57.44 79.31 57.65 79.4 56.84 81.2 56.64 81.11 56.44 81.02"/><polygon points="49.52 76.98 40.59 83.48 40.34 83.38 40.32 83.12 49.16 76.7 49.39 76.8 49.52 76.98"/><polygon points="40.12 83.53 30.03 79.03 30.13 78.83 30.33 78.68 40.32 83.12 40.34 83.38 40.12 83.53"/><polygon points="29.9 78.85 28.75 67.87 28.96 67.7 29.19 67.81 30.33 78.68 30.13 78.83 29.9 78.85"/><polygon points="28.94 67.44 37.87 60.95 38.01 61.13 38.03 61.39 29.19 67.81 28.96 67.7 28.94 67.44"/><polygon points="38.1 60.92 45.95 64.42 45.86 64.63 45.77 64.83 38.03 61.39 38.01 61.13 38.1 60.92"/><g class="cls-1"><text class="cls-2" transform="translate(46.31 67.68)">O</text></g><polygon points="48.71 68.14 49.62 76.78 49.39 76.8 49.16 76.7 48.26 68.19 48.48 68.17 48.71 68.14"/><polygon points="38.24 61.08 37.76 61.13 37.74 60.91 37.72 60.68 38.2 60.63 38.22 60.86 38.24 61.08"/><polygon points="38.2 59.74 37.53 59.81 37.51 59.58 37.48 59.36 38.15 59.29 38.17 59.51 38.2 59.74"/><polygon points="38.15 58.4 37.3 58.48 37.27 58.26 37.25 58.04 38.1 57.95 38.13 58.17 38.15 58.4"/><polygon points="38.1 57.05 37.06 57.16 37.04 56.94 37.02 56.72 38.05 56.61 38.08 56.83 38.1 57.05"/><polygon points="38.05 55.71 36.83 55.84 36.81 55.62 36.78 55.4 38.01 55.27 38.03 55.49 38.05 55.71"/><polygon points="38.01 54.37 36.6 54.52 36.57 54.3 36.55 54.07 37.96 53.93 37.98 54.15 38.01 54.37"/><polygon points="37.96 53.03 36.36 53.2 36.34 52.98 36.32 52.75 37.91 52.59 37.94 52.81 37.96 53.03"/><polygon points="37.91 51.69 36.13 51.88 36.11 51.65 36.08 51.43 37.87 51.24 37.89 51.47 37.91 51.69"/><polygon points="37.87 50.35 35.9 50.55 35.87 50.33 35.85 50.11 37.82 49.9 37.84 50.12 37.87 50.35"/><polygon points="36.39 50.05 28.89 46.71 28.98 46.51 29.07 46.3 37.28 49.96 36.84 50.01 36.39 50.05"/><g class="cls-1"><text class="cls-2" transform="translate(21.14 47.45)">H</text><text class="cls-2" transform="translate(24.7 47.45)">O</text></g><polygon points="28.75 67.87 20.69 65.13 21.1 64.21 21.51 63.29 28.94 67.44 28.96 67.7 28.75 67.87"/><g class="cls-1"><text class="cls-2" transform="translate(13.26 65.15)">H</text><text class="cls-2" transform="translate(16.82 65.15)">O</text></g><polygon points="29.95 78.65 30.24 79.05 30.06 79.18 29.88 79.31 29.59 78.91 29.77 78.78 29.95 78.65"/><polygon points="28.83 79.31 29.27 79.91 29.08 80.04 28.9 80.17 28.47 79.58 28.65 79.44 28.83 79.31"/><polygon points="27.71 79.97 28.29 80.77 28.11 80.91 27.93 81.04 27.35 80.24 27.53 80.11 27.71 79.97"/><polygon points="26.59 80.64 27.31 81.64 27.13 81.77 26.95 81.9 26.23 80.9 26.41 80.77 26.59 80.64"/><polygon points="25.47 81.3 26.34 82.5 26.16 82.63 25.97 82.76 25.1 81.56 25.29 81.43 25.47 81.3"/><polygon points="24.34 81.96 25.36 83.36 25.18 83.49 25 83.62 23.98 82.22 24.16 82.09 24.34 81.96"/><polygon points="23.22 82.63 24.38 84.22 24.2 84.35 24.02 84.48 22.86 82.89 23.04 82.76 23.22 82.63"/><g class="cls-1"><text class="cls-2" transform="translate(15.6 87.4)">H</text><text class="cls-2" transform="translate(19.16 87.4)">O</text></g><polygon points="40.59 83.48 42.25 91.91 41.25 92.02 40.25 92.12 40.12 83.53 40.34 83.38 40.59 83.48"/><g class="cls-1"><text class="cls-2" transform="translate(39.59 96.5)">O</text><text class="cls-2" transform="translate(43.43 96.5)">H</text></g><polygon points="67.28 63.82 59.23 61.08 59.64 60.16 60.05 59.24 67.47 63.39 67.49 63.65 67.28 63.82"/><g class="cls-1"><text class="cls-2" transform="translate(51.79 61.1)">H</text><text class="cls-2" transform="translate(55.35 61.1)">O</text></g><polygon points="76.29 56.98 74.63 48.55 75.63 48.44 76.63 48.34 76.76 56.93 76.54 57.08 76.29 56.98"/><g class="cls-1"><text class="cls-2" transform="translate(68.38 47.32)">H</text><text class="cls-3" transform="translate(71.95 48.08)">2</text><text class="cls-2" transform="translate(73.63 47.32)">N</text></g><polygon points="108.14 70.41 108.51 70.74 108.36 70.91 108.21 71.07 107.84 70.74 107.99 70.57 108.14 70.41"/><polygon points="107.23 71.23 107.78 71.73 107.64 71.9 107.48 72.07 106.93 71.57 107.08 71.4 107.23 71.23"/><polygon points="106.32 72.06 107.06 72.73 106.91 72.89 106.76 73.06 106.02 72.4 106.17 72.23 106.32 72.06"/><polygon points="105.41 72.89 106.33 73.72 106.18 73.89 106.03 74.05 105.11 73.22 105.26 73.06 105.41 72.89"/><polygon points="104.5 73.72 105.6 74.71 105.45 74.88 105.3 75.04 104.2 74.05 104.35 73.89 104.5 73.72"/><polygon points="103.59 74.55 104.87 75.7 104.72 75.87 104.57 76.04 103.29 74.88 103.44 74.72 103.59 74.55"/><polygon points="102.68 75.38 104.14 76.7 103.99 76.86 103.84 77.03 102.38 75.71 102.53 75.55 102.68 75.38"/><g class="cls-1"><text class="cls-2" transform="translate(95.39 80.85)">H</text><text class="cls-2" transform="translate(98.95 80.85)">O</text></g><polygon points="141.99 91.31 138.56 98.79 137.69 98.29 136.82 97.78 141.58 91.08 141.85 91.09 141.99 91.31"/><g class="cls-1"><text class="cls-2" transform="translate(130.78 102.77)">H</text><text class="cls-2" transform="translate(134.34 102.77)">O</text></g><polygon points="153.3 91.08 158.06 97.78 157.19 98.29 156.32 98.79 152.89 91.31 153.03 91.09 153.3 91.08"/><g class="cls-1"><text class="cls-2" transform="translate(156.85 102.14)">N</text><text class="cls-2" transform="translate(160.41 102.14)">H</text><text class="cls-3" transform="translate(163.97 102.9)">2</text></g></svg>