<svg id="图层_1" data-name="图层 1" xmlns="http://www.w3.org/2000/svg" viewBox="0 0 200 130"><defs><style>.cls-1,.cls-2,.cls-3{isolation:isolate;}.cls-2{font-size:4.39px;}.cls-2,.cls-3{font-family:ArialMT, Arial;}.cls-3{font-size:2.7px;}</style></defs><title>Lividomycin _Simi_compound3</title><polygon points="159.13 80.96 154.02 89.57 153.78 89.58 153.66 89.38 158.66 80.96 158.89 80.96 159.13 80.96"/><polygon points="153.65 89.78 143.69 89.78 143.56 89.58 143.67 89.38 153.66 89.38 153.78 89.58 153.65 89.78"/><polygon points="143.31 89.57 138.33 81.17 138.44 80.96 138.68 80.96 143.67 89.38 143.56 89.58 143.31 89.57"/><polygon points="138.33 80.75 143.31 72.34 143.56 72.33 143.67 72.53 138.68 80.96 138.44 80.96 138.33 80.75"/><polygon points="143.69 72.13 153.65 72.13 153.78 72.33 153.66 72.53 143.67 72.53 143.56 72.33 143.69 72.13"/><polygon points="153.65 72.13 156.78 65.47 157.58 65.92 158.38 66.37 154.02 72.34 153.78 72.33 153.65 72.13"/><g class="cls-1"><text class="cls-2" transform="translate(157.27 64.92) scale(1.03 1)">N</text><text class="cls-2" transform="translate(160.52 64.92) scale(1.03 1)">H</text><text class="cls-3" transform="translate(163.78 65.6) scale(1.03 1)">2</text></g><polygon points="154.02 72.34 159.13 80.96 158.89 80.96 158.66 80.96 153.66 72.53 153.78 72.33 154.02 72.34"/><polygon points="143.31 72.34 138.96 66.37 139.75 65.92 140.55 65.47 143.69 72.13 143.56 72.33 143.31 72.34"/><g class="cls-1"><text class="cls-2" transform="translate(136.69 65.49) scale(1.03 1)">O</text></g><polygon points="143.69 55.28 140.55 61.94 139.75 61.49 138.96 61.04 143.31 55.07 143.56 55.08 143.69 55.28"/><polygon points="143.31 55.07 138.33 46.67 138.44 46.46 138.68 46.46 143.67 54.88 143.56 55.08 143.31 55.07"/><polygon points="138.33 46.25 143.44 37.63 143.56 37.83 143.67 38.03 138.68 46.46 138.44 46.46 138.33 46.25"/><polygon points="143.44 37.63 153.78 37.63 153.78 37.83 153.66 38.03 143.67 38.03 143.56 37.83 143.44 37.63"/><polygon points="153.96 37.73 159.01 46.25 158.89 46.46 158.66 46.46 153.66 38.03 153.78 37.83 153.96 37.73"/><polygon points="159.01 46.66 155.27 52.97 155.09 52.87 154.92 52.77 158.66 46.46 158.89 46.46 159.01 46.66"/><g class="cls-1"><text class="cls-2" transform="translate(152.03 56.86) scale(1.03 1)">O</text></g><polygon points="151.62 55.28 143.69 55.28 143.56 55.08 143.67 54.88 151.62 54.88 151.62 55.08 151.62 55.28"/><polygon points="159.01 46.25 169.43 45.54 169.12 46.46 168.84 47.34 159.01 46.66 158.89 46.46 159.01 46.25"/><polygon points="169.43 45.54 172.74 39.95 172.92 40.05 173.09 40.15 168.84 47.34 169.12 46.46 169.43 45.54"/><g class="cls-1"><text class="cls-2" transform="translate(172.48 39.61) scale(1.03 1)">O</text><text class="cls-2" transform="translate(175.98 39.61) scale(1.03 1)">H</text></g><polygon points="153.99 37.92 153.6 37.7 153.7 37.52 153.81 37.35 154.2 37.57 154.09 37.74 153.99 37.92"/><polygon points="154.69 36.97 154.1 36.63 154.2 36.46 154.3 36.29 154.89 36.62 154.79 36.79 154.69 36.97"/><polygon points="155.38 36.01 154.6 35.57 154.7 35.4 154.8 35.23 155.59 35.67 155.48 35.84 155.38 36.01"/><polygon points="156.07 35.06 155.1 34.51 155.2 34.34 155.3 34.17 156.28 34.72 156.18 34.89 156.07 35.06"/><polygon points="156.77 34.11 155.6 33.45 155.7 33.28 155.8 33.11 156.97 33.77 156.87 33.94 156.77 34.11"/><polygon points="157.46 33.16 156.1 32.39 156.2 32.22 156.3 32.05 157.67 32.81 157.56 32.99 157.46 33.16"/><polygon points="158.16 32.21 156.59 31.33 156.7 31.16 156.8 30.98 158.36 31.86 158.26 32.03 158.16 32.21"/><g class="cls-1"><text class="cls-2" transform="translate(157.14 30.99) scale(1.03 1)">O</text><text class="cls-2" transform="translate(160.65 30.99) scale(1.03 1)">H</text></g><polygon points="138.33 46.67 130.25 47.35 130.25 46.46 130.25 45.56 138.33 46.25 138.44 46.46 138.33 46.67"/><g class="cls-1"><text class="cls-2" transform="translate(121.83 47.67) scale(1.03 1)">H</text><text class="cls-3" transform="translate(125.09 48.35) scale(1.03 1)">2</text><text class="cls-2" transform="translate(126.63 47.67) scale(1.03 1)">N</text></g><polygon points="138.33 81.17 130.38 81.85 130.38 80.96 130.38 80.06 138.33 80.75 138.44 80.96 138.33 81.17"/><g class="cls-1"><text class="cls-2" transform="translate(126.46 82.74) scale(1.03 1)">O</text></g><polygon points="122.92 72.47 123.32 72.25 123.42 72.42 123.52 72.59 123.13 72.81 123.03 72.64 122.92 72.47"/><polygon points="123.42 73.53 124.01 73.2 124.11 73.37 124.22 73.55 123.63 73.88 123.53 73.7 123.42 73.53"/><polygon points="123.92 74.59 124.7 74.15 124.81 74.32 124.91 74.5 124.13 74.94 124.03 74.76 123.92 74.59"/><polygon points="124.42 75.65 125.4 75.1 125.5 75.28 125.6 75.45 124.63 76 124.52 75.83 124.42 75.65"/><polygon points="124.92 76.71 126.09 76.06 126.19 76.23 126.3 76.4 125.13 77.06 125.02 76.89 124.92 76.71"/><polygon points="125.42 77.77 126.79 77.01 126.89 77.18 126.99 77.35 125.63 78.12 125.52 77.95 125.42 77.77"/><polygon points="125.92 78.83 127.48 77.96 127.58 78.13 127.69 78.3 126.12 79.18 126.02 79.01 125.92 78.83"/><polygon points="123.08 72.53 112.91 71.49 112.94 71.29 113.11 71.11 122.98 72.12 123.1 72.33 123.08 72.53"/><polygon points="112.73 71.33 110.61 61.59 110.81 61.55 111.04 61.65 113.11 71.11 112.94 71.29 112.73 71.33"/><polygon points="110.71 61.38 119.56 56.4 119.66 56.57 119.64 56.81 111.04 61.65 110.81 61.55 110.71 61.38"/><polygon points="119.8 56.42 125.24 61.19 125.1 61.34 124.96 61.48 119.64 56.81 119.66 56.57 119.8 56.42"/><g class="cls-1"><text class="cls-2" transform="translate(125.51 65.01) scale(1.03 1)">O</text></g><polygon points="126.44 65.53 123.29 72.41 123.1 72.33 122.98 72.12 126.06 65.37 126.25 65.45 126.44 65.53"/><polygon points="119.89 56.57 119.45 56.52 119.47 56.33 119.49 56.13 119.93 56.17 119.91 56.37 119.89 56.57"/><polygon points="120.1 55.39 119.49 55.33 119.51 55.13 119.53 54.93 120.14 55 120.12 55.19 120.1 55.39"/><polygon points="120.31 54.22 119.53 54.14 119.55 53.94 119.58 53.74 120.36 53.82 120.33 54.02 120.31 54.22"/><polygon points="120.53 53.04 119.58 52.94 119.6 52.74 119.62 52.55 120.57 52.64 120.55 52.84 120.53 53.04"/><polygon points="120.74 51.86 119.62 51.75 119.64 51.55 119.66 51.35 120.78 51.47 120.76 51.66 120.74 51.86"/><polygon points="120.95 50.69 119.66 50.55 119.68 50.35 119.7 50.16 121 50.29 120.97 50.49 120.95 50.69"/><polygon points="121.17 49.51 119.7 49.36 119.72 49.16 119.75 48.96 121.21 49.11 121.19 49.31 121.17 49.51"/><polygon points="121.38 48.33 119.75 48.16 119.77 47.97 119.79 47.77 121.42 47.94 121.4 48.13 121.38 48.33"/><polygon points="121.59 47.15 119.79 46.97 119.81 46.77 119.83 46.57 121.63 46.76 121.61 46.96 121.59 47.15"/><polygon points="120.33 46.62 114.5 42.5 114.62 42.34 114.74 42.18 121.14 46.71 120.73 46.67 120.33 46.62"/><g class="cls-1"><text class="cls-2" transform="translate(107.45 42.59) scale(1.03 1)">H</text><text class="cls-2" transform="translate(110.71 42.59) scale(1.03 1)">O</text></g><polygon points="110.87 61.34 110.69 61.74 110.5 61.66 110.31 61.58 110.5 61.17 110.69 61.26 110.87 61.34"/><polygon points="109.79 60.75 109.51 61.35 109.33 61.27 109.14 61.19 109.42 60.58 109.6 60.66 109.79 60.75"/><polygon points="108.7 60.16 108.34 60.96 108.15 60.88 107.96 60.8 108.33 59.99 108.52 60.08 108.7 60.16"/><polygon points="107.62 59.57 107.16 60.57 106.98 60.49 106.79 60.41 107.25 59.4 107.43 59.48 107.62 59.57"/><polygon points="106.54 58.98 105.99 60.18 105.8 60.1 105.61 60.02 106.16 58.81 106.35 58.9 106.54 58.98"/><polygon points="105.45 58.39 104.81 59.79 104.63 59.71 104.44 59.63 105.08 58.23 105.27 58.31 105.45 58.39"/><polygon points="104.37 57.8 103.64 59.4 103.45 59.32 103.26 59.24 104 57.63 104.18 57.72 104.37 57.8"/><g class="cls-1"><text class="cls-2" transform="translate(99.71 59.28) scale(1.03 1)">O</text></g><polygon points="93.16 63.12 98.76 58.3 99.3 59.03 99.84 59.76 93.41 63.46 93.19 63.35 93.16 63.12"/><polygon points="93 63.49 83.88 59.53 83.85 59.3 84.06 59.17 93.16 63.12 93.19 63.35 93 63.49"/><polygon points="83.88 59.53 75.8 65.25 75.58 65.16 75.57 64.92 83.63 59.22 83.85 59.3 83.88 59.53"/><polygon points="75.8 65.25 76.84 74.92 76.65 75.06 76.45 75.08 75.39 65.3 75.58 65.16 75.8 65.25"/><polygon points="76.84 74.92 85.97 78.88 85.99 79.11 85.79 79.24 76.57 75.24 76.65 75.06 76.84 74.92"/><polygon points="85.97 78.88 91.98 74.63 92.1 74.79 92.22 74.95 86.22 79.2 85.99 79.11 85.97 78.88"/><g class="cls-1"><text class="cls-2" transform="translate(92.51 75.04) scale(1.03 1)">O</text></g><polygon points="93.82 71.06 93 63.49 93.19 63.35 93.41 63.46 94.23 71.02 94.03 71.04 93.82 71.06"/><polygon points="86.22 79.2 87.93 88.65 87.06 89.02 86.16 89.41 85.79 79.24 85.99 79.11 86.22 79.2"/><polygon points="87.93 88.65 80.94 93.59 80.83 93.43 80.7 93.27 86.16 89.41 87.06 89.02 87.93 88.65"/><g class="cls-1"><text class="cls-2" transform="translate(72.4 96.08) scale(1.03 1)">H</text><text class="cls-3" transform="translate(75.66 96.76) scale(1.03 1)">2</text><text class="cls-2" transform="translate(77.2 96.08) scale(1.03 1)">N</text></g><polygon points="76.49 74.9 76.76 75.26 76.59 75.38 76.43 75.49 76.16 75.13 76.32 75.02 76.49 74.9"/><polygon points="75.47 75.49 75.86 76.02 75.7 76.14 75.53 76.26 75.13 75.72 75.3 75.61 75.47 75.49"/><polygon points="74.44 76.08 74.97 76.79 74.81 76.91 74.64 77.03 74.11 76.31 74.28 76.2 74.44 76.08"/><polygon points="73.42 76.67 74.08 77.56 73.91 77.67 73.75 77.79 73.08 76.9 73.25 76.79 73.42 76.67"/><polygon points="72.39 77.26 73.19 78.33 73.02 78.44 72.86 78.56 72.06 77.49 72.22 77.38 72.39 77.26"/><polygon points="71.37 77.85 72.29 79.09 72.13 79.21 71.96 79.33 71.03 78.08 71.2 77.97 71.37 77.85"/><polygon points="70.34 78.44 71.4 79.86 71.23 79.98 71.07 80.09 70.01 78.67 70.18 78.56 70.34 78.44"/><g class="cls-1"><text class="cls-2" transform="translate(66.62 82.69) scale(1.03 1)">O</text></g><polygon points="58.97 77.08 59.16 76.67 59.34 76.75 59.53 76.84 59.35 77.24 59.16 77.16 58.97 77.08"/><polygon points="60.06 77.67 60.33 77.06 60.52 77.14 60.71 77.23 60.43 77.83 60.24 77.75 60.06 77.67"/><polygon points="61.14 78.26 61.51 77.45 61.69 77.53 61.88 77.61 61.51 78.42 61.33 78.34 61.14 78.26"/><polygon points="62.22 78.85 62.68 77.84 62.87 77.92 63.06 78 62.6 79.01 62.41 78.93 62.22 78.85"/><polygon points="63.31 79.44 63.86 78.23 64.05 78.31 64.23 78.39 63.68 79.6 63.49 79.52 63.31 79.44"/><polygon points="64.39 80.03 65.03 78.62 65.22 78.7 65.41 78.78 64.77 80.19 64.58 80.11 64.39 80.03"/><polygon points="65.47 80.61 66.21 79.01 66.4 79.09 66.58 79.17 65.85 80.78 65.66 80.7 65.47 80.61"/><polygon points="59.16 77.02 50.99 82.8 50.76 82.72 50.74 82.49 58.82 76.77 59.04 76.86 59.16 77.02"/><polygon points="50.56 82.85 41.34 78.85 41.42 78.67 41.61 78.53 50.74 82.49 50.76 82.72 50.56 82.85"/><polygon points="41.22 78.69 40.16 68.91 40.35 68.76 40.57 68.86 41.61 78.53 41.42 78.67 41.22 78.69"/><polygon points="40.34 68.53 48.51 62.75 48.63 62.91 48.65 63.14 40.57 68.86 40.35 68.76 40.34 68.53"/><polygon points="48.71 62.73 55.89 65.84 55.8 66.02 55.72 66.2 48.65 63.14 48.63 62.91 48.71 62.73"/><g class="cls-1"><text class="cls-2" transform="translate(56.21 68.74) scale(1.03 1)">O</text></g><polygon points="58.41 69.15 59.24 76.84 59.04 76.86 58.82 76.77 58 69.19 58.21 69.17 58.41 69.15"/><polygon points="48.84 62.86 48.4 62.91 48.38 62.71 48.36 62.51 48.8 62.47 48.82 62.66 48.84 62.86"/><polygon points="48.8 61.67 48.19 61.73 48.17 61.53 48.15 61.33 48.76 61.27 48.78 61.47 48.8 61.67"/><polygon points="48.76 60.47 47.98 60.55 47.96 60.35 47.94 60.16 48.72 60.08 48.74 60.27 48.76 60.47"/><polygon points="48.72 59.28 47.77 59.38 47.74 59.18 47.72 58.98 48.67 58.88 48.69 59.08 48.72 59.28"/><polygon points="48.67 58.09 47.55 58.2 47.53 58 47.51 57.8 48.63 57.69 48.65 57.89 48.67 58.09"/><polygon points="48.63 56.89 47.34 57.02 47.32 56.83 47.3 56.63 48.59 56.49 48.61 56.69 48.63 56.89"/><polygon points="48.59 55.7 47.13 55.85 47.1 55.65 47.08 55.45 48.54 55.3 48.56 55.5 48.59 55.7"/><polygon points="48.54 54.5 46.91 54.67 46.89 54.47 46.87 54.27 48.5 54.11 48.52 54.3 48.54 54.5"/><polygon points="48.5 53.31 46.7 53.49 46.68 53.29 46.66 53.1 48.46 52.91 48.48 53.11 48.5 53.31"/><polygon points="47.15 53.05 40.3 50.07 40.38 49.89 40.46 49.71 47.96 52.96 47.56 53 47.15 53.05"/><g class="cls-1"><text class="cls-2" transform="translate(33.21 50.73) scale(1.03 1)">H</text><text class="cls-2" transform="translate(36.46 50.73) scale(1.03 1)">O</text></g><polygon points="40.16 68.91 32.8 66.47 33.17 65.65 33.55 64.83 40.34 68.53 40.35 68.76 40.16 68.91"/><g class="cls-1"><text class="cls-2" transform="translate(26 66.49) scale(1.03 1)">H</text><text class="cls-2" transform="translate(29.26 66.49) scale(1.03 1)">O</text></g><polygon points="41.26 78.5 41.53 78.86 41.36 78.98 41.2 79.1 40.93 78.74 41.1 78.62 41.26 78.5"/><polygon points="40.24 79.09 40.64 79.63 40.47 79.75 40.31 79.86 39.91 79.33 40.07 79.21 40.24 79.09"/><polygon points="39.21 79.69 39.74 80.4 39.58 80.51 39.41 80.63 38.88 79.92 39.05 79.8 39.21 79.69"/><polygon points="38.19 80.28 38.85 81.16 38.69 81.28 38.52 81.4 37.86 80.51 38.02 80.39 38.19 80.28"/><polygon points="37.16 80.86 37.96 81.93 37.79 82.05 37.63 82.17 36.83 81.1 37 80.98 37.16 80.86"/><polygon points="36.14 81.45 37.07 82.7 36.9 82.81 36.73 82.93 35.81 81.69 35.97 81.57 36.14 81.45"/><polygon points="35.11 82.05 36.17 83.47 36.01 83.58 35.84 83.7 34.78 82.28 34.95 82.16 35.11 82.05"/><g class="cls-1"><text class="cls-2" transform="translate(28.14 86.3) scale(1.03 1)">H</text><text class="cls-2" transform="translate(31.4 86.3) scale(1.03 1)">O</text></g><polygon points="50.99 82.8 52.51 90.31 51.59 90.41 50.68 90.5 50.56 82.85 50.76 82.72 50.99 82.8"/><g class="cls-1"><text class="cls-2" transform="translate(50.08 94.4) scale(1.03 1)">O</text><text class="cls-2" transform="translate(53.59 94.4) scale(1.03 1)">H</text></g><polygon points="75.39 65.3 68.03 62.86 68.4 62.04 68.78 61.22 75.57 64.92 75.58 65.16 75.39 65.3"/><g class="cls-1"><text class="cls-2" transform="translate(61.23 62.88) scale(1.03 1)">H</text><text class="cls-2" transform="translate(64.49 62.88) scale(1.03 1)">O</text></g><polygon points="83.63 59.22 82.11 51.71 83.02 51.61 83.94 51.52 84.06 59.17 83.85 59.3 83.63 59.22"/><g class="cls-1"><text class="cls-2" transform="translate(76.4 50.61) scale(1.03 1)">H</text><text class="cls-3" transform="translate(79.65 51.29) scale(1.03 1)">2</text><text class="cls-2" transform="translate(81.2 50.61) scale(1.03 1)">N</text></g><polygon points="112.74 71.17 113.08 71.47 112.94 71.61 112.81 71.76 112.47 71.46 112.61 71.31 112.74 71.17"/><polygon points="111.91 71.91 112.42 72.35 112.28 72.5 112.14 72.64 111.64 72.2 111.77 72.05 111.91 71.91"/><polygon points="111.08 72.64 111.75 73.23 111.61 73.38 111.47 73.53 110.8 72.94 110.94 72.79 111.08 72.64"/><polygon points="110.24 73.38 111.08 74.12 110.95 74.26 110.81 74.41 109.97 73.68 110.11 73.53 110.24 73.38"/><polygon points="109.41 74.12 110.42 75 110.28 75.15 110.14 75.3 109.14 74.42 109.27 74.27 109.41 74.12"/><polygon points="108.58 74.86 109.75 75.88 109.61 76.03 109.48 76.18 108.31 75.15 108.44 75 108.58 74.86"/><polygon points="107.75 75.59 109.08 76.77 108.95 76.92 108.81 77.06 107.47 75.89 107.61 75.74 107.75 75.59"/><g class="cls-1"><text class="cls-2" transform="translate(101.08 80.47) scale(1.03 1)">H</text><text class="cls-2" transform="translate(104.34 80.47) scale(1.03 1)">O</text></g><polygon points="143.69 89.78 140.55 96.44 139.75 95.99 138.96 95.54 143.31 89.57 143.56 89.58 143.69 89.78"/><g class="cls-1"><text class="cls-2" transform="translate(133.43 99.98) scale(1.03 1)">H</text><text class="cls-2" transform="translate(136.69 99.98) scale(1.03 1)">O</text></g><polygon points="154.02 89.57 158.38 95.54 157.58 95.99 156.78 96.44 153.65 89.78 153.78 89.58 154.02 89.57"/><g class="cls-1"><text class="cls-2" transform="translate(157.27 99.42) scale(1.03 1)">N</text><text class="cls-2" transform="translate(160.52 99.42) scale(1.03 1)">H</text><text class="cls-3" transform="translate(163.78 100.09) scale(1.03 1)">2</text></g></svg>