<svg id="图层_1" data-name="图层 1" xmlns="http://www.w3.org/2000/svg" viewBox="0 0 200 130"><defs><style>.cls-1,.cls-2{isolation:isolate;}.cls-2{font-size:8.85px;font-family:ArialMT, Arial;}.cls-3{fill:none;stroke:#000;stroke-miterlimit:3.86;stroke-width:0.91px;}</style></defs><polygon points="13.79 35.29 27.13 27.5 27.33 27.85 27.53 28.2 14.2 35.98 13.99 35.63 13.79 35.29"/><g class="cls-1"><text class="cls-2" transform="translate(28.13 29.1)">N</text></g><polygon points="30.9 21.06 30.83 5.45 31.23 5.45 31.63 5.45 31.71 21.05 31.31 21.05 30.9 21.06"/><polygon points="35.52 27.45 48.75 35.01 48.75 35.47 48.35 35.7 35.13 28.15 35.32 27.8 35.52 27.45"/><polygon points="48.75 35.01 66.08 24.89 66.09 25.36 66.09 25.82 49.16 35.7 48.75 35.47 48.75 35.01"/><polygon points="50.97 36.5 65.9 27.79 66.1 28.14 66.3 28.48 51.37 37.2 51.17 36.85 50.97 36.5"/><polygon points="66.08 24.89 83.51 34.85 83.51 35.31 83.11 35.54 66.09 25.82 66.09 25.36 66.08 24.89"/><polygon points="83.92 35.54 84.01 55.14 83.61 55.38 83.2 55.15 83.11 35.54 83.51 35.31 83.92 35.54"/><polygon points="81.51 36.71 81.59 54 81.19 54 80.79 54 80.71 36.71 81.11 36.71 81.51 36.71"/><polygon points="83.61 55.84 66.28 65.96 66.27 65.49 66.27 65.03 83.2 55.15 83.61 55.38 83.61 55.84"/><polygon points="66.28 65.96 48.45 55.77 48.85 55.54 49.25 55.31 66.27 65.03 66.27 65.49 66.28 65.96"/><polygon points="66.06 63.06 51.05 54.49 51.25 54.14 51.45 53.79 66.46 62.36 66.26 62.71 66.06 63.06"/><polygon points="48.45 55.77 48.35 35.7 48.75 35.47 49.16 35.7 49.25 55.31 48.85 55.54 48.45 55.77"/><polygon points="84.01 55.14 101.03 64.87 101.03 65.33 100.63 65.56 83.61 55.84 83.61 55.38 84.01 55.14"/><polygon points="101.03 64.87 117.96 54.99 118.37 55.22 118.37 55.68 101.44 65.56 101.03 65.33 101.03 64.87"/><polygon points="103.25 66.36 118.18 57.65 118.38 58 118.58 58.34 103.65 67.06 103.45 66.71 103.25 66.36"/><polygon points="118.77 54.98 135.79 64.71 135.79 65.17 135.79 65.63 118.37 55.68 118.37 55.22 118.77 54.98"/><polygon points="135.58 62.04 150.51 53.33 150.71 53.67 150.91 54.02 135.98 62.73 135.78 62.39 135.58 62.04"/><polygon points="135.79 64.71 152.72 54.82 153.13 55.05 153.53 55.28 135.79 65.63 135.79 65.17 135.79 64.71"/><polygon points="152.72 54.82 152.63 35.22 153.03 34.99 153.43 35.22 153.53 55.28 153.13 55.05 152.72 54.82"/><polygon points="153.03 34.52 166.16 26.86 166.37 27.2 166.57 27.55 153.43 35.22 153.03 34.99 153.03 34.52"/><polygon points="155.24 36.02 167.38 28.94 167.58 29.28 167.78 29.63 155.65 36.71 155.45 36.37 155.24 36.02"/><g class="cls-1"><text class="cls-2" transform="translate(167.17 28.45)">N</text></g><polygon points="174.56 26.81 187.99 34.48 187.79 34.82 187.59 35.17 174.16 27.5 174.36 27.15 174.56 26.81"/><polygon points="169.94 20.41 169.87 4.8 170.27 4.8 170.67 4.8 170.75 20.41 170.34 20.41 169.94 20.41"/><line class="cls-3" x1="173.31" y1="20.25" x2="176.66" y2="20.25"/><line class="cls-3" x1="174.98" y1="18.58" x2="174.98" y2="21.92"/><polygon points="152.63 35.22 135.61 25.5 135.6 25.03 135.6 24.57 153.03 34.52 153.03 34.99 152.63 35.22"/><polygon points="135.82 28.16 120.89 36.87 120.69 36.53 120.48 36.18 135.42 27.47 135.62 27.81 135.82 28.16"/><polygon points="135.61 25.5 118.67 35.38 118.27 35.15 118.27 34.68 135.6 24.57 135.6 25.03 135.61 25.5"/><polygon points="117.87 35.38 104.89 27.97 105.09 27.62 105.29 27.27 118.27 34.68 118.27 35.15 117.87 35.38"/><g class="cls-1"><text class="cls-2" transform="translate(97.4 28.78)">O</text></g><polygon points="96.8 28.02 83.92 35.54 83.51 35.31 83.51 34.85 96.4 27.32 96.6 27.67 96.8 28.02"/><polygon points="118.67 35.38 118.77 54.98 118.37 55.22 117.96 54.99 117.87 35.38 118.27 35.15 118.67 35.38"/><polygon points="101.44 65.56 101.53 85.17 101.13 85.4 100.72 85.17 100.63 65.56 101.03 65.33 101.44 65.56"/><polygon points="101.34 88.53 86.41 97.24 86.21 96.89 86 96.55 100.94 87.83 101.14 88.18 101.34 88.53"/><polygon points="101.13 85.86 84.19 95.75 83.79 95.51 83.39 95.28 100.72 85.17 101.13 85.4 101.13 85.86"/><polygon points="84.19 95.75 84.29 115.35 83.89 115.58 83.49 115.82 83.39 95.28 83.79 95.51 84.19 95.75"/><polygon points="86.49 113.83 101.5 122.41 101.3 122.76 101.1 123.1 86.09 114.53 86.29 114.18 86.49 113.83"/><polygon points="84.29 115.35 101.31 125.07 101.31 125.54 101.31 126 83.49 115.82 83.89 115.58 84.29 115.35"/><polygon points="101.31 125.07 118.24 115.19 118.64 115.42 119.05 115.65 101.31 126 101.31 125.54 101.31 125.07"/><polygon points="115.83 114.04 115.75 96.76 116.15 96.75 116.55 96.75 116.63 114.04 116.23 114.04 115.83 114.04"/><polygon points="118.24 115.19 118.15 95.59 118.55 95.35 118.95 95.12 119.05 115.65 118.64 115.42 118.24 115.19"/><polygon points="118.15 95.59 101.13 85.86 101.13 85.4 101.53 85.17 118.95 95.12 118.55 95.35 118.15 95.59"/></svg>