<svg id="图层_1" data-name="图层 1" xmlns="http://www.w3.org/2000/svg" viewBox="0 0 200 130"><defs><style>.cls-1,.cls-2{isolation:isolate;}.cls-2{font-size:7.06px;font-family:ArialMT, Arial;}.cls-3{fill:none;stroke:#000;stroke-miterlimit:3.88;stroke-width:0.92px;}</style></defs><polygon points="47.19 5.2 47.12 17.65 46.8 17.65 46.48 17.64 46.55 5.19 46.87 5.19 47.19 5.2"/><g class="cls-1"><text class="cls-2" transform="translate(44.23 24.07)">N</text></g><polygon points="43.75 23.31 33.03 29.42 32.87 29.14 32.71 28.86 43.44 22.75 43.59 23.03 43.75 23.31"/><polygon points="50.14 22.8 60.61 28.92 60.61 29.29 60.29 29.47 49.81 23.35 49.97 23.07 50.14 22.8"/><polygon points="60.61 28.92 74.52 20.98 74.52 21.36 74.52 21.72 60.93 29.48 60.61 29.29 60.61 28.92"/><polygon points="62.37 30.13 74.35 23.3 74.51 23.57 74.67 23.85 62.69 30.69 62.53 30.41 62.37 30.13"/><polygon points="74.52 20.98 88.67 29.25 88.35 29.43 88.03 29.62 74.52 21.72 74.52 21.36 74.52 20.98"/><polygon points="88.67 29.25 88.58 45.27 88.26 45.45 87.94 45.26 88.03 29.62 88.35 29.43 88.67 29.25"/><polygon points="86.74 30.54 86.67 44.33 86.35 44.33 86.03 44.33 86.1 30.53 86.42 30.53 86.74 30.54"/><polygon points="88.58 45.27 102.09 53.16 102.09 53.53 101.77 53.71 88.26 45.82 88.26 45.45 88.58 45.27"/><polygon points="102.09 53.16 115.68 45.41 116 45.6 116 45.97 102.41 53.72 102.09 53.53 102.09 53.16"/><polygon points="103.85 54.37 115.83 47.54 115.99 47.81 116.15 48.09 104.17 54.93 104.01 54.65 103.85 54.37"/><polygon points="116.32 45.41 129.83 53.31 129.83 53.68 129.83 54.05 116 45.97 116 45.6 116.32 45.41"/><polygon points="129.68 51.18 141.66 44.34 141.82 44.62 141.98 44.9 130 51.74 129.84 51.46 129.68 51.18"/><polygon points="129.83 53.31 143.42 45.56 143.74 45.74 144.06 45.93 129.83 54.05 129.83 53.68 129.83 53.31"/><polygon points="143.42 45.56 143.5 29.91 143.82 29.73 144.14 29.91 144.06 45.93 143.74 45.74 143.42 45.56"/><polygon points="143.83 29.36 154.39 23.34 154.55 23.61 154.7 23.89 144.14 29.91 143.82 29.73 143.83 29.36"/><polygon points="145.58 30.57 155.34 25 155.5 25.28 155.66 25.56 145.9 31.13 145.74 30.85 145.58 30.57"/><g class="cls-1"><text class="cls-2" transform="translate(155.19 24.65)">N</text></g><polygon points="161.09 23.38 171.72 29.6 171.56 29.88 171.4 30.15 160.76 23.93 160.93 23.66 161.09 23.38"/><polygon points="157.43 18.23 157.5 5.78 157.82 5.78 158.14 5.78 158.07 18.23 157.75 18.23 157.43 18.23"/><line class="cls-3" x1="160.09" y1="18.11" x2="162.76" y2="18.11"/><line class="cls-3" x1="161.42" y1="16.77" x2="161.42" y2="19.44"/><polygon points="143.5 29.91 130 22.02 130 21.65 130 21.28 143.83 29.36 143.82 29.73 143.5 29.91"/><polygon points="130.15 24.14 118.16 30.98 118 30.7 117.84 30.42 129.83 23.59 129.99 23.87 130.15 24.14"/><polygon points="130 22.02 116.41 29.77 116.09 29.58 115.77 29.39 130 21.28 130 21.65 130 22.02"/><polygon points="116.41 29.77 116.32 45.41 116 45.6 115.68 45.41 115.77 29.39 116.09 29.58 116.41 29.77"/><polygon points="102.41 53.72 102.33 69.36 102.01 69.55 101.69 69.36 101.77 53.71 102.09 53.53 102.41 53.72"/><polygon points="102.15 72.04 90.17 78.88 90.01 78.6 89.85 78.32 101.84 71.48 101.99 71.76 102.15 72.04"/><polygon points="102 69.92 88.41 77.67 88.09 77.48 87.78 77.29 101.69 69.36 102.01 69.55 102 69.92"/><polygon points="88.41 77.67 88.33 93.31 88.01 93.49 87.69 93.68 87.78 77.29 88.09 77.48 88.41 77.67"/><polygon points="90.1 92.12 102.01 99.08 101.85 99.35 101.69 99.63 89.78 92.67 89.94 92.39 90.1 92.12"/><polygon points="88.33 93.31 101.84 101.2 101.84 101.57 101.52 101.76 87.69 93.68 88.01 93.49 88.33 93.31"/><polygon points="102.16 101.76 102.09 114.03 101.77 114.03 101.45 114.03 101.52 101.76 101.84 101.57 102.16 101.76"/><g class="cls-1"><text class="cls-2" transform="translate(99.2 120.45)">N</text></g><polygon points="98.72 119.69 88 125.8 87.84 125.52 87.68 125.24 98.4 119.13 98.56 119.41 98.72 119.69"/><polygon points="105.1 119.18 115.74 125.39 115.58 125.67 115.42 125.94 104.78 119.73 104.94 119.45 105.1 119.18"/><polygon points="101.84 101.2 115.43 93.45 115.75 93.64 116.07 93.83 102.16 101.76 101.84 101.57 101.84 101.2"/><polygon points="113.51 92.52 113.58 78.72 113.91 78.72 114.22 78.73 114.15 92.52 113.83 92.52 113.51 92.52"/><polygon points="115.43 93.45 115.51 77.81 115.83 77.63 116.15 77.44 116.07 93.83 115.75 93.64 115.43 93.45"/><polygon points="115.51 77.81 102 69.91 102.01 69.55 102.33 69.36 116.15 77.44 115.83 77.63 115.51 77.81"/><polygon points="88.26 45.82 74.35 53.75 74.35 53.38 74.36 53.01 87.94 45.26 88.26 45.45 88.26 45.82"/><polygon points="74.35 53.75 60.2 45.49 60.53 45.3 60.85 45.12 74.36 53.01 74.35 53.38 74.35 53.75"/><polygon points="74.2 51.44 62.29 44.48 62.45 44.2 62.62 43.93 74.53 50.89 74.36 51.16 74.2 51.44"/><polygon points="60.2 45.49 60.29 29.47 60.61 29.29 60.93 29.48 60.85 45.12 60.53 45.3 60.2 45.49"/></svg>