<svg id="图层_1" data-name="图层 1" xmlns="http://www.w3.org/2000/svg" viewBox="0 0 200 130"><defs><style>.cls-1{isolation:isolate;font-size:8.58px;font-family:ArialMT, Arial;}.cls-2{fill:none;stroke:#000;stroke-miterlimit:3.86;stroke-width:0.91px;}</style></defs><polygon points="167.05 93.57 154.4 101.03 154.2 100.69 154 100.36 166.65 92.9 166.85 93.23 167.05 93.57"/><text class="cls-1" transform="translate(146.75 106.59)">O</text><polygon points="145.78 101.13 133.04 93.93 133.14 93.54 133.24 93.15 146.16 100.45 145.97 100.79 145.78 101.13"/><polygon points="131.55 93.5 135.13 78.58 135.5 78.67 135.88 78.76 132.31 93.68 131.93 93.59 131.55 93.5"/><polygon points="133.82 94.05 137.4 79.12 137.78 79.22 138.15 79.31 134.58 94.23 134.2 94.14 133.82 94.05"/><text class="cls-1" transform="translate(134.34 78.09)">O</text><polygon points="133.04 93.93 116.77 94.56 116.37 94.18 116.47 93.79 133.24 93.15 133.14 93.54 133.04 93.93"/><polygon points="116.77 94.56 116.94 113.87 116.55 113.64 116.16 113.42 115.99 94.41 116.37 94.18 116.77 94.56"/><polygon points="114.44 95.55 114.59 112.31 114.2 112.32 113.81 112.32 113.66 95.56 114.05 95.55 114.44 95.55"/><polygon points="116.94 113.87 99.79 123.98 99.79 123.53 99.78 123.08 116.16 113.42 116.55 113.64 116.94 113.87"/><polygon points="99.79 123.98 82.46 114.18 82.84 113.95 83.23 113.72 99.78 123.08 99.79 123.53 99.79 123.98"/><polygon points="99.57 121.17 84.97 112.92 85.17 112.58 85.36 112.24 99.95 120.49 99.76 120.83 99.57 121.17"/><polygon points="82.46 114.18 82.27 94.27 82.67 94.49 83.06 94.71 83.23 113.72 82.84 113.95 82.46 114.18"/><polygon points="82.27 94.27 99.04 84.39 99.43 84.61 99.44 85.06 83.06 94.71 82.67 94.49 82.27 94.27"/><polygon points="84.81 95.48 99.26 86.97 99.45 87.3 99.65 87.64 85.21 96.15 85.01 95.82 84.81 95.48"/><polygon points="99.04 84.39 98.87 65.37 99.25 65.14 99.64 65.36 99.82 84.38 99.43 84.61 99.04 84.39"/><polygon points="99.25 64.69 115.63 55.04 116.02 55.26 116.02 55.71 99.64 65.36 99.25 65.14 99.25 64.69"/><polygon points="101.4 66.14 115.85 57.62 116.04 57.96 116.24 58.29 101.8 66.81 101.6 66.47 101.4 66.14"/><polygon points="116.41 55.03 132.96 64.39 132.96 64.84 132.97 65.28 116.02 55.71 116.02 55.26 116.41 55.03"/><polygon points="132.74 61.8 147.18 53.29 147.38 53.62 147.58 53.96 133.13 62.48 132.94 62.14 132.74 61.8"/><polygon points="132.96 64.39 149.34 54.73 149.73 54.95 150.12 55.17 132.97 65.28 132.96 64.84 132.96 64.39"/><polygon points="149.34 54.73 149.16 35.72 149.55 35.49 149.94 35.71 150.12 55.17 149.73 54.95 149.34 54.73"/><polygon points="149.55 35.04 162.24 27.55 162.44 27.89 162.64 28.23 149.94 35.71 149.55 35.49 149.55 35.04"/><polygon points="151.7 36.48 163.43 29.57 163.63 29.9 163.82 30.24 152.1 37.15 151.9 36.82 151.7 36.48"/><text class="cls-1" transform="translate(163.22 29.08)">N</text><polygon points="170.38 27.46 183.45 34.84 183.26 35.18 183.07 35.52 170 28.14 170.19 27.8 170.38 27.46"/><polygon points="165.89 21.28 165.75 6.15 166.14 6.14 166.53 6.14 166.66 21.27 166.28 21.28 165.89 21.28"/><line class="cls-2" x1="169.17" y1="21.13" x2="172.42" y2="21.13"/><line class="cls-2" x1="170.79" y1="19.5" x2="170.79" y2="22.75"/><polygon points="149.16 35.72 132.61 26.36 132.61 25.91 132.6 25.46 149.55 35.04 149.55 35.49 149.16 35.72"/><polygon points="132.83 28.95 118.39 37.46 118.19 37.12 117.99 36.79 132.43 28.27 132.63 28.61 132.83 28.95"/><polygon points="132.61 26.36 116.23 36.02 115.84 35.8 115.84 35.35 132.6 25.46 132.61 25.91 132.61 26.36"/><polygon points="115.45 36.03 102.82 28.89 103.02 28.55 103.21 28.21 115.84 35.35 115.84 35.8 115.45 36.03"/><text class="cls-1" transform="translate(95.56 29.7)">O</text><polygon points="94.98 28.98 82.52 36.33 82.13 36.1 82.13 35.66 94.58 28.31 94.78 28.65 94.98 28.98"/><polygon points="79.62 37.81 65.02 29.56 65.21 29.23 65.41 28.89 80 37.14 79.81 37.48 79.62 37.81"/><polygon points="81.75 36.33 65.19 26.98 65.19 26.53 65.19 26.08 82.13 35.66 82.13 36.1 81.75 36.33"/><polygon points="65.19 26.98 48.81 36.63 48.42 36.41 48.42 35.96 65.19 26.08 65.19 26.53 65.19 26.98"/><polygon points="48.04 36.64 35.16 29.37 35.36 29.03 35.55 28.69 48.42 35.96 48.42 36.41 48.04 36.64"/><text class="cls-1" transform="translate(28.38 30.31)">N</text><polygon points="27.8 29.46 14.91 37.06 14.71 36.72 14.52 36.39 27.41 28.79 27.6 29.12 27.8 29.46"/><polygon points="31.05 22.51 30.91 7.38 31.3 7.37 31.69 7.37 31.83 22.5 31.44 22.51 31.05 22.51"/><polygon points="51.16 37.74 51.31 54.5 50.92 54.51 50.53 54.51 50.38 37.74 50.77 37.74 51.16 37.74"/><polygon points="48.81 36.63 48.99 55.65 48.6 55.88 48.21 56.1 48.04 36.64 48.42 36.41 48.81 36.63"/><polygon points="48.99 55.65 65.54 65 65.55 65.45 65.55 65.9 48.21 56.1 48.6 55.88 48.99 55.65"/><polygon points="65.32 62.42 79.76 53.91 79.96 54.24 80.16 54.58 65.72 63.09 65.52 62.76 65.32 62.42"/><polygon points="65.54 65 81.92 55.35 82.31 55.57 82.31 56.02 65.55 65.9 65.55 65.45 65.54 65"/><polygon points="82.7 55.34 99.25 64.69 99.25 65.14 98.87 65.37 82.31 56.02 82.31 55.57 82.7 55.34"/><polygon points="81.92 55.35 81.75 36.33 82.13 36.1 82.52 36.33 82.7 55.34 82.31 55.57 81.92 55.35"/><polygon points="116.23 36.02 116.41 55.03 116.02 55.26 115.63 55.04 115.45 36.03 115.84 35.8 116.23 36.02"/><polygon points="99.82 84.38 116.47 93.79 116.37 94.18 115.99 94.41 99.44 85.06 99.43 84.61 99.82 84.38"/></svg>