<svg id="图层_1" data-name="图层 1" xmlns="http://www.w3.org/2000/svg" viewBox="0 0 200 130"><defs><style>.cls-1,.cls-2{isolation:isolate;}.cls-2{font-size:8.88px;font-family:ArialMT, Arial;}.cls-3{fill:none;stroke:#000;stroke-miterlimit:3.86;stroke-width:0.91px;}</style></defs><polygon points="31.05 4.81 30.88 20.47 30.48 20.47 30.08 20.46 30.24 4.8 30.64 4.81 31.05 4.81"/><g class="cls-1"><text class="cls-2" transform="translate(27.23 28.55)">N</text></g><polygon points="26.62 27.56 13.08 35.19 12.88 34.84 12.69 34.49 26.22 26.86 26.42 27.21 26.62 27.56"/><polygon points="34.65 26.98 47.78 34.74 47.77 35.2 47.37 35.43 34.24 27.67 34.45 27.32 34.65 26.98"/><polygon points="47.78 34.74 65.33 24.85 65.32 25.31 65.32 25.78 48.17 35.44 47.77 35.2 47.78 34.74"/><polygon points="49.98 36.27 65.09 27.75 65.29 28.11 65.49 28.46 50.37 36.98 50.17 36.62 49.98 36.27"/><polygon points="65.33 24.85 83.07 35.34 82.66 35.57 82.26 35.8 65.32 25.78 65.32 25.31 65.33 24.85"/><polygon points="83.07 35.34 82.86 55.48 82.45 55.71 82.05 55.48 82.26 35.8 82.66 35.57 83.07 35.34"/><polygon points="80.63 36.94 80.45 54.3 80.05 54.29 79.64 54.29 79.83 36.93 80.23 36.94 80.63 36.94"/><polygon points="82.86 55.48 99.79 65.5 99.79 65.97 99.38 66.19 82.45 56.18 82.45 55.71 82.86 55.48"/><polygon points="99.79 65.5 116.94 55.84 117.34 56.08 117.33 56.54 100.19 66.2 99.79 65.97 99.79 65.5"/><polygon points="101.99 67.03 117.11 58.52 117.31 58.87 117.51 59.22 102.39 67.74 102.19 67.39 101.99 67.03"/><polygon points="117.75 55.85 134.68 65.86 134.68 66.33 134.67 66.8 117.33 56.54 117.34 56.08 117.75 55.85"/><polygon points="134.68 65.86 151.83 56.2 152.23 56.44 152.63 56.68 134.67 66.8 134.68 66.33 134.68 65.86"/><polygon points="151.83 56.2 152.03 36.53 152.44 36.3 152.84 36.53 152.63 56.68 152.23 56.44 151.83 56.2"/><polygon points="152.44 35.83 165.78 28.32 165.98 28.67 166.17 29.02 152.84 36.53 152.44 36.3 152.44 35.83"/><polygon points="154.64 37.37 166.97 30.42 167.16 30.77 167.36 31.13 155.04 38.07 154.84 37.72 154.64 37.37"/><g class="cls-1"><text class="cls-2" transform="translate(166.78 30.01)">N</text></g><polygon points="174.21 28.43 187.53 36.31 187.33 36.66 187.12 37.01 173.8 29.13 174 28.78 174.21 28.43"/><polygon points="169.63 21.92 169.8 6.26 170.2 6.26 170.6 6.27 170.44 21.93 170.03 21.93 169.63 21.92"/><line class="cls-3" x1="172.95" y1="21.77" x2="176.3" y2="21.77"/><line class="cls-3" x1="174.62" y1="20.09" x2="174.62" y2="23.45"/><polygon points="152.03 36.53 135.09 26.51 135.1 26.04 135.1 25.58 152.44 35.83 152.44 36.3 152.03 36.53"/><polygon points="135.09 26.51 117.95 36.17 117.55 35.93 117.15 35.7 135.1 25.58 135.1 26.04 135.09 26.51"/><polygon points="117.95 36.17 117.75 55.85 117.34 56.08 116.94 55.84 117.15 35.7 117.55 35.93 117.95 36.17"/><polygon points="100.19 66.2 99.98 85.88 99.58 86.11 99.18 85.87 99.38 66.19 99.79 65.97 100.19 66.2"/><polygon points="99.75 89.25 84.63 97.77 84.43 97.42 84.23 97.07 99.35 88.55 99.55 88.9 99.75 89.25"/><polygon points="99.57 86.57 82.43 96.23 82.03 96 81.63 95.76 99.18 85.87 99.58 86.11 99.57 86.57"/><polygon points="82.43 96.23 82.22 115.91 81.82 116.14 81.41 116.37 81.63 95.76 82.03 96 82.43 96.23"/><polygon points="84.45 114.42 99.39 123.26 99.19 123.6 98.98 123.95 84.05 115.12 84.25 114.77 84.45 114.42"/><polygon points="82.22 115.91 99.16 125.93 99.16 126.39 99.15 126.86 81.41 116.37 81.82 116.14 82.22 115.91"/><polygon points="99.16 125.93 116.31 116.27 116.71 116.51 117.11 116.74 99.15 126.86 99.16 126.39 99.16 125.93"/><polygon points="113.9 115.08 114.08 97.73 114.49 97.73 114.89 97.74 114.71 115.09 114.31 115.08 113.9 115.08"/><polygon points="116.31 116.27 116.51 96.59 116.92 96.36 117.32 96.13 117.11 116.74 116.71 116.51 116.31 116.27"/><polygon points="116.51 96.59 99.57 86.57 99.58 86.11 99.98 85.88 117.32 96.13 116.92 96.36 116.51 96.59"/><polygon points="82.45 56.18 64.9 66.07 64.9 65.6 64.91 65.14 82.05 55.48 82.45 55.71 82.45 56.18"/><polygon points="64.9 66.07 47.16 55.58 47.56 55.35 47.97 55.12 64.91 65.14 64.9 65.6 64.9 66.07"/><polygon points="64.72 63.16 49.79 54.32 49.99 53.98 50.2 53.63 65.14 62.46 64.93 62.81 64.72 63.16"/><polygon points="47.16 55.58 47.37 35.43 47.77 35.2 48.17 35.44 47.97 55.12 47.56 55.35 47.16 55.58"/></svg>