<svg id="图层_1" data-name="图层 1" xmlns="http://www.w3.org/2000/svg" viewBox="0 0 200 130"><defs><style>.cls-1,.cls-2{isolation:isolate;}.cls-2{font-size:6.96px;font-family:ArialMT, Arial;}</style></defs><polygon points="192.91 4.78 179.45 12.65 179.13 12.47 178.81 12.29 192.6 4.24 192.76 4.51 192.91 4.78"/><polygon points="178.98 13.84 164.8 5.74 164.96 5.47 165.11 5.2 179.29 13.29 179.14 13.56 178.98 13.84"/><polygon points="179.92 12.19 165.74 4.1 165.9 3.83 166.05 3.55 180.23 11.64 180.07 11.92 179.92 12.19"/><polygon points="179.45 12.65 179.53 28.43 179.21 28.25 178.89 28.07 178.81 12.29 179.13 12.47 179.45 12.65"/><polygon points="179.53 28.43 169.08 34.53 168.92 34.26 168.76 33.98 178.89 28.07 179.21 28.25 179.53 28.43"/><g class="cls-1"><text class="cls-2" transform="translate(162.88 39.02)">O</text></g><polygon points="165.92 39.71 165.98 52.16 165.66 51.98 165.35 51.8 165.29 39.72 165.6 39.71 165.92 39.71"/><polygon points="165.98 52.16 152.36 60.12 152.04 59.94 151.72 59.76 165.35 51.8 165.66 51.98 165.98 52.16"/><polygon points="152.36 60.12 152.42 72.21 152.1 72.21 151.79 72.21 151.72 59.76 152.04 59.94 152.36 60.12"/><g class="cls-1"><text class="cls-2" transform="translate(149.61 78.54)">N</text></g><polygon points="155.42 77.24 165.98 83.27 165.82 83.54 165.67 83.81 155.11 77.79 155.26 77.51 155.42 77.24"/><polygon points="149.13 77.83 138.81 83.86 138.49 83.68 138.49 83.31 148.82 77.28 148.98 77.56 149.13 77.83"/><polygon points="138.81 83.86 138.89 99.64 138.57 99.46 138.26 99.28 138.18 83.86 138.49 83.68 138.81 83.86"/><polygon points="136.92 84.78 136.99 98.37 136.68 98.37 136.36 98.37 136.29 84.78 136.61 84.78 136.92 84.78"/><polygon points="138.89 99.64 124.95 107.78 124.95 107.42 124.95 107.05 138.26 99.28 138.57 99.46 138.89 99.64"/><polygon points="124.95 107.78 111.25 99.96 111.24 99.59 111.56 99.41 124.95 107.05 124.95 107.42 124.95 107.78"/><polygon points="124.78 105.5 112.98 98.77 113.13 98.49 113.29 98.22 125.09 104.95 124.94 105.23 124.78 105.5"/><polygon points="110.93 99.41 110.85 83.64 111.17 83.81 111.48 84 111.56 99.41 111.24 99.59 110.93 99.41"/><polygon points="110.85 83.64 124.79 75.49 124.79 75.86 124.79 76.22 111.48 84 111.17 83.81 110.85 83.64"/><polygon points="112.91 84.63 124.64 77.77 124.8 78.04 124.96 78.32 113.22 85.17 113.06 84.9 112.91 84.63"/><polygon points="124.79 75.49 138.49 83.31 138.49 83.68 138.18 83.86 124.79 76.22 124.79 75.86 124.79 75.49"/><polygon points="111.25 99.96 97.6 107.93 97.62 107.55 97.64 107.17 110.93 99.41 111.24 99.59 111.25 99.96"/><polygon points="97.6 107.93 85.4 98.89 85.59 98.63 85.78 98.38 97.64 107.17 97.62 107.55 97.6 107.93"/><polygon points="97.49 105.8 83.92 100.08 83.92 99.73 84.21 99.51 97.73 105.22 97.61 105.51 97.49 105.8"/><polygon points="83.92 100.08 69.45 106.6 69.53 106.22 69.61 105.84 83.58 99.54 83.92 99.73 83.92 100.08"/><polygon points="70.91 105.81 68.29 118.42 67.98 118.36 67.67 118.29 70.29 105.68 70.6 105.74 70.91 105.81"/><polygon points="69.05 105.42 66.44 118.03 66.13 117.97 65.82 117.91 68.44 105.29 68.75 105.36 69.05 105.42"/><g class="cls-1"><text class="cls-2" transform="translate(63.62 124.49)">O</text></g><polygon points="69.45 106.6 61.83 98.22 62.06 98 62.29 97.79 69.61 105.84 69.53 106.22 69.45 106.6"/><g class="cls-1"><text class="cls-2" transform="translate(56.4 97.37)">N</text></g><polygon points="60.64 90.88 66.38 80.83 66.74 80.84 66.9 81.2 61.19 91.2 60.92 91.04 60.64 90.88"/><polygon points="66.96 80.57 79.11 83.09 79.04 83.4 78.98 83.7 66.9 81.2 66.74 80.84 66.96 80.57"/><polygon points="67.76 82.67 78.72 84.94 78.66 85.25 78.59 85.56 67.64 83.29 67.7 82.98 67.76 82.67"/><g class="cls-1"><text class="cls-2" transform="translate(79.67 86.87)">N</text></g><polygon points="82.89 87.52 84.21 99.51 83.92 99.73 83.58 99.54 82.26 87.59 82.57 87.56 82.89 87.52"/><polygon points="66.38 80.83 60.02 66.74 60.25 66.46 60.47 66.19 66.96 80.57 66.74 80.84 66.38 80.83"/><polygon points="60.02 66.74 45.67 63.54 45.74 63.23 45.81 62.92 60.47 66.19 60.25 66.46 60.02 66.74"/><polygon points="60.44 64.89 44.34 65.21 44.55 64.89 44.75 64.57 60.43 64.26 60.43 64.58 60.44 64.89"/><polygon points="44.34 65.21 37.84 50.81 38.05 50.51 38.42 50.55 44.75 64.57 44.55 64.89 44.34 65.21"/><polygon points="36.9 48.33 44.83 37.3 45.09 37.48 45.35 37.66 37.41 48.7 37.16 48.52 36.9 48.33"/><polygon points="37.91 50.18 46.9 37.66 47.27 37.7 47.63 37.73 38.42 50.55 38.05 50.51 37.91 50.18"/><polygon points="46.9 37.66 40.56 23.61 40.77 23.32 40.99 23.02 47.63 37.73 47.27 37.7 46.9 37.66"/><polygon points="39.47 25.41 25.94 24.05 25.97 23.74 26 23.43 39.53 24.78 39.5 25.09 39.47 25.41"/><polygon points="40.56 23.61 25.22 22.08 25.07 21.75 25.29 21.45 40.99 23.02 40.77 23.32 40.56 23.61"/><polygon points="25.22 22.08 16.23 34.59 15.86 34.56 15.5 34.52 24.71 21.71 25.07 21.75 25.22 22.08"/><polygon points="18.33 34.65 23.92 47.03 23.63 47.16 23.34 47.29 17.75 34.91 18.04 34.77 18.33 34.65"/><polygon points="16.23 34.59 22.57 48.64 22.35 48.94 22.14 49.24 15.5 34.52 15.86 34.56 16.23 34.59"/><polygon points="22.57 48.64 37.91 50.18 38.05 50.51 37.84 50.81 22.14 49.24 22.35 48.94 22.57 48.64"/><polygon points="24.71 21.71 19.88 11 20.17 10.87 20.45 10.74 25.29 21.45 25.07 21.75 24.71 21.71"/><g class="cls-1"><text class="cls-2" transform="translate(16.46 10.18)">F</text></g><polygon points="55.81 95.21 43.27 96.59 43.23 96.28 43.2 95.96 55.74 94.58 55.77 94.9 55.81 95.21"/></svg>