<svg id="图层_1" data-name="图层 1" xmlns="http://www.w3.org/2000/svg" viewBox="0 0 200 130"><defs><style>.cls-1,.cls-2{isolation:isolate;}.cls-2{font-size:7.13px;font-family:ArialMT, Arial;}</style></defs><polygon points="82.72 57.24 87.67 68.43 87.38 68.56 87.08 68.69 82.13 57.5 82.43 57.37 82.72 57.24"/><g class="cls-1"><text class="cls-2" transform="translate(86.39 75.05)">N</text></g><polygon points="87.16 75.92 81.25 86.1 80.85 86.14 80.65 85.84 86.6 75.59 86.88 75.75 87.16 75.92"/><polygon points="83.48 85.68 90.11 93.08 89.86 93.3 89.62 93.51 83 86.11 83.24 85.9 83.48 85.68"/><polygon points="81.25 86.1 88.66 94.37 88.42 94.59 88.18 94.81 80.72 86.48 80.85 86.14 81.25 86.1"/><g class="cls-1"><text class="cls-2" transform="translate(89.07 101.07)">N</text></g><polygon points="94.73 96.46 106.08 91.44 106.43 91.64 106.43 92 94.99 97.06 94.86 96.76 94.73 96.46"/><polygon points="108.35 90.27 120.44 99.38 120.41 99.76 120.39 100.15 107.96 90.79 108.15 90.53 108.35 90.27"/><polygon points="106.73 91.42 120.54 97.37 120.42 97.67 120.29 97.96 106.43 92 106.43 91.64 106.73 91.42"/><polygon points="120.44 99.38 134.11 91.52 134.43 91.71 134.43 92.08 120.39 100.15 120.41 99.76 120.44 99.38"/><polygon points="136.54 90.32 148.59 97.31 148.42 97.59 148.26 97.87 136.22 90.88 136.38 90.6 136.54 90.32"/><polygon points="134.76 91.53 148.42 99.46 148.42 99.83 148.42 100.2 134.43 92.08 134.43 91.71 134.76 91.53"/><polygon points="148.42 99.46 162.12 91.59 162.44 91.78 162.76 91.97 148.42 100.2 148.42 99.83 148.42 99.46"/><polygon points="160.18 90.65 160.21 76.72 160.54 76.73 160.86 76.73 160.83 90.66 160.5 90.66 160.18 90.65"/><polygon points="162.12 91.59 162.16 75.8 162.48 75.61 162.8 75.8 162.76 91.97 162.44 91.78 162.12 91.59"/><polygon points="162.16 75.8 148.5 67.86 148.5 67.49 148.5 67.12 162.48 75.24 162.48 75.61 162.16 75.8"/><polygon points="148.65 70.01 136.57 76.95 136.41 76.67 136.25 76.39 148.33 69.45 148.49 69.73 148.65 70.01"/><polygon points="148.5 67.86 134.8 75.73 134.47 75.54 134.15 75.36 148.5 67.12 148.5 67.49 148.5 67.86"/><polygon points="134.8 75.73 134.76 91.53 134.43 91.71 134.11 91.52 134.15 75.36 134.47 75.54 134.8 75.73"/><polygon points="162.48 75.24 173.12 69.13 173.28 69.41 173.44 69.69 162.8 75.8 162.48 75.61 162.48 75.24"/><g class="cls-1"><text class="cls-2" transform="translate(173.93 70.45)">N</text></g><polygon points="179.89 69.15 190.65 75.4 190.49 75.68 190.32 75.96 179.56 69.71 179.72 69.43 179.89 69.15"/><polygon points="176.19 63.96 176.22 51.2 176.54 51.39 176.87 51.58 176.84 63.96 176.51 63.96 176.19 63.96"/><polygon points="176.22 51.2 190.24 43.15 190.56 43.34 190.89 43.53 176.87 51.58 176.54 51.39 176.22 51.2"/><polygon points="190.24 43.15 190.27 30.77 190.59 30.77 190.92 30.77 190.89 43.53 190.56 43.34 190.24 43.15"/><g class="cls-1"><text class="cls-2" transform="translate(187.83 30.06)">O</text><text class="cls-2" transform="translate(193.38 30.06)">H</text></g><polygon points="106.08 91.44 104.48 75.83 104.78 75.56 105.07 75.29 106.73 91.42 106.43 91.64 106.08 91.44"/><polygon points="103.39 75.07 112.54 66.87 112.75 67.11 112.97 67.35 103.82 75.55 103.6 75.31 103.39 75.07"/><polygon points="104.68 76.51 113.83 68.31 114.05 68.56 114.26 68.8 105.11 76.99 104.9 76.75 104.68 76.51"/><g class="cls-1"><text class="cls-2" transform="translate(114.05 67.66)">O</text></g><polygon points="104.48 75.83 92.12 73.17 92.19 72.85 92.26 72.53 105.07 75.29 104.78 75.56 104.48 75.83"/><polygon points="80.72 86.48 64.58 88.14 64.77 87.79 64.94 87.45 80.65 85.84 80.85 86.14 80.72 86.48"/><polygon points="64.58 88.14 56.58 73.71 56.87 73.55 57.15 73.39 64.94 87.45 64.77 87.79 64.58 88.14"/><polygon points="65.38 86.1 55.16 75.03 55.29 74.69 55.42 74.35 65.86 85.66 65.62 85.88 65.38 86.1"/><polygon points="55.16 75.03 39.43 76.64 39.21 76.34 39.36 76 55.42 74.35 55.29 74.69 55.16 75.03"/><polygon points="36.72 76.76 28.56 65.47 28.82 65.28 29.08 65.09 37.24 76.38 36.98 76.57 36.72 76.76"/><polygon points="38.84 76.38 29.58 63.58 29.73 63.23 29.89 62.9 39.36 76 39.21 76.34 38.84 76.38"/><polygon points="29.58 63.58 13.87 65.19 13.65 64.89 13.8 64.55 29.89 62.9 29.73 63.23 29.58 63.58"/><polygon points="15.26 66.83 9.56 79.55 9.27 79.41 8.97 79.28 14.67 66.57 14.96 66.7 15.26 66.83"/><polygon points="13.87 65.19 7.41 79.6 7.04 79.64 6.67 79.68 13.28 64.92 13.65 64.89 13.87 65.19"/><polygon points="7.41 79.6 16.66 92.41 16.51 92.75 16.36 93.09 6.67 79.68 7.04 79.64 7.41 79.6"/><polygon points="17.39 90.38 31.25 88.96 31.28 89.28 31.32 89.6 17.46 91.02 17.43 90.7 17.39 90.38"/><polygon points="16.66 92.41 32.38 90.79 32.59 91.09 32.81 91.4 16.36 93.09 16.51 92.75 16.66 92.41"/><polygon points="32.38 90.79 38.84 76.38 39.21 76.34 39.43 76.64 32.81 91.4 32.59 91.09 32.38 90.79"/><polygon points="13.28 64.92 6.51 55.57 6.78 55.38 7.04 55.19 13.8 64.55 13.65 64.89 13.28 64.92"/><g class="cls-1"><text class="cls-2" transform="translate(2 54.67)">F</text></g></svg>