<svg id="图层_1" data-name="图层 1" xmlns="http://www.w3.org/2000/svg" viewBox="0 0 200 130"><defs><style>.cls-1,.cls-2,.cls-3{isolation:isolate;}.cls-2{font-size:6.55px;}.cls-2,.cls-3{font-family:ArialMT, Arial;}.cls-3{font-size:4.03px;}</style></defs><title>NeomycinB_Simi_compound5.</title><polygon points="157.02 87.98 149.6 100.83 149.25 100.85 149.08 100.55 156.34 87.98 156.68 87.98 157.02 87.98"/><polygon points="149.06 101.15 134.39 101.15 134.39 100.85 134.56 100.55 149.08 100.55 149.25 100.85 149.06 101.15"/><polygon points="134.14 101 126.71 88.13 126.97 87.98 127.31 87.98 134.56 100.55 134.39 100.85 134.14 101"/><polygon points="126.71 87.83 134.14 74.97 134.39 75.11 134.56 75.41 127.31 87.98 126.97 87.98 126.71 87.83"/><polygon points="134.39 74.82 149.06 74.82 149.25 75.11 149.08 75.41 134.56 75.41 134.39 75.11 134.39 74.82"/><polygon points="149.06 74.82 153.62 64.88 154.77 65.55 155.93 66.22 149.6 75.13 149.25 75.11 149.06 74.82"/><g class="cls-1"><text class="cls-2" transform="translate(154.32 64.06)">N</text><text class="cls-2" transform="translate(159.05 64.06)">H</text><text class="cls-3" transform="translate(163.78 65.06)">2</text></g><polygon points="149.6 75.13 157.02 87.98 156.68 87.98 156.34 87.98 149.08 75.41 149.25 75.11 149.6 75.13"/><polygon points="134.66 74.91 134.09 75.24 133.94 74.98 133.79 74.72 134.36 74.39 134.51 74.65 134.66 74.91"/><polygon points="133.93 73.33 133.08 73.82 132.93 73.56 132.78 73.3 133.63 72.81 133.78 73.07 133.93 73.33"/><polygon points="133.21 71.74 132.07 72.4 131.92 72.14 131.77 71.88 132.91 71.23 133.06 71.48 133.21 71.74"/><polygon points="132.48 70.16 131.06 70.98 130.91 70.72 130.76 70.46 132.18 69.64 132.33 69.9 132.48 70.16"/><polygon points="131.75 68.58 130.05 69.56 129.9 69.3 129.75 69.04 131.46 68.06 131.6 68.32 131.75 68.58"/><polygon points="131.03 66.99 129.04 68.14 128.9 67.88 128.75 67.62 130.73 66.48 130.88 66.74 131.03 66.99"/><polygon points="130.3 65.41 128.03 66.72 127.89 66.46 127.74 66.2 130.01 64.89 130.16 65.15 130.3 65.41"/><g class="cls-1"><text class="cls-2" transform="translate(124.42 64.9)">O</text></g><polygon points="134.09 49.26 134.66 49.59 134.51 49.84 134.36 50.1 133.79 49.77 133.94 49.51 134.09 49.26"/><polygon points="133.08 50.67 133.93 51.17 133.78 51.42 133.63 51.68 132.78 51.19 132.93 50.93 133.08 50.67"/><polygon points="132.07 52.09 133.21 52.75 133.06 53.01 132.91 53.27 131.77 52.61 131.92 52.35 132.07 52.09"/><polygon points="131.06 53.51 132.48 54.33 132.33 54.59 132.18 54.85 130.76 54.03 130.91 53.77 131.06 53.51"/><polygon points="130.05 54.93 131.75 55.92 131.6 56.17 131.46 56.43 129.75 55.45 129.9 55.19 130.05 54.93"/><polygon points="129.04 56.35 131.03 57.5 130.88 57.76 130.73 58.02 128.75 56.87 128.9 56.61 129.04 56.35"/><polygon points="128.03 57.77 130.3 59.08 130.16 59.34 130.01 59.6 127.74 58.29 127.89 58.03 128.03 57.77"/><polygon points="134.14 49.53 126.71 36.66 126.97 36.51 127.31 36.51 134.56 49.08 134.39 49.38 134.14 49.53"/><polygon points="126.71 36.36 134.04 23.66 134.39 23.64 134.56 23.94 127.31 36.51 126.97 36.51 126.71 36.36"/><polygon points="134.58 23.35 149.25 23.35 149.25 23.64 149.08 23.94 134.56 23.94 134.39 23.64 134.58 23.35"/><polygon points="149.51 23.5 156.85 36.2 156.68 36.51 156.34 36.51 149.08 23.94 149.25 23.64 149.51 23.5"/><polygon points="156.85 36.82 151.42 46.22 151.16 46.07 150.9 45.93 156.34 36.51 156.68 36.51 156.85 36.82"/><g class="cls-1"><text class="cls-2" transform="translate(146.7 52.03)">O</text></g><polygon points="146.11 49.68 134.39 49.68 134.39 49.38 134.56 49.08 146.11 49.08 146.11 49.38 146.11 49.68"/><polygon points="156.85 36.2 171.99 35.14 171.54 36.51 171.13 37.82 156.85 36.82 156.68 36.51 156.85 36.2"/><polygon points="171.99 35.14 176.8 26.8 177.06 26.95 177.32 27.1 171.13 37.82 171.54 36.51 171.99 35.14"/><g class="cls-1"><text class="cls-2" transform="translate(176.6 25.45)">N</text><text class="cls-2" transform="translate(181.33 25.45)">H</text><text class="cls-3" transform="translate(186.07 26.46)">2</text></g><polygon points="149.56 23.77 148.99 23.44 149.14 23.18 149.29 22.92 149.86 23.25 149.71 23.51 149.56 23.77"/><polygon points="150.57 22.35 149.72 21.86 149.86 21.6 150.01 21.34 150.87 21.83 150.72 22.09 150.57 22.35"/><polygon points="151.58 20.93 150.44 20.27 150.59 20.02 150.74 19.76 151.88 20.41 151.73 20.67 151.58 20.93"/><polygon points="152.59 19.51 151.17 18.69 151.31 18.43 151.46 18.18 152.88 18.99 152.73 19.25 152.59 19.51"/><polygon points="153.59 18.09 151.89 17.11 152.04 16.85 152.19 16.59 153.89 17.57 153.74 17.83 153.59 18.09"/><polygon points="154.6 16.67 152.62 15.52 152.77 15.27 152.91 15.01 154.9 16.16 154.75 16.41 154.6 16.67"/><polygon points="155.61 15.25 153.34 13.94 153.49 13.68 153.64 13.43 155.91 14.73 155.76 14.99 155.61 15.25"/><g class="cls-1"><text class="cls-2" transform="translate(154.13 13.43)">O</text><text class="cls-2" transform="translate(159.23 13.43)">H</text></g><polygon points="134.04 23.66 127.72 14.75 128.87 14.08 130.03 13.41 134.58 23.35 134.39 23.64 134.04 23.66"/><g class="cls-1"><text class="cls-2" transform="translate(119.69 13.43)">H</text><text class="cls-2" transform="translate(124.42 13.43)">O</text></g><polygon points="126.92 36.19 126.92 36.84 126.62 36.84 126.33 36.84 126.33 36.19 126.62 36.19 126.92 36.19"/><polygon points="125.31 36.04 125.31 36.98 125.02 36.98 124.72 36.98 124.72 36.04 125.02 36.04 125.31 36.04"/><polygon points="123.7 35.9 123.7 37.12 123.41 37.12 123.11 37.12 123.11 35.9 123.41 35.9 123.7 35.9"/><polygon points="122.09 35.76 122.09 37.26 121.8 37.26 121.5 37.26 121.5 35.76 121.8 35.76 122.09 35.76"/><polygon points="120.49 35.62 120.49 37.4 120.19 37.4 119.89 37.4 119.89 35.62 120.19 35.62 120.49 35.62"/><polygon points="118.88 35.48 118.88 37.54 118.58 37.54 118.28 37.54 118.28 35.48 118.58 35.48 118.88 35.48"/><polygon points="117.27 35.34 117.27 37.68 116.97 37.68 116.67 37.68 116.67 35.34 116.97 35.34 117.27 35.34"/><polygon points="115.66 35.2 115.66 37.82 115.36 37.82 115.06 37.82 115.06 35.2 115.36 35.2 115.66 35.2"/><g class="cls-1"><text class="cls-2" transform="translate(102.83 38.32)">H</text><text class="cls-3" transform="translate(107.56 39.33)">2</text><text class="cls-2" transform="translate(109.8 38.32)">N</text></g><polygon points="126.92 87.65 126.92 88.31 126.62 88.31 126.33 88.31 126.33 87.65 126.62 87.65 126.92 87.65"/><polygon points="125.34 87.51 125.34 88.45 125.04 88.45 124.74 88.45 124.74 87.51 125.04 87.51 125.34 87.51"/><polygon points="123.75 87.37 123.75 88.59 123.46 88.59 123.16 88.59 123.16 87.37 123.46 87.37 123.75 87.37"/><polygon points="122.17 87.23 122.17 88.73 121.88 88.73 121.58 88.73 121.58 87.23 121.88 87.23 122.17 87.23"/><polygon points="120.59 87.09 120.59 88.87 120.29 88.87 120 88.87 120 87.09 120.29 87.09 120.59 87.09"/><polygon points="119.01 86.95 119.01 89.01 118.71 89.01 118.41 89.01 118.41 86.95 118.71 86.95 119.01 86.95"/><polygon points="117.42 86.81 117.42 89.15 117.13 89.15 116.83 89.15 116.83 86.81 117.13 86.81 117.42 86.81"/><polygon points="115.84 86.67 115.84 89.29 115.55 89.29 115.25 89.29 115.25 86.67 115.55 86.67 115.84 86.67"/><g class="cls-1"><text class="cls-2" transform="translate(109.56 90.63)">O</text></g><polygon points="105.02 75.08 111.36 84.01 110.2 84.68 109.04 85.34 104.48 75.39 104.68 75.11 105.02 75.08"/><polygon points="104.48 75.39 89.87 73.86 89.9 73.56 90.15 73.29 104.49 74.8 104.68 75.11 104.48 75.39"/><polygon points="89.61 73.62 86.52 59.09 86.81 59.03 87.15 59.18 90.15 73.29 89.9 73.56 89.61 73.62"/><polygon points="86.66 58.77 99.39 51.42 99.68 51.6 99.64 51.96 87.15 59.18 86.81 59.03 86.66 58.77"/><polygon points="100 51.49 107.78 58.49 107.58 58.71 107.38 58.93 99.64 51.96 99.68 51.6 100 51.49"/><g class="cls-1"><text class="cls-2" transform="translate(108.17 64.19)">O</text></g><polygon points="109.52 64.97 105.02 75.08 104.68 75.11 104.49 74.8 108.98 64.72 109.25 64.84 109.52 64.97"/><polygon points="99.39 51.42 99.92 36.23 101.23 36.82 102.49 37.37 100 51.49 99.68 51.6 99.39 51.42"/><polygon points="99.92 36.23 92.18 30.61 92.36 30.37 92.53 30.13 102.49 37.37 101.23 36.82 99.92 36.23"/><g class="cls-1"><text class="cls-2" transform="translate(81.93 30.74)">H</text><text class="cls-2" transform="translate(86.67 30.74)">O</text></g><polygon points="86.9 58.71 86.64 59.31 86.36 59.19 86.09 59.07 86.36 58.47 86.63 58.59 86.9 58.71"/><polygon points="85.33 57.83 84.93 58.73 84.66 58.61 84.39 58.49 84.79 57.59 85.06 57.71 85.33 57.83"/><polygon points="83.75 56.95 83.22 58.15 82.95 58.03 82.68 57.91 83.21 56.71 83.48 56.83 83.75 56.95"/><polygon points="82.18 56.07 81.51 57.56 81.24 57.45 80.97 57.32 81.64 55.83 81.91 55.95 82.18 56.07"/><polygon points="80.61 55.19 79.81 56.98 79.53 56.86 79.26 56.74 80.06 54.95 80.33 55.07 80.61 55.19"/><polygon points="79.03 54.31 78.1 56.4 77.83 56.28 77.56 56.16 78.49 54.07 78.76 54.19 79.03 54.31"/><polygon points="77.45 53.43 76.39 55.82 76.12 55.7 75.85 55.58 76.91 53.19 77.18 53.31 77.45 53.43"/><g class="cls-1"><text class="cls-2" transform="translate(70.69 55.64)">O</text></g><polygon points="61.45 61.96 61.06 61.42 61.3 61.25 61.54 61.07 61.93 61.61 61.69 61.78 61.45 61.96"/><polygon points="62.94 61.08 62.36 60.28 62.6 60.1 62.84 59.93 63.42 60.73 63.18 60.9 62.94 61.08"/><polygon points="64.43 60.2 63.66 59.13 63.9 58.96 64.14 58.78 64.91 59.85 64.67 60.02 64.43 60.2"/><polygon points="65.92 59.32 64.95 57.99 65.19 57.81 65.44 57.64 66.4 58.97 66.16 59.14 65.92 59.32"/><polygon points="67.41 58.44 66.25 56.85 66.49 56.67 66.73 56.5 67.89 58.09 67.65 58.26 67.41 58.44"/><polygon points="68.9 57.56 67.55 55.7 67.79 55.53 68.03 55.35 69.38 57.21 69.14 57.38 68.9 57.56"/><polygon points="70.39 56.68 68.85 54.56 69.09 54.38 69.33 54.21 70.86 56.33 70.63 56.5 70.39 56.68"/><polygon points="60.94 61.92 47.68 56.02 47.64 55.67 47.94 55.48 61.34 61.45 61.22 61.72 60.94 61.92"/><polygon points="47.68 56.02 35.94 64.55 35.62 64.41 35.45 64.17 47.32 55.55 47.64 55.67 47.68 56.02"/><polygon points="35.94 64.55 37.45 78.98 37.18 79.19 36.86 79.03 35.33 64.44 35.62 64.41 35.94 64.55"/><polygon points="37.45 78.98 50.72 84.89 50.75 85.23 50.46 85.42 37.23 79.53 37.18 79.19 37.45 78.98"/><polygon points="50.72 84.89 59.45 78.54 59.63 78.78 59.8 79.02 51.08 85.36 50.75 85.23 50.72 84.89"/><g class="cls-1"><text class="cls-2" transform="translate(60.22 79.15)">O</text></g><polygon points="62.13 73.22 60.94 61.92 61.22 61.72 61.51 61.69 62.72 73.16 62.42 73.19 62.13 73.22"/><polygon points="51.08 85.36 53.56 99.46 52.3 100 50.99 100.59 50.46 85.42 50.75 85.23 51.08 85.36"/><polygon points="53.56 99.46 43.42 106.83 43.24 106.59 43.07 106.35 50.99 100.59 52.3 100 53.56 99.46"/><g class="cls-1"><text class="cls-2" transform="translate(31 110.55)">H</text><text class="cls-3" transform="translate(35.73 111.55)">2</text><text class="cls-2" transform="translate(37.98 110.55)">N</text></g><polygon points="37.23 79.53 29.09 86.72 28.3 85.63 27.51 84.55 36.86 79.03 37.18 79.19 37.23 79.53"/><g class="cls-1"><text class="cls-2" transform="translate(17.88 90.57)">H</text><text class="cls-2" transform="translate(22.61 90.57)">O</text></g><polygon points="35.72 64.09 35.45 64.69 35.18 64.57 34.91 64.45 35.17 63.85 35.44 63.97 35.72 64.09"/><polygon points="34.14 63.21 33.74 64.11 33.47 63.99 33.2 63.87 33.6 62.97 33.87 63.09 34.14 63.21"/><polygon points="32.57 62.33 32.03 63.53 31.76 63.41 31.49 63.28 32.02 62.09 32.3 62.21 32.57 62.33"/><polygon points="30.99 61.45 30.32 62.95 30.05 62.82 29.78 62.7 30.45 61.21 30.72 61.33 30.99 61.45"/><polygon points="29.42 60.57 28.62 62.36 28.35 62.24 28.07 62.12 28.87 60.33 29.15 60.45 29.42 60.57"/><polygon points="27.84 59.69 26.91 61.78 26.64 61.66 26.37 61.54 27.3 59.45 27.57 59.57 27.84 59.69"/><polygon points="26.27 58.81 25.2 61.2 24.93 61.08 24.66 60.96 25.73 58.57 26 58.69 26.27 58.81"/><g class="cls-1"><text class="cls-2" transform="translate(14.77 61.02)">H</text><text class="cls-2" transform="translate(19.5 61.02)">O</text></g><polygon points="47.32 55.55 45.11 44.34 46.44 44.2 47.77 44.06 47.94 55.48 47.64 55.67 47.32 55.55"/><g class="cls-1"><text class="cls-2" transform="translate(36.81 42.71)">H</text><text class="cls-3" transform="translate(41.54 43.71)">2</text><text class="cls-2" transform="translate(43.78 42.71)">N</text></g><polygon points="89.62 73.38 90.11 73.82 89.92 74.04 89.72 74.26 89.22 73.82 89.42 73.6 89.62 73.38"/><polygon points="88.41 74.48 89.15 75.14 88.95 75.36 88.75 75.58 88.01 74.92 88.21 74.7 88.41 74.48"/><polygon points="87.2 75.58 88.18 76.46 87.98 76.68 87.78 76.9 86.8 76.02 87 75.8 87.2 75.58"/><polygon points="85.99 76.68 87.21 77.78 87.01 78 86.81 78.22 85.59 77.12 85.79 76.9 85.99 76.68"/><polygon points="84.78 77.78 86.24 79.09 86.04 79.32 85.84 79.54 84.38 78.22 84.58 78 84.78 77.78"/><polygon points="83.57 78.88 85.27 80.41 85.07 80.63 84.88 80.86 83.17 79.32 83.37 79.1 83.57 78.88"/><polygon points="82.36 79.98 84.3 81.73 84.11 81.95 83.91 82.17 81.96 80.42 82.16 80.2 82.36 79.98"/><g class="cls-1"><text class="cls-2" transform="translate(72.68 87.26)">H</text><text class="cls-2" transform="translate(77.41 87.26)">O</text></g><polygon points="134.09 100.72 134.66 101.06 134.51 101.31 134.36 101.57 133.79 101.24 133.94 100.98 134.09 100.72"/><polygon points="133.08 102.14 133.93 102.64 133.78 102.89 133.63 103.15 132.78 102.66 132.93 102.4 133.08 102.14"/><polygon points="132.07 103.56 133.21 104.22 133.06 104.48 132.91 104.73 131.77 104.08 131.92 103.82 132.07 103.56"/><polygon points="131.06 104.98 132.48 105.8 132.33 106.06 132.18 106.32 130.76 105.5 130.91 105.24 131.06 104.98"/><polygon points="130.05 106.4 131.75 107.39 131.6 107.64 131.46 107.9 129.75 106.92 129.9 106.66 130.05 106.4"/><polygon points="129.04 107.82 131.03 108.97 130.88 109.23 130.73 109.48 128.75 108.34 128.9 108.08 129.04 107.82"/><polygon points="128.03 109.24 130.3 110.55 130.16 110.81 130.01 111.07 127.74 109.76 127.89 109.5 128.03 109.24"/><g class="cls-1"><text class="cls-2" transform="translate(119.69 116.37)">H</text><text class="cls-2" transform="translate(124.42 116.37)">O</text></g><polygon points="149.6 100.83 155.93 109.74 154.77 110.41 153.62 111.08 149.06 101.15 149.25 100.85 149.6 100.83"/><g class="cls-1"><text class="cls-2" transform="translate(154.32 115.53)">N</text><text class="cls-2" transform="translate(159.05 115.53)">H</text><text class="cls-3" transform="translate(163.78 116.53)">2</text></g></svg>