<svg id="图层_1" data-name="图层 1" xmlns="http://www.w3.org/2000/svg" viewBox="0 0 200 130"><defs><style>.cls-1,.cls-2,.cls-3{isolation:isolate;}.cls-2{font-size:5.65px;}.cls-2,.cls-3{font-family:ArialMT, Arial;}.cls-3{font-size:3.48px;}</style></defs><title>NeomycinB_Simi_compound6.</title><polygon points="158.05 86.59 151.65 97.67 151.34 97.69 151.19 97.43 157.46 86.59 157.75 86.59 158.05 86.59"/><polygon points="151.18 97.94 138.52 97.94 138.52 97.69 138.67 97.43 151.19 97.43 151.34 97.69 151.18 97.94"/><polygon points="138.3 97.82 131.97 86.86 132.11 86.59 132.41 86.59 138.67 97.43 138.52 97.69 138.3 97.82"/><polygon points="131.97 86.32 138.22 75.5 138.52 75.48 138.67 75.74 132.41 86.59 132.11 86.59 131.97 86.32"/><polygon points="138.69 75.23 151.18 75.23 151.34 75.48 151.19 75.74 138.67 75.74 138.52 75.48 138.69 75.23"/><polygon points="151.18 75.23 155.11 66.66 156.11 67.23 157.11 67.81 151.65 75.5 151.34 75.48 151.18 75.23"/><g class="cls-1"><text class="cls-2" transform="translate(155.71 65.94)">N</text><text class="cls-2" transform="translate(159.79 65.94)">H</text><text class="cls-3" transform="translate(163.88 66.81)">2</text></g><polygon points="151.65 75.5 158.05 86.59 157.75 86.59 157.46 86.59 151.19 75.74 151.34 75.48 151.65 75.5"/><polygon points="138.22 75.5 132.76 67.81 133.76 67.23 134.76 66.66 138.69 75.23 138.52 75.48 138.22 75.5"/><g class="cls-1"><text class="cls-2" transform="translate(129.91 66.67)">O</text></g><polygon points="138.69 53.54 134.76 62.11 133.76 61.53 132.76 60.95 138.22 53.27 138.52 53.28 138.69 53.54"/><polygon points="138.22 53.27 131.89 42.3 132.11 42.18 132.41 42.18 138.67 53.02 138.52 53.28 138.22 53.27"/><polygon points="131.89 42.05 138.22 31.09 138.52 31.07 138.67 31.33 132.41 42.18 132.11 42.18 131.89 42.05"/><polygon points="138.69 30.82 151.34 30.82 151.34 31.07 151.19 31.33 138.67 31.33 138.52 31.07 138.69 30.82"/><polygon points="151.56 30.95 157.9 41.91 157.75 42.18 157.46 42.18 151.19 31.33 151.34 31.07 151.56 30.95"/><polygon points="157.9 42.44 153.21 50.56 152.99 50.43 152.77 50.3 157.46 42.18 157.75 42.18 157.9 42.44"/><g class="cls-1"><text class="cls-2" transform="translate(149.14 55.57)">O</text></g><polygon points="148.63 53.54 138.69 53.54 138.52 53.28 138.67 53.02 148.63 53.02 148.63 53.28 148.63 53.54"/><polygon points="157.9 41.91 170.96 41 170.57 42.18 170.22 43.31 157.9 42.44 157.75 42.18 157.9 41.91"/><polygon points="170.96 41 175.11 33.8 175.34 33.93 175.56 34.05 170.22 43.31 170.57 42.18 170.96 41"/><g class="cls-1"><text class="cls-2" transform="translate(174.94 32.64)">N</text><text class="cls-2" transform="translate(179.02 32.64)">H</text><text class="cls-3" transform="translate(183.11 33.51)">2</text></g><polygon points="151.61 31.18 151.12 30.9 151.25 30.68 151.37 30.45 151.87 30.74 151.74 30.96 151.61 31.18"/><polygon points="152.48 29.96 151.74 29.53 151.87 29.31 152 29.09 152.74 29.51 152.61 29.73 152.48 29.96"/><polygon points="153.35 28.73 152.37 28.17 152.5 27.94 152.63 27.72 153.61 28.29 153.48 28.51 153.35 28.73"/><polygon points="154.22 27.51 153 26.8 153.12 26.58 153.25 26.36 154.48 27.06 154.35 27.29 154.22 27.51"/><polygon points="155.09 26.28 153.62 25.43 153.75 25.21 153.88 24.99 155.35 25.84 155.22 26.06 155.09 26.28"/><polygon points="155.96 25.06 154.25 24.07 154.38 23.85 154.5 23.62 156.22 24.61 156.09 24.84 155.96 25.06"/><polygon points="156.83 23.83 154.87 22.7 155 22.48 155.13 22.26 157.09 23.39 156.96 23.61 156.83 23.83"/><g class="cls-1"><text class="cls-2" transform="translate(155.55 22.26)">O</text><text class="cls-2" transform="translate(159.95 22.26)">H</text></g><polygon points="138.22 31.09 132.76 23.4 133.76 22.82 134.76 22.25 138.69 30.82 138.52 31.07 138.22 31.09"/><g class="cls-1"><text class="cls-2" transform="translate(125.83 22.26)">H</text><text class="cls-2" transform="translate(129.92 22.26)">O</text></g><polygon points="132.07 41.9 132.07 42.46 131.82 42.46 131.56 42.46 131.56 41.9 131.82 41.9 132.07 41.9"/><polygon points="130.69 41.77 130.69 42.58 130.43 42.58 130.18 42.58 130.18 41.77 130.43 41.77 130.69 41.77"/><polygon points="129.3 41.65 129.3 42.7 129.04 42.7 128.79 42.7 128.79 41.65 129.04 41.65 129.3 41.65"/><polygon points="127.91 41.53 127.91 42.82 127.66 42.82 127.4 42.82 127.4 41.53 127.66 41.53 127.91 41.53"/><polygon points="126.52 41.41 126.52 42.94 126.27 42.94 126.01 42.94 126.01 41.41 126.27 41.41 126.52 41.41"/><polygon points="125.14 41.29 125.14 43.07 124.88 43.07 124.62 43.07 124.62 41.29 124.88 41.29 125.14 41.29"/><polygon points="123.75 41.17 123.75 43.19 123.49 43.19 123.23 43.19 123.23 41.17 123.49 41.17 123.75 41.17"/><polygon points="122.36 41.05 122.36 43.31 122.1 43.31 121.85 43.31 121.85 41.05 122.1 41.05 122.36 41.05"/><g class="cls-1"><text class="cls-2" transform="translate(111.29 43.74)">H</text><text class="cls-3" transform="translate(115.37 44.61)">2</text><text class="cls-2" transform="translate(117.3 43.74)">N</text></g><polygon points="131.97 86.86 122 87.74 122 86.59 122 85.43 131.97 86.32 132.11 86.59 131.97 86.86"/><g class="cls-1"><text class="cls-2" transform="translate(117.1 88.87)">O</text></g><polygon points="113.18 75.45 118.65 83.16 117.65 83.73 116.65 84.31 112.71 75.72 112.88 75.48 113.18 75.45"/><polygon points="112.71 75.72 100.11 74.4 100.14 74.14 100.35 73.91 112.72 75.21 112.88 75.48 112.71 75.72"/><polygon points="99.88 74.2 97.22 61.66 97.47 61.6 97.76 61.73 100.35 73.91 100.14 74.14 99.88 74.2"/><polygon points="97.34 61.38 108.32 55.04 108.57 55.19 108.54 55.51 97.76 61.73 97.47 61.6 97.34 61.38"/><polygon points="108.85 55.1 115.56 61.14 115.39 61.33 115.21 61.52 108.54 55.51 108.57 55.19 108.85 55.1"/><g class="cls-1"><text class="cls-2" transform="translate(115.9 66.06)">O</text></g><polygon points="117.06 66.73 113.18 75.45 112.88 75.48 112.72 75.21 116.59 66.52 116.83 66.62 117.06 66.73"/><polygon points="108.32 55.04 108.78 41.94 109.91 42.45 111 42.92 108.85 55.1 108.57 55.19 108.32 55.04"/><polygon points="108.78 41.94 102.1 37.09 102.25 36.88 102.4 36.67 111 42.92 109.91 42.45 108.78 41.94"/><g class="cls-1"><text class="cls-2" transform="translate(93.26 37.2)">H</text><text class="cls-2" transform="translate(97.34 37.2)">O</text></g><polygon points="97.55 61.33 97.32 61.85 97.08 61.74 96.85 61.64 97.08 61.12 97.31 61.22 97.55 61.33"/><polygon points="96.19 60.57 95.84 61.34 95.61 61.24 95.38 61.14 95.72 60.36 95.95 60.47 96.19 60.57"/><polygon points="94.83 59.81 94.37 60.84 94.14 60.74 93.9 60.63 94.36 59.6 94.6 59.71 94.83 59.81"/><polygon points="93.47 59.05 92.9 60.34 92.66 60.24 92.43 60.13 93 58.84 93.24 58.95 93.47 59.05"/><polygon points="92.11 58.29 91.42 59.84 91.19 59.74 90.95 59.63 91.64 58.08 91.88 58.19 92.11 58.29"/><polygon points="90.75 57.53 89.95 59.34 89.72 59.23 89.48 59.13 90.29 57.32 90.52 57.43 90.75 57.53"/><polygon points="89.4 56.77 88.48 58.84 88.24 58.73 88.01 58.63 88.93 56.56 89.16 56.67 89.4 56.77"/><g class="cls-1"><text class="cls-2" transform="translate(83.56 58.68)">O</text></g><polygon points="75.59 64.13 75.25 63.67 75.46 63.52 75.67 63.37 76 63.83 75.79 63.98 75.59 64.13"/><polygon points="76.87 63.37 76.37 62.68 76.58 62.53 76.79 62.38 77.29 63.07 77.08 63.22 76.87 63.37"/><polygon points="78.16 62.61 77.49 61.7 77.7 61.55 77.91 61.39 78.57 62.31 78.36 62.46 78.16 62.61"/><polygon points="79.44 61.85 78.61 60.71 78.82 60.56 79.03 60.41 79.86 61.55 79.65 61.7 79.44 61.85"/><polygon points="80.73 61.09 79.73 59.72 79.94 59.57 80.14 59.42 81.14 60.79 80.93 60.94 80.73 61.09"/><polygon points="82.01 60.33 80.85 58.73 81.06 58.58 81.26 58.43 82.42 60.03 82.22 60.18 82.01 60.33"/><polygon points="83.3 59.58 81.97 57.75 82.17 57.6 82.38 57.45 83.71 59.27 83.5 59.42 83.3 59.58"/><polygon points="75.15 64.1 63.7 59.01 63.67 58.71 63.93 58.54 75.49 63.69 75.39 63.92 75.15 64.1"/><polygon points="63.7 59.01 53.57 66.36 53.3 66.25 53.15 66.04 63.39 58.6 63.67 58.71 63.7 59.01"/><polygon points="53.57 66.36 54.88 78.82 54.64 79 54.37 78.86 53.05 66.27 53.3 66.25 53.57 66.36"/><polygon points="54.88 78.82 66.32 83.92 66.36 84.21 66.11 84.38 54.69 79.3 54.64 79 54.88 78.82"/><polygon points="66.32 83.92 73.86 78.44 74.01 78.64 74.17 78.85 66.64 84.32 66.36 84.21 66.32 83.92"/><g class="cls-1"><text class="cls-2" transform="translate(74.53 78.96)">O</text></g><polygon points="76.17 73.85 75.15 64.1 75.39 63.92 75.64 63.9 76.68 73.8 76.43 73.82 76.17 73.85"/><polygon points="66.64 84.32 68.78 96.49 67.69 96.96 66.56 97.47 66.11 84.38 66.36 84.21 66.64 84.32"/><polygon points="68.78 96.49 60.03 102.85 59.88 102.64 59.73 102.43 66.56 97.47 67.69 96.96 68.78 96.49"/><g class="cls-1"><text class="cls-2" transform="translate(49.31 106.06)">H</text><text class="cls-3" transform="translate(53.4 106.92)">2</text><text class="cls-2" transform="translate(55.33 106.06)">N</text></g><polygon points="54.69 79.3 47.66 85.49 46.98 84.56 46.31 83.63 54.37 78.86 54.64 79 54.69 79.3"/><g class="cls-1"><text class="cls-2" transform="translate(37.99 88.82)">H</text><text class="cls-2" transform="translate(42.07 88.82)">O</text></g><polygon points="53.38 65.97 53.15 66.49 52.92 66.38 52.68 66.28 52.91 65.76 53.15 65.87 53.38 65.97"/><polygon points="52.02 65.21 51.68 65.99 51.44 65.88 51.21 65.78 51.56 65 51.79 65.11 52.02 65.21"/><polygon points="50.66 64.45 50.2 65.48 49.97 65.38 49.74 65.28 50.2 64.24 50.43 64.35 50.66 64.45"/><polygon points="49.31 63.69 48.73 64.98 48.5 64.88 48.26 64.78 48.84 63.48 49.07 63.59 49.31 63.69"/><polygon points="47.95 62.93 47.26 64.48 47.02 64.38 46.79 64.27 47.48 62.72 47.71 62.83 47.95 62.93"/><polygon points="46.59 62.17 45.78 63.98 45.55 63.88 45.32 63.77 46.12 61.97 46.35 62.07 46.59 62.17"/><polygon points="45.23 61.41 44.31 63.48 44.08 63.38 43.84 63.27 44.76 61.21 45 61.31 45.23 61.41"/><g class="cls-1"><text class="cls-2" transform="translate(35.31 63.32)">H</text><text class="cls-2" transform="translate(39.39 63.32)">O</text></g><polygon points="63.39 58.6 61.49 48.93 62.63 48.81 63.78 48.69 63.93 58.54 63.67 58.71 63.39 58.6"/><g class="cls-1"><text class="cls-2" transform="translate(54.33 47.52)">H</text><text class="cls-3" transform="translate(58.41 48.39)">2</text><text class="cls-2" transform="translate(60.34 47.52)">N</text></g><polygon points="99.89 73.98 100.32 74.37 100.15 74.56 99.98 74.75 99.55 74.37 99.72 74.17 99.89 73.98"/><polygon points="98.85 74.93 99.48 75.5 99.31 75.7 99.14 75.89 98.51 75.31 98.68 75.13 98.85 74.93"/><polygon points="97.81 75.88 98.65 76.64 98.48 76.83 98.3 77.02 97.46 76.27 97.63 76.08 97.81 75.88"/><polygon points="96.76 76.83 97.81 77.78 97.64 77.97 97.47 78.16 96.42 77.22 96.59 77.03 96.76 76.83"/><polygon points="95.72 77.78 96.98 78.92 96.81 79.11 96.63 79.3 95.37 78.17 95.55 77.97 95.72 77.78"/><polygon points="94.67 78.73 96.14 80.06 95.97 80.25 95.8 80.44 94.33 79.11 94.5 78.92 94.67 78.73"/><polygon points="93.63 79.68 95.31 81.19 95.13 81.38 94.96 81.58 93.28 80.06 93.46 79.87 93.63 79.68"/><g class="cls-1"><text class="cls-2" transform="translate(85.28 85.96)">H</text><text class="cls-2" transform="translate(89.36 85.96)">O</text></g><polygon points="138.26 97.58 138.75 97.86 138.62 98.09 138.49 98.31 138 98.03 138.13 97.8 138.26 97.58"/><polygon points="137.39 98.81 138.12 99.23 138 99.45 137.87 99.67 137.13 99.25 137.26 99.03 137.39 98.81"/><polygon points="136.52 100.03 137.5 100.6 137.37 100.82 137.24 101.04 136.26 100.47 136.39 100.25 136.52 100.03"/><polygon points="135.65 101.26 136.87 101.96 136.74 102.19 136.62 102.41 135.39 101.7 135.52 101.48 135.65 101.26"/><polygon points="134.78 102.48 136.25 103.33 136.12 103.55 135.99 103.77 134.52 102.92 134.65 102.7 134.78 102.48"/><polygon points="133.91 103.71 135.62 104.69 135.49 104.92 135.36 105.14 133.65 104.15 133.78 103.93 133.91 103.71"/><polygon points="133.04 104.93 134.99 106.06 134.87 106.28 134.74 106.5 132.78 105.38 132.91 105.15 133.04 104.93"/><g class="cls-1"><text class="cls-2" transform="translate(125.83 111.08)">H</text><text class="cls-2" transform="translate(129.92 111.08)">O</text></g><polygon points="151.65 97.67 157.11 105.36 156.11 105.94 155.11 106.52 151.18 97.94 151.34 97.69 151.65 97.67"/><g class="cls-1"><text class="cls-2" transform="translate(155.71 110.35)">N</text><text class="cls-2" transform="translate(159.79 110.35)">H</text><text class="cls-3" transform="translate(163.88 111.22)">2</text></g></svg>