<svg id="图层_1" data-name="图层 1" xmlns="http://www.w3.org/2000/svg" viewBox="0 0 200 130"><defs><style>.cls-1,.cls-2,.cls-3{isolation:isolate;}.cls-2{font-size:6.18px;}.cls-2,.cls-3{font-family:ArialMT, Arial;}.cls-3{font-size:3.8px;}</style></defs><title>NeomycinB_Simi_compound3</title><polygon points="152.9 89.38 145.9 101.5 145.57 101.52 145.41 101.24 152.25 89.38 152.58 89.38 152.9 89.38"/><polygon points="145.39 101.8 131.55 101.8 131.55 101.52 131.71 101.24 145.41 101.24 145.57 101.52 145.39 101.8"/><polygon points="131.31 101.66 124.38 89.67 124.54 89.38 124.86 89.38 131.71 101.24 131.55 101.52 131.31 101.66"/><polygon points="124.38 89.08 131.31 77.09 131.55 77.23 131.71 77.52 124.86 89.38 124.54 89.38 124.38 89.08"/><polygon points="131.55 76.95 145.39 76.95 145.57 77.23 145.41 77.52 131.71 77.52 131.55 77.23 131.55 76.95"/><polygon points="145.39 76.95 149.69 67.58 150.78 68.21 151.87 68.84 145.9 77.25 145.57 77.23 145.39 76.95"/><g class="cls-1"><text class="cls-2" transform="translate(150.35 66.8)">N</text><text class="cls-2" transform="translate(154.81 66.8)">H</text><text class="cls-3" transform="translate(159.28 67.75)">2</text></g><polygon points="145.9 77.25 152.9 89.38 152.58 89.38 152.25 89.38 145.41 77.52 145.57 77.23 145.9 77.25"/><polygon points="131.79 77.04 131.26 77.35 131.12 77.11 130.98 76.87 131.51 76.56 131.66 76.8 131.79 77.04"/><polygon points="131.11 75.55 130.31 76.01 130.16 75.77 130.02 75.53 130.83 75.06 130.97 75.3 131.11 75.55"/><polygon points="130.43 74.05 129.35 74.67 129.21 74.43 129.07 74.19 130.15 73.57 130.29 73.81 130.43 74.05"/><polygon points="129.74 72.56 128.4 73.33 128.26 73.09 128.12 72.85 129.46 72.07 129.6 72.32 129.74 72.56"/><polygon points="129.06 71.06 127.45 71.99 127.31 71.75 127.17 71.51 128.78 70.58 128.92 70.82 129.06 71.06"/><polygon points="128.37 69.57 126.5 70.65 126.36 70.41 126.22 70.17 128.09 69.09 128.23 69.33 128.37 69.57"/><polygon points="127.69 68.08 125.55 69.31 125.41 69.07 125.27 68.83 127.41 67.59 127.55 67.83 127.69 68.08"/><g class="cls-1"><text class="cls-2" transform="translate(122.13 67.6)">O</text></g><polygon points="131.26 52.83 131.79 53.15 131.66 53.39 131.51 53.63 130.98 53.32 131.12 53.08 131.26 52.83"/><polygon points="130.31 54.17 131.11 54.64 130.97 54.88 130.83 55.12 130.02 54.66 130.16 54.42 130.31 54.17"/><polygon points="129.35 55.51 130.43 56.13 130.29 56.38 130.15 56.62 129.07 56 129.21 55.76 129.35 55.51"/><polygon points="128.4 56.85 129.74 57.63 129.6 57.87 129.46 58.11 128.12 57.34 128.26 57.1 128.4 56.85"/><polygon points="127.45 58.19 129.06 59.12 128.92 59.36 128.78 59.61 127.17 58.68 127.31 58.44 127.45 58.19"/><polygon points="126.5 59.53 128.37 60.61 128.23 60.86 128.09 61.1 126.22 60.02 126.36 59.77 126.5 59.53"/><polygon points="125.55 60.87 127.69 62.11 127.55 62.35 127.41 62.59 125.27 61.36 125.41 61.12 125.55 60.87"/><polygon points="131.31 53.09 124.3 40.95 124.54 40.81 124.86 40.81 131.71 52.67 131.55 52.95 131.31 53.09"/><polygon points="124.3 40.67 131.22 28.68 131.55 28.67 131.71 28.95 124.86 40.81 124.54 40.81 124.3 40.67"/><polygon points="131.73 28.39 145.57 28.39 145.57 28.67 145.41 28.95 131.71 28.95 131.55 28.67 131.73 28.39"/><polygon points="145.81 28.53 152.73 40.52 152.58 40.81 152.25 40.81 145.41 28.95 145.57 28.67 145.81 28.53"/><polygon points="152.73 41.1 147.61 49.97 147.37 49.83 147.13 49.69 152.25 40.81 152.58 40.81 152.73 41.1"/><g class="cls-1"><text class="cls-2" transform="translate(143.16 55.45)">O</text></g><polygon points="142.6 53.23 131.55 53.23 131.55 52.95 131.71 52.67 142.6 52.67 142.6 52.95 142.6 53.23"/><polygon points="152.73 40.52 167.02 39.52 166.6 40.81 166.21 42.04 152.73 41.1 152.58 40.81 152.73 40.52"/><polygon points="167.02 39.52 171.56 31.64 171.81 31.79 172.05 31.93 166.21 42.04 166.6 40.81 167.02 39.52"/><g class="cls-1"><text class="cls-2" transform="translate(171.2 31.17)">O</text><text class="cls-2" transform="translate(176.01 31.17)">H</text></g><polygon points="145.86 28.78 145.32 28.47 145.46 28.23 145.6 27.99 146.14 28.3 146 28.54 145.86 28.78"/><polygon points="146.81 27.44 146 26.98 146.15 26.74 146.29 26.49 147.09 26.96 146.95 27.2 146.81 27.44"/><polygon points="147.76 26.1 146.69 25.48 146.83 25.24 146.97 25 148.04 25.62 147.9 25.86 147.76 26.1"/><polygon points="148.71 24.77 147.37 23.99 147.51 23.75 147.66 23.51 148.99 24.28 148.85 24.52 148.71 24.77"/><polygon points="149.66 23.43 148.06 22.5 148.2 22.25 148.34 22.01 149.95 22.94 149.81 23.18 149.66 23.43"/><polygon points="150.62 22.09 148.74 21 148.88 20.76 149.02 20.52 150.9 21.6 150.76 21.84 150.62 22.09"/><polygon points="151.57 20.75 149.43 19.51 149.57 19.27 149.71 19.02 151.85 20.26 151.71 20.5 151.57 20.75"/><g class="cls-1"><text class="cls-2" transform="translate(150.17 19.03)">O</text><text class="cls-2" transform="translate(154.98 19.03)">H</text></g><polygon points="131.22 28.68 125.25 20.27 126.34 19.64 127.43 19.01 131.73 28.39 131.55 28.67 131.22 28.68"/><g class="cls-1"><text class="cls-2" transform="translate(117.67 19.03)">H</text><text class="cls-2" transform="translate(122.13 19.03)">O</text></g><polygon points="124.5 40.5 124.5 41.12 124.22 41.12 123.94 41.12 123.94 40.5 124.22 40.5 124.5 40.5"/><polygon points="122.98 40.37 122.98 41.25 122.7 41.25 122.42 41.25 122.42 40.37 122.7 40.37 122.98 40.37"/><polygon points="121.46 40.23 121.46 41.38 121.18 41.38 120.9 41.38 120.9 40.23 121.18 40.23 121.46 40.23"/><polygon points="119.94 40.1 119.94 41.52 119.66 41.52 119.38 41.52 119.38 40.1 119.66 40.1 119.94 40.1"/><polygon points="118.42 39.97 118.42 41.65 118.14 41.65 117.86 41.65 117.86 39.97 118.14 39.97 118.42 39.97"/><polygon points="116.91 39.84 116.91 41.78 116.63 41.78 116.34 41.78 116.34 39.84 116.63 39.84 116.91 39.84"/><polygon points="115.39 39.7 115.39 41.91 115.11 41.91 114.83 41.91 114.83 39.7 115.11 39.7 115.39 39.7"/><polygon points="113.87 39.57 113.87 42.05 113.59 42.05 113.31 42.05 113.31 39.57 113.59 39.57 113.87 39.57"/><g class="cls-1"><text class="cls-2" transform="translate(101.76 42.52)">H</text><text class="cls-3" transform="translate(106.22 43.47)">2</text><text class="cls-2" transform="translate(108.34 42.52)">N</text></g><polygon points="124.38 89.67 113.48 90.64 113.48 89.38 113.48 88.11 124.38 89.08 124.54 89.38 124.38 89.67"/><g class="cls-1"><text class="cls-2" transform="translate(108.11 91.88)">O</text></g><polygon points="103.83 77.2 109.81 85.63 108.72 86.26 107.62 86.89 103.32 77.5 103.51 77.23 103.83 77.2"/><polygon points="103.32 77.5 89.53 76.05 89.56 75.77 89.8 75.51 103.33 76.93 103.51 77.23 103.32 77.5"/><polygon points="89.29 75.83 86.37 62.11 86.65 62.05 86.97 62.2 89.8 75.51 89.56 75.77 89.29 75.83"/><polygon points="86.51 61.81 98.52 54.88 98.79 55.05 98.75 55.39 86.97 62.2 86.65 62.05 86.51 61.81"/><polygon points="99.09 54.94 106.43 61.55 106.24 61.76 106.06 61.96 98.75 55.39 98.79 55.05 99.09 54.94"/><g class="cls-1"><text class="cls-2" transform="translate(106.8 66.93)">O</text></g><polygon points="108.08 67.66 103.83 77.2 103.51 77.23 103.33 76.93 107.56 67.43 107.82 67.54 108.08 67.66"/><polygon points="98.52 54.88 99.02 40.55 100.26 41.1 101.44 41.62 99.09 54.94 98.79 55.05 98.52 54.88"/><polygon points="99.02 40.55 91.71 35.24 91.88 35.02 92.04 34.79 101.44 41.62 100.26 41.1 99.02 40.55"/><g class="cls-1"><text class="cls-2" transform="translate(82.05 35.36)">H</text><text class="cls-2" transform="translate(86.51 35.36)">O</text></g><polygon points="86.73 61.75 86.48 62.32 86.23 62.21 85.97 62.09 86.22 61.53 86.48 61.64 86.73 61.75"/><polygon points="85.25 60.92 84.87 61.77 84.61 61.66 84.36 61.54 84.74 60.7 84.99 60.81 85.25 60.92"/><polygon points="83.76 60.09 83.26 61.22 83 61.11 82.75 61 83.25 59.87 83.51 59.98 83.76 60.09"/><polygon points="82.28 59.26 81.65 60.68 81.39 60.56 81.14 60.45 81.77 59.03 82.02 59.15 82.28 59.26"/><polygon points="80.79 58.43 80.04 60.13 79.78 60.01 79.53 59.9 80.28 58.2 80.53 58.32 80.79 58.43"/><polygon points="79.31 57.6 78.43 59.58 78.17 59.47 77.91 59.35 78.79 57.37 79.05 57.49 79.31 57.6"/><polygon points="77.82 56.77 76.81 59.03 76.56 58.92 76.3 58.8 77.31 56.54 77.56 56.66 77.82 56.77"/><g class="cls-1"><text class="cls-2" transform="translate(71.44 58.86)">O</text></g><polygon points="62.45 64.26 70.13 57.49 70.87 58.51 71.62 59.53 62.8 64.74 62.5 64.59 62.45 64.26"/><polygon points="62.24 64.78 49.72 59.21 49.69 58.89 49.97 58.71 62.45 64.26 62.5 64.59 62.24 64.78"/><polygon points="49.72 59.21 38.64 67.26 38.35 67.13 38.18 66.9 49.38 58.77 49.69 58.89 49.72 59.21"/><polygon points="38.64 67.26 40.07 80.89 39.81 81.08 39.51 80.93 38.07 67.16 38.35 67.13 38.64 67.26"/><polygon points="40.07 80.89 52.59 86.45 52.62 86.78 52.35 86.96 39.86 81.41 39.81 81.08 40.07 80.89"/><polygon points="52.59 86.45 60.83 80.47 61 80.69 61.16 80.92 52.93 86.9 52.62 86.78 52.59 86.45"/><g class="cls-1"><text class="cls-2" transform="translate(61.56 81.04)">O</text></g><polygon points="63.36 75.45 62.24 64.78 62.5 64.59 62.8 64.74 63.91 75.39 63.63 75.42 63.36 75.45"/><polygon points="52.93 86.9 55.27 100.21 54.09 100.72 52.85 101.28 52.35 86.96 52.62 86.78 52.93 86.9"/><polygon points="55.27 100.21 45.7 107.16 45.54 106.93 45.37 106.71 52.85 101.28 54.09 100.72 55.27 100.21"/><g class="cls-1"><text class="cls-2" transform="translate(33.99 110.67)">H</text><text class="cls-3" transform="translate(38.45 111.62)">2</text><text class="cls-2" transform="translate(40.57 110.67)">N</text></g><polygon points="39.86 81.41 32.18 88.18 31.44 87.16 30.69 86.14 39.51 80.93 39.81 81.08 39.86 81.41"/><g class="cls-1"><text class="cls-2" transform="translate(21.6 91.82)">H</text><text class="cls-2" transform="translate(26.07 91.82)">O</text></g><polygon points="38.43 66.83 38.18 67.4 37.92 67.28 37.67 67.17 37.92 66.6 38.18 66.72 38.43 66.83"/><polygon points="36.95 66 36.57 66.85 36.31 66.73 36.06 66.62 36.44 65.77 36.69 65.89 36.95 66"/><polygon points="35.46 65.17 34.96 66.3 34.7 66.19 34.45 66.07 34.95 64.94 35.21 65.06 35.46 65.17"/><polygon points="33.98 64.34 33.35 65.75 33.09 65.64 32.84 65.52 33.46 64.11 33.72 64.22 33.98 64.34"/><polygon points="32.49 63.51 31.73 65.2 31.48 65.09 31.22 64.97 31.98 63.28 32.23 63.39 32.49 63.51"/><polygon points="31 62.68 30.12 64.66 29.87 64.54 29.61 64.43 30.49 62.45 30.75 62.56 31 62.68"/><polygon points="29.52 61.85 28.51 64.11 28.26 63.99 28 63.88 29.01 61.62 29.26 61.73 29.52 61.85"/><g class="cls-1"><text class="cls-2" transform="translate(18.67 63.93)">H</text><text class="cls-2" transform="translate(23.13 63.93)">O</text></g><polygon points="49.38 58.77 47.3 48.2 48.55 48.06 49.81 47.93 49.97 58.71 49.69 58.89 49.38 58.77"/><g class="cls-1"><text class="cls-2" transform="translate(39.47 46.65)">H</text><text class="cls-3" transform="translate(43.93 47.6)">2</text><text class="cls-2" transform="translate(46.05 46.65)">N</text></g><polygon points="89.3 75.59 89.77 76.01 89.58 76.22 89.39 76.43 88.92 76.01 89.11 75.8 89.3 75.59"/><polygon points="88.16 76.63 88.85 77.26 88.66 77.47 88.48 77.67 87.78 77.05 87.97 76.84 88.16 76.63"/><polygon points="87.02 77.67 87.94 78.5 87.75 78.71 87.56 78.92 86.64 78.09 86.83 77.88 87.02 77.67"/><polygon points="85.87 78.71 87.02 79.75 86.84 79.95 86.65 80.16 85.5 79.13 85.69 78.92 85.87 78.71"/><polygon points="84.73 79.75 86.11 80.99 85.92 81.2 85.73 81.41 84.36 80.17 84.55 79.96 84.73 79.75"/><polygon points="83.59 80.79 85.2 82.23 85.01 82.44 84.82 82.65 83.22 81.21 83.4 81 83.59 80.79"/><polygon points="82.45 81.83 84.28 83.48 84.09 83.69 83.91 83.9 82.07 82.25 82.26 82.04 82.45 81.83"/><g class="cls-1"><text class="cls-2" transform="translate(73.31 88.69)">H</text><text class="cls-2" transform="translate(77.78 88.69)">O</text></g><polygon points="131.26 101.4 131.79 101.71 131.66 101.95 131.51 102.2 130.98 101.89 131.12 101.64 131.26 101.4"/><polygon points="130.31 102.74 131.11 103.21 130.97 103.45 130.83 103.69 130.02 103.23 130.16 102.98 130.31 102.74"/><polygon points="129.35 104.08 130.43 104.7 130.29 104.94 130.15 105.19 129.07 104.57 129.21 104.32 129.35 104.08"/><polygon points="128.4 105.42 129.74 106.19 129.6 106.44 129.46 106.68 128.12 105.91 128.26 105.66 128.4 105.42"/><polygon points="127.45 106.76 129.06 107.69 128.92 107.93 128.78 108.17 127.17 107.25 127.31 107 127.45 106.76"/><polygon points="126.5 108.1 128.37 109.18 128.23 109.42 128.09 109.67 126.22 108.59 126.36 108.34 126.5 108.1"/><polygon points="125.55 109.44 127.69 110.67 127.55 110.92 127.41 111.16 125.27 109.92 125.41 109.68 125.55 109.44"/><g class="cls-1"><text class="cls-2" transform="translate(117.67 116.16)">H</text><text class="cls-2" transform="translate(122.13 116.16)">O</text></g><polygon points="145.9 101.5 151.87 109.91 150.78 110.54 149.69 111.17 145.39 101.8 145.57 101.52 145.9 101.5"/><g class="cls-1"><text class="cls-2" transform="translate(150.35 115.37)">N</text><text class="cls-2" transform="translate(154.81 115.37)">H</text><text class="cls-3" transform="translate(159.28 116.32)">2</text></g></svg>