<svg id="图层_1" data-name="图层 1" xmlns="http://www.w3.org/2000/svg" viewBox="0 0 200 130"><defs><style>.cls-1,.cls-2,.cls-3{isolation:isolate;}.cls-2{font-size:5.81px;}.cls-2,.cls-3{font-family:ArialMT, Arial;}.cls-3{font-size:3.58px;}</style></defs><title>NeomycinB_Simi_compound7.</title><polygon points="155.95 87.6 149.37 99 149.06 99.01 148.91 98.75 155.35 87.6 155.65 87.6 155.95 87.6"/><polygon points="148.89 99.28 135.89 99.28 135.89 99.01 136.04 98.75 148.91 98.75 149.06 99.01 148.89 99.28"/><polygon points="135.66 99.14 129.15 87.88 129.3 87.6 129.6 87.6 136.04 98.75 135.89 99.01 135.66 99.14"/><polygon points="129.15 87.33 135.57 76.2 135.89 76.19 136.04 76.45 129.6 87.6 129.3 87.6 129.15 87.33"/><polygon points="136.05 75.93 148.89 75.93 149.06 76.19 148.91 76.45 136.04 76.45 135.89 76.19 136.05 75.93"/><polygon points="148.89 75.93 152.93 67.12 153.96 67.71 154.99 68.3 149.37 76.2 149.06 76.19 148.89 75.93"/><g class="cls-1"><text class="cls-2" transform="translate(153.55 66.38)">N</text><text class="cls-2" transform="translate(157.75 66.38)">H</text><text class="cls-3" transform="translate(161.94 67.28)">2</text></g><polygon points="149.37 76.2 155.95 87.6 155.65 87.6 155.35 87.6 148.91 76.45 149.06 76.19 149.37 76.2"/><polygon points="135.57 76.2 129.96 68.3 130.99 67.71 132.02 67.12 136.05 75.93 135.89 76.19 135.57 76.2"/><g class="cls-1"><text class="cls-2" transform="translate(127.04 67.13)">O</text></g><polygon points="136.05 53.63 132.02 62.44 130.99 61.85 129.96 61.26 135.57 53.35 135.89 53.37 136.05 53.63"/><polygon points="135.57 53.35 129.07 42.09 129.3 41.96 129.6 41.96 136.04 53.1 135.89 53.37 135.57 53.35"/><polygon points="129.07 41.83 135.57 30.56 135.89 30.55 136.04 30.81 129.6 41.96 129.3 41.96 129.07 41.83"/><polygon points="136.05 30.28 148.89 30.28 149.06 30.55 148.91 30.81 136.04 30.81 135.89 30.55 136.05 30.28"/><polygon points="149.37 30.56 155.8 41.68 155.65 41.96 155.35 41.96 148.91 30.81 149.06 30.55 149.37 30.56"/><polygon points="155.8 42.23 150.98 50.57 150.75 50.44 150.53 50.31 155.35 41.96 155.65 41.96 155.8 42.23"/><g class="cls-1"><text class="cls-2" transform="translate(146.8 55.72)">O</text></g><polygon points="146.28 53.63 136.05 53.63 135.89 53.37 136.04 53.1 146.28 53.1 146.28 53.37 146.28 53.63"/><polygon points="155.8 41.68 169.22 40.74 168.83 41.96 168.46 43.12 155.8 42.23 155.65 41.96 155.8 41.68"/><polygon points="169.22 40.74 173.49 33.35 173.72 33.48 173.95 33.61 168.46 43.12 168.83 41.96 169.22 40.74"/><g class="cls-1"><text class="cls-2" transform="translate(173.32 32.15)">N</text><text class="cls-2" transform="translate(177.51 32.15)">H</text><text class="cls-3" transform="translate(181.71 33.05)">2</text></g><polygon points="148.89 30.28 152.93 21.47 153.96 22.07 154.99 22.66 149.37 30.56 149.06 30.55 148.89 30.28"/><g class="cls-1"><text class="cls-2" transform="translate(153.39 21.49)">O</text><text class="cls-2" transform="translate(157.91 21.49)">H</text></g><polygon points="135.57 30.56 129.96 22.66 130.99 22.07 132.02 21.47 136.05 30.28 135.89 30.55 135.57 30.56"/><g class="cls-1"><text class="cls-2" transform="translate(122.84 21.49)">H</text><text class="cls-2" transform="translate(127.04 21.49)">O</text></g><polygon points="129.26 41.67 129.26 42.25 129 42.25 128.73 42.25 128.73 41.67 129 41.67 129.26 41.67"/><polygon points="127.83 41.54 127.83 42.37 127.57 42.37 127.31 42.37 127.31 41.54 127.57 41.54 127.83 41.54"/><polygon points="126.41 41.42 126.41 42.5 126.14 42.5 125.88 42.5 125.88 41.42 126.14 41.42 126.41 41.42"/><polygon points="124.98 41.29 124.98 42.62 124.72 42.62 124.45 42.62 124.45 41.29 124.72 41.29 124.98 41.29"/><polygon points="123.55 41.17 123.55 42.75 123.29 42.75 123.03 42.75 123.03 41.17 123.29 41.17 123.55 41.17"/><polygon points="122.13 41.05 122.13 42.87 121.86 42.87 121.6 42.87 121.6 41.05 121.86 41.05 122.13 41.05"/><polygon points="120.7 40.92 120.7 43 120.44 43 120.17 43 120.17 40.92 120.44 40.92 120.7 40.92"/><polygon points="119.27 40.8 119.27 43.12 119.01 43.12 118.75 43.12 118.75 40.8 119.01 40.8 119.27 40.8"/><g class="cls-1"><text class="cls-2" transform="translate(107.89 43.56)">H</text><text class="cls-3" transform="translate(112.09 44.46)">2</text><text class="cls-2" transform="translate(114.08 43.56)">N</text></g><polygon points="129.15 87.88 118.91 88.79 118.91 87.6 118.91 86.42 129.15 87.33 129.3 87.6 129.15 87.88"/><g class="cls-1"><text class="cls-2" transform="translate(113.86 89.95)">O</text></g><polygon points="109.83 76.16 115.46 84.08 114.43 84.67 113.4 85.26 109.36 76.44 109.53 76.19 109.83 76.16"/><polygon points="109.36 76.44 96.4 75.08 96.43 74.81 96.65 74.57 109.37 75.91 109.53 76.19 109.36 76.44"/><polygon points="96.17 74.87 93.43 61.98 93.69 61.92 93.99 62.06 96.65 74.57 96.43 74.81 96.17 74.87"/><polygon points="93.56 61.7 104.84 55.18 105.1 55.34 105.07 55.66 93.99 62.06 93.69 61.92 93.56 61.7"/><polygon points="105.39 55.24 112.28 61.45 112.11 61.64 111.93 61.84 105.07 55.66 105.1 55.34 105.39 55.24"/><g class="cls-1"><text class="cls-2" transform="translate(112.63 66.51)">O</text></g><polygon points="113.83 67.19 109.83 76.16 109.53 76.19 109.37 75.91 113.35 66.98 113.59 67.08 113.83 67.19"/><polygon points="104.84 55.18 105.31 41.71 106.48 42.23 107.59 42.72 105.39 55.24 105.1 55.34 104.84 55.18"/><polygon points="105.31 41.71 98.45 36.73 98.61 36.51 98.76 36.3 107.59 42.72 106.48 42.23 105.31 41.71"/><g class="cls-1"><text class="cls-2" transform="translate(89.36 36.84)">H</text><text class="cls-2" transform="translate(93.56 36.84)">O</text></g><polygon points="93.77 61.64 93.53 62.17 93.29 62.07 93.05 61.96 93.29 61.43 93.53 61.53 93.77 61.64"/><polygon points="92.38 60.86 92.02 61.66 91.78 61.55 91.54 61.45 91.89 60.65 92.14 60.76 92.38 60.86"/><polygon points="90.98 60.08 90.51 61.14 90.27 61.04 90.03 60.93 90.5 59.87 90.74 59.97 90.98 60.08"/><polygon points="89.58 59.3 88.99 60.63 88.75 60.52 88.51 60.41 89.1 59.09 89.34 59.19 89.58 59.3"/><polygon points="88.19 58.52 87.48 60.11 87.24 60.01 87 59.9 87.7 58.31 87.94 58.41 88.19 58.52"/><polygon points="86.79 57.74 85.96 59.6 85.72 59.49 85.48 59.38 86.31 57.53 86.55 57.63 86.79 57.74"/><polygon points="85.39 56.96 84.45 59.08 84.21 58.98 83.97 58.87 84.91 56.74 85.15 56.85 85.39 56.96"/><g class="cls-1"><text class="cls-2" transform="translate(79.39 58.92)">O</text></g><polygon points="71.2 64.52 70.86 64.05 71.07 63.89 71.28 63.74 71.63 64.21 71.41 64.37 71.2 64.52"/><polygon points="72.52 63.74 72.01 63.03 72.22 62.88 72.43 62.72 72.95 63.43 72.73 63.59 72.52 63.74"/><polygon points="73.84 62.96 73.16 62.02 73.37 61.87 73.58 61.71 74.27 62.65 74.05 62.81 73.84 62.96"/><polygon points="75.16 62.18 74.31 61.01 74.52 60.85 74.73 60.7 75.59 61.87 75.38 62.03 75.16 62.18"/><polygon points="76.48 61.4 75.46 59.99 75.67 59.84 75.88 59.68 76.91 61.09 76.69 61.25 76.48 61.4"/><polygon points="77.8 60.62 76.61 58.98 76.82 58.82 77.03 58.67 78.23 60.31 78.02 60.47 77.8 60.62"/><polygon points="79.12 59.84 77.76 57.96 77.97 57.81 78.19 57.65 79.55 59.53 79.34 59.69 79.12 59.84"/><polygon points="70.75 64.49 58.99 59.26 58.96 58.95 59.22 58.78 71.1 64.07 70.99 64.31 70.75 64.49"/><polygon points="58.99 59.26 48.58 66.82 48.3 66.69 48.14 66.48 58.67 58.84 58.96 58.95 58.99 59.26"/><polygon points="48.58 66.82 49.92 79.62 49.67 79.8 49.4 79.66 48.03 66.72 48.3 66.69 48.58 66.82"/><polygon points="49.92 79.62 61.68 84.86 61.71 85.16 61.45 85.33 49.72 80.11 49.67 79.8 49.92 79.62"/><polygon points="61.68 84.86 69.43 79.23 69.58 79.44 69.74 79.65 62 85.28 61.71 85.16 61.68 84.86"/><g class="cls-1"><text class="cls-2" transform="translate(70.11 79.77)">O</text></g><polygon points="71.8 74.51 70.75 64.49 70.99 64.31 71.26 64.28 72.33 74.46 72.06 74.48 71.8 74.51"/><polygon points="62 85.28 64.2 97.78 63.09 98.26 61.92 98.78 61.45 85.33 61.71 85.16 62 85.28"/><polygon points="64.2 97.78 55.21 104.31 55.05 104.1 54.9 103.89 61.92 98.78 63.09 98.26 64.2 97.78"/><g class="cls-1"><text class="cls-2" transform="translate(44.2 107.61)">H</text><text class="cls-3" transform="translate(48.39 108.51)">2</text><text class="cls-2" transform="translate(50.38 107.61)">N</text></g><polygon points="49.72 80.11 42.5 86.48 41.8 85.52 41.1 84.56 49.4 79.66 49.67 79.8 49.72 80.11"/><g class="cls-1"><text class="cls-2" transform="translate(32.56 89.9)">H</text><text class="cls-2" transform="translate(36.76 89.9)">O</text></g><polygon points="48.38 66.41 48.14 66.94 47.9 66.84 47.66 66.73 47.9 66.2 48.14 66.31 48.38 66.41"/><polygon points="46.98 65.63 46.63 66.43 46.39 66.32 46.15 66.22 46.5 65.42 46.74 65.53 46.98 65.63"/><polygon points="45.59 64.85 45.11 65.91 44.87 65.81 44.63 65.7 45.1 64.64 45.34 64.75 45.59 64.85"/><polygon points="44.19 64.07 43.6 65.4 43.36 65.29 43.12 65.19 43.71 63.86 43.95 63.96 44.19 64.07"/><polygon points="42.79 63.29 42.08 64.88 41.84 64.78 41.6 64.67 42.31 63.08 42.55 63.18 42.79 63.29"/><polygon points="41.4 62.51 40.57 64.37 40.33 64.26 40.09 64.15 40.91 62.3 41.16 62.4 41.4 62.51"/><polygon points="40 61.73 39.05 63.85 38.81 63.75 38.57 63.64 39.52 61.52 39.76 61.62 40 61.73"/><g class="cls-1"><text class="cls-2" transform="translate(29.8 63.69)">H</text><text class="cls-2" transform="translate(34 63.69)">O</text></g><polygon points="58.67 58.84 56.71 48.9 57.89 48.78 59.07 48.65 59.22 58.78 58.96 58.95 58.67 58.84"/><g class="cls-1"><text class="cls-2" transform="translate(49.35 47.45)">H</text><text class="cls-3" transform="translate(53.54 48.35)">2</text><text class="cls-2" transform="translate(55.53 47.45)">N</text></g><polygon points="96.18 74.65 96.62 75.04 96.44 75.24 96.27 75.44 95.83 75.04 96.01 74.85 96.18 74.65"/><polygon points="95.11 75.63 95.76 76.21 95.58 76.41 95.41 76.61 94.76 76.02 94.93 75.82 95.11 75.63"/><polygon points="94.04 76.6 94.9 77.38 94.73 77.58 94.55 77.77 93.68 76.99 93.86 76.8 94.04 76.6"/><polygon points="92.96 77.58 94.04 78.55 93.87 78.75 93.69 78.94 92.61 77.97 92.79 77.77 92.96 77.58"/><polygon points="91.89 78.56 93.18 79.72 93.01 79.92 92.83 80.11 91.54 78.95 91.71 78.75 91.89 78.56"/><polygon points="90.82 79.53 92.33 80.89 92.15 81.09 91.97 81.28 90.46 79.92 90.64 79.73 90.82 79.53"/><polygon points="89.74 80.51 91.47 82.06 91.29 82.25 91.11 82.45 89.39 80.9 89.57 80.7 89.74 80.51"/><g class="cls-1"><text class="cls-2" transform="translate(81.16 86.96)">H</text><text class="cls-2" transform="translate(85.36 86.96)">O</text></g><polygon points="135.61 98.9 136.12 99.19 135.99 99.42 135.85 99.65 135.35 99.36 135.48 99.13 135.61 98.9"/><polygon points="134.72 100.16 135.47 100.6 135.34 100.83 135.21 101.06 134.45 100.62 134.59 100.39 134.72 100.16"/><polygon points="133.82 101.42 134.83 102 134.7 102.23 134.57 102.46 133.56 101.88 133.69 101.65 133.82 101.42"/><polygon points="132.93 102.68 134.19 103.41 134.06 103.63 133.93 103.86 132.67 103.14 132.8 102.91 132.93 102.68"/><polygon points="132.04 103.94 133.54 104.81 133.41 105.04 133.28 105.27 131.77 104.39 131.9 104.17 132.04 103.94"/><polygon points="131.14 105.2 132.9 106.21 132.77 106.44 132.64 106.67 130.88 105.65 131.01 105.43 131.14 105.2"/><polygon points="130.25 106.46 132.26 107.62 132.13 107.85 132 108.07 129.98 106.91 130.12 106.69 130.25 106.46"/><g class="cls-1"><text class="cls-2" transform="translate(122.84 112.78)">H</text><text class="cls-2" transform="translate(127.04 112.78)">O</text></g><polygon points="149.37 99 154.99 106.9 153.96 107.49 152.93 108.08 148.89 99.28 149.06 99.01 149.37 99"/><g class="cls-1"><text class="cls-2" transform="translate(153.55 112.03)">N</text><text class="cls-2" transform="translate(157.75 112.03)">H</text><text class="cls-3" transform="translate(161.94 112.92)">2</text></g></svg>