<svg id="图层_1" data-name="图层 1" xmlns="http://www.w3.org/2000/svg" viewBox="0 0 200 130"><defs><style>.cls-1,.cls-2,.cls-3{isolation:isolate;}.cls-2{font-size:4.95px;}.cls-2,.cls-3{font-family:ArialMT, Arial;}.cls-3{font-size:3.05px;}</style></defs><title>NeomycinB_Simi_compound4.</title><polygon points="150.53 83.16 144.2 92.88 143.9 92.89 143.75 92.66 149.94 83.16 150.24 83.16 150.53 83.16"/><polygon points="143.74 93.11 131.22 93.11 131.22 92.89 131.37 92.66 143.75 92.66 143.9 92.89 143.74 93.11"/><polygon points="131 93 124.75 83.4 124.89 83.16 125.18 83.16 131.37 92.66 131.22 92.89 131 93"/><polygon points="124.75 82.93 131 73.33 131.22 73.44 131.37 73.67 125.18 83.16 124.89 83.16 124.75 82.93"/><polygon points="131.22 73.22 143.74 73.22 143.9 73.44 143.75 73.67 131.37 73.67 131.22 73.44 131.22 73.22"/><polygon points="143.74 73.22 147.62 65.71 148.61 66.22 149.59 66.72 144.2 73.45 143.9 73.44 143.74 73.22"/><g class="cls-1"><text class="cls-2" transform="translate(148.22 65.09) scale(1.13 1)">N</text><text class="cls-2" transform="translate(152.25 65.09) scale(1.13 1)">H</text><text class="cls-3" transform="translate(156.29 65.85) scale(1.13 1)">2</text></g><polygon points="144.2 73.45 150.53 83.16 150.24 83.16 149.94 83.16 143.75 73.67 143.9 73.44 144.2 73.45"/><polygon points="131.45 73.29 130.96 73.53 130.83 73.34 130.71 73.15 131.19 72.9 131.32 73.09 131.45 73.29"/><polygon points="130.83 72.09 130.1 72.46 129.97 72.27 129.85 72.07 130.57 71.7 130.7 71.9 130.83 72.09"/><polygon points="130.21 70.89 129.24 71.39 129.11 71.19 128.99 71 129.96 70.5 130.08 70.7 130.21 70.89"/><polygon points="129.59 69.7 128.38 70.32 128.25 70.12 128.13 69.93 129.34 69.31 129.46 69.5 129.59 69.7"/><polygon points="128.97 68.5 127.52 69.24 127.39 69.05 127.27 68.86 128.72 68.11 128.84 68.31 128.97 68.5"/><polygon points="128.35 67.31 126.66 68.17 126.53 67.98 126.41 67.78 128.1 66.92 128.23 67.11 128.35 67.31"/><polygon points="127.73 66.11 125.8 67.1 125.67 66.91 125.55 66.71 127.48 65.72 127.61 65.92 127.73 66.11"/><g class="cls-1"><text class="cls-2" transform="translate(122.71 65.72) scale(1.13 1)">O</text></g><polygon points="130.96 53.9 131.45 54.15 131.32 54.35 131.19 54.54 130.71 54.29 130.83 54.1 130.96 53.9"/><polygon points="130.1 54.98 130.83 55.35 130.7 55.54 130.57 55.74 129.85 55.37 129.97 55.17 130.1 54.98"/><polygon points="129.24 56.05 130.21 56.55 130.08 56.74 129.96 56.93 128.99 56.44 129.11 56.24 129.24 56.05"/><polygon points="128.38 57.12 129.59 57.74 129.46 57.94 129.34 58.13 128.13 57.51 128.25 57.32 128.38 57.12"/><polygon points="127.52 58.19 128.97 58.94 128.84 59.13 128.72 59.33 127.27 58.58 127.39 58.39 127.52 58.19"/><polygon points="126.66 59.27 128.35 60.13 128.23 60.33 128.1 60.52 126.41 59.66 126.53 59.46 126.66 59.27"/><polygon points="125.8 60.34 127.73 61.33 127.61 61.52 127.48 61.72 125.55 60.73 125.67 60.53 125.8 60.34"/><polygon points="131 54.11 124.67 44.39 124.89 44.27 125.18 44.27 131.37 53.77 131.22 54 131 54.11"/><polygon points="124.67 44.16 130.92 34.56 131.22 34.55 131.37 34.78 125.18 44.27 124.89 44.27 124.67 44.16"/><polygon points="131.38 34.33 143.9 34.33 143.9 34.55 143.75 34.78 131.37 34.78 131.22 34.55 131.38 34.33"/><polygon points="144.12 34.44 150.38 44.04 150.24 44.27 149.94 44.27 143.75 34.78 143.9 34.55 144.12 34.44"/><polygon points="150.38 44.51 145.75 51.61 145.53 51.5 145.31 51.39 149.94 44.27 150.24 44.27 150.38 44.51"/><g class="cls-1"><text class="cls-2" transform="translate(141.72 56) scale(1.13 1)">O</text></g><polygon points="141.22 54.22 131.22 54.22 131.22 54 131.37 53.77 141.22 53.77 141.22 54 141.22 54.22"/><polygon points="150.38 44.04 163.29 43.24 162.91 44.27 162.56 45.26 150.38 44.51 150.24 44.27 150.38 44.04"/><polygon points="163.29 43.24 167.4 36.94 167.62 37.05 167.84 37.16 162.56 45.26 162.91 44.27 163.29 43.24"/><g class="cls-1"><text class="cls-2" transform="translate(167.23 35.92) scale(1.13 1)">N</text><text class="cls-2" transform="translate(171.26 35.92) scale(1.13 1)">H</text><text class="cls-3" transform="translate(175.3 36.68) scale(1.13 1)">2</text></g><polygon points="144.16 34.65 143.67 34.4 143.8 34.2 143.93 34.01 144.41 34.26 144.29 34.45 144.16 34.65"/><polygon points="145.02 33.57 144.29 33.2 144.42 33.01 144.55 32.81 145.28 33.18 145.15 33.38 145.02 33.57"/><polygon points="145.88 32.5 144.91 32 145.04 31.81 145.16 31.61 146.13 32.11 146.01 32.31 145.88 32.5"/><polygon points="146.74 31.43 145.53 30.81 145.66 30.61 145.78 30.42 147 31.04 146.87 31.23 146.74 31.43"/><polygon points="147.6 30.36 146.15 29.61 146.28 29.42 146.4 29.22 147.85 29.97 147.73 30.16 147.6 30.36"/><polygon points="148.46 29.28 146.77 28.42 146.9 28.22 147.02 28.03 148.72 28.89 148.59 29.09 148.46 29.28"/><polygon points="149.32 28.21 147.39 27.22 147.51 27.02 147.64 26.83 149.57 27.82 149.45 28.02 149.32 28.21"/><g class="cls-1"><text class="cls-2" transform="translate(148.06 26.83) scale(1.13 1)">O</text><text class="cls-2" transform="translate(152.41 26.83) scale(1.13 1)">H</text></g><polygon points="130.92 34.56 125.53 27.83 126.51 27.33 127.5 26.82 131.38 34.33 131.22 34.55 130.92 34.56"/><g class="cls-1"><text class="cls-2" transform="translate(118.68 26.83) scale(1.13 1)">H</text><text class="cls-2" transform="translate(122.71 26.83) scale(1.13 1)">O</text></g><polygon points="124.85 44.03 124.85 44.52 124.59 44.52 124.34 44.52 124.34 44.03 124.59 44.03 124.85 44.03"/><polygon points="123.48 43.92 123.48 44.63 123.22 44.63 122.97 44.63 122.97 43.92 123.22 43.92 123.48 43.92"/><polygon points="122.1 43.81 122.1 44.73 121.85 44.73 121.6 44.73 121.6 43.81 121.85 43.81 122.1 43.81"/><polygon points="120.73 43.71 120.73 44.84 120.48 44.84 120.22 44.84 120.22 43.71 120.48 43.71 120.73 43.71"/><polygon points="119.36 43.6 119.36 44.95 119.11 44.95 118.85 44.95 118.85 43.6 119.11 43.6 119.36 43.6"/><polygon points="117.99 43.5 117.99 45.05 117.73 45.05 117.48 45.05 117.48 43.5 117.73 43.5 117.99 43.5"/><polygon points="116.61 43.39 116.61 45.16 116.36 45.16 116.11 45.16 116.11 43.39 116.36 43.39 116.61 43.39"/><polygon points="115.24 43.28 115.24 45.27 114.99 45.27 114.73 45.27 114.73 43.28 114.99 43.28 115.24 43.28"/><g class="cls-1"><text class="cls-2" transform="translate(104.29 45.64) scale(1.13 1)">H</text><text class="cls-3" transform="translate(108.33 46.4) scale(1.13 1)">2</text><text class="cls-2" transform="translate(110.24 45.64) scale(1.13 1)">N</text></g><polygon points="124.75 83.4 114.89 84.17 114.89 83.16 114.89 82.15 124.75 82.93 124.89 83.16 124.75 83.4"/><g class="cls-1"><text class="cls-2" transform="translate(110.04 85.17) scale(1.13 1)">O</text></g><polygon points="106.16 73.42 111.57 80.16 110.58 80.67 109.6 81.17 105.71 73.65 105.87 73.44 106.16 73.42"/><polygon points="105.71 73.65 93.24 72.49 93.27 72.27 93.48 72.06 105.72 73.2 105.87 73.44 105.71 73.65"/><polygon points="93.02 72.31 90.39 61.33 90.63 61.29 90.92 61.4 93.48 72.06 93.27 72.27 93.02 72.31"/><polygon points="90.51 61.09 101.36 55.54 101.61 55.67 101.58 55.95 90.92 61.4 90.63 61.29 90.51 61.09"/><polygon points="101.88 55.59 108.52 60.88 108.35 61.05 108.18 61.21 101.58 55.95 101.61 55.67 101.88 55.59"/><g class="cls-1"><text class="cls-2" transform="translate(108.85 65.19) scale(1.13 1)">O</text></g><polygon points="110 65.77 106.16 73.42 105.87 73.44 105.72 73.2 109.54 65.59 109.77 65.68 110 65.77"/><polygon points="101.36 55.54 101.81 44.06 102.94 44.51 104.01 44.92 101.88 55.59 101.61 55.67 101.36 55.54"/><polygon points="101.81 44.06 95.21 39.82 95.36 39.63 95.51 39.45 104.01 44.92 102.94 44.51 101.81 44.06"/><g class="cls-1"><text class="cls-2" transform="translate(86.47 39.92) scale(1.13 1)">H</text><text class="cls-2" transform="translate(90.51 39.92) scale(1.13 1)">O</text></g><polygon points="90.71 61.05 90.48 61.5 90.25 61.41 90.02 61.32 90.25 60.86 90.48 60.95 90.71 61.05"/><polygon points="89.37 60.38 89.03 61.06 88.8 60.97 88.56 60.88 88.91 60.2 89.14 60.29 89.37 60.38"/><polygon points="88.03 59.72 87.57 60.62 87.34 60.53 87.11 60.44 87.56 59.53 87.79 59.63 88.03 59.72"/><polygon points="86.68 59.05 86.11 60.18 85.88 60.09 85.65 60 86.22 58.87 86.45 58.96 86.68 59.05"/><polygon points="85.34 58.39 84.66 59.74 84.43 59.65 84.19 59.56 84.88 58.2 85.11 58.3 85.34 58.39"/><polygon points="84 57.72 83.2 59.3 82.97 59.21 82.74 59.12 83.53 57.54 83.77 57.63 84 57.72"/><polygon points="82.65 57.06 81.74 58.87 81.51 58.77 81.28 58.68 82.19 56.87 82.42 56.97 82.65 57.06"/><g class="cls-1"><text class="cls-2" transform="translate(76.88 58.73) scale(1.13 1)">O</text></g><polygon points="69 63.5 68.67 63.1 68.87 62.96 69.08 62.83 69.41 63.24 69.2 63.37 69 63.5"/><polygon points="70.27 62.84 69.78 62.23 69.98 62.1 70.19 61.97 70.68 62.57 70.47 62.7 70.27 62.84"/><polygon points="71.54 62.17 70.88 61.37 71.09 61.23 71.29 61.1 71.95 61.91 71.75 62.04 71.54 62.17"/><polygon points="72.81 61.51 71.99 60.5 72.19 60.37 72.4 60.24 73.22 61.24 73.02 61.37 72.81 61.51"/><polygon points="74.08 60.84 73.09 59.64 73.3 59.51 73.51 59.38 74.49 60.58 74.29 60.71 74.08 60.84"/><polygon points="75.35 60.17 74.2 58.77 74.41 58.64 74.61 58.51 75.76 59.91 75.56 60.04 75.35 60.17"/><polygon points="76.62 59.51 75.31 57.91 75.51 57.78 75.72 57.65 77.03 59.25 76.83 59.38 76.62 59.51"/><polygon points="68.56 63.47 57.25 59.01 57.22 58.75 57.47 58.61 68.91 63.11 68.8 63.32 68.56 63.47"/><polygon points="57.25 59.01 47.24 65.46 46.97 65.35 46.82 65.17 56.94 58.66 57.22 58.75 57.25 59.01"/><polygon points="47.24 65.46 48.53 76.36 48.29 76.52 48.02 76.4 46.72 65.38 46.97 65.35 47.24 65.46"/><polygon points="48.53 76.36 59.84 80.83 59.87 81.08 59.63 81.23 48.34 76.78 48.29 76.52 48.53 76.36"/><polygon points="59.84 80.83 67.3 76.03 67.44 76.21 67.59 76.39 60.15 81.18 59.87 81.08 59.84 80.83"/><g class="cls-1"><text class="cls-2" transform="translate(67.95 76.49) scale(1.13 1)">O</text></g><polygon points="69.58 72.01 68.56 63.47 68.8 63.32 69.05 63.3 70.08 71.97 69.83 71.99 69.58 72.01"/><polygon points="60.15 81.18 62.27 91.84 61.2 92.25 60.08 92.69 59.63 81.23 59.87 81.08 60.15 81.18"/><polygon points="62.27 91.84 53.62 97.4 53.47 97.22 53.32 97.04 60.08 92.69 61.2 92.25 62.27 91.84"/><g class="cls-1"><text class="cls-2" transform="translate(43.03 100.21) scale(1.13 1)">H</text><text class="cls-3" transform="translate(47.06 100.97) scale(1.13 1)">2</text><text class="cls-2" transform="translate(48.98 100.21) scale(1.13 1)">N</text></g><polygon points="48.34 76.78 41.39 82.21 40.72 81.39 40.05 80.57 48.02 76.4 48.29 76.52 48.34 76.78"/><g class="cls-1"><text class="cls-2" transform="translate(31.83 85.12) scale(1.13 1)">H</text><text class="cls-2" transform="translate(35.87 85.12) scale(1.13 1)">O</text></g><polygon points="47.05 65.11 46.82 65.56 46.59 65.47 46.36 65.38 46.58 64.93 46.82 65.02 47.05 65.11"/><polygon points="45.7 64.45 45.36 65.13 45.13 65.03 44.9 64.94 45.24 64.26 45.47 64.35 45.7 64.45"/><polygon points="44.36 63.78 43.91 64.69 43.67 64.59 43.44 64.5 43.9 63.6 44.13 63.69 44.36 63.78"/><polygon points="43.02 63.12 42.45 64.25 42.22 64.16 41.99 64.06 42.55 62.93 42.79 63.02 43.02 63.12"/><polygon points="41.67 62.45 40.99 63.81 40.76 63.72 40.53 63.63 41.21 62.27 41.44 62.36 41.67 62.45"/><polygon points="40.33 61.79 39.54 63.37 39.3 63.28 39.07 63.19 39.87 61.6 40.1 61.69 40.33 61.79"/><polygon points="38.99 61.12 38.08 62.93 37.85 62.84 37.62 62.75 38.52 60.94 38.76 61.03 38.99 61.12"/><g class="cls-1"><text class="cls-2" transform="translate(29.18 62.79) scale(1.13 1)">H</text><text class="cls-2" transform="translate(33.22 62.79) scale(1.13 1)">O</text></g><polygon points="56.94 58.66 55.06 50.19 56.2 50.09 57.33 49.98 57.47 58.61 57.22 58.75 56.94 58.66"/><g class="cls-1"><text class="cls-2" transform="translate(47.98 48.95) scale(1.13 1)">H</text><text class="cls-3" transform="translate(52.02 49.72) scale(1.13 1)">2</text><text class="cls-2" transform="translate(53.93 48.95) scale(1.13 1)">N</text></g><polygon points="93.03 72.13 93.45 72.47 93.28 72.63 93.11 72.8 92.69 72.46 92.86 72.3 93.03 72.13"/><polygon points="92 72.96 92.63 73.46 92.46 73.63 92.29 73.8 91.66 73.3 91.83 73.13 92 72.96"/><polygon points="90.97 73.79 91.8 74.46 91.63 74.62 91.46 74.79 90.63 74.13 90.8 73.96 90.97 73.79"/><polygon points="89.93 74.62 90.97 75.45 90.8 75.62 90.63 75.79 89.59 74.96 89.77 74.79 89.93 74.62"/><polygon points="88.9 75.46 90.15 76.45 89.98 76.62 89.81 76.78 88.56 75.79 88.73 75.62 88.9 75.46"/><polygon points="87.87 76.29 89.32 77.45 89.15 77.61 88.98 77.78 87.53 76.62 87.7 76.45 87.87 76.29"/><polygon points="86.84 77.12 88.5 78.44 88.33 78.61 88.16 78.78 86.5 77.45 86.67 77.29 86.84 77.12"/><g class="cls-1"><text class="cls-2" transform="translate(78.58 82.62) scale(1.13 1)">H</text><text class="cls-2" transform="translate(82.62 82.62) scale(1.13 1)">O</text></g><polygon points="130.96 92.79 131.45 93.04 131.32 93.24 131.19 93.43 130.71 93.18 130.83 92.99 130.96 92.79"/><polygon points="130.1 93.87 130.83 94.24 130.7 94.43 130.57 94.63 129.85 94.25 129.97 94.06 130.1 93.87"/><polygon points="129.24 94.94 130.21 95.43 130.08 95.63 129.96 95.82 128.99 95.33 129.11 95.13 129.24 94.94"/><polygon points="128.38 96.01 129.59 96.63 129.46 96.83 129.34 97.02 128.13 96.4 128.25 96.21 128.38 96.01"/><polygon points="127.52 97.08 128.97 97.83 128.84 98.02 128.72 98.22 127.27 97.47 127.39 97.28 127.52 97.08"/><polygon points="126.66 98.16 128.35 99.02 128.23 99.22 128.1 99.41 126.41 98.55 126.53 98.35 126.66 98.16"/><polygon points="125.8 99.23 127.73 100.22 127.61 100.41 127.48 100.61 125.55 99.62 125.67 99.42 125.8 99.23"/><g class="cls-1"><text class="cls-2" transform="translate(118.68 104.61) scale(1.13 1)">H</text><text class="cls-2" transform="translate(122.71 104.61) scale(1.13 1)">O</text></g><polygon points="144.2 92.88 149.59 99.61 148.61 100.11 147.62 100.62 143.74 93.11 143.9 92.89 144.2 92.88"/><g class="cls-1"><text class="cls-2" transform="translate(148.22 103.98) scale(1.13 1)">N</text><text class="cls-2" transform="translate(152.25 103.98) scale(1.13 1)">H</text><text class="cls-3" transform="translate(156.29 104.74) scale(1.13 1)">2</text></g></svg>