<?xml version="1.0" encoding="UTF-8"?>
<svg id="_图层_1" data-name="图层 1" xmlns="http://www.w3.org/2000/svg" viewBox="0 0 200 130">
  <defs>
    <style>
      .cls-1 {
        font-size: 1.65px;
      }

      .cls-1, .cls-2 {
        font-family: ArialMT, Arial;
      }

      .cls-1, .cls-2, .cls-3 {
        fill: #000;
      }

      .cls-2 {
        font-size: 2.75px;
      }

      .cls-3 {
        fill-rule: evenodd;
        stroke-width: 0px;
      }
    </style>
  </defs>
  <polygon class="cls-3" points="71.14 55.21 76.6 58.36 76.47 58.43 76.35 58.51 71.01 55.43 71.07 55.32 71.14 55.21 71.14 55.21"/>
  <polygon class="cls-3" points="76.6 58.36 76.6 64.6 76.47 64.67 76.35 64.6 76.35 58.51 76.47 58.43 76.6 58.36 76.6 58.36"/>
  <polygon class="cls-3" points="76.47 64.81 71.14 67.89 71.07 67.78 71.01 67.68 76.35 64.6 76.47 64.67 76.47 64.81 76.47 64.81"/>
  <polygon class="cls-3" points="76.6 64.6 81.87 67.64 81.87 67.78 81.74 67.86 76.47 64.81 76.47 64.67 76.6 64.6 76.6 64.6"/>
  <polygon class="cls-3" points="81.99 67.86 81.99 74.09 81.87 74.02 81.74 73.94 81.74 67.86 81.87 67.78 81.99 67.86 81.99 67.86"/>
  <polygon class="cls-3" points="81.93 73.48 86.2 75.94 86.13 76.05 86.07 76.16 81.81 73.69 81.87 73.58 81.93 73.48 81.93 73.48"/>
  <polygon class="cls-3" points="81.56 74.12 85.82 76.59 85.76 76.7 85.7 76.8 81.43 74.34 81.49 74.23 81.56 74.12 81.56 74.12"/>
  <text class="cls-2" transform="translate(86.24 77.77)"><tspan x="0" y="0">O</tspan></text>
  <polygon class="cls-3" points="81.99 74.09 77.77 76.52 77.71 76.42 77.65 76.31 81.74 73.94 81.87 74.02 81.99 74.09 81.99 74.09"/>
  <text class="cls-2" transform="translate(73.54 77.77)"><tspan x="0" y="0">H</tspan></text>
  <text class="cls-2" transform="translate(75.52 77.77)"><tspan x="0" y="0">N</tspan></text>
  <polygon class="cls-3" points="76.6 78.52 76.6 83.29 76.47 83.37 76.35 83.29 76.35 78.52 76.47 78.52 76.6 78.52 76.6 78.52"/>
  <polygon class="cls-3" points="76.47 83.51 71.07 86.63 71.07 86.48 71.07 86.34 76.35 83.29 76.47 83.37 76.47 83.51 76.47 83.51"/>
  <polygon class="cls-3" points="71.07 86.63 65.68 83.51 65.68 83.37 65.8 83.29 71.07 86.34 71.07 86.48 71.07 86.63 71.07 86.63"/>
  <polygon class="cls-3" points="65.68 83.51 60.34 86.59 60.28 86.48 60.22 86.37 65.55 83.29 65.68 83.37 65.68 83.51 65.68 83.51"/>
  <polygon class="cls-3" points="65.55 83.29 65.55 77.13 65.68 77.13 65.8 77.13 65.8 83.29 65.68 83.37 65.55 83.29 65.55 83.29"/>
  <polygon class="cls-3" points="76.6 83.29 81.99 86.41 81.87 86.48 81.74 86.55 76.47 83.51 76.47 83.37 76.6 83.29 76.6 83.29"/>
  <polygon class="cls-3" points="81.43 86.16 85.7 83.7 85.76 83.8 85.82 83.91 81.56 86.37 81.49 86.27 81.43 86.16 81.43 86.16"/>
  <polygon class="cls-3" points="81.81 86.81 86.07 84.34 86.13 84.45 86.2 84.56 81.93 87.02 81.87 86.91 81.81 86.81 81.81 86.81"/>
  <text class="cls-2" transform="translate(86.24 84)"><tspan x="0" y="0">O</tspan></text>
  <polygon class="cls-3" points="81.99 86.41 81.99 91.33 81.87 91.33 81.74 91.33 81.74 86.55 81.87 86.48 81.99 86.41 81.99 86.41"/>
  <text class="cls-2" transform="translate(80.92 93.29)"><tspan x="0" y="0">N</tspan></text>
  <polygon class="cls-3" points="83.18 93.52 87.06 96.33 86.91 96.38 86.76 96.43 83.04 93.72 83.11 93.62 83.18 93.52 83.18 93.52"/>
  <polygon class="cls-3" points="87.06 96.33 85.08 102.43 84.99 102.31 84.89 102.18 86.76 96.43 86.91 96.38 87.06 96.33 87.06 96.33"/>
  <polygon class="cls-3" points="85.08 102.43 78.66 102.43 78.75 102.31 78.84 102.18 84.89 102.18 84.99 102.31 85.08 102.43 85.08 102.43"/>
  <polygon class="cls-3" points="78.66 102.43 76.73 96.48 76.83 96.38 76.97 96.43 78.84 102.18 78.75 102.31 78.66 102.43 78.66 102.43"/>
  <polygon class="cls-3" points="76.73 96.48 70.79 94.55 70.9 94.45 71.01 94.36 76.8 96.24 76.83 96.38 76.73 96.48 76.73 96.48"/>
  <polygon class="cls-3" points="71.45 94.72 66.95 97.12 66.89 97.01 66.83 96.9 71.33 94.5 71.39 94.61 71.45 94.72 71.45 94.72"/>
  <polygon class="cls-3" points="70.88 94.18 66.6 96.46 66.54 96.35 66.48 96.24 70.76 93.96 70.82 94.07 70.88 94.18 70.88 94.18"/>
  <text class="cls-2" transform="translate(64.37 98.02)"><tspan x="0" y="0">O</tspan></text>
  <polygon class="cls-3" points="70.79 94.55 69.78 89.77 69.9 89.74 70.02 89.72 71.01 94.36 70.9 94.45 70.79 94.55 70.79 94.55"/>
  <text class="cls-2" transform="translate(68.65 88.93)"><tspan x="0" y="0">N</tspan></text>
  <polygon class="cls-3" points="70.75 86.89 73.62 83.71 73.77 83.72 73.93 83.74 70.94 87.06 70.84 86.98 70.75 86.89 70.75 86.89"/>
  <polygon class="cls-3" points="73.62 83.71 70.59 78.47 70.66 78.33 70.72 78.19 73.93 83.74 73.77 83.72 73.62 83.71 73.62 83.71"/>
  <polygon class="cls-3" points="70.59 78.47 64.67 79.73 64.56 79.62 64.45 79.52 70.72 78.19 70.66 78.33 70.59 78.47 70.59 78.47"/>
  <polygon class="cls-3" points="64.67 79.73 64.04 85.74 63.91 85.82 63.79 85.74 64.45 79.52 64.56 79.62 64.67 79.73 64.67 79.73"/>
  <polygon class="cls-3" points="63.92 85.96 58.51 89.08 58.51 88.94 58.51 88.79 63.79 85.74 63.91 85.82 63.92 85.96 63.92 85.96"/>
  <polygon class="cls-3" points="59.04 88.72 58.42 93.8 58.29 93.78 58.17 93.77 58.79 88.69 58.92 88.7 59.04 88.72 59.04 88.72"/>
  <polygon class="cls-3" points="58.28 88.75 57.67 93.71 57.55 93.69 57.43 93.68 58.04 88.72 58.16 88.73 58.28 88.75 58.28 88.75"/>
  <text class="cls-2" transform="translate(56.73 95.76)"><tspan x="0" y="0">O</tspan></text>
  <polygon class="cls-3" points="58.51 89.08 54.29 86.65 54.35 86.54 54.42 86.43 58.51 88.79 58.51 88.94 58.51 89.08 58.51 89.08"/>
  <text class="cls-2" transform="translate(52.17 84.12)"><tspan x="0" y="0">H</tspan></text>
  <text class="cls-2" transform="translate(52.17 86.29)"><tspan x="0" y="0">N</tspan></text>
  <polygon class="cls-3" points="51.93 86.65 47.84 89.01 47.72 88.94 47.72 88.79 51.81 86.43 51.87 86.54 51.93 86.65 51.93 86.65"/>
  <polygon class="cls-3" points="47.59 89.01 42.34 85.98 42.32 85.82 42.43 85.74 47.72 88.79 47.72 88.94 47.59 89.01 47.59 89.01"/>
  <polygon class="cls-3" points="42.34 85.98 37.92 90.24 37.83 90.15 37.75 90.06 42.18 85.78 42.32 85.82 42.34 85.98 42.34 85.98"/>
  <polygon class="cls-3" points="42.18 85.78 41.03 81.19 41.16 81.16 41.28 81.13 42.43 85.74 42.32 85.82 42.18 85.78 42.18 85.78"/>
  <text class="cls-2" transform="translate(37.8 80.35)"><tspan x="0" y="0">H</tspan></text>
  <text class="cls-2" transform="translate(39.78 80.35)"><tspan x="0" y="0">O</tspan></text>
  <polygon class="cls-3" points="47.84 89.01 47.84 95.24 47.72 95.17 47.59 95.1 47.59 89.01 47.72 88.94 47.84 89.01 47.84 89.01"/>
  <polygon class="cls-3" points="47.78 94.63 52.04 97.09 51.98 97.2 51.92 97.31 47.65 94.85 47.72 94.74 47.78 94.63 47.78 94.63"/>
  <polygon class="cls-3" points="47.4 95.28 51.67 97.74 51.61 97.85 51.55 97.96 47.28 95.49 47.34 95.39 47.4 95.28 47.4 95.28"/>
  <text class="cls-2" transform="translate(52.09 98.92)"><tspan x="0" y="0">O</tspan></text>
  <polygon class="cls-3" points="47.84 95.24 43.62 97.68 43.56 97.57 43.5 97.46 47.59 95.1 47.72 95.17 47.84 95.24 47.84 95.24"/>
  <text class="cls-2" transform="translate(39.39 98.92)"><tspan x="0" y="0">H</tspan></text>
  <text class="cls-2" transform="translate(41.37 98.92)"><tspan x="0" y="0">N</tspan></text>
  <polygon class="cls-3" points="42.44 99.67 42.44 104.45 42.32 104.52 42.19 104.45 42.19 99.67 42.32 99.67 42.44 99.67 42.44 99.67"/>
  <polygon class="cls-3" points="42.32 104.66 37.04 107.71 36.92 107.64 36.8 107.56 42.19 104.45 42.32 104.52 42.32 104.66 42.32 104.66"/>
  <polygon class="cls-3" points="37.04 107.71 37.04 113.92 36.92 113.87 36.8 113.82 36.8 107.56 36.92 107.64 37.04 107.71 37.04 107.71"/>
  <polygon class="cls-3" points="36.98 113.33 41.25 115.79 41.19 115.9 41.12 116.01 36.86 113.54 36.92 113.44 36.98 113.33 36.98 113.33"/>
  <polygon class="cls-3" points="36.7 114.03 40.87 116.44 40.81 116.55 40.75 116.66 36.58 114.25 36.64 114.14 36.7 114.03 36.7 114.03"/>
  <text class="cls-2" transform="translate(41.29 117.62)"><tspan x="0" y="0">O</tspan></text>
  <polygon class="cls-3" points="37.04 113.92 33.77 117.09 33.68 117 33.59 116.91 36.8 113.82 36.92 113.87 37.04 113.92 37.04 113.92"/>
  <text class="cls-2" transform="translate(28.59 118.77)"><tspan x="0" y="0">H</tspan></text>
  <text class="cls-1" transform="translate(30.57 119.5)"><tspan x="0" y="0">2</tspan></text>
  <text class="cls-2" transform="translate(31.49 118.77)"><tspan x="0" y="0">N</tspan></text>
  <polygon class="cls-3" points="42.44 104.45 47.84 107.56 47.72 107.64 47.59 107.71 42.32 104.66 42.32 104.52 42.44 104.45 42.44 104.45"/>
  <polygon class="cls-3" points="47.28 107.31 51.55 104.85 51.61 104.96 51.67 105.06 47.4 107.53 47.34 107.42 47.28 107.31 47.28 107.31"/>
  <polygon class="cls-3" points="47.65 107.96 51.92 105.5 51.98 105.6 52.04 105.71 47.78 108.18 47.72 108.07 47.65 107.96 47.65 107.96"/>
  <text class="cls-2" transform="translate(52.09 105.16)"><tspan x="0" y="0">O</tspan></text>
  <polygon class="cls-3" points="47.84 107.56 47.84 112.48 47.72 112.48 47.59 112.48 47.59 107.71 47.72 107.64 47.84 107.56 47.84 107.56"/>
  <text class="cls-2" transform="translate(44.78 114.44)"><tspan x="0" y="0">H</tspan></text>
  <text class="cls-2" transform="translate(46.77 114.44)"><tspan x="0" y="0">N</tspan></text>
  <polygon class="cls-3" points="49.02 114.48 53.11 116.84 53.11 116.98 52.99 117.06 48.89 114.69 48.96 114.59 49.02 114.48 49.02 114.48"/>
  <polygon class="cls-3" points="53.24 117.06 53.24 123.15 53.11 123.22 52.99 123.15 52.99 117.06 53.11 116.98 53.24 117.06 53.24 117.06"/>
  <polygon class="cls-3" points="53.24 123.15 58.57 126.23 58.51 126.33 58.45 126.44 53.11 123.36 53.11 123.22 53.24 123.15 53.24 123.15"/>
  <polygon class="cls-3" points="53.11 123.36 47.78 126.44 47.72 126.33 47.65 126.23 52.99 123.15 53.11 123.22 53.11 123.36 53.11 123.36"/>
  <polygon class="cls-3" points="53.11 116.84 58.39 113.8 58.51 113.87 58.64 113.94 53.24 117.06 53.11 116.98 53.11 116.84 53.11 116.84"/>
  <polygon class="cls-3" points="58.57 113.33 62.84 115.79 62.78 115.9 62.72 116.01 58.45 113.54 58.51 113.44 58.57 113.33 58.57 113.33"/>
  <polygon class="cls-3" points="58.2 113.98 62.47 116.44 62.4 116.55 62.34 116.66 58.07 114.19 58.14 114.08 58.2 113.98 58.2 113.98"/>
  <text class="cls-2" transform="translate(62.88 117.62)"><tspan x="0" y="0">O</tspan></text>
  <polygon class="cls-3" points="58.39 113.8 58.39 109.02 58.51 109.02 58.64 109.02 58.64 113.94 58.51 113.87 58.39 113.8 58.39 113.8"/>
  <text class="cls-2" transform="translate(55.58 108.21)"><tspan x="0" y="0">H</tspan></text>
  <text class="cls-2" transform="translate(57.56 108.21)"><tspan x="0" y="0">N</tspan></text>
  <polygon class="cls-3" points="59.69 106.81 63.78 104.45 63.91 104.52 64.03 104.59 59.81 107.03 59.75 106.92 59.69 106.81 59.69 106.81"/>
  <polygon class="cls-3" points="63.78 104.45 63.78 98.21 63.91 98.29 64.03 98.36 64.03 104.59 63.91 104.52 63.78 104.45 63.78 104.45"/>
  <polygon class="cls-3" points="63.86 98.81 59.29 96.87 59.34 96.75 59.39 96.64 63.96 98.58 63.91 98.69 63.86 98.81 63.86 98.81"/>
  <polygon class="cls-3" points="64.27 98.17 59.59 96.18 59.64 96.07 59.68 95.95 64.36 97.94 64.31 98.05 64.27 98.17 64.27 98.17"/>
  <text class="cls-2" transform="translate(57.14 96.49)"><tspan x="0" y="0">O</tspan></text>
  <polygon class="cls-3" points="63.78 98.21 68 95.78 68.06 95.89 68.13 95.99 64.03 98.36 63.91 98.29 63.78 98.21 63.78 98.21"/>
  <text class="cls-2" transform="translate(68.36 95.74)"><tspan x="0" y="0">N</tspan></text>
  <text class="cls-2" transform="translate(70.34 95.74)"><tspan x="0" y="0">H</tspan></text>
  <polygon class="cls-3" points="69.18 93.78 69.18 89.01 69.31 88.94 69.43 89.01 69.43 93.78 69.31 93.78 69.18 93.78 69.18 93.78"/>
  <polygon class="cls-3" points="69.31 88.79 74.56 85.76 74.7 85.82 74.85 85.88 69.43 89.01 69.31 88.94 69.31 88.79 69.31 88.79"/>
  <polygon class="cls-3" points="74.56 85.76 73.42 81.19 73.54 81.16 73.66 81.13 74.85 85.88 74.7 85.82 74.56 85.76 74.56 85.76"/>
  <text class="cls-2" transform="translate(70.19 80.35)"><tspan x="0" y="0">H</tspan></text>
  <text class="cls-2" transform="translate(72.17 80.35)"><tspan x="0" y="0">O</tspan></text>
  <polygon class="cls-3" points="69.18 89.01 63.78 85.89 63.91 85.82 64.03 85.75 69.31 88.79 69.31 88.94 69.18 89.01 69.18 89.01"/>
  <polygon class="cls-3" points="64.33 86.1 61.09 89.24 61 89.15 60.92 89.06 64.16 85.93 64.25 86.02 64.33 86.1 64.33 86.1"/>
  <polygon class="cls-3" points="64 85.39 60.57 88.7 60.48 88.61 60.4 88.52 63.82 85.21 63.91 85.3 64 85.39 64 85.39"/>
  <text class="cls-2" transform="translate(58.4 90.79)"><tspan x="0" y="0">O</tspan></text>
  <polygon class="cls-3" points="63.78 85.89 63.78 80.97 63.91 80.97 64.03 80.97 64.03 85.75 63.91 85.82 63.78 85.89 63.78 85.89"/>
  <text class="cls-2" transform="translate(62.96 80.16)"><tspan x="0" y="0">N</tspan></text>
  <text class="cls-2" transform="translate(64.94 80.16)"><tspan x="0" y="0">H</tspan></text>
  <polygon class="cls-3" points="62.6 78.98 58.51 76.62 58.51 76.47 58.64 76.4 62.73 78.76 62.67 78.87 62.6 78.98 62.6 78.98"/>
  <polygon class="cls-3" points="58.39 76.4 58.39 70.31 58.51 70.24 58.64 70.17 58.64 76.4 58.51 76.47 58.39 76.4 58.39 76.4"/>
  <polygon class="cls-3" points="58.39 70.31 52.99 67.19 53.11 67.12 53.24 67.05 58.64 70.17 58.51 70.24 58.39 70.31 58.39 70.31"/>
  <polygon class="cls-3" points="53.55 67.45 49.28 69.91 49.22 69.8 49.16 69.69 53.42 67.23 53.49 67.34 53.55 67.45 53.55 67.45"/>
  <polygon class="cls-3" points="53.18 66.8 48.91 69.26 48.85 69.15 48.78 69.05 53.05 66.58 53.11 66.69 53.18 66.8 53.18 66.8"/>
  <text class="cls-2" transform="translate(46.69 70.88)"><tspan x="0" y="0">O</tspan></text>
  <polygon class="cls-3" points="52.99 67.19 52.99 62.28 53.11 62.28 53.24 62.28 53.24 67.05 53.11 67.12 52.99 67.19 52.99 67.19"/>
  <text class="cls-2" transform="translate(52.17 61.46)"><tspan x="0" y="0">N</tspan></text>
  <text class="cls-2" transform="translate(54.15 61.46)"><tspan x="0" y="0">H</tspan></text>
  <text class="cls-1" transform="translate(56.13 62.2)"><tspan x="0" y="0">2</tspan></text>
  <polygon class="cls-3" points="58.51 76.62 53.11 79.73 53.11 79.59 53.11 79.44 58.39 76.4 58.51 76.47 58.51 76.62 58.51 76.62"/>
  <polygon class="cls-3" points="53.57 79.36 54.76 84.13 54.64 84.16 54.52 84.19 53.33 79.42 53.45 79.39 53.57 79.36 53.57 79.36"/>
  <polygon class="cls-3" points="52.78 79.3 54.03 84.31 53.91 84.34 53.79 84.37 52.54 79.36 52.66 79.33 52.78 79.3 52.78 79.3"/>
  <text class="cls-2" transform="translate(53.59 86.27)"><tspan x="0" y="0">O</tspan></text>
  <polygon class="cls-3" points="53.11 79.73 48.89 77.3 48.96 77.19 49.02 77.08 53.11 79.44 53.11 79.59 53.11 79.73 53.11 79.73"/>
  <text class="cls-2" transform="translate(46.77 74.77)"><tspan x="0" y="0">H</tspan></text>
  <text class="cls-2" transform="translate(46.77 76.93)"><tspan x="0" y="0">N</tspan></text>
  <polygon class="cls-3" points="46.54 77.3 42.44 79.66 42.32 79.59 42.32 79.44 46.41 77.08 46.47 77.19 46.54 77.3 46.54 77.3"/>
  <polygon class="cls-3" points="42.19 79.66 36.92 76.62 36.92 76.47 37.04 76.4 42.32 79.44 42.32 79.59 42.19 79.66 42.19 79.66"/>
  <polygon class="cls-3" points="36.92 76.62 31.58 79.7 31.52 79.59 31.46 79.48 36.8 76.4 36.92 76.47 36.92 76.62 36.92 76.62"/>
  <polygon class="cls-3" points="36.8 76.4 36.8 71.63 36.92 71.63 37.04 71.63 37.04 76.4 36.92 76.47 36.8 76.4 36.8 76.4"/>
  <text class="cls-2" transform="translate(35.9 70.88)"><tspan x="0" y="0">O</tspan></text>
  <text class="cls-2" transform="translate(38.03 70.88)"><tspan x="0" y="0">H</tspan></text>
  <polygon class="cls-3" points="42.44 79.66 42.44 85.89 42.32 85.82 42.19 85.75 42.19 79.66 42.32 79.59 42.44 79.66 42.44 79.66"/>
  <polygon class="cls-3" points="42.35 85.31 47.13 86.68 47.09 86.8 47.06 86.92 42.28 85.55 42.32 85.43 42.35 85.31 42.35 85.31"/>
  <polygon class="cls-3" points="41.9 85.96 46.92 87.4 46.89 87.52 46.85 87.64 41.83 86.2 41.87 86.08 41.9 85.96 41.9 85.96"/>
  <text class="cls-2" transform="translate(47.28 88.18)"><tspan x="0" y="0">O</tspan></text>
  <polygon class="cls-3" points="42.44 85.89 38.22 88.33 38.16 88.22 38.1 88.11 42.19 85.75 42.32 85.82 42.44 85.89 42.44 85.89"/>
  <text class="cls-2" transform="translate(33.99 89.51)"><tspan x="0" y="0">H</tspan></text>
  <text class="cls-2" transform="translate(35.97 89.51)"><tspan x="0" y="0">N</tspan></text>
  <polygon class="cls-3" points="37.04 90.32 37.04 95.1 36.92 95.17 36.8 95.1 36.8 90.32 36.92 90.32 37.04 90.32 37.04 90.32"/>
  <polygon class="cls-3" points="36.92 95.31 31.65 98.36 31.52 98.29 31.4 98.21 36.8 95.1 36.92 95.17 36.92 95.31 36.92 95.31"/>
  <polygon class="cls-3" points="31.65 98.36 31.65 104.45 31.52 104.52 31.4 104.45 31.4 98.21 31.52 98.29 31.65 98.36 31.65 98.36"/>
  <polygon class="cls-3" points="31.65 104.45 37.04 107.56 36.92 107.64 36.8 107.71 31.52 104.66 31.52 104.52 31.65 104.45 31.65 104.45"/>
  <polygon class="cls-3" points="31.58 105.27 36.23 107.96 36.17 108.07 36.11 108.18 31.46 105.49 31.52 105.38 31.58 105.27 31.58 105.27"/>
  <polygon class="cls-3" points="37.04 107.56 37.04 113.94 36.92 113.87 36.8 113.8 36.8 107.71 36.92 107.64 37.04 107.56 37.04 107.56"/>
  <polygon class="cls-3" points="37.04 113.94 31.65 117.06 31.52 116.98 31.52 116.84 36.8 113.8 36.92 113.87 37.04 113.94 37.04 113.94"/>
  <polygon class="cls-3" points="36.23 113.54 31.58 116.23 31.52 116.12 31.46 116.01 36.11 113.33 36.17 113.44 36.23 113.54 36.23 113.54"/>
  <polygon class="cls-3" points="31.4 117.06 26 113.94 26.12 113.87 26.25 113.8 31.52 116.84 31.52 116.98 31.4 117.06 31.4 117.06"/>
  <polygon class="cls-3" points="26 113.94 26 107.56 26.12 107.64 26.25 107.71 26.25 113.8 26.12 113.87 26 113.94 26 113.94"/>
  <polygon class="cls-3" points="26.75 113.44 26.75 108.07 26.87 108.07 27 108.07 27 113.44 26.87 113.44 26.75 113.44 26.75 113.44"/>
  <polygon class="cls-3" points="26 107.56 31.4 104.45 31.52 104.52 31.52 104.66 26.25 107.71 26.12 107.64 26 107.56 26 107.56"/>
  <polygon class="cls-3" points="31.65 117.06 31.65 121.83 31.52 121.83 31.4 121.83 31.4 117.06 31.52 116.98 31.65 117.06 31.65 117.06"/>
  <text class="cls-2" transform="translate(30.49 123.86)"><tspan x="0" y="0">O</tspan></text>
  <text class="cls-2" transform="translate(32.63 123.86)"><tspan x="0" y="0">H</tspan></text>
  <polygon class="cls-3" points="37.04 95.1 42.46 98.23 42.32 98.29 42.17 98.35 36.92 95.31 36.92 95.17 37.04 95.1 37.04 95.1"/>
  <polygon class="cls-3" points="41.89 98 45.14 94.87 45.22 94.96 45.31 95.05 42.07 98.18 41.98 98.09 41.89 98 41.89 98"/>
  <polygon class="cls-3" points="42.06 98.88 45.66 95.41 45.74 95.5 45.83 95.59 42.23 99.06 42.15 98.97 42.06 98.88 42.06 98.88"/>
  <text class="cls-2" transform="translate(45.77 94.59)"><tspan x="0" y="0">O</tspan></text>
  <polygon class="cls-3" points="42.46 98.23 41.28 102.98 41.16 102.95 41.03 102.92 42.17 98.35 42.32 98.29 42.46 98.23 42.46 98.23"/>
  <text class="cls-2" transform="translate(36.96 104.91)"><tspan x="0" y="0">H</tspan></text>
  <text class="cls-1" transform="translate(38.95 105.64)"><tspan x="0" y="0">2</tspan></text>
  <text class="cls-2" transform="translate(39.86 104.91)"><tspan x="0" y="0">N</tspan></text>
  <polygon class="cls-3" points="64.04 85.74 68.41 87.69 68.36 87.8 68.31 87.92 63.92 85.96 63.91 85.82 64.04 85.74 64.04 85.74"/>
  <polygon class="cls-3" points="76.8 96.24 80.55 93.52 80.63 93.62 80.7 93.72 76.97 96.43 76.83 96.38 76.8 96.24 76.8 96.24"/>
  <polygon class="cls-3" points="81.87 67.64 85.96 65.28 86.02 65.38 86.09 65.49 81.99 67.86 81.87 67.78 81.87 67.64 81.87 67.64"/>
  <text class="cls-2" transform="translate(86.32 62.96)"><tspan x="0" y="0">H</tspan></text>
  <text class="cls-2" transform="translate(86.32 65.14)"><tspan x="0" y="0">N</tspan></text>
  <polygon class="cls-3" points="88.57 65.28 92.66 67.64 92.66 67.78 92.66 67.93 88.45 65.49 88.51 65.38 88.57 65.28 88.57 65.28"/>
  <polygon class="cls-3" points="93.24 67.55 91.99 72.57 91.86 72.54 91.74 72.51 92.99 67.49 93.11 67.52 93.24 67.55 93.24 67.55"/>
  <polygon class="cls-3" points="92.45 67.62 91.26 72.38 91.14 72.35 91.02 72.32 92.21 67.56 92.33 67.59 92.45 67.62 92.45 67.62"/>
  <text class="cls-2" transform="translate(90.13 74.47)"><tspan x="0" y="0">O</tspan></text>
  <polygon class="cls-3" points="92.66 67.64 97.94 64.59 98.06 64.67 98.07 64.81 92.66 67.93 92.66 67.78 92.66 67.64 92.66 67.64"/>
  <polygon class="cls-3" points="97.94 64.59 98.6 58.37 98.71 58.47 98.83 58.57 98.2 64.59 98.06 64.67 97.94 64.59 97.94 64.59"/>
  <polygon class="cls-3" points="98.6 58.37 104.87 57.03 104.81 57.17 104.75 57.31 98.83 58.57 98.71 58.47 98.6 58.37 98.6 58.37"/>
  <polygon class="cls-3" points="104.87 57.03 108.08 62.59 107.93 62.57 107.77 62.55 104.75 57.31 104.81 57.17 104.87 57.03 104.87 57.03"/>
  <polygon class="cls-3" points="108.08 62.59 105.09 65.91 105 65.82 104.9 65.74 107.77 62.55 107.93 62.57 108.08 62.59 108.08 62.59"/>
  <text class="cls-2" transform="translate(102.81 67.77)"><tspan x="0" y="0">N</tspan></text>
  <polygon class="cls-3" points="104.17 68.56 105.16 73.2 105.05 73.3 104.94 73.4 103.93 68.61 104.05 68.59 104.17 68.56 104.17 68.56"/>
  <polygon class="cls-3" points="105.6 73.57 101.1 75.96 101.04 75.85 100.98 75.74 105.49 73.35 105.55 73.46 105.6 73.57 105.6 73.57"/>
  <polygon class="cls-3" points="105.03 73.03 100.75 75.3 100.69 75.19 100.63 75.08 104.91 72.81 104.97 72.92 105.03 73.03 105.03 73.03"/>
  <text class="cls-2" transform="translate(98.52 76.86)"><tspan x="0" y="0">O</tspan></text>
  <polygon class="cls-3" points="105.16 73.2 111.09 75.13 110.98 75.23 110.87 75.32 104.94 73.4 105.05 73.3 105.16 73.2 105.16 73.2"/>
  <polygon class="cls-3" points="111.09 75.13 112.1 79.91 111.98 79.94 111.86 79.96 110.87 75.32 110.98 75.23 111.09 75.13 111.09 75.13"/>
  <text class="cls-2" transform="translate(109.34 81.89)"><tspan x="0" y="0">H</tspan></text>
  <text class="cls-2" transform="translate(111.33 81.89)"><tspan x="0" y="0">N</tspan></text>
  <polygon class="cls-3" points="113.56 81.61 118.31 83.15 118.2 83.25 118.1 83.34 113.48 81.84 113.52 81.73 113.56 81.61 113.56 81.61"/>
  <polygon class="cls-3" points="117.73 83.06 120.34 79.19 120.44 79.26 120.55 79.33 117.94 83.2 117.83 83.13 117.73 83.06 117.73 83.06"/>
  <polygon class="cls-3" points="118.21 83.69 120.96 79.61 121.06 79.68 121.17 79.75 118.41 83.83 118.31 83.76 118.21 83.69 118.21 83.69"/>
  <text class="cls-2" transform="translate(120.66 78.72)"><tspan x="0" y="0">O</tspan></text>
  <polygon class="cls-3" points="118.31 83.15 119.61 89.25 119.5 89.34 119.36 89.3 118.1 83.34 118.2 83.25 118.31 83.15 118.31 83.15"/>
  <polygon class="cls-3" points="119.53 89.49 114.9 93.66 114.87 93.51 114.84 93.37 119.36 89.3 119.5 89.34 119.53 89.49 119.53 89.49"/>
  <polygon class="cls-3" points="114.9 93.66 108.97 91.73 108.94 91.59 109.05 91.49 114.84 93.37 114.87 93.51 114.9 93.66 114.9 93.66"/>
  <polygon class="cls-3" points="108 91.35 106.88 86.1 107 86.07 107.12 86.04 108.24 91.3 108.12 91.32 108 91.35 108 91.35"/>
  <polygon class="cls-3" points="108.8 91.54 107.54 85.59 107.64 85.49 107.75 85.4 109.05 91.49 108.94 91.59 108.8 91.54 108.8 91.54"/>
  <polygon class="cls-3" points="107.54 85.59 101.75 83.71 101.72 83.57 101.69 83.43 107.75 85.4 107.64 85.49 107.54 85.59 107.54 85.59"/>
  <polygon class="cls-3" points="101.98 84.5 97.99 88.1 97.91 88 97.82 87.91 101.81 84.32 101.9 84.41 101.98 84.5 101.98 84.5"/>
  <polygon class="cls-3" points="101.75 83.71 97.22 87.78 97.08 87.74 96.95 87.69 101.69 83.43 101.72 83.57 101.75 83.71 101.75 83.71"/>
  <polygon class="cls-3" points="97.22 87.78 98.49 93.74 98.38 93.83 98.27 93.93 96.95 87.69 97.08 87.74 97.22 87.78 97.22 87.78"/>
  <polygon class="cls-3" points="99.06 93.14 104.17 94.8 104.13 94.91 104.09 95.03 98.98 93.37 99.02 93.26 99.06 93.14 99.06 93.14"/>
  <polygon class="cls-3" points="98.49 93.74 104.28 95.62 104.31 95.76 104.34 95.9 98.27 93.93 98.38 93.83 98.49 93.74 98.49 93.74"/>
  <polygon class="cls-3" points="104.28 95.62 108.8 91.54 108.94 91.59 108.97 91.73 104.34 95.9 104.31 95.76 104.28 95.62 104.28 95.62"/>
  <polygon class="cls-3" points="119.61 89.25 124.22 90.75 124.18 90.87 124.15 90.99 119.53 89.49 119.5 89.34 119.61 89.25 119.61 89.25"/>
  <text class="cls-2" transform="translate(124.48 91.84)"><tspan x="0" y="0">N</tspan></text>
  <text class="cls-2" transform="translate(124.48 94.01)"><tspan x="0" y="0">H</tspan></text>
  <polygon class="cls-3" points="126.58 90.06 130.03 86.96 130.06 87.1 130.09 87.24 126.75 90.25 126.67 90.15 126.58 90.06 126.58 90.06"/>
  <polygon class="cls-3" points="129.66 87.41 127.55 83.1 127.67 83.05 127.78 82.99 129.88 87.31 129.77 87.36 129.66 87.41 129.66 87.41"/>
  <polygon class="cls-3" points="130.44 87.32 128.23 82.78 128.34 82.72 128.45 82.67 130.66 87.21 130.55 87.26 130.44 87.32 130.44 87.32"/>
  <text class="cls-2" transform="translate(126.3 82.14)"><tspan x="0" y="0">O</tspan></text>
  <polygon class="cls-3" points="130.03 86.96 135.96 88.89 135.99 89.03 135.88 89.12 130.09 87.24 130.06 87.1 130.03 86.96 130.03 86.96"/>
  <polygon class="cls-3" points="136.12 89.07 137.42 95.17 137.28 95.12 137.15 95.08 135.88 89.12 135.99 89.03 136.12 89.07 136.12 89.07"/>
  <polygon class="cls-3" points="137.42 95.17 132.77 99.36 132.65 99.29 132.53 99.23 137.15 95.08 137.28 95.12 137.42 95.17 137.42 95.17"/>
  <polygon class="cls-3" points="132.54 99.79 128.11 97.73 128.16 97.61 128.21 97.5 132.64 99.56 132.59 99.68 132.54 99.79 132.54 99.79"/>
  <polygon class="cls-3" points="132.9 99.13 128.43 97.05 128.48 96.93 128.53 96.82 133 98.91 132.95 99.02 132.9 99.13 132.9 99.13"/>
  <text class="cls-2" transform="translate(125.98 97.29)"><tspan x="0" y="0">O</tspan></text>
  <polygon class="cls-3" points="132.77 99.36 132.02 104.08 131.89 104.06 131.77 104.04 132.53 99.23 132.65 99.29 132.77 99.36 132.77 99.36"/>
  <text class="cls-2" transform="translate(127.82 106.02)"><tspan x="0" y="0">H</tspan></text>
  <text class="cls-1" transform="translate(129.81 106.76)"><tspan x="0" y="0">2</tspan></text>
  <text class="cls-2" transform="translate(130.73 106.02)"><tspan x="0" y="0">N</tspan></text>
  <polygon class="cls-3" points="135.96 88.89 139.29 85.88 139.38 85.97 139.46 86.07 136.12 89.07 135.99 89.03 135.96 88.89 135.96 88.89"/>
  <text class="cls-2" transform="translate(139.67 85.43)"><tspan x="0" y="0">N</tspan></text>
  <text class="cls-2" transform="translate(141.65 85.43)"><tspan x="0" y="0">H</tspan></text>
  <polygon class="cls-3" points="140.2 83.49 139.19 78.71 139.32 78.76 139.46 78.8 140.45 83.44 140.32 83.47 140.2 83.49 140.2 83.49"/>
  <polygon class="cls-3" points="139.36 79.37 135.09 76.7 135.16 76.6 135.22 76.49 139.5 79.16 139.43 79.27 139.36 79.37 139.36 79.37"/>
  <polygon class="cls-3" points="139.55 78.6 135.49 76.07 135.55 75.96 135.62 75.86 139.68 78.39 139.61 78.5 139.55 78.6 139.55 78.6"/>
  <text class="cls-2" transform="translate(133.01 76.09)"><tspan x="0" y="0">O</tspan></text>
  <polygon class="cls-3" points="139.19 78.71 143.82 74.54 143.95 74.59 143.98 74.73 139.46 78.8 139.32 78.76 139.19 78.71 139.19 78.71"/>
  <polygon class="cls-3" points="144.06 74.49 149.99 76.42 149.88 76.51 149.77 76.61 143.98 74.73 143.95 74.59 144.06 74.49 144.06 74.49"/>
  <polygon class="cls-3" points="149.99 76.42 151.29 82.53 151.18 82.61 151.07 82.69 149.77 76.61 149.88 76.51 149.99 76.42 149.99 76.42"/>
  <polygon class="cls-3" points="151.6 82.95 147.23 85.28 147.17 85.17 147.11 85.06 151.49 82.73 151.54 82.84 151.6 82.95 151.6 82.95"/>
  <polygon class="cls-3" points="151.16 82.34 146.88 84.62 146.82 84.51 146.76 84.4 151.04 82.12 151.1 82.23 151.16 82.34 151.16 82.34"/>
  <text class="cls-2" transform="translate(144.65 86.18)"><tspan x="0" y="0">O</tspan></text>
  <polygon class="cls-3" points="151.29 82.53 155.29 85.03 155.22 85.14 155.16 85.24 151.07 82.69 151.18 82.61 151.29 82.53 151.29 82.53"/>
  <text class="cls-2" transform="translate(155.51 86.48)"><tspan x="0" y="0">N</tspan></text>
  <text class="cls-2" transform="translate(157.5 86.48)"><tspan x="0" y="0">H</tspan></text>
  <text class="cls-1" transform="translate(159.48 87.22)"><tspan x="0" y="0">2</tspan></text>
  <polygon class="cls-3" points="143.82 74.54 142.83 69.9 142.95 69.88 143.07 69.85 144.06 74.49 143.95 74.59 143.82 74.54 143.82 74.54"/>
  <text class="cls-2" transform="translate(141.71 69.06)"><tspan x="0" y="0">N</tspan></text>
  <text class="cls-2" transform="translate(143.69 69.06)"><tspan x="0" y="0">H</tspan></text>
  <polygon class="cls-3" points="141.38 68.21 136.62 66.66 136.73 66.57 136.84 66.47 141.45 67.97 141.42 68.09 141.38 68.21 141.38 68.21"/>
  <polygon class="cls-3" points="137.28 66.84 132.78 69.23 132.72 69.12 132.66 69.01 137.17 66.62 137.22 66.73 137.28 66.84 137.28 66.84"/>
  <polygon class="cls-3" points="136.71 66.3 132.43 68.57 132.37 68.46 132.31 68.35 136.59 66.08 136.65 66.19 136.71 66.3 136.71 66.3"/>
  <text class="cls-2" transform="translate(130.2 70.13)"><tspan x="0" y="0">O</tspan></text>
  <polygon class="cls-3" points="136.62 66.66 135.33 60.57 135.43 60.47 135.57 60.51 136.84 66.47 136.73 66.57 136.62 66.66 136.62 66.66"/>
  <polygon class="cls-3" points="135.4 60.33 140.02 56.17 140.07 56.3 140.11 56.43 135.57 60.51 135.43 60.47 135.4 60.33 135.4 60.33"/>
  <polygon class="cls-3" points="140.02 56.17 144.97 56.52 144.97 56.64 144.96 56.77 140.11 56.43 140.07 56.3 140.02 56.17 140.02 56.17"/>
  <text class="cls-2" transform="translate(145.26 57.37)"><tspan x="0" y="0">O</tspan></text>
  <text class="cls-2" transform="translate(147.39 57.37)"><tspan x="0" y="0">H</tspan></text>
  <polygon class="cls-3" points="135.33 60.57 130.71 59.07 130.75 58.95 130.79 58.83 135.4 60.33 135.43 60.47 135.33 60.57 135.33 60.57"/>
  <text class="cls-2" transform="translate(128.56 56.84)"><tspan x="0" y="0">H</tspan></text>
  <text class="cls-2" transform="translate(128.56 59.01)"><tspan x="0" y="0">N</tspan></text>
  <polygon class="cls-3" points="128.35 59.75 124.9 62.85 124.87 62.71 124.84 62.57 128.18 59.57 128.27 59.66 128.35 59.75 128.35 59.75"/>
  <polygon class="cls-3" points="125.28 62.4 127.38 66.71 127.27 66.77 127.16 66.82 125.05 62.51 125.16 62.45 125.28 62.4 125.28 62.4"/>
  <polygon class="cls-3" points="124.49 62.5 126.71 67.04 126.6 67.09 126.48 67.15 124.27 62.61 124.38 62.55 124.49 62.5 124.49 62.5"/>
  <text class="cls-2" transform="translate(126.58 68.95)"><tspan x="0" y="0">O</tspan></text>
  <polygon class="cls-3" points="124.9 62.85 118.98 60.93 118.95 60.79 119.05 60.69 124.84 62.57 124.87 62.71 124.9 62.85 124.9 62.85"/>
  <polygon class="cls-3" points="118.81 60.74 117.51 54.65 117.65 54.69 117.79 54.74 119.05 60.69 118.95 60.79 118.81 60.74 118.81 60.74"/>
  <polygon class="cls-3" points="117.51 54.65 120.88 51.61 120.96 51.71 121.05 51.8 117.79 54.74 117.65 54.69 117.51 54.65 117.51 54.65"/>
  <text class="cls-2" transform="translate(121.26 51.16)"><tspan x="0" y="0">O</tspan></text>
  <text class="cls-2" transform="translate(123.4 51.16)"><tspan x="0" y="0">H</tspan></text>
  <polygon class="cls-3" points="118.98 60.93 115.64 63.93 115.56 63.84 115.47 63.75 118.81 60.74 118.95 60.79 118.98 60.93 118.98 60.93"/>
  <text class="cls-2" transform="translate(111.38 65.53)"><tspan x="0" y="0">H</tspan></text>
  <text class="cls-2" transform="translate(113.37 65.53)"><tspan x="0" y="0">N</tspan></text>
  <polygon class="cls-3" points="114.73 66.32 115.75 71.1 115.61 71.05 115.47 71.01 114.49 66.37 114.61 66.34 114.73 66.32 114.73 66.32"/>
  <polygon class="cls-3" points="115.55 70.53 120.51 71.5 120.48 71.62 120.46 71.74 115.5 70.78 115.53 70.66 115.55 70.53 115.55 70.53"/>
  <polygon class="cls-3" points="115.29 71.25 120.36 72.23 120.34 72.35 120.32 72.48 115.24 71.49 115.26 71.37 115.29 71.25 115.29 71.25"/>
  <text class="cls-2" transform="translate(120.7 72.88)"><tspan x="0" y="0">O</tspan></text>
  <polygon class="cls-3" points="115.75 71.1 111.12 75.27 110.98 75.23 110.95 75.08 115.47 71.01 115.61 71.05 115.75 71.1 115.75 71.1"/>
  <polygon class="cls-3" points="110.87 75.32 104.94 73.4 105.05 73.3 105.16 73.2 110.95 75.08 110.98 75.23 110.87 75.32 110.87 75.32"/>
  <polygon class="cls-3" points="104.94 73.4 103.65 67.29 103.76 67.2 103.89 67.24 105.16 73.2 105.05 73.3 104.94 73.4 104.94 73.4"/>
  <polygon class="cls-3" points="103.65 67.29 97.93 64.74 98.06 64.67 98.2 64.59 103.72 67.05 103.76 67.2 103.65 67.29 103.65 67.29"/>
  <polygon class="cls-3" points="103.51 66.41 98.81 64.32 98.86 64.21 98.91 64.09 103.61 66.18 103.56 66.3 103.51 66.41 103.51 66.41"/>
  <polygon class="cls-3" points="97.93 64.74 98.44 59.84 98.57 59.86 98.69 59.87 98.2 64.59 98.06 64.67 97.93 64.74 97.93 64.74"/>
  <text class="cls-2" transform="translate(95.78 59.04)"><tspan x="0" y="0">H</tspan></text>
  <text class="cls-2" transform="translate(97.76 59.04)"><tspan x="0" y="0">N</tspan></text>
  <polygon class="cls-3" points="99.93 58.08 104.87 57.03 104.81 57.17 104.75 57.31 99.98 58.33 99.95 58.21 99.93 58.08 99.93 58.08"/>
  <polygon class="cls-3" points="104.87 57.03 107.23 61.12 107.13 61.18 107.02 61.25 104.75 57.31 104.81 57.17 104.87 57.03 104.87 57.03"/>
  <polygon class="cls-3" points="104.54 57.96 106.59 61.5 106.48 61.56 106.37 61.62 104.33 58.08 104.43 58.02 104.54 57.96 104.54 57.96"/>
  <text class="cls-2" transform="translate(106.98 63.14)"><tspan x="0" y="0">N</tspan></text>
  <polygon class="cls-3" points="106.78 64.03 103.89 67.24 103.76 67.2 103.72 67.05 106.59 63.87 106.68 63.95 106.78 64.03 106.78 64.03"/>
  <polygon class="cls-3" points="111.12 75.27 112.1 79.91 111.98 79.94 111.86 79.96 110.87 75.32 110.98 75.23 111.12 75.27 111.12 75.27"/>
  <text class="cls-2" transform="translate(109.34 81.89)"><tspan x="0" y="0">H</tspan></text>
  <text class="cls-2" transform="translate(111.33 81.89)"><tspan x="0" y="0">N</tspan></text>
  <polygon class="cls-3" points="113.56 81.61 118.31 83.15 118.2 83.25 118.1 83.34 113.48 81.84 113.52 81.73 113.56 81.61 113.56 81.61"/>
  <polygon class="cls-3" points="117.71 83.02 121.18 79.89 121.27 79.99 121.35 80.08 117.88 83.21 117.79 83.11 117.71 83.02 117.71 83.02"/>
  <polygon class="cls-3" points="118.21 83.58 121.68 80.45 121.77 80.54 121.85 80.63 118.38 83.76 118.29 83.67 118.21 83.58 118.21 83.58"/>
  <text class="cls-2" transform="translate(121.81 79.72)"><tspan x="0" y="0">O</tspan></text>
  <polygon class="cls-3" points="118.31 83.15 119.61 89.25 119.5 89.34 119.36 89.3 118.1 83.34 118.2 83.25 118.31 83.15 118.31 83.15"/>
  <polygon class="cls-3" points="119.53 89.49 115 93.56 114.87 93.51 114.84 93.37 119.36 89.3 119.5 89.34 119.53 89.49 119.53 89.49"/>
  <polygon class="cls-3" points="114.76 93.61 108.9 91.71 108.94 91.59 108.98 91.47 114.84 93.37 114.87 93.51 114.76 93.61 114.76 93.61"/>
  <polygon class="cls-3" points="115 93.56 116.28 99.59 116.16 99.61 116.04 99.64 114.76 93.61 114.87 93.51 115 93.56 115 93.56"/>
  <polygon class="cls-3" points="119.61 89.25 124.22 90.75 124.18 90.87 124.15 90.99 119.53 89.49 119.5 89.34 119.61 89.25 119.61 89.25"/>
  <text class="cls-2" transform="translate(124.48 91.84)"><tspan x="0" y="0">N</tspan></text>
  <text class="cls-2" transform="translate(124.48 94.01)"><tspan x="0" y="0">H</tspan></text>
  <polygon class="cls-3" points="126.58 90.06 130.03 86.96 130.06 87.1 130.09 87.24 126.75 90.25 126.67 90.15 126.58 90.06 126.58 90.06"/>
  <polygon class="cls-3" points="129.62 87.41 128.57 82.49 128.69 82.47 128.81 82.44 129.86 87.36 129.74 87.39 129.62 87.41 129.62 87.41"/>
  <polygon class="cls-3" points="130.35 87.26 129.3 82.34 129.42 82.31 129.54 82.29 130.59 87.21 130.47 87.23 130.35 87.26 130.35 87.26"/>
  <text class="cls-2" transform="translate(127.73 81.64)"><tspan x="0" y="0">O</tspan></text>
  <polygon class="cls-3" points="130.03 86.96 135.96 88.89 135.99 89.03 135.88 89.12 130.09 87.24 130.06 87.1 130.03 86.96 130.03 86.96"/>
  <polygon class="cls-3" points="136.12 89.07 137.42 95.17 137.28 95.12 137.15 95.08 135.88 89.12 135.99 89.03 136.12 89.07 136.12 89.07"/>
  <polygon class="cls-3" points="137.42 95.17 132.78 99.34 132.65 99.29 132.61 99.16 137.15 95.08 137.28 95.12 137.42 95.17 137.42 95.17"/>
  <polygon class="cls-3" points="132.78 99.34 133.32 105.49 133.19 105.5 133.07 105.51 132.53 99.4 132.65 99.29 132.78 99.34 132.78 99.34"/>
  <polygon class="cls-3" points="132.53 99.4 126.51 98.23 126.53 98.1 126.56 97.98 132.61 99.16 132.65 99.29 132.53 99.4 132.53 99.4"/>
  <polygon class="cls-3" points="135.96 88.89 139.29 85.88 139.38 85.97 139.46 86.07 136.12 89.07 135.99 89.03 135.96 88.89 135.96 88.89"/>
  <text class="cls-2" transform="translate(139.67 85.43)"><tspan x="0" y="0">N</tspan></text>
  <text class="cls-2" transform="translate(141.65 85.43)"><tspan x="0" y="0">H</tspan></text>
  <polygon class="cls-3" points="140.2 83.49 139.19 78.71 139.32 78.76 139.46 78.8 140.45 83.44 140.32 83.47 140.2 83.49 140.2 83.49"/>
  <polygon class="cls-3" points="139.37 79.3 134.56 77.74 134.6 77.62 134.64 77.5 139.45 79.06 139.41 79.18 139.37 79.3 139.37 79.3"/>
  <polygon class="cls-3" points="139.6 78.59 134.79 77.02 134.83 76.91 134.87 76.79 139.68 78.35 139.64 78.47 139.6 78.59 139.6 78.59"/>
  <text class="cls-2" transform="translate(132.37 77.47)"><tspan x="0" y="0">O</tspan></text>
  <polygon class="cls-3" points="139.19 78.71 143.82 74.54 143.95 74.59 143.98 74.73 139.46 78.8 139.32 78.76 139.19 78.71 139.19 78.71"/>
  <polygon class="cls-3" points="144.06 74.49 149.99 76.42 149.88 76.51 149.77 76.61 143.98 74.73 143.95 74.59 144.06 74.49 144.06 74.49"/>
  <polygon class="cls-3" points="149.99 76.42 151.28 82.51 151.18 82.61 151.04 82.57 149.77 76.61 149.88 76.51 149.99 76.42 149.99 76.42"/>
  <polygon class="cls-3" points="151.44 83.55 147.45 87.14 147.37 87.05 147.28 86.96 151.27 83.36 151.36 83.46 151.44 83.55 151.44 83.55"/>
  <polygon class="cls-3" points="151.21 82.75 146.68 86.83 146.55 86.78 146.41 86.74 151.04 82.57 151.18 82.61 151.21 82.75 151.21 82.75"/>
  <polygon class="cls-3" points="146.68 86.83 147.95 92.78 147.84 92.88 147.73 92.97 146.41 86.74 146.55 86.78 146.68 86.83 146.68 86.83"/>
  <polygon class="cls-3" points="148.52 92.18 153.63 93.84 153.59 93.96 153.55 94.08 148.44 92.42 148.48 92.3 148.52 92.18 148.52 92.18"/>
  <polygon class="cls-3" points="147.95 92.78 153.74 94.66 153.77 94.8 153.8 94.94 147.73 92.97 147.84 92.88 147.95 92.78 147.95 92.78"/>
  <polygon class="cls-3" points="153.74 94.66 158.26 90.59 158.4 90.63 158.54 90.68 153.8 94.94 153.77 94.8 153.74 94.66 153.74 94.66"/>
  <polygon class="cls-3" points="157.46 90.39 156.34 85.14 156.46 85.11 156.59 85.09 157.7 90.34 157.58 90.37 157.46 90.39 157.46 90.39"/>
  <polygon class="cls-3" points="158.26 90.59 157 84.63 157.11 84.54 157.21 84.44 158.54 90.68 158.4 90.63 158.26 90.59 158.26 90.59"/>
  <polygon class="cls-3" points="157 84.63 151.21 82.75 151.18 82.61 151.28 82.51 157.21 84.44 157.11 84.54 157 84.63 157 84.63"/>
  <polygon class="cls-3" points="143.82 74.54 142.83 69.9 142.95 69.88 143.07 69.85 144.06 74.49 143.95 74.59 143.82 74.54 143.82 74.54"/>
  <text class="cls-2" transform="translate(141.71 69.06)"><tspan x="0" y="0">N</tspan></text>
  <text class="cls-2" transform="translate(143.69 69.06)"><tspan x="0" y="0">H</tspan></text>
  <polygon class="cls-3" points="141.38 68.21 136.62 66.66 136.73 66.57 136.84 66.47 141.45 67.97 141.42 68.09 141.38 68.21 141.38 68.21"/>
  <polygon class="cls-3" points="137.2 66.76 134.59 70.63 134.49 70.56 134.39 70.49 137 66.62 137.1 66.69 137.2 66.76 137.2 66.76"/>
  <polygon class="cls-3" points="136.73 66.13 133.97 70.21 133.87 70.14 133.77 70.07 136.52 65.99 136.62 66.06 136.73 66.13 136.73 66.13"/>
  <text class="cls-2" transform="translate(132.22 72.37)"><tspan x="0" y="0">O</tspan></text>
  <polygon class="cls-3" points="136.62 66.66 135.33 60.57 135.43 60.47 135.57 60.51 136.84 66.47 136.73 66.57 136.62 66.66 136.62 66.66"/>
  <polygon class="cls-3" points="135.4 60.33 140.04 56.16 140.07 56.3 140.1 56.44 135.57 60.51 135.43 60.47 135.4 60.33 135.4 60.33"/>
  <polygon class="cls-3" points="140.04 56.16 145.96 58.08 145.99 58.22 146.02 58.37 140.1 56.44 140.07 56.3 140.04 56.16 140.04 56.16"/>
  <polygon class="cls-3" points="146.44 57.91 147.48 62.83 147.36 62.86 147.24 62.88 146.19 57.96 146.31 57.94 146.44 57.91 146.44 57.91"/>
  <polygon class="cls-3" points="145.71 58.07 146.75 62.99 146.63 63.01 146.51 63.04 145.46 58.12 145.58 58.09 145.71 58.07 145.71 58.07"/>
  <text class="cls-2" transform="translate(146.26 64.96)"><tspan x="0" y="0">O</tspan></text>
  <polygon class="cls-3" points="145.96 58.08 149.3 55.08 149.38 55.17 149.47 55.26 146.02 58.37 145.99 58.22 145.96 58.08 145.96 58.08"/>
  <text class="cls-2" transform="translate(149.67 54.63)"><tspan x="0" y="0">N</tspan></text>
  <text class="cls-2" transform="translate(151.66 54.63)"><tspan x="0" y="0">H</tspan></text>
  <text class="cls-1" transform="translate(153.64 55.36)"><tspan x="0" y="0">2</tspan></text>
  <polygon class="cls-3" points="135.33 60.57 130.71 59.07 130.75 58.95 130.79 58.83 135.4 60.33 135.43 60.47 135.33 60.57 135.33 60.57"/>
  <text class="cls-2" transform="translate(128.56 56.84)"><tspan x="0" y="0">H</tspan></text>
  <text class="cls-2" transform="translate(128.56 59.01)"><tspan x="0" y="0">N</tspan></text>
  <polygon class="cls-3" points="128.35 59.75 124.9 62.85 124.87 62.71 124.84 62.57 128.18 59.57 128.27 59.66 128.35 59.75 128.35 59.75"/>
  <polygon class="cls-3" points="125.32 62.4 126.36 67.32 126.24 67.35 126.12 67.37 125.07 62.45 125.2 62.42 125.32 62.4 125.32 62.4"/>
  <polygon class="cls-3" points="124.59 62.55 125.63 67.48 125.51 67.5 125.39 67.53 124.34 62.61 124.46 62.58 124.59 62.55 124.59 62.55"/>
  <text class="cls-2" transform="translate(125.14 69.45)"><tspan x="0" y="0">O</tspan></text>
  <polygon class="cls-3" points="124.9 62.85 118.98 60.93 118.95 60.79 119.05 60.69 124.84 62.57 124.87 62.71 124.9 62.85 124.9 62.85"/>
  <polygon class="cls-3" points="118.81 60.74 117.53 54.72 117.65 54.69 117.77 54.67 119.05 60.69 118.95 60.79 118.81 60.74 118.81 60.74"/>
  <polygon class="cls-3" points="118.98 60.93 115.64 63.93 115.56 63.84 115.47 63.75 118.81 60.74 118.95 60.79 118.98 60.93 118.98 60.93"/>
  <text class="cls-2" transform="translate(111.38 65.53)"><tspan x="0" y="0">H</tspan></text>
  <text class="cls-2" transform="translate(113.37 65.53)"><tspan x="0" y="0">N</tspan></text>
  <polygon class="cls-3" points="114.73 66.32 115.75 71.1 115.61 71.05 115.47 71.01 114.49 66.37 114.61 66.34 114.73 66.32 114.73 66.32"/>
  <polygon class="cls-3" points="115.57 70.48 120.15 72.62 120.1 72.74 120.05 72.85 115.46 70.71 115.51 70.6 115.57 70.48 115.57 70.48"/>
  <polygon class="cls-3" points="115.36 71.21 119.84 73.3 119.78 73.41 119.73 73.53 115.26 71.44 115.31 71.33 115.36 71.21 115.36 71.21"/>
  <text class="cls-2" transform="translate(120.23 74.33)"><tspan x="0" y="0">O</tspan></text>
  <polygon class="cls-3" points="115.75 71.1 111.12 75.27 110.98 75.23 110.95 75.08 115.47 71.01 115.61 71.05 115.75 71.1 115.75 71.1"/>
  <polygon class="cls-3" points="110.87 75.32 104.94 73.4 105.05 73.3 105.16 73.2 110.95 75.08 110.98 75.23 110.87 75.32 110.87 75.32"/>
  <polygon class="cls-3" points="104.94 73.4 103.66 67.35 103.76 67.2 103.9 67.29 105.16 73.2 105.05 73.3 104.94 73.4 104.94 73.4"/>
  <polygon class="cls-3" points="103.66 67.35 97.64 68.41 97.62 68.29 97.6 68.16 103.85 67.06 103.76 67.2 103.66 67.35 103.66 67.35"/>
  <polygon class="cls-3" points="103.61 67.11 109.77 65.57 109.8 65.7 109.83 65.82 103.9 67.29 103.76 67.2 103.61 67.11 103.61 67.11"/>
  <polygon class="cls-3" points="111.12 75.27 112.1 79.91 111.98 79.94 111.86 79.96 110.87 75.32 110.98 75.23 111.12 75.27 111.12 75.27"/>
  <text class="cls-2" transform="translate(109.34 81.89)"><tspan x="0" y="0">H</tspan></text>
  <text class="cls-2" transform="translate(111.33 81.89)"><tspan x="0" y="0">N</tspan></text>
  <polygon class="cls-3" points="113.56 81.61 118.31 83.15 118.2 83.25 118.1 83.34 113.48 81.84 113.52 81.73 113.56 81.61 113.56 81.61"/>
  <polygon class="cls-3" points="117.65 82.98 122.15 80.58 122.21 80.69 122.27 80.8 117.77 83.2 117.71 83.09 117.65 82.98 117.65 82.98"/>
  <polygon class="cls-3" points="118.23 83.52 122.5 81.24 122.56 81.35 122.62 81.46 118.34 83.74 118.28 83.63 118.23 83.52 118.23 83.52"/>
  <text class="cls-2" transform="translate(122.68 80.96)"><tspan x="0" y="0">O</tspan></text>
  <polygon class="cls-3" points="118.31 83.15 119.61 89.25 119.5 89.34 119.36 89.3 118.1 83.34 118.2 83.25 118.31 83.15 118.31 83.15"/>
  <polygon class="cls-3" points="119.53 89.49 114.9 93.66 114.87 93.51 114.84 93.37 119.36 89.3 119.5 89.34 119.53 89.49 119.53 89.49"/>
  <polygon class="cls-3" points="114.9 93.66 108.97 91.73 108.94 91.59 108.91 91.45 114.84 93.37 114.87 93.51 114.9 93.66 114.9 93.66"/>
  <polygon class="cls-3" points="108.97 91.73 104.34 95.9 104.31 95.76 104.28 95.62 108.91 91.45 108.94 91.59 108.97 91.73 108.97 91.73"/>
  <polygon class="cls-3" points="104.34 95.9 99.58 94.36 99.62 94.24 99.66 94.12 104.28 95.62 104.31 95.76 104.34 95.9 104.34 95.9"/>
  <text class="cls-2" transform="translate(97.43 92.13)"><tspan x="0" y="0">H</tspan></text>
  <text class="cls-2" transform="translate(97.43 94.3)"><tspan x="0" y="0">N</tspan></text>
  <polygon class="cls-3" points="97.22 95.04 93.79 98.13 93.75 98 93.7 97.88 97.05 94.86 97.14 94.95 97.22 95.04 97.22 95.04"/>
  <polygon class="cls-3" points="94.19 97.69 95.24 102.61 95.11 102.64 94.99 102.66 93.95 97.74 94.07 97.71 94.19 97.69 94.19 97.69"/>
  <polygon class="cls-3" points="93.48 97.95 94.51 102.77 94.38 102.79 94.26 102.82 93.24 98 93.36 97.98 93.48 97.95 93.48 97.95"/>
  <text class="cls-2" transform="translate(94.09 104.67)"><tspan x="0" y="0">N</tspan></text>
  <text class="cls-2" transform="translate(96.08 104.67)"><tspan x="0" y="0">H</tspan></text>
  <polygon class="cls-3" points="93.79 98.13 88.76 97.78 88.77 97.66 88.78 97.53 93.7 97.88 93.75 98 93.79 98.13 93.79 98.13"/>
  <text class="cls-2" transform="translate(83.68 98.14)"><tspan x="0" y="0">H</tspan></text>
  <text class="cls-1" transform="translate(85.67 98.88)"><tspan x="0" y="0">2</tspan></text>
  <text class="cls-2" transform="translate(86.58 98.14)"><tspan x="0" y="0">N</tspan></text>
  <polygon class="cls-3" points="119.61 89.25 124.22 90.75 124.18 90.87 124.15 90.99 119.53 89.49 119.5 89.34 119.61 89.25 119.61 89.25"/>
  <text class="cls-2" transform="translate(124.48 91.84)"><tspan x="0" y="0">N</tspan></text>
  <text class="cls-2" transform="translate(124.48 94.01)"><tspan x="0" y="0">H</tspan></text>
  <polygon class="cls-3" points="126.58 90.06 130.03 86.96 130.06 87.1 130.09 87.24 126.75 90.25 126.67 90.15 126.58 90.06 126.58 90.06"/>
  <polygon class="cls-3" points="129.55 87.44 129.73 82.24 129.85 82.24 129.98 82.25 129.8 87.45 129.67 87.45 129.55 87.44 129.55 87.44"/>
  <polygon class="cls-3" points="130.3 87.22 130.48 82.27 130.6 82.27 130.73 82.27 130.55 87.22 130.43 87.22 130.3 87.22 130.3 87.22"/>
  <text class="cls-2" transform="translate(129.25 81.51)"><tspan x="0" y="0">O</tspan></text>
  <polygon class="cls-3" points="130.03 86.96 135.96 88.89 135.99 89.03 135.88 89.12 130.09 87.24 130.06 87.1 130.03 86.96 130.03 86.96"/>
  <polygon class="cls-3" points="136.12 89.07 137.42 95.17 137.28 95.12 137.15 95.08 135.88 89.12 135.99 89.03 136.12 89.07 136.12 89.07"/>
  <polygon class="cls-3" points="137.42 95.17 132.79 99.34 132.65 99.29 132.51 99.25 137.15 95.08 137.28 95.12 137.42 95.17 137.42 95.17"/>
  <polygon class="cls-3" points="132.79 99.34 134.08 105.43 133.95 105.39 133.81 105.35 132.51 99.25 132.65 99.29 132.79 99.34 132.79 99.34"/>
  <polygon class="cls-3" points="133.89 104.85 138.71 106.41 138.67 106.53 138.63 106.65 133.82 105.09 133.86 104.97 133.89 104.85 133.89 104.85"/>
  <polygon class="cls-3" points="133.66 105.56 138.48 107.12 138.44 107.24 138.4 107.36 133.59 105.8 133.63 105.68 133.66 105.56 133.66 105.56"/>
  <text class="cls-2" transform="translate(138.85 107.95)"><tspan x="0" y="0">O</tspan></text>
  <polygon class="cls-3" points="134.08 105.43 130.64 108.53 130.56 108.44 130.47 108.35 133.81 105.35 133.95 105.39 134.08 105.43 134.08 105.43"/>
  <text class="cls-2" transform="translate(125.46 110.13)"><tspan x="0" y="0">H</tspan></text>
  <text class="cls-1" transform="translate(127.45 110.87)"><tspan x="0" y="0">2</tspan></text>
  <text class="cls-2" transform="translate(128.37 110.13)"><tspan x="0" y="0">N</tspan></text>
  <polygon class="cls-3" points="135.96 88.89 139.29 85.88 139.38 85.97 139.46 86.07 136.12 89.07 135.99 89.03 135.96 88.89 135.96 88.89"/>
  <text class="cls-2" transform="translate(139.67 85.43)"><tspan x="0" y="0">N</tspan></text>
  <text class="cls-2" transform="translate(141.65 85.43)"><tspan x="0" y="0">H</tspan></text>
  <polygon class="cls-3" points="140.2 83.49 139.19 78.71 139.32 78.76 139.46 78.8 140.45 83.44 140.32 83.47 140.2 83.49 140.2 83.49"/>
  <polygon class="cls-3" points="139.39 79.26 134.39 78.91 134.4 78.79 134.41 78.67 139.41 79.01 139.4 79.14 139.39 79.26 139.39 79.26"/>
  <polygon class="cls-3" points="139.7 78.54 134.44 78.17 134.45 78.04 134.46 77.92 139.72 78.29 139.71 78.41 139.7 78.54 139.7 78.54"/>
  <text class="cls-2" transform="translate(132.08 78.96)"><tspan x="0" y="0">O</tspan></text>
  <polygon class="cls-3" points="139.19 78.71 143.82 74.54 143.95 74.59 143.98 74.73 139.46 78.8 139.32 78.76 139.19 78.71 139.19 78.71"/>
  <polygon class="cls-3" points="144.06 74.49 149.85 76.37 149.88 76.51 149.77 76.61 143.98 74.73 143.95 74.59 144.06 74.49 144.06 74.49"/>
  <polygon class="cls-3" points="150.02 76.56 151.3 82.58 151.18 82.61 151.06 82.64 149.77 76.61 149.88 76.51 150.02 76.56 150.02 76.56"/>
  <polygon class="cls-3" points="149.85 76.37 153.11 73.44 153.2 73.53 153.28 73.62 150.02 76.56 149.88 76.51 149.85 76.37 149.85 76.37"/>
  <text class="cls-2" transform="translate(153.49 72.98)"><tspan x="0" y="0">O</tspan></text>
  <text class="cls-2" transform="translate(155.62 72.98)"><tspan x="0" y="0">H</tspan></text>
  <polygon class="cls-3" points="143.82 74.54 142.83 69.9 142.95 69.88 143.07 69.85 144.06 74.49 143.95 74.59 143.82 74.54 143.82 74.54"/>
  <text class="cls-2" transform="translate(141.71 69.06)"><tspan x="0" y="0">N</tspan></text>
  <text class="cls-2" transform="translate(143.69 69.06)"><tspan x="0" y="0">H</tspan></text>
  <polygon class="cls-3" points="141.38 68.21 136.62 66.66 136.73 66.57 136.84 66.47 141.45 67.97 141.42 68.09 141.38 68.21 141.38 68.21"/>
  <polygon class="cls-3" points="137.22 66.79 133.75 69.92 133.67 69.83 133.58 69.73 137.06 66.61 137.14 66.7 137.22 66.79 137.22 66.79"/>
  <polygon class="cls-3" points="136.72 66.24 133.25 69.36 133.17 69.27 133.08 69.18 136.56 66.05 136.64 66.14 136.72 66.24 136.72 66.24"/>
  <text class="cls-2" transform="translate(131.07 71.37)"><tspan x="0" y="0">O</tspan></text>
  <polygon class="cls-3" points="136.62 66.66 135.33 60.57 135.43 60.47 135.57 60.51 136.84 66.47 136.73 66.57 136.62 66.66 136.62 66.66"/>
  <polygon class="cls-3" points="135.4 60.33 139.98 56.21 140.07 56.3 140.15 56.39 135.57 60.51 135.43 60.47 135.4 60.33 135.4 60.33"/>
  <polygon class="cls-3" points="135.33 60.57 130.71 59.07 130.75 58.95 130.79 58.83 135.4 60.33 135.43 60.47 135.33 60.57 135.33 60.57"/>
  <text class="cls-2" transform="translate(128.56 56.84)"><tspan x="0" y="0">H</tspan></text>
  <text class="cls-2" transform="translate(128.56 59.01)"><tspan x="0" y="0">N</tspan></text>
  <polygon class="cls-3" points="128.35 59.75 124.9 62.85 124.87 62.71 124.84 62.57 128.18 59.57 128.27 59.66 128.35 59.75 128.35 59.75"/>
  <polygon class="cls-3" points="125.39 62.37 125.2 67.57 125.08 67.57 124.95 67.57 125.14 62.36 125.26 62.37 125.39 62.37 125.39 62.37"/>
  <polygon class="cls-3" points="124.63 62.6 124.46 67.55 124.33 67.54 124.21 67.54 124.38 62.59 124.5 62.59 124.63 62.6 124.63 62.6"/>
  <text class="cls-2" transform="translate(123.63 69.58)"><tspan x="0" y="0">O</tspan></text>
  <polygon class="cls-3" points="124.9 62.85 119.01 60.94 118.95 60.79 119.09 60.7 124.84 62.57 124.87 62.71 124.9 62.85 124.9 62.85"/>
  <polygon class="cls-3" points="118.83 60.75 119.8 54.63 119.92 54.63 120.05 54.63 119.09 60.7 118.95 60.79 118.83 60.75 118.83 60.75"/>
  <polygon class="cls-3" points="119.8 54.63 119.04 49.88 119.17 49.86 119.29 49.84 120.05 54.63 119.92 54.63 119.8 54.63 119.8 54.63"/>
  <text class="cls-2" transform="translate(118.07 49.11)"><tspan x="0" y="0">S</tspan></text>
  <polygon class="cls-3" points="118.13 47.15 116.71 44.36 116.82 44.31 116.93 44.25 118.35 47.03 118.24 47.09 118.13 47.15 118.13 47.15"/>
  <text class="cls-2" transform="translate(115.24 43.56)"><tspan x="0" y="0">S</tspan></text>
  <polygon class="cls-3" points="114.86 41.84 111.64 38.62 111.71 38.51 111.78 38.41 115.04 41.67 114.95 41.76 114.86 41.84 114.86 41.84"/>
  <polygon class="cls-3" points="111.64 38.62 106.12 35.81 106.16 35.69 106.31 35.62 111.78 38.41 111.71 38.51 111.64 38.62 111.64 38.62"/>
  <polygon class="cls-3" points="106.12 35.81 100 34.84 100 34.71 100 34.58 106.07 35.55 106.16 35.69 106.12 35.81 106.12 35.81"/>
  <polygon class="cls-3" points="99.5 34.77 99.5 29.86 99.63 29.86 99.75 29.86 99.75 34.77 99.63 34.77 99.5 34.77 99.5 34.77"/>
  <polygon class="cls-3" points="100.25 34.77 100.25 29.86 100.37 29.86 100.5 29.86 100.5 34.77 100.37 34.77 100.25 34.77 100.25 34.77"/>
  <text class="cls-2" transform="translate(98.97 29.12)"><tspan x="0" y="0">O</tspan></text>
  <polygon class="cls-3" points="100 34.84 95.11 35.61 95.09 35.49 95.07 35.37 100 34.58 100 34.71 100 34.84 100 34.84"/>
  <text class="cls-2" transform="translate(92.89 33.98)"><tspan x="0" y="0">H</tspan></text>
  <text class="cls-2" transform="translate(92.89 36.15)"><tspan x="0" y="0">N</tspan></text>
  <polygon class="cls-3" points="92.66 36.43 88.37 38.62 88.29 38.51 88.33 38.36 92.55 36.21 92.6 36.32 92.66 36.43 92.66 36.43"/>
  <polygon class="cls-3" points="88.37 38.62 83.99 43 83.88 42.92 83.78 42.85 88.13 38.5 88.29 38.51 88.37 38.62 88.37 38.62"/>
  <polygon class="cls-3" points="83.64 43.36 79.87 40.62 79.94 40.52 80.01 40.42 83.79 43.16 83.71 43.26 83.64 43.36 83.64 43.36"/>
  <polygon class="cls-3" points="84.08 42.76 80.31 40.01 80.38 39.91 80.45 39.81 84.23 42.55 84.15 42.65 84.08 42.76 84.08 42.76"/>
  <text class="cls-2" transform="translate(77.81 39.9)"><tspan x="0" y="0">O</tspan></text>
  <polygon class="cls-3" points="83.99 43 81.87 47.15 81.76 47.09 81.65 47.03 83.78 42.85 83.88 42.92 83.99 43 83.99 43"/>
  <text class="cls-2" transform="translate(78.12 49.05)"><tspan x="0" y="0">H</tspan></text>
  <text class="cls-2" transform="translate(80.1 49.05)"><tspan x="0" y="0">N</tspan></text>
  <polygon class="cls-3" points="80.96 49.88 80.21 54.63 80.08 54.63 79.97 54.51 80.71 49.84 80.83 49.86 80.96 49.88 80.96 49.88"/>
  <polygon class="cls-3" points="80.21 54.63 81.17 60.75 81.05 60.79 80.93 60.83 79.97 54.76 80.08 54.63 80.21 54.63 80.21 54.63"/>
  <polygon class="cls-3" points="81.25 61.27 76.19 61.63 76.18 61.5 76.17 61.38 81.23 61.03 81.24 61.15 81.25 61.27 81.25 61.27"/>
  <polygon class="cls-3" points="81 60.54 76.14 60.88 76.13 60.76 76.12 60.63 80.99 60.29 81 60.42 81 60.54 81 60.54"/>
  <text class="cls-2" transform="translate(73.81 61.86)"><tspan x="0" y="0">O</tspan></text>
  <polygon class="cls-3" points="81.17 60.75 83.29 64.9 83.18 64.95 83.07 65.01 80.93 60.83 81.05 60.79 81.17 60.75 81.17 60.75"/>
  <text class="cls-2" transform="translate(80.95 66.91)"><tspan x="0" y="0">H</tspan></text>
  <text class="cls-2" transform="translate(82.94 66.91)"><tspan x="0" y="0">N</tspan></text>
  <polygon class="cls-3" points="85.21 67.49 88.37 70.65 88.29 70.75 88.13 70.76 85.04 67.67 85.13 67.58 85.21 67.49 85.21 67.49"/>
  <polygon class="cls-3" points="88.37 70.65 93.88 73.46 93.84 73.58 93.81 73.7 88.33 70.91 88.29 70.75 88.37 70.65 88.37 70.65"/>
  <polygon class="cls-3" points="94.34 73.68 92.84 78.27 92.72 78.23 92.61 78.2 94.1 73.6 94.22 73.64 94.34 73.68 94.34 73.68"/>
  <polygon class="cls-3" points="93.63 73.44 92.13 78.04 92.01 78 91.9 77.97 93.39 73.37 93.51 73.41 93.63 73.44 93.63 73.44"/>
  <text class="cls-2" transform="translate(90.89 80.14)"><tspan x="0" y="0">O</tspan></text>
  <polygon class="cls-3" points="93.88 73.46 98.78 74.23 98.76 74.36 98.74 74.48 93.81 73.7 93.84 73.58 93.88 73.46 93.88 73.46"/>
  <text class="cls-2" transform="translate(99.05 75.13)"><tspan x="0" y="0">N</tspan></text>
  <text class="cls-2" transform="translate(99.05 77.29)"><tspan x="0" y="0">H</tspan></text>
  <polygon class="cls-3" points="101.22 74.23 106.12 73.46 106.16 73.58 106.07 73.72 101.26 74.48 101.24 74.36 101.22 74.23 101.22 74.23"/>
  <polygon class="cls-3" points="106.12 73.46 111.64 70.65 111.71 70.75 111.78 70.85 106.31 73.64 106.16 73.58 106.12 73.46 106.12 73.46"/>
  <polygon class="cls-3" points="112.08 70.41 114.77 74.11 114.67 74.18 114.57 74.26 111.88 70.55 111.98 70.48 112.08 70.41 112.08 70.41"/>
  <polygon class="cls-3" points="111.47 70.85 114.16 74.55 114.06 74.62 113.96 74.7 111.27 70.99 111.37 70.92 111.47 70.85 111.47 70.85"/>
  <text class="cls-2" transform="translate(114.35 76.43)"><tspan x="0" y="0">O</tspan></text>
  <polygon class="cls-3" points="111.64 70.65 114.79 67.49 114.88 67.58 114.96 67.67 111.78 70.85 111.71 70.75 111.64 70.65 111.64 70.65"/>
  <text class="cls-2" transform="translate(115.17 66.91)"><tspan x="0" y="0">N</tspan></text>
  <text class="cls-2" transform="translate(117.15 66.91)"><tspan x="0" y="0">H</tspan></text>
  <polygon class="cls-3" points="116.71 64.9 118.83 60.75 118.95 60.79 119.01 60.94 116.93 65.01 116.82 64.95 116.71 64.9 116.71 64.9"/>
  <polygon class="cls-3" points="106.31 73.64 108.15 79.32 108.08 79.51 107.94 79.45 106.07 73.72 106.16 73.58 106.31 73.64 106.31 73.64"/>
  <polygon class="cls-3" points="108.15 79.32 113.42 76.28 113.48 76.39 113.54 76.5 108.01 79.69 108.08 79.51 108.15 79.32 108.15 79.32"/>
  <polygon class="cls-3" points="108.23 79.56 104.3 82.2 104.23 82.1 104.16 82 107.94 79.45 108.08 79.51 108.23 79.56 108.23 79.56"/>
  <text class="cls-2" transform="translate(99.9 83.56)"><tspan x="0" y="0">H</tspan></text>
  <text class="cls-2" transform="translate(101.89 83.56)"><tspan x="0" y="0">O</tspan></text>
  <polygon class="cls-3" points="88.33 70.91 84.73 75.86 84.63 75.79 84.53 75.72 88.13 70.76 88.29 70.75 88.33 70.91 88.33 70.91"/>
  <polygon class="cls-3" points="79.97 54.76 73.92 54.76 73.85 54.63 73.92 54.51 79.97 54.51 80.08 54.63 79.97 54.76 79.97 54.76"/>
  <polygon class="cls-3" points="73.7 54.63 70.62 49.3 70.73 49.23 70.84 49.17 73.92 54.51 73.85 54.63 73.7 54.63 73.7 54.63"/>
  <polygon class="cls-3" points="73.92 54.76 71.64 58.71 71.53 58.64 71.42 58.58 73.7 54.63 73.85 54.63 73.92 54.76 73.92 54.76"/>
  <text class="cls-2" transform="translate(67.72 60.6)"><tspan x="0" y="0">H</tspan></text>
  <text class="cls-2" transform="translate(69.7 60.6)"><tspan x="0" y="0">O</tspan></text>
  <polygon class="cls-3" points="88.13 38.5 84.48 33.49 84.63 33.47 84.77 33.46 88.33 38.36 88.29 38.51 88.13 38.5 88.13 38.5"/>
  <polygon class="cls-3" points="84.48 33.49 87.02 27.79 87.16 27.78 87.31 27.76 84.77 33.46 84.63 33.47 84.48 33.49 84.48 33.49"/>
  <polygon class="cls-3" points="86.9 27.31 91.99 26.77 92 26.89 92.02 27.02 86.92 27.55 86.91 27.43 86.9 27.31 86.9 27.31"/>
  <polygon class="cls-3" points="86.97 28.05 92.07 27.51 92.08 27.64 92.1 27.76 87 28.3 86.99 28.17 86.97 28.05 86.97 28.05"/>
  <text class="cls-2" transform="translate(92.33 27.77)"><tspan x="0" y="0">O</tspan></text>
  <polygon class="cls-3" points="87.02 27.79 84.41 24.2 84.51 24.12 84.61 24.05 87.31 27.76 87.16 27.78 87.02 27.79 87.02 27.79"/>
  <text class="cls-2" transform="translate(79.65 23.31)"><tspan x="0" y="0">H</tspan></text>
  <text class="cls-1" transform="translate(81.63 24.04)"><tspan x="0" y="0">2</tspan></text>
  <text class="cls-2" transform="translate(82.55 23.31)"><tspan x="0" y="0">N</tspan></text>
  <polygon class="cls-3" points="106.07 35.55 107.51 31.11 107.63 31.14 107.75 31.18 106.31 35.62 106.16 35.69 106.07 35.55 106.07 35.55"/>
  <text class="cls-2" transform="translate(107.13 28.06)"><tspan x="0" y="0">H</tspan></text>
  <text class="cls-2" transform="translate(107.13 30.22)"><tspan x="0" y="0">N</tspan></text>
  <polygon class="cls-3" points="109.3 29.37 114.08 28.35 114.18 28.46 114.28 28.57 109.35 29.62 109.32 29.49 109.3 29.37 109.3 29.37"/>
  <polygon class="cls-3" points="114.41 27.97 117.47 31.37 117.38 31.46 117.29 31.54 114.22 28.13 114.31 28.05 114.41 27.97 114.41 27.97"/>
  <polygon class="cls-3" points="113.85 28.47 116.92 31.87 116.82 31.96 116.73 32.04 113.66 28.63 113.76 28.55 113.85 28.47 113.85 28.47"/>
  <text class="cls-2" transform="translate(117.32 33.73)"><tspan x="0" y="0">O</tspan></text>
  <polygon class="cls-3" points="114.08 28.35 115.96 22.56 116.11 22.53 116.2 22.64 114.28 28.57 114.18 28.46 114.08 28.35 114.08 28.35"/>
  <polygon class="cls-3" points="116.15 22.4 122.11 21.13 122.2 21.24 122.3 21.35 116.2 22.64 116.11 22.53 116.15 22.4 116.15 22.4"/>
  <polygon class="cls-3" points="122.11 21.13 124.03 15.2 124.13 15.31 124.22 15.42 122.3 21.35 122.2 21.24 122.11 21.13 122.11 21.13"/>
  <polygon class="cls-3" points="124.03 15.2 130.13 13.91 130.22 14.01 130.32 14.12 124.22 15.42 124.13 15.31 124.03 15.2 124.03 15.2"/>
  <polygon class="cls-3" points="130.13 13.91 132.05 7.98 132.15 8.09 132.25 8.19 130.32 14.12 130.22 14.01 130.13 13.91 130.13 13.91"/>
  <polygon class="cls-3" points="132.05 7.98 136.98 6.93 137.01 7.05 137.03 7.18 132.25 8.19 132.15 8.09 132.05 7.98 132.05 7.98"/>
  <text class="cls-2" transform="translate(137.3 7.36)"><tspan x="0" y="0">N</tspan></text>
  <text class="cls-2" transform="translate(139.28 7.36)"><tspan x="0" y="0">H</tspan></text>
  <text class="cls-1" transform="translate(141.27 8.1)"><tspan x="0" y="0">2</tspan></text>
  <polygon class="cls-3" points="115.96 22.56 113.08 19.36 113.18 19.28 113.27 19.2 116.15 22.4 116.11 22.53 115.96 22.56 115.96 22.56"/>
  <text class="cls-2" transform="translate(108.08 18.47)"><tspan x="0" y="0">H</tspan></text>
  <text class="cls-1" transform="translate(110.07 19.21)"><tspan x="0" y="0">2</tspan></text>
  <text class="cls-2" transform="translate(110.98 18.47)"><tspan x="0" y="0">N</tspan></text>
  <polygon class="cls-3" points="102.46 66.76 98.07 64.81 98.06 64.67 98.2 64.59 102.56 66.54 102.51 66.65 102.46 66.76 102.46 66.76"/>
</svg>