<svg id="图层_1" data-name="图层 1" xmlns="http://www.w3.org/2000/svg" viewBox="0 0 200 130"><defs><style>.cls-1,.cls-2{isolation:isolate;}.cls-2{font-size:10.56px;font-family:ArialMT, Arial;}.cls-3{fill:none;stroke:#000;stroke-miterlimit:3.77;stroke-width:0.89px;}</style></defs><polygon points="51.56 106.72 55.41 88.63 55.88 88.73 56.35 88.83 52.49 106.92 52.03 106.82 51.56 106.72"/><g class="cls-1"><text class="cls-2" transform="translate(53.2 87.68)">N</text></g><polygon points="61.59 80.84 78.38 73.38 78.89 73.67 78.87 74.21 61.98 81.72 61.79 81.28 61.59 80.84"/><polygon points="81.84 71.5 96.53 80 96.29 80.41 96.05 80.83 81.36 72.33 81.6 71.92 81.84 71.5"/><polygon points="79.35 73.38 95.09 82.48 94.86 82.9 94.62 83.31 78.87 74.21 78.89 73.67 79.35 73.38"/><g class="cls-1"><text class="cls-2" transform="translate(95.81 89.93)">N</text></g><polygon points="104.16 82.49 119.92 73.4 120.37 73.69 120.4 74.23 104.64 83.32 104.39 82.9 104.16 82.49"/><polygon points="120.88 73.4 137.95 81.01 137.76 81.45 137.56 81.88 120.4 74.23 120.37 73.69 120.88 73.4"/><g class="cls-1"><text class="cls-2" transform="translate(138.72 87.72)">S</text></g><polygon points="146.36 78.15 157.68 65.59 158.27 65.66 158.48 66.14 147.07 78.79 146.72 78.47 146.36 78.15"/><polygon points="159.93 62.3 180.56 62.31 180.55 62.79 180.55 63.27 159.93 63.26 159.93 62.78 159.93 62.3"/><polygon points="158.54 65.18 181.94 65.19 182.21 65.67 182.49 66.15 158.48 66.14 158.27 65.66 158.54 65.18"/><polygon points="181.94 65.19 193.64 44.94 194.19 44.94 194.75 44.94 182.49 66.15 182.21 65.67 181.94 65.19"/><polygon points="190.46 45.17 180.16 27.31 180.57 27.07 180.99 26.83 191.29 44.7 190.88 44.94 190.46 45.17"/><polygon points="193.64 44.94 181.96 24.67 182.23 24.19 182.51 23.71 194.75 44.94 194.19 44.94 193.64 44.94"/><polygon points="181.96 24.67 158.56 24.66 158.29 24.18 158.01 23.7 182.51 23.71 182.23 24.19 181.96 24.67"/><polygon points="160.36 27.3 150.04 45.16 149.62 44.91 149.21 44.68 159.53 26.82 159.94 27.06 160.36 27.3"/><polygon points="158.56 24.66 146.86 44.91 146.31 44.91 146 44.49 158.01 23.7 158.29 24.18 158.56 24.66"/><polygon points="146.06 45.45 127.75 49.34 127.65 48.87 127.55 48.4 146 44.49 146.31 44.91 146.06 45.45"/><g class="cls-1"><text class="cls-2" transform="translate(119.07 54.16)">N</text></g><polygon points="117.79 45.94 104.78 34.21 105.09 33.85 105.42 33.49 118.43 45.23 118.11 45.58 117.79 45.94"/><polygon points="122.8 55.26 120.88 73.4 120.37 73.69 119.92 73.4 121.84 55.16 122.32 55.21 122.8 55.26"/><polygon points="119.94 54.95 118.14 71.98 117.66 71.94 117.19 71.89 118.99 54.85 119.46 54.91 119.94 54.95"/><line class="cls-3" x1="126.4" y1="44.37" x2="130.39" y2="44.37"/><line class="cls-3" x1="128.39" y1="42.38" x2="128.39" y2="46.37"/><polygon points="146.86 44.91 158.54 65.18 158.27 65.66 157.68 65.59 146.06 45.45 146.31 44.91 146.86 44.91"/><polygon points="78.38 73.38 76.48 55.23 76.96 55.19 77.44 55.13 79.35 73.38 78.89 73.67 78.38 73.38"/><g class="cls-1"><text class="cls-2" transform="translate(72.88 54.13)">S</text></g><polygon points="71.83 49.37 53.23 45.41 52.98 44.87 53.29 44.45 72.02 48.44 71.92 48.91 71.83 49.37"/><polygon points="49.25 45.11 38.95 27.24 39.36 27 39.78 26.76 50.08 44.63 49.67 44.87 49.25 45.11"/><polygon points="52.43 44.87 40.75 24.61 41.02 24.13 41.3 23.65 53.29 44.45 52.98 44.87 52.43 44.87"/><polygon points="40.75 24.61 17.35 24.59 17.08 24.12 16.8 23.64 41.3 23.65 41.02 24.13 40.75 24.61"/><polygon points="19.15 27.23 8.83 45.09 8.41 44.85 8 44.61 18.32 26.75 18.74 26.99 19.15 27.23"/><polygon points="17.35 24.59 5.65 44.85 5.1 44.85 4.54 44.85 16.8 23.64 17.08 24.12 17.35 24.59"/><polygon points="5.65 44.85 17.34 65.11 17.06 65.59 16.78 66.07 4.54 44.85 5.1 44.85 5.65 44.85"/><polygon points="18.72 62.24 39.34 62.25 39.34 62.73 39.34 63.2 18.72 63.2 18.72 62.72 18.72 62.24"/><polygon points="17.34 65.11 40.73 65.12 41 65.6 40.79 66.08 16.78 66.07 17.06 65.59 17.34 65.11"/><polygon points="41.59 65.54 52.6 77.78 52.25 78.1 51.89 78.42 40.79 66.08 41 65.6 41.59 65.54"/><polygon points="40.73 65.12 52.43 44.87 52.98 44.87 53.23 45.41 41.59 65.54 41 65.6 40.73 65.12"/></svg>