<svg id="图层_1" data-name="图层 1" xmlns="http://www.w3.org/2000/svg" viewBox="0 0 200 130"><defs><style>.cls-1,.cls-2{isolation:isolate;}.cls-2{font-size:10.69px;font-family:ArialMT, Arial;}.cls-3{fill:none;stroke:#000;stroke-miterlimit:3.77;stroke-width:0.89px;}</style></defs><polygon points="51 111.57 55.02 93.29 55.49 93.39 55.97 93.5 51.94 111.78 51.47 111.67 51 111.57"/><g class="cls-1"><text class="cls-2" transform="translate(52.82 92.33)">N</text></g><polygon points="61.31 85.45 78.37 78 78.89 78.3 78.86 78.84 61.7 86.34 61.51 85.89 61.31 85.45"/><polygon points="81.89 76.12 100.06 86.79 99.82 87.21 99.57 87.63 81.39 76.96 81.64 76.54 81.89 76.12"/><polygon points="79.35 78.01 99.8 90.01 99.79 90.57 99.79 91.13 78.86 78.84 78.89 78.3 79.35 78.01"/><polygon points="99.8 90.01 120.42 78.3 120.87 78.6 120.89 79.14 99.79 91.13 99.79 90.57 99.8 90.01"/><polygon points="121.39 78.31 138.61 86.12 138.41 86.56 138.21 87 120.89 79.14 120.87 78.6 121.39 78.31"/><g class="cls-1"><text class="cls-2" transform="translate(139.38 92.95)">S</text></g><polygon points="147.12 83.33 158.69 70.66 159.29 70.72 159.5 71.21 147.83 83.98 147.47 83.65 147.12 83.33"/><polygon points="160.99 67.34 181.87 67.49 181.86 67.97 181.86 68.46 160.98 68.31 160.99 67.83 160.99 67.34"/><polygon points="159.57 70.24 183.25 70.41 183.52 70.89 183.8 71.38 159.5 71.21 159.29 70.72 159.57 70.24"/><polygon points="183.25 70.41 195.23 49.99 195.79 49.99 196.35 50 183.8 71.38 183.52 70.89 183.25 70.41"/><polygon points="192.01 50.21 181.7 32.05 182.12 31.81 182.54 31.57 192.85 49.73 192.43 49.97 192.01 50.21"/><polygon points="195.23 49.99 183.54 29.4 183.82 28.92 184.11 28.43 196.35 50 195.79 49.99 195.23 49.99"/><polygon points="183.54 29.4 159.86 29.23 159.59 28.74 159.31 28.26 184.11 28.43 183.82 28.92 183.54 29.4"/><polygon points="161.66 31.91 151.09 49.91 150.68 49.67 150.26 49.42 160.83 31.42 161.25 31.66 161.66 31.91"/><polygon points="159.86 29.23 147.88 49.65 147.32 49.65 147.01 49.21 159.31 28.26 159.59 28.74 159.86 29.23"/><polygon points="147.07 50.19 128.5 54 128.4 53.52 128.31 53.05 147.01 49.21 147.32 49.65 147.07 50.19"/><g class="cls-1"><text class="cls-2" transform="translate(119.72 58.84)">N</text></g><polygon points="118.42 50.46 105.35 38.53 105.68 38.17 106.01 37.81 119.07 49.75 118.75 50.1 118.42 50.46"/><polygon points="123.45 59.96 121.39 78.31 120.87 78.6 120.42 78.3 122.49 59.85 122.97 59.91 123.45 59.96"/><polygon points="120.56 59.63 118.63 76.86 118.14 76.8 117.66 76.75 119.6 59.53 120.08 59.58 120.56 59.63"/><line class="cls-3" x1="127.13" y1="48.94" x2="131.17" y2="48.94"/><line class="cls-3" x1="129.15" y1="46.92" x2="129.15" y2="50.96"/><polygon points="147.88 49.65 159.57 70.24 159.29 70.72 158.69 70.66 147.07 50.19 147.32 49.65 147.88 49.65"/><polygon points="78.37 78 76.58 59.62 77.06 59.57 77.54 59.52 79.35 78.01 78.89 78.3 78.37 78"/><g class="cls-1"><text class="cls-2" transform="translate(72.97 58.51)">S</text></g><polygon points="71.89 53.65 53.1 49.52 52.86 48.97 53.17 48.54 72.1 52.71 72 53.18 71.89 53.65"/><polygon points="49.08 49.19 38.77 31.03 39.19 30.79 39.61 30.55 49.92 48.71 49.5 48.95 49.08 49.19"/><polygon points="52.3 48.97 40.61 28.38 40.89 27.89 41.17 27.41 53.17 48.54 52.86 48.97 52.3 48.97"/><polygon points="40.61 28.38 16.93 28.21 16.65 27.72 16.38 27.23 41.17 27.41 40.89 27.89 40.61 28.38"/><polygon points="18.73 30.89 8.16 48.89 7.74 48.65 7.33 48.4 17.89 30.39 18.31 30.64 18.73 30.89"/><polygon points="16.93 28.21 4.95 48.63 4.38 48.62 3.83 48.62 16.38 27.23 16.65 27.72 16.93 28.21"/><polygon points="4.95 48.63 16.64 69.22 16.35 69.7 16.07 70.18 3.83 48.62 4.38 48.62 4.95 48.63"/><polygon points="18.06 66.32 38.94 66.47 38.93 66.95 38.93 67.44 18.05 67.29 18.05 66.8 18.06 66.32"/><polygon points="16.64 69.22 40.31 69.39 40.59 69.87 40.37 70.36 16.07 70.18 16.35 69.7 16.64 69.22"/><polygon points="41.19 69.81 52.26 82.29 51.89 82.61 51.53 82.93 40.37 70.36 40.59 69.87 41.19 69.81"/><polygon points="40.31 69.39 52.3 48.97 52.86 48.97 53.1 49.52 41.19 69.81 40.59 69.87 40.31 69.39"/></svg>