<svg id="图层_1" data-name="图层 1" xmlns="http://www.w3.org/2000/svg" viewBox="0 0 200 130"><defs><style>.cls-1,.cls-2{isolation:isolate;}.cls-2{font-size:10.79px;font-family:ArialMT, Arial;}</style></defs><polygon points="106.12 40.6 119.34 52.63 119.01 52.99 118.68 53.36 105.46 41.33 105.79 40.97 106.12 40.6"/><g class="cls-1"><text class="cls-2" transform="translate(119.99 61.8)">N</text></g><polygon points="123.77 62.92 121.72 81.45 121.2 81.75 120.74 81.44 122.8 62.82 123.28 62.87 123.77 62.92"/><polygon points="121.22 82.29 99.95 94.43 99.95 93.87 99.95 93.3 120.74 81.44 121.2 81.75 121.22 82.29"/><polygon points="118.69 80.36 100.21 90.9 99.97 90.48 99.72 90.05 118.2 79.51 118.44 79.94 118.69 80.36"/><polygon points="99.95 94.43 78.8 82.07 78.83 81.53 79.29 81.23 99.95 93.3 99.95 93.87 99.95 94.43"/><polygon points="75.21 79.74 73.53 62.96 74.02 62.92 74.5 62.87 76.18 79.65 75.69 79.69 75.21 79.74"/><polygon points="78.3 81.22 76.45 62.67 76.94 62.62 77.42 62.58 79.29 81.23 78.83 81.53 78.3 81.22"/><g class="cls-1"><text class="cls-2" transform="translate(72.5 61.55)">N</text></g><polygon points="71.42 56.6 52.73 52.53 52.49 51.97 52.81 51.54 71.63 55.64 71.52 56.12 71.42 56.6"/><polygon points="48.68 52.2 38.23 33.89 38.66 33.65 39.09 33.41 49.53 51.71 49.1 51.95 48.68 52.2"/><polygon points="51.93 51.97 40.09 31.21 40.37 30.72 40.66 30.23 52.81 51.54 52.49 51.97 51.93 51.97"/><polygon points="40.09 31.21 16.19 31.09 15.91 30.6 15.63 30.11 40.66 30.23 40.37 30.72 40.09 31.21"/><polygon points="18.01 33.79 7.38 51.98 6.96 51.74 6.53 51.49 17.16 33.29 17.59 33.54 18.01 33.79"/><polygon points="16.19 31.09 4.13 51.72 3.56 51.72 3 51.72 15.63 30.11 15.91 30.6 16.19 31.09"/><polygon points="4.13 51.72 15.97 72.48 15.69 72.97 15.4 73.46 3 51.72 3.56 51.72 4.13 51.72"/><polygon points="17.4 69.55 38.47 69.66 38.47 70.15 38.47 70.64 17.39 70.53 17.4 70.04 17.4 69.55"/><polygon points="15.97 72.48 39.87 72.61 40.15 73.09 39.93 73.58 15.4 73.46 15.69 72.97 15.97 72.48"/><polygon points="40.75 73.03 52.22 85.9 51.85 86.22 51.48 86.55 39.93 73.58 40.15 73.09 40.75 73.03"/><g class="cls-1"><text class="cls-2" transform="translate(52.83 95.73)">S</text></g><polygon points="60.8 88.9 78.3 81.22 78.83 81.53 78.8 82.07 61.2 89.8 61 89.35 60.8 88.9"/><polygon points="39.87 72.61 51.93 51.97 52.49 51.97 52.73 52.53 40.75 73.03 40.15 73.09 39.87 72.61"/><polygon points="121.72 81.45 139.12 89.3 138.92 89.75 138.72 90.19 121.22 82.29 121.2 81.75 121.72 81.45"/><g class="cls-1"><text class="cls-2" transform="translate(139.9 96.18)">S</text></g><polygon points="147.71 86.45 159.36 73.65 159.96 73.72 160.17 74.21 148.43 87.11 148.07 86.78 147.71 86.45"/><polygon points="161.67 70.3 182.75 70.41 182.74 70.9 182.74 71.39 161.67 71.28 161.67 70.79 161.67 70.3"/><polygon points="160.24 73.23 184.14 73.35 184.42 73.84 184.7 74.33 160.17 74.21 159.96 73.72 160.24 73.23"/><polygon points="184.14 73.35 196.2 52.72 196.76 52.72 197.33 52.72 184.7 74.33 184.42 73.84 184.14 73.35"/><polygon points="192.95 52.95 182.51 34.64 182.93 34.4 183.36 34.16 193.8 52.46 193.38 52.7 192.95 52.95"/><polygon points="196.2 52.72 184.36 31.96 184.64 31.47 184.93 30.98 197.33 52.72 196.76 52.72 196.2 52.72"/><polygon points="184.36 31.96 160.46 31.83 160.18 31.34 159.9 30.85 184.93 30.98 184.64 31.47 184.36 31.96"/><polygon points="162.28 34.53 151.65 52.73 151.23 52.48 150.8 52.24 161.44 34.04 161.86 34.29 162.28 34.53"/><polygon points="160.46 31.83 148.4 52.47 147.84 52.47 147.53 52.03 159.9 30.85 160.18 31.34 160.46 31.83"/><polygon points="147.59 53.02 128.85 56.9 128.75 56.42 128.66 55.94 147.53 52.03 147.84 52.47 147.59 53.02"/><polygon points="148.4 52.47 160.24 73.23 159.96 73.72 159.36 73.65 147.59 53.02 147.84 52.47 148.4 52.47"/></svg>