<svg id="图层_1" data-name="图层 1" xmlns="http://www.w3.org/2000/svg" viewBox="0 0 175.58 113.8">
  <defs>
    <style>
      .cls-1, .cls-2, .cls-3, .cls-4 {
        isolation: isolate;
      }

      .cls-2, .cls-4 {
        font-size: 7.96px;
      }

      .cls-2, .cls-3, .cls-4 {
        font-family: ArialMT, Arial;
      }

      .cls-3 {
        font-size: 4.9px;
      }

      .cls-4 {
        letter-spacing: -0.02em;
      }
    </style>
  </defs>
  <polygon points="2.01 63.91 13.97 56.57 14.16 56.87 14.35 57.18 2.75 64.31 2.38 64.11 2.01 63.91"/>
  <polygon points="4.39 65 15.11 58.41 15.29 58.72 15.48 59.03 4.77 65.61 4.58 65.3 4.39 65"/>
  <g class="cls-1">
    <text class="cls-2" transform="translate(14.88 57.89)">N</text>
  </g>
  <polygon points="21.52 56.29 33.66 62.86 33.63 63.26 33.27 63.47 21.18 56.93 21.35 56.61 21.52 56.29"/>
  <polygon points="33.99 63.51 34.48 81.02 34.12 81.3 33.76 81.1 33.27 63.47 33.63 63.26 33.99 63.51"/>
  <polygon points="31.86 64.56 32.28 80.1 31.92 80.11 31.56 80.12 31.14 64.58 31.5 64.56 31.86 64.56"/>
  <polygon points="34.17 81.69 19.11 90.94 18.75 90.75 18.73 90.33 33.76 81.1 34.12 81.3 34.17 81.69"/>
  <polygon points="18.39 90.96 6.3 84.42 6.47 84.1 6.64 83.78 18.73 90.33 18.75 90.75 18.39 90.96"/>
  <polygon points="18.5 88.56 7.33 82.51 7.5 82.19 7.67 81.88 18.85 87.93 18.68 88.25 18.5 88.56"/>
  <g class="cls-1">
    <text class="cls-2" transform="translate(0 85.38)">N</text>
  </g>
  <polygon points="2.4 78.15 2.01 63.91 2.38 64.11 2.75 64.31 3.13 78.13 2.76 78.14 2.4 78.15"/>
  <polygon points="19.11 90.94 19.49 104.76 19.13 104.77 18.77 104.78 18.39 90.96 18.75 90.75 19.11 90.94"/>
  <g class="cls-1">
    <text class="cls-2" transform="translate(16.37 110.98)">N</text>
    <text class="cls-2" transform="translate(22.11 110.98)">H</text>
    <text class="cls-3" transform="translate(27.86 112.21)">2</text>
  </g>
  <polygon points="34.48 81.02 47.94 85 47.84 85.34 47.74 85.69 34.17 81.69 34.12 81.3 34.48 81.02"/>
  <g class="cls-1">
    <text class="cls-2" transform="translate(48.56 89.62)">N</text>
  </g>
  <polygon points="52.1 80.96 58.66 71.39 58.96 71.59 59.26 71.79 52.7 81.37 52.4 81.16 52.1 80.96"/>
  <polygon points="53.89 82.18 61.19 71.53 61.64 71.52 62.08 71.5 54.48 82.59 54.18 82.39 53.89 82.18"/>
  <polygon points="61.19 71.53 53.43 61.45 53.72 61.23 54.01 61.01 62.08 71.5 61.64 71.52 61.19 71.53"/>
  <g class="cls-1">
    <text class="cls-2" transform="translate(47.76 60.43)">N</text>
  </g>
  <polygon points="51.47 53.09 54.21 43.81 54.55 43.91 54.9 44.02 52.16 53.3 51.81 53.2 51.47 53.09"/>
  <g class="cls-1">
    <text class="cls-2" transform="translate(52.64 43.12)">O</text>
  </g>
  <polygon points="73.2 36.07 59.94 40.56 59.55 38.98 59.17 37.4 73.02 35.34 73.28 35.67 73.2 36.07"/>
  <polygon points="73.02 35.34 79.75 19.03 80.17 18.98 80.4 19.36 73.71 35.56 73.28 35.67 73.02 35.34"/>
  <polygon points="80.4 18.64 98.19 20.02 98.16 20.38 97.87 20.72 80.4 19.36 80.17 18.98 80.4 18.64"/>
  <polygon points="98.51 20.29 102.7 37.64 102.39 37.92 101.98 37.75 97.87 20.72 98.16 20.38 98.51 20.29"/>
  <polygon points="102.41 38.33 91.03 45.33 90.84 45.02 90.65 44.72 101.98 37.75 102.39 37.92 102.41 38.33"/>
  <g class="cls-1">
    <text class="cls-2" transform="translate(83.92 50.59)">O</text>
  </g>
  <polygon points="82.97 44.39 73.2 36.07 73.28 35.67 73.71 35.56 83.44 43.84 83.2 44.12 82.97 44.39"/>
  <polygon points="102.7 37.64 120.21 43.48 119.08 44.81 118.01 46.09 102.41 38.33 102.39 37.92 102.7 37.64"/>
  <polygon points="120.21 43.48 129.34 36.45 129.56 36.74 129.78 37.02 118.01 46.09 119.08 44.81 120.21 43.48"/>
  <g class="cls-1">
    <text class="cls-2" transform="translate(130.28 37.02)">O</text>
  </g>
  <polygon points="137.33 35.04 146.82 38.96 146.69 39.3 146.55 39.63 137.06 35.71 137.2 35.38 137.33 35.04"/>
  <g class="cls-1">
    <text class="cls-4" transform="translate(147.41 43.91)">P</text>
  </g>
  <polygon points="150.38 36.12 153.96 27.47 154.29 27.61 154.62 27.75 151.05 36.4 150.72 36.26 150.38 36.12"/>
  <polygon points="152.39 36.95 155.96 28.3 156.29 28.43 156.63 28.57 153.05 37.23 152.72 37.09 152.39 36.95"/>
  <g class="cls-1">
    <text class="cls-2" transform="translate(153.85 27.23)">O</text>
  </g>
  <polygon points="148.74 44.84 145.17 53.49 144.83 53.36 144.5 53.22 148.07 44.56 148.41 44.7 148.74 44.84"/>
  <g class="cls-1">
    <text class="cls-2" transform="translate(134.33 60.59)">H</text>
    <text class="cls-2" transform="translate(140.08 60.59)">O</text>
  </g>
  <polygon points="153.58 41.75 163.06 45.66 162.93 46 162.79 46.33 153.3 42.42 153.44 42.08 153.58 41.75"/>
  <g class="cls-1">
    <text class="cls-2" transform="translate(163.65 50.8)">O</text>
    <text class="cls-2" transform="translate(169.84 50.8)">H</text>
  </g>
  <polygon points="98.5 20.59 97.89 20.07 98.12 19.8 98.36 19.52 98.97 20.04 98.74 20.32 98.5 20.59"/>
  <polygon points="99.95 19.2 99.04 18.42 99.27 18.14 99.5 17.87 100.42 18.65 100.18 18.92 99.95 19.2"/>
  <polygon points="101.4 17.8 100.18 16.77 100.42 16.5 100.65 16.22 101.86 17.26 101.63 17.53 101.4 17.8"/>
  <polygon points="102.84 16.41 101.33 15.12 101.56 14.85 101.8 14.57 103.31 15.86 103.08 16.14 102.84 16.41"/>
  <polygon points="104.29 15.02 102.47 13.47 102.71 13.2 102.94 12.92 104.76 14.47 104.53 14.74 104.29 15.02"/>
  <polygon points="105.74 13.63 103.62 11.82 103.85 11.55 104.09 11.27 106.21 13.07 105.97 13.35 105.74 13.63"/>
  <polygon points="107.19 12.23 104.77 10.17 105 9.9 105.23 9.62 107.65 11.68 107.42 11.96 107.19 12.23"/>
  <g class="cls-1">
    <text class="cls-2" transform="translate(106.77 9.86)">O</text>
    <text class="cls-2" transform="translate(112.96 9.86)">H</text>
  </g>
  <polygon points="79.75 19.03 71.8 8.47 73.18 7.62 74.57 6.77 80.4 18.64 80.17 18.98 79.75 19.03"/>
  <g class="cls-1">
    <text class="cls-2" transform="translate(61.87 6.83)">H</text>
    <text class="cls-2" transform="translate(67.62 6.83)">O</text>
  </g>
  <polygon points="47.16 58.83 33.99 63.51 33.63 63.26 33.66 62.86 46.91 58.15 47.03 58.49 47.16 58.83"/>
</svg>
