<svg id="图层_1" data-name="图层 1" xmlns="http://www.w3.org/2000/svg" viewBox="0 0 185.85 109.67">
  <defs>
    <style>
      .cls-1, .cls-2, .cls-3 {
        isolation: isolate;
      }

      .cls-2, .cls-3 {
        font-size: 9.06px;
        font-family: ArialMT, Arial;
      }

      .cls-3 {
        letter-spacing: -0.02em;
      }
    </style>
  </defs>
  <polygon points="21.8 43.54 34.68 34.44 34.72 34.91 34.77 35.39 22.27 44.21 22.03 43.87 21.8 43.54"/>
  <polygon points="23.22 45.55 34.75 37.41 34.98 37.75 35.22 38.09 23.69 46.22 23.45 45.89 23.22 45.55"/>
  <g class="cls-1">
    <text class="cls-2" transform="translate(14.67 50.43)">N</text>
  </g>
  <polygon points="18.77 51.3 20.19 66.95 19.81 67.22 19.42 67.5 17.95 51.37 18.36 51.33 18.77 51.3"/>
  <polygon points="5.92 75.01 19.44 65.47 19.68 65.81 19.91 66.14 6.39 75.69 6.15 75.35 5.92 75.01"/>
  <polygon points="7.34 77.03 20.86 67.48 21.1 67.82 21.34 68.16 7.81 77.7 7.58 77.36 7.34 77.03"/>
  <g class="cls-1">
    <text class="cls-2" transform="translate(0 82.74)">S</text>
  </g>
  <polygon points="20.19 66.95 38.42 75.36 38.46 75.83 38.12 76.13 19.42 67.5 19.81 67.22 20.19 66.95"/>
  <polygon points="55.24 64.5 38.94 76 38.46 75.83 38.42 75.36 54.81 63.79 55.24 63.99 55.24 64.5"/>
  <polygon points="52.9 63.13 38.44 73.33 38.2 73 37.96 72.66 52.42 62.46 52.66 62.79 52.9 63.13"/>
  <polygon points="54.81 63.79 53.38 48.13 53.79 48.1 54.2 48.06 55.64 63.77 55.24 63.99 54.81 63.79"/>
  <g class="cls-1">
    <text class="cls-2" transform="translate(50.11 47.2)">N</text>
    <text class="cls-2" transform="translate(56.65 47.2)">H</text>
  </g>
  <polygon points="49.11 42.01 34.77 35.39 34.72 34.91 34.68 34.44 49.46 41.27 49.28 41.64 49.11 42.01"/>
  <polygon points="55.64 63.77 67.85 72.9 67.6 73.23 67.36 73.56 55.24 64.5 55.24 63.99 55.64 63.77"/>
  <g class="cls-1">
    <text class="cls-2" transform="translate(68.42 79.96)">N</text>
  </g>
  <polygon points="70.53 80.99 65.38 96.16 65.08 95.74 64.79 95.33 69.75 80.73 70.14 80.86 70.53 80.99"/>
  <polygon points="48.67 92.64 63.33 92.84 63.33 93.25 63.32 93.66 48.66 93.46 48.67 93.05 48.67 92.64"/>
  <polygon points="48.64 95.11 64.79 95.33 65.08 95.74 65.38 96.16 48.63 95.93 48.63 95.52 48.64 95.11"/>
  <g class="cls-1">
    <text class="cls-2" transform="translate(41.27 99.13)">N</text>
  </g>
  <polygon points="42.73 91.01 38.12 76.13 38.46 75.83 38.94 76 43.52 90.77 43.12 90.89 42.73 91.01"/>
  <polygon points="75.67 74.63 91 69.88 91.32 70.21 91.24 70.67 75.91 75.41 75.79 75.02 75.67 74.63"/>
  <polygon points="91.81 70.06 107.78 82 107.78 82.51 107.36 82.72 91.24 70.67 91.32 70.21 91.81 70.06"/>
  <polygon points="107.78 82 124.08 70.5 124.56 70.67 124.63 71.12 108.19 82.73 107.78 82.51 107.78 82"/>
  <polygon points="124.08 70.5 118.18 51.45 118.48 51.04 118.94 51.12 124.89 70.34 124.56 70.67 124.08 70.5"/>
  <polygon points="118.18 51.45 102.28 51.23 102.28 50.82 102.29 50.41 118.28 50.63 118.48 51.04 118.18 51.45"/>
  <g class="cls-1">
    <text class="cls-2" transform="translate(94.41 54.43)">O</text>
  </g>
  <polygon points="96.77 55.46 91.81 70.06 91.32 70.21 91 69.88 96 55.2 96.38 55.33 96.77 55.46"/>
  <polygon points="118.28 50.63 130.59 34.15 130.78 34.59 130.97 35.02 118.94 51.12 118.48 51.04 118.28 50.63"/>
  <polygon points="130.59 34.15 146.89 36.09 146.84 36.5 146.79 36.9 130.97 35.02 130.78 34.59 130.59 34.15"/>
  <g class="cls-1">
    <text class="cls-2" transform="translate(147.66 40.68)">O</text>
  </g>
  <polygon points="154.27 32.2 159.74 24.88 160.07 25.13 160.4 25.38 154.93 32.69 154.6 32.44 154.27 32.2"/>
  <g class="cls-1">
    <text class="cls-3" transform="translate(160.46 24.23)">P</text>
  </g>
  <polygon points="174.61 30.93 166.34 24.75 166.59 24.42 166.84 24.09 175.1 30.27 174.85 30.6 174.61 30.93"/>
  <polygon points="176.09 28.95 167.82 22.77 168.07 22.45 168.31 22.12 176.58 28.3 176.33 28.63 176.09 28.95"/>
  <g class="cls-1">
    <text class="cls-2" transform="translate(176.41 36.53)">O</text>
  </g>
  <polygon points="159.4 18.02 151.13 11.84 151.38 11.51 151.62 11.18 159.89 17.36 159.64 17.69 159.4 18.02"/>
  <g class="cls-1">
    <text class="cls-2" transform="translate(136.97 11.93)">H</text>
    <text class="cls-2" transform="translate(143.51 11.93)">O</text>
  </g>
  <polygon points="166.57 15.74 172.04 8.43 172.37 8.67 172.7 8.92 167.23 16.24 166.9 15.99 166.57 15.74"/>
  <g class="cls-1">
    <text class="cls-2" transform="translate(172.26 7.77)">O</text>
    <text class="cls-2" transform="translate(179.31 7.77)">H</text>
  </g>
  <polygon points="124.89 70.34 139.8 75.41 139.66 75.8 139.53 76.19 124.63 71.12 124.56 70.67 124.89 70.34"/>
  <g class="cls-1">
    <text class="cls-2" transform="translate(140.48 80.95)">O</text>
    <text class="cls-2" transform="translate(147.53 80.95)">H</text>
  </g>
  <polygon points="108.19 82.73 107.97 98.49 107.56 98.48 107.15 98.48 107.36 82.72 107.78 82.51 108.19 82.73"/>
  <g class="cls-1">
    <text class="cls-2" transform="translate(103.97 106.72)">O</text>
    <text class="cls-2" transform="translate(111.02 106.72)">H</text>
  </g>
</svg>
