<svg id="图层_1" data-name="图层 1" xmlns="http://www.w3.org/2000/svg" viewBox="0 0 190.24 98.31">
  <defs>
    <style>
      .cls-1, .cls-2, .cls-3, .cls-4 {
        isolation: isolate;
      }

      .cls-2, .cls-3 {
        font-size: 8.47px;
      }

      .cls-2, .cls-3, .cls-4 {
        font-family: ArialMT, Arial;
      }

      .cls-2 {
        letter-spacing: -0.02em;
      }

      .cls-4 {
        font-size: 5.21px;
      }
    </style>
  </defs>
  <polygon points="163.89 28.08 162.43 42.92 162.05 42.88 161.67 42.84 163.13 28 163.51 28.04 163.89 28.08"/>
  <g class="cls-1">
    <text class="cls-2" transform="translate(158.8 50.58)">P</text>
  </g>
  <polygon points="158.64 61.84 159.68 51.27 160.06 51.31 160.44 51.35 159.4 61.92 159.02 61.88 158.64 61.84"/>
  <polygon points="160.93 62.07 161.97 51.5 162.35 51.54 162.74 51.58 161.7 62.15 161.32 62.11 160.93 62.07"/>
  <g class="cls-1">
    <text class="cls-3" transform="translate(156.45 69.7)">O</text>
  </g>
  <polygon points="165.22 46.77 176.77 46.77 176.77 47.15 176.77 47.54 165.22 47.54 165.22 47.15 165.22 46.77"/>
  <g class="cls-1">
    <text class="cls-3" transform="translate(177.54 50.58)">O</text>
    <text class="cls-3" transform="translate(184.13 50.58)">H</text>
  </g>
  <polygon points="158 47.18 146.54 46.06 146.58 45.67 146.62 45.29 158.07 46.42 158.04 46.8 158 47.18"/>
  <g class="cls-1">
    <text class="cls-3" transform="translate(139.22 48.71)">O</text>
  </g>
  <polygon points="139.77 49.77 131.26 61.65 131.33 60.89 131.41 60.12 139.14 49.32 139.46 49.55 139.77 49.77"/>
  <polygon points="112.22 59.43 112.31 58.6 112.69 58.64 113.07 58.68 112.99 59.5 112.61 59.47 112.22 59.43"/>
  <polygon points="114.5 59.81 114.61 58.67 114.99 58.7 115.38 58.74 115.26 59.89 114.88 59.85 114.5 59.81"/>
  <polygon points="116.77 60.2 116.91 58.73 117.3 58.77 117.68 58.81 117.53 60.27 117.15 60.23 116.77 60.2"/>
  <polygon points="119.04 60.58 119.22 58.8 119.6 58.83 119.98 58.87 119.81 60.66 119.42 60.62 119.04 60.58"/>
  <polygon points="121.31 60.97 121.52 58.86 121.9 58.9 122.29 58.94 122.08 61.04 121.7 61.01 121.31 60.97"/>
  <polygon points="123.59 61.35 123.83 58.93 124.21 58.96 124.59 59 124.35 61.43 123.97 61.39 123.59 61.35"/>
  <polygon points="125.86 61.74 126.13 58.99 126.51 59.03 126.89 59.07 126.62 61.81 126.24 61.77 125.86 61.74"/>
  <polygon points="128.13 62.12 128.43 59.06 128.81 59.09 129.2 59.13 128.9 62.2 128.51 62.16 128.13 62.12"/>
  <polygon points="130.4 62.51 130.74 59.12 131.12 59.16 131.5 59.2 131.17 62.58 130.78 62.55 130.4 62.51"/>
  <polygon points="112.51 59.27 99.9 73.46 99.47 73.37 99.36 72.9 111.75 58.96 112.22 59.01 112.51 59.27"/>
  <polygon points="99.11 73.63 81.72 66.03 81.87 65.68 82.28 65.44 99.36 72.9 99.47 73.37 99.11 73.63"/>
  <polygon points="81.49 65.64 83.34 46.74 83.75 46.56 84.1 46.88 82.28 65.44 81.87 65.68 81.49 65.64"/>
  <polygon points="83.88 46.14 98.36 42.96 98.44 43.34 98.53 43.71 84.1 46.88 83.75 46.56 83.88 46.14"/>
  <g class="cls-1">
    <text class="cls-3" transform="translate(99.21 45.87)">O</text>
  </g>
  <polygon points="105.34 46.52 112.55 58.82 112.22 59.01 111.75 58.96 104.68 46.91 105.01 46.72 105.34 46.52"/>
  <polygon points="83.34 46.74 72.07 38.5 73.21 37.21 74.36 35.91 83.88 46.14 83.75 46.56 83.34 46.74"/>
  <g class="cls-1">
    <text class="cls-3" transform="translate(66.33 37.24)">N</text>
  </g>
  <polygon points="69.42 29.5 70.86 14.94 71.27 14.7 71.68 14.46 70.19 29.58 69.81 29.54 69.42 29.5"/>
  <polygon points="57.65 8.33 71.68 14.46 71.27 14.7 70.86 14.94 57.34 9.03 57.49 8.68 57.65 8.33"/>
  <polygon points="56.73 10.44 68.96 15.79 68.81 16.14 68.66 16.49 56.42 11.14 56.57 10.79 56.73 10.44"/>
  <g class="cls-1">
    <text class="cls-3" transform="translate(50.61 10.44)">N</text>
  </g>
  <polygon points="50.16 11.53 41.39 21.41 40.92 21.36 40.74 20.98 49.59 11.02 49.88 11.28 50.16 11.53"/>
  <polygon points="50.19 37.93 40.7 21.75 40.92 21.36 41.39 21.41 50.82 37.5 50.63 37.93 50.19 37.93"/>
  <polygon points="51.44 35.52 43.42 21.84 43.75 21.64 44.08 21.45 52.1 35.13 51.77 35.32 51.44 35.52"/>
  <polygon points="50.88 38.27 43.9 50.55 43.57 50.36 43.23 50.17 50.19 37.93 50.63 37.93 50.88 38.27"/>
  <g class="cls-1">
    <text class="cls-3" transform="translate(38.09 58.06)">N</text>
  </g>
  <polygon points="23.25 52.06 37.3 51.97 37.3 52.35 37.3 52.73 23.25 52.83 23.25 52.44 23.25 52.06"/>
  <polygon points="22.16 54.37 37.31 54.27 37.32 54.65 37.32 55.04 21.72 55.14 21.94 54.76 22.16 54.37"/>
  <polygon points="21.72 55.14 14.4 42.66 14.73 42.46 15.06 42.27 22.16 54.37 21.94 54.76 21.72 55.14"/>
  <g class="cls-1">
    <text class="cls-3" transform="translate(9.17 41.62)">N</text>
  </g>
  <polygon points="23.39 23.98 16.99 35.25 16.65 35.06 16.32 34.87 22.72 23.6 23.06 23.79 23.39 23.98"/>
  <polygon points="21.94 21.88 14.98 34.11 14.65 33.92 14.32 33.73 21.27 21.5 21.71 21.5 21.94 21.88"/>
  <polygon points="21.27 21.5 14.17 9.39 14.5 9.2 14.83 9.01 21.93 21.11 21.71 21.5 21.27 21.5"/>
  <g class="cls-1">
    <text class="cls-3" transform="translate(0 7.27)">H</text>
    <text class="cls-4" transform="translate(6.12 8.57)">2</text>
    <text class="cls-3" transform="translate(9.01 7.27)">N</text>
  </g>
  <polygon points="21.93 21.11 40.74 20.98 40.92 21.36 40.7 21.75 21.94 21.88 21.71 21.5 21.93 21.11"/>
  <polygon points="50.82 37.5 65.48 34.27 65.56 34.65 65.64 35.03 50.88 38.27 50.63 37.93 50.82 37.5"/>
  <polygon points="81.6 65.34 82.03 66.07 81.7 66.27 81.37 66.46 80.94 65.73 81.27 65.53 81.6 65.34"/>
  <polygon points="79.53 66.31 80.17 67.41 79.84 67.6 79.51 67.8 78.87 66.7 79.2 66.5 79.53 66.31"/>
  <polygon points="77.46 67.28 78.32 68.74 77.98 68.94 77.65 69.13 76.8 67.67 77.13 67.47 77.46 67.28"/>
  <polygon points="75.39 68.25 76.46 70.08 76.13 70.27 75.8 70.47 74.72 68.64 75.06 68.44 75.39 68.25"/>
  <polygon points="73.31 69.22 74.6 71.41 74.27 71.61 73.94 71.8 72.65 69.61 72.98 69.42 73.31 69.22"/>
  <polygon points="71.24 70.19 72.74 72.75 72.41 72.94 72.08 73.14 70.58 70.58 70.91 70.39 71.24 70.19"/>
  <polygon points="69.17 71.16 70.88 74.08 70.55 74.28 70.22 74.47 68.51 71.55 68.84 71.36 69.17 71.16"/>
  <g class="cls-1">
    <text class="cls-3" transform="translate(55.9 78.82)">H</text>
    <text class="cls-3" transform="translate(62.01 78.82)">O</text>
  </g>
  <polygon points="99.9 73.46 104.34 87.48 102.65 87.85 100.96 88.22 99.11 73.63 99.47 73.37 99.9 73.46"/>
  <g class="cls-1">
    <text class="cls-3" transform="translate(100.29 95.56)">O</text>
    <text class="cls-3" transform="translate(106.88 95.56)">H</text>
  </g>
</svg>
