<?xml version="1.0" encoding="utf-8"?>
<!-- Generator: Adobe Illustrator 22.1.0, SVG Export Plug-In . SVG Version: 6.00 Build 0)  -->
<svg version="1.1" id="图层_1" xmlns="http://www.w3.org/2000/svg" xmlns:xlink="http://www.w3.org/1999/xlink" x="0px" y="0px"
	 viewBox="0 0 200 130" style="enable-background:new 0 0 200 130;" xml:space="preserve">
<style type="text/css">
	.st0{font-family:'ArialMT';}
	.st1{font-size:5.056px;}
	.st2{font-size:3.1114px;}
</style>
<g>
	<polygon points="95.7,10 106,9.5 106,9.7 106,9.9 97.9,10.3 96.8,10.2 	"/>
	<text transform="matrix(1 0 0 1 106.4961 10.9688)" class="st0 st1">N</text>
	<text transform="matrix(1 0 0 1 110.1475 10.9688)" class="st0 st1">H</text>
	<text transform="matrix(1 0 0 1 113.7988 11.7461)" class="st0 st2">2</text>
	<polygon points="90.6,19.7 95.7,10 96.8,10.2 97.9,10.3 91,19.9 90.7,19.9 	"/>
	<polygon points="79.1,19.7 90.6,19.7 90.7,19.9 90.6,20.1 79.3,20.1 79.1,19.9 	"/>
	<polygon points="73,30 79,19.8 79.1,19.9 79.3,20.1 73.3,30.2 73.1,30.2 	"/>
	<polygon points="73.3,30.2 78.7,40.3 78.5,40.6 78.3,40.7 72.9,30.5 73.1,30.2 	"/>
	<polygon points="78.7,40.3 90.6,40.3 90.7,40.6 90.7,40.8 78.5,40.8 78.5,40.6 	"/>
	<polygon points="90.6,40.3 95.5,32.7 95.7,32.8 95.9,32.9 90.9,40.7 90.7,40.6 	"/>
	<text transform="matrix(1 0 0 1 95.415 32.2837)" class="st0 st1">O</text>
	<polygon points="91,19.9 95.9,27.6 95.7,27.7 95.5,27.8 90.6,20.1 90.7,19.9 	"/>
	<polygon points="90.5,40.7 90.9,40.5 91.1,40.7 91.2,40.9 90.7,41.1 90.6,40.9 	"/>
	<polygon points="91.1,41.9 91.7,41.5 91.9,41.7 92,41.9 91.3,42.3 91.2,42.1 	"/>
	<polygon points="91.7,43.1 92.6,42.6 92.7,42.8 92.8,43 91.9,43.5 91.8,43.3 	"/>
	<polygon points="92.3,44.3 93.4,43.6 93.5,43.8 93.6,44 92.5,44.7 92.4,44.5 	"/>
	<polygon points="92.9,45.5 94.2,44.7 94.3,44.9 94.4,45.1 93.1,45.9 93,45.7 	"/>
	<polygon points="93.5,46.7 95,45.8 95.1,46 95.2,46.1 93.7,47.1 93.6,46.9 	"/>
	<polygon points="94.1,47.9 95.8,46.8 95.9,47 96,47.2 94.3,48.3 94.2,48.1 	"/>
	<text transform="matrix(1 0 0 1 94.8071 52.3398)" class="st0 st1">O</text>
	<polygon points="106.6,56.1 106.3,56.6 106.1,56.4 105.9,56.3 106.2,55.9 106.4,56 	"/>
	<polygon points="105.5,55.3 105.1,56 104.9,55.8 104.7,55.7 105.1,55.1 105.3,55.2 	"/>
	<polygon points="104.4,54.5 103.9,55.3 103.7,55.2 103.5,55.1 104.1,54.2 104.2,54.4 	"/>
	<polygon points="103.4,53.7 102.7,54.7 102.5,54.6 102.3,54.5 103,53.4 103.2,53.5 	"/>
	<polygon points="102.3,52.8 101.5,54.1 101.3,54 101.1,53.9 101.9,52.6 102.1,52.7 	"/>
	<polygon points="101.2,52 100.3,53.5 100.1,53.4 99.9,53.3 100.8,51.8 101,51.9 	"/>
	<polygon points="100.1,51.2 99.1,52.9 98.9,52.8 98.7,52.7 99.7,51 99.9,51.1 	"/>
	<polygon points="106.4,56.2 117.3,50.1 117.4,50.3 117.4,50.6 106.7,56.5 106.5,56.4 	"/>
	<polygon points="117.8,50.2 127.4,56.2 127.2,56.4 126.9,56.5 117.4,50.6 117.4,50.3 	"/>
	<polygon points="126.9,67.8 126.9,56.5 127.2,56.4 127.4,56.2 127.4,67.8 127.2,67.9 	"/>
	<polygon points="116.8,73.7 126.9,67.8 127.2,67.9 127.2,68.2 116.9,74.2 116.8,74 	"/>
	<polygon points="106.7,67.8 116.8,73.7 116.8,74 116.7,74.2 106.5,68.2 106.5,67.9 	"/>
	<polygon points="106.7,56.5 106.7,67.8 106.5,67.9 106.3,67.8 106.3,56.4 106.5,56.4 	"/>
	<polygon points="106.5,68.2 99.7,73.4 99.2,72.5 98.7,71.6 106.3,67.8 106.5,67.9 	"/>
	<text transform="matrix(1 0 0 1 91.1563 76.043)" class="st0 st1">H</text>
	<text transform="matrix(1 0 0 1 94.8076 76.043)" class="st0 st1">O</text>
	<polygon points="116.6,74 117.1,74 117.1,74.2 117.1,74.5 116.6,74.5 116.6,74.3 	"/>
	<polygon points="116.5,75.3 117.3,75.2 117.3,75.5 117.3,75.7 116.6,75.7 116.5,75.5 	"/>
	<polygon points="116.5,76.5 117.4,76.4 117.4,76.7 117.5,76.9 116.5,76.9 116.5,76.7 	"/>
	<polygon points="116.4,77.7 117.6,77.6 117.6,77.9 117.6,78.1 116.5,78.2 116.5,77.9 	"/>
	<polygon points="116.4,78.9 117.8,78.9 117.8,79.1 117.8,79.3 116.4,79.4 116.4,79.2 	"/>
	<polygon points="116.4,80.1 117.9,80.1 118,80.3 118,80.5 116.4,80.6 116.4,80.4 	"/>
	<polygon points="116.3,81.4 118.1,81.3 118.1,81.5 118.1,81.7 116.3,81.8 116.3,81.6 	"/>
	<polygon points="116.3,82.6 118.3,82.5 118.3,82.7 118.3,82.9 116.3,83 116.3,82.8 	"/>
	<text transform="matrix(1 0 0 1 115.4707 87.5898)" class="st0 st1">O</text>
	<polygon points="106.6,91.2 106.4,90.8 106.6,90.7 106.8,90.6 107.1,91 106.8,91.1 	"/>
	<polygon points="107.8,90.7 107.5,90.1 107.7,90 107.9,89.9 108.3,90.5 108,90.6 	"/>
	<polygon points="109,90.3 108.6,89.4 108.8,89.3 109,89.2 109.5,90.1 109.2,90.2 	"/>
	<polygon points="110.2,89.8 109.7,88.8 109.9,88.6 110.1,88.5 110.7,89.6 110.5,89.7 	"/>
	<polygon points="111.4,89.3 110.8,88.1 111,88 111.2,87.9 111.9,89.1 111.7,89.2 	"/>
	<polygon points="112.7,88.8 111.9,87.4 112.1,87.3 112.4,87.2 113.1,88.6 112.9,88.7 	"/>
	<polygon points="113.9,88.3 113,86.7 113.3,86.6 113.5,86.5 114.3,88.1 114.1,88.2 	"/>
	<polygon points="115.1,87.9 114.2,86.1 114.4,86 114.6,85.8 115.5,87.7 115.3,87.8 	"/>
	<polygon points="106.7,91 107.3,103.2 107.1,103.2 106.9,103 106.3,91.1 106.5,91 	"/>
	<polygon points="96.8,108.4 106.9,103 107.1,103.2 107.2,103.4 97,108.8 96.8,108.6 	"/>
	<polygon points="86.7,103 96.8,108.4 96.8,108.6 96.5,108.8 86.3,103.4 86.4,103.2 	"/>
	<polygon points="86.7,91.8 86.7,103 86.4,103.2 86.2,103.2 86.2,91.8 86.4,91.6 	"/>
	<polygon points="86.4,91.4 94.8,86.7 95,86.9 95.1,87.1 86.7,91.8 86.4,91.6 	"/>
	<text transform="matrix(1 0 0 1 95.415 87.5898)" class="st0 st1">O</text>
	<polygon points="106.3,91.1 99.7,87.2 99.8,87 99.9,86.8 106.6,90.8 106.5,91 	"/>
	<polygon points="86.2,91.8 75.2,86.9 76.1,86.2 77,85.5 86.4,91.4 86.4,91.6 	"/>
	<polygon points="75.2,86.9 68.9,90 68.8,89.8 68.7,89.6 77,85.5 76.1,86.2 	"/>
	<text transform="matrix(1 0 0 1 60.7686 93.0596)" class="st0 st1">H</text>
	<text transform="matrix(1 0 0 1 64.4194 93.0596)" class="st0 st1">O</text>
	<polygon points="86.3,103 86.5,103.4 86.3,103.5 86.1,103.6 85.9,103.2 86.1,103.1 	"/>
	<polygon points="85.2,103.4 85.5,104.1 85.3,104.2 85.1,104.3 84.8,103.6 85,103.5 	"/>
	<polygon points="84.1,103.9 84.5,104.7 84.3,104.8 84.1,104.9 83.7,104.1 83.9,104 	"/>
	<polygon points="82.9,104.4 83.5,105.4 83.3,105.5 83.1,105.6 82.5,104.6 82.7,104.5 	"/>
	<polygon points="81.8,104.8 82.5,106.1 82.3,106.2 82.1,106.3 81.4,105.1 81.6,104.9 	"/>
	<polygon points="80.7,105.3 81.4,106.7 81.2,106.8 81,106.9 80.3,105.5 80.5,105.4 	"/>
	<polygon points="79.6,105.8 80.4,107.4 80.2,107.5 80,107.6 79.2,106 79.4,105.9 	"/>
	<polygon points="78.5,106.2 79.4,108 79.2,108.1 79,108.2 78.1,106.5 78.3,106.4 	"/>
	<text transform="matrix(1 0 0 1 70.4927 110.6855)" class="st0 st1">H</text>
	<text transform="matrix(1 0 0 1 74.1436 110.6855)" class="st0 st1">O</text>
	<polygon points="97,108.8 97.3,117.7 96.3,117.6 95.3,117.6 96.5,108.8 96.8,108.6 	"/>
	<text transform="matrix(1 0 0 1 89.0034 121.5811)" class="st0 st1">H</text>
	<text transform="matrix(1 0 0 1 92.6548 122.3594)" class="st0 st2">2</text>
	<text transform="matrix(1 0 0 1 94.3848 121.5811)" class="st0 st1">N</text>
	<polygon points="107,103.4 107.3,103 107.5,103.1 107.7,103.2 107.4,103.6 107.2,103.5 	"/>
	<polygon points="108,104.1 108.4,103.4 108.6,103.5 108.8,103.6 108.4,104.3 108.2,104.2 	"/>
	<polygon points="109.1,104.7 109.5,103.9 109.7,104 109.9,104.1 109.5,104.9 109.3,104.8 	"/>
	<polygon points="110.1,105.4 110.6,104.4 110.8,104.5 111,104.6 110.5,105.6 110.3,105.5 	"/>
	<polygon points="111.1,106.1 111.7,104.8 111.9,104.9 112.1,105.1 111.5,106.3 111.3,106.2 	"/>
	<polygon points="112.1,106.7 112.8,105.3 113,105.4 113.3,105.5 112.5,106.9 112.3,106.8 	"/>
	<polygon points="113.1,107.4 114,105.8 114.2,105.9 114.4,106 113.5,107.6 113.3,107.5 	"/>
	<polygon points="114.1,108 115.1,106.2 115.3,106.4 115.5,106.5 114.5,108.2 114.3,108.1 	"/>
	<text transform="matrix(1 0 0 1 115.4707 110.6855)" class="st0 st1">O</text>
	<text transform="matrix(1 0 0 1 119.4043 110.6855)" class="st0 st1">H</text>
	<polygon points="127.4,67.8 135.1,71.2 134.6,72.1 134.1,73 127.2,68.2 127.2,67.9 	"/>
	<text transform="matrix(1 0 0 1 135.0605 74.7842)" class="st0 st1">N</text>
	<text transform="matrix(1 0 0 1 138.7119 74.7842)" class="st0 st1">H</text>
	<text transform="matrix(1 0 0 1 142.3633 75.5615)" class="st0 st2">2</text>
	<polygon points="117.3,50.1 120.6,42.6 121.5,43.1 122.4,43.6 117.8,50.2 117.4,50.3 	"/>
	<text transform="matrix(1 0 0 1 121.082 41.9648)" class="st0 st1">N</text>
	<text transform="matrix(1 0 0 1 124.7334 41.9648)" class="st0 st1">H</text>
	<text transform="matrix(1 0 0 1 128.3848 42.7422)" class="st0 st2">2</text>
	<polygon points="78.3,40.5 78.7,40.7 78.6,40.9 78.5,41.1 78.1,40.9 78.2,40.7 	"/>
	<polygon points="77.5,41.5 78.1,41.9 78,42.1 77.9,42.3 77.3,41.9 77.4,41.7 	"/>
	<polygon points="76.7,42.6 77.5,43.1 77.4,43.3 77.3,43.5 76.4,43 76.6,42.8 	"/>
	<polygon points="75.9,43.6 76.9,44.3 76.8,44.5 76.7,44.7 75.6,44 75.8,43.8 	"/>
	<polygon points="75.1,44.7 76.3,45.5 76.2,45.7 76.1,45.9 74.8,45.1 74.9,44.9 	"/>
	<polygon points="74.3,45.8 75.8,46.7 75.6,46.9 75.5,47.1 74,46.1 74.1,46 	"/>
	<polygon points="73.4,46.8 75.2,47.9 75,48.1 74.9,48.3 73.2,47.2 73.3,47 	"/>
	<text transform="matrix(1 0 0 1 65.3008 51.6885)" class="st0 st1">H</text>
	<text transform="matrix(1 0 0 1 68.9521 52.4668)" class="st0 st2">2</text>
	<text transform="matrix(1 0 0 1 70.6826 51.6885)" class="st0 st1">N</text>
	<polygon points="72.9,30.5 63.9,30.8 63.9,29.8 64,28.7 73,30 73.1,30.2 	"/>
	<text transform="matrix(1 0 0 1 55.9063 31.6758)" class="st0 st1">H</text>
	<text transform="matrix(1 0 0 1 59.5576 31.6758)" class="st0 st1">O</text>
	<polygon points="79.4,19.7 78.9,20 78.8,19.8 78.7,19.6 79.1,19.3 79.2,19.5 	"/>
	<polygon points="78.8,18.6 78.2,18.9 78.1,18.7 77.9,18.5 78.6,18.2 78.7,18.4 	"/>
	<polygon points="78.3,17.4 77.4,17.9 77.3,17.7 77.2,17.5 78.1,17 78.2,17.2 	"/>
	<polygon points="77.8,16.2 76.7,16.8 76.6,16.6 76.5,16.4 77.6,15.8 77.7,16 	"/>
	<polygon points="77.3,15 75.9,15.7 75.8,15.5 75.7,15.3 77,14.6 77.2,14.8 	"/>
	<polygon points="76.7,13.8 75.2,14.7 75.1,14.5 75,14.3 76.5,13.4 76.6,13.6 	"/>
	<polygon points="76.2,12.6 74.5,13.6 74.3,13.4 74.2,13.2 76,12.2 76.1,12.4 	"/>
	<text transform="matrix(1 0 0 1 68.0615 12.2275)" class="st0 st1">H</text>
	<text transform="matrix(1 0 0 1 71.7129 12.2275)" class="st0 st1">O</text>
</g>
</svg>
