<svg id="图层_1" data-name="图层 1" xmlns="http://www.w3.org/2000/svg" viewBox="0 0 200 130"><defs><style>.cls-1,.cls-2,.cls-3,.cls-5{isolation:isolate;}.cls-2,.cls-3{font-size:4.56px;}.cls-2,.cls-3,.cls-5{font-family:ArialMT, Arial;}.cls-3{letter-spacing:-0.02em;}.cls-4{fill:none;stroke:#000;stroke-miterlimit:3.91;stroke-width:0.92px;}.cls-5{font-size:2.81px;}</style></defs><polygon points="157.73 32.5 158.2 42.72 158 42.84 157.78 42.73 157.32 32.52 157.53 32.51 157.73 32.5"/><polygon points="158.2 42.72 167.39 47.48 167.19 47.61 166.99 47.73 158.01 43.08 158 42.84 158.2 42.72"/><polygon points="158.16 44.09 166.07 48.2 165.98 48.38 165.88 48.56 157.97 44.46 158.06 44.28 158.16 44.09"/><polygon points="167.39 47.48 167.86 57.82 167.66 57.94 167.45 57.84 166.99 47.73 167.19 47.61 167.39 47.48"/><polygon points="167.67 58.18 159.15 63.63 158.94 63.52 158.93 63.28 167.45 57.84 167.66 57.94 167.67 58.18"/><polygon points="166.5 57.46 158.99 62.26 158.87 62.09 158.76 61.91 166.27 57.11 166.38 57.28 166.5 57.46"/><polygon points="158.74 63.65 149.55 58.89 149.75 58.76 149.95 58.63 158.93 63.28 158.94 63.52 158.74 63.65"/><polygon points="149.55 58.89 149.08 48.55 149.28 48.42 149.49 48.53 149.95 58.63 149.75 58.76 149.55 58.89"/><polygon points="150.75 58 150.35 49.09 150.55 49.08 150.76 49.07 151.16 57.98 150.96 57.99 150.75 58"/><polygon points="149.08 48.55 139.99 43.84 140.09 43.66 140.19 43.48 149.27 48.18 149.28 48.42 149.08 48.55"/><polygon points="149.27 48.18 157.78 42.73 158 42.84 158.01 43.08 149.49 48.53 149.28 48.42 149.27 48.18"/><polygon points="159.15 63.63 159.51 71.55 159.31 71.56 159.1 71.57 158.74 63.65 158.94 63.52 159.15 63.63"/><g class="cls-1"><text class="cls-2" transform="translate(157.76 75.71)">N</text></g><polygon points="161.57 74.75 168.59 78.38 168.6 78.62 168.4 78.75 161.38 75.11 161.47 74.93 161.57 74.75"/><polygon points="170.08 79.27 170.41 86.59 170.21 86.6 170 86.61 169.67 79.29 169.87 79.28 170.08 79.27"/><polygon points="168.81 78.73 169.17 86.65 168.97 86.66 168.76 86.67 168.4 78.75 168.6 78.62 168.81 78.73"/><g class="cls-1"><text class="cls-2" transform="translate(167.42 90.81)">N</text></g><polygon points="171.23 89.84 178.25 93.48 178.26 93.72 178.27 93.96 171.04 90.21 171.13 90.03 171.23 89.84"/><polygon points="179.07 93.33 179.46 101.72 179.25 101.73 179.04 101.74 178.66 93.34 178.87 93.34 179.07 93.33"/><polygon points="177.83 93.38 178.21 101.78 178.01 101.79 177.8 101.8 177.42 93.4 177.63 93.39 177.83 93.38"/><g class="cls-1"><text class="cls-2" transform="translate(176.96 105.91)">O</text></g><polygon points="178.25 93.48 184.81 89.29 184.92 89.46 185.03 89.64 178.27 93.96 178.26 93.72 178.25 93.48"/><g class="cls-1"><text class="cls-2" transform="translate(185.33 89.99)">N</text><text class="cls-2" transform="translate(188.63 89.99)">H</text></g><polygon points="186.67 85.85 186.31 77.94 186.51 77.81 186.71 77.68 187.08 85.83 186.87 85.84 186.67 85.85"/><polygon points="185.76 77.3 192.59 72.93 192.7 73.11 192.81 73.28 185.98 77.65 185.87 77.48 185.76 77.3"/><polygon points="186.43 78.35 193.26 73.98 193.37 74.15 193.48 74.33 186.65 78.7 186.54 78.52 186.43 78.35"/><g class="cls-1"><text class="cls-2" transform="translate(193.45 74.08)">O</text></g><polygon points="186.31 77.94 177.33 73.28 177.32 73.05 177.52 72.92 186.71 77.68 186.51 77.81 186.31 77.94"/><polygon points="175.84 72.39 175.5 65.07 175.71 65.06 175.92 65.06 176.25 72.38 176.04 72.39 175.84 72.39"/><polygon points="177.11 72.94 176.75 65.02 176.95 65.01 177.16 65 177.52 72.92 177.32 73.05 177.11 72.94"/><g class="cls-1"><text class="cls-2" transform="translate(175.2 64.55)">N</text></g><polygon points="174.69 61.82 167.67 58.18 167.66 57.94 167.86 57.82 174.88 61.45 174.78 61.64 174.69 61.82"/><polygon points="177.33 73.28 168.81 78.73 168.6 78.62 168.59 78.38 177.11 72.94 177.32 73.05 177.33 73.28"/><polygon points="157.46 75.35 150.7 79.68 150.69 79.44 150.68 79.2 157.24 75.01 157.35 75.18 157.46 75.35"/><polygon points="150.7 79.68 141.51 74.92 141.5 74.68 141.71 74.55 150.68 79.2 150.69 79.44 150.7 79.68"/><polygon points="141.51 74.92 133 80.36 132.79 80.25 132.78 80.02 141.29 74.57 141.5 74.68 141.51 74.92"/><polygon points="132.58 80.38 123.61 75.73 123.6 75.49 123.8 75.36 132.78 80.02 132.79 80.25 132.58 80.38"/><polygon points="123.61 75.73 114.89 81.31 114.88 81.07 114.87 80.83 123.38 75.38 123.6 75.49 123.61 75.73"/><polygon points="114.89 81.31 107.78 77.63 107.88 77.44 107.97 77.26 114.87 80.83 114.88 81.07 114.89 81.31"/><g class="cls-1"><text class="cls-2" transform="translate(103.91 78.16)">O</text></g><polygon points="103.61 77.89 99.02 80.82 98.91 80.65 98.8 80.47 103.39 77.54 103.5 77.71 103.61 77.89"/><g class="cls-1"><text class="cls-3" transform="translate(95.45 83.74)">P</text></g><polygon points="99.14 83.74 101.77 87.86 101.6 87.97 101.42 88.08 98.79 83.97 98.97 83.86 99.14 83.74"/><polygon points="98.09 84.41 100.73 88.53 100.55 88.64 100.38 88.75 97.75 84.64 97.92 84.52 98.09 84.41"/><g class="cls-1"><text class="cls-2" transform="translate(100.77 92.45)">O</text></g><polygon points="95.32 79.7 92.69 75.58 92.87 75.47 93.04 75.36 95.67 79.47 95.5 79.59 95.32 79.7"/><g class="cls-1"><text class="cls-2" transform="translate(89.62 75.02)">O</text></g><line class="cls-4" x1="92.97" y1="70.73" x2="94.7" y2="70.73"/><polygon points="95.15 83.3 90.55 86.24 90.44 86.06 90.33 85.89 94.92 82.95 95.03 83.13 95.15 83.3"/><g class="cls-1"><text class="cls-2" transform="translate(86.48 89.31)">O</text></g><polygon points="85.97 86.52 80.9 83.89 81 83.71 81.09 83.52 86.16 86.15 86.06 86.33 85.97 86.52"/><g class="cls-1"><text class="cls-3" transform="translate(77.54 84.55)">P</text></g><polygon points="78.61 85.39 76.23 89.97 76.05 89.88 75.86 89.78 78.24 85.2 78.42 85.29 78.61 85.39"/><polygon points="77.5 84.82 75.13 89.4 74.94 89.31 74.76 89.21 77.14 84.63 77.32 84.72 77.5 84.82"/><g class="cls-1"><text class="cls-2" transform="translate(72.53 93.74)">O</text></g><polygon points="80.07 80.31 82.45 75.72 82.63 75.82 82.82 75.91 80.44 80.5 80.26 80.4 80.07 80.31"/><g class="cls-1"><text class="cls-2" transform="translate(82.05 75.36)">O</text></g><line class="cls-4" x1="85.4" y1="71.07" x2="87.13" y2="71.07"/><polygon points="77.03 81.89 71.97 79.26 72.06 79.08 72.16 78.89 77.22 81.52 77.13 81.7 77.03 81.89"/><g class="cls-1"><text class="cls-2" transform="translate(68.1 79.79)">O</text></g><polygon points="67.8 79.52 61.17 83.76 61.16 83.52 61.15 83.28 67.57 79.17 67.69 79.34 67.8 79.52"/><polygon points="61.17 83.76 51.97 78.99 51.97 78.76 52.16 78.62 61.15 83.28 61.16 83.52 61.17 83.76"/><polygon points="51.97 78.99 42.9 83.53 42.71 83.39 42.76 83.14 51.74 78.64 51.97 78.76 51.97 78.99"/><polygon points="42.49 83.47 35.37 76.25 35.45 76.03 35.7 75.99 42.76 83.14 42.71 83.39 42.49 83.47"/><polygon points="35.31 75.84 39.97 66.84 40.21 66.84 40.32 67.07 35.7 75.99 35.45 76.03 35.31 75.84"/><polygon points="40.34 66.65 48.26 67.96 48.23 68.17 48.19 68.37 40.32 67.07 40.21 66.84 40.34 66.65"/><g class="cls-1"><text class="cls-2" transform="translate(48.64 70.38)">O</text></g><polygon points="50.97 70.8 52.16 78.62 51.97 78.76 51.74 78.64 50.56 70.86 50.77 70.83 50.97 70.8"/><polygon points="39.97 66.84 36.54 59.98 36.72 59.89 36.91 59.79 40.34 66.65 40.21 66.84 39.97 66.84"/><g class="cls-1"><text class="cls-2" transform="translate(33.92 59.43)">N</text></g><polygon points="36.58 55.19 40.08 48.43 40.33 48.4 40.59 48.36 36.95 55.38 36.76 55.28 36.58 55.19"/><polygon points="38.67 48.77 34.09 44.13 34.24 43.99 34.39 43.84 38.96 48.48 38.81 48.63 38.67 48.77"/><polygon points="40.08 48.43 34.98 43.26 35.13 43.12 35.27 42.97 40.59 48.36 40.33 48.4 40.08 48.43"/><g class="cls-1"><text class="cls-2" transform="translate(31.42 42.88)">N</text></g><polygon points="31.09 42.25 24.04 45.78 23.81 45.66 23.8 45.44 30.91 41.88 31 42.06 31.09 42.25"/><polygon points="23.62 45.81 14.21 42.13 14.17 41.89 14.36 41.74 23.8 45.44 23.81 45.66 23.62 45.81"/><polygon points="23.67 44.5 15.22 41.19 15.29 40.99 15.37 40.8 23.82 44.11 23.75 44.3 23.67 44.5"/><polygon points="14.21 42.13 8.28 46.86 8.15 46.7 8.02 46.54 13.95 41.8 14.17 41.89 14.21 42.13"/><g class="cls-1"><text class="cls-2" transform="translate(4.44 50.2)">N</text></g><polygon points="7.87 50.43 8.96 57.65 8.76 57.69 8.55 57.72 7.46 50.49 7.66 50.46 7.87 50.43"/><polygon points="6.64 50.62 7.82 58.43 7.64 58.58 7.45 58.73 6.23 50.68 6.43 50.65 6.64 50.62"/><polygon points="7.82 58.43 15.29 61.35 15.21 61.55 15.13 61.74 7.45 58.73 7.64 58.58 7.82 58.43"/><g class="cls-1"><text class="cls-2" transform="translate(15.63 64.2)">N</text></g><polygon points="18.43 59.58 23.89 55.21 24.02 55.37 24.15 55.53 18.69 59.9 18.56 59.74 18.43 59.58"/><polygon points="19.2 60.55 25.14 55.81 25.36 55.9 25.42 56.12 19.46 60.87 19.33 60.71 19.2 60.55"/><polygon points="25.54 55.72 33.54 57.04 33.51 57.24 33.48 57.45 25.42 56.12 25.36 55.9 25.54 55.72"/><polygon points="25.14 55.81 23.62 45.81 23.81 45.66 24.04 45.78 25.54 55.72 25.36 55.9 25.14 55.81"/><polygon points="13.95 41.8 12.77 33.99 12.97 33.96 13.18 33.93 14.36 41.74 14.17 41.89 13.95 41.8"/><g class="cls-1"><text class="cls-2" transform="translate(6.16 32.92)">H</text><text class="cls-5" transform="translate(9.45 33.62)">2</text><text class="cls-2" transform="translate(11.02 32.92)">N</text></g><polygon points="35.37 76.25 27.43 77.45 27.4 77.25 27.37 77.04 35.31 75.84 35.45 76.03 35.37 76.25"/><g class="cls-1"><text class="cls-2" transform="translate(20.14 79.43)">H</text><text class="cls-2" transform="translate(23.44 79.43)">O</text></g><polygon points="42.9 83.53 41.61 91.34 41.41 91.3 41.2 91.27 42.49 83.47 42.71 83.39 42.9 83.53"/><g class="cls-1"><text class="cls-2" transform="translate(35.96 95.46)">H</text><text class="cls-2" transform="translate(39.25 95.46)">O</text></g><polygon points="123.38 75.38 123.02 67.47 123.23 67.46 123.44 67.45 123.8 75.36 123.6 75.49 123.38 75.38"/><g class="cls-1"><text class="cls-2" transform="translate(118.05 67)">H</text><text class="cls-2" transform="translate(121.35 67)">O</text></g><polygon points="133 80.36 133.36 88.28 133.15 88.29 132.94 88.3 132.58 80.38 132.79 80.25 133 80.36"/><g class="cls-1"><text class="cls-2" transform="translate(131.48 92.44)">O</text><text class="cls-2" transform="translate(135.03 92.44)">H</text></g><polygon points="141.29 74.57 140.93 66.65 141.14 66.64 141.34 66.63 141.71 74.55 141.5 74.68 141.29 74.57"/><g class="cls-1"><text class="cls-2" transform="translate(135.96 66.19)">H</text><text class="cls-2" transform="translate(139.26 66.19)">O</text></g><g class="cls-1"><text class="cls-2" transform="translate(121.58 49.12)">Na</text></g><line class="cls-4" x1="126.7" y1="44.21" x2="128.42" y2="44.21"/><line class="cls-4" x1="127.56" y1="43.35" x2="127.56" y2="45.07"/><g class="cls-1"><text class="cls-2" transform="translate(120.97 35.87)">Na</text></g><line class="cls-4" x1="126.09" y1="30.95" x2="127.82" y2="30.95"/><line class="cls-4" x1="126.95" y1="30.09" x2="126.95" y2="31.82"/></svg>