<svg id="图层_1" data-name="图层 1" xmlns="http://www.w3.org/2000/svg" viewBox="0 0 200 130"><defs><style>.cls-1,.cls-2{isolation:isolate;}.cls-2{font-size:11.62px;font-family:ArialMT, Arial;}</style></defs><polygon points="46.27 7 53.2 12.08 52.89 12.51 52.58 12.93 45.64 7.85 45.95 7.42 46.27 7"/><g class="cls-1"><text class="cls-2" transform="translate(53.95 21.29)">O</text></g><polygon points="58.35 22.5 57.34 31.76 56.79 32 56.3 31.64 57.3 22.39 57.83 22.45 58.35 22.5"/><polygon points="57.34 31.76 69.85 40.92 69.3 41.17 68.74 41.41 56.72 32.61 56.79 32 57.34 31.76"/><polygon points="56.7 35.21 66.27 42.21 65.95 42.64 65.64 43.06 56.08 36.06 56.39 35.63 56.7 35.21"/><polygon points="69.85 40.92 68.17 56.34 67.62 56.58 67.13 56.22 68.74 41.41 69.3 41.17 69.85 40.92"/><polygon points="67.55 57.19 53.92 63.19 53.43 62.83 53.49 62.23 67.13 56.22 67.62 56.58 67.55 57.19"/><polygon points="64.88 54.91 54.03 59.69 53.82 59.2 53.61 58.72 64.46 53.94 64.67 54.42 64.88 54.91"/><polygon points="52.87 63.08 40.36 53.92 40.92 53.67 41.47 53.42 53.49 62.23 53.43 62.83 52.87 63.08"/><polygon points="40.36 53.92 42.1 37.9 42.6 38.26 43.09 38.62 41.47 53.42 40.92 53.67 40.36 53.92"/><polygon points="43.73 52.14 45.02 40.36 45.54 40.41 46.06 40.47 44.78 52.26 44.26 52.2 43.73 52.14"/><polygon points="42.1 37.9 56.3 31.64 56.79 32 56.72 32.61 43.09 38.62 42.6 38.26 42.1 37.9"/><polygon points="53.92 63.19 52.91 72.45 52.38 72.39 51.86 72.33 52.87 63.08 53.43 62.83 53.92 63.19"/><g class="cls-1"><text class="cls-2" transform="translate(47.55 82.95)">N</text></g><polygon points="59.17 79.12 64.96 83.36 64.65 83.78 64.34 84.21 58.55 79.97 58.86 79.54 59.17 79.12"/><polygon points="57.3 81.67 64.32 86.81 64.25 87.41 63.7 87.66 56.68 82.52 56.99 82.09 57.3 81.67"/><polygon points="64.75 87.77 63.13 102.58 62.58 102.83 62.02 103.07 63.7 87.66 64.25 87.41 64.75 87.77"/><polygon points="64.26 104.39 54.81 108.55 54.6 108.07 54.38 107.59 63.84 103.42 64.05 103.9 64.26 104.39"/><polygon points="62.99 101.49 53.53 105.66 53.32 105.18 53.11 104.69 62.56 100.53 62.77 101.01 62.99 101.49"/><g class="cls-1"><text class="cls-2" transform="translate(43.87 113.78)">O</text></g><polygon points="63.13 102.58 70.15 107.72 69.84 108.14 69.53 108.57 62.02 103.07 62.58 102.83 63.13 102.58"/><g class="cls-1"><text class="cls-2" transform="translate(70.89 116.69)">N</text></g><g class="cls-1"><text class="cls-2" transform="translate(70.89 127.3)">H</text></g><polygon points="80.12 109.19 88.78 105.38 89.28 105.74 89.77 106.09 80.55 110.16 80.33 109.68 80.12 109.19"/><polygon points="89.78 103.5 97.46 109.12 97.15 109.54 96.83 109.97 89.16 104.35 89.47 103.92 89.78 103.5"/><polygon points="87.92 106.05 95.59 111.67 95.28 112.09 94.97 112.52 87.29 106.9 87.61 106.47 87.92 106.05"/><g class="cls-1"><text class="cls-2" transform="translate(97.27 119.6)">O</text></g><polygon points="88.78 105.38 89.79 96.12 90.32 96.18 90.84 96.24 89.77 106.09 89.28 105.74 88.78 105.38"/><g class="cls-1"><text class="cls-2" transform="translate(86.76 95.03)">N</text></g><polygon points="83.53 89.45 77.74 85.21 78.05 84.79 78.36 84.36 84.15 88.6 83.84 89.03 83.53 89.45"/><polygon points="85.39 86.9 78.38 81.76 78.44 81.16 79 80.91 86.02 86.05 85.71 86.48 85.39 86.9"/><polygon points="77.95 80.8 78.96 71.55 79.49 71.6 80.01 71.66 79 80.91 78.44 81.16 77.95 80.8"/><g class="cls-1"><text class="cls-2" transform="translate(75.93 70.45)">N</text></g><polygon points="85.16 62.95 94.38 58.89 94.31 59.49 94.25 60.09 85.59 63.91 85.37 63.43 85.16 62.95"/><polygon points="94.38 58.89 106.89 68.05 106.83 68.65 106.27 68.9 94.25 60.09 94.31 59.49 94.38 58.89"/><polygon points="106.89 68.05 120.53 62.04 121.02 62.4 120.95 63.01 107.32 69.01 106.83 68.65 106.89 68.05"/><polygon points="121.57 62.16 133.59 70.96 133.53 71.56 132.97 71.81 120.95 63.01 121.02 62.4 121.57 62.16"/><polygon points="133.59 70.96 147.78 64.71 147.72 65.31 147.65 65.92 134.02 71.92 133.53 71.56 133.59 70.96"/><polygon points="147.78 64.71 154.96 69.97 154.65 70.39 154.34 70.82 147.65 65.92 147.72 65.31 147.78 64.71"/><g class="cls-1"><text class="cls-2" transform="translate(155.71 79.18)">O</text><text class="cls-2" transform="translate(164.74 79.18)">H</text></g><polygon points="134.02 71.92 133.01 81.18 132.48 81.12 131.96 81.06 132.97 71.81 133.53 71.56 134.02 71.92"/><g class="cls-1"><text class="cls-2" transform="translate(118.94 91.68)">H</text><text class="cls-2" transform="translate(127.33 91.68)">O</text></g><polygon points="120.53 62.04 121.53 52.79 122.06 52.85 122.58 52.9 121.57 62.16 121.02 62.4 120.53 62.04"/><g class="cls-1"><text class="cls-2" transform="translate(118.18 51.69)">O</text><text class="cls-2" transform="translate(127.21 51.69)">H</text></g><polygon points="107.32 69.01 106.31 78.27 105.78 78.21 105.26 78.15 106.27 68.9 106.83 68.65 107.32 69.01"/><g class="cls-1"><text class="cls-2" transform="translate(92.24 88.77)">H</text><text class="cls-2" transform="translate(100.63 88.77)">O</text></g><polygon points="74.57 62.33 67.55 57.19 67.62 56.58 68.17 56.34 75.19 61.48 74.88 61.9 74.57 62.33"/><polygon points="78.38 81.76 64.75 87.77 64.25 87.41 64.32 86.81 77.95 80.8 78.44 81.16 78.38 81.76"/></svg>