<svg id="图层_1" data-name="图层 1" xmlns="http://www.w3.org/2000/svg" viewBox="0 0 200 130"><defs><style>.cls-1,.cls-2{isolation:isolate;}.cls-2{font-size:11.7px;font-family:ArialMT, Arial;}</style></defs><polygon points="83.14 124.49 83.16 108.58 83.7 108.28 84.23 108.59 84.21 124.49 83.67 124.49 83.14 124.49"/><polygon points="83.16 108.58 69.14 100.46 69.67 100.16 70.2 99.85 83.7 107.67 83.7 108.28 83.16 108.58"/><polygon points="83.43 105.06 72.59 98.78 72.85 98.32 73.12 97.86 83.97 104.14 83.7 104.6 83.43 105.06"/><polygon points="69.14 100.46 69.16 84.25 69.69 83.94 70.22 84.25 70.2 99.85 69.67 100.16 69.14 100.46"/><polygon points="69.69 83.33 83.21 75.55 83.74 75.86 83.74 76.47 70.22 84.25 69.69 83.94 69.69 83.33"/><polygon points="72.6 85.33 83.47 79.07 83.73 79.53 84 79.99 73.13 86.25 72.87 85.79 72.6 85.33"/><polygon points="84.27 75.55 98.3 83.67 97.77 83.98 97.23 84.28 83.74 76.47 83.74 75.86 84.27 75.55"/><polygon points="98.3 83.67 98.28 99.89 97.75 100.19 97.22 99.88 97.23 84.28 97.77 83.98 98.3 83.67"/><polygon points="95.11 85.81 95.09 98.35 94.56 98.35 94.03 98.35 94.05 85.81 94.58 85.81 95.11 85.81"/><polygon points="98.28 99.89 106.75 104.79 106.49 105.25 106.22 105.71 97.75 100.8 97.75 100.19 98.28 99.89"/><g class="cls-1"><text class="cls-2" transform="translate(107.55 113.05)">N</text></g><polygon points="112.3 114.22 112.29 124.53 111.75 124.53 111.22 124.53 111.24 114.22 111.77 114.22 112.3 114.22"/><polygon points="116.8 104.81 125.56 99.77 125.83 100.23 126.09 100.69 117.33 105.73 117.06 105.27 116.8 104.81"/><polygon points="97.75 100.8 84.23 108.59 83.7 108.28 83.7 107.67 97.22 99.88 97.75 100.19 97.75 100.8"/><polygon points="83.21 75.55 83.22 65.55 83.75 65.55 84.28 65.55 84.27 75.55 83.74 75.86 83.21 75.55"/><g class="cls-1"><text class="cls-2" transform="translate(79.53 64.38)">N</text></g><polygon points="78.2 57.04 69.73 52.13 69.73 51.52 70.26 51.21 78.74 56.12 78.47 56.58 78.2 57.04"/><polygon points="66.01 49.68 66.03 41.2 66.56 41.21 67.09 41.21 67.08 49.68 66.55 49.68 66.01 49.68"/><polygon points="69.2 51.21 69.21 41.21 69.74 41.21 70.27 41.21 70.26 51.21 69.73 51.52 69.2 51.21"/><g class="cls-1"><text class="cls-2" transform="translate(65.52 40.05)">N</text></g><polygon points="64.2 32.71 55.72 27.8 55.72 27.18 55.72 26.57 64.73 31.79 64.46 32.25 64.2 32.71"/><polygon points="53.59 28.1 53.61 16.87 54.14 16.87 54.67 16.87 54.66 28.1 54.12 28.1 53.59 28.1"/><polygon points="56.78 28.1 56.79 16.88 57.32 16.88 57.85 16.88 57.84 28.11 57.31 28.11 56.78 28.1"/><g class="cls-1"><text class="cls-2" transform="translate(51.19 15.71)">O</text></g><polygon points="55.72 27.8 47.22 32.69 46.95 32.23 46.69 31.77 55.72 26.57 55.72 27.18 55.72 27.8"/><g class="cls-1"><text class="cls-2" transform="translate(28.99 40.01)">H</text><text class="cls-2" transform="translate(37.44 40.01)">N</text></g><polygon points="42.19 41.17 42.18 51.18 41.65 51.48 41.12 51.79 41.13 41.17 41.66 41.17 42.19 41.17"/><polygon points="43.5 52.87 34.27 58.18 34.01 57.72 33.74 57.26 42.97 51.95 43.24 52.41 43.5 52.87"/><polygon points="41.91 50.1 32.68 55.42 32.42 54.96 32.15 54.5 41.38 49.19 41.65 49.65 41.91 50.1"/><g class="cls-1"><text class="cls-2" transform="translate(23.04 64.31)">O</text></g><polygon points="42.18 51.18 55.68 58.99 55.68 59.61 55.15 59.91 41.12 51.79 41.65 51.48 42.18 51.18"/><polygon points="59.39 61.45 59.37 73.98 58.84 73.98 58.31 73.98 58.33 61.45 58.86 61.45 59.39 61.45"/><polygon points="56.21 59.91 56.19 75.51 55.66 75.82 55.13 76.13 55.15 59.91 55.68 59.61 56.21 59.91"/><polygon points="56.19 75.51 69.69 83.33 69.69 83.94 69.16 84.25 55.13 76.13 55.66 75.82 56.19 75.51"/><polygon points="55.68 58.99 69.2 51.21 69.73 51.52 69.73 52.13 56.21 59.91 55.68 59.61 55.68 58.99"/><polygon points="88.78 56.14 97.81 50.94 97.81 51.55 97.81 52.17 89.31 57.06 89.04 56.6 88.78 56.14"/><polygon points="97.81 50.94 111.84 59.06 111.84 59.68 111.31 59.98 97.81 52.17 97.81 51.55 97.81 50.94"/><polygon points="111.84 59.06 125.36 51.28 125.89 51.59 125.89 52.2 112.37 59.99 111.84 59.68 111.84 59.06"/><polygon points="126.42 51.28 139.92 59.1 139.92 59.71 139.39 60.02 125.89 52.2 125.89 51.59 126.42 51.28"/><polygon points="139.92 59.1 153.97 51.01 153.97 51.63 153.97 52.24 140.45 60.02 139.92 59.71 139.92 59.1"/><polygon points="153.97 51.01 162.65 56.04 162.38 56.5 162.12 56.96 153.97 52.24 153.97 51.63 153.97 51.01"/><g class="cls-1"><text class="cls-2" transform="translate(163.45 64.49)">O</text><text class="cls-2" transform="translate(172.55 64.49)">H</text></g><polygon points="140.45 60.02 140.44 70.02 139.9 70.02 139.37 70.02 139.39 60.02 139.92 59.71 140.45 60.02"/><g class="cls-1"><text class="cls-2" transform="translate(135.34 80.67)">O</text><text class="cls-2" transform="translate(144.45 80.67)">H</text></g><polygon points="125.36 51.28 125.37 41.28 125.9 41.28 126.43 41.28 126.42 51.28 125.89 51.59 125.36 51.28"/><g class="cls-1"><text class="cls-2" transform="translate(121.36 40.12)">O</text><text class="cls-2" transform="translate(130.46 40.12)">H</text></g><polygon points="112.37 59.99 112.36 69.99 111.82 69.99 111.29 69.99 111.31 59.98 111.84 59.68 112.37 59.99"/><g class="cls-1"><text class="cls-2" transform="translate(107.26 80.63)">O</text><text class="cls-2" transform="translate(116.37 80.63)">H</text></g></svg>