<?xml version="1.0" encoding="utf-8"?>
<!-- Generator: Adobe Illustrator 22.1.0, SVG Export Plug-In . SVG Version: 6.00 Build 0)  -->
<svg version="1.1" id="图层_1" xmlns="http://www.w3.org/2000/svg" xmlns:xlink="http://www.w3.org/1999/xlink" x="0px" y="0px"
	 viewBox="0 0 200 130" style="enable-background:new 0 0 200 130;" xml:space="preserve">
<style type="text/css">
	.st0{font-family:'ArialMT';}
	.st1{font-size:4.6282px;}
	.st2{font-size:2.8481px;}
</style>
<g>
	<polygon points="93,17.7 90,11.6 90.2,11.5 90.4,11.4 94.3,19.3 93.7,18.5 	"/>
	<text transform="matrix(1 0 0 1 82.4463 10.4192)" class="st0 st1">H</text>
	<text transform="matrix(1 0 0 1 85.7881 11.1311)" class="st0 st2">2</text>
	<text transform="matrix(1 0 0 1 87.3721 10.4192)" class="st0 st1">N</text>
	<polygon points="88.9,27.7 93,17.7 93.7,18.5 94.3,19.3 89.2,27.9 89,27.9 	"/>
	<polygon points="78,27.7 88.9,27.7 89,27.9 88.9,28.1 78,28.1 77.9,27.9 	"/>
	<polygon points="72.9,37.3 77.6,27.9 77.9,27.9 78,28.1 73.4,37.3 73.2,37.3 	"/>
	<polygon points="73.4,37.3 78,45.9 77.9,46.1 77.6,46.1 72.9,37.3 73.2,37.3 	"/>
	<polygon points="78,45.9 88.9,46.5 89,46.7 88.9,46.9 78,46.3 77.9,46.1 	"/>
	<polygon points="88.9,46.5 93.2,39.5 93.4,39.6 93.6,39.8 89.3,46.7 89,46.7 	"/>
	<text transform="matrix(1 0 0 1 93.0713 39.1829)" class="st0 st1">O</text>
	<polygon points="89.2,27.9 93.6,34.9 93.4,35 93.2,35.1 88.9,28.1 89,27.9 	"/>
	<polygon points="89.3,46.7 94.2,53.3 93.4,53.8 92.6,54.3 88.9,46.9 89,46.7 	"/>
	<text transform="matrix(1 0 0 1 93.0713 57.9612)" class="st0 st1">O</text>
	<polygon points="103.8,61.2 103.5,61.6 103.3,61.4 103.2,61.3 103.4,60.9 103.6,61 	"/>
	<polygon points="102.8,60.4 102.4,61 102.3,60.9 102.1,60.8 102.4,60.2 102.6,60.3 	"/>
	<polygon points="101.8,59.7 101.3,60.5 101.2,60.4 101,60.3 101.5,59.5 101.6,59.6 	"/>
	<polygon points="100.8,59 100.2,60 100.1,59.9 99.9,59.8 100.5,58.8 100.7,58.9 	"/>
	<polygon points="99.9,58.3 99.2,59.5 99,59.4 98.8,59.3 99.5,58.1 99.7,58.2 	"/>
	<polygon points="98.9,57.6 98.1,58.9 97.9,58.8 97.7,58.7 98.5,57.3 98.7,57.5 	"/>
	<polygon points="97.9,56.8 97,58.4 96.8,58.3 96.6,58.2 97.6,56.6 97.7,56.7 	"/>
	<polygon points="103.6,61.2 112.9,56.5 113.1,56.7 113.1,56.9 103.9,61.5 103.7,61.4 	"/>
	<polygon points="113.4,56.6 122.7,61.2 122.5,61.4 122.2,61.5 113.1,56.9 113.1,56.7 	"/>
	<polygon points="122.2,71.8 122.2,61.5 122.5,61.4 122.7,61.2 122.7,71.8 122.5,71.9 	"/>
	<polygon points="113.1,77.6 122.2,71.8 122.5,71.9 122.5,72.2 113.2,78 113.1,77.8 	"/>
	<polygon points="103.9,71.8 113.1,77.6 113.1,77.8 113,78 103.7,72.2 103.7,71.9 	"/>
	<polygon points="103.9,61.5 103.9,71.8 103.7,71.9 103.5,71.8 103.5,61.4 103.7,61.4 	"/>
	<polygon points="103.7,72.2 97.6,76.7 97.1,75.9 96.6,75.1 103.5,71.8 103.7,71.9 	"/>
	<text transform="matrix(1 0 0 1 89.7295 79.0876)" class="st0 st1">H</text>
	<text transform="matrix(1 0 0 1 93.0713 79.0876)" class="st0 st1">O</text>
	<polygon points="112.8,77.8 113.3,77.8 113.3,78 113.3,78.3 112.8,78.3 112.8,78 	"/>
	<polygon points="112.7,78.9 113.4,78.9 113.4,79.2 113.4,79.4 112.7,79.4 112.7,79.2 	"/>
	<polygon points="112.6,80.1 113.5,80.1 113.5,80.3 113.5,80.5 112.6,80.5 112.6,80.3 	"/>
	<polygon points="112.5,81.2 113.6,81.2 113.6,81.4 113.6,81.6 112.5,81.6 112.5,81.4 	"/>
	<polygon points="112.4,82.3 113.7,82.3 113.7,82.5 113.7,82.7 112.4,82.7 112.4,82.5 	"/>
	<polygon points="112.3,83.4 113.8,83.4 113.8,83.6 113.8,83.8 112.3,83.8 112.3,83.6 	"/>
	<polygon points="112.2,84.5 113.9,84.5 113.9,84.7 113.9,84.9 112.2,84.9 112.2,84.7 	"/>
	<polygon points="112.1,85.6 114,85.6 114,85.8 114,86 112.1,86 112.1,85.8 	"/>
	<text transform="matrix(1 0 0 1 111.2617 90.2361)" class="st0 st1">O</text>
	<polygon points="103.2,93.8 103,93.4 103.2,93.3 103.4,93.2 103.6,93.6 103.4,93.7 	"/>
	<polygon points="104.3,93.4 104,92.8 104.2,92.7 104.4,92.6 104.7,93.2 104.5,93.3 	"/>
	<polygon points="105.4,92.9 105,92.1 105.2,92 105.4,91.9 105.8,92.7 105.6,92.8 	"/>
	<polygon points="106.5,92.4 106,91.5 106.2,91.4 106.4,91.3 106.9,92.2 106.7,92.3 	"/>
	<polygon points="107.6,92 107,90.8 107.2,90.7 107.4,90.7 108,91.8 107.8,91.9 	"/>
	<polygon points="108.7,91.5 108,90.2 108.2,90.1 108.4,90 109.1,91.3 108.9,91.4 	"/>
	<polygon points="109.8,91 109,89.6 109.2,89.5 109.4,89.4 110.2,90.8 110,90.9 	"/>
	<polygon points="110.9,90.6 110,88.9 110.2,88.8 110.4,88.7 111.3,90.4 111.1,90.5 	"/>
	<polygon points="103.3,93.6 103.9,104.6 103.7,104.8 103.5,104.7 102.9,93.8 103.1,93.6 	"/>
	<polygon points="94.3,109.8 103.5,104.7 103.7,104.8 103.7,105 94.5,110.2 94.3,110.1 	"/>
	<polygon points="85.1,104.1 94.3,109.8 94.3,110.1 94.1,110.2 84.8,104.4 84.9,104.2 	"/>
	<polygon points="84.7,104.2 84.7,93.8 84.9,93.6 85.1,93.8 85.1,104.1 84.9,104.2 	"/>
	<polygon points="84.9,93.4 92.6,89.4 92.7,89.5 92.7,89.7 85.1,93.8 84.9,93.6 	"/>
	<text transform="matrix(1 0 0 1 93.0713 90.2361)" class="st0 st1">O</text>
	<polygon points="102.9,93.8 97,90 97.1,89.8 97.2,89.6 103.2,93.5 103.1,93.6 	"/>
	<polygon points="84.7,93.8 75.3,89 76.1,88.4 76.8,87.7 84.9,93.4 84.9,93.6 	"/>
	<polygon points="75.3,89 69,92.6 68.9,92.4 68.8,92.2 76.8,87.7 76.1,88.4 	"/>
	<text transform="matrix(1 0 0 1 61.5615 95.5173)" class="st0 st1">H</text>
	<text transform="matrix(1 0 0 1 64.9043 95.5173)" class="st0 st1">O</text>
	<polygon points="84.7,104 85,104.4 84.8,104.5 84.6,104.6 84.4,104.3 84.6,104.1 	"/>
	<polygon points="83.6,104.6 84,105.2 83.9,105.3 83.7,105.4 83.3,104.9 83.5,104.7 	"/>
	<polygon points="82.5,105.2 83.1,106 82.9,106.1 82.7,106.2 82.2,105.5 82.4,105.3 	"/>
	<polygon points="81.4,105.8 82.1,106.8 81.9,106.9 81.7,107 81.1,106 81.3,105.9 	"/>
	<polygon points="80.3,106.4 81.1,107.6 80.9,107.7 80.8,107.8 80,106.6 80.2,106.5 	"/>
	<polygon points="79.2,107 80.1,108.3 80,108.5 79.8,108.6 78.9,107.2 79.1,107.1 	"/>
	<polygon points="78.1,107.6 79.2,109.1 79,109.2 78.8,109.4 77.8,107.8 78,107.7 	"/>
	<text transform="matrix(1 0 0 1 70.9512 111.948)" class="st0 st1">H</text>
	<text transform="matrix(1 0 0 1 74.293 111.948)" class="st0 st1">O</text>
	<polygon points="94.5,110.2 95.2,118.3 94.3,118.3 93.3,118.3 94.1,110.2 94.3,110.1 	"/>
	<text transform="matrix(1 0 0 1 92.6133 121.9148)" class="st0 st1">N</text>
	<text transform="matrix(1 0 0 1 95.9561 121.9148)" class="st0 st1">H</text>
	<text transform="matrix(1 0 0 1 99.2979 122.6277)" class="st0 st2">2</text>
	<polygon points="103.9,104.6 112.4,107.6 112,108.5 111.6,109.4 103.7,105 103.7,104.8 	"/>
	<text transform="matrix(1 0 0 1 112.4365 111.3621)" class="st0 st1">O</text>
	<text transform="matrix(1 0 0 1 116.0361 111.3621)" class="st0 st1">H</text>
	<polygon points="122.7,71.8 130.2,74.7 129.8,75.6 129.3,76.4 122.5,72.2 122.5,71.9 	"/>
	<text transform="matrix(1 0 0 1 130.1689 77.9031)" class="st0 st1">N</text>
	<text transform="matrix(1 0 0 1 133.5117 77.9031)" class="st0 st1">H</text>
	<text transform="matrix(1 0 0 1 136.8545 78.615)" class="st0 st2">2</text>
	<polygon points="112.9,56.5 118.6,48.4 119.4,49 120.1,49.6 113.4,56.6 113.1,56.7 	"/>
	<text transform="matrix(1 0 0 1 119.6064 47.9758)" class="st0 st1">N</text>
	<text transform="matrix(1 0 0 1 122.9492 47.9758)" class="st0 st1">H</text>
	<text transform="matrix(1 0 0 1 126.292 48.6877)" class="st0 st2">2</text>
	<polygon points="78,46.3 74.6,54.2 73.8,53.8 73,53.3 77.6,46.1 77.9,46.1 	"/>
	<text transform="matrix(1 0 0 1 66.0146 57.3645)" class="st0 st1">H</text>
	<text transform="matrix(1 0 0 1 69.3574 58.0774)" class="st0 st2">2</text>
	<text transform="matrix(1 0 0 1 70.9414 57.3645)" class="st0 st1">N</text>
	<polygon points="77.6,27.9 73.1,21.3 73.9,20.9 74.7,20.4 78,27.7 77.9,27.9 	"/>
	<text transform="matrix(1 0 0 1 67.4307 20.4045)" class="st0 st1">H</text>
	<text transform="matrix(1 0 0 1 70.7725 20.4045)" class="st0 st1">O</text>
</g>
</svg>
