<svg id="图层_1" data-name="图层 1" xmlns="http://www.w3.org/2000/svg" viewBox="0 0 200 130"><defs><style>.cls-1,.cls-2{isolation:isolate;}.cls-2{font-size:13.4px;font-family:ArialMT, Arial;}</style></defs><polygon points="151.29 119.26 133.46 123.3 133.67 122.63 133.88 121.96 151.02 118.07 151.16 118.67 151.29 119.26"/><polygon points="133.46 123.3 121.29 110.14 121.5 109.47 122.18 109.31 133.88 121.96 133.67 122.63 133.46 123.3"/><polygon points="121.29 110.14 103.8 114.1 104.01 113.43 104.22 112.76 121.02 108.95 121.5 109.47 121.29 110.14"/><polygon points="118.77 106.97 105.39 110 105.26 109.41 105.12 108.82 118.5 105.78 118.64 106.38 118.77 106.97"/><polygon points="103.8 114.1 91.63 100.94 91.83 100.27 92.52 100.11 104.22 112.76 104.01 113.43 103.8 114.1"/><polygon points="91.36 99.75 96.46 83.3 97.15 83.14 97.62 83.66 92.52 100.11 91.83 100.27 91.36 99.75"/><polygon points="95.36 99.16 99.42 86.05 100 86.23 100.58 86.41 96.52 99.52 95.94 99.34 95.36 99.16"/><polygon points="97.35 82.47 114.84 78.51 114.63 79.18 114.42 79.85 97.62 83.66 97.15 83.14 97.35 82.47"/><polygon points="114.84 78.51 127.02 91.67 126.81 92.34 126.12 92.5 114.42 79.85 114.63 79.18 114.84 78.51"/><polygon points="113.83 82.79 123.15 92.86 122.7 93.27 122.26 93.69 112.94 83.61 113.39 83.2 113.83 82.79"/><polygon points="127.02 91.67 144.5 87.71 144.29 88.38 144.09 89.05 127.28 92.86 126.81 92.34 127.02 91.67"/><polygon points="144.5 87.71 156.91 101.13 156.47 101.54 156.02 101.95 144.09 89.05 144.29 88.38 144.5 87.71"/><polygon points="127.28 92.86 122.18 109.31 121.5 109.47 121.02 108.95 126.12 92.5 126.81 92.34 127.28 92.86"/><polygon points="96.46 83.3 90.58 76.94 91.02 76.52 91.47 76.11 97.35 82.47 97.15 83.14 96.46 83.3"/><g class="cls-1"><text class="cls-2" transform="translate(80.13 75.41)">N</text></g><polygon points="79.05 71.94 67.96 74.46 67.48 73.94 67.69 73.27 78.78 70.76 78.92 71.35 79.05 71.94"/><polygon points="62.93 75.29 58.24 70.21 58.69 69.8 59.13 69.39 63.83 74.46 63.38 74.87 62.93 75.29"/><polygon points="66.8 74.1 60.92 67.74 61.36 67.33 61.81 66.91 67.69 73.27 67.48 73.94 66.8 74.1"/><g class="cls-1"><text class="cls-2" transform="translate(50.47 66.21)">N</text></g><polygon points="49.39 62.75 38.3 65.26 37.82 64.74 37.35 64.23 49.12 61.56 49.26 62.15 49.39 62.75"/><polygon points="36.75 67.17 30.12 59.99 30.56 59.58 31.01 59.17 37.65 66.34 37.2 66.75 36.75 67.17"/><polygon points="39.43 64.69 32.79 57.52 33.24 57.1 33.69 56.69 40.32 63.87 39.88 64.28 39.43 64.69"/><g class="cls-1"><text class="cls-2" transform="translate(20.44 57.01)">O</text></g><polygon points="38.3 65.26 35.19 75.29 34.61 75.11 34.03 74.93 37.35 64.23 37.82 64.74 38.3 65.26"/><g class="cls-1"><text class="cls-2" transform="translate(18 87.3)">H</text><text class="cls-2" transform="translate(27.68 87.3)">N</text></g><polygon points="39.01 88 44.9 94.36 44.69 95.03 44.48 95.7 38.12 88.83 38.56 88.41 39.01 88"/><polygon points="47.32 94.75 43.79 106.12 43.21 105.94 42.63 105.76 46.16 94.39 46.74 94.57 47.32 94.75"/><polygon points="43.84 93.67 40.31 105.04 39.73 104.86 39.15 104.68 42.68 93.31 43.26 93.49 43.84 93.67"/><g class="cls-1"><text class="cls-2" transform="translate(34.16 117.58)">O</text></g><polygon points="44.9 94.36 61.7 90.55 62.17 91.07 61.97 91.74 44.48 95.7 44.69 95.03 44.9 94.36"/><polygon points="66.73 89.72 71.42 94.8 70.97 95.21 70.53 95.62 65.83 90.55 66.28 90.14 66.73 89.72"/><polygon points="62.86 90.91 68.74 97.27 68.3 97.69 67.85 98.1 61.97 91.74 62.17 91.07 62.86 90.91"/><g class="cls-1"><text class="cls-2" transform="translate(69.51 109.66)">N</text></g><polygon points="80.27 102.27 91.36 99.75 91.83 100.27 91.63 100.94 80.54 103.45 80.4 102.86 80.27 102.27"/><polygon points="61.7 90.55 66.8 74.1 67.48 73.94 67.96 74.46 62.86 90.91 62.17 91.07 61.7 90.55"/><polygon points="86.49 63.04 89.81 52.34 90.28 52.86 90.76 53.37 87.65 63.4 87.07 63.22 86.49 63.04"/><polygon points="89.81 52.34 107.29 48.38 107.77 48.89 107.56 49.56 90.76 53.37 90.28 52.86 89.81 52.34"/><polygon points="107.29 48.38 112.4 31.92 113.08 31.77 113.56 32.28 108.45 48.74 107.77 48.89 107.29 48.38"/><polygon points="113.29 31.1 130.09 27.29 130.57 27.8 130.36 28.48 113.56 32.28 113.08 31.77 113.29 31.1"/><polygon points="130.09 27.29 135.4 10.16 135.88 10.68 136.35 11.2 131.25 27.65 130.57 27.8 130.09 27.29"/><polygon points="135.4 10.16 146.8 7.58 146.94 8.17 147.07 8.77 136.35 11.2 135.88 10.68 135.4 10.16"/><g class="cls-1"><text class="cls-2" transform="translate(148.15 12.14)">O</text><text class="cls-2" transform="translate(158.57 12.14)">H</text></g><polygon points="131.25 27.65 136.94 33.8 136.49 34.21 136.04 34.62 130.36 28.48 130.57 27.8 131.25 27.65"/><g class="cls-1"><text class="cls-2" transform="translate(137.53 46.39)">O</text><text class="cls-2" transform="translate(147.95 46.39)">H</text></g><polygon points="112.4 31.92 106.71 25.78 107.16 25.36 107.6 24.95 113.29 31.1 113.08 31.77 112.4 31.92"/><g class="cls-1"><text class="cls-2" transform="translate(86.02 24.03)">H</text><text class="cls-2" transform="translate(95.69 24.03)">O</text></g><polygon points="108.45 48.74 114.14 54.88 113.69 55.3 113.25 55.71 107.56 49.56 107.77 48.89 108.45 48.74"/><g class="cls-1"><text class="cls-2" transform="translate(114.73 67.48)">O</text><text class="cls-2" transform="translate(125.15 67.48)">H</text></g></svg>