<svg id="图层_1" data-name="图层 1" xmlns="http://www.w3.org/2000/svg" viewBox="0 0 200 130"><defs><style>.cls-1,.cls-2{isolation:isolate;}.cls-2{font-size:12.34px;font-family:ArialMT, Arial;}</style></defs><polygon points="62.29 94.34 64.62 78.84 65.23 78.61 65.73 79.01 63.49 93.87 62.89 94.11 62.29 94.34"/><polygon points="65.95 92.61 67.7 80.94 68.26 81.03 68.81 81.11 67.06 92.77 66.5 92.69 65.95 92.61"/><polygon points="65.32 77.97 79.31 72.48 79.82 72.88 79.72 73.52 65.73 79.01 65.23 78.61 65.32 77.97"/><polygon points="80.42 72.64 92.67 82.41 92.07 82.65 91.47 82.89 79.72 73.52 79.82 72.88 80.42 72.64"/><polygon points="79.59 76.28 88.81 83.63 88.46 84.07 88.11 84.5 78.89 77.15 79.24 76.71 79.59 76.28"/><polygon points="92.67 82.41 90.34 97.92 89.74 98.15 89.23 97.75 91.47 82.89 92.07 82.65 92.67 82.41"/><polygon points="89.64 98.79 75.66 104.28 75.15 103.88 75.25 103.24 89.23 97.75 89.74 98.15 89.64 98.79"/><polygon points="86.91 96.25 75.93 100.57 75.73 100.05 75.52 99.52 86.5 95.21 86.71 95.73 86.91 96.25"/><polygon points="75.66 104.28 74.31 113.24 73.75 113.16 73.2 113.07 74.55 104.12 75.15 103.88 75.66 104.28"/><g class="cls-1"><text class="cls-2" transform="translate(66.99 124.38)">Cl</text></g><polygon points="74.55 104.12 62.29 94.34 62.89 94.11 63.49 93.87 75.25 103.24 75.15 103.88 74.55 104.12"/><polygon points="90.34 97.92 95.4 101.95 95.05 102.38 94.7 102.82 89.64 98.79 89.74 98.15 90.34 97.92"/><g class="cls-1"><text class="cls-2" transform="translate(96.17 112.92)">Cl</text></g><polygon points="79.31 72.48 80.66 63.52 81.21 63.6 81.77 63.69 80.42 72.64 79.82 72.88 79.31 72.48"/><g class="cls-1"><text class="cls-2" transform="translate(77.69 62.38)">N</text></g><polygon points="76.22 53.37 69.8 48.24 69.89 47.61 70.5 47.37 76.92 52.49 76.57 52.93 76.22 53.37"/><polygon points="66.31 45.1 67.42 37.75 67.97 37.83 68.52 37.91 67.42 45.27 66.86 45.19 66.31 45.1"/><polygon points="69.39 47.2 70.74 38.25 71.29 38.33 71.84 38.41 70.5 47.37 69.89 47.61 69.39 47.2"/><g class="cls-1"><text class="cls-2" transform="translate(67.77 37.1)">N</text></g><polygon points="66.3 28.1 59.87 22.97 59.97 22.33 60.07 21.69 67 27.22 66.65 27.66 66.3 28.1"/><polygon points="57.61 22.96 59.15 12.72 59.71 12.81 60.26 12.89 58.72 23.13 58.16 23.04 57.61 22.96"/><polygon points="60.93 23.46 62.47 13.22 63.03 13.31 63.58 13.39 62.04 23.63 61.49 23.54 60.93 23.46"/><g class="cls-1"><text class="cls-2" transform="translate(57.5 11.83)">O</text></g><polygon points="59.87 22.97 51.16 26.39 50.95 25.87 50.75 25.35 60.07 21.69 59.97 22.33 59.87 22.97"/><g class="cls-1"><text class="cls-2" transform="translate(32.01 33.06)">H</text><text class="cls-2" transform="translate(40.92 33.06)">N</text></g><polygon points="44.99 34.37 43.65 43.33 43.05 43.56 42.44 43.8 43.89 34.2 44.44 34.29 44.99 34.37"/><polygon points="44.77 45.29 35.19 49.05 34.99 48.53 34.78 48.01 44.36 44.25 44.56 44.77 44.77 45.29"/><polygon points="43.54 42.17 33.97 45.93 33.76 45.41 33.56 44.88 43.13 41.13 43.33 41.65 43.54 42.17"/><g class="cls-1"><text class="cls-2" transform="translate(23.65 54.29)">O</text></g><polygon points="43.65 43.33 55.4 52.7 55.3 53.34 54.7 53.57 42.44 43.8 43.05 43.56 43.65 43.33"/><polygon points="58.89 55.84 57.78 63.19 57.23 63.11 56.67 63.03 57.78 55.67 58.34 55.75 58.89 55.84"/><polygon points="55.81 53.74 54.46 62.69 53.91 62.61 53.35 62.53 54.7 53.57 55.3 53.34 55.81 53.74"/><g class="cls-1"><text class="cls-2" transform="translate(48.51 73.83)">N</text></g><polygon points="58.89 72.84 65.32 77.97 65.23 78.61 64.62 78.84 58.2 73.72 58.55 73.28 58.89 72.84"/><polygon points="55.4 52.7 69.39 47.2 69.89 47.61 69.8 48.24 55.81 53.74 55.3 53.34 55.4 52.7"/><polygon points="87.52 54.67 96.84 51.01 96.74 51.65 96.65 52.29 87.93 55.71 87.73 55.19 87.52 54.67"/><polygon points="96.84 51.01 109.09 60.78 109 61.42 108.4 61.66 96.65 52.29 96.74 51.65 96.84 51.01"/><polygon points="109.09 60.78 123.08 55.29 123.59 55.69 123.49 56.33 109.5 61.82 109 61.42 109.09 60.78"/><polygon points="124.19 55.45 135.94 64.82 135.85 65.46 135.25 65.7 123.49 56.33 123.59 55.69 124.19 55.45"/><polygon points="135.94 64.82 149.93 59.33 150.44 59.73 150.34 60.37 136.35 65.86 135.85 65.46 135.94 64.82"/><polygon points="151.04 59.5 162.79 68.86 162.69 69.5 162.6 70.14 150.34 60.37 150.44 59.73 151.04 59.5"/><polygon points="162.79 68.86 171.16 65.58 171.37 66.1 171.57 66.62 162.6 70.14 162.69 69.5 162.79 68.86"/><g class="cls-1"><text class="cls-2" transform="translate(172.48 68.77)">O</text><text class="cls-2" transform="translate(182.09 68.77)">H</text></g><polygon points="149.93 59.33 151.28 50.37 151.84 50.46 152.39 50.54 151.04 59.5 150.44 59.73 149.93 59.33"/><g class="cls-1"><text class="cls-2" transform="translate(147.97 49.23)">O</text><text class="cls-2" transform="translate(157.57 49.23)">H</text></g><polygon points="136.35 65.86 135 74.82 134.45 74.74 133.9 74.65 135.25 65.7 135.85 65.46 136.35 65.86"/><g class="cls-1"><text class="cls-2" transform="translate(119.8 85.96)">H</text><text class="cls-2" transform="translate(128.71 85.96)">O</text></g><polygon points="123.08 55.29 124.43 46.33 124.99 46.41 125.54 46.5 124.19 55.45 123.59 55.69 123.08 55.29"/><g class="cls-1"><text class="cls-2" transform="translate(121.12 45.19)">O</text><text class="cls-2" transform="translate(130.72 45.19)">H</text></g><polygon points="109.5 61.82 108.16 70.78 107.6 70.69 107.05 70.61 108.4 61.66 109 61.42 109.5 61.82"/><g class="cls-1"><text class="cls-2" transform="translate(92.95 81.92)">H</text><text class="cls-2" transform="translate(101.87 81.92)">O</text></g></svg>