<?xml version="1.0" encoding="UTF-8"?>
<svg id="_图层_1" data-name="图层 1" xmlns="http://www.w3.org/2000/svg" viewBox="0 0 200 130">
  <defs>
    <style>
      .cls-1 {
        fill-rule: evenodd;
        stroke-width: 0px;
      }

      .cls-1, .cls-2 {
        fill: #000;
      }

      .cls-2 {
        font-family: ArialMT, Arial;
        font-size: 7.49px;
      }
    </style>
  </defs>
  <polygon class="cls-1" points="184.1 99.12 166.92 99.12 167.12 98.78 167.31 98.44 184.1 98.44 184.1 98.78 184.1 99.12 184.1 99.12"/>
  <polygon class="cls-1" points="168.59 98.95 161.98 110.39 161.69 110.22 161.39 110.05 168 98.61 168.29 98.78 168.59 98.95 168.59 98.95"/>
  <polygon class="cls-1" points="166.82 97.93 160.22 109.37 159.92 109.2 159.63 109.03 166.23 97.59 166.53 97.76 166.82 97.93 166.82 97.93"/>
  <text class="cls-2" transform="translate(155.83 115.22)"><tspan x="0" y="0">O</tspan></text>
  <polygon class="cls-1" points="166.92 99.12 160.51 88.02 160.81 87.85 161.1 87.68 167.31 98.44 167.12 98.78 166.92 99.12 166.92 99.12"/>
  <text class="cls-2" transform="translate(156.04 79.43)"><tspan x="0" y="0">H</tspan></text>
  <text class="cls-2" transform="translate(156.04 85.35)"><tspan x="0" y="0">N</tspan></text>
  <polygon class="cls-1" points="155.24 84.42 141.84 84.42 141.64 84.08 141.84 83.74 155.24 83.74 155.24 84.08 155.24 84.42 155.24 84.42"/>
  <polygon class="cls-1" points="141.84 84.42 133.55 98.78 133.15 98.78 132.96 98.44 141.25 84.08 141.64 84.08 141.84 84.42 141.84 84.42"/>
  <polygon class="cls-1" points="132.96 99.12 115.98 99.12 116.17 98.78 116.37 98.44 132.96 98.44 133.15 98.78 132.96 99.12 132.96 99.12"/>
  <polygon class="cls-1" points="115.98 99.12 107.59 84.6 107.68 84.08 108.07 84.08 116.37 98.44 116.17 98.78 115.98 99.12 115.98 99.12"/>
  <polygon class="cls-1" points="107.59 83.56 113.7 72.98 113.99 73.15 114.29 73.32 108.07 84.08 107.68 84.08 107.59 83.56 107.59 83.56"/>
  <text class="cls-2" transform="translate(113.37 71.11)"><tspan x="0" y="0">O</tspan></text>
  <polygon class="cls-1" points="119.76 69.03 132.96 69.03 133.15 69.37 132.96 69.71 119.76 69.71 119.76 69.37 119.76 69.03 119.76 69.03"/>
  <polygon class="cls-1" points="132.96 69.03 141.25 54.66 141.64 54.66 141.84 55 133.55 69.37 133.15 69.37 132.96 69.03 132.96 69.03"/>
  <polygon class="cls-1" points="141.25 54.66 132.96 40.3 133.15 39.96 133.55 39.96 141.84 54.33 141.64 54.66 141.25 54.66 141.25 54.66"/>
  <polygon class="cls-1" points="132.96 39.62 141.25 25.25 141.64 25.25 142.04 25.25 133.55 39.96 133.15 39.96 132.96 39.62 132.96 39.62"/>
  <polygon class="cls-1" points="141.25 25.25 135.04 14.49 135.33 14.32 135.63 14.15 142.04 25.25 141.64 25.25 141.25 25.25 141.25 25.25"/>
  <text class="cls-2" transform="translate(124.95 12.1)"><tspan x="0" y="0">H</tspan></text>
  <text class="cls-2" transform="translate(130.36 12.1)"><tspan x="0" y="0">O</tspan></text>
  <polygon class="cls-1" points="132.96 40.3 119.76 40.3 119.76 39.96 119.76 39.62 132.96 39.62 133.15 39.96 132.96 40.3 132.96 40.3"/>
  <text class="cls-2" transform="translate(107.97 41.52)"><tspan x="0" y="0">H</tspan></text>
  <text class="cls-2" transform="translate(113.37 41.52)"><tspan x="0" y="0">O</tspan></text>
  <polygon class="cls-1" points="141.84 54.33 155.03 54.33 155.03 54.66 155.03 55 141.84 55 141.64 54.66 141.84 54.33 141.84 54.33"/>
  <text class="cls-2" transform="translate(155.83 56.4)"><tspan x="0" y="0">O</tspan></text>
  <text class="cls-2" transform="translate(161.65 56.4)"><tspan x="0" y="0">H</tspan></text>
  <polygon class="cls-1" points="133.55 69.37 141.84 83.74 141.64 84.08 141.25 84.08 132.96 69.71 133.15 69.37 133.55 69.37 133.55 69.37"/>
  <polygon class="cls-1" points="107.59 84.6 94.74 95.38 94.67 94.99 94.61 94.61 107.15 84.08 107.68 84.08 107.59 84.6 107.59 84.6"/>
  <polygon class="cls-1" points="95.91 94.18 98.3 107.7 97.96 107.76 97.63 107.82 95.24 94.29 95.58 94.24 95.91 94.18 95.91 94.18"/>
  <polygon class="cls-1" points="93.9 94.53 96.29 108.06 95.95 108.11 95.62 108.17 93.23 94.65 93.57 94.59 93.9 94.53 93.9 94.53"/>
  <text class="cls-2" transform="translate(94.83 113.45)"><tspan x="0" y="0">O</tspan></text>
  <polygon class="cls-1" points="94.74 95.38 82.19 90.81 82.31 90.49 82.43 90.17 94.61 94.61 94.67 94.99 94.74 95.38 94.74 95.38"/>
  <text class="cls-2" transform="translate(70.51 90.74)"><tspan x="0" y="0">H</tspan></text>
  <text class="cls-2" transform="translate(75.92 90.74)"><tspan x="0" y="0">O</tspan></text>
  <polygon class="cls-1" points="107.15 84.08 98.05 76.44 98.27 76.18 98.48 75.92 107.59 83.56 107.68 84.08 107.15 84.08 107.15 84.08"/>
  <text class="cls-2" transform="translate(91.88 74.9)"><tspan x="0" y="0">O</tspan></text>
  <polygon class="cls-1" points="91.2 74.79 78.65 79.36 78.72 78.97 78.79 78.58 90.97 74.15 91.08 74.47 91.2 74.79 91.2 74.79"/>
  <polygon class="cls-1" points="78.65 79.36 65.64 68.44 65.71 68.05 66.08 67.92 78.79 78.58 78.72 78.97 78.65 79.36 78.65 79.36"/>
  <polygon class="cls-1" points="65.41 67.8 68.29 51.47 68.66 51.33 68.96 51.58 66.08 67.92 65.71 68.05 65.41 67.8 65.41 67.8"/>
  <polygon class="cls-1" points="68.29 51.47 55.58 40.8 55.65 40.42 56.02 40.28 68.73 50.95 68.66 51.33 68.29 51.47 68.29 51.47"/>
  <polygon class="cls-1" points="55.58 40.8 39.99 46.48 39.69 46.22 39.76 45.84 55.35 40.16 55.65 40.42 55.58 40.8 55.58 40.8"/>
  <polygon class="cls-1" points="39.99 46.48 37.11 62.81 36.75 62.95 36.45 62.69 39.33 46.36 39.69 46.22 39.99 46.48 39.99 46.48"/>
  <polygon class="cls-1" points="37.11 62.81 46.38 70.59 46.16 70.85 45.94 71.11 36.68 63.33 36.75 62.95 37.11 62.81 37.11 62.81"/>
  <text class="cls-2" transform="translate(46.96 75.6)"><tspan x="0" y="0">O</tspan></text>
  <polygon class="cls-1" points="53.23 72.24 65.41 67.8 65.71 68.05 65.64 68.44 53.46 72.87 53.35 72.55 53.23 72.24 53.23 72.24"/>
  <polygon class="cls-1" points="36.68 63.33 24.5 67.77 24.38 67.45 24.26 67.13 36.45 62.69 36.75 62.95 36.68 63.33 36.68 63.33"/>
  <text class="cls-2" transform="translate(12.58 70.31)"><tspan x="0" y="0">H</tspan></text>
  <text class="cls-2" transform="translate(17.99 70.31)"><tspan x="0" y="0">O</tspan></text>
  <polygon class="cls-1" points="39.33 46.36 30.06 38.58 30.28 38.32 30.5 38.06 39.76 45.84 39.69 46.22 39.33 46.36 39.33 46.36"/>
  <text class="cls-2" transform="translate(18.48 36.86)"><tspan x="0" y="0">H</tspan></text>
  <text class="cls-2" transform="translate(23.89 36.86)"><tspan x="0" y="0">O</tspan></text>
  <polygon class="cls-1" points="55.35 40.16 57.6 27.41 57.93 27.47 58.27 27.53 56.02 40.28 55.65 40.42 55.35 40.16 55.35 40.16"/>
  <text class="cls-2" transform="translate(55.8 25.43)"><tspan x="0" y="0">O</tspan></text>
  <text class="cls-2" transform="translate(61.63 25.43)"><tspan x="0" y="0">H</tspan></text>
  <polygon class="cls-1" points="68.73 50.95 80.91 46.51 81.02 46.83 81.14 47.15 68.96 51.58 68.66 51.33 68.73 50.95 68.73 50.95"/>
  <text class="cls-2" transform="translate(81.82 47.26)"><tspan x="0" y="0">O</tspan></text>
  <text class="cls-2" transform="translate(87.65 47.26)"><tspan x="0" y="0">H</tspan></text>
  <polygon class="cls-1" points="133.55 98.78 139.76 109.54 139.46 109.71 139.17 109.88 132.96 99.12 133.15 98.78 133.55 98.78 133.55 98.78"/>
  <text class="cls-2" transform="translate(138.84 115.22)"><tspan x="0" y="0">O</tspan></text>
  <text class="cls-2" transform="translate(144.67 115.22)"><tspan x="0" y="0">H</tspan></text>
</svg>