<?xml version="1.0" encoding="UTF-8"?>
<svg id="_图层_1" data-name="图层 1" xmlns="http://www.w3.org/2000/svg" viewBox="0 0 200 130">
  <defs>
    <style>
      .cls-1 {
        stroke: #000;
        stroke-miterlimit: 10;
        stroke-width: .54px;
      }

      .cls-1, .cls-2, .cls-3 {
        fill: #000;
      }

      .cls-2 {
        fill-rule: evenodd;
        stroke-width: 0px;
      }

      .cls-3 {
        font-family: ArialMT, Arial;
        font-size: 3.47px;
      }
    </style>
  </defs>
  <polygon class="cls-2" points="128.89 28.75 120.91 28.75 121.01 28.59 121.1 28.43 128.89 28.43 128.89 28.59 128.89 28.75 128.89 28.75"/>
  <polygon class="cls-2" points="121.69 28.67 118.62 33.96 118.48 33.88 118.35 33.81 121.42 28.51 121.55 28.59 121.69 28.67 121.69 28.67"/>
  <polygon class="cls-2" points="120.87 28.2 117.8 33.49 117.67 33.41 117.53 33.33 120.6 28.04 120.73 28.12 120.87 28.2 120.87 28.2"/>
  <text class="cls-3" transform="translate(115.76 36.2)"><tspan x="0" y="0">O</tspan></text>
  <polygon class="cls-2" points="120.91 28.75 117.94 23.61 118.07 23.53 118.21 23.45 121.1 28.43 121.01 28.59 120.91 28.75 120.91 28.75"/>
  <text class="cls-3" transform="translate(115.86 19.64)"><tspan x="0" y="0">H</tspan></text>
  <text class="cls-3" transform="translate(115.86 22.37)"><tspan x="0" y="0">N</tspan></text>
  <polygon class="cls-2" points="115.49 21.94 109.27 21.94 109.17 21.78 109.27 21.63 115.49 21.63 115.49 21.78 115.49 21.94 115.49 21.94"/>
  <polygon class="cls-2" points="109.27 21.94 105.41 28.59 105.23 28.59 105.14 28.43 108.99 21.78 109.17 21.78 109.27 21.94 109.27 21.94"/>
  <polygon class="cls-2" points="105.14 28.75 97.43 28.75 97.34 28.59 97.43 28.43 105.14 28.43 105.23 28.59 105.14 28.75 105.14 28.75"/>
  <polygon class="cls-2" points="97.16 28.59 93.31 21.94 93.4 21.78 93.58 21.78 97.43 28.43 97.34 28.59 97.16 28.59 97.16 28.59"/>
  <polygon class="cls-2" points="93.31 21.63 96.19 16.65 96.33 16.73 96.47 16.8 93.58 21.78 93.4 21.78 93.31 21.63 93.31 21.63"/>
  <text class="cls-3" transform="translate(96.04 15.78)"><tspan x="0" y="0">O</tspan></text>
  <polygon class="cls-2" points="99.01 14.82 105.14 14.82 105.23 14.98 105.14 15.13 99.01 15.13 99.01 14.98 99.01 14.82 99.01 14.82"/>
  <polygon class="cls-2" points="105.14 14.82 108.02 9.84 108.16 9.92 108.3 10 105.41 14.98 105.23 14.98 105.14 14.82 105.14 14.82"/>
  <text class="cls-3" transform="translate(107.87 8.97)"><tspan x="0" y="0">O</tspan></text>
  <text class="cls-3" transform="translate(110.58 8.97)"><tspan x="0" y="0">H</tspan></text>
  <polygon class="cls-2" points="105.41 14.98 109.27 21.63 109.17 21.78 108.99 21.78 105.14 15.13 105.23 14.98 105.41 14.98 105.41 14.98"/>
  <polygon class="cls-2" points="93.31 21.94 85.42 21.94 85.51 21.78 85.6 21.63 93.31 21.63 93.4 21.78 93.31 21.94 93.31 21.94"/>
  <polygon class="cls-2" points="85.42 21.94 82.44 16.8 82.58 16.73 82.72 16.65 85.6 21.63 85.51 21.78 85.42 21.94 85.42 21.94"/>
  <text class="cls-3" transform="translate(77.75 15.7)"><tspan x="0" y="0">H</tspan></text>
  <text class="cls-3" transform="translate(80.27 15.7)"><tspan x="0" y="0">O</tspan></text>
  <polygon class="cls-2" points="97.43 28.75 94.55 33.73 94.41 33.65 94.28 33.57 97.16 28.59 97.34 28.59 97.43 28.75 97.43 28.75"/>
  <text class="cls-3" transform="translate(89.59 36.11)"><tspan x="0" y="0">H</tspan></text>
  <text class="cls-3" transform="translate(92.1 36.11)"><tspan x="0" y="0">O</tspan></text>
  <polygon class="cls-2" points="105.41 28.59 108.3 33.57 108.16 33.65 108.02 33.73 105.14 28.75 105.23 28.59 105.41 28.59 105.41 28.59"/>
  <text class="cls-3" transform="translate(107.87 36.11)"><tspan x="0" y="0">O</tspan></text>
  <polygon class="cls-2" points="108.3 37.22 105.41 42.2 105.23 42.2 105.14 42.04 108.02 37.07 108.16 37.14 108.3 37.22 108.3 37.22"/>
  <polygon class="cls-2" points="105.41 42.2 109.27 48.85 109.17 49.01 108.99 49.01 105.14 42.36 105.23 42.2 105.41 42.2 105.41 42.2"/>
  <polygon class="cls-2" points="109.27 49.17 105.41 55.81 105.23 55.81 105.14 55.66 108.99 49.01 109.17 49.01 109.27 49.17 109.27 49.17"/>
  <polygon class="cls-2" points="105.14 55.97 97.43 55.97 97.34 55.81 97.43 55.66 105.14 55.66 105.23 55.81 105.14 55.97 105.14 55.97"/>
  <polygon class="cls-2" points="97.16 55.81 93.31 49.17 93.4 49.01 93.58 49.01 97.43 55.66 97.34 55.81 97.16 55.81 97.16 55.81"/>
  <polygon class="cls-2" points="93.31 48.85 96.19 43.87 96.33 43.95 96.47 44.03 93.58 49.01 93.4 49.01 93.31 48.85 93.31 48.85"/>
  <text class="cls-3" transform="translate(96.04 43.01)"><tspan x="0" y="0">O</tspan></text>
  <polygon class="cls-2" points="99.01 42.04 105.14 42.04 105.23 42.2 105.14 42.36 99.01 42.36 99.01 42.2 99.01 42.04 99.01 42.04"/>
  <polygon class="cls-2" points="93.31 49.17 85.6 49.17 85.51 49.01 85.42 48.85 93.31 48.85 93.4 49.01 93.31 49.17 93.31 49.17"/>
  <polygon class="cls-2" points="85.1 49.56 82.03 44.26 82.17 44.19 82.31 44.11 85.38 49.4 85.24 49.48 85.1 49.56 85.1 49.56"/>
  <polygon class="cls-2" points="85.92 49.09 82.85 43.79 82.99 43.71 83.13 43.64 86.19 48.93 86.06 49.01 85.92 49.09 85.92 49.09"/>
  <text class="cls-3" transform="translate(80.27 43.01)"><tspan x="0" y="0">O</tspan></text>
  <polygon class="cls-2" points="85.6 49.17 82.72 54.14 82.58 54.07 82.44 53.99 85.42 48.85 85.51 49.01 85.6 49.17 85.6 49.17"/>
  <text class="cls-3" transform="translate(77.75 56.54)"><tspan x="0" y="0">H</tspan></text>
  <text class="cls-3" transform="translate(80.27 56.54)"><tspan x="0" y="0">O</tspan></text>
  <polygon class="cls-2" points="97.43 55.97 94.55 60.95 94.41 60.87 94.28 60.79 97.16 55.81 97.34 55.81 97.43 55.97 97.43 55.97"/>
  <text class="cls-3" transform="translate(92.1 63.42)"><tspan x="0" y="0">O</tspan></text>
  <polygon class="cls-2" points="94.55 64.29 97.43 69.27 97.34 69.43 97.16 69.43 94.28 64.45 94.41 64.37 94.55 64.29 94.55 64.29"/>
  <polygon class="cls-2" points="97.43 69.58 93.58 76.23 93.4 76.23 93.31 76.08 97.16 69.43 97.34 69.43 97.43 69.58 97.43 69.58"/>
  <polygon class="cls-2" points="93.58 76.23 97.43 82.88 97.34 83.04 97.16 83.04 93.31 76.39 93.4 76.23 93.58 76.23 93.58 76.23"/>
  <polygon class="cls-2" points="97.43 82.88 105.14 82.88 105.23 83.04 105.14 83.2 97.43 83.2 97.34 83.04 97.43 82.88 97.43 82.88"/>
  <polygon class="cls-2" points="105.14 82.88 108.99 76.23 109.17 76.23 109.27 76.39 105.41 83.04 105.23 83.04 105.14 82.88 105.14 82.88"/>
  <polygon class="cls-2" points="108.99 76.23 106.11 71.25 106.24 71.17 106.38 71.1 109.27 76.08 109.17 76.23 108.99 76.23 108.99 76.23"/>
  <text class="cls-3" transform="translate(103.93 70.23)"><tspan x="0" y="0">O</tspan></text>
  <polygon class="cls-2" points="103.56 69.58 97.43 69.58 97.34 69.43 97.43 69.27 103.56 69.27 103.56 69.43 103.56 69.58 103.56 69.58"/>
  <polygon class="cls-2" points="109.27 76.08 117.15 76.08 117.06 76.23 116.97 76.39 109.27 76.39 109.17 76.23 109.27 76.08 109.27 76.08"/>
  <polygon class="cls-2" points="117.15 76.08 120.13 81.21 119.99 81.29 119.86 81.37 116.97 76.39 117.06 76.23 117.15 76.08 117.15 76.08"/>
  <text class="cls-3" transform="translate(119.7 83.84)"><tspan x="0" y="0">O</tspan></text>
  <text class="cls-3" transform="translate(122.41 83.84)"><tspan x="0" y="0">H</tspan></text>
  <polygon class="cls-2" points="105.41 83.04 108.3 88.02 108.16 88.1 108.02 88.18 105.14 83.2 105.23 83.04 105.41 83.04 105.41 83.04"/>
  <text class="cls-3" transform="translate(107.87 90.65)"><tspan x="0" y="0">O</tspan></text>
  <text class="cls-3" transform="translate(110.58 90.65)"><tspan x="0" y="0">H</tspan></text>
  <polygon class="cls-2" points="97.43 83.2 94.55 88.18 94.41 88.1 94.28 88.02 97.16 83.04 97.34 83.04 97.43 83.2 97.43 83.2"/>
  <text class="cls-3" transform="translate(92.1 90.65)"><tspan x="0" y="0">O</tspan></text>
  <polygon class="cls-2" points="94.55 91.51 97.43 96.49 97.34 96.65 97.16 96.65 94.28 91.67 94.41 91.59 94.55 91.51 94.55 91.51"/>
  <polygon class="cls-2" points="97.43 96.81 93.58 103.46 93.4 103.46 93.31 103.3 97.16 96.65 97.34 96.65 97.43 96.81 97.43 96.81"/>
  <polygon class="cls-2" points="93.58 103.46 97.43 110.11 97.34 110.26 97.16 110.26 93.31 103.61 93.4 103.46 93.58 103.46 93.58 103.46"/>
  <polygon class="cls-2" points="97.43 110.11 105.14 110.11 105.23 110.26 105.14 110.42 97.43 110.42 97.34 110.26 97.43 110.11 97.43 110.11"/>
  <polygon class="cls-2" points="105.14 110.11 108.99 103.46 109.17 103.46 109.27 103.61 105.41 110.26 105.23 110.26 105.14 110.11 105.14 110.11"/>
  <polygon class="cls-2" points="108.99 103.46 106.11 98.48 106.24 98.4 106.38 98.32 109.27 103.3 109.17 103.46 108.99 103.46 108.99 103.46"/>
  <text class="cls-3" transform="translate(103.93 97.45)"><tspan x="0" y="0">O</tspan></text>
  <polygon class="cls-2" points="103.56 96.81 97.43 96.81 97.34 96.65 97.43 96.49 103.56 96.49 103.56 96.65 103.56 96.81 103.56 96.81"/>
  <polygon class="cls-2" points="109.27 103.3 117.15 103.3 117.06 103.46 116.97 103.61 109.27 103.61 109.17 103.46 109.27 103.3 109.27 103.3"/>
  <polygon class="cls-2" points="116.38 103.38 119.45 98.08 119.58 98.16 119.72 98.24 116.65 103.54 116.52 103.46 116.38 103.38 116.38 103.38"/>
  <polygon class="cls-2" points="117.2 103.85 120.27 98.56 120.4 98.63 120.54 98.71 117.47 104.01 117.34 103.93 117.2 103.85 117.2 103.85"/>
  <text class="cls-3" transform="translate(119.7 97.45)"><tspan x="0" y="0">O</tspan></text>
  <polygon class="cls-2" points="117.15 103.3 120.13 108.44 119.99 108.52 119.86 108.59 116.97 103.61 117.06 103.46 117.15 103.3 117.15 103.3"/>
  <text class="cls-3" transform="translate(119.7 111.07)"><tspan x="0" y="0">O</tspan></text>
  <text class="cls-3" transform="translate(122.41 111.07)"><tspan x="0" y="0">H</tspan></text>
  <polygon class="cls-2" points="105.41 110.26 108.3 115.24 108.16 115.32 108.02 115.4 105.14 110.42 105.23 110.26 105.41 110.26 105.41 110.26"/>
  <text class="cls-3" transform="translate(107.87 117.87)"><tspan x="0" y="0">O</tspan></text>
  <text class="cls-3" transform="translate(110.58 117.87)"><tspan x="0" y="0">H</tspan></text>
  <polygon class="cls-2" points="97.43 110.42 94.55 115.4 94.41 115.32 94.28 115.24 97.16 110.26 97.34 110.26 97.43 110.42 97.43 110.42"/>
  <text class="cls-3" transform="translate(89.59 117.87)"><tspan x="0" y="0">H</tspan></text>
  <text class="cls-3" transform="translate(92.1 117.87)"><tspan x="0" y="0">O</tspan></text>
  <polygon class="cls-2" points="93.31 103.61 87.18 103.61 87.18 103.46 87.18 103.3 93.31 103.3 93.4 103.46 93.31 103.61 93.31 103.61"/>
  <text class="cls-3" transform="translate(81.7 104.17)"><tspan x="0" y="0">H</tspan></text>
  <text class="cls-3" transform="translate(84.21 104.17)"><tspan x="0" y="0">O</tspan></text>
  <polygon class="cls-2" points="93.31 76.39 87.08 76.39 87.08 76.23 87.08 76.08 93.31 76.08 93.4 76.23 93.31 76.39 93.31 76.39"/>
  <text class="cls-3" transform="translate(84.31 74.09)"><tspan x="0" y="0">H</tspan></text>
  <text class="cls-3" transform="translate(84.31 76.82)"><tspan x="0" y="0">N</tspan></text>
  <polygon class="cls-2" points="84.64 78.06 81.66 83.2 81.57 83.04 81.48 82.88 84.36 77.9 84.5 77.98 84.64 78.06 84.64 78.06"/>
  <polygon class="cls-2" points="81.98 82.49 85.05 87.78 84.91 87.86 84.77 87.94 81.7 82.65 81.84 82.57 81.98 82.49 81.98 82.49"/>
  <polygon class="cls-2" points="81.16 82.96 84.23 88.25 84.09 88.33 83.95 88.41 80.88 83.12 81.02 83.04 81.16 82.96 81.16 82.96"/>
  <text class="cls-3" transform="translate(84.21 90.65)"><tspan x="0" y="0">O</tspan></text>
  <polygon class="cls-2" points="81.66 83.2 73.68 83.2 73.68 83.04 73.68 82.88 81.48 82.88 81.57 83.04 81.66 83.2 81.66 83.2"/>
  <polygon class="cls-2" points="105.41 55.81 108.3 60.79 108.16 60.87 108.02 60.95 105.14 55.97 105.23 55.81 105.41 55.81 105.41 55.81"/>
  <text class="cls-3" transform="translate(107.87 63.42)"><tspan x="0" y="0">O</tspan></text>
  <text class="cls-3" transform="translate(110.58 63.42)"><tspan x="0" y="0">H</tspan></text>
  <polygon class="cls-2" points="109.27 48.85 115.39 48.85 115.39 49.01 115.39 49.17 109.27 49.17 109.17 49.01 109.27 48.85 109.27 48.85"/>
  <text class="cls-3" transform="translate(115.76 49.81)"><tspan x="0" y="0">O</tspan></text>
  <text class="cls-3" transform="translate(118.47 49.81)"><tspan x="0" y="0">H</tspan></text>
  <text class="cls-3" transform="translate(136.83 22.5)"><tspan x="0" y="0">Na</tspan></text>
  <line class="cls-1" x1="140.69" y1="19.45" x2="142" y2="19.45"/>
  <line class="cls-1" x1="141.34" y1="18.8" x2="141.34" y2="20.11"/>
</svg>