<?xml version="1.0" encoding="UTF-8"?>
<svg id="_图层_1" data-name="图层 1" xmlns="http://www.w3.org/2000/svg" viewBox="0 0 200 130">
  <defs>
    <style>
      .cls-1 {
        font-family: ArialMT, Arial;
        font-size: 5.18px;
      }

      .cls-1, .cls-2 {
        fill: #000;
      }

      .cls-2 {
        fill-rule: evenodd;
        stroke-width: 0px;
      }
    </style>
  </defs>
  <polygon class="cls-2" points="146.03 8.44 137.13 15.91 136.87 15.82 136.62 15.72 145.73 8.08 145.88 8.26 146.03 8.44 146.03 8.44"/>
  <polygon class="cls-2" points="136.93 16.84 127.99 13.58 128.07 13.36 128.15 13.14 137.1 16.4 137.02 16.62 136.93 16.84 136.93 16.84"/>
  <polygon class="cls-2" points="137.42 15.51 128.47 12.26 128.55 12.04 128.63 11.82 137.58 15.07 137.5 15.29 137.42 15.51 137.42 15.51"/>
  <text class="cls-1" transform="translate(123.89 12.99)"><tspan x="0" y="0">O</tspan></text>
  <polygon class="cls-2" points="137.13 15.91 138.69 24.74 138.45 24.78 138.22 24.82 136.62 15.72 136.87 15.82 137.13 15.91 137.13 15.91"/>
  <text class="cls-1" transform="translate(137.12 28.47)"><tspan x="0" y="0">N</tspan></text>
  <text class="cls-1" transform="translate(140.86 28.47)"><tspan x="0" y="0">H</tspan></text>
  <polygon class="cls-2" points="136.72 29.54 130.16 35.04 129.91 34.95 129.86 34.68 136.42 29.18 136.57 29.36 136.72 29.54 136.72 29.54"/>
  <polygon class="cls-2" points="129.7 35.13 118.91 31.2 118.86 30.93 119.07 30.76 129.86 34.68 129.91 34.95 129.7 35.13 129.7 35.13"/>
  <polygon class="cls-2" points="118.91 31.2 110.11 38.58 109.86 38.49 109.6 38.39 118.61 30.84 118.86 30.93 118.91 31.2 118.91 31.2"/>
  <polygon class="cls-2" points="110.11 38.58 112.11 49.89 111.9 50.06 111.62 49.83 109.6 38.39 109.86 38.49 110.11 38.58 110.11 38.58"/>
  <polygon class="cls-2" points="112.11 49.89 120.54 52.96 120.46 53.18 120.38 53.4 112.08 50.38 111.9 50.06 112.11 49.89 112.11 49.89"/>
  <text class="cls-1" transform="translate(121.01 55.29)"><tspan x="0" y="0">O</tspan></text>
  <polygon class="cls-2" points="125.28 51.82 131.7 46.44 131.95 46.53 132 46.8 125.58 52.18 125.43 52 125.28 51.82 125.28 51.82"/>
  <polygon class="cls-2" points="132.16 46.35 142.95 50.28 143 50.55 142.79 50.72 132 46.8 131.95 46.53 132.16 46.35 132.16 46.35"/>
  <polygon class="cls-2" points="143.25 50.64 145.25 61.95 145.04 62.13 144.78 62.03 142.79 50.72 143 50.55 143.25 50.64 143.25 50.64"/>
  <polygon class="cls-2" points="145.25 61.95 156.29 65.97 156.09 66.15 155.88 66.32 145.09 62.39 145.04 62.13 145.25 61.95 145.25 61.95"/>
  <polygon class="cls-2" points="156.29 65.97 157.9 75.07 157.67 75.11 157.44 75.15 155.88 66.32 156.09 66.15 156.29 65.97 156.29 65.97"/>
  <text class="cls-1" transform="translate(156.19 78.93)"><tspan x="0" y="0">O</tspan></text>
  <text class="cls-1" transform="translate(160.22 78.93)"><tspan x="0" y="0">H</tspan></text>
  <polygon class="cls-2" points="145.09 62.39 138.67 67.78 138.52 67.6 138.37 67.42 144.78 62.03 145.04 62.13 145.09 62.39 145.09 62.39"/>
  <text class="cls-1" transform="translate(130.36 70.76)"><tspan x="0" y="0">H</tspan></text>
  <text class="cls-1" transform="translate(134.1 70.76)"><tspan x="0" y="0">O</tspan></text>
  <polygon class="cls-2" points="142.95 50.28 149.37 44.9 149.52 45.08 149.67 45.26 143.25 50.64 143 50.55 142.95 50.28 142.95 50.28"/>
  <text class="cls-1" transform="translate(150.07 44.2)"><tspan x="0" y="0">O</tspan></text>
  <text class="cls-1" transform="translate(154.1 44.2)"><tspan x="0" y="0">H</tspan></text>
  <polygon class="cls-2" points="131.7 46.44 129.7 35.13 129.91 34.95 130.16 35.04 132.16 46.35 131.95 46.53 131.7 46.44 131.7 46.44"/>
  <polygon class="cls-2" points="111.62 50.3 100.01 50.3 100.14 50.06 100.28 49.83 111.62 49.83 111.9 50.06 111.62 50.3 111.62 50.3"/>
  <polygon class="cls-2" points="101.29 50.23 95.14 56.6 94.97 56.44 94.8 56.27 100.95 49.9 101.12 50.06 101.29 50.23 101.29 50.23"/>
  <polygon class="cls-2" points="99.94 49.59 94.12 55.62 93.95 55.46 93.78 55.29 99.61 49.27 99.77 49.43 99.94 49.59 99.94 49.59"/>
  <text class="cls-1" transform="translate(90.04 59.72)"><tspan x="0" y="0">O</tspan></text>
  <polygon class="cls-2" points="100.01 50.3 95.57 42.62 95.77 42.5 95.98 42.38 100.28 49.83 100.14 50.06 100.01 50.3 100.01 50.3"/>
  <text class="cls-1" transform="translate(88.58 40.96)"><tspan x="0" y="0">H</tspan></text>
  <text class="cls-1" transform="translate(92.33 40.96)"><tspan x="0" y="0">O</tspan></text>
  <polygon class="cls-2" points="112.08 50.38 110.55 59.07 110.32 59.03 110.09 58.99 111.62 50.3 111.9 50.06 112.08 50.38 112.08 50.38"/>
  <text class="cls-1" transform="translate(107.92 62.85)"><tspan x="0" y="0">O</tspan></text>
  <polygon class="cls-2" points="107.45 62.77 99.02 65.84 98.81 65.66 98.86 65.4 107.29 62.33 107.37 62.55 107.45 62.77 107.45 62.77"/>
  <polygon class="cls-2" points="98.55 65.76 89.76 58.37 89.8 58.11 90.06 58.01 98.86 65.4 98.81 65.66 98.55 65.76 98.55 65.76"/>
  <polygon class="cls-2" points="89.76 58.37 78.96 62.3 78.76 62.13 78.8 61.86 89.59 57.93 89.8 58.11 89.76 58.37 89.76 58.37"/>
  <polygon class="cls-2" points="78.96 62.3 77.41 71.13 77.18 71.09 76.94 71.05 78.5 62.22 78.76 62.13 78.96 62.3 78.96 62.3"/>
  <text class="cls-1" transform="translate(74.77 74.91)"><tspan x="0" y="0">O</tspan></text>
  <polygon class="cls-2" points="79.35 75.61 85.77 80.99 85.72 81.26 85.46 81.35 79.05 75.97 79.2 75.79 79.35 75.61 79.35 75.61"/>
  <polygon class="cls-2" points="85.77 80.99 96.56 77.07 96.77 77.24 96.72 77.51 85.93 81.44 85.72 81.26 85.77 80.99 85.77 80.99"/>
  <polygon class="cls-2" points="97.02 77.15 103.44 82.53 103.29 82.71 103.14 82.89 96.72 77.51 96.77 77.24 97.02 77.15 97.02 77.15"/>
  <text class="cls-1" transform="translate(103.84 86)"><tspan x="0" y="0">O</tspan></text>
  <text class="cls-1" transform="translate(107.87 86)"><tspan x="0" y="0">H</tspan></text>
  <polygon class="cls-2" points="96.56 77.07 98.55 65.76 98.81 65.66 99.02 65.84 97.02 77.15 96.77 77.24 96.56 77.07 96.56 77.07"/>
  <polygon class="cls-2" points="85.93 81.44 84.37 90.27 84.14 90.22 83.91 90.18 85.46 81.35 85.72 81.26 85.93 81.44 85.93 81.44"/>
  <text class="cls-1" transform="translate(81.74 94.04)"><tspan x="0" y="0">O</tspan></text>
  <polygon class="cls-2" points="81.27 93.97 72.84 97.03 72.63 96.86 72.68 96.59 81.11 93.52 81.19 93.74 81.27 93.97 81.27 93.97"/>
  <polygon class="cls-2" points="72.84 97.03 70.84 108.35 70.59 108.44 70.38 108.26 72.38 96.95 72.63 96.86 72.84 97.03 72.84 97.03"/>
  <polygon class="cls-2" points="70.54 108.71 59.75 112.63 59.54 112.46 59.33 112.28 70.38 108.26 70.59 108.44 70.54 108.71 70.54 108.71"/>
  <polygon class="cls-2" points="59.75 112.63 58.19 121.46 57.96 121.42 57.73 121.38 59.33 112.28 59.54 112.46 59.75 112.63 59.75 112.63"/>
  <text class="cls-1" transform="translate(51.82 125.11)"><tspan x="0" y="0">H</tspan></text>
  <text class="cls-1" transform="translate(55.57 125.11)"><tspan x="0" y="0">O</tspan></text>
  <polygon class="cls-2" points="70.84 108.35 77.26 113.73 77.11 113.91 76.96 114.09 70.54 108.71 70.59 108.44 70.84 108.35 70.84 108.35"/>
  <text class="cls-1" transform="translate(77.66 117.2)"><tspan x="0" y="0">O</tspan></text>
  <text class="cls-1" transform="translate(81.69 117.2)"><tspan x="0" y="0">H</tspan></text>
  <polygon class="cls-2" points="72.38 96.95 63.58 89.57 63.63 89.3 63.88 89.21 72.68 96.59 72.63 96.86 72.38 96.95 72.38 96.95"/>
  <polygon class="cls-2" points="63.58 89.57 52.79 93.5 52.58 93.32 52.63 93.06 63.42 89.13 63.63 89.3 63.58 89.57 63.58 89.57"/>
  <polygon class="cls-2" points="52.32 93.42 43.52 86.03 43.57 85.77 43.62 85.5 52.63 93.06 52.58 93.32 52.32 93.42 52.32 93.42"/>
  <polygon class="cls-2" points="43.37 87.59 35.57 90.43 35.49 90.21 35.41 89.99 43.21 87.15 43.29 87.37 43.37 87.59 43.37 87.59"/>
  <polygon class="cls-2" points="43.52 86.03 35.09 89.1 35.01 88.88 34.93 88.66 43.62 85.5 43.57 85.77 43.52 86.03 43.52 86.03"/>
  <text class="cls-1" transform="translate(30.59 90.99)"><tspan x="0" y="0">O</tspan></text>
  <polygon class="cls-2" points="52.79 93.5 51.23 102.33 51 102.29 50.77 102.25 52.32 93.42 52.58 93.32 52.79 93.5 52.79 93.5"/>
  <text class="cls-1" transform="translate(44.86 105.98)"><tspan x="0" y="0">H</tspan></text>
  <text class="cls-1" transform="translate(48.6 105.98)"><tspan x="0" y="0">O</tspan></text>
  <polygon class="cls-2" points="63.42 89.13 64.97 80.3 65.21 80.34 65.44 80.38 63.88 89.21 63.63 89.3 63.42 89.13 63.42 89.13"/>
  <text class="cls-1" transform="translate(63.73 78.93)"><tspan x="0" y="0">O</tspan></text>
  <text class="cls-1" transform="translate(67.76 78.93)"><tspan x="0" y="0">H</tspan></text>
  <polygon class="cls-2" points="78.5 62.22 69.7 54.84 69.75 54.57 69.8 54.3 78.8 61.86 78.76 62.13 78.5 62.22 78.5 62.22"/>
  <polygon class="cls-2" points="69.7 54.84 61.27 57.91 61.19 57.69 61.11 57.47 69.8 54.3 69.75 54.57 69.7 54.84 69.7 54.84"/>
  <text class="cls-1" transform="translate(53.02 59.67)"><tspan x="0" y="0">H</tspan></text>
  <text class="cls-1" transform="translate(56.76 59.67)"><tspan x="0" y="0">O</tspan></text>
  <polygon class="cls-2" points="89.59 57.93 91.15 49.1 91.38 49.14 91.61 49.18 90.06 58.01 89.8 58.11 89.59 57.93 89.59 57.93"/>
  <text class="cls-1" transform="translate(89.91 47.72)"><tspan x="0" y="0">O</tspan></text>
  <text class="cls-1" transform="translate(93.94 47.72)"><tspan x="0" y="0">H</tspan></text>
  <polygon class="cls-2" points="118.61 30.84 117.05 22.01 117.28 21.97 117.51 21.93 119.07 30.76 118.86 30.93 118.61 30.84 118.61 30.84"/>
  <text class="cls-1" transform="translate(111.14 20.43)"><tspan x="0" y="0">H</tspan></text>
  <text class="cls-1" transform="translate(114.89 20.43)"><tspan x="0" y="0">O</tspan></text>
</svg>