<?xml version="1.0" encoding="utf-8"?>
<!-- Generator: Adobe Illustrator 26.0.0, SVG Export Plug-In . SVG Version: 6.00 Build 0)  -->
<svg version="1.1" id="图层_1" xmlns="http://www.w3.org/2000/svg" xmlns:xlink="http://www.w3.org/1999/xlink" x="0px" y="0px"
	 viewBox="0 0 200 130" style="enable-background:new 0 0 200 130;" xml:space="preserve">
<style type="text/css">
	.st0{font-family:'ArialMT';}
	.st1{font-size:4.0248px;}
	.st2{fill:none;stroke:#000000;stroke-width:0.8749;stroke-miterlimit:3.7036;}
</style>
<polygon points="4.1,72.9 12.1,68.3 12.1,68.5 12.1,68.7 4.3,73.2 4.2,73.1 "/>
<polygon points="12.1,68.3 20,72.9 20,73.1 20,73.3 12.1,68.7 12.1,68.5 "/>
<polygon points="20,72.9 27.9,68.3 27.9,68.5 27.9,68.7 20,73.3 20,73.1 "/>
<polygon points="27.9,68.3 35.8,72.9 35.8,73.1 35.8,73.3 27.9,68.7 27.9,68.5 "/>
<polygon points="35.8,72.9 43.7,68.3 43.7,68.5 43.7,68.7 35.8,73.3 35.8,73.1 "/>
<polygon points="43.7,68.3 51.6,72.9 51.6,73.1 51.6,73.3 43.7,68.7 43.7,68.5 "/>
<polygon points="51.6,72.9 59.5,68.3 59.5,68.5 59.5,68.7 51.6,73.3 51.6,73.1 "/>
<polygon points="59.5,68.3 67.4,72.9 67.4,73.1 67.4,73.3 59.5,68.7 59.5,68.5 "/>
<polygon points="67.4,72.9 75.3,68.3 75.3,68.5 75.3,68.7 67.4,73.3 67.4,73.1 "/>
<polygon points="75.3,68.3 83.2,72.9 83.2,73.1 83.2,73.3 75.3,68.7 75.3,68.5 "/>
<polygon points="83.2,72.9 91.1,68.3 91.1,68.5 91.1,68.7 83.2,73.3 83.2,73.1 "/>
<polygon points="91.1,68.3 99,72.9 99,73.1 99,73.3 91.1,68.7 91.1,68.5 "/>
<polygon points="99,72.9 106.9,68.3 106.9,68.5 106.9,68.7 99,73.3 99,73.1 "/>
<polygon points="106.2,68.8 106.2,61.4 106.4,61.4 106.6,61.4 106.6,68.8 106.4,68.8 "/>
<polygon points="107.3,68.8 107.3,61.4 107.5,61.4 107.7,61.4 107.7,68.8 107.5,68.8 "/>
<text transform="matrix(1 0 0 1 105.3834 61.0249)" class="st0 st1">O</text>
<polygon points="106.9,68.3 113,71.8 112.9,72 112.8,72.1 106.9,68.7 106.9,68.5 "/>
<text transform="matrix(1 0 0 1 113.2877 74.7144)" class="st0 st1">O</text>
<polygon points="116.7,71.8 122.8,68.3 122.8,68.5 122.8,68.7 116.9,72.1 116.8,72 "/>
<polygon points="122.8,68.3 130.7,72.9 130.7,73.1 130.6,73.2 122.8,68.7 122.8,68.5 "/>
<polygon points="130.7,72.9 138.6,68.3 138.6,68.5 138.6,68.7 130.8,73.2 130.7,73.1 "/>
<polygon points="138.6,68.3 144.6,71.8 144.5,72 144.4,72.1 138.6,68.7 138.6,68.5 "/>
<text transform="matrix(1 0 0 1 144.9039 74.7144)" class="st0 st1">O</text>
<polygon points="148.3,71.8 152.6,69.4 152.7,69.5 152.8,69.7 148.5,72.1 148.4,72 "/>
<text transform="matrix(1 0 0 1 153.0329 70.1509)" class="st0 st1">P</text>
<polygon points="156.2,70.2 158.4,74 158.2,74.1 158.1,74.2 155.9,70.4 156,70.3 "/>
<polygon points="155.2,70.7 157.5,74.6 157.3,74.7 157.1,74.8 154.9,70.9 155.1,70.8 "/>
<text transform="matrix(1 0 0 1 157.3737 78.0562)" class="st0 st1">O</text>
<polygon points="153,66.6 150.8,62.7 151,62.6 151.1,62.6 153.4,66.4 153.2,66.5 "/>
<text transform="matrix(1 0 0 1 145.3385 62.2476)" class="st0 st1">H</text>
<text transform="matrix(1 0 0 1 148.2457 62.2476)" class="st0 st1">O</text>
<polygon points="156,67.4 160.3,64.9 160.3,65.1 160.4,65.2 156.2,67.7 156.1,67.5 "/>
<text transform="matrix(1 0 0 1 160.7125 65.5874)" class="st0 st1">O</text>
<polygon points="164.3,64.9 170.2,68.3 170.2,68.5 170.2,68.7 164.1,65.2 164.2,65.1 "/>
<polygon points="170.2,68.3 178.1,63.7 178.1,64 178.1,64.2 170.2,68.7 170.2,68.5 "/>
<polygon points="178.1,63.7 184.3,67.3 184.2,67.5 184.1,67.6 178.1,64.2 178.1,64 "/>
<text transform="matrix(1 0 0 1 184.5397 70.1509)" class="st0 st1">N</text>
<polygon points="187,66.4 190.4,60.5 190.6,60.6 190.7,60.7 187.3,66.6 187.2,66.5 "/>
<polygon points="185,70.6 181.6,76.5 181.4,76.4 181.3,76.3 184.7,70.5 184.8,70.6 "/>
<polygon points="187.9,69.4 194,72.9 193.9,73.1 193.8,73.2 187.7,69.7 187.8,69.6 "/>
<line class="st2" x1="187.3" y1="66.4" x2="188.9" y2="66.4"/>
<line class="st2" x1="188.1" y1="65.7" x2="188.1" y2="67.2"/>
<polygon points="130.5,73.1 130.9,73.1 130.9,73.3 130.9,73.5 130.5,73.5 130.5,73.3 "/>
<polygon points="130.4,74.2 131,74.2 131,74.4 131,74.6 130.4,74.6 130.4,74.4 "/>
<polygon points="130.3,75.3 131.1,75.3 131.1,75.5 131.1,75.7 130.3,75.7 130.3,75.5 "/>
<polygon points="130.2,76.5 131.2,76.5 131.2,76.6 131.2,76.8 130.2,76.8 130.2,76.6 "/>
<polygon points="130.1,77.6 131.3,77.6 131.3,77.8 131.3,77.9 130.1,77.9 130.1,77.8 "/>
<polygon points="130,78.7 131.4,78.7 131.4,78.9 131.4,79.1 130,79.1 130,78.9 "/>
<polygon points="129.9,79.8 131.5,79.8 131.5,80 131.5,80.2 129.9,80.2 129.9,80 "/>
<text transform="matrix(1 0 0 1 129.0963 83.8423)" class="st0 st1">O</text>
<text transform="matrix(1 0 0 1 132.2262 83.8423)" class="st0 st1">H</text>
</svg>
