<?xml version="1.0" encoding="utf-8"?>
<!-- Generator: Adobe Illustrator 26.0.0, SVG Export Plug-In . SVG Version: 6.00 Build 0)  -->
<svg version="1.1" id="图层_1" xmlns="http://www.w3.org/2000/svg" xmlns:xlink="http://www.w3.org/1999/xlink" x="0px" y="0px"
	 viewBox="0 0 200 130" style="enable-background:new 0 0 200 130;" xml:space="preserve">
<style type="text/css">
	.st0{font-family:'ArialMT';}
	.st1{font-size:3.8601px;}
	.st2{fill:none;stroke:#000000;stroke-width:0.8766;stroke-miterlimit:3.7109;}
	.st3{font-size:2.3754px;}
</style>
<polygon points="8.2,75.5 15.9,71.1 15.9,71.3 15.9,71.5 8.4,75.8 8.3,75.7 "/>
<polygon points="15.9,71.1 23.5,75.5 23.5,75.7 23.5,75.9 15.9,71.5 15.9,71.3 "/>
<polygon points="23.5,75.5 31.1,71.1 31.1,71.3 31.1,71.5 23.5,75.9 23.5,75.7 "/>
<polygon points="31.1,71.1 38.6,75.5 38.6,75.7 38.6,75.9 31.1,71.5 31.1,71.3 "/>
<polygon points="38.6,75.5 46.2,71.1 46.2,71.3 46.2,71.5 38.6,75.9 38.6,75.7 "/>
<polygon points="46.2,71.1 53.8,75.5 53.8,75.7 53.8,75.9 46.2,71.5 46.2,71.3 "/>
<polygon points="53.8,75.5 61.4,71.1 61.4,71.3 61.4,71.5 53.8,75.9 53.8,75.7 "/>
<polygon points="61.4,71.1 69,75.5 69,75.7 69,75.9 61.4,71.5 61.4,71.3 "/>
<polygon points="69,75.5 76.5,71.1 76.5,71.3 76.5,71.5 69,75.9 69,75.7 "/>
<polygon points="76.5,71.1 84.1,75.5 84.1,75.7 84.1,75.9 76.5,71.5 76.5,71.3 "/>
<polygon points="84.1,75.5 91.7,71.1 91.7,71.3 91.7,71.5 84.1,75.9 84.1,75.7 "/>
<polygon points="91.7,71.1 99.3,75.5 99.3,75.7 99.3,75.9 91.7,71.5 91.7,71.3 "/>
<polygon points="99.3,75.5 106.9,71.1 106.9,71.3 106.9,71.5 99.3,75.9 99.3,75.7 "/>
<polygon points="106.9,71.1 114.4,75.5 114.4,75.7 114.4,75.9 106.9,71.5 106.9,71.3 "/>
<polygon points="114.4,75.5 121.8,71.2 122,71.3 122,71.5 114.4,75.9 114.4,75.7 "/>
<polygon points="122.2,71.2 129.6,75.5 129.6,75.7 129.5,75.8 122,71.5 122,71.3 "/>
<polygon points="129.6,75.5 137.2,71.1 137.2,71.3 137.2,71.5 129.7,75.8 129.6,75.7 "/>
<polygon points="137.2,71.1 143,74.4 142.9,74.6 142.8,74.7 137.2,71.5 137.2,71.3 "/>
<text transform="matrix(1 0 0 1 143.2711 77.2187)" class="st0 st1">O</text>
<polygon points="146.5,74.4 150.6,72.1 150.7,72.2 150.8,72.4 146.7,74.7 146.6,74.6 "/>
<text transform="matrix(1 0 0 1 151.067 72.8418)" class="st0 st1">P</text>
<polygon points="154.1,72.9 156.2,76.6 156.1,76.7 155.9,76.7 153.8,73.1 153.9,73 "/>
<polygon points="153.2,73.4 155.3,77.1 155.2,77.2 155,77.3 152.9,73.6 153,73.5 "/>
<text transform="matrix(1 0 0 1 155.2291 80.4228)" class="st0 st1">O</text>
<polygon points="151.1,69.4 148.9,65.7 149.1,65.6 149.3,65.6 151.4,69.2 151.2,69.3 "/>
<text transform="matrix(1 0 0 1 143.6881 65.2607)" class="st0 st1">H</text>
<text transform="matrix(1 0 0 1 146.4762 65.2607)" class="st0 st1">O</text>
<polygon points="153.9,70.2 158,67.8 158.1,68 158.2,68.1 154.1,70.5 154,70.3 "/>
<text transform="matrix(1 0 0 1 158.4342 68.4648)" class="st0 st1">O</text>
<polygon points="161.9,67.8 167.5,71.1 167.5,71.3 167.5,71.5 161.7,68.1 161.8,68 "/>
<polygon points="167.5,71.1 175.1,66.7 175.1,66.9 175.1,67.1 167.5,71.5 167.5,71.3 "/>
<polygon points="175.1,66.7 181,70.1 180.9,70.3 180.8,70.4 175.1,67.1 175.1,66.9 "/>
<text transform="matrix(1 0 0 1 181.2848 72.8418)" class="st0 st1">N</text>
<polygon points="183.7,69.2 186.9,63.6 187.1,63.7 187.2,63.8 184,69.4 183.8,69.3 "/>
<polygon points="181.7,73.3 178.5,78.9 178.3,78.9 178.1,78.8 181.4,73.1 181.6,73.2 "/>
<polygon points="184.5,72.1 190.3,75.5 190.3,75.7 190.2,75.8 184.3,72.4 184.4,72.3 "/>
<line class="st2" x1="184" y1="69.3" x2="185.4" y2="69.3"/>
<line class="st2" x1="184.7" y1="68.5" x2="184.7" y2="70"/>
<polygon points="129.4,75.7 129.8,75.7 129.8,75.9 129.8,76 129.4,76 129.4,75.9 "/>
<polygon points="129.3,76.8 129.9,76.8 129.9,76.9 129.9,77.1 129.3,77.1 129.3,76.9 "/>
<polygon points="129.2,77.8 130,77.8 130,78 130,78.2 129.2,78.2 129.2,78 "/>
<polygon points="129.1,78.9 130.1,78.9 130.1,79.1 130.1,79.2 129.1,79.2 129.1,79.1 "/>
<polygon points="129,80 130.2,80 130.2,80.1 130.2,80.3 129,80.3 129,80.1 "/>
<polygon points="128.9,81 130.3,81 130.3,81.2 130.3,81.4 128.9,81.4 128.9,81.2 "/>
<polygon points="128.8,82.1 130.4,82.1 130.4,82.3 130.4,82.5 128.8,82.5 128.8,82.3 "/>
<text transform="matrix(1 0 0 1 128.2174 85.4756)" class="st0 st1">N</text>
<text transform="matrix(1 0 0 1 131.0045 85.4756)" class="st0 st1">H</text>
<text transform="matrix(1 0 0 1 133.7926 86.0683)" class="st0 st3">2</text>
<polygon points="121.8,71.2 121.2,64.5 122,64.5 122.8,64.5 122.2,71.2 122,71.3 "/>
<text transform="matrix(1 0 0 1 120.5289 64.0888)" class="st0 st1">O</text>
<text transform="matrix(1 0 0 1 123.5309 64.0888)" class="st0 st1">H</text>
</svg>
