<?xml version="1.0" encoding="utf-8"?>
<!-- Generator: Adobe Illustrator 25.2.0, SVG Export Plug-In . SVG Version: 6.00 Build 0)  -->
<svg version="1.1" id="图层_1" xmlns="http://www.w3.org/2000/svg" xmlns:xlink="http://www.w3.org/1999/xlink" x="0px" y="0px"
	 viewBox="0 0 200 130" style="enable-background:new 0 0 200 130;" xml:space="preserve">
<style type="text/css">
	.st0{font-family:'ArialMT';}
	.st1{font-size:9.3522px;}
</style>
<polygon points="52.7,67.3 73.9,67.9 74.2,67.5 73.9,67.1 53.2,66.4 53,66.8 "/>
<polygon points="54.5,64.8 72.8,65.3 72.8,64.9 72.8,64.5 54.5,63.9 54.5,64.3 "/>
<polygon points="74.6,67.5 85.8,49.5 85.3,49.5 84.8,49.5 73.9,67.1 74.2,67.5 "/>
<polygon points="85.8,49.5 75.8,30.8 75.3,30.8 75,31.2 84.8,49.5 85.3,49.5 "/>
<polygon points="82.8,49.2 74.1,33.1 73.8,33.3 73.4,33.5 82,49.6 82.4,49.4 "/>
<polygon points="75.1,30.4 54.4,29.7 54.1,30.1 54.3,30.6 75,31.2 75.3,30.8 "/>
<polygon points="53.6,30.1 42.7,47.7 42.9,48.2 43.4,48.2 54.3,30.6 54.1,30.1 "/>
<polygon points="55.1,32.5 45.5,48 45.9,48.3 46.2,48.5 55.9,32.9 55.5,32.7 "/>
<polygon points="42.7,47.7 26.5,47.2 26.5,47.6 26.5,48.1 42.7,48.6 42.9,48.2 "/>
<g>
	<text transform="matrix(1 0 0 1 20.1282 51.0746)" class="st0 st1">F</text>
</g>
<polygon points="42.7,48.6 52.7,67.3 53,66.8 53.2,66.4 43.4,48.2 42.9,48.2 "/>
<polygon points="54.4,29.7 46.7,15.5 46.3,15.7 46,15.9 53.6,30.1 54.1,30.1 "/>
<g>
	<text transform="matrix(1 0 0 1 33.1111 14.9842)" class="st0 st1">H</text>
	<text transform="matrix(1 0 0 1 39.8591 14.9842)" class="st0 st1">O</text>
</g>
<polygon points="75.8,30.8 84.3,17.1 84,16.8 83.6,16.6 75.1,30.4 75.3,30.8 "/>
<g>
	<text transform="matrix(1 0 0 1 84.937 16.3641)" class="st0 st1">F</text>
</g>
<polygon points="73.9,67.9 83.9,86.6 84.2,86.2 84.4,85.8 74.6,67.5 74.2,67.5 "/>
<polygon points="83.9,86.6 104.3,84.9 104.2,84.4 104.2,84 84.4,85.8 84.2,86.2 "/>
<polygon points="84.5,89 105,87.5 105.3,86.9 105.2,86.5 84.9,88 84.7,88.5 "/>
<polygon points="105.1,87.3 117.1,104.9 117.3,104.4 117.5,103.9 105.9,86.9 105.4,86.9 "/>
<polygon points="116,103 110.2,119 110.6,119.2 111,119.3 116.8,103.3 116.4,103.1 "/>
<polygon points="118.4,103.8 112.6,119.9 113,120 113.4,120.2 119.2,104.1 118.8,104 "/>
<g>
	<text transform="matrix(0.7517 0.6595 0.6595 -0.7517 109.8763 119.1161)" class="st0 st1">O</text>
</g>
<polygon points="117.1,104.9 132.4,100.5 132.3,100.1 132.2,99.6 117.5,103.9 117.3,104.4 "/>
<g>
	<text transform="matrix(1 0 0 1 133.1301 100.0194)" class="st0 st1">N</text>
</g>
<polygon points="138.3,92.4 138.8,77 138.3,77.3 137.9,77.6 137.4,92.4 137.8,92.4 "/>
<polygon points="135.7,92.3 136.1,79.1 135.7,79.1 135.3,79.1 134.9,92.3 135.3,92.3 "/>
<polygon points="138.8,77 122.8,71.2 122.6,71.6 122.5,72 137.9,77.6 138.3,77.3 "/>
<g>
	<text transform="matrix(1 0 0 1 114.8467 72.9432)" class="st0 st1">N</text>
</g>
<polygon points="117.4,65.2 112.9,49.9 112.5,49.7 112,49.6 116.6,65.4 117,65.3 "/>
<polygon points="112.9,49.9 127.1,35 127.1,34.4 126.5,34.4 112,49.6 112.5,49.7 "/>
<polygon points="127.7,34.4 138.8,22.8 138.5,22.5 138.2,22.2 127.1,33.8 127.1,34.4 "/>
<g>
	<text transform="matrix(1 0 0 1 139.8091 20.6595)" class="st0 st1">F</text>
</g>
<polygon points="127.1,33.8 114.8,22 114.5,22.3 114.2,22.6 126.5,34.4 127.1,34.4 "/>
<g>
	<text transform="matrix(1 0 0 1 109.8181 21.2909)" class="st0 st1">F</text>
</g>
<polygon points="127.1,35 139.5,46.9 139.8,46.6 140.1,46.2 127.7,34.4 127.1,34.4 "/>
<g>
	<text transform="matrix(1 0 0 1 140.4316 50.6444)" class="st0 st1">F</text>
</g>
<polygon points="115.1,73.6 105.2,86.4 105.4,86.9 105.9,86.9 115.8,74.1 115.5,73.8 "/>
</svg>
