<svg id="图层_1" data-name="图层 1" xmlns="http://www.w3.org/2000/svg" viewBox="0 0 200 130">
  <defs>
    <style>
      .cls-1, .cls-2 {
        isolation: isolate;
      }

      .cls-2 {
        font-size: 10.45px;
        font-family: ArialMT, Arial;
      }
    </style>
  </defs>
  <g class="cls-1">
    <text class="cls-2" transform="translate(64.47 28.52)">B</text>
  </g>
  <polygon points="68.16 29.59 67.21 47.71 66.72 47.96 66.26 47.66 67.21 29.54 67.68 29.56 68.16 29.59"/>
  <polygon points="67.21 47.71 86.64 60.32 86.61 60.87 86.12 61.12 66.69 48.51 66.72 47.96 67.21 47.71"/>
  <polygon points="66.81 50.84 83.94 61.96 83.68 62.36 83.42 62.76 66.29 51.64 66.55 51.24 66.81 50.84"/>
  <polygon points="87.07 61.16 85.83 84.84 85.38 84.54 84.92 84.24 86.12 61.12 86.61 60.87 87.07 61.16"/>
  <polygon points="85.83 84.84 64.23 95.86 64.26 95.31 64.29 94.76 84.92 84.24 85.38 84.54 85.83 84.84"/>
  <polygon points="82.83 83.17 64.64 92.45 64.43 92.03 64.21 91.61 82.4 82.33 82.62 82.75 82.83 83.17"/>
  <polygon points="64.23 95.86 44.34 82.95 44.37 82.4 44.86 82.16 64.29 94.76 64.26 95.31 64.23 95.86"/>
  <polygon points="43.91 82.11 45.15 58.43 45.61 58.73 46.06 59.03 44.86 82.16 44.37 82.4 43.91 82.11"/>
  <polygon points="46.83 80.89 47.89 60.49 48.36 60.52 48.83 60.54 47.77 80.94 47.3 80.91 46.83 80.89"/>
  <polygon points="45.15 58.43 66.26 47.66 66.72 47.96 66.69 48.51 46.06 59.03 45.61 58.73 45.15 58.43"/>
  <polygon points="44.34 82.95 28.48 91.04 28.27 90.61 28.05 90.19 43.91 82.11 44.37 82.4 44.34 82.95"/>
  <g class="cls-1">
    <text class="cls-2" transform="translate(11.64 97.41)">H</text>
    <text class="cls-2" transform="translate(19.19 97.41)">O</text>
  </g>
  <polygon points="86.64 60.32 107.75 49.55 107.73 50.1 107.7 50.65 87.07 61.16 86.61 60.87 86.64 60.32"/>
  <polygon points="107.75 49.55 127.67 62.47 127.61 63 127.15 63.27 107.7 50.65 107.73 50.1 107.75 49.55"/>
  <polygon points="107.81 52.98 125.1 64.2 124.85 64.6 124.59 65 107.3 53.78 107.56 53.38 107.81 52.98"/>
  <polygon points="127.67 62.47 149.89 53.93 149.74 54.5 149.59 55.07 128.1 63.32 127.61 63 127.67 62.47"/>
  <polygon points="147.64 55.01 152.62 36.38 153.08 36.51 153.54 36.63 148.56 55.25 148.1 55.13 147.64 55.01"/>
  <polygon points="150.39 55.74 155.37 37.12 155.83 37.24 156.29 37.36 151.3 55.99 150.84 55.87 150.39 55.74"/>
  <g class="cls-1">
    <text class="cls-2" transform="translate(151.8 35.83)">O</text>
  </g>
  <polygon points="149.89 53.93 160.76 67.35 160.39 67.64 160.02 67.94 149.59 55.07 149.74 54.5 149.89 53.93"/>
  <g class="cls-1">
    <text class="cls-2" transform="translate(160.89 77.15)">N</text>
  </g>
  <polygon points="161.64 78.45 152.29 92.86 151.76 92.8 151.55 92.25 160.84 77.93 161.24 78.19 161.64 78.45"/>
  <polygon points="151.4 93.2 133.46 88.4 133.58 87.94 133.7 87.48 151.55 92.25 151.76 92.8 151.4 93.2"/>
  <polygon points="150.37 89.98 134.19 85.65 134.32 85.19 134.44 84.73 150.62 89.06 150.5 89.52 150.37 89.98"/>
  <g class="cls-1">
    <text class="cls-2" transform="translate(125.08 90.91)">N</text>
  </g>
  <polygon points="128.11 81.43 127.15 63.27 127.61 63 128.1 63.32 129.05 81.38 128.58 81.4 128.11 81.43"/>
  <polygon points="152.29 92.86 160.7 114.76 160.26 114.93 159.82 115.1 151.4 93.2 151.76 92.8 152.29 92.86"/>
  <polygon points="169.36 72.19 188.31 71.2 188.33 71.67 188.36 72.14 169.41 73.14 169.38 72.67 169.36 72.19"/>
  <polygon points="72.17 21.61 84.72 15.21 84.93 15.63 85.15 16.05 72.61 22.45 72.39 22.03 72.17 21.61"/>
  <g class="cls-1">
    <text class="cls-2" transform="translate(85.88 17.75)">F</text>
  </g>
  <polygon points="63.26 21.81 51.95 14.47 52.21 14.07 52.47 13.68 63.78 21.02 63.52 21.41 63.26 21.81"/>
  <g class="cls-1">
    <text class="cls-2" transform="translate(44.88 15.62)">F</text>
  </g>
</svg>
