<?xml version="1.0" encoding="utf-8"?>
<!-- Generator: Adobe Illustrator 25.2.0, SVG Export Plug-In . SVG Version: 6.00 Build 0)  -->
<svg version="1.1" id="图层_1" xmlns="http://www.w3.org/2000/svg" xmlns:xlink="http://www.w3.org/1999/xlink" x="0px" y="0px"
	 viewBox="0 0 200 130" style="enable-background:new 0 0 200 130;" xml:space="preserve">
<style type="text/css">
	.st0{font-family:'ArialMT';}
	.st1{font-size:8.06px;}
</style>
<polygon points="119.1,46.1 113.1,58.5 113.4,58.6 113.7,58.8 119.8,46.4 119.5,46.2 "/>
<g>
	<text transform="matrix(1 0 0 1 108.5057 64.1152)" class="st0 st1">N</text>
</g>
<polygon points="113.3,66.9 119.6,78.8 120,78.8 120.3,78.5 113.9,66.6 113.6,66.8 "/>
<polygon points="117.1,78.2 109.1,86.4 109.4,86.7 109.6,86.9 117.6,78.7 117.3,78.5 "/>
<polygon points="119.6,78.8 110.7,88 111,88.2 111.2,88.5 120.2,79.2 120,78.8 "/>
<g>
	<text transform="matrix(1 0 0 1 104.6757 92.916)" class="st0 st1">N</text>
</g>
<polygon points="103.8,89.9 91.2,83.8 90.8,84 90.8,84.4 103.5,90.5 103.6,90.2 "/>
<polygon points="88.7,82.3 74.6,92.1 74.6,92.6 74.6,93 89.1,82.9 88.9,82.6 "/>
<polygon points="90.5,83.7 77.4,93.4 77.5,93.9 77.6,94.4 90.8,84.7 90.8,84.1 "/>
<polygon points="74.6,92.1 59.4,82.7 59,82.9 59,83.3 74.6,93 74.6,92.6 "/>
<polygon points="56.7,81.2 42.8,88.6 42.9,88.9 43.1,89.2 57.1,81.8 56.9,81.5 "/>
<polygon points="58.7,82.6 42.9,91 42.8,91.5 42.8,91.9 59,83.3 59,82.9 "/>
<polygon points="42.9,91 27.7,81.6 27.3,81.8 27.3,82.2 42.8,91.9 42.8,91.5 "/>
<polygon points="27.7,81.6 28.3,63.7 27.9,63.5 27.6,63.7 26.9,81.5 27.3,81.8 "/>
<polygon points="25.5,80.4 26,64.7 25.7,64.7 25.3,64.7 24.8,80.4 25.1,80.4 "/>
<polygon points="28.3,63.7 44.1,55.3 44.1,54.9 43.8,54.7 27.9,63.1 27.9,63.5 "/>
<polygon points="43.8,57.7 57.2,66.1 57.4,65.8 57.6,65.5 44.2,57.1 44,57.4 "/>
<polygon points="44.1,55.3 59.3,64.8 59.7,64.6 60.1,64.4 44.5,54.7 44.1,54.9 "/>
<polygon points="59.3,64.8 58.7,82.6 59,82.9 59.4,82.7 60.1,64.4 59.7,64.6 "/>
<polygon points="44.5,54.7 45,40.7 44.6,40.7 44.3,40.7 43.8,54.7 44.1,54.9 "/>
<g>
	<text transform="matrix(1 0 0 1 42.2957 37.6644)" class="st0 st1">F</text>
</g>
<polygon points="27.9,63.1 16.4,55.9 16.2,56.2 16.1,56.5 27.6,63.7 27.9,63.5 "/>
<g>
	<text transform="matrix(1 0 0 -1 3.3757 50.5345)" class="st0 st1">H</text>
	<text transform="matrix(1 0 0 -1 9.2257 50.5345)" class="st0 st1">O</text>
</g>
<polygon points="26.9,81.5 14.1,88.3 14.3,88.7 14.5,89 27.3,82.2 27.3,81.8 "/>
<g>
	<text transform="matrix(1 0 0 1 8.6157 91.3851)" class="st0 st1">F</text>
</g>
<polygon points="91.2,83.8 93.7,66.2 93.4,65.9 93,65.5 90.5,83.7 90.8,84 "/>
<polygon points="95,65.4 85.1,55.8 84.8,56.1 84.5,56.4 94.4,65.9 94.7,65.6 "/>
<polygon points="93.4,66.9 83.5,57.4 83.3,57.7 83,57.9 92.9,67.5 93.2,67.2 "/>
<g>
	<text transform="matrix(1 0 0 -1 77.0157 49.8959)" class="st0 st1">O</text>
</g>
<polygon points="93.7,66.2 107.8,63.7 107.8,63.3 107.7,63 93,65.5 93.4,65.9 "/>
<polygon points="120.2,79.2 138.4,81.8 138.2,81.4 138,81 120.3,78.5 120,78.8 "/>
<polygon points="138.4,81.8 148.1,65.8 147.8,65.6 147.5,65.4 138,81 138.2,81.4 "/>
<polygon points="140.2,83.3 149.6,67.6 149.5,67.1 149.4,66.6 139.8,82.6 140,82.9 "/>
<polygon points="149.6,67.3 167.8,69.9 167.7,69.5 167.5,69.1 149.4,66.6 149.5,67 "/>
<polygon points="166.1,69.5 171.5,82.9 171.9,82.8 172.2,82.7 166.8,69.2 166.4,69.3 "/>
<polygon points="168.1,68.6 173.6,82.1 173.9,82 174.3,81.8 168.8,68.4 168.5,68.5 "/>
<g>
	<text transform="matrix(1 0 0 -1 171.3957 83.1947)" class="st0 st1">O</text>
</g>
<polygon points="167.8,69.9 176.1,59.4 175.8,59.2 175.5,58.9 167.5,69.1 167.7,69.5 "/>
<g>
	<text transform="matrix(1 0 0 -1 175.8157 51.8255)" class="st0 st1">O</text>
</g>
<polygon points="182.8,56 197.1,58 197.1,57.6 197.2,57.3 182.9,55.3 182.8,55.6 "/>
</svg>
