<svg id="图层_1" data-name="图层 1" xmlns="http://www.w3.org/2000/svg" viewBox="0 0 200 130">
  <defs>
    <style>
      .cls-1, .cls-2 {
        isolation: isolate;
      }

      .cls-2 {
        font-size: 10.36px;
        font-family: ArialMT, Arial;
      }
    </style>
  </defs>
  <polygon points="185.76 71.01 167.04 72.69 167 72.22 166.96 71.75 185.68 70.07 185.72 70.54 185.76 71.01"/>
  <g class="cls-1">
    <text class="cls-2" transform="translate(158.58 76.84)">N</text>
  </g>
  <polygon points="159.6 78.11 150.5 93.34 150.27 92.81 150.04 92.27 158.8 77.63 159.2 77.87 159.6 78.11"/>
  <polygon points="151.6 91.13 159 108.44 158.56 108.63 158.13 108.81 150.73 91.5 151.17 91.31 151.6 91.13"/>
  <polygon points="149.01 92.23 156.41 109.55 155.97 109.74 155.54 109.92 148.14 92.6 148.57 92.42 149.01 92.23"/>
  <g class="cls-1">
    <text class="cls-2" transform="translate(155.47 118.6)">O</text>
  </g>
  <polygon points="150.5 93.34 127.5 88.09 127.37 87.58 127.81 87.19 150.04 92.27 150.27 92.81 150.5 93.34"/>
  <polygon points="127.5 88.09 109.78 103.56 109.68 103.03 109.58 102.5 126.88 87.38 127.37 87.58 127.5 88.09"/>
  <polygon points="124.74 86.75 109.36 100.19 109.05 99.84 108.74 99.48 124.13 86.05 124.44 86.4 124.74 86.75"/>
  <polygon points="109.78 103.56 87.56 95.97 87.45 95.43 87.86 95.08 109.58 102.5 109.68 103.03 109.78 103.56"/>
  <polygon points="83.91 94.47 80 74.62 80.46 74.53 80.92 74.44 84.83 94.29 84.37 94.38 83.91 94.47"/>
  <polygon points="86.94 95.26 82.51 72.74 82.92 72.39 83.32 72.03 87.86 95.08 87.45 95.43 86.94 95.26"/>
  <polygon points="82.51 72.74 60.79 65.32 60.69 64.79 61.09 64.43 83.32 72.03 82.92 72.39 82.51 72.74"/>
  <polygon points="60.79 65.32 43.51 80.42 42.99 80.24 42.89 79.71 60.17 64.61 60.69 64.79 60.79 65.32"/>
  <polygon points="57.91 64.09 42.67 77.4 42.37 77.05 42.06 76.69 57.3 63.38 57.61 63.74 57.91 64.09"/>
  <polygon points="43.51 80.42 47.94 102.93 47.53 103.29 47.02 103.12 42.59 80.6 42.99 80.24 43.51 80.42"/>
  <polygon points="50.13 100.7 69.28 107.25 69.13 107.69 68.98 108.14 49.83 101.59 49.98 101.15 50.13 100.7"/>
  <polygon points="47.94 102.93 69.65 110.35 69.76 110.89 69.86 111.42 47.63 103.82 47.53 103.29 47.94 102.93"/>
  <polygon points="69.65 110.35 86.94 95.26 87.45 95.43 87.56 95.97 69.86 111.42 69.76 110.89 69.65 110.35"/>
  <polygon points="47.63 103.82 34.25 115.51 33.94 115.16 33.63 114.81 47.02 103.12 47.53 103.29 47.63 103.82"/>
  <g class="cls-1">
    <text class="cls-2" transform="translate(26.68 122.94)">F</text>
  </g>
  <polygon points="42.59 80.6 25.58 74.79 25.73 74.34 25.89 73.9 42.89 79.71 42.99 80.24 42.59 80.6"/>
  <g class="cls-1">
    <text class="cls-2" transform="translate(9.26 76.84)">H</text>
    <text class="cls-2" transform="translate(16.74 76.84)">O</text>
  </g>
  <polygon points="60.17 64.61 56.72 47.06 57.18 46.97 57.64 46.88 61.09 64.43 60.69 64.79 60.17 64.61"/>
  <g class="cls-1">
    <text class="cls-2" transform="translate(52.99 45.94)">F</text>
  </g>
  <polygon points="126.88 87.38 125.27 69.45 125.74 69.41 126.21 69.36 127.81 87.19 127.37 87.58 126.88 87.38"/>
  <g class="cls-1">
    <text class="cls-2" transform="translate(121.53 68.38)">N</text>
  </g>
  <polygon points="129.76 61.75 146.47 54.61 146.87 54.95 146.74 55.52 130.13 62.61 129.95 62.18 129.76 61.75"/>
  <polygon points="130.87 64.34 145.91 57.92 146.09 58.35 146.28 58.78 131.24 65.21 131.06 64.77 130.87 64.34"/>
  <polygon points="146.47 54.61 151.54 32.41 152.1 32.05 152.45 32.61 147.38 54.82 146.87 54.95 146.47 54.61"/>
  <polygon points="151.75 31.49 155.68 14.27 156.14 14.38 156.6 14.48 152.66 31.7 152.1 32.05 151.75 31.49"/>
  <g class="cls-1">
    <text class="cls-2" transform="translate(154.17 13.35)">F</text>
  </g>
  <polygon points="152.66 31.7 171 35.89 170.9 36.34 170.79 36.8 152.45 32.61 152.1 32.05 152.66 31.7"/>
  <g class="cls-1">
    <text class="cls-2" transform="translate(171.84 41.48)">F</text>
  </g>
  <polygon points="151.54 32.41 133.2 28.22 133.3 27.76 133.41 27.3 151.75 31.49 152.1 32.05 151.54 32.41"/>
  <g class="cls-1">
    <text class="cls-2" transform="translate(126.04 31.02)">F</text>
  </g>
  <polygon points="147.38 54.82 158.11 67.11 157.76 67.42 157.41 67.73 146.74 55.52 146.87 54.95 147.38 54.82"/>
</svg>
