<svg id="图层_1" data-name="图层 1" xmlns="http://www.w3.org/2000/svg" viewBox="0 0 200 130">
  <defs>
    <style>
      .cls-1, .cls-2 {
        isolation: isolate;
      }

      .cls-2 {
        font-size: 9.32px;
        font-family: ArialMT, Arial;
      }
    </style>
  </defs>
  <polygon points="168.65 64.42 151.72 76.72 151.3 76.5 151.22 76.03 168.15 63.73 168.4 64.07 168.65 64.42"/>
  <polygon points="148.63 78.75 134.49 74.15 134.62 73.75 134.75 73.35 148.89 77.94 148.76 78.34 148.63 78.75"/>
  <polygon points="150.87 76.81 135.27 71.74 135.4 71.33 135.53 70.93 151.22 76.03 151.3 76.5 150.87 76.81"/>
  <g class="cls-1">
    <text class="cls-2" transform="translate(127.83 73.74)">N</text>
  </g>
  <polygon points="128.12 74.92 119.29 87.07 118.76 87.07 118.55 86.65 127.43 74.42 127.77 74.67 128.12 74.92"/>
  <polygon points="118.55 87.49 97.38 87.49 97.62 87.07 97.87 86.65 118.55 86.65 118.76 87.07 118.55 87.49"/>
  <polygon points="117.47 84.96 99.09 84.96 99.09 84.53 99.09 84.11 117.47 84.11 117.47 84.53 117.47 84.96"/>
  <polygon points="97.38 87.49 86.81 69.18 87.05 68.76 87.54 68.76 97.87 86.65 97.62 87.07 97.38 87.49"/>
  <polygon points="85.22 66.01 94.33 50.24 94.69 50.45 95.06 50.66 85.95 66.44 85.59 66.22 85.22 66.01"/>
  <polygon points="86.81 68.34 97.13 50.45 97.62 50.45 98.11 50.45 87.54 68.76 87.05 68.76 86.81 68.34"/>
  <polygon points="97.13 50.45 86.81 32.57 87.05 32.14 87.54 32.14 98.11 50.45 97.62 50.45 97.13 50.45"/>
  <polygon points="86.81 32.57 66.15 32.57 65.91 32.14 66.15 31.72 86.81 31.72 87.05 32.14 86.81 32.57"/>
  <polygon points="85.59 30.03 67.37 30.03 67.37 29.61 67.37 29.18 85.59 29.18 85.59 29.61 85.59 30.03"/>
  <polygon points="66.15 32.57 55.83 50.45 55.34 50.45 55.09 50.03 65.42 32.14 65.91 32.14 66.15 32.57"/>
  <polygon points="58.63 50.24 67.74 66.01 67.37 66.22 67.01 66.44 57.9 50.66 58.27 50.45 58.63 50.24"/>
  <polygon points="55.83 50.45 66.15 68.34 65.91 68.76 65.67 69.18 55.09 50.88 55.34 50.45 55.83 50.45"/>
  <polygon points="66.15 68.34 86.81 68.34 87.05 68.76 86.81 69.18 65.67 69.18 65.91 68.76 66.15 68.34"/>
  <polygon points="55.09 50.88 37.89 50.88 37.89 50.45 37.89 50.03 55.09 50.03 55.34 50.45 55.09 50.88"/>
  <g class="cls-1">
    <text class="cls-2" transform="translate(31.35 54.23)">F</text>
  </g>
  <polygon points="65.42 32.14 57.69 18.75 58.05 18.54 58.42 18.32 66.15 31.72 65.91 32.14 65.42 32.14"/>
  <g class="cls-1">
    <text class="cls-2" transform="translate(44.98 17.61)">H</text>
    <text class="cls-2" transform="translate(51.71 17.61)">O</text>
  </g>
  <polygon points="86.81 31.72 94.54 18.32 94.91 18.54 95.27 18.75 87.54 32.14 87.05 32.14 86.81 31.72"/>
  <g class="cls-1">
    <text class="cls-2" transform="translate(94.78 17.61)">F</text>
  </g>
  <polygon points="119.29 87.07 131.35 103.68 131.19 104.17 131.03 104.67 118.55 87.49 118.76 87.07 119.29 87.07"/>
  <polygon points="133.08 103.82 127.79 120.1 127.39 119.97 126.99 119.84 132.28 103.56 132.68 103.69 133.08 103.82"/>
  <polygon points="130.67 103.04 125.38 119.32 124.98 119.19 124.58 119.06 129.87 102.78 130.27 102.91 130.67 103.04"/>
  <g class="cls-1">
    <text class="cls-2" transform="translate(121.03 128.06)">O</text>
  </g>
  <polygon points="131.35 103.68 146.96 98.61 147.09 99.01 147.22 99.41 131.03 104.67 131.19 104.17 131.35 103.68"/>
  <g class="cls-1">
    <text class="cls-2" transform="translate(147.93 101.42)">N</text>
  </g>
  <polygon points="155.76 100.36 168.65 109.73 168.4 110.07 168.15 110.41 155.26 101.04 155.51 100.7 155.76 100.36"/>
  <polygon points="150.87 92.94 150.87 76.81 151.3 76.5 151.72 76.72 151.72 92.94 151.3 92.94 150.87 92.94"/>
</svg>
