<?xml version="1.0" encoding="utf-8"?>
<!-- Generator: Adobe Illustrator 22.1.0, SVG Export Plug-In . SVG Version: 6.00 Build 0)  -->
<svg version="1.1" id="图层_1" xmlns="http://www.w3.org/2000/svg" xmlns:xlink="http://www.w3.org/1999/xlink" x="0px" y="0px"
	 viewBox="0 0 200 130" style="enable-background:new 0 0 200 130;" xml:space="preserve">
<style type="text/css">
	.st0{font-family:'ArialMT';}
	.st1{font-size:5.4px;}
	.st2{font-size:3.32px;}
	.st3{font-size:5.45px;}
</style>
<title>Streptomycin_Simi_compound1</title>
<polygon points="113.1,90.4 113.7,90.3 113.7,90.6 113.7,90.8 113.2,90.9 113.2,90.6 "/>
<polygon points="113.2,91.7 113.9,91.6 113.9,91.9 113.9,92.1 113.2,92.2 113.2,91.9 "/>
<polygon points="113.2,93 114.1,92.9 114.1,93.2 114.2,93.4 113.3,93.5 113.2,93.3 "/>
<polygon points="113.3,94.3 114.3,94.2 114.3,94.4 114.4,94.7 113.3,94.8 113.3,94.6 "/>
<polygon points="113.3,95.6 114.6,95.5 114.6,95.7 114.6,96 113.3,96.1 113.3,95.9 "/>
<polygon points="113.3,96.9 114.8,96.8 114.8,97 114.8,97.3 113.4,97.4 113.4,97.2 "/>
<polygon points="113.4,98.2 115,98.1 115,98.3 115.1,98.5 113.4,98.7 113.4,98.5 "/>
<polygon points="113.4,99.5 115.2,99.3 115.3,99.6 115.3,99.8 113.5,100 113.5,99.8 "/>
<polygon points="113.5,100.8 115.5,100.6 115.5,100.9 115.5,101.1 113.5,101.3 113.5,101.1 "/>
<polygon points="113.5,102.1 115.7,101.9 115.7,102.2 115.7,102.4 113.6,102.6 113.6,102.4 "/>
<polygon points="113.3,90 122.2,82.1 122.5,82.2 122.6,82.3 113.6,90.5 113.4,90.3 "/>
<polygon points="122.2,82.1 117.4,71.2 117.5,71 117.7,70.9 122.6,81.8 122.5,82.2 "/>
<polygon points="117.4,71.2 105.5,72.5 105.3,72.3 105.4,72 117.5,70.7 117.5,71 "/>
<polygon points="105.5,72.5 103.6,81.5 103.4,81.5 103.1,81.4 105.1,72.3 105.3,72.3 "/>
<text transform="matrix(-1 0 0 -1 104.8896 82.0293)" class="st0 st1">O</text>
<polygon points="105.5,85.5 113.3,90 113.4,90.3 113.3,90.6 105.3,85.9 105.4,85.7 "/>
<polygon points="105.1,72.3 98.8,66.6 99.6,65.9 100.4,65.1 105.4,72 105.3,72.3 "/>
<text transform="matrix(-1 0 0 -1 99.25 60.9609)" class="st0 st1">O</text>
<polygon points="85.3,65.4 94.3,62.6 94.6,63.7 94.8,64.8 85.4,65.9 85.2,65.7 "/>
<polygon points="84.9,65.8 76.9,56.9 77,56.6 77.2,56.4 85.3,65.4 85.2,65.7 "/>
<polygon points="76.9,56.9 65.2,59.3 65,59.1 65.1,58.9 76.9,56.3 77,56.6 "/>
<polygon points="65.2,59.3 61.5,70.7 61.2,70.8 61,70.7 64.7,59.2 65,59.1 "/>
<polygon points="61.5,70.7 69.5,79.6 69.4,79.9 69.1,79.9 61.1,70.9 61.2,70.8 "/>
<polygon points="69.5,79.6 81.2,77.1 81.4,77.3 81.4,77.6 69.6,80.1 69.4,79.9 "/>
<polygon points="81.2,77.5 81.6,77.2 81.8,77.4 81.9,77.5 81.5,77.9 81.4,77.7 "/>
<polygon points="82,78.6 82.6,78.1 82.8,78.3 82.9,78.4 82.3,79 82.2,78.8 "/>
<polygon points="82.8,79.7 83.6,79 83.8,79.2 83.9,79.3 83.1,80.1 83,79.9 "/>
<polygon points="83.6,80.8 84.6,79.9 84.8,80.1 84.9,80.3 83.9,81.2 83.8,81 "/>
<polygon points="84.4,81.9 85.6,80.8 85.8,81 85.9,81.2 84.7,82.3 84.6,82.1 "/>
<polygon points="85.2,83 86.6,81.7 86.8,81.9 86.9,82.1 85.5,83.3 85.4,83.2 "/>
<polygon points="86,84.1 87.6,82.6 87.8,82.8 87.9,83 86.3,84.4 86.2,84.2 "/>
<text transform="matrix(-1 0 0 -1 95.5703 84.2402)" class="st0 st1">H</text>
<text transform="matrix(-1 0 0 -1 91.6797 84.2402)" class="st0 st1">O</text>
<polygon points="81.2,77.1 84.9,65.8 85.2,65.7 85.4,65.9 81.6,77.4 81.4,77.3 "/>
<polygon points="69.6,80.1 67.6,89.1 66.5,88.8 65.5,88.4 69.1,79.9 69.4,79.9 "/>
<text transform="matrix(-1 0 0 -1 67.7305 89.3203)" class="st0 st1">O</text>
<text transform="matrix(-1 0 0 -1 63.54 89.3203)" class="st0 st1">H</text>
<polygon points="61.2,70.5 61.3,71 61,71.1 60.8,71.1 60.7,70.6 60.9,70.6 "/>
<polygon points="59.8,70.7 60,71.4 59.8,71.5 59.5,71.5 59.3,70.8 59.6,70.7 "/>
<polygon points="58.5,70.8 58.7,71.8 58.5,71.9 58.3,71.9 58,70.9 58.3,70.9 "/>
<polygon points="57.2,71 57.5,72.2 57.2,72.3 57,72.3 56.7,71.1 57,71 "/>
<polygon points="55.9,71.2 56.2,72.6 56,72.6 55.7,72.7 55.4,71.3 55.7,71.2 "/>
<polygon points="54.6,71.3 54.9,73 54.7,73 54.5,73.1 54.1,71.4 54.3,71.4 "/>
<polygon points="53.3,71.5 53.7,73.4 53.4,73.4 53.2,73.5 52.8,71.6 53,71.5 "/>
<polygon points="52,71.6 52.4,73.8 52.2,73.8 51.9,73.8 51.5,71.7 51.7,71.7 "/>
<text transform="matrix(-1 0 0 -1 51.21 71.1191)" class="st0 st1">N</text>
<polygon points="46.6,70.7 42.4,64 42.6,63.9 42.8,63.8 47,70.5 46.8,70.6 "/>
<polygon points="47.8,69.8 41,64.5 41.1,64.2 41.4,64.1 48.1,69.4 47.9,69.6 "/>
<polygon points="41,64.5 31.6,66.5 31.5,66.2 31.5,66 40.9,64 41.1,64.2 "/>
<text transform="matrix(1 0 0 1 21.42 67.99)" class="st0 st1">N</text>
<text transform="matrix(1 0 0 1 25.32 67.99)" class="st0 st1">H</text>
<text transform="matrix(1 0 0 1 29.22 68.82)" class="st0 st2">2</text>
<polygon points="40.9,64 43.8,55.2 44,55.3 44.2,55.4 41.4,64.1 41.1,64.2 "/>
<text transform="matrix(1 0 0 1 42.87 53.81)" class="st0 st1">H</text>
<text transform="matrix(1 0 0 1 46.77 54.64)" class="st0 st2">2</text>
<text transform="matrix(1 0 0 1 48.61 53.81)" class="st0 st1">N</text>
<polygon points="64.7,59.2 58.5,53.5 59.3,52.8 60.1,52 65.1,58.9 65,59.1 "/>
<text transform="matrix(-1 0 0 1 61.9404 50.73)" class="st0 st1">O</text>
<text transform="matrix(-1 0 0 1 57.7402 50.73)" class="st0 st1">H</text>
<polygon points="77.3,56.6 76.8,56.5 76.8,56.2 76.9,56 77.4,56.2 77.3,56.4 "/>
<polygon points="77.8,55.3 77.1,55 77.2,54.8 77.2,54.6 78,54.8 77.9,55 "/>
<polygon points="78.4,53.9 77.4,53.6 77.5,53.3 77.6,53.1 78.6,53.5 78.5,53.7 "/>
<polygon points="79,52.6 77.7,52.1 77.8,51.9 77.9,51.7 79.2,52.1 79.1,52.3 "/>
<polygon points="79.6,51.2 78.1,50.7 78.1,50.5 78.2,50.2 79.8,50.7 79.7,51 "/>
<polygon points="80.2,49.8 78.4,49.3 78.5,49 78.5,48.8 80.3,49.4 80.3,49.6 "/>
<polygon points="80.8,48.5 78.7,47.8 78.8,47.6 78.9,47.3 80.9,48 80.8,48.2 "/>
<text transform="matrix(-1 0 0 -1 82.7305 42.7695)" class="st0 st1">N</text>
<polygon points="83.2,44.2 92.3,43.7 92.3,43.9 92.3,44.1 83.2,44.7 83.2,44.4 "/>
<polygon points="83.4,45.6 92.6,42.2 92.8,42.4 92.7,42.7 83.6,46.1 83.5,45.9 "/>
<polygon points="92.6,42.2 95.4,33.4 95.7,33.5 95.9,33.6 93,42.4 92.8,42.4 "/>
<text transform="matrix(1 0 0 1 94.54 32.01)" class="st0 st1">H</text>
<text transform="matrix(1 0 0 1 98.43 32.84)" class="st0 st2">2</text>
<text transform="matrix(1 0 0 1 100.28 32.01)" class="st0 st1">N</text>
<polygon points="93,42.4 98.7,48.6 98.5,48.8 98.3,49 92.7,42.7 92.8,42.4 "/>
<text transform="matrix(1 0 0 1 98.94 52.75)" class="st0 st1">H</text>
<text transform="matrix(1 0 0 1 102.84 53.58)" class="st0 st2">2</text>
<text transform="matrix(1 0 0 1 104.68 52.75)" class="st0 st1">N</text>
<polygon points="117.8,71.1 117.3,70.8 117.4,70.6 117.5,70.4 118,70.7 117.9,70.9 "/>
<polygon points="118.6,69.9 117.9,69.5 118,69.3 118.1,69.1 118.8,69.5 118.7,69.7 "/>
<polygon points="119.4,68.7 118.5,68.2 118.6,68 118.7,67.8 119.7,68.3 119.6,68.5 "/>
<polygon points="120.3,67.6 119.1,66.9 119.2,66.7 119.3,66.5 120.5,67.1 120.4,67.4 "/>
<polygon points="121.1,66.4 119.7,65.6 119.8,65.4 119.9,65.2 121.3,66 121.2,66.2 "/>
<polygon points="121.9,65.2 120.3,64.3 120.4,64.1 120.5,63.9 122.2,64.8 122,65 "/>
<polygon points="122.8,64.1 120.9,63 121,62.8 121.1,62.6 123,63.6 122.9,63.8 "/>
<text transform="matrix(-0.9713 0.2378 -0.2378 -0.9713 126.8877 58.92)" class="st0 st1">O</text>
<polygon points="137.2,58.9 128.1,62 127.9,60.9 127.6,59.9 137.1,58.4 137.3,58.6 "/>
<polygon points="137.1,58.4 140.4,47 140.7,46.9 140.9,47.1 137.5,58.6 137.3,58.6 "/>
<polygon points="140.8,46.6 152.5,43.7 152.6,44 152.5,44.3 140.9,47.1 140.7,46.9 "/>
<polygon points="152.7,43.8 161.1,52.5 161,52.8 160.8,52.9 152.5,44.3 152.6,44 "/>
<polygon points="161.2,53 157.8,64.6 157.6,64.6 157.4,64.4 160.8,52.9 161,52.8 "/>
<polygon points="157.7,64.8 148.3,67.1 148.2,66.9 148.2,66.6 157.4,64.4 157.6,64.6 "/>
<text transform="matrix(-0.9713 0.2378 -0.2378 -0.9713 147.2353 64.8623)" class="st0 st1">O</text>
<polygon points="143.4,65.4 137.2,58.9 137.3,58.6 137.5,58.6 143.7,65 143.5,65.2 "/>
<polygon points="157.4,64.8 157.8,64.4 158,64.6 158.2,64.8 157.8,65.1 157.6,65 "/>
<polygon points="158.3,65.8 158.8,65.3 158.9,65.5 159.1,65.6 158.6,66.1 158.4,66 "/>
<polygon points="159.1,66.8 159.7,66.2 159.9,66.3 160.1,66.5 159.4,67.1 159.3,67 "/>
<polygon points="159.9,67.8 160.7,67 160.9,67.2 161.1,67.4 160.3,68.1 160.1,68 "/>
<polygon points="160.8,68.8 161.7,67.9 161.8,68.1 162,68.3 161.1,69.1 160.9,69 "/>
<polygon points="161.6,69.8 162.6,68.8 162.8,69 163,69.2 161.9,70.2 161.8,70 "/>
<polygon points="162.4,70.8 163.6,69.7 163.8,69.9 164,70 162.8,71.2 162.6,71 "/>
<polygon points="163.3,71.8 164.6,70.6 164.7,70.7 164.9,70.9 163.6,72.2 163.4,72 "/>
<polygon points="164.1,72.8 165.5,71.4 165.7,71.6 165.9,71.8 164.4,73.2 164.3,73 "/>
<polygon points="164.9,73.8 166.5,72.3 166.7,72.5 166.8,72.7 165.3,74.2 165.1,74 "/>
<polygon points="166.4,73.1 175.4,70.9 175.4,71.1 175.5,71.4 165.7,73.8 166.1,73.4 "/>
<polygon points="161.1,52.5 170.1,49.5 170.4,50.5 170.7,51.6 161.2,53 161,52.8 "/>
<polygon points="152.8,44 152.3,43.9 152.4,43.6 152.5,43.4 153,43.6 152.9,43.8 "/>
<polygon points="153.4,42.7 152.6,42.5 152.7,42.2 152.7,42 153.5,42.2 153.4,42.5 "/>
<polygon points="153.9,41.4 152.9,41 152.9,40.8 153,40.6 154,40.9 154,41.1 "/>
<polygon points="154.4,40 153.1,39.6 153.2,39.4 153.3,39.2 154.6,39.6 154.5,39.8 "/>
<polygon points="155,38.7 153.4,38.2 153.5,38 153.5,37.8 155.1,38.2 155,38.5 "/>
<polygon points="155.5,37.4 153.7,36.8 153.7,36.6 153.8,36.4 155.6,36.9 155.6,37.1 "/>
<polygon points="156,36 153.9,35.4 154,35.2 154.1,35 156.1,35.6 156.1,35.8 "/>
<polygon points="140.4,47 133.6,41.1 134.4,40.3 135.2,39.6 140.8,46.6 140.7,46.9 "/>
<text transform="matrix(0.9713 -0.2378 0.2378 0.9713 129.6233 39.3986)" class="st0 st1">N</text>
<text transform="matrix(0.9713 -0.2378 0.2378 0.9713 133.4016 38.4733)" class="st0 st1">H</text>
<polygon points="132.9,35 135.4,26.2 135.7,26.3 135.9,26.4 133.3,35.1 133.1,35 "/>
<polygon points="122.6,81.8 133.1,75.8 133.1,76 133.1,76.3 122.6,82.4 122.5,82.2 "/>
<polygon points="133.1,75.8 141.2,80.4 141.1,80.7 141,80.9 133.1,76.3 133.1,76 "/>
<polygon points="133.2,77.5 140.5,81.7 140.4,81.9 140.2,82.2 133,77.9 133.1,77.7 "/>
<text transform="matrix(-1 0 0 -1 145.7803 79.9805)" class="st0 st1">O</text>
<polygon points="122.3,82.3 122.7,82 122.9,82.2 123,82.4 122.6,82.7 122.4,82.5 "/>
<polygon points="123,83.6 123.7,83.1 123.8,83.3 123.9,83.5 123.3,83.9 123.1,83.8 "/>
<polygon points="123.7,84.8 124.6,84.1 124.7,84.3 124.9,84.5 124,85.2 123.8,84.9 "/>
<polygon points="124.4,86 125.5,85.2 125.7,85.4 125.8,85.6 124.7,86.4 124.6,86.2 "/>
<polygon points="125.1,87.2 126.4,86.2 126.6,86.4 126.7,86.6 125.4,87.6 125.3,87.4 "/>
<polygon points="125.8,88.4 127.3,87.3 127.5,87.5 127.6,87.7 126.1,88.8 126,88.6 "/>
<polygon points="126.5,89.6 128.3,88.3 128.4,88.5 128.6,88.7 126.8,90 126.7,89.8 "/>
<text transform="matrix(-1 0 0 -1 135.6602 89.8691)" class="st0 st1">H</text>
<text transform="matrix(-1 0 0 -1 131.7695 89.8691)" class="st0 st1">O</text>
<g>
	<text transform="matrix(1 0 0 1 152.48 34.02)" class="st0 st3">O</text>
	<text transform="matrix(1 0 0 1 156.72 34.02)" class="st0 st3">H</text>
</g>
<g>
	<text transform="matrix(1 0 0 1 171.98 52.77)" class="st0 st3">O</text>
	<text transform="matrix(1 0 0 1 176.22 52.77)" class="st0 st3">H</text>
</g>
<g>
	<text transform="matrix(1 0 0 1 175.98 71.77)" class="st0 st3">O</text>
	<text transform="matrix(1 0 0 1 180.22 71.77)" class="st0 st3">H</text>
</g>
</svg>
