<?xml version="1.0" encoding="utf-8"?>
<!-- Generator: Adobe Illustrator 22.1.0, SVG Export Plug-In . SVG Version: 6.00 Build 0)  -->
<svg version="1.1" id="图层_1" xmlns="http://www.w3.org/2000/svg" xmlns:xlink="http://www.w3.org/1999/xlink" x="0px" y="0px"
	 viewBox="0 0 200 130" style="enable-background:new 0 0 200 130;" xml:space="preserve">
<style type="text/css">
	.st0{font-family:'ArialMT';}
	.st1{font-size:5.45px;}
	.st2{font-size:3.35px;}
</style>
<title>Streptomycin_Simi_compound4</title>
<g>
	<polygon points="118.1,89.4 123.7,100.3 122.7,100.7 121.6,101.2 117.6,89.6 117.8,89.4 	"/>
	<polygon points="117.7,89.1 123.8,78.8 124.1,78.7 124.3,78.9 118.1,89.4 117.8,89.4 	"/>
	<polygon points="123.8,78.8 115.9,69.8 115.9,69.5 116.2,69.4 124.1,78.4 124.1,78.7 	"/>
	<polygon points="115.9,69.8 104.9,74.5 104.6,74.3 104.6,74.1 115.7,69.3 115.9,69.5 	"/>
	<polygon points="104.9,74.5 105.7,83.9 105.5,83.9 105.2,83.9 104.4,74.5 104.6,74.3 	"/>
	<g>
		<text transform="matrix(1 0 0 1 103.6017 88.8551)" class="st0 st1">O</text>
	</g>
	<polygon points="108.4,87 117.7,89.1 117.8,89.4 117.6,89.6 108.3,87.5 108.3,87.2 	"/>
	<polygon points="104.4,74.5 96,70.5 96.6,69.6 97.2,68.6 104.6,74.1 104.6,74.3 	"/>
	<g>
		<text transform="matrix(1 0 0 1 91.8517 70.2351)" class="st0 st1">O</text>
	</g>
	<polygon points="83.2,73.8 90.8,68.5 91.4,69.5 91.9,70.5 83.4,74.2 83.2,74.1 	"/>
	<polygon points="82.9,74.2 72.6,68 72.6,67.8 72.8,67.6 83.2,73.8 83.2,74.1 	"/>
	<polygon points="72.6,68 62,73.9 61.8,73.8 61.8,73.5 72.3,67.6 72.6,67.8 	"/>
	<polygon points="62,73.9 61.9,86 61.6,86.2 61.4,86 61.5,74 61.8,73.8 	"/>
	<polygon points="61.9,86 72.3,92.2 72.3,92.5 72,92.6 61.6,86.4 61.6,86.2 	"/>
	<polygon points="72.3,92.2 82.8,86.3 83,86.4 83,86.7 72.5,92.6 72.3,92.5 	"/>
	<polygon points="83.3,86.3 91.6,90.2 91,91.2 90.5,92.1 83,86.7 83,86.4 	"/>
	<g>
		<text transform="matrix(1 0 0 1 91.5317 94.9451)" class="st0 st1">O</text>
		<text transform="matrix(1 0 0 1 95.7717 94.9451)" class="st0 st1">H</text>
	</g>
	<polygon points="82.8,86.3 82.9,74.2 83.2,74.1 83.4,74.2 83.3,86.3 83,86.4 	"/>
	<polygon points="72.5,92.6 73.2,102.1 72.1,102.1 71,102.1 72,92.6 72.3,92.5 	"/>
	<g>
		<text transform="matrix(1 0 0 1 69.9717 107.035)" class="st0 st1">O</text>
		<text transform="matrix(1 0 0 1 74.2117 107.035)" class="st0 st1">H</text>
	</g>
	<polygon points="61.6,86.4 53.9,91.8 53.3,90.8 52.8,89.8 61.4,86 61.6,86.2 	"/>
	<g>
		<text transform="matrix(1 0 0 1 48.8817 94.4051)" class="st0 st1">N</text>
	</g>
	<polygon points="48.2,90.9 41.4,85.3 41.6,85.1 41.8,84.9 48.5,90.5 48.4,90.7 	"/>
	<polygon points="49.1,89.7 40.2,86.2 40.2,85.9 40.5,85.7 49.2,89.2 49.1,89.5 	"/>
	<polygon points="40.2,86.2 32,90.8 31.9,90.5 31.8,90.3 40,85.7 40.2,85.9 	"/>
	<g>
		<text transform="matrix(1 0 0 1 21.7317 93.4351)" class="st0 st1">H</text>
		<text transform="matrix(1 0 0 1 25.6617 94.2651)" class="st0 st2">2</text>
		<text transform="matrix(1 0 0 1 27.5317 93.4351)" class="st0 st1">N</text>
	</g>
	<polygon points="40,85.7 40.1,76.3 40.4,76.3 40.6,76.3 40.5,85.7 40.2,85.9 	"/>
	<g>
		<text transform="matrix(1 0 0 1 38.4217 75.035)" class="st0 st1">N</text>
		<text transform="matrix(1 0 0 1 42.3517 75.035)" class="st0 st1">H</text>
		<text transform="matrix(1 0 0 1 46.2917 75.8751)" class="st0 st2">2</text>
	</g>
	<polygon points="61.5,74 53.2,70 53.8,69 54.3,68.1 61.8,73.5 61.8,73.8 	"/>
	<g>
		<text transform="matrix(1 0 0 1 45.1117 69.6951)" class="st0 st1">H</text>
		<text transform="matrix(1 0 0 1 49.0417 69.6951)" class="st0 st1">O</text>
	</g>
	<polygon points="72.3,67.6 71.6,58.1 72.7,58.2 73.8,58.2 72.8,67.6 72.6,67.8 	"/>
	<g>
		<text transform="matrix(1 0 0 1 70.7517 57.6051)" class="st0 st1">N</text>
	</g>
	<polygon points="75.1,53.8 83.4,50.7 83.5,50.9 83.6,51.2 75.3,54.3 75.2,54 	"/>
	<polygon points="75.8,55.1 83.3,49.2 83.5,49.4 83.5,49.7 76.1,55.5 75.9,55.3 	"/>
	<polygon points="83.3,49.2 83.4,39.7 83.6,39.8 83.9,39.8 83.8,49.2 83.5,49.4 	"/>
	<g>
		<text transform="matrix(1 0 0 1 81.6917 38.5051)" class="st0 st1">N</text>
		<text transform="matrix(1 0 0 1 85.6217 38.5051)" class="st0 st1">H</text>
		<text transform="matrix(1 0 0 1 89.5617 39.345)" class="st0 st2">2</text>
	</g>
	<polygon points="83.8,49.2 91.8,54 91.7,54.2 91.5,54.4 83.5,49.7 83.5,49.4 	"/>
	<g>
		<text transform="matrix(1 0 0 1 92.1517 57.1751)" class="st0 st1">N</text>
		<text transform="matrix(1 0 0 1 96.0917 57.1751)" class="st0 st1">H</text>
		<text transform="matrix(1 0 0 1 100.0217 58.0151)" class="st0 st2">2</text>
	</g>
	<polygon points="115.7,69.3 117,59.9 118,60.2 119.1,60.4 116.2,69.4 115.9,69.5 	"/>
	<g>
		<text transform="matrix(1 0 0 1 116.5417 59.6151)" class="st0 st1">O</text>
	</g>
	<polygon points="130.4,53.5 130.5,54 130.3,54.1 130,54.2 129.9,53.6 130.1,53.6 	"/>
	<polygon points="129.1,53.8 129.3,54.5 129.1,54.6 128.8,54.7 128.6,53.9 128.8,53.8 	"/>
	<polygon points="127.8,54 128.1,55 127.9,55.1 127.6,55.2 127.3,54.2 127.6,54.1 	"/>
	<polygon points="126.5,54.3 126.9,55.5 126.7,55.6 126.4,55.6 126.1,54.5 126.3,54.4 	"/>
	<polygon points="125.3,54.6 125.7,56 125.5,56.1 125.2,56.1 124.8,54.7 125,54.7 	"/>
	<polygon points="124,54.9 124.5,56.5 124.2,56.6 124,56.6 123.5,55 123.7,54.9 	"/>
	<polygon points="122.7,55.1 123.3,57 123,57.1 122.8,57.1 122.2,55.3 122.5,55.2 	"/>
	<polygon points="121.4,55.4 122.1,57.5 121.8,57.6 121.6,57.6 121,55.6 121.2,55.5 	"/>
	<polygon points="130.2,53.7 132.9,41.6 133.2,41.7 133.4,41.9 130.7,53.7 130.5,53.7 	"/>
	<polygon points="133.1,41.4 144.9,37.8 145,38 144.9,38.3 133.4,41.9 133.2,41.7 	"/>
	<polygon points="145.2,37.8 154.2,46.2 154.1,46.4 153.8,46.5 144.9,38.3 145,38 	"/>
	<polygon points="154.3,46.5 151.6,58.5 151.3,58.5 151.1,58.3 153.8,46.5 154.1,46.4 	"/>
	<polygon points="151.4,58.7 142.2,61.5 142.2,61.3 142.1,61.1 151.1,58.3 151.3,58.5 	"/>
	<g>
		<text transform="matrix(1 0 0 1 137.4217 64.3351)" class="st0 st1">O</text>
	</g>
	<polygon points="136.8,59.9 130.3,53.9 130.5,53.7 130.7,53.7 137.1,59.5 136.9,59.7 	"/>
	<polygon points="151.2,58.7 151.5,58.3 151.7,58.4 151.9,58.6 151.5,59 151.4,58.8 	"/>
	<polygon points="152.1,59.6 152.6,59.1 152.8,59.3 152.9,59.4 152.5,60 152.3,59.8 	"/>
	<polygon points="153,60.6 153.6,59.9 153.8,60.1 154,60.3 153.4,60.9 153.2,60.8 	"/>
	<polygon points="153.9,61.6 154.6,60.8 154.8,60.9 155,61.1 154.3,61.9 154.1,61.7 	"/>
	<polygon points="154.8,62.5 155.7,61.6 155.8,61.7 156,61.9 155.2,62.8 155,62.7 	"/>
	<polygon points="155.7,63.5 156.7,62.4 156.9,62.6 157,62.7 156.1,63.8 155.9,63.6 	"/>
	<polygon points="156.6,64.4 157.7,63.2 157.9,63.4 158.1,63.6 157,64.8 156.8,64.6 	"/>
	<polygon points="157.5,65.4 158.7,64.1 158.9,64.2 159.1,64.4 157.9,65.7 157.7,65.6 	"/>
	<polygon points="158.4,66.3 159.8,64.9 160,65 160.1,65.2 158.8,66.7 158.6,66.5 	"/>
	<polygon points="159.3,67.3 160.8,65.7 161,65.9 161.2,66 159.7,67.6 159.5,67.5 	"/>
	<polygon points="160.8,66.5 169.5,63.7 169.6,64 169.7,64.2 160.1,67.2 160.4,66.8 	"/>
	<g>
		<text transform="matrix(1 0 0 1 170.1017 65.3751)" class="st0 st1">O</text>
		<text transform="matrix(1 0 0 1 174.3317 65.3751)" class="st0 st1">H</text>
	</g>
	<polygon points="154.2,46.7 154,46.1 154.3,46.1 154.5,46 154.7,46.5 154.4,46.6 	"/>
	<polygon points="155.5,46.4 155.2,45.6 155.5,45.6 155.7,45.5 155.9,46.2 155.7,46.3 	"/>
	<polygon points="156.7,46.1 156.4,45.1 156.7,45.1 156.9,45 157.2,46 157,46 	"/>
	<polygon points="158,45.8 157.6,44.6 157.9,44.6 158.1,44.5 158.5,45.7 158.2,45.8 	"/>
	<polygon points="159.3,45.6 158.8,44.1 159.1,44.1 159.3,44 159.8,45.4 159.5,45.5 	"/>
	<polygon points="160.6,45.3 160,43.6 160.3,43.6 160.5,43.5 161,45.1 160.8,45.2 	"/>
	<polygon points="161.8,45 161.3,43.1 161.5,43.1 161.7,43 162.3,44.9 162.1,44.9 	"/>
	<polygon points="163.1,44.7 162.5,42.7 162.7,42.6 162.9,42.5 163.6,44.6 163.3,44.7 	"/>
	<g>
		<text transform="matrix(1 0 0 1 163.7417 44.9451)" class="st0 st1">O</text>
		<text transform="matrix(1 0 0 1 167.9817 44.9451)" class="st0 st1">H</text>
	</g>
	<polygon points="145.3,38 144.7,37.9 144.8,37.7 144.8,37.4 145.4,37.6 145.3,37.8 	"/>
	<polygon points="145.7,36.6 144.9,36.4 145,36.2 145,35.9 145.8,36.1 145.8,36.4 	"/>
	<polygon points="146.2,35.2 145.1,34.9 145.2,34.7 145.2,34.4 146.3,34.7 146.2,34.9 	"/>
	<polygon points="146.7,33.7 145.3,33.4 145.4,33.2 145.4,33 146.8,33.3 146.7,33.5 	"/>
	<polygon points="147.1,32.3 145.5,31.9 145.6,31.7 145.6,31.5 147.2,31.8 147.2,32.1 	"/>
	<polygon points="147.6,30.9 145.7,30.4 145.8,30.2 145.8,30 147.7,30.4 147.6,30.6 	"/>
	<polygon points="148,29.4 145.9,29 146,28.7 146,28.5 148.2,29 148.1,29.2 	"/>
	<g>
		<text transform="matrix(1 0 0 1 145.5917 28.1651)" class="st0 st1">O</text>
		<text transform="matrix(1 0 0 1 149.8217 28.1651)" class="st0 st1">H</text>
	</g>
	<polygon points="133.3,41.5 133,41.9 132.8,41.7 132.6,41.5 133,41.1 133.2,41.3 	"/>
	<polygon points="132.4,40.4 131.8,41 131.7,40.8 131.5,40.7 132,40.1 132.2,40.2 	"/>
	<polygon points="131.5,39.3 130.7,40.1 130.5,40 130.4,39.8 131.1,39 131.3,39.2 	"/>
	<polygon points="130.5,38.3 129.6,39.3 129.4,39.1 129.2,38.9 130.1,37.9 130.3,38.1 	"/>
	<polygon points="129.6,37.2 128.5,38.4 128.3,38.3 128.1,38.1 129.2,36.9 129.4,37.1 	"/>
	<polygon points="128.6,36.2 127.3,37.6 127.1,37.4 127,37.2 128.3,35.8 128.4,36 	"/>
	<polygon points="127.7,35.1 126.2,36.7 126,36.5 125.8,36.4 127.3,34.8 127.5,34.9 	"/>
	<g>
		<text transform="matrix(1 0 0 1 118.2017 35.5051)" class="st0 st1">H</text>
		<text transform="matrix(1 0 0 1 122.1417 35.5051)" class="st0 st1">N</text>
	</g>
	<polygon points="124.5,30.5 126.6,21.2 126.8,21.2 127.1,21.3 125,30.6 124.7,30.6 	"/>
	<polygon points="124.1,78.4 132.4,69.4 132.5,69.7 132.6,69.9 124.3,78.9 124.1,78.7 	"/>
	<polygon points="132.4,69.4 142,71.6 141.9,71.8 141.9,72 132.6,69.9 132.5,69.7 	"/>
	<polygon points="133,71.1 141.6,73 141.6,73.3 141.5,73.5 132.9,71.5 133,71.3 	"/>
	<g>
		<text transform="matrix(1 0 0 1 142.4117 74.6051)" class="st0 st1">O</text>
	</g>
	<polygon points="124,79 124.3,78.6 124.5,78.7 124.7,78.8 124.4,79.3 124.2,79.1 	"/>
	<polygon points="125,80 125.5,79.3 125.7,79.4 125.9,79.6 125.4,80.3 125.2,80.1 	"/>
	<polygon points="126.1,80.9 126.7,80 126.9,80.2 127.1,80.3 126.5,81.2 126.3,81.1 	"/>
	<polygon points="127.2,81.9 128,80.8 128.2,80.9 128.4,81.1 127.5,82.2 127.3,82 	"/>
	<polygon points="128.2,82.8 129.2,81.5 129.4,81.7 129.6,81.8 128.6,83.1 128.4,83 	"/>
	<polygon points="129.3,83.8 130.4,82.3 130.6,82.4 130.8,82.6 129.7,84.1 129.5,84 	"/>
	<polygon points="130.3,84.8 131.6,83 131.8,83.2 132,83.3 130.7,85.1 130.5,84.9 	"/>
	<g>
		<text transform="matrix(1 0 0 1 131.8717 88.345)" class="st0 st1">O</text>
		<text transform="matrix(1 0 0 1 136.1117 88.345)" class="st0 st1">H</text>
	</g>
</g>
</svg>
