<?xml version="1.0" encoding="utf-8"?>
<!-- Generator: Adobe Illustrator 22.1.0, SVG Export Plug-In . SVG Version: 6.00 Build 0)  -->
<svg version="1.1" id="图层_1" xmlns="http://www.w3.org/2000/svg" xmlns:xlink="http://www.w3.org/1999/xlink" x="0px" y="0px"
	 viewBox="0 0 200 130" style="enable-background:new 0 0 200 130;" xml:space="preserve">
<style type="text/css">
	.st0{font-family:'ArialMT';}
	.st1{font-size:5.44px;}
	.st2{font-size:3.34px;}
</style>
<title>Streptomycin_Simi_compound7</title>
<g>
	<polygon points="117.3,90.4 122.2,101.6 121.1,102 120.1,102.4 116.8,90.6 117,90.4 	"/>
	<polygon points="116.9,90.1 123.6,80.2 123.9,80.2 124.1,80.3 117.3,90.4 117,90.4 	"/>
	<polygon points="123.6,80.2 116.3,70.7 116.4,70.5 116.6,70.4 123.9,79.8 123.9,80.2 	"/>
	<polygon points="116.3,70.7 105,74.8 104.8,74.6 104.8,74.3 116.1,70.3 116.4,70.5 	"/>
	<polygon points="105,74.8 105.3,84.2 105.1,84.2 104.8,84.2 104.5,74.8 104.8,74.6 	"/>
	<g>
		<text transform="matrix(1 0 0 1 103.0256 89.1419)" class="st0 st1">O</text>
	</g>
	<polygon points="107.8,87.5 116.9,90.1 117,90.4 116.8,90.6 107.7,87.9 107.8,87.7 	"/>
	<polygon points="104.5,74.8 96.6,70.4 97.2,69.5 97.8,68.5 104.8,74.3 104.8,74.6 	"/>
	<g>
		<text transform="matrix(1 0 0 1 92.4556 69.8919)" class="st0 st1">O</text>
	</g>
	<polygon points="83.6,73.3 83.4,72.8 83.6,72.7 83.8,72.6 84.1,73.1 83.8,73.2 	"/>
	<polygon points="85,72.8 84.7,72 84.9,71.9 85.1,71.8 85.5,72.5 85.2,72.7 	"/>
	<polygon points="86.4,72.2 85.9,71.3 86.2,71.1 86.4,71 86.9,72 86.6,72.1 	"/>
	<polygon points="87.8,71.7 87.2,70.5 87.4,70.4 87.7,70.3 88.3,71.5 88,71.6 	"/>
	<polygon points="89.2,71.2 88.5,69.7 88.7,69.6 88.9,69.5 89.6,71 89.4,71.1 	"/>
	<polygon points="90.6,70.7 89.8,69 90,68.8 90.2,68.7 91,70.5 90.8,70.6 	"/>
	<polygon points="92,70.1 91,68.2 91.3,68.1 91.5,68 92.4,69.9 92.2,70 	"/>
	<polygon points="83.2,73.2 73.3,66.4 73.3,66.1 73.4,65.9 83.6,72.8 83.5,73.1 	"/>
	<polygon points="73.3,66.4 62.4,71.6 62.2,71.5 62.1,71.3 73.2,65.9 73.3,66.1 	"/>
	<polygon points="62.4,71.6 61.5,83.6 61.3,83.8 61,83.8 61.9,71.5 62.2,71.5 	"/>
	<polygon points="61.5,83.6 71.5,90.4 71.5,90.7 71.3,90.9 61.1,84 61.3,83.8 	"/>
	<polygon points="71.5,90.4 82.3,85.2 82.6,85.3 82.7,85.6 71.6,90.9 71.5,90.7 	"/>
	<polygon points="82.4,85.6 82.8,85.1 83,85.3 83.2,85.4 82.9,85.9 82.6,85.7 	"/>
	<polygon points="83.6,86.5 84,85.8 84.2,86 84.4,86.1 84,86.8 83.8,86.7 	"/>
	<polygon points="84.7,87.4 85.3,86.5 85.5,86.7 85.7,86.8 85.1,87.7 84.9,87.6 	"/>
	<polygon points="85.8,88.4 86.6,87.2 86.8,87.4 87,87.5 86.2,88.6 86,88.5 	"/>
	<polygon points="86.9,89.3 87.8,87.9 88,88.1 88.2,88.2 87.3,89.6 87.1,89.4 	"/>
	<polygon points="88,90.2 89.1,88.6 89.3,88.8 89.5,88.9 88.4,90.5 88.2,90.3 	"/>
	<polygon points="89.1,91.1 90.4,89.3 90.6,89.5 90.8,89.6 89.5,91.4 89.3,91.3 	"/>
	<g>
		<text transform="matrix(1 0 0 1 90.6456 94.4718)" class="st0 st1">O</text>
		<text transform="matrix(1 0 0 1 94.8656 94.4718)" class="st0 st1">H</text>
	</g>
	<polygon points="82.3,85.2 83.2,73.2 83.5,73.1 83.7,73.1 82.8,85.4 82.6,85.3 	"/>
	<polygon points="71.2,90.7 71.7,90.8 71.7,91 71.7,91.3 71.2,91.2 71.2,91 	"/>
	<polygon points="70.9,92.2 71.8,92.3 71.7,92.5 71.7,92.8 70.9,92.7 70.9,92.5 	"/>
	<polygon points="70.7,93.7 71.8,93.8 71.8,94 71.7,94.3 70.7,94.2 70.7,94 	"/>
	<polygon points="70.5,95.2 71.8,95.3 71.8,95.5 71.8,95.8 70.4,95.7 70.4,95.4 	"/>
	<polygon points="70.2,96.7 71.8,96.8 71.8,97.1 71.8,97.3 70.2,97.2 70.2,96.9 	"/>
	<polygon points="70,98.2 71.9,98.3 71.8,98.6 71.8,98.8 69.9,98.7 69.9,98.4 	"/>
	<polygon points="69.7,99.7 71.9,99.8 71.9,100.1 71.8,100.3 69.7,100.2 69.7,99.9 	"/>
	<g>
		<text transform="matrix(1 0 0 1 64.5256 105.1918)" class="st0 st1">H</text>
		<text transform="matrix(1 0 0 1 68.4456 105.1918)" class="st0 st1">O</text>
	</g>
	<polygon points="61.1,83.5 61.4,84 61.1,84.1 60.9,84.2 60.7,83.8 60.9,83.7 	"/>
	<polygon points="59.9,84 60.2,84.7 60,84.8 59.8,84.9 59.5,84.2 59.7,84.1 	"/>
	<polygon points="58.7,84.5 59.1,85.4 58.9,85.5 58.7,85.6 58.2,84.7 58.5,84.6 	"/>
	<polygon points="57.5,84.9 58,86 57.8,86.1 57.6,86.3 57,85.1 57.2,85 	"/>
	<polygon points="56.3,85.4 56.9,86.7 56.7,86.8 56.5,86.9 55.8,85.6 56,85.5 	"/>
	<polygon points="55,85.8 55.8,87.4 55.6,87.5 55.3,87.6 54.6,86.1 54.8,85.9 	"/>
	<polygon points="53.8,86.3 54.7,88 54.4,88.2 54.2,88.3 53.4,86.5 53.6,86.4 	"/>
	<polygon points="52.6,86.8 53.5,88.7 53.3,88.8 53.1,88.9 52.2,87 52.4,86.9 	"/>
	<g>
		<text transform="matrix(1 0 0 1 48.2156 91.3319)" class="st0 st1">N</text>
	</g>
	<polygon points="47.6,87.6 41.2,81.7 41.4,81.5 41.6,81.3 47.9,87.3 47.7,87.5 	"/>
	<polygon points="48.4,86.5 40,82.5 40,82.2 40.2,82 48.7,86 48.6,86.2 	"/>
	<polygon points="40,82.5 31.4,86.6 31.3,86.4 31.2,86.2 39.7,82 40,82.2 	"/>
	<g>
		<text transform="matrix(1 0 0 1 21.1856 89.0618)" class="st0 st1">H</text>
		<text transform="matrix(1 0 0 1 25.1156 89.8919)" class="st0 st2">2</text>
		<text transform="matrix(1 0 0 1 26.9756 89.0618)" class="st0 st1">N</text>
	</g>
	<polygon points="39.7,82 40.4,72.6 40.7,72.7 40.9,72.7 40.2,82 40,82.2 	"/>
	<g>
		<text transform="matrix(1 0 0 1 38.9256 71.4019)" class="st0 st1">N</text>
		<text transform="matrix(1 0 0 1 42.8556 71.4019)" class="st0 st1">H</text>
		<text transform="matrix(1 0 0 1 46.7756 72.2419)" class="st0 st2">2</text>
	</g>
	<polygon points="62.3,71.2 62,71.7 61.8,71.5 61.6,71.4 61.9,71 62.1,71.1 	"/>
	<polygon points="61.2,70.3 60.7,71 60.5,70.8 60.3,70.7 60.8,70 61,70.2 	"/>
	<polygon points="60.1,69.4 59.5,70.3 59.3,70.1 59.1,70 59.7,69.1 59.9,69.2 	"/>
	<polygon points="59,68.5 58.2,69.6 58,69.5 57.8,69.3 58.6,68.2 58.8,68.3 	"/>
	<polygon points="57.8,67.5 56.9,68.9 56.7,68.8 56.5,68.6 57.4,67.3 57.6,67.4 	"/>
	<polygon points="56.7,66.6 55.7,68.2 55.5,68.1 55.3,67.9 56.3,66.3 56.5,66.5 	"/>
	<polygon points="55.6,65.7 54.4,67.5 54.2,67.4 54,67.2 55.2,65.4 55.4,65.6 	"/>
	<g>
		<text transform="matrix(1 0 0 1 45.9556 66.7419)" class="st0 st1">H</text>
		<text transform="matrix(1 0 0 1 49.8755 66.7419)" class="st0 st1">O</text>
	</g>
	<polygon points="73.6,66.1 73,66.1 73,65.8 73,65.6 73.6,65.6 73.6,65.9 	"/>
	<polygon points="73.8,64.6 73,64.5 73,64.3 73,64.1 73.8,64.1 73.8,64.4 	"/>
	<polygon points="74,63.1 73,63 73,62.8 73,62.5 74.1,62.6 74.1,62.9 	"/>
	<polygon points="74.3,61.6 72.9,61.5 73,61.3 73,61 74.3,61.1 74.3,61.4 	"/>
	<polygon points="74.5,60.1 72.9,60 72.9,59.8 73,59.5 74.6,59.6 74.6,59.9 	"/>
	<polygon points="74.8,58.6 72.9,58.5 72.9,58.2 72.9,58 74.8,58.1 74.8,58.4 	"/>
	<polygon points="75,57.1 72.9,57 72.9,56.7 72.9,56.5 75.1,56.6 75.1,56.9 	"/>
	<g>
		<text transform="matrix(1 0 0 1 72.2256 56.0219)" class="st0 st1">N</text>
	</g>
	<polygon points="76.6,52.4 85.1,49.8 85.2,50 85.2,50.3 76.7,52.9 76.6,52.6 	"/>
	<polygon points="77.1,53.8 85,48.3 85.3,48.5 85.3,48.8 77.4,54.2 77.3,54 	"/>
	<polygon points="85,48.3 85.7,38.9 86,38.9 86.2,38.9 85.5,48.3 85.3,48.5 	"/>
	<g>
		<text transform="matrix(1 0 0 1 84.2356 37.6719)" class="st0 st1">N</text>
		<text transform="matrix(1 0 0 1 88.1556 37.6719)" class="st0 st1">H</text>
		<text transform="matrix(1 0 0 1 92.0856 38.5119)" class="st0 st2">2</text>
	</g>
	<polygon points="85.5,48.3 93.2,53.5 93,53.7 92.9,53.9 85.3,48.8 85.3,48.5 	"/>
	<g>
		<text transform="matrix(1 0 0 1 93.5156 56.8919)" class="st0 st1">N</text>
		<text transform="matrix(1 0 0 1 97.4456 56.8919)" class="st0 st1">H</text>
		<text transform="matrix(1 0 0 1 101.3656 57.7319)" class="st0 st2">2</text>
	</g>
	<polygon points="116.1,70.3 117.9,61 119,61.4 120.1,61.7 116.6,70.4 116.4,70.5 	"/>
	<g>
		<text transform="matrix(1 0 0 1 117.6956 60.8118)" class="st0 st1">O</text>
	</g>
	<polygon points="131.7,56 122.7,59.1 122.4,58 122.1,56.9 131.6,55.5 131.8,55.7 	"/>
	<polygon points="131.6,55.5 134.9,43.9 135.2,43.8 135.4,44.1 132.1,55.6 131.8,55.7 	"/>
	<polygon points="135.3,43.6 147,40.7 147.2,40.9 147.1,41.2 135.4,44.1 135.2,43.8 	"/>
	<polygon points="147.5,40.9 155.9,49.6 155.7,49.8 155.4,49.9 147.1,41.2 147.2,40.9 	"/>
	<polygon points="156,49.9 152.6,61.6 152.3,61.6 152.1,61.4 155.4,49.9 155.7,49.8 	"/>
	<polygon points="152.2,61.9 143,64.2 142.9,63.9 142.9,63.7 152.1,61.4 152.3,61.6 	"/>
	<g>
		<text transform="matrix(1 0 0 1 138.1855 66.7818)" class="st0 st1">O</text>
	</g>
	<polygon points="137.5,62 131.7,56 131.8,55.7 132.1,55.6 137.9,61.7 137.7,61.9 	"/>
	<polygon points="152.6,61.6 161.9,70 160.8,70.5 159.8,71 152.2,61.9 152.3,61.6 	"/>
	<polygon points="161.9,70 170.1,68 170.2,68.2 170.2,68.5 159.8,71 160.8,70.5 	"/>
	<g>
		<text transform="matrix(1 0 0 1 170.6556 69.8019)" class="st0 st1">O</text>
		<text transform="matrix(1 0 0 1 174.8856 69.8019)" class="st0 st1">H</text>
	</g>
	<polygon points="155.8,50.1 155.7,49.5 155.9,49.5 156.2,49.4 156.3,49.9 156.1,50 	"/>
	<polygon points="157.1,49.9 156.9,49.1 157.2,49.1 157.4,49 157.6,49.8 157.4,49.8 	"/>
	<polygon points="158.4,49.7 158.2,48.7 158.4,48.6 158.6,48.6 158.9,49.6 158.6,49.6 	"/>
	<polygon points="159.7,49.5 159.4,48.3 159.6,48.2 159.9,48.2 160.2,49.4 159.9,49.4 	"/>
	<polygon points="161,49.3 160.6,47.8 160.9,47.8 161.1,47.7 161.5,49.2 161.2,49.2 	"/>
	<polygon points="162.3,49.1 161.9,47.4 162.1,47.4 162.4,47.3 162.8,49 162.5,49 	"/>
	<polygon points="163.6,48.9 163.1,47 163.3,46.9 163.6,46.9 164,48.8 163.8,48.8 	"/>
	<polygon points="164.9,48.7 164.3,46.6 164.6,46.5 164.8,46.5 165.3,48.6 165.1,48.6 	"/>
	<g>
		<text transform="matrix(1 0 0 1 165.5756 49.0719)" class="st0 st1">O</text>
		<text transform="matrix(1 0 0 1 169.8056 49.0719)" class="st0 st1">H</text>
	</g>
	<polygon points="147,40.7 148.8,31.5 149.8,31.8 150.9,32.1 147.5,40.9 147.2,40.9 	"/>
	<g>
		<text transform="matrix(1 0 0 1 148.5156 31.2719)" class="st0 st1">O</text>
		<text transform="matrix(1 0 0 1 152.7455 31.2719)" class="st0 st1">H</text>
	</g>
	<polygon points="134.9,43.9 128.3,38.3 129.1,37.5 129.9,36.7 135.3,43.6 135.2,43.8 	"/>
	<g>
		<text transform="matrix(1 0 0 1 120.8056 37.1419)" class="st0 st1">H</text>
		<text transform="matrix(1 0 0 1 124.7256 37.1419)" class="st0 st1">N</text>
	</g>
	<polygon points="127.3,32.1 129.9,23 130.1,23.1 130.4,23.2 127.7,32.3 127.5,32.2 	"/>
	<polygon points="123.9,79.8 132.7,71.4 132.8,71.7 132.9,71.9 124.1,80.4 123.9,80.2 	"/>
	<polygon points="132.7,71.4 142.1,74.1 142,74.4 142,74.6 132.9,71.9 132.8,71.7 	"/>
	<polygon points="133.3,73.1 141.7,75.5 141.6,75.8 141.6,76 133.1,73.6 133.2,73.3 	"/>
	<g>
		<text transform="matrix(1 0 0 1 142.5356 77.3118)" class="st0 st1">O</text>
	</g>
	<polygon points="123.8,80.4 124.1,80 124.3,80.2 124.5,80.3 124.1,80.7 124,80.6 	"/>
	<polygon points="124.7,81.4 125.3,80.8 125.5,81 125.6,81.1 125.1,81.8 124.9,81.6 	"/>
	<polygon points="125.7,82.4 126.4,81.6 126.6,81.8 126.8,81.9 126.1,82.8 125.9,82.6 	"/>
	<polygon points="126.7,83.4 127.6,82.4 127.8,82.6 128,82.7 127.1,83.8 126.9,83.6 	"/>
	<polygon points="127.7,84.5 128.7,83.2 128.9,83.4 129.1,83.5 128.1,84.8 127.9,84.6 	"/>
	<polygon points="128.7,85.5 129.9,84 130.1,84.2 130.3,84.3 129,85.8 128.8,85.6 	"/>
	<polygon points="129.6,86.5 131,84.8 131.2,85 131.4,85.1 130,86.8 129.8,86.6 	"/>
	<g>
		<text transform="matrix(1 0 0 1 131.2056 90.3519)" class="st0 st1">O</text>
		<text transform="matrix(1 0 0 1 135.4355 90.3519)" class="st0 st1">H</text>
	</g>
</g>
</svg>
