<?xml version="1.0" encoding="utf-8"?>
<!-- Generator: Adobe Illustrator 22.1.0, SVG Export Plug-In . SVG Version: 6.00 Build 0)  -->
<svg version="1.1" id="图层_1" xmlns="http://www.w3.org/2000/svg" xmlns:xlink="http://www.w3.org/1999/xlink" x="0px" y="0px"
	 viewBox="0 0 200 130" style="enable-background:new 0 0 200 130;" xml:space="preserve">
<style type="text/css">
	.st0{font-family:'ArialMT';}
	.st1{font-size:5.26px;}
	.st2{font-size:3.24px;}
</style>
<title>Streptomycin_Simi_compound5</title>
<g>
	<polygon points="117.3,88.8 122.5,99.4 121.6,99.8 120.6,100.2 116.8,89 117,88.8 	"/>
	<polygon points="116.9,88.5 122.9,78.6 123.2,78.6 123.4,78.7 117.3,88.8 117,88.8 	"/>
	<polygon points="122.9,78.6 115.4,69.8 115.5,69.5 115.8,69.5 123.2,78.3 123.2,78.6 	"/>
	<polygon points="115.4,69.8 104.7,74.2 104.5,74.1 104.4,73.9 115.3,69.4 115.5,69.5 	"/>
	<polygon points="104.7,74.2 105.4,83.3 105.2,83.3 105,83.3 104.2,74.1 104.5,74.1 	"/>
	<g>
		<text transform="matrix(1 0 0 1 103.3506 88.1159)" class="st0 st1">O</text>
	</g>
	<polygon points="108,86.4 116.9,88.5 117,88.8 116.8,89 107.9,86.8 107.9,86.6 	"/>
	<polygon points="104.6,73.8 104.3,74.3 104.1,74.2 103.9,74 104.2,73.6 104.4,73.7 	"/>
	<polygon points="103.5,73 103,73.7 102.8,73.5 102.6,73.4 103,72.7 103.2,72.9 	"/>
	<polygon points="102.3,72.1 101.8,73 101.6,72.9 101.4,72.8 101.9,71.9 102.1,72 	"/>
	<polygon points="101.2,71.3 100.5,72.4 100.3,72.3 100.1,72.2 100.8,71.1 101,71.2 	"/>
	<polygon points="100.1,70.5 99.2,71.8 99,71.7 98.8,71.5 99.6,70.2 99.9,70.3 	"/>
	<polygon points="98.9,69.6 98,71.2 97.8,71 97.6,70.9 98.5,69.4 98.7,69.5 	"/>
	<polygon points="97.8,68.8 96.7,70.5 96.5,70.4 96.3,70.3 97.4,68.5 97.6,68.6 	"/>
	<g>
		<text transform="matrix(1 0 0 1 92.2607 69.9859)" class="st0 st1">O</text>
	</g>
	<polygon points="84,73.8 83.7,73.3 83.9,73.2 84.2,73.1 84.4,73.5 84.2,73.6 	"/>
	<polygon points="85.3,73.2 84.9,72.5 85.1,72.4 85.3,72.3 85.7,73 85.5,73.1 	"/>
	<polygon points="86.6,72.6 86.1,71.7 86.3,71.6 86.5,71.5 87,72.4 86.8,72.5 	"/>
	<polygon points="87.9,72.1 87.3,70.9 87.5,70.8 87.7,70.7 88.3,71.8 88.1,71.9 	"/>
	<polygon points="89.2,71.5 88.5,70.1 88.7,70 88.9,69.9 89.7,71.3 89.5,71.4 	"/>
	<polygon points="90.6,70.9 89.7,69.3 89.9,69.2 90.1,69.1 91,70.7 90.8,70.8 	"/>
	<polygon points="91.9,70.4 90.9,68.5 91.1,68.4 91.3,68.3 92.3,70.1 92.1,70.3 	"/>
	<polygon points="83.6,73.7 73.7,67.6 73.7,67.3 73.8,67.1 84,73.3 83.8,73.5 	"/>
	<polygon points="73.7,67.6 63.4,73.1 63.2,73 63.1,72.8 73.5,67.1 73.7,67.3 	"/>
	<polygon points="63.4,73.1 63.1,84.8 62.9,84.9 62.6,84.9 62.9,73 63.2,73 	"/>
	<polygon points="63.1,84.8 73,90.9 73,91.1 72.9,91.3 62.7,85.1 62.9,84.9 	"/>
	<polygon points="73,90.9 83.3,85.3 83.5,85.5 83.5,85.7 73.1,91.4 73,91.1 	"/>
	<polygon points="83.7,85.3 91.7,89.2 91.1,90.1 90.6,91.1 83.5,85.7 83.5,85.5 	"/>
	<g>
		<text transform="matrix(1 0 0 1 91.6207 93.8259)" class="st0 st1">O</text>
		<text transform="matrix(1 0 0 1 95.7107 93.8259)" class="st0 st1">H</text>
	</g>
	<polygon points="83.3,85.3 83.6,73.7 83.8,73.5 84.1,73.5 83.7,85.3 83.5,85.5 	"/>
	<polygon points="72.8,91.2 73.3,91.2 73.3,91.4 73.3,91.7 72.7,91.6 72.8,91.4 	"/>
	<polygon points="72.6,92.6 73.4,92.6 73.4,92.9 73.4,93.1 72.6,93.1 72.6,92.9 	"/>
	<polygon points="72.4,94.1 73.5,94.1 73.5,94.4 73.5,94.6 72.4,94.6 72.4,94.3 	"/>
	<polygon points="72.2,95.5 73.6,95.6 73.6,95.8 73.5,96.1 72.2,96 72.2,95.8 	"/>
	<polygon points="72.1,97 73.7,97 73.6,97.3 73.6,97.5 72.1,97.5 72.1,97.2 	"/>
	<polygon points="71.9,98.5 73.7,98.5 73.7,98.7 73.7,99 71.9,98.9 71.9,98.7 	"/>
	<polygon points="71.7,99.9 73.8,100 73.8,100.2 73.8,100.4 71.7,100.4 71.7,100.1 	"/>
	<g>
		<text transform="matrix(1 0 0 1 70.6507 105.1959)" class="st0 st1">O</text>
		<text transform="matrix(1 0 0 1 74.7407 105.1959)" class="st0 st1">H</text>
	</g>
	<polygon points="62.7,84.7 63,85.2 62.7,85.3 62.5,85.4 62.3,84.9 62.5,84.8 	"/>
	<polygon points="61.4,85.3 61.7,86 61.5,86.1 61.3,86.2 60.9,85.5 61.2,85.4 	"/>
	<polygon points="60,85.8 60.5,86.8 60.3,86.9 60.1,87 59.6,86.1 59.8,86 	"/>
	<polygon points="58.7,86.4 59.3,87.6 59.1,87.7 58.9,87.8 58.3,86.6 58.5,86.5 	"/>
	<polygon points="57.3,87 58.1,88.4 57.9,88.5 57.7,88.6 56.9,87.2 57.1,87.1 	"/>
	<polygon points="56,87.6 56.9,89.2 56.7,89.3 56.5,89.4 55.6,87.8 55.8,87.7 	"/>
	<polygon points="54.7,88.1 55.7,90 55.5,90.1 55.2,90.2 54.2,88.4 54.5,88.3 	"/>
	<g>
		<text transform="matrix(1 0 0 1 50.4707 92.7159)" class="st0 st1">N</text>
	</g>
	<polygon points="49.8,89.3 43.4,83.8 43.5,83.6 43.7,83.4 50.2,89 50,89.1 	"/>
	<polygon points="50.7,88.1 42.2,84.6 42.2,84.4 42.5,84.2 50.8,87.7 50.7,87.9 	"/>
	<polygon points="42.2,84.6 34.2,89 34.1,88.7 34,88.5 42,84.2 42.2,84.4 	"/>
	<g>
		<text transform="matrix(1 0 0 1 24.2707 91.4859)" class="st0 st1">H</text>
		<text transform="matrix(1 0 0 1 28.0607 92.2959)" class="st0 st2">2</text>
		<text transform="matrix(1 0 0 1 29.8607 91.4859)" class="st0 st1">N</text>
	</g>
	<polygon points="42,84.2 42.2,75.1 42.5,75.1 42.7,75.1 42.5,84.2 42.2,84.4 	"/>
	<g>
		<text transform="matrix(1 0 0 1 40.6207 73.8859)" class="st0 st1">N</text>
		<text transform="matrix(1 0 0 1 44.4207 73.8859)" class="st0 st1">H</text>
		<text transform="matrix(1 0 0 1 48.2207 74.6959)" class="st0 st2">2</text>
	</g>
	<polygon points="63.3,72.7 63,73.2 62.8,73.1 62.6,72.9 62.9,72.5 63.1,72.6 	"/>
	<polygon points="62.2,71.9 61.7,72.6 61.5,72.4 61.3,72.3 61.7,71.6 61.9,71.8 	"/>
	<polygon points="61,71 60.5,71.9 60.3,71.8 60.1,71.7 60.6,70.8 60.8,70.9 	"/>
	<polygon points="59.9,70.2 59.2,71.3 59,71.2 58.8,71.1 59.5,69.9 59.7,70.1 	"/>
	<polygon points="58.8,69.3 57.9,70.7 57.7,70.6 57.5,70.4 58.3,69.1 58.6,69.2 	"/>
	<polygon points="57.6,68.5 56.7,70.1 56.5,69.9 56.3,69.8 57.2,68.2 57.4,68.4 	"/>
	<polygon points="56.5,67.6 55.4,69.4 55.2,69.3 55,69.2 56.1,67.4 56.3,67.5 	"/>
	<g>
		<text transform="matrix(1 0 0 1 47.1607 68.8759)" class="st0 st1">H</text>
		<text transform="matrix(1 0 0 1 50.9607 68.8759)" class="st0 st1">O</text>
	</g>
	<polygon points="73.9,67.3 73.4,67.3 73.4,67 73.4,66.8 73.9,66.8 73.9,67 	"/>
	<polygon points="74.1,65.8 73.3,65.8 73.3,65.6 73.3,65.3 74.1,65.3 74.1,65.6 	"/>
	<polygon points="74.3,64.4 73.2,64.3 73.2,64.1 73.2,63.9 74.3,63.9 74.3,64.1 	"/>
	<polygon points="74.4,62.9 73.1,62.9 73.1,62.6 73.1,62.4 74.5,62.4 74.4,62.7 	"/>
	<polygon points="74.6,61.4 73,61.4 73,61.2 73,60.9 74.6,61 74.6,61.2 	"/>
	<polygon points="74.8,60 72.9,59.9 72.9,59.7 73,59.5 74.8,59.5 74.8,59.8 	"/>
	<polygon points="74.9,58.5 72.8,58.5 72.9,58.2 72.9,58 75,58.1 75,58.3 	"/>
	<g>
		<text transform="matrix(1 0 0 1 72.0807 57.5059)" class="st0 st1">N</text>
	</g>
	<polygon points="76.3,53.9 84.3,51 84.4,51.2 84.5,51.4 76.4,54.3 76.4,54.1 	"/>
	<polygon points="76.9,55.2 84.2,49.6 84.5,49.7 84.5,50 77.2,55.5 77,55.3 	"/>
	<polygon points="84.2,49.6 84.5,40.4 84.7,40.4 85,40.4 84.7,49.6 84.5,49.7 	"/>
	<g>
		<text transform="matrix(1 0 0 1 82.8807 39.2259)" class="st0 st1">N</text>
		<text transform="matrix(1 0 0 1 86.6807 39.2259)" class="st0 st1">H</text>
		<text transform="matrix(1 0 0 1 90.4807 40.0359)" class="st0 st2">2</text>
	</g>
	<polygon points="84.7,49.6 92.4,54.3 92.3,54.5 92.1,54.7 84.5,50 84.5,49.7 	"/>
	<g>
		<text transform="matrix(1 0 0 1 92.7307 57.3859)" class="st0 st1">N</text>
		<text transform="matrix(1 0 0 1 96.5307 57.3859)" class="st0 st1">H</text>
		<text transform="matrix(1 0 0 1 100.3207 58.1959)" class="st0 st2">2</text>
	</g>
	<polygon points="115.3,69.4 116.6,60.3 117.7,60.6 118.7,60.8 115.8,69.5 115.5,69.5 	"/>
	<g>
		<text transform="matrix(1 0 0 1 116.2407 60.0659)" class="st0 st1">O</text>
	</g>
	<polygon points="129.7,54.8 121.1,58.2 120.8,57.2 120.5,56.2 129.5,54.4 129.7,54.6 	"/>
	<polygon points="129.5,54.4 132.2,43.1 132.5,43 132.7,43.2 130,54.5 129.7,54.6 	"/>
	<polygon points="132.6,42.7 143.9,39.4 144,39.6 143.9,39.8 132.7,43.2 132.5,43 	"/>
	<polygon points="144.1,39.4 152.8,47.6 152.6,47.8 152.3,47.9 143.9,39.8 144,39.6 	"/>
	<polygon points="152.8,47.9 150,59.4 149.8,59.4 149.6,59.2 152.3,47.9 152.6,47.8 	"/>
	<polygon points="149.9,59.6 141,62.3 140.9,62 140.8,61.8 149.6,59.2 149.8,59.4 	"/>
	<g>
		<text transform="matrix(1 0 0 1 136.3207 64.9059)" class="st0 st1">O</text>
	</g>
	<polygon points="135.7,60.5 129.7,54.8 129.7,54.6 130,54.5 136,60.2 135.8,60.4 	"/>
	<polygon points="149.7,59.6 150,59.2 150.2,59.4 150.4,59.6 150,59.9 149.8,59.8 	"/>
	<polygon points="150.5,60.5 151,60 151.2,60.2 151.3,60.4 150.9,60.9 150.7,60.7 	"/>
	<polygon points="151.4,61.5 152,60.8 152.1,61 152.3,61.2 151.7,61.8 151.5,61.6 	"/>
	<polygon points="152.2,62.4 153,61.7 153.1,61.8 153.3,62 152.6,62.7 152.4,62.6 	"/>
	<polygon points="153.1,63.4 153.9,62.5 154.1,62.6 154.3,62.8 153.4,63.7 153.3,63.5 	"/>
	<polygon points="153.9,64.3 154.9,63.3 155.1,63.4 155.3,63.6 154.3,64.6 154.1,64.5 	"/>
	<polygon points="154.8,65.2 155.9,64.1 156.1,64.2 156.2,64.4 155.2,65.6 155,65.4 	"/>
	<polygon points="155.7,66.2 156.9,64.9 157,65.1 157.2,65.2 156,66.5 155.8,66.3 	"/>
	<polygon points="156.5,67.1 157.9,65.7 158,65.9 158.2,66 156.9,67.4 156.7,67.3 	"/>
	<polygon points="157.4,68 158.8,66.5 159,66.7 159.2,66.8 157.7,68.4 157.6,68.2 	"/>
	<polygon points="158.8,67.3 167.3,64.7 167.4,65 167.4,65.2 158.1,68 158.5,67.6 	"/>
	<g>
		<text transform="matrix(1 0 0 1 167.8407 66.3559)" class="st0 st1">O</text>
		<text transform="matrix(1 0 0 1 171.9307 66.3559)" class="st0 st1">H</text>
	</g>
	<polygon points="152.7,48 152.6,47.5 152.8,47.5 153,47.4 153.2,47.9 152.9,48 	"/>
	<polygon points="153.9,47.8 153.7,47.1 154,47 154.2,46.9 154.4,47.7 154.2,47.7 	"/>
	<polygon points="155.2,47.5 154.9,46.6 155.1,46.5 155.4,46.5 155.6,47.4 155.4,47.5 	"/>
	<polygon points="156.4,47.3 156.1,46.1 156.3,46.1 156.5,46 156.9,47.2 156.6,47.2 	"/>
	<polygon points="157.7,47 157.2,45.7 157.5,45.6 157.7,45.5 158.1,46.9 157.9,47 	"/>
	<polygon points="158.9,46.8 158.4,45.2 158.6,45.1 158.9,45.1 159.3,46.7 159.1,46.7 	"/>
	<polygon points="160.1,46.6 159.6,44.8 159.8,44.7 160,44.6 160.6,46.4 160.4,46.5 	"/>
	<polygon points="161.4,46.3 160.8,44.3 161,44.2 161.2,44.2 161.8,46.2 161.6,46.2 	"/>
	<g>
		<text transform="matrix(1 0 0 1 161.9907 46.5459)" class="st0 st1">O</text>
		<text transform="matrix(1 0 0 1 166.0807 46.5459)" class="st0 st1">H</text>
	</g>
	<polygon points="144.2,39.6 143.7,39.5 143.8,39.3 143.8,39 144.3,39.1 144.3,39.4 	"/>
	<polygon points="144.7,38.2 143.9,38 144,37.8 144,37.6 144.8,37.8 144.7,38 	"/>
	<polygon points="145.2,36.9 144.1,36.6 144.2,36.4 144.2,36.1 145.3,36.4 145.2,36.6 	"/>
	<polygon points="145.6,35.5 144.3,35.2 144.4,34.9 144.5,34.7 145.7,35 145.7,35.2 	"/>
	<polygon points="146.1,34.1 144.6,33.7 144.6,33.5 144.7,33.3 146.2,33.6 146.1,33.9 	"/>
	<polygon points="146.6,32.7 144.8,32.3 144.8,32.1 144.9,31.8 146.7,32.3 146.6,32.5 	"/>
	<polygon points="147,31.3 145,30.9 145,30.6 145.1,30.4 147.1,30.9 147.1,31.1 	"/>
	<g>
		<text transform="matrix(1 0 0 1 144.7007 30.1159)" class="st0 st1">O</text>
		<text transform="matrix(1 0 0 1 148.7906 30.1159)" class="st0 st1">H</text>
	</g>
	<polygon points="132.2,43.1 125.5,37.8 126.2,37 127,36.2 132.6,42.7 132.5,43 	"/>
	<g>
		<text transform="matrix(1 0 0 1 118.1707 36.8759)" class="st0 st1">H</text>
		<text transform="matrix(1 0 0 1 121.9707 36.8759)" class="st0 st1">N</text>
	</g>
	<polygon points="124.3,32 126.4,23.1 126.7,23.2 126.9,23.2 124.7,32.2 124.5,32.1 	"/>
	<polygon points="123.2,78.3 131.4,69.7 131.5,70 131.5,70.2 123.4,78.8 123.2,78.6 	"/>
	<polygon points="131.4,69.7 140.6,71.9 140.5,72.1 140.5,72.4 131.5,70.2 131.5,70 	"/>
	<polygon points="132,71.3 140.2,73.3 140.2,73.5 140.1,73.8 131.9,71.8 131.9,71.5 	"/>
	<g>
		<text transform="matrix(1 0 0 1 141.0007 74.8859)" class="st0 st1">O</text>
	</g>
	<polygon points="123.1,78.8 123.4,78.4 123.6,78.6 123.8,78.7 123.5,79.1 123.3,79 	"/>
	<polygon points="124.1,79.8 124.6,79.2 124.8,79.3 125,79.4 124.5,80.1 124.3,79.9 	"/>
	<polygon points="125.1,80.7 125.8,79.9 126,80 126.1,80.2 125.5,81 125.3,80.9 	"/>
	<polygon points="126.1,81.7 126.9,80.6 127.1,80.8 127.3,80.9 126.5,82 126.3,81.8 	"/>
	<polygon points="127.1,82.6 128.1,81.3 128.3,81.5 128.5,81.6 127.5,82.9 127.3,82.7 	"/>
	<polygon points="128.1,83.5 129.3,82.1 129.5,82.2 129.6,82.4 128.5,83.8 128.3,83.7 	"/>
	<polygon points="129.2,84.5 130.4,82.8 130.6,83 130.8,83.1 129.5,84.8 129.3,84.6 	"/>
	<g>
		<text transform="matrix(1 0 0 1 130.6407 88.0059)" class="st0 st1">O</text>
		<text transform="matrix(1 0 0 1 134.7307 88.0059)" class="st0 st1">H</text>
	</g>
</g>
</svg>
