<svg id="图层_1" data-name="图层 1" xmlns="http://www.w3.org/2000/svg" viewBox="0 0 200 130"><defs><style>.cls-1,.cls-2{isolation:isolate;}.cls-2{font-size:5.88px;font-family:ArialMT, Arial;}.cls-3{fill:none;stroke:#000;stroke-miterlimit:3.9;stroke-width:0.92px;}</style></defs><polygon points="169.3 26.5 157.63 33.25 157.63 32.95 157.63 32.64 169.03 26.03 169.16 26.26 169.3 26.5"/><polygon points="157.63 33.25 148.59 28.06 148.73 27.83 148.86 27.59 157.63 32.64 157.63 32.95 157.63 33.25"/><g class="cls-1"><text class="cls-2" transform="translate(143.95 28.68)">N</text></g><polygon points="145.8 23.33 145.79 12.81 146.05 12.97 146.32 13.12 146.34 23.33 146.07 23.33 145.8 23.33"/><polygon points="145.79 12.81 157.46 6.05 157.59 6.28 157.72 6.51 146.32 13.12 146.05 12.97 145.79 12.81"/><polygon points="143.55 28.07 134.8 33.13 134.54 32.98 134.54 32.67 143.28 27.61 143.42 27.84 143.55 28.07"/><polygon points="134.8 33.13 134.82 46.47 134.56 46.31 134.29 46.16 134.27 33.13 134.54 32.98 134.8 33.13"/><polygon points="133.21 33.91 133.22 45.39 132.96 45.39 132.69 45.39 132.67 33.91 132.94 33.91 133.21 33.91"/><polygon points="134.82 46.47 123.02 53.3 123.02 52.99 123.02 52.69 134.29 46.16 134.56 46.31 134.82 46.47"/><polygon points="123.02 53.3 111.47 46.65 111.47 46.34 111.73 46.19 123.02 52.69 123.02 52.99 123.02 53.3"/><polygon points="122.88 51.38 112.93 45.65 113.06 45.42 113.2 45.19 123.15 50.91 123.02 51.15 122.88 51.38"/><polygon points="111.47 46.65 100.2 53.18 99.93 53.03 99.93 52.72 111.2 46.19 111.47 46.34 111.47 46.65"/><polygon points="99.66 53.18 88.38 46.69 88.37 46.38 88.64 46.22 99.93 52.72 99.93 53.03 99.66 53.18"/><polygon points="99.79 51.41 89.84 45.68 89.97 45.45 90.11 45.22 100.06 50.95 99.93 51.18 99.79 51.41"/><polygon points="88.11 46.22 88.09 33.2 88.36 33.05 88.62 32.89 88.64 46.22 88.37 46.38 88.11 46.22"/><polygon points="86.62 34.2 76.67 28.48 76.8 28.24 76.94 28.01 86.89 33.74 86.76 33.97 86.62 34.2"/><polygon points="88.09 33.2 76.8 26.7 76.8 26.4 76.8 26.09 88.62 32.89 88.36 33.05 88.09 33.2"/><polygon points="76.8 26.7 65.53 33.23 65.26 33.08 65.26 32.77 76.8 26.09 76.8 26.4 76.8 26.7"/><polygon points="65 33.23 56.23 28.19 56.37 27.96 56.5 27.73 65.26 32.77 65.26 33.08 65 33.23"/><polygon points="65.13 31.46 57.03 26.8 57.16 26.57 57.3 26.34 65.39 31 65.26 31.23 65.13 31.46"/><g class="cls-1"><text class="cls-2" transform="translate(51.59 28.81)">N</text></g><polygon points="53.44 23.46 53.42 13.25 53.69 13.1 53.96 12.94 53.97 23.46 53.7 23.46 53.44 23.46"/><polygon points="53.42 13.25 42 6.68 42.13 6.45 42.27 6.22 53.96 12.94 53.69 13.1 53.42 13.25"/><polygon points="51.19 28.2 42.17 33.42 42.17 33.11 42.17 32.8 50.92 27.74 51.05 27.97 51.19 28.2"/><polygon points="42.17 33.42 30.48 26.69 30.62 26.46 30.75 26.23 42.17 32.8 42.17 33.11 42.17 33.42"/><line class="cls-3" x1="55.67" y1="23.36" x2="57.89" y2="23.36"/><line class="cls-3" x1="56.78" y1="22.25" x2="56.78" y2="24.47"/><polygon points="65.53 33.23 65.55 46.26 65.28 46.41 65.02 46.56 65 33.23 65.26 33.08 65.53 33.23"/><polygon points="67.02 45.25 76.97 50.98 76.84 51.21 76.7 51.44 66.75 45.72 66.88 45.48 67.02 45.25"/><polygon points="65.55 46.26 76.84 52.75 76.84 53.06 76.84 53.37 65.02 46.56 65.28 46.41 65.55 46.26"/><polygon points="76.84 52.75 88.11 46.22 88.37 46.38 88.38 46.69 76.84 53.37 76.84 53.06 76.84 52.75"/><polygon points="100.2 53.18 100.22 66.2 99.95 66.36 99.68 66.2 99.66 53.18 99.93 53.03 100.2 53.18"/><polygon points="100.08 68.44 90.15 74.19 90.01 73.96 89.88 73.73 99.82 67.97 99.95 68.2 100.08 68.44"/><polygon points="99.95 66.67 88.68 73.19 88.41 73.04 88.15 72.89 99.68 66.2 99.95 66.36 99.95 66.67"/><polygon points="88.68 73.19 88.7 86.22 88.43 86.37 88.17 86.22 88.15 72.89 88.41 73.04 88.68 73.19"/><polygon points="88.43 86.68 79.85 91.65 79.72 91.42 79.58 91.19 88.17 86.22 88.43 86.37 88.43 86.68"/><g class="cls-1"><text class="cls-2" transform="translate(70.36 95.43)">H</text><text class="cls-2" transform="translate(74.61 95.43)">O</text></g><polygon points="88.7 86.22 99.99 92.71 99.99 93.02 99.72 93.17 88.43 86.68 88.43 86.37 88.7 86.22"/><polygon points="88.57 87.99 98.52 93.72 98.39 93.95 98.25 94.18 88.3 88.45 88.43 88.22 88.57 87.99"/><polygon points="100.25 93.17 100.27 103.39 100 103.39 99.73 103.39 99.72 93.17 99.99 93.02 100.25 93.17"/><g class="cls-1"><text class="cls-2" transform="translate(98.05 108.73)">S</text></g><polygon points="97.51 107.42 89.5 107.43 89.5 107.17 89.5 106.9 97.51 106.89 97.51 107.16 97.51 107.42"/><polygon points="97.51 105.82 89.49 105.83 89.49 105.57 89.49 105.3 97.51 105.29 97.51 105.56 97.51 105.82"/><g class="cls-1"><text class="cls-2" transform="translate(84.39 108.75)">O</text></g><polygon points="102.5 105.28 110.52 105.27 110.52 105.54 110.52 105.8 102.5 105.82 102.5 105.55 102.5 105.28"/><polygon points="102.5 106.88 110.52 106.87 110.52 107.14 110.52 107.4 102.5 107.42 102.5 107.15 102.5 106.88"/><g class="cls-1"><text class="cls-2" transform="translate(111.05 108.71)">O</text></g><polygon points="100.28 109.32 100.29 116.72 100.02 116.72 99.75 116.72 99.74 109.32 100.01 109.32 100.28 109.32"/><g class="cls-1"><text class="cls-2" transform="translate(97.74 122.06)">O</text><text class="cls-2" transform="translate(102.31 122.06)">H</text></g><polygon points="99.99 92.71 111.26 86.19 111.52 86.34 111.79 86.49 100.25 93.17 99.99 93.02 99.99 92.71"/><polygon points="109.66 85.42 109.64 73.93 109.91 73.93 110.17 73.93 110.19 85.42 109.92 85.42 109.66 85.42"/><polygon points="111.26 86.19 111.24 73.16 111.5 73.01 111.77 73.16 111.79 86.49 111.52 86.34 111.26 86.19"/><polygon points="111.5 72.7 120.41 67.54 120.55 67.77 120.68 68 111.77 73.16 111.5 73.01 111.5 72.7"/><g class="cls-1"><text class="cls-2" transform="translate(121.08 68.71)">S</text></g><polygon points="125.68 68.76 128.93 74.36 128.7 74.5 128.47 74.63 125.22 69.02 125.45 68.89 125.68 68.76"/><polygon points="124.3 69.56 127.54 75.16 127.31 75.3 127.08 75.43 123.83 69.83 124.06 69.69 124.3 69.56"/><g class="cls-1"><text class="cls-2" transform="translate(127.44 80.24)">O</text></g><polygon points="120.4 63.89 117.15 58.29 117.38 58.16 117.61 58.02 120.86 63.63 120.63 63.76 120.4 63.89"/><polygon points="121.78 63.09 118.54 57.49 118.77 57.35 119 57.22 122.24 62.83 122.01 62.96 121.78 63.09"/><g class="cls-1"><text class="cls-2" transform="translate(114.07 57.17)">O</text></g><polygon points="125.4 64.65 131.62 61.05 131.75 61.28 131.89 61.51 125.67 65.11 125.53 64.88 125.4 64.65"/><g class="cls-1"><text class="cls-2" transform="translate(132.29 62.02)">O</text><text class="cls-2" transform="translate(136.86 62.02)">H</text></g><polygon points="111.24 73.16 99.95 66.67 99.95 66.36 100.22 66.2 111.5 72.7 111.5 73.01 111.24 73.16"/><polygon points="111.2 46.19 111.18 32.86 111.45 33.01 111.71 33.17 111.73 46.19 111.47 46.34 111.2 46.19"/><polygon points="111.18 32.86 122.98 26.02 122.98 26.33 122.98 26.64 111.71 33.17 111.45 33.01 111.18 32.86"/><polygon points="112.91 33.7 122.85 27.95 122.98 28.18 123.12 28.41 113.18 34.16 113.05 33.93 112.91 33.7"/><polygon points="122.98 26.02 134.54 32.67 134.54 32.98 134.27 33.13 122.98 26.64 122.98 26.33 122.98 26.02"/></svg>