<svg id="图层_1" data-name="图层 1" xmlns="http://www.w3.org/2000/svg" viewBox="0 0 200 130"><defs><style>.cls-1,.cls-2{isolation:isolate;}.cls-2{font-size:5.85px;font-family:ArialMT, Arial;}</style></defs><polygon points="167.38 26.14 155.78 32.89 155.78 32.58 155.78 32.27 167.11 25.68 167.25 25.91 167.38 26.14"/><polygon points="155.78 32.89 146.78 27.73 146.91 27.5 147.04 27.27 155.78 32.27 155.78 32.58 155.78 32.89"/><g class="cls-1"><text class="cls-2" transform="translate(142.15 28.35)">N</text></g><polygon points="143.99 23.03 143.96 12.56 144.22 12.71 144.49 12.87 144.52 23.03 144.26 23.03 143.99 23.03"/><polygon points="143.96 12.56 155.56 5.82 155.69 6.04 155.83 6.28 144.49 12.87 144.22 12.71 143.96 12.56"/><polygon points="141.76 27.75 133.06 32.81 132.8 32.65 132.79 32.35 141.49 27.29 141.62 27.52 141.76 27.75"/><polygon points="133.06 32.81 133.1 46.07 132.84 45.92 132.57 45.77 132.53 32.81 132.8 32.65 133.06 32.81"/><polygon points="131.47 33.58 131.51 45.01 131.24 45.01 130.98 45.01 130.94 33.58 131.21 33.58 131.47 33.58"/><polygon points="133.1 46.07 121.37 52.9 121.37 52.59 121.37 52.29 132.57 45.77 132.84 45.92 133.1 46.07"/><polygon points="121.37 52.9 109.86 46.3 109.86 45.99 110.12 45.84 121.37 52.29 121.37 52.59 121.37 52.9"/><polygon points="121.23 50.98 111.31 45.3 111.45 45.07 111.58 44.84 121.49 50.52 121.36 50.75 121.23 50.98"/><polygon points="109.59 45.84 109.55 32.88 109.81 32.73 110.08 32.88 110.12 45.84 109.86 45.99 109.59 45.84"/><polygon points="109.81 32.42 121.28 25.75 121.28 26.06 121.28 26.36 110.08 32.88 109.81 32.73 109.81 32.42"/><polygon points="111.28 33.41 121.16 27.66 121.29 27.89 121.42 28.12 111.54 33.87 111.41 33.64 111.28 33.41"/><polygon points="121.28 25.75 132.79 32.35 132.8 32.65 132.53 32.81 121.28 26.36 121.28 26.06 121.28 25.75"/><polygon points="109.55 32.88 100.98 27.97 101.11 27.74 101.24 27.51 109.81 32.42 109.81 32.73 109.55 32.88"/><g class="cls-1"><text class="cls-2" transform="translate(96.03 28.5)">O</text></g><polygon points="95.63 27.99 87.1 32.95 86.83 32.8 86.83 32.49 95.36 27.53 95.5 27.76 95.63 27.99"/><polygon points="85.11 33.95 75.2 28.27 75.33 28.04 75.46 27.81 85.38 33.49 85.25 33.72 85.11 33.95"/><polygon points="86.57 32.95 75.32 26.51 75.32 26.2 75.32 25.89 86.83 32.49 86.83 32.8 86.57 32.95"/><polygon points="75.32 26.51 64.12 33.02 63.85 32.87 63.85 32.56 75.32 25.89 75.32 26.2 75.32 26.51"/><polygon points="63.59 33.02 54.85 28.02 54.98 27.79 55.12 27.56 63.85 32.56 63.85 32.87 63.59 33.02"/><g class="cls-1"><text class="cls-2" transform="translate(50.23 28.64)">N</text></g><polygon points="49.83 28.04 40.87 33.25 40.87 32.94 40.87 32.64 49.56 27.58 49.7 27.81 49.83 28.04"/><polygon points="40.87 33.25 29.23 26.58 29.36 26.35 29.49 26.12 40.87 32.64 40.87 32.94 40.87 33.25"/><polygon points="52.07 23.32 52.03 13.16 52.3 13.01 52.56 12.85 52.6 23.32 52.33 23.32 52.07 23.32"/><polygon points="52.03 13.16 40.66 6.64 40.79 6.41 40.92 6.18 52.56 12.85 52.3 13.01 52.03 13.16"/><polygon points="65.71 33.78 65.75 45.21 65.48 45.22 65.22 45.22 65.18 33.79 65.45 33.78 65.71 33.78"/><polygon points="64.12 33.02 64.16 45.98 63.9 46.14 63.63 46.29 63.59 33.02 63.85 32.87 64.12 33.02"/><polygon points="64.16 45.98 75.41 52.43 75.41 52.74 75.41 53.04 63.63 46.29 63.9 46.14 64.16 45.98"/><polygon points="75.27 50.67 85.15 44.92 85.28 45.15 85.41 45.38 75.53 51.13 75.4 50.9 75.27 50.67"/><polygon points="75.41 52.43 86.61 45.91 86.88 46.07 86.88 46.37 75.41 53.04 75.41 52.74 75.41 52.43"/><polygon points="87.14 45.91 98.39 52.36 98.39 52.66 98.12 52.82 86.88 46.37 86.88 46.07 87.14 45.91"/><polygon points="98.65 52.82 98.69 65.78 98.43 65.93 98.16 65.78 98.12 52.82 98.39 52.66 98.65 52.82"/><polygon points="98.57 68 88.69 73.75 88.55 73.52 88.42 73.29 98.3 67.54 98.44 67.77 98.57 68"/><polygon points="98.43 66.24 87.22 72.75 86.96 72.6 86.69 72.45 98.16 65.78 98.43 65.93 98.43 66.24"/><polygon points="87.22 72.75 87.27 85.72 87 85.87 86.74 86.03 86.69 72.45 86.96 72.6 87.22 72.75"/><polygon points="88.72 84.72 98.64 90.4 98.51 90.63 98.38 90.86 88.46 85.18 88.59 84.95 88.72 84.72"/><polygon points="87.27 85.72 98.51 92.16 98.51 92.47 98.25 92.62 86.74 86.03 87 85.87 87.27 85.72"/><polygon points="98.78 92.62 98.81 102.78 98.55 102.79 98.28 102.79 98.25 92.62 98.51 92.47 98.78 92.62"/><g class="cls-1"><text class="cls-2" transform="translate(96.6 108.11)">S</text></g><polygon points="96.08 106.81 88.1 106.83 88.1 106.57 88.09 106.3 96.07 106.28 96.08 106.54 96.08 106.81"/><polygon points="96.07 105.21 88.09 105.24 88.09 104.97 88.09 104.71 96.07 104.68 96.07 104.95 96.07 105.21"/><g class="cls-1"><text class="cls-2" transform="translate(83.01 108.15)">O</text></g><polygon points="101.03 104.67 109.01 104.64 109.01 104.91 109.01 105.17 101.03 105.2 101.03 104.93 101.03 104.67"/><polygon points="101.04 106.26 109.02 106.23 109.02 106.5 109.02 106.77 101.04 106.79 101.04 106.53 101.04 106.26"/><g class="cls-1"><text class="cls-2" transform="translate(109.55 108.07)">O</text></g><polygon points="98.83 108.69 98.85 116.05 98.59 116.05 98.32 116.05 98.3 108.69 98.56 108.69 98.83 108.69"/><g class="cls-1"><text class="cls-2" transform="translate(96.32 121.37)">O</text><text class="cls-2" transform="translate(100.87 121.37)">H</text></g><polygon points="98.51 92.16 109.72 85.65 109.98 85.8 110.25 85.95 98.78 92.62 98.51 92.47 98.51 92.16"/><polygon points="108.12 84.89 108.09 73.45 108.35 73.45 108.62 73.45 108.65 84.88 108.39 84.88 108.12 84.89"/><polygon points="109.72 85.65 109.67 72.68 109.94 72.53 110.21 72.68 110.25 85.95 109.98 85.8 109.72 85.65"/><polygon points="109.94 72.22 118.8 67.07 118.93 67.3 119.06 67.53 110.21 72.68 109.94 72.53 109.94 72.22"/><g class="cls-1"><text class="cls-2" transform="translate(119.46 68.23)">S</text></g><polygon points="124.04 68.28 127.28 73.84 127.05 73.98 126.82 74.11 123.58 68.54 123.81 68.41 124.04 68.28"/><polygon points="122.67 69.08 125.91 74.64 125.68 74.78 125.45 74.91 122.21 69.34 122.44 69.21 122.67 69.08"/><g class="cls-1"><text class="cls-2" transform="translate(125.8 79.7)">O</text></g><polygon points="118.78 63.44 115.54 57.88 115.77 57.74 116 57.61 119.23 63.18 119 63.31 118.78 63.44"/><polygon points="120.15 62.64 116.92 57.08 117.14 56.94 117.37 56.81 120.61 62.38 120.38 62.51 120.15 62.64"/><g class="cls-1"><text class="cls-2" transform="translate(112.46 56.76)">O</text></g><polygon points="123.76 64.19 129.94 60.59 130.07 60.82 130.21 61.05 124.03 64.65 123.89 64.42 123.76 64.19"/><g class="cls-1"><text class="cls-2" transform="translate(130.6 61.56)">O</text><text class="cls-2" transform="translate(135.15 61.56)">H</text></g><polygon points="109.67 72.68 98.43 66.24 98.43 65.93 98.69 65.78 109.94 72.22 109.94 72.53 109.67 72.68"/><polygon points="98.39 52.36 109.59 45.84 109.86 45.99 109.86 46.3 98.65 52.82 98.39 52.66 98.39 52.36"/><polygon points="86.61 45.91 86.57 32.95 86.83 32.8 87.1 32.95 87.14 45.91 86.88 46.07 86.61 45.91"/></svg>