<svg id="图层_1" data-name="图层 1" xmlns="http://www.w3.org/2000/svg" viewBox="0 0 200 130"><defs><style>.cls-1,.cls-2{isolation:isolate;}.cls-2{font-size:5.91px;font-family:ArialMT, Arial;}.cls-3{fill:none;stroke:#000;stroke-miterlimit:3.9;stroke-width:0.92px;}</style></defs><polygon points="170.71 26.96 159.02 33.83 159.02 33.52 159.02 33.21 170.44 26.5 170.58 26.73 170.71 26.96"/><polygon points="159.02 33.83 149.9 28.66 150.03 28.43 150.16 28.19 159.02 33.21 159.02 33.52 159.02 33.83"/><g class="cls-1"><text class="cls-2" transform="translate(145.22 29.31)">N</text></g><polygon points="147.07 23.93 146.98 13.36 147.25 13.51 147.52 13.66 147.6 23.93 147.33 23.93 147.07 23.93"/><polygon points="146.98 13.36 158.67 6.48 158.81 6.71 158.94 6.94 147.52 13.66 147.25 13.51 146.98 13.36"/><polygon points="144.82 28.71 136.07 33.86 135.8 33.71 135.8 33.4 144.55 28.25 144.69 28.48 144.82 28.71"/><polygon points="136.07 33.86 136.18 47.27 135.91 47.12 135.64 46.96 135.53 33.87 135.8 33.71 136.07 33.86"/><polygon points="134.47 34.65 134.56 46.2 134.29 46.2 134.02 46.2 133.93 34.65 134.2 34.65 134.47 34.65"/><polygon points="136.18 47.27 124.36 54.22 124.35 53.91 124.35 53.6 135.64 46.96 135.91 47.12 136.18 47.27"/><polygon points="124.36 54.22 112.69 47.61 112.69 47.3 112.96 47.14 124.35 53.6 124.35 53.91 124.36 54.22"/><polygon points="124.21 52.29 114.16 46.59 114.29 46.36 114.42 46.13 124.47 51.82 124.34 52.05 124.21 52.29"/><polygon points="112.69 47.61 101.4 54.25 101.13 54.1 101.13 53.79 112.42 47.15 112.69 47.3 112.69 47.61"/><polygon points="101.4 54.25 101.51 67.34 101.24 67.5 100.97 67.35 100.87 54.25 101.13 54.1 101.4 54.25"/><polygon points="101.39 69.59 91.44 75.44 91.3 75.21 91.16 74.98 101.12 69.13 101.25 69.36 101.39 69.59"/><polygon points="101.24 67.81 89.95 74.45 89.68 74.3 89.41 74.14 100.97 67.35 101.24 67.5 101.24 67.81"/><polygon points="89.95 74.45 90.06 87.55 89.79 87.7 89.52 87.86 89.41 74.14 89.68 74.3 89.95 74.45"/><polygon points="91.52 86.53 101.57 92.22 101.44 92.46 101.31 92.69 91.26 87 91.39 86.76 91.52 86.53"/><polygon points="90.06 87.55 101.45 94 101.45 94.31 101.19 94.47 89.52 87.86 89.79 87.7 90.06 87.55"/><polygon points="101.72 94.47 101.81 104.73 101.54 104.74 101.27 104.74 101.19 94.47 101.45 94.31 101.72 94.47"/><g class="cls-1"><text class="cls-2" transform="translate(99.59 110.11)">S</text></g><polygon points="99.06 108.81 91 108.88 91 108.61 91 108.34 99.06 108.28 99.06 108.54 99.06 108.81"/><polygon points="99.05 107.2 90.99 107.27 90.98 107 90.98 106.73 99.05 106.67 99.05 106.94 99.05 107.2"/><g class="cls-1"><text class="cls-2" transform="translate(85.86 110.22)">O</text></g><polygon points="104.06 106.63 112.12 106.56 112.13 106.83 112.13 107.1 104.06 107.16 104.06 106.89 104.06 106.63"/><polygon points="104.07 108.23 112.14 108.17 112.14 108.44 112.14 108.71 104.08 108.77 104.08 108.5 104.07 108.23"/><g class="cls-1"><text class="cls-2" transform="translate(112.67 110.01)">O</text></g><polygon points="101.85 110.7 101.91 118.14 101.64 118.14 101.38 118.14 101.32 110.7 101.58 110.7 101.85 110.7"/><g class="cls-1"><text class="cls-2" transform="translate(99.37 123.52)">O</text><text class="cls-2" transform="translate(103.97 123.52)">H</text></g><polygon points="101.45 94 112.74 87.36 113.01 87.52 113.28 87.67 101.72 94.47 101.45 94.31 101.45 94"/><polygon points="111.13 86.6 111.03 75.06 111.3 75.05 111.57 75.05 111.66 86.6 111.39 86.6 111.13 86.6"/><polygon points="112.74 87.36 112.64 74.27 112.9 74.11 113.17 74.27 113.28 87.67 113.01 87.52 112.74 87.36"/><polygon points="112.9 73.8 121.82 68.56 121.95 68.79 122.09 69.02 113.17 74.27 112.9 74.11 112.9 73.8"/><g class="cls-1"><text class="cls-2" transform="translate(122.49 69.71)">S</text></g><polygon points="127.14 69.75 130.43 75.35 130.19 75.48 129.96 75.62 126.67 70.03 126.91 69.89 127.14 69.75"/><polygon points="125.75 70.57 129.04 76.16 128.81 76.3 128.58 76.43 125.29 70.84 125.52 70.71 125.75 70.57"/><g class="cls-1"><text class="cls-2" transform="translate(128.96 81.27)">O</text></g><polygon points="121.78 64.88 118.49 59.29 118.72 59.15 118.95 59.01 122.24 64.61 122.01 64.74 121.78 64.88"/><polygon points="123.17 64.06 119.88 58.47 120.11 58.33 120.34 58.2 123.63 63.79 123.4 63.93 123.17 64.06"/><g class="cls-1"><text class="cls-2" transform="translate(115.36 58.15)">O</text></g><polygon points="126.83 65.61 133.04 61.96 133.18 62.19 133.32 62.42 127.1 66.07 126.97 65.84 126.83 65.61"/><g class="cls-1"><text class="cls-2" transform="translate(133.72 62.91)">O</text><text class="cls-2" transform="translate(138.31 62.91)">H</text></g><polygon points="112.64 74.27 101.24 67.81 101.24 67.5 101.51 67.34 112.9 73.8 112.9 74.11 112.64 74.27"/><polygon points="100.87 54.25 89.47 47.8 89.47 47.49 89.74 47.33 101.13 53.79 101.13 54.1 100.87 54.25"/><polygon points="100.99 52.47 90.94 46.78 91.07 46.54 91.2 46.31 101.25 52.01 101.12 52.24 100.99 52.47"/><polygon points="89.47 47.8 77.92 54.59 77.91 54.28 77.91 53.97 89.2 47.33 89.47 47.49 89.47 47.8"/><polygon points="77.92 54.59 65.98 47.83 66.25 47.67 66.52 47.51 77.91 53.97 77.91 54.28 77.92 54.59"/><polygon points="77.77 52.66 67.72 46.96 67.85 46.73 67.98 46.5 78.03 52.19 77.9 52.42 77.77 52.66"/><polygon points="65.98 47.83 65.88 34.42 66.14 34.27 66.41 34.42 66.52 47.51 66.25 47.67 65.98 47.83"/><polygon points="65.88 34.42 57.02 29.4 57.15 29.17 57.28 28.93 66.14 33.96 66.14 34.27 65.88 34.42"/><polygon points="66 32.64 57.81 28 57.94 27.77 58.08 27.54 66.26 32.17 66.13 32.41 66 32.64"/><g class="cls-1"><text class="cls-2" transform="translate(52.35 30.05)">N</text></g><polygon points="51.95 29.46 42.93 34.76 42.92 34.45 42.92 34.14 51.67 28.99 51.81 29.23 51.95 29.46"/><polygon points="42.93 34.76 31.13 28.07 31.26 27.84 31.39 27.61 42.92 34.14 42.92 34.45 42.93 34.76"/><polygon points="54.19 24.68 54.11 14.41 54.37 14.25 54.64 14.09 54.72 24.67 54.46 24.67 54.19 24.68"/><polygon points="54.11 14.41 42.58 7.87 42.71 7.64 42.84 7.41 54.64 14.09 54.37 14.25 54.11 14.41"/><line class="cls-3" x1="56.45" y1="24.57" x2="58.68" y2="24.57"/><line class="cls-3" x1="57.57" y1="23.45" x2="57.57" y2="25.69"/><polygon points="66.14 33.96 77.7 27.16 77.7 27.47 77.7 27.78 66.41 34.42 66.14 34.27 66.14 33.96"/><polygon points="77.7 27.16 89.36 33.77 89.36 34.08 89.1 34.24 77.7 27.78 77.7 27.47 77.7 27.16"/><polygon points="77.85 29.09 87.89 34.79 87.76 35.02 87.63 35.26 77.58 29.56 77.71 29.33 77.85 29.09"/><polygon points="89.36 33.77 97.95 28.72 98.08 28.95 98.22 29.18 89.63 34.23 89.36 34.08 89.36 33.77"/><g class="cls-1"><text class="cls-2" transform="translate(98.62 29.68)">O</text></g><polygon points="103.89 28.66 112.58 33.59 112.58 33.9 112.31 34.05 103.62 29.13 103.75 28.89 103.89 28.66"/><polygon points="112.58 33.59 124.14 26.79 124.14 27.1 124.14 27.41 112.85 34.05 112.58 33.9 112.58 33.59"/><polygon points="114.06 34.58 124.02 28.73 124.15 28.96 124.29 29.19 114.33 35.04 114.2 34.81 114.06 34.58"/><polygon points="124.14 26.79 135.8 33.4 135.8 33.71 135.53 33.87 124.14 27.41 124.14 27.1 124.14 26.79"/><polygon points="112.85 34.05 112.96 47.14 112.69 47.3 112.42 47.15 112.31 34.05 112.58 33.9 112.85 34.05"/><polygon points="89.63 34.23 89.74 47.33 89.47 47.49 89.2 47.33 89.1 34.24 89.36 34.08 89.63 34.23"/></svg>