<svg id="图层_1" data-name="图层 1" xmlns="http://www.w3.org/2000/svg" viewBox="0 0 200 130"><defs><style>.cls-1,.cls-2,.cls-3{fill:#251e1c;}.cls-2,.cls-3{isolation:isolate;font-family:ArialMT, Arial;}.cls-2{font-size:8.31px;}.cls-3{font-size:5.11px;}</style></defs><title>Tetracycline_Simi_compound12</title><polygon class="cls-1" points="136.53 82.07 149.22 95.44 147.91 96.52 146.6 97.59 135.9 82.59 135.93 81.98 136.53 82.07"/><polygon class="cls-1" points="135.35 82.08 119.51 72.73 119.7 72.41 120.08 72.2 135.94 81.54 135.93 81.98 135.35 82.08"/><polygon class="cls-1" points="119.46 72.08 119.86 72.79 119.54 72.97 119.21 73.16 118.81 72.45 119.14 72.27 119.46 72.08"/><polygon class="cls-1" points="117.42 73.06 117.98 74.03 117.65 74.22 117.32 74.41 116.77 73.42 117.09 73.24 117.42 73.06"/><polygon class="cls-1" points="115.38 74.03 116.09 75.28 115.76 75.47 115.43 75.65 114.72 74.39 115.05 74.21 115.38 74.03"/><polygon class="cls-1" points="113.34 75 114.21 76.53 113.88 76.72 113.55 76.9 112.68 75.36 113.01 75.18 113.34 75"/><polygon class="cls-1" points="111.3 75.97 112.32 77.77 111.99 77.96 111.66 78.15 110.64 76.34 110.97 76.15 111.3 75.97"/><polygon class="cls-1" points="109.25 76.94 110.43 79.03 110.11 79.21 109.78 79.39 108.6 77.31 108.93 77.13 109.25 76.94"/><polygon class="cls-1" points="107.22 77.92 108.55 80.27 108.22 80.46 107.9 80.64 106.56 78.28 106.89 78.1 107.22 77.92"/><polygon class="cls-1" points="105.18 78.89 106.66 81.52 106.34 81.7 106.01 81.89 104.52 79.26 104.85 79.07 105.18 78.89"/><polygon class="cls-1" points="103.14 79.86 104.78 82.77 104.45 82.95 104.12 83.14 102.48 80.23 102.81 80.04 103.14 79.86"/><polygon class="cls-1" points="86.9 72.49 87.32 71.79 87.64 71.98 87.97 72.17 87.55 72.87 87.23 72.68 86.9 72.49"/><polygon class="cls-1" points="88.77 73.77 89.34 72.8 89.66 72.99 89.99 73.18 89.41 74.15 89.09 73.96 88.77 73.77"/><polygon class="cls-1" points="90.63 75.05 91.36 73.81 91.69 74 92.01 74.19 91.28 75.43 90.95 75.24 90.63 75.05"/><polygon class="cls-1" points="92.49 76.33 93.38 74.82 93.71 75.01 94.03 75.2 93.14 76.72 92.81 76.52 92.49 76.33"/><polygon class="cls-1" points="94.35 77.61 95.41 75.83 95.73 76.01 96.05 76.21 95 78 94.68 77.81 94.35 77.61"/><polygon class="cls-1" points="96.22 78.89 97.43 76.84 97.75 77.02 98.08 77.22 96.86 79.28 96.54 79.09 96.22 78.89"/><polygon class="cls-1" points="98.08 80.18 99.45 77.84 99.78 78.03 100.1 78.23 98.73 80.56 98.4 80.36 98.08 80.18"/><polygon class="cls-1" points="99.94 81.46 101.48 78.85 101.8 79.05 102.13 79.23 100.59 81.84 100.27 81.65 99.94 81.46"/><polygon class="cls-1" points="101.8 82.74 103.5 79.86 103.83 80.06 104.15 80.24 102.45 83.12 102.13 82.93 101.8 82.74"/><polygon class="cls-1" points="87.26 72.45 71.07 81.6 70.67 81.39 70.68 80.95 86.7 71.9 87.07 72.12 87.26 72.45"/><polygon class="cls-1" points="70.28 81.59 54.06 72.04 54.45 71.82 54.82 71.61 70.68 80.95 70.67 81.39 70.28 81.59"/><polygon class="cls-1" points="55.75 72.81 42.77 80.15 42.58 79.82 42.4 79.49 55.38 72.16 55.57 72.49 55.75 72.81"/><polygon class="cls-1" points="54.64 70.85 41.66 78.18 41.47 77.85 41.29 77.53 54.27 70.19 54.45 70.52 54.64 70.85"/><text class="cls-2" transform="translate(34.81 84.45)">O</text><polygon class="cls-1" points="54.06 72.04 54.24 53.2 54.61 52.98 54.99 53.2 54.82 71.61 54.45 71.82 54.06 72.04"/><polygon class="cls-1" points="54.62 52.55 70.64 43.49 71.01 43.71 71.01 44.15 54.99 53.2 54.61 52.98 54.62 52.55"/><polygon class="cls-1" points="56.67 53.98 70.81 45.99 70.99 46.32 71.17 46.65 57.05 54.63 56.86 54.31 56.67 53.98"/><polygon class="cls-1" points="71.39 43.49 86.81 52.59 87.25 53.27 86.86 53.49 71.01 44.15 71.01 43.71 71.39 43.49"/><polygon class="cls-1" points="87.69 52.59 103.64 43.57 103.64 44 103.64 44.44 87.62 53.5 87.25 53.27 87.69 52.59"/><polygon class="cls-1" points="102.13 44.65 102.27 29.34 102.65 29.35 103.02 29.35 102.88 44.65 102.51 44.65 102.13 44.65"/><polygon class="cls-1" points="104.39 44.67 104.53 29.36 104.9 29.37 105.28 29.37 105.14 44.67 104.76 44.67 104.39 44.67"/><text class="cls-2" transform="translate(100.58 28.53)">O</text><polygon class="cls-1" points="103.64 43.57 119.88 53.14 119.87 53.58 119.49 53.79 103.64 44.44 103.64 44 103.64 43.57"/><polygon class="cls-1" points="119.88 53.14 135.9 44.08 136.27 44.3 136.26 44.74 120.25 53.8 119.87 53.58 119.88 53.14"/><polygon class="cls-1" points="121.93 54.57 136.06 46.58 136.25 46.92 136.43 47.24 122.31 55.23 122.12 54.9 121.93 54.57"/><polygon class="cls-1" points="136.65 44.09 152.5 53.44 152.5 53.87 152.12 54.09 136.26 44.74 136.27 44.3 136.65 44.09"/><polygon class="cls-1" points="152.87 54.09 152.71 72.49 152.33 72.71 151.95 72.49 152.12 54.09 152.5 53.87 152.87 54.09"/><polygon class="cls-1" points="150.6 55.16 150.46 71.38 150.08 71.38 149.71 71.38 149.85 55.15 150.23 55.16 150.6 55.16"/><polygon class="cls-1" points="152.71 72.49 168.56 81.84 168.56 82.27 168.56 82.71 152.32 73.14 152.33 72.71 152.71 72.49"/><polygon class="cls-1" points="168.39 79.33 182.53 71.35 182.71 71.68 182.89 72 168.77 79.99 168.58 79.66 168.39 79.33"/><polygon class="cls-1" points="168.56 81.84 184.59 72.78 184.95 73 185.34 73.22 168.56 82.71 168.56 82.27 168.56 81.84"/><polygon class="cls-1" points="184.59 72.78 184.75 54.38 185.13 54.16 185.51 53.95 185.34 73.22 184.95 73 184.59 72.78"/><polygon class="cls-1" points="182.66 55.77 168.68 47.53 168.88 47.21 169.06 46.88 183.05 55.12 182.86 55.45 182.66 55.77"/><polygon class="cls-1" points="184.75 54.38 168.9 45.03 168.9 44.6 169.28 44.39 185.51 53.95 185.13 54.16 184.75 54.38"/><polygon class="cls-1" points="168.52 44.38 168.66 29.95 169.03 29.95 169.41 29.95 169.28 44.39 168.9 44.6 168.52 44.38"/><text class="cls-2" transform="translate(165.84 29.12)">O</text><text class="cls-2" transform="translate(172.3 29.12)">H</text><polygon class="cls-1" points="168.9 45.03 152.87 54.09 152.5 53.87 152.5 53.44 168.52 44.38 168.9 44.6 168.9 45.03"/><polygon class="cls-1" points="152.32 73.14 136.53 82.07 135.93 81.98 135.94 81.54 151.95 72.49 152.33 72.71 152.32 73.14"/><polygon class="cls-1" points="135.9 44.08 136.03 29.65 136.4 29.65 136.78 29.66 136.65 44.09 136.27 44.3 135.9 44.08"/><text class="cls-2" transform="translate(133.21 28.83)">O</text><text class="cls-2" transform="translate(139.67 28.83)">H</text><polygon class="cls-1" points="120.25 53.8 120.08 72.2 119.7 72.41 119.32 72.41 119.49 53.79 119.87 53.58 120.25 53.8"/><polygon class="cls-1" points="86.81 52.59 85.68 38.62 87.37 38.63 89.07 38.64 87.69 52.59 87.25 53.27 86.81 52.59"/><text class="cls-2" transform="translate(84.18 37.81)">O</text><text class="cls-2" transform="translate(90.65 37.81)">H</text><polygon class="cls-1" points="87.62 53.5 87.45 72.12 87.07 72.12 86.7 71.9 86.86 53.49 87.25 53.27 87.62 53.5"/><polygon class="cls-1" points="70.64 43.49 70.77 29.06 71.15 29.06 71.52 29.07 71.39 43.49 71.01 43.71 70.64 43.49"/><text class="cls-2" transform="translate(67.95 28.24)">O</text><text class="cls-2" transform="translate(74.41 28.24)">H</text><polygon class="cls-1" points="54.24 53.2 38.38 43.85 38.39 43.41 38.39 42.98 54.62 52.55 54.61 52.98 54.24 53.2"/><polygon class="cls-1" points="36.88 44.06 37.01 28.76 37.39 28.76 37.77 28.76 37.62 44.06 37.25 44.06 36.88 44.06"/><polygon class="cls-1" points="39.13 44.08 39.27 28.78 39.65 28.78 40.03 28.78 39.89 44.08 39.51 44.08 39.13 44.08"/><text class="cls-2" transform="translate(35.32 27.94)">O</text><polygon class="cls-1" points="38.38 43.85 25.92 50.89 25.74 50.56 25.56 50.24 38.39 42.98 38.39 43.41 38.38 43.85"/><text class="cls-2" transform="translate(10.22 54.98)">H</text><text class="cls-3" transform="translate(16.22 56.26)">2</text><text class="cls-2" transform="translate(19.06 54.98)">N</text><polygon class="cls-1" points="71.07 81.6 72.24 96.05 70.54 96.03 68.84 96.02 70.28 81.59 70.67 81.39 71.07 81.6"/><text class="cls-2" transform="translate(67.51 103.59)">N</text><polygon class="cls-1" points="66.94 102.67 54.28 109.82 54.1 109.5 53.92 109.17 66.56 102.02 66.75 102.35 66.94 102.67"/><polygon class="cls-1" points="74.45 102.11 86.92 109.47 86.73 109.79 86.54 110.12 74.06 102.76 74.25 102.43 74.45 102.11"/><polygon class="cls-1" points="135.9 82.59 127.56 92.35 127.27 92.11 126.99 91.86 135.35 82.08 135.93 81.98 135.9 82.59"/><text class="cls-2" transform="translate(114.46 99.66)">H</text><text class="cls-2" transform="translate(120.46 99.66)">O</text></svg>