<svg id="图层_1" data-name="图层 1" xmlns="http://www.w3.org/2000/svg" viewBox="0 0 200 130"><defs><style>.cls-1,.cls-2,.cls-3{fill:#251e1c;}.cls-2,.cls-3{isolation:isolate;font-family:ArialMT, Arial;}.cls-2{font-size:6.75px;}.cls-3{font-size:4.15px;}</style></defs><title>Tetracycline_Simi_compound4</title><polygon class="cls-1" points="127.3 74.66 127.8 74.23 128 74.46 128.19 74.7 127.69 75.12 127.49 74.89 127.3 74.66"/><polygon class="cls-1" points="128.27 75.98 128.94 75.4 129.14 75.63 129.34 75.86 128.66 76.44 128.46 76.21 128.27 75.98"/><polygon class="cls-1" points="129.24 77.29 130.09 76.56 130.28 76.8 130.49 77.03 129.63 77.76 129.43 77.52 129.24 77.29"/><polygon class="cls-1" points="130.21 78.6 131.23 77.73 131.43 77.97 131.63 78.2 130.6 79.07 130.4 78.84 130.21 78.6"/><polygon class="cls-1" points="131.18 79.92 132.38 78.89 132.57 79.13 132.77 79.36 131.57 80.38 131.37 80.15 131.18 79.92"/><polygon class="cls-1" points="132.15 81.23 133.52 80.06 133.71 80.3 133.91 80.53 132.54 81.7 132.34 81.46 132.15 81.23"/><polygon class="cls-1" points="133.12 82.55 134.66 81.23 134.86 81.46 135.06 81.7 133.51 83.01 133.31 82.78 133.12 82.55"/><polygon class="cls-1" points="134.08 83.86 135.8 82.4 136 82.63 136.2 82.86 134.48 84.33 134.28 84.09 134.08 83.86"/><polygon class="cls-1" points="135.05 85.17 136.95 83.56 137.15 83.8 137.34 84.03 135.45 85.64 135.25 85.41 135.05 85.17"/><polygon class="cls-1" points="136.02 86.49 138.09 84.73 138.29 84.96 138.49 85.19 136.42 86.96 136.22 86.72 136.02 86.49"/><polygon class="cls-1" points="127.06 74.5 114.22 67.22 114.2 66.86 114.51 66.68 127.52 74.06 127.53 74.42 127.06 74.5"/><polygon class="cls-1" points="114.22 67.22 99.45 77.34 101 74.61 102.22 72.48 113.9 66.67 114.2 66.86 114.22 67.22"/><polygon class="cls-1" points="87.56 67.36 87.88 66.79 88.15 66.94 88.41 67.09 88.09 67.67 87.82 67.52 87.56 67.36"/><polygon class="cls-1" points="88.92 68.27 89.35 67.49 89.62 67.65 89.89 67.8 89.45 68.57 89.18 68.42 88.92 68.27"/><polygon class="cls-1" points="90.28 69.17 90.83 68.2 91.09 68.35 91.36 68.5 90.81 69.47 90.54 69.32 90.28 69.17"/><polygon class="cls-1" points="91.64 70.07 92.3 68.9 92.56 69.05 92.83 69.2 92.17 70.38 91.9 70.22 91.64 70.07"/><polygon class="cls-1" points="93 70.98 93.78 69.61 94.04 69.76 94.31 69.91 93.53 71.28 93.27 71.13 93 70.98"/><polygon class="cls-1" points="94.36 71.88 95.25 70.31 95.52 70.47 95.78 70.62 94.89 72.18 94.62 72.03 94.36 71.88"/><polygon class="cls-1" points="95.72 72.78 96.72 71.02 96.99 71.17 97.25 71.32 96.25 73.08 95.98 72.93 95.72 72.78"/><polygon class="cls-1" points="97.08 73.69 98.19 71.72 98.46 71.87 98.73 72.03 97.61 73.99 97.35 73.84 97.08 73.69"/><polygon class="cls-1" points="98.44 74.59 99.67 72.43 99.93 72.58 100.2 72.73 98.97 74.89 98.71 74.74 98.44 74.59"/><polygon class="cls-1" points="99.8 75.49 101.14 73.13 101.41 73.28 101.67 73.44 100.33 75.79 100.07 75.64 99.8 75.49"/><polygon class="cls-1" points="87.84 67.32 74.64 75.08 74.48 74.81 74.48 74.46 87.38 66.88 87.69 67.06 87.84 67.32"/><polygon class="cls-1" points="74.33 75.08 60.86 67.43 61.16 67.25 61.47 67.08 74.48 74.46 74.48 74.81 74.33 75.08"/><polygon class="cls-1" points="62.24 68.04 51.82 74.16 51.66 73.9 51.51 73.64 61.93 67.52 62.09 67.78 62.24 68.04"/><polygon class="cls-1" points="61.31 66.46 50.89 72.58 50.74 72.31 50.58 72.05 61 65.93 61.16 66.19 61.31 66.46"/><text class="cls-2" transform="translate(45.34 77.75)">O</text><polygon class="cls-1" points="60.86 67.43 60.75 52.12 61.05 51.95 61.36 52.12 61.47 67.08 61.16 67.25 60.86 67.43"/><polygon class="cls-1" points="61.05 51.59 73.95 44.01 74.25 44.19 74.26 44.54 61.36 52.12 61.05 51.95 61.05 51.59"/><polygon class="cls-1" points="62.74 52.73 74.12 46.05 74.27 46.31 74.43 46.58 63.05 53.26 62.9 52.99 62.74 52.73"/><polygon class="cls-1" points="74.56 44.01 87.72 51.48 87.57 51.74 87.27 51.93 74.26 44.54 74.25 44.19 74.56 44.01"/><polygon class="cls-1" points="87.42 51.48 100.78 43.64 100.78 43.99 100.78 44.34 87.88 51.92 87.57 51.74 87.42 51.48"/><polygon class="cls-1" points="99.56 44.53 99.46 32.09 99.77 32.09 100.07 32.09 100.17 44.53 99.86 44.53 99.56 44.53"/><polygon class="cls-1" points="101.39 44.52 101.3 32.08 101.6 32.08 101.91 32.08 102 44.51 101.7 44.51 101.39 44.52"/><text class="cls-2" transform="translate(98.03 31.42)">O</text><polygon class="cls-1" points="100.78 43.64 114.09 51.19 114.09 51.55 113.79 51.73 100.78 44.34 100.78 43.99 100.78 43.64"/><polygon class="cls-1" points="114.09 51.19 126.99 43.62 127.3 43.79 127.3 44.15 114.4 51.72 114.09 51.55 114.09 51.19"/><polygon class="cls-1" points="115.78 52.33 127.16 45.65 127.31 45.91 127.47 46.18 116.09 52.86 115.94 52.6 115.78 52.33"/><polygon class="cls-1" points="127.6 43.62 140.61 51 140.61 51.35 140.31 51.53 127.3 44.15 127.3 43.79 127.6 43.62"/><polygon class="cls-1" points="140.92 51.53 141.03 66.48 140.73 66.66 140.42 66.49 140.31 51.53 140.61 51.35 140.92 51.53"/><polygon class="cls-1" points="139.09 52.42 139.19 65.62 138.88 65.62 138.58 65.62 138.48 52.43 138.78 52.43 139.09 52.42"/><polygon class="cls-1" points="141.03 66.48 154.04 73.87 154.05 74.22 154.05 74.57 140.73 67.02 140.73 66.66 141.03 66.48"/><polygon class="cls-1" points="153.88 71.84 165.25 65.16 165.41 65.42 165.56 65.68 154.18 72.36 154.03 72.1 153.88 71.84"/><polygon class="cls-1" points="154.04 73.87 166.94 66.29 167.25 66.47 167.56 66.64 154.05 74.57 154.05 74.22 154.04 73.87"/><polygon class="cls-1" points="166.94 66.29 166.83 51.33 167.14 51.16 167.44 50.98 167.56 66.64 167.25 66.47 166.94 66.29"/><polygon class="cls-1" points="165.16 52.5 153.68 45.98 153.83 45.72 153.98 45.45 165.46 51.96 165.31 52.23 165.16 52.5"/><polygon class="cls-1" points="166.83 51.33 153.82 43.95 153.82 43.6 154.13 43.42 167.44 50.98 167.14 51.16 166.83 51.33"/><polygon class="cls-1" points="153.51 43.42 153.42 31.69 153.73 31.69 154.03 31.69 154.13 43.42 153.82 43.6 153.51 43.42"/><text class="cls-2" transform="translate(151.08 31.02)">O</text><text class="cls-2" transform="translate(156.33 31.02)">H</text><polygon class="cls-1" points="153.82 43.95 140.92 51.53 140.61 51.35 140.61 51 153.51 43.42 153.82 43.6 153.82 43.95"/><polygon class="cls-1" points="140.73 67.02 127.68 74.68 127.53 74.42 127.52 74.06 140.42 66.49 140.73 66.66 140.73 67.02"/><polygon class="cls-1" points="126.99 43.62 126.9 31.89 127.21 31.89 127.52 31.88 127.6 43.62 127.3 43.79 126.99 43.62"/><text class="cls-2" transform="translate(124.56 31.22)">O</text><text class="cls-2" transform="translate(129.81 31.22)">H</text><polygon class="cls-1" points="114.4 51.72 114.51 66.68 114.2 66.86 113.9 66.67 113.79 51.73 114.09 51.55 114.4 51.72"/><polygon class="cls-1" points="87.91 51.7 87.23 51.7 87.23 51.39 87.23 51.09 87.91 51.08 87.91 51.39 87.91 51.7"/><polygon class="cls-1" points="88.06 49.82 87.05 49.83 87.05 49.52 87.05 49.22 88.06 49.21 88.06 49.51 88.06 49.82"/><polygon class="cls-1" points="88.22 47.95 86.87 47.95 86.87 47.65 86.86 47.34 88.22 47.33 88.22 47.64 88.22 47.95"/><polygon class="cls-1" points="88.38 46.07 86.69 46.08 86.69 45.77 86.68 45.47 88.37 45.45 88.37 45.76 88.38 46.07"/><polygon class="cls-1" points="88.53 44.19 86.5 44.21 86.5 43.9 86.5 43.6 88.53 43.58 88.53 43.89 88.53 44.19"/><polygon class="cls-1" points="88.68 42.32 86.32 42.34 86.32 42.03 86.32 41.72 88.68 41.7 88.68 42.01 88.68 42.32"/><polygon class="cls-1" points="88.84 40.44 86.14 40.46 86.13 40.15 86.13 39.85 88.83 39.83 88.83 40.14 88.84 40.44"/><text class="cls-2" transform="translate(84.83 39.17)">O</text><text class="cls-2" transform="translate(90.08 39.17)">H</text><polygon class="cls-1" points="87.88 51.92 87.99 67.06 87.69 67.06 87.38 66.88 87.27 51.93 87.57 51.74 87.88 51.92"/><polygon class="cls-1" points="73.95 44.01 73.86 32.28 74.17 32.28 74.47 32.28 74.56 44.01 74.25 44.19 73.95 44.01"/><text class="cls-2" transform="translate(71.52 31.61)">O</text><text class="cls-2" transform="translate(76.77 31.61)">H</text><polygon class="cls-1" points="60.75 52.12 47.73 44.74 47.73 44.38 47.73 44.03 61.05 51.59 61.05 51.95 60.75 52.12"/><polygon class="cls-1" points="46.51 44.93 46.42 32.49 46.72 32.48 47.03 32.48 47.13 44.92 46.82 44.92 46.51 44.93"/><polygon class="cls-1" points="48.35 44.91 48.26 32.48 48.56 32.47 48.87 32.47 48.96 44.91 48.66 44.91 48.35 44.91"/><text class="cls-2" transform="translate(44.99 31.81)">O</text><polygon class="cls-1" points="47.73 44.74 37.73 50.62 37.58 50.35 37.42 50.09 47.73 44.03 47.73 44.38 47.73 44.74"/><text class="cls-2" transform="translate(24.96 54.01)">H</text><text class="cls-3" transform="translate(29.84 55.05)">2</text><text class="cls-2" transform="translate(32.15 54.01)">N</text><polygon class="cls-1" points="74.14 74.86 74.82 74.86 74.82 75.17 74.83 75.47 74.15 75.47 74.15 75.17 74.14 74.86"/><polygon class="cls-1" points="73.99 76.74 75 76.73 75 77.04 75.01 77.34 73.99 77.35 73.99 77.05 73.99 76.74"/><polygon class="cls-1" points="73.83 78.61 75.19 78.6 75.19 78.91 75.19 79.22 73.84 79.23 73.84 78.92 73.83 78.61"/><polygon class="cls-1" points="73.68 80.49 75.37 80.47 75.37 80.78 75.37 81.09 73.68 81.1 73.68 80.79 73.68 80.49"/><polygon class="cls-1" points="73.52 82.36 75.55 82.35 75.56 82.66 75.56 82.96 73.53 82.98 73.53 82.67 73.52 82.36"/><polygon class="cls-1" points="73.37 84.24 75.73 84.22 75.74 84.53 75.74 84.84 73.37 84.86 73.37 84.55 73.37 84.24"/><polygon class="cls-1" points="73.21 86.12 75.92 86.1 75.92 86.41 75.92 86.71 73.22 86.73 73.22 86.42 73.21 86.12"/><text class="cls-2" transform="translate(72.16 92.86)">N</text><polygon class="cls-1" points="71.7 92.18 61.55 98.14 61.39 97.88 61.24 97.62 71.39 91.65 71.55 91.92 71.7 92.18"/><polygon class="cls-1" points="77.8 91.59 88.06 97.42 87.92 97.68 87.76 97.95 77.5 92.12 77.64 91.86 77.8 91.59"/><polygon class="cls-1" points="127.76 74.61 120.82 83.01 120.58 82.82 120.35 82.62 127.06 74.5 127.53 74.42 127.76 74.61"/><text class="cls-2" transform="translate(110.27 88.96)">H</text><text class="cls-2" transform="translate(115.14 88.96)">O</text></svg>