<svg id="图层_1" data-name="图层 1" xmlns="http://www.w3.org/2000/svg" viewBox="0 0 200 130"><defs><style>.cls-1,.cls-2,.cls-3{fill:#251e1c;}.cls-2,.cls-3{isolation:isolate;font-family:ArialMT, Arial;}.cls-2{font-size:8.22px;}.cls-3{font-size:5.06px;}</style></defs><title>Tetracycline_Simi_compound11</title><polygon class="cls-1" points="136.58 82.5 137.19 81.97 137.44 82.26 137.68 82.54 137.07 83.06 136.82 82.78 136.58 82.5"/><polygon class="cls-1" points="137.76 84.09 138.59 83.39 138.83 83.67 139.07 83.95 138.25 84.66 138.01 84.37 137.76 84.09"/><polygon class="cls-1" points="138.95 85.69 139.98 84.8 140.22 85.08 140.47 85.37 139.43 86.25 139.19 85.97 138.95 85.69"/><polygon class="cls-1" points="140.13 87.28 141.37 86.22 141.62 86.5 141.86 86.78 140.62 87.85 140.37 87.57 140.13 87.28"/><polygon class="cls-1" points="141.31 88.88 142.77 87.64 143.01 87.92 143.25 88.2 141.8 89.45 141.56 89.16 141.31 88.88"/><polygon class="cls-1" points="142.5 90.47 144.16 89.05 144.41 89.33 144.65 89.61 142.99 91.04 142.74 90.76 142.5 90.47"/><polygon class="cls-1" points="143.69 92.07 145.56 90.46 145.8 90.75 146.04 91.03 144.17 92.63 143.93 92.35 143.69 92.07"/><polygon class="cls-1" points="144.87 93.67 146.96 91.88 147.19 92.16 147.44 92.45 145.35 94.23 145.11 93.95 144.87 93.67"/><polygon class="cls-1" points="146.05 95.26 148.34 93.29 148.59 93.58 148.83 93.86 146.53 95.83 146.29 95.54 146.05 95.26"/><polygon class="cls-1" points="147.24 96.86 149.74 94.71 149.99 94.99 150.22 95.28 147.72 97.42 147.47 97.14 147.24 96.86"/><polygon class="cls-1" points="136.29 82.31 120.64 73.48 120.63 73.04 121.02 72.83 136.85 81.77 136.86 82.2 136.29 82.31"/><polygon class="cls-1" points="120.64 73.48 104.78 82.84 104.6 82.52 104.59 82.09 120.25 72.84 120.63 73.04 120.64 73.48"/><polygon class="cls-1" points="104.41 82.84 88.39 73.8 88.37 73.36 88.75 73.14 104.59 82.09 104.6 82.52 104.41 82.84"/><polygon class="cls-1" points="88.39 73.8 75.24 82.86 72.34 82.84 70.98 81.64 88 73.14 88.37 73.36 88.39 73.8"/><polygon class="cls-1" points="72.15 83.16 55.74 73.9 56.11 73.68 56.48 73.46 70.98 81.64 72.34 82.84 72.15 83.16"/><polygon class="cls-1" points="57.42 74.64 44.77 82.11 44.58 81.79 44.39 81.47 57.04 74 57.24 74.32 57.42 74.64"/><polygon class="cls-1" points="56.29 72.71 43.63 80.19 43.45 79.86 43.25 79.54 55.91 72.07 56.1 72.39 56.29 72.71"/><text class="cls-2" transform="translate(36.88 86.48)">O</text><polygon class="cls-1" points="55.74 73.9 55.55 55.27 55.93 55.05 56.3 55.27 56.48 73.46 56.11 73.68 55.74 73.9"/><polygon class="cls-1" points="55.92 54.63 71.59 45.37 71.97 45.58 71.97 46.01 56.3 55.27 55.93 55.05 55.92 54.63"/><polygon class="cls-1" points="57.98 56.01 71.81 47.84 71.99 48.16 72.19 48.48 58.36 56.64 58.18 56.33 57.98 56.01"/><polygon class="cls-1" points="72.34 45.37 88.37 54.41 88.19 54.74 87.82 54.95 71.97 46.01 71.97 45.58 72.34 45.37"/><polygon class="cls-1" points="88 54.42 104.22 44.84 104.23 45.27 104.24 45.69 88.56 54.95 88.19 54.74 88 54.42"/><polygon class="cls-1" points="102.75 45.93 102.59 30.8 102.97 30.79 103.34 30.79 103.49 45.91 103.11 45.92 102.75 45.93"/><polygon class="cls-1" points="104.98 45.9 104.83 30.77 105.2 30.77 105.58 30.77 105.72 45.9 105.35 45.9 104.98 45.9"/><text class="cls-2" transform="translate(100.85 29.97)">O</text><polygon class="cls-1" points="104.22 44.84 120.44 53.99 120.45 54.42 118.73 53.87 104.24 45.69 104.23 45.27 104.22 44.84"/><polygon class="cls-1" points="120.44 53.99 136.12 44.74 136.49 44.95 136.5 45.38 122.16 53.84 120.45 54.42 120.44 53.99"/><polygon class="cls-1" points="122.51 55.37 136.33 47.21 136.51 47.53 136.71 47.85 122.89 56.01 122.7 55.69 122.51 55.37"/><polygon class="cls-1" points="136.86 44.73 152.71 53.67 152.71 54.1 152.34 54.32 136.5 45.38 136.49 44.95 136.86 44.73"/><polygon class="cls-1" points="153.09 54.31 153.27 72.51 152.9 72.73 152.52 72.51 152.34 54.32 152.71 54.1 153.09 54.31"/><polygon class="cls-1" points="150.86 55.41 151.02 71.46 150.65 71.46 150.28 71.46 150.12 55.41 150.49 55.41 150.86 55.41"/><polygon class="cls-1" points="153.27 72.51 169.12 81.45 169.12 81.88 169.13 82.31 152.9 73.16 152.9 72.73 153.27 72.51"/><polygon class="cls-1" points="168.91 78.98 182.72 70.82 182.91 71.14 183.1 71.46 169.28 79.62 169.09 79.3 168.91 78.98"/><polygon class="cls-1" points="169.12 81.45 184.78 72.2 185.16 72.41 185.53 72.62 169.13 82.31 169.12 81.88 169.12 81.45"/><polygon class="cls-1" points="184.78 72.2 184.61 54 184.97 53.78 185.35 53.56 185.53 72.62 185.16 72.41 184.78 72.2"/><polygon class="cls-1" points="182.57 55.42 168.59 47.53 168.78 47.21 168.96 46.88 182.94 54.77 182.75 55.09 182.57 55.42"/><polygon class="cls-1" points="184.61 54 168.76 45.06 168.75 44.63 169.12 44.41 185.35 53.56 184.97 53.78 184.61 54"/><polygon class="cls-1" points="168.38 44.41 168.24 30.15 168.61 30.14 168.98 30.14 169.12 44.41 168.75 44.63 168.38 44.41"/><text class="cls-2" transform="translate(165.37 29.33)">O</text><text class="cls-2" transform="translate(171.76 29.33)">H</text><polygon class="cls-1" points="168.76 45.06 153.09 54.31 152.71 54.1 152.71 53.67 168.38 44.41 168.75 44.63 168.76 45.06"/><polygon class="cls-1" points="152.9 73.16 137.05 82.52 136.86 82.2 136.85 81.77 152.52 72.51 152.9 72.73 152.9 73.16"/><polygon class="cls-1" points="136.12 44.74 135.98 30.46 136.34 30.46 136.72 30.46 136.86 44.73 136.49 44.95 136.12 44.74"/><text class="cls-2" transform="translate(133.11 29.65)">O</text><text class="cls-2" transform="translate(139.5 29.65)">H</text><polygon class="cls-1" points="120.25 72.84 118.73 53.87 120.45 54.42 122.16 53.84 121.02 72.83 120.63 73.04 120.25 72.84"/><polygon class="cls-1" points="88.6 54.67 87.78 54.69 87.78 54.31 87.77 53.94 88.59 53.93 88.6 54.31 88.6 54.67"/><polygon class="cls-1" points="88.79 52.39 87.55 52.41 87.55 52.03 87.54 51.66 88.77 51.65 88.78 52.02 88.79 52.39"/><polygon class="cls-1" points="88.97 50.11 87.32 50.13 87.32 49.76 87.31 49.38 88.96 49.37 88.96 49.74 88.97 50.11"/><polygon class="cls-1" points="89.15 47.83 87.09 47.85 87.09 47.47 87.09 47.11 89.14 47.08 89.15 47.46 89.15 47.83"/><polygon class="cls-1" points="89.33 45.55 86.86 45.57 86.86 45.2 86.86 44.82 89.32 44.8 89.33 45.17 89.33 45.55"/><polygon class="cls-1" points="89.52 43.26 86.64 43.29 86.64 42.92 86.63 42.55 89.5 42.52 89.51 42.89 89.52 43.26"/><polygon class="cls-1" points="89.7 40.98 86.41 41.02 86.41 40.64 86.4 40.27 89.69 40.23 89.7 40.61 89.7 40.98"/><text class="cls-2" transform="translate(84.81 39.44)">O</text><text class="cls-2" transform="translate(91.2 39.44)">H</text><polygon class="cls-1" points="88.56 54.95 88.75 73.14 88.37 73.36 88 73.14 87.82 54.95 88.19 54.74 88.56 54.95"/><polygon class="cls-1" points="71.59 45.37 71.45 31.1 71.82 31.1 72.2 31.09 72.34 45.37 71.97 45.58 71.59 45.37"/><text class="cls-2" transform="translate(68.59 30.28)">O</text><text class="cls-2" transform="translate(74.98 30.28)">H</text><polygon class="cls-1" points="55.55 55.27 39.71 46.33 39.71 45.9 39.7 45.47 55.92 54.63 55.93 55.05 55.55 55.27"/><polygon class="cls-1" points="38.22 46.56 38.07 31.43 38.45 31.43 38.81 31.42 38.97 46.55 38.59 46.56 38.22 46.56"/><polygon class="cls-1" points="40.45 46.54 40.31 31.41 40.68 31.41 41.05 31.41 41.2 46.53 40.83 46.53 40.45 46.54"/><text class="cls-2" transform="translate(36.33 30.6)">O</text><polygon class="cls-1" points="39.71 46.33 27.57 53.5 27.38 53.19 27.19 52.86 39.7 45.47 39.71 45.9 39.71 46.33"/><text class="cls-2" transform="translate(12.03 57.64)">H</text><text class="cls-3" transform="translate(17.96 58.91)">2</text><text class="cls-2" transform="translate(20.77 57.64)">N</text><polygon class="cls-1" points="71.92 82.89 72.75 82.89 72.75 83.26 72.75 83.64 71.93 83.64 71.93 83.27 71.92 82.89"/><polygon class="cls-1" points="71.74 85.18 72.97 85.17 72.98 85.54 72.98 85.91 71.75 85.92 71.75 85.55 71.74 85.18"/><polygon class="cls-1" points="71.56 87.46 73.2 87.44 73.21 87.82 73.21 88.19 71.57 88.21 71.56 87.83 71.56 87.46"/><polygon class="cls-1" points="71.37 89.74 73.43 89.73 73.43 90.09 73.43 90.47 71.39 90.49 71.38 90.12 71.37 89.74"/><polygon class="cls-1" points="71.19 92.03 73.66 92 73.66 92.38 73.66 92.75 71.2 92.77 71.2 92.4 71.19 92.03"/><polygon class="cls-1" points="71.01 94.31 73.88 94.28 73.89 94.66 73.89 95.03 71.02 95.05 71.01 94.68 71.01 94.31"/><polygon class="cls-1" points="70.83 96.59 74.11 96.56 74.12 96.93 74.12 97.31 70.84 97.33 70.83 96.97 70.83 96.59"/><text class="cls-2" transform="translate(69.55 104.79)">N</text><polygon class="cls-1" points="69 103.97 56.67 111.25 56.48 110.93 56.29 110.61 68.62 103.33 68.81 103.65 69 103.97"/><polygon class="cls-1" points="76.41 103.23 88.93 110.29 88.74 110.62 88.56 110.94 76.05 103.88 76.23 103.55 76.41 103.23"/><polygon class="cls-1" points="104.18 82.58 105.01 82.57 105.01 82.94 105.01 83.31 104.19 83.32 104.19 82.95 104.18 82.58"/><polygon class="cls-1" points="104 84.86 105.23 84.85 105.24 85.22 105.25 85.59 104.01 85.6 104.01 85.24 104 84.86"/><polygon class="cls-1" points="103.82 87.14 105.46 87.13 105.47 87.5 105.47 87.88 103.83 87.89 103.82 87.51 103.82 87.14"/><polygon class="cls-1" points="103.64 89.43 105.69 89.41 105.7 89.78 105.7 90.15 103.65 90.17 103.64 89.8 103.64 89.43"/><polygon class="cls-1" points="103.45 91.71 105.92 91.68 105.92 92.06 105.92 92.43 103.46 92.45 103.46 92.08 103.45 91.71"/><polygon class="cls-1" points="103.27 93.99 106.14 93.96 106.15 94.33 106.16 94.71 103.28 94.74 103.28 94.36 103.27 93.99"/><polygon class="cls-1" points="103.09 96.27 106.37 96.24 106.38 96.62 106.39 96.98 103.1 97.02 103.09 96.65 103.09 96.27"/><text class="cls-2" transform="translate(101.59 104.47)">O</text><text class="cls-2" transform="translate(107.97 104.47)">H</text><polygon class="cls-1" points="137.15 82.44 128.72 92.68 128.43 92.44 128.15 92.21 136.29 82.31 136.86 82.2 137.15 82.44"/><text class="cls-2" transform="translate(115.9 99.91)">H</text><text class="cls-2" transform="translate(121.83 99.91)">O</text></svg>