<svg id="图层_1" data-name="图层 1" xmlns="http://www.w3.org/2000/svg" viewBox="0 0 200 130"><defs><style>.cls-1,.cls-2,.cls-3{fill:#251e1c;}.cls-2,.cls-3{isolation:isolate;font-family:ArialMT, Arial;}.cls-2{font-size:7.54px;}.cls-3{font-size:4.64px;}</style></defs><title>Tetracycline_Simi_compound8</title><polygon class="cls-1" points="136.96 77.17 148.53 89.25 147.34 90.24 146.16 91.22 136.4 77.64 136.41 77.09 136.96 77.17"/><polygon class="cls-1" points="135.89 77.18 121.66 68.88 121.65 68.48 121.99 68.28 136.41 76.7 136.41 77.09 135.89 77.18"/><polygon class="cls-1" points="121.66 68.88 106.8 78.8 106.81 76.96 106.81 75.24 121.31 68.26 121.65 68.48 121.66 68.88"/><polygon class="cls-1" points="92.38 68.13 106.81 75.24 106.81 76.96 106.8 78.8 92.03 68.74 92.04 68.34 92.38 68.13"/><polygon class="cls-1" points="92.03 68.74 77.37 77.11 77.2 76.82 77.2 76.42 91.7 68.14 92.04 68.34 92.03 68.74"/><polygon class="cls-1" points="77.03 77.11 62.09 68.4 62.43 68.2 62.77 68.01 77.2 76.42 77.2 76.82 77.03 77.11"/><polygon class="cls-1" points="63.63 69.1 51.88 75.8 51.71 75.5 51.54 75.21 63.29 68.5 63.46 68.8 63.63 69.1"/><polygon class="cls-1" points="62.6 67.32 50.86 74.02 50.69 73.72 50.52 73.43 62.27 66.72 62.44 67.02 62.6 67.32"/><text class="cls-2" transform="translate(44.65 79.73)">O</text><polygon class="cls-1" points="62.09 68.4 62.17 51.3 62.51 51.11 62.85 51.31 62.77 68.01 62.43 68.2 62.09 68.4"/><polygon class="cls-1" points="62.51 50.71 77.02 42.43 77.36 42.63 77.36 43.02 62.85 51.31 62.51 51.11 62.51 50.71"/><polygon class="cls-1" points="64.39 52.01 77.17 44.7 77.34 45 77.51 45.3 64.72 52.6 64.56 52.3 64.39 52.01"/><polygon class="cls-1" points="77.69 42.43 91.72 50.62 92.12 51.24 91.78 51.44 77.36 43.02 77.36 42.63 77.69 42.43"/><polygon class="cls-1" points="92.52 50.62 106.96 42.37 106.96 42.76 106.96 43.16 92.46 51.44 92.12 51.24 92.52 50.62"/><polygon class="cls-1" points="105.59 43.35 105.66 29.46 106 29.47 106.34 29.47 106.28 43.35 105.94 43.35 105.59 43.35"/><polygon class="cls-1" points="107.64 43.36 107.7 29.48 108.05 29.48 108.39 29.48 108.33 43.36 107.98 43.36 107.64 43.36"/><text class="cls-2" transform="translate(104.11 28.72)">O</text><polygon class="cls-1" points="106.96 42.37 121.73 50.99 121.72 51.38 121.39 51.58 106.96 43.16 106.96 42.76 106.96 42.37"/><polygon class="cls-1" points="121.73 50.99 136.23 42.7 136.57 42.9 136.57 43.3 122.07 51.58 121.72 51.38 121.73 50.99"/><polygon class="cls-1" points="123.6 52.27 136.39 44.97 136.56 45.27 136.73 45.57 123.94 52.87 123.77 52.57 123.6 52.27"/><polygon class="cls-1" points="136.91 42.71 151.34 51.12 151.33 51.52 150.99 51.72 136.57 43.3 136.57 42.9 136.91 42.71"/><polygon class="cls-1" points="151.68 51.72 151.6 68.42 151.26 68.61 150.91 68.41 150.99 51.72 151.33 51.52 151.68 51.72"/><polygon class="cls-1" points="149.62 52.69 149.55 67.42 149.21 67.42 148.87 67.42 148.94 52.69 149.28 52.69 149.62 52.69"/><polygon class="cls-1" points="151.6 68.42 166.02 76.84 166.02 77.23 166.02 77.62 151.25 69 151.26 68.61 151.6 68.42"/><polygon class="cls-1" points="165.86 74.56 178.65 67.26 178.82 67.55 178.99 67.85 166.2 75.15 166.03 74.86 165.86 74.56"/><polygon class="cls-1" points="166.02 76.84 180.53 68.55 180.87 68.75 181.21 68.94 166.02 77.62 166.02 77.23 166.02 76.84"/><polygon class="cls-1" points="180.53 68.55 180.6 51.85 180.95 51.66 181.29 51.45 181.21 68.94 180.87 68.75 180.53 68.55"/><polygon class="cls-1" points="178.72 53.13 166 45.7 166.17 45.41 166.34 45.11 179.06 52.54 178.89 52.83 178.72 53.13"/><polygon class="cls-1" points="180.6 51.85 166.18 43.43 166.18 43.03 166.52 42.84 181.29 51.45 180.95 51.66 180.6 51.85"/><polygon class="cls-1" points="165.84 42.84 165.9 29.74 166.24 29.74 166.58 29.74 166.52 42.84 166.18 43.03 165.84 42.84"/><text class="cls-2" transform="translate(163.33 29)">O</text><text class="cls-2" transform="translate(169.19 29)">H</text><polygon class="cls-1" points="166.18 43.43 151.68 51.72 151.33 51.52 151.34 51.12 165.84 42.84 166.18 43.03 166.18 43.43"/><polygon class="cls-1" points="151.25 69 136.96 77.17 136.41 77.09 136.41 76.7 150.91 68.41 151.26 68.61 151.25 69"/><polygon class="cls-1" points="136.23 42.7 136.29 29.61 136.63 29.61 136.97 29.61 136.91 42.71 136.57 42.9 136.23 42.7"/><text class="cls-2" transform="translate(133.72 28.86)">O</text><text class="cls-2" transform="translate(139.58 28.86)">H</text><polygon class="cls-1" points="122.07 51.58 121.99 68.28 121.65 68.48 121.31 68.26 121.39 51.58 121.72 51.38 122.07 51.58"/><polygon class="cls-1" points="91.72 50.62 90.64 37.95 92.18 37.95 93.72 37.96 92.52 50.62 92.12 51.24 91.72 50.62"/><text class="cls-2" transform="translate(89.27 37.2)">O</text><text class="cls-2" transform="translate(95.13 37.2)">H</text><polygon class="cls-1" points="92.46 51.44 92.38 68.13 92.04 68.34 91.7 68.14 91.78 51.44 92.12 51.24 92.46 51.44"/><polygon class="cls-1" points="77.02 42.43 77.08 29.34 77.42 29.34 77.76 29.34 77.69 42.43 77.36 42.63 77.02 42.43"/><text class="cls-2" transform="translate(74.5 28.59)">O</text><text class="cls-2" transform="translate(80.36 28.59)">H</text><polygon class="cls-1" points="62.17 51.3 47.74 42.89 47.75 42.49 47.75 42.1 62.51 50.71 62.51 51.11 62.17 51.3"/><polygon class="cls-1" points="46.37 43.08 46.44 29.19 46.78 29.2 47.12 29.2 47.06 43.08 46.71 43.08 46.37 43.08"/><polygon class="cls-1" points="48.43 43.09 48.49 29.2 48.83 29.2 49.17 29.21 49.11 43.09 48.77 43.09 48.43 43.09"/><text class="cls-2" transform="translate(44.89 28.45)">O</text><polygon class="cls-1" points="47.74 42.89 36.48 49.32 36.31 49.02 36.14 48.73 47.75 42.1 47.75 42.49 47.74 42.89"/><text class="cls-2" transform="translate(22.22 53.05)">H</text><text class="cls-3" transform="translate(27.66 54.21)">2</text><text class="cls-2" transform="translate(30.24 53.05)">N</text><polygon class="cls-1" points="76.82 76.87 77.57 76.87 77.57 77.21 77.57 77.56 76.81 77.55 76.82 77.21 76.82 76.87"/><polygon class="cls-1" points="76.62 78.96 77.75 78.97 77.75 79.31 77.75 79.65 76.62 79.64 76.62 79.3 76.62 78.96"/><polygon class="cls-1" points="76.42 81.05 77.93 81.06 77.93 81.4 77.93 81.74 76.42 81.74 76.42 81.4 76.42 81.05"/><polygon class="cls-1" points="76.22 83.15 78.11 83.15 78.11 83.49 78.11 83.84 76.22 83.83 76.22 83.49 76.22 83.15"/><polygon class="cls-1" points="76.02 85.24 78.29 85.25 78.28 85.59 78.28 85.93 76.02 85.92 76.02 85.58 76.02 85.24"/><polygon class="cls-1" points="75.83 87.33 78.47 87.34 78.47 87.69 78.47 88.03 75.82 88.01 75.82 87.67 75.83 87.33"/><polygon class="cls-1" points="75.63 89.42 78.65 89.44 78.64 89.78 78.64 90.12 75.63 90.1 75.63 89.76 75.63 89.42"/><text class="cls-2" transform="translate(74.4 96.97)">N</text><polygon class="cls-1" points="73.88 96.15 62.44 102.69 62.27 102.39 62.11 102.09 73.54 95.56 73.71 95.86 73.88 96.15"/><polygon class="cls-1" points="80.7 95.61 92.06 102.23 91.88 102.53 91.71 102.82 80.35 96.2 80.52 95.9 80.7 95.61"/><polygon class="cls-1" points="136.4 77.64 128.84 86.56 128.58 86.33 128.32 86.11 135.89 77.18 136.41 77.09 136.4 77.64"/><text class="cls-2" transform="translate(116.99 93.19)">H</text><text class="cls-2" transform="translate(122.44 93.19)">O</text></svg>