<svg id="图层_1" data-name="图层 1" xmlns="http://www.w3.org/2000/svg" viewBox="0 0 200 130"><defs><style>.cls-1,.cls-2,.cls-4{fill:#251e1c;}.cls-2,.cls-4{isolation:isolate;font-family:ArialMT, Arial;}.cls-2{font-size:7.15px;}.cls-3{fill:none;stroke:#fff;stroke-width:0.94px;}.cls-4{font-size:4.4px;}</style></defs><title>Tetracycline_Simi_compound3</title><polygon class="cls-1" points="135.43 77.42 135.96 76.96 136.18 77.21 136.39 77.45 135.85 77.91 135.64 77.67 135.43 77.42"/><polygon class="cls-1" points="136.47 78.8 137.18 78.19 137.39 78.44 137.6 78.68 136.89 79.3 136.68 79.05 136.47 78.8"/><polygon class="cls-1" points="137.5 80.19 138.4 79.42 138.61 79.66 138.82 79.91 137.93 80.68 137.72 80.44 137.5 80.19"/><polygon class="cls-1" points="138.54 81.58 139.62 80.64 139.83 80.89 140.04 81.14 138.96 82.07 138.75 81.83 138.54 81.58"/><polygon class="cls-1" points="139.57 82.96 140.84 81.88 141.05 82.12 141.26 82.37 140 83.45 139.78 83.21 139.57 82.96"/><polygon class="cls-1" points="140.61 84.35 142.06 83.1 142.27 83.35 142.48 83.59 141.03 84.84 140.82 84.6 140.61 84.35"/><polygon class="cls-1" points="141.65 85.73 143.28 84.33 143.48 84.58 143.7 84.82 142.07 86.23 141.86 85.98 141.65 85.73"/><polygon class="cls-1" points="142.68 87.12 144.49 85.56 144.7 85.81 144.92 86.05 143.11 87.61 142.89 87.37 142.68 87.12"/><polygon class="cls-1" points="143.72 88.51 145.71 86.79 145.92 87.03 146.14 87.28 144.14 89 143.93 88.75 143.72 88.51"/><polygon class="cls-1" points="144.75 89.89 146.93 88.02 147.14 88.26 147.35 88.51 145.18 90.38 144.96 90.14 144.75 89.89"/><polygon class="cls-1" points="135.18 77.25 121.53 69.62 121.52 69.24 121.84 69.05 135.67 76.79 135.67 77.16 135.18 77.25"/><polygon class="cls-1" points="121.53 69.62 107.6 79.29 107.57 77.54 107.55 75.91 121.19 69.04 121.52 69.24 121.53 69.62"/><polygon class="cls-1" points="93.74 69.41 107.55 75.91 107.57 77.54 107.6 79.29 93.41 69.99 93.42 69.61 93.74 69.41"/><polygon class="cls-1" points="93.41 69.99 79.64 78.19 79.48 77.91 79.47 77.54 93.09 69.43 93.42 69.61 93.41 69.99"/><polygon class="cls-1" points="79.32 78.19 65 70.18 65.32 69.99 65.64 69.8 79.47 77.54 79.48 77.91 79.32 78.19"/><polygon class="cls-1" points="66.47 70.81 55.48 77.36 55.32 77.08 55.15 76.8 66.14 70.25 66.31 70.53 66.47 70.81"/><polygon class="cls-1" points="65.47 69.14 54.48 75.69 54.32 75.41 54.15 75.13 65.14 68.58 65.31 68.86 65.47 69.14"/><text class="cls-2" transform="translate(48.6 81.18)">O</text><polygon class="cls-1" points="65 70.18 64.79 53.96 65.11 53.77 65.44 53.95 65.64 69.8 65.32 69.99 65 70.18"/><polygon class="cls-1" points="65.11 53.39 78.72 45.28 79.05 45.47 79.06 45.84 65.44 53.95 65.11 53.77 65.11 53.39"/><polygon class="cls-1" points="66.91 54.58 78.91 47.44 79.08 47.72 79.25 47.99 67.24 55.14 67.07 54.86 66.91 54.58"/><polygon class="cls-1" points="79.37 45.27 93.36 53.11 93.21 53.39 92.88 53.58 79.06 45.84 79.05 45.47 79.37 45.27"/><polygon class="cls-1" points="93.04 53.12 107.14 44.72 107.14 45.09 107.15 45.47 93.53 53.58 93.21 53.39 93.04 53.12"/><polygon class="cls-1" points="105.85 45.67 105.68 32.5 106 32.49 106.33 32.49 106.5 45.66 106.18 45.67 105.85 45.67"/><polygon class="cls-1" points="107.8 45.65 107.63 32.47 107.95 32.47 108.27 32.46 108.45 45.64 108.12 45.64 107.8 45.65"/><text class="cls-2" transform="translate(104.14 31.77)">O</text><polygon class="cls-1" points="107.14 44.72 121.3 52.64 121.3 53.02 120.98 53.21 107.15 45.47 107.14 45.09 107.14 44.72"/><polygon class="cls-1" points="121.3 52.64 134.91 44.53 135.24 44.72 135.24 45.09 121.63 53.2 121.3 53.02 121.3 52.64"/><polygon class="cls-1" points="123.09 53.83 135.1 46.69 135.27 46.97 135.44 47.24 123.43 54.39 123.26 54.11 123.09 53.83"/><polygon class="cls-1" points="135.56 44.53 149.39 52.27 149.4 52.64 149.07 52.84 135.24 45.09 135.24 44.72 135.56 44.53"/><polygon class="cls-1" points="149.72 52.83 149.93 68.67 149.61 68.86 149.29 68.68 149.07 52.84 149.4 52.64 149.72 52.83"/><polygon class="cls-1" points="147.79 53.79 147.97 67.76 147.65 67.76 147.33 67.77 147.14 53.8 147.47 53.79 147.79 53.79"/><polygon class="cls-1" points="149.93 68.67 163.76 76.41 163.77 76.79 163.77 77.16 149.62 69.24 149.61 68.86 149.93 68.67"/><polygon class="cls-1" points="163.57 74.26 175.58 67.11 175.75 67.39 175.91 67.67 163.9 74.82 163.74 74.54 163.57 74.26"/><polygon class="cls-1" points="163.76 76.41 177.38 68.31 177.71 68.49 178.03 68.67 163.77 77.16 163.77 76.79 163.76 76.41"/><polygon class="cls-1" points="177.38 68.31 177.17 52.46 177.49 52.27 177.81 52.08 178.03 68.67 177.71 68.49 177.38 68.31"/><polygon class="cls-1" points="175.4 53.7 163.2 46.88 163.37 46.59 163.53 46.31 175.72 53.13 175.56 53.41 175.4 53.7"/><polygon class="cls-1" points="177.17 52.46 163.34 44.72 163.33 44.34 163.66 44.15 177.81 52.08 177.49 52.27 177.17 52.46"/><polygon class="cls-1" points="163.01 44.16 162.84 31.73 163.17 31.73 163.49 31.73 163.66 44.15 163.33 44.34 163.01 44.16"/><text class="cls-2" transform="translate(160.33 31.02)">O</text><text class="cls-2" transform="translate(165.9 31.02)">H</text><polygon class="cls-1" points="163.34 44.72 149.72 52.83 149.4 52.64 149.39 52.27 163.01 44.16 163.33 44.34 163.34 44.72"/><polygon class="cls-1" points="149.62 69.24 135.84 77.44 135.67 77.16 135.67 76.79 149.29 68.68 149.61 68.86 149.62 69.24"/><polygon class="cls-1" points="134.91 44.53 134.75 32.11 135.07 32.11 135.39 32.1 135.56 44.53 135.24 44.72 134.91 44.53"/><text class="cls-2" transform="translate(132.24 31.4)">O</text><text class="cls-2" transform="translate(137.8 31.4)">H</text><polygon class="cls-1" points="121.63 53.2 121.84 69.05 121.52 69.24 121.19 69.04 120.98 53.21 121.3 53.02 121.63 53.2"/><polygon class="cls-1" points="93.56 53.34 92.84 53.35 92.84 53.02 92.84 52.7 93.55 52.69 93.56 53.01 93.56 53.34"/><polygon class="cls-1" points="93.71 51.35 92.64 51.36 92.64 51.04 92.63 50.72 93.71 50.7 93.71 51.02 93.71 51.35"/><polygon class="cls-1" points="93.87 49.36 92.44 49.38 92.43 49.05 92.42 48.73 93.86 48.71 93.86 49.03 93.87 49.36"/><polygon class="cls-1" points="94.02 47.37 92.23 47.4 92.22 47.07 92.22 46.75 94.01 46.72 94.01 47.05 94.02 47.37"/><polygon class="cls-1" points="94.17 45.38 92.03 45.41 92.02 45.09 92.02 44.76 94.16 44.74 94.17 45.06 94.17 45.38"/><polygon class="cls-1" points="94.32 43.4 91.82 43.43 91.81 43.1 91.81 42.78 94.31 42.74 94.32 43.07 94.32 43.4"/><polygon class="cls-1" points="94.47 41.41 91.61 41.45 91.61 41.12 91.6 40.8 94.47 40.76 94.47 41.09 94.47 41.41"/><text class="cls-2" transform="translate(90.21 40.07)">O</text><text class="cls-2" transform="translate(95.77 40.07)">H</text><polygon class="cls-1" points="93.53 53.58 93.74 69.41 93.42 69.61 93.09 69.43 92.88 53.58 93.21 53.39 93.53 53.58"/><polygon class="cls-1" points="78.72 45.28 78.55 32.86 78.88 32.86 79.2 32.85 79.37 45.27 79.05 45.47 78.72 45.28"/><text class="cls-2" transform="translate(76.05 32.14)">O</text><line class="cls-3" x1="81.31" y1="25.42" x2="84.01" y2="25.42"/><polygon class="cls-1" points="64.79 53.96 50.96 46.22 50.96 45.84 50.95 45.47 65.11 53.39 65.11 53.77 64.79 53.96"/><polygon class="cls-1" points="49.66 46.42 49.49 33.25 49.81 33.24 50.14 33.24 50.31 46.41 49.99 46.42 49.66 46.42"/><polygon class="cls-1" points="51.61 46.4 51.44 33.22 51.76 33.22 52.08 33.21 52.26 46.39 51.93 46.39 51.61 46.4"/><text class="cls-2" transform="translate(47.96 32.52)">O</text><polygon class="cls-1" points="50.96 46.22 40.41 52.49 40.24 52.22 40.08 51.94 50.95 45.47 50.96 45.84 50.96 46.22"/><text class="cls-2" transform="translate(26.88 56.11)">H</text><text class="cls-4" transform="translate(32.05 57.22)">2</text><text class="cls-2" transform="translate(34.49 56.11)">N</text><polygon class="cls-1" points="79.12 77.96 79.84 77.96 79.85 78.28 79.85 78.6 79.13 78.61 79.13 78.29 79.12 77.96"/><polygon class="cls-1" points="78.97 79.95 80.04 79.94 80.05 80.26 80.05 80.59 78.98 80.6 78.98 80.28 78.97 79.95"/><polygon class="cls-1" points="78.82 81.94 80.25 81.92 80.25 82.24 80.26 82.57 78.83 82.59 78.82 82.26 78.82 81.94"/><polygon class="cls-1" points="78.67 83.93 80.46 83.9 80.46 84.23 80.46 84.56 78.67 84.58 78.67 84.26 78.67 83.93"/><polygon class="cls-1" points="78.51 85.92 80.66 85.89 80.66 86.21 80.67 86.54 78.52 86.57 78.52 86.24 78.51 85.92"/><polygon class="cls-1" points="78.36 87.91 80.87 87.87 80.87 88.2 80.88 88.52 78.37 88.55 78.37 88.23 78.36 87.91"/><polygon class="cls-1" points="78.21 89.89 81.07 89.86 81.08 90.18 81.08 90.5 78.22 90.55 78.21 90.22 78.21 89.89"/><text class="cls-2" transform="translate(71.95 97.02)">H</text><text class="cls-2" transform="translate(77.12 97.02)">N</text><polygon class="cls-1" points="73.8 98.02 65.92 102.71 65.76 102.43 65.59 102.15 73.47 97.46 73.64 97.74 73.8 98.02"/><polygon class="cls-1" points="83.09 95.66 94.01 101.77 93.85 102.05 93.69 102.34 82.77 96.22 82.93 95.94 83.09 95.66"/><line class="cls-3" x1="82.08" y1="90.39" x2="84.78" y2="90.39"/><line class="cls-3" x1="83.43" y1="89.04" x2="83.43" y2="91.75"/><polygon class="cls-1" points="135.92 77.37 128.61 86.32 128.35 86.12 128.11 85.91 135.18 77.25 135.67 77.16 135.92 77.37"/><text class="cls-2" transform="translate(117.46 92.62)">H</text><text class="cls-2" transform="translate(122.63 92.62)">O</text></svg>