<?xml version="1.0" encoding="utf-8"?>
<!-- Generator: Adobe Illustrator 22.1.0, SVG Export Plug-In . SVG Version: 6.00 Build 0)  -->
<svg version="1.1" id="图层_1" xmlns="http://www.w3.org/2000/svg" xmlns:xlink="http://www.w3.org/1999/xlink" x="0px" y="0px"
	 viewBox="0 0 200 132" style="enable-background:new 0 0 200 132;" xml:space="preserve">
<style type="text/css">
	.st0{font-family:'ArialMT';}
	.st1{font-size:8.2662px;}
</style>
<title>Theophylline_Simi_compound6</title>
<g>
	<polygon points="64,95.5 68.6,81.9 68.2,81.8 67.9,81.7 63.3,95.3 63.6,95.4 	"/>
	<g>
		<text transform="matrix(-1 0 0 -1 72.6318 74.9402)" class="st0 st1">N</text>
	</g>
	<polygon points="68.8,74.6 61.1,63.7 60.6,63.7 60.2,63.7 68.2,75 68.5,74.8 	"/>
	<polygon points="61.9,62.6 69.1,53.1 68.8,52.9 68.5,52.6 61.3,62.2 61.6,62.4 	"/>
	<polygon points="61.1,63.7 69.1,53.1 68.8,52.9 68.5,52.6 60.2,63.7 60.6,63.7 	"/>
	<g>
		<text transform="matrix(-1 0 0 -1 74.081 47.238)" class="st0 st1">N</text>
	</g>
	<polygon points="73.7,49 87.4,53.6 87.8,53.4 87.8,53 73.9,48.3 73.8,48.6 	"/>
	<polygon points="87.4,53.6 87.2,71.8 87.5,72.1 87.9,71.9 88.2,53.6 87.8,53.4 	"/>
	<polygon points="89.7,54.7 89.4,70.8 89.8,70.8 90.2,70.9 90.4,54.7 90,54.7 	"/>
	<polygon points="87.5,72.5 103.6,82.1 103.6,81.7 103.7,81.3 87.9,71.9 87.5,72.1 	"/>
	<polygon points="102.2,81 101.9,96.3 102.3,96.3 102.7,96.3 102.9,81 102.5,81 	"/>
	<polygon points="104.4,81.1 104.2,96.3 104.6,96.3 104.9,96.3 105.2,81.1 104.8,81.1 	"/>
	<g>
		<text transform="matrix(-1 0 0 1 106.6015 103.7849)" class="st0 st1">O</text>
	</g>
	<polygon points="103.6,82.1 116.5,75 116.3,74.7 116.1,74.3 103.7,81.3 103.6,81.7 	"/>
	<g>
		<text transform="matrix(-1 0 0 -1 122.9872 69.8572)" class="st0 st1">N</text>
	</g>
	<polygon points="120.4,68.4 120.6,53.6 120.3,53.8 119.9,54 119.7,68.4 120.1,68.4 	"/>
	<polygon points="120.4,55.4 133.4,48.2 133.2,47.9 133,47.6 120.1,54.8 120.3,55.1 	"/>
	<polygon points="119.3,53.5 132.3,46.2 132.1,45.9 131.9,45.6 119,52.8 119.1,53.2 	"/>
	<g>
		<text transform="matrix(-1 0 0 1 139.8329 48.031)" class="st0 st1">O</text>
	</g>
	<polygon points="120.6,53.6 108.1,46.1 107.9,46.5 107.7,46.8 119.9,54 120.3,53.8 	"/>
	<g>
		<text transform="matrix(-1 0 0 -1 107.1459 40.6961)" class="st0 st1">N</text>
	</g>
	<polygon points="104.6,40.1 104.8,25.5 104.4,25.5 104.1,25.5 103.8,40.1 104.2,40.1 	"/>
	<polygon points="100.2,46 87.8,53 87.8,53.4 88.2,53.6 100.6,46.6 100.4,46.3 	"/>
	<polygon points="123.5,75.1 135.9,82.5 136.1,82.2 136.3,81.8 123.9,74.5 123.7,74.8 	"/>
	<polygon points="87.2,71.8 73.3,76.1 73.4,76.5 73.5,76.9 87.5,72.5 87.5,72.1 	"/>
</g>
</svg>
