<?xml version="1.0" encoding="utf-8"?>
<!-- Generator: Adobe Illustrator 22.1.0, SVG Export Plug-In . SVG Version: 6.00 Build 0)  -->
<svg version="1.1" id="图层_1" xmlns="http://www.w3.org/2000/svg" xmlns:xlink="http://www.w3.org/1999/xlink" x="0px" y="0px"
	 viewBox="0 0 200 130" style="enable-background:new 0 0 200 130;" xml:space="preserve">
<style type="text/css">
	.st0{font-family:'ArialMT';}
	.st1{font-size:8.4304px;}
</style>
<title>Theophylline_Simi_compound1</title>
<g>
	<polygon points="104.7,23.7 105,38.6 104.6,38.6 104.2,38.6 103.9,23.7 104.3,23.7 	"/>
	<g>
		<text transform="matrix(0.98 9.999501e-03 -9.999500e-03 0.9999 101.676 46.1985)" class="st0 st1">N</text>
	</g>
	<polygon points="101.1,45.5 89.1,52.9 88.7,52.7 88.6,52.3 100.7,44.8 100.9,45.1 	"/>
	<polygon points="89.1,52.9 89.5,71.6 89.1,71.8 88.7,71.6 88.3,53 88.7,52.7 	"/>
	<polygon points="86.9,54.4 87.2,70.2 86.8,70.2 86.4,70.2 86.1,54.5 86.5,54.4 	"/>
	<polygon points="89.5,71.6 105.5,80.6 105.5,81 105.5,81.5 89.1,72.2 89.1,71.8 	"/>
	<polygon points="107,80.3 107.3,95.8 106.9,95.8 106.6,95.8 106.2,80.3 106.6,80.3 	"/>
	<polygon points="104.7,80.4 105.1,95.9 104.7,95.9 104.3,95.9 104,80.4 104.4,80.4 	"/>
	<g>
		<text transform="matrix(0.98 9.999501e-03 -9.999500e-03 0.9999 102.6758 103.4983)" class="st0 st1">O</text>
	</g>
	<polygon points="105.5,80.6 117.6,73.1 117.8,73.4 118,73.7 105.5,81.5 105.5,81 	"/>
	<g>
		<text transform="matrix(0.98 9.999501e-03 -9.999500e-03 0.9999 118.496 74.4883)" class="st0 st1">N</text>
	</g>
	<polygon points="121,66.9 120.7,52.2 121.1,52 121.5,51.8 121.8,66.8 121.4,66.8 	"/>
	<polygon points="119.8,51 132.3,43.2 132.5,43.6 132.7,43.9 120.2,51.7 120,51.4 	"/>
	<polygon points="120.9,53 133.5,45.2 133.7,45.5 133.9,45.8 121.3,53.6 121.1,53.3 	"/>
	<g>
		<text transform="matrix(0.98 9.999501e-03 -9.999500e-03 0.9999 133.8559 45.4585)" class="st0 st1">O</text>
	</g>
	<polygon points="120.7,52.2 108.2,45.2 108.4,44.9 108.6,44.6 121.5,51.8 121.1,52 	"/>
	<polygon points="125.4,72.8 138.1,79.9 137.9,80.3 137.7,80.6 125,73.5 125.2,73.2 	"/>
	<polygon points="89.1,72.2 75.3,77.2 75.2,76.8 75.1,76.4 88.7,71.6 89.1,71.8 	"/>
	<g>
		<text transform="matrix(0.98 9.999501e-03 -9.999500e-03 0.9999 68.426 81.5286)" class="st0 st1">N</text>
	</g>
	<g>
		<text transform="matrix(0.98 9.999501e-03 -9.999500e-03 0.9999 68.3559 89.2182)" class="st0 st1">H</text>
	</g>
	<polygon points="67.9,74.1 59.6,62.9 60.1,62.9 60.6,62.9 68.5,73.6 68.2,73.9 	"/>
	<polygon points="59.6,62.9 67.6,51.2 67.9,51.5 68.2,51.7 60.6,62.9 60.1,62.9 	"/>
	<polygon points="62.6,62.7 69.4,52.5 69.7,52.8 70.1,53 63.2,63.1 62.9,62.9 	"/>
	<g>
		<text transform="matrix(0.98 9.999501e-03 -9.999500e-03 0.9999 67.7658 50.6184)" class="st0 st1">N</text>
	</g>
	<polygon points="74.6,48 88.6,52.3 88.7,52.7 88.3,53 74.4,48.7 74.5,48.4 	"/>
</g>
</svg>
