<?xml version="1.0" encoding="utf-8"?>
<!-- Generator: Adobe Illustrator 22.1.0, SVG Export Plug-In . SVG Version: 6.00 Build 0)  -->
<svg version="1.1" id="图层_1" xmlns="http://www.w3.org/2000/svg" xmlns:xlink="http://www.w3.org/1999/xlink" x="0px" y="0px"
	 viewBox="0 0 200 130" style="enable-background:new 0 0 200 130;" xml:space="preserve">
<style type="text/css">
	.st0{font-family:'ArialMT';}
	.st1{font-size:8.2847px;}
</style>
<title>Theophylline_Simi_compound3</title>
<g>
	<polygon points="105,24.4 105.2,39 104.8,39 104.4,39 104.3,24.4 104.6,24.4 	"/>
	<g>
		<text transform="matrix(1 0 0 1 101.8493 46.548)" class="st0 st1">N</text>
	</g>
	<polygon points="101.3,45.7 89,53 88.7,52.8 88.6,52.4 100.9,45.1 101.1,45.4 	"/>
	<polygon points="89,53 89.2,71.3 88.9,71.5 88.5,71.3 88.3,53 88.7,52.8 	"/>
	<polygon points="86.8,54.4 87,69.9 86.6,69.9 86.2,69.9 86.1,54.4 86.4,54.4 	"/>
	<polygon points="89.2,71.3 105.2,80.3 105.3,80.8 105.3,81.2 88.8,72 88.9,71.5 	"/>
	<polygon points="106.7,80.1 106.9,95.4 106.5,95.4 106.2,95.4 106,80.1 106.4,80.1 	"/>
	<polygon points="104.5,80.1 104.7,95.4 104.3,95.4 103.9,95.4 103.7,80.1 104.1,80.1 	"/>
	<g>
		<text transform="matrix(1 0 0 1 102.2253 102.905)" class="st0 st1">O</text>
	</g>
	<polygon points="105.2,80.3 117.5,73.1 117.7,73.4 117.9,73.7 105.3,81.2 105.3,80.8 	"/>
	<g>
		<text transform="matrix(1 0 0 1 118.4186 74.55)" class="st0 st1">N</text>
		<text transform="matrix(1 0 0 1 124.4069 74.55)" class="st0 st1">H</text>
	</g>
	<polygon points="121,67 120.8,52.6 121.2,52.4 121.6,52.2 121.7,67 121.4,67 	"/>
	<polygon points="119.9,51.4 132.6,43.9 132.8,44.2 133,44.5 120.3,52.1 120.1,51.8 	"/>
	<polygon points="121,53.4 133.8,45.8 134,46.2 134.2,46.5 121.4,54 121.2,53.7 	"/>
	<g>
		<text transform="matrix(1 0 0 1 134.151 46.195)" class="st0 st1">O</text>
	</g>
	<polygon points="120.8,52.6 108.4,45.6 108.6,45.3 108.8,45 121.6,52.2 121.2,52.4 	"/>
	<polygon points="88.8,72 74.9,76.6 74.8,76.3 74.7,75.9 88.5,71.3 88.9,71.5 	"/>
	<g>
		<text transform="matrix(1 0 0 1 68.0807 80.9001)" class="st0 st1">N</text>
	</g>
	<g>
		<text transform="matrix(1 0 0 1 68.0807 88.4626)" class="st0 st1">H</text>
	</g>
	<polygon points="67.7,73.6 59.4,62.5 59.9,62.5 60.3,62.5 68.3,73.1 68,73.4 	"/>
	<polygon points="59.4,62.5 67.5,51.1 67.8,51.3 68.1,51.5 60.3,62.5 59.9,62.5 	"/>
	<polygon points="62.3,62.2 69.3,52.4 69.6,52.6 69.9,52.9 63,62.7 62.7,62.4 	"/>
	<g>
		<text transform="matrix(1 0 0 1 67.7507 50.51)" class="st0 st1">N</text>
	</g>
	<polygon points="74.6,48 88.6,52.4 88.7,52.8 88.3,53 74.4,48.7 74.5,48.3 	"/>
</g>
</svg>
