<?xml version="1.0" encoding="utf-8"?>
<!-- Generator: Adobe Illustrator 22.1.0, SVG Export Plug-In . SVG Version: 6.00 Build 0)  -->
<svg version="1.1" id="图层_1" xmlns="http://www.w3.org/2000/svg" xmlns:xlink="http://www.w3.org/1999/xlink" x="0px" y="0px"
	 viewBox="0 0 200 130" style="enable-background:new 0 0 200 130;" xml:space="preserve">
<style type="text/css">
	.st0{font-family:'ArialMT';}
	.st1{font-size:9.0211px;}
</style>
<title>Theophylline_Simi_compound2</title>
<g>
	<polygon points="136.6,79.1 124.5,70.8 124.3,71.2 124.1,71.5 136.2,79.8 136.4,79.4 	"/>
	<g>
		<text transform="matrix(0.916 9.999161e-03 -9.159629e-03 1 117.4942 70.7941)" class="st0 st1">N</text>
	</g>
	<polygon points="116.6,70.4 104,77.8 104,78.3 104,78.7 117,71.2 116.8,70.8 	"/>
	<polygon points="102.5,77.5 102,94.1 102.4,94.1 102.8,94.1 103.3,77.5 102.9,77.5 	"/>
	<polygon points="104.8,77.6 104.3,94.2 104.6,94.2 105,94.2 105.5,77.6 105.1,77.6 	"/>
	<g>
		<text transform="matrix(0.916 -9.999161e-03 -9.159629e-03 -1 100.1326 95.1521)" class="st0 st1">O</text>
	</g>
	<polygon points="104,77.8 88.5,67.3 88.1,67.5 88,67.9 104,78.7 104,78.3 	"/>
	<polygon points="88.5,67.3 89.1,47.3 88.7,47 88.3,47.3 87.7,67.2 88.1,67.5 	"/>
	<polygon points="86.3,65.6 86.8,48.7 86.4,48.7 86,48.7 85.5,65.6 85.9,65.6 	"/>
	<polygon points="89.1,47.3 101.7,39.9 101.5,39.6 101.3,39.2 88.7,46.6 88.7,47 	"/>
	<g>
		<text transform="matrix(0.916 9.999161e-03 -9.159629e-03 1 102.1913 42.3847)" class="st0 st1">N</text>
	</g>
	<g>
		<text transform="matrix(0.916 9.999161e-03 -9.159629e-03 1 102.1032 34.8476)" class="st0 st1">H</text>
	</g>
	<polygon points="108.8,40.3 120.7,48.4 121.1,48.2 121.5,48 109.2,39.6 109,39.9 	"/>
	<polygon points="121.3,50 134.4,42.3 134.2,41.9 134.1,41.5 120.9,49.2 121.1,49.6 	"/>
	<polygon points="120.2,47.8 133.4,40.1 133.2,39.7 133,39.4 119.8,47.1 120,47.4 	"/>
	<g>
		<text transform="matrix(0.916 -9.999161e-03 -9.159629e-03 -1 134.4 34.9601)" class="st0 st1">O</text>
	</g>
	<polygon points="120.7,48.4 120.3,64.1 120.7,64.1 121,64.1 121.5,48 121.1,48.2 	"/>
	<polygon points="88.7,46.6 74.9,41.2 74.8,41.6 74.7,41.9 88.3,47.3 88.7,47 	"/>
	<g>
		<text transform="matrix(0.916 9.999161e-03 -9.159629e-03 1 68.0384 44.9646)" class="st0 st1">N</text>
	</g>
	<polygon points="67.5,44.4 59.1,56.2 59.6,56.2 60,56.2 68.1,44.9 67.8,44.7 	"/>
	<polygon points="69.3,45.9 62,56.1 62.3,56.3 62.6,56.6 69.9,46.4 69.6,46.2 	"/>
	<polygon points="59.1,56.2 67,68.9 67.3,68.6 67.6,68.4 60,56.2 59.6,56.2 	"/>
	<g>
		<text transform="matrix(0.916 9.999161e-03 -9.159629e-03 1 67.1361 80.9915)" class="st0 st1">H</text>
	</g>
	<g>
		<text transform="matrix(0.916 9.999161e-03 -9.159629e-03 1 67.0467 72.5262)" class="st0 st1">N</text>
	</g>
	<polygon points="73.9,72.4 88,67.9 88.1,67.5 87.7,67.2 73.7,71.6 73.8,72 	"/>
</g>
</svg>
