<svg id="图层_1" data-name="图层 1" xmlns="http://www.w3.org/2000/svg" viewBox="0 0 200 130"><defs><style>.cls-1,.cls-2{isolation:isolate;}.cls-2{font-size:9.68px;font-family:ArialMT, Arial;}</style></defs><polygon points="195.59 47.15 176.78 57.97 176.35 57.72 176.35 57.21 195.15 46.39 195.37 46.77 195.59 47.15"/><polygon points="176.78 57.97 176.76 79.92 176.32 79.67 175.88 79.41 175.91 57.97 176.35 57.72 176.78 57.97"/><polygon points="174.15 59.24 174.13 78.14 173.69 78.14 173.25 78.14 173.27 59.23 173.71 59.24 174.15 59.24"/><polygon points="176.76 79.92 157.3 91.12 157.3 90.62 157.3 90.11 175.88 79.41 176.32 79.67 176.76 79.92"/><polygon points="157.3 91.12 138.26 80.1 138.31 79.62 138.75 79.37 157.3 90.11 157.3 90.62 157.3 91.12"/><polygon points="157.08 87.95 140.72 78.48 140.94 78.1 141.16 77.72 157.52 87.19 157.3 87.58 157.08 87.95"/><polygon points="138.26 80.1 121.67 85.47 121.53 85.05 121.4 84.63 137.87 79.3 138.31 79.62 138.26 80.1"/><g class="cls-1"><text class="cls-2" transform="translate(114.2 90.3)">S</text></g><polygon points="113.53 81.75 104.32 69.05 104.55 68.61 105.09 68.61 114.24 81.24 113.89 81.5 113.53 81.75"/><polygon points="104.32 69.05 82.85 69.02 82.6 68.58 82.85 68.14 104.32 68.17 104.55 68.61 104.32 69.05"/><polygon points="79.18 68.8 69.74 52.41 70.13 52.19 70.5 51.97 79.94 68.36 79.56 68.58 79.18 68.8"/><polygon points="82.09 68.58 71.39 50 71.65 49.56 71.9 49.12 82.85 68.14 82.6 68.58 82.09 68.58"/><polygon points="71.39 50 49.95 49.97 49.7 49.53 49.45 49.09 71.9 49.12 71.65 49.56 71.39 50"/><polygon points="51.6 52.39 42.13 68.75 41.75 68.53 41.37 68.31 50.84 51.95 51.22 52.17 51.6 52.39"/><polygon points="49.95 49.97 39.21 68.53 38.7 68.53 38.45 68.09 49.45 49.09 49.7 49.53 49.95 49.97"/><polygon points="38.45 68.97 21.13 68.94 21.13 68.51 21.13 68.07 38.45 68.09 38.7 68.53 38.45 68.97"/><g class="cls-1"><text class="cls-2" transform="translate(13.26 72.42)">N</text></g><polygon points="13.57 63.84 5.43 49.7 5.81 49.48 6.19 49.26 14.33 63.4 13.95 63.62 13.57 63.84"/><polygon points="14.31 73.6 6.14 87.72 5.76 87.5 5.38 87.28 13.55 73.16 13.93 73.38 14.31 73.6"/><polygon points="39.21 68.53 49.91 87.11 49.66 87.55 49.4 87.99 38.45 68.97 38.7 68.53 39.21 68.53"/><polygon points="51.18 84.48 70.09 84.5 70.09 84.94 70.08 85.38 51.18 85.35 51.18 84.92 51.18 84.48"/><polygon points="49.91 87.11 71.35 87.13 71.6 87.57 71.86 88.01 49.4 87.99 49.66 87.55 49.91 87.11"/><polygon points="71.35 87.13 82.09 68.58 82.6 68.58 82.85 69.02 71.86 88.01 71.6 87.57 71.35 87.13"/><polygon points="104.32 68.17 113.56 55.49 113.91 55.75 114.27 56.01 105.09 68.61 104.55 68.61 104.32 68.17"/><polygon points="107.45 68.35 115.69 57.04 116.04 57.3 116.4 57.56 108.16 68.87 107.8 68.61 107.45 68.35"/><g class="cls-1"><text class="cls-2" transform="translate(113.97 54.79)">N</text></g><polygon points="121.98 51.88 138.28 57.2 138.33 57.67 137.89 57.99 121.7 52.71 121.84 52.29 121.98 51.88"/><polygon points="138.28 57.2 157.35 46.22 157.35 46.72 157.35 47.23 138.77 57.93 138.33 57.67 138.28 57.2"/><polygon points="140.75 58.82 157.13 49.38 157.35 49.76 157.57 50.14 141.18 59.58 140.97 59.2 140.75 58.82"/><polygon points="157.35 46.22 176.35 57.21 176.35 57.72 175.91 57.97 157.35 47.23 157.35 46.72 157.35 46.22"/><polygon points="138.77 57.93 138.75 79.37 138.31 79.62 137.87 79.3 137.89 57.99 138.33 57.67 138.77 57.93"/></svg>