<svg id="图层_1" data-name="图层 1" xmlns="http://www.w3.org/2000/svg" viewBox="0 0 200 130"><defs><style>.cls-1,.cls-2{isolation:isolate;}.cls-2{font-size:9.56px;font-family:ArialMT, Arial;}</style></defs><polygon points="194.7 50.2 176.19 60.99 175.76 60.74 175.76 60.24 194.26 49.45 194.48 49.83 194.7 50.2"/><polygon points="176.19 60.99 176.28 82.66 175.85 82.41 175.41 82.16 175.33 60.99 175.76 60.74 176.19 60.99"/><polygon points="173.6 62.25 173.68 80.92 173.24 80.92 172.81 80.92 172.73 62.25 173.16 62.25 173.6 62.25"/><polygon points="176.28 82.66 157.13 93.83 157.13 93.33 157.12 92.83 175.41 82.16 175.85 82.41 176.28 82.66"/><polygon points="157.13 93.83 138.26 83.04 138.31 82.57 138.74 82.32 157.12 92.83 157.13 93.33 157.13 93.83"/><polygon points="156.9 90.7 140.69 81.43 140.91 81.06 141.12 80.68 157.33 89.95 157.11 90.32 156.9 90.7"/><polygon points="138.26 83.04 122.18 88.34 122.04 87.93 121.91 87.52 137.88 82.25 138.31 82.57 138.26 83.04"/><g class="cls-1"><text class="cls-2" transform="translate(114.28 93.22)">N</text></g><polygon points="113.84 84.79 104.7 72.3 104.92 71.87 105.45 71.87 114.54 84.27 114.19 84.53 113.84 84.79"/><polygon points="115.94 83.25 107.78 72.11 108.13 71.86 108.48 71.6 116.64 82.74 116.29 82.99 115.94 83.25"/><polygon points="104.7 72.3 83.49 72.39 83.24 71.96 83.49 71.53 104.69 71.44 104.92 71.87 104.7 72.3"/><polygon points="79.86 72.19 70.46 56.06 70.84 55.84 71.21 55.62 80.61 71.75 80.24 71.97 79.86 72.19"/><polygon points="82.74 71.96 72.08 53.67 72.33 53.23 72.58 52.8 83.49 71.53 83.24 71.96 82.74 71.96"/><polygon points="72.08 53.67 50.91 53.76 50.66 53.33 50.4 52.89 72.58 52.8 72.33 53.23 72.08 53.67"/><polygon points="52.54 56.13 43.28 72.34 42.9 72.13 42.52 71.91 51.79 55.7 52.17 55.92 52.54 56.13"/><polygon points="50.91 53.76 40.4 72.14 39.9 72.14 39.64 71.71 50.4 52.89 50.66 53.33 50.91 53.76"/><polygon points="39.65 72.57 22.54 72.64 22.54 72.21 22.54 71.78 39.64 71.71 39.9 72.14 39.65 72.57"/><g class="cls-1"><text class="cls-2" transform="translate(14.77 76.1)">N</text></g><polygon points="15.04 67.63 6.93 53.72 7.31 53.51 7.68 53.29 15.79 67.19 15.41 67.41 15.04 67.63"/><polygon points="15.84 77.27 7.84 91.26 7.46 91.04 7.09 90.83 15.09 76.83 15.47 77.05 15.84 77.27"/><polygon points="40.4 72.14 51.06 90.43 50.81 90.86 50.56 91.3 39.65 72.57 39.9 72.14 40.4 72.14"/><polygon points="52.3 87.82 70.97 87.75 70.97 88.18 70.97 88.61 52.3 88.69 52.3 88.26 52.3 87.82"/><polygon points="51.06 90.43 72.23 90.34 72.48 90.77 72.73 91.21 50.56 91.3 50.81 90.86 51.06 90.43"/><polygon points="72.23 90.34 82.74 71.96 83.24 71.96 83.49 72.39 72.73 91.21 72.48 90.77 72.23 90.34"/><polygon points="104.69 71.44 113.76 58.85 114.11 59.1 114.46 59.36 105.45 71.87 104.92 71.87 104.69 71.44"/><g class="cls-1"><text class="cls-2" transform="translate(114.13 50.25)">H</text></g><g class="cls-1"><text class="cls-2" transform="translate(114.13 58.97)">N</text></g><polygon points="122.03 55.25 138.17 60.42 138.22 60.9 137.79 61.21 121.77 56.08 121.9 55.67 122.03 55.25"/><polygon points="138.17 60.42 156.94 49.48 156.94 49.98 156.95 50.48 138.66 61.14 138.22 60.9 138.17 60.42"/><polygon points="140.61 62.01 156.74 52.61 156.96 52.98 157.18 53.36 141.05 62.76 140.83 62.39 140.61 62.01"/><polygon points="156.94 49.48 175.76 60.24 175.76 60.74 175.33 60.99 156.95 50.48 156.94 49.98 156.94 49.48"/><polygon points="138.66 61.14 138.74 82.32 138.31 82.57 137.88 82.25 137.79 61.21 138.22 60.9 138.66 61.14"/></svg>