<svg id="图层_1" data-name="图层 1" xmlns="http://www.w3.org/2000/svg" viewBox="0 0 200 130"><defs><style>.cls-1,.cls-2{isolation:isolate;}.cls-2{font-size:9.8px;font-family:ArialMT, Arial;}</style></defs><polygon points="195.99 47.56 176.89 58.42 176.45 58.16 176.45 57.65 195.54 46.79 195.76 47.17 195.99 47.56"/><polygon points="176.89 58.42 176.74 80.64 176.3 80.38 175.86 80.12 176 58.41 176.45 58.16 176.89 58.42"/><polygon points="174.22 59.68 174.09 78.83 173.65 78.82 173.2 78.82 173.33 59.68 173.77 59.68 174.22 59.68"/><polygon points="176.74 80.64 156.98 91.88 156.98 91.36 156.99 90.85 175.86 80.12 176.3 80.38 176.74 80.64"/><polygon points="156.98 91.88 137.76 80.61 137.81 80.13 138.26 79.87 156.99 90.85 156.98 91.36 156.98 91.88"/><polygon points="156.78 88.67 140.26 78.99 140.49 78.61 140.71 78.22 157.23 87.9 157 88.29 156.78 88.67"/><polygon points="137.76 80.61 121.19 85.87 121.06 85.45 120.93 85.03 137.37 79.8 137.81 80.13 137.76 80.61"/><g class="cls-1"><text class="cls-2" transform="translate(113.1 90.82)">N</text></g><polygon points="112.73 82.17 103.46 69.23 103.69 68.79 104.24 68.8 113.45 81.65 113.09 81.91 112.73 82.17"/><polygon points="114.9 80.62 106.63 69.07 106.99 68.81 107.35 68.56 115.62 80.1 115.26 80.36 114.9 80.62"/><polygon points="103.46 69.23 81.72 69.09 81.47 68.65 81.73 68.2 103.47 68.35 103.69 68.79 103.46 69.23"/><polygon points="78 68.85 68.54 52.2 68.93 51.98 69.31 51.77 78.78 68.41 78.39 68.63 78 68.85"/><polygon points="80.95 68.64 70.22 49.77 70.48 49.33 70.74 48.89 81.73 68.2 81.47 68.65 80.95 68.64"/><polygon points="70.22 49.77 48.52 49.63 48.26 49.18 48.01 48.74 70.74 48.89 70.48 49.33 70.22 49.77"/><polygon points="50.17 52.08 40.49 68.6 40.1 68.38 39.72 68.15 49.4 51.63 49.78 51.86 50.17 52.08"/><polygon points="48.52 49.63 37.54 68.36 37.02 68.35 36.77 67.91 48.01 48.74 48.26 49.18 48.52 49.63"/><polygon points="36.77 68.8 19.23 68.68 19.23 68.24 19.23 67.79 36.77 67.91 37.02 68.35 36.77 68.8"/><g class="cls-1"><text class="cls-2" transform="translate(11.27 72.18)">N</text></g><polygon points="11.61 63.48 3.43 49.11 3.82 48.89 4.21 48.67 12.38 63.05 11.99 63.27 11.61 63.48"/><polygon points="12.29 73.38 3.95 87.61 3.57 87.38 3.18 87.16 11.52 72.93 11.91 73.15 12.29 73.38"/><polygon points="37.54 68.36 48.27 87.23 48.01 87.67 47.75 88.11 36.77 68.8 37.02 68.35 37.54 68.36"/><polygon points="49.57 84.57 68.71 84.7 68.71 85.14 68.71 85.58 49.56 85.46 49.57 85.02 49.57 84.57"/><polygon points="48.27 87.23 69.98 87.37 70.23 87.82 70.48 88.26 47.75 88.11 48.01 87.67 48.27 87.23"/><polygon points="69.98 87.37 80.95 68.64 81.47 68.65 81.72 69.09 70.48 88.26 70.23 87.82 69.98 87.37"/><polygon points="103.47 68.35 112.87 55.58 113.23 55.84 113.59 56.11 104.24 68.8 103.69 68.79 103.47 68.35"/><g class="cls-1"><text class="cls-2" transform="translate(113.06 54.87)">O</text></g><polygon points="121.71 52.04 137.91 57.42 137.96 57.91 137.51 58.23 121.43 52.88 121.57 52.46 121.71 52.04"/><polygon points="137.91 57.42 157.28 46.41 157.28 46.92 157.27 47.44 138.4 58.16 137.96 57.91 137.91 57.42"/><polygon points="140.4 59.08 157.04 49.61 157.26 50 157.47 50.39 140.84 59.85 140.62 59.46 140.4 59.08"/><polygon points="157.28 46.41 176.45 57.65 176.45 58.16 176 58.41 157.27 47.44 157.28 46.92 157.28 46.41"/><polygon points="138.4 58.16 138.26 79.87 137.81 80.13 137.37 79.8 137.51 58.23 137.96 57.91 138.4 58.16"/></svg>