<svg id="图层_1" data-name="图层 1" xmlns="http://www.w3.org/2000/svg" viewBox="0 0 200 130"><defs><style>.cls-1,.cls-2{isolation:isolate;}.cls-2{font-size:9.8px;font-family:ArialMT, Arial;}</style></defs><polygon points="196 36.41 177 47.41 176.56 47.16 176.56 46.65 195.56 35.64 195.78 36.02 196 36.41"/><polygon points="177 47.41 177.04 69.63 176.59 69.37 176.15 69.11 176.12 47.42 176.56 47.16 177 47.41"/><polygon points="174.34 48.7 174.37 67.84 173.93 67.84 173.48 67.84 173.45 48.7 173.9 48.7 174.34 48.7"/><polygon points="177.04 69.63 157.38 81.02 157.38 80.51 157.38 80 176.15 69.11 176.59 69.37 177.04 69.63"/><polygon points="157.38 81.02 138.07 69.92 138.12 69.43 138.57 69.18 157.38 80 157.38 80.51 157.38 81.02"/><polygon points="157.15 77.82 140.56 68.28 140.78 67.89 141.01 67.51 157.59 77.05 157.37 77.43 157.15 77.82"/><polygon points="137.68 69.11 137.64 47.55 138.09 47.22 138.53 47.48 138.57 69.18 138.12 69.43 137.68 69.11"/><polygon points="138.03 46.74 157.3 35.57 157.3 36.08 157.31 36.6 138.53 47.48 138.09 47.22 138.03 46.74"/><polygon points="140.53 48.37 157.09 38.78 157.31 39.16 157.53 39.55 140.98 49.14 140.75 48.76 140.53 48.37"/><polygon points="157.3 35.57 176.56 46.65 176.56 47.16 176.12 47.42 157.31 36.6 157.3 36.08 157.3 35.57"/><polygon points="137.64 47.55 121.24 42.24 121.37 41.82 121.51 41.4 138.03 46.74 138.09 47.22 137.64 47.55"/><g class="cls-1"><text class="cls-2" transform="translate(113.41 44.36)">N</text></g><polygon points="115.89 47.16 107.58 58.64 107.22 58.38 106.86 58.12 115.17 46.64 115.53 46.9 115.89 47.16"/><polygon points="113.73 45.59 104.47 58.38 103.92 58.38 103.69 57.94 113.01 45.07 113.37 45.33 113.73 45.59"/><polygon points="103.7 58.83 81.97 58.87 81.71 58.42 81.97 57.98 103.69 57.94 103.92 58.38 103.7 58.83"/><polygon points="78.25 58.65 68.65 42.09 69.04 41.87 69.42 41.65 79.02 58.2 78.63 58.43 78.25 58.65"/><polygon points="81.2 58.42 70.32 39.65 70.57 39.2 70.83 38.76 81.97 57.98 81.71 58.42 81.2 58.42"/><polygon points="70.32 39.65 48.62 39.68 48.36 39.24 48.1 38.8 70.83 38.76 70.57 39.2 70.32 39.65"/><polygon points="50.29 42.12 40.75 58.71 40.36 58.49 39.98 58.27 49.52 41.68 49.9 41.9 50.29 42.12"/><polygon points="48.62 39.68 37.8 58.49 37.28 58.49 37.03 58.05 48.1 38.8 48.36 39.24 48.62 39.68"/><polygon points="37.03 58.94 19.5 58.97 19.5 58.52 19.5 58.08 37.03 58.05 37.28 58.49 37.03 58.94"/><g class="cls-1"><text class="cls-2" transform="translate(11.54 62.5)">N</text></g><polygon points="11.82 53.81 3.55 39.53 3.93 39.31 4.32 39.09 12.59 53.37 12.21 53.59 11.82 53.81"/><polygon points="12.62 63.69 4.38 78.01 4 77.78 3.61 77.56 11.85 63.25 12.23 63.47 12.62 63.69"/><polygon points="37.8 58.49 48.68 77.27 48.42 77.71 48.17 78.16 37.03 58.94 37.28 58.49 37.8 58.49"/><polygon points="49.96 74.6 69.09 74.57 69.09 75.01 69.09 75.46 49.96 75.49 49.96 75.04 49.96 74.6"/><polygon points="48.68 77.27 70.38 77.23 70.64 77.68 70.89 78.12 48.17 78.16 48.42 77.71 48.68 77.27"/><polygon points="70.38 77.23 81.2 58.42 81.71 58.42 81.97 58.87 70.89 78.12 70.64 77.68 70.38 77.23"/><polygon points="104.47 58.38 113.77 71.13 113.41 71.39 113.05 71.65 103.7 58.83 103.92 58.38 104.47 58.38"/><g class="cls-1"><text class="cls-2" transform="translate(113.47 80.3)">N</text></g><polygon points="115.83 81.41 110.6 97.61 110.18 97.47 109.76 97.33 114.99 81.14 115.41 81.27 115.83 81.41"/><polygon points="121.3 74.47 137.68 69.11 138.12 69.43 138.07 69.92 121.57 75.31 121.43 74.89 121.3 74.47"/></svg>