<svg id="图层_1" data-name="图层 1" xmlns="http://www.w3.org/2000/svg" viewBox="0 0 200 130"><defs><style>.cls-1,.cls-2{isolation:isolate;}.cls-2{font-size:9.4px;font-family:ArialMT, Arial;}</style></defs><polygon points="2.97 48.7 10.85 62.45 10.48 62.67 10.11 62.88 2.23 49.12 2.6 48.91 2.97 48.7"/><g class="cls-1"><text class="cls-2" transform="translate(9.8 71.21)">N</text></g><polygon points="10.81 72.36 2.85 86.05 2.48 85.83 2.11 85.62 10.07 71.93 10.44 72.15 10.81 72.36"/><polygon points="17.44 67 34.27 67.05 34.51 67.48 34.27 67.9 17.44 67.85 17.44 67.42 17.44 67"/><polygon points="34.27 67.05 44.99 48.63 45.23 49.05 45.48 49.48 35 67.48 34.51 67.48 34.27 67.05"/><polygon points="37.1 67.27 46.33 51.4 46.7 51.62 47.07 51.83 37.83 67.7 37.47 67.49 37.1 67.27"/><polygon points="44.99 48.63 66.8 48.7 66.55 49.12 66.3 49.55 45.48 49.48 45.23 49.05 44.99 48.63"/><polygon points="66.8 48.7 77.39 67.19 77.14 67.62 76.65 67.62 66.3 49.55 66.55 49.12 66.8 48.7"/><polygon points="65.43 51.46 74.56 67.4 74.19 67.61 73.82 67.82 64.69 51.89 65.06 51.68 65.43 51.46"/><polygon points="77.39 67.19 98.25 67.26 98.46 67.69 98.24 68.12 77.39 68.05 77.14 67.62 77.39 67.19"/><polygon points="101.97 67.45 109.93 78.49 109.59 78.74 109.24 78.99 101.28 67.95 101.62 67.7 101.97 67.45"/><polygon points="98.99 67.69 107.86 79.99 107.51 80.23 107.17 80.48 98.24 68.12 98.46 67.69 98.99 67.69"/><g class="cls-1"><text class="cls-2" transform="translate(107.54 88.78)">N</text></g><polygon points="115.05 83.21 130.8 78.15 131.23 78.46 131.18 78.92 115.31 84.02 115.18 83.61 115.05 83.21"/><polygon points="134 76.62 149.88 85.85 149.66 86.22 149.45 86.59 133.58 77.36 133.79 76.99 134 76.62"/><polygon points="131.66 78.21 149.65 88.68 149.65 89.18 149.65 89.67 131.18 78.92 131.23 78.46 131.66 78.21"/><polygon points="149.65 88.68 167.72 78.33 168.15 78.58 168.15 79.07 149.65 89.67 149.65 89.18 149.65 88.68"/><polygon points="168.58 78.33 182.28 86.31 182.06 86.67 181.85 87.04 168.15 79.07 168.15 78.58 168.58 78.33"/><g class="cls-1"><text class="cls-2" transform="translate(182.92 93.11)">O</text><text class="cls-2" transform="translate(190.23 93.11)">H</text></g><polygon points="165.17 77.09 165.23 58.73 165.66 58.73 166.08 58.73 166.02 77.09 165.59 77.09 165.17 77.09"/><polygon points="167.72 78.33 167.79 57.51 168.22 57.26 168.65 57.02 168.58 78.33 168.15 78.58 167.72 78.33"/><polygon points="167.79 57.51 149.79 47.04 149.79 46.54 149.8 46.05 168.65 57.02 168.22 57.26 167.79 57.51"/><polygon points="150 49.87 134.06 59 133.85 58.63 133.64 58.26 149.57 49.13 149.78 49.5 150 49.87"/><polygon points="149.79 47.04 131.72 57.39 131.3 57.14 131.25 56.68 149.8 46.05 149.79 46.54 149.79 47.04"/><polygon points="130.87 57.45 114.9 52.2 115.03 51.8 115.17 51.39 131.25 56.68 131.3 57.14 130.87 57.45"/><g class="cls-1"><text class="cls-2" transform="translate(107.91 54.29)">S</text></g><polygon points="107.92 55.48 98.99 67.69 98.46 67.69 98.25 67.26 107.23 54.98 107.58 55.23 107.92 55.48"/><polygon points="131.72 57.39 131.66 78.21 131.23 78.46 130.8 78.15 130.87 57.45 131.3 57.14 131.72 57.39"/><polygon points="77.39 68.05 66.67 86.47 66.42 86.04 66.18 85.62 76.65 67.62 77.14 67.62 77.39 68.05"/><polygon points="66.67 86.47 44.86 86.4 45.11 85.97 45.36 85.55 66.18 85.62 66.42 86.04 66.67 86.47"/><polygon points="64.96 83.91 46.59 83.85 46.59 83.42 46.6 82.99 64.96 83.06 64.96 83.48 64.96 83.91"/><polygon points="44.86 86.4 34.27 67.9 34.51 67.48 35 67.48 45.36 85.55 45.11 85.97 44.86 86.4"/></svg>