<svg id="图层_1" data-name="图层 1" xmlns="http://www.w3.org/2000/svg" viewBox="0 0 200 130"><defs><style>.cls-1,.cls-2{isolation:isolate;}.cls-2{font-size:9.57px;font-family:ArialMT, Arial;}</style></defs><polygon points="193.88 46.15 175.4 57.03 174.96 56.79 174.96 56.29 193.44 45.41 193.66 45.78 193.88 46.15"/><polygon points="175.4 57.03 175.59 78.72 175.15 78.48 174.72 78.23 174.53 57.04 174.96 56.79 175.4 57.03"/><polygon points="172.81 58.31 172.97 76.99 172.54 77 172.1 77 171.94 58.32 172.37 58.31 172.81 58.31"/><polygon points="175.59 78.72 156.47 89.99 156.46 89.49 156.46 88.98 174.72 78.23 175.15 78.48 175.59 78.72"/><polygon points="156.47 89.99 137.54 79.28 137.58 78.8 138.01 78.55 156.46 88.98 156.46 89.49 156.47 89.99"/><polygon points="156.22 86.86 139.96 77.66 140.17 77.28 140.38 76.9 156.65 86.1 156.44 86.48 156.22 86.86"/><polygon points="137.54 79.28 121.74 84.56 121.6 84.15 121.46 83.74 137.15 78.49 137.58 78.8 137.54 79.28"/><g class="cls-1"><text class="cls-2" transform="translate(113.29 89.56)">O</text></g><polygon points="113.09 81.12 103.89 68.68 104.11 68.25 104.64 68.24 113.79 80.6 113.44 80.86 113.09 81.12"/><polygon points="103.89 68.68 82.67 68.87 82.42 68.44 82.67 68 103.88 67.81 104.11 68.25 103.89 68.68"/><polygon points="79.04 68.68 69.56 52.58 69.93 52.36 70.3 52.14 79.79 68.24 79.41 68.46 79.04 68.68"/><polygon points="81.92 68.44 71.16 50.18 71.41 49.74 71.66 49.31 82.67 68 82.42 68.44 81.92 68.44"/><polygon points="71.16 50.18 49.97 50.36 49.72 49.93 49.47 49.5 71.66 49.31 71.41 49.74 71.16 50.18"/><polygon points="51.62 52.73 42.42 69 42.04 68.78 41.66 68.57 50.87 52.31 51.24 52.52 51.62 52.73"/><polygon points="49.97 50.36 39.54 68.81 39.04 68.81 38.78 68.38 49.47 49.5 49.72 49.93 49.97 50.36"/><polygon points="38.79 69.25 21.67 69.39 21.67 68.96 21.66 68.53 38.78 68.38 39.04 68.81 38.79 69.25"/><g class="cls-1"><text class="cls-2" transform="translate(13.89 72.87)">N</text></g><polygon points="14.13 64.39 5.96 50.53 6.34 50.31 6.71 50.09 14.88 63.95 14.5 64.17 14.13 64.39"/><polygon points="14.99 74.04 7.04 88.09 6.66 87.88 6.29 87.66 14.24 73.61 14.62 73.82 14.99 74.04"/><polygon points="39.54 68.81 50.29 87.06 50.04 87.5 49.8 87.94 38.79 69.25 39.04 68.81 39.54 68.81"/><polygon points="51.52 84.45 70.21 84.29 70.21 84.72 70.21 85.16 51.53 85.32 51.52 84.89 51.52 84.45"/><polygon points="50.29 87.06 71.48 86.88 71.73 87.31 71.99 87.75 49.8 87.94 50.04 87.5 50.29 87.06"/><polygon points="71.48 86.88 81.92 68.44 82.42 68.44 82.67 68.87 71.99 87.75 71.73 87.31 71.48 86.88"/><polygon points="103.88 67.81 112.91 55.16 113.27 55.41 113.62 55.66 104.64 68.24 104.11 68.25 103.88 67.81"/><polygon points="106.97 67.97 115.03 56.67 115.38 56.92 115.74 57.18 107.68 68.47 107.33 68.22 106.97 67.97"/><g class="cls-1"><text class="cls-2" transform="translate(113.25 54.46)">N</text></g><polygon points="121.16 51.54 137.34 56.64 137.39 57.11 136.96 57.43 120.9 52.37 121.03 51.95 121.16 51.54"/><polygon points="137.34 56.64 156.08 45.6 156.09 46.1 156.09 46.6 137.83 57.36 137.39 57.11 137.34 56.64"/><polygon points="139.79 58.22 155.89 48.74 156.11 49.11 156.33 49.48 140.23 58.97 140.01 58.59 139.79 58.22"/><polygon points="156.08 45.6 174.96 56.29 174.96 56.79 174.53 57.04 156.09 46.6 156.09 46.1 156.08 45.6"/><polygon points="137.83 57.36 138.01 78.55 137.58 78.8 137.15 78.49 136.96 57.43 137.39 57.11 137.83 57.36"/></svg>