<svg id="图层_1" data-name="图层 1" xmlns="http://www.w3.org/2000/svg" viewBox="0 0 200 130"><defs><style>.cls-1,.cls-2{isolation:isolate;}.cls-2{font-size:9.22px;font-family:ArialMT, Arial;}.cls-3{fill:none;stroke:#000;stroke-miterlimit:3.73;stroke-width:0.88px;}</style></defs><polygon points="5.03 28.92 12.96 42.23 12.6 42.44 12.24 42.66 4.31 29.35 4.67 29.14 5.03 28.92"/><g class="cls-1"><text class="cls-2" transform="translate(12.05 50.83)">N</text></g><polygon points="13.14 51.95 5.54 65.55 5.17 65.34 4.81 65.14 12.41 51.54 12.78 51.74 13.14 51.95"/><polygon points="19.53 46.62 36.03 46.39 36.28 46.8 36.04 47.22 19.54 47.45 19.54 47.04 19.53 46.62"/><polygon points="36.03 46.39 46.23 28.14 46.48 28.55 46.72 28.97 36.76 46.8 36.28 46.8 36.03 46.39"/><polygon points="38.81 46.56 47.59 30.84 47.96 31.04 48.33 31.25 39.54 46.97 39.17 46.76 38.81 46.56"/><polygon points="46.23 28.14 67.61 27.84 67.38 28.26 67.14 28.68 46.72 28.97 46.48 28.55 46.23 28.14"/><polygon points="67.61 27.84 78.32 45.8 78.08 46.22 77.6 46.23 67.14 28.68 67.38 28.26 67.61 27.84"/><polygon points="66.33 30.58 75.55 46.04 75.19 46.26 74.83 46.47 65.61 31 65.97 30.79 66.33 30.58"/><polygon points="78.32 45.8 98.77 45.51 98.99 45.93 98.78 46.35 78.33 46.63 78.08 46.22 78.32 45.8"/><polygon points="99.5 45.92 108.37 57.77 108.03 58.02 107.7 58.27 98.78 46.35 98.99 45.93 99.5 45.92"/><g class="cls-1"><text class="cls-2" transform="translate(108.44 66.4)">S</text></g><polygon points="115.29 60.94 130.88 55.63 131.3 55.93 131.26 56.38 115.56 61.73 115.42 61.33 115.29 60.94"/><polygon points="133.99 54.08 149.71 62.87 149.51 63.23 149.31 63.6 133.59 54.81 133.79 54.45 133.99 54.08"/><polygon points="131.72 55.68 149.54 65.64 149.55 66.13 149.56 66.61 131.26 56.38 131.3 55.93 131.72 55.68"/><polygon points="149.54 65.64 167.09 55.19 167.51 55.42 167.51 55.91 149.56 66.61 149.55 66.13 149.54 65.64"/><polygon points="167.92 55.17 181.54 62.78 181.34 63.15 181.13 63.52 167.51 55.91 167.51 55.42 167.92 55.17"/><g class="cls-1"><text class="cls-2" transform="translate(182.17 69.36)">O</text><text class="cls-2" transform="translate(189.34 69.36)">H</text></g><polygon points="164.56 54.02 164.31 36.01 164.73 36 165.15 36 165.4 54 164.98 54.01 164.56 54.02"/><polygon points="167.09 55.19 166.8 34.77 167.22 34.52 167.63 34.27 167.92 55.17 167.51 55.42 167.09 55.19"/><polygon points="166.8 34.77 148.97 24.8 148.97 24.32 148.96 23.84 167.63 34.27 167.22 34.52 166.8 34.77"/><polygon points="149.22 27.58 133.75 36.8 133.54 36.44 133.32 36.08 148.79 26.86 149.01 27.22 149.22 27.58"/><polygon points="148.97 24.8 131.43 35.26 131.01 35.02 130.96 34.57 148.96 23.84 148.97 24.32 148.97 24.8"/><polygon points="130.6 35.34 115.08 30.53 115.2 30.13 115.33 29.73 130.96 34.57 131.01 35.02 130.6 35.34"/><g class="cls-1"><text class="cls-2" transform="translate(107.71 32.58)">N</text></g><polygon points="109.06 24.33 103.91 9.19 104.3 9.05 104.7 8.92 109.85 24.06 109.46 24.19 109.06 24.33"/><polygon points="108.1 33.73 99.5 45.92 98.99 45.93 98.77 45.51 107.42 33.25 107.76 33.49 108.1 33.73"/><polygon points="106.05 32.29 98.02 43.68 97.67 43.44 97.33 43.19 105.37 31.81 105.71 32.05 106.05 32.29"/><line class="cls-3" x1="114.11" y1="24.03" x2="117.59" y2="24.03"/><line class="cls-3" x1="115.85" y1="22.29" x2="115.85" y2="25.77"/><polygon points="131.43 35.26 131.72 55.68 131.3 55.93 130.88 55.63 130.6 35.34 131.01 35.02 131.43 35.26"/><polygon points="78.33 46.63 68.13 64.88 67.89 64.47 67.64 64.05 77.6 46.23 78.08 46.22 78.33 46.63"/><polygon points="68.13 64.88 46.75 65.18 46.98 64.76 47.22 64.34 67.64 64.05 67.89 64.47 68.13 64.88"/><polygon points="66.41 62.4 48.4 62.65 48.4 62.23 48.39 61.81 66.4 61.56 66.4 61.98 66.41 62.4"/><polygon points="46.75 65.18 36.04 47.22 36.28 46.8 36.76 46.8 47.22 64.34 46.98 64.76 46.75 65.18"/></svg>