<?xml version="1.0" encoding="UTF-8"?>
<svg id="_图层_1" data-name="图层 1" xmlns="http://www.w3.org/2000/svg" viewBox="0 0 200 130">
  <defs>
    <style>
      .cls-1 {
        font-family: ArialMT, Arial;
        font-size: 8.8px;
        isolation: isolate;
      }

      .cls-1, .cls-2, .cls-3 {
        fill: #040000;
      }

      .cls-3 {
        stroke: #040000;
        stroke-miterlimit: 3.86;
        stroke-width: .91px;
      }
    </style>
  </defs>
  <polygon class="cls-2" points="13.62 33.81 27 26.2 27.22 26.56 27.4 26.92 14.03 34.52 13.85 34.16 13.62 33.81"/>
  <text class="cls-1" transform="translate(28 27.86)"><tspan x="0" y="0">N</tspan></text>
  <polygon class="cls-2" points="30.8 19.85 30.89 4.32 31.29 4.37 31.7 4.37 31.61 19.85 31.2 19.85 30.8 19.85"/>
  <polygon class="cls-2" points="35.36 26.29 48.38 33.89 48.38 34.39 47.98 34.61 34.96 26.96 35.14 26.65 35.36 26.29"/>
  <polygon class="cls-2" points="48.38 33.89 65.74 24.05 65.74 24.5 65.74 24.95 48.79 34.61 48.38 34.39 48.38 33.89"/>
  <polygon class="cls-2" points="50.57 35.42 65.52 26.92 65.7 27.27 65.92 27.63 50.98 36.13 50.8 35.77 50.57 35.42"/>
  <polygon class="cls-2" points="65.74 24.05 82.96 34.12 82.96 34.57 82.56 34.79 65.74 24.95 65.74 24.5 65.74 24.05"/>
  <polygon class="cls-2" points="83.37 34.79 83.23 54.29 82.83 54.52 82.43 54.29 82.56 34.79 82.96 34.57 83.37 34.79"/>
  <polygon class="cls-2" points="80.95 35.95 80.86 53.13 80.46 53.13 80.06 53.13 80.15 35.95 80.55 35.95 80.95 35.95"/>
  <polygon class="cls-2" points="82.83 55.01 65.47 64.85 65.52 64.4 65.52 63.96 82.43 54.29 82.83 54.52 82.83 55.01"/>
  <polygon class="cls-2" points="65.47 64.85 47.89 54.56 48.29 54.34 48.7 54.12 65.52 63.96 65.52 64.4 65.47 64.85"/>
  <polygon class="cls-2" points="65.29 61.99 50.49 53.31 50.66 52.95 50.89 52.59 65.7 61.32 65.52 61.63 65.29 61.99"/>
  <polygon class="cls-2" points="47.89 54.56 47.98 34.61 48.38 34.39 48.79 34.61 48.7 54.12 48.29 54.34 47.89 54.56"/>
  <polygon class="cls-2" points="83.23 54.29 100.05 64.14 100.05 64.58 99.65 64.85 82.83 55.01 82.83 54.52 83.23 54.29"/>
  <polygon class="cls-2" points="100.05 64.14 117.01 54.52 117.41 54.74 117.41 55.19 100.46 64.85 100.05 64.58 100.05 64.14"/>
  <polygon class="cls-2" points="102.25 65.66 117.19 57.16 117.37 57.52 117.59 57.83 102.65 66.33 102.42 66.02 102.25 65.66"/>
  <polygon class="cls-2" points="117.77 54.52 134.63 64.36 134.63 64.81 134.63 65.25 117.41 55.19 117.41 54.74 117.77 54.52"/>
  <polygon class="cls-2" points="134.46 61.72 149.35 53.18 149.58 53.53 149.75 53.89 134.81 62.39 134.63 62.03 134.46 61.72"/>
  <polygon class="cls-2" points="134.63 64.36 151.54 54.7 151.95 54.92 152.35 55.14 134.63 65.25 134.63 64.81 134.63 64.36"/>
  <polygon class="cls-2" points="151.54 54.7 151.68 35.19 152.08 34.97 152.48 35.24 152.35 55.14 151.95 54.92 151.54 54.7"/>
  <polygon class="cls-2" points="152.08 34.52 165.23 27.01 165.41 27.36 165.64 27.72 152.48 35.24 152.08 34.97 152.08 34.52"/>
  <polygon class="cls-2" points="154.27 36.04 166.4 29.11 166.62 29.47 166.8 29.78 154.63 36.71 154.45 36.36 154.27 36.04"/>
  <text class="cls-1" transform="translate(166.23 28.67)"><tspan x="0" y="0">N</tspan></text>
  <polygon class="cls-2" points="173.6 27.09 186.84 34.83 186.62 35.19 186.44 35.51 173.2 27.77 173.38 27.45 173.6 27.09"/>
  <polygon class="cls-2" points="169.04 20.65 169.13 5.13 169.53 5.17 169.93 5.17 169.84 20.65 169.44 20.65 169.04 20.65"/>
  <line class="cls-3" x1="172.35" y1="20.52" x2="175.66" y2="20.52"/>
  <line class="cls-3" x1="174" y1="18.86" x2="174" y2="22.17"/>
  <polygon class="cls-2" points="151.68 35.19 134.86 25.35 134.86 24.9 134.86 24.46 152.08 34.52 152.08 34.97 151.68 35.19"/>
  <polygon class="cls-2" points="135.04 28.03 120.09 36.53 119.87 36.18 119.69 35.82 134.63 27.32 134.81 27.68 135.04 28.03"/>
  <polygon class="cls-2" points="134.86 25.35 117.9 35.01 117.5 34.79 117.5 34.34 134.86 24.46 134.86 24.9 134.86 25.35"/>
  <polygon class="cls-2" points="117.1 35.01 104.3 27.5 104.53 27.18 104.71 26.83 117.5 34.34 117.5 34.79 117.1 35.01"/>
  <text class="cls-1" transform="translate(96.87 28.27)"><tspan x="0" y="0">O</tspan></text>
  <polygon class="cls-2" points="96.25 27.45 83.37 34.79 82.96 34.57 82.96 34.12 95.85 26.74 96.07 27.09 96.25 27.45"/>
  <polygon class="cls-2" points="117.9 35.01 117.77 54.52 117.41 54.74 117.01 54.52 117.1 35.01 117.5 34.79 117.9 35.01"/>
  <polygon class="cls-2" points="100.46 64.85 100.32 84.31 99.92 84.58 99.56 84.31 99.65 64.85 100.05 64.58 100.46 64.85"/>
  <polygon class="cls-2" points="100.14 87.67 85.2 96.17 84.98 95.81 84.8 95.5 99.74 86.95 99.92 87.31 100.14 87.67"/>
  <polygon class="cls-2" points="99.92 85.03 83.01 94.65 82.61 94.42 82.2 94.2 99.56 84.31 99.92 84.58 99.92 85.03"/>
  <polygon class="cls-2" points="83.01 94.65 82.87 114.15 82.47 114.38 82.07 114.6 82.2 94.2 82.61 94.42 83.01 94.65"/>
  <polygon class="cls-2" points="85.07 112.68 99.92 121.35 99.74 121.71 99.52 122.03 84.66 113.35 84.89 113.03 85.07 112.68"/>
  <polygon class="cls-2" points="82.87 114.15 99.7 123.99 99.7 124.44 99.7 124.93 82.07 114.6 82.47 114.38 82.87 114.15"/>
  <polygon class="cls-2" points="99.7 123.99 116.65 114.38 117.05 114.6 117.46 114.82 99.7 124.93 99.7 124.44 99.7 123.99"/>
  <polygon class="cls-2" points="114.28 113.21 114.37 95.99 114.77 95.99 115.17 95.99 115.04 113.21 114.64 113.21 114.28 113.21"/>
  <polygon class="cls-2" points="116.65 114.38 116.74 94.87 117.14 94.65 117.54 95 117.46 114.82 117.05 114.6 116.65 114.38"/>
  <polygon class="cls-2" points="117.28 94.24 135.53 93.84 135.84 94.24 136.16 94.65 117.54 95 117.14 94.65 117.28 94.24"/>
  <polygon class="cls-2" points="136.38 92.68 149.67 100.46 149.44 100.82 149.26 101.18 135.98 93.35 136.16 93.04 136.38 92.68"/>
  <polygon class="cls-2" points="134.81 94.56 148.46 102.52 148.23 102.88 148.05 103.24 134.41 95.23 134.59 94.91 134.81 94.56"/>
  <text class="cls-1" transform="translate(149.65 107.88)"><tspan x="0" y="0">O</tspan></text>
  <polygon class="cls-2" points="135.53 93.98 139.29 79.26 139.64 79.35 140.05 79.44 136.2 94.51 135.84 94.24 135.53 93.98"/>
  <text class="cls-1" transform="translate(137.37 78.47)"><tspan x="0" y="0">O</tspan></text>
  <line class="cls-3" x1="143.85" y1="70.22" x2="147.16" y2="70.22"/>
  <polygon class="cls-2" points="116.74 94.87 99.92 85.03 99.92 84.58 100.32 84.31 117.28 94.24 117.14 94.65 116.74 94.87"/>
</svg>