<svg id="图层_1" data-name="图层 1" xmlns="http://www.w3.org/2000/svg" viewBox="0 0 200 130"><defs><style>.cls-1,.cls-2,.cls-3{isolation:isolate;}.cls-2{font-size:7.37px;}.cls-2,.cls-3{font-family:ArialMT, Arial;}.cls-3{font-size:4.54px;}.cls-4{fill:none;stroke:#000;stroke-miterlimit:3.88;stroke-width:0.92px;}</style></defs><polygon points="171.79 28.79 160.63 22.36 160.8 22.07 160.97 21.78 172.13 28.21 171.96 28.5 171.79 28.79"/><g class="cls-1"><text class="cls-2" transform="translate(154.81 23.14)">N</text></g><polygon points="157.13 16.43 157.12 3.43 157.46 3.43 157.79 3.43 157.8 16.43 157.47 16.43 157.13 16.43"/><polygon points="154.31 22.37 143.33 28.72 143 28.52 143 28.14 153.97 21.79 154.14 22.08 154.31 22.37"/><polygon points="143.33 28.72 143.34 45.44 143.01 45.25 142.68 45.05 142.66 28.72 143 28.52 143.33 28.72"/><polygon points="141.32 29.68 141.34 44.09 141 44.09 140.67 44.09 140.66 29.68 140.99 29.68 141.32 29.68"/><polygon points="143.34 45.44 128.53 54.01 128.53 53.62 128.53 53.23 142.68 45.05 143.01 45.25 143.34 45.44"/><polygon points="128.53 54.01 114.05 45.66 114.05 45.27 114.38 45.08 128.53 53.23 128.53 53.62 128.53 54.01"/><polygon points="128.37 51.59 115.88 44.4 116.05 44.11 116.22 43.82 128.7 51.01 128.53 51.3 128.37 51.59"/><polygon points="114.05 45.66 99.91 53.84 99.57 53.64 99.57 53.26 113.71 45.08 114.05 45.27 114.05 45.66"/><polygon points="99.91 53.84 99.92 70.17 99.58 70.37 99.25 70.17 99.24 53.84 99.57 53.64 99.91 53.84"/><polygon points="99.92 70.17 114.41 78.52 114.07 78.72 113.74 78.91 99.58 70.75 99.58 70.37 99.92 70.17"/><polygon points="99.75 72.39 112.23 79.59 112.07 79.88 111.9 80.17 99.42 72.97 99.59 72.68 99.75 72.39"/><polygon points="114.41 78.52 114.42 95.63 114.09 95.44 113.75 95.25 113.74 78.91 114.07 78.72 114.41 78.52"/><polygon points="114.42 95.63 99.95 104 99.61 103.81 99.61 103.43 113.75 95.25 114.09 95.44 114.42 95.63"/><polygon points="112.25 94.57 99.78 101.78 99.61 101.5 99.44 101.21 111.91 93.99 112.08 94.28 112.25 94.57"/><polygon points="99.95 104 99.96 116.81 99.62 116.81 99.29 116.82 99.28 104.01 99.61 103.81 99.95 104"/><g class="cls-1"><text class="cls-2" transform="translate(96.96 122.57)">N</text><text class="cls-2" transform="translate(102.29 122.57)">H</text><text class="cls-3" transform="translate(107.61 123.71)">2</text></g><polygon points="99.28 104.01 84.79 95.66 85.12 95.46 85.46 95.27 99.61 103.43 99.61 103.81 99.28 104.01"/><polygon points="84.79 95.66 84.77 79.06 85.11 78.74 85.44 78.93 85.46 95.27 85.12 95.46 84.79 95.66"/><polygon points="86.79 94.3 86.78 79.9 87.12 79.9 87.45 79.9 87.46 94.3 87.13 94.3 86.79 94.3"/><polygon points="84.77 79.06 70.36 78.66 70.62 78.33 70.88 78 85.02 78.4 85.11 78.74 84.77 79.06"/><polygon points="71.83 79.18 60.35 85.82 60.18 85.53 60.02 85.24 71.49 78.6 71.66 78.89 71.83 79.18"/><polygon points="70.53 77.61 59.35 84.08 59.18 83.79 59.01 83.5 70.2 77.03 70.37 77.32 70.53 77.61"/><g class="cls-1"><text class="cls-2" transform="translate(53.28 89.69)">O</text></g><polygon points="70.33 78.56 67.17 65.91 67.49 65.83 67.81 65.75 70.91 78.11 70.62 78.33 70.33 78.56"/><g class="cls-1"><text class="cls-2" transform="translate(58.37 65.1)">H</text><text class="cls-2" transform="translate(63.69 65.1)">O</text></g><polygon points="85.02 78.4 99.25 70.17 99.58 70.37 99.58 70.75 85.44 78.93 85.11 78.74 85.02 78.4"/><polygon points="99.24 53.84 85.08 45.68 85.08 45.3 85.42 45.1 99.57 53.26 99.57 53.64 99.24 53.84"/><polygon points="99.4 51.62 86.92 44.42 87.09 44.13 87.25 43.84 99.73 51.04 99.57 51.33 99.4 51.62"/><polygon points="85.08 45.68 70.61 54.05 70.61 53.67 70.61 53.28 84.75 45.1 85.08 45.3 85.08 45.68"/><polygon points="70.61 54.05 55.78 45.51 56.12 45.32 56.45 45.13 70.61 53.28 70.61 53.67 70.61 54.05"/><polygon points="70.44 51.64 57.95 44.45 58.12 44.16 58.29 43.87 70.77 51.06 70.6 51.35 70.44 51.64"/><polygon points="55.78 45.51 55.77 28.79 56.1 28.6 56.44 28.79 56.45 45.13 56.12 45.32 55.78 45.51"/><polygon points="55.77 28.79 44.78 22.46 44.95 22.17 45.11 21.88 56.1 28.21 56.1 28.6 55.77 28.79"/><polygon points="55.93 26.57 45.78 20.72 45.95 20.43 46.11 20.14 56.27 25.99 56.1 26.28 55.93 26.57"/><g class="cls-1"><text class="cls-2" transform="translate(38.95 23.23)">N</text></g><polygon points="38.45 22.46 27.31 28.91 27.14 28.62 26.97 28.33 38.12 21.89 38.28 22.17 38.45 22.46"/><polygon points="41.28 16.53 41.27 3.52 41.6 3.52 41.93 3.52 41.95 16.53 41.61 16.53 41.28 16.53"/><line class="cls-4" x1="44.07" y1="16.4" x2="46.86" y2="16.4"/><line class="cls-4" x1="45.46" y1="15.01" x2="45.46" y2="17.79"/><polygon points="56.1 28.21 70.58 19.84 70.58 20.22 70.58 20.61 56.44 28.79 56.1 28.6 56.1 28.21"/><polygon points="70.58 19.84 85.07 28.19 85.07 28.57 84.73 28.77 70.58 20.61 70.58 20.22 70.58 19.84"/><polygon points="70.75 22.25 83.23 29.44 83.06 29.73 82.89 30.02 70.41 22.83 70.58 22.54 70.75 22.25"/><polygon points="85.07 28.19 95.84 21.96 96 22.25 96.17 22.54 85.4 28.77 85.07 28.57 85.07 28.19"/><g class="cls-1"><text class="cls-2" transform="translate(96.67 23.19)">O</text></g><polygon points="103.25 21.95 114.03 28.16 114.03 28.55 113.7 28.74 102.91 22.53 103.08 22.24 103.25 21.95"/><polygon points="114.03 28.16 128.51 19.79 128.51 20.18 128.51 20.56 114.37 28.74 114.03 28.55 114.03 28.16"/><polygon points="115.87 29.42 128.34 22.2 128.51 22.49 128.68 22.78 116.21 30 116.04 29.7 115.87 29.42"/><polygon points="128.51 19.79 143 28.14 143 28.52 142.66 28.72 128.51 20.56 128.51 20.18 128.51 19.79"/><polygon points="114.37 28.74 114.38 45.08 114.05 45.27 113.71 45.08 113.7 28.74 114.03 28.55 114.37 28.74"/><polygon points="85.4 28.77 85.42 45.1 85.08 45.3 84.75 45.1 84.73 28.77 85.07 28.57 85.4 28.77"/></svg>