<svg id="图层_1" data-name="图层 1" xmlns="http://www.w3.org/2000/svg" viewBox="0 0 200 130"><defs><style>.cls-1,.cls-2{isolation:isolate;}.cls-2{font-size:8.97px;font-family:ArialMT, Arial;}.cls-3{fill:none;stroke:#000;stroke-miterlimit:3.86;stroke-width:0.91px;}</style></defs><polygon points="188.47 34.35 174.79 26.65 174.99 26.29 175.19 25.94 188.87 33.64 188.67 33.99 188.47 34.35"/><g class="cls-1"><text class="cls-2" transform="translate(167.69 27.64)">N</text></g><polygon points="170.48 19.49 170.31 3.66 170.71 3.66 171.12 3.65 171.29 19.48 170.88 19.48 170.48 19.49"/><polygon points="167.09 26.76 153.83 34.61 153.42 34.38 153.42 33.91 166.67 26.06 166.88 26.41 167.09 26.76"/><polygon points="153.83 34.61 154.05 54.96 153.64 54.73 153.23 54.5 153.02 34.62 153.42 34.38 153.83 34.61"/><polygon points="151.4 35.81 151.59 53.34 151.19 53.34 150.78 53.35 150.59 35.82 151 35.81 151.4 35.81"/><polygon points="154.05 54.96 136.13 65.56 136.13 65.09 136.13 64.63 153.23 54.5 153.64 54.73 154.05 54.96"/><polygon points="136.13 65.56 118.4 55.58 118.39 55.11 118.8 54.87 136.13 64.63 136.13 65.09 136.13 65.56"/><polygon points="135.9 62.63 120.62 54.03 120.82 53.67 121.02 53.32 136.3 61.92 136.1 62.27 135.9 62.63"/><polygon points="118.4 55.58 101.29 65.71 100.88 65.48 100.88 65.01 117.99 54.88 118.39 55.11 118.4 55.58"/><polygon points="101.29 65.71 101.51 85.59 101.1 85.83 100.69 85.6 100.48 65.72 100.88 65.48 101.29 65.71"/><polygon points="101.34 89 86.26 97.93 86.05 97.58 85.84 97.23 100.93 88.3 101.14 88.65 101.34 89"/><polygon points="101.11 86.3 84 96.43 83.59 96.2 83.18 95.97 100.69 85.6 101.1 85.83 101.11 86.3"/><polygon points="84 96.43 84.22 116.31 83.81 116.55 83.41 116.79 83.18 95.97 83.59 96.2 84 96.43"/><polygon points="86.44 114.76 101.72 123.36 101.52 123.71 101.32 124.06 86.04 115.47 86.24 115.11 86.44 114.76"/><polygon points="84.22 116.31 101.54 126.06 101.55 126.53 101.55 127 83.41 116.79 83.81 116.55 84.22 116.31"/><polygon points="101.54 126.06 118.65 115.93 119.06 116.16 119.47 116.39 101.55 127 101.55 126.53 101.54 126.06"/><polygon points="116.2 114.78 116.01 97.25 116.41 97.25 116.82 97.24 117.01 114.78 116.6 114.78 116.2 114.78"/><polygon points="118.65 115.93 118.44 96.05 118.84 95.81 119.24 95.57 119.47 116.39 119.06 116.16 118.65 115.93"/><polygon points="118.44 96.05 101.11 86.3 101.1 85.83 101.51 85.59 119.24 95.57 118.84 95.81 118.44 96.05"/><polygon points="100.48 65.72 83.15 55.97 83.15 55.5 83.55 55.26 100.88 65.01 100.88 65.48 100.48 65.72"/><polygon points="100.65 63.01 85.38 54.41 85.57 54.06 85.77 53.7 101.05 62.3 100.85 62.66 100.65 63.01"/><polygon points="83.15 55.97 65.64 66.33 65.64 65.86 65.63 65.39 82.74 55.27 83.15 55.5 83.15 55.97"/><polygon points="65.64 66.33 47.49 56.12 47.9 55.88 48.3 55.64 65.63 65.39 65.64 65.86 65.64 66.33"/><polygon points="65.4 63.4 50.13 54.8 50.33 54.44 50.53 54.09 65.8 62.69 65.6 63.04 65.4 63.4"/><polygon points="47.49 56.12 47.27 35.77 47.68 35.53 48.09 35.76 48.3 55.64 47.9 55.88 47.49 56.12"/><polygon points="47.27 35.77 33.8 28.18 34 27.83 34.2 27.48 47.67 35.06 47.68 35.53 47.27 35.77"/><polygon points="47.45 33.06 34.99 26.06 35.2 25.7 35.4 25.35 47.85 32.36 47.65 32.71 47.45 33.06"/><g class="cls-1"><text class="cls-2" transform="translate(26.7 29.18)">N</text></g><polygon points="26.1 28.3 12.64 36.27 12.43 35.91 12.22 35.56 25.68 27.6 25.89 27.95 26.1 28.3"/><polygon points="29.49 21.02 29.31 5.2 29.72 5.2 30.13 5.19 30.3 21.02 29.89 21.02 29.49 21.02"/><line class="cls-3" x1="32.93" y1="20.86" x2="36.32" y2="20.86"/><line class="cls-3" x1="34.63" y1="19.17" x2="34.63" y2="22.56"/><polygon points="47.67 35.06 65.19 24.69 65.19 25.16 65.2 25.63 48.09 35.76 47.68 35.53 47.67 35.06"/><polygon points="65.19 24.69 82.92 34.68 82.93 35.15 82.52 35.38 65.2 25.63 65.19 25.16 65.19 24.69"/><polygon points="65.42 27.63 80.7 36.23 80.5 36.58 80.3 36.94 65.02 28.34 65.22 27.98 65.42 27.63"/><polygon points="82.92 34.68 96.42 26.68 96.63 27.03 96.84 27.38 83.33 35.38 82.93 35.15 82.92 34.68"/><g class="cls-1"><text class="cls-2" transform="translate(97.45 28.41)">S</text></g><polygon points="104.44 26.57 118.17 34.29 118.17 34.76 117.77 35 104.05 27.28 104.25 26.92 104.44 26.57"/><polygon points="118.17 34.29 135.68 23.92 135.69 24.39 135.69 24.86 118.58 34.99 118.17 34.76 118.17 34.29"/><polygon points="120.42 35.8 135.51 26.86 135.72 27.21 135.92 27.56 120.84 36.49 120.63 36.15 120.42 35.8"/><polygon points="135.68 23.92 153.42 33.91 153.42 34.38 153.02 34.62 135.69 24.86 135.69 24.39 135.68 23.92"/><polygon points="118.58 34.99 118.8 54.87 118.39 55.11 117.99 54.88 117.77 35 118.17 34.76 118.58 34.99"/><polygon points="83.33 35.38 83.55 55.26 83.15 55.5 82.74 55.27 82.52 35.38 82.93 35.15 83.33 35.38"/></svg>