<svg id="图层_1" data-name="图层 1" xmlns="http://www.w3.org/2000/svg" viewBox="0 0 200 130"><defs><style>.cls-1,.cls-2{isolation:isolate;}.cls-2{font-size:8.78px;font-family:ArialMT, Arial;}</style></defs><polygon points="185.92 36.48 172.64 28.83 172.84 28.49 173.04 28.14 186.32 35.79 186.12 36.14 185.92 36.48"/><g class="cls-1"><text class="cls-2" transform="translate(165.71 29.76)">N</text></g><polygon points="168.47 21.78 168.46 6.3 168.85 6.3 169.25 6.3 169.27 21.78 168.87 21.78 168.47 21.78"/><polygon points="165.11 28.84 152.05 36.41 151.65 36.17 151.65 35.72 164.71 28.16 164.91 28.5 165.11 28.84"/><polygon points="152.05 36.41 152.07 56.31 151.67 56.08 151.27 55.85 151.25 36.41 151.65 36.17 152.05 36.41"/><polygon points="149.66 37.56 149.68 54.7 149.28 54.7 148.88 54.7 148.86 37.56 149.26 37.56 149.66 37.56"/><polygon points="152.07 56.31 134.44 66.51 134.44 66.05 134.44 65.59 151.27 55.85 151.67 56.08 152.07 56.31"/><polygon points="134.44 66.51 117.2 56.58 117.19 56.12 117.59 55.89 134.44 65.59 134.44 66.05 134.44 66.51"/><polygon points="134.24 63.64 119.38 55.08 119.58 54.73 119.78 54.39 134.64 62.95 134.44 63.29 134.24 63.64"/><polygon points="116.8 55.89 116.78 36.44 117.17 36.21 117.57 36.44 117.59 55.89 117.19 56.12 116.8 55.89"/><polygon points="117.17 35.75 134.4 25.78 134.4 26.24 134.4 26.7 117.57 36.44 117.17 36.21 117.17 35.75"/><polygon points="119.36 37.24 134.2 28.66 134.4 29 134.6 29.34 119.76 37.93 119.56 37.59 119.36 37.24"/><polygon points="134.4 25.78 151.65 35.72 151.65 36.17 151.25 36.41 134.4 26.7 134.4 26.24 134.4 25.78"/><polygon points="116.78 36.44 103.94 29.05 104.14 28.7 104.33 28.36 117.17 35.75 117.17 36.21 116.78 36.44"/><g class="cls-1"><text class="cls-2" transform="translate(96.51 29.83)">O</text></g><polygon points="95.92 29.06 83.1 36.48 82.7 36.25 82.7 35.79 95.52 28.37 95.72 28.72 95.92 29.06"/><polygon points="80.11 37.98 65.26 29.42 65.45 29.07 65.65 28.73 80.51 37.29 80.31 37.63 80.11 37.98"/><polygon points="82.3 36.48 65.45 26.78 65.45 26.32 65.45 25.86 82.7 35.79 82.7 36.25 82.3 36.48"/><polygon points="65.45 26.78 48.62 36.52 48.23 36.29 48.03 35.94 65.45 25.86 65.45 26.32 65.45 26.78"/><polygon points="48.39 35.88 47.95 36.64 47.61 36.44 47.26 36.24 47.7 35.48 48.05 35.68 48.39 35.88"/><polygon points="46.41 34.48 45.75 35.62 45.41 35.42 45.06 35.23 45.72 34.08 46.07 34.28 46.41 34.48"/><polygon points="44.43 33.09 43.55 34.61 43.21 34.41 42.86 34.21 43.74 32.69 44.09 32.89 44.43 33.09"/><polygon points="42.45 31.69 41.35 33.6 41.01 33.4 40.66 33.2 41.76 31.3 42.1 31.5 42.45 31.69"/><polygon points="40.47 30.3 39.15 32.58 38.81 32.38 38.46 32.18 39.78 29.9 40.12 30.1 40.47 30.3"/><polygon points="38.49 28.91 36.95 31.57 36.61 31.37 36.27 31.17 37.8 28.51 38.14 28.71 38.49 28.91"/><polygon points="36.51 27.51 34.76 30.55 34.41 30.36 34.06 30.16 35.82 27.11 36.16 27.31 36.51 27.51"/><g class="cls-1"><text class="cls-2" transform="translate(27.81 29.91)">N</text></g><polygon points="27.21 28.99 13.95 36.67 13.75 36.32 13.55 35.98 26.81 28.3 27.01 28.65 27.21 28.99"/><polygon points="30.57 21.93 30.56 6.45 30.96 6.45 31.35 6.45 31.37 21.93 30.97 21.93 30.57 21.93"/><polygon points="48.62 36.52 48.64 55.96 48.25 56.19 47.85 56.42 47.83 36.29 48.23 36.29 48.62 36.52"/><polygon points="50.83 54.46 65.69 63.02 65.49 63.37 65.29 63.71 50.44 55.15 50.63 54.81 50.83 54.46"/><polygon points="48.64 55.96 65.49 65.66 65.49 66.12 65.5 66.58 47.85 56.42 48.25 56.19 48.64 55.96"/><polygon points="65.49 65.66 82.32 55.92 82.72 56.15 82.72 56.61 65.5 66.58 65.49 66.12 65.49 65.66"/><polygon points="83.12 55.92 99.97 65.63 99.97 66.09 99.57 66.32 82.72 56.61 82.72 56.15 83.12 55.92"/><polygon points="82.92 58.57 97.78 67.12 97.58 67.47 97.38 67.81 82.53 59.26 82.72 58.91 82.92 58.57"/><polygon points="100.37 66.32 100.39 85.76 99.99 85.99 99.59 85.76 99.57 66.32 99.97 66.09 100.37 66.32"/><polygon points="100.19 89.09 85.35 97.68 85.15 97.34 84.95 96.99 99.79 88.4 99.99 88.75 100.19 89.09"/><polygon points="99.99 86.45 83.16 96.19 82.76 95.96 82.36 95.73 99.59 85.76 99.99 85.99 99.99 86.45"/><polygon points="83.16 96.19 83.18 115.63 82.78 115.86 82.39 116.09 82.36 95.73 82.76 95.96 83.16 96.19"/><polygon points="85.37 114.14 100.23 122.69 100.03 123.04 99.83 123.38 84.97 114.83 85.17 114.48 85.37 114.14"/><polygon points="83.18 115.63 100.03 125.34 100.03 125.8 100.03 126.26 82.39 116.09 82.78 115.86 83.18 115.63"/><polygon points="100.03 125.34 116.86 115.6 117.26 115.83 117.66 116.06 100.03 126.26 100.03 125.8 100.03 125.34"/><polygon points="114.47 114.45 114.45 97.31 114.85 97.31 115.25 97.3 115.27 114.45 114.87 114.45 114.47 114.45"/><polygon points="116.86 115.6 116.84 96.15 117.24 95.92 117.64 96.31 117.66 116.06 117.26 115.83 116.86 115.6"/><polygon points="117.34 95.52 134.15 95.02 134.46 95.41 134.78 95.79 117.64 96.31 117.24 95.92 117.34 95.52"/><polygon points="134.96 93.85 148.3 101.53 148.1 101.88 147.9 102.22 134.56 94.54 134.76 94.2 134.96 93.85"/><polygon points="133.43 95.73 147.1 103.6 146.91 103.95 146.71 104.29 133.03 96.42 133.23 96.07 133.43 95.73"/><g class="cls-1"><text class="cls-2" transform="translate(148.3 108.89)">O</text></g><polygon points="134.12 95.14 137.77 80.42 138.16 80.52 138.55 80.61 134.81 95.67 134.46 95.41 134.12 95.14"/><g class="cls-1"><text class="cls-2" transform="translate(135.85 79.64)">O</text><text class="cls-2" transform="translate(142.67 79.64)">H</text></g><polygon points="116.84 96.15 99.99 86.45 99.99 85.99 100.39 85.76 117.34 95.52 117.24 95.92 116.84 96.15"/><polygon points="99.97 65.63 116.8 55.89 117.19 56.12 117.2 56.58 100.37 66.32 99.97 66.09 99.97 65.63"/><polygon points="82.32 55.92 82.3 36.48 82.7 36.25 83.1 36.48 83.12 55.92 82.72 56.15 82.32 55.92"/></svg>