<svg id="图层_1" data-name="图层 1" xmlns="http://www.w3.org/2000/svg" viewBox="0 0 200 130"><defs><style>.cls-1,.cls-2{isolation:isolate;}.cls-2{font-size:8.71px;font-family:ArialMT, Arial;}.cls-3{fill:none;stroke:#000;stroke-miterlimit:3.86;stroke-width:0.91px;}</style></defs><polygon points="186.33 35.14 173.09 27.61 173.28 27.27 173.48 26.93 186.72 34.45 186.52 34.8 186.33 35.14"/><g class="cls-1"><text class="cls-2" transform="translate(166.2 28.56)">N</text></g><polygon points="168.92 20.64 168.82 5.29 169.21 5.28 169.61 5.28 169.71 20.64 169.32 20.64 168.92 20.64"/><polygon points="165.61 27.68 152.7 35.25 152.31 35.03 152.3 34.57 165.21 27 165.41 27.34 165.61 27.68"/><polygon points="152.7 35.25 152.84 55.01 152.44 54.78 152.04 54.56 151.91 35.26 152.31 35.03 152.7 35.25"/><polygon points="150.34 36.41 150.46 53.43 150.06 53.43 149.67 53.43 149.55 36.41 149.95 36.41 150.34 36.41"/><polygon points="152.84 55.01 135.4 65.23 135.4 64.77 135.4 64.32 152.04 54.56 152.44 54.78 152.84 55.01"/><polygon points="135.4 65.23 118.23 55.47 118.23 55.01 118.62 54.78 135.4 64.32 135.4 64.77 135.4 65.23"/><polygon points="135.19 62.38 120.39 53.97 120.59 53.63 120.78 53.28 135.58 61.69 135.38 62.04 135.19 62.38"/><polygon points="118.23 55.47 101.58 65.23 101.19 65 101.18 64.55 117.83 54.79 118.23 55.01 118.23 55.47"/><polygon points="101.58 65.23 101.71 84.53 101.32 84.76 100.92 84.53 100.79 65.23 101.19 65 101.58 65.23"/><polygon points="101.71 84.53 118.89 94.29 118.49 94.52 118.1 94.75 101.32 85.21 101.32 84.76 101.71 84.53"/><polygon points="101.53 87.15 116.33 95.56 116.13 95.9 115.94 96.25 101.14 87.84 101.34 87.5 101.53 87.15"/><polygon points="118.89 94.29 119.02 114.5 118.63 114.27 118.23 114.05 118.1 94.75 118.49 94.52 118.89 94.29"/><polygon points="119.02 114.5 101.59 124.72 101.59 124.27 101.58 123.81 118.23 114.05 118.63 114.27 119.02 114.5"/><polygon points="116.45 113.26 101.77 121.87 101.57 121.53 101.37 121.19 116.05 112.58 116.25 112.92 116.45 113.26"/><polygon points="101.59 124.72 84.02 114.73 84.41 114.5 84.81 114.27 101.58 123.81 101.59 124.27 101.59 124.72"/><polygon points="84.02 114.73 83.89 95.14 84.28 94.75 84.68 94.98 84.81 114.27 84.41 114.5 84.02 114.73"/><polygon points="86.38 113.12 86.26 96.11 86.66 96.1 87.06 96.1 87.17 113.12 86.78 113.12 86.38 113.12"/><polygon points="83.89 95.14 66.8 94.76 67.11 94.37 67.41 93.98 84.18 94.35 84.28 94.75 83.89 95.14"/><polygon points="68.54 95.36 55.04 103.28 54.84 102.94 54.64 102.59 68.14 94.68 68.34 95.02 68.54 95.36"/><polygon points="67 93.52 53.84 101.23 53.65 100.89 53.45 100.55 66.6 92.83 66.8 93.18 67 93.52"/><g class="cls-1"><text class="cls-2" transform="translate(46.68 107.89)">O</text></g><polygon points="66.77 94.64 62.94 79.73 63.32 79.63 63.71 79.53 67.44 94.1 67.11 94.37 66.77 94.64"/><g class="cls-1"><text class="cls-2" transform="translate(52.52 78.76)">H</text><text class="cls-2" transform="translate(58.81 78.76)">O</text></g><polygon points="84.18 94.35 100.92 84.53 101.32 84.76 101.32 85.21 84.68 94.98 84.28 94.75 84.18 94.35"/><polygon points="100.79 65.23 84.02 55.7 84.01 55.24 84.41 55.01 101.18 64.55 101.19 65 100.79 65.23"/><polygon points="100.97 62.61 86.18 54.2 86.37 53.86 86.57 53.52 101.36 61.92 101.17 62.27 100.97 62.61"/><polygon points="84.02 55.7 66.98 65.69 66.97 65.24 66.97 64.78 83.62 55.02 84.01 55.24 84.02 55.7"/><polygon points="66.98 65.69 49.41 55.71 49.8 55.48 50.19 55.24 66.97 64.78 66.97 65.24 66.98 65.69"/><polygon points="66.76 62.84 51.97 54.43 52.16 54.09 52.35 53.75 67.15 62.16 66.95 62.5 66.76 62.84"/><polygon points="49.41 55.71 49.27 35.95 49.67 35.72 50.06 35.95 50.19 55.24 49.8 55.48 49.41 55.71"/><polygon points="49.27 35.95 36.23 28.54 36.43 28.2 36.62 27.85 49.66 35.27 49.67 35.72 49.27 35.95"/><polygon points="49.45 33.33 37.4 26.48 37.6 26.14 37.79 25.79 49.84 32.64 49.65 32.98 49.45 33.33"/><g class="cls-1"><text class="cls-2" transform="translate(29.35 29.49)">N</text></g><polygon points="28.76 28.61 15.65 36.29 15.45 35.95 15.25 35.61 28.36 27.93 28.56 28.27 28.76 28.61"/><polygon points="32.07 21.57 31.96 6.21 32.36 6.21 32.75 6.2 32.86 21.56 32.46 21.57 32.07 21.57"/><line class="cls-3" x1="35.39" y1="21.41" x2="38.68" y2="21.41"/><line class="cls-3" x1="37.04" y1="19.77" x2="37.04" y2="23.06"/><polygon points="49.66 35.27 66.7 25.27 66.71 25.73 66.71 26.18 50.06 35.95 49.67 35.72 49.66 35.27"/><polygon points="66.7 25.27 83.88 35.03 83.88 35.49 83.49 35.72 66.71 26.18 66.71 25.73 66.7 25.27"/><polygon points="66.92 28.12 81.71 36.53 81.52 36.88 81.32 37.22 66.53 28.81 66.72 28.47 66.92 28.12"/><polygon points="83.88 35.03 97.03 27.32 97.22 27.66 97.42 28 84.28 35.72 83.88 35.49 83.88 35.03"/><g class="cls-1"><text class="cls-2" transform="translate(98.01 29.03)">S</text></g><polygon points="104.81 27.25 118.09 34.8 118.09 35.26 117.7 35.49 104.42 27.94 104.61 27.6 104.81 27.25"/><polygon points="118.09 34.8 135.13 24.81 135.13 25.27 135.14 25.72 118.49 35.48 118.09 35.26 118.09 34.8"/><polygon points="120.27 36.27 134.95 27.66 135.15 28 135.35 28.34 120.67 36.95 120.47 36.61 120.27 36.27"/><polygon points="135.13 24.81 152.3 34.57 152.31 35.03 151.91 35.26 135.14 25.72 135.13 25.27 135.13 24.81"/><polygon points="118.49 35.48 118.62 54.78 118.23 55.01 117.83 54.79 117.7 35.49 118.09 35.26 118.49 35.48"/><polygon points="84.28 35.72 84.41 55.01 84.01 55.24 83.62 55.02 83.49 35.72 83.88 35.49 84.28 35.72"/></svg>