<svg id="图层_1" data-name="图层 1" xmlns="http://www.w3.org/2000/svg" viewBox="0 0 200 130"><defs><style>.cls-1,.cls-2{isolation:isolate;}.cls-2{font-size:7.33px;font-family:ArialMT, Arial;}</style></defs><polygon points="172.35 29.5 161.21 23.17 161.38 22.88 161.54 22.59 172.68 28.93 172.52 29.21 172.35 29.5"/><g class="cls-1"><text class="cls-2" transform="translate(155.42 23.97)">N</text></g><polygon points="157.71 17.3 157.62 4.37 157.96 4.37 158.29 4.37 158.37 17.3 158.04 17.3 157.71 17.3"/><polygon points="154.92 23.22 144.06 29.59 143.72 29.4 143.72 29.02 154.59 22.65 154.75 22.94 154.92 23.22"/><polygon points="144.06 29.59 144.16 46.22 143.83 46.03 143.5 45.84 143.39 29.6 143.72 29.4 144.06 29.59"/><polygon points="142.07 30.56 142.16 44.88 141.83 44.89 141.5 44.89 141.4 30.57 141.73 30.57 142.07 30.56"/><polygon points="144.16 46.22 129.49 54.82 129.49 54.43 129.48 54.05 143.5 45.84 143.83 46.03 144.16 46.22"/><polygon points="129.49 54.82 115.04 46.6 115.04 46.21 115.37 46.02 129.48 54.05 129.49 54.43 129.49 54.82"/><polygon points="129.31 52.42 116.86 45.34 117.02 45.05 117.19 44.76 129.64 51.84 129.47 52.13 129.31 52.42"/><polygon points="114.7 46.02 114.6 29.78 114.93 29.59 115.26 29.78 115.37 46.02 115.04 46.21 114.7 46.02"/><polygon points="114.92 29.2 129.27 20.8 129.27 21.18 129.27 21.57 115.26 29.78 114.93 29.59 114.92 29.2"/><polygon points="116.76 30.44 129.12 23.2 129.29 23.49 129.45 23.77 117.1 31.01 116.93 30.73 116.76 30.44"/><polygon points="129.27 20.8 143.72 29.02 143.72 29.4 143.39 29.6 129.27 21.57 129.27 21.18 129.27 20.8"/><polygon points="114.6 29.78 103.83 23.66 103.99 23.37 104.16 23.08 114.92 29.2 114.93 29.59 114.6 29.78"/><g class="cls-1"><text class="cls-2" transform="translate(97.62 24.34)">O</text></g><polygon points="97.13 23.72 86.47 29.97 86.13 29.78 86.13 29.39 96.79 23.14 96.96 23.43 97.13 23.72"/><polygon points="83.98 31.23 71.53 24.15 71.7 23.86 71.86 23.57 84.31 30.65 84.15 30.94 83.98 31.23"/><polygon points="85.8 29.97 71.69 21.94 71.68 21.56 71.68 21.17 86.13 29.39 86.13 29.78 85.8 29.97"/><polygon points="71.69 21.94 57.67 30.15 57.34 29.96 57.34 29.58 71.68 21.17 71.68 21.56 71.69 21.94"/><polygon points="57.01 30.16 46.04 23.92 46.2 23.63 46.37 23.34 57.34 29.58 57.34 29.96 57.01 30.16"/><g class="cls-1"><text class="cls-2" transform="translate(40.24 24.71)">N</text></g><polygon points="39.74 23.97 28.71 30.44 28.55 30.15 28.38 29.86 39.41 23.4 39.58 23.68 39.74 23.97"/><polygon points="42.53 18.05 42.45 5.12 42.78 5.12 43.11 5.12 43.2 18.05 42.86 18.05 42.53 18.05"/><polygon points="59.67 31.1 59.77 45.42 59.44 45.42 59.1 45.42 59.01 31.1 59.34 31.1 59.67 31.1"/><polygon points="57.67 30.15 57.78 46.39 57.45 46.59 57.12 46.78 57.01 30.16 57.34 29.96 57.67 30.15"/><polygon points="57.78 46.39 71.9 54.42 71.9 54.81 71.9 55.19 57.12 46.78 57.45 46.59 57.78 46.39"/><polygon points="71.72 52.22 84.07 44.98 84.24 45.26 84.41 45.55 72.05 52.79 71.88 52.5 71.72 52.22"/><polygon points="71.9 54.42 85.91 46.21 86.24 46.4 86.24 46.78 71.9 55.19 71.9 54.81 71.9 54.42"/><polygon points="86.57 46.21 100.69 54.23 100.69 54.62 100.36 54.81 86.24 46.78 86.24 46.4 86.57 46.21"/><polygon points="101.03 54.81 101.13 71.05 100.8 71.24 100.47 71.05 100.36 54.81 100.69 54.62 101.03 54.81"/><polygon points="99.04 55.78 99.13 70.1 98.8 70.1 98.47 70.11 98.37 55.79 98.7 55.78 99.04 55.78"/><polygon points="100.8 71.63 86.79 79.84 86.46 79.65 86.12 79.46 100.47 71.05 100.8 71.24 100.8 71.63"/><polygon points="88.79 80.78 88.89 95.11 88.55 95.11 88.22 95.11 88.13 80.79 88.46 80.79 88.79 80.78"/><polygon points="86.79 79.84 86.9 96.08 86.56 96.27 86.23 96.47 86.12 79.46 86.46 79.65 86.79 79.84"/><polygon points="86.9 96.08 101.01 104.11 101.02 104.49 101.02 104.88 86.23 96.47 86.56 96.27 86.9 96.08"/><polygon points="102.34 103.91 102.43 117.41 102.1 117.41 101.77 117.41 101.68 103.91 102.01 103.91 102.34 103.91"/><polygon points="100.35 103.92 100.44 117.42 100.1 117.42 99.77 117.43 99.68 103.92 100.02 103.92 100.35 103.92"/><g class="cls-1"><text class="cls-2" transform="translate(98.48 124.09)">N</text><text class="cls-2" transform="translate(103.77 124.09)">H</text></g><polygon points="101.01 104.11 115.03 95.9 115.36 96.09 115.69 96.28 101.02 104.88 101.02 104.49 101.01 104.11"/><polygon points="113.03 94.95 112.93 80.63 113.26 80.63 113.6 80.62 113.69 94.94 113.36 94.95 113.03 94.95"/><polygon points="115.03 95.9 114.92 79.66 115.25 79.46 115.59 79.78 115.69 96.28 115.36 96.09 115.03 95.9"/><polygon points="115.33 79.13 129.33 78.63 129.59 78.95 129.86 79.27 115.59 79.78 115.25 79.46 115.33 79.13"/><polygon points="130 77.65 141.19 84.01 141.02 84.3 140.86 84.59 129.68 78.23 129.84 77.94 130 77.65"/><polygon points="128.73 79.22 140.2 85.75 140.04 86.04 139.87 86.33 128.4 79.8 128.57 79.51 128.73 79.22"/><g class="cls-1"><text class="cls-2" transform="translate(141.19 90.14)">O</text></g><polygon points="129.31 78.73 132.29 66.41 132.62 66.49 132.94 66.57 129.88 79.17 129.59 78.95 129.31 78.73"/><g class="cls-1"><text class="cls-2" transform="translate(130.66 65.76)">O</text><text class="cls-2" transform="translate(136.36 65.76)">H</text></g><polygon points="114.92 79.66 100.8 71.63 100.8 71.24 101.13 71.05 115.33 79.13 115.25 79.46 114.92 79.66"/><polygon points="100.69 54.23 114.7 46.02 115.04 46.21 115.04 46.6 101.03 54.81 100.69 54.62 100.69 54.23"/><polygon points="85.91 46.21 85.8 29.97 86.13 29.78 86.47 29.97 86.57 46.21 86.24 46.4 85.91 46.21"/></svg>