<svg id="图层_1" data-name="图层 1" xmlns="http://www.w3.org/2000/svg" viewBox="0 0 200 130"><defs><style>.cls-1,.cls-2{isolation:isolate;}.cls-2{font-size:9.73px;font-family:ArialMT, Arial;}.cls-3{fill:none;stroke:#000;stroke-miterlimit:3.84;stroke-width:0.91px;}</style></defs><polygon points="107.82 123.14 113.08 107.09 113.49 107.22 113.91 107.36 108.65 123.42 108.23 123.28 107.82 123.14"/><g class="cls-1"><text class="cls-2" transform="translate(111.59 106.26)">N</text></g><polygon points="111.2 97.67 101.95 84.88 102.18 84.44 102.72 84.44 111.91 97.15 111.55 97.41 111.2 97.67"/><polygon points="101.95 84.88 79.86 84.83 80.12 84.39 80.37 83.95 101.95 84 102.18 84.44 101.95 84.88"/><polygon points="100.83 82.23 81.65 82.19 81.65 81.75 81.65 81.3 100.83 81.35 100.83 81.79 100.83 82.23"/><polygon points="79.86 84.83 68.88 65.7 69.13 65.26 69.64 65.26 80.37 83.95 80.12 84.39 79.86 84.83"/><polygon points="67.23 62.38 76.77 45.95 77.15 46.17 77.53 46.39 67.99 62.83 67.61 62.61 67.23 62.38"/><polygon points="68.88 64.81 79.7 46.18 80.21 46.18 80.72 46.18 69.64 65.26 69.13 65.26 68.88 64.81"/><polygon points="79.7 46.18 68.97 27.49 69.22 27.05 69.48 26.61 80.72 46.18 80.21 46.18 79.7 46.18"/><polygon points="67.69 30.13 51.55 30.09 51.55 29.65 51.55 29.21 67.69 29.25 67.69 29.69 67.69 30.13"/><polygon points="68.97 27.49 51.55 27.45 51.55 27.01 51.56 26.57 69.48 26.61 69.22 27.05 68.97 27.49"/><g class="cls-1"><text class="cls-2" transform="translate(43.65 30.94)">N</text></g><polygon points="43.96 22.31 35.79 8.09 36.17 7.87 36.56 7.64 44.73 21.87 44.34 22.09 43.96 22.31"/><polygon points="44.69 32.12 36.59 46.08 36.09 46.08 35.83 45.63 43.93 31.68 44.31 31.9 44.69 32.12"/><polygon points="34.55 49.16 15.55 49.12 15.55 48.67 15.55 48.23 34.55 48.28 34.55 48.72 34.55 49.16"/><polygon points="35.83 46.52 14.28 46.47 14.03 46.02 13.77 45.58 35.83 45.63 36.09 46.08 35.83 46.52"/><polygon points="14.28 46.47 3.46 65.1 2.95 65.1 2.44 65.1 13.77 45.58 14.03 46.02 14.28 46.47"/><polygon points="6.39 64.89 15.85 81.37 15.47 81.59 15.09 81.81 5.62 65.33 6.01 65.11 6.39 64.89"/><polygon points="3.46 65.1 14.19 83.79 13.94 84.23 13.68 84.67 2.44 65.1 2.95 65.1 3.46 65.1"/><polygon points="14.19 83.79 35.74 83.84 35.99 84.28 36.25 84.73 13.68 84.67 13.94 84.23 14.19 83.79"/><polygon points="34.09 81.41 43.63 64.98 44.01 65.2 44.4 65.42 34.85 81.86 34.47 81.63 34.09 81.41"/><polygon points="35.74 83.84 46.56 65.2 47.07 65.2 47.32 65.65 36.25 84.73 35.99 84.28 35.74 83.84"/><polygon points="47.33 64.77 68.88 64.81 69.13 65.26 68.88 65.7 47.32 65.65 47.07 65.2 47.33 64.77"/><polygon points="46.56 65.2 35.83 46.52 36.09 46.08 36.59 46.08 47.33 64.77 47.07 65.2 46.56 65.2"/><line class="cls-3" x1="50.4" y1="21.92" x2="54.08" y2="21.92"/><line class="cls-3" x1="52.24" y1="20.08" x2="52.24" y2="23.76"/><polygon points="101.95 84 111.25 71.27 111.6 71.53 111.96 71.79 102.72 84.44 102.18 84.44 101.95 84"/><g class="cls-1"><text class="cls-2" transform="translate(111.94 70.56)">S</text></g><polygon points="119.45 67.56 136.1 73.01 136.15 73.49 135.71 73.81 119.17 68.39 119.31 67.97 119.45 67.56"/><polygon points="136.1 73.01 155.28 61.99 155.28 62.5 155.28 63.01 136.59 73.75 136.15 73.49 136.1 73.01"/><polygon points="138.57 74.64 155.05 65.18 155.27 65.56 155.49 65.94 139.01 75.41 138.79 75.02 138.57 74.64"/><polygon points="155.28 61.99 174.8 73.33 174.36 73.58 173.92 73.83 155.28 63.01 155.28 62.5 155.28 61.99"/><polygon points="174.8 73.33 174.75 95.39 174.31 95.64 173.87 95.38 173.92 73.83 174.36 73.58 174.8 73.33"/><polygon points="172.15 75.1 172.1 94.11 171.66 94.11 171.22 94.1 171.27 75.1 171.71 75.1 172.15 75.1"/><polygon points="174.75 95.39 189.75 104.1 189.53 104.48 189.31 104.86 174.31 96.15 174.31 95.64 174.75 95.39"/><g class="cls-1"><text class="cls-2" transform="translate(190.42 110.66)">F</text></g><polygon points="174.31 96.15 155.18 107.13 155.18 106.63 155.18 106.12 173.87 95.38 174.31 95.64 174.31 96.15"/><polygon points="155.18 107.13 136.05 96.03 136.1 95.55 136.54 95.3 155.18 106.12 155.18 106.63 155.18 107.13"/><polygon points="154.96 103.95 138.53 94.41 138.75 94.03 138.97 93.65 155.41 103.19 155.18 103.57 154.96 103.95"/><polygon points="136.05 96.03 119.63 101.32 119.5 100.9 119.36 100.48 135.66 95.23 136.1 95.55 136.05 96.03"/><polygon points="135.66 95.23 135.71 73.81 136.15 73.49 136.59 73.75 136.54 95.3 136.1 95.55 135.66 95.23"/></svg>