<svg id="图层_1" data-name="图层 1" xmlns="http://www.w3.org/2000/svg" viewBox="0 0 200 130"><defs><style>.cls-1,.cls-2{isolation:isolate;}.cls-2{font-size:10.25px;font-family:ArialMT, Arial;}.cls-3{fill:none;stroke:#000;stroke-miterlimit:3.84;stroke-width:0.91px;}</style></defs><polygon points="54.97 126.64 43.64 106.02 44.18 106.03 44.72 106.05 55.79 126.19 55.38 126.42 54.97 126.64"/><polygon points="43.64 106.02 52.7 91.08 53.1 91.32 53.49 91.56 44.72 106.05 44.18 106.03 43.64 106.02"/><g class="cls-1"><text class="cls-2" transform="translate(52.53 90.3)">N</text></g><polygon points="60.93 82.99 77.94 83.35 77.93 83.81 77.92 84.28 60.91 83.92 60.92 83.45 60.93 82.99"/><polygon points="60.87 85.78 79.22 86.17 79.48 86.64 79.74 87.11 60.85 86.71 60.86 86.25 60.87 85.78"/><polygon points="79.22 86.17 90.99 66.74 91.53 66.75 92.06 66.76 79.74 87.11 79.48 86.64 79.22 86.17"/><polygon points="87.9 66.91 78.25 49.35 78.66 49.13 79.07 48.9 88.71 66.46 88.31 66.68 87.9 66.91"/><polygon points="90.99 66.74 80.05 46.83 80.33 46.37 80.86 46.38 92.06 66.76 91.53 66.75 90.99 66.74"/><polygon points="80.07 45.9 92.12 26.01 92.38 26.48 92.64 26.95 80.86 46.38 80.33 46.37 80.07 45.9"/><polygon points="92.12 26.01 115.4 26.5 115.63 26.97 115.38 27.43 92.64 26.95 92.38 26.48 92.12 26.01"/><polygon points="93.94 28.84 114.15 29.27 114.14 29.73 114.14 30.2 93.92 29.77 93.93 29.31 93.94 28.84"/><polygon points="115.4 26.5 125.39 13.34 125.76 13.62 126.13 13.9 116.2 26.98 115.63 26.97 115.4 26.5"/><g class="cls-1"><text class="cls-2" transform="translate(126.27 12.6)">S</text></g><polygon points="134.19 9.53 151.61 15.6 151.65 16.1 151.18 16.43 133.88 10.41 134.04 9.97 134.19 9.53"/><polygon points="151.61 15.6 172.04 4.37 172.03 4.9 172.01 5.44 152.11 16.38 151.65 16.1 151.61 15.6"/><polygon points="154.18 17.36 171.73 7.72 171.96 8.12 172.18 8.53 154.63 18.18 154.4 17.77 154.18 17.36"/><polygon points="172.04 4.37 192.38 16.69 191.91 16.95 191.44 17.21 172.01 5.44 172.03 4.9 172.04 4.37"/><polygon points="192.38 16.69 191.88 40.48 191.43 40.2 190.97 39.92 191.44 17.21 191.91 16.95 192.38 16.69"/><polygon points="189.56 18.51 189.13 38.54 188.67 38.53 188.2 38.52 188.63 18.49 189.09 18.5 189.56 18.51"/><polygon points="191.88 40.48 171.03 51.94 171.04 51.4 171.06 50.86 190.97 39.92 191.43 40.2 191.88 40.48"/><polygon points="171.03 51.94 151.09 39.86 151.16 39.35 151.63 39.09 171.06 50.86 171.04 51.4 171.03 51.94"/><polygon points="170.87 48.58 153.74 38.2 153.98 37.8 154.22 37.4 171.35 47.78 171.11 48.18 170.87 48.58"/><polygon points="151.09 39.86 133.66 45.12 133.53 44.67 133.39 44.23 150.7 39 151.16 39.35 151.09 39.86"/><g class="cls-1"><text class="cls-2" transform="translate(125.19 50.22)">N</text></g><polygon points="127.53 51.4 121.68 68.18 121.24 68.03 120.8 67.88 126.65 51.09 127.09 51.24 127.53 51.4"/><polygon points="124.92 41.16 115.38 27.43 115.63 26.97 116.2 26.98 125.68 40.63 125.3 40.9 124.92 41.16"/><polygon points="150.7 39 151.18 16.43 151.65 16.1 152.11 16.38 151.63 39.09 151.16 39.35 150.7 39"/><polygon points="80.05 46.83 57.34 46.35 57.08 45.88 57.36 45.42 80.07 45.9 80.33 46.37 80.05 46.83"/><polygon points="53.45 46.04 43.8 28.48 44.21 28.26 44.62 28.03 54.27 45.59 53.86 45.81 53.45 46.04"/><polygon points="56.54 45.87 45.6 25.96 45.88 25.5 46.16 25.04 57.36 45.42 57.08 45.88 56.54 45.87"/><polygon points="45.6 25.96 22.89 25.48 22.63 25.01 22.37 24.54 46.16 25.04 45.88 25.5 45.6 25.96"/><polygon points="24.58 28.07 14.2 45.21 13.8 44.97 13.4 44.73 23.79 27.59 24.18 27.83 24.58 28.07"/><polygon points="22.89 25.48 11.12 44.91 10.58 44.9 10.04 44.89 22.37 24.54 22.63 25.01 22.89 25.48"/><polygon points="11.12 44.91 22.06 64.82 21.78 65.28 21.5 65.74 10.04 44.89 10.58 44.9 11.12 44.91"/><polygon points="23.46 62.06 43.49 62.48 43.48 62.94 43.47 63.41 23.44 62.99 23.45 62.52 23.46 62.06"/><polygon points="22.06 64.82 44.77 65.3 45.03 65.77 44.75 66.23 21.5 65.74 21.78 65.28 22.06 64.82"/><polygon points="45.57 65.78 53.8 80.75 53.39 80.97 52.98 81.2 44.75 66.23 45.03 65.77 45.57 65.78"/><polygon points="44.77 65.3 56.54 45.87 57.08 45.88 57.34 46.35 45.57 65.78 45.03 65.77 44.77 65.3"/><line class="cls-3" x1="59.64" y1="80.8" x2="63.52" y2="80.8"/><line class="cls-3" x1="61.58" y1="78.86" x2="61.58" y2="82.73"/></svg>