<svg id="图层_1" data-name="图层 1" xmlns="http://www.w3.org/2000/svg" viewBox="0 0 200 130"><defs><style>.cls-1,.cls-2{isolation:isolate;}.cls-2{font-size:8.4px;font-family:ArialMT, Arial;}</style></defs><polygon points="137.94 4.9 144.97 17.2 144.64 17.39 144.31 17.58 137.28 5.28 137.61 5.09 137.94 4.9"/><g class="cls-1"><text class="cls-2" transform="translate(143.79 25.02)">O</text></g><polygon points="144.91 26.05 137.9 38.07 137.46 38.07 137.25 37.69 144.26 25.66 144.59 25.86 144.91 26.05"/><polygon points="136.13 40.73 119.73 40.65 119.73 40.27 119.73 39.89 136.14 39.97 136.13 40.34 136.13 40.73"/><polygon points="137.24 38.45 118.64 38.36 118.42 37.98 118.21 37.6 137.25 37.69 137.46 38.07 137.24 38.45"/><polygon points="118.64 38.36 109.27 54.43 108.83 54.43 108.39 54.42 118.21 37.6 118.42 37.98 118.64 38.36"/><polygon points="111.8 54.25 119.94 68.49 119.61 68.68 119.28 68.87 111.14 54.63 111.47 54.44 111.8 54.25"/><polygon points="109.27 54.43 118.5 70.58 118.28 70.96 117.84 70.95 108.39 54.42 108.83 54.43 109.27 54.43"/><polygon points="118.5 71.34 108.9 87.78 108.68 87.4 108.47 87.02 117.84 70.95 118.28 70.96 118.5 71.34"/><polygon points="108.9 87.78 89.84 87.7 89.65 87.32 89.84 86.94 108.47 87.02 108.68 87.4 108.9 87.78"/><polygon points="107.37 85.49 90.82 85.42 90.82 85.04 90.82 84.66 107.38 84.73 107.38 85.11 107.37 85.49"/><polygon points="89.18 87.31 81.26 76.32 81.57 76.1 81.88 75.88 89.84 86.94 89.65 87.32 89.18 87.31"/><g class="cls-1"><text class="cls-2" transform="translate(75.72 75.26)">S</text></g><polygon points="75.08 73.37 60.77 77.94 60.39 77.67 60.44 77.25 74.85 72.64 74.96 73 75.08 73.37"/><polygon points="57.91 79.3 43.74 71.04 43.94 70.71 44.13 70.38 58.29 78.65 58.1 78.97 57.91 79.3"/><polygon points="60.01 77.88 43.95 68.51 43.95 68.07 43.95 67.63 60.44 77.25 60.39 77.67 60.01 77.88"/><polygon points="43.95 68.51 27.8 77.74 27.42 77.52 27.04 77.3 43.95 67.63 43.95 68.07 43.95 68.51"/><polygon points="30.08 78.85 30 95.25 29.62 95.25 29.24 95.25 29.32 78.85 29.7 78.85 30.08 78.85"/><polygon points="27.8 77.74 27.71 96.34 27.33 96.56 26.95 96.78 27.04 77.3 27.42 77.52 27.8 77.74"/><polygon points="27.71 96.34 43.78 105.71 43.78 106.15 43.77 106.59 26.95 96.78 27.33 96.56 27.71 96.34"/><polygon points="43.6 103.18 57.84 95.05 58.03 95.38 58.22 95.71 43.98 103.84 43.79 103.51 43.6 103.18"/><polygon points="43.78 105.71 59.93 96.48 60.31 96.7 60.35 97.12 43.77 106.59 43.78 106.15 43.78 105.71"/><polygon points="60.69 96.43 78.24 102.22 78.39 102.67 78.53 103.12 60.35 97.12 60.31 96.7 60.69 96.43"/><polygon points="79.58 101.41 84.28 116.1 83.92 116.22 83.56 116.33 78.86 101.65 79.22 101.53 79.58 101.41"/><polygon points="77.41 102.11 82.11 116.8 81.75 116.92 81.38 117.03 76.68 102.34 77.05 102.23 77.41 102.11"/><g class="cls-1"><text class="cls-2" transform="translate(80.92 124.2)">O</text></g><polygon points="78.24 102.22 89.18 87.31 89.65 87.32 89.84 87.7 78.53 103.12 78.39 102.67 78.24 102.22"/><polygon points="59.93 96.48 60.01 77.88 60.39 77.67 60.77 77.94 60.69 96.43 60.31 96.7 59.93 96.48"/><polygon points="118.5 70.58 137.1 70.66 137.31 71.04 137.09 71.42 118.5 71.34 118.28 70.96 118.5 70.58"/><polygon points="140.28 70.86 148.42 85.1 148.09 85.29 147.76 85.48 139.62 71.24 139.95 71.05 140.28 70.86"/><polygon points="137.75 71.04 146.98 87.19 146.76 87.57 146.54 87.95 137.09 71.42 137.31 71.04 137.75 71.04"/><polygon points="146.98 87.19 165.58 87.28 165.8 87.66 166.02 88.04 146.54 87.95 146.76 87.57 146.98 87.19"/><polygon points="164.16 85.17 172.43 71.01 172.75 71.2 173.08 71.39 164.82 85.56 164.49 85.37 164.16 85.17"/><polygon points="165.58 87.28 174.95 71.21 175.39 71.21 175.83 71.21 166.02 88.04 165.8 87.66 165.58 87.28"/><polygon points="174.95 71.21 165.72 55.06 165.95 54.68 166.17 54.3 175.83 71.21 175.39 71.21 174.95 71.21"/><polygon points="164.62 57.34 148.22 57.27 148.22 56.89 148.22 56.51 164.62 56.58 164.62 56.96 164.62 57.34"/><polygon points="165.72 55.06 147.13 54.98 146.91 54.6 147.13 54.22 166.17 54.3 165.95 54.68 165.72 55.06"/><polygon points="146.47 54.59 137.24 38.45 137.46 38.07 137.9 38.07 147.13 54.22 146.91 54.6 146.47 54.59"/><polygon points="147.13 54.98 137.75 71.04 137.31 71.04 137.1 70.66 146.47 54.59 146.91 54.6 147.13 54.98"/></svg>