<svg id="图层_1" data-name="图层 1" xmlns="http://www.w3.org/2000/svg" viewBox="0 0 200 130"><defs><style>.cls-1,.cls-2{isolation:isolate;}.cls-2{font-size:10.43px;font-family:ArialMT, Arial;}.cls-3{fill:none;stroke:#000;stroke-miterlimit:3.84;stroke-width:0.91px;}</style></defs><polygon points="157.58 4.3 145.69 24.43 145.15 24.43 144.88 23.95 156.76 3.82 157.17 4.06 157.58 4.3"/><polygon points="143.48 27.72 123.1 27.52 123.11 27.05 123.11 26.58 143.49 26.78 143.48 27.25 143.48 27.72"/><polygon points="144.87 24.9 121.77 24.67 121.5 24.2 121.23 23.72 144.88 23.95 145.15 24.43 144.87 24.9"/><polygon points="121.77 24.67 110.02 44.57 109.47 44.56 108.93 44.56 121.23 23.72 121.5 24.2 121.77 24.67"/><polygon points="113.16 44.36 121.01 58.27 120.6 58.5 120.19 58.74 112.34 44.83 112.75 44.59 113.16 44.36"/><polygon points="110.02 44.57 118.54 59.67 118.13 59.9 117.72 60.13 108.93 44.56 109.47 44.56 110.02 44.57"/><g class="cls-1"><text class="cls-2" transform="translate(117.33 69.38)">N</text></g><polygon points="118.4 70.66 109.34 86 109.07 85.53 108.81 85.05 117.58 70.18 117.99 70.42 118.4 70.66"/><polygon points="109.34 86 85.66 85.77 85.42 85.3 85.67 84.82 108.81 85.05 109.07 85.53 109.34 86"/><polygon points="107.46 83.14 86.89 82.94 86.9 82.47 86.9 82 107.47 82.2 107.46 82.67 107.46 83.14"/><polygon points="84.84 85.29 75.07 71.56 75.45 71.29 75.84 71.01 85.67 84.82 85.42 85.3 84.84 85.29"/><g class="cls-1"><text class="cls-2" transform="translate(68.23 70.25)">S</text></g><polygon points="67.43 67.87 49.61 73.46 49.15 73.11 49.2 72.6 67.14 66.97 67.28 67.42 67.43 67.87"/><polygon points="46.05 75.13 28.51 64.78 28.75 64.37 28.99 63.96 46.53 74.32 46.29 74.73 46.05 75.13"/><polygon points="48.67 73.38 28.77 61.64 28.78 61.09 28.78 60.54 49.2 72.6 49.15 73.11 48.67 73.38"/><polygon points="28.77 61.64 8.65 72.99 8.18 72.72 7.71 72.44 28.78 60.54 28.78 61.09 28.77 61.64"/><polygon points="11.48 74.39 11.28 94.76 10.8 94.75 10.33 94.75 10.53 74.38 11 74.38 11.48 74.39"/><polygon points="8.65 72.99 8.43 96.1 7.95 96.37 7.47 96.63 7.71 72.44 8.18 72.72 8.65 72.99"/><polygon points="8.43 96.1 28.32 107.84 28.32 108.39 28.31 108.94 7.47 96.63 7.95 96.37 8.43 96.1"/><polygon points="28.12 104.7 45.86 94.69 46.09 95.1 46.32 95.51 28.58 105.53 28.35 105.11 28.12 104.7"/><polygon points="28.32 107.84 48.44 96.49 48.91 96.77 48.96 97.28 28.31 108.94 28.32 108.39 28.32 107.84"/><polygon points="49.39 96.43 66.78 102.26 66.62 102.71 66.47 103.16 48.96 97.28 48.91 96.77 49.39 96.43"/><g class="cls-1"><text class="cls-2" transform="translate(67.57 108.52)">N</text></g><polygon points="73.44 109.41 78.88 126.72 78.42 126.86 77.97 127 72.54 109.69 72.99 109.55 73.44 109.41"/><polygon points="74.86 98.75 84.84 85.29 85.42 85.3 85.66 85.77 75.62 99.31 75.24 99.03 74.86 98.75"/><polygon points="48.44 96.49 48.67 73.38 49.15 73.11 49.61 73.46 49.39 96.43 48.91 96.77 48.44 96.49"/><polygon points="125.81 64.73 144.48 64.91 144.75 65.39 144.47 65.86 125.81 65.68 125.81 65.2 125.81 64.73"/><polygon points="148.44 65.19 158.45 82.93 158.04 83.17 157.63 83.4 147.61 65.65 148.03 65.42 148.44 65.19"/><polygon points="145.29 65.39 156.65 85.52 156.37 85.99 156.1 86.46 144.47 65.86 144.75 65.39 145.29 65.39"/><polygon points="156.65 85.52 179.75 85.74 180.02 86.22 180.29 86.69 156.1 86.46 156.37 85.99 156.65 85.52"/><polygon points="178.01 83.12 188.36 65.58 188.77 65.82 189.18 66.06 178.82 83.6 178.41 83.36 178.01 83.12"/><polygon points="179.75 85.74 191.5 65.85 192.05 65.85 192.59 65.86 180.29 86.69 180.02 86.22 179.75 85.74"/><polygon points="191.5 65.85 180.15 45.73 180.42 45.25 180.7 44.78 192.59 65.86 192.05 65.85 191.5 65.85"/><polygon points="178.75 48.55 158.38 48.35 158.38 47.88 158.39 47.41 178.76 47.6 178.76 48.08 178.75 48.55"/><polygon points="180.15 45.73 157.04 45.5 156.77 45.02 157.05 44.55 180.7 44.78 180.42 45.25 180.15 45.73"/><polygon points="156.23 45.02 144.87 24.9 145.15 24.43 145.69 24.43 157.05 44.55 156.77 45.02 156.23 45.02"/><polygon points="157.04 45.5 145.29 65.39 144.75 65.39 144.48 64.91 156.23 45.02 156.77 45.02 157.04 45.5"/><line class="cls-3" x1="124.57" y1="59.72" x2="128.51" y2="59.72"/><line class="cls-3" x1="126.54" y1="57.75" x2="126.54" y2="61.69"/></svg>