<svg id="图层_1" data-name="图层 1" xmlns="http://www.w3.org/2000/svg" viewBox="0 0 200 130"><defs><style>.cls-1,.cls-2{isolation:isolate;}.cls-2{font-size:10.92px;font-family:ArialMT, Arial;}.cls-3{fill:none;stroke:#000;stroke-miterlimit:3.82;stroke-width:0.9px;}</style></defs><polygon points="122.73 49.23 128.35 67.39 127.88 67.53 127.4 67.68 121.79 49.52 122.26 49.38 122.73 49.23"/><g class="cls-1"><text class="cls-2" transform="translate(125.63 77.47)">N</text></g><polygon points="125.85 78.85 115.34 92.88 114.73 92.87 114.48 92.38 125.06 78.26 125.45 78.55 125.85 78.85"/><polygon points="114.47 93.36 89.67 93.01 89.96 92.52 90.25 92.03 114.48 92.38 114.73 92.87 114.47 93.36"/><polygon points="113.25 90.38 91.71 90.06 91.72 89.57 91.72 89.07 113.27 89.38 113.26 89.88 113.25 90.38"/><polygon points="89.67 93.01 77.59 71.38 77.88 70.89 78.45 70.9 90.25 92.03 89.96 92.52 89.67 93.01"/><polygon points="75.78 67.64 86.72 49.31 87.14 49.56 87.57 49.82 76.64 68.14 76.21 67.89 75.78 67.64"/><polygon points="77.6 70.39 90 49.6 90.58 49.61 91.15 49.62 78.45 70.9 77.88 70.89 77.6 70.39"/><polygon points="90 49.6 78.21 28.48 78.5 27.98 78.79 27.49 91.15 49.62 90.58 49.61 90 49.6"/><polygon points="76.73 31.43 58.62 31.17 58.62 30.67 58.63 30.18 76.75 30.44 76.74 30.93 76.73 31.43"/><polygon points="78.21 28.48 58.66 28.19 58.66 27.7 58.67 27.2 78.79 27.49 78.5 27.98 78.21 28.48"/><g class="cls-1"><text class="cls-2" transform="translate(49.79 32.05)">N</text></g><polygon points="50.22 22.36 41.22 6.24 41.65 6 42.09 5.76 51.09 21.88 50.65 22.12 50.22 22.36"/><polygon points="50.87 33.39 41.61 48.91 41.04 48.9 40.76 48.4 50.02 32.88 50.44 33.14 50.87 33.39"/><polygon points="39.27 52.34 17.93 52.04 17.94 51.54 17.95 51.05 39.28 51.35 39.28 51.85 39.27 52.34"/><polygon points="40.74 49.39 16.55 49.04 16.27 48.55 15.99 48.05 40.76 48.4 41.04 48.9 40.74 49.39"/><polygon points="16.55 49.04 4.14 69.83 3.57 69.82 3 69.81 15.99 48.05 16.27 48.55 16.55 49.04"/><polygon points="7.44 69.63 17.84 88.26 17.41 88.5 16.98 88.74 6.57 70.11 7 69.87 7.44 69.63"/><polygon points="4.14 69.83 15.94 90.96 15.65 91.45 15.36 91.94 3 69.81 3.57 69.82 4.14 69.83"/><polygon points="15.94 90.96 40.14 91.31 40.42 91.8 40.7 92.3 15.36 91.94 15.65 91.45 15.94 90.96"/><polygon points="38.32 88.55 49.26 70.23 49.68 70.48 50.11 70.73 39.17 89.06 38.74 88.81 38.32 88.55"/><polygon points="40.14 91.31 52.54 70.52 53.11 70.53 53.39 71.03 40.7 92.3 40.42 91.8 40.14 91.31"/><polygon points="53.41 70.04 77.6 70.39 77.88 70.89 77.59 71.38 53.39 71.03 53.11 70.53 53.41 70.04"/><polygon points="52.54 70.52 40.74 49.39 41.04 48.9 41.61 48.91 53.41 70.04 53.11 70.53 52.54 70.52"/><line class="cls-3" x1="57.37" y1="21.93" x2="61.5" y2="21.93"/><line class="cls-3" x1="59.43" y1="19.86" x2="59.43" y2="23.99"/><polygon points="115.34 92.88 125.52 107.33 125.12 107.61 124.71 107.9 114.47 93.36 114.73 92.87 115.34 92.88"/><g class="cls-1"><text class="cls-2" transform="translate(125.36 117.55)">S</text></g><polygon points="133.49 111.22 152.18 105.44 152.67 105.81 152.6 106.34 133.78 112.16 133.63 111.69 133.49 111.22"/><polygon points="155.92 103.71 174.25 114.64 173.99 115.07 173.74 115.49 155.41 104.56 155.67 104.13 155.92 103.71"/><polygon points="153.17 105.53 173.95 117.93 173.94 118.5 173.94 119.07 152.6 106.34 152.67 105.81 153.17 105.53"/><polygon points="173.95 117.93 195.08 106.13 195.57 106.42 196.06 106.72 173.94 119.07 173.94 118.5 173.95 117.93"/><polygon points="192.13 104.66 192.44 83.32 192.93 83.33 193.43 83.33 193.12 104.67 192.63 104.67 192.13 104.66"/><polygon points="195.08 106.13 195.43 81.93 195.93 81.65 196.43 81.37 196.06 106.72 195.57 106.42 195.08 106.13"/><polygon points="195.43 81.93 174.65 69.53 174.66 68.96 174.66 68.39 196.43 81.37 195.93 81.65 195.43 81.93"/><polygon points="174.85 72.82 156.22 83.23 155.97 82.8 155.73 82.36 174.36 71.96 174.6 72.39 174.85 72.82"/><polygon points="174.65 69.53 153.52 81.33 153.03 81.04 152.98 80.5 174.66 68.39 174.66 68.96 174.65 69.53"/><polygon points="152.53 81.39 134.35 75.19 134.51 74.72 134.67 74.26 152.98 80.5 153.03 81.04 152.53 81.39"/><polygon points="153.52 81.33 153.17 105.53 152.67 105.81 152.18 105.44 152.53 81.39 153.03 81.04 153.52 81.33"/></svg>