<svg id="图层_1" data-name="图层 1" xmlns="http://www.w3.org/2000/svg" viewBox="0 0 200 130"><defs><style>.cls-1,.cls-2,.cls-3{isolation:isolate;}.cls-2{font-size:6.18px;}.cls-2,.cls-3{font-family:ArialMT, Arial;}.cls-3{font-size:3.8px;}</style></defs><title>Tobramycin_Simi_compound6</title><polygon points="108.52 94.13 94.53 94.23 94.35 93.95 94.51 93.67 108.19 93.57 108.35 93.85 108.52 94.13"/><polygon points="94.02 93.94 87.02 82.02 87.26 81.88 87.58 81.88 94.51 93.67 94.35 93.95 94.02 93.94"/><polygon points="87.02 81.74 93.84 69.72 94.17 69.7 94.33 69.98 87.58 81.88 87.26 81.88 87.02 81.74"/><polygon points="94.35 69.42 108.17 69.31 108.17 69.59 108.01 69.88 94.33 69.98 94.17 69.7 94.35 69.42"/><polygon points="108.42 69.45 115.42 81.38 115.27 81.67 114.94 81.67 108.01 69.88 108.17 69.59 108.42 69.45"/><polygon points="115.42 81.38 126.47 80.33 126.48 81.59 126.49 82.85 115.42 81.96 115.27 81.67 115.42 81.38"/><g class="cls-1"><text class="cls-2" transform="translate(127.04 83.27)">N</text><text class="cls-2" transform="translate(131.5 83.27)">H</text><text class="cls-3" transform="translate(135.96 84.22)">2</text></g><polygon points="115.42 81.96 108.52 94.13 108.35 93.85 108.19 93.57 114.94 81.67 115.27 81.67 115.42 81.96"/><polygon points="108.47 69.71 107.93 69.4 108.06 69.16 108.2 68.92 108.74 69.22 108.6 69.47 108.47 69.71"/><polygon points="109.41 68.36 108.6 67.9 108.74 67.66 108.88 67.42 109.68 67.87 109.55 68.12 109.41 68.36"/><polygon points="110.35 67.01 109.27 66.4 109.41 66.16 109.55 65.92 110.63 66.53 110.49 66.77 110.35 67.01"/><polygon points="111.29 65.67 109.95 64.9 110.09 64.66 110.22 64.42 111.57 65.18 111.43 65.42 111.29 65.67"/><polygon points="112.23 64.32 110.62 63.41 110.76 63.16 110.9 62.92 112.51 63.83 112.37 64.08 112.23 64.32"/><polygon points="113.17 62.97 111.3 61.91 111.43 61.66 111.57 61.42 113.45 62.48 113.31 62.73 113.17 62.97"/><polygon points="114.12 61.62 111.97 60.41 112.11 60.16 112.25 59.92 114.39 61.14 114.25 61.38 114.12 61.62"/><g class="cls-1"><text class="cls-2" transform="translate(112.68 59.92)">O</text></g><polygon points="128.94 57.6 118.06 58.65 118.05 57.39 118.04 56.13 128.93 57.02 129.09 57.31 128.94 57.6"/><polygon points="128.93 57.02 135.67 45.15 136 45.13 136.16 45.41 129.41 57.31 129.09 57.31 128.93 57.02"/><polygon points="136.18 44.85 150 44.75 150 45.03 149.85 45.31 136.16 45.41 136 45.13 136.18 44.85"/><polygon points="150.25 44.88 157.25 56.81 157.1 57.1 156.77 57.1 149.85 45.31 150 45.03 150.25 44.88"/><polygon points="157.25 57.4 150.43 69.42 150.19 69.28 150.02 69 156.77 57.1 157.1 57.1 157.25 57.4"/><polygon points="150.19 69.56 139.15 69.64 139.14 69.36 139.14 69.08 150.02 69 150.19 69.28 150.19 69.56"/><g class="cls-1"><text class="cls-2" transform="translate(133.78 71.89)">O</text></g><polygon points="134.11 66.41 128.94 57.6 129.09 57.31 129.41 57.31 134.59 66.13 134.35 66.27 134.11 66.41"/><polygon points="149.94 69.46 150.46 69.16 150.6 69.4 150.75 69.64 150.23 69.95 150.08 69.7 149.94 69.46"/><polygon points="150.61 70.8 151.31 70.39 151.45 70.63 151.59 70.87 150.89 71.28 150.75 71.04 150.61 70.8"/><polygon points="151.27 72.14 152.15 71.62 152.29 71.86 152.44 72.11 151.56 72.62 151.41 72.38 151.27 72.14"/><polygon points="151.94 73.48 153 72.85 153.14 73.1 153.28 73.34 152.22 73.96 152.08 73.72 151.94 73.48"/><polygon points="152.6 74.81 153.84 74.09 153.98 74.33 154.13 74.57 152.88 75.3 152.74 75.06 152.6 74.81"/><polygon points="153.27 76.15 154.69 75.32 154.83 75.56 154.97 75.8 153.55 76.64 153.41 76.39 153.27 76.15"/><polygon points="153.93 77.49 155.53 76.55 155.67 76.79 155.81 77.03 154.21 77.97 154.07 77.73 153.93 77.49"/><polygon points="154.59 78.83 156.38 77.78 156.52 78.02 156.66 78.27 154.88 79.31 154.74 79.07 154.59 78.83"/><polygon points="155.26 80.17 157.22 79.02 157.36 79.26 157.5 79.5 155.54 80.65 155.4 80.41 155.26 80.17"/><polygon points="155.92 81.5 158.06 80.25 158.21 80.49 158.35 80.73 156.21 81.99 156.07 81.75 155.92 81.5"/><polygon points="157.76 81.07 168.49 80.99 168.49 81.27 168.49 81.55 156.8 81.64 157.28 81.36 157.76 81.07"/><g class="cls-1"><text class="cls-2" transform="translate(169.05 82.96)">N</text><text class="cls-2" transform="translate(173.51 82.96)">H</text><text class="cls-3" transform="translate(177.97 83.91)">2</text></g><polygon points="157.25 56.81 168.13 55.76 168.14 57.02 168.15 58.28 157.25 57.4 157.1 57.1 157.25 56.81"/><g class="cls-1"><text class="cls-2" transform="translate(168.7 59.5)">O</text><text class="cls-2" transform="translate(173.5 59.5)">H</text></g><polygon points="150.3 45.14 149.76 44.83 149.9 44.59 150.03 44.35 150.57 44.65 150.44 44.9 150.3 45.14"/><polygon points="151.24 43.79 150.43 43.34 150.57 43.09 150.71 42.85 151.52 43.31 151.38 43.55 151.24 43.79"/><polygon points="152.18 42.45 151.1 41.84 151.24 41.59 151.38 41.35 152.46 41.96 152.32 42.2 152.18 42.45"/><polygon points="153.12 41.1 151.78 40.34 151.92 40.09 152.06 39.85 153.4 40.61 153.26 40.85 153.12 41.1"/><polygon points="154.06 39.75 152.45 38.84 152.59 38.59 152.73 38.35 154.34 39.26 154.2 39.51 154.06 39.75"/><polygon points="155.01 38.4 153.13 37.34 153.26 37.09 153.4 36.85 155.28 37.92 155.14 38.16 155.01 38.4"/><polygon points="155.95 37.06 153.8 35.84 153.94 35.59 154.08 35.35 156.22 36.57 156.09 36.81 155.95 37.06"/><g class="cls-1"><text class="cls-2" transform="translate(154.52 35.35)">O</text><text class="cls-2" transform="translate(159.32 35.35)">H</text></g><polygon points="135.67 45.15 129.65 36.81 130.74 36.17 131.83 35.53 136.18 44.85 136 45.13 135.67 45.15"/><g class="cls-1"><text class="cls-2" transform="translate(122.05 35.56)">H</text><text class="cls-2" transform="translate(126.51 35.56)">O</text></g><polygon points="93.84 69.72 87.82 61.38 88.91 60.74 89.99 60.1 94.35 69.42 94.17 69.7 93.84 69.72"/><g class="cls-1"><text class="cls-2" transform="translate(80.22 60.12)">H</text><text class="cls-2" transform="translate(84.68 60.12)">O</text></g><polygon points="87.21 81.57 87.22 82.19 86.94 82.19 86.66 82.19 86.65 81.57 86.93 81.57 87.21 81.57"/><polygon points="85.72 81.45 85.73 82.33 85.45 82.33 85.17 82.33 85.16 81.45 85.44 81.45 85.72 81.45"/><polygon points="84.23 81.33 84.24 82.47 83.96 82.48 83.68 82.48 83.67 81.33 83.95 81.33 84.23 81.33"/><polygon points="82.74 81.2 82.75 82.62 82.47 82.62 82.19 82.62 82.18 81.21 82.46 81.21 82.74 81.2"/><polygon points="81.24 81.08 81.26 82.76 80.98 82.76 80.7 82.77 80.68 81.09 80.96 81.09 81.24 81.08"/><polygon points="79.75 80.96 79.77 82.9 79.49 82.91 79.21 82.91 79.19 80.97 79.47 80.97 79.75 80.96"/><polygon points="78.26 80.84 78.28 83.05 78 83.05 77.72 83.05 77.7 80.84 77.98 80.84 78.26 80.84"/><polygon points="76.77 80.72 76.78 83.19 76.5 83.19 76.22 83.19 76.21 80.72 76.49 80.72 76.77 80.72"/><g class="cls-1"><text class="cls-2" transform="translate(70.85 84.48)">O</text></g><polygon points="65.92 70.1 66.45 69.79 66.59 70.03 66.74 70.27 66.2 70.58 66.06 70.34 65.92 70.1"/><polygon points="66.61 71.59 67.41 71.12 67.55 71.36 67.7 71.6 66.89 72.07 66.75 71.83 66.61 71.59"/><polygon points="67.3 73.07 68.37 72.44 68.51 72.69 68.65 72.93 67.59 73.55 67.45 73.31 67.3 73.07"/><polygon points="68 74.56 69.33 73.77 69.47 74.02 69.61 74.26 68.28 75.04 68.14 74.8 68 74.56"/><polygon points="68.69 76.04 70.29 75.1 70.43 75.34 70.57 75.58 68.97 76.52 68.83 76.28 68.69 76.04"/><polygon points="69.38 77.53 71.25 76.43 71.39 76.67 71.53 76.91 69.67 78.01 69.53 77.77 69.38 77.53"/><polygon points="70.08 79.01 72.21 77.76 72.35 78 72.49 78.24 70.36 79.49 70.22 79.25 70.08 79.01"/><polygon points="66.17 70.19 52.16 70.29 52.16 70.01 52.32 69.73 66 69.63 66.16 69.91 66.17 70.19"/><polygon points="51.92 70.15 44.91 58.23 45.07 57.93 45.39 57.93 52.32 69.73 52.16 70.01 51.92 70.15"/><polygon points="44.91 57.64 51.73 45.62 51.98 45.76 52.14 46.03 45.39 57.93 45.07 57.93 44.91 57.64"/><polygon points="51.98 45.47 65.81 45.37 65.98 45.65 65.82 45.93 52.14 46.03 51.98 45.76 51.98 45.47"/><polygon points="66.31 45.66 71.49 54.47 71.25 54.61 71 54.75 65.82 45.93 65.98 45.65 66.31 45.66"/><g class="cls-1"><text class="cls-2" transform="translate(70.67 60.23)">O</text></g><polygon points="71.55 60.98 66.41 70.04 66.16 69.91 66 69.63 71.06 60.7 71.31 60.84 71.55 60.98"/><polygon points="65.81 45.37 71.98 32.47 72.89 33.47 73.78 34.42 66.31 45.66 65.98 45.65 65.81 45.37"/><polygon points="71.98 32.47 67.39 24.65 67.63 24.51 67.87 24.37 73.78 34.42 72.89 33.47 71.98 32.47"/><g class="cls-1"><text class="cls-2" transform="translate(58.94 23.9)">H</text><text class="cls-2" transform="translate(63.4 23.9)">O</text></g><polygon points="52.22 45.56 51.69 45.87 51.55 45.63 51.4 45.39 51.94 45.08 52.08 45.32 52.22 45.56"/><polygon points="51.53 44.07 50.73 44.55 50.59 44.3 50.45 44.06 51.25 43.59 51.39 43.83 51.53 44.07"/><polygon points="50.84 42.59 49.77 43.22 49.63 42.97 49.49 42.73 50.55 42.11 50.7 42.35 50.84 42.59"/><polygon points="50.14 41.1 48.81 41.89 48.67 41.65 48.53 41.4 49.86 40.62 50 40.86 50.14 41.1"/><polygon points="49.45 39.62 47.85 40.56 47.71 40.32 47.57 40.08 49.17 39.14 49.31 39.38 49.45 39.62"/><polygon points="48.76 38.13 46.89 39.23 46.75 38.99 46.61 38.75 48.47 37.65 48.62 37.89 48.76 38.13"/><polygon points="48.06 36.65 45.94 37.9 45.79 37.66 45.65 37.42 47.78 36.17 47.92 36.41 48.06 36.65"/><g class="cls-1"><text class="cls-2" transform="translate(38.03 36.18)">H</text><text class="cls-2" transform="translate(42.49 36.18)">O</text></g><polygon points="44.91 58.23 33.86 59.28 33.85 58.02 33.84 56.76 44.91 57.64 45.07 57.93 44.91 58.23"/><g class="cls-1"><text class="cls-2" transform="translate(22.31 59.74)">H</text><text class="cls-3" transform="translate(26.77 60.69)">2</text><text class="cls-2" transform="translate(28.89 59.74)">N</text></g><polygon points="51.87 69.89 52.41 70.2 52.27 70.45 52.13 70.69 51.59 70.38 51.73 70.14 51.87 69.89"/><polygon points="50.92 71.24 51.73 71.7 51.59 71.94 51.46 72.19 50.65 71.73 50.79 71.49 50.92 71.24"/><polygon points="49.98 72.59 51.06 73.2 50.92 73.44 50.78 73.69 49.71 73.08 49.84 72.83 49.98 72.59"/><polygon points="49.04 73.94 50.38 74.7 50.25 74.94 50.11 75.19 48.77 74.42 48.9 74.18 49.04 73.94"/><polygon points="48.1 75.28 49.71 76.2 49.57 76.44 49.44 76.69 47.82 75.77 47.96 75.53 48.1 75.28"/><polygon points="47.16 76.63 49.04 77.7 48.9 77.94 48.76 78.19 46.88 77.12 47.02 76.88 47.16 76.63"/><polygon points="46.22 77.98 48.36 79.2 48.23 79.44 48.09 79.69 45.94 78.47 46.08 78.22 46.22 77.98"/><g class="cls-1"><text class="cls-2" transform="translate(38.39 84.69)">H</text><text class="cls-2" transform="translate(42.85 84.69)">O</text></g><polygon points="94.53 94.23 90.3 103.64 89.21 103.02 88.11 102.4 94.02 93.94 94.35 93.95 94.53 94.23"/><g class="cls-1"><text class="cls-2" transform="translate(78.69 107.84)">H</text><text class="cls-3" transform="translate(83.15 108.79)">2</text><text class="cls-2" transform="translate(85.26 107.84)">N</text></g></svg>