<svg id="图层_1" data-name="图层 1" xmlns="http://www.w3.org/2000/svg" viewBox="0 0 200 130"><defs><style>.cls-1,.cls-2,.cls-3,.cls-5,.cls-6{isolation:isolate;}.cls-2,.cls-3{font-size:3.75px;}.cls-2,.cls-3,.cls-5,.cls-6{font-family:ArialMT, Arial;}.cls-3{letter-spacing:-0.02em;}.cls-4{fill:none;stroke:#000;stroke-miterlimit:3.93;stroke-width:0.93px;}.cls-5{font-size:2.31px;}.cls-6{font-size:1.73px;}</style></defs><polygon points="191.85 80.19 183.88 77.51 183.84 77.32 183.99 77.19 191.96 79.86 191.9 80.03 191.85 80.19"/><polygon points="182.56 76.98 181.1 69.8 181.27 69.76 181.44 69.73 182.89 76.91 182.72 76.94 182.56 76.98"/><polygon points="183.65 77.26 182.01 69.11 182.16 68.98 182.3 68.85 183.99 77.19 183.84 77.32 183.65 77.26"/><polygon points="182.01 69.11 174.13 66.47 174.09 66.28 174.22 66.14 182.3 68.85 182.16 68.98 182.01 69.11"/><polygon points="174.13 66.47 167.9 71.97 167.72 71.9 167.7 71.69 173.89 66.23 174.09 66.28 174.13 66.47"/><polygon points="172.97 66.13 167.71 70.78 167.6 70.65 167.49 70.52 172.75 65.87 172.86 66 172.97 66.13"/><polygon points="167.9 71.97 169.55 80.11 169.4 80.24 169.26 80.37 167.57 72.01 167.72 71.9 167.9 71.97"/><polygon points="170.34 79.3 177.28 81.63 177.23 81.79 177.18 81.95 170.23 79.62 170.29 79.46 170.34 79.3"/><polygon points="169.55 80.11 177.43 82.75 177.47 82.95 177.32 83.08 169.26 80.37 169.4 80.24 169.55 80.11"/><polygon points="177.65 83.01 179.32 91.25 179.15 91.28 178.98 91.31 177.32 83.08 177.47 82.95 177.65 83.01"/><polygon points="177.43 82.75 183.65 77.26 183.84 77.32 183.88 77.51 177.65 83.01 177.47 82.95 177.43 82.75"/><polygon points="167.57 72.01 162 68.72 162.09 68.58 162.18 68.43 167.7 71.69 167.72 71.9 167.57 72.01"/><g class="cls-1"><text class="cls-2" transform="translate(159.04 69.1)">N</text></g><polygon points="160.65 65.65 162.11 59.12 162.25 59.28 162.38 59.44 160.98 65.72 160.82 65.69 160.65 65.65"/><polygon points="162.11 59.12 169 58.46 169.02 58.63 169.03 58.8 162.38 59.44 162.25 59.28 162.11 59.12"/><polygon points="163.06 60.05 169.1 59.48 169.11 59.65 169.13 59.82 163.1 60.39 163.08 60.22 163.06 60.05"/><g class="cls-1"><text class="cls-2" transform="translate(169.36 59.99)">N</text></g><polygon points="171.69 60.3 174.22 66.14 174.09 66.28 173.89 66.23 171.38 60.43 171.53 60.36 171.69 60.3"/><polygon points="158.77 68.47 152.74 71.08 152.59 70.96 152.6 70.77 158.63 68.16 158.7 68.31 158.77 68.47"/><polygon points="152.74 71.08 150.93 79.21 150.74 79.26 150.6 79.1 152.4 71.04 152.59 70.96 152.74 71.08"/><polygon points="150.67 79.44 142.38 80.23 142.28 80.07 142.38 79.89 150.6 79.1 150.74 79.26 150.67 79.44"/><polygon points="142.09 80.05 138.77 72.41 138.89 72.26 139.1 72.31 142.38 79.89 142.28 80.07 142.09 80.05"/><polygon points="138.85 72.08 143.36 68.1 143.47 68.22 143.58 68.35 139.1 72.31 138.89 72.26 138.85 72.08"/><g class="cls-1"><text class="cls-2" transform="translate(143.81 68.15)">O</text></g><polygon points="147.16 67.55 152.6 70.77 152.59 70.96 152.4 71.04 146.98 67.84 147.07 67.7 147.16 67.55"/><polygon points="138.77 72.41 130.46 70.56 130.59 70.41 130.73 70.27 138.85 72.08 138.89 72.26 138.77 72.41"/><polygon points="130.46 70.56 128.48 64.24 128.64 64.19 128.8 64.14 130.73 70.27 130.59 70.41 130.46 70.56"/><g class="cls-1"><text class="cls-2" transform="translate(123.88 63.82)">H</text><text class="cls-2" transform="translate(126.59 63.82)">O</text></g><polygon points="142.38 80.23 139.22 85.58 139.07 85.5 138.92 85.41 142.09 80.05 142.28 80.07 142.38 80.23"/><g class="cls-1"><text class="cls-2" transform="translate(136.49 88.91)">O</text></g><polygon points="136.15 87.54 131.04 87.49 131.04 87.32 131.04 87.15 136.15 87.2 136.15 87.37 136.15 87.54"/><g class="cls-1"><text class="cls-3" transform="translate(128.2 88.82)">P</text></g><polygon points="130.11 89.2 130.06 93.92 129.89 93.92 129.72 93.92 129.77 89.2 129.94 89.2 130.11 89.2"/><polygon points="129.09 89.19 129.04 93.91 128.87 93.91 128.7 93.91 128.75 89.19 128.92 89.19 129.09 89.19"/><g class="cls-1"><text class="cls-2" transform="translate(127.91 97.33)">O</text></g><polygon points="129.3 85.41 129.34 80.69 129.51 80.69 129.68 80.69 129.64 85.41 129.47 85.41 129.3 85.41"/><g class="cls-1"><text class="cls-2" transform="translate(128.07 80.32)">O</text></g><line class="cls-4" x1="130.83" y1="76.79" x2="132.25" y2="76.79"/><polygon points="127.86 87.46 122.74 87.41 122.74 87.24 122.74 87.07 127.86 87.12 127.86 87.29 127.86 87.46"/><g class="cls-1"><text class="cls-2" transform="translate(119.49 88.74)">O</text></g><polygon points="119.97 89.2 116.81 94.54 116.62 94.54 116.52 94.37 119.68 89.03 119.83 89.11 119.97 89.2"/><polygon points="116.81 94.54 120.95 101.86 120.8 101.95 120.65 102.03 116.52 94.71 116.62 94.54 116.81 94.54"/><polygon points="116.52 94.71 108.02 94.63 108.11 94.46 108.22 94.29 116.52 94.37 116.62 94.54 116.52 94.71"/><polygon points="108.02 94.63 104.86 89.03 105 88.94 105.15 88.86 108.22 94.29 108.11 94.46 108.02 94.63"/><g class="cls-1"><text class="cls-2" transform="translate(102.58 85.47)">H</text></g><g class="cls-1"><text class="cls-2" transform="translate(102.58 88.89)">N</text></g><polygon points="102.24 87.2 95.33 87.14 95.43 86.97 95.53 86.8 102.24 86.86 102.24 87.03 102.24 87.2"/><polygon points="96.17 87.06 92.81 92.74 92.66 92.66 92.52 92.57 95.88 86.89 96.02 86.97 96.17 87.06"/><polygon points="95.29 86.54 91.93 92.22 91.78 92.14 91.64 92.05 95 86.37 95.14 86.45 95.29 86.54"/><g class="cls-1"><text class="cls-2" transform="translate(89.65 95.81)">O</text></g><polygon points="95.33 87.14 91.15 79.73 91.25 79.56 91.35 79.39 95.53 86.8 95.43 86.97 95.33 87.14"/><polygon points="91.15 79.73 82.65 79.64 82.75 79.48 82.85 79.31 91.35 79.39 91.25 79.56 91.15 79.73"/><polygon points="82.65 79.64 78.52 72.32 78.57 72.07 78.81 72.15 82.85 79.31 82.75 79.48 82.65 79.64"/><polygon points="78.52 72.32 71.81 77.09 71.64 77 71.64 76.79 78.37 72 78.57 72.07 78.52 72.32"/><polygon points="71.47 77.08 64.75 72.1 64.81 71.93 65.01 71.87 71.64 76.79 71.64 77 71.47 77.08"/><polygon points="64.75 72.1 56.46 72.02 56.31 71.85 56.34 71.68 64.69 71.76 64.81 71.93 64.75 72.1"/><polygon points="56.1 72.2 49.61 76.82 49.38 76.78 49.38 76.57 55.97 71.88 56.31 71.85 56.1 72.2"/><polygon points="49.13 76.8 42.52 71.9 42.55 71.71 42.72 71.63 49.38 76.57 49.38 76.78 49.13 76.8"/><polygon points="42.38 71.59 42.77 61.96 42.95 61.94 43.1 62.37 42.72 71.63 42.55 71.71 42.38 71.59"/><polygon points="43.98 61.31 47.8 65.63 47.67 65.75 47.54 65.86 43.73 61.54 43.85 61.42 43.98 61.31"/><polygon points="43.1 61.85 47.03 66.31 46.9 66.42 46.78 66.53 43.1 62.37 42.95 61.94 43.1 61.85"/><g class="cls-1"><text class="cls-2" transform="translate(47.22 69.83)">N</text></g><polygon points="50.34 68.93 56.34 71.68 56.31 71.85 55.97 71.88 50.2 69.24 50.27 69.09 50.34 68.93"/><polygon points="42.77 61.96 40.28 54.01 40.4 53.82 40.57 53.81 43.1 61.85 42.95 61.94 42.77 61.96"/><polygon points="40.24 53.67 41.2 45.41 41.37 45.38 41.53 45.43 40.57 53.81 40.4 53.82 40.24 53.67"/><polygon points="41.27 53.71 42.19 45.69 42.36 45.71 42.53 45.73 41.61 53.74 41.44 53.73 41.27 53.71"/><polygon points="41.2 45.41 37.14 38.22 37.19 37.97 37.4 37.99 41.37 45.04 41.37 45.38 41.2 45.41"/><polygon points="37.19 37.72 42.76 31.66 42.94 31.71 43.01 31.89 37.4 37.99 37.19 37.97 37.19 37.72"/><polygon points="43.09 31.55 52.62 32.95 52.63 33.12 52.18 33.23 43.01 31.89 42.94 31.71 43.09 31.55"/><polygon points="53.14 34.22 48.08 37.82 47.98 37.68 47.88 37.54 52.94 33.94 53.04 34.08 53.14 34.22"/><polygon points="52.69 33.28 47.49 36.99 47.39 36.85 47.29 36.71 52.18 33.23 52.63 33.12 52.69 33.28"/><g class="cls-1"><text class="cls-2" transform="translate(44.34 39.57)">N</text></g><polygon points="44.73 40.03 41.53 45.43 41.37 45.38 41.37 45.04 44.43 39.86 44.58 39.95 44.73 40.03"/><polygon points="52.62 32.95 60.96 31.26 60.96 31.44 60.96 31.61 52.69 33.28 52.63 33.12 52.62 32.95"/><polygon points="60.96 31.26 69.24 33.11 69.26 33.29 69.19 33.45 60.96 31.61 60.96 31.44 60.96 31.26"/><polygon points="60.99 32.31 68.86 34.07 68.83 34.24 68.79 34.4 60.91 32.65 60.95 32.48 60.99 32.31"/><polygon points="69.24 33.11 76.82 29.82 77.06 29.91 77.02 30.11 69.6 33.33 69.26 33.29 69.24 33.11"/><polygon points="77.32 29.93 82.76 36.1 82.69 36.28 82.5 36.33 77.02 30.11 77.06 29.91 77.32 29.93"/><polygon points="82.83 36.44 80.44 45.77 80.27 45.76 80.21 45.31 82.5 36.33 82.69 36.28 82.83 36.44"/><polygon points="79.13 46.16 76.12 40.83 76.27 40.75 76.42 40.66 79.42 45.99 79.27 46.07 79.13 46.16"/><polygon points="80.1 45.81 77.01 40.33 77.16 40.25 77.31 40.16 80.21 45.31 80.27 45.76 80.1 45.81"/><g class="cls-1"><text class="cls-2" transform="translate(74.74 39.87)">N</text></g><polygon points="74.3 37.23 69.19 33.45 69.26 33.29 69.6 33.33 74.5 36.96 74.4 37.1 74.3 37.23"/><polygon points="80.44 45.77 81.23 54.07 81.08 54.23 80.9 54.19 80.1 45.81 80.27 45.76 80.44 45.77"/><polygon points="81.17 54.41 76.21 63.97 76.02 63.96 75.92 63.78 80.9 54.19 81.08 54.23 81.17 54.41"/><polygon points="80.18 54.1 75.56 63.01 75.41 62.93 75.25 62.85 79.88 53.95 80.03 54.02 80.18 54.1"/><polygon points="75.9 64.13 69.21 64.06 69.21 63.89 69.22 63.72 75.92 63.78 76.02 63.96 75.9 64.13"/><g class="cls-1"><text class="cls-2" transform="translate(66.17 65.39)">N</text></g><polygon points="67.05 65.82 65.01 71.87 64.81 71.93 64.69 71.76 66.72 65.71 66.88 65.76 67.05 65.82"/><line class="cls-4" x1="68.77" y1="61.91" x2="70.18" y2="61.91"/><polygon points="76.21 63.97 78.68 71.84 78.57 72.07 78.37 72 75.9 64.13 76.02 63.96 76.21 63.97"/><polygon points="81.23 54.07 89.54 55.03 89.52 55.2 89.5 55.37 81.17 54.41 81.08 54.23 81.23 54.07"/><polygon points="82.76 36.1 91.04 35.32 91.16 35.48 91.27 35.64 82.83 36.44 82.69 36.28 82.76 36.1"/><polygon points="91.04 35.32 94.58 27.58 94.69 27.74 94.81 27.9 91.27 35.64 91.16 35.48 91.04 35.32"/><polygon points="94.58 27.58 103.05 26.78 103.16 26.94 103.27 27.1 94.81 27.9 94.69 27.74 94.58 27.58"/><polygon points="103.54 26.3 107.3 31.58 107.16 31.68 107.02 31.78 103.27 26.5 103.4 26.4 103.54 26.3"/><polygon points="102.71 26.89 106.47 32.17 106.33 32.27 106.19 32.37 102.43 27.09 102.57 26.99 102.71 26.89"/><g class="cls-1"><text class="cls-2" transform="translate(106.63 35.38)">O</text></g><polygon points="103.05 26.78 105.67 21.02 105.83 21.09 105.98 21.16 103.27 27.1 103.16 26.94 103.05 26.78"/><g class="cls-1"><text class="cls-2" transform="translate(105.34 20.24)">N</text><text class="cls-2" transform="translate(108.05 20.24)">H</text><text class="cls-5" transform="translate(110.76 20.81)">2</text></g><polygon points="76.82 29.82 72.74 22.58 72.88 22.5 73.03 22.42 77.12 29.66 77.06 29.91 76.82 29.82"/><polygon points="77.12 29.66 83.89 24.84 83.99 24.98 84.09 25.11 77.32 29.93 77.06 29.91 77.12 29.66"/><polygon points="42.76 31.66 41.11 23.5 41.26 23.37 41.41 23.24 43.09 31.55 42.94 31.71 42.76 31.66"/><polygon points="41.11 23.5 33.05 20.79 33.2 20.66 33.34 20.53 41.41 23.24 41.26 23.37 41.11 23.5"/><polygon points="33.05 20.79 31.36 12.46 31.51 12.33 31.66 12.2 33.34 20.53 33.2 20.66 33.05 20.79"/><polygon points="30.84 12.01 35.64 7.78 35.75 7.91 35.86 8.03 31.07 12.27 30.95 12.14 30.84 12.01"/><polygon points="31.52 12.78 36.31 8.54 36.43 8.67 36.54 8.8 31.74 13.03 31.63 12.9 31.52 12.78"/><g class="cls-1"><text class="cls-2" transform="translate(36.43 8.22)">O</text></g><polygon points="31.36 12.46 25.09 10.35 25.14 10.19 25.2 10.03 31.66 12.2 31.51 12.33 31.36 12.46"/><g class="cls-1"><text class="cls-2" transform="translate(18.14 10.66)">H</text><text class="cls-5" transform="translate(20.85 11.23)">2</text><text class="cls-2" transform="translate(22.13 10.66)">N</text></g><polygon points="37.14 38.22 30.36 43.04 30.26 42.9 30.16 42.76 36.94 37.94 37.19 37.97 37.14 38.22"/><polygon points="36.94 37.94 31.5 31.78 31.56 31.59 31.63 31.41 37.19 37.72 37.19 37.97 36.94 37.94"/><polygon points="31.5 31.78 23.17 33.47 23.23 33.28 23.29 33.09 31.63 31.41 31.56 31.59 31.5 31.78"/><polygon points="23.97 33.22 21.8 39.67 21.64 39.61 21.48 39.56 23.64 33.11 23.81 33.16 23.97 33.22"/><polygon points="23 32.89 20.83 39.34 20.67 39.29 20.51 39.23 22.68 32.78 22.84 32.84 23 32.89"/><g class="cls-1"><text class="cls-2" transform="translate(19.06 42.86)">O</text></g><polygon points="23.17 33.47 19.14 28.91 19.27 28.8 19.4 28.68 23.29 33.09 23.23 33.28 23.17 33.47"/><g class="cls-1"><text class="cls-2" transform="translate(12.29 27.94)">H</text><text class="cls-5" transform="translate(15 28.52)">2</text><text class="cls-2" transform="translate(16.28 27.94)">N</text></g><polygon points="40.28 54.01 31.95 54.8 31.93 54.63 31.92 54.46 40.24 53.67 40.4 53.82 40.28 54.01"/><polygon points="42.52 71.9 34.58 74.39 34.44 74.26 34.29 74.13 42.38 71.59 42.55 71.71 42.52 71.9"/><polygon points="34.58 74.39 32.73 82.69 32.58 82.56 32.44 82.43 34.29 74.13 34.44 74.26 34.58 74.39"/><polygon points="32.73 82.69 24.61 85.24 24.47 85.11 24.33 84.98 32.44 82.43 32.58 82.56 32.73 82.69"/><polygon points="24.23 85.81 19.55 81.51 19.66 81.38 19.78 81.26 24.46 85.56 24.34 85.68 24.23 85.81"/><polygon points="24.92 85.06 20.24 80.76 20.35 80.63 20.47 80.51 25.15 84.81 25.03 84.93 24.92 85.06"/><g class="cls-1"><text class="cls-2" transform="translate(16.75 80.88)">O</text></g><polygon points="24.61 85.24 23.21 91.56 23.04 91.52 22.88 91.48 24.33 84.98 24.47 85.11 24.61 85.24"/><g class="cls-1"><text class="cls-2" transform="translate(17.31 94.45)">H</text><text class="cls-5" transform="translate(20.02 95.02)">2</text><text class="cls-2" transform="translate(21.3 94.45)">N</text></g><polygon points="49.61 76.82 54.33 83.7 54.19 83.79 54.05 83.89 49.36 77.05 49.38 76.78 49.61 76.82"/><polygon points="49.36 77.05 43.82 83.09 43.63 83.04 43.43 83 49.13 76.8 49.38 76.78 49.36 77.05"/><polygon points="43.82 83.09 46.37 91.2 46.17 91.16 45.98 91.11 43.43 83 43.63 83.04 43.82 83.09"/><polygon points="46.03 90.43 52.82 91.94 52.79 92.11 52.75 92.27 45.96 90.76 46 90.59 46.03 90.43"/><polygon points="45.81 91.42 52.6 92.94 52.56 93.1 52.53 93.27 45.74 91.76 45.77 91.59 45.81 91.42"/><g class="cls-1"><text class="cls-2" transform="translate(53.02 94.53)">O</text></g><polygon points="46.37 91.2 42.24 95.69 42.12 95.58 41.99 95.46 45.98 91.11 46.17 91.16 46.37 91.2"/><g class="cls-1"><text class="cls-2" transform="translate(35.11 98.46)">H</text><text class="cls-5" transform="translate(37.82 99.03)">2</text><text class="cls-2" transform="translate(39.1 98.46)">N</text></g><polygon points="56.46 72.02 55.65 80.33 55.48 80.31 55.31 80.3 56.1 72.2 56.31 71.85 56.46 72.02"/><polygon points="71.81 77.09 71.73 85.41 71.56 85.5 71.39 85.6 71.47 77.08 71.64 77 71.81 77.09"/><polygon points="71.73 85.41 79.05 89.73 78.88 89.83 78.71 89.92 71.39 85.6 71.56 85.5 71.73 85.41"/><polygon points="78.29 89.38 84.15 86.07 84.24 86.22 84.32 86.37 78.46 89.68 78.37 89.53 78.29 89.38"/><polygon points="78.79 90.27 84.66 86.96 84.74 87.11 84.82 87.26 78.96 90.57 78.87 90.42 78.79 90.27"/><g class="cls-1"><text class="cls-2" transform="translate(84.83 87.17)">O</text></g><polygon points="79.05 89.73 78.98 96.44 78.81 96.44 78.64 96.44 78.71 89.92 78.88 89.83 79.05 89.73"/><g class="cls-1"><text class="cls-2" transform="translate(77.44 99.37)">N</text><text class="cls-2" transform="translate(80.15 99.37)">H</text><text class="cls-5" transform="translate(82.86 99.94)">2</text></g><polygon points="78.68 71.84 86.31 68.53 86.37 68.69 86.44 68.84 78.81 72.15 78.57 72.07 78.68 71.84"/><polygon points="150.93 79.21 154.83 83.63 154.7 83.75 154.57 83.86 150.67 79.44 150.74 79.26 150.93 79.21"/><g class="cls-1"><text class="cls-2" transform="translate(154.91 87.16)">O</text><text class="cls-2" transform="translate(157.83 87.16)">H</text></g><polygon points="71.28 113.55 64.47 113.48 64.47 113.31 64.47 113.14 71.28 113.21 71.28 113.38 71.28 113.55"/><polygon points="71.29 112.53 64.48 112.46 64.48 112.29 64.48 112.12 71.29 112.19 71.29 112.36 71.29 112.53"/><polygon points="71.3 111.51 64.49 111.44 64.49 111.27 64.49 111.1 71.3 111.17 71.3 111.34 71.3 111.51"/><g class="cls-1"><text class="cls-2" transform="translate(61.43 113.8)">N</text></g><line class="cls-4" x1="72.24" y1="110.7" x2="73.66" y2="110.7"/><g class="cls-1"><text class="cls-2" transform="translate(68.79 124.78)">Co</text></g><line class="cls-4" x1="74.08" y1="120.38" x2="75.49" y2="120.38"/><line class="cls-4" x1="74.78" y1="119.67" x2="74.78" y2="121.08"/><g class="cls-1"><text class="cls-6" transform="translate(72.65 120.59)">3</text></g></svg>