<svg id="图层_1" data-name="图层 1" xmlns="http://www.w3.org/2000/svg" viewBox="0 0 200 130"><defs><style>.cls-1,.cls-2,.cls-3,.cls-5,.cls-6{isolation:isolate;}.cls-2,.cls-3{font-size:3.93px;}.cls-2,.cls-3,.cls-5,.cls-6{font-family:ArialMT, Arial;}.cls-3{letter-spacing:-0.02em;}.cls-4{fill:none;stroke:#000;stroke-miterlimit:3.93;stroke-width:0.93px;}.cls-5{font-size:2.42px;}.cls-6{font-size:1.81px;}</style></defs><polygon points="198.28 46.89 189.5 46.33 189.41 46.14 189.52 45.97 198.3 46.53 198.29 46.71 198.28 46.89"/><polygon points="188.02 46.14 184.61 39.27 184.77 39.19 184.93 39.11 188.34 45.99 188.18 46.06 188.02 46.14"/><polygon points="189.2 46.13 185.34 38.34 185.46 38.17 185.57 37.99 189.52 45.97 189.41 46.14 189.2 46.13"/><polygon points="185.34 38.34 176.66 37.78 176.57 37.6 176.66 37.43 185.57 37.99 185.46 38.17 185.34 38.34"/><polygon points="176.66 37.78 171.84 45.02 171.64 45.01 171.56 44.81 176.35 37.61 176.57 37.6 176.66 37.78"/><polygon points="175.4 37.75 171.32 43.87 171.18 43.77 171.03 43.67 175.1 37.56 175.25 37.65 175.4 37.75"/><polygon points="171.84 45.02 175.7 52.82 175.59 52.99 175.47 53.16 171.51 45.16 171.64 45.01 171.84 45.02"/><polygon points="176.28 51.78 183.94 52.27 183.93 52.45 183.92 52.63 176.26 52.14 176.27 51.96 176.28 51.78"/><polygon points="175.7 52.82 184.38 53.37 184.47 53.55 184.36 53.73 175.47 53.16 175.59 52.99 175.7 52.82"/><polygon points="184.68 53.57 188.59 61.45 188.43 61.53 188.27 61.61 184.36 53.73 184.47 53.55 184.68 53.57"/><polygon points="184.38 53.37 189.2 46.13 189.41 46.14 189.5 46.33 184.68 53.57 184.47 53.55 184.38 53.37"/><polygon points="171.51 45.16 164.79 43.28 164.84 43.11 164.88 42.94 171.56 44.81 171.64 45.01 171.51 45.16"/><g class="cls-1"><text class="cls-2" transform="translate(161.65 44.2)">N</text></g><polygon points="162.8 40.64 162.51 33.59 162.7 33.72 162.88 33.84 163.16 40.62 162.98 40.63 162.8 40.64"/><polygon points="162.51 33.59 169.21 31.11 169.27 31.28 169.33 31.44 162.88 33.84 162.7 33.72 162.51 33.59"/><polygon points="163.73 34.28 169.58 32.11 169.64 32.28 169.7 32.45 163.86 34.61 163.8 34.45 163.73 34.28"/><g class="cls-1"><text class="cls-2" transform="translate(169.63 32.21)">N</text></g><polygon points="172.75 32.49 176.66 37.43 176.57 37.6 176.35 37.61 172.47 32.71 172.61 32.6 172.75 32.49"/><polygon points="161.4 44.16 156.26 48.22 156.08 48.14 156.04 47.94 161.18 43.88 161.29 44.02 161.4 44.16"/><polygon points="156.26 48.22 156.62 56.93 156.45 57.03 156.26 56.91 155.91 48.27 156.08 48.14 156.26 48.22"/><polygon points="156.43 57.23 148.25 60.27 148.1 60.13 148.16 59.92 156.26 56.91 156.45 57.03 156.43 57.23"/><polygon points="147.9 60.17 142.49 53.33 142.57 53.15 142.79 53.14 148.16 59.92 148.1 60.13 147.9 60.17"/><polygon points="142.48 52.97 146.04 47.62 146.19 47.72 146.34 47.81 142.79 53.14 142.57 53.15 142.48 52.97"/><g class="cls-1"><text class="cls-2" transform="translate(145.98 47.33)">O</text></g><polygon points="149.44 46.09 156.04 47.94 156.08 48.14 155.91 48.27 149.34 46.44 149.39 46.26 149.44 46.09"/><polygon points="142.49 53.33 133.58 53.7 133.68 53.51 133.78 53.33 142.48 52.97 142.57 53.15 142.49 53.33"/><polygon points="133.58 53.7 130.02 48.07 130.17 47.97 130.32 47.88 133.78 53.33 133.68 53.51 133.58 53.7"/><g class="cls-1"><text class="cls-2" transform="translate(124.55 47.58)">H</text><text class="cls-2" transform="translate(127.39 47.58)">O</text></g><polygon points="148.25 60.27 146.43 66.77 146.25 66.72 146.08 66.67 147.9 60.17 148.1 60.13 148.25 60.27"/><g class="cls-1"><text class="cls-2" transform="translate(144.17 70.29)">O</text></g><polygon points="143.86 69.36 138.78 70.66 138.74 70.48 138.7 70.31 143.77 69.01 143.82 69.19 143.86 69.36"/><g class="cls-1"><text class="cls-3" transform="translate(135.77 72.5)">P</text></g><polygon points="138.27 72.71 139.47 77.38 139.29 77.42 139.12 77.47 137.93 72.8 138.1 72.76 138.27 72.71"/><polygon points="137.24 72.98 138.43 77.64 138.26 77.69 138.09 77.73 136.89 73.07 137.06 73.02 137.24 72.98"/><g class="cls-1"><text class="cls-2" transform="translate(137.75 81.12)">O</text></g><polygon points="136.4 68.97 135.2 64.31 135.37 64.27 135.55 64.22 136.74 68.89 136.57 68.93 136.4 68.97"/><g class="cls-1"><text class="cls-2" transform="translate(133.34 63.88)">O</text></g><line class="cls-4" x1="136.23" y1="60.18" x2="137.71" y2="60.18"/><polygon points="135.45 71.51 130.38 72.81 130.33 72.64 130.29 72.46 135.37 71.17 135.41 71.34 135.45 71.51"/><g class="cls-1"><text class="cls-2" transform="translate(126.92 74.71)">O</text></g><polygon points="128.07 75.15 126.25 81.64 126.05 81.69 125.91 81.55 127.72 75.05 127.89 75.1 128.07 75.15"/><polygon points="126.25 81.64 132.4 87.93 132.27 88.06 132.15 88.18 125.99 81.89 126.05 81.69 126.25 81.64"/><polygon points="125.99 81.89 117.37 84.1 117.42 83.9 117.48 83.7 125.91 81.55 126.05 81.69 125.99 81.89"/><polygon points="117.37 84.1 112.84 79.47 112.97 79.35 113.1 79.22 117.48 83.7 117.42 83.9 117.37 84.1"/><g class="cls-1"><text class="cls-2" transform="translate(109.78 75.88)">H</text></g><g class="cls-1"><text class="cls-2" transform="translate(109.78 79.46)">N</text></g><polygon points="109.47 78.16 102.52 79.94 102.57 79.74 102.63 79.54 109.38 77.82 109.42 77.99 109.47 78.16"/><polygon points="103.34 79.64 101.41 86.53 101.24 86.48 101.07 86.43 103 79.54 103.17 79.59 103.34 79.64"/><polygon points="102.31 79.35 100.38 86.24 100.21 86.19 100.04 86.14 101.97 79.25 102.14 79.3 102.31 79.35"/><g class="cls-1"><text class="cls-2" transform="translate(98.65 89.91)">O</text></g><polygon points="102.52 79.94 96.29 73.57 96.35 73.38 96.4 73.18 102.63 79.54 102.57 79.74 102.52 79.94"/><polygon points="96.29 73.57 87.67 75.78 87.72 75.58 87.78 75.39 96.4 73.18 96.35 73.38 96.29 73.57"/><polygon points="87.67 75.78 81.51 69.48 81.5 69.22 81.76 69.23 87.78 75.39 87.72 75.58 87.67 75.78"/><polygon points="81.51 69.48 76.01 76.12 75.82 76.07 75.76 75.86 81.28 69.2 81.5 69.22 81.51 69.48"/><polygon points="75.67 76.21 67.53 72.98 67.54 72.79 67.73 72.67 75.76 75.86 75.82 76.07 75.67 76.21"/><polygon points="67.53 72.98 59.12 75.13 58.92 75 58.91 74.82 67.37 72.65 67.54 72.79 67.53 72.98"/><polygon points="58.81 75.41 53.49 81.83 53.24 81.85 53.18 81.64 58.58 75.12 58.92 75 58.81 75.41"/><polygon points="52.99 81.95 44.98 78.77 44.96 78.57 45.12 78.44 53.18 81.64 53.24 81.85 52.99 81.95"/><polygon points="44.76 78.49 42.56 68.64 42.73 68.57 43 68.97 45.12 78.44 44.96 78.57 44.76 78.49"/><polygon points="43.61 67.66 49.06 71.29 48.96 71.44 48.86 71.58 43.41 67.96 43.51 67.81 43.61 67.66"/><polygon points="42.86 68.45 48.47 72.18 48.37 72.33 48.27 72.47 43 68.97 42.73 68.57 42.86 68.45"/><g class="cls-1"><text class="cls-2" transform="translate(48.72 75.1)">N</text></g><polygon points="51.94 73.63 58.91 74.82 58.92 75 58.58 75.12 51.88 73.98 51.91 73.81 51.94 73.63"/><polygon points="42.56 68.64 37.89 61.27 37.96 61.05 38.13 60.99 42.86 68.45 42.73 68.57 42.56 68.64"/><polygon points="37.77 60.94 36.5 52.33 36.67 52.24 36.85 52.26 38.13 60.99 37.96 61.05 37.77 60.94"/><polygon points="38.81 60.7 37.58 52.34 37.76 52.31 37.94 52.29 39.16 60.65 38.99 60.67 38.81 60.7"/><polygon points="36.5 52.33 30.45 46.14 30.44 45.88 30.66 45.85 36.58 51.9 36.67 52.24 36.5 52.33"/><polygon points="30.38 45.62 34.38 37.99 34.58 37.99 34.69 38.16 30.66 45.85 30.44 45.88 30.38 45.62"/><polygon points="34.68 37.8 44.7 36.64 44.75 36.81 44.33 37.04 34.69 38.16 34.58 37.99 34.68 37.8"/><polygon points="45.56 37.78 41.67 42.49 41.53 42.37 41.4 42.26 45.29 37.56 45.43 37.67 45.56 37.78"/><polygon points="44.86 36.96 40.85 41.8 40.71 41.69 40.57 41.58 44.33 37.04 44.75 36.81 44.86 36.96"/><g class="cls-1"><text class="cls-2" transform="translate(37.65 45.26)">N</text></g><polygon points="38.69 45.7 36.85 52.26 36.67 52.24 36.58 51.9 38.34 45.6 38.52 45.65 38.69 45.7"/><polygon points="44.7 36.64 52.68 32.69 52.73 32.86 52.77 33.04 44.86 36.96 44.75 36.81 44.7 36.64"/><polygon points="52.68 32.69 61.56 32.32 61.62 32.5 61.59 32.67 52.77 33.04 52.73 32.86 52.68 32.69"/><polygon points="52.99 33.74 61.43 33.4 61.44 33.57 61.45 33.75 53.01 34.1 53 33.92 52.99 33.74"/><polygon points="61.56 32.32 68.34 26.95 68.61 26.97 68.61 27.19 61.98 32.44 61.62 32.5 61.56 32.32"/><polygon points="68.87 26.93 76.04 31.7 76.02 31.9 75.84 32 68.61 27.19 68.61 26.97 68.87 26.93"/><polygon points="76.2 32.03 76.3 42.11 76.12 42.15 75.94 41.7 75.84 32 76.02 31.9 76.2 32.03"/><polygon points="75.07 42.85 70.78 38.47 70.91 38.34 71.04 38.22 75.33 42.6 75.2 42.73 75.07 42.85"/><polygon points="75.97 42.24 71.55 37.72 71.67 37.59 71.8 37.47 75.94 41.7 76.12 42.15 75.97 42.24"/><g class="cls-1"><text class="cls-2" transform="translate(68.48 37.37)">N</text></g><polygon points="68.06 35.24 61.59 32.67 61.62 32.5 61.98 32.44 68.19 34.91 68.13 35.08 68.06 35.24"/><polygon points="76.3 42.11 79.34 50.3 79.22 50.49 79.04 50.51 75.97 42.24 76.12 42.15 76.3 42.11"/><polygon points="79.37 50.65 76.92 61.66 76.73 61.7 76.58 61.55 79.04 50.51 79.22 50.49 79.37 50.65"/><polygon points="78.28 50.61 76.01 60.86 75.83 60.83 75.66 60.79 77.94 50.53 78.11 50.57 78.28 50.61"/><polygon points="76.65 61.9 69.93 63.62 69.88 63.45 69.84 63.28 76.58 61.55 76.73 61.7 76.65 61.9"/><g class="cls-1"><text class="cls-2" transform="translate(66.69 65.5)">N</text></g><polygon points="68.16 65.9 67.73 72.67 67.54 72.79 67.37 72.65 67.81 65.87 67.98 65.89 68.16 65.9"/><line class="cls-4" x1="69.42" y1="61.86" x2="70.9" y2="61.86"/><polygon points="76.92 61.66 81.54 68.96 81.5 69.22 81.28 69.2 76.65 61.9 76.73 61.7 76.92 61.66"/><polygon points="79.34 50.3 88 49.02 88.03 49.2 88.06 49.38 79.37 50.65 79.22 50.49 79.34 50.3"/><polygon points="76.04 31.7 84.21 28.68 84.36 28.81 84.52 28.94 76.2 32.03 76.02 31.9 76.04 31.7"/><polygon points="84.21 28.68 85.7 19.9 85.86 20.03 86.01 20.16 84.52 28.94 84.36 28.81 84.21 28.68"/><polygon points="85.7 19.9 94.05 16.8 94.2 16.93 94.36 17.06 86.01 20.16 85.86 20.03 85.7 19.9"/><polygon points="94.42 16.19 99.63 20.5 99.52 20.64 99.4 20.78 94.19 16.46 94.31 16.32 94.42 16.19"/><polygon points="93.74 17.01 98.95 21.32 98.83 21.46 98.72 21.6 93.51 17.28 93.63 17.15 93.74 17.01"/><g class="cls-1"><text class="cls-2" transform="translate(99.53 24.2)">O</text></g><polygon points="94.05 16.8 95.18 10.1 95.36 10.13 95.53 10.16 94.36 17.06 94.2 16.93 94.05 16.8"/><g class="cls-1"><text class="cls-2" transform="translate(94.28 9.24)">N</text><text class="cls-2" transform="translate(97.11 9.24)">H</text><text class="cls-5" transform="translate(99.95 9.84)">2</text></g><polygon points="68.34 26.95 62.25 20.73 62.38 20.61 62.51 20.48 68.59 26.7 68.61 26.97 68.34 26.95"/><polygon points="68.59 26.7 74.15 20 74.28 20.11 74.42 20.23 68.87 26.93 68.61 26.97 68.59 26.7"/><polygon points="34.38 37.99 30.51 30.18 30.62 30.01 30.74 29.84 34.68 37.8 34.58 37.99 34.38 37.99"/><polygon points="30.51 30.18 21.62 29.62 21.74 29.45 21.85 29.28 30.74 29.84 30.62 30.01 30.51 30.18"/><polygon points="21.62 29.62 17.67 21.64 17.78 21.47 17.9 21.3 21.85 29.28 21.74 29.45 21.62 29.62"/><polygon points="17.02 21.33 20.81 15.64 20.95 15.74 21.1 15.84 17.32 21.53 17.17 21.43 17.02 21.33"/><polygon points="17.91 21.92 21.7 16.24 21.84 16.33 21.99 16.43 18.21 22.12 18.06 22.02 17.91 21.92"/><g class="cls-1"><text class="cls-2" transform="translate(21.19 15.65)">O</text></g><polygon points="17.67 21.64 10.66 21.2 10.67 21.02 10.68 20.84 17.9 21.3 17.78 21.47 17.67 21.64"/><g class="cls-1"><text class="cls-2" transform="translate(3.34 21.99)">H</text><text class="cls-5" transform="translate(6.17 22.59)">2</text><text class="cls-2" transform="translate(7.52 21.99)">N</text></g><polygon points="30.45 46.14 24.9 52.85 24.76 52.73 24.63 52.62 30.18 45.92 30.44 45.88 30.45 46.14"/><polygon points="30.18 45.92 23.02 41.15 23.03 40.95 23.05 40.74 30.38 45.62 30.44 45.88 30.18 45.92"/><polygon points="23.02 41.15 15.04 45.1 15.05 44.9 15.07 44.69 23.05 40.74 23.03 40.95 23.02 41.15"/><polygon points="15.79 44.64 15.33 51.85 15.15 51.84 14.97 51.83 15.43 44.61 15.61 44.63 15.79 44.64"/><polygon points="14.72 44.57 14.26 51.78 14.08 51.77 13.9 51.76 14.36 44.55 14.54 44.56 14.72 44.57"/><g class="cls-1"><text class="cls-2" transform="translate(12.96 55.37)">O</text></g><polygon points="15.04 45.1 9.32 41.3 9.42 41.15 9.52 41 15.07 44.69 15.05 44.9 15.04 45.1"/><g class="cls-1"><text class="cls-2" transform="translate(2.08 41.05)">H</text><text class="cls-5" transform="translate(4.92 41.66)">2</text><text class="cls-2" transform="translate(6.26 41.05)">N</text></g><polygon points="37.89 61.27 29.68 64.32 29.62 64.15 29.55 63.98 37.77 60.94 37.96 61.05 37.89 61.27"/><polygon points="44.98 78.77 37.62 83.43 37.44 83.33 37.26 83.24 44.76 78.49 44.96 78.57 44.98 78.77"/><polygon points="37.62 83.43 37.99 92.33 37.81 92.23 37.63 92.14 37.26 83.24 37.44 83.33 37.62 83.43"/><polygon points="37.99 92.33 30.47 97.09 30.29 97 30.1 96.9 37.63 92.14 37.81 92.23 37.99 92.33"/><polygon points="30.23 97.77 23.95 94.48 24.03 94.33 24.12 94.17 30.39 97.45 30.31 97.61 30.23 97.77"/><polygon points="30.73 96.82 24.45 93.54 24.53 93.38 24.61 93.22 30.89 96.51 30.81 96.67 30.73 96.82"/><g class="cls-1"><text class="cls-2" transform="translate(20.87 94.46)">O</text></g><polygon points="30.47 97.09 30.75 103.9 30.57 103.91 30.39 103.92 30.1 96.9 30.29 97 30.47 97.09"/><g class="cls-1"><text class="cls-2" transform="translate(29.23 106.98)">N</text><text class="cls-2" transform="translate(32.07 106.98)">H</text><text class="cls-5" transform="translate(34.9 107.58)">2</text></g><polygon points="53.49 81.83 60.11 87.52 59.99 87.65 59.88 87.79 53.29 82.14 53.24 81.85 53.49 81.83"/><polygon points="53.29 82.14 49.31 89.73 49.11 89.74 48.9 89.75 52.99 81.95 53.24 81.85 53.29 82.14"/><polygon points="49.31 89.73 54.08 97.25 53.87 97.26 53.67 97.27 48.9 89.75 49.11 89.74 49.31 89.73"/><polygon points="53.53 96.56 60.85 96.26 60.86 96.44 60.87 96.62 53.55 96.92 53.54 96.74 53.53 96.56"/><polygon points="53.58 97.63 60.9 97.33 60.91 97.51 60.91 97.69 53.59 97.99 53.59 97.81 53.58 97.63"/><g class="cls-1"><text class="cls-2" transform="translate(61.24 98.49)">O</text></g><polygon points="54.08 97.25 50.94 103.25 50.78 103.17 50.62 103.09 53.67 97.27 53.87 97.26 54.08 97.25"/><g class="cls-1"><text class="cls-2" transform="translate(44.18 106.23)">H</text><text class="cls-5" transform="translate(47.01 106.84)">2</text><text class="cls-2" transform="translate(48.36 106.23)">N</text></g><polygon points="59.12 75.13 60.54 83.75 60.37 83.78 60.19 83.81 58.81 75.41 58.92 75 59.12 75.13"/><polygon points="76.01 76.12 78.17 84.56 78.03 84.7 77.88 84.84 75.67 76.21 75.82 76.07 76.01 76.12"/><polygon points="78.17 84.56 86.75 86.96 86.6 87.1 86.45 87.24 77.88 84.84 78.03 84.7 78.17 84.56"/><polygon points="85.88 86.81 90.58 82.21 90.71 82.33 90.83 82.46 86.13 87.06 86.01 86.93 85.88 86.81"/><polygon points="86.63 87.57 91.33 82.97 91.46 83.1 91.58 83.23 86.88 87.83 86.75 87.7 86.63 87.57"/><g class="cls-1"><text class="cls-2" transform="translate(91.44 82.47)">O</text></g><polygon points="86.75 86.96 88.47 93.7 88.3 93.75 88.13 93.79 86.45 87.24 86.6 87.1 86.75 86.96"/><g class="cls-1"><text class="cls-2" transform="translate(87.39 96.81)">N</text><text class="cls-2" transform="translate(90.23 96.81)">H</text><text class="cls-5" transform="translate(93.06 97.41)">2</text></g><polygon points="81.54 68.96 88.37 63.55 88.48 63.69 88.59 63.83 81.76 69.23 81.5 69.22 81.54 68.96"/><polygon points="156.62 56.93 162.07 60.56 161.98 60.71 161.88 60.86 156.43 57.23 156.45 57.03 156.62 56.93"/><g class="cls-1"><text class="cls-2" transform="translate(162.33 63.56)">O</text><text class="cls-2" transform="translate(165.39 63.56)">H</text></g><g class="cls-1"><text class="cls-2" transform="translate(83.47 113.53)">O</text><text class="cls-2" transform="translate(86.53 113.53)">H</text></g><line class="cls-4" x1="86.36" y1="109.84" x2="87.84" y2="109.84"/><g class="cls-1"><text class="cls-2" transform="translate(85.32 124.59)">Co</text></g><line class="cls-4" x1="90.86" y1="119.97" x2="92.34" y2="119.97"/><line class="cls-4" x1="91.6" y1="119.23" x2="91.6" y2="120.72"/><g class="cls-1"><text class="cls-6" transform="translate(89.37 120.2)">3</text></g></svg>