<svg id="图层_1" data-name="图层 1" xmlns="http://www.w3.org/2000/svg" viewBox="0 0 200 130"><defs><style>.cls-1,.cls-2,.cls-3,.cls-5{isolation:isolate;}.cls-2,.cls-3{font-size:4.05px;}.cls-2,.cls-3,.cls-5{font-family:ArialMT, Arial;}.cls-3{letter-spacing:-0.02em;}.cls-4{fill:none;stroke:#000;stroke-miterlimit:3.93;stroke-width:0.93px;}.cls-5{font-size:2.49px;}</style></defs><polygon points="197.87 82.82 189.17 80.25 189.12 80.04 189.28 79.9 197.97 82.47 197.92 82.64 197.87 82.82"/><polygon points="187.73 79.72 185.88 72.04 186.05 72 186.23 71.95 188.08 79.64 187.9 79.68 187.73 79.72"/><polygon points="188.92 79.98 186.82 71.27 186.98 71.12 187.13 70.98 189.28 79.9 189.12 80.04 188.92 79.98"/><polygon points="186.82 71.27 178.23 68.73 178.18 68.52 178.31 68.37 187.13 70.98 186.98 71.12 186.82 71.27"/><polygon points="178.23 68.73 171.73 74.9 171.53 74.84 171.5 74.62 177.96 68.48 178.18 68.52 178.23 68.73"/><polygon points="176.97 68.41 171.47 73.63 171.35 73.49 171.22 73.36 176.71 68.14 176.84 68.28 176.97 68.41"/><polygon points="171.73 74.9 173.83 83.62 173.67 83.76 173.52 83.91 171.37 74.96 171.53 74.84 171.73 74.9"/><polygon points="174.65 82.71 182.23 84.95 182.18 85.13 182.12 85.3 174.54 83.06 174.59 82.89 174.65 82.71"/><polygon points="173.83 83.62 182.42 86.16 182.47 86.36 182.32 86.51 173.52 83.91 173.67 83.76 173.83 83.62"/><polygon points="182.68 86.42 184.8 95.24 184.62 95.28 184.44 95.33 182.32 86.51 182.47 86.36 182.68 86.42"/><polygon points="182.42 86.16 188.92 79.98 189.12 80.04 189.17 80.25 182.68 86.42 182.47 86.36 182.42 86.16"/><polygon points="171.37 74.96 165.2 71.62 165.29 71.46 165.38 71.3 171.5 74.62 171.53 74.84 171.37 74.96"/><g class="cls-1"><text class="cls-2" transform="translate(162 72.11)">N</text></g><polygon points="163.66 68.39 164.97 61.28 165.13 61.45 165.28 61.61 164.02 68.46 163.84 68.43 163.66 68.39"/><polygon points="164.97 61.28 172.37 60.3 172.4 60.49 172.42 60.67 165.28 61.61 165.13 61.45 164.97 61.28"/><polygon points="166.04 62.25 172.51 61.4 172.54 61.58 172.56 61.76 166.09 62.62 166.06 62.43 166.04 62.25"/><g class="cls-1"><text class="cls-2" transform="translate(172.76 61.88)">N</text></g><polygon points="175.36 62.21 178.31 68.37 178.18 68.52 177.96 68.48 175.03 62.36 175.2 62.28 175.36 62.21"/><polygon points="161.71 71.51 155.35 74.55 155.18 74.42 155.19 74.22 161.55 71.18 161.63 71.34 161.71 71.51"/><polygon points="155.35 74.55 153.71 83.39 153.52 83.45 153.36 83.28 154.98 74.52 155.18 74.42 155.35 74.55"/><polygon points="153.45 83.64 144.54 84.82 144.42 84.65 144.53 84.45 153.36 83.28 153.52 83.45 153.45 83.64"/><polygon points="144.22 84.64 140.34 76.53 140.47 76.37 140.69 76.41 144.53 84.45 144.42 84.65 144.22 84.64"/><polygon points="140.41 76.17 145.05 71.76 145.18 71.89 145.3 72.03 140.69 76.41 140.47 76.37 140.41 76.17"/><g class="cls-1"><text class="cls-2" transform="translate(145.54 71.69)">O</text></g><polygon points="149.15 70.94 155.19 74.22 155.18 74.42 154.98 74.52 148.97 71.27 149.06 71.1 149.15 70.94"/><polygon points="140.34 76.53 131.31 74.87 131.44 74.7 131.58 74.54 140.41 76.17 140.47 76.37 140.34 76.53"/><polygon points="131.31 74.87 128.93 68.16 129.1 68.1 129.27 68.04 131.58 74.54 131.44 74.7 131.31 74.87"/><g class="cls-1"><text class="cls-2" transform="translate(123.88 67.7)">H</text><text class="cls-2" transform="translate(126.8 67.7)">O</text></g><polygon points="144.54 84.82 141.32 90.76 141.15 90.67 140.99 90.59 144.22 84.64 144.42 84.65 144.54 84.82"/><g class="cls-1"><text class="cls-2" transform="translate(138.47 94.35)">O</text></g><polygon points="138.11 92.95 132.6 93.1 132.59 92.92 132.59 92.73 138.1 92.58 138.11 92.77 138.11 92.95"/><g class="cls-1"><text class="cls-3" transform="translate(129.53 94.6)">P</text></g><polygon points="131.66 94.98 131.8 100.07 131.62 100.08 131.44 100.08 131.3 94.99 131.48 94.99 131.66 94.98"/><polygon points="130.56 95.01 130.7 100.1 130.52 100.11 130.33 100.11 130.2 95.02 130.38 95.02 130.56 95.01"/><g class="cls-1"><text class="cls-2" transform="translate(129.55 103.77)">O</text></g><polygon points="130.64 90.92 130.5 85.83 130.69 85.83 130.87 85.83 131.01 90.92 130.82 90.92 130.64 90.92"/><g class="cls-1"><text class="cls-2" transform="translate(129.06 85.43)">O</text><text class="cls-2" transform="translate(132.2 85.43)">H</text></g><polygon points="129.17 93.19 123.65 93.34 123.65 93.16 123.64 92.97 129.16 92.82 129.16 93.01 129.17 93.19"/><g class="cls-1"><text class="cls-2" transform="translate(120.13 94.85)">O</text></g><polygon points="120.76 95.33 117.55 101.27 117.33 101.27 117.22 101.09 120.44 95.16 120.6 95.25 120.76 95.33"/><polygon points="117.55 101.27 122.29 109 122.13 109.09 121.97 109.19 117.23 101.46 117.33 101.27 117.55 101.27"/><polygon points="117.23 101.46 108.06 101.7 108.16 101.52 108.26 101.33 117.22 101.09 117.33 101.27 117.23 101.46"/><polygon points="108.06 101.7 104.46 95.83 104.61 95.74 104.77 95.64 108.26 101.33 108.16 101.52 108.06 101.7"/><g class="cls-1"><text class="cls-2" transform="translate(101.9 91.99)">H</text></g><g class="cls-1"><text class="cls-2" transform="translate(101.9 95.68)">N</text></g><polygon points="101.54 93.93 94.09 94.13 94.19 93.94 94.29 93.76 101.53 93.56 101.53 93.75 101.54 93.93"/><polygon points="94.99 94.02 91.57 100.32 91.41 100.23 91.25 100.14 94.67 93.84 94.83 93.93 94.99 94.02"/><polygon points="94.02 93.49 90.6 99.79 90.44 99.71 90.28 99.62 93.7 93.31 93.86 93.4 94.02 93.49"/><g class="cls-1"><text class="cls-2" transform="translate(88.25 103.65)">O</text></g><polygon points="94.09 94.13 89.29 86.31 89.39 86.13 89.49 85.94 94.29 93.76 94.19 93.94 94.09 94.13"/><polygon points="89.29 86.31 80.12 86.56 80.22 86.37 80.32 86.18 89.49 85.94 89.39 86.13 89.29 86.31"/><polygon points="80.12 86.56 75.37 78.82 75.42 78.55 75.69 78.63 80.32 86.18 80.22 86.37 80.12 86.56"/><polygon points="75.37 78.82 68.33 84.23 68.15 84.14 68.14 83.91 75.21 78.49 75.42 78.55 75.37 78.82"/><polygon points="67.97 84.24 60.53 79.13 60.58 78.95 60.8 78.87 68.14 83.91 68.15 84.14 67.97 84.24"/><polygon points="60.53 79.13 51.59 79.37 51.41 79.19 51.45 79.01 60.45 78.77 60.58 78.95 60.53 79.13"/><polygon points="51.2 79.59 44.39 84.82 44.14 84.78 44.13 84.56 51.05 79.24 51.41 79.19 51.2 79.59"/><polygon points="43.87 84.82 36.55 79.8 36.57 79.59 36.76 79.5 44.13 84.56 44.14 84.78 43.87 84.82"/><polygon points="36.39 79.46 36.43 69.07 36.61 69.04 36.8 69.5 36.76 79.5 36.57 79.59 36.39 79.46"/><polygon points="37.71 68.32 42.04 72.88 41.9 73.01 41.77 73.13 37.44 68.58 37.57 68.45 37.71 68.32"/><polygon points="36.77 68.94 41.24 73.64 41.11 73.77 40.97 73.89 36.8 69.5 36.61 69.04 36.77 68.94"/><g class="cls-1"><text class="cls-2" transform="translate(41.47 77.33)">N</text></g><polygon points="44.83 76.28 51.45 79.01 51.41 79.19 51.05 79.24 44.69 76.61 44.76 76.44 44.83 76.28"/><polygon points="36.43 69.07 33.42 60.59 33.55 60.39 33.73 60.37 36.77 68.94 36.61 69.04 36.43 69.07"/><polygon points="33.38 60.23 34.07 51.29 34.26 51.24 34.44 51.3 33.73 60.37 33.55 60.39 33.38 60.23"/><polygon points="34.48 60.23 35.16 51.55 35.34 51.56 35.52 51.58 34.84 60.26 34.66 60.24 34.48 60.23"/><polygon points="34.07 51.29 29.41 43.7 29.46 43.42 29.69 43.44 34.25 50.88 34.26 51.24 34.07 51.29"/><polygon points="29.45 43.15 35.22 36.4 35.42 36.45 35.49 36.64 29.69 43.44 29.46 43.42 29.45 43.15"/><polygon points="35.56 36.28 45.9 37.4 45.91 37.59 45.43 37.72 35.49 36.64 35.42 36.45 35.56 36.28"/><polygon points="46.51 38.75 41.24 42.79 41.13 42.65 41.02 42.5 46.28 38.46 46.39 38.6 46.51 38.75"/><polygon points="45.99 37.76 40.57 41.92 40.46 41.77 40.35 41.63 45.43 37.72 45.91 37.59 45.99 37.76"/><g class="cls-1"><text class="cls-2" transform="translate(37.17 44.82)">N</text></g><polygon points="37.69 45.31 34.44 51.3 34.26 51.24 34.25 50.88 37.37 45.13 37.53 45.22 37.69 45.31"/><polygon points="45.9 37.4 54.82 35.26 54.83 35.44 54.83 35.63 45.99 37.76 45.91 37.59 45.9 37.4"/><polygon points="54.82 35.26 63.83 36.92 63.85 37.11 63.78 37.28 54.83 35.63 54.83 35.44 54.82 35.26"/><polygon points="54.89 36.39 63.45 37.97 63.42 38.15 63.39 38.33 54.83 36.75 54.86 36.57 54.89 36.39"/><polygon points="63.83 36.92 71.87 33.08 72.13 33.15 72.09 33.38 64.22 37.14 63.85 37.11 63.83 36.92"/><polygon points="72.4 33.17 78.52 39.61 78.45 39.8 78.25 39.86 72.09 33.38 72.13 33.15 72.4 33.17"/><polygon points="78.6 39.97 76.4 50.13 76.21 50.12 76.13 49.63 78.25 39.86 78.45 39.8 78.6 39.97"/><polygon points="75 50.59 71.57 45.01 71.73 44.92 71.89 44.82 75.31 50.4 75.15 50.5 75 50.59"/><polygon points="76.04 50.18 72.51 44.44 72.67 44.34 72.82 44.24 76.13 49.63 76.21 50.12 76.04 50.18"/><g class="cls-1"><text class="cls-2" transform="translate(69.95 43.94)">N</text></g><polygon points="69.48 41.2 63.78 37.28 63.85 37.11 64.22 37.14 69.69 40.9 69.59 41.05 69.48 41.2"/><polygon points="76.4 50.13 77.58 59.04 77.42 59.22 77.23 59.19 76.04 50.18 76.21 50.12 76.4 50.13"/><polygon points="77.53 59.41 72.55 69.92 72.36 69.91 72.24 69.72 77.23 59.19 77.42 59.22 77.53 59.41"/><polygon points="76.45 59.12 71.81 68.9 71.65 68.82 71.48 68.74 76.12 58.96 76.28 59.04 76.45 59.12"/><polygon points="72.23 70.09 65.02 70.28 65.01 70.1 65.01 69.92 72.24 69.72 72.36 69.91 72.23 70.09"/><g class="cls-1"><text class="cls-2" transform="translate(61.72 71.79)">N</text></g><polygon points="62.76 72.24 60.8 78.87 60.58 78.95 60.45 78.77 62.41 72.14 62.58 72.19 62.76 72.24"/><line class="cls-4" x1="64.53" y1="68.04" x2="66.06" y2="68.04"/><polygon points="72.55 69.92 75.53 78.3 75.42 78.55 75.21 78.49 72.23 70.09 72.36 69.91 72.55 69.92"/><polygon points="77.58 59.04 86.58 59.75 86.56 59.93 86.55 60.11 77.53 59.41 77.42 59.22 77.58 59.04"/><polygon points="78.52 39.61 87.41 38.43 87.54 38.6 87.67 38.77 78.6 39.97 78.45 39.8 78.52 39.61"/><polygon points="87.41 38.43 90.92 29.95 91.05 30.12 91.18 30.29 87.67 38.77 87.54 38.6 87.41 38.43"/><polygon points="90.92 29.95 100.02 28.75 100.14 28.92 100.27 29.09 91.18 30.29 91.05 30.12 90.92 29.95"/><polygon points="100.53 28.22 104.75 33.71 104.6 33.82 104.46 33.93 100.24 28.44 100.39 28.33 100.53 28.22"/><polygon points="99.66 28.89 103.88 34.38 103.73 34.49 103.58 34.6 99.37 29.11 99.51 29 99.66 28.89"/><g class="cls-1"><text class="cls-2" transform="translate(104.16 37.83)">O</text></g><polygon points="100.02 28.75 102.64 22.41 102.81 22.48 102.98 22.55 100.27 29.09 100.14 28.92 100.02 28.75"/><g class="cls-1"><text class="cls-2" transform="translate(102.19 21.56)">N</text><text class="cls-2" transform="translate(105.11 21.56)">H</text><text class="cls-5" transform="translate(108.03 22.18)">2</text></g><polygon points="71.87 33.08 67.17 25.43 67.33 25.33 67.49 25.24 72.18 32.88 72.13 33.15 71.87 33.08"/><polygon points="72.18 32.88 79.29 27.42 79.4 27.56 79.52 27.71 72.4 33.17 72.13 33.15 72.18 32.88"/><polygon points="35.22 36.4 33.12 27.67 33.27 27.52 33.42 27.38 35.56 36.28 35.42 36.45 35.22 36.4"/><polygon points="33.12 27.67 24.32 25.07 24.47 24.93 24.62 24.78 33.42 27.38 33.27 27.52 33.12 27.67"/><polygon points="24.32 25.07 22.17 16.15 22.32 16 22.48 15.86 24.62 24.78 24.47 24.93 24.32 25.07"/><polygon points="21.59 15.69 26.53 11 26.65 11.13 26.78 11.26 21.84 15.96 21.71 15.82 21.59 15.69"/><polygon points="22.34 16.49 27.29 11.8 27.41 11.93 27.54 12.06 22.6 16.76 22.47 16.62 22.34 16.49"/><g class="cls-1"><text class="cls-2" transform="translate(27.4 11.32)">O</text></g><polygon points="22.17 16.15 15.3 14.12 15.35 13.95 15.4 13.77 22.48 15.86 22.32 16 22.17 16.15"/><g class="cls-1"><text class="cls-2" transform="translate(7.79 14.52)">H</text><text class="cls-5" transform="translate(10.71 15.15)">2</text><text class="cls-2" transform="translate(12.1 14.52)">N</text></g><polygon points="29.41 43.7 22.3 49.16 22.19 49.02 22.07 48.87 29.19 43.4 29.46 43.42 29.41 43.7"/><polygon points="29.19 43.4 23.08 36.98 23.14 36.77 23.2 36.57 29.45 43.15 29.46 43.42 29.19 43.4"/><polygon points="23.08 36.98 14.16 39.12 14.22 38.92 14.28 38.72 23.2 36.57 23.14 36.77 23.08 36.98"/><polygon points="15.02 38.83 12.93 45.89 12.75 45.84 12.58 45.78 14.66 38.72 14.84 38.77 15.02 38.83"/><polygon points="13.96 38.51 11.87 45.58 11.7 45.52 11.52 45.47 13.61 38.41 13.79 38.46 13.96 38.51"/><g class="cls-1"><text class="cls-2" transform="translate(10.05 49.36)">O</text></g><polygon points="14.16 39.12 9.6 34.32 9.73 34.19 9.86 34.07 14.28 38.72 14.22 38.92 14.16 39.12"/><g class="cls-1"><text class="cls-2" transform="translate(2.17 33.39)">H</text><text class="cls-5" transform="translate(5.09 34.01)">2</text><text class="cls-2" transform="translate(6.48 33.39)">N</text></g><polygon points="33.42 60.59 24.48 61.78 24.45 61.59 24.43 61.41 33.38 60.23 33.55 60.39 33.42 60.59"/><polygon points="36.55 79.8 28.09 82.8 27.93 82.66 27.77 82.52 36.39 79.46 36.57 79.59 36.55 79.8"/><polygon points="28.09 82.8 26.42 91.82 26.26 91.68 26.1 91.55 27.77 82.52 27.93 82.66 28.09 82.8"/><polygon points="26.42 91.82 17.77 94.89 17.61 94.75 17.45 94.61 26.1 91.55 26.26 91.68 26.42 91.82"/><polygon points="17.38 95.52 12.1 91.01 12.22 90.87 12.34 90.73 17.62 95.24 17.5 95.38 17.38 95.52"/><polygon points="18.09 94.68 12.81 90.17 12.93 90.03 13.05 89.89 18.33 94.4 18.21 94.54 18.09 94.68"/><g class="cls-1"><text class="cls-2" transform="translate(9.06 90.44)">O</text></g><polygon points="17.77 94.89 16.5 101.77 16.32 101.73 16.14 101.7 17.45 94.61 17.61 94.75 17.77 94.89"/><g class="cls-1"><text class="cls-2" transform="translate(10.22 104.89)">H</text><text class="cls-5" transform="translate(13.14 105.51)">2</text><text class="cls-2" transform="translate(14.52 104.89)">N</text></g><polygon points="44.39 84.82 49.75 92.05 49.6 92.16 49.45 92.27 44.13 85.08 44.14 84.78 44.39 84.82"/><polygon points="44.13 85.08 38.39 91.8 38.18 91.77 37.98 91.73 43.87 84.82 44.14 84.78 44.13 85.08"/><polygon points="38.39 91.8 41.46 100.45 41.25 100.41 41.04 100.37 37.98 91.73 38.18 91.77 38.39 91.8"/><polygon points="41.07 99.63 48.47 101 48.43 101.18 48.4 101.36 41.01 99.99 41.04 99.81 41.07 99.63"/><polygon points="40.87 100.71 48.27 102.08 48.23 102.26 48.2 102.44 40.8 101.08 40.84 100.89 40.87 100.71"/><g class="cls-1"><text class="cls-2" transform="translate(48.7 103.72)">O</text></g><polygon points="41.46 100.45 37.18 105.47 37.04 105.35 36.9 105.23 41.04 100.37 41.25 100.41 41.46 100.45"/><g class="cls-1"><text class="cls-2" transform="translate(29.57 108.51)">H</text><text class="cls-5" transform="translate(32.49 109.13)">2</text><text class="cls-2" transform="translate(33.87 108.51)">N</text></g><polygon points="51.59 79.37 51.04 88.36 50.86 88.35 50.67 88.34 51.2 79.59 51.41 79.19 51.59 79.37"/><polygon points="68.33 84.23 68.57 93.2 68.39 93.31 68.21 93.42 67.97 84.24 68.15 84.14 68.33 84.23"/><polygon points="68.57 93.2 76.64 97.57 76.46 97.69 76.28 97.8 68.21 93.42 68.39 93.31 68.57 93.2"/><polygon points="75.8 97.22 81.95 93.45 82.05 93.61 82.15 93.76 76 97.54 75.9 97.38 75.8 97.22"/><polygon points="76.38 98.16 82.53 94.39 82.63 94.55 82.72 94.7 76.57 98.48 76.48 98.32 76.38 98.16"/><g class="cls-1"><text class="cls-2" transform="translate(82.71 94.52)">O</text></g><polygon points="76.64 97.57 76.83 104.81 76.65 104.81 76.47 104.82 76.28 97.8 76.46 97.69 76.64 97.57"/><g class="cls-1"><text class="cls-2" transform="translate(75.24 107.97)">N</text><text class="cls-2" transform="translate(78.17 107.97)">H</text><text class="cls-5" transform="translate(81.09 108.6)">2</text></g><polygon points="75.53 78.3 83.62 74.43 83.7 74.6 83.78 74.76 75.69 78.63 75.42 78.55 75.53 78.3"/><polygon points="153.71 83.39 158.03 87.93 157.9 88.06 157.76 88.18 153.45 83.64 153.52 83.45 153.71 83.39"/><g class="cls-1"><text class="cls-2" transform="translate(158.26 91.74)">O</text><text class="cls-2" transform="translate(161.41 91.74)">H</text></g><g class="cls-1"><text class="cls-2" transform="translate(66.58 123.92)">Co</text></g></svg>