<svg id="图层_1" data-name="图层 1" xmlns="http://www.w3.org/2000/svg" viewBox="0 0 200 130"><defs><style>.cls-1,.cls-2,.cls-3,.cls-5,.cls-6{isolation:isolate;}.cls-2,.cls-3{font-size:3.82px;}.cls-2,.cls-3,.cls-5,.cls-6{font-family:ArialMT, Arial;}.cls-3{letter-spacing:-0.02em;}.cls-4{fill:none;stroke:#000;stroke-miterlimit:3.93;stroke-width:0.93px;}.cls-5{font-size:2.35px;}.cls-6{font-size:1.76px;}</style></defs><polygon points="198.72 78.87 190.11 76.36 190.06 76.17 190.21 76.03 198.82 78.54 198.77 78.7 198.72 78.87"/><polygon points="188.67 75.86 186.91 68.59 187.09 68.56 187.27 68.52 189.03 75.78 188.85 75.82 188.67 75.86"/><polygon points="189.86 76.11 187.86 67.87 188.01 67.74 188.17 67.6 190.21 76.03 190.06 76.17 189.86 76.11"/><polygon points="187.86 67.87 179.35 65.4 179.3 65.2 179.43 65.06 188.17 67.6 188.01 67.74 187.86 67.87"/><polygon points="179.35 65.4 172.84 71.16 172.64 71.1 172.61 70.89 179.08 65.16 179.3 65.2 179.35 65.4"/><polygon points="178.1 65.08 172.6 69.95 172.47 69.83 172.35 69.7 177.85 64.83 177.98 64.96 178.1 65.08"/><polygon points="172.84 71.16 174.83 79.4 174.68 79.53 174.53 79.67 172.48 71.21 172.64 71.1 172.84 71.16"/><polygon points="175.66 78.55 183.16 80.73 183.11 80.9 183.06 81.06 175.55 78.88 175.6 78.72 175.66 78.55"/><polygon points="174.83 79.4 183.34 81.87 183.39 82.07 183.24 82.2 174.53 79.67 174.68 79.53 174.83 79.4"/><polygon points="183.59 82.13 185.61 90.46 185.44 90.5 185.26 90.54 183.24 82.2 183.39 82.07 183.59 82.13"/><polygon points="183.34 81.87 189.86 76.11 190.06 76.17 190.11 76.36 183.59 82.13 183.39 82.07 183.34 81.87"/><polygon points="172.48 71.21 166.4 68.01 166.49 67.86 166.57 67.71 172.61 70.89 172.64 71.1 172.48 71.21"/><g class="cls-1"><text class="cls-2" transform="translate(163.23 68.45) scale(1.05 1)">N</text></g><polygon points="164.89 64.94 166.26 58.25 166.41 58.41 166.57 58.56 165.24 65.01 165.06 64.98 164.89 64.94"/><polygon points="166.26 58.25 173.62 57.4 173.64 57.57 173.66 57.74 166.57 58.56 166.41 58.41 166.26 58.25"/><polygon points="167.31 59.18 173.75 58.43 173.78 58.6 173.8 58.77 167.36 59.52 167.34 59.35 167.31 59.18"/><g class="cls-1"><text class="cls-2" transform="translate(174.02 58.9) scale(1.05 1)">N</text></g><polygon points="176.57 59.21 179.43 65.06 179.3 65.2 179.08 65.16 176.24 59.36 176.4 59.28 176.57 59.21"/><polygon points="162.93 67.86 156.57 70.67 156.41 70.55 156.42 70.36 162.78 67.55 162.85 67.7 162.93 67.86"/><polygon points="156.57 70.67 154.86 78.99 154.67 79.05 154.51 78.89 156.21 70.64 156.41 70.55 156.57 70.67"/><polygon points="154.6 79.23 145.74 80.26 145.62 80.09 145.73 79.91 154.51 78.89 154.67 79.05 154.6 79.23"/><polygon points="145.42 80.09 141.65 72.4 141.78 72.25 142 72.29 145.73 79.91 145.62 80.09 145.42 80.09"/><polygon points="141.72 72.06 146.39 67.93 146.52 68.06 146.64 68.19 142 72.29 141.78 72.25 141.72 72.06"/><g class="cls-1"><text class="cls-2" transform="translate(146.89 67.9) scale(1.05 1)">O</text></g><polygon points="150.46 67.22 156.42 70.36 156.41 70.55 156.21 70.64 150.28 67.52 150.37 67.37 150.46 67.22"/><polygon points="141.65 72.4 132.7 70.75 132.84 70.59 132.97 70.44 141.72 72.06 141.78 72.25 141.65 72.4"/><polygon points="132.7 70.75 130.4 64.39 130.57 64.34 130.74 64.28 132.97 70.44 132.84 70.59 132.7 70.75"/><g class="cls-1"><text class="cls-2" transform="translate(125.42 63.96) scale(1.05 1)">H</text><text class="cls-2" transform="translate(128.32 63.96) scale(1.05 1)">O</text></g><polygon points="145.74 80.26 142.49 85.82 142.33 85.74 142.17 85.65 145.42 80.09 145.62 80.09 145.74 80.26"/><g class="cls-1"><text class="cls-2" transform="translate(139.65 89.21) scale(1.05 1)">O</text></g><polygon points="139.28 87.86 133.8 87.95 133.79 87.78 133.79 87.61 139.27 87.52 139.27 87.69 139.28 87.86"/><g class="cls-1"><text class="cls-3" transform="translate(130.76 89.35) scale(1.05 1)">P</text></g><polygon points="132.85 89.72 132.94 94.52 132.76 94.52 132.57 94.53 132.49 89.72 132.67 89.72 132.85 89.72"/><polygon points="131.76 89.74 131.85 94.54 131.66 94.54 131.48 94.55 131.4 89.74 131.58 89.74 131.76 89.74"/><g class="cls-1"><text class="cls-2" transform="translate(130.69 98) scale(1.05 1)">O</text></g><polygon points="131.88 85.89 131.79 81.08 131.97 81.08 132.15 81.08 132.24 85.88 132.06 85.88 131.88 85.89"/><g class="cls-1"><text class="cls-2" transform="translate(130.39 80.7) scale(1.05 1)">O</text></g><line class="cls-4" x1="133.33" y1="77.11" x2="134.85" y2="77.11"/><polygon points="130.39 88.01 124.91 88.09 124.91 87.92 124.91 87.75 130.38 87.66 130.39 87.83 130.39 88.01"/><g class="cls-1"><text class="cls-2" transform="translate(121.43 89.5) scale(1.05 1)">O</text></g><polygon points="122.02 89.96 118.77 95.51 118.56 95.52 118.45 95.35 121.7 89.79 121.86 89.88 122.02 89.96"/><polygon points="118.77 95.51 123.4 102.85 123.25 102.94 123.09 103.03 118.46 95.69 118.56 95.52 118.77 95.51"/><polygon points="118.46 95.69 109.35 95.84 109.45 95.66 109.55 95.49 118.45 95.35 118.56 95.52 118.46 95.69"/><polygon points="109.35 95.84 105.82 90.26 105.98 90.17 106.13 90.08 109.55 95.49 109.45 95.66 109.35 95.84"/><g class="cls-1"><text class="cls-2" transform="translate(103.32 86.63) scale(1.05 1)">H</text></g><g class="cls-1"><text class="cls-2" transform="translate(103.32 90.11) scale(1.05 1)">N</text></g><polygon points="102.95 88.44 95.55 88.56 95.65 88.39 95.75 88.21 102.94 88.1 102.95 88.27 102.95 88.44"/><polygon points="96.44 88.46 92.99 94.37 92.83 94.28 92.67 94.2 96.12 88.3 96.28 88.38 96.44 88.46"/><polygon points="95.49 87.96 92.04 93.86 91.88 93.78 91.72 93.69 95.17 87.79 95.33 87.88 95.49 87.96"/><g class="cls-1"><text class="cls-2" transform="translate(89.68 97.5) scale(1.05 1)">O</text></g><polygon points="95.55 88.56 90.86 81.14 90.97 80.97 91.07 80.8 95.75 88.21 95.65 88.39 95.55 88.56"/><polygon points="90.86 81.14 81.75 81.29 81.86 81.11 81.96 80.94 91.07 80.8 90.97 80.97 90.86 81.14"/><polygon points="81.75 81.29 77.11 73.95 77.17 73.7 77.43 73.77 81.96 80.94 81.86 81.11 81.75 81.29"/><polygon points="77.11 73.95 70.07 78.98 69.89 78.9 69.88 78.69 76.95 73.63 77.17 73.7 77.11 73.95"/><polygon points="69.71 78.99 62.37 74.11 62.43 73.93 62.64 73.86 69.88 78.69 69.89 78.9 69.71 78.99"/><polygon points="62.37 74.11 53.49 74.25 53.32 74.08 53.35 73.9 62.29 73.76 62.43 73.93 62.37 74.11"/><polygon points="53.11 74.44 46.29 79.32 46.04 79.28 46.03 79.07 52.96 74.12 53.32 74.08 53.11 74.44"/><polygon points="45.77 79.31 38.55 74.5 38.58 74.31 38.76 74.22 46.03 79.07 46.04 79.28 45.77 79.31"/><polygon points="38.4 74.19 38.54 64.39 38.72 64.36 38.9 64.79 38.76 74.22 38.58 74.31 38.4 74.19"/><polygon points="39.81 63.7 44.05 68.02 43.92 68.13 43.78 68.25 39.55 63.93 39.68 63.81 39.81 63.7"/><polygon points="38.88 64.27 43.25 68.72 43.12 68.84 42.98 68.96 38.9 64.79 38.72 64.36 38.88 64.27"/><g class="cls-1"><text class="cls-2" transform="translate(43.49 72.24) scale(1.05 1)">N</text></g><polygon points="46.82 71.27 53.35 73.9 53.32 74.08 52.96 74.12 46.68 71.58 46.75 71.42 46.82 71.27"/><polygon points="38.54 64.39 35.64 56.37 35.76 56.18 35.95 56.16 38.88 64.27 38.72 64.36 38.54 64.39"/><polygon points="35.59 56.02 36.38 47.6 36.56 47.56 36.74 47.61 35.95 56.16 35.76 56.18 35.59 56.02"/><polygon points="36.69 56.03 37.45 47.85 37.63 47.87 37.81 47.88 37.05 56.06 36.87 56.05 36.69 56.03"/><polygon points="36.38 47.6 31.82 40.39 31.87 40.14 32.1 40.16 36.56 47.21 36.56 47.56 36.38 47.6"/><polygon points="31.87 39.88 37.66 33.56 37.86 33.61 37.93 33.79 32.1 40.16 31.87 40.14 31.87 39.88"/><polygon points="38.01 33.45 48.25 34.61 48.26 34.79 47.79 34.91 37.93 33.79 37.86 33.61 38.01 33.45"/><polygon points="48.84 35.89 43.57 39.66 43.46 39.52 43.35 39.39 48.63 35.61 48.73 35.75 48.84 35.89"/><polygon points="48.34 34.95 42.91 38.83 42.8 38.7 42.69 38.56 47.79 34.91 48.26 34.79 48.34 34.95"/><g class="cls-1"><text class="cls-2" transform="translate(39.54 41.54) scale(1.05 1)">N</text></g><polygon points="40.02 42 36.74 47.61 36.56 47.56 36.56 47.21 39.7 41.83 39.86 41.92 40.02 42"/><polygon points="48.25 34.61 57.14 32.67 57.14 32.85 57.15 33.02 48.34 34.95 48.26 34.79 48.25 34.61"/><polygon points="57.14 32.67 66.06 34.32 66.08 34.5 66.01 34.67 57.15 33.02 57.14 32.85 57.14 32.67"/><polygon points="57.2 33.74 65.68 35.31 65.65 35.48 65.61 35.65 57.13 34.08 57.16 33.91 57.2 33.74"/><polygon points="66.06 34.32 74.08 30.78 74.34 30.85 74.3 31.06 66.45 34.53 66.08 34.5 66.06 34.32"/><polygon points="74.62 30.87 80.62 37 80.55 37.18 80.36 37.23 74.3 31.06 74.34 30.85 74.62 30.87"/><polygon points="80.7 37.34 78.42 46.9 78.23 46.89 78.16 46.43 80.36 37.23 80.55 37.18 80.7 37.34"/><polygon points="77.02 47.32 73.67 42.02 73.82 41.93 73.98 41.84 77.33 47.15 77.18 47.23 77.02 47.32"/><polygon points="78.06 46.95 74.61 41.48 74.76 41.4 74.92 41.31 78.16 46.43 78.23 46.89 78.06 46.95"/><g class="cls-1"><text class="cls-2" transform="translate(72.1 41.02) scale(1.05 1)">N</text></g><polygon points="71.63 38.4 66.01 34.67 66.08 34.5 66.45 34.53 71.83 38.12 71.73 38.26 71.63 38.4"/><polygon points="78.42 46.9 79.5 55.32 79.34 55.48 79.15 55.45 78.06 46.95 78.23 46.89 78.42 46.9"/><polygon points="79.45 55.66 74.4 65.52 74.21 65.51 74.09 65.34 79.15 55.45 79.34 55.48 79.45 55.66"/><polygon points="78.38 55.38 73.68 64.56 73.52 64.48 73.35 64.41 78.05 55.23 78.21 55.3 78.38 55.38"/><polygon points="74.08 65.69 66.91 65.8 66.91 65.63 66.91 65.46 74.09 65.34 74.21 65.51 74.08 65.69"/><g class="cls-1"><text class="cls-2" transform="translate(63.66 67.2) scale(1.05 1)">N</text></g><polygon points="64.65 67.63 62.64 73.86 62.43 73.93 62.29 73.76 64.3 67.53 64.47 67.58 64.65 67.63"/><line class="cls-4" x1="66.43" y1="63.67" x2="67.95" y2="63.67"/><polygon points="74.4 65.52 77.27 73.46 77.17 73.7 76.95 73.63 74.08 65.69 74.21 65.51 74.4 65.52"/><polygon points="79.5 55.32 88.43 56.07 88.41 56.24 88.4 56.41 79.45 55.66 79.34 55.48 79.5 55.32"/><polygon points="80.62 37 89.47 35.97 89.6 36.13 89.72 36.29 80.7 37.34 80.55 37.18 80.62 37"/><polygon points="89.47 35.97 93.04 28.01 93.16 28.17 93.29 28.33 89.72 36.29 89.6 36.13 89.47 35.97"/><polygon points="93.04 28.01 102.08 26.96 102.21 27.12 102.33 27.28 93.29 28.33 93.16 28.17 93.04 28.01"/><polygon points="102.6 26.47 106.74 31.7 106.6 31.8 106.45 31.9 102.31 26.67 102.45 26.57 102.6 26.47"/><polygon points="101.73 27.09 105.87 32.32 105.72 32.42 105.58 32.53 101.44 27.3 101.58 27.2 101.73 27.09"/><g class="cls-1"><text class="cls-2" transform="translate(106.13 35.58) scale(1.05 1)">O</text></g><polygon points="102.08 26.96 104.74 21.02 104.91 21.08 105.08 21.15 102.33 27.28 102.21 27.12 102.08 26.96"/><g class="cls-1"><text class="cls-2" transform="translate(104.33 20.21) scale(1.05 1)">N</text><text class="cls-2" transform="translate(107.23 20.21) scale(1.05 1)">H</text><text class="cls-5" transform="translate(110.13 20.8) scale(1.05 1)">2</text></g><polygon points="74.08 30.78 69.5 23.52 69.66 23.43 69.81 23.34 74.4 30.6 74.34 30.85 74.08 30.78"/><polygon points="74.4 30.6 81.52 25.51 81.62 25.65 81.73 25.79 74.62 30.87 74.34 30.85 74.4 30.6"/><polygon points="37.66 33.56 35.66 25.32 35.81 25.18 35.97 25.04 38.01 33.45 37.86 33.61 37.66 33.56"/><polygon points="35.66 25.32 26.95 22.78 27.1 22.64 27.25 22.51 35.97 25.04 35.81 25.18 35.66 25.32"/><polygon points="26.95 22.78 24.9 14.35 25.06 14.21 25.21 14.07 27.25 22.51 27.1 22.64 26.95 22.78"/><polygon points="24.33 13.91 29.3 9.51 29.42 9.64 29.55 9.77 24.58 14.16 24.45 14.04 24.33 13.91"/><polygon points="25.07 14.67 30.04 10.27 30.17 10.4 30.29 10.53 25.32 14.92 25.2 14.8 25.07 14.67"/><g class="cls-1"><text class="cls-2" transform="translate(30.17 9.86) scale(1.05 1)">O</text></g><polygon points="24.9 14.35 18.11 12.37 18.16 12.21 18.21 12.04 25.21 14.07 25.06 14.21 24.9 14.35"/><g class="cls-1"><text class="cls-2" transform="translate(10.66 12.73) scale(1.05 1)">H</text><text class="cls-5" transform="translate(13.56 13.32) scale(1.05 1)">2</text><text class="cls-2" transform="translate(14.94 12.73) scale(1.05 1)">N</text></g><polygon points="31.82 40.39 24.7 45.48 24.59 45.34 24.48 45.2 31.6 40.12 31.87 40.14 31.82 40.39"/><polygon points="31.6 40.12 25.6 34 25.66 33.81 25.73 33.62 31.87 39.88 31.87 40.14 31.6 40.12"/><polygon points="25.6 34 16.72 35.94 16.79 35.75 16.85 35.56 25.73 33.62 25.66 33.81 25.6 34"/><polygon points="17.57 35.66 15.43 42.3 15.26 42.25 15.09 42.2 17.23 35.56 17.4 35.61 17.57 35.66"/><polygon points="16.53 35.36 14.39 41.99 14.21 41.94 14.04 41.89 16.18 35.26 16.36 35.31 16.53 35.36"/><g class="cls-1"><text class="cls-2" transform="translate(12.56 45.56) scale(1.05 1)">O</text></g><polygon points="16.72 35.94 12.26 31.38 12.39 31.27 12.52 31.15 16.85 35.56 16.79 35.75 16.72 35.94"/><g class="cls-1"><text class="cls-2" transform="translate(4.89 30.47) scale(1.05 1)">H</text><text class="cls-5" transform="translate(7.8 31.06) scale(1.05 1)">2</text><text class="cls-2" transform="translate(9.17 30.47) scale(1.05 1)">N</text></g><polygon points="35.64 56.37 26.74 57.4 26.72 57.23 26.7 57.05 35.59 56.02 35.76 56.18 35.64 56.37"/><polygon points="38.55 74.5 30.12 77.26 29.96 77.13 29.8 76.99 38.4 74.19 38.58 74.31 38.55 74.5"/><polygon points="30.12 77.26 28.38 85.75 28.22 85.62 28.06 85.49 29.8 76.99 29.96 77.13 30.12 77.26"/><polygon points="28.38 85.75 19.76 88.56 19.6 88.43 19.44 88.3 28.06 85.49 28.22 85.62 28.38 85.75"/><polygon points="19.36 89.15 14.18 84.86 14.3 84.73 14.42 84.6 19.6 88.89 19.48 89.02 19.36 89.15"/><polygon points="20.08 88.36 14.89 84.08 15.01 83.95 15.13 83.82 20.32 88.1 20.2 88.23 20.08 88.36"/><g class="cls-1"><text class="cls-2" transform="translate(11.18 84.29) scale(1.05 1)">O</text></g><polygon points="19.76 88.56 18.43 95.03 18.25 95 18.07 94.97 19.44 88.3 19.6 88.43 19.76 88.56"/><g class="cls-1"><text class="cls-2" transform="translate(12.17 97.98) scale(1.05 1)">H</text><text class="cls-5" transform="translate(15.08 98.56) scale(1.05 1)">2</text><text class="cls-2" transform="translate(16.45 97.98) scale(1.05 1)">N</text></g><polygon points="46.29 79.32 51.54 86.18 51.39 86.28 51.24 86.39 46.02 79.56 46.04 79.28 46.29 79.32"/><polygon points="46.02 79.56 40.26 85.84 40.06 85.81 39.85 85.77 45.77 79.31 46.04 79.28 46.02 79.56"/><polygon points="40.26 85.84 43.22 94.03 43.02 93.99 42.81 93.95 39.85 85.77 40.06 85.81 40.26 85.84"/><polygon points="42.85 93.25 50.17 94.61 50.14 94.78 50.1 94.95 42.78 93.59 42.81 93.42 42.85 93.25"/><polygon points="42.64 94.27 49.96 95.63 49.93 95.8 49.89 95.97 42.57 94.61 42.6 94.44 42.64 94.27"/><g class="cls-1"><text class="cls-2" transform="translate(50.41 97.19) scale(1.05 1)">O</text></g><polygon points="43.22 94.03 38.94 98.71 38.8 98.59 38.66 98.48 42.81 93.95 43.02 93.99 43.22 94.03"/><g class="cls-1"><text class="cls-2" transform="translate(31.35 101.57) scale(1.05 1)">H</text><text class="cls-5" transform="translate(34.25 102.16) scale(1.05 1)">2</text><text class="cls-2" transform="translate(35.63 101.57) scale(1.05 1)">N</text></g><polygon points="53.49 74.25 52.86 82.72 52.68 82.71 52.49 82.7 53.11 74.44 53.32 74.08 53.49 74.25"/><polygon points="70.07 78.98 70.22 87.45 70.04 87.55 69.86 87.65 69.71 78.99 69.89 78.9 70.07 78.98"/><polygon points="70.22 87.45 78.19 91.65 78.01 91.75 77.83 91.85 69.86 87.65 70.04 87.55 70.22 87.45"/><polygon points="77.36 91.31 83.52 87.8 83.61 87.95 83.7 88.1 77.55 91.61 77.45 91.46 77.36 91.31"/><polygon points="77.92 92.2 84.08 88.69 84.17 88.84 84.27 88.99 78.11 92.5 78.02 92.35 77.92 92.2"/><g class="cls-1"><text class="cls-2" transform="translate(84.27 88.84) scale(1.05 1)">O</text></g><polygon points="78.19 91.65 78.31 98.47 78.13 98.48 77.94 98.48 77.83 91.85 78.01 91.75 78.19 91.65"/><g class="cls-1"><text class="cls-2" transform="translate(76.72 101.45) scale(1.05 1)">N</text><text class="cls-2" transform="translate(79.62 101.45) scale(1.05 1)">H</text><text class="cls-5" transform="translate(82.52 102.04) scale(1.05 1)">2</text></g><polygon points="77.27 73.46 85.35 69.89 85.43 70.04 85.5 70.2 77.43 73.77 77.17 73.7 77.27 73.46"/><polygon points="154.86 78.99 159.12 83.33 158.99 83.45 158.86 83.57 154.6 79.23 154.67 79.05 154.86 78.99"/><g class="cls-1"><text class="cls-2" transform="translate(159.32 86.92) scale(1.05 1)">O</text><text class="cls-2" transform="translate(162.45 86.92) scale(1.05 1)">H</text></g><polygon points="70.55 116.09 63.25 116.2 63.25 116.03 63.25 115.86 70.54 115.74 70.54 115.91 70.55 116.09"/><polygon points="70.53 115.05 63.23 115.17 63.23 114.99 63.23 114.82 70.52 114.7 70.53 114.88 70.53 115.05"/><polygon points="70.51 114.01 63.22 114.13 63.21 113.95 63.21 113.78 70.5 113.66 70.51 113.84 70.51 114.01"/><g class="cls-1"><text class="cls-2" transform="translate(59.98 116.57) scale(1.05 1)">N</text></g><line class="cls-4" x1="71.54" y1="113.19" x2="73.06" y2="113.19"/><g class="cls-1"><text class="cls-2" transform="translate(68.16 127.51) scale(1.05 1)">Co</text></g><line class="cls-4" x1="73.82" y1="123.03" x2="75.34" y2="123.03"/><line class="cls-4" x1="74.58" y1="122.31" x2="74.58" y2="123.75"/><g class="cls-1"><text class="cls-6" transform="translate(72.3 123.24) scale(1.05 1)">3</text></g></svg>