<svg id="图层_1" data-name="图层 1" xmlns="http://www.w3.org/2000/svg" viewBox="0 0 200 130"><defs><style>.cls-1,.cls-2,.cls-3,.cls-5,.cls-6{isolation:isolate;}.cls-2,.cls-5{font-size:3.81px;}.cls-2,.cls-3,.cls-5,.cls-6{font-family:ArialMT, Arial;}.cls-3{font-size:2.34px;}.cls-4{fill:none;stroke:#000;stroke-miterlimit:3.93;stroke-width:0.93px;}.cls-5{letter-spacing:-0.02em;}.cls-6{font-size:1.76px;}</style></defs><g class="cls-1"><text class="cls-2" transform="translate(67.29 114.9)">C</text><text class="cls-2" transform="translate(70.04 114.9)">H</text><text class="cls-3" transform="translate(72.79 115.49)">3</text></g><line class="cls-4" x1="69.93" y1="111.86" x2="71.37" y2="111.86"/><polygon points="190.3 78.36 182.15 75.83 182.1 75.64 182.25 75.5 190.4 78.03 190.35 78.2 190.3 78.36"/><polygon points="180.79 75.32 179.15 68.06 179.32 68.03 179.48 67.99 181.13 75.24 180.96 75.28 180.79 75.32"/><polygon points="181.91 75.58 180.05 67.35 180.19 67.21 180.34 67.08 182.25 75.5 182.1 75.64 181.91 75.58"/><polygon points="180.05 67.35 171.99 64.85 171.95 64.65 172.07 64.51 180.34 67.08 180.19 67.21 180.05 67.35"/><polygon points="171.99 64.85 165.8 70.58 165.61 70.52 165.58 70.31 171.74 64.61 171.95 64.65 171.99 64.85"/><polygon points="170.81 64.53 165.57 69.37 165.46 69.25 165.34 69.12 170.57 64.28 170.69 64.41 170.81 64.53"/><polygon points="165.8 70.58 167.66 78.8 167.51 78.94 167.37 79.08 165.46 70.63 165.61 70.52 165.8 70.58"/><polygon points="168.44 77.96 175.55 80.17 175.5 80.33 175.44 80.5 168.34 78.29 168.39 78.13 168.44 77.96"/><polygon points="167.66 78.8 175.72 81.31 175.76 81.5 175.61 81.64 167.37 79.08 167.51 78.94 167.66 78.8"/><polygon points="175.95 81.56 177.84 89.88 177.67 89.92 177.5 89.96 175.61 81.64 175.76 81.5 175.95 81.56"/><polygon points="175.72 81.31 181.91 75.58 182.1 75.64 182.15 75.83 175.95 81.56 175.76 81.5 175.72 81.31"/><polygon points="165.46 70.63 159.71 67.41 159.79 67.26 159.88 67.11 165.58 70.31 165.61 70.52 165.46 70.63"/><g class="cls-1"><text class="cls-2" transform="translate(156.7 67.84)">N</text></g><polygon points="158.28 64.34 159.61 57.67 159.75 57.83 159.9 57.98 158.62 64.41 158.45 64.38 158.28 64.34"/><polygon points="159.61 57.67 166.59 56.84 166.61 57.02 166.63 57.19 159.9 57.98 159.75 57.83 159.61 57.67"/><polygon points="160.6 58.6 166.71 57.87 166.73 58.05 166.75 58.22 160.65 58.94 160.63 58.77 160.6 58.6"/><g class="cls-1"><text class="cls-2" transform="translate(166.96 58.35)">N</text></g><polygon points="169.37 58.66 172.07 64.51 171.95 64.65 171.74 64.61 169.06 58.8 169.22 58.73 169.37 58.66"/><polygon points="156.42 67.25 150.38 70.03 150.23 69.91 150.24 69.72 156.28 66.93 156.35 67.09 156.42 67.25"/><polygon points="150.38 70.03 148.73 78.33 148.55 78.38 148.4 78.23 150.04 70 150.23 69.91 150.38 70.03"/><polygon points="148.48 78.57 140.08 79.56 139.97 79.4 140.07 79.21 148.4 78.23 148.55 78.38 148.48 78.57"/><polygon points="139.78 79.39 136.23 71.71 136.35 71.56 136.56 71.6 140.07 79.21 139.97 79.4 139.78 79.39"/><polygon points="136.3 71.37 140.75 67.26 140.87 67.39 140.99 67.51 136.56 71.6 136.35 71.56 136.3 71.37"/><g class="cls-1"><text class="cls-2" transform="translate(141.21 67.24)">O</text></g><polygon points="144.61 66.57 150.24 69.72 150.23 69.91 150.04 70 144.44 66.87 144.52 66.72 144.61 66.57"/><polygon points="136.23 71.71 127.75 70.02 127.88 69.87 128.02 69.72 136.3 71.37 136.35 71.56 136.23 71.71"/><polygon points="127.75 70.02 125.6 63.67 125.76 63.62 125.92 63.56 128.02 69.72 127.88 69.87 127.75 70.02"/><g class="cls-1"><text class="cls-2" transform="translate(120.88 63.24)">H</text><text class="cls-2" transform="translate(123.63 63.24)">O</text></g><polygon points="140.08 79.56 136.98 85.1 136.83 85.01 136.68 84.93 139.78 79.39 139.97 79.4 140.08 79.56"/><g class="cls-1"><text class="cls-2" transform="translate(134.27 88.48)">O</text></g><polygon points="133.93 87.13 128.73 87.2 128.73 87.03 128.73 86.86 133.92 86.79 133.93 86.96 133.93 87.13"/><g class="cls-1"><text class="cls-5" transform="translate(125.85 88.59)">P</text></g><polygon points="127.83 88.96 127.9 93.75 127.72 93.76 127.55 93.76 127.49 88.97 127.66 88.96 127.83 88.96"/><polygon points="126.8 88.97 126.86 93.77 126.69 93.77 126.51 93.77 126.45 88.98 126.62 88.98 126.8 88.97"/><g class="cls-1"><text class="cls-2" transform="translate(125.75 97.23)">O</text></g><polygon points="126.92 85.13 126.86 80.34 127.03 80.33 127.2 80.33 127.26 85.13 127.09 85.13 126.92 85.13"/><g class="cls-1"><text class="cls-2" transform="translate(125.52 79.96)">O</text><text class="cls-2" transform="translate(128.48 79.96)">H</text></g><polygon points="125.5 87.24 120.31 87.31 120.31 87.14 120.31 86.97 125.5 86.9 125.5 87.07 125.5 87.24"/><g class="cls-1"><text class="cls-2" transform="translate(117 88.71)">O</text></g><polygon points="117.56 89.17 114.46 94.69 114.26 94.7 114.16 94.53 117.26 89 117.41 89.08 117.56 89.17"/><polygon points="114.46 94.69 118.83 102.03 118.68 102.12 118.53 102.21 114.17 94.87 114.26 94.7 114.46 94.69"/><polygon points="114.17 94.87 105.53 94.99 105.63 94.81 105.73 94.64 114.16 94.53 114.26 94.7 114.17 94.87"/><polygon points="105.53 94.99 102.21 89.4 102.36 89.31 102.5 89.22 105.73 94.64 105.63 94.81 105.53 94.99"/><g class="cls-1"><text class="cls-2" transform="translate(99.84 85.78)">H</text></g><g class="cls-1"><text class="cls-2" transform="translate(99.84 89.26)">N</text></g><polygon points="99.49 87.59 92.48 87.68 92.58 87.5 92.67 87.33 99.49 87.24 99.49 87.41 99.49 87.59"/><polygon points="93.33 87.58 90.04 93.46 89.89 93.37 89.73 93.29 93.03 87.41 93.17 87.5 93.33 87.58"/><polygon points="92.42 87.08 89.13 92.95 88.98 92.87 88.83 92.78 92.12 86.91 92.27 86.99 92.42 87.08"/><g class="cls-1"><text class="cls-2" transform="translate(86.88 96.58)">O</text></g><polygon points="92.48 87.68 88.06 80.26 88.16 80.08 88.26 79.91 92.67 87.33 92.58 87.5 92.48 87.68"/><polygon points="88.06 80.26 79.43 80.37 79.53 80.2 79.62 80.02 88.26 79.91 88.16 80.08 88.06 80.26"/><polygon points="79.43 80.37 75.06 73.03 75.11 72.78 75.36 72.85 79.62 80.02 79.53 80.2 79.43 80.37"/><polygon points="75.06 73.03 68.36 78.03 68.19 77.94 68.19 77.73 74.91 72.71 75.11 72.78 75.06 73.03"/><polygon points="68.02 78.03 61.09 73.14 61.14 72.96 61.34 72.89 68.19 77.73 68.19 77.94 68.02 78.03"/><polygon points="61.09 73.14 52.66 73.25 52.5 73.08 52.54 72.9 61.01 72.79 61.14 72.96 61.09 73.14"/><polygon points="52.3 73.44 45.83 78.28 45.59 78.24 45.58 78.03 52.16 73.12 52.5 73.08 52.3 73.44"/><polygon points="45.33 78.27 38.51 73.45 38.53 73.26 38.71 73.17 45.58 78.03 45.59 78.24 45.33 78.27"/><polygon points="38.36 73.14 38.53 63.35 38.71 63.33 38.87 63.76 38.71 73.17 38.53 73.26 38.36 73.14"/><polygon points="38.53 63.35 35.81 55.34 35.93 55.15 36.11 55.13 38.86 63.24 38.71 63.33 38.53 63.35"/><polygon points="39.45 62.84 36.82 55.08 36.98 55.02 37.15 54.97 39.78 62.73 39.62 62.78 39.45 62.84"/><polygon points="35.77 54.99 36.55 46.56 36.72 46.55 36.89 46.6 36.11 55.13 35.93 55.15 35.77 54.99"/><polygon points="36.78 46.09 39.71 40.85 39.86 40.94 40.01 41.02 36.89 46.6 36.72 46.55 36.78 46.09"/><polygon points="37.58 46.78 40.62 41.36 40.77 41.44 40.92 41.53 37.88 46.95 37.73 46.86 37.58 46.78"/><g class="cls-1"><text class="cls-2" transform="translate(39.56 40.56)">N</text></g><polygon points="42.55 37.59 47.51 33.89 47.86 33.85 47.93 34.01 42.76 37.87 42.66 37.73 42.55 37.59"/><polygon points="47.87 33.67 56.28 31.76 56.28 31.94 56.28 32.12 47.93 34.01 47.86 33.85 47.87 33.67"/><polygon points="48.26 34.64 56.26 32.83 56.29 33 56.33 33.17 48.34 34.98 48.3 34.81 48.26 34.64"/><polygon points="56.28 31.76 64.75 33.45 64.75 33.62 64.68 33.79 56.28 32.12 56.28 31.94 56.28 31.76"/><polygon points="65.2 33.73 70.18 37.25 70.08 37.39 69.98 37.53 64.68 33.79 64.75 33.62 65.2 33.73"/><polygon points="64.43 34.46 69.58 38.1 69.48 38.24 69.38 38.38 64.23 34.74 64.33 34.6 64.43 34.46"/><g class="cls-1"><text class="cls-2" transform="translate(70.43 40.15)">N</text></g><polygon points="73.09 40.44 76.21 45.68 76.22 46.03 76.05 46.09 72.8 40.62 72.94 40.53 73.09 40.44"/><polygon points="76.4 46.06 77.39 54.45 77.23 54.6 77.06 54.57 76.05 46.09 76.22 46.03 76.4 46.06"/><polygon points="75.39 46.35 76.34 54.4 76.17 54.42 76 54.44 75.04 46.39 75.22 46.37 75.39 46.35"/><polygon points="77.34 54.79 72.52 64.61 72.33 64.6 72.22 64.43 77.06 54.57 77.23 54.6 77.34 54.79"/><polygon points="71.6 65.82 65.44 65.9 65.43 65.73 65.43 65.55 71.59 65.47 71.59 65.65 71.6 65.82"/><polygon points="72.21 64.77 65.42 64.86 65.42 64.69 65.42 64.52 72.22 64.43 72.33 64.6 72.21 64.77"/><g class="cls-1"><text class="cls-2" transform="translate(62.32 66.26)">N</text></g><polygon points="63.27 66.69 61.34 72.89 61.14 72.96 61.01 72.79 62.94 66.58 63.1 66.63 63.27 66.69"/><polygon points="72.52 64.61 75.21 72.54 75.11 72.78 74.91 72.71 72.21 64.77 72.33 64.6 72.52 64.61"/><polygon points="77.39 54.45 85.85 55.22 85.83 55.39 85.82 55.57 77.34 54.79 77.23 54.6 77.39 54.45"/><polygon points="76.21 45.68 80.22 38.52 80.44 38.49 80.54 38.66 76.4 46.06 76.22 46.03 76.21 45.68"/><polygon points="80.22 38.52 74.51 32.34 74.57 32.15 74.83 32.18 80.5 38.31 80.44 38.49 80.22 38.52"/><polygon points="74.63 31.9 81.39 26.85 81.49 26.98 81.6 27.12 74.83 32.18 74.57 32.15 74.63 31.9"/><polygon points="74.29 32.02 70.01 24.82 70.16 24.73 70.31 24.64 74.63 31.9 74.57 32.15 74.29 32.02"/><polygon points="74.51 32.34 65.2 33.73 64.75 33.62 64.75 33.45 74.29 32.02 74.57 32.15 74.51 32.34"/><polygon points="80.5 38.31 88.89 37.32 89.01 37.48 89.13 37.64 80.54 38.66 80.44 38.49 80.5 38.31"/><polygon points="88.89 37.32 92.3 29.38 92.42 29.54 92.54 29.7 89.13 37.64 89.01 37.48 88.89 37.32"/><polygon points="92.3 29.38 100.88 28.37 101 28.53 101.11 28.69 92.54 29.7 92.42 29.54 92.3 29.38"/><polygon points="101.37 27.87 105.28 33.11 105.14 33.22 105.01 33.32 101.09 28.08 101.23 27.98 101.37 27.87"/><polygon points="100.54 28.49 104.45 33.73 104.31 33.84 104.17 33.94 100.26 28.7 100.4 28.6 100.54 28.49"/><g class="cls-1"><text class="cls-2" transform="translate(104.68 36.99)">O</text></g><polygon points="100.88 28.37 103.42 22.45 103.58 22.51 103.74 22.58 101.11 28.69 101 28.53 100.88 28.37"/><g class="cls-1"><text class="cls-2" transform="translate(103.03 21.64)">N</text><text class="cls-2" transform="translate(105.78 21.64)">H</text><text class="cls-3" transform="translate(108.53 22.23)">2</text></g><polygon points="47.51 33.89 39.97 30.65 39.92 30.44 40.07 30.32 47.87 33.67 47.86 33.85 47.51 33.89"/><polygon points="39.97 30.65 34.42 36.98 34.23 36.93 34.23 36.67 39.73 30.39 39.92 30.44 39.97 30.65"/><polygon points="33.97 36.91 28.24 30.71 28.37 30.59 28.49 30.48 34.23 36.67 34.23 36.93 33.97 36.91"/><polygon points="34.13 37.23 27.33 42.3 27.31 42.1 27.29 41.9 33.97 36.91 34.23 36.93 34.13 37.23"/><polygon points="27.33 42.3 19.4 38.89 19.38 38.69 19.35 38.49 27.29 41.9 27.31 42.1 27.33 42.3"/><polygon points="18.73 39.07 17.9 32.12 18.07 32.1 18.24 32.08 19.07 39.03 18.9 39.05 18.73 39.07"/><polygon points="19.75 38.95 18.93 32 19.1 31.98 19.27 31.96 20.1 38.91 19.93 38.93 19.75 38.95"/><g class="cls-1"><text class="cls-2" transform="translate(16.88 31.66)">O</text></g><polygon points="19.4 38.89 14.28 42.71 14.18 42.58 14.07 42.44 19.35 38.49 19.38 38.69 19.4 38.89"/><g class="cls-1"><text class="cls-2" transform="translate(7.06 44.91)">H</text><text class="cls-3" transform="translate(9.81 45.5)">2</text><text class="cls-2" transform="translate(11.12 44.91)">N</text></g><polygon points="34.42 36.98 36.78 46.09 36.72 46.55 36.55 46.56 34.13 37.23 34.23 36.93 34.42 36.98"/><polygon points="39.73 30.39 37.87 22.15 38.02 22.02 38.16 21.88 40.07 30.32 39.92 30.44 39.73 30.39"/><polygon points="37.87 22.15 29.62 19.59 29.77 19.46 29.91 19.32 38.16 21.88 38.02 22.02 37.87 22.15"/><polygon points="29.62 19.59 27.71 11.17 27.86 11.03 28.01 10.9 29.91 19.32 29.77 19.46 29.62 19.59"/><polygon points="27.17 10.73 31.91 6.35 32.02 6.48 32.14 6.61 27.41 10.98 27.29 10.86 27.17 10.73"/><polygon points="27.88 11.49 32.61 7.11 32.73 7.24 32.84 7.37 28.11 11.74 27.99 11.62 27.88 11.49"/><g class="cls-1"><text class="cls-2" transform="translate(32.72 6.71)">O</text></g><polygon points="27.71 11.17 21.28 9.17 21.33 9.01 21.39 8.84 28.01 10.9 27.86 11.03 27.71 11.17"/><g class="cls-1"><text class="cls-2" transform="translate(14.22 9.53)">H</text><text class="cls-3" transform="translate(16.97 10.11)">2</text><text class="cls-2" transform="translate(18.27 9.53)">N</text></g><polygon points="35.81 55.34 27.38 56.34 27.36 56.16 27.33 55.99 35.77 54.99 35.93 55.15 35.81 55.34"/><polygon points="38.86 63.24 42.98 67.69 42.85 67.81 42.72 67.92 38.87 63.76 38.71 63.33 38.86 63.24"/><g class="cls-1"><text class="cls-2" transform="translate(43.19 71.21)">N</text></g><polygon points="46.36 70.25 52.54 72.9 52.5 73.08 52.16 73.12 46.22 70.56 46.29 70.41 46.36 70.25"/><line class="cls-4" x1="45.84" y1="67.68" x2="47.28" y2="67.68"/><polygon points="38.51 73.45 30.5 76.17 30.36 76.04 30.21 75.9 38.36 73.14 38.53 73.26 38.51 73.45"/><polygon points="30.5 76.17 28.82 84.64 28.67 84.51 28.52 84.37 30.21 75.9 30.36 76.04 30.5 76.17"/><polygon points="28.82 84.64 20.64 87.41 20.5 87.28 20.34 87.15 28.52 84.37 28.67 84.51 28.82 84.64"/><polygon points="20.26 88 15.37 83.71 15.49 83.58 15.6 83.45 20.49 87.74 20.38 87.87 20.26 88"/><polygon points="20.95 87.22 16.06 82.93 16.17 82.8 16.28 82.67 21.18 86.96 21.06 87.09 20.95 87.22"/><g class="cls-1"><text class="cls-2" transform="translate(12.52 83.13)">O</text></g><polygon points="20.64 87.41 19.36 93.86 19.19 93.83 19.02 93.8 20.34 87.15 20.5 87.28 20.64 87.41"/><g class="cls-1"><text class="cls-2" transform="translate(13.42 96.8)">H</text><text class="cls-3" transform="translate(16.17 97.39)">2</text><text class="cls-2" transform="translate(17.47 96.8)">N</text></g><polygon points="45.83 78.28 50.77 85.15 50.63 85.25 50.49 85.35 45.57 78.52 45.59 78.24 45.83 78.28"/><polygon points="45.57 78.52 40.09 84.78 39.89 84.74 39.7 84.7 45.33 78.27 45.59 78.24 45.57 78.52"/><polygon points="40.09 84.78 42.86 92.95 42.67 92.91 42.47 92.87 39.7 84.7 39.89 84.74 40.09 84.78"/><polygon points="42.51 92.18 49.45 93.56 49.41 93.72 49.38 93.89 42.44 92.52 42.48 92.35 42.51 92.18"/><polygon points="42.31 93.19 49.24 94.57 49.21 94.74 49.18 94.91 42.24 93.53 42.27 93.36 42.31 93.19"/><g class="cls-1"><text class="cls-2" transform="translate(49.66 96.14)">O</text></g><polygon points="42.86 92.95 38.79 97.6 38.66 97.48 38.53 97.37 42.47 92.87 42.67 92.91 42.86 92.95"/><g class="cls-1"><text class="cls-2" transform="translate(31.58 100.46)">H</text><text class="cls-3" transform="translate(34.33 101.04)">2</text><text class="cls-2" transform="translate(35.63 100.46)">N</text></g><polygon points="52.66 73.25 52.04 81.7 51.87 81.69 51.69 81.67 52.3 73.44 52.5 73.08 52.66 73.25"/><polygon points="68.36 78.03 68.48 86.48 68.31 86.58 68.13 86.68 68.02 78.03 68.19 77.94 68.36 78.03"/><polygon points="68.48 86.48 76.01 90.7 75.84 90.8 75.67 90.9 68.13 86.68 68.31 86.58 68.48 86.48"/><polygon points="75.23 90.36 81.08 86.88 81.17 87.02 81.26 87.17 75.41 90.65 75.32 90.51 75.23 90.36"/><polygon points="75.76 91.25 81.61 87.77 81.7 87.91 81.79 88.06 75.94 91.54 75.85 91.4 75.76 91.25"/><g class="cls-1"><text class="cls-2" transform="translate(81.78 87.92)">O</text></g><polygon points="76.01 90.7 76.1 97.51 75.93 97.51 75.76 97.51 75.67 90.9 75.84 90.8 76.01 90.7"/><g class="cls-1"><text class="cls-2" transform="translate(74.58 100.49)">N</text><text class="cls-2" transform="translate(77.33 100.49)">H</text><text class="cls-3" transform="translate(80.08 101.07)">2</text></g><polygon points="75.21 72.54 82.88 69 82.95 69.16 83.03 69.32 75.36 72.85 75.11 72.78 75.21 72.54"/><polygon points="148.73 78.33 152.76 82.69 152.63 82.8 152.51 82.92 148.48 78.57 148.55 78.38 148.73 78.33"/><g class="cls-1"><text class="cls-2" transform="translate(152.93 86.27)">O</text><text class="cls-2" transform="translate(155.89 86.27)">H</text></g><g class="cls-1"><text class="cls-2" transform="translate(66.38 126.46)">Co</text></g><line class="cls-4" x1="71.75" y1="121.99" x2="73.19" y2="121.99"/><line class="cls-4" x1="72.47" y1="121.27" x2="72.47" y2="122.71"/><g class="cls-1"><text class="cls-6" transform="translate(70.3 122.2)">2</text></g></svg>