<svg id="图层_1" data-name="图层 1" xmlns="http://www.w3.org/2000/svg" viewBox="0 0 200 130"><defs><style>.cls-1,.cls-2,.cls-3,.cls-5{isolation:isolate;}.cls-2,.cls-3{font-size:4.09px;}.cls-2,.cls-3,.cls-5{font-family:ArialMT, Arial;}.cls-3{letter-spacing:-0.02em;}.cls-4{fill:none;stroke:#000;stroke-miterlimit:3.93;stroke-width:0.93px;}.cls-5{font-size:2.51px;}</style></defs><polygon points="198.81 84.27 190.05 81.59 190 81.39 190.16 81.24 198.92 83.92 198.87 84.09 198.81 84.27"/><polygon points="188.6 81.05 186.8 73.28 186.98 73.23 187.16 73.19 188.96 80.97 188.78 81.01 188.6 81.05"/><polygon points="189.8 81.32 187.76 72.5 187.92 72.36 188.08 72.21 190.16 81.24 190 81.39 189.8 81.32"/><polygon points="187.76 72.5 179.11 69.86 179.06 69.65 179.19 69.5 188.08 72.21 187.92 72.36 187.76 72.5"/><polygon points="179.11 69.86 172.49 76.03 172.28 75.97 172.25 75.74 178.83 69.61 179.06 69.65 179.11 69.86"/><polygon points="177.84 69.52 172.24 74.74 172.11 74.61 171.99 74.47 177.58 69.25 177.71 69.39 177.84 69.52"/><polygon points="172.49 76.03 174.52 84.85 174.37 85 174.21 85.14 172.12 76.09 172.28 75.97 172.49 76.03"/><polygon points="175.36 83.95 182.99 86.28 182.94 86.46 182.89 86.63 175.25 84.3 175.31 84.12 175.36 83.95"/><polygon points="174.52 84.85 183.18 87.5 183.23 87.71 183.07 87.85 174.21 85.14 174.37 85 174.52 84.85"/><polygon points="183.43 87.77 185.5 96.69 185.31 96.74 185.13 96.78 183.07 87.85 183.23 87.71 183.43 87.77"/><polygon points="183.18 87.5 189.8 81.32 190 81.39 190.05 81.59 183.43 87.77 183.23 87.71 183.18 87.5"/><polygon points="172.12 76.09 165.93 72.66 166.02 72.5 166.11 72.34 172.25 75.74 172.28 75.97 172.12 76.09"/><g class="cls-1"><text class="cls-2" transform="translate(162.7 73.13)">N</text></g><polygon points="164.39 69.38 165.79 62.21 165.94 62.38 166.1 62.55 164.76 69.45 164.58 69.42 164.39 69.38"/><polygon points="165.79 62.21 173.27 61.29 173.29 61.48 173.32 61.66 166.1 62.55 165.94 62.38 165.79 62.21"/><polygon points="166.86 63.2 173.41 62.4 173.43 62.58 173.45 62.77 166.9 63.57 166.88 63.39 166.86 63.2"/><g class="cls-1"><text class="cls-2" transform="translate(173.66 62.91)">N</text></g><polygon points="176.27 63.23 179.19 69.5 179.06 69.65 178.83 69.61 175.93 63.39 176.1 63.31 176.27 63.23"/><polygon points="162.41 72.51 155.94 75.52 155.78 75.4 155.78 75.19 162.25 72.17 162.33 72.34 162.41 72.51"/><polygon points="155.94 75.52 154.21 84.44 154.01 84.49 153.85 84.33 155.57 75.49 155.78 75.4 155.94 75.52"/><polygon points="153.94 84.69 144.93 85.8 144.81 85.62 144.93 85.42 153.85 84.33 154.01 84.49 153.94 84.69"/><polygon points="144.61 85.62 140.77 77.39 140.9 77.22 141.12 77.27 144.93 85.42 144.81 85.62 144.61 85.62"/><polygon points="140.84 77.03 145.59 72.6 145.71 72.73 145.84 72.87 141.12 77.27 140.9 77.22 140.84 77.03"/><g class="cls-1"><text class="cls-2" transform="translate(146.08 72.56)">O</text></g><polygon points="149.72 71.83 155.78 75.19 155.78 75.4 155.57 75.49 149.54 72.15 149.63 71.99 149.72 71.83"/><polygon points="140.77 77.39 131.66 75.62 131.8 75.46 131.94 75.3 140.84 77.03 140.9 77.22 140.77 77.39"/><polygon points="131.66 75.62 129.32 68.82 129.49 68.76 129.67 68.7 131.94 75.3 131.8 75.46 131.66 75.62"/><g class="cls-1"><text class="cls-2" transform="translate(124.24 68.35)">H</text><text class="cls-2" transform="translate(127.19 68.35)">O</text></g><polygon points="144.93 85.8 141.63 91.76 141.47 91.67 141.3 91.58 144.61 85.62 144.81 85.62 144.93 85.8"/><g class="cls-1"><text class="cls-2" transform="translate(138.73 95.38)">O</text></g><polygon points="138.37 93.95 132.79 94.05 132.79 93.86 132.79 93.68 138.36 93.58 138.36 93.76 138.37 93.95"/><g class="cls-1"><text class="cls-3" transform="translate(129.69 95.55)">P</text></g><polygon points="131.84 95.94 131.93 101.08 131.74 101.09 131.56 101.09 131.46 95.95 131.65 95.94 131.84 95.94"/><polygon points="130.72 95.96 130.81 101.1 130.63 101.11 130.44 101.11 130.35 95.97 130.54 95.96 130.72 95.96"/><g class="cls-1"><text class="cls-2" transform="translate(129.63 104.81)">O</text></g><polygon points="130.84 91.83 130.75 86.69 130.93 86.69 131.12 86.68 131.21 91.83 131.02 91.83 130.84 91.83"/><g class="cls-1"><text class="cls-2" transform="translate(129.3 86.28)">O</text></g><line class="cls-4" x1="132.31" y1="82.44" x2="133.85" y2="82.44"/><polygon points="129.33 94.11 123.76 94.2 123.75 94.02 123.75 93.83 129.32 93.74 129.32 93.92 129.33 94.11"/><g class="cls-1"><text class="cls-2" transform="translate(120.2 95.71)">O</text></g><polygon points="120.81 96.2 117.52 102.16 117.3 102.16 117.19 101.98 120.49 96.03 120.65 96.12 120.81 96.2"/><polygon points="117.52 102.16 122.23 110.01 122.08 110.1 121.92 110.2 117.2 102.35 117.3 102.16 117.52 102.16"/><polygon points="117.2 102.35 107.93 102.51 108.04 102.32 108.14 102.14 117.19 101.98 117.3 102.16 117.2 102.35"/><polygon points="107.93 102.51 104.34 96.54 104.5 96.44 104.66 96.35 108.14 102.14 108.04 102.32 107.93 102.51"/><g class="cls-1"><text class="cls-2" transform="translate(101.79 92.66)">H</text></g><g class="cls-1"><text class="cls-2" transform="translate(101.79 96.38)">N</text></g><polygon points="101.42 94.6 93.89 94.73 94 94.54 94.1 94.36 101.41 94.23 101.42 94.41 101.42 94.6"/><polygon points="94.8 94.62 91.3 100.95 91.13 100.86 90.97 100.77 94.48 94.44 94.64 94.53 94.8 94.62"/><polygon points="93.83 94.08 90.32 100.41 90.16 100.32 90 100.23 93.5 93.9 93.67 93.99 93.83 94.08"/><g class="cls-1"><text class="cls-2" transform="translate(87.92 104.3)">O</text></g><polygon points="93.89 94.73 89.12 86.79 89.22 86.6 89.33 86.41 94.1 94.36 94 94.54 93.89 94.73"/><polygon points="89.12 86.79 79.85 86.95 79.96 86.76 80.06 86.58 89.33 86.41 89.22 86.6 89.12 86.79"/><polygon points="79.85 86.95 75.13 79.09 75.18 78.82 75.45 78.9 80.06 86.58 79.96 86.76 79.85 86.95"/><polygon points="75.13 79.09 67.97 84.49 67.78 84.4 67.78 84.17 74.97 78.75 75.18 78.82 75.13 79.09"/><polygon points="67.6 84.5 60.14 79.27 60.19 79.09 60.41 79.01 67.78 84.17 67.78 84.4 67.6 84.5"/><polygon points="60.14 79.27 51.1 79.43 50.93 79.25 50.96 79.06 60.05 78.9 60.19 79.09 60.14 79.27"/><polygon points="50.71 79.64 43.78 84.86 43.53 84.83 43.52 84.6 50.56 79.29 50.93 79.25 50.71 79.64"/><polygon points="43.25 84.86 35.91 79.72 35.94 79.51 36.12 79.42 43.52 84.6 43.53 84.83 43.25 84.86"/><polygon points="35.75 79.38 35.89 68.88 36.08 68.85 36.26 69.32 36.12 79.42 35.94 79.51 35.75 79.38"/><polygon points="37.19 68.14 41.5 72.77 41.36 72.89 41.23 73.02 36.91 68.39 37.05 68.27 37.19 68.14"/><polygon points="36.24 68.75 40.69 73.52 40.55 73.65 40.42 73.78 36.26 69.32 36.08 68.85 36.24 68.75"/><g class="cls-1"><text class="cls-2" transform="translate(40.92 77.28)">N</text></g><polygon points="44.31 76.24 50.96 79.06 50.93 79.25 50.56 79.29 44.17 76.58 44.24 76.41 44.31 76.24"/><polygon points="35.89 68.88 32.93 60.29 33.06 60.09 33.25 60.07 36.24 68.75 36.08 68.85 35.89 68.88"/><polygon points="32.89 59.93 33.67 50.9 33.86 50.86 34.05 50.91 33.25 60.07 33.06 60.09 32.89 59.93"/><polygon points="34 59.94 34.77 51.18 34.95 51.19 35.14 51.21 34.37 59.97 34.19 59.95 34 59.94"/><polygon points="33.67 50.9 29.04 43.19 29.09 42.92 29.32 42.94 33.86 50.49 33.86 50.86 33.67 50.9"/><polygon points="29.09 42.64 34.97 35.87 35.17 35.92 35.24 36.12 29.32 42.94 29.09 42.92 29.09 42.64"/><polygon points="35.32 35.76 45.74 36.99 45.76 37.18 45.28 37.31 35.24 36.12 35.17 35.92 35.32 35.76"/><polygon points="46.35 38.35 40.98 42.4 40.87 42.25 40.76 42.1 46.13 38.06 46.24 38.21 46.35 38.35"/><polygon points="45.84 37.35 40.31 41.51 40.2 41.36 40.09 41.22 45.28 37.31 45.76 37.18 45.84 37.35"/><g class="cls-1"><text class="cls-2" transform="translate(36.88 44.41)">N</text></g><polygon points="37.38 44.91 34.05 50.91 33.86 50.86 33.86 50.49 37.05 44.73 37.21 44.82 37.38 44.91"/><polygon points="45.74 36.99 54.78 34.9 54.78 35.09 54.79 35.28 45.84 37.35 45.76 37.18 45.74 36.99"/><polygon points="54.78 34.9 63.86 36.66 63.88 36.86 63.81 37.03 54.79 35.28 54.78 35.09 54.78 34.9"/><polygon points="54.84 36.05 63.47 37.72 63.44 37.9 63.4 38.09 54.77 36.41 54.8 36.23 54.84 36.05"/><polygon points="63.86 36.66 72.01 32.86 72.28 32.94 72.23 33.16 64.25 36.89 63.88 36.86 63.86 36.66"/><polygon points="72.56 32.97 78.67 39.52 78.6 39.72 78.4 39.77 72.23 33.16 72.28 32.94 72.56 32.97"/><polygon points="78.75 39.88 76.43 50.12 76.25 50.11 76.17 49.62 78.4 39.77 78.6 39.72 78.75 39.88"/><polygon points="75.01 50.58 71.6 44.9 71.76 44.81 71.92 44.71 75.33 50.39 75.17 50.48 75.01 50.58"/><polygon points="76.07 50.18 72.55 44.33 72.71 44.23 72.87 44.14 76.17 49.62 76.25 50.11 76.07 50.18"/><g class="cls-1"><text class="cls-2" transform="translate(70 43.83)">N</text></g><polygon points="69.52 41.03 63.81 37.03 63.88 36.86 64.25 36.89 69.73 40.73 69.63 40.88 69.52 41.03"/><polygon points="76.43 50.12 77.54 59.14 77.38 59.31 77.19 59.28 76.07 50.18 76.25 50.11 76.43 50.12"/><polygon points="77.49 59.51 72.37 70.07 72.17 70.06 72.05 69.88 77.19 59.28 77.38 59.31 77.49 59.51"/><polygon points="76.4 59.2 71.63 69.04 71.46 68.96 71.3 68.88 76.07 59.04 76.23 59.12 76.4 59.2"/><polygon points="72.03 70.25 64.75 70.38 64.75 70.19 64.74 70.01 72.05 69.88 72.17 70.06 72.03 70.25"/><g class="cls-1"><text class="cls-2" transform="translate(61.42 71.88)">N</text></g><polygon points="62.45 72.34 60.41 79.01 60.19 79.09 60.05 78.9 62.09 72.23 62.27 72.28 62.45 72.34"/><line class="cls-4" x1="64.26" y1="68.09" x2="65.81" y2="68.09"/><polygon points="72.37 70.07 75.29 78.57 75.18 78.82 74.97 78.75 72.03 70.25 72.17 70.06 72.37 70.07"/><polygon points="77.54 59.14 86.62 59.93 86.61 60.12 86.59 60.3 77.49 59.51 77.38 59.31 77.54 59.14"/><polygon points="78.67 39.52 87.67 38.41 87.8 38.59 87.93 38.76 78.75 39.88 78.6 39.72 78.67 39.52"/><polygon points="87.67 38.41 91.29 29.89 91.42 30.06 91.55 30.23 87.93 38.76 87.8 38.59 87.67 38.41"/><polygon points="91.29 29.89 100.48 28.75 100.61 28.93 100.74 29.1 91.55 30.23 91.42 30.06 91.29 29.89"/><polygon points="101.01 28.22 105.23 33.82 105.08 33.93 104.93 34.04 100.72 28.45 100.86 28.33 101.01 28.22"/><polygon points="100.13 28.89 104.34 34.49 104.19 34.6 104.05 34.71 99.83 29.11 99.98 29 100.13 28.89"/><g class="cls-1"><text class="cls-2" transform="translate(104.6 37.98)">O</text></g><polygon points="100.48 28.75 103.19 22.38 103.36 22.46 103.53 22.53 100.74 29.1 100.61 28.93 100.48 28.75"/><g class="cls-1"><text class="cls-2" transform="translate(102.76 21.52)">N</text><text class="cls-2" transform="translate(105.71 21.52)">H</text><text class="cls-5" transform="translate(108.66 22.15)">2</text></g><polygon points="72.01 32.86 67.35 25.09 67.5 25 67.66 24.9 72.33 32.67 72.28 32.94 72.01 32.86"/><polygon points="72.33 32.67 79.57 27.21 79.68 27.36 79.79 27.51 72.56 32.97 72.28 32.94 72.33 32.67"/><polygon points="34.97 35.87 32.93 27.04 33.08 26.89 33.24 26.75 35.32 35.76 35.17 35.92 34.97 35.87"/><polygon points="32.93 27.04 24.07 24.33 24.22 24.19 24.38 24.04 33.24 26.75 33.08 26.89 32.93 27.04"/><polygon points="24.07 24.33 21.98 15.3 22.14 15.16 22.29 15.01 24.38 24.04 24.22 24.19 24.07 24.33"/><polygon points="21.39 14.83 26.45 10.12 26.57 10.26 26.7 10.39 21.65 15.11 21.52 14.97 21.39 14.83"/><polygon points="22.15 15.65 27.2 10.94 27.33 11.07 27.46 11.21 22.41 15.92 22.28 15.78 22.15 15.65"/><g class="cls-1"><text class="cls-2" transform="translate(27.32 10.49)">O</text></g><polygon points="21.98 15.3 15.06 13.19 15.12 13.01 15.17 12.84 22.29 15.01 22.14 15.16 21.98 15.3"/><g class="cls-1"><text class="cls-2" transform="translate(7.48 13.58)">H</text><text class="cls-5" transform="translate(10.44 14.21)">2</text><text class="cls-2" transform="translate(11.83 13.58)">N</text></g><polygon points="29.04 43.19 21.8 48.64 21.69 48.5 21.58 48.35 28.82 42.89 29.09 42.92 29.04 43.19"/><polygon points="28.82 42.89 22.71 36.35 22.77 36.14 22.83 35.94 29.09 42.64 29.09 42.92 28.82 42.89"/><polygon points="22.71 36.35 13.68 38.43 13.74 38.23 13.8 38.02 22.83 35.94 22.77 36.14 22.71 36.35"/><polygon points="14.54 38.14 12.37 45.24 12.2 45.19 12.02 45.14 14.19 38.03 14.37 38.08 14.54 38.14"/><polygon points="13.48 37.81 11.31 44.92 11.13 44.87 10.95 44.81 13.13 37.7 13.3 37.76 13.48 37.81"/><g class="cls-1"><text class="cls-2" transform="translate(9.44 48.74)">O</text></g><polygon points="13.68 38.43 9.13 33.56 9.27 33.43 9.4 33.3 13.8 38.02 13.74 38.23 13.68 38.43"/><g class="cls-1"><text class="cls-2" transform="translate(1.63 32.58)">H</text><text class="cls-5" transform="translate(4.58 33.21)">2</text><text class="cls-2" transform="translate(5.98 32.58)">N</text></g><polygon points="32.93 60.29 23.88 61.41 23.86 61.22 23.84 61.04 32.89 59.93 33.06 60.09 32.93 60.29"/><polygon points="35.91 79.72 27.34 82.67 27.18 82.53 27.01 82.39 35.75 79.38 35.94 79.51 35.91 79.72"/><polygon points="27.34 82.67 25.57 91.77 25.41 91.63 25.25 91.49 27.01 82.39 27.18 82.53 27.34 82.67"/><polygon points="25.57 91.77 16.81 94.79 16.65 94.64 16.48 94.5 25.25 91.49 25.41 91.63 25.57 91.77"/><polygon points="16.4 95.42 11.13 90.83 11.25 90.69 11.37 90.55 16.65 95.14 16.52 95.28 16.4 95.42"/><polygon points="17.13 94.58 11.86 89.99 11.98 89.85 12.1 89.71 17.38 94.3 17.25 94.44 17.13 94.58"/><g class="cls-1"><text class="cls-2" transform="translate(8.06 90.22)">O</text></g><polygon points="16.81 94.79 15.46 101.72 15.28 101.68 15.1 101.65 16.48 94.5 16.65 94.64 16.81 94.79"/><g class="cls-1"><text class="cls-2" transform="translate(9.09 104.87)">H</text><text class="cls-5" transform="translate(12.04 105.5)">2</text><text class="cls-2" transform="translate(13.44 104.87)">N</text></g><polygon points="43.78 84.86 49.13 92.21 48.98 92.32 48.83 92.43 43.52 85.12 43.53 84.83 43.78 84.86"/><polygon points="43.52 85.12 37.66 91.86 37.45 91.82 37.24 91.78 43.25 84.86 43.53 84.83 43.52 85.12"/><polygon points="37.66 91.86 40.68 100.62 40.47 100.58 40.26 100.54 37.24 91.78 37.45 91.82 37.66 91.86"/><polygon points="40.29 99.79 47.74 101.24 47.71 101.42 47.67 101.61 40.22 100.16 40.26 99.97 40.29 99.79"/><polygon points="40.08 100.89 47.53 102.33 47.5 102.51 47.46 102.7 40.01 101.25 40.05 101.07 40.08 100.89"/><g class="cls-1"><text class="cls-2" transform="translate(47.97 104)">O</text></g><polygon points="40.68 100.62 36.32 105.64 36.18 105.52 36.04 105.39 40.26 100.54 40.47 100.58 40.68 100.62"/><g class="cls-1"><text class="cls-2" transform="translate(28.6 108.71)">H</text><text class="cls-5" transform="translate(31.55 109.33)">2</text><text class="cls-2" transform="translate(32.95 108.71)">N</text></g><polygon points="51.1 79.43 50.47 88.51 50.28 88.49 50.1 88.48 50.71 79.64 50.93 79.25 51.1 79.43"/><polygon points="67.97 84.49 68.13 93.56 67.95 93.67 67.76 93.78 67.6 84.5 67.78 84.4 67.97 84.49"/><polygon points="68.13 93.56 76.24 98.05 76.05 98.16 75.87 98.27 67.76 93.78 67.95 93.67 68.13 93.56"/><polygon points="75.39 97.69 81.65 93.92 81.75 94.08 81.84 94.24 75.59 98 75.49 97.84 75.39 97.69"/><polygon points="75.97 98.64 82.23 94.88 82.32 95.04 82.42 95.2 76.16 98.96 76.06 98.8 75.97 98.64"/><g class="cls-1"><text class="cls-2" transform="translate(82.4 95.04)">O</text></g><polygon points="76.24 98.05 76.36 105.36 76.18 105.36 75.99 105.36 75.87 98.27 76.05 98.16 76.24 98.05"/><g class="cls-1"><text class="cls-2" transform="translate(74.74 108.55)">N</text><text class="cls-2" transform="translate(77.69 108.55)">H</text><text class="cls-5" transform="translate(80.64 109.18)">2</text></g><polygon points="75.29 78.57 83.5 74.74 83.58 74.91 83.66 75.07 75.45 78.9 75.18 78.82 75.29 78.57"/><polygon points="154.21 84.44 158.54 89.08 158.41 89.21 158.27 89.33 153.94 84.69 154.01 84.49 154.21 84.44"/><g class="cls-1"><text class="cls-2" transform="translate(158.74 92.92)">O</text><text class="cls-2" transform="translate(161.92 92.92)">H</text></g><g class="cls-1"><text class="cls-2" transform="translate(65.85 124.58)">Co</text></g></svg>