<svg id="图层_1" data-name="图层 1" xmlns="http://www.w3.org/2000/svg" viewBox="0 0 200 130"><defs><style>.cls-1,.cls-2,.cls-3,.cls-5,.cls-6{isolation:isolate;}.cls-2,.cls-3{font-size:3.73px;}.cls-2,.cls-3,.cls-5,.cls-6{font-family:ArialMT, Arial;}.cls-3{letter-spacing:-0.02em;}.cls-4{fill:none;stroke:#000;stroke-miterlimit:3.93;stroke-width:0.93px;}.cls-5{font-size:2.3px;}.cls-6{font-size:1.72px;}</style></defs><polygon points="195.7 77.26 187.71 74.79 187.66 74.6 187.81 74.47 195.8 76.94 195.75 77.1 195.7 77.26"/><polygon points="186.38 74.29 184.75 67.18 184.92 67.15 185.09 67.11 186.71 74.22 186.54 74.26 186.38 74.29"/><polygon points="187.48 74.55 185.64 66.48 185.78 66.35 185.92 66.22 187.81 74.47 187.66 74.6 187.48 74.55"/><polygon points="185.64 66.48 177.74 64.04 177.69 63.85 177.81 63.71 185.92 66.22 185.78 66.35 185.64 66.48"/><polygon points="177.74 64.04 171.67 69.67 171.49 69.61 171.46 69.4 177.49 63.81 177.69 63.85 177.74 64.04"/><polygon points="176.57 63.73 171.45 68.49 171.34 68.36 171.22 68.24 176.34 63.48 176.46 63.61 176.57 63.73"/><polygon points="171.67 69.67 173.51 77.73 173.37 77.86 173.22 78 171.34 69.72 171.49 69.61 171.67 69.67"/><polygon points="174.28 76.9 181.25 79.05 181.19 79.22 181.15 79.38 174.18 77.23 174.23 77.06 174.28 76.9"/><polygon points="173.51 77.73 181.41 80.17 181.46 80.36 181.31 80.49 173.22 78 173.37 77.86 173.51 77.73"/><polygon points="181.64 80.42 183.5 88.58 183.34 88.61 183.17 88.65 181.31 80.49 181.46 80.36 181.64 80.42"/><polygon points="181.41 80.17 187.48 74.55 187.66 74.6 187.71 74.79 181.64 80.42 181.46 80.36 181.41 80.17"/><polygon points="171.34 69.72 165.69 66.57 165.78 66.43 165.86 66.28 171.46 69.4 171.49 69.61 171.34 69.72"/><g class="cls-1"><text class="cls-2" transform="translate(162.74 67)">N</text></g><polygon points="164.3 63.57 165.59 57.03 165.73 57.18 165.87 57.33 164.63 63.63 164.46 63.6 164.3 63.57"/><polygon points="165.59 57.03 172.43 56.2 172.45 56.37 172.47 56.54 165.87 57.33 165.73 57.18 165.59 57.03"/><polygon points="166.56 57.93 172.55 57.21 172.57 57.38 172.59 57.55 166.6 58.27 166.58 58.1 166.56 57.93"/><g class="cls-1"><text class="cls-2" transform="translate(172.79 57.68)">N</text></g><polygon points="175.16 57.98 177.81 63.71 177.69 63.85 177.49 63.81 174.85 58.12 175.01 58.05 175.16 57.98"/><polygon points="162.48 66.42 156.56 69.16 156.41 69.04 156.42 68.85 162.33 66.11 162.41 66.27 162.48 66.42"/><polygon points="156.56 69.16 154.96 77.3 154.77 77.35 154.63 77.19 156.22 69.13 156.41 69.04 156.56 69.16"/><polygon points="154.71 77.53 146.47 78.52 146.37 78.36 146.47 78.17 154.63 77.19 154.77 77.35 154.71 77.53"/><polygon points="146.18 78.35 142.69 70.83 142.81 70.68 143.01 70.72 146.47 78.17 146.37 78.36 146.18 78.35"/><polygon points="142.76 70.49 147.11 66.46 147.23 66.58 147.34 66.7 143.01 70.72 142.81 70.68 142.76 70.49"/><g class="cls-1"><text class="cls-2" transform="translate(147.56 66.43)">O</text></g><polygon points="150.89 65.77 156.42 68.85 156.41 69.04 156.22 69.13 150.72 66.07 150.81 65.92 150.89 65.77"/><polygon points="142.69 70.83 134.38 69.19 134.5 69.04 134.63 68.89 142.76 70.49 142.81 70.68 142.69 70.83"/><polygon points="134.38 69.19 132.25 62.97 132.41 62.91 132.57 62.85 134.63 68.89 134.5 69.04 134.38 69.19"/><g class="cls-1"><text class="cls-2" transform="translate(127.62 62.54)">H</text><text class="cls-2" transform="translate(130.32 62.54)">O</text></g><polygon points="146.47 78.52 143.44 83.95 143.29 83.87 143.15 83.79 146.18 78.35 146.37 78.36 146.47 78.52"/><g class="cls-1"><text class="cls-2" transform="translate(140.79 87.26)">O</text></g><polygon points="140.46 85.95 135.37 86.02 135.36 85.85 135.36 85.68 140.45 85.61 140.45 85.78 140.46 85.95"/><g class="cls-1"><text class="cls-3" transform="translate(132.53 87.39)">P</text></g><polygon points="134.48 87.75 134.55 92.45 134.38 92.45 134.22 92.45 134.15 87.75 134.31 87.75 134.48 87.75"/><polygon points="133.47 87.76 133.54 92.46 133.37 92.47 133.2 92.47 133.13 87.77 133.3 87.77 133.47 87.76"/><g class="cls-1"><text class="cls-2" transform="translate(132.45 95.85)">O</text></g><polygon points="133.58 84 133.51 79.3 133.68 79.3 133.85 79.29 133.92 83.99 133.75 83.99 133.58 84"/><g class="cls-1"><text class="cls-2" transform="translate(132.2 78.92)">O</text><text class="cls-2" transform="translate(135.11 78.92)">H</text></g><polygon points="132.2 86.07 127.11 86.14 127.11 85.97 127.1 85.81 132.19 85.73 132.2 85.9 132.2 86.07"/><g class="cls-1"><text class="cls-2" transform="translate(123.86 87.51)">O</text></g><polygon points="124.41 87.97 121.39 93.39 121.19 93.39 121.09 93.23 124.12 87.8 124.26 87.89 124.41 87.97"/><polygon points="121.39 93.39 125.68 100.58 125.53 100.66 125.39 100.75 121.1 93.57 121.19 93.39 121.39 93.39"/><polygon points="121.1 93.57 112.63 93.69 112.73 93.52 112.82 93.35 121.09 93.23 121.19 93.39 121.1 93.57"/><polygon points="112.63 93.69 109.36 88.22 109.51 88.14 109.66 88.05 112.82 93.35 112.73 93.52 112.63 93.69"/><g class="cls-1"><text class="cls-2" transform="translate(107.04 84.68)">H</text></g><g class="cls-1"><text class="cls-2" transform="translate(107.04 88.08)">N</text></g><polygon points="106.7 86.45 99.83 86.55 99.92 86.38 100.02 86.21 106.7 86.11 106.7 86.28 106.7 86.45"/><polygon points="100.66 86.45 97.44 92.22 97.29 92.14 97.14 92.05 100.36 86.29 100.51 86.37 100.66 86.45"/><polygon points="99.77 85.96 96.55 91.72 96.4 91.64 96.26 91.56 99.47 85.79 99.62 85.87 99.77 85.96"/><g class="cls-1"><text class="cls-2" transform="translate(94.35 95.28)">O</text></g><polygon points="99.83 86.55 95.48 79.28 95.58 79.11 95.67 78.94 100.02 86.21 99.92 86.38 99.83 86.55"/><polygon points="95.48 79.28 87.02 79.41 87.12 79.23 87.21 79.06 95.67 78.94 95.58 79.11 95.48 79.28"/><polygon points="87.02 79.41 82.73 72.22 82.78 71.97 83.02 72.04 87.21 79.06 87.12 79.23 87.02 79.41"/><polygon points="82.73 72.22 76.17 77.13 76 77.04 76 76.83 82.58 71.91 82.78 71.97 82.73 72.22"/><polygon points="75.83 77.13 69.03 72.34 69.08 72.17 69.28 72.1 76 76.83 76 77.04 75.83 77.13"/><polygon points="69.03 72.34 60.77 72.46 60.61 72.3 60.65 72.13 68.95 72 69.08 72.17 69.03 72.34"/><polygon points="60.42 72.65 54.08 77.41 53.84 77.37 53.84 77.16 60.28 72.34 60.61 72.3 60.42 72.65"/><polygon points="53.59 77.4 46.89 72.69 46.92 72.5 47.09 72.41 53.84 77.16 53.84 77.37 53.59 77.4"/><polygon points="46.75 72.38 46.9 62.79 47.07 62.76 47.24 63.19 47.09 72.41 46.92 72.5 46.75 72.38"/><polygon points="48.09 62.11 52.01 66.34 51.89 66.46 51.77 66.57 47.84 62.34 47.97 62.23 48.09 62.11"/><polygon points="47.22 62.67 51.27 67.03 51.14 67.15 51.02 67.26 47.24 63.19 47.07 62.76 47.22 62.67"/><g class="cls-1"><text class="cls-2" transform="translate(51.48 70.48)">N</text></g><polygon points="54.58 69.53 60.65 72.13 60.61 72.3 60.28 72.34 54.45 69.84 54.52 69.69 54.58 69.53"/><polygon points="46.9 62.79 44.22 54.93 44.34 54.75 44.51 54.73 47.22 62.67 47.07 62.76 46.9 62.79"/><polygon points="44.18 54.6 44.92 46.36 45.1 46.32 45.26 46.37 44.51 54.73 44.34 54.75 44.18 54.6"/><polygon points="45.2 54.61 45.92 46.61 46.09 46.62 46.26 46.64 45.54 54.64 45.37 54.63 45.2 54.61"/><polygon points="44.92 46.36 40.71 39.3 40.76 39.05 40.97 39.07 45.09 45.98 45.1 46.32 44.92 46.36"/><polygon points="40.75 38.8 46.15 32.63 46.33 32.68 46.4 32.85 40.97 39.07 40.76 39.05 40.75 38.8"/><polygon points="46.47 32.52 55.99 33.68 56 33.85 55.56 33.97 46.4 32.85 46.33 32.68 46.47 32.52"/><polygon points="56.53 34.93 51.62 38.61 51.52 38.47 51.42 38.34 56.33 34.66 56.43 34.79 56.53 34.93"/><polygon points="56.07 34.01 51.01 37.8 50.91 37.66 50.81 37.52 55.56 33.97 56 33.85 56.07 34.01"/><g class="cls-1"><text class="cls-2" transform="translate(47.88 40.44)">N</text></g><polygon points="48.32 40.89 45.26 46.37 45.1 46.32 45.09 45.98 48.02 40.73 48.17 40.81 48.32 40.89"/><polygon points="55.99 33.68 64.25 31.79 64.25 31.96 64.25 32.14 56.07 34.01 56 33.85 55.99 33.68"/><polygon points="64.25 31.79 72.53 33.43 72.56 33.6 72.49 33.76 64.25 32.14 64.25 31.96 64.25 31.79"/><polygon points="64.3 32.84 72.18 34.39 72.15 34.56 72.11 34.72 64.23 33.17 64.27 33 64.3 32.84"/><polygon points="72.53 33.43 80 29.97 80.24 30.05 80.2 30.25 72.89 33.63 72.56 33.6 72.53 33.43"/><polygon points="80.49 30.07 86.06 36.07 86 36.25 85.81 36.3 80.2 30.25 80.24 30.05 80.49 30.07"/><polygon points="86.13 36.41 83.99 45.75 83.82 45.74 83.75 45.3 85.81 36.3 86 36.25 86.13 36.41"/><polygon points="82.69 46.17 79.58 40.97 79.73 40.88 79.88 40.79 82.98 45.99 82.84 46.08 82.69 46.17"/><polygon points="83.66 45.8 80.46 40.45 80.6 40.36 80.75 40.27 83.75 45.3 83.82 45.74 83.66 45.8"/><g class="cls-1"><text class="cls-2" transform="translate(78.13 39.99)">N</text></g><polygon points="77.69 37.43 72.49 33.76 72.56 33.6 72.89 33.63 77.89 37.15 77.79 37.29 77.69 37.43"/><polygon points="83.99 45.75 84.98 53.99 84.83 54.15 84.65 54.12 83.66 45.8 83.82 45.74 83.99 45.75"/><polygon points="84.93 54.33 80.22 63.97 80.04 63.96 79.93 63.79 84.65 54.12 84.83 54.15 84.93 54.33"/><polygon points="83.94 54.05 79.55 63.02 79.4 62.95 79.25 62.88 83.63 53.9 83.78 53.97 83.94 54.05"/><polygon points="79.92 64.13 73.26 64.22 73.26 64.06 73.26 63.89 79.93 63.79 80.04 63.96 79.92 64.13"/><g class="cls-1"><text class="cls-2" transform="translate(70.23 65.59)">N</text></g><polygon points="71.16 66.01 69.28 72.1 69.08 72.17 68.95 72 70.83 65.91 70.99 65.96 71.16 66.01"/><line class="cls-4" x1="72.82" y1="62.13" x2="74.23" y2="62.13"/><polygon points="80.22 63.97 82.87 71.73 82.78 71.97 82.58 71.91 79.92 64.13 80.04 63.96 80.22 63.97"/><polygon points="84.98 53.99 93.27 54.74 93.26 54.91 93.24 55.08 84.93 54.33 84.83 54.15 84.98 53.99"/><polygon points="86.06 36.07 94.28 35.09 94.4 35.24 94.52 35.4 86.13 36.41 86 36.25 86.06 36.07"/><polygon points="94.28 35.09 97.61 27.3 97.73 27.46 97.85 27.61 94.52 35.4 94.4 35.24 94.28 35.09"/><polygon points="97.61 27.3 106.02 26.29 106.13 26.45 106.25 26.61 97.85 27.61 97.73 27.46 97.61 27.3"/><polygon points="106.5 25.81 110.34 30.93 110.2 31.04 110.07 31.14 106.23 26.01 106.36 25.91 106.5 25.81"/><polygon points="105.69 26.42 109.53 31.54 109.39 31.64 109.26 31.75 105.42 26.62 105.55 26.52 105.69 26.42"/><g class="cls-1"><text class="cls-2" transform="translate(109.76 34.74)">O</text></g><polygon points="106.02 26.29 108.5 20.48 108.66 20.55 108.81 20.61 106.25 26.61 106.13 26.45 106.02 26.29"/><g class="cls-1"><text class="cls-2" transform="translate(108.11 19.7)">N</text><text class="cls-2" transform="translate(110.81 19.7)">H</text><text class="cls-5" transform="translate(113.51 20.27)">2</text></g><polygon points="80 29.97 75.75 22.86 75.9 22.78 76.04 22.69 80.29 29.8 80.24 30.05 80 29.97"/><polygon points="80.29 29.8 86.91 24.83 87.01 24.97 87.11 25.1 80.49 30.07 80.24 30.05 80.29 29.8"/><polygon points="46.15 32.63 44.3 24.55 44.45 24.42 44.59 24.29 46.47 32.52 46.33 32.68 46.15 32.63"/><polygon points="44.3 24.55 36.21 22.06 36.36 21.93 36.5 21.79 44.59 24.29 44.45 24.42 44.3 24.55"/><polygon points="36.21 22.06 34.33 13.8 34.48 13.67 34.62 13.54 36.5 21.79 36.36 21.93 36.21 22.06"/><polygon points="33.8 13.38 38.43 9.08 38.55 9.2 38.66 9.33 34.03 13.62 33.91 13.5 33.8 13.38"/><polygon points="34.49 14.12 39.12 9.82 39.24 9.95 39.35 10.07 34.72 14.37 34.6 14.24 34.49 14.12"/><g class="cls-1"><text class="cls-2" transform="translate(39.23 9.43)">O</text></g><polygon points="34.33 13.8 28.02 11.86 28.07 11.7 28.12 11.53 34.62 13.54 34.48 13.67 34.33 13.8"/><g class="cls-1"><text class="cls-2" transform="translate(21.1 12.21)">H</text><text class="cls-5" transform="translate(23.79 12.78)">2</text><text class="cls-2" transform="translate(25.07 12.21)">N</text></g><polygon points="40.71 39.3 34.09 44.26 33.98 44.13 33.88 43.99 40.51 39.03 40.76 39.05 40.71 39.3"/><polygon points="40.51 39.03 34.94 33.03 35 32.84 35.06 32.66 40.75 38.8 40.76 39.05 40.51 39.03"/><polygon points="34.94 33.03 26.69 34.91 26.75 34.73 26.8 34.54 35.06 32.66 35 32.84 34.94 33.03"/><polygon points="27.48 34.65 25.48 41.13 25.32 41.08 25.16 41.03 27.16 34.55 27.32 34.59 27.48 34.65"/><polygon points="26.51 34.35 24.51 40.83 24.35 40.78 24.18 40.73 26.19 34.25 26.35 34.3 26.51 34.35"/><g class="cls-1"><text class="cls-2" transform="translate(22.8 44.33)">O</text></g><polygon points="26.69 34.91 22.55 30.45 22.68 30.34 22.8 30.22 26.8 34.54 26.75 34.73 26.69 34.91"/><g class="cls-1"><text class="cls-2" transform="translate(15.7 29.55)">H</text><text class="cls-5" transform="translate(18.4 30.13)">2</text><text class="cls-2" transform="translate(19.68 29.55)">N</text></g><polygon points="44.22 54.93 35.95 55.93 35.93 55.76 35.91 55.59 44.18 54.6 44.34 54.75 44.22 54.93"/><polygon points="46.89 72.69 39.05 75.36 38.91 75.23 38.76 75.1 46.75 72.38 46.92 72.5 46.89 72.69"/><polygon points="39.05 75.36 37.42 83.67 37.27 83.54 37.12 83.41 38.76 75.1 38.91 75.23 39.05 75.36"/><polygon points="37.42 83.67 29.41 86.4 29.26 86.27 29.11 86.14 37.12 83.41 37.27 83.54 37.42 83.67"/><polygon points="29.03 86.98 24.23 82.78 24.34 82.65 24.45 82.52 29.26 86.72 29.14 86.85 29.03 86.98"/><polygon points="29.7 86.21 24.9 82.01 25.01 81.89 25.12 81.76 29.93 85.96 29.81 86.08 29.7 86.21"/><g class="cls-1"><text class="cls-2" transform="translate(21.43 82.22)">O</text></g><polygon points="29.41 86.4 28.16 92.73 27.99 92.7 27.83 92.66 29.11 86.14 29.26 86.27 29.41 86.4"/><g class="cls-1"><text class="cls-2" transform="translate(22.33 95.61)">H</text><text class="cls-5" transform="translate(25.03 96.18)">2</text><text class="cls-2" transform="translate(26.31 95.61)">N</text></g><polygon points="54.08 77.41 58.94 84.14 58.8 84.23 58.66 84.33 53.83 77.64 53.84 77.37 54.08 77.41"/><polygon points="53.83 77.64 48.46 83.78 48.27 83.75 48.08 83.71 53.59 77.4 53.84 77.37 53.83 77.64"/><polygon points="48.46 83.78 51.2 91.8 51 91.76 50.81 91.72 48.08 83.71 48.27 83.75 48.46 83.78"/><polygon points="50.85 91.04 57.65 92.38 57.62 92.54 57.59 92.71 50.78 91.37 50.81 91.2 50.85 91.04"/><polygon points="50.65 92.03 57.45 93.37 57.42 93.54 57.39 93.71 50.59 92.37 50.62 92.2 50.65 92.03"/><g class="cls-1"><text class="cls-2" transform="translate(57.86 94.91)">O</text></g><polygon points="51.2 91.8 47.21 96.36 47.08 96.25 46.95 96.14 50.81 91.72 51 91.76 51.2 91.8"/><g class="cls-1"><text class="cls-2" transform="translate(40.15 99.16)">H</text><text class="cls-5" transform="translate(42.84 99.74)">2</text><text class="cls-2" transform="translate(44.12 99.16)">N</text></g><polygon points="60.77 72.46 60.17 80.75 60 80.74 59.83 80.73 60.42 72.65 60.61 72.3 60.77 72.46"/><polygon points="76.17 77.13 76.29 85.41 76.13 85.51 75.96 85.61 75.83 77.13 76 77.04 76.17 77.13"/><polygon points="76.29 85.41 83.69 89.53 83.52 89.63 83.35 89.73 75.96 85.61 76.13 85.51 76.29 85.41"/><polygon points="82.92 89.2 88.65 85.78 88.74 85.92 88.82 86.07 83.09 89.49 83.01 89.35 82.92 89.2"/><polygon points="83.44 90.07 89.17 86.65 89.26 86.8 89.34 86.94 83.61 90.36 83.53 90.22 83.44 90.07"/><g class="cls-1"><text class="cls-2" transform="translate(89.34 86.8)">O</text></g><polygon points="83.69 89.53 83.79 96.21 83.62 96.21 83.45 96.22 83.35 89.73 83.52 89.63 83.69 89.53"/><g class="cls-1"><text class="cls-2" transform="translate(82.3 99.13)">N</text><text class="cls-2" transform="translate(84.99 99.13)">H</text><text class="cls-5" transform="translate(87.69 99.7)">2</text></g><polygon points="82.87 71.73 90.39 68.26 90.46 68.41 90.53 68.56 83.02 72.04 82.78 71.97 82.87 71.73"/><polygon points="154.96 77.3 158.91 81.56 158.78 81.67 158.66 81.79 154.71 77.53 154.77 77.35 154.96 77.3"/><g class="cls-1"><text class="cls-2" transform="translate(159.08 85.07)">O</text><text class="cls-2" transform="translate(161.98 85.07)">H</text></g><polygon points="76.54 113.43 69.76 113.53 69.76 113.36 69.76 113.19 76.53 113.09 76.54 113.26 76.54 113.43"/><polygon points="76.52 112.41 69.75 112.51 69.74 112.34 69.74 112.17 76.52 112.07 76.52 112.24 76.52 112.41"/><polygon points="76.51 111.4 69.73 111.5 69.73 111.33 69.73 111.16 76.5 111.06 76.51 111.23 76.51 111.4"/><g class="cls-1"><text class="cls-2" transform="translate(66.71 113.88)">N</text></g><line class="cls-4" x1="77.47" y1="110.59" x2="78.88" y2="110.59"/><g class="cls-1"><text class="cls-2" transform="translate(74.3 124.61)">Co</text></g><line class="cls-4" x1="79.56" y1="120.22" x2="80.97" y2="120.22"/><line class="cls-4" x1="80.27" y1="119.51" x2="80.27" y2="120.92"/><g class="cls-1"><text class="cls-6" transform="translate(78.14 120.43)">2</text></g></svg>