<svg id="图层_1" data-name="图层 1" xmlns="http://www.w3.org/2000/svg" viewBox="0 0 200 130"><defs><style>.cls-1,.cls-2,.cls-3{isolation:isolate;}.cls-2{font-size:12.19px;}.cls-2,.cls-3{font-family:ArialMT, Arial;}.cls-3{font-size:7.5px;}</style></defs><title>Guanine_Simi_compound4</title><polygon points="142.59 67.89 156.67 49.93 157.11 50.27 157.54 50.61 143.46 68.57 143.03 68.23 142.59 67.89"/><polygon points="143.96 71.51 160.52 50.39 161.2 50.42 161.89 50.44 144.34 72.83 144.15 72.17 143.96 71.51"/><polygon points="160.52 50.39 149.46 33.93 149.92 33.62 150.38 33.31 161.89 50.44 161.2 50.42 160.52 50.39"/><g class="cls-1"><text class="cls-2" transform="translate(141.39 22.33)">H</text></g><g class="cls-1"><text class="cls-2" transform="translate(141.39 33.45)">N</text></g><polygon points="140.43 29.57 119.74 35.47 119.2 35.05 119.29 34.45 140.13 28.51 140.28 29.04 140.43 29.57"/><polygon points="119.74 35.47 118.76 62.29 118.19 62.67 117.65 62.33 118.64 35.35 119.2 35.05 119.74 35.47"/><polygon points="116.37 36.86 115.5 60.66 114.95 60.63 114.39 60.61 115.27 36.82 115.82 36.84 116.37 36.86"/><polygon points="118.23 63.27 93.74 76.24 93.76 75.61 93.78 74.97 117.65 62.33 118.19 62.67 118.23 63.27"/><polygon points="96 74.73 95.18 97.16 94.63 97.14 94.08 97.12 94.9 74.69 95.45 74.71 96 74.73"/><polygon points="92.69 74.61 91.87 97.04 91.32 97.02 90.76 97 91.58 74.57 92.14 74.59 92.69 74.61"/><g class="cls-1"><text class="cls-2" transform="translate(88.01 108.17)">O</text></g><polygon points="93.74 76.24 75.56 64.84 75.85 64.37 76.14 63.9 93.78 74.97 93.76 75.61 93.74 76.24"/><g class="cls-1"><text class="cls-2" transform="translate(57.14 65.85)">H</text><text class="cls-2" transform="translate(65.95 65.85)">N</text></g><polygon points="70.02 54.75 70.79 33.59 71.36 33.29 71.9 33.63 71.12 54.79 70.57 54.77 70.02 54.75"/><polygon points="71.38 32.65 90.02 22.79 90.28 23.27 90.54 23.76 71.9 33.63 71.36 33.29 71.38 32.65"/><polygon points="74.34 34.84 91.57 25.72 91.83 26.21 92.09 26.69 74.86 35.82 74.6 35.33 74.34 34.84"/><g class="cls-1"><text class="cls-2" transform="translate(91.39 25.3)">N</text></g><polygon points="101.59 23.34 119.29 34.45 119.2 35.05 118.64 35.35 101 24.28 101.29 23.81 101.59 23.34"/><polygon points="70.79 33.59 53.15 22.53 53.45 22.06 53.74 21.59 71.38 32.65 71.36 33.29 70.79 33.59"/><g class="cls-1"><text class="cls-2" transform="translate(30.67 21.97)">H</text><text class="cls-3" transform="translate(39.47 23.85)">2</text><text class="cls-2" transform="translate(43.65 21.97)">N</text></g><polygon points="118.76 62.29 143.96 71.51 144.15 72.17 144.34 72.83 118.23 63.27 118.19 62.67 118.76 62.29"/></svg>