<svg id="图层_1" data-name="图层 1" xmlns="http://www.w3.org/2000/svg" viewBox="0 0 200 130"><defs><style>.cls-1,.cls-2{isolation:isolate;}.cls-2{font-size:12.17px;font-family:ArialMT, Arial;}</style></defs><title>Guanine_Simi_compound3</title><polygon points="151.51 56.46 141.17 42.23 141.62 41.9 142.06 41.58 152.41 55.81 151.96 56.14 151.51 56.46"/><polygon points="155.37 56.14 143.85 40.28 144.29 39.95 144.74 39.63 156.74 56.14 156.05 56.14 155.37 56.14"/><g class="cls-1"><text class="cls-2" transform="translate(135.44 38.74)">N</text></g><polygon points="134.51 36.13 114.15 42.74 113.59 42.34 113.66 41.74 134.17 35.08 134.34 35.6 134.51 36.13"/><polygon points="114.15 42.74 114.15 69.53 113.59 69.93 113.04 69.61 113.04 42.66 113.59 42.34 114.15 42.74"/><polygon points="110.84 44.25 110.84 68.02 110.28 68.02 109.73 68.02 109.73 44.25 110.28 44.25 110.84 44.25"/><polygon points="114.15 69.53 134.51 76.15 134.34 76.67 134.17 77.2 113.66 70.53 113.59 69.93 114.15 69.53"/><g class="cls-1"><text class="cls-2" transform="translate(135.44 83.38)">N</text></g><g class="cls-1"><text class="cls-2" transform="translate(135.44 94.49)">H</text></g><polygon points="143.85 72 155.37 56.14 156.05 56.14 156.74 56.14 144.74 72.64 144.29 72.32 143.85 72"/><polygon points="113.66 70.53 89.7 84.36 89.7 83.73 89.7 83.09 113.04 69.61 113.59 69.93 113.66 70.53"/><polygon points="91.91 82.77 91.91 105.18 91.36 105.18 90.81 105.18 90.81 82.77 91.36 82.77 91.91 82.77"/><polygon points="88.6 82.77 88.6 105.18 88.05 105.18 87.49 105.18 87.49 82.77 88.05 82.77 88.6 82.77"/><g class="cls-1"><text class="cls-2" transform="translate(84.97 116.25)">O</text></g><polygon points="89.7 84.36 71.03 73.58 71.3 73.11 71.58 72.63 89.7 83.09 89.7 83.73 89.7 84.36"/><g class="cls-1"><text class="cls-2" transform="translate(52.63 74.86)">H</text><text class="cls-2" transform="translate(61.42 74.86)">N</text></g><polygon points="65.25 63.8 65.25 42.66 65.81 42.34 66.36 42.66 66.36 63.8 65.81 63.8 65.25 63.8"/><polygon points="65.81 41.7 83.93 31.24 84.2 31.72 84.48 32.2 66.36 42.66 65.81 42.34 65.81 41.7"/><polygon points="68.84 43.78 85.58 34.11 85.86 34.59 86.14 35.06 69.39 44.73 69.12 44.25 68.84 43.78"/><g class="cls-1"><text class="cls-2" transform="translate(85.31 33.47)">N</text></g><polygon points="95.47 31.24 113.66 41.74 113.59 42.34 113.04 42.66 94.92 32.2 95.2 31.72 95.47 31.24"/><polygon points="65.25 42.66 48.82 33.17 49.1 32.7 49.38 32.22 65.81 41.7 65.81 42.34 65.25 42.66"/><g class="cls-1"><text class="cls-2" transform="translate(35.83 33.47)">Br</text></g></svg>