<svg id="图层_1" data-name="图层 1" xmlns="http://www.w3.org/2000/svg" viewBox="0 0 200 130"><defs><style>.cls-1,.cls-2{isolation:isolate;}.cls-2{font-size:12.23px;font-family:ArialMT, Arial;}</style></defs><title>Guanine_Simi_compound2</title><polygon points="45.01 105.45 65.37 87.09 65.97 87.29 66.11 87.91 45.75 106.27 45.38 105.86 45.01 105.45"/><polygon points="69 84.18 88.03 90.35 87.86 90.88 87.69 91.4 68.66 85.24 68.83 84.71 69 84.18"/><polygon points="66.45 86.86 87.01 93.51 86.84 94.04 86.67 94.57 66.11 87.91 65.97 87.29 66.45 86.86"/><g class="cls-1"><text class="cls-2" transform="translate(87.95 100.78)">N</text></g><polygon points="97.52 90.44 112.34 77.06 112.95 77.26 113.14 77.83 98.26 91.26 97.89 90.85 97.52 90.44"/><polygon points="112.34 77.06 106.69 50.56 107.17 50.13 107.79 50.41 113.41 76.75 112.95 77.26 112.34 77.06"/><polygon points="115.16 74.31 110.38 51.92 110.92 51.8 111.47 51.69 116.25 74.08 115.7 74.2 115.16 74.31"/><polygon points="106.69 50.56 80.91 42.21 80.78 41.59 80.64 40.96 107.1 49.53 107.17 50.13 106.69 50.56"/><polygon points="78.81 42.99 74.14 21.09 74.68 20.98 75.22 20.86 79.89 42.76 79.35 42.87 78.81 42.99"/><polygon points="82.06 42.29 77.39 20.4 77.93 20.29 78.48 20.17 83.15 42.06 82.61 42.18 82.06 42.29"/><g class="cls-1"><text class="cls-2" transform="translate(70.23 19.42)">O</text></g><polygon points="80.91 42.21 66.08 55.59 65.71 55.18 65.34 54.77 80.64 40.96 80.78 41.59 80.91 42.21"/><g class="cls-1"><text class="cls-2" transform="translate(46.94 65.11)">H</text><text class="cls-2" transform="translate(55.77 65.11)">N</text></g><polygon points="62.05 66.21 66.45 86.86 65.97 87.29 65.37 87.09 60.96 66.44 61.5 66.33 62.05 66.21"/><polygon points="107.1 49.53 125.37 38.96 125.64 39.44 125.92 39.92 107.79 50.41 107.17 50.13 107.1 49.53"/><g class="cls-1"><text class="cls-2" transform="translate(126.76 31.08)">H</text></g><g class="cls-1"><text class="cls-2" transform="translate(126.76 42.24)">N</text></g><polygon points="137.07 40.8 152.47 54.64 151.8 54.78 151.13 54.93 136.32 41.62 136.69 41.21 137.07 40.8"/><polygon points="152.47 54.64 143.79 74.19 143.28 73.96 142.77 73.74 151.13 54.93 151.8 54.78 152.47 54.64"/><polygon points="148.28 55.87 140.75 72.84 140.24 72.61 139.73 72.39 147.27 55.42 147.77 55.64 148.28 55.87"/><g class="cls-1"><text class="cls-2" transform="translate(136.12 85.08)">N</text></g><polygon points="134.96 80.11 113.14 77.83 112.95 77.26 113.41 76.75 135.07 79 135.01 79.55 134.96 80.11"/></svg>