<svg id="图层_1" data-name="图层 1" xmlns="http://www.w3.org/2000/svg" viewBox="0 0 200 130"><defs><style>.cls-1,.cls-2{isolation:isolate;}.cls-2{font-size:6.78px;font-family:ArialMT, Arial;}.cls-3{fill:none;stroke:#000;stroke-miterlimit:3.89;stroke-width:0.92px;}</style></defs><polygon points="52.22 126.2 57.85 116.24 58.12 116.39 58.38 116.54 52.76 126.5 52.49 126.35 52.22 126.2"/><g class="cls-1"><text class="cls-2" transform="translate(57.6 115.71)">N</text></g><polygon points="63.09 110.79 74.33 110.69 74.33 110.99 74.34 111.3 63.09 111.4 63.09 111.1 63.09 110.79"/><polygon points="63.11 112.63 75.23 112.52 75.42 112.83 75.59 113.13 63.11 113.25 63.11 112.94 63.11 112.63"/><polygon points="75.23 112.52 82.62 99.45 82.97 99.45 83.33 99.44 75.59 113.13 75.42 112.83 75.23 112.52"/><polygon points="80.58 99.62 73.85 88.22 74.12 88.06 74.38 87.91 81.11 99.31 80.84 99.47 80.58 99.62"/><polygon points="82.62 99.45 74.99 86.52 75.17 86.21 75.52 86.21 83.33 99.44 82.97 99.45 82.62 99.45"/><polygon points="74.99 85.9 82.55 72.52 82.73 72.83 82.91 73.14 75.52 86.21 75.17 86.21 74.99 85.9"/><polygon points="82.55 72.52 97.91 72.38 98.09 72.69 98.27 72.99 82.91 73.14 82.73 72.83 82.55 72.52"/><polygon points="83.81 74.36 98.11 74.22 98.11 74.53 98.11 74.84 83.81 74.97 83.81 74.66 83.81 74.36"/><polygon points="97.91 72.38 105.47 59 105.65 59.31 105.83 59.61 98.27 72.99 98.09 72.69 97.91 72.38"/><polygon points="105.47 59 120.86 58.86 121.02 59.16 120.87 59.47 105.83 59.61 105.65 59.31 105.47 59"/><polygon points="106.73 60.83 120.09 60.71 120.1 61.02 120.1 61.32 106.74 61.45 106.73 61.14 106.73 60.83"/><polygon points="121.4 59.16 127.88 67.91 127.64 68.09 127.39 68.28 120.87 59.47 121.02 59.16 121.4 59.16"/><g class="cls-1"><text class="cls-2" transform="translate(127.91 74.26)">S</text></g><polygon points="132.94 70.25 144.43 66.41 144.74 66.63 144.71 66.96 133.14 70.84 133.04 70.55 132.94 70.25"/><polygon points="146.72 65.28 158.25 71.79 158.1 72.06 157.95 72.32 146.42 65.81 146.57 65.54 146.72 65.28"/><polygon points="145.04 66.44 158.12 73.83 158.12 74.19 158.12 74.54 144.71 66.96 144.74 66.63 145.04 66.44"/><polygon points="158.12 73.83 171.05 66.2 171.36 66.38 171.66 66.55 158.12 74.54 158.12 74.19 158.12 73.83"/><polygon points="169.19 65.33 169.07 52.09 169.38 52.09 169.69 52.09 169.81 65.33 169.5 65.33 169.19 65.33"/><polygon points="171.05 66.2 170.91 51.19 171.21 51.01 171.52 50.83 171.66 66.55 171.36 66.38 171.05 66.2"/><polygon points="170.91 51.19 157.84 43.8 157.83 43.45 157.83 43.09 171.52 50.83 171.21 51.01 170.91 51.19"/><polygon points="158.01 45.84 146.61 52.57 146.45 52.31 146.29 52.04 157.7 45.31 157.85 45.58 158.01 45.84"/><polygon points="157.84 43.8 144.91 51.43 144.6 51.26 144.56 50.92 157.83 43.09 157.83 43.45 157.84 43.8"/><polygon points="144.29 51.48 132.91 47.9 133 47.61 133.09 47.32 144.56 50.92 144.6 51.26 144.29 51.48"/><g class="cls-1"><text class="cls-2" transform="translate(127.49 49.39)">N</text></g><polygon points="128.5 43.33 124.7 32 125.05 32.08 125.4 32.15 129.08 43.13 128.79 43.23 128.5 43.33"/><polygon points="124.7 32 134.88 20.49 135.23 20.56 135.57 20.63 125.4 32.15 125.05 32.08 124.7 32"/><polygon points="134.95 19.25 147.28 21.75 147.22 22.05 147.16 22.35 134.83 19.85 134.89 19.55 134.95 19.25"/><polygon points="134.58 21.06 146.92 23.56 146.85 23.86 146.79 24.16 134.46 21.66 134.52 21.36 134.58 21.06"/><g class="cls-1"><text class="cls-2" transform="translate(147.65 26.36)">O</text></g><polygon points="134.88 20.49 131.2 9.5 131.49 9.41 131.78 9.31 135.57 20.63 135.23 20.56 134.88 20.49"/><g class="cls-1"><text class="cls-2" transform="translate(122.81 8.73)">H</text><text class="cls-2" transform="translate(127.71 8.73)">O</text></g><polygon points="127.75 50.24 121.4 59.16 121.02 59.16 120.86 58.86 127.25 49.89 127.5 50.06 127.75 50.24"/><polygon points="144.91 51.43 145.04 66.44 144.74 66.63 144.43 66.41 144.29 51.48 144.6 51.26 144.91 51.43"/><polygon points="74.99 86.52 59.98 86.66 59.8 86.35 59.97 86.04 74.99 85.9 75.17 86.21 74.99 86.52"/><polygon points="57.41 86.53 50.68 75.13 50.94 74.97 51.21 74.81 57.94 86.22 57.67 86.37 57.41 86.53"/><polygon points="59.44 86.36 51.82 73.42 51.99 73.12 52.17 72.81 59.97 86.04 59.8 86.35 59.44 86.36"/><polygon points="51.82 73.42 36.8 73.56 36.62 73.26 36.44 72.95 52.17 72.81 51.99 73.12 51.82 73.42"/><polygon points="37.97 75.25 31.46 86.77 31.19 86.62 30.93 86.47 37.44 74.94 37.71 75.09 37.97 75.25"/><polygon points="36.8 73.56 29.42 86.64 29.07 86.64 28.71 86.64 36.44 72.95 36.62 73.26 36.8 73.56"/><polygon points="29.42 86.64 37.05 99.57 36.87 99.88 36.7 100.19 28.71 86.64 29.07 86.64 29.42 86.64"/><polygon points="37.92 97.72 51.16 97.59 51.16 97.9 51.16 98.21 37.92 98.33 37.92 98.02 37.92 97.72"/><polygon points="37.05 99.57 52.06 99.43 52.24 99.73 52.06 100.04 36.7 100.19 36.87 99.88 37.05 99.57"/><polygon points="52.59 99.73 58.3 109.39 58.03 109.55 57.77 109.71 52.06 100.04 52.24 99.73 52.59 99.73"/><polygon points="52.06 99.43 59.44 86.36 59.8 86.35 59.98 86.66 52.59 99.73 52.24 99.73 52.06 99.43"/><line class="cls-3" x1="62.3" y1="109.43" x2="64.86" y2="109.43"/><line class="cls-3" x1="63.58" y1="108.15" x2="63.58" y2="110.71"/></svg>