<?xml version="1.0" encoding="UTF-8"?>
<svg id="_图层_1" data-name="图层 1" xmlns="http://www.w3.org/2000/svg" viewBox="0 0 200 130">
  <defs>
    <style>
      .cls-1 {
        font-size: 2.39px;
      }

      .cls-1, .cls-2 {
        font-family: ArialMT, Arial;
      }

      .cls-1, .cls-2, .cls-3 {
        fill: #000;
      }

      .cls-2 {
        font-size: 3.98px;
      }

      .cls-3 {
        fill-rule: evenodd;
        stroke-width: 0px;
      }
    </style>
  </defs>
  <polygon class="cls-3" points="96.64 113.5 87.75 114.44 87.63 114.27 87.72 114.08 96.6 113.14 96.62 113.32 96.64 113.5 96.64 113.5"/>
  <polygon class="cls-3" points="87.75 114.44 84.12 122.6 83.96 122.52 83.79 122.45 87.42 114.29 87.63 114.27 87.75 114.44 87.75 114.44"/>
  <polygon class="cls-3" points="87.42 114.29 82.24 107.15 82.32 106.96 82.53 106.94 87.72 114.08 87.63 114.27 87.42 114.29 87.42 114.29"/>
  <polygon class="cls-3" points="82.2 106.79 85.87 98.54 86 98.7 86.12 98.87 82.53 106.94 82.32 106.96 82.2 106.79 82.2 106.79"/>
  <polygon class="cls-3" points="85.59 99.38 81.56 93.83 81.71 93.72 81.85 93.62 85.89 99.17 85.74 99.28 85.59 99.38 85.59 99.38"/>
  <polygon class="cls-3" points="86.47 98.75 82.44 93.19 82.58 93.09 82.73 92.98 86.76 98.53 86.62 98.64 86.47 98.75 86.47 98.75"/>
  <text class="cls-2" transform="translate(79.2 92.32)"><tspan x="0" y="0">O</tspan></text>
  <polygon class="cls-3" points="85.87 98.54 93.16 97.77 93.18 97.95 93.2 98.13 86.12 98.87 86 98.7 85.87 98.54 85.87 98.54"/>
  <text class="cls-2" transform="translate(93.6 98.58)"><tspan x="0" y="0">N</tspan></text>
  <text class="cls-2" transform="translate(96.48 98.58)"><tspan x="0" y="0">H</tspan></text>
  <text class="cls-1" transform="translate(99.36 99.66)"><tspan x="0" y="0">2</tspan></text>
  <polygon class="cls-3" points="82.24 107.15 75.15 107.89 75.13 107.71 75.12 107.53 82.2 106.79 82.32 106.96 82.24 107.15 82.24 107.15"/>
  <text class="cls-2" transform="translate(71.96 108.73)"><tspan x="0" y="0">N</tspan></text>
  <text class="cls-2" transform="translate(71.96 111.88)"><tspan x="0" y="0">H</tspan></text>
  <polygon class="cls-3" points="71.73 106 67.94 100.78 68.02 100.59 68.11 100.4 72.02 105.79 71.88 105.89 71.73 106 71.73 106"/>
  <polygon class="cls-3" points="67.24 100.59 70.14 94.06 70.31 94.13 70.47 94.2 67.57 100.73 67.4 100.66 67.24 100.59 67.24 100.59"/>
  <polygon class="cls-3" points="68.23 101.03 71.13 94.5 71.3 94.57 71.46 94.64 68.56 101.17 68.39 101.1 68.23 101.03 68.23 101.03"/>
  <text class="cls-2" transform="translate(70.21 93.26)"><tspan x="0" y="0">O</tspan></text>
  <polygon class="cls-3" points="67.94 100.78 59.15 101.71 59.04 101.54 59.11 101.35 68.11 100.4 68.02 100.59 67.94 100.78 67.94 100.78"/>
  <polygon class="cls-3" points="59.15 101.71 54.61 109.57 54.52 109.36 54.43 109.16 58.82 101.56 59.04 101.54 59.15 101.71 59.15 101.71"/>
  <polygon class="cls-3" points="54.61 109.57 45.52 107.63 45.68 107.48 45.85 107.33 54.43 109.16 54.52 109.36 54.61 109.57 54.61 109.57"/>
  <polygon class="cls-3" points="45.52 107.63 44.55 98.39 44.74 98.5 44.93 98.61 45.85 107.33 45.68 107.48 45.52 107.63 45.52 107.63"/>
  <polygon class="cls-3" points="44.55 98.39 51.12 95.46 51.19 95.63 51.27 95.79 44.93 98.61 44.74 98.5 44.55 98.39 44.55 98.39"/>
  <text class="cls-2" transform="translate(51.62 95.66)"><tspan x="0" y="0">N</tspan></text>
  <polygon class="cls-3" points="53.24 92.78 54.67 86.05 54.87 85.99 55.07 85.92 53.6 92.85 53.42 92.81 53.24 92.78 53.24 92.78"/>
  <polygon class="cls-3" points="54.35 85.4 61.33 83.13 61.39 83.3 61.44 83.47 54.46 85.74 54.41 85.57 54.35 85.4 54.35 85.4"/>
  <polygon class="cls-3" points="54.69 86.43 61.67 84.16 61.72 84.33 61.78 84.5 54.8 86.77 54.74 86.6 54.69 86.43 54.69 86.43"/>
  <text class="cls-2" transform="translate(61.98 84.12)"><tspan x="0" y="0">O</tspan></text>
  <polygon class="cls-3" points="54.67 86.05 48.11 80.14 48.16 79.94 48.36 79.88 55.07 85.92 54.87 85.99 54.67 86.05 54.67 86.05"/>
  <polygon class="cls-3" points="48.11 80.14 39.72 82.87 39.56 82.73 39.41 82.59 48 79.8 48.16 79.94 48.11 80.14 48.11 80.14"/>
  <polygon class="cls-3" points="39.72 82.87 37.84 91.71 37.69 91.57 37.53 91.43 39.41 82.59 39.56 82.73 39.72 82.87 39.72 82.87"/>
  <polygon class="cls-3" points="37.84 91.71 29.25 94.5 29.09 94.36 28.94 94.22 37.53 91.43 37.69 91.57 37.84 91.71 37.84 91.71"/>
  <polygon class="cls-3" points="29.25 94.5 27.37 103.34 27.22 103.2 27.06 103.06 28.94 94.22 29.09 94.36 29.25 94.5 29.25 94.5"/>
  <polygon class="cls-3" points="27.37 103.34 20.48 105.58 20.42 105.41 20.37 105.24 27.06 103.06 27.22 103.2 27.37 103.34 27.37 103.34"/>
  <text class="cls-2" transform="translate(13.04 106.82)"><tspan x="0" y="0">H</tspan></text>
  <text class="cls-1" transform="translate(15.92 107.89)"><tspan x="0" y="0">2</tspan></text>
  <text class="cls-2" transform="translate(17.25 106.82)"><tspan x="0" y="0">N</tspan></text>
  <polygon class="cls-3" points="48 79.8 49.43 73.08 49.61 73.11 49.79 73.15 48.36 79.88 48.16 79.94 48 79.8 48 79.8"/>
  <text class="cls-2" transform="translate(45.78 71.93)"><tspan x="0" y="0">H</tspan></text>
  <text class="cls-2" transform="translate(48.66 71.93)"><tspan x="0" y="0">N</tspan></text>
  <polygon class="cls-3" points="51.78 70.35 58.47 68.17 58.63 68.31 58.78 68.45 51.89 70.69 51.84 70.52 51.78 70.35 51.78 70.35"/>
  <polygon class="cls-3" points="58.88 67.56 63.92 72.1 63.79 72.23 63.67 72.37 58.64 67.83 58.76 67.7 58.88 67.56 58.88 67.56"/>
  <polygon class="cls-3" points="58.15 68.37 63.19 72.9 63.07 73.04 62.95 73.17 57.91 68.64 58.03 68.5 58.15 68.37 58.15 68.37"/>
  <text class="cls-2" transform="translate(63.85 75.28)"><tspan x="0" y="0">O</tspan></text>
  <polygon class="cls-3" points="58.47 68.17 60.35 59.33 60.51 59.47 60.66 59.61 58.78 68.45 58.63 68.31 58.47 68.17 58.47 68.17"/>
  <polygon class="cls-3" points="60.35 59.33 67.24 57.09 67.3 57.27 67.36 57.44 60.66 59.61 60.51 59.47 60.35 59.33 60.35 59.33"/>
  <text class="cls-2" transform="translate(67.73 57.51)"><tspan x="0" y="0">N</tspan></text>
  <text class="cls-2" transform="translate(70.6 57.51)"><tspan x="0" y="0">H</tspan></text>
  <polygon class="cls-3" points="69.35 54.63 70.82 47.7 70.98 47.84 71.13 47.98 69.7 54.71 69.53 54.67 69.35 54.63 69.35 54.63"/>
  <polygon class="cls-3" points="70.73 48.59 65.69 44.06 65.81 43.92 65.93 43.79 70.97 48.32 70.85 48.46 70.73 48.59 70.73 48.59"/>
  <polygon class="cls-3" points="71.45 47.78 66.42 43.25 66.54 43.12 66.66 42.98 71.69 47.52 71.57 47.65 71.45 47.78 71.45 47.78"/>
  <text class="cls-2" transform="translate(62.77 42.72)"><tspan x="0" y="0">O</tspan></text>
  <polygon class="cls-3" points="70.82 47.7 79.42 44.91 79.57 45.05 79.53 45.26 71.13 47.98 70.98 47.84 70.82 47.7 70.82 47.7"/>
  <polygon class="cls-3" points="79.42 44.91 81.29 36.07 81.45 36.21 81.6 36.35 79.77 44.99 79.57 45.05 79.42 44.91 79.42 44.91"/>
  <polygon class="cls-3" points="81.29 36.07 89.9 33.28 90.04 33.42 90.01 33.62 81.6 36.35 81.45 36.21 81.29 36.07 81.29 36.07"/>
  <polygon class="cls-3" points="91.42 32.86 97.46 37.25 97.35 37.39 97.25 37.54 91.21 33.15 91.32 33.01 91.42 32.86 91.42 32.86"/>
  <polygon class="cls-3" points="90.26 33.35 97.35 38.51 97.35 38.73 97.35 38.96 90.01 33.62 90.04 33.42 90.26 33.35 90.26 33.35"/>
  <polygon class="cls-3" points="97.35 38.51 102.76 34.58 102.86 34.73 102.97 34.88 97.35 38.96 97.35 38.73 97.35 38.51 97.35 38.51"/>
  <text class="cls-2" transform="translate(103.28 34.25)"><tspan x="0" y="0">N</tspan></text>
  <text class="cls-2" transform="translate(106.16 34.25)"><tspan x="0" y="0">H</tspan></text>
  <polygon class="cls-3" points="103.84 31.47 101.74 25.01 101.87 24.83 102.07 24.85 104.18 31.36 104.01 31.41 103.84 31.47 103.84 31.47"/>
  <polygon class="cls-3" points="101.09 23.66 104.98 16.91 105.14 17.01 105.29 17.1 101.4 23.84 101.24 23.75 101.09 23.66 101.09 23.66"/>
  <polygon class="cls-3" points="101.77 24.65 106.18 17.01 106.39 17.01 106.6 17.01 102.07 24.85 101.87 24.83 101.77 24.65 101.77 24.65"/>
  <polygon class="cls-3" points="106.18 17.01 101.77 9.36 101.87 9.18 101.97 9 106.6 17.01 106.39 17.01 106.18 17.01 106.18 17.01"/>
  <polygon class="cls-3" points="101.24 10.45 93.46 10.45 93.46 10.26 93.46 10.08 101.24 10.08 101.24 10.26 101.24 10.45 101.24 10.45"/>
  <polygon class="cls-3" points="101.77 9.36 92.94 9.36 92.83 9.18 92.73 9 101.97 9 101.87 9.18 101.77 9.36 101.77 9.36"/>
  <polygon class="cls-3" points="92.94 9.36 88.53 17.01 88.32 17.01 88.11 17.01 92.73 9 92.83 9.18 92.94 9.36 92.94 9.36"/>
  <polygon class="cls-3" points="89.73 16.91 93.62 23.66 93.46 23.75 93.3 23.84 89.41 17.1 89.57 17.01 89.73 16.91 89.73 16.91"/>
  <polygon class="cls-3" points="88.53 17.01 92.94 24.65 92.83 24.83 92.64 24.85 88.11 17.01 88.32 17.01 88.53 17.01 88.53 17.01"/>
  <polygon class="cls-3" points="92.97 25.01 90.26 33.35 90.04 33.42 89.9 33.28 92.64 24.85 92.83 24.83 92.97 25.01 92.97 25.01"/>
  <polygon class="cls-3" points="92.94 24.65 101.77 24.65 101.87 24.83 101.74 25.01 92.97 25.01 92.83 24.83 92.94 24.65 92.94 24.65"/>
  <polygon class="cls-3" points="79.77 44.99 84.61 49.34 84.49 49.48 84.36 49.61 79.53 45.26 79.57 45.05 79.77 44.99 79.77 44.99"/>
  <text class="cls-2" transform="translate(84.91 51.93)"><tspan x="0" y="0">N</tspan></text>
  <text class="cls-2" transform="translate(87.79 51.93)"><tspan x="0" y="0">H</tspan></text>
  <polygon class="cls-3" points="86.04 53.14 84.61 59.87 84.41 59.94 84.21 60 85.68 53.07 85.86 53.11 86.04 53.14 86.04 53.14"/>
  <polygon class="cls-3" points="84.93 60.53 77.95 62.79 77.89 62.62 77.84 62.45 84.82 60.18 84.87 60.35 84.93 60.53 84.93 60.53"/>
  <polygon class="cls-3" points="84.59 59.49 77.61 61.76 77.56 61.59 77.5 61.42 84.48 59.15 84.54 59.32 84.59 59.49 84.59 59.49"/>
  <text class="cls-2" transform="translate(74.33 63.65)"><tspan x="0" y="0">O</tspan></text>
  <polygon class="cls-3" points="84.61 59.87 91.16 65.78 91.12 65.98 90.92 66.05 84.21 60 84.41 59.94 84.61 59.87 84.61 59.87"/>
  <polygon class="cls-3" points="91.28 66.12 89.44 74.75 89.24 74.82 89.04 74.88 90.92 66.05 91.12 65.98 91.28 66.12 91.28 66.12"/>
  <polygon class="cls-3" points="89.44 74.75 96.16 80.8 95.96 80.86 95.76 80.93 89.04 74.88 89.24 74.82 89.44 74.75 89.44 74.75"/>
  <polygon class="cls-3" points="96.16 80.8 94.28 89.64 94.08 89.7 93.88 89.77 95.76 80.93 95.96 80.86 96.16 80.8 96.16 80.8"/>
  <polygon class="cls-3" points="94.28 89.64 99.11 93.99 98.99 94.13 98.87 94.26 93.88 89.77 94.08 89.7 94.28 89.64 94.28 89.64"/>
  <text class="cls-2" transform="translate(99.42 96.58)"><tspan x="0" y="0">N</tspan></text>
  <text class="cls-2" transform="translate(102.29 96.58)"><tspan x="0" y="0">H</tspan></text>
  <polygon class="cls-3" points="100.54 97.79 99.11 104.52 98.91 104.58 98.72 104.65 100.19 97.72 100.37 97.76 100.54 97.79 100.54 97.79"/>
  <polygon class="cls-3" points="99.44 105.18 92.35 107.48 92.29 107.31 92.23 107.14 99.32 104.83 99.38 105 99.44 105.18 99.44 105.18"/>
  <polygon class="cls-3" points="99.1 104.14 92.01 106.45 91.95 106.28 91.9 106.1 98.99 103.8 99.04 103.97 99.1 104.14 99.1 104.14"/>
  <text class="cls-2" transform="translate(86.07 108.2)"><tspan x="0" y="0">H</tspan></text>
  <text class="cls-2" transform="translate(88.95 108.2)"><tspan x="0" y="0">N</tspan></text>
  <polygon class="cls-3" points="99.11 104.52 103.95 108.88 103.83 109.01 103.71 109.14 98.72 104.65 98.91 104.58 99.11 104.52 99.11 104.52"/>
  <text class="cls-2" transform="translate(104.25 111.46)"><tspan x="0" y="0">N</tspan></text>
  <text class="cls-2" transform="translate(107.13 111.46)"><tspan x="0" y="0">H</tspan></text>
  <text class="cls-1" transform="translate(110 112.52)"><tspan x="0" y="0">2</tspan></text>
  <polygon class="cls-3" points="91.16 65.78 97.86 63.6 97.91 63.77 97.97 63.95 91.28 66.12 91.12 65.98 91.16 65.78 91.16 65.78"/>
  <text class="cls-2" transform="translate(98.34 60.72)"><tspan x="0" y="0">H</tspan></text>
  <text class="cls-2" transform="translate(98.34 63.87)"><tspan x="0" y="0">N</tspan></text>
  <polygon class="cls-3" points="101.64 64.68 106.47 69.03 106.43 69.23 106.39 69.44 101.39 64.94 101.51 64.81 101.64 64.68 101.64 64.68"/>
  <polygon class="cls-3" points="107.2 69.08 105.68 76.21 105.51 76.18 105.33 76.14 106.85 69 107.02 69.04 107.2 69.08 107.2 69.08"/>
  <polygon class="cls-3" points="106.14 68.85 104.62 75.99 104.45 75.95 104.27 75.91 105.79 68.78 105.96 68.82 106.14 68.85 106.14 68.85"/>
  <text class="cls-2" transform="translate(103.06 79)"><tspan x="0" y="0">O</tspan></text>
  <polygon class="cls-3" points="106.47 69.03 114.87 66.3 115.02 66.44 114.98 66.65 106.39 69.44 106.43 69.23 106.47 69.03 106.47 69.03"/>
  <polygon class="cls-3" points="115.22 66.38 121.93 72.42 121.74 72.49 121.54 72.55 114.98 66.65 115.02 66.44 115.22 66.38 115.22 66.38"/>
  <polygon class="cls-3" points="121.93 72.42 120.06 81.26 119.86 81.33 119.7 81.19 121.54 72.55 121.74 72.49 121.93 72.42 121.93 72.42"/>
  <polygon class="cls-3" points="120.06 81.26 126.77 87.31 126.57 87.37 126.37 87.44 119.81 81.53 119.86 81.33 120.06 81.26 120.06 81.26"/>
  <polygon class="cls-3" points="119.72 82.42 125.5 87.62 125.38 87.76 125.26 87.89 119.48 82.68 119.6 82.55 119.72 82.42 119.72 82.42"/>
  <polygon class="cls-3" points="126.77 87.31 124.85 96.35 124.69 96.21 124.54 96.07 126.37 87.44 126.57 87.37 126.77 87.31 126.77 87.31"/>
  <polygon class="cls-3" points="124.85 96.35 116.06 99.2 116.1 99 116.14 98.8 124.54 96.07 124.69 96.21 124.85 96.35 124.85 96.35"/>
  <polygon class="cls-3" points="123.82 95.54 116.42 97.95 116.36 97.78 116.3 97.6 123.71 95.2 123.76 95.37 123.82 95.54 123.82 95.54"/>
  <polygon class="cls-3" points="116.06 99.2 109.19 93.02 109.39 92.96 109.58 92.89 116.14 98.8 116.1 99 116.06 99.2 116.06 99.2"/>
  <polygon class="cls-3" points="109.19 93.02 111.11 83.98 111.26 84.12 111.42 84.26 109.58 92.89 109.39 92.96 109.19 93.02 109.19 93.02"/>
  <polygon class="cls-3" points="110.4 92.53 112.02 84.92 112.19 84.96 112.37 84.99 110.75 92.61 110.58 92.57 110.4 92.53 110.4 92.53"/>
  <polygon class="cls-3" points="111.11 83.98 119.7 81.19 119.86 81.33 119.81 81.53 111.42 84.26 111.26 84.12 111.11 83.98 111.11 83.98"/>
  <polygon class="cls-3" points="114.87 66.3 116.3 59.58 116.47 59.61 116.65 59.65 115.22 66.38 115.02 66.44 114.87 66.3 114.87 66.3"/>
  <text class="cls-2" transform="translate(112.65 58.43)"><tspan x="0" y="0">H</tspan></text>
  <text class="cls-2" transform="translate(115.52 58.43)"><tspan x="0" y="0">N</tspan></text>
  <polygon class="cls-3" points="118.64 56.85 125.54 54.61 125.49 54.81 125.45 55.02 118.76 57.19 118.7 57.02 118.64 56.85 118.64 56.85"/>
  <polygon class="cls-3" points="124.72 54.97 126.24 47.83 126.41 47.87 126.59 47.91 125.07 55.04 124.9 55.01 124.72 54.97 124.72 54.97"/>
  <polygon class="cls-3" points="125.78 55.19 127.3 48.06 127.47 48.1 127.65 48.14 126.13 55.27 125.96 55.23 125.78 55.19 125.78 55.19"/>
  <text class="cls-2" transform="translate(125.88 46.9)"><tspan x="0" y="0">O</tspan></text>
  <polygon class="cls-3" points="125.54 54.61 132.25 60.65 132.21 60.86 132.01 60.92 125.45 55.02 125.49 54.81 125.54 54.61 125.54 54.61"/>
  <polygon class="cls-3" points="132.25 60.65 140.84 57.86 140.8 58.07 140.76 58.27 132.36 61 132.21 60.86 132.25 60.65 132.25 60.65"/>
  <polygon class="cls-3" points="140.84 57.86 147.57 63.92 147.51 64.11 147.32 64.18 140.76 58.27 140.8 58.07 140.84 57.86 140.84 57.86"/>
  <polygon class="cls-3" points="148.69 65.03 147.91 72.45 147.73 72.43 147.55 72.41 148.33 64.99 148.51 65.01 148.69 65.03 148.69 65.03"/>
  <polygon class="cls-3" points="147.68 64.26 146.76 72.99 146.57 73.1 146.38 73.21 147.32 64.18 147.51 64.11 147.68 64.26 147.68 64.26"/>
  <polygon class="cls-3" points="146.76 72.99 153.1 75.81 153.02 75.97 152.95 76.14 146.38 73.21 146.57 73.1 146.76 72.99 146.76 72.99"/>
  <text class="cls-2" transform="translate(153.45 77.6)"><tspan x="0" y="0">N</tspan></text>
  <text class="cls-2" transform="translate(153.45 80.74)"><tspan x="0" y="0">H</tspan></text>
  <polygon class="cls-3" points="156.49 74.65 160.65 70.03 160.87 70.06 161.09 70.08 156.76 74.89 156.62 74.77 156.49 74.65 156.49 74.65"/>
  <polygon class="cls-3" points="159.38 70.01 156.42 64.88 156.57 64.79 156.73 64.7 159.69 69.83 159.54 69.92 159.38 70.01 159.38 70.01"/>
  <polygon class="cls-3" points="160.65 70.03 157.36 64.33 157.51 64.24 157.67 64.15 161.09 70.08 160.87 70.06 160.65 70.03 160.65 70.03"/>
  <text class="cls-2" transform="translate(154.97 63.06)"><tspan x="0" y="0">N</tspan></text>
  <polygon class="cls-3" points="154.59 62.79 147.68 64.26 147.51 64.11 147.57 63.92 154.51 62.44 154.55 62.62 154.59 62.79 154.59 62.79"/>
  <polygon class="cls-3" points="132.36 61 130.93 67.72 130.76 67.69 130.58 67.65 132.01 60.92 132.21 60.86 132.36 61 132.36 61"/>
  <text class="cls-2" transform="translate(128.95 70.52)"><tspan x="0" y="0">N</tspan></text>
  <text class="cls-2" transform="translate(131.83 70.52)"><tspan x="0" y="0">H</tspan></text>
  <polygon class="cls-3" points="128.58 70.45 121.69 72.69 121.74 72.49 121.78 72.28 128.47 70.11 128.53 70.28 128.58 70.45 128.58 70.45"/>
  <polygon class="cls-3" points="122.45 72.31 122.7 79.48 122.52 79.49 122.34 79.5 122.09 72.32 122.27 72.31 122.45 72.31 122.45 72.31"/>
  <polygon class="cls-3" points="121.36 71.98 121.62 79.52 121.44 79.53 121.26 79.53 121 71.99 121.18 71.98 121.36 71.98 121.36 71.98"/>
  <text class="cls-2" transform="translate(120.56 82.44)"><tspan x="0" y="0">O</tspan></text>
  <polygon class="cls-3" points="121.69 72.69 114.98 66.65 115.02 66.44 115.22 66.38 121.78 72.28 121.74 72.49 121.69 72.69 121.69 72.69"/>
  <polygon class="cls-3" points="114.98 66.65 106.39 69.44 106.43 69.23 106.47 69.03 114.87 66.3 115.02 66.44 114.98 66.65 114.98 66.65"/>
  <polygon class="cls-3" points="106.39 69.44 99.67 63.39 99.71 63.19 99.76 62.98 106.47 69.03 106.43 69.23 106.39 69.44 106.39 69.44"/>
  <polygon class="cls-3" points="99.67 63.39 91.1 66.18 91.12 65.98 91.14 65.79 99.76 62.98 99.71 63.19 99.67 63.39 99.67 63.39"/>
  <polygon class="cls-3" points="91.84 65.8 92.09 72.98 91.91 72.98 91.73 72.99 91.48 65.81 91.66 65.81 91.84 65.8 91.84 65.8"/>
  <polygon class="cls-3" points="90.75 65.68 91.01 73.01 90.83 73.02 90.64 73.03 90.39 65.69 90.57 65.69 90.75 65.68 90.75 65.68"/>
  <text class="cls-2" transform="translate(89.95 75.94)"><tspan x="0" y="0">O</tspan></text>
  <polygon class="cls-3" points="91.1 66.18 84.97 62.92 85.06 62.76 85.14 62.6 91.14 65.79 91.12 65.98 91.1 66.18 91.1 66.18"/>
  <text class="cls-2" transform="translate(78.78 62.57)"><tspan x="0" y="0">H</tspan></text>
  <text class="cls-2" transform="translate(81.66 62.57)"><tspan x="0" y="0">O</tspan></text>
  <polygon class="cls-3" points="114.87 66.3 116.3 59.58 116.47 59.61 116.65 59.65 115.22 66.38 115.02 66.44 114.87 66.3 114.87 66.3"/>
  <text class="cls-2" transform="translate(115.52 58.43)"><tspan x="0" y="0">N</tspan></text>
  <text class="cls-2" transform="translate(118.4 58.43)"><tspan x="0" y="0">H</tspan></text>
  <polygon class="cls-3" points="114.98 56.12 109.99 51.62 110.19 51.56 110.38 51.49 115.22 55.85 115.1 55.98 114.98 56.12 114.98 56.12"/>
  <polygon class="cls-3" points="110.71 52.15 103.73 54.42 103.67 54.25 103.62 54.07 110.59 51.81 110.65 51.98 110.71 52.15 110.71 52.15"/>
  <polygon class="cls-3" points="110.37 51.12 103.39 53.39 103.34 53.21 103.28 53.04 110.26 50.78 110.32 50.95 110.37 51.12 110.37 51.12"/>
  <text class="cls-2" transform="translate(100.1 55.28)"><tspan x="0" y="0">O</tspan></text>
  <polygon class="cls-3" points="109.99 51.62 111.87 42.79 112.06 42.72 112.22 42.86 110.38 51.49 110.19 51.56 109.99 51.62 109.99 51.62"/>
  <polygon class="cls-3" points="111.87 42.79 105.15 36.74 105.35 36.68 105.55 36.61 112.11 42.52 112.06 42.72 111.87 42.79 111.87 42.79"/>
  <polygon class="cls-3" points="105.15 36.74 107.03 27.9 107.23 27.84 107.43 27.77 105.55 36.61 105.35 36.68 105.15 36.74 105.15 36.74"/>
  <polygon class="cls-3" points="107.03 27.9 102.08 23.45 102.2 23.31 102.32 23.18 107.43 27.77 107.23 27.84 107.03 27.9 107.03 27.9"/>
  <text class="cls-2" transform="translate(99.25 22.72)"><tspan x="0" y="0">S</tspan></text>
  <polygon class="cls-3" points="100.76 19.75 102.22 12.92 102.39 12.96 102.57 12.99 101.12 19.82 100.94 19.78 100.76 19.75 100.76 19.75"/>
  <polygon class="cls-3" points="112.11 42.52 118.8 40.34 118.86 40.51 118.91 40.69 112.22 42.86 112.06 42.72 112.11 42.52 112.11 42.52"/>
  <text class="cls-2" transform="translate(119.28 40.76)"><tspan x="0" y="0">N</tspan></text>
  <text class="cls-2" transform="translate(122.16 40.76)"><tspan x="0" y="0">H</tspan></text>
  <polygon class="cls-3" points="120.91 37.88 122.38 30.95 122.54 31.09 122.69 31.23 121.26 37.96 121.08 37.92 120.91 37.88 120.91 37.88"/>
  <polygon class="cls-3" points="122.28 31.84 117.25 27.3 117.37 27.17 117.49 27.04 122.53 31.57 122.41 31.7 122.28 31.84 122.28 31.84"/>
  <polygon class="cls-3" points="123.01 31.03 117.97 26.5 118.09 26.36 118.22 26.23 123.25 30.76 123.13 30.9 123.01 31.03 123.01 31.03"/>
  <text class="cls-2" transform="translate(114.33 25.97)"><tspan x="0" y="0">O</tspan></text>
  <polygon class="cls-3" points="122.38 30.95 130.97 28.16 131.13 28.3 131.08 28.5 122.69 31.23 122.54 31.09 122.38 30.95 122.38 30.95"/>
  <polygon class="cls-3" points="130.97 28.16 132.85 19.32 133.01 19.46 133.16 19.6 131.33 28.24 131.13 28.3 130.97 28.16 130.97 28.16"/>
  <polygon class="cls-3" points="132.85 19.32 139.63 17.12 139.69 17.29 139.74 17.46 133.16 19.6 133.01 19.46 132.85 19.32 132.85 19.32"/>
  <text class="cls-2" transform="translate(140.11 17.6)"><tspan x="0" y="0">O</tspan></text>
  <text class="cls-2" transform="translate(143.21 17.6)"><tspan x="0" y="0">H</tspan></text>
  <polygon class="cls-3" points="131.33 28.24 136.16 32.59 136.04 32.73 135.92 32.86 131.08 28.5 131.13 28.3 131.33 28.24 131.33 28.24"/>
  <text class="cls-2" transform="translate(136.47 35.17)"><tspan x="0" y="0">N</tspan></text>
  <text class="cls-2" transform="translate(136.47 38.32)"><tspan x="0" y="0">H</tspan></text>
  <polygon class="cls-3" points="139.59 33.59 146.48 31.35 146.44 31.55 146.39 31.76 139.7 33.93 139.64 33.76 139.59 33.59 139.59 33.59"/>
  <polygon class="cls-3" points="145.66 31.71 147.18 24.58 147.36 24.61 147.53 24.65 146.02 31.78 145.84 31.75 145.66 31.71 145.66 31.71"/>
  <polygon class="cls-3" points="146.72 31.94 148.24 24.8 148.42 24.84 148.59 24.88 147.08 32.01 146.9 31.97 146.72 31.94 146.72 31.94"/>
  <text class="cls-2" transform="translate(146.82 23.63)"><tspan x="0" y="0">O</tspan></text>
  <polygon class="cls-3" points="146.48 31.35 153.19 37.4 153.15 37.6 152.95 37.66 146.39 31.76 146.44 31.55 146.48 31.35 146.48 31.35"/>
  <polygon class="cls-3" points="153.19 37.4 161.79 34.6 161.74 34.81 161.7 35.01 153.3 37.74 153.15 37.6 153.19 37.4 153.19 37.4"/>
  <polygon class="cls-3" points="161.79 34.6 168.5 40.65 168.46 40.85 168.26 40.92 161.7 35.01 161.74 34.81 161.79 34.6 161.79 34.6"/>
  <polygon class="cls-3" points="168.5 40.65 177.09 37.86 177.05 38.06 177.01 38.27 168.61 40.99 168.46 40.85 168.5 40.65 168.5 40.65"/>
  <polygon class="cls-3" points="169.33 41.52 176.73 39.11 176.79 39.29 176.84 39.46 169.44 41.86 169.39 41.69 169.33 41.52 169.33 41.52"/>
  <polygon class="cls-3" points="177.09 37.86 183.96 44.04 183.76 44.11 183.57 44.17 177.01 38.27 177.05 38.06 177.09 37.86 177.09 37.86"/>
  <polygon class="cls-3" points="183.96 44.04 182.08 52.88 181.89 52.94 181.73 52.8 183.57 44.17 183.76 44.11 183.96 44.04 183.96 44.04"/>
  <polygon class="cls-3" points="182.75 44.53 181.13 52.14 180.95 52.11 180.78 52.07 182.4 44.46 182.57 44.49 182.75 44.53 182.75 44.53"/>
  <polygon class="cls-3" points="181.84 53.15 173.25 55.94 173.29 55.74 173.34 55.53 181.73 52.8 181.89 52.94 181.84 53.15 181.84 53.15"/>
  <polygon class="cls-3" points="173.25 55.94 166.38 49.76 166.58 49.69 166.78 49.63 173.34 55.53 173.29 55.74 173.25 55.94 173.25 55.94"/>
  <polygon class="cls-3" points="173.43 54.65 167.65 49.44 167.77 49.3 167.89 49.17 173.67 54.38 173.55 54.51 173.43 54.65 173.43 54.65"/>
  <polygon class="cls-3" points="166.38 49.76 168.26 40.92 168.46 40.85 168.61 40.99 166.78 49.63 166.58 49.69 166.38 49.76 166.38 49.76"/>
  <polygon class="cls-3" points="182.08 52.88 186.81 57.13 186.69 57.27 186.57 57.4 181.84 53.15 181.89 52.94 182.08 52.88 182.08 52.88"/>
  <text class="cls-2" transform="translate(187.11 59.92)"><tspan x="0" y="0">O</tspan></text>
  <text class="cls-2" transform="translate(190.21 59.92)"><tspan x="0" y="0">H</tspan></text>
  <polygon class="cls-3" points="153.3 37.74 151.87 44.47 151.7 44.43 151.52 44.39 152.95 37.66 153.15 37.6 153.3 37.74 153.3 37.74"/>
  <text class="cls-2" transform="translate(147.02 47.26)"><tspan x="0" y="0">H</tspan></text>
  <text class="cls-2" transform="translate(149.89 47.26)"><tspan x="0" y="0">N</tspan></text>
  <polygon class="cls-3" points="153.19 47.92 158.18 52.42 157.99 52.48 157.79 52.55 152.95 48.19 153.07 48.06 153.19 47.92 153.19 47.92"/>
  <polygon class="cls-3" points="157.41 51.8 165.04 51.27 165.05 51.45 165.06 51.63 157.44 52.16 157.43 51.98 157.41 51.8 157.41 51.8"/>
  <polygon class="cls-3" points="157.86 52.85 165.11 52.35 165.13 52.53 165.14 52.71 157.88 53.21 157.87 53.03 157.86 52.85 157.86 52.85"/>
  <text class="cls-2" transform="translate(165.51 52.77)"><tspan x="0" y="0">O</tspan></text>
  <polygon class="cls-3" points="158.18 52.42 156.31 61.26 156.11 61.32 155.95 61.18 157.79 52.55 157.99 52.48 158.18 52.42 158.18 52.42"/>
  <polygon class="cls-3" points="156.31 61.26 163.02 67.3 162.82 67.37 162.62 67.43 156.06 61.52 156.11 61.32 156.31 61.26 156.31 61.26"/>
  <polygon class="cls-3" points="163.02 67.3 161.55 74.23 161.37 74.19 161.19 74.16 162.62 67.43 162.82 67.37 163.02 67.3 163.02 67.3"/>
  <text class="cls-2" transform="translate(156.58 77.03)"><tspan x="0" y="0">H</tspan></text>
  <text class="cls-2" transform="translate(159.46 77.03)"><tspan x="0" y="0">O</tspan></text>
  <polygon class="cls-3" points="156.06 61.52 149.37 63.7 149.31 63.53 149.26 63.36 155.95 61.18 156.11 61.32 156.06 61.52 156.06 61.52"/>
  <text class="cls-2" transform="translate(143.26 64.94)"><tspan x="0" y="0">H</tspan></text>
  <text class="cls-2" transform="translate(146.14 64.94)"><tspan x="0" y="0">N</tspan></text>
  <polygon class="cls-3" points="147.26 66.16 145.79 73.09 145.64 72.95 145.48 72.81 146.91 66.08 147.09 66.12 147.26 66.16 147.26 66.16"/>
  <polygon class="cls-3" points="145.94 72.11 149.93 78.03 149.78 78.13 149.63 78.23 145.64 72.31 145.79 72.21 145.94 72.11 145.94 72.11"/>
  <polygon class="cls-3" points="145.25 73.02 149.03 78.63 148.88 78.73 148.73 78.83 144.95 73.23 145.1 73.12 145.25 73.02 145.25 73.02"/>
  <text class="cls-2" transform="translate(149.2 81.37)"><tspan x="0" y="0">O</tspan></text>
  <polygon class="cls-3" points="145.79 73.09 137.1 75.91 137.04 75.74 136.99 75.57 145.48 72.81 145.64 72.95 145.79 73.09 145.79 73.09"/>
  <polygon class="cls-3" points="54.93 96.7 59.11 101.35 59.04 101.54 58.82 101.56 54.66 96.94 54.79 96.82 54.93 96.7 54.93 96.7"/>
</svg>