<?xml version="1.0" encoding="UTF-8"?>
<svg id="_图层_1" data-name="图层 1" xmlns="http://www.w3.org/2000/svg" viewBox="0 0 200 130">
  <defs>
    <style>
      .cls-1 {
        fill-rule: evenodd;
        stroke-width: 0px;
      }

      .cls-1, .cls-2, .cls-3 {
        fill: #000;
      }

      .cls-2 {
        font-size: 2.4px;
      }

      .cls-2, .cls-3 {
        font-family: ArialMT, Arial;
      }

      .cls-3 {
        font-size: 1.44px;
      }
    </style>
  </defs>
  <polygon class="cls-1" points="79.64 51.92 84.41 54.68 84.3 54.74 84.19 54.8 79.53 52.11 79.58 52.01 79.64 51.92 79.64 51.92"/>
  <polygon class="cls-1" points="84.41 54.68 84.41 60.13 84.3 60.19 84.19 60.13 84.19 54.8 84.3 54.74 84.41 54.68 84.41 54.68"/>
  <polygon class="cls-1" points="84.3 60.32 79.64 63.01 79.58 62.92 79.53 62.82 84.19 60.13 84.3 60.19 84.3 60.32 84.3 60.32"/>
  <polygon class="cls-1" points="84.41 60.13 89.02 62.79 89.02 62.92 88.91 62.98 84.3 60.32 84.3 60.19 84.41 60.13 84.41 60.13"/>
  <polygon class="cls-1" points="89.13 62.98 89.13 68.43 89.02 68.37 88.91 68.31 88.91 62.98 89.02 62.92 89.13 62.98 89.13 62.98"/>
  <polygon class="cls-1" points="89.08 67.9 92.81 70.05 92.76 70.15 92.7 70.24 88.97 68.09 89.02 67.99 89.08 67.9 89.08 67.9"/>
  <polygon class="cls-1" points="88.75 68.46 92.48 70.62 92.43 70.71 92.37 70.81 88.64 68.65 88.7 68.56 88.75 68.46 88.75 68.46"/>
  <text class="cls-2" transform="translate(92.85 71.65)"><tspan x="0" y="0">O</tspan></text>
  <polygon class="cls-1" points="89.13 68.43 85.44 70.56 85.39 70.47 85.33 70.37 88.91 68.31 89.02 68.37 89.13 68.43 89.13 68.43"/>
  <text class="cls-2" transform="translate(81.74 71.65)"><tspan x="0" y="0">H</tspan></text>
  <text class="cls-2" transform="translate(83.47 71.65)"><tspan x="0" y="0">N</tspan></text>
  <polygon class="cls-1" points="84.41 72.31 84.41 76.48 84.3 76.55 84.19 76.48 84.19 72.31 84.3 72.31 84.41 72.31 84.41 72.31"/>
  <polygon class="cls-1" points="84.3 76.67 79.58 79.4 79.58 79.27 79.58 79.15 84.19 76.48 84.3 76.55 84.3 76.67 84.3 76.67"/>
  <polygon class="cls-1" points="79.58 79.4 74.86 76.67 74.86 76.55 74.97 76.48 79.58 79.15 79.58 79.27 79.58 79.4 79.58 79.4"/>
  <polygon class="cls-1" points="74.86 76.67 70.19 79.37 70.14 79.27 70.08 79.18 74.75 76.48 74.86 76.55 74.86 76.67 74.86 76.67"/>
  <polygon class="cls-1" points="74.75 76.48 74.75 71.09 74.86 71.09 74.97 71.09 74.97 76.48 74.86 76.55 74.75 76.48 74.75 76.48"/>
  <polygon class="cls-1" points="84.41 76.48 89.13 79.21 89.02 79.27 88.91 79.34 84.3 76.67 84.3 76.55 84.41 76.48 84.41 76.48"/>
  <polygon class="cls-1" points="88.64 78.99 92.37 76.83 92.43 76.93 92.48 77.02 88.75 79.18 88.7 79.08 88.64 78.99 88.64 78.99"/>
  <polygon class="cls-1" points="88.97 79.56 92.7 77.4 92.76 77.5 92.81 77.59 89.08 79.74 89.02 79.65 88.97 79.56 88.97 79.56"/>
  <text class="cls-2" transform="translate(92.85 77.1)"><tspan x="0" y="0">O</tspan></text>
  <polygon class="cls-1" points="89.13 79.21 89.13 83.51 89.02 83.51 88.91 83.51 88.91 79.34 89.02 79.27 89.13 79.21 89.13 79.21"/>
  <text class="cls-2" transform="translate(88.19 85.23)"><tspan x="0" y="0">N</tspan></text>
  <polygon class="cls-1" points="90.17 85.43 93.56 87.89 93.43 87.93 93.31 87.97 90.05 85.6 90.11 85.51 90.17 85.43 90.17 85.43"/>
  <polygon class="cls-1" points="93.56 87.89 91.83 93.22 91.75 93.11 91.67 93 93.31 87.97 93.43 87.93 93.56 87.89 93.56 87.89"/>
  <polygon class="cls-1" points="91.83 93.22 86.22 93.22 86.3 93.11 86.38 93 91.67 93 91.75 93.11 91.83 93.22 91.83 93.22"/>
  <polygon class="cls-1" points="86.22 93.22 84.53 88.02 84.61 87.93 84.74 87.97 86.38 93 86.3 93.11 86.22 93.22 86.22 93.22"/>
  <polygon class="cls-1" points="84.53 88.02 79.33 86.33 79.43 86.24 79.52 86.16 84.59 87.81 84.61 87.93 84.53 88.02 84.53 88.02"/>
  <polygon class="cls-1" points="79.91 86.48 75.97 88.58 75.92 88.48 75.87 88.38 79.81 86.29 79.86 86.38 79.91 86.48 79.91 86.48"/>
  <polygon class="cls-1" points="79.41 86.01 75.66 88 75.61 87.9 75.56 87.81 79.31 85.81 79.36 85.91 79.41 86.01 79.41 86.01"/>
  <text class="cls-2" transform="translate(73.72 89.36)"><tspan x="0" y="0">O</tspan></text>
  <polygon class="cls-1" points="79.33 86.33 78.45 82.15 78.55 82.12 78.66 82.1 79.52 86.16 79.43 86.24 79.33 86.33 79.33 86.33"/>
  <text class="cls-2" transform="translate(77.46 81.41)"><tspan x="0" y="0">N</tspan></text>
  <polygon class="cls-1" points="79.3 79.63 81.81 76.85 81.94 76.86 82.08 76.87 79.46 79.78 79.38 79.71 79.3 79.63 79.3 79.63"/>
  <polygon class="cls-1" points="81.81 76.85 79.16 72.26 79.22 72.14 79.27 72.02 82.08 76.87 81.94 76.86 81.81 76.85 81.81 76.85"/>
  <polygon class="cls-1" points="79.16 72.26 73.98 73.36 73.88 73.27 73.78 73.18 79.27 72.02 79.22 72.14 79.16 72.26 79.16 72.26"/>
  <polygon class="cls-1" points="73.98 73.36 73.43 78.63 73.31 78.69 73.21 78.63 73.78 73.18 73.88 73.27 73.98 73.36 73.98 73.36"/>
  <polygon class="cls-1" points="73.32 78.82 68.59 81.55 68.59 81.42 68.59 81.29 73.21 78.63 73.31 78.69 73.32 78.82 73.32 78.82"/>
  <polygon class="cls-1" points="69.06 81.23 68.51 85.67 68.4 85.66 68.29 85.65 68.84 81.2 68.95 81.22 69.06 81.23 69.06 81.23"/>
  <polygon class="cls-1" points="68.39 81.26 67.86 85.59 67.75 85.58 67.64 85.57 68.18 81.23 68.28 81.24 68.39 81.26 68.39 81.26"/>
  <text class="cls-2" transform="translate(67.03 87.39)"><tspan x="0" y="0">O</tspan></text>
  <polygon class="cls-1" points="68.59 81.55 64.9 79.42 64.96 79.32 65.01 79.23 68.59 81.29 68.59 81.42 68.59 81.55 68.59 81.55"/>
  <text class="cls-2" transform="translate(63.04 77.21)"><tspan x="0" y="0">H</tspan></text>
  <text class="cls-2" transform="translate(63.04 79.1)"><tspan x="0" y="0">N</tspan></text>
  <polygon class="cls-1" points="62.84 79.42 59.26 81.48 59.15 81.42 59.15 81.29 62.73 79.23 62.79 79.32 62.84 79.42 62.84 79.42"/>
  <polygon class="cls-1" points="59.04 81.48 54.44 78.83 54.43 78.69 54.52 78.62 59.15 81.29 59.15 81.42 59.04 81.48 59.04 81.48"/>
  <polygon class="cls-1" points="54.44 78.83 50.58 82.56 50.51 82.48 50.43 82.4 54.31 78.66 54.43 78.69 54.44 78.83 54.44 78.83"/>
  <polygon class="cls-1" points="54.31 78.66 53.31 74.64 53.41 74.62 53.52 74.59 54.52 78.62 54.43 78.69 54.31 78.66 54.31 78.66"/>
  <text class="cls-2" transform="translate(50.48 73.9)"><tspan x="0" y="0">H</tspan></text>
  <text class="cls-2" transform="translate(52.21 73.9)"><tspan x="0" y="0">O</tspan></text>
  <polygon class="cls-1" points="59.26 81.48 59.26 86.93 59.15 86.87 59.04 86.81 59.04 81.48 59.15 81.42 59.26 81.48 59.26 81.48"/>
  <polygon class="cls-1" points="59.2 86.4 62.94 88.55 62.88 88.65 62.83 88.74 59.1 86.59 59.15 86.49 59.2 86.4 59.2 86.4"/>
  <polygon class="cls-1" points="58.88 86.97 62.61 89.12 62.55 89.22 62.5 89.31 58.77 87.15 58.82 87.06 58.88 86.97 58.88 86.97"/>
  <text class="cls-2" transform="translate(62.97 90.15)"><tspan x="0" y="0">O</tspan></text>
  <polygon class="cls-1" points="59.26 86.93 55.57 89.07 55.51 88.97 55.46 88.88 59.04 86.81 59.15 86.87 59.26 86.93 59.26 86.93"/>
  <text class="cls-2" transform="translate(51.86 90.15)"><tspan x="0" y="0">H</tspan></text>
  <text class="cls-2" transform="translate(53.6 90.15)"><tspan x="0" y="0">N</tspan></text>
  <polygon class="cls-1" points="54.54 90.81 54.54 94.99 54.43 95.05 54.32 94.99 54.32 90.81 54.43 90.81 54.54 90.81 54.54 90.81"/>
  <polygon class="cls-1" points="54.43 95.18 49.82 97.84 49.71 97.78 49.6 97.71 54.32 94.99 54.43 95.05 54.43 95.18 54.43 95.18"/>
  <polygon class="cls-1" points="49.82 97.84 49.82 103.27 49.71 103.23 49.6 103.18 49.6 97.71 49.71 97.78 49.82 97.84 49.82 97.84"/>
  <polygon class="cls-1" points="49.76 102.75 53.49 104.91 53.44 105 53.38 105.1 49.65 102.94 49.71 102.85 49.76 102.75 49.76 102.75"/>
  <polygon class="cls-1" points="49.52 103.37 53.17 105.48 53.11 105.57 53.06 105.66 49.41 103.56 49.46 103.46 49.52 103.37 49.52 103.37"/>
  <text class="cls-2" transform="translate(53.53 106.51)"><tspan x="0" y="0">O</tspan></text>
  <polygon class="cls-1" points="49.82 103.27 46.95 106.04 46.87 105.97 46.8 105.89 49.6 103.18 49.71 103.23 49.82 103.27 49.82 103.27"/>
  <text class="cls-2" transform="translate(42.42 107.51)"><tspan x="0" y="0">H</tspan></text>
  <text class="cls-3" transform="translate(44.15 108.16)"><tspan x="0" y="0">2</tspan></text>
  <text class="cls-2" transform="translate(44.96 107.51)"><tspan x="0" y="0">N</tspan></text>
  <polygon class="cls-1" points="54.54 94.99 59.26 97.71 59.15 97.78 59.04 97.84 54.43 95.18 54.43 95.05 54.54 94.99 54.54 94.99"/>
  <polygon class="cls-1" points="58.77 97.49 62.5 95.34 62.55 95.43 62.61 95.53 58.88 97.68 58.82 97.59 58.77 97.49 58.77 97.49"/>
  <polygon class="cls-1" points="59.1 98.06 62.83 95.9 62.88 96 62.94 96.09 59.2 98.25 59.15 98.15 59.1 98.06 59.1 98.06"/>
  <text class="cls-2" transform="translate(62.97 95.61)"><tspan x="0" y="0">O</tspan></text>
  <polygon class="cls-1" points="59.26 97.71 59.26 102.01 59.15 102.01 59.04 102.01 59.04 97.84 59.15 97.78 59.26 97.71 59.26 97.71"/>
  <text class="cls-2" transform="translate(56.58 103.73)"><tspan x="0" y="0">H</tspan></text>
  <text class="cls-2" transform="translate(58.32 103.73)"><tspan x="0" y="0">N</tspan></text>
  <polygon class="cls-1" points="60.29 103.76 63.87 105.83 63.87 105.95 63.76 106.02 60.18 103.95 60.24 103.85 60.29 103.76 60.29 103.76"/>
  <polygon class="cls-1" points="63.98 106.02 63.98 111.34 63.87 111.4 63.76 111.34 63.76 106.02 63.87 105.95 63.98 106.02 63.98 106.02"/>
  <polygon class="cls-1" points="63.98 111.34 68.65 114.04 68.59 114.13 68.54 114.23 63.87 111.53 63.87 111.4 63.98 111.34 63.98 111.34"/>
  <polygon class="cls-1" points="63.87 111.53 59.2 114.23 59.15 114.13 59.1 114.04 63.76 111.34 63.87 111.4 63.87 111.53 63.87 111.53"/>
  <polygon class="cls-1" points="63.87 105.83 68.48 103.16 68.59 103.23 68.7 103.29 63.98 106.02 63.87 105.95 63.87 105.83 63.87 105.83"/>
  <polygon class="cls-1" points="68.65 102.75 72.38 104.91 72.32 105 72.27 105.1 68.54 102.94 68.59 102.85 68.65 102.75 68.65 102.75"/>
  <polygon class="cls-1" points="68.32 103.32 72.05 105.48 72 105.57 71.94 105.66 68.21 103.51 68.27 103.42 68.32 103.32 68.32 103.32"/>
  <text class="cls-2" transform="translate(72.42 106.51)"><tspan x="0" y="0">O</tspan></text>
  <polygon class="cls-1" points="68.48 103.16 68.48 98.99 68.59 98.99 68.7 98.99 68.7 103.29 68.59 103.23 68.48 103.16 68.48 103.16"/>
  <text class="cls-2" transform="translate(66.03 98.27)"><tspan x="0" y="0">H</tspan></text>
  <text class="cls-2" transform="translate(67.76 98.27)"><tspan x="0" y="0">N</tspan></text>
  <polygon class="cls-1" points="69.62 97.05 73.2 94.99 73.31 95.05 73.42 95.11 69.73 97.24 69.68 97.15 69.62 97.05 69.62 97.05"/>
  <polygon class="cls-1" points="73.2 94.99 73.2 89.53 73.31 89.6 73.42 89.66 73.42 95.11 73.31 95.05 73.2 94.99 73.2 94.99"/>
  <polygon class="cls-1" points="73.27 90.05 69.28 88.36 69.32 88.26 69.36 88.16 73.36 89.85 73.31 89.95 73.27 90.05 73.27 90.05"/>
  <polygon class="cls-1" points="73.63 89.49 69.53 87.76 69.58 87.66 69.62 87.56 73.71 89.29 73.67 89.39 73.63 89.49 73.63 89.49"/>
  <text class="cls-2" transform="translate(67.4 88.03)"><tspan x="0" y="0">O</tspan></text>
  <polygon class="cls-1" points="73.2 89.53 76.89 87.4 76.95 87.5 77 87.59 73.42 89.66 73.31 89.6 73.2 89.53 73.2 89.53"/>
  <text class="cls-2" transform="translate(77.2 87.37)"><tspan x="0" y="0">N</tspan></text>
  <text class="cls-2" transform="translate(78.94 87.37)"><tspan x="0" y="0">H</tspan></text>
  <polygon class="cls-1" points="77.93 85.66 77.93 81.48 78.04 81.42 78.14 81.48 78.14 85.66 78.04 85.66 77.93 85.66 77.93 85.66"/>
  <polygon class="cls-1" points="78.04 81.29 82.63 78.64 82.76 78.69 82.88 78.75 78.14 81.48 78.04 81.42 78.04 81.29 78.04 81.29"/>
  <polygon class="cls-1" points="82.63 78.64 81.63 74.64 81.74 74.62 81.85 74.59 82.88 78.75 82.76 78.69 82.63 78.64 82.63 78.64"/>
  <text class="cls-2" transform="translate(78.8 73.9)"><tspan x="0" y="0">H</tspan></text>
  <text class="cls-2" transform="translate(80.54 73.9)"><tspan x="0" y="0">O</tspan></text>
  <polygon class="cls-1" points="77.93 81.48 73.2 78.76 73.31 78.69 73.42 78.63 78.04 81.29 78.04 81.42 77.93 81.48 77.93 81.48"/>
  <polygon class="cls-1" points="73.68 78.94 70.85 81.68 70.77 81.6 70.7 81.52 73.53 78.79 73.61 78.86 73.68 78.94 73.68 78.94"/>
  <polygon class="cls-1" points="73.39 78.32 70.39 81.21 70.32 81.13 70.24 81.05 73.24 78.16 73.31 78.24 73.39 78.32 73.39 78.32"/>
  <text class="cls-2" transform="translate(68.5 83.04)"><tspan x="0" y="0">O</tspan></text>
  <polygon class="cls-1" points="73.2 78.76 73.2 74.45 73.31 74.45 73.42 74.45 73.42 78.63 73.31 78.69 73.2 78.76 73.2 78.76"/>
  <text class="cls-2" transform="translate(72.48 73.74)"><tspan x="0" y="0">N</tspan></text>
  <text class="cls-2" transform="translate(74.22 73.74)"><tspan x="0" y="0">H</tspan></text>
  <polygon class="cls-1" points="72.17 72.71 68.59 70.64 68.59 70.52 68.7 70.45 72.28 72.52 72.23 72.62 72.17 72.71 72.17 72.71"/>
  <polygon class="cls-1" points="68.48 70.45 68.48 65.13 68.59 65.06 68.7 65 68.7 70.45 68.59 70.52 68.48 70.45 68.48 70.45"/>
  <polygon class="cls-1" points="68.48 65.13 63.76 62.4 63.87 62.34 63.98 62.28 68.7 65 68.59 65.06 68.48 65.13 68.48 65.13"/>
  <polygon class="cls-1" points="64.25 62.62 60.52 64.78 60.47 64.68 60.41 64.59 64.14 62.43 64.2 62.53 64.25 62.62 64.25 62.62"/>
  <polygon class="cls-1" points="63.93 62.06 60.19 64.21 60.14 64.12 60.08 64.02 63.82 61.87 63.87 61.96 63.93 62.06 63.93 62.06"/>
  <text class="cls-2" transform="translate(58.25 65.62)"><tspan x="0" y="0">O</tspan></text>
  <polygon class="cls-1" points="63.76 62.4 63.76 58.1 63.87 58.1 63.98 58.1 63.98 62.28 63.87 62.34 63.76 62.4 63.76 62.4"/>
  <text class="cls-2" transform="translate(63.04 57.39)"><tspan x="0" y="0">N</tspan></text>
  <text class="cls-2" transform="translate(64.78 57.39)"><tspan x="0" y="0">H</tspan></text>
  <text class="cls-3" transform="translate(66.51 58.03)"><tspan x="0" y="0">2</tspan></text>
  <polygon class="cls-1" points="68.59 70.64 63.87 73.37 63.87 73.24 63.87 73.12 68.48 70.45 68.59 70.52 68.59 70.64 68.59 70.64"/>
  <polygon class="cls-1" points="64.27 73.05 65.31 77.21 65.21 77.24 65.1 77.27 64.06 73.1 64.17 73.07 64.27 73.05 64.27 73.05"/>
  <polygon class="cls-1" points="63.58 72.99 64.68 77.37 64.57 77.4 64.46 77.42 63.37 73.04 63.48 73.01 63.58 72.99 63.58 72.99"/>
  <text class="cls-2" transform="translate(64.29 79.09)"><tspan x="0" y="0">O</tspan></text>
  <polygon class="cls-1" points="63.87 73.37 60.18 71.24 60.24 71.14 60.29 71.05 63.87 73.12 63.87 73.24 63.87 73.37 63.87 73.37"/>
  <text class="cls-2" transform="translate(58.32 69.03)"><tspan x="0" y="0">H</tspan></text>
  <text class="cls-2" transform="translate(58.32 70.92)"><tspan x="0" y="0">N</tspan></text>
  <polygon class="cls-1" points="58.12 71.24 54.54 73.31 54.43 73.24 54.43 73.12 58.01 71.05 58.06 71.14 58.12 71.24 58.12 71.24"/>
  <polygon class="cls-1" points="54.32 73.31 49.71 70.64 49.71 70.52 49.82 70.45 54.43 73.12 54.43 73.24 54.32 73.31 54.32 73.31"/>
  <polygon class="cls-1" points="49.71 70.64 45.04 73.34 44.99 73.24 44.93 73.15 49.6 70.45 49.71 70.52 49.71 70.64 49.71 70.64"/>
  <polygon class="cls-1" points="49.6 70.45 49.6 66.28 49.71 66.28 49.82 66.28 49.82 70.45 49.71 70.52 49.6 70.45 49.6 70.45"/>
  <text class="cls-2" transform="translate(48.81 65.62)"><tspan x="0" y="0">O</tspan></text>
  <text class="cls-2" transform="translate(50.68 65.62)"><tspan x="0" y="0">H</tspan></text>
  <polygon class="cls-1" points="54.54 73.31 54.54 78.76 54.43 78.69 54.32 78.63 54.32 73.31 54.43 73.24 54.54 73.31 54.54 73.31"/>
  <polygon class="cls-1" points="54.46 78.25 58.64 79.45 58.61 79.55 58.58 79.66 54.4 78.46 54.43 78.35 54.46 78.25 54.46 78.25"/>
  <polygon class="cls-1" points="54.06 78.82 58.46 80.08 58.43 80.18 58.4 80.29 54 79.03 54.03 78.92 54.06 78.82 54.06 78.82"/>
  <text class="cls-2" transform="translate(58.77 80.75)"><tspan x="0" y="0">O</tspan></text>
  <polygon class="cls-1" points="54.54 78.76 50.85 80.89 50.79 80.79 50.74 80.7 54.32 78.63 54.43 78.69 54.54 78.76 54.54 78.76"/>
  <text class="cls-2" transform="translate(47.14 81.92)"><tspan x="0" y="0">H</tspan></text>
  <text class="cls-2" transform="translate(48.88 81.92)"><tspan x="0" y="0">N</tspan></text>
  <polygon class="cls-1" points="49.82 82.63 49.82 86.81 49.71 86.87 49.6 86.81 49.6 82.63 49.71 82.63 49.82 82.63 49.82 82.63"/>
  <polygon class="cls-1" points="49.71 87 45.09 89.66 44.99 89.6 44.88 89.53 49.6 86.81 49.71 86.87 49.71 87 49.71 87"/>
  <polygon class="cls-1" points="45.09 89.66 45.09 94.99 44.99 95.05 44.88 94.99 44.88 89.53 44.99 89.6 45.09 89.66 45.09 89.66"/>
  <polygon class="cls-1" points="45.09 94.99 49.82 97.71 49.71 97.78 49.6 97.84 44.99 95.18 44.99 95.05 45.09 94.99 45.09 94.99"/>
  <polygon class="cls-1" points="45.04 95.71 49.11 98.06 49.05 98.15 49 98.25 44.93 95.9 44.99 95.8 45.04 95.71 45.04 95.71"/>
  <polygon class="cls-1" points="49.82 97.71 49.82 103.29 49.71 103.23 49.6 103.16 49.6 97.84 49.71 97.78 49.82 97.71 49.82 97.71"/>
  <polygon class="cls-1" points="49.82 103.29 45.09 106.02 44.99 105.95 44.99 105.83 49.6 103.16 49.71 103.23 49.82 103.29 49.82 103.29"/>
  <polygon class="cls-1" points="49.11 102.94 45.04 105.29 44.99 105.2 44.93 105.1 49 102.75 49.05 102.85 49.11 102.94 49.11 102.94"/>
  <polygon class="cls-1" points="44.88 106.02 40.16 103.29 40.26 103.23 40.37 103.16 44.99 105.83 44.99 105.95 44.88 106.02 44.88 106.02"/>
  <polygon class="cls-1" points="40.16 103.29 40.16 97.71 40.26 97.78 40.37 97.84 40.37 103.16 40.26 103.23 40.16 103.29 40.16 103.29"/>
  <polygon class="cls-1" points="40.81 102.85 40.81 98.15 40.92 98.15 41.03 98.15 41.03 102.85 40.92 102.85 40.81 102.85 40.81 102.85"/>
  <polygon class="cls-1" points="40.16 97.71 44.88 94.99 44.99 95.05 44.99 95.18 40.37 97.84 40.26 97.78 40.16 97.71 40.16 97.71"/>
  <polygon class="cls-1" points="45.09 106.02 45.09 110.19 44.99 110.19 44.88 110.19 44.88 106.02 44.99 105.95 45.09 106.02 45.09 106.02"/>
  <text class="cls-2" transform="translate(44.09 111.96)"><tspan x="0" y="0">O</tspan></text>
  <text class="cls-2" transform="translate(45.96 111.96)"><tspan x="0" y="0">H</tspan></text>
  <polygon class="cls-1" points="49.82 86.81 54.55 89.54 54.43 89.6 54.3 89.65 49.71 87 49.71 86.87 49.82 86.81 49.82 86.81"/>
  <polygon class="cls-1" points="54.06 89.35 56.89 86.61 56.97 86.69 57.05 86.77 54.21 89.51 54.13 89.43 54.06 89.35 54.06 89.35"/>
  <polygon class="cls-1" points="54.2 90.12 57.35 87.08 57.42 87.16 57.5 87.24 54.35 90.28 54.28 90.2 54.2 90.12 54.2 90.12"/>
  <text class="cls-2" transform="translate(57.45 86.37)"><tspan x="0" y="0">O</tspan></text>
  <polygon class="cls-1" points="54.55 89.54 53.52 93.7 53.41 93.67 53.31 93.65 54.3 89.65 54.43 89.6 54.55 89.54 54.55 89.54"/>
  <text class="cls-2" transform="translate(49.74 95.39)"><tspan x="0" y="0">H</tspan></text>
  <text class="cls-3" transform="translate(51.48 96.03)"><tspan x="0" y="0">2</tspan></text>
  <text class="cls-2" transform="translate(52.28 95.39)"><tspan x="0" y="0">N</tspan></text>
  <polygon class="cls-1" points="73.43 78.63 77.25 80.33 77.21 80.43 77.16 80.53 73.32 78.82 73.31 78.69 73.43 78.63 73.43 78.63"/>
  <polygon class="cls-1" points="84.59 87.81 87.87 85.43 87.94 85.51 88 85.6 84.74 87.97 84.61 87.93 84.59 87.81 84.59 87.81"/>
  <polygon class="cls-1" points="89.02 62.79 92.6 60.72 92.66 60.82 92.71 60.91 89.13 62.98 89.02 62.92 89.02 62.79 89.02 62.79"/>
  <text class="cls-2" transform="translate(92.92 58.7)"><tspan x="0" y="0">H</tspan></text>
  <text class="cls-2" transform="translate(92.92 60.6)"><tspan x="0" y="0">N</tspan></text>
  <polygon class="cls-1" points="94.89 60.72 98.47 62.79 98.47 62.92 98.47 63.04 94.78 60.91 94.83 60.82 94.89 60.72 94.89 60.72"/>
  <polygon class="cls-1" points="98.97 62.72 97.87 67.1 97.77 67.07 97.66 67.05 98.75 62.66 98.86 62.69 98.97 62.72 98.97 62.72"/>
  <polygon class="cls-1" points="98.28 62.77 97.24 66.94 97.13 66.92 97.03 66.89 98.07 62.72 98.17 62.75 98.28 62.77 98.28 62.77"/>
  <text class="cls-2" transform="translate(96.25 68.76)"><tspan x="0" y="0">O</tspan></text>
  <polygon class="cls-1" points="98.47 62.79 103.08 60.12 103.19 60.19 103.19 60.31 98.47 63.04 98.47 62.92 98.47 62.79 98.47 62.79"/>
  <polygon class="cls-1" points="103.08 60.12 103.66 54.68 103.76 54.77 103.86 54.86 103.3 60.12 103.19 60.19 103.08 60.12 103.08 60.12"/>
  <polygon class="cls-1" points="103.66 54.68 109.14 53.51 109.09 53.64 109.04 53.76 103.86 54.86 103.76 54.77 103.66 54.68 103.66 54.68"/>
  <polygon class="cls-1" points="109.14 53.51 111.95 58.37 111.82 58.36 111.68 58.34 109.04 53.76 109.09 53.64 109.14 53.51 109.14 53.51"/>
  <polygon class="cls-1" points="111.95 58.37 109.34 61.28 109.25 61.2 109.17 61.13 111.68 58.34 111.82 58.36 111.95 58.37 111.95 58.37"/>
  <text class="cls-2" transform="translate(107.34 62.91)"><tspan x="0" y="0">N</tspan></text>
  <polygon class="cls-1" points="108.53 63.6 109.4 67.66 109.3 67.74 109.21 67.83 108.32 63.64 108.43 63.62 108.53 63.6 108.53 63.6"/>
  <polygon class="cls-1" points="109.79 67.98 105.85 70.07 105.79 69.98 105.74 69.88 109.68 67.79 109.73 67.88 109.79 67.98 109.79 67.98"/>
  <polygon class="cls-1" points="109.28 67.5 105.54 69.49 105.49 69.4 105.44 69.3 109.18 67.31 109.23 67.41 109.28 67.5 109.28 67.5"/>
  <text class="cls-2" transform="translate(103.59 70.86)"><tspan x="0" y="0">O</tspan></text>
  <polygon class="cls-1" points="109.4 67.66 114.58 69.34 114.49 69.43 114.39 69.51 109.21 67.83 109.3 67.74 109.4 67.66 109.4 67.66"/>
  <polygon class="cls-1" points="114.58 69.34 115.47 73.52 115.36 73.55 115.26 73.57 114.39 69.51 114.49 69.43 114.58 69.34 114.58 69.34"/>
  <text class="cls-2" transform="translate(113.05 75.26)"><tspan x="0" y="0">H</tspan></text>
  <text class="cls-2" transform="translate(114.79 75.26)"><tspan x="0" y="0">N</tspan></text>
  <polygon class="cls-1" points="116.74 75.01 120.9 76.36 120.8 76.44 120.71 76.53 116.67 75.22 116.71 75.11 116.74 75.01 116.74 75.01"/>
  <polygon class="cls-1" points="120.39 76.28 122.67 72.89 122.76 72.95 122.85 73.01 120.57 76.4 120.48 76.34 120.39 76.28 120.39 76.28"/>
  <polygon class="cls-1" points="120.81 76.83 123.22 73.26 123.31 73.32 123.4 73.38 120.99 76.95 120.9 76.89 120.81 76.83 120.81 76.83"/>
  <text class="cls-2" transform="translate(122.96 72.48)"><tspan x="0" y="0">O</tspan></text>
  <polygon class="cls-1" points="120.9 76.36 122.03 81.69 121.94 81.78 121.82 81.74 120.71 76.53 120.8 76.44 120.9 76.36 120.9 76.36"/>
  <polygon class="cls-1" points="121.96 81.9 117.91 85.55 117.89 85.42 117.86 85.3 121.82 81.74 121.94 81.78 121.96 81.9 121.96 81.9"/>
  <polygon class="cls-1" points="117.91 85.55 112.73 83.86 112.7 83.74 112.8 83.66 117.86 85.3 117.89 85.42 117.91 85.55 117.91 85.55"/>
  <polygon class="cls-1" points="111.88 83.53 110.9 78.93 111.01 78.91 111.11 78.89 112.09 83.48 111.98 83.51 111.88 83.53 111.88 83.53"/>
  <polygon class="cls-1" points="112.58 83.7 111.47 78.49 111.57 78.41 111.66 78.32 112.8 83.66 112.7 83.74 112.58 83.7 112.58 83.7"/>
  <polygon class="cls-1" points="111.47 78.49 106.41 76.85 106.38 76.72 106.36 76.6 111.66 78.32 111.57 78.41 111.47 78.49 111.47 78.49"/>
  <polygon class="cls-1" points="106.61 77.54 103.12 80.68 103.05 80.6 102.98 80.52 106.47 77.38 106.54 77.46 106.61 77.54 106.61 77.54"/>
  <polygon class="cls-1" points="106.41 76.85 102.45 80.41 102.33 80.37 102.21 80.33 106.36 76.6 106.38 76.72 106.41 76.85 106.41 76.85"/>
  <polygon class="cls-1" points="102.45 80.41 103.56 85.62 103.47 85.7 103.37 85.79 102.21 80.33 102.33 80.37 102.45 80.41 102.45 80.41"/>
  <polygon class="cls-1" points="104.06 85.09 108.53 86.54 108.49 86.65 108.46 86.75 103.99 85.3 104.03 85.2 104.06 85.09 104.06 85.09"/>
  <polygon class="cls-1" points="103.56 85.62 108.62 87.26 108.65 87.39 108.68 87.51 103.37 85.79 103.47 85.7 103.56 85.62 103.56 85.62"/>
  <polygon class="cls-1" points="108.62 87.26 112.58 83.7 112.7 83.74 112.73 83.86 108.68 87.51 108.65 87.39 108.62 87.26 108.62 87.26"/>
  <polygon class="cls-1" points="122.03 81.69 126.07 83 126.04 83.11 126 83.21 121.96 81.9 121.94 81.78 122.03 81.69 122.03 81.69"/>
  <text class="cls-2" transform="translate(126.29 83.96)"><tspan x="0" y="0">N</tspan></text>
  <text class="cls-2" transform="translate(126.29 85.86)"><tspan x="0" y="0">H</tspan></text>
  <polygon class="cls-1" points="128.14 82.4 131.15 79.69 131.17 79.81 131.2 79.94 128.28 82.56 128.21 82.48 128.14 82.4 128.14 82.4"/>
  <polygon class="cls-1" points="130.82 80.09 128.98 76.32 129.08 76.27 129.18 76.22 131.02 79.99 130.92 80.04 130.82 80.09 130.82 80.09"/>
  <polygon class="cls-1" points="131.51 80 129.57 76.03 129.67 75.98 129.77 75.93 131.71 79.91 131.61 79.95 131.51 80 131.51 80"/>
  <text class="cls-2" transform="translate(127.89 75.47)"><tspan x="0" y="0">O</tspan></text>
  <polygon class="cls-1" points="131.15 79.69 136.33 81.37 136.36 81.5 136.27 81.58 131.2 79.94 131.17 79.81 131.15 79.69 131.15 79.69"/>
  <polygon class="cls-1" points="136.48 81.54 137.61 86.87 137.49 86.83 137.37 86.79 136.27 81.58 136.36 81.5 136.48 81.54 136.48 81.54"/>
  <polygon class="cls-1" points="137.61 86.87 133.54 90.53 133.44 90.48 133.34 90.42 137.37 86.79 137.49 86.83 137.61 86.87 137.61 86.87"/>
  <polygon class="cls-1" points="133.34 90.91 129.47 89.11 129.52 89.01 129.56 88.91 133.43 90.72 133.39 90.81 133.34 90.91 133.34 90.91"/>
  <polygon class="cls-1" points="133.66 90.34 129.75 88.51 129.79 88.42 129.84 88.32 133.75 90.14 133.71 90.24 133.66 90.34 133.66 90.34"/>
  <text class="cls-2" transform="translate(127.61 88.73)"><tspan x="0" y="0">O</tspan></text>
  <polygon class="cls-1" points="133.54 90.53 132.89 94.67 132.78 94.65 132.67 94.63 133.34 90.42 133.44 90.48 133.54 90.53 133.54 90.53"/>
  <text class="cls-2" transform="translate(129.22 96.36)"><tspan x="0" y="0">H</tspan></text>
  <text class="cls-3" transform="translate(130.96 97.01)"><tspan x="0" y="0">2</tspan></text>
  <text class="cls-2" transform="translate(131.76 96.36)"><tspan x="0" y="0">N</tspan></text>
  <polygon class="cls-1" points="136.33 81.37 139.25 78.75 139.33 78.83 139.4 78.91 136.48 81.54 136.36 81.5 136.33 81.37 136.33 81.37"/>
  <text class="cls-2" transform="translate(139.58 78.35)"><tspan x="0" y="0">N</tspan></text>
  <text class="cls-2" transform="translate(141.32 78.35)"><tspan x="0" y="0">H</tspan></text>
  <polygon class="cls-1" points="140.05 76.66 139.16 72.48 139.28 72.52 139.4 72.56 140.26 76.61 140.15 76.64 140.05 76.66 140.05 76.66"/>
  <polygon class="cls-1" points="139.31 73.05 135.58 70.72 135.63 70.63 135.69 70.53 139.43 72.87 139.37 72.96 139.31 73.05 139.31 73.05"/>
  <polygon class="cls-1" points="139.47 72.38 135.92 70.16 135.98 70.07 136.04 69.98 139.59 72.2 139.53 72.29 139.47 72.38 139.47 72.38"/>
  <text class="cls-2" transform="translate(133.76 70.18)"><tspan x="0" y="0">O</tspan></text>
  <polygon class="cls-1" points="139.16 72.48 143.21 68.83 143.33 68.87 143.36 68.99 139.4 72.56 139.28 72.52 139.16 72.48 139.16 72.48"/>
  <polygon class="cls-1" points="143.42 68.78 148.61 70.47 148.51 70.55 148.42 70.64 143.36 68.99 143.33 68.87 143.42 68.78 143.42 68.78"/>
  <polygon class="cls-1" points="148.61 70.47 149.74 75.82 149.65 75.89 149.55 75.95 148.42 70.64 148.51 70.55 148.61 70.47 148.61 70.47"/>
  <polygon class="cls-1" points="150.02 76.18 146.19 78.22 146.14 78.12 146.09 78.02 149.92 75.99 149.97 76.09 150.02 76.18 150.02 76.18"/>
  <polygon class="cls-1" points="149.63 75.65 145.88 77.64 145.83 77.54 145.78 77.45 149.53 75.46 149.58 75.55 149.63 75.65 149.63 75.65"/>
  <text class="cls-2" transform="translate(143.94 79.01)"><tspan x="0" y="0">O</tspan></text>
  <polygon class="cls-1" points="149.74 75.82 153.24 78 153.19 78.1 153.13 78.19 149.55 75.95 149.65 75.89 149.74 75.82 149.74 75.82"/>
  <text class="cls-2" transform="translate(153.44 79.27)"><tspan x="0" y="0">N</tspan></text>
  <text class="cls-2" transform="translate(155.18 79.27)"><tspan x="0" y="0">H</tspan></text>
  <text class="cls-3" transform="translate(156.91 79.92)"><tspan x="0" y="0">2</tspan></text>
  <polygon class="cls-1" points="143.21 68.83 142.35 64.77 142.45 64.75 142.56 64.73 143.42 68.78 143.33 68.87 143.21 68.83 143.21 68.83"/>
  <text class="cls-2" transform="translate(141.37 64.04)"><tspan x="0" y="0">N</tspan></text>
  <text class="cls-2" transform="translate(143.1 64.04)"><tspan x="0" y="0">H</tspan></text>
  <polygon class="cls-1" points="141.08 63.29 136.92 61.94 137.01 61.85 137.1 61.77 141.14 63.08 141.11 63.18 141.08 63.29 141.08 63.29"/>
  <polygon class="cls-1" points="137.49 62.09 133.56 64.18 133.5 64.09 133.45 63.99 137.39 61.9 137.44 61.99 137.49 62.09 137.49 62.09"/>
  <polygon class="cls-1" points="136.99 61.61 133.25 63.61 133.2 63.51 133.15 63.41 136.89 61.42 136.94 61.52 136.99 61.61 136.99 61.61"/>
  <text class="cls-2" transform="translate(131.3 64.97)"><tspan x="0" y="0">O</tspan></text>
  <polygon class="cls-1" points="136.92 61.94 135.78 56.6 135.88 56.52 136 56.56 137.1 61.77 137.01 61.85 136.92 61.94 136.92 61.94"/>
  <polygon class="cls-1" points="135.85 56.4 139.89 52.76 139.93 52.87 139.97 52.98 136 56.56 135.88 56.52 135.85 56.4 135.85 56.4"/>
  <polygon class="cls-1" points="139.89 52.76 144.22 53.06 144.21 53.17 144.21 53.28 139.97 52.98 139.93 52.87 139.89 52.76 139.89 52.76"/>
  <text class="cls-2" transform="translate(144.47 53.81)"><tspan x="0" y="0">O</tspan></text>
  <text class="cls-2" transform="translate(146.34 53.81)"><tspan x="0" y="0">H</tspan></text>
  <polygon class="cls-1" points="135.78 56.6 131.74 55.29 131.78 55.19 131.81 55.08 135.85 56.4 135.88 56.52 135.78 56.6 135.78 56.6"/>
  <text class="cls-2" transform="translate(129.86 53.35)"><tspan x="0" y="0">H</tspan></text>
  <text class="cls-2" transform="translate(129.86 55.24)"><tspan x="0" y="0">N</tspan></text>
  <polygon class="cls-1" points="129.68 55.89 126.67 58.61 126.64 58.48 126.61 58.36 129.53 55.73 129.61 55.81 129.68 55.89 129.68 55.89"/>
  <polygon class="cls-1" points="126.99 58.21 128.83 61.98 128.73 62.03 128.64 62.07 126.8 58.3 126.89 58.25 126.99 58.21 126.99 58.21"/>
  <polygon class="cls-1" points="126.31 58.29 128.24 62.27 128.15 62.31 128.05 62.36 126.11 58.39 126.21 58.34 126.31 58.29 126.31 58.29"/>
  <text class="cls-2" transform="translate(128.13 63.94)"><tspan x="0" y="0">O</tspan></text>
  <polygon class="cls-1" points="126.67 58.61 121.48 56.92 121.46 56.8 121.55 56.71 126.61 58.36 126.64 58.48 126.67 58.61 126.67 58.61"/>
  <polygon class="cls-1" points="121.34 56.76 120.2 51.43 120.32 51.46 120.44 51.5 121.55 56.71 121.46 56.8 121.34 56.76 121.34 56.76"/>
  <polygon class="cls-1" points="120.2 51.43 123.15 48.77 123.22 48.86 123.29 48.94 120.44 51.5 120.32 51.46 120.2 51.43 120.2 51.43"/>
  <text class="cls-2" transform="translate(123.48 48.38)"><tspan x="0" y="0">O</tspan></text>
  <text class="cls-2" transform="translate(125.35 48.38)"><tspan x="0" y="0">H</tspan></text>
  <polygon class="cls-1" points="121.48 56.92 118.56 59.55 118.49 59.47 118.42 59.39 121.34 56.76 121.46 56.8 121.48 56.92 121.48 56.92"/>
  <text class="cls-2" transform="translate(114.84 60.95)"><tspan x="0" y="0">H</tspan></text>
  <text class="cls-2" transform="translate(116.57 60.95)"><tspan x="0" y="0">N</tspan></text>
  <polygon class="cls-1" points="117.77 61.64 118.66 65.82 118.54 65.78 118.42 65.74 117.56 61.68 117.66 61.66 117.77 61.64 117.77 61.64"/>
  <polygon class="cls-1" points="118.48 65.32 122.82 66.17 122.8 66.27 122.78 66.38 118.44 65.54 118.46 65.43 118.48 65.32 118.48 65.32"/>
  <polygon class="cls-1" points="118.25 65.95 122.69 66.81 122.67 66.92 122.65 67.02 118.21 66.16 118.23 66.05 118.25 65.95 118.25 65.95"/>
  <text class="cls-2" transform="translate(122.99 67.38)"><tspan x="0" y="0">O</tspan></text>
  <polygon class="cls-1" points="118.66 65.82 114.61 69.46 114.49 69.43 114.46 69.3 118.42 65.74 118.54 65.78 118.66 65.82 118.66 65.82"/>
  <polygon class="cls-1" points="114.39 69.51 109.21 67.83 109.3 67.74 109.4 67.66 114.46 69.3 114.49 69.43 114.39 69.51 114.39 69.51"/>
  <polygon class="cls-1" points="109.21 67.83 108.07 62.49 108.17 62.41 108.29 62.44 109.4 67.66 109.3 67.74 109.21 67.83 109.21 67.83"/>
  <polygon class="cls-1" points="108.07 62.49 103.07 60.26 103.19 60.19 103.3 60.12 108.14 62.28 108.17 62.41 108.07 62.49 108.07 62.49"/>
  <polygon class="cls-1" points="107.96 61.72 103.84 59.89 103.89 59.79 103.93 59.69 108.04 61.52 108 61.62 107.96 61.72 107.96 61.72"/>
  <polygon class="cls-1" points="103.07 60.26 103.52 55.97 103.63 55.98 103.74 55.99 103.3 60.12 103.19 60.19 103.07 60.26 103.07 60.26"/>
  <text class="cls-2" transform="translate(101.19 55.27)"><tspan x="0" y="0">H</tspan></text>
  <text class="cls-2" transform="translate(102.93 55.27)"><tspan x="0" y="0">N</tspan></text>
  <polygon class="cls-1" points="104.82 54.43 109.14 53.51 109.09 53.64 109.04 53.76 104.87 54.65 104.84 54.54 104.82 54.43 104.82 54.43"/>
  <polygon class="cls-1" points="109.14 53.51 111.21 57.09 111.12 57.14 111.02 57.2 109.04 53.76 109.09 53.64 109.14 53.51 109.14 53.51"/>
  <polygon class="cls-1" points="108.86 54.32 110.64 57.42 110.55 57.47 110.45 57.53 108.67 54.43 108.76 54.37 108.86 54.32 108.86 54.32"/>
  <text class="cls-2" transform="translate(110.99 58.86)"><tspan x="0" y="0">N</tspan></text>
  <polygon class="cls-1" points="110.81 59.64 108.29 62.44 108.17 62.41 108.14 62.28 110.65 59.49 110.73 59.56 110.81 59.64 110.81 59.64"/>
  <polygon class="cls-1" points="114.61 69.46 115.47 73.52 115.36 73.55 115.26 73.57 114.39 69.51 114.49 69.43 114.61 69.46 114.61 69.46"/>
  <text class="cls-2" transform="translate(113.05 75.26)"><tspan x="0" y="0">H</tspan></text>
  <text class="cls-2" transform="translate(114.79 75.26)"><tspan x="0" y="0">N</tspan></text>
  <polygon class="cls-1" points="116.74 75.01 120.9 76.36 120.8 76.44 120.71 76.53 116.67 75.22 116.71 75.11 116.74 75.01 116.74 75.01"/>
  <polygon class="cls-1" points="120.37 76.25 123.41 73.51 123.48 73.59 123.56 73.67 120.52 76.41 120.45 76.33 120.37 76.25 120.37 76.25"/>
  <polygon class="cls-1" points="120.81 76.73 123.85 74 123.92 74.08 124 74.16 120.96 76.89 120.88 76.81 120.81 76.73 120.81 76.73"/>
  <text class="cls-2" transform="translate(123.96 73.35)"><tspan x="0" y="0">O</tspan></text>
  <polygon class="cls-1" points="120.9 76.36 122.03 81.69 121.94 81.78 121.82 81.74 120.71 76.53 120.8 76.44 120.9 76.36 120.9 76.36"/>
  <polygon class="cls-1" points="121.96 81.9 118.01 85.46 117.89 85.42 117.86 85.3 121.82 81.74 121.94 81.78 121.96 81.9 121.96 81.9"/>
  <polygon class="cls-1" points="117.79 85.51 112.67 83.84 112.7 83.74 112.74 83.64 117.86 85.3 117.89 85.42 117.79 85.51 117.79 85.51"/>
  <polygon class="cls-1" points="118.01 85.46 119.13 90.73 119.02 90.76 118.91 90.78 117.79 85.51 117.89 85.42 118.01 85.46 118.01 85.46"/>
  <polygon class="cls-1" points="122.03 81.69 126.07 83 126.04 83.11 126 83.21 121.96 81.9 121.94 81.78 122.03 81.69 122.03 81.69"/>
  <text class="cls-2" transform="translate(126.29 83.96)"><tspan x="0" y="0">N</tspan></text>
  <text class="cls-2" transform="translate(126.29 85.86)"><tspan x="0" y="0">H</tspan></text>
  <polygon class="cls-1" points="128.14 82.4 131.15 79.69 131.17 79.81 131.2 79.94 128.28 82.56 128.21 82.48 128.14 82.4 128.14 82.4"/>
  <polygon class="cls-1" points="130.79 80.09 129.87 75.78 129.98 75.76 130.09 75.74 131 80.04 130.89 80.07 130.79 80.09 130.79 80.09"/>
  <polygon class="cls-1" points="131.43 79.95 130.51 75.65 130.62 75.62 130.73 75.6 131.64 79.91 131.53 79.93 131.43 79.95 131.43 79.95"/>
  <text class="cls-2" transform="translate(129.14 75.04)"><tspan x="0" y="0">O</tspan></text>
  <polygon class="cls-1" points="131.15 79.69 136.33 81.37 136.36 81.5 136.27 81.58 131.2 79.94 131.17 79.81 131.15 79.69 131.15 79.69"/>
  <polygon class="cls-1" points="136.48 81.54 137.61 86.87 137.49 86.83 137.37 86.79 136.27 81.58 136.36 81.5 136.48 81.54 136.48 81.54"/>
  <polygon class="cls-1" points="137.61 86.87 133.56 90.52 133.44 90.48 133.41 90.36 137.37 86.79 137.49 86.83 137.61 86.87 137.61 86.87"/>
  <polygon class="cls-1" points="133.56 90.52 134.03 95.9 133.92 95.91 133.81 95.92 133.34 90.57 133.44 90.48 133.56 90.52 133.56 90.52"/>
  <polygon class="cls-1" points="133.34 90.57 128.07 89.55 128.09 89.44 128.11 89.33 133.41 90.36 133.44 90.48 133.34 90.57 133.34 90.57"/>
  <polygon class="cls-1" points="136.33 81.37 139.25 78.75 139.33 78.83 139.4 78.91 136.48 81.54 136.36 81.5 136.33 81.37 136.33 81.37"/>
  <text class="cls-2" transform="translate(139.58 78.35)"><tspan x="0" y="0">N</tspan></text>
  <text class="cls-2" transform="translate(141.32 78.35)"><tspan x="0" y="0">H</tspan></text>
  <polygon class="cls-1" points="140.05 76.66 139.16 72.48 139.28 72.52 139.4 72.56 140.26 76.61 140.15 76.64 140.05 76.66 140.05 76.66"/>
  <polygon class="cls-1" points="139.32 72.99 135.11 71.62 135.14 71.52 135.18 71.41 139.39 72.78 139.36 72.89 139.32 72.99 139.32 72.99"/>
  <polygon class="cls-1" points="139.52 72.37 135.31 71 135.35 70.9 135.38 70.79 139.59 72.16 139.56 72.26 139.52 72.37 139.52 72.37"/>
  <text class="cls-2" transform="translate(133.19 71.39)"><tspan x="0" y="0">O</tspan></text>
  <polygon class="cls-1" points="139.16 72.48 143.21 68.83 143.33 68.87 143.36 68.99 139.4 72.56 139.28 72.52 139.16 72.48 139.16 72.48"/>
  <polygon class="cls-1" points="143.42 68.78 148.61 70.47 148.51 70.55 148.42 70.64 143.36 68.99 143.33 68.87 143.42 68.78 143.42 68.78"/>
  <polygon class="cls-1" points="148.61 70.47 149.74 75.8 149.65 75.89 149.53 75.85 148.42 70.64 148.51 70.55 148.61 70.47 148.61 70.47"/>
  <polygon class="cls-1" points="149.88 76.71 146.39 79.85 146.31 79.77 146.24 79.69 149.73 76.54 149.8 76.63 149.88 76.71 149.88 76.71"/>
  <polygon class="cls-1" points="149.67 76.01 145.72 79.57 145.6 79.53 145.48 79.5 149.53 75.85 149.65 75.89 149.67 76.01 149.67 76.01"/>
  <polygon class="cls-1" points="145.72 79.57 146.82 84.78 146.73 84.87 146.64 84.95 145.48 79.5 145.6 79.53 145.72 79.57 145.72 79.57"/>
  <polygon class="cls-1" points="147.32 84.26 151.79 85.71 151.76 85.81 151.72 85.92 147.26 84.47 147.29 84.36 147.32 84.26 147.32 84.26"/>
  <polygon class="cls-1" points="146.82 84.78 151.89 86.43 151.91 86.55 151.94 86.67 146.64 84.95 146.73 84.87 146.82 84.78 146.82 84.78"/>
  <polygon class="cls-1" points="151.89 86.43 155.85 82.86 155.97 82.9 156.09 82.94 151.94 86.67 151.91 86.55 151.89 86.43 151.89 86.43"/>
  <polygon class="cls-1" points="155.14 82.69 154.16 78.1 154.27 78.08 154.38 78.05 155.35 82.65 155.25 82.67 155.14 82.69 155.14 82.69"/>
  <polygon class="cls-1" points="155.85 82.86 154.74 77.66 154.83 77.57 154.93 77.49 156.09 82.94 155.97 82.9 155.85 82.86 155.85 82.86"/>
  <polygon class="cls-1" points="154.74 77.66 149.67 76.01 149.65 75.89 149.74 75.8 154.93 77.49 154.83 77.57 154.74 77.66 154.74 77.66"/>
  <polygon class="cls-1" points="143.21 68.83 142.35 64.77 142.45 64.75 142.56 64.73 143.42 68.78 143.33 68.87 143.21 68.83 143.21 68.83"/>
  <text class="cls-2" transform="translate(141.37 64.04)"><tspan x="0" y="0">N</tspan></text>
  <text class="cls-2" transform="translate(143.1 64.04)"><tspan x="0" y="0">H</tspan></text>
  <polygon class="cls-1" points="141.08 63.29 136.92 61.94 137.01 61.85 137.1 61.77 141.14 63.08 141.11 63.18 141.08 63.29 141.08 63.29"/>
  <polygon class="cls-1" points="137.42 62.02 135.14 65.4 135.05 65.34 134.96 65.28 137.24 61.9 137.33 61.96 137.42 62.02 137.42 62.02"/>
  <polygon class="cls-1" points="137.01 61.47 134.6 65.04 134.51 64.98 134.42 64.92 136.83 61.35 136.92 61.41 137.01 61.47 137.01 61.47"/>
  <text class="cls-2" transform="translate(133.07 66.93)"><tspan x="0" y="0">O</tspan></text>
  <polygon class="cls-1" points="136.92 61.94 135.78 56.6 135.88 56.52 136 56.56 137.1 61.77 137.01 61.85 136.92 61.94 136.92 61.94"/>
  <polygon class="cls-1" points="135.85 56.4 139.9 52.75 139.93 52.87 139.96 52.99 136 56.56 135.88 56.52 135.85 56.4 135.85 56.4"/>
  <polygon class="cls-1" points="139.9 52.75 145.09 54.43 145.11 54.56 145.14 54.68 139.96 52.99 139.93 52.87 139.9 52.75 139.9 52.75"/>
  <polygon class="cls-1" points="145.5 54.28 146.42 58.59 146.31 58.61 146.2 58.63 145.29 54.33 145.39 54.3 145.5 54.28 145.5 54.28"/>
  <polygon class="cls-1" points="144.86 54.42 145.78 58.72 145.67 58.74 145.56 58.77 144.65 54.46 144.75 54.44 144.86 54.42 144.86 54.42"/>
  <text class="cls-2" transform="translate(145.35 60.45)"><tspan x="0" y="0">O</tspan></text>
  <polygon class="cls-1" points="145.09 54.43 148.01 51.8 148.08 51.89 148.15 51.97 145.14 54.68 145.11 54.56 145.09 54.43 145.09 54.43"/>
  <text class="cls-2" transform="translate(148.33 51.41)"><tspan x="0" y="0">N</tspan></text>
  <text class="cls-2" transform="translate(150.07 51.41)"><tspan x="0" y="0">H</tspan></text>
  <text class="cls-3" transform="translate(151.8 52.05)"><tspan x="0" y="0">2</tspan></text>
  <polygon class="cls-1" points="135.78 56.6 131.74 55.29 131.78 55.19 131.81 55.08 135.85 56.4 135.88 56.52 135.78 56.6 135.78 56.6"/>
  <text class="cls-2" transform="translate(129.86 53.35)"><tspan x="0" y="0">H</tspan></text>
  <text class="cls-2" transform="translate(129.86 55.24)"><tspan x="0" y="0">N</tspan></text>
  <polygon class="cls-1" points="129.68 55.89 126.67 58.61 126.64 58.48 126.61 58.36 129.53 55.73 129.61 55.81 129.68 55.89 129.68 55.89"/>
  <polygon class="cls-1" points="127.03 58.21 127.94 62.51 127.84 62.53 127.73 62.56 126.81 58.25 126.92 58.23 127.03 58.21 127.03 58.21"/>
  <polygon class="cls-1" points="126.39 58.34 127.3 62.65 127.2 62.67 127.09 62.69 126.18 58.39 126.28 58.37 126.39 58.34 126.39 58.34"/>
  <text class="cls-2" transform="translate(126.88 64.37)"><tspan x="0" y="0">O</tspan></text>
  <polygon class="cls-1" points="126.67 58.61 121.48 56.92 121.46 56.8 121.55 56.71 126.61 58.36 126.64 58.48 126.67 58.61 126.67 58.61"/>
  <polygon class="cls-1" points="121.34 56.76 120.22 51.49 120.32 51.46 120.43 51.44 121.55 56.71 121.46 56.8 121.34 56.76 121.34 56.76"/>
  <polygon class="cls-1" points="121.48 56.92 118.56 59.55 118.49 59.47 118.42 59.39 121.34 56.76 121.46 56.8 121.48 56.92 121.48 56.92"/>
  <text class="cls-2" transform="translate(114.84 60.95)"><tspan x="0" y="0">H</tspan></text>
  <text class="cls-2" transform="translate(116.57 60.95)"><tspan x="0" y="0">N</tspan></text>
  <polygon class="cls-1" points="117.77 61.64 118.66 65.82 118.54 65.78 118.42 65.74 117.56 61.68 117.66 61.66 117.77 61.64 117.77 61.64"/>
  <polygon class="cls-1" points="118.5 65.28 122.51 67.15 122.46 67.25 122.42 67.35 118.41 65.48 118.45 65.38 118.5 65.28 118.5 65.28"/>
  <polygon class="cls-1" points="118.32 65.92 122.23 67.74 122.19 67.84 122.14 67.94 118.23 66.11 118.27 66.02 118.32 65.92 118.32 65.92"/>
  <text class="cls-2" transform="translate(122.58 68.64)"><tspan x="0" y="0">O</tspan></text>
  <polygon class="cls-1" points="118.66 65.82 114.61 69.46 114.49 69.43 114.46 69.3 118.42 65.74 118.54 65.78 118.66 65.82 118.66 65.82"/>
  <polygon class="cls-1" points="114.39 69.51 109.21 67.83 109.3 67.74 109.4 67.66 114.46 69.3 114.49 69.43 114.39 69.51 114.39 69.51"/>
  <polygon class="cls-1" points="109.21 67.83 108.08 62.53 108.17 62.41 108.3 62.49 109.4 67.66 109.3 67.74 109.21 67.83 109.21 67.83"/>
  <polygon class="cls-1" points="108.08 62.53 102.82 63.46 102.8 63.36 102.78 63.25 108.25 62.28 108.17 62.41 108.08 62.53 108.08 62.53"/>
  <polygon class="cls-1" points="108.04 62.33 113.43 60.98 113.46 61.09 113.48 61.2 108.3 62.49 108.17 62.41 108.04 62.33 108.04 62.33"/>
  <polygon class="cls-1" points="114.61 69.46 115.47 73.52 115.36 73.55 115.26 73.57 114.39 69.51 114.49 69.43 114.61 69.46 114.61 69.46"/>
  <text class="cls-2" transform="translate(113.05 75.26)"><tspan x="0" y="0">H</tspan></text>
  <text class="cls-2" transform="translate(114.79 75.26)"><tspan x="0" y="0">N</tspan></text>
  <polygon class="cls-1" points="116.74 75.01 120.9 76.36 120.8 76.44 120.71 76.53 116.67 75.22 116.71 75.11 116.74 75.01 116.74 75.01"/>
  <polygon class="cls-1" points="120.32 76.21 124.26 74.11 124.31 74.21 124.36 74.3 120.42 76.4 120.37 76.3 120.32 76.21 120.32 76.21"/>
  <polygon class="cls-1" points="120.82 76.68 124.57 74.69 124.62 74.79 124.67 74.88 120.93 76.87 120.88 76.78 120.82 76.68 120.82 76.68"/>
  <text class="cls-2" transform="translate(124.72 74.44)"><tspan x="0" y="0">O</tspan></text>
  <polygon class="cls-1" points="120.9 76.36 122.03 81.69 121.94 81.78 121.82 81.74 120.71 76.53 120.8 76.44 120.9 76.36 120.9 76.36"/>
  <polygon class="cls-1" points="121.96 81.9 117.91 85.55 117.89 85.42 117.86 85.3 121.82 81.74 121.94 81.78 121.96 81.9 121.96 81.9"/>
  <polygon class="cls-1" points="117.91 85.55 112.73 83.86 112.7 83.74 112.68 83.62 117.86 85.3 117.89 85.42 117.91 85.55 117.91 85.55"/>
  <polygon class="cls-1" points="112.73 83.86 108.68 87.51 108.65 87.39 108.62 87.26 112.68 83.62 112.7 83.74 112.73 83.86 112.73 83.86"/>
  <polygon class="cls-1" points="108.68 87.51 104.52 86.16 104.55 86.06 104.59 85.95 108.62 87.26 108.65 87.39 108.68 87.51 108.68 87.51"/>
  <text class="cls-2" transform="translate(102.63 84.21)"><tspan x="0" y="0">H</tspan></text>
  <text class="cls-2" transform="translate(102.63 86.11)"><tspan x="0" y="0">N</tspan></text>
  <polygon class="cls-1" points="102.45 86.76 99.45 89.46 99.41 89.35 99.38 89.24 102.31 86.6 102.38 86.68 102.45 86.76 102.45 86.76"/>
  <polygon class="cls-1" points="99.8 89.08 100.72 93.38 100.61 93.4 100.5 93.43 99.59 89.12 99.69 89.1 99.8 89.08 99.8 89.08"/>
  <polygon class="cls-1" points="99.18 89.3 100.08 93.52 99.97 93.54 99.86 93.56 98.97 89.35 99.07 89.33 99.18 89.3 99.18 89.3"/>
  <text class="cls-2" transform="translate(99.72 95.18)"><tspan x="0" y="0">N</tspan></text>
  <text class="cls-2" transform="translate(101.45 95.18)"><tspan x="0" y="0">H</tspan></text>
  <polygon class="cls-1" points="99.45 89.46 95.05 89.16 95.06 89.05 95.07 88.94 99.38 89.24 99.41 89.35 99.45 89.46 99.45 89.46"/>
  <text class="cls-2" transform="translate(90.61 89.47)"><tspan x="0" y="0">H</tspan></text>
  <text class="cls-3" transform="translate(92.34 90.11)"><tspan x="0" y="0">2</tspan></text>
  <text class="cls-2" transform="translate(93.14 89.47)"><tspan x="0" y="0">N</tspan></text>
  <polygon class="cls-1" points="122.03 81.69 126.07 83 126.04 83.11 126 83.21 121.96 81.9 121.94 81.78 122.03 81.69 122.03 81.69"/>
  <text class="cls-2" transform="translate(126.29 83.96)"><tspan x="0" y="0">N</tspan></text>
  <text class="cls-2" transform="translate(126.29 85.86)"><tspan x="0" y="0">H</tspan></text>
  <polygon class="cls-1" points="128.14 82.4 131.15 79.69 131.17 79.81 131.2 79.94 128.28 82.56 128.21 82.48 128.14 82.4 128.14 82.4"/>
  <polygon class="cls-1" points="130.73 80.11 130.89 75.56 131 75.57 131.11 75.57 130.95 80.12 130.84 80.12 130.73 80.11 130.73 80.11"/>
  <polygon class="cls-1" points="131.39 79.91 131.54 75.58 131.65 75.59 131.76 75.59 131.61 79.92 131.5 79.92 131.39 79.91 131.39 79.91"/>
  <text class="cls-2" transform="translate(130.47 74.92)"><tspan x="0" y="0">O</tspan></text>
  <polygon class="cls-1" points="131.15 79.69 136.33 81.37 136.36 81.5 136.27 81.58 131.2 79.94 131.17 79.81 131.15 79.69 131.15 79.69"/>
  <polygon class="cls-1" points="136.48 81.54 137.61 86.87 137.49 86.83 137.37 86.79 136.27 81.58 136.36 81.5 136.48 81.54 136.48 81.54"/>
  <polygon class="cls-1" points="137.61 86.87 133.56 90.52 133.44 90.48 133.32 90.44 137.37 86.79 137.49 86.83 137.61 86.87 137.61 86.87"/>
  <polygon class="cls-1" points="133.56 90.52 134.7 95.85 134.58 95.81 134.46 95.77 133.32 90.44 133.44 90.48 133.56 90.52 133.56 90.52"/>
  <polygon class="cls-1" points="134.53 95.34 138.74 96.71 138.71 96.81 138.67 96.91 134.46 95.55 134.5 95.44 134.53 95.34 134.53 95.34"/>
  <polygon class="cls-1" points="134.33 95.96 138.54 97.33 138.51 97.43 138.47 97.54 134.26 96.17 134.29 96.06 134.33 95.96 134.33 95.96"/>
  <text class="cls-2" transform="translate(138.86 98.05)"><tspan x="0" y="0">O</tspan></text>
  <polygon class="cls-1" points="134.7 95.85 131.68 98.56 131.61 98.48 131.54 98.4 134.46 95.77 134.58 95.81 134.7 95.85 134.7 95.85"/>
  <text class="cls-2" transform="translate(127.16 99.96)"><tspan x="0" y="0">H</tspan></text>
  <text class="cls-3" transform="translate(128.89 100.6)"><tspan x="0" y="0">2</tspan></text>
  <text class="cls-2" transform="translate(129.69 99.96)"><tspan x="0" y="0">N</tspan></text>
  <polygon class="cls-1" points="136.33 81.37 139.25 78.75 139.33 78.83 139.4 78.91 136.48 81.54 136.36 81.5 136.33 81.37 136.33 81.37"/>
  <text class="cls-2" transform="translate(139.58 78.35)"><tspan x="0" y="0">N</tspan></text>
  <text class="cls-2" transform="translate(141.32 78.35)"><tspan x="0" y="0">H</tspan></text>
  <polygon class="cls-1" points="140.05 76.66 139.16 72.48 139.28 72.52 139.4 72.56 140.26 76.61 140.15 76.64 140.05 76.66 140.05 76.66"/>
  <polygon class="cls-1" points="139.34 72.96 134.96 72.65 134.97 72.54 134.98 72.43 139.36 72.74 139.35 72.85 139.34 72.96 139.34 72.96"/>
  <polygon class="cls-1" points="139.61 72.32 135.01 72 135.02 71.89 135.02 71.78 139.62 72.1 139.62 72.21 139.61 72.32 139.61 72.32"/>
  <text class="cls-2" transform="translate(132.94 72.69)"><tspan x="0" y="0">O</tspan></text>
  <polygon class="cls-1" points="139.16 72.48 143.21 68.83 143.33 68.87 143.36 68.99 139.4 72.56 139.28 72.52 139.16 72.48 139.16 72.48"/>
  <polygon class="cls-1" points="143.42 68.78 148.49 70.43 148.51 70.55 148.42 70.64 143.36 68.99 143.33 68.87 143.42 68.78 143.42 68.78"/>
  <polygon class="cls-1" points="148.63 70.59 149.75 75.86 149.65 75.89 149.54 75.91 148.42 70.64 148.51 70.55 148.63 70.59 148.63 70.59"/>
  <polygon class="cls-1" points="148.49 70.43 151.34 67.86 151.41 67.94 151.49 68.03 148.63 70.59 148.51 70.55 148.49 70.43 148.49 70.43"/>
  <text class="cls-2" transform="translate(151.67 67.46)"><tspan x="0" y="0">O</tspan></text>
  <text class="cls-2" transform="translate(153.54 67.46)"><tspan x="0" y="0">H</tspan></text>
  <polygon class="cls-1" points="143.21 68.83 142.35 64.77 142.45 64.75 142.56 64.73 143.42 68.78 143.33 68.87 143.21 68.83 143.21 68.83"/>
  <text class="cls-2" transform="translate(141.37 64.04)"><tspan x="0" y="0">N</tspan></text>
  <text class="cls-2" transform="translate(143.1 64.04)"><tspan x="0" y="0">H</tspan></text>
  <polygon class="cls-1" points="141.08 63.29 136.92 61.94 137.01 61.85 137.1 61.77 141.14 63.08 141.11 63.18 141.08 63.29 141.08 63.29"/>
  <polygon class="cls-1" points="137.44 62.05 134.4 64.79 134.33 64.7 134.26 64.62 137.3 61.89 137.37 61.97 137.44 62.05 137.44 62.05"/>
  <polygon class="cls-1" points="137.01 61.56 133.97 64.3 133.89 64.22 133.82 64.14 136.86 61.4 136.93 61.48 137.01 61.56 137.01 61.56"/>
  <text class="cls-2" transform="translate(132.06 66.06)"><tspan x="0" y="0">O</tspan></text>
  <polygon class="cls-1" points="136.92 61.94 135.78 56.6 135.88 56.52 136 56.56 137.1 61.77 137.01 61.85 136.92 61.94 136.92 61.94"/>
  <polygon class="cls-1" points="135.85 56.4 139.86 52.79 139.93 52.87 140 52.95 136 56.56 135.88 56.52 135.85 56.4 135.85 56.4"/>
  <polygon class="cls-1" points="135.78 56.6 131.74 55.29 131.78 55.19 131.81 55.08 135.85 56.4 135.88 56.52 135.78 56.6 135.78 56.6"/>
  <text class="cls-2" transform="translate(129.86 53.35)"><tspan x="0" y="0">H</tspan></text>
  <text class="cls-2" transform="translate(129.86 55.24)"><tspan x="0" y="0">N</tspan></text>
  <polygon class="cls-1" points="129.68 55.89 126.67 58.61 126.64 58.48 126.61 58.36 129.53 55.73 129.61 55.81 129.68 55.89 129.68 55.89"/>
  <polygon class="cls-1" points="127.09 58.18 126.93 62.73 126.82 62.73 126.71 62.73 126.87 58.17 126.98 58.18 127.09 58.18 127.09 58.18"/>
  <polygon class="cls-1" points="126.43 58.38 126.27 62.71 126.17 62.71 126.06 62.7 126.21 58.37 126.32 58.38 126.43 58.38 126.43 58.38"/>
  <text class="cls-2" transform="translate(125.55 64.49)"><tspan x="0" y="0">O</tspan></text>
  <polygon class="cls-1" points="126.67 58.61 121.51 56.93 121.46 56.8 121.58 56.72 126.61 58.36 126.64 58.48 126.67 58.61 126.67 58.61"/>
  <polygon class="cls-1" points="121.35 56.76 122.2 51.41 122.31 51.41 122.42 51.41 121.58 56.72 121.46 56.8 121.35 56.76 121.35 56.76"/>
  <polygon class="cls-1" points="122.2 51.41 121.54 47.26 121.65 47.24 121.76 47.22 122.42 51.41 122.31 51.41 122.2 51.41 122.2 51.41"/>
  <text class="cls-2" transform="translate(120.69 46.58)"><tspan x="0" y="0">S</tspan></text>
  <polygon class="cls-1" points="120.74 44.87 119.5 42.43 119.6 42.38 119.7 42.33 120.94 44.77 120.84 44.82 120.74 44.87 120.74 44.87"/>
  <text class="cls-2" transform="translate(118.22 41.73)"><tspan x="0" y="0">S</tspan></text>
  <polygon class="cls-1" points="117.88 40.23 115.06 37.4 115.13 37.32 115.19 37.23 118.04 40.07 117.96 40.15 117.88 40.23 117.88 40.23"/>
  <polygon class="cls-1" points="115.06 37.4 110.23 34.95 110.27 34.84 110.4 34.79 115.19 37.23 115.13 37.32 115.06 37.4 115.06 37.4"/>
  <polygon class="cls-1" points="110.23 34.95 104.88 34.1 104.88 33.99 104.88 33.88 110.19 34.72 110.27 34.84 110.23 34.95 110.23 34.95"/>
  <polygon class="cls-1" points="104.45 34.04 104.45 29.75 104.56 29.75 104.67 29.75 104.67 34.04 104.56 34.04 104.45 34.04 104.45 34.04"/>
  <polygon class="cls-1" points="105.1 34.04 105.1 29.75 105.21 29.75 105.32 29.75 105.32 34.04 105.21 34.04 105.1 34.04 105.1 34.04"/>
  <text class="cls-2" transform="translate(103.98 29.09)"><tspan x="0" y="0">O</tspan></text>
  <polygon class="cls-1" points="104.88 34.1 100.6 34.78 100.58 34.67 100.57 34.56 104.88 33.88 104.88 33.99 104.88 34.1 104.88 34.1"/>
  <text class="cls-2" transform="translate(98.67 33.35)"><tspan x="0" y="0">H</tspan></text>
  <text class="cls-2" transform="translate(98.67 35.25)"><tspan x="0" y="0">N</tspan></text>
  <polygon class="cls-1" points="98.46 35.49 94.71 37.4 94.64 37.32 94.67 37.18 98.36 35.3 98.41 35.39 98.46 35.49 98.46 35.49"/>
  <polygon class="cls-1" points="94.71 37.4 90.88 41.24 90.79 41.17 90.7 41.11 94.5 37.3 94.64 37.32 94.71 37.4 94.71 37.4"/>
  <polygon class="cls-1" points="90.57 41.55 87.27 39.16 87.34 39.07 87.4 38.98 90.7 41.38 90.64 41.47 90.57 41.55 90.57 41.55"/>
  <polygon class="cls-1" points="90.96 41.02 87.66 38.63 87.72 38.54 87.79 38.45 91.08 40.85 91.02 40.94 90.96 41.02 90.96 41.02"/>
  <text class="cls-2" transform="translate(85.48 38.52)"><tspan x="0" y="0">O</tspan></text>
  <polygon class="cls-1" points="90.88 41.24 89.03 44.87 88.93 44.82 88.83 44.77 90.7 41.11 90.79 41.17 90.88 41.24 90.88 41.24"/>
  <text class="cls-2" transform="translate(85.74 46.53)"><tspan x="0" y="0">H</tspan></text>
  <text class="cls-2" transform="translate(87.48 46.53)"><tspan x="0" y="0">N</tspan></text>
  <polygon class="cls-1" points="88.23 47.26 87.57 51.41 87.46 51.41 87.37 51.3 88.01 47.22 88.12 47.24 88.23 47.26 88.23 47.26"/>
  <polygon class="cls-1" points="87.57 51.41 88.42 56.76 88.31 56.8 88.21 56.83 87.37 51.52 87.46 51.41 87.57 51.41 87.57 51.41"/>
  <polygon class="cls-1" points="88.48 57.22 84.06 57.53 84.05 57.42 84.04 57.31 88.47 57.01 88.47 57.11 88.48 57.22 88.48 57.22"/>
  <polygon class="cls-1" points="88.27 56.58 84.01 56.88 84 56.77 84 56.66 88.25 56.36 88.26 56.47 88.27 56.58 88.27 56.58"/>
  <text class="cls-2" transform="translate(81.97 57.74)"><tspan x="0" y="0">O</tspan></text>
  <polygon class="cls-1" points="88.42 56.76 90.27 60.39 90.17 60.44 90.07 60.49 88.21 56.83 88.31 56.8 88.42 56.76 88.42 56.76"/>
  <text class="cls-2" transform="translate(88.22 62.16)"><tspan x="0" y="0">H</tspan></text>
  <text class="cls-2" transform="translate(89.96 62.16)"><tspan x="0" y="0">N</tspan></text>
  <polygon class="cls-1" points="91.95 62.66 94.71 65.42 94.64 65.51 94.5 65.52 91.8 62.82 91.87 62.74 91.95 62.66 91.95 62.66"/>
  <polygon class="cls-1" points="94.71 65.42 99.53 67.88 99.5 67.99 99.46 68.09 94.67 65.65 94.64 65.51 94.71 65.42 94.71 65.42"/>
  <polygon class="cls-1" points="99.93 68.07 98.62 72.09 98.52 72.06 98.42 72.02 99.72 68 99.83 68.04 99.93 68.07 99.93 68.07"/>
  <polygon class="cls-1" points="99.31 67.87 98 71.89 97.9 71.86 97.79 71.82 99.1 67.8 99.2 67.83 99.31 67.87 99.31 67.87"/>
  <text class="cls-2" transform="translate(96.92 73.73)"><tspan x="0" y="0">O</tspan></text>
  <polygon class="cls-1" points="99.53 67.88 103.81 68.56 103.8 68.67 103.78 68.77 99.46 68.09 99.5 67.99 99.53 67.88 99.53 67.88"/>
  <text class="cls-2" transform="translate(104.05 69.34)"><tspan x="0" y="0">N</tspan></text>
  <text class="cls-2" transform="translate(104.05 71.23)"><tspan x="0" y="0">H</tspan></text>
  <polygon class="cls-1" points="105.95 68.56 110.23 67.88 110.27 67.99 110.19 68.11 105.99 68.77 105.97 68.67 105.95 68.56 105.95 68.56"/>
  <polygon class="cls-1" points="110.23 67.88 115.06 65.42 115.13 65.51 115.19 65.6 110.4 68.04 110.27 67.99 110.23 67.88 110.23 67.88"/>
  <polygon class="cls-1" points="115.45 65.21 117.8 68.45 117.71 68.52 117.63 68.58 115.27 65.34 115.36 65.28 115.45 65.21 115.45 65.21"/>
  <polygon class="cls-1" points="114.92 65.6 117.27 68.84 117.18 68.9 117.1 68.96 114.74 65.72 114.83 65.66 114.92 65.6 114.92 65.6"/>
  <text class="cls-2" transform="translate(117.43 70.48)"><tspan x="0" y="0">O</tspan></text>
  <polygon class="cls-1" points="115.06 65.42 117.82 62.66 117.89 62.74 117.97 62.82 115.19 65.6 115.13 65.51 115.06 65.42 115.06 65.42"/>
  <text class="cls-2" transform="translate(118.15 62.16)"><tspan x="0" y="0">N</tspan></text>
  <text class="cls-2" transform="translate(119.89 62.16)"><tspan x="0" y="0">H</tspan></text>
  <polygon class="cls-1" points="119.5 60.39 121.35 56.76 121.46 56.8 121.51 56.93 119.7 60.49 119.6 60.44 119.5 60.39 119.5 60.39"/>
  <polygon class="cls-1" points="110.4 68.04 112.02 73.01 111.95 73.17 111.82 73.13 110.19 68.11 110.27 67.99 110.4 68.04 110.4 68.04"/>
  <polygon class="cls-1" points="112.02 73.01 116.62 70.35 116.67 70.44 116.73 70.54 111.89 73.33 111.95 73.17 112.02 73.01 112.02 73.01"/>
  <polygon class="cls-1" points="112.08 73.21 108.65 75.53 108.59 75.44 108.53 75.35 111.82 73.13 111.95 73.17 112.08 73.21 112.08 73.21"/>
  <text class="cls-2" transform="translate(104.8 76.72)"><tspan x="0" y="0">H</tspan></text>
  <text class="cls-2" transform="translate(106.54 76.72)"><tspan x="0" y="0">O</tspan></text>
  <polygon class="cls-1" points="94.67 65.65 91.53 69.98 91.44 69.92 91.35 69.86 94.5 65.52 94.64 65.51 94.67 65.65 94.67 65.65"/>
  <polygon class="cls-1" points="87.37 51.52 82.07 51.52 82.01 51.41 82.07 51.3 87.37 51.3 87.46 51.41 87.37 51.52 87.37 51.52"/>
  <polygon class="cls-1" points="81.88 51.41 79.19 46.75 79.28 46.69 79.38 46.64 82.07 51.3 82.01 51.41 81.88 51.41 81.88 51.41"/>
  <polygon class="cls-1" points="82.07 51.52 80.08 54.98 79.98 54.92 79.89 54.87 81.88 51.41 82.01 51.41 82.07 51.52 82.07 51.52"/>
  <text class="cls-2" transform="translate(76.65 56.63)"><tspan x="0" y="0">H</tspan></text>
  <text class="cls-2" transform="translate(78.38 56.63)"><tspan x="0" y="0">O</tspan></text>
  <polygon class="cls-1" points="94.5 37.3 91.31 32.92 91.44 32.9 91.56 32.89 94.67 37.18 94.64 37.32 94.5 37.3 94.5 37.3"/>
  <polygon class="cls-1" points="91.31 32.92 93.53 27.94 93.65 27.92 93.78 27.91 91.56 32.89 91.44 32.9 91.31 32.92 91.31 32.92"/>
  <polygon class="cls-1" points="93.42 27.51 97.88 27.04 97.89 27.15 97.9 27.26 93.44 27.73 93.43 27.62 93.42 27.51 93.42 27.51"/>
  <polygon class="cls-1" points="93.49 28.16 97.95 27.69 97.96 27.8 97.97 27.91 93.51 28.38 93.5 28.27 93.49 28.16 93.49 28.16"/>
  <text class="cls-2" transform="translate(98.18 27.91)"><tspan x="0" y="0">O</tspan></text>
  <polygon class="cls-1" points="93.53 27.94 91.24 24.79 91.33 24.73 91.42 24.66 93.78 27.91 93.65 27.92 93.53 27.94 93.53 27.94"/>
  <text class="cls-2" transform="translate(87.08 24.01)"><tspan x="0" y="0">H</tspan></text>
  <text class="cls-3" transform="translate(88.82 24.66)"><tspan x="0" y="0">2</tspan></text>
  <text class="cls-2" transform="translate(89.62 24.01)"><tspan x="0" y="0">N</tspan></text>
  <polygon class="cls-1" points="110.19 34.72 111.46 30.83 111.56 30.87 111.66 30.9 110.4 34.79 110.27 34.84 110.19 34.72 110.19 34.72"/>
  <text class="cls-2" transform="translate(111.12 28.17)"><tspan x="0" y="0">H</tspan></text>
  <text class="cls-2" transform="translate(111.12 30.06)"><tspan x="0" y="0">N</tspan></text>
  <polygon class="cls-1" points="113.02 29.32 117.2 28.43 117.29 28.52 117.37 28.62 113.06 29.53 113.04 29.42 113.02 29.32 113.02 29.32"/>
  <polygon class="cls-1" points="117.48 28.09 120.17 31.07 120.08 31.14 120 31.21 117.32 28.24 117.4 28.16 117.48 28.09 117.48 28.09"/>
  <polygon class="cls-1" points="117 28.53 119.68 31.51 119.6 31.58 119.52 31.65 116.84 28.67 116.92 28.6 117 28.53 117 28.53"/>
  <text class="cls-2" transform="translate(120.04 33.13)"><tspan x="0" y="0">O</tspan></text>
  <polygon class="cls-1" points="117.2 28.43 118.85 23.36 118.97 23.34 119.05 23.43 117.37 28.62 117.29 28.52 117.2 28.43 117.2 28.43"/>
  <polygon class="cls-1" points="119.01 23.22 124.22 22.11 124.3 22.2 124.39 22.3 119.05 23.43 118.97 23.34 119.01 23.22 119.01 23.22"/>
  <polygon class="cls-1" points="124.22 22.11 125.9 16.92 125.99 17.02 126.07 17.11 124.39 22.3 124.3 22.2 124.22 22.11 124.22 22.11"/>
  <polygon class="cls-1" points="125.9 16.92 131.24 15.79 131.32 15.89 131.4 15.98 126.07 17.11 125.99 17.02 125.9 16.92 125.9 16.92"/>
  <polygon class="cls-1" points="131.24 15.79 132.92 10.61 133.01 10.7 133.09 10.79 131.4 15.98 131.32 15.89 131.24 15.79 131.24 15.79"/>
  <polygon class="cls-1" points="132.92 10.61 137.23 9.69 137.25 9.8 137.27 9.9 133.09 10.79 133.01 10.7 132.92 10.61 132.92 10.61"/>
  <text class="cls-2" transform="translate(137.51 10.06)"><tspan x="0" y="0">N</tspan></text>
  <text class="cls-2" transform="translate(139.24 10.06)"><tspan x="0" y="0">H</tspan></text>
  <text class="cls-3" transform="translate(140.98 10.71)"><tspan x="0" y="0">2</tspan></text>
  <polygon class="cls-1" points="118.85 23.36 116.33 20.56 116.41 20.49 116.49 20.42 119.01 23.22 118.97 23.34 118.85 23.36 118.85 23.36"/>
  <text class="cls-2" transform="translate(111.95 19.79)"><tspan x="0" y="0">H</tspan></text>
  <text class="cls-3" transform="translate(113.69 20.43)"><tspan x="0" y="0">2</tspan></text>
  <text class="cls-2" transform="translate(114.49 19.79)"><tspan x="0" y="0">N</tspan></text>
  <polygon class="cls-1" points="107.04 62.02 103.19 60.31 103.19 60.19 103.3 60.12 107.13 61.83 107.08 61.93 107.04 62.02 107.04 62.02"/>
</svg>